<svg xmlns="http://www.w3.org/2000/svg" width="300" height="300" viewBox="0 0 300 300">
<path d="M 138.98 115.52 L 138.87 116.33 C 138.74 117.19 139.33 117.99 140.19 118.11 C 141.05 118.24 141.84 117.64 141.97 116.79 L 142.09 115.97 C 142.21 115.12 141.62 114.32 140.76 114.20 C 139.90 114.07 139.11 114.67 138.98 115.52 Z M 138.84 116.46 L 138.78 117.33 C 138.72 118.21 139.38 118.96 140.25 119.02 C 141.13 119.07 141.88 118.41 141.94 117.54 L 142.00 116.66 C 142.05 115.79 141.39 115.04 140.52 114.98 C 139.65 114.92 138.90 115.58 138.84 116.46 Z M 138.77 117.54 L 138.83 118.54 C 138.88 119.42 139.64 120.09 140.52 120.04 C 141.40 119.98 142.07 119.23 142.01 118.35 L 141.95 117.34 C 141.90 116.46 141.14 115.79 140.26 115.84 C 139.38 115.90 138.71 116.66 138.77 117.54 Z M 138.84 118.76 L 139.08 119.97 C 139.26 120.84 140.11 121.40 140.98 121.23 C 141.85 121.05 142.42 120.21 142.24 119.33 L 142.00 118.13 C 141.82 117.26 140.98 116.69 140.10 116.87 C 139.23 117.04 138.67 117.89 138.84 118.76 Z M 139.12 120.12 L 139.37 120.96 C 139.63 121.81 140.53 122.30 141.38 122.04 C 142.24 121.78 142.72 120.88 142.46 120.03 L 142.21 119.18 C 141.95 118.33 141.05 117.85 140.20 118.11 C 139.34 118.36 138.86 119.26 139.12 120.12 Z M 139.41 121.03 L 139.70 121.86 C 140.00 122.70 140.92 123.14 141.75 122.84 C 142.59 122.54 143.02 121.63 142.72 120.79 L 142.43 119.96 C 142.13 119.12 141.22 118.69 140.38 118.98 C 139.55 119.28 139.11 120.20 139.41 121.03 Z M 139.73 121.91 L 140.08 122.80 C 140.40 123.62 141.32 124.02 142.14 123.70 C 142.96 123.38 143.36 122.46 143.04 121.64 L 142.70 120.75 C 142.38 119.93 141.45 119.53 140.64 119.84 C 139.82 120.16 139.41 121.09 139.73 121.91 Z M 140.10 122.82 L 140.49 123.76 C 140.82 124.57 141.75 124.95 142.55 124.62 C 143.36 124.28 143.74 123.36 143.41 122.55 L 143.02 121.61 C 142.69 120.81 141.76 120.42 140.96 120.76 C 140.15 121.09 139.77 122.02 140.10 122.82 Z M 140.51 123.77 L 140.92 124.74 C 141.26 125.54 142.19 125.91 142.98 125.57 C 143.78 125.23 144.15 124.30 143.81 123.51 L 143.39 122.54 C 143.05 121.74 142.13 121.37 141.33 121.71 C 140.53 122.05 140.16 122.98 140.51 123.77 Z M 140.94 124.75 L 141.37 125.74 C 141.72 126.53 142.63 126.89 143.42 126.55 C 144.21 126.20 144.57 125.28 144.23 124.50 L 143.79 123.50 C 143.45 122.71 142.53 122.35 141.74 122.70 C 140.95 123.04 140.59 123.96 140.94 124.75 Z M 141.38 125.74 L 141.82 126.75 C 142.17 127.53 143.08 127.88 143.86 127.54 C 144.64 127.20 145.00 126.29 144.66 125.50 L 144.22 124.50 C 143.87 123.72 142.96 123.36 142.18 123.70 C 141.40 124.05 141.04 124.96 141.38 125.74 Z M 141.83 126.74 L 142.26 127.73 C 142.60 128.51 143.50 128.86 144.28 128.53 C 145.06 128.19 145.42 127.29 145.08 126.51 L 144.65 125.51 C 144.31 124.74 143.41 124.38 142.63 124.72 C 141.85 125.05 141.49 125.96 141.83 126.74 Z M 142.27 127.71 L 142.67 128.66 C 143.00 129.43 143.89 129.79 144.67 129.46 C 145.44 129.13 145.80 128.24 145.47 127.47 L 145.07 126.52 C 144.74 125.75 143.85 125.39 143.07 125.72 C 142.30 126.04 141.94 126.94 142.27 127.71 Z M 142.68 128.64 L 143.07 129.58 C 143.39 130.35 144.27 130.71 145.04 130.39 C 145.81 130.07 146.18 129.19 145.85 128.42 L 145.46 127.48 C 145.14 126.71 144.26 126.35 143.49 126.67 C 142.72 126.99 142.35 127.87 142.68 128.64 Z M 143.07 129.57 L 143.45 130.50 C 143.77 131.26 144.64 131.63 145.41 131.31 C 146.18 131.00 146.54 130.12 146.23 129.36 L 145.85 128.43 C 145.53 127.66 144.66 127.30 143.89 127.61 C 143.13 127.92 142.76 128.80 143.07 129.57 Z M 143.46 130.48 L 143.84 131.41 C 144.15 132.17 145.01 132.54 145.77 132.23 C 146.53 131.92 146.90 131.06 146.59 130.29 L 146.22 129.37 C 145.91 128.61 145.05 128.24 144.28 128.55 C 143.52 128.86 143.16 129.72 143.46 130.48 Z M 143.85 131.40 L 144.21 132.32 C 144.52 133.08 145.37 133.44 146.13 133.14 C 146.89 132.84 147.26 131.98 146.95 131.23 L 146.58 130.30 C 146.28 129.55 145.42 129.18 144.67 129.48 C 143.91 129.79 143.54 130.64 143.85 131.40 Z M 144.22 132.31 L 144.59 133.23 C 144.89 133.98 145.74 134.35 146.49 134.05 C 147.24 133.75 147.60 132.90 147.31 132.15 L 146.94 131.23 C 146.65 130.48 145.80 130.12 145.05 130.41 C 144.29 130.71 143.93 131.56 144.22 132.31 Z M 144.60 133.22 L 144.96 134.14 C 145.25 134.89 146.10 135.25 146.84 134.96 C 147.59 134.66 147.95 133.82 147.66 133.08 L 147.30 132.16 C 147.00 131.42 146.16 131.05 145.42 131.34 C 144.67 131.64 144.31 132.48 144.60 133.22 Z M 144.97 134.13 L 145.28 134.93 C 145.57 135.67 146.41 136.03 147.15 135.74 C 147.89 135.45 148.25 134.62 147.96 133.88 L 147.65 133.08 C 147.36 132.34 146.52 131.98 145.78 132.27 C 145.04 132.56 144.68 133.40 144.97 134.13 Z"
      fill="black"
      fill-rule="nonzero" /><path d="M 129.88 145.98 L 128.91 145.94 C 128.07 145.91 127.37 146.56 127.34 147.40 C 127.30 148.24 127.96 148.95 128.80 148.98 L 129.76 149.02 C 130.60 149.05 131.31 148.40 131.34 147.56 C 131.37 146.72 130.72 146.01 129.88 145.98 Z M 128.93 145.94 L 127.95 145.89 C 127.11 145.85 126.39 146.50 126.35 147.34 C 126.31 148.18 126.96 148.90 127.80 148.94 L 128.78 148.98 C 129.62 149.02 130.34 148.38 130.38 147.54 C 130.42 146.69 129.77 145.98 128.93 145.94 Z M 127.98 145.89 L 126.97 145.82 C 126.12 145.76 125.40 146.40 125.34 147.24 C 125.28 148.08 125.92 148.81 126.76 148.87 L 127.77 148.94 C 128.61 148.99 129.34 148.36 129.40 147.52 C 129.46 146.68 128.82 145.95 127.98 145.89 Z M 127.01 145.82 L 125.99 145.73 C 125.15 145.65 124.40 146.27 124.32 147.11 C 124.24 147.95 124.86 148.70 125.71 148.78 L 126.72 148.87 C 127.56 148.95 128.31 148.33 128.39 147.49 C 128.47 146.65 127.85 145.90 127.01 145.82 Z M 126.03 145.72 L 125.07 145.61 C 124.23 145.51 123.47 146.12 123.37 146.96 C 123.27 147.81 123.87 148.57 124.72 148.67 L 125.67 148.78 C 126.51 148.88 127.28 148.27 127.38 147.43 C 127.47 146.59 126.87 145.82 126.03 145.72 Z M 125.09 145.61 L 124.11 145.48 C 123.26 145.37 122.49 145.97 122.38 146.82 C 122.27 147.66 122.87 148.44 123.71 148.55 L 124.70 148.67 C 125.55 148.78 126.32 148.18 126.43 147.34 C 126.54 146.49 125.94 145.72 125.09 145.61 Z M 124.11 145.47 L 123.10 145.34 C 122.25 145.23 121.47 145.83 121.36 146.68 C 121.24 147.53 121.84 148.31 122.69 148.42 L 123.71 148.55 C 124.56 148.66 125.34 148.06 125.45 147.21 C 125.56 146.36 124.96 145.58 124.11 145.47 Z M 123.09 145.33 L 122.05 145.20 C 121.20 145.10 120.42 145.70 120.31 146.56 C 120.21 147.42 120.81 148.19 121.67 148.30 L 122.70 148.43 C 123.56 148.54 124.34 147.93 124.45 147.07 C 124.55 146.22 123.94 145.44 123.09 145.33 Z M 122.03 145.19 L 121.00 145.07 C 120.13 144.98 119.35 145.60 119.26 146.47 C 119.16 147.33 119.79 148.11 120.65 148.20 L 121.69 148.32 C 122.55 148.41 123.33 147.79 123.43 146.92 C 123.52 146.06 122.90 145.28 122.03 145.19 Z M 120.97 145.05 L 119.94 144.95 C 119.06 144.87 118.29 145.52 118.20 146.40 C 118.12 147.27 118.77 148.05 119.65 148.13 L 120.68 148.23 C 121.56 148.31 122.34 147.66 122.42 146.79 C 122.50 145.91 121.85 145.13 120.97 145.05 Z M 119.91 144.93 L 118.91 144.85 C 118.02 144.79 117.24 145.46 117.18 146.35 C 117.11 147.25 117.78 148.02 118.68 148.09 L 119.68 148.16 C 120.57 148.22 121.35 147.55 121.41 146.66 C 121.48 145.77 120.81 144.99 119.91 144.93 Z M 118.87 144.83 L 117.92 144.78 C 117.01 144.74 116.24 145.44 116.20 146.35 C 116.16 147.26 116.86 148.03 117.76 148.07 L 118.72 148.11 C 119.63 148.15 120.40 147.45 120.44 146.55 C 120.48 145.64 119.78 144.87 118.87 144.83 Z M 117.84 144.76 L 116.59 144.76 C 115.67 144.76 114.92 145.50 114.92 146.42 C 114.92 147.34 115.66 148.09 116.58 148.09 L 117.84 148.09 C 118.76 148.09 119.50 147.35 119.51 146.43 C 119.51 145.51 118.76 144.76 117.84 144.76 Z M 116.38 144.75 L 115.32 144.89 C 114.40 145.00 113.75 145.84 113.86 146.76 C 113.97 147.69 114.82 148.34 115.74 148.23 L 116.79 148.10 C 117.72 147.98 118.37 147.14 118.26 146.22 C 118.14 145.29 117.30 144.64 116.38 144.75 Z M 114.18 145.53 L 113.93 145.85 C 113.37 146.60 113.51 147.66 114.26 148.23 C 115.01 148.80 116.07 148.65 116.64 147.90 L 116.88 147.58 C 117.45 146.84 117.31 145.77 116.56 145.20 C 115.81 144.64 114.75 144.78 114.18 145.53 Z M 114.21 148.20 L 114.71 148.61 C 115.44 149.20 116.52 149.09 117.11 148.36 C 117.70 147.62 117.59 146.55 116.86 145.96 L 116.36 145.55 C 115.63 144.96 114.56 145.07 113.96 145.80 C 113.37 146.53 113.48 147.61 114.21 148.20 Z M 115.03 148.81 L 115.99 149.28 C 116.83 149.70 117.85 149.36 118.27 148.51 C 118.69 147.67 118.34 146.65 117.50 146.23 L 116.54 145.76 C 115.70 145.34 114.68 145.68 114.26 146.53 C 113.84 147.37 114.19 148.39 115.03 148.81 Z M 116.13 149.34 L 117.34 149.81 C 118.22 150.15 119.20 149.71 119.54 148.84 C 119.88 147.96 119.45 146.98 118.57 146.64 L 117.36 146.17 C 116.48 145.83 115.50 146.27 115.16 147.14 C 114.82 148.02 115.25 149.00 116.13 149.34 Z M 117.44 149.84 L 118.39 150.15 C 119.28 150.43 120.24 149.94 120.52 149.04 C 120.81 148.15 120.32 147.19 119.42 146.91 L 118.47 146.61 C 117.58 146.32 116.62 146.81 116.34 147.71 C 116.05 148.60 116.55 149.56 117.44 149.84 Z M 118.47 150.16 L 119.40 150.41 C 120.30 150.66 121.23 150.12 121.48 149.22 C 121.72 148.31 121.18 147.38 120.28 147.14 L 119.34 146.89 C 118.44 146.65 117.51 147.18 117.27 148.09 C 117.03 148.99 117.56 149.92 118.47 150.16 Z M 119.47 150.43 L 120.43 150.65 C 121.34 150.85 122.25 150.28 122.46 149.37 C 122.66 148.46 122.09 147.55 121.18 147.35 L 120.21 147.13 C 119.30 146.92 118.40 147.49 118.19 148.41 C 117.98 149.32 118.56 150.22 119.47 150.43 Z M 120.49 150.65 L 121.50 150.85 C 122.42 151.02 123.30 150.42 123.48 149.51 C 123.65 148.60 123.05 147.71 122.14 147.54 L 121.12 147.34 C 120.21 147.17 119.33 147.76 119.15 148.68 C 118.98 149.59 119.57 150.48 120.49 150.65 Z M 121.55 150.85 L 122.58 151.02 C 123.50 151.17 124.36 150.56 124.52 149.64 C 124.67 148.72 124.05 147.86 123.13 147.70 L 122.10 147.53 C 121.18 147.38 120.31 148.00 120.16 148.92 C 120.01 149.83 120.63 150.70 121.55 150.85 Z M 122.61 151.02 L 123.63 151.17 C 124.55 151.31 125.40 150.67 125.54 149.76 C 125.67 148.84 125.04 147.99 124.12 147.85 L 123.10 147.70 C 122.18 147.57 121.33 148.20 121.20 149.12 C 121.06 150.04 121.70 150.89 122.61 151.02 Z M 123.66 151.17 L 124.69 151.31 C 125.61 151.43 126.45 150.79 126.57 149.87 C 126.69 148.95 126.05 148.11 125.13 147.99 L 124.10 147.85 C 123.18 147.73 122.34 148.38 122.22 149.29 C 122.10 150.21 122.74 151.05 123.66 151.17 Z M 124.71 151.31 L 125.72 151.43 C 126.64 151.54 127.47 150.88 127.58 149.97 C 127.69 149.05 127.04 148.22 126.12 148.11 L 125.11 147.99 C 124.19 147.88 123.36 148.54 123.25 149.45 C 123.14 150.37 123.80 151.20 124.71 151.31 Z M 125.75 151.43 L 126.70 151.53 C 127.62 151.63 128.44 150.97 128.54 150.05 C 128.64 149.13 127.97 148.31 127.06 148.21 L 126.10 148.11 C 125.18 148.01 124.36 148.68 124.26 149.59 C 124.17 150.51 124.83 151.33 125.75 151.43 Z M 126.73 151.53 L 127.74 151.62 C 128.66 151.71 129.47 151.03 129.55 150.12 C 129.64 149.21 128.96 148.39 128.05 148.31 L 127.03 148.22 C 126.12 148.13 125.31 148.80 125.22 149.72 C 125.14 150.63 125.81 151.44 126.73 151.53 Z M 127.78 151.62 L 128.85 151.70 C 129.76 151.77 130.56 151.08 130.62 150.17 C 130.69 149.25 130.01 148.46 129.09 148.39 L 128.02 148.31 C 127.10 148.25 126.31 148.93 126.24 149.85 C 126.18 150.76 126.86 151.55 127.78 151.62 Z M 128.89 151.70 L 129.84 151.74 C 130.75 151.79 131.53 151.09 131.58 150.18 C 131.62 149.27 130.92 148.49 130.01 148.44 L 129.05 148.39 C 128.14 148.35 127.37 149.05 127.32 149.96 C 127.27 150.87 127.97 151.65 128.89 151.70 Z M 129.87 151.74 L 130.77 151.77 C 131.68 151.80 132.44 151.08 132.47 150.17 C 132.50 149.26 131.78 148.50 130.87 148.47 L 129.97 148.45 C 129.07 148.42 128.31 149.13 128.28 150.04 C 128.25 150.95 128.96 151.71 129.87 151.74 Z M 130.80 151.76 L 131.77 151.78 C 132.68 151.79 133.43 151.07 133.44 150.16 C 133.46 149.26 132.73 148.51 131.83 148.49 L 130.85 148.48 C 129.94 148.46 129.19 149.19 129.18 150.09 C 129.16 151.00 129.89 151.75 130.80 151.76 Z M 131.79 151.78 L 132.79 151.78 C 133.69 151.79 134.43 151.06 134.44 150.15 C 134.44 149.25 133.71 148.51 132.81 148.50 L 131.81 148.50 C 130.90 148.49 130.17 149.22 130.16 150.13 C 130.15 151.03 130.88 151.77 131.79 151.78 Z M 132.79 151.78 L 133.81 151.78 C 134.71 151.78 135.44 151.05 135.44 150.15 C 135.45 149.24 134.71 148.51 133.81 148.51 L 132.80 148.51 C 131.90 148.51 131.16 149.24 131.16 150.14 C 131.16 151.05 131.89 151.78 132.79 151.78 Z M 133.81 151.78 L 134.80 151.78 C 135.70 151.78 136.43 151.05 136.43 150.14 C 136.43 149.24 135.70 148.51 134.80 148.51 L 133.81 148.51 C 132.91 148.51 132.17 149.24 132.17 150.14 C 132.17 151.05 132.91 151.78 133.81 151.78 Z M 134.80 151.78 L 135.79 151.78 C 136.69 151.78 137.42 151.05 137.42 150.14 C 137.42 149.24 136.69 148.51 135.79 148.51 L 134.80 148.51 C 133.90 148.51 133.17 149.24 133.17 150.14 C 133.17 151.05 133.90 151.78 134.80 151.78 Z M 135.79 151.77 L 136.80 151.77 C 137.70 151.77 138.43 151.04 138.43 150.14 C 138.43 149.25 137.70 148.52 136.80 148.52 L 135.79 148.52 C 134.89 148.52 134.16 149.25 134.16 150.14 C 134.16 151.04 134.89 151.77 135.79 151.77 Z M 136.80 151.77 L 137.81 151.77 C 138.71 151.77 139.44 151.04 139.44 150.14 C 139.44 149.25 138.71 148.52 137.81 148.52 L 136.80 148.52 C 135.90 148.52 135.17 149.25 135.17 150.14 C 135.17 151.04 135.90 151.77 136.80 151.77 Z M 137.81 151.77 L 138.83 151.77 C 139.72 151.77 140.45 151.04 140.45 150.14 C 140.45 149.25 139.72 148.52 138.83 148.52 L 137.81 148.52 C 136.92 148.52 136.19 149.25 136.19 150.14 C 136.19 151.04 136.92 151.77 137.81 151.77 Z M 138.83 151.77 L 139.83 151.77 C 140.73 151.77 141.46 151.04 141.46 150.14 C 141.46 149.25 140.73 148.52 139.83 148.52 L 138.83 148.52 C 137.93 148.52 137.20 149.25 137.20 150.14 C 137.20 151.04 137.93 151.77 138.83 151.77 Z M 139.83 151.77 L 140.81 151.77 C 141.71 151.77 142.44 151.04 142.44 150.14 C 142.44 149.25 141.71 148.52 140.81 148.52 L 139.83 148.52 C 138.93 148.52 138.21 149.25 138.21 150.14 C 138.21 151.04 138.93 151.77 139.83 151.77 Z M 140.81 151.77 L 141.74 151.77 C 142.64 151.77 143.36 151.04 143.36 150.14 C 143.36 149.25 142.64 148.52 141.74 148.52 L 140.81 148.52 C 139.92 148.52 139.19 149.25 139.19 150.14 C 139.19 151.04 139.92 151.77 140.81 151.77 Z M 141.74 151.77 L 142.68 151.77 C 143.58 151.77 144.31 151.04 144.31 150.14 C 144.31 149.25 143.58 148.52 142.68 148.52 L 141.74 148.52 C 140.84 148.52 140.11 149.25 140.11 150.14 C 140.11 151.04 140.84 151.77 141.74 151.77 Z M 142.68 151.77 L 143.72 151.77 C 144.62 151.77 145.35 151.04 145.35 150.14 C 145.35 149.25 144.62 148.52 143.72 148.52 L 142.68 148.52 C 141.79 148.52 141.06 149.25 141.06 150.14 C 141.06 151.04 141.79 151.77 142.68 151.77 Z M 143.72 151.77 L 144.76 151.77 C 145.66 151.77 146.39 151.04 146.39 150.14 C 146.39 149.25 145.66 148.52 144.76 148.52 L 143.72 148.52 C 142.82 148.52 142.10 149.25 142.10 150.14 C 142.10 151.04 142.82 151.77 143.72 151.77 Z M 144.76 151.77 L 145.70 151.77 C 146.59 151.77 147.32 151.04 147.32 150.14 C 147.32 149.25 146.59 148.52 145.70 148.52 L 144.76 148.52 C 143.86 148.52 143.13 149.25 143.13 150.14 C 143.13 151.04 143.86 151.77 144.76 151.77 Z M 145.70 151.77 L 146.69 151.77 C 147.59 151.77 148.32 151.04 148.32 150.14 C 148.32 149.25 147.59 148.52 146.69 148.52 L 145.70 148.52 C 144.80 148.52 144.07 149.25 144.07 150.14 C 144.07 151.04 144.80 151.77 145.70 151.77 Z M 146.69 151.77 L 147.73 151.77 C 148.63 151.77 149.36 151.04 149.36 150.14 C 149.36 149.25 148.63 148.52 147.73 148.52 L 146.69 148.52 C 145.80 148.52 145.07 149.25 145.07 150.14 C 145.07 151.04 145.80 151.77 146.69 151.77 Z M 147.73 151.77 L 148.78 151.77 C 149.68 151.77 150.41 151.04 150.41 150.14 C 150.41 149.25 149.68 148.52 148.78 148.52 L 147.73 148.52 C 146.83 148.52 146.10 149.25 146.10 150.14 C 146.10 151.04 146.83 151.77 147.73 151.77 Z M 148.78 151.77 L 149.84 151.77 C 150.73 151.77 151.46 151.04 151.46 150.14 C 151.46 149.25 150.73 148.52 149.84 148.52 L 148.78 148.52 C 147.89 148.52 147.16 149.25 147.16 150.14 C 147.16 151.04 147.89 151.77 148.78 151.77 Z M 149.83 151.78 L 150.87 151.78 C 151.77 151.78 152.50 151.05 152.50 150.15 C 152.51 149.25 151.78 148.52 150.87 148.51 L 149.84 148.51 C 148.94 148.51 148.21 149.24 148.20 150.14 C 148.20 151.04 148.93 151.77 149.83 151.78 Z M 150.87 151.78 L 151.88 151.78 C 152.79 151.78 153.52 151.05 153.52 150.15 C 153.52 149.25 152.79 148.52 151.89 148.51 L 150.88 148.51 C 149.98 148.51 149.24 149.24 149.24 150.14 C 149.24 151.04 149.97 151.78 150.87 151.78 Z M 151.88 151.78 L 152.87 151.79 C 153.77 151.79 154.51 151.06 154.51 150.16 C 154.51 149.26 153.79 148.52 152.88 148.52 L 151.89 148.51 C 150.99 148.51 150.26 149.24 150.25 150.14 C 150.25 151.04 150.98 151.78 151.88 151.78 Z M 152.86 151.79 L 153.83 151.80 C 154.73 151.81 155.47 151.08 155.48 150.17 C 155.49 149.27 154.76 148.53 153.85 148.52 L 152.89 148.52 C 151.99 148.51 151.25 149.23 151.24 150.14 C 151.23 151.04 151.96 151.78 152.86 151.79 Z M 153.82 151.80 L 154.83 151.81 C 155.74 151.83 156.48 151.11 156.50 150.20 C 156.51 149.29 155.79 148.55 154.88 148.54 L 153.86 148.52 C 152.96 148.51 152.21 149.23 152.20 150.14 C 152.19 151.04 152.91 151.79 153.82 151.80 Z M 154.80 151.82 L 155.87 151.85 C 156.78 151.88 157.54 151.17 157.56 150.26 C 157.59 149.36 156.88 148.60 155.98 148.57 L 154.91 148.53 C 154.00 148.50 153.24 149.22 153.22 150.12 C 153.19 151.03 153.90 151.79 154.80 151.82 Z M 155.80 151.85 L 156.81 151.93 C 157.72 151.99 158.51 151.31 158.58 150.40 C 158.64 149.49 157.96 148.71 157.05 148.64 L 156.04 148.57 C 155.13 148.50 154.35 149.18 154.28 150.09 C 154.21 151.00 154.90 151.79 155.80 151.85 Z M 156.70 151.92 L 157.64 152.05 C 158.55 152.18 159.38 151.55 159.51 150.65 C 159.64 149.75 159.01 148.91 158.11 148.78 L 157.17 148.65 C 156.26 148.52 155.43 149.15 155.30 150.05 C 155.17 150.95 155.80 151.79 156.70 151.92 Z M 157.46 152.02 L 158.39 152.26 C 159.27 152.49 160.18 151.96 160.40 151.07 C 160.63 150.18 160.10 149.28 159.22 149.05 L 158.29 148.81 C 157.40 148.58 156.50 149.12 156.27 150.00 C 156.04 150.89 156.58 151.79 157.46 152.02 Z M 158.10 152.16 L 159.05 152.61 C 159.88 153.00 160.87 152.64 161.26 151.81 C 161.65 150.97 161.29 149.98 160.46 149.59 L 159.51 149.15 C 158.67 148.76 157.68 149.12 157.29 149.95 C 156.90 150.78 157.26 151.77 158.10 152.16 Z M 158.66 152.37 L 159.39 153.00 C 160.09 153.60 161.15 153.52 161.75 152.82 C 162.36 152.12 162.28 151.06 161.58 150.46 L 160.85 149.83 C 160.15 149.23 159.09 149.31 158.49 150.01 C 157.88 150.71 157.96 151.77 158.66 152.37 Z M 159.01 152.55 L 159.47 153.36 C 159.92 154.17 160.95 154.46 161.76 154.00 C 162.57 153.55 162.86 152.52 162.40 151.71 L 161.95 150.91 C 161.50 150.09 160.47 149.80 159.66 150.26 C 158.85 150.71 158.56 151.74 159.01 152.55 Z M 159.27 152.82 L 159.42 153.69 C 159.58 154.61 160.45 155.23 161.37 155.07 C 162.29 154.91 162.91 154.04 162.75 153.12 L 162.60 152.25 C 162.44 151.33 161.57 150.71 160.65 150.87 C 159.73 151.03 159.11 151.90 159.27 152.82 Z M 159.40 153.26 L 159.31 154.23 C 159.23 155.16 159.92 155.99 160.85 156.07 C 161.78 156.15 162.61 155.46 162.69 154.53 L 162.77 153.56 C 162.86 152.62 162.17 151.80 161.23 151.72 C 160.30 151.63 159.48 152.32 159.40 153.26 Z M 159.37 153.88 L 159.06 154.91 C 158.78 155.80 159.29 156.76 160.19 157.03 C 161.08 157.31 162.04 156.80 162.31 155.90 L 162.62 154.88 C 162.90 153.98 162.39 153.03 161.50 152.75 C 160.60 152.48 159.65 152.98 159.37 153.88 Z M 159.16 154.64 L 158.71 155.54 C 158.29 156.38 158.62 157.40 159.46 157.83 C 160.30 158.25 161.33 157.91 161.75 157.07 L 162.21 156.17 C 162.63 155.33 162.29 154.31 161.45 153.88 C 160.61 153.46 159.59 153.80 159.16 154.64 Z M 158.81 155.36 L 158.30 156.12 C 157.78 156.90 157.99 157.96 158.77 158.48 C 159.55 159.01 160.61 158.80 161.14 158.02 L 161.65 157.25 C 162.17 156.47 161.96 155.41 161.18 154.89 C 160.40 154.36 159.34 154.57 158.81 155.36 Z M 158.39 156.00 L 157.78 156.76 C 157.19 157.50 157.31 158.57 158.05 159.16 C 158.78 159.75 159.86 159.63 160.44 158.89 L 161.05 158.13 C 161.64 157.40 161.52 156.32 160.79 155.73 C 160.05 155.15 158.98 155.26 158.39 156.00 Z M 157.85 156.68 L 157.15 157.45 C 156.52 158.15 156.57 159.23 157.27 159.86 C 157.97 160.49 159.05 160.44 159.69 159.74 L 160.38 158.97 C 161.01 158.27 160.96 157.19 160.26 156.56 C 159.56 155.93 158.48 155.98 157.85 156.68 Z M 157.20 157.40 L 156.43 158.18 C 155.77 158.86 155.79 159.94 156.46 160.60 C 157.14 161.26 158.22 161.24 158.88 160.57 L 159.64 159.79 C 160.30 159.11 160.29 158.03 159.61 157.37 C 158.94 156.71 157.86 156.73 157.20 157.40 Z M 156.46 158.15 L 155.71 158.89 C 155.03 159.55 155.02 160.63 155.68 161.31 C 156.34 161.98 157.42 161.99 158.10 161.33 L 158.85 160.60 C 159.53 159.94 159.54 158.85 158.88 158.18 C 158.22 157.51 157.13 157.49 156.46 158.15 Z M 155.72 158.87 L 154.97 159.59 C 154.29 160.24 154.26 161.32 154.92 162.01 C 155.57 162.69 156.65 162.72 157.33 162.07 L 158.08 161.35 C 158.77 160.70 158.79 159.61 158.14 158.93 C 157.49 158.25 156.41 158.22 155.72 158.87 Z M 154.98 159.58 L 154.23 160.29 C 153.54 160.93 153.50 162.02 154.15 162.71 C 154.79 163.40 155.88 163.43 156.57 162.79 L 157.33 162.08 C 158.02 161.43 158.05 160.35 157.40 159.66 C 156.76 158.97 155.67 158.93 154.98 159.58 Z M 154.23 160.28 L 153.49 160.97 C 152.79 161.61 152.75 162.70 153.40 163.39 C 154.04 164.09 155.12 164.13 155.82 163.48 L 156.56 162.79 C 157.26 162.15 157.30 161.07 156.65 160.37 C 156.01 159.68 154.93 159.64 154.23 160.28 Z M 153.49 160.97 L 152.78 161.62 C 152.08 162.27 152.04 163.35 152.68 164.05 C 153.32 164.74 154.41 164.79 155.10 164.15 L 155.82 163.49 C 156.51 162.85 156.56 161.76 155.91 161.06 C 155.27 160.37 154.19 160.32 153.49 160.97 Z M 152.78 161.62 L 152.06 162.29 C 151.36 162.93 151.32 164.02 151.96 164.71 C 152.60 165.41 153.69 165.45 154.39 164.81 L 155.11 164.15 C 155.80 163.50 155.85 162.42 155.20 161.72 C 154.56 161.02 153.47 160.98 152.78 161.62 Z M 152.05 162.29 L 151.24 163.05 C 150.54 163.69 150.50 164.78 151.14 165.48 C 151.79 166.17 152.88 166.21 153.57 165.57 L 154.39 164.81 C 155.09 164.16 155.13 163.08 154.48 162.38 C 153.83 161.68 152.75 161.64 152.05 162.29 Z M 151.24 163.04 L 150.51 163.72 C 149.81 164.36 149.77 165.45 150.41 166.15 C 151.06 166.85 152.14 166.89 152.84 166.24 L 153.57 165.57 C 154.27 164.92 154.31 163.84 153.67 163.14 C 153.02 162.44 151.93 162.40 151.24 163.04 Z M 150.52 163.71 L 149.84 164.32 C 149.14 164.96 149.08 166.05 149.72 166.75 C 150.36 167.46 151.45 167.51 152.15 166.87 L 152.83 166.25 C 153.53 165.62 153.59 164.53 152.95 163.83 C 152.31 163.12 151.22 163.07 150.52 163.71 Z M 149.86 164.30 L 149.17 164.91 C 148.45 165.54 148.38 166.63 149.01 167.34 C 149.63 168.06 150.72 168.13 151.43 167.50 L 152.13 166.89 C 152.84 166.27 152.92 165.18 152.29 164.46 C 151.66 163.75 150.58 163.68 149.86 164.30 Z M 149.19 164.89 L 148.43 165.53 C 147.70 166.14 147.61 167.23 148.22 167.96 C 148.83 168.68 149.91 168.78 150.64 168.17 L 151.41 167.53 C 152.13 166.92 152.23 165.83 151.62 165.10 C 151.01 164.37 149.92 164.28 149.19 164.89 Z M 148.45 165.51 L 147.68 166.14 C 146.94 166.74 146.82 167.82 147.42 168.56 C 148.02 169.30 149.10 169.41 149.84 168.82 L 150.62 168.19 C 151.36 167.59 151.47 166.51 150.87 165.77 C 150.27 165.03 149.19 164.91 148.45 165.51 Z M 147.69 166.12 L 146.90 166.75 C 146.16 167.33 146.03 168.42 146.62 169.16 C 147.21 169.91 148.29 170.04 149.04 169.45 L 149.82 168.83 C 150.57 168.24 150.70 167.16 150.11 166.41 C 149.52 165.66 148.44 165.54 147.69 166.12 Z M 146.92 166.74 L 146.13 167.34 C 145.38 167.93 145.24 169.01 145.83 169.76 C 146.41 170.51 147.49 170.65 148.24 170.07 L 149.03 169.46 C 149.78 168.88 149.92 167.79 149.33 167.04 C 148.75 166.29 147.67 166.15 146.92 166.74 Z M 146.14 167.34 L 145.35 167.94 C 144.59 168.52 144.45 169.60 145.03 170.36 C 145.61 171.11 146.69 171.26 147.44 170.68 L 148.24 170.07 C 148.99 169.50 149.14 168.41 148.56 167.66 C 147.98 166.90 146.90 166.76 146.14 167.34 Z M 145.36 167.93 L 144.56 168.54 C 143.79 169.11 143.64 170.20 144.22 170.96 C 144.79 171.72 145.87 171.87 146.63 171.29 L 147.44 170.69 C 148.20 170.11 148.35 169.03 147.77 168.27 C 147.20 167.51 146.12 167.36 145.36 167.93 Z M 144.56 168.53 L 143.76 169.13 C 143.00 169.70 142.84 170.78 143.41 171.54 C 143.98 172.31 145.06 172.47 145.82 171.90 L 146.62 171.30 C 147.39 170.73 147.55 169.65 146.98 168.89 C 146.41 168.12 145.33 167.96 144.56 168.53 Z M 143.77 169.12 L 142.97 169.71 C 142.20 170.27 142.04 171.35 142.60 172.12 C 143.16 172.89 144.24 173.06 145.01 172.49 L 145.81 171.91 C 146.58 171.34 146.75 170.26 146.18 169.49 C 145.62 168.73 144.54 168.56 143.77 169.12 Z M 142.99 169.70 L 142.17 170.28 C 141.40 170.83 141.22 171.91 141.77 172.69 C 142.33 173.46 143.40 173.64 144.18 173.09 L 144.99 172.51 C 145.77 171.95 145.95 170.87 145.40 170.10 C 144.84 169.32 143.76 169.14 142.99 169.70 Z M 142.19 170.26 L 141.36 170.84 C 140.58 171.38 140.38 172.45 140.92 173.24 C 141.47 174.02 142.54 174.22 143.33 173.68 L 144.16 173.10 C 144.94 172.56 145.14 171.48 144.60 170.70 C 144.06 169.91 142.98 169.72 142.19 170.26 Z M 141.39 170.82 L 140.56 171.37 C 139.77 171.90 139.55 172.97 140.08 173.76 C 140.61 174.56 141.68 174.77 142.48 174.25 L 143.30 173.70 C 144.10 173.17 144.31 172.09 143.78 171.30 C 143.26 170.50 142.18 170.29 141.39 170.82 Z M 140.58 171.35 L 139.75 171.89 C 138.94 172.41 138.71 173.48 139.23 174.28 C 139.75 175.08 140.81 175.31 141.62 174.80 L 142.46 174.26 C 143.26 173.74 143.49 172.67 142.97 171.87 C 142.46 171.07 141.39 170.84 140.58 171.35 Z M 139.76 171.88 L 138.91 172.41 C 138.10 172.92 137.86 173.99 138.37 174.80 C 138.87 175.60 139.94 175.85 140.75 175.34 L 141.60 174.81 C 142.41 174.30 142.65 173.24 142.15 172.43 C 141.64 171.62 140.57 171.37 139.76 171.88 Z M 138.93 172.41 L 138.07 172.93 C 137.25 173.44 137.00 174.50 137.50 175.31 C 138.00 176.13 139.07 176.38 139.88 175.88 L 140.74 175.35 C 141.55 174.85 141.80 173.78 141.30 172.97 C 140.80 172.16 139.74 171.91 138.93 172.41 Z M 138.07 172.93 L 137.24 173.44 C 136.42 173.93 136.16 175.00 136.66 175.81 C 137.16 176.63 138.22 176.89 139.03 176.39 L 139.87 175.88 C 140.69 175.39 140.95 174.32 140.45 173.51 C 139.95 172.69 138.89 172.43 138.07 172.93 Z M 137.25 173.43 L 136.40 173.94 C 135.58 174.44 135.31 175.50 135.81 176.32 C 136.30 177.14 137.36 177.40 138.18 176.91 L 139.03 176.40 C 139.85 175.90 140.11 174.84 139.62 174.02 C 139.13 173.21 138.06 172.94 137.25 173.43 Z M 136.40 173.94 L 135.54 174.46 C 134.72 174.94 134.45 176.00 134.93 176.83 C 135.42 177.65 136.48 177.92 137.30 177.43 L 138.17 176.91 C 138.99 176.42 139.26 175.36 138.77 174.54 C 138.29 173.72 137.22 173.45 136.40 173.94 Z M 135.54 174.45 L 134.66 174.97 C 133.84 175.45 133.56 176.51 134.05 177.33 C 134.53 178.16 135.59 178.43 136.41 177.95 L 137.29 177.43 C 138.12 176.95 138.39 175.89 137.91 175.07 C 137.43 174.24 136.37 173.97 135.54 174.45 Z M 134.67 174.96 L 133.81 175.46 C 132.98 175.94 132.70 177.00 133.18 177.83 C 133.66 178.65 134.71 178.93 135.54 178.46 L 136.40 177.96 C 137.23 177.48 137.51 176.42 137.03 175.59 C 136.56 174.77 135.50 174.48 134.67 174.96 Z M 133.82 175.46 L 132.94 175.95 C 132.11 176.42 131.82 177.48 132.29 178.31 C 132.76 179.14 133.82 179.43 134.65 178.96 L 135.53 178.46 C 136.36 177.99 136.65 176.94 136.18 176.11 C 135.71 175.28 134.65 174.99 133.82 175.46 Z M 132.96 175.94 L 132.08 176.43 C 131.25 176.89 130.94 177.94 131.40 178.78 C 131.86 179.61 132.91 179.92 133.75 179.46 L 134.63 178.97 C 135.47 178.51 135.77 177.46 135.31 176.62 C 134.85 175.79 133.80 175.48 132.96 175.94 Z M 132.11 176.41 L 131.23 176.88 C 130.39 177.32 130.06 178.37 130.51 179.21 C 130.96 180.06 132.00 180.38 132.85 179.93 L 133.72 179.47 C 134.57 179.02 134.89 177.98 134.44 177.13 C 134.00 176.29 132.95 175.97 132.11 176.41 Z M 131.26 176.86 L 130.35 177.32 C 129.50 177.75 129.15 178.79 129.58 179.64 C 130.01 180.49 131.05 180.84 131.91 180.41 L 132.82 179.95 C 133.67 179.52 134.01 178.48 133.58 177.63 C 133.15 176.78 132.11 176.43 131.26 176.86 Z M 130.38 177.30 L 129.48 177.74 C 128.62 178.15 128.26 179.18 128.67 180.05 C 129.08 180.91 130.12 181.27 130.98 180.86 L 131.88 180.42 C 132.74 180.01 133.10 178.97 132.69 178.11 C 132.27 177.25 131.24 176.89 130.38 177.30 Z M 129.50 177.73 L 128.60 178.14 C 127.74 178.55 127.36 179.58 127.76 180.44 C 128.16 181.31 129.19 181.69 130.06 181.28 L 130.96 180.87 C 131.82 180.46 132.20 179.43 131.80 178.57 C 131.40 177.70 130.37 177.32 129.50 177.73 Z M 128.61 178.14 L 127.71 178.55 C 126.84 178.94 126.46 179.97 126.85 180.84 C 127.25 181.71 128.28 182.10 129.15 181.70 L 130.05 181.29 C 130.92 180.89 131.30 179.87 130.91 179.00 C 130.51 178.13 129.49 177.74 128.61 178.14 Z M 127.72 178.54 L 126.80 178.95 C 125.93 179.34 125.54 180.37 125.93 181.24 C 126.32 182.12 127.35 182.51 128.22 182.12 L 129.14 181.70 C 130.01 181.31 130.40 180.29 130.01 179.41 C 129.62 178.54 128.59 178.15 127.72 178.54 Z M 126.82 178.95 L 125.90 179.35 C 125.02 179.73 124.62 180.75 125.00 181.63 C 125.39 182.51 126.41 182.91 127.29 182.53 L 128.21 182.12 C 129.08 181.74 129.48 180.72 129.10 179.84 C 128.72 178.96 127.69 178.56 126.82 178.95 Z M 125.92 179.34 L 125.00 179.73 C 124.12 180.10 123.70 181.12 124.07 182.00 C 124.45 182.88 125.46 183.30 126.35 182.92 L 127.27 182.54 C 128.15 182.16 128.56 181.15 128.19 180.26 C 127.82 179.38 126.80 178.97 125.92 179.34 Z M 125.03 179.71 L 124.10 180.08 C 123.21 180.44 122.78 181.45 123.13 182.34 C 123.49 183.23 124.50 183.66 125.39 183.31 L 126.32 182.94 C 127.21 182.58 127.64 181.57 127.28 180.68 C 126.93 179.79 125.92 179.36 125.03 179.71 Z M 124.13 180.07 L 123.18 180.43 C 122.28 180.77 121.83 181.77 122.17 182.67 C 122.51 183.56 123.51 184.02 124.41 183.68 L 125.35 183.32 C 126.25 182.98 126.71 181.98 126.37 181.08 C 126.03 180.19 125.03 179.73 124.13 180.07 Z M 123.20 180.42 L 122.27 180.76 C 121.36 181.08 120.89 182.08 121.22 182.98 C 121.55 183.88 122.54 184.35 123.44 184.03 L 124.38 183.69 C 125.29 183.36 125.75 182.37 125.43 181.46 C 125.10 180.56 124.11 180.09 123.20 180.42 Z M 122.28 180.75 L 121.35 181.08 C 120.44 181.40 119.97 182.39 120.29 183.30 C 120.61 184.20 121.60 184.68 122.50 184.36 L 123.43 184.03 C 124.34 183.71 124.81 182.72 124.49 181.81 C 124.17 180.91 123.18 180.43 122.28 180.75 Z M 121.35 181.08 L 120.39 181.42 C 119.49 181.74 119.01 182.73 119.33 183.64 C 119.65 184.54 120.65 185.02 121.55 184.70 L 122.51 184.36 C 123.41 184.04 123.89 183.05 123.57 182.14 C 123.25 181.23 122.25 180.76 121.35 181.08 Z M 120.40 181.41 L 119.44 181.75 C 118.53 182.07 118.05 183.06 118.37 183.97 C 118.69 184.88 119.69 185.35 120.59 185.04 L 121.55 184.70 C 122.46 184.38 122.93 183.39 122.62 182.48 C 122.30 181.57 121.30 181.10 120.40 181.41 Z M 119.46 181.74 L 118.52 182.06 C 117.60 182.37 117.12 183.36 117.43 184.27 C 117.74 185.18 118.73 185.67 119.64 185.36 L 120.58 185.04 C 121.49 184.73 121.98 183.74 121.67 182.83 C 121.36 181.92 120.37 181.43 119.46 181.74 Z M 118.55 182.05 L 117.61 182.35 C 116.70 182.64 116.19 183.62 116.48 184.54 C 116.78 185.46 117.76 185.96 118.67 185.67 L 119.61 185.37 C 120.52 185.08 121.03 184.10 120.74 183.18 C 120.44 182.26 119.46 181.76 118.55 182.05 Z M 117.65 182.34 L 116.69 182.62 C 115.76 182.89 115.24 183.86 115.51 184.78 C 115.78 185.71 116.75 186.24 117.67 185.97 L 118.63 185.68 C 119.56 185.41 120.09 184.44 119.82 183.52 C 119.55 182.59 118.58 182.07 117.65 182.34 Z M 116.72 182.61 L 115.76 182.87 C 114.83 183.13 114.28 184.09 114.54 185.02 C 114.80 185.95 115.76 186.50 116.69 186.24 L 117.64 185.98 C 118.57 185.72 119.12 184.76 118.86 183.83 C 118.61 182.90 117.65 182.35 116.72 182.61 Z M 115.77 182.87 L 114.80 183.13 C 113.87 183.38 113.32 184.34 113.57 185.27 C 113.82 186.20 114.78 186.76 115.71 186.50 L 116.68 186.24 C 117.61 185.99 118.16 185.03 117.91 184.10 C 117.66 183.17 116.70 182.62 115.77 182.87 Z M 114.80 183.13 L 113.87 183.38 C 112.94 183.63 112.39 184.60 112.65 185.53 C 112.90 186.46 113.86 187.01 114.79 186.76 L 115.72 186.51 C 116.65 186.25 117.20 185.29 116.95 184.36 C 116.69 183.43 115.73 182.88 114.80 183.13 Z M 113.89 183.38 L 112.93 183.63 C 112.00 183.88 111.44 184.83 111.69 185.77 C 111.93 186.70 112.89 187.26 113.83 187.01 L 114.78 186.76 C 115.71 186.51 116.27 185.56 116.02 184.62 C 115.78 183.69 114.82 183.13 113.89 183.38 Z M 112.96 183.62 L 111.97 183.87 C 111.03 184.10 110.45 185.05 110.68 185.99 C 110.92 186.92 111.86 187.50 112.80 187.27 L 113.80 187.02 C 114.74 186.79 115.31 185.84 115.08 184.90 C 114.85 183.96 113.90 183.39 112.96 183.62 Z M 112.01 183.85 L 111.02 184.07 C 110.08 184.28 109.48 185.21 109.69 186.16 C 109.90 187.10 110.83 187.70 111.77 187.49 L 112.76 187.28 C 113.70 187.07 114.30 186.14 114.10 185.19 C 113.89 184.25 112.95 183.65 112.01 183.85 Z M 111.07 184.06 L 110.11 184.24 C 109.16 184.42 108.53 185.34 108.71 186.30 C 108.90 187.25 109.81 187.87 110.77 187.69 L 111.73 187.51 C 112.68 187.32 113.30 186.40 113.12 185.45 C 112.94 184.50 112.02 183.88 111.07 184.06 Z M 110.15 184.23 L 109.16 184.40 C 108.20 184.55 107.55 185.46 107.71 186.42 C 107.87 187.37 108.77 188.02 109.73 187.86 L 110.72 187.70 C 111.68 187.54 112.33 186.64 112.17 185.68 C 112.01 184.72 111.11 184.08 110.15 184.23 Z M 109.20 184.39 L 108.19 184.53 C 107.23 184.66 106.56 185.55 106.69 186.51 C 106.82 187.48 107.71 188.15 108.67 188.01 L 109.69 187.87 C 110.65 187.74 111.32 186.85 111.19 185.89 C 111.05 184.93 110.16 184.25 109.20 184.39 Z M 108.24 184.52 L 107.00 184.66 C 106.03 184.76 105.34 185.64 105.45 186.60 C 105.55 187.57 106.43 188.27 107.39 188.16 L 108.63 188.02 C 109.60 187.91 110.29 187.04 110.18 186.08 C 110.08 185.11 109.20 184.41 108.24 184.52 Z M 107.03 184.65 L 105.79 184.76 C 104.82 184.85 104.10 185.71 104.19 186.69 C 104.28 187.66 105.15 188.38 106.12 188.29 L 107.36 188.17 C 108.34 188.08 109.05 187.22 108.96 186.25 C 108.87 185.27 108.01 184.56 107.03 184.65 Z M 105.78 184.75 L 105.04 184.83 C 104.06 184.93 103.35 185.80 103.45 186.78 C 103.55 187.76 104.42 188.47 105.40 188.37 L 106.14 188.30 C 107.12 188.20 107.83 187.32 107.73 186.34 C 107.63 185.37 106.76 184.65 105.78 184.75 Z M 104.70 188.32 L 104.86 188.36 C 105.80 188.65 106.80 188.11 107.09 187.16 C 107.37 186.21 106.84 185.21 105.89 184.93 L 105.74 184.88 C 104.79 184.60 103.79 185.13 103.50 186.08 C 103.22 187.03 103.76 188.03 104.70 188.32 Z M 105.33 188.45 L 106.45 188.48 C 107.45 188.50 108.27 187.70 108.29 186.70 C 108.31 185.70 107.52 184.87 106.52 184.85 L 105.41 184.83 C 104.41 184.81 103.58 185.61 103.56 186.61 C 103.54 187.61 104.33 188.43 105.33 188.45 Z M 106.45 188.49 L 107.64 188.51 C 108.64 188.53 109.48 187.73 109.50 186.72 C 109.51 185.71 108.71 184.88 107.70 184.86 L 106.52 184.84 C 105.51 184.82 104.67 185.62 104.66 186.63 C 104.64 187.64 105.44 188.47 106.45 188.49 Z M 107.59 188.52 L 108.45 188.56 C 109.46 188.60 110.31 187.82 110.36 186.80 C 110.40 185.79 109.62 184.94 108.61 184.89 L 107.75 184.86 C 106.74 184.81 105.88 185.60 105.84 186.61 C 105.79 187.62 106.58 188.48 107.59 188.52 Z M 108.36 188.55 L 109.30 188.64 C 110.31 188.73 111.20 187.99 111.30 186.98 C 111.39 185.97 110.64 185.07 109.63 184.98 L 108.69 184.90 C 107.68 184.80 106.79 185.55 106.70 186.56 C 106.60 187.57 107.35 188.46 108.36 188.55 Z M 109.20 188.63 L 110.28 188.79 C 111.29 188.94 112.22 188.25 112.37 187.24 C 112.52 186.24 111.83 185.30 110.82 185.15 L 109.74 184.99 C 108.73 184.84 107.80 185.54 107.65 186.54 C 107.50 187.54 108.19 188.48 109.20 188.63 Z M 110.19 188.78 L 111.30 189.00 C 112.29 189.20 113.27 188.55 113.47 187.56 C 113.67 186.56 113.02 185.59 112.02 185.39 L 110.92 185.17 C 109.92 184.97 108.95 185.61 108.75 186.61 C 108.55 187.61 109.19 188.58 110.19 188.78 Z M 111.24 188.99 L 112.17 189.21 C 113.16 189.44 114.16 188.82 114.39 187.83 C 114.62 186.84 114.01 185.85 113.01 185.62 L 112.08 185.40 C 111.09 185.17 110.10 185.78 109.86 186.77 C 109.63 187.76 110.25 188.76 111.24 188.99 Z M 112.14 189.20 L 113.13 189.45 C 114.12 189.70 115.12 189.11 115.37 188.12 C 115.63 187.13 115.03 186.12 114.04 185.87 L 113.05 185.62 C 112.06 185.37 111.05 185.97 110.80 186.96 C 110.55 187.95 111.15 188.95 112.14 189.20 Z M 113.11 189.45 L 114.13 189.72 C 115.11 189.98 116.13 189.40 116.39 188.41 C 116.65 187.42 116.06 186.41 115.08 186.15 L 114.06 185.88 C 113.07 185.61 112.06 186.20 111.80 187.19 C 111.53 188.17 112.12 189.19 113.11 189.45 Z M 114.11 189.72 L 115.12 190.00 C 116.11 190.27 117.13 189.69 117.40 188.70 C 117.67 187.72 117.09 186.70 116.10 186.43 L 115.09 186.15 C 114.11 185.88 113.09 186.46 112.82 187.44 C 112.55 188.43 113.13 189.45 114.11 189.72 Z M 115.11 190.00 L 116.09 190.27 C 117.07 190.54 118.10 189.97 118.37 188.98 C 118.65 188.00 118.07 186.97 117.08 186.70 L 116.11 186.43 C 115.13 186.15 114.10 186.73 113.83 187.71 C 113.55 188.70 114.13 189.72 115.11 190.00 Z M 116.08 190.27 L 117.03 190.54 C 118.02 190.81 119.04 190.24 119.32 189.25 C 119.60 188.26 119.02 187.24 118.03 186.96 L 117.09 186.70 C 116.10 186.42 115.08 186.99 114.80 187.98 C 114.52 188.97 115.10 189.99 116.08 190.27 Z M 117.03 190.54 L 118.17 190.85 C 119.16 191.13 120.18 190.55 120.46 189.56 C 120.73 188.58 120.15 187.55 119.17 187.28 L 118.03 186.96 C 117.04 186.68 116.02 187.26 115.74 188.25 C 115.47 189.24 116.04 190.26 117.03 190.54 Z M 118.17 190.86 L 119.16 191.13 C 120.15 191.40 121.17 190.82 121.44 189.83 C 121.72 188.84 121.13 187.82 120.14 187.54 L 119.16 187.27 C 118.17 187.00 117.15 187.58 116.88 188.57 C 116.60 189.56 117.18 190.58 118.17 190.86 Z M 119.16 191.13 L 120.05 191.37 C 121.04 191.64 122.06 191.06 122.33 190.07 C 122.60 189.08 122.02 188.05 121.03 187.78 L 120.14 187.54 C 119.15 187.27 118.13 187.86 117.86 188.85 C 117.59 189.84 118.17 190.86 119.16 191.13 Z M 120.05 191.37 L 120.89 191.60 C 121.88 191.87 122.91 191.29 123.18 190.30 C 123.45 189.30 122.86 188.28 121.87 188.01 L 121.03 187.78 C 120.04 187.51 119.01 188.10 118.74 189.09 C 118.47 190.08 119.06 191.10 120.05 191.37 Z M 120.89 191.60 L 121.79 191.85 C 122.78 192.12 123.80 191.54 124.07 190.54 C 124.35 189.55 123.76 188.53 122.77 188.26 L 121.87 188.01 C 120.88 187.74 119.86 188.33 119.58 189.32 C 119.31 190.31 119.90 191.33 120.89 191.60 Z M 121.78 191.85 L 122.72 192.11 C 123.71 192.38 124.74 191.80 125.01 190.81 C 125.29 189.82 124.70 188.79 123.71 188.52 L 122.77 188.26 C 121.78 187.98 120.76 188.57 120.48 189.56 C 120.21 190.55 120.79 191.57 121.78 191.85 Z M 122.72 192.11 L 123.69 192.38 C 124.68 192.65 125.71 192.07 125.98 191.08 C 126.26 190.09 125.68 189.06 124.69 188.79 L 123.72 188.52 C 122.73 188.24 121.70 188.82 121.42 189.81 C 121.15 190.80 121.73 191.83 122.72 192.11 Z M 123.68 192.38 L 124.69 192.66 C 125.68 192.94 126.71 192.36 126.99 191.37 C 127.27 190.38 126.69 189.35 125.70 189.07 L 124.69 188.79 C 123.70 188.51 122.67 189.09 122.39 190.08 C 122.11 191.07 122.69 192.10 123.68 192.38 Z M 124.68 192.66 L 125.63 192.93 C 126.62 193.22 127.66 192.64 127.94 191.65 C 128.22 190.66 127.65 189.63 126.66 189.35 L 125.71 189.07 C 124.72 188.79 123.69 189.36 123.40 190.35 C 123.12 191.34 123.69 192.37 124.68 192.66 Z M 125.63 192.93 L 126.58 193.21 C 127.57 193.49 128.60 192.93 128.89 191.94 C 129.18 190.95 128.61 189.91 127.62 189.63 L 126.67 189.35 C 125.68 189.06 124.64 189.63 124.36 190.62 C 124.07 191.61 124.64 192.64 125.63 192.93 Z M 126.57 193.21 L 127.54 193.49 C 128.53 193.78 129.57 193.22 129.86 192.23 C 130.15 191.24 129.58 190.20 128.59 189.91 L 127.63 189.63 C 126.64 189.34 125.60 189.90 125.31 190.89 C 125.02 191.88 125.59 192.92 126.57 193.21 Z M 127.53 193.49 L 128.51 193.78 C 129.49 194.07 130.53 193.51 130.83 192.52 C 131.12 191.54 130.56 190.50 129.57 190.20 L 128.60 189.91 C 127.61 189.62 126.57 190.18 126.28 191.17 C 125.99 192.16 126.55 193.20 127.53 193.49 Z M 128.50 193.78 L 129.47 194.07 C 130.45 194.37 131.50 193.81 131.79 192.82 C 132.09 191.84 131.53 190.80 130.55 190.50 L 129.58 190.21 C 128.59 189.91 127.55 190.47 127.25 191.45 C 126.96 192.44 127.51 193.48 128.50 193.78 Z M 129.46 194.07 L 130.42 194.36 C 131.40 194.66 132.45 194.11 132.75 193.12 C 133.05 192.14 132.50 191.09 131.51 190.79 L 130.55 190.50 C 129.57 190.20 128.52 190.75 128.22 191.74 C 127.92 192.72 128.48 193.77 129.46 194.07 Z M 130.41 194.36 L 131.36 194.65 C 132.35 194.96 133.39 194.41 133.70 193.42 C 134.00 192.44 133.45 191.39 132.47 191.09 L 131.52 190.79 C 130.53 190.49 129.49 191.04 129.18 192.02 C 128.88 193.01 129.43 194.05 130.41 194.36 Z M 131.36 194.65 L 132.31 194.95 C 133.29 195.26 134.34 194.71 134.65 193.73 C 134.96 192.74 134.41 191.69 133.42 191.39 L 132.47 191.09 C 131.49 190.78 130.44 191.33 130.13 192.31 C 129.82 193.30 130.37 194.34 131.36 194.65 Z M 132.30 194.95 L 133.26 195.25 C 134.24 195.56 135.29 195.02 135.60 194.03 C 135.91 193.05 135.37 192.00 134.38 191.69 L 133.43 191.39 C 132.44 191.08 131.40 191.62 131.08 192.61 C 130.77 193.59 131.32 194.64 132.30 194.95 Z M 133.25 195.25 L 134.19 195.55 C 135.17 195.86 136.22 195.32 136.54 194.34 C 136.85 193.35 136.31 192.30 135.32 191.99 L 134.39 191.69 C 133.41 191.38 132.35 191.92 132.04 192.90 C 131.73 193.89 132.27 194.94 133.25 195.25 Z M 134.18 195.55 L 135.11 195.85 C 136.10 196.17 137.15 195.63 137.47 194.64 C 137.78 193.66 137.24 192.61 136.26 192.29 L 135.33 191.99 C 134.35 191.67 133.29 192.21 132.97 193.19 C 132.66 194.18 133.20 195.23 134.18 195.55 Z M 135.10 195.85 L 136.05 196.16 C 137.03 196.48 138.09 195.95 138.41 194.96 C 138.73 193.98 138.20 192.92 137.22 192.60 L 136.27 192.29 C 135.29 191.97 134.23 192.50 133.91 193.48 C 133.58 194.47 134.12 195.53 135.10 195.85 Z M 136.03 196.16 L 136.99 196.48 C 137.98 196.81 139.04 196.28 139.37 195.30 C 139.70 194.32 139.17 193.26 138.19 192.93 L 137.23 192.60 C 136.25 192.27 135.19 192.80 134.85 193.78 C 134.52 194.76 135.05 195.83 136.03 196.16 Z M 136.98 196.48 L 137.96 196.81 C 138.94 197.15 140.00 196.63 140.34 195.66 C 140.68 194.68 140.16 193.61 139.18 193.27 L 138.21 192.93 C 137.23 192.59 136.16 193.11 135.82 194.09 C 135.48 195.07 136.00 196.14 136.98 196.48 Z M 137.94 196.81 L 138.86 197.14 C 139.83 197.49 140.91 196.98 141.26 196.00 C 141.60 195.02 141.09 193.95 140.12 193.60 L 139.20 193.27 C 138.22 192.92 137.15 193.43 136.80 194.41 C 136.45 195.39 136.96 196.46 137.94 196.81 Z M 138.84 197.13 L 139.77 197.47 C 140.74 197.83 141.82 197.33 142.18 196.35 C 142.53 195.38 142.03 194.30 141.06 193.94 L 140.13 193.60 C 139.16 193.25 138.08 193.75 137.72 194.72 C 137.37 195.70 137.87 196.78 138.84 197.13 Z M 139.76 197.47 L 140.69 197.82 C 141.67 198.18 142.75 197.69 143.11 196.71 C 143.47 195.74 142.98 194.66 142.01 194.30 L 141.07 193.95 C 140.10 193.58 139.02 194.08 138.65 195.05 C 138.29 196.02 138.78 197.10 139.76 197.47 Z M 140.69 197.81 L 141.63 198.17 C 142.60 198.54 143.69 198.05 144.05 197.08 C 144.42 196.11 143.93 195.03 142.96 194.66 L 142.02 194.30 C 141.05 193.93 139.96 194.42 139.59 195.39 C 139.23 196.36 139.72 197.45 140.69 197.81 Z M 141.62 198.17 L 142.58 198.54 C 143.55 198.91 144.63 198.42 145.01 197.46 C 145.38 196.49 144.89 195.40 143.93 195.03 L 142.97 194.66 C 142.00 194.29 140.92 194.77 140.54 195.74 C 140.17 196.71 140.66 197.80 141.62 198.17 Z M 142.57 198.53 L 143.50 198.89 C 144.47 199.27 145.56 198.79 145.93 197.82 C 146.31 196.85 145.83 195.77 144.86 195.39 L 143.93 195.03 C 142.96 194.66 141.88 195.14 141.50 196.10 C 141.13 197.07 141.61 198.16 142.57 198.53 Z M 143.49 198.89 L 144.42 199.25 C 145.38 199.63 146.47 199.15 146.85 198.19 C 147.23 197.22 146.75 196.13 145.79 195.75 L 144.86 195.39 C 143.90 195.01 142.81 195.49 142.43 196.46 C 142.05 197.42 142.53 198.51 143.49 198.89 Z M 144.41 199.25 L 145.34 199.62 C 146.30 200.00 147.39 199.53 147.77 198.56 C 148.16 197.60 147.68 196.50 146.72 196.12 L 145.79 195.76 C 144.83 195.37 143.74 195.85 143.36 196.81 C 142.97 197.78 143.45 198.87 144.41 199.25 Z M 145.33 199.61 L 146.26 199.99 C 147.22 200.37 148.32 199.91 148.70 198.94 C 149.09 197.98 148.62 196.89 147.66 196.50 L 146.73 196.13 C 145.77 195.74 144.67 196.21 144.29 197.17 C 143.90 198.13 144.37 199.23 145.33 199.61 Z M 146.25 199.98 L 147.19 200.36 C 148.15 200.76 149.24 200.29 149.63 199.33 C 150.03 198.37 149.56 197.28 148.60 196.89 L 147.67 196.50 C 146.71 196.11 145.61 196.57 145.22 197.53 C 144.83 198.49 145.29 199.59 146.25 199.98 Z M 147.18 200.36 L 148.10 200.74 C 149.06 201.14 150.15 200.68 150.55 199.73 C 150.95 198.77 150.49 197.67 149.54 197.27 L 148.61 196.89 C 147.66 196.49 146.56 196.95 146.16 197.91 C 145.76 198.86 146.22 199.96 147.18 200.36 Z M 148.09 200.74 L 148.98 201.11 C 149.94 201.52 151.04 201.07 151.44 200.11 C 151.84 199.16 151.40 198.05 150.44 197.65 L 149.55 197.28 C 148.59 196.87 147.49 197.32 147.09 198.28 C 146.68 199.23 147.13 200.33 148.09 200.74 Z M 148.98 201.11 L 149.88 201.49 C 150.83 201.90 151.93 201.46 152.34 200.50 C 152.75 199.55 152.30 198.45 151.35 198.04 L 150.45 197.66 C 149.49 197.25 148.39 197.69 147.98 198.65 C 147.58 199.60 148.02 200.70 148.98 201.11 Z M 149.87 201.49 L 150.79 201.88 C 151.74 202.29 152.84 201.85 153.25 200.90 C 153.66 199.95 153.22 198.84 152.27 198.43 L 151.35 198.04 C 150.40 197.63 149.30 198.07 148.89 199.03 C 148.48 199.98 148.92 201.08 149.87 201.49 Z M 150.79 201.88 L 151.72 202.28 C 152.67 202.69 153.77 202.25 154.18 201.30 C 154.59 200.35 154.15 199.25 153.20 198.84 L 152.27 198.44 C 151.32 198.03 150.21 198.47 149.80 199.42 C 149.40 200.37 149.83 201.47 150.79 201.88 Z M 151.72 202.28 L 152.67 202.69 C 153.62 203.10 154.72 202.66 155.13 201.71 C 155.54 200.76 155.10 199.65 154.15 199.25 L 153.20 198.84 C 152.25 198.43 151.15 198.87 150.74 199.82 C 150.33 200.77 150.77 201.87 151.72 202.28 Z M 152.67 202.69 L 153.60 203.09 C 154.55 203.50 155.65 203.06 156.06 202.10 C 156.47 201.15 156.02 200.05 155.07 199.64 L 154.15 199.24 C 153.20 198.84 152.09 199.28 151.69 200.23 C 151.28 201.18 151.72 202.29 152.67 202.69 Z M 153.60 203.09 L 154.51 203.48 C 155.46 203.89 156.57 203.44 156.97 202.49 C 157.38 201.54 156.94 200.44 155.98 200.03 L 155.07 199.64 C 154.12 199.23 153.02 199.68 152.61 200.63 C 152.20 201.58 152.65 202.68 153.60 203.09 Z M 154.51 203.48 L 155.44 203.87 C 156.39 204.28 157.49 203.84 157.90 202.88 C 158.30 201.93 157.86 200.83 156.91 200.42 L 155.98 200.03 C 155.03 199.62 153.93 200.07 153.52 201.02 C 153.12 201.97 153.56 203.07 154.51 203.48 Z M 155.44 203.87 L 156.36 204.27 C 157.32 204.68 158.42 204.23 158.82 203.28 C 159.23 202.33 158.79 201.23 157.84 200.82 L 156.91 200.42 C 155.96 200.02 154.85 200.46 154.45 201.41 C 154.04 202.36 154.48 203.47 155.44 203.87 Z M 156.36 204.27 L 157.29 204.67 C 158.24 205.07 159.34 204.63 159.75 203.68 C 160.16 202.73 159.72 201.63 158.77 201.22 L 157.84 200.82 C 156.89 200.42 155.79 200.86 155.38 201.81 C 154.97 202.76 155.41 203.86 156.36 204.27 Z M 157.29 204.66 L 158.21 205.06 C 159.16 205.47 160.26 205.03 160.67 204.08 C 161.08 203.13 160.64 202.03 159.69 201.62 L 158.77 201.22 C 157.82 200.81 156.72 201.25 156.31 202.20 C 155.90 203.15 156.34 204.25 157.29 204.66 Z M 158.20 205.06 L 159.12 205.46 C 160.07 205.87 161.18 205.44 161.59 204.49 C 162.00 203.54 161.57 202.44 160.62 202.02 L 159.69 201.62 C 158.75 201.21 157.64 201.64 157.23 202.59 C 156.82 203.54 157.25 204.64 158.20 205.06 Z M 159.12 205.45 L 160.05 205.86 C 160.99 206.28 162.10 205.85 162.51 204.90 C 162.93 203.96 162.50 202.85 161.55 202.44 L 160.62 202.03 C 159.68 201.61 158.57 202.04 158.16 202.99 C 157.74 203.93 158.17 205.04 159.12 205.45 Z M 160.04 205.86 L 160.96 206.27 C 161.90 206.69 163.01 206.26 163.43 205.32 C 163.85 204.37 163.42 203.27 162.48 202.85 L 161.56 202.44 C 160.62 202.02 159.51 202.45 159.09 203.39 C 158.67 204.34 159.10 205.44 160.04 205.86 Z M 160.96 206.26 L 161.86 206.67 C 162.80 207.09 163.91 206.67 164.33 205.73 C 164.75 204.79 164.33 203.68 163.39 203.26 L 162.48 202.85 C 161.54 202.43 160.43 202.85 160.01 203.79 C 159.59 204.74 160.01 205.84 160.96 206.26 Z M 161.86 206.67 L 162.76 207.07 C 163.70 207.50 164.81 207.08 165.23 206.14 C 165.65 205.20 165.24 204.09 164.30 203.67 L 163.39 203.26 C 162.45 202.84 161.35 203.26 160.92 204.20 C 160.50 205.14 160.92 206.24 161.86 206.67 Z M 162.76 207.07 L 163.66 207.48 C 164.60 207.90 165.70 207.49 166.13 206.55 C 166.55 205.61 166.14 204.51 165.20 204.08 L 164.30 203.67 C 163.36 203.25 162.26 203.66 161.83 204.60 C 161.40 205.54 161.82 206.64 162.76 207.07 Z M 163.65 207.47 L 164.56 207.89 C 165.49 208.31 166.60 207.90 167.03 206.97 C 167.45 206.03 167.04 204.92 166.10 204.50 L 165.20 204.08 C 164.27 203.66 163.16 204.07 162.73 205.00 C 162.31 205.94 162.72 207.05 163.65 207.47 Z M 164.55 207.88 L 165.46 208.30 C 166.39 208.73 167.50 208.32 167.93 207.38 C 168.36 206.45 167.95 205.34 167.01 204.91 L 166.11 204.50 C 165.17 204.07 164.07 204.48 163.64 205.42 C 163.21 206.35 163.62 207.46 164.55 207.88 Z M 165.46 208.30 L 166.37 208.71 C 167.30 209.14 168.41 208.73 168.83 207.80 C 169.26 206.87 168.85 205.76 167.92 205.33 L 167.01 204.92 C 166.08 204.49 164.97 204.90 164.55 205.83 C 164.12 206.76 164.53 207.87 165.46 208.30 Z M 166.37 208.71 L 167.28 209.13 C 168.21 209.56 169.32 209.15 169.74 208.22 C 170.17 207.28 169.76 206.18 168.83 205.75 L 167.92 205.33 C 166.99 204.91 165.88 205.32 165.46 206.25 C 165.03 207.18 165.44 208.28 166.37 208.71 Z M 167.28 209.13 L 168.19 209.55 C 169.13 209.97 170.23 209.56 170.65 208.63 C 171.08 207.70 170.67 206.60 169.74 206.17 L 168.83 205.75 C 167.89 205.33 166.79 205.74 166.37 206.67 C 165.94 207.60 166.35 208.70 167.28 209.13 Z M 168.20 209.55 L 169.11 209.96 C 170.04 210.38 171.14 209.97 171.57 209.04 C 171.99 208.11 171.58 207.01 170.65 206.59 L 169.73 206.17 C 168.80 205.75 167.70 206.16 167.28 207.09 C 166.86 208.02 167.27 209.12 168.20 209.55 Z M 169.12 209.96 L 170.04 210.37 C 170.97 210.79 172.06 210.38 172.48 209.45 C 172.90 208.52 172.49 207.42 171.56 207.00 L 170.64 206.59 C 169.71 206.16 168.61 206.58 168.19 207.51 C 167.77 208.44 168.19 209.54 169.12 209.96 Z M 170.04 210.37 L 170.96 210.78 C 171.89 211.20 172.99 210.78 173.40 209.85 C 173.82 208.92 173.40 207.83 172.47 207.41 L 171.55 207.00 C 170.62 206.58 169.53 207.00 169.11 207.93 C 168.69 208.86 169.11 209.96 170.04 210.37 Z M 170.97 210.78 L 171.88 211.19 C 172.81 211.61 173.90 211.19 174.32 210.26 C 174.73 209.33 174.31 208.24 173.38 207.82 L 172.47 207.41 C 171.54 207.00 170.45 207.42 170.03 208.35 C 169.62 209.28 170.04 210.37 170.97 210.78 Z M 171.89 211.19 L 172.80 211.60 C 173.73 212.01 174.82 211.59 175.23 210.66 C 175.64 209.73 175.22 208.65 174.30 208.23 L 173.38 207.83 C 172.45 207.41 171.37 207.83 170.95 208.76 C 170.54 209.69 170.96 210.78 171.89 211.19 Z M 172.80 211.59 L 173.71 212.00 C 174.64 212.41 175.72 211.99 176.14 211.07 C 176.55 210.14 176.13 209.05 175.21 208.64 L 174.30 208.24 C 173.37 207.82 172.28 208.24 171.87 209.17 C 171.46 210.09 171.87 211.18 172.80 211.59 Z M 173.71 211.99 L 174.61 212.40 C 175.54 212.81 176.62 212.40 177.04 211.47 C 177.45 210.55 177.03 209.46 176.11 209.05 L 175.21 208.65 C 174.28 208.23 173.20 208.65 172.79 209.57 C 172.37 210.49 172.79 211.58 173.71 211.99 Z M 174.61 212.39 L 175.53 212.81 C 176.45 213.22 177.53 212.81 177.95 211.89 C 178.36 210.97 177.95 209.89 177.03 209.47 L 176.11 209.06 C 175.19 208.64 174.11 209.05 173.70 209.97 C 173.28 210.89 173.69 211.98 174.61 212.39 Z M 175.53 212.80 L 176.45 213.22 C 177.37 213.63 178.45 213.23 178.87 212.31 C 179.28 211.39 178.88 210.31 177.96 209.90 L 177.04 209.48 C 176.12 209.06 175.04 209.47 174.62 210.39 C 174.21 211.30 174.61 212.38 175.53 212.80 Z M 176.45 213.21 L 177.37 213.63 C 178.28 214.05 179.36 213.64 179.78 212.73 C 180.19 211.81 179.79 210.74 178.88 210.32 L 177.96 209.90 C 177.05 209.49 175.97 209.89 175.55 210.80 C 175.14 211.72 175.54 212.80 176.45 213.21 Z M 177.37 213.62 L 178.28 214.04 C 179.19 214.45 180.27 214.05 180.68 213.14 C 181.10 212.23 180.69 211.15 179.78 210.74 L 178.87 210.32 C 177.96 209.91 176.89 210.31 176.47 211.22 C 176.06 212.14 176.46 213.21 177.37 213.62 Z M 178.29 214.03 L 179.19 214.44 C 180.10 214.85 181.17 214.45 181.58 213.54 C 181.99 212.63 181.59 211.56 180.68 211.15 L 179.78 210.74 C 178.87 210.33 177.80 210.73 177.39 211.64 C 176.97 212.55 177.38 213.62 178.29 214.03 Z M 179.19 214.44 L 180.08 214.84 C 180.99 215.25 182.06 214.84 182.47 213.94 C 182.88 213.03 182.47 211.96 181.56 211.55 L 180.67 211.15 C 179.76 210.74 178.70 211.15 178.29 212.06 C 177.88 212.96 178.28 214.03 179.19 214.44 Z M 180.09 214.84 L 181.02 215.25 C 181.92 215.65 182.98 215.24 183.39 214.34 C 183.79 213.43 183.38 212.37 182.47 211.97 L 181.55 211.56 C 180.65 211.15 179.59 211.56 179.18 212.47 C 178.78 213.37 179.19 214.43 180.09 214.84 Z M 181.03 215.24 L 181.94 215.64 C 182.85 216.04 183.90 215.63 184.30 214.73 C 184.69 213.82 184.28 212.77 183.38 212.37 L 182.46 211.97 C 181.56 211.57 180.51 211.98 180.11 212.89 C 179.71 213.79 180.12 214.85 181.03 215.24 Z M 181.95 215.64 L 182.87 216.04 C 183.77 216.43 184.81 216.02 185.21 215.11 C 185.60 214.21 185.18 213.17 184.28 212.77 L 183.37 212.38 C 182.47 211.99 181.42 212.40 181.03 213.30 C 180.64 214.20 181.05 215.25 181.95 215.64 Z M 182.88 216.03 L 183.79 216.42 C 184.69 216.81 185.73 216.40 186.12 215.50 C 186.50 214.60 186.09 213.56 185.19 213.17 L 184.27 212.78 C 183.38 212.39 182.33 212.81 181.95 213.71 C 181.56 214.61 181.98 215.65 182.88 216.03 Z M 183.80 216.42 L 184.72 216.81 C 185.61 217.19 186.65 216.77 187.03 215.88 C 187.41 214.98 186.99 213.95 186.10 213.57 L 185.18 213.18 C 184.28 212.80 183.25 213.21 182.87 214.11 C 182.49 215.00 182.91 216.04 183.80 216.42 Z M 184.73 216.80 L 185.68 217.20 C 186.57 217.58 187.59 217.16 187.97 216.27 C 188.35 215.38 187.93 214.35 187.03 213.97 L 186.09 213.57 C 185.20 213.20 184.17 213.62 183.79 214.51 C 183.42 215.40 183.84 216.43 184.73 216.80 Z M 185.68 217.19 L 186.65 217.60 C 187.54 217.97 188.56 217.55 188.93 216.66 C 189.30 215.78 188.88 214.76 187.99 214.39 L 187.03 213.98 C 186.14 213.61 185.12 214.03 184.75 214.92 C 184.38 215.80 184.80 216.82 185.68 217.19 Z M 186.66 217.59 L 187.61 217.99 C 188.49 218.35 189.51 217.93 189.87 217.05 C 190.24 216.17 189.82 215.16 188.94 214.79 L 187.99 214.39 C 187.10 214.03 186.09 214.45 185.72 215.33 C 185.36 216.21 185.78 217.22 186.66 217.59 Z M 187.62 217.98 L 188.54 218.36 C 189.42 218.72 190.42 218.31 190.79 217.43 C 191.15 216.56 190.74 215.55 189.86 215.19 L 188.93 214.80 C 188.06 214.44 187.05 214.85 186.69 215.73 C 186.32 216.60 186.74 217.61 187.62 217.98 Z M 188.54 218.35 L 189.42 218.72 C 190.29 219.08 191.29 218.67 191.66 217.80 C 192.02 216.93 191.61 215.93 190.74 215.56 L 189.86 215.20 C 188.99 214.83 187.99 215.24 187.62 216.11 C 187.26 216.99 187.67 217.99 188.54 218.35 Z M 189.42 218.70 L 190.30 219.07 C 191.16 219.44 192.16 219.03 192.52 218.17 C 192.89 217.31 192.48 216.31 191.62 215.95 L 190.74 215.58 C 189.88 215.21 188.88 215.62 188.52 216.48 C 188.15 217.34 188.56 218.34 189.42 218.70 Z M 190.30 219.06 L 191.22 219.45 C 192.07 219.81 193.06 219.41 193.42 218.56 C 193.78 217.70 193.39 216.72 192.53 216.35 L 191.62 215.96 C 190.76 215.60 189.78 216.00 189.41 216.85 C 189.05 217.71 189.45 218.69 190.30 219.06 Z M 191.23 219.43 L 192.12 219.80 C 192.96 220.16 193.94 219.77 194.29 218.92 C 194.65 218.07 194.25 217.10 193.41 216.74 L 192.52 216.37 C 191.68 216.01 190.70 216.41 190.34 217.25 C 189.99 218.10 190.38 219.07 191.23 219.43 Z M 192.14 219.79 L 193.04 220.17 C 193.88 220.51 194.84 220.11 195.19 219.27 C 195.53 218.43 195.13 217.47 194.29 217.13 L 193.39 216.75 C 192.55 216.41 191.59 216.81 191.24 217.65 C 190.90 218.49 191.30 219.45 192.14 219.79 Z M 193.07 220.16 L 194.04 220.54 C 194.87 220.87 195.82 220.47 196.15 219.63 C 196.48 218.80 196.07 217.85 195.24 217.52 L 194.27 217.13 C 193.43 216.80 192.49 217.21 192.16 218.05 C 191.82 218.88 192.23 219.83 193.07 220.16 Z M 194.07 220.54 L 194.92 220.86 C 195.75 221.18 196.68 220.76 197.00 219.93 C 197.31 219.10 196.90 218.17 196.06 217.85 L 195.21 217.53 C 194.38 217.21 193.45 217.63 193.13 218.46 C 192.82 219.29 193.24 220.22 194.07 220.54 Z M 194.95 220.86 L 195.87 221.19 C 196.70 221.49 197.62 221.05 197.91 220.22 C 198.21 219.39 197.78 218.48 196.95 218.18 L 196.03 217.85 C 195.20 217.56 194.29 217.99 193.99 218.82 C 193.69 219.65 194.12 220.56 194.95 220.86 Z M 195.91 221.19 L 196.87 221.51 C 197.70 221.78 198.60 221.33 198.88 220.50 C 199.15 219.67 198.70 218.78 197.87 218.50 L 196.91 218.18 C 196.08 217.91 195.18 218.36 194.91 219.19 C 194.63 220.02 195.08 220.91 195.91 221.19 Z M 196.92 221.51 L 197.92 221.81 C 198.75 222.05 199.62 221.58 199.87 220.75 C 200.12 219.92 199.65 219.05 198.82 218.80 L 197.82 218.50 C 196.99 218.25 196.12 218.72 195.87 219.55 C 195.62 220.38 196.09 221.26 196.92 221.51 Z M 197.98 221.81 L 198.99 222.07 C 199.82 222.29 200.67 221.79 200.88 220.96 C 201.10 220.12 200.60 219.28 199.77 219.06 L 198.76 218.80 C 197.93 218.58 197.08 219.08 196.86 219.91 C 196.65 220.74 197.15 221.59 197.98 221.81 Z M 199.06 222.07 L 200.06 222.29 C 200.90 222.46 201.71 221.93 201.89 221.10 C 202.07 220.26 201.53 219.45 200.70 219.27 L 199.70 219.06 C 198.87 218.88 198.05 219.41 197.87 220.25 C 197.70 221.08 198.23 221.90 199.06 222.07 Z M 200.13 222.28 L 201.13 222.45 C 201.96 222.58 202.74 222.02 202.88 221.19 C 203.02 220.36 202.46 219.58 201.63 219.44 L 200.63 219.28 C 199.80 219.14 199.02 219.70 198.88 220.53 C 198.74 221.36 199.30 222.14 200.13 222.28 Z M 201.19 222.44 L 202.18 222.56 C 203.00 222.67 203.76 222.09 203.86 221.26 C 203.97 220.44 203.39 219.68 202.56 219.58 L 201.57 219.45 C 200.75 219.34 199.99 219.93 199.89 220.75 C 199.78 221.58 200.36 222.33 201.19 222.44 Z M 202.22 222.55 L 203.21 222.65 C 204.03 222.73 204.76 222.14 204.84 221.32 C 204.92 220.50 204.33 219.77 203.51 219.69 L 202.52 219.59 C 201.70 219.51 200.97 220.10 200.89 220.92 C 200.81 221.74 201.40 222.47 202.22 222.55 Z M 203.24 222.63 L 204.23 222.72 C 205.04 222.78 205.75 222.18 205.81 221.37 C 205.88 220.57 205.28 219.86 204.47 219.79 L 203.48 219.71 C 202.67 219.64 201.96 220.24 201.90 221.05 C 201.83 221.86 202.43 222.57 203.24 222.63 Z M 204.24 222.70 L 205.12 222.76 C 205.92 222.82 206.61 222.22 206.67 221.43 C 206.73 220.63 206.13 219.93 205.33 219.87 L 204.46 219.81 C 203.66 219.75 202.96 220.35 202.90 221.14 C 202.84 221.94 203.44 222.64 204.24 222.70 Z"
      fill="black"
      fill-rule="nonzero" /></svg>