<svg xmlns="http://www.w3.org/2000/svg" width="300" height="300" viewBox="0 0 300 300">
<path d="M 146.42 113.83 L 145.32 113.89 C 144.48 113.93 143.83 114.64 143.87 115.48 C 143.91 116.32 144.62 116.96 145.46 116.92 L 146.56 116.87 C 147.40 116.83 148.05 116.12 148.01 115.28 C 147.97 114.44 147.25 113.79 146.42 113.83 Z M 145.18 113.88 L 144.16 114.02 C 143.32 114.14 142.73 114.91 142.85 115.75 C 142.96 116.60 143.74 117.18 144.58 117.07 L 145.60 116.93 C 146.44 116.81 147.03 116.04 146.91 115.20 C 146.80 114.35 146.02 113.77 145.18 113.88 Z M 143.83 114.08 L 142.98 114.40 C 142.17 114.70 141.76 115.59 142.05 116.40 C 142.35 117.20 143.24 117.62 144.05 117.32 L 144.91 117.01 C 145.71 116.71 146.13 115.82 145.83 115.01 C 145.53 114.20 144.64 113.79 143.83 114.08 Z M 142.44 114.72 L 141.81 115.31 C 141.17 115.90 141.14 116.89 141.73 117.53 C 142.32 118.16 143.32 118.19 143.95 117.60 L 144.58 117.00 C 145.22 116.41 145.25 115.42 144.66 114.79 C 144.07 114.16 143.07 114.12 142.44 114.72 Z M 141.44 115.81 L 141.05 116.69 C 140.70 117.48 141.05 118.41 141.85 118.76 C 142.64 119.12 143.57 118.76 143.92 117.97 L 144.31 117.10 C 144.67 116.30 144.31 115.37 143.52 115.02 C 142.73 114.67 141.80 115.02 141.44 115.81 Z M 140.95 117.02 L 140.74 118.04 C 140.57 118.89 141.13 119.72 141.98 119.89 C 142.83 120.06 143.66 119.50 143.83 118.65 L 144.03 117.63 C 144.20 116.78 143.64 115.96 142.79 115.79 C 141.94 115.62 141.12 116.17 140.95 117.02 Z M 140.72 118.20 L 140.63 119.25 C 140.55 120.11 141.18 120.87 142.05 120.95 C 142.91 121.03 143.67 120.40 143.75 119.53 L 143.85 118.49 C 143.93 117.63 143.29 116.86 142.43 116.78 C 141.57 116.71 140.80 117.34 140.72 118.20 Z M 140.63 119.34 L 140.59 120.34 C 140.56 121.20 141.24 121.93 142.10 121.96 C 142.96 121.99 143.68 121.31 143.71 120.45 L 143.75 119.45 C 143.78 118.59 143.10 117.86 142.24 117.83 C 141.38 117.80 140.66 118.48 140.63 119.34 Z M 140.61 120.45 L 140.64 121.44 C 140.67 122.29 141.39 122.96 142.25 122.93 C 143.10 122.89 143.77 122.18 143.73 121.32 L 143.70 120.34 C 143.67 119.49 142.95 118.82 142.10 118.85 C 141.24 118.88 140.58 119.60 140.61 120.45 Z M 140.67 121.57 L 140.79 122.55 C 140.89 123.39 141.66 123.99 142.50 123.89 C 143.34 123.78 143.94 123.02 143.83 122.18 L 143.71 121.19 C 143.61 120.35 142.84 119.75 142.00 119.86 C 141.16 119.96 140.56 120.73 140.67 121.57 Z M 140.82 122.68 L 141.02 123.60 C 141.19 124.43 141.99 124.95 142.82 124.78 C 143.64 124.61 144.17 123.80 143.99 122.98 L 143.80 122.05 C 143.63 121.23 142.82 120.70 142.00 120.88 C 141.18 121.05 140.65 121.85 140.82 122.68 Z M 141.05 123.70 L 141.32 124.65 C 141.54 125.46 142.38 125.93 143.18 125.70 C 143.99 125.48 144.45 124.64 144.23 123.84 L 143.96 122.88 C 143.73 122.08 142.90 121.61 142.10 121.84 C 141.29 122.06 140.82 122.90 141.05 123.70 Z M 141.35 124.73 L 141.68 125.71 C 141.95 126.49 142.81 126.91 143.59 126.65 C 144.38 126.38 144.80 125.53 144.53 124.74 L 144.20 123.76 C 143.93 122.98 143.07 122.56 142.29 122.82 C 141.50 123.09 141.08 123.94 141.35 124.73 Z M 141.72 125.76 L 142.08 126.71 C 142.38 127.48 143.24 127.86 144.01 127.56 C 144.78 127.26 145.16 126.40 144.86 125.63 L 144.50 124.69 C 144.20 123.92 143.34 123.54 142.57 123.83 C 141.80 124.13 141.42 125.00 141.72 125.76 Z M 142.11 126.75 L 142.49 127.65 C 142.81 128.41 143.68 128.76 144.44 128.44 C 145.19 128.12 145.54 127.25 145.22 126.49 L 144.84 125.59 C 144.52 124.84 143.65 124.48 142.89 124.80 C 142.14 125.12 141.79 126.00 142.11 126.75 Z M 142.51 127.68 L 142.93 128.60 C 143.27 129.34 144.14 129.66 144.88 129.33 C 145.62 128.99 145.95 128.12 145.61 127.38 L 145.20 126.46 C 144.86 125.72 143.99 125.39 143.25 125.73 C 142.51 126.07 142.18 126.94 142.51 127.68 Z M 142.95 128.62 L 143.39 129.54 C 143.74 130.27 144.62 130.58 145.35 130.23 C 146.08 129.88 146.38 129.00 146.03 128.27 L 145.59 127.35 C 145.24 126.62 144.37 126.32 143.64 126.67 C 142.91 127.02 142.60 127.89 142.95 128.62 Z M 143.41 129.56 L 143.87 130.48 C 144.23 131.20 145.10 131.49 145.82 131.13 C 146.54 130.77 146.83 129.90 146.48 129.18 L 146.02 128.26 C 145.66 127.54 144.78 127.24 144.06 127.60 C 143.34 127.96 143.05 128.84 143.41 129.56 Z M 143.89 130.49 L 144.36 131.40 C 144.73 132.12 145.60 132.39 146.31 132.03 C 147.02 131.66 147.30 130.78 146.93 130.07 L 146.46 129.16 C 146.09 128.45 145.22 128.17 144.51 128.54 C 143.80 128.91 143.52 129.78 143.89 130.49 Z M 144.37 131.42 L 144.85 132.31 C 145.22 133.01 146.10 133.28 146.80 132.90 C 147.50 132.53 147.77 131.65 147.39 130.95 L 146.92 130.06 C 146.54 129.36 145.67 129.09 144.96 129.47 C 144.26 129.84 144.00 130.72 144.37 131.42 Z M 144.86 132.33 L 145.34 133.18 C 145.72 133.88 146.59 134.13 147.29 133.75 C 147.98 133.36 148.24 132.49 147.85 131.79 L 147.38 130.94 C 147.00 130.24 146.12 129.99 145.43 130.37 C 144.73 130.76 144.48 131.63 144.86 132.33 Z M 145.35 133.20 L 145.85 134.07 C 146.24 134.76 147.11 134.99 147.80 134.60 C 148.49 134.21 148.73 133.33 148.33 132.65 L 147.84 131.78 C 147.44 131.09 146.57 130.85 145.88 131.24 C 145.20 131.64 144.96 132.51 145.35 133.20 Z M 145.86 134.09 L 146.38 134.97 C 146.79 135.65 147.66 135.87 148.34 135.47 C 149.02 135.07 149.25 134.19 148.84 133.51 L 148.32 132.63 C 147.92 131.95 147.04 131.73 146.36 132.13 C 145.68 132.53 145.46 133.41 145.86 134.09 Z M 146.39 134.98 L 146.90 135.82 C 147.31 136.49 148.19 136.71 148.87 136.30 C 149.54 135.89 149.75 135.01 149.34 134.34 L 148.83 133.50 C 148.42 132.82 147.54 132.61 146.87 133.02 C 146.20 133.43 145.98 134.31 146.39 134.98 Z M 146.91 135.83 L 147.39 136.61 C 147.81 137.28 148.68 137.48 149.35 137.07 C 150.02 136.66 150.23 135.78 149.82 135.11 L 149.34 134.33 C 148.92 133.66 148.04 133.45 147.37 133.86 C 146.70 134.28 146.50 135.16 146.91 135.83 Z"
      fill="black"
      fill-rule="nonzero" /><path d="M 138.73 137.67 L 137.70 137.64 C 136.87 137.61 136.18 138.26 136.16 139.09 C 136.13 139.91 136.78 140.60 137.60 140.62 L 138.64 140.66 C 139.46 140.68 140.15 140.04 140.18 139.21 C 140.20 138.39 139.55 137.70 138.73 137.67 Z M 137.70 137.64 L 136.67 137.60 C 135.85 137.58 135.16 138.23 135.13 139.05 C 135.11 139.88 135.75 140.57 136.58 140.60 L 137.60 140.63 C 138.43 140.65 139.12 140.01 139.14 139.18 C 139.17 138.35 138.52 137.66 137.70 137.64 Z M 136.68 137.60 L 135.68 137.57 C 134.85 137.54 134.16 138.19 134.13 139.02 C 134.11 139.85 134.76 140.54 135.58 140.57 L 136.58 140.60 C 137.41 140.63 138.10 139.98 138.13 139.15 C 138.15 138.32 137.50 137.63 136.68 137.60 Z M 135.68 137.57 L 134.73 137.53 C 133.90 137.51 133.21 138.15 133.18 138.98 C 133.15 139.81 133.80 140.51 134.63 140.54 L 135.58 140.57 C 136.41 140.60 137.11 139.95 137.13 139.12 C 137.16 138.29 136.51 137.59 135.68 137.57 Z M 134.73 137.53 L 133.70 137.49 C 132.87 137.46 132.17 138.11 132.14 138.94 C 132.11 139.78 132.76 140.47 133.59 140.50 L 134.63 140.54 C 135.46 140.57 136.16 139.92 136.19 139.09 C 136.21 138.26 135.56 137.56 134.73 137.53 Z M 133.70 137.49 L 132.70 137.45 C 131.87 137.42 131.17 138.08 131.14 138.91 C 131.11 139.75 131.76 140.45 132.60 140.47 L 133.59 140.51 C 134.43 140.54 135.13 139.89 135.16 139.05 C 135.19 138.22 134.53 137.52 133.70 137.49 Z M 132.69 137.45 L 131.72 137.42 C 130.88 137.39 130.18 138.05 130.16 138.89 C 130.13 139.73 130.79 140.43 131.63 140.45 L 132.60 140.48 C 133.44 140.51 134.14 139.85 134.17 139.01 C 134.19 138.17 133.53 137.47 132.69 137.45 Z M 131.70 137.41 L 130.74 137.39 C 129.90 137.37 129.20 138.04 129.18 138.88 C 129.17 139.73 129.84 140.42 130.68 140.44 L 131.64 140.46 C 132.48 140.48 133.18 139.81 133.20 138.97 C 133.22 138.12 132.55 137.43 131.70 137.41 Z M 130.72 137.38 L 129.75 137.37 C 128.90 137.37 128.21 138.05 128.21 138.90 C 128.20 139.75 128.88 140.44 129.73 140.44 L 130.70 140.45 C 131.55 140.46 132.24 139.77 132.24 138.93 C 132.25 138.08 131.57 137.39 130.72 137.38 Z M 129.72 137.36 L 128.72 137.37 C 127.87 137.38 127.18 138.08 127.19 138.94 C 127.20 139.79 127.90 140.48 128.76 140.47 L 129.76 140.46 C 130.61 140.45 131.30 139.75 131.29 138.89 C 131.28 138.04 130.58 137.35 129.72 137.36 Z M 128.69 137.36 L 127.65 137.39 C 126.79 137.42 126.12 138.14 126.14 139.01 C 126.17 139.87 126.89 140.54 127.76 140.51 L 128.79 140.48 C 129.66 140.45 130.33 139.73 130.30 138.87 C 130.27 138.01 129.55 137.33 128.69 137.36 Z M 127.61 137.38 L 126.59 137.44 C 125.72 137.49 125.06 138.24 125.11 139.10 C 125.16 139.97 125.90 140.63 126.77 140.58 L 127.79 140.52 C 128.66 140.47 129.32 139.73 129.27 138.86 C 129.22 138.00 128.48 137.33 127.61 137.38 Z M 126.54 137.44 L 125.52 137.53 C 124.65 137.60 124.00 138.37 124.08 139.25 C 124.16 140.12 124.93 140.76 125.80 140.68 L 126.82 140.59 C 127.69 140.51 128.34 139.74 128.26 138.87 C 128.18 138.00 127.41 137.36 126.54 137.44 Z M 125.45 137.52 L 124.45 137.65 C 123.57 137.77 122.96 138.57 123.08 139.45 C 123.19 140.32 123.99 140.94 124.87 140.82 L 125.87 140.69 C 126.74 140.57 127.36 139.77 127.24 138.90 C 127.13 138.02 126.32 137.41 125.45 137.52 Z M 124.35 137.66 L 123.41 137.84 C 122.53 138.01 121.96 138.85 122.13 139.72 C 122.30 140.60 123.14 141.17 124.02 141.00 L 124.96 140.82 C 125.84 140.65 126.41 139.80 126.24 138.93 C 126.07 138.06 125.23 137.49 124.35 137.66 Z M 123.23 137.87 L 122.00 138.25 C 121.15 138.52 120.67 139.42 120.93 140.28 C 121.19 141.13 122.10 141.61 122.95 141.35 L 124.19 140.97 C 125.04 140.70 125.52 139.80 125.26 138.94 C 124.99 138.09 124.09 137.61 123.23 137.87 Z M 121.63 138.42 L 120.85 138.89 C 120.09 139.36 119.84 140.35 120.31 141.12 C 120.77 141.88 121.77 142.13 122.54 141.66 L 123.32 141.18 C 124.08 140.72 124.33 139.72 123.86 138.96 C 123.39 138.19 122.40 137.95 121.63 138.42 Z M 120.08 140.47 L 120.14 140.92 C 120.24 141.80 121.05 142.44 121.94 142.33 C 122.83 142.22 123.47 141.41 123.36 140.52 L 123.30 140.08 C 123.20 139.19 122.39 138.56 121.50 138.67 C 120.61 138.77 119.97 139.58 120.08 140.47 Z M 121.07 142.19 L 121.85 142.54 C 122.66 142.92 123.62 142.56 123.99 141.75 C 124.36 140.94 124.01 139.98 123.20 139.60 L 122.42 139.25 C 121.61 138.88 120.65 139.23 120.28 140.04 C 119.90 140.86 120.26 141.82 121.07 142.19 Z M 122.14 142.64 L 123.32 142.92 C 124.19 143.13 125.06 142.60 125.27 141.74 C 125.48 140.87 124.94 140.00 124.08 139.79 L 122.90 139.51 C 122.03 139.30 121.16 139.83 120.95 140.70 C 120.75 141.56 121.28 142.43 122.14 142.64 Z M 123.44 142.94 L 124.46 143.11 C 125.34 143.25 126.16 142.66 126.31 141.78 C 126.45 140.91 125.85 140.08 124.98 139.94 L 123.96 139.77 C 123.08 139.63 122.26 140.23 122.12 141.10 C 121.97 141.98 122.57 142.80 123.44 142.94 Z M 124.53 143.12 L 125.44 143.23 C 126.32 143.33 127.12 142.70 127.22 141.82 C 127.33 140.94 126.70 140.15 125.82 140.04 L 124.91 139.93 C 124.03 139.83 123.23 140.46 123.13 141.34 C 123.02 142.21 123.65 143.01 124.53 143.12 Z M 125.49 143.23 L 126.47 143.32 C 127.35 143.40 128.13 142.75 128.21 141.87 C 128.29 140.98 127.64 140.21 126.76 140.13 L 125.78 140.04 C 124.89 139.96 124.12 140.61 124.04 141.49 C 123.96 142.37 124.61 143.15 125.49 143.23 Z M 126.50 143.32 L 127.59 143.40 C 128.47 143.46 129.24 142.80 129.30 141.92 C 129.36 141.04 128.70 140.27 127.82 140.20 L 126.73 140.13 C 125.85 140.06 125.08 140.72 125.02 141.61 C 124.95 142.49 125.61 143.25 126.50 143.32 Z M 127.60 143.40 L 128.62 143.47 C 129.50 143.53 130.27 142.86 130.33 141.98 C 130.38 141.09 129.72 140.33 128.83 140.27 L 127.81 140.20 C 126.93 140.15 126.17 140.81 126.11 141.69 C 126.05 142.58 126.71 143.34 127.60 143.40 Z M 128.62 143.47 L 129.60 143.53 C 130.48 143.59 131.24 142.92 131.30 142.04 C 131.36 141.16 130.69 140.39 129.81 140.34 L 128.83 140.27 C 127.95 140.21 127.19 140.88 127.13 141.76 C 127.07 142.65 127.74 143.41 128.62 143.47 Z M 129.60 143.53 L 130.62 143.60 C 131.50 143.66 132.26 142.99 132.32 142.11 C 132.38 141.23 131.71 140.46 130.83 140.40 L 129.81 140.33 C 128.93 140.28 128.16 140.94 128.10 141.83 C 128.05 142.71 128.71 143.47 129.60 143.53 Z M 130.61 143.60 L 131.65 143.68 C 132.53 143.74 133.30 143.07 133.36 142.19 C 133.42 141.30 132.76 140.54 131.87 140.48 L 130.84 140.40 C 129.95 140.34 129.19 141.01 129.12 141.89 C 129.06 142.77 129.73 143.54 130.61 143.60 Z M 131.64 143.68 L 132.66 143.75 C 133.54 143.82 134.31 143.16 134.38 142.27 C 134.45 141.39 133.79 140.62 132.90 140.55 L 131.88 140.47 C 131.00 140.41 130.22 141.07 130.16 141.95 C 130.09 142.84 130.75 143.61 131.64 143.68 Z M 132.65 143.75 L 133.64 143.84 C 134.52 143.91 135.30 143.25 135.37 142.37 C 135.45 141.48 134.79 140.71 133.91 140.63 L 132.91 140.55 C 132.03 140.48 131.25 141.13 131.18 142.02 C 131.10 142.90 131.76 143.68 132.65 143.75 Z M 133.62 143.84 L 134.72 143.94 C 135.61 144.03 136.39 143.38 136.48 142.49 C 136.56 141.61 135.91 140.82 135.03 140.74 L 133.93 140.63 C 133.04 140.55 132.26 141.20 132.17 142.08 C 132.09 142.97 132.74 143.75 133.62 143.84 Z M 134.70 143.94 L 135.72 144.06 C 136.60 144.16 137.40 143.52 137.50 142.63 C 137.60 141.75 136.96 140.95 136.08 140.85 L 135.05 140.74 C 134.17 140.64 133.37 141.28 133.27 142.16 C 133.18 143.05 133.81 143.84 134.70 143.94 Z M 135.69 144.05 L 136.65 144.18 C 137.53 144.30 138.34 143.68 138.46 142.79 C 138.57 141.91 137.95 141.10 137.07 140.98 L 136.11 140.86 C 135.22 140.74 134.41 141.36 134.30 142.24 C 134.18 143.13 134.80 143.94 135.69 144.05 Z M 136.61 144.18 L 137.53 144.32 C 138.41 144.45 139.24 143.85 139.37 142.97 C 139.51 142.09 138.90 141.26 138.02 141.13 L 137.10 140.99 C 136.22 140.85 135.40 141.46 135.26 142.34 C 135.13 143.22 135.73 144.04 136.61 144.18 Z M 137.49 144.31 L 138.44 144.48 C 139.31 144.64 140.15 144.05 140.31 143.17 C 140.47 142.29 139.88 141.45 139.00 141.30 L 138.06 141.13 C 137.18 140.97 136.34 141.56 136.19 142.44 C 136.03 143.32 136.62 144.16 137.49 144.31 Z M 138.39 144.48 L 139.37 144.68 C 140.24 144.86 141.10 144.30 141.28 143.42 C 141.46 142.54 140.90 141.69 140.02 141.51 L 139.05 141.30 C 138.17 141.12 137.31 141.69 137.13 142.56 C 136.95 143.44 137.51 144.30 138.39 144.48 Z M 139.31 144.67 L 140.28 144.91 C 141.15 145.12 142.03 144.59 142.24 143.71 C 142.45 142.84 141.92 141.96 141.05 141.75 L 140.08 141.51 C 139.21 141.30 138.33 141.84 138.12 142.71 C 137.90 143.58 138.44 144.46 139.31 144.67 Z M 140.21 144.89 L 141.17 145.17 C 142.03 145.42 142.94 144.92 143.19 144.06 C 143.44 143.20 142.94 142.29 142.07 142.04 L 141.11 141.76 C 140.25 141.51 139.35 142.01 139.10 142.88 C 138.85 143.74 139.35 144.64 140.21 144.89 Z M 141.09 145.15 L 142.05 145.48 C 142.90 145.77 143.83 145.31 144.12 144.46 C 144.42 143.61 143.96 142.68 143.11 142.39 L 142.15 142.06 C 141.30 141.77 140.37 142.23 140.08 143.08 C 139.79 143.93 140.24 144.86 141.09 145.15 Z M 141.97 145.45 L 142.91 145.83 C 143.75 146.17 144.71 145.77 145.04 144.93 C 145.38 144.09 144.98 143.13 144.14 142.79 L 143.19 142.41 C 142.35 142.07 141.40 142.48 141.06 143.32 C 140.72 144.16 141.13 145.12 141.97 145.45 Z M 142.81 145.80 L 143.72 146.24 C 144.54 146.63 145.53 146.29 145.92 145.47 C 146.32 144.65 145.97 143.66 145.15 143.27 L 144.24 142.83 C 143.42 142.43 142.43 142.78 142.04 143.60 C 141.64 144.42 141.99 145.40 142.81 145.80 Z M 143.60 146.18 L 144.46 146.68 C 145.25 147.15 146.26 146.88 146.72 146.09 C 147.18 145.30 146.92 144.28 146.13 143.82 L 145.27 143.32 C 144.48 142.86 143.47 143.13 143.00 143.92 C 142.54 144.71 142.81 145.72 143.60 146.18 Z M 144.31 146.60 L 145.10 147.18 C 145.85 147.72 146.89 147.56 147.43 146.82 C 147.98 146.08 147.81 145.03 147.07 144.49 L 146.28 143.91 C 145.53 143.36 144.49 143.53 143.95 144.27 C 143.40 145.01 143.57 146.05 144.31 146.60 Z M 144.93 147.05 L 145.70 147.77 C 146.37 148.41 147.43 148.39 148.06 147.72 C 148.70 147.05 148.68 145.99 148.01 145.35 L 147.24 144.62 C 146.57 143.99 145.51 144.01 144.88 144.68 C 144.24 145.35 144.26 146.41 144.93 147.05 Z M 145.53 147.60 L 146.15 148.39 C 146.72 149.12 147.78 149.25 148.51 148.68 C 149.24 148.11 149.37 147.05 148.80 146.32 L 148.17 145.53 C 147.60 144.80 146.55 144.67 145.82 145.24 C 145.08 145.81 144.96 146.87 145.53 147.60 Z M 146.00 148.18 L 146.47 149.01 C 146.92 149.83 147.95 150.12 148.76 149.66 C 149.58 149.21 149.87 148.18 149.41 147.37 L 148.95 146.53 C 148.49 145.72 147.46 145.43 146.65 145.88 C 145.83 146.34 145.54 147.37 146.00 148.18 Z M 146.34 148.75 L 146.65 149.63 C 146.96 150.51 147.92 150.98 148.80 150.67 C 149.69 150.36 150.15 149.40 149.85 148.51 L 149.54 147.63 C 149.23 146.75 148.26 146.28 147.38 146.59 C 146.50 146.90 146.03 147.86 146.34 148.75 Z M 146.56 149.28 L 146.68 150.21 C 146.79 151.14 147.64 151.80 148.57 151.69 C 149.50 151.57 150.16 150.72 150.05 149.79 L 149.93 148.86 C 149.82 147.93 148.97 147.27 148.04 147.39 C 147.11 147.50 146.45 148.35 146.56 149.28 Z M 146.67 149.81 L 146.56 150.80 C 146.46 151.73 147.13 152.57 148.06 152.67 C 149.00 152.78 149.84 152.11 149.94 151.17 L 150.05 150.19 C 150.16 149.26 149.48 148.42 148.55 148.31 C 147.62 148.21 146.78 148.88 146.67 149.81 Z M 146.64 150.44 L 146.29 151.47 C 146.00 152.37 146.48 153.33 147.37 153.63 C 148.26 153.93 149.22 153.45 149.52 152.56 L 149.87 151.53 C 150.16 150.63 149.68 149.67 148.79 149.37 C 147.90 149.07 146.94 149.55 146.64 150.44 Z M 146.39 151.25 L 145.96 152.09 C 145.54 152.93 145.88 153.96 146.72 154.38 C 147.56 154.80 148.58 154.46 149.00 153.62 L 149.43 152.78 C 149.85 151.94 149.51 150.92 148.67 150.49 C 147.83 150.07 146.81 150.41 146.39 151.25 Z M 146.03 151.97 L 145.50 152.83 C 145.01 153.64 145.26 154.68 146.07 155.17 C 146.87 155.67 147.92 155.41 148.41 154.61 L 148.94 153.75 C 149.43 152.94 149.17 151.90 148.37 151.41 C 147.57 150.91 146.52 151.17 146.03 151.97 Z M 145.56 152.75 L 144.96 153.61 C 144.43 154.38 144.62 155.44 145.39 155.98 C 146.17 156.51 147.23 156.32 147.76 155.55 L 148.35 154.69 C 148.89 153.92 148.70 152.86 147.92 152.32 C 147.15 151.79 146.09 151.98 145.56 152.75 Z M 145.00 153.55 L 144.39 154.37 C 143.82 155.12 143.97 156.18 144.72 156.75 C 145.47 157.32 146.54 157.17 147.10 156.42 L 147.72 155.60 C 148.29 154.85 148.14 153.79 147.39 153.22 C 146.64 152.65 145.57 152.80 145.00 153.55 Z M 144.42 154.32 L 143.76 155.14 C 143.17 155.87 143.29 156.94 144.02 157.53 C 144.75 158.12 145.82 158.01 146.41 157.28 L 147.07 156.46 C 147.66 155.73 147.55 154.66 146.82 154.07 C 146.08 153.48 145.01 153.59 144.42 154.32 Z M 143.80 155.10 L 143.12 155.89 C 142.50 156.60 142.58 157.68 143.30 158.29 C 144.01 158.90 145.09 158.82 145.70 158.11 L 146.38 157.32 C 146.99 156.60 146.91 155.53 146.20 154.92 C 145.48 154.30 144.41 154.38 143.80 155.10 Z M 143.15 155.85 L 142.49 156.58 C 141.86 157.27 141.91 158.35 142.61 158.98 C 143.31 159.61 144.38 159.56 145.02 158.86 L 145.67 158.14 C 146.30 157.45 146.25 156.37 145.55 155.74 C 144.85 155.11 143.78 155.16 143.15 155.85 Z M 142.51 156.55 L 141.87 157.24 C 141.22 157.93 141.26 159.01 141.94 159.65 C 142.63 160.29 143.71 160.26 144.35 159.57 L 145.00 158.89 C 145.64 158.20 145.60 157.12 144.92 156.48 C 144.23 155.83 143.16 155.87 142.51 156.55 Z M 141.87 157.23 L 141.21 157.93 C 140.56 158.61 140.59 159.69 141.27 160.34 C 141.95 160.99 143.03 160.96 143.68 160.28 L 144.34 159.58 C 144.99 158.90 144.96 157.82 144.28 157.17 C 143.60 156.53 142.52 156.55 141.87 157.23 Z M 141.22 157.92 L 140.53 158.64 C 139.88 159.31 139.90 160.39 140.58 161.04 C 141.26 161.70 142.33 161.68 142.99 161.00 L 143.67 160.29 C 144.32 159.61 144.30 158.53 143.63 157.88 C 142.95 157.23 141.87 157.25 141.22 157.92 Z M 140.55 158.62 L 139.84 159.33 C 139.18 160.00 139.18 161.08 139.85 161.74 C 140.52 162.40 141.60 162.40 142.26 161.73 L 142.97 161.02 C 143.63 160.35 143.62 159.27 142.96 158.61 C 142.29 157.95 141.21 157.95 140.55 158.62 Z M 139.87 159.31 L 139.13 160.02 C 138.46 160.67 138.44 161.75 139.09 162.42 C 139.75 163.10 140.82 163.12 141.50 162.47 L 142.23 161.76 C 142.91 161.10 142.93 160.03 142.28 159.35 C 141.62 158.67 140.54 158.65 139.87 159.31 Z M 139.17 159.98 L 138.44 160.65 C 137.74 161.28 137.69 162.36 138.32 163.06 C 138.96 163.75 140.03 163.80 140.73 163.17 L 141.46 162.50 C 142.16 161.87 142.21 160.79 141.58 160.09 C 140.94 159.40 139.87 159.35 139.17 159.98 Z M 138.47 160.62 L 137.72 161.27 C 137.01 161.88 136.93 162.96 137.54 163.67 C 138.15 164.38 139.23 164.46 139.94 163.85 L 140.69 163.20 C 141.41 162.58 141.49 161.51 140.87 160.80 C 140.26 160.09 139.18 160.01 138.47 160.62 Z M 137.75 161.24 L 136.97 161.88 C 136.25 162.48 136.14 163.55 136.74 164.28 C 137.34 165.00 138.41 165.11 139.14 164.51 L 139.91 163.87 C 140.64 163.28 140.74 162.20 140.14 161.48 C 139.55 160.75 138.48 160.65 137.75 161.24 Z M 137.00 161.86 L 136.21 162.49 C 135.47 163.07 135.34 164.14 135.92 164.87 C 136.51 165.61 137.58 165.74 138.31 165.16 L 139.11 164.53 C 139.85 163.95 139.97 162.88 139.39 162.14 C 138.81 161.41 137.74 161.28 137.00 161.86 Z M 136.23 162.47 L 135.44 163.07 C 134.69 163.64 134.55 164.70 135.12 165.45 C 135.69 166.20 136.75 166.34 137.50 165.78 L 138.29 165.18 C 139.04 164.61 139.18 163.54 138.61 162.79 C 138.05 162.04 136.98 161.90 136.23 162.47 Z M 135.46 163.06 L 134.66 163.65 C 133.91 164.21 133.75 165.27 134.31 166.02 C 134.86 166.78 135.93 166.94 136.68 166.38 L 137.48 165.79 C 138.24 165.23 138.40 164.17 137.84 163.41 C 137.28 162.66 136.22 162.50 135.46 163.06 Z M 134.68 163.64 L 133.86 164.22 C 133.10 164.77 132.93 165.84 133.48 166.60 C 134.03 167.36 135.09 167.53 135.86 166.98 L 136.67 166.39 C 137.43 165.84 137.60 164.78 137.05 164.02 C 136.50 163.26 135.44 163.09 134.68 163.64 Z M 133.87 164.22 L 133.05 164.80 C 132.29 165.35 132.11 166.41 132.65 167.17 C 133.20 167.94 134.26 168.12 135.02 167.57 L 135.84 166.99 C 136.61 166.44 136.79 165.38 136.24 164.62 C 135.70 163.85 134.64 163.67 133.87 164.22 Z M 133.06 164.80 L 132.24 165.38 C 131.47 165.92 131.29 166.98 131.83 167.74 C 132.36 168.51 133.42 168.69 134.19 168.15 L 135.01 167.58 C 135.78 167.04 135.96 165.98 135.43 165.21 C 134.89 164.44 133.83 164.26 133.06 164.80 Z M 132.24 165.37 L 131.42 165.95 C 130.65 166.48 130.46 167.54 131.00 168.31 C 131.53 169.08 132.59 169.27 133.36 168.73 L 134.18 168.16 C 134.95 167.62 135.14 166.57 134.61 165.80 C 134.07 165.03 133.01 164.84 132.24 165.37 Z M 131.43 165.94 L 130.60 166.51 C 129.83 167.04 129.63 168.09 130.16 168.87 C 130.69 169.64 131.75 169.84 132.52 169.31 L 133.35 168.74 C 134.12 168.21 134.32 167.15 133.79 166.38 C 133.26 165.61 132.20 165.41 131.43 165.94 Z M 130.61 166.50 L 129.79 167.06 C 129.01 167.58 128.81 168.64 129.34 169.41 C 129.86 170.19 130.91 170.39 131.69 169.87 L 132.51 169.31 C 133.29 168.79 133.49 167.73 132.97 166.96 C 132.44 166.18 131.39 165.98 130.61 166.50 Z M 129.80 167.05 L 128.96 167.61 C 128.18 168.13 127.97 169.18 128.49 169.96 C 129.00 170.74 130.06 170.95 130.84 170.43 L 131.68 169.87 C 132.46 169.36 132.67 168.31 132.15 167.53 C 131.63 166.75 130.58 166.54 129.80 167.05 Z M 128.98 167.60 L 128.13 168.15 C 127.35 168.66 127.13 169.71 127.64 170.49 C 128.15 171.28 129.20 171.50 129.98 170.99 L 130.82 170.44 C 131.61 169.93 131.83 168.88 131.32 168.10 C 130.81 167.32 129.76 167.09 128.98 167.60 Z M 128.14 168.15 L 127.31 168.68 C 126.52 169.19 126.29 170.23 126.79 171.02 C 127.29 171.81 128.34 172.04 129.13 171.53 L 129.97 171.00 C 130.75 170.49 130.98 169.45 130.48 168.66 C 129.98 167.87 128.93 167.64 128.14 168.15 Z M 127.32 168.68 L 126.48 169.20 C 125.69 169.70 125.45 170.74 125.95 171.53 C 126.44 172.32 127.49 172.56 128.28 172.06 L 129.11 171.54 C 129.90 171.04 130.14 170.00 129.65 169.21 C 129.15 168.42 128.11 168.18 127.32 168.68 Z M 126.49 169.20 L 125.65 169.72 C 124.85 170.21 124.61 171.25 125.10 172.04 C 125.59 172.83 126.63 173.08 127.42 172.59 L 128.27 172.07 C 129.06 171.58 129.31 170.54 128.82 169.75 C 128.33 168.95 127.29 168.71 126.49 169.20 Z M 125.66 169.71 L 124.81 170.23 C 124.01 170.71 123.76 171.75 124.24 172.54 C 124.73 173.34 125.76 173.59 126.56 173.11 L 127.41 172.60 C 128.21 172.11 128.46 171.08 127.98 170.28 C 127.49 169.48 126.46 169.23 125.66 169.71 Z M 124.82 170.22 L 123.96 170.73 C 123.16 171.21 122.90 172.24 123.38 173.04 C 123.86 173.84 124.89 174.10 125.69 173.63 L 126.55 173.12 C 127.35 172.64 127.61 171.61 127.13 170.81 C 126.66 170.01 125.62 169.75 124.82 170.22 Z M 123.98 170.73 L 123.11 171.24 C 122.30 171.71 122.03 172.74 122.50 173.54 C 122.97 174.34 124.00 174.61 124.81 174.14 L 125.68 173.63 C 126.48 173.17 126.75 172.13 126.28 171.33 C 125.81 170.53 124.78 170.26 123.98 170.73 Z M 123.12 171.23 L 122.31 171.70 C 121.50 172.16 121.22 173.19 121.68 173.99 C 122.14 174.80 123.17 175.08 123.98 174.62 L 124.79 174.15 C 125.60 173.69 125.88 172.66 125.42 171.85 C 124.95 171.05 123.93 170.77 123.12 171.23 Z M 122.32 171.69 L 121.49 172.15 C 120.68 172.60 120.39 173.63 120.84 174.44 C 121.30 175.25 122.32 175.54 123.13 175.09 L 123.96 174.62 C 124.77 174.17 125.06 173.15 124.61 172.34 C 124.16 171.53 123.13 171.24 122.32 171.69 Z M 121.52 172.14 L 120.64 172.61 C 119.82 173.05 119.52 174.07 119.96 174.89 C 120.40 175.70 121.41 176.01 122.23 175.57 L 123.11 175.10 C 123.92 174.66 124.23 173.64 123.79 172.82 C 123.35 172.01 122.33 171.70 121.52 172.14 Z M 120.67 172.60 L 119.72 173.09 C 118.90 173.51 118.58 174.52 119.00 175.34 C 119.43 176.17 120.44 176.49 121.26 176.07 L 122.20 175.58 C 123.03 175.16 123.35 174.15 122.93 173.32 C 122.50 172.50 121.49 172.18 120.67 172.60 Z M 119.75 173.07 L 118.82 173.53 C 117.99 173.94 117.65 174.95 118.06 175.78 C 118.47 176.61 119.47 176.95 120.30 176.54 L 121.23 176.08 C 122.06 175.67 122.40 174.66 122.00 173.83 C 121.59 173.00 120.58 172.66 119.75 173.07 Z M 118.85 173.52 L 117.95 173.95 C 117.11 174.34 116.75 175.34 117.15 176.18 C 117.54 177.01 118.54 177.37 119.38 176.97 L 120.28 176.55 C 121.11 176.15 121.47 175.15 121.08 174.32 C 120.68 173.48 119.68 173.13 118.85 173.52 Z M 117.97 173.94 L 117.04 174.36 C 116.20 174.74 115.83 175.73 116.21 176.57 C 116.59 177.41 117.58 177.79 118.42 177.41 L 119.35 176.98 C 120.19 176.60 120.57 175.61 120.19 174.77 C 119.80 173.93 118.81 173.56 117.97 173.94 Z M 117.07 174.35 L 116.13 174.75 C 115.28 175.12 114.89 176.10 115.26 176.95 C 115.62 177.80 116.61 178.19 117.45 177.82 L 118.39 177.42 C 119.24 177.05 119.63 176.07 119.27 175.22 C 118.90 174.37 117.92 173.98 117.07 174.35 Z M 116.16 174.74 L 115.23 175.12 C 114.38 175.47 113.97 176.44 114.32 177.30 C 114.66 178.15 115.64 178.56 116.49 178.21 L 117.42 177.84 C 118.28 177.49 118.69 176.51 118.34 175.66 C 117.99 174.80 117.01 174.39 116.16 174.74 Z M 115.27 175.11 L 114.33 175.46 C 113.47 175.79 113.03 176.75 113.36 177.61 C 113.68 178.48 114.64 178.91 115.51 178.59 L 116.45 178.23 C 117.31 177.90 117.75 176.94 117.42 176.08 C 117.10 175.22 116.14 174.78 115.27 175.11 Z M 114.39 175.44 L 113.38 175.78 C 112.50 176.07 112.03 177.01 112.32 177.89 C 112.61 178.76 113.56 179.23 114.43 178.94 L 115.44 178.61 C 116.32 178.31 116.79 177.37 116.50 176.50 C 116.21 175.62 115.26 175.15 114.39 175.44 Z M 113.47 175.75 L 112.50 176.01 C 111.61 176.26 111.09 177.17 111.33 178.06 C 111.57 178.95 112.48 179.47 113.37 179.23 L 114.34 178.97 C 115.23 178.73 115.75 177.81 115.51 176.93 C 115.27 176.04 114.36 175.51 113.47 175.75 Z M 112.62 175.99 L 111.68 176.17 C 110.78 176.34 110.19 177.22 110.36 178.12 C 110.54 179.02 111.41 179.61 112.31 179.44 L 113.25 179.26 C 114.15 179.08 114.74 178.21 114.57 177.31 C 114.40 176.41 113.53 175.82 112.62 175.99 Z M 111.83 176.15 L 110.89 176.25 C 109.98 176.34 109.31 177.16 109.41 178.07 C 109.50 178.98 110.32 179.65 111.23 179.55 L 112.17 179.46 C 113.08 179.36 113.74 178.55 113.65 177.63 C 113.55 176.72 112.74 176.06 111.83 176.15 Z M 111.07 176.24 L 109.75 176.23 C 108.83 176.22 108.08 176.96 108.07 177.88 C 108.07 178.79 108.80 179.54 109.72 179.55 L 111.05 179.56 C 111.96 179.57 112.71 178.83 112.72 177.91 C 112.73 177.00 111.99 176.25 111.07 176.24 Z M 109.96 176.25 L 108.87 176.10 C 107.97 175.98 107.13 176.61 107.01 177.51 C 106.88 178.42 107.52 179.25 108.42 179.38 L 109.51 179.53 C 110.41 179.65 111.25 179.02 111.37 178.12 C 111.50 177.21 110.86 176.38 109.96 176.25 Z M 109.36 176.25 L 108.88 176.02 C 108.06 175.63 107.07 175.98 106.68 176.80 C 106.29 177.63 106.64 178.61 107.46 179.00 L 107.94 179.23 C 108.76 179.62 109.75 179.27 110.14 178.45 C 110.53 177.63 110.18 176.64 109.36 176.25 Z M 109.08 178.91 L 109.49 178.64 C 110.26 178.14 110.47 177.11 109.97 176.34 C 109.47 175.57 108.44 175.35 107.67 175.85 L 107.26 176.12 C 106.49 176.62 106.28 177.65 106.78 178.42 C 107.28 179.19 108.31 179.41 109.08 178.91 Z M 108.94 178.90 L 110.04 178.66 C 110.95 178.46 111.53 177.55 111.33 176.64 C 111.13 175.73 110.22 175.15 109.31 175.35 L 108.22 175.59 C 107.30 175.79 106.73 176.70 106.93 177.61 C 107.13 178.52 108.03 179.10 108.94 178.90 Z M 109.89 178.71 L 111.16 178.55 C 112.10 178.43 112.76 177.57 112.64 176.63 C 112.52 175.69 111.66 175.02 110.72 175.14 L 109.46 175.30 C 108.52 175.42 107.85 176.28 107.97 177.22 C 108.09 178.16 108.95 178.83 109.89 178.71 Z M 111.05 178.58 L 112.02 178.51 C 112.97 178.46 113.70 177.63 113.64 176.68 C 113.58 175.72 112.76 174.99 111.80 175.05 L 110.83 175.11 C 109.88 175.17 109.15 176.00 109.21 176.95 C 109.27 177.91 110.09 178.64 111.05 178.58 Z M 111.90 178.53 L 112.88 178.53 C 113.84 178.54 114.62 177.76 114.63 176.80 C 114.63 175.83 113.85 175.05 112.89 175.05 L 111.92 175.04 C 110.95 175.04 110.17 175.81 110.17 176.78 C 110.16 177.74 110.94 178.52 111.90 178.53 Z M 112.75 178.53 L 113.76 178.61 C 114.72 178.69 115.56 177.97 115.64 177.00 C 115.72 176.04 115.00 175.20 114.03 175.12 L 113.02 175.04 C 112.06 174.97 111.22 175.69 111.14 176.65 C 111.06 177.62 111.78 178.46 112.75 178.53 Z M 113.64 178.60 L 114.66 178.76 C 115.62 178.90 116.51 178.24 116.65 177.28 C 116.80 176.32 116.13 175.43 115.17 175.28 L 114.16 175.13 C 113.20 174.99 112.30 175.65 112.16 176.61 C 112.02 177.57 112.68 178.46 113.64 178.60 Z M 114.56 178.75 L 115.54 178.95 C 116.50 179.14 117.43 178.53 117.63 177.58 C 117.82 176.62 117.21 175.69 116.25 175.50 L 115.27 175.29 C 114.32 175.10 113.39 175.71 113.19 176.66 C 112.99 177.62 113.61 178.55 114.56 178.75 Z M 115.48 178.94 L 116.48 179.18 C 117.43 179.42 118.38 178.84 118.61 177.89 C 118.85 176.94 118.27 175.98 117.32 175.75 L 116.32 175.51 C 115.37 175.27 114.42 175.85 114.18 176.80 C 113.95 177.75 114.53 178.71 115.48 178.94 Z M 116.43 179.18 L 117.41 179.45 C 118.35 179.70 119.33 179.15 119.59 178.20 C 119.85 177.26 119.29 176.29 118.35 176.03 L 117.37 175.76 C 116.42 175.50 115.45 176.05 115.19 177.00 C 114.93 177.94 115.48 178.92 116.43 179.18 Z M 117.37 179.44 L 118.30 179.71 C 119.24 179.99 120.23 179.46 120.51 178.51 C 120.79 177.57 120.25 176.58 119.31 176.30 L 118.38 176.03 C 117.44 175.75 116.45 176.29 116.17 177.23 C 115.89 178.17 116.43 179.16 117.37 179.44 Z M 118.27 179.71 L 119.30 180.03 C 120.24 180.33 121.24 179.80 121.53 178.87 C 121.83 177.93 121.31 176.93 120.37 176.63 L 119.33 176.31 C 118.40 176.01 117.40 176.54 117.10 177.48 C 116.81 178.42 117.33 179.42 118.27 179.71 Z M 119.28 180.03 L 120.22 180.34 C 121.16 180.65 122.17 180.13 122.48 179.20 C 122.78 178.26 122.27 177.25 121.33 176.95 L 120.39 176.64 C 119.45 176.33 118.44 176.84 118.14 177.78 C 117.83 178.72 118.34 179.72 119.28 180.03 Z M 120.22 180.34 L 121.12 180.64 C 122.06 180.95 123.07 180.44 123.38 179.51 C 123.69 178.57 123.18 177.56 122.25 177.24 L 121.34 176.94 C 120.41 176.63 119.39 177.14 119.08 178.08 C 118.77 179.02 119.28 180.03 120.22 180.34 Z M 121.13 180.64 L 122.03 180.94 C 122.97 181.25 123.98 180.74 124.29 179.80 C 124.60 178.86 124.09 177.84 123.15 177.54 L 122.24 177.24 C 121.30 176.93 120.29 177.44 119.98 178.38 C 119.67 179.33 120.19 180.34 121.13 180.64 Z M 122.04 180.95 L 122.97 181.25 C 123.91 181.55 124.93 181.03 125.23 180.09 C 125.53 179.14 125.01 178.13 124.07 177.83 L 123.14 177.53 C 122.19 177.23 121.18 177.75 120.88 178.69 C 120.58 179.63 121.10 180.64 122.04 180.95 Z M 122.96 181.25 L 123.92 181.56 C 124.86 181.87 125.88 181.35 126.18 180.41 C 126.49 179.47 125.98 178.45 125.03 178.14 L 124.08 177.83 C 123.14 177.52 122.12 178.04 121.81 178.98 C 121.50 179.92 122.02 180.94 122.96 181.25 Z M 123.89 181.56 L 124.86 181.89 C 125.80 182.21 126.83 181.71 127.15 180.77 C 127.47 179.83 126.97 178.80 126.03 178.48 L 125.06 178.15 C 124.12 177.82 123.09 178.32 122.77 179.27 C 122.45 180.21 122.95 181.23 123.89 181.56 Z M 124.83 181.88 L 125.73 182.21 C 126.67 182.55 127.71 182.07 128.05 181.14 C 128.39 180.20 127.91 179.16 126.97 178.82 L 126.07 178.49 C 125.13 178.15 124.09 178.63 123.75 179.56 C 123.41 180.50 123.89 181.54 124.83 181.88 Z M 125.71 182.20 L 126.62 182.55 C 127.55 182.91 128.60 182.44 128.95 181.51 C 129.31 180.58 128.84 179.53 127.91 179.18 L 127.00 178.83 C 126.07 178.47 125.02 178.94 124.67 179.87 C 124.31 180.80 124.78 181.85 125.71 182.20 Z M 126.61 182.55 L 127.55 182.92 C 128.48 183.28 129.53 182.82 129.89 181.89 C 130.25 180.96 129.79 179.91 128.86 179.54 L 127.92 179.18 C 126.99 178.81 125.94 179.27 125.58 180.21 C 125.21 181.14 125.68 182.19 126.61 182.55 Z M 127.55 182.92 L 128.53 183.30 C 129.46 183.66 130.51 183.20 130.87 182.27 C 131.23 181.33 130.77 180.28 129.84 179.92 L 128.86 179.54 C 127.93 179.18 126.88 179.64 126.51 180.57 C 126.15 181.51 126.61 182.56 127.55 182.92 Z M 128.54 183.31 L 129.44 183.65 C 130.38 184.01 131.43 183.54 131.79 182.60 C 132.14 181.66 131.67 180.62 130.73 180.26 L 129.83 179.91 C 128.89 179.56 127.84 180.03 127.48 180.96 C 127.13 181.90 127.60 182.95 128.54 183.31 Z M 129.45 183.66 L 130.37 184.00 C 131.31 184.36 132.36 183.88 132.71 182.94 C 133.07 182.00 132.59 180.96 131.65 180.60 L 130.73 180.25 C 129.79 179.90 128.74 180.38 128.39 181.32 C 128.03 182.25 128.51 183.30 129.45 183.66 Z M 130.37 184.01 L 131.31 184.36 C 132.25 184.72 133.30 184.24 133.66 183.30 C 134.02 182.36 133.54 181.31 132.60 180.96 L 131.66 180.60 C 130.72 180.25 129.67 180.72 129.31 181.66 C 128.96 182.60 129.43 183.65 130.37 184.01 Z M 131.30 184.36 L 132.26 184.73 C 133.20 185.09 134.25 184.62 134.61 183.68 C 134.97 182.75 134.51 181.69 133.57 181.33 L 132.61 180.96 C 131.67 180.60 130.62 181.07 130.26 182.01 C 129.90 182.94 130.36 184.00 131.30 184.36 Z M 132.24 184.72 L 133.18 185.10 C 134.12 185.47 135.18 185.01 135.55 184.08 C 135.92 183.14 135.46 182.08 134.53 181.71 L 133.59 181.33 C 132.65 180.96 131.59 181.42 131.22 182.35 C 130.85 183.29 131.30 184.35 132.24 184.72 Z M 133.16 185.09 L 134.08 185.47 C 135.01 185.85 136.08 185.41 136.46 184.48 C 136.84 183.55 136.40 182.48 135.47 182.09 L 134.55 181.72 C 133.62 181.33 132.55 181.78 132.17 182.71 C 131.78 183.64 132.23 184.71 133.16 185.09 Z M 134.06 185.47 L 134.98 185.85 C 135.91 186.25 136.98 185.81 137.37 184.88 C 137.77 183.95 137.33 182.88 136.40 182.48 L 135.48 182.10 C 134.55 181.71 133.48 182.14 133.09 183.07 C 132.70 184.00 133.13 185.07 134.06 185.47 Z M 134.97 185.85 L 135.89 186.24 C 136.82 186.64 137.90 186.21 138.29 185.28 C 138.69 184.35 138.26 183.28 137.33 182.88 L 136.41 182.49 C 135.48 182.09 134.40 182.52 134.01 183.45 C 133.61 184.38 134.04 185.46 134.97 185.85 Z M 135.89 186.25 L 136.82 186.64 C 137.75 187.04 138.83 186.61 139.22 185.68 C 139.62 184.75 139.19 183.67 138.26 183.27 L 137.33 182.88 C 136.40 182.48 135.32 182.91 134.93 183.84 C 134.53 184.77 134.96 185.85 135.89 186.25 Z M 136.82 186.65 L 137.73 187.03 C 138.67 187.43 139.74 186.99 140.14 186.06 C 140.53 185.13 140.10 184.05 139.16 183.66 L 138.25 183.27 C 137.32 182.88 136.24 183.31 135.85 184.24 C 135.46 185.18 135.89 186.25 136.82 186.65 Z M 137.74 187.03 L 138.65 187.42 C 139.58 187.81 140.66 187.37 141.05 186.44 C 141.44 185.50 141.00 184.43 140.07 184.04 L 139.16 183.65 C 138.23 183.26 137.15 183.70 136.76 184.63 C 136.37 185.57 136.80 186.64 137.74 187.03 Z M 138.65 187.42 L 139.57 187.80 C 140.50 188.20 141.58 187.76 141.97 186.82 C 142.36 185.89 141.93 184.81 140.99 184.42 L 140.07 184.04 C 139.14 183.64 138.06 184.08 137.67 185.02 C 137.28 185.95 137.71 187.02 138.65 187.42 Z M 139.56 187.80 L 140.49 188.20 C 141.43 188.59 142.50 188.16 142.90 187.22 C 143.29 186.29 142.86 185.21 141.92 184.82 L 141.00 184.42 C 140.06 184.03 138.99 184.46 138.59 185.40 C 138.19 186.33 138.63 187.41 139.56 187.80 Z M 140.48 188.19 L 141.42 188.59 C 142.35 188.99 143.43 188.56 143.83 187.63 C 144.23 186.70 143.80 185.62 142.87 185.22 L 141.93 184.82 C 141.00 184.42 139.92 184.85 139.52 185.78 C 139.12 186.71 139.55 187.79 140.48 188.19 Z M 141.41 188.59 L 142.32 188.99 C 143.24 189.39 144.33 188.97 144.73 188.04 C 145.14 187.11 144.72 186.03 143.79 185.62 L 142.88 185.23 C 141.95 184.82 140.87 185.24 140.46 186.17 C 140.05 187.10 140.48 188.18 141.41 188.59 Z M 142.30 188.98 L 143.21 189.39 C 144.14 189.80 145.22 189.39 145.64 188.46 C 146.05 187.53 145.63 186.45 144.71 186.03 L 143.80 185.63 C 142.87 185.21 141.79 185.63 141.37 186.56 C 140.96 187.48 141.38 188.57 142.30 188.98 Z M 143.20 189.38 L 144.11 189.80 C 145.03 190.22 146.12 189.81 146.54 188.88 C 146.96 187.96 146.55 186.87 145.63 186.45 L 144.72 186.04 C 143.79 185.62 142.71 186.03 142.29 186.95 C 141.87 187.88 142.28 188.96 143.20 189.38 Z M 144.10 189.79 L 145.01 190.21 C 145.94 190.64 147.03 190.24 147.45 189.31 C 147.88 188.39 147.47 187.30 146.55 186.88 L 145.64 186.46 C 144.72 186.03 143.63 186.43 143.20 187.36 C 142.78 188.28 143.18 189.37 144.10 189.79 Z M 145.01 190.21 L 145.92 190.64 C 146.84 191.07 147.93 190.67 148.36 189.75 C 148.79 188.83 148.40 187.74 147.48 187.31 L 146.56 186.88 C 145.64 186.45 144.55 186.85 144.12 187.77 C 143.69 188.69 144.09 189.78 145.01 190.21 Z M 145.91 190.63 L 146.81 191.06 C 147.73 191.49 148.83 191.10 149.26 190.18 C 149.69 189.27 149.30 188.17 148.38 187.74 L 147.48 187.31 C 146.57 186.88 145.47 187.27 145.04 188.19 C 144.60 189.10 145.00 190.20 145.91 190.63 Z M 146.81 191.06 L 147.71 191.48 C 148.62 191.92 149.72 191.53 150.15 190.61 C 150.59 189.70 150.20 188.60 149.28 188.17 L 148.39 187.74 C 147.47 187.30 146.37 187.69 145.94 188.61 C 145.50 189.52 145.89 190.62 146.81 191.06 Z M 147.71 191.48 L 148.61 191.91 C 149.52 192.35 150.62 191.96 151.06 191.04 C 151.49 190.13 151.10 189.03 150.19 188.59 L 149.28 188.17 C 148.37 187.73 147.27 188.12 146.84 189.04 C 146.40 189.95 146.79 191.05 147.71 191.48 Z M 148.61 191.91 L 149.52 192.34 C 150.44 192.78 151.53 192.38 151.96 191.47 C 152.40 190.55 152.00 189.45 151.09 189.02 L 150.18 188.59 C 149.26 188.16 148.17 188.55 147.74 189.47 C 147.30 190.39 147.69 191.48 148.61 191.91 Z M 149.53 192.35 L 150.44 192.77 C 151.36 193.20 152.45 192.80 152.88 191.88 C 153.31 190.96 152.91 189.87 151.99 189.44 L 151.08 189.02 C 150.16 188.59 149.07 188.99 148.64 189.91 C 148.21 190.83 148.61 191.92 149.53 192.35 Z M 150.45 192.78 L 151.35 193.19 C 152.27 193.61 153.36 193.20 153.78 192.28 C 154.20 191.36 153.80 190.27 152.88 189.85 L 151.98 189.44 C 151.06 189.02 149.97 189.42 149.55 190.34 C 149.13 191.27 149.53 192.36 150.45 192.78 Z M 151.36 193.19 L 152.26 193.59 C 153.18 194.01 154.27 193.59 154.68 192.67 C 155.09 191.74 154.68 190.66 153.76 190.24 L 152.86 189.84 C 151.94 189.43 150.85 189.84 150.44 190.77 C 150.02 191.69 150.44 192.78 151.36 193.19 Z M 152.27 193.60 L 153.17 193.99 C 154.10 194.40 155.18 193.98 155.59 193.05 C 156.00 192.12 155.58 191.04 154.65 190.63 L 153.74 190.24 C 152.82 189.83 151.73 190.25 151.33 191.18 C 150.92 192.11 151.34 193.19 152.27 193.60 Z M 153.18 194.00 L 154.10 194.40 C 155.03 194.80 156.11 194.37 156.51 193.44 C 156.92 192.51 156.49 191.43 155.56 191.03 L 154.64 190.63 C 153.71 190.23 152.63 190.66 152.23 191.59 C 151.82 192.52 152.25 193.60 153.18 194.00 Z M 154.11 194.40 L 155.05 194.80 C 155.98 195.19 157.06 194.76 157.46 193.83 C 157.85 192.90 157.42 191.82 156.49 191.42 L 155.55 191.02 C 154.62 190.63 153.54 191.06 153.14 191.99 C 152.75 192.93 153.18 194.00 154.11 194.40 Z M 155.06 194.80 L 156.01 195.20 C 156.94 195.59 158.02 195.15 158.41 194.22 C 158.80 193.28 158.36 192.21 157.43 191.82 L 156.48 191.42 C 155.54 191.03 154.47 191.47 154.08 192.40 C 153.69 193.34 154.13 194.41 155.06 194.80 Z M 156.02 195.20 L 156.94 195.58 C 157.88 195.97 158.95 195.53 159.34 194.59 C 159.72 193.66 159.28 192.59 158.34 192.20 L 157.42 191.82 C 156.48 191.43 155.41 191.87 155.03 192.81 C 154.64 193.74 155.08 194.81 156.02 195.20 Z M 156.95 195.59 L 157.89 195.97 C 158.82 196.35 159.89 195.90 160.27 194.97 C 160.66 194.03 160.21 192.96 159.27 192.58 L 158.33 192.20 C 157.40 191.82 156.33 192.26 155.95 193.20 C 155.57 194.14 156.02 195.20 156.95 195.59 Z M 157.90 195.97 L 158.84 196.35 C 159.78 196.72 160.84 196.27 161.22 195.33 C 161.59 194.39 161.14 193.33 160.20 192.95 L 159.26 192.58 C 158.32 192.20 157.26 192.66 156.88 193.59 C 156.51 194.53 156.96 195.59 157.90 195.97 Z M 158.85 196.35 L 159.79 196.72 C 160.73 197.09 161.79 196.62 162.15 195.69 C 162.52 194.75 162.06 193.69 161.12 193.32 L 160.19 192.95 C 159.25 192.58 158.19 193.04 157.82 193.98 C 157.45 194.92 157.91 195.98 158.85 196.35 Z M 159.80 196.72 L 160.72 197.08 C 161.66 197.44 162.72 196.97 163.08 196.02 C 163.44 195.08 162.97 194.03 162.03 193.67 L 161.11 193.31 C 160.17 192.95 159.11 193.42 158.75 194.36 C 158.39 195.31 158.86 196.36 159.80 196.72 Z M 160.74 197.08 L 161.69 197.43 C 162.63 197.78 163.68 197.30 164.03 196.36 C 164.38 195.41 163.90 194.36 162.96 194.01 L 162.01 193.66 C 161.07 193.31 160.02 193.79 159.67 194.74 C 159.32 195.68 159.80 196.73 160.74 197.08 Z M 161.71 197.44 L 162.68 197.78 C 163.62 198.12 164.66 197.63 165.00 196.68 C 165.34 195.74 164.85 194.70 163.90 194.36 L 162.94 194.01 C 161.99 193.67 160.95 194.16 160.61 195.11 C 160.27 196.05 160.76 197.10 161.71 197.44 Z M 162.70 197.79 L 163.64 198.12 C 164.59 198.44 165.63 197.94 165.96 196.99 C 166.28 196.04 165.78 195.01 164.83 194.68 L 163.88 194.35 C 162.94 194.02 161.90 194.53 161.57 195.48 C 161.24 196.42 161.75 197.46 162.70 197.79 Z M 163.66 198.12 L 164.60 198.43 C 165.55 198.75 166.58 198.24 166.89 197.29 C 167.21 196.34 166.70 195.31 165.75 194.99 L 164.81 194.68 C 163.86 194.36 162.83 194.87 162.52 195.82 C 162.20 196.77 162.71 197.80 163.66 198.12 Z M 164.61 198.44 L 165.54 198.74 C 166.49 199.05 167.52 198.52 167.83 197.57 C 168.14 196.62 167.61 195.60 166.66 195.29 L 165.73 194.99 C 164.78 194.68 163.76 195.20 163.45 196.15 C 163.14 197.10 163.66 198.13 164.61 198.44 Z M 165.56 198.74 L 166.49 199.03 C 167.44 199.34 168.46 198.81 168.76 197.85 C 169.06 196.90 168.54 195.88 167.58 195.58 L 166.65 195.29 C 165.69 194.98 164.68 195.51 164.38 196.47 C 164.07 197.42 164.60 198.44 165.56 198.74 Z M 166.50 199.03 L 167.46 199.33 C 168.41 199.62 169.42 199.09 169.72 198.14 C 170.01 197.18 169.48 196.17 168.52 195.88 L 167.57 195.58 C 166.62 195.29 165.61 195.82 165.31 196.77 C 165.02 197.73 165.55 198.74 166.50 199.03 Z M 167.47 199.33 L 168.43 199.61 C 169.38 199.90 170.39 199.36 170.67 198.41 C 170.96 197.46 170.42 196.46 169.47 196.17 L 168.51 195.88 C 167.56 195.59 166.55 196.13 166.27 197.08 C 165.98 198.04 166.52 199.04 167.47 199.33 Z M 168.45 199.61 L 169.41 199.89 C 170.36 200.17 171.35 199.63 171.63 198.68 C 171.91 197.73 171.36 196.73 170.41 196.45 L 169.45 196.17 C 168.50 195.89 167.51 196.44 167.23 197.39 C 166.95 198.34 167.50 199.33 168.45 199.61 Z M 169.42 199.89 L 170.39 200.17 C 171.34 200.43 172.32 199.88 172.59 198.93 C 172.86 197.98 172.31 197.00 171.36 196.73 L 170.40 196.45 C 169.45 196.18 168.46 196.74 168.19 197.69 C 167.92 198.64 168.47 199.62 169.42 199.89 Z M 170.40 200.16 L 171.37 200.43 C 172.32 200.69 173.30 200.13 173.56 199.18 C 173.82 198.23 173.26 197.25 172.31 196.99 L 171.34 196.73 C 170.39 196.47 169.41 197.03 169.15 197.98 C 168.90 198.93 169.45 199.90 170.40 200.16 Z M 171.39 200.43 L 172.37 200.68 C 173.32 200.93 174.29 200.37 174.53 199.42 C 174.78 198.47 174.22 197.50 173.27 197.25 L 172.29 196.99 C 171.34 196.75 170.37 197.31 170.12 198.26 C 169.88 199.21 170.44 200.18 171.39 200.43 Z M 172.39 200.68 L 173.36 200.93 C 174.31 201.16 175.27 200.59 175.51 199.65 C 175.75 198.70 175.17 197.74 174.23 197.50 L 173.25 197.26 C 172.31 197.02 171.35 197.59 171.11 198.54 C 170.87 199.48 171.44 200.44 172.39 200.68 Z M 173.38 200.92 L 174.35 201.16 C 175.30 201.39 176.25 200.81 176.48 199.86 C 176.70 198.92 176.13 197.97 175.18 197.74 L 174.21 197.51 C 173.27 197.28 172.32 197.86 172.09 198.80 C 171.86 199.74 172.44 200.69 173.38 200.92 Z M 174.37 201.15 L 175.34 201.38 C 176.28 201.60 177.22 201.01 177.44 200.07 C 177.66 199.13 177.07 198.19 176.13 197.97 L 175.17 197.75 C 174.23 197.53 173.29 198.11 173.07 199.05 C 172.85 199.99 173.43 200.93 174.37 201.15 Z M 175.35 201.37 L 176.32 201.59 C 177.26 201.80 178.19 201.21 178.40 200.27 C 178.61 199.34 178.02 198.41 177.08 198.20 L 176.11 197.98 C 175.18 197.77 174.25 198.36 174.04 199.29 C 173.83 200.23 174.41 201.16 175.35 201.37 Z M 176.34 201.58 L 177.33 201.80 C 178.27 202.00 179.19 201.40 179.39 200.47 C 179.59 199.54 178.99 198.62 178.06 198.42 L 177.06 198.20 C 176.13 198.00 175.21 198.60 175.01 199.53 C 174.81 200.46 175.40 201.38 176.34 201.58 Z M 177.35 201.79 L 178.34 201.99 C 179.27 202.18 180.18 201.58 180.36 200.65 C 180.55 199.72 179.95 198.82 179.03 198.63 L 178.04 198.43 C 177.11 198.24 176.21 198.84 176.02 199.76 C 175.83 200.69 176.43 201.60 177.35 201.79 Z M 178.36 201.98 L 179.34 202.17 C 180.27 202.34 181.16 201.74 181.33 200.81 C 181.51 199.89 180.90 199.00 179.98 198.82 L 179.00 198.64 C 178.08 198.46 177.19 199.07 177.01 199.99 C 176.84 200.91 177.44 201.80 178.36 201.98 Z M 179.37 202.16 L 180.34 202.33 C 181.26 202.49 182.13 201.88 182.29 200.96 C 182.46 200.04 181.84 199.16 180.92 199.00 L 179.95 198.83 C 179.04 198.67 178.16 199.28 178.00 200.20 C 177.84 201.12 178.45 202.00 179.37 202.16 Z M 180.37 202.32 L 181.34 202.48 C 182.26 202.62 183.12 202.00 183.26 201.08 C 183.41 200.17 182.79 199.31 181.87 199.17 L 180.89 199.01 C 179.98 198.86 179.12 199.49 178.98 200.40 C 178.83 201.31 179.45 202.17 180.37 202.32 Z M 181.37 202.47 L 182.36 202.61 C 183.27 202.74 184.11 202.11 184.24 201.20 C 184.37 200.29 183.74 199.45 182.83 199.32 L 181.84 199.18 C 180.93 199.05 180.09 199.68 179.96 200.59 C 179.83 201.49 180.46 202.34 181.37 202.47 Z M 182.39 202.60 L 183.37 202.72 C 184.28 202.84 185.10 202.20 185.22 201.30 C 185.33 200.40 184.69 199.57 183.79 199.46 L 182.80 199.33 C 181.90 199.21 181.08 199.85 180.96 200.75 C 180.85 201.65 181.49 202.48 182.39 202.60 Z M 183.40 202.71 L 184.39 202.82 C 185.28 202.93 186.09 202.28 186.20 201.39 C 186.30 200.49 185.66 199.69 184.76 199.58 L 183.77 199.47 C 182.88 199.36 182.07 200.01 181.96 200.90 C 181.86 201.80 182.50 202.61 183.40 202.71 Z M 184.41 202.81 L 185.41 202.92 C 186.29 203.01 187.09 202.36 187.18 201.48 C 187.28 200.59 186.63 199.79 185.74 199.70 L 184.74 199.60 C 183.86 199.50 183.06 200.15 182.97 201.03 C 182.87 201.92 183.52 202.72 184.41 202.81 Z M 185.42 202.90 L 186.45 203.00 C 187.33 203.09 188.11 202.44 188.20 201.56 C 188.29 200.68 187.64 199.90 186.76 199.81 L 185.73 199.71 C 184.85 199.63 184.07 200.27 183.98 201.15 C 183.90 202.03 184.54 202.82 185.42 202.90 Z M 186.47 202.99 L 187.50 203.08 C 188.37 203.16 189.14 202.51 189.22 201.64 C 189.29 200.77 188.65 200.00 187.78 199.92 L 186.75 199.83 C 185.87 199.75 185.10 200.40 185.03 201.27 C 184.95 202.14 185.59 202.91 186.47 202.99 Z M 187.51 203.06 L 188.52 203.14 C 189.39 203.21 190.14 202.56 190.21 201.70 C 190.28 200.84 189.63 200.08 188.77 200.01 L 187.76 199.93 C 186.90 199.87 186.14 200.51 186.07 201.38 C 186.00 202.24 186.65 203.00 187.51 203.06 Z M 188.54 203.13 L 189.51 203.19 C 190.36 203.25 191.10 202.60 191.16 201.74 C 191.22 200.89 190.57 200.15 189.71 200.09 L 188.75 200.03 C 187.89 199.97 187.15 200.62 187.09 201.48 C 187.04 202.33 187.69 203.07 188.54 203.13 Z M 189.53 203.18 L 190.53 203.23 C 191.38 203.27 192.10 202.62 192.14 201.77 C 192.19 200.92 191.53 200.20 190.69 200.16 L 189.69 200.11 C 188.84 200.06 188.12 200.72 188.07 201.57 C 188.03 202.41 188.69 203.14 189.53 203.18 Z M 190.56 203.21 L 191.62 203.24 C 192.46 203.27 193.16 202.61 193.18 201.77 C 193.21 200.93 192.55 200.23 191.71 200.20 L 190.66 200.17 C 189.82 200.15 189.11 200.81 189.09 201.65 C 189.06 202.49 189.72 203.19 190.56 203.21 Z M 191.64 203.23 L 192.62 203.24 C 193.45 203.25 194.13 202.59 194.14 201.76 C 194.15 200.93 193.49 200.24 192.66 200.23 L 191.68 200.22 C 190.85 200.21 190.17 200.87 190.16 201.70 C 190.15 202.54 190.81 203.22 191.64 203.23 Z M 192.64 203.22 L 193.57 203.22 C 194.39 203.23 195.06 202.56 195.06 201.74 C 195.06 200.92 194.40 200.25 193.57 200.25 L 192.64 200.25 C 191.82 200.25 191.15 200.91 191.15 201.73 C 191.15 202.55 191.81 203.22 192.64 203.22 Z M 193.57 203.21 L 194.58 203.21 C 195.39 203.21 196.05 202.55 196.04 201.74 C 196.04 200.92 195.38 200.26 194.57 200.27 L 193.57 200.27 C 192.76 200.27 192.10 200.93 192.10 201.74 C 192.10 202.55 192.76 203.21 193.57 203.21 Z M 194.59 203.20 L 195.59 203.19 C 196.40 203.18 197.05 202.51 197.04 201.71 C 197.03 200.90 196.36 200.26 195.56 200.27 L 194.56 200.28 C 193.75 200.29 193.10 200.95 193.11 201.75 C 193.12 202.56 193.78 203.21 194.59 203.20 Z M 195.63 203.17 L 196.62 203.14 C 197.42 203.11 198.04 202.44 198.01 201.64 C 197.98 200.84 197.31 200.21 196.51 200.24 L 195.52 200.28 C 194.72 200.31 194.10 200.98 194.13 201.78 C 194.16 202.58 194.83 203.20 195.63 203.17 Z M 196.67 203.13 L 197.66 203.06 C 198.46 203.00 199.05 202.31 199.00 201.52 C 198.94 200.72 198.25 200.13 197.46 200.18 L 196.46 200.25 C 195.67 200.31 195.07 201.00 195.13 201.79 C 195.18 202.59 195.87 203.18 196.67 203.13 Z M 197.71 203.05 L 198.71 202.94 C 199.49 202.86 200.07 202.15 199.98 201.37 C 199.90 200.58 199.20 200.01 198.41 200.09 L 197.41 200.19 C 196.62 200.27 196.05 200.98 196.13 201.77 C 196.22 202.56 196.92 203.13 197.71 203.05 Z M 198.73 202.93 L 199.72 202.81 C 200.51 202.71 201.06 202.00 200.96 201.22 C 200.87 200.43 200.15 199.88 199.37 199.97 L 198.38 200.10 C 197.60 200.19 197.04 200.91 197.14 201.69 C 197.24 202.47 197.95 203.03 198.73 202.93 Z M 199.73 202.81 L 200.12 202.76 C 200.90 202.65 201.45 201.94 201.35 201.16 C 201.25 200.38 200.53 199.83 199.75 199.93 L 199.36 199.98 C 198.58 200.08 198.03 200.80 198.13 201.58 C 198.23 202.36 198.95 202.91 199.73 202.81 Z"
      fill="black"
      fill-rule="nonzero" /></svg>