<svg xmlns="http://www.w3.org/2000/svg" width="300" height="300" viewBox="0 0 300 300">
<path d="M 175.55 93.35 L 175.63 92.02 C 175.68 91.16 175.03 90.43 174.17 90.38 C 173.32 90.33 172.59 90.98 172.54 91.84 L 172.46 93.17 C 172.41 94.02 173.06 94.75 173.91 94.80 C 174.77 94.85 175.50 94.20 175.55 93.35 Z M 175.70 91.92 L 175.69 90.88 C 175.69 89.99 174.96 89.27 174.07 89.27 C 173.18 89.28 172.46 90.01 172.46 90.90 L 172.47 91.93 C 172.47 92.83 173.20 93.55 174.09 93.54 C 174.99 93.54 175.70 92.81 175.70 91.92 Z M 175.65 90.28 L 175.47 89.83 C 175.13 88.97 174.16 88.54 173.29 88.88 C 172.43 89.22 172.00 90.19 172.34 91.06 L 172.51 91.50 C 172.85 92.37 173.82 92.80 174.69 92.46 C 175.56 92.12 175.98 91.14 175.65 90.28 Z M 172.84 89.10 L 172.44 89.41 C 171.69 90.00 171.57 91.08 172.15 91.83 C 172.74 92.57 173.83 92.70 174.57 92.11 L 174.97 91.79 C 175.72 91.20 175.84 90.12 175.25 89.38 C 174.66 88.63 173.58 88.51 172.84 89.10 Z M 172.08 89.77 L 171.45 90.68 C 170.91 91.47 171.10 92.55 171.88 93.09 C 172.67 93.64 173.75 93.44 174.29 92.66 L 174.92 91.75 C 175.47 90.97 175.28 89.89 174.49 89.34 C 173.71 88.80 172.63 88.99 172.08 89.77 Z M 171.42 90.71 L 170.67 91.84 C 170.14 92.64 170.35 93.72 171.15 94.25 C 171.95 94.78 173.03 94.57 173.56 93.77 L 174.32 92.64 C 174.85 91.84 174.63 90.76 173.84 90.23 C 173.04 89.69 171.96 89.91 171.42 90.71 Z M 170.69 91.81 L 170.13 92.60 C 169.58 93.39 169.77 94.47 170.56 95.03 C 171.35 95.58 172.44 95.39 172.99 94.60 L 173.54 93.81 C 174.10 93.02 173.90 91.93 173.12 91.38 C 172.33 90.82 171.24 91.02 170.69 91.81 Z M 170.15 92.57 L 169.55 93.40 C 168.99 94.18 169.16 95.27 169.94 95.84 C 170.73 96.40 171.82 96.23 172.38 95.44 L 172.98 94.62 C 173.54 93.84 173.37 92.75 172.58 92.18 C 171.80 91.62 170.71 91.79 170.15 92.57 Z M 169.56 93.38 L 168.94 94.22 C 168.37 94.99 168.53 96.09 169.31 96.66 C 170.09 97.24 171.18 97.07 171.76 96.29 L 172.37 95.46 C 172.95 94.68 172.78 93.59 172.00 93.01 C 171.23 92.44 170.13 92.60 169.56 93.38 Z M 168.95 94.20 L 168.34 95.02 C 167.76 95.79 167.91 96.89 168.68 97.47 C 169.46 98.05 170.56 97.90 171.14 97.12 L 171.75 96.31 C 172.33 95.53 172.18 94.43 171.40 93.85 C 170.63 93.27 169.53 93.43 168.95 94.20 Z M 168.34 95.01 L 167.74 95.80 C 167.16 96.57 167.31 97.67 168.08 98.25 C 168.85 98.84 169.95 98.69 170.54 97.92 L 171.13 97.13 C 171.72 96.36 171.57 95.26 170.80 94.68 C 170.03 94.09 168.93 94.24 168.34 95.01 Z M 167.75 95.79 L 167.09 96.64 C 166.50 97.41 166.65 98.51 167.42 99.10 C 168.19 99.69 169.29 99.55 169.88 98.78 L 170.53 97.92 C 171.12 97.16 170.98 96.05 170.21 95.46 C 169.44 94.87 168.34 95.02 167.75 95.79 Z M 167.10 96.63 L 166.48 97.43 C 165.89 98.19 166.03 99.30 166.79 99.89 C 167.56 100.49 168.66 100.35 169.26 99.58 L 169.87 98.79 C 170.47 98.02 170.33 96.92 169.56 96.32 C 168.79 95.73 167.69 95.87 167.10 96.63 Z M 166.49 97.42 L 165.89 98.18 C 165.29 98.94 165.43 100.04 166.19 100.64 C 166.95 101.24 168.06 101.11 168.66 100.35 L 169.25 99.59 C 169.85 98.83 169.72 97.72 168.96 97.12 C 168.19 96.52 167.09 96.65 166.49 97.42 Z M 165.90 98.17 L 165.30 98.92 C 164.70 99.68 164.83 100.79 165.59 101.39 C 166.35 101.99 167.45 101.87 168.06 101.11 L 168.65 100.35 C 169.26 99.59 169.13 98.49 168.37 97.88 C 167.61 97.28 166.50 97.41 165.90 98.17 Z M 165.31 98.91 L 164.71 99.65 C 164.11 100.41 164.23 101.52 164.99 102.12 C 165.75 102.73 166.85 102.61 167.46 101.85 L 168.05 101.11 C 168.66 100.35 168.54 99.25 167.78 98.64 C 167.02 98.03 165.92 98.15 165.31 98.91 Z M 164.72 99.65 L 164.11 100.40 C 163.50 101.15 163.62 102.26 164.37 102.87 C 165.13 103.48 166.24 103.37 166.85 102.61 L 167.46 101.86 C 168.07 101.10 167.95 99.99 167.19 99.38 C 166.44 98.77 165.33 98.89 164.72 99.65 Z M 164.11 100.39 L 163.48 101.17 C 162.87 101.92 162.98 103.03 163.74 103.64 C 164.49 104.26 165.60 104.14 166.21 103.39 L 166.85 102.61 C 167.46 101.86 167.34 100.75 166.59 100.14 C 165.84 99.52 164.73 99.64 164.11 100.39 Z M 163.49 101.16 L 162.83 101.96 C 162.22 102.71 162.33 103.82 163.08 104.44 C 163.83 105.05 164.94 104.94 165.56 104.19 L 166.21 103.39 C 166.83 102.64 166.72 101.53 165.96 100.92 C 165.21 100.30 164.10 100.41 163.49 101.16 Z M 162.84 101.96 L 162.18 102.76 C 161.56 103.51 161.67 104.62 162.42 105.24 C 163.17 105.86 164.28 105.75 164.90 105.00 L 165.56 104.19 C 166.17 103.44 166.07 102.33 165.32 101.72 C 164.57 101.10 163.46 101.21 162.84 101.96 Z M 162.18 102.76 L 161.57 103.49 C 160.95 104.24 161.06 105.35 161.80 105.97 C 162.55 106.59 163.66 106.49 164.28 105.74 L 164.89 105.00 C 165.51 104.25 165.41 103.14 164.66 102.52 C 163.91 101.90 162.80 102.01 162.18 102.76 Z M 161.57 103.49 L 160.95 104.25 C 160.33 104.99 160.43 106.10 161.18 106.72 C 161.93 107.35 163.04 107.24 163.66 106.49 L 164.28 105.74 C 164.90 104.99 164.80 103.88 164.05 103.26 C 163.30 102.64 162.19 102.74 161.57 103.49 Z M 160.95 104.24 L 160.31 105.01 C 159.69 105.76 159.79 106.87 160.54 107.49 C 161.29 108.11 162.40 108.01 163.02 107.26 L 163.66 106.49 C 164.28 105.74 164.18 104.63 163.43 104.01 C 162.68 103.39 161.57 103.50 160.95 104.24 Z M 160.31 105.01 L 159.66 105.80 C 159.03 106.55 159.14 107.66 159.89 108.28 C 160.63 108.90 161.74 108.80 162.37 108.05 L 163.02 107.26 C 163.64 106.51 163.54 105.40 162.79 104.78 C 162.04 104.16 160.93 104.27 160.31 105.01 Z M 159.65 105.80 L 158.99 106.61 C 158.37 107.36 158.47 108.47 159.22 109.09 C 159.97 109.71 161.08 109.61 161.70 108.86 L 162.37 108.05 C 162.99 107.30 162.88 106.19 162.13 105.57 C 161.39 104.95 160.28 105.05 159.65 105.80 Z M 158.99 106.61 L 158.38 107.34 C 157.76 108.09 157.86 109.20 158.61 109.82 C 159.36 110.44 160.47 110.34 161.09 109.59 L 161.70 108.85 C 162.32 108.11 162.21 107.00 161.46 106.38 C 160.72 105.76 159.61 105.86 158.99 106.61 Z M 158.38 107.35 L 157.76 108.09 C 157.14 108.84 157.25 109.95 158.00 110.57 C 158.75 111.19 159.86 111.08 160.48 110.33 L 161.09 109.59 C 161.71 108.84 161.61 107.73 160.86 107.11 C 160.11 106.49 159.00 106.60 158.38 107.35 Z M 157.76 108.09 L 157.13 108.86 C 156.51 109.60 156.62 110.71 157.37 111.33 C 158.12 111.95 159.23 111.84 159.85 111.09 L 160.48 110.33 C 161.09 109.58 160.99 108.47 160.24 107.85 C 159.49 107.24 158.38 107.34 157.76 108.09 Z M 157.13 108.86 L 156.49 109.64 C 155.87 110.39 155.98 111.49 156.73 112.11 C 157.48 112.73 158.59 112.62 159.21 111.87 L 159.85 111.09 C 160.47 110.34 160.36 109.23 159.61 108.62 C 158.86 108.00 157.75 108.11 157.13 108.86 Z M 156.49 109.64 L 155.83 110.44 C 155.22 111.19 155.32 112.29 156.07 112.91 C 156.82 113.53 157.93 113.42 158.55 112.67 L 159.21 111.87 C 159.82 111.12 159.71 110.01 158.96 109.40 C 158.21 108.78 157.11 108.89 156.49 109.64 Z M 155.83 110.44 L 155.17 111.24 C 154.55 111.99 154.66 113.10 155.41 113.72 C 156.16 114.34 157.27 114.23 157.88 113.48 L 158.55 112.67 C 159.17 111.92 159.06 110.81 158.31 110.19 C 157.56 109.58 156.45 109.69 155.83 110.44 Z M 155.17 111.25 L 154.55 111.99 C 153.94 112.74 154.05 113.85 154.80 114.47 C 155.55 115.08 156.65 114.97 157.27 114.22 L 157.88 113.48 C 158.50 112.73 158.39 111.62 157.64 111.00 C 156.89 110.39 155.78 110.50 155.17 111.25 Z M 154.55 111.99 L 153.93 112.75 C 153.31 113.50 153.42 114.61 154.17 115.23 C 154.92 115.84 156.03 115.73 156.64 114.98 L 157.27 114.22 C 157.88 113.47 157.78 112.37 157.03 111.75 C 156.28 111.14 155.17 111.24 154.55 111.99 Z M 153.93 112.76 L 153.30 113.53 C 152.68 114.28 152.79 115.38 153.54 116.00 C 154.29 116.61 155.40 116.50 156.01 115.75 L 156.64 114.98 C 157.26 114.23 157.15 113.13 156.40 112.51 C 155.65 111.90 154.55 112.01 153.93 112.76 Z M 153.30 113.53 L 152.66 114.31 C 152.04 115.06 152.15 116.16 152.90 116.78 C 153.65 117.39 154.76 117.28 155.37 116.53 L 156.01 115.75 C 156.62 115.01 156.52 113.90 155.77 113.28 C 155.02 112.67 153.91 112.78 153.30 113.53 Z M 152.66 114.31 L 152.01 115.09 C 151.40 115.84 151.51 116.95 152.26 117.56 C 153.01 118.18 154.11 118.07 154.73 117.32 L 155.37 116.53 C 155.98 115.78 155.88 114.68 155.13 114.06 C 154.38 113.45 153.27 113.56 152.66 114.31 Z M 152.01 115.09 L 151.37 115.88 C 150.75 116.63 150.86 117.74 151.61 118.35 C 152.36 118.96 153.46 118.85 154.08 118.11 L 154.72 117.32 C 155.34 116.57 155.23 115.46 154.48 114.85 C 153.73 114.24 152.63 114.35 152.01 115.09 Z M 151.37 115.88 L 150.73 116.66 C 150.12 117.41 150.23 118.51 150.98 119.12 C 151.72 119.74 152.83 119.63 153.44 118.88 L 154.08 118.11 C 154.69 117.36 154.58 116.25 153.83 115.64 C 153.09 115.03 151.98 115.13 151.37 115.88 Z M 150.73 116.66 L 150.11 117.42 C 149.49 118.17 149.60 119.27 150.35 119.88 C 151.10 120.50 152.20 120.39 152.81 119.64 L 153.44 118.88 C 154.05 118.13 153.95 117.03 153.20 116.42 C 152.45 115.80 151.35 115.91 150.73 116.66 Z M 150.11 117.42 L 149.48 118.18 C 148.87 118.93 148.97 120.03 149.72 120.65 C 150.46 121.26 151.57 121.15 152.18 120.41 L 152.81 119.64 C 153.42 118.90 153.32 117.80 152.57 117.18 C 151.83 116.57 150.72 116.67 150.11 117.42 Z M 149.48 118.18 L 148.85 118.95 C 148.24 119.69 148.34 120.80 149.08 121.41 C 149.83 122.02 150.93 121.92 151.54 121.18 L 152.18 120.41 C 152.79 119.67 152.69 118.56 151.94 117.95 C 151.20 117.34 150.10 117.44 149.48 118.18 Z M 148.85 118.95 L 148.21 119.72 C 147.60 120.46 147.70 121.56 148.44 122.18 C 149.18 122.79 150.28 122.69 150.90 121.95 L 151.54 121.18 C 152.16 120.44 152.05 119.34 151.31 118.72 C 150.57 118.10 149.47 118.21 148.85 118.95 Z M 148.22 119.71 L 147.57 120.49 C 146.95 121.23 147.05 122.33 147.79 122.94 C 148.53 123.56 149.63 123.47 150.25 122.73 L 150.89 121.95 C 151.51 121.21 151.41 120.11 150.68 119.50 C 149.94 118.88 148.84 118.98 148.22 119.71 Z M 147.58 120.48 L 146.92 121.26 C 146.30 122.00 146.39 123.10 147.13 123.72 C 147.86 124.34 148.96 124.24 149.58 123.51 L 150.24 122.73 C 150.86 122.00 150.77 120.90 150.03 120.28 C 149.30 119.65 148.20 119.75 147.58 120.48 Z M 146.93 121.26 L 146.29 122.01 C 145.66 122.74 145.75 123.84 146.48 124.46 C 147.21 125.09 148.31 125.00 148.94 124.27 L 149.58 123.51 C 150.20 122.78 150.11 121.68 149.38 121.06 C 148.65 120.44 147.55 120.52 146.93 121.26 Z M 146.29 122.00 L 145.65 122.75 C 145.02 123.48 145.10 124.58 145.83 125.20 C 146.56 125.83 147.66 125.75 148.28 125.02 L 148.93 124.27 C 149.55 123.54 149.47 122.45 148.74 121.82 C 148.02 121.19 146.92 121.28 146.29 122.00 Z M 145.65 122.75 L 145.00 123.50 C 144.37 124.22 144.45 125.32 145.18 125.95 C 145.90 126.58 147.00 126.50 147.63 125.78 L 148.28 125.02 C 148.91 124.30 148.83 123.20 148.10 122.57 C 147.38 121.95 146.28 122.02 145.65 122.75 Z M 145.01 123.50 L 144.35 124.25 C 143.72 124.97 143.79 126.07 144.51 126.70 C 145.23 127.33 146.33 127.26 146.96 126.53 L 147.62 125.78 C 148.25 125.06 148.18 123.96 147.46 123.33 C 146.74 122.70 145.64 122.77 145.01 123.50 Z M 144.35 124.25 L 143.69 125.00 C 143.06 125.72 143.12 126.81 143.84 127.45 C 144.56 128.08 145.65 128.01 146.29 127.29 L 146.95 126.54 C 147.59 125.82 147.52 124.73 146.80 124.09 C 146.08 123.46 144.99 123.53 144.35 124.25 Z M 143.69 125.00 L 143.02 125.75 C 142.39 126.47 142.45 127.56 143.17 128.20 C 143.88 128.83 144.98 128.77 145.61 128.05 L 146.28 127.30 C 146.92 126.58 146.85 125.49 146.14 124.85 C 145.42 124.22 144.33 124.28 143.69 125.00 Z M 143.03 125.75 L 142.35 126.50 C 141.72 127.21 141.78 128.31 142.49 128.94 C 143.20 129.58 144.29 129.52 144.93 128.81 L 145.61 128.06 C 146.24 127.34 146.18 126.25 145.47 125.61 C 144.76 124.98 143.67 125.04 143.03 125.75 Z M 142.36 126.50 L 141.69 127.25 C 141.05 127.95 141.10 129.04 141.81 129.68 C 142.52 130.32 143.61 130.27 144.25 129.56 L 144.92 128.81 C 145.56 128.10 145.51 127.01 144.80 126.37 C 144.09 125.73 143.00 125.79 142.36 126.50 Z M 141.69 127.24 L 141.02 127.98 C 140.38 128.69 140.43 129.78 141.13 130.42 C 141.84 131.06 142.93 131.01 143.57 130.30 L 144.24 129.56 C 144.88 128.86 144.83 127.77 144.13 127.13 C 143.42 126.49 142.33 126.54 141.69 127.24 Z M 141.03 127.98 L 140.35 128.72 C 139.71 129.42 139.75 130.51 140.45 131.15 C 141.15 131.79 142.24 131.75 142.89 131.04 L 143.56 130.31 C 144.21 129.61 144.16 128.52 143.46 127.87 C 142.76 127.23 141.67 127.28 141.03 127.98 Z M 140.36 128.72 L 139.68 129.45 C 139.03 130.15 139.07 131.23 139.77 131.88 C 140.47 132.52 141.56 132.48 142.20 131.78 L 142.88 131.05 C 143.52 130.35 143.48 129.26 142.78 128.62 C 142.09 127.98 141.00 128.02 140.36 128.72 Z M 139.68 129.45 L 139.00 130.18 C 138.36 130.87 138.39 131.96 139.09 132.60 C 139.78 133.25 140.86 133.21 141.51 132.52 L 142.19 131.79 C 142.84 131.09 142.80 130.01 142.11 129.36 C 141.41 128.72 140.33 128.75 139.68 129.45 Z M 139.01 130.17 L 138.32 130.90 C 137.68 131.59 137.71 132.67 138.40 133.32 C 139.09 133.97 140.17 133.94 140.82 133.25 L 141.50 132.52 C 142.15 131.83 142.12 130.75 141.43 130.10 C 140.74 129.45 139.66 129.49 139.01 130.17 Z M 138.33 130.90 L 137.65 131.62 C 136.99 132.30 137.02 133.39 137.71 134.04 C 138.39 134.69 139.47 134.66 140.12 133.98 L 140.81 133.25 C 141.46 132.57 141.43 131.49 140.75 130.84 C 140.07 130.19 138.98 130.21 138.33 130.90 Z M 137.65 131.61 L 136.96 132.34 C 136.30 133.02 136.32 134.10 137.00 134.75 C 137.68 135.41 138.76 135.39 139.42 134.71 L 140.11 133.98 C 140.77 133.30 140.75 132.22 140.07 131.57 C 139.39 130.91 138.31 130.94 137.65 131.61 Z M 136.96 132.34 L 136.26 133.07 C 135.60 133.74 135.62 134.82 136.29 135.47 C 136.96 136.13 138.04 136.11 138.70 135.44 L 139.41 134.71 C 140.06 134.04 140.05 132.96 139.37 132.30 C 138.70 131.65 137.62 131.66 136.96 132.34 Z M 136.26 133.06 L 135.55 133.79 C 134.90 134.46 134.91 135.53 135.58 136.19 C 136.25 136.85 137.32 136.84 137.98 136.17 L 138.69 135.44 C 139.35 134.77 139.34 133.70 138.67 133.04 C 138.00 132.38 136.92 132.39 136.26 133.06 Z M 135.56 133.78 L 134.85 134.50 C 134.19 135.17 134.20 136.24 134.87 136.90 C 135.53 137.56 136.61 137.55 137.26 136.88 L 137.97 136.17 C 138.63 135.50 138.63 134.43 137.96 133.77 C 137.29 133.11 136.22 133.12 135.56 133.78 Z M 134.86 134.50 L 134.16 135.21 C 133.50 135.87 133.50 136.94 134.16 137.60 C 134.82 138.26 135.89 138.26 136.55 137.59 L 137.26 136.89 C 137.92 136.22 137.92 135.15 137.25 134.49 C 136.59 133.83 135.52 133.84 134.86 134.50 Z M 134.16 135.20 L 133.46 135.90 C 132.80 136.56 132.80 137.63 133.46 138.29 C 134.11 138.95 135.18 138.95 135.84 138.30 L 136.55 137.60 C 137.21 136.94 137.21 135.87 136.55 135.21 C 135.89 134.55 134.82 134.55 134.16 135.20 Z M 133.47 135.90 L 132.77 136.59 C 132.11 137.25 132.10 138.31 132.76 138.97 C 133.41 139.64 134.48 139.64 135.14 138.99 L 135.84 138.30 C 136.50 137.64 136.50 136.57 135.85 135.91 C 135.19 135.25 134.13 135.25 133.47 135.90 Z M 132.78 136.59 L 132.06 137.29 C 131.40 137.94 131.40 139.01 132.05 139.67 C 132.70 140.33 133.77 140.34 134.43 139.69 L 135.14 138.99 C 135.80 138.33 135.81 137.27 135.15 136.61 C 134.50 135.95 133.44 135.94 132.78 136.59 Z M 132.07 137.29 L 131.34 138.01 C 130.68 138.66 130.67 139.72 131.32 140.38 C 131.97 141.04 133.03 141.05 133.69 140.40 L 134.42 139.69 C 135.08 139.04 135.09 137.98 134.44 137.32 C 133.79 136.65 132.73 136.64 132.07 137.29 Z M 131.35 138.01 L 130.63 138.71 C 129.97 139.36 129.95 140.42 130.60 141.08 C 131.24 141.74 132.30 141.75 132.96 141.11 L 133.68 140.40 C 134.34 139.76 134.36 138.70 133.71 138.04 C 133.07 137.38 132.01 137.36 131.35 138.01 Z M 130.63 138.71 L 129.92 139.41 C 129.25 140.05 129.24 141.10 129.88 141.76 C 130.52 142.43 131.57 142.44 132.23 141.80 L 132.95 141.11 C 133.61 140.47 133.63 139.41 132.99 138.75 C 132.35 138.09 131.30 138.07 130.63 138.71 Z M 129.93 139.41 L 129.21 140.09 C 128.55 140.73 128.52 141.78 129.16 142.44 C 129.80 143.10 130.85 143.13 131.51 142.49 L 132.23 141.80 C 132.89 141.17 132.91 140.12 132.28 139.46 C 131.64 138.79 130.59 138.77 129.93 139.41 Z M 129.22 140.09 L 128.51 140.77 C 127.84 141.40 127.81 142.44 128.44 143.11 C 129.07 143.77 130.12 143.80 130.79 143.17 L 131.50 142.49 C 132.16 141.86 132.19 140.81 131.56 140.15 C 130.93 139.49 129.88 139.46 129.22 140.09 Z M 128.52 140.76 L 127.80 141.43 C 127.13 142.06 127.10 143.10 127.72 143.77 C 128.35 144.43 129.39 144.47 130.06 143.84 L 130.77 143.17 C 131.44 142.55 131.47 141.50 130.85 140.84 C 130.23 140.17 129.18 140.14 128.52 140.76 Z M 127.81 141.43 L 127.03 142.15 C 126.36 142.77 126.32 143.81 126.94 144.48 C 127.55 145.15 128.60 145.19 129.26 144.57 L 130.05 143.85 C 130.71 143.23 130.76 142.19 130.14 141.52 C 129.52 140.85 128.48 140.81 127.81 141.43 Z M 127.04 142.15 L 126.26 142.86 C 125.59 143.47 125.54 144.51 126.15 145.18 C 126.76 145.85 127.79 145.90 128.46 145.29 L 129.25 144.58 C 129.92 143.97 129.97 142.93 129.36 142.26 C 128.75 141.59 127.71 141.54 127.04 142.15 Z M 126.27 142.86 L 125.50 143.55 C 124.83 144.15 124.77 145.19 125.37 145.86 C 125.97 146.53 127.01 146.59 127.68 145.99 L 128.45 145.29 C 129.12 144.69 129.18 143.66 128.58 142.99 C 127.98 142.31 126.94 142.26 126.27 142.86 Z M 125.51 143.55 L 124.76 144.21 C 124.09 144.80 124.02 145.83 124.62 146.50 C 125.21 147.18 126.24 147.24 126.91 146.65 L 127.66 145.99 C 128.34 145.40 128.41 144.37 127.81 143.69 C 127.22 143.02 126.19 142.95 125.51 143.55 Z M 124.78 144.20 L 124.06 144.82 C 123.38 145.41 123.31 146.43 123.89 147.11 C 124.48 147.79 125.50 147.86 126.18 147.28 L 126.90 146.66 C 127.58 146.07 127.65 145.05 127.07 144.37 C 126.48 143.69 125.46 143.61 124.78 144.20 Z M 124.08 144.81 L 123.40 145.39 C 122.72 145.96 122.63 146.98 123.20 147.66 C 123.78 148.35 124.80 148.43 125.48 147.86 L 126.16 147.28 C 126.84 146.71 126.93 145.69 126.35 145.01 C 125.78 144.32 124.76 144.24 124.08 144.81 Z M 123.42 145.37 L 122.57 146.07 C 121.88 146.63 121.78 147.64 122.34 148.33 C 122.90 149.02 123.91 149.12 124.60 148.56 L 125.45 147.87 C 126.14 147.31 126.25 146.30 125.69 145.61 C 125.13 144.92 124.11 144.81 123.42 145.37 Z M 122.62 146.04 L 121.81 146.66 C 121.11 147.20 120.98 148.20 121.51 148.90 C 122.05 149.60 123.05 149.73 123.75 149.20 L 124.56 148.58 C 125.26 148.05 125.39 147.04 124.86 146.34 C 124.32 145.64 123.32 145.51 122.62 146.04 Z M 121.87 146.63 L 121.09 147.18 C 120.37 147.69 120.20 148.68 120.70 149.39 C 121.21 150.11 122.20 150.28 122.92 149.78 L 123.70 149.23 C 124.42 148.72 124.59 147.73 124.08 147.01 C 123.58 146.30 122.59 146.12 121.87 146.63 Z M 121.15 147.15 L 120.36 147.66 C 119.62 148.13 119.41 149.10 119.87 149.84 C 120.34 150.57 121.32 150.79 122.05 150.32 L 122.85 149.81 C 123.59 149.34 123.80 148.37 123.33 147.63 C 122.86 146.90 121.89 146.68 121.15 147.15 Z M 120.43 147.62 L 119.44 148.19 C 118.68 148.61 118.42 149.57 118.85 150.32 C 119.27 151.08 120.23 151.34 120.99 150.92 L 121.98 150.35 C 122.73 149.92 123.00 148.97 122.57 148.21 C 122.14 147.46 121.19 147.20 120.43 147.62 Z M 119.56 148.14 L 118.49 148.63 C 117.71 148.99 117.37 149.91 117.73 150.69 C 118.08 151.47 119.01 151.82 119.79 151.46 L 120.86 150.97 C 121.64 150.61 121.98 149.68 121.63 148.90 C 121.27 148.12 120.34 147.78 119.56 148.14 Z M 118.80 148.54 L 117.92 148.74 C 117.09 148.93 116.57 149.76 116.76 150.59 C 116.95 151.42 117.78 151.94 118.61 151.75 L 119.49 151.55 C 120.32 151.36 120.84 150.53 120.65 149.70 C 120.45 148.87 119.63 148.35 118.80 148.54 Z M 118.96 148.88 L 118.47 148.63 C 117.72 148.25 116.80 148.54 116.41 149.30 C 116.03 150.05 116.33 150.97 117.08 151.35 L 117.57 151.60 C 118.32 151.99 119.24 151.69 119.63 150.94 C 120.01 150.19 119.71 149.27 118.96 148.88 Z M 119.28 149.91 L 119.24 149.18 C 119.20 148.35 118.49 147.71 117.66 147.75 C 116.83 147.80 116.19 148.50 116.23 149.34 L 116.27 150.07 C 116.31 150.90 117.02 151.54 117.85 151.50 C 118.68 151.45 119.32 150.74 119.28 149.91 Z M 119.16 149.65 L 119.44 148.62 C 119.66 147.83 119.20 147.02 118.41 146.80 C 117.62 146.59 116.81 147.05 116.59 147.84 L 116.31 148.87 C 116.09 149.65 116.56 150.47 117.34 150.68 C 118.13 150.90 118.94 150.44 119.16 149.65 Z M 119.36 148.78 L 119.82 147.66 C 120.12 146.92 119.77 146.08 119.03 145.77 C 118.29 145.47 117.44 145.82 117.14 146.56 L 116.68 147.68 C 116.37 148.42 116.73 149.26 117.47 149.57 C 118.21 149.87 119.05 149.52 119.36 148.78 Z M 119.76 147.75 L 120.26 146.75 C 120.61 146.04 120.31 145.18 119.61 144.83 C 118.90 144.48 118.04 144.77 117.69 145.48 L 117.19 146.48 C 116.84 147.19 117.14 148.05 117.84 148.40 C 118.55 148.75 119.41 148.46 119.76 147.75 Z M 120.21 146.81 L 120.71 145.94 C 121.10 145.25 120.86 144.38 120.17 143.99 C 119.48 143.60 118.61 143.85 118.22 144.53 L 117.73 145.41 C 117.34 146.10 117.58 146.97 118.27 147.36 C 118.96 147.74 119.83 147.50 120.21 146.81 Z M 120.68 145.99 L 121.18 145.18 C 121.60 144.51 121.39 143.63 120.72 143.21 C 120.05 142.80 119.17 143.01 118.76 143.68 L 118.25 144.48 C 117.84 145.15 118.05 146.03 118.72 146.45 C 119.39 146.86 120.27 146.66 120.68 145.99 Z M 121.17 145.20 L 121.68 144.39 C 122.11 143.73 121.92 142.85 121.25 142.42 C 120.59 142.00 119.71 142.19 119.28 142.85 L 118.77 143.66 C 118.34 144.32 118.54 145.20 119.20 145.63 C 119.86 146.05 120.74 145.86 121.17 145.20 Z M 121.68 144.39 L 122.22 143.56 C 122.64 142.90 122.45 142.02 121.78 141.59 C 121.12 141.17 120.24 141.36 119.82 142.02 L 119.28 142.86 C 118.86 143.52 119.05 144.40 119.71 144.82 C 120.38 145.25 121.26 145.06 121.68 144.39 Z M 122.22 143.56 L 122.76 142.71 C 123.18 142.05 122.99 141.17 122.32 140.74 C 121.66 140.32 120.78 140.51 120.35 141.18 L 119.81 142.03 C 119.39 142.69 119.59 143.57 120.25 143.99 C 120.91 144.42 121.79 144.22 122.22 143.56 Z M 122.76 142.71 L 123.30 141.86 C 123.73 141.19 123.53 140.31 122.87 139.89 C 122.20 139.47 121.32 139.66 120.90 140.32 L 120.35 141.18 C 119.93 141.84 120.13 142.72 120.79 143.15 C 121.45 143.57 122.34 143.37 122.76 142.71 Z M 123.30 141.86 L 123.35 141.78 C 123.77 141.12 123.58 140.24 122.91 139.81 C 122.25 139.39 121.37 139.59 120.94 140.25 L 120.90 140.33 C 120.48 140.99 120.67 141.87 121.34 142.29 C 122.00 142.72 122.88 142.52 123.30 141.86 Z"
      fill="black"
      fill-rule="nonzero" /><path d="M 145.43 121.04 L 146.44 121.04 C 147.25 121.04 147.90 120.39 147.90 119.59 C 147.90 118.78 147.25 118.13 146.44 118.13 L 145.43 118.13 C 144.63 118.13 143.97 118.78 143.97 119.59 C 143.97 120.39 144.63 121.04 145.43 121.04 Z M 146.44 121.05 L 147.45 121.05 C 148.26 121.05 148.91 120.40 148.91 119.59 C 148.91 118.78 148.26 118.12 147.45 118.12 L 146.44 118.12 C 145.63 118.12 144.97 118.78 144.97 119.59 C 144.97 120.40 145.63 121.05 146.44 121.05 Z M 147.45 121.06 L 148.44 121.06 C 149.26 121.06 149.92 120.40 149.92 119.59 C 149.92 118.77 149.26 118.11 148.44 118.11 L 147.45 118.11 C 146.63 118.11 145.97 118.77 145.97 119.59 C 145.97 120.40 146.63 121.06 147.45 121.06 Z M 148.44 121.07 L 149.43 121.07 C 150.25 121.07 150.92 120.41 150.92 119.59 C 150.92 118.76 150.25 118.10 149.43 118.10 L 148.44 118.10 C 147.62 118.10 146.95 118.76 146.95 119.59 C 146.95 120.41 147.62 121.07 148.44 121.07 Z M 149.41 121.08 L 150.41 121.10 C 151.23 121.11 151.91 120.44 151.92 119.62 C 151.93 118.79 151.27 118.11 150.45 118.10 L 149.45 118.09 C 148.62 118.08 147.95 118.74 147.93 119.57 C 147.92 120.39 148.59 121.07 149.41 121.08 Z M 150.34 121.10 L 151.33 121.16 C 152.16 121.21 152.87 120.57 152.92 119.74 C 152.97 118.91 152.33 118.20 151.50 118.15 L 150.51 118.09 C 149.68 118.05 148.97 118.68 148.92 119.51 C 148.87 120.34 149.51 121.06 150.34 121.10 Z M 151.22 121.16 L 152.21 121.29 C 153.04 121.40 153.80 120.82 153.92 119.99 C 154.03 119.16 153.44 118.40 152.61 118.29 L 151.62 118.15 C 150.79 118.04 150.02 118.62 149.91 119.45 C 149.80 120.28 150.39 121.05 151.22 121.16 Z M 152.08 121.28 L 152.90 121.46 C 153.73 121.65 154.54 121.13 154.73 120.31 C 154.91 119.49 154.40 118.67 153.58 118.49 L 152.75 118.30 C 151.93 118.11 151.11 118.63 150.92 119.45 C 150.74 120.27 151.25 121.09 152.08 121.28 Z M 152.79 121.44 L 153.62 121.69 C 154.43 121.94 155.29 121.48 155.53 120.67 C 155.78 119.86 155.32 119.00 154.51 118.76 L 153.69 118.51 C 152.88 118.26 152.02 118.72 151.77 119.53 C 151.53 120.34 151.98 121.20 152.79 121.44 Z M 153.54 121.68 L 154.44 122.01 C 155.25 122.30 156.13 121.88 156.42 121.08 C 156.71 120.28 156.30 119.39 155.50 119.10 L 154.59 118.77 C 153.79 118.48 152.90 118.90 152.61 119.70 C 152.32 120.50 152.74 121.39 153.54 121.68 Z M 154.39 122.00 L 155.42 122.41 C 156.22 122.73 157.12 122.34 157.44 121.54 C 157.76 120.75 157.37 119.84 156.58 119.53 L 155.55 119.11 C 154.75 118.79 153.85 119.18 153.53 119.98 C 153.21 120.77 153.60 121.68 154.39 122.00 Z M 155.39 122.41 L 156.51 122.87 C 157.30 123.21 158.22 122.84 158.55 122.04 C 158.89 121.25 158.51 120.33 157.72 120.00 L 156.60 119.53 C 155.81 119.19 154.89 119.57 154.56 120.36 C 154.22 121.16 154.60 122.07 155.39 122.41 Z M 156.49 122.88 L 157.38 123.26 C 158.18 123.60 159.10 123.23 159.44 122.44 C 159.79 121.64 159.42 120.71 158.62 120.37 L 157.73 119.99 C 156.93 119.65 156.01 120.02 155.67 120.82 C 155.33 121.61 155.70 122.54 156.49 122.88 Z M 157.37 123.26 L 158.32 123.67 C 159.12 124.02 160.05 123.65 160.39 122.85 C 160.74 122.05 160.37 121.12 159.57 120.78 L 158.63 120.37 C 157.83 120.02 156.90 120.39 156.55 121.19 C 156.21 121.99 156.57 122.92 157.37 123.26 Z M 158.31 123.68 L 159.28 124.10 C 160.08 124.45 161.02 124.08 161.37 123.28 C 161.72 122.47 161.35 121.54 160.54 121.19 L 159.58 120.77 C 158.77 120.42 157.84 120.79 157.49 121.59 C 157.14 122.40 157.51 123.33 158.31 123.68 Z M 159.28 124.11 L 160.24 124.53 C 161.05 124.88 161.99 124.51 162.34 123.70 C 162.69 122.90 162.32 121.96 161.52 121.61 L 160.55 121.18 C 159.74 120.83 158.80 121.20 158.45 122.01 C 158.10 122.82 158.47 123.76 159.28 124.11 Z M 160.24 124.54 L 161.18 124.95 C 161.99 125.30 162.93 124.93 163.29 124.12 C 163.64 123.31 163.27 122.36 162.46 122.01 L 161.52 121.60 C 160.71 121.24 159.77 121.62 159.41 122.43 C 159.06 123.24 159.43 124.18 160.24 124.54 Z M 161.18 124.95 L 162.06 125.34 C 162.88 125.69 163.82 125.32 164.18 124.50 C 164.53 123.69 164.16 122.74 163.34 122.38 L 162.46 122.00 C 161.65 121.64 160.70 122.02 160.34 122.83 C 159.99 123.65 160.36 124.60 161.18 124.95 Z M 162.06 125.35 L 163.01 125.76 C 163.83 126.11 164.78 125.73 165.14 124.91 C 165.49 124.09 165.12 123.14 164.30 122.79 L 163.34 122.38 C 162.52 122.02 161.57 122.40 161.22 123.22 C 160.86 124.04 161.24 124.99 162.06 125.35 Z M 163.02 125.76 L 164.12 126.23 C 164.95 126.59 165.90 126.20 166.25 125.38 C 166.60 124.55 166.22 123.60 165.39 123.25 L 164.29 122.78 C 163.47 122.43 162.51 122.81 162.16 123.64 C 161.81 124.46 162.19 125.41 163.02 125.76 Z M 164.13 126.24 L 165.04 126.62 C 165.87 126.97 166.82 126.57 167.17 125.75 C 167.51 124.92 167.12 123.97 166.29 123.62 L 165.38 123.24 C 164.55 122.90 163.60 123.29 163.26 124.12 C 162.91 124.95 163.30 125.90 164.13 126.24 Z M 165.06 126.63 L 165.85 126.95 C 166.68 127.29 167.63 126.89 167.97 126.05 C 168.30 125.22 167.90 124.27 167.07 123.93 L 166.28 123.61 C 165.44 123.28 164.50 123.68 164.16 124.51 C 163.82 125.34 164.22 126.29 165.06 126.63 Z M 165.86 126.96 L 166.64 127.27 C 167.48 127.60 168.43 127.18 168.76 126.35 C 169.09 125.51 168.67 124.56 167.84 124.23 L 167.05 123.92 C 166.22 123.59 165.27 124.01 164.94 124.84 C 164.61 125.68 165.02 126.63 165.86 126.96 Z M 166.65 127.27 L 167.58 127.63 C 168.42 127.95 169.36 127.53 169.69 126.69 C 170.01 125.84 169.59 124.90 168.74 124.58 L 167.82 124.22 C 166.98 123.90 166.04 124.32 165.71 125.16 C 165.39 126.01 165.81 126.95 166.65 127.27 Z M 167.59 127.64 L 168.53 127.99 C 169.38 128.30 170.32 127.87 170.63 127.02 C 170.95 126.17 170.52 125.23 169.67 124.92 L 168.73 124.57 C 167.88 124.25 166.94 124.69 166.63 125.53 C 166.31 126.38 166.74 127.32 167.59 127.64 Z M 168.55 128.00 L 169.50 128.34 C 170.36 128.64 171.29 128.20 171.60 127.34 C 171.90 126.49 171.46 125.55 170.61 125.25 L 169.65 124.91 C 168.80 124.60 167.86 125.05 167.56 125.90 C 167.25 126.75 167.70 127.69 168.55 128.00 Z M 169.53 128.35 L 170.47 128.67 C 171.32 128.96 172.26 128.50 172.55 127.64 C 172.84 126.79 172.38 125.85 171.53 125.56 L 170.59 125.24 C 169.73 124.95 168.80 125.40 168.50 126.26 C 168.21 127.12 168.67 128.05 169.53 128.35 Z M 170.49 128.67 L 171.44 128.98 C 172.30 129.26 173.22 128.79 173.51 127.93 C 173.79 127.07 173.32 126.14 172.45 125.86 L 171.51 125.55 C 170.64 125.27 169.72 125.74 169.44 126.61 C 169.16 127.47 169.63 128.39 170.49 128.67 Z M 171.46 128.99 L 172.42 129.29 C 173.28 129.56 174.20 129.07 174.47 128.21 C 174.74 127.34 174.26 126.42 173.39 126.15 L 172.43 125.86 C 171.57 125.59 170.65 126.07 170.38 126.94 C 170.11 127.80 170.59 128.72 171.46 128.99 Z M 172.44 129.29 L 173.40 129.58 C 174.27 129.84 175.19 129.34 175.44 128.47 C 175.70 127.60 175.20 126.69 174.33 126.43 L 173.37 126.15 C 172.50 125.89 171.59 126.39 171.33 127.25 C 171.07 128.12 171.57 129.04 172.44 129.29 Z M 173.42 129.59 L 174.39 129.86 C 175.26 130.10 176.17 129.60 176.41 128.72 C 176.66 127.85 176.15 126.95 175.28 126.70 L 174.32 126.43 C 173.44 126.18 172.54 126.69 172.29 127.56 C 172.04 128.43 172.55 129.34 173.42 129.59 Z M 174.41 129.86 L 175.37 130.12 C 176.25 130.36 177.15 129.84 177.39 128.97 C 177.62 128.09 177.11 127.19 176.23 126.96 L 175.26 126.69 C 174.39 126.46 173.49 126.98 173.25 127.85 C 173.01 128.72 173.53 129.63 174.41 129.86 Z M 175.39 130.13 L 176.35 130.38 C 177.23 130.61 178.13 130.08 178.35 129.20 C 178.58 128.33 178.06 127.43 177.18 127.20 L 176.22 126.95 C 175.34 126.72 174.44 127.25 174.21 128.13 C 173.99 129.00 174.51 129.90 175.39 130.13 Z M 176.37 130.38 L 177.33 130.62 C 178.21 130.84 179.10 130.31 179.32 129.43 C 179.54 128.56 179.01 127.66 178.13 127.44 L 177.17 127.20 C 176.29 126.98 175.40 127.51 175.18 128.39 C 174.96 129.27 175.49 130.16 176.37 130.38 Z M 177.35 130.63 L 178.31 130.86 C 179.19 131.07 180.07 130.53 180.29 129.65 C 180.50 128.77 179.96 127.88 179.08 127.67 L 178.11 127.44 C 177.23 127.23 176.35 127.77 176.14 128.65 C 175.93 129.53 176.47 130.41 177.35 130.63 Z M 178.33 130.86 L 179.31 131.08 C 180.19 131.28 181.07 130.73 181.27 129.85 C 181.46 128.97 180.91 128.09 180.03 127.89 L 179.05 127.67 C 178.17 127.47 177.30 128.02 177.10 128.90 C 176.90 129.79 177.45 130.66 178.33 130.86 Z M 179.34 131.08 L 180.29 131.28 C 181.17 131.47 182.04 130.90 182.22 130.02 C 182.41 129.14 181.84 128.27 180.96 128.09 L 180.01 127.89 C 179.12 127.70 178.26 128.27 178.07 129.15 C 177.89 130.03 178.45 130.90 179.34 131.08 Z M 180.32 131.29 L 181.24 131.46 C 182.12 131.63 182.98 131.05 183.14 130.17 C 183.31 129.28 182.73 128.43 181.85 128.26 L 180.93 128.09 C 180.05 127.92 179.20 128.50 179.03 129.38 C 178.86 130.26 179.44 131.12 180.32 131.29 Z M 181.27 131.47 L 182.24 131.63 C 183.13 131.78 183.97 131.18 184.12 130.30 C 184.27 129.41 183.67 128.57 182.78 128.42 L 181.82 128.26 C 180.93 128.11 180.09 128.70 179.94 129.59 C 179.79 130.48 180.39 131.32 181.27 131.47 Z M 182.28 131.63 L 183.32 131.78 C 184.21 131.91 185.03 131.30 185.16 130.41 C 185.29 129.52 184.67 128.70 183.79 128.57 L 182.75 128.42 C 181.86 128.29 181.03 128.91 180.91 129.79 C 180.78 130.68 181.39 131.50 182.28 131.63 Z M 183.36 131.79 L 184.36 131.91 C 185.25 132.02 186.06 131.38 186.17 130.49 C 186.27 129.60 185.64 128.80 184.75 128.69 L 183.75 128.57 C 182.86 128.46 182.05 129.09 181.94 129.98 C 181.84 130.87 182.47 131.68 183.36 131.79 Z M 184.40 131.91 L 185.30 132.00 C 186.19 132.09 186.98 131.44 187.07 130.55 C 187.16 129.66 186.51 128.87 185.62 128.78 L 184.72 128.69 C 183.83 128.60 183.04 129.25 182.95 130.14 C 182.86 131.03 183.51 131.82 184.40 131.91 Z M 185.33 132.00 L 186.28 132.08 C 187.17 132.15 187.95 131.49 188.03 130.60 C 188.10 129.72 187.44 128.94 186.55 128.86 L 185.59 128.78 C 184.71 128.71 183.93 129.37 183.85 130.25 C 183.78 131.14 184.44 131.92 185.33 132.00 Z M 186.31 132.07 L 187.32 132.14 C 188.21 132.20 188.98 131.53 189.04 130.65 C 189.10 129.76 188.43 128.99 187.54 128.93 L 186.53 128.86 C 185.64 128.80 184.87 129.47 184.81 130.36 C 184.75 131.25 185.42 132.01 186.31 132.07 Z M 187.35 132.14 L 188.42 132.20 C 189.30 132.24 190.06 131.56 190.10 130.68 C 190.15 129.79 189.47 129.04 188.58 128.99 L 187.52 128.94 C 186.63 128.89 185.88 129.57 185.83 130.45 C 185.78 131.34 186.46 132.09 187.35 132.14 Z M 188.44 132.19 L 189.53 132.23 C 190.41 132.27 191.16 131.58 191.19 130.70 C 191.22 129.81 190.53 129.07 189.65 129.04 L 188.56 129.00 C 187.68 128.96 186.94 129.65 186.90 130.53 C 186.87 131.42 187.56 132.16 188.44 132.19 Z M 189.55 132.23 L 190.49 132.25 C 191.37 132.28 192.11 131.58 192.13 130.70 C 192.15 129.82 191.46 129.09 190.58 129.07 L 189.63 129.04 C 188.75 129.02 188.02 129.71 188.00 130.59 C 187.98 131.47 188.67 132.20 189.55 132.23 Z M 190.51 132.24 L 191.48 132.26 C 192.36 132.28 193.08 131.58 193.09 130.71 C 193.11 129.83 192.41 129.11 191.54 129.09 L 190.56 129.08 C 189.69 129.06 188.97 129.76 188.95 130.63 C 188.94 131.51 189.63 132.23 190.51 132.24 Z M 191.49 132.25 L 192.49 132.26 C 193.36 132.27 194.07 131.58 194.08 130.71 C 194.09 129.84 193.39 129.12 192.53 129.11 L 191.53 129.10 C 190.66 129.09 189.95 129.79 189.94 130.66 C 189.93 131.53 190.62 132.24 191.49 132.25 Z M 192.50 132.25 L 193.51 132.26 C 194.38 132.26 195.08 131.57 195.09 130.70 C 195.09 129.84 194.40 129.14 193.53 129.13 L 192.52 129.12 C 191.65 129.12 190.95 129.82 190.94 130.68 C 190.94 131.54 191.63 132.25 192.50 132.25 Z M 193.52 132.25 L 194.55 132.25 C 195.41 132.25 196.10 131.56 196.11 130.70 C 196.11 129.84 195.41 129.14 194.55 129.14 L 193.53 129.14 C 192.67 129.14 191.97 129.83 191.97 130.69 C 191.97 131.55 192.66 132.25 193.52 132.25 Z M 194.55 132.24 L 195.59 132.24 C 196.44 132.24 197.13 131.55 197.13 130.70 C 197.13 129.84 196.44 129.15 195.59 129.15 L 194.55 129.15 C 193.70 129.15 193.01 129.84 193.01 130.70 C 193.00 131.55 193.70 132.24 194.55 132.24 Z M 195.59 132.24 L 195.97 132.24 C 196.82 132.24 197.51 131.55 197.51 130.70 C 197.51 129.85 196.82 129.16 195.97 129.16 L 195.59 129.16 C 194.74 129.16 194.05 129.85 194.05 130.70 C 194.05 131.55 194.74 132.24 195.59 132.24 Z"
      fill="black"
      fill-rule="nonzero" /><path d="M 144.89 139.38 L 143.90 139.39 C 143.00 139.40 142.27 140.13 142.28 141.03 C 142.29 141.94 143.02 142.66 143.92 142.66 L 144.91 142.65 C 145.81 142.64 146.54 141.91 146.53 141.01 C 146.53 140.10 145.79 139.38 144.89 139.38 Z M 143.84 139.39 L 142.84 139.44 C 141.94 139.48 141.25 140.25 141.29 141.15 C 141.33 142.05 142.09 142.74 143.00 142.70 L 143.99 142.65 C 144.89 142.61 145.59 141.85 145.54 140.95 C 145.50 140.05 144.74 139.35 143.84 139.39 Z M 142.71 139.45 L 141.71 139.58 C 140.82 139.69 140.18 140.51 140.30 141.40 C 140.41 142.30 141.23 142.93 142.12 142.82 L 143.12 142.69 C 144.02 142.58 144.65 141.76 144.54 140.87 C 144.43 139.97 143.61 139.34 142.71 139.45 Z M 141.52 139.60 L 140.35 139.90 C 139.47 140.12 138.94 141.01 139.16 141.89 C 139.38 142.77 140.27 143.30 141.15 143.08 L 142.32 142.79 C 143.20 142.57 143.73 141.68 143.51 140.80 C 143.29 139.92 142.40 139.38 141.52 139.60 Z M 140.07 139.98 L 139.11 140.41 C 138.27 140.78 137.90 141.76 138.28 142.60 C 138.65 143.44 139.63 143.81 140.47 143.43 L 141.43 143.00 C 142.26 142.63 142.64 141.65 142.26 140.81 C 141.89 139.98 140.91 139.60 140.07 139.98 Z M 138.44 140.92 L 138.08 141.41 C 137.53 142.15 137.69 143.20 138.43 143.75 C 139.17 144.30 140.22 144.15 140.78 143.40 L 141.14 142.92 C 141.69 142.18 141.53 141.13 140.79 140.57 C 140.04 140.02 138.99 140.18 138.44 140.92 Z M 138.25 143.61 L 138.74 144.09 C 139.41 144.75 140.47 144.74 141.13 144.07 C 141.78 143.40 141.77 142.34 141.10 141.68 L 140.61 141.20 C 139.95 140.55 138.88 140.56 138.22 141.22 C 137.57 141.89 137.58 142.96 138.25 143.61 Z M 139.38 144.49 L 140.52 144.88 C 141.40 145.18 142.37 144.70 142.67 143.82 C 142.97 142.93 142.49 141.97 141.61 141.67 L 140.46 141.28 C 139.58 140.98 138.62 141.46 138.32 142.35 C 138.02 143.23 138.49 144.19 139.38 144.49 Z M 140.77 144.95 L 141.78 145.13 C 142.70 145.29 143.58 144.67 143.75 143.75 C 143.91 142.83 143.30 141.95 142.37 141.78 L 141.36 141.60 C 140.44 141.44 139.55 142.06 139.39 142.98 C 139.23 143.90 139.84 144.78 140.77 144.95 Z M 141.91 145.14 L 142.85 145.24 C 143.78 145.33 144.61 144.65 144.71 143.72 C 144.80 142.78 144.12 141.95 143.19 141.86 L 142.25 141.76 C 141.31 141.67 140.48 142.35 140.39 143.29 C 140.29 144.22 140.97 145.05 141.91 145.14 Z M 142.92 145.24 L 143.94 145.30 C 144.87 145.35 145.67 144.63 145.72 143.70 C 145.77 142.76 145.06 141.96 144.12 141.91 L 143.11 141.85 C 142.17 141.80 141.37 142.52 141.32 143.46 C 141.27 144.39 141.99 145.19 142.92 145.24 Z M 143.98 145.30 L 145.06 145.33 C 146.00 145.36 146.78 144.62 146.80 143.68 C 146.83 142.74 146.09 141.96 145.15 141.94 L 144.07 141.91 C 143.14 141.88 142.36 142.62 142.33 143.56 C 142.31 144.50 143.04 145.28 143.98 145.30 Z M 145.08 145.33 L 146.08 145.34 C 147.02 145.36 147.79 144.61 147.80 143.67 C 147.81 142.73 147.06 141.96 146.13 141.95 L 145.13 141.94 C 144.19 141.92 143.42 142.67 143.41 143.61 C 143.39 144.55 144.14 145.32 145.08 145.33 Z M 146.10 145.34 L 147.04 145.35 C 147.97 145.35 148.73 144.59 148.74 143.66 C 148.74 142.72 147.99 141.96 147.05 141.95 L 146.11 141.95 C 145.17 141.95 144.41 142.70 144.41 143.64 C 144.40 144.58 145.16 145.34 146.10 145.34 Z M 147.06 145.34 L 148.04 145.33 C 148.97 145.32 149.72 144.55 149.71 143.62 C 149.70 142.68 148.93 141.93 148.00 141.95 L 147.02 141.96 C 146.09 141.97 145.34 142.74 145.35 143.67 C 145.36 144.61 146.13 145.35 147.06 145.34 Z M 148.07 145.33 L 149.09 145.30 C 150.02 145.26 150.76 144.48 150.72 143.55 C 150.69 142.62 149.91 141.88 148.98 141.92 L 147.96 141.95 C 147.03 141.98 146.30 142.76 146.33 143.69 C 146.36 144.63 147.14 145.36 148.07 145.33 Z M 149.13 145.29 L 150.19 145.23 C 151.12 145.17 151.83 144.38 151.78 143.44 C 151.72 142.51 150.92 141.80 149.99 141.86 L 148.94 141.92 C 148.01 141.97 147.29 142.77 147.35 143.70 C 147.40 144.63 148.20 145.35 149.13 145.29 Z M 150.24 145.22 L 151.30 145.13 C 152.23 145.05 152.92 144.23 152.84 143.30 C 152.75 142.38 151.94 141.69 151.01 141.77 L 149.94 141.86 C 149.02 141.95 148.33 142.76 148.41 143.69 C 148.49 144.62 149.31 145.30 150.24 145.22 Z M 151.35 145.12 L 152.39 145.00 C 153.31 144.89 153.97 144.06 153.86 143.14 C 153.76 142.22 152.92 141.56 152.00 141.66 L 150.97 141.78 C 150.04 141.89 149.38 142.72 149.49 143.64 C 149.59 144.56 150.43 145.22 151.35 145.12 Z M 152.42 144.99 L 153.46 144.85 C 154.38 144.72 155.02 143.88 154.89 142.96 C 154.77 142.05 153.92 141.41 153.01 141.53 L 151.97 141.68 C 151.05 141.80 150.41 142.64 150.54 143.56 C 150.66 144.47 151.50 145.11 152.42 144.99 Z M 153.49 144.83 L 154.51 144.68 C 155.42 144.54 156.04 143.69 155.90 142.78 C 155.76 141.87 154.91 141.25 154.00 141.39 L 152.98 141.54 C 152.07 141.69 151.45 142.54 151.59 143.44 C 151.73 144.35 152.58 144.97 153.49 144.83 Z M 154.53 144.67 L 155.51 144.50 C 156.41 144.35 157.02 143.49 156.86 142.59 C 156.71 141.69 155.85 141.08 154.95 141.23 L 153.98 141.40 C 153.07 141.55 152.47 142.41 152.62 143.31 C 152.78 144.21 153.63 144.82 154.53 144.67 Z M 155.53 144.49 L 156.43 144.32 C 157.33 144.15 157.92 143.29 157.75 142.40 C 157.59 141.50 156.73 140.91 155.83 141.08 L 154.93 141.24 C 154.03 141.41 153.44 142.27 153.61 143.17 C 153.77 144.06 154.63 144.65 155.53 144.49 Z M 156.46 144.30 L 157.54 144.08 C 158.42 143.91 158.99 143.04 158.82 142.16 C 158.64 141.27 157.77 140.70 156.89 140.88 L 155.81 141.09 C 154.92 141.27 154.35 142.14 154.53 143.02 C 154.71 143.91 155.57 144.48 156.46 144.30 Z M 157.56 144.06 L 158.59 143.83 C 159.46 143.64 160.01 142.78 159.82 141.90 C 159.62 141.03 158.76 140.48 157.89 140.67 L 156.86 140.90 C 155.99 141.09 155.44 141.96 155.63 142.83 C 155.82 143.70 156.69 144.25 157.56 144.06 Z M 158.60 143.81 L 159.51 143.59 C 160.37 143.39 160.90 142.53 160.70 141.67 C 160.50 140.82 159.64 140.28 158.78 140.49 L 157.87 140.70 C 157.01 140.90 156.48 141.76 156.68 142.62 C 156.89 143.48 157.74 144.01 158.60 143.81 Z M 159.50 143.57 L 160.36 143.37 C 161.20 143.17 161.73 142.33 161.53 141.48 C 161.33 140.63 160.48 140.11 159.64 140.31 L 158.78 140.51 C 157.94 140.71 157.41 141.55 157.61 142.40 C 157.81 143.25 158.66 143.77 159.50 143.57 Z M 160.34 143.36 L 161.29 143.15 C 162.13 142.96 162.66 142.13 162.48 141.29 C 162.29 140.45 161.46 139.92 160.62 140.11 L 159.66 140.32 C 158.82 140.51 158.29 141.34 158.48 142.18 C 158.66 143.02 159.50 143.55 160.34 143.36 Z M 161.28 143.14 L 162.26 142.93 C 163.09 142.75 163.62 141.93 163.44 141.10 C 163.27 140.26 162.45 139.73 161.61 139.91 L 160.63 140.12 C 159.80 140.29 159.27 141.11 159.45 141.95 C 159.62 142.78 160.44 143.31 161.28 143.14 Z M 162.25 142.91 L 163.24 142.70 C 164.07 142.53 164.59 141.71 164.42 140.89 C 164.24 140.06 163.43 139.53 162.60 139.71 L 161.61 139.92 C 160.79 140.10 160.26 140.91 160.44 141.74 C 160.61 142.56 161.43 143.09 162.25 142.91 Z M 163.25 142.69 L 164.22 142.47 C 165.04 142.29 165.56 141.48 165.38 140.66 C 165.20 139.84 164.39 139.33 163.57 139.51 L 162.59 139.73 C 161.77 139.91 161.26 140.72 161.44 141.54 C 161.62 142.35 162.43 142.87 163.25 142.69 Z M 164.24 142.46 L 165.21 142.23 C 166.02 142.04 166.52 141.23 166.33 140.42 C 166.14 139.61 165.33 139.11 164.52 139.30 L 163.56 139.52 C 162.75 139.71 162.24 140.52 162.43 141.33 C 162.62 142.14 163.43 142.65 164.24 142.46 Z M 165.22 142.22 L 166.19 141.98 C 166.99 141.79 167.48 140.98 167.29 140.18 C 167.10 139.38 166.29 138.88 165.49 139.08 L 164.51 139.31 C 163.71 139.51 163.22 140.32 163.41 141.12 C 163.61 141.92 164.42 142.41 165.22 142.22 Z M 166.20 141.97 L 167.18 141.72 C 167.97 141.52 168.45 140.71 168.25 139.92 C 168.05 139.13 167.25 138.65 166.45 138.85 L 165.48 139.09 C 164.68 139.29 164.20 140.10 164.40 140.89 C 164.60 141.69 165.41 142.17 166.20 141.97 Z M 167.19 141.71 L 168.15 141.46 C 168.94 141.25 169.41 140.45 169.21 139.66 C 169.00 138.88 168.20 138.40 167.41 138.61 L 166.45 138.86 C 165.66 139.06 165.19 139.87 165.39 140.65 C 165.60 141.44 166.40 141.91 167.19 141.71 Z M 168.15 141.45 L 169.13 141.19 C 169.91 140.99 170.37 140.19 170.17 139.41 C 169.97 138.62 169.17 138.16 168.38 138.36 L 167.41 138.62 C 166.63 138.82 166.16 139.62 166.37 140.40 C 166.57 141.18 167.37 141.65 168.15 141.45 Z M 169.12 141.19 L 170.09 140.93 C 170.87 140.73 171.33 139.94 171.13 139.16 C 170.93 138.38 170.13 137.92 169.36 138.12 L 168.39 138.37 C 167.61 138.57 167.14 139.37 167.35 140.14 C 167.55 140.92 168.34 141.39 169.12 141.19 Z M 170.08 140.93 L 171.04 140.69 C 171.81 140.49 172.28 139.70 172.08 138.93 C 171.89 138.15 171.10 137.68 170.33 137.88 L 169.37 138.12 C 168.59 138.32 168.12 139.11 168.32 139.88 C 168.52 140.66 169.30 141.13 170.08 140.93 Z M 171.03 140.68 L 171.98 140.45 C 172.76 140.26 173.23 139.47 173.04 138.70 C 172.85 137.93 172.07 137.46 171.29 137.65 L 170.34 137.88 C 169.56 138.07 169.09 138.86 169.28 139.63 C 169.47 140.40 170.25 140.87 171.03 140.68 Z M 171.98 140.44 L 172.95 140.21 C 173.72 140.02 174.19 139.24 174.01 138.47 C 173.82 137.70 173.04 137.23 172.27 137.42 L 171.30 137.65 C 170.53 137.84 170.06 138.61 170.24 139.39 C 170.43 140.16 171.21 140.63 171.98 140.44 Z M 172.95 140.20 L 173.94 139.96 C 174.71 139.78 175.18 139.01 174.99 138.24 C 174.81 137.47 174.04 137.00 173.27 137.18 L 172.28 137.42 C 171.51 137.60 171.03 138.38 171.22 139.15 C 171.40 139.91 172.18 140.39 172.95 140.20 Z M 173.94 139.96 L 174.92 139.72 C 175.68 139.54 176.16 138.77 175.97 138.00 C 175.79 137.23 175.01 136.76 174.25 136.95 L 173.27 137.18 C 172.50 137.37 172.03 138.14 172.21 138.91 C 172.40 139.67 173.17 140.15 173.94 139.96 Z M 174.92 139.72 L 175.91 139.48 C 176.67 139.30 177.14 138.53 176.96 137.76 C 176.77 136.99 176.00 136.52 175.23 136.71 L 174.25 136.95 C 173.48 137.13 173.01 137.91 173.19 138.67 C 173.38 139.44 174.15 139.91 174.92 139.72 Z M 175.91 139.48 L 176.88 139.24 C 177.64 139.06 178.11 138.28 177.92 137.52 C 177.73 136.75 176.96 136.29 176.20 136.47 L 175.23 136.71 C 174.46 136.90 174.00 137.67 174.18 138.44 C 174.37 139.20 175.14 139.67 175.91 139.48 Z M 176.88 139.24 L 177.86 139.00 C 178.63 138.81 179.09 138.03 178.90 137.27 C 178.71 136.50 177.94 136.04 177.17 136.23 L 176.19 136.48 C 175.43 136.67 174.96 137.44 175.15 138.20 C 175.35 138.97 176.12 139.43 176.88 139.24 Z M 177.87 138.99 L 178.86 138.74 C 179.62 138.55 180.08 137.77 179.89 137.01 C 179.70 136.25 178.92 135.79 178.16 135.98 L 177.17 136.23 C 176.40 136.43 175.94 137.20 176.14 137.97 C 176.33 138.73 177.11 139.19 177.87 138.99 Z M 178.87 138.74 L 179.81 138.49 C 180.58 138.30 181.03 137.52 180.84 136.76 C 180.64 136.00 179.86 135.54 179.10 135.74 L 178.15 135.98 C 177.39 136.18 176.93 136.96 177.13 137.72 C 177.33 138.48 178.10 138.94 178.87 138.74 Z M 179.82 138.49 L 180.58 138.29 C 181.34 138.10 181.80 137.32 181.60 136.56 C 181.40 135.79 180.63 135.34 179.86 135.54 L 179.10 135.74 C 178.34 135.93 177.88 136.71 178.08 137.47 C 178.28 138.24 179.06 138.69 179.82 138.49 Z"
      fill="black"
      fill-rule="nonzero" /><path d="M 138.98 159.54 L 138.11 160.13 C 137.38 160.62 137.19 161.61 137.68 162.34 C 138.17 163.07 139.17 163.26 139.90 162.77 L 140.77 162.18 C 141.50 161.69 141.69 160.70 141.20 159.97 C 140.70 159.24 139.71 159.04 138.98 159.54 Z M 138.06 160.16 L 137.23 160.77 C 136.52 161.29 136.36 162.29 136.89 163.01 C 137.41 163.72 138.41 163.87 139.12 163.35 L 139.95 162.74 C 140.66 162.22 140.82 161.21 140.29 160.50 C 139.77 159.79 138.77 159.64 138.06 160.16 Z M 137.12 160.85 L 136.38 161.50 C 135.71 162.08 135.64 163.09 136.23 163.76 C 136.81 164.43 137.82 164.50 138.49 163.91 L 139.23 163.27 C 139.90 162.68 139.97 161.67 139.38 161.00 C 138.80 160.33 137.79 160.27 137.12 160.85 Z M 136.22 161.65 L 135.61 162.36 C 135.02 163.03 135.10 164.05 135.77 164.63 C 136.44 165.21 137.46 165.14 138.04 164.46 L 138.65 163.76 C 139.23 163.09 139.16 162.07 138.49 161.49 C 137.81 160.91 136.80 160.98 136.22 161.65 Z M 135.42 162.61 L 134.96 163.41 C 134.52 164.19 134.79 165.17 135.57 165.61 C 136.34 166.06 137.33 165.79 137.77 165.01 L 138.22 164.21 C 138.67 163.44 138.40 162.45 137.62 162.01 C 136.85 161.57 135.86 161.84 135.42 162.61 Z M 134.84 163.69 L 134.53 164.58 C 134.24 165.43 134.69 166.35 135.54 166.64 C 136.39 166.92 137.30 166.47 137.59 165.63 L 137.90 164.73 C 138.19 163.89 137.73 162.97 136.89 162.68 C 136.04 162.39 135.12 162.85 134.84 163.69 Z M 134.47 164.81 L 134.28 165.80 C 134.12 166.68 134.70 167.53 135.58 167.69 C 136.46 167.86 137.31 167.28 137.47 166.40 L 137.66 165.40 C 137.82 164.52 137.24 163.68 136.36 163.51 C 135.48 163.35 134.63 163.93 134.47 164.81 Z M 134.26 165.95 L 134.16 167.05 C 134.08 167.95 134.73 168.74 135.63 168.82 C 136.52 168.90 137.31 168.24 137.39 167.35 L 137.50 166.25 C 137.58 165.35 136.92 164.56 136.02 164.48 C 135.13 164.40 134.34 165.06 134.26 165.95 Z M 134.15 167.13 L 134.11 168.11 C 134.07 169.01 134.77 169.77 135.67 169.80 C 136.57 169.84 137.33 169.14 137.36 168.24 L 137.40 167.26 C 137.44 166.37 136.74 165.61 135.84 165.57 C 134.94 165.54 134.19 166.24 134.15 167.13 Z M 134.11 168.18 L 134.11 169.19 C 134.11 170.09 134.83 170.82 135.73 170.82 C 136.63 170.82 137.36 170.09 137.36 169.19 L 137.37 168.18 C 137.37 167.28 136.64 166.55 135.74 166.55 C 134.84 166.55 134.11 167.28 134.11 168.18 Z M 134.11 169.26 L 134.15 170.28 C 134.18 171.18 134.94 171.88 135.84 171.85 C 136.74 171.81 137.44 171.06 137.40 170.16 L 137.36 169.13 C 137.33 168.23 136.57 167.53 135.67 167.56 C 134.77 167.60 134.07 168.36 134.11 169.26 Z M 134.15 170.36 L 134.24 171.37 C 134.31 172.27 135.10 172.93 136.00 172.86 C 136.90 172.78 137.56 171.99 137.49 171.09 L 137.40 170.08 C 137.32 169.19 136.54 168.52 135.64 168.60 C 134.74 168.67 134.07 169.46 134.15 170.36 Z M 134.25 171.46 L 134.38 172.42 C 134.51 173.31 135.33 173.94 136.23 173.81 C 137.12 173.68 137.74 172.86 137.61 171.97 L 137.48 171.00 C 137.35 170.11 136.52 169.49 135.63 169.61 C 134.74 169.74 134.12 170.57 134.25 171.46 Z M 134.41 172.55 L 134.64 173.61 C 134.84 174.49 135.71 175.04 136.58 174.85 C 137.46 174.65 138.02 173.78 137.82 172.90 L 137.59 171.84 C 137.39 170.96 136.52 170.41 135.65 170.60 C 134.77 170.80 134.21 171.67 134.41 172.55 Z M 134.68 173.75 L 134.99 174.71 C 135.26 175.57 136.18 176.04 137.03 175.77 C 137.89 175.50 138.36 174.58 138.09 173.73 L 137.78 172.76 C 137.51 171.91 136.60 171.43 135.74 171.71 C 134.88 171.98 134.41 172.89 134.68 173.75 Z M 135.04 174.85 L 135.41 175.73 C 135.76 176.56 136.71 176.95 137.53 176.61 C 138.36 176.26 138.75 175.31 138.41 174.48 L 138.04 173.60 C 137.69 172.77 136.74 172.38 135.91 172.72 C 135.09 173.07 134.70 174.02 135.04 174.85 Z M 135.47 175.85 L 135.90 176.68 C 136.30 177.48 137.28 177.79 138.07 177.38 C 138.87 176.98 139.19 176.00 138.78 175.21 L 138.35 174.37 C 137.94 173.58 136.97 173.26 136.17 173.67 C 135.38 174.08 135.06 175.05 135.47 175.85 Z M 135.95 176.77 L 136.46 177.62 C 136.92 178.39 137.91 178.64 138.68 178.18 C 139.44 177.72 139.69 176.73 139.23 175.97 L 138.72 175.11 C 138.26 174.35 137.27 174.10 136.51 174.56 C 135.74 175.02 135.50 176.01 135.95 176.77 Z M 136.53 177.70 L 137.09 178.52 C 137.59 179.25 138.59 179.44 139.32 178.94 C 140.05 178.43 140.23 177.44 139.73 176.71 L 139.17 175.89 C 138.66 175.16 137.67 174.97 136.94 175.48 C 136.21 175.98 136.03 176.97 136.53 177.70 Z M 137.16 178.59 L 137.77 179.38 C 138.31 180.08 139.31 180.20 140.01 179.66 C 140.70 179.12 140.82 178.12 140.28 177.42 L 139.67 176.64 C 139.13 175.94 138.13 175.82 137.43 176.36 C 136.74 176.90 136.62 177.90 137.16 178.59 Z M 137.84 179.44 L 138.50 180.20 C 139.07 180.86 140.07 180.93 140.73 180.35 C 141.39 179.78 141.46 178.78 140.88 178.12 L 140.22 177.36 C 139.64 176.71 138.64 176.64 137.99 177.21 C 137.33 177.79 137.26 178.79 137.84 179.44 Z M 138.57 180.25 L 139.27 180.98 C 139.87 181.60 140.87 181.62 141.49 181.01 C 142.11 180.41 142.12 179.42 141.52 178.80 L 140.81 178.07 C 140.21 177.45 139.22 177.44 138.60 178.04 C 137.98 178.64 137.96 179.63 138.57 180.25 Z M 139.34 181.03 L 140.08 181.71 C 140.71 182.30 141.69 182.26 142.27 181.63 C 142.86 181.00 142.82 180.02 142.19 179.44 L 141.45 178.75 C 140.82 178.17 139.84 178.21 139.26 178.84 C 138.68 179.47 138.71 180.45 139.34 181.03 Z M 140.16 181.76 L 140.93 182.39 C 141.58 182.93 142.55 182.84 143.08 182.19 C 143.62 181.53 143.53 180.57 142.88 180.03 L 142.11 179.39 C 141.46 178.85 140.49 178.95 139.95 179.60 C 139.42 180.25 139.51 181.22 140.16 181.76 Z M 141.01 182.44 L 141.82 183.02 C 142.50 183.51 143.45 183.36 143.94 182.68 C 144.43 182.01 144.28 181.06 143.60 180.57 L 142.79 179.98 C 142.11 179.49 141.17 179.64 140.67 180.32 C 140.18 181.00 140.33 181.95 141.01 182.44 Z M 141.92 183.07 L 142.79 183.60 C 143.49 184.04 144.42 183.82 144.85 183.12 C 145.29 182.41 145.07 181.49 144.37 181.06 L 143.50 180.52 C 142.79 180.08 141.87 180.30 141.43 181.01 C 141.00 181.71 141.22 182.63 141.92 183.07 Z M 142.90 183.65 L 143.78 184.10 C 144.51 184.47 145.40 184.19 145.78 183.46 C 146.15 182.73 145.86 181.84 145.14 181.47 L 144.25 181.01 C 143.53 180.64 142.63 180.93 142.26 181.65 C 141.89 182.38 142.17 183.27 142.90 183.65 Z M 143.90 184.13 L 144.80 184.51 C 145.55 184.82 146.41 184.46 146.71 183.71 C 147.02 182.97 146.67 182.11 145.92 181.80 L 145.02 181.43 C 144.27 181.12 143.42 181.48 143.11 182.22 C 142.80 182.97 143.15 183.83 143.90 184.13 Z M 144.92 184.54 L 145.87 184.84 C 146.63 185.08 147.44 184.67 147.69 183.90 C 147.93 183.14 147.51 182.32 146.75 182.08 L 145.81 181.78 C 145.04 181.53 144.23 181.95 143.98 182.71 C 143.74 183.47 144.16 184.29 144.92 184.54 Z M 145.95 184.86 L 146.92 185.10 C 147.69 185.30 148.48 184.83 148.67 184.06 C 148.87 183.29 148.40 182.50 147.63 182.31 L 146.66 182.06 C 145.89 181.87 145.11 182.33 144.91 183.11 C 144.72 183.88 145.18 184.66 145.95 184.86 Z M 146.98 185.11 L 147.96 185.32 C 148.73 185.48 149.49 184.99 149.66 184.21 C 149.82 183.44 149.33 182.68 148.56 182.51 L 147.58 182.30 C 146.80 182.14 146.04 182.63 145.87 183.41 C 145.71 184.18 146.20 184.94 146.98 185.11 Z M 147.97 185.32 L 148.46 185.41 C 149.23 185.57 149.98 185.07 150.14 184.29 C 150.29 183.52 149.79 182.77 149.02 182.61 L 148.54 182.51 C 147.76 182.36 147.01 182.86 146.85 183.63 C 146.70 184.41 147.20 185.16 147.97 185.32 Z"
      fill="black"
      fill-rule="nonzero" /><path d="M 146.42 164.07 L 147.05 163.43 C 147.65 162.81 147.64 161.82 147.02 161.21 C 146.40 160.61 145.41 160.62 144.80 161.24 L 144.17 161.88 C 143.57 162.50 143.58 163.50 144.20 164.10 C 144.82 164.71 145.82 164.69 146.42 164.07 Z M 147.00 163.52 L 147.68 162.90 C 148.33 162.31 148.38 161.30 147.79 160.64 C 147.20 159.99 146.19 159.94 145.54 160.53 L 144.85 161.15 C 144.20 161.74 144.15 162.75 144.74 163.41 C 145.33 164.06 146.34 164.11 147.00 163.52 Z M 147.55 163.04 L 148.35 162.47 C 149.08 161.95 149.25 160.93 148.73 160.20 C 148.21 159.47 147.19 159.30 146.46 159.82 L 145.66 160.39 C 144.93 160.91 144.76 161.93 145.29 162.66 C 145.81 163.39 146.82 163.56 147.55 163.04 Z M 148.16 162.62 L 149.12 162.12 C 149.94 161.71 150.26 160.71 149.84 159.90 C 149.43 159.09 148.43 158.77 147.62 159.18 L 146.65 159.68 C 145.84 160.09 145.52 161.09 145.93 161.90 C 146.35 162.71 147.35 163.04 148.16 162.62 Z M 148.92 162.24 L 149.92 161.89 C 150.79 161.59 151.26 160.64 150.95 159.76 C 150.65 158.89 149.70 158.42 148.83 158.72 L 147.83 159.07 C 146.95 159.37 146.49 160.33 146.79 161.20 C 147.09 162.07 148.04 162.54 148.92 162.24 Z M 149.77 161.95 L 150.71 161.72 C 151.62 161.50 152.17 160.59 151.96 159.68 C 151.74 158.78 150.83 158.22 149.92 158.44 L 148.98 158.67 C 148.07 158.89 147.52 159.80 147.73 160.70 C 147.95 161.61 148.86 162.16 149.77 161.95 Z M 150.62 161.74 L 151.63 161.56 C 152.55 161.39 153.16 160.51 153.00 159.60 C 152.83 158.68 151.95 158.07 151.04 158.24 L 150.02 158.42 C 149.10 158.58 148.49 159.46 148.66 160.38 C 148.82 161.30 149.70 161.91 150.62 161.74 Z M 151.57 161.57 L 152.61 161.43 C 153.54 161.30 154.18 160.45 154.06 159.52 C 153.93 158.60 153.08 157.95 152.15 158.08 L 151.10 158.22 C 150.18 158.35 149.53 159.20 149.66 160.13 C 149.79 161.05 150.64 161.70 151.57 161.57 Z M 152.56 161.44 L 153.60 161.32 C 154.53 161.22 155.21 160.39 155.11 159.46 C 155.01 158.53 154.17 157.86 153.24 157.96 L 152.20 158.07 C 151.27 158.17 150.60 159.00 150.70 159.93 C 150.80 160.86 151.63 161.54 152.56 161.44 Z M 153.57 161.33 L 154.56 161.24 C 155.50 161.16 156.19 160.34 156.11 159.41 C 156.03 158.47 155.20 157.78 154.27 157.86 L 153.27 157.95 C 152.34 158.03 151.65 158.85 151.73 159.79 C 151.81 160.72 152.64 161.41 153.57 161.33 Z M 154.54 161.25 L 155.52 161.18 C 156.45 161.11 157.15 160.29 157.08 159.36 C 157.01 158.42 156.20 157.72 155.26 157.79 L 154.29 157.86 C 153.36 157.93 152.65 158.74 152.72 159.68 C 152.79 160.62 153.61 161.32 154.54 161.25 Z M 155.50 161.18 L 156.71 161.10 C 157.64 161.04 158.35 160.23 158.29 159.29 C 158.23 158.35 157.42 157.64 156.48 157.70 L 155.28 157.78 C 154.34 157.85 153.63 158.66 153.69 159.59 C 153.75 160.53 154.56 161.24 155.50 161.18 Z M 156.69 161.10 L 157.70 161.05 C 158.63 160.99 159.35 160.19 159.30 159.25 C 159.25 158.31 158.44 157.59 157.51 157.65 L 156.50 157.70 C 155.56 157.75 154.84 158.56 154.90 159.50 C 154.95 160.44 155.75 161.15 156.69 161.10 Z M 157.68 161.05 L 158.57 161.01 C 159.50 160.96 160.23 160.17 160.19 159.23 C 160.14 158.29 159.35 157.56 158.41 157.60 L 157.52 157.64 C 156.58 157.69 155.86 158.48 155.90 159.42 C 155.94 160.36 156.74 161.09 157.68 161.05 Z M 158.55 161.01 L 159.40 160.97 C 160.34 160.94 161.07 160.14 161.04 159.20 C 161.00 158.26 160.21 157.53 159.27 157.57 L 158.42 157.60 C 157.48 157.64 156.75 158.43 156.78 159.37 C 156.82 160.31 157.61 161.04 158.55 161.01 Z M 159.40 160.97 L 160.35 160.94 C 161.29 160.90 162.02 160.11 161.99 159.17 C 161.95 158.23 161.16 157.50 160.22 157.53 L 159.27 157.57 C 158.33 157.60 157.60 158.39 157.63 159.33 C 157.67 160.27 158.46 161.01 159.40 160.97 Z M 160.34 160.94 L 161.33 160.91 C 162.27 160.87 163.01 160.09 162.98 159.15 C 162.94 158.21 162.16 157.47 161.22 157.50 L 160.23 157.53 C 159.29 157.56 158.55 158.35 158.58 159.29 C 158.61 160.23 159.40 160.97 160.34 160.94 Z M 161.32 160.91 L 162.34 160.88 C 163.29 160.85 164.03 160.07 164.00 159.13 C 163.98 158.19 163.20 157.45 162.25 157.47 L 161.23 157.50 C 160.29 157.53 159.55 158.31 159.57 159.25 C 159.60 160.19 160.38 160.93 161.32 160.91 Z M 162.33 160.88 L 163.35 160.86 C 164.29 160.84 165.04 160.07 165.02 159.13 C 165.01 158.19 164.23 157.44 163.29 157.45 L 162.27 157.47 C 161.33 157.49 160.58 158.27 160.60 159.21 C 160.61 160.15 161.39 160.90 162.33 160.88 Z M 163.34 160.86 L 164.32 160.85 C 165.26 160.84 166.01 160.07 166.00 159.13 C 165.99 158.19 165.22 157.44 164.28 157.45 L 163.30 157.46 C 162.36 157.47 161.61 158.23 161.62 159.18 C 161.63 160.12 162.40 160.87 163.34 160.86 Z M 164.31 160.85 L 165.31 160.84 C 166.25 160.84 167.00 160.07 167.00 159.13 C 166.99 158.19 166.23 157.44 165.29 157.44 L 164.29 157.45 C 163.35 157.45 162.59 158.22 162.60 159.16 C 162.60 160.10 163.37 160.85 164.31 160.85 Z M 165.30 160.84 L 166.32 160.84 C 167.26 160.84 168.02 160.08 168.02 159.14 C 168.01 158.20 167.25 157.44 166.31 157.44 L 165.30 157.44 C 164.36 157.44 163.60 158.21 163.60 159.15 C 163.60 160.08 164.36 160.84 165.30 160.84 Z M 166.31 160.84 L 167.34 160.84 C 168.27 160.84 169.04 160.08 169.04 159.14 C 169.04 158.20 168.27 157.44 167.34 157.44 L 166.31 157.44 C 165.38 157.44 164.61 158.20 164.61 159.14 C 164.61 160.08 165.38 160.84 166.31 160.84 Z M 167.34 160.84 L 168.33 160.84 C 169.27 160.84 170.03 160.08 170.03 159.14 C 170.03 158.20 169.27 157.44 168.33 157.44 L 167.34 157.44 C 166.40 157.44 165.64 158.20 165.64 159.14 C 165.64 160.08 166.40 160.84 167.34 160.84 Z M 168.33 160.84 L 169.33 160.84 C 170.27 160.84 171.03 160.08 171.03 159.14 C 171.03 158.20 170.27 157.44 169.33 157.44 L 168.33 157.44 C 167.39 157.44 166.63 158.20 166.63 159.14 C 166.63 160.08 167.39 160.84 168.33 160.84 Z M 169.33 160.84 L 170.33 160.84 C 171.27 160.84 172.03 160.08 172.03 159.14 C 172.03 158.20 171.27 157.45 170.33 157.45 L 169.33 157.45 C 168.39 157.45 167.63 158.20 167.63 159.14 C 167.63 160.08 168.39 160.84 169.33 160.84 Z M 170.33 160.83 L 171.34 160.83 C 172.27 160.83 173.03 160.08 173.03 159.14 C 173.03 158.21 172.27 157.45 171.34 157.45 L 170.33 157.45 C 169.40 157.45 168.64 158.21 168.64 159.14 C 168.64 160.08 169.40 160.83 170.33 160.83 Z M 171.34 160.83 L 172.33 160.83 C 173.26 160.83 174.02 160.07 174.02 159.14 C 174.02 158.21 173.26 157.45 172.33 157.45 L 171.34 157.45 C 170.40 157.45 169.65 158.21 169.65 159.14 C 169.65 160.07 170.40 160.83 171.34 160.83 Z M 172.33 160.83 L 173.31 160.83 C 174.25 160.83 175.00 160.07 175.00 159.14 C 175.00 158.21 174.25 157.45 173.31 157.45 L 172.33 157.45 C 171.39 157.45 170.64 158.21 170.64 159.14 C 170.64 160.07 171.39 160.83 172.33 160.83 Z M 173.31 160.83 L 174.31 160.83 C 175.24 160.83 176.00 160.07 176.00 159.14 C 176.00 158.21 175.24 157.45 174.31 157.45 L 173.31 157.45 C 172.38 157.45 171.63 158.21 171.63 159.14 C 171.63 160.07 172.38 160.83 173.31 160.83 Z M 174.31 160.83 L 175.32 160.83 C 176.25 160.83 177.01 160.07 177.01 159.14 C 177.01 158.21 176.25 157.46 175.32 157.46 L 174.31 157.46 C 173.38 157.46 172.63 158.21 172.63 159.14 C 172.63 160.07 173.38 160.83 174.31 160.83 Z M 175.32 160.82 L 176.34 160.82 C 177.27 160.82 178.02 160.07 178.02 159.14 C 178.02 158.21 177.27 157.46 176.34 157.46 L 175.32 157.46 C 174.39 157.46 173.64 158.21 173.64 159.14 C 173.64 160.07 174.39 160.82 175.32 160.82 Z M 176.34 160.82 L 177.35 160.82 C 178.28 160.82 179.03 160.07 179.04 159.15 C 179.04 158.22 178.29 157.46 177.36 157.46 L 176.34 157.46 C 175.42 157.46 174.66 158.21 174.66 159.14 C 174.66 160.07 175.41 160.82 176.34 160.82 Z M 177.34 160.82 L 178.36 160.83 C 179.28 160.83 180.04 160.09 180.05 159.16 C 180.06 158.24 179.31 157.48 178.38 157.47 L 177.37 157.47 C 176.44 157.46 175.69 158.20 175.68 159.13 C 175.67 160.06 176.42 160.81 177.34 160.82 Z M 178.34 160.82 L 179.34 160.84 C 180.27 160.86 181.03 160.12 181.05 159.20 C 181.06 158.27 180.33 157.51 179.40 157.49 L 178.40 157.48 C 177.48 157.46 176.71 158.20 176.70 159.12 C 176.68 160.04 177.42 160.81 178.34 160.82 Z M 179.32 160.84 L 180.29 160.87 C 181.21 160.90 181.98 160.18 182.01 159.26 C 182.04 158.33 181.32 157.56 180.40 157.53 L 179.43 157.50 C 178.51 157.47 177.73 158.19 177.70 159.11 C 177.67 160.03 178.39 160.81 179.32 160.84 Z M 180.25 160.87 L 181.30 160.93 C 182.22 160.98 183.01 160.27 183.06 159.35 C 183.11 158.43 182.41 157.65 181.49 157.60 L 180.44 157.54 C 179.52 157.48 178.73 158.19 178.68 159.11 C 178.63 160.03 179.33 160.81 180.25 160.87 Z M 181.26 160.92 L 182.28 161.00 C 183.19 161.08 184.00 160.40 184.07 159.49 C 184.15 158.57 183.47 157.77 182.56 157.69 L 181.54 157.60 C 180.62 157.53 179.82 158.21 179.74 159.12 C 179.66 160.04 180.34 160.84 181.26 160.92 Z M 182.23 161.00 L 183.20 161.11 C 184.11 161.21 184.93 160.56 185.04 159.65 C 185.14 158.74 184.49 157.91 183.58 157.81 L 182.61 157.70 C 181.70 157.59 180.87 158.25 180.77 159.16 C 180.66 160.07 181.32 160.89 182.23 161.00 Z M 183.15 161.10 L 184.08 161.23 C 184.98 161.37 185.82 160.74 185.96 159.84 C 186.09 158.93 185.47 158.09 184.56 157.96 L 183.63 157.82 C 182.73 157.69 181.88 158.31 181.75 159.22 C 181.62 160.12 182.24 160.96 183.15 161.10 Z M 184.02 161.22 L 184.94 161.39 C 185.84 161.55 186.70 160.96 186.86 160.07 C 187.03 159.17 186.44 158.31 185.54 158.14 L 184.62 157.97 C 183.72 157.81 182.86 158.40 182.70 159.30 C 182.53 160.19 183.12 161.05 184.02 161.22 Z M 184.86 161.37 L 185.79 161.58 C 186.67 161.79 187.56 161.25 187.77 160.36 C 187.98 159.48 187.43 158.59 186.55 158.38 L 185.62 158.17 C 184.74 157.96 183.85 158.51 183.64 159.39 C 183.43 160.27 183.98 161.16 184.86 161.37 Z M 185.70 161.55 L 186.67 161.84 C 187.54 162.10 188.45 161.60 188.71 160.74 C 188.96 159.87 188.47 158.96 187.60 158.70 L 186.63 158.41 C 185.77 158.16 184.86 158.65 184.60 159.52 C 184.34 160.39 184.84 161.30 185.70 161.55 Z M 186.59 161.81 L 187.61 162.17 C 188.45 162.48 189.39 162.03 189.69 161.19 C 190.00 160.34 189.55 159.40 188.71 159.10 L 187.69 158.74 C 186.84 158.43 185.90 158.87 185.60 159.72 C 185.30 160.57 185.74 161.50 186.59 161.81 Z M 187.54 162.14 L 188.41 162.50 C 189.24 162.84 190.19 162.44 190.53 161.61 C 190.87 160.78 190.48 159.83 189.65 159.49 L 188.77 159.13 C 187.94 158.79 186.99 159.19 186.65 160.02 C 186.31 160.85 186.71 161.80 187.54 162.14 Z M 188.35 162.47 L 189.26 162.88 C 190.07 163.26 191.03 162.90 191.41 162.09 C 191.78 161.28 191.43 160.32 190.62 159.94 L 189.71 159.52 C 188.90 159.15 187.93 159.50 187.56 160.32 C 187.18 161.13 187.54 162.09 188.35 162.47 Z M 189.19 162.85 L 190.10 163.32 C 190.89 163.73 191.87 163.43 192.28 162.64 C 192.69 161.85 192.39 160.87 191.60 160.46 L 190.68 159.98 C 189.89 159.57 188.92 159.87 188.50 160.67 C 188.09 161.46 188.40 162.43 189.19 162.85 Z M 190.02 163.27 L 190.90 163.80 C 191.66 164.26 192.65 164.01 193.11 163.25 C 193.57 162.49 193.32 161.50 192.56 161.04 L 191.68 160.51 C 190.91 160.05 189.92 160.30 189.47 161.06 C 189.01 161.82 189.26 162.81 190.02 163.27 Z M 190.81 163.73 L 191.64 164.32 C 192.36 164.83 193.37 164.66 193.88 163.93 C 194.39 163.21 194.21 162.21 193.49 161.70 L 192.66 161.11 C 191.93 160.60 190.93 160.77 190.42 161.49 C 189.91 162.22 190.08 163.22 190.81 163.73 Z M 191.53 164.22 L 192.33 164.91 C 192.99 165.48 194.00 165.40 194.58 164.73 C 195.15 164.06 195.07 163.06 194.41 162.48 L 193.61 161.80 C 192.94 161.22 191.93 161.30 191.35 161.97 C 190.78 162.64 190.86 163.65 191.53 164.22 Z M 192.21 164.78 L 192.90 165.52 C 193.50 166.16 194.50 166.19 195.14 165.59 C 195.78 164.99 195.82 163.99 195.22 163.35 L 194.52 162.61 C 193.92 161.97 192.92 161.94 192.28 162.54 C 191.64 163.13 191.61 164.14 192.21 164.78 Z M 192.79 165.37 L 193.37 166.16 C 193.88 166.86 194.87 167.01 195.57 166.50 C 196.27 165.98 196.43 165.00 195.91 164.29 L 195.33 163.50 C 194.82 162.80 193.83 162.65 193.13 163.16 C 192.42 163.68 192.27 164.66 192.79 165.37 Z M 193.27 165.98 L 193.73 166.82 C 194.14 167.58 195.10 167.85 195.85 167.44 C 196.61 167.02 196.89 166.07 196.47 165.31 L 196.01 164.47 C 195.59 163.71 194.64 163.44 193.88 163.85 C 193.13 164.27 192.85 165.22 193.27 165.98 Z M 193.65 166.62 L 193.98 167.51 C 194.29 168.31 195.19 168.71 195.99 168.40 C 196.80 168.10 197.20 167.20 196.89 166.40 L 196.55 165.51 C 196.25 164.71 195.35 164.30 194.55 164.61 C 193.74 164.92 193.34 165.82 193.65 166.62 Z M 193.93 167.29 L 194.14 168.22 C 194.33 169.06 195.16 169.58 195.99 169.39 C 196.82 169.20 197.35 168.37 197.16 167.54 L 196.94 166.61 C 196.76 165.78 195.93 165.25 195.10 165.44 C 194.26 165.63 193.74 166.46 193.93 167.29 Z M 194.12 168.01 L 194.21 168.99 C 194.28 169.83 195.02 170.46 195.87 170.38 C 196.71 170.31 197.34 169.57 197.26 168.72 L 197.18 167.75 C 197.10 166.90 196.36 166.28 195.52 166.35 C 194.67 166.43 194.05 167.17 194.12 168.01 Z M 194.21 168.79 L 194.17 169.81 C 194.14 170.65 194.79 171.36 195.63 171.39 C 196.47 171.43 197.18 170.78 197.21 169.94 L 197.26 168.92 C 197.29 168.08 196.64 167.37 195.80 167.33 C 194.96 167.30 194.25 167.95 194.21 168.79 Z M 194.20 169.64 L 194.03 170.70 C 193.90 171.52 194.46 172.30 195.29 172.43 C 196.11 172.56 196.89 172.00 197.02 171.17 L 197.19 170.11 C 197.32 169.28 196.75 168.51 195.93 168.38 C 195.10 168.25 194.33 168.81 194.20 169.64 Z M 194.07 170.56 L 193.82 171.52 C 193.61 172.33 194.10 173.15 194.90 173.35 C 195.71 173.56 196.53 173.08 196.73 172.27 L 196.98 171.31 C 197.19 170.51 196.70 169.69 195.90 169.48 C 195.10 169.27 194.28 169.76 194.07 170.56 Z M 193.86 171.42 L 193.53 172.39 C 193.27 173.18 193.69 174.02 194.47 174.29 C 195.26 174.55 196.11 174.13 196.37 173.35 L 196.69 172.38 C 196.96 171.59 196.54 170.74 195.75 170.48 C 194.97 170.22 194.12 170.64 193.86 171.42 Z M 193.57 172.31 L 193.18 173.27 C 192.88 174.03 193.24 174.90 194.01 175.21 C 194.77 175.51 195.64 175.15 195.95 174.38 L 196.33 173.43 C 196.64 172.67 196.27 171.80 195.51 171.49 C 194.75 171.18 193.88 171.55 193.57 172.31 Z M 193.22 173.20 L 192.79 174.11 C 192.45 174.85 192.77 175.73 193.51 176.08 C 194.25 176.43 195.13 176.11 195.48 175.37 L 195.91 174.45 C 196.25 173.71 195.93 172.83 195.19 172.48 C 194.45 172.14 193.57 172.46 193.22 173.20 Z M 192.83 174.05 L 192.38 174.89 C 192.00 175.61 192.28 176.51 192.99 176.89 C 193.71 177.27 194.61 177.00 194.99 176.28 L 195.44 175.43 C 195.82 174.71 195.55 173.82 194.83 173.44 C 194.11 173.05 193.22 173.33 192.83 174.05 Z M 192.43 174.82 L 191.88 175.73 C 191.45 176.43 191.67 177.33 192.37 177.75 C 193.06 178.18 193.97 177.96 194.39 177.26 L 194.94 176.35 C 195.37 175.66 195.14 174.75 194.45 174.33 C 193.76 173.91 192.85 174.13 192.43 174.82 Z M 191.93 175.66 L 191.34 176.49 C 190.88 177.16 191.04 178.07 191.70 178.54 C 192.37 179.00 193.28 178.84 193.75 178.18 L 194.33 177.34 C 194.80 176.68 194.64 175.76 193.98 175.30 C 193.31 174.83 192.40 174.99 191.93 175.66 Z M 191.40 176.43 L 190.80 177.18 C 190.30 177.82 190.40 178.74 191.04 179.24 C 191.67 179.74 192.59 179.63 193.10 179.00 L 193.69 178.25 C 194.20 177.61 194.09 176.69 193.45 176.19 C 192.82 175.69 191.90 175.79 191.40 176.43 Z M 190.84 177.14 L 190.22 177.85 C 189.70 178.47 189.77 179.39 190.38 179.92 C 190.99 180.44 191.92 180.37 192.44 179.76 L 193.06 179.04 C 193.58 178.43 193.51 177.51 192.90 176.98 C 192.29 176.46 191.36 176.53 190.84 177.14 Z M 190.24 177.84 L 189.60 178.56 C 189.06 179.17 189.11 180.09 189.72 180.62 C 190.32 181.16 191.24 181.11 191.78 180.50 L 192.42 179.78 C 192.96 179.17 192.91 178.25 192.30 177.72 C 191.70 177.18 190.78 177.23 190.24 177.84 Z M 189.61 178.55 L 188.93 179.29 C 188.39 179.88 188.43 180.80 189.02 181.35 C 189.62 181.89 190.54 181.85 191.09 181.26 L 191.76 180.52 C 192.31 179.93 192.27 179.00 191.67 178.46 C 191.08 177.91 190.15 177.95 189.61 178.55 Z M 188.96 179.26 L 188.26 179.99 C 187.70 180.57 187.72 181.49 188.30 182.05 C 188.88 182.61 189.81 182.59 190.36 182.01 L 191.06 181.28 C 191.62 180.70 191.60 179.78 191.02 179.22 C 190.44 178.66 189.51 178.68 188.96 179.26 Z M 188.29 179.95 L 187.58 180.65 C 187.00 181.22 186.99 182.14 187.55 182.72 C 188.11 183.29 189.03 183.31 189.61 182.74 L 190.33 182.05 C 190.91 181.48 190.92 180.56 190.36 179.98 C 189.79 179.40 188.87 179.39 188.29 179.95 Z M 187.62 180.61 L 186.88 181.28 C 186.27 181.81 186.22 182.73 186.76 183.33 C 187.29 183.94 188.21 183.99 188.82 183.45 L 189.56 182.79 C 190.17 182.25 190.22 181.33 189.68 180.73 C 189.15 180.13 188.23 180.07 187.62 180.61 Z M 186.93 181.23 L 186.15 181.86 C 185.53 182.37 185.43 183.29 185.94 183.91 C 186.45 184.54 187.37 184.63 187.99 184.12 L 188.77 183.50 C 189.39 182.99 189.49 182.07 188.98 181.44 C 188.47 180.82 187.55 180.73 186.93 181.23 Z M 186.20 181.83 L 185.40 182.43 C 184.76 182.91 184.63 183.83 185.12 184.47 C 185.60 185.11 186.51 185.24 187.16 184.75 L 187.95 184.16 C 188.59 183.67 188.72 182.76 188.24 182.12 C 187.75 181.47 186.84 181.34 186.20 181.83 Z M 185.43 182.41 L 184.62 182.99 C 183.96 183.45 183.81 184.36 184.28 185.02 C 184.74 185.67 185.65 185.83 186.31 185.36 L 187.13 184.78 C 187.78 184.31 187.93 183.40 187.47 182.75 C 187.00 182.09 186.09 181.94 185.43 182.41 Z M 184.64 182.97 L 183.82 183.53 C 183.16 183.99 182.99 184.90 183.45 185.56 C 183.90 186.22 184.81 186.39 185.47 185.94 L 186.29 185.37 C 186.95 184.92 187.12 184.01 186.66 183.35 C 186.21 182.69 185.30 182.52 184.64 182.97 Z M 183.84 183.52 L 183.01 184.07 C 182.34 184.52 182.16 185.42 182.60 186.09 C 183.05 186.76 183.95 186.95 184.62 186.50 L 185.45 185.95 C 186.12 185.50 186.31 184.60 185.86 183.93 C 185.42 183.26 184.51 183.07 183.84 183.52 Z M 183.03 184.06 L 182.18 184.60 C 181.50 185.03 181.30 185.93 181.74 186.61 C 182.17 187.29 183.07 187.49 183.75 187.06 L 184.60 186.52 C 185.28 186.08 185.48 185.18 185.05 184.50 C 184.61 183.82 183.71 183.62 183.03 184.06 Z M 182.21 184.58 L 181.35 185.10 C 180.66 185.52 180.44 186.42 180.86 187.11 C 181.28 187.80 182.18 188.02 182.86 187.60 L 183.73 187.07 C 184.42 186.66 184.63 185.76 184.22 185.07 C 183.80 184.38 182.90 184.16 182.21 184.58 Z M 181.38 185.08 L 180.51 185.58 C 179.81 185.98 179.57 186.88 179.97 187.58 C 180.37 188.28 181.27 188.52 181.97 188.12 L 182.84 187.62 C 183.54 187.21 183.78 186.32 183.37 185.62 C 182.97 184.92 182.08 184.68 181.38 185.08 Z M 180.54 185.56 L 179.66 186.04 C 178.95 186.43 178.69 187.31 179.08 188.02 C 179.46 188.73 180.35 189.00 181.06 188.61 L 181.94 188.14 C 182.65 187.75 182.91 186.86 182.52 186.15 C 182.14 185.44 181.25 185.18 180.54 185.56 Z M 179.69 186.02 L 178.80 186.48 C 178.08 186.85 177.80 187.73 178.17 188.45 C 178.54 189.17 179.42 189.46 180.14 189.09 L 181.03 188.63 C 181.75 188.26 182.04 187.38 181.67 186.66 C 181.30 185.94 180.41 185.65 179.69 186.02 Z M 178.83 186.46 L 177.93 186.90 C 177.20 187.25 176.90 188.13 177.25 188.86 C 177.60 189.59 178.48 189.89 179.21 189.54 L 180.11 189.10 C 180.84 188.75 181.15 187.87 180.79 187.14 C 180.44 186.41 179.56 186.11 178.83 186.46 Z M 177.96 186.88 L 177.05 187.30 C 176.31 187.64 175.99 188.51 176.33 189.25 C 176.67 189.99 177.54 190.31 178.28 189.97 L 179.18 189.56 C 179.92 189.22 180.25 188.34 179.91 187.61 C 179.57 186.87 178.70 186.54 177.96 186.88 Z M 177.07 187.28 L 176.16 187.68 C 175.41 188.01 175.07 188.88 175.40 189.62 C 175.72 190.37 176.59 190.71 177.34 190.39 L 178.26 189.99 C 179.00 189.66 179.34 188.79 179.02 188.04 C 178.69 187.30 177.82 186.96 177.07 187.28 Z M 176.18 187.67 L 175.25 188.06 C 174.50 188.37 174.15 189.24 174.46 189.99 C 174.78 190.75 175.64 191.10 176.40 190.79 L 177.32 190.40 C 178.07 190.08 178.43 189.22 178.11 188.46 C 177.80 187.71 176.93 187.35 176.18 187.67 Z M 175.27 188.05 L 174.34 188.42 C 173.58 188.73 173.21 189.60 173.52 190.36 C 173.83 191.11 174.69 191.48 175.45 191.17 L 176.38 190.80 C 177.14 190.49 177.51 189.62 177.20 188.86 C 176.89 188.11 176.03 187.74 175.27 188.05 Z M 174.35 188.42 L 173.43 188.78 C 172.66 189.08 172.29 189.95 172.59 190.71 C 172.89 191.48 173.76 191.85 174.52 191.55 L 175.44 191.18 C 176.21 190.88 176.58 190.01 176.28 189.25 C 175.98 188.49 175.11 188.11 174.35 188.42 Z M 173.43 188.77 L 172.51 189.13 C 171.74 189.43 171.36 190.29 171.66 191.06 C 171.96 191.83 172.82 192.21 173.59 191.91 L 174.51 191.56 C 175.28 191.26 175.66 190.39 175.36 189.63 C 175.07 188.86 174.20 188.47 173.43 188.77 Z M 172.52 189.12 L 171.59 189.47 C 170.81 189.77 170.42 190.63 170.72 191.40 C 171.01 192.18 171.87 192.57 172.65 192.27 L 173.58 191.92 C 174.35 191.63 174.74 190.76 174.45 189.99 C 174.16 189.22 173.29 188.83 172.52 189.12 Z M 171.60 189.46 L 170.65 189.81 C 169.87 190.10 169.47 190.97 169.76 191.75 C 170.05 192.52 170.91 192.92 171.69 192.63 L 172.64 192.28 C 173.42 192.00 173.82 191.13 173.53 190.35 C 173.24 189.57 172.37 189.18 171.60 189.46 Z M 170.66 189.80 L 169.70 190.15 C 168.92 190.43 168.51 191.30 168.80 192.08 C 169.08 192.86 169.95 193.27 170.73 192.99 L 171.68 192.64 C 172.47 192.36 172.87 191.49 172.59 190.71 C 172.31 189.93 171.44 189.52 170.66 189.80 Z M 169.71 190.14 L 168.76 190.48 C 167.97 190.75 167.55 191.62 167.83 192.41 C 168.11 193.20 168.97 193.61 169.76 193.34 L 170.72 193.00 C 171.51 192.72 171.92 191.85 171.65 191.07 C 171.37 190.28 170.50 189.86 169.71 190.14 Z M 168.77 190.46 L 167.81 190.79 C 167.01 191.06 166.59 191.93 166.86 192.72 C 167.13 193.52 168.00 193.95 168.79 193.67 L 169.75 193.35 C 170.55 193.08 170.97 192.21 170.70 191.41 C 170.43 190.62 169.57 190.19 168.77 190.46 Z M 167.83 190.78 L 166.88 191.09 C 166.07 191.35 165.64 192.22 165.90 193.02 C 166.16 193.82 167.03 194.26 167.83 194.00 L 168.78 193.69 C 169.58 193.42 170.02 192.56 169.76 191.76 C 169.49 190.95 168.63 190.51 167.83 190.78 Z M 166.90 191.07 L 165.96 191.37 C 165.15 191.62 164.69 192.48 164.95 193.29 C 165.20 194.10 166.06 194.56 166.87 194.31 L 167.81 194.01 C 168.62 193.76 169.08 192.90 168.82 192.09 C 168.57 191.27 167.71 190.82 166.90 191.07 Z M 165.98 191.35 L 164.99 191.64 C 164.16 191.88 163.69 192.74 163.93 193.56 C 164.17 194.38 165.03 194.85 165.85 194.61 L 166.85 194.32 C 167.67 194.08 168.14 193.22 167.90 192.40 C 167.66 191.58 166.80 191.11 165.98 191.35 Z M 165.01 191.62 L 164.05 191.88 C 163.22 192.10 162.72 192.96 162.95 193.79 C 163.17 194.62 164.02 195.11 164.85 194.89 L 165.82 194.63 C 166.65 194.41 167.14 193.55 166.92 192.72 C 166.70 191.89 165.84 191.40 165.01 191.62 Z M 164.08 191.86 L 163.13 192.10 C 162.29 192.30 161.78 193.15 161.98 193.99 C 162.19 194.83 163.04 195.34 163.88 195.14 L 164.83 194.90 C 165.66 194.70 166.18 193.85 165.97 193.01 C 165.76 192.17 164.92 191.66 164.08 191.86 Z M 163.16 192.08 L 162.24 192.29 C 161.39 192.48 160.86 193.32 161.05 194.17 C 161.24 195.02 162.08 195.55 162.93 195.36 L 163.85 195.15 C 164.70 194.96 165.23 194.12 165.04 193.27 C 164.85 192.42 164.01 191.89 163.16 192.08 Z M 162.26 192.27 L 161.37 192.46 C 160.51 192.64 159.96 193.47 160.13 194.33 C 160.31 195.19 161.15 195.74 162.01 195.56 L 162.91 195.38 C 163.76 195.20 164.31 194.36 164.14 193.50 C 163.96 192.65 163.12 192.10 162.26 192.27 Z M 161.39 192.44 L 160.44 192.62 C 159.57 192.79 159.01 193.62 159.17 194.49 C 159.34 195.35 160.17 195.92 161.04 195.76 L 161.98 195.58 C 162.85 195.41 163.42 194.58 163.25 193.71 C 163.09 192.85 162.25 192.28 161.39 192.44 Z M 160.46 192.61 L 159.43 192.79 C 158.55 192.95 157.97 193.78 158.13 194.65 C 158.28 195.53 159.11 196.11 159.99 195.95 L 161.02 195.77 C 161.89 195.62 162.47 194.78 162.32 193.91 C 162.16 193.04 161.33 192.46 160.46 192.61 Z M 159.44 192.78 L 158.40 192.96 C 157.52 193.10 156.93 193.94 157.07 194.82 C 157.22 195.70 158.06 196.29 158.94 196.14 L 159.97 195.97 C 160.85 195.82 161.45 194.99 161.30 194.11 C 161.15 193.23 160.32 192.63 159.44 192.78 Z M 158.41 192.94 L 157.53 193.09 C 156.64 193.23 156.04 194.07 156.18 194.95 C 156.33 195.84 157.17 196.44 158.05 196.30 L 158.93 196.16 C 159.82 196.01 160.42 195.17 160.27 194.29 C 160.13 193.40 159.29 192.80 158.41 192.94 Z M 157.54 193.07 L 156.60 193.22 C 155.70 193.36 155.09 194.20 155.23 195.09 C 155.37 195.99 156.21 196.60 157.11 196.46 L 158.05 196.31 C 158.94 196.17 159.55 195.33 159.41 194.44 C 159.27 193.54 158.43 192.93 157.54 193.07 Z M 156.60 193.21 L 155.61 193.36 C 154.71 193.49 154.09 194.34 154.23 195.24 C 154.36 196.14 155.21 196.76 156.11 196.62 L 157.10 196.47 C 158.00 196.34 158.62 195.49 158.49 194.59 C 158.35 193.69 157.51 193.07 156.60 193.21 Z M 155.62 193.34 L 154.58 193.50 C 153.67 193.63 153.04 194.47 153.17 195.38 C 153.30 196.29 154.15 196.92 155.06 196.79 L 156.10 196.64 C 157.01 196.50 157.64 195.66 157.51 194.75 C 157.37 193.84 156.53 193.21 155.62 193.34 Z M 154.59 193.48 L 153.50 193.63 C 152.59 193.76 151.95 194.61 152.07 195.53 C 152.20 196.44 153.05 197.08 153.97 196.95 L 155.05 196.80 C 155.97 196.67 156.61 195.83 156.48 194.91 C 156.35 193.99 155.50 193.35 154.59 193.48 Z M 153.51 193.62 L 152.28 193.78 C 151.36 193.90 150.70 194.75 150.83 195.68 C 150.95 196.60 151.80 197.26 152.73 197.13 L 153.96 196.97 C 154.88 196.85 155.53 196.00 155.41 195.07 C 155.29 194.15 154.44 193.50 153.51 193.62 Z M 152.29 193.76 L 150.97 193.93 C 150.03 194.05 149.37 194.91 149.49 195.84 C 149.61 196.78 150.46 197.44 151.40 197.32 L 152.72 197.15 C 153.66 197.03 154.32 196.18 154.20 195.24 C 154.08 194.30 153.22 193.64 152.29 193.76 Z M 150.96 193.91 L 149.77 194.07 C 148.83 194.19 148.16 195.06 148.28 196.00 C 148.41 196.95 149.27 197.62 150.22 197.49 L 151.41 197.34 C 152.35 197.22 153.02 196.35 152.90 195.40 C 152.77 194.46 151.91 193.79 150.96 193.91 Z M 149.75 194.05 L 148.81 194.18 C 147.86 194.32 147.19 195.21 147.33 196.16 C 147.47 197.12 148.35 197.78 149.31 197.64 L 150.24 197.51 C 151.20 197.37 151.86 196.49 151.73 195.53 C 151.59 194.58 150.71 193.91 149.75 194.05 Z M 148.73 194.18 L 148.16 194.28 C 147.20 194.47 146.57 195.39 146.76 196.35 C 146.94 197.31 147.86 197.94 148.82 197.76 L 149.39 197.65 C 150.35 197.47 150.98 196.54 150.80 195.58 C 150.62 194.62 149.69 193.99 148.73 194.18 Z M 146.85 195.33 L 146.81 195.43 C 146.43 196.33 146.86 197.38 147.77 197.76 C 148.68 198.14 149.72 197.71 150.10 196.80 L 150.14 196.71 C 150.52 195.80 150.09 194.76 149.18 194.38 C 148.27 194.00 147.23 194.43 146.85 195.33 Z M 148.33 197.89 L 149.05 197.95 C 150.04 198.02 150.89 197.27 150.96 196.29 C 151.03 195.30 150.29 194.45 149.30 194.38 L 148.58 194.33 C 147.60 194.26 146.74 195.00 146.67 195.99 C 146.60 196.97 147.35 197.83 148.33 197.89 Z M 149.15 197.95 L 150.39 197.97 C 151.38 197.98 152.19 197.19 152.20 196.21 C 152.22 195.22 151.43 194.41 150.44 194.39 L 149.20 194.38 C 148.22 194.36 147.41 195.15 147.39 196.14 C 147.38 197.13 148.17 197.94 149.15 197.95 Z M 150.41 197.97 L 151.79 197.97 C 152.78 197.97 153.58 197.17 153.58 196.18 C 153.58 195.20 152.78 194.40 151.80 194.39 L 150.42 194.39 C 149.43 194.39 148.63 195.19 148.63 196.18 C 148.63 197.17 149.43 197.97 150.41 197.97 Z M 151.79 197.97 L 152.87 197.97 C 153.86 197.97 154.66 197.17 154.66 196.18 C 154.66 195.20 153.86 194.40 152.87 194.40 L 151.79 194.40 C 150.81 194.40 150.01 195.20 150.01 196.18 C 150.01 197.17 150.81 197.97 151.79 197.97 Z M 152.87 197.96 L 153.91 197.96 C 154.90 197.96 155.69 197.17 155.69 196.18 C 155.69 195.20 154.90 194.40 153.91 194.40 L 152.87 194.40 C 151.89 194.40 151.09 195.20 151.09 196.18 C 151.09 197.17 151.89 197.96 152.87 197.96 Z M 153.91 197.96 L 154.91 197.96 C 155.89 197.96 156.68 197.16 156.68 196.18 C 156.68 195.20 155.89 194.41 154.91 194.41 L 153.91 194.41 C 152.93 194.41 152.14 195.20 152.14 196.18 C 152.14 197.16 152.93 197.96 153.91 197.96 Z M 154.91 197.95 L 155.83 197.95 C 156.81 197.95 157.61 197.16 157.61 196.18 C 157.61 195.20 156.81 194.41 155.83 194.41 L 154.91 194.41 C 153.93 194.41 153.13 195.20 153.13 196.18 C 153.13 197.16 153.93 197.95 154.91 197.95 Z M 155.83 197.95 L 156.84 197.95 C 157.81 197.95 158.60 197.16 158.60 196.18 C 158.60 195.21 157.81 194.42 156.84 194.42 L 155.83 194.42 C 154.86 194.42 154.07 195.21 154.07 196.18 C 154.07 197.16 154.86 197.95 155.83 197.95 Z M 156.84 197.94 L 157.87 197.93 C 158.84 197.93 159.62 197.14 159.62 196.17 C 159.61 195.20 158.82 194.42 157.86 194.42 L 156.83 194.43 C 155.86 194.43 155.08 195.22 155.08 196.19 C 155.09 197.16 155.87 197.94 156.84 197.94 Z M 157.89 197.92 L 158.85 197.91 C 159.81 197.89 160.58 197.10 160.56 196.14 C 160.55 195.18 159.76 194.41 158.80 194.42 L 157.84 194.44 C 156.88 194.45 156.11 195.24 156.12 196.20 C 156.13 197.17 156.93 197.93 157.89 197.92 Z M 158.88 197.89 L 159.82 197.86 C 160.78 197.83 161.53 197.03 161.50 196.08 C 161.46 195.13 160.67 194.38 159.71 194.41 L 158.77 194.44 C 157.81 194.47 157.06 195.27 157.09 196.22 C 157.12 197.17 157.92 197.92 158.88 197.89 Z M 159.86 197.85 L 160.81 197.80 C 161.76 197.75 162.48 196.94 162.43 195.99 C 162.38 195.05 161.58 194.32 160.63 194.37 L 159.68 194.42 C 158.73 194.47 158.00 195.28 158.05 196.22 C 158.10 197.17 158.91 197.90 159.86 197.85 Z M 160.85 197.78 L 161.84 197.71 C 162.78 197.64 163.48 196.82 163.41 195.88 C 163.34 194.94 162.52 194.24 161.58 194.31 L 160.59 194.38 C 159.65 194.45 158.95 195.27 159.02 196.21 C 159.09 197.15 159.91 197.86 160.85 197.78 Z M 161.88 197.70 L 162.91 197.59 C 163.84 197.50 164.52 196.67 164.43 195.74 C 164.33 194.81 163.50 194.13 162.57 194.22 L 161.55 194.32 C 160.61 194.42 159.93 195.24 160.03 196.18 C 160.12 197.11 160.95 197.79 161.88 197.70 Z M 162.94 197.58 L 163.94 197.46 C 164.86 197.34 165.52 196.50 165.41 195.58 C 165.29 194.66 164.45 194.00 163.53 194.11 L 162.53 194.24 C 161.61 194.35 160.95 195.19 161.07 196.11 C 161.18 197.04 162.02 197.69 162.94 197.58 Z M 163.97 197.44 L 164.94 197.30 C 165.86 197.17 166.49 196.32 166.36 195.41 C 166.23 194.49 165.38 193.86 164.47 193.99 L 163.50 194.13 C 162.58 194.26 161.95 195.11 162.08 196.02 C 162.21 196.94 163.06 197.57 163.97 197.44 Z M 164.96 197.28 L 165.95 197.13 C 166.86 196.98 167.48 196.13 167.33 195.23 C 167.19 194.32 166.34 193.71 165.43 193.85 L 164.44 194.01 C 163.54 194.15 162.92 195.00 163.07 195.91 C 163.21 196.81 164.06 197.43 164.96 197.28 Z M 165.97 197.11 L 166.98 196.94 C 167.88 196.79 168.48 195.94 168.33 195.04 C 168.17 194.14 167.32 193.54 166.43 193.69 L 165.42 193.87 C 164.52 194.02 163.92 194.87 164.07 195.77 C 164.22 196.66 165.07 197.26 165.97 197.11 Z M 166.99 196.92 L 167.96 196.75 C 168.85 196.59 169.44 195.75 169.29 194.86 C 169.13 193.97 168.28 193.38 167.39 193.54 L 166.42 193.71 C 165.53 193.87 164.94 194.71 165.10 195.60 C 165.25 196.49 166.10 197.08 166.99 196.92 Z M 167.97 196.74 L 168.92 196.56 C 169.80 196.40 170.38 195.56 170.22 194.68 C 170.06 193.80 169.22 193.22 168.34 193.38 L 167.39 193.55 C 166.51 193.71 165.93 194.55 166.09 195.43 C 166.25 196.31 167.09 196.90 167.97 196.74 Z M 168.92 196.55 L 169.90 196.37 C 170.77 196.21 171.34 195.37 171.18 194.50 C 171.02 193.63 170.19 193.05 169.31 193.21 L 168.34 193.39 C 167.47 193.55 166.89 194.39 167.05 195.26 C 167.21 196.13 168.05 196.71 168.92 196.55 Z M 169.90 196.35 L 170.90 196.17 C 171.76 196.01 172.33 195.18 172.17 194.31 C 172.01 193.45 171.18 192.88 170.32 193.04 L 169.32 193.23 C 168.45 193.39 167.88 194.22 168.04 195.08 C 168.20 195.95 169.03 196.52 169.90 196.35 Z M 170.90 196.15 L 171.92 195.96 C 172.78 195.81 173.34 194.98 173.18 194.13 C 173.02 193.27 172.20 192.70 171.35 192.86 L 170.32 193.05 C 169.47 193.21 168.90 194.04 169.06 194.89 C 169.22 195.75 170.04 196.31 170.90 196.15 Z M 171.92 195.95 L 172.88 195.77 C 173.73 195.61 174.29 194.80 174.14 193.95 C 173.98 193.10 173.16 192.54 172.31 192.70 L 171.35 192.88 C 170.50 193.03 169.94 193.85 170.10 194.70 C 170.25 195.55 171.07 196.11 171.92 195.95 Z M 172.88 195.76 L 173.87 195.57 C 174.71 195.42 175.26 194.61 175.11 193.77 C 174.95 192.93 174.14 192.37 173.30 192.53 L 172.32 192.71 C 171.47 192.87 170.92 193.68 171.08 194.52 C 171.23 195.36 172.04 195.91 172.88 195.76 Z M 173.87 195.56 L 174.86 195.37 C 175.70 195.22 176.25 194.42 176.09 193.58 C 175.93 192.75 175.13 192.20 174.30 192.36 L 173.30 192.54 C 172.47 192.70 171.92 193.50 172.08 194.33 C 172.23 195.17 173.03 195.72 173.87 195.56 Z M 174.86 195.36 L 175.86 195.17 C 176.68 195.02 177.22 194.22 177.07 193.39 C 176.91 192.57 176.11 192.02 175.29 192.18 L 174.30 192.37 C 173.47 192.53 172.93 193.32 173.08 194.15 C 173.24 194.98 174.04 195.52 174.86 195.36 Z M 175.86 195.16 L 176.85 194.97 C 177.66 194.81 178.20 194.02 178.04 193.20 C 177.88 192.38 177.09 191.85 176.27 192.00 L 175.28 192.20 C 174.47 192.35 173.93 193.15 174.09 193.96 C 174.25 194.78 175.04 195.32 175.86 195.16 Z M 176.85 194.95 L 177.85 194.76 C 178.66 194.60 179.19 193.81 179.03 193.00 C 178.87 192.19 178.08 191.66 177.27 191.82 L 176.27 192.02 C 175.46 192.18 174.93 192.96 175.09 193.78 C 175.25 194.59 176.04 195.11 176.85 194.95 Z M 177.85 194.75 L 178.83 194.55 C 179.64 194.39 180.16 193.60 180.00 192.80 C 179.83 191.99 179.05 191.47 178.25 191.63 L 177.26 191.83 C 176.46 191.99 175.94 192.78 176.10 193.58 C 176.26 194.39 177.04 194.91 177.85 194.75 Z M 178.83 194.54 L 179.80 194.34 C 180.60 194.18 181.12 193.40 180.96 192.60 C 180.79 191.80 180.02 191.29 179.22 191.45 L 178.24 191.64 C 177.45 191.81 176.93 192.59 177.09 193.38 C 177.25 194.18 178.03 194.70 178.83 194.54 Z M 179.80 194.33 L 180.77 194.13 C 181.56 193.97 182.08 193.20 181.91 192.41 C 181.75 191.61 180.98 191.10 180.19 191.26 L 179.22 191.46 C 178.42 191.62 177.91 192.39 178.07 193.19 C 178.23 193.98 179.01 194.49 179.80 194.33 Z M 180.77 194.13 L 181.74 193.93 C 182.53 193.77 183.04 193.00 182.88 192.21 C 182.72 191.42 181.95 190.91 181.16 191.07 L 180.19 191.27 C 179.40 191.43 178.89 192.20 179.05 192.99 C 179.21 193.78 179.98 194.28 180.77 194.13 Z M 181.74 193.92 L 182.72 193.72 C 183.50 193.57 184.01 192.80 183.86 192.02 C 183.70 191.23 182.93 190.72 182.15 190.88 L 181.17 191.08 C 180.38 191.24 179.87 192.00 180.03 192.79 C 180.19 193.57 180.95 194.08 181.74 193.92 Z M 182.72 193.72 L 183.70 193.52 C 184.48 193.37 184.99 192.61 184.83 191.83 C 184.68 191.04 183.92 190.54 183.14 190.69 L 182.15 190.89 C 181.37 191.04 180.86 191.80 181.02 192.58 C 181.17 193.37 181.93 193.87 182.72 193.72 Z M 183.69 193.52 L 184.68 193.33 C 185.46 193.17 185.96 192.42 185.81 191.64 C 185.66 190.86 184.90 190.35 184.12 190.50 L 183.14 190.70 C 182.36 190.85 181.85 191.60 182.01 192.38 C 182.16 193.16 182.91 193.67 183.69 193.52 Z M 184.67 193.32 L 185.65 193.13 C 186.43 192.99 186.93 192.24 186.79 191.46 C 186.64 190.68 185.89 190.17 185.11 190.32 L 184.13 190.51 C 183.35 190.66 182.84 191.41 182.99 192.18 C 183.14 192.96 183.89 193.47 184.67 193.32 Z M 185.64 193.13 L 186.63 192.95 C 187.41 192.80 187.92 192.06 187.77 191.28 C 187.63 190.51 186.88 189.99 186.11 190.14 L 185.12 190.32 C 184.34 190.47 183.83 191.21 183.97 191.99 C 184.12 192.77 184.87 193.28 185.64 193.13 Z M 186.62 192.95 L 187.61 192.77 C 188.39 192.63 188.90 191.88 188.76 191.11 C 188.62 190.33 187.87 189.82 187.10 189.96 L 186.11 190.14 C 185.34 190.28 184.82 191.02 184.96 191.80 C 185.11 192.58 185.85 193.09 186.62 192.95 Z M 187.61 192.77 L 188.59 192.59 C 189.37 192.45 189.88 191.71 189.74 190.94 C 189.60 190.16 188.86 189.64 188.09 189.78 L 187.10 189.96 C 186.33 190.10 185.81 190.84 185.95 191.62 C 186.09 192.39 186.83 192.91 187.61 192.77 Z M 188.59 192.59 L 189.57 192.42 C 190.34 192.28 190.86 191.54 190.72 190.76 C 190.58 189.99 189.84 189.47 189.07 189.61 L 188.09 189.78 C 187.31 189.92 186.80 190.66 186.93 191.44 C 187.07 192.21 187.81 192.73 188.59 192.59 Z M 189.57 192.42 L 190.26 192.29 C 191.04 192.16 191.55 191.42 191.42 190.64 C 191.28 189.87 190.54 189.35 189.76 189.49 L 189.07 189.61 C 188.30 189.75 187.78 190.49 187.91 191.26 C 188.05 192.04 188.79 192.55 189.57 192.42 Z"
      fill="black"
      fill-rule="nonzero" /></svg>