<svg xmlns="http://www.w3.org/2000/svg" width="300" height="300" viewBox="0 0 300 300">
<path d="M 146.25 96.91 L 145.70 97.74 C 145.23 98.46 145.43 99.42 146.15 99.89 C 146.87 100.36 147.83 100.16 148.30 99.44 L 148.85 98.61 C 149.32 97.89 149.12 96.93 148.40 96.46 C 147.68 95.99 146.72 96.19 146.25 96.91 Z M 145.67 97.72 L 145.13 98.56 C 144.65 99.29 144.85 100.27 145.59 100.75 C 146.32 101.23 147.30 101.03 147.78 100.29 L 148.33 99.46 C 148.81 98.73 148.60 97.74 147.87 97.26 C 147.14 96.78 146.15 96.99 145.67 97.72 Z M 145.10 98.54 L 144.55 99.38 C 144.06 100.13 144.27 101.13 145.02 101.62 C 145.77 102.11 146.78 101.90 147.27 101.15 L 147.81 100.31 C 148.30 99.56 148.09 98.56 147.34 98.07 C 146.59 97.58 145.59 97.79 145.10 98.54 Z M 144.52 99.36 L 143.97 100.20 C 143.47 100.97 143.69 102.00 144.46 102.49 C 145.23 102.99 146.26 102.77 146.75 102.01 L 147.30 101.16 C 147.80 100.40 147.58 99.37 146.81 98.87 C 146.04 98.37 145.02 98.59 144.52 99.36 Z M 143.95 100.19 L 143.41 101.02 C 142.91 101.80 143.13 102.85 143.91 103.35 C 144.70 103.86 145.74 103.63 146.24 102.85 L 146.78 102.02 C 147.28 101.24 147.06 100.19 146.28 99.69 C 145.49 99.18 144.45 99.41 143.95 100.19 Z M 143.40 101.02 L 142.88 101.83 C 142.37 102.62 142.60 103.67 143.39 104.18 C 144.17 104.68 145.22 104.46 145.73 103.67 L 146.25 102.85 C 146.76 102.06 146.53 101.02 145.74 100.51 C 144.96 100.00 143.91 100.23 143.40 101.02 Z M 142.88 101.83 L 142.35 102.66 C 141.84 103.44 142.06 104.49 142.85 105.00 C 143.64 105.51 144.69 105.28 145.19 104.50 L 145.73 103.67 C 146.24 102.89 146.01 101.84 145.22 101.33 C 144.44 100.82 143.39 101.04 142.88 101.83 Z M 142.35 102.65 L 141.80 103.49 C 141.29 104.27 141.51 105.32 142.29 105.84 C 143.07 106.35 144.12 106.13 144.64 105.35 L 145.19 104.51 C 145.70 103.72 145.48 102.67 144.70 102.16 C 143.92 101.64 142.86 101.86 142.35 102.65 Z M 141.81 103.47 L 141.23 104.33 C 140.71 105.11 140.92 106.16 141.70 106.68 C 142.48 107.21 143.53 107.00 144.05 106.22 L 144.63 105.36 C 145.15 104.58 144.94 103.53 144.16 103.01 C 143.38 102.49 142.33 102.69 141.81 103.47 Z M 141.25 104.31 L 140.66 105.17 C 140.13 105.94 140.32 107.00 141.09 107.53 C 141.86 108.06 142.92 107.87 143.45 107.09 L 144.04 106.24 C 144.57 105.47 144.38 104.41 143.61 103.88 C 142.83 103.35 141.78 103.54 141.25 104.31 Z M 140.67 105.16 L 140.07 106.01 C 139.53 106.77 139.71 107.83 140.48 108.37 C 141.24 108.90 142.30 108.72 142.83 107.96 L 143.44 107.11 C 143.98 106.35 143.79 105.29 143.03 104.75 C 142.27 104.21 141.21 104.39 140.67 105.16 Z M 140.08 106.00 L 139.48 106.84 C 138.93 107.59 139.10 108.65 139.86 109.19 C 140.61 109.74 141.67 109.57 142.22 108.81 L 142.82 107.97 C 143.37 107.21 143.20 106.16 142.44 105.61 C 141.68 105.07 140.63 105.24 140.08 106.00 Z M 139.49 106.83 L 138.89 107.64 C 138.34 108.39 138.50 109.44 139.25 109.99 C 140.00 110.54 141.06 110.38 141.61 109.63 L 142.20 108.82 C 142.75 108.07 142.59 107.02 141.84 106.47 C 141.09 105.92 140.04 106.08 139.49 106.83 Z M 138.90 107.63 L 138.34 108.39 C 137.78 109.14 137.94 110.19 138.68 110.74 C 139.42 111.30 140.48 111.14 141.03 110.40 L 141.60 109.64 C 142.15 108.89 142.00 107.84 141.26 107.29 C 140.51 106.73 139.46 106.89 138.90 107.63 Z M 138.35 108.39 L 137.72 109.22 C 137.16 109.95 137.31 111.00 138.05 111.56 C 138.78 112.12 139.83 111.97 140.39 111.24 L 141.02 110.41 C 141.58 109.67 141.43 108.62 140.69 108.06 C 139.96 107.50 138.91 107.65 138.35 108.39 Z M 137.74 109.21 L 137.09 110.05 C 136.53 110.78 136.67 111.82 137.40 112.38 C 138.12 112.94 139.17 112.81 139.73 112.08 L 140.37 111.24 C 140.94 110.51 140.80 109.47 140.07 108.91 C 139.34 108.35 138.30 108.48 137.74 109.21 Z M 137.11 110.04 L 136.52 110.79 C 135.96 111.51 136.08 112.55 136.80 113.11 C 137.51 113.67 138.55 113.55 139.12 112.84 L 139.71 112.09 C 140.27 111.37 140.15 110.33 139.43 109.77 C 138.72 109.20 137.68 109.33 137.11 110.04 Z M 136.54 110.79 L 135.98 111.49 C 135.41 112.19 135.52 113.23 136.22 113.79 C 136.93 114.36 137.96 114.25 138.53 113.55 L 139.09 112.84 C 139.66 112.14 139.55 111.11 138.85 110.54 C 138.14 109.97 137.11 110.08 136.54 110.79 Z M 135.99 111.49 L 135.38 112.23 C 134.81 112.93 134.91 113.95 135.60 114.52 C 136.30 115.09 137.32 114.99 137.89 114.30 L 138.51 113.55 C 139.08 112.86 138.98 111.83 138.28 111.26 C 137.59 110.69 136.56 110.79 135.99 111.49 Z M 135.39 112.23 L 134.76 112.99 C 134.19 113.68 134.29 114.70 134.97 115.27 C 135.66 115.84 136.68 115.75 137.25 115.06 L 137.88 114.30 C 138.45 113.61 138.36 112.59 137.67 112.02 C 136.98 111.45 135.96 111.55 135.39 112.23 Z M 134.77 113.00 L 134.12 113.78 C 133.55 114.46 133.64 115.47 134.33 116.04 C 135.01 116.61 136.02 116.52 136.59 115.84 L 137.24 115.06 C 137.81 114.37 137.72 113.36 137.03 112.79 C 136.35 112.22 135.34 112.32 134.77 113.00 Z M 134.12 113.79 L 133.48 114.57 C 132.91 115.25 133.01 116.26 133.69 116.82 C 134.37 117.38 135.37 117.29 135.94 116.61 L 136.58 115.83 C 137.15 115.15 137.05 114.14 136.37 113.58 C 135.69 113.02 134.69 113.11 134.12 113.79 Z M 133.48 114.58 L 132.84 115.36 C 132.28 116.04 132.38 117.04 133.05 117.60 C 133.73 118.15 134.73 118.06 135.29 117.38 L 135.93 116.60 C 136.49 115.92 136.39 114.92 135.72 114.37 C 135.04 113.81 134.04 113.90 133.48 114.58 Z M 132.84 115.37 L 132.20 116.15 C 131.65 116.82 131.75 117.81 132.42 118.37 C 133.09 118.92 134.09 118.82 134.64 118.15 L 135.28 117.37 C 135.83 116.70 135.74 115.71 135.07 115.15 C 134.39 114.60 133.40 114.70 132.84 115.37 Z M 132.21 116.15 L 131.59 116.91 C 131.04 117.58 131.13 118.57 131.80 119.12 C 132.47 119.67 133.46 119.57 134.01 118.90 L 134.63 118.15 C 135.18 117.48 135.09 116.49 134.42 115.94 C 133.75 115.39 132.76 115.48 132.21 116.15 Z M 131.60 116.92 L 131.00 117.64 C 130.45 118.30 130.54 119.29 131.20 119.83 C 131.87 120.38 132.85 120.29 133.40 119.63 L 134.00 118.90 C 134.55 118.24 134.45 117.26 133.79 116.71 C 133.13 116.16 132.15 116.25 131.60 116.92 Z M 131.01 117.64 L 130.40 118.38 C 129.85 119.03 129.94 120.01 130.60 120.56 C 131.26 121.10 132.23 121.01 132.78 120.36 L 133.39 119.62 C 133.93 118.97 133.84 117.99 133.19 117.44 C 132.53 116.90 131.55 116.99 131.01 117.64 Z M 130.41 118.38 L 129.75 119.17 C 129.21 119.82 129.29 120.79 129.94 121.34 C 130.60 121.88 131.57 121.79 132.11 121.14 L 132.77 120.35 C 133.31 119.70 133.22 118.73 132.57 118.19 C 131.92 117.64 130.95 117.73 130.41 118.38 Z M 129.76 119.18 L 129.09 119.98 C 128.55 120.62 128.63 121.59 129.28 122.13 C 129.93 122.67 130.89 122.58 131.43 121.94 L 132.10 121.14 C 132.64 120.49 132.56 119.53 131.91 118.99 C 131.26 118.44 130.30 118.53 129.76 119.18 Z M 129.09 119.98 L 128.47 120.73 C 127.93 121.38 128.02 122.33 128.66 122.87 C 129.31 123.41 130.27 123.32 130.80 122.68 L 131.43 121.93 C 131.96 121.28 131.88 120.33 131.23 119.79 C 130.59 119.25 129.63 119.34 129.09 119.98 Z M 128.47 120.74 L 127.82 121.53 C 127.29 122.18 127.38 123.13 128.03 123.66 C 128.67 124.19 129.62 124.10 130.15 123.45 L 130.80 122.66 C 131.33 122.02 131.24 121.07 130.60 120.54 C 129.95 120.01 129.00 120.10 128.47 120.74 Z M 127.81 121.55 L 127.17 122.36 C 126.65 123.01 126.75 123.95 127.40 124.47 C 128.04 124.99 128.99 124.89 129.51 124.24 L 130.16 123.44 C 130.68 122.79 130.58 121.84 129.93 121.32 C 129.28 120.80 128.34 120.91 127.81 121.55 Z M 127.16 122.38 L 126.54 123.18 C 126.03 123.83 126.15 124.77 126.80 125.28 C 127.46 125.79 128.40 125.67 128.90 125.02 L 129.52 124.22 C 130.03 123.57 129.91 122.63 129.26 122.12 C 128.60 121.61 127.66 121.73 127.16 122.38 Z M 126.52 123.22 L 125.89 124.08 C 125.41 124.74 125.55 125.67 126.21 126.15 C 126.87 126.64 127.80 126.50 128.29 125.83 L 128.92 124.98 C 129.40 124.32 129.26 123.39 128.60 122.90 C 127.94 122.41 127.01 122.56 126.52 123.22 Z M 125.88 124.12 L 125.29 124.97 C 124.83 125.64 125.00 126.56 125.67 127.02 C 126.34 127.48 127.26 127.31 127.72 126.64 L 128.30 125.79 C 128.77 125.12 128.60 124.20 127.93 123.74 C 127.26 123.28 126.34 123.45 125.88 124.12 Z M 125.28 125.01 L 124.75 125.82 C 124.31 126.50 124.50 127.40 125.18 127.84 C 125.85 128.28 126.76 128.09 127.20 127.42 L 127.73 126.60 C 128.17 125.93 127.98 125.02 127.30 124.58 C 126.63 124.14 125.72 124.33 125.28 125.01 Z M 124.75 125.85 L 124.25 126.65 C 123.82 127.32 124.02 128.21 124.70 128.64 C 125.37 129.07 126.27 128.87 126.69 128.19 L 127.20 127.39 C 127.62 126.72 127.42 125.82 126.75 125.40 C 126.07 124.97 125.18 125.17 124.75 125.85 Z M 124.25 126.66 L 124.10 126.89 C 123.68 127.57 123.89 128.45 124.56 128.87 C 125.23 129.29 126.12 129.09 126.54 128.42 L 126.69 128.18 C 127.11 127.51 126.91 126.62 126.23 126.20 C 125.56 125.78 124.67 125.98 124.25 126.66 Z"
      fill="black"
      fill-rule="nonzero" /><path d="M 154.84 96.57 L 154.84 97.47 C 154.85 98.33 155.55 99.03 156.42 99.03 C 157.28 99.03 157.98 98.33 157.98 97.46 L 157.98 96.56 C 157.98 95.70 157.27 95.00 156.41 95.00 C 155.54 95.00 154.84 95.70 154.84 96.57 Z M 154.82 97.49 L 154.83 98.43 C 154.85 99.31 155.57 100.01 156.45 100.00 C 157.33 99.99 158.03 99.26 158.02 98.38 L 158.00 97.44 C 157.99 96.56 157.27 95.86 156.39 95.87 C 155.51 95.89 154.81 96.61 154.82 97.49 Z M 154.81 98.46 L 154.85 99.49 C 154.88 100.38 155.63 101.08 156.52 101.05 C 157.41 101.02 158.11 100.27 158.08 99.38 L 158.04 98.35 C 158.01 97.46 157.26 96.76 156.37 96.79 C 155.48 96.82 154.78 97.57 154.81 98.46 Z M 154.83 99.53 L 154.90 100.65 C 154.95 101.55 155.73 102.24 156.63 102.18 C 157.53 102.13 158.22 101.35 158.16 100.45 L 158.10 99.34 C 158.04 98.43 157.27 97.75 156.36 97.80 C 155.46 97.86 154.77 98.63 154.83 99.53 Z M 154.90 100.68 L 154.97 101.63 C 155.04 102.53 155.84 103.20 156.74 103.13 C 157.64 103.06 158.31 102.27 158.24 101.36 L 158.16 100.42 C 158.09 99.52 157.30 98.84 156.40 98.92 C 155.50 98.99 154.82 99.78 154.90 100.68 Z M 154.99 101.64 L 155.08 102.65 C 155.16 103.54 155.95 104.20 156.84 104.12 C 157.74 104.04 158.40 103.25 158.32 102.35 L 158.23 101.35 C 158.14 100.46 157.35 99.80 156.46 99.88 C 155.56 99.96 154.91 100.75 154.99 101.64 Z M 155.09 102.65 L 155.19 103.68 C 155.27 104.57 156.06 105.22 156.95 105.13 C 157.83 105.05 158.48 104.26 158.40 103.38 L 158.30 102.35 C 158.22 101.46 157.43 100.81 156.55 100.89 C 155.66 100.98 155.01 101.76 155.09 102.65 Z M 155.20 103.68 L 155.30 104.70 C 155.38 105.58 156.16 106.23 157.04 106.15 C 157.92 106.06 158.56 105.29 158.48 104.41 L 158.39 103.38 C 158.30 102.50 157.52 101.86 156.65 101.94 C 155.77 102.02 155.12 102.80 155.20 103.68 Z M 155.31 104.69 L 155.40 105.68 C 155.47 106.55 156.24 107.20 157.11 107.12 C 157.98 107.05 158.63 106.28 158.55 105.41 L 158.47 104.42 C 158.39 103.55 157.63 102.90 156.75 102.98 C 155.88 103.05 155.24 103.82 155.31 104.69 Z M 155.41 105.66 L 155.48 106.74 C 155.55 107.61 156.30 108.26 157.17 108.20 C 158.03 108.14 158.69 107.38 158.62 106.52 L 158.54 105.43 C 158.48 104.57 157.73 103.92 156.86 103.98 C 156.00 104.04 155.34 104.79 155.41 105.66 Z M 155.49 106.72 L 155.55 107.75 C 155.60 108.61 156.34 109.27 157.20 109.22 C 158.06 109.17 158.73 108.43 158.68 107.57 L 158.62 106.54 C 158.57 105.68 157.83 105.02 156.97 105.07 C 156.10 105.12 155.44 105.86 155.49 106.72 Z M 155.55 107.73 L 155.60 108.70 C 155.63 109.56 156.36 110.23 157.22 110.19 C 158.08 110.15 158.75 109.43 158.71 108.56 L 158.67 107.59 C 158.63 106.73 157.90 106.06 157.04 106.10 C 156.18 106.14 155.51 106.87 155.55 107.73 Z M 155.60 108.69 L 155.63 109.63 C 155.66 110.49 156.39 111.16 157.24 111.13 C 158.10 111.10 158.77 110.38 158.74 109.52 L 158.71 108.58 C 158.68 107.72 157.96 107.05 157.10 107.08 C 156.24 107.11 155.57 107.83 155.60 108.69 Z M 155.64 109.62 L 155.65 110.11 C 155.68 110.97 156.40 111.64 157.25 111.61 C 158.11 111.58 158.78 110.87 158.75 110.01 L 158.74 109.52 C 158.71 108.67 157.99 108.00 157.14 108.02 C 156.28 108.05 155.61 108.77 155.64 109.62 Z"
      fill="black"
      fill-rule="nonzero" /><path d="M 125.39 134.93 L 124.04 134.98 C 123.16 135.02 122.47 135.76 122.51 136.64 C 122.54 137.51 123.29 138.20 124.16 138.16 L 125.52 138.11 C 126.40 138.08 127.08 137.33 127.05 136.46 C 127.01 135.58 126.27 134.89 125.39 134.93 Z M 124.04 134.95 L 122.78 135.00 C 121.89 135.03 121.19 135.78 121.22 136.68 C 121.25 137.57 122.01 138.27 122.90 138.24 L 124.16 138.19 C 125.06 138.16 125.76 137.41 125.72 136.51 C 125.69 135.62 124.94 134.92 124.04 134.95 Z M 122.79 134.97 L 121.72 135.00 C 120.81 135.03 120.10 135.79 120.12 136.70 C 120.15 137.61 120.91 138.33 121.83 138.30 L 122.89 138.27 C 123.81 138.24 124.52 137.48 124.49 136.57 C 124.47 135.66 123.71 134.94 122.79 134.97 Z M 121.75 134.97 L 120.97 134.98 C 120.04 134.99 119.30 135.76 119.31 136.69 C 119.32 137.62 120.09 138.36 121.02 138.34 L 121.80 138.33 C 122.73 138.32 123.47 137.56 123.46 136.63 C 123.44 135.70 122.68 134.96 121.75 134.97 Z M 121.07 134.96 L 120.65 134.94 C 119.71 134.89 118.91 135.62 118.86 136.56 C 118.82 137.50 119.55 138.30 120.49 138.35 L 120.91 138.37 C 121.85 138.42 122.65 137.69 122.70 136.75 C 122.74 135.80 122.02 135.00 121.07 134.96 Z M 121.16 138.26 L 121.45 138.15 C 122.35 137.83 122.81 136.84 122.48 135.95 C 122.16 135.05 121.17 134.59 120.27 134.92 L 119.98 135.02 C 119.09 135.35 118.63 136.34 118.95 137.23 C 119.28 138.13 120.27 138.59 121.16 138.26 Z M 121.18 138.23 L 122.26 138.03 C 123.20 137.85 123.81 136.95 123.64 136.02 C 123.46 135.08 122.56 134.46 121.62 134.64 L 120.54 134.84 C 119.61 135.02 118.99 135.92 119.17 136.85 C 119.34 137.79 120.25 138.41 121.18 138.23 Z M 122.28 138.03 L 123.63 137.75 C 124.57 137.57 125.17 136.66 124.98 135.72 C 124.79 134.79 123.88 134.18 122.95 134.37 L 121.60 134.64 C 120.67 134.83 120.06 135.74 120.25 136.67 C 120.44 137.61 121.35 138.21 122.28 138.03 Z M 123.68 137.74 L 124.56 137.54 C 125.49 137.32 126.07 136.40 125.85 135.47 C 125.63 134.54 124.70 133.96 123.78 134.18 L 122.90 134.38 C 121.97 134.60 121.39 135.52 121.61 136.45 C 121.82 137.38 122.75 137.96 123.68 137.74 Z M 124.59 137.53 L 125.51 137.30 C 126.44 137.06 126.99 136.12 126.76 135.20 C 126.52 134.27 125.58 133.71 124.66 133.95 L 123.74 134.18 C 122.82 134.42 122.26 135.36 122.49 136.29 C 122.73 137.21 123.67 137.77 124.59 137.53 Z M 125.54 137.29 L 126.50 137.03 C 127.42 136.77 127.96 135.82 127.71 134.90 C 127.46 133.98 126.51 133.44 125.59 133.69 L 124.63 133.96 C 123.71 134.21 123.17 135.16 123.42 136.08 C 123.67 137.00 124.62 137.54 125.54 137.29 Z M 126.53 137.02 L 127.53 136.73 C 128.45 136.46 128.97 135.50 128.71 134.59 C 128.44 133.67 127.48 133.14 126.57 133.41 L 125.56 133.70 C 124.65 133.97 124.12 134.93 124.38 135.84 C 124.65 136.76 125.61 137.28 126.53 137.02 Z M 127.55 136.72 L 128.61 136.40 C 129.52 136.12 130.03 135.16 129.76 134.25 C 129.48 133.33 128.52 132.82 127.60 133.09 L 126.55 133.41 C 125.63 133.69 125.12 134.66 125.40 135.57 C 125.67 136.48 126.64 137.00 127.55 136.72 Z M 128.62 136.40 L 129.59 136.09 C 130.50 135.81 131.00 134.84 130.72 133.93 C 130.43 133.02 129.47 132.51 128.56 132.80 L 127.59 133.10 C 126.68 133.38 126.17 134.35 126.46 135.26 C 126.74 136.17 127.71 136.68 128.62 136.40 Z M 129.60 136.09 L 130.55 135.79 C 131.46 135.50 131.96 134.53 131.67 133.62 C 131.38 132.71 130.41 132.21 129.50 132.50 L 128.55 132.80 C 127.64 133.09 127.14 134.06 127.43 134.97 C 127.71 135.88 128.69 136.38 129.60 136.09 Z M 130.55 135.79 L 131.52 135.47 C 132.43 135.18 132.93 134.21 132.64 133.30 C 132.34 132.39 131.37 131.89 130.46 132.19 L 129.49 132.50 C 128.59 132.79 128.09 133.76 128.38 134.67 C 128.67 135.58 129.65 136.08 130.55 135.79 Z M 131.52 135.47 L 132.50 135.16 C 133.40 134.86 133.90 133.89 133.61 132.98 C 133.31 132.08 132.34 131.58 131.43 131.87 L 130.46 132.19 C 129.55 132.48 129.06 133.45 129.35 134.36 C 129.64 135.27 130.62 135.77 131.52 135.47 Z M 132.50 135.16 L 133.46 134.85 C 134.37 134.55 134.87 133.58 134.57 132.67 C 134.28 131.76 133.31 131.27 132.40 131.56 L 131.43 131.87 C 130.53 132.16 130.03 133.14 130.32 134.05 C 130.62 134.95 131.59 135.45 132.50 135.16 Z M 133.46 134.85 L 134.40 134.54 C 135.31 134.25 135.81 133.28 135.52 132.37 C 135.23 131.46 134.26 130.96 133.35 131.26 L 132.40 131.56 C 131.50 131.85 131.00 132.82 131.29 133.73 C 131.58 134.64 132.55 135.14 133.46 134.85 Z M 134.40 134.55 L 135.35 134.25 C 136.26 133.96 136.76 132.99 136.47 132.08 C 136.18 131.17 135.22 130.67 134.31 130.95 L 133.36 131.25 C 132.45 131.54 131.94 132.51 132.23 133.42 C 132.52 134.33 133.49 134.83 134.40 134.55 Z M 135.34 134.25 L 136.35 133.94 C 137.26 133.65 137.77 132.69 137.49 131.78 C 137.21 130.87 136.24 130.36 135.33 130.64 L 134.32 130.95 C 133.41 131.23 132.89 132.20 133.18 133.11 C 133.46 134.02 134.42 134.53 135.34 134.25 Z M 136.34 133.94 L 137.31 133.65 C 138.22 133.37 138.74 132.41 138.46 131.49 C 138.19 130.58 137.22 130.06 136.31 130.34 L 135.34 130.63 C 134.42 130.91 133.91 131.87 134.18 132.79 C 134.46 133.70 135.42 134.22 136.34 133.94 Z M 137.30 133.65 L 138.24 133.37 C 139.16 133.10 139.68 132.13 139.41 131.22 C 139.14 130.30 138.18 129.78 137.26 130.06 L 136.32 130.34 C 135.40 130.61 134.88 131.57 135.15 132.48 C 135.42 133.40 136.39 133.92 137.30 133.65 Z M 138.24 133.37 L 139.17 133.10 C 140.08 132.83 140.61 131.87 140.34 130.95 C 140.07 130.04 139.11 129.51 138.19 129.78 L 137.27 130.05 C 136.35 130.32 135.82 131.28 136.09 132.20 C 136.36 133.12 137.32 133.64 138.24 133.37 Z M 139.16 133.10 L 140.09 132.83 C 141.01 132.56 141.53 131.60 141.27 130.69 C 141.00 129.77 140.04 129.24 139.12 129.51 L 138.20 129.78 C 137.28 130.05 136.75 131.01 137.02 131.92 C 137.29 132.84 138.25 133.37 139.16 133.10 Z M 140.09 132.83 L 141.03 132.56 C 141.95 132.29 142.48 131.33 142.21 130.41 C 141.94 129.49 140.98 128.97 140.06 129.23 L 139.12 129.51 C 138.20 129.78 137.68 130.74 137.94 131.65 C 138.21 132.57 139.17 133.10 140.09 132.83 Z M 141.03 132.56 L 141.99 132.28 C 142.91 132.01 143.43 131.05 143.17 130.13 C 142.90 129.21 141.94 128.69 141.02 128.96 L 140.06 129.24 C 139.15 129.50 138.62 130.46 138.89 131.38 C 139.16 132.30 140.12 132.82 141.03 132.56 Z M 141.99 132.27 L 142.96 131.99 C 143.87 131.72 144.40 130.76 144.13 129.85 C 143.86 128.93 142.90 128.41 141.98 128.67 L 141.02 128.96 C 140.10 129.23 139.58 130.19 139.85 131.10 C 140.12 132.02 141.08 132.54 141.99 132.27 Z M 142.96 131.99 L 143.92 131.70 C 144.84 131.43 145.36 130.47 145.09 129.56 C 144.82 128.64 143.86 128.12 142.94 128.39 L 141.98 128.68 C 141.07 128.95 140.54 129.91 140.81 130.82 C 141.09 131.74 142.05 132.26 142.96 131.99 Z M 143.93 131.70 L 144.89 131.41 C 145.80 131.14 146.32 130.18 146.05 129.27 C 145.78 128.35 144.81 127.83 143.90 128.11 L 142.94 128.39 C 142.03 128.67 141.51 129.63 141.78 130.54 C 142.05 131.45 143.02 131.97 143.93 131.70 Z M 144.89 131.41 L 145.85 131.12 C 146.76 130.85 147.28 129.88 147.00 128.97 C 146.73 128.06 145.76 127.55 144.85 127.82 L 143.90 128.11 C 142.98 128.39 142.47 129.35 142.74 130.26 C 143.02 131.17 143.98 131.69 144.89 131.41 Z M 145.85 131.12 L 146.83 130.82 C 147.74 130.54 148.25 129.58 147.97 128.67 C 147.69 127.76 146.73 127.25 145.82 127.53 L 144.85 127.83 C 143.94 128.10 143.43 129.07 143.71 129.97 C 143.98 130.88 144.95 131.39 145.85 131.12 Z M 146.83 130.81 L 147.79 130.52 C 148.70 130.24 149.20 129.28 148.92 128.37 C 148.64 127.47 147.68 126.96 146.78 127.24 L 145.82 127.53 C 144.91 127.81 144.40 128.77 144.68 129.68 C 144.96 130.58 145.92 131.09 146.83 130.81 Z M 147.79 130.51 L 148.74 130.22 C 149.65 129.94 150.15 128.98 149.87 128.08 C 149.59 127.17 148.63 126.67 147.73 126.95 L 146.78 127.24 C 145.88 127.52 145.37 128.48 145.65 129.38 C 145.93 130.28 146.89 130.79 147.79 130.51 Z M 148.74 130.21 L 149.69 129.92 C 150.59 129.64 151.09 128.69 150.81 127.79 C 150.54 126.89 149.58 126.38 148.68 126.66 L 147.74 126.95 C 146.84 127.23 146.33 128.18 146.61 129.08 C 146.89 129.98 147.84 130.49 148.74 130.21 Z M 149.68 129.91 L 150.63 129.63 C 151.52 129.35 152.03 128.40 151.75 127.50 C 151.48 126.61 150.53 126.10 149.63 126.38 L 148.69 126.67 C 147.79 126.94 147.29 127.89 147.56 128.79 C 147.83 129.68 148.78 130.19 149.68 129.91 Z M 150.62 129.62 L 151.57 129.34 C 152.46 129.07 152.97 128.12 152.70 127.23 C 152.43 126.33 151.49 125.82 150.59 126.09 L 149.64 126.38 C 148.74 126.65 148.24 127.59 148.51 128.49 C 148.78 129.39 149.72 129.89 150.62 129.62 Z M 151.56 129.34 L 152.51 129.06 C 153.41 128.79 153.92 127.85 153.66 126.95 C 153.39 126.05 152.45 125.54 151.55 125.81 L 150.60 126.09 C 149.70 126.36 149.19 127.30 149.45 128.20 C 149.72 129.10 150.66 129.61 151.56 129.34 Z M 152.51 129.06 L 153.47 128.78 C 154.36 128.51 154.88 127.57 154.61 126.67 C 154.35 125.77 153.40 125.26 152.51 125.52 L 151.55 125.81 C 150.65 126.07 150.14 127.01 150.41 127.91 C 150.67 128.81 151.61 129.32 152.51 129.06 Z M 153.46 128.78 L 154.42 128.49 C 155.32 128.23 155.84 127.29 155.57 126.39 C 155.31 125.49 154.37 124.98 153.47 125.24 L 152.51 125.52 C 151.61 125.79 151.10 126.73 151.36 127.63 C 151.62 128.53 152.57 129.04 153.46 128.78 Z M 154.42 128.49 L 155.39 128.21 C 156.29 127.95 156.80 127.01 156.54 126.11 C 156.28 125.21 155.33 124.70 154.44 124.96 L 153.47 125.24 C 152.57 125.51 152.06 126.45 152.32 127.35 C 152.58 128.24 153.53 128.76 154.42 128.49 Z M 155.39 128.21 L 156.37 127.92 C 157.27 127.66 157.78 126.71 157.52 125.82 C 157.25 124.92 156.31 124.41 155.41 124.67 L 154.43 124.96 C 153.54 125.22 153.02 126.17 153.29 127.06 C 153.55 127.96 154.50 128.47 155.39 128.21 Z M 156.37 127.92 L 157.36 127.63 C 158.26 127.37 158.77 126.42 158.50 125.52 C 158.24 124.63 157.29 124.11 156.40 124.38 L 155.41 124.67 C 154.51 124.94 154.00 125.88 154.27 126.78 C 154.53 127.68 155.48 128.19 156.37 127.92 Z M 157.36 127.63 L 158.34 127.34 C 159.24 127.08 159.75 126.13 159.48 125.23 C 159.22 124.33 158.27 123.82 157.38 124.09 L 156.40 124.38 C 155.50 124.64 154.98 125.59 155.25 126.49 C 155.51 127.38 156.46 127.90 157.36 127.63 Z M 158.33 127.35 L 159.30 127.06 C 160.20 126.80 160.71 125.85 160.45 124.95 C 160.19 124.05 159.24 123.54 158.34 123.80 L 157.38 124.08 C 156.48 124.35 155.96 125.29 156.23 126.19 C 156.49 127.09 157.43 127.61 158.33 127.35 Z M 159.29 127.07 L 160.23 126.79 C 161.13 126.53 161.65 125.59 161.39 124.69 C 161.13 123.79 160.19 123.27 159.29 123.53 L 158.35 123.80 C 157.44 124.06 156.93 125.00 157.19 125.91 C 157.45 126.81 158.39 127.33 159.29 127.07 Z M 160.22 126.80 L 161.15 126.53 C 162.06 126.28 162.58 125.34 162.33 124.43 C 162.07 123.53 161.13 123.00 160.23 123.26 L 159.29 123.52 C 158.39 123.78 157.86 124.72 158.12 125.62 C 158.38 126.53 159.32 127.06 160.22 126.80 Z M 161.14 126.54 L 162.12 126.27 C 163.03 126.02 163.56 125.08 163.31 124.18 C 163.06 123.27 162.12 122.73 161.21 122.98 L 160.24 123.25 C 159.33 123.50 158.79 124.44 159.04 125.35 C 159.29 126.26 160.23 126.79 161.14 126.54 Z M 162.11 126.28 L 163.06 126.03 C 163.97 125.78 164.51 124.85 164.27 123.93 C 164.02 123.02 163.09 122.48 162.17 122.72 L 161.22 122.98 C 160.31 123.22 159.77 124.16 160.01 125.07 C 160.26 125.98 161.19 126.52 162.11 126.28 Z M 163.05 126.03 L 164.00 125.79 C 164.91 125.55 165.46 124.61 165.22 123.69 C 164.99 122.78 164.05 122.23 163.13 122.47 L 162.18 122.71 C 161.27 122.95 160.72 123.89 160.96 124.81 C 161.20 125.72 162.13 126.27 163.05 126.03 Z M 163.99 125.79 L 164.96 125.54 C 165.88 125.31 166.44 124.37 166.20 123.45 C 165.96 122.53 165.03 121.98 164.11 122.21 L 163.14 122.46 C 162.22 122.70 161.66 123.63 161.90 124.55 C 162.13 125.47 163.07 126.03 163.99 125.79 Z M 164.96 125.56 L 166.04 125.29 C 166.97 125.05 167.53 124.11 167.30 123.18 C 167.06 122.26 166.12 121.69 165.19 121.93 L 164.11 122.20 C 163.18 122.43 162.62 123.37 162.85 124.30 C 163.09 125.23 164.03 125.79 164.96 125.56 Z M 166.00 125.32 L 167.14 125.06 C 168.08 124.85 168.68 123.91 168.47 122.96 C 168.25 122.02 167.31 121.42 166.37 121.64 L 165.23 121.89 C 164.28 122.10 163.69 123.05 163.90 123.99 C 164.12 124.94 165.06 125.53 166.00 125.32 Z M 167.02 125.12 L 168.06 124.96 C 169.03 124.82 169.71 123.91 169.56 122.93 C 169.42 121.96 168.51 121.28 167.53 121.43 L 166.49 121.58 C 165.51 121.73 164.84 122.64 164.98 123.61 C 165.13 124.59 166.04 125.26 167.02 125.12 Z M 167.75 125.01 L 168.60 125.03 C 169.60 125.05 170.43 124.26 170.46 123.25 C 170.48 122.25 169.68 121.42 168.68 121.40 L 167.83 121.38 C 166.83 121.36 166.00 122.15 165.98 123.16 C 165.95 124.16 166.75 124.99 167.75 125.01 Z M 167.76 124.84 L 168.37 125.16 C 169.26 125.65 170.38 125.32 170.87 124.42 C 171.35 123.53 171.02 122.41 170.12 121.92 L 169.52 121.59 C 168.62 121.11 167.50 121.44 167.02 122.33 C 166.53 123.23 166.86 124.35 167.76 124.84 Z M 167.45 124.02 L 167.66 124.82 C 167.93 125.82 168.95 126.40 169.94 126.14 C 170.93 125.87 171.52 124.85 171.26 123.86 L 171.04 123.06 C 170.78 122.07 169.76 121.48 168.76 121.75 C 167.77 122.01 167.18 123.03 167.45 124.02 Z M 167.60 124.15 L 167.49 125.22 C 167.38 126.25 168.13 127.17 169.15 127.27 C 170.18 127.38 171.10 126.63 171.21 125.60 L 171.32 124.53 C 171.43 123.51 170.68 122.59 169.65 122.48 C 168.62 122.37 167.70 123.12 167.60 124.15 Z M 167.49 125.09 L 167.31 126.18 C 167.13 127.21 167.82 128.18 168.85 128.35 C 169.87 128.53 170.84 127.84 171.02 126.82 L 171.20 125.73 C 171.38 124.70 170.69 123.73 169.66 123.56 C 168.64 123.38 167.67 124.07 167.49 125.09 Z M 167.29 126.26 L 167.17 127.23 C 167.03 128.26 167.76 129.21 168.79 129.34 C 169.83 129.48 170.77 128.75 170.91 127.71 L 171.03 126.74 C 171.17 125.71 170.44 124.76 169.40 124.63 C 168.37 124.49 167.42 125.22 167.29 126.26 Z M 167.15 127.31 L 167.07 128.29 C 166.98 129.33 167.75 130.25 168.79 130.34 C 169.83 130.43 170.74 129.66 170.83 128.62 L 170.92 127.64 C 171.01 126.60 170.24 125.68 169.20 125.59 C 168.16 125.50 167.24 126.27 167.15 127.31 Z M 167.06 128.36 L 167.01 129.38 C 166.95 130.42 167.75 131.31 168.80 131.37 C 169.84 131.42 170.73 130.62 170.79 129.58 L 170.84 128.56 C 170.90 127.51 170.09 126.62 169.05 126.56 C 168.01 126.51 167.12 127.31 167.06 128.36 Z M 167.00 129.42 L 166.97 130.35 C 166.94 131.40 167.77 132.27 168.81 132.31 C 169.86 132.34 170.73 131.51 170.76 130.47 L 170.79 129.53 C 170.82 128.49 170.00 127.61 168.95 127.58 C 167.91 127.55 167.03 128.37 167.00 129.42 Z M 166.97 130.38 L 166.96 131.34 C 166.94 132.38 167.78 133.25 168.82 133.26 C 169.87 133.28 170.74 132.44 170.75 131.40 L 170.77 130.44 C 170.78 129.39 169.95 128.53 168.90 128.51 C 167.85 128.50 166.99 129.33 166.97 130.38 Z M 166.95 131.35 L 166.95 132.36 C 166.94 133.41 167.79 134.27 168.84 134.28 C 169.89 134.28 170.74 133.44 170.75 132.39 L 170.76 131.38 C 170.76 130.33 169.92 129.47 168.87 129.46 C 167.82 129.46 166.96 130.30 166.95 131.35 Z M 166.94 132.37 L 166.94 133.44 C 166.94 134.49 167.79 135.34 168.84 135.34 C 169.89 135.35 170.75 134.50 170.75 133.44 L 170.75 132.38 C 170.75 131.33 169.90 130.47 168.85 130.47 C 167.80 130.47 166.95 131.32 166.94 132.37 Z M 166.94 133.44 L 166.94 134.49 C 166.94 135.54 167.79 136.40 168.85 136.40 C 169.90 136.40 170.75 135.54 170.75 134.49 L 170.75 133.44 C 170.75 132.39 169.90 131.53 168.85 131.53 C 167.79 131.53 166.94 132.39 166.94 133.44 Z M 166.94 134.49 L 166.94 135.52 C 166.94 136.57 167.79 137.43 168.85 137.43 C 169.90 137.43 170.75 136.57 170.75 135.52 L 170.75 134.49 C 170.75 133.44 169.90 132.58 168.85 132.58 C 167.79 132.58 166.94 133.44 166.94 134.49 Z M 166.94 135.52 L 166.94 136.55 C 166.94 137.60 167.79 138.46 168.85 138.46 C 169.90 138.46 170.75 137.60 170.75 136.55 L 170.75 135.52 C 170.75 134.46 169.90 133.61 168.85 133.61 C 167.79 133.61 166.94 134.46 166.94 135.52 Z M 166.94 136.55 L 166.94 137.55 C 166.94 138.61 167.79 139.46 168.85 139.46 C 169.90 139.46 170.76 138.61 170.76 137.55 L 170.76 136.55 C 170.76 135.49 169.90 134.64 168.85 134.64 C 167.79 134.64 166.94 135.49 166.94 136.55 Z M 166.93 137.55 L 166.93 138.51 C 166.93 139.56 167.79 140.42 168.85 140.42 C 169.90 140.42 170.76 139.56 170.76 138.51 L 170.76 137.55 C 170.76 136.50 169.90 135.64 168.85 135.64 C 167.79 135.64 166.93 136.50 166.93 137.55 Z M 166.93 138.51 L 166.93 139.59 C 166.93 140.64 167.79 141.50 168.85 141.50 C 169.90 141.50 170.76 140.64 170.76 139.59 L 170.76 138.51 C 170.76 137.45 169.90 136.59 168.85 136.59 C 167.79 136.59 166.93 137.45 166.93 138.51 Z M 166.93 139.59 L 166.93 140.61 C 166.93 141.67 167.79 142.53 168.85 142.53 C 169.90 142.53 170.76 141.67 170.76 140.61 L 170.76 139.59 C 170.76 138.53 169.90 137.67 168.85 137.67 C 167.79 137.67 166.93 138.53 166.93 139.59 Z M 166.93 140.61 L 166.93 141.56 C 166.93 142.62 167.79 143.48 168.85 143.48 C 169.90 143.48 170.76 142.62 170.76 141.56 L 170.76 140.61 C 170.76 139.55 169.90 138.70 168.85 138.70 C 167.79 138.70 166.93 139.55 166.93 140.61 Z M 166.93 141.56 L 166.93 142.48 C 166.93 143.54 167.79 144.40 168.85 144.40 C 169.90 144.40 170.76 143.54 170.76 142.48 L 170.76 141.56 C 170.76 140.50 169.90 139.64 168.85 139.64 C 167.79 139.64 166.93 140.50 166.93 141.56 Z M 166.93 142.48 L 166.93 143.47 C 166.93 144.52 167.79 145.38 168.85 145.38 C 169.90 145.38 170.76 144.52 170.76 143.47 L 170.76 142.48 C 170.76 141.43 169.90 140.57 168.85 140.57 C 167.79 140.57 166.93 141.43 166.93 142.48 Z M 166.94 143.47 L 166.94 144.46 C 166.94 145.51 167.79 146.37 168.85 146.37 C 169.90 146.37 170.75 145.51 170.75 144.46 L 170.75 143.47 C 170.75 142.41 169.90 141.56 168.85 141.56 C 167.79 141.56 166.94 142.41 166.94 143.47 Z M 166.95 144.46 L 166.95 145.48 C 166.95 146.53 167.80 147.38 168.85 147.38 C 169.90 147.38 170.75 146.53 170.75 145.48 L 170.75 144.46 C 170.75 143.41 169.90 142.56 168.85 142.56 C 167.80 142.56 166.95 143.41 166.95 144.46 Z M 166.95 145.48 L 166.95 146.46 C 166.95 147.51 167.80 148.35 168.85 148.35 C 169.89 148.35 170.74 147.51 170.74 146.46 L 170.74 145.48 C 170.74 144.43 169.89 143.58 168.85 143.58 C 167.80 143.58 166.95 144.43 166.95 145.48 Z M 166.95 146.46 L 166.95 147.45 C 166.95 148.49 167.80 149.34 168.85 149.34 C 169.89 149.34 170.74 148.49 170.74 147.45 L 170.74 146.46 C 170.74 145.41 169.89 144.56 168.85 144.56 C 167.80 144.56 166.95 145.41 166.95 146.46 Z M 166.95 147.45 L 166.95 148.46 C 166.95 149.50 167.80 150.35 168.85 150.35 C 169.89 150.35 170.74 149.50 170.74 148.46 L 170.74 147.45 C 170.74 146.40 169.89 145.55 168.85 145.55 C 167.80 145.55 166.95 146.40 166.95 147.45 Z M 166.95 148.46 L 166.95 149.48 C 166.95 150.53 167.80 151.38 168.85 151.38 C 169.89 151.38 170.74 150.53 170.74 149.48 L 170.74 148.46 C 170.74 147.41 169.89 146.56 168.85 146.56 C 167.80 146.56 166.95 147.41 166.95 148.46 Z M 166.95 149.48 L 166.95 150.45 C 166.95 151.50 167.80 152.35 168.85 152.35 C 169.89 152.35 170.74 151.50 170.74 150.45 L 170.74 149.48 C 170.74 148.43 169.89 147.58 168.85 147.58 C 167.80 147.58 166.95 148.43 166.95 149.48 Z M 166.95 150.45 L 166.95 151.45 C 166.95 152.49 167.80 153.34 168.85 153.34 C 169.89 153.34 170.74 152.49 170.74 151.45 L 170.74 150.45 C 170.74 149.41 169.89 148.56 168.85 148.56 C 167.80 148.56 166.95 149.41 166.95 150.45 Z M 166.95 151.45 L 166.95 152.46 C 166.95 153.51 167.80 154.36 168.85 154.36 C 169.89 154.36 170.74 153.51 170.74 152.46 L 170.74 151.45 C 170.74 150.40 169.89 149.55 168.85 149.55 C 167.80 149.55 166.95 150.40 166.95 151.45 Z M 166.95 152.46 L 166.95 153.48 C 166.95 154.53 167.80 155.38 168.85 155.38 C 169.89 155.38 170.75 154.53 170.75 153.48 L 170.75 152.46 C 170.75 151.41 169.89 150.56 168.85 150.56 C 167.80 150.56 166.95 151.41 166.95 152.46 Z M 166.95 153.48 L 166.95 154.45 C 166.95 155.50 167.80 156.35 168.85 156.35 C 169.90 156.35 170.75 155.50 170.75 154.45 L 170.75 153.48 C 170.75 152.43 169.90 151.58 168.85 151.58 C 167.80 151.58 166.95 152.43 166.95 153.48 Z M 166.94 154.45 L 166.94 155.45 C 166.94 156.50 167.79 157.35 168.85 157.35 C 169.90 157.35 170.75 156.50 170.75 155.45 L 170.75 154.45 C 170.75 153.40 169.90 152.55 168.85 152.55 C 167.79 152.55 166.94 153.40 166.94 154.45 Z M 166.94 155.45 L 166.94 156.45 C 166.94 157.51 167.79 158.36 168.85 158.36 C 169.90 158.36 170.75 157.51 170.75 156.45 L 170.75 155.45 C 170.75 154.39 169.90 153.54 168.85 153.54 C 167.79 153.54 166.94 154.39 166.94 155.45 Z M 166.94 156.45 L 166.94 157.48 C 166.94 158.53 167.79 159.39 168.85 159.39 C 169.90 159.39 170.75 158.53 170.75 157.48 L 170.75 156.45 C 170.75 155.40 169.90 154.55 168.85 154.55 C 167.79 154.55 166.94 155.40 166.94 156.45 Z M 166.94 157.48 L 166.94 158.46 C 166.94 159.52 167.79 160.37 168.85 160.37 C 169.90 160.37 170.76 159.52 170.76 158.46 L 170.76 157.48 C 170.76 156.42 169.90 155.57 168.85 155.57 C 167.79 155.57 166.94 156.42 166.94 157.48 Z M 166.94 158.46 L 166.94 159.44 C 166.94 160.50 167.79 161.35 168.85 161.35 C 169.90 161.35 170.76 160.50 170.76 159.44 L 170.76 158.46 C 170.76 157.41 169.90 156.55 168.85 156.55 C 167.79 156.55 166.94 157.41 166.94 158.46 Z M 166.94 159.44 L 166.94 160.44 C 166.94 161.49 167.79 162.35 168.85 162.35 C 169.90 162.35 170.76 161.49 170.76 160.44 L 170.76 159.44 C 170.76 158.39 169.90 157.53 168.85 157.53 C 167.79 157.53 166.94 158.39 166.94 159.44 Z M 166.93 160.44 L 166.93 161.45 C 166.93 162.51 167.79 163.36 168.85 163.36 C 169.90 163.36 170.76 162.51 170.76 161.45 L 170.76 160.44 C 170.76 159.38 169.90 158.53 168.85 158.53 C 167.79 158.53 166.93 159.38 166.93 160.44 Z M 166.93 161.45 L 166.93 162.49 C 166.93 163.54 167.79 164.40 168.85 164.40 C 169.90 164.40 170.76 163.54 170.76 162.49 L 170.76 161.45 C 170.76 160.40 169.90 159.54 168.85 159.54 C 167.79 159.54 166.93 160.40 166.93 161.45 Z M 166.93 162.49 L 166.93 163.49 C 166.93 164.54 167.79 165.40 168.85 165.40 C 169.90 165.40 170.76 164.54 170.76 163.49 L 170.76 162.49 C 170.76 161.43 169.90 160.57 168.85 160.57 C 167.79 160.57 166.93 161.43 166.93 162.49 Z M 166.93 163.49 L 166.93 164.50 C 166.93 165.56 167.79 166.41 168.85 166.41 C 169.90 166.41 170.76 165.56 170.76 164.50 L 170.76 163.49 C 170.76 162.43 169.90 161.57 168.85 161.57 C 167.79 161.57 166.93 162.43 166.93 163.49 Z M 166.93 164.50 L 166.93 165.51 C 166.93 166.57 167.79 167.42 168.85 167.42 C 169.90 167.42 170.76 166.57 170.76 165.51 L 170.76 164.50 C 170.76 163.44 169.90 162.58 168.85 162.58 C 167.79 162.58 166.93 163.44 166.93 164.50 Z M 166.93 165.51 L 166.93 166.51 C 166.93 167.56 167.79 168.42 168.85 168.42 C 169.90 168.42 170.76 167.56 170.76 166.51 L 170.76 165.51 C 170.76 164.45 169.90 163.59 168.85 163.59 C 167.79 163.59 166.93 164.45 166.93 165.51 Z M 166.93 166.51 L 166.93 167.50 C 166.93 168.55 167.79 169.41 168.85 169.41 C 169.91 169.41 170.76 168.55 170.76 167.50 L 170.76 166.51 C 170.76 165.45 169.91 164.59 168.85 164.59 C 167.79 164.59 166.93 165.45 166.93 166.51 Z M 166.93 167.50 L 166.93 168.54 C 166.93 169.60 167.79 170.45 168.85 170.45 C 169.91 170.45 170.76 169.60 170.76 168.54 L 170.76 167.50 C 170.76 166.44 169.91 165.58 168.85 165.58 C 167.79 165.58 166.93 166.44 166.93 167.50 Z M 166.93 168.54 L 166.93 169.54 C 166.93 170.61 167.79 171.47 168.85 171.47 C 169.91 171.47 170.77 170.61 170.77 169.54 L 170.77 168.54 C 170.77 167.48 169.91 166.62 168.85 166.62 C 167.79 166.62 166.93 167.48 166.93 168.54 Z M 166.92 169.54 L 166.92 170.53 C 166.92 171.59 167.78 172.45 168.85 172.45 C 169.91 172.45 170.77 171.59 170.77 170.53 L 170.77 169.54 C 170.77 168.48 169.91 167.62 168.85 167.62 C 167.78 167.62 166.92 168.48 166.92 169.54 Z M 166.92 170.53 L 166.92 171.50 C 166.92 172.56 167.78 173.42 168.85 173.42 C 169.91 173.42 170.77 172.56 170.77 171.50 L 170.77 170.53 C 170.77 169.47 169.91 168.61 168.85 168.61 C 167.78 168.61 166.92 169.47 166.92 170.53 Z M 166.92 171.50 L 166.92 172.50 C 166.92 173.56 167.78 174.42 168.85 174.42 C 169.91 174.42 170.77 173.56 170.77 172.50 L 170.77 171.50 C 170.77 170.44 169.91 169.58 168.85 169.58 C 167.78 169.58 166.92 170.44 166.92 171.50 Z M 166.92 172.50 L 166.92 173.51 C 166.92 174.57 167.78 175.43 168.85 175.43 C 169.91 175.43 170.77 174.57 170.77 173.51 L 170.77 172.50 C 170.77 171.44 169.91 170.57 168.85 170.57 C 167.78 170.57 166.92 171.44 166.92 172.50 Z M 166.92 173.51 L 166.92 174.51 C 166.92 175.57 167.78 176.44 168.85 176.44 C 169.91 176.44 170.77 175.57 170.77 174.51 L 170.77 173.51 C 170.77 172.45 169.91 171.58 168.85 171.58 C 167.78 171.58 166.92 172.45 166.92 173.51 Z M 166.92 174.51 L 166.92 175.50 C 166.92 176.56 167.78 177.43 168.85 177.43 C 169.91 177.43 170.77 176.56 170.77 175.50 L 170.77 174.51 C 170.77 173.45 169.91 172.58 168.85 172.58 C 167.78 172.58 166.92 173.45 166.92 174.51 Z M 166.92 175.50 L 166.92 176.50 C 166.92 177.57 167.78 178.43 168.85 178.43 C 169.91 178.43 170.77 177.57 170.77 176.50 L 170.77 175.50 C 170.77 174.43 169.91 173.57 168.85 173.57 C 167.78 173.57 166.92 174.43 166.92 175.50 Z M 166.92 176.50 L 166.92 177.52 C 166.92 178.59 167.78 179.45 168.84 179.45 C 169.91 179.45 170.77 178.59 170.77 177.53 L 170.77 176.50 C 170.78 175.44 169.91 174.58 168.85 174.57 C 167.78 174.57 166.92 175.44 166.92 176.50 Z M 166.92 177.52 L 166.91 178.52 C 166.91 179.58 167.77 180.45 168.83 180.45 C 169.90 180.46 170.77 179.60 170.77 178.53 L 170.77 177.53 C 170.78 176.47 169.92 175.60 168.85 175.60 C 167.79 175.59 166.92 176.45 166.92 177.52 Z M 166.91 178.51 L 166.90 179.49 C 166.89 180.55 167.75 181.42 168.81 181.44 C 169.88 181.45 170.75 180.59 170.76 179.52 L 170.77 178.54 C 170.78 177.48 169.93 176.61 168.86 176.60 C 167.79 176.59 166.92 177.44 166.91 178.51 Z M 166.90 179.47 L 166.89 180.37 C 166.87 181.43 167.72 182.31 168.78 182.33 C 169.85 182.35 170.73 181.50 170.75 180.44 L 170.76 179.54 C 170.78 178.47 169.93 177.59 168.86 177.58 C 167.80 177.56 166.92 178.41 166.90 179.47 Z M 166.89 180.35 L 166.86 181.20 C 166.83 182.27 167.67 183.15 168.74 183.18 C 169.80 183.21 170.69 182.37 170.72 181.31 L 170.75 180.46 C 170.78 179.39 169.94 178.50 168.87 178.47 C 167.80 178.44 166.92 179.28 166.89 180.35 Z M 166.86 181.18 L 166.83 182.10 C 166.78 183.17 167.61 184.06 168.68 184.11 C 169.74 184.15 170.64 183.32 170.68 182.25 L 170.72 181.33 C 170.76 180.26 169.93 179.37 168.87 179.32 C 167.80 179.28 166.90 180.11 166.86 181.18 Z M 166.83 182.08 L 166.77 183.13 C 166.72 184.20 167.54 185.11 168.60 185.16 C 169.67 185.22 170.57 184.40 170.63 183.33 L 170.68 182.28 C 170.74 181.21 169.92 180.30 168.85 180.25 C 167.79 180.19 166.88 181.01 166.83 182.08 Z M 166.77 183.12 L 166.70 184.36 C 166.63 185.43 167.44 186.34 168.51 186.41 C 169.57 186.47 170.49 185.66 170.55 184.60 L 170.63 183.35 C 170.69 182.29 169.88 181.37 168.82 181.31 C 167.75 181.24 166.84 182.05 166.77 183.12 Z M 166.70 184.35 L 166.64 185.26 C 166.57 186.32 167.37 187.24 168.43 187.31 C 169.50 187.38 170.42 186.58 170.49 185.52 L 170.55 184.61 C 170.62 183.55 169.82 182.62 168.75 182.55 C 167.69 182.48 166.77 183.29 166.70 184.35 Z M 166.64 185.25 L 166.57 186.22 C 166.49 187.29 167.29 188.21 168.35 188.29 C 169.41 188.37 170.34 187.57 170.42 186.51 L 170.49 185.53 C 170.57 184.46 169.77 183.54 168.71 183.46 C 167.64 183.38 166.72 184.18 166.64 185.25 Z M 166.57 186.21 L 166.48 187.24 C 166.40 188.30 167.19 189.23 168.25 189.32 C 169.32 189.41 170.25 188.61 170.33 187.55 L 170.42 186.52 C 170.50 185.46 169.71 184.53 168.65 184.44 C 167.59 184.35 166.65 185.15 166.57 186.21 Z M 166.49 187.22 L 166.39 188.27 C 166.29 189.33 167.07 190.27 168.14 190.37 C 169.20 190.46 170.14 189.68 170.24 188.62 L 170.33 187.57 C 170.43 186.51 169.65 185.57 168.58 185.47 C 167.52 185.37 166.58 186.16 166.49 187.22 Z M 166.39 188.24 L 166.28 189.29 C 166.17 190.35 166.94 191.30 168.00 191.41 C 169.06 191.52 170.01 190.75 170.12 189.69 L 170.23 188.64 C 170.34 187.58 169.57 186.63 168.51 186.52 C 167.45 186.41 166.50 187.18 166.39 188.24 Z M 166.29 189.25 L 166.16 190.27 C 166.03 191.33 166.79 192.29 167.85 192.42 C 168.91 192.55 169.87 191.79 170.00 190.73 L 170.12 189.72 C 170.25 188.66 169.50 187.70 168.44 187.57 C 167.38 187.44 166.41 188.20 166.29 189.25 Z M 166.17 190.23 L 166.03 191.18 C 165.88 192.24 166.61 193.22 167.67 193.37 C 168.72 193.52 169.70 192.79 169.85 191.73 L 169.99 190.78 C 170.14 189.72 169.41 188.74 168.36 188.59 C 167.30 188.44 166.32 189.17 166.17 190.23 Z M 166.04 191.11 L 165.81 192.36 C 165.62 193.41 166.31 194.41 167.36 194.61 C 168.41 194.80 169.42 194.11 169.61 193.06 L 169.84 191.81 C 170.03 190.76 169.34 189.75 168.29 189.56 C 167.24 189.37 166.24 190.06 166.04 191.11 Z M 165.85 192.22 L 165.56 193.34 C 165.29 194.37 165.91 195.42 166.94 195.69 C 167.97 195.96 169.02 195.34 169.28 194.31 L 169.58 193.19 C 169.84 192.16 169.23 191.11 168.20 190.84 C 167.17 190.58 166.11 191.19 165.85 192.22 Z M 165.63 193.13 L 165.28 194.04 C 164.90 195.03 165.39 196.14 166.38 196.52 C 167.37 196.91 168.48 196.41 168.86 195.42 L 169.21 194.52 C 169.60 193.53 169.10 192.42 168.11 192.03 C 167.12 191.65 166.01 192.14 165.63 193.13 Z M 165.43 193.73 L 165.01 194.42 C 164.46 195.33 164.75 196.51 165.65 197.06 C 166.55 197.61 167.73 197.32 168.29 196.42 L 168.71 195.73 C 169.26 194.83 168.97 193.65 168.07 193.09 C 167.17 192.54 165.99 192.83 165.43 193.73 Z M 165.36 194.01 L 164.81 194.52 C 164.03 195.23 163.97 196.44 164.69 197.21 C 165.40 197.99 166.60 198.05 167.38 197.34 L 167.94 196.83 C 168.72 196.12 168.77 194.91 168.06 194.13 C 167.35 193.36 166.14 193.30 165.36 194.01 Z M 165.48 194.15 L 164.62 194.45 C 163.64 194.79 163.12 195.86 163.46 196.84 C 163.80 197.83 164.88 198.35 165.86 198.00 L 166.71 197.71 C 167.70 197.36 168.22 196.29 167.87 195.31 C 167.53 194.33 166.46 193.81 165.48 194.15 Z M 165.29 194.38 L 164.31 194.36 C 163.29 194.33 162.44 195.13 162.42 196.15 C 162.39 197.17 163.20 198.02 164.22 198.04 L 165.20 198.07 C 166.21 198.09 167.06 197.29 167.09 196.27 C 167.11 195.25 166.31 194.41 165.29 194.38 Z M 164.70 194.45 L 163.64 194.18 C 162.67 193.94 161.69 194.52 161.45 195.49 C 161.20 196.46 161.79 197.44 162.76 197.68 L 163.82 197.95 C 164.79 198.19 165.77 197.61 166.01 196.64 C 166.26 195.67 165.67 194.69 164.70 194.45 Z M 163.83 194.29 L 162.91 193.94 C 162.01 193.59 160.99 194.04 160.64 194.95 C 160.29 195.85 160.75 196.87 161.65 197.22 L 162.57 197.57 C 163.47 197.92 164.49 197.47 164.84 196.56 C 165.19 195.66 164.74 194.64 163.83 194.29 Z M 163.01 194.05 L 162.11 193.62 C 161.27 193.21 160.25 193.57 159.85 194.42 C 159.45 195.26 159.80 196.28 160.65 196.68 L 161.55 197.11 C 162.40 197.52 163.41 197.16 163.81 196.31 C 164.22 195.47 163.86 194.45 163.01 194.05 Z M 162.18 193.72 L 161.29 193.22 C 160.50 192.78 159.51 193.07 159.06 193.85 C 158.62 194.64 158.91 195.64 159.69 196.08 L 160.58 196.58 C 161.37 197.02 162.37 196.74 162.81 195.95 C 163.25 195.16 162.97 194.16 162.18 193.72 Z M 161.34 193.32 L 160.48 192.78 C 159.75 192.31 158.77 192.53 158.31 193.26 C 157.84 194.00 158.06 194.97 158.79 195.44 L 159.65 195.98 C 160.38 196.45 161.36 196.23 161.82 195.50 C 162.29 194.76 162.07 193.79 161.34 193.32 Z M 160.52 192.86 L 159.72 192.29 C 159.03 191.80 158.07 191.96 157.58 192.65 C 157.10 193.34 157.26 194.30 157.95 194.79 L 158.75 195.36 C 159.44 195.84 160.40 195.68 160.88 194.99 C 161.37 194.30 161.21 193.35 160.52 192.86 Z M 159.76 192.36 L 158.99 191.75 C 158.34 191.24 157.40 191.35 156.88 192.01 C 156.37 192.66 156.48 193.60 157.14 194.12 L 157.90 194.72 C 158.55 195.23 159.50 195.12 160.01 194.47 C 160.53 193.81 160.41 192.87 159.76 192.36 Z M 159.03 191.81 L 158.28 191.17 C 157.66 190.63 156.73 190.70 156.20 191.32 C 155.66 191.94 155.73 192.88 156.35 193.41 L 157.10 194.06 C 157.72 194.59 158.65 194.52 159.19 193.90 C 159.72 193.28 159.65 192.35 159.03 191.81 Z M 158.31 191.22 L 157.56 190.52 C 156.97 189.97 156.05 190.00 155.50 190.59 C 154.95 191.18 154.98 192.11 155.57 192.65 L 156.32 193.36 C 156.91 193.91 157.83 193.87 158.38 193.28 C 158.93 192.69 158.90 191.77 158.31 191.22 Z M 157.58 190.56 L 156.88 189.88 C 156.31 189.32 155.40 189.32 154.84 189.89 C 154.28 190.46 154.29 191.37 154.86 191.93 L 155.55 192.62 C 156.12 193.17 157.03 193.17 157.59 192.60 C 158.15 192.03 158.14 191.12 157.58 190.56 Z M 156.90 189.90 L 156.22 189.21 C 155.66 188.64 154.75 188.63 154.19 189.18 C 153.62 189.74 153.61 190.65 154.16 191.21 L 154.84 191.91 C 155.40 192.47 156.31 192.48 156.87 191.93 C 157.44 191.38 157.45 190.47 156.90 189.90 Z M 156.23 189.22 L 155.54 188.50 C 154.99 187.92 154.08 187.90 153.51 188.45 C 152.94 188.99 152.92 189.90 153.46 190.47 L 154.15 191.20 C 154.70 191.77 155.61 191.79 156.18 191.25 C 156.75 190.70 156.77 189.79 156.23 189.22 Z M 155.54 188.51 L 154.84 187.76 C 154.30 187.18 153.39 187.15 152.82 187.69 C 152.24 188.23 152.21 189.14 152.75 189.71 L 153.46 190.46 C 154.00 191.04 154.90 191.07 155.48 190.53 C 156.05 189.99 156.08 189.08 155.54 188.51 Z M 154.84 187.76 L 154.13 187.00 C 153.60 186.43 152.69 186.39 152.12 186.93 C 151.54 187.47 151.51 188.37 152.04 188.95 L 152.75 189.71 C 153.29 190.28 154.19 190.32 154.77 189.78 C 155.35 189.24 155.38 188.34 154.84 187.76 Z M 154.13 187.00 L 154.02 186.88 C 153.48 186.30 152.58 186.27 152.00 186.80 C 151.42 187.34 151.39 188.24 151.93 188.82 L 152.04 188.94 C 152.58 189.52 153.48 189.55 154.06 189.02 C 154.64 188.48 154.67 187.58 154.13 187.00 Z"
      fill="black"
      fill-rule="nonzero" /><path d="M 144.50 132.63 L 144.83 133.41 C 145.16 134.21 146.09 134.59 146.89 134.26 C 147.70 133.92 148.08 133.00 147.74 132.20 L 147.42 131.41 C 147.08 130.61 146.16 130.23 145.35 130.56 C 144.55 130.90 144.17 131.82 144.50 132.63 Z M 144.75 133.34 L 145.05 134.20 C 145.35 135.05 146.27 135.50 147.12 135.20 C 147.97 134.91 148.42 133.98 148.12 133.13 L 147.82 132.27 C 147.52 131.42 146.60 130.97 145.75 131.27 C 144.90 131.56 144.45 132.49 144.75 133.34 Z M 144.96 134.07 L 145.22 135.11 C 145.44 136.01 146.35 136.56 147.25 136.33 C 148.15 136.11 148.69 135.20 148.47 134.31 L 148.21 133.27 C 147.99 132.37 147.08 131.82 146.18 132.05 C 145.29 132.27 144.74 133.18 144.96 134.07 Z M 145.15 134.97 L 145.32 136.08 C 145.47 137.01 146.34 137.65 147.28 137.51 C 148.21 137.37 148.85 136.49 148.71 135.55 L 148.54 134.45 C 148.39 133.51 147.52 132.87 146.58 133.01 C 145.65 133.16 145.01 134.03 145.15 134.97 Z M 145.29 135.98 L 145.37 136.93 C 145.46 137.89 146.31 138.59 147.27 138.50 C 148.22 138.41 148.92 137.57 148.83 136.61 L 148.75 135.65 C 148.66 134.70 147.81 134.00 146.85 134.09 C 145.90 134.17 145.20 135.02 145.29 135.98 Z M 145.36 136.87 L 145.41 137.90 C 145.47 138.86 146.29 139.60 147.26 139.55 C 148.23 139.49 148.96 138.67 148.91 137.70 L 148.85 136.67 C 148.80 135.71 147.97 134.97 147.01 135.02 C 146.04 135.08 145.30 135.90 145.36 136.87 Z M 145.40 137.84 L 145.43 138.90 C 145.45 139.87 146.26 140.64 147.24 140.62 C 148.21 140.59 148.98 139.78 148.95 138.81 L 148.93 137.75 C 148.90 136.78 148.09 136.01 147.12 136.04 C 146.14 136.06 145.37 136.87 145.40 137.84 Z M 145.41 138.85 L 145.41 139.89 C 145.41 140.87 146.21 141.67 147.19 141.67 C 148.17 141.67 148.96 140.87 148.96 139.89 L 148.97 138.85 C 148.97 137.87 148.17 137.08 147.19 137.08 C 146.21 137.08 145.41 137.87 145.41 138.85 Z M 145.40 139.84 L 145.37 140.82 C 145.34 141.80 146.12 142.63 147.11 142.66 C 148.10 142.68 148.92 141.91 148.95 140.92 L 148.98 139.94 C 149.01 138.95 148.23 138.13 147.24 138.10 C 146.25 138.07 145.43 138.85 145.40 139.84 Z M 145.37 140.75 L 145.29 141.87 C 145.23 142.86 145.98 143.72 146.97 143.78 C 147.96 143.85 148.81 143.10 148.88 142.11 L 148.95 140.99 C 149.02 140.00 148.27 139.14 147.28 139.07 C 146.29 139.01 145.43 139.76 145.37 140.75 Z M 145.30 141.77 L 145.17 142.81 C 145.05 143.79 145.75 144.69 146.74 144.81 C 147.73 144.93 148.62 144.23 148.75 143.25 L 148.87 142.21 C 148.99 141.22 148.29 140.32 147.31 140.20 C 146.32 140.08 145.42 140.78 145.30 141.77 Z M 145.19 142.69 L 145.01 143.61 C 144.82 144.59 145.47 145.53 146.44 145.72 C 147.42 145.91 148.37 145.26 148.55 144.29 L 148.73 143.36 C 148.92 142.39 148.27 141.44 147.30 141.25 C 146.32 141.07 145.37 141.71 145.19 142.69 Z M 145.03 143.50 L 144.81 144.37 C 144.56 145.33 145.14 146.32 146.11 146.57 C 147.07 146.82 148.06 146.24 148.31 145.27 L 148.53 144.40 C 148.78 143.43 148.20 142.45 147.23 142.20 C 146.27 141.95 145.28 142.53 145.03 143.50 Z M 144.83 144.28 L 144.55 145.17 C 144.26 146.12 144.79 147.13 145.74 147.43 C 146.69 147.73 147.71 147.20 148.00 146.25 L 148.28 145.36 C 148.58 144.41 148.05 143.39 147.10 143.09 C 146.14 142.80 145.13 143.33 144.83 144.28 Z M 144.58 145.10 L 144.25 146.02 C 143.92 146.96 144.41 147.99 145.35 148.33 C 146.29 148.66 147.33 148.17 147.66 147.23 L 147.98 146.31 C 148.32 145.37 147.82 144.34 146.88 144.00 C 145.94 143.67 144.91 144.16 144.58 145.10 Z M 144.27 145.97 L 143.90 146.91 C 143.54 147.85 144.01 148.89 144.94 149.25 C 145.87 149.61 146.92 149.15 147.28 148.22 L 147.64 147.28 C 148.00 146.34 147.54 145.30 146.61 144.94 C 145.68 144.58 144.63 145.04 144.27 145.97 Z M 143.92 146.88 L 143.52 147.85 C 143.14 148.77 143.58 149.83 144.51 150.21 C 145.43 150.59 146.49 150.15 146.87 149.22 L 147.27 148.25 C 147.65 147.33 147.20 146.27 146.28 145.89 C 145.35 145.51 144.30 145.95 143.92 146.88 Z M 143.53 147.82 L 143.14 148.72 C 142.75 149.64 143.18 150.70 144.10 151.10 C 145.02 151.49 146.08 151.06 146.47 150.14 L 146.86 149.24 C 147.25 148.33 146.82 147.26 145.90 146.87 C 144.99 146.47 143.92 146.90 143.53 147.82 Z M 143.15 148.70 L 142.76 149.59 C 142.35 150.50 142.77 151.57 143.68 151.98 C 144.59 152.38 145.66 151.97 146.07 151.06 L 146.46 150.17 C 146.87 149.25 146.46 148.18 145.54 147.78 C 144.63 147.37 143.56 147.78 143.15 148.70 Z M 142.77 149.56 L 142.35 150.47 C 141.93 151.38 142.33 152.46 143.23 152.88 C 144.14 153.30 145.22 152.90 145.64 151.99 L 146.06 151.08 C 146.48 150.18 146.08 149.10 145.17 148.68 C 144.27 148.26 143.19 148.66 142.77 149.56 Z M 142.36 150.44 L 141.92 151.37 C 141.48 152.27 141.86 153.35 142.76 153.79 C 143.66 154.22 144.74 153.84 145.18 152.94 L 145.62 152.02 C 146.06 151.12 145.68 150.04 144.78 149.60 C 143.88 149.17 142.80 149.54 142.36 150.44 Z M 141.93 151.33 L 141.47 152.24 C 141.02 153.13 141.37 154.22 142.26 154.67 C 143.16 155.13 144.25 154.77 144.70 153.88 L 145.16 152.98 C 145.61 152.09 145.26 151.00 144.37 150.54 C 143.48 150.09 142.39 150.44 141.93 151.33 Z M 141.49 152.21 L 141.04 153.04 C 140.57 153.93 140.91 155.02 141.79 155.49 C 142.67 155.96 143.77 155.63 144.24 154.75 L 144.68 153.91 C 145.15 153.03 144.82 151.93 143.94 151.46 C 143.06 150.99 141.96 151.33 141.49 152.21 Z M 141.06 153.02 L 140.59 153.87 C 140.11 154.75 140.42 155.85 141.30 156.33 C 142.17 156.81 143.27 156.49 143.75 155.62 L 144.22 154.77 C 144.71 153.90 144.39 152.80 143.52 152.31 C 142.64 151.83 141.54 152.15 141.06 153.02 Z M 140.60 153.85 L 140.11 154.73 C 139.61 155.59 139.92 156.69 140.79 157.19 C 141.65 157.68 142.75 157.38 143.25 156.51 L 143.74 155.64 C 144.23 154.77 143.93 153.67 143.06 153.18 C 142.20 152.68 141.09 152.99 140.60 153.85 Z M 140.12 154.71 L 139.60 155.61 C 139.10 156.47 139.39 157.58 140.25 158.08 C 141.11 158.57 142.22 158.28 142.72 157.42 L 143.24 156.52 C 143.74 155.66 143.44 154.56 142.58 154.06 C 141.72 153.56 140.62 153.85 140.12 154.71 Z M 139.60 155.60 L 139.07 156.51 C 138.57 157.37 138.85 158.47 139.71 158.98 C 140.57 159.48 141.67 159.19 142.18 158.34 L 142.71 157.43 C 143.21 156.57 142.93 155.46 142.07 154.96 C 141.21 154.46 140.11 154.74 139.60 155.60 Z M 139.07 156.51 L 138.59 157.33 C 138.08 158.19 138.36 159.29 139.22 159.79 C 140.07 160.30 141.18 160.02 141.68 159.16 L 142.17 158.34 C 142.68 157.49 142.39 156.38 141.54 155.88 C 140.68 155.37 139.58 155.65 139.07 156.51 Z M 138.60 157.32 L 138.09 158.17 C 137.58 159.02 137.86 160.12 138.71 160.63 C 139.56 161.14 140.66 160.86 141.17 160.01 L 141.68 159.17 C 142.19 158.32 141.91 157.22 141.06 156.71 C 140.21 156.20 139.10 156.47 138.60 157.32 Z M 138.10 158.16 L 137.58 159.02 C 137.07 159.86 137.34 160.96 138.18 161.48 C 139.03 161.99 140.13 161.72 140.64 160.88 L 141.16 160.02 C 141.68 159.17 141.41 158.07 140.56 157.56 C 139.72 157.04 138.61 157.31 138.10 158.16 Z M 137.59 159.01 L 137.06 159.87 C 136.54 160.71 136.80 161.81 137.64 162.33 C 138.48 162.85 139.58 162.59 140.10 161.75 L 140.63 160.89 C 141.15 160.05 140.89 158.94 140.05 158.43 C 139.21 157.91 138.11 158.17 137.59 159.01 Z M 137.07 159.86 L 136.52 160.72 C 135.99 161.56 136.24 162.66 137.08 163.19 C 137.91 163.71 139.01 163.46 139.54 162.63 L 140.08 161.76 C 140.61 160.93 140.36 159.83 139.53 159.30 C 138.70 158.78 137.59 159.02 137.07 159.86 Z M 136.53 160.71 L 135.98 161.57 C 135.44 162.39 135.68 163.50 136.50 164.03 C 137.33 164.56 138.43 164.33 138.97 163.50 L 139.52 162.65 C 140.06 161.82 139.82 160.72 139.00 160.18 C 138.17 159.65 137.07 159.88 136.53 160.71 Z M 135.99 161.55 L 135.45 162.37 C 134.91 163.19 135.13 164.29 135.94 164.83 C 136.76 165.38 137.86 165.15 138.41 164.34 L 138.95 163.52 C 139.49 162.70 139.27 161.60 138.46 161.06 C 137.64 160.51 136.54 160.74 135.99 161.55 Z M 135.47 162.35 L 134.91 163.17 C 134.36 163.98 134.56 165.08 135.37 165.63 C 136.18 166.18 137.28 165.97 137.83 165.17 L 138.39 164.35 C 138.94 163.55 138.73 162.44 137.93 161.89 C 137.12 161.34 136.02 161.55 135.47 162.35 Z M 134.93 163.15 L 134.36 163.96 C 133.80 164.76 133.99 165.86 134.79 166.42 C 135.59 166.98 136.69 166.79 137.25 165.99 L 137.82 165.18 C 138.38 164.38 138.18 163.28 137.39 162.72 C 136.59 162.16 135.49 162.35 134.93 163.15 Z M 134.37 163.95 L 133.79 164.76 C 133.22 165.55 133.40 166.65 134.19 167.22 C 134.98 167.79 136.08 167.61 136.65 166.82 L 137.23 166.01 C 137.80 165.22 137.62 164.12 136.83 163.55 C 136.04 162.98 134.94 163.16 134.37 163.95 Z M 133.80 164.75 L 133.20 165.56 C 132.63 166.34 132.79 167.44 133.57 168.02 C 134.35 168.59 135.45 168.43 136.03 167.65 L 136.63 166.83 C 137.21 166.05 137.04 164.96 136.26 164.38 C 135.48 163.80 134.38 163.97 133.80 164.75 Z M 133.22 165.55 L 132.60 166.36 C 132.01 167.14 132.17 168.23 132.94 168.82 C 133.71 169.40 134.81 169.25 135.39 168.48 L 136.01 167.66 C 136.60 166.89 136.44 165.79 135.67 165.21 C 134.90 164.62 133.80 164.78 133.22 165.55 Z M 132.62 166.35 L 132.02 167.12 C 131.43 167.88 131.57 168.98 132.33 169.57 C 133.09 170.16 134.19 170.02 134.78 169.26 L 135.37 168.49 C 135.97 167.73 135.83 166.63 135.06 166.04 C 134.30 165.45 133.21 165.59 132.62 166.35 Z M 132.04 167.11 L 131.43 167.87 C 130.84 168.63 130.96 169.72 131.72 170.32 C 132.47 170.91 133.57 170.79 134.16 170.03 L 134.77 169.27 C 135.36 168.51 135.23 167.42 134.48 166.82 C 133.73 166.23 132.63 166.36 132.04 167.11 Z M 131.44 167.87 L 130.83 168.64 C 130.23 169.38 130.34 170.48 131.09 171.08 C 131.84 171.68 132.93 171.56 133.53 170.81 L 134.15 170.04 C 134.75 169.29 134.63 168.20 133.88 167.60 C 133.14 167.00 132.04 167.12 131.44 167.87 Z M 130.84 168.63 L 130.20 169.41 C 129.60 170.15 129.71 171.24 130.45 171.84 C 131.19 172.44 132.28 172.33 132.88 171.59 L 133.52 170.82 C 134.12 170.08 134.01 168.99 133.27 168.38 C 132.53 167.78 131.44 167.89 130.84 168.63 Z M 130.22 169.40 L 129.57 170.18 C 128.97 170.92 129.07 172.00 129.80 172.61 C 130.54 173.22 131.62 173.11 132.23 172.38 L 132.87 171.60 C 133.48 170.86 133.37 169.78 132.64 169.17 C 131.91 168.57 130.82 168.67 130.22 169.40 Z M 129.58 170.18 L 128.92 170.97 C 128.32 171.70 128.42 172.78 129.15 173.39 C 129.87 173.99 130.96 173.90 131.56 173.17 L 132.22 172.38 C 132.83 171.65 132.73 170.57 132.00 169.96 C 131.27 169.36 130.19 169.45 129.58 170.18 Z M 128.93 170.97 L 128.27 171.76 C 127.66 172.48 127.76 173.56 128.48 174.17 C 129.21 174.78 130.28 174.68 130.89 173.96 L 131.55 173.17 C 132.16 172.44 132.07 171.37 131.34 170.76 C 130.62 170.15 129.54 170.24 128.93 170.97 Z M 128.28 171.76 L 127.64 172.51 C 127.04 173.23 127.13 174.31 127.85 174.91 C 128.57 175.52 129.64 175.43 130.25 174.71 L 130.88 173.96 C 131.49 173.24 131.40 172.16 130.68 171.56 C 129.96 170.95 128.89 171.04 128.28 171.76 Z M 127.65 172.51 L 127.01 173.27 C 126.40 173.98 126.49 175.05 127.21 175.66 C 127.92 176.27 128.99 176.18 129.60 175.47 L 130.24 174.71 C 130.85 173.99 130.76 172.92 130.05 172.32 C 129.33 171.71 128.26 171.80 127.65 172.51 Z M 127.02 173.27 L 126.37 174.03 C 125.76 174.74 125.85 175.81 126.56 176.41 C 127.27 177.02 128.34 176.93 128.94 176.22 L 129.59 175.46 C 130.20 174.75 130.11 173.69 129.40 173.08 C 128.69 172.47 127.63 172.56 127.02 173.27 Z M 126.38 174.03 L 125.73 174.79 C 125.12 175.49 125.20 176.56 125.91 177.16 C 126.61 177.77 127.68 177.69 128.28 176.98 L 128.94 176.22 C 129.54 175.52 129.46 174.45 128.76 173.85 C 128.05 173.24 126.99 173.32 126.38 174.03 Z M 125.73 174.79 L 125.08 175.55 C 124.47 176.25 124.55 177.31 125.25 177.92 C 125.95 178.52 127.01 178.45 127.62 177.74 L 128.27 176.98 C 128.88 176.28 128.80 175.22 128.10 174.62 C 127.40 174.01 126.34 174.09 125.73 174.79 Z M 125.09 175.55 L 124.42 176.31 C 123.82 177.01 123.89 178.06 124.59 178.67 C 125.29 179.27 126.34 179.20 126.95 178.50 L 127.61 177.74 C 128.21 177.05 128.14 175.99 127.44 175.39 C 126.75 174.78 125.69 174.85 125.09 175.55 Z M 124.43 176.31 L 123.77 177.07 C 123.16 177.76 123.23 178.81 123.92 179.42 C 124.62 180.03 125.67 179.96 126.27 179.26 L 126.94 178.50 C 127.54 177.81 127.47 176.76 126.78 176.16 C 126.09 175.55 125.04 175.62 124.43 176.31 Z M 123.78 177.07 L 123.11 177.83 C 122.50 178.52 122.57 179.56 123.26 180.17 C 123.94 180.77 124.99 180.71 125.60 180.02 L 126.26 179.26 C 126.87 178.58 126.80 177.53 126.12 176.92 C 125.43 176.32 124.38 176.38 123.78 177.07 Z M 123.12 177.83 L 122.45 178.58 C 121.84 179.26 121.91 180.31 122.59 180.91 C 123.27 181.52 124.31 181.46 124.92 180.77 L 125.59 180.02 C 126.19 179.34 126.13 178.30 125.45 177.69 C 124.77 177.09 123.72 177.15 123.12 177.83 Z M 122.46 178.58 L 121.79 179.33 C 121.18 180.01 121.24 181.05 121.92 181.65 C 122.59 182.26 123.63 182.20 124.24 181.52 L 124.91 180.77 C 125.51 180.10 125.45 179.06 124.78 178.45 C 124.10 177.85 123.06 177.91 122.46 178.58 Z M 121.80 179.34 L 121.13 180.08 C 120.52 180.75 120.58 181.79 121.25 182.39 C 121.92 182.99 122.95 182.94 123.56 182.27 L 124.23 181.52 C 124.83 180.85 124.78 179.82 124.11 179.21 C 123.44 178.61 122.40 178.66 121.80 179.34 Z M 121.14 180.08 L 120.47 180.82 C 119.86 181.49 119.91 182.52 120.58 183.12 C 121.24 183.72 122.27 183.67 122.88 183.01 L 123.55 182.27 C 124.15 181.60 124.10 180.57 123.43 179.97 C 122.77 179.37 121.74 179.42 121.14 180.08 Z M 120.47 180.82 L 119.80 181.56 C 119.20 182.22 119.25 183.24 119.91 183.85 C 120.57 184.45 121.59 184.40 122.20 183.74 L 122.87 183.01 C 123.47 182.35 123.42 181.32 122.76 180.72 C 122.10 180.12 121.08 180.16 120.47 180.82 Z M 119.81 181.56 L 119.15 182.29 C 118.54 182.94 118.59 183.96 119.24 184.56 C 119.90 185.17 120.92 185.12 121.52 184.47 L 122.19 183.74 C 122.79 183.08 122.75 182.06 122.09 181.46 C 121.44 180.86 120.42 180.90 119.81 181.56 Z M 119.15 182.29 L 118.48 183.02 C 117.88 183.67 117.92 184.68 118.57 185.29 C 119.22 185.89 120.23 185.85 120.83 185.20 L 121.51 184.47 C 122.11 183.82 122.07 182.80 121.42 182.20 C 120.77 181.60 119.76 181.64 119.15 182.29 Z M 118.49 183.02 L 117.81 183.75 C 117.21 184.40 117.24 185.41 117.89 186.01 C 118.53 186.61 119.54 186.57 120.14 185.93 L 120.82 185.20 C 121.42 184.55 121.39 183.54 120.74 182.94 C 120.10 182.34 119.09 182.38 118.49 183.02 Z M 117.82 183.76 L 117.14 184.49 C 116.54 185.13 116.57 186.13 117.21 186.73 C 117.85 187.33 118.86 187.29 119.45 186.65 L 120.13 185.92 C 120.73 185.28 120.70 184.28 120.06 183.68 C 119.42 183.08 118.41 183.12 117.82 183.76 Z M 117.14 184.49 L 116.46 185.22 C 115.87 185.85 115.90 186.85 116.53 187.45 C 117.17 188.04 118.17 188.01 118.77 187.37 L 119.45 186.65 C 120.04 186.01 120.01 185.01 119.37 184.42 C 118.74 183.82 117.74 183.85 117.14 184.49 Z M 116.47 185.22 L 115.79 185.95 C 115.19 186.58 115.23 187.57 115.86 188.16 C 116.49 188.76 117.48 188.73 118.08 188.10 L 118.76 187.37 C 119.35 186.74 119.32 185.74 118.69 185.15 C 118.06 184.56 117.06 184.59 116.47 185.22 Z M 115.79 185.95 L 115.11 186.68 C 114.52 187.31 114.55 188.30 115.18 188.89 C 115.81 189.48 116.79 189.45 117.39 188.82 L 118.07 188.09 C 118.66 187.46 118.63 186.47 118.00 185.88 C 117.37 185.29 116.38 185.32 115.79 185.95 Z M 115.12 186.69 L 114.43 187.42 C 113.84 188.04 113.87 189.03 114.50 189.61 C 115.12 190.20 116.10 190.17 116.69 189.54 L 117.38 188.81 C 117.97 188.19 117.94 187.20 117.31 186.62 C 116.69 186.03 115.70 186.06 115.12 186.69 Z M 114.43 187.43 L 113.73 188.17 C 113.15 188.79 113.18 189.77 113.80 190.36 C 114.43 190.94 115.41 190.91 115.99 190.28 L 116.69 189.54 C 117.27 188.92 117.24 187.94 116.62 187.35 C 115.99 186.77 115.02 186.80 114.43 187.43 Z M 113.74 188.18 L 113.03 188.93 C 112.45 189.55 112.48 190.53 113.10 191.11 C 113.73 191.69 114.70 191.65 115.28 191.03 L 115.99 190.28 C 116.57 189.66 116.53 188.68 115.91 188.10 C 115.29 187.52 114.32 187.56 113.74 188.18 Z M 113.03 188.94 L 112.33 189.69 C 111.75 190.31 111.79 191.28 112.41 191.86 C 113.03 192.44 114.00 192.40 114.57 191.78 L 115.28 191.03 C 115.85 190.41 115.82 189.44 115.20 188.86 C 114.58 188.28 113.61 188.32 113.03 188.94 Z M 112.33 189.70 L 111.64 190.45 C 111.06 191.06 111.10 192.03 111.71 192.61 C 112.33 193.18 113.30 193.14 113.87 192.53 L 114.57 191.78 C 115.14 191.16 115.11 190.19 114.49 189.62 C 113.87 189.05 112.91 189.08 112.33 189.70 Z M 111.64 190.45 L 110.96 191.19 C 110.38 191.80 110.42 192.77 111.04 193.34 C 111.65 193.91 112.61 193.87 113.19 193.26 L 113.87 192.52 C 114.44 191.91 114.41 190.94 113.79 190.37 C 113.17 189.80 112.21 189.84 111.64 190.45 Z M 110.96 191.19 L 110.29 191.91 C 109.72 192.52 109.76 193.48 110.37 194.05 C 110.99 194.62 111.95 194.59 112.51 193.97 L 113.18 193.25 C 113.75 192.64 113.71 191.68 113.10 191.11 C 112.49 190.54 111.53 190.58 110.96 191.19 Z M 110.30 191.91 L 109.65 192.61 C 109.09 193.22 109.12 194.17 109.73 194.74 C 110.34 195.31 111.30 195.27 111.87 194.66 L 112.51 193.97 C 113.08 193.36 113.04 192.40 112.43 191.84 C 111.82 191.27 110.87 191.30 110.30 191.91 Z M 109.66 192.61 L 108.96 193.37 C 108.39 193.98 108.43 194.93 109.04 195.49 C 109.64 196.06 110.60 196.02 111.16 195.41 L 111.86 194.66 C 112.43 194.05 112.39 193.10 111.78 192.53 C 111.18 191.97 110.22 192.00 109.66 192.61 Z M 108.96 193.37 L 108.23 194.16 C 107.67 194.76 107.70 195.71 108.31 196.27 C 108.91 196.84 109.86 196.80 110.43 196.20 L 111.16 195.41 C 111.72 194.80 111.69 193.86 111.08 193.29 C 110.47 192.73 109.52 192.76 108.96 193.37 Z M 108.23 194.16 L 107.54 194.91 C 106.98 195.51 107.01 196.46 107.62 197.02 C 108.22 197.58 109.17 197.55 109.73 196.94 L 110.42 196.19 C 110.99 195.59 110.95 194.64 110.35 194.08 C 109.74 193.52 108.80 193.55 108.23 194.16 Z M 107.54 194.91 L 106.88 195.62 C 106.32 196.23 106.35 197.17 106.96 197.73 C 107.56 198.29 108.50 198.26 109.06 197.65 L 109.73 196.94 C 110.29 196.33 110.25 195.39 109.65 194.83 C 109.05 194.27 108.10 194.31 107.54 194.91 Z M 106.88 195.63 L 106.24 196.32 C 105.68 196.92 105.72 197.86 106.32 198.42 C 106.92 198.98 107.86 198.94 108.42 198.34 L 109.06 197.65 C 109.62 197.05 109.58 196.11 108.98 195.55 C 108.38 194.99 107.44 195.02 106.88 195.63 Z M 106.24 196.32 L 105.61 197.00 C 105.06 197.59 105.09 198.53 105.69 199.09 C 106.29 199.65 107.23 199.61 107.79 199.01 L 108.41 198.34 C 108.97 197.74 108.94 196.80 108.34 196.24 C 107.74 195.69 106.80 195.72 106.24 196.32 Z M 105.62 197.00 L 104.92 197.74 C 104.37 198.34 104.40 199.28 105.00 199.83 C 105.60 200.39 106.54 200.36 107.09 199.76 L 107.78 199.01 C 108.34 198.41 108.31 197.48 107.71 196.92 C 107.11 196.36 106.17 196.40 105.62 197.00 Z M 104.93 197.74 L 104.24 198.48 C 103.68 199.08 103.72 200.01 104.32 200.57 C 104.91 201.13 105.85 201.09 106.41 200.49 L 107.09 199.76 C 107.65 199.16 107.61 198.22 107.02 197.67 C 106.42 197.11 105.48 197.14 104.93 197.74 Z M 104.24 198.48 L 103.56 199.20 C 103.00 199.80 103.04 200.73 103.63 201.29 C 104.23 201.85 105.16 201.82 105.72 201.22 L 106.40 200.50 C 106.96 199.90 106.93 198.96 106.33 198.41 C 105.74 197.85 104.80 197.88 104.24 198.48 Z M 103.57 199.20 L 102.89 199.92 C 102.33 200.51 102.35 201.45 102.95 202.01 C 103.54 202.57 104.48 202.54 105.04 201.95 L 105.72 201.23 C 106.28 200.63 106.25 199.70 105.66 199.14 C 105.06 198.58 104.13 198.61 103.57 199.20 Z M 102.89 199.91 L 102.21 200.63 C 101.65 201.22 101.67 202.15 102.26 202.72 C 102.85 203.28 103.78 203.26 104.35 202.67 L 105.03 201.95 C 105.59 201.37 105.57 200.43 104.98 199.87 C 104.39 199.30 103.46 199.32 102.89 199.91 Z M 102.22 200.62 L 101.52 201.34 C 100.95 201.92 100.97 202.86 101.55 203.43 C 102.14 203.99 103.07 203.98 103.64 203.40 L 104.34 202.68 C 104.91 202.09 104.89 201.16 104.31 200.59 C 103.72 200.02 102.79 200.03 102.22 200.62 Z M 101.53 201.33 L 100.83 202.04 C 100.25 202.62 100.26 203.56 100.84 204.13 C 101.43 204.71 102.36 204.70 102.94 204.12 L 103.64 203.40 C 104.21 202.82 104.20 201.88 103.62 201.31 C 103.04 200.74 102.10 200.75 101.53 201.33 Z M 100.83 202.04 L 100.13 202.75 C 99.55 203.33 99.55 204.26 100.13 204.84 C 100.71 205.42 101.65 205.41 102.23 204.83 L 102.93 204.12 C 103.51 203.54 103.50 202.60 102.92 202.03 C 102.34 201.45 101.41 201.46 100.83 202.04 Z M 100.13 202.74 L 99.42 203.45 C 98.84 204.03 98.84 204.97 99.42 205.55 C 100.00 206.12 100.94 206.12 101.52 205.54 L 102.23 204.84 C 102.80 204.26 102.80 203.32 102.22 202.74 C 101.64 202.16 100.71 202.16 100.13 202.74 Z M 99.42 203.45 L 98.87 204.00 C 98.29 204.58 98.29 205.52 98.87 206.09 C 99.45 206.67 100.39 206.67 100.97 206.09 L 101.52 205.55 C 102.10 204.97 102.10 204.03 101.52 203.45 C 100.94 202.87 100.00 202.87 99.42 203.45 Z"
      fill="black"
      fill-rule="nonzero" /></svg>