<svg xmlns="http://www.w3.org/2000/svg" width="300" height="300" viewBox="0 0 300 300">
<path d="M 129.82 122.71 L 129.97 121.70 C 130.09 120.90 129.54 120.15 128.73 120.03 C 127.93 119.91 127.18 120.46 127.06 121.27 L 126.91 122.28 C 126.79 123.08 127.34 123.83 128.15 123.95 C 128.95 124.07 129.70 123.52 129.82 122.71 Z M 129.98 121.72 L 130.14 120.72 C 130.26 119.91 129.71 119.15 128.90 119.03 C 128.09 118.90 127.34 119.45 127.21 120.26 L 127.05 121.26 C 126.93 122.06 127.48 122.82 128.29 122.95 C 129.09 123.08 129.85 122.52 129.98 121.72 Z M 130.14 120.74 L 130.31 119.77 C 130.45 118.96 129.91 118.19 129.10 118.05 C 128.29 117.91 127.51 118.45 127.37 119.26 L 127.21 120.23 C 127.06 121.04 127.61 121.82 128.42 121.96 C 129.23 122.10 130.00 121.55 130.14 120.74 Z M 130.32 119.82 L 130.56 118.66 C 130.73 117.84 130.20 117.04 129.38 116.87 C 128.56 116.71 127.77 117.23 127.60 118.05 L 127.36 119.21 C 127.19 120.03 127.72 120.83 128.54 121.00 C 129.36 121.16 130.15 120.64 130.32 119.82 Z M 130.57 118.81 L 130.90 117.74 C 131.15 116.91 130.69 116.04 129.86 115.79 C 129.04 115.54 128.16 116.00 127.91 116.83 L 127.58 117.90 C 127.33 118.73 127.80 119.60 128.62 119.85 C 129.45 120.10 130.32 119.64 130.57 118.81 Z M 130.24 118.68 L 130.57 118.48 C 131.34 118.02 131.59 117.02 131.13 116.25 C 130.67 115.48 129.67 115.23 128.89 115.69 L 128.57 115.89 C 127.80 116.35 127.55 117.35 128.01 118.12 C 128.47 118.89 129.47 119.14 130.24 118.68 Z M 128.20 117.74 L 128.45 118.32 C 128.81 119.17 129.79 119.56 130.63 119.20 C 131.48 118.84 131.87 117.86 131.51 117.02 L 131.27 116.44 C 130.91 115.59 129.93 115.19 129.08 115.55 C 128.23 115.91 127.84 116.89 128.20 117.74 Z M 128.33 118.01 L 128.56 119.09 C 128.74 119.99 129.63 120.58 130.54 120.39 C 131.45 120.20 132.04 119.31 131.85 118.40 L 131.63 117.33 C 131.44 116.42 130.55 115.83 129.64 116.02 C 128.73 116.21 128.14 117.10 128.33 118.01 Z M 128.52 118.96 L 128.69 120.31 C 128.81 121.24 129.66 121.90 130.59 121.78 C 131.52 121.66 132.18 120.81 132.06 119.88 L 131.89 118.53 C 131.77 117.60 130.92 116.94 129.99 117.06 C 129.06 117.18 128.40 118.03 128.52 118.96 Z M 128.68 120.24 L 128.76 121.25 C 128.84 122.19 129.66 122.88 130.60 122.81 C 131.54 122.73 132.24 121.90 132.16 120.96 L 132.08 119.96 C 132.00 119.02 131.17 118.32 130.23 118.40 C 129.30 118.47 128.60 119.30 128.68 120.24 Z M 128.75 121.20 L 128.81 122.23 C 128.87 123.18 129.67 123.90 130.62 123.84 C 131.56 123.79 132.28 122.98 132.22 122.04 L 132.17 121.01 C 132.11 120.07 131.30 119.35 130.36 119.40 C 129.42 119.45 128.70 120.26 128.75 121.20 Z M 128.81 122.20 L 128.85 123.22 C 128.88 124.17 129.68 124.90 130.62 124.87 C 131.57 124.83 132.30 124.04 132.27 123.09 L 132.23 122.07 C 132.19 121.13 131.40 120.39 130.45 120.43 C 129.51 120.46 128.77 121.26 128.81 122.20 Z M 128.85 123.20 L 128.87 124.18 C 128.89 125.12 129.68 125.87 130.62 125.85 C 131.57 125.82 132.32 125.04 132.29 124.09 L 132.27 123.11 C 132.25 122.17 131.46 121.42 130.52 121.45 C 129.57 121.47 128.82 122.25 128.85 123.20 Z M 128.87 124.16 L 128.89 125.18 C 128.90 126.12 129.68 126.88 130.63 126.86 C 131.57 126.85 132.33 126.07 132.31 125.12 L 132.29 124.11 C 132.28 123.16 131.50 122.41 130.55 122.42 C 129.61 122.44 128.85 123.22 128.87 124.16 Z M 128.88 125.17 L 128.89 126.22 C 128.90 127.17 129.68 127.93 130.63 127.92 C 131.57 127.91 132.33 127.13 132.32 126.19 L 132.31 125.13 C 132.30 124.19 131.53 123.43 130.58 123.44 C 129.63 123.44 128.87 124.22 128.88 125.17 Z M 128.89 126.21 L 128.90 127.18 C 128.90 128.12 129.67 128.89 130.62 128.88 C 131.57 128.88 132.33 128.11 132.33 127.16 L 132.32 126.20 C 132.32 125.25 131.55 124.48 130.60 124.49 C 129.65 124.49 128.89 125.26 128.89 126.21 Z M 128.90 127.17 L 128.90 128.10 C 128.90 129.05 129.67 129.82 130.61 129.82 C 131.56 129.82 132.33 129.05 132.33 128.10 L 132.33 127.17 C 132.33 126.22 131.56 125.45 130.61 125.45 C 129.66 125.45 128.90 126.22 128.90 127.17 Z M 128.90 128.10 L 128.90 129.07 C 128.90 130.01 129.67 130.78 130.61 130.78 C 131.56 130.78 132.33 130.01 132.33 129.07 L 132.33 128.10 C 132.33 127.15 131.56 126.38 130.61 126.38 C 129.67 126.38 128.90 127.15 128.90 128.10 Z M 128.90 129.07 L 128.90 130.06 C 128.90 131.01 129.66 131.78 130.61 131.78 C 131.56 131.78 132.33 131.01 132.33 130.06 L 132.33 129.07 C 132.33 128.12 131.56 127.35 130.61 127.35 C 129.66 127.35 128.90 128.12 128.90 129.07 Z M 128.89 130.06 L 128.89 131.07 C 128.89 132.02 129.66 132.79 130.61 132.79 C 131.56 132.79 132.33 132.02 132.33 131.07 L 132.33 130.06 C 132.33 129.11 131.56 128.34 130.61 128.34 C 129.66 128.34 128.89 129.11 128.89 130.06 Z M 128.89 131.07 L 128.89 132.07 C 128.89 133.02 129.66 133.80 130.61 133.80 C 131.56 133.80 132.33 133.02 132.33 132.07 L 132.33 131.07 C 132.33 130.12 131.56 129.35 130.61 129.35 C 129.66 129.35 128.89 130.12 128.89 131.07 Z M 128.89 132.07 L 128.89 133.05 C 128.89 134.00 129.66 134.77 130.61 134.77 C 131.56 134.77 132.33 134.00 132.33 133.05 L 132.33 132.07 C 132.33 131.12 131.56 130.35 130.61 130.35 C 129.66 130.35 128.89 131.12 128.89 132.07 Z M 128.89 133.05 L 128.89 134.05 C 128.89 135.00 129.66 135.77 130.61 135.77 C 131.56 135.77 132.33 135.00 132.33 134.05 L 132.33 133.05 C 132.33 132.10 131.56 131.33 130.61 131.33 C 129.66 131.33 128.89 132.10 128.89 133.05 Z M 128.89 134.05 L 128.89 135.08 C 128.89 136.03 129.66 136.80 130.61 136.80 C 131.56 136.80 132.33 136.03 132.33 135.08 L 132.33 134.05 C 132.33 133.10 131.56 132.33 130.61 132.33 C 129.66 132.33 128.89 133.10 128.89 134.05 Z M 128.89 135.08 L 128.89 136.08 C 128.89 137.04 129.66 137.81 130.61 137.81 C 131.56 137.81 132.34 137.04 132.34 136.08 L 132.34 135.08 C 132.34 134.13 131.56 133.36 130.61 133.36 C 129.66 133.36 128.89 134.13 128.89 135.08 Z M 128.89 136.08 L 128.89 137.09 C 128.89 138.04 129.66 138.81 130.61 138.81 C 131.56 138.81 132.34 138.04 132.34 137.09 L 132.34 136.08 C 132.34 135.13 131.56 134.36 130.61 134.36 C 129.66 134.36 128.89 135.13 128.89 136.08 Z M 128.89 137.09 L 128.89 138.10 C 128.89 139.05 129.66 139.82 130.61 139.82 C 131.56 139.82 132.34 139.05 132.34 138.10 L 132.34 137.09 C 132.34 136.14 131.56 135.37 130.61 135.37 C 129.66 135.37 128.89 136.14 128.89 137.09 Z M 128.89 138.10 L 128.89 139.09 C 128.89 140.05 129.66 140.82 130.61 140.82 C 131.56 140.82 132.34 140.05 132.34 139.09 L 132.34 138.10 C 132.34 137.15 131.56 136.37 130.61 136.37 C 129.66 136.37 128.89 137.15 128.89 138.10 Z M 128.89 139.09 L 128.89 140.10 C 128.89 141.05 129.66 141.82 130.61 141.82 C 131.56 141.82 132.34 141.05 132.34 140.10 L 132.34 139.09 C 132.34 138.14 131.56 137.37 130.61 137.37 C 129.66 137.37 128.89 138.14 128.89 139.09 Z M 128.89 140.10 L 128.89 141.09 C 128.89 142.04 129.66 142.81 130.61 142.81 C 131.56 142.81 132.34 142.04 132.34 141.09 L 132.34 140.10 C 132.34 139.15 131.56 138.38 130.61 138.38 C 129.66 138.38 128.89 139.15 128.89 140.10 Z M 128.89 141.09 L 128.89 142.08 C 128.89 143.04 129.66 143.81 130.61 143.81 C 131.56 143.81 132.34 143.04 132.34 142.08 L 132.34 141.09 C 132.34 140.14 131.56 139.37 130.61 139.37 C 129.66 139.37 128.89 140.14 128.89 141.09 Z M 128.89 142.08 L 128.89 143.09 C 128.89 144.04 129.66 144.81 130.61 144.81 C 131.56 144.81 132.34 144.04 132.34 143.09 L 132.34 142.08 C 132.34 141.13 131.56 140.36 130.61 140.36 C 129.66 140.36 128.89 141.13 128.89 142.08 Z M 128.89 143.09 L 128.89 144.06 C 128.89 145.02 129.66 145.79 130.61 145.79 C 131.56 145.79 132.33 145.02 132.33 144.07 L 132.33 143.09 C 132.33 142.14 131.56 141.37 130.61 141.37 C 129.66 141.37 128.89 142.14 128.89 143.09 Z M 128.89 144.06 L 128.89 145.05 C 128.89 146.00 129.65 146.77 130.60 146.78 C 131.55 146.78 132.33 146.01 132.33 145.06 L 132.33 144.07 C 132.34 143.12 131.57 142.35 130.62 142.35 C 129.67 142.34 128.90 143.11 128.89 144.06 Z M 128.89 145.04 L 128.88 146.05 C 128.87 146.99 129.63 147.77 130.58 147.78 C 131.53 147.79 132.31 147.03 132.32 146.08 L 132.33 145.08 C 132.34 144.13 131.58 143.35 130.63 143.34 C 129.68 143.33 128.90 144.09 128.89 145.04 Z M 128.88 146.03 L 128.86 147.05 C 128.84 148.00 129.59 148.78 130.54 148.80 C 131.48 148.82 132.27 148.07 132.29 147.12 L 132.31 146.10 C 132.34 145.16 131.58 144.37 130.64 144.35 C 129.69 144.33 128.90 145.08 128.88 146.03 Z M 128.86 147.02 L 128.82 148.02 C 128.79 148.97 129.53 149.76 130.48 149.80 C 131.42 149.83 132.22 149.09 132.25 148.14 L 132.29 147.15 C 132.32 146.20 131.58 145.41 130.64 145.37 C 129.69 145.34 128.89 146.08 128.86 147.02 Z M 128.83 148.00 L 128.78 148.99 C 128.73 149.94 129.46 150.74 130.40 150.79 C 131.35 150.84 132.15 150.11 132.20 149.16 L 132.25 148.17 C 132.30 147.22 131.57 146.42 130.62 146.37 C 129.68 146.32 128.87 147.05 128.83 148.00 Z M 128.78 148.97 L 128.72 149.97 C 128.66 150.92 129.38 151.73 130.32 151.79 C 131.27 151.85 132.08 151.13 132.14 150.18 L 132.20 149.18 C 132.26 148.24 131.54 147.43 130.59 147.37 C 129.65 147.31 128.84 148.03 128.78 148.97 Z M 128.72 149.96 L 128.65 150.96 C 128.58 151.90 129.29 152.72 130.24 152.79 C 131.18 152.86 132.00 152.15 132.06 151.20 L 132.14 150.20 C 132.20 149.26 131.49 148.44 130.55 148.37 C 129.61 148.30 128.79 149.01 128.72 149.96 Z M 128.65 150.95 L 128.57 151.95 C 128.50 152.89 129.20 153.71 130.14 153.79 C 131.08 153.86 131.91 153.16 131.98 152.21 L 132.06 151.22 C 132.14 150.27 131.43 149.45 130.49 149.38 C 129.55 149.30 128.73 150.01 128.65 150.95 Z M 128.58 151.94 L 128.49 152.93 C 128.41 153.87 129.11 154.70 130.05 154.78 C 130.99 154.86 131.81 154.16 131.89 153.22 L 131.98 152.23 C 132.06 151.29 131.36 150.46 130.42 150.38 C 129.48 150.30 128.66 151.00 128.58 151.94 Z M 128.49 152.92 L 128.41 153.92 C 128.32 154.86 129.01 155.69 129.95 155.77 C 130.89 155.86 131.72 155.16 131.80 154.23 L 131.89 153.23 C 131.98 152.29 131.28 151.46 130.35 151.38 C 129.41 151.29 128.58 151.99 128.49 152.92 Z M 128.41 153.92 L 128.32 154.91 C 128.23 155.85 128.92 156.68 129.85 156.76 C 130.79 156.85 131.62 156.16 131.71 155.23 L 131.80 154.23 C 131.89 153.29 131.20 152.46 130.26 152.38 C 129.32 152.29 128.50 152.98 128.41 153.92 Z M 128.32 154.91 L 128.23 155.83 C 128.15 156.77 128.83 157.60 129.77 157.68 C 130.70 157.77 131.53 157.08 131.62 156.15 L 131.70 155.23 C 131.79 154.29 131.10 153.46 130.17 153.38 C 129.24 153.29 128.41 153.98 128.32 154.91 Z M 128.23 155.83 L 128.16 156.64 C 128.07 157.58 128.76 158.40 129.69 158.49 C 130.63 158.58 131.45 157.89 131.54 156.96 L 131.62 156.15 C 131.70 155.21 131.01 154.39 130.08 154.30 C 129.15 154.21 128.32 154.90 128.23 155.83 Z M 128.16 156.65 L 128.08 157.52 C 128.00 158.45 128.69 159.27 129.62 159.35 C 130.56 159.44 131.38 158.75 131.46 157.82 L 131.54 156.95 C 131.62 156.02 130.93 155.19 130.00 155.11 C 129.07 155.03 128.24 155.72 128.16 156.65 Z M 128.09 157.52 L 128.00 158.49 C 127.93 159.43 128.62 160.24 129.55 160.32 C 130.48 160.40 131.30 159.71 131.38 158.78 L 131.46 157.81 C 131.54 156.88 130.85 156.06 129.91 155.98 C 128.98 155.90 128.16 156.59 128.09 157.52 Z M 128.01 158.50 L 127.92 159.62 C 127.85 160.55 128.54 161.36 129.47 161.44 C 130.40 161.51 131.22 160.81 131.29 159.88 L 131.38 158.77 C 131.45 157.84 130.75 157.02 129.82 156.95 C 128.89 156.88 128.08 157.57 128.01 158.50 Z M 127.92 159.63 L 127.83 160.92 C 127.76 161.85 128.46 162.66 129.39 162.73 C 130.32 162.80 131.13 162.10 131.19 161.17 L 131.29 159.87 C 131.36 158.94 130.66 158.13 129.73 158.07 C 128.80 158.00 127.99 158.70 127.92 159.63 Z M 127.83 160.93 L 127.77 161.82 C 127.70 162.74 128.41 163.55 129.33 163.61 C 130.26 163.68 131.07 162.98 131.13 162.05 L 131.19 161.16 C 131.26 160.23 130.55 159.43 129.63 159.36 C 128.70 159.30 127.89 160.00 127.83 160.93 Z M 127.77 161.82 L 127.71 162.77 C 127.65 163.70 128.35 164.50 129.28 164.56 C 130.20 164.62 131.00 163.92 131.07 162.99 L 131.13 162.04 C 131.19 161.11 130.49 160.31 129.56 160.25 C 128.63 160.19 127.83 160.89 127.77 161.82 Z M 127.71 162.78 L 127.65 163.78 C 127.59 164.70 128.29 165.50 129.22 165.56 C 130.14 165.62 130.94 164.92 131.00 163.99 L 131.06 162.99 C 131.12 162.06 130.42 161.26 129.49 161.21 C 128.57 161.15 127.77 161.85 127.71 162.78 Z M 127.65 163.78 L 127.59 164.82 C 127.53 165.74 128.23 166.54 129.16 166.59 C 130.08 166.65 130.88 165.94 130.93 165.02 L 131.00 163.99 C 131.05 163.06 130.35 162.27 129.43 162.21 C 128.50 162.15 127.71 162.86 127.65 163.78 Z M 127.59 164.82 L 127.53 165.87 C 127.48 166.80 128.18 167.59 129.10 167.64 C 130.03 167.70 130.82 166.99 130.87 166.07 L 130.93 165.02 C 130.99 164.09 130.28 163.30 129.36 163.25 C 128.43 163.19 127.64 163.90 127.59 164.82 Z M 127.53 165.88 L 127.47 166.93 C 127.42 167.85 128.13 168.64 129.05 168.69 C 129.97 168.74 130.76 168.04 130.81 167.12 L 130.87 166.06 C 130.92 165.14 130.21 164.35 129.29 164.30 C 128.37 164.25 127.58 164.96 127.53 165.88 Z M 127.48 166.94 L 127.42 167.98 C 127.38 168.90 128.08 169.68 129.00 169.73 C 129.92 169.78 130.71 169.07 130.75 168.15 L 130.81 167.11 C 130.85 166.19 130.15 165.41 129.23 165.36 C 128.31 165.31 127.52 166.02 127.48 166.94 Z M 127.43 167.98 L 127.38 168.99 C 127.33 169.91 128.04 170.69 128.96 170.73 C 129.88 170.78 130.66 170.07 130.70 169.15 L 130.75 168.14 C 130.79 167.22 130.09 166.44 129.17 166.40 C 128.25 166.36 127.47 167.07 127.43 167.98 Z M 127.38 169.00 L 127.34 170.02 C 127.30 170.93 128.01 171.71 128.93 171.75 C 129.85 171.79 130.62 171.07 130.66 170.16 L 130.70 169.14 C 130.74 168.22 130.03 167.45 129.11 167.41 C 128.19 167.37 127.42 168.08 127.38 169.00 Z M 127.34 170.03 L 127.29 171.52 C 127.26 172.44 127.98 173.20 128.90 173.23 C 129.81 173.26 130.58 172.55 130.61 171.63 L 130.65 170.14 C 130.68 169.23 129.97 168.46 129.05 168.43 C 128.14 168.40 127.37 169.12 127.34 170.03 Z M 127.30 171.55 L 127.28 172.83 C 127.27 173.74 127.99 174.49 128.90 174.50 C 129.82 174.51 130.56 173.79 130.58 172.88 L 130.60 171.60 C 130.61 170.69 129.89 169.94 128.98 169.93 C 128.06 169.92 127.32 170.64 127.30 171.55 Z M 127.29 172.87 L 127.30 173.90 C 127.31 174.81 128.06 175.53 128.96 175.52 C 129.87 175.51 130.60 174.76 130.58 173.86 L 130.57 172.83 C 130.56 171.93 129.82 171.20 128.91 171.21 C 128.00 171.22 127.28 171.97 127.29 172.87 Z M 127.31 173.99 L 127.36 174.74 C 127.42 175.64 128.20 176.32 129.10 176.26 C 130.00 176.20 130.68 175.42 130.62 174.52 L 130.57 173.77 C 130.51 172.87 129.74 172.19 128.84 172.25 C 127.94 172.31 127.25 173.09 127.31 173.99 Z M 127.40 174.95 L 127.49 175.40 C 127.66 176.28 128.52 176.85 129.40 176.67 C 130.28 176.50 130.85 175.64 130.68 174.76 L 130.59 174.31 C 130.41 173.43 129.55 172.86 128.67 173.04 C 127.79 173.21 127.22 174.07 127.40 174.95 Z M 129.21 176.69 L 129.51 176.66 C 130.39 176.59 131.05 175.81 130.98 174.92 C 130.91 174.04 130.13 173.38 129.25 173.45 L 128.95 173.47 C 128.06 173.54 127.40 174.32 127.47 175.21 C 127.55 176.10 128.32 176.76 129.21 176.69 Z M 130.84 175.68 L 131.26 174.71 C 131.61 173.90 131.23 172.97 130.43 172.62 C 129.62 172.27 128.68 172.64 128.33 173.45 L 127.91 174.42 C 127.57 175.23 127.94 176.17 128.75 176.52 C 129.55 176.86 130.49 176.49 130.84 175.68 Z M 131.29 174.55 L 131.67 173.36 C 131.93 172.53 131.47 171.65 130.64 171.39 C 129.82 171.13 128.93 171.59 128.67 172.42 L 128.30 173.61 C 128.04 174.44 128.50 175.32 129.32 175.58 C 130.15 175.84 131.03 175.38 131.29 174.55 Z M 131.66 173.30 L 131.92 172.37 C 132.15 171.55 131.67 170.70 130.85 170.47 C 130.03 170.24 129.18 170.72 128.95 171.54 L 128.69 172.47 C 128.46 173.29 128.93 174.14 129.75 174.37 C 130.57 174.60 131.43 174.12 131.66 173.30 Z M 131.90 172.34 L 132.15 171.37 C 132.37 170.56 131.89 169.74 131.08 169.52 C 130.27 169.31 129.44 169.79 129.23 170.60 L 128.97 171.57 C 128.76 172.38 129.24 173.21 130.05 173.42 C 130.85 173.63 131.68 173.15 131.90 172.34 Z M 132.13 171.35 L 132.38 170.36 C 132.58 169.56 132.10 168.75 131.31 168.55 C 130.52 168.35 129.71 168.83 129.50 169.62 L 129.25 170.62 C 129.05 171.41 129.53 172.22 130.32 172.42 C 131.12 172.63 131.93 172.15 132.13 171.35 Z M 132.36 170.34 L 132.56 169.55 C 132.75 168.77 132.28 167.98 131.50 167.78 C 130.72 167.58 129.92 168.06 129.73 168.84 L 129.53 169.64 C 129.33 170.42 129.81 171.21 130.59 171.41 C 131.37 171.60 132.16 171.13 132.36 170.34 Z"
      fill="black"
      fill-rule="nonzero" /><path d="M 134.65 149.74 L 134.56 148.75 C 134.48 147.90 133.74 147.28 132.89 147.36 C 132.05 147.44 131.43 148.19 131.51 149.03 L 131.60 150.02 C 131.68 150.87 132.43 151.49 133.27 151.41 C 134.11 151.33 134.73 150.58 134.65 149.74 Z M 134.59 149.05 L 134.69 148.11 C 134.78 147.25 134.16 146.48 133.30 146.39 C 132.45 146.30 131.68 146.92 131.58 147.78 L 131.48 148.72 C 131.39 149.58 132.01 150.35 132.87 150.44 C 133.73 150.53 134.49 149.91 134.59 149.05 Z M 134.51 148.73 L 135.00 147.87 C 135.44 147.11 135.17 146.14 134.41 145.71 C 133.65 145.27 132.68 145.54 132.25 146.30 L 131.76 147.15 C 131.32 147.91 131.59 148.88 132.35 149.32 C 133.11 149.75 134.08 149.49 134.51 148.73 Z M 134.61 148.35 L 135.29 147.81 C 135.99 147.27 136.11 146.27 135.57 145.57 C 135.03 144.87 134.02 144.75 133.33 145.29 L 132.64 145.82 C 131.94 146.37 131.82 147.37 132.36 148.07 C 132.91 148.77 133.91 148.89 134.61 148.35 Z M 135.04 147.97 L 135.88 147.54 C 136.67 147.14 136.98 146.17 136.57 145.39 C 136.17 144.60 135.20 144.29 134.42 144.70 L 133.58 145.13 C 132.79 145.53 132.48 146.50 132.89 147.28 C 133.29 148.07 134.26 148.38 135.04 147.97 Z M 135.74 147.60 L 136.71 147.21 C 137.53 146.88 137.93 145.95 137.60 145.14 C 137.27 144.32 136.34 143.92 135.53 144.25 L 134.56 144.64 C 133.74 144.97 133.34 145.90 133.67 146.71 C 134.00 147.53 134.93 147.93 135.74 147.60 Z M 136.64 147.23 L 137.67 146.87 C 138.50 146.59 138.93 145.68 138.65 144.85 C 138.36 144.02 137.45 143.58 136.62 143.87 L 135.60 144.23 C 134.77 144.52 134.33 145.42 134.62 146.25 C 134.91 147.08 135.81 147.52 136.64 147.23 Z M 137.65 146.88 L 138.65 146.54 C 139.48 146.27 139.93 145.37 139.65 144.54 C 139.38 143.71 138.48 143.26 137.65 143.53 L 136.64 143.87 C 135.81 144.15 135.36 145.04 135.64 145.87 C 135.92 146.71 136.82 147.15 137.65 146.88 Z M 138.67 146.52 L 139.70 146.16 C 140.51 145.87 140.94 144.98 140.66 144.16 C 140.37 143.34 139.48 142.91 138.66 143.20 L 137.63 143.56 C 136.82 143.85 136.39 144.74 136.67 145.56 C 136.96 146.37 137.85 146.80 138.67 146.52 Z M 139.72 146.11 L 140.66 145.76 C 141.46 145.46 141.86 144.57 141.56 143.78 C 141.26 142.99 140.37 142.59 139.58 142.89 L 138.64 143.24 C 137.85 143.54 137.45 144.43 137.74 145.22 C 138.04 146.01 138.93 146.41 139.72 146.11 Z M 140.69 145.71 L 141.58 145.35 C 142.34 145.04 142.71 144.17 142.40 143.40 C 142.09 142.63 141.22 142.26 140.45 142.57 L 139.56 142.93 C 138.79 143.24 138.42 144.12 138.73 144.88 C 139.05 145.65 139.92 146.02 140.69 145.71 Z M 141.59 145.31 L 142.47 144.93 C 143.21 144.61 143.55 143.75 143.23 143.01 C 142.91 142.26 142.05 141.92 141.31 142.24 L 140.44 142.62 C 139.69 142.94 139.35 143.80 139.67 144.54 C 139.99 145.28 140.85 145.63 141.59 145.31 Z M 142.48 144.90 L 143.36 144.50 C 144.08 144.18 144.40 143.32 144.08 142.60 C 143.75 141.87 142.90 141.55 142.17 141.88 L 141.30 142.27 C 140.57 142.60 140.25 143.45 140.58 144.18 C 140.90 144.90 141.76 145.22 142.48 144.90 Z M 143.37 144.49 L 144.26 144.08 C 144.98 143.74 145.29 142.89 144.95 142.17 C 144.62 141.46 143.77 141.15 143.05 141.48 L 142.16 141.89 C 141.44 142.23 141.13 143.08 141.47 143.79 C 141.80 144.51 142.65 144.82 143.37 144.49 Z M 144.27 144.07 L 145.18 143.64 C 145.89 143.30 146.19 142.45 145.86 141.73 C 145.52 141.02 144.66 140.72 143.95 141.05 L 143.04 141.49 C 142.33 141.82 142.03 142.68 142.36 143.39 C 142.70 144.10 143.56 144.41 144.27 144.07 Z M 145.18 143.63 L 146.10 143.19 C 146.81 142.85 147.11 142.00 146.77 141.29 C 146.43 140.58 145.57 140.28 144.86 140.62 L 143.94 141.06 C 143.23 141.40 142.94 142.25 143.28 142.96 C 143.62 143.68 144.47 143.97 145.18 143.63 Z M 146.10 143.19 L 146.84 142.83 C 147.55 142.49 147.85 141.63 147.51 140.93 C 147.16 140.22 146.31 139.92 145.60 140.26 L 144.86 140.62 C 144.15 140.96 143.86 141.82 144.20 142.53 C 144.54 143.23 145.39 143.53 146.10 143.19 Z"
      fill="black"
      fill-rule="nonzero" /><path d="M 111.85 145.67 L 111.79 146.64 C 111.73 147.50 112.38 148.25 113.24 148.30 C 114.11 148.36 114.85 147.71 114.91 146.85 L 114.98 145.89 C 115.04 145.02 114.39 144.27 113.52 144.22 C 112.66 144.16 111.91 144.81 111.85 145.67 Z M 111.75 146.64 L 111.69 147.62 C 111.64 148.50 112.31 149.26 113.19 149.31 C 114.07 149.37 114.83 148.70 114.89 147.82 L 114.95 146.84 C 115.00 145.96 114.33 145.20 113.45 145.14 C 112.57 145.09 111.81 145.76 111.75 146.64 Z M 111.66 147.63 L 111.61 148.64 C 111.56 149.54 112.25 150.31 113.15 150.35 C 114.05 150.40 114.82 149.71 114.87 148.81 L 114.92 147.80 C 114.97 146.90 114.28 146.14 113.37 146.09 C 112.47 146.04 111.71 146.73 111.66 147.63 Z M 111.57 148.66 L 111.53 149.71 C 111.50 150.63 112.21 151.40 113.13 151.44 C 114.05 151.47 114.82 150.76 114.86 149.84 L 114.90 148.79 C 114.94 147.87 114.22 147.10 113.30 147.06 C 112.38 147.02 111.61 147.74 111.57 148.66 Z M 111.51 149.73 L 111.49 150.69 C 111.47 151.61 112.20 152.39 113.13 152.41 C 114.06 152.43 114.83 151.69 114.85 150.77 L 114.88 149.81 C 114.90 148.88 114.16 148.11 113.24 148.09 C 112.31 148.07 111.53 148.80 111.51 149.73 Z M 111.49 150.71 L 111.48 151.69 C 111.47 152.62 112.21 153.39 113.14 153.40 C 114.07 153.41 114.83 152.66 114.84 151.73 L 114.86 150.75 C 114.87 149.82 114.12 149.05 113.19 149.04 C 112.26 149.03 111.50 149.78 111.49 150.71 Z M 111.48 151.71 L 111.47 152.72 C 111.47 153.65 112.23 154.41 113.16 154.41 C 114.09 154.41 114.84 153.66 114.84 152.73 L 114.85 151.72 C 114.85 150.79 114.09 150.03 113.16 150.03 C 112.23 150.03 111.48 150.78 111.48 151.71 Z M 111.47 152.74 L 111.48 153.76 C 111.48 154.69 112.24 155.45 113.18 155.44 C 114.11 155.43 114.86 154.67 114.85 153.74 L 114.85 152.71 C 114.84 151.78 114.08 151.03 113.15 151.04 C 112.22 151.04 111.47 151.80 111.47 152.74 Z M 111.48 153.77 L 111.49 154.78 C 111.50 155.71 112.27 156.46 113.20 156.44 C 114.13 156.43 114.88 155.67 114.87 154.73 L 114.85 153.73 C 114.84 152.80 114.08 152.05 113.14 152.07 C 112.21 152.08 111.47 152.84 111.48 153.77 Z M 111.49 154.79 L 111.51 155.75 C 111.53 156.68 112.29 157.42 113.23 157.41 C 114.16 157.39 114.90 156.62 114.88 155.69 L 114.87 154.73 C 114.85 153.79 114.08 153.05 113.15 153.07 C 112.22 153.09 111.48 153.85 111.49 154.79 Z M 111.51 155.75 L 111.53 156.73 C 111.55 157.66 112.32 158.40 113.25 158.38 C 114.18 158.37 114.92 157.60 114.90 156.66 L 114.88 155.69 C 114.86 154.76 114.09 154.02 113.16 154.03 C 112.23 154.05 111.49 154.82 111.51 155.75 Z M 111.53 156.73 L 111.55 157.73 C 111.57 158.66 112.34 159.40 113.27 159.38 C 114.20 159.37 114.94 158.60 114.92 157.67 L 114.90 156.67 C 114.88 155.73 114.11 155.00 113.18 155.01 C 112.25 155.03 111.51 155.80 111.53 156.73 Z M 111.55 157.73 L 111.57 158.76 C 111.58 159.69 112.35 160.43 113.28 160.42 C 114.21 160.40 114.95 159.63 114.94 158.70 L 114.92 157.67 C 114.90 156.74 114.14 156.00 113.21 156.02 C 112.28 156.03 111.54 156.80 111.55 157.73 Z M 111.57 158.76 L 111.58 159.80 C 111.60 160.73 112.36 161.48 113.29 161.46 C 114.22 161.45 114.96 160.69 114.95 159.76 L 114.94 158.71 C 114.92 157.78 114.16 157.04 113.23 157.05 C 112.30 157.06 111.56 157.83 111.57 158.76 Z M 111.59 159.79 L 111.59 160.83 C 111.60 161.76 112.36 162.51 113.29 162.50 C 114.22 162.49 114.96 161.73 114.96 160.81 L 114.95 159.77 C 114.94 158.84 114.18 158.09 113.25 158.10 C 112.32 158.11 111.58 158.87 111.59 159.79 Z M 111.60 160.83 L 111.60 161.87 C 111.61 162.80 112.36 163.55 113.29 163.54 C 114.21 163.54 114.96 162.78 114.96 161.86 L 114.95 160.81 C 114.95 159.88 114.19 159.14 113.27 159.14 C 112.34 159.15 111.59 159.90 111.60 160.83 Z M 111.60 161.87 L 111.61 162.89 C 111.61 163.81 112.36 164.56 113.29 164.56 C 114.21 164.56 114.96 163.81 114.96 162.88 L 114.96 161.86 C 114.95 160.93 114.20 160.19 113.28 160.19 C 112.35 160.19 111.60 160.94 111.60 161.87 Z M 111.61 162.89 L 111.61 163.86 C 111.61 164.78 112.36 165.53 113.28 165.53 C 114.21 165.53 114.96 164.78 114.96 163.85 L 114.96 162.88 C 114.95 161.96 114.20 161.21 113.28 161.21 C 112.36 161.21 111.61 161.96 111.61 162.89 Z M 111.61 163.86 L 111.61 164.80 C 111.61 165.73 112.36 166.47 113.28 166.47 C 114.21 166.47 114.95 165.73 114.95 164.80 L 114.95 163.86 C 114.95 162.93 114.21 162.19 113.28 162.19 C 112.36 162.19 111.61 162.93 111.61 163.86 Z M 111.62 164.80 L 111.62 165.93 C 111.62 166.85 112.36 167.60 113.28 167.60 C 114.20 167.60 114.95 166.85 114.95 165.93 L 114.95 164.80 C 114.95 163.88 114.20 163.14 113.28 163.14 C 112.36 163.14 111.62 163.88 111.62 164.80 Z M 111.63 165.93 L 111.63 166.92 C 111.63 167.84 112.37 168.58 113.28 168.58 C 114.20 168.58 114.94 167.84 114.94 166.92 L 114.94 165.93 C 114.94 165.02 114.20 164.28 113.28 164.28 C 112.37 164.28 111.63 165.02 111.63 165.93 Z M 111.63 166.92 L 111.63 167.83 C 111.63 168.74 112.37 169.48 113.28 169.48 C 114.19 169.48 114.93 168.74 114.93 167.83 L 114.93 166.92 C 114.93 166.01 114.19 165.27 113.28 165.27 C 112.37 165.27 111.63 166.01 111.63 166.92 Z M 111.64 167.83 L 111.64 168.76 C 111.64 169.67 112.38 170.41 113.28 170.41 C 114.19 170.41 114.93 169.67 114.93 168.76 L 114.93 167.83 C 114.93 166.92 114.19 166.19 113.28 166.19 C 112.38 166.19 111.64 166.92 111.64 167.83 Z M 111.65 168.76 L 111.64 169.75 C 111.64 170.66 112.37 171.39 113.28 171.39 C 114.18 171.39 114.92 170.66 114.92 169.76 L 114.92 168.77 C 114.92 167.86 114.19 167.13 113.29 167.13 C 112.38 167.12 111.65 167.86 111.65 168.76 Z M 111.65 169.74 L 111.64 170.75 C 111.63 171.65 112.36 172.39 113.26 172.39 C 114.16 172.40 114.90 171.67 114.91 170.77 L 114.91 169.77 C 114.92 168.87 114.20 168.13 113.29 168.12 C 112.39 168.12 111.66 168.84 111.65 169.74 Z M 111.65 170.73 L 111.63 171.74 C 111.62 172.64 112.33 173.38 113.23 173.40 C 114.13 173.41 114.87 172.70 114.89 171.80 L 114.90 170.79 C 114.92 169.89 114.20 169.15 113.30 169.13 C 112.40 169.12 111.66 169.83 111.65 170.73 Z M 111.64 171.72 L 111.61 172.73 C 111.58 173.62 112.29 174.37 113.18 174.40 C 114.08 174.42 114.82 173.72 114.85 172.82 L 114.88 171.82 C 114.91 170.92 114.20 170.18 113.30 170.15 C 112.41 170.12 111.66 170.83 111.64 171.72 Z M 111.61 172.70 L 111.56 173.70 C 111.52 174.59 112.21 175.35 113.10 175.39 C 113.99 175.44 114.75 174.75 114.80 173.86 L 114.84 172.85 C 114.89 171.96 114.20 171.20 113.31 171.16 C 112.41 171.12 111.66 171.80 111.61 172.70 Z M 111.57 173.66 L 111.50 174.65 C 111.43 175.54 112.09 176.31 112.98 176.38 C 113.87 176.44 114.64 175.78 114.71 174.89 L 114.79 173.90 C 114.85 173.01 114.19 172.24 113.30 172.17 C 112.41 172.10 111.64 172.77 111.57 173.66 Z M 111.51 174.59 L 111.40 175.59 C 111.30 176.47 111.94 177.26 112.82 177.36 C 113.70 177.46 114.49 176.82 114.59 175.94 L 114.70 174.95 C 114.80 174.06 114.16 173.27 113.28 173.17 C 112.40 173.07 111.60 173.71 111.51 174.59 Z M 111.41 175.54 L 111.27 176.52 C 111.15 177.40 111.76 178.21 112.63 178.33 C 113.51 178.46 114.32 177.85 114.44 176.97 L 114.58 175.98 C 114.70 175.11 114.09 174.30 113.22 174.17 C 112.34 174.05 111.53 174.66 111.41 175.54 Z M 111.28 176.50 L 111.12 177.49 C 110.99 178.36 111.58 179.18 112.46 179.31 C 113.33 179.45 114.14 178.85 114.28 177.98 L 114.43 176.99 C 114.57 176.12 113.98 175.30 113.10 175.17 C 112.23 175.03 111.42 175.63 111.28 176.50 Z M 111.13 177.48 L 110.98 178.43 C 110.84 179.29 111.43 180.11 112.30 180.25 C 113.17 180.39 113.98 179.80 114.12 178.93 L 114.27 177.98 C 114.41 177.12 113.82 176.30 112.95 176.16 C 112.09 176.02 111.27 176.62 111.13 177.48 Z M 110.99 178.43 L 110.85 179.35 C 110.71 180.21 111.29 181.02 112.15 181.16 C 113.02 181.29 113.83 180.71 113.96 179.85 L 114.11 178.93 C 114.25 178.07 113.66 177.26 112.80 177.12 C 111.94 176.98 111.13 177.57 110.99 178.43 Z M 110.86 179.34 L 110.70 180.32 C 110.56 181.18 111.13 181.98 111.99 182.12 C 112.84 182.26 113.64 181.69 113.79 180.83 L 113.95 179.85 C 114.09 179.00 113.51 178.20 112.66 178.05 C 111.81 177.91 111.00 178.49 110.86 179.34 Z M 110.71 180.31 L 110.53 181.38 C 110.38 182.22 110.94 183.03 111.79 183.18 C 112.63 183.33 113.43 182.76 113.58 181.92 L 113.77 180.85 C 113.92 180.00 113.35 179.20 112.51 179.05 C 111.67 178.90 110.86 179.47 110.71 180.31 Z M 110.54 181.37 L 110.36 182.35 C 110.20 183.19 110.75 183.99 111.59 184.15 C 112.42 184.30 113.23 183.75 113.38 182.92 L 113.57 181.93 C 113.72 181.09 113.17 180.29 112.34 180.13 C 111.50 179.98 110.70 180.53 110.54 181.37 Z M 110.37 182.34 L 110.17 183.32 C 110.01 184.15 110.55 184.96 111.38 185.12 C 112.22 185.28 113.02 184.74 113.18 183.91 L 113.37 182.93 C 113.54 182.10 112.99 181.29 112.16 181.13 C 111.33 180.97 110.53 181.51 110.37 182.34 Z M 110.18 183.31 L 109.98 184.32 C 109.81 185.15 110.35 185.95 111.18 186.12 C 112.00 186.28 112.81 185.75 112.97 184.92 L 113.17 183.92 C 113.34 183.09 112.80 182.29 111.98 182.12 C 111.15 181.95 110.35 182.49 110.18 183.31 Z M 109.99 184.32 L 109.78 185.32 C 109.62 186.14 110.14 186.94 110.97 187.11 C 111.79 187.28 112.59 186.75 112.76 185.93 L 112.96 184.93 C 113.13 184.11 112.60 183.30 111.78 183.13 C 110.96 182.97 110.16 183.50 109.99 184.32 Z M 109.79 185.31 L 109.59 186.29 C 109.42 187.10 109.94 187.90 110.76 188.07 C 111.58 188.24 112.38 187.72 112.55 186.90 L 112.75 185.93 C 112.92 185.11 112.40 184.31 111.58 184.14 C 110.76 183.97 109.96 184.50 109.79 185.31 Z M 109.60 186.28 L 109.37 187.36 C 109.20 188.17 109.72 188.97 110.53 189.14 C 111.35 189.31 112.14 188.79 112.31 187.98 L 112.54 186.90 C 112.71 186.09 112.19 185.29 111.38 185.12 C 110.57 184.95 109.77 185.47 109.60 186.28 Z M 109.38 187.35 L 109.16 188.35 C 108.99 189.16 109.51 189.96 110.32 190.13 C 111.12 190.30 111.92 189.79 112.09 188.98 L 112.31 187.98 C 112.48 187.17 111.96 186.38 111.16 186.20 C 110.35 186.03 109.55 186.55 109.38 187.35 Z M 109.17 188.35 L 108.97 189.28 C 108.79 190.08 109.30 190.88 110.10 191.06 C 110.91 191.23 111.70 190.72 111.88 189.92 L 112.08 188.99 C 112.26 188.18 111.75 187.39 110.95 187.21 C 110.14 187.03 109.35 187.54 109.17 188.35 Z M 108.97 189.27 L 108.76 190.20 C 108.58 191.00 109.08 191.80 109.88 191.98 C 110.68 192.16 111.48 191.66 111.66 190.86 L 111.87 189.93 C 112.06 189.13 111.55 188.33 110.75 188.15 C 109.95 187.97 109.16 188.47 108.97 189.27 Z M 108.75 190.16 L 108.43 191.40 C 108.22 192.21 108.71 193.03 109.51 193.24 C 110.32 193.45 111.14 192.96 111.35 192.15 L 111.67 190.91 C 111.88 190.10 111.40 189.28 110.59 189.07 C 109.78 188.86 108.96 189.35 108.75 190.16 Z M 108.46 191.15 L 108.12 191.93 C 107.77 192.72 108.12 193.64 108.91 193.99 C 109.70 194.34 110.62 193.98 110.97 193.19 L 111.32 192.41 C 111.66 191.62 111.31 190.70 110.52 190.35 C 109.73 190.00 108.81 190.36 108.46 191.15 Z M 109.57 190.96 L 109.14 190.95 C 108.26 190.94 107.53 191.65 107.52 192.53 C 107.50 193.42 108.21 194.15 109.09 194.16 L 109.52 194.17 C 110.40 194.18 111.13 193.47 111.15 192.59 C 111.16 191.70 110.45 190.97 109.57 190.96 Z M 110.46 191.62 L 109.91 190.82 C 109.39 190.08 108.37 189.89 107.63 190.41 C 106.89 190.93 106.70 191.95 107.22 192.69 L 107.77 193.49 C 108.29 194.23 109.31 194.42 110.05 193.90 C 110.80 193.39 110.98 192.37 110.46 191.62 Z M 109.96 190.83 L 109.25 189.77 C 108.74 189.00 107.71 188.78 106.94 189.29 C 106.17 189.80 105.95 190.84 106.46 191.61 L 107.17 192.68 C 107.68 193.45 108.71 193.66 109.48 193.15 C 110.25 192.64 110.47 191.60 109.96 190.83 Z M 109.26 189.68 L 108.61 188.79 C 108.06 188.02 106.98 187.84 106.21 188.40 C 105.44 188.95 105.26 190.03 105.82 190.80 L 106.46 191.69 C 107.02 192.46 108.09 192.64 108.86 192.09 C 109.63 191.53 109.81 190.46 109.26 189.68 Z M 108.88 189.18 L 108.58 188.35 C 108.24 187.43 107.22 186.96 106.29 187.30 C 105.37 187.64 104.90 188.66 105.24 189.58 L 105.54 190.41 C 105.88 191.33 106.91 191.80 107.83 191.46 C 108.75 191.12 109.22 190.10 108.88 189.18 Z M 108.56 189.75 L 108.85 189.13 C 109.28 188.22 108.89 187.13 107.98 186.70 C 107.07 186.27 105.98 186.66 105.55 187.57 L 105.26 188.19 C 104.83 189.10 105.22 190.19 106.13 190.62 C 107.04 191.05 108.13 190.66 108.56 189.75 Z M 108.24 189.87 L 108.84 189.47 C 109.68 188.89 109.90 187.74 109.33 186.90 C 108.75 186.06 107.60 185.84 106.76 186.42 L 106.16 186.82 C 105.32 187.40 105.10 188.55 105.68 189.39 C 106.25 190.23 107.40 190.45 108.24 189.87 Z M 108.56 189.63 L 109.42 189.24 C 110.35 188.82 110.77 187.73 110.35 186.80 C 109.94 185.87 108.84 185.45 107.91 185.87 L 107.05 186.26 C 106.12 186.67 105.70 187.76 106.12 188.70 C 106.53 189.63 107.62 190.04 108.56 189.63 Z M 109.29 189.29 L 110.36 188.91 C 111.32 188.56 111.82 187.51 111.48 186.54 C 111.13 185.58 110.07 185.08 109.11 185.43 L 108.04 185.81 C 107.08 186.16 106.58 187.22 106.93 188.18 C 107.27 189.14 108.33 189.64 109.29 189.29 Z M 110.31 188.93 L 111.52 188.53 C 112.49 188.22 113.02 187.17 112.70 186.20 C 112.38 185.23 111.33 184.70 110.36 185.02 L 109.16 185.41 C 108.19 185.73 107.66 186.77 107.98 187.75 C 108.30 188.72 109.34 189.25 110.31 188.93 Z M 111.52 188.53 L 112.56 188.19 C 113.53 187.87 114.06 186.83 113.75 185.86 C 113.43 184.88 112.38 184.35 111.41 184.67 L 110.36 185.02 C 109.39 185.33 108.86 186.38 109.18 187.35 C 109.50 188.32 110.54 188.85 111.52 188.53 Z M 112.57 188.19 L 113.57 187.86 C 114.54 187.53 115.06 186.48 114.74 185.51 C 114.42 184.54 113.37 184.02 112.40 184.34 L 111.40 184.68 C 110.43 185.00 109.91 186.05 110.23 187.02 C 110.55 187.99 111.60 188.51 112.57 188.19 Z M 113.58 187.85 L 114.57 187.52 C 115.54 187.19 116.06 186.14 115.73 185.17 C 115.40 184.20 114.35 183.68 113.38 184.01 L 112.39 184.35 C 111.42 184.67 110.90 185.72 111.23 186.69 C 111.56 187.66 112.61 188.18 113.58 187.85 Z M 114.57 187.51 L 115.54 187.18 C 116.51 186.85 117.03 185.80 116.70 184.83 C 116.37 183.87 115.32 183.35 114.35 183.68 L 113.38 184.01 C 112.41 184.34 111.89 185.39 112.22 186.36 C 112.56 187.33 113.61 187.84 114.57 187.51 Z M 115.55 187.18 L 116.47 186.86 C 117.44 186.53 117.95 185.48 117.62 184.51 C 117.29 183.55 116.24 183.03 115.27 183.36 L 114.35 183.68 C 113.38 184.01 112.86 185.07 113.20 186.03 C 113.53 187.00 114.58 187.51 115.55 187.18 Z M 116.47 186.86 L 117.33 186.57 C 118.30 186.24 118.82 185.18 118.48 184.22 C 118.15 183.25 117.10 182.74 116.13 183.07 L 115.27 183.36 C 114.30 183.70 113.79 184.75 114.12 185.72 C 114.45 186.68 115.51 187.20 116.47 186.86 Z M 117.33 186.57 L 118.39 186.21 C 119.35 185.88 119.87 184.83 119.54 183.86 C 119.21 182.89 118.16 182.38 117.19 182.71 L 116.14 183.07 C 115.17 183.40 114.65 184.45 114.98 185.42 C 115.31 186.38 116.37 186.90 117.33 186.57 Z M 118.38 186.20 L 119.39 185.86 C 120.36 185.53 120.88 184.49 120.55 183.52 C 120.22 182.56 119.18 182.04 118.21 182.37 L 117.20 182.71 C 116.23 183.04 115.72 184.08 116.04 185.05 C 116.37 186.01 117.42 186.53 118.38 186.20 Z M 119.39 185.86 L 120.28 185.56 C 121.24 185.24 121.76 184.19 121.44 183.23 C 121.11 182.27 120.07 181.75 119.11 182.07 L 118.22 182.37 C 117.25 182.69 116.73 183.74 117.06 184.70 C 117.38 185.66 118.42 186.18 119.39 185.86 Z M 120.27 185.56 L 121.10 185.28 C 122.06 184.96 122.58 183.92 122.26 182.96 C 121.94 182.00 120.90 181.48 119.93 181.80 L 119.11 182.08 C 118.15 182.40 117.63 183.44 117.95 184.40 C 118.27 185.36 119.31 185.88 120.27 185.56 Z M 121.09 185.28 L 122.00 184.98 C 122.96 184.66 123.48 183.62 123.16 182.66 C 122.84 181.70 121.80 181.18 120.84 181.50 L 119.94 181.80 C 118.98 182.12 118.46 183.16 118.78 184.12 C 119.10 185.08 120.13 185.60 121.09 185.28 Z M 121.99 184.97 L 122.93 184.66 C 123.89 184.35 124.41 183.31 124.09 182.36 C 123.78 181.40 122.75 180.88 121.79 181.19 L 120.85 181.51 C 119.89 181.82 119.37 182.85 119.69 183.81 C 120.00 184.77 121.04 185.29 121.99 184.97 Z M 122.92 184.66 L 123.88 184.35 C 124.84 184.04 125.36 183.01 125.05 182.06 C 124.74 181.10 123.71 180.57 122.76 180.89 L 121.80 181.20 C 120.84 181.51 120.32 182.53 120.63 183.49 C 120.94 184.45 121.96 184.97 122.92 184.66 Z M 123.86 184.35 L 124.82 184.05 C 125.78 183.75 126.31 182.73 126.01 181.77 C 125.71 180.81 124.69 180.28 123.73 180.58 L 122.77 180.89 C 121.81 181.19 121.28 182.21 121.58 183.17 C 121.89 184.12 122.91 184.65 123.86 184.35 Z M 124.81 184.05 L 125.74 183.76 C 126.70 183.47 127.24 182.45 126.94 181.50 C 126.65 180.54 125.64 180.00 124.68 180.30 L 123.74 180.59 C 122.79 180.88 122.25 181.89 122.54 182.85 C 122.84 183.81 123.85 184.34 124.81 184.05 Z M 125.74 183.75 L 126.70 183.46 C 127.65 183.17 128.19 182.17 127.90 181.21 C 127.61 180.26 126.60 179.72 125.65 180.01 L 124.69 180.30 C 123.74 180.59 123.20 181.60 123.49 182.55 C 123.78 183.51 124.78 184.04 125.74 183.75 Z M 126.70 183.45 L 127.67 183.16 C 128.62 182.87 129.15 181.86 128.87 180.92 C 128.58 179.97 127.57 179.43 126.62 179.72 L 125.65 180.02 C 124.70 180.31 124.17 181.31 124.46 182.26 C 124.74 183.21 125.75 183.74 126.70 183.45 Z M 127.68 183.15 L 128.64 182.85 C 129.58 182.56 130.11 181.56 129.81 180.61 C 129.52 179.67 128.52 179.14 127.58 179.44 L 126.62 179.73 C 125.68 180.03 125.15 181.03 125.44 181.97 C 125.73 182.91 126.73 183.44 127.68 183.15 Z M 128.64 182.84 L 129.59 182.54 C 130.53 182.25 131.05 181.25 130.75 180.31 C 130.46 179.38 129.46 178.85 128.53 179.15 L 127.57 179.45 C 126.64 179.74 126.12 180.74 126.41 181.67 C 126.70 182.61 127.70 183.13 128.64 182.84 Z M 129.59 182.53 L 130.54 182.23 C 131.48 181.94 131.99 180.95 131.70 180.02 C 131.41 179.08 130.42 178.57 129.49 178.86 L 128.53 179.16 C 127.60 179.45 127.08 180.44 127.37 181.37 C 127.66 182.30 128.66 182.82 129.59 182.53 Z M 130.53 182.22 L 131.49 181.93 C 132.42 181.64 132.94 180.66 132.65 179.73 C 132.37 178.80 131.38 178.28 130.46 178.57 L 129.50 178.87 C 128.57 179.15 128.05 180.14 128.34 181.06 C 128.62 181.99 129.61 182.51 130.53 182.22 Z M 131.48 181.92 L 132.44 181.63 C 133.36 181.35 133.89 180.38 133.61 179.46 C 133.33 178.53 132.35 178.01 131.43 178.29 L 130.47 178.58 C 129.55 178.85 129.03 179.83 129.30 180.75 C 129.58 181.68 130.56 182.20 131.48 181.92 Z M 132.43 181.62 L 133.39 181.34 C 134.30 181.07 134.83 180.10 134.56 179.18 C 134.29 178.26 133.32 177.74 132.40 178.01 L 131.44 178.29 C 130.52 178.57 130.00 179.53 130.27 180.45 C 130.54 181.37 131.51 181.90 132.43 181.62 Z M 133.38 181.33 L 134.34 181.05 C 135.25 180.78 135.78 179.82 135.51 178.90 C 135.24 177.99 134.28 177.47 133.36 177.74 L 132.40 178.02 C 131.49 178.29 130.97 179.25 131.24 180.16 C 131.51 181.08 132.47 181.60 133.38 181.33 Z M 134.34 181.04 L 135.30 180.75 C 136.21 180.48 136.72 179.52 136.45 178.61 C 136.18 177.71 135.23 177.19 134.32 177.46 L 133.36 177.75 C 132.45 178.02 131.94 178.98 132.21 179.88 C 132.48 180.79 133.44 181.31 134.34 181.04 Z M 135.31 180.73 L 136.25 180.44 C 137.15 180.17 137.66 179.21 137.38 178.32 C 137.11 177.42 136.15 176.91 135.25 177.19 L 134.31 177.48 C 133.41 177.75 132.91 178.71 133.18 179.61 C 133.46 180.51 134.41 181.01 135.31 180.73 Z M 136.26 180.43 L 137.21 180.13 C 138.10 179.85 138.60 178.91 138.32 178.01 C 138.04 177.12 137.09 176.63 136.20 176.90 L 135.25 177.20 C 134.36 177.48 133.86 178.43 134.14 179.32 C 134.42 180.21 135.37 180.71 136.26 180.43 Z M 137.21 180.12 L 138.16 179.82 C 139.05 179.54 139.54 178.60 139.26 177.71 C 138.98 176.83 138.04 176.34 137.16 176.62 L 136.20 176.92 C 135.31 177.19 134.82 178.14 135.10 179.02 C 135.38 179.91 136.32 180.40 137.21 180.12 Z M 138.16 179.81 L 139.12 179.51 C 140.00 179.23 140.49 178.30 140.22 177.42 C 139.94 176.54 139.01 176.05 138.13 176.32 L 137.16 176.63 C 136.28 176.90 135.79 177.84 136.07 178.72 C 136.34 179.60 137.28 180.09 138.16 179.81 Z M 139.11 179.50 L 139.99 179.23 C 140.86 178.96 141.35 178.03 141.08 177.16 C 140.81 176.28 139.89 175.79 139.01 176.06 L 138.14 176.33 C 137.26 176.60 136.77 177.53 137.04 178.40 C 137.31 179.28 138.24 179.77 139.11 179.50 Z M 139.98 179.22 L 140.89 178.95 C 141.76 178.68 142.25 177.76 141.98 176.89 C 141.71 176.02 140.79 175.53 139.92 175.80 L 139.02 176.07 C 138.15 176.34 137.66 177.26 137.92 178.13 C 138.19 179.00 139.11 179.49 139.98 179.22 Z M 140.88 178.94 L 141.84 178.64 C 142.71 178.38 143.19 177.47 142.93 176.60 C 142.67 175.74 141.75 175.25 140.89 175.51 L 139.93 175.81 C 139.06 176.07 138.58 176.98 138.84 177.85 C 139.10 178.71 140.02 179.20 140.88 178.94 Z M 141.84 178.63 L 142.87 178.32 C 143.73 178.06 144.21 177.15 143.95 176.29 C 143.69 175.43 142.78 174.95 141.92 175.21 L 140.89 175.52 C 140.03 175.79 139.55 176.69 139.81 177.55 C 140.07 178.41 140.98 178.90 141.84 178.63 Z M 142.87 178.31 L 143.85 178.01 C 144.70 177.75 145.18 176.84 144.92 175.99 C 144.65 175.14 143.75 174.66 142.90 174.92 L 141.92 175.22 C 141.07 175.48 140.59 176.39 140.85 177.24 C 141.11 178.09 142.02 178.57 142.87 178.31 Z M 143.85 178.00 L 144.78 177.71 C 145.62 177.45 146.10 176.55 145.84 175.70 C 145.57 174.85 144.67 174.38 143.83 174.64 L 142.90 174.93 C 142.05 175.19 141.58 176.09 141.84 176.94 C 142.10 177.79 143.00 178.26 143.85 178.00 Z M 144.78 177.70 L 145.74 177.40 C 146.59 177.13 147.05 176.24 146.79 175.39 C 146.52 174.55 145.63 174.09 144.78 174.35 L 143.82 174.65 C 142.98 174.92 142.51 175.81 142.78 176.66 C 143.04 177.50 143.94 177.97 144.78 177.70 Z M 145.75 177.39 L 146.73 177.07 C 147.56 176.80 148.02 175.91 147.75 175.07 C 147.49 174.24 146.59 173.78 145.75 174.05 L 144.78 174.36 C 143.94 174.63 143.48 175.52 143.75 176.36 C 144.02 177.20 144.91 177.66 145.75 177.39 Z M 146.74 177.06 L 147.71 176.74 C 148.54 176.47 148.99 175.57 148.72 174.74 C 148.44 173.91 147.55 173.46 146.72 173.74 L 145.75 174.06 C 144.92 174.33 144.47 175.23 144.74 176.06 C 145.01 176.88 145.91 177.33 146.74 177.06 Z M 147.72 176.73 L 148.68 176.40 C 149.50 176.12 149.94 175.23 149.66 174.40 C 149.37 173.58 148.48 173.14 147.66 173.43 L 146.71 173.75 C 145.88 174.03 145.45 174.93 145.73 175.75 C 146.01 176.57 146.90 177.01 147.72 176.73 Z M 148.69 176.38 L 149.70 176.02 C 150.51 175.73 150.93 174.84 150.64 174.03 C 150.35 173.22 149.46 172.79 148.65 173.08 L 147.64 173.44 C 146.83 173.73 146.41 174.63 146.70 175.44 C 146.99 176.25 147.88 176.67 148.69 176.38 Z M 149.72 175.99 L 150.69 175.63 C 151.49 175.33 151.89 174.44 151.59 173.64 C 151.28 172.84 150.39 172.44 149.60 172.74 L 148.63 173.11 C 147.83 173.41 147.43 174.30 147.73 175.10 C 148.03 175.90 148.92 176.30 149.72 175.99 Z M 150.71 175.60 L 151.64 175.22 C 152.42 174.91 152.80 174.02 152.48 173.24 C 152.17 172.46 151.28 172.08 150.50 172.40 L 149.57 172.77 C 148.79 173.09 148.42 173.98 148.73 174.76 C 149.05 175.54 149.93 175.91 150.71 175.60 Z M 151.67 175.19 L 152.56 174.81 C 153.32 174.47 153.67 173.59 153.34 172.82 C 153.00 172.06 152.12 171.71 151.36 172.05 L 150.47 172.43 C 149.71 172.76 149.36 173.65 149.69 174.41 C 150.02 175.17 150.91 175.52 151.67 175.19 Z M 152.59 174.77 L 153.44 174.37 C 154.18 174.02 154.50 173.13 154.15 172.39 C 153.80 171.65 152.92 171.33 152.17 171.68 L 151.32 172.08 C 150.58 172.43 150.26 173.32 150.61 174.06 C 150.96 174.80 151.85 175.12 152.59 174.77 Z M 153.48 174.33 L 154.42 173.85 C 155.14 173.47 155.43 172.59 155.05 171.86 C 154.68 171.14 153.79 170.86 153.07 171.23 L 152.13 171.72 C 151.41 172.09 151.13 172.98 151.50 173.70 C 151.87 174.42 152.76 174.70 153.48 174.33 Z M 154.47 173.80 L 155.39 173.28 C 156.08 172.88 156.33 171.99 155.92 171.29 C 155.52 170.59 154.63 170.35 153.93 170.75 L 153.02 171.27 C 152.32 171.68 152.08 172.57 152.48 173.27 C 152.88 173.97 153.77 174.21 154.47 173.80 Z M 155.45 173.23 L 156.29 172.69 C 156.96 172.25 157.15 171.35 156.71 170.68 C 156.28 170.01 155.38 169.82 154.71 170.25 L 153.87 170.80 C 153.20 171.23 153.01 172.13 153.44 172.80 C 153.88 173.47 154.77 173.67 155.45 173.23 Z M 156.36 172.62 L 157.11 172.07 C 157.74 171.59 157.88 170.69 157.40 170.05 C 156.93 169.42 156.03 169.29 155.39 169.76 L 154.64 170.32 C 154.00 170.79 153.87 171.69 154.35 172.33 C 154.82 172.97 155.72 173.10 156.36 172.62 Z M 157.20 171.98 L 157.94 171.32 C 158.53 170.79 158.58 169.89 158.05 169.30 C 157.53 168.71 156.63 168.66 156.04 169.19 L 155.30 169.85 C 154.71 170.37 154.66 171.28 155.18 171.86 C 155.71 172.45 156.61 172.50 157.20 171.98 Z M 158.05 171.21 L 158.74 170.44 C 159.26 169.86 159.22 168.96 158.63 168.43 C 158.05 167.90 157.14 167.95 156.62 168.53 L 155.93 169.30 C 155.40 169.88 155.45 170.78 156.03 171.31 C 156.62 171.84 157.52 171.79 158.05 171.21 Z M 158.82 170.35 L 159.39 169.58 C 159.87 168.95 159.74 168.05 159.11 167.58 C 158.49 167.11 157.59 167.23 157.12 167.86 L 156.54 168.63 C 156.06 169.26 156.19 170.15 156.82 170.63 C 157.45 171.10 158.34 170.98 158.82 170.35 Z M 159.43 169.53 L 159.83 168.95 C 160.28 168.30 160.12 167.41 159.47 166.96 C 158.82 166.52 157.94 166.68 157.49 167.33 L 157.08 167.91 C 156.64 168.56 156.80 169.44 157.45 169.89 C 158.09 170.34 158.98 170.18 159.43 169.53 Z"
      fill="black"
      fill-rule="nonzero" /><path d="M 165.12 130.94 L 163.81 130.86 C 162.92 130.80 162.16 131.47 162.10 132.36 C 162.04 133.24 162.71 134.01 163.60 134.07 L 164.90 134.16 C 165.79 134.22 166.56 133.54 166.62 132.66 C 166.68 131.77 166.00 131.00 165.12 130.94 Z M 164.33 130.97 L 163.72 130.72 C 162.90 130.38 161.95 130.77 161.61 131.59 C 161.27 132.41 161.66 133.36 162.48 133.70 L 163.08 133.95 C 163.91 134.30 164.85 133.91 165.20 133.08 C 165.54 132.26 165.15 131.32 164.33 130.97 Z M 164.27 133.32 L 164.61 132.97 C 165.22 132.32 165.20 131.30 164.55 130.68 C 163.90 130.07 162.88 130.10 162.26 130.74 L 161.93 131.10 C 161.31 131.74 161.34 132.77 161.99 133.38 C 162.63 134.00 163.66 133.97 164.27 133.32 Z M 164.20 133.28 L 164.98 132.87 C 165.76 132.45 166.06 131.47 165.64 130.68 C 165.22 129.89 164.24 129.59 163.45 130.01 L 162.67 130.43 C 161.89 130.85 161.59 131.83 162.01 132.62 C 162.43 133.41 163.41 133.70 164.20 133.28 Z M 164.87 132.92 L 165.94 132.45 C 166.76 132.09 167.13 131.14 166.77 130.32 C 166.41 129.50 165.45 129.13 164.64 129.49 L 163.56 129.96 C 162.75 130.32 162.38 131.27 162.73 132.09 C 163.09 132.91 164.05 133.28 164.87 132.92 Z M 165.89 132.47 L 167.09 131.99 C 167.92 131.66 168.33 130.72 167.99 129.89 C 167.66 129.06 166.72 128.66 165.90 128.99 L 164.69 129.47 C 163.86 129.80 163.46 130.74 163.79 131.57 C 164.12 132.40 165.06 132.80 165.89 132.47 Z M 167.06 131.99 L 167.91 131.67 C 168.75 131.36 169.17 130.43 168.85 129.60 C 168.54 128.77 167.61 128.35 166.78 128.66 L 165.92 128.98 C 165.09 129.30 164.67 130.23 164.99 131.06 C 165.30 131.89 166.23 132.31 167.06 131.99 Z M 167.89 131.67 L 168.76 131.35 C 169.59 131.05 170.02 130.13 169.72 129.30 C 169.42 128.47 168.50 128.05 167.67 128.35 L 166.80 128.67 C 165.97 128.97 165.54 129.88 165.85 130.71 C 166.15 131.54 167.06 131.97 167.89 131.67 Z M 168.75 131.34 L 169.66 131.02 C 170.48 130.73 170.91 129.82 170.62 129.00 C 170.33 128.17 169.42 127.74 168.60 128.03 L 167.69 128.36 C 166.86 128.65 166.43 129.55 166.72 130.38 C 167.02 131.20 167.92 131.63 168.75 131.34 Z M 169.64 131.01 L 170.61 130.67 C 171.43 130.39 171.86 129.49 171.58 128.67 C 171.29 127.85 170.40 127.42 169.58 127.70 L 168.61 128.04 C 167.79 128.33 167.36 129.22 167.64 130.04 C 167.93 130.86 168.82 131.30 169.64 131.01 Z M 170.60 130.66 L 171.65 130.30 C 172.46 130.02 172.89 129.14 172.61 128.32 C 172.33 127.51 171.44 127.07 170.63 127.36 L 169.59 127.72 C 168.77 128.00 168.34 128.88 168.62 129.70 C 168.90 130.51 169.79 130.94 170.60 130.66 Z M 171.64 130.29 L 172.59 129.97 C 173.40 129.69 173.83 128.81 173.55 128.00 C 173.27 127.19 172.39 126.76 171.58 127.04 L 170.63 127.37 C 169.83 127.64 169.40 128.52 169.67 129.33 C 169.95 130.14 170.83 130.57 171.64 130.29 Z M 172.59 129.96 L 173.47 129.65 C 174.27 129.38 174.70 128.50 174.42 127.70 C 174.14 126.90 173.27 126.47 172.46 126.75 L 171.59 127.05 C 170.78 127.32 170.36 128.20 170.63 129.00 C 170.91 129.81 171.79 130.23 172.59 129.96 Z M 173.46 129.65 L 174.38 129.33 C 175.18 129.05 175.60 128.18 175.33 127.38 C 175.05 126.58 174.18 126.16 173.38 126.44 L 172.46 126.75 C 171.67 127.03 171.24 127.90 171.52 128.70 C 171.79 129.50 172.67 129.92 173.46 129.65 Z M 174.38 129.32 L 175.33 128.99 C 176.12 128.72 176.54 127.85 176.27 127.05 C 175.99 126.26 175.12 125.84 174.33 126.12 L 173.38 126.44 C 172.59 126.72 172.17 127.59 172.44 128.38 C 172.72 129.18 173.59 129.60 174.38 129.32 Z M 175.33 128.98 L 176.30 128.64 C 177.09 128.37 177.51 127.50 177.23 126.71 C 176.95 125.93 176.09 125.51 175.30 125.78 L 174.33 126.12 C 173.54 126.40 173.12 127.26 173.40 128.05 C 173.68 128.84 174.54 129.26 175.33 128.98 Z M 176.30 128.64 L 177.29 128.29 C 178.07 128.01 178.48 127.15 178.21 126.37 C 177.93 125.58 177.07 125.17 176.28 125.45 L 175.30 125.79 C 174.52 126.07 174.10 126.93 174.38 127.71 C 174.66 128.50 175.52 128.91 176.30 128.64 Z M 177.29 128.28 L 178.28 127.93 C 179.06 127.65 179.46 126.80 179.19 126.02 C 178.91 125.24 178.05 124.83 177.27 125.10 L 176.28 125.46 C 175.50 125.73 175.10 126.59 175.37 127.37 C 175.65 128.15 176.51 128.56 177.29 128.28 Z M 178.28 127.92 L 179.26 127.57 C 180.04 127.29 180.44 126.44 180.16 125.66 C 179.88 124.89 179.03 124.48 178.26 124.76 L 177.27 125.11 C 176.50 125.39 176.09 126.25 176.37 127.02 C 176.65 127.79 177.50 128.20 178.28 127.92 Z M 179.26 127.56 L 180.22 127.21 C 180.99 126.93 181.39 126.08 181.11 125.31 C 180.83 124.54 179.98 124.14 179.21 124.42 L 178.25 124.77 C 177.48 125.05 177.09 125.90 177.37 126.67 C 177.64 127.44 178.49 127.84 179.26 127.56 Z M 180.23 127.20 L 181.18 126.85 C 181.94 126.57 182.33 125.72 182.05 124.96 C 181.77 124.19 180.93 123.80 180.16 124.08 L 179.21 124.43 C 178.45 124.71 178.05 125.56 178.33 126.32 C 178.61 127.09 179.46 127.48 180.23 127.20 Z M 181.18 126.84 L 182.12 126.49 C 182.88 126.21 183.27 125.37 182.99 124.61 C 182.71 123.85 181.86 123.46 181.10 123.74 L 180.16 124.09 C 179.40 124.37 179.01 125.22 179.29 125.98 C 179.57 126.74 180.42 127.12 181.18 126.84 Z M 182.12 126.49 L 183.05 126.14 C 183.81 125.86 184.19 125.02 183.91 124.26 C 183.63 123.51 182.79 123.12 182.04 123.40 L 181.10 123.75 C 180.35 124.03 179.96 124.87 180.24 125.63 C 180.52 126.38 181.36 126.77 182.12 126.49 Z M 183.05 126.13 L 183.98 125.78 C 184.74 125.50 185.12 124.66 184.83 123.91 C 184.55 123.16 183.72 122.78 182.97 123.06 L 182.04 123.41 C 181.29 123.69 180.90 124.53 181.19 125.28 C 181.47 126.03 182.30 126.41 183.05 126.13 Z M 183.98 125.77 L 184.91 125.43 C 185.66 125.14 186.03 124.31 185.75 123.57 C 185.47 122.82 184.64 122.44 183.89 122.72 L 182.97 123.07 C 182.22 123.35 181.84 124.18 182.12 124.93 C 182.40 125.68 183.24 126.05 183.98 125.77 Z M 184.91 125.42 L 185.83 125.07 C 186.57 124.79 186.95 123.96 186.67 123.22 C 186.39 122.48 185.56 122.10 184.82 122.38 L 183.89 122.73 C 183.15 123.01 182.78 123.84 183.06 124.58 C 183.34 125.32 184.17 125.70 184.91 125.42 Z M 185.83 125.06 L 186.28 124.89 C 187.02 124.61 187.40 123.79 187.12 123.05 C 186.84 122.31 186.01 121.94 185.27 122.22 L 184.82 122.39 C 184.08 122.67 183.71 123.49 183.99 124.23 C 184.27 124.97 185.09 125.34 185.83 125.06 Z"
      fill="black"
      fill-rule="nonzero" /><path d="M 168.82 107.10 L 167.79 107.30 C 166.96 107.46 166.42 108.26 166.58 109.09 C 166.74 109.93 167.54 110.47 168.38 110.31 L 169.40 110.11 C 170.23 109.95 170.78 109.15 170.62 108.31 C 170.46 107.48 169.65 106.94 168.82 107.10 Z M 167.72 107.30 L 166.73 107.54 C 165.90 107.74 165.39 108.58 165.60 109.41 C 165.80 110.24 166.63 110.74 167.46 110.54 L 168.45 110.30 C 169.28 110.10 169.79 109.27 169.58 108.44 C 169.38 107.61 168.55 107.10 167.72 107.30 Z M 166.58 107.58 L 165.67 107.90 C 164.86 108.19 164.44 109.08 164.72 109.88 C 165.01 110.69 165.90 111.11 166.70 110.83 L 167.61 110.51 C 168.42 110.22 168.85 109.33 168.56 108.52 C 168.27 107.72 167.39 107.29 166.58 107.58 Z M 165.41 108.01 L 164.57 108.48 C 163.82 108.91 163.56 109.86 163.98 110.61 C 164.41 111.36 165.36 111.63 166.12 111.20 L 166.96 110.73 C 167.71 110.30 167.97 109.35 167.55 108.60 C 167.12 107.84 166.17 107.58 165.41 108.01 Z M 164.30 108.66 L 163.56 109.31 C 162.90 109.89 162.84 110.89 163.42 111.54 C 164.00 112.20 165.00 112.26 165.66 111.68 L 166.39 111.03 C 167.05 110.45 167.11 109.45 166.53 108.79 C 165.95 108.14 164.95 108.08 164.30 108.66 Z M 163.35 109.49 L 162.73 110.27 C 162.18 110.97 162.29 111.98 162.99 112.53 C 163.68 113.08 164.69 112.97 165.24 112.27 L 165.87 111.49 C 166.42 110.80 166.30 109.79 165.61 109.24 C 164.91 108.68 163.90 108.80 163.35 109.49 Z M 162.60 110.43 L 162.09 111.26 C 161.62 112.02 161.86 113.02 162.63 113.49 C 163.39 113.96 164.40 113.72 164.86 112.96 L 165.37 112.12 C 165.84 111.36 165.60 110.36 164.84 109.89 C 164.07 109.42 163.07 109.66 162.60 110.43 Z M 162.01 111.37 L 161.59 112.21 C 161.19 113.02 161.52 114.01 162.32 114.41 C 163.13 114.82 164.12 114.49 164.52 113.68 L 164.94 112.84 C 165.35 112.03 165.02 111.05 164.21 110.64 C 163.40 110.24 162.42 110.56 162.01 111.37 Z M 161.54 112.31 L 161.15 113.23 C 160.80 114.07 161.20 115.03 162.04 115.38 C 162.88 115.74 163.84 115.34 164.19 114.50 L 164.58 113.58 C 164.93 112.74 164.53 111.78 163.69 111.43 C 162.85 111.08 161.89 111.47 161.54 112.31 Z M 161.11 113.31 L 160.75 114.33 C 160.45 115.19 160.90 116.14 161.76 116.44 C 162.62 116.75 163.57 116.30 163.87 115.44 L 164.23 114.42 C 164.54 113.56 164.09 112.61 163.23 112.31 C 162.37 112.00 161.42 112.45 161.11 113.31 Z M 160.73 114.39 L 160.43 115.35 C 160.15 116.23 160.64 117.16 161.52 117.43 C 162.39 117.71 163.33 117.22 163.60 116.34 L 163.90 115.38 C 164.17 114.50 163.68 113.57 162.81 113.30 C 161.93 113.02 161.00 113.51 160.73 114.39 Z M 160.41 115.39 L 160.13 116.37 C 159.87 117.26 160.39 118.18 161.28 118.44 C 162.16 118.69 163.09 118.17 163.34 117.29 L 163.62 116.30 C 163.87 115.42 163.36 114.49 162.47 114.24 C 161.58 113.99 160.66 114.50 160.41 115.39 Z M 160.11 116.40 L 159.85 117.39 C 159.61 118.29 160.14 119.20 161.04 119.44 C 161.93 119.68 162.85 119.15 163.09 118.25 L 163.35 117.26 C 163.59 116.37 163.06 115.45 162.16 115.21 C 161.27 114.97 160.35 115.51 160.11 116.40 Z M 159.84 117.41 L 159.59 118.37 C 159.37 119.27 159.92 120.19 160.82 120.41 C 161.72 120.64 162.63 120.09 162.86 119.19 L 163.10 118.23 C 163.33 117.33 162.78 116.42 161.88 116.19 C 160.98 115.96 160.06 116.51 159.84 117.41 Z M 159.58 118.39 L 159.34 119.39 C 159.13 120.29 159.68 121.21 160.59 121.43 C 161.50 121.64 162.41 121.08 162.63 120.18 L 162.87 119.18 C 163.09 118.27 162.53 117.36 161.62 117.14 C 160.72 116.92 159.80 117.48 159.58 118.39 Z M 159.34 119.40 L 159.11 120.39 C 158.90 121.31 159.47 122.22 160.38 122.43 C 161.29 122.64 162.20 122.07 162.41 121.16 L 162.64 120.16 C 162.85 119.25 162.28 118.34 161.37 118.13 C 160.46 117.92 159.55 118.49 159.34 119.40 Z M 159.10 120.41 L 158.89 121.35 C 158.69 122.26 159.26 123.17 160.18 123.37 C 161.09 123.58 162.00 123.00 162.21 122.09 L 162.42 121.15 C 162.62 120.23 162.04 119.32 161.13 119.12 C 160.21 118.91 159.30 119.49 159.10 120.41 Z M 158.89 121.35 L 158.68 122.29 C 158.48 123.20 159.06 124.11 159.98 124.31 C 160.89 124.52 161.80 123.94 162.00 123.02 L 162.21 122.08 C 162.41 121.16 161.83 120.26 160.91 120.05 C 160.00 119.85 159.09 120.43 158.89 121.35 Z M 158.68 122.28 L 158.47 123.22 C 158.27 124.14 158.85 125.05 159.77 125.25 C 160.69 125.45 161.60 124.87 161.80 123.95 L 162.01 123.02 C 162.21 122.10 161.63 121.19 160.71 120.99 C 159.79 120.78 158.88 121.36 158.68 122.28 Z M 158.47 123.22 L 158.26 124.19 C 158.05 125.11 158.64 126.02 159.56 126.22 C 160.48 126.42 161.39 125.84 161.59 124.92 L 161.81 123.95 C 162.01 123.03 161.42 122.12 160.50 121.92 C 159.58 121.71 158.67 122.30 158.47 123.22 Z M 158.25 124.19 L 158.03 125.20 C 157.84 126.12 158.42 127.03 159.35 127.23 C 160.27 127.43 161.18 126.84 161.38 125.92 L 161.60 124.92 C 161.80 123.99 161.21 123.08 160.29 122.88 C 159.36 122.68 158.45 123.27 158.25 124.19 Z M 158.03 125.20 L 157.82 126.19 C 157.63 127.11 158.22 128.02 159.15 128.22 C 160.07 128.41 160.98 127.82 161.18 126.90 L 161.38 125.91 C 161.58 124.99 160.99 124.08 160.06 123.88 C 159.14 123.69 158.23 124.28 158.03 125.20 Z M 157.82 126.20 L 157.62 127.14 C 157.43 128.07 158.03 128.98 158.96 129.17 C 159.89 129.36 160.79 128.76 160.99 127.83 L 161.18 126.89 C 161.37 125.96 160.77 125.05 159.85 124.86 C 158.92 124.67 158.01 125.27 157.82 126.20 Z M 157.62 127.15 L 157.42 128.12 C 157.23 129.05 157.84 129.96 158.77 130.15 C 159.70 130.33 160.60 129.73 160.79 128.80 L 160.99 127.83 C 161.18 126.90 160.58 125.99 159.65 125.80 C 158.72 125.61 157.81 126.22 157.62 127.15 Z M 157.42 128.12 L 157.22 129.13 C 157.03 130.06 157.64 130.97 158.57 131.15 C 159.50 131.34 160.40 130.74 160.59 129.81 L 160.79 128.80 C 160.98 127.87 160.38 126.96 159.45 126.77 C 158.51 126.59 157.61 127.19 157.42 128.12 Z M 157.22 129.13 L 157.02 130.14 C 156.83 131.07 157.43 131.98 158.37 132.16 C 159.30 132.35 160.21 131.74 160.39 130.81 L 160.59 129.81 C 160.78 128.87 160.18 127.97 159.24 127.78 C 158.31 127.59 157.40 128.20 157.22 129.13 Z M 157.01 130.14 L 156.82 131.10 C 156.63 132.03 157.24 132.94 158.17 133.13 C 159.11 133.32 160.01 132.71 160.20 131.78 L 160.39 130.81 C 160.58 129.88 159.98 128.97 159.04 128.78 C 158.11 128.60 157.20 129.20 157.01 130.14 Z M 156.82 131.10 L 156.62 132.08 C 156.43 133.02 157.04 133.93 157.97 134.11 C 158.91 134.30 159.82 133.70 160.00 132.76 L 160.20 131.78 C 160.39 130.84 159.79 129.94 158.85 129.75 C 157.92 129.56 157.01 130.16 156.82 131.10 Z M 156.62 132.08 L 156.42 133.07 C 156.23 134.01 156.84 134.92 157.77 135.11 C 158.71 135.30 159.62 134.69 159.81 133.76 L 160.01 132.76 C 160.20 131.83 159.59 130.92 158.66 130.73 C 157.72 130.54 156.81 131.14 156.62 132.08 Z M 156.42 133.07 L 156.22 134.06 C 156.03 134.99 156.63 135.91 157.56 136.10 C 158.50 136.29 159.41 135.69 159.60 134.75 L 159.81 133.76 C 160.00 132.82 159.39 131.91 158.46 131.72 C 157.52 131.53 156.61 132.13 156.42 133.07 Z M 156.22 134.06 L 156.01 135.05 C 155.82 135.98 156.42 136.90 157.36 137.09 C 158.29 137.29 159.21 136.68 159.40 135.75 L 159.60 134.76 C 159.80 133.82 159.20 132.90 158.26 132.71 C 157.32 132.52 156.41 133.12 156.22 134.06 Z M 156.01 135.05 L 155.81 136.03 C 155.61 136.97 156.21 137.88 157.15 138.08 C 158.09 138.27 159.00 137.67 159.20 136.73 L 159.40 135.75 C 159.59 134.81 158.99 133.90 158.06 133.70 C 157.12 133.51 156.20 134.11 156.01 135.05 Z M 155.80 136.03 L 155.60 137.01 C 155.41 137.95 156.01 138.86 156.95 139.06 C 157.89 139.25 158.80 138.65 159.00 137.71 L 159.20 136.73 C 159.39 135.80 158.79 134.88 157.85 134.69 C 156.91 134.49 156.00 135.10 155.80 136.03 Z M 155.60 137.01 L 155.40 137.99 C 155.21 138.92 155.82 139.84 156.76 140.03 C 157.69 140.22 158.61 139.62 158.80 138.68 L 159.00 137.71 C 159.19 136.77 158.58 135.85 157.64 135.66 C 156.71 135.47 155.79 136.08 155.60 137.01 Z M 155.40 137.99 L 155.21 138.97 C 155.02 139.91 155.63 140.82 156.57 141.00 C 157.51 141.19 158.42 140.58 158.61 139.64 L 158.80 138.67 C 158.99 137.73 158.38 136.82 157.44 136.63 C 156.50 136.44 155.59 137.06 155.40 137.99 Z M 155.20 138.98 L 155.02 139.95 C 154.84 140.89 155.45 141.80 156.39 141.98 C 157.34 142.16 158.25 141.55 158.43 140.61 L 158.61 139.63 C 158.79 138.69 158.18 137.78 157.24 137.60 C 156.29 137.42 155.38 138.03 155.20 138.98 Z M 155.01 139.96 L 154.83 140.94 C 154.66 141.88 155.28 142.79 156.22 142.96 C 157.16 143.14 158.07 142.52 158.25 141.57 L 158.43 140.60 C 158.61 139.65 157.98 138.75 157.04 138.57 C 156.10 138.39 155.19 139.02 155.01 139.96 Z M 154.83 140.94 L 154.65 141.93 C 154.48 142.87 155.10 143.78 156.05 143.95 C 156.99 144.12 157.90 143.50 158.07 142.55 L 158.25 141.57 C 158.42 140.62 157.80 139.72 156.85 139.55 C 155.91 139.37 155.00 140.00 154.83 140.94 Z M 154.65 141.94 L 154.47 142.93 C 154.30 143.88 154.93 144.78 155.88 144.95 C 156.82 145.12 157.73 144.49 157.90 143.54 L 158.07 142.55 C 158.24 141.60 157.61 140.70 156.67 140.53 C 155.72 140.36 154.82 140.99 154.65 141.94 Z M 154.47 142.93 L 154.29 143.92 C 154.13 144.86 154.76 145.77 155.71 145.93 C 156.66 146.10 157.56 145.47 157.72 144.52 L 157.90 143.54 C 158.06 142.59 157.43 141.69 156.48 141.52 C 155.54 141.35 154.63 141.99 154.47 142.93 Z M 154.29 143.92 L 154.12 144.90 C 153.96 145.85 154.59 146.75 155.54 146.92 C 156.49 147.08 157.39 146.45 157.56 145.50 L 157.73 144.51 C 157.89 143.57 157.25 142.66 156.31 142.50 C 155.36 142.34 154.46 142.97 154.29 143.92 Z M 154.12 144.91 L 153.95 145.90 C 153.79 146.85 154.43 147.75 155.38 147.91 C 156.33 148.07 157.23 147.43 157.39 146.48 L 157.56 145.49 C 157.72 144.54 157.08 143.64 156.13 143.48 C 155.18 143.32 154.28 143.96 154.12 144.91 Z M 153.95 145.91 L 153.79 146.90 C 153.63 147.85 154.27 148.74 155.22 148.90 C 156.17 149.06 157.07 148.42 157.23 147.47 L 157.39 146.48 C 157.55 145.53 156.91 144.63 155.96 144.47 C 155.01 144.31 154.11 144.96 153.95 145.91 Z M 153.79 146.90 L 153.63 147.89 C 153.47 148.84 154.12 149.74 155.07 149.89 C 156.02 150.04 156.92 149.40 157.07 148.45 L 157.23 147.46 C 157.38 146.51 156.74 145.61 155.78 145.46 C 154.83 145.31 153.94 145.95 153.79 146.90 Z M 153.62 147.90 L 153.47 148.90 C 153.32 149.85 153.97 150.74 154.92 150.89 C 155.88 151.04 156.77 150.39 156.92 149.43 L 157.07 148.44 C 157.22 147.49 156.57 146.60 155.62 146.45 C 154.67 146.30 153.77 146.95 153.62 147.90 Z M 153.47 148.90 L 153.32 149.89 C 153.17 150.84 153.83 151.73 154.78 151.88 C 155.73 152.02 156.62 151.37 156.77 150.42 L 156.92 149.43 C 157.06 148.47 156.41 147.59 155.46 147.44 C 154.50 147.30 153.61 147.95 153.47 148.90 Z M 153.32 149.90 L 153.17 150.88 C 153.03 151.84 153.68 152.73 154.64 152.87 C 155.59 153.01 156.48 152.35 156.62 151.40 L 156.77 150.41 C 156.91 149.46 156.25 148.57 155.30 148.43 C 154.35 148.29 153.46 148.94 153.32 149.90 Z M 153.17 150.89 L 153.02 151.87 C 152.88 152.82 153.54 153.71 154.49 153.85 C 155.45 153.99 156.34 153.33 156.48 152.38 L 156.62 151.40 C 156.76 150.44 156.10 149.56 155.15 149.41 C 154.20 149.27 153.31 149.93 153.17 150.89 Z M 153.02 151.87 L 152.88 152.85 C 152.74 153.80 153.40 154.69 154.35 154.83 C 155.31 154.97 156.19 154.31 156.33 153.36 L 156.48 152.38 C 156.62 151.43 155.96 150.54 155.00 150.40 C 154.05 150.26 153.16 150.92 153.02 151.87 Z M 152.88 152.85 L 152.73 153.83 C 152.59 154.78 153.25 155.67 154.21 155.81 C 155.16 155.95 156.05 155.29 156.19 154.34 L 156.33 153.36 C 156.47 152.40 155.81 151.52 154.86 151.38 C 153.90 151.24 153.02 151.90 152.88 152.85 Z M 152.73 153.83 L 152.59 154.82 C 152.45 155.77 153.11 156.66 154.07 156.80 C 155.02 156.94 155.91 156.27 156.05 155.32 L 156.19 154.33 C 156.33 153.38 155.67 152.49 154.71 152.35 C 153.76 152.21 152.87 152.88 152.73 153.83 Z M 152.59 154.82 L 152.45 155.81 C 152.31 156.77 152.97 157.65 153.93 157.79 C 154.88 157.93 155.77 157.27 155.91 156.31 L 156.05 155.32 C 156.19 154.36 155.52 153.48 154.57 153.34 C 153.61 153.20 152.73 153.86 152.59 154.82 Z M 152.44 155.82 L 152.30 156.83 C 152.17 157.78 152.83 158.67 153.79 158.80 C 154.74 158.94 155.63 158.27 155.76 157.32 L 155.91 156.31 C 156.04 155.35 155.38 154.47 154.42 154.33 C 153.47 154.20 152.58 154.86 152.44 155.82 Z M 152.30 156.83 L 152.16 157.84 C 152.03 158.79 152.69 159.68 153.65 159.81 C 154.61 159.94 155.49 159.28 155.62 158.32 L 155.76 157.31 C 155.90 156.36 155.23 155.47 154.27 155.34 C 153.32 155.21 152.43 155.87 152.30 156.83 Z M 152.16 157.85 L 152.02 158.86 C 151.89 159.81 152.56 160.70 153.52 160.82 C 154.48 160.95 155.36 160.28 155.49 159.33 L 155.62 158.31 C 155.75 157.36 155.08 156.48 154.13 156.35 C 153.17 156.22 152.29 156.89 152.16 157.85 Z M 152.02 158.87 L 151.89 159.87 C 151.77 160.83 152.44 161.70 153.40 161.83 C 154.36 161.95 155.24 161.27 155.36 160.32 L 155.49 159.31 C 155.61 158.36 154.94 157.48 153.98 157.36 C 153.02 157.23 152.14 157.91 152.02 158.87 Z M 151.89 159.88 L 151.77 160.86 C 151.66 161.82 152.34 162.69 153.30 162.81 C 154.26 162.92 155.13 162.24 155.25 161.28 L 155.36 160.30 C 155.48 159.34 154.79 158.47 153.83 158.36 C 152.88 158.24 152.00 158.93 151.89 159.88 Z M 151.77 160.88 L 151.66 161.87 C 151.56 162.83 152.25 163.69 153.21 163.80 C 154.17 163.90 155.04 163.21 155.14 162.25 L 155.25 161.26 C 155.35 160.30 154.66 159.44 153.70 159.33 C 152.74 159.23 151.87 159.92 151.77 160.88 Z M 151.66 161.89 L 151.56 162.94 C 151.47 163.90 152.18 164.75 153.14 164.84 C 154.10 164.93 154.95 164.23 155.05 163.26 L 155.14 162.22 C 155.23 161.26 154.53 160.41 153.57 160.31 C 152.60 160.22 151.75 160.93 151.66 161.89 Z M 151.56 162.96 L 151.48 163.95 C 151.40 164.92 152.12 165.76 153.08 165.84 C 154.04 165.92 154.89 165.20 154.97 164.24 L 155.05 163.24 C 155.13 162.28 154.41 161.43 153.45 161.36 C 152.48 161.28 151.64 161.99 151.56 162.96 Z M 151.48 163.97 L 151.40 164.93 C 151.33 165.89 152.06 166.73 153.02 166.80 C 153.99 166.88 154.83 166.15 154.90 165.19 L 154.97 164.22 C 155.04 163.26 154.31 162.42 153.35 162.35 C 152.39 162.28 151.55 163.00 151.48 163.97 Z M 151.40 164.94 L 151.34 165.90 C 151.27 166.87 152.00 167.70 152.96 167.77 C 153.92 167.84 154.76 167.11 154.83 166.15 L 154.90 165.18 C 154.96 164.22 154.24 163.38 153.27 163.31 C 152.31 163.24 151.47 163.97 151.40 164.94 Z M 151.34 165.90 L 151.27 166.91 C 151.20 167.87 151.93 168.71 152.89 168.78 C 153.86 168.85 154.69 168.12 154.76 167.15 L 154.83 166.15 C 154.90 165.18 154.17 164.34 153.20 164.28 C 152.24 164.21 151.40 164.94 151.34 165.90 Z M 151.27 166.91 L 151.20 167.91 C 151.13 168.88 151.86 169.71 152.83 169.78 C 153.79 169.84 154.63 169.11 154.69 168.15 L 154.76 167.15 C 154.82 166.18 154.09 165.35 153.13 165.28 C 152.16 165.22 151.33 165.95 151.27 166.91 Z M 151.20 167.92 L 151.14 168.91 C 151.08 169.88 151.81 170.71 152.78 170.77 C 153.74 170.83 154.57 170.09 154.63 169.13 L 154.69 168.14 C 154.75 167.17 154.02 166.34 153.05 166.28 C 152.09 166.22 151.26 166.96 151.20 167.92 Z M 151.14 168.93 L 151.08 169.94 C 151.03 170.90 151.77 171.73 152.74 171.78 C 153.70 171.83 154.53 171.09 154.58 170.12 L 154.63 169.11 C 154.68 168.15 153.94 167.32 152.98 167.27 C 152.01 167.22 151.19 167.96 151.14 168.93 Z M 151.08 169.95 L 151.03 170.97 C 150.99 171.94 151.74 172.75 152.70 172.80 C 153.67 172.84 154.49 172.10 154.53 171.13 L 154.58 170.11 C 154.62 169.15 153.88 168.33 152.91 168.28 C 151.94 168.24 151.13 168.98 151.08 169.95 Z M 151.03 170.98 L 150.99 171.97 C 150.95 172.94 151.70 173.75 152.67 173.79 C 153.64 173.83 154.45 173.08 154.49 172.12 L 154.53 171.12 C 154.57 170.16 153.82 169.34 152.86 169.30 C 151.89 169.26 151.07 170.01 151.03 170.98 Z M 150.99 171.97 L 150.95 172.93 C 150.92 173.90 151.67 174.71 152.63 174.75 C 153.60 174.79 154.41 174.04 154.45 173.07 L 154.49 172.11 C 154.53 171.15 153.78 170.33 152.81 170.30 C 151.85 170.26 151.03 171.01 150.99 171.97 Z M 150.96 172.93 L 150.92 173.86 C 150.88 174.83 151.63 175.64 152.60 175.68 C 153.56 175.72 154.38 174.97 154.42 174.00 L 154.45 173.07 C 154.49 172.11 153.74 171.29 152.77 171.26 C 151.81 171.22 150.99 171.97 150.96 172.93 Z M 150.92 173.87 L 150.88 174.82 C 150.85 175.79 151.61 176.60 152.57 176.63 C 153.54 176.67 154.35 175.91 154.38 174.95 L 154.42 173.99 C 154.45 173.03 153.69 172.22 152.73 172.18 C 151.76 172.15 150.95 172.90 150.92 173.87 Z M 150.88 174.84 L 150.86 175.89 C 150.83 176.85 151.59 177.66 152.56 177.68 C 153.53 177.71 154.33 176.94 154.35 175.98 L 154.38 174.93 C 154.41 173.96 153.64 173.16 152.68 173.14 C 151.71 173.11 150.91 173.87 150.88 174.84 Z M 150.86 175.91 L 150.84 176.95 C 150.83 177.91 151.60 178.71 152.56 178.72 C 153.53 178.74 154.32 177.97 154.34 177.00 L 154.35 175.96 C 154.37 175.00 153.60 174.20 152.63 174.18 C 151.67 174.17 150.87 174.94 150.86 175.91 Z M 150.84 176.96 L 150.83 177.96 C 150.83 178.93 151.60 179.72 152.57 179.72 C 153.54 179.73 154.32 178.95 154.33 177.99 L 154.34 176.99 C 154.34 176.02 153.57 175.23 152.60 175.23 C 151.64 175.22 150.85 176.00 150.84 176.96 Z M 150.83 177.98 L 150.84 179.02 C 150.84 179.98 151.62 180.76 152.59 180.76 C 153.55 180.76 154.33 179.98 154.33 179.01 L 154.33 177.97 C 154.33 177.01 153.55 176.23 152.58 176.23 C 151.62 176.23 150.83 177.01 150.83 177.98 Z M 150.84 179.03 L 150.85 180.06 C 150.86 181.03 151.65 181.80 152.61 181.79 C 153.58 181.78 154.35 180.99 154.34 180.03 L 154.33 179.00 C 154.32 178.03 153.53 177.26 152.57 177.27 C 151.60 177.28 150.83 178.07 150.84 179.03 Z M 150.85 180.08 L 150.87 181.05 C 150.89 182.02 151.69 182.78 152.65 182.76 C 153.62 182.74 154.38 181.94 154.36 180.97 L 154.34 180.00 C 154.32 179.04 153.52 178.28 152.56 178.30 C 151.59 178.32 150.83 179.12 150.85 180.08 Z M 150.87 181.09 L 150.92 182.15 C 150.96 183.11 151.78 183.86 152.74 183.81 C 153.71 183.77 154.45 182.95 154.41 181.99 L 154.36 180.93 C 154.32 179.97 153.50 179.23 152.54 179.27 C 151.57 179.31 150.83 180.13 150.87 181.09 Z M 150.93 182.26 L 151.04 183.23 C 151.15 184.19 152.01 184.88 152.97 184.77 C 153.93 184.66 154.62 183.79 154.51 182.84 L 154.40 181.87 C 154.29 180.91 153.42 180.22 152.47 180.33 C 151.51 180.44 150.82 181.31 150.93 182.26 Z M 151.07 183.43 L 151.29 184.36 C 151.51 185.30 152.45 185.88 153.39 185.66 C 154.33 185.44 154.91 184.50 154.69 183.56 L 154.47 182.64 C 154.25 181.70 153.31 181.12 152.38 181.33 C 151.44 181.55 150.85 182.49 151.07 183.43 Z M 151.36 184.59 L 151.72 185.51 C 152.06 186.41 153.07 186.86 153.97 186.51 C 154.87 186.17 155.32 185.16 154.97 184.26 L 154.62 183.33 C 154.27 182.44 153.26 181.99 152.36 182.33 C 151.46 182.68 151.02 183.69 151.36 184.59 Z M 151.80 185.69 L 152.23 186.53 C 152.68 187.38 153.73 187.72 154.58 187.27 C 155.44 186.83 155.77 185.78 155.33 184.92 L 154.89 184.08 C 154.45 183.23 153.40 182.89 152.54 183.34 C 151.69 183.78 151.35 184.83 151.80 185.69 Z M 152.30 186.65 L 152.84 187.51 C 153.35 188.33 154.43 188.57 155.25 188.06 C 156.06 187.55 156.31 186.47 155.80 185.65 L 155.26 184.80 C 154.75 183.98 153.67 183.73 152.85 184.25 C 152.04 184.76 151.79 185.84 152.30 186.65 Z M 152.91 187.62 L 153.53 188.45 C 154.10 189.23 155.19 189.39 155.97 188.82 C 156.74 188.25 156.91 187.16 156.34 186.38 L 155.72 185.55 C 155.15 184.77 154.06 184.60 153.28 185.17 C 152.51 185.75 152.34 186.84 152.91 187.62 Z M 153.61 188.55 L 154.27 189.33 C 154.90 190.06 156.00 190.15 156.74 189.52 C 157.47 188.89 157.55 187.79 156.93 187.06 L 156.26 186.28 C 155.63 185.55 154.53 185.46 153.80 186.09 C 153.06 186.72 152.98 187.82 153.61 188.55 Z M 154.37 189.44 L 155.14 190.19 C 155.82 190.86 156.93 190.85 157.61 190.16 C 158.28 189.48 158.27 188.37 157.58 187.69 L 156.82 186.95 C 156.13 186.27 155.03 186.28 154.35 186.97 C 153.68 187.66 153.69 188.77 154.37 189.44 Z M 155.26 190.30 L 156.07 190.95 C 156.82 191.56 157.92 191.45 158.53 190.70 C 159.13 189.95 159.02 188.85 158.27 188.24 L 157.46 187.58 C 156.71 186.98 155.61 187.09 155.00 187.84 C 154.39 188.59 154.51 189.69 155.26 190.30 Z M 156.19 191.05 L 157.01 191.59 C 157.81 192.13 158.90 191.92 159.43 191.12 C 159.97 190.32 159.76 189.23 158.96 188.69 L 158.14 188.15 C 157.34 187.61 156.26 187.82 155.72 188.62 C 155.18 189.42 155.39 190.51 156.19 191.05 Z M 157.12 191.67 L 157.94 192.13 C 158.78 192.60 159.84 192.30 160.32 191.46 C 160.79 190.62 160.50 189.56 159.66 189.08 L 158.84 188.62 C 158.00 188.15 156.94 188.44 156.46 189.28 C 155.99 190.13 156.28 191.19 157.12 191.67 Z M 158.04 192.18 L 158.93 192.61 C 159.80 193.02 160.84 192.65 161.26 191.78 C 161.68 190.91 161.31 189.87 160.44 189.45 L 159.55 189.03 C 158.68 188.61 157.64 188.98 157.22 189.85 C 156.80 190.72 157.17 191.76 158.04 192.18 Z M 159.04 192.65 L 159.96 193.02 C 160.85 193.37 161.87 192.94 162.23 192.04 C 162.58 191.14 162.14 190.13 161.25 189.77 L 160.33 189.41 C 159.43 189.05 158.42 189.49 158.06 190.38 C 157.71 191.28 158.14 192.30 159.04 192.65 Z M 160.07 193.06 L 161.01 193.36 C 161.93 193.66 162.91 193.15 163.21 192.23 C 163.50 191.32 163.00 190.33 162.08 190.04 L 161.14 189.73 C 160.22 189.44 159.24 189.94 158.94 190.86 C 158.65 191.78 159.15 192.76 160.07 193.06 Z M 161.10 193.39 L 162.06 193.64 C 162.99 193.88 163.95 193.32 164.19 192.39 C 164.43 191.46 163.88 190.50 162.94 190.26 L 161.99 190.01 C 161.05 189.77 160.10 190.32 159.86 191.26 C 159.61 192.19 160.17 193.14 161.10 193.39 Z M 162.13 193.65 L 163.07 193.86 C 164.01 194.06 164.94 193.46 165.14 192.52 C 165.35 191.57 164.75 190.65 163.80 190.44 L 162.87 190.24 C 161.93 190.04 161.00 190.64 160.80 191.58 C 160.59 192.52 161.19 193.45 162.13 193.65 Z M 163.14 193.87 L 164.12 194.04 C 165.07 194.21 165.97 193.57 166.14 192.62 C 166.30 191.67 165.67 190.77 164.72 190.60 L 163.74 190.43 C 162.79 190.26 161.88 190.90 161.72 191.85 C 161.55 192.80 162.19 193.70 163.14 193.87 Z M 164.18 194.05 L 165.21 194.19 C 166.16 194.32 167.04 193.65 167.17 192.70 C 167.30 191.74 166.63 190.86 165.68 190.73 L 164.65 190.59 C 163.70 190.46 162.82 191.13 162.69 192.09 C 162.56 193.04 163.23 193.92 164.18 194.05 Z M 165.27 194.20 L 166.27 194.30 C 167.23 194.39 168.09 193.69 168.18 192.73 C 168.28 191.77 167.58 190.92 166.62 190.82 L 165.62 190.72 C 164.66 190.63 163.80 191.33 163.71 192.29 C 163.61 193.25 164.31 194.10 165.27 194.20 Z M 166.33 194.30 L 167.29 194.37 C 168.25 194.44 169.08 193.71 169.15 192.75 C 169.22 191.79 168.49 190.95 167.53 190.88 L 166.57 190.82 C 165.61 190.75 164.77 191.48 164.71 192.44 C 164.64 193.40 165.36 194.24 166.33 194.30 Z M 167.33 194.37 L 168.32 194.42 C 169.28 194.46 170.10 193.72 170.14 192.75 C 170.19 191.79 169.44 190.97 168.48 190.93 L 167.49 190.88 C 166.52 190.84 165.71 191.58 165.66 192.55 C 165.62 193.51 166.36 194.33 167.33 194.37 Z M 168.35 194.42 L 169.37 194.45 C 170.33 194.48 171.14 193.72 171.16 192.75 C 171.19 191.79 170.43 190.99 169.47 190.96 L 168.45 190.93 C 167.48 190.90 166.68 191.66 166.65 192.62 C 166.62 193.59 167.38 194.39 168.35 194.42 Z M 169.39 194.45 L 170.44 194.47 C 171.40 194.49 172.20 193.72 172.22 192.75 C 172.23 191.79 171.47 190.99 170.50 190.97 L 169.45 190.96 C 168.48 190.94 167.69 191.71 167.67 192.67 C 167.65 193.64 168.42 194.43 169.39 194.45 Z M 170.45 194.47 L 171.49 194.48 C 172.45 194.49 173.24 193.72 173.25 192.75 C 173.26 191.78 172.49 190.99 171.52 190.98 L 170.49 190.97 C 169.52 190.96 168.73 191.74 168.72 192.70 C 168.71 193.67 169.49 194.46 170.45 194.47 Z M 171.50 194.48 L 172.54 194.48 C 173.51 194.49 174.29 193.71 174.29 192.74 C 174.30 191.77 173.52 190.99 172.55 190.99 L 171.51 190.98 C 170.54 190.98 169.76 191.76 169.76 192.73 C 169.75 193.69 170.54 194.48 171.50 194.48 Z M 172.56 194.49 L 173.57 194.48 C 174.54 194.47 175.31 193.68 175.31 192.72 C 175.30 191.75 174.51 190.97 173.55 190.98 L 172.53 190.98 C 171.57 190.99 170.79 191.78 170.79 192.75 C 170.80 193.71 171.59 194.49 172.56 194.49 Z M 173.59 194.48 L 174.55 194.46 C 175.52 194.45 176.29 193.65 176.27 192.68 C 176.25 191.71 175.46 190.94 174.49 190.96 L 173.53 190.98 C 172.56 190.99 171.79 191.79 171.81 192.76 C 171.82 193.73 172.62 194.50 173.59 194.48 Z M 174.58 194.46 L 175.55 194.43 C 176.51 194.40 177.27 193.59 177.24 192.62 C 177.21 191.65 176.40 190.90 175.43 190.93 L 174.46 190.96 C 173.49 190.99 172.74 191.80 172.77 192.77 C 172.80 193.74 173.61 194.50 174.58 194.46 Z M 175.60 194.43 L 176.57 194.37 C 177.54 194.31 178.27 193.48 178.21 192.51 C 178.15 191.54 177.32 190.81 176.35 190.87 L 175.38 190.93 C 174.41 190.99 173.68 191.82 173.74 192.79 C 173.80 193.75 174.63 194.49 175.60 194.43 Z M 176.65 194.36 L 177.60 194.26 C 178.56 194.16 179.26 193.30 179.15 192.33 C 179.05 191.37 178.19 190.67 177.23 190.78 L 176.28 190.88 C 175.31 190.98 174.62 191.84 174.72 192.80 C 174.82 193.77 175.68 194.46 176.65 194.36 Z M 177.68 194.25 L 178.69 194.09 C 179.64 193.95 180.30 193.05 180.15 192.09 C 180.00 191.14 179.11 190.48 178.15 190.63 L 177.14 190.79 C 176.19 190.93 175.53 191.83 175.68 192.79 C 175.83 193.74 176.72 194.40 177.68 194.25 Z M 178.75 194.08 L 179.67 193.90 C 180.63 193.72 181.25 192.80 181.06 191.85 C 180.88 190.90 179.96 190.28 179.01 190.46 L 178.08 190.64 C 177.13 190.83 176.51 191.75 176.70 192.70 C 176.88 193.65 177.80 194.27 178.75 194.08 Z M 179.72 193.90 L 180.63 193.69 C 181.58 193.49 182.18 192.55 181.97 191.60 C 181.76 190.66 180.82 190.06 179.88 190.27 L 178.96 190.47 C 178.02 190.68 177.42 191.61 177.63 192.56 C 177.84 193.51 178.77 194.10 179.72 193.90 Z M 180.66 193.69 L 181.64 193.46 C 182.58 193.23 183.16 192.28 182.94 191.34 C 182.71 190.40 181.76 189.82 180.82 190.04 L 179.85 190.27 C 178.91 190.50 178.32 191.45 178.55 192.39 C 178.77 193.33 179.72 193.91 180.66 193.69 Z M 181.66 193.45 L 182.68 193.19 C 183.62 192.95 184.19 192.00 183.95 191.06 C 183.71 190.12 182.75 189.55 181.81 189.79 L 180.80 190.05 C 179.86 190.28 179.29 191.24 179.53 192.18 C 179.77 193.12 180.72 193.69 181.66 193.45 Z M 182.70 193.19 L 183.73 192.91 C 184.67 192.66 185.23 191.70 184.98 190.76 C 184.73 189.83 183.77 189.27 182.83 189.52 L 181.79 189.79 C 180.85 190.04 180.30 191.00 180.55 191.94 C 180.80 192.88 181.76 193.44 182.70 193.19 Z M 183.75 192.91 L 184.74 192.64 C 185.68 192.38 186.23 191.41 185.97 190.47 C 185.71 189.54 184.74 188.99 183.81 189.25 L 182.81 189.52 C 181.88 189.78 181.33 190.75 181.59 191.68 C 181.85 192.62 182.81 193.17 183.75 192.91 Z M 184.76 192.63 L 185.72 192.36 C 186.65 192.10 187.19 191.12 186.93 190.19 C 186.66 189.25 185.69 188.71 184.75 188.98 L 183.79 189.25 C 182.86 189.51 182.31 190.49 182.58 191.42 C 182.85 192.36 183.82 192.90 184.76 192.63 Z M 185.73 192.36 L 186.69 192.08 C 187.62 191.81 188.16 190.83 187.89 189.90 C 187.61 188.96 186.64 188.43 185.70 188.70 L 184.74 188.98 C 183.81 189.25 183.27 190.23 183.54 191.16 C 183.81 192.09 184.79 192.63 185.73 192.36 Z M 186.69 192.08 L 187.65 191.80 C 188.59 191.52 189.12 190.54 188.85 189.61 C 188.57 188.67 187.59 188.14 186.65 188.41 L 185.69 188.70 C 184.76 188.97 184.23 189.95 184.50 190.89 C 184.78 191.82 185.76 192.36 186.69 192.08 Z M 187.66 191.80 L 188.62 191.51 C 189.55 191.23 190.09 190.25 189.81 189.31 C 189.53 188.38 188.54 187.85 187.61 188.13 L 186.65 188.41 C 185.71 188.69 185.18 189.68 185.46 190.61 C 185.74 191.55 186.72 192.08 187.66 191.80 Z M 188.62 191.51 L 189.59 191.22 C 190.52 190.94 191.05 189.96 190.77 189.02 C 190.49 188.09 189.51 187.56 188.57 187.84 L 187.61 188.13 C 186.67 188.41 186.14 189.39 186.42 190.33 C 186.70 191.26 187.69 191.79 188.62 191.51 Z M 189.59 191.22 L 190.59 190.92 C 191.53 190.64 192.06 189.66 191.78 188.72 C 191.50 187.78 190.51 187.25 189.57 187.53 L 188.57 187.84 C 187.63 188.12 187.10 189.10 187.38 190.04 C 187.67 190.98 188.65 191.51 189.59 191.22 Z M 190.59 190.92 L 191.59 190.62 C 192.52 190.34 193.05 189.35 192.77 188.42 C 192.49 187.48 191.50 186.95 190.56 187.23 L 189.57 187.53 C 188.64 187.82 188.11 188.80 188.39 189.74 C 188.67 190.68 189.66 191.21 190.59 190.92 Z M 191.59 190.62 L 192.56 190.33 C 193.50 190.04 194.02 189.05 193.74 188.12 C 193.45 187.18 192.46 186.65 191.53 186.94 L 190.56 187.24 C 189.62 187.52 189.09 188.51 189.38 189.45 C 189.67 190.38 190.66 190.91 191.59 190.62 Z M 192.57 190.33 L 193.50 190.04 C 194.44 189.75 194.96 188.75 194.67 187.82 C 194.38 186.88 193.39 186.36 192.45 186.65 L 191.52 186.94 C 190.58 187.23 190.06 188.22 190.35 189.16 C 190.64 190.09 191.63 190.62 192.57 190.33 Z M 193.51 190.03 L 194.40 189.75 C 195.34 189.45 195.85 188.46 195.56 187.52 C 195.26 186.59 194.26 186.08 193.33 186.37 L 192.44 186.65 C 191.51 186.95 190.99 187.95 191.29 188.88 C 191.58 189.81 192.58 190.33 193.51 190.03 Z M 194.42 189.75 L 195.46 189.40 C 196.39 189.10 196.90 188.10 196.59 187.17 C 196.29 186.24 195.28 185.73 194.35 186.03 L 193.31 186.38 C 192.38 186.68 191.87 187.68 192.18 188.61 C 192.49 189.55 193.49 190.05 194.42 189.75 Z M 195.48 189.40 L 196.47 189.07 C 197.39 188.75 197.89 187.74 197.58 186.82 C 197.26 185.89 196.26 185.39 195.33 185.70 L 194.34 186.04 C 193.41 186.35 192.91 187.36 193.23 188.29 C 193.54 189.22 194.55 189.71 195.48 189.40 Z M 196.48 189.06 L 197.39 188.75 C 198.32 188.43 198.81 187.42 198.49 186.49 C 198.17 185.56 197.16 185.07 196.23 185.39 L 195.32 185.71 C 194.39 186.03 193.90 187.04 194.22 187.96 C 194.54 188.89 195.55 189.38 196.48 189.06 Z M 197.39 188.75 L 198.24 188.46 C 199.17 188.14 199.66 187.12 199.35 186.20 C 199.03 185.27 198.01 184.78 197.09 185.10 L 196.23 185.39 C 195.31 185.71 194.81 186.72 195.13 187.65 C 195.45 188.57 196.46 189.07 197.39 188.75 Z M 198.23 188.46 L 199.20 188.13 C 200.13 187.82 200.63 186.81 200.32 185.88 C 200.00 184.95 198.99 184.45 198.06 184.77 L 197.10 185.09 C 196.17 185.40 195.67 186.41 195.98 187.34 C 196.29 188.27 197.30 188.77 198.23 188.46 Z M 199.20 188.14 L 200.15 187.82 C 201.08 187.51 201.58 186.50 201.27 185.57 C 200.96 184.64 199.95 184.13 199.02 184.45 L 198.07 184.76 C 197.14 185.07 196.64 186.08 196.95 187.01 C 197.26 187.94 198.26 188.45 199.20 188.14 Z M 200.16 187.81 L 201.08 187.50 C 202.01 187.18 202.50 186.17 202.18 185.24 C 201.86 184.31 200.85 183.82 199.92 184.14 L 199.00 184.45 C 198.07 184.77 197.58 185.78 197.90 186.71 C 198.22 187.64 199.23 188.13 200.16 187.81 Z M 201.13 187.48 L 202.14 187.10 C 203.06 186.75 203.53 185.72 203.18 184.80 C 202.83 183.88 201.81 183.42 200.89 183.77 L 199.87 184.15 C 198.95 184.50 198.49 185.53 198.83 186.45 C 199.18 187.36 200.21 187.83 201.13 187.48 Z M 202.45 186.95 L 203.30 186.42 C 204.14 185.91 204.40 184.81 203.89 183.98 C 203.37 183.14 202.28 182.88 201.44 183.39 L 200.58 183.92 C 199.75 184.43 199.49 185.53 200.00 186.36 C 200.51 187.20 201.61 187.46 202.45 186.95 Z M 204.08 185.38 L 204.30 184.63 C 204.56 183.68 204.01 182.70 203.06 182.44 C 202.11 182.17 201.13 182.73 200.87 183.67 L 200.66 184.43 C 200.39 185.37 200.95 186.36 201.89 186.62 C 202.84 186.88 203.82 186.33 204.08 185.38 Z M 204.15 183.31 L 203.80 182.67 C 203.34 181.81 202.26 181.48 201.40 181.95 C 200.53 182.42 200.21 183.49 200.67 184.36 L 201.02 184.99 C 201.48 185.86 202.56 186.18 203.43 185.72 C 204.29 185.25 204.61 184.17 204.15 183.31 Z M 203.58 182.35 L 202.95 181.62 C 202.31 180.88 201.19 180.80 200.45 181.44 C 199.70 182.08 199.62 183.21 200.26 183.95 L 200.90 184.68 C 201.54 185.42 202.66 185.50 203.40 184.86 C 204.14 184.22 204.23 183.09 203.58 182.35 Z M 202.86 181.52 L 202.06 180.74 C 201.36 180.05 200.24 180.06 199.55 180.76 C 198.86 181.46 198.87 182.58 199.57 183.27 L 200.36 184.05 C 201.06 184.74 202.19 184.73 202.87 184.03 C 203.56 183.33 203.55 182.21 202.86 181.52 Z M 202.04 180.72 L 201.21 179.92 C 200.50 179.25 199.37 179.28 198.69 179.99 C 198.02 180.70 198.05 181.82 198.76 182.50 L 199.59 183.29 C 200.30 183.97 201.42 183.94 202.10 183.23 C 202.78 182.52 202.75 181.39 202.04 180.72 Z M 201.22 179.98 L 200.44 179.20 C 199.76 178.52 198.66 178.51 197.98 179.19 C 197.29 179.87 197.29 180.97 197.97 181.65 L 198.75 182.44 C 199.42 183.12 200.52 183.12 201.21 182.45 C 201.89 181.77 201.89 180.67 201.22 179.98 Z M 200.43 179.30 L 199.74 178.55 C 199.12 177.87 198.06 177.82 197.39 178.44 C 196.71 179.06 196.66 180.12 197.28 180.79 L 197.98 181.55 C 198.60 182.23 199.65 182.27 200.33 181.65 C 201.00 181.03 201.05 179.98 200.43 179.30 Z M 199.71 178.64 L 199.08 177.91 C 198.51 177.25 197.51 177.17 196.85 177.74 C 196.19 178.31 196.11 179.30 196.68 179.96 L 197.31 180.70 C 197.88 181.36 198.88 181.43 199.54 180.87 C 200.20 180.30 200.28 179.30 199.71 178.64 Z M 199.03 177.98 L 198.43 177.26 C 197.91 176.63 196.97 176.54 196.33 177.06 C 195.70 177.59 195.61 178.53 196.13 179.17 L 196.73 179.89 C 197.25 180.52 198.20 180.61 198.83 180.09 C 199.47 179.56 199.56 178.62 199.03 177.98 Z M 198.40 177.30 L 198.27 177.14 C 197.77 176.53 196.86 176.44 196.24 176.94 C 195.63 177.45 195.54 178.36 196.04 178.97 L 196.17 179.13 C 196.67 179.74 197.58 179.83 198.20 179.33 C 198.81 178.83 198.90 177.92 198.40 177.30 Z"
      fill="black"
      fill-rule="nonzero" /></svg>