<svg xmlns="http://www.w3.org/2000/svg" width="300" height="300" viewBox="0 0 300 300">
<path d="M 142.66 101.47 L 142.58 102.46 C 142.52 103.33 143.17 104.09 144.04 104.16 C 144.91 104.23 145.67 103.58 145.74 102.70 L 145.82 101.72 C 145.89 100.85 145.24 100.08 144.36 100.02 C 143.49 99.95 142.73 100.60 142.66 101.47 Z M 142.56 102.50 L 142.51 103.49 C 142.46 104.38 143.14 105.14 144.03 105.18 C 144.92 105.22 145.67 104.54 145.72 103.65 L 145.77 102.66 C 145.81 101.77 145.13 101.02 144.24 100.97 C 143.36 100.93 142.60 101.61 142.56 102.50 Z M 142.48 103.58 L 142.48 104.59 C 142.49 105.49 143.22 106.22 144.13 106.22 C 145.03 106.21 145.76 105.48 145.75 104.57 L 145.75 103.56 C 145.74 102.66 145.01 101.93 144.10 101.94 C 143.20 101.94 142.47 102.68 142.48 103.58 Z M 142.48 104.71 L 142.56 105.69 C 142.63 106.59 143.42 107.26 144.32 107.19 C 145.23 107.12 145.90 106.33 145.83 105.43 L 145.75 104.45 C 145.68 103.55 144.89 102.88 143.99 102.95 C 143.08 103.02 142.41 103.81 142.48 104.71 Z M 142.59 105.78 L 142.73 106.76 C 142.85 107.65 143.67 108.26 144.56 108.14 C 145.45 108.01 146.06 107.19 145.94 106.31 L 145.80 105.33 C 145.68 104.44 144.85 103.82 143.97 103.95 C 143.08 104.07 142.46 104.90 142.59 105.78 Z M 142.76 106.82 L 142.94 107.82 C 143.10 108.69 143.93 109.26 144.80 109.10 C 145.67 108.95 146.24 108.12 146.09 107.25 L 145.91 106.25 C 145.75 105.38 144.92 104.80 144.05 104.96 C 143.18 105.12 142.60 105.95 142.76 106.82 Z M 142.97 107.84 L 143.17 108.82 C 143.34 109.67 144.17 110.22 145.02 110.05 C 145.87 109.88 146.43 109.05 146.26 108.19 L 146.06 107.22 C 145.89 106.37 145.06 105.81 144.20 105.99 C 143.35 106.16 142.80 106.99 142.97 107.84 Z M 143.19 108.82 L 143.37 109.71 C 143.55 110.55 144.37 111.09 145.21 110.92 C 146.06 110.74 146.60 109.92 146.42 109.07 L 146.24 108.19 C 146.06 107.35 145.23 106.81 144.39 106.98 C 143.55 107.16 143.01 107.98 143.19 108.82 Z M 143.39 109.72 L 143.59 110.66 C 143.77 111.49 144.59 112.02 145.42 111.84 C 146.26 111.66 146.78 110.84 146.61 110.01 L 146.40 109.07 C 146.22 108.24 145.40 107.71 144.57 107.89 C 143.74 108.06 143.21 108.89 143.39 109.72 Z M 143.61 110.66 L 143.84 111.68 C 144.02 112.51 144.83 113.02 145.66 112.84 C 146.48 112.66 147.00 111.84 146.81 111.02 L 146.59 110.00 C 146.40 109.18 145.59 108.66 144.77 108.84 C 143.94 109.03 143.42 109.84 143.61 110.66 Z M 143.85 111.69 L 144.10 112.77 C 144.29 113.59 145.10 114.10 145.91 113.91 C 146.73 113.72 147.23 112.91 147.05 112.10 L 146.80 111.01 C 146.61 110.20 145.80 109.69 144.99 109.88 C 144.17 110.07 143.67 110.88 143.85 111.69 Z M 144.12 112.78 L 144.34 113.73 C 144.53 114.54 145.34 115.04 146.14 114.85 C 146.95 114.66 147.45 113.85 147.26 113.05 L 147.03 112.09 C 146.84 111.29 146.04 110.79 145.23 110.98 C 144.43 111.17 143.93 111.97 144.12 112.78 Z M 144.35 113.74 L 144.59 114.73 C 144.78 115.53 145.58 116.03 146.38 115.84 C 147.18 115.64 147.68 114.84 147.49 114.04 L 147.25 113.04 C 147.06 112.24 146.25 111.75 145.45 111.94 C 144.65 112.13 144.16 112.94 144.35 113.74 Z M 144.60 114.73 L 144.84 115.74 C 145.03 116.54 145.83 117.02 146.63 116.83 C 147.42 116.64 147.91 115.84 147.72 115.05 L 147.48 114.04 C 147.29 113.25 146.49 112.76 145.69 112.95 C 144.90 113.14 144.41 113.94 144.60 114.73 Z M 144.85 115.74 L 145.09 116.73 C 145.28 117.52 146.08 118.00 146.86 117.81 C 147.65 117.62 148.14 116.83 147.95 116.04 L 147.71 115.05 C 147.52 114.26 146.73 113.78 145.94 113.97 C 145.15 114.16 144.66 114.95 144.85 115.74 Z M 145.10 116.72 L 145.33 117.66 C 145.51 118.44 146.30 118.93 147.09 118.74 C 147.87 118.55 148.35 117.76 148.16 116.98 L 147.94 116.04 C 147.75 115.26 146.96 114.78 146.18 114.97 C 145.40 115.15 144.91 115.94 145.10 116.72 Z M 145.33 117.65 L 145.59 118.74 C 145.78 119.52 146.56 120.00 147.34 119.82 C 148.12 119.63 148.60 118.85 148.41 118.07 L 148.15 116.98 C 147.97 116.20 147.19 115.72 146.41 115.91 C 145.63 116.09 145.15 116.88 145.33 117.65 Z M 145.60 118.74 L 145.84 119.74 C 146.02 120.52 146.80 121.00 147.57 120.82 C 148.35 120.64 148.83 119.86 148.65 119.08 L 148.41 118.08 C 148.23 117.30 147.45 116.82 146.67 117.00 C 145.90 117.19 145.42 117.96 145.60 118.74 Z M 145.84 119.74 L 146.06 120.66 C 146.24 121.43 147.01 121.91 147.78 121.73 C 148.55 121.55 149.03 120.78 148.85 120.01 L 148.64 119.09 C 148.46 118.32 147.69 117.84 146.92 118.02 C 146.14 118.19 145.66 118.97 145.84 119.74 Z M 146.06 120.66 L 146.27 121.53 C 146.44 122.30 147.21 122.78 147.98 122.61 C 148.75 122.43 149.23 121.66 149.05 120.89 L 148.85 120.01 C 148.67 119.24 147.90 118.77 147.13 118.94 C 146.36 119.12 145.88 119.89 146.06 120.66 Z M 146.27 121.53 L 146.29 121.63 C 146.47 122.39 147.23 122.87 148.00 122.69 C 148.77 122.52 149.25 121.75 149.07 120.98 L 149.05 120.89 C 148.87 120.12 148.10 119.65 147.34 119.82 C 146.57 120.00 146.09 120.77 146.27 121.53 Z"
      fill="black"
      fill-rule="nonzero" /><path d="M 118.06 127.94 L 117.11 128.01 C 116.25 128.08 115.60 128.83 115.66 129.70 C 115.73 130.57 116.49 131.22 117.36 131.15 L 118.30 131.08 C 119.17 131.01 119.82 130.25 119.75 129.39 C 119.68 128.52 118.92 127.87 118.06 127.94 Z M 117.08 128.01 L 116.12 128.10 C 115.25 128.18 114.61 128.95 114.69 129.82 C 114.78 130.69 115.55 131.33 116.42 131.25 L 117.38 131.15 C 118.25 131.07 118.89 130.30 118.81 129.43 C 118.73 128.56 117.95 127.92 117.08 128.01 Z M 116.06 128.10 L 115.06 128.23 C 114.19 128.34 113.57 129.14 113.69 130.01 C 113.80 130.88 114.59 131.49 115.46 131.38 L 116.47 131.25 C 117.34 131.13 117.96 130.34 117.84 129.47 C 117.73 128.60 116.93 127.99 116.06 128.10 Z M 114.99 128.23 L 113.94 128.41 C 113.08 128.57 112.50 129.39 112.65 130.26 C 112.80 131.13 113.63 131.71 114.49 131.56 L 115.53 131.37 C 116.40 131.22 116.98 130.40 116.83 129.53 C 116.68 128.66 115.85 128.08 114.99 128.23 Z M 113.87 128.42 L 112.90 128.63 C 112.03 128.83 111.49 129.68 111.68 130.55 C 111.87 131.42 112.73 131.96 113.60 131.77 L 114.57 131.55 C 115.43 131.36 115.98 130.50 115.79 129.64 C 115.59 128.77 114.74 128.22 113.87 128.42 Z M 112.82 128.64 L 111.84 128.90 C 110.97 129.14 110.46 130.03 110.69 130.89 C 110.93 131.76 111.82 132.27 112.69 132.04 L 113.67 131.77 C 114.54 131.53 115.05 130.64 114.81 129.78 C 114.58 128.91 113.69 128.40 112.82 128.64 Z M 111.75 128.91 L 110.78 129.23 C 109.92 129.51 109.45 130.44 109.74 131.30 C 110.02 132.16 110.94 132.63 111.80 132.34 L 112.77 132.03 C 113.63 131.74 114.10 130.82 113.82 129.96 C 113.53 129.10 112.61 128.63 111.75 128.91 Z M 110.67 129.25 L 109.76 129.62 C 108.91 129.96 108.50 130.92 108.85 131.77 C 109.19 132.62 110.15 133.03 111.00 132.69 L 111.91 132.32 C 112.76 131.98 113.17 131.02 112.83 130.17 C 112.49 129.32 111.52 128.91 110.67 129.25 Z M 109.60 129.68 L 108.50 130.26 C 107.68 130.69 107.37 131.70 107.80 132.52 C 108.23 133.33 109.24 133.64 110.06 133.21 L 111.16 132.63 C 111.98 132.20 112.29 131.19 111.86 130.37 C 111.43 129.56 110.42 129.25 109.60 129.68 Z M 108.23 130.42 L 107.39 131.09 C 106.66 131.67 106.54 132.73 107.13 133.46 C 107.71 134.18 108.77 134.30 109.50 133.72 L 110.33 133.05 C 111.06 132.47 111.18 131.41 110.60 130.68 C 110.01 129.96 108.95 129.84 108.23 130.42 Z M 106.89 131.71 L 106.61 132.33 C 106.23 133.19 106.62 134.20 107.47 134.58 C 108.33 134.96 109.34 134.57 109.72 133.72 L 110.00 133.10 C 110.38 132.24 109.99 131.23 109.13 130.85 C 108.28 130.47 107.27 130.85 106.89 131.71 Z M 106.83 134.09 L 107.19 134.54 C 107.78 135.28 108.86 135.40 109.60 134.81 C 110.33 134.22 110.45 133.14 109.86 132.40 L 109.50 131.96 C 108.91 131.22 107.84 131.10 107.10 131.69 C 106.36 132.28 106.24 133.36 106.83 134.09 Z M 107.90 135.07 L 108.73 135.40 C 109.62 135.75 110.62 135.32 110.96 134.44 C 111.31 133.55 110.88 132.55 110.00 132.21 L 109.16 131.87 C 108.27 131.53 107.27 131.96 106.93 132.84 C 106.58 133.73 107.01 134.73 107.90 135.07 Z M 109.02 135.50 L 110.20 135.73 C 111.13 135.92 112.04 135.32 112.23 134.39 C 112.42 133.45 111.82 132.54 110.89 132.35 L 109.71 132.11 C 108.77 131.93 107.86 132.53 107.67 133.46 C 107.49 134.40 108.09 135.31 109.02 135.50 Z M 110.33 135.76 L 111.51 135.90 C 112.46 136.02 113.32 135.34 113.44 134.39 C 113.55 133.45 112.87 132.58 111.93 132.47 L 110.75 132.33 C 109.80 132.21 108.94 132.89 108.83 133.84 C 108.71 134.78 109.39 135.65 110.33 135.76 Z M 111.58 135.91 L 112.60 135.99 C 113.55 136.07 114.38 135.36 114.46 134.40 C 114.54 133.45 113.82 132.62 112.87 132.54 L 111.86 132.46 C 110.90 132.39 110.07 133.10 109.99 134.05 C 109.92 135.00 110.63 135.84 111.58 135.91 Z M 112.64 135.99 L 113.67 136.05 C 114.63 136.10 115.44 135.37 115.49 134.41 C 115.54 133.46 114.81 132.64 113.86 132.59 L 112.83 132.54 C 111.87 132.49 111.06 133.22 111.01 134.18 C 110.96 135.13 111.69 135.94 112.64 135.99 Z M 113.71 136.05 L 114.72 136.08 C 115.67 136.12 116.47 135.37 116.51 134.41 C 116.54 133.46 115.79 132.66 114.83 132.63 L 113.82 132.59 C 112.87 132.56 112.07 133.31 112.03 134.26 C 112.00 135.22 112.75 136.02 113.71 136.05 Z M 114.74 136.08 L 115.70 136.11 C 116.66 136.13 117.45 135.37 117.47 134.41 C 117.49 133.46 116.73 132.67 115.78 132.65 L 114.81 132.63 C 113.86 132.61 113.07 133.36 113.05 134.32 C 113.03 135.27 113.78 136.06 114.74 136.08 Z M 115.72 136.11 L 116.76 136.12 C 117.72 136.13 118.50 135.37 118.51 134.41 C 118.53 133.46 117.76 132.67 116.81 132.66 L 115.76 132.65 C 114.81 132.63 114.02 133.40 114.01 134.35 C 114.00 135.31 114.76 136.09 115.72 136.11 Z M 116.78 136.12 L 117.79 136.12 C 118.74 136.13 119.52 135.36 119.52 134.40 C 119.53 133.45 118.76 132.67 117.80 132.67 L 116.79 132.66 C 115.84 132.66 115.06 133.43 115.06 134.38 C 115.05 135.34 115.82 136.11 116.78 136.12 Z M 117.81 136.12 L 118.77 136.11 C 119.73 136.10 120.49 135.32 120.48 134.37 C 120.47 133.41 119.69 132.65 118.74 132.66 L 117.78 132.67 C 116.82 132.68 116.06 133.46 116.07 134.41 C 116.08 135.36 116.86 136.13 117.81 136.12 Z M 118.80 136.11 L 119.76 136.08 C 120.71 136.06 121.47 135.27 121.44 134.31 C 121.42 133.36 120.62 132.61 119.67 132.63 L 118.71 132.66 C 117.76 132.68 117.00 133.48 117.03 134.43 C 117.05 135.38 117.85 136.14 118.80 136.11 Z M 119.79 136.08 L 120.74 136.04 C 121.69 136.00 122.42 135.20 122.38 134.24 C 122.34 133.29 121.54 132.55 120.58 132.60 L 119.64 132.64 C 118.69 132.68 117.95 133.48 117.99 134.43 C 118.03 135.39 118.84 136.12 119.79 136.08 Z M 120.77 136.04 L 121.75 135.98 C 122.70 135.91 123.42 135.10 123.36 134.14 C 123.30 133.19 122.48 132.47 121.53 132.54 L 120.55 132.60 C 119.60 132.66 118.88 133.48 118.94 134.43 C 119.00 135.38 119.82 136.10 120.77 136.04 Z M 121.80 135.97 L 122.81 135.88 C 123.76 135.80 124.46 134.96 124.37 134.01 C 124.29 133.06 123.45 132.36 122.50 132.45 L 121.49 132.54 C 120.54 132.62 119.84 133.46 119.93 134.41 C 120.01 135.36 120.85 136.06 121.80 135.97 Z M 122.86 135.87 L 123.90 135.75 C 124.85 135.63 125.52 134.78 125.41 133.83 C 125.29 132.89 124.43 132.21 123.49 132.33 L 122.45 132.45 C 121.51 132.57 120.83 133.43 120.95 134.37 C 121.06 135.31 121.92 135.99 122.86 135.87 Z M 123.96 135.74 L 124.91 135.60 C 125.85 135.45 126.49 134.57 126.35 133.63 C 126.20 132.69 125.32 132.05 124.38 132.19 L 123.44 132.34 C 122.50 132.48 121.85 133.36 121.99 134.30 C 122.14 135.24 123.02 135.88 123.96 135.74 Z M 124.95 135.59 L 125.91 135.42 C 126.84 135.25 127.46 134.36 127.30 133.42 C 127.13 132.48 126.24 131.86 125.30 132.03 L 124.34 132.20 C 123.41 132.37 122.78 133.26 122.95 134.20 C 123.12 135.13 124.01 135.75 124.95 135.59 Z M 125.93 135.41 L 126.92 135.22 C 127.85 135.04 128.46 134.13 128.27 133.20 C 128.09 132.27 127.19 131.66 126.25 131.84 L 125.27 132.03 C 124.34 132.22 123.73 133.12 123.92 134.05 C 124.10 134.99 125.00 135.59 125.93 135.41 Z M 126.93 135.21 L 127.94 135.01 C 128.87 134.82 129.47 133.91 129.28 132.98 C 129.09 132.05 128.18 131.45 127.25 131.64 L 126.24 131.85 C 125.31 132.04 124.71 132.95 124.90 133.88 C 125.09 134.81 126.00 135.41 126.93 135.21 Z M 127.95 135.00 L 128.95 134.80 C 129.88 134.60 130.48 133.69 130.28 132.76 C 130.09 131.83 129.18 131.24 128.25 131.43 L 127.25 131.64 C 126.32 131.83 125.72 132.74 125.91 133.67 C 126.11 134.60 127.02 135.20 127.95 135.00 Z M 128.95 134.80 L 129.92 134.59 C 130.85 134.40 131.44 133.49 131.25 132.56 C 131.06 131.63 130.15 131.04 129.22 131.23 L 128.25 131.43 C 127.32 131.62 126.73 132.53 126.92 133.46 C 127.11 134.39 128.02 134.99 128.95 134.80 Z M 129.92 134.59 L 130.90 134.39 C 131.83 134.20 132.43 133.29 132.23 132.36 C 132.04 131.43 131.13 130.83 130.20 131.03 L 129.22 131.23 C 128.29 131.42 127.69 132.33 127.89 133.26 C 128.08 134.19 128.99 134.79 129.92 134.59 Z M 130.90 134.39 L 131.89 134.18 C 132.82 133.99 133.42 133.08 133.22 132.15 C 133.03 131.22 132.12 130.63 131.19 130.82 L 130.20 131.03 C 129.27 131.22 128.68 132.13 128.87 133.06 C 129.07 133.99 129.98 134.58 130.90 134.39 Z M 131.90 134.18 L 132.88 133.97 C 133.81 133.77 134.40 132.86 134.21 131.94 C 134.01 131.01 133.10 130.42 132.17 130.61 L 131.19 130.82 C 130.26 131.02 129.67 131.93 129.86 132.86 C 130.06 133.78 130.97 134.38 131.90 134.18 Z M 132.89 133.97 L 133.88 133.76 C 134.80 133.56 135.39 132.64 135.19 131.72 C 134.99 130.79 134.08 130.20 133.15 130.40 L 132.17 130.61 C 131.24 130.81 130.65 131.73 130.85 132.65 C 131.05 133.58 131.96 134.17 132.89 133.97 Z M 133.89 133.75 L 134.88 133.53 C 135.80 133.33 136.39 132.41 136.18 131.49 C 135.98 130.56 135.06 129.98 134.14 130.18 L 133.15 130.40 C 132.22 130.61 131.64 131.52 131.84 132.45 C 132.05 133.37 132.96 133.96 133.89 133.75 Z M 134.89 133.53 L 135.87 133.31 C 136.79 133.10 137.37 132.18 137.16 131.26 C 136.95 130.33 136.03 129.76 135.10 129.97 L 134.13 130.19 C 133.21 130.40 132.63 131.32 132.84 132.24 C 133.05 133.16 133.97 133.74 134.89 133.53 Z M 135.88 133.30 L 136.84 133.07 C 137.76 132.86 138.33 131.94 138.12 131.02 C 137.90 130.10 136.98 129.53 136.06 129.74 L 135.09 129.97 C 134.17 130.19 133.60 131.11 133.82 132.03 C 134.04 132.95 134.96 133.52 135.88 133.30 Z M 136.86 133.07 L 137.82 132.83 C 138.73 132.61 139.29 131.68 139.07 130.76 C 138.84 129.85 137.92 129.29 137.00 129.51 L 136.04 129.75 C 135.12 129.97 134.56 130.90 134.79 131.82 C 135.02 132.73 135.94 133.29 136.86 133.07 Z M 137.83 132.83 L 138.80 132.58 C 139.71 132.34 140.26 131.41 140.03 130.50 C 139.79 129.59 138.86 129.04 137.95 129.27 L 136.98 129.52 C 136.07 129.75 135.52 130.68 135.75 131.60 C 135.99 132.51 136.92 133.06 137.83 132.83 Z M 138.81 132.57 L 139.79 132.31 C 140.70 132.07 141.24 131.13 140.99 130.22 C 140.75 129.31 139.81 128.77 138.90 129.02 L 137.93 129.28 C 137.02 129.52 136.48 130.46 136.72 131.37 C 136.97 132.28 137.90 132.82 138.81 132.57 Z M 139.80 132.31 L 140.77 132.04 C 141.67 131.79 142.21 130.85 141.95 129.94 C 141.70 129.03 140.76 128.50 139.85 128.75 L 138.89 129.02 C 137.98 129.27 137.45 130.21 137.70 131.12 C 137.95 132.03 138.89 132.56 139.80 132.31 Z M 140.78 132.03 L 141.74 131.76 C 142.64 131.50 143.17 130.56 142.91 129.66 C 142.65 128.75 141.71 128.23 140.81 128.48 L 139.84 128.76 C 138.94 129.02 138.42 129.96 138.67 130.86 C 138.93 131.77 139.87 132.29 140.78 132.03 Z M 141.75 131.76 L 142.70 131.48 C 143.60 131.22 144.12 130.27 143.86 129.37 C 143.60 128.47 142.65 127.95 141.75 128.21 L 140.80 128.49 C 139.89 128.75 139.38 129.70 139.64 130.60 C 139.90 131.50 140.84 132.02 141.75 131.76 Z M 142.71 131.47 L 143.67 131.19 C 144.57 130.93 145.08 129.98 144.82 129.08 C 144.55 128.18 143.61 127.67 142.71 127.93 L 141.74 128.22 C 140.84 128.48 140.33 129.43 140.60 130.33 C 140.86 131.23 141.81 131.74 142.71 131.47 Z M 143.67 131.19 L 144.63 130.90 C 145.53 130.63 146.04 129.69 145.77 128.79 C 145.50 127.89 144.56 127.38 143.66 127.65 L 142.70 127.94 C 141.80 128.21 141.29 129.15 141.56 130.05 C 141.83 130.94 142.77 131.45 143.67 131.19 Z M 144.64 130.89 L 145.59 130.61 C 146.48 130.33 146.99 129.39 146.72 128.50 C 146.45 127.60 145.50 127.10 144.61 127.37 L 143.65 127.66 C 142.76 127.93 142.26 128.87 142.53 129.77 C 142.80 130.66 143.74 131.17 144.64 130.89 Z M 145.60 130.60 L 146.55 130.31 C 147.44 130.03 147.94 129.09 147.67 128.20 C 147.39 127.31 146.45 126.81 145.56 127.08 L 144.60 127.37 C 143.71 127.65 143.21 128.59 143.49 129.48 C 143.76 130.37 144.70 130.87 145.60 130.60 Z M 146.55 130.30 L 147.51 130.00 C 148.39 129.73 148.89 128.78 148.61 127.90 C 148.34 127.01 147.39 126.51 146.50 126.79 L 145.55 127.09 C 144.66 127.36 144.17 128.31 144.44 129.19 C 144.72 130.08 145.66 130.58 146.55 130.30 Z M 147.51 130.00 L 148.45 129.70 C 149.34 129.42 149.83 128.48 149.55 127.59 C 149.27 126.71 148.33 126.22 147.44 126.50 L 146.50 126.79 C 145.61 127.07 145.12 128.02 145.40 128.90 C 145.68 129.79 146.63 130.28 147.51 130.00 Z M 148.46 129.70 L 149.40 129.39 C 150.29 129.11 150.77 128.17 150.49 127.29 C 150.21 126.41 149.27 125.92 148.39 126.20 L 147.44 126.50 C 146.56 126.78 146.07 127.73 146.35 128.61 C 146.63 129.49 147.57 129.98 148.46 129.70 Z M 149.40 129.39 L 150.36 129.08 C 151.24 128.80 151.72 127.86 151.44 126.98 C 151.16 126.10 150.22 125.62 149.34 125.90 L 148.39 126.20 C 147.51 126.49 147.02 127.43 147.30 128.31 C 147.58 129.19 148.53 129.67 149.40 129.39 Z M 150.36 129.08 L 151.32 128.77 C 152.20 128.49 152.68 127.55 152.40 126.68 C 152.12 125.80 151.18 125.31 150.30 125.60 L 149.34 125.90 C 148.46 126.18 147.98 127.12 148.26 128.00 C 148.54 128.88 149.48 129.36 150.36 129.08 Z M 151.32 128.77 L 152.27 128.47 C 153.14 128.19 153.63 127.25 153.35 126.37 C 153.07 125.50 152.13 125.02 151.26 125.30 L 150.30 125.60 C 149.43 125.88 148.95 126.81 149.22 127.69 C 149.50 128.57 150.44 129.05 151.32 128.77 Z M 152.26 128.46 L 153.20 128.16 C 154.07 127.89 154.56 126.95 154.28 126.08 C 154.00 125.21 153.07 124.72 152.19 125.00 L 151.26 125.30 C 150.39 125.58 149.90 126.51 150.18 127.38 C 150.46 128.26 151.39 128.74 152.26 128.46 Z M 153.20 128.16 L 154.14 127.86 C 155.01 127.58 155.49 126.65 155.22 125.78 C 154.94 124.91 154.01 124.43 153.14 124.71 L 152.20 125.01 C 151.32 125.28 150.84 126.21 151.12 127.08 C 151.40 127.96 152.33 128.44 153.20 128.16 Z M 154.14 127.85 L 155.10 127.55 C 155.97 127.27 156.45 126.34 156.17 125.47 C 155.89 124.61 154.96 124.13 154.09 124.41 L 153.14 124.71 C 152.27 124.99 151.79 125.92 152.07 126.79 C 152.35 127.65 153.28 128.13 154.14 127.85 Z M 155.10 127.54 L 156.07 127.23 C 156.93 126.95 157.41 126.02 157.13 125.16 C 156.85 124.29 155.92 123.82 155.06 124.10 L 154.09 124.41 C 153.23 124.69 152.75 125.62 153.03 126.48 C 153.31 127.35 154.24 127.82 155.10 127.54 Z M 156.08 127.22 L 157.04 126.90 C 157.90 126.62 158.37 125.69 158.09 124.83 C 157.81 123.97 156.88 123.50 156.02 123.79 L 155.05 124.11 C 154.19 124.39 153.72 125.31 154.01 126.18 C 154.29 127.04 155.22 127.50 156.08 127.22 Z M 157.05 126.90 L 158.01 126.58 C 158.87 126.29 159.33 125.36 159.04 124.51 C 158.76 123.65 157.83 123.19 156.98 123.47 L 156.01 123.79 C 155.16 124.08 154.70 125.01 154.98 125.86 C 155.27 126.72 156.19 127.18 157.05 126.90 Z M 158.01 126.57 L 158.98 126.24 C 159.83 125.96 160.29 125.03 160.00 124.18 C 159.71 123.33 158.79 122.87 157.93 123.16 L 156.97 123.48 C 156.12 123.77 155.66 124.69 155.95 125.55 C 156.24 126.40 157.16 126.86 158.01 126.57 Z M 158.98 126.24 L 159.93 125.91 C 160.78 125.62 161.23 124.70 160.94 123.85 C 160.65 123.00 159.73 122.55 158.88 122.84 L 157.93 123.16 C 157.08 123.45 156.63 124.38 156.92 125.22 C 157.21 126.07 158.13 126.53 158.98 126.24 Z M 159.93 125.91 L 160.87 125.58 C 161.71 125.29 162.16 124.37 161.87 123.53 C 161.58 122.68 160.66 122.23 159.81 122.52 L 158.88 122.84 C 158.03 123.13 157.58 124.06 157.88 124.90 C 158.17 125.75 159.09 126.20 159.93 125.91 Z M 160.87 125.58 L 161.82 125.25 C 162.66 124.95 163.11 124.03 162.82 123.19 C 162.52 122.35 161.60 121.90 160.76 122.20 L 159.81 122.53 C 158.97 122.82 158.52 123.74 158.81 124.58 C 159.11 125.43 160.03 125.87 160.87 125.58 Z M 161.82 125.24 L 162.81 124.89 C 163.65 124.60 164.09 123.68 163.80 122.84 C 163.50 122.01 162.59 121.56 161.75 121.86 L 160.76 122.20 C 159.92 122.50 159.48 123.42 159.77 124.25 C 160.07 125.09 160.98 125.53 161.82 125.24 Z M 162.81 124.89 L 163.76 124.55 C 164.60 124.26 165.03 123.34 164.74 122.51 C 164.44 121.67 163.53 121.24 162.70 121.53 L 161.75 121.87 C 160.91 122.16 160.48 123.07 160.77 123.91 C 161.06 124.74 161.98 125.18 162.81 124.89 Z M 163.76 124.54 L 164.68 124.22 C 165.51 123.92 165.94 123.01 165.65 122.18 C 165.35 121.35 164.44 120.92 163.61 121.21 L 162.70 121.54 C 161.87 121.83 161.43 122.74 161.73 123.57 C 162.02 124.40 162.93 124.84 163.76 124.54 Z M 164.68 124.21 L 165.57 123.90 C 166.39 123.60 166.83 122.69 166.53 121.87 C 166.24 121.04 165.33 120.61 164.50 120.90 L 163.61 121.22 C 162.79 121.51 162.36 122.42 162.65 123.25 C 162.94 124.07 163.85 124.51 164.68 124.21 Z M 165.57 123.89 L 166.53 123.54 C 167.35 123.25 167.78 122.35 167.49 121.53 C 167.20 120.70 166.30 120.27 165.47 120.57 L 164.51 120.91 C 163.68 121.20 163.26 122.11 163.55 122.93 C 163.84 123.75 164.74 124.18 165.57 123.89 Z M 166.53 123.54 L 167.48 123.20 C 168.30 122.91 168.73 122.01 168.43 121.19 C 168.14 120.37 167.25 119.95 166.43 120.24 L 165.48 120.57 C 164.66 120.86 164.23 121.76 164.52 122.58 C 164.81 123.40 165.71 123.83 166.53 123.54 Z M 167.47 123.19 L 168.41 122.86 C 169.22 122.58 169.65 121.68 169.36 120.87 C 169.07 120.05 168.18 119.63 167.37 119.91 L 166.43 120.24 C 165.62 120.53 165.19 121.42 165.48 122.24 C 165.76 123.05 166.66 123.48 167.47 123.19 Z M 168.40 122.86 L 169.32 122.54 C 170.13 122.26 170.56 121.37 170.28 120.56 C 169.99 119.74 169.11 119.32 168.29 119.60 L 167.37 119.92 C 166.56 120.20 166.13 121.09 166.42 121.90 C 166.70 122.71 167.59 123.14 168.40 122.86 Z M 169.31 122.53 L 170.18 122.24 C 170.99 121.96 171.42 121.08 171.15 120.27 C 170.87 119.46 169.99 119.03 169.18 119.30 L 168.30 119.60 C 167.50 119.88 167.06 120.76 167.34 121.57 C 167.62 122.38 168.50 122.81 169.31 122.53 Z M 170.17 122.23 L 171.07 121.93 C 171.87 121.67 172.31 120.79 172.04 119.99 C 171.77 119.18 170.90 118.74 170.09 119.01 L 169.20 119.31 C 168.39 119.58 167.95 120.45 168.22 121.26 C 168.49 122.06 169.36 122.50 170.17 122.23 Z M 171.05 121.93 L 172.00 121.63 C 172.81 121.37 173.25 120.51 173.00 119.70 C 172.74 118.89 171.88 118.45 171.07 118.70 L 170.11 119.01 C 169.31 119.27 168.86 120.13 169.12 120.94 C 169.38 121.74 170.24 122.19 171.05 121.93 Z M 171.98 121.63 L 173.03 121.31 C 173.83 121.06 174.29 120.21 174.04 119.40 C 173.79 118.59 172.94 118.14 172.14 118.39 L 171.09 118.71 C 170.28 118.95 169.83 119.81 170.08 120.61 C 170.32 121.42 171.17 121.87 171.98 121.63 Z M 173.01 121.30 L 173.94 121.03 C 174.74 120.80 175.20 119.95 174.97 119.15 C 174.73 118.34 173.89 117.88 173.08 118.12 L 172.15 118.39 C 171.35 118.62 170.89 119.47 171.12 120.27 C 171.36 121.08 172.20 121.54 173.01 121.30 Z M 173.92 121.03 L 174.85 120.77 C 175.66 120.54 176.13 119.71 175.90 118.90 C 175.67 118.10 174.84 117.63 174.03 117.85 L 173.10 118.12 C 172.29 118.35 171.83 119.18 172.05 119.99 C 172.28 120.79 173.11 121.26 173.92 121.03 Z M 174.84 120.77 L 175.81 120.50 C 176.62 120.29 177.09 119.46 176.88 118.65 C 176.66 117.85 175.83 117.37 175.03 117.59 L 174.05 117.86 C 173.25 118.07 172.77 118.90 172.99 119.70 C 173.21 120.51 174.03 120.98 174.84 120.77 Z M 175.80 120.50 L 176.80 120.25 C 177.60 120.04 178.08 119.22 177.88 118.42 C 177.67 117.61 176.85 117.13 176.05 117.34 L 175.05 117.59 C 174.24 117.80 173.76 118.62 173.97 119.42 C 174.17 120.23 174.99 120.71 175.80 120.50 Z M 176.77 120.25 L 177.78 120.00 C 178.58 119.81 179.08 119.00 178.88 118.20 C 178.69 117.39 177.88 116.90 177.08 117.09 L 176.07 117.34 C 175.27 117.53 174.77 118.34 174.97 119.14 C 175.16 119.95 175.97 120.44 176.77 120.25 Z M 177.75 120.00 L 178.76 119.78 C 179.56 119.60 180.07 118.80 179.89 118.00 C 179.71 117.20 178.91 116.69 178.11 116.87 L 177.10 117.09 C 176.30 117.27 175.79 118.07 175.97 118.87 C 176.15 119.68 176.95 120.18 177.75 120.00 Z M 178.73 119.78 L 179.74 119.57 C 180.54 119.41 181.06 118.63 180.90 117.82 C 180.74 117.02 179.95 116.50 179.15 116.67 L 178.14 116.87 C 177.34 117.03 176.82 117.82 176.98 118.62 C 177.14 119.42 177.93 119.94 178.73 119.78 Z M 179.71 119.57 L 180.71 119.38 C 181.51 119.24 182.03 118.47 181.89 117.67 C 181.74 116.87 180.97 116.34 180.17 116.49 L 179.18 116.67 C 178.38 116.82 177.85 117.59 178.00 118.39 C 178.15 119.19 178.91 119.72 179.71 119.57 Z M 180.69 119.38 L 181.66 119.21 C 182.46 119.07 182.99 118.32 182.86 117.52 C 182.72 116.72 181.96 116.19 181.16 116.32 L 180.19 116.49 C 179.39 116.63 178.86 117.39 178.99 118.18 C 179.13 118.98 179.89 119.52 180.69 119.38 Z M 181.65 119.20 L 182.61 119.05 C 183.40 118.92 183.94 118.17 183.81 117.38 C 183.68 116.58 182.94 116.04 182.14 116.17 L 181.18 116.33 C 180.39 116.46 179.85 117.21 179.98 118.00 C 180.11 118.79 180.85 119.33 181.65 119.20 Z M 182.60 119.04 L 183.49 118.90 C 184.28 118.77 184.82 118.03 184.69 117.24 C 184.57 116.45 183.83 115.92 183.04 116.04 L 182.15 116.18 C 181.36 116.31 180.82 117.05 180.95 117.84 C 181.07 118.63 181.81 119.16 182.60 119.04 Z"
      fill="black"
      fill-rule="nonzero" /><path d="M 141.07 142.98 L 141.98 142.56 C 142.78 142.20 143.13 141.25 142.76 140.46 C 142.40 139.67 141.45 139.32 140.66 139.68 L 139.74 140.11 C 138.95 140.47 138.60 141.41 138.96 142.21 C 139.33 143.00 140.27 143.35 141.07 142.98 Z M 141.98 142.58 L 142.90 142.16 C 143.70 141.80 144.06 140.85 143.69 140.05 C 143.33 139.24 142.38 138.89 141.58 139.25 L 140.66 139.67 C 139.86 140.03 139.50 140.98 139.87 141.78 C 140.23 142.59 141.18 142.94 141.98 142.58 Z M 142.89 142.18 L 143.80 141.78 C 144.61 141.42 144.98 140.47 144.62 139.66 C 144.27 138.85 143.32 138.48 142.50 138.83 L 141.59 139.23 C 140.78 139.59 140.41 140.54 140.76 141.35 C 141.12 142.17 142.07 142.54 142.89 142.18 Z M 143.77 141.80 L 144.68 141.42 C 145.51 141.07 145.90 140.13 145.55 139.30 C 145.21 138.48 144.26 138.09 143.44 138.44 L 142.53 138.82 C 141.70 139.16 141.31 140.11 141.66 140.93 C 142.00 141.75 142.95 142.14 143.77 141.80 Z M 144.64 141.41 L 145.57 141.05 C 146.39 140.73 146.80 139.80 146.47 138.98 C 146.15 138.16 145.23 137.76 144.41 138.08 L 143.48 138.44 C 142.66 138.76 142.26 139.69 142.58 140.51 C 142.90 141.33 143.82 141.73 144.64 141.41 Z M 145.53 141.02 L 146.46 140.68 C 147.26 140.38 147.67 139.49 147.38 138.68 C 147.08 137.88 146.19 137.47 145.38 137.76 L 144.45 138.11 C 143.65 138.40 143.24 139.30 143.53 140.10 C 143.83 140.91 144.72 141.32 145.53 141.02 Z M 146.42 140.65 L 147.37 140.31 C 148.16 140.04 148.57 139.17 148.29 138.39 C 148.02 137.60 147.15 137.18 146.37 137.46 L 145.42 137.79 C 144.63 138.07 144.22 138.93 144.49 139.72 C 144.77 140.51 145.63 140.92 146.42 140.65 Z M 147.34 140.29 L 148.28 139.97 C 149.06 139.71 149.47 138.87 149.21 138.09 C 148.95 137.32 148.11 136.90 147.33 137.17 L 146.39 137.49 C 145.62 137.75 145.20 138.59 145.47 139.36 C 145.73 140.14 146.57 140.55 147.34 140.29 Z M 148.27 139.96 L 149.21 139.64 C 149.98 139.39 150.39 138.56 150.14 137.79 C 149.88 137.03 149.06 136.61 148.29 136.87 L 147.35 137.18 C 146.58 137.44 146.16 138.26 146.42 139.03 C 146.67 139.80 147.50 140.21 148.27 139.96 Z M 149.21 139.63 L 150.16 139.32 C 150.93 139.06 151.34 138.24 151.08 137.48 C 150.83 136.72 150.01 136.31 149.25 136.56 L 148.29 136.88 C 147.53 137.13 147.12 137.95 147.37 138.71 C 147.63 139.47 148.45 139.89 149.21 139.63 Z M 150.17 139.30 L 151.13 138.98 C 151.88 138.72 152.28 137.90 152.03 137.15 C 151.77 136.40 150.96 135.99 150.20 136.25 L 149.24 136.57 C 148.49 136.83 148.09 137.65 148.34 138.40 C 148.60 139.15 149.41 139.56 150.17 139.30 Z M 151.14 138.97 L 152.09 138.63 C 152.83 138.37 153.23 137.56 152.97 136.81 C 152.71 136.06 151.89 135.67 151.14 135.93 L 150.19 136.26 C 149.44 136.52 149.05 137.34 149.31 138.09 C 149.57 138.83 150.39 139.23 151.14 138.97 Z M 152.10 138.63 L 153.04 138.29 C 153.78 138.02 154.17 137.20 153.90 136.46 C 153.63 135.72 152.81 135.33 152.07 135.60 L 151.13 135.93 C 150.39 136.20 150.00 137.02 150.27 137.77 C 150.53 138.51 151.35 138.90 152.10 138.63 Z M 153.05 138.28 L 153.98 137.94 C 154.72 137.67 155.11 136.85 154.83 136.11 C 154.56 135.37 153.74 134.99 153.00 135.26 L 152.06 135.60 C 151.32 135.87 150.94 136.69 151.21 137.43 C 151.49 138.17 152.31 138.56 153.05 138.28 Z M 153.99 137.94 L 154.92 137.59 C 155.66 137.32 156.04 136.50 155.76 135.76 C 155.49 135.02 154.67 134.64 153.93 134.92 L 153.00 135.26 C 152.26 135.53 151.88 136.36 152.15 137.09 C 152.43 137.83 153.25 138.21 153.99 137.94 Z"
      fill="black"
      fill-rule="nonzero" /><path d="M 140.33 144.78 L 139.36 144.91 C 138.52 145.02 137.92 145.80 138.04 146.64 C 138.15 147.49 138.93 148.08 139.77 147.97 L 140.74 147.84 C 141.59 147.73 142.18 146.95 142.07 146.10 C 141.95 145.26 141.18 144.66 140.33 144.78 Z M 139.28 144.91 L 138.31 145.09 C 137.47 145.25 136.91 146.06 137.07 146.91 C 137.22 147.75 138.04 148.31 138.89 148.15 L 139.86 147.97 C 140.70 147.81 141.26 147.00 141.10 146.15 C 140.94 145.30 140.13 144.75 139.28 144.91 Z M 138.16 145.11 L 137.18 145.40 C 136.35 145.64 135.87 146.51 136.11 147.35 C 136.35 148.18 137.23 148.66 138.06 148.42 L 139.04 148.13 C 139.87 147.89 140.35 147.01 140.11 146.18 C 139.86 145.34 138.99 144.87 138.16 145.11 Z M 136.96 145.46 L 135.88 145.95 C 135.09 146.32 134.73 147.26 135.10 148.05 C 135.46 148.85 136.40 149.20 137.19 148.84 L 138.28 148.35 C 139.07 147.99 139.43 147.05 139.06 146.25 C 138.70 145.45 137.76 145.10 136.96 145.46 Z M 135.62 146.09 L 134.72 146.73 C 134.00 147.24 133.83 148.23 134.34 148.95 C 134.85 149.67 135.84 149.84 136.56 149.33 L 137.46 148.70 C 138.18 148.19 138.35 147.20 137.84 146.48 C 137.33 145.76 136.34 145.58 135.62 146.09 Z M 134.22 147.28 L 133.90 147.89 C 133.48 148.68 133.78 149.65 134.57 150.07 C 135.35 150.48 136.32 150.18 136.74 149.40 L 137.06 148.78 C 137.48 148.00 137.18 147.02 136.39 146.61 C 135.61 146.19 134.64 146.49 134.22 147.28 Z M 134.12 149.73 L 134.47 150.12 C 135.07 150.78 136.09 150.84 136.76 150.24 C 137.42 149.64 137.47 148.62 136.87 147.96 L 136.51 147.56 C 135.92 146.90 134.89 146.85 134.23 147.45 C 133.57 148.05 133.52 149.07 134.12 149.73 Z M 135.15 150.57 L 135.98 150.85 C 136.83 151.14 137.74 150.69 138.03 149.84 C 138.32 148.99 137.87 148.08 137.02 147.79 L 136.19 147.51 C 135.35 147.22 134.43 147.67 134.14 148.52 C 133.85 149.37 134.31 150.28 135.15 150.57 Z M 136.23 150.92 L 137.41 151.12 C 138.29 151.26 139.13 150.67 139.27 149.78 C 139.42 148.90 138.82 148.06 137.94 147.92 L 136.77 147.72 C 135.88 147.57 135.05 148.17 134.90 149.05 C 134.75 149.94 135.35 150.77 136.23 150.92 Z M 137.53 151.13 L 138.80 151.25 C 139.69 151.33 140.48 150.67 140.56 149.78 C 140.64 148.89 139.99 148.10 139.09 148.02 L 137.82 147.90 C 136.93 147.82 136.14 148.47 136.06 149.37 C 135.98 150.26 136.63 151.05 137.53 151.13 Z M 138.86 151.25 L 139.83 151.31 C 140.73 151.35 141.49 150.67 141.54 149.77 C 141.59 148.88 140.90 148.11 140.01 148.06 L 139.03 148.01 C 138.14 147.96 137.37 148.65 137.32 149.55 C 137.28 150.44 137.96 151.21 138.86 151.25 Z M 139.88 151.30 L 140.89 151.33 C 141.78 151.35 142.52 150.65 142.55 149.75 C 142.57 148.86 141.86 148.12 140.97 148.09 L 139.96 148.07 C 139.07 148.04 138.32 148.75 138.30 149.64 C 138.28 150.54 138.98 151.28 139.88 151.30 Z M 140.93 151.33 L 141.95 151.33 C 142.84 151.33 143.57 150.61 143.57 149.71 C 143.57 148.82 142.84 148.10 141.95 148.09 L 140.93 148.09 C 140.04 148.09 139.31 148.82 139.31 149.71 C 139.31 150.60 140.03 151.33 140.93 151.33 Z M 141.99 151.33 L 143.01 151.30 C 143.90 151.28 144.60 150.54 144.58 149.65 C 144.56 148.76 143.82 148.05 142.93 148.07 L 141.91 148.10 C 141.02 148.12 140.31 148.86 140.34 149.75 C 140.36 150.64 141.10 151.35 141.99 151.33 Z M 143.05 151.30 L 144.04 151.25 C 144.93 151.20 145.62 150.44 145.57 149.55 C 145.53 148.67 144.77 147.98 143.88 148.03 L 142.89 148.08 C 142.00 148.12 141.31 148.88 141.36 149.77 C 141.40 150.66 142.16 151.34 143.05 151.30 Z M 144.09 151.24 L 145.13 151.15 C 146.01 151.08 146.67 150.31 146.60 149.42 C 146.53 148.54 145.75 147.88 144.87 147.95 L 143.83 148.04 C 142.95 148.11 142.29 148.88 142.36 149.77 C 142.43 150.65 143.21 151.31 144.09 151.24 Z M 145.18 151.14 L 146.20 151.02 C 147.08 150.92 147.71 150.13 147.61 149.25 C 147.51 148.38 146.72 147.75 145.84 147.85 L 144.82 147.97 C 143.94 148.07 143.31 148.86 143.41 149.73 C 143.51 150.61 144.31 151.24 145.18 151.14 Z M 146.26 151.00 L 147.24 150.86 C 148.11 150.73 148.70 149.92 148.58 149.05 C 148.45 148.19 147.64 147.59 146.77 147.72 L 145.79 147.87 C 144.92 147.99 144.32 148.80 144.45 149.67 C 144.58 150.53 145.39 151.13 146.26 151.00 Z M 147.29 150.84 L 148.24 150.67 C 149.10 150.51 149.67 149.69 149.51 148.83 C 149.36 147.98 148.54 147.41 147.68 147.56 L 146.73 147.74 C 145.87 147.89 145.30 148.71 145.46 149.57 C 145.61 150.42 146.43 150.99 147.29 150.84 Z M 148.29 150.65 L 149.23 150.45 C 150.07 150.27 150.61 149.44 150.44 148.60 C 150.26 147.75 149.43 147.21 148.58 147.39 L 147.64 147.58 C 146.80 147.76 146.26 148.59 146.43 149.44 C 146.61 150.28 147.44 150.82 148.29 150.65 Z M 149.26 150.43 L 150.17 150.22 C 151.01 150.02 151.53 149.19 151.33 148.35 C 151.14 147.51 150.30 147.00 149.47 147.19 L 148.55 147.40 C 147.72 147.60 147.20 148.44 147.39 149.27 C 147.59 150.11 148.42 150.63 149.26 150.43 Z M 150.20 150.20 L 151.12 149.97 C 151.94 149.76 152.44 148.92 152.23 148.09 C 152.02 147.27 151.18 146.77 150.36 146.98 L 149.44 147.21 C 148.61 147.42 148.11 148.26 148.32 149.08 C 148.53 149.91 149.37 150.41 150.20 150.20 Z M 151.14 149.95 L 152.08 149.69 C 152.89 149.47 153.37 148.63 153.15 147.82 C 152.93 147.00 152.09 146.52 151.28 146.74 L 150.33 146.99 C 149.52 147.21 149.04 148.06 149.26 148.87 C 149.48 149.69 150.32 150.17 151.14 149.95 Z M 152.09 149.68 L 153.07 149.40 C 153.88 149.17 154.34 148.33 154.12 147.52 C 153.89 146.72 153.05 146.25 152.24 146.48 L 151.26 146.75 C 150.45 146.98 149.98 147.82 150.21 148.63 C 150.44 149.44 151.28 149.91 152.09 149.68 Z M 153.08 149.39 L 154.11 149.08 C 154.91 148.85 155.37 148.01 155.13 147.21 C 154.90 146.41 154.06 145.95 153.26 146.19 L 152.23 146.49 C 151.43 146.72 150.97 147.56 151.21 148.36 C 151.44 149.16 152.28 149.62 153.08 149.39 Z M 154.11 149.07 L 155.10 148.78 C 155.89 148.54 156.34 147.71 156.10 146.92 C 155.87 146.12 155.03 145.67 154.24 145.91 L 153.26 146.20 C 152.46 146.44 152.01 147.27 152.25 148.06 C 152.48 148.86 153.32 149.31 154.11 149.07 Z M 155.10 148.77 L 156.06 148.48 C 156.85 148.24 157.30 147.41 157.06 146.62 C 156.82 145.84 155.99 145.39 155.20 145.63 L 154.24 145.92 C 153.45 146.15 153.01 146.98 153.24 147.77 C 153.48 148.56 154.31 149.01 155.10 148.77 Z M 156.06 148.47 L 157.05 148.17 C 157.83 147.93 158.27 147.11 158.03 146.32 C 157.80 145.54 156.97 145.10 156.19 145.34 L 155.20 145.64 C 154.42 145.87 153.98 146.70 154.22 147.48 C 154.45 148.27 155.28 148.71 156.06 148.47 Z M 157.05 148.16 L 158.03 147.86 C 158.81 147.62 159.25 146.80 159.01 146.02 C 158.77 145.25 157.95 144.81 157.17 145.05 L 156.19 145.35 C 155.41 145.58 154.97 146.41 155.21 147.19 C 155.45 147.96 156.27 148.40 157.05 148.16 Z M 158.03 147.85 L 159.00 147.56 C 159.77 147.32 160.20 146.50 159.96 145.73 C 159.73 144.95 158.91 144.52 158.13 144.76 L 157.17 145.05 C 156.40 145.29 155.96 146.11 156.20 146.88 C 156.44 147.66 157.26 148.09 158.03 147.85 Z M 159.00 147.55 L 159.92 147.26 C 160.69 147.02 161.12 146.21 160.88 145.44 C 160.64 144.67 159.83 144.24 159.06 144.48 L 158.13 144.77 C 157.37 145.00 156.94 145.82 157.17 146.59 C 157.41 147.36 158.23 147.79 159.00 147.55 Z M 159.92 147.25 L 160.93 146.94 C 161.70 146.70 162.12 145.88 161.88 145.12 C 161.64 144.36 160.83 143.93 160.07 144.17 L 159.06 144.49 C 158.30 144.73 157.87 145.54 158.11 146.30 C 158.35 147.07 159.16 147.49 159.92 147.25 Z M 160.94 146.93 L 161.95 146.61 C 162.71 146.37 163.14 145.56 162.89 144.80 C 162.65 144.04 161.84 143.62 161.08 143.86 L 160.07 144.18 C 159.31 144.42 158.88 145.23 159.12 145.99 C 159.37 146.75 160.18 147.17 160.94 146.93 Z M 161.96 146.60 L 162.90 146.30 C 163.66 146.06 164.08 145.25 163.84 144.49 C 163.60 143.74 162.79 143.32 162.03 143.56 L 161.08 143.86 C 160.33 144.10 159.91 144.91 160.15 145.67 C 160.39 146.42 161.20 146.84 161.96 146.60 Z M 162.90 146.29 L 163.80 146.00 C 164.56 145.76 164.97 144.96 164.73 144.20 C 164.49 143.45 163.68 143.03 162.93 143.28 L 162.03 143.56 C 161.27 143.81 160.86 144.61 161.10 145.37 C 161.34 146.12 162.15 146.54 162.90 146.29 Z M 163.80 146.00 L 164.68 145.72 C 165.43 145.48 165.84 144.67 165.60 143.92 C 165.36 143.17 164.55 142.76 163.80 143.00 L 162.93 143.28 C 162.18 143.52 161.76 144.33 162.01 145.08 C 162.25 145.83 163.05 146.24 163.80 146.00 Z M 164.68 145.72 L 164.79 145.68 C 165.53 145.44 165.95 144.64 165.70 143.89 C 165.46 143.14 164.66 142.73 163.91 142.97 L 163.80 143.00 C 163.05 143.24 162.64 144.05 162.88 144.80 C 163.13 145.55 163.93 145.96 164.68 145.72 Z"
      fill="black"
      fill-rule="nonzero" /><path d="M 135.35 165.25 L 135.03 166.17 C 134.75 166.99 135.19 167.88 136.01 168.16 C 136.82 168.44 137.71 168.01 137.99 167.19 L 138.31 166.26 C 138.59 165.44 138.16 164.56 137.34 164.28 C 136.52 164.00 135.63 164.43 135.35 165.25 Z M 134.98 166.31 L 134.75 167.26 C 134.55 168.11 135.07 168.96 135.92 169.17 C 136.76 169.37 137.62 168.85 137.82 168.00 L 138.05 167.05 C 138.25 166.20 137.73 165.35 136.88 165.15 C 136.04 164.94 135.18 165.46 134.98 166.31 Z M 134.69 167.55 L 134.64 168.54 C 134.60 169.42 135.27 170.17 136.15 170.22 C 137.03 170.26 137.78 169.58 137.83 168.71 L 137.88 167.71 C 137.92 166.83 137.25 166.08 136.37 166.04 C 135.49 165.99 134.74 166.67 134.69 167.55 Z M 134.66 168.92 L 134.84 169.89 C 135.01 170.76 135.85 171.33 136.72 171.17 C 137.59 171.00 138.16 170.16 137.99 169.29 L 137.81 168.33 C 137.65 167.46 136.81 166.88 135.94 167.05 C 135.07 167.21 134.50 168.05 134.66 168.92 Z M 134.94 170.18 L 135.28 171.05 C 135.61 171.87 136.53 172.28 137.35 171.95 C 138.17 171.63 138.57 170.70 138.25 169.89 L 137.90 169.01 C 137.58 168.19 136.65 167.79 135.83 168.11 C 135.02 168.43 134.61 169.36 134.94 170.18 Z M 135.37 171.20 L 135.85 172.10 C 136.25 172.87 137.20 173.16 137.97 172.76 C 138.74 172.35 139.04 171.40 138.63 170.63 L 138.16 169.74 C 137.75 168.97 136.80 168.67 136.03 169.08 C 135.26 169.48 134.97 170.44 135.37 171.20 Z M 135.92 172.18 L 136.47 173.07 C 136.92 173.80 137.87 174.03 138.60 173.58 C 139.33 173.13 139.56 172.17 139.11 171.44 L 138.56 170.55 C 138.11 169.82 137.15 169.59 136.42 170.04 C 135.69 170.49 135.46 171.45 135.92 172.18 Z M 136.51 173.11 L 137.09 173.97 C 137.56 174.67 138.51 174.86 139.22 174.39 C 139.92 173.92 140.11 172.97 139.64 172.26 L 139.06 171.40 C 138.59 170.70 137.64 170.51 136.93 170.98 C 136.23 171.45 136.04 172.41 136.51 173.11 Z M 137.11 173.97 L 137.72 174.86 C 138.20 175.54 139.14 175.72 139.83 175.24 C 140.52 174.77 140.69 173.83 140.22 173.14 L 139.61 172.26 C 139.14 171.57 138.19 171.39 137.50 171.87 C 136.81 172.34 136.64 173.29 137.11 173.97 Z M 137.74 174.85 L 138.33 175.69 C 138.80 176.37 139.74 176.53 140.41 176.06 C 141.09 175.58 141.25 174.65 140.78 173.97 L 140.19 173.14 C 139.72 172.46 138.79 172.30 138.11 172.77 C 137.44 173.25 137.27 174.18 137.74 174.85 Z M 138.35 175.69 L 138.92 176.48 C 139.40 177.15 140.32 177.30 140.98 176.83 C 141.64 176.35 141.79 175.43 141.32 174.77 L 140.75 173.97 C 140.28 173.31 139.36 173.16 138.70 173.63 C 138.03 174.11 137.88 175.03 138.35 175.69 Z M 138.95 176.48 L 139.51 177.25 C 139.98 177.90 140.89 178.04 141.54 177.57 C 142.19 177.09 142.33 176.18 141.86 175.53 L 141.30 174.77 C 140.82 174.12 139.91 173.98 139.26 174.45 C 138.61 174.93 138.47 175.84 138.95 176.48 Z M 139.53 177.26 L 140.12 178.05 C 140.60 178.68 141.50 178.81 142.14 178.34 C 142.77 177.86 142.90 176.96 142.43 176.32 L 141.84 175.53 C 141.36 174.89 140.46 174.76 139.82 175.24 C 139.18 175.72 139.05 176.62 139.53 177.26 Z M 140.13 178.05 L 140.74 178.85 C 141.22 179.48 142.12 179.60 142.75 179.12 C 143.38 178.64 143.50 177.74 143.02 177.11 L 142.41 176.31 C 141.93 175.68 141.03 175.56 140.40 176.04 C 139.77 176.52 139.65 177.43 140.13 178.05 Z M 140.75 178.85 L 141.36 179.64 C 141.85 180.27 142.75 180.38 143.37 179.90 C 144.00 179.41 144.11 178.51 143.63 177.89 L 143.01 177.10 C 142.53 176.48 141.63 176.36 141.00 176.85 C 140.38 177.33 140.27 178.23 140.75 178.85 Z M 141.37 179.65 L 141.98 180.43 C 142.47 181.05 143.37 181.16 143.99 180.68 C 144.61 180.19 144.72 179.30 144.23 178.68 L 143.62 177.89 C 143.13 177.27 142.24 177.16 141.62 177.64 C 140.99 178.13 140.88 179.02 141.37 179.65 Z M 141.99 180.43 L 142.06 180.52 C 142.54 181.14 143.44 181.25 144.06 180.77 C 144.68 180.28 144.79 179.39 144.30 178.77 L 144.23 178.68 C 143.75 178.06 142.85 177.95 142.23 178.43 C 141.61 178.92 141.50 179.81 141.99 180.43 Z"
      fill="black"
      fill-rule="nonzero" /><path d="M 138.86 168.19 L 138.40 167.17 C 138.06 166.41 137.18 166.08 136.42 166.42 C 135.67 166.75 135.34 167.64 135.67 168.39 L 136.13 169.41 C 136.47 170.16 137.35 170.50 138.10 170.16 C 138.86 169.82 139.19 168.94 138.86 168.19 Z M 138.50 167.41 L 138.26 166.46 C 138.05 165.65 137.23 165.16 136.42 165.36 C 135.62 165.57 135.13 166.39 135.33 167.20 L 135.57 168.15 C 135.78 168.96 136.60 169.45 137.41 169.24 C 138.21 169.04 138.70 168.22 138.50 167.41 Z M 138.28 167.17 L 138.47 166.35 C 138.66 165.53 138.14 164.71 137.32 164.53 C 136.50 164.34 135.68 164.85 135.49 165.67 L 135.31 166.48 C 135.12 167.31 135.63 168.12 136.45 168.31 C 137.27 168.50 138.09 167.99 138.28 167.17 Z M 138.02 167.15 L 138.62 166.60 C 139.24 166.02 139.29 165.05 138.71 164.42 C 138.13 163.80 137.16 163.76 136.54 164.33 L 135.94 164.88 C 135.31 165.46 135.27 166.43 135.85 167.05 C 136.42 167.68 137.40 167.72 138.02 167.15 Z M 138.24 166.87 L 139.14 166.44 C 139.91 166.08 140.24 165.16 139.88 164.38 C 139.52 163.61 138.59 163.27 137.82 163.64 L 136.92 164.06 C 136.14 164.43 135.81 165.35 136.18 166.13 C 136.54 166.90 137.46 167.23 138.24 166.87 Z M 138.92 166.54 L 139.99 166.22 C 140.82 165.98 141.29 165.11 141.04 164.28 C 140.80 163.46 139.93 162.98 139.11 163.23 L 138.04 163.55 C 137.21 163.79 136.74 164.66 136.98 165.48 C 137.23 166.31 138.09 166.78 138.92 166.54 Z M 139.86 166.26 L 140.87 166.05 C 141.72 165.88 142.26 165.05 142.09 164.20 C 141.91 163.35 141.08 162.81 140.24 162.98 L 139.23 163.19 C 138.38 163.36 137.84 164.19 138.01 165.04 C 138.19 165.89 139.02 166.43 139.86 166.26 Z M 140.78 166.07 L 141.69 165.94 C 142.55 165.82 143.14 165.02 143.02 164.16 C 142.90 163.30 142.10 162.71 141.24 162.83 L 140.33 162.96 C 139.47 163.09 138.87 163.88 139.00 164.74 C 139.12 165.60 139.92 166.20 140.78 166.07 Z M 141.61 165.95 L 142.57 165.86 C 143.43 165.78 144.07 165.01 143.99 164.15 C 143.90 163.29 143.14 162.65 142.28 162.73 L 141.32 162.82 C 140.46 162.90 139.82 163.67 139.90 164.53 C 139.98 165.40 140.75 166.03 141.61 165.95 Z M 142.51 165.87 L 143.55 165.81 C 144.42 165.76 145.08 165.02 145.03 164.15 C 144.98 163.29 144.24 162.62 143.38 162.67 L 142.34 162.73 C 141.47 162.78 140.81 163.52 140.85 164.38 C 140.90 165.25 141.64 165.91 142.51 165.87 Z M 143.51 165.81 L 144.60 165.78 C 145.46 165.75 146.15 165.03 146.12 164.16 C 146.09 163.29 145.37 162.61 144.50 162.64 L 143.42 162.67 C 142.55 162.70 141.87 163.42 141.89 164.29 C 141.92 165.16 142.64 165.84 143.51 165.81 Z M 144.58 165.78 L 145.51 165.76 C 146.38 165.74 147.07 165.03 147.05 164.16 C 147.04 163.29 146.32 162.60 145.46 162.62 L 144.52 162.64 C 143.65 162.65 142.96 163.37 142.98 164.24 C 142.99 165.10 143.71 165.79 144.58 165.78 Z M 145.50 165.76 L 146.49 165.75 C 147.36 165.74 148.06 165.03 148.05 164.16 C 148.04 163.29 147.33 162.60 146.46 162.61 L 145.47 162.62 C 144.60 162.63 143.90 163.34 143.91 164.21 C 143.92 165.07 144.64 165.77 145.50 165.76 Z M 146.49 165.75 L 147.51 165.74 C 148.38 165.74 149.08 165.03 149.07 164.16 C 149.07 163.29 148.36 162.60 147.49 162.60 L 146.47 162.61 C 145.60 162.61 144.90 163.32 144.91 164.19 C 144.91 165.05 145.62 165.75 146.49 165.75 Z M 147.51 165.74 L 148.55 165.74 C 149.41 165.74 150.12 165.03 150.11 164.16 C 150.11 163.30 149.41 162.60 148.54 162.60 L 147.50 162.60 C 146.63 162.60 145.93 163.31 145.93 164.18 C 145.94 165.04 146.64 165.74 147.51 165.74 Z M 148.54 165.74 L 149.57 165.74 C 150.44 165.74 151.14 165.03 151.14 164.17 C 151.14 163.30 150.44 162.60 149.57 162.60 L 148.54 162.60 C 147.68 162.60 146.97 163.30 146.97 164.17 C 146.97 165.04 147.68 165.74 148.54 165.74 Z M 149.57 165.74 L 150.61 165.74 C 151.48 165.74 152.18 165.03 152.18 164.17 C 152.18 163.30 151.48 162.60 150.61 162.60 L 149.57 162.60 C 148.71 162.60 148.00 163.30 148.00 164.17 C 148.00 165.03 148.71 165.74 149.57 165.74 Z M 150.61 165.73 L 151.66 165.74 C 152.53 165.74 153.23 165.04 153.23 164.17 C 153.24 163.31 152.54 162.61 151.67 162.60 L 150.62 162.60 C 149.75 162.60 149.05 163.30 149.05 164.16 C 149.04 165.03 149.74 165.73 150.61 165.73 Z M 151.65 165.73 L 152.67 165.74 C 153.53 165.75 154.24 165.06 154.25 164.20 C 154.26 163.34 153.56 162.63 152.70 162.62 L 151.69 162.61 C 150.82 162.60 150.12 163.29 150.11 164.15 C 150.10 165.02 150.79 165.72 151.65 165.73 Z M 152.64 165.74 L 153.62 165.77 C 154.48 165.79 155.20 165.11 155.22 164.25 C 155.25 163.39 154.57 162.67 153.71 162.65 L 152.73 162.62 C 151.86 162.60 151.15 163.28 151.12 164.14 C 151.10 165.00 151.78 165.72 152.64 165.74 Z M 153.59 165.76 L 154.54 165.81 C 155.40 165.85 156.13 165.19 156.17 164.33 C 156.22 163.48 155.56 162.75 154.70 162.70 L 153.74 162.65 C 152.88 162.61 152.15 163.27 152.11 164.13 C 152.07 164.99 152.73 165.72 153.59 165.76 Z M 154.50 165.80 L 155.44 165.88 C 156.30 165.95 157.04 165.31 157.11 164.46 C 157.18 163.60 156.54 162.85 155.69 162.78 L 154.74 162.71 C 153.89 162.64 153.14 163.28 153.07 164.13 C 153.01 164.99 153.64 165.74 154.50 165.80 Z M 155.39 165.87 L 156.33 165.98 C 157.18 166.08 157.95 165.47 158.05 164.62 C 158.15 163.77 157.54 163.00 156.69 162.90 L 155.74 162.79 C 154.89 162.69 154.12 163.30 154.03 164.15 C 153.93 165.00 154.54 165.77 155.39 165.87 Z M 156.26 165.97 L 157.21 166.12 C 158.06 166.26 158.85 165.68 158.98 164.83 C 159.12 163.99 158.54 163.20 157.70 163.06 L 156.75 162.91 C 155.90 162.78 155.11 163.35 154.98 164.20 C 154.84 165.04 155.42 165.84 156.26 165.97 Z M 157.15 166.11 L 158.11 166.30 C 158.95 166.48 159.76 165.94 159.94 165.10 C 160.11 164.26 159.57 163.44 158.73 163.27 L 157.77 163.08 C 156.93 162.91 156.11 163.45 155.94 164.28 C 155.77 165.12 156.31 165.94 157.15 166.11 Z M 158.04 166.29 L 159.03 166.54 C 159.86 166.75 160.70 166.25 160.91 165.42 C 161.12 164.59 160.62 163.75 159.79 163.54 L 158.80 163.29 C 157.97 163.08 157.13 163.58 156.92 164.41 C 156.71 165.24 157.21 166.08 158.04 166.29 Z M 158.97 166.52 L 159.99 166.83 C 160.81 167.07 161.67 166.61 161.92 165.80 C 162.16 164.98 161.70 164.12 160.88 163.87 L 159.86 163.56 C 159.04 163.31 158.18 163.78 157.93 164.59 C 157.69 165.41 158.15 166.27 158.97 166.52 Z M 159.93 166.81 L 160.91 167.15 C 161.72 167.43 162.59 167.00 162.87 166.20 C 163.15 165.39 162.73 164.51 161.93 164.23 L 160.95 163.89 C 160.14 163.61 159.26 164.04 158.98 164.84 C 158.70 165.65 159.13 166.53 159.93 166.81 Z M 160.86 167.12 L 161.84 167.51 C 162.63 167.81 163.52 167.42 163.83 166.63 C 164.14 165.84 163.75 164.95 162.96 164.64 L 161.98 164.26 C 161.19 163.95 160.29 164.34 159.99 165.13 C 159.68 165.92 160.07 166.81 160.86 167.12 Z M 161.79 167.48 L 162.75 167.90 C 163.53 168.24 164.43 167.88 164.77 167.10 C 165.11 166.32 164.75 165.42 163.97 165.08 L 163.01 164.66 C 162.23 164.33 161.33 164.68 160.99 165.46 C 160.65 166.24 161.01 167.14 161.79 167.48 Z M 162.70 167.87 L 163.62 168.31 C 164.38 168.68 165.30 168.36 165.66 167.60 C 166.03 166.84 165.71 165.92 164.95 165.55 L 164.03 165.11 C 163.26 164.74 162.35 165.06 161.98 165.83 C 161.61 166.59 161.93 167.50 162.70 167.87 Z M 163.56 168.28 L 164.41 168.74 C 165.15 169.14 166.08 168.86 166.48 168.12 C 166.88 167.38 166.60 166.45 165.86 166.05 L 165.01 165.59 C 164.27 165.19 163.34 165.46 162.94 166.21 C 162.54 166.95 162.81 167.88 163.56 168.28 Z M 164.33 168.69 L 165.08 169.16 C 165.80 169.60 166.74 169.39 167.19 168.67 C 167.63 167.95 167.41 167.01 166.70 166.57 L 165.94 166.10 C 165.22 165.65 164.28 165.87 163.84 166.59 C 163.39 167.30 163.61 168.24 164.33 168.69 Z M 164.95 169.06 L 165.84 169.76 C 166.50 170.27 167.46 170.16 167.98 169.49 C 168.49 168.83 168.38 167.87 167.71 167.36 L 166.83 166.66 C 166.16 166.15 165.21 166.27 164.69 166.93 C 164.17 167.59 164.29 168.55 164.95 169.06 Z M 165.65 169.57 L 166.30 170.30 C 166.86 170.92 167.82 170.97 168.44 170.41 C 169.07 169.85 169.12 168.89 168.56 168.27 L 167.91 167.54 C 167.35 166.92 166.39 166.87 165.76 167.43 C 165.14 167.99 165.09 168.95 165.65 169.57 Z M 166.12 170.04 L 166.58 170.84 C 167.00 171.56 167.92 171.81 168.65 171.39 C 169.37 170.98 169.62 170.05 169.20 169.33 L 168.74 168.53 C 168.32 167.80 167.40 167.56 166.67 167.97 C 165.95 168.39 165.70 169.31 166.12 170.04 Z M 166.47 170.58 L 166.78 171.48 C 167.05 172.27 167.91 172.69 168.70 172.42 C 169.49 172.14 169.90 171.28 169.63 170.50 L 169.32 169.59 C 169.04 168.80 168.18 168.39 167.40 168.66 C 166.61 168.93 166.19 169.79 166.47 170.58 Z M 166.73 171.29 L 166.92 172.21 C 167.08 173.02 167.88 173.55 168.69 173.38 C 169.51 173.22 170.03 172.42 169.87 171.61 L 169.68 170.69 C 169.51 169.88 168.72 169.35 167.90 169.52 C 167.09 169.68 166.56 170.48 166.73 171.29 Z M 166.90 172.05 L 166.99 173.04 C 167.07 173.87 167.80 174.47 168.63 174.40 C 169.45 174.32 170.06 173.59 169.98 172.76 L 169.89 171.77 C 169.81 170.94 169.08 170.33 168.25 170.41 C 167.42 170.49 166.82 171.22 166.90 172.05 Z M 166.99 172.88 L 166.97 173.91 C 166.96 174.74 167.62 175.42 168.45 175.43 C 169.28 175.44 169.96 174.78 169.97 173.95 L 169.99 172.92 C 170.00 172.09 169.33 171.41 168.50 171.40 C 167.68 171.39 167.00 172.05 166.99 172.88 Z M 166.99 173.74 L 166.85 174.76 C 166.75 175.58 167.32 176.33 168.15 176.44 C 168.97 176.55 169.72 175.97 169.82 175.15 L 169.96 174.12 C 170.06 173.30 169.49 172.55 168.67 172.44 C 167.84 172.34 167.09 172.92 166.99 173.74 Z M 166.89 174.57 L 166.64 175.53 C 166.42 176.33 166.89 177.15 167.69 177.36 C 168.49 177.58 169.31 177.10 169.52 176.30 L 169.78 175.34 C 170.00 174.54 169.52 173.72 168.73 173.51 C 167.93 173.29 167.11 173.77 166.89 174.57 Z M 166.70 175.34 L 166.32 176.24 C 166.00 177.00 166.36 177.87 167.12 178.19 C 167.89 178.51 168.76 178.16 169.08 177.39 L 169.46 176.50 C 169.78 175.73 169.42 174.86 168.66 174.54 C 167.90 174.22 167.02 174.58 166.70 175.34 Z M 166.40 176.08 L 165.92 176.93 C 165.51 177.65 165.76 178.56 166.48 178.97 C 167.19 179.38 168.11 179.13 168.52 178.41 L 169.00 177.55 C 169.41 176.84 169.16 175.92 168.44 175.52 C 167.72 175.11 166.81 175.36 166.40 176.08 Z M 166.00 176.80 L 165.41 177.63 C 164.94 178.30 165.09 179.23 165.76 179.71 C 166.44 180.19 167.37 180.03 167.85 179.36 L 168.43 178.54 C 168.91 177.87 168.75 176.93 168.08 176.45 C 167.41 175.98 166.48 176.13 166.00 176.80 Z M 165.49 177.53 L 164.82 178.32 C 164.29 178.95 164.37 179.90 165.00 180.43 C 165.63 180.96 166.57 180.88 167.10 180.25 L 167.77 179.46 C 168.30 178.83 168.22 177.88 167.59 177.35 C 166.96 176.82 166.02 176.90 165.49 177.53 Z M 164.88 178.25 L 164.22 178.94 C 163.65 179.54 163.67 180.49 164.27 181.06 C 164.87 181.63 165.81 181.61 166.38 181.01 L 167.04 180.32 C 167.61 179.72 167.59 178.78 166.99 178.21 C 166.40 177.64 165.45 177.66 164.88 178.25 Z M 164.27 178.89 L 163.56 179.56 C 162.96 180.13 162.94 181.08 163.51 181.68 C 164.08 182.28 165.03 182.30 165.63 181.73 L 166.34 181.06 C 166.94 180.49 166.96 179.54 166.39 178.94 C 165.82 178.34 164.87 178.32 164.27 178.89 Z M 163.61 179.52 L 162.86 180.18 C 162.23 180.73 162.17 181.67 162.72 182.30 C 163.26 182.92 164.21 182.98 164.84 182.44 L 165.59 181.78 C 166.21 181.23 166.27 180.28 165.73 179.66 C 165.18 179.03 164.23 178.97 163.61 179.52 Z M 162.89 180.14 L 162.10 180.79 C 161.46 181.32 161.37 182.27 161.89 182.91 C 162.42 183.55 163.37 183.65 164.01 183.12 L 164.80 182.47 C 165.44 181.94 165.54 181.00 165.01 180.35 C 164.48 179.71 163.53 179.62 162.89 180.14 Z M 162.13 180.76 L 161.31 181.40 C 160.65 181.91 160.53 182.86 161.04 183.52 C 161.55 184.17 162.50 184.29 163.16 183.78 L 163.98 183.15 C 164.64 182.64 164.76 181.69 164.25 181.03 C 163.74 180.37 162.79 180.25 162.13 180.76 Z M 161.34 181.38 L 160.48 182.01 C 159.81 182.50 159.67 183.45 160.17 184.12 C 160.66 184.79 161.61 184.94 162.28 184.44 L 163.13 183.81 C 163.81 183.31 163.95 182.36 163.45 181.69 C 162.95 181.02 162.01 180.88 161.34 181.38 Z M 160.50 181.98 L 159.64 182.60 C 158.96 183.09 158.80 184.03 159.28 184.72 C 159.77 185.40 160.72 185.56 161.40 185.07 L 162.26 184.46 C 162.95 183.97 163.11 183.02 162.62 182.34 C 162.13 181.66 161.19 181.50 160.50 181.98 Z M 159.65 182.58 L 158.80 183.17 C 158.11 183.65 157.93 184.60 158.41 185.29 C 158.89 185.98 159.84 186.16 160.53 185.68 L 161.39 185.09 C 162.08 184.61 162.25 183.66 161.77 182.97 C 161.30 182.28 160.35 182.10 159.65 182.58 Z M 158.81 183.16 L 157.99 183.71 C 157.29 184.18 157.10 185.13 157.57 185.83 C 158.04 186.53 158.99 186.72 159.69 186.25 L 160.52 185.70 C 161.22 185.22 161.41 184.27 160.94 183.57 C 160.46 182.87 159.51 182.69 158.81 183.16 Z M 158.00 183.70 L 157.22 184.21 C 156.51 184.67 156.31 185.62 156.78 186.33 C 157.24 187.04 158.20 187.24 158.90 186.77 L 159.68 186.26 C 160.39 185.80 160.59 184.85 160.12 184.14 C 159.66 183.43 158.71 183.23 158.00 183.70 Z M 157.23 184.19 L 156.41 184.72 C 155.69 185.18 155.48 186.14 155.94 186.85 C 156.40 187.57 157.35 187.78 158.07 187.32 L 158.89 186.79 C 159.61 186.33 159.82 185.37 159.36 184.66 C 158.90 183.94 157.95 183.73 157.23 184.19 Z M 156.42 184.71 L 155.57 185.24 C 154.84 185.69 154.62 186.64 155.07 187.37 C 155.52 188.09 156.48 188.31 157.20 187.86 L 158.05 187.33 C 158.78 186.88 159.00 185.93 158.55 185.20 C 158.10 184.48 157.15 184.26 156.42 184.71 Z M 155.59 185.22 L 154.77 185.71 C 154.04 186.14 153.80 187.10 154.23 187.83 C 154.67 188.57 155.62 188.81 156.36 188.37 L 157.18 187.88 C 157.91 187.45 158.15 186.49 157.72 185.76 C 157.28 185.02 156.33 184.78 155.59 185.22 Z M 154.80 185.68 L 153.95 186.17 C 153.20 186.59 152.94 187.54 153.36 188.29 C 153.79 189.04 154.73 189.30 155.48 188.87 L 156.33 188.39 C 157.08 187.97 157.34 187.02 156.92 186.27 C 156.50 185.52 155.55 185.26 154.80 185.68 Z M 153.97 186.15 L 153.13 186.60 C 152.37 187.02 152.09 187.97 152.50 188.72 C 152.92 189.48 153.87 189.76 154.63 189.35 L 155.46 188.90 C 156.22 188.48 156.50 187.53 156.09 186.77 C 155.68 186.01 154.73 185.73 153.97 186.15 Z M 153.14 186.58 L 152.29 187.03 C 151.52 187.43 151.22 188.39 151.63 189.16 C 152.04 189.93 152.99 190.23 153.77 189.82 L 154.61 189.37 C 155.39 188.97 155.68 188.01 155.28 187.24 C 154.87 186.47 153.91 186.17 153.14 186.58 Z M 152.30 187.00 L 151.40 187.46 C 150.62 187.86 150.30 188.82 150.70 189.61 C 151.11 190.40 152.07 190.71 152.86 190.31 L 153.76 189.85 C 154.54 189.45 154.86 188.48 154.45 187.70 C 154.05 186.91 153.09 186.60 152.30 187.00 Z M 151.41 187.43 L 150.48 187.89 C 149.68 188.29 149.35 189.26 149.74 190.06 C 150.14 190.86 151.11 191.19 151.91 190.79 L 152.84 190.33 C 153.64 189.94 153.97 188.97 153.58 188.17 C 153.19 187.37 152.22 187.04 151.41 187.43 Z M 150.50 187.86 L 149.55 188.31 C 148.73 188.69 148.38 189.67 148.77 190.49 C 149.15 191.30 150.13 191.65 150.94 191.27 L 151.89 190.82 C 152.71 190.44 153.06 189.46 152.67 188.65 C 152.29 187.83 151.31 187.48 150.50 187.86 Z M 149.57 188.28 L 148.63 188.70 C 147.80 189.08 147.43 190.05 147.80 190.88 C 148.17 191.71 149.15 192.09 149.98 191.72 L 150.92 191.29 C 151.75 190.92 152.13 189.95 151.75 189.12 C 151.38 188.28 150.41 187.91 149.57 188.28 Z M 148.66 188.68 L 147.73 189.08 C 146.88 189.43 146.49 190.41 146.85 191.25 C 147.20 192.10 148.18 192.49 149.02 192.13 L 149.95 191.74 C 150.80 191.38 151.19 190.41 150.84 189.56 C 150.48 188.72 149.50 188.32 148.66 188.68 Z M 147.75 189.06 L 146.83 189.43 C 145.97 189.77 145.56 190.75 145.90 191.60 C 146.25 192.46 147.22 192.87 148.07 192.53 L 149.00 192.15 C 149.86 191.81 150.27 190.84 149.92 189.98 C 149.58 189.12 148.61 188.71 147.75 189.06 Z M 146.85 189.41 L 145.93 189.76 C 145.06 190.10 144.63 191.07 144.96 191.93 C 145.29 192.80 146.27 193.23 147.13 192.90 L 148.05 192.55 C 148.92 192.21 149.35 191.24 149.02 190.37 C 148.69 189.51 147.71 189.08 146.85 189.41 Z M 145.94 189.74 L 145.03 190.08 C 144.15 190.41 143.70 191.38 144.03 192.26 C 144.35 193.13 145.32 193.58 146.20 193.26 L 147.12 192.92 C 147.99 192.59 148.44 191.62 148.12 190.75 C 147.79 189.87 146.82 189.42 145.94 189.74 Z M 145.04 190.07 L 144.11 190.40 C 143.23 190.71 142.77 191.68 143.08 192.57 C 143.39 193.45 144.37 193.92 145.25 193.60 L 146.18 193.27 C 147.06 192.96 147.53 191.99 147.21 191.10 C 146.90 190.22 145.93 189.75 145.04 190.07 Z M 144.14 190.38 L 143.21 190.69 C 142.31 190.99 141.83 191.96 142.13 192.85 C 142.42 193.74 143.39 194.23 144.28 193.93 L 145.22 193.62 C 146.12 193.32 146.60 192.36 146.30 191.46 C 146.00 190.57 145.04 190.08 144.14 190.38 Z M 143.25 190.67 L 142.29 190.96 C 141.39 191.24 140.88 192.19 141.15 193.10 C 141.43 194.00 142.38 194.52 143.29 194.24 L 144.24 193.95 C 145.15 193.68 145.66 192.72 145.38 191.81 C 145.11 190.91 144.15 190.40 143.25 190.67 Z M 142.35 190.94 L 141.37 191.20 C 140.45 191.45 139.91 192.39 140.15 193.31 C 140.40 194.23 141.34 194.77 142.26 194.52 L 143.24 194.26 C 144.15 194.02 144.70 193.07 144.45 192.16 C 144.21 191.24 143.26 190.69 142.35 190.94 Z M 141.43 191.18 L 140.29 191.43 C 139.36 191.64 138.78 192.57 138.99 193.50 C 139.20 194.43 140.12 195.01 141.05 194.80 L 142.19 194.55 C 143.12 194.34 143.71 193.41 143.50 192.48 C 143.29 191.55 142.37 190.97 141.43 191.18 Z M 140.35 191.42 L 139.04 191.66 C 138.10 191.84 137.48 192.75 137.66 193.69 C 137.84 194.63 138.75 195.25 139.69 195.07 L 140.99 194.82 C 141.93 194.64 142.55 193.74 142.38 192.80 C 142.20 191.86 141.29 191.24 140.35 191.42 Z M 139.05 191.66 L 138.01 191.85 C 137.07 192.02 136.44 192.93 136.62 193.87 C 136.79 194.82 137.70 195.44 138.64 195.27 L 139.68 195.07 C 140.62 194.90 141.25 193.99 141.07 193.05 C 140.90 192.11 139.99 191.48 139.05 191.66 Z M 137.87 191.87 L 137.35 192.02 C 136.42 192.26 135.87 193.22 136.11 194.15 C 136.36 195.08 137.32 195.63 138.25 195.38 L 138.78 195.24 C 139.71 194.99 140.26 194.04 140.01 193.11 C 139.76 192.18 138.80 191.62 137.87 191.87 Z M 137.11 195.30 L 137.37 195.41 C 138.25 195.79 139.28 195.39 139.66 194.50 C 140.04 193.62 139.63 192.59 138.75 192.21 L 138.49 192.10 C 137.60 191.72 136.58 192.12 136.20 193.01 C 135.81 193.89 136.22 194.92 137.11 195.30 Z M 137.92 195.55 L 138.93 195.63 C 139.89 195.71 140.73 194.99 140.81 194.03 C 140.88 193.07 140.17 192.23 139.21 192.15 L 138.20 192.07 C 137.24 192.00 136.40 192.71 136.32 193.67 C 136.24 194.63 136.96 195.47 137.92 195.55 Z M 138.97 195.63 L 140.36 195.71 C 141.32 195.76 142.14 195.03 142.20 194.07 C 142.25 193.11 141.52 192.28 140.56 192.23 L 139.17 192.15 C 138.21 192.10 137.39 192.83 137.33 193.79 C 137.28 194.75 138.01 195.58 138.97 195.63 Z M 140.34 195.70 L 141.39 195.77 C 142.34 195.83 143.17 195.11 143.23 194.15 C 143.30 193.20 142.57 192.37 141.62 192.31 L 140.58 192.24 C 139.62 192.17 138.79 192.90 138.73 193.85 C 138.67 194.81 139.39 195.64 140.34 195.70 Z M 141.37 195.76 L 142.36 195.83 C 143.31 195.90 144.14 195.19 144.21 194.24 C 144.28 193.30 143.57 192.47 142.62 192.40 L 141.63 192.32 C 140.69 192.25 139.86 192.96 139.79 193.91 C 139.71 194.86 140.42 195.68 141.37 195.76 Z M 142.36 195.82 L 143.35 195.90 C 144.29 195.97 145.12 195.27 145.19 194.32 C 145.26 193.38 144.56 192.56 143.62 192.48 L 142.63 192.41 C 141.68 192.33 140.86 193.04 140.79 193.98 C 140.71 194.92 141.42 195.75 142.36 195.82 Z M 143.36 195.89 L 144.36 195.96 C 145.30 196.02 146.11 195.32 146.18 194.38 C 146.25 193.45 145.54 192.63 144.61 192.57 L 143.60 192.50 C 142.67 192.43 141.85 193.13 141.79 194.07 C 141.72 195.01 142.43 195.82 143.36 195.89 Z M 144.39 195.95 L 145.30 196.00 C 146.23 196.06 147.03 195.35 147.09 194.42 C 147.14 193.49 146.43 192.69 145.50 192.63 L 144.59 192.58 C 143.66 192.52 142.86 193.23 142.80 194.16 C 142.75 195.09 143.46 195.89 144.39 195.95 Z M 145.32 195.99 L 146.21 196.03 C 147.14 196.07 147.92 195.36 147.96 194.43 C 148.01 193.51 147.29 192.73 146.37 192.68 L 145.48 192.64 C 144.55 192.60 143.77 193.32 143.73 194.24 C 143.69 195.16 144.40 195.95 145.32 195.99 Z M 146.23 196.02 L 147.18 196.05 C 148.09 196.08 148.86 195.37 148.90 194.45 C 148.93 193.53 148.21 192.76 147.29 192.73 L 146.35 192.69 C 145.43 192.66 144.66 193.38 144.63 194.30 C 144.59 195.22 145.31 195.99 146.23 196.02 Z M 147.19 196.04 L 148.22 196.07 C 149.13 196.09 149.89 195.37 149.91 194.46 C 149.93 193.54 149.21 192.79 148.30 192.76 L 147.27 192.74 C 146.36 192.72 145.60 193.44 145.58 194.35 C 145.56 195.26 146.28 196.02 147.19 196.04 Z M 148.23 196.06 L 149.35 196.07 C 150.26 196.09 151.01 195.37 151.02 194.46 C 151.04 193.55 150.31 192.81 149.41 192.79 L 148.28 192.77 C 147.38 192.76 146.63 193.48 146.62 194.39 C 146.60 195.29 147.32 196.04 148.23 196.06 Z M 149.36 196.06 L 150.42 196.07 C 151.32 196.08 152.06 195.36 152.07 194.46 C 152.08 193.56 151.36 192.82 150.46 192.82 L 149.40 192.80 C 148.50 192.79 147.76 193.52 147.75 194.42 C 147.74 195.32 148.46 196.05 149.36 196.06 Z M 150.43 196.06 L 151.38 196.07 C 152.27 196.07 153.00 195.35 153.01 194.46 C 153.01 193.56 152.29 192.84 151.40 192.83 L 150.45 192.83 C 149.56 192.82 148.83 193.54 148.82 194.44 C 148.82 195.33 149.54 196.06 150.43 196.06 Z M 151.39 196.06 L 152.38 196.06 C 153.27 196.06 153.99 195.34 153.99 194.45 C 153.99 193.56 153.27 192.84 152.38 192.84 L 151.39 192.84 C 150.50 192.84 149.78 193.56 149.78 194.45 C 149.78 195.34 150.50 196.06 151.39 196.06 Z M 152.39 196.05 L 153.42 196.04 C 154.30 196.03 155.01 195.31 155.00 194.42 C 154.99 193.54 154.27 192.83 153.39 192.84 L 152.36 192.85 C 151.48 192.86 150.77 193.58 150.78 194.46 C 150.79 195.35 151.51 196.06 152.39 196.05 Z M 153.43 196.03 L 154.47 196.01 C 155.35 195.99 156.04 195.26 156.03 194.39 C 156.01 193.51 155.28 192.81 154.41 192.83 L 153.37 192.85 C 152.49 192.87 151.79 193.59 151.81 194.47 C 151.83 195.35 152.56 196.05 153.43 196.03 Z M 154.49 196.00 L 155.52 195.96 C 156.40 195.93 157.08 195.20 157.05 194.33 C 157.02 193.46 156.29 192.78 155.42 192.81 L 154.38 192.84 C 153.51 192.87 152.83 193.60 152.86 194.47 C 152.89 195.34 153.62 196.03 154.49 196.00 Z M 155.55 195.95 L 156.57 195.90 C 157.43 195.86 158.10 195.12 158.06 194.26 C 158.02 193.39 157.28 192.73 156.41 192.77 L 155.39 192.82 C 154.53 192.86 153.86 193.60 153.91 194.46 C 153.95 195.33 154.68 195.99 155.55 195.95 Z M 156.60 195.89 L 157.64 195.82 C 158.50 195.76 159.15 195.01 159.09 194.15 C 159.03 193.30 158.28 192.65 157.42 192.71 L 156.38 192.78 C 155.52 192.84 154.88 193.59 154.94 194.44 C 155.00 195.30 155.74 195.95 156.60 195.89 Z M 157.68 195.80 L 158.82 195.69 C 159.67 195.61 160.29 194.85 160.21 194.01 C 160.13 193.16 159.37 192.54 158.53 192.62 L 157.39 192.73 C 156.54 192.81 155.92 193.56 156.00 194.41 C 156.08 195.26 156.83 195.88 157.68 195.80 Z M 158.86 195.66 L 159.93 195.53 C 160.77 195.43 161.36 194.67 161.26 193.84 C 161.16 193.00 160.40 192.41 159.57 192.51 L 158.49 192.64 C 157.66 192.74 157.06 193.50 157.16 194.34 C 157.26 195.17 158.02 195.77 158.86 195.66 Z M 159.96 195.51 L 160.97 195.36 C 161.79 195.25 162.36 194.48 162.24 193.66 C 162.13 192.84 161.36 192.27 160.54 192.39 L 159.53 192.53 C 158.71 192.65 158.14 193.41 158.26 194.24 C 158.38 195.06 159.14 195.63 159.96 195.51 Z M 160.99 195.34 L 161.93 195.19 C 162.74 195.06 163.29 194.30 163.16 193.49 C 163.03 192.68 162.26 192.13 161.46 192.26 L 160.52 192.41 C 159.71 192.54 159.16 193.31 159.29 194.11 C 159.42 194.92 160.19 195.47 160.99 195.34 Z M 161.95 195.17 L 162.81 195.01 C 163.61 194.87 164.14 194.11 164.00 193.32 C 163.86 192.52 163.10 191.99 162.31 192.13 L 161.44 192.28 C 160.64 192.42 160.11 193.18 160.25 193.98 C 160.39 194.78 161.15 195.31 161.95 195.17 Z M 162.82 195.00 L 163.75 194.82 C 164.53 194.68 165.05 193.92 164.91 193.14 C 164.76 192.35 164.01 191.83 163.22 191.98 L 162.30 192.15 C 161.51 192.29 160.99 193.05 161.14 193.84 C 161.28 194.62 162.04 195.14 162.82 195.00 Z M 163.75 194.81 L 164.83 194.61 C 165.61 194.46 166.13 193.71 165.98 192.93 C 165.83 192.15 165.08 191.64 164.30 191.78 L 163.21 191.99 C 162.43 192.14 161.92 192.89 162.07 193.67 C 162.22 194.45 162.97 194.96 163.75 194.81 Z M 164.84 194.60 L 165.80 194.41 C 166.58 194.26 167.09 193.51 166.94 192.73 C 166.79 191.96 166.03 191.45 165.26 191.60 L 164.29 191.79 C 163.51 191.94 163.01 192.69 163.16 193.47 C 163.31 194.25 164.06 194.75 164.84 194.60 Z M 165.81 194.41 L 166.70 194.23 C 167.47 194.08 167.98 193.33 167.82 192.55 C 167.67 191.78 166.92 191.27 166.14 191.43 L 165.25 191.61 C 164.48 191.76 163.97 192.51 164.13 193.29 C 164.28 194.06 165.03 194.56 165.81 194.41 Z M 166.70 194.23 L 167.14 194.14 C 167.91 193.99 168.41 193.24 168.26 192.46 C 168.11 191.69 167.35 191.19 166.58 191.34 L 166.14 191.43 C 165.37 191.59 164.87 192.34 165.02 193.11 C 165.18 193.88 165.93 194.38 166.70 194.23 Z"
      fill="black"
      fill-rule="nonzero" /></svg>