<svg xmlns="http://www.w3.org/2000/svg" width="300" height="300" viewBox="0 0 300 300">
<path d="M 131.90 125.16 L 130.82 125.18 C 129.95 125.21 129.26 125.93 129.29 126.80 C 129.31 127.67 130.03 128.35 130.90 128.33 L 131.98 128.30 C 132.84 128.28 133.53 127.56 133.51 126.69 C 133.49 125.82 132.76 125.13 131.90 125.16 Z M 130.81 125.17 L 129.75 125.20 C 128.87 125.23 128.19 125.96 128.21 126.84 C 128.24 127.72 128.97 128.40 129.85 128.38 L 130.91 128.34 C 131.78 128.31 132.47 127.58 132.44 126.71 C 132.42 125.83 131.68 125.14 130.81 125.17 Z M 129.73 125.19 L 128.71 125.24 C 127.83 125.28 127.14 126.03 127.18 126.91 C 127.22 127.79 127.97 128.48 128.85 128.44 L 129.87 128.39 C 130.76 128.35 131.44 127.60 131.40 126.72 C 131.36 125.83 130.61 125.15 129.73 125.19 Z M 128.67 125.23 L 127.71 125.29 C 126.82 125.35 126.15 126.12 126.21 127.01 C 126.27 127.90 127.04 128.57 127.93 128.51 L 128.89 128.45 C 129.78 128.39 130.45 127.62 130.39 126.73 C 130.33 125.84 129.56 125.17 128.67 125.23 Z M 127.66 125.28 L 126.78 125.37 C 125.88 125.46 125.23 126.26 125.32 127.16 C 125.42 128.05 126.22 128.70 127.11 128.61 L 127.99 128.52 C 128.88 128.43 129.53 127.63 129.44 126.74 C 129.35 125.84 128.55 125.19 127.66 125.28 Z M 126.65 125.38 L 125.27 125.63 C 124.38 125.79 123.79 126.65 123.95 127.54 C 124.12 128.43 124.97 129.02 125.86 128.85 L 127.24 128.60 C 128.13 128.44 128.72 127.59 128.55 126.70 C 128.39 125.81 127.54 125.22 126.65 125.38 Z M 124.97 125.71 L 124.13 126.04 C 123.29 126.37 122.87 127.32 123.20 128.16 C 123.53 129.01 124.48 129.43 125.33 129.10 L 126.16 128.78 C 127.01 128.45 127.43 127.49 127.10 126.65 C 126.77 125.80 125.82 125.38 124.97 125.71 Z M 123.13 127.16 L 123.04 127.52 C 122.82 128.41 123.35 129.30 124.23 129.53 C 125.12 129.75 126.01 129.22 126.24 128.34 L 126.33 127.97 C 126.55 127.09 126.02 126.19 125.14 125.97 C 124.25 125.75 123.36 126.28 123.13 127.16 Z M 123.90 129.40 L 124.63 129.77 C 125.44 130.17 126.43 129.84 126.84 129.03 C 127.25 128.22 126.92 127.23 126.10 126.82 L 125.38 126.46 C 124.56 126.05 123.57 126.38 123.16 127.19 C 122.76 128.01 123.09 129.00 123.90 129.40 Z M 124.97 129.89 L 126.26 130.20 C 127.14 130.42 128.03 129.88 128.25 129.00 C 128.46 128.11 127.92 127.22 127.04 127.01 L 125.75 126.69 C 124.87 126.48 123.98 127.02 123.77 127.90 C 123.55 128.79 124.09 129.68 124.97 129.89 Z M 126.39 130.23 L 127.31 130.38 C 128.20 130.52 129.04 129.92 129.19 129.02 C 129.34 128.12 128.73 127.28 127.83 127.13 L 126.91 126.98 C 126.02 126.84 125.17 127.45 125.03 128.34 C 124.88 129.24 125.49 130.08 126.39 130.23 Z M 127.37 130.38 L 128.32 130.50 C 129.22 130.61 130.03 129.97 130.15 129.07 C 130.26 128.17 129.62 127.35 128.72 127.24 L 127.77 127.13 C 126.87 127.02 126.05 127.66 125.94 128.56 C 125.83 129.46 126.47 130.27 127.37 130.38 Z M 128.37 130.50 L 129.38 130.60 C 130.28 130.68 131.08 130.02 131.16 129.12 C 131.25 128.22 130.58 127.42 129.68 127.33 L 128.67 127.24 C 127.77 127.16 126.97 127.82 126.88 128.72 C 126.80 129.62 127.46 130.42 128.37 130.50 Z M 129.42 130.60 L 130.50 130.67 C 131.40 130.74 132.18 130.06 132.24 129.15 C 132.31 128.25 131.63 127.47 130.72 127.41 L 129.65 127.33 C 128.74 127.27 127.96 127.95 127.90 128.85 C 127.84 129.75 128.52 130.54 129.42 130.60 Z M 130.52 130.67 L 131.48 130.73 C 132.39 130.77 133.16 130.08 133.21 129.18 C 133.25 128.28 132.56 127.51 131.66 127.46 L 130.70 127.41 C 129.80 127.36 129.03 128.05 128.98 128.95 C 128.93 129.86 129.62 130.63 130.52 130.67 Z M 131.50 130.73 L 132.39 130.76 C 133.29 130.80 134.06 130.10 134.09 129.20 C 134.13 128.30 133.43 127.53 132.53 127.50 L 131.64 127.46 C 130.74 127.42 129.98 128.12 129.94 129.02 C 129.90 129.93 130.60 130.69 131.50 130.73 Z M 132.41 130.76 L 133.35 130.79 C 134.25 130.82 135.00 130.12 135.03 129.21 C 135.06 128.31 134.35 127.56 133.45 127.53 L 132.51 127.50 C 131.61 127.47 130.86 128.17 130.83 129.08 C 130.80 129.98 131.51 130.73 132.41 130.76 Z M 133.36 130.79 L 134.36 130.82 C 135.26 130.84 136.01 130.13 136.03 129.23 C 136.05 128.32 135.34 127.58 134.44 127.55 L 133.44 127.53 C 132.54 127.51 131.79 128.22 131.77 129.12 C 131.75 130.02 132.46 130.77 133.36 130.79 Z M 134.37 130.82 L 135.44 130.84 C 136.34 130.85 137.08 130.13 137.10 129.23 C 137.12 128.33 136.40 127.59 135.50 127.57 L 134.43 127.55 C 133.53 127.54 132.78 128.26 132.77 129.16 C 132.75 130.06 133.47 130.80 134.37 130.82 Z M 135.45 130.83 L 136.60 130.85 C 137.50 130.86 138.24 130.14 138.25 129.24 C 138.26 128.34 137.54 127.60 136.64 127.59 L 135.49 127.57 C 134.59 127.56 133.85 128.28 133.84 129.18 C 133.83 130.08 134.55 130.82 135.45 130.83 Z M 136.61 130.85 L 137.60 130.86 C 138.50 130.86 139.23 130.14 139.24 129.24 C 139.25 128.34 138.53 127.61 137.63 127.60 L 136.63 127.59 C 135.73 127.58 135.00 128.31 134.99 129.20 C 134.98 130.10 135.71 130.84 136.61 130.85 Z M 137.61 130.85 L 138.59 130.86 C 139.49 130.86 140.22 130.14 140.23 129.24 C 140.23 128.34 139.51 127.61 138.61 127.60 L 137.62 127.60 C 136.72 127.60 135.99 128.32 135.99 129.22 C 135.98 130.12 136.71 130.85 137.61 130.85 Z M 138.60 130.86 L 139.62 130.86 C 140.52 130.85 141.24 130.12 141.24 129.23 C 141.24 128.33 140.51 127.60 139.61 127.60 L 138.60 127.60 C 137.70 127.61 136.97 128.34 136.97 129.23 C 136.98 130.13 137.70 130.86 138.60 130.86 Z M 139.63 130.85 L 140.66 130.84 C 141.56 130.84 142.28 130.10 142.27 129.21 C 142.26 128.31 141.53 127.59 140.63 127.60 L 139.60 127.60 C 138.70 127.61 137.98 128.35 137.99 129.24 C 138.00 130.14 138.73 130.86 139.63 130.85 Z M 140.68 130.84 L 141.71 130.82 C 142.60 130.81 143.32 130.07 143.30 129.17 C 143.29 128.28 142.55 127.56 141.65 127.58 L 140.62 127.60 C 139.72 127.61 139.01 128.35 139.02 129.25 C 139.04 130.15 139.78 130.86 140.68 130.84 Z M 141.73 130.82 L 142.74 130.79 C 143.64 130.77 144.34 130.02 144.32 129.12 C 144.29 128.23 143.55 127.53 142.65 127.55 L 141.63 127.58 C 140.74 127.61 140.03 128.35 140.06 129.25 C 140.08 130.14 140.83 130.85 141.73 130.82 Z M 142.77 130.79 L 143.76 130.75 C 144.65 130.71 145.34 129.95 145.31 129.06 C 145.27 128.17 144.51 127.47 143.62 127.51 L 142.63 127.55 C 141.73 127.59 141.04 128.35 141.08 129.24 C 141.12 130.14 141.87 130.83 142.77 130.79 Z M 143.79 130.74 L 144.78 130.68 C 145.67 130.63 146.35 129.86 146.30 128.97 C 146.24 128.08 145.47 127.40 144.58 127.45 L 143.59 127.51 C 142.70 127.57 142.02 128.34 142.07 129.23 C 142.13 130.12 142.89 130.80 143.79 130.74 Z M 144.82 130.68 L 145.88 130.59 C 146.77 130.51 147.43 129.73 147.36 128.84 C 147.28 127.95 146.50 127.29 145.61 127.37 L 144.54 127.46 C 143.66 127.54 143.00 128.32 143.07 129.21 C 143.15 130.09 143.93 130.75 144.82 130.68 Z M 145.92 130.58 L 146.94 130.47 C 147.82 130.37 148.46 129.57 148.36 128.69 C 148.26 127.80 147.46 127.17 146.58 127.27 L 145.57 127.38 C 144.68 127.48 144.05 128.27 144.15 129.16 C 144.24 130.04 145.04 130.68 145.92 130.58 Z M 146.98 130.46 L 147.95 130.32 C 148.83 130.20 149.44 129.39 149.32 128.51 C 149.20 127.63 148.39 127.02 147.51 127.14 L 146.54 127.28 C 145.66 127.40 145.04 128.21 145.17 129.09 C 145.29 129.96 146.10 130.58 146.98 130.46 Z M 147.99 130.31 L 148.94 130.15 C 149.81 130.01 150.40 129.19 150.26 128.31 C 150.12 127.44 149.29 126.85 148.42 126.99 L 147.47 127.15 C 146.60 127.29 146.01 128.12 146.15 128.99 C 146.29 129.86 147.12 130.45 147.99 130.31 Z M 148.97 130.14 L 149.92 129.97 C 150.79 129.80 151.36 128.97 151.20 128.10 C 151.03 127.24 150.20 126.67 149.33 126.83 L 148.39 127.01 C 147.52 127.17 146.95 128.00 147.11 128.87 C 147.27 129.73 148.11 130.31 148.97 130.14 Z M 149.95 129.96 L 150.91 129.76 C 151.77 129.58 152.32 128.74 152.14 127.88 C 151.97 127.02 151.12 126.46 150.26 126.64 L 149.30 126.84 C 148.44 127.02 147.89 127.86 148.07 128.72 C 148.24 129.58 149.09 130.13 149.95 129.96 Z M 150.93 129.75 L 151.87 129.54 C 152.73 129.35 153.27 128.50 153.08 127.65 C 152.89 126.79 152.05 126.25 151.19 126.44 L 150.24 126.65 C 149.39 126.84 148.85 127.69 149.03 128.54 C 149.22 129.40 150.07 129.94 150.93 129.75 Z M 151.89 129.53 L 152.86 129.31 C 153.71 129.11 154.24 128.26 154.04 127.41 C 153.84 126.56 152.99 126.03 152.14 126.22 L 151.17 126.45 C 150.32 126.65 149.79 127.50 149.99 128.35 C 150.19 129.20 151.04 129.73 151.89 129.53 Z M 152.87 129.30 L 153.85 129.06 C 154.70 128.85 155.22 128.00 155.01 127.15 C 154.80 126.31 153.95 125.79 153.10 125.99 L 152.13 126.23 C 151.28 126.44 150.76 127.29 150.97 128.14 C 151.17 128.99 152.03 129.50 152.87 129.30 Z M 153.87 129.05 L 154.85 128.80 C 155.69 128.59 156.20 127.73 155.99 126.89 C 155.77 126.05 154.92 125.54 154.07 125.75 L 153.09 126.00 C 152.25 126.22 151.74 127.07 151.96 127.91 C 152.17 128.76 153.03 129.26 153.87 129.05 Z M 154.86 128.79 L 155.84 128.53 C 156.68 128.31 157.18 127.45 156.96 126.62 C 156.73 125.78 155.88 125.28 155.04 125.50 L 154.06 125.76 C 153.22 125.98 152.73 126.84 152.95 127.68 C 153.17 128.51 154.03 129.01 154.86 128.79 Z M 155.86 128.52 L 156.82 128.26 C 157.66 128.03 158.15 127.17 157.92 126.34 C 157.69 125.50 156.83 125.02 156.00 125.24 L 155.03 125.51 C 154.20 125.74 153.71 126.60 153.94 127.43 C 154.17 128.26 155.02 128.75 155.86 128.52 Z M 156.84 128.25 L 157.84 127.96 C 158.67 127.72 159.14 126.86 158.91 126.04 C 158.67 125.21 157.81 124.73 156.98 124.97 L 155.98 125.25 C 155.16 125.49 154.68 126.35 154.91 127.18 C 155.15 128.00 156.01 128.48 156.84 128.25 Z M 157.86 127.94 L 158.92 127.63 C 159.74 127.38 160.20 126.52 159.96 125.70 C 159.71 124.88 158.85 124.42 158.03 124.66 L 156.97 124.98 C 156.15 125.23 155.69 126.09 155.93 126.91 C 156.18 127.73 157.04 128.19 157.86 127.94 Z M 158.94 127.61 L 159.96 127.28 C 160.77 127.02 161.21 126.16 160.96 125.35 C 160.70 124.55 159.84 124.10 159.03 124.36 L 158.01 124.68 C 157.20 124.94 156.76 125.80 157.02 126.61 C 157.27 127.42 158.14 127.86 158.94 127.61 Z M 159.99 127.26 L 160.95 126.93 C 161.74 126.65 162.16 125.79 161.89 124.99 C 161.62 124.20 160.75 123.78 159.95 124.05 L 159.00 124.38 C 158.20 124.66 157.78 125.52 158.06 126.32 C 158.33 127.11 159.20 127.53 159.99 127.26 Z M 160.99 126.90 L 161.87 126.56 C 162.65 126.27 163.04 125.39 162.75 124.61 C 162.45 123.84 161.58 123.44 160.80 123.74 L 159.91 124.08 C 159.13 124.37 158.74 125.25 159.04 126.03 C 159.34 126.81 160.21 127.20 160.99 126.90 Z M 161.93 126.53 L 162.73 126.19 C 163.49 125.86 163.84 124.98 163.51 124.22 C 163.18 123.46 162.30 123.10 161.54 123.43 L 160.74 123.78 C 159.98 124.10 159.63 124.98 159.96 125.75 C 160.28 126.51 161.17 126.86 161.93 126.53 Z M 162.81 126.13 L 163.76 125.65 C 164.49 125.27 164.77 124.38 164.40 123.65 C 164.03 122.92 163.13 122.63 162.40 123.00 L 161.46 123.49 C 160.73 123.86 160.44 124.76 160.81 125.49 C 161.19 126.22 162.08 126.51 162.81 126.13 Z M 163.86 125.57 L 164.74 125.01 C 165.43 124.58 165.64 123.67 165.20 122.98 C 164.77 122.30 163.86 122.09 163.17 122.53 L 162.29 123.08 C 161.60 123.52 161.40 124.42 161.83 125.11 C 162.27 125.80 163.18 126.00 163.86 125.57 Z M 164.83 124.93 L 165.59 124.37 C 166.23 123.88 166.36 122.97 165.88 122.33 C 165.39 121.68 164.48 121.56 163.84 122.04 L 163.08 122.61 C 162.44 123.09 162.31 124.00 162.79 124.64 C 163.28 125.29 164.19 125.42 164.83 124.93 Z M 165.63 124.31 L 166.32 123.74 C 166.94 123.23 167.02 122.33 166.51 121.71 C 166.01 121.10 165.10 121.01 164.48 121.52 L 163.79 122.09 C 163.18 122.60 163.09 123.51 163.60 124.12 C 164.11 124.74 165.02 124.82 165.63 124.31 Z"
      fill="black"
      fill-rule="nonzero" /><path d="M 142.59 110.12 L 142.19 111.04 C 141.85 111.80 142.20 112.70 142.97 113.03 C 143.74 113.36 144.63 113.01 144.96 112.25 L 145.36 111.33 C 145.70 110.56 145.35 109.67 144.58 109.33 C 143.81 109.00 142.92 109.35 142.59 110.12 Z M 142.18 111.05 L 141.79 111.97 C 141.46 112.74 141.82 113.63 142.59 113.96 C 143.36 114.29 144.25 113.93 144.58 113.16 L 144.97 112.23 C 145.30 111.46 144.94 110.57 144.17 110.25 C 143.40 109.92 142.51 110.28 142.18 111.05 Z M 141.77 112.00 L 141.40 112.93 C 141.09 113.71 141.47 114.59 142.25 114.90 C 143.02 115.21 143.91 114.84 144.22 114.06 L 144.59 113.13 C 144.91 112.35 144.53 111.47 143.75 111.15 C 142.97 110.84 142.09 111.22 141.77 112.00 Z M 141.38 112.97 L 141.04 113.90 C 140.75 114.69 141.15 115.57 141.94 115.86 C 142.73 116.15 143.61 115.74 143.90 114.95 L 144.24 114.02 C 144.53 113.23 144.12 112.35 143.34 112.06 C 142.55 111.77 141.67 112.18 141.38 112.97 Z M 141.02 113.96 L 140.70 114.93 C 140.44 115.73 140.88 116.59 141.69 116.85 C 142.49 117.11 143.35 116.67 143.61 115.87 L 143.92 114.90 C 144.18 114.09 143.74 113.23 142.94 112.98 C 142.13 112.72 141.27 113.16 141.02 113.96 Z M 140.68 114.99 L 140.40 116.00 C 140.18 116.81 140.66 117.66 141.47 117.88 C 142.29 118.11 143.13 117.63 143.35 116.81 L 143.63 115.80 C 143.86 114.99 143.38 114.14 142.56 113.92 C 141.75 113.70 140.90 114.18 140.68 114.99 Z M 140.38 116.05 L 140.15 117.05 C 139.95 117.88 140.47 118.71 141.29 118.90 C 142.12 119.09 142.95 118.58 143.14 117.75 L 143.38 116.76 C 143.57 115.93 143.06 115.10 142.23 114.91 C 141.40 114.71 140.57 115.23 140.38 116.05 Z M 140.13 117.10 L 139.94 118.06 C 139.77 118.90 140.31 119.71 141.15 119.88 C 141.99 120.05 142.80 119.50 142.97 118.66 L 143.16 117.70 C 143.33 116.86 142.78 116.05 141.95 115.88 C 141.11 115.72 140.29 116.26 140.13 117.10 Z M 139.92 118.11 L 139.77 119.03 C 139.62 119.87 140.19 120.68 141.04 120.82 C 141.89 120.96 142.69 120.39 142.83 119.54 L 142.99 118.62 C 143.13 117.77 142.56 116.97 141.71 116.83 C 140.86 116.69 140.06 117.26 139.92 118.11 Z M 139.75 119.07 L 139.61 120.12 C 139.49 120.98 140.09 121.76 140.94 121.88 C 141.80 122.00 142.58 121.40 142.70 120.55 L 142.84 119.50 C 142.96 118.64 142.36 117.86 141.51 117.74 C 140.66 117.62 139.87 118.22 139.75 119.07 Z M 139.60 120.17 L 139.49 121.15 C 139.40 122.01 140.02 122.78 140.88 122.87 C 141.74 122.96 142.51 122.34 142.60 121.49 L 142.71 120.50 C 142.80 119.64 142.18 118.87 141.32 118.78 C 140.46 118.69 139.69 119.31 139.60 120.17 Z M 139.49 121.18 L 139.40 122.14 C 139.33 123.00 139.97 123.76 140.83 123.84 C 141.69 123.91 142.45 123.27 142.53 122.41 L 142.61 121.45 C 142.69 120.59 142.05 119.83 141.19 119.76 C 140.32 119.68 139.56 120.32 139.49 121.18 Z M 139.40 122.15 L 139.33 123.10 C 139.26 123.96 139.90 124.72 140.77 124.78 C 141.63 124.85 142.39 124.21 142.46 123.34 L 142.53 122.40 C 142.60 121.53 141.95 120.78 141.09 120.71 C 140.22 120.64 139.47 121.29 139.40 122.15 Z M 139.32 123.10 L 139.25 124.06 C 139.19 124.93 139.84 125.68 140.71 125.74 C 141.57 125.81 142.33 125.16 142.39 124.29 L 142.46 123.33 C 142.52 122.47 141.87 121.71 141.01 121.65 C 140.14 121.59 139.39 122.24 139.32 123.10 Z M 139.25 124.07 L 139.18 125.08 C 139.13 125.94 139.78 126.69 140.65 126.75 C 141.52 126.81 142.27 126.15 142.33 125.28 L 142.39 124.28 C 142.45 123.41 141.79 122.66 140.92 122.61 C 140.06 122.55 139.31 123.20 139.25 124.07 Z M 139.18 125.09 L 139.12 126.15 C 139.07 127.02 139.74 127.77 140.61 127.81 C 141.48 127.86 142.22 127.20 142.27 126.33 L 142.33 125.27 C 142.38 124.40 141.71 123.66 140.84 123.61 C 139.97 123.56 139.23 124.22 139.18 125.09 Z M 139.12 126.17 L 139.07 127.15 C 139.04 128.02 139.71 128.76 140.58 128.80 C 141.45 128.84 142.19 128.16 142.23 127.29 L 142.27 126.31 C 142.31 125.44 141.64 124.70 140.77 124.67 C 139.90 124.63 139.16 125.30 139.12 126.17 Z M 139.07 127.16 L 139.04 128.16 C 139.00 129.03 139.68 129.77 140.55 129.80 C 141.42 129.83 142.16 129.15 142.19 128.28 L 142.23 127.28 C 142.26 126.41 141.58 125.68 140.71 125.65 C 139.84 125.61 139.11 126.29 139.07 127.16 Z M 139.03 128.17 L 139.00 129.18 C 138.97 130.06 139.65 130.79 140.53 130.81 C 141.40 130.84 142.13 130.16 142.16 129.29 L 142.19 128.27 C 142.22 127.40 141.54 126.67 140.67 126.64 C 139.79 126.61 139.06 127.30 139.03 128.17 Z M 139.00 129.19 L 138.97 130.20 C 138.94 131.07 139.63 131.80 140.50 131.83 C 141.37 131.85 142.10 131.17 142.13 130.30 L 142.16 129.29 C 142.18 128.41 141.50 127.69 140.63 127.66 C 139.76 127.63 139.03 128.32 139.00 129.19 Z M 138.97 130.20 L 138.94 131.21 C 138.91 132.08 139.59 132.81 140.47 132.84 C 141.34 132.87 142.07 132.18 142.09 131.31 L 142.13 130.30 C 142.15 129.43 141.47 128.70 140.60 128.67 C 139.72 128.64 138.99 129.33 138.97 130.20 Z M 138.94 131.21 L 138.90 132.21 C 138.88 133.08 139.56 133.81 140.44 133.84 C 141.31 133.87 142.04 133.18 142.06 132.31 L 142.09 131.31 C 142.12 130.44 141.44 129.71 140.56 129.68 C 139.69 129.65 138.96 130.34 138.94 131.21 Z M 138.90 132.21 L 138.88 133.21 C 138.85 134.08 139.54 134.80 140.41 134.83 C 141.28 134.85 142.01 134.17 142.04 133.29 L 142.06 132.30 C 142.09 131.43 141.40 130.70 140.53 130.68 C 139.66 130.66 138.93 131.34 138.90 132.21 Z M 138.88 133.21 L 138.85 134.21 C 138.83 135.08 139.53 135.80 140.40 135.82 C 141.27 135.84 141.99 135.15 142.01 134.28 L 142.04 133.29 C 142.06 132.41 141.37 131.69 140.49 131.67 C 139.62 131.65 138.90 132.34 138.88 133.21 Z M 138.85 134.22 L 138.84 135.21 C 138.82 136.08 139.52 136.80 140.39 136.81 C 141.27 136.83 141.98 136.13 142.00 135.26 L 142.01 134.27 C 142.03 133.40 141.33 132.68 140.46 132.66 C 139.59 132.65 138.87 133.35 138.85 134.22 Z M 138.84 135.22 L 138.83 136.21 C 138.82 137.08 139.52 137.79 140.39 137.80 C 141.27 137.81 141.98 137.11 141.99 136.24 L 142.00 135.25 C 142.01 134.37 141.31 133.66 140.43 133.65 C 139.56 133.64 138.85 134.35 138.84 135.22 Z M 138.83 136.21 L 138.82 137.22 C 138.82 138.09 139.52 138.80 140.40 138.80 C 141.27 138.81 141.98 138.10 141.99 137.23 L 141.99 136.23 C 141.99 135.36 141.29 134.64 140.42 134.64 C 139.54 134.64 138.83 135.34 138.83 136.21 Z M 138.82 137.22 L 138.82 138.23 C 138.82 139.11 139.53 139.81 140.40 139.82 C 141.27 139.82 141.98 139.11 141.98 138.24 L 141.99 137.23 C 141.99 136.35 141.28 135.64 140.41 135.64 C 139.53 135.64 138.83 136.35 138.82 137.22 Z M 138.82 138.23 L 138.82 139.25 C 138.82 140.12 139.53 140.83 140.40 140.83 C 141.28 140.83 141.98 140.12 141.98 139.25 L 141.98 138.23 C 141.98 137.36 141.28 136.65 140.40 136.65 C 139.53 136.65 138.82 137.36 138.82 138.23 Z M 138.82 139.25 L 138.82 140.25 C 138.82 141.12 139.53 141.83 140.40 141.83 C 141.28 141.83 141.98 141.12 141.98 140.25 L 141.98 139.25 C 141.98 138.37 141.28 137.67 140.40 137.67 C 139.53 137.67 138.82 138.37 138.82 139.25 Z M 138.82 140.25 L 138.82 141.25 C 138.82 142.12 139.53 142.83 140.40 142.83 C 141.28 142.83 141.98 142.12 141.98 141.25 L 141.98 140.25 C 141.98 139.37 141.28 138.67 140.40 138.67 C 139.53 138.67 138.82 139.37 138.82 140.25 Z M 138.82 141.25 L 138.82 142.25 C 138.82 143.12 139.53 143.83 140.40 143.83 C 141.28 143.83 141.98 143.12 141.98 142.25 L 141.98 141.25 C 141.98 140.37 141.28 139.67 140.40 139.67 C 139.53 139.67 138.82 140.37 138.82 141.25 Z M 138.82 142.25 L 138.82 143.25 C 138.82 144.12 139.53 144.83 140.40 144.83 C 141.28 144.83 141.98 144.12 141.98 143.25 L 141.98 142.25 C 141.98 141.37 141.28 140.67 140.40 140.67 C 139.53 140.67 138.82 141.37 138.82 142.25 Z M 138.82 143.25 L 138.82 144.25 C 138.82 145.12 139.53 145.83 140.40 145.83 C 141.28 145.83 141.98 145.12 141.98 144.25 L 141.98 143.25 C 141.98 142.37 141.28 141.67 140.40 141.67 C 139.53 141.67 138.82 142.37 138.82 143.25 Z M 138.82 144.25 L 138.82 145.25 C 138.82 146.13 139.53 146.83 140.40 146.83 C 141.28 146.83 141.98 146.13 141.98 145.25 L 141.98 144.25 C 141.98 143.38 141.28 142.67 140.40 142.67 C 139.53 142.67 138.82 143.38 138.82 144.25 Z M 138.83 145.25 L 138.83 146.25 C 138.83 147.13 139.53 147.83 140.40 147.83 C 141.27 147.83 141.98 147.13 141.98 146.25 L 141.98 145.25 C 141.98 144.38 141.27 143.68 140.40 143.68 C 139.53 143.68 138.83 144.38 138.83 145.25 Z M 138.83 146.25 L 138.83 147.25 C 138.83 148.12 139.53 148.83 140.40 148.83 C 141.27 148.83 141.98 148.12 141.98 147.25 L 141.98 146.25 C 141.98 145.38 141.27 144.68 140.40 144.68 C 139.53 144.68 138.83 145.38 138.83 146.25 Z M 138.83 147.25 L 138.83 148.24 C 138.83 149.11 139.53 149.82 140.40 149.82 C 141.27 149.82 141.98 149.11 141.98 148.24 L 141.98 147.25 C 141.98 146.38 141.27 145.67 140.40 145.67 C 139.53 145.67 138.83 146.38 138.83 147.25 Z M 138.83 148.24 L 138.83 149.23 C 138.83 150.10 139.53 150.80 140.40 150.80 C 141.27 150.80 141.98 150.10 141.98 149.23 L 141.98 148.24 C 141.98 147.37 141.27 146.67 140.40 146.67 C 139.53 146.67 138.83 147.37 138.83 148.24 Z M 138.83 149.23 L 138.83 150.22 C 138.83 151.09 139.53 151.79 140.40 151.79 C 141.27 151.79 141.98 151.09 141.98 150.22 L 141.98 149.23 C 141.98 148.36 141.27 147.66 140.40 147.66 C 139.53 147.66 138.83 148.36 138.83 149.23 Z M 138.83 150.22 L 138.83 151.23 C 138.83 152.09 139.54 152.80 140.40 152.80 C 141.27 152.80 141.97 152.09 141.97 151.23 L 141.97 150.22 C 141.97 149.35 141.27 148.65 140.40 148.65 C 139.54 148.65 138.83 149.35 138.83 150.22 Z M 138.83 151.23 L 138.83 152.25 C 138.83 153.11 139.54 153.82 140.40 153.82 C 141.27 153.82 141.97 153.11 141.97 152.25 L 141.97 151.23 C 141.97 150.36 141.27 149.66 140.40 149.66 C 139.54 149.66 138.83 150.36 138.83 151.23 Z M 138.84 152.25 L 138.84 153.26 C 138.84 154.12 139.54 154.83 140.40 154.83 C 141.27 154.83 141.97 154.12 141.97 153.26 L 141.97 152.25 C 141.97 151.38 141.27 150.68 140.40 150.68 C 139.54 150.68 138.84 151.38 138.84 152.25 Z M 138.84 153.26 L 138.84 154.28 C 138.84 155.14 139.54 155.84 140.40 155.84 C 141.27 155.84 141.97 155.14 141.97 154.28 L 141.97 153.26 C 141.97 152.40 141.27 151.70 140.40 151.70 C 139.54 151.70 138.84 152.40 138.84 153.26 Z M 138.84 154.28 L 138.84 155.29 C 138.84 156.15 139.54 156.85 140.40 156.85 C 141.27 156.85 141.96 156.15 141.96 155.29 L 141.96 154.28 C 141.96 153.42 141.27 152.72 140.40 152.72 C 139.54 152.72 138.84 153.42 138.84 154.28 Z M 138.85 155.29 L 138.85 156.26 C 138.85 157.12 139.54 157.82 140.40 157.82 C 141.26 157.82 141.96 157.12 141.96 156.26 L 141.96 155.29 C 141.96 154.42 141.26 153.73 140.40 153.73 C 139.54 153.73 138.85 154.42 138.85 155.29 Z M 138.85 156.26 L 138.85 157.30 C 138.85 158.16 139.54 158.85 140.40 158.85 C 141.26 158.85 141.96 158.16 141.96 157.30 L 141.96 156.26 C 141.96 155.40 141.26 154.71 140.40 154.71 C 139.54 154.71 138.85 155.40 138.85 156.26 Z M 138.85 157.30 L 138.85 158.33 C 138.85 159.19 139.55 159.88 140.40 159.88 C 141.26 159.88 141.95 159.19 141.95 158.33 L 141.95 157.30 C 141.95 156.44 141.26 155.75 140.40 155.75 C 139.55 155.75 138.85 156.44 138.85 157.30 Z M 138.86 158.33 L 138.86 159.31 C 138.86 160.17 139.55 160.86 140.40 160.86 C 141.26 160.86 141.95 160.17 141.95 159.31 L 141.95 158.33 C 141.95 157.48 141.26 156.78 140.40 156.78 C 139.55 156.78 138.86 157.48 138.86 158.33 Z M 138.86 159.31 L 138.86 160.26 C 138.86 161.11 139.55 161.80 140.40 161.80 C 141.26 161.80 141.95 161.11 141.95 160.26 L 141.95 159.31 C 141.95 158.46 141.26 157.77 140.40 157.77 C 139.55 157.77 138.86 158.46 138.86 159.31 Z M 138.87 160.26 L 138.87 161.18 C 138.87 162.03 139.55 162.72 140.40 162.72 C 141.25 162.72 141.94 162.03 141.94 161.18 L 141.94 160.26 C 141.94 159.41 141.25 158.72 140.40 158.72 C 139.55 158.72 138.87 159.41 138.87 160.26 Z M 138.87 161.18 L 138.87 162.12 C 138.87 162.96 139.56 163.65 140.40 163.65 C 141.25 163.65 141.94 162.96 141.94 162.12 L 141.94 161.18 C 141.94 160.33 141.25 159.65 140.40 159.65 C 139.56 159.65 138.87 160.33 138.87 161.18 Z M 138.88 162.12 L 138.88 163.12 C 138.88 163.96 139.56 164.65 140.40 164.65 C 141.25 164.65 141.93 163.96 141.93 163.12 L 141.93 162.12 C 141.93 161.27 141.25 160.59 140.40 160.59 C 139.56 160.59 138.88 161.27 138.88 162.12 Z M 138.88 163.12 L 138.88 164.24 C 138.88 165.08 139.56 165.76 140.40 165.76 C 141.24 165.76 141.92 165.08 141.92 164.24 L 141.92 163.12 C 141.92 162.28 141.24 161.60 140.40 161.60 C 139.56 161.60 138.88 162.28 138.88 163.12 Z M 138.89 164.24 L 138.89 165.20 C 138.89 166.04 139.57 166.72 140.41 166.71 C 141.25 166.71 141.92 166.03 141.92 165.19 L 141.92 164.23 C 141.92 163.39 141.24 162.72 140.40 162.72 C 139.56 162.72 138.89 163.40 138.89 164.24 Z M 138.90 165.23 L 138.91 166.23 C 138.93 167.07 139.62 167.73 140.46 167.72 C 141.29 167.70 141.95 167.01 141.94 166.18 L 141.92 165.17 C 141.90 164.33 141.21 163.67 140.38 163.69 C 139.54 163.70 138.88 164.39 138.90 165.23 Z M 138.92 166.29 L 138.98 167.31 C 139.02 168.15 139.73 168.78 140.56 168.74 C 141.39 168.69 142.03 167.98 141.98 167.15 L 141.93 166.12 C 141.89 165.29 141.18 164.66 140.35 164.70 C 139.51 164.75 138.88 165.45 138.92 166.29 Z M 138.99 167.39 L 139.10 168.41 C 139.18 169.24 139.92 169.83 140.75 169.75 C 141.57 169.66 142.17 168.92 142.08 168.09 L 141.97 167.08 C 141.89 166.25 141.15 165.65 140.32 165.74 C 139.50 165.83 138.90 166.57 138.99 167.39 Z M 139.12 168.53 L 139.30 169.50 C 139.45 170.31 140.23 170.85 141.04 170.69 C 141.85 170.54 142.39 169.76 142.24 168.95 L 142.06 167.98 C 141.91 167.17 141.13 166.63 140.32 166.78 C 139.50 166.93 138.97 167.71 139.12 168.53 Z M 139.34 169.66 L 139.65 170.66 C 139.89 171.44 140.72 171.89 141.51 171.65 C 142.29 171.41 142.74 170.58 142.50 169.79 L 142.19 168.79 C 141.95 168.00 141.12 167.56 140.34 167.80 C 139.55 168.04 139.10 168.87 139.34 169.66 Z M 139.72 170.82 L 140.12 171.74 C 140.45 172.49 141.32 172.83 142.07 172.50 C 142.82 172.18 143.16 171.30 142.83 170.55 L 142.43 169.63 C 142.10 168.88 141.23 168.54 140.48 168.87 C 139.73 169.20 139.39 170.07 139.72 170.82 Z M 140.19 171.86 L 140.67 172.72 C 141.06 173.43 141.96 173.69 142.67 173.29 C 143.38 172.90 143.63 172.01 143.24 171.30 L 142.76 170.44 C 142.37 169.73 141.48 169.47 140.77 169.86 C 140.06 170.26 139.80 171.15 140.19 171.86 Z M 140.72 172.79 L 141.24 173.61 C 141.67 174.29 142.57 174.49 143.25 174.06 C 143.93 173.63 144.14 172.73 143.71 172.05 L 143.19 171.23 C 142.76 170.55 141.86 170.34 141.17 170.77 C 140.49 171.21 140.29 172.11 140.72 172.79 Z M 141.26 173.63 L 141.58 174.10 C 142.02 174.77 142.92 174.95 143.59 174.50 C 144.25 174.06 144.44 173.16 143.99 172.49 L 143.68 172.02 C 143.24 171.36 142.34 171.18 141.67 171.62 C 141.00 172.06 140.82 172.96 141.26 173.63 Z"
      fill="black"
      fill-rule="nonzero" /><path d="M 160.09 99.86 L 159.82 100.81 C 159.59 101.63 160.07 102.48 160.89 102.70 C 161.71 102.93 162.56 102.46 162.79 101.64 L 163.05 100.68 C 163.28 99.87 162.80 99.02 161.98 98.79 C 161.17 98.56 160.32 99.04 160.09 99.86 Z M 159.82 100.82 L 159.56 101.78 C 159.34 102.60 159.83 103.45 160.65 103.67 C 161.47 103.89 162.31 103.40 162.53 102.58 L 162.79 101.62 C 163.01 100.80 162.52 99.96 161.70 99.74 C 160.88 99.52 160.04 100.00 159.82 100.82 Z M 159.55 101.81 L 159.31 102.78 C 159.11 103.61 159.61 104.44 160.44 104.64 C 161.26 104.85 162.10 104.34 162.30 103.52 L 162.54 102.55 C 162.74 101.72 162.24 100.89 161.41 100.69 C 160.59 100.48 159.76 100.99 159.55 101.81 Z M 159.30 102.83 L 159.09 103.82 C 158.91 104.65 159.44 105.46 160.27 105.64 C 161.10 105.82 161.92 105.29 162.10 104.46 L 162.31 103.47 C 162.49 102.64 161.96 101.82 161.13 101.65 C 160.30 101.47 159.48 102.00 159.30 102.83 Z M 159.08 103.87 L 158.90 104.89 C 158.76 105.72 159.32 106.52 160.15 106.67 C 160.99 106.81 161.79 106.25 161.94 105.42 L 162.11 104.40 C 162.26 103.57 161.70 102.77 160.86 102.62 C 160.02 102.48 159.22 103.04 159.08 103.87 Z M 158.89 104.94 L 158.75 105.97 C 158.63 106.81 159.23 107.59 160.07 107.71 C 160.92 107.82 161.69 107.23 161.81 106.39 L 161.95 105.36 C 162.07 104.51 161.47 103.74 160.63 103.62 C 159.78 103.51 159.00 104.10 158.89 104.94 Z M 158.74 106.01 L 158.63 107.03 C 158.54 107.88 159.15 108.64 160.00 108.74 C 160.86 108.83 161.62 108.21 161.71 107.36 L 161.82 106.34 C 161.91 105.49 161.30 104.73 160.44 104.64 C 159.59 104.55 158.83 105.16 158.74 106.01 Z M 158.62 107.06 L 158.54 108.04 C 158.46 108.90 159.10 109.65 159.95 109.73 C 160.81 109.80 161.56 109.17 161.64 108.31 L 161.72 107.33 C 161.79 106.47 161.16 105.72 160.30 105.64 C 159.45 105.57 158.69 106.21 158.62 107.06 Z M 158.53 108.07 L 158.46 109.01 C 158.40 109.87 159.05 110.62 159.91 110.68 C 160.77 110.74 161.51 110.09 161.58 109.23 L 161.64 108.29 C 161.70 107.43 161.06 106.68 160.20 106.62 C 159.34 106.56 158.59 107.21 158.53 108.07 Z M 158.46 109.03 L 158.39 110.09 C 158.34 110.95 159.00 111.69 159.86 111.74 C 160.73 111.79 161.47 111.14 161.52 110.27 L 161.58 109.22 C 161.63 108.35 160.97 107.61 160.11 107.56 C 159.25 107.51 158.51 108.17 158.46 109.03 Z M 158.39 110.11 L 158.35 111.09 C 158.31 111.96 158.98 112.69 159.84 112.73 C 160.70 112.77 161.44 112.10 161.48 111.24 L 161.52 110.25 C 161.56 109.39 160.89 108.66 160.03 108.62 C 159.16 108.58 158.43 109.25 158.39 110.11 Z M 158.34 111.12 L 158.31 112.07 C 158.29 112.94 158.97 113.66 159.83 113.69 C 160.70 113.72 161.42 113.04 161.45 112.17 L 161.48 111.21 C 161.50 110.35 160.83 109.62 159.96 109.60 C 159.09 109.57 158.37 110.25 158.34 111.12 Z M 158.31 112.09 L 158.29 113.04 C 158.28 113.91 158.97 114.62 159.83 114.64 C 160.70 114.65 161.42 113.97 161.43 113.10 L 161.45 112.15 C 161.47 111.28 160.78 110.57 159.91 110.55 C 159.04 110.54 158.33 111.23 158.31 112.09 Z M 158.29 113.06 L 158.28 114.02 C 158.28 114.89 158.97 115.60 159.84 115.61 C 160.71 115.61 161.42 114.92 161.42 114.05 L 161.43 113.08 C 161.44 112.22 160.75 111.51 159.88 111.50 C 159.01 111.49 158.30 112.19 158.29 113.06 Z M 158.28 114.03 L 158.28 115.04 C 158.28 115.91 158.98 116.61 159.85 116.61 C 160.71 116.62 161.42 115.92 161.42 115.05 L 161.43 114.04 C 161.43 113.17 160.73 112.47 159.86 112.46 C 158.99 112.46 158.29 113.16 158.28 114.03 Z M 158.28 115.04 L 158.28 116.10 C 158.28 116.96 158.98 117.67 159.85 117.67 C 160.72 117.67 161.42 116.97 161.42 116.10 L 161.42 115.04 C 161.42 114.18 160.72 113.47 159.85 113.47 C 158.98 113.47 158.28 114.17 158.28 115.04 Z M 158.28 116.10 L 158.28 117.06 C 158.28 117.93 158.98 118.63 159.85 118.63 C 160.72 118.63 161.42 117.93 161.42 117.06 L 161.42 116.10 C 161.42 115.23 160.72 114.52 159.85 114.52 C 158.98 114.52 158.28 115.23 158.28 116.10 Z M 158.28 117.06 L 158.28 118.03 C 158.28 118.90 158.98 119.61 159.85 119.61 C 160.72 119.61 161.42 118.90 161.42 118.03 L 161.42 117.06 C 161.42 116.19 160.72 115.49 159.85 115.49 C 158.98 115.49 158.28 116.19 158.28 117.06 Z M 158.28 118.03 L 158.28 119.04 C 158.28 119.91 158.98 120.62 159.85 120.62 C 160.72 120.62 161.42 119.91 161.42 119.04 L 161.42 118.03 C 161.42 117.17 160.72 116.46 159.85 116.46 C 158.98 116.46 158.28 117.17 158.28 118.03 Z M 158.28 119.04 L 158.28 120.08 C 158.28 120.95 158.98 121.65 159.85 121.65 C 160.72 121.65 161.42 120.95 161.42 120.08 L 161.42 119.04 C 161.42 118.17 160.72 117.47 159.85 117.47 C 158.98 117.47 158.28 118.17 158.28 119.04 Z M 158.27 120.08 L 158.27 121.08 C 158.27 121.95 158.98 122.65 159.85 122.65 C 160.72 122.65 161.43 121.95 161.43 121.08 L 161.43 120.08 C 161.43 119.21 160.72 118.50 159.85 118.50 C 158.98 118.50 158.27 119.21 158.27 120.08 Z M 158.27 121.08 L 158.27 122.04 C 158.27 122.91 158.98 123.62 159.85 123.62 C 160.72 123.62 161.43 122.91 161.43 122.04 L 161.43 121.08 C 161.43 120.21 160.72 119.50 159.85 119.50 C 158.98 119.50 158.27 120.21 158.27 121.08 Z M 158.27 122.04 L 158.27 123.02 C 158.27 123.90 158.98 124.60 159.85 124.60 C 160.72 124.60 161.43 123.90 161.43 123.02 L 161.43 122.04 C 161.43 121.17 160.72 120.46 159.85 120.46 C 158.98 120.46 158.27 121.17 158.27 122.04 Z M 158.27 123.02 L 158.27 124.04 C 158.27 124.91 158.98 125.61 159.85 125.61 C 160.72 125.61 161.43 124.91 161.43 124.04 L 161.43 123.02 C 161.43 122.15 160.72 121.45 159.85 121.45 C 158.98 121.45 158.27 122.15 158.27 123.02 Z M 158.27 124.04 L 158.27 125.08 C 158.27 125.95 158.98 126.66 159.85 126.66 C 160.72 126.66 161.43 125.95 161.43 125.08 L 161.43 124.04 C 161.43 123.17 160.72 122.46 159.85 122.46 C 158.98 122.46 158.27 123.17 158.27 124.04 Z M 158.27 125.08 L 158.27 126.10 C 158.27 126.97 158.98 127.67 159.85 127.67 C 160.72 127.67 161.43 126.97 161.43 126.10 L 161.43 125.08 C 161.43 124.21 160.72 123.50 159.85 123.50 C 158.98 123.50 158.27 124.21 158.27 125.08 Z M 158.27 126.10 L 158.27 127.09 C 158.27 127.96 158.98 128.67 159.85 128.67 C 160.72 128.67 161.43 127.96 161.43 127.09 L 161.43 126.10 C 161.43 125.22 160.72 124.52 159.85 124.52 C 158.98 124.52 158.27 125.22 158.27 126.10 Z M 158.27 127.09 L 158.27 128.10 C 158.27 128.97 158.98 129.68 159.85 129.68 C 160.72 129.68 161.43 128.97 161.43 128.10 L 161.43 127.09 C 161.43 126.22 160.72 125.51 159.85 125.51 C 158.98 125.51 158.27 126.22 158.27 127.09 Z M 158.27 128.10 L 158.27 129.11 C 158.27 129.98 158.98 130.69 159.85 130.69 C 160.72 130.69 161.43 129.98 161.43 129.11 L 161.43 128.10 C 161.43 127.22 160.72 126.52 159.85 126.52 C 158.98 126.52 158.27 127.22 158.27 128.10 Z M 158.27 129.11 L 158.27 130.11 C 158.27 130.99 158.98 131.70 159.85 131.70 C 160.72 131.70 161.43 130.99 161.43 130.11 L 161.43 129.11 C 161.43 128.24 160.72 127.53 159.85 127.53 C 158.98 127.53 158.27 128.24 158.27 129.11 Z M 158.27 130.11 L 158.27 131.11 C 158.27 131.99 158.98 132.69 159.85 132.69 C 160.72 132.69 161.43 131.99 161.43 131.11 L 161.43 130.11 C 161.43 129.24 160.72 128.53 159.85 128.53 C 158.98 128.53 158.27 129.24 158.27 130.11 Z M 158.27 131.11 L 158.27 132.13 C 158.27 133.01 158.98 133.72 159.85 133.72 C 160.72 133.72 161.43 133.01 161.43 132.13 L 161.43 131.11 C 161.43 130.24 160.72 129.53 159.85 129.53 C 158.98 129.53 158.27 130.24 158.27 131.11 Z M 158.27 132.13 L 158.27 133.14 C 158.27 134.01 158.98 134.72 159.85 134.72 C 160.73 134.72 161.43 134.01 161.43 133.14 L 161.43 132.13 C 161.43 131.26 160.73 130.55 159.85 130.55 C 158.98 130.55 158.27 131.26 158.27 132.13 Z M 158.27 133.14 L 158.27 134.13 C 158.27 135.00 158.97 135.71 159.85 135.71 C 160.73 135.71 161.44 135.00 161.44 134.13 L 161.44 133.14 C 161.44 132.26 160.73 131.55 159.85 131.55 C 158.97 131.55 158.27 132.26 158.27 133.14 Z M 158.26 134.13 L 158.26 135.12 C 158.26 135.99 158.97 136.70 159.85 136.70 C 160.73 136.70 161.44 135.99 161.44 135.12 L 161.44 134.13 C 161.44 133.25 160.73 132.54 159.85 132.54 C 158.97 132.54 158.26 133.25 158.26 134.13 Z M 158.26 135.12 L 158.26 136.11 C 158.26 136.98 158.97 137.69 159.85 137.69 C 160.73 137.69 161.44 136.98 161.44 136.11 L 161.44 135.12 C 161.44 134.24 160.73 133.53 159.85 133.53 C 158.97 133.53 158.26 134.24 158.26 135.12 Z M 158.26 136.11 L 158.26 137.09 C 158.26 137.97 158.97 138.68 159.85 138.68 C 160.73 138.68 161.44 137.97 161.44 137.09 L 161.44 136.11 C 161.44 135.23 160.73 134.52 159.85 134.52 C 158.97 134.52 158.26 135.23 158.26 136.11 Z M 158.26 137.09 L 158.26 138.08 C 158.26 138.96 158.97 139.67 159.85 139.67 C 160.72 139.67 161.43 138.96 161.44 138.09 L 161.44 137.09 C 161.44 136.22 160.73 135.51 159.85 135.51 C 158.98 135.50 158.26 136.21 158.26 137.09 Z M 158.26 138.08 L 158.26 139.08 C 158.26 139.96 158.97 140.67 159.84 140.67 C 160.72 140.67 161.43 139.96 161.43 139.09 L 161.44 138.09 C 161.44 137.21 160.73 136.50 159.85 136.50 C 158.98 136.49 158.26 137.20 158.26 138.08 Z M 158.26 139.08 L 158.25 140.08 C 158.25 140.96 158.96 141.67 159.83 141.68 C 160.71 141.68 161.42 140.97 161.43 140.10 L 161.43 139.09 C 161.44 138.22 160.73 137.50 159.85 137.50 C 158.98 137.49 158.26 138.20 158.26 139.08 Z M 158.25 140.08 L 158.25 141.09 C 158.24 141.96 158.94 142.68 159.82 142.69 C 160.69 142.70 161.41 141.99 161.42 141.12 L 161.43 140.10 C 161.44 139.23 160.73 138.51 159.85 138.50 C 158.98 138.50 158.26 139.20 158.25 140.08 Z M 158.25 141.08 L 158.23 142.08 C 158.22 142.96 158.92 143.68 159.80 143.69 C 160.67 143.70 161.39 143.00 161.41 142.13 L 161.42 141.12 C 161.43 140.25 160.73 139.53 159.85 139.52 C 158.98 139.50 158.26 140.21 158.25 141.08 Z M 158.23 142.08 L 158.22 143.08 C 158.20 143.95 158.90 144.68 159.77 144.69 C 160.65 144.71 161.37 144.01 161.39 143.13 L 161.40 142.13 C 161.42 141.26 160.72 140.53 159.85 140.52 C 158.97 140.50 158.25 141.20 158.23 142.08 Z M 158.22 143.07 L 158.20 144.08 C 158.18 144.95 158.87 145.67 159.75 145.69 C 160.63 145.71 161.35 145.01 161.37 144.14 L 161.39 143.14 C 161.40 142.26 160.71 141.54 159.83 141.52 C 158.96 141.50 158.23 142.20 158.22 143.07 Z M 158.20 144.07 L 158.17 145.07 C 158.15 145.95 158.85 146.67 159.72 146.69 C 160.60 146.71 161.32 146.02 161.34 145.14 L 161.37 144.14 C 161.39 143.27 160.69 142.54 159.82 142.52 C 158.94 142.50 158.22 143.20 158.20 144.07 Z M 158.17 145.07 L 158.15 146.07 C 158.13 146.95 158.82 147.67 159.70 147.69 C 160.57 147.71 161.30 147.02 161.32 146.15 L 161.34 145.15 C 161.36 144.27 160.67 143.54 159.80 143.52 C 158.92 143.50 158.20 144.20 158.17 145.07 Z M 158.15 146.07 L 158.13 147.07 C 158.10 147.95 158.80 148.67 159.67 148.70 C 160.55 148.72 161.27 148.03 161.29 147.15 L 161.32 146.15 C 161.34 145.27 160.65 144.55 159.77 144.52 C 158.90 144.50 158.17 145.19 158.15 146.07 Z M 158.13 147.07 L 158.10 148.08 C 158.08 148.96 158.77 149.69 159.65 149.71 C 160.52 149.73 161.25 149.04 161.27 148.16 L 161.29 147.15 C 161.32 146.28 160.62 145.55 159.75 145.53 C 158.87 145.51 158.15 146.20 158.13 147.07 Z M 158.10 148.09 L 158.08 149.09 C 158.06 149.97 158.75 150.69 159.62 150.71 C 160.50 150.73 161.22 150.04 161.24 149.17 L 161.27 148.16 C 161.29 147.29 160.60 146.56 159.72 146.54 C 158.85 146.52 158.12 147.21 158.10 148.09 Z M 158.08 149.10 L 158.06 150.10 C 158.04 150.97 158.73 151.69 159.61 151.71 C 160.48 151.73 161.20 151.04 161.22 150.16 L 161.24 149.16 C 161.26 148.29 160.57 147.57 159.70 147.55 C 158.82 147.53 158.10 148.22 158.08 149.10 Z M 158.06 150.10 L 158.04 151.09 C 158.03 151.96 158.72 152.69 159.59 152.70 C 160.47 152.72 161.19 152.02 161.20 151.15 L 161.22 150.16 C 161.24 149.29 160.54 148.57 159.67 148.55 C 158.80 148.53 158.08 149.23 158.06 150.10 Z M 158.04 151.10 L 158.03 152.08 C 158.01 152.95 158.71 153.67 159.58 153.68 C 160.46 153.70 161.17 153.00 161.19 152.13 L 161.20 151.15 C 161.21 150.27 160.52 149.55 159.65 149.54 C 158.77 149.53 158.06 150.23 158.04 151.10 Z M 158.03 152.09 L 158.02 153.08 C 158.01 153.95 158.71 154.67 159.58 154.68 C 160.45 154.68 161.17 153.99 161.18 153.11 L 161.19 152.12 C 161.19 151.25 160.50 150.54 159.62 150.53 C 158.75 150.52 158.04 151.22 158.03 152.09 Z M 158.02 153.09 L 158.01 154.08 C 158.01 154.95 158.71 155.66 159.58 155.66 C 160.45 155.67 161.16 154.97 161.17 154.10 L 161.17 153.11 C 161.18 152.24 160.48 151.53 159.61 151.52 C 158.74 151.51 158.03 152.22 158.02 153.09 Z M 158.01 154.08 L 158.01 155.07 C 158.01 155.94 158.71 156.65 159.58 156.65 C 160.45 156.66 161.16 155.95 161.16 155.08 L 161.17 154.09 C 161.17 153.22 160.47 152.51 159.60 152.51 C 158.73 152.51 158.02 153.21 158.01 154.08 Z M 158.01 155.08 L 158.01 156.08 C 158.01 156.95 158.71 157.65 159.58 157.65 C 160.45 157.66 161.16 156.95 161.16 156.08 L 161.16 155.08 C 161.16 154.21 160.46 153.50 159.59 153.50 C 158.72 153.50 158.01 154.21 158.01 155.08 Z M 158.01 156.08 L 158.01 157.10 C 158.01 157.97 158.72 158.67 159.59 158.67 C 160.45 158.67 161.16 157.97 161.16 157.10 L 161.16 156.08 C 161.16 155.21 160.45 154.51 159.59 154.51 C 158.72 154.51 158.01 155.21 158.01 156.08 Z M 158.01 157.10 L 158.01 158.12 C 158.01 158.98 158.72 159.69 159.59 159.69 C 160.45 159.69 161.16 158.98 161.16 158.12 L 161.16 157.10 C 161.16 156.23 160.45 155.53 159.59 155.53 C 158.72 155.53 158.01 156.23 158.01 157.10 Z M 158.02 158.12 L 158.02 159.14 C 158.02 160.00 158.72 160.71 159.59 160.71 C 160.45 160.71 161.15 160.00 161.15 159.14 L 161.15 158.12 C 161.15 157.25 160.45 156.55 159.59 156.55 C 158.72 156.55 158.02 157.25 158.02 158.12 Z M 158.02 159.14 L 158.02 160.16 C 158.02 161.02 158.72 161.72 159.59 161.72 C 160.45 161.72 161.15 161.02 161.15 160.16 L 161.15 159.14 C 161.15 158.27 160.45 157.57 159.59 157.57 C 158.72 157.57 158.02 158.27 158.02 159.14 Z M 158.02 160.16 L 158.02 161.16 C 158.02 162.03 158.72 162.73 159.59 162.73 C 160.45 162.73 161.15 162.03 161.15 161.16 L 161.15 160.16 C 161.15 159.29 160.45 158.59 159.59 158.59 C 158.72 158.59 158.02 159.29 158.02 160.16 Z M 158.02 161.16 L 158.02 162.13 C 158.02 163.00 158.72 163.70 159.59 163.70 C 160.45 163.70 161.15 163.00 161.15 162.13 L 161.15 161.16 C 161.15 160.30 160.45 159.60 159.59 159.60 C 158.72 159.60 158.02 160.30 158.02 161.16 Z M 158.02 162.13 L 158.02 163.16 C 158.02 164.02 158.72 164.72 159.59 164.72 C 160.45 164.72 161.15 164.02 161.15 163.16 L 161.15 162.13 C 161.15 161.27 160.45 160.57 159.59 160.57 C 158.72 160.57 158.02 161.27 158.02 162.13 Z M 158.03 163.16 L 158.03 164.21 C 158.03 165.07 158.72 165.77 159.59 165.77 C 160.45 165.77 161.14 165.07 161.14 164.21 L 161.14 163.16 C 161.14 162.30 160.45 161.60 159.59 161.60 C 158.72 161.60 158.03 162.30 158.03 163.16 Z M 158.03 164.21 L 158.03 165.21 C 158.03 166.07 158.73 166.76 159.59 166.76 C 160.44 166.76 161.14 166.07 161.14 165.21 L 161.14 164.21 C 161.14 163.35 160.44 162.65 159.59 162.65 C 158.73 162.65 158.03 163.35 158.03 164.21 Z M 158.03 165.21 L 158.03 166.17 C 158.03 167.02 158.73 167.72 159.59 167.72 C 160.44 167.72 161.14 167.02 161.14 166.17 L 161.14 165.21 C 161.14 164.35 160.44 163.66 159.59 163.66 C 158.73 163.66 158.03 164.35 158.03 165.21 Z M 158.04 166.17 L 158.04 167.10 C 158.04 167.96 158.73 168.65 159.59 168.65 C 160.44 168.65 161.13 167.96 161.13 167.10 L 161.13 166.17 C 161.13 165.31 160.44 164.62 159.59 164.62 C 158.73 164.62 158.04 165.31 158.04 166.17 Z M 158.04 167.10 L 158.04 168.04 C 158.04 168.89 158.73 169.58 159.59 169.58 C 160.44 169.58 161.13 168.89 161.13 168.04 L 161.13 167.10 C 161.13 166.25 160.44 165.56 159.59 165.56 C 158.73 165.56 158.04 166.25 158.04 167.10 Z M 158.04 168.04 L 158.04 168.99 C 158.04 169.84 158.73 170.53 159.59 170.53 C 160.44 170.53 161.13 169.84 161.13 168.99 L 161.13 168.04 C 161.13 167.19 160.44 166.50 159.59 166.50 C 158.73 166.50 158.04 167.19 158.04 168.04 Z M 158.05 168.99 L 158.05 169.99 C 158.05 170.84 158.74 171.53 159.59 171.53 C 160.43 171.53 161.12 170.84 161.12 169.99 L 161.12 168.99 C 161.12 168.14 160.43 167.46 159.59 167.46 C 158.74 167.46 158.05 168.14 158.05 168.99 Z M 158.05 169.99 L 158.05 171.07 C 158.05 171.91 158.74 172.60 159.59 172.60 C 160.43 172.60 161.12 171.91 161.12 171.07 L 161.12 169.99 C 161.12 169.15 160.43 168.46 159.59 168.46 C 158.74 168.46 158.05 169.15 158.05 169.99 Z M 158.06 171.07 L 158.06 172.07 C 158.06 172.92 158.74 173.60 159.59 173.60 C 160.43 173.60 161.12 172.92 161.11 172.07 L 161.11 171.06 C 161.11 170.22 160.43 169.54 159.59 169.54 C 158.74 169.54 158.06 170.22 158.06 171.07 Z M 158.06 172.08 L 158.06 173.07 C 158.07 173.92 158.75 174.60 159.59 174.60 C 160.44 174.59 161.12 173.91 161.11 173.07 L 161.11 172.07 C 161.11 171.23 160.42 170.54 159.58 170.55 C 158.74 170.55 158.06 171.23 158.06 172.08 Z M 158.07 173.09 L 158.08 174.11 C 158.09 174.95 158.77 175.63 159.61 175.62 C 160.46 175.61 161.13 174.92 161.12 174.08 L 161.11 173.05 C 161.10 172.21 160.41 171.54 159.57 171.55 C 158.73 171.56 158.06 172.24 158.07 173.09 Z M 158.08 174.13 L 158.10 175.16 C 158.12 175.99 158.81 176.66 159.65 176.64 C 160.49 176.62 161.16 175.93 161.14 175.09 L 161.12 174.06 C 161.10 173.23 160.41 172.56 159.57 172.58 C 158.73 172.60 158.06 173.29 158.08 174.13 Z M 158.11 175.18 L 158.14 176.18 C 158.18 177.02 158.88 177.67 159.71 177.64 C 160.55 177.61 161.20 176.91 161.17 176.07 L 161.13 175.07 C 161.10 174.23 160.40 173.58 159.56 173.61 C 158.73 173.64 158.08 174.34 158.11 175.18 Z M 158.15 176.22 L 158.21 177.26 C 158.26 178.09 158.98 178.73 159.81 178.67 C 160.65 178.62 161.28 177.91 161.23 177.07 L 161.17 176.04 C 161.12 175.20 160.40 174.57 159.57 174.62 C 158.73 174.67 158.10 175.39 158.15 176.22 Z M 158.23 177.32 L 158.35 178.46 C 158.43 179.28 159.17 179.88 160.00 179.80 C 160.82 179.71 161.42 178.97 161.34 178.14 L 161.22 177.01 C 161.13 176.18 160.39 175.59 159.56 175.67 C 158.74 175.76 158.14 176.50 158.23 177.32 Z M 158.37 178.57 L 158.56 179.58 C 158.71 180.39 159.49 180.93 160.30 180.77 C 161.11 180.62 161.65 179.85 161.50 179.03 L 161.31 178.03 C 161.16 177.22 160.38 176.68 159.57 176.83 C 158.76 176.98 158.22 177.76 158.37 178.57 Z M 158.61 179.76 L 158.89 180.62 C 159.14 181.41 159.97 181.84 160.75 181.59 C 161.53 181.34 161.97 180.51 161.72 179.72 L 161.44 178.86 C 161.19 178.08 160.36 177.64 159.58 177.89 C 158.80 178.14 158.36 178.98 158.61 179.76 Z M 159.01 180.88 L 159.42 181.63 C 159.81 182.35 160.70 182.61 161.42 182.22 C 162.13 181.83 162.40 180.94 162.01 180.22 L 161.60 179.47 C 161.21 178.75 160.31 178.49 159.60 178.88 C 158.88 179.27 158.62 180.17 159.01 180.88 Z M 159.65 181.94 L 160.33 182.65 C 160.89 183.24 161.82 183.26 162.40 182.70 C 162.99 182.15 163.01 181.22 162.45 180.63 L 161.77 179.92 C 161.22 179.33 160.29 179.31 159.70 179.87 C 159.12 180.42 159.09 181.35 159.65 181.94 Z M 160.58 182.85 L 161.40 183.40 C 162.07 183.85 162.97 183.67 163.42 183.01 C 163.87 182.34 163.69 181.44 163.03 180.99 L 162.21 180.44 C 161.54 179.99 160.64 180.16 160.19 180.83 C 159.74 181.50 159.91 182.40 160.58 182.85 Z M 161.54 183.47 L 162.43 183.94 C 163.14 184.31 164.01 184.04 164.38 183.33 C 164.75 182.63 164.48 181.75 163.78 181.38 L 162.88 180.91 C 162.18 180.54 161.30 180.82 160.93 181.52 C 160.56 182.23 160.83 183.10 161.54 183.47 Z M 162.46 183.95 L 162.51 183.98 C 163.22 184.33 164.09 184.04 164.45 183.33 C 164.80 182.62 164.51 181.76 163.80 181.40 L 163.75 181.37 C 163.04 181.02 162.17 181.31 161.82 182.02 C 161.46 182.73 161.75 183.59 162.46 183.95 Z"
      fill="black"
      fill-rule="nonzero" /><path d="M 145.43 144.41 L 144.08 144.65 C 143.25 144.80 142.70 145.59 142.85 146.42 C 143.00 147.24 143.79 147.80 144.61 147.65 L 145.96 147.41 C 146.79 147.26 147.34 146.47 147.19 145.65 C 147.05 144.82 146.26 144.26 145.43 144.41 Z M 144.01 144.69 L 143.43 144.82 C 142.63 145.01 142.12 145.81 142.31 146.62 C 142.50 147.43 143.30 147.93 144.11 147.74 L 144.68 147.61 C 145.49 147.42 145.99 146.62 145.81 145.81 C 145.62 145.01 144.82 144.50 144.01 144.69 Z M 143.87 147.77 L 144.39 147.74 C 145.21 147.68 145.83 146.97 145.78 146.15 C 145.72 145.32 145.01 144.70 144.18 144.76 L 143.67 144.79 C 142.84 144.85 142.22 145.56 142.28 146.39 C 142.34 147.21 143.05 147.83 143.87 147.77 Z M 144.52 147.74 L 145.67 147.55 C 146.49 147.42 147.05 146.65 146.92 145.83 C 146.79 145.01 146.02 144.45 145.20 144.58 L 144.05 144.76 C 143.23 144.89 142.67 145.66 142.80 146.49 C 142.93 147.31 143.70 147.87 144.52 147.74 Z M 145.79 147.54 L 147.01 147.25 C 147.82 147.05 148.32 146.24 148.13 145.42 C 147.93 144.61 147.12 144.10 146.30 144.30 L 145.08 144.59 C 144.27 144.78 143.77 145.60 143.96 146.42 C 144.15 147.23 144.97 147.73 145.79 147.54 Z M 147.12 147.21 L 148.06 146.90 C 148.85 146.65 149.29 145.80 149.03 145.00 C 148.77 144.21 147.92 143.78 147.13 144.03 L 146.19 144.34 C 145.40 144.60 144.96 145.45 145.22 146.24 C 145.48 147.03 146.33 147.47 147.12 147.21 Z M 148.13 146.86 L 149.06 146.50 C 149.83 146.21 150.21 145.35 149.92 144.58 C 149.62 143.81 148.76 143.43 148.00 143.72 L 147.06 144.08 C 146.30 144.37 145.91 145.23 146.20 146.00 C 146.50 146.77 147.36 147.15 148.13 146.86 Z M 149.10 146.47 L 150.03 146.08 C 150.78 145.76 151.13 144.90 150.81 144.15 C 150.50 143.40 149.64 143.05 148.89 143.37 L 147.96 143.76 C 147.21 144.07 146.86 144.93 147.17 145.68 C 147.49 146.43 148.35 146.78 149.10 146.47 Z M 150.04 146.06 L 150.96 145.66 C 151.69 145.34 152.03 144.48 151.71 143.74 C 151.39 143.01 150.53 142.67 149.80 142.99 L 148.88 143.39 C 148.14 143.71 147.80 144.56 148.12 145.30 C 148.44 146.04 149.30 146.38 150.04 146.06 Z M 150.96 145.65 L 151.87 145.25 C 152.60 144.93 152.93 144.07 152.61 143.34 C 152.29 142.61 151.44 142.28 150.71 142.60 L 149.79 143.00 C 149.06 143.32 148.73 144.17 149.05 144.90 C 149.37 145.64 150.23 145.97 150.96 145.65 Z M 151.87 145.24 L 152.79 144.83 C 153.51 144.51 153.84 143.66 153.52 142.93 C 153.20 142.21 152.35 141.88 151.62 142.20 L 150.71 142.61 C 149.98 142.93 149.65 143.78 149.97 144.51 C 150.29 145.23 151.14 145.56 151.87 145.24 Z M 152.79 144.83 L 153.71 144.42 C 154.43 144.10 154.76 143.25 154.44 142.53 C 154.11 141.80 153.27 141.48 152.54 141.80 L 151.62 142.21 C 150.90 142.53 150.57 143.38 150.89 144.10 C 151.22 144.82 152.06 145.15 152.79 144.83 Z M 153.71 144.41 L 154.62 144.01 C 155.34 143.69 155.67 142.84 155.35 142.12 C 155.03 141.40 154.18 141.08 153.46 141.40 L 152.54 141.80 C 151.82 142.12 151.50 142.97 151.82 143.69 C 152.14 144.41 152.98 144.74 153.71 144.41 Z M 154.62 144.01 L 155.53 143.60 C 156.25 143.28 156.58 142.44 156.26 141.72 C 155.94 141.00 155.10 140.67 154.37 140.99 L 153.46 141.40 C 152.74 141.72 152.42 142.56 152.74 143.28 C 153.06 144.00 153.90 144.33 154.62 144.01 Z M 155.53 143.60 L 156.45 143.19 C 157.17 142.87 157.49 142.03 157.17 141.31 C 156.85 140.59 156.01 140.27 155.29 140.59 L 154.37 140.99 C 153.65 141.31 153.33 142.16 153.65 142.88 C 153.97 143.60 154.81 143.92 155.53 143.60 Z M 156.45 143.19 L 157.36 142.79 C 158.08 142.47 158.40 141.62 158.08 140.90 C 157.77 140.18 156.92 139.86 156.20 140.18 L 155.29 140.59 C 154.57 140.91 154.25 141.75 154.57 142.47 C 154.89 143.19 155.73 143.51 156.45 143.19 Z M 157.36 142.79 L 157.52 142.72 C 158.24 142.40 158.56 141.55 158.24 140.83 C 157.92 140.12 157.08 139.79 156.36 140.11 L 156.20 140.18 C 155.48 140.50 155.16 141.34 155.48 142.06 C 155.80 142.78 156.64 143.11 157.36 142.79 Z"
      fill="black"
      fill-rule="nonzero" /><path d="M 148.91 151.55 L 147.96 152.42 C 147.35 152.98 147.30 153.93 147.86 154.54 C 148.42 155.16 149.38 155.20 149.99 154.64 L 150.94 153.77 C 151.56 153.21 151.60 152.26 151.04 151.64 C 150.48 151.03 149.53 150.99 148.91 151.55 Z M 147.94 152.43 L 147.07 153.25 C 146.47 153.82 146.44 154.78 147.01 155.38 C 147.58 155.99 148.53 156.01 149.13 155.45 L 150.01 154.62 C 150.61 154.05 150.64 153.10 150.07 152.50 C 149.50 151.89 148.55 151.86 147.94 152.43 Z M 147.03 153.29 L 146.32 154.02 C 145.74 154.61 145.74 155.56 146.34 156.15 C 146.93 156.73 147.88 156.72 148.46 156.13 L 149.18 155.40 C 149.76 154.81 149.75 153.86 149.16 153.28 C 148.57 152.69 147.61 152.70 147.03 153.29 Z M 146.23 154.12 L 145.75 154.70 C 145.23 155.34 145.33 156.29 145.97 156.82 C 146.61 157.34 147.56 157.25 148.09 156.60 L 148.56 156.02 C 149.08 155.38 148.99 154.43 148.34 153.91 C 147.70 153.38 146.75 153.48 146.23 154.12 Z M 145.45 155.33 L 145.35 155.82 C 145.17 156.63 145.68 157.43 146.49 157.61 C 147.30 157.79 148.10 157.28 148.28 156.47 L 148.39 155.97 C 148.56 155.16 148.05 154.36 147.24 154.19 C 146.43 154.01 145.63 154.52 145.45 155.33 Z M 146.73 157.63 L 147.52 157.68 C 148.34 157.72 149.04 157.09 149.09 156.27 C 149.13 155.45 148.50 154.75 147.68 154.70 L 146.89 154.66 C 146.07 154.61 145.37 155.24 145.32 156.06 C 145.28 156.89 145.91 157.59 146.73 157.63 Z M 148.05 157.59 L 149.22 157.21 C 150.00 156.96 150.42 156.13 150.17 155.36 C 149.92 154.58 149.09 154.16 148.32 154.41 L 147.15 154.79 C 146.37 155.04 145.95 155.87 146.20 156.64 C 146.45 157.42 147.28 157.84 148.05 157.59 Z M 149.39 157.14 L 150.17 156.77 C 150.91 156.43 151.22 155.56 150.88 154.83 C 150.54 154.09 149.67 153.78 148.94 154.12 L 148.15 154.48 C 147.42 154.83 147.10 155.70 147.44 156.43 C 147.78 157.16 148.65 157.48 149.39 157.14 Z M 150.26 156.72 L 151.09 156.26 C 151.80 155.87 152.05 154.99 151.67 154.28 C 151.28 153.58 150.39 153.32 149.69 153.71 L 148.86 154.17 C 148.15 154.56 147.89 155.44 148.28 156.15 C 148.67 156.85 149.55 157.11 150.26 156.72 Z M 151.14 156.22 L 152.06 155.67 C 152.74 155.26 152.96 154.37 152.55 153.68 C 152.13 153.00 151.24 152.78 150.56 153.19 L 149.64 153.75 C 148.96 154.16 148.74 155.05 149.15 155.74 C 149.57 156.42 150.46 156.64 151.14 156.22 Z M 152.08 155.65 L 153.00 155.06 C 153.68 154.64 153.88 153.75 153.45 153.08 C 153.03 152.40 152.14 152.20 151.47 152.63 L 150.54 153.21 C 149.87 153.64 149.66 154.53 150.09 155.20 C 150.51 155.87 151.40 156.07 152.08 155.65 Z M 153.01 155.06 L 153.77 154.57 C 154.44 154.14 154.63 153.25 154.21 152.59 C 153.78 151.92 152.89 151.72 152.22 152.15 L 151.46 152.64 C 150.79 153.06 150.60 153.95 151.03 154.62 C 151.45 155.29 152.34 155.48 153.01 155.06 Z M 153.77 154.57 L 154.58 154.04 C 155.25 153.61 155.44 152.73 155.01 152.06 C 154.58 151.39 153.70 151.20 153.03 151.63 L 152.22 152.15 C 151.55 152.58 151.36 153.47 151.79 154.14 C 152.22 154.80 153.11 154.99 153.77 154.57 Z M 154.59 154.04 L 155.44 153.49 C 156.10 153.06 156.29 152.17 155.86 151.51 C 155.43 150.84 154.55 150.65 153.88 151.08 L 153.03 151.63 C 152.37 152.06 152.17 152.95 152.60 153.62 C 153.03 154.28 153.92 154.47 154.59 154.04 Z M 155.44 153.49 L 156.32 152.92 C 156.98 152.49 157.17 151.60 156.74 150.94 C 156.31 150.28 155.42 150.09 154.76 150.52 L 153.88 151.09 C 153.22 151.52 153.03 152.40 153.46 153.07 C 153.89 153.73 154.77 153.92 155.44 153.49 Z M 156.32 152.91 L 157.21 152.33 C 157.88 151.90 158.06 151.02 157.63 150.36 C 157.20 149.69 156.32 149.51 155.66 149.94 L 154.76 150.52 C 154.10 150.95 153.91 151.83 154.34 152.49 C 154.77 153.16 155.66 153.34 156.32 152.91 Z M 157.21 152.33 L 157.72 152.00 C 158.38 151.57 158.57 150.69 158.14 150.03 C 157.71 149.37 156.82 149.18 156.16 149.61 L 155.66 149.94 C 155.00 150.37 154.81 151.25 155.24 151.91 C 155.67 152.57 156.55 152.76 157.21 152.33 Z"
      fill="black"
      fill-rule="nonzero" /><path d="M 132.44 171.30 L 131.57 171.55 C 130.76 171.79 130.29 172.63 130.52 173.44 C 130.76 174.25 131.60 174.72 132.41 174.48 L 133.28 174.23 C 134.09 174.00 134.56 173.15 134.33 172.35 C 134.09 171.54 133.25 171.07 132.44 171.30 Z M 131.55 171.56 L 130.65 171.83 C 129.84 172.07 129.39 172.92 129.63 173.73 C 129.87 174.53 130.72 174.99 131.53 174.75 L 132.43 174.48 C 133.23 174.24 133.69 173.39 133.45 172.58 C 133.21 171.77 132.36 171.32 131.55 171.56 Z M 130.62 171.84 L 129.66 172.14 C 128.86 172.40 128.42 173.26 128.68 174.06 C 128.94 174.87 129.80 175.31 130.60 175.05 L 131.56 174.74 C 132.36 174.48 132.80 173.62 132.54 172.82 C 132.28 172.02 131.42 171.58 130.62 171.84 Z M 129.63 172.16 L 128.59 172.52 C 127.79 172.80 127.37 173.67 127.65 174.47 C 127.93 175.26 128.80 175.68 129.60 175.40 L 130.64 175.04 C 131.43 174.76 131.85 173.89 131.57 173.09 C 131.29 172.29 130.42 171.88 129.63 172.16 Z M 128.55 172.53 L 127.59 172.89 C 126.80 173.20 126.40 174.08 126.70 174.87 C 127.00 175.66 127.89 176.06 128.68 175.76 L 129.64 175.39 C 130.43 175.09 130.83 174.21 130.53 173.42 C 130.23 172.63 129.34 172.23 128.55 172.53 Z M 127.55 172.90 L 126.60 173.28 C 125.81 173.60 125.43 174.50 125.75 175.29 C 126.07 176.08 126.97 176.46 127.76 176.14 L 128.71 175.75 C 129.50 175.43 129.88 174.54 129.56 173.75 C 129.24 172.96 128.34 172.58 127.55 172.90 Z M 126.57 173.29 L 125.61 173.70 C 124.82 174.04 124.46 174.95 124.80 175.74 C 125.13 176.53 126.05 176.89 126.84 176.55 L 127.80 176.14 C 128.58 175.80 128.95 174.89 128.61 174.10 C 128.27 173.31 127.36 172.95 126.57 173.29 Z M 125.57 173.70 L 124.63 174.13 C 123.85 174.49 123.51 175.42 123.86 176.20 C 124.22 176.99 125.15 177.33 125.94 176.97 L 126.87 176.55 C 127.66 176.19 128.00 175.26 127.64 174.47 C 127.28 173.69 126.36 173.34 125.57 173.70 Z M 124.59 174.14 L 123.72 174.57 C 122.94 174.96 122.61 175.90 123.00 176.68 C 123.38 177.46 124.33 177.78 125.11 177.40 L 125.98 176.97 C 126.76 176.58 127.08 175.64 126.70 174.86 C 126.31 174.08 125.37 173.76 124.59 174.14 Z M 123.65 174.60 L 122.63 175.16 C 121.87 175.58 121.59 176.54 122.01 177.31 C 122.43 178.08 123.40 178.35 124.16 177.93 L 125.18 177.37 C 125.94 176.95 126.22 175.99 125.80 175.22 C 125.38 174.45 124.41 174.17 123.65 174.60 Z M 122.49 175.23 L 121.46 175.95 C 120.73 176.45 120.55 177.44 121.06 178.17 C 121.56 178.89 122.55 179.07 123.28 178.57 L 124.31 177.86 C 125.03 177.35 125.21 176.36 124.71 175.63 C 124.21 174.91 123.21 174.73 122.49 175.23 Z M 121.11 176.25 L 120.66 176.82 C 120.11 177.51 120.22 178.52 120.91 179.08 C 121.60 179.63 122.61 179.52 123.17 178.83 L 123.62 178.26 C 124.18 177.57 124.06 176.56 123.37 176.00 C 122.68 175.45 121.67 175.56 121.11 176.25 Z M 120.49 178.59 L 120.68 178.93 C 121.10 179.72 122.08 180.01 122.86 179.59 C 123.65 179.17 123.94 178.19 123.52 177.41 L 123.34 177.06 C 122.91 176.28 121.94 175.98 121.15 176.40 C 120.37 176.82 120.07 177.80 120.49 178.59 Z M 121.72 179.74 L 122.43 179.91 C 123.30 180.12 124.17 179.59 124.38 178.72 C 124.59 177.85 124.06 176.98 123.19 176.77 L 122.48 176.60 C 121.61 176.39 120.73 176.92 120.53 177.79 C 120.32 178.66 120.85 179.53 121.72 179.74 Z M 122.71 179.96 L 123.88 180.03 C 124.78 180.09 125.55 179.41 125.60 178.51 C 125.66 177.62 124.98 176.85 124.09 176.80 L 122.91 176.72 C 122.02 176.67 121.25 177.35 121.19 178.24 C 121.13 179.13 121.81 179.90 122.71 179.96 Z M 123.96 180.04 L 125.28 180.06 C 126.18 180.07 126.92 179.36 126.93 178.46 C 126.95 177.57 126.24 176.83 125.34 176.81 L 124.01 176.79 C 123.12 176.77 122.38 177.49 122.36 178.38 C 122.35 179.28 123.06 180.02 123.96 180.04 Z M 125.30 180.06 L 126.20 180.07 C 127.10 180.07 127.83 179.35 127.84 178.45 C 127.85 177.56 127.12 176.82 126.23 176.82 L 125.32 176.81 C 124.43 176.81 123.69 177.53 123.69 178.43 C 123.68 179.32 124.40 180.05 125.30 180.06 Z M 126.22 180.07 L 127.19 180.06 C 128.09 180.06 128.81 179.33 128.81 178.43 C 128.81 177.54 128.08 176.81 127.18 176.81 L 126.21 176.82 C 125.31 176.82 124.59 177.55 124.59 178.45 C 124.59 179.34 125.32 180.07 126.22 180.07 Z M 127.21 180.06 L 128.23 180.05 C 129.13 180.03 129.84 179.30 129.83 178.40 C 129.82 177.50 129.08 176.79 128.18 176.80 L 127.16 176.81 C 126.26 176.83 125.55 177.57 125.56 178.46 C 125.58 179.36 126.31 180.08 127.21 180.06 Z M 128.26 180.05 L 129.30 180.01 C 130.20 179.99 130.90 179.24 130.88 178.34 C 130.85 177.44 130.10 176.74 129.20 176.77 L 128.15 176.80 C 127.26 176.83 126.55 177.58 126.58 178.48 C 126.61 179.37 127.36 180.08 128.26 180.05 Z M 129.34 180.01 L 130.39 179.96 C 131.29 179.91 131.98 179.15 131.93 178.25 C 131.88 177.35 131.12 176.67 130.22 176.71 L 129.17 176.77 C 128.27 176.81 127.58 177.58 127.63 178.48 C 127.68 179.37 128.44 180.06 129.34 180.01 Z M 130.43 179.96 L 131.47 179.87 C 132.37 179.80 133.04 179.02 132.97 178.13 C 132.90 177.23 132.11 176.56 131.22 176.63 L 130.18 176.71 C 129.28 176.78 128.61 177.57 128.68 178.46 C 128.75 179.36 129.54 180.03 130.43 179.96 Z M 131.53 179.87 L 132.64 179.74 C 133.53 179.64 134.17 178.84 134.07 177.95 C 133.97 177.06 133.17 176.41 132.28 176.51 L 131.16 176.64 C 130.27 176.74 129.63 177.54 129.73 178.43 C 129.83 179.33 130.63 179.97 131.53 179.87 Z M 132.69 179.74 L 133.78 179.58 C 134.66 179.45 135.28 178.62 135.15 177.73 C 135.02 176.85 134.19 176.23 133.30 176.36 L 132.22 176.52 C 131.33 176.65 130.72 177.48 130.85 178.37 C 130.98 179.25 131.80 179.87 132.69 179.74 Z M 133.82 179.57 L 134.85 179.39 C 135.73 179.23 136.32 178.39 136.17 177.51 C 136.01 176.62 135.17 176.03 134.28 176.19 L 133.26 176.37 C 132.37 176.53 131.78 177.37 131.94 178.25 C 132.10 179.14 132.94 179.73 133.82 179.57 Z M 134.89 179.38 L 135.85 179.19 C 136.73 179.01 137.30 178.15 137.12 177.27 C 136.94 176.39 136.09 175.82 135.21 176.00 L 134.24 176.20 C 133.36 176.37 132.80 177.23 132.97 178.11 C 133.15 178.99 134.01 179.56 134.89 179.38 Z M 135.88 179.18 L 136.77 178.98 C 137.65 178.79 138.20 177.92 138.01 177.05 C 137.81 176.17 136.95 175.62 136.07 175.81 L 135.18 176.01 C 134.30 176.20 133.75 177.07 133.94 177.94 C 134.13 178.82 135.00 179.38 135.88 179.18 Z M 136.79 178.98 L 137.64 178.78 C 138.51 178.58 139.05 177.71 138.85 176.83 C 138.65 175.96 137.77 175.41 136.90 175.62 L 136.05 175.81 C 135.18 176.02 134.63 176.89 134.84 177.77 C 135.04 178.64 135.91 179.18 136.79 178.98 Z M 137.65 178.78 L 138.76 178.51 C 139.63 178.31 140.17 177.43 139.96 176.56 C 139.75 175.68 138.88 175.15 138.00 175.35 L 136.89 175.62 C 136.02 175.83 135.48 176.71 135.69 177.58 C 135.90 178.45 136.77 178.99 137.65 178.78 Z M 138.77 178.51 L 139.75 178.27 C 140.62 178.05 141.15 177.17 140.93 176.30 C 140.72 175.43 139.84 174.90 138.96 175.12 L 137.99 175.36 C 137.12 175.57 136.59 176.46 136.81 177.33 C 137.02 178.20 137.90 178.73 138.77 178.51 Z M 139.76 178.26 L 140.65 178.03 C 141.52 177.81 142.04 176.92 141.81 176.05 C 141.58 175.19 140.70 174.67 139.83 174.89 L 138.95 175.12 C 138.08 175.35 137.56 176.23 137.79 177.10 C 138.01 177.97 138.90 178.49 139.76 178.26 Z M 140.67 178.03 L 141.56 177.78 C 142.42 177.54 142.93 176.65 142.69 175.79 C 142.46 174.92 141.56 174.42 140.70 174.65 L 139.81 174.90 C 138.95 175.14 138.44 176.03 138.68 176.89 C 138.91 177.76 139.81 178.26 140.67 178.03 Z M 141.58 177.78 L 142.54 177.50 C 143.40 177.25 143.90 176.35 143.65 175.49 C 143.40 174.63 142.50 174.13 141.64 174.38 L 140.68 174.66 C 139.82 174.91 139.32 175.81 139.57 176.67 C 139.82 177.53 140.72 178.02 141.58 177.78 Z M 142.56 177.49 L 143.51 177.21 C 144.37 176.95 144.86 176.05 144.60 175.19 C 144.35 174.33 143.44 173.84 142.59 174.10 L 141.63 174.39 C 140.77 174.64 140.28 175.55 140.54 176.40 C 140.80 177.26 141.70 177.75 142.56 177.49 Z M 143.52 177.20 L 144.47 176.91 C 145.33 176.65 145.81 175.75 145.55 174.89 C 145.29 174.04 144.38 173.56 143.53 173.82 L 142.58 174.10 C 141.72 174.36 141.24 175.27 141.50 176.12 C 141.76 176.98 142.66 177.46 143.52 177.20 Z M 144.47 176.91 L 145.41 176.63 C 146.27 176.37 146.75 175.46 146.49 174.61 C 146.23 173.75 145.32 173.27 144.47 173.53 L 143.53 173.82 C 142.67 174.08 142.19 174.98 142.45 175.84 C 142.71 176.69 143.62 177.17 144.47 176.91 Z M 145.41 176.62 L 146.36 176.33 C 147.22 176.07 147.70 175.17 147.44 174.32 C 147.18 173.46 146.27 172.98 145.42 173.24 L 144.47 173.53 C 143.61 173.79 143.13 174.70 143.39 175.55 C 143.65 176.40 144.56 176.88 145.41 176.62 Z M 146.36 176.33 L 147.34 176.03 C 148.19 175.77 148.67 174.87 148.41 174.02 C 148.15 173.17 147.25 172.69 146.40 172.95 L 145.42 173.24 C 144.57 173.51 144.09 174.41 144.35 175.26 C 144.61 176.11 145.51 176.59 146.36 176.33 Z M 147.34 176.03 L 148.20 175.77 C 149.05 175.51 149.53 174.61 149.26 173.75 C 149.00 172.90 148.10 172.43 147.25 172.69 L 146.40 172.95 C 145.55 173.21 145.07 174.11 145.33 174.96 C 145.59 175.81 146.49 176.29 147.34 176.03 Z M 148.20 175.77 L 149.09 175.49 C 149.94 175.23 150.42 174.33 150.16 173.48 C 149.89 172.63 148.99 172.15 148.14 172.41 L 147.25 172.69 C 146.40 172.95 145.92 173.85 146.19 174.70 C 146.45 175.55 147.35 176.03 148.20 175.77 Z M 149.10 175.49 L 150.08 175.18 C 150.92 174.91 151.40 174.01 151.13 173.17 C 150.87 172.32 149.96 171.85 149.12 172.11 L 148.14 172.42 C 147.29 172.68 146.82 173.58 147.08 174.43 C 147.35 175.28 148.25 175.75 149.10 175.49 Z M 150.08 175.18 L 151.17 174.83 C 152.02 174.56 152.49 173.66 152.22 172.81 C 151.95 171.97 151.05 171.50 150.21 171.77 L 149.11 172.12 C 148.27 172.38 147.80 173.28 148.07 174.13 C 148.33 174.98 149.24 175.44 150.08 175.18 Z M 151.18 174.82 L 152.11 174.53 C 152.95 174.26 153.42 173.35 153.15 172.51 C 152.88 171.67 151.98 171.20 151.13 171.47 L 150.20 171.77 C 149.36 172.04 148.89 172.95 149.16 173.79 C 149.43 174.63 150.34 175.09 151.18 174.82 Z M 152.11 174.52 L 153.09 174.20 C 153.93 173.93 154.40 173.03 154.12 172.19 C 153.85 171.35 152.95 170.89 152.11 171.16 L 151.13 171.48 C 150.29 171.75 149.83 172.65 150.10 173.49 C 150.37 174.33 151.27 174.79 152.11 174.52 Z M 153.10 174.20 L 154.09 173.88 C 154.93 173.60 155.38 172.70 155.11 171.86 C 154.84 171.03 153.93 170.57 153.10 170.84 L 152.11 171.17 C 151.27 171.44 150.81 172.34 151.09 173.18 C 151.36 174.02 152.26 174.47 153.10 174.20 Z M 154.09 173.87 L 155.06 173.55 C 155.89 173.28 156.34 172.38 156.07 171.54 C 155.79 170.71 154.89 170.25 154.06 170.53 L 153.09 170.85 C 152.26 171.12 151.80 172.02 152.08 172.86 C 152.36 173.69 153.26 174.15 154.09 173.87 Z M 155.06 173.55 L 155.96 173.25 C 156.79 172.97 157.24 172.07 156.96 171.24 C 156.68 170.40 155.78 169.95 154.95 170.23 L 154.05 170.53 C 153.22 170.81 152.77 171.71 153.05 172.55 C 153.33 173.38 154.23 173.83 155.06 173.55 Z M 155.97 173.24 L 157.04 172.87 C 157.87 172.59 158.31 171.69 158.02 170.86 C 157.74 170.04 156.84 169.59 156.01 169.88 L 154.94 170.24 C 154.12 170.53 153.68 171.43 153.96 172.25 C 154.24 173.08 155.14 173.52 155.97 173.24 Z M 157.05 172.85 L 158.00 172.52 C 158.82 172.23 159.25 171.33 158.96 170.52 C 158.68 169.70 157.78 169.27 156.96 169.56 L 156.01 169.89 C 155.19 170.18 154.76 171.08 155.05 171.90 C 155.33 172.71 156.23 173.14 157.05 172.85 Z M 158.01 172.50 L 158.88 172.19 C 159.69 171.89 160.11 171.00 159.81 170.19 C 159.52 169.39 158.63 168.97 157.82 169.26 L 156.95 169.57 C 156.15 169.87 155.73 170.76 156.02 171.57 C 156.31 172.37 157.20 172.79 158.01 172.50 Z M 158.88 172.17 L 159.74 171.86 C 160.54 171.56 160.95 170.67 160.66 169.87 C 160.36 169.07 159.47 168.66 158.67 168.96 L 157.82 169.27 C 157.02 169.57 156.61 170.46 156.90 171.26 C 157.20 172.06 158.08 172.47 158.88 172.17 Z M 159.74 171.85 L 160.67 171.50 C 161.46 171.21 161.87 170.32 161.57 169.53 C 161.28 168.73 160.39 168.33 159.60 168.63 L 158.67 168.97 C 157.88 169.27 157.47 170.15 157.77 170.94 C 158.06 171.74 158.95 172.14 159.74 171.85 Z M 160.67 171.49 L 161.61 171.14 C 162.40 170.85 162.80 169.97 162.50 169.18 C 162.21 168.39 161.33 167.99 160.54 168.28 L 159.60 168.63 C 158.81 168.93 158.41 169.81 158.70 170.60 C 159.00 171.39 159.88 171.79 160.67 171.49 Z M 161.61 171.13 L 162.55 170.78 C 163.34 170.48 163.74 169.61 163.44 168.82 C 163.15 168.04 162.27 167.64 161.49 167.94 L 160.54 168.29 C 159.76 168.58 159.36 169.46 159.65 170.24 C 159.95 171.03 160.82 171.43 161.61 171.13 Z M 162.55 170.77 L 163.47 170.43 C 164.25 170.13 164.64 169.26 164.35 168.48 C 164.06 167.70 163.19 167.31 162.41 167.60 L 161.49 167.94 C 160.71 168.24 160.32 169.11 160.61 169.89 C 160.90 170.67 161.77 171.06 162.55 170.77 Z M 163.46 170.42 L 164.39 170.07 C 165.16 169.78 165.56 168.92 165.27 168.14 C 164.98 167.37 164.12 166.97 163.34 167.26 L 162.41 167.61 C 161.64 167.90 161.24 168.76 161.53 169.54 C 161.82 170.31 162.69 170.71 163.46 170.42 Z M 164.38 170.07 L 165.33 169.72 C 166.10 169.43 166.50 168.57 166.21 167.80 C 165.93 167.03 165.07 166.63 164.30 166.92 L 163.35 167.27 C 162.57 167.55 162.18 168.41 162.46 169.18 C 162.75 169.96 163.61 170.35 164.38 170.07 Z M 165.32 169.71 L 166.28 169.36 C 167.05 169.08 167.44 168.23 167.16 167.46 C 166.88 166.69 166.03 166.29 165.26 166.57 L 164.30 166.92 C 163.53 167.20 163.14 168.06 163.42 168.83 C 163.70 169.60 164.55 169.99 165.32 169.71 Z M 166.27 169.35 L 167.22 169.01 C 167.99 168.73 168.38 167.89 168.10 167.12 C 167.83 166.35 166.98 165.96 166.21 166.23 L 165.27 166.58 C 164.50 166.86 164.10 167.70 164.38 168.47 C 164.66 169.24 165.51 169.63 166.27 169.35 Z M 167.22 169.00 L 168.17 168.66 C 168.93 168.38 169.33 167.54 169.05 166.78 C 168.77 166.01 167.93 165.62 167.17 165.90 L 166.21 166.24 C 165.45 166.52 165.06 167.36 165.33 168.12 C 165.61 168.89 166.45 169.28 167.22 169.00 Z M 168.17 168.65 L 169.10 168.31 C 169.86 168.03 170.25 167.19 169.97 166.43 C 169.70 165.67 168.85 165.28 168.10 165.56 L 167.16 165.90 C 166.40 166.18 166.01 167.02 166.29 167.78 C 166.57 168.54 167.41 168.93 168.17 168.65 Z M 169.11 168.30 L 170.07 167.94 C 170.82 167.66 171.20 166.82 170.92 166.07 C 170.64 165.31 169.80 164.93 169.04 165.21 L 168.09 165.57 C 167.34 165.85 166.95 166.69 167.24 167.45 C 167.52 168.20 168.36 168.58 169.11 168.30 Z M 170.07 167.93 L 171.01 167.57 C 171.76 167.29 172.14 166.45 171.85 165.70 C 171.56 164.95 170.73 164.58 169.98 164.86 L 169.04 165.22 C 168.29 165.51 167.91 166.35 168.20 167.09 C 168.49 167.84 169.32 168.22 170.07 167.93 Z M 171.01 167.57 L 171.93 167.21 C 172.68 166.93 173.05 166.09 172.76 165.35 C 172.47 164.60 171.64 164.23 170.89 164.52 L 169.98 164.87 C 169.23 165.16 168.86 165.99 169.15 166.74 C 169.43 167.48 170.27 167.85 171.01 167.57 Z M 171.93 167.21 L 172.85 166.86 C 173.59 166.57 173.96 165.74 173.67 165.00 C 173.39 164.26 172.56 163.88 171.81 164.17 L 170.90 164.52 C 170.15 164.81 169.78 165.64 170.07 166.38 C 170.35 167.12 171.18 167.49 171.93 167.21 Z M 172.84 166.85 L 173.78 166.50 C 174.52 166.21 174.89 165.38 174.61 164.64 C 174.33 163.90 173.50 163.53 172.75 163.81 L 171.82 164.17 C 171.08 164.46 170.71 165.29 170.99 166.03 C 171.27 166.77 172.10 167.14 172.84 166.85 Z M 173.78 166.49 L 174.72 166.13 C 175.46 165.84 175.82 165.01 175.54 164.27 C 175.25 163.54 174.42 163.17 173.68 163.46 L 172.75 163.82 C 172.01 164.11 171.65 164.94 171.93 165.67 C 172.22 166.41 173.05 166.78 173.78 166.49 Z M 174.74 166.12 L 175.66 165.75 C 176.39 165.45 176.74 164.62 176.45 163.89 C 176.16 163.16 175.32 162.80 174.59 163.10 L 173.67 163.47 C 172.94 163.76 172.58 164.59 172.88 165.33 C 173.17 166.06 174.00 166.41 174.74 166.12 Z M 175.68 165.74 L 176.62 165.34 C 177.34 165.03 177.68 164.19 177.38 163.47 C 177.07 162.74 176.23 162.40 175.51 162.71 L 174.57 163.11 C 173.84 163.41 173.50 164.25 173.81 164.98 C 174.12 165.70 174.96 166.04 175.68 165.74 Z M 176.64 165.33 L 177.55 164.93 C 178.28 164.61 178.60 163.77 178.29 163.05 C 177.97 162.33 177.13 162.00 176.41 162.32 L 175.49 162.72 C 174.77 163.03 174.44 163.88 174.76 164.60 C 175.07 165.32 175.91 165.65 176.64 165.33 Z M 177.56 164.92 L 178.46 164.52 C 179.18 164.21 179.50 163.36 179.18 162.64 C 178.86 161.92 178.02 161.60 177.30 161.92 L 176.40 162.32 C 175.68 162.64 175.36 163.48 175.68 164.20 C 176.00 164.92 176.84 165.24 177.56 164.92 Z M 178.45 164.53 L 179.37 164.12 C 180.09 163.81 180.42 162.96 180.10 162.24 C 179.79 161.52 178.95 161.20 178.23 161.51 L 177.31 161.92 C 176.59 162.23 176.26 163.07 176.58 163.80 C 176.89 164.52 177.73 164.84 178.45 164.53 Z M 179.37 164.13 L 180.28 163.73 C 181.01 163.41 181.34 162.58 181.02 161.85 C 180.71 161.13 179.87 160.80 179.15 161.11 L 178.23 161.51 C 177.51 161.82 177.18 162.66 177.49 163.38 C 177.80 164.11 178.64 164.44 179.37 164.13 Z M 180.28 163.73 L 181.19 163.34 C 181.91 163.03 182.25 162.19 181.94 161.47 C 181.63 160.74 180.79 160.41 180.07 160.72 L 179.15 161.11 C 178.43 161.42 178.10 162.26 178.41 162.98 C 178.72 163.71 179.56 164.04 180.28 163.73 Z M 181.19 163.34 L 181.45 163.23 C 182.17 162.92 182.50 162.08 182.19 161.36 C 181.88 160.63 181.05 160.30 180.32 160.61 L 180.07 160.72 C 179.34 161.03 179.01 161.87 179.32 162.59 C 179.63 163.31 180.47 163.65 181.19 163.34 Z"
      fill="black"
      fill-rule="nonzero" /><path d="M 150.89 164.72 L 150.30 165.57 C 149.80 166.28 149.97 167.26 150.68 167.75 C 151.39 168.25 152.37 168.08 152.87 167.37 L 153.46 166.53 C 153.96 165.82 153.79 164.84 153.08 164.34 C 152.37 163.84 151.39 164.01 150.89 164.72 Z M 150.30 165.57 L 149.71 166.41 C 149.21 167.12 149.38 168.10 150.10 168.59 C 150.81 169.09 151.79 168.92 152.28 168.21 L 152.87 167.37 C 153.37 166.66 153.19 165.68 152.48 165.18 C 151.77 164.68 150.79 164.86 150.30 165.57 Z M 149.71 166.41 L 149.14 167.23 C 148.64 167.94 148.82 168.92 149.53 169.42 C 150.25 169.91 151.22 169.73 151.72 169.02 L 152.29 168.20 C 152.78 167.49 152.60 166.51 151.89 166.02 C 151.18 165.52 150.20 165.70 149.71 166.41 Z M 149.13 167.24 L 148.59 168.03 C 148.10 168.75 148.28 169.73 149.00 170.22 C 149.72 170.71 150.69 170.52 151.18 169.81 L 151.72 169.01 C 152.21 168.30 152.03 167.32 151.31 166.83 C 150.60 166.34 149.62 166.52 149.13 167.24 Z M 148.58 168.04 L 148.03 168.86 C 147.55 169.58 147.74 170.56 148.46 171.04 C 149.19 171.53 150.17 171.33 150.65 170.61 L 151.19 169.79 C 151.68 169.07 151.48 168.09 150.76 167.61 C 150.04 167.13 149.06 167.32 148.58 168.04 Z M 148.01 168.87 L 147.48 169.69 C 147.01 170.42 147.21 171.40 147.95 171.88 C 148.68 172.36 149.66 172.15 150.14 171.41 L 150.67 170.60 C 151.14 169.87 150.94 168.88 150.20 168.41 C 149.47 167.93 148.49 168.14 148.01 168.87 Z M 147.46 169.70 L 146.94 170.53 C 146.47 171.28 146.69 172.26 147.43 172.73 C 148.17 173.20 149.16 172.98 149.63 172.24 L 150.16 171.40 C 150.63 170.66 150.41 169.67 149.66 169.20 C 148.92 168.73 147.93 168.95 147.46 169.70 Z M 146.92 170.54 L 146.37 171.43 C 145.91 172.18 146.14 173.17 146.89 173.63 C 147.65 174.10 148.64 173.87 149.10 173.11 L 149.65 172.23 C 150.11 171.47 149.88 170.48 149.13 170.02 C 148.37 169.55 147.38 169.79 146.92 170.54 Z M 146.36 171.43 L 145.93 172.13 C 145.47 172.89 145.71 173.88 146.47 174.35 C 147.23 174.81 148.22 174.57 148.69 173.81 L 149.11 173.11 C 149.57 172.35 149.33 171.35 148.57 170.89 C 147.81 170.43 146.82 170.67 146.36 171.43 Z M 145.93 172.13 L 145.48 172.88 C 145.02 173.64 145.26 174.63 146.03 175.09 C 146.79 175.56 147.78 175.31 148.24 174.55 L 148.69 173.80 C 149.15 173.04 148.91 172.05 148.15 171.59 C 147.38 171.13 146.39 171.37 145.93 172.13 Z M 145.48 172.88 L 144.98 173.69 C 144.52 174.46 144.77 175.45 145.53 175.91 C 146.30 176.38 147.29 176.13 147.75 175.37 L 148.25 174.55 C 148.71 173.78 148.46 172.79 147.70 172.33 C 146.93 171.87 145.94 172.11 145.48 172.88 Z M 144.98 173.69 L 144.43 174.59 C 143.97 175.36 144.21 176.36 144.98 176.82 C 145.74 177.28 146.74 177.04 147.21 176.27 L 147.75 175.37 C 148.22 174.60 147.97 173.61 147.21 173.14 C 146.44 172.68 145.44 172.92 144.98 173.69 Z M 144.43 174.59 L 143.82 175.59 C 143.35 176.36 143.59 177.36 144.36 177.83 C 145.12 178.29 146.12 178.05 146.59 177.29 L 147.21 176.28 C 147.67 175.51 147.43 174.51 146.67 174.05 C 145.90 173.58 144.90 173.82 144.43 174.59 Z M 143.82 175.59 L 143.24 176.52 C 142.77 177.29 143.01 178.29 143.78 178.76 C 144.54 179.23 145.54 178.99 146.01 178.23 L 146.59 177.29 C 147.06 176.53 146.82 175.52 146.06 175.05 C 145.29 174.58 144.29 174.82 143.82 175.59 Z M 143.24 176.52 L 142.72 177.37 C 142.25 178.13 142.48 179.13 143.25 179.61 C 144.01 180.08 145.02 179.84 145.49 179.08 L 146.01 178.23 C 146.49 177.47 146.25 176.46 145.49 175.99 C 144.72 175.52 143.72 175.75 143.24 176.52 Z M 142.72 177.36 L 142.17 178.24 C 141.70 179.01 141.93 180.01 142.70 180.49 C 143.46 180.96 144.47 180.73 144.94 179.96 L 145.49 179.08 C 145.96 178.32 145.73 177.31 144.96 176.84 C 144.20 176.37 143.20 176.60 142.72 177.36 Z M 142.18 178.24 L 141.62 179.14 C 141.14 179.90 141.38 180.90 142.14 181.38 C 142.90 181.86 143.91 181.62 144.38 180.86 L 144.94 179.96 C 145.41 179.20 145.18 178.20 144.42 177.72 C 143.66 177.25 142.65 177.48 142.18 178.24 Z M 141.62 179.14 L 141.06 180.03 C 140.59 180.79 140.82 181.79 141.58 182.27 C 142.34 182.75 143.35 182.51 143.82 181.75 L 144.38 180.86 C 144.86 180.10 144.62 179.09 143.86 178.62 C 143.10 178.14 142.10 178.37 141.62 179.14 Z M 141.06 180.02 L 140.52 180.89 C 140.04 181.65 140.28 182.66 141.04 183.14 C 141.80 183.61 142.80 183.38 143.28 182.62 L 143.82 181.75 C 144.30 180.99 144.07 179.98 143.31 179.51 C 142.54 179.03 141.54 179.26 141.06 180.02 Z M 140.52 180.89 L 140.01 181.71 C 139.53 182.48 139.76 183.48 140.52 183.96 C 141.28 184.44 142.29 184.21 142.77 183.44 L 143.28 182.62 C 143.76 181.86 143.53 180.85 142.77 180.37 C 142.00 179.90 141.00 180.13 140.52 180.89 Z M 140.01 181.71 L 139.53 182.48 C 139.05 183.24 139.28 184.25 140.04 184.72 C 140.80 185.20 141.81 184.97 142.29 184.21 L 142.76 183.44 C 143.24 182.68 143.01 181.68 142.25 181.20 C 141.49 180.72 140.48 180.95 140.01 181.71 Z M 139.53 182.48 L 138.86 183.54 C 138.38 184.30 138.61 185.31 139.38 185.79 C 140.14 186.26 141.14 186.03 141.62 185.27 L 142.29 184.21 C 142.76 183.45 142.53 182.44 141.77 181.96 C 141.01 181.49 140.01 181.72 139.53 182.48 Z M 138.87 183.54 L 138.29 184.46 C 137.81 185.22 138.04 186.22 138.80 186.70 C 139.56 187.17 140.56 186.95 141.04 186.19 L 141.61 185.27 C 142.09 184.51 141.86 183.51 141.10 183.03 C 140.35 182.56 139.34 182.78 138.87 183.54 Z M 138.30 184.45 L 137.79 185.24 C 137.31 186.00 137.54 187.00 138.29 187.48 C 139.05 187.96 140.05 187.74 140.53 186.98 L 141.03 186.19 C 141.51 185.44 141.29 184.43 140.53 183.95 C 139.78 183.47 138.78 183.70 138.30 184.45 Z M 137.80 185.24 L 137.34 185.95 C 136.86 186.70 137.07 187.70 137.82 188.19 C 138.57 188.67 139.57 188.46 140.06 187.71 L 140.52 186.99 C 141.00 186.24 140.79 185.24 140.04 184.76 C 139.29 184.27 138.29 184.48 137.80 185.24 Z M 137.35 185.94 L 136.88 186.65 C 136.39 187.40 136.59 188.40 137.33 188.89 C 138.07 189.38 139.08 189.18 139.57 188.44 L 140.04 187.72 C 140.54 186.98 140.33 185.98 139.59 185.48 C 138.85 184.99 137.85 185.19 137.35 185.94 Z M 136.89 186.64 L 136.34 187.45 C 135.84 188.18 136.03 189.19 136.77 189.69 C 137.50 190.19 138.50 190.00 139.00 189.26 L 139.55 188.45 C 140.06 187.72 139.86 186.71 139.13 186.21 C 138.39 185.71 137.39 185.90 136.89 186.64 Z M 136.35 187.44 L 135.79 188.26 C 135.28 188.99 135.46 189.99 136.19 190.49 C 136.92 191.00 137.92 190.82 138.43 190.09 L 138.99 189.27 C 139.50 188.54 139.32 187.54 138.59 187.03 C 137.86 186.53 136.86 186.71 136.35 187.44 Z M 135.79 188.26 L 135.21 189.09 C 134.71 189.82 134.89 190.82 135.62 191.32 C 136.34 191.83 137.34 191.65 137.85 190.92 L 138.42 190.09 C 138.93 189.36 138.75 188.36 138.02 187.86 C 137.29 187.35 136.29 187.53 135.79 188.26 Z M 135.21 189.10 L 134.64 189.94 C 134.14 190.67 134.32 191.66 135.05 192.16 C 135.77 192.66 136.77 192.48 137.27 191.75 L 137.85 190.91 C 138.35 190.18 138.16 189.19 137.44 188.69 C 136.71 188.19 135.71 188.37 135.21 189.10 Z M 134.64 189.95 L 134.07 190.78 C 133.58 191.51 133.76 192.50 134.49 192.99 C 135.22 193.49 136.21 193.30 136.70 192.57 L 137.27 191.74 C 137.76 191.01 137.57 190.02 136.85 189.53 C 136.12 189.03 135.13 189.22 134.64 189.95 Z M 134.07 190.79 L 133.51 191.63 C 133.02 192.35 133.21 193.34 133.93 193.83 C 134.66 194.32 135.65 194.13 136.14 193.40 L 136.70 192.56 C 137.19 191.84 137.00 190.85 136.27 190.36 C 135.55 189.87 134.56 190.06 134.07 190.79 Z M 133.51 191.63 L 132.95 192.46 C 132.46 193.18 132.65 194.17 133.38 194.65 C 134.10 195.14 135.08 194.95 135.57 194.23 L 136.13 193.40 C 136.62 192.67 136.43 191.69 135.71 191.20 C 134.98 190.72 134.00 190.91 133.51 191.63 Z M 132.96 192.46 L 132.40 193.29 C 131.91 194.01 132.10 194.98 132.82 195.47 C 133.54 195.96 134.52 195.77 135.00 195.05 L 135.56 194.23 C 136.05 193.51 135.87 192.53 135.15 192.04 C 134.43 191.55 133.45 191.74 132.96 192.46 Z M 132.41 193.28 L 131.82 194.14 C 131.33 194.85 131.52 195.83 132.23 196.32 C 132.94 196.81 133.92 196.62 134.41 195.91 L 134.99 195.06 C 135.48 194.34 135.30 193.37 134.59 192.88 C 133.87 192.39 132.90 192.57 132.41 193.28 Z M 131.83 194.14 L 131.26 194.96 C 130.77 195.67 130.95 196.64 131.66 197.13 C 132.37 197.62 133.34 197.44 133.83 196.74 L 134.40 195.91 C 134.89 195.20 134.71 194.23 134.00 193.74 C 133.29 193.26 132.32 193.43 131.83 194.14 Z M 131.28 194.96 L 130.72 195.76 C 130.23 196.46 130.40 197.43 131.10 197.92 C 131.80 198.41 132.77 198.23 133.26 197.53 L 133.81 196.74 C 134.30 196.04 134.13 195.07 133.43 194.58 C 132.73 194.09 131.77 194.26 131.28 194.96 Z M 130.73 195.76 L 130.16 196.57 C 129.67 197.26 129.84 198.22 130.53 198.71 C 131.23 199.20 132.19 199.04 132.68 198.34 L 133.25 197.53 C 133.74 196.84 133.57 195.88 132.87 195.39 C 132.18 194.90 131.22 195.06 130.73 195.76 Z M 130.17 196.57 L 129.58 197.39 C 129.09 198.08 129.26 199.04 129.95 199.53 C 130.64 200.02 131.59 199.86 132.08 199.17 L 132.67 198.34 C 133.16 197.65 132.99 196.70 132.31 196.21 C 131.62 195.72 130.66 195.88 130.17 196.57 Z M 129.60 197.39 L 129.02 198.20 C 128.53 198.88 128.68 199.83 129.37 200.32 C 130.05 200.81 131.00 200.66 131.49 199.97 L 132.07 199.17 C 132.56 198.48 132.40 197.53 131.72 197.04 C 131.04 196.55 130.09 196.71 129.60 197.39 Z M 129.03 198.20 L 128.45 198.99 C 127.96 199.66 128.11 200.61 128.79 201.10 C 129.46 201.59 130.41 201.44 130.90 200.77 L 131.48 199.98 C 131.97 199.30 131.82 198.35 131.14 197.86 C 130.47 197.37 129.52 197.52 129.03 198.20 Z M 128.47 198.99 L 127.94 199.70 C 127.45 200.37 127.59 201.31 128.26 201.80 C 128.93 202.30 129.87 202.15 130.36 201.48 L 130.89 200.77 C 131.38 200.10 131.24 199.16 130.57 198.67 C 129.90 198.17 128.96 198.32 128.47 198.99 Z M 127.95 199.70 L 127.39 200.45 C 126.90 201.12 127.04 202.05 127.70 202.55 C 128.37 203.04 129.30 202.90 129.80 202.24 L 130.35 201.48 C 130.85 200.82 130.71 199.88 130.04 199.39 C 129.38 198.90 128.44 199.04 127.95 199.70 Z M 127.40 200.46 L 126.78 201.29 C 126.29 201.95 126.43 202.88 127.09 203.37 C 127.75 203.86 128.68 203.73 129.17 203.07 L 129.79 202.23 C 130.28 201.57 130.14 200.64 129.48 200.15 C 128.82 199.66 127.89 199.80 127.40 200.46 Z M 126.78 201.29 L 126.12 202.18 C 125.64 202.84 125.77 203.77 126.43 204.26 C 127.09 204.75 128.02 204.61 128.50 203.95 L 129.16 203.06 C 129.65 202.40 129.52 201.48 128.86 200.99 C 128.20 200.50 127.27 200.64 126.78 201.29 Z M 126.13 202.19 L 125.60 202.90 C 125.11 203.56 125.25 204.48 125.91 204.97 C 126.56 205.45 127.49 205.32 127.97 204.66 L 128.50 203.95 C 128.99 203.29 128.85 202.37 128.19 201.88 C 127.54 201.40 126.61 201.53 126.13 202.19 Z M 125.60 202.91 L 125.03 203.68 C 124.55 204.33 124.69 205.25 125.34 205.74 C 126.00 206.22 126.92 206.08 127.40 205.43 L 127.97 204.66 C 128.45 204.00 128.31 203.08 127.66 202.60 C 127.01 202.11 126.08 202.25 125.60 202.91 Z M 125.04 203.68 L 124.43 204.50 C 123.95 205.15 124.09 206.07 124.74 206.55 C 125.40 207.03 126.31 206.89 126.80 206.24 L 127.40 205.42 C 127.88 204.77 127.74 203.85 127.09 203.37 C 126.44 202.89 125.52 203.03 125.04 203.68 Z M 124.44 204.50 L 123.81 205.35 C 123.33 206.00 123.47 206.91 124.12 207.39 C 124.77 207.87 125.69 207.73 126.17 207.08 L 126.79 206.24 C 127.27 205.58 127.13 204.67 126.48 204.19 C 125.83 203.71 124.92 203.85 124.44 204.50 Z M 123.82 205.35 L 123.18 206.21 C 122.70 206.86 122.84 207.78 123.49 208.25 C 124.14 208.73 125.05 208.59 125.53 207.95 L 126.17 207.08 C 126.64 206.43 126.51 205.52 125.86 205.04 C 125.21 204.56 124.29 204.70 123.82 205.35 Z M 123.18 206.22 L 122.83 206.70 C 122.35 207.34 122.49 208.25 123.14 208.73 C 123.78 209.21 124.69 209.07 125.17 208.42 L 125.52 207.94 C 126.00 207.30 125.86 206.38 125.22 205.91 C 124.57 205.43 123.66 205.57 123.18 206.22 Z"
      fill="black"
      fill-rule="nonzero" /><path d="M 156.52 177.44 L 157.37 177.87 C 158.12 178.25 159.04 177.95 159.42 177.19 C 159.80 176.44 159.50 175.52 158.74 175.14 L 157.89 174.71 C 157.14 174.33 156.22 174.63 155.84 175.39 C 155.46 176.14 155.76 177.06 156.52 177.44 Z M 157.34 177.85 L 158.20 178.31 C 158.95 178.71 159.87 178.43 160.27 177.68 C 160.67 176.93 160.38 176.01 159.64 175.61 L 158.77 175.15 C 158.03 174.76 157.10 175.04 156.71 175.79 C 156.31 176.53 156.59 177.46 157.34 177.85 Z M 158.15 178.28 L 159.04 178.80 C 159.77 179.23 160.71 178.98 161.13 178.25 C 161.56 177.52 161.31 176.58 160.58 176.16 L 159.69 175.64 C 158.96 175.22 158.02 175.46 157.60 176.19 C 157.17 176.92 157.42 177.86 158.15 178.28 Z M 158.98 178.77 L 159.78 179.29 C 160.49 179.75 161.44 179.54 161.90 178.83 C 162.36 178.12 162.16 177.17 161.45 176.71 L 160.64 176.19 C 159.93 175.73 158.98 175.94 158.52 176.65 C 158.06 177.36 158.27 178.31 158.98 178.77 Z M 159.73 179.26 L 160.48 179.79 C 161.17 180.28 162.13 180.11 162.62 179.41 C 163.11 178.71 162.94 177.75 162.25 177.26 L 161.50 176.74 C 160.80 176.25 159.84 176.42 159.35 177.11 C 158.86 177.81 159.03 178.77 159.73 179.26 Z M 160.44 179.77 L 161.23 180.36 C 161.92 180.87 162.89 180.72 163.40 180.03 C 163.91 179.34 163.77 178.37 163.07 177.86 L 162.29 177.27 C 161.59 176.76 160.62 176.91 160.11 177.60 C 159.60 178.29 159.75 179.26 160.44 179.77 Z M 161.20 180.35 L 162.04 181.00 C 162.73 181.52 163.71 181.39 164.24 180.70 C 164.76 180.01 164.63 179.03 163.94 178.50 L 163.10 177.86 C 162.41 177.34 161.43 177.47 160.90 178.16 C 160.38 178.84 160.51 179.83 161.20 180.35 Z M 162.03 181.00 L 162.91 181.69 C 163.60 182.22 164.59 182.09 165.13 181.40 C 165.66 180.72 165.54 179.72 164.85 179.19 L 163.96 178.50 C 163.27 177.97 162.28 178.09 161.74 178.78 C 161.21 179.47 161.34 180.46 162.03 181.00 Z M 162.90 181.69 L 163.69 182.30 C 164.38 182.83 165.37 182.71 165.91 182.02 C 166.45 181.33 166.32 180.33 165.63 179.79 L 164.85 179.19 C 164.16 178.65 163.17 178.77 162.63 179.46 C 162.09 180.15 162.21 181.15 162.90 181.69 Z M 163.68 182.30 L 164.49 182.93 C 165.18 183.47 166.18 183.34 166.72 182.65 C 167.26 181.96 167.14 180.96 166.44 180.42 L 165.64 179.79 C 164.95 179.25 163.95 179.38 163.41 180.07 C 162.87 180.76 162.99 181.76 163.68 182.30 Z M 164.49 182.93 L 165.30 183.56 C 165.99 184.11 166.99 183.98 167.53 183.29 C 168.07 182.60 167.95 181.60 167.26 181.06 L 166.45 180.42 C 165.75 179.88 164.75 180.00 164.21 180.70 C 163.67 181.39 163.79 182.39 164.49 182.93 Z M 165.30 183.57 L 166.10 184.19 C 166.79 184.73 167.79 184.61 168.33 183.92 C 168.88 183.23 168.75 182.22 168.06 181.68 L 167.26 181.06 C 166.57 180.51 165.57 180.64 165.02 181.33 C 164.48 182.02 164.60 183.02 165.30 183.57 Z M 166.09 184.19 L 166.86 184.79 C 167.55 185.34 168.56 185.22 169.10 184.52 C 169.65 183.83 169.52 182.82 168.83 182.28 L 168.06 181.68 C 167.37 181.14 166.37 181.26 165.82 181.95 C 165.28 182.65 165.40 183.65 166.09 184.19 Z M 166.86 184.80 L 167.68 185.44 C 168.38 185.99 169.38 185.86 169.93 185.17 C 170.47 184.47 170.35 183.47 169.65 182.92 L 168.83 182.28 C 168.13 181.73 167.13 181.86 166.59 182.55 C 166.04 183.25 166.16 184.25 166.86 184.80 Z M 167.68 185.44 L 168.51 186.09 C 169.20 186.63 170.21 186.51 170.75 185.81 C 171.30 185.12 171.18 184.11 170.48 183.57 L 169.65 182.92 C 168.96 182.38 167.95 182.50 167.41 183.20 C 166.87 183.89 166.99 184.90 167.68 185.44 Z M 168.51 186.09 L 169.28 186.69 C 169.98 187.23 170.98 187.11 171.52 186.42 C 172.07 185.72 171.95 184.71 171.25 184.17 L 170.48 183.57 C 169.78 183.02 168.78 183.15 168.23 183.84 C 167.69 184.54 167.81 185.55 168.51 186.09 Z M 169.28 186.69 L 170.03 187.27 C 170.72 187.81 171.73 187.69 172.27 186.99 C 172.81 186.30 172.69 185.29 171.99 184.75 L 171.25 184.17 C 170.55 183.63 169.55 183.75 169.00 184.45 C 168.46 185.14 168.59 186.15 169.28 186.69 Z M 170.03 187.27 L 170.77 187.85 C 171.47 188.39 172.48 188.27 173.02 187.57 C 173.56 186.87 173.43 185.87 172.73 185.33 L 171.99 184.75 C 171.29 184.21 170.29 184.33 169.75 185.03 C 169.20 185.73 169.33 186.73 170.03 187.27 Z M 170.78 187.85 L 171.54 188.45 C 172.24 188.99 173.25 188.86 173.79 188.16 C 174.33 187.46 174.20 186.46 173.50 185.92 L 172.73 185.32 C 172.03 184.78 171.03 184.91 170.49 185.61 C 169.95 186.31 170.08 187.31 170.78 187.85 Z M 171.55 188.45 L 172.34 189.05 C 173.03 189.59 174.04 189.46 174.57 188.76 C 175.11 188.06 174.98 187.06 174.28 186.52 L 173.50 185.92 C 172.80 185.38 171.79 185.51 171.26 186.21 C 170.72 186.91 170.85 187.91 171.55 188.45 Z M 172.34 189.06 L 173.14 189.67 C 173.84 190.21 174.85 190.07 175.38 189.37 C 175.92 188.68 175.78 187.67 175.08 187.14 L 174.28 186.52 C 173.58 185.99 172.58 186.12 172.04 186.82 C 171.51 187.52 171.64 188.52 172.34 189.06 Z M 173.15 189.67 L 173.97 190.30 C 174.67 190.83 175.67 190.70 176.20 190.00 C 176.74 189.30 176.60 188.30 175.90 187.76 L 175.08 187.14 C 174.38 186.60 173.38 186.74 172.85 187.44 C 172.31 188.14 172.45 189.14 173.15 189.67 Z M 173.97 190.30 L 174.75 190.89 C 175.45 191.42 176.45 191.28 176.98 190.58 C 177.51 189.88 177.37 188.88 176.67 188.35 L 175.90 187.76 C 175.20 187.23 174.20 187.37 173.66 188.07 C 173.13 188.77 173.27 189.77 173.97 190.30 Z M 174.75 190.89 L 175.54 191.48 C 176.24 192.01 177.24 191.86 177.77 191.16 C 178.30 190.46 178.15 189.46 177.45 188.93 L 176.66 188.34 C 175.96 187.82 174.96 187.96 174.44 188.66 C 173.91 189.36 174.05 190.36 174.75 190.89 Z M 175.55 191.48 L 176.35 192.08 C 177.06 192.60 178.05 192.46 178.58 191.75 C 179.10 191.04 178.95 190.05 178.25 189.53 L 177.44 188.93 C 176.74 188.41 175.74 188.55 175.22 189.26 C 174.70 189.96 174.84 190.96 175.55 191.48 Z M 176.36 192.08 L 177.18 192.69 C 177.89 193.20 178.89 193.05 179.40 192.34 C 179.92 191.63 179.77 190.64 179.06 190.12 L 178.24 189.52 C 177.53 189.00 176.53 189.16 176.02 189.86 C 175.50 190.57 175.65 191.57 176.36 192.08 Z M 177.20 192.69 L 178.03 193.29 C 178.74 193.80 179.73 193.64 180.24 192.93 C 180.75 192.22 180.59 191.23 179.88 190.72 L 179.05 190.12 C 178.34 189.61 177.35 189.77 176.83 190.48 C 176.32 191.19 176.48 192.18 177.20 192.69 Z M 178.04 193.30 L 178.86 193.87 C 179.57 194.38 180.56 194.21 181.07 193.49 C 181.57 192.78 181.40 191.79 180.69 191.29 L 179.87 190.71 C 179.15 190.21 178.17 190.38 177.66 191.09 C 177.16 191.80 177.33 192.79 178.04 193.30 Z M 178.87 193.88 L 179.70 194.45 C 180.42 194.95 181.40 194.77 181.90 194.06 C 182.40 193.34 182.22 192.36 181.50 191.86 L 180.67 191.28 C 179.95 190.79 178.97 190.97 178.48 191.68 C 177.98 192.40 178.16 193.38 178.87 193.88 Z M 179.72 194.46 L 180.55 195.02 C 181.27 195.51 182.25 195.32 182.74 194.60 C 183.23 193.89 183.04 192.91 182.32 192.42 L 181.49 191.85 C 180.77 191.37 179.79 191.56 179.30 192.27 C 178.81 192.99 179.00 193.97 179.72 194.46 Z M 180.57 195.03 L 181.40 195.58 C 182.13 196.06 183.10 195.86 183.58 195.14 C 184.05 194.41 183.86 193.44 183.13 192.96 L 182.30 192.41 C 181.58 191.94 180.61 192.14 180.13 192.86 C 179.65 193.58 179.85 194.55 180.57 195.03 Z M 181.42 195.59 L 182.27 196.13 C 183.00 196.60 183.96 196.39 184.43 195.66 C 184.90 194.93 184.69 193.97 183.96 193.50 L 183.11 192.96 C 182.39 192.49 181.42 192.70 180.95 193.43 C 180.49 194.15 180.70 195.12 181.42 195.59 Z M 182.29 196.14 L 183.17 196.68 C 183.90 197.14 184.86 196.91 185.32 196.18 C 185.77 195.45 185.55 194.49 184.82 194.04 L 183.94 193.49 C 183.20 193.04 182.24 193.26 181.79 193.99 C 181.34 194.72 181.56 195.69 182.29 196.14 Z M 183.20 196.69 L 184.06 197.21 C 184.80 197.65 185.75 197.41 186.19 196.67 C 186.63 195.94 186.39 194.99 185.66 194.55 L 184.79 194.03 C 184.06 193.59 183.10 193.83 182.66 194.56 C 182.22 195.30 182.46 196.25 183.20 196.69 Z M 184.08 197.22 L 184.94 197.71 C 185.68 198.14 186.62 197.88 187.05 197.14 C 187.48 196.40 187.22 195.46 186.48 195.03 L 185.63 194.54 C 184.89 194.11 183.95 194.37 183.52 195.10 C 183.09 195.84 183.35 196.79 184.08 197.22 Z M 184.96 197.72 L 185.80 198.18 C 186.54 198.60 187.48 198.33 187.90 197.59 C 188.31 196.84 188.04 195.91 187.30 195.49 L 186.46 195.02 C 185.72 194.61 184.78 194.88 184.36 195.62 C 183.95 196.36 184.22 197.30 184.96 197.72 Z M 185.83 198.19 L 186.72 198.67 C 187.47 199.07 188.40 198.79 188.80 198.04 C 189.20 197.30 188.92 196.37 188.17 195.97 L 187.28 195.49 C 186.53 195.09 185.60 195.37 185.20 196.11 C 184.80 196.86 185.08 197.79 185.83 198.19 Z M 186.75 198.67 L 187.65 199.14 C 188.40 199.52 189.32 199.23 189.70 198.48 C 190.09 197.73 189.79 196.81 189.05 196.43 L 188.15 195.96 C 187.40 195.58 186.48 195.87 186.09 196.62 C 185.70 197.37 186.00 198.29 186.75 198.67 Z M 187.67 199.14 L 188.57 199.58 C 189.32 199.95 190.23 199.65 190.60 198.90 C 190.97 198.14 190.66 197.23 189.91 196.86 L 189.02 196.42 C 188.27 196.05 187.36 196.36 186.99 197.11 C 186.62 197.86 186.92 198.77 187.67 199.14 Z M 188.59 199.59 L 189.48 200.00 C 190.23 200.36 191.13 200.04 191.49 199.29 C 191.84 198.53 191.52 197.63 190.77 197.28 L 189.88 196.86 C 189.13 196.50 188.23 196.83 187.87 197.58 C 187.52 198.33 187.84 199.23 188.59 199.59 Z M 189.51 200.01 L 190.42 200.42 C 191.18 200.76 192.07 200.42 192.41 199.67 C 192.75 198.91 192.41 198.02 191.65 197.68 L 190.74 197.27 C 189.98 196.93 189.09 197.27 188.75 198.03 C 188.42 198.78 188.75 199.67 189.51 200.01 Z M 190.46 200.43 L 191.38 200.82 C 192.14 201.14 193.02 200.79 193.34 200.03 C 193.66 199.27 193.30 198.39 192.55 198.07 L 191.62 197.68 C 190.86 197.36 189.99 197.71 189.66 198.47 C 189.34 199.23 189.70 200.10 190.46 200.43 Z M 191.42 200.82 L 192.34 201.19 C 193.10 201.49 193.97 201.12 194.27 200.36 C 194.57 199.60 194.20 198.73 193.44 198.43 L 192.51 198.07 C 191.75 197.76 190.89 198.14 190.58 198.90 C 190.28 199.66 190.66 200.52 191.42 200.82 Z M 192.38 201.20 L 193.31 201.54 C 194.07 201.82 194.92 201.43 195.20 200.66 C 195.48 199.90 195.09 199.05 194.33 198.77 L 193.40 198.43 C 192.63 198.15 191.78 198.54 191.50 199.30 C 191.22 200.07 191.62 200.92 192.38 201.20 Z M 193.35 201.54 L 194.30 201.86 C 195.06 202.12 195.90 201.71 196.15 200.94 C 196.41 200.17 196.00 199.34 195.23 199.08 L 194.28 198.76 C 193.52 198.50 192.68 198.92 192.43 199.69 C 192.17 200.45 192.58 201.29 193.35 201.54 Z M 194.34 201.87 L 195.30 202.16 C 196.07 202.39 196.88 201.95 197.12 201.18 C 197.35 200.41 196.91 199.60 196.14 199.36 L 195.19 199.07 C 194.41 198.84 193.60 199.27 193.36 200.05 C 193.13 200.82 193.57 201.63 194.34 201.87 Z M 195.34 202.16 L 196.31 202.42 C 197.08 202.63 197.88 202.17 198.09 201.39 C 198.30 200.62 197.84 199.82 197.06 199.61 L 196.09 199.36 C 195.32 199.15 194.52 199.61 194.32 200.38 C 194.11 201.16 194.57 201.95 195.34 202.16 Z M 196.36 202.43 L 197.33 202.65 C 198.11 202.83 198.89 202.35 199.07 201.57 C 199.25 200.79 198.76 200.02 197.99 199.84 L 197.01 199.61 C 196.23 199.43 195.46 199.91 195.28 200.69 C 195.10 201.47 195.58 202.25 196.36 202.43 Z M 197.39 202.66 L 198.35 202.84 C 199.13 202.99 199.88 202.48 200.03 201.70 C 200.19 200.92 199.68 200.17 198.90 200.02 L 197.93 199.83 C 197.15 199.68 196.40 200.19 196.25 200.97 C 196.09 201.75 196.60 202.51 197.39 202.66 Z M 198.40 202.85 L 199.37 203.00 C 200.16 203.13 200.89 202.59 201.02 201.81 C 201.14 201.03 200.60 200.29 199.82 200.17 L 198.85 200.01 C 198.06 199.89 197.33 200.42 197.20 201.21 C 197.08 201.99 197.61 202.72 198.40 202.85 Z M 199.42 203.01 L 200.42 203.13 C 201.20 203.23 201.92 202.67 202.01 201.89 C 202.11 201.10 201.56 200.39 200.77 200.29 L 199.77 200.16 C 198.99 200.06 198.27 200.62 198.18 201.41 C 198.08 202.19 198.63 202.91 199.42 203.01 Z M 200.46 203.13 L 201.48 203.23 C 202.27 203.30 202.97 202.73 203.04 201.94 C 203.11 201.15 202.54 200.46 201.75 200.38 L 200.73 200.29 C 199.94 200.21 199.24 200.79 199.17 201.57 C 199.10 202.36 199.67 203.06 200.46 203.13 Z M 201.52 203.23 L 202.49 203.30 C 203.28 203.35 203.96 202.76 204.01 201.97 C 204.07 201.18 203.47 200.50 202.69 200.45 L 201.72 200.38 C 200.93 200.33 200.25 200.92 200.19 201.71 C 200.14 202.49 200.73 203.17 201.52 203.23 Z M 202.52 203.30 L 203.51 203.35 C 204.30 203.39 204.97 202.78 205.01 202.00 C 205.05 201.21 204.44 200.54 203.65 200.50 L 202.66 200.45 C 201.87 200.41 201.20 201.01 201.16 201.80 C 201.12 202.59 201.73 203.26 202.52 203.30 Z M 203.53 203.35 L 204.53 203.39 C 205.32 203.42 205.98 202.80 206.01 202.02 C 206.05 201.23 205.43 200.57 204.64 200.54 L 203.64 200.50 C 202.85 200.47 202.19 201.08 202.16 201.87 C 202.13 202.65 202.74 203.32 203.53 203.35 Z M 204.54 203.39 L 205.56 203.42 C 206.35 203.45 207.01 202.83 207.03 202.04 C 207.06 201.25 206.44 200.59 205.65 200.57 L 204.64 200.54 C 203.85 200.51 203.19 201.13 203.16 201.92 C 203.14 202.70 203.76 203.36 204.54 203.39 Z M 205.56 203.42 L 205.84 203.43 C 206.63 203.45 207.29 202.83 207.31 202.05 C 207.34 201.26 206.72 200.60 205.93 200.58 L 205.65 200.57 C 204.86 200.55 204.21 201.16 204.18 201.95 C 204.16 202.74 204.78 203.40 205.56 203.42 Z"
      fill="black"
      fill-rule="nonzero" /></svg>