<svg xmlns="http://www.w3.org/2000/svg" width="300" height="300" viewBox="0 0 300 300">
<path d="M 122.00 110.91 L 120.89 110.44 C 120.04 110.08 119.07 110.47 118.71 111.31 C 118.35 112.16 118.74 113.14 119.59 113.50 L 120.70 113.97 C 121.55 114.33 122.52 113.94 122.88 113.09 C 123.24 112.25 122.85 111.27 122.00 110.91 Z M 120.72 110.35 L 119.73 110.05 C 118.84 109.79 117.90 110.30 117.63 111.19 C 117.36 112.08 117.87 113.02 118.76 113.29 L 119.76 113.58 C 120.65 113.85 121.59 113.34 121.85 112.45 C 122.12 111.56 121.61 110.62 120.72 110.35 Z M 119.11 109.97 L 118.36 110.03 C 117.42 110.10 116.72 110.93 116.80 111.87 C 116.87 112.81 117.70 113.51 118.64 113.43 L 119.39 113.37 C 120.33 113.30 121.03 112.47 120.95 111.53 C 120.87 110.59 120.05 109.89 119.11 109.97 Z M 117.11 110.73 L 116.72 111.27 C 116.17 112.04 116.34 113.11 117.11 113.66 C 117.87 114.22 118.95 114.04 119.50 113.28 L 119.89 112.73 C 120.45 111.97 120.27 110.90 119.51 110.34 C 118.74 109.79 117.67 109.96 117.11 110.73 Z M 116.42 112.12 L 116.33 113.06 C 116.25 113.99 116.94 114.82 117.87 114.90 C 118.81 114.99 119.63 114.30 119.72 113.36 L 119.80 112.43 C 119.89 111.49 119.20 110.67 118.26 110.58 C 117.33 110.50 116.50 111.19 116.42 112.12 Z M 116.36 113.42 L 116.50 114.59 C 116.61 115.51 117.45 116.16 118.37 116.05 C 119.30 115.94 119.95 115.10 119.84 114.18 L 119.69 113.00 C 119.58 112.08 118.74 111.43 117.82 111.54 C 116.90 111.66 116.24 112.49 116.36 113.42 Z M 116.56 114.76 L 116.79 115.78 C 117.00 116.67 117.89 117.22 118.78 117.02 C 119.67 116.81 120.23 115.92 120.02 115.03 L 119.78 114.01 C 119.57 113.12 118.69 112.56 117.79 112.77 C 116.90 112.98 116.35 113.87 116.56 114.76 Z M 116.85 115.86 L 117.12 116.77 C 117.37 117.63 118.27 118.12 119.13 117.87 C 119.99 117.61 120.48 116.71 120.23 115.85 L 119.96 114.95 C 119.71 114.09 118.81 113.60 117.95 113.85 C 117.09 114.10 116.60 115.00 116.85 115.86 Z M 117.17 116.81 L 117.48 117.74 C 117.75 118.57 118.65 119.02 119.48 118.75 C 120.31 118.48 120.76 117.58 120.48 116.75 L 120.18 115.82 C 119.90 114.99 119.01 114.54 118.18 114.81 C 117.35 115.08 116.90 115.98 117.17 116.81 Z M 117.52 117.75 L 117.86 118.73 C 118.13 119.53 119.01 119.96 119.82 119.69 C 120.62 119.41 121.05 118.53 120.78 117.73 L 120.44 116.75 C 120.16 115.94 119.29 115.51 118.48 115.79 C 117.68 116.06 117.25 116.94 117.52 117.75 Z M 117.89 118.71 L 118.24 119.73 C 118.50 120.52 119.35 120.94 120.14 120.68 C 120.93 120.41 121.35 119.56 121.09 118.77 L 120.74 117.75 C 120.48 116.96 119.63 116.54 118.84 116.80 C 118.05 117.07 117.63 117.92 117.89 118.71 Z M 118.25 119.70 L 118.56 120.67 C 118.81 121.45 119.64 121.88 120.42 121.63 C 121.20 121.38 121.63 120.55 121.38 119.77 L 121.07 118.80 C 120.82 118.02 119.99 117.59 119.21 117.84 C 118.43 118.09 118.00 118.92 118.25 119.70 Z M 118.56 120.65 L 118.87 121.64 C 119.10 122.42 119.92 122.86 120.70 122.62 C 121.48 122.38 121.91 121.56 121.68 120.79 L 121.38 119.79 C 121.14 119.02 120.32 118.58 119.54 118.81 C 118.77 119.05 118.33 119.87 118.56 120.65 Z M 118.87 121.62 L 119.16 122.61 C 119.39 123.38 120.20 123.83 120.97 123.60 C 121.74 123.37 122.19 122.56 121.96 121.79 L 121.67 120.80 C 121.45 120.03 120.63 119.59 119.86 119.81 C 119.09 120.04 118.65 120.85 118.87 121.62 Z M 119.17 122.60 L 119.44 123.55 C 119.66 124.32 120.46 124.77 121.23 124.55 C 122.00 124.33 122.44 123.53 122.23 122.76 L 121.95 121.81 C 121.74 121.04 120.94 120.59 120.17 120.81 C 119.40 121.03 118.95 121.83 119.17 122.60 Z M 119.45 123.54 L 119.69 124.43 C 119.91 125.20 120.70 125.65 121.46 125.44 C 122.23 125.23 122.68 124.43 122.47 123.67 L 122.22 122.77 C 122.01 122.01 121.21 121.56 120.45 121.77 C 119.68 121.98 119.24 122.77 119.45 123.54 Z M 119.70 124.42 L 119.99 125.52 C 120.19 126.28 120.98 126.73 121.74 126.53 C 122.51 126.32 122.96 125.54 122.76 124.78 L 122.46 123.68 C 122.26 122.92 121.47 122.46 120.71 122.67 C 119.95 122.87 119.49 123.66 119.70 124.42 Z M 119.99 125.50 L 120.24 126.48 C 120.43 127.24 121.21 127.71 121.97 127.51 C 122.74 127.32 123.20 126.54 123.01 125.78 L 122.76 124.79 C 122.56 124.03 121.79 123.57 121.02 123.76 C 120.26 123.95 119.79 124.73 119.99 125.50 Z M 120.23 126.45 L 120.44 127.35 C 120.62 128.12 121.39 128.60 122.16 128.42 C 122.92 128.24 123.40 127.47 123.22 126.71 L 123.01 125.80 C 122.83 125.03 122.06 124.56 121.30 124.74 C 120.53 124.92 120.05 125.68 120.23 126.45 Z M 120.44 127.32 L 120.63 128.22 C 120.79 128.99 121.54 129.49 122.31 129.33 C 123.08 129.16 123.58 128.41 123.42 127.64 L 123.23 126.74 C 123.07 125.97 122.31 125.47 121.54 125.63 C 120.77 125.80 120.28 126.55 120.44 127.32 Z M 120.62 128.19 L 120.80 129.16 C 120.94 129.94 121.68 130.45 122.46 130.31 C 123.23 130.17 123.74 129.42 123.60 128.65 L 123.42 127.67 C 123.28 126.90 122.54 126.39 121.76 126.53 C 120.99 126.67 120.48 127.41 120.62 128.19 Z M 120.79 129.13 L 120.95 130.12 C 121.07 130.89 121.80 131.43 122.58 131.30 C 123.36 131.18 123.89 130.45 123.76 129.67 L 123.61 128.69 C 123.49 127.91 122.76 127.38 121.98 127.50 C 121.20 127.62 120.67 128.35 120.79 129.13 Z M 120.94 130.08 L 121.08 131.08 C 121.18 131.86 121.90 132.41 122.68 132.31 C 123.46 132.20 124.01 131.49 123.90 130.71 L 123.77 129.71 C 123.67 128.93 122.95 128.38 122.17 128.48 C 121.39 128.59 120.84 129.30 120.94 130.08 Z M 121.07 131.05 L 121.18 132.04 C 121.26 132.82 121.97 133.39 122.75 133.30 C 123.53 133.22 124.10 132.51 124.01 131.73 L 123.91 130.74 C 123.82 129.96 123.12 129.39 122.34 129.48 C 121.55 129.56 120.99 130.27 121.07 131.05 Z M 121.18 132.01 L 121.27 133.01 C 121.34 133.79 122.03 134.37 122.82 134.30 C 123.60 134.23 124.18 133.53 124.11 132.75 L 124.02 131.76 C 123.94 130.97 123.25 130.39 122.47 130.47 C 121.68 130.54 121.11 131.23 121.18 132.01 Z M 121.27 132.99 L 121.35 134.00 C 121.41 134.78 122.10 135.36 122.88 135.30 C 123.67 135.24 124.25 134.55 124.19 133.77 L 124.11 132.77 C 124.04 131.98 123.36 131.40 122.57 131.46 C 121.79 131.52 121.20 132.21 121.27 132.99 Z M 121.35 133.99 L 121.39 134.51 C 121.45 135.30 122.13 135.88 122.92 135.82 C 123.70 135.76 124.29 135.08 124.23 134.29 L 124.19 133.77 C 124.13 132.99 123.44 132.40 122.66 132.46 C 121.87 132.52 121.29 133.21 121.35 133.99 Z"
      fill="black"
      fill-rule="nonzero" /><path d="M 114.00 157.63 L 113.19 156.91 C 112.50 156.30 111.44 156.36 110.83 157.05 C 110.22 157.74 110.28 158.80 110.97 159.41 L 111.78 160.13 C 112.47 160.74 113.52 160.68 114.14 159.99 C 114.75 159.30 114.69 158.24 114.00 157.63 Z M 113.41 157.11 L 112.80 156.34 C 112.22 155.60 111.15 155.48 110.42 156.06 C 109.68 156.65 109.56 157.72 110.14 158.45 L 110.75 159.22 C 111.33 159.95 112.40 160.08 113.14 159.49 C 113.87 158.91 114.00 157.84 113.41 157.11 Z M 113.15 156.98 L 112.93 156.10 C 112.70 155.18 111.76 154.62 110.84 154.85 C 109.91 155.08 109.35 156.01 109.58 156.94 L 109.80 157.81 C 110.03 158.74 110.97 159.30 111.89 159.07 C 112.82 158.84 113.38 157.90 113.15 156.98 Z M 112.94 156.95 L 113.14 156.18 C 113.37 155.25 112.81 154.30 111.88 154.07 C 110.95 153.83 110.00 154.39 109.76 155.32 L 109.57 156.09 C 109.33 157.02 109.89 157.97 110.83 158.21 C 111.76 158.44 112.70 157.88 112.94 156.95 Z M 112.95 156.63 L 113.43 155.81 C 113.92 154.98 113.64 153.92 112.81 153.43 C 111.98 152.94 110.92 153.22 110.43 154.05 L 109.95 154.87 C 109.46 155.70 109.74 156.77 110.57 157.25 C 111.40 157.74 112.47 157.46 112.95 156.63 Z M 113.26 156.06 L 113.96 155.24 C 114.59 154.50 114.50 153.40 113.76 152.78 C 113.03 152.15 111.93 152.24 111.31 152.98 L 110.60 153.80 C 109.98 154.54 110.07 155.64 110.80 156.26 C 111.53 156.88 112.63 156.80 113.26 156.06 Z M 113.81 155.39 L 114.66 154.62 C 115.38 153.97 115.43 152.86 114.77 152.15 C 114.12 151.44 113.02 151.39 112.31 152.04 L 111.46 152.82 C 110.75 153.47 110.70 154.57 111.35 155.28 C 112.00 156.00 113.10 156.04 113.81 155.39 Z M 114.54 154.72 L 115.35 154.10 C 116.12 153.52 116.28 152.43 115.70 151.66 C 115.12 150.89 114.02 150.74 113.26 151.32 L 112.44 151.93 C 111.67 152.51 111.51 153.61 112.09 154.38 C 112.67 155.15 113.77 155.30 114.54 154.72 Z M 115.26 154.17 L 116.12 153.61 C 116.92 153.08 117.15 152.00 116.62 151.20 C 116.10 150.39 115.02 150.17 114.22 150.69 L 113.35 151.25 C 112.55 151.78 112.32 152.86 112.85 153.66 C 113.37 154.47 114.45 154.69 115.26 154.17 Z M 116.04 153.65 L 116.91 153.14 C 117.74 152.66 118.02 151.60 117.54 150.77 C 117.06 149.94 116.00 149.66 115.17 150.14 L 114.29 150.65 C 113.47 151.13 113.18 152.19 113.67 153.02 C 114.15 153.85 115.21 154.13 116.04 153.65 Z M 116.85 153.17 L 117.71 152.71 C 118.55 152.26 118.87 151.22 118.42 150.37 C 117.97 149.53 116.93 149.21 116.08 149.66 L 115.23 150.11 C 114.38 150.56 114.06 151.61 114.51 152.45 C 114.96 153.30 116.01 153.62 116.85 153.17 Z M 117.67 152.73 L 118.58 152.27 C 119.43 151.85 119.77 150.81 119.35 149.96 C 118.92 149.11 117.89 148.76 117.04 149.19 L 116.13 149.64 C 115.27 150.07 114.93 151.10 115.35 151.95 C 115.78 152.81 116.81 153.15 117.67 152.73 Z M 118.54 152.28 L 119.47 151.84 C 120.33 151.44 120.69 150.41 120.29 149.56 C 119.89 148.70 118.86 148.34 118.01 148.74 L 117.07 149.18 C 116.22 149.59 115.85 150.61 116.26 151.46 C 116.66 152.32 117.68 152.69 118.54 152.28 Z M 119.44 151.84 L 120.33 151.44 C 121.18 151.06 121.56 150.05 121.18 149.19 C 120.79 148.33 119.78 147.95 118.93 148.34 L 118.04 148.74 C 117.18 149.13 116.80 150.13 117.19 150.99 C 117.58 151.85 118.58 152.23 119.44 151.84 Z M 120.31 151.44 L 121.17 151.06 C 122.03 150.68 122.41 149.68 122.04 148.83 C 121.66 147.98 120.67 147.59 119.81 147.96 L 118.95 148.34 C 118.09 148.72 117.70 149.72 118.08 150.57 C 118.45 151.42 119.45 151.81 120.31 151.44 Z M 121.17 151.05 L 122.05 150.66 C 122.90 150.29 123.29 149.30 122.91 148.45 C 122.54 147.60 121.55 147.21 120.71 147.59 L 119.82 147.97 C 118.97 148.34 118.58 149.33 118.96 150.18 C 119.33 151.03 120.32 151.42 121.17 151.05 Z M 122.05 150.65 L 122.96 150.25 C 123.80 149.88 124.18 148.90 123.81 148.05 C 123.44 147.21 122.46 146.83 121.61 147.20 L 120.71 147.60 C 119.86 147.97 119.48 148.95 119.85 149.79 C 120.22 150.64 121.21 151.02 122.05 150.65 Z M 122.95 150.24 L 123.88 149.83 C 124.72 149.46 125.10 148.48 124.73 147.65 C 124.36 146.81 123.38 146.43 122.54 146.80 L 121.62 147.21 C 120.78 147.58 120.40 148.55 120.77 149.39 C 121.14 150.23 122.12 150.61 122.95 150.24 Z M 123.88 149.82 L 124.80 149.41 C 125.63 149.04 126.01 148.07 125.64 147.24 C 125.27 146.41 124.30 146.03 123.47 146.40 L 122.55 146.81 C 121.72 147.18 121.34 148.15 121.71 148.98 C 122.07 149.81 123.05 150.19 123.88 149.82 Z M 124.80 149.40 L 125.68 149.01 C 126.51 148.64 126.88 147.68 126.52 146.85 C 126.15 146.03 125.19 145.65 124.36 146.02 L 123.48 146.41 C 122.65 146.78 122.28 147.74 122.64 148.57 C 123.01 149.39 123.97 149.77 124.80 149.40 Z M 125.68 149.00 L 126.59 148.60 C 127.41 148.24 127.78 147.28 127.42 146.46 C 127.05 145.64 126.10 145.27 125.28 145.63 L 124.37 146.03 C 123.55 146.39 123.18 147.35 123.54 148.17 C 123.90 148.99 124.86 149.36 125.68 149.00 Z M 126.58 148.59 L 127.51 148.18 C 128.33 147.83 128.70 146.88 128.34 146.06 C 127.99 145.24 127.03 144.87 126.22 145.23 L 125.28 145.64 C 124.47 145.99 124.10 146.94 124.45 147.76 C 124.81 148.58 125.76 148.95 126.58 148.59 Z M 127.50 148.18 L 128.44 147.77 C 129.25 147.42 129.63 146.48 129.28 145.66 C 128.93 144.85 127.98 144.48 127.17 144.83 L 126.23 145.24 C 125.42 145.59 125.04 146.53 125.39 147.34 C 125.75 148.15 126.69 148.53 127.50 148.18 Z M 128.43 147.76 L 129.34 147.37 C 130.15 147.03 130.53 146.09 130.18 145.28 C 129.84 144.48 128.90 144.10 128.09 144.45 L 127.18 144.84 C 126.37 145.18 126.00 146.12 126.34 146.92 C 126.69 147.73 127.62 148.11 128.43 147.76 Z M 129.34 147.36 L 130.26 146.97 C 131.07 146.63 131.44 145.70 131.10 144.90 C 130.76 144.10 129.83 143.72 129.03 144.06 L 128.10 144.45 C 127.30 144.79 126.92 145.72 127.27 146.52 C 127.61 147.33 128.53 147.70 129.34 147.36 Z M 130.26 146.96 L 131.19 146.57 C 131.98 146.23 132.36 145.31 132.02 144.51 C 131.68 143.71 130.76 143.34 129.96 143.68 L 129.04 144.07 C 128.24 144.41 127.86 145.33 128.20 146.13 C 128.54 146.92 129.46 147.30 130.26 146.96 Z M 131.18 146.56 L 132.10 146.17 C 132.89 145.83 133.27 144.92 132.93 144.13 C 132.59 143.33 131.68 142.96 130.89 143.30 L 129.97 143.69 C 129.18 144.02 128.81 144.94 129.14 145.73 C 129.48 146.52 130.39 146.89 131.18 146.56 Z M 132.10 146.16 L 133.04 145.76 C 133.82 145.43 134.19 144.52 133.86 143.73 C 133.52 142.94 132.62 142.58 131.83 142.91 L 130.89 143.31 C 130.10 143.64 129.74 144.55 130.07 145.34 C 130.40 146.12 131.31 146.49 132.10 146.16 Z M 133.03 145.75 L 133.95 145.36 C 134.74 145.03 135.10 144.13 134.77 143.35 C 134.44 142.56 133.54 142.20 132.76 142.53 L 131.83 142.92 C 131.05 143.25 130.69 144.15 131.02 144.93 C 131.35 145.72 132.25 146.08 133.03 145.75 Z M 133.94 145.35 L 134.86 144.97 C 135.64 144.65 136.00 143.75 135.68 142.97 C 135.35 142.20 134.46 141.83 133.68 142.15 L 132.77 142.54 C 131.99 142.86 131.62 143.76 131.95 144.53 C 132.27 145.31 133.17 145.68 133.94 145.35 Z M 134.85 144.97 L 135.76 144.59 C 136.53 144.27 136.90 143.39 136.59 142.61 C 136.27 141.84 135.38 141.47 134.61 141.79 L 133.70 142.16 C 132.92 142.48 132.55 143.36 132.87 144.14 C 133.19 144.91 134.07 145.28 134.85 144.97 Z M 135.74 144.59 L 136.67 144.22 C 137.44 143.91 137.82 143.03 137.51 142.26 C 137.20 141.49 136.33 141.11 135.55 141.42 L 134.63 141.79 C 133.85 142.10 133.48 142.97 133.79 143.75 C 134.09 144.52 134.97 144.90 135.74 144.59 Z M 136.66 144.21 L 137.59 143.85 C 138.36 143.55 138.74 142.68 138.44 141.91 C 138.14 141.14 137.27 140.76 136.50 141.06 L 135.57 141.42 C 134.80 141.72 134.42 142.59 134.72 143.36 C 135.02 144.13 135.89 144.51 136.66 144.21 Z M 137.58 143.84 L 138.52 143.48 C 139.28 143.19 139.66 142.32 139.37 141.56 C 139.07 140.79 138.21 140.41 137.45 140.71 L 136.51 141.07 C 135.74 141.36 135.36 142.22 135.66 142.99 C 135.95 143.76 136.82 144.14 137.58 143.84 Z M 138.51 143.47 L 139.44 143.11 C 140.20 142.82 140.58 141.97 140.29 141.20 C 140.00 140.44 139.14 140.06 138.38 140.36 L 137.45 140.71 C 136.69 141.01 136.31 141.86 136.60 142.62 C 136.89 143.39 137.75 143.77 138.51 143.47 Z M 139.44 143.11 L 140.39 142.74 C 141.14 142.45 141.52 141.60 141.23 140.84 C 140.93 140.08 140.08 139.70 139.33 140.00 L 138.38 140.36 C 137.62 140.66 137.25 141.51 137.54 142.27 C 137.83 143.02 138.68 143.40 139.44 143.11 Z M 140.39 142.73 L 141.33 142.36 C 142.08 142.07 142.45 141.22 142.16 140.47 C 141.86 139.72 141.01 139.34 140.26 139.64 L 139.32 140.01 C 138.57 140.30 138.20 141.15 138.49 141.90 C 138.79 142.65 139.64 143.03 140.39 142.73 Z M 141.33 142.35 L 142.26 141.99 C 143.01 141.69 143.37 140.84 143.08 140.10 C 142.78 139.35 141.93 138.98 141.18 139.28 L 140.26 139.65 C 139.51 139.94 139.15 140.79 139.44 141.54 C 139.74 142.29 140.58 142.65 141.33 142.35 Z M 142.26 141.98 L 143.18 141.61 C 143.92 141.31 144.28 140.47 143.98 139.72 C 143.68 138.98 142.83 138.62 142.09 138.92 L 141.18 139.29 C 140.44 139.59 140.08 140.43 140.38 141.18 C 140.68 141.92 141.52 142.28 142.26 141.98 Z M 143.18 141.60 L 144.14 141.21 C 144.87 140.91 145.22 140.06 144.92 139.33 C 144.62 138.59 143.78 138.24 143.04 138.54 L 142.09 138.93 C 141.35 139.23 141.00 140.08 141.30 140.81 C 141.60 141.55 142.44 141.90 143.18 141.60 Z M 144.14 141.20 L 145.08 140.81 C 145.81 140.50 146.16 139.66 145.85 138.93 C 145.54 138.19 144.70 137.85 143.97 138.16 L 143.03 138.55 C 142.30 138.85 141.95 139.70 142.26 140.43 C 142.57 141.16 143.41 141.51 144.14 141.20 Z M 145.09 140.80 L 145.99 140.41 C 146.72 140.10 147.06 139.26 146.75 138.53 C 146.44 137.80 145.60 137.47 144.87 137.78 L 143.96 138.16 C 143.23 138.47 142.89 139.32 143.21 140.05 C 143.52 140.77 144.36 141.11 145.09 140.80 Z M 146.00 140.41 L 146.88 140.03 C 147.60 139.71 147.93 138.87 147.62 138.14 C 147.30 137.42 146.46 137.09 145.74 137.40 L 144.86 137.78 C 144.14 138.10 143.81 138.94 144.12 139.67 C 144.44 140.39 145.28 140.72 146.00 140.41 Z M 146.89 140.02 L 147.76 139.63 C 148.48 139.31 148.80 138.47 148.48 137.75 C 148.16 137.03 147.31 136.70 146.59 137.02 L 145.73 137.41 C 145.01 137.73 144.68 138.57 145.00 139.30 C 145.33 140.02 146.17 140.34 146.89 140.02 Z M 147.77 139.62 L 148.65 139.22 C 149.37 138.89 149.68 138.04 149.35 137.32 C 149.02 136.61 148.17 136.30 147.46 136.63 L 146.58 137.03 C 145.86 137.36 145.55 138.21 145.88 138.93 C 146.21 139.64 147.06 139.95 147.77 139.62 Z M 148.67 139.21 L 149.61 138.75 C 150.32 138.41 150.62 137.56 150.28 136.85 C 149.94 136.14 149.08 135.84 148.37 136.19 L 147.44 136.64 C 146.73 136.98 146.43 137.83 146.77 138.54 C 147.11 139.25 147.96 139.55 148.67 139.21 Z M 149.63 138.74 L 150.51 138.30 C 151.21 137.95 151.50 137.10 151.15 136.39 C 150.80 135.69 149.94 135.40 149.24 135.75 L 148.35 136.20 C 147.65 136.55 147.37 137.40 147.72 138.11 C 148.07 138.81 148.93 139.10 149.63 138.74 Z M 150.52 138.30 L 151.37 137.86 C 152.07 137.51 152.34 136.65 151.98 135.95 C 151.62 135.25 150.77 134.97 150.07 135.33 L 149.22 135.76 C 148.52 136.12 148.25 136.98 148.61 137.68 C 148.96 138.38 149.82 138.66 150.52 138.30 Z M 151.37 137.86 L 152.26 137.40 C 152.96 137.03 153.23 136.17 152.87 135.47 C 152.51 134.78 151.64 134.51 150.95 134.87 L 150.06 135.33 C 149.36 135.70 149.09 136.56 149.45 137.26 C 149.82 137.95 150.68 138.22 151.37 137.86 Z M 152.27 137.39 L 153.19 136.91 C 153.89 136.54 154.15 135.68 153.79 134.98 C 153.42 134.29 152.56 134.02 151.86 134.39 L 150.94 134.87 C 150.25 135.24 149.98 136.10 150.34 136.80 C 150.71 137.49 151.57 137.76 152.27 137.39 Z M 153.19 136.91 L 154.13 136.41 C 154.83 136.04 155.09 135.18 154.72 134.49 C 154.36 133.79 153.49 133.52 152.80 133.89 L 151.86 134.39 C 151.16 134.76 150.90 135.62 151.27 136.31 C 151.63 137.01 152.50 137.28 153.19 136.91 Z M 154.13 136.41 L 154.30 136.32 C 154.99 135.95 155.26 135.09 154.89 134.40 C 154.52 133.70 153.66 133.44 152.97 133.80 L 152.80 133.89 C 152.10 134.26 151.84 135.12 152.21 135.82 C 152.57 136.51 153.44 136.78 154.13 136.41 Z"
      fill="black"
      fill-rule="nonzero" /><path d="M 138.30 110.59 L 139.15 111.10 C 139.88 111.53 140.83 111.29 141.26 110.56 C 141.69 109.82 141.45 108.88 140.72 108.44 L 139.86 107.94 C 139.13 107.51 138.19 107.75 137.75 108.48 C 137.32 109.22 137.56 110.16 138.30 110.59 Z M 138.98 111.11 L 139.78 111.68 C 140.52 112.21 141.54 112.04 142.07 111.31 C 142.60 110.57 142.43 109.54 141.69 109.01 L 140.89 108.44 C 140.15 107.91 139.13 108.08 138.60 108.81 C 138.07 109.55 138.24 110.58 138.98 111.11 Z M 139.49 111.56 L 140.19 112.28 C 140.86 112.97 141.96 112.99 142.65 112.32 C 143.34 111.64 143.36 110.54 142.69 109.85 L 141.99 109.13 C 141.31 108.44 140.21 108.43 139.52 109.10 C 138.83 109.77 138.81 110.87 139.49 111.56 Z M 139.89 112.01 L 140.40 112.84 C 140.92 113.69 142.04 113.96 142.89 113.44 C 143.74 112.91 144.01 111.80 143.49 110.95 L 142.98 110.12 C 142.46 109.27 141.34 109.00 140.49 109.52 C 139.64 110.04 139.37 111.16 139.89 112.01 Z M 140.24 112.58 L 140.62 113.51 C 140.99 114.45 142.06 114.90 143.00 114.53 C 143.94 114.15 144.40 113.08 144.02 112.14 L 143.64 111.21 C 143.27 110.27 142.20 109.81 141.26 110.19 C 140.32 110.57 139.86 111.64 140.24 112.58 Z M 140.54 113.32 L 140.81 114.31 C 141.09 115.29 142.10 115.87 143.09 115.59 C 144.07 115.32 144.64 114.30 144.37 113.32 L 144.10 112.33 C 143.82 111.35 142.81 110.77 141.82 111.04 C 140.84 111.32 140.27 112.33 140.54 113.32 Z M 140.77 114.17 L 140.96 115.16 C 141.16 116.16 142.13 116.82 143.14 116.63 C 144.15 116.43 144.81 115.45 144.61 114.45 L 144.42 113.46 C 144.22 112.45 143.24 111.79 142.24 111.99 C 141.23 112.18 140.57 113.16 140.77 114.17 Z M 140.93 115.04 L 141.06 116.04 C 141.20 117.06 142.13 117.78 143.16 117.65 C 144.18 117.52 144.90 116.58 144.77 115.56 L 144.64 114.56 C 144.50 113.54 143.57 112.82 142.54 112.95 C 141.52 113.08 140.80 114.02 140.93 115.04 Z M 141.05 115.94 L 141.12 116.91 C 141.20 117.94 142.09 118.71 143.13 118.64 C 144.16 118.56 144.93 117.66 144.85 116.63 L 144.78 115.66 C 144.70 114.63 143.81 113.86 142.78 113.93 C 141.75 114.01 140.97 114.91 141.05 115.94 Z M 141.11 116.84 L 141.15 117.84 C 141.18 118.87 142.05 119.68 143.09 119.65 C 144.12 119.61 144.93 118.74 144.90 117.71 L 144.86 116.71 C 144.82 115.67 143.96 114.86 142.92 114.90 C 141.89 114.93 141.08 115.80 141.11 116.84 Z M 141.14 117.80 L 141.16 118.74 C 141.18 119.78 142.03 120.61 143.07 120.59 C 144.11 120.57 144.93 119.72 144.92 118.68 L 144.90 117.74 C 144.88 116.70 144.03 115.88 142.99 115.89 C 141.95 115.91 141.13 116.77 141.14 117.80 Z M 141.16 118.73 L 141.16 119.68 C 141.17 120.72 142.02 121.56 143.06 121.55 C 144.10 121.54 144.94 120.69 144.93 119.65 L 144.92 118.70 C 144.91 117.66 144.06 116.82 143.02 116.83 C 141.98 116.84 141.15 117.69 141.16 118.73 Z M 141.16 119.68 L 141.16 120.69 C 141.17 121.73 142.01 122.57 143.05 122.57 C 144.10 122.56 144.94 121.72 144.93 120.68 L 144.93 119.66 C 144.93 118.62 144.08 117.78 143.04 117.78 C 142.00 117.79 141.16 118.63 141.16 119.68 Z M 141.16 120.68 L 141.16 121.75 C 141.16 122.80 142.01 123.64 143.05 123.64 C 144.09 123.64 144.94 122.79 144.94 121.75 L 144.94 120.68 C 144.94 119.64 144.09 118.79 143.05 118.80 C 142.00 118.80 141.16 119.64 141.16 120.68 Z M 141.16 121.75 L 141.16 122.73 C 141.16 123.78 142.00 124.62 143.05 124.62 C 144.09 124.62 144.94 123.78 144.94 122.73 L 144.94 121.75 C 144.94 120.71 144.09 119.86 143.05 119.86 C 142.01 119.86 141.16 120.71 141.16 121.75 Z M 141.16 122.72 L 141.15 123.68 C 141.15 124.72 141.99 125.57 143.04 125.58 C 144.08 125.58 144.93 124.74 144.94 123.69 L 144.94 122.74 C 144.94 121.70 144.10 120.85 143.06 120.84 C 142.01 120.84 141.16 121.68 141.16 122.72 Z M 141.15 123.66 L 141.14 124.65 C 141.13 125.69 141.96 126.55 143.01 126.57 C 144.05 126.58 144.91 125.75 144.92 124.70 L 144.94 123.71 C 144.95 122.67 144.11 121.81 143.07 121.79 C 142.03 121.78 141.17 122.62 141.15 123.66 Z M 141.14 124.62 L 141.11 125.65 C 141.08 126.69 141.91 127.56 142.95 127.59 C 143.99 127.62 144.87 126.80 144.89 125.75 L 144.92 124.73 C 144.95 123.68 144.13 122.81 143.08 122.78 C 142.04 122.75 141.17 123.58 141.14 124.62 Z M 141.11 125.61 L 141.06 126.67 C 141.02 127.72 141.82 128.60 142.87 128.65 C 143.91 128.70 144.80 127.89 144.84 126.85 L 144.89 125.79 C 144.94 124.74 144.13 123.86 143.09 123.81 C 142.05 123.76 141.16 124.57 141.11 125.61 Z M 141.07 126.64 L 141.00 127.60 C 140.93 128.64 141.72 129.54 142.76 129.61 C 143.81 129.68 144.71 128.89 144.78 127.85 L 144.84 126.89 C 144.91 125.84 144.12 124.94 143.08 124.87 C 142.04 124.80 141.13 125.59 141.07 126.64 Z M 141.00 127.56 L 140.92 128.51 C 140.83 129.55 141.60 130.47 142.64 130.56 C 143.68 130.65 144.60 129.88 144.69 128.84 L 144.78 127.89 C 144.87 126.85 144.10 125.93 143.05 125.84 C 142.01 125.75 141.10 126.52 141.00 127.56 Z M 140.92 128.47 L 140.82 129.44 C 140.70 130.48 141.45 131.42 142.49 131.53 C 143.53 131.64 144.47 130.89 144.58 129.86 L 144.69 128.88 C 144.80 127.84 144.05 126.91 143.01 126.79 C 141.97 126.68 141.04 127.43 140.92 128.47 Z M 140.82 129.40 L 140.69 130.40 C 140.55 131.43 141.28 132.39 142.31 132.53 C 143.35 132.66 144.30 131.94 144.44 130.90 L 144.58 129.90 C 144.72 128.86 143.99 127.91 142.95 127.77 C 141.91 127.63 140.96 128.36 140.82 129.40 Z M 140.70 130.35 L 140.53 131.38 C 140.37 132.41 141.07 133.38 142.11 133.54 C 143.14 133.71 144.11 133.00 144.27 131.97 L 144.44 130.95 C 144.60 129.91 143.90 128.94 142.86 128.78 C 141.83 128.61 140.86 129.32 140.70 130.35 Z M 140.54 131.33 L 140.35 132.38 C 140.15 133.40 140.83 134.39 141.86 134.58 C 142.89 134.78 143.88 134.10 144.07 133.07 L 144.26 132.02 C 144.46 130.99 143.78 130.00 142.75 129.81 C 141.72 129.62 140.73 130.30 140.54 131.33 Z M 140.35 132.33 L 140.16 133.27 C 139.94 134.29 140.59 135.29 141.62 135.51 C 142.64 135.73 143.65 135.07 143.86 134.05 L 144.06 133.11 C 144.28 132.09 143.62 131.09 142.60 130.87 C 141.58 130.65 140.57 131.31 140.35 132.33 Z M 140.17 133.23 L 139.95 134.17 C 139.71 135.18 140.34 136.20 141.36 136.44 C 142.38 136.68 143.40 136.05 143.63 135.03 L 143.85 134.09 C 144.09 133.07 143.46 132.05 142.44 131.81 C 141.42 131.58 140.40 132.21 140.17 133.23 Z M 139.95 134.13 L 139.71 135.09 C 139.45 136.10 140.07 137.13 141.08 137.39 C 142.09 137.65 143.12 137.03 143.38 136.02 L 143.62 135.06 C 143.88 134.05 143.27 133.02 142.26 132.76 C 141.24 132.50 140.21 133.12 139.95 134.13 Z M 139.72 135.05 L 139.46 136.02 C 139.18 137.03 139.78 138.07 140.79 138.35 C 141.79 138.62 142.84 138.03 143.11 137.02 L 143.37 136.05 C 143.65 135.04 143.05 134.00 142.04 133.73 C 141.04 133.45 139.99 134.05 139.72 135.05 Z M 139.46 135.99 L 139.18 136.97 C 138.89 137.98 139.47 139.03 140.48 139.32 C 141.48 139.61 142.53 139.03 142.82 138.02 L 143.10 137.04 C 143.39 136.04 142.81 134.99 141.81 134.70 C 140.80 134.41 139.75 134.99 139.46 135.99 Z M 139.19 136.95 L 138.89 137.94 C 138.59 138.94 139.15 140.00 140.15 140.30 C 141.15 140.61 142.21 140.04 142.51 139.04 L 142.81 138.05 C 143.12 137.05 142.55 135.99 141.55 135.69 C 140.55 135.39 139.49 135.95 139.19 136.95 Z M 138.90 137.92 L 138.58 138.91 C 138.27 139.91 138.82 140.97 139.82 141.29 C 140.81 141.60 141.88 141.05 142.19 140.05 L 142.50 139.06 C 142.82 138.06 142.27 137.00 141.27 136.69 C 140.27 136.37 139.21 136.92 138.90 137.92 Z M 138.59 138.89 L 138.29 139.82 C 137.96 140.81 138.50 141.88 139.50 142.20 C 140.49 142.53 141.56 141.99 141.88 140.99 L 142.19 140.07 C 142.51 139.08 141.97 138.01 140.98 137.68 C 139.98 137.36 138.91 137.90 138.59 138.89 Z M 138.29 139.80 L 137.98 140.73 C 137.64 141.72 138.18 142.79 139.17 143.13 C 140.16 143.46 141.23 142.93 141.56 141.94 L 141.88 141.01 C 142.21 140.02 141.68 138.95 140.69 138.61 C 139.70 138.28 138.63 138.81 138.29 139.80 Z M 137.98 140.71 L 137.66 141.65 C 137.31 142.64 137.84 143.71 138.82 144.06 C 139.81 144.40 140.89 143.88 141.23 142.89 L 141.56 141.96 C 141.90 140.97 141.38 139.89 140.39 139.55 C 139.41 139.21 138.33 139.73 137.98 140.71 Z M 137.66 141.63 L 137.33 142.57 C 136.97 143.56 137.48 144.64 138.47 144.99 C 139.45 145.35 140.53 144.84 140.89 143.85 L 141.22 142.91 C 141.58 141.93 141.07 140.84 140.08 140.49 C 139.10 140.14 138.02 140.65 137.66 141.63 Z M 137.33 142.56 L 136.98 143.50 C 136.62 144.48 137.12 145.57 138.10 145.93 C 139.08 146.29 140.17 145.80 140.53 144.82 L 140.88 143.87 C 141.24 142.89 140.74 141.80 139.76 141.44 C 138.78 141.08 137.70 141.58 137.33 142.56 Z M 136.99 143.49 L 136.63 144.44 C 136.25 145.41 136.74 146.50 137.72 146.88 C 138.70 147.25 139.79 146.76 140.16 145.78 L 140.52 144.83 C 140.89 143.86 140.41 142.76 139.43 142.39 C 138.45 142.02 137.36 142.51 136.99 143.49 Z M 136.63 144.42 L 136.26 145.37 C 135.88 146.34 136.36 147.44 137.33 147.82 C 138.30 148.20 139.40 147.73 139.78 146.75 L 140.15 145.80 C 140.53 144.83 140.06 143.73 139.08 143.35 C 138.11 142.97 137.02 143.45 136.63 144.42 Z M 136.27 145.35 L 135.90 146.27 C 135.51 147.24 135.97 148.34 136.94 148.73 C 137.91 149.12 139.01 148.65 139.40 147.68 L 139.77 146.77 C 140.16 145.80 139.69 144.70 138.73 144.31 C 137.76 143.92 136.66 144.39 136.27 145.35 Z M 135.91 146.25 L 135.53 147.15 C 135.13 148.11 135.59 149.22 136.55 149.62 C 137.52 150.02 138.62 149.56 139.02 148.60 L 139.39 147.70 C 139.79 146.74 139.34 145.63 138.37 145.23 C 137.41 144.83 136.31 145.29 135.91 146.25 Z M 135.54 147.14 L 135.16 148.04 C 134.75 149.00 135.20 150.11 136.16 150.51 C 137.11 150.92 138.22 150.47 138.63 149.51 L 139.01 148.61 C 139.42 147.65 138.97 146.55 138.01 146.14 C 137.06 145.73 135.95 146.18 135.54 147.14 Z M 135.17 148.03 L 134.77 148.94 C 134.36 149.89 134.80 151.00 135.75 151.41 C 136.70 151.83 137.81 151.39 138.23 150.44 L 138.62 149.53 C 139.03 148.57 138.60 147.47 137.64 147.05 C 136.69 146.64 135.58 147.08 135.17 148.03 Z M 134.78 148.93 L 134.38 149.84 C 133.96 150.79 134.38 151.90 135.33 152.32 C 136.28 152.74 137.39 152.31 137.81 151.36 L 138.22 150.45 C 138.64 149.50 138.21 148.39 137.26 147.97 C 136.31 147.55 135.20 147.98 134.78 148.93 Z M 134.38 149.83 L 133.97 150.75 C 133.54 151.70 133.96 152.81 134.91 153.23 C 135.85 153.66 136.96 153.24 137.39 152.29 L 137.81 151.37 C 138.23 150.43 137.81 149.32 136.87 148.89 C 135.92 148.46 134.81 148.88 134.38 149.83 Z M 133.97 150.74 L 133.55 151.67 C 133.12 152.61 133.53 153.73 134.47 154.16 C 135.41 154.59 136.53 154.18 136.96 153.23 L 137.38 152.30 C 137.82 151.36 137.40 150.25 136.46 149.82 C 135.52 149.39 134.41 149.80 133.97 150.74 Z M 133.55 151.66 L 133.12 152.60 C 132.68 153.54 133.09 154.65 134.03 155.09 C 134.96 155.53 136.08 155.12 136.51 154.18 L 136.95 153.24 C 137.39 152.30 136.98 151.19 136.04 150.75 C 135.10 150.32 133.99 150.73 133.55 151.66 Z M 133.12 152.60 L 132.70 153.50 C 132.26 154.44 132.66 155.55 133.59 155.99 C 134.53 156.43 135.64 156.03 136.08 155.10 L 136.51 154.19 C 136.95 153.25 136.55 152.14 135.61 151.70 C 134.68 151.26 133.56 151.66 133.12 152.60 Z M 132.70 153.50 L 132.27 154.40 C 131.83 155.33 132.22 156.45 133.15 156.89 C 134.09 157.34 135.20 156.94 135.64 156.01 L 136.08 155.10 C 136.52 154.17 136.12 153.06 135.19 152.61 C 134.26 152.17 133.15 152.57 132.70 153.50 Z M 132.28 154.39 L 131.84 155.30 C 131.39 156.23 131.78 157.35 132.71 157.79 C 133.64 158.24 134.75 157.85 135.20 156.92 L 135.64 156.02 C 136.08 155.09 135.70 153.97 134.77 153.53 C 133.84 153.08 132.73 153.47 132.28 154.39 Z M 131.85 155.30 L 131.40 156.20 C 130.95 157.13 131.33 158.24 132.26 158.70 C 133.18 159.15 134.30 158.76 134.75 157.84 L 135.19 156.93 C 135.64 156.01 135.26 154.89 134.34 154.44 C 133.41 153.99 132.30 154.37 131.85 155.30 Z M 131.41 156.20 L 130.96 157.10 C 130.50 158.02 130.88 159.14 131.80 159.59 C 132.72 160.05 133.84 159.67 134.29 158.75 L 134.74 157.85 C 135.20 156.93 134.82 155.81 133.90 155.36 C 132.98 154.90 131.86 155.28 131.41 156.20 Z M 130.97 157.09 L 130.52 157.99 C 130.05 158.91 130.42 160.02 131.34 160.48 C 132.26 160.95 133.37 160.58 133.83 159.66 L 134.29 158.76 C 134.75 157.85 134.38 156.73 133.46 156.27 C 132.54 155.81 131.43 156.18 130.97 157.09 Z M 130.52 157.98 L 130.07 158.87 C 129.60 159.78 129.97 160.90 130.88 161.36 C 131.79 161.83 132.91 161.47 133.37 160.56 L 133.83 159.67 C 134.29 158.76 133.93 157.64 133.02 157.17 C 132.11 156.71 130.99 157.07 130.52 157.98 Z M 130.08 158.86 L 129.62 159.73 C 129.15 160.64 129.51 161.76 130.42 162.23 C 131.32 162.70 132.44 162.35 132.91 161.44 L 133.37 160.57 C 133.84 159.66 133.48 158.54 132.57 158.07 C 131.67 157.60 130.55 157.95 130.08 158.86 Z M 129.63 159.72 L 129.16 160.62 C 128.68 161.52 129.03 162.64 129.93 163.12 C 130.84 163.60 131.95 163.25 132.43 162.35 L 132.90 161.45 C 133.38 160.55 133.04 159.43 132.13 158.95 C 131.23 158.47 130.11 158.82 129.63 159.72 Z M 129.17 160.61 L 128.68 161.53 C 128.19 162.43 128.53 163.55 129.43 164.03 C 130.32 164.51 131.44 164.17 131.93 163.28 L 132.42 162.36 C 132.90 161.46 132.57 160.34 131.67 159.86 C 130.77 159.38 129.65 159.71 129.17 160.61 Z M 128.69 161.52 L 128.19 162.42 C 127.70 163.31 128.03 164.43 128.92 164.92 C 129.82 165.41 130.93 165.08 131.42 164.19 L 131.92 163.29 C 132.40 162.40 132.08 161.28 131.19 160.79 C 130.29 160.30 129.17 160.63 128.69 161.52 Z M 128.20 162.41 L 127.71 163.29 C 127.22 164.17 127.54 165.29 128.42 165.79 C 129.31 166.28 130.43 165.96 130.92 165.08 L 131.41 164.20 C 131.91 163.31 131.59 162.19 130.70 161.70 C 129.82 161.20 128.70 161.52 128.20 162.41 Z M 127.72 163.28 L 127.23 164.14 C 126.73 165.02 127.04 166.14 127.92 166.64 C 128.80 167.14 129.92 166.83 130.42 165.95 L 130.91 165.09 C 131.41 164.21 131.10 163.09 130.22 162.59 C 129.34 162.09 128.22 162.40 127.72 163.28 Z M 127.24 164.13 L 126.75 164.98 C 126.25 165.86 126.55 166.98 127.43 167.48 C 128.30 167.99 129.42 167.68 129.92 166.81 L 130.41 165.96 C 130.92 165.08 130.62 163.97 129.74 163.46 C 128.86 162.96 127.75 163.26 127.24 164.13 Z M 126.76 164.98 L 126.27 165.81 C 125.77 166.68 126.06 167.80 126.93 168.31 C 127.80 168.82 128.92 168.52 129.43 167.65 L 129.92 166.82 C 130.42 165.95 130.13 164.83 129.26 164.32 C 128.39 163.81 127.27 164.10 126.76 164.98 Z M 126.28 165.80 L 125.79 166.63 C 125.28 167.50 125.57 168.61 126.44 169.12 C 127.30 169.64 128.42 169.35 128.93 168.48 L 129.42 167.66 C 129.93 166.79 129.64 165.68 128.78 165.16 C 127.91 164.65 126.79 164.94 126.28 165.80 Z M 125.80 166.62 L 125.27 167.51 C 124.76 168.37 125.04 169.48 125.90 170.00 C 126.76 170.51 127.88 170.23 128.39 169.37 L 128.92 168.49 C 129.44 167.63 129.16 166.51 128.30 166.00 C 127.43 165.48 126.32 165.76 125.80 166.62 Z M 125.28 167.50 L 124.75 168.38 C 124.23 169.23 124.50 170.35 125.36 170.87 C 126.22 171.39 127.33 171.12 127.85 170.26 L 128.39 169.38 C 128.91 168.52 128.63 167.41 127.78 166.89 C 126.92 166.37 125.80 166.64 125.28 167.50 Z M 124.76 168.37 L 124.22 169.23 C 123.70 170.09 123.97 171.20 124.82 171.73 C 125.67 172.25 126.79 171.99 127.31 171.13 L 127.85 170.27 C 128.37 169.41 128.10 168.30 127.25 167.77 C 126.40 167.25 125.28 167.51 124.76 168.37 Z M 124.23 169.22 L 123.70 170.08 C 123.17 170.93 123.43 172.04 124.28 172.57 C 125.13 173.10 126.25 172.84 126.78 171.99 L 127.31 171.14 C 127.84 170.29 127.58 169.18 126.73 168.65 C 125.88 168.12 124.76 168.38 124.23 169.22 Z M 123.71 170.07 L 123.18 170.90 C 122.65 171.75 122.90 172.86 123.74 173.40 C 124.58 173.93 125.70 173.68 126.24 172.84 L 126.77 172.00 C 127.30 171.16 127.05 170.04 126.21 169.51 C 125.36 168.97 124.24 169.22 123.71 170.07 Z M 123.19 170.89 L 122.66 171.71 C 122.12 172.55 122.36 173.67 123.20 174.21 C 124.04 174.75 125.16 174.51 125.70 173.67 L 126.23 172.85 C 126.77 172.01 126.53 170.89 125.69 170.35 C 124.85 169.81 123.73 170.05 123.19 170.89 Z M 122.67 171.70 L 122.15 172.50 C 121.60 173.33 121.83 174.45 122.67 175.00 C 123.50 175.55 124.62 175.31 125.16 174.48 L 125.69 173.68 C 126.24 172.85 126.00 171.73 125.17 171.18 C 124.34 170.63 123.22 170.87 122.67 171.70 Z M 122.16 172.49 L 121.57 173.37 C 121.02 174.19 121.24 175.31 122.07 175.86 C 122.90 176.42 124.01 176.20 124.57 175.37 L 125.15 174.49 C 125.71 173.67 125.48 172.55 124.66 171.99 C 123.83 171.44 122.71 171.66 122.16 172.49 Z M 121.59 173.36 L 121.00 174.21 C 120.44 175.03 120.65 176.15 121.47 176.71 C 122.29 177.27 123.41 177.06 123.97 176.24 L 124.55 175.38 C 125.11 174.56 124.90 173.44 124.08 172.88 C 123.26 172.32 122.14 172.54 121.59 173.36 Z M 121.01 174.21 L 120.43 175.04 C 119.87 175.85 120.07 176.97 120.89 177.53 C 121.70 178.10 122.82 177.89 123.38 177.08 L 123.96 176.25 C 124.52 175.43 124.32 174.32 123.50 173.75 C 122.69 173.19 121.58 173.39 121.01 174.21 Z M 120.44 175.04 L 119.88 175.85 C 119.31 176.66 119.50 177.77 120.31 178.33 C 121.12 178.90 122.23 178.71 122.80 177.90 L 123.37 177.09 C 123.93 176.28 123.74 175.17 122.93 174.60 C 122.12 174.03 121.01 174.23 120.44 175.04 Z M 119.88 175.84 L 119.32 176.63 C 118.76 177.44 118.95 178.55 119.75 179.12 C 120.55 179.68 121.66 179.49 122.23 178.69 L 122.79 177.90 C 123.36 177.10 123.17 175.99 122.37 175.42 C 121.56 174.85 120.45 175.04 119.88 175.84 Z M 119.33 176.63 L 118.78 177.40 C 118.22 178.20 118.40 179.31 119.20 179.88 C 120.00 180.45 121.11 180.26 121.68 179.46 L 122.22 178.69 C 122.79 177.89 122.61 176.79 121.81 176.22 C 121.01 175.65 119.90 175.83 119.33 176.63 Z M 118.79 177.40 L 118.18 178.26 C 117.61 179.05 117.80 180.16 118.59 180.73 C 119.38 181.29 120.49 181.11 121.06 180.32 L 121.67 179.46 C 122.24 178.67 122.05 177.56 121.26 176.99 C 120.46 176.42 119.36 176.61 118.79 177.40 Z M 118.19 178.26 L 117.57 179.11 C 117.01 179.90 117.19 181.00 117.98 181.57 C 118.77 182.14 119.87 181.96 120.44 181.17 L 121.05 180.31 C 121.62 179.52 121.44 178.42 120.65 177.86 C 119.85 177.29 118.75 177.47 118.19 178.26 Z M 117.58 179.11 L 116.99 179.94 C 116.42 180.72 116.60 181.82 117.38 182.38 C 118.17 182.95 119.27 182.77 119.83 181.99 L 120.43 181.17 C 120.99 180.38 120.82 179.29 120.03 178.72 C 119.25 178.15 118.15 178.33 117.58 179.11 Z M 117.00 179.93 L 116.43 180.72 C 115.86 181.50 116.03 182.59 116.81 183.16 C 117.59 183.73 118.68 183.56 119.25 182.78 L 119.82 181.99 C 120.39 181.21 120.22 180.12 119.44 179.55 C 118.66 178.98 117.57 179.15 117.00 179.93 Z M 116.44 180.72 L 115.89 181.47 C 115.31 182.24 115.48 183.33 116.25 183.90 C 117.02 184.47 118.11 184.30 118.68 183.53 L 119.24 182.78 C 119.81 182.01 119.64 180.92 118.87 180.35 C 118.10 179.78 117.01 179.94 116.44 180.72 Z M 115.90 181.46 L 115.32 182.23 C 114.75 182.99 114.90 184.08 115.66 184.65 C 116.43 185.22 117.51 185.07 118.09 184.31 L 118.67 183.54 C 119.24 182.78 119.09 181.69 118.32 181.12 C 117.56 180.54 116.48 180.69 115.90 181.46 Z M 115.35 182.21 L 114.75 182.98 C 114.16 183.73 114.30 184.81 115.05 185.39 C 115.79 185.98 116.88 185.84 117.46 185.09 L 118.06 184.33 C 118.65 183.58 118.51 182.50 117.76 181.91 C 117.01 181.33 115.93 181.46 115.35 182.21 Z M 114.79 182.94 L 114.17 183.69 C 113.57 184.42 113.67 185.50 114.39 186.10 C 115.12 186.70 116.20 186.60 116.80 185.87 L 117.42 185.13 C 118.02 184.40 117.92 183.32 117.20 182.72 C 116.47 182.12 115.39 182.22 114.79 182.94 Z M 114.22 183.65 L 113.55 184.39 C 112.93 185.09 112.98 186.16 113.68 186.79 C 114.38 187.42 115.46 187.36 116.08 186.66 L 116.75 185.92 C 117.38 185.22 117.32 184.14 116.62 183.52 C 115.92 182.89 114.85 182.95 114.22 183.65 Z M 113.61 184.34 L 112.88 185.09 C 112.22 185.76 112.23 186.83 112.90 187.48 C 113.57 188.13 114.64 188.12 115.29 187.46 L 116.02 186.71 C 116.68 186.04 116.67 184.97 116.00 184.32 C 115.33 183.67 114.26 183.68 113.61 184.34 Z M 112.93 185.05 L 112.27 185.68 C 111.59 186.32 111.56 187.38 112.20 188.06 C 112.84 188.73 113.90 188.76 114.58 188.12 L 115.24 187.49 C 115.91 186.86 115.94 185.79 115.30 185.12 C 114.67 184.45 113.60 184.42 112.93 185.05 Z M 112.30 185.66 L 111.59 186.31 C 110.90 186.92 110.84 187.98 111.46 188.67 C 112.08 189.35 113.13 189.41 113.82 188.79 L 114.54 188.15 C 115.22 187.53 115.28 186.47 114.66 185.79 C 114.05 185.10 112.99 185.04 112.30 185.66 Z M 111.61 186.29 L 110.86 186.95 C 110.16 187.55 110.09 188.60 110.69 189.30 C 111.29 189.99 112.34 190.06 113.03 189.46 L 113.79 188.80 C 114.48 188.20 114.56 187.15 113.96 186.46 C 113.36 185.77 112.31 185.69 111.61 186.29 Z M 110.88 186.95 L 110.09 187.61 C 109.39 188.20 109.30 189.24 109.89 189.94 C 110.48 190.64 111.52 190.73 112.22 190.14 L 113.01 189.47 C 113.71 188.88 113.79 187.84 113.21 187.14 C 112.62 186.44 111.57 186.36 110.88 186.95 Z M 110.10 187.61 L 109.29 188.29 C 108.60 188.87 108.50 189.90 109.08 190.60 C 109.66 191.30 110.70 191.39 111.40 190.81 L 112.21 190.14 C 112.90 189.56 113.00 188.52 112.42 187.82 C 111.84 187.13 110.80 187.03 110.10 187.61 Z M 109.30 188.29 L 108.80 188.71 C 108.10 189.28 108.01 190.31 108.58 191.01 C 109.16 191.70 110.19 191.80 110.89 191.22 L 111.39 190.81 C 112.08 190.23 112.18 189.20 111.60 188.50 C 111.03 187.81 110.00 187.71 109.30 188.29 Z"
      fill="black"
      fill-rule="nonzero" /><path d="M 163.47 112.84 L 163.47 111.82 C 163.47 110.99 162.79 110.32 161.96 110.32 C 161.13 110.32 160.46 111.00 160.46 111.83 L 160.46 112.84 C 160.46 113.67 161.14 114.34 161.97 114.34 C 162.80 114.34 163.47 113.67 163.47 112.84 Z M 163.48 111.81 L 163.47 110.81 C 163.46 109.97 162.78 109.30 161.94 109.31 C 161.11 109.32 160.44 110.00 160.45 110.84 L 160.46 111.84 C 160.46 112.67 161.14 113.34 161.98 113.34 C 162.81 113.33 163.48 112.65 163.48 111.81 Z M 163.47 110.79 L 163.45 109.80 C 163.43 108.96 162.73 108.30 161.90 108.32 C 161.06 108.34 160.40 109.03 160.42 109.87 L 160.44 110.86 C 160.46 111.70 161.16 112.36 161.99 112.34 C 162.83 112.32 163.49 111.62 163.47 110.79 Z M 163.48 109.75 L 163.41 108.45 C 163.37 107.59 162.63 106.93 161.77 106.98 C 160.92 107.03 160.26 107.76 160.31 108.62 L 160.38 109.92 C 160.43 110.78 161.16 111.43 162.02 111.38 C 162.88 111.34 163.53 110.60 163.48 109.75 Z M 163.48 108.28 L 163.34 107.41 C 163.20 106.51 162.37 105.90 161.47 106.04 C 160.58 106.18 159.97 107.01 160.11 107.91 L 160.24 108.78 C 160.38 109.67 161.22 110.29 162.11 110.15 C 163.00 110.01 163.61 109.17 163.48 108.28 Z M 160.53 106.43 L 160.38 106.58 C 159.70 107.24 159.69 108.32 160.35 109.00 C 161.01 109.67 162.10 109.68 162.77 109.02 L 162.92 108.88 C 163.60 108.22 163.61 107.14 162.95 106.46 C 162.29 105.79 161.20 105.77 160.53 106.43 Z M 159.85 107.45 L 159.70 108.23 C 159.51 109.18 160.12 110.11 161.07 110.30 C 162.02 110.49 162.95 109.88 163.14 108.93 L 163.30 108.15 C 163.49 107.20 162.87 106.27 161.92 106.08 C 160.97 105.89 160.05 106.50 159.85 107.45 Z M 159.65 108.31 L 159.46 109.58 C 159.31 110.56 159.98 111.47 160.96 111.62 C 161.94 111.76 162.85 111.09 163.00 110.11 L 163.19 108.85 C 163.34 107.87 162.66 106.96 161.68 106.81 C 160.71 106.66 159.79 107.34 159.65 108.31 Z M 159.43 109.60 L 159.25 110.87 C 159.11 111.86 159.81 112.78 160.80 112.92 C 161.80 113.06 162.72 112.36 162.86 111.37 L 163.03 110.10 C 163.17 109.10 162.47 108.18 161.48 108.04 C 160.48 107.91 159.56 108.60 159.43 109.60 Z M 159.24 110.87 L 159.11 111.81 C 158.97 112.82 159.67 113.74 160.67 113.88 C 161.68 114.01 162.60 113.31 162.74 112.31 L 162.87 111.37 C 163.01 110.36 162.30 109.44 161.30 109.30 C 160.30 109.16 159.37 109.87 159.24 110.87 Z M 159.10 111.81 L 158.97 112.81 C 158.83 113.81 159.53 114.74 160.54 114.88 C 161.54 115.01 162.47 114.31 162.61 113.31 L 162.74 112.31 C 162.88 111.31 162.18 110.38 161.17 110.24 C 160.17 110.10 159.24 110.81 159.10 111.81 Z M 158.96 112.80 L 158.82 113.83 C 158.68 114.84 159.39 115.77 160.39 115.90 C 161.40 116.04 162.33 115.34 162.47 114.33 L 162.61 113.31 C 162.75 112.30 162.05 111.37 161.04 111.23 C 160.03 111.09 159.10 111.80 158.96 112.80 Z M 158.82 113.83 L 158.67 114.85 C 158.53 115.86 159.24 116.80 160.24 116.94 C 161.25 117.08 162.19 116.38 162.33 115.37 L 162.47 114.34 C 162.61 113.33 161.91 112.40 160.90 112.25 C 159.89 112.11 158.96 112.82 158.82 113.83 Z M 158.67 114.85 L 158.53 115.86 C 158.38 116.87 159.08 117.81 160.09 117.95 C 161.11 118.09 162.04 117.39 162.19 116.38 L 162.33 115.37 C 162.48 114.36 161.77 113.42 160.76 113.28 C 159.75 113.14 158.82 113.84 158.67 114.85 Z M 158.52 115.85 L 158.37 116.87 C 158.22 117.88 158.92 118.82 159.94 118.97 C 160.95 119.12 161.89 118.42 162.04 117.41 L 162.19 116.39 C 162.34 115.38 161.64 114.44 160.63 114.29 C 159.61 114.14 158.67 114.84 158.52 115.85 Z M 158.37 116.86 L 158.21 117.89 C 158.06 118.91 158.76 119.85 159.77 120.01 C 160.78 120.16 161.73 119.47 161.88 118.46 L 162.04 117.42 C 162.20 116.40 161.50 115.46 160.49 115.30 C 159.47 115.15 158.53 115.84 158.37 116.86 Z M 158.21 117.89 L 158.06 118.87 C 157.90 119.89 158.59 120.84 159.60 121.00 C 160.62 121.16 161.57 120.47 161.73 119.45 L 161.88 118.46 C 162.04 117.45 161.35 116.50 160.34 116.34 C 159.32 116.18 158.37 116.87 158.21 117.89 Z M 158.06 118.87 L 157.90 119.83 C 157.73 120.84 158.42 121.80 159.44 121.96 C 160.45 122.13 161.41 121.44 161.57 120.42 L 161.73 119.46 C 161.89 118.45 161.20 117.49 160.19 117.33 C 159.18 117.16 158.22 117.85 158.06 118.87 Z M 157.90 119.82 L 157.74 120.77 C 157.57 121.79 158.26 122.75 159.28 122.92 C 160.29 123.08 161.25 122.40 161.42 121.38 L 161.58 120.43 C 161.74 119.41 161.06 118.45 160.04 118.29 C 159.02 118.12 158.07 118.81 157.90 119.82 Z M 157.74 120.77 L 157.58 121.73 C 157.41 122.74 158.10 123.71 159.11 123.87 C 160.13 124.04 161.09 123.36 161.26 122.34 L 161.42 121.38 C 161.59 120.37 160.90 119.40 159.89 119.24 C 158.87 119.07 157.91 119.75 157.74 120.77 Z M 157.58 121.73 L 157.42 122.66 C 157.25 123.68 157.94 124.64 158.96 124.81 C 159.97 124.98 160.94 124.29 161.11 123.27 L 161.26 122.34 C 161.43 121.32 160.75 120.36 159.73 120.19 C 158.71 120.02 157.75 120.71 157.58 121.73 Z M 157.42 122.66 L 157.26 123.61 C 157.09 124.63 157.78 125.60 158.79 125.77 C 159.81 125.94 160.78 125.25 160.95 124.23 L 161.11 123.28 C 161.28 122.26 160.59 121.29 159.57 121.12 C 158.55 120.95 157.59 121.64 157.42 122.66 Z M 157.26 123.61 L 157.09 124.59 C 156.92 125.61 157.60 126.58 158.62 126.75 C 159.64 126.92 160.61 126.24 160.78 125.22 L 160.95 124.24 C 161.12 123.22 160.44 122.25 159.42 122.08 C 158.40 121.91 157.43 122.59 157.26 123.61 Z M 157.09 124.59 L 156.92 125.59 C 156.74 126.61 157.43 127.58 158.45 127.76 C 159.47 127.93 160.44 127.25 160.61 126.23 L 160.78 125.22 C 160.96 124.20 160.28 123.23 159.26 123.06 C 158.24 122.88 157.27 123.57 157.09 124.59 Z M 156.92 125.59 L 156.74 126.61 C 156.56 127.63 157.24 128.60 158.26 128.78 C 159.28 128.96 160.25 128.28 160.43 127.26 L 160.61 126.23 C 160.79 125.21 160.11 124.24 159.09 124.06 C 158.07 123.88 157.10 124.56 156.92 125.59 Z M 156.74 126.60 L 156.56 127.60 C 156.37 128.62 157.05 129.60 158.07 129.78 C 159.09 129.96 160.07 129.29 160.25 128.26 L 160.43 127.27 C 160.62 126.25 159.94 125.27 158.92 125.09 C 157.89 124.90 156.92 125.58 156.74 126.60 Z M 156.56 127.59 L 156.38 128.55 C 156.20 129.57 156.87 130.55 157.89 130.73 C 158.91 130.92 159.89 130.24 160.08 129.22 L 160.25 128.27 C 160.44 127.25 159.76 126.27 158.74 126.08 C 157.72 125.90 156.74 126.57 156.56 127.59 Z M 156.38 128.55 L 156.20 129.51 C 156.01 130.54 156.69 131.52 157.71 131.70 C 158.73 131.89 159.71 131.22 159.90 130.20 L 160.08 129.23 C 160.27 128.21 159.59 127.23 158.57 127.04 C 157.55 126.85 156.57 127.52 156.38 128.55 Z M 156.20 129.51 L 156.02 130.50 C 155.83 131.52 156.51 132.50 157.53 132.69 C 158.55 132.88 159.53 132.20 159.72 131.18 L 159.90 130.20 C 160.09 129.17 159.42 128.19 158.39 128.00 C 157.37 127.82 156.39 128.49 156.20 129.51 Z M 156.02 130.50 L 155.84 131.49 C 155.65 132.52 156.33 133.50 157.35 133.69 C 158.37 133.87 159.35 133.20 159.54 132.17 L 159.72 131.18 C 159.91 130.15 159.23 129.17 158.21 128.99 C 157.19 128.80 156.21 129.48 156.02 130.50 Z M 155.83 131.50 L 155.65 132.51 C 155.47 133.53 156.15 134.51 157.17 134.70 C 158.19 134.88 159.18 134.20 159.36 133.18 L 159.54 132.17 C 159.73 131.15 159.05 130.17 158.02 129.98 C 157.00 129.80 156.02 130.48 155.83 131.50 Z M 155.65 132.51 L 155.47 133.52 C 155.29 134.55 155.97 135.52 157.00 135.71 C 158.03 135.89 159.00 135.20 159.18 134.18 L 159.36 133.17 C 159.54 132.15 158.86 131.17 157.83 130.99 C 156.81 130.80 155.83 131.49 155.65 132.51 Z M 155.47 133.53 L 155.30 134.49 C 155.13 135.52 155.82 136.49 156.84 136.67 C 157.87 136.84 158.84 136.16 159.02 135.13 L 159.19 134.17 C 159.36 133.14 158.67 132.17 157.65 131.99 C 156.62 131.81 155.65 132.50 155.47 133.53 Z M 155.30 134.50 L 155.14 135.46 C 154.97 136.49 155.66 137.46 156.69 137.64 C 157.71 137.81 158.69 137.12 158.86 136.09 L 159.02 135.12 C 159.20 134.10 158.50 133.12 157.48 132.95 C 156.45 132.78 155.48 133.47 155.30 134.50 Z M 155.14 135.47 L 154.98 136.45 C 154.80 137.48 155.50 138.45 156.53 138.62 C 157.56 138.79 158.53 138.09 158.70 137.07 L 158.86 136.09 C 159.03 135.06 158.34 134.09 157.31 133.92 C 156.28 133.75 155.31 134.44 155.14 135.47 Z M 154.97 136.45 L 154.81 137.44 C 154.64 138.47 155.34 139.44 156.37 139.61 C 157.40 139.78 158.37 139.08 158.54 138.05 L 158.70 137.06 C 158.87 136.03 158.17 135.06 157.14 134.89 C 156.11 134.73 155.14 135.42 154.97 136.45 Z M 154.81 137.44 L 154.65 138.44 C 154.48 139.47 155.18 140.44 156.21 140.61 C 157.24 140.78 158.21 140.08 158.37 139.05 L 158.54 138.05 C 158.71 137.02 158.01 136.05 156.98 135.88 C 155.95 135.71 154.98 136.41 154.81 137.44 Z M 154.65 138.44 L 154.48 139.45 C 154.31 140.48 155.01 141.45 156.04 141.62 C 157.07 141.79 158.04 141.09 158.21 140.06 L 158.38 139.05 C 158.54 138.02 157.84 137.05 156.81 136.88 C 155.79 136.71 154.81 137.41 154.65 138.44 Z M 154.48 139.45 L 154.32 140.44 C 154.15 141.47 154.85 142.44 155.88 142.61 C 156.91 142.78 157.88 142.08 158.05 141.05 L 158.21 140.06 C 158.38 139.03 157.68 138.06 156.65 137.89 C 155.62 137.72 154.65 138.42 154.48 139.45 Z M 154.32 140.44 L 154.16 141.39 C 154.00 142.42 154.69 143.39 155.72 143.56 C 156.75 143.73 157.72 143.03 157.89 142.00 L 158.05 141.05 C 158.22 140.02 157.52 139.05 156.49 138.88 C 155.46 138.71 154.49 139.41 154.32 140.44 Z M 154.16 141.39 L 154.01 142.36 C 153.84 143.39 154.54 144.36 155.57 144.53 C 156.60 144.70 157.57 144.00 157.74 142.97 L 157.89 142.00 C 158.06 140.97 157.36 140.00 156.33 139.83 C 155.30 139.66 154.33 140.36 154.16 141.39 Z M 154.01 142.36 L 153.85 143.34 C 153.68 144.37 154.38 145.34 155.41 145.51 C 156.44 145.67 157.41 144.97 157.58 143.94 L 157.74 142.97 C 157.90 141.94 157.20 140.97 156.17 140.80 C 155.14 140.63 154.17 141.33 154.01 142.36 Z M 153.85 143.34 L 153.69 144.33 C 153.52 145.36 154.22 146.33 155.25 146.50 C 156.28 146.66 157.25 145.96 157.42 144.93 L 157.58 143.94 C 157.74 142.91 157.04 141.94 156.01 141.77 C 154.98 141.61 154.01 142.31 153.85 143.34 Z M 153.69 144.34 L 153.53 145.34 C 153.36 146.37 154.07 147.34 155.10 147.50 C 156.13 147.66 157.10 146.96 157.26 145.93 L 157.42 144.93 C 157.58 143.89 156.88 142.93 155.85 142.76 C 154.82 142.60 153.85 143.30 153.69 144.34 Z M 153.53 145.35 L 153.37 146.36 C 153.21 147.39 153.92 148.36 154.95 148.52 C 155.98 148.68 156.95 147.97 157.11 146.94 L 157.26 145.92 C 157.42 144.89 156.72 143.92 155.68 143.77 C 154.65 143.61 153.69 144.31 153.53 145.35 Z M 153.37 146.37 L 153.21 147.39 C 153.06 148.42 153.77 149.39 154.80 149.54 C 155.84 149.70 156.80 148.99 156.95 147.95 L 157.11 146.93 C 157.26 145.90 156.55 144.94 155.52 144.78 C 154.49 144.63 153.52 145.34 153.37 146.37 Z M 153.21 147.40 L 153.07 148.38 C 152.92 149.41 153.63 150.37 154.67 150.52 C 155.70 150.68 156.66 149.96 156.81 148.93 L 156.96 147.94 C 157.11 146.91 156.39 145.95 155.36 145.80 C 154.32 145.65 153.36 146.36 153.21 147.40 Z M 153.07 148.39 L 152.93 149.38 C 152.78 150.41 153.50 151.37 154.53 151.52 C 155.57 151.66 156.53 150.94 156.67 149.91 L 156.81 148.92 C 156.96 147.88 156.24 146.93 155.21 146.78 C 154.17 146.64 153.21 147.35 153.07 148.39 Z M 152.93 149.39 L 152.79 150.39 C 152.65 151.42 153.37 152.38 154.41 152.52 C 155.44 152.66 156.40 151.93 156.54 150.90 L 156.67 149.90 C 156.81 148.87 156.09 147.91 155.06 147.77 C 154.02 147.63 153.07 148.36 152.93 149.39 Z M 152.79 150.40 L 152.66 151.40 C 152.52 152.43 153.25 153.38 154.29 153.52 C 155.32 153.65 156.27 152.92 156.41 151.89 L 156.54 150.89 C 156.67 149.85 155.95 148.90 154.91 148.77 C 153.87 148.63 152.93 149.36 152.79 150.40 Z M 152.66 151.41 L 152.53 152.41 C 152.40 153.44 153.14 154.39 154.17 154.52 C 155.21 154.65 156.15 153.91 156.28 152.88 L 156.41 151.88 C 156.54 150.84 155.80 149.90 154.77 149.77 C 153.73 149.64 152.79 150.37 152.66 151.41 Z M 152.53 152.42 L 152.41 153.41 C 152.29 154.45 153.03 155.39 154.06 155.51 C 155.10 155.64 156.04 154.90 156.16 153.86 L 156.28 152.87 C 156.41 151.83 155.67 150.89 154.63 150.77 C 153.59 150.64 152.65 151.38 152.53 152.42 Z M 152.41 153.42 L 152.30 154.41 C 152.18 155.45 152.93 156.38 153.96 156.50 C 155.00 156.62 155.94 155.87 156.05 154.84 L 156.17 153.85 C 156.28 152.81 155.54 151.88 154.50 151.76 C 153.46 151.64 152.53 152.39 152.41 153.42 Z M 152.30 154.42 L 152.19 155.43 C 152.08 156.47 152.83 157.40 153.87 157.51 C 154.91 157.62 155.84 156.87 155.95 155.83 L 156.06 154.82 C 156.17 153.78 155.41 152.85 154.37 152.74 C 153.34 152.63 152.41 153.39 152.30 154.42 Z M 152.19 155.45 L 152.09 156.48 C 151.99 157.52 152.75 158.44 153.79 158.54 C 154.82 158.64 155.75 157.88 155.85 156.85 L 155.95 155.81 C 156.05 154.77 155.29 153.85 154.25 153.75 C 153.22 153.65 152.29 154.41 152.19 155.45 Z M 152.09 156.49 L 152.00 157.51 C 151.90 158.55 152.67 159.47 153.71 159.56 C 154.75 159.65 155.67 158.89 155.76 157.85 L 155.85 156.83 C 155.94 155.79 155.18 154.87 154.14 154.78 C 153.10 154.69 152.18 155.45 152.09 156.49 Z M 152.00 157.53 L 151.91 158.53 C 151.83 159.57 152.60 160.48 153.64 160.57 C 154.68 160.65 155.59 159.88 155.68 158.84 L 155.76 157.83 C 155.85 156.79 155.07 155.88 154.03 155.80 C 152.99 155.71 152.08 156.49 152.00 157.53 Z M 151.91 158.54 L 151.84 159.54 C 151.76 160.58 152.55 161.48 153.59 161.56 C 154.63 161.63 155.53 160.85 155.61 159.81 L 155.68 158.82 C 155.76 157.78 154.98 156.88 153.93 156.80 C 152.89 156.72 151.99 157.50 151.91 158.54 Z M 151.84 159.55 L 151.78 160.53 C 151.71 161.57 152.50 162.47 153.54 162.54 C 154.58 162.61 155.48 161.82 155.54 160.78 L 155.61 159.80 C 155.68 158.76 154.89 157.86 153.85 157.79 C 152.81 157.72 151.91 158.51 151.84 159.55 Z M 151.77 160.54 L 151.72 161.51 C 151.66 162.55 152.45 163.45 153.49 163.51 C 154.54 163.57 155.43 162.77 155.49 161.73 L 155.54 160.76 C 155.60 159.72 154.81 158.83 153.77 158.77 C 152.73 158.71 151.83 159.50 151.77 160.54 Z M 151.72 161.53 L 151.67 162.50 C 151.62 163.55 152.42 164.43 153.46 164.48 C 154.50 164.54 155.39 163.73 155.44 162.69 L 155.49 161.72 C 155.54 160.67 154.74 159.79 153.70 159.74 C 152.66 159.68 151.77 160.49 151.72 161.53 Z M 151.67 162.52 L 151.63 163.55 C 151.58 164.59 152.39 165.47 153.43 165.52 C 154.47 165.56 155.35 164.75 155.40 163.71 L 155.44 162.68 C 155.48 161.64 154.68 160.76 153.63 160.71 C 152.59 160.67 151.71 161.48 151.67 162.52 Z M 151.63 163.57 L 151.59 164.59 C 151.55 165.63 152.37 166.50 153.41 166.54 C 154.45 166.58 155.32 165.76 155.36 164.72 L 155.40 163.70 C 155.43 162.66 154.62 161.78 153.58 161.75 C 152.54 161.71 151.66 162.52 151.63 163.57 Z M 151.59 164.60 L 151.56 165.61 C 151.53 166.65 152.35 167.52 153.39 167.55 C 154.43 167.58 155.30 166.76 155.33 165.72 L 155.36 164.71 C 155.39 163.67 154.57 162.80 153.53 162.77 C 152.49 162.74 151.62 163.56 151.59 164.60 Z M 151.56 165.62 L 151.54 166.61 C 151.52 167.65 152.34 168.52 153.38 168.54 C 154.42 168.57 155.29 167.74 155.31 166.70 L 155.33 165.70 C 155.36 164.66 154.53 163.80 153.49 163.78 C 152.45 163.75 151.59 164.58 151.56 165.62 Z M 151.54 166.62 L 151.52 167.60 C 151.50 168.64 152.33 169.50 153.37 169.52 C 154.41 169.54 155.27 168.71 155.29 167.67 L 155.31 166.69 C 155.33 165.65 154.50 164.79 153.46 164.77 C 152.42 164.75 151.56 165.58 151.54 166.62 Z M 151.52 167.61 L 151.51 168.58 C 151.50 169.62 152.33 170.47 153.37 170.49 C 154.41 170.50 155.26 169.67 155.28 168.63 L 155.29 167.66 C 155.31 166.62 154.47 165.77 153.43 165.75 C 152.39 165.74 151.54 166.57 151.52 167.61 Z M 151.51 168.58 L 151.50 169.60 C 151.49 170.64 152.32 171.50 153.36 171.51 C 154.41 171.52 155.26 170.68 155.27 169.64 L 155.28 168.62 C 155.29 167.58 154.45 166.73 153.41 166.72 C 152.37 166.71 151.52 167.54 151.51 168.58 Z M 151.50 169.61 L 151.50 170.65 C 151.49 171.69 152.33 172.54 153.37 172.55 C 154.41 172.55 155.26 171.71 155.26 170.67 L 155.27 169.63 C 155.27 168.59 154.43 167.74 153.39 167.74 C 152.35 167.73 151.51 168.57 151.50 169.61 Z M 151.50 170.67 L 151.50 171.69 C 151.50 172.73 152.35 173.57 153.39 173.57 C 154.43 173.56 155.27 172.72 155.26 171.68 L 155.26 170.66 C 155.26 169.62 154.41 168.78 153.37 168.78 C 152.33 168.78 151.49 169.63 151.50 170.67 Z M 151.50 171.71 L 151.51 172.71 C 151.53 173.74 152.38 174.58 153.42 174.56 C 154.46 174.55 155.29 173.69 155.28 172.65 L 155.26 171.66 C 155.25 170.62 154.40 169.79 153.36 169.80 C 152.32 169.82 151.49 170.67 151.50 171.71 Z M 151.51 172.73 L 151.54 173.70 C 151.57 174.74 152.43 175.56 153.47 175.53 C 154.51 175.51 155.33 174.64 155.30 173.60 L 155.27 172.63 C 155.25 171.59 154.38 170.77 153.34 170.80 C 152.31 170.83 151.49 171.69 151.51 172.73 Z M 151.54 173.74 L 151.58 174.69 C 151.63 175.72 152.51 176.53 153.55 176.48 C 154.58 176.43 155.39 175.56 155.34 174.52 L 155.30 173.57 C 155.25 172.53 154.38 171.73 153.34 171.78 C 152.30 171.82 151.50 172.70 151.54 173.74 Z M 151.59 174.73 L 151.66 175.76 C 151.73 176.80 152.62 177.58 153.66 177.51 C 154.69 177.44 155.48 176.55 155.41 175.51 L 155.34 174.48 C 155.27 173.44 154.37 172.66 153.34 172.73 C 152.30 172.80 151.52 173.69 151.59 174.73 Z M 151.66 175.82 L 151.76 176.86 C 151.86 177.89 152.78 178.65 153.81 178.55 C 154.84 178.45 155.60 177.53 155.50 176.50 L 155.40 175.46 C 155.30 174.43 154.39 173.67 153.35 173.77 C 152.32 173.87 151.56 174.78 151.66 175.82 Z M 151.77 176.92 L 151.90 177.93 C 152.04 178.95 152.98 179.68 154.01 179.54 C 155.03 179.41 155.76 178.47 155.62 177.44 L 155.49 176.44 C 155.36 175.41 154.42 174.68 153.39 174.82 C 152.36 174.95 151.64 175.90 151.77 176.92 Z M 151.91 178.00 L 152.08 178.96 C 152.26 179.98 153.23 180.67 154.25 180.49 C 155.27 180.32 155.95 179.35 155.78 178.32 L 155.61 177.36 C 155.44 176.34 154.47 175.66 153.44 175.83 C 152.42 176.01 151.74 176.98 151.91 178.00 Z M 152.10 179.05 L 152.30 179.96 C 152.53 180.98 153.53 181.61 154.54 181.39 C 155.55 181.17 156.19 180.16 155.96 179.15 L 155.76 178.24 C 155.54 177.23 154.53 176.59 153.52 176.81 C 152.51 177.04 151.87 178.04 152.10 179.05 Z M 152.33 180.07 L 152.60 181.03 C 152.88 182.03 153.92 182.61 154.91 182.33 C 155.91 182.05 156.49 181.01 156.21 180.01 L 155.93 179.05 C 155.65 178.05 154.62 177.47 153.62 177.76 C 152.63 178.04 152.05 179.07 152.33 180.07 Z M 152.64 181.15 L 152.98 182.10 C 153.32 183.08 154.39 183.59 155.37 183.25 C 156.34 182.90 156.85 181.83 156.51 180.86 L 156.17 179.90 C 155.83 178.93 154.76 178.41 153.78 178.76 C 152.81 179.10 152.30 180.17 152.64 181.15 Z M 153.02 182.21 L 153.41 183.12 C 153.81 184.07 154.91 184.52 155.86 184.12 C 156.81 183.71 157.25 182.62 156.85 181.66 L 156.47 180.75 C 156.06 179.80 154.97 179.36 154.01 179.76 C 153.06 180.16 152.62 181.26 153.02 182.21 Z M 153.45 183.21 L 153.88 184.09 C 154.33 185.02 155.45 185.41 156.38 184.95 C 157.31 184.50 157.69 183.38 157.24 182.45 L 156.81 181.57 C 156.36 180.65 155.24 180.26 154.31 180.71 C 153.38 181.17 153.00 182.29 153.45 183.21 Z M 153.92 184.17 L 154.40 185.04 C 154.89 185.95 156.03 186.28 156.93 185.79 C 157.84 185.30 158.17 184.16 157.68 183.25 L 157.20 182.38 C 156.70 181.47 155.57 181.14 154.66 181.63 C 153.76 182.13 153.42 183.26 153.92 184.17 Z M 154.44 185.12 L 154.97 186.00 C 155.51 186.88 156.66 187.17 157.54 186.63 C 158.42 186.10 158.70 184.95 158.17 184.07 L 157.63 183.18 C 157.10 182.30 155.95 182.02 155.07 182.55 C 154.19 183.09 153.90 184.23 154.44 185.12 Z M 155.03 186.09 L 155.60 186.93 C 156.19 187.78 157.35 188.00 158.20 187.41 C 159.05 186.83 159.27 185.67 158.69 184.82 L 158.11 183.98 C 157.53 183.13 156.37 182.91 155.52 183.49 C 154.67 184.08 154.45 185.24 155.03 186.09 Z M 155.68 187.03 L 156.29 187.80 C 156.93 188.61 158.11 188.74 158.91 188.10 C 159.72 187.46 159.86 186.29 159.22 185.48 L 158.61 184.72 C 157.97 183.91 156.79 183.77 155.99 184.41 C 155.18 185.05 155.04 186.23 155.68 187.03 Z M 156.41 187.93 L 157.08 188.63 C 157.79 189.37 158.97 189.40 159.71 188.69 C 160.46 187.98 160.48 186.80 159.77 186.05 L 159.10 185.35 C 158.39 184.61 157.21 184.58 156.46 185.30 C 155.72 186.01 155.70 187.19 156.41 187.93 Z M 157.24 188.78 L 158.03 189.43 C 158.83 190.08 160.00 189.97 160.66 189.17 C 161.31 188.38 161.19 187.20 160.40 186.55 L 159.61 185.90 C 158.81 185.25 157.64 185.36 156.98 186.16 C 156.33 186.96 156.45 188.13 157.24 188.78 Z M 158.22 189.56 L 159.05 190.09 C 159.92 190.64 161.07 190.38 161.62 189.52 C 162.17 188.65 161.91 187.50 161.05 186.95 L 160.21 186.42 C 159.34 185.87 158.19 186.12 157.64 186.99 C 157.09 187.86 157.35 189.01 158.22 189.56 Z M 159.22 190.19 L 160.10 190.62 C 161.02 191.07 162.14 190.70 162.59 189.78 C 163.05 188.85 162.67 187.74 161.75 187.28 L 160.87 186.85 C 159.95 186.39 158.83 186.77 158.38 187.69 C 157.92 188.62 158.30 189.73 159.22 190.19 Z M 160.24 190.68 L 161.14 191.04 C 162.10 191.41 163.18 190.94 163.55 189.99 C 163.93 189.03 163.46 187.95 162.50 187.57 L 161.61 187.22 C 160.65 186.84 159.57 187.31 159.19 188.27 C 158.82 189.23 159.29 190.31 160.24 190.68 Z M 161.27 191.08 L 162.20 191.37 C 163.18 191.68 164.22 191.14 164.53 190.16 C 164.84 189.18 164.30 188.13 163.32 187.83 L 162.38 187.53 C 161.40 187.22 160.36 187.77 160.05 188.75 C 159.74 189.73 160.29 190.77 161.27 191.08 Z M 162.31 191.40 L 163.29 191.65 C 164.29 191.89 165.30 191.29 165.54 190.29 C 165.79 189.29 165.18 188.28 164.19 188.04 L 163.21 187.79 C 162.21 187.55 161.20 188.16 160.95 189.15 C 160.71 190.15 161.32 191.16 162.31 191.40 Z M 163.39 191.67 L 164.40 191.86 C 165.41 192.05 166.38 191.39 166.57 190.39 C 166.77 189.38 166.11 188.41 165.10 188.21 L 164.09 188.02 C 163.08 187.82 162.11 188.48 161.92 189.49 C 161.72 190.50 162.38 191.47 163.39 191.67 Z M 164.48 191.87 L 165.42 192.01 C 166.43 192.16 167.38 191.46 167.53 190.45 C 167.68 189.44 166.98 188.49 165.97 188.34 L 165.02 188.20 C 164.01 188.05 163.06 188.75 162.91 189.76 C 162.76 190.78 163.46 191.72 164.48 191.87 Z M 165.48 192.02 L 166.47 192.13 C 167.48 192.25 168.40 191.52 168.52 190.50 C 168.64 189.48 167.90 188.56 166.88 188.44 L 165.90 188.33 C 164.88 188.22 163.96 188.95 163.85 189.97 C 163.73 190.99 164.47 191.91 165.48 192.02 Z M 166.52 192.14 L 167.54 192.22 C 168.56 192.31 169.46 191.55 169.54 190.53 C 169.63 189.50 168.87 188.61 167.85 188.52 L 166.83 188.44 C 165.81 188.35 164.91 189.11 164.83 190.13 C 164.74 191.16 165.50 192.05 166.52 192.14 Z M 167.59 192.22 L 168.63 192.28 C 169.65 192.34 170.53 191.56 170.59 190.53 C 170.65 189.51 169.86 188.64 168.84 188.58 L 167.80 188.52 C 166.77 188.46 165.90 189.25 165.84 190.27 C 165.78 191.29 166.57 192.17 167.59 192.22 Z M 168.67 192.28 L 169.65 192.32 C 170.67 192.35 171.53 191.55 171.56 190.53 C 171.60 189.50 170.80 188.65 169.77 188.61 L 168.80 188.58 C 167.78 188.54 166.92 189.34 166.88 190.37 C 166.85 191.39 167.65 192.25 168.67 192.28 Z M 169.67 192.32 L 170.67 192.34 C 171.69 192.36 172.54 191.54 172.56 190.52 C 172.58 189.49 171.76 188.65 170.74 188.63 L 169.74 188.61 C 168.72 188.59 167.88 189.41 167.86 190.43 C 167.84 191.45 168.65 192.30 169.67 192.32 Z M 170.69 192.34 L 171.70 192.34 C 172.72 192.35 173.56 191.53 173.56 190.51 C 173.57 189.48 172.75 188.65 171.73 188.64 L 170.72 188.63 C 169.70 188.62 168.86 189.44 168.85 190.47 C 168.84 191.49 169.66 192.33 170.69 192.34 Z M 171.71 192.34 L 172.72 192.35 C 173.75 192.35 174.58 191.52 174.58 190.50 C 174.58 189.47 173.76 188.64 172.73 188.64 L 171.72 188.64 C 170.69 188.64 169.86 189.46 169.86 190.49 C 169.86 191.51 170.68 192.34 171.71 192.34 Z M 172.73 192.35 L 173.72 192.35 C 174.75 192.35 175.58 191.52 175.58 190.49 C 175.58 189.47 174.75 188.64 173.72 188.64 L 172.73 188.64 C 171.70 188.64 170.88 189.47 170.88 190.49 C 170.88 191.52 171.71 192.35 172.73 192.35 Z M 173.73 192.34 L 174.71 192.34 C 175.73 192.34 176.56 191.51 176.56 190.49 C 176.55 189.46 175.72 188.64 174.70 188.64 L 173.72 188.64 C 172.70 188.65 171.87 189.48 171.87 190.50 C 171.88 191.52 172.71 192.35 173.73 192.34 Z M 174.72 192.34 L 175.71 192.33 C 176.74 192.32 177.55 191.48 177.54 190.46 C 177.53 189.44 176.70 188.62 175.67 188.63 L 174.69 188.64 C 173.66 188.65 172.84 189.49 172.85 190.51 C 172.87 191.53 173.70 192.35 174.72 192.34 Z M 175.74 192.33 L 176.74 192.31 C 177.76 192.28 178.57 191.44 178.55 190.42 C 178.52 189.39 177.68 188.59 176.66 188.61 L 175.65 188.63 C 174.63 188.66 173.82 189.50 173.85 190.52 C 173.87 191.54 174.72 192.35 175.74 192.33 Z M 176.77 192.30 L 177.80 192.26 C 178.82 192.22 179.61 191.36 179.57 190.34 C 179.53 189.32 178.67 188.53 177.65 188.57 L 176.63 188.61 C 175.61 188.65 174.81 189.51 174.85 190.53 C 174.89 191.55 175.75 192.34 176.77 192.30 Z M 177.83 192.26 L 178.84 192.20 C 179.86 192.14 180.64 191.27 180.58 190.25 C 180.52 189.23 179.64 188.45 178.62 188.51 L 177.62 188.57 C 176.60 188.63 175.82 189.51 175.88 190.53 C 175.94 191.54 176.82 192.32 177.83 192.26 Z M 178.88 192.20 L 179.89 192.12 C 180.91 192.04 181.66 191.15 181.58 190.13 C 181.50 189.11 180.61 188.36 179.60 188.44 L 178.59 188.52 C 177.57 188.60 176.81 189.49 176.89 190.50 C 176.98 191.52 177.86 192.28 178.88 192.20 Z M 179.93 192.11 L 180.94 192.01 C 181.95 191.90 182.69 191.00 182.59 189.99 C 182.48 188.97 181.58 188.24 180.57 188.34 L 179.56 188.44 C 178.54 188.55 177.81 189.45 177.91 190.47 C 178.01 191.48 178.92 192.21 179.93 192.11 Z M 180.99 192.00 L 181.98 191.87 C 182.99 191.74 183.71 190.82 183.58 189.81 C 183.45 188.80 182.52 188.09 181.51 188.22 L 180.52 188.35 C 179.51 188.48 178.80 189.40 178.93 190.41 C 179.06 191.42 179.98 192.13 180.99 192.00 Z M 182.04 191.86 L 183.00 191.71 C 184.01 191.55 184.69 190.61 184.53 189.61 C 184.37 188.60 183.43 187.92 182.43 188.08 L 181.46 188.23 C 180.46 188.39 179.77 189.33 179.93 190.33 C 180.09 191.34 181.03 192.02 182.04 191.86 Z M 183.07 191.70 L 184.08 191.50 C 185.08 191.31 185.73 190.34 185.54 189.34 C 185.34 188.35 184.38 187.70 183.38 187.89 L 182.36 188.09 C 181.37 188.28 180.72 189.25 180.91 190.24 C 181.10 191.24 182.07 191.89 183.07 191.70 Z M 184.15 191.48 L 185.14 191.25 C 186.13 191.02 186.75 190.03 186.51 189.04 C 186.28 188.06 185.29 187.44 184.31 187.67 L 183.31 187.91 C 182.32 188.14 181.71 189.13 181.94 190.12 C 182.17 191.10 183.16 191.72 184.15 191.48 Z M 185.21 191.23 L 186.16 190.98 C 187.14 190.71 187.72 189.70 187.45 188.72 C 187.19 187.75 186.18 187.17 185.20 187.43 L 184.25 187.69 C 183.27 187.96 182.69 188.96 182.95 189.94 C 183.22 190.92 184.23 191.50 185.21 191.23 Z M 186.21 190.96 L 187.14 190.68 C 188.11 190.39 188.66 189.36 188.36 188.39 C 188.07 187.43 187.05 186.88 186.08 187.17 L 185.15 187.45 C 184.18 187.74 183.63 188.76 183.93 189.73 C 184.22 190.70 185.24 191.25 186.21 190.96 Z M 187.17 190.67 L 188.11 190.36 C 189.07 190.05 189.60 189.02 189.28 188.05 C 188.97 187.09 187.94 186.57 186.98 186.88 L 186.04 187.18 C 185.08 187.50 184.55 188.53 184.87 189.49 C 185.18 190.45 186.21 190.98 187.17 190.67 Z M 188.14 190.35 L 189.10 190.02 C 190.06 189.69 190.57 188.65 190.24 187.69 C 189.91 186.74 188.87 186.23 187.91 186.56 L 186.95 186.89 C 185.99 187.22 185.49 188.26 185.81 189.21 C 186.14 190.17 187.18 190.68 188.14 190.35 Z M 189.13 190.00 L 190.08 189.66 C 191.03 189.31 191.52 188.27 191.17 187.32 C 190.83 186.37 189.78 185.88 188.83 186.23 L 187.88 186.57 C 186.94 186.92 186.45 187.96 186.79 188.91 C 187.14 189.86 188.19 190.35 189.13 190.00 Z M 190.11 189.65 L 191.04 189.29 C 191.98 188.93 192.44 187.87 192.08 186.93 C 191.72 185.99 190.66 185.52 189.72 185.89 L 188.80 186.24 C 187.86 186.60 187.39 187.66 187.76 188.60 C 188.12 189.54 189.17 190.01 190.11 189.65 Z M 191.07 189.27 L 191.98 188.90 C 192.91 188.52 193.36 187.45 192.98 186.52 C 192.59 185.59 191.53 185.15 190.60 185.53 L 189.69 185.90 C 188.76 186.28 188.31 187.35 188.69 188.28 C 189.08 189.21 190.14 189.65 191.07 189.27 Z M 192.02 188.88 L 192.97 188.46 C 193.89 188.06 194.31 186.99 193.91 186.07 C 193.50 185.15 192.43 184.73 191.51 185.13 L 190.56 185.55 C 189.64 185.95 189.22 187.02 189.63 187.94 C 190.03 188.86 191.10 189.28 192.02 188.88 Z M 193.01 188.44 L 193.92 188.02 C 194.83 187.59 195.22 186.51 194.80 185.61 C 194.37 184.70 193.29 184.30 192.38 184.73 L 191.47 185.15 C 190.57 185.57 190.17 186.65 190.60 187.56 C 191.02 188.47 192.10 188.87 193.01 188.44 Z M 193.95 188.00 L 194.82 187.57 C 195.72 187.13 196.09 186.05 195.65 185.15 C 195.21 184.25 194.12 183.88 193.22 184.32 L 192.35 184.75 C 191.45 185.19 191.08 186.27 191.52 187.17 C 191.96 188.07 193.05 188.44 193.95 188.00 Z M 194.85 187.56 L 195.68 187.13 C 196.57 186.68 196.92 185.59 196.47 184.70 C 196.01 183.81 194.92 183.45 194.03 183.91 L 193.20 184.33 C 192.31 184.79 191.96 185.88 192.41 186.77 C 192.87 187.66 193.96 188.01 194.85 187.56 Z M 195.70 187.11 L 196.52 186.68 C 197.40 186.21 197.74 185.12 197.27 184.24 C 196.80 183.36 195.71 183.02 194.83 183.49 L 194.01 183.92 C 193.13 184.39 192.79 185.49 193.26 186.37 C 193.73 187.25 194.82 187.58 195.70 187.11 Z M 196.55 186.66 L 197.40 186.19 C 198.27 185.70 198.59 184.61 198.11 183.74 C 197.62 182.87 196.53 182.55 195.66 183.03 L 194.80 183.51 C 193.93 183.99 193.61 185.09 194.10 185.96 C 194.58 186.83 195.68 187.14 196.55 186.66 Z M 197.43 186.17 L 198.37 185.63 C 199.23 185.13 199.52 184.03 199.03 183.17 C 198.53 182.31 197.43 182.01 196.57 182.51 L 195.63 183.05 C 194.77 183.55 194.48 184.65 194.97 185.51 C 195.47 186.37 196.57 186.66 197.43 186.17 Z M 198.39 185.61 L 199.26 185.09 C 200.11 184.58 200.39 183.48 199.89 182.63 C 199.38 181.78 198.28 181.50 197.42 182.00 L 196.55 182.53 C 195.70 183.03 195.42 184.14 195.93 184.99 C 196.43 185.84 197.54 186.12 198.39 185.61 Z M 199.28 185.08 L 200.14 184.55 C 200.99 184.03 201.25 182.93 200.74 182.08 C 200.22 181.24 199.12 180.97 198.27 181.49 L 197.41 182.02 C 196.56 182.53 196.30 183.64 196.81 184.48 C 197.33 185.33 198.43 185.59 199.28 185.08 Z M 200.16 184.53 L 201.04 183.98 C 201.88 183.45 202.13 182.35 201.60 181.51 C 201.08 180.68 199.97 180.42 199.14 180.95 L 198.25 181.50 C 197.42 182.03 197.17 183.14 197.69 183.97 C 198.22 184.81 199.32 185.06 200.16 184.53 Z M 201.06 183.96 L 201.92 183.40 C 202.75 182.86 202.98 181.76 202.44 180.93 C 201.91 180.10 200.80 179.87 199.97 180.41 L 199.11 180.97 C 198.29 181.51 198.05 182.61 198.59 183.44 C 199.13 184.26 200.24 184.50 201.06 183.96 Z M 201.95 183.38 L 202.75 182.83 C 203.56 182.28 203.78 181.17 203.22 180.36 C 202.67 179.54 201.56 179.33 200.75 179.89 L 199.95 180.43 C 199.13 180.99 198.92 182.09 199.47 182.91 C 200.03 183.72 201.14 183.93 201.95 183.38 Z M 202.80 182.79 L 203.71 182.12 C 204.50 181.54 204.67 180.43 204.09 179.64 C 203.51 178.85 202.40 178.68 201.61 179.26 L 200.70 179.93 C 199.91 180.51 199.74 181.62 200.32 182.41 C 200.90 183.20 202.01 183.37 202.80 182.79 Z M 203.81 182.03 L 204.60 181.35 C 205.34 180.72 205.42 179.61 204.79 178.87 C 204.15 178.13 203.04 178.04 202.30 178.68 L 201.52 179.35 C 200.78 179.98 200.69 181.10 201.32 181.84 C 201.96 182.57 203.07 182.66 203.81 182.03 Z M 204.74 181.19 L 205.36 180.52 C 206.01 179.80 205.96 178.70 205.24 178.04 C 204.53 177.39 203.42 177.44 202.77 178.16 L 202.15 178.83 C 201.50 179.55 201.55 180.66 202.27 181.31 C 202.98 181.96 204.09 181.91 204.74 181.19 Z M 205.53 180.27 L 206.02 179.50 C 206.53 178.69 206.30 177.62 205.49 177.10 C 204.67 176.59 203.60 176.83 203.09 177.64 L 202.60 178.41 C 202.08 179.22 202.32 180.29 203.13 180.81 C 203.94 181.32 205.02 181.08 205.53 180.27 Z M 206.17 179.16 L 206.52 178.19 C 206.85 177.30 206.38 176.31 205.49 175.98 C 204.59 175.66 203.61 176.12 203.28 177.02 L 202.93 177.98 C 202.61 178.88 203.07 179.87 203.96 180.19 C 204.86 180.51 205.85 180.05 206.17 179.16 Z M 206.60 177.73 L 206.68 176.76 C 206.75 175.82 206.04 175.00 205.10 174.93 C 204.16 174.86 203.34 175.56 203.27 176.50 L 203.20 177.48 C 203.13 178.42 203.83 179.24 204.77 179.31 C 205.71 179.38 206.53 178.67 206.60 177.73 Z M 206.60 176.21 L 206.39 175.38 C 206.15 174.48 205.24 173.94 204.34 174.17 C 203.44 174.40 202.90 175.32 203.13 176.22 L 203.35 177.05 C 203.58 177.95 204.50 178.49 205.40 178.26 C 206.30 178.02 206.84 177.10 206.60 176.21 Z M 206.14 174.92 L 205.71 174.24 C 205.23 173.48 204.21 173.25 203.45 173.74 C 202.68 174.23 202.46 175.24 202.95 176.00 L 203.38 176.68 C 203.86 177.44 204.88 177.67 205.64 177.18 C 206.41 176.70 206.63 175.68 206.14 174.92 Z M 205.47 174.02 L 204.80 173.32 C 204.19 172.69 203.18 172.67 202.55 173.28 C 201.92 173.88 201.90 174.89 202.51 175.52 L 203.18 176.22 C 203.79 176.86 204.80 176.88 205.43 176.27 C 206.06 175.66 206.08 174.65 205.47 174.02 Z M 204.65 173.25 L 203.71 172.45 C 203.06 171.90 202.09 171.98 201.54 172.63 C 200.99 173.27 201.07 174.24 201.72 174.79 L 202.66 175.59 C 203.31 176.14 204.28 176.06 204.83 175.42 C 205.37 174.77 205.30 173.80 204.65 173.25 Z M 203.64 172.44 L 202.90 171.86 C 202.25 171.34 201.30 171.45 200.79 172.10 C 200.28 172.75 200.39 173.70 201.04 174.21 L 201.78 174.80 C 202.43 175.31 203.38 175.20 203.89 174.55 C 204.40 173.90 204.29 172.96 203.64 172.44 Z M 202.88 171.86 L 202.17 171.31 C 201.52 170.81 200.58 170.93 200.08 171.58 C 199.58 172.23 199.70 173.17 200.35 173.67 L 201.06 174.21 C 201.71 174.71 202.64 174.59 203.15 173.94 C 203.65 173.29 203.53 172.36 202.88 171.86 Z M 202.15 171.31 L 201.39 170.73 C 200.74 170.24 199.81 170.36 199.32 171.01 C 198.82 171.66 198.95 172.59 199.60 173.08 L 200.37 173.67 C 201.02 174.16 201.95 174.03 202.44 173.38 C 202.93 172.73 202.80 171.81 202.15 171.31 Z M 201.37 170.73 L 200.56 170.12 C 199.91 169.63 198.99 169.77 198.50 170.41 C 198.02 171.06 198.15 171.98 198.80 172.47 L 199.61 173.08 C 200.26 173.57 201.18 173.44 201.67 172.79 C 202.15 172.14 202.02 171.22 201.37 170.73 Z M 200.55 170.13 L 199.70 169.49 C 199.05 169.01 198.14 169.14 197.65 169.79 C 197.17 170.43 197.31 171.35 197.95 171.83 L 198.81 172.46 C 199.45 172.95 200.37 172.81 200.85 172.17 C 201.33 171.52 201.19 170.61 200.55 170.13 Z M 199.69 169.50 L 198.81 168.85 C 198.17 168.37 197.26 168.50 196.78 169.15 C 196.31 169.79 196.44 170.70 197.08 171.17 L 197.96 171.82 C 198.60 172.30 199.51 172.16 199.99 171.52 C 200.46 170.88 200.33 169.97 199.69 169.50 Z M 198.80 168.85 L 197.91 168.19 C 197.27 167.72 196.37 167.86 195.90 168.50 C 195.43 169.13 195.56 170.04 196.20 170.51 L 197.09 171.17 C 197.73 171.64 198.63 171.50 199.10 170.86 C 199.58 170.23 199.44 169.32 198.80 168.85 Z"
      fill="black"
      fill-rule="nonzero" /><path d="M 185.75 105.26 L 185.15 106.11 C 184.61 106.86 184.79 107.89 185.53 108.43 C 186.28 108.96 187.31 108.78 187.84 108.04 L 188.45 107.19 C 188.98 106.44 188.81 105.41 188.06 104.87 C 187.32 104.34 186.28 104.52 185.75 105.26 Z M 185.14 106.12 L 184.55 106.96 C 184.02 107.71 184.20 108.74 184.94 109.27 C 185.69 109.80 186.73 109.62 187.26 108.87 L 187.85 108.03 C 188.38 107.28 188.20 106.25 187.45 105.72 C 186.70 105.19 185.67 105.37 185.14 106.12 Z M 184.54 106.97 L 183.97 107.80 C 183.45 108.55 183.64 109.58 184.39 110.10 C 185.14 110.62 186.18 110.44 186.70 109.68 L 187.27 108.86 C 187.79 108.11 187.60 107.07 186.84 106.55 C 186.09 106.03 185.06 106.22 184.54 106.97 Z M 183.95 107.82 L 183.42 108.61 C 182.91 109.37 183.12 110.40 183.88 110.91 C 184.64 111.42 185.67 111.22 186.18 110.45 L 186.71 109.66 C 187.22 108.90 187.02 107.87 186.25 107.36 C 185.49 106.85 184.46 107.06 183.95 107.82 Z M 183.41 108.65 L 182.88 109.50 C 182.40 110.26 182.63 111.28 183.39 111.76 C 184.16 112.25 185.18 112.02 185.66 111.25 L 186.19 110.41 C 186.68 109.64 186.45 108.63 185.68 108.14 C 184.91 107.66 183.90 107.89 183.41 108.65 Z M 182.89 109.56 L 182.39 110.41 C 181.94 111.17 182.19 112.15 182.95 112.60 C 183.71 113.05 184.69 112.80 185.14 112.04 L 185.65 111.19 C 186.10 110.43 185.85 109.45 185.09 109.00 C 184.33 108.55 183.35 108.80 182.89 109.56 Z M 182.42 110.46 L 181.94 111.31 C 181.51 112.06 181.78 113.00 182.52 113.43 C 183.27 113.85 184.22 113.58 184.64 112.84 L 185.12 111.99 C 185.54 111.24 185.27 110.30 184.53 109.87 C 183.78 109.45 182.84 109.72 182.42 110.46 Z M 181.97 111.35 L 181.49 112.23 C 181.09 112.96 181.35 113.87 182.08 114.27 C 182.80 114.67 183.71 114.41 184.11 113.68 L 184.60 112.80 C 185.00 112.07 184.74 111.16 184.01 110.76 C 183.28 110.36 182.37 110.63 181.97 111.35 Z M 181.51 112.25 L 181.07 113.04 C 180.68 113.76 180.94 114.65 181.65 115.04 C 182.37 115.43 183.26 115.17 183.65 114.46 L 184.09 113.67 C 184.48 112.95 184.22 112.06 183.51 111.67 C 182.80 111.28 181.90 111.54 181.51 112.25 Z M 181.08 113.05 L 180.62 113.88 C 180.23 114.59 180.49 115.48 181.19 115.87 C 181.90 116.26 182.79 116.00 183.18 115.30 L 183.64 114.46 C 184.03 113.75 183.78 112.86 183.07 112.47 C 182.36 112.08 181.47 112.34 181.08 113.05 Z M 180.63 113.88 L 180.14 114.77 C 179.74 115.47 180.00 116.36 180.70 116.75 C 181.40 117.14 182.28 116.89 182.67 116.19 L 183.17 115.30 C 183.56 114.60 183.31 113.71 182.61 113.32 C 181.91 112.93 181.02 113.18 180.63 113.88 Z M 180.15 114.77 L 179.62 115.70 C 179.23 116.40 179.47 117.28 180.17 117.67 C 180.87 118.06 181.75 117.82 182.14 117.12 L 182.66 116.19 C 183.06 115.49 182.81 114.61 182.11 114.22 C 181.42 113.83 180.54 114.07 180.15 114.77 Z M 179.63 115.70 L 179.13 116.58 C 178.73 117.27 178.98 118.15 179.67 118.54 C 180.36 118.93 181.24 118.69 181.63 118.00 L 182.13 117.12 C 182.52 116.43 182.28 115.55 181.59 115.16 C 180.90 114.77 180.02 115.01 179.63 115.70 Z M 179.13 116.58 L 178.65 117.41 C 178.26 118.10 178.50 118.97 179.18 119.37 C 179.87 119.77 180.75 119.53 181.14 118.84 L 181.62 118.01 C 182.02 117.32 181.78 116.44 181.09 116.05 C 180.41 115.65 179.53 115.89 179.13 116.58 Z M 178.66 117.41 L 178.16 118.27 C 177.76 118.95 178.00 119.83 178.68 120.22 C 179.37 120.62 180.25 120.39 180.64 119.70 L 181.14 118.84 C 181.54 118.16 181.30 117.28 180.62 116.88 C 179.93 116.49 179.06 116.72 178.66 117.41 Z M 178.16 118.26 L 177.65 119.14 C 177.26 119.82 177.49 120.70 178.17 121.10 C 178.85 121.50 179.73 121.27 180.13 120.58 L 180.64 119.70 C 181.04 119.02 180.81 118.15 180.12 117.75 C 179.44 117.35 178.56 117.58 178.16 118.26 Z M 177.66 119.14 L 177.13 120.03 C 176.74 120.71 176.96 121.59 177.65 121.99 C 178.33 122.38 179.20 122.16 179.60 121.48 L 180.12 120.58 C 180.52 119.90 180.29 119.03 179.61 118.63 C 178.93 118.23 178.06 118.46 177.66 119.14 Z M 177.14 120.03 L 176.62 120.92 C 176.22 121.60 176.44 122.47 177.12 122.87 C 177.80 123.27 178.68 123.04 179.08 122.36 L 179.60 121.48 C 180.00 120.80 179.77 119.92 179.09 119.52 C 178.41 119.12 177.54 119.35 177.14 120.03 Z M 176.62 120.91 L 176.12 121.76 C 175.72 122.44 175.94 123.31 176.62 123.71 C 177.30 124.12 178.17 123.89 178.57 123.21 L 179.07 122.37 C 179.47 121.69 179.25 120.81 178.57 120.41 C 177.89 120.01 177.02 120.24 176.62 120.91 Z M 176.12 121.76 L 175.61 122.61 C 175.21 123.29 175.44 124.16 176.11 124.56 C 176.79 124.97 177.67 124.74 178.07 124.07 L 178.57 123.21 C 178.97 122.54 178.75 121.66 178.07 121.26 C 177.40 120.86 176.52 121.08 176.12 121.76 Z M 175.62 122.61 L 175.11 123.47 C 174.70 124.14 174.92 125.02 175.60 125.42 C 176.28 125.82 177.15 125.60 177.56 124.92 L 178.07 124.07 C 178.47 123.39 178.25 122.52 177.57 122.11 C 176.89 121.71 176.02 121.93 175.62 122.61 Z M 175.11 123.46 L 174.59 124.33 C 174.19 125.00 174.41 125.88 175.08 126.28 C 175.76 126.69 176.63 126.47 177.04 125.79 L 177.55 124.93 C 177.96 124.25 177.74 123.38 177.06 122.97 C 176.39 122.57 175.51 122.79 175.11 123.46 Z M 174.59 124.32 L 174.07 125.19 C 173.66 125.87 173.88 126.74 174.55 127.15 C 175.23 127.56 176.11 127.34 176.51 126.66 L 177.04 125.79 C 177.44 125.12 177.22 124.24 176.55 123.84 C 175.87 123.43 175.00 123.65 174.59 124.32 Z M 174.07 125.19 L 173.55 126.05 C 173.14 126.72 173.36 127.60 174.03 128.01 C 174.70 128.42 175.58 128.20 175.99 127.53 L 176.51 126.67 C 176.92 125.99 176.70 125.12 176.03 124.71 C 175.35 124.30 174.48 124.52 174.07 125.19 Z M 173.55 126.05 L 173.04 126.90 C 172.63 127.57 172.84 128.44 173.51 128.85 C 174.18 129.26 175.06 129.05 175.47 128.38 L 175.99 127.53 C 176.40 126.86 176.18 125.98 175.51 125.57 C 174.84 125.16 173.96 125.38 173.55 126.05 Z M 173.04 126.89 L 172.52 127.74 C 172.10 128.41 172.31 129.29 172.98 129.70 C 173.65 130.11 174.53 129.90 174.94 129.23 L 175.47 128.38 C 175.88 127.71 175.67 126.83 175.00 126.42 C 174.33 126.01 173.45 126.22 173.04 126.89 Z M 172.52 127.74 L 171.99 128.59 C 171.57 129.26 171.78 130.14 172.45 130.55 C 173.12 130.97 174.00 130.76 174.41 130.09 L 174.94 129.24 C 175.36 128.57 175.15 127.69 174.48 127.28 C 173.81 126.86 172.93 127.07 172.52 127.74 Z M 171.99 128.58 L 171.46 129.44 C 171.04 130.10 171.24 130.98 171.91 131.40 C 172.58 131.82 173.46 131.62 173.87 130.95 L 174.41 130.10 C 174.83 129.43 174.63 128.55 173.96 128.13 C 173.29 127.72 172.41 127.92 171.99 128.58 Z M 171.46 129.43 L 170.93 130.28 C 170.50 130.94 170.70 131.82 171.36 132.24 C 172.03 132.67 172.91 132.47 173.33 131.80 L 173.87 130.96 C 174.29 130.29 174.10 129.41 173.43 128.99 C 172.77 128.57 171.89 128.76 171.46 129.43 Z M 170.93 130.27 L 170.38 131.12 C 169.95 131.78 170.14 132.66 170.81 133.09 C 171.47 133.52 172.35 133.33 172.78 132.67 L 173.33 131.81 C 173.75 131.15 173.56 130.27 172.90 129.84 C 172.24 129.42 171.36 129.61 170.93 130.27 Z M 170.39 131.11 L 169.83 131.97 C 169.39 132.62 169.58 133.51 170.24 133.94 C 170.89 134.37 171.78 134.19 172.21 133.53 L 172.77 132.67 C 173.20 132.02 173.02 131.13 172.36 130.70 C 171.70 130.27 170.82 130.45 170.39 131.11 Z M 169.83 131.95 L 169.27 132.80 C 168.83 133.45 169.01 134.34 169.66 134.77 C 170.32 135.21 171.20 135.04 171.64 134.38 L 172.20 133.54 C 172.64 132.89 172.46 132.00 171.81 131.56 C 171.16 131.12 170.27 131.30 169.83 131.95 Z M 169.28 132.79 L 168.71 133.61 C 168.27 134.26 168.44 135.15 169.09 135.59 C 169.74 136.04 170.62 135.87 171.07 135.22 L 171.63 134.39 C 172.08 133.74 171.91 132.86 171.26 132.41 C 170.61 131.97 169.72 132.14 169.28 132.79 Z M 168.72 133.60 L 168.15 134.41 C 167.70 135.05 167.86 135.94 168.51 136.39 C 169.15 136.85 170.04 136.69 170.49 136.04 L 171.06 135.23 C 171.51 134.59 171.35 133.70 170.71 133.25 C 170.06 132.80 169.17 132.95 168.72 133.60 Z M 168.17 134.40 L 167.60 135.19 C 167.14 135.82 167.28 136.72 167.92 137.17 C 168.56 137.63 169.45 137.49 169.91 136.85 L 170.48 136.06 C 170.94 135.42 170.79 134.53 170.15 134.07 C 169.51 133.61 168.62 133.76 168.17 134.40 Z M 167.61 135.17 L 167.01 135.98 C 166.54 136.61 166.67 137.51 167.31 137.97 C 167.94 138.44 168.83 138.31 169.30 137.68 L 169.90 136.86 C 170.37 136.23 170.24 135.34 169.60 134.87 C 168.97 134.40 168.08 134.54 167.61 135.17 Z M 167.02 135.97 L 166.40 136.77 C 165.93 137.40 166.05 138.29 166.67 138.77 C 167.30 139.25 168.20 139.13 168.67 138.50 L 169.29 137.69 C 169.76 137.07 169.64 136.17 169.02 135.70 C 168.39 135.22 167.50 135.34 167.02 135.97 Z M 166.41 136.76 L 165.80 137.55 C 165.31 138.17 165.43 139.07 166.05 139.55 C 166.67 140.03 167.56 139.92 168.05 139.30 L 168.66 138.51 C 169.15 137.89 169.04 137.00 168.41 136.51 C 167.79 136.03 166.90 136.14 166.41 136.76 Z M 165.81 137.54 L 165.19 138.32 C 164.70 138.93 164.80 139.83 165.42 140.32 C 166.04 140.81 166.93 140.70 167.42 140.09 L 168.04 139.31 C 168.53 138.70 168.43 137.80 167.81 137.31 C 167.19 136.82 166.30 136.92 165.81 137.54 Z M 165.20 138.31 L 164.58 139.08 C 164.09 139.69 164.19 140.59 164.80 141.08 C 165.41 141.57 166.31 141.48 166.80 140.86 L 167.42 140.09 C 167.91 139.48 167.81 138.58 167.20 138.09 C 166.59 137.60 165.69 137.70 165.20 138.31 Z M 164.58 139.08 L 164.16 139.59 C 163.67 140.21 163.77 141.10 164.38 141.60 C 164.99 142.09 165.89 141.99 166.38 141.38 L 166.80 140.86 C 167.30 140.25 167.20 139.35 166.59 138.86 C 165.97 138.37 165.08 138.46 164.58 139.08 Z"
      fill="black"
      fill-rule="nonzero" /><path d="M 165.20 148.54 L 166.19 148.59 C 167.06 148.63 167.80 147.96 167.84 147.09 C 167.88 146.22 167.21 145.48 166.34 145.44 L 165.35 145.40 C 164.48 145.36 163.74 146.03 163.70 146.90 C 163.66 147.77 164.33 148.50 165.20 148.54 Z M 166.13 148.63 L 167.12 148.71 C 168.01 148.79 168.79 148.13 168.87 147.24 C 168.95 146.35 168.29 145.56 167.40 145.49 L 166.40 145.40 C 165.51 145.33 164.73 145.99 164.65 146.88 C 164.57 147.77 165.23 148.55 166.13 148.63 Z M 166.98 148.74 L 167.98 148.91 C 168.88 149.06 169.74 148.44 169.89 147.54 C 170.04 146.63 169.43 145.77 168.52 145.62 L 167.53 145.46 C 166.62 145.31 165.76 145.92 165.61 146.83 C 165.46 147.74 166.08 148.59 166.98 148.74 Z M 167.80 148.90 L 168.70 149.15 C 169.61 149.40 170.54 148.87 170.79 147.97 C 171.04 147.06 170.51 146.13 169.61 145.88 L 168.70 145.63 C 167.79 145.38 166.86 145.91 166.61 146.81 C 166.36 147.72 166.89 148.65 167.80 148.90 Z M 168.54 149.12 L 169.42 149.45 C 170.31 149.79 171.30 149.35 171.64 148.46 C 171.98 147.57 171.53 146.58 170.64 146.24 L 169.77 145.91 C 168.88 145.57 167.89 146.02 167.55 146.90 C 167.21 147.79 167.66 148.78 168.54 149.12 Z M 169.31 149.42 L 170.22 149.84 C 171.09 150.25 172.12 149.87 172.52 149.00 C 172.92 148.13 172.54 147.10 171.67 146.70 L 170.76 146.28 C 169.89 145.88 168.86 146.25 168.46 147.12 C 168.06 147.99 168.44 149.02 169.31 149.42 Z M 170.14 149.82 L 171.11 150.32 C 171.97 150.77 173.02 150.43 173.47 149.58 C 173.91 148.72 173.58 147.67 172.72 147.22 L 171.75 146.72 C 170.89 146.28 169.84 146.61 169.40 147.47 C 168.95 148.32 169.29 149.38 170.14 149.82 Z M 171.07 150.31 L 171.96 150.80 C 172.81 151.27 173.88 150.96 174.35 150.11 C 174.81 149.26 174.50 148.19 173.65 147.73 L 172.76 147.23 C 171.91 146.77 170.84 147.08 170.38 147.93 C 169.91 148.78 170.22 149.85 171.07 150.31 Z M 171.94 150.79 L 172.83 151.30 C 173.68 151.78 174.75 151.49 175.23 150.64 C 175.71 149.80 175.42 148.72 174.57 148.24 L 173.68 147.73 C 172.83 147.25 171.76 147.55 171.28 148.39 C 170.80 149.24 171.09 150.31 171.94 150.79 Z M 172.81 151.29 L 173.70 151.81 C 174.54 152.31 175.62 152.02 176.11 151.18 C 176.61 150.34 176.32 149.26 175.48 148.77 L 174.59 148.25 C 173.75 147.76 172.67 148.04 172.18 148.88 C 171.69 149.72 171.97 150.80 172.81 151.29 Z M 173.68 151.81 L 174.54 152.32 C 175.37 152.82 176.46 152.55 176.96 151.72 C 177.46 150.88 177.19 149.80 176.36 149.29 L 175.50 148.78 C 174.67 148.28 173.58 148.55 173.08 149.38 C 172.58 150.22 172.85 151.30 173.68 151.81 Z M 174.52 152.31 L 175.36 152.83 C 176.19 153.34 177.28 153.09 177.79 152.26 C 178.31 151.43 178.05 150.34 177.22 149.82 L 176.38 149.30 C 175.55 148.79 174.46 149.05 173.94 149.88 C 173.43 150.71 173.69 151.80 174.52 152.31 Z M 175.34 152.82 L 176.24 153.40 C 177.06 153.92 178.16 153.68 178.68 152.86 C 179.21 152.04 178.97 150.94 178.15 150.42 L 177.24 149.84 C 176.42 149.31 175.33 149.55 174.80 150.37 C 174.28 151.20 174.51 152.29 175.34 152.82 Z M 176.23 153.38 L 177.04 153.91 C 177.85 154.45 178.94 154.22 179.48 153.41 C 180.02 152.60 179.79 151.50 178.98 150.97 L 178.16 150.43 C 177.35 149.90 176.26 150.12 175.72 150.94 C 175.19 151.75 175.41 152.84 176.23 153.38 Z M 177.03 153.91 L 177.81 154.42 C 178.62 154.96 179.71 154.74 180.25 153.93 C 180.79 153.12 180.57 152.03 179.75 151.49 L 178.98 150.97 C 178.17 150.44 177.08 150.66 176.54 151.47 C 176.00 152.28 176.22 153.37 177.03 153.91 Z M 177.82 154.42 L 178.62 154.95 C 179.43 155.48 180.52 155.25 181.05 154.44 C 181.58 153.63 181.35 152.54 180.54 152.01 L 179.74 151.49 C 178.93 150.95 177.84 151.18 177.31 151.99 C 176.78 152.80 177.01 153.89 177.82 154.42 Z M 178.63 154.95 L 179.46 155.48 C 180.27 156.01 181.36 155.77 181.88 154.96 C 182.40 154.15 182.17 153.06 181.36 152.54 L 180.53 152.00 C 179.71 151.48 178.63 151.72 178.11 152.53 C 177.58 153.34 177.82 154.43 178.63 154.95 Z M 179.47 155.49 L 180.33 156.03 C 181.14 156.55 182.22 156.31 182.74 155.50 C 183.26 154.68 183.02 153.60 182.20 153.08 L 181.35 152.54 C 180.53 152.02 179.45 152.26 178.93 153.07 C 178.42 153.89 178.66 154.97 179.47 155.49 Z M 180.34 156.03 L 181.20 156.57 C 182.01 157.09 183.09 156.84 183.60 156.03 C 184.11 155.22 183.87 154.14 183.06 153.63 L 182.20 153.09 C 181.38 152.57 180.31 152.82 179.79 153.63 C 179.28 154.44 179.52 155.52 180.34 156.03 Z M 181.21 156.57 L 182.04 157.09 C 182.85 157.60 183.92 157.35 184.43 156.54 C 184.93 155.73 184.69 154.67 183.88 154.16 L 183.05 153.64 C 182.24 153.13 181.17 153.37 180.66 154.18 C 180.15 154.99 180.40 156.06 181.21 156.57 Z M 182.05 157.08 L 182.90 157.61 C 183.71 158.11 184.77 157.87 185.27 157.06 C 185.77 156.26 185.52 155.20 184.72 154.70 L 183.87 154.17 C 183.06 153.66 182.00 153.91 181.50 154.72 C 181.00 155.52 181.25 156.58 182.05 157.08 Z M 182.91 157.60 L 183.78 158.14 C 184.58 158.63 185.63 158.38 186.12 157.58 C 186.62 156.78 186.37 155.73 185.57 155.24 L 184.71 154.70 C 183.91 154.21 182.85 154.46 182.36 155.26 C 181.86 156.06 182.11 157.11 182.91 157.60 Z M 183.79 158.13 L 184.64 158.65 C 185.43 159.13 186.47 158.88 186.96 158.09 C 187.45 157.29 187.20 156.25 186.40 155.76 L 185.56 155.24 C 184.76 154.76 183.72 155.01 183.23 155.80 C 182.74 156.60 182.99 157.64 183.79 158.13 Z M 184.65 158.64 L 185.49 159.15 C 186.28 159.63 187.32 159.37 187.79 158.58 C 188.27 157.78 188.02 156.75 187.23 156.27 L 186.39 155.77 C 185.59 155.29 184.56 155.54 184.08 156.34 C 183.60 157.13 183.86 158.16 184.65 158.64 Z M 185.51 159.14 L 186.37 159.65 C 187.16 160.12 188.18 159.86 188.65 159.07 C 189.11 158.28 188.86 157.26 188.07 156.79 L 187.21 156.28 C 186.42 155.81 185.40 156.07 184.93 156.86 C 184.46 157.65 184.72 158.67 185.51 159.14 Z M 186.39 159.64 L 187.27 160.16 C 188.06 160.62 189.07 160.35 189.52 159.57 C 189.98 158.78 189.72 157.77 188.93 157.32 L 188.05 156.80 C 187.26 156.34 186.25 156.61 185.80 157.39 C 185.34 158.18 185.60 159.18 186.39 159.64 Z M 187.29 160.15 L 188.17 160.65 C 188.95 161.10 189.95 160.83 190.39 160.05 C 190.84 159.27 190.57 158.27 189.79 157.82 L 188.91 157.32 C 188.13 156.88 187.13 157.15 186.69 157.93 C 186.24 158.71 186.51 159.71 187.29 160.15 Z M 188.19 160.65 L 189.07 161.14 C 189.85 161.57 190.83 161.30 191.27 160.52 C 191.70 159.74 191.42 158.76 190.65 158.33 L 189.77 157.83 C 188.99 157.40 188.01 157.68 187.57 158.45 C 187.14 159.23 187.42 160.21 188.19 160.65 Z M 189.10 161.13 L 189.98 161.62 C 190.75 162.04 191.72 161.75 192.14 160.98 C 192.57 160.21 192.28 159.24 191.51 158.82 L 190.63 158.34 C 189.85 157.91 188.89 158.20 188.46 158.97 C 188.04 159.74 188.32 160.71 189.10 161.13 Z M 190.01 161.61 L 190.88 162.08 C 191.65 162.48 192.60 162.19 193.01 161.43 C 193.42 160.66 193.13 159.71 192.37 159.30 L 191.49 158.83 C 190.72 158.42 189.77 158.71 189.36 159.48 C 188.95 160.24 189.24 161.20 190.01 161.61 Z M 190.91 162.07 L 191.80 162.53 C 192.56 162.92 193.50 162.63 193.90 161.86 C 194.29 161.10 193.99 160.16 193.23 159.77 L 192.34 159.31 C 191.58 158.91 190.64 159.21 190.24 159.97 C 189.85 160.73 190.15 161.67 190.91 162.07 Z M 191.83 162.52 L 192.73 162.97 C 193.49 163.35 194.41 163.04 194.79 162.28 C 195.17 161.52 194.86 160.60 194.10 160.22 L 193.20 159.77 C 192.44 159.40 191.52 159.71 191.14 160.46 C 190.76 161.22 191.07 162.15 191.83 162.52 Z M 192.77 162.97 L 193.66 163.39 C 194.42 163.75 195.32 163.43 195.68 162.67 C 196.04 161.91 195.71 161.01 194.96 160.65 L 194.07 160.23 C 193.31 159.87 192.40 160.19 192.05 160.95 C 191.69 161.70 192.01 162.61 192.77 162.97 Z M 193.70 163.39 L 194.60 163.79 C 195.35 164.13 196.24 163.79 196.58 163.04 C 196.92 162.28 196.58 161.40 195.82 161.06 L 194.92 160.65 C 194.17 160.31 193.28 160.65 192.94 161.41 C 192.60 162.16 192.94 163.05 193.70 163.39 Z M 194.64 163.79 L 195.54 164.17 C 196.29 164.49 197.16 164.13 197.48 163.38 C 197.80 162.63 197.44 161.76 196.69 161.44 L 195.79 161.06 C 195.03 160.74 194.17 161.09 193.85 161.85 C 193.53 162.60 193.88 163.47 194.64 163.79 Z M 195.58 164.17 L 196.49 164.53 C 197.25 164.83 198.10 164.46 198.40 163.71 C 198.70 162.95 198.33 162.10 197.57 161.80 L 196.66 161.44 C 195.90 161.14 195.05 161.51 194.75 162.26 C 194.45 163.02 194.82 163.87 195.58 164.17 Z M 196.53 164.54 L 197.48 164.88 C 198.24 165.16 199.07 164.77 199.35 164.01 C 199.63 163.26 199.24 162.42 198.48 162.14 L 197.53 161.80 C 196.78 161.52 195.94 161.91 195.66 162.67 C 195.39 163.42 195.78 164.26 196.53 164.54 Z M 197.52 164.89 L 198.49 165.21 C 199.25 165.46 200.07 165.05 200.32 164.29 C 200.57 163.53 200.16 162.71 199.40 162.46 L 198.44 162.14 C 197.67 161.88 196.85 162.30 196.60 163.06 C 196.35 163.82 196.76 164.64 197.52 164.89 Z M 198.54 165.22 L 199.50 165.50 C 200.26 165.73 201.06 165.29 201.29 164.53 C 201.51 163.76 201.08 162.96 200.31 162.73 L 199.35 162.45 C 198.59 162.22 197.79 162.66 197.56 163.42 C 197.34 164.19 197.77 164.99 198.54 165.22 Z M 199.54 165.51 L 200.51 165.76 C 201.27 165.96 202.06 165.49 202.26 164.73 C 202.46 163.96 201.99 163.17 201.23 162.97 L 200.26 162.73 C 199.50 162.53 198.71 162.99 198.51 163.76 C 198.31 164.53 198.78 165.31 199.54 165.51 Z M 200.56 165.77 L 201.53 165.98 C 202.31 166.15 203.07 165.66 203.24 164.89 C 203.41 164.12 202.92 163.35 202.15 163.18 L 201.18 162.97 C 200.40 162.79 199.64 163.28 199.47 164.06 C 199.30 164.83 199.78 165.59 200.56 165.77 Z M 201.58 165.99 L 202.58 166.17 C 203.35 166.31 204.10 165.80 204.24 165.02 C 204.38 164.24 203.87 163.50 203.09 163.36 L 202.10 163.17 C 201.32 163.03 200.58 163.55 200.44 164.32 C 200.29 165.10 200.81 165.85 201.58 165.99 Z M 202.63 166.17 L 203.62 166.32 C 204.40 166.43 205.13 165.89 205.24 165.11 C 205.35 164.33 204.81 163.61 204.03 163.49 L 203.04 163.35 C 202.26 163.24 201.53 163.78 201.42 164.56 C 201.31 165.34 201.85 166.06 202.63 166.17 Z M 203.67 166.32 L 204.67 166.43 C 205.45 166.52 206.15 165.95 206.24 165.17 C 206.32 164.38 205.76 163.68 204.97 163.60 L 203.98 163.49 C 203.20 163.40 202.50 163.97 202.41 164.75 C 202.33 165.53 202.89 166.24 203.67 166.32 Z M 204.71 166.43 L 205.71 166.51 C 206.49 166.58 207.18 165.99 207.24 165.21 C 207.30 164.42 206.72 163.73 205.93 163.67 L 204.93 163.59 C 204.15 163.53 203.46 164.12 203.40 164.90 C 203.34 165.69 203.92 166.37 204.71 166.43 Z M 205.74 166.52 L 206.74 166.57 C 207.53 166.61 208.20 166.01 208.24 165.23 C 208.29 164.44 207.68 163.77 206.90 163.73 L 205.90 163.67 C 205.11 163.63 204.44 164.23 204.40 165.01 C 204.35 165.80 204.95 166.47 205.74 166.52 Z M 206.77 166.57 L 207.77 166.61 C 208.55 166.64 209.22 166.02 209.24 165.24 C 209.27 164.45 208.66 163.79 207.87 163.76 L 206.87 163.72 C 206.09 163.69 205.42 164.31 205.40 165.10 C 205.37 165.88 205.98 166.54 206.77 166.57 Z M 207.79 166.61 L 208.79 166.63 C 209.58 166.65 210.23 166.03 210.25 165.24 C 210.27 164.45 209.65 163.80 208.86 163.78 L 207.85 163.76 C 207.07 163.74 206.41 164.37 206.40 165.15 C 206.38 165.94 207.00 166.59 207.79 166.61 Z M 208.81 166.63 L 209.81 166.65 C 210.60 166.66 211.24 166.02 211.25 165.24 C 211.26 164.45 210.63 163.80 209.84 163.80 L 208.84 163.78 C 208.06 163.77 207.41 164.40 207.40 165.19 C 207.39 165.98 208.02 166.62 208.81 166.63 Z M 209.82 166.65 L 210.82 166.65 C 211.60 166.65 212.25 166.02 212.25 165.23 C 212.25 164.45 211.62 163.80 210.83 163.80 L 209.83 163.80 C 209.05 163.79 208.41 164.43 208.40 165.21 C 208.40 166.00 209.03 166.64 209.82 166.65 Z M 210.82 166.65 L 211.82 166.65 C 212.61 166.65 213.24 166.01 213.24 165.23 C 213.25 164.44 212.61 163.80 211.82 163.80 L 210.83 163.80 C 210.04 163.80 209.40 164.44 209.40 165.22 C 209.40 166.01 210.04 166.65 210.82 166.65 Z M 211.82 166.65 L 211.97 166.65 C 212.76 166.65 213.40 166.01 213.40 165.23 C 213.40 164.44 212.76 163.80 211.97 163.80 L 211.82 163.80 C 211.03 163.80 210.39 164.44 210.39 165.23 C 210.39 166.01 211.03 166.65 211.82 166.65 Z"
      fill="black"
      fill-rule="nonzero" /></svg>