<svg xmlns="http://www.w3.org/2000/svg" width="300" height="300" viewBox="0 0 300 300">
<path d="M 130.31 108.77 L 130.02 109.64 C 129.74 110.46 130.19 111.35 131.01 111.63 C 131.83 111.91 132.72 111.46 133.00 110.64 L 133.29 109.77 C 133.57 108.94 133.13 108.05 132.30 107.78 C 131.48 107.50 130.59 107.94 130.31 108.77 Z M 129.98 109.73 L 129.74 110.66 C 129.51 111.50 130.01 112.37 130.85 112.59 C 131.70 112.82 132.56 112.32 132.79 111.48 L 133.04 110.55 C 133.26 109.71 132.76 108.84 131.92 108.61 C 131.08 108.39 130.21 108.89 129.98 109.73 Z M 129.69 110.83 L 129.53 111.86 C 129.40 112.73 130.00 113.54 130.87 113.67 C 131.74 113.80 132.55 113.20 132.68 112.34 L 132.84 111.31 C 132.97 110.44 132.37 109.63 131.50 109.49 C 130.63 109.36 129.82 109.96 129.69 110.83 Z M 129.51 112.05 L 129.49 113.05 C 129.46 113.93 130.16 114.67 131.04 114.69 C 131.92 114.71 132.65 114.02 132.67 113.14 L 132.70 112.14 C 132.72 111.26 132.03 110.53 131.15 110.50 C 130.27 110.48 129.54 111.17 129.51 112.05 Z M 129.50 113.20 L 129.56 114.11 C 129.61 114.98 130.36 115.64 131.24 115.59 C 132.11 115.53 132.77 114.78 132.72 113.91 L 132.66 113.00 C 132.60 112.12 131.85 111.46 130.98 111.52 C 130.11 111.57 129.44 112.32 129.50 113.20 Z M 129.58 114.20 L 129.70 115.17 C 129.81 116.03 130.59 116.64 131.44 116.54 C 132.30 116.43 132.91 115.65 132.81 114.80 L 132.69 113.82 C 132.59 112.96 131.81 112.35 130.95 112.45 C 130.09 112.56 129.48 113.34 129.58 114.20 Z M 129.73 115.23 L 129.90 116.26 C 130.03 117.10 130.82 117.67 131.67 117.54 C 132.51 117.40 133.08 116.61 132.95 115.76 L 132.78 114.74 C 132.64 113.90 131.85 113.32 131.01 113.46 C 130.17 113.59 129.59 114.39 129.73 115.23 Z M 129.92 116.29 L 130.12 117.36 C 130.28 118.18 131.08 118.73 131.91 118.57 C 132.73 118.42 133.28 117.62 133.12 116.79 L 132.92 115.73 C 132.76 114.90 131.97 114.35 131.14 114.51 C 130.31 114.67 129.76 115.47 129.92 116.29 Z M 130.14 117.38 L 130.35 118.40 C 130.52 119.22 131.32 119.74 132.14 119.57 C 132.95 119.41 133.48 118.61 133.31 117.79 L 133.10 116.77 C 132.93 115.95 132.13 115.43 131.32 115.59 C 130.50 115.76 129.97 116.56 130.14 117.38 Z M 130.37 118.41 L 130.58 119.38 C 130.76 120.19 131.55 120.70 132.36 120.52 C 133.17 120.35 133.68 119.55 133.50 118.75 L 133.29 117.78 C 133.12 116.97 132.32 116.46 131.52 116.64 C 130.71 116.81 130.20 117.61 130.37 118.41 Z M 130.60 119.39 L 130.82 120.36 C 131.00 121.16 131.79 121.66 132.59 121.48 C 133.38 121.30 133.89 120.51 133.71 119.71 L 133.49 118.74 C 133.31 117.94 132.51 117.44 131.72 117.62 C 130.92 117.80 130.42 118.59 130.60 119.39 Z M 130.83 120.37 L 131.06 121.34 C 131.24 122.13 132.03 122.62 132.82 122.44 C 133.61 122.26 134.10 121.47 133.92 120.68 L 133.69 119.70 C 133.51 118.92 132.72 118.42 131.93 118.61 C 131.14 118.79 130.65 119.58 130.83 120.37 Z M 131.07 121.35 L 131.30 122.33 C 131.49 123.11 132.27 123.59 133.05 123.41 C 133.83 123.22 134.32 122.44 134.13 121.66 L 133.90 120.68 C 133.72 119.90 132.94 119.41 132.15 119.60 C 131.37 119.78 130.89 120.56 131.07 121.35 Z M 131.32 122.33 L 131.55 123.31 C 131.73 124.08 132.51 124.56 133.28 124.38 C 134.06 124.19 134.54 123.42 134.35 122.64 L 134.12 121.66 C 133.93 120.89 133.16 120.41 132.39 120.59 C 131.61 120.78 131.13 121.55 131.32 122.33 Z M 131.56 123.31 L 131.60 123.49 C 131.79 124.26 132.56 124.73 133.33 124.55 C 134.10 124.37 134.57 123.59 134.39 122.83 L 134.34 122.64 C 134.16 121.88 133.39 121.40 132.62 121.58 C 131.85 121.77 131.38 122.54 131.56 123.31 Z"
      fill="black"
      fill-rule="nonzero" /><path d="M 116.13 135.83 L 117.00 135.65 C 117.87 135.47 118.42 134.62 118.24 133.76 C 118.06 132.89 117.21 132.34 116.35 132.52 L 115.47 132.71 C 114.60 132.89 114.05 133.74 114.23 134.60 C 114.42 135.46 115.26 136.01 116.13 135.83 Z M 117.03 135.65 L 117.95 135.45 C 118.82 135.25 119.36 134.39 119.17 133.53 C 118.97 132.66 118.11 132.12 117.25 132.31 L 116.32 132.52 C 115.46 132.71 114.91 133.57 115.11 134.44 C 115.30 135.30 116.16 135.85 117.03 135.65 Z M 117.99 135.45 L 119.00 135.20 C 119.87 134.98 120.40 134.11 120.18 133.24 C 119.97 132.38 119.10 131.85 118.23 132.06 L 117.21 132.31 C 116.35 132.52 115.82 133.40 116.03 134.26 C 116.24 135.13 117.12 135.66 117.99 135.45 Z M 119.04 135.19 L 120.09 134.91 C 120.95 134.67 121.46 133.78 121.23 132.92 C 120.99 132.05 120.10 131.54 119.24 131.78 L 118.19 132.06 C 117.33 132.30 116.82 133.19 117.05 134.05 C 117.29 134.92 118.18 135.43 119.04 135.19 Z M 120.12 134.90 L 121.07 134.62 C 121.93 134.37 122.42 133.47 122.17 132.61 C 121.92 131.75 121.02 131.26 120.16 131.51 L 119.21 131.79 C 118.35 132.04 117.86 132.94 118.11 133.80 C 118.36 134.66 119.26 135.15 120.12 134.90 Z M 121.09 134.61 L 122.08 134.31 C 122.93 134.05 123.41 133.14 123.15 132.29 C 122.89 131.44 121.99 130.95 121.13 131.22 L 120.14 131.52 C 119.29 131.78 118.81 132.68 119.07 133.54 C 119.33 134.39 120.23 134.87 121.09 134.61 Z M 122.09 134.30 L 123.08 133.99 C 123.93 133.72 124.40 132.81 124.13 131.96 C 123.86 131.12 122.96 130.64 122.11 130.91 L 121.12 131.22 C 120.27 131.49 119.80 132.40 120.07 133.25 C 120.34 134.10 121.24 134.57 122.09 134.30 Z M 123.09 133.98 L 124.04 133.67 C 124.88 133.40 125.34 132.49 125.07 131.65 C 124.79 130.80 123.89 130.34 123.04 130.61 L 122.10 130.92 C 121.25 131.20 120.79 132.10 121.06 132.95 C 121.34 133.79 122.25 134.25 123.09 133.98 Z M 124.05 133.66 L 125.05 133.33 C 125.89 133.05 126.35 132.14 126.07 131.30 C 125.79 130.46 124.88 130.01 124.04 130.29 L 123.03 130.62 C 122.19 130.91 121.74 131.81 122.02 132.65 C 122.30 133.49 123.21 133.94 124.05 133.66 Z M 125.07 133.31 L 126.08 132.96 C 126.91 132.67 127.34 131.77 127.06 130.94 C 126.77 130.11 125.86 129.67 125.03 129.96 L 124.03 130.30 C 123.20 130.59 122.76 131.50 123.04 132.33 C 123.33 133.16 124.24 133.60 125.07 133.31 Z M 126.09 132.94 L 126.98 132.62 C 127.80 132.32 128.23 131.41 127.93 130.60 C 127.63 129.78 126.73 129.36 125.91 129.65 L 125.02 129.98 C 124.20 130.27 123.78 131.18 124.07 132.00 C 124.37 132.81 125.27 133.24 126.09 132.94 Z M 127.00 132.60 L 127.83 132.28 C 128.64 131.97 129.05 131.07 128.74 130.26 C 128.44 129.46 127.53 129.05 126.73 129.36 L 125.89 129.67 C 125.09 129.98 124.68 130.88 124.99 131.69 C 125.29 132.49 126.19 132.90 127.00 132.60 Z M 127.85 132.26 L 128.77 131.90 C 129.57 131.59 129.96 130.69 129.65 129.89 C 129.34 129.09 128.44 128.70 127.64 129.01 L 126.71 129.37 C 125.92 129.69 125.52 130.59 125.84 131.38 C 126.15 132.18 127.05 132.57 127.85 132.26 Z M 128.78 131.88 L 129.71 131.51 C 130.50 131.19 130.88 130.30 130.56 129.51 C 130.24 128.72 129.35 128.33 128.56 128.65 L 127.63 129.03 C 126.84 129.34 126.46 130.24 126.78 131.03 C 127.09 131.82 127.99 132.20 128.78 131.88 Z M 129.71 131.50 L 130.64 131.12 C 131.42 130.80 131.80 129.91 131.48 129.13 C 131.16 128.34 130.27 127.97 129.48 128.29 L 128.55 128.66 C 127.77 128.98 127.40 129.88 127.72 130.66 C 128.03 131.44 128.93 131.82 129.71 131.50 Z M 130.64 131.11 L 131.47 130.77 C 132.24 130.45 132.62 129.57 132.30 128.79 C 131.98 128.01 131.09 127.64 130.31 127.96 L 129.48 128.30 C 128.71 128.61 128.33 129.50 128.65 130.28 C 128.97 131.06 129.86 131.43 130.64 131.11 Z M 131.46 130.76 L 132.32 130.42 C 133.09 130.10 133.46 129.22 133.15 128.44 C 132.83 127.67 131.95 127.30 131.17 127.61 L 130.32 127.96 C 129.54 128.28 129.17 129.16 129.49 129.94 C 129.81 130.71 130.69 131.08 131.46 130.76 Z M 132.31 130.41 L 133.27 130.02 C 134.04 129.70 134.41 128.83 134.10 128.06 C 133.78 127.29 132.91 126.92 132.14 127.23 L 131.18 127.62 C 130.41 127.93 130.04 128.81 130.35 129.58 C 130.67 130.35 131.55 130.72 132.31 130.41 Z M 133.27 130.01 L 134.30 129.59 C 135.07 129.28 135.43 128.41 135.12 127.64 C 134.81 126.87 133.94 126.51 133.17 126.82 L 132.14 127.24 C 131.38 127.55 131.01 128.42 131.32 129.19 C 131.63 129.95 132.50 130.32 133.27 130.01 Z M 134.30 129.59 L 135.14 129.25 C 135.90 128.94 136.27 128.07 135.96 127.30 C 135.65 126.54 134.78 126.17 134.01 126.48 L 133.18 126.82 C 132.41 127.13 132.04 128.00 132.35 128.76 C 132.66 129.53 133.53 129.90 134.30 129.59 Z M 135.13 129.24 L 136.04 128.88 C 136.80 128.57 137.17 127.70 136.86 126.94 C 136.55 126.18 135.68 125.81 134.92 126.12 L 134.02 126.49 C 133.26 126.79 132.89 127.66 133.20 128.42 C 133.51 129.18 134.37 129.55 135.13 129.24 Z M 136.03 128.87 L 136.99 128.49 C 137.74 128.18 138.11 127.32 137.80 126.56 C 137.50 125.80 136.63 125.43 135.88 125.74 L 134.93 126.12 C 134.17 126.43 133.80 127.29 134.11 128.05 C 134.41 128.81 135.28 129.18 136.03 128.87 Z M 136.98 128.48 L 137.96 128.09 C 138.72 127.79 139.08 126.93 138.78 126.17 C 138.47 125.41 137.61 125.05 136.86 125.35 L 135.88 125.74 C 135.12 126.05 134.76 126.91 135.06 127.67 C 135.37 128.42 136.23 128.79 136.98 128.48 Z M 137.96 128.09 L 138.94 127.69 C 139.69 127.39 140.06 126.53 139.76 125.78 C 139.45 125.02 138.60 124.66 137.84 124.96 L 136.86 125.35 C 136.11 125.66 135.74 126.51 136.04 127.27 C 136.34 128.02 137.20 128.39 137.96 128.09 Z M 138.93 127.69 L 139.94 127.28 C 140.70 126.98 141.06 126.13 140.76 125.38 C 140.46 124.63 139.61 124.26 138.86 124.56 L 137.85 124.96 C 137.10 125.26 136.73 126.12 137.03 126.87 C 137.33 127.62 138.18 127.99 138.93 127.69 Z M 139.94 127.28 L 140.93 126.89 C 141.68 126.59 142.05 125.74 141.75 124.99 C 141.45 124.24 140.61 123.88 139.86 124.17 L 138.86 124.57 C 138.11 124.86 137.75 125.71 138.04 126.46 C 138.34 127.21 139.19 127.58 139.94 127.28 Z M 140.92 126.88 L 141.88 126.51 C 142.63 126.22 143.00 125.38 142.70 124.63 C 142.41 123.88 141.57 123.51 140.82 123.80 L 139.87 124.18 C 139.12 124.47 138.75 125.31 139.04 126.06 C 139.33 126.81 140.17 127.17 140.92 126.88 Z M 141.86 126.51 L 142.77 126.16 C 143.52 125.88 143.89 125.04 143.61 124.30 C 143.33 123.55 142.49 123.17 141.74 123.46 L 140.83 123.81 C 140.09 124.09 139.71 124.93 140.00 125.67 C 140.28 126.42 141.12 126.79 141.86 126.51 Z M 142.76 126.16 L 143.61 125.85 C 144.36 125.57 144.74 124.74 144.46 124.00 C 144.19 123.25 143.36 122.87 142.61 123.15 L 141.76 123.46 C 141.01 123.74 140.63 124.56 140.91 125.31 C 141.18 126.06 142.01 126.44 142.76 126.16 Z M 143.58 125.85 L 144.57 125.51 C 145.31 125.24 145.71 124.43 145.45 123.68 C 145.19 122.93 144.37 122.54 143.62 122.80 L 142.64 123.14 C 141.89 123.40 141.49 124.22 141.76 124.97 C 142.02 125.72 142.84 126.11 143.58 125.85 Z M 144.54 125.51 L 145.53 125.19 C 146.28 124.95 146.69 124.14 146.44 123.39 C 146.20 122.63 145.39 122.22 144.64 122.47 L 143.65 122.79 C 142.90 123.04 142.49 123.84 142.73 124.60 C 142.98 125.35 143.79 125.76 144.54 125.51 Z M 145.50 125.20 L 146.41 124.92 C 147.17 124.69 147.59 123.89 147.36 123.13 C 147.13 122.38 146.33 121.95 145.58 122.18 L 144.67 122.46 C 143.91 122.69 143.49 123.49 143.72 124.25 C 143.95 125.00 144.75 125.43 145.50 125.20 Z M 146.40 124.92 L 147.27 124.66 C 148.03 124.44 148.46 123.65 148.24 122.89 C 148.02 122.14 147.23 121.70 146.47 121.92 L 145.60 122.18 C 144.84 122.40 144.41 123.20 144.63 123.95 C 144.85 124.71 145.64 125.14 146.40 124.92 Z"
      fill="black"
      fill-rule="nonzero" /><path d="M 125.91 144.65 L 124.56 144.83 C 123.72 144.94 123.13 145.72 123.24 146.56 C 123.36 147.41 124.13 148.00 124.98 147.89 L 126.32 147.71 C 127.17 147.59 127.76 146.81 127.65 145.97 C 127.53 145.12 126.75 144.53 125.91 144.65 Z M 124.56 144.82 L 123.40 144.98 C 122.55 145.09 121.96 145.88 122.07 146.73 C 122.19 147.58 122.97 148.17 123.82 148.05 L 124.98 147.90 C 125.83 147.78 126.43 147.00 126.31 146.15 C 126.19 145.30 125.41 144.70 124.56 144.82 Z M 123.39 144.97 L 122.59 145.08 C 121.74 145.20 121.14 145.99 121.26 146.84 C 121.38 147.70 122.17 148.29 123.03 148.17 L 123.82 148.06 C 124.68 147.94 125.27 147.15 125.15 146.30 C 125.04 145.45 124.25 144.85 123.39 144.97 Z M 122.55 145.08 L 122.31 145.12 C 121.46 145.26 120.88 146.07 121.02 146.92 C 121.16 147.78 121.97 148.36 122.82 148.22 L 123.06 148.18 C 123.92 148.03 124.50 147.23 124.36 146.37 C 124.22 145.52 123.41 144.94 122.55 145.08 Z M 122.84 148.22 L 123.54 148.10 C 124.40 147.95 124.97 147.14 124.82 146.28 C 124.67 145.42 123.86 144.85 123.00 144.99 L 122.30 145.11 C 121.44 145.26 120.87 146.08 121.02 146.94 C 121.16 147.79 121.98 148.37 122.84 148.22 Z M 123.64 148.08 L 125.03 147.75 C 125.88 147.54 126.40 146.68 126.20 145.83 C 125.99 144.99 125.14 144.46 124.29 144.67 L 122.90 145.01 C 122.05 145.21 121.53 146.07 121.73 146.92 C 121.94 147.77 122.79 148.29 123.64 148.08 Z M 125.14 147.72 L 126.10 147.42 C 126.93 147.15 127.39 146.26 127.13 145.42 C 126.86 144.59 125.97 144.13 125.13 144.39 L 124.18 144.70 C 123.34 144.96 122.88 145.85 123.15 146.69 C 123.41 147.53 124.30 147.99 125.14 147.72 Z M 126.16 147.40 L 127.11 147.05 C 127.93 146.75 128.36 145.84 128.06 145.01 C 127.75 144.19 126.84 143.76 126.01 144.06 L 125.07 144.41 C 124.24 144.71 123.82 145.62 124.12 146.45 C 124.42 147.28 125.33 147.70 126.16 147.40 Z M 127.15 147.04 L 128.11 146.66 C 128.93 146.33 129.33 145.41 129.00 144.59 C 128.67 143.77 127.75 143.37 126.93 143.70 L 125.97 144.08 C 125.15 144.40 124.75 145.33 125.08 146.15 C 125.40 146.97 126.33 147.37 127.15 147.04 Z M 128.14 146.65 L 129.08 146.25 C 129.89 145.91 130.27 144.97 129.93 144.16 C 129.58 143.35 128.65 142.97 127.83 143.31 L 126.90 143.71 C 126.08 144.05 125.70 144.99 126.05 145.80 C 126.39 146.61 127.33 146.99 128.14 146.65 Z M 129.10 146.25 L 130.04 145.83 C 130.85 145.48 131.22 144.53 130.86 143.72 C 130.50 142.91 129.56 142.55 128.75 142.90 L 127.81 143.32 C 127.00 143.67 126.63 144.62 126.99 145.43 C 127.35 146.24 128.29 146.60 129.10 146.25 Z M 130.06 145.83 L 131.02 145.39 C 131.83 145.03 132.18 144.07 131.82 143.27 C 131.45 142.46 130.50 142.10 129.69 142.47 L 128.73 142.91 C 127.92 143.27 127.57 144.23 127.93 145.03 C 128.30 145.84 129.25 146.20 130.06 145.83 Z M 131.04 145.39 L 131.93 144.97 C 132.74 144.59 133.09 143.63 132.71 142.83 C 132.33 142.03 131.38 141.68 130.57 142.05 L 129.67 142.47 C 128.87 142.85 128.52 143.81 128.90 144.61 C 129.27 145.42 130.23 145.76 131.04 145.39 Z M 131.95 144.97 L 132.80 144.56 C 133.61 144.17 133.95 143.21 133.57 142.41 C 133.18 141.61 132.22 141.26 131.42 141.65 L 130.56 142.06 C 129.75 142.44 129.41 143.40 129.80 144.20 C 130.18 145.01 131.14 145.35 131.95 144.97 Z M 132.81 144.56 L 133.67 144.15 C 134.47 143.76 134.81 142.80 134.43 141.99 C 134.04 141.19 133.07 140.85 132.27 141.23 L 131.41 141.65 C 130.61 142.03 130.27 143.00 130.65 143.80 C 131.04 144.61 132.01 144.94 132.81 144.56 Z M 133.67 144.15 L 134.55 143.73 C 135.36 143.34 135.70 142.38 135.31 141.57 C 134.92 140.76 133.95 140.42 133.15 140.81 L 132.27 141.23 C 131.46 141.62 131.12 142.58 131.51 143.39 C 131.90 144.20 132.86 144.54 133.67 144.15 Z M 134.55 143.74 L 135.45 143.31 C 136.25 142.92 136.60 141.95 136.21 141.14 C 135.82 140.33 134.85 139.99 134.04 140.37 L 133.15 140.80 C 132.34 141.19 131.99 142.16 132.38 142.97 C 132.77 143.78 133.74 144.12 134.55 143.74 Z M 135.44 143.31 L 136.37 142.87 C 137.18 142.49 137.53 141.51 137.14 140.70 C 136.76 139.89 135.78 139.54 134.97 139.93 L 134.04 140.37 C 133.23 140.76 132.89 141.73 133.27 142.54 C 133.66 143.35 134.63 143.70 135.44 143.31 Z M 136.37 142.88 L 137.29 142.44 C 138.11 142.06 138.46 141.08 138.07 140.27 C 137.68 139.45 136.71 139.10 135.89 139.49 L 134.97 139.92 C 134.16 140.31 133.81 141.28 134.19 142.10 C 134.58 142.92 135.55 143.26 136.37 142.88 Z M 137.29 142.45 L 138.21 142.02 C 139.03 141.64 139.38 140.66 139.00 139.84 C 138.62 139.02 137.64 138.67 136.82 139.05 L 135.90 139.48 C 135.08 139.86 134.72 140.84 135.11 141.66 C 135.49 142.48 136.47 142.83 137.29 142.45 Z M 138.20 142.03 L 139.12 141.61 C 139.95 141.23 140.31 140.25 139.93 139.42 C 139.55 138.60 138.58 138.24 137.75 138.62 L 136.83 139.04 C 136.00 139.42 135.64 140.40 136.02 141.22 C 136.40 142.05 137.38 142.41 138.20 142.03 Z M 139.11 141.62 L 140.01 141.21 C 140.85 140.84 141.22 139.86 140.84 139.03 C 140.47 138.20 139.50 137.83 138.66 138.20 L 137.76 138.60 C 136.93 138.98 136.56 139.95 136.93 140.79 C 137.30 141.62 138.28 141.99 139.11 141.62 Z M 139.99 141.23 L 140.97 140.81 C 141.81 140.45 142.20 139.48 141.83 138.63 C 141.47 137.79 140.50 137.40 139.66 137.77 L 138.69 138.18 C 137.84 138.54 137.46 139.52 137.82 140.36 C 138.18 141.20 139.15 141.59 139.99 141.23 Z M 140.88 140.85 L 141.87 140.49 C 142.74 140.17 143.18 139.22 142.87 138.36 C 142.55 137.49 141.60 137.05 140.73 137.36 L 139.74 137.73 C 138.88 138.04 138.44 138.99 138.75 139.86 C 139.06 140.72 140.02 141.17 140.88 140.85 Z M 141.65 140.56 L 142.58 140.36 C 143.48 140.17 144.05 139.28 143.86 138.38 C 143.67 137.48 142.78 136.90 141.88 137.10 L 140.95 137.29 C 140.05 137.49 139.48 138.37 139.67 139.28 C 139.86 140.18 140.75 140.75 141.65 140.56 Z M 142.16 140.41 L 143.04 140.44 C 143.96 140.48 144.74 139.76 144.78 138.83 C 144.82 137.91 144.10 137.13 143.17 137.09 L 142.29 137.05 C 141.37 137.02 140.59 137.74 140.55 138.66 C 140.51 139.59 141.23 140.37 142.16 140.41 Z M 142.45 140.32 L 143.29 140.67 C 144.15 141.03 145.13 140.62 145.49 139.77 C 145.85 138.91 145.45 137.92 144.59 137.56 L 143.76 137.21 C 142.90 136.85 141.91 137.26 141.55 138.11 C 141.19 138.97 141.60 139.96 142.45 140.32 Z M 142.73 140.30 L 143.41 141.00 C 144.07 141.67 145.14 141.69 145.81 141.03 C 146.48 140.38 146.49 139.31 145.84 138.64 L 145.15 137.93 C 144.50 137.26 143.43 137.25 142.76 137.90 C 142.09 138.55 142.07 139.63 142.73 140.30 Z M 143.08 140.52 L 143.52 141.50 C 143.90 142.36 144.91 142.74 145.77 142.35 C 146.62 141.97 147.01 140.96 146.62 140.10 L 146.18 139.12 C 145.79 138.27 144.79 137.88 143.93 138.27 C 143.07 138.65 142.69 139.66 143.08 140.52 Z M 143.40 141.16 L 143.58 142.01 C 143.78 142.93 144.69 143.52 145.61 143.32 C 146.53 143.12 147.12 142.21 146.92 141.29 L 146.74 140.44 C 146.54 139.52 145.63 138.94 144.71 139.13 C 143.79 139.33 143.20 140.24 143.40 141.16 Z M 143.56 141.84 L 143.66 142.81 C 143.77 143.74 144.61 144.42 145.55 144.31 C 146.49 144.21 147.16 143.36 147.06 142.43 L 146.95 141.46 C 146.84 140.53 146.00 139.85 145.06 139.96 C 144.13 140.06 143.45 140.90 143.56 141.84 Z M 143.65 142.70 L 143.71 143.75 C 143.75 144.69 144.55 145.41 145.50 145.37 C 146.44 145.32 147.17 144.52 147.12 143.58 L 147.07 142.53 C 147.02 141.59 146.22 140.86 145.28 140.91 C 144.33 140.96 143.61 141.76 143.65 142.70 Z M 143.70 143.69 L 143.72 144.77 C 143.73 145.72 144.51 146.47 145.45 146.46 C 146.40 146.44 147.15 145.66 147.14 144.72 L 147.12 143.63 C 147.11 142.69 146.33 141.94 145.39 141.95 C 144.44 141.97 143.69 142.74 143.70 143.69 Z M 143.72 144.75 L 143.72 145.82 C 143.72 146.77 144.49 147.53 145.43 147.53 C 146.38 147.53 147.14 146.76 147.14 145.82 L 147.14 144.74 C 147.14 143.80 146.37 143.03 145.43 143.04 C 144.48 143.04 143.72 143.80 143.72 144.75 Z M 143.72 145.82 L 143.72 146.83 C 143.72 147.77 144.48 148.54 145.43 148.54 C 146.37 148.54 147.14 147.78 147.14 146.83 L 147.14 145.82 C 147.14 144.88 146.38 144.11 145.43 144.11 C 144.49 144.11 143.72 144.87 143.72 145.82 Z M 143.72 146.82 L 143.71 147.82 C 143.71 148.76 144.47 149.54 145.42 149.54 C 146.36 149.54 147.13 148.78 147.14 147.83 L 147.14 146.84 C 147.15 145.89 146.38 145.12 145.44 145.12 C 144.49 145.11 143.72 145.87 143.72 146.82 Z M 143.71 147.81 L 143.70 148.80 C 143.69 149.75 144.45 150.52 145.40 150.53 C 146.34 150.54 147.12 149.78 147.13 148.84 L 147.14 147.84 C 147.15 146.90 146.39 146.12 145.44 146.11 C 144.50 146.10 143.72 146.86 143.71 147.81 Z M 143.70 148.79 L 143.68 149.78 C 143.66 150.73 144.42 151.51 145.36 151.53 C 146.31 151.55 147.09 150.79 147.11 149.84 L 147.13 148.85 C 147.15 147.90 146.39 147.12 145.45 147.10 C 144.50 147.09 143.72 147.84 143.70 148.79 Z M 143.68 149.76 L 143.65 150.76 C 143.62 151.71 144.37 152.50 145.31 152.53 C 146.26 152.56 147.05 151.81 147.08 150.87 L 147.11 149.86 C 147.14 148.92 146.40 148.12 145.45 148.10 C 144.50 148.07 143.71 148.81 143.68 149.76 Z M 143.65 150.74 L 143.60 151.80 C 143.56 152.74 144.30 153.55 145.25 153.59 C 146.20 153.63 147.00 152.89 147.04 151.94 L 147.08 150.89 C 147.12 149.94 146.39 149.14 145.44 149.10 C 144.49 149.06 143.69 149.79 143.65 150.74 Z M 143.60 151.78 L 143.54 152.83 C 143.49 153.78 144.22 154.59 145.17 154.64 C 146.12 154.69 146.93 153.96 146.98 153.01 L 147.04 151.96 C 147.09 151.01 146.36 150.20 145.41 150.15 C 144.46 150.10 143.65 150.83 143.60 151.78 Z M 143.54 152.81 L 143.48 153.84 C 143.42 154.79 144.14 155.61 145.09 155.67 C 146.04 155.73 146.86 155.01 146.92 154.06 L 146.99 153.03 C 147.05 152.08 146.32 151.26 145.37 151.20 C 144.42 151.14 143.60 151.86 143.54 152.81 Z M 143.48 153.83 L 143.41 154.80 C 143.34 155.75 144.06 156.58 145.01 156.65 C 145.96 156.71 146.79 155.99 146.86 155.04 L 146.92 154.07 C 146.99 153.12 146.27 152.29 145.32 152.22 C 144.37 152.16 143.54 152.88 143.48 153.83 Z M 143.41 154.79 L 143.34 155.70 C 143.27 156.65 143.98 157.48 144.94 157.55 C 145.89 157.62 146.72 156.91 146.79 155.95 L 146.86 155.05 C 146.93 154.10 146.21 153.27 145.26 153.20 C 144.31 153.12 143.48 153.84 143.41 154.79 Z M 143.34 155.69 L 143.25 156.79 C 143.18 157.74 143.89 158.58 144.84 158.65 C 145.80 158.73 146.63 158.01 146.71 157.06 L 146.79 155.96 C 146.87 155.01 146.15 154.17 145.20 154.10 C 144.25 154.02 143.41 154.74 143.34 155.69 Z M 143.25 156.78 L 143.17 157.79 C 143.09 158.74 143.80 159.58 144.76 159.66 C 145.71 159.74 146.55 159.02 146.63 158.07 L 146.71 157.06 C 146.79 156.11 146.08 155.27 145.12 155.19 C 144.16 155.11 143.33 155.83 143.25 156.78 Z M 143.16 157.78 L 143.09 158.71 C 143.01 159.67 143.72 160.51 144.68 160.59 C 145.63 160.67 146.47 159.96 146.55 159.00 L 146.63 158.07 C 146.71 157.11 146.00 156.27 145.04 156.19 C 144.08 156.11 143.24 156.83 143.16 157.78 Z M 143.08 158.71 L 143.01 159.64 C 142.93 160.60 143.64 161.44 144.60 161.52 C 145.56 161.60 146.40 160.88 146.48 159.92 L 146.56 159.00 C 146.63 158.04 145.92 157.20 144.96 157.12 C 144.00 157.04 143.16 157.75 143.08 158.71 Z M 143.00 159.65 L 142.93 160.63 C 142.85 161.59 143.57 162.43 144.53 162.50 C 145.49 162.58 146.33 161.86 146.41 160.90 L 146.48 159.92 C 146.56 158.96 145.84 158.12 144.88 158.04 C 143.92 157.97 143.08 158.68 143.00 159.65 Z M 142.92 160.64 L 142.85 161.64 C 142.78 162.60 143.51 163.44 144.47 163.51 C 145.43 163.58 146.27 162.86 146.34 161.89 L 146.41 160.89 C 146.48 159.93 145.75 159.09 144.79 159.02 C 143.83 158.95 142.99 159.68 142.92 160.64 Z M 142.85 161.66 L 142.78 162.67 C 142.72 163.64 143.45 164.47 144.42 164.53 C 145.38 164.59 146.21 163.86 146.28 162.89 L 146.34 161.88 C 146.40 160.91 145.67 160.08 144.71 160.02 C 143.74 159.96 142.91 160.69 142.85 161.66 Z M 142.78 162.69 L 142.73 163.67 C 142.68 164.64 143.42 165.46 144.38 165.52 C 145.35 165.57 146.17 164.83 146.23 163.86 L 146.28 162.88 C 146.33 161.91 145.59 161.09 144.62 161.03 C 143.66 160.98 142.83 161.72 142.78 162.69 Z M 142.72 163.68 L 142.68 164.67 C 142.63 165.64 143.38 166.46 144.34 166.51 C 145.31 166.56 146.14 165.81 146.18 164.84 L 146.23 163.85 C 146.28 162.88 145.53 162.06 144.56 162.01 C 143.59 161.97 142.77 162.71 142.72 163.68 Z M 142.67 164.67 L 142.63 165.68 C 142.58 166.65 143.33 167.47 144.30 167.52 C 145.26 167.57 146.09 166.82 146.14 165.85 L 146.18 164.84 C 146.23 163.87 145.48 163.05 144.51 163.00 C 143.55 162.95 142.72 163.70 142.67 164.67 Z M 142.62 165.67 L 142.57 166.68 C 142.52 167.65 143.26 168.48 144.23 168.54 C 145.20 168.59 146.03 167.84 146.08 166.87 L 146.14 165.86 C 146.19 164.89 145.45 164.06 144.48 164.01 C 143.51 163.95 142.68 164.70 142.62 165.67 Z M 142.57 166.67 L 142.51 167.68 C 142.45 168.65 143.19 169.49 144.16 169.55 C 145.13 169.61 145.97 168.87 146.02 167.89 L 146.08 166.88 C 146.14 165.91 145.40 165.08 144.43 165.02 C 143.46 164.96 142.63 165.70 142.57 166.67 Z M 142.50 167.68 L 142.44 168.69 C 142.38 169.66 143.12 170.50 144.09 170.56 C 145.06 170.62 145.90 169.88 145.96 168.91 L 146.03 167.90 C 146.09 166.93 145.35 166.09 144.37 166.03 C 143.40 165.97 142.57 166.71 142.50 167.68 Z M 142.44 168.69 L 142.38 169.68 C 142.32 170.65 143.06 171.49 144.04 171.55 C 145.01 171.60 145.85 170.86 145.91 169.89 L 145.97 168.90 C 146.02 167.93 145.28 167.09 144.31 167.03 C 143.34 166.97 142.50 167.72 142.44 168.69 Z M 142.38 169.69 L 142.32 170.71 C 142.27 171.69 143.01 172.52 143.99 172.57 C 144.97 172.63 145.80 171.88 145.85 170.90 L 145.91 169.88 C 145.96 168.90 145.21 168.07 144.24 168.02 C 143.26 167.96 142.43 168.71 142.38 169.69 Z M 142.32 170.72 L 142.27 171.73 C 142.22 172.70 142.98 173.53 143.95 173.58 C 144.93 173.63 145.76 172.87 145.81 171.90 L 145.86 170.89 C 145.90 169.91 145.15 169.08 144.17 169.04 C 143.19 168.99 142.36 169.75 142.32 170.72 Z M 142.27 171.73 L 142.22 172.71 C 142.18 173.69 142.94 174.52 143.92 174.56 C 144.90 174.60 145.73 173.84 145.77 172.86 L 145.81 171.89 C 145.85 170.91 145.09 170.08 144.12 170.04 C 143.14 170.00 142.31 170.76 142.27 171.73 Z M 142.22 172.71 L 142.18 173.60 C 142.14 174.58 142.91 175.41 143.89 175.45 C 144.87 175.49 145.69 174.73 145.73 173.75 L 145.77 172.86 C 145.81 171.88 145.05 171.05 144.07 171.01 C 143.09 170.97 142.26 171.73 142.22 172.71 Z M 142.18 173.61 L 142.15 174.45 C 142.11 175.43 142.88 176.25 143.86 176.29 C 144.84 176.33 145.67 175.56 145.70 174.58 L 145.74 173.74 C 145.77 172.76 145.01 171.94 144.03 171.90 C 143.05 171.86 142.22 172.63 142.18 173.61 Z M 142.15 174.46 L 142.12 175.41 C 142.09 176.40 142.86 177.22 143.84 177.25 C 144.83 177.28 145.65 176.50 145.68 175.52 L 145.71 174.57 C 145.74 173.59 144.97 172.76 143.98 172.73 C 143.00 172.70 142.18 173.48 142.15 174.46 Z M 142.11 175.43 L 142.09 176.57 C 142.07 177.55 142.85 178.37 143.84 178.39 C 144.82 178.41 145.64 177.63 145.66 176.64 L 145.68 175.50 C 145.70 174.52 144.92 173.70 143.94 173.68 C 142.95 173.66 142.13 174.44 142.11 175.43 Z M 142.09 176.58 L 142.07 177.68 C 142.06 178.67 142.85 179.48 143.84 179.49 C 144.82 179.51 145.64 178.72 145.65 177.73 L 145.66 176.63 C 145.67 175.64 144.88 174.83 143.90 174.82 C 142.91 174.80 142.10 175.59 142.09 176.58 Z M 142.07 177.69 L 142.06 178.64 C 142.05 179.63 142.85 180.44 143.84 180.44 C 144.83 180.45 145.64 179.66 145.64 178.67 L 145.65 177.72 C 145.66 176.73 144.86 175.92 143.87 175.92 C 142.89 175.91 142.08 176.70 142.07 177.69 Z M 142.06 178.64 L 142.06 179.66 C 142.05 180.65 142.85 181.45 143.84 181.46 C 144.83 181.46 145.63 180.66 145.64 179.67 L 145.64 178.66 C 145.65 177.67 144.85 176.87 143.86 176.86 C 142.87 176.86 142.07 177.66 142.06 178.64 Z M 142.05 179.66 L 142.05 180.71 C 142.05 181.70 142.85 182.50 143.84 182.51 C 144.83 182.51 145.64 181.71 145.64 180.72 L 145.64 179.67 C 145.64 178.68 144.84 177.88 143.85 177.87 C 142.86 177.87 142.06 178.67 142.05 179.66 Z M 142.05 180.71 L 142.05 181.77 C 142.05 182.76 142.85 183.56 143.84 183.56 C 144.83 183.56 145.64 182.76 145.64 181.77 L 145.64 180.72 C 145.64 179.73 144.84 178.92 143.85 178.92 C 142.86 178.92 142.05 179.72 142.05 180.71 Z M 142.05 181.77 L 142.05 182.80 C 142.05 183.79 142.85 184.59 143.84 184.59 C 144.83 184.59 145.64 183.79 145.64 182.80 L 145.64 181.77 C 145.64 180.78 144.84 179.97 143.84 179.97 C 142.85 179.97 142.05 180.78 142.05 181.77 Z M 142.05 182.80 L 142.05 183.77 C 142.05 184.76 142.85 185.57 143.84 185.57 C 144.84 185.57 145.64 184.76 145.64 183.77 L 145.64 182.80 C 145.64 181.80 144.84 181.00 143.84 181.00 C 142.85 181.00 142.05 181.80 142.05 182.80 Z M 142.04 183.77 L 142.04 184.96 C 142.04 185.95 142.85 186.75 143.84 186.75 C 144.84 186.75 145.64 185.95 145.64 184.96 L 145.64 183.77 C 145.64 182.78 144.84 181.97 143.84 181.97 C 142.85 181.97 142.04 182.78 142.04 183.77 Z M 142.04 184.96 L 142.04 186.02 C 142.04 187.01 142.85 187.82 143.84 187.82 C 144.84 187.82 145.64 187.01 145.64 186.02 L 145.64 184.96 C 145.64 183.96 144.84 183.16 143.84 183.16 C 142.85 183.16 142.04 183.96 142.04 184.96 Z M 142.04 186.02 L 142.04 186.99 C 142.04 187.98 142.85 188.78 143.84 188.78 C 144.84 188.78 145.64 187.98 145.64 186.99 L 145.64 186.02 C 145.64 185.03 144.84 184.22 143.84 184.22 C 142.85 184.22 142.04 185.03 142.04 186.02 Z M 142.04 186.99 L 142.04 187.88 C 142.04 188.88 142.85 189.68 143.84 189.68 C 144.84 189.68 145.64 188.88 145.64 187.88 L 145.64 186.99 C 145.64 185.99 144.84 185.19 143.84 185.19 C 142.85 185.19 142.04 185.99 142.04 186.99 Z M 142.04 187.88 L 142.04 188.84 C 142.04 189.83 142.85 190.64 143.84 190.64 C 144.84 190.64 145.64 189.83 145.64 188.84 L 145.64 187.88 C 145.64 186.89 144.84 186.08 143.84 186.08 C 142.85 186.08 142.04 186.89 142.04 187.88 Z M 142.04 188.82 L 142.03 190.14 C 142.02 191.14 142.82 191.95 143.81 191.96 C 144.81 191.97 145.62 191.17 145.63 190.18 L 145.64 188.86 C 145.65 187.86 144.86 187.05 143.86 187.04 C 142.87 187.03 142.05 187.83 142.04 188.82 Z M 142.03 190.03 L 141.96 190.99 C 141.89 191.98 142.64 192.85 143.63 192.92 C 144.62 192.99 145.48 192.25 145.56 191.25 L 145.63 190.29 C 145.70 189.30 144.95 188.43 143.96 188.36 C 142.97 188.29 142.11 189.04 142.03 190.03 Z M 142.22 190.19 L 142.03 190.52 C 141.51 191.37 141.79 192.47 142.63 192.98 C 143.48 193.50 144.58 193.22 145.10 192.38 L 145.29 192.05 C 145.81 191.20 145.54 190.10 144.69 189.59 C 143.84 189.08 142.74 189.35 142.22 190.19 Z M 145.02 190.46 L 144.59 189.82 C 144.04 189.01 142.95 188.80 142.14 189.34 C 141.34 189.88 141.12 190.98 141.66 191.78 L 142.10 192.43 C 142.64 193.24 143.74 193.45 144.55 192.91 C 145.35 192.37 145.57 191.27 145.02 190.46 Z M 144.64 190.01 L 144.04 188.85 C 143.60 188.01 142.57 187.69 141.73 188.12 C 140.89 188.56 140.57 189.59 141.00 190.43 L 141.61 191.59 C 142.05 192.43 143.08 192.75 143.92 192.32 C 144.75 191.88 145.08 190.85 144.64 190.01 Z M 143.92 188.77 L 143.41 187.95 C 142.93 187.18 141.92 186.94 141.15 187.42 C 140.37 187.90 140.13 188.91 140.61 189.68 L 141.12 190.51 C 141.60 191.28 142.61 191.52 143.39 191.04 C 144.16 190.56 144.40 189.55 143.92 188.77 Z M 143.30 187.92 L 142.74 187.12 C 142.24 186.40 141.27 186.23 140.56 186.72 C 139.85 187.21 139.67 188.19 140.16 188.90 L 140.72 189.71 C 141.22 190.42 142.19 190.60 142.90 190.10 C 143.61 189.61 143.79 188.63 143.30 187.92 Z M 142.66 187.14 L 142.06 186.30 C 141.58 185.63 140.65 185.48 139.99 185.95 C 139.32 186.43 139.16 187.36 139.64 188.03 L 140.24 188.87 C 140.72 189.54 141.64 189.70 142.31 189.22 C 142.98 188.74 143.14 187.81 142.66 187.14 Z M 142.04 186.35 L 141.49 185.55 C 141.04 184.90 140.14 184.73 139.49 185.18 C 138.83 185.63 138.66 186.53 139.11 187.19 L 139.66 187.98 C 140.11 188.64 141.01 188.80 141.66 188.35 C 142.32 187.90 142.49 187.00 142.04 186.35 Z M 141.50 185.58 L 140.95 184.75 C 140.51 184.09 139.63 183.91 138.97 184.35 C 138.31 184.79 138.13 185.68 138.56 186.34 L 139.11 187.16 C 139.55 187.82 140.43 188.00 141.09 187.56 C 141.75 187.13 141.93 186.24 141.50 185.58 Z M 140.96 184.77 L 140.40 183.91 C 139.97 183.25 139.09 183.06 138.42 183.49 C 137.76 183.92 137.57 184.80 138.00 185.46 L 138.56 186.32 C 138.99 186.98 139.87 187.17 140.53 186.74 C 141.20 186.32 141.39 185.43 140.96 184.77 Z M 140.40 183.92 L 139.88 183.11 C 139.46 182.45 138.58 182.25 137.91 182.68 C 137.25 183.10 137.06 183.99 137.48 184.65 L 138.00 185.46 C 138.42 186.12 139.31 186.31 139.97 185.89 C 140.63 185.46 140.83 184.58 140.40 183.92 Z"
      fill="black"
      fill-rule="nonzero" /><path d="M 123.07 132.65 L 122.75 133.48 C 122.44 134.28 122.84 135.19 123.64 135.50 C 124.45 135.81 125.36 135.41 125.67 134.60 L 125.99 133.78 C 126.30 132.97 125.90 132.06 125.09 131.75 C 124.29 131.44 123.38 131.84 123.07 132.65 Z M 122.71 133.52 L 122.41 134.39 C 122.12 135.21 122.55 136.12 123.38 136.41 C 124.21 136.70 125.11 136.26 125.40 135.43 L 125.71 134.57 C 126.00 133.74 125.56 132.83 124.73 132.54 C 123.90 132.25 123.00 132.69 122.71 133.52 Z M 122.36 134.47 L 122.08 135.42 C 121.84 136.27 122.33 137.16 123.19 137.41 C 124.04 137.65 124.93 137.16 125.18 136.30 L 125.45 135.35 C 125.69 134.50 125.20 133.61 124.35 133.36 C 123.49 133.12 122.60 133.61 122.36 134.47 Z M 122.04 135.53 L 121.81 136.60 C 121.63 137.48 122.19 138.34 123.07 138.53 C 123.95 138.71 124.82 138.15 125.00 137.27 L 125.23 136.20 C 125.41 135.31 124.85 134.45 123.97 134.27 C 123.08 134.08 122.22 134.64 122.04 135.53 Z M 121.77 136.71 L 121.63 137.77 C 121.51 138.68 122.14 139.51 123.04 139.63 C 123.94 139.75 124.77 139.12 124.89 138.22 L 125.04 137.16 C 125.16 136.25 124.53 135.42 123.63 135.30 C 122.73 135.18 121.90 135.81 121.77 136.71 Z M 121.61 137.86 L 121.53 138.85 C 121.45 139.76 122.13 140.56 123.04 140.64 C 123.95 140.71 124.75 140.04 124.82 139.13 L 124.91 138.14 C 124.99 137.23 124.31 136.43 123.40 136.35 C 122.49 136.27 121.69 136.95 121.61 137.86 Z M 121.52 138.90 L 121.47 139.94 C 121.42 140.85 122.12 141.63 123.04 141.68 C 123.95 141.73 124.73 141.03 124.78 140.11 L 124.83 139.07 C 124.88 138.16 124.18 137.38 123.26 137.34 C 122.35 137.29 121.57 137.99 121.52 138.90 Z M 121.47 139.98 L 121.44 141.03 C 121.41 141.94 122.13 142.71 123.04 142.73 C 123.96 142.76 124.72 142.04 124.75 141.13 L 124.78 140.08 C 124.81 139.16 124.09 138.40 123.17 138.37 C 122.26 138.34 121.49 139.06 121.47 139.98 Z M 121.43 141.06 L 121.42 142.08 C 121.41 143.00 122.14 143.75 123.05 143.76 C 123.97 143.78 124.72 143.05 124.74 142.13 L 124.75 141.10 C 124.76 140.19 124.03 139.43 123.12 139.42 C 122.20 139.41 121.45 140.14 121.43 141.06 Z M 121.42 142.10 L 121.41 143.07 C 121.41 143.99 122.15 144.73 123.07 144.74 C 123.98 144.74 124.73 144.00 124.73 143.09 L 124.74 142.11 C 124.74 141.20 124.00 140.45 123.08 140.45 C 122.17 140.44 121.42 141.18 121.42 142.10 Z M 121.41 143.08 L 121.41 144.13 C 121.41 145.05 122.16 145.79 123.07 145.79 C 123.99 145.79 124.73 145.05 124.73 144.13 L 124.73 143.08 C 124.73 142.16 123.99 141.42 123.07 141.42 C 122.16 141.42 121.41 142.16 121.41 143.08 Z M 121.41 144.13 L 121.41 145.26 C 121.41 146.18 122.16 146.92 123.07 146.92 C 123.99 146.92 124.73 146.18 124.73 145.26 L 124.73 144.13 C 124.73 143.22 123.99 142.47 123.07 142.47 C 122.16 142.47 121.41 143.22 121.41 144.13 Z M 121.41 145.26 L 121.41 146.23 C 121.41 147.14 122.16 147.89 123.07 147.89 C 123.99 147.89 124.73 147.14 124.73 146.23 L 124.73 145.26 C 124.73 144.35 123.99 143.60 123.07 143.60 C 122.16 143.60 121.41 144.35 121.41 145.26 Z M 121.41 146.23 L 121.41 147.10 C 121.41 148.02 122.16 148.76 123.07 148.76 C 123.99 148.76 124.73 148.02 124.73 147.10 L 124.73 146.23 C 124.73 145.31 123.99 144.56 123.07 144.56 C 122.16 144.56 121.41 145.31 121.41 146.23 Z M 121.41 147.10 L 121.41 148.00 C 121.41 148.91 122.15 149.66 123.07 149.66 C 123.99 149.66 124.74 148.91 124.74 148.00 L 124.74 147.10 C 124.74 146.18 123.99 145.44 123.07 145.44 C 122.15 145.44 121.41 146.18 121.41 147.10 Z M 121.41 148.00 L 121.41 148.97 C 121.41 149.89 122.15 150.63 123.07 150.63 C 123.99 150.63 124.74 149.89 124.74 148.97 L 124.74 148.00 C 124.74 147.08 123.99 146.33 123.07 146.33 C 122.15 146.33 121.41 147.08 121.41 148.00 Z M 121.41 148.97 L 121.41 149.98 C 121.41 150.89 122.15 151.64 123.07 151.64 C 123.99 151.64 124.74 150.89 124.74 149.98 L 124.74 148.97 C 124.74 148.05 123.99 147.31 123.07 147.31 C 122.15 147.31 121.41 148.05 121.41 148.97 Z M 121.41 149.98 L 121.41 151.01 C 121.41 151.93 122.15 152.67 123.07 152.67 C 123.99 152.67 124.74 151.93 124.74 151.01 L 124.74 149.98 C 124.74 149.06 123.99 148.31 123.07 148.31 C 122.15 148.31 121.41 149.06 121.41 149.98 Z M 121.41 151.01 L 121.41 152.01 C 121.41 152.92 122.16 153.67 123.07 153.67 C 123.99 153.67 124.73 152.92 124.73 152.01 L 124.73 151.01 C 124.73 150.09 123.99 149.35 123.07 149.35 C 122.16 149.35 121.41 150.09 121.41 151.01 Z M 121.41 152.01 L 121.41 153.01 C 121.41 153.93 122.16 154.67 123.07 154.67 C 123.99 154.67 124.73 153.93 124.73 153.01 L 124.73 152.01 C 124.73 151.09 123.99 150.35 123.07 150.35 C 122.16 150.35 121.41 151.09 121.41 152.01 Z M 121.41 153.01 L 121.41 154.02 C 121.41 154.93 122.16 155.68 123.07 155.68 C 123.99 155.68 124.73 154.93 124.73 154.02 L 124.73 153.01 C 124.73 152.09 123.99 151.35 123.07 151.35 C 122.16 151.35 121.41 152.09 121.41 153.01 Z M 121.41 154.02 L 121.41 155.02 C 121.41 155.93 122.16 156.68 123.07 156.68 C 123.99 156.68 124.73 155.93 124.73 155.02 L 124.73 154.02 C 124.73 153.10 123.99 152.36 123.07 152.36 C 122.16 152.36 121.41 153.10 121.41 154.02 Z M 121.41 155.02 L 121.41 156.02 C 121.41 156.94 122.15 157.68 123.07 157.68 C 123.99 157.68 124.73 156.94 124.73 156.02 L 124.73 155.02 C 124.73 154.10 123.99 153.36 123.07 153.36 C 122.16 153.36 121.42 154.10 121.41 155.02 Z M 121.42 156.01 L 121.41 157.01 C 121.40 157.92 122.14 158.67 123.06 158.67 C 123.97 158.68 124.72 157.94 124.72 157.03 L 124.73 156.03 C 124.73 155.12 124.00 154.37 123.08 154.37 C 122.17 154.36 121.42 155.10 121.42 156.01 Z M 121.41 156.99 L 121.40 157.99 C 121.38 158.90 122.11 159.65 123.02 159.67 C 123.94 159.68 124.69 158.95 124.71 158.04 L 124.72 157.04 C 124.74 156.13 124.01 155.38 123.09 155.36 C 122.18 155.35 121.43 156.08 121.41 156.99 Z M 121.40 157.96 L 121.37 158.96 C 121.34 159.88 122.06 160.64 122.97 160.67 C 123.88 160.69 124.65 159.98 124.67 159.06 L 124.70 158.06 C 124.73 157.15 124.01 156.39 123.10 156.36 C 122.19 156.33 121.43 157.05 121.40 157.96 Z M 121.37 158.93 L 121.32 159.92 C 121.28 160.83 121.98 161.61 122.89 161.65 C 123.80 161.70 124.58 160.99 124.62 160.08 L 124.67 159.09 C 124.71 158.18 124.01 157.41 123.10 157.36 C 122.19 157.32 121.42 158.02 121.37 158.93 Z M 121.33 159.89 L 121.26 160.89 C 121.20 161.79 121.88 162.58 122.79 162.65 C 123.69 162.71 124.48 162.03 124.55 161.12 L 124.62 160.12 C 124.68 159.21 124.00 158.42 123.09 158.36 C 122.18 158.30 121.39 158.98 121.33 159.89 Z M 121.27 160.84 L 121.17 161.85 C 121.08 162.75 121.74 163.55 122.65 163.64 C 123.55 163.73 124.35 163.07 124.44 162.16 L 124.54 161.16 C 124.63 160.26 123.97 159.45 123.06 159.37 C 122.16 159.28 121.35 159.94 121.27 160.84 Z M 121.18 161.79 L 121.05 162.79 C 120.93 163.69 121.57 164.51 122.47 164.63 C 123.37 164.75 124.19 164.11 124.30 163.21 L 124.43 162.21 C 124.55 161.32 123.91 160.49 123.02 160.38 C 122.12 160.26 121.29 160.90 121.18 161.79 Z M 121.06 162.74 L 120.90 163.73 C 120.76 164.62 121.36 165.46 122.26 165.61 C 123.15 165.75 123.99 165.14 124.13 164.25 L 124.29 163.26 C 124.44 162.37 123.83 161.53 122.94 161.38 C 122.04 161.24 121.20 161.85 121.06 162.74 Z M 120.91 163.69 L 120.73 164.67 C 120.56 165.56 121.15 166.41 122.04 166.58 C 122.92 166.74 123.78 166.16 123.94 165.27 L 124.12 164.29 C 124.29 163.40 123.70 162.55 122.81 162.38 C 121.93 162.22 121.08 162.80 120.91 163.69 Z M 120.74 164.65 L 120.54 165.63 C 120.36 166.51 120.93 167.37 121.82 167.55 C 122.70 167.73 123.56 167.15 123.74 166.27 L 123.93 165.29 C 124.11 164.41 123.54 163.55 122.65 163.38 C 121.77 163.20 120.91 163.77 120.74 164.65 Z M 120.55 165.62 L 120.34 166.61 C 120.16 167.48 120.73 168.34 121.61 168.53 C 122.48 168.71 123.34 168.14 123.53 167.26 L 123.73 166.28 C 123.91 165.40 123.35 164.54 122.47 164.36 C 121.59 164.18 120.73 164.74 120.55 165.62 Z M 120.35 166.60 L 120.14 167.59 C 119.96 168.47 120.52 169.32 121.40 169.51 C 122.27 169.69 123.13 169.13 123.31 168.25 L 123.52 167.26 C 123.70 166.39 123.14 165.53 122.27 165.35 C 121.39 165.17 120.53 165.73 120.35 166.60 Z M 120.15 167.59 L 119.94 168.57 C 119.76 169.44 120.31 170.29 121.18 170.48 C 122.06 170.67 122.91 170.11 123.10 169.24 L 123.31 168.26 C 123.49 167.39 122.94 166.53 122.07 166.34 C 121.19 166.16 120.34 166.71 120.15 167.59 Z M 119.95 168.56 L 119.74 169.53 C 119.54 170.39 120.09 171.25 120.96 171.44 C 121.83 171.63 122.68 171.09 122.88 170.22 L 123.09 169.25 C 123.28 168.38 122.73 167.52 121.87 167.33 C 121.00 167.14 120.14 167.69 119.95 168.56 Z M 119.75 169.51 L 119.52 170.48 C 119.32 171.34 119.86 172.20 120.72 172.40 C 121.58 172.60 122.44 172.06 122.64 171.20 L 122.87 170.23 C 123.07 169.37 122.53 168.51 121.67 168.31 C 120.81 168.11 119.95 168.65 119.75 169.51 Z M 119.53 170.46 L 119.30 171.43 C 119.09 172.28 119.61 173.15 120.46 173.36 C 121.32 173.57 122.18 173.04 122.39 172.19 L 122.63 171.22 C 122.84 170.36 122.32 169.50 121.46 169.29 C 120.61 169.08 119.74 169.60 119.53 170.46 Z M 119.31 171.41 L 119.06 172.38 C 118.84 173.23 119.36 174.09 120.20 174.31 C 121.05 174.53 121.92 174.01 122.14 173.16 L 122.38 172.20 C 122.60 171.35 122.09 170.49 121.24 170.27 C 120.39 170.05 119.52 170.56 119.31 171.41 Z M 119.07 172.37 L 118.81 173.34 C 118.59 174.18 119.10 175.05 119.94 175.27 C 120.78 175.49 121.65 174.99 121.87 174.14 L 122.13 173.17 C 122.35 172.33 121.84 171.47 121.00 171.24 C 120.16 171.02 119.29 171.52 119.07 172.37 Z M 118.82 173.33 L 118.58 174.25 C 118.35 175.09 118.85 175.95 119.69 176.18 C 120.52 176.41 121.39 175.91 121.61 175.07 L 121.86 174.15 C 122.09 173.31 121.59 172.45 120.75 172.22 C 119.91 172.00 119.05 172.49 118.82 173.33 Z M 118.59 174.25 L 118.33 175.17 C 118.10 176.00 118.59 176.86 119.42 177.09 C 120.26 177.32 121.12 176.83 121.35 176.00 L 121.60 175.08 C 121.83 174.24 121.34 173.38 120.51 173.15 C 119.68 172.92 118.82 173.41 118.59 174.25 Z M 118.34 175.15 L 118.07 176.11 C 117.83 176.94 118.31 177.80 119.14 178.04 C 119.96 178.28 120.83 177.80 121.06 176.97 L 121.34 176.01 C 121.57 175.19 121.10 174.32 120.27 174.09 C 119.44 173.85 118.58 174.33 118.34 175.15 Z M 118.08 176.10 L 117.78 177.11 C 117.53 177.93 118.00 178.79 118.82 179.04 C 119.64 179.28 120.50 178.82 120.75 178.00 L 121.05 176.99 C 121.30 176.17 120.83 175.30 120.01 175.06 C 119.19 174.81 118.33 175.28 118.08 176.10 Z M 117.79 177.09 L 117.49 178.04 C 117.24 178.85 117.69 179.72 118.50 179.97 C 119.32 180.23 120.18 179.78 120.44 178.96 L 120.74 178.01 C 120.99 177.20 120.54 176.33 119.72 176.08 C 118.91 175.82 118.05 176.28 117.79 177.09 Z M 117.50 178.03 L 117.21 178.94 C 116.95 179.74 117.39 180.61 118.20 180.87 C 119.01 181.13 119.87 180.69 120.13 179.88 L 120.43 178.97 C 120.69 178.17 120.24 177.30 119.44 177.04 C 118.63 176.78 117.76 177.22 117.50 178.03 Z M 117.22 178.94 L 116.91 179.88 C 116.65 180.68 117.09 181.55 117.89 181.81 C 118.69 182.07 119.56 181.63 119.82 180.83 L 120.13 179.88 C 120.39 179.08 119.95 178.22 119.15 177.95 C 118.34 177.69 117.48 178.13 117.22 178.94 Z M 116.91 179.88 L 116.60 180.86 C 116.34 181.66 116.78 182.52 117.58 182.78 C 118.38 183.03 119.24 182.60 119.50 181.79 L 119.81 180.82 C 120.07 180.02 119.63 179.16 118.83 178.90 C 118.03 178.64 117.17 179.08 116.91 179.88 Z M 116.60 180.87 L 116.29 181.87 C 116.04 182.66 116.48 183.52 117.28 183.77 C 118.08 184.02 118.93 183.58 119.18 182.78 L 119.50 181.78 C 119.75 180.98 119.31 180.13 118.51 179.88 C 117.71 179.63 116.86 180.07 116.60 180.87 Z M 116.29 181.88 L 115.99 182.86 C 115.75 183.66 116.20 184.51 117.00 184.75 C 117.79 184.99 118.64 184.54 118.88 183.74 L 119.18 182.76 C 119.42 181.97 118.97 181.12 118.17 180.88 C 117.38 180.64 116.53 181.09 116.29 181.88 Z M 116.00 182.88 L 115.72 183.83 C 115.49 184.63 115.94 185.46 116.74 185.69 C 117.53 185.93 118.36 185.47 118.60 184.68 L 118.87 183.73 C 119.11 182.93 118.65 182.10 117.86 181.86 C 117.06 181.63 116.23 182.09 116.00 182.88 Z M 115.72 183.85 L 115.45 184.81 C 115.23 185.60 115.69 186.42 116.48 186.65 C 117.27 186.87 118.09 186.41 118.32 185.62 L 118.59 184.66 C 118.81 183.87 118.35 183.05 117.56 182.82 C 116.77 182.60 115.95 183.06 115.72 183.85 Z M 115.46 184.82 L 115.19 185.79 C 114.98 186.57 115.44 187.39 116.23 187.60 C 117.01 187.82 117.83 187.36 118.04 186.57 L 118.31 185.61 C 118.53 184.82 118.07 184.01 117.28 183.79 C 116.49 183.57 115.68 184.03 115.46 184.82 Z M 115.20 185.80 L 114.94 186.77 C 114.73 187.55 115.19 188.36 115.97 188.57 C 116.75 188.78 117.56 188.32 117.77 187.54 L 118.03 186.56 C 118.25 185.78 117.78 184.98 117.00 184.77 C 116.22 184.55 115.42 185.02 115.20 185.80 Z M 114.95 186.77 L 114.69 187.75 C 114.48 188.53 114.94 189.32 115.72 189.53 C 116.49 189.74 117.29 189.28 117.50 188.50 L 117.76 187.53 C 117.97 186.75 117.51 185.96 116.73 185.75 C 115.96 185.54 115.16 186.00 114.95 186.77 Z M 114.69 187.75 L 114.66 187.87 C 114.45 188.64 114.91 189.44 115.69 189.64 C 116.46 189.85 117.25 189.39 117.46 188.62 L 117.49 188.50 C 117.70 187.73 117.24 186.93 116.47 186.73 C 115.70 186.52 114.90 186.98 114.69 187.75 Z"
      fill="black"
      fill-rule="nonzero" /><path d="M 170.89 101.68 L 170.41 102.41 C 169.95 103.11 170.14 104.05 170.84 104.51 C 171.54 104.97 172.48 104.78 172.94 104.08 L 173.42 103.36 C 173.88 102.66 173.69 101.72 172.99 101.26 C 172.29 100.79 171.35 100.99 170.89 101.68 Z M 170.37 102.42 L 169.89 103.18 C 169.43 103.90 169.64 104.85 170.36 105.31 C 171.08 105.77 172.04 105.55 172.50 104.83 L 172.98 104.07 C 173.43 103.35 173.22 102.40 172.50 101.94 C 171.78 101.48 170.83 101.70 170.37 102.42 Z M 169.84 103.21 L 169.35 104.04 C 168.91 104.79 169.16 105.76 169.91 106.19 C 170.66 106.63 171.62 106.38 172.06 105.63 L 172.55 104.80 C 172.99 104.05 172.74 103.09 171.99 102.65 C 171.24 102.21 170.27 102.46 169.84 103.21 Z M 169.29 104.09 L 168.79 105.03 C 168.38 105.81 168.67 106.78 169.46 107.20 C 170.24 107.61 171.21 107.31 171.62 106.53 L 172.12 105.59 C 172.53 104.80 172.23 103.84 171.45 103.42 C 170.67 103.01 169.70 103.31 169.29 104.09 Z M 168.73 105.09 L 168.22 106.17 C 167.84 106.98 168.19 107.95 169.00 108.34 C 169.82 108.72 170.79 108.37 171.17 107.55 L 171.68 106.47 C 172.06 105.66 171.71 104.69 170.90 104.31 C 170.08 103.92 169.11 104.27 168.73 105.09 Z M 168.18 106.22 L 167.81 107.10 C 167.45 107.93 167.84 108.90 168.68 109.25 C 169.52 109.61 170.48 109.22 170.84 108.38 L 171.21 107.51 C 171.57 106.67 171.18 105.70 170.34 105.35 C 169.50 104.99 168.54 105.38 168.18 106.22 Z M 167.79 107.13 L 167.42 108.07 C 167.08 108.92 167.49 109.87 168.34 110.21 C 169.18 110.55 170.14 110.14 170.48 109.29 L 170.85 108.35 C 171.19 107.50 170.78 106.55 169.93 106.21 C 169.09 105.87 168.13 106.28 167.79 107.13 Z M 167.41 108.09 L 167.03 109.07 C 166.71 109.93 167.14 110.88 167.99 111.20 C 168.84 111.53 169.79 111.10 170.12 110.25 L 170.49 109.27 C 170.81 108.42 170.39 107.46 169.54 107.14 C 168.68 106.82 167.73 107.24 167.41 108.09 Z M 167.03 109.09 L 166.66 110.08 C 166.35 110.93 166.78 111.88 167.64 112.20 C 168.50 112.52 169.45 112.08 169.76 111.22 L 170.13 110.23 C 170.44 109.37 170.00 108.43 169.15 108.11 C 168.29 107.79 167.34 108.23 167.03 109.09 Z M 166.66 110.09 L 166.30 111.06 C 165.99 111.92 166.44 112.87 167.30 113.18 C 168.16 113.49 169.11 113.04 169.42 112.18 L 169.77 111.21 C 170.08 110.35 169.63 109.40 168.77 109.09 C 167.91 108.78 166.97 109.23 166.66 110.09 Z M 166.30 111.06 L 165.97 111.99 C 165.66 112.85 166.11 113.80 166.97 114.11 C 167.83 114.42 168.78 113.97 169.09 113.11 L 169.42 112.18 C 169.73 111.32 169.28 110.37 168.42 110.06 C 167.56 109.75 166.61 110.20 166.30 111.06 Z M 165.97 111.99 L 165.65 112.86 C 165.34 113.73 165.79 114.68 166.66 114.99 C 167.52 115.30 168.47 114.85 168.78 113.98 L 169.09 113.11 C 169.40 112.25 168.95 111.30 168.09 110.99 C 167.23 110.68 166.28 111.13 165.97 111.99 Z M 165.66 112.85 L 165.23 114.01 C 164.92 114.87 165.36 115.83 166.22 116.14 C 167.08 116.46 168.04 116.01 168.35 115.15 L 168.78 114.00 C 169.09 113.13 168.65 112.18 167.79 111.86 C 166.93 111.55 165.97 111.99 165.66 112.85 Z M 165.24 113.99 L 164.87 114.97 C 164.54 115.83 164.98 116.79 165.84 117.11 C 166.70 117.44 167.66 117.00 167.98 116.14 L 168.35 115.17 C 168.67 114.31 168.24 113.35 167.38 113.02 C 166.52 112.70 165.56 113.13 165.24 113.99 Z M 164.87 114.96 L 164.54 115.81 C 164.21 116.67 164.63 117.63 165.49 117.97 C 166.35 118.30 167.31 117.87 167.64 117.02 L 167.98 116.16 C 168.31 115.30 167.88 114.34 167.03 114.01 C 166.17 113.67 165.20 114.10 164.87 114.96 Z M 164.54 115.80 L 164.23 116.60 C 163.89 117.45 164.31 118.42 165.17 118.76 C 166.02 119.10 166.99 118.68 167.33 117.82 L 167.64 117.03 C 167.98 116.17 167.56 115.20 166.70 114.87 C 165.85 114.53 164.88 114.95 164.54 115.80 Z M 164.23 116.60 L 163.90 117.44 C 163.56 118.29 163.98 119.26 164.83 119.60 C 165.69 119.94 166.66 119.52 166.99 118.66 L 167.33 117.82 C 167.67 116.97 167.25 116.00 166.39 115.66 C 165.54 115.32 164.57 115.74 164.23 116.60 Z M 163.90 117.44 L 163.54 118.34 C 163.20 119.20 163.62 120.16 164.48 120.50 C 165.33 120.84 166.30 120.42 166.64 119.57 L 166.99 118.66 C 167.33 117.81 166.91 116.84 166.06 116.50 C 165.20 116.16 164.23 116.58 163.90 117.44 Z M 163.54 118.34 L 163.17 119.27 C 162.83 120.13 163.25 121.09 164.11 121.43 C 164.96 121.77 165.93 121.35 166.27 120.50 L 166.64 119.57 C 166.98 118.71 166.56 117.74 165.70 117.40 C 164.85 117.07 163.88 117.48 163.54 118.34 Z M 163.17 119.27 L 162.79 120.23 C 162.45 121.08 162.87 122.05 163.72 122.39 C 164.58 122.73 165.55 122.32 165.89 121.46 L 166.27 120.50 C 166.61 119.64 166.19 118.68 165.34 118.34 C 164.48 118.00 163.51 118.41 163.17 119.27 Z M 162.79 120.23 L 162.42 121.16 C 162.08 122.01 162.49 122.98 163.35 123.33 C 164.20 123.67 165.17 123.25 165.51 122.40 L 165.88 121.46 C 166.23 120.61 165.81 119.64 164.96 119.30 C 164.10 118.96 163.13 119.37 162.79 120.23 Z M 162.42 121.15 L 162.05 122.07 C 161.71 122.92 162.12 123.89 162.97 124.24 C 163.82 124.58 164.79 124.17 165.14 123.32 L 165.51 122.40 C 165.85 121.55 165.44 120.58 164.59 120.23 C 163.74 119.89 162.76 120.30 162.42 121.15 Z M 162.05 122.06 L 161.67 122.99 C 161.32 123.84 161.73 124.81 162.58 125.16 C 163.43 125.51 164.41 125.10 164.76 124.25 L 165.14 123.32 C 165.49 122.47 165.08 121.50 164.23 121.15 C 163.37 120.80 162.40 121.21 162.05 122.06 Z M 161.68 122.98 L 161.29 123.92 C 160.93 124.77 161.33 125.74 162.18 126.10 C 163.03 126.45 164.01 126.05 164.36 125.20 L 164.75 124.26 C 165.11 123.41 164.70 122.44 163.85 122.08 C 163.01 121.73 162.03 122.13 161.68 122.98 Z M 161.29 123.91 L 160.89 124.84 C 160.53 125.69 160.93 126.67 161.78 127.03 C 162.62 127.38 163.60 126.99 163.96 126.14 L 164.36 125.21 C 164.72 124.36 164.32 123.38 163.48 123.02 C 162.63 122.66 161.65 123.06 161.29 123.91 Z M 160.90 124.83 L 160.50 125.74 C 160.14 126.59 160.52 127.57 161.37 127.93 C 162.21 128.30 163.19 127.91 163.56 127.07 L 163.95 126.16 C 164.32 125.31 163.93 124.33 163.09 123.96 C 162.25 123.60 161.27 123.98 160.90 124.83 Z M 160.51 125.73 L 160.11 126.64 C 159.73 127.48 160.11 128.47 160.95 128.84 C 161.79 129.21 162.78 128.83 163.15 127.99 L 163.55 127.08 C 163.92 126.24 163.54 125.26 162.70 124.89 C 161.86 124.51 160.88 124.89 160.51 125.73 Z M 160.11 126.64 L 159.70 127.55 C 159.32 128.38 159.70 129.37 160.53 129.74 C 161.37 130.12 162.35 129.75 162.73 128.91 L 163.14 128.00 C 163.52 127.16 163.15 126.18 162.31 125.80 C 161.47 125.43 160.49 125.80 160.11 126.64 Z M 159.71 127.54 L 159.29 128.45 C 158.91 129.29 159.28 130.27 160.11 130.65 C 160.95 131.03 161.93 130.66 162.31 129.83 L 162.73 128.92 C 163.11 128.08 162.74 127.10 161.91 126.72 C 161.07 126.34 160.09 126.71 159.71 127.54 Z M 159.29 128.45 L 158.88 129.35 C 158.49 130.19 158.86 131.17 159.69 131.55 C 160.52 131.94 161.51 131.57 161.89 130.74 L 162.31 129.84 C 162.69 129.00 162.33 128.02 161.49 127.64 C 160.66 127.25 159.68 127.62 159.29 128.45 Z M 158.88 129.35 L 158.46 130.25 C 158.08 131.08 158.44 132.07 159.27 132.45 C 160.10 132.84 161.08 132.48 161.47 131.65 L 161.89 130.74 C 162.27 129.91 161.91 128.93 161.08 128.54 C 160.25 128.16 159.26 128.52 158.88 129.35 Z M 158.46 130.25 L 158.04 131.16 C 157.66 131.99 158.01 132.97 158.84 133.36 C 159.67 133.74 160.65 133.38 161.04 132.56 L 161.46 131.65 C 161.85 130.82 161.49 129.84 160.66 129.45 C 159.83 129.06 158.85 129.42 158.46 130.25 Z M 158.04 131.16 L 157.62 132.07 C 157.23 132.89 157.59 133.88 158.42 134.26 C 159.24 134.65 160.23 134.29 160.61 133.47 L 161.04 132.56 C 161.43 131.73 161.07 130.75 160.24 130.36 C 159.41 129.97 158.43 130.33 158.04 131.16 Z M 157.62 132.07 L 157.19 132.98 C 156.81 133.80 157.16 134.79 157.99 135.17 C 158.81 135.56 159.80 135.20 160.18 134.38 L 160.61 133.47 C 161.00 132.64 160.64 131.66 159.82 131.27 C 158.99 130.88 158.01 131.24 157.62 132.07 Z M 157.20 132.98 L 156.77 133.88 C 156.39 134.71 156.74 135.69 157.56 136.07 C 158.39 136.46 159.37 136.11 159.76 135.28 L 160.18 134.38 C 160.57 133.55 160.21 132.57 159.39 132.18 C 158.56 131.80 157.58 132.15 157.20 132.98 Z M 156.78 133.88 L 156.35 134.79 C 155.96 135.61 156.32 136.59 157.14 136.97 C 157.96 137.36 158.94 137.01 159.33 136.19 L 159.75 135.28 C 160.14 134.46 159.79 133.48 158.97 133.09 C 158.14 132.71 157.16 133.06 156.78 133.88 Z M 156.36 134.78 L 155.93 135.69 C 155.54 136.51 155.89 137.49 156.71 137.87 C 157.53 138.26 158.51 137.91 158.90 137.09 L 159.32 136.19 C 159.71 135.37 159.36 134.39 158.54 134.00 C 157.72 133.61 156.74 133.96 156.36 134.78 Z M 155.93 135.68 L 155.50 136.59 C 155.11 137.40 155.46 138.38 156.28 138.77 C 157.09 139.16 158.07 138.82 158.46 138.00 L 158.89 137.10 C 159.28 136.28 158.94 135.30 158.12 134.91 C 157.30 134.52 156.32 134.87 155.93 135.68 Z M 155.51 136.58 L 155.07 137.49 C 154.68 138.30 155.02 139.28 155.83 139.67 C 156.65 140.06 157.63 139.72 158.02 138.91 L 158.46 138.00 C 158.85 137.19 158.51 136.21 157.69 135.82 C 156.88 135.43 155.90 135.77 155.51 136.58 Z M 155.08 137.48 L 154.63 138.39 C 154.24 139.20 154.57 140.18 155.38 140.57 C 156.20 140.97 157.17 140.63 157.57 139.82 L 158.01 138.91 C 158.41 138.10 158.07 137.13 157.26 136.73 C 156.45 136.33 155.47 136.67 155.08 137.48 Z M 154.64 138.39 L 154.20 139.29 C 153.80 140.10 154.13 141.07 154.94 141.47 C 155.75 141.87 156.72 141.53 157.12 140.73 L 157.56 139.82 C 157.96 139.02 157.63 138.04 156.82 137.64 C 156.01 137.24 155.04 137.58 154.64 138.39 Z M 154.20 139.29 L 153.76 140.19 C 153.36 140.99 153.69 141.97 154.50 142.36 C 155.30 142.76 156.28 142.43 156.68 141.62 L 157.12 140.73 C 157.51 139.92 157.18 138.94 156.38 138.55 C 155.57 138.15 154.59 138.48 154.20 139.29 Z M 153.76 140.19 L 153.32 141.08 C 152.93 141.89 153.26 142.86 154.07 143.25 C 154.87 143.65 155.85 143.31 156.24 142.51 L 156.67 141.62 C 157.07 140.81 156.73 139.84 155.93 139.45 C 155.12 139.05 154.15 139.39 153.76 140.19 Z M 153.32 141.09 L 152.89 141.99 C 152.50 142.80 152.84 143.77 153.64 144.15 C 154.45 144.54 155.41 144.21 155.80 143.40 L 156.24 142.50 C 156.63 141.69 156.29 140.73 155.49 140.34 C 154.68 139.95 153.71 140.29 153.32 141.09 Z M 152.89 142.00 L 152.46 142.91 C 152.07 143.72 152.41 144.68 153.22 145.06 C 154.02 145.45 154.98 145.11 155.37 144.30 L 155.80 143.39 C 156.18 142.59 155.84 141.63 155.04 141.24 C 154.24 140.86 153.27 141.20 152.89 142.00 Z M 152.46 142.92 L 152.03 143.82 C 151.65 144.62 151.99 145.58 152.79 145.96 C 153.59 146.34 154.55 146.00 154.93 145.20 L 155.36 144.30 C 155.74 143.50 155.40 142.54 154.60 142.16 C 153.80 141.77 152.84 142.12 152.46 142.92 Z M 152.04 143.82 L 151.61 144.71 C 151.23 145.51 151.57 146.47 152.37 146.85 C 153.17 147.23 154.12 146.89 154.50 146.09 L 154.93 145.20 C 155.31 144.40 154.97 143.44 154.17 143.06 C 153.37 142.68 152.42 143.02 152.04 143.82 Z M 151.62 144.71 L 151.18 145.61 C 150.80 146.41 151.14 147.36 151.93 147.74 C 152.73 148.12 153.68 147.79 154.06 146.99 L 154.49 146.09 C 154.88 145.30 154.54 144.35 153.75 143.97 C 152.95 143.58 152.00 143.92 151.62 144.71 Z M 151.19 145.61 L 150.73 146.55 C 150.35 147.34 150.68 148.29 151.47 148.67 C 152.25 149.06 153.21 148.73 153.59 147.94 L 154.05 147.00 C 154.44 146.21 154.11 145.26 153.32 144.88 C 152.53 144.49 151.58 144.82 151.19 145.61 Z M 150.74 146.54 L 150.29 147.46 C 149.90 148.25 150.22 149.20 151.00 149.59 C 151.78 149.97 152.73 149.65 153.12 148.87 L 153.58 147.95 C 153.97 147.17 153.65 146.22 152.87 145.83 C 152.08 145.44 151.13 145.76 150.74 146.54 Z M 150.30 147.46 L 149.85 148.34 C 149.46 149.12 149.77 150.07 150.55 150.46 C 151.33 150.85 152.27 150.54 152.67 149.76 L 153.11 148.88 C 153.50 148.10 153.19 147.15 152.41 146.76 C 151.64 146.37 150.69 146.68 150.30 147.46 Z M 149.86 148.33 L 149.44 149.16 C 149.04 149.93 149.35 150.88 150.12 151.28 C 150.89 151.67 151.83 151.37 152.23 150.60 L 152.65 149.77 C 153.05 149.00 152.75 148.05 151.98 147.66 C 151.21 147.26 150.26 147.56 149.86 148.33 Z M 149.45 149.15 L 148.98 150.05 C 148.57 150.81 148.86 151.76 149.63 152.16 C 150.39 152.56 151.33 152.27 151.74 151.51 L 152.21 150.61 C 152.62 149.85 152.33 148.90 151.56 148.50 C 150.80 148.10 149.86 148.39 149.45 149.15 Z M 149.00 150.02 L 148.53 150.87 C 148.11 151.62 148.37 152.56 149.12 152.98 C 149.87 153.40 150.81 153.14 151.23 152.39 L 151.71 151.54 C 152.13 150.79 151.86 149.85 151.12 149.43 C 150.37 149.01 149.42 149.28 149.00 150.02 Z M 148.56 150.83 L 148.05 151.66 C 147.61 152.39 147.84 153.34 148.56 153.78 C 149.29 154.23 150.24 154.00 150.68 153.27 L 151.19 152.44 C 151.64 151.71 151.41 150.76 150.68 150.32 C 149.96 149.87 149.01 150.10 148.56 150.83 Z M 148.09 151.62 L 147.55 152.43 C 147.08 153.13 147.27 154.08 147.97 154.55 C 148.68 155.02 149.63 154.83 150.10 154.13 L 150.64 153.32 C 151.11 152.62 150.92 151.67 150.22 151.20 C 149.52 150.73 148.56 150.91 148.09 151.62 Z M 147.59 152.39 L 147.03 153.17 C 146.54 153.85 146.70 154.81 147.38 155.30 C 148.06 155.79 149.02 155.63 149.51 154.94 L 150.06 154.17 C 150.55 153.48 150.40 152.53 149.71 152.04 C 149.03 151.55 148.08 151.71 147.59 152.39 Z M 147.05 153.15 L 146.45 153.96 C 145.95 154.63 146.09 155.58 146.76 156.08 C 147.43 156.58 148.38 156.44 148.88 155.77 L 149.48 154.96 C 149.98 154.29 149.84 153.34 149.17 152.84 C 148.50 152.34 147.55 152.48 147.05 153.15 Z M 146.46 153.95 L 145.83 154.78 C 145.33 155.44 145.46 156.39 146.12 156.89 C 146.78 157.40 147.73 157.27 148.23 156.61 L 148.86 155.78 C 149.37 155.12 149.24 154.17 148.58 153.67 C 147.92 153.16 146.97 153.29 146.46 153.95 Z M 145.84 154.78 L 145.43 155.32 C 144.92 155.97 145.05 156.92 145.71 157.42 C 146.36 157.93 147.31 157.80 147.81 157.15 L 148.22 156.61 C 148.73 155.95 148.61 155.01 147.95 154.50 C 147.29 154.00 146.35 154.12 145.84 154.78 Z"
      fill="black"
      fill-rule="nonzero" /><path d="M 161.46 128.15 L 161.81 129.14 C 162.08 129.93 162.94 130.35 163.73 130.08 C 164.51 129.81 164.93 128.95 164.66 128.16 L 164.32 127.16 C 164.05 126.38 163.19 125.96 162.40 126.23 C 161.61 126.50 161.19 127.36 161.46 128.15 Z M 161.81 129.14 L 162.14 130.12 C 162.41 130.91 163.27 131.33 164.06 131.06 C 164.85 130.79 165.27 129.94 165.00 129.15 L 164.67 128.17 C 164.40 127.38 163.54 126.95 162.75 127.22 C 161.96 127.49 161.54 128.35 161.81 129.14 Z M 162.14 130.11 L 162.45 131.06 C 162.72 131.85 163.57 132.28 164.36 132.01 C 165.16 131.75 165.58 130.89 165.32 130.10 L 165.00 129.15 C 164.74 128.36 163.88 127.93 163.09 128.20 C 162.30 128.46 161.87 129.32 162.14 130.11 Z M 162.45 131.04 L 162.74 131.94 C 163.00 132.73 163.85 133.17 164.64 132.91 C 165.44 132.65 165.87 131.80 165.61 131.00 L 165.32 130.11 C 165.06 129.32 164.21 128.88 163.42 129.14 C 162.62 129.40 162.19 130.25 162.45 131.04 Z M 162.73 131.92 L 163.03 132.91 C 163.28 133.71 164.13 134.16 164.93 133.91 C 165.73 133.66 166.18 132.81 165.93 132.02 L 165.62 131.02 C 165.37 130.22 164.53 129.78 163.73 130.02 C 162.93 130.27 162.48 131.12 162.73 131.92 Z M 163.02 132.89 L 163.31 133.86 C 163.55 134.66 164.39 135.12 165.20 134.88 C 166.00 134.65 166.46 133.80 166.23 132.99 L 165.94 132.03 C 165.70 131.23 164.86 130.77 164.05 131.00 C 163.24 131.24 162.78 132.09 163.02 132.89 Z M 163.30 133.86 L 163.57 134.77 C 163.81 135.59 164.66 136.05 165.47 135.81 C 166.28 135.57 166.74 134.72 166.50 133.91 L 166.24 132.99 C 166.00 132.18 165.15 131.72 164.34 131.96 C 163.53 132.19 163.06 133.04 163.30 133.86 Z M 163.56 134.79 L 163.84 135.71 C 164.09 136.53 164.95 136.98 165.76 136.74 C 166.58 136.49 167.04 135.63 166.79 134.82 L 166.51 133.90 C 166.26 133.08 165.40 132.62 164.59 132.87 C 163.78 133.12 163.32 133.98 163.56 134.79 Z M 163.85 135.75 L 164.16 136.69 C 164.42 137.50 165.30 137.95 166.11 137.68 C 166.92 137.41 167.37 136.53 167.10 135.72 L 166.79 134.78 C 166.52 133.97 165.64 133.53 164.83 133.79 C 164.02 134.06 163.58 134.94 163.85 135.75 Z M 164.17 136.75 L 164.52 137.69 C 164.82 138.50 165.71 138.91 166.52 138.61 C 167.33 138.31 167.74 137.41 167.44 136.61 L 167.09 135.66 C 166.79 134.86 165.89 134.45 165.08 134.75 C 164.28 135.05 163.87 135.94 164.17 136.75 Z M 164.54 137.77 L 164.94 138.71 C 165.29 139.50 166.21 139.87 167.00 139.52 C 167.80 139.18 168.17 138.26 167.82 137.46 L 167.42 136.53 C 167.07 135.73 166.15 135.37 165.36 135.71 C 164.56 136.05 164.19 136.98 164.54 137.77 Z M 164.98 138.80 L 165.44 139.71 C 165.84 140.48 166.79 140.79 167.57 140.39 C 168.34 139.99 168.64 139.04 168.25 138.27 L 167.78 137.36 C 167.39 136.59 166.44 136.28 165.66 136.68 C 164.89 137.08 164.58 138.03 164.98 138.80 Z M 165.50 139.82 L 166.03 140.67 C 166.49 141.41 167.46 141.65 168.20 141.19 C 168.94 140.73 169.17 139.76 168.72 139.02 L 168.19 138.16 C 167.73 137.42 166.76 137.19 166.02 137.65 C 165.28 138.10 165.05 139.07 165.50 139.82 Z M 166.11 140.79 L 166.70 141.58 C 167.22 142.27 168.21 142.41 168.91 141.89 C 169.61 141.36 169.75 140.37 169.22 139.68 L 168.64 138.89 C 168.11 138.20 167.12 138.06 166.42 138.58 C 165.72 139.11 165.58 140.10 166.11 140.79 Z M 166.81 141.71 L 167.49 142.43 C 168.09 143.07 169.09 143.09 169.73 142.49 C 170.36 141.89 170.39 140.89 169.79 140.26 L 169.11 139.54 C 168.51 138.90 167.51 138.87 166.87 139.48 C 166.24 140.08 166.21 141.08 166.81 141.71 Z M 167.63 142.56 L 168.39 143.19 C 169.06 143.75 170.06 143.66 170.62 142.98 C 171.18 142.31 171.09 141.31 170.41 140.75 L 169.65 140.12 C 168.98 139.57 167.98 139.66 167.42 140.33 C 166.86 141.01 166.96 142.01 167.63 142.56 Z M 168.53 143.30 L 169.37 143.85 C 170.11 144.33 171.09 144.13 171.57 143.40 C 172.05 142.67 171.85 141.68 171.11 141.20 L 170.27 140.65 C 169.54 140.17 168.55 140.37 168.07 141.10 C 167.59 141.84 167.80 142.82 168.53 143.30 Z M 169.50 143.93 L 170.35 144.38 C 171.12 144.80 172.09 144.50 172.50 143.73 C 172.91 142.95 172.62 141.99 171.84 141.58 L 170.99 141.13 C 170.22 140.71 169.26 141.01 168.84 141.78 C 168.43 142.55 168.72 143.52 169.50 143.93 Z M 170.45 144.43 L 171.35 144.83 C 172.15 145.19 173.09 144.83 173.45 144.02 C 173.80 143.22 173.44 142.28 172.64 141.93 L 171.74 141.53 C 170.94 141.17 170.00 141.54 169.64 142.34 C 169.29 143.14 169.65 144.08 170.45 144.43 Z M 171.44 144.87 L 172.40 145.23 C 173.22 145.53 174.14 145.11 174.44 144.29 C 174.75 143.47 174.33 142.55 173.51 142.24 L 172.55 141.89 C 171.73 141.58 170.81 142.00 170.50 142.83 C 170.20 143.65 170.62 144.57 171.44 144.87 Z M 172.48 145.25 L 173.47 145.56 C 174.31 145.82 175.20 145.35 175.46 144.51 C 175.72 143.67 175.25 142.78 174.41 142.52 L 173.42 142.22 C 172.59 141.96 171.69 142.42 171.43 143.26 C 171.17 144.10 171.64 144.99 172.48 145.25 Z M 173.54 145.58 L 174.51 145.83 C 175.36 146.05 176.22 145.54 176.44 144.69 C 176.66 143.84 176.15 142.98 175.31 142.75 L 174.34 142.50 C 173.49 142.28 172.62 142.79 172.40 143.64 C 172.18 144.49 172.69 145.36 173.54 145.58 Z M 174.57 145.84 L 175.56 146.05 C 176.42 146.24 177.26 145.69 177.44 144.83 C 177.62 143.98 177.08 143.14 176.22 142.95 L 175.24 142.74 C 174.38 142.56 173.54 143.10 173.36 143.96 C 173.17 144.82 173.72 145.66 174.57 145.84 Z M 175.63 146.06 L 176.61 146.23 C 177.48 146.38 178.29 145.80 178.44 144.94 C 178.59 144.08 178.01 143.26 177.15 143.11 L 176.16 142.94 C 175.30 142.80 174.48 143.38 174.33 144.24 C 174.19 145.10 174.76 145.92 175.63 146.06 Z M 176.68 146.24 L 177.69 146.36 C 178.55 146.47 179.34 145.86 179.45 145.00 C 179.56 144.13 178.94 143.34 178.08 143.23 L 177.08 143.11 C 176.21 143.00 175.42 143.61 175.32 144.47 C 175.21 145.34 175.82 146.13 176.68 146.24 Z M 177.75 146.36 L 178.77 146.45 C 179.63 146.52 180.39 145.88 180.46 145.01 C 180.53 144.15 179.89 143.39 179.03 143.32 L 178.02 143.24 C 177.15 143.16 176.39 143.80 176.32 144.67 C 176.25 145.53 176.89 146.29 177.75 146.36 Z M 178.82 146.44 L 179.81 146.49 C 180.67 146.53 181.40 145.87 181.45 145.01 C 181.49 144.15 180.83 143.42 179.97 143.38 L 178.98 143.33 C 178.12 143.28 177.39 143.95 177.34 144.80 C 177.30 145.66 177.96 146.40 178.82 146.44 Z M 179.85 146.48 L 180.82 146.51 C 181.68 146.53 182.39 145.86 182.41 145.00 C 182.44 144.15 181.76 143.44 180.91 143.41 L 179.94 143.39 C 179.08 143.36 178.37 144.04 178.35 144.89 C 178.32 145.74 178.99 146.46 179.85 146.48 Z M 180.85 146.50 L 181.81 146.51 C 182.66 146.52 183.36 145.84 183.37 144.99 C 183.38 144.15 182.70 143.45 181.85 143.44 L 180.89 143.43 C 180.04 143.42 179.34 144.09 179.33 144.94 C 179.32 145.79 180.00 146.49 180.85 146.50 Z M 181.86 146.49 L 182.83 146.48 C 183.67 146.46 184.34 145.77 184.33 144.93 C 184.31 144.09 183.62 143.42 182.78 143.44 L 181.81 143.45 C 180.97 143.47 180.30 144.16 180.31 145.00 C 180.33 145.84 181.02 146.51 181.86 146.49 Z M 182.91 146.46 L 183.91 146.39 C 184.74 146.33 185.37 145.62 185.31 144.79 C 185.26 143.96 184.54 143.33 183.72 143.39 L 182.71 143.46 C 181.88 143.51 181.25 144.23 181.31 145.06 C 181.36 145.88 182.08 146.51 182.91 146.46 Z M 184.00 146.37 L 185.01 146.24 C 185.82 146.13 186.40 145.39 186.30 144.58 C 186.19 143.76 185.45 143.18 184.63 143.29 L 183.63 143.41 C 182.81 143.52 182.24 144.26 182.34 145.08 C 182.44 145.89 183.19 146.47 184.00 146.37 Z M 185.08 146.21 L 186.02 146.05 C 186.82 145.90 187.35 145.14 187.21 144.34 C 187.07 143.53 186.30 143.00 185.50 143.14 L 184.56 143.31 C 183.76 143.45 183.23 144.22 183.37 145.02 C 183.51 145.82 184.28 146.36 185.08 146.21 Z M 186.06 146.03 L 187.04 145.82 C 187.83 145.65 188.34 144.88 188.17 144.09 C 188.00 143.30 187.23 142.79 186.44 142.96 L 185.46 143.16 C 184.67 143.33 184.16 144.11 184.33 144.90 C 184.50 145.69 185.27 146.19 186.06 146.03 Z M 187.07 145.80 L 188.07 145.57 C 188.85 145.39 189.34 144.61 189.16 143.83 C 188.98 143.05 188.20 142.56 187.42 142.74 L 186.41 142.97 C 185.63 143.16 185.14 143.93 185.33 144.72 C 185.51 145.50 186.29 145.98 187.07 145.80 Z M 188.08 145.55 L 189.03 145.33 C 189.80 145.14 190.27 144.36 190.09 143.59 C 189.90 142.82 189.13 142.34 188.35 142.53 L 187.41 142.76 C 186.63 142.94 186.16 143.72 186.34 144.49 C 186.53 145.26 187.31 145.74 188.08 145.55 Z"
      fill="black"
      fill-rule="nonzero" /><path d="M 154.97 149.82 L 155.02 150.95 C 155.06 151.83 155.80 152.50 156.67 152.46 C 157.54 152.42 158.21 151.68 158.17 150.80 L 158.12 149.67 C 158.08 148.80 157.34 148.13 156.47 148.17 C 155.60 148.21 154.92 148.95 154.97 149.82 Z M 155.02 150.98 L 155.09 152.08 C 155.14 152.95 155.90 153.61 156.77 153.56 C 157.64 153.50 158.30 152.75 158.25 151.88 L 158.18 150.78 C 158.12 149.91 157.37 149.24 156.49 149.30 C 155.62 149.36 154.96 150.11 155.02 150.98 Z M 155.09 152.14 L 155.20 153.17 C 155.29 154.04 156.06 154.68 156.94 154.59 C 157.81 154.50 158.44 153.72 158.35 152.85 L 158.24 151.82 C 158.15 150.94 157.38 150.31 156.51 150.40 C 155.63 150.49 155.00 151.27 155.09 152.14 Z M 155.21 153.28 L 155.37 154.21 C 155.51 155.07 156.33 155.65 157.20 155.51 C 158.06 155.36 158.64 154.54 158.50 153.68 L 158.34 152.74 C 158.19 151.88 157.37 151.30 156.51 151.44 C 155.64 151.59 155.06 152.41 155.21 153.28 Z M 155.40 154.38 L 155.63 155.18 C 155.87 156.02 156.75 156.51 157.60 156.27 C 158.44 156.03 158.93 155.15 158.69 154.30 L 158.46 153.50 C 158.22 152.66 157.34 152.17 156.49 152.41 C 155.65 152.65 155.16 153.53 155.40 154.38 Z M 155.77 155.51 L 156.24 156.36 C 156.66 157.13 157.63 157.41 158.40 156.99 C 159.17 156.57 159.45 155.60 159.02 154.83 L 158.55 153.98 C 158.13 153.21 157.16 152.93 156.40 153.35 C 155.63 153.77 155.35 154.74 155.77 155.51 Z M 156.59 156.79 L 157.30 157.41 C 157.95 157.98 158.95 157.91 159.53 157.26 C 160.10 156.60 160.03 155.60 159.38 155.03 L 158.67 154.41 C 158.01 153.83 157.02 153.90 156.44 154.56 C 155.87 155.22 155.93 156.21 156.59 156.79 Z M 157.71 157.65 L 158.60 158.04 C 159.39 158.39 160.32 158.03 160.66 157.24 C 161.01 156.44 160.65 155.52 159.86 155.17 L 158.97 154.78 C 158.17 154.43 157.25 154.79 156.90 155.59 C 156.55 156.38 156.91 157.31 157.71 157.65 Z M 158.84 158.11 L 159.82 158.36 C 160.66 158.58 161.50 158.07 161.72 157.24 C 161.93 156.41 161.43 155.56 160.59 155.35 L 159.61 155.10 C 158.78 154.89 157.93 155.39 157.72 156.22 C 157.51 157.05 158.01 157.90 158.84 158.11 Z M 159.93 158.37 L 160.89 158.55 C 161.73 158.70 162.53 158.15 162.69 157.31 C 162.84 156.48 162.29 155.68 161.45 155.52 L 160.49 155.34 C 159.65 155.19 158.85 155.74 158.69 156.58 C 158.54 157.41 159.09 158.22 159.93 158.37 Z M 160.96 158.54 L 161.97 158.68 C 162.80 158.80 163.57 158.22 163.69 157.39 C 163.81 156.56 163.23 155.79 162.40 155.67 L 161.39 155.53 C 160.56 155.41 159.79 155.99 159.67 156.82 C 159.55 157.65 160.13 158.42 160.96 158.54 Z M 162.02 158.67 L 163.04 158.78 C 163.86 158.87 164.60 158.28 164.69 157.46 C 164.78 156.63 164.19 155.89 163.37 155.80 L 162.35 155.69 C 161.53 155.60 160.79 156.19 160.70 157.01 C 160.61 157.83 161.20 158.57 162.02 158.67 Z M 163.07 158.76 L 164.09 158.85 C 164.91 158.92 165.62 158.32 165.69 157.51 C 165.76 156.70 165.16 155.98 164.35 155.91 L 163.33 155.82 C 162.52 155.75 161.80 156.35 161.73 157.16 C 161.66 157.98 162.26 158.69 163.07 158.76 Z M 164.12 158.84 L 165.16 158.91 C 165.97 158.96 166.67 158.35 166.72 157.55 C 166.77 156.74 166.17 156.05 165.36 155.99 L 164.32 155.92 C 163.51 155.87 162.82 156.48 162.76 157.28 C 162.71 158.09 163.32 158.78 164.12 158.84 Z M 165.19 158.90 L 166.17 158.95 C 166.97 158.99 167.66 158.37 167.70 157.58 C 167.74 156.78 167.12 156.10 166.32 156.05 L 165.34 156.00 C 164.54 155.96 163.86 156.58 163.81 157.38 C 163.77 158.17 164.39 158.86 165.19 158.90 Z M 166.19 158.94 L 167.15 158.98 C 167.94 159.01 168.61 158.39 168.64 157.60 C 168.68 156.81 168.06 156.14 167.27 156.11 L 166.31 156.07 C 165.52 156.03 164.85 156.65 164.81 157.44 C 164.78 158.23 165.40 158.90 166.19 158.94 Z M 167.15 158.97 L 167.47 158.98 C 168.26 159.01 168.92 158.40 168.95 157.61 C 168.98 156.82 168.37 156.16 167.58 156.13 L 167.26 156.11 C 166.48 156.08 165.81 156.70 165.78 157.49 C 165.75 158.27 166.36 158.94 167.15 158.97 Z"
      fill="black"
      fill-rule="nonzero" /><path d="M 161.06 171.05 L 160.65 171.96 C 160.28 172.75 160.63 173.69 161.43 174.05 C 162.22 174.41 163.16 174.06 163.52 173.27 L 163.93 172.36 C 164.29 171.57 163.94 170.63 163.15 170.27 C 162.36 169.91 161.42 170.26 161.06 171.05 Z M 160.63 171.99 L 160.24 172.91 C 159.89 173.71 160.27 174.64 161.07 174.98 C 161.87 175.33 162.80 174.96 163.14 174.15 L 163.53 173.24 C 163.88 172.44 163.50 171.51 162.70 171.16 C 161.90 170.82 160.97 171.19 160.63 171.99 Z M 160.21 172.98 L 159.86 173.92 C 159.55 174.73 159.97 175.64 160.79 175.95 C 161.61 176.25 162.51 175.84 162.82 175.02 L 163.17 174.08 C 163.47 173.27 163.06 172.36 162.24 172.05 C 161.42 171.75 160.51 172.16 160.21 172.98 Z M 159.82 174.02 L 159.54 174.99 C 159.29 175.82 159.77 176.70 160.61 176.95 C 161.45 177.20 162.33 176.72 162.57 175.88 L 162.86 174.92 C 163.10 174.08 162.62 173.20 161.79 172.95 C 160.95 172.71 160.07 173.19 159.82 174.02 Z M 159.50 175.11 L 159.30 176.10 C 159.12 176.96 159.68 177.79 160.53 177.97 C 161.39 178.15 162.23 177.60 162.40 176.74 L 162.61 175.75 C 162.78 174.90 162.23 174.06 161.38 173.88 C 160.52 173.70 159.68 174.26 159.50 175.11 Z M 159.27 176.22 L 159.15 177.22 C 159.04 178.09 159.65 178.89 160.52 179.00 C 161.39 179.11 162.19 178.49 162.30 177.62 L 162.43 176.62 C 162.54 175.75 161.93 174.95 161.05 174.84 C 160.18 174.73 159.39 175.35 159.27 176.22 Z M 159.13 177.33 L 159.07 178.32 C 159.02 179.20 159.70 179.96 160.58 180.01 C 161.46 180.06 162.21 179.39 162.26 178.51 L 162.32 177.51 C 162.37 176.63 161.70 175.88 160.82 175.82 C 159.94 175.77 159.18 176.45 159.13 177.33 Z M 159.06 178.43 L 159.07 179.43 C 159.08 180.31 159.81 181.02 160.69 181.01 C 161.58 181.00 162.29 180.28 162.28 179.39 L 162.27 178.40 C 162.26 177.51 161.54 176.80 160.65 176.81 C 159.77 176.82 159.06 177.55 159.06 178.43 Z M 159.08 179.56 L 159.17 180.56 C 159.25 181.44 160.03 182.09 160.91 182.01 C 161.80 181.93 162.45 181.15 162.37 180.27 L 162.28 179.26 C 162.20 178.38 161.42 177.73 160.53 177.81 C 159.65 177.89 159.00 178.67 159.08 179.56 Z M 159.19 180.73 L 159.39 181.70 C 159.56 182.57 160.41 183.13 161.28 182.95 C 162.15 182.78 162.71 181.93 162.54 181.06 L 162.34 180.09 C 162.17 179.22 161.32 178.66 160.45 178.84 C 159.58 179.01 159.02 179.86 159.19 180.73 Z M 159.44 181.90 L 159.77 182.84 C 160.05 183.68 160.97 184.13 161.81 183.84 C 162.65 183.55 163.09 182.64 162.81 181.80 L 162.48 180.86 C 162.20 180.02 161.28 179.57 160.44 179.86 C 159.60 180.15 159.16 181.06 159.44 181.90 Z M 159.85 183.04 L 160.28 183.89 C 160.68 184.69 161.65 185.00 162.44 184.60 C 163.23 184.20 163.55 183.24 163.15 182.45 L 162.72 181.59 C 162.32 180.80 161.35 180.48 160.56 180.88 C 159.77 181.28 159.45 182.25 159.85 183.04 Z M 160.38 184.06 L 160.92 184.87 C 161.42 185.61 162.41 185.81 163.15 185.31 C 163.89 184.82 164.09 183.82 163.59 183.09 L 163.05 182.28 C 162.56 181.54 161.56 181.34 160.82 181.83 C 160.09 182.33 159.89 183.33 160.38 184.06 Z M 161.03 185.01 L 161.68 185.79 C 162.24 186.47 163.26 186.56 163.94 185.99 C 164.62 185.42 164.71 184.41 164.14 183.73 L 163.49 182.95 C 162.92 182.27 161.91 182.18 161.23 182.75 C 160.55 183.32 160.46 184.33 161.03 185.01 Z M 161.78 185.90 L 162.53 186.64 C 163.16 187.26 164.18 187.25 164.80 186.62 C 165.42 185.99 165.41 184.97 164.78 184.35 L 164.03 183.61 C 163.40 182.99 162.39 183.00 161.76 183.63 C 161.14 184.26 161.15 185.28 161.78 185.90 Z M 162.63 186.72 L 163.36 187.33 C 164.04 187.90 165.05 187.80 165.62 187.12 C 166.18 186.44 166.09 185.43 165.41 184.87 L 164.68 184.26 C 164.00 183.70 162.99 183.79 162.42 184.47 C 161.86 185.15 161.95 186.16 162.63 186.72 Z M 163.46 187.40 L 164.24 187.96 C 164.95 188.47 165.95 188.30 166.46 187.59 C 166.98 186.87 166.81 185.87 166.09 185.36 L 165.31 184.80 C 164.60 184.29 163.60 184.45 163.09 185.17 C 162.57 185.89 162.74 186.89 163.46 187.40 Z M 164.33 188.01 L 165.17 188.53 C 165.92 189.00 166.90 188.77 167.36 188.02 C 167.83 187.27 167.60 186.29 166.85 185.83 L 166.00 185.30 C 165.25 184.84 164.27 185.07 163.81 185.82 C 163.35 186.57 163.58 187.55 164.33 188.01 Z M 165.26 188.58 L 166.17 189.07 C 166.95 189.49 167.91 189.20 168.32 188.43 C 168.74 187.66 168.45 186.69 167.68 186.28 L 166.76 185.78 C 165.99 185.37 165.03 185.66 164.61 186.43 C 164.20 187.20 164.49 188.16 165.26 188.58 Z M 166.25 189.10 L 167.20 189.55 C 167.99 189.93 168.93 189.59 169.30 188.80 C 169.68 188.01 169.34 187.07 168.55 186.69 L 167.60 186.25 C 166.81 185.87 165.87 186.21 165.50 187.00 C 165.12 187.79 165.46 188.73 166.25 189.10 Z M 167.26 189.57 L 168.14 189.94 C 168.94 190.28 169.86 189.90 170.20 189.10 C 170.54 188.30 170.16 187.38 169.36 187.04 L 168.48 186.67 C 167.68 186.33 166.76 186.71 166.42 187.51 C 166.09 188.31 166.46 189.24 167.26 189.57 Z M 168.20 189.96 L 169.12 190.30 C 169.93 190.60 170.83 190.19 171.13 189.38 C 171.44 188.57 171.02 187.67 170.22 187.37 L 169.30 187.02 C 168.49 186.72 167.58 187.13 167.28 187.94 C 166.98 188.75 167.39 189.66 168.20 189.96 Z M 169.19 190.31 L 170.15 190.62 C 170.96 190.89 171.84 190.44 172.11 189.63 C 172.37 188.81 171.92 187.93 171.11 187.67 L 170.15 187.35 C 169.33 187.09 168.45 187.54 168.19 188.35 C 167.92 189.17 168.37 190.05 169.19 190.31 Z M 170.21 190.64 L 171.20 190.91 C 172.03 191.14 172.88 190.65 173.11 189.83 C 173.33 189.01 172.85 188.15 172.03 187.93 L 171.04 187.65 C 170.22 187.43 169.36 187.91 169.14 188.73 C 168.91 189.56 169.39 190.41 170.21 190.64 Z M 171.28 190.92 L 172.29 191.15 C 173.12 191.33 173.94 190.81 174.13 189.99 C 174.32 189.16 173.80 188.33 172.97 188.15 L 171.96 187.92 C 171.13 187.73 170.30 188.25 170.12 189.08 C 169.93 189.91 170.45 190.73 171.28 190.92 Z M 172.37 191.15 L 173.41 191.33 C 174.24 191.48 175.03 190.92 175.18 190.09 C 175.32 189.26 174.77 188.47 173.94 188.32 L 172.89 188.14 C 172.06 188.00 171.27 188.55 171.13 189.39 C 170.98 190.22 171.54 191.01 172.37 191.15 Z M 173.48 191.33 L 174.53 191.47 C 175.36 191.57 176.12 190.99 176.23 190.16 C 176.33 189.33 175.75 188.57 174.92 188.46 L 173.87 188.33 C 173.04 188.22 172.28 188.81 172.17 189.64 C 172.06 190.47 172.65 191.23 173.48 191.33 Z M 174.58 191.46 L 175.62 191.56 C 176.44 191.63 177.18 191.02 177.25 190.20 C 177.33 189.37 176.72 188.64 175.89 188.56 L 174.86 188.47 C 174.03 188.39 173.30 189.00 173.23 189.83 C 173.15 190.65 173.76 191.38 174.58 191.46 Z M 175.66 191.55 L 176.66 191.61 C 177.48 191.66 178.19 191.04 178.24 190.22 C 178.29 189.40 177.67 188.69 176.85 188.64 L 175.85 188.57 C 175.03 188.52 174.32 189.14 174.27 189.96 C 174.22 190.78 174.84 191.49 175.66 191.55 Z M 176.69 191.60 L 177.63 191.64 C 178.45 191.68 179.14 191.05 179.17 190.23 C 179.21 189.41 178.58 188.72 177.76 188.69 L 176.82 188.65 C 176.00 188.61 175.31 189.24 175.28 190.06 C 175.24 190.87 175.87 191.56 176.69 191.60 Z M 177.65 191.63 L 178.62 191.66 C 179.43 191.68 180.11 191.05 180.13 190.24 C 180.15 189.43 179.52 188.75 178.71 188.73 L 177.74 188.70 C 176.93 188.68 176.26 189.31 176.23 190.12 C 176.21 190.93 176.84 191.61 177.65 191.63 Z M 178.64 191.65 L 179.73 191.67 C 180.54 191.68 181.20 191.04 181.21 190.24 C 181.23 189.44 180.59 188.77 179.79 188.76 L 178.69 188.74 C 177.89 188.72 177.22 189.36 177.21 190.17 C 177.20 190.97 177.84 191.63 178.64 191.65 Z M 179.76 191.66 L 180.74 191.66 C 181.54 191.66 182.19 191.01 182.19 190.21 C 182.18 189.41 181.54 188.77 180.74 188.77 L 179.76 188.77 C 178.96 188.77 178.31 189.42 178.31 190.22 C 178.32 191.01 178.96 191.66 179.76 191.66 Z M 180.78 191.65 L 181.70 191.62 C 182.49 191.60 183.11 190.94 183.09 190.15 C 183.07 189.35 182.41 188.73 181.62 188.75 L 180.70 188.78 C 179.91 188.80 179.28 189.46 179.30 190.25 C 179.33 191.04 179.99 191.67 180.78 191.65 Z M 181.74 191.61 L 182.68 191.56 C 183.47 191.51 184.07 190.84 184.02 190.05 C 183.98 189.26 183.30 188.66 182.51 188.71 L 181.58 188.76 C 180.79 188.81 180.19 189.48 180.23 190.27 C 180.28 191.06 180.95 191.66 181.74 191.61 Z M 182.72 191.55 L 183.70 191.47 C 184.49 191.40 185.07 190.72 185.01 189.93 C 184.94 189.15 184.25 188.56 183.47 188.63 L 182.48 188.71 C 181.69 188.78 181.11 189.47 181.18 190.25 C 181.24 191.04 181.93 191.62 182.72 191.55 Z M 183.73 191.47 L 184.73 191.37 C 185.51 191.29 186.08 190.59 186.00 189.81 C 185.92 189.02 185.23 188.45 184.44 188.53 L 183.44 188.63 C 182.66 188.71 182.09 189.41 182.17 190.19 C 182.25 190.98 182.94 191.55 183.73 191.47 Z M 184.74 191.37 L 185.75 191.26 C 186.53 191.17 187.09 190.47 187.01 189.68 C 186.92 188.90 186.22 188.34 185.44 188.42 L 184.43 188.53 C 183.65 188.62 183.08 189.32 183.17 190.10 C 183.25 190.89 183.96 191.45 184.74 191.37 Z M 185.75 191.25 L 185.80 191.25 C 186.59 191.16 187.15 190.46 187.06 189.67 C 186.98 188.89 186.27 188.33 185.49 188.42 L 185.43 188.42 C 184.65 188.51 184.09 189.21 184.18 190.00 C 184.26 190.78 184.97 191.34 185.75 191.25 Z"
      fill="black"
      fill-rule="nonzero" /></svg>