<svg xmlns="http://www.w3.org/2000/svg" width="300" height="300" viewBox="0 0 300 300">
<path d="M 117.16 119.75 L 116.60 118.53 C 116.25 117.78 115.36 117.45 114.61 117.80 C 113.85 118.15 113.52 119.04 113.87 119.79 L 114.43 121.01 C 114.78 121.76 115.67 122.09 116.43 121.74 C 117.18 121.40 117.51 120.50 117.16 119.75 Z M 116.56 118.34 L 116.35 118.00 C 115.90 117.27 114.93 117.05 114.20 117.51 C 113.47 117.96 113.25 118.93 113.70 119.66 L 113.91 119.99 C 114.37 120.72 115.33 120.94 116.06 120.49 C 116.79 120.03 117.02 119.07 116.56 118.34 Z M 113.51 119.32 L 113.68 119.86 C 113.95 120.70 114.85 121.16 115.69 120.90 C 116.53 120.63 116.99 119.73 116.72 118.89 L 116.55 118.34 C 116.28 117.50 115.38 117.04 114.54 117.31 C 113.70 117.58 113.24 118.48 113.51 119.32 Z M 113.68 119.91 L 114.00 120.80 C 114.30 121.64 115.22 122.08 116.06 121.78 C 116.90 121.48 117.33 120.56 117.04 119.72 L 116.72 118.83 C 116.42 117.99 115.50 117.56 114.66 117.85 C 113.82 118.15 113.38 119.07 113.68 119.91 Z M 113.99 120.81 L 114.39 121.91 C 114.70 122.76 115.63 123.19 116.47 122.89 C 117.31 122.58 117.75 121.65 117.44 120.81 L 117.04 119.71 C 116.74 118.87 115.81 118.43 114.96 118.74 C 114.12 119.04 113.69 119.97 113.99 120.81 Z M 114.38 121.92 L 114.80 123.06 C 115.10 123.91 116.04 124.35 116.89 124.04 C 117.74 123.74 118.17 122.80 117.87 121.95 L 117.45 120.81 C 117.14 119.96 116.21 119.52 115.36 119.83 C 114.51 120.13 114.07 121.07 114.38 121.92 Z M 114.79 123.06 L 115.17 124.14 C 115.47 124.99 116.41 125.44 117.26 125.13 C 118.12 124.83 118.56 123.89 118.26 123.04 L 117.88 121.96 C 117.57 121.11 116.64 120.66 115.78 120.96 C 114.93 121.27 114.48 122.20 114.79 123.06 Z M 115.16 124.12 L 115.50 125.09 C 115.79 125.95 116.72 126.41 117.58 126.11 C 118.44 125.82 118.90 124.88 118.60 124.03 L 118.27 123.06 C 117.97 122.20 117.04 121.74 116.18 122.04 C 115.33 122.33 114.87 123.27 115.16 124.12 Z M 115.49 125.07 L 115.78 125.97 C 116.06 126.83 116.99 127.30 117.86 127.02 C 118.72 126.74 119.19 125.81 118.91 124.95 L 118.61 124.05 C 118.33 123.18 117.40 122.71 116.54 123.00 C 115.67 123.28 115.20 124.21 115.49 125.07 Z M 115.77 125.95 L 116.05 126.83 C 116.32 127.70 117.24 128.18 118.11 127.91 C 118.98 127.64 119.46 126.72 119.19 125.85 L 118.91 124.97 C 118.64 124.10 117.72 123.62 116.85 123.89 C 115.99 124.16 115.50 125.08 115.77 125.95 Z M 116.04 126.81 L 116.31 127.71 C 116.56 128.59 117.48 129.08 118.35 128.82 C 119.23 128.57 119.73 127.65 119.47 126.78 L 119.20 125.87 C 118.94 125.00 118.02 124.50 117.15 124.76 C 116.28 125.02 115.78 125.94 116.04 126.81 Z M 116.30 127.69 L 116.57 128.64 C 116.81 129.51 117.73 130.02 118.60 129.77 C 119.48 129.53 119.99 128.61 119.74 127.74 L 119.47 126.79 C 119.22 125.92 118.31 125.41 117.44 125.66 C 116.56 125.91 116.05 126.82 116.30 127.69 Z M 116.56 128.62 L 116.83 129.60 C 117.07 130.48 117.98 131.00 118.86 130.76 C 119.74 130.52 120.26 129.61 120.01 128.73 L 119.75 127.75 C 119.51 126.87 118.60 126.35 117.72 126.59 C 116.84 126.83 116.32 127.74 116.56 128.62 Z M 116.82 129.59 L 117.09 130.60 C 117.32 131.49 118.23 132.02 119.11 131.78 C 119.99 131.55 120.52 130.65 120.29 129.76 L 120.02 128.75 C 119.79 127.86 118.88 127.33 118.00 127.57 C 117.12 127.80 116.59 128.70 116.82 129.59 Z M 117.08 130.59 L 117.32 131.52 C 117.55 132.41 118.45 132.94 119.33 132.72 C 120.22 132.49 120.76 131.59 120.53 130.70 L 120.29 129.77 C 120.07 128.89 119.17 128.35 118.28 128.58 C 117.39 128.80 116.86 129.71 117.08 130.59 Z M 117.31 131.51 L 117.55 132.46 C 117.77 133.35 118.67 133.89 119.56 133.67 C 120.45 133.45 120.99 132.55 120.77 131.66 L 120.53 130.71 C 120.31 129.82 119.42 129.28 118.53 129.50 C 117.64 129.72 117.09 130.62 117.31 131.51 Z M 117.54 132.45 L 117.78 133.42 C 117.99 134.31 118.89 134.86 119.78 134.65 C 120.67 134.44 121.22 133.54 121.01 132.65 L 120.77 131.67 C 120.56 130.78 119.66 130.23 118.77 130.44 C 117.88 130.66 117.33 131.56 117.54 132.45 Z M 117.77 133.41 L 118.01 134.42 C 118.22 135.31 119.11 135.87 120.01 135.66 C 120.90 135.45 121.46 134.56 121.25 133.66 L 121.01 132.66 C 120.80 131.76 119.91 131.21 119.02 131.42 C 118.12 131.62 117.57 132.52 117.77 133.41 Z M 118.00 134.41 L 118.23 135.40 C 118.43 136.29 119.32 136.86 120.22 136.65 C 121.12 136.45 121.68 135.56 121.48 134.66 L 121.25 133.67 C 121.05 132.78 120.16 132.21 119.26 132.42 C 118.36 132.62 117.80 133.51 118.00 134.41 Z M 118.22 135.39 L 118.43 136.34 C 118.63 137.24 119.52 137.80 120.42 137.61 C 121.32 137.41 121.89 136.52 121.69 135.62 L 121.48 134.67 C 121.28 133.77 120.39 133.20 119.49 133.40 C 118.59 133.60 118.03 134.49 118.22 135.39 Z M 118.43 136.33 L 118.64 137.30 C 118.83 138.20 119.72 138.77 120.62 138.58 C 121.52 138.39 122.09 137.50 121.90 136.60 L 121.69 135.63 C 121.50 134.73 120.61 134.15 119.71 134.35 C 118.81 134.54 118.24 135.43 118.43 136.33 Z M 118.63 137.29 L 118.84 138.28 C 119.03 139.18 119.92 139.76 120.82 139.57 C 121.73 139.38 122.30 138.49 122.11 137.59 L 121.90 136.60 C 121.71 135.70 120.83 135.12 119.92 135.31 C 119.02 135.50 118.44 136.39 118.63 137.29 Z M 118.84 138.28 L 119.05 139.28 C 119.24 140.18 120.12 140.76 121.03 140.58 C 121.93 140.39 122.51 139.50 122.32 138.60 L 122.12 137.59 C 121.93 136.69 121.04 136.11 120.14 136.30 C 119.23 136.49 118.65 137.37 118.84 138.28 Z M 119.05 139.28 L 119.25 140.26 C 119.44 141.17 120.32 141.75 121.23 141.57 C 122.13 141.38 122.72 140.50 122.53 139.59 L 122.33 138.60 C 122.14 137.70 121.26 137.11 120.35 137.30 C 119.44 137.48 118.86 138.37 119.05 139.28 Z M 119.25 140.26 L 119.44 141.21 C 119.62 142.12 120.51 142.70 121.42 142.52 C 122.32 142.34 122.91 141.45 122.73 140.54 L 122.53 139.59 C 122.35 138.69 121.46 138.10 120.56 138.28 C 119.65 138.47 119.06 139.35 119.25 140.26 Z M 119.44 141.21 L 119.63 142.17 C 119.81 143.08 120.70 143.67 121.61 143.49 C 122.51 143.30 123.10 142.42 122.92 141.51 L 122.73 140.55 C 122.55 139.64 121.66 139.05 120.75 139.23 C 119.84 139.41 119.26 140.30 119.44 141.21 Z M 119.63 142.17 L 119.82 143.14 C 120.00 144.05 120.88 144.65 121.79 144.47 C 122.70 144.29 123.30 143.40 123.12 142.49 L 122.92 141.52 C 122.74 140.60 121.86 140.01 120.95 140.19 C 120.04 140.37 119.45 141.25 119.63 142.17 Z M 119.82 143.14 L 120.01 144.14 C 120.19 145.05 121.07 145.64 121.98 145.47 C 122.89 145.29 123.49 144.41 123.31 143.50 L 123.12 142.50 C 122.94 141.59 122.06 140.99 121.15 141.17 C 120.24 141.34 119.64 142.23 119.82 143.14 Z M 120.01 144.13 L 120.20 145.15 C 120.37 146.07 121.25 146.67 122.17 146.49 C 123.08 146.32 123.68 145.44 123.51 144.53 L 123.32 143.51 C 123.14 142.59 122.26 141.99 121.35 142.16 C 120.44 142.34 119.84 143.22 120.01 144.13 Z M 120.20 145.15 L 120.37 146.09 C 120.54 147.00 121.42 147.61 122.33 147.44 C 123.25 147.27 123.85 146.39 123.69 145.47 L 123.51 144.53 C 123.34 143.62 122.46 143.01 121.55 143.18 C 120.63 143.35 120.03 144.23 120.20 145.15 Z M 120.37 146.08 L 120.54 147.03 C 120.71 147.94 121.58 148.55 122.50 148.39 C 123.42 148.22 124.03 147.34 123.86 146.43 L 123.69 145.48 C 123.52 144.56 122.64 143.96 121.73 144.12 C 120.81 144.29 120.20 145.16 120.37 146.08 Z M 120.54 147.02 L 120.71 147.99 C 120.87 148.91 121.75 149.52 122.67 149.36 C 123.59 149.19 124.20 148.32 124.03 147.40 L 123.86 146.43 C 123.70 145.51 122.82 144.90 121.90 145.07 C 120.99 145.23 120.38 146.10 120.54 147.02 Z M 120.71 147.99 L 120.88 148.98 C 121.04 149.89 121.92 150.51 122.84 150.35 C 123.76 150.19 124.37 149.31 124.21 148.39 L 124.04 147.40 C 123.87 146.48 123.00 145.87 122.08 146.03 C 121.16 146.19 120.55 147.07 120.71 147.99 Z M 120.88 148.97 L 121.06 149.99 C 121.22 150.90 122.09 151.52 123.01 151.36 C 123.93 151.20 124.55 150.33 124.39 149.41 L 124.21 148.39 C 124.05 147.47 123.18 146.86 122.26 147.02 C 121.34 147.18 120.72 148.05 120.88 148.97 Z M 121.05 149.98 L 121.23 151.02 C 121.39 151.94 122.27 152.56 123.19 152.40 C 124.11 152.24 124.73 151.36 124.57 150.44 L 124.39 149.41 C 124.23 148.49 123.36 147.87 122.43 148.03 C 121.51 148.19 120.90 149.06 121.05 149.98 Z M 121.23 151.02 L 121.40 152.01 C 121.56 152.93 122.44 153.55 123.36 153.39 C 124.28 153.23 124.90 152.36 124.74 151.44 L 124.57 150.45 C 124.41 149.52 123.54 148.90 122.61 149.06 C 121.69 149.22 121.07 150.10 121.23 151.02 Z M 121.40 152.01 L 121.57 152.98 C 121.72 153.90 122.60 154.52 123.52 154.37 C 124.44 154.21 125.06 153.33 124.91 152.41 L 124.74 151.44 C 124.58 150.52 123.71 149.90 122.79 150.05 C 121.86 150.21 121.24 151.09 121.40 152.01 Z M 121.57 152.98 L 121.73 153.97 C 121.89 154.89 122.76 155.51 123.69 155.36 C 124.61 155.20 125.23 154.32 125.08 153.40 L 124.91 152.41 C 124.75 151.49 123.88 150.87 122.95 151.03 C 122.03 151.18 121.41 152.06 121.57 152.98 Z M 121.73 153.96 L 121.90 154.96 C 122.05 155.88 122.93 156.51 123.85 156.35 C 124.78 156.20 125.40 155.32 125.24 154.40 L 125.08 153.40 C 124.92 152.48 124.05 151.85 123.12 152.01 C 122.20 152.16 121.58 153.04 121.73 153.96 Z M 121.89 154.95 L 122.06 155.95 C 122.21 156.88 123.09 157.50 124.01 157.35 C 124.94 157.20 125.56 156.32 125.41 155.40 L 125.25 154.40 C 125.09 153.47 124.22 152.85 123.29 153.00 C 122.37 153.15 121.74 154.03 121.89 154.95 Z M 122.06 155.95 L 122.22 156.94 C 122.37 157.87 123.24 158.50 124.17 158.35 C 125.10 158.20 125.73 157.32 125.58 156.40 L 125.41 155.40 C 125.26 154.47 124.39 153.85 123.46 154.00 C 122.54 154.15 121.91 155.02 122.06 155.95 Z M 122.22 156.94 L 122.38 157.93 C 122.52 158.86 123.40 159.49 124.32 159.34 C 125.25 159.19 125.88 158.32 125.74 157.39 L 125.58 156.40 C 125.43 155.47 124.56 154.84 123.63 154.99 C 122.70 155.14 122.07 156.01 122.22 156.94 Z M 122.37 157.92 L 122.53 158.93 C 122.67 159.86 123.54 160.49 124.47 160.35 C 125.40 160.20 126.04 159.33 125.89 158.40 L 125.74 157.40 C 125.59 156.47 124.72 155.83 123.79 155.98 C 122.86 156.12 122.23 156.99 122.37 157.92 Z M 122.53 158.92 L 122.68 159.92 C 122.82 160.85 123.69 161.49 124.62 161.35 C 125.55 161.21 126.19 160.34 126.05 159.41 L 125.90 158.41 C 125.76 157.48 124.89 156.84 123.96 156.98 C 123.03 157.12 122.39 157.99 122.53 158.92 Z M 122.68 159.92 L 122.83 160.91 C 122.96 161.84 123.83 162.49 124.76 162.35 C 125.70 162.21 126.34 161.34 126.20 160.41 L 126.05 159.42 C 125.91 158.48 125.04 157.84 124.11 157.98 C 123.18 158.12 122.54 158.99 122.68 159.92 Z M 122.82 160.91 L 122.97 161.89 C 123.11 162.83 123.97 163.47 124.90 163.34 C 125.84 163.20 126.48 162.33 126.35 161.40 L 126.20 160.41 C 126.06 159.48 125.20 158.84 124.26 158.97 C 123.33 159.11 122.69 159.98 122.82 160.91 Z M 122.97 161.89 L 123.11 162.87 C 123.24 163.81 124.11 164.45 125.04 164.32 C 125.98 164.18 126.62 163.32 126.49 162.38 L 126.35 161.40 C 126.21 160.47 125.35 159.82 124.41 159.96 C 123.48 160.09 122.83 160.96 122.97 161.89 Z M 123.11 162.87 L 123.25 163.85 C 123.38 164.78 124.25 165.43 125.18 165.30 C 126.12 165.16 126.76 164.30 126.63 163.36 L 126.49 162.38 C 126.36 161.45 125.49 160.80 124.56 160.94 C 123.62 161.07 122.97 161.94 123.11 162.87 Z M 123.25 163.85 L 123.39 164.83 C 123.52 165.76 124.39 166.41 125.32 166.28 C 126.26 166.15 126.91 165.28 126.77 164.34 L 126.63 163.36 C 126.50 162.43 125.63 161.78 124.70 161.91 C 123.76 162.05 123.11 162.91 123.25 163.85 Z M 123.39 164.83 L 123.53 165.83 C 123.66 166.77 124.53 167.42 125.46 167.28 C 126.40 167.15 127.05 166.28 126.92 165.35 L 126.77 164.34 C 126.64 163.41 125.77 162.76 124.84 162.89 C 123.90 163.03 123.25 163.89 123.39 164.83 Z M 123.53 165.83 L 123.67 166.83 C 123.80 167.77 124.67 168.42 125.61 168.28 C 126.54 168.15 127.19 167.28 127.06 166.35 L 126.92 165.35 C 126.78 164.41 125.92 163.76 124.98 163.89 C 124.04 164.03 123.39 164.89 123.53 165.83 Z M 123.67 166.83 L 123.81 167.83 C 123.94 168.76 124.81 169.42 125.75 169.28 C 126.68 169.15 127.34 168.28 127.20 167.35 L 127.06 166.35 C 126.93 165.41 126.06 164.76 125.12 164.89 C 124.19 165.03 123.54 165.89 123.67 166.83 Z M 123.81 167.83 L 123.95 168.82 C 124.08 169.75 124.95 170.41 125.89 170.27 C 126.82 170.14 127.48 169.27 127.34 168.34 L 127.20 167.35 C 127.07 166.41 126.20 165.76 125.27 165.89 C 124.33 166.02 123.68 166.89 123.81 167.83 Z M 123.95 168.82 L 124.09 169.80 C 124.22 170.74 125.09 171.39 126.02 171.26 C 126.96 171.13 127.61 170.26 127.48 169.32 L 127.34 168.34 C 127.21 167.40 126.35 166.75 125.41 166.88 C 124.47 167.01 123.82 167.88 123.95 168.82 Z M 124.09 169.80 L 124.22 170.77 C 124.35 171.71 125.22 172.36 126.16 172.23 C 127.10 172.10 127.75 171.23 127.62 170.30 L 127.48 169.32 C 127.35 168.39 126.49 167.73 125.55 167.86 C 124.61 167.99 123.96 168.86 124.09 169.80 Z M 124.22 170.77 L 124.36 171.78 C 124.49 172.72 125.36 173.37 126.29 173.24 C 127.23 173.11 127.89 172.25 127.76 171.31 L 127.62 170.30 C 127.49 169.36 126.62 168.70 125.69 168.83 C 124.75 168.96 124.09 169.83 124.22 170.77 Z M 124.36 171.77 L 124.50 172.79 C 124.63 173.73 125.49 174.39 126.43 174.26 C 127.37 174.13 128.03 173.27 127.90 172.33 L 127.76 171.31 C 127.63 170.37 126.77 169.71 125.83 169.84 C 124.89 169.97 124.23 170.84 124.36 171.77 Z M 124.50 172.79 L 124.63 173.79 C 124.76 174.73 125.63 175.39 126.57 175.26 C 127.51 175.14 128.17 174.27 128.04 173.33 L 127.90 172.33 C 127.77 171.39 126.91 170.73 125.97 170.86 C 125.03 170.99 124.37 171.85 124.50 172.79 Z M 124.63 173.79 L 124.77 174.78 C 124.90 175.72 125.76 176.38 126.70 176.25 C 127.64 176.12 128.30 175.26 128.17 174.32 L 128.04 173.33 C 127.91 172.39 127.04 171.73 126.10 171.86 C 125.16 171.99 124.51 172.85 124.63 173.79 Z M 124.77 174.78 L 124.90 175.76 C 125.03 176.70 125.90 177.35 126.84 177.23 C 127.78 177.10 128.43 176.23 128.31 175.29 L 128.17 174.32 C 128.04 173.38 127.18 172.72 126.24 172.85 C 125.30 172.98 124.64 173.84 124.77 174.78 Z M 124.90 175.76 L 125.03 176.72 C 125.16 177.66 126.03 178.31 126.97 178.18 C 127.91 178.06 128.57 177.19 128.44 176.25 L 128.31 175.29 C 128.18 174.35 127.31 173.69 126.37 173.82 C 125.43 173.95 124.77 174.82 124.90 175.76 Z M 125.03 176.72 L 125.17 177.73 C 125.31 178.67 126.18 179.33 127.12 179.20 C 128.06 179.06 128.71 178.20 128.58 177.25 L 128.44 176.24 C 128.31 175.30 127.44 174.65 126.50 174.78 C 125.56 174.91 124.90 175.78 125.03 176.72 Z M 125.17 177.74 L 125.32 178.76 C 125.45 179.70 126.33 180.35 127.27 180.22 C 128.21 180.09 128.86 179.21 128.73 178.27 L 128.58 177.25 C 128.45 176.31 127.57 175.66 126.63 175.79 C 125.69 175.92 125.04 176.80 125.17 177.74 Z M 125.32 178.76 L 125.47 179.77 C 125.60 180.71 126.48 181.36 127.42 181.22 C 128.36 181.08 129.01 180.21 128.87 179.27 L 128.73 178.27 C 128.59 177.33 127.72 176.68 126.78 176.81 C 125.84 176.95 125.18 177.82 125.32 178.76 Z M 125.47 179.77 L 125.61 180.75 C 125.75 181.69 126.63 182.34 127.57 182.20 C 128.51 182.06 129.16 181.19 129.02 180.25 L 128.87 179.27 C 128.73 178.33 127.86 177.68 126.92 177.82 C 125.98 177.96 125.33 178.83 125.47 179.77 Z M 125.62 180.76 L 125.76 181.72 C 125.90 182.66 126.78 183.30 127.72 183.16 C 128.66 183.01 129.30 182.14 129.16 181.20 L 129.02 180.24 C 128.87 179.30 127.99 178.66 127.06 178.80 C 126.12 178.94 125.47 179.82 125.62 180.76 Z M 125.76 181.72 L 125.91 182.68 C 126.06 183.62 126.94 184.26 127.88 184.12 C 128.82 183.97 129.46 183.09 129.31 182.15 L 129.16 181.19 C 129.01 180.25 128.13 179.61 127.19 179.76 C 126.26 179.91 125.61 180.79 125.76 181.72 Z M 125.91 182.69 L 126.08 183.71 C 126.23 184.65 127.11 185.29 128.05 185.14 C 128.99 184.98 129.63 184.10 129.47 183.16 L 129.31 182.14 C 129.16 181.21 128.27 180.57 127.34 180.72 C 126.40 180.87 125.76 181.76 125.91 182.69 Z M 126.08 183.72 L 126.25 184.72 C 126.41 185.65 127.29 186.29 128.23 186.13 C 129.17 185.97 129.80 185.09 129.64 184.15 L 129.47 183.15 C 129.32 182.22 128.43 181.59 127.49 181.74 C 126.56 181.90 125.92 182.79 126.08 183.72 Z M 126.25 184.73 L 126.42 185.70 C 126.58 186.64 127.47 187.26 128.41 187.10 C 129.34 186.94 129.97 186.05 129.81 185.11 L 129.64 184.14 C 129.48 183.20 128.58 182.58 127.65 182.74 C 126.71 182.90 126.09 183.79 126.25 184.73 Z M 126.42 185.71 L 126.59 186.67 C 126.76 187.61 127.66 188.23 128.59 188.06 C 129.53 187.89 130.15 186.99 129.98 186.06 L 129.81 185.10 C 129.64 184.17 128.74 183.55 127.81 183.71 C 126.87 183.88 126.25 184.78 126.42 185.71 Z M 126.60 186.68 L 126.78 187.65 C 126.96 188.59 127.85 189.20 128.79 189.03 C 129.72 188.85 130.33 187.95 130.16 187.02 L 129.98 186.05 C 129.80 185.11 128.90 184.50 127.97 184.68 C 127.04 184.85 126.42 185.75 126.60 186.68 Z M 126.78 187.67 L 126.98 188.66 C 127.16 189.59 128.07 190.20 129.00 190.02 C 129.93 189.83 130.54 188.93 130.35 188.00 L 130.16 187.00 C 129.97 186.07 129.07 185.47 128.14 185.65 C 127.20 185.84 126.60 186.74 126.78 187.67 Z M 126.99 188.69 L 127.19 189.67 C 127.39 190.60 128.30 191.19 129.23 190.99 C 130.16 190.80 130.75 189.88 130.56 188.95 L 130.35 187.97 C 130.15 187.04 129.24 186.45 128.31 186.65 C 127.38 186.85 126.79 187.76 126.99 188.69 Z M 127.20 189.70 L 127.43 190.67 C 127.64 191.59 128.56 192.17 129.49 191.95 C 130.41 191.74 130.99 190.82 130.77 189.89 L 130.55 188.92 C 130.33 188.00 129.41 187.42 128.49 187.64 C 127.56 187.85 126.99 188.78 127.20 189.70 Z M 127.44 190.71 L 127.68 191.66 C 127.92 192.58 128.86 193.13 129.77 192.90 C 130.69 192.66 131.25 191.72 131.01 190.81 L 130.76 189.85 C 130.53 188.93 129.59 188.38 128.67 188.62 C 127.75 188.86 127.20 189.79 127.44 190.71 Z M 127.70 191.72 L 128.00 192.75 C 128.27 193.66 129.22 194.18 130.13 193.91 C 131.04 193.64 131.56 192.69 131.30 191.78 L 130.99 190.75 C 130.73 189.84 129.77 189.32 128.86 189.59 C 127.95 189.85 127.43 190.81 127.70 191.72 Z M 128.03 192.84 L 128.38 193.83 C 128.70 194.72 129.68 195.19 130.57 194.87 C 131.46 194.55 131.93 193.57 131.62 192.68 L 131.27 191.69 C 130.95 190.80 129.97 190.33 129.08 190.65 C 128.18 190.96 127.71 191.94 128.03 192.84 Z M 128.44 193.96 L 128.84 194.86 C 129.24 195.72 130.25 196.10 131.11 195.71 C 131.98 195.32 132.36 194.31 131.97 193.44 L 131.56 192.54 C 131.17 191.68 130.15 191.30 129.29 191.69 C 128.43 192.08 128.04 193.10 128.44 193.96 Z M 128.95 195.05 L 129.43 195.83 C 129.93 196.63 130.98 196.88 131.79 196.38 C 132.59 195.88 132.84 194.83 132.34 194.02 L 131.86 193.25 C 131.36 192.44 130.31 192.20 129.50 192.69 C 128.70 193.19 128.45 194.25 128.95 195.05 Z M 129.66 196.12 L 130.40 196.88 C 131.06 197.56 132.15 197.57 132.82 196.91 C 133.50 196.25 133.51 195.16 132.85 194.49 L 132.11 193.73 C 131.45 193.05 130.36 193.04 129.69 193.70 C 129.01 194.36 129.00 195.45 129.66 196.12 Z M 130.89 197.22 L 131.77 197.65 C 132.62 198.06 133.64 197.70 134.05 196.85 C 134.46 196.00 134.10 194.98 133.25 194.57 L 132.37 194.15 C 131.52 193.74 130.50 194.09 130.09 194.94 C 129.68 195.79 130.04 196.81 130.89 197.22 Z M 132.59 197.81 L 133.50 197.77 C 134.44 197.72 135.17 196.92 135.12 195.98 C 135.07 195.04 134.28 194.32 133.34 194.36 L 132.43 194.41 C 131.49 194.45 130.76 195.25 130.81 196.19 C 130.85 197.13 131.65 197.85 132.59 197.81 Z M 134.30 197.52 L 135.01 197.09 C 135.81 196.61 136.07 195.56 135.59 194.76 C 135.10 193.95 134.06 193.70 133.26 194.18 L 132.54 194.61 C 131.74 195.09 131.48 196.14 131.96 196.94 C 132.45 197.74 133.49 198.00 134.30 197.52 Z M 135.37 196.79 L 136.02 196.10 C 136.65 195.42 136.62 194.34 135.93 193.70 C 135.25 193.07 134.17 193.10 133.53 193.79 L 132.89 194.48 C 132.25 195.16 132.29 196.24 132.98 196.88 C 133.66 197.51 134.73 197.48 135.37 196.79 Z M 136.17 195.91 L 136.78 195.03 C 137.31 194.26 137.12 193.21 136.35 192.68 C 135.58 192.14 134.52 192.34 133.99 193.10 L 133.38 193.98 C 132.85 194.75 133.04 195.81 133.81 196.34 C 134.58 196.87 135.64 196.68 136.17 195.91 Z M 136.84 194.92 L 137.41 193.94 C 137.88 193.13 137.61 192.10 136.80 191.63 C 136.00 191.16 134.96 191.43 134.49 192.24 L 133.92 193.22 C 133.45 194.02 133.72 195.06 134.53 195.53 C 135.34 196.00 136.37 195.73 136.84 194.92 Z M 137.44 193.88 L 137.89 193.04 C 138.33 192.22 138.02 191.20 137.19 190.76 C 136.37 190.32 135.35 190.63 134.91 191.46 L 134.46 192.30 C 134.02 193.12 134.33 194.14 135.16 194.58 C 135.98 195.02 137.01 194.71 137.44 193.88 Z M 137.91 192.99 L 138.34 192.13 C 138.75 191.29 138.41 190.28 137.57 189.87 C 136.73 189.46 135.72 189.80 135.31 190.64 L 134.89 191.51 C 134.47 192.34 134.82 193.35 135.65 193.76 C 136.49 194.18 137.50 193.83 137.91 192.99 Z M 138.36 192.08 L 138.77 191.17 C 139.15 190.32 138.78 189.33 137.93 188.94 C 137.08 188.56 136.08 188.94 135.70 189.78 L 135.29 190.69 C 134.91 191.54 135.28 192.54 136.13 192.92 C 136.98 193.30 137.98 192.93 138.36 192.08 Z M 138.79 191.12 L 139.19 190.16 C 139.54 189.30 139.13 188.32 138.28 187.96 C 137.42 187.61 136.43 188.02 136.08 188.88 L 135.68 189.83 C 135.33 190.69 135.73 191.68 136.59 192.03 C 137.45 192.39 138.43 191.98 138.79 191.12 Z M 139.20 190.11 L 139.57 189.13 C 139.90 188.27 139.47 187.30 138.60 186.97 C 137.73 186.64 136.76 187.08 136.43 187.94 L 136.06 188.92 C 135.73 189.79 136.17 190.76 137.04 191.09 C 137.90 191.42 138.87 190.98 139.20 190.11 Z M 139.59 189.10 L 139.92 188.14 C 140.23 187.26 139.77 186.30 138.90 185.99 C 138.03 185.69 137.07 186.15 136.76 187.02 L 136.42 187.98 C 136.11 188.86 136.57 189.81 137.45 190.12 C 138.32 190.43 139.28 189.97 139.59 189.10 Z M 139.93 188.11 L 140.26 187.13 C 140.55 186.25 140.08 185.30 139.20 185.01 C 138.32 184.71 137.37 185.19 137.08 186.07 L 136.75 187.05 C 136.46 187.93 136.93 188.88 137.81 189.17 C 138.69 189.46 139.64 188.99 139.93 188.11 Z M 140.26 187.10 L 140.58 186.13 C 140.86 185.25 140.37 184.31 139.49 184.03 C 138.61 183.74 137.66 184.23 137.38 185.11 L 137.07 186.09 C 136.79 186.97 137.28 187.91 138.16 188.19 C 139.04 188.47 139.98 187.99 140.26 187.10 Z M 140.58 186.11 L 140.87 185.17 C 141.14 184.29 140.64 183.35 139.76 183.08 C 138.88 182.81 137.94 183.31 137.67 184.19 L 137.38 185.13 C 137.11 186.01 137.60 186.95 138.49 187.22 C 139.37 187.49 140.31 187.00 140.58 186.11 Z M 140.87 185.16 L 141.15 184.22 C 141.42 183.34 140.92 182.41 140.03 182.14 C 139.15 181.87 138.22 182.38 137.95 183.26 L 137.67 184.20 C 137.40 185.08 137.90 186.02 138.79 186.28 C 139.67 186.55 140.60 186.05 140.87 185.16 Z M 141.15 184.21 L 141.46 183.16 C 141.72 182.28 141.21 181.35 140.33 181.09 C 139.44 180.83 138.51 181.34 138.26 182.22 L 137.95 183.27 C 137.69 184.16 138.20 185.09 139.08 185.34 C 139.97 185.60 140.89 185.10 141.15 184.21 Z M 141.46 183.15 L 141.74 182.20 C 141.99 181.31 141.47 180.39 140.59 180.13 C 139.70 179.88 138.78 180.40 138.52 181.28 L 138.25 182.23 C 138.00 183.12 138.51 184.05 139.40 184.30 C 140.29 184.55 141.21 184.04 141.46 183.15 Z M 141.74 182.19 L 141.99 181.29 C 142.23 180.40 141.71 179.48 140.82 179.23 C 139.94 178.99 139.02 179.51 138.77 180.40 L 138.52 181.29 C 138.28 182.18 138.80 183.10 139.68 183.35 C 140.57 183.59 141.49 183.07 141.74 182.19 Z M 141.99 181.28 L 142.23 180.38 C 142.47 179.49 141.94 178.58 141.06 178.34 C 140.17 178.10 139.25 178.62 139.01 179.51 L 138.77 180.41 C 138.53 181.30 139.05 182.21 139.94 182.45 C 140.83 182.69 141.75 182.17 141.99 181.28 Z M 142.23 180.37 L 142.48 179.44 C 142.71 178.55 142.18 177.64 141.29 177.40 C 140.40 177.17 139.49 177.70 139.25 178.59 L 139.01 179.52 C 138.77 180.41 139.30 181.32 140.20 181.56 C 141.09 181.79 142.00 181.26 142.23 180.37 Z M 142.48 179.43 L 142.73 178.47 C 142.95 177.57 142.42 176.67 141.52 176.44 C 140.63 176.21 139.72 176.75 139.49 177.64 L 139.25 178.60 C 139.02 179.50 139.56 180.40 140.45 180.63 C 141.35 180.86 142.25 180.32 142.48 179.43 Z M 142.73 178.45 L 142.98 177.45 C 143.19 176.55 142.65 175.65 141.75 175.43 C 140.86 175.21 139.95 175.76 139.74 176.65 L 139.49 177.66 C 139.27 178.55 139.82 179.46 140.72 179.67 C 141.61 179.89 142.51 179.34 142.73 178.45 Z M 142.98 177.43 L 143.21 176.44 C 143.42 175.54 142.86 174.65 141.96 174.44 C 141.07 174.23 140.17 174.79 139.96 175.68 L 139.73 176.67 C 139.52 177.57 140.08 178.46 140.98 178.67 C 141.87 178.88 142.77 178.32 142.98 177.43 Z M 143.21 176.42 L 143.43 175.45 C 143.63 174.55 143.06 173.66 142.16 173.46 C 141.27 173.26 140.37 173.83 140.17 174.73 L 139.96 175.70 C 139.76 176.60 140.33 177.49 141.22 177.69 C 142.12 177.89 143.01 177.32 143.21 176.42 Z M 143.43 175.44 L 143.64 174.45 C 143.84 173.55 143.26 172.66 142.36 172.47 C 141.46 172.28 140.57 172.85 140.38 173.75 L 140.17 174.74 C 139.98 175.64 140.55 176.53 141.45 176.72 C 142.36 176.91 143.24 176.34 143.43 175.44 Z M 143.65 174.43 L 143.85 173.44 C 144.03 172.54 143.45 171.66 142.55 171.48 C 141.65 171.29 140.77 171.87 140.58 172.78 L 140.38 173.77 C 140.19 174.67 140.78 175.55 141.68 175.73 C 142.58 175.92 143.46 175.34 143.65 174.43 Z M 143.85 173.43 L 144.05 172.44 C 144.22 171.54 143.63 170.66 142.73 170.48 C 141.82 170.31 140.95 170.90 140.77 171.80 L 140.58 172.79 C 140.40 173.69 140.99 174.57 141.90 174.75 C 142.80 174.92 143.68 174.33 143.85 173.43 Z M 144.05 172.43 L 144.23 171.43 C 144.40 170.52 143.81 169.65 142.90 169.48 C 142.00 169.31 141.12 169.91 140.96 170.82 L 140.77 171.81 C 140.60 172.72 141.20 173.59 142.10 173.76 C 143.01 173.93 143.88 173.33 144.05 172.43 Z M 144.24 171.42 L 144.41 170.44 C 144.58 169.53 143.98 168.67 143.07 168.50 C 142.17 168.34 141.30 168.94 141.13 169.84 L 140.95 170.82 C 140.79 171.73 141.39 172.60 142.30 172.76 C 143.20 172.93 144.07 172.33 144.24 171.42 Z M 144.41 170.44 L 144.59 169.47 C 144.76 168.56 144.15 167.70 143.25 167.53 C 142.34 167.37 141.47 167.97 141.31 168.87 L 141.13 169.84 C 140.97 170.75 141.57 171.62 142.48 171.78 C 143.38 171.95 144.25 171.35 144.41 170.44 Z M 144.59 169.48 L 144.77 168.51 C 144.94 167.60 144.34 166.73 143.43 166.56 C 142.53 166.39 141.66 166.99 141.49 167.90 L 141.31 168.87 C 141.14 169.77 141.74 170.64 142.65 170.81 C 143.55 170.98 144.42 170.38 144.59 169.48 Z M 144.77 168.51 L 144.96 167.54 C 145.13 166.63 144.53 165.76 143.63 165.58 C 142.72 165.41 141.85 166.01 141.68 166.91 L 141.49 167.89 C 141.32 168.79 141.91 169.67 142.82 169.84 C 143.72 170.01 144.60 169.42 144.77 168.51 Z M 144.95 167.54 L 145.14 166.56 C 145.32 165.65 144.73 164.78 143.82 164.60 C 142.91 164.43 142.04 165.02 141.87 165.93 L 141.68 166.91 C 141.50 167.81 142.09 168.69 143.00 168.86 C 143.91 169.04 144.78 168.44 144.95 167.54 Z M 145.15 166.55 L 145.33 165.57 C 145.51 164.66 144.91 163.79 144.00 163.61 C 143.10 163.44 142.22 164.04 142.05 164.94 L 141.86 165.93 C 141.69 166.83 142.29 167.71 143.19 167.88 C 144.10 168.05 144.97 167.46 145.15 166.55 Z M 145.34 165.56 L 145.52 164.57 C 145.68 163.67 145.09 162.79 144.18 162.63 C 143.27 162.46 142.40 163.06 142.23 163.97 L 142.05 164.95 C 141.88 165.86 142.48 166.73 143.39 166.90 C 144.30 167.06 145.17 166.47 145.34 165.56 Z M 145.52 164.56 L 145.69 163.58 C 145.86 162.67 145.25 161.81 144.34 161.64 C 143.43 161.48 142.57 162.09 142.40 163.00 L 142.23 163.98 C 142.07 164.88 142.67 165.75 143.58 165.91 C 144.49 166.08 145.36 165.47 145.52 164.56 Z M 145.70 163.58 L 145.87 162.59 C 146.03 161.68 145.42 160.82 144.51 160.66 C 143.60 160.50 142.73 161.11 142.57 162.02 L 142.40 163.00 C 142.24 163.91 142.85 164.78 143.76 164.94 C 144.67 165.09 145.54 164.49 145.70 163.58 Z M 145.87 162.59 L 146.04 161.61 C 146.20 160.70 145.59 159.83 144.68 159.67 C 143.77 159.51 142.91 160.12 142.75 161.03 L 142.57 162.02 C 142.41 162.93 143.02 163.79 143.93 163.95 C 144.84 164.11 145.71 163.50 145.87 162.59 Z M 146.04 161.61 L 146.22 160.62 C 146.38 159.72 145.77 158.85 144.86 158.68 C 143.96 158.52 143.09 159.13 142.92 160.04 L 142.75 161.02 C 142.58 161.93 143.19 162.80 144.10 162.97 C 145.01 163.13 145.88 162.52 146.04 161.61 Z M 146.22 160.63 L 146.40 159.65 C 146.56 158.74 145.96 157.87 145.05 157.70 C 144.15 157.53 143.27 158.14 143.11 159.04 L 142.92 160.03 C 142.76 160.94 143.36 161.81 144.27 161.98 C 145.18 162.14 146.05 161.54 146.22 160.63 Z M 146.40 159.65 L 146.58 158.67 C 146.75 157.76 146.15 156.89 145.24 156.72 C 144.33 156.55 143.46 157.15 143.29 158.05 L 143.11 159.04 C 142.94 159.95 143.54 160.82 144.44 160.99 C 145.35 161.16 146.23 160.56 146.40 159.65 Z M 146.58 158.67 L 146.77 157.68 C 146.93 156.77 146.33 155.90 145.43 155.73 C 144.52 155.56 143.64 156.16 143.47 157.07 L 143.29 158.06 C 143.12 158.96 143.72 159.84 144.63 160.01 C 145.54 160.18 146.41 159.58 146.58 158.67 Z M 146.77 157.68 L 146.95 156.70 C 147.11 155.79 146.51 154.91 145.60 154.75 C 144.69 154.58 143.82 155.19 143.65 156.10 L 143.47 157.08 C 143.30 157.99 143.91 158.86 144.82 159.03 C 145.73 159.19 146.60 158.59 146.77 157.68 Z M 146.95 156.69 L 147.12 155.72 C 147.28 154.80 146.67 153.93 145.76 153.77 C 144.85 153.61 143.98 154.22 143.82 155.13 L 143.65 156.10 C 143.49 157.02 144.09 157.89 145.01 158.05 C 145.92 158.21 146.79 157.60 146.95 156.69 Z M 147.12 155.71 L 147.29 154.74 C 147.45 153.82 146.84 152.95 145.92 152.80 C 145.01 152.64 144.14 153.25 143.98 154.16 L 143.82 155.14 C 143.66 156.05 144.27 156.92 145.18 157.08 C 146.10 157.24 146.96 156.62 147.12 155.71 Z M 147.29 154.73 L 147.46 153.75 C 147.62 152.83 147.00 151.96 146.09 151.81 C 145.18 151.65 144.31 152.27 144.15 153.18 L 143.98 154.17 C 143.83 155.08 144.44 155.95 145.36 156.10 C 146.27 156.26 147.14 155.65 147.29 154.73 Z M 147.46 153.75 L 147.63 152.74 C 147.79 151.82 147.18 150.96 146.26 150.80 C 145.35 150.64 144.48 151.26 144.32 152.17 L 144.15 153.18 C 143.99 154.09 144.61 154.96 145.52 155.12 C 146.44 155.27 147.30 154.66 147.46 153.75 Z M 147.63 152.74 L 147.81 151.75 C 147.96 150.84 147.35 149.97 146.44 149.81 C 145.52 149.65 144.65 150.26 144.49 151.18 L 144.32 152.17 C 144.17 153.08 144.78 153.95 145.69 154.11 C 146.61 154.27 147.48 153.66 147.63 152.74 Z M 147.81 151.75 L 147.98 150.75 C 148.14 149.84 147.53 148.97 146.61 148.81 C 145.70 148.65 144.83 149.26 144.67 150.17 L 144.49 151.17 C 144.33 152.09 144.95 152.96 145.86 153.12 C 146.77 153.28 147.65 152.67 147.81 151.75 Z M 147.98 150.75 L 148.16 149.76 C 148.32 148.85 147.71 147.97 146.79 147.81 C 145.88 147.65 145.01 148.26 144.84 149.18 L 144.67 150.17 C 144.51 151.08 145.12 151.96 146.03 152.12 C 146.95 152.28 147.82 151.67 147.98 150.75 Z M 148.16 149.76 L 148.33 148.80 C 148.49 147.88 147.88 147.01 146.97 146.84 C 146.06 146.68 145.18 147.29 145.02 148.20 L 144.84 149.17 C 144.68 150.09 145.29 150.96 146.20 151.12 C 147.12 151.29 147.99 150.68 148.16 149.76 Z M 148.33 148.80 L 148.51 147.78 C 148.68 146.87 148.07 145.99 147.16 145.83 C 146.24 145.66 145.37 146.27 145.20 147.18 L 145.02 148.20 C 144.85 149.12 145.46 149.99 146.37 150.16 C 147.29 150.32 148.16 149.71 148.33 148.80 Z M 148.51 147.78 L 148.70 146.77 C 148.86 145.86 148.25 144.98 147.34 144.82 C 146.43 144.65 145.55 145.26 145.39 146.17 L 145.20 147.18 C 145.04 148.09 145.64 148.97 146.56 149.14 C 147.47 149.30 148.35 148.70 148.51 147.78 Z M 148.69 146.77 L 148.87 145.80 C 149.03 144.89 148.43 144.02 147.51 143.85 C 146.60 143.69 145.73 144.30 145.56 145.21 L 145.39 146.17 C 145.23 147.09 145.83 147.96 146.74 148.12 C 147.66 148.29 148.53 147.68 148.69 146.77 Z M 148.87 145.80 L 149.03 144.86 C 149.19 143.95 148.58 143.08 147.67 142.92 C 146.76 142.76 145.89 143.37 145.73 144.28 L 145.57 145.21 C 145.40 146.13 146.01 146.99 146.92 147.16 C 147.84 147.32 148.70 146.71 148.87 145.80 Z M 149.03 144.85 L 149.20 143.85 C 149.36 142.94 148.75 142.07 147.83 141.91 C 146.92 141.76 146.06 142.37 145.90 143.28 L 145.73 144.29 C 145.57 145.20 146.19 146.07 147.10 146.22 C 148.01 146.38 148.88 145.77 149.03 144.85 Z M 149.20 143.85 L 149.37 142.85 C 149.53 141.94 148.91 141.08 148.00 140.92 C 147.09 140.77 146.22 141.38 146.07 142.29 L 145.90 143.29 C 145.74 144.20 146.36 145.06 147.27 145.22 C 148.18 145.37 149.05 144.76 149.20 143.85 Z M 149.37 142.86 L 149.54 141.90 C 149.70 140.98 149.09 140.11 148.18 139.95 C 147.27 139.79 146.40 140.40 146.24 141.32 L 146.07 142.28 C 145.91 143.20 146.52 144.07 147.43 144.23 C 148.34 144.39 149.21 143.78 149.37 142.86 Z M 149.54 141.92 L 149.70 141.05 C 149.87 140.14 149.27 139.26 148.36 139.09 C 147.45 138.92 146.57 139.52 146.40 140.43 L 146.24 141.30 C 146.07 142.21 146.67 143.09 147.58 143.26 C 148.49 143.43 149.37 142.83 149.54 141.92 Z M 149.70 141.07 L 149.87 140.24 C 150.05 139.33 149.46 138.45 148.55 138.26 C 147.64 138.08 146.75 138.67 146.57 139.58 L 146.40 140.41 C 146.22 141.32 146.81 142.21 147.72 142.39 C 148.63 142.57 149.52 141.98 149.70 141.07 Z M 149.87 140.25 L 150.06 139.31 C 150.25 138.40 149.66 137.51 148.75 137.32 C 147.84 137.14 146.95 137.72 146.76 138.63 L 146.57 139.57 C 146.38 140.48 146.97 141.37 147.88 141.56 C 148.79 141.75 149.68 141.16 149.87 140.25 Z M 150.06 139.31 L 150.30 138.18 C 150.49 137.27 149.90 136.38 148.99 136.19 C 148.08 136.00 147.19 136.59 147.00 137.50 L 146.76 138.63 C 146.57 139.54 147.16 140.43 148.07 140.62 C 148.98 140.81 149.87 140.23 150.06 139.31 Z M 150.30 138.18 L 150.52 137.12 C 150.70 136.21 150.12 135.31 149.20 135.13 C 148.29 134.94 147.40 135.53 147.21 136.44 L 146.99 137.50 C 146.81 138.41 147.40 139.31 148.31 139.49 C 149.22 139.68 150.11 139.09 150.30 138.18 Z M 150.52 137.12 L 150.71 136.17 C 150.90 135.25 150.31 134.36 149.40 134.17 C 148.48 133.99 147.59 134.58 147.40 135.49 L 147.21 136.44 C 147.02 137.36 147.61 138.25 148.53 138.44 C 149.44 138.62 150.33 138.03 150.52 137.12 Z M 150.72 136.17 L 150.92 135.16 C 151.11 134.24 150.52 133.35 149.61 133.16 C 148.69 132.97 147.79 133.56 147.61 134.48 L 147.40 135.49 C 147.21 136.41 147.80 137.30 148.72 137.49 C 149.63 137.68 150.53 137.09 150.72 136.17 Z M 150.93 135.16 L 151.14 134.13 C 151.33 133.21 150.74 132.31 149.83 132.12 C 148.91 131.93 148.01 132.52 147.82 133.44 L 147.60 134.47 C 147.41 135.39 148.00 136.29 148.92 136.48 C 149.84 136.67 150.74 136.08 150.93 135.16 Z M 151.14 134.14 L 151.36 133.11 C 151.56 132.19 150.97 131.29 150.05 131.09 C 149.13 130.90 148.23 131.48 148.04 132.40 L 147.82 133.43 C 147.62 134.35 148.21 135.25 149.13 135.45 C 150.05 135.64 150.95 135.05 151.14 134.14 Z M 151.36 133.12 L 151.58 132.13 C 151.78 131.21 151.20 130.31 150.28 130.10 C 149.36 129.90 148.45 130.48 148.25 131.40 L 148.03 132.39 C 147.83 133.31 148.41 134.22 149.33 134.42 C 150.25 134.62 151.16 134.04 151.36 133.12 Z M 151.58 132.15 L 151.80 131.17 C 152.02 130.25 151.44 129.34 150.52 129.12 C 149.60 128.91 148.69 129.49 148.48 130.41 L 148.25 131.39 C 148.04 132.30 148.61 133.22 149.53 133.43 C 150.45 133.64 151.37 133.07 151.58 132.15 Z M 151.80 131.22 L 152.17 129.79 C 152.41 128.88 151.86 127.94 150.94 127.70 C 150.03 127.46 149.09 128.01 148.85 128.93 L 148.48 130.36 C 148.24 131.27 148.79 132.21 149.71 132.45 C 150.62 132.69 151.56 132.14 151.80 131.22 Z M 152.13 129.94 L 152.48 128.99 C 152.80 128.09 152.33 127.10 151.44 126.78 C 150.54 126.46 149.56 126.92 149.23 127.82 L 148.89 128.78 C 148.57 129.67 149.03 130.66 149.93 130.98 C 150.83 131.30 151.81 130.84 152.13 129.94 Z M 152.24 129.45 L 152.57 129.01 C 153.15 128.25 153.00 127.17 152.24 126.59 C 151.48 126.01 150.39 126.15 149.81 126.92 L 149.48 127.35 C 148.90 128.11 149.05 129.20 149.81 129.78 C 150.57 130.36 151.66 130.21 152.24 129.45 Z M 150.45 129.54 L 150.85 129.73 C 151.72 130.14 152.76 129.76 153.17 128.89 C 153.58 128.01 153.20 126.98 152.33 126.57 L 151.93 126.38 C 151.06 125.98 150.02 126.35 149.61 127.23 C 149.20 128.10 149.58 129.14 150.45 129.54 Z M 150.03 128.96 L 150.47 129.81 C 150.92 130.67 151.98 131.01 152.84 130.56 C 153.70 130.11 154.04 129.05 153.59 128.18 L 153.15 127.34 C 152.70 126.47 151.64 126.14 150.77 126.59 C 149.91 127.04 149.58 128.10 150.03 128.96 Z M 150.37 129.63 L 150.85 130.89 C 151.20 131.81 152.22 132.27 153.14 131.92 C 154.06 131.58 154.52 130.55 154.17 129.63 L 153.69 128.37 C 153.34 127.45 152.32 126.99 151.40 127.34 C 150.48 127.69 150.02 128.71 150.37 129.63 Z M 150.83 130.87 L 151.17 131.80 C 151.50 132.73 152.52 133.21 153.45 132.88 C 154.38 132.54 154.86 131.52 154.53 130.59 L 154.19 129.66 C 153.86 128.73 152.83 128.25 151.91 128.58 C 150.98 128.92 150.50 129.94 150.83 130.87 Z M 151.16 131.79 L 151.50 132.76 C 151.83 133.70 152.85 134.18 153.78 133.86 C 154.72 133.53 155.20 132.50 154.88 131.57 L 154.53 130.60 C 154.21 129.67 153.18 129.18 152.25 129.51 C 151.32 129.84 150.83 130.86 151.16 131.79 Z M 151.49 132.75 L 151.82 133.72 C 152.15 134.66 153.17 135.15 154.11 134.83 C 155.04 134.51 155.54 133.49 155.22 132.55 L 154.88 131.58 C 154.56 130.65 153.54 130.15 152.60 130.47 C 151.67 130.79 151.17 131.81 151.49 132.75 Z M 151.81 133.70 L 152.12 134.63 C 152.44 135.57 153.45 136.08 154.40 135.77 C 155.34 135.45 155.85 134.43 155.54 133.49 L 155.23 132.57 C 154.91 131.62 153.90 131.11 152.95 131.43 C 152.01 131.74 151.50 132.76 151.81 133.70 Z M 152.11 134.60 L 152.43 135.61 C 152.73 136.56 153.74 137.09 154.69 136.79 C 155.64 136.49 156.17 135.48 155.87 134.53 L 155.55 133.52 C 155.25 132.57 154.24 132.04 153.29 132.34 C 152.34 132.64 151.81 133.65 152.11 134.60 Z M 152.41 135.58 L 152.70 136.54 C 152.98 137.50 153.99 138.05 154.94 137.76 C 155.90 137.48 156.45 136.48 156.16 135.52 L 155.88 134.56 C 155.60 133.60 154.59 133.05 153.64 133.34 C 152.68 133.62 152.13 134.62 152.41 135.58 Z M 152.69 136.52 L 152.95 137.44 C 153.22 138.40 154.22 138.96 155.18 138.69 C 156.14 138.42 156.70 137.42 156.43 136.46 L 156.17 135.54 C 155.90 134.58 154.90 134.02 153.94 134.29 C 152.98 134.56 152.42 135.56 152.69 136.52 Z M 152.94 137.43 L 153.20 138.34 C 153.46 139.31 154.46 139.87 155.43 139.61 C 156.39 139.34 156.95 138.34 156.69 137.38 L 156.43 136.47 C 156.17 135.50 155.17 134.94 154.21 135.20 C 153.24 135.47 152.68 136.47 152.94 137.43 Z M 153.19 138.35 L 153.45 139.28 C 153.72 140.25 154.72 140.81 155.69 140.55 C 156.65 140.28 157.22 139.28 156.95 138.31 L 156.69 137.38 C 156.42 136.41 155.42 135.85 154.46 136.11 C 153.49 136.38 152.93 137.38 153.19 138.35 Z M 153.45 139.28 L 153.72 140.25 C 153.98 141.22 154.98 141.78 155.95 141.52 C 156.91 141.25 157.48 140.26 157.22 139.29 L 156.95 138.32 C 156.69 137.35 155.69 136.78 154.72 137.05 C 153.75 137.31 153.19 138.31 153.45 139.28 Z M 153.71 140.24 L 153.98 141.24 C 154.24 142.21 155.24 142.79 156.21 142.53 C 157.18 142.27 157.75 141.27 157.49 140.30 L 157.22 139.30 C 156.96 138.33 155.97 137.75 155.00 138.01 C 154.03 138.27 153.45 139.27 153.71 140.24 Z M 153.98 141.23 L 154.22 142.18 C 154.48 143.15 155.47 143.73 156.44 143.48 C 157.42 143.22 158.00 142.23 157.74 141.26 L 157.50 140.31 C 157.24 139.34 156.25 138.76 155.28 139.01 C 154.31 139.27 153.72 140.26 153.98 141.23 Z M 154.22 142.17 L 154.46 143.13 C 154.71 144.11 155.70 144.69 156.68 144.45 C 157.65 144.20 158.24 143.21 157.99 142.23 L 157.75 141.27 C 157.50 140.29 156.51 139.70 155.53 139.95 C 154.56 140.20 153.97 141.19 154.22 142.17 Z M 154.46 143.12 L 154.70 144.10 C 154.95 145.08 155.94 145.68 156.92 145.43 C 157.89 145.19 158.49 144.20 158.24 143.22 L 158.00 142.24 C 157.75 141.26 156.76 140.67 155.79 140.91 C 154.81 141.16 154.21 142.15 154.46 143.12 Z M 154.70 144.10 L 154.94 145.09 C 155.19 146.07 156.17 146.66 157.15 146.42 C 158.13 146.18 158.73 145.19 158.49 144.21 L 158.25 143.23 C 158.01 142.25 157.02 141.65 156.04 141.89 C 155.06 142.13 154.46 143.12 154.70 144.10 Z M 154.94 145.08 L 155.17 146.04 C 155.41 147.02 156.40 147.62 157.38 147.38 C 158.36 147.14 158.97 146.15 158.73 145.17 L 158.49 144.22 C 158.25 143.23 157.26 142.63 156.28 142.87 C 155.30 143.11 154.70 144.10 154.94 145.08 Z M 155.17 146.04 L 155.40 147.00 C 155.64 147.99 156.63 148.59 157.61 148.35 C 158.60 148.12 159.20 147.13 158.96 146.14 L 158.73 145.18 C 158.49 144.19 157.50 143.59 156.52 143.83 C 155.54 144.06 154.93 145.05 155.17 146.04 Z M 155.40 147.00 L 155.63 147.98 C 155.87 148.96 156.86 149.57 157.84 149.34 C 158.83 149.10 159.44 148.11 159.20 147.13 L 158.97 146.15 C 158.73 145.16 157.74 144.55 156.76 144.79 C 155.77 145.02 155.16 146.01 155.40 147.00 Z M 155.63 147.97 L 155.86 148.95 C 156.09 149.94 157.08 150.56 158.07 150.32 C 159.05 150.09 159.67 149.10 159.44 148.12 L 159.21 147.13 C 158.97 146.15 157.99 145.53 157.00 145.76 C 156.01 146.00 155.40 146.99 155.63 147.97 Z M 155.85 148.95 L 156.07 149.89 C 156.30 150.88 157.29 151.50 158.28 151.27 C 159.27 151.04 159.89 150.06 159.66 149.07 L 159.44 148.12 C 159.21 147.13 158.22 146.51 157.23 146.74 C 156.24 146.97 155.63 147.96 155.85 148.95 Z M 156.07 149.89 L 156.29 150.85 C 156.52 151.85 157.51 152.46 158.50 152.24 C 159.49 152.01 160.11 151.02 159.88 150.03 L 159.66 149.07 C 159.43 148.08 158.45 147.46 157.45 147.68 C 156.46 147.91 155.84 148.90 156.07 149.89 Z M 156.29 150.85 L 156.51 151.84 C 156.74 152.83 157.73 153.45 158.72 153.23 C 159.71 153.00 160.33 152.01 160.11 151.02 L 159.88 150.03 C 159.66 149.04 158.67 148.42 157.68 148.65 C 156.68 148.87 156.06 149.86 156.29 150.85 Z M 156.51 151.84 L 156.74 152.85 C 156.97 153.84 157.95 154.47 158.95 154.24 C 159.94 154.01 160.56 153.03 160.34 152.03 L 160.11 151.02 C 159.88 150.03 158.90 149.40 157.90 149.63 C 156.91 149.86 156.29 150.84 156.51 151.84 Z M 156.74 152.85 L 156.96 153.82 C 157.19 154.82 158.18 155.44 159.17 155.21 C 160.17 154.99 160.79 154.00 160.56 153.00 L 160.34 152.03 C 160.11 151.04 159.12 150.41 158.13 150.64 C 157.14 150.87 156.51 151.86 156.74 152.85 Z M 156.96 153.82 L 157.18 154.81 C 157.41 155.80 158.40 156.43 159.40 156.20 C 160.39 155.97 161.01 154.98 160.79 153.99 L 160.56 153.00 C 160.34 152.01 159.34 151.38 158.35 151.61 C 157.36 151.84 156.73 152.83 156.96 153.82 Z M 157.18 154.81 L 157.41 155.79 C 157.64 156.79 158.63 157.41 159.62 157.18 C 160.62 156.96 161.24 155.96 161.01 154.97 L 160.79 153.98 C 160.56 152.99 159.57 152.37 158.57 152.59 C 157.58 152.82 156.96 153.81 157.18 154.81 Z M 157.41 155.80 L 157.63 156.77 C 157.86 157.76 158.85 158.39 159.85 158.16 C 160.84 157.93 161.47 156.94 161.24 155.94 L 161.01 154.97 C 160.79 153.97 159.79 153.35 158.80 153.58 C 157.80 153.81 157.18 154.80 157.41 155.80 Z M 157.63 156.77 L 157.86 157.75 C 158.09 158.75 159.08 159.37 160.08 159.14 C 161.07 158.91 161.69 157.91 161.46 156.92 L 161.24 155.94 C 161.01 154.94 160.01 154.32 159.02 154.55 C 158.02 154.78 157.40 155.77 157.63 156.77 Z M 157.86 157.75 L 158.09 158.74 C 158.32 159.74 159.31 160.36 160.31 160.13 C 161.31 159.90 161.93 158.90 161.70 157.90 L 161.47 156.91 C 161.23 155.92 160.24 155.30 159.24 155.53 C 158.24 155.76 157.62 156.75 157.86 157.75 Z M 158.09 158.75 L 158.31 159.72 C 158.55 160.71 159.55 161.33 160.54 161.10 C 161.54 160.86 162.16 159.86 161.92 158.87 L 161.70 157.90 C 161.46 156.90 160.46 156.28 159.47 156.52 C 158.47 156.75 157.85 157.75 158.09 158.75 Z M 158.31 159.72 L 158.54 160.68 C 158.78 161.68 159.78 162.29 160.78 162.05 C 161.78 161.82 162.39 160.81 162.15 159.82 L 161.92 158.86 C 161.68 157.86 160.68 157.25 159.69 157.49 C 158.69 157.73 158.08 158.73 158.31 159.72 Z M 158.54 160.69 L 158.78 161.65 C 159.02 162.64 160.03 163.25 161.02 163.01 C 162.02 162.77 162.63 161.76 162.38 160.77 L 162.15 159.81 C 161.91 158.81 160.90 158.20 159.91 158.45 C 158.91 158.69 158.30 159.69 158.54 160.69 Z M 158.78 161.66 L 159.02 162.62 C 159.27 163.61 160.28 164.22 161.27 163.97 C 162.27 163.72 162.87 162.71 162.62 161.72 L 162.38 160.76 C 162.13 159.76 161.13 159.16 160.13 159.40 C 159.14 159.65 158.53 160.66 158.78 161.66 Z M 159.02 162.63 L 159.27 163.59 C 159.52 164.59 160.53 165.19 161.52 164.94 C 162.52 164.69 163.12 163.68 162.87 162.68 L 162.62 161.71 C 162.37 160.72 161.36 160.12 160.36 160.37 C 159.37 160.62 158.77 161.63 159.02 162.63 Z M 159.27 163.60 L 159.52 164.57 C 159.77 165.57 160.78 166.17 161.78 165.91 C 162.77 165.66 163.37 164.64 163.12 163.65 L 162.87 162.68 C 162.61 161.68 161.60 161.08 160.61 161.34 C 159.61 161.59 159.01 162.61 159.27 163.60 Z M 159.51 164.57 L 159.77 165.55 C 160.02 166.54 161.04 167.14 162.03 166.89 C 163.03 166.63 163.63 165.61 163.37 164.62 L 163.12 163.65 C 162.86 162.65 161.85 162.05 160.85 162.31 C 159.86 162.57 159.26 163.58 159.51 164.57 Z M 159.77 165.55 L 160.02 166.53 C 160.27 167.52 161.29 168.12 162.29 167.86 C 163.28 167.61 163.88 166.59 163.62 165.60 L 163.37 164.62 C 163.11 163.62 162.10 163.03 161.10 163.28 C 160.11 163.54 159.51 164.55 159.77 165.55 Z M 160.02 166.53 L 160.27 167.50 C 160.53 168.50 161.54 169.10 162.54 168.84 C 163.53 168.58 164.13 167.56 163.87 166.57 L 163.62 165.59 C 163.36 164.60 162.35 164.00 161.35 164.26 C 160.36 164.52 159.76 165.53 160.02 166.53 Z M 160.27 167.51 L 160.52 168.47 C 160.78 169.47 161.80 170.06 162.80 169.80 C 163.79 169.54 164.39 168.53 164.13 167.53 L 163.87 166.57 C 163.61 165.57 162.60 164.97 161.60 165.23 C 160.61 165.49 160.01 166.51 160.27 167.51 Z M 160.52 168.48 L 160.78 169.43 C 161.04 170.43 162.06 171.02 163.05 170.76 C 164.05 170.50 164.64 169.48 164.38 168.48 L 164.13 167.53 C 163.86 166.53 162.84 165.94 161.85 166.20 C 160.85 166.46 160.26 167.48 160.52 168.48 Z M 160.78 169.44 L 161.04 170.42 C 161.31 171.41 162.33 172.00 163.32 171.74 C 164.32 171.47 164.91 170.45 164.64 169.45 L 164.38 168.48 C 164.11 167.48 163.09 166.89 162.09 167.16 C 161.10 167.43 160.51 168.45 160.78 169.44 Z M 161.04 170.43 L 161.31 171.40 C 161.58 172.39 162.60 172.98 163.60 172.70 C 164.59 172.43 165.18 171.41 164.90 170.41 L 164.64 169.44 C 164.37 168.45 163.34 167.87 162.35 168.14 C 161.35 168.41 160.77 169.44 161.04 170.43 Z M 161.31 171.41 L 161.58 172.37 C 161.86 173.36 162.89 173.94 163.88 173.66 C 164.87 173.38 165.45 172.35 165.17 171.36 L 164.90 170.40 C 164.62 169.41 163.59 168.83 162.60 169.11 C 161.61 169.39 161.03 170.42 161.31 171.41 Z M 161.58 172.39 L 161.86 173.33 C 162.15 174.32 163.18 174.89 164.17 174.60 C 165.16 174.32 165.73 173.28 165.44 172.29 L 165.17 171.34 C 164.88 170.35 163.84 169.79 162.85 170.07 C 161.86 170.36 161.30 171.40 161.58 172.39 Z M 161.86 173.35 L 162.13 174.24 C 162.43 175.22 163.47 175.78 164.46 175.49 C 165.44 175.19 166.00 174.15 165.70 173.16 L 165.44 172.27 C 165.14 171.29 164.10 170.73 163.11 171.03 C 162.12 171.32 161.57 172.36 161.86 173.35 Z M 162.14 174.26 L 162.42 175.15 C 162.73 176.13 163.78 176.68 164.76 176.37 C 165.74 176.06 166.29 175.01 165.98 174.03 L 165.70 173.14 C 165.39 172.15 164.34 171.61 163.36 171.92 C 162.37 172.23 161.83 173.28 162.14 174.26 Z M 162.43 175.18 L 162.74 176.11 C 163.06 177.09 164.12 177.62 165.10 177.29 C 166.08 176.97 166.61 175.91 166.28 174.93 L 165.97 174.00 C 165.64 173.02 164.59 172.49 163.61 172.82 C 162.63 173.14 162.10 174.20 162.43 175.18 Z M 162.75 176.14 L 163.10 177.15 C 163.44 178.12 164.51 178.63 165.48 178.29 C 166.46 177.95 166.97 176.88 166.63 175.91 L 166.27 174.90 C 165.93 173.93 164.86 173.42 163.89 173.76 C 162.92 174.10 162.41 175.17 162.75 176.14 Z M 163.11 177.18 L 163.48 178.17 C 163.84 179.14 164.91 179.64 165.88 179.28 C 166.84 178.92 167.34 177.85 166.98 176.88 L 166.62 175.89 C 166.26 174.92 165.19 174.42 164.22 174.78 C 163.25 175.14 162.76 176.21 163.11 177.18 Z M 163.49 178.20 L 163.85 179.13 C 164.22 180.09 165.29 180.57 166.26 180.21 C 167.22 179.84 167.70 178.76 167.33 177.79 L 166.97 176.86 C 166.61 175.90 165.53 175.42 164.56 175.78 C 163.60 176.15 163.12 177.23 163.49 178.20 Z M 163.85 179.15 L 164.24 180.12 C 164.62 181.07 165.71 181.54 166.66 181.16 C 167.62 180.78 168.09 179.69 167.71 178.73 L 167.32 177.77 C 166.94 176.81 165.86 176.35 164.90 176.73 C 163.94 177.11 163.47 178.20 163.85 179.15 Z M 164.25 180.14 L 164.65 181.10 C 165.05 182.05 166.14 182.50 167.09 182.10 C 168.04 181.71 168.49 180.61 168.10 179.66 L 167.70 178.71 C 167.30 177.75 166.21 177.30 165.25 177.70 C 164.30 178.10 163.85 179.19 164.25 180.14 Z M 164.66 181.13 L 165.07 182.06 C 165.48 183.00 166.59 183.43 167.53 183.01 C 168.47 182.60 168.90 181.49 168.49 180.55 L 168.08 179.63 C 167.67 178.69 166.56 178.26 165.62 178.67 C 164.68 179.09 164.25 180.19 164.66 181.13 Z M 165.09 182.10 L 165.49 182.95 C 165.93 183.89 167.04 184.29 167.98 183.85 C 168.91 183.41 169.31 182.29 168.87 181.36 L 168.47 180.51 C 168.03 179.57 166.91 179.17 165.98 179.61 C 165.05 180.05 164.65 181.17 165.09 182.10 Z M 165.53 183.03 L 166.08 184.08 C 166.57 184.99 167.69 185.34 168.61 184.86 C 169.52 184.37 169.87 183.25 169.39 182.33 L 168.83 181.28 C 168.35 180.37 167.22 180.02 166.31 180.51 C 165.40 180.99 165.05 182.12 165.53 183.03 Z M 166.16 184.21 L 166.72 185.08 C 167.28 185.95 168.43 186.21 169.30 185.65 C 170.17 185.09 170.42 183.94 169.86 183.07 L 169.31 182.20 C 168.75 181.33 167.60 181.08 166.73 181.63 C 165.86 182.19 165.61 183.34 166.16 184.21 Z M 166.86 185.27 L 167.44 185.97 C 168.09 186.76 169.27 186.87 170.06 186.22 C 170.86 185.56 170.97 184.38 170.31 183.59 L 169.73 182.89 C 169.07 182.09 167.90 181.98 167.10 182.64 C 166.31 183.30 166.20 184.47 166.86 185.27 Z M 167.65 186.19 L 168.31 186.76 C 169.09 187.43 170.26 187.35 170.94 186.57 C 171.61 185.80 171.53 184.62 170.75 183.94 L 170.10 183.37 C 169.32 182.70 168.14 182.78 167.47 183.56 C 166.79 184.34 166.87 185.51 167.65 186.19 Z M 168.65 187.00 L 169.58 187.49 C 170.49 187.97 171.61 187.63 172.10 186.72 C 172.58 185.81 172.24 184.68 171.33 184.20 L 170.41 183.71 C 169.50 183.22 168.37 183.56 167.89 184.47 C 167.40 185.38 167.75 186.51 168.65 187.00 Z M 170.13 187.68 L 171.09 187.85 C 172.10 188.03 173.07 187.35 173.25 186.33 C 173.43 185.32 172.75 184.35 171.73 184.17 L 170.78 184.01 C 169.76 183.83 168.79 184.51 168.62 185.52 C 168.44 186.54 169.12 187.50 170.13 187.68 Z M 171.87 187.82 L 172.76 187.59 C 173.76 187.34 174.36 186.32 174.11 185.32 C 173.85 184.32 172.84 183.72 171.84 183.98 L 170.95 184.20 C 169.95 184.46 169.35 185.47 169.60 186.47 C 169.86 187.47 170.87 188.07 171.87 187.82 Z M 173.44 187.27 L 174.16 186.71 C 174.98 186.08 175.14 184.91 174.51 184.09 C 173.89 183.27 172.72 183.12 171.90 183.74 L 171.17 184.30 C 170.35 184.93 170.19 186.10 170.82 186.92 C 171.45 187.74 172.62 187.89 173.44 187.27 Z M 174.48 186.41 L 175.12 185.62 C 175.78 184.82 175.66 183.64 174.86 182.99 C 174.06 182.34 172.88 182.46 172.23 183.25 L 171.59 184.04 C 170.93 184.84 171.05 186.02 171.85 186.67 C 172.65 187.32 173.82 187.21 174.48 186.41 Z M 175.26 185.42 L 175.83 184.51 C 176.38 183.64 176.11 182.49 175.23 181.94 C 174.36 181.40 173.21 181.66 172.66 182.54 L 172.09 183.45 C 171.55 184.32 171.81 185.47 172.69 186.02 C 173.56 186.57 174.72 186.30 175.26 185.42 Z M 175.89 184.40 L 176.35 183.55 C 176.83 182.64 176.49 181.51 175.58 181.03 C 174.67 180.54 173.53 180.89 173.05 181.80 L 172.60 182.65 C 172.11 183.56 172.46 184.69 173.37 185.17 C 174.28 185.66 175.41 185.31 175.89 184.40 Z M 176.39 183.46 L 176.80 182.58 C 177.23 181.65 176.82 180.54 175.89 180.10 C 174.95 179.67 173.84 180.08 173.41 181.02 L 173.00 181.89 C 172.57 182.83 172.98 183.94 173.92 184.37 C 174.85 184.80 175.96 184.39 176.39 183.46 Z M 176.83 182.49 L 177.21 181.55 C 177.60 180.59 177.13 179.51 176.17 179.12 C 175.22 178.74 174.13 179.21 173.75 180.16 L 173.37 181.10 C 172.99 182.06 173.45 183.15 174.41 183.53 C 175.37 183.91 176.45 183.45 176.83 182.49 Z M 177.24 181.47 L 177.59 180.49 C 177.93 179.52 177.42 178.46 176.45 178.11 C 175.48 177.77 174.41 178.28 174.07 179.25 L 173.72 180.24 C 173.38 181.21 173.89 182.27 174.86 182.61 C 175.83 182.95 176.90 182.45 177.24 181.47 Z M 177.60 180.44 L 177.91 179.49 C 178.22 178.51 177.68 177.46 176.70 177.15 C 175.73 176.83 174.68 177.37 174.36 178.35 L 174.06 179.30 C 173.74 180.28 174.28 181.33 175.26 181.64 C 176.24 181.96 177.28 181.42 177.60 180.44 Z M 177.91 179.46 L 178.21 178.47 C 178.51 177.49 177.95 176.45 176.97 176.16 C 175.99 175.86 174.95 176.42 174.65 177.40 L 174.36 178.38 C 174.06 179.36 174.62 180.40 175.60 180.70 C 176.58 180.99 177.62 180.44 177.91 179.46 Z M 178.21 178.45 L 178.49 177.47 C 178.78 176.49 178.21 175.46 177.23 175.18 C 176.24 174.89 175.22 175.46 174.93 176.44 L 174.65 177.42 C 174.37 178.40 174.93 179.43 175.92 179.72 C 176.90 180.00 177.93 179.43 178.21 178.45 Z M 178.50 177.45 L 178.76 176.52 C 179.03 175.53 178.46 174.51 177.47 174.24 C 176.49 173.96 175.47 174.54 175.19 175.52 L 174.93 176.46 C 174.66 177.44 175.23 178.46 176.22 178.74 C 177.20 179.01 178.22 178.44 178.50 177.45 Z M 178.75 176.50 L 179.03 175.48 C 179.30 174.49 178.72 173.48 177.74 173.21 C 176.75 172.95 175.74 173.53 175.47 174.51 L 175.20 175.54 C 174.93 176.52 175.51 177.53 176.49 177.80 C 177.47 178.07 178.49 177.48 178.75 176.50 Z M 179.03 175.46 L 179.28 174.50 C 179.53 173.52 178.95 172.52 177.97 172.26 C 176.99 172.01 175.98 172.59 175.73 173.58 L 175.48 174.53 C 175.22 175.51 175.81 176.51 176.79 176.77 C 177.77 177.02 178.77 176.44 179.03 175.46 Z M 179.27 174.48 L 179.51 173.55 C 179.75 172.57 179.15 171.58 178.17 171.34 C 177.20 171.09 176.21 171.69 175.96 172.67 L 175.73 173.60 C 175.49 174.58 176.08 175.57 177.06 175.81 C 178.04 176.05 179.03 175.46 179.27 174.48 Z M 179.50 173.52 L 179.72 172.60 C 179.95 171.63 179.34 170.65 178.37 170.42 C 177.39 170.19 176.41 170.80 176.18 171.77 L 175.97 172.69 C 175.74 173.67 176.34 174.65 177.32 174.88 C 178.29 175.11 179.27 174.50 179.50 173.52 Z M 179.71 172.59 L 179.93 171.66 C 180.15 170.68 179.54 169.71 178.57 169.49 C 177.59 169.27 176.62 169.88 176.40 170.85 L 176.19 171.79 C 175.97 172.76 176.58 173.73 177.55 173.95 C 178.52 174.17 179.49 173.56 179.71 172.59 Z M 179.92 171.65 L 180.14 170.68 C 180.36 169.71 179.76 168.74 178.79 168.52 C 177.82 168.30 176.85 168.90 176.63 169.87 L 176.41 170.85 C 176.19 171.82 176.79 172.79 177.76 173.01 C 178.73 173.23 179.70 172.62 179.92 171.65 Z M 180.13 170.69 L 180.37 169.66 C 180.60 168.70 180.00 167.73 179.04 167.50 C 178.08 167.28 177.11 167.87 176.88 168.84 L 176.64 169.86 C 176.41 170.83 177.01 171.79 177.98 172.02 C 178.94 172.25 179.90 171.65 180.13 170.69 Z M 180.36 169.68 L 180.60 168.71 C 180.84 167.76 180.26 166.79 179.30 166.55 C 178.34 166.31 177.37 166.90 177.14 167.85 L 176.90 168.82 C 176.66 169.78 177.24 170.74 178.20 170.98 C 179.16 171.22 180.12 170.64 180.36 169.68 Z M 180.59 168.73 L 180.84 167.77 C 181.08 166.82 180.51 165.85 179.56 165.61 C 178.60 165.36 177.64 165.94 177.39 166.89 L 177.15 167.84 C 176.90 168.79 177.48 169.76 178.43 170.00 C 179.38 170.25 180.35 169.68 180.59 168.73 Z M 180.83 167.77 L 181.08 166.80 C 181.32 165.85 180.75 164.88 179.81 164.64 C 178.86 164.40 177.90 164.96 177.65 165.91 L 177.40 166.89 C 177.16 167.83 177.72 168.80 178.67 169.04 C 179.62 169.29 180.58 168.72 180.83 167.77 Z M 181.07 166.79 L 181.32 165.80 C 181.56 164.86 180.99 163.90 180.05 163.66 C 179.11 163.42 178.15 163.99 177.91 164.93 L 177.66 165.92 C 177.42 166.86 177.99 167.82 178.93 168.06 C 179.87 168.30 180.83 167.73 181.07 166.79 Z M 181.32 165.78 L 181.56 164.80 C 181.79 163.86 181.21 162.91 180.27 162.68 C 179.33 162.45 178.38 163.02 178.15 163.97 L 177.91 164.95 C 177.68 165.89 178.26 166.84 179.20 167.07 C 180.14 167.30 181.09 166.72 181.32 165.78 Z M 181.56 164.78 L 181.78 163.82 C 182.00 162.88 181.42 161.94 180.48 161.72 C 179.54 161.50 178.60 162.09 178.38 163.02 L 178.16 163.99 C 177.94 164.92 178.52 165.86 179.46 166.08 C 180.40 166.30 181.34 165.72 181.56 164.78 Z M 181.77 163.80 L 181.99 162.84 C 182.20 161.90 181.62 160.97 180.68 160.76 C 179.75 160.55 178.82 161.14 178.61 162.07 L 178.39 163.04 C 178.18 163.97 178.77 164.90 179.70 165.11 C 180.63 165.32 181.56 164.74 181.77 163.80 Z M 181.98 162.83 L 182.20 161.85 C 182.41 160.92 181.83 160.00 180.90 159.79 C 179.97 159.59 179.05 160.17 178.84 161.10 L 178.62 162.08 C 178.41 163.00 179.00 163.93 179.92 164.13 C 180.85 164.34 181.77 163.76 181.98 162.83 Z M 182.19 161.85 L 182.42 160.86 C 182.63 159.94 182.05 159.02 181.13 158.81 C 180.20 158.60 179.28 159.18 179.08 160.10 L 178.85 161.10 C 178.64 162.02 179.22 162.94 180.14 163.15 C 181.06 163.36 181.98 162.78 182.19 161.85 Z M 182.40 160.87 L 182.63 159.92 C 182.84 159.01 182.27 158.09 181.36 157.88 C 180.44 157.66 179.52 158.23 179.31 159.15 L 179.09 160.10 C 178.87 161.01 179.44 161.93 180.36 162.14 C 181.27 162.36 182.19 161.79 182.40 160.87 Z M 182.61 159.93 L 182.84 158.98 C 183.06 158.07 182.50 157.16 181.59 156.94 C 180.68 156.72 179.77 157.28 179.55 158.19 L 179.32 159.14 C 179.10 160.05 179.66 160.96 180.57 161.18 C 181.48 161.40 182.40 160.84 182.61 159.93 Z M 182.83 158.98 L 183.06 158.01 C 183.28 157.11 182.73 156.20 181.82 155.98 C 180.92 155.76 180.01 156.32 179.79 157.22 L 179.56 158.19 C 179.34 159.09 179.90 160.00 180.80 160.22 C 181.70 160.44 182.61 159.88 182.83 158.98 Z M 183.05 158.01 L 183.29 157.02 C 183.51 156.13 182.96 155.22 182.06 155.01 C 181.16 154.79 180.26 155.34 180.04 156.24 L 179.80 157.22 C 179.59 158.12 180.14 159.02 181.04 159.24 C 181.93 159.46 182.84 158.91 183.05 158.01 Z M 183.28 157.02 L 183.52 156.01 C 183.74 155.12 183.19 154.22 182.30 154.01 C 181.40 153.79 180.51 154.34 180.29 155.24 L 180.05 156.24 C 179.84 157.13 180.39 158.03 181.28 158.24 C 182.17 158.46 183.07 157.91 183.28 157.02 Z M 183.52 156.00 L 183.74 155.05 C 183.95 154.17 183.40 153.28 182.51 153.07 C 181.62 152.86 180.73 153.41 180.53 154.30 L 180.30 155.24 C 180.09 156.13 180.64 157.02 181.53 157.23 C 182.42 157.44 183.31 156.89 183.52 156.00 Z M 183.73 155.05 L 183.95 154.10 C 184.15 153.22 183.61 152.34 182.72 152.13 C 181.84 151.93 180.96 152.47 180.76 153.36 L 180.53 154.31 C 180.33 155.19 180.88 156.07 181.76 156.27 C 182.64 156.48 183.52 155.93 183.73 155.05 Z M 183.94 154.09 L 184.16 153.13 C 184.37 152.25 183.82 151.38 182.94 151.17 C 182.07 150.97 181.19 151.52 180.99 152.39 L 180.77 153.36 C 180.56 154.24 181.11 155.11 181.99 155.31 C 182.86 155.52 183.74 154.97 183.94 154.09 Z M 184.15 153.13 L 184.38 152.14 C 184.58 151.27 184.04 150.40 183.17 150.20 C 182.30 150.00 181.43 150.54 181.23 151.41 L 181.00 152.39 C 180.80 153.26 181.34 154.13 182.21 154.34 C 183.08 154.54 183.95 154.00 184.15 153.13 Z M 184.37 152.14 L 184.60 151.14 C 184.81 150.27 184.27 149.41 183.41 149.21 C 182.54 149.00 181.68 149.54 181.47 150.40 L 181.24 151.41 C 181.04 152.27 181.57 153.14 182.44 153.34 C 183.30 153.54 184.17 153.01 184.37 152.14 Z M 184.59 151.14 L 184.83 150.16 C 185.03 149.30 184.50 148.44 183.64 148.24 C 182.78 148.03 181.92 148.56 181.72 149.42 L 181.49 150.40 C 181.28 151.26 181.81 152.12 182.67 152.33 C 183.53 152.53 184.39 152.00 184.59 151.14 Z M 184.82 150.16 L 185.04 149.23 C 185.25 148.37 184.72 147.52 183.87 147.31 C 183.02 147.11 182.16 147.63 181.96 148.48 L 181.73 149.42 C 181.52 150.27 182.05 151.13 182.90 151.34 C 183.75 151.54 184.61 151.02 184.82 150.16 Z M 185.03 149.23 L 185.26 148.27 C 185.47 147.43 184.95 146.57 184.10 146.37 C 183.26 146.16 182.40 146.68 182.20 147.53 L 181.96 148.48 C 181.76 149.33 182.28 150.18 183.13 150.39 C 183.97 150.59 184.83 150.07 185.03 149.23 Z M 185.26 148.27 L 185.49 147.30 C 185.70 146.46 185.18 145.61 184.34 145.41 C 183.50 145.20 182.65 145.72 182.44 146.56 L 182.21 147.53 C 182.00 148.37 182.52 149.22 183.36 149.42 C 184.20 149.63 185.05 149.11 185.26 148.27 Z M 185.48 147.30 L 185.72 146.31 C 185.93 145.47 185.41 144.63 184.57 144.43 C 183.74 144.22 182.89 144.74 182.69 145.58 L 182.45 146.56 C 182.25 147.40 182.76 148.24 183.60 148.45 C 184.44 148.65 185.28 148.14 185.48 147.30 Z M 185.71 146.31 L 185.96 145.30 C 186.16 144.47 185.64 143.63 184.81 143.43 C 183.98 143.23 183.14 143.74 182.94 144.58 L 182.70 145.58 C 182.50 146.41 183.01 147.25 183.84 147.45 C 184.68 147.65 185.51 147.14 185.71 146.31 Z M 185.95 145.30 L 186.18 144.32 C 186.37 143.49 185.86 142.66 185.03 142.47 C 184.20 142.27 183.37 142.78 183.18 143.61 L 182.95 144.58 C 182.75 145.41 183.26 146.24 184.09 146.44 C 184.92 146.64 185.75 146.12 185.95 145.30 Z M 186.17 144.32 L 186.39 143.40 C 186.58 142.57 186.06 141.75 185.24 141.55 C 184.42 141.36 183.59 141.88 183.40 142.70 L 183.18 143.62 C 182.99 144.44 183.50 145.27 184.33 145.46 C 185.15 145.65 185.98 145.14 186.17 144.32 Z M 186.38 143.39 L 186.59 142.45 C 186.78 141.63 186.27 140.81 185.45 140.62 C 184.63 140.44 183.81 140.95 183.62 141.77 L 183.40 142.71 C 183.22 143.53 183.73 144.35 184.55 144.54 C 185.37 144.72 186.19 144.21 186.38 143.39 Z M 186.59 142.44 L 186.80 141.48 C 186.99 140.67 186.47 139.85 185.66 139.67 C 184.84 139.49 184.03 140.00 183.84 140.82 L 183.63 141.78 C 183.44 142.60 183.96 143.41 184.77 143.59 C 185.59 143.78 186.40 143.26 186.59 142.44 Z M 186.80 141.48 L 187.01 140.49 C 187.19 139.68 186.68 138.87 185.87 138.69 C 185.05 138.51 184.24 139.03 184.06 139.84 L 183.85 140.83 C 183.67 141.64 184.18 142.45 185.00 142.63 C 185.81 142.81 186.62 142.29 186.80 141.48 Z M 187.01 140.49 L 187.23 139.48 C 187.40 138.66 186.89 137.86 186.08 137.69 C 185.27 137.51 184.47 138.03 184.29 138.84 L 184.07 139.85 C 183.90 140.66 184.41 141.46 185.22 141.64 C 186.03 141.81 186.83 141.30 187.01 140.49 Z M 187.22 139.47 L 187.44 138.43 C 187.61 137.62 187.10 136.83 186.29 136.65 C 185.48 136.48 184.69 137.00 184.52 137.81 L 184.30 138.85 C 184.12 139.65 184.64 140.45 185.45 140.62 C 186.26 140.79 187.05 140.28 187.22 139.47 Z M 187.44 138.42 L 187.64 137.44 C 187.81 136.63 187.29 135.84 186.49 135.68 C 185.69 135.51 184.90 136.02 184.73 136.83 L 184.52 137.81 C 184.36 138.62 184.87 139.41 185.68 139.57 C 186.48 139.74 187.27 139.23 187.44 138.42 Z M 187.64 137.43 L 187.83 136.48 C 188.00 135.68 187.48 134.89 186.68 134.73 C 185.88 134.56 185.09 135.08 184.93 135.88 L 184.73 136.83 C 184.57 137.64 185.09 138.42 185.89 138.58 C 186.69 138.75 187.47 138.23 187.64 137.43 Z M 187.83 136.47 L 188.03 135.50 C 188.19 134.70 187.67 133.92 186.87 133.76 C 186.07 133.60 185.29 134.11 185.13 134.91 L 184.93 135.89 C 184.77 136.69 185.29 137.47 186.09 137.63 C 186.89 137.79 187.67 137.27 187.83 136.47 Z M 188.02 135.50 L 188.22 134.51 C 188.38 133.72 187.86 132.94 187.07 132.78 C 186.27 132.62 185.49 133.14 185.33 133.93 L 185.14 134.92 C 184.97 135.72 185.49 136.49 186.29 136.65 C 187.09 136.81 187.86 136.30 188.02 135.50 Z M 188.22 134.51 L 188.41 133.52 C 188.57 132.72 188.06 131.95 187.26 131.79 C 186.47 131.63 185.69 132.15 185.54 132.94 L 185.34 133.94 C 185.18 134.73 185.70 135.50 186.49 135.66 C 187.28 135.82 188.06 135.31 188.22 134.51 Z M 188.41 133.51 L 188.61 132.52 C 188.76 131.72 188.25 130.95 187.46 130.80 C 186.66 130.64 185.89 131.16 185.74 131.95 L 185.54 132.95 C 185.38 133.74 185.90 134.51 186.69 134.66 C 187.48 134.82 188.25 134.31 188.41 133.51 Z M 188.60 132.51 L 188.80 131.52 C 188.95 130.73 188.44 129.96 187.65 129.80 C 186.86 129.65 186.10 130.16 185.94 130.95 L 185.74 131.95 C 185.59 132.74 186.10 133.51 186.89 133.66 C 187.68 133.82 188.45 133.30 188.60 132.51 Z M 188.79 131.52 L 188.99 130.52 C 189.14 129.74 188.63 128.97 187.84 128.82 C 187.06 128.66 186.29 129.17 186.14 129.96 L 185.94 130.95 C 185.79 131.74 186.30 132.50 187.09 132.66 C 187.88 132.81 188.64 132.30 188.79 131.52 Z M 188.99 130.52 L 189.18 129.53 C 189.34 128.74 188.82 127.98 188.04 127.83 C 187.25 127.67 186.49 128.18 186.34 128.97 L 186.14 129.96 C 185.99 130.75 186.50 131.51 187.29 131.66 C 188.07 131.82 188.83 131.31 188.99 130.52 Z M 189.18 129.52 L 189.37 128.54 C 189.53 127.75 189.02 126.99 188.23 126.84 C 187.45 126.68 186.69 127.19 186.54 127.98 L 186.34 128.97 C 186.19 129.75 186.70 130.51 187.48 130.67 C 188.27 130.82 189.03 130.31 189.18 129.52 Z M 189.37 128.53 L 189.56 127.55 C 189.72 126.77 189.21 126.01 188.42 125.86 C 187.64 125.70 186.88 126.21 186.73 127.00 L 186.54 127.98 C 186.38 128.76 186.90 129.52 187.68 129.67 C 188.46 129.83 189.22 129.32 189.37 128.53 Z M 189.56 127.55 L 189.75 126.57 C 189.90 125.79 189.39 125.03 188.61 124.88 C 187.83 124.73 187.07 125.24 186.92 126.02 L 186.73 127.00 C 186.58 127.78 187.09 128.54 187.87 128.69 C 188.65 128.84 189.41 128.33 189.56 127.55 Z M 189.75 126.57 L 189.94 125.59 C 190.09 124.81 189.58 124.06 188.80 123.91 C 188.01 123.76 187.26 124.27 187.11 125.05 L 186.92 126.02 C 186.77 126.80 187.28 127.56 188.06 127.71 C 188.84 127.86 189.60 127.35 189.75 126.57 Z M 189.94 125.59 L 190.12 124.61 C 190.27 123.83 189.76 123.08 188.98 122.93 C 188.20 122.78 187.45 123.30 187.30 124.08 L 187.11 125.05 C 186.96 125.83 187.48 126.58 188.26 126.73 C 189.04 126.88 189.79 126.37 189.94 125.59 Z M 190.12 124.61 L 190.30 123.63 C 190.45 122.85 189.93 122.10 189.16 121.96 C 188.38 121.81 187.63 122.32 187.48 123.10 L 187.30 124.08 C 187.15 124.86 187.67 125.61 188.44 125.75 C 189.22 125.90 189.97 125.39 190.12 124.61 Z M 190.30 123.63 L 190.48 122.64 C 190.62 121.87 190.11 121.12 189.33 120.98 C 188.55 120.83 187.81 121.35 187.66 122.13 L 187.48 123.11 C 187.34 123.89 187.85 124.63 188.63 124.78 C 189.41 124.92 190.16 124.40 190.30 123.63 Z M 190.48 122.64 L 190.66 121.67 C 190.80 120.89 190.28 120.14 189.50 120.00 C 188.72 119.86 187.98 120.38 187.84 121.16 L 187.66 122.13 C 187.52 122.91 188.04 123.65 188.82 123.79 C 189.60 123.94 190.34 123.42 190.48 122.64 Z M 190.66 121.66 L 190.83 120.69 C 190.97 119.91 190.45 119.16 189.67 119.03 C 188.89 118.89 188.15 119.41 188.01 120.19 L 187.84 121.16 C 187.70 121.94 188.22 122.69 189.00 122.82 C 189.78 122.96 190.52 122.44 190.66 121.66 Z M 190.83 120.68 L 191.01 119.70 C 191.14 118.92 190.62 118.18 189.84 118.04 C 189.06 117.91 188.32 118.43 188.18 119.21 L 188.01 120.19 C 187.87 120.97 188.39 121.71 189.17 121.85 C 189.95 121.98 190.70 121.46 190.83 120.68 Z M 191.01 119.70 L 191.18 118.71 C 191.31 117.93 190.79 117.19 190.01 117.05 C 189.23 116.92 188.49 117.44 188.35 118.22 L 188.18 119.21 C 188.05 119.99 188.57 120.73 189.35 120.87 C 190.13 121.00 190.87 120.48 191.01 119.70 Z M 191.18 118.71 L 191.35 117.72 C 191.48 116.94 190.96 116.20 190.18 116.06 C 189.40 115.93 188.66 116.45 188.52 117.24 L 188.35 118.22 C 188.22 119.01 188.74 119.75 189.52 119.88 C 190.30 120.02 191.05 119.49 191.18 118.71 Z M 191.35 117.72 L 191.52 116.73 C 191.65 115.95 191.13 115.21 190.35 115.07 C 189.56 114.94 188.82 115.46 188.69 116.25 L 188.52 117.24 C 188.39 118.02 188.91 118.76 189.69 118.89 C 190.48 119.03 191.22 118.50 191.35 117.72 Z M 191.52 116.73 L 191.69 115.74 C 191.82 114.95 191.30 114.21 190.51 114.08 C 189.73 113.95 188.99 114.47 188.86 115.25 L 188.69 116.25 C 188.56 117.03 189.08 117.77 189.86 117.90 C 190.65 118.04 191.39 117.51 191.52 116.73 Z M 191.69 115.73 L 191.83 114.93 C 191.96 114.15 191.43 113.41 190.65 113.27 C 189.87 113.14 189.13 113.67 188.99 114.45 L 188.86 115.25 C 188.72 116.04 189.25 116.78 190.03 116.91 C 190.82 117.04 191.56 116.52 191.69 115.73 Z"
      fill="black"
      fill-rule="nonzero" /></svg>