<svg xmlns="http://www.w3.org/2000/svg" width="300" height="300" viewBox="0 0 300 300">
<path d="M 110.64 87.92 L 111.55 87.57 C 112.33 87.28 112.72 86.41 112.43 85.64 C 112.14 84.86 111.27 84.47 110.50 84.76 L 109.58 85.11 C 108.80 85.40 108.41 86.27 108.70 87.04 C 109.00 87.82 109.86 88.21 110.64 87.92 Z M 111.44 87.61 L 112.39 87.34 C 113.18 87.11 113.64 86.27 113.41 85.48 C 113.18 84.68 112.35 84.22 111.55 84.45 L 110.61 84.73 C 109.81 84.96 109.35 85.79 109.58 86.59 C 109.81 87.38 110.65 87.84 111.44 87.61 Z M 112.16 87.38 L 113.17 87.25 C 113.99 87.14 114.57 86.39 114.46 85.57 C 114.35 84.75 113.60 84.17 112.78 84.27 L 111.77 84.41 C 110.95 84.51 110.37 85.27 110.48 86.09 C 110.59 86.91 111.34 87.49 112.16 87.38 Z M 112.88 87.26 L 113.83 87.32 C 114.66 87.36 115.37 86.73 115.42 85.90 C 115.46 85.08 114.83 84.37 114.00 84.32 L 113.06 84.26 C 112.23 84.22 111.52 84.85 111.47 85.68 C 111.42 86.50 112.06 87.21 112.88 87.26 Z M 113.61 87.28 L 114.54 87.48 C 115.35 87.65 116.14 87.14 116.32 86.33 C 116.49 85.51 115.97 84.72 115.16 84.55 L 114.23 84.35 C 113.42 84.18 112.62 84.70 112.45 85.51 C 112.28 86.32 112.80 87.11 113.61 87.28 Z M 114.39 87.44 L 115.35 87.75 C 116.14 88.01 116.98 87.58 117.24 86.79 C 117.49 86.00 117.06 85.16 116.28 84.90 L 115.31 84.59 C 114.52 84.33 113.68 84.77 113.42 85.55 C 113.17 86.34 113.60 87.19 114.39 87.44 Z M 115.25 87.71 L 116.23 88.12 C 116.99 88.43 117.87 88.07 118.18 87.30 C 118.50 86.54 118.13 85.66 117.37 85.35 L 116.38 84.94 C 115.62 84.63 114.74 84.99 114.43 85.76 C 114.12 86.52 114.48 87.40 115.25 87.71 Z M 116.15 88.08 L 117.09 88.53 C 117.84 88.89 118.73 88.57 119.09 87.83 C 119.44 87.08 119.13 86.19 118.38 85.83 L 117.44 85.38 C 116.70 85.02 115.80 85.34 115.45 86.09 C 115.09 86.83 115.41 87.73 116.15 88.08 Z M 117.03 88.50 L 117.92 88.98 C 118.65 89.37 119.56 89.10 119.95 88.37 C 120.34 87.64 120.07 86.73 119.34 86.34 L 118.45 85.86 C 117.72 85.47 116.81 85.74 116.42 86.47 C 116.02 87.20 116.30 88.11 117.03 88.50 Z M 117.85 88.95 L 118.72 89.47 C 119.43 89.90 120.35 89.67 120.78 88.96 C 121.21 88.25 120.98 87.32 120.27 86.89 L 119.41 86.37 C 118.69 85.94 117.77 86.17 117.34 86.88 C 116.91 87.59 117.14 88.52 117.85 88.95 Z M 118.65 89.43 L 119.47 89.99 C 120.16 90.45 121.09 90.28 121.56 89.59 C 122.03 88.90 121.85 87.96 121.16 87.50 L 120.34 86.94 C 119.65 86.47 118.72 86.65 118.25 87.33 C 117.78 88.02 117.96 88.96 118.65 89.43 Z M 119.39 89.93 L 120.17 90.54 C 120.83 91.05 121.77 90.93 122.29 90.27 C 122.80 89.61 122.68 88.67 122.02 88.15 L 121.24 87.55 C 120.58 87.04 119.64 87.16 119.12 87.81 C 118.61 88.47 118.73 89.42 119.39 89.93 Z M 120.07 90.47 L 120.85 91.17 C 121.47 91.74 122.43 91.69 122.99 91.07 C 123.56 90.45 123.51 89.50 122.89 88.93 L 122.11 88.22 C 121.50 87.66 120.54 87.71 119.97 88.33 C 119.41 88.94 119.45 89.90 120.07 90.47 Z M 120.74 91.08 L 121.42 91.83 C 121.99 92.45 122.95 92.50 123.57 91.93 C 124.20 91.37 124.25 90.40 123.68 89.78 L 123.00 89.03 C 122.43 88.41 121.47 88.36 120.85 88.92 C 120.22 89.49 120.18 90.45 120.74 91.08 Z M 121.31 91.70 L 121.88 92.49 C 122.37 93.18 123.33 93.33 124.02 92.84 C 124.70 92.34 124.86 91.38 124.36 90.70 L 123.79 89.91 C 123.30 89.22 122.34 89.06 121.65 89.56 C 120.97 90.05 120.81 91.01 121.31 91.70 Z M 121.76 92.32 L 122.21 93.16 C 122.61 93.92 123.55 94.20 124.30 93.80 C 125.05 93.40 125.33 92.46 124.93 91.71 L 124.48 90.87 C 124.08 90.11 123.14 89.83 122.39 90.23 C 121.64 90.63 121.36 91.57 121.76 92.32 Z M 122.11 92.96 L 122.45 93.92 C 122.74 94.73 123.63 95.15 124.43 94.87 C 125.24 94.58 125.66 93.69 125.38 92.89 L 125.03 91.92 C 124.75 91.11 123.86 90.69 123.05 90.97 C 122.24 91.26 121.82 92.15 122.11 92.96 Z M 122.38 93.72 L 122.58 94.70 C 122.76 95.55 123.58 96.10 124.43 95.92 C 125.28 95.75 125.82 94.92 125.65 94.08 L 125.45 93.09 C 125.28 92.25 124.45 91.70 123.60 91.87 C 122.76 92.05 122.21 92.87 122.38 93.72 Z M 122.55 94.52 L 122.62 95.50 C 122.70 96.36 123.46 97.01 124.32 96.94 C 125.19 96.87 125.84 96.11 125.77 95.24 L 125.69 94.26 C 125.62 93.40 124.86 92.75 123.99 92.82 C 123.12 92.89 122.47 93.65 122.55 94.52 Z M 122.61 95.32 L 122.58 96.31 C 122.56 97.18 123.25 97.91 124.13 97.94 C 125.00 97.96 125.73 97.27 125.76 96.39 L 125.78 95.41 C 125.81 94.53 125.12 93.80 124.24 93.78 C 123.36 93.76 122.63 94.45 122.61 95.32 Z M 122.59 96.11 L 122.44 97.08 C 122.30 97.95 122.90 98.77 123.77 98.90 C 124.65 99.04 125.46 98.44 125.60 97.57 L 125.75 96.60 C 125.89 95.72 125.29 94.91 124.41 94.77 C 123.54 94.63 122.72 95.23 122.59 96.11 Z M 122.48 96.83 L 122.18 97.77 C 121.91 98.62 122.38 99.52 123.23 99.80 C 124.07 100.07 124.98 99.60 125.25 98.75 L 125.55 97.81 C 125.82 96.97 125.36 96.06 124.51 95.79 C 123.66 95.52 122.76 95.98 122.48 96.83 Z M 122.27 97.52 L 121.82 98.41 C 121.41 99.21 121.73 100.18 122.53 100.59 C 123.32 101.00 124.30 100.68 124.71 99.89 L 125.16 99.00 C 125.57 98.20 125.25 97.23 124.45 96.82 C 123.66 96.41 122.68 96.73 122.27 97.52 Z M 121.92 98.22 L 121.39 98.99 C 120.88 99.73 121.06 100.75 121.80 101.26 C 122.55 101.77 123.56 101.59 124.08 100.85 L 124.61 100.08 C 125.12 99.33 124.93 98.32 124.19 97.80 C 123.45 97.29 122.43 97.48 121.92 98.22 Z M 121.47 98.87 L 120.83 99.63 C 120.25 100.33 120.34 101.36 121.04 101.95 C 121.74 102.53 122.78 102.43 123.36 101.74 L 123.99 100.97 C 124.58 100.27 124.48 99.24 123.79 98.66 C 123.09 98.07 122.05 98.17 121.47 98.87 Z M 120.90 99.54 L 120.18 100.30 C 119.55 100.96 119.57 102.00 120.23 102.64 C 120.89 103.27 121.94 103.24 122.57 102.58 L 123.29 101.83 C 123.92 101.16 123.90 100.12 123.24 99.49 C 122.58 98.85 121.53 98.88 120.90 99.54 Z M 120.22 100.23 L 119.47 100.95 C 118.80 101.59 118.77 102.64 119.41 103.31 C 120.04 103.98 121.10 104.00 121.77 103.37 L 122.52 102.65 C 123.19 102.01 123.22 100.96 122.58 100.29 C 121.95 99.62 120.89 99.60 120.22 100.23 Z M 119.50 100.90 L 118.76 101.56 C 118.06 102.18 118.00 103.24 118.61 103.94 C 119.23 104.63 120.29 104.69 120.99 104.08 L 121.73 103.42 C 122.43 102.80 122.49 101.74 121.87 101.04 C 121.26 100.35 120.20 100.28 119.50 100.90 Z M 118.78 101.52 L 118.01 102.16 C 117.29 102.77 117.20 103.84 117.80 104.55 C 118.40 105.27 119.47 105.37 120.19 104.77 L 120.96 104.12 C 121.68 103.52 121.78 102.45 121.17 101.73 C 120.57 101.01 119.50 100.92 118.78 101.52 Z M 118.03 102.12 L 117.25 102.75 C 116.51 103.34 116.39 104.42 116.98 105.16 C 117.57 105.90 118.65 106.02 119.39 105.43 L 120.17 104.80 C 120.91 104.21 121.03 103.14 120.44 102.40 C 119.85 101.66 118.77 101.53 118.03 102.12 Z M 117.27 102.72 L 116.47 103.32 C 115.71 103.90 115.57 104.99 116.15 105.75 C 116.73 106.51 117.81 106.65 118.57 106.07 L 119.37 105.46 C 120.13 104.88 120.27 103.80 119.69 103.04 C 119.11 102.28 118.03 102.14 117.27 102.72 Z M 116.49 103.30 L 115.64 103.92 C 114.86 104.49 114.70 105.58 115.27 106.36 C 115.84 107.13 116.93 107.30 117.70 106.73 L 118.56 106.10 C 119.33 105.53 119.50 104.44 118.93 103.67 C 118.36 102.89 117.27 102.72 116.49 103.30 Z M 115.66 103.90 L 114.82 104.49 C 114.03 105.05 113.84 106.14 114.40 106.93 C 114.96 107.72 116.05 107.91 116.84 107.35 L 117.68 106.75 C 118.47 106.20 118.66 105.10 118.10 104.31 C 117.54 103.52 116.45 103.34 115.66 103.90 Z M 114.84 104.46 L 114.03 105.02 C 113.22 105.56 113.01 106.66 113.56 107.46 C 114.10 108.27 115.20 108.48 116.00 107.93 L 116.82 107.38 C 117.62 106.83 117.83 105.74 117.29 104.93 C 116.74 104.13 115.65 103.92 114.84 104.46 Z M 114.05 104.99 L 113.27 105.49 C 112.45 106.03 112.22 107.12 112.75 107.94 C 113.28 108.76 114.38 109.00 115.20 108.46 L 115.98 107.96 C 116.80 107.43 117.03 106.33 116.50 105.51 C 115.97 104.69 114.87 104.46 114.05 104.99 Z M 113.31 105.46 L 112.45 105.98 C 111.61 106.49 111.34 107.58 111.85 108.42 C 112.36 109.26 113.45 109.53 114.29 109.03 L 115.16 108.50 C 116.00 107.99 116.27 106.90 115.76 106.06 C 115.25 105.22 114.16 104.95 113.31 105.46 Z M 112.54 105.91 L 111.68 106.36 C 110.80 106.82 110.46 107.90 110.92 108.78 C 111.38 109.66 112.46 110.00 113.34 109.54 L 114.20 109.09 C 115.07 108.63 115.42 107.55 114.96 106.67 C 114.50 105.80 113.42 105.46 112.54 105.91 Z M 111.82 106.28 L 110.91 106.66 C 109.99 107.04 109.55 108.09 109.92 109.01 C 110.30 109.93 111.35 110.37 112.27 110.00 L 113.19 109.62 C 114.11 109.24 114.55 108.19 114.18 107.27 C 113.80 106.35 112.75 105.91 111.82 106.28 Z M 111.08 106.59 L 109.93 106.92 C 108.97 107.20 108.42 108.21 108.70 109.17 C 108.98 110.13 109.98 110.68 110.94 110.40 L 112.10 110.07 C 113.06 109.79 113.61 108.78 113.33 107.82 C 113.05 106.86 112.04 106.31 111.08 106.59 Z M 110.08 106.88 L 108.86 107.13 C 107.88 107.33 107.24 108.29 107.44 109.27 C 107.64 110.25 108.60 110.89 109.58 110.69 L 110.80 110.45 C 111.78 110.25 112.42 109.29 112.22 108.30 C 112.02 107.32 111.06 106.68 110.08 106.88 Z M 109.03 107.10 L 108.27 107.18 C 107.26 107.28 106.54 108.18 106.65 109.19 C 106.75 110.19 107.65 110.91 108.66 110.81 L 109.42 110.72 C 110.42 110.62 111.14 109.72 111.04 108.71 C 110.93 107.71 110.03 106.99 109.03 107.10 Z M 109.90 110.12 L 110.00 109.99 C 110.62 109.20 110.48 108.05 109.69 107.43 C 108.89 106.81 107.75 106.94 107.12 107.74 L 107.02 107.86 C 106.40 108.66 106.54 109.81 107.33 110.43 C 108.13 111.05 109.28 110.91 109.90 110.12 Z M 109.11 110.60 L 110.06 110.30 C 111.02 110.00 111.55 108.97 111.25 108.01 C 110.95 107.05 109.92 106.52 108.96 106.83 L 108.01 107.13 C 107.05 107.43 106.52 108.45 106.82 109.41 C 107.13 110.37 108.15 110.91 109.11 110.60 Z M 109.98 110.32 L 111.33 109.96 C 112.30 109.71 112.88 108.71 112.62 107.74 C 112.36 106.77 111.37 106.19 110.40 106.45 L 109.05 106.81 C 108.08 107.06 107.50 108.06 107.75 109.03 C 108.01 110.00 109.00 110.58 109.98 110.32 Z M 111.28 109.97 L 112.19 109.75 C 113.16 109.52 113.76 108.54 113.53 107.57 C 113.29 106.60 112.32 106.00 111.35 106.23 L 110.44 106.45 C 109.47 106.68 108.87 107.66 109.11 108.63 C 109.34 109.60 110.31 110.20 111.28 109.97 Z M 112.16 109.74 L 113.11 109.53 C 114.07 109.31 114.68 108.35 114.46 107.38 C 114.25 106.42 113.28 105.81 112.32 106.03 L 111.37 106.24 C 110.40 106.46 109.80 107.42 110.02 108.39 C 110.23 109.35 111.19 109.96 112.16 109.74 Z M 113.09 109.52 L 114.08 109.31 C 115.04 109.10 115.65 108.15 115.44 107.19 C 115.24 106.23 114.29 105.62 113.33 105.82 L 112.34 106.03 C 111.38 106.24 110.76 107.19 110.97 108.15 C 111.18 109.11 112.12 109.73 113.09 109.52 Z M 114.06 109.30 L 115.10 109.08 C 116.06 108.88 116.67 107.95 116.47 106.99 C 116.27 106.03 115.34 105.42 114.38 105.62 L 113.34 105.83 C 112.39 106.03 111.77 106.97 111.97 107.92 C 112.17 108.88 113.10 109.50 114.06 109.30 Z M 115.09 109.07 L 116.10 108.86 C 117.05 108.67 117.67 107.75 117.47 106.80 C 117.28 105.85 116.36 105.23 115.41 105.42 L 114.39 105.63 C 113.44 105.82 112.83 106.75 113.02 107.70 C 113.21 108.65 114.14 109.26 115.09 109.07 Z M 116.09 108.85 L 117.09 108.65 C 118.03 108.46 118.64 107.55 118.45 106.61 C 118.26 105.67 117.35 105.06 116.41 105.24 L 115.42 105.44 C 114.47 105.63 113.86 106.54 114.05 107.48 C 114.24 108.42 115.15 109.03 116.09 108.85 Z M 117.07 108.63 L 118.08 108.44 C 119.01 108.26 119.62 107.36 119.44 106.43 C 119.26 105.50 118.36 104.89 117.42 105.07 L 116.42 105.26 C 115.49 105.44 114.88 106.34 115.06 107.27 C 115.24 108.21 116.14 108.81 117.07 108.63 Z M 118.06 108.42 L 119.06 108.24 C 119.98 108.06 120.59 107.18 120.42 106.25 C 120.24 105.33 119.36 104.72 118.43 104.90 L 117.44 105.08 C 116.52 105.26 115.91 106.14 116.08 107.07 C 116.25 107.99 117.14 108.60 118.06 108.42 Z M 119.04 108.22 L 120.01 108.05 C 120.92 107.88 121.53 107.01 121.37 106.10 C 121.20 105.18 120.33 104.58 119.42 104.74 L 118.45 104.91 C 117.54 105.08 116.93 105.95 117.09 106.86 C 117.26 107.78 118.13 108.38 119.04 108.22 Z M 119.99 108.03 L 120.99 107.86 C 121.89 107.71 122.50 106.85 122.35 105.95 C 122.19 105.05 121.34 104.44 120.43 104.59 L 119.44 104.76 C 118.54 104.91 117.93 105.77 118.08 106.67 C 118.23 107.57 119.09 108.18 119.99 108.03 Z M 120.96 107.84 L 121.97 107.68 C 122.86 107.54 123.47 106.71 123.34 105.82 C 123.20 104.93 122.36 104.32 121.47 104.46 L 120.46 104.61 C 119.57 104.75 118.96 105.58 119.10 106.47 C 119.24 107.36 120.07 107.97 120.96 107.84 Z M 121.95 107.65 L 122.92 107.52 C 123.80 107.40 124.41 106.59 124.28 105.71 C 124.16 104.84 123.35 104.22 122.48 104.35 L 121.50 104.48 C 120.63 104.61 120.02 105.41 120.14 106.29 C 120.26 107.16 121.07 107.78 121.95 107.65 Z M 122.89 107.49 L 123.86 107.37 C 124.72 107.26 125.33 106.48 125.22 105.62 C 125.11 104.76 124.33 104.15 123.47 104.25 L 122.51 104.37 C 121.64 104.48 121.03 105.27 121.14 106.13 C 121.25 106.99 122.03 107.60 122.89 107.49 Z M 123.83 107.34 L 124.81 107.23 C 125.65 107.14 126.26 106.38 126.17 105.53 C 126.07 104.69 125.31 104.08 124.46 104.17 L 123.49 104.28 C 122.65 104.38 122.04 105.14 122.13 105.98 C 122.23 106.83 122.99 107.44 123.83 107.34 Z M 124.79 107.21 L 125.76 107.12 C 126.60 107.03 127.20 106.29 127.12 105.45 C 127.04 104.62 126.29 104.01 125.46 104.09 L 124.48 104.19 C 123.65 104.28 123.04 105.02 123.12 105.86 C 123.21 106.69 123.95 107.30 124.79 107.21 Z M 125.74 107.10 L 126.74 107.01 C 127.57 106.94 128.18 106.21 128.10 105.38 C 128.03 104.56 127.30 103.95 126.47 104.02 L 125.48 104.11 C 124.65 104.18 124.04 104.91 124.11 105.74 C 124.19 106.56 124.92 107.17 125.74 107.10 Z M 126.72 107.00 L 127.73 106.92 C 128.54 106.86 129.16 106.15 129.09 105.33 C 129.03 104.51 128.32 103.90 127.50 103.96 L 126.50 104.04 C 125.68 104.10 125.07 104.81 125.13 105.63 C 125.19 106.44 125.90 107.06 126.72 107.00 Z M 127.70 106.91 L 128.71 106.85 C 129.52 106.80 130.14 106.10 130.09 105.29 C 130.04 104.49 129.35 103.87 128.54 103.92 L 127.53 103.98 C 126.72 104.02 126.10 104.72 126.15 105.53 C 126.20 106.34 126.89 106.95 127.70 106.91 Z M 128.68 106.83 L 129.70 106.79 C 130.50 106.76 131.12 106.08 131.09 105.28 C 131.05 104.48 130.38 103.85 129.57 103.89 L 128.56 103.93 C 127.76 103.96 127.14 104.64 127.17 105.44 C 127.20 106.24 127.88 106.87 128.68 106.83 Z M 129.67 106.78 L 130.68 106.76 C 131.48 106.74 132.11 106.08 132.09 105.28 C 132.07 104.48 131.40 103.85 130.61 103.87 L 129.60 103.89 C 128.80 103.91 128.17 104.58 128.19 105.37 C 128.21 106.17 128.87 106.80 129.67 106.78 Z M 130.66 106.75 L 131.66 106.74 C 132.45 106.73 133.09 106.08 133.08 105.28 C 133.07 104.49 132.42 103.85 131.62 103.86 L 130.62 103.87 C 129.83 103.88 129.19 104.54 129.20 105.33 C 129.21 106.13 129.86 106.76 130.66 106.75 Z M 131.64 106.74 L 132.64 106.73 C 133.43 106.73 134.07 106.08 134.06 105.29 C 134.06 104.50 133.42 103.86 132.63 103.86 L 131.63 103.87 C 130.84 103.87 130.20 104.52 130.21 105.31 C 130.21 106.10 130.85 106.74 131.64 106.74 Z M 132.63 106.73 L 133.39 106.73 C 134.18 106.73 134.82 106.09 134.82 105.30 C 134.82 104.51 134.18 103.87 133.39 103.87 L 132.63 103.87 C 131.84 103.87 131.20 104.51 131.20 105.30 C 131.20 106.09 131.84 106.73 132.63 106.73 Z"
      fill="black"
      fill-rule="nonzero" /></svg>