<svg xmlns="http://www.w3.org/2000/svg" width="300" height="300" viewBox="0 0 300 300">
<path d="M 129.41 97.61 L 128.95 96.73 C 128.57 96.01 127.68 95.73 126.96 96.10 C 126.24 96.48 125.96 97.37 126.34 98.09 L 126.79 98.97 C 127.17 99.69 128.06 99.97 128.78 99.59 C 129.50 99.22 129.78 98.33 129.41 97.61 Z M 128.95 96.71 L 128.48 95.83 C 128.10 95.11 127.20 94.84 126.48 95.22 C 125.76 95.60 125.48 96.50 125.87 97.22 L 126.33 98.10 C 126.72 98.82 127.61 99.10 128.33 98.72 C 129.06 98.33 129.33 97.44 128.95 96.71 Z M 128.48 95.81 L 128.00 94.93 C 127.61 94.21 126.70 93.95 125.98 94.34 C 125.26 94.73 124.99 95.64 125.39 96.36 L 125.87 97.24 C 126.26 97.96 127.17 98.23 127.89 97.83 C 128.61 97.44 128.88 96.53 128.48 95.81 Z M 128.00 94.90 L 127.44 93.93 C 127.02 93.21 126.11 92.96 125.39 93.37 C 124.67 93.78 124.42 94.70 124.83 95.42 L 125.39 96.39 C 125.80 97.11 126.72 97.36 127.44 96.95 C 128.16 96.54 128.41 95.62 128.00 94.90 Z M 127.45 93.89 L 126.77 92.75 C 126.33 92.02 125.40 91.78 124.67 92.22 C 123.95 92.65 123.71 93.58 124.14 94.31 L 124.82 95.46 C 125.25 96.18 126.19 96.42 126.92 95.99 C 127.64 95.55 127.88 94.62 127.45 93.89 Z M 126.83 92.78 L 126.48 92.14 C 126.07 91.38 125.12 91.10 124.36 91.51 C 123.60 91.93 123.32 92.88 123.73 93.64 L 124.08 94.28 C 124.49 95.03 125.44 95.32 126.20 94.90 C 126.96 94.49 127.24 93.54 126.83 92.78 Z M 124.16 94.17 L 124.35 94.31 C 125.05 94.83 126.05 94.69 126.57 93.98 C 127.10 93.27 126.95 92.28 126.24 91.75 L 126.05 91.61 C 125.35 91.09 124.35 91.23 123.83 91.94 C 123.30 92.65 123.45 93.64 124.16 94.17 Z M 124.06 94.06 L 124.60 94.71 C 125.17 95.39 126.18 95.48 126.86 94.91 C 127.54 94.35 127.64 93.34 127.07 92.65 L 126.53 92.00 C 125.96 91.32 124.95 91.23 124.27 91.80 C 123.59 92.36 123.49 93.38 124.06 94.06 Z M 124.56 94.67 L 125.32 95.64 C 125.86 96.35 126.88 96.47 127.58 95.93 C 128.28 95.38 128.41 94.37 127.87 93.67 L 127.11 92.69 C 126.56 91.99 125.55 91.86 124.85 92.41 C 124.14 92.95 124.02 93.97 124.56 94.67 Z M 125.29 95.62 L 126.08 96.68 C 126.61 97.39 127.63 97.54 128.34 97.01 C 129.06 96.48 129.21 95.46 128.68 94.74 L 127.89 93.69 C 127.36 92.97 126.34 92.82 125.63 93.36 C 124.91 93.89 124.76 94.90 125.29 95.62 Z M 126.06 96.66 L 126.62 97.44 C 127.15 98.17 128.16 98.34 128.89 97.82 C 129.62 97.29 129.78 96.28 129.26 95.55 L 128.70 94.76 C 128.17 94.04 127.16 93.87 126.43 94.39 C 125.70 94.91 125.54 95.93 126.06 96.66 Z M 126.61 97.42 L 127.17 98.23 C 127.68 98.96 128.69 99.15 129.42 98.64 C 130.16 98.12 130.34 97.11 129.83 96.38 L 129.28 95.57 C 128.76 94.84 127.75 94.65 127.02 95.16 C 126.28 95.67 126.10 96.69 126.61 97.42 Z M 127.15 98.20 L 127.70 99.03 C 128.20 99.78 129.21 99.98 129.96 99.48 C 130.70 98.98 130.90 97.97 130.40 97.23 L 129.85 96.40 C 129.35 95.65 128.34 95.45 127.60 95.95 C 126.85 96.45 126.65 97.46 127.15 98.20 Z M 127.69 99.01 L 128.24 99.87 C 128.73 100.62 129.73 100.84 130.49 100.35 C 131.24 99.86 131.46 98.86 130.97 98.10 L 130.42 97.25 C 129.93 96.49 128.93 96.28 128.17 96.76 C 127.42 97.25 127.20 98.26 127.69 99.01 Z M 128.23 99.85 L 128.78 100.73 C 129.26 101.50 130.26 101.73 131.02 101.25 C 131.78 100.78 132.02 99.78 131.54 99.01 L 130.99 98.13 C 130.51 97.36 129.51 97.13 128.75 97.61 C 127.98 98.08 127.75 99.08 128.23 99.85 Z M 128.77 100.71 L 129.30 101.60 C 129.77 102.37 130.77 102.62 131.54 102.15 C 132.31 101.69 132.55 100.69 132.09 99.92 L 131.55 99.03 C 131.09 98.26 130.09 98.02 129.32 98.48 C 128.55 98.95 128.30 99.94 128.77 100.71 Z M 129.29 101.59 L 129.83 102.49 C 130.28 103.26 131.28 103.52 132.05 103.06 C 132.83 102.61 133.08 101.61 132.63 100.84 L 132.10 99.94 C 131.64 99.16 130.64 98.90 129.87 99.36 C 129.10 99.82 128.84 100.81 129.29 101.59 Z M 129.82 102.48 L 130.34 103.37 C 130.79 104.15 131.78 104.41 132.56 103.96 C 133.34 103.51 133.60 102.51 133.15 101.74 L 132.63 100.85 C 132.18 100.07 131.19 99.80 130.41 100.26 C 129.63 100.71 129.37 101.70 129.82 102.48 Z M 130.33 103.37 L 130.83 104.22 C 131.28 105.00 132.27 105.27 133.05 104.82 C 133.83 104.37 134.10 103.37 133.65 102.60 L 133.15 101.74 C 132.70 100.96 131.71 100.69 130.93 101.14 C 130.15 101.59 129.89 102.59 130.33 103.37 Z M 130.83 104.22 L 131.29 105.02 C 131.74 105.80 132.74 106.07 133.52 105.62 C 134.29 105.17 134.56 104.17 134.11 103.39 L 133.65 102.59 C 133.20 101.82 132.20 101.55 131.42 102.00 C 130.65 102.45 130.38 103.45 130.83 104.22 Z M 131.30 105.03 L 131.86 105.99 C 132.31 106.76 133.31 107.02 134.09 106.57 C 134.86 106.11 135.12 105.12 134.67 104.34 L 134.10 103.38 C 133.65 102.61 132.65 102.35 131.88 102.81 C 131.10 103.26 130.84 104.26 131.30 105.03 Z M 131.87 106.00 L 132.40 106.89 C 132.86 107.66 133.85 107.92 134.63 107.46 C 135.40 107.00 135.65 106.00 135.19 105.23 L 134.66 104.33 C 134.20 103.56 133.20 103.31 132.43 103.77 C 131.66 104.23 131.41 105.23 131.87 106.00 Z M 132.40 106.89 L 132.87 107.69 C 133.33 108.46 134.33 108.72 135.10 108.26 C 135.87 107.80 136.13 106.80 135.67 106.03 L 135.19 105.23 C 134.73 104.46 133.74 104.20 132.96 104.66 C 132.19 105.12 131.94 106.12 132.40 106.89 Z M 132.87 107.68 L 133.31 108.44 C 133.76 109.21 134.75 109.48 135.53 109.03 C 136.31 108.58 136.57 107.58 136.12 106.81 L 135.68 106.04 C 135.23 105.27 134.23 105.00 133.46 105.45 C 132.68 105.91 132.41 106.90 132.87 107.68 Z M 133.29 108.41 L 133.73 109.19 C 134.16 109.97 135.15 110.26 135.94 109.82 C 136.72 109.38 137.00 108.39 136.57 107.61 L 136.13 106.83 C 135.70 106.05 134.71 105.76 133.92 106.20 C 133.14 106.64 132.86 107.63 133.29 108.41 Z M 133.71 109.16 L 134.16 110.00 C 134.58 110.79 135.57 111.09 136.36 110.67 C 137.15 110.25 137.45 109.26 137.03 108.47 L 136.58 107.64 C 136.16 106.84 135.17 106.54 134.38 106.97 C 133.59 107.39 133.29 108.37 133.71 109.16 Z M 134.15 109.98 L 134.64 110.93 C 135.05 111.73 136.03 112.04 136.83 111.63 C 137.63 111.22 137.94 110.24 137.53 109.44 L 137.03 108.49 C 136.62 107.69 135.64 107.38 134.85 107.80 C 134.05 108.21 133.74 109.19 134.15 109.98 Z M 134.64 110.92 L 135.12 111.88 C 135.53 112.68 136.51 112.99 137.31 112.59 C 138.10 112.18 138.42 111.20 138.02 110.41 L 137.53 109.45 C 137.12 108.65 136.15 108.33 135.35 108.74 C 134.55 109.15 134.23 110.12 134.64 110.92 Z M 135.12 111.87 L 135.57 112.76 C 135.97 113.56 136.95 113.88 137.75 113.48 C 138.55 113.07 138.87 112.10 138.46 111.30 L 138.02 110.41 C 137.61 109.61 136.64 109.29 135.84 109.69 C 135.04 110.10 134.72 111.07 135.12 111.87 Z M 135.57 112.76 L 136.04 113.68 C 136.44 114.48 137.41 114.81 138.21 114.41 C 139.01 114.01 139.33 113.03 138.93 112.23 L 138.47 111.30 C 138.06 110.50 137.09 110.18 136.29 110.58 C 135.49 110.98 135.17 111.96 135.57 112.76 Z M 136.04 113.68 L 136.50 114.61 C 136.90 115.41 137.87 115.74 138.67 115.34 C 139.47 114.94 139.79 113.97 139.40 113.17 L 138.93 112.24 C 138.53 111.44 137.56 111.11 136.76 111.51 C 135.96 111.91 135.64 112.88 136.04 113.68 Z M 136.50 114.61 L 136.94 115.50 C 137.34 116.30 138.31 116.62 139.11 116.23 C 139.91 115.83 140.23 114.86 139.84 114.06 L 139.40 113.17 C 139.00 112.37 138.03 112.04 137.23 112.44 C 136.43 112.84 136.10 113.81 136.50 114.61 Z M 136.94 115.49 L 137.41 116.45 C 137.81 117.25 138.77 117.58 139.57 117.19 C 140.37 116.79 140.70 115.83 140.31 115.03 L 139.84 114.07 C 139.44 113.27 138.48 112.94 137.68 113.33 C 136.88 113.72 136.55 114.69 136.94 115.49 Z M 137.42 116.44 L 137.89 117.41 C 138.27 118.21 139.23 118.54 140.03 118.15 C 140.83 117.76 141.16 116.80 140.78 116.01 L 140.31 115.04 C 139.92 114.24 138.96 113.91 138.16 114.29 C 137.36 114.68 137.03 115.64 137.42 116.44 Z M 137.89 117.40 L 138.30 118.25 C 138.68 119.05 139.64 119.38 140.43 119.00 C 141.23 118.62 141.56 117.66 141.18 116.87 L 140.77 116.02 C 140.39 115.22 139.43 114.88 138.64 115.27 C 137.84 115.65 137.51 116.60 137.89 117.40 Z M 138.30 118.24 L 138.68 119.04 C 139.06 119.83 140.01 120.17 140.80 119.79 C 141.60 119.41 141.93 118.46 141.55 117.67 L 141.18 116.88 C 140.80 116.08 139.85 115.75 139.06 116.12 C 138.26 116.50 137.93 117.45 138.30 118.24 Z M 138.69 119.03 L 139.07 119.83 C 139.44 120.62 140.39 120.95 141.18 120.58 C 141.97 120.20 142.30 119.25 141.93 118.47 L 141.55 117.67 C 141.17 116.88 140.23 116.55 139.44 116.92 C 138.65 117.30 138.31 118.24 138.69 119.03 Z M 139.07 119.82 L 139.48 120.67 C 139.85 121.46 140.79 121.79 141.58 121.42 C 142.36 121.04 142.70 120.10 142.32 119.31 L 141.92 118.47 C 141.55 117.68 140.60 117.35 139.82 117.72 C 139.03 118.10 138.70 119.04 139.07 119.82 Z M 139.48 120.67 L 139.94 121.62 C 140.31 122.41 141.25 122.74 142.03 122.37 C 142.81 121.99 143.14 121.06 142.77 120.27 L 142.32 119.32 C 141.94 118.53 141.01 118.20 140.22 118.57 C 139.44 118.95 139.11 119.88 139.48 120.67 Z M 139.94 121.62 L 140.40 122.59 C 140.77 123.37 141.71 123.70 142.49 123.33 C 143.27 122.96 143.60 122.03 143.23 121.25 L 142.77 120.28 C 142.40 119.50 141.46 119.17 140.68 119.54 C 139.90 119.91 139.57 120.84 139.94 121.62 Z M 140.41 122.59 L 140.82 123.45 C 141.19 124.22 142.12 124.55 142.90 124.18 C 143.67 123.81 144.00 122.88 143.63 122.11 L 143.22 121.25 C 142.85 120.47 141.92 120.14 141.14 120.51 C 140.37 120.88 140.04 121.81 140.41 122.59 Z M 140.83 123.45 L 141.27 124.36 C 141.64 125.13 142.57 125.46 143.34 125.08 C 144.11 124.71 144.43 123.78 144.06 123.01 L 143.62 122.10 C 143.25 121.33 142.32 121.01 141.55 121.38 C 140.78 121.75 140.45 122.68 140.83 123.45 Z M 141.28 124.37 L 141.74 125.30 C 142.11 126.07 143.04 126.38 143.80 126.01 C 144.57 125.63 144.89 124.70 144.51 123.94 L 144.05 123.01 C 143.67 122.24 142.75 121.92 141.98 122.30 C 141.22 122.68 140.90 123.60 141.28 124.37 Z M 141.75 125.31 L 142.22 126.24 C 142.60 127.00 143.52 127.30 144.28 126.92 C 145.04 126.54 145.35 125.61 144.96 124.85 L 144.50 123.93 C 144.11 123.17 143.19 122.86 142.43 123.25 C 141.67 123.63 141.36 124.56 141.75 125.31 Z M 142.23 126.26 L 142.71 127.18 C 143.11 127.93 144.03 128.21 144.78 127.82 C 145.53 127.43 145.82 126.50 145.43 125.75 L 144.95 124.83 C 144.55 124.08 143.63 123.79 142.88 124.19 C 142.13 124.58 141.84 125.51 142.23 126.26 Z M 142.74 127.20 L 143.26 128.14 C 143.67 128.87 144.60 129.14 145.33 128.73 C 146.07 128.32 146.33 127.39 145.92 126.66 L 145.40 125.72 C 144.99 124.99 144.06 124.72 143.33 125.13 C 142.60 125.54 142.33 126.47 142.74 127.20 Z M 143.30 128.19 L 143.83 129.05 C 144.27 129.76 145.20 129.98 145.91 129.55 C 146.62 129.11 146.84 128.18 146.41 127.47 L 145.88 126.61 C 145.44 125.90 144.52 125.68 143.80 126.11 C 143.09 126.55 142.87 127.47 143.30 128.19 Z M 143.89 129.11 L 144.44 129.91 C 144.91 130.59 145.84 130.76 146.52 130.29 C 147.20 129.82 147.37 128.88 146.90 128.20 L 146.35 127.41 C 145.88 126.73 144.95 126.56 144.27 127.03 C 143.59 127.50 143.42 128.43 143.89 129.11 Z M 144.52 129.98 L 145.10 130.72 C 145.62 131.35 146.55 131.46 147.19 130.94 C 147.83 130.43 147.93 129.50 147.41 128.86 L 146.83 128.13 C 146.31 127.49 145.38 127.39 144.74 127.90 C 144.10 128.41 144.00 129.35 144.52 129.98 Z M 145.20 130.80 L 145.87 131.51 C 146.43 132.10 147.36 132.12 147.95 131.56 C 148.54 131.00 148.56 130.07 148.00 129.48 L 147.32 128.77 C 146.76 128.18 145.83 128.16 145.24 128.72 C 144.66 129.29 144.63 130.22 145.20 130.80 Z M 145.96 131.58 L 146.70 132.25 C 147.30 132.78 148.22 132.73 148.76 132.13 C 149.30 131.53 149.25 130.61 148.65 130.07 L 147.91 129.41 C 147.31 128.87 146.39 128.92 145.85 129.52 C 145.31 130.12 145.36 131.04 145.96 131.58 Z M 146.77 132.29 L 147.55 132.92 C 148.17 133.42 149.09 133.32 149.59 132.69 C 150.09 132.07 149.99 131.15 149.36 130.65 L 148.58 130.03 C 147.96 129.53 147.04 129.63 146.54 130.25 C 146.04 130.88 146.14 131.79 146.77 132.29 Z M 147.59 132.94 L 148.39 133.54 C 149.03 134.02 149.93 133.89 150.41 133.25 C 150.89 132.61 150.76 131.71 150.12 131.23 L 149.32 130.63 C 148.68 130.15 147.78 130.28 147.30 130.92 C 146.82 131.56 146.95 132.46 147.59 132.94 Z M 148.41 133.54 L 148.82 133.84 C 149.46 134.31 150.35 134.17 150.82 133.53 C 151.29 132.89 151.15 131.99 150.51 131.53 L 150.11 131.23 C 149.47 130.76 148.57 130.90 148.10 131.54 C 147.63 132.18 147.77 133.07 148.41 133.54 Z"
      fill="black"
      fill-rule="nonzero" /><path d="M 174.79 105.07 L 174.48 104.16 C 174.21 103.36 173.34 102.93 172.54 103.20 C 171.74 103.48 171.31 104.35 171.58 105.15 L 171.90 106.06 C 172.17 106.86 173.04 107.28 173.84 107.01 C 174.64 106.74 175.06 105.87 174.79 105.07 Z M 174.47 104.09 L 174.12 103.18 C 173.81 102.38 172.92 101.99 172.12 102.30 C 171.32 102.61 170.93 103.50 171.24 104.30 L 171.59 105.21 C 171.90 106.01 172.80 106.40 173.59 106.09 C 174.39 105.78 174.78 104.89 174.47 104.09 Z M 174.09 103.06 L 173.64 102.14 C 173.27 101.37 172.34 101.04 171.56 101.41 C 170.78 101.78 170.46 102.72 170.83 103.49 L 171.27 104.41 C 171.64 105.19 172.58 105.52 173.35 105.14 C 174.13 104.77 174.46 103.84 174.09 103.06 Z M 173.58 102.00 L 173.05 101.13 C 172.60 100.39 171.63 100.15 170.89 100.61 C 170.15 101.06 169.91 102.03 170.36 102.77 L 170.90 103.64 C 171.35 104.38 172.31 104.61 173.06 104.16 C 173.80 103.71 174.03 102.74 173.58 102.00 Z M 172.96 101.00 L 172.36 100.19 C 171.83 99.50 170.84 99.36 170.15 99.89 C 169.45 100.41 169.32 101.40 169.84 102.10 L 170.45 102.90 C 170.97 103.59 171.96 103.73 172.66 103.21 C 173.35 102.68 173.49 101.69 172.96 101.00 Z M 172.26 100.08 L 171.57 99.33 C 170.98 98.68 169.98 98.64 169.34 99.24 C 168.70 99.83 168.66 100.83 169.25 101.47 L 169.94 102.22 C 170.53 102.86 171.53 102.90 172.17 102.31 C 172.81 101.72 172.85 100.72 172.26 100.08 Z M 171.45 99.20 L 170.69 98.55 C 170.03 97.97 169.03 98.04 168.46 98.70 C 167.89 99.36 167.96 100.36 168.62 100.93 L 169.37 101.59 C 170.03 102.16 171.03 102.09 171.60 101.44 C 172.18 100.78 172.11 99.78 171.45 99.20 Z M 170.52 98.41 L 169.70 97.88 C 168.97 97.40 167.99 97.60 167.51 98.33 C 167.03 99.06 167.23 100.05 167.96 100.53 L 168.78 101.07 C 169.52 101.55 170.50 101.34 170.98 100.61 C 171.46 99.88 171.26 98.89 170.52 98.41 Z M 169.49 97.75 L 168.61 97.35 C 167.81 96.99 166.86 97.34 166.50 98.14 C 166.14 98.94 166.49 99.89 167.29 100.25 L 168.18 100.65 C 168.98 101.01 169.92 100.66 170.28 99.86 C 170.65 99.06 170.29 98.11 169.49 97.75 Z M 168.39 97.26 L 167.45 96.99 C 166.60 96.75 165.72 97.24 165.47 98.08 C 165.23 98.93 165.71 99.82 166.56 100.06 L 167.51 100.34 C 168.35 100.58 169.24 100.09 169.48 99.24 C 169.73 98.40 169.24 97.51 168.39 97.26 Z M 167.27 96.94 L 166.25 96.78 C 165.38 96.63 164.55 97.22 164.41 98.10 C 164.26 98.97 164.85 99.80 165.73 99.94 L 166.74 100.11 C 167.62 100.26 168.45 99.67 168.59 98.79 C 168.74 97.92 168.14 97.09 167.27 96.94 Z M 166.12 96.75 L 165.12 96.67 C 164.23 96.60 163.46 97.26 163.39 98.15 C 163.31 99.03 163.97 99.81 164.86 99.88 L 165.86 99.97 C 166.75 100.04 167.52 99.38 167.60 98.49 C 167.67 97.60 167.01 96.83 166.12 96.75 Z M 165.01 96.66 L 164.00 96.65 C 163.11 96.64 162.38 97.36 162.37 98.25 C 162.36 99.14 163.07 99.87 163.96 99.88 L 164.97 99.89 C 165.86 99.90 166.59 99.19 166.60 98.30 C 166.62 97.41 165.90 96.68 165.01 96.66 Z M 163.88 96.65 L 162.86 96.72 C 161.97 96.78 161.29 97.54 161.35 98.44 C 161.41 99.33 162.18 100.00 163.07 99.95 L 164.08 99.88 C 164.98 99.82 165.65 99.05 165.59 98.16 C 165.54 97.27 164.77 96.60 163.88 96.65 Z M 162.71 96.73 L 161.72 96.89 C 160.84 97.02 160.24 97.85 160.37 98.73 C 160.51 99.62 161.34 100.22 162.22 100.09 L 163.21 99.93 C 164.10 99.79 164.70 98.97 164.56 98.08 C 164.43 97.20 163.60 96.59 162.71 96.73 Z M 161.54 96.92 L 160.56 97.19 C 159.70 97.43 159.19 98.33 159.43 99.19 C 159.67 100.05 160.57 100.56 161.43 100.32 L 162.41 100.05 C 163.27 99.81 163.78 98.91 163.54 98.05 C 163.30 97.19 162.40 96.68 161.54 96.92 Z M 160.35 97.27 L 159.41 97.68 C 158.58 98.03 158.20 98.99 158.56 99.81 C 158.92 100.63 159.87 101.01 160.70 100.66 L 161.64 100.25 C 162.47 99.89 162.84 98.94 162.49 98.11 C 162.13 97.29 161.18 96.91 160.35 97.27 Z M 159.22 97.77 L 158.37 98.27 C 157.60 98.73 157.34 99.73 157.80 100.50 C 158.25 101.27 159.25 101.53 160.02 101.07 L 160.88 100.57 C 161.65 100.11 161.91 99.11 161.45 98.34 C 160.99 97.57 160.00 97.31 159.22 97.77 Z M 158.23 98.36 L 157.45 98.94 C 156.73 99.47 156.58 100.49 157.11 101.21 C 157.65 101.94 158.67 102.09 159.39 101.55 L 160.16 100.98 C 160.89 100.45 161.04 99.43 160.50 98.70 C 159.97 97.98 158.95 97.83 158.23 98.36 Z M 157.35 99.02 L 156.61 99.67 C 155.93 100.26 155.86 101.29 156.45 101.97 C 157.04 102.64 158.07 102.71 158.75 102.12 L 159.49 101.47 C 160.17 100.88 160.24 99.85 159.65 99.17 C 159.06 98.50 158.03 98.43 157.35 99.02 Z M 156.52 99.75 L 155.82 100.45 C 155.18 101.09 155.19 102.13 155.82 102.76 C 156.46 103.40 157.50 103.39 158.13 102.75 L 158.83 102.04 C 159.47 101.40 159.46 100.37 158.83 99.74 C 158.19 99.10 157.15 99.11 156.52 99.75 Z M 155.74 100.54 L 155.09 101.29 C 154.50 101.97 154.58 103.00 155.26 103.59 C 155.95 104.18 156.98 104.10 157.56 103.42 L 158.21 102.67 C 158.80 101.98 158.72 100.95 158.04 100.36 C 157.36 99.78 156.32 99.85 155.74 100.54 Z M 155.02 101.37 L 154.42 102.16 C 153.88 102.88 154.02 103.91 154.74 104.45 C 155.47 105.00 156.49 104.85 157.04 104.13 L 157.63 103.34 C 158.18 102.62 158.03 101.59 157.31 101.05 C 156.59 100.50 155.56 100.65 155.02 101.37 Z M 154.37 102.24 L 153.83 103.04 C 153.33 103.79 153.53 104.81 154.28 105.31 C 155.03 105.81 156.05 105.61 156.55 104.86 L 157.09 104.06 C 157.59 103.31 157.39 102.29 156.64 101.79 C 155.89 101.28 154.87 101.48 154.37 102.24 Z M 153.78 103.10 L 153.27 103.95 C 152.81 104.73 153.06 105.74 153.84 106.21 C 154.61 106.67 155.62 106.42 156.09 105.65 L 156.60 104.79 C 157.07 104.02 156.81 103.01 156.04 102.54 C 155.26 102.08 154.25 102.33 153.78 103.10 Z M 153.24 104.02 L 152.75 104.92 C 152.31 105.71 152.61 106.71 153.41 107.15 C 154.21 107.58 155.21 107.28 155.64 106.48 L 156.13 105.58 C 156.56 104.79 156.26 103.79 155.47 103.35 C 154.67 102.92 153.67 103.22 153.24 104.02 Z M 152.72 104.97 L 152.26 105.90 C 151.86 106.71 152.19 107.70 153.01 108.10 C 153.83 108.51 154.81 108.17 155.22 107.35 L 155.67 106.43 C 156.07 105.61 155.74 104.62 154.92 104.22 C 154.11 103.82 153.12 104.15 152.72 104.97 Z M 152.23 105.95 L 151.81 106.88 C 151.44 107.71 151.80 108.69 152.63 109.06 C 153.47 109.44 154.44 109.07 154.82 108.24 L 155.24 107.31 C 155.62 106.48 155.25 105.50 154.42 105.12 C 153.59 104.75 152.61 105.12 152.23 105.95 Z M 151.79 106.92 L 151.40 107.86 C 151.05 108.70 151.45 109.67 152.29 110.02 C 153.13 110.37 154.10 109.97 154.45 109.13 L 154.84 108.20 C 155.19 107.35 154.79 106.39 153.95 106.03 C 153.11 105.68 152.14 106.08 151.79 106.92 Z M 151.38 107.90 L 151.03 108.82 C 150.70 109.67 151.13 110.63 151.98 110.95 C 152.83 111.28 153.79 110.86 154.12 110.00 L 154.47 109.09 C 154.80 108.24 154.37 107.28 153.52 106.95 C 152.66 106.62 151.71 107.05 151.38 107.90 Z M 151.01 108.86 L 150.70 109.74 C 150.40 110.60 150.86 111.55 151.72 111.85 C 152.58 112.15 153.53 111.70 153.83 110.83 L 154.14 109.96 C 154.44 109.09 153.98 108.15 153.12 107.85 C 152.25 107.54 151.31 108.00 151.01 108.86 Z M 150.68 109.81 L 150.42 110.68 C 150.15 111.55 150.65 112.48 151.52 112.74 C 152.40 113.01 153.32 112.51 153.59 111.64 L 153.85 110.77 C 154.12 109.89 153.62 108.97 152.75 108.70 C 151.87 108.43 150.95 108.93 150.68 109.81 Z M 150.39 110.75 L 150.16 111.69 C 149.93 112.58 150.47 113.48 151.36 113.71 C 152.25 113.93 153.15 113.39 153.38 112.50 L 153.61 111.56 C 153.84 110.67 153.30 109.77 152.41 109.55 C 151.52 109.32 150.62 109.86 150.39 110.75 Z M 150.14 111.76 L 149.92 112.85 C 149.73 113.75 150.31 114.63 151.21 114.82 C 152.11 115.00 152.99 114.42 153.17 113.52 L 153.39 112.43 C 153.58 111.53 153.00 110.65 152.10 110.47 C 151.20 110.28 150.32 110.86 150.14 111.76 Z M 149.90 112.90 L 149.73 113.88 C 149.57 114.79 150.18 115.65 151.08 115.81 C 151.99 115.97 152.85 115.37 153.01 114.46 L 153.18 113.48 C 153.34 112.57 152.74 111.71 151.83 111.55 C 150.93 111.39 150.06 111.99 149.90 112.90 Z M 149.72 113.91 L 149.57 114.90 C 149.42 115.81 150.04 116.67 150.95 116.81 C 151.86 116.95 152.71 116.34 152.86 115.43 L 153.01 114.43 C 153.16 113.53 152.54 112.67 151.63 112.53 C 150.72 112.38 149.87 113.00 149.72 113.91 Z M 149.56 114.92 L 149.41 115.96 C 149.27 116.87 149.90 117.72 150.82 117.85 C 151.73 117.99 152.57 117.36 152.71 116.45 L 152.86 115.41 C 153.00 114.50 152.37 113.65 151.45 113.52 C 150.54 113.38 149.70 114.01 149.56 114.92 Z M 149.40 115.98 L 149.26 117.02 C 149.14 117.93 149.78 118.77 150.69 118.90 C 151.61 119.02 152.45 118.38 152.57 117.47 L 152.71 116.43 C 152.84 115.51 152.20 114.67 151.28 114.55 C 150.37 114.42 149.53 115.06 149.40 115.98 Z M 149.26 117.03 L 149.13 118.03 C 149.02 118.94 149.67 119.78 150.59 119.89 C 151.50 120.01 152.34 119.36 152.45 118.44 L 152.58 117.45 C 152.69 116.53 152.04 115.70 151.12 115.58 C 150.21 115.47 149.37 116.12 149.26 117.03 Z M 149.13 118.05 L 149.01 119.08 C 148.91 120.00 149.57 120.83 150.49 120.93 C 151.41 121.03 152.24 120.37 152.34 119.45 L 152.46 118.42 C 152.56 117.50 151.90 116.67 150.98 116.57 C 150.06 116.47 149.23 117.13 149.13 118.05 Z M 149.01 119.11 L 148.91 120.22 C 148.83 121.15 149.51 121.96 150.43 122.04 C 151.35 122.13 152.16 121.45 152.25 120.53 L 152.35 119.41 C 152.43 118.49 151.75 117.68 150.83 117.59 C 149.91 117.51 149.09 118.19 149.01 119.11 Z M 148.90 120.26 L 148.84 121.22 C 148.78 122.15 149.48 122.95 150.40 123.01 C 151.33 123.07 152.13 122.37 152.19 121.45 L 152.25 120.49 C 152.31 119.56 151.61 118.76 150.69 118.70 C 149.77 118.64 148.97 119.34 148.90 120.26 Z M 148.84 121.25 L 148.79 122.14 C 148.75 123.07 149.47 123.85 150.39 123.90 C 151.32 123.94 152.11 123.23 152.15 122.30 L 152.19 121.41 C 152.24 120.49 151.52 119.70 150.59 119.66 C 149.67 119.61 148.88 120.33 148.84 121.25 Z M 148.79 122.15 L 148.76 123.07 C 148.72 123.99 149.44 124.78 150.37 124.81 C 151.30 124.85 152.08 124.13 152.11 123.20 L 152.15 122.29 C 152.19 121.36 151.47 120.58 150.54 120.54 C 149.61 120.50 148.83 121.23 148.79 122.15 Z M 148.75 123.07 L 148.72 124.04 C 148.68 124.97 149.40 125.75 150.33 125.79 C 151.26 125.82 152.04 125.10 152.08 124.17 L 152.12 123.20 C 152.15 122.27 151.43 121.49 150.50 121.45 C 149.57 121.42 148.79 122.14 148.75 123.07 Z M 148.71 124.03 L 148.67 125.04 C 148.63 125.97 149.35 126.76 150.28 126.80 C 151.21 126.84 152.00 126.12 152.04 125.19 L 152.08 124.18 C 152.12 123.25 151.40 122.46 150.47 122.42 C 149.54 122.38 148.75 123.10 148.71 124.03 Z M 148.67 125.03 L 148.62 126.09 C 148.57 127.02 149.29 127.81 150.22 127.85 C 151.15 127.90 151.94 127.18 151.99 126.25 L 152.04 125.20 C 152.08 124.27 151.36 123.48 150.43 123.43 C 149.50 123.39 148.71 124.10 148.67 125.03 Z M 148.62 126.08 L 148.57 127.02 C 148.52 127.95 149.23 128.75 150.16 128.80 C 151.09 128.85 151.89 128.13 151.94 127.20 L 151.99 126.26 C 152.04 125.33 151.32 124.53 150.39 124.48 C 149.46 124.43 148.67 125.14 148.62 126.08 Z M 148.56 127.02 L 148.51 127.99 C 148.46 128.93 149.17 129.72 150.10 129.78 C 151.03 129.83 151.83 129.12 151.88 128.19 L 151.94 127.21 C 151.99 126.28 151.28 125.48 150.35 125.43 C 149.42 125.37 148.62 126.09 148.56 127.02 Z M 148.51 128.00 L 148.45 129.01 C 148.40 129.94 149.12 130.74 150.05 130.79 C 150.98 130.84 151.78 130.13 151.83 129.20 L 151.88 128.18 C 151.93 127.25 151.22 126.45 150.29 126.40 C 149.36 126.35 148.56 127.07 148.51 128.00 Z M 148.45 129.02 L 148.40 130.07 C 148.35 131.00 149.07 131.80 150.00 131.84 C 150.94 131.89 151.73 131.17 151.78 130.24 L 151.83 129.19 C 151.88 128.25 151.16 127.46 150.22 127.41 C 149.29 127.37 148.50 128.09 148.45 129.02 Z M 148.40 130.08 L 148.36 131.04 C 148.32 131.97 149.04 132.76 149.98 132.80 C 150.91 132.84 151.70 132.12 151.74 131.18 L 151.78 130.22 C 151.82 129.29 151.09 128.50 150.16 128.46 C 149.23 128.42 148.44 129.15 148.40 130.08 Z M 148.35 131.05 L 148.32 132.02 C 148.28 132.95 149.01 133.74 149.95 133.77 C 150.88 133.81 151.67 133.08 151.70 132.15 L 151.74 131.18 C 151.78 130.24 151.05 129.45 150.11 129.42 C 149.18 129.38 148.39 130.11 148.35 131.05 Z M 148.31 132.02 L 148.28 133.01 C 148.24 133.95 148.97 134.74 149.91 134.78 C 150.84 134.81 151.63 134.08 151.67 133.14 L 151.71 132.15 C 151.74 131.21 151.01 130.42 150.08 130.38 C 149.14 130.35 148.35 131.08 148.31 132.02 Z M 148.27 133.01 L 148.23 134.04 C 148.19 134.97 148.92 135.77 149.86 135.81 C 150.80 135.85 151.59 135.12 151.63 134.18 L 151.67 133.15 C 151.71 132.21 150.98 131.42 150.04 131.38 C 149.11 131.34 148.31 132.07 148.27 133.01 Z M 148.23 134.03 L 148.18 135.07 C 148.13 136.00 148.86 136.80 149.80 136.85 C 150.73 136.89 151.53 136.17 151.58 135.23 L 151.63 134.19 C 151.67 133.25 150.95 132.45 150.01 132.41 C 149.07 132.36 148.27 133.09 148.23 134.03 Z M 148.18 135.05 L 148.12 135.99 C 148.07 136.93 148.79 137.74 149.73 137.79 C 150.67 137.84 151.47 137.12 151.53 136.18 L 151.58 135.24 C 151.63 134.31 150.91 133.50 149.97 133.45 C 149.04 133.39 148.23 134.11 148.18 135.05 Z M 148.12 135.98 L 148.06 136.95 C 148.01 137.89 148.72 138.70 149.66 138.75 C 150.60 138.81 151.41 138.10 151.47 137.16 L 151.53 136.19 C 151.59 135.25 150.87 134.45 149.93 134.39 C 148.99 134.33 148.18 135.04 148.12 135.98 Z M 148.06 136.94 L 148.00 137.93 C 147.94 138.87 148.65 139.68 149.59 139.75 C 150.53 139.81 151.34 139.10 151.40 138.16 L 151.47 137.17 C 151.53 136.23 150.82 135.41 149.88 135.35 C 148.94 135.29 148.13 136.00 148.06 136.94 Z M 148.00 137.93 L 147.93 138.95 C 147.86 139.89 148.57 140.70 149.51 140.77 C 150.46 140.83 151.27 140.12 151.33 139.18 L 151.40 138.16 C 151.47 137.22 150.76 136.41 149.82 136.34 C 148.87 136.28 148.06 136.99 148.00 137.93 Z M 147.93 138.95 L 147.86 140.00 C 147.79 140.94 148.50 141.76 149.44 141.82 C 150.38 141.88 151.20 141.17 151.26 140.23 L 151.33 139.18 C 151.40 138.24 150.69 137.42 149.75 137.36 C 148.81 137.30 147.99 138.01 147.93 138.95 Z M 147.85 140.00 L 147.79 141.01 C 147.72 141.95 148.44 142.76 149.38 142.82 C 150.32 142.89 151.13 142.17 151.20 141.23 L 151.26 140.23 C 151.33 139.29 150.61 138.47 149.67 138.41 C 148.73 138.35 147.92 139.06 147.85 140.00 Z M 147.79 141.01 L 147.72 141.98 C 147.66 142.93 148.38 143.74 149.32 143.80 C 150.26 143.86 151.07 143.15 151.14 142.21 L 151.20 141.23 C 151.26 140.29 150.55 139.47 149.60 139.41 C 148.66 139.35 147.85 140.07 147.79 141.01 Z M 147.72 141.99 L 147.66 142.98 C 147.60 143.92 148.31 144.74 149.26 144.80 C 150.20 144.86 151.01 144.14 151.07 143.20 L 151.14 142.20 C 151.20 141.26 150.48 140.45 149.54 140.39 C 148.59 140.33 147.78 141.04 147.72 141.99 Z M 147.66 142.98 L 147.59 143.99 C 147.54 144.93 148.25 145.74 149.20 145.80 C 150.14 145.86 150.95 145.14 151.01 144.20 L 151.07 143.20 C 151.13 142.25 150.42 141.44 149.47 141.38 C 148.53 141.32 147.72 142.04 147.66 142.98 Z M 147.59 143.99 L 147.53 145.00 C 147.47 145.95 148.19 146.76 149.13 146.82 C 150.08 146.88 150.89 146.16 150.95 145.21 L 151.01 144.20 C 151.07 143.26 150.35 142.44 149.41 142.39 C 148.47 142.33 147.65 143.04 147.59 143.99 Z M 147.53 145.00 L 147.47 146.02 C 147.41 146.96 148.13 147.78 149.07 147.83 C 150.01 147.89 150.83 147.17 150.89 146.23 L 150.95 145.21 C 151.01 144.27 150.29 143.46 149.35 143.40 C 148.40 143.34 147.59 144.06 147.53 145.00 Z M 147.46 146.02 L 147.40 147.02 C 147.34 147.97 148.06 148.78 149.01 148.84 C 149.95 148.90 150.77 148.18 150.82 147.24 L 150.89 146.23 C 150.95 145.29 150.23 144.47 149.28 144.41 C 148.34 144.35 147.52 145.07 147.46 146.02 Z M 147.40 147.02 L 147.34 148.01 C 147.28 148.96 148.00 149.78 148.94 149.83 C 149.89 149.89 150.70 149.18 150.76 148.23 L 150.83 147.24 C 150.89 146.29 150.17 145.48 149.22 145.42 C 148.27 145.36 147.46 146.08 147.40 147.02 Z M 147.34 148.01 L 147.27 149.00 C 147.21 149.95 147.93 150.77 148.88 150.83 C 149.83 150.88 150.64 150.17 150.70 149.22 L 150.77 148.23 C 150.83 147.28 150.11 146.47 149.16 146.41 C 148.21 146.35 147.40 147.07 147.34 148.01 Z M 147.27 149.00 L 147.21 149.99 C 147.15 150.94 147.87 151.76 148.82 151.82 C 149.77 151.88 150.58 151.16 150.64 150.21 L 150.71 149.22 C 150.77 148.27 150.04 147.45 149.10 147.39 C 148.15 147.33 147.33 148.05 147.27 149.00 Z M 147.21 149.99 L 147.15 150.99 C 147.09 151.94 147.81 152.76 148.76 152.82 C 149.71 152.88 150.52 152.15 150.58 151.20 L 150.65 150.21 C 150.71 149.26 149.98 148.44 149.03 148.38 C 148.08 148.32 147.27 149.04 147.21 149.99 Z M 147.14 150.99 L 147.08 152.00 C 147.02 152.95 147.75 153.76 148.70 153.82 C 149.65 153.88 150.46 153.16 150.52 152.21 L 150.59 151.20 C 150.64 150.25 149.92 149.43 148.97 149.38 C 148.02 149.32 147.20 150.04 147.14 150.99 Z M 147.08 152.00 L 147.02 153.01 C 146.96 153.97 147.68 154.78 148.64 154.84 C 149.59 154.90 150.41 154.18 150.46 153.23 L 150.53 152.21 C 150.58 151.26 149.86 150.44 148.91 150.38 C 147.96 150.32 147.14 151.05 147.08 152.00 Z M 147.02 153.02 L 146.96 153.98 C 146.90 154.93 147.63 155.75 148.58 155.80 C 149.53 155.86 150.35 155.14 150.41 154.18 L 150.47 153.22 C 150.52 152.27 149.80 151.45 148.84 151.39 C 147.89 151.34 147.07 152.06 147.02 153.02 Z M 146.96 153.98 L 146.90 154.95 C 146.84 155.90 147.57 156.72 148.52 156.78 C 149.47 156.83 150.29 156.11 150.35 155.15 L 150.41 154.18 C 150.47 153.23 149.74 152.41 148.79 152.35 C 147.83 152.30 147.01 153.02 146.96 153.98 Z M 146.90 154.94 L 146.84 155.93 C 146.78 156.88 147.50 157.70 148.46 157.76 C 149.41 157.82 150.23 157.09 150.29 156.14 L 150.35 155.16 C 150.41 154.20 149.68 153.38 148.73 153.32 C 147.78 153.26 146.95 153.99 146.90 154.94 Z M 146.83 155.93 L 146.77 156.92 C 146.71 157.88 147.44 158.70 148.39 158.76 C 149.35 158.82 150.17 158.10 150.23 157.14 L 150.29 156.14 C 150.35 155.19 149.63 154.36 148.67 154.30 C 147.72 154.24 146.89 154.97 146.83 155.93 Z M 146.77 156.92 L 146.71 157.93 C 146.64 158.89 147.37 159.71 148.32 159.77 C 149.28 159.84 150.10 159.11 150.17 158.16 L 150.23 157.14 C 150.29 156.19 149.57 155.36 148.61 155.30 C 147.66 155.24 146.83 155.96 146.77 156.92 Z M 146.70 157.93 L 146.63 158.95 C 146.57 159.91 147.29 160.74 148.25 160.80 C 149.21 160.87 150.03 160.14 150.10 159.19 L 150.17 158.16 C 150.23 157.20 149.51 156.38 148.55 156.31 C 147.60 156.25 146.77 156.97 146.70 157.93 Z M 146.63 158.95 L 146.56 159.98 C 146.49 160.94 147.21 161.77 148.17 161.84 C 149.13 161.91 149.96 161.19 150.03 160.23 L 150.10 159.19 C 150.17 158.24 149.45 157.41 148.49 157.34 C 147.53 157.27 146.70 157.99 146.63 158.95 Z M 146.56 159.97 L 146.49 160.94 C 146.41 161.90 147.13 162.73 148.09 162.81 C 149.05 162.88 149.88 162.16 149.95 161.20 L 150.03 160.24 C 150.10 159.28 149.38 158.44 148.42 158.37 C 147.47 158.30 146.63 159.02 146.56 159.97 Z M 146.49 160.94 L 146.41 161.92 C 146.33 162.87 147.05 163.71 148.01 163.78 C 148.96 163.86 149.80 163.14 149.88 162.19 L 149.95 161.21 C 150.03 160.25 149.31 159.41 148.36 159.34 C 147.40 159.26 146.56 159.98 146.49 160.94 Z M 146.41 161.91 L 146.33 162.90 C 146.25 163.86 146.97 164.70 147.92 164.77 C 148.88 164.85 149.72 164.14 149.80 163.18 L 149.88 162.19 C 149.95 161.23 149.24 160.39 148.28 160.32 C 147.32 160.24 146.49 160.95 146.41 161.91 Z M 146.33 162.90 L 146.25 163.90 C 146.17 164.85 146.88 165.69 147.84 165.77 C 148.80 165.85 149.64 165.14 149.72 164.18 L 149.80 163.18 C 149.88 162.22 149.16 161.38 148.20 161.30 C 147.25 161.23 146.41 161.94 146.33 162.90 Z M 146.25 163.90 L 146.16 164.90 C 146.09 165.86 146.80 166.70 147.76 166.78 C 148.72 166.86 149.56 166.14 149.63 165.18 L 149.72 164.18 C 149.80 163.22 149.08 162.38 148.12 162.30 C 147.17 162.22 146.32 162.94 146.25 163.90 Z M 146.16 164.90 L 146.08 165.91 C 146.00 166.87 146.72 167.71 147.68 167.79 C 148.64 167.87 149.48 167.15 149.55 166.20 L 149.64 165.18 C 149.71 164.22 149.00 163.38 148.04 163.31 C 147.08 163.23 146.24 163.94 146.16 164.90 Z M 146.08 165.92 L 146.00 166.93 C 145.92 167.89 146.64 168.73 147.60 168.81 C 148.56 168.89 149.40 168.17 149.47 167.21 L 149.55 166.19 C 149.63 165.23 148.91 164.39 147.96 164.32 C 147.00 164.24 146.16 164.96 146.08 165.92 Z M 146.00 166.94 L 145.92 167.94 C 145.85 168.90 146.56 169.74 147.52 169.81 C 148.48 169.89 149.32 169.17 149.40 168.21 L 149.47 167.21 C 149.55 166.25 148.83 165.41 147.87 165.34 C 146.91 165.26 146.07 165.98 146.00 166.94 Z M 145.92 167.95 L 145.84 168.94 C 145.77 169.90 146.49 170.74 147.45 170.81 C 148.41 170.88 149.25 170.16 149.32 169.20 L 149.40 168.21 C 149.47 167.25 148.75 166.41 147.79 166.34 C 146.83 166.27 145.99 166.99 145.92 167.95 Z M 145.84 168.94 L 145.77 169.94 C 145.70 170.90 146.42 171.73 147.38 171.80 C 148.34 171.88 149.18 171.16 149.25 170.19 L 149.32 169.20 C 149.39 168.24 148.67 167.40 147.71 167.33 C 146.75 167.26 145.92 167.98 145.84 168.94 Z M 145.77 169.94 L 145.70 170.93 C 145.62 171.90 146.35 172.73 147.31 172.80 C 148.27 172.87 149.10 172.15 149.18 171.19 L 149.25 170.19 C 149.32 169.23 148.60 168.40 147.64 168.33 C 146.68 168.25 145.84 168.98 145.77 169.94 Z M 145.69 170.93 L 145.62 171.93 C 145.55 172.89 146.27 173.73 147.23 173.80 C 148.19 173.88 149.03 173.15 149.10 172.19 L 149.18 171.19 C 149.25 170.23 148.53 169.39 147.57 169.32 C 146.60 169.25 145.77 169.97 145.69 170.93 Z M 145.62 171.93 L 145.54 172.93 C 145.47 173.89 146.19 174.73 147.15 174.80 C 148.11 174.88 148.95 174.16 149.03 173.20 L 149.10 172.20 C 149.18 171.23 148.46 170.40 147.49 170.32 C 146.53 170.25 145.69 170.97 145.62 171.93 Z M 145.54 172.92 L 145.46 173.92 C 145.39 174.89 146.11 175.73 147.07 175.80 C 148.03 175.88 148.87 175.16 148.95 174.20 L 149.03 173.20 C 149.10 172.24 148.38 171.40 147.42 171.32 C 146.46 171.25 145.62 171.96 145.54 172.92 Z M 145.46 173.92 L 145.38 174.92 C 145.30 175.88 146.02 176.72 146.98 176.80 C 147.94 176.88 148.78 176.17 148.86 175.20 L 148.95 174.21 C 149.03 173.24 148.31 172.40 147.35 172.32 C 146.39 172.24 145.54 172.96 145.46 173.92 Z M 145.38 174.91 L 145.30 175.89 C 145.21 176.86 145.92 177.70 146.89 177.79 C 147.85 177.87 148.70 177.16 148.78 176.20 L 148.86 175.21 C 148.95 174.25 148.24 173.40 147.27 173.32 C 146.31 173.24 145.46 173.95 145.38 174.91 Z M 145.30 175.89 L 145.21 176.87 C 145.12 177.83 145.83 178.68 146.79 178.77 C 147.75 178.85 148.60 178.15 148.69 177.18 L 148.78 176.20 C 148.87 175.24 148.16 174.39 147.20 174.30 C 146.23 174.22 145.38 174.92 145.30 175.89 Z M 145.21 176.86 L 145.11 177.84 C 145.02 178.81 145.73 179.66 146.69 179.75 C 147.65 179.84 148.51 179.13 148.60 178.17 L 148.69 177.19 C 148.78 176.23 148.07 175.37 147.11 175.28 C 146.15 175.19 145.30 175.90 145.21 176.86 Z M 145.11 177.84 L 145.02 178.83 C 144.93 179.79 145.63 180.64 146.59 180.74 C 147.56 180.83 148.41 180.12 148.50 179.16 L 148.60 178.18 C 148.69 177.21 147.99 176.36 147.02 176.26 C 146.06 176.17 145.21 176.88 145.11 177.84 Z M 145.02 178.82 L 144.92 179.82 C 144.83 180.78 145.53 181.64 146.49 181.73 C 147.46 181.82 148.31 181.12 148.41 180.16 L 148.50 179.16 C 148.60 178.20 147.89 177.34 146.93 177.25 C 145.97 177.16 145.11 177.86 145.02 178.82 Z M 144.92 179.81 L 144.82 180.81 C 144.73 181.78 145.43 182.64 146.39 182.73 C 147.36 182.83 148.21 182.12 148.31 181.16 L 148.41 180.16 C 148.50 179.20 147.80 178.34 146.84 178.24 C 145.87 178.15 145.01 178.85 144.92 179.81 Z M 144.82 180.81 L 144.72 181.83 C 144.62 182.79 145.33 183.65 146.29 183.74 C 147.26 183.84 148.12 183.13 148.21 182.17 L 148.31 181.16 C 148.41 180.20 147.70 179.34 146.74 179.24 C 145.77 179.15 144.92 179.85 144.82 180.81 Z M 144.72 181.83 L 144.62 182.85 C 144.52 183.81 145.23 184.67 146.19 184.77 C 147.16 184.86 148.02 184.16 148.11 183.19 L 148.21 182.17 C 148.31 181.20 147.60 180.35 146.64 180.25 C 145.67 180.16 144.81 180.86 144.72 181.83 Z M 144.62 182.85 L 144.52 183.85 C 144.43 184.82 145.13 185.68 146.10 185.77 C 147.06 185.86 147.92 185.16 148.02 184.19 L 148.11 183.19 C 148.21 182.23 147.50 181.37 146.53 181.27 C 145.57 181.18 144.71 181.89 144.62 182.85 Z M 144.52 183.86 L 144.42 184.86 C 144.33 185.83 145.04 186.69 146.00 186.78 C 146.97 186.87 147.83 186.16 147.92 185.20 L 148.02 184.19 C 148.11 183.22 147.40 182.37 146.44 182.27 C 145.47 182.18 144.61 182.89 144.52 183.86 Z M 144.42 184.86 L 144.32 185.88 C 144.23 186.84 144.94 187.70 145.91 187.79 C 146.87 187.88 147.73 187.17 147.82 186.21 L 147.92 185.20 C 148.01 184.23 147.30 183.37 146.34 183.28 C 145.37 183.19 144.51 183.90 144.42 184.86 Z M 144.32 185.88 L 144.23 186.89 C 144.14 187.86 144.85 188.71 145.81 188.80 C 146.78 188.90 147.64 188.19 147.73 187.22 L 147.83 186.21 C 147.92 185.24 147.21 184.38 146.24 184.29 C 145.27 184.20 144.42 184.91 144.32 185.88 Z M 144.23 186.89 L 144.13 187.90 C 144.04 188.86 144.75 189.72 145.72 189.81 C 146.69 189.90 147.55 189.19 147.64 188.22 L 147.73 187.22 C 147.82 186.25 147.11 185.39 146.14 185.30 C 145.18 185.21 144.32 185.92 144.23 186.89 Z M 144.13 187.90 L 144.04 188.89 C 143.95 189.86 144.66 190.72 145.63 190.81 C 146.60 190.90 147.45 190.19 147.54 189.22 L 147.64 188.22 C 147.73 187.26 147.02 186.40 146.05 186.31 C 145.08 186.22 144.22 186.93 144.13 187.90 Z M 144.04 188.89 L 143.95 189.88 C 143.86 190.84 144.57 191.70 145.54 191.79 C 146.50 191.88 147.36 191.17 147.45 190.20 L 147.55 189.22 C 147.64 188.25 146.92 187.39 145.96 187.30 C 144.99 187.21 144.13 187.92 144.04 188.89 Z M 143.95 189.88 L 143.85 190.84 C 143.76 191.81 144.48 192.67 145.44 192.76 C 146.41 192.85 147.27 192.14 147.36 191.17 L 147.45 190.20 C 147.54 189.23 146.83 188.38 145.86 188.28 C 144.90 188.19 144.04 188.91 143.95 189.88 Z M 143.85 190.84 L 143.76 191.87 C 143.67 192.84 144.38 193.70 145.35 193.79 C 146.32 193.88 147.18 193.17 147.27 192.20 L 147.36 191.17 C 147.46 190.20 146.74 189.34 145.77 189.25 C 144.81 189.16 143.95 189.87 143.85 190.84 Z M 143.76 191.87 L 143.66 192.91 C 143.57 193.88 144.28 194.74 145.25 194.83 C 146.22 194.92 147.08 194.21 147.17 193.24 L 147.27 192.20 C 147.36 191.23 146.65 190.37 145.68 190.28 C 144.71 190.19 143.85 190.90 143.76 191.87 Z M 143.66 192.91 L 143.56 193.92 C 143.47 194.89 144.18 195.75 145.15 195.84 C 146.12 195.93 146.98 195.22 147.07 194.25 L 147.17 193.24 C 147.26 192.27 146.55 191.41 145.58 191.32 C 144.61 191.23 143.75 191.94 143.66 192.91 Z M 143.56 193.92 L 143.47 194.91 C 143.38 195.88 144.09 196.74 145.06 196.83 C 146.03 196.92 146.89 196.21 146.98 195.24 L 147.07 194.25 C 147.16 193.28 146.45 192.42 145.48 192.33 C 144.51 192.24 143.66 192.95 143.56 193.92 Z M 143.47 194.92 L 143.38 195.89 C 143.29 196.86 144.00 197.72 144.97 197.81 C 145.94 197.90 146.80 197.19 146.89 196.22 L 146.98 195.24 C 147.07 194.27 146.36 193.41 145.39 193.32 C 144.42 193.23 143.56 193.95 143.47 194.92 Z M 143.38 195.90 L 143.29 196.86 C 143.21 197.83 143.92 198.69 144.89 198.77 C 145.86 198.86 146.71 198.15 146.80 197.18 L 146.89 196.21 C 146.98 195.25 146.26 194.39 145.30 194.30 C 144.33 194.21 143.47 194.93 143.38 195.90 Z M 143.29 196.86 L 143.21 197.82 C 143.12 198.79 143.84 199.65 144.81 199.73 C 145.78 199.82 146.63 199.10 146.72 198.13 L 146.80 197.18 C 146.89 196.21 146.17 195.35 145.20 195.27 C 144.24 195.18 143.38 195.90 143.29 196.86 Z M 143.21 197.83 L 143.12 198.81 C 143.04 199.77 143.76 200.63 144.73 200.71 C 145.69 200.79 146.55 200.08 146.63 199.11 L 146.72 198.13 C 146.80 197.16 146.08 196.31 145.11 196.22 C 144.15 196.14 143.29 196.86 143.21 197.83 Z M 143.13 198.81 L 143.04 199.81 C 142.96 200.78 143.68 201.63 144.65 201.71 C 145.61 201.79 146.46 201.07 146.55 200.10 L 146.63 199.10 C 146.71 198.14 145.99 197.29 145.02 197.21 C 144.06 197.12 143.21 197.84 143.13 198.81 Z M 143.04 199.81 L 142.96 200.81 C 142.88 201.78 143.60 202.63 144.57 202.71 C 145.54 202.79 146.38 202.07 146.46 201.10 L 146.54 200.10 C 146.62 199.13 145.90 198.29 144.94 198.21 C 143.97 198.13 143.12 198.85 143.04 199.81 Z M 142.96 200.82 L 142.88 201.81 C 142.81 202.78 143.53 203.63 144.49 203.70 C 145.46 203.78 146.30 203.06 146.38 202.09 L 146.46 201.10 C 146.54 200.13 145.82 199.29 144.85 199.21 C 143.89 199.13 143.04 199.85 142.96 200.82 Z M 142.89 201.82 L 142.81 202.81 C 142.73 203.78 143.45 204.62 144.42 204.70 C 145.38 204.77 146.22 204.05 146.30 203.09 L 146.38 202.09 C 146.45 201.13 145.73 200.28 144.77 200.21 C 143.81 200.13 142.96 200.85 142.89 201.82 Z M 142.81 202.81 L 142.73 203.81 C 142.66 204.77 143.38 205.62 144.34 205.69 C 145.30 205.77 146.15 205.05 146.22 204.08 L 146.30 203.09 C 146.37 202.12 145.65 201.28 144.69 201.21 C 143.73 201.13 142.88 201.85 142.81 202.81 Z M 142.73 203.81 L 142.66 204.80 C 142.58 205.77 143.30 206.61 144.26 206.68 C 145.23 206.76 146.07 206.04 146.14 205.07 L 146.22 204.08 C 146.29 203.12 145.57 202.28 144.61 202.20 C 143.65 202.13 142.81 202.85 142.73 203.81 Z M 142.66 204.80 L 142.58 205.80 C 142.51 206.76 143.23 207.60 144.19 207.68 C 145.15 207.75 145.99 207.04 146.06 206.07 L 146.14 205.07 C 146.21 204.11 145.50 203.27 144.53 203.20 C 143.57 203.12 142.73 203.84 142.66 204.80 Z M 142.59 205.80 L 142.51 206.81 C 142.43 207.77 143.15 208.60 144.11 208.68 C 145.07 208.75 145.91 208.04 145.98 207.08 L 146.06 206.07 C 146.13 205.11 145.42 204.28 144.46 204.20 C 143.50 204.13 142.66 204.85 142.59 205.80 Z M 142.51 206.81 L 142.43 207.81 C 142.36 208.77 143.08 209.60 144.03 209.68 C 144.99 209.75 145.82 209.03 145.90 208.08 L 145.98 207.08 C 146.05 206.12 145.33 205.28 144.38 205.21 C 143.42 205.14 142.59 205.85 142.51 206.81 Z M 142.44 207.81 L 142.36 208.81 C 142.29 209.76 143.00 210.60 143.96 210.67 C 144.91 210.74 145.75 210.03 145.82 209.07 L 145.89 208.08 C 145.97 207.12 145.25 206.29 144.30 206.22 C 143.34 206.14 142.51 206.86 142.44 207.81 Z M 142.37 208.81 L 142.29 209.81 C 142.22 210.76 142.93 211.59 143.89 211.66 C 144.84 211.73 145.67 211.02 145.74 210.07 L 145.81 209.07 C 145.89 208.12 145.17 207.29 144.22 207.22 C 143.27 207.15 142.44 207.86 142.37 208.81 Z M 142.30 209.81 L 142.22 210.80 C 142.15 211.75 142.87 212.58 143.82 212.65 C 144.77 212.72 145.59 212.00 145.66 211.05 L 145.74 210.06 C 145.81 209.11 145.09 208.29 144.14 208.22 C 143.19 208.15 142.36 208.86 142.30 209.81 Z M 142.23 210.81 L 142.16 211.80 C 142.09 212.74 142.80 213.57 143.75 213.63 C 144.70 213.70 145.52 212.99 145.59 212.04 L 145.66 211.05 C 145.73 210.10 145.01 209.28 144.06 209.21 C 143.12 209.14 142.29 209.86 142.23 210.81 Z M 142.16 211.80 L 142.09 212.82 C 142.03 213.77 142.74 214.58 143.69 214.65 C 144.63 214.71 145.45 214.00 145.52 213.05 L 145.59 212.03 C 145.65 211.09 144.94 210.27 143.99 210.21 C 143.04 210.14 142.23 210.85 142.16 211.80 Z M 142.10 212.83 L 142.03 213.84 C 141.97 214.79 142.68 215.60 143.63 215.66 C 144.57 215.72 145.38 215.01 145.44 214.07 L 145.51 213.05 C 145.57 212.10 144.86 211.29 143.91 211.23 C 142.97 211.17 142.16 211.88 142.10 212.83 Z M 142.03 213.85 L 141.97 214.86 C 141.91 215.80 142.63 216.61 143.57 216.67 C 144.51 216.73 145.32 216.01 145.38 215.07 L 145.44 214.06 C 145.50 213.12 144.78 212.31 143.84 212.25 C 142.90 212.19 142.09 212.91 142.03 213.85 Z M 141.98 214.87 L 141.92 215.87 C 141.86 216.81 142.58 217.61 143.52 217.67 C 144.46 217.72 145.26 217.00 145.32 216.07 L 145.37 215.06 C 145.43 214.13 144.71 213.32 143.77 213.27 C 142.83 213.21 142.03 213.93 141.98 214.87 Z M 141.92 215.88 L 141.87 216.87 C 141.82 217.80 142.54 218.60 143.47 218.65 C 144.41 218.70 145.21 217.98 145.26 217.05 L 145.31 216.06 C 145.36 215.12 144.64 214.32 143.71 214.27 C 142.77 214.22 141.97 214.94 141.92 215.88 Z M 141.88 216.87 L 141.83 217.85 C 141.78 218.78 142.50 219.57 143.43 219.62 C 144.37 219.66 145.16 218.95 145.21 218.01 L 145.25 217.04 C 145.30 216.11 144.58 215.31 143.65 215.27 C 142.71 215.22 141.92 215.94 141.88 216.87 Z M 141.83 217.86 L 141.79 218.85 C 141.75 219.78 142.47 220.56 143.40 220.60 C 144.33 220.64 145.12 219.92 145.16 218.99 L 145.20 218.00 C 145.24 217.07 144.52 216.29 143.59 216.25 C 142.66 216.21 141.87 216.93 141.83 217.86 Z M 141.80 218.86 L 141.76 219.88 C 141.72 220.80 142.45 221.58 143.37 221.62 C 144.30 221.65 145.08 220.93 145.11 220.00 L 145.15 218.98 C 145.19 218.05 144.46 217.28 143.54 217.24 C 142.61 217.21 141.83 217.93 141.80 218.86 Z M 141.77 219.89 L 141.73 220.90 C 141.71 221.82 142.43 222.59 143.35 222.62 C 144.27 222.65 145.05 221.92 145.07 221.00 L 145.11 219.99 C 145.13 219.07 144.41 218.30 143.49 218.27 C 142.57 218.24 141.80 218.97 141.77 219.89 Z M 141.74 220.90 L 141.72 221.90 C 141.69 222.82 142.42 223.58 143.34 223.60 C 144.25 223.63 145.02 222.90 145.04 221.98 L 145.07 220.99 C 145.09 220.07 144.37 219.31 143.45 219.29 C 142.53 219.26 141.77 219.99 141.74 220.90 Z M 141.72 221.91 L 141.70 222.89 C 141.69 223.81 142.41 224.57 143.32 224.58 C 144.24 224.60 144.99 223.88 145.01 222.96 L 145.03 221.98 C 145.05 221.06 144.33 220.31 143.41 220.29 C 142.50 220.27 141.74 220.99 141.72 221.91 Z M 141.71 222.90 L 141.70 223.89 C 141.68 224.80 142.41 225.55 143.32 225.56 C 144.23 225.57 144.98 224.85 144.99 223.94 L 145.01 222.96 C 145.02 222.05 144.29 221.30 143.38 221.28 C 142.48 221.27 141.73 221.99 141.71 222.90 Z M 141.70 223.89 L 141.69 224.91 C 141.68 225.81 142.41 226.55 143.31 226.56 C 144.22 226.57 144.96 225.85 144.97 224.94 L 144.98 223.93 C 144.99 223.03 144.27 222.28 143.36 222.27 C 142.46 222.26 141.71 222.99 141.70 223.89 Z M 141.70 224.91 L 141.69 225.96 C 141.68 226.87 142.41 227.60 143.31 227.61 C 144.21 227.62 144.95 226.89 144.95 225.99 L 144.96 224.94 C 144.97 224.04 144.25 223.30 143.34 223.29 C 142.44 223.29 141.71 224.01 141.70 224.91 Z M 141.70 225.97 L 141.69 227.01 C 141.69 227.91 142.41 228.64 143.31 228.64 C 144.21 228.64 144.94 227.92 144.94 227.03 L 144.95 225.99 C 144.95 225.09 144.23 224.36 143.33 224.36 C 142.43 224.35 141.70 225.07 141.70 225.97 Z M 141.70 227.01 L 141.70 228.03 C 141.70 228.92 142.42 229.64 143.31 229.64 C 144.20 229.65 144.93 228.93 144.93 228.04 L 144.93 227.02 C 144.93 226.13 144.21 225.41 143.32 225.40 C 142.43 225.40 141.71 226.12 141.70 227.01 Z M 141.71 228.03 L 141.71 229.00 C 141.71 229.89 142.43 230.61 143.31 230.61 C 144.20 230.61 144.92 229.89 144.92 229.01 L 144.92 228.03 C 144.92 227.15 144.20 226.43 143.32 226.42 C 142.43 226.42 141.71 227.14 141.71 228.03 Z M 141.72 229.00 L 141.72 229.92 C 141.72 230.81 142.43 231.52 143.31 231.52 C 144.20 231.52 144.91 230.81 144.91 229.93 L 144.91 229.00 C 144.91 228.12 144.20 227.41 143.31 227.41 C 142.43 227.41 141.72 228.12 141.72 229.00 Z M 141.73 229.93 L 141.73 231.03 C 141.73 231.91 142.44 232.62 143.32 232.62 C 144.19 232.62 144.90 231.90 144.90 231.03 L 144.90 229.92 C 144.90 229.05 144.19 228.34 143.31 228.34 C 142.44 228.34 141.73 229.05 141.73 229.93 Z M 141.74 231.04 L 141.75 232.10 C 141.76 232.97 142.47 233.67 143.34 233.66 C 144.21 233.65 144.91 232.94 144.90 232.07 L 144.89 231.01 C 144.88 230.14 144.17 229.44 143.30 229.45 C 142.43 229.46 141.73 230.17 141.74 231.04 Z M 141.76 232.14 L 141.79 233.10 C 141.82 233.96 142.55 234.64 143.41 234.61 C 144.27 234.58 144.95 233.86 144.92 232.99 L 144.89 232.03 C 144.86 231.17 144.14 230.49 143.27 230.52 C 142.41 230.55 141.73 231.27 141.76 232.14 Z M 141.81 233.16 L 141.87 234.05 C 141.93 234.91 142.68 235.55 143.54 235.49 C 144.39 235.42 145.04 234.68 144.97 233.82 L 144.91 232.93 C 144.85 232.07 144.10 231.43 143.24 231.49 C 142.39 231.56 141.74 232.30 141.81 233.16 Z M 141.89 234.15 L 142.02 235.08 C 142.14 235.92 142.92 236.51 143.76 236.40 C 144.61 236.28 145.20 235.50 145.08 234.66 L 144.95 233.72 C 144.84 232.88 144.06 232.29 143.21 232.40 C 142.37 232.52 141.78 233.30 141.89 234.15 Z M 142.06 235.22 L 142.28 236.15 C 142.48 236.98 143.31 237.49 144.13 237.29 C 144.96 237.09 145.46 236.26 145.27 235.44 L 145.04 234.51 C 144.85 233.68 144.02 233.17 143.19 233.37 C 142.37 233.57 141.86 234.40 142.06 235.22 Z M 142.34 236.33 L 142.69 237.27 C 142.99 238.06 143.87 238.46 144.66 238.16 C 145.45 237.86 145.85 236.98 145.55 236.19 L 145.20 235.26 C 144.91 234.47 144.03 234.07 143.24 234.37 C 142.45 234.66 142.05 235.54 142.34 236.33 Z M 142.78 237.43 L 143.26 238.35 C 143.64 239.10 144.56 239.38 145.30 239.00 C 146.05 238.61 146.34 237.69 145.95 236.95 L 145.47 236.03 C 145.08 235.28 144.17 235.00 143.42 235.38 C 142.68 235.77 142.39 236.69 142.78 237.43 Z M 143.33 238.46 L 143.82 239.23 C 144.27 239.94 145.20 240.14 145.91 239.69 C 146.61 239.25 146.82 238.31 146.37 237.61 L 145.88 236.84 C 145.43 236.13 144.49 235.93 143.79 236.37 C 143.09 236.82 142.88 237.76 143.33 238.46 Z M 143.86 239.29 L 144.43 240.09 C 144.92 240.77 145.86 240.93 146.54 240.45 C 147.22 239.97 147.38 239.02 146.89 238.34 L 146.32 237.54 C 145.84 236.87 144.90 236.71 144.22 237.19 C 143.54 237.67 143.38 238.62 143.86 239.29 Z M 144.47 240.13 L 145.09 240.95 C 145.60 241.62 146.54 241.74 147.20 241.24 C 147.86 240.74 147.99 239.79 147.49 239.13 L 146.86 238.31 C 146.36 237.65 145.41 237.52 144.75 238.02 C 144.09 238.53 143.96 239.47 144.47 240.13 Z M 145.11 240.97 L 145.77 241.81 C 146.28 242.46 147.23 242.57 147.88 242.06 C 148.53 241.54 148.64 240.60 148.13 239.95 L 147.47 239.11 C 146.95 238.46 146.01 238.35 145.36 238.86 C 144.71 239.38 144.60 240.32 145.11 240.97 Z M 145.78 241.81 L 146.11 242.23 C 146.63 242.88 147.57 242.98 148.22 242.46 C 148.87 241.95 148.97 241.00 148.45 240.36 L 148.12 239.94 C 147.60 239.29 146.66 239.19 146.01 239.71 C 145.37 240.22 145.26 241.17 145.78 241.81 Z"
      fill="black"
      fill-rule="nonzero" /></svg>