<svg xmlns="http://www.w3.org/2000/svg" width="300" height="300" viewBox="0 0 300 300">
<path d="M 129.25 140.09 L 128.44 139.49 C 127.78 138.99 126.85 139.13 126.36 139.79 C 125.87 140.45 126.01 141.38 126.67 141.87 L 127.48 142.48 C 128.14 142.97 129.07 142.83 129.56 142.17 C 130.05 141.51 129.91 140.58 129.25 140.09 Z M 128.49 139.50 L 127.70 138.88 C 127.05 138.36 126.10 138.47 125.59 139.13 C 125.07 139.78 125.18 140.73 125.84 141.24 L 126.62 141.86 C 127.28 142.38 128.22 142.26 128.74 141.61 C 129.25 140.96 129.14 140.01 128.49 139.50 Z M 127.78 138.92 L 127.03 138.26 C 126.40 137.71 125.44 137.76 124.89 138.40 C 124.33 139.03 124.39 139.99 125.02 140.54 L 125.76 141.20 C 126.39 141.76 127.35 141.70 127.91 141.07 C 128.47 140.44 128.41 139.48 127.78 138.92 Z M 127.14 138.35 L 126.44 137.61 C 125.86 137.00 124.89 136.97 124.27 137.56 C 123.66 138.14 123.63 139.11 124.22 139.73 L 124.91 140.46 C 125.50 141.07 126.47 141.10 127.08 140.52 C 127.70 139.93 127.72 138.96 127.14 138.35 Z M 126.56 137.75 L 125.97 136.95 C 125.46 136.27 124.49 136.13 123.81 136.64 C 123.13 137.14 122.99 138.11 123.50 138.79 L 124.10 139.59 C 124.60 140.27 125.57 140.41 126.25 139.90 C 126.93 139.40 127.07 138.43 126.56 137.75 Z M 126.09 137.14 L 125.63 136.27 C 125.23 135.52 124.29 135.24 123.54 135.64 C 122.79 136.04 122.51 136.98 122.91 137.73 L 123.37 138.60 C 123.77 139.35 124.71 139.63 125.46 139.23 C 126.21 138.83 126.49 137.89 126.09 137.14 Z M 125.74 136.54 L 125.43 135.54 C 125.18 134.73 124.31 134.27 123.49 134.53 C 122.68 134.78 122.23 135.65 122.48 136.46 L 122.79 137.46 C 123.05 138.28 123.91 138.73 124.73 138.47 C 125.54 138.22 126.00 137.35 125.74 136.54 Z M 125.50 135.92 L 125.44 134.92 C 125.40 134.07 124.67 133.42 123.81 133.47 C 122.96 133.51 122.31 134.24 122.36 135.10 L 122.41 136.09 C 122.46 136.94 123.19 137.59 124.04 137.55 C 124.89 137.50 125.55 136.77 125.50 135.92 Z M 125.38 135.47 L 125.65 134.58 C 125.90 133.77 125.45 132.90 124.63 132.65 C 123.81 132.40 122.95 132.85 122.70 133.67 L 122.42 134.55 C 122.17 135.37 122.63 136.24 123.44 136.49 C 124.26 136.74 125.13 136.28 125.38 135.47 Z M 125.35 135.14 L 125.94 134.45 C 126.50 133.80 126.43 132.82 125.78 132.26 C 125.14 131.70 124.16 131.78 123.60 132.42 L 123.00 133.11 C 122.44 133.76 122.51 134.74 123.16 135.30 C 123.81 135.86 124.79 135.79 125.35 135.14 Z M 125.62 134.74 L 126.47 134.18 C 127.19 133.71 127.39 132.75 126.92 132.03 C 126.45 131.31 125.49 131.11 124.77 131.58 L 123.92 132.14 C 123.20 132.61 123.00 133.57 123.47 134.29 C 123.94 135.00 124.90 135.21 125.62 134.74 Z M 126.26 134.30 L 127.21 133.87 C 127.99 133.52 128.34 132.59 127.99 131.81 C 127.63 131.03 126.71 130.68 125.93 131.03 L 124.98 131.46 C 124.20 131.82 123.85 132.74 124.20 133.52 C 124.56 134.30 125.48 134.65 126.26 134.30 Z M 127.08 133.93 L 127.91 133.64 C 128.72 133.35 129.15 132.46 128.87 131.65 C 128.58 130.84 127.69 130.41 126.88 130.69 L 126.05 130.98 C 125.24 131.26 124.81 132.15 125.10 132.97 C 125.38 133.78 126.27 134.21 127.08 133.93 Z M 127.79 133.68 L 128.72 133.43 C 129.55 133.21 130.05 132.36 129.83 131.52 C 129.61 130.69 128.76 130.19 127.92 130.41 L 127.00 130.65 C 126.16 130.87 125.66 131.73 125.88 132.56 C 126.10 133.40 126.96 133.90 127.79 133.68 Z M 128.60 133.46 L 129.66 133.27 C 130.51 133.11 131.07 132.29 130.91 131.44 C 130.76 130.59 129.94 130.03 129.09 130.19 L 128.03 130.38 C 127.18 130.54 126.62 131.35 126.78 132.21 C 126.93 133.06 127.75 133.62 128.60 133.46 Z M 129.56 133.29 L 130.67 133.15 C 131.53 133.05 132.14 132.27 132.04 131.40 C 131.94 130.54 131.15 129.93 130.29 130.03 L 129.18 130.17 C 128.32 130.27 127.71 131.05 127.81 131.91 C 127.92 132.78 128.70 133.39 129.56 133.29 Z M 130.60 133.16 L 131.59 133.09 C 132.46 133.02 133.11 132.27 133.05 131.40 C 132.98 130.53 132.23 129.88 131.36 129.95 L 130.36 130.02 C 129.50 130.09 128.84 130.84 128.91 131.71 C 128.97 132.58 129.73 133.23 130.60 133.16 Z M 131.54 133.10 L 132.58 133.06 C 133.45 133.03 134.13 132.29 134.10 131.42 C 134.07 130.55 133.33 129.87 132.46 129.90 L 131.42 129.94 C 130.54 129.97 129.86 130.70 129.90 131.58 C 129.93 132.45 130.66 133.13 131.54 133.10 Z M 132.52 133.07 L 133.56 133.07 C 134.44 133.07 135.15 132.36 135.15 131.48 C 135.15 130.61 134.44 129.90 133.57 129.89 L 132.52 129.89 C 131.65 129.89 130.93 130.60 130.93 131.48 C 130.93 132.35 131.64 133.07 132.52 133.07 Z M 133.49 133.07 L 134.49 133.12 C 135.37 133.16 136.11 132.49 136.16 131.61 C 136.20 130.73 135.52 129.98 134.64 129.94 L 133.64 129.89 C 132.76 129.85 132.01 130.53 131.97 131.40 C 131.93 132.28 132.61 133.03 133.49 133.07 Z M 134.39 133.12 L 135.32 133.22 C 136.20 133.32 136.99 132.69 137.09 131.81 C 137.19 130.93 136.55 130.14 135.67 130.04 L 134.74 129.94 C 133.86 129.84 133.07 130.48 132.97 131.35 C 132.88 132.23 133.51 133.02 134.39 133.12 Z M 135.15 133.20 L 136.28 133.45 C 137.15 133.64 138.00 133.09 138.19 132.22 C 138.38 131.36 137.84 130.50 136.97 130.31 L 135.84 130.06 C 134.98 129.87 134.12 130.42 133.93 131.29 C 133.74 132.15 134.29 133.01 135.15 133.20 Z M 136.04 133.38 L 136.97 133.74 C 137.79 134.06 138.73 133.65 139.05 132.82 C 139.37 131.99 138.96 131.06 138.13 130.74 L 137.21 130.38 C 136.38 130.06 135.45 130.47 135.13 131.30 C 134.81 132.13 135.22 133.06 136.04 133.38 Z M 136.73 133.63 L 137.51 134.09 C 138.28 134.54 139.27 134.28 139.72 133.51 C 140.17 132.74 139.91 131.76 139.14 131.31 L 138.36 130.85 C 137.60 130.40 136.61 130.66 136.16 131.42 C 135.71 132.19 135.97 133.18 136.73 133.63 Z M 137.34 133.97 L 138.06 134.53 C 138.76 135.08 139.78 134.95 140.32 134.25 C 140.87 133.55 140.75 132.53 140.04 131.98 L 139.32 131.42 C 138.62 130.87 137.60 131.00 137.05 131.70 C 136.51 132.41 136.63 133.42 137.34 133.97 Z M 137.93 134.43 L 138.64 135.10 C 139.28 135.72 140.31 135.69 140.93 135.04 C 141.54 134.39 141.52 133.37 140.87 132.75 L 140.17 132.08 C 139.52 131.47 138.49 131.49 137.88 132.14 C 137.26 132.79 137.28 133.81 137.93 134.43 Z M 138.54 135.01 L 139.21 135.76 C 139.81 136.43 140.84 136.48 141.51 135.89 C 142.17 135.29 142.23 134.26 141.63 133.59 L 140.96 132.84 C 140.36 132.17 139.34 132.12 138.67 132.71 C 138.00 133.31 137.94 134.34 138.54 135.01 Z M 139.14 135.68 L 139.79 136.50 C 140.35 137.21 141.37 137.33 142.08 136.77 C 142.78 136.22 142.90 135.19 142.35 134.49 L 141.70 133.67 C 141.15 132.96 140.12 132.84 139.41 133.39 C 138.71 133.95 138.59 134.98 139.14 135.68 Z M 139.74 136.44 L 140.30 137.23 C 140.83 137.97 141.85 138.14 142.58 137.61 C 143.31 137.09 143.48 136.07 142.96 135.34 L 142.40 134.55 C 141.87 133.81 140.85 133.64 140.12 134.17 C 139.39 134.69 139.22 135.71 139.74 136.44 Z M 140.26 137.17 L 140.79 138.01 C 141.28 138.77 142.29 138.99 143.05 138.50 C 143.82 138.01 144.04 137.00 143.55 136.24 L 143.01 135.40 C 142.52 134.64 141.51 134.42 140.75 134.91 C 139.99 135.40 139.77 136.41 140.26 137.17 Z M 140.74 137.93 L 141.25 138.82 C 141.69 139.60 142.69 139.88 143.48 139.43 C 144.27 138.99 144.54 137.98 144.10 137.20 L 143.60 136.31 C 143.15 135.53 142.15 135.25 141.36 135.70 C 140.57 136.14 140.30 137.14 140.74 137.93 Z M 141.19 138.73 L 141.64 139.64 C 142.03 140.45 143.02 140.79 143.83 140.39 C 144.65 140.00 144.99 139.01 144.59 138.20 L 144.15 137.29 C 143.75 136.47 142.77 136.13 141.95 136.53 C 141.14 136.93 140.80 137.91 141.19 138.73 Z M 141.59 139.54 L 141.96 140.44 C 142.30 141.28 143.26 141.68 144.10 141.34 C 144.94 141.00 145.35 140.04 145.00 139.19 L 144.64 138.30 C 144.30 137.45 143.34 137.05 142.49 137.39 C 141.65 137.74 141.25 138.70 141.59 139.54 Z M 141.92 140.34 L 142.24 141.28 C 142.53 142.14 143.46 142.60 144.32 142.31 C 145.18 142.02 145.65 141.09 145.36 140.22 L 145.04 139.29 C 144.75 138.43 143.82 137.96 142.95 138.25 C 142.09 138.55 141.63 139.48 141.92 140.34 Z M 142.21 141.19 L 142.47 142.16 C 142.72 143.04 143.62 143.56 144.50 143.32 C 145.38 143.08 145.90 142.17 145.65 141.29 L 145.39 140.31 C 145.14 139.44 144.24 138.92 143.36 139.16 C 142.48 139.40 141.96 140.31 142.21 141.19 Z M 142.45 142.08 L 142.68 143.09 C 142.87 143.98 143.75 144.54 144.64 144.34 C 145.53 144.15 146.10 143.27 145.90 142.37 L 145.68 141.37 C 145.48 140.48 144.60 139.92 143.71 140.11 C 142.82 140.31 142.26 141.19 142.45 142.08 Z M 142.66 143.02 L 142.83 143.97 C 142.99 144.87 143.85 145.47 144.74 145.31 C 145.64 145.15 146.24 144.29 146.08 143.39 L 145.91 142.44 C 145.76 141.54 144.90 140.94 144.00 141.10 C 143.10 141.26 142.50 142.12 142.66 143.02 Z M 142.82 143.91 L 142.96 144.89 C 143.08 145.79 143.92 146.42 144.82 146.30 C 145.73 146.17 146.36 145.33 146.23 144.43 L 146.09 143.45 C 145.97 142.54 145.13 141.91 144.22 142.04 C 143.32 142.17 142.69 143.01 142.82 143.91 Z M 142.95 144.84 L 143.06 145.84 C 143.16 146.75 143.97 147.41 144.88 147.31 C 145.79 147.21 146.45 146.39 146.35 145.48 L 146.24 144.48 C 146.14 143.57 145.32 142.91 144.41 143.01 C 143.50 143.11 142.85 143.93 142.95 144.84 Z M 143.05 145.80 L 143.13 146.82 C 143.21 147.73 144.00 148.41 144.92 148.34 C 145.83 148.27 146.51 147.47 146.44 146.56 L 146.35 145.53 C 146.28 144.62 145.48 143.94 144.57 144.01 C 143.66 144.08 142.98 144.88 143.05 145.80 Z M 143.13 146.78 L 143.18 147.81 C 143.23 148.73 144.02 149.43 144.93 149.38 C 145.85 149.33 146.55 148.55 146.50 147.63 L 146.44 146.60 C 146.39 145.68 145.61 144.98 144.69 145.03 C 143.78 145.08 143.08 145.86 143.13 146.78 Z M 143.18 147.78 L 143.22 148.82 C 143.25 149.73 144.01 150.45 144.93 150.42 C 145.85 150.39 146.56 149.62 146.53 148.71 L 146.50 147.67 C 146.47 146.75 145.70 146.04 144.79 146.07 C 143.87 146.10 143.15 146.86 143.18 147.78 Z M 143.21 148.79 L 143.23 149.81 C 143.25 150.73 144.00 151.46 144.92 151.44 C 145.84 151.43 146.57 150.67 146.55 149.75 L 146.54 148.73 C 146.52 147.81 145.76 147.08 144.85 147.10 C 143.93 147.12 143.20 147.87 143.21 148.79 Z M 143.23 149.79 L 143.24 150.78 C 143.24 151.70 143.99 152.44 144.91 152.43 C 145.83 152.43 146.57 151.68 146.56 150.76 L 146.56 149.77 C 146.55 148.85 145.80 148.11 144.88 148.12 C 143.96 148.12 143.22 148.87 143.23 149.79 Z M 143.24 150.77 L 143.24 151.71 C 143.24 152.63 143.98 153.37 144.90 153.37 C 145.82 153.37 146.57 152.62 146.56 151.71 L 146.56 150.77 C 146.56 149.85 145.82 149.10 144.90 149.11 C 143.98 149.11 143.24 149.85 143.24 150.77 Z M 143.24 151.70 L 143.23 152.76 C 143.23 153.68 143.98 154.43 144.90 154.43 C 145.81 154.43 146.56 153.69 146.56 152.77 L 146.57 151.71 C 146.57 150.79 145.82 150.05 144.90 150.04 C 143.99 150.04 143.24 150.79 143.24 151.70 Z M 143.23 152.74 L 143.22 153.74 C 143.20 154.66 143.94 155.41 144.86 155.43 C 145.77 155.44 146.53 154.71 146.55 153.79 L 146.56 152.79 C 146.58 151.87 145.85 151.12 144.93 151.10 C 144.01 151.09 143.25 151.82 143.23 152.74 Z M 143.22 153.69 L 143.17 154.65 C 143.13 155.57 143.84 156.35 144.76 156.39 C 145.68 156.44 146.46 155.73 146.50 154.81 L 146.55 153.84 C 146.59 152.92 145.88 152.14 144.96 152.10 C 144.04 152.06 143.26 152.77 143.22 153.69 Z M 143.18 154.57 L 143.09 155.52 C 143.01 156.44 143.68 157.25 144.59 157.34 C 145.51 157.42 146.32 156.75 146.41 155.83 L 146.50 154.88 C 146.58 153.97 145.91 153.16 144.99 153.07 C 144.07 152.99 143.26 153.66 143.18 154.57 Z M 143.10 155.44 L 142.97 156.36 C 142.84 157.27 143.47 158.11 144.38 158.24 C 145.29 158.37 146.14 157.74 146.27 156.83 L 146.40 155.91 C 146.53 155.00 145.89 154.16 144.98 154.03 C 144.07 153.90 143.23 154.53 143.10 155.44 Z M 142.98 156.29 L 142.80 157.25 C 142.64 158.15 143.24 159.02 144.14 159.19 C 145.05 159.35 145.91 158.76 146.08 157.85 L 146.26 156.89 C 146.42 155.99 145.83 155.12 144.92 154.95 C 144.02 154.79 143.15 155.39 142.98 156.29 Z M 142.81 157.19 L 142.59 158.20 C 142.40 159.10 142.97 159.99 143.87 160.19 C 144.77 160.38 145.66 159.81 145.85 158.91 L 146.07 157.90 C 146.27 157.00 145.70 156.12 144.80 155.92 C 143.90 155.72 143.01 156.29 142.81 157.19 Z M 142.60 158.17 L 142.35 159.22 C 142.13 160.11 142.68 161.02 143.57 161.23 C 144.47 161.45 145.37 160.90 145.59 160.00 L 145.84 158.95 C 146.06 158.06 145.51 157.15 144.62 156.94 C 143.72 156.72 142.82 157.27 142.60 158.17 Z M 142.35 159.19 L 142.11 160.15 C 141.88 161.04 142.41 161.95 143.30 162.18 C 144.20 162.41 145.10 161.87 145.34 160.98 L 145.58 160.03 C 145.81 159.14 145.28 158.23 144.38 158.00 C 143.49 157.77 142.58 158.30 142.35 159.19 Z M 142.11 160.13 L 141.85 161.11 C 141.61 162.00 142.14 162.92 143.02 163.16 C 143.91 163.40 144.83 162.87 145.07 161.98 L 145.33 161.00 C 145.57 160.11 145.04 159.19 144.15 158.95 C 143.26 158.72 142.35 159.24 142.11 160.13 Z M 141.85 161.10 L 141.58 162.09 C 141.33 162.98 141.85 163.90 142.74 164.14 C 143.63 164.39 144.55 163.87 144.79 162.98 L 145.06 161.99 C 145.31 161.10 144.79 160.18 143.90 159.94 C 143.01 159.69 142.09 160.22 141.85 161.10 Z M 141.58 162.08 L 141.31 163.05 C 141.06 163.94 141.58 164.86 142.46 165.11 C 143.35 165.36 144.27 164.84 144.52 163.95 L 144.79 162.98 C 145.04 162.10 144.52 161.18 143.64 160.93 C 142.75 160.68 141.83 161.20 141.58 162.08 Z M 141.31 163.05 L 141.03 164.02 C 140.78 164.91 141.30 165.83 142.18 166.08 C 143.07 166.33 143.99 165.82 144.24 164.93 L 144.52 163.96 C 144.77 163.07 144.25 162.15 143.37 161.90 C 142.48 161.64 141.56 162.16 141.31 163.05 Z M 141.03 164.02 L 140.74 165.06 C 140.48 165.95 141.00 166.87 141.88 167.12 C 142.77 167.38 143.69 166.86 143.94 165.98 L 144.24 164.93 C 144.49 164.05 143.98 163.12 143.09 162.87 C 142.21 162.62 141.29 163.13 141.03 164.02 Z M 140.74 165.05 L 140.46 166.02 C 140.20 166.91 140.71 167.83 141.59 168.09 C 142.48 168.35 143.41 167.84 143.66 166.95 L 143.94 165.98 C 144.20 165.10 143.69 164.17 142.80 163.91 C 141.92 163.66 140.99 164.17 140.74 165.05 Z M 140.46 166.01 L 140.19 166.91 C 139.92 167.80 140.43 168.73 141.31 168.99 C 142.20 169.26 143.13 168.75 143.39 167.87 L 143.66 166.96 C 143.92 166.08 143.42 165.15 142.54 164.88 C 141.65 164.62 140.72 165.12 140.46 166.01 Z M 140.19 166.90 L 139.91 167.79 C 139.64 168.68 140.13 169.61 141.01 169.89 C 141.90 170.16 142.83 169.67 143.11 168.79 L 143.39 167.89 C 143.66 167.01 143.17 166.07 142.29 165.79 C 141.40 165.52 140.47 166.01 140.19 166.90 Z M 139.92 167.77 L 139.60 168.75 C 139.32 169.63 139.80 170.57 140.68 170.86 C 141.55 171.14 142.50 170.66 142.78 169.78 L 143.10 168.81 C 143.39 167.93 142.91 166.99 142.03 166.70 C 141.15 166.41 140.21 166.89 139.92 167.77 Z M 139.61 168.74 L 139.29 169.68 C 139.00 170.55 139.47 171.50 140.35 171.79 C 141.23 172.09 142.17 171.61 142.47 170.74 L 142.78 169.80 C 143.07 168.92 142.60 167.97 141.72 167.68 C 140.84 167.39 139.90 167.86 139.61 168.74 Z M 139.29 169.68 L 138.99 170.60 C 138.69 171.48 139.17 172.42 140.05 172.72 C 140.93 173.01 141.87 172.53 142.16 171.65 L 142.47 170.73 C 142.76 169.86 142.28 168.91 141.41 168.62 C 140.53 168.33 139.58 168.80 139.29 169.68 Z M 138.98 170.61 L 138.68 171.57 C 138.39 172.45 138.88 173.39 139.76 173.67 C 140.64 173.95 141.58 173.47 141.86 172.59 L 142.17 171.64 C 142.45 170.76 141.97 169.82 141.09 169.53 C 140.21 169.25 139.26 169.73 138.98 170.61 Z M 138.67 171.57 L 138.37 172.53 C 138.09 173.41 138.58 174.35 139.46 174.63 C 140.35 174.90 141.29 174.42 141.56 173.53 L 141.87 172.58 C 142.14 171.70 141.65 170.76 140.77 170.48 C 139.89 170.20 138.95 170.69 138.67 171.57 Z M 138.37 172.52 L 138.07 173.47 C 137.79 174.36 138.28 175.30 139.16 175.58 C 140.04 175.86 140.98 175.37 141.26 174.49 L 141.56 173.54 C 141.84 172.66 141.36 171.72 140.48 171.44 C 139.60 171.15 138.65 171.64 138.37 172.52 Z M 138.07 173.46 L 137.77 174.38 C 137.48 175.26 137.96 176.21 138.84 176.50 C 139.72 176.78 140.66 176.31 140.95 175.43 L 141.25 174.51 C 141.54 173.63 141.07 172.68 140.19 172.39 C 139.31 172.10 138.36 172.58 138.07 173.46 Z M 137.78 174.36 L 137.46 175.29 C 137.16 176.16 137.63 177.11 138.50 177.41 C 139.37 177.71 140.33 177.25 140.63 176.37 L 140.94 175.45 C 141.24 174.57 140.78 173.62 139.90 173.32 C 139.03 173.02 138.08 173.49 137.78 174.36 Z M 137.47 175.27 L 137.12 176.22 C 136.81 177.09 137.27 178.05 138.14 178.36 C 139.01 178.68 139.97 178.22 140.28 177.35 L 140.62 176.39 C 140.93 175.52 140.48 174.57 139.61 174.25 C 138.74 173.94 137.78 174.40 137.47 175.27 Z M 137.13 176.21 L 136.78 177.15 C 136.46 178.02 136.90 178.98 137.77 179.31 C 138.63 179.63 139.60 179.19 139.92 178.32 L 140.27 177.37 C 140.59 176.50 140.15 175.54 139.28 175.22 C 138.42 174.90 137.45 175.34 137.13 176.21 Z M 136.78 177.14 L 136.44 178.05 C 136.11 178.91 136.54 179.88 137.41 180.21 C 138.27 180.54 139.24 180.11 139.57 179.24 L 139.91 178.33 C 140.24 177.47 139.81 176.50 138.95 176.17 C 138.08 175.84 137.11 176.28 136.78 177.14 Z M 136.44 178.04 L 136.08 178.98 C 135.74 179.84 136.17 180.81 137.03 181.15 C 137.89 181.48 138.86 181.05 139.20 180.19 L 139.56 179.25 C 139.90 178.39 139.47 177.42 138.61 177.09 C 137.75 176.75 136.78 177.18 136.44 178.04 Z M 136.08 178.98 L 135.70 179.93 C 135.37 180.79 135.79 181.76 136.65 182.10 C 137.51 182.44 138.49 182.01 138.82 181.15 L 139.20 180.20 C 139.53 179.34 139.11 178.36 138.25 178.03 C 137.39 177.69 136.42 178.11 136.08 178.98 Z M 135.70 179.93 L 135.34 180.86 C 135.00 181.72 135.42 182.69 136.29 183.03 C 137.15 183.37 138.12 182.94 138.46 182.08 L 138.82 181.15 C 139.16 180.29 138.74 179.32 137.88 178.98 C 137.02 178.64 136.04 179.07 135.70 179.93 Z M 135.34 180.85 L 134.98 181.75 C 134.64 182.62 135.06 183.59 135.92 183.93 C 136.78 184.28 137.76 183.85 138.10 182.99 L 138.46 182.09 C 138.80 181.23 138.38 180.25 137.52 179.91 C 136.66 179.57 135.68 179.99 135.34 180.85 Z M 134.98 181.74 L 134.61 182.66 C 134.26 183.52 134.67 184.50 135.53 184.85 C 136.40 185.20 137.38 184.79 137.73 183.92 L 138.10 183.01 C 138.45 182.14 138.04 181.16 137.17 180.81 C 136.31 180.46 135.33 180.88 134.98 181.74 Z M 134.61 182.64 L 134.21 183.58 C 133.85 184.44 134.26 185.43 135.11 185.79 C 135.97 186.15 136.96 185.75 137.33 184.89 L 137.72 183.95 C 138.09 183.09 137.68 182.10 136.82 181.74 C 135.96 181.37 134.97 181.78 134.61 182.64 Z M 134.22 183.55 L 133.81 184.49 C 133.43 185.35 133.82 186.35 134.67 186.72 C 135.53 187.10 136.53 186.71 136.90 185.86 L 137.32 184.92 C 137.70 184.06 137.31 183.06 136.45 182.69 C 135.60 182.31 134.60 182.70 134.22 183.55 Z M 133.82 184.47 L 133.39 185.39 C 133.00 186.24 133.38 187.24 134.23 187.63 C 135.08 188.02 136.08 187.65 136.47 186.80 L 136.90 185.88 C 137.29 185.03 136.91 184.03 136.06 183.63 C 135.21 183.24 134.21 183.62 133.82 184.47 Z M 133.40 185.37 L 132.96 186.29 C 132.56 187.14 132.93 188.15 133.77 188.55 C 134.62 188.95 135.63 188.59 136.03 187.74 L 136.47 186.82 C 136.87 185.97 136.50 184.96 135.66 184.56 C 134.81 184.16 133.80 184.52 133.40 185.37 Z M 132.97 186.28 L 132.53 187.19 C 132.12 188.03 132.48 189.05 133.32 189.45 C 134.17 189.86 135.18 189.51 135.59 188.66 L 136.03 187.76 C 136.43 186.91 136.08 185.90 135.23 185.49 C 134.39 185.08 133.37 185.44 132.97 186.28 Z M 132.53 187.18 L 132.11 188.05 C 131.70 188.89 132.04 189.91 132.89 190.32 C 133.73 190.73 134.75 190.38 135.16 189.54 L 135.59 188.67 C 136.00 187.83 135.65 186.81 134.81 186.40 C 133.96 185.98 132.94 186.33 132.53 187.18 Z M 132.11 188.04 L 131.68 188.91 C 131.26 189.76 131.61 190.78 132.45 191.19 C 133.29 191.61 134.31 191.26 134.73 190.42 L 135.16 189.55 C 135.58 188.70 135.23 187.68 134.39 187.27 C 133.55 186.85 132.53 187.20 132.11 188.04 Z M 131.68 188.90 L 131.26 189.75 C 130.83 190.59 131.17 191.62 132.01 192.04 C 132.85 192.46 133.88 192.12 134.30 191.28 L 134.73 190.43 C 135.15 189.59 134.81 188.57 133.97 188.14 C 133.13 187.72 132.11 188.06 131.68 188.90 Z M 131.26 189.73 L 130.81 190.60 C 130.38 191.44 130.71 192.47 131.54 192.90 C 132.38 193.33 133.41 193.01 133.84 192.17 L 134.29 191.30 C 134.72 190.46 134.40 189.43 133.56 189.00 C 132.72 188.57 131.70 188.90 131.26 189.73 Z M 130.82 190.58 L 130.32 191.52 C 129.88 192.35 130.19 193.38 131.02 193.83 C 131.86 194.27 132.89 193.96 133.33 193.12 L 133.83 192.19 C 134.28 191.36 133.96 190.32 133.13 189.88 C 132.30 189.44 131.27 189.75 130.82 190.58 Z M 130.33 191.50 L 129.76 192.54 C 129.30 193.36 129.60 194.40 130.43 194.86 C 131.26 195.31 132.30 195.01 132.75 194.18 L 133.33 193.14 C 133.78 192.32 133.48 191.28 132.65 190.82 C 131.82 190.37 130.78 190.67 130.33 191.50 Z M 129.75 192.52 L 129.16 193.58 C 128.70 194.41 129.00 195.46 129.83 195.92 C 130.66 196.38 131.70 196.09 132.17 195.26 L 132.76 194.20 C 133.22 193.37 132.92 192.32 132.09 191.86 C 131.26 191.40 130.22 191.69 129.75 192.52 Z M 129.15 193.58 L 128.63 194.52 C 128.17 195.36 128.47 196.41 129.31 196.87 C 130.14 197.34 131.20 197.03 131.66 196.20 L 132.18 195.26 C 132.64 194.42 132.34 193.37 131.50 192.91 C 130.67 192.45 129.61 192.75 129.15 193.58 Z M 128.61 194.55 L 128.25 195.23 C 127.80 196.08 128.13 197.13 128.97 197.58 C 129.82 198.03 130.88 197.70 131.32 196.85 L 131.68 196.17 C 132.13 195.32 131.81 194.27 130.96 193.82 C 130.11 193.37 129.06 193.70 128.61 194.55 Z M 128.12 195.54 L 128.03 195.82 C 127.75 196.75 128.27 197.72 129.20 198.00 C 130.12 198.28 131.09 197.75 131.37 196.83 L 131.46 196.54 C 131.74 195.62 131.21 194.65 130.29 194.37 C 129.37 194.09 128.39 194.61 128.12 195.54 Z M 131.00 197.49 L 131.49 196.94 C 132.13 196.22 132.07 195.12 131.35 194.48 C 130.63 193.84 129.53 193.90 128.89 194.62 L 128.40 195.16 C 127.76 195.88 127.82 196.99 128.54 197.63 C 129.26 198.27 130.36 198.21 131.00 197.49 Z M 131.53 196.89 L 132.47 195.76 C 133.08 195.02 132.98 193.92 132.24 193.31 C 131.50 192.69 130.40 192.80 129.78 193.54 L 128.85 194.67 C 128.23 195.41 128.34 196.51 129.08 197.12 C 129.82 197.74 130.92 197.63 131.53 196.89 Z M 132.45 195.78 L 132.99 195.15 C 133.62 194.42 133.53 193.32 132.80 192.70 C 132.08 192.07 130.98 192.15 130.35 192.88 L 129.81 193.52 C 129.18 194.24 129.26 195.34 129.99 195.97 C 130.72 196.60 131.82 196.51 132.45 195.78 Z M 132.98 195.16 L 133.58 194.48 C 134.21 193.75 134.14 192.66 133.42 192.02 C 132.69 191.39 131.60 191.46 130.96 192.19 L 130.36 192.87 C 129.73 193.60 129.80 194.69 130.53 195.32 C 131.25 195.96 132.34 195.88 132.98 195.16 Z M 133.57 194.48 L 134.22 193.74 C 134.86 193.02 134.79 191.93 134.07 191.29 C 133.36 190.66 132.26 190.73 131.63 191.44 L 130.97 192.18 C 130.34 192.90 130.41 194.00 131.12 194.63 C 131.84 195.26 132.94 195.20 133.57 194.48 Z M 134.22 193.74 L 134.92 192.95 C 135.55 192.23 135.49 191.14 134.77 190.51 C 134.05 189.87 132.96 189.94 132.33 190.66 L 131.63 191.45 C 131.00 192.16 131.06 193.25 131.78 193.89 C 132.49 194.52 133.59 194.45 134.22 193.74 Z M 134.92 192.94 L 135.66 192.11 C 136.29 191.39 136.22 190.30 135.50 189.67 C 134.79 189.04 133.69 189.11 133.06 189.82 L 132.33 190.66 C 131.70 191.38 131.77 192.47 132.48 193.10 C 133.20 193.73 134.29 193.66 134.92 192.94 Z M 135.66 192.10 L 136.39 191.26 C 137.02 190.54 136.95 189.45 136.23 188.82 C 135.51 188.20 134.42 188.27 133.80 188.99 L 133.06 189.83 C 132.44 190.55 132.51 191.64 133.23 192.26 C 133.95 192.89 135.03 192.82 135.66 192.10 Z M 136.40 191.25 L 137.08 190.45 C 137.71 189.73 137.63 188.64 136.91 188.02 C 136.19 187.40 135.10 187.48 134.48 188.20 L 133.79 189.00 C 133.17 189.72 133.25 190.81 133.97 191.43 C 134.69 192.05 135.78 191.97 136.40 191.25 Z M 137.09 190.45 L 137.78 189.64 C 138.39 188.92 138.31 187.83 137.59 187.21 C 136.87 186.60 135.78 186.68 135.16 187.40 L 134.47 188.21 C 133.86 188.93 133.94 190.02 134.66 190.64 C 135.39 191.25 136.47 191.17 137.09 190.45 Z M 137.78 189.63 L 138.46 188.83 C 139.07 188.11 138.98 187.02 138.26 186.41 C 137.54 185.80 136.45 185.89 135.84 186.61 L 135.16 187.41 C 134.55 188.13 134.63 189.22 135.36 189.83 C 136.08 190.45 137.17 190.36 137.78 189.63 Z M 138.46 188.83 L 139.12 188.05 C 139.73 187.32 139.64 186.24 138.91 185.63 C 138.18 185.02 137.10 185.11 136.49 185.84 L 135.84 186.62 C 135.22 187.34 135.32 188.42 136.04 189.03 C 136.77 189.64 137.85 189.55 138.46 188.83 Z M 139.12 188.04 L 139.74 187.30 C 140.35 186.58 140.25 185.49 139.52 184.89 C 138.80 184.28 137.71 184.38 137.11 185.10 L 136.49 185.84 C 135.88 186.57 135.98 187.65 136.70 188.26 C 137.43 188.87 138.51 188.77 139.12 188.04 Z M 139.74 187.30 L 140.31 186.61 C 140.91 185.88 140.81 184.80 140.09 184.20 C 139.36 183.59 138.28 183.69 137.67 184.42 L 137.10 185.11 C 136.50 185.84 136.60 186.92 137.33 187.52 C 138.06 188.13 139.14 188.03 139.74 187.30 Z M 140.31 186.60 L 141.05 185.71 C 141.65 184.98 141.54 183.91 140.81 183.31 C 140.08 182.70 139.00 182.81 138.40 183.54 L 137.67 184.43 C 137.07 185.16 137.17 186.24 137.90 186.84 C 138.63 187.44 139.71 187.34 140.31 186.60 Z M 141.05 185.70 L 141.73 184.87 C 142.32 184.14 142.21 183.06 141.47 182.47 C 140.74 181.87 139.66 181.99 139.07 182.72 L 138.39 183.55 C 137.80 184.29 137.91 185.36 138.65 185.96 C 139.38 186.55 140.46 186.44 141.05 185.70 Z M 141.73 184.86 L 142.31 184.14 C 142.90 183.40 142.77 182.32 142.03 181.74 C 141.30 181.15 140.22 181.27 139.63 182.01 L 139.06 182.73 C 138.47 183.47 138.60 184.55 139.33 185.13 C 140.07 185.72 141.15 185.60 141.73 184.86 Z M 142.32 184.12 L 142.84 183.45 C 143.42 182.71 143.29 181.64 142.55 181.06 C 141.80 180.48 140.73 180.61 140.15 181.35 L 139.63 182.02 C 139.05 182.76 139.18 183.84 139.92 184.42 C 140.66 185.00 141.73 184.87 142.32 184.12 Z M 142.84 183.45 L 143.41 182.71 C 143.99 181.96 143.85 180.89 143.11 180.32 C 142.36 179.74 141.29 179.88 140.71 180.63 L 140.15 181.36 C 139.57 182.11 139.71 183.18 140.45 183.75 C 141.20 184.33 142.27 184.19 142.84 183.45 Z M 143.42 182.70 L 144.01 181.92 C 144.58 181.17 144.44 180.10 143.69 179.53 C 142.94 178.96 141.87 179.11 141.30 179.85 L 140.71 180.64 C 140.14 181.39 140.28 182.45 141.03 183.02 C 141.78 183.59 142.85 183.45 143.42 182.70 Z M 144.02 181.90 L 144.63 181.09 C 145.19 180.33 145.03 179.27 144.28 178.71 C 143.52 178.14 142.46 178.30 141.90 179.06 L 141.29 179.87 C 140.73 180.62 140.89 181.69 141.64 182.25 C 142.40 182.81 143.46 182.66 144.02 181.90 Z M 144.64 181.07 L 145.24 180.24 C 145.79 179.48 145.62 178.42 144.86 177.87 C 144.10 177.32 143.03 177.49 142.48 178.25 L 141.88 179.07 C 141.33 179.84 141.50 180.90 142.27 181.45 C 143.03 182.00 144.09 181.83 144.64 181.07 Z M 145.25 180.23 L 145.80 179.45 C 146.34 178.68 146.16 177.62 145.39 177.08 C 144.62 176.53 143.56 176.72 143.02 177.49 L 142.47 178.27 C 141.93 179.03 142.11 180.09 142.88 180.64 C 143.65 181.18 144.71 180.99 145.25 180.23 Z M 145.81 179.43 L 146.37 178.62 C 146.91 177.85 146.71 176.79 145.94 176.25 C 145.17 175.72 144.11 175.91 143.58 176.68 L 143.01 177.50 C 142.48 178.27 142.67 179.33 143.44 179.86 C 144.21 180.40 145.27 180.21 145.81 179.43 Z M 146.37 178.61 L 146.95 177.77 C 147.49 176.99 147.29 175.94 146.52 175.41 C 145.74 174.88 144.68 175.07 144.15 175.85 L 143.57 176.69 C 143.04 177.47 143.24 178.52 144.01 179.05 C 144.79 179.58 145.84 179.39 146.37 178.61 Z M 146.96 177.77 L 147.54 176.91 C 148.07 176.13 147.88 175.08 147.10 174.55 C 146.33 174.02 145.27 174.21 144.74 174.99 L 144.15 175.85 C 143.62 176.62 143.82 177.68 144.59 178.21 C 145.37 178.74 146.43 178.54 146.96 177.77 Z M 147.54 176.91 L 148.10 176.09 C 148.63 175.32 148.43 174.26 147.66 173.73 C 146.89 173.20 145.83 173.40 145.30 174.17 L 144.74 174.99 C 144.21 175.76 144.41 176.82 145.18 177.35 C 145.96 177.88 147.01 177.68 147.54 176.91 Z M 148.10 176.09 L 148.67 175.26 C 149.20 174.49 149.00 173.43 148.23 172.90 C 147.45 172.37 146.40 172.57 145.87 173.35 L 145.30 174.18 C 144.77 174.95 144.97 176.01 145.74 176.54 C 146.52 177.06 147.57 176.87 148.10 176.09 Z M 148.67 175.26 L 149.24 174.42 C 149.77 173.64 149.56 172.59 148.79 172.06 C 148.01 171.54 146.96 171.74 146.43 172.52 L 145.86 173.35 C 145.34 174.13 145.54 175.18 146.31 175.71 C 147.09 176.23 148.15 176.03 148.67 175.26 Z M 149.24 174.41 L 149.80 173.58 C 150.32 172.80 150.12 171.74 149.34 171.22 C 148.56 170.70 147.51 170.91 146.98 171.69 L 146.43 172.52 C 145.90 173.30 146.11 174.36 146.89 174.88 C 147.67 175.40 148.72 175.19 149.24 174.41 Z M 149.81 173.57 L 150.37 172.72 C 150.88 171.94 150.66 170.88 149.88 170.37 C 149.10 169.86 148.05 170.07 147.53 170.86 L 146.98 171.70 C 146.46 172.48 146.68 173.54 147.46 174.05 C 148.24 174.56 149.30 174.35 149.81 173.57 Z M 150.37 172.71 L 150.92 171.86 C 151.43 171.08 151.20 170.03 150.42 169.52 C 149.63 169.01 148.58 169.24 148.07 170.02 L 147.53 170.87 C 147.02 171.65 147.24 172.70 148.03 173.21 C 148.82 173.72 149.87 173.49 150.37 172.71 Z M 150.92 171.86 L 151.46 171.02 C 151.96 170.23 151.73 169.18 150.94 168.68 C 150.15 168.17 149.11 168.40 148.60 169.19 L 148.07 170.03 C 147.56 170.82 147.79 171.87 148.58 172.37 C 149.37 172.88 150.42 172.65 150.92 171.86 Z M 151.46 171.02 L 151.99 170.18 C 152.49 169.39 152.26 168.34 151.47 167.84 C 150.68 167.34 149.63 167.57 149.13 168.36 L 148.60 169.20 C 148.10 169.99 148.33 171.04 149.12 171.54 C 149.91 172.04 150.96 171.81 151.46 171.02 Z M 151.99 170.18 L 152.53 169.34 C 153.03 168.55 152.80 167.50 152.01 167.00 C 151.22 166.50 150.17 166.73 149.67 167.52 L 149.13 168.36 C 148.63 169.15 148.86 170.20 149.65 170.70 C 150.44 171.20 151.49 170.97 151.99 170.18 Z M 152.53 169.34 L 153.06 168.50 C 153.57 167.71 153.34 166.66 152.55 166.16 C 151.76 165.65 150.71 165.88 150.21 166.67 L 149.67 167.52 C 149.16 168.31 149.40 169.36 150.19 169.86 C 150.97 170.36 152.02 170.13 152.53 169.34 Z M 153.07 168.49 L 153.60 167.65 C 154.11 166.86 153.87 165.81 153.08 165.31 C 152.29 164.81 151.25 165.04 150.74 165.83 L 150.21 166.68 C 149.70 167.47 149.94 168.51 150.73 169.01 C 151.52 169.52 152.56 169.28 153.07 168.49 Z M 153.61 167.64 L 154.14 166.79 C 154.64 166.00 154.40 164.96 153.61 164.46 C 152.82 163.96 151.78 164.20 151.28 164.99 L 150.74 165.83 C 150.24 166.62 150.48 167.67 151.27 168.17 C 152.06 168.67 153.11 168.43 153.61 167.64 Z M 154.15 166.79 L 154.67 165.94 C 155.17 165.15 154.92 164.10 154.13 163.61 C 153.34 163.11 152.29 163.36 151.80 164.15 L 151.27 165.00 C 150.78 165.79 151.02 166.83 151.81 167.33 C 152.61 167.82 153.65 167.58 154.15 166.79 Z M 154.68 165.93 L 155.21 165.06 C 155.70 164.26 155.45 163.22 154.65 162.73 C 153.85 162.24 152.81 162.49 152.32 163.29 L 151.79 164.16 C 151.30 164.96 151.55 166.00 152.35 166.49 C 153.15 166.98 154.19 166.73 154.68 165.93 Z M 155.22 165.05 L 155.74 164.19 C 156.22 163.39 155.97 162.35 155.17 161.87 C 154.37 161.38 153.33 161.64 152.84 162.44 L 152.32 163.30 C 151.83 164.10 152.09 165.14 152.89 165.62 C 153.69 166.11 154.73 165.85 155.22 165.05 Z M 155.74 164.19 L 156.25 163.34 C 156.74 162.54 156.48 161.50 155.68 161.02 C 154.88 160.53 153.84 160.79 153.35 161.59 L 152.84 162.44 C 152.36 163.24 152.61 164.28 153.41 164.76 C 154.21 165.25 155.25 164.99 155.74 164.19 Z M 156.25 163.35 L 156.76 162.51 C 157.25 161.71 156.99 160.67 156.20 160.18 C 155.40 159.70 154.36 159.95 153.87 160.75 L 153.36 161.58 C 152.87 162.38 153.12 163.42 153.92 163.91 C 154.72 164.40 155.76 164.15 156.25 163.35 Z M 156.75 162.52 L 157.29 161.65 C 157.78 160.86 157.54 159.81 156.74 159.32 C 155.95 158.83 154.91 159.07 154.41 159.87 L 153.87 160.74 C 153.38 161.53 153.63 162.57 154.42 163.07 C 155.22 163.56 156.26 163.32 156.75 162.52 Z M 157.28 161.66 L 157.82 160.81 C 158.32 160.02 158.08 158.97 157.29 158.47 C 156.50 157.98 155.46 158.21 154.96 159.00 L 154.42 159.86 C 153.92 160.65 154.16 161.69 154.95 162.19 C 155.74 162.69 156.79 162.46 157.28 161.66 Z M 157.82 160.82 L 158.35 159.98 C 158.86 159.19 158.62 158.15 157.84 157.64 C 157.05 157.14 156.00 157.37 155.50 158.16 L 154.96 159.00 C 154.46 159.78 154.69 160.83 155.48 161.33 C 156.27 161.84 157.31 161.61 157.82 160.82 Z M 158.35 159.99 L 158.88 159.17 C 159.38 158.38 159.16 157.33 158.37 156.83 C 157.58 156.32 156.53 156.55 156.03 157.33 L 155.50 158.15 C 154.99 158.94 155.22 159.99 156.01 160.49 C 156.79 161.00 157.84 160.77 158.35 159.99 Z M 158.87 159.17 L 159.37 158.40 C 159.88 157.62 159.65 156.57 158.87 156.06 C 158.08 155.55 157.04 155.78 156.53 156.56 L 156.03 157.33 C 155.52 158.12 155.75 159.17 156.53 159.67 C 157.32 160.18 158.37 159.96 158.87 159.17 Z M 159.37 158.40 L 159.88 157.61 C 160.39 156.83 160.17 155.78 159.38 155.27 C 158.59 154.76 157.55 154.99 157.04 155.77 L 156.53 156.56 C 156.02 157.35 156.24 158.40 157.03 158.90 C 157.82 159.41 158.86 159.19 159.37 158.40 Z M 159.88 157.61 L 160.43 156.76 C 160.94 155.97 160.71 154.93 159.92 154.42 C 159.14 153.91 158.09 154.14 157.58 154.93 L 157.04 155.77 C 156.53 156.56 156.76 157.61 157.54 158.12 C 158.33 158.62 159.38 158.39 159.88 157.61 Z M 160.43 156.76 L 161.03 155.82 C 161.54 155.03 161.31 153.98 160.52 153.48 C 159.73 152.97 158.68 153.20 158.18 153.99 L 157.58 154.93 C 157.07 155.72 157.31 156.77 158.09 157.27 C 158.88 157.78 159.93 157.54 160.43 156.76 Z M 161.04 155.81 L 161.56 154.99 C 162.06 154.20 161.82 153.15 161.03 152.65 C 160.24 152.15 159.20 152.38 158.70 153.17 L 158.17 154.00 C 157.67 154.79 157.91 155.83 158.70 156.33 C 159.49 156.84 160.54 156.60 161.04 155.81 Z M 161.56 154.98 L 162.10 154.13 C 162.60 153.34 162.36 152.30 161.57 151.80 C 160.78 151.30 159.73 151.53 159.23 152.33 L 158.70 153.18 C 158.20 153.97 158.43 155.01 159.22 155.51 C 160.01 156.01 161.06 155.78 161.56 154.98 Z M 162.10 154.13 L 162.65 153.26 C 163.15 152.47 162.91 151.42 162.12 150.92 C 161.33 150.42 160.28 150.66 159.78 151.45 L 159.23 152.33 C 158.73 153.12 158.97 154.16 159.76 154.66 C 160.55 155.16 161.60 154.92 162.10 154.13 Z M 162.65 153.26 L 163.20 152.39 C 163.70 151.60 163.46 150.55 162.67 150.05 C 161.88 149.55 160.84 149.79 160.34 150.58 L 159.78 151.45 C 159.28 152.24 159.52 153.29 160.31 153.79 C 161.10 154.29 162.15 154.05 162.65 153.26 Z M 163.20 152.39 L 163.73 151.55 C 164.23 150.76 164.00 149.71 163.21 149.21 C 162.42 148.71 161.37 148.94 160.87 149.73 L 160.34 150.57 C 159.84 151.36 160.07 152.41 160.86 152.91 C 161.65 153.41 162.70 153.18 163.20 152.39 Z M 163.73 151.55 L 164.30 150.66 C 164.81 149.87 164.58 148.82 163.79 148.32 C 163.00 147.81 161.96 148.04 161.45 148.83 L 160.88 149.73 C 160.37 150.51 160.60 151.56 161.39 152.07 C 162.18 152.57 163.22 152.34 163.73 151.55 Z M 164.30 150.66 L 164.89 149.75 C 165.40 148.96 165.17 147.91 164.39 147.41 C 163.60 146.90 162.55 147.12 162.05 147.91 L 161.45 148.82 C 160.95 149.61 161.17 150.66 161.96 151.17 C 162.74 151.67 163.79 151.45 164.30 150.66 Z M 164.89 149.75 L 165.43 148.92 C 165.94 148.13 165.71 147.08 164.92 146.57 C 164.14 146.07 163.09 146.29 162.58 147.08 L 162.04 147.91 C 161.54 148.70 161.76 149.74 162.55 150.25 C 163.34 150.76 164.38 150.53 164.89 149.75 Z M 165.44 148.91 L 165.93 148.13 C 166.43 147.34 166.19 146.30 165.40 145.79 C 164.61 145.29 163.56 145.53 163.06 146.32 L 162.57 147.09 C 162.07 147.88 162.31 148.93 163.10 149.43 C 163.89 149.93 164.93 149.70 165.44 148.91 Z M 165.95 148.11 L 166.51 147.20 C 167.00 146.40 166.74 145.35 165.94 144.86 C 165.14 144.37 164.09 144.62 163.60 145.42 L 163.04 146.34 C 162.55 147.14 162.81 148.19 163.61 148.68 C 164.41 149.17 165.46 148.92 165.95 148.11 Z M 166.50 147.25 L 167.15 146.24 C 167.67 145.44 167.44 144.38 166.64 143.86 C 165.84 143.34 164.78 143.57 164.26 144.37 L 163.61 145.37 C 163.09 146.17 163.32 147.24 164.12 147.76 C 164.92 148.27 165.98 148.05 166.50 147.25 Z M 166.65 146.78 L 167.12 146.48 C 167.93 145.96 168.17 144.87 167.64 144.06 C 167.12 143.24 166.04 143.01 165.22 143.53 L 164.76 143.83 C 163.94 144.35 163.71 145.44 164.23 146.25 C 164.75 147.07 165.84 147.30 166.65 146.78 Z M 164.52 145.64 L 164.71 146.16 C 165.06 147.07 166.08 147.53 167.00 147.18 C 167.91 146.83 168.37 145.81 168.02 144.90 L 167.82 144.38 C 167.48 143.46 166.45 143.00 165.54 143.35 C 164.63 143.70 164.17 144.72 164.52 145.64 Z M 164.60 145.67 L 164.69 146.69 C 164.77 147.66 165.62 148.39 166.60 148.31 C 167.57 148.23 168.30 147.37 168.22 146.39 L 168.14 145.38 C 168.05 144.41 167.20 143.68 166.22 143.76 C 165.25 143.84 164.52 144.70 164.60 145.67 Z M 164.68 146.58 L 164.71 147.84 C 164.73 148.82 165.54 149.59 166.52 149.57 C 167.50 149.55 168.28 148.74 168.25 147.76 L 168.23 146.50 C 168.20 145.52 167.39 144.74 166.41 144.77 C 165.43 144.79 164.66 145.60 164.68 146.58 Z M 164.71 147.83 L 164.73 148.91 C 164.74 149.89 165.55 150.67 166.53 150.65 C 167.51 150.63 168.29 149.82 168.28 148.84 L 168.26 147.77 C 168.24 146.79 167.43 146.01 166.45 146.02 C 165.47 146.04 164.69 146.85 164.71 147.83 Z M 164.73 148.93 L 164.76 149.91 C 164.79 150.89 165.61 151.66 166.59 151.63 C 167.57 151.59 168.34 150.77 168.31 149.79 L 168.28 148.82 C 168.24 147.84 167.42 147.07 166.44 147.10 C 165.46 147.13 164.69 147.95 164.73 148.93 Z M 164.76 149.95 L 164.81 150.93 C 164.87 151.91 165.70 152.66 166.68 152.61 C 167.66 152.55 168.41 151.71 168.36 150.74 L 168.31 149.75 C 168.25 148.77 167.42 148.02 166.44 148.08 C 165.46 148.13 164.71 148.97 164.76 149.95 Z M 164.82 150.98 L 164.90 152.00 C 164.98 152.97 165.84 153.70 166.81 153.62 C 167.79 153.54 168.52 152.68 168.44 151.71 L 168.36 150.69 C 168.28 149.71 167.42 148.98 166.44 149.06 C 165.46 149.14 164.74 150.00 164.82 150.98 Z M 164.90 152.04 L 165.01 153.06 C 165.12 154.03 166.00 154.74 166.97 154.63 C 167.95 154.52 168.65 153.64 168.55 152.67 L 168.44 151.66 C 168.33 150.68 167.45 149.98 166.48 150.09 C 165.50 150.19 164.80 151.07 164.90 152.04 Z M 165.02 153.09 L 165.15 154.11 C 165.28 155.08 166.17 155.77 167.14 155.64 C 168.12 155.51 168.80 154.62 168.68 153.65 L 168.54 152.63 C 168.42 151.66 167.52 150.97 166.55 151.10 C 165.58 151.23 164.89 152.12 165.02 153.09 Z M 165.15 154.13 L 165.30 155.15 C 165.44 156.12 166.35 156.80 167.32 156.66 C 168.29 156.52 168.96 155.61 168.82 154.64 L 168.67 153.62 C 168.53 152.65 167.63 151.98 166.66 152.12 C 165.69 152.26 165.01 153.16 165.15 154.13 Z M 165.30 155.17 L 165.46 156.16 C 165.61 157.13 166.52 157.80 167.49 157.64 C 168.46 157.49 169.12 156.58 168.97 155.61 L 168.82 154.62 C 168.67 153.65 167.76 152.99 166.79 153.14 C 165.82 153.29 165.15 154.20 165.30 155.17 Z M 165.46 156.17 L 165.62 157.13 C 165.77 158.10 166.69 158.76 167.66 158.60 C 168.63 158.45 169.28 157.53 169.13 156.56 L 168.97 155.60 C 168.81 154.63 167.90 153.97 166.93 154.13 C 165.96 154.29 165.30 155.20 165.46 156.17 Z M 165.62 157.14 L 165.80 158.22 C 165.96 159.19 166.88 159.84 167.85 159.68 C 168.81 159.52 169.47 158.60 169.31 157.63 L 169.13 156.55 C 168.96 155.59 168.05 154.93 167.08 155.09 C 166.11 155.26 165.46 156.17 165.62 157.14 Z M 165.80 158.23 L 165.97 159.20 C 166.14 160.17 167.06 160.81 168.03 160.65 C 168.99 160.48 169.64 159.56 169.47 158.59 L 169.30 157.62 C 169.14 156.65 168.21 156.00 167.25 156.17 C 166.28 156.34 165.63 157.26 165.80 158.23 Z M 165.97 159.21 L 166.14 160.13 C 166.32 161.09 167.24 161.73 168.21 161.55 C 169.18 161.38 169.81 160.45 169.64 159.48 L 169.47 158.57 C 169.29 157.61 168.37 156.97 167.40 157.14 C 166.43 157.32 165.79 158.25 165.97 159.21 Z M 166.14 160.14 L 166.33 161.09 C 166.51 162.06 167.44 162.69 168.41 162.50 C 169.37 162.31 170.00 161.38 169.82 160.42 L 169.63 159.47 C 169.45 158.50 168.51 157.87 167.55 158.06 C 166.59 158.25 165.96 159.18 166.14 160.14 Z M 166.33 161.11 L 166.53 162.08 C 166.72 163.05 167.66 163.67 168.62 163.48 C 169.58 163.28 170.21 162.34 170.01 161.38 L 169.81 160.40 C 169.62 159.44 168.68 158.82 167.72 159.01 C 166.76 159.21 166.13 160.14 166.33 161.11 Z M 166.53 162.09 L 166.73 163.08 C 166.93 164.04 167.87 164.66 168.83 164.46 C 169.79 164.26 170.41 163.32 170.21 162.36 L 170.01 161.37 C 169.81 160.41 168.87 159.79 167.91 159.99 C 166.95 160.19 166.33 161.13 166.53 162.09 Z M 166.73 163.08 L 166.92 164.00 C 167.12 164.96 168.07 165.58 169.03 165.38 C 169.99 165.18 170.60 164.23 170.40 163.27 L 170.21 162.35 C 170.01 161.39 169.07 160.78 168.11 160.98 C 167.15 161.18 166.53 162.12 166.73 163.08 Z M 166.93 164.01 L 167.11 164.88 C 167.32 165.84 168.26 166.45 169.22 166.24 C 170.18 166.04 170.79 165.09 170.59 164.13 L 170.40 163.26 C 170.20 162.30 169.25 161.69 168.29 161.90 C 167.33 162.10 166.72 163.05 166.93 164.01 Z M 167.12 164.90 L 167.34 165.85 C 167.56 166.81 168.51 167.41 169.47 167.19 C 170.42 166.97 171.02 166.01 170.80 165.06 L 170.58 164.11 C 170.36 163.15 169.41 162.55 168.45 162.77 C 167.49 162.99 166.90 163.95 167.12 164.90 Z M 167.34 165.89 L 167.62 166.98 C 167.86 167.93 168.82 168.51 169.77 168.27 C 170.73 168.03 171.30 167.07 171.07 166.11 L 170.79 165.02 C 170.55 164.07 169.59 163.49 168.64 163.73 C 167.68 163.97 167.11 164.93 167.34 165.89 Z M 167.62 167.01 L 167.88 167.97 C 168.14 168.91 169.11 169.48 170.06 169.22 C 171.01 168.97 171.57 167.99 171.32 167.04 L 171.06 166.08 C 170.80 165.13 169.83 164.57 168.88 164.83 C 167.93 165.08 167.37 166.06 167.62 167.01 Z M 167.89 167.99 L 168.15 168.90 C 168.42 169.84 169.40 170.39 170.34 170.12 C 171.29 169.85 171.84 168.87 171.57 167.92 L 171.31 167.02 C 171.04 166.07 170.06 165.53 169.11 165.79 C 168.17 166.06 167.62 167.05 167.89 167.99 Z M 168.16 168.92 L 168.44 169.88 C 168.73 170.82 169.72 171.35 170.66 171.07 C 171.60 170.79 172.13 169.80 171.85 168.86 L 171.56 167.90 C 171.28 166.96 170.29 166.43 169.35 166.71 C 168.41 166.99 167.87 167.98 168.16 168.92 Z M 168.45 169.91 L 168.77 170.90 C 169.06 171.83 170.06 172.35 171.00 172.05 C 171.93 171.76 172.45 170.76 172.15 169.82 L 171.84 168.83 C 171.54 167.90 170.54 167.38 169.61 167.68 C 168.67 167.97 168.16 168.97 168.45 169.91 Z M 168.78 170.93 L 169.12 171.93 C 169.43 172.86 170.44 173.36 171.37 173.04 C 172.30 172.73 172.79 171.72 172.48 170.79 L 172.14 169.79 C 171.83 168.86 170.82 168.36 169.89 168.68 C 168.96 168.99 168.46 170.00 168.78 170.93 Z M 169.13 171.97 L 169.49 172.95 C 169.82 173.87 170.84 174.35 171.76 174.01 C 172.68 173.67 173.16 172.66 172.82 171.73 L 172.47 170.75 C 172.13 169.83 171.11 169.35 170.19 169.69 C 169.27 170.02 168.79 171.04 169.13 171.97 Z M 169.50 172.99 L 169.90 173.99 C 170.26 174.90 171.29 175.35 172.20 174.99 C 173.11 174.63 173.56 173.60 173.20 172.69 L 172.81 171.69 C 172.45 170.78 171.41 170.33 170.50 170.69 C 169.59 171.05 169.14 172.08 169.50 172.99 Z M 169.92 174.04 L 170.34 175.00 C 170.72 175.90 171.77 176.31 172.67 175.92 C 173.57 175.54 173.98 174.49 173.59 173.59 L 173.18 172.64 C 172.79 171.74 171.75 171.32 170.85 171.71 C 169.95 172.10 169.53 173.14 169.92 174.04 Z M 170.36 175.05 L 170.79 175.96 C 171.21 176.85 172.26 177.23 173.15 176.81 C 174.03 176.40 174.41 175.34 174.00 174.45 L 173.57 173.54 C 173.15 172.65 172.09 172.27 171.21 172.69 C 170.32 173.11 169.94 174.17 170.36 175.05 Z M 170.82 176.02 L 171.26 176.89 C 171.71 177.76 172.78 178.10 173.65 177.65 C 174.52 177.21 174.86 176.14 174.42 175.27 L 173.97 174.40 C 173.52 173.53 172.46 173.19 171.58 173.63 C 170.71 174.08 170.37 175.15 170.82 176.02 Z M 171.29 176.94 L 171.75 177.76 C 172.23 178.62 173.31 178.92 174.16 178.45 C 175.02 177.97 175.32 176.89 174.85 176.04 L 174.39 175.21 C 173.91 174.36 172.83 174.05 171.98 174.53 C 171.12 175.01 170.82 176.09 171.29 176.94 Z M 171.79 177.82 L 172.30 178.67 C 172.81 179.50 173.90 179.76 174.74 179.25 C 175.57 178.75 175.83 177.66 175.32 176.82 L 174.81 175.98 C 174.30 175.14 173.21 174.88 172.38 175.39 C 171.54 175.90 171.28 176.99 171.79 177.82 Z M 172.35 178.73 L 172.93 179.59 C 173.48 180.40 174.57 180.61 175.38 180.07 C 176.19 179.52 176.41 178.42 175.86 177.61 L 175.28 176.76 C 174.73 175.95 173.63 175.73 172.83 176.28 C 172.02 176.83 171.80 177.93 172.35 178.73 Z M 172.99 179.67 L 173.59 180.47 C 174.18 181.24 175.28 181.40 176.06 180.81 C 176.84 180.22 176.99 179.12 176.41 178.34 L 175.80 177.54 C 175.21 176.76 174.11 176.61 173.33 177.19 C 172.55 177.78 172.40 178.89 172.99 179.67 Z M 173.66 180.54 L 174.29 181.29 C 174.92 182.03 176.03 182.12 176.77 181.49 C 177.51 180.86 177.60 179.75 176.97 179.00 L 176.34 178.26 C 175.71 177.52 174.60 177.43 173.86 178.06 C 173.11 178.69 173.02 179.80 173.66 180.54 Z M 174.36 181.37 L 175.03 182.06 C 175.70 182.76 176.82 182.78 177.52 182.11 C 178.22 181.43 178.24 180.32 177.57 179.62 L 176.90 178.93 C 176.23 178.23 175.11 178.20 174.41 178.88 C 173.71 179.55 173.69 180.67 174.36 181.37 Z M 175.12 182.14 L 175.87 182.82 C 176.59 183.47 177.70 183.42 178.35 182.70 C 179.00 181.98 178.95 180.87 178.23 180.22 L 177.48 179.54 C 176.76 178.89 175.65 178.94 175.00 179.66 C 174.34 180.38 174.40 181.49 175.12 182.14 Z M 175.97 182.90 L 176.77 183.53 C 177.54 184.12 178.64 183.98 179.23 183.22 C 179.83 182.45 179.69 181.35 178.92 180.76 L 178.12 180.14 C 177.36 179.54 176.26 179.68 175.67 180.45 C 175.07 181.21 175.21 182.31 175.97 182.90 Z M 176.90 183.61 L 177.74 184.15 C 178.55 184.67 179.63 184.44 180.15 183.63 C 180.68 182.82 180.44 181.74 179.63 181.22 L 178.80 180.68 C 177.99 180.15 176.91 180.38 176.38 181.19 C 175.86 182.00 176.09 183.09 176.90 183.61 Z M 177.89 184.23 L 178.76 184.68 C 179.61 185.12 180.66 184.79 181.10 183.93 C 181.55 183.08 181.21 182.02 180.35 181.58 L 179.48 181.13 C 178.63 180.69 177.58 181.03 177.14 181.88 C 176.70 182.74 177.03 183.79 177.89 184.23 Z M 178.93 184.75 L 179.84 185.10 C 180.74 185.44 181.74 185.00 182.08 184.10 C 182.43 183.21 181.98 182.20 181.08 181.86 L 180.18 181.51 C 179.28 181.17 178.28 181.62 177.94 182.51 C 177.59 183.41 178.04 184.41 178.93 184.75 Z M 180.02 185.15 L 180.96 185.40 C 181.88 185.64 182.83 185.09 183.07 184.17 C 183.32 183.25 182.77 182.30 181.85 182.06 L 180.90 181.81 C 179.98 181.56 179.04 182.11 178.79 183.04 C 178.55 183.96 179.10 184.91 180.02 185.15 Z M 181.11 185.42 L 182.09 185.59 C 183.03 185.75 183.92 185.12 184.08 184.18 C 184.23 183.25 183.60 182.36 182.67 182.20 L 181.69 182.03 C 180.76 181.87 179.87 182.50 179.71 183.44 C 179.55 184.38 180.18 185.27 181.11 185.42 Z M 182.21 185.60 L 183.22 185.70 C 184.17 185.79 185.00 185.11 185.10 184.16 C 185.19 183.22 184.50 182.39 183.56 182.29 L 182.55 182.19 C 181.61 182.10 180.77 182.78 180.68 183.73 C 180.58 184.67 181.27 185.51 182.21 185.60 Z M 183.31 185.70 L 184.31 185.75 C 185.25 185.80 186.05 185.07 186.10 184.13 C 186.15 183.19 185.43 182.39 184.49 182.34 L 183.48 182.29 C 182.54 182.25 181.74 182.97 181.69 183.91 C 181.64 184.85 182.37 185.65 183.31 185.70 Z M 184.38 185.74 L 185.33 185.75 C 186.27 185.76 187.04 185.01 187.05 184.08 C 187.06 183.14 186.31 182.38 185.37 182.36 L 184.42 182.35 C 183.48 182.34 182.72 183.09 182.71 184.03 C 182.69 184.96 183.44 185.73 184.38 185.74 Z M 185.41 185.74 L 186.39 185.71 C 187.32 185.67 188.05 184.89 188.02 183.97 C 187.98 183.04 187.21 182.31 186.28 182.34 L 185.29 182.38 C 184.37 182.41 183.64 183.19 183.67 184.12 C 183.70 185.04 184.48 185.77 185.41 185.74 Z M 186.49 185.69 L 187.49 185.60 C 188.41 185.51 189.09 184.70 189.01 183.78 C 188.92 182.86 188.11 182.18 187.19 182.27 L 186.18 182.36 C 185.26 182.44 184.59 183.26 184.67 184.18 C 184.75 185.10 185.57 185.77 186.49 185.69 Z M 187.60 185.57 L 188.63 185.41 C 189.54 185.27 190.16 184.42 190.01 183.51 C 189.87 182.60 189.02 181.98 188.11 182.13 L 187.08 182.29 C 186.18 182.43 185.56 183.28 185.70 184.19 C 185.84 185.10 186.70 185.72 187.60 185.57 Z M 188.74 185.38 L 189.72 185.15 C 190.61 184.94 191.16 184.06 190.96 183.17 C 190.75 182.28 189.87 181.73 188.98 181.93 L 188.00 182.16 C 187.11 182.37 186.56 183.25 186.76 184.14 C 186.97 185.03 187.86 185.58 188.74 185.38 Z M 189.82 185.11 L 190.75 184.83 C 191.62 184.57 192.11 183.66 191.84 182.79 C 191.58 181.93 190.67 181.43 189.80 181.70 L 188.88 181.97 C 188.01 182.24 187.52 183.15 187.78 184.01 C 188.04 184.88 188.96 185.37 189.82 185.11 Z M 190.83 184.79 L 191.76 184.45 C 192.60 184.15 193.04 183.22 192.74 182.37 C 192.43 181.53 191.50 181.09 190.66 181.40 L 189.72 181.74 C 188.88 182.04 188.44 182.97 188.75 183.82 C 189.05 184.66 189.99 185.10 190.83 184.79 Z M 191.83 184.41 L 192.76 184.03 C 193.58 183.69 193.97 182.74 193.63 181.92 C 193.29 181.10 192.34 180.71 191.52 181.05 L 190.59 181.44 C 189.77 181.78 189.38 182.72 189.72 183.55 C 190.06 184.37 191.00 184.76 191.83 184.41 Z M 192.81 183.99 L 193.74 183.56 C 194.54 183.18 194.89 182.23 194.52 181.43 C 194.15 180.63 193.20 180.29 192.40 180.66 L 191.47 181.09 C 190.67 181.46 190.32 182.41 190.69 183.21 C 191.06 184.01 192.01 184.36 192.81 183.99 Z M 193.79 183.52 L 194.71 183.05 C 195.49 182.65 195.80 181.70 195.40 180.92 C 195.01 180.14 194.05 179.83 193.27 180.23 L 192.35 180.70 C 191.57 181.09 191.26 182.05 191.66 182.83 C 192.05 183.61 193.01 183.92 193.79 183.52 Z M 194.74 183.02 L 195.56 182.57 C 196.32 182.16 196.60 181.20 196.18 180.44 C 195.76 179.68 194.81 179.40 194.05 179.82 L 193.24 180.26 C 192.47 180.68 192.20 181.63 192.61 182.39 C 193.03 183.15 193.98 183.43 194.74 183.02 Z M 195.58 182.54 L 196.39 182.07 C 197.13 181.64 197.39 180.69 196.96 179.94 C 196.52 179.20 195.57 178.95 194.83 179.38 L 194.02 179.85 C 193.28 180.28 193.02 181.23 193.46 181.98 C 193.89 182.72 194.84 182.97 195.58 182.54 Z M 196.41 182.05 L 197.23 181.55 C 197.96 181.11 198.19 180.16 197.75 179.43 C 197.30 178.70 196.35 178.47 195.62 178.91 L 194.81 179.41 C 194.08 179.85 193.85 180.80 194.29 181.53 C 194.73 182.26 195.68 182.49 196.41 182.05 Z M 197.24 181.52 L 198.08 180.99 C 198.80 180.54 199.01 179.60 198.56 178.88 C 198.11 178.17 197.17 177.95 196.45 178.41 L 195.61 178.93 C 194.90 179.39 194.68 180.33 195.13 181.05 C 195.58 181.76 196.53 181.97 197.24 181.52 Z M 198.09 180.97 L 198.96 180.41 C 199.67 179.95 199.87 179.01 199.41 178.31 C 198.96 177.61 198.02 177.41 197.32 177.86 L 196.44 178.43 C 195.74 178.88 195.54 179.82 195.99 180.52 C 196.45 181.23 197.39 181.43 198.09 180.97 Z M 198.97 180.39 L 199.89 179.79 C 200.58 179.33 200.77 178.40 200.32 177.70 C 199.86 177.01 198.93 176.82 198.23 177.27 L 197.31 177.88 C 196.62 178.33 196.43 179.27 196.89 179.96 C 197.34 180.65 198.27 180.85 198.97 180.39 Z M 199.88 179.77 L 200.71 179.23 C 201.39 178.77 201.58 177.85 201.12 177.16 C 200.67 176.47 199.74 176.29 199.06 176.74 L 198.24 177.29 C 197.55 177.74 197.36 178.67 197.82 179.35 C 198.27 180.04 199.20 180.23 199.88 179.77 Z M 200.70 179.22 L 201.48 178.71 C 202.16 178.25 202.34 177.33 201.89 176.65 C 201.43 175.97 200.51 175.78 199.83 176.24 L 199.06 176.75 C 198.38 177.20 198.19 178.13 198.65 178.81 C 199.10 179.49 200.02 179.67 200.70 179.22 Z M 201.47 178.70 L 202.27 178.16 C 202.95 177.71 203.13 176.80 202.68 176.12 C 202.23 175.44 201.31 175.26 200.63 175.71 L 199.83 176.24 C 199.15 176.70 198.97 177.61 199.43 178.29 C 199.88 178.97 200.79 179.15 201.47 178.70 Z M 202.27 178.16 L 203.09 177.61 C 203.77 177.16 203.95 176.24 203.50 175.57 C 203.05 174.89 202.13 174.71 201.46 175.17 L 200.64 175.72 C 199.96 176.17 199.78 177.08 200.23 177.75 C 200.68 178.43 201.60 178.61 202.27 178.16 Z M 203.09 177.60 L 203.93 177.04 C 204.60 176.59 204.78 175.68 204.33 175.01 C 203.88 174.34 202.97 174.16 202.30 174.61 L 201.46 175.17 C 200.79 175.62 200.61 176.53 201.06 177.20 C 201.51 177.87 202.42 178.05 203.09 177.60 Z M 203.93 177.03 L 204.79 176.45 C 205.45 176.00 205.63 175.10 205.18 174.43 C 204.74 173.77 203.83 173.59 203.16 174.04 L 202.31 174.61 C 201.64 175.06 201.46 175.97 201.91 176.63 C 202.36 177.30 203.26 177.48 203.93 177.03 Z M 204.78 176.45 L 205.65 175.86 C 206.32 175.42 206.49 174.52 206.05 173.85 C 205.60 173.19 204.70 173.01 204.04 173.46 L 203.17 174.04 C 202.50 174.49 202.33 175.39 202.77 176.05 C 203.22 176.72 204.12 176.89 204.78 176.45 Z M 205.65 175.86 L 206.52 175.27 C 207.19 174.82 207.36 173.93 206.92 173.27 C 206.47 172.61 205.58 172.43 204.92 172.88 L 204.04 173.47 C 203.38 173.91 203.21 174.80 203.65 175.47 C 204.09 176.13 204.99 176.30 205.65 175.86 Z M 206.52 175.26 L 207.09 174.88 C 207.74 174.44 207.92 173.55 207.48 172.89 C 207.03 172.23 206.14 172.06 205.48 172.50 L 204.92 172.88 C 204.26 173.32 204.09 174.22 204.53 174.87 C 204.97 175.53 205.86 175.70 206.52 175.26 Z"
      fill="black"
      fill-rule="nonzero" /></svg>