<svg xmlns="http://www.w3.org/2000/svg" width="300" height="300" viewBox="0 0 300 300">
<path d="M 134.35 93.41 L 133.72 93.96 C 133.07 94.53 133.00 95.51 133.56 96.16 C 134.13 96.81 135.11 96.88 135.76 96.31 L 136.40 95.76 C 137.05 95.19 137.12 94.21 136.55 93.56 C 135.99 92.91 135.00 92.84 134.35 93.41 Z M 133.68 93.98 L 133.03 94.58 C 132.39 95.16 132.34 96.15 132.93 96.79 C 133.51 97.43 134.50 97.48 135.14 96.89 L 135.79 96.29 C 136.43 95.71 136.48 94.72 135.89 94.08 C 135.31 93.44 134.32 93.40 133.68 93.98 Z M 132.98 94.62 L 132.28 95.31 C 131.66 95.92 131.65 96.91 132.26 97.53 C 132.87 98.15 133.87 98.15 134.49 97.55 L 135.18 96.85 C 135.80 96.25 135.81 95.25 135.20 94.63 C 134.59 94.02 133.59 94.01 132.98 94.62 Z M 132.22 95.36 L 131.46 96.18 C 130.87 96.83 130.91 97.82 131.55 98.41 C 132.19 99.00 133.19 98.96 133.78 98.32 L 134.54 97.50 C 135.13 96.86 135.09 95.86 134.45 95.27 C 133.81 94.68 132.81 94.72 132.22 95.36 Z M 131.41 96.23 L 130.69 97.09 C 130.13 97.76 130.21 98.76 130.88 99.32 C 131.55 99.88 132.55 99.80 133.11 99.13 L 133.83 98.27 C 134.39 97.60 134.31 96.61 133.64 96.04 C 132.97 95.48 131.98 95.57 131.41 96.23 Z M 130.66 97.13 L 130.06 97.88 C 129.52 98.57 129.64 99.56 130.32 100.10 C 131.00 100.64 132.00 100.53 132.54 99.85 L 133.14 99.09 C 133.68 98.41 133.57 97.41 132.88 96.87 C 132.20 96.33 131.20 96.44 130.66 97.13 Z M 130.05 97.91 L 129.43 98.72 C 128.90 99.41 129.04 100.40 129.73 100.93 C 130.42 101.45 131.41 101.32 131.94 100.63 L 132.55 99.82 C 133.08 99.13 132.95 98.14 132.26 97.61 C 131.57 97.08 130.58 97.22 130.05 97.91 Z M 129.42 98.74 L 128.80 99.58 C 128.28 100.28 128.43 101.26 129.12 101.78 C 129.82 102.30 130.80 102.15 131.32 101.45 L 131.94 100.61 C 132.46 99.91 132.32 98.93 131.62 98.41 C 130.92 97.90 129.94 98.04 129.42 98.74 Z M 128.79 99.60 L 128.17 100.45 C 127.67 101.15 127.82 102.13 128.52 102.64 C 129.22 103.14 130.20 102.99 130.71 102.29 L 131.32 101.44 C 131.83 100.74 131.68 99.76 130.98 99.25 C 130.28 98.74 129.30 98.90 128.79 99.60 Z M 128.17 100.46 L 127.57 101.30 C 127.07 102.00 127.24 102.97 127.94 103.47 C 128.64 103.97 129.61 103.81 130.11 103.11 L 130.71 102.28 C 131.21 101.57 131.05 100.60 130.35 100.10 C 129.64 99.60 128.67 99.76 128.17 100.46 Z M 127.57 101.31 L 127.01 102.10 C 126.52 102.80 126.69 103.77 127.39 104.27 C 128.09 104.76 129.06 104.60 129.56 103.89 L 130.12 103.10 C 130.61 102.40 130.44 101.43 129.74 100.93 C 129.04 100.44 128.07 100.61 127.57 101.31 Z M 127.02 102.11 L 126.40 103.00 C 125.91 103.71 126.08 104.67 126.78 105.16 C 127.48 105.65 128.45 105.47 128.93 104.77 L 129.55 103.88 C 130.04 103.18 129.87 102.22 129.17 101.73 C 128.47 101.24 127.50 101.41 127.02 102.11 Z M 126.40 103.02 L 125.77 103.94 C 125.29 104.64 125.47 105.59 126.16 106.07 C 126.86 106.55 127.81 106.37 128.29 105.68 L 128.93 104.76 C 129.41 104.06 129.23 103.11 128.53 102.63 C 127.84 102.15 126.88 102.32 126.40 103.02 Z M 125.78 103.96 L 125.23 104.78 C 124.76 105.47 124.94 106.41 125.63 106.88 C 126.32 107.35 127.26 107.17 127.73 106.47 L 128.28 105.66 C 128.75 104.97 128.57 104.03 127.88 103.56 C 127.19 103.09 126.25 103.27 125.78 103.96 Z M 125.24 104.79 L 124.73 105.55 C 124.27 106.23 124.46 107.16 125.14 107.62 C 125.83 108.08 126.75 107.90 127.21 107.21 L 127.72 106.46 C 128.18 105.77 127.99 104.84 127.31 104.38 C 126.62 103.93 125.70 104.11 125.24 104.79 Z M 124.74 105.56 L 124.26 106.30 C 123.81 106.98 123.99 107.89 124.67 108.34 C 125.35 108.79 126.26 108.61 126.71 107.93 L 127.20 107.19 C 127.65 106.52 127.47 105.60 126.79 105.15 C 126.11 104.70 125.19 104.89 124.74 105.56 Z M 124.26 106.31 L 123.74 107.10 C 123.30 107.77 123.49 108.68 124.16 109.12 C 124.83 109.57 125.74 109.38 126.18 108.71 L 126.70 107.92 C 127.15 107.25 126.96 106.34 126.29 105.89 C 125.62 105.45 124.71 105.64 124.26 106.31 Z M 123.75 107.11 L 123.21 107.93 C 122.77 108.60 122.95 109.50 123.62 109.94 C 124.30 110.38 125.20 110.20 125.64 109.53 L 126.18 108.70 C 126.62 108.03 126.43 107.13 125.76 106.69 C 125.09 106.25 124.19 106.43 123.75 107.11 Z M 123.21 107.94 L 122.66 108.78 C 122.22 109.45 122.41 110.35 123.08 110.79 C 123.75 111.22 124.65 111.03 125.08 110.36 L 125.64 109.52 C 126.07 108.85 125.88 107.95 125.21 107.52 C 124.54 107.08 123.65 107.27 123.21 107.94 Z M 122.66 108.79 L 122.11 109.65 C 121.67 110.32 121.87 111.21 122.54 111.64 C 123.20 112.08 124.10 111.88 124.53 111.21 L 125.08 110.36 C 125.51 109.69 125.32 108.80 124.65 108.36 C 123.98 107.93 123.09 108.12 122.66 108.79 Z M 122.11 109.66 L 121.56 110.52 C 121.13 111.18 121.33 112.07 122.00 112.50 C 122.66 112.93 123.55 112.73 123.98 112.06 L 124.53 111.21 C 124.96 110.54 124.76 109.65 124.09 109.22 C 123.42 108.79 122.53 108.99 122.11 109.66 Z M 121.56 110.52 L 121.02 111.37 C 120.60 112.04 120.80 112.93 121.47 113.35 C 122.14 113.77 123.02 113.57 123.44 112.90 L 123.98 112.06 C 124.40 111.39 124.20 110.50 123.53 110.08 C 122.87 109.66 121.98 109.86 121.56 110.52 Z M 121.02 111.38 L 120.49 112.23 C 120.07 112.90 120.28 113.79 120.95 114.20 C 121.62 114.62 122.50 114.42 122.92 113.75 L 123.45 112.90 C 123.87 112.23 123.66 111.34 122.99 110.93 C 122.32 110.51 121.44 110.71 121.02 111.38 Z M 120.49 112.24 L 119.96 113.09 C 119.55 113.76 119.76 114.64 120.43 115.06 C 121.10 115.47 121.98 115.26 122.40 114.59 L 122.92 113.74 C 123.33 113.07 123.12 112.19 122.45 111.77 C 121.78 111.36 120.90 111.57 120.49 112.24 Z M 119.96 113.10 L 119.44 113.95 C 119.03 114.62 119.25 115.50 119.92 115.91 C 120.59 116.32 121.47 116.10 121.88 115.43 L 122.40 114.58 C 122.81 113.91 122.59 113.03 121.92 112.62 C 121.25 112.21 120.37 112.42 119.96 113.10 Z M 119.44 113.95 L 118.92 114.81 C 118.52 115.49 118.74 116.36 119.41 116.77 C 120.09 117.17 120.96 116.96 121.37 116.28 L 121.88 115.42 C 122.29 114.75 122.07 113.87 121.40 113.47 C 120.72 113.06 119.85 113.28 119.44 113.95 Z M 118.92 114.82 L 118.41 115.68 C 118.01 116.36 118.23 117.23 118.91 117.63 C 119.58 118.04 120.46 117.81 120.86 117.14 L 121.37 116.28 C 121.77 115.60 121.55 114.72 120.88 114.32 C 120.20 113.92 119.32 114.14 118.92 114.82 Z M 118.41 115.68 L 117.90 116.54 C 117.50 117.22 117.72 118.10 118.40 118.50 C 119.08 118.90 119.95 118.67 120.35 117.99 L 120.86 117.13 C 121.26 116.45 121.04 115.58 120.36 115.18 C 119.68 114.78 118.81 115.01 118.41 115.68 Z M 117.90 116.55 L 117.39 117.41 C 116.99 118.09 117.22 118.96 117.90 119.36 C 118.58 119.76 119.45 119.53 119.85 118.85 L 120.36 117.99 C 120.75 117.31 120.53 116.44 119.85 116.04 C 119.17 115.64 118.30 115.87 117.90 116.55 Z M 117.39 117.41 L 117.08 117.94 C 116.68 118.62 116.91 119.49 117.59 119.89 C 118.27 120.29 119.14 120.06 119.54 119.38 L 119.85 118.85 C 120.25 118.17 120.02 117.30 119.34 116.90 C 118.66 116.50 117.79 116.73 117.39 117.41 Z"
      fill="black"
      fill-rule="nonzero" /></svg>