<svg xmlns="http://www.w3.org/2000/svg" width="300" height="300" viewBox="0 0 300 300">
<path d="M 126.99 124.10 L 126.92 124.97 C 126.86 125.80 127.49 126.52 128.32 126.59 C 129.15 126.65 129.88 126.03 129.94 125.19 L 130.00 124.33 C 130.07 123.50 129.44 122.77 128.61 122.71 C 127.78 122.65 127.05 123.27 126.99 124.10 Z M 126.92 124.98 L 126.86 125.90 C 126.81 126.73 127.44 127.45 128.27 127.51 C 129.10 127.56 129.83 126.93 129.88 126.10 L 129.94 125.18 C 130.00 124.35 129.37 123.63 128.53 123.57 C 127.70 123.51 126.98 124.15 126.92 124.98 Z M 126.86 125.92 L 126.80 126.94 C 126.76 127.78 127.40 128.49 128.24 128.54 C 129.08 128.58 129.79 127.94 129.83 127.10 L 129.88 126.08 C 129.93 125.24 129.29 124.53 128.45 124.48 C 127.61 124.44 126.90 125.08 126.86 125.92 Z M 126.80 126.97 L 126.76 128.15 C 126.73 128.99 127.39 129.69 128.22 129.72 C 129.06 129.75 129.77 129.09 129.79 128.26 L 129.84 127.07 C 129.86 126.24 129.21 125.53 128.37 125.50 C 127.53 125.47 126.83 126.13 126.80 126.97 Z M 126.76 128.17 L 126.74 129.08 C 126.72 129.92 127.39 130.61 128.23 130.63 C 129.07 130.65 129.76 129.98 129.78 129.14 L 129.80 128.24 C 129.81 127.40 129.15 126.70 128.31 126.68 C 127.47 126.67 126.77 127.33 126.76 128.17 Z M 126.74 129.09 L 126.72 130.06 C 126.71 130.90 127.39 131.59 128.23 131.60 C 129.07 131.61 129.76 130.94 129.77 130.10 L 129.78 129.13 C 129.79 128.29 129.12 127.60 128.28 127.59 C 127.44 127.58 126.75 128.25 126.74 129.09 Z M 126.72 130.07 L 126.71 131.09 C 126.71 131.93 127.38 132.62 128.23 132.63 C 129.07 132.63 129.76 131.95 129.76 131.11 L 129.77 130.09 C 129.78 129.25 129.10 128.56 128.26 128.56 C 127.42 128.55 126.73 129.23 126.72 130.07 Z M 126.71 131.09 L 126.71 132.14 C 126.70 132.98 127.38 133.67 128.23 133.67 C 129.07 133.67 129.76 132.99 129.76 132.15 L 129.77 131.11 C 129.77 130.26 129.09 129.58 128.24 129.57 C 127.40 129.57 126.71 130.25 126.71 131.09 Z M 126.70 132.14 L 126.70 133.19 C 126.70 134.03 127.39 134.72 128.23 134.72 C 129.07 134.72 129.76 134.03 129.76 133.19 L 129.76 132.15 C 129.76 131.30 129.08 130.62 128.24 130.61 C 127.39 130.61 126.71 131.30 126.70 132.14 Z M 126.70 133.19 L 126.70 134.21 C 126.70 135.05 127.39 135.74 128.23 135.74 C 129.08 135.74 129.76 135.05 129.76 134.21 L 129.76 133.19 C 129.76 132.34 129.08 131.66 128.23 131.66 C 127.39 131.66 126.70 132.34 126.70 133.19 Z M 126.70 134.21 L 126.70 135.26 C 126.70 136.11 127.39 136.79 128.23 136.79 C 129.08 136.79 129.77 136.11 129.77 135.26 L 129.77 134.21 C 129.77 133.36 129.08 132.68 128.23 132.68 C 127.39 132.68 126.70 133.36 126.70 134.21 Z M 126.70 135.26 L 126.70 136.28 C 126.70 137.12 127.39 137.81 128.23 137.81 C 129.08 137.81 129.77 137.12 129.77 136.28 L 129.77 135.26 C 129.77 134.41 129.08 133.73 128.23 133.73 C 127.39 133.73 126.70 134.41 126.70 135.26 Z M 126.70 136.28 L 126.70 137.26 C 126.70 138.11 127.39 138.80 128.23 138.80 C 129.08 138.80 129.77 138.11 129.77 137.26 L 129.77 136.28 C 129.77 135.43 129.08 134.74 128.23 134.74 C 127.39 134.74 126.70 135.43 126.70 136.28 Z M 126.70 137.26 L 126.70 138.24 C 126.70 139.09 127.38 139.77 128.23 139.77 C 129.08 139.77 129.77 139.09 129.77 138.24 L 129.77 137.26 C 129.77 136.42 129.08 135.73 128.23 135.73 C 127.38 135.73 126.70 136.42 126.70 137.26 Z M 126.70 138.24 L 126.70 139.22 C 126.70 140.06 127.38 140.75 128.23 140.75 C 129.08 140.75 129.77 140.06 129.77 139.22 L 129.77 138.24 C 129.77 137.39 129.08 136.70 128.23 136.70 C 127.38 136.70 126.70 137.39 126.70 138.24 Z M 126.70 139.22 L 126.70 140.19 C 126.70 141.04 127.38 141.73 128.23 141.73 C 129.08 141.73 129.77 141.04 129.77 140.19 L 129.77 139.22 C 129.77 138.37 129.08 137.68 128.23 137.68 C 127.38 137.68 126.70 138.37 126.70 139.22 Z M 126.70 140.19 L 126.70 141.16 C 126.70 142.01 127.38 142.69 128.23 142.69 C 129.08 142.69 129.77 142.01 129.77 141.16 L 129.77 140.19 C 129.77 139.34 129.08 138.65 128.23 138.65 C 127.38 138.65 126.70 139.34 126.70 140.19 Z M 126.70 141.16 L 126.70 142.14 C 126.70 142.99 127.38 143.68 128.23 143.68 C 129.08 143.68 129.77 142.99 129.77 142.14 L 129.77 141.16 C 129.77 140.31 129.08 139.62 128.23 139.62 C 127.38 139.62 126.70 140.31 126.70 141.16 Z M 126.69 142.14 L 126.69 143.15 C 126.69 143.99 127.38 144.68 128.23 144.68 C 129.08 144.68 129.77 143.99 129.77 143.15 L 129.77 142.14 C 129.77 141.29 129.08 140.61 128.23 140.61 C 127.38 140.61 126.69 141.29 126.69 142.14 Z M 126.69 143.15 L 126.69 144.16 C 126.69 145.01 127.38 145.70 128.23 145.70 C 129.08 145.70 129.77 145.01 129.77 144.16 L 129.77 143.15 C 129.77 142.30 129.08 141.61 128.23 141.61 C 127.38 141.61 126.69 142.30 126.69 143.15 Z M 126.69 144.16 L 126.69 145.19 C 126.69 146.04 127.38 146.73 128.23 146.73 C 129.08 146.73 129.77 146.04 129.77 145.19 L 129.77 144.16 C 129.77 143.31 129.08 142.62 128.23 142.62 C 127.38 142.62 126.69 143.31 126.69 144.16 Z M 126.69 145.19 L 126.69 146.19 C 126.69 147.04 127.38 147.73 128.23 147.73 C 129.08 147.73 129.77 147.04 129.77 146.19 L 129.77 145.19 C 129.77 144.34 129.08 143.65 128.23 143.65 C 127.38 143.65 126.69 144.34 126.69 145.19 Z M 126.69 146.19 L 126.69 147.17 C 126.69 148.02 127.38 148.71 128.23 148.71 C 129.08 148.71 129.77 148.02 129.77 147.17 L 129.77 146.19 C 129.77 145.34 129.08 144.65 128.23 144.65 C 127.38 144.65 126.69 145.34 126.69 146.19 Z M 126.69 147.17 L 126.69 148.15 C 126.69 149.00 127.38 149.69 128.23 149.69 C 129.08 149.69 129.77 149.00 129.77 148.15 L 129.77 147.17 C 129.77 146.32 129.08 145.63 128.23 145.63 C 127.38 145.63 126.69 146.32 126.69 147.17 Z M 126.69 148.15 L 126.69 149.15 C 126.69 150.00 127.38 150.69 128.23 150.69 C 129.08 150.69 129.77 150.00 129.77 149.15 L 129.77 148.15 C 129.77 147.30 129.08 146.62 128.23 146.62 C 127.38 146.62 126.69 147.30 126.69 148.15 Z M 126.69 149.15 L 126.69 150.16 C 126.69 151.01 127.38 151.70 128.23 151.70 C 129.08 151.70 129.77 151.01 129.77 150.16 L 129.77 149.15 C 129.77 148.30 129.08 147.61 128.23 147.61 C 127.38 147.61 126.69 148.30 126.69 149.15 Z M 126.69 150.16 L 126.69 151.18 C 126.69 152.03 127.38 152.72 128.23 152.72 C 129.08 152.72 129.77 152.03 129.77 151.18 L 129.77 150.16 C 129.77 149.31 129.08 148.62 128.23 148.62 C 127.38 148.62 126.69 149.31 126.69 150.16 Z M 126.69 151.18 L 126.69 152.21 C 126.69 153.06 127.38 153.75 128.23 153.75 C 129.08 153.75 129.77 153.06 129.77 152.21 L 129.77 151.18 C 129.77 150.33 129.08 149.64 128.23 149.64 C 127.38 149.64 126.69 150.33 126.69 151.18 Z M 126.69 152.21 L 126.69 153.21 C 126.69 154.06 127.38 154.75 128.23 154.75 C 129.08 154.75 129.77 154.06 129.77 153.21 L 129.77 152.21 C 129.77 151.36 129.08 150.67 128.23 150.67 C 127.38 150.67 126.69 151.36 126.69 152.21 Z M 126.69 153.21 L 126.69 154.21 C 126.69 155.06 127.38 155.75 128.23 155.75 C 129.08 155.75 129.77 155.06 129.77 154.21 L 129.77 153.21 C 129.77 152.36 129.08 151.67 128.23 151.67 C 127.38 151.67 126.69 152.36 126.69 153.21 Z M 126.69 154.21 L 126.69 155.22 C 126.69 156.07 127.38 156.76 128.23 156.76 C 129.08 156.76 129.77 156.07 129.77 155.22 L 129.77 154.21 C 129.77 153.36 129.08 152.67 128.23 152.67 C 127.38 152.67 126.69 153.36 126.69 154.21 Z M 126.69 155.22 L 126.69 156.23 C 126.69 157.08 127.38 157.77 128.23 157.77 C 129.08 157.77 129.77 157.08 129.77 156.23 L 129.77 155.22 C 129.77 154.37 129.08 153.68 128.23 153.68 C 127.38 153.68 126.69 154.37 126.69 155.22 Z M 126.69 156.23 L 126.69 157.23 C 126.69 158.08 127.38 158.77 128.23 158.77 C 129.08 158.77 129.77 158.08 129.77 157.23 L 129.77 156.23 C 129.77 155.38 129.08 154.69 128.23 154.69 C 127.38 154.69 126.69 155.38 126.69 156.23 Z M 126.69 157.23 L 126.69 158.22 C 126.69 159.07 127.38 159.76 128.23 159.76 C 129.08 159.76 129.77 159.07 129.77 158.22 L 129.77 157.23 C 129.77 156.38 129.08 155.69 128.23 155.69 C 127.38 155.69 126.69 156.38 126.69 157.23 Z M 126.69 158.22 L 126.69 159.24 C 126.69 160.09 127.38 160.78 128.23 160.78 C 129.08 160.78 129.77 160.09 129.77 159.24 L 129.77 158.22 C 129.77 157.37 129.08 156.68 128.23 156.68 C 127.38 156.68 126.69 157.37 126.69 158.22 Z M 126.69 159.24 L 126.69 160.28 C 126.69 161.13 127.38 161.82 128.23 161.82 C 129.08 161.82 129.77 161.13 129.77 160.28 L 129.77 159.24 C 129.77 158.39 129.08 157.70 128.23 157.70 C 127.38 157.70 126.69 158.39 126.69 159.24 Z M 126.69 160.28 L 126.69 161.29 C 126.69 162.14 127.38 162.83 128.23 162.83 C 129.08 162.83 129.77 162.14 129.77 161.29 L 129.77 160.28 C 129.77 159.43 129.08 158.74 128.23 158.74 C 127.38 158.74 126.69 159.42 126.69 160.28 Z M 126.69 161.29 L 126.69 162.28 C 126.69 163.13 127.37 163.82 128.22 163.83 C 129.07 163.83 129.77 163.14 129.77 162.29 L 129.77 161.30 C 129.77 160.45 129.09 159.75 128.24 159.75 C 127.38 159.75 126.69 160.44 126.69 161.29 Z M 126.69 162.28 L 126.68 163.26 C 126.68 164.11 127.36 164.80 128.21 164.80 C 129.06 164.81 129.76 164.12 129.76 163.27 L 129.77 162.29 C 129.77 161.44 129.09 160.75 128.24 160.75 C 127.39 160.74 126.69 161.43 126.69 162.28 Z M 126.68 163.25 L 126.67 164.21 C 126.67 165.07 127.35 165.76 128.20 165.77 C 129.05 165.77 129.75 165.09 129.75 164.24 L 129.76 163.28 C 129.77 162.43 129.09 161.73 128.24 161.72 C 127.38 161.72 126.69 162.40 126.68 163.25 Z M 126.67 164.21 L 126.66 165.21 C 126.65 166.06 127.33 166.76 128.18 166.77 C 129.03 166.78 129.73 166.10 129.74 165.25 L 129.75 164.25 C 129.76 163.40 129.08 162.70 128.23 162.69 C 127.38 162.68 126.69 163.36 126.67 164.21 Z M 126.66 165.21 L 126.65 166.23 C 126.63 167.08 127.31 167.78 128.16 167.79 C 129.01 167.81 129.71 167.13 129.73 166.28 L 129.74 165.25 C 129.76 164.40 129.08 163.70 128.23 163.69 C 127.38 163.68 126.68 164.35 126.66 165.21 Z M 126.65 166.23 L 126.63 167.24 C 126.61 168.09 127.29 168.79 128.14 168.80 C 128.99 168.82 129.69 168.14 129.71 167.29 L 129.73 166.28 C 129.74 165.43 129.07 164.73 128.22 164.72 C 127.37 164.70 126.66 165.38 126.65 166.23 Z M 126.63 167.23 L 126.61 168.23 C 126.59 169.08 127.26 169.78 128.11 169.80 C 128.96 169.82 129.67 169.14 129.68 168.29 L 129.71 167.30 C 129.72 166.45 129.05 165.75 128.20 165.73 C 127.35 165.71 126.65 166.38 126.63 167.23 Z M 126.61 168.23 L 126.58 169.21 C 126.56 170.06 127.24 170.76 128.09 170.78 C 128.94 170.80 129.64 170.13 129.66 169.28 L 129.68 168.30 C 129.70 167.45 129.03 166.74 128.18 166.72 C 127.33 166.70 126.63 167.38 126.61 168.23 Z M 126.58 169.20 L 126.56 170.17 C 126.54 171.02 127.21 171.73 128.06 171.75 C 128.91 171.77 129.62 171.10 129.64 170.25 L 129.66 169.28 C 129.68 168.43 129.01 167.72 128.16 167.70 C 127.31 167.68 126.61 168.35 126.58 169.20 Z M 126.56 170.17 L 126.54 171.22 C 126.51 172.07 127.19 172.77 128.03 172.79 C 128.88 172.81 129.59 172.14 129.61 171.29 L 129.64 170.25 C 129.66 169.40 128.99 168.69 128.14 168.67 C 127.29 168.65 126.58 169.32 126.56 170.17 Z M 126.54 171.22 L 126.51 172.24 C 126.49 173.09 127.16 173.79 128.01 173.81 C 128.86 173.84 129.56 173.16 129.58 172.32 L 129.61 171.29 C 129.63 170.44 128.96 169.74 128.11 169.72 C 127.26 169.70 126.56 170.37 126.54 171.22 Z M 126.51 172.24 L 126.49 173.24 C 126.47 174.09 127.14 174.79 127.99 174.81 C 128.84 174.83 129.54 174.16 129.56 173.31 L 129.58 172.31 C 129.60 171.47 128.93 170.76 128.08 170.74 C 127.23 170.72 126.53 171.39 126.51 172.24 Z M 126.49 173.25 L 126.47 174.22 C 126.45 175.07 127.13 175.77 127.97 175.79 C 128.82 175.81 129.52 175.13 129.54 174.28 L 129.56 173.31 C 129.58 172.46 128.90 171.76 128.06 171.74 C 127.21 171.73 126.51 172.40 126.49 173.25 Z M 126.47 174.23 L 126.45 175.18 C 126.44 176.03 127.12 176.73 127.96 176.74 C 128.81 176.76 129.51 176.08 129.52 175.23 L 129.54 174.28 C 129.55 173.43 128.88 172.73 128.03 172.72 C 127.18 172.71 126.48 173.38 126.47 174.23 Z M 126.46 175.19 L 126.44 176.26 C 126.43 177.11 127.11 177.81 127.96 177.82 C 128.81 177.82 129.50 177.15 129.51 176.30 L 129.52 175.23 C 129.53 174.38 128.85 173.69 128.01 173.68 C 127.16 173.67 126.46 174.35 126.46 175.19 Z M 126.45 176.27 L 126.44 177.30 C 126.43 178.15 127.12 178.84 127.96 178.84 C 128.81 178.85 129.50 178.17 129.50 177.32 L 129.51 176.29 C 129.51 175.44 128.83 174.75 127.99 174.75 C 127.14 174.74 126.45 175.43 126.45 176.27 Z M 126.44 177.31 L 126.44 178.29 C 126.44 179.14 127.12 179.83 127.96 179.83 C 128.81 179.83 129.50 179.15 129.50 178.30 L 129.50 177.32 C 129.50 176.47 128.82 175.78 127.98 175.78 C 127.13 175.78 126.44 176.46 126.44 177.31 Z M 126.44 178.30 L 126.44 179.23 C 126.44 180.08 127.12 180.76 127.97 180.76 C 128.81 180.76 129.50 180.08 129.50 179.23 L 129.50 178.30 C 129.50 177.45 128.81 176.77 127.97 176.77 C 127.12 176.77 126.44 177.45 126.44 178.30 Z M 126.44 179.23 L 126.44 180.23 C 126.44 181.07 127.12 181.75 127.97 181.75 C 128.81 181.75 129.49 181.07 129.49 180.23 L 129.49 179.23 C 129.49 178.39 128.81 177.71 127.97 177.71 C 127.12 177.71 126.44 178.39 126.44 179.23 Z M 126.44 180.23 L 126.44 181.22 C 126.44 182.06 127.13 182.74 127.97 182.74 C 128.81 182.74 129.49 182.06 129.49 181.22 L 129.49 180.23 C 129.49 179.39 128.81 178.70 127.97 178.70 C 127.13 178.70 126.44 179.39 126.44 180.23 Z M 126.45 181.22 L 126.45 182.20 C 126.45 183.04 127.13 183.72 127.97 183.72 C 128.81 183.72 129.49 183.04 129.49 182.20 L 129.49 181.22 C 129.49 180.38 128.81 179.70 127.97 179.70 C 127.13 179.70 126.45 180.38 126.45 181.22 Z M 126.45 182.20 L 126.45 183.21 C 126.45 184.05 127.13 184.73 127.97 184.73 C 128.81 184.73 129.49 184.05 129.49 183.21 L 129.49 182.20 C 129.49 181.36 128.81 180.68 127.97 180.68 C 127.13 180.68 126.45 181.36 126.45 182.20 Z M 126.45 183.24 L 126.47 184.34 C 126.48 185.18 127.17 185.84 128.01 185.83 C 128.84 185.82 129.51 185.13 129.50 184.30 L 129.48 183.19 C 129.47 182.36 128.78 181.69 127.95 181.70 C 127.11 181.71 126.44 182.40 126.45 183.24 Z M 126.48 184.46 L 126.58 185.50 C 126.65 186.33 127.39 186.94 128.22 186.87 C 129.05 186.79 129.66 186.06 129.58 185.23 L 129.49 184.18 C 129.41 183.35 128.68 182.74 127.85 182.82 C 127.02 182.89 126.41 183.63 126.48 184.46 Z M 126.63 185.78 L 126.88 186.64 C 127.11 187.44 127.94 187.90 128.74 187.67 C 129.54 187.44 130.00 186.61 129.77 185.81 L 129.52 184.95 C 129.30 184.15 128.46 183.69 127.66 183.92 C 126.87 184.15 126.41 184.98 126.63 185.78 Z M 127.21 187.22 L 127.76 187.84 C 128.31 188.45 129.25 188.51 129.87 187.96 C 130.49 187.41 130.54 186.47 129.99 185.85 L 129.45 185.23 C 128.90 184.62 127.95 184.56 127.33 185.11 C 126.72 185.66 126.66 186.61 127.21 187.22 Z M 128.58 188.30 L 129.46 188.47 C 130.26 188.63 131.04 188.11 131.20 187.31 C 131.36 186.50 130.84 185.72 130.04 185.56 L 129.16 185.39 C 128.36 185.22 127.58 185.75 127.42 186.55 C 127.26 187.36 127.78 188.14 128.58 188.30 Z M 130.15 188.43 L 131.21 188.13 C 132.00 187.90 132.45 187.09 132.22 186.30 C 132.00 185.52 131.18 185.07 130.40 185.29 L 129.34 185.60 C 128.56 185.82 128.10 186.64 128.33 187.42 C 128.55 188.21 129.37 188.66 130.15 188.43 Z M 131.58 187.96 L 132.43 187.43 C 133.11 187.01 133.33 186.10 132.90 185.42 C 132.48 184.73 131.58 184.51 130.89 184.94 L 130.04 185.47 C 129.35 185.89 129.14 186.79 129.56 187.48 C 129.99 188.17 130.89 188.38 131.58 187.96 Z M 132.59 187.30 L 133.36 186.66 C 133.97 186.14 134.05 185.23 133.53 184.61 C 133.02 183.99 132.10 183.91 131.48 184.43 L 130.72 185.07 C 130.11 185.59 130.03 186.51 130.54 187.12 C 131.06 187.74 131.98 187.82 132.59 187.30 Z M 133.45 186.56 L 134.18 185.83 C 134.74 185.26 134.74 184.34 134.17 183.78 C 133.61 183.22 132.69 183.22 132.13 183.79 L 131.39 184.53 C 130.83 185.09 130.83 186.01 131.40 186.57 C 131.97 187.13 132.88 187.13 133.45 186.56 Z M 134.24 185.75 L 134.91 184.97 C 135.43 184.37 135.37 183.46 134.77 182.94 C 134.17 182.42 133.26 182.49 132.74 183.09 L 132.07 183.86 C 131.55 184.46 131.61 185.37 132.21 185.89 C 132.81 186.41 133.72 186.35 134.24 185.75 Z M 134.96 184.90 L 135.61 184.07 C 136.09 183.44 135.98 182.54 135.35 182.06 C 134.73 181.58 133.83 181.69 133.34 182.32 L 132.70 183.15 C 132.21 183.78 132.33 184.68 132.95 185.16 C 133.58 185.64 134.48 185.53 134.96 184.90 Z M 135.65 184.00 L 136.25 183.13 C 136.69 182.48 136.53 181.60 135.88 181.15 C 135.23 180.70 134.34 180.87 133.89 181.52 L 133.30 182.38 C 132.85 183.03 133.02 183.92 133.67 184.37 C 134.32 184.81 135.21 184.65 135.65 184.00 Z M 136.28 183.08 L 136.79 182.26 C 137.20 181.58 136.99 180.71 136.32 180.29 C 135.65 179.88 134.77 180.09 134.36 180.76 L 133.85 181.58 C 133.44 182.25 133.65 183.13 134.32 183.54 C 134.99 183.96 135.87 183.75 136.28 183.08 Z M 136.81 182.22 L 137.27 181.42 C 137.66 180.74 137.43 179.87 136.75 179.47 C 136.07 179.08 135.19 179.31 134.80 180.00 L 134.34 180.79 C 133.94 181.48 134.18 182.35 134.86 182.74 C 135.54 183.14 136.41 182.90 136.81 182.22 Z"
      fill="black"
      fill-rule="nonzero" /><path d="M 150.02 118.13 L 150.02 119.17 C 150.02 120.00 150.69 120.67 151.52 120.67 C 152.34 120.67 153.01 120.00 153.01 119.17 L 153.01 118.13 C 153.01 117.30 152.34 116.64 151.52 116.64 C 150.69 116.64 150.02 117.31 150.02 118.13 Z M 150.01 119.18 L 150.01 120.20 C 150.01 121.03 150.69 121.71 151.52 121.71 C 152.36 121.71 153.03 121.03 153.03 120.19 L 153.03 119.17 C 153.02 118.33 152.35 117.66 151.51 117.66 C 150.68 117.66 150.00 118.34 150.01 119.18 Z M 149.99 120.21 L 150.00 121.20 C 150.00 122.04 150.69 122.72 151.54 122.71 C 152.38 122.71 153.06 122.02 153.05 121.18 L 153.05 120.19 C 153.04 119.34 152.35 118.66 151.51 118.67 C 150.66 118.68 149.99 119.36 149.99 120.21 Z M 149.98 121.21 L 150.00 122.16 C 150.01 123.01 150.71 123.69 151.56 123.68 C 152.41 123.66 153.09 122.96 153.08 122.11 L 153.07 121.16 C 153.06 120.31 152.36 119.63 151.50 119.64 C 150.65 119.66 149.97 120.36 149.98 121.21 Z M 149.99 122.17 L 150.01 123.18 C 150.04 124.03 150.75 124.71 151.61 124.69 C 152.46 124.67 153.14 123.95 153.12 123.10 L 153.09 122.09 C 153.07 121.24 152.36 120.56 151.50 120.58 C 150.64 120.60 149.97 121.32 149.99 122.17 Z M 150.01 123.20 L 150.05 124.17 C 150.08 125.03 150.80 125.70 151.66 125.67 C 152.52 125.63 153.19 124.91 153.16 124.05 L 153.12 123.08 C 153.09 122.22 152.37 121.55 151.51 121.58 C 150.65 121.61 149.98 122.34 150.01 123.20 Z M 150.04 124.19 L 150.09 125.19 C 150.13 126.05 150.86 126.71 151.73 126.67 C 152.59 126.63 153.25 125.90 153.21 125.04 L 153.16 124.04 C 153.12 123.17 152.39 122.51 151.53 122.55 C 150.67 122.59 150.00 123.33 150.04 124.19 Z M 150.09 125.20 L 150.14 126.13 C 150.19 127.00 150.92 127.66 151.79 127.61 C 152.65 127.56 153.31 126.83 153.27 125.96 L 153.21 125.03 C 153.17 124.16 152.43 123.50 151.56 123.55 C 150.70 123.59 150.04 124.33 150.09 125.20 Z M 150.14 126.14 L 150.19 127.07 C 150.24 127.94 150.98 128.60 151.85 128.55 C 152.71 128.50 153.37 127.76 153.32 126.89 L 153.27 125.96 C 153.22 125.09 152.48 124.43 151.61 124.48 C 150.75 124.53 150.09 125.27 150.14 126.14 Z M 150.19 127.07 L 150.24 128.08 C 150.29 128.94 151.04 129.60 151.91 129.55 C 152.77 129.50 153.44 128.76 153.39 127.89 L 153.33 126.89 C 153.28 126.02 152.53 125.36 151.66 125.41 C 150.80 125.46 150.13 126.21 150.19 127.07 Z M 150.24 128.07 L 150.30 129.14 C 150.35 130.01 151.10 130.67 151.97 130.62 C 152.84 130.57 153.50 129.83 153.45 128.96 L 153.39 127.89 C 153.34 127.02 152.59 126.36 151.72 126.41 C 150.85 126.46 150.19 127.20 150.24 128.07 Z M 150.30 129.14 L 150.36 130.16 C 150.40 131.03 151.15 131.70 152.02 131.65 C 152.89 131.61 153.56 130.86 153.51 129.99 L 153.45 128.96 C 153.41 128.09 152.66 127.42 151.79 127.47 C 150.92 127.52 150.25 128.27 150.30 129.14 Z M 150.35 130.16 L 150.40 131.08 C 150.45 131.95 151.19 132.63 152.06 132.58 C 152.94 132.53 153.61 131.79 153.56 130.92 L 153.51 129.99 C 153.47 129.12 152.72 128.45 151.85 128.50 C 150.98 128.54 150.31 129.29 150.35 130.16 Z M 150.40 131.08 L 150.45 132.04 C 150.49 132.92 151.24 133.59 152.11 133.55 C 152.98 133.50 153.66 132.76 153.61 131.88 L 153.56 130.92 C 153.52 130.05 152.78 129.37 151.90 129.42 C 151.03 129.46 150.35 130.20 150.40 131.08 Z M 150.44 132.04 L 150.49 133.05 C 150.54 133.92 151.28 134.60 152.15 134.55 C 153.03 134.51 153.71 133.77 153.66 132.89 L 153.61 131.89 C 153.57 131.01 152.83 130.34 151.95 130.38 C 151.08 130.42 150.40 131.16 150.44 132.04 Z M 150.49 133.04 L 150.54 134.09 C 150.58 134.97 151.32 135.64 152.20 135.60 C 153.08 135.56 153.75 134.82 153.71 133.94 L 153.67 132.90 C 153.62 132.02 152.88 131.34 152.00 131.38 C 151.13 131.42 150.45 132.17 150.49 133.04 Z M 150.54 134.09 L 150.59 135.18 C 150.63 136.06 151.37 136.74 152.25 136.70 C 153.12 136.66 153.80 135.92 153.76 135.04 L 153.72 133.95 C 153.68 133.07 152.93 132.39 152.06 132.43 C 151.18 132.47 150.50 133.21 150.54 134.09 Z M 150.58 135.18 L 150.63 136.13 C 150.66 137.01 151.41 137.69 152.28 137.65 C 153.16 137.62 153.84 136.87 153.81 135.99 L 153.77 135.04 C 153.73 134.16 152.99 133.48 152.11 133.52 C 151.23 133.56 150.55 134.30 150.58 135.18 Z M 150.62 136.13 L 150.66 137.10 C 150.70 137.98 151.44 138.66 152.32 138.63 C 153.20 138.59 153.88 137.85 153.85 136.97 L 153.81 136.00 C 153.77 135.12 153.03 134.43 152.15 134.47 C 151.27 134.51 150.59 135.25 150.62 136.13 Z M 150.66 137.10 L 150.70 138.09 C 150.74 138.97 151.48 139.66 152.36 139.62 C 153.24 139.59 153.92 138.85 153.89 137.96 L 153.85 136.97 C 153.82 136.09 153.07 135.41 152.19 135.44 C 151.31 135.47 150.63 136.22 150.66 137.10 Z M 150.70 138.09 L 150.74 139.10 C 150.77 139.98 151.51 140.67 152.39 140.63 C 153.27 140.60 153.96 139.86 153.93 138.98 L 153.89 137.97 C 153.86 137.09 153.12 136.40 152.24 136.43 C 151.35 136.46 150.67 137.21 150.70 138.09 Z M 150.74 139.09 L 150.77 140.12 C 150.80 141.00 151.54 141.69 152.42 141.66 C 153.31 141.63 154.00 140.89 153.97 140.00 L 153.93 138.98 C 153.90 138.10 153.16 137.41 152.28 137.44 C 151.39 137.47 150.70 138.21 150.74 139.09 Z M 150.77 140.11 L 150.80 141.14 C 150.83 142.03 151.57 142.72 152.45 142.69 C 153.34 142.66 154.03 141.92 154.00 141.04 L 153.97 140.01 C 153.94 139.13 153.20 138.43 152.32 138.46 C 151.43 138.49 150.74 139.23 150.77 140.11 Z M 150.80 141.14 L 150.83 142.15 C 150.86 143.03 151.60 143.73 152.48 143.70 C 153.36 143.68 154.06 142.94 154.03 142.06 L 154.00 141.04 C 153.98 140.16 153.24 139.46 152.35 139.49 C 151.47 139.52 150.78 140.25 150.80 141.14 Z M 150.83 142.15 L 150.86 143.13 C 150.88 144.02 151.62 144.72 152.50 144.69 C 153.39 144.67 154.08 143.93 154.06 143.05 L 154.03 142.06 C 154.01 141.18 153.27 140.48 152.39 140.50 C 151.50 140.53 150.81 141.26 150.83 142.15 Z M 150.86 143.13 L 150.88 144.12 C 150.90 145.00 151.64 145.70 152.52 145.68 C 153.40 145.66 154.10 144.93 154.08 144.04 L 154.06 143.05 C 154.04 142.17 153.30 141.47 152.42 141.49 C 151.54 141.51 150.84 142.24 150.86 143.13 Z M 150.88 144.11 L 150.90 145.11 C 150.92 145.99 151.65 146.70 152.54 146.68 C 153.42 146.66 154.12 145.93 154.11 145.04 L 154.08 144.05 C 154.07 143.16 153.33 142.46 152.45 142.48 C 151.56 142.50 150.86 143.23 150.88 144.11 Z M 150.90 145.10 L 150.92 146.10 C 150.93 146.99 151.66 147.69 152.55 147.68 C 153.43 147.66 154.14 146.93 154.12 146.05 L 154.11 145.05 C 154.09 144.16 153.36 143.46 152.47 143.47 C 151.59 143.49 150.88 144.22 150.90 145.10 Z M 150.92 146.10 L 150.93 147.11 C 150.94 147.99 151.67 148.70 152.56 148.69 C 153.45 148.67 154.15 147.94 154.14 147.06 L 154.12 146.05 C 154.11 145.17 153.38 144.46 152.50 144.47 C 151.61 144.48 150.90 145.21 150.92 146.10 Z M 150.93 147.10 L 150.94 148.12 C 150.95 149.00 151.68 149.71 152.57 149.70 C 153.45 149.69 154.16 148.97 154.15 148.08 L 154.14 147.06 C 154.13 146.18 153.40 145.47 152.52 145.48 C 151.63 145.49 150.92 146.22 150.93 147.10 Z M 150.94 148.11 L 150.95 149.11 C 150.96 150.00 151.68 150.71 152.57 150.70 C 153.46 150.69 154.17 149.97 154.16 149.08 L 154.15 148.08 C 154.15 147.20 153.42 146.48 152.53 146.49 C 151.65 146.50 150.93 147.23 150.94 148.11 Z M 150.95 149.10 L 150.96 150.09 C 150.96 150.97 151.69 151.69 152.57 151.68 C 153.46 151.68 154.18 150.95 154.17 150.07 L 154.16 149.08 C 154.16 148.20 153.43 147.48 152.55 147.49 C 151.66 147.49 150.94 148.22 150.95 149.10 Z M 150.96 150.08 L 150.96 151.08 C 150.97 151.96 151.69 152.68 152.58 152.67 C 153.46 152.67 154.18 151.95 154.18 151.06 L 154.17 150.07 C 154.17 149.18 153.44 148.47 152.56 148.47 C 151.67 148.47 150.95 149.20 150.96 150.08 Z M 150.96 151.07 L 150.96 152.07 C 150.97 152.96 151.69 153.68 152.58 153.67 C 153.46 153.67 154.18 152.95 154.18 152.06 L 154.18 151.06 C 154.17 150.18 153.45 149.46 152.56 149.46 C 151.68 149.46 150.96 150.18 150.96 151.07 Z M 150.96 152.07 L 150.96 153.07 C 150.97 153.96 151.69 154.68 152.58 154.68 C 153.46 154.68 154.18 153.96 154.18 153.07 L 154.18 152.06 C 154.18 151.18 153.46 150.46 152.57 150.46 C 151.68 150.46 150.96 151.18 150.96 152.07 Z M 150.96 153.07 L 150.97 154.08 C 150.97 154.97 151.69 155.69 152.57 155.69 C 153.46 155.69 154.18 154.97 154.18 154.08 L 154.18 153.07 C 154.18 152.18 153.46 151.46 152.57 151.46 C 151.68 151.46 150.96 152.18 150.96 153.07 Z M 150.96 154.08 L 150.96 155.10 C 150.97 155.99 151.69 156.71 152.57 156.71 C 153.46 156.71 154.18 155.99 154.18 155.10 L 154.18 154.08 C 154.18 153.19 153.46 152.47 152.57 152.47 C 151.68 152.47 150.96 153.19 150.96 154.08 Z M 150.96 155.10 L 150.96 156.11 C 150.96 156.99 151.69 157.72 152.57 157.72 C 153.46 157.72 154.18 156.99 154.18 156.11 L 154.18 155.10 C 154.18 154.21 153.46 153.49 152.57 153.49 C 151.69 153.49 150.96 154.21 150.96 155.10 Z M 150.96 156.11 L 150.96 157.10 C 150.96 157.99 151.69 158.71 152.57 158.71 C 153.46 158.71 154.18 157.99 154.18 157.10 L 154.18 156.11 C 154.18 155.22 153.46 154.50 152.57 154.50 C 151.69 154.50 150.96 155.22 150.96 156.11 Z M 150.96 157.10 L 150.96 158.10 C 150.96 158.99 151.69 159.71 152.57 159.71 C 153.46 159.71 154.18 158.99 154.18 158.10 L 154.18 157.10 C 154.18 156.21 153.46 155.49 152.57 155.49 C 151.69 155.49 150.96 156.21 150.96 157.10 Z M 150.96 158.10 L 150.96 159.10 C 150.96 159.99 151.69 160.71 152.57 160.71 C 153.46 160.71 154.18 159.99 154.18 159.10 L 154.18 158.10 C 154.18 157.21 153.46 156.49 152.57 156.49 C 151.69 156.49 150.96 157.21 150.96 158.10 Z M 150.96 159.10 L 150.96 160.10 C 150.96 160.99 151.69 161.71 152.57 161.71 C 153.46 161.71 154.18 160.99 154.18 160.10 L 154.18 159.10 C 154.18 158.21 153.46 157.49 152.57 157.49 C 151.69 157.49 150.96 158.21 150.96 159.10 Z M 150.96 160.10 L 150.96 161.10 C 150.96 161.99 151.69 162.71 152.57 162.71 C 153.46 162.71 154.18 161.99 154.18 161.10 L 154.18 160.10 C 154.18 159.21 153.46 158.49 152.57 158.49 C 151.69 158.49 150.96 159.21 150.96 160.10 Z M 150.96 161.10 L 150.96 162.10 C 150.96 162.99 151.69 163.71 152.57 163.71 C 153.46 163.71 154.18 162.99 154.18 162.10 L 154.18 161.10 C 154.18 160.21 153.46 159.49 152.57 159.49 C 151.69 159.49 150.96 160.21 150.96 161.10 Z M 150.96 162.10 L 150.96 163.11 C 150.96 164.00 151.69 164.72 152.57 164.72 C 153.46 164.72 154.18 164.00 154.18 163.11 L 154.18 162.10 C 154.18 161.22 153.46 160.50 152.57 160.50 C 151.69 160.50 150.96 161.22 150.96 162.10 Z M 150.97 163.11 L 150.96 164.13 C 150.96 165.01 151.69 165.73 152.57 165.73 C 153.46 165.73 154.18 165.01 154.18 164.13 L 154.18 163.11 C 154.18 162.22 153.46 161.50 152.57 161.50 C 151.69 161.50 150.97 162.22 150.97 163.11 Z M 150.97 164.13 L 150.96 165.14 C 150.96 166.03 151.68 166.75 152.57 166.75 C 153.46 166.75 154.18 166.03 154.18 165.14 L 154.18 164.13 C 154.18 163.24 153.46 162.52 152.57 162.52 C 151.69 162.52 150.97 163.24 150.97 164.13 Z M 150.97 165.14 L 150.96 166.15 C 150.96 167.04 151.68 167.76 152.57 167.76 C 153.46 167.76 154.18 167.04 154.18 166.15 L 154.18 165.14 C 154.18 164.25 153.46 163.53 152.58 163.53 C 151.69 163.53 150.97 164.25 150.97 165.14 Z M 150.96 166.15 L 150.96 167.16 C 150.96 168.04 151.68 168.76 152.57 168.77 C 153.45 168.77 154.18 168.05 154.18 167.16 L 154.18 166.16 C 154.18 165.27 153.46 164.55 152.58 164.55 C 151.69 164.54 150.97 165.26 150.96 166.15 Z M 150.96 167.15 L 150.96 168.15 C 150.96 169.04 151.67 169.76 152.56 169.76 C 153.45 169.77 154.17 169.05 154.17 168.16 L 154.18 167.16 C 154.18 166.28 153.46 165.55 152.58 165.55 C 151.69 165.55 150.97 166.27 150.96 167.15 Z M 150.96 168.15 L 150.95 169.13 C 150.95 170.02 151.67 170.75 152.55 170.75 C 153.44 170.76 154.16 170.04 154.17 169.15 L 154.17 168.16 C 154.18 167.28 153.46 166.55 152.58 166.55 C 151.69 166.54 150.96 167.26 150.96 168.15 Z M 150.95 169.13 L 150.95 170.11 C 150.94 170.99 151.65 171.72 152.54 171.72 C 153.43 171.73 154.15 171.02 154.16 170.13 L 154.17 169.15 C 154.18 168.27 153.46 167.54 152.57 167.54 C 151.69 167.53 150.96 168.24 150.95 169.13 Z M 150.95 170.10 L 150.94 171.11 C 150.93 172.00 151.64 172.73 152.53 172.74 C 153.42 172.74 154.14 172.03 154.15 171.15 L 154.16 170.13 C 154.17 169.25 153.46 168.52 152.57 168.51 C 151.68 168.50 150.96 169.21 150.95 170.10 Z M 150.94 171.11 L 150.93 172.13 C 150.91 173.01 151.62 173.74 152.51 173.75 C 153.40 173.76 154.12 173.05 154.14 172.17 L 154.15 171.15 C 154.16 170.26 153.45 169.54 152.57 169.52 C 151.68 169.51 150.95 170.22 150.94 171.11 Z M 150.93 172.12 L 150.91 173.12 C 150.90 174.01 151.60 174.74 152.49 174.75 C 153.37 174.77 154.10 174.06 154.12 173.18 L 154.13 172.17 C 154.15 171.29 153.44 170.56 152.56 170.54 C 151.67 170.53 150.94 171.23 150.93 172.12 Z M 150.91 173.12 L 150.89 174.12 C 150.88 175.00 151.58 175.73 152.46 175.75 C 153.35 175.76 154.08 175.06 154.10 174.18 L 154.12 173.18 C 154.13 172.30 153.43 171.57 152.55 171.55 C 151.66 171.53 150.93 172.24 150.91 173.12 Z M 150.90 174.11 L 150.87 175.10 C 150.85 175.98 151.55 176.72 152.44 176.73 C 153.32 176.75 154.05 176.05 154.07 175.17 L 154.10 174.18 C 154.11 173.30 153.41 172.57 152.53 172.55 C 151.65 172.53 150.92 173.23 150.90 174.11 Z M 150.88 175.10 L 150.85 176.08 C 150.83 176.96 151.53 177.70 152.41 177.72 C 153.29 177.74 154.02 177.04 154.05 176.16 L 154.07 175.18 C 154.09 174.29 153.40 173.56 152.51 173.54 C 151.63 173.52 150.90 174.21 150.88 175.10 Z M 150.85 176.08 L 150.83 177.06 C 150.80 177.94 151.49 178.68 152.38 178.70 C 153.26 178.73 153.99 178.03 154.02 177.15 L 154.04 176.17 C 154.07 175.28 153.38 174.55 152.49 174.53 C 151.61 174.50 150.88 175.19 150.85 176.08 Z M 150.83 177.06 L 150.79 178.11 C 150.77 178.99 151.46 179.72 152.34 179.75 C 153.22 179.78 153.96 179.09 153.98 178.20 L 154.01 177.16 C 154.04 176.28 153.35 175.54 152.47 175.51 C 151.59 175.49 150.85 176.18 150.83 177.06 Z M 150.80 178.10 L 150.76 179.15 C 150.73 180.03 151.42 180.76 152.30 180.79 C 153.18 180.82 153.91 180.13 153.94 179.26 L 153.98 178.21 C 154.01 177.33 153.32 176.59 152.44 176.56 C 151.56 176.53 150.83 177.22 150.80 178.10 Z M 150.76 179.14 L 150.73 180.17 C 150.69 181.05 151.38 181.79 152.26 181.82 C 153.13 181.85 153.87 181.17 153.90 180.29 L 153.94 179.26 C 153.97 178.38 153.29 177.64 152.41 177.61 C 151.53 177.58 150.80 178.27 150.76 179.14 Z M 150.73 180.17 L 150.69 181.18 C 150.66 182.05 151.34 182.79 152.21 182.83 C 153.09 182.86 153.83 182.18 153.86 181.30 L 153.90 180.29 C 153.94 179.42 153.25 178.68 152.38 178.65 C 151.50 178.61 150.76 179.29 150.73 180.17 Z M 150.69 181.17 L 150.65 182.15 C 150.61 183.02 151.29 183.76 152.17 183.80 C 153.04 183.83 153.78 183.15 153.82 182.28 L 153.86 181.31 C 153.90 180.43 153.22 179.69 152.34 179.66 C 151.47 179.62 150.73 180.30 150.69 181.17 Z M 150.65 182.14 L 150.61 183.07 C 150.57 183.95 151.25 184.69 152.12 184.73 C 153.00 184.76 153.74 184.09 153.78 183.21 L 153.82 182.28 C 153.86 181.41 153.18 180.67 152.31 180.63 C 151.43 180.59 150.69 181.27 150.65 182.14 Z M 150.62 183.07 L 150.57 184.12 C 150.52 184.99 151.20 185.73 152.07 185.78 C 152.94 185.82 153.68 185.14 153.72 184.27 L 153.77 183.22 C 153.81 182.35 153.14 181.61 152.27 181.57 C 151.40 181.52 150.66 182.20 150.62 183.07 Z M 150.57 184.12 L 150.52 185.21 C 150.47 186.07 151.14 186.81 152.01 186.86 C 152.88 186.90 153.62 186.23 153.66 185.37 L 153.72 184.28 C 153.76 183.41 153.09 182.67 152.22 182.63 C 151.35 182.58 150.62 183.25 150.57 184.12 Z M 150.52 185.20 L 150.47 186.21 C 150.42 187.07 151.09 187.81 151.95 187.86 C 152.82 187.90 153.56 187.24 153.60 186.37 L 153.66 185.37 C 153.70 184.50 153.04 183.76 152.17 183.72 C 151.31 183.67 150.57 184.34 150.52 185.20 Z M 150.47 186.21 L 150.42 187.15 C 150.38 188.01 151.04 188.75 151.90 188.79 C 152.76 188.84 153.50 188.18 153.55 187.31 L 153.60 186.38 C 153.64 185.51 152.98 184.78 152.12 184.73 C 151.26 184.69 150.52 185.35 150.47 186.21 Z M 150.43 187.15 L 150.38 188.03 C 150.34 188.89 151.00 189.63 151.86 189.67 C 152.72 189.71 153.45 189.05 153.50 188.19 L 153.54 187.31 C 153.59 186.45 152.92 185.72 152.07 185.68 C 151.21 185.63 150.47 186.29 150.43 187.15 Z M 150.39 188.04 L 150.35 189.01 C 150.31 189.87 150.97 190.59 151.83 190.63 C 152.68 190.67 153.41 190.01 153.45 189.15 L 153.49 188.18 C 153.53 187.33 152.87 186.60 152.01 186.56 C 151.15 186.53 150.43 187.19 150.39 188.04 Z M 150.35 189.04 L 150.33 190.01 C 150.30 190.86 150.98 191.57 151.83 191.59 C 152.68 191.61 153.39 190.94 153.41 190.09 L 153.44 189.12 C 153.46 188.27 152.79 187.56 151.94 187.54 C 151.09 187.52 150.38 188.19 150.35 189.04 Z M 150.33 190.06 L 150.34 191.04 C 150.34 191.89 151.03 192.57 151.88 192.57 C 152.73 192.56 153.41 191.87 153.41 191.03 L 153.41 190.04 C 153.40 189.19 152.71 188.51 151.86 188.51 C 151.01 188.52 150.33 189.21 150.33 190.06 Z M 150.35 191.10 L 150.40 192.15 C 150.44 192.99 151.15 193.64 151.99 193.60 C 152.84 193.57 153.49 192.85 153.45 192.01 L 153.40 190.96 C 153.36 190.12 152.65 189.47 151.80 189.51 C 150.96 189.55 150.31 190.26 150.35 191.10 Z M 150.41 192.22 L 150.52 193.40 C 150.60 194.23 151.34 194.85 152.18 194.77 C 153.02 194.69 153.63 193.94 153.55 193.11 L 153.44 191.93 C 153.36 191.10 152.61 190.49 151.78 190.57 C 150.94 190.64 150.33 191.39 150.41 192.22 Z M 150.55 193.52 L 150.75 194.65 C 150.90 195.47 151.68 196.02 152.50 195.87 C 153.33 195.73 153.87 194.94 153.73 194.12 L 153.52 192.99 C 153.38 192.16 152.59 191.62 151.77 191.76 C 150.95 191.91 150.40 192.70 150.55 193.52 Z M 150.83 194.90 L 151.15 195.79 C 151.44 196.57 152.30 196.97 153.08 196.68 C 153.86 196.39 154.26 195.53 153.97 194.75 L 153.65 193.87 C 153.36 193.09 152.50 192.69 151.72 192.97 C 150.94 193.26 150.54 194.12 150.83 194.90 Z M 151.55 196.37 L 152.02 196.81 C 152.63 197.36 153.58 197.32 154.14 196.72 C 154.70 196.11 154.66 195.16 154.05 194.60 L 153.57 194.17 C 152.97 193.61 152.02 193.65 151.46 194.26 C 150.90 194.86 150.94 195.81 151.55 196.37 Z M 153.32 197.16 L 153.92 197.04 C 154.72 196.89 155.25 196.11 155.10 195.31 C 154.94 194.50 154.16 193.98 153.36 194.13 L 152.76 194.25 C 151.95 194.40 151.42 195.18 151.58 195.98 C 151.73 196.79 152.51 197.32 153.32 197.16 Z M 154.51 196.77 L 155.24 196.23 C 155.89 195.75 156.02 194.83 155.54 194.18 C 155.06 193.53 154.14 193.39 153.49 193.87 L 152.77 194.41 C 152.11 194.89 151.98 195.81 152.46 196.46 C 152.94 197.11 153.86 197.25 154.51 196.77 Z M 155.40 196.07 L 156.20 195.25 C 156.76 194.68 156.75 193.76 156.18 193.20 C 155.61 192.64 154.69 192.65 154.13 193.22 L 153.33 194.03 C 152.77 194.61 152.77 195.52 153.34 196.09 C 153.92 196.65 154.83 196.64 155.40 196.07 Z M 156.24 195.18 L 157.08 194.23 C 157.61 193.63 157.55 192.73 156.96 192.20 C 156.36 191.68 155.45 191.74 154.93 192.33 L 154.09 193.29 C 153.56 193.88 153.62 194.79 154.22 195.31 C 154.81 195.84 155.72 195.78 156.24 195.18 Z"
      fill="black"
      fill-rule="nonzero" /><path d="M 181.42 120.73 L 181.39 121.77 C 181.36 122.64 182.05 123.37 182.92 123.40 C 183.80 123.42 184.53 122.73 184.55 121.86 L 184.58 120.82 C 184.61 119.95 183.92 119.22 183.05 119.19 C 182.17 119.17 181.45 119.86 181.42 120.73 Z M 181.39 121.77 L 181.36 122.79 C 181.33 123.67 182.02 124.40 182.89 124.42 C 183.77 124.45 184.50 123.76 184.52 122.89 L 184.55 121.86 C 184.58 120.99 183.89 120.26 183.02 120.23 C 182.14 120.20 181.41 120.89 181.39 121.77 Z M 181.35 122.79 L 181.32 123.79 C 181.30 124.67 181.98 125.40 182.86 125.42 C 183.74 125.45 184.47 124.76 184.50 123.89 L 184.53 122.89 C 184.55 122.01 183.86 121.28 182.99 121.25 C 182.11 121.23 181.38 121.91 181.35 122.79 Z M 181.32 123.79 L 181.29 124.75 C 181.26 125.62 181.95 126.36 182.83 126.39 C 183.71 126.41 184.44 125.73 184.47 124.85 L 184.50 123.89 C 184.53 123.01 183.84 122.28 182.96 122.25 C 182.08 122.22 181.35 122.91 181.32 123.79 Z M 181.29 124.74 L 181.25 125.74 C 181.22 126.62 181.91 127.35 182.79 127.38 C 183.67 127.41 184.41 126.72 184.44 125.84 L 184.47 124.85 C 184.50 123.97 183.81 123.24 182.93 123.21 C 182.05 123.18 181.32 123.87 181.29 124.74 Z M 181.25 125.73 L 181.22 126.72 C 181.18 127.60 181.87 128.34 182.75 128.37 C 183.63 128.40 184.37 127.71 184.40 126.83 L 184.44 125.85 C 184.47 124.97 183.78 124.23 182.90 124.20 C 182.02 124.16 181.28 124.85 181.25 125.73 Z M 181.21 126.72 L 181.18 127.70 C 181.15 128.58 181.84 129.32 182.72 129.36 C 183.60 129.39 184.34 128.70 184.37 127.81 L 184.41 126.83 C 184.44 125.95 183.75 125.21 182.87 125.18 C 181.98 125.15 181.24 125.84 181.21 126.72 Z M 181.17 127.70 L 181.14 128.71 C 181.11 129.60 181.80 130.34 182.69 130.37 C 183.57 130.40 184.31 129.71 184.34 128.82 L 184.38 127.81 C 184.41 126.93 183.72 126.19 182.83 126.15 C 181.95 126.12 181.20 126.82 181.17 127.70 Z M 181.13 128.71 L 181.10 129.66 C 181.08 130.54 181.77 131.28 182.66 131.31 C 183.55 131.34 184.29 130.65 184.32 129.76 L 184.35 128.82 C 184.38 127.93 183.68 127.19 182.79 127.16 C 181.91 127.13 181.16 127.83 181.13 128.71 Z M 181.10 129.66 L 181.07 130.63 C 181.05 131.52 181.75 132.26 182.63 132.29 C 183.52 132.32 184.26 131.62 184.29 130.73 L 184.32 129.76 C 184.35 128.87 183.65 128.12 182.76 128.10 C 181.87 128.07 181.13 128.77 181.10 129.66 Z M 181.07 130.64 L 181.04 131.65 C 181.02 132.54 181.72 133.28 182.62 133.31 C 183.51 133.33 184.25 132.62 184.27 131.73 L 184.29 130.72 C 184.32 129.83 183.61 129.09 182.72 129.07 C 181.83 129.04 181.09 129.75 181.07 130.64 Z M 181.04 131.66 L 181.02 132.70 C 181.00 133.60 181.71 134.34 182.60 134.35 C 183.49 134.37 184.23 133.66 184.25 132.77 L 184.27 131.73 C 184.29 130.83 183.58 130.09 182.69 130.08 C 181.80 130.06 181.06 130.77 181.04 131.66 Z M 181.02 132.71 L 181.00 133.72 C 180.99 134.62 181.70 135.35 182.60 135.36 C 183.49 135.38 184.23 134.66 184.24 133.77 L 184.25 132.76 C 184.27 131.87 183.55 131.13 182.66 131.12 C 181.76 131.11 181.03 131.82 181.02 132.71 Z M 181.00 133.73 L 180.99 134.69 C 180.98 135.59 181.70 136.32 182.60 136.33 C 183.49 136.34 184.23 135.62 184.23 134.72 L 184.24 133.76 C 184.25 132.86 183.53 132.13 182.63 132.12 C 181.74 132.11 181.01 132.83 181.00 133.73 Z M 180.98 134.70 L 180.98 135.68 C 180.98 136.58 181.70 137.31 182.60 137.31 C 183.50 137.32 184.23 136.59 184.23 135.70 L 184.24 134.71 C 184.24 133.81 183.52 133.08 182.62 133.08 C 181.72 133.07 180.99 133.80 180.98 134.70 Z M 180.98 135.68 L 180.97 136.69 C 180.97 137.59 181.70 138.33 182.60 138.33 C 183.50 138.33 184.23 137.60 184.24 136.70 L 184.24 135.69 C 184.24 134.79 183.51 134.06 182.61 134.06 C 181.71 134.05 180.98 134.78 180.98 135.68 Z M 180.97 136.70 L 180.97 137.74 C 180.97 138.64 181.70 139.37 182.60 139.37 C 183.51 139.37 184.24 138.64 184.24 137.74 L 184.24 136.70 C 184.24 135.80 183.51 135.06 182.61 135.06 C 181.70 135.06 180.97 135.79 180.97 136.70 Z M 180.97 137.74 L 180.97 138.73 C 180.97 139.64 181.70 140.37 182.60 140.37 C 183.51 140.37 184.24 139.64 184.24 138.74 L 184.24 137.74 C 184.24 136.83 183.51 136.10 182.60 136.10 C 181.70 136.10 180.97 136.83 180.97 137.74 Z M 180.96 138.73 L 180.96 139.69 C 180.96 140.59 181.70 141.33 182.60 141.33 C 183.51 141.33 184.24 140.59 184.24 139.69 L 184.25 138.74 C 184.25 137.83 183.51 137.09 182.60 137.09 C 181.70 137.09 180.96 137.83 180.96 138.73 Z M 180.96 139.68 L 180.96 140.66 C 180.96 141.57 181.69 142.31 182.60 142.31 C 183.51 142.31 184.24 141.57 184.25 140.67 L 184.25 139.69 C 184.25 138.78 183.51 138.04 182.61 138.04 C 181.70 138.04 180.96 138.78 180.96 139.68 Z M 180.96 140.66 L 180.95 141.66 C 180.95 142.57 181.68 143.31 182.59 143.31 C 183.50 143.32 184.24 142.58 184.25 141.67 L 184.25 140.67 C 184.25 139.76 183.52 139.02 182.61 139.02 C 181.70 139.01 180.96 139.75 180.96 140.66 Z M 180.95 141.66 L 180.94 142.69 C 180.94 143.60 181.67 144.34 182.59 144.35 C 183.50 144.35 184.24 143.62 184.24 142.71 L 184.25 141.68 C 184.25 140.77 183.52 140.02 182.61 140.02 C 181.70 140.01 180.95 140.75 180.95 141.66 Z M 180.94 142.68 L 180.93 143.74 C 180.93 144.65 181.66 145.40 182.57 145.40 C 183.48 145.41 184.23 144.68 184.24 143.76 L 184.25 142.71 C 184.25 141.80 183.52 141.05 182.61 141.04 C 181.69 141.04 180.95 141.77 180.94 142.68 Z M 180.93 143.73 L 180.92 144.72 C 180.91 145.63 181.64 146.38 182.56 146.39 C 183.47 146.40 184.22 145.67 184.23 144.76 L 184.24 143.77 C 184.25 142.85 183.52 142.11 182.60 142.10 C 181.69 142.09 180.94 142.82 180.93 143.73 Z M 180.92 144.72 L 180.90 145.69 C 180.89 146.60 181.62 147.35 182.54 147.37 C 183.45 147.38 184.20 146.65 184.22 145.73 L 184.23 144.76 C 184.24 143.85 183.51 143.10 182.60 143.08 C 181.68 143.07 180.93 143.80 180.92 144.72 Z M 180.90 145.68 L 180.89 146.67 C 180.87 147.58 181.60 148.34 182.52 148.35 C 183.43 148.37 184.19 147.64 184.20 146.72 L 184.22 145.74 C 184.23 144.82 183.50 144.07 182.59 144.05 C 181.67 144.04 180.92 144.77 180.90 145.68 Z M 180.89 146.67 L 180.87 147.67 C 180.85 148.58 181.58 149.34 182.50 149.36 C 183.41 149.37 184.17 148.64 184.19 147.73 L 184.20 146.73 C 184.22 145.81 183.49 145.05 182.57 145.04 C 181.66 145.02 180.90 145.75 180.89 146.67 Z M 180.87 147.67 L 180.85 148.68 C 180.83 149.60 181.56 150.35 182.48 150.37 C 183.39 150.39 184.15 149.66 184.17 148.74 L 184.19 147.73 C 184.20 146.81 183.47 146.05 182.56 146.04 C 181.64 146.02 180.88 146.75 180.87 147.67 Z M 180.85 148.68 L 180.83 149.71 C 180.81 150.62 181.54 151.38 182.46 151.40 C 183.37 151.42 184.13 150.69 184.15 149.77 L 184.17 148.74 C 184.19 147.83 183.46 147.07 182.54 147.05 C 181.62 147.03 180.87 147.76 180.85 148.68 Z M 180.83 149.71 L 180.81 150.73 C 180.79 151.65 181.52 152.41 182.44 152.43 C 183.35 152.44 184.11 151.71 184.13 150.80 L 184.15 149.77 C 184.17 148.85 183.44 148.09 182.52 148.08 C 181.60 148.06 180.84 148.79 180.83 149.71 Z M 180.81 150.73 L 180.79 151.70 C 180.77 152.62 181.50 153.38 182.42 153.40 C 183.34 153.42 184.09 152.69 184.11 151.77 L 184.13 150.80 C 184.15 149.88 183.42 149.12 182.50 149.10 C 181.58 149.08 180.82 149.81 180.81 150.73 Z M 180.79 151.70 L 180.76 152.68 C 180.75 153.60 181.47 154.36 182.39 154.38 C 183.31 154.40 184.07 153.67 184.09 152.76 L 184.11 151.77 C 184.13 150.85 183.40 150.09 182.49 150.07 C 181.57 150.05 180.81 150.78 180.79 151.70 Z M 180.76 152.68 L 180.74 153.67 C 180.72 154.59 181.44 155.35 182.36 155.37 C 183.28 155.40 184.05 154.67 184.07 153.75 L 184.09 152.76 C 184.12 151.84 183.39 151.08 182.47 151.06 C 181.55 151.03 180.79 151.76 180.76 152.68 Z M 180.74 153.66 L 180.71 154.66 C 180.68 155.58 181.41 156.35 182.33 156.38 C 183.25 156.40 184.01 155.68 184.04 154.76 L 184.07 153.76 C 184.10 152.84 183.37 152.07 182.45 152.05 C 181.53 152.02 180.77 152.74 180.74 153.66 Z M 180.71 154.65 L 180.67 155.66 C 180.64 156.58 181.36 157.35 182.28 157.39 C 183.20 157.42 183.97 156.70 184.01 155.78 L 184.04 154.77 C 184.07 153.85 183.35 153.08 182.43 153.04 C 181.51 153.01 180.74 153.73 180.71 154.65 Z M 180.67 155.65 L 180.63 156.67 C 180.59 157.59 181.31 158.37 182.23 158.41 C 183.15 158.44 183.92 157.73 183.96 156.81 L 184.01 155.79 C 184.04 154.87 183.33 154.09 182.41 154.05 C 181.49 154.02 180.71 154.73 180.67 155.65 Z M 180.63 156.65 L 180.58 157.67 C 180.53 158.59 181.24 159.38 182.16 159.43 C 183.08 159.47 183.86 158.76 183.91 157.84 L 183.96 156.82 C 184.01 155.90 183.30 155.12 182.38 155.07 C 181.46 155.03 180.68 155.73 180.63 156.65 Z M 180.58 157.66 L 180.52 158.62 C 180.47 159.54 181.17 160.33 182.09 160.38 C 183.01 160.44 183.80 159.74 183.85 158.82 L 183.91 157.86 C 183.96 156.94 183.26 156.15 182.34 156.09 C 181.43 156.04 180.64 156.74 180.58 157.66 Z M 180.52 158.61 L 180.46 159.58 C 180.40 160.49 181.09 161.29 182.01 161.35 C 182.93 161.41 183.72 160.72 183.78 159.80 L 183.85 158.83 C 183.91 157.91 183.22 157.12 182.30 157.06 C 181.38 156.99 180.59 157.69 180.52 158.61 Z M 180.46 159.57 L 180.39 160.55 C 180.32 161.46 181.01 162.26 181.93 162.33 C 182.84 162.40 183.64 161.71 183.71 160.79 L 183.78 159.81 C 183.85 158.89 183.16 158.10 182.25 158.03 C 181.33 157.96 180.53 158.65 180.46 159.57 Z M 180.39 160.54 L 180.31 161.53 C 180.24 162.45 180.92 163.25 181.84 163.32 C 182.75 163.39 183.56 162.71 183.63 161.79 L 183.71 160.80 C 183.78 159.88 183.10 159.08 182.18 159.01 C 181.26 158.94 180.46 159.62 180.39 160.54 Z M 180.31 161.52 L 180.23 162.53 C 180.15 163.44 180.83 164.25 181.75 164.32 C 182.66 164.40 183.47 163.72 183.54 162.81 L 183.63 161.80 C 183.70 160.89 183.02 160.08 182.11 160.00 C 181.19 159.93 180.39 160.61 180.31 161.52 Z M 180.23 162.52 L 180.14 163.54 C 180.06 164.46 180.74 165.26 181.65 165.34 C 182.57 165.42 183.37 164.74 183.45 163.83 L 183.54 162.81 C 183.62 161.90 182.94 161.09 182.03 161.01 C 181.12 160.93 180.31 161.61 180.23 162.52 Z M 180.14 163.54 L 180.05 164.57 C 179.97 165.48 180.64 166.29 181.56 166.37 C 182.47 166.45 183.28 165.78 183.36 164.87 L 183.45 163.83 C 183.53 162.92 182.86 162.11 181.94 162.03 C 181.03 161.95 180.22 162.62 180.14 163.54 Z M 180.05 164.57 L 179.96 165.59 C 179.88 166.50 180.55 167.31 181.46 167.39 C 182.37 167.47 183.18 166.80 183.26 165.89 L 183.36 164.87 C 183.44 163.96 182.77 163.15 181.85 163.07 C 180.94 162.98 180.13 163.66 180.05 164.57 Z M 179.96 165.59 L 179.87 166.58 C 179.78 167.50 180.46 168.30 181.37 168.39 C 182.28 168.47 183.09 167.80 183.17 166.89 L 183.26 165.89 C 183.35 164.98 182.68 164.17 181.76 164.09 C 180.85 164.00 180.04 164.67 179.96 165.59 Z M 179.87 166.58 L 179.78 167.59 C 179.69 168.50 180.36 169.31 181.27 169.39 C 182.19 169.48 182.99 168.81 183.08 167.89 L 183.17 166.89 C 183.25 165.98 182.58 165.17 181.67 165.09 C 180.76 165.00 179.95 165.67 179.87 166.58 Z M 179.78 167.59 L 179.68 168.60 C 179.60 169.51 180.27 170.31 181.18 170.40 C 182.09 170.49 182.90 169.82 182.98 168.91 L 183.08 167.90 C 183.16 166.99 182.49 166.18 181.58 166.09 C 180.67 166.01 179.86 166.68 179.78 167.59 Z M 179.68 168.59 L 179.59 169.60 C 179.50 170.51 180.17 171.32 181.08 171.41 C 181.99 171.49 182.80 170.83 182.88 169.92 L 182.98 168.91 C 183.07 168.00 182.40 167.19 181.49 167.10 C 180.58 167.02 179.77 167.68 179.68 168.59 Z M 179.59 169.60 L 179.49 170.60 C 179.41 171.51 180.07 172.32 180.98 172.41 C 181.89 172.49 182.70 171.83 182.79 170.92 L 182.88 169.92 C 182.97 169.01 182.30 168.20 181.40 168.11 C 180.49 168.03 179.68 168.69 179.59 169.60 Z M 179.50 170.60 L 179.40 171.59 C 179.31 172.50 179.97 173.31 180.88 173.40 C 181.79 173.49 182.60 172.82 182.69 171.91 L 182.78 170.92 C 182.87 170.01 182.21 169.21 181.30 169.12 C 180.39 169.03 179.58 169.69 179.50 170.60 Z M 179.40 171.59 L 179.30 172.56 C 179.21 173.47 179.87 174.28 180.78 174.37 C 181.69 174.46 182.50 173.80 182.59 172.89 L 182.68 171.92 C 182.78 171.01 182.11 170.20 181.21 170.11 C 180.30 170.02 179.49 170.68 179.40 171.59 Z M 179.30 172.56 L 179.20 173.56 C 179.11 174.47 179.77 175.28 180.67 175.37 C 181.58 175.46 182.39 174.80 182.48 173.90 L 182.58 172.90 C 182.68 171.99 182.02 171.18 181.11 171.09 C 180.21 171.00 179.40 171.65 179.30 172.56 Z M 179.21 173.56 L 179.10 174.60 C 179.00 175.50 179.66 176.31 180.56 176.41 C 181.46 176.50 182.27 175.85 182.37 174.94 L 182.48 173.90 C 182.57 173.00 181.92 172.19 181.01 172.09 C 180.11 172.00 179.30 172.65 179.21 173.56 Z M 179.10 174.60 L 178.99 175.62 C 178.89 176.52 179.55 177.33 180.45 177.42 C 181.35 177.52 182.16 176.87 182.26 175.97 L 182.36 174.95 C 182.46 174.05 181.81 173.24 180.91 173.14 C 180.01 173.04 179.20 173.70 179.10 174.60 Z M 179.00 175.61 L 178.89 176.61 C 178.79 177.51 179.44 178.32 180.34 178.42 C 181.23 178.52 182.04 177.87 182.14 176.97 L 182.25 175.97 C 182.35 175.07 181.70 174.26 180.80 174.17 C 179.90 174.07 179.09 174.72 179.00 175.61 Z M 178.89 176.61 L 178.78 177.60 C 178.68 178.49 179.33 179.30 180.22 179.40 C 181.12 179.50 181.93 178.85 182.03 177.96 L 182.14 176.97 C 182.24 176.08 181.59 175.27 180.69 175.17 C 179.80 175.07 178.99 175.72 178.89 176.61 Z M 178.79 177.59 L 178.68 178.56 C 178.58 179.46 179.22 180.26 180.11 180.36 C 181.01 180.46 181.81 179.82 181.91 178.93 L 182.02 177.96 C 182.12 177.06 181.48 176.26 180.59 176.16 C 179.69 176.06 178.89 176.70 178.79 177.59 Z M 178.68 178.56 L 178.57 179.52 C 178.47 180.41 179.11 181.22 180.00 181.32 C 180.89 181.42 181.70 180.78 181.80 179.89 L 181.91 178.93 C 182.01 178.04 181.37 177.23 180.48 177.13 C 179.59 177.03 178.78 177.67 178.68 178.56 Z M 178.58 179.52 L 178.46 180.48 C 178.36 181.37 179.00 182.17 179.89 182.27 C 180.78 182.38 181.58 181.74 181.69 180.85 L 181.80 179.89 C 181.90 179.00 181.26 178.20 180.37 178.09 C 179.48 177.99 178.68 178.63 178.58 179.52 Z M 178.47 180.48 L 178.35 181.49 C 178.25 182.37 178.89 183.17 179.77 183.28 C 180.66 183.38 181.46 182.74 181.56 181.86 L 181.68 180.85 C 181.78 179.96 181.15 179.16 180.26 179.06 C 179.37 178.95 178.57 179.59 178.47 180.48 Z M 178.36 181.49 L 178.24 182.49 C 178.14 183.37 178.77 184.17 179.66 184.28 C 180.54 184.38 181.34 183.74 181.44 182.86 L 181.56 181.86 C 181.66 180.97 181.03 180.17 180.14 180.07 C 179.26 179.97 178.46 180.60 178.36 181.49 Z M 178.25 182.49 L 178.13 183.49 C 178.03 184.37 178.66 185.17 179.54 185.27 C 180.42 185.37 181.22 184.74 181.32 183.86 L 181.44 182.86 C 181.54 181.98 180.91 181.18 180.03 181.08 C 179.15 180.98 178.35 181.61 178.25 182.49 Z M 178.14 183.49 L 178.02 184.48 C 177.92 185.36 178.55 186.16 179.43 186.26 C 180.31 186.36 181.10 185.73 181.20 184.85 L 181.32 183.86 C 181.42 182.98 180.79 182.18 179.91 182.08 C 179.03 181.98 178.24 182.61 178.14 183.49 Z M 178.03 184.49 L 177.91 185.47 C 177.81 186.35 178.44 187.14 179.32 187.24 C 180.20 187.34 180.99 186.71 181.09 185.83 L 181.20 184.85 C 181.30 183.97 180.67 183.18 179.79 183.08 C 178.92 182.98 178.13 183.61 178.03 184.49 Z M 177.92 185.47 L 177.81 186.46 C 177.71 187.33 178.34 188.12 179.21 188.21 C 180.09 188.31 180.87 187.68 180.97 186.81 L 181.08 185.83 C 181.18 184.96 180.55 184.17 179.68 184.07 C 178.80 183.97 178.02 184.60 177.92 185.47 Z M 177.81 186.46 L 177.70 187.45 C 177.61 188.32 178.24 189.10 179.11 189.20 C 179.98 189.30 180.76 188.67 180.86 187.80 L 180.97 186.81 C 181.06 185.94 180.43 185.15 179.56 185.06 C 178.69 184.96 177.91 185.59 177.81 186.46 Z M 177.71 187.45 L 177.60 188.47 C 177.51 189.34 178.13 190.12 179.00 190.21 C 179.87 190.30 180.65 189.68 180.74 188.81 L 180.85 187.79 C 180.94 186.93 180.32 186.15 179.45 186.05 C 178.58 185.96 177.80 186.59 177.71 187.45 Z M 177.61 188.48 L 177.50 189.49 C 177.41 190.35 178.04 191.12 178.90 191.21 C 179.76 191.30 180.54 190.68 180.63 189.81 L 180.73 188.80 C 180.83 187.94 180.20 187.17 179.34 187.08 C 178.47 186.99 177.70 187.61 177.61 188.48 Z M 177.51 189.49 L 177.41 190.49 C 177.32 191.35 177.95 192.12 178.81 192.21 C 179.67 192.29 180.43 191.67 180.52 190.81 L 180.62 189.81 C 180.71 188.95 180.08 188.18 179.22 188.09 C 178.36 188.01 177.60 188.63 177.51 189.49 Z M 177.41 190.50 L 177.32 191.49 C 177.23 192.35 177.86 193.11 178.72 193.19 C 179.57 193.27 180.33 192.65 180.42 191.79 L 180.51 190.80 C 180.60 189.95 179.97 189.18 179.12 189.10 C 178.26 189.02 177.50 189.64 177.41 190.50 Z M 177.32 191.50 L 177.23 192.48 C 177.15 193.33 177.78 194.09 178.63 194.17 C 179.48 194.24 180.24 193.62 180.32 192.77 L 180.41 191.78 C 180.49 190.93 179.86 190.18 179.01 190.10 C 178.16 190.02 177.40 190.64 177.32 191.50 Z M 177.24 192.49 L 177.15 193.45 C 177.08 194.30 177.71 195.05 178.55 195.13 C 179.40 195.20 180.15 194.57 180.23 193.73 L 180.31 192.76 C 180.39 191.91 179.76 191.16 178.91 191.08 C 178.06 191.01 177.31 191.64 177.24 192.49 Z M 177.16 193.46 L 177.07 194.49 C 177.00 195.33 177.63 196.07 178.48 196.14 C 179.32 196.21 180.07 195.59 180.14 194.74 L 180.22 193.72 C 180.29 192.87 179.66 192.13 178.82 192.06 C 177.97 191.99 177.23 192.62 177.16 193.46 Z M 177.08 194.50 L 177.00 195.52 C 176.94 196.36 177.57 197.10 178.41 197.16 C 179.26 197.22 179.99 196.59 180.06 195.75 L 180.13 194.73 C 180.20 193.89 179.57 193.15 178.72 193.09 C 177.88 193.02 177.14 193.65 177.08 194.50 Z M 177.00 195.53 L 176.93 196.53 C 176.88 197.37 177.51 198.10 178.35 198.16 C 179.20 198.22 179.92 197.58 179.98 196.74 L 180.05 195.74 C 180.11 194.89 179.47 194.17 178.63 194.11 C 177.79 194.05 177.06 194.69 177.00 195.53 Z M 176.94 196.55 L 176.88 197.54 C 176.83 198.38 177.47 199.10 178.31 199.15 C 179.15 199.20 179.87 198.56 179.92 197.72 L 179.98 196.73 C 180.03 195.89 179.39 195.17 178.55 195.12 C 177.71 195.07 176.99 195.71 176.94 196.55 Z M 176.88 197.55 L 176.83 198.53 C 176.79 199.37 177.43 200.08 178.27 200.13 C 179.11 200.17 179.82 199.52 179.86 198.69 L 179.91 197.71 C 179.96 196.87 179.31 196.16 178.48 196.11 C 177.64 196.07 176.93 196.71 176.88 197.55 Z M 176.84 198.55 L 176.80 199.51 C 176.76 200.35 177.41 201.06 178.25 201.09 C 179.08 201.12 179.79 200.47 179.82 199.64 L 179.86 198.67 C 179.90 197.84 179.25 197.13 178.41 197.10 C 177.58 197.06 176.87 197.71 176.84 198.55 Z M 176.80 199.53 L 176.77 200.53 C 176.74 201.36 177.40 202.06 178.23 202.08 C 179.07 202.11 179.76 201.45 179.79 200.62 L 179.82 199.62 C 179.84 198.79 179.19 198.09 178.35 198.07 C 177.52 198.04 176.82 198.70 176.80 199.53 Z M 176.77 200.54 L 176.75 201.53 C 176.73 202.37 177.39 203.06 178.23 203.07 C 179.06 203.09 179.75 202.43 179.77 201.59 L 179.79 200.60 C 179.80 199.77 179.14 199.08 178.31 199.06 C 177.48 199.05 176.79 199.71 176.77 200.54 Z M 176.75 201.55 L 176.74 202.54 C 176.73 203.37 177.40 204.05 178.23 204.06 C 179.06 204.07 179.74 203.41 179.75 202.57 L 179.77 201.58 C 179.78 200.75 179.11 200.07 178.28 200.06 C 177.44 200.05 176.76 200.71 176.75 201.55 Z M 176.74 202.55 L 176.73 203.54 C 176.73 204.37 177.40 205.05 178.23 205.06 C 179.06 205.06 179.74 204.39 179.75 203.56 L 179.75 202.56 C 179.76 201.73 179.09 201.05 178.26 201.05 C 177.42 201.04 176.75 201.71 176.74 202.55 Z M 176.74 203.55 L 176.73 204.55 C 176.73 205.38 177.40 206.06 178.24 206.06 C 179.07 206.06 179.74 205.39 179.74 204.56 L 179.75 203.55 C 179.75 202.72 179.07 202.05 178.24 202.05 C 177.41 202.04 176.74 202.72 176.74 203.55 Z M 176.74 204.56 L 176.73 205.57 C 176.73 206.40 177.41 207.08 178.24 207.08 C 179.07 207.08 179.74 206.40 179.74 205.57 L 179.74 204.56 C 179.74 203.73 179.07 203.05 178.24 203.05 C 177.41 203.05 176.74 203.73 176.74 204.56 Z M 176.74 205.57 L 176.74 206.60 C 176.74 207.43 177.41 208.10 178.24 208.10 C 179.07 208.10 179.74 207.42 179.74 206.59 L 179.74 205.57 C 179.74 204.74 179.07 204.07 178.24 204.07 C 177.41 204.07 176.74 204.74 176.74 205.57 Z M 176.74 206.60 L 176.74 207.62 C 176.74 208.45 177.41 209.13 178.24 209.12 C 179.07 209.12 179.74 208.45 179.74 207.62 L 179.74 206.59 C 179.74 205.76 179.07 205.09 178.24 205.09 C 177.41 205.09 176.73 205.77 176.74 206.60 Z M 176.74 207.63 L 176.74 208.65 C 176.75 209.48 177.42 210.15 178.25 210.14 C 179.08 210.14 179.75 209.46 179.75 208.63 L 179.74 207.61 C 179.74 206.78 179.06 206.11 178.23 206.12 C 177.40 206.12 176.73 206.80 176.74 207.63 Z M 176.74 208.65 L 176.75 209.66 C 176.76 210.49 177.44 211.15 178.27 211.15 C 179.10 211.14 179.76 210.46 179.76 209.63 L 179.75 208.63 C 179.74 207.80 179.06 207.13 178.23 207.14 C 177.40 207.15 176.74 207.83 176.74 208.65 Z M 176.75 209.67 L 176.77 210.64 C 176.78 211.47 177.46 212.13 178.29 212.12 C 179.12 212.10 179.78 211.42 179.77 210.59 L 179.76 209.62 C 179.74 208.79 179.06 208.13 178.23 208.14 C 177.40 208.15 176.74 208.84 176.75 209.67 Z M 176.77 210.65 L 176.79 211.64 C 176.81 212.47 177.50 213.13 178.33 213.11 C 179.16 213.09 179.81 212.40 179.79 211.57 L 179.77 210.58 C 179.75 209.75 179.06 209.09 178.23 209.11 C 177.40 209.13 176.75 209.82 176.77 210.65 Z M 176.79 211.66 L 176.83 212.72 C 176.85 213.55 177.55 214.20 178.38 214.17 C 179.21 214.14 179.86 213.45 179.83 212.62 L 179.79 211.56 C 179.77 210.73 179.07 210.08 178.24 210.10 C 177.41 210.13 176.76 210.83 176.79 211.66 Z M 176.83 212.74 L 176.87 213.74 C 176.91 214.57 177.61 215.22 178.44 215.18 C 179.27 215.14 179.91 214.44 179.88 213.61 L 179.83 212.60 C 179.80 211.77 179.09 211.13 178.26 211.17 C 177.43 211.20 176.79 211.91 176.83 212.74 Z M 176.87 213.76 L 176.92 214.73 C 176.96 215.56 177.67 216.19 178.50 216.15 C 179.33 216.11 179.97 215.40 179.93 214.57 L 179.88 213.60 C 179.83 212.77 179.13 212.13 178.29 212.17 C 177.46 212.22 176.83 212.93 176.87 213.76 Z M 176.92 214.73 L 176.97 215.68 C 177.02 216.51 177.73 217.15 178.56 217.10 C 179.39 217.05 180.03 216.34 179.98 215.51 L 179.93 214.56 C 179.88 213.73 179.17 213.09 178.34 213.14 C 177.51 213.19 176.87 213.90 176.92 214.73 Z M 176.97 215.68 L 177.00 216.11 C 177.05 216.95 177.76 217.58 178.59 217.53 C 179.42 217.48 180.06 216.77 180.01 215.94 L 179.98 215.51 C 179.93 214.67 179.22 214.04 178.39 214.09 C 177.56 214.14 176.92 214.85 176.97 215.68 Z"
      fill="black"
      fill-rule="nonzero" /></svg>