<svg xmlns="http://www.w3.org/2000/svg" width="300" height="300" viewBox="0 0 300 300">
<path d="M 159.55 150.98 L 158.64 150.35 C 157.93 149.86 156.96 150.03 156.47 150.74 C 155.98 151.45 156.15 152.43 156.86 152.92 L 157.77 153.55 C 158.48 154.04 159.45 153.86 159.95 153.15 C 160.44 152.44 160.26 151.47 159.55 150.98 Z M 158.92 150.53 L 158.25 149.83 C 157.64 149.19 156.63 149.17 155.99 149.77 C 155.35 150.38 155.32 151.40 155.93 152.04 L 156.59 152.74 C 157.20 153.38 158.22 153.41 158.86 152.80 C 159.50 152.19 159.52 151.17 158.92 150.53 Z M 158.68 150.57 L 158.50 149.76 C 158.29 148.88 157.41 148.34 156.53 148.54 C 155.65 148.75 155.11 149.62 155.31 150.50 L 155.50 151.31 C 155.70 152.19 156.58 152.73 157.46 152.53 C 158.34 152.32 158.89 151.44 158.68 150.57 Z M 158.46 150.65 L 158.72 149.87 C 159.00 149.01 158.53 148.08 157.67 147.80 C 156.81 147.52 155.88 147.98 155.60 148.84 L 155.35 149.62 C 155.06 150.48 155.53 151.41 156.39 151.69 C 157.25 151.97 158.18 151.51 158.46 150.65 Z M 158.54 150.21 L 159.07 149.35 C 159.54 148.59 159.30 147.58 158.54 147.11 C 157.77 146.64 156.77 146.88 156.30 147.65 L 155.77 148.50 C 155.30 149.27 155.54 150.27 156.31 150.74 C 157.07 151.21 158.07 150.97 158.54 150.21 Z M 158.97 149.47 L 159.66 148.56 C 160.20 147.86 160.06 146.85 159.35 146.31 C 158.64 145.77 157.63 145.91 157.09 146.62 L 156.40 147.52 C 155.87 148.23 156.00 149.24 156.71 149.78 C 157.42 150.32 158.43 150.18 158.97 149.47 Z M 159.63 148.59 L 159.91 148.23 C 160.46 147.54 160.35 146.53 159.66 145.98 C 158.97 145.43 157.96 145.54 157.41 146.24 L 157.12 146.59 C 156.57 147.28 156.69 148.29 157.38 148.84 C 158.07 149.39 159.08 149.28 159.63 148.59 Z"
      fill="black"
      fill-rule="nonzero" /><path d="M 174.64 169.09 L 173.65 169.19 C 172.79 169.28 172.16 170.05 172.25 170.92 C 172.34 171.78 173.12 172.41 173.98 172.32 L 174.96 172.21 C 175.83 172.12 176.45 171.35 176.36 170.49 C 176.27 169.62 175.50 169.00 174.64 169.09 Z M 173.61 169.16 L 172.62 169.29 C 171.75 169.41 171.13 170.21 171.24 171.09 C 171.36 171.97 172.16 172.58 173.04 172.47 L 174.02 172.34 C 174.90 172.23 175.52 171.42 175.40 170.54 C 175.29 169.67 174.48 169.05 173.61 169.16 Z M 172.54 169.28 L 171.55 169.46 C 170.67 169.62 170.08 170.47 170.25 171.36 C 170.41 172.24 171.26 172.83 172.15 172.67 L 173.13 172.49 C 174.01 172.32 174.60 171.47 174.44 170.59 C 174.27 169.70 173.42 169.11 172.54 169.28 Z M 171.43 169.46 L 170.44 169.72 C 169.56 169.95 169.03 170.86 169.26 171.75 C 169.49 172.63 170.40 173.16 171.29 172.93 L 172.27 172.67 C 173.16 172.43 173.69 171.53 173.46 170.64 C 173.22 169.75 172.31 169.22 171.43 169.46 Z M 170.30 169.74 L 169.34 170.09 C 168.47 170.40 168.02 171.37 168.33 172.24 C 168.65 173.11 169.61 173.56 170.48 173.25 L 171.44 172.90 C 172.31 172.59 172.76 171.62 172.45 170.75 C 172.13 169.88 171.17 169.43 170.30 169.74 Z M 169.23 170.13 L 168.29 170.54 C 167.44 170.92 167.06 171.91 167.43 172.76 C 167.81 173.61 168.80 174.00 169.65 173.62 L 170.59 173.21 C 171.44 172.83 171.83 171.84 171.45 170.99 C 171.07 170.13 170.08 169.75 169.23 170.13 Z M 168.21 170.57 L 167.31 171.03 C 166.48 171.45 166.14 172.46 166.56 173.29 C 166.98 174.13 168.00 174.46 168.83 174.05 L 169.73 173.59 C 170.57 173.17 170.90 172.16 170.48 171.32 C 170.06 170.49 169.05 170.15 168.21 170.57 Z M 167.26 171.05 L 166.42 171.51 C 165.59 171.95 165.29 172.98 165.74 173.80 C 166.18 174.63 167.21 174.93 168.04 174.48 L 168.88 174.02 C 169.70 173.58 170.01 172.55 169.56 171.73 C 169.11 170.90 168.09 170.60 167.26 171.05 Z M 166.39 171.52 L 165.47 172.04 C 164.65 172.50 164.36 173.54 164.82 174.35 C 165.29 175.17 166.32 175.46 167.14 175.00 L 168.06 174.47 C 168.88 174.01 169.17 172.98 168.70 172.16 C 168.24 171.34 167.21 171.05 166.39 171.52 Z M 165.45 172.04 L 164.58 172.55 C 163.77 173.02 163.49 174.06 163.96 174.87 C 164.43 175.68 165.47 175.96 166.28 175.49 L 167.15 174.99 C 167.97 174.52 168.25 173.48 167.78 172.67 C 167.31 171.85 166.27 171.57 165.45 172.04 Z M 164.58 172.54 L 163.76 173.02 C 162.94 173.49 162.66 174.53 163.13 175.35 C 163.60 176.16 164.64 176.44 165.46 175.97 L 166.28 175.50 C 167.10 175.03 167.38 173.99 166.91 173.17 C 166.44 172.36 165.40 172.08 164.58 172.54 Z M 163.77 173.01 L 162.94 173.48 C 162.11 173.94 161.82 174.98 162.28 175.80 C 162.74 176.62 163.78 176.91 164.60 176.45 L 165.44 175.98 C 166.26 175.52 166.55 174.48 166.09 173.66 C 165.63 172.84 164.59 172.55 163.77 173.01 Z M 162.95 173.47 L 162.08 173.94 C 161.26 174.39 160.95 175.43 161.40 176.26 C 161.85 177.08 162.89 177.39 163.72 176.94 L 164.59 176.46 C 165.41 176.01 165.72 174.98 165.27 174.15 C 164.82 173.32 163.78 173.01 162.95 173.47 Z M 162.09 173.94 L 161.20 174.42 C 160.37 174.87 160.07 175.90 160.52 176.73 C 160.97 177.56 162.00 177.87 162.83 177.42 L 163.72 176.94 C 164.55 176.49 164.85 175.45 164.40 174.62 C 163.95 173.79 162.91 173.49 162.09 173.94 Z M 161.19 174.42 L 160.31 174.91 C 159.48 175.37 159.18 176.41 159.64 177.24 C 160.10 178.06 161.14 178.36 161.97 177.90 L 162.85 177.41 C 163.67 176.96 163.97 175.91 163.51 175.09 C 163.06 174.26 162.01 173.96 161.19 174.42 Z M 160.29 174.92 L 159.43 175.41 C 158.60 175.88 158.32 176.93 158.79 177.75 C 159.26 178.57 160.30 178.85 161.12 178.39 L 161.99 177.89 C 162.81 177.42 163.09 176.38 162.62 175.56 C 162.16 174.74 161.11 174.45 160.29 174.92 Z M 159.42 175.42 L 158.55 175.92 C 157.73 176.39 157.45 177.44 157.92 178.26 C 158.39 179.08 159.44 179.36 160.26 178.88 L 161.13 178.38 C 161.95 177.91 162.23 176.86 161.76 176.04 C 161.28 175.22 160.24 174.94 159.42 175.42 Z M 158.55 175.92 L 157.68 176.42 C 156.86 176.89 156.57 177.93 157.04 178.75 C 157.51 179.58 158.56 179.86 159.38 179.39 L 160.26 178.89 C 161.08 178.42 161.36 177.37 160.89 176.55 C 160.42 175.73 159.37 175.44 158.55 175.92 Z M 157.69 176.41 L 156.82 176.90 C 155.99 177.36 155.70 178.41 156.17 179.23 C 156.63 180.06 157.67 180.35 158.50 179.89 L 159.37 179.40 C 160.19 178.93 160.49 177.89 160.02 177.06 C 159.56 176.24 158.52 175.94 157.69 176.41 Z M 156.83 176.89 L 155.96 177.37 C 155.13 177.83 154.83 178.87 155.28 179.70 C 155.74 180.53 156.78 180.83 157.61 180.37 L 158.49 179.89 C 159.31 179.44 159.62 178.39 159.16 177.57 C 158.70 176.74 157.66 176.43 156.83 176.89 Z M 155.97 177.36 L 155.09 177.84 C 154.26 178.29 153.95 179.33 154.40 180.16 C 154.85 181.00 155.89 181.31 156.72 180.86 L 157.60 180.38 C 158.43 179.93 158.74 178.89 158.29 178.06 C 157.84 177.22 156.80 176.91 155.97 177.36 Z M 155.10 177.83 L 154.22 178.30 C 153.38 178.75 153.06 179.79 153.51 180.62 C 153.95 181.46 154.99 181.78 155.83 181.33 L 156.71 180.86 C 157.55 180.42 157.86 179.38 157.42 178.54 C 156.97 177.71 155.93 177.39 155.10 177.83 Z M 154.23 178.30 L 153.34 178.76 C 152.50 179.20 152.17 180.23 152.61 181.07 C 153.05 181.91 154.09 182.24 154.93 181.80 L 155.81 181.34 C 156.65 180.90 156.98 179.87 156.54 179.03 C 156.10 178.19 155.07 177.86 154.23 178.30 Z M 153.36 178.75 L 152.46 179.20 C 151.62 179.63 151.28 180.66 151.71 181.51 C 152.13 182.35 153.17 182.69 154.01 182.26 L 154.91 181.81 C 155.75 181.38 156.09 180.35 155.66 179.51 C 155.24 178.66 154.20 178.32 153.36 178.75 Z M 152.49 179.19 L 151.62 179.61 C 150.77 180.02 150.41 181.05 150.82 181.90 C 151.24 182.76 152.26 183.11 153.12 182.70 L 153.99 182.28 C 154.84 181.86 155.20 180.84 154.78 179.99 C 154.37 179.13 153.34 178.78 152.49 179.19 Z M 151.66 179.59 L 150.85 179.96 C 149.98 180.36 149.60 181.38 150.00 182.24 C 150.39 183.10 151.41 183.48 152.27 183.09 L 153.08 182.72 C 153.94 182.32 154.32 181.30 153.93 180.44 C 153.54 179.58 152.52 179.20 151.66 179.59 Z M 150.89 179.94 L 150.01 180.31 C 149.14 180.68 148.73 181.69 149.10 182.56 C 149.47 183.43 150.47 183.84 151.35 183.48 L 152.22 183.11 C 153.10 182.74 153.51 181.73 153.14 180.86 C 152.77 179.99 151.77 179.58 150.89 179.94 Z M 150.07 180.29 L 149.07 180.68 C 148.18 181.02 147.74 182.01 148.08 182.89 C 148.42 183.78 149.41 184.22 150.29 183.88 L 151.29 183.50 C 152.18 183.16 152.62 182.16 152.28 181.28 C 151.94 180.40 150.95 179.95 150.07 180.29 Z M 149.11 180.66 L 148.13 181.00 C 147.24 181.32 146.77 182.30 147.09 183.19 C 147.40 184.09 148.38 184.55 149.27 184.24 L 150.25 183.90 C 151.14 183.58 151.61 182.60 151.30 181.71 C 150.98 180.81 150.00 180.35 149.11 180.66 Z M 148.17 180.99 L 147.35 181.26 C 146.45 181.55 145.96 182.52 146.26 183.42 C 146.55 184.32 147.52 184.81 148.42 184.52 L 149.24 184.25 C 150.14 183.96 150.63 182.99 150.33 182.09 C 150.04 181.19 149.07 180.70 148.17 180.99 Z M 147.39 181.25 L 146.50 181.52 C 145.59 181.79 145.08 182.74 145.35 183.65 C 145.62 184.56 146.58 185.07 147.48 184.80 L 148.38 184.53 C 149.28 184.26 149.80 183.30 149.53 182.40 C 149.26 181.49 148.30 180.98 147.39 181.25 Z M 146.55 181.50 L 145.58 181.76 C 144.67 182.01 144.13 182.94 144.37 183.86 C 144.62 184.77 145.56 185.32 146.47 185.07 L 147.44 184.81 C 148.35 184.57 148.89 183.63 148.65 182.71 C 148.40 181.80 147.46 181.26 146.55 181.50 Z M 145.64 181.75 L 144.61 181.99 C 143.69 182.20 143.11 183.12 143.33 184.04 C 143.54 184.96 144.46 185.54 145.38 185.32 L 146.41 185.09 C 147.34 184.87 147.91 183.95 147.70 183.03 C 147.48 182.11 146.56 181.53 145.64 181.75 Z M 144.67 181.97 L 143.58 182.18 C 142.65 182.36 142.04 183.26 142.22 184.19 C 142.39 185.12 143.29 185.72 144.22 185.55 L 145.32 185.34 C 146.25 185.16 146.86 184.26 146.68 183.33 C 146.50 182.40 145.60 181.79 144.67 181.97 Z M 143.65 182.17 L 142.55 182.33 C 141.62 182.47 140.97 183.34 141.11 184.28 C 141.25 185.22 142.12 185.86 143.06 185.72 L 144.15 185.56 C 145.09 185.42 145.73 184.55 145.59 183.61 C 145.45 182.68 144.58 182.03 143.65 182.17 Z M 142.62 182.33 L 141.63 182.43 C 140.69 182.54 140.01 183.38 140.12 184.32 C 140.22 185.26 141.06 185.94 142.00 185.84 L 142.99 185.73 C 143.93 185.63 144.61 184.78 144.51 183.84 C 144.40 182.90 143.56 182.22 142.62 182.33 Z M 141.69 182.43 L 140.68 182.50 C 139.74 182.57 139.03 183.39 139.10 184.33 C 139.17 185.27 139.99 185.98 140.93 185.91 L 141.94 185.84 C 142.88 185.77 143.59 184.95 143.52 184.01 C 143.45 183.07 142.63 182.36 141.69 182.43 Z M 140.74 182.50 L 139.72 182.54 C 138.78 182.57 138.04 183.36 138.07 184.31 C 138.11 185.25 138.90 185.99 139.84 185.95 L 140.86 185.92 C 141.81 185.88 142.54 185.09 142.51 184.15 C 142.48 183.21 141.69 182.47 140.74 182.50 Z M 139.79 182.54 L 138.76 182.53 C 137.82 182.53 137.05 183.29 137.05 184.24 C 137.05 185.18 137.81 185.94 138.75 185.95 L 139.77 185.95 C 140.72 185.96 141.48 185.19 141.49 184.25 C 141.49 183.31 140.73 182.54 139.79 182.54 Z M 138.84 182.54 L 137.83 182.49 C 136.89 182.45 136.09 183.18 136.05 184.12 C 136.00 185.06 136.73 185.86 137.67 185.90 L 138.68 185.94 C 139.62 185.99 140.42 185.26 140.46 184.32 C 140.50 183.38 139.78 182.58 138.84 182.54 Z M 137.91 182.50 L 136.92 182.41 C 135.98 182.32 135.15 183.01 135.07 183.95 C 134.98 184.88 135.67 185.71 136.61 185.80 L 137.59 185.89 C 138.53 185.98 139.36 185.29 139.45 184.35 C 139.53 183.42 138.84 182.59 137.91 182.50 Z M 137.01 182.42 L 136.06 182.28 C 135.13 182.14 134.27 182.79 134.13 183.72 C 134.00 184.65 134.64 185.51 135.57 185.65 L 136.52 185.79 C 137.45 185.92 138.31 185.28 138.45 184.35 C 138.59 183.42 137.94 182.56 137.01 182.42 Z M 136.18 182.30 L 135.07 182.06 C 134.15 181.86 133.24 182.45 133.04 183.37 C 132.85 184.28 133.43 185.19 134.35 185.39 L 135.46 185.63 C 136.38 185.83 137.28 185.24 137.48 184.32 C 137.68 183.41 137.10 182.50 136.18 182.30 Z M 135.19 182.10 L 134.13 181.78 C 133.23 181.52 132.28 182.03 132.02 182.93 C 131.75 183.83 132.27 184.77 133.17 185.04 L 134.22 185.35 C 135.12 185.62 136.07 185.10 136.33 184.21 C 136.60 183.31 136.09 182.36 135.19 182.10 Z M 134.24 181.82 L 133.26 181.46 C 132.39 181.14 131.41 181.58 131.08 182.46 C 130.76 183.33 131.20 184.31 132.08 184.64 L 133.06 185.00 C 133.93 185.33 134.91 184.88 135.23 184.00 C 135.56 183.13 135.11 182.15 134.24 181.82 Z M 133.36 181.50 L 132.47 181.11 C 131.62 180.73 130.62 181.12 130.24 181.97 C 129.86 182.82 130.24 183.82 131.10 184.20 L 131.99 184.59 C 132.84 184.97 133.84 184.59 134.22 183.74 C 134.60 182.88 134.21 181.88 133.36 181.50 Z M 132.55 181.15 L 131.75 180.74 C 130.92 180.32 129.91 180.65 129.48 181.48 C 129.06 182.31 129.39 183.32 130.22 183.75 L 131.02 184.16 C 131.85 184.58 132.86 184.25 133.29 183.42 C 133.71 182.59 133.38 181.58 132.55 181.15 Z M 131.82 180.78 L 131.08 180.36 C 130.27 179.90 129.24 180.18 128.78 180.99 C 128.32 181.79 128.60 182.82 129.41 183.28 L 130.15 183.71 C 130.96 184.17 131.98 183.89 132.45 183.08 C 132.91 182.27 132.63 181.25 131.82 180.78 Z M 131.15 180.41 L 130.19 179.79 C 129.41 179.29 128.37 179.51 127.87 180.29 C 127.36 181.07 127.59 182.11 128.37 182.61 L 129.33 183.23 C 130.11 183.74 131.15 183.51 131.65 182.73 C 132.15 181.95 131.93 180.91 131.15 180.41 Z M 130.29 179.86 L 129.50 179.27 C 128.76 178.71 127.71 178.86 127.15 179.60 C 126.59 180.34 126.74 181.39 127.48 181.94 L 128.27 182.54 C 129.01 183.10 130.06 182.95 130.62 182.21 C 131.17 181.47 131.03 180.42 130.29 179.86 Z M 129.59 179.35 L 128.91 178.75 C 128.22 178.14 127.16 178.21 126.55 178.90 C 125.94 179.60 126.01 180.65 126.70 181.26 L 127.38 181.86 C 128.08 182.47 129.13 182.40 129.74 181.71 C 130.35 181.02 130.29 179.96 129.59 179.35 Z M 128.99 178.83 L 128.33 178.17 C 127.68 177.52 126.62 177.52 125.97 178.17 C 125.32 178.82 125.32 179.88 125.97 180.53 L 126.63 181.19 C 127.28 181.84 128.34 181.84 128.99 181.19 C 129.64 180.54 129.64 179.48 128.99 178.83 Z M 128.39 178.23 L 127.72 177.50 C 127.10 176.81 126.05 176.76 125.37 177.38 C 124.69 178.00 124.63 179.05 125.25 179.73 L 125.92 180.47 C 126.53 181.15 127.59 181.20 128.27 180.58 C 128.95 179.97 129.00 178.91 128.39 178.23 Z M 127.77 177.55 L 127.12 176.78 C 126.54 176.07 125.49 175.97 124.78 176.56 C 124.08 177.14 123.98 178.19 124.56 178.90 L 125.20 179.67 C 125.79 180.38 126.84 180.48 127.55 179.89 C 128.25 179.31 128.35 178.26 127.77 177.55 Z M 127.16 176.83 L 126.55 176.03 C 125.99 175.30 124.95 175.16 124.22 175.72 C 123.49 176.28 123.36 177.32 123.91 178.05 L 124.52 178.85 C 125.08 179.58 126.12 179.71 126.85 179.16 C 127.58 178.60 127.72 177.56 127.16 176.83 Z M 126.58 176.08 L 126.01 175.28 C 125.48 174.53 124.45 174.36 123.70 174.89 C 122.95 175.42 122.78 176.46 123.31 177.20 L 123.88 178.00 C 124.41 178.75 125.45 178.92 126.19 178.39 C 126.94 177.86 127.11 176.82 126.58 176.08 Z M 126.04 175.33 L 125.49 174.50 C 124.99 173.73 123.96 173.53 123.20 174.03 C 122.44 174.54 122.23 175.56 122.73 176.33 L 123.28 177.16 C 123.79 177.92 124.82 178.13 125.58 177.62 C 126.34 177.12 126.55 176.09 126.04 175.33 Z M 125.52 174.54 L 124.98 173.67 C 124.50 172.90 123.49 172.66 122.71 173.13 C 121.93 173.61 121.69 174.63 122.17 175.41 L 122.70 176.28 C 123.18 177.05 124.20 177.30 124.98 176.82 C 125.76 176.34 126.00 175.32 125.52 174.54 Z M 125.01 173.72 L 124.52 172.87 C 124.07 172.08 123.06 171.81 122.27 172.27 C 121.48 172.72 121.21 173.73 121.66 174.52 L 122.15 175.36 C 122.60 176.15 123.61 176.43 124.40 175.97 C 125.19 175.52 125.46 174.51 125.01 173.72 Z M 124.54 172.91 L 124.07 172.05 C 123.64 171.24 122.64 170.94 121.84 171.38 C 121.04 171.81 120.74 172.81 121.17 173.61 L 121.64 174.48 C 122.07 175.28 123.07 175.58 123.87 175.15 C 124.67 174.71 124.97 173.72 124.54 172.91 Z M 124.09 172.08 L 123.63 171.18 C 123.22 170.37 122.23 170.05 121.42 170.46 C 120.61 170.87 120.28 171.86 120.70 172.67 L 121.16 173.57 C 121.57 174.38 122.56 174.71 123.37 174.29 C 124.18 173.88 124.50 172.89 124.09 172.08 Z M 123.64 171.21 L 123.20 170.29 C 122.81 169.47 121.82 169.13 121.01 169.52 C 120.19 169.91 119.85 170.90 120.24 171.71 L 120.68 172.64 C 121.08 173.45 122.06 173.80 122.88 173.40 C 123.69 173.01 124.04 172.03 123.64 171.21 Z M 123.21 170.32 L 122.81 169.44 C 122.43 168.62 121.46 168.26 120.64 168.63 C 119.81 169.01 119.45 169.98 119.83 170.81 L 120.23 171.68 C 120.60 172.51 121.58 172.87 122.40 172.49 C 123.23 172.12 123.59 171.14 123.21 170.32 Z M 122.82 169.47 L 122.43 168.57 C 122.07 167.74 121.10 167.36 120.27 167.72 C 119.44 168.08 119.06 169.04 119.42 169.87 L 119.82 170.78 C 120.18 171.61 121.14 171.99 121.97 171.63 C 122.80 171.27 123.18 170.30 122.82 169.47 Z M 122.44 168.60 L 122.05 167.66 C 121.71 166.82 120.75 166.42 119.92 166.77 C 119.08 167.11 118.68 168.07 119.03 168.90 L 119.41 169.84 C 119.76 170.68 120.71 171.07 121.55 170.73 C 122.38 170.39 122.78 169.43 122.44 168.60 Z M 122.06 167.69 L 121.69 166.72 C 121.36 165.88 120.42 165.46 119.57 165.79 C 118.73 166.11 118.32 167.06 118.64 167.90 L 119.02 168.87 C 119.34 169.71 120.29 170.13 121.13 169.80 C 121.97 169.48 122.39 168.53 122.06 167.69 Z M 121.70 166.75 L 121.36 165.83 C 121.05 164.99 120.12 164.55 119.27 164.86 C 118.42 165.17 117.99 166.11 118.30 166.95 L 118.63 167.87 C 118.94 168.72 119.88 169.15 120.72 168.84 C 121.57 168.54 122.01 167.60 121.70 166.75 Z M 121.37 165.87 L 121.05 164.92 C 120.76 164.07 119.83 163.62 118.98 163.91 C 118.13 164.20 117.67 165.12 117.97 165.97 L 118.29 166.92 C 118.58 167.77 119.50 168.22 120.36 167.93 C 121.21 167.64 121.66 166.72 121.37 165.87 Z M 121.06 164.96 L 120.75 164.00 C 120.48 163.14 119.57 162.66 118.71 162.93 C 117.86 163.20 117.38 164.12 117.65 164.98 L 117.96 165.94 C 118.23 166.79 119.14 167.27 120.00 167.00 C 120.85 166.73 121.33 165.82 121.06 164.96 Z M 120.76 164.04 L 120.49 163.06 C 120.24 162.20 119.34 161.70 118.48 161.95 C 117.61 162.20 117.12 163.10 117.36 163.96 L 117.64 164.93 C 117.89 165.80 118.79 166.29 119.65 166.05 C 120.51 165.80 121.01 164.90 120.76 164.04 Z M 120.50 163.11 L 120.25 162.14 C 120.03 161.27 119.14 160.75 118.28 160.97 C 117.41 161.19 116.88 162.07 117.10 162.94 L 117.35 163.91 C 117.57 164.78 118.46 165.31 119.32 165.09 C 120.19 164.86 120.72 163.98 120.50 163.11 Z M 120.26 162.19 L 120.04 161.21 C 119.85 160.34 118.98 159.79 118.11 159.98 C 117.23 160.18 116.68 161.04 116.88 161.92 L 117.09 162.89 C 117.29 163.76 118.15 164.32 119.03 164.12 C 119.90 163.93 120.45 163.06 120.26 162.19 Z M 120.05 161.26 L 119.86 160.28 C 119.69 159.40 118.84 158.83 117.96 159.00 C 117.09 159.17 116.51 160.01 116.68 160.89 L 116.87 161.87 C 117.04 162.75 117.89 163.32 118.77 163.15 C 119.64 162.99 120.22 162.14 120.05 161.26 Z M 119.87 160.32 L 119.70 159.34 C 119.56 158.46 118.73 157.86 117.84 158.00 C 116.96 158.15 116.37 158.98 116.51 159.86 L 116.68 160.85 C 116.82 161.73 117.65 162.33 118.54 162.18 C 119.42 162.04 120.01 161.20 119.87 160.32 Z M 119.71 159.37 L 119.57 158.38 C 119.44 157.50 118.62 156.88 117.74 157.01 C 116.86 157.13 116.24 157.95 116.37 158.83 L 116.51 159.83 C 116.63 160.71 117.45 161.33 118.33 161.20 C 119.22 161.08 119.83 160.26 119.71 159.37 Z M 119.57 158.41 L 119.45 157.44 C 119.35 156.56 118.54 155.93 117.66 156.03 C 116.77 156.14 116.14 156.95 116.25 157.83 L 116.37 158.80 C 116.47 159.69 117.28 160.32 118.16 160.21 C 119.05 160.10 119.68 159.30 119.57 158.41 Z M 119.46 157.47 L 119.36 156.49 C 119.26 155.60 118.47 154.96 117.59 155.05 C 116.70 155.14 116.06 155.93 116.15 156.82 L 116.25 157.80 C 116.34 158.69 117.13 159.33 118.01 159.24 C 118.90 159.15 119.55 158.36 119.46 157.47 Z M 119.36 156.52 L 119.27 155.52 C 119.20 154.63 118.42 153.97 117.53 154.05 C 116.64 154.12 115.99 154.90 116.06 155.79 L 116.15 156.79 C 116.22 157.68 117.00 158.33 117.89 158.26 C 118.77 158.18 119.43 157.40 119.36 156.52 Z M 119.27 155.54 L 119.20 154.53 C 119.14 153.64 118.37 152.97 117.48 153.03 C 116.60 153.10 115.93 153.87 115.99 154.75 L 116.06 155.77 C 116.12 156.65 116.89 157.32 117.78 157.26 C 118.66 157.20 119.33 156.43 119.27 155.54 Z M 119.20 154.55 L 119.15 153.55 C 119.10 152.66 118.34 151.98 117.45 152.03 C 116.56 152.08 115.88 152.84 115.93 153.73 L 115.99 154.73 C 116.04 155.62 116.80 156.30 117.69 156.25 C 118.57 156.20 119.25 155.44 119.20 154.55 Z M 119.15 153.57 L 119.10 152.59 C 119.06 151.70 118.31 151.01 117.42 151.05 C 116.54 151.09 115.85 151.84 115.89 152.73 L 115.93 153.71 C 115.97 154.60 116.72 155.28 117.61 155.24 C 118.50 155.20 119.19 154.45 119.15 153.57 Z M 119.10 152.60 L 119.07 151.61 C 119.04 150.72 118.29 150.03 117.41 150.06 C 116.52 150.09 115.82 150.84 115.85 151.72 L 115.89 152.72 C 115.92 153.60 116.66 154.30 117.55 154.27 C 118.44 154.24 119.13 153.49 119.10 152.60 Z M 119.07 151.62 L 119.04 150.62 C 119.02 149.73 118.28 149.03 117.39 149.05 C 116.50 149.08 115.80 149.82 115.83 150.70 L 115.85 151.71 C 115.88 152.60 116.62 153.30 117.50 153.27 C 118.39 153.25 119.09 152.51 119.07 151.62 Z M 119.04 150.63 L 119.02 149.61 C 119.00 148.72 118.27 148.02 117.38 148.04 C 116.50 148.05 115.79 148.79 115.81 149.67 L 115.83 150.69 C 115.85 151.58 116.58 152.28 117.47 152.27 C 118.35 152.25 119.06 151.52 119.04 150.63 Z M 119.02 149.62 L 119.01 148.61 C 119.00 147.72 118.27 147.01 117.38 147.03 C 116.49 147.04 115.78 147.77 115.80 148.65 L 115.81 149.66 C 115.82 150.55 116.55 151.26 117.44 151.25 C 118.32 151.24 119.03 150.51 119.02 149.62 Z M 119.01 148.62 L 119.00 147.62 C 118.99 146.74 118.27 146.02 117.38 146.03 C 116.50 146.04 115.78 146.76 115.79 147.65 L 115.80 148.64 C 115.80 149.53 116.53 150.24 117.41 150.24 C 118.30 150.23 119.01 149.51 119.01 148.62 Z M 119.00 147.64 L 119.00 146.64 C 119.00 145.75 118.28 145.03 117.39 145.03 C 116.51 145.03 115.79 145.75 115.79 146.64 L 115.79 147.64 C 115.79 148.52 116.51 149.24 117.39 149.24 C 118.28 149.24 119.00 148.52 119.00 147.64 Z M 119.00 146.65 L 119.01 145.65 C 119.02 144.76 118.31 144.03 117.42 144.03 C 116.53 144.02 115.81 144.73 115.80 145.62 L 115.79 146.62 C 115.78 147.51 116.49 148.23 117.38 148.24 C 118.27 148.25 118.99 147.54 119.00 146.65 Z M 119.01 145.67 L 119.03 144.66 C 119.05 143.78 118.34 143.04 117.46 143.02 C 116.57 143.00 115.84 143.71 115.82 144.60 L 115.80 145.60 C 115.78 146.49 116.48 147.22 117.37 147.24 C 118.26 147.26 118.99 146.55 119.01 145.67 Z M 119.03 144.68 L 119.06 143.69 C 119.09 142.80 118.40 142.06 117.51 142.03 C 116.63 142.00 115.88 142.69 115.85 143.58 L 115.82 144.58 C 115.79 145.46 116.48 146.20 117.37 146.23 C 118.26 146.26 119.00 145.57 119.03 144.68 Z M 119.06 143.71 L 119.11 142.73 C 119.15 141.84 118.47 141.09 117.59 141.05 C 116.70 141.00 115.95 141.69 115.90 142.57 L 115.85 143.55 C 115.81 144.44 116.49 145.19 117.38 145.24 C 118.26 145.28 119.02 144.60 119.06 143.71 Z M 119.11 142.76 L 119.18 141.78 C 119.24 140.90 118.57 140.13 117.69 140.07 C 116.80 140.01 116.03 140.67 115.97 141.56 L 115.90 142.54 C 115.84 143.42 116.51 144.19 117.39 144.25 C 118.28 144.32 119.05 143.65 119.11 142.76 Z M 119.17 141.82 L 119.27 140.83 C 119.35 139.95 118.70 139.17 117.82 139.08 C 116.94 139.00 116.15 139.65 116.07 140.53 L 115.98 141.52 C 115.89 142.40 116.54 143.18 117.42 143.27 C 118.31 143.35 119.09 142.71 119.17 141.82 Z M 119.26 140.88 L 119.39 139.88 C 119.50 139.00 118.87 138.20 117.99 138.09 C 117.11 137.98 116.31 138.60 116.20 139.48 L 116.08 140.48 C 115.97 141.36 116.59 142.16 117.47 142.27 C 118.35 142.38 119.15 141.76 119.26 140.88 Z M 119.38 139.93 L 119.54 138.91 C 119.68 138.04 119.08 137.22 118.21 137.08 C 117.33 136.94 116.51 137.54 116.37 138.41 L 116.21 139.43 C 116.07 140.31 116.67 141.13 117.54 141.27 C 118.42 141.41 119.24 140.81 119.38 139.93 Z M 119.53 138.97 L 119.72 137.98 C 119.89 137.11 119.32 136.27 118.45 136.10 C 117.58 135.93 116.74 136.50 116.57 137.37 L 116.38 138.36 C 116.21 139.23 116.78 140.07 117.65 140.24 C 118.52 140.41 119.36 139.84 119.53 138.97 Z M 119.71 138.03 L 119.93 137.04 C 120.13 136.18 119.59 135.32 118.72 135.12 C 117.86 134.93 117.00 135.47 116.80 136.34 L 116.58 137.32 C 116.38 138.19 116.93 139.05 117.79 139.24 C 118.66 139.44 119.52 138.90 119.71 138.03 Z M 119.92 137.09 L 120.18 136.10 C 120.40 135.24 119.88 134.37 119.02 134.15 C 118.16 133.93 117.29 134.44 117.07 135.30 L 116.81 136.29 C 116.59 137.15 117.11 138.02 117.97 138.24 C 118.83 138.46 119.70 137.95 119.92 137.09 Z M 120.16 136.15 L 120.44 135.18 C 120.69 134.33 120.20 133.44 119.35 133.19 C 118.50 132.94 117.61 133.44 117.36 134.29 L 117.08 135.26 C 116.83 136.11 117.32 137.00 118.18 137.25 C 119.03 137.49 119.92 137.00 120.16 136.15 Z M 120.43 135.23 L 120.73 134.28 C 121.01 133.44 120.54 132.53 119.70 132.26 C 118.85 131.99 117.95 132.45 117.68 133.30 L 117.37 134.24 C 117.10 135.09 117.57 135.99 118.41 136.26 C 119.25 136.53 120.16 136.07 120.43 135.23 Z M 120.72 134.33 L 121.05 133.40 C 121.35 132.57 120.91 131.65 120.08 131.35 C 119.25 131.05 118.33 131.48 118.03 132.32 L 117.69 133.25 C 117.40 134.08 117.83 135.00 118.66 135.30 C 119.50 135.60 120.42 135.17 120.72 134.33 Z M 121.03 133.46 L 121.42 132.48 C 121.75 131.66 121.35 130.72 120.53 130.39 C 119.71 130.06 118.77 130.46 118.44 131.28 L 118.05 132.26 C 117.72 133.08 118.12 134.02 118.94 134.35 C 119.76 134.68 120.70 134.28 121.03 133.46 Z M 121.40 132.54 L 121.81 131.61 C 122.17 130.80 121.81 129.85 121.00 129.49 C 120.19 129.13 119.24 129.49 118.88 130.30 L 118.47 131.23 C 118.10 132.03 118.47 132.98 119.27 133.35 C 120.08 133.71 121.03 133.35 121.40 132.54 Z M 121.78 131.67 L 122.22 130.79 C 122.61 129.99 122.29 129.03 121.49 128.64 C 120.70 128.24 119.74 128.57 119.34 129.36 L 118.91 130.24 C 118.51 131.04 118.84 132.00 119.63 132.40 C 120.43 132.79 121.39 132.46 121.78 131.67 Z M 122.19 130.84 L 122.65 129.99 C 123.07 129.21 122.78 128.24 122.00 127.81 C 121.22 127.39 120.25 127.68 119.83 128.46 L 119.37 129.31 C 118.95 130.09 119.24 131.07 120.02 131.49 C 120.80 131.91 121.77 131.62 122.19 130.84 Z M 122.63 130.04 L 123.11 129.20 C 123.56 128.43 123.30 127.45 122.53 127.00 C 121.77 126.56 120.78 126.82 120.34 127.58 L 119.85 128.42 C 119.40 129.19 119.66 130.17 120.43 130.62 C 121.20 131.06 122.18 130.80 122.63 130.04 Z M 123.09 129.24 L 123.62 128.40 C 124.09 127.64 123.86 126.65 123.10 126.18 C 122.35 125.71 121.36 125.94 120.89 126.70 L 120.36 127.54 C 119.89 128.29 120.12 129.28 120.88 129.75 C 121.63 130.22 122.62 129.99 123.09 129.24 Z M 123.59 128.44 L 124.14 127.61 C 124.64 126.88 124.44 125.88 123.70 125.38 C 122.97 124.89 121.97 125.09 121.47 125.82 L 120.92 126.65 C 120.42 127.39 120.62 128.39 121.36 128.88 C 122.10 129.37 123.09 129.18 123.59 128.44 Z M 124.11 127.66 L 124.70 126.85 C 125.22 126.13 125.06 125.13 124.34 124.61 C 123.62 124.09 122.61 124.25 122.09 124.97 L 121.51 125.78 C 120.99 126.50 121.15 127.50 121.87 128.02 C 122.59 128.54 123.59 128.38 124.11 127.66 Z M 124.66 126.90 L 125.28 126.11 C 125.83 125.41 125.70 124.40 125.00 123.85 C 124.30 123.30 123.29 123.43 122.74 124.13 L 122.13 124.92 C 121.58 125.62 121.71 126.63 122.41 127.18 C 123.11 127.72 124.12 127.60 124.66 126.90 Z M 125.24 126.15 L 125.89 125.39 C 126.46 124.71 126.37 123.70 125.69 123.12 C 125.01 122.55 124.00 122.64 123.43 123.32 L 122.78 124.08 C 122.21 124.76 122.30 125.77 122.98 126.35 C 123.65 126.92 124.67 126.83 125.24 126.15 Z M 125.85 125.43 L 126.52 124.69 C 127.12 124.04 127.07 123.02 126.41 122.42 C 125.75 121.82 124.73 121.87 124.13 122.53 L 123.46 123.27 C 122.87 123.93 122.92 124.95 123.57 125.55 C 124.23 126.14 125.25 126.09 125.85 125.43 Z M 126.48 124.73 L 127.18 124.01 C 127.80 123.37 127.78 122.35 127.14 121.74 C 126.50 121.12 125.48 121.13 124.87 121.77 L 124.17 122.49 C 123.55 123.13 123.57 124.15 124.21 124.77 C 124.84 125.39 125.86 125.37 126.48 124.73 Z M 127.15 124.05 L 127.87 123.35 C 128.50 122.73 128.52 121.71 127.90 121.07 C 127.28 120.43 126.26 120.42 125.62 121.04 L 124.90 121.74 C 124.26 122.36 124.25 123.38 124.87 124.02 C 125.49 124.66 126.51 124.67 127.15 124.05 Z M 127.83 123.38 L 128.57 122.70 C 129.23 122.10 129.27 121.08 128.66 120.42 C 128.06 119.77 127.04 119.73 126.39 120.33 L 125.65 121.01 C 124.99 121.61 124.95 122.63 125.56 123.29 C 126.16 123.94 127.18 123.98 127.83 123.38 Z M 128.54 122.73 L 129.30 122.06 C 129.98 121.48 130.04 120.46 129.46 119.79 C 128.87 119.11 127.85 119.05 127.18 119.63 L 126.42 120.30 C 125.74 120.89 125.68 121.91 126.26 122.58 C 126.85 123.25 127.87 123.32 128.54 122.73 Z M 129.27 122.09 L 130.05 121.45 C 130.74 120.88 130.83 119.86 130.26 119.17 C 129.69 118.48 128.67 118.39 127.99 118.96 L 127.21 119.60 C 126.52 120.17 126.43 121.19 127.00 121.88 C 127.57 122.57 128.59 122.66 129.27 122.09 Z M 130.02 121.47 L 130.81 120.86 C 131.51 120.30 131.63 119.29 131.08 118.59 C 130.53 117.88 129.51 117.76 128.81 118.31 L 128.02 118.93 C 127.32 119.48 127.20 120.50 127.75 121.20 C 128.30 121.90 129.32 122.03 130.02 121.47 Z M 130.77 120.88 L 131.57 120.29 C 132.28 119.76 132.43 118.75 131.90 118.03 C 131.37 117.31 130.35 117.16 129.64 117.69 L 128.84 118.28 C 128.12 118.82 127.97 119.83 128.51 120.55 C 129.04 121.27 130.05 121.42 130.77 120.88 Z M 131.53 120.32 L 132.34 119.76 C 133.07 119.24 133.25 118.23 132.73 117.50 C 132.22 116.77 131.21 116.59 130.48 117.10 L 129.67 117.67 C 128.94 118.18 128.76 119.19 129.27 119.92 C 129.79 120.66 130.80 120.83 131.53 120.32 Z M 132.30 119.79 L 133.12 119.24 C 133.87 118.75 134.08 117.75 133.58 117.00 C 133.09 116.25 132.09 116.04 131.34 116.53 L 130.51 117.08 C 129.77 117.57 129.56 118.57 130.05 119.32 C 130.54 120.07 131.55 120.28 132.30 119.79 Z M 133.09 119.27 L 133.92 118.75 C 134.68 118.28 134.92 117.27 134.45 116.51 C 133.97 115.75 132.97 115.52 132.21 115.99 L 131.37 116.51 C 130.61 116.98 130.38 117.98 130.85 118.75 C 131.32 119.51 132.32 119.74 133.09 119.27 Z M 133.89 118.77 L 134.75 118.26 C 135.52 117.81 135.78 116.81 135.32 116.04 C 134.87 115.26 133.87 115.01 133.10 115.46 L 132.24 115.97 C 131.47 116.43 131.21 117.42 131.67 118.19 C 132.12 118.97 133.12 119.22 133.89 118.77 Z M 134.72 118.28 L 135.61 117.78 C 136.39 117.34 136.67 116.34 136.23 115.56 C 135.78 114.78 134.79 114.50 134.01 114.95 L 133.12 115.45 C 132.34 115.89 132.07 116.88 132.51 117.66 C 132.95 118.45 133.94 118.72 134.72 118.28 Z M 135.59 117.79 L 136.48 117.31 C 137.27 116.87 137.56 115.88 137.13 115.10 C 136.70 114.31 135.71 114.02 134.92 114.45 L 134.03 114.93 C 133.24 115.37 132.95 116.36 133.38 117.14 C 133.81 117.93 134.80 118.22 135.59 117.79 Z M 136.46 117.32 L 137.35 116.84 C 138.15 116.42 138.45 115.44 138.03 114.64 C 137.61 113.85 136.62 113.54 135.83 113.96 L 134.94 114.44 C 134.14 114.86 133.84 115.85 134.26 116.64 C 134.68 117.44 135.67 117.74 136.46 117.32 Z M 137.33 116.86 L 138.24 116.40 C 139.04 115.99 139.36 115.00 138.95 114.20 C 138.54 113.40 137.55 113.08 136.75 113.49 L 135.85 113.95 C 135.04 114.36 134.73 115.34 135.14 116.15 C 135.55 116.95 136.53 117.27 137.33 116.86 Z M 138.21 116.41 L 139.12 115.97 C 139.93 115.57 140.26 114.59 139.87 113.78 C 139.47 112.97 138.49 112.64 137.68 113.03 L 136.78 113.47 C 135.97 113.87 135.63 114.85 136.03 115.66 C 136.42 116.47 137.40 116.81 138.21 116.41 Z M 139.08 115.99 L 139.98 115.57 C 140.80 115.20 141.16 114.22 140.78 113.40 C 140.40 112.58 139.43 112.22 138.61 112.60 L 137.72 113.01 C 136.90 113.39 136.54 114.36 136.91 115.18 C 137.29 116.00 138.26 116.36 139.08 115.99 Z M 139.94 115.59 L 140.88 115.19 C 141.71 114.84 142.10 113.88 141.75 113.05 C 141.39 112.21 140.43 111.83 139.60 112.18 L 138.66 112.58 C 137.82 112.93 137.44 113.90 137.79 114.73 C 138.14 115.56 139.10 115.95 139.94 115.59 Z M 140.83 115.22 L 141.78 114.85 C 142.63 114.52 143.05 113.58 142.73 112.73 C 142.40 111.89 141.45 111.46 140.61 111.79 L 139.65 112.16 C 138.81 112.48 138.38 113.43 138.71 114.28 C 139.03 115.12 139.98 115.54 140.83 115.22 Z M 141.73 114.87 L 142.67 114.55 C 143.53 114.25 143.98 113.32 143.69 112.46 C 143.39 111.61 142.46 111.15 141.60 111.44 L 140.66 111.77 C 139.81 112.06 139.35 113.00 139.64 113.85 C 139.94 114.71 140.87 115.17 141.73 114.87 Z M 142.61 114.57 L 143.54 114.29 C 144.41 114.02 144.90 113.10 144.64 112.23 C 144.37 111.37 143.45 110.88 142.58 111.14 L 141.66 111.42 C 140.79 111.69 140.30 112.61 140.56 113.48 C 140.83 114.34 141.75 114.83 142.61 114.57 Z M 143.49 114.30 L 144.43 114.05 C 145.31 113.81 145.83 112.91 145.59 112.03 C 145.36 111.15 144.45 110.63 143.58 110.87 L 142.63 111.12 C 141.76 111.36 141.24 112.26 141.47 113.14 C 141.71 114.02 142.61 114.54 143.49 114.30 Z M 144.39 114.06 L 145.36 113.83 C 146.25 113.62 146.80 112.73 146.59 111.85 C 146.38 110.96 145.49 110.41 144.60 110.62 L 143.62 110.86 C 142.74 111.07 142.19 111.96 142.40 112.84 C 142.61 113.73 143.50 114.27 144.39 114.06 Z M 145.32 113.84 L 146.30 113.64 C 147.20 113.45 147.77 112.57 147.58 111.68 C 147.39 110.79 146.52 110.22 145.62 110.41 L 144.64 110.61 C 143.75 110.80 143.18 111.68 143.37 112.57 C 143.55 113.46 144.43 114.03 145.32 113.84 Z M 146.27 113.65 L 147.25 113.46 C 148.15 113.29 148.74 112.43 148.57 111.53 C 148.40 110.63 147.54 110.04 146.64 110.21 L 145.66 110.40 C 144.76 110.56 144.17 111.43 144.34 112.33 C 144.51 113.22 145.37 113.81 146.27 113.65 Z M 147.22 113.47 L 148.20 113.30 C 149.10 113.15 149.71 112.29 149.56 111.39 C 149.40 110.49 148.55 109.88 147.65 110.04 L 146.67 110.20 C 145.77 110.36 145.16 111.21 145.31 112.11 C 145.46 113.01 146.32 113.62 147.22 113.47 Z M 148.18 113.31 L 149.17 113.16 C 150.08 113.02 150.70 112.17 150.56 111.26 C 150.42 110.36 149.58 109.74 148.67 109.88 L 147.67 110.03 C 146.77 110.17 146.15 111.02 146.28 111.92 C 146.42 112.83 147.27 113.45 148.18 113.31 Z M 149.15 113.16 L 150.14 113.03 C 151.05 112.90 151.68 112.07 151.56 111.16 C 151.44 110.25 150.60 109.61 149.69 109.74 L 148.70 109.87 C 147.79 109.99 147.15 110.83 147.28 111.74 C 147.40 112.65 148.24 113.29 149.15 113.16 Z M 150.11 113.03 L 151.09 112.92 C 152.01 112.81 152.66 111.99 152.55 111.08 C 152.45 110.16 151.62 109.51 150.71 109.62 L 149.72 109.73 C 148.81 109.83 148.16 110.66 148.26 111.57 C 148.37 112.49 149.19 113.14 150.11 113.03 Z M 151.06 112.93 L 152.04 112.83 C 152.96 112.75 153.63 111.94 153.55 111.02 C 153.46 110.11 152.65 109.43 151.73 109.52 L 150.75 109.61 C 149.83 109.69 149.16 110.51 149.24 111.42 C 149.33 112.34 150.14 113.01 151.06 112.93 Z M 152.00 112.84 L 152.99 112.77 C 153.91 112.71 154.60 111.91 154.54 110.99 C 154.47 110.07 153.68 109.38 152.76 109.44 L 151.77 109.51 C 150.85 109.58 150.16 110.37 150.23 111.29 C 150.29 112.21 151.08 112.90 152.00 112.84 Z M 152.95 112.77 L 153.94 112.73 C 154.86 112.68 155.57 111.90 155.53 110.98 C 155.48 110.06 154.70 109.35 153.78 109.39 L 152.79 109.44 C 151.87 109.49 151.16 110.27 151.21 111.19 C 151.25 112.11 152.03 112.82 152.95 112.77 Z M 153.92 112.73 L 154.92 112.70 C 155.84 112.67 156.56 111.90 156.53 110.97 C 156.51 110.05 155.73 109.33 154.81 109.36 L 153.81 109.39 C 152.89 109.42 152.16 110.19 152.19 111.11 C 152.22 112.04 152.99 112.76 153.92 112.73 Z M 154.90 112.70 L 155.92 112.68 C 156.84 112.66 157.57 111.90 157.55 110.97 C 157.53 110.05 156.77 109.32 155.85 109.34 L 154.83 109.36 C 153.91 109.38 153.18 110.14 153.20 111.06 C 153.21 111.98 153.98 112.72 154.90 112.70 Z M 155.90 112.68 L 156.86 112.67 C 157.78 112.66 158.52 111.90 158.51 110.98 C 158.50 110.05 157.74 109.31 156.82 109.32 L 155.86 109.33 C 154.94 109.35 154.20 110.10 154.21 111.03 C 154.22 111.95 154.98 112.69 155.90 112.68 Z M 156.85 112.67 L 157.83 112.67 C 158.75 112.66 159.50 111.91 159.50 110.98 C 159.49 110.06 158.74 109.31 157.81 109.32 L 156.83 109.32 C 155.91 109.32 155.16 110.08 155.16 111.00 C 155.17 111.93 155.92 112.68 156.85 112.67 Z M 157.82 112.67 L 158.82 112.67 C 159.75 112.68 160.51 111.93 160.51 111.00 C 160.51 110.07 159.76 109.32 158.83 109.32 L 157.82 109.31 C 156.90 109.31 156.14 110.06 156.14 110.99 C 156.14 111.92 156.89 112.67 157.82 112.67 Z M 158.81 112.68 L 159.85 112.69 C 160.78 112.69 161.54 111.95 161.55 111.02 C 161.56 110.09 160.81 109.33 159.88 109.32 L 158.84 109.31 C 157.91 109.30 157.15 110.05 157.15 110.98 C 157.14 111.91 157.88 112.67 158.81 112.68 Z M 159.84 112.69 L 160.85 112.71 C 161.78 112.72 162.55 111.98 162.56 111.05 C 162.57 110.11 161.83 109.35 160.90 109.33 L 159.89 109.32 C 158.96 109.30 158.19 110.05 158.18 110.98 C 158.17 111.91 158.91 112.68 159.84 112.69 Z M 160.83 112.71 L 161.83 112.73 C 162.76 112.76 163.54 112.02 163.56 111.09 C 163.59 110.16 162.85 109.38 161.92 109.36 L 160.92 109.33 C 159.99 109.31 159.21 110.04 159.19 110.97 C 159.16 111.91 159.90 112.68 160.83 112.71 Z M 161.79 112.74 L 162.80 112.78 C 163.73 112.83 164.53 112.11 164.57 111.18 C 164.62 110.24 163.90 109.45 162.96 109.40 L 161.95 109.36 C 161.02 109.31 160.23 110.03 160.18 110.97 C 160.14 111.90 160.86 112.69 161.79 112.74 Z M 162.75 112.78 L 163.75 112.86 C 164.68 112.94 165.50 112.24 165.57 111.31 C 165.65 110.37 164.95 109.56 164.02 109.48 L 163.01 109.41 C 162.08 109.33 161.26 110.03 161.19 110.96 C 161.12 111.89 161.81 112.71 162.75 112.78 Z M 163.68 112.86 L 164.67 112.98 C 165.60 113.09 166.45 112.43 166.56 111.50 C 166.67 110.57 166.01 109.72 165.08 109.61 L 164.09 109.49 C 163.16 109.38 162.31 110.04 162.20 110.97 C 162.09 111.90 162.75 112.75 163.68 112.86 Z M 164.58 112.97 L 165.58 113.14 C 166.50 113.30 167.38 112.68 167.54 111.76 C 167.70 110.83 167.09 109.95 166.16 109.79 L 165.17 109.62 C 164.24 109.46 163.36 110.08 163.20 111.00 C 163.04 111.93 163.66 112.81 164.58 112.97 Z M 165.49 113.13 L 166.46 113.35 C 167.38 113.56 168.29 112.99 168.50 112.07 C 168.71 111.15 168.14 110.24 167.22 110.03 L 166.25 109.81 C 165.33 109.60 164.42 110.17 164.21 111.09 C 164.00 112.01 164.57 112.92 165.49 113.13 Z M 166.39 113.34 L 167.35 113.60 C 168.26 113.85 169.20 113.31 169.45 112.40 C 169.70 111.49 169.16 110.55 168.25 110.31 L 167.29 110.04 C 166.38 109.79 165.45 110.33 165.20 111.24 C 164.95 112.15 165.48 113.09 166.39 113.34 Z M 167.29 113.58 L 168.24 113.88 C 169.15 114.16 170.10 113.66 170.38 112.75 C 170.66 111.85 170.16 110.89 169.26 110.61 L 168.31 110.32 C 167.41 110.04 166.45 110.54 166.17 111.44 C 165.89 112.35 166.39 113.30 167.29 113.58 Z M 168.20 113.87 L 169.15 114.19 C 170.05 114.49 171.02 114.01 171.32 113.11 C 171.62 112.22 171.14 111.24 170.24 110.94 L 169.30 110.62 C 168.40 110.32 167.43 110.80 167.13 111.70 C 166.83 112.60 167.31 113.57 168.20 113.87 Z M 169.12 114.18 L 170.06 114.51 C 170.95 114.83 171.93 114.36 172.25 113.47 C 172.57 112.58 172.10 111.60 171.21 111.28 L 170.27 110.95 C 169.38 110.63 168.40 111.10 168.08 111.99 C 167.76 112.88 168.23 113.87 169.12 114.18 Z M 170.03 114.51 L 170.97 114.86 C 171.86 115.19 172.85 114.74 173.18 113.85 C 173.51 112.96 173.06 111.97 172.17 111.64 L 171.23 111.29 C 170.34 110.96 169.35 111.41 169.02 112.30 C 168.69 113.19 169.14 114.18 170.03 114.51 Z M 170.94 114.85 L 171.87 115.22 C 172.76 115.56 173.76 115.13 174.10 114.24 C 174.45 113.36 174.02 112.36 173.13 112.01 L 172.20 111.65 C 171.31 111.30 170.31 111.73 169.97 112.62 C 169.62 113.50 170.06 114.50 170.94 114.85 Z M 171.84 115.21 L 172.77 115.59 C 173.65 115.95 174.66 115.54 175.02 114.66 C 175.39 113.78 174.97 112.77 174.09 112.41 L 173.16 112.02 C 172.28 111.66 171.28 112.08 170.91 112.95 C 170.55 113.83 170.96 114.84 171.84 115.21 Z M 172.74 115.58 L 173.66 115.98 C 174.54 116.37 175.55 115.97 175.94 115.09 C 176.32 114.22 175.92 113.20 175.05 112.82 L 174.12 112.42 C 173.25 112.04 172.23 112.43 171.85 113.31 C 171.47 114.18 171.87 115.20 172.74 115.58 Z M 173.63 115.97 L 174.55 116.40 C 175.41 116.80 176.44 116.42 176.84 115.55 C 177.24 114.69 176.86 113.66 176.00 113.26 L 175.08 112.84 C 174.22 112.43 173.19 112.81 172.79 113.68 C 172.39 114.54 172.76 115.57 173.63 115.97 Z M 174.51 116.38 L 175.41 116.82 C 176.27 117.24 177.30 116.89 177.73 116.03 C 178.15 115.18 177.79 114.14 176.94 113.72 L 176.03 113.28 C 175.18 112.85 174.14 113.21 173.72 114.07 C 173.30 114.92 173.65 115.96 174.51 116.38 Z M 175.37 116.81 L 176.26 117.27 C 177.10 117.71 178.15 117.38 178.59 116.53 C 179.03 115.69 178.71 114.64 177.86 114.20 L 176.97 113.74 C 176.13 113.29 175.08 113.62 174.64 114.47 C 174.20 115.32 174.52 116.36 175.37 116.81 Z M 176.22 117.25 L 177.08 117.73 C 177.92 118.19 178.97 117.89 179.44 117.05 C 179.90 116.22 179.60 115.16 178.76 114.70 L 177.90 114.22 C 177.06 113.75 176.01 114.05 175.54 114.89 C 175.08 115.73 175.38 116.78 176.22 117.25 Z M 177.04 117.70 L 177.91 118.22 C 178.73 118.71 179.80 118.44 180.28 117.61 C 180.77 116.79 180.50 115.72 179.68 115.23 L 178.81 114.72 C 177.98 114.23 176.92 114.50 176.43 115.33 C 175.94 116.15 176.21 117.22 177.04 117.70 Z M 177.86 118.19 L 178.72 118.74 C 179.53 119.25 180.60 119.01 181.11 118.20 C 181.63 117.39 181.39 116.32 180.58 115.80 L 179.72 115.26 C 178.91 114.75 177.84 114.99 177.32 115.80 C 176.81 116.61 177.05 117.68 177.86 118.19 Z M 178.67 118.71 L 179.49 119.27 C 180.29 119.81 181.37 119.61 181.91 118.81 C 182.45 118.02 182.25 116.94 181.45 116.40 L 180.63 115.83 C 179.83 115.29 178.75 115.50 178.21 116.29 C 177.67 117.09 177.87 118.17 178.67 118.71 Z M 179.44 119.24 L 180.24 119.82 C 181.02 120.39 182.10 120.22 182.67 119.45 C 183.24 118.67 183.07 117.58 182.30 117.01 L 181.50 116.43 C 180.73 115.86 179.64 116.03 179.07 116.80 C 178.50 117.58 178.67 118.67 179.44 119.24 Z M 180.19 119.78 L 180.96 120.39 C 181.71 120.99 182.81 120.86 183.41 120.11 C 184.00 119.35 183.88 118.26 183.12 117.66 L 182.35 117.05 C 181.59 116.45 180.50 116.58 179.90 117.34 C 179.30 118.09 179.43 119.19 180.19 119.78 Z M 180.91 120.35 L 181.66 121.00 C 182.40 121.63 183.50 121.54 184.12 120.81 C 184.75 120.07 184.66 118.97 183.93 118.35 L 183.17 117.70 C 182.44 117.07 181.34 117.16 180.71 117.89 C 180.09 118.63 180.17 119.73 180.91 120.35 Z M 181.61 120.96 L 182.35 121.63 C 183.05 122.28 184.16 122.24 184.81 121.53 C 185.47 120.82 185.42 119.71 184.71 119.06 L 183.98 118.39 C 183.27 117.73 182.17 117.78 181.51 118.49 C 180.86 119.20 180.91 120.30 181.61 120.96 Z M 182.30 121.59 L 183.01 122.29 C 183.70 122.97 184.80 122.96 185.48 122.28 C 186.16 121.59 186.15 120.48 185.47 119.80 L 184.76 119.10 C 184.07 118.42 182.96 118.43 182.28 119.12 C 181.61 119.80 181.61 120.91 182.30 121.59 Z M 182.97 122.25 L 183.66 122.98 C 184.33 123.69 185.44 123.71 186.14 123.05 C 186.84 122.38 186.87 121.28 186.20 120.58 L 185.51 119.84 C 184.84 119.14 183.73 119.11 183.03 119.78 C 182.33 120.44 182.30 121.55 182.97 122.25 Z M 183.63 122.95 L 184.30 123.70 C 184.95 124.42 186.06 124.49 186.78 123.84 C 187.50 123.20 187.56 122.09 186.92 121.37 L 186.24 120.61 C 185.60 119.89 184.49 119.83 183.77 120.47 C 183.05 121.12 182.98 122.23 183.63 122.95 Z M 184.26 123.66 L 184.92 124.44 C 185.54 125.18 186.64 125.28 187.39 124.66 C 188.13 124.04 188.23 122.94 187.61 122.19 L 186.95 121.41 C 186.33 120.67 185.23 120.57 184.48 121.19 C 183.74 121.81 183.64 122.92 184.26 123.66 Z M 184.87 124.39 L 185.49 125.19 C 186.08 125.95 187.18 126.10 187.95 125.50 C 188.72 124.91 188.86 123.81 188.27 123.04 L 187.65 122.25 C 187.06 121.48 185.96 121.34 185.19 121.93 C 184.42 122.52 184.28 123.62 184.87 124.39 Z M 185.44 125.12 L 186.00 125.92 C 186.56 126.72 187.65 126.91 188.45 126.36 C 189.24 125.80 189.43 124.71 188.88 123.91 L 188.32 123.11 C 187.76 122.31 186.67 122.12 185.87 122.67 C 185.08 123.23 184.88 124.33 185.44 125.12 Z M 185.94 125.84 L 186.47 126.70 C 186.98 127.53 188.06 127.79 188.89 127.28 C 189.71 126.78 189.98 125.70 189.47 124.87 L 188.94 124.00 C 188.43 123.17 187.35 122.91 186.52 123.42 C 185.69 123.93 185.43 125.01 185.94 125.84 Z M 186.41 126.59 L 186.88 127.50 C 187.33 128.36 188.39 128.70 189.25 128.25 C 190.11 127.80 190.45 126.74 190.00 125.88 L 189.53 124.97 C 189.08 124.11 188.02 123.78 187.16 124.22 C 186.30 124.67 185.96 125.73 186.41 126.59 Z M 186.83 127.39 L 187.22 128.30 C 187.61 129.19 188.64 129.60 189.54 129.21 C 190.43 128.82 190.83 127.78 190.45 126.89 L 190.05 125.99 C 189.66 125.10 188.63 124.69 187.74 125.08 C 186.85 125.47 186.44 126.50 186.83 127.39 Z M 187.18 128.20 L 187.51 129.11 C 187.84 130.02 188.86 130.49 189.77 130.16 C 190.68 129.82 191.15 128.81 190.82 127.90 L 190.49 126.99 C 190.15 126.08 189.14 125.61 188.23 125.94 C 187.32 126.28 186.85 127.29 187.18 128.20 Z M 187.48 129.02 L 187.77 129.96 C 188.06 130.89 189.04 131.41 189.97 131.13 C 190.90 130.84 191.42 129.86 191.14 128.93 L 190.85 127.99 C 190.56 127.06 189.58 126.54 188.65 126.82 C 187.72 127.11 187.20 128.09 187.48 129.02 Z M 187.75 129.88 L 187.99 130.84 C 188.23 131.78 189.19 132.35 190.13 132.11 C 191.08 131.87 191.65 130.91 191.41 129.97 L 191.16 129.01 C 190.92 128.07 189.96 127.50 189.02 127.74 C 188.08 127.98 187.51 128.94 187.75 129.88 Z M 187.97 130.76 L 188.18 131.74 C 188.37 132.69 189.30 133.31 190.26 133.11 C 191.21 132.91 191.82 131.98 191.63 131.03 L 191.42 130.05 C 191.23 129.10 190.30 128.48 189.34 128.68 C 188.39 128.87 187.78 129.81 187.97 130.76 Z M 188.16 131.66 L 188.32 132.66 C 188.48 133.62 189.38 134.28 190.34 134.12 C 191.30 133.97 191.96 133.07 191.80 132.11 L 191.64 131.10 C 191.49 130.14 190.58 129.49 189.62 129.64 C 188.66 129.80 188.01 130.70 188.16 131.66 Z M 188.31 132.60 L 188.43 133.57 C 188.55 134.53 189.42 135.22 190.39 135.10 C 191.35 134.99 192.04 134.11 191.93 133.14 L 191.81 132.17 C 191.69 131.21 190.82 130.52 189.85 130.64 C 188.88 130.75 188.20 131.63 188.31 132.60 Z M 188.43 133.51 L 188.51 134.50 C 188.60 135.47 189.45 136.18 190.42 136.10 C 191.39 136.01 192.10 135.16 192.02 134.19 L 191.93 133.20 C 191.85 132.23 190.99 131.52 190.02 131.60 C 189.06 131.69 188.34 132.54 188.43 133.51 Z M 188.51 134.45 L 188.57 135.46 C 188.63 136.43 189.47 137.17 190.44 137.11 C 191.40 137.05 192.14 136.21 192.08 135.25 L 192.02 134.24 C 191.96 133.27 191.13 132.53 190.16 132.59 C 189.19 132.65 188.45 133.48 188.51 134.45 Z M 188.57 135.42 L 188.61 136.44 C 188.65 137.41 189.47 138.16 190.44 138.12 C 191.41 138.09 192.16 137.27 192.12 136.30 L 192.08 135.28 C 192.04 134.31 191.23 133.56 190.26 133.60 C 189.29 133.64 188.53 134.46 188.57 135.42 Z M 188.61 136.41 L 188.64 137.39 C 188.66 138.36 189.46 139.13 190.43 139.11 C 191.40 139.08 192.17 138.28 192.15 137.31 L 192.12 136.33 C 192.10 135.36 191.30 134.59 190.33 134.62 C 189.36 134.64 188.59 135.44 188.61 136.41 Z M 188.64 137.37 L 188.65 138.36 C 188.66 139.33 189.45 140.11 190.42 140.10 C 191.39 140.09 192.16 139.30 192.15 138.33 L 192.14 137.34 C 192.13 136.37 191.34 135.59 190.37 135.60 C 189.41 135.61 188.63 136.40 188.64 137.37 Z M 188.65 138.34 L 188.65 139.35 C 188.65 140.32 189.43 141.10 190.40 141.10 C 191.36 141.10 192.15 140.32 192.15 139.36 L 192.15 138.35 C 192.15 137.38 191.37 136.60 190.40 136.60 C 189.44 136.59 188.65 137.38 188.65 138.34 Z M 188.65 139.33 L 188.64 140.35 C 188.63 141.32 189.40 142.11 190.37 142.12 C 191.33 142.13 192.12 141.36 192.14 140.39 L 192.15 139.37 C 192.16 138.41 191.38 137.62 190.42 137.60 C 189.45 137.59 188.66 138.37 188.65 139.33 Z M 188.64 140.34 L 188.62 141.29 C 188.61 142.26 189.37 143.05 190.33 143.07 C 191.30 143.09 192.09 142.33 192.11 141.36 L 192.13 140.41 C 192.15 139.44 191.39 138.65 190.42 138.63 C 189.46 138.61 188.66 139.37 188.64 140.34 Z M 188.63 141.26 L 188.60 142.24 C 188.56 143.20 189.31 144.00 190.27 144.04 C 191.23 144.07 192.03 143.33 192.07 142.37 L 192.10 141.39 C 192.14 140.43 191.39 139.63 190.43 139.59 C 189.47 139.56 188.67 140.30 188.63 141.26 Z M 188.60 142.19 L 188.54 143.19 C 188.48 144.15 189.20 144.97 190.16 145.03 C 191.11 145.09 191.94 144.36 192.00 143.41 L 192.06 142.41 C 192.12 141.46 191.40 140.63 190.44 140.57 C 189.49 140.51 188.67 141.24 188.60 142.19 Z M 188.55 143.13 L 188.45 144.16 C 188.36 145.11 189.05 145.95 190.00 146.05 C 190.95 146.14 191.79 145.45 191.88 144.50 L 191.98 143.47 C 192.08 142.52 191.38 141.68 190.44 141.58 C 189.49 141.49 188.65 142.18 188.55 143.13 Z M 188.47 144.10 L 188.33 145.10 C 188.20 146.04 188.85 146.90 189.79 147.03 C 190.73 147.16 191.60 146.51 191.73 145.57 L 191.87 144.57 C 192.00 143.63 191.34 142.76 190.40 142.63 C 189.46 142.50 188.60 143.16 188.47 144.10 Z M 188.34 145.03 L 188.17 146.00 C 188.01 146.93 188.63 147.82 189.56 147.98 C 190.49 148.15 191.38 147.52 191.54 146.59 L 191.71 145.63 C 191.88 144.70 191.26 143.81 190.33 143.65 C 189.40 143.48 188.51 144.10 188.34 145.03 Z M 188.19 145.94 L 187.98 146.92 C 187.79 147.85 188.38 148.75 189.30 148.94 C 190.22 149.14 191.13 148.55 191.32 147.63 L 191.53 146.65 C 191.72 145.73 191.13 144.82 190.21 144.63 C 189.29 144.43 188.39 145.02 188.19 145.94 Z M 188.00 146.87 L 187.76 147.86 C 187.54 148.77 188.10 149.69 189.01 149.91 C 189.92 150.13 190.84 149.58 191.06 148.66 L 191.30 147.68 C 191.52 146.77 190.97 145.85 190.05 145.63 C 189.14 145.41 188.23 145.96 188.00 146.87 Z M 187.78 147.81 L 187.51 148.79 C 187.26 149.69 187.79 150.62 188.69 150.87 C 189.59 151.12 190.52 150.59 190.77 149.69 L 191.04 148.71 C 191.29 147.81 190.76 146.88 189.86 146.63 C 188.96 146.38 188.03 146.91 187.78 147.81 Z M 187.53 148.75 L 187.24 149.71 C 186.96 150.60 187.46 151.54 188.35 151.82 C 189.24 152.09 190.18 151.59 190.45 150.70 L 190.75 149.74 C 191.02 148.85 190.53 147.91 189.64 147.64 C 188.75 147.36 187.81 147.86 187.53 148.75 Z M 187.26 149.67 L 186.94 150.61 C 186.64 151.49 187.11 152.44 187.98 152.74 C 188.86 153.03 189.81 152.57 190.10 151.69 L 190.43 150.75 C 190.73 149.87 190.26 148.92 189.38 148.62 C 188.51 148.33 187.56 148.79 187.26 149.67 Z M 186.96 150.57 L 186.62 151.50 C 186.29 152.36 186.73 153.32 187.59 153.64 C 188.45 153.96 189.41 153.53 189.73 152.67 L 190.08 151.73 C 190.40 150.87 189.96 149.92 189.10 149.60 C 188.24 149.27 187.29 149.71 186.96 150.57 Z M 186.64 151.46 L 186.27 152.39 C 185.93 153.23 186.33 154.20 187.18 154.54 C 188.03 154.88 188.99 154.47 189.33 153.63 L 189.70 152.70 C 190.05 151.86 189.64 150.89 188.79 150.55 C 187.95 150.21 186.98 150.62 186.64 151.46 Z M 186.29 152.35 L 185.90 153.27 C 185.53 154.10 185.92 155.07 186.75 155.43 C 187.58 155.79 188.55 155.41 188.91 154.58 L 189.31 153.66 C 189.67 152.83 189.28 151.86 188.45 151.50 C 187.62 151.14 186.66 151.52 186.29 152.35 Z M 185.92 153.24 L 185.50 154.15 C 185.13 154.97 185.48 155.94 186.30 156.31 C 187.12 156.69 188.09 156.33 188.46 155.51 L 188.88 154.61 C 189.26 153.79 188.90 152.82 188.08 152.45 C 187.26 152.07 186.30 152.43 185.92 153.24 Z M 185.53 154.13 L 185.10 155.00 C 184.71 155.81 185.05 156.78 185.86 157.17 C 186.66 157.56 187.63 157.22 188.02 156.41 L 188.44 155.54 C 188.83 154.73 188.49 153.76 187.69 153.37 C 186.88 152.98 185.92 153.32 185.53 154.13 Z M 185.12 154.99 L 184.68 155.87 C 184.28 156.66 184.60 157.63 185.39 158.03 C 186.19 158.43 187.15 158.11 187.55 157.31 L 188.00 156.43 C 188.40 155.64 188.08 154.67 187.28 154.27 C 186.49 153.87 185.52 154.19 185.12 154.99 Z M 184.70 155.86 L 184.24 156.75 C 183.83 157.53 184.14 158.50 184.92 158.90 C 185.70 159.31 186.67 159.00 187.07 158.22 L 187.53 157.33 C 187.94 156.54 187.63 155.58 186.85 155.17 C 186.07 154.77 185.10 155.08 184.70 155.86 Z M 184.25 156.74 L 183.78 157.64 C 183.37 158.41 183.66 159.37 184.44 159.78 C 185.21 160.19 186.17 159.90 186.58 159.12 L 187.06 158.23 C 187.47 157.45 187.17 156.49 186.40 156.08 C 185.62 155.67 184.66 155.97 184.25 156.74 Z M 183.79 157.63 L 183.31 158.54 C 182.89 159.31 183.18 160.26 183.95 160.67 C 184.71 161.09 185.67 160.80 186.08 160.03 L 186.57 159.13 C 186.98 158.36 186.69 157.40 185.93 156.99 C 185.16 156.58 184.20 156.87 183.79 157.63 Z M 183.32 158.54 L 182.85 159.40 C 182.44 160.16 182.72 161.11 183.48 161.52 C 184.24 161.94 185.19 161.66 185.60 160.90 L 186.07 160.03 C 186.48 159.27 186.20 158.32 185.44 157.91 C 184.68 157.50 183.73 157.78 183.32 158.54 Z M 182.86 159.40 L 182.39 160.27 C 181.98 161.02 182.25 161.97 183.00 162.38 C 183.76 162.79 184.70 162.52 185.11 161.76 L 185.59 160.90 C 186.00 160.14 185.72 159.20 184.97 158.79 C 184.22 158.38 183.27 158.65 182.86 159.40 Z M 182.40 160.27 L 181.92 161.14 C 181.50 161.89 181.77 162.83 182.52 163.24 C 183.26 163.65 184.20 163.38 184.61 162.64 L 185.10 161.76 C 185.51 161.02 185.24 160.08 184.50 159.67 C 183.75 159.26 182.81 159.53 182.40 160.27 Z M 181.93 161.14 L 181.44 162.02 C 181.03 162.76 181.29 163.69 182.03 164.10 C 182.76 164.52 183.69 164.25 184.11 163.52 L 184.60 162.64 C 185.01 161.90 184.75 160.97 184.01 160.56 C 183.28 160.14 182.34 160.41 181.93 161.14 Z M 181.45 162.02 L 180.95 162.90 C 180.54 163.63 180.79 164.55 181.52 164.97 C 182.25 165.38 183.18 165.13 183.59 164.40 L 184.09 163.52 C 184.51 162.79 184.25 161.86 183.52 161.45 C 182.79 161.03 181.87 161.29 181.45 162.02 Z M 180.97 162.90 L 180.46 163.77 C 180.05 164.49 180.30 165.41 181.02 165.83 C 181.74 166.24 182.66 166.00 183.07 165.28 L 183.58 164.40 C 183.99 163.68 183.75 162.76 183.03 162.34 C 182.31 161.93 181.38 162.18 180.97 162.90 Z M 180.48 163.77 L 179.98 164.62 C 179.56 165.33 179.80 166.25 180.51 166.67 C 181.23 167.09 182.14 166.85 182.56 166.13 L 183.06 165.28 C 183.48 164.57 183.24 163.65 182.53 163.23 C 181.81 162.81 180.90 163.05 180.48 163.77 Z M 179.99 164.61 L 179.48 165.47 C 179.06 166.17 179.29 167.09 180.00 167.51 C 180.70 167.93 181.62 167.70 182.04 166.99 L 182.55 166.14 C 182.97 165.43 182.74 164.52 182.03 164.10 C 181.32 163.68 180.41 163.91 179.99 164.61 Z M 179.49 165.46 L 178.98 166.32 C 178.55 167.02 178.78 167.93 179.47 168.35 C 180.17 168.77 181.08 168.55 181.51 167.85 L 182.03 167.00 C 182.45 166.30 182.23 165.39 181.53 164.96 C 180.83 164.54 179.92 164.76 179.49 165.46 Z M 178.99 166.31 L 178.46 167.16 C 178.04 167.86 178.25 168.76 178.94 169.19 C 179.63 169.62 180.54 169.40 180.97 168.71 L 181.49 167.86 C 181.92 167.17 181.71 166.26 181.02 165.83 C 180.32 165.40 179.42 165.62 178.99 166.31 Z M 178.48 167.16 L 177.94 168.01 C 177.51 168.70 177.71 169.60 178.40 170.03 C 179.08 170.46 179.98 170.26 180.41 169.57 L 180.95 168.72 C 181.38 168.03 181.18 167.13 180.49 166.70 C 179.81 166.27 178.91 166.47 178.48 167.16 Z M 177.95 168.00 L 177.41 168.84 C 176.98 169.52 177.17 170.42 177.85 170.86 C 178.53 171.29 179.43 171.10 179.86 170.42 L 180.40 169.58 C 180.84 168.90 180.64 168.00 179.96 167.57 C 179.29 167.13 178.39 167.33 177.95 168.00 Z M 177.42 168.84 L 176.89 169.66 C 176.45 170.33 176.63 171.23 177.30 171.66 C 177.97 172.10 178.87 171.92 179.31 171.25 L 179.85 170.43 C 180.29 169.76 180.10 168.86 179.43 168.42 C 178.76 167.98 177.86 168.17 177.42 168.84 Z M 176.90 169.65 L 176.35 170.47 C 175.91 171.13 176.09 172.03 176.75 172.48 C 177.42 172.92 178.31 172.74 178.76 172.07 L 179.30 171.25 C 179.75 170.59 179.57 169.69 178.90 169.25 C 178.24 168.80 177.34 168.98 176.90 169.65 Z M 176.36 170.46 L 175.80 171.29 C 175.35 171.95 175.53 172.85 176.19 173.29 C 176.85 173.74 177.75 173.57 178.19 172.91 L 178.75 172.08 C 179.20 171.42 179.02 170.52 178.36 170.08 C 177.70 169.63 176.80 169.80 176.36 170.46 Z M 175.81 171.28 L 175.24 172.11 C 174.79 172.77 174.96 173.67 175.61 174.12 C 176.27 174.57 177.17 174.40 177.62 173.74 L 178.18 172.91 C 178.63 172.25 178.47 171.36 177.81 170.91 C 177.15 170.46 176.26 170.63 175.81 171.28 Z M 175.24 172.11 L 174.67 172.95 C 174.22 173.60 174.38 174.50 175.03 174.95 C 175.69 175.40 176.58 175.24 177.03 174.58 L 177.61 173.74 C 178.06 173.09 177.90 172.20 177.24 171.74 C 176.59 171.29 175.70 171.46 175.24 172.11 Z M 174.67 172.95 L 174.09 173.79 C 173.63 174.44 173.80 175.33 174.45 175.78 C 175.10 176.24 175.99 176.08 176.44 175.43 L 177.03 174.58 C 177.48 173.93 177.32 173.04 176.67 172.59 C 176.02 172.14 175.12 172.30 174.67 172.95 Z M 174.09 173.79 L 173.51 174.62 C 173.06 175.27 173.21 176.16 173.86 176.61 C 174.51 177.06 175.40 176.91 175.86 176.26 L 176.44 175.43 C 176.89 174.78 176.73 173.89 176.08 173.43 C 175.44 172.98 174.54 173.14 174.09 173.79 Z M 173.51 174.61 L 172.93 175.44 C 172.47 176.09 172.62 176.98 173.27 177.44 C 173.91 177.89 174.81 177.74 175.26 177.10 L 175.85 176.26 C 176.31 175.62 176.15 174.73 175.51 174.27 C 174.86 173.81 173.97 173.97 173.51 174.61 Z M 172.93 175.44 L 172.34 176.26 C 171.88 176.90 172.03 177.80 172.67 178.26 C 173.31 178.72 174.20 178.57 174.66 177.93 L 175.26 177.10 C 175.72 176.46 175.57 175.57 174.93 175.11 C 174.29 174.65 173.39 174.79 172.93 175.44 Z M 172.35 176.25 L 171.76 177.06 C 171.29 177.70 171.43 178.59 172.07 179.06 C 172.70 179.53 173.60 179.39 174.06 178.75 L 174.66 177.94 C 175.12 177.30 174.98 176.41 174.35 175.94 C 173.71 175.48 172.82 175.61 172.35 176.25 Z M 171.77 177.05 L 171.17 177.84 C 170.70 178.47 170.83 179.37 171.46 179.84 C 172.09 180.31 172.99 180.18 173.46 179.55 L 174.05 178.76 C 174.52 178.13 174.40 177.24 173.77 176.76 C 173.13 176.29 172.24 176.42 171.77 177.05 Z M 171.19 177.82 L 170.60 178.59 C 170.12 179.21 170.23 180.11 170.86 180.59 C 171.48 181.07 172.38 180.95 172.86 180.33 L 173.45 179.57 C 173.93 178.95 173.81 178.05 173.19 177.57 C 172.57 177.09 171.67 177.20 171.19 177.82 Z M 170.62 178.57 L 169.96 179.38 C 169.47 180.00 169.57 180.90 170.18 181.39 C 170.79 181.88 171.69 181.78 172.19 181.17 L 172.84 180.35 C 173.33 179.74 173.24 178.84 172.62 178.35 C 172.01 177.85 171.11 177.95 170.62 178.57 Z M 169.98 179.36 L 169.32 180.15 C 168.81 180.76 168.90 181.66 169.50 182.16 C 170.11 182.67 171.01 182.58 171.51 181.98 L 172.17 181.19 C 172.67 180.58 172.59 179.68 171.99 179.18 C 171.38 178.68 170.48 178.76 169.98 179.36 Z M 169.33 180.13 L 168.68 180.89 C 168.17 181.49 168.24 182.39 168.83 182.91 C 169.43 183.42 170.33 183.35 170.85 182.75 L 171.50 182.00 C 172.01 181.40 171.95 180.50 171.35 179.98 C 170.75 179.47 169.85 179.54 169.33 180.13 Z M 168.69 180.88 L 168.04 181.61 C 167.52 182.21 167.58 183.11 168.17 183.63 C 168.77 184.15 169.67 184.09 170.19 183.50 L 170.84 182.77 C 171.36 182.17 171.30 181.27 170.71 180.75 C 170.12 180.23 169.21 180.29 168.69 180.88 Z M 168.05 181.60 L 167.41 182.32 C 166.88 182.91 166.93 183.82 167.52 184.34 C 168.11 184.87 169.01 184.82 169.54 184.23 L 170.18 183.51 C 170.71 182.92 170.66 182.02 170.07 181.49 C 169.48 180.96 168.58 181.01 168.05 181.60 Z M 167.41 182.32 L 166.99 182.79 C 166.46 183.38 166.51 184.28 167.09 184.81 C 167.68 185.34 168.59 185.29 169.12 184.70 L 169.54 184.24 C 170.07 183.65 170.02 182.74 169.43 182.21 C 168.84 181.69 167.94 181.73 167.41 182.32 Z"
      fill="black"
      fill-rule="nonzero" /></svg>