<svg xmlns="http://www.w3.org/2000/svg" width="300" height="300" viewBox="0 0 300 300">
<path d="M 118.84 123.84 L 119.63 124.44 C 120.29 124.95 121.25 124.83 121.76 124.16 C 122.27 123.49 122.15 122.54 121.48 122.02 L 120.69 121.42 C 120.03 120.91 119.07 121.03 118.56 121.70 C 118.04 122.37 118.17 123.32 118.84 123.84 Z M 119.63 124.46 L 120.42 125.06 C 121.10 125.57 122.06 125.43 122.57 124.76 C 123.08 124.08 122.95 123.12 122.27 122.61 L 121.48 122.01 C 120.80 121.50 119.84 121.63 119.33 122.31 C 118.82 122.98 118.95 123.95 119.63 124.46 Z M 120.44 125.08 L 121.24 125.67 C 121.93 126.17 122.90 126.02 123.40 125.33 C 123.91 124.65 123.76 123.68 123.07 123.18 L 122.26 122.59 C 121.57 122.08 120.60 122.23 120.10 122.92 C 119.60 123.61 119.75 124.58 120.44 125.08 Z M 121.26 125.70 L 122.09 126.27 C 122.80 126.77 123.77 126.59 124.26 125.89 C 124.75 125.18 124.58 124.21 123.87 123.72 L 123.04 123.15 C 122.34 122.65 121.37 122.83 120.88 123.53 C 120.39 124.24 120.56 125.21 121.26 125.70 Z M 122.13 126.30 L 122.95 126.84 C 123.67 127.31 124.63 127.11 125.10 126.39 C 125.57 125.67 125.37 124.71 124.65 124.24 L 123.83 123.70 C 123.11 123.23 122.15 123.43 121.68 124.15 C 121.21 124.86 121.41 125.83 122.13 126.30 Z M 123.00 126.84 L 123.83 127.35 C 124.55 127.79 125.49 127.57 125.94 126.85 C 126.38 126.13 126.15 125.18 125.43 124.74 L 124.60 124.23 C 123.88 123.79 122.94 124.02 122.50 124.74 C 122.05 125.46 122.28 126.40 123.00 126.84 Z M 123.88 127.35 L 124.74 127.84 C 125.46 128.26 126.38 128.01 126.79 127.29 C 127.21 126.57 126.96 125.66 126.24 125.24 L 125.38 124.75 C 124.66 124.33 123.75 124.58 123.33 125.30 C 122.92 126.02 123.16 126.93 123.88 127.35 Z M 124.79 127.83 L 125.68 128.32 C 126.40 128.71 127.29 128.44 127.68 127.73 C 128.06 127.02 127.80 126.12 127.09 125.74 L 126.19 125.25 C 125.48 124.86 124.59 125.13 124.20 125.84 C 123.81 126.55 124.08 127.45 124.79 127.83 Z M 125.73 128.31 L 126.65 128.78 C 127.36 129.15 128.23 128.87 128.59 128.16 C 128.95 127.45 128.67 126.58 127.97 126.22 L 127.04 125.75 C 126.33 125.38 125.47 125.66 125.10 126.37 C 124.74 127.08 125.02 127.95 125.73 128.31 Z M 126.68 128.78 L 127.55 129.21 C 128.26 129.55 129.11 129.26 129.46 128.55 C 129.81 127.85 129.51 126.99 128.81 126.65 L 127.94 126.22 C 127.23 125.88 126.37 126.17 126.03 126.88 C 125.68 127.58 125.98 128.44 126.68 128.78 Z M 127.57 129.22 L 128.47 129.64 C 129.18 129.97 130.03 129.67 130.36 128.96 C 130.70 128.24 130.39 127.40 129.68 127.06 L 128.79 126.64 C 128.07 126.30 127.23 126.61 126.89 127.32 C 126.56 128.03 126.86 128.88 127.57 129.22 Z M 128.48 129.65 L 129.39 130.06 C 130.11 130.39 130.96 130.08 131.28 129.36 C 131.61 128.65 131.30 127.80 130.58 127.47 L 129.67 127.05 C 128.95 126.73 128.11 127.04 127.78 127.76 C 127.45 128.47 127.77 129.32 128.48 129.65 Z M 129.40 130.07 L 130.33 130.48 C 131.05 130.81 131.89 130.49 132.21 129.77 C 132.54 129.05 132.22 128.21 131.50 127.88 L 130.57 127.47 C 129.85 127.15 129.01 127.47 128.69 128.18 C 128.37 128.90 128.69 129.74 129.40 130.07 Z M 130.33 130.49 L 131.27 130.90 C 131.99 131.22 132.83 130.90 133.15 130.18 C 133.47 129.46 133.14 128.62 132.43 128.30 L 131.49 127.88 C 130.77 127.56 129.93 127.89 129.61 128.60 C 129.29 129.32 129.61 130.17 130.33 130.49 Z M 131.27 130.90 L 131.36 130.94 C 132.08 131.26 132.92 130.94 133.24 130.22 C 133.56 129.50 133.23 128.66 132.52 128.34 L 132.42 128.30 C 131.71 127.98 130.86 128.30 130.54 129.02 C 130.22 129.74 130.55 130.58 131.27 130.90 Z"
      fill="black"
      fill-rule="nonzero" /><path d="M 172.94 114.09 L 173.21 114.94 C 173.46 115.75 174.32 116.20 175.13 115.95 C 175.93 115.70 176.38 114.84 176.13 114.03 L 175.86 113.18 C 175.61 112.37 174.75 111.92 173.95 112.17 C 173.14 112.42 172.69 113.28 172.94 114.09 Z M 173.19 114.90 L 173.45 115.82 C 173.68 116.64 174.53 117.11 175.34 116.88 C 176.16 116.65 176.63 115.81 176.40 114.99 L 176.15 114.07 C 175.92 113.26 175.07 112.78 174.25 113.01 C 173.44 113.24 172.96 114.09 173.19 114.90 Z M 173.43 115.75 L 173.67 116.79 C 173.86 117.62 174.68 118.13 175.51 117.95 C 176.34 117.76 176.85 116.93 176.66 116.10 L 176.43 115.06 C 176.24 114.23 175.41 113.72 174.58 113.91 C 173.76 114.10 173.24 114.92 173.43 115.75 Z M 173.65 116.71 L 173.83 117.71 C 173.97 118.55 174.77 119.10 175.61 118.96 C 176.44 118.81 177.00 118.01 176.86 117.18 L 176.68 116.18 C 176.53 115.34 175.74 114.78 174.90 114.93 C 174.06 115.08 173.50 115.88 173.65 116.71 Z M 173.83 117.65 L 173.95 118.58 C 174.07 119.42 174.84 120.00 175.68 119.89 C 176.52 119.77 177.10 119.00 176.99 118.16 L 176.86 117.23 C 176.74 116.39 175.97 115.81 175.13 115.93 C 174.29 116.04 173.71 116.82 173.83 117.65 Z M 173.96 118.54 L 174.07 119.54 C 174.17 120.37 174.92 120.97 175.75 120.87 C 176.59 120.78 177.19 120.03 177.09 119.19 L 176.98 118.20 C 176.88 117.37 176.13 116.77 175.30 116.86 C 174.46 116.96 173.87 117.71 173.96 118.54 Z M 174.08 119.51 L 174.18 120.54 C 174.26 121.37 174.99 121.98 175.82 121.90 C 176.65 121.83 177.26 121.09 177.18 120.26 L 177.08 119.22 C 177.01 118.39 176.27 117.79 175.44 117.86 C 174.61 117.94 174.00 118.68 174.08 119.51 Z M 174.19 120.52 L 174.27 121.58 C 174.33 122.40 175.05 123.02 175.88 122.96 C 176.70 122.89 177.32 122.17 177.25 121.35 L 177.17 120.29 C 177.11 119.46 176.39 118.85 175.57 118.91 C 174.74 118.97 174.12 119.69 174.19 120.52 Z M 174.28 121.55 L 174.34 122.59 C 174.39 123.41 175.10 124.03 175.92 123.98 C 176.74 123.93 177.36 123.22 177.31 122.40 L 177.24 121.37 C 177.19 120.55 176.49 119.93 175.67 119.98 C 174.85 120.03 174.23 120.73 174.28 121.55 Z M 174.35 122.57 L 174.40 123.57 C 174.44 124.39 175.13 125.02 175.94 124.98 C 176.76 124.94 177.38 124.25 177.35 123.43 L 177.30 122.43 C 177.26 121.61 176.57 120.98 175.75 121.02 C 174.94 121.06 174.31 121.75 174.35 122.57 Z M 174.41 123.55 L 174.44 124.55 C 174.47 125.36 175.15 125.99 175.95 125.97 C 176.76 125.94 177.40 125.26 177.37 124.46 L 177.34 123.45 C 177.31 122.65 176.63 122.01 175.82 122.04 C 175.02 122.07 174.38 122.74 174.41 123.55 Z M 174.45 124.53 L 174.47 125.53 C 174.49 126.33 175.15 126.97 175.95 126.95 C 176.75 126.94 177.39 126.27 177.38 125.47 L 177.36 124.48 C 177.34 123.68 176.68 123.04 175.88 123.05 C 175.08 123.07 174.44 123.73 174.45 124.53 Z M 174.48 125.51 L 174.49 126.50 C 174.49 127.29 175.14 127.93 175.93 127.93 C 176.73 127.93 177.37 127.28 177.37 126.49 L 177.36 125.49 C 177.36 124.70 176.71 124.06 175.92 124.06 C 175.12 124.06 174.48 124.71 174.48 125.51 Z M 174.50 126.48 L 174.49 127.47 C 174.48 128.26 175.11 128.91 175.90 128.92 C 176.69 128.92 177.34 128.29 177.35 127.50 L 177.36 126.51 C 177.37 125.72 176.73 125.07 175.94 125.06 C 175.15 125.05 174.51 125.69 174.50 126.48 Z M 174.49 127.45 L 174.47 128.45 C 174.45 129.24 175.07 129.89 175.86 129.91 C 176.65 129.93 177.30 129.31 177.32 128.52 L 177.34 127.52 C 177.36 126.73 176.74 126.08 175.95 126.06 C 175.17 126.04 174.51 126.66 174.49 127.45 Z M 174.47 128.43 L 174.43 129.43 C 174.41 130.22 175.02 130.88 175.81 130.91 C 176.59 130.94 177.26 130.32 177.28 129.53 L 177.32 128.54 C 177.35 127.75 176.73 127.09 175.94 127.06 C 175.16 127.03 174.50 127.65 174.47 128.43 Z M 174.43 129.42 L 174.39 130.42 C 174.36 131.21 174.97 131.87 175.75 131.91 C 176.54 131.94 177.20 131.33 177.24 130.55 L 177.28 129.55 C 177.32 128.76 176.71 128.09 175.92 128.06 C 175.13 128.03 174.47 128.64 174.43 129.42 Z M 174.39 130.41 L 174.34 131.41 C 174.30 132.20 174.91 132.87 175.70 132.91 C 176.48 132.94 177.15 132.34 177.19 131.55 L 177.24 130.55 C 177.28 129.77 176.67 129.10 175.88 129.06 C 175.10 129.02 174.43 129.63 174.39 130.41 Z M 174.34 131.41 L 174.30 132.21 C 174.26 133.00 174.87 133.67 175.65 133.71 C 176.44 133.75 177.11 133.14 177.15 132.36 L 177.19 131.55 C 177.23 130.77 176.62 130.10 175.84 130.06 C 175.05 130.02 174.38 130.62 174.34 131.41 Z"
      fill="black"
      fill-rule="nonzero" /><path d="M 143.09 162.41 L 142.98 163.42 C 142.88 164.27 143.50 165.04 144.35 165.14 C 145.21 165.23 145.98 164.61 146.08 163.76 L 146.19 162.75 C 146.28 161.90 145.66 161.12 144.81 161.03 C 143.95 160.94 143.18 161.55 143.09 162.41 Z M 142.97 163.42 L 142.86 164.43 C 142.77 165.28 143.39 166.06 144.25 166.15 C 145.11 166.24 145.88 165.62 145.97 164.76 L 146.08 163.75 C 146.17 162.89 145.55 162.12 144.69 162.03 C 143.83 161.94 143.06 162.56 142.97 163.42 Z M 142.85 164.44 L 142.75 165.44 C 142.67 166.30 143.30 167.07 144.16 167.16 C 145.03 167.24 145.80 166.61 145.88 165.75 L 145.98 164.75 C 146.07 163.88 145.44 163.11 144.57 163.03 C 143.71 162.94 142.94 163.57 142.85 164.44 Z M 142.75 165.45 L 142.66 166.45 C 142.58 167.32 143.22 168.08 144.09 168.16 C 144.96 168.24 145.72 167.59 145.80 166.73 L 145.89 165.73 C 145.97 164.86 145.33 164.10 144.46 164.02 C 143.59 163.94 142.82 164.59 142.75 165.45 Z M 142.65 166.47 L 142.58 167.46 C 142.51 168.33 143.17 169.09 144.04 169.15 C 144.91 169.22 145.67 168.56 145.74 167.69 L 145.81 166.70 C 145.87 165.83 145.22 165.07 144.35 165.01 C 143.47 164.94 142.72 165.60 142.65 166.47 Z M 142.57 167.49 L 142.52 168.48 C 142.47 169.35 143.14 170.10 144.02 170.15 C 144.89 170.20 145.64 169.53 145.69 168.65 L 145.74 167.66 C 145.79 166.79 145.12 166.04 144.24 165.99 C 143.37 165.94 142.62 166.61 142.57 167.49 Z M 142.52 168.52 L 142.49 169.61 C 142.46 170.49 143.15 171.22 144.02 171.24 C 144.89 171.27 145.62 170.58 145.65 169.71 L 145.68 168.61 C 145.71 167.74 145.02 167.01 144.15 166.98 C 143.28 166.96 142.55 167.64 142.52 168.52 Z M 142.50 169.66 L 142.50 170.72 C 142.50 171.59 143.20 172.29 144.06 172.29 C 144.93 172.29 145.63 171.59 145.63 170.73 L 145.64 169.67 C 145.64 168.80 144.94 168.10 144.07 168.10 C 143.21 168.09 142.51 168.79 142.50 169.66 Z M 142.52 170.77 L 142.55 171.78 C 142.57 172.64 143.28 173.31 144.14 173.29 C 144.99 173.27 145.67 172.55 145.64 171.70 L 145.62 170.68 C 145.59 169.83 144.88 169.15 144.02 169.18 C 143.17 169.20 142.49 169.91 142.52 170.77 Z M 142.56 171.84 L 142.63 172.79 C 142.68 173.64 143.41 174.28 144.25 174.22 C 145.10 174.17 145.74 173.44 145.69 172.60 L 145.63 171.64 C 145.57 170.80 144.84 170.16 144.00 170.21 C 143.15 170.27 142.51 170.99 142.56 171.84 Z M 142.65 172.86 L 142.74 173.73 C 142.83 174.56 143.58 175.16 144.41 175.07 C 145.25 174.98 145.85 174.23 145.76 173.40 L 145.66 172.53 C 145.57 171.70 144.83 171.09 143.99 171.18 C 143.16 171.27 142.56 172.02 142.65 172.86 Z M 142.77 173.83 L 142.97 174.92 C 143.11 175.73 143.89 176.28 144.70 176.13 C 145.52 175.99 146.06 175.21 145.92 174.39 L 145.73 173.30 C 145.58 172.49 144.80 171.94 143.99 172.09 C 143.17 172.23 142.63 173.01 142.77 173.83 Z M 143.01 175.04 L 143.28 176.01 C 143.49 176.80 144.30 177.27 145.09 177.05 C 145.88 176.84 146.35 176.03 146.14 175.24 L 145.87 174.27 C 145.66 173.48 144.85 173.01 144.06 173.22 C 143.27 173.44 142.80 174.25 143.01 175.04 Z M 143.33 176.12 L 143.65 176.99 C 143.92 177.75 144.76 178.15 145.52 177.87 C 146.28 177.60 146.67 176.76 146.40 176.00 L 146.08 175.13 C 145.81 174.37 144.97 173.97 144.21 174.25 C 143.45 174.52 143.06 175.36 143.33 176.12 Z M 143.69 177.06 L 144.06 177.92 C 144.37 178.66 145.22 179.00 145.95 178.68 C 146.69 178.37 147.03 177.52 146.72 176.79 L 146.35 175.93 C 146.04 175.19 145.19 174.85 144.45 175.16 C 143.72 175.48 143.38 176.33 143.69 177.06 Z M 144.08 177.96 L 144.50 178.85 C 144.84 179.57 145.69 179.88 146.41 179.55 C 147.13 179.21 147.44 178.36 147.11 177.64 L 146.69 176.74 C 146.35 176.03 145.50 175.71 144.78 176.05 C 144.06 176.39 143.75 177.24 144.08 177.96 Z M 144.52 178.89 L 144.97 179.78 C 145.32 180.49 146.18 180.78 146.89 180.43 C 147.60 180.07 147.89 179.21 147.53 178.50 L 147.09 177.61 C 146.73 176.90 145.87 176.61 145.16 176.96 C 144.46 177.32 144.17 178.18 144.52 178.89 Z M 144.99 179.81 L 145.46 180.71 C 145.83 181.41 146.69 181.68 147.39 181.31 C 148.09 180.94 148.36 180.08 147.99 179.38 L 147.52 178.48 C 147.15 177.78 146.29 177.51 145.59 177.88 C 144.89 178.25 144.62 179.11 144.99 179.81 Z M 145.47 180.73 L 145.94 181.59 C 146.32 182.29 147.19 182.54 147.88 182.17 C 148.57 181.79 148.83 180.92 148.45 180.23 L 147.98 179.36 C 147.60 178.67 146.74 178.42 146.04 178.79 C 145.35 179.17 145.10 180.03 145.47 180.73 Z M 145.95 181.61 L 146.44 182.48 C 146.82 183.17 147.69 183.42 148.38 183.03 C 149.06 182.65 149.31 181.78 148.93 181.10 L 148.44 180.22 C 148.06 179.53 147.19 179.28 146.50 179.67 C 145.82 180.05 145.57 180.92 145.95 181.61 Z M 146.44 182.49 L 146.94 183.37 C 147.32 184.05 148.19 184.30 148.88 183.91 C 149.56 183.52 149.81 182.65 149.42 181.97 L 148.93 181.09 C 148.54 180.40 147.67 180.16 146.98 180.55 C 146.30 180.93 146.06 181.80 146.44 182.49 Z M 146.94 183.37 L 147.10 183.65 C 147.49 184.34 148.36 184.58 149.04 184.19 C 149.73 183.81 149.97 182.94 149.58 182.25 L 149.42 181.97 C 149.03 181.28 148.16 181.04 147.48 181.43 C 146.79 181.81 146.55 182.68 146.94 183.37 Z"
      fill="black"
      fill-rule="nonzero" /></svg>