<svg xmlns="http://www.w3.org/2000/svg" width="300" height="300" viewBox="0 0 300 300">
<path d="M 142.62 117.90 L 141.78 117.07 C 141.14 116.43 140.11 116.43 139.47 117.07 C 138.83 117.72 138.83 118.75 139.47 119.39 L 140.31 120.22 C 140.95 120.85 141.98 120.85 142.62 120.21 C 143.26 119.57 143.26 118.53 142.62 117.90 Z M 141.99 117.28 L 141.43 116.48 C 140.91 115.73 139.88 115.55 139.13 116.07 C 138.38 116.59 138.19 117.62 138.71 118.37 L 139.27 119.17 C 139.79 119.92 140.82 120.11 141.57 119.59 C 142.32 119.07 142.51 118.03 141.99 117.28 Z M 141.74 117.41 L 141.73 116.68 C 141.72 115.76 140.96 115.02 140.04 115.03 C 139.12 115.04 138.38 115.80 138.39 116.72 L 138.40 117.45 C 138.42 118.37 139.17 119.11 140.09 119.10 C 141.02 119.09 141.75 118.33 141.74 117.41 Z M 141.29 117.84 L 141.82 117.28 C 142.45 116.60 142.41 115.54 141.74 114.91 C 141.06 114.28 140.00 114.32 139.37 114.99 L 138.84 115.56 C 138.21 116.23 138.24 117.29 138.92 117.92 C 139.60 118.56 140.66 118.52 141.29 117.84 Z M 141.42 117.59 L 142.31 117.08 C 143.11 116.62 143.39 115.60 142.93 114.80 C 142.47 114.00 141.45 113.72 140.65 114.18 L 139.76 114.69 C 138.96 115.14 138.68 116.16 139.14 116.97 C 139.60 117.77 140.62 118.04 141.42 117.59 Z M 142.13 117.16 L 143.20 116.71 C 144.05 116.36 144.45 115.38 144.09 114.53 C 143.74 113.68 142.76 113.28 141.91 113.64 L 140.84 114.09 C 139.99 114.45 139.59 115.42 139.95 116.27 C 140.30 117.12 141.28 117.52 142.13 117.16 Z M 143.12 116.73 L 144.11 116.37 C 144.97 116.06 145.41 115.11 145.10 114.26 C 144.79 113.40 143.84 112.96 142.99 113.27 L 142.00 113.63 C 141.14 113.94 140.70 114.88 141.01 115.74 C 141.32 116.59 142.26 117.04 143.12 116.73 Z M 144.06 116.35 L 145.00 116.04 C 145.84 115.76 146.30 114.85 146.02 114.00 C 145.74 113.15 144.83 112.69 143.98 112.97 L 143.04 113.28 C 142.20 113.56 141.74 114.48 142.02 115.32 C 142.30 116.17 143.21 116.63 144.06 116.35 Z M 144.95 116.01 L 145.90 115.72 C 146.73 115.46 147.19 114.58 146.94 113.75 C 146.68 112.92 145.80 112.46 144.97 112.71 L 144.03 113.00 C 143.20 113.26 142.73 114.14 142.99 114.97 C 143.24 115.80 144.12 116.27 144.95 116.01 Z M 145.87 115.69 L 146.83 115.40 C 147.65 115.16 148.11 114.31 147.87 113.50 C 147.64 112.69 146.78 112.22 145.97 112.46 L 145.00 112.74 C 144.19 112.98 143.73 113.83 143.96 114.65 C 144.20 115.46 145.05 115.92 145.87 115.69 Z M 146.82 115.38 L 147.76 115.11 C 148.56 114.88 149.02 114.04 148.79 113.25 C 148.56 112.45 147.73 111.99 146.93 112.22 L 145.99 112.49 C 145.19 112.72 144.73 113.55 144.96 114.35 C 145.19 115.14 146.02 115.61 146.82 115.38 Z M 147.75 115.09 L 148.71 114.82 C 149.50 114.59 149.96 113.77 149.73 112.98 C 149.51 112.19 148.68 111.73 147.90 111.96 L 146.94 112.23 C 146.15 112.46 145.69 113.28 145.92 114.07 C 146.14 114.86 146.96 115.31 147.75 115.09 Z M 148.71 114.80 L 149.68 114.52 C 150.46 114.30 150.91 113.49 150.69 112.71 C 150.47 111.93 149.65 111.47 148.87 111.70 L 147.90 111.97 C 147.12 112.20 146.67 113.01 146.89 113.79 C 147.11 114.57 147.93 115.02 148.71 114.80 Z M 149.68 114.51 L 150.65 114.23 C 151.42 114.01 151.87 113.20 151.65 112.43 C 151.43 111.66 150.62 111.21 149.85 111.43 L 148.87 111.71 C 148.10 111.93 147.65 112.74 147.88 113.51 C 148.10 114.28 148.90 114.73 149.68 114.51 Z M 150.65 114.22 L 151.64 113.93 C 152.40 113.71 152.84 112.91 152.62 112.14 C 152.40 111.38 151.60 110.93 150.83 111.16 L 149.85 111.44 C 149.08 111.67 148.64 112.47 148.86 113.23 C 149.09 114.00 149.89 114.44 150.65 114.22 Z M 151.65 113.92 L 152.63 113.63 C 153.39 113.40 153.82 112.60 153.59 111.84 C 153.37 111.08 152.56 110.65 151.80 110.87 L 150.82 111.17 C 150.06 111.39 149.63 112.19 149.86 112.96 C 150.08 113.72 150.88 114.15 151.65 113.92 Z M 152.64 113.62 L 153.60 113.32 C 154.36 113.08 154.78 112.28 154.54 111.52 C 154.30 110.77 153.50 110.35 152.74 110.58 L 151.79 110.88 C 151.03 111.12 150.61 111.92 150.85 112.68 C 151.08 113.43 151.89 113.86 152.64 113.62 Z M 153.62 113.31 L 154.55 113.00 C 155.30 112.75 155.70 111.94 155.45 111.19 C 155.20 110.44 154.39 110.04 153.65 110.29 L 152.72 110.60 C 151.97 110.85 151.57 111.66 151.82 112.40 C 152.07 113.15 152.88 113.56 153.62 113.31 Z M 154.59 112.98 L 155.52 112.64 C 156.26 112.38 156.64 111.56 156.37 110.82 C 156.10 110.08 155.29 109.69 154.54 109.96 L 153.61 110.30 C 152.87 110.57 152.49 111.39 152.76 112.13 C 153.03 112.87 153.84 113.25 154.59 112.98 Z M 155.56 112.63 L 156.50 112.26 C 157.23 111.97 157.59 111.14 157.30 110.41 C 157.01 109.67 156.18 109.32 155.45 109.60 L 154.51 109.98 C 153.78 110.27 153.42 111.10 153.71 111.83 C 154.00 112.56 154.82 112.92 155.56 112.63 Z M 156.53 112.24 L 157.44 111.86 C 158.17 111.55 158.51 110.72 158.20 109.99 C 157.90 109.27 157.06 108.93 156.34 109.23 L 155.42 109.62 C 154.70 109.92 154.36 110.76 154.66 111.48 C 154.97 112.21 155.80 112.55 156.53 112.24 Z M 157.46 111.85 L 158.36 111.46 C 159.08 111.14 159.41 110.30 159.09 109.58 C 158.78 108.86 157.94 108.53 157.22 108.85 L 156.32 109.24 C 155.60 109.55 155.27 110.39 155.58 111.11 C 155.90 111.84 156.74 112.17 157.46 111.85 Z M 158.36 111.46 L 158.57 111.36 C 159.29 111.05 159.62 110.21 159.30 109.49 C 158.99 108.77 158.14 108.44 157.42 108.76 L 157.21 108.85 C 156.49 109.17 156.17 110.01 156.48 110.73 C 156.80 111.45 157.64 111.77 158.36 111.46 Z"
      fill="black"
      fill-rule="nonzero" /><path d="M 152.41 103.99 L 151.36 104.10 C 150.49 104.19 149.86 104.96 149.95 105.83 C 150.04 106.70 150.82 107.33 151.69 107.24 L 152.74 107.14 C 153.60 107.05 154.24 106.27 154.15 105.40 C 154.06 104.53 153.28 103.90 152.41 103.99 Z M 151.17 104.11 L 150.20 104.34 C 149.34 104.53 148.80 105.39 149.00 106.25 C 149.19 107.11 150.05 107.64 150.91 107.45 L 151.88 107.23 C 152.74 107.03 153.28 106.17 153.08 105.31 C 152.88 104.46 152.03 103.92 151.17 104.11 Z M 149.77 104.48 L 148.96 104.93 C 148.18 105.36 147.90 106.35 148.33 107.12 C 148.77 107.90 149.75 108.18 150.52 107.75 L 151.34 107.30 C 152.11 106.87 152.39 105.89 151.96 105.11 C 151.53 104.33 150.55 104.05 149.77 104.48 Z M 148.48 105.33 L 147.91 106.03 C 147.35 106.73 147.46 107.75 148.16 108.31 C 148.86 108.87 149.88 108.76 150.44 108.06 L 151.01 107.36 C 151.57 106.66 151.46 105.64 150.76 105.08 C 150.06 104.52 149.04 104.63 148.48 105.33 Z M 147.68 106.41 L 147.29 107.33 C 146.94 108.16 147.33 109.11 148.15 109.46 C 148.98 109.81 149.94 109.43 150.29 108.60 L 150.68 107.68 C 151.03 106.85 150.64 105.90 149.81 105.55 C 148.98 105.20 148.03 105.58 147.68 106.41 Z M 147.20 107.59 L 146.95 108.64 C 146.75 109.51 147.29 110.39 148.17 110.60 C 149.05 110.81 149.93 110.26 150.14 109.38 L 150.38 108.34 C 150.59 107.46 150.04 106.58 149.16 106.37 C 148.28 106.17 147.40 106.71 147.20 107.59 Z M 146.92 108.80 L 146.80 109.74 C 146.69 110.64 147.32 111.46 148.22 111.57 C 149.11 111.69 149.93 111.06 150.05 110.16 L 150.17 109.22 C 150.28 108.32 149.65 107.50 148.75 107.38 C 147.86 107.27 147.04 107.90 146.92 108.80 Z M 146.79 109.85 L 146.73 110.80 C 146.68 111.70 147.36 112.48 148.26 112.53 C 149.16 112.59 149.94 111.90 150.00 111.00 L 150.05 110.05 C 150.11 109.15 149.43 108.38 148.52 108.32 C 147.62 108.26 146.85 108.95 146.79 109.85 Z M 146.74 110.87 L 146.71 111.88 C 146.70 112.78 147.41 113.53 148.31 113.55 C 149.21 113.57 149.95 112.85 149.97 111.95 L 149.99 110.94 C 150.01 110.04 149.30 109.29 148.40 109.27 C 147.50 109.25 146.75 109.97 146.74 110.87 Z M 146.72 111.91 L 146.72 113.00 C 146.71 113.90 147.44 114.63 148.34 114.63 C 149.23 114.64 149.96 113.91 149.97 113.01 L 149.97 111.92 C 149.97 111.02 149.25 110.29 148.35 110.29 C 147.45 110.29 146.72 111.02 146.72 111.91 Z M 146.72 113.01 L 146.72 113.91 C 146.72 114.81 147.45 115.53 148.34 115.53 C 149.24 115.53 149.96 114.80 149.96 113.91 L 149.96 113.01 C 149.96 112.11 149.23 111.39 148.34 111.39 C 147.44 111.39 146.72 112.11 146.72 113.01 Z M 146.73 113.92 L 146.74 114.88 C 146.74 115.77 147.47 116.49 148.36 116.48 C 149.25 116.48 149.97 115.75 149.96 114.86 L 149.95 113.90 C 149.95 113.01 149.22 112.29 148.33 112.30 C 147.44 112.31 146.72 113.03 146.73 113.92 Z M 146.74 114.90 L 146.76 115.91 C 146.78 116.79 147.51 117.50 148.39 117.49 C 149.28 117.47 149.99 116.74 149.97 115.85 L 149.95 114.84 C 149.94 113.96 149.21 113.25 148.32 113.27 C 147.43 113.28 146.73 114.01 146.74 114.90 Z M 146.77 115.93 L 146.80 116.98 C 146.83 117.86 147.57 118.56 148.45 118.53 C 149.33 118.50 150.02 117.76 150.00 116.88 L 149.96 115.83 C 149.93 114.95 149.20 114.26 148.31 114.28 C 147.43 114.31 146.74 115.05 146.77 115.93 Z M 146.81 117.01 L 146.86 118.08 C 146.91 118.96 147.66 119.64 148.53 119.59 C 149.41 119.55 150.08 118.80 150.04 117.92 L 149.99 116.85 C 149.94 115.97 149.20 115.30 148.32 115.34 C 147.44 115.39 146.77 116.13 146.81 117.01 Z M 146.87 118.11 L 146.93 118.96 C 146.99 119.83 147.75 120.49 148.62 120.43 C 149.49 120.37 150.15 119.62 150.09 118.74 L 150.03 117.90 C 149.97 117.02 149.22 116.37 148.34 116.43 C 147.47 116.49 146.81 117.24 146.87 118.11 Z M 146.94 118.98 L 147.02 119.86 C 147.09 120.73 147.85 121.37 148.72 121.30 C 149.58 121.23 150.23 120.47 150.15 119.60 L 150.08 118.72 C 150.01 117.85 149.25 117.21 148.38 117.28 C 147.51 117.36 146.87 118.12 146.94 118.98 Z M 147.03 119.88 L 147.12 120.81 C 147.20 121.67 147.96 122.30 148.83 122.21 C 149.69 122.13 150.32 121.37 150.23 120.50 L 150.14 119.58 C 150.06 118.72 149.30 118.09 148.43 118.17 C 147.57 118.26 146.94 119.02 147.03 119.88 Z M 147.12 120.82 L 147.23 121.81 C 147.32 122.66 148.09 123.28 148.94 123.19 C 149.80 123.10 150.42 122.33 150.33 121.48 L 150.22 120.49 C 150.13 119.64 149.37 119.01 148.51 119.11 C 147.65 119.20 147.03 119.96 147.12 120.82 Z M 147.24 121.82 L 147.36 122.88 C 147.46 123.73 148.22 124.34 149.07 124.24 C 149.92 124.15 150.54 123.38 150.44 122.53 L 150.32 121.47 C 150.22 120.62 149.46 120.00 148.60 120.10 C 147.75 120.20 147.14 120.96 147.24 121.82 Z M 147.37 122.88 L 147.50 124.03 C 147.60 124.88 148.37 125.49 149.22 125.39 C 150.06 125.29 150.67 124.52 150.57 123.67 L 150.43 122.52 C 150.33 121.68 149.57 121.07 148.72 121.17 C 147.87 121.27 147.27 122.04 147.37 122.88 Z M 147.51 124.04 L 147.64 125.14 C 147.74 125.98 148.51 126.58 149.35 126.48 C 150.19 126.38 150.79 125.62 150.69 124.77 L 150.56 123.67 C 150.46 122.83 149.69 122.23 148.85 122.33 C 148.01 122.43 147.41 123.20 147.51 124.04 Z M 147.65 125.14 L 147.77 126.14 C 147.87 126.98 148.63 127.57 149.47 127.47 C 150.31 127.37 150.91 126.61 150.80 125.77 L 150.68 124.77 C 150.58 123.94 149.82 123.34 148.98 123.44 C 148.15 123.54 147.55 124.30 147.65 125.14 Z M 147.78 126.14 L 147.90 127.17 C 148.00 128.01 148.76 128.60 149.60 128.50 C 150.43 128.40 151.02 127.64 150.92 126.81 L 150.80 125.77 C 150.70 124.94 149.94 124.34 149.10 124.44 C 148.27 124.55 147.68 125.30 147.78 126.14 Z M 147.91 127.17 L 148.04 128.23 C 148.14 129.06 148.89 129.65 149.73 129.55 C 150.56 129.44 151.15 128.69 151.05 127.86 L 150.92 126.81 C 150.82 125.98 150.06 125.38 149.23 125.49 C 148.40 125.59 147.81 126.34 147.91 127.17 Z M 148.05 128.23 L 148.17 129.28 C 148.28 130.11 149.03 130.70 149.85 130.59 C 150.68 130.49 151.27 129.74 151.17 128.91 L 151.04 127.86 C 150.94 127.03 150.19 126.44 149.36 126.55 C 148.53 126.65 147.94 127.40 148.05 128.23 Z M 148.18 129.28 L 148.31 130.32 C 148.41 131.14 149.16 131.73 149.98 131.62 C 150.80 131.52 151.39 130.78 151.29 129.95 L 151.16 128.92 C 151.06 128.09 150.31 127.51 149.49 127.61 C 148.67 127.71 148.08 128.46 148.18 129.28 Z M 148.31 130.32 L 148.44 131.32 C 148.54 132.14 149.28 132.72 150.10 132.62 C 150.92 132.52 151.50 131.77 151.40 130.95 L 151.28 129.95 C 151.18 129.13 150.44 128.55 149.62 128.65 C 148.80 128.75 148.21 129.50 148.31 130.32 Z M 148.44 131.32 L 148.56 132.27 C 148.66 133.08 149.40 133.66 150.22 133.56 C 151.03 133.46 151.61 132.72 151.51 131.90 L 151.40 130.96 C 151.30 130.14 150.56 129.56 149.74 129.66 C 148.92 129.76 148.34 130.50 148.44 131.32 Z M 148.57 132.26 L 148.67 133.14 C 148.77 133.95 149.51 134.53 150.32 134.43 C 151.13 134.33 151.71 133.59 151.61 132.78 L 151.51 131.91 C 151.41 131.09 150.67 130.52 149.86 130.61 C 149.04 130.71 148.47 131.45 148.57 132.26 Z M 148.68 133.14 L 148.83 134.38 C 148.93 135.18 149.66 135.76 150.47 135.66 C 151.28 135.56 151.85 134.83 151.76 134.02 L 151.61 132.78 C 151.51 131.98 150.77 131.40 149.97 131.50 C 149.16 131.60 148.58 132.33 148.68 133.14 Z M 148.84 134.37 L 148.98 135.53 C 149.08 136.34 149.80 136.91 150.61 136.81 C 151.41 136.72 151.98 135.99 151.88 135.19 L 151.75 134.02 C 151.65 133.22 150.92 132.65 150.12 132.75 C 149.32 132.84 148.74 133.57 148.84 134.37 Z M 148.99 135.53 L 149.10 136.48 C 149.20 137.28 149.92 137.85 150.71 137.75 C 151.51 137.66 152.08 136.94 151.99 136.14 L 151.87 135.19 C 151.78 134.39 151.06 133.82 150.26 133.92 C 149.47 134.01 148.90 134.73 148.99 135.53 Z M 149.11 136.48 L 149.21 137.29 C 149.30 138.08 150.02 138.65 150.81 138.56 C 151.60 138.46 152.16 137.75 152.07 136.96 L 151.98 136.14 C 151.88 135.35 151.17 134.79 150.38 134.88 C 149.59 134.97 149.02 135.69 149.11 136.48 Z M 149.22 137.29 L 149.30 138.01 C 149.39 138.79 150.10 139.35 150.89 139.26 C 151.67 139.17 152.23 138.46 152.14 137.68 L 152.06 136.96 C 151.97 136.18 151.26 135.61 150.47 135.70 C 149.69 135.79 149.13 136.50 149.22 137.29 Z"
      fill="black"
      fill-rule="nonzero" /><path d="M 114.74 148.77 L 113.45 148.43 C 112.62 148.21 111.76 148.72 111.55 149.55 C 111.33 150.38 111.83 151.24 112.66 151.45 L 113.95 151.79 C 114.78 152.01 115.64 151.50 115.85 150.67 C 116.07 149.84 115.57 148.98 114.74 148.77 Z M 113.50 148.40 L 112.36 148.07 C 111.51 147.82 110.62 148.32 110.37 149.17 C 110.13 150.02 110.62 150.91 111.47 151.16 L 112.61 151.49 C 113.47 151.73 114.36 151.24 114.60 150.39 C 114.85 149.53 114.36 148.64 113.50 148.40 Z M 112.49 148.06 L 111.64 147.75 C 110.79 147.43 109.83 147.87 109.52 148.73 C 109.20 149.58 109.64 150.53 110.49 150.85 L 111.34 151.17 C 112.20 151.48 113.15 151.05 113.47 150.19 C 113.79 149.33 113.35 148.38 112.49 148.06 Z M 112.06 147.92 L 111.64 147.62 C 110.87 147.07 109.81 147.25 109.27 148.01 C 108.72 148.78 108.90 149.84 109.66 150.38 L 110.08 150.68 C 110.84 151.23 111.90 151.05 112.45 150.29 C 113.00 149.52 112.82 148.46 112.06 147.92 Z M 112.08 149.97 L 112.31 149.63 C 112.85 148.84 112.64 147.76 111.85 147.23 C 111.06 146.69 109.99 146.90 109.45 147.69 L 109.22 148.03 C 108.68 148.82 108.89 149.90 109.68 150.43 C 110.47 150.97 111.54 150.76 112.08 149.97 Z M 111.47 150.30 L 112.39 149.97 C 113.30 149.64 113.77 148.64 113.44 147.74 C 113.12 146.83 112.12 146.36 111.21 146.69 L 110.29 147.02 C 109.39 147.34 108.92 148.34 109.24 149.25 C 109.57 150.15 110.56 150.62 111.47 150.30 Z M 112.22 150.03 L 113.62 149.69 C 114.56 149.46 115.14 148.50 114.90 147.56 C 114.67 146.62 113.72 146.04 112.78 146.28 L 111.38 146.62 C 110.44 146.85 109.86 147.80 110.10 148.75 C 110.33 149.69 111.28 150.26 112.22 150.03 Z M 113.59 149.70 L 114.55 149.48 C 115.50 149.27 116.09 148.32 115.88 147.37 C 115.66 146.42 114.72 145.83 113.77 146.04 L 112.81 146.26 C 111.85 146.48 111.26 147.42 111.48 148.37 C 111.69 149.32 112.64 149.92 113.59 149.70 Z M 114.54 149.49 L 115.52 149.27 C 116.47 149.05 117.07 148.11 116.86 147.16 C 116.65 146.21 115.70 145.61 114.75 145.82 L 113.77 146.04 C 112.82 146.25 112.22 147.20 112.43 148.15 C 112.65 149.10 113.59 149.70 114.54 149.49 Z M 115.52 149.27 L 116.52 149.05 C 117.47 148.84 118.08 147.89 117.86 146.94 C 117.65 145.99 116.71 145.39 115.76 145.60 L 114.75 145.82 C 113.80 146.03 113.20 146.97 113.41 147.93 C 113.62 148.88 114.56 149.48 115.52 149.27 Z M 116.52 149.05 L 117.53 148.83 C 118.48 148.62 119.08 147.67 118.87 146.72 C 118.66 145.77 117.72 145.17 116.77 145.38 L 115.76 145.60 C 114.81 145.81 114.21 146.75 114.41 147.70 C 114.62 148.65 115.57 149.26 116.52 149.05 Z M 117.53 148.83 L 118.51 148.61 C 119.46 148.40 120.06 147.46 119.85 146.51 C 119.64 145.55 118.70 144.95 117.75 145.16 L 116.77 145.38 C 115.81 145.58 115.21 146.53 115.42 147.48 C 115.63 148.43 116.57 149.04 117.53 148.83 Z M 118.51 148.61 L 119.52 148.39 C 120.47 148.18 121.07 147.23 120.86 146.28 C 120.65 145.33 119.71 144.73 118.75 144.94 L 117.75 145.16 C 116.79 145.37 116.19 146.31 116.40 147.27 C 116.61 148.22 117.56 148.82 118.51 148.61 Z M 119.52 148.39 L 120.55 148.16 C 121.50 147.95 122.10 147.00 121.89 146.05 C 121.68 145.10 120.73 144.50 119.78 144.71 L 118.75 144.94 C 117.80 145.15 117.20 146.09 117.41 147.05 C 117.62 148.00 118.57 148.60 119.52 148.39 Z M 120.55 148.16 L 121.52 147.94 C 122.47 147.72 123.07 146.78 122.86 145.83 C 122.64 144.88 121.70 144.28 120.75 144.49 L 119.78 144.71 C 118.82 144.92 118.23 145.87 118.44 146.82 C 118.65 147.77 119.60 148.37 120.55 148.16 Z M 121.52 147.94 L 122.46 147.72 C 123.41 147.51 124.01 146.56 123.79 145.61 C 123.57 144.66 122.63 144.07 121.68 144.28 L 120.74 144.49 C 119.79 144.71 119.20 145.66 119.41 146.61 C 119.63 147.56 120.57 148.15 121.52 147.94 Z M 122.46 147.72 L 123.39 147.51 C 124.34 147.29 124.93 146.35 124.72 145.40 C 124.50 144.45 123.55 143.85 122.60 144.07 L 121.67 144.28 C 120.72 144.50 120.13 145.45 120.35 146.40 C 120.57 147.35 121.51 147.94 122.46 147.72 Z M 123.39 147.51 L 124.33 147.29 C 125.28 147.07 125.87 146.12 125.66 145.17 C 125.44 144.23 124.49 143.63 123.54 143.85 L 122.60 144.07 C 121.65 144.29 121.06 145.24 121.28 146.19 C 121.50 147.14 122.44 147.73 123.39 147.51 Z M 124.34 147.29 L 125.30 147.07 C 126.24 146.85 126.83 145.90 126.61 144.95 C 126.39 144.00 125.45 143.41 124.50 143.63 L 123.54 143.86 C 122.59 144.08 122.00 145.02 122.22 145.97 C 122.44 146.92 123.39 147.51 124.34 147.29 Z M 125.30 147.06 L 126.27 146.84 C 127.22 146.62 127.81 145.67 127.59 144.72 C 127.37 143.78 126.42 143.19 125.47 143.41 L 124.50 143.64 C 123.55 143.86 122.96 144.80 123.18 145.75 C 123.40 146.69 124.35 147.28 125.30 147.06 Z M 126.27 146.84 L 127.26 146.61 C 128.21 146.39 128.80 145.44 128.58 144.50 C 128.36 143.55 127.41 142.96 126.47 143.18 L 125.48 143.41 C 124.53 143.63 123.94 144.57 124.16 145.52 C 124.38 146.46 125.32 147.05 126.27 146.84 Z M 127.26 146.60 L 128.25 146.38 C 129.19 146.16 129.78 145.22 129.57 144.27 C 129.35 143.33 128.41 142.74 127.46 142.95 L 126.47 143.18 C 125.53 143.40 124.94 144.34 125.15 145.29 C 125.37 146.23 126.31 146.82 127.26 146.60 Z M 128.24 146.38 L 129.20 146.16 C 130.15 145.94 130.74 145.00 130.52 144.06 C 130.31 143.11 129.37 142.52 128.42 142.74 L 127.47 142.96 C 126.52 143.17 125.93 144.11 126.14 145.06 C 126.36 146.00 127.30 146.59 128.24 146.38 Z M 129.20 146.16 L 130.17 145.93 C 131.12 145.72 131.71 144.78 131.49 143.84 C 131.28 142.89 130.34 142.30 129.39 142.52 L 128.42 142.74 C 127.48 142.96 126.89 143.89 127.11 144.84 C 127.32 145.78 128.26 146.37 129.20 146.16 Z M 130.18 145.93 L 131.15 145.71 C 132.10 145.49 132.68 144.55 132.46 143.61 C 132.25 142.67 131.31 142.08 130.37 142.30 L 129.39 142.52 C 128.45 142.74 127.86 143.68 128.08 144.62 C 128.30 145.56 129.24 146.15 130.18 145.93 Z M 131.16 145.70 L 132.15 145.47 C 133.09 145.24 133.67 144.30 133.45 143.36 C 133.22 142.43 132.28 141.84 131.34 142.07 L 130.36 142.30 C 129.42 142.52 128.84 143.47 129.06 144.40 C 129.28 145.34 130.22 145.92 131.16 145.70 Z M 132.16 145.46 L 133.13 145.22 C 134.07 144.99 134.64 144.05 134.41 143.11 C 134.18 142.18 133.24 141.60 132.30 141.83 L 131.33 142.07 C 130.39 142.30 129.82 143.25 130.05 144.18 C 130.28 145.12 131.23 145.69 132.16 145.46 Z M 133.15 145.22 L 134.10 144.97 C 135.03 144.74 135.59 143.79 135.36 142.86 C 135.12 141.93 134.17 141.36 133.24 141.60 L 132.29 141.84 C 131.36 142.08 130.80 143.03 131.03 143.96 C 131.27 144.89 132.22 145.45 133.15 145.22 Z M 134.11 144.97 L 135.07 144.72 C 135.99 144.47 136.55 143.52 136.31 142.60 C 136.07 141.67 135.12 141.11 134.19 141.36 L 133.23 141.61 C 132.30 141.85 131.75 142.80 131.99 143.73 C 132.23 144.65 133.18 145.21 134.11 144.97 Z M 135.07 144.71 L 136.04 144.45 C 136.97 144.20 137.52 143.26 137.27 142.33 C 137.02 141.41 136.07 140.86 135.15 141.10 L 134.18 141.36 C 133.26 141.61 132.71 142.56 132.96 143.48 C 133.20 144.41 134.15 144.96 135.07 144.71 Z M 136.05 144.45 L 137.03 144.18 C 137.95 143.93 138.49 142.98 138.24 142.06 C 137.99 141.14 137.05 140.60 136.13 140.85 L 135.15 141.11 C 134.23 141.36 133.68 142.31 133.93 143.23 C 134.18 144.15 135.13 144.69 136.05 144.45 Z M 137.03 144.17 L 138.01 143.91 C 138.93 143.66 139.47 142.71 139.22 141.79 C 138.97 140.87 138.03 140.33 137.11 140.58 L 136.12 140.85 C 135.21 141.10 134.66 142.05 134.91 142.97 C 135.16 143.88 136.11 144.42 137.03 144.17 Z M 138.01 143.90 L 138.99 143.64 C 139.90 143.39 140.44 142.44 140.19 141.53 C 139.94 140.61 139.00 140.07 138.08 140.32 L 137.11 140.59 C 136.19 140.84 135.65 141.78 135.90 142.70 C 136.15 143.61 137.10 144.15 138.01 143.90 Z M 138.99 143.63 L 139.96 143.36 C 140.88 143.11 141.41 142.17 141.16 141.26 C 140.91 140.35 139.97 139.81 139.06 140.06 L 138.08 140.33 C 137.17 140.58 136.63 141.52 136.88 142.43 C 137.13 143.34 138.07 143.88 138.99 143.63 Z M 139.96 143.36 L 140.93 143.09 C 141.84 142.84 142.38 141.91 142.13 141.00 C 141.88 140.09 140.94 139.55 140.03 139.80 L 139.06 140.07 C 138.15 140.31 137.62 141.25 137.87 142.16 C 138.11 143.07 139.05 143.61 139.96 143.36 Z M 140.93 143.09 L 141.89 142.83 C 142.80 142.58 143.33 141.64 143.09 140.74 C 142.84 139.83 141.90 139.30 141.00 139.54 L 140.04 139.80 C 139.13 140.05 138.60 140.99 138.84 141.89 C 139.09 142.80 140.02 143.33 140.93 143.09 Z M 141.89 142.82 L 142.83 142.57 C 143.73 142.32 144.27 141.39 144.02 140.49 C 143.78 139.58 142.85 139.05 141.94 139.29 L 141.00 139.55 C 140.10 139.79 139.56 140.72 139.81 141.63 C 140.05 142.53 140.98 143.07 141.89 142.82 Z M 142.82 142.56 L 143.83 142.29 C 144.73 142.05 145.27 141.12 145.03 140.22 C 144.78 139.32 143.85 138.78 142.95 139.02 L 141.94 139.30 C 141.04 139.54 140.51 140.47 140.75 141.37 C 141.00 142.27 141.92 142.80 142.82 142.56 Z M 143.83 142.28 L 144.81 142.02 C 145.71 141.78 146.24 140.85 146.00 139.96 C 145.76 139.06 144.83 138.52 143.93 138.77 L 142.96 139.03 C 142.06 139.27 141.52 140.20 141.77 141.10 C 142.01 141.99 142.93 142.53 143.83 142.28 Z M 144.81 142.01 L 145.77 141.75 C 146.66 141.51 147.19 140.59 146.95 139.69 C 146.71 138.80 145.79 138.27 144.89 138.51 L 143.93 138.77 C 143.04 139.02 142.51 139.94 142.75 140.83 C 143.00 141.73 143.92 142.26 144.81 142.01 Z M 145.77 141.75 L 146.71 141.49 C 147.60 141.24 148.13 140.32 147.88 139.43 C 147.64 138.54 146.72 138.02 145.83 138.26 L 144.89 138.52 C 144.00 138.77 143.47 139.69 143.72 140.58 C 143.96 141.47 144.88 141.99 145.77 141.75 Z M 146.72 141.48 L 147.66 141.21 C 148.55 140.97 149.06 140.04 148.82 139.16 C 148.57 138.27 147.65 137.76 146.76 138.01 L 145.82 138.27 C 144.93 138.52 144.42 139.44 144.67 140.33 C 144.92 141.21 145.84 141.73 146.72 141.48 Z M 147.67 141.20 L 148.65 140.92 C 149.53 140.67 150.03 139.75 149.78 138.87 C 149.52 137.99 148.60 137.48 147.72 137.73 L 146.75 138.02 C 145.87 138.27 145.36 139.19 145.62 140.07 C 145.87 140.95 146.79 141.46 147.67 141.20 Z M 148.65 140.91 L 149.62 140.63 C 150.49 140.37 150.99 139.45 150.73 138.57 C 150.47 137.70 149.55 137.20 148.68 137.46 L 147.71 137.74 C 146.84 138.00 146.34 138.92 146.60 139.80 C 146.86 140.67 147.78 141.17 148.65 140.91 Z M 149.63 140.62 L 150.58 140.33 C 151.45 140.07 151.94 139.15 151.68 138.28 C 151.41 137.41 150.49 136.91 149.62 137.18 L 148.67 137.47 C 147.80 137.73 147.31 138.65 147.57 139.52 C 147.84 140.39 148.76 140.88 149.63 140.62 Z M 150.59 140.32 L 151.53 140.03 C 152.39 139.76 152.88 138.84 152.61 137.98 C 152.35 137.11 151.43 136.63 150.56 136.90 L 149.62 137.19 C 148.75 137.45 148.27 138.37 148.54 139.24 C 148.80 140.10 149.72 140.59 150.59 140.32 Z M 151.53 140.02 L 152.49 139.72 C 153.35 139.45 153.83 138.53 153.56 137.67 C 153.29 136.81 152.38 136.33 151.52 136.60 L 150.56 136.90 C 149.70 137.17 149.22 138.09 149.49 138.95 C 149.76 139.81 150.67 140.29 151.53 140.02 Z M 152.49 139.71 L 153.45 139.41 C 154.31 139.14 154.79 138.22 154.51 137.37 C 154.24 136.51 153.33 136.04 152.48 136.31 L 151.52 136.61 C 150.66 136.88 150.18 137.80 150.46 138.65 C 150.73 139.51 151.64 139.98 152.49 139.71 Z M 153.45 139.40 L 154.40 139.10 C 155.26 138.83 155.73 137.92 155.46 137.07 C 155.19 136.22 154.28 135.75 153.43 136.02 L 152.48 136.32 C 151.63 136.59 151.15 137.49 151.42 138.35 C 151.69 139.20 152.60 139.67 153.45 139.40 Z M 154.40 139.09 L 155.34 138.80 C 156.19 138.53 156.66 137.63 156.40 136.78 C 156.13 135.93 155.23 135.46 154.38 135.73 L 153.44 136.02 C 152.59 136.29 152.11 137.19 152.38 138.04 C 152.65 138.89 153.55 139.36 154.40 139.09 Z M 155.33 138.79 L 156.29 138.50 C 157.13 138.24 157.61 137.34 157.35 136.50 C 157.09 135.65 156.19 135.18 155.35 135.44 L 154.39 135.73 C 153.55 135.99 153.07 136.89 153.33 137.73 C 153.59 138.58 154.49 139.05 155.33 138.79 Z M 156.28 138.49 L 157.25 138.20 C 158.09 137.95 158.57 137.06 158.31 136.22 C 158.06 135.37 157.17 134.90 156.33 135.15 L 155.36 135.44 C 154.51 135.70 154.04 136.59 154.29 137.43 C 154.55 138.27 155.43 138.75 156.28 138.49 Z M 157.24 138.20 L 158.21 137.91 C 159.05 137.66 159.52 136.77 159.27 135.93 C 159.02 135.10 158.14 134.62 157.30 134.87 L 156.34 135.16 C 155.50 135.41 155.02 136.29 155.27 137.13 C 155.52 137.97 156.40 138.45 157.24 138.20 Z M 158.20 137.90 L 159.16 137.62 C 159.99 137.37 160.47 136.49 160.22 135.65 C 159.97 134.82 159.09 134.34 158.25 134.59 L 157.30 134.88 C 156.47 135.13 155.99 136.00 156.24 136.84 C 156.49 137.67 157.37 138.15 158.20 137.90 Z M 159.16 137.61 L 160.10 137.32 C 160.93 137.07 161.40 136.19 161.15 135.36 C 160.90 134.53 160.02 134.07 159.19 134.32 L 158.25 134.60 C 157.42 134.85 156.95 135.73 157.20 136.56 C 157.45 137.39 158.33 137.86 159.16 137.61 Z M 160.11 137.31 L 161.07 137.01 C 161.89 136.76 162.35 135.88 162.10 135.06 C 161.84 134.24 160.97 133.78 160.15 134.03 L 159.18 134.33 C 158.36 134.58 157.90 135.46 158.16 136.28 C 158.41 137.10 159.28 137.56 160.11 137.31 Z M 161.07 137.00 L 162.02 136.70 C 162.84 136.44 163.29 135.57 163.03 134.75 C 162.77 133.94 161.90 133.49 161.09 133.75 L 160.14 134.05 C 159.33 134.30 158.87 135.17 159.13 135.99 C 159.39 136.80 160.26 137.25 161.07 137.00 Z M 162.03 136.68 L 162.97 136.38 C 163.78 136.12 164.22 135.25 163.96 134.45 C 163.70 133.64 162.84 133.20 162.03 133.46 L 161.08 133.76 C 160.28 134.02 159.83 134.88 160.09 135.69 C 160.35 136.50 161.22 136.94 162.03 136.68 Z M 162.97 136.36 L 163.92 136.06 C 164.72 135.79 165.15 134.93 164.89 134.14 C 164.63 133.34 163.77 132.90 162.97 133.16 L 162.03 133.47 C 161.23 133.73 160.79 134.59 161.05 135.39 C 161.31 136.19 162.17 136.62 162.97 136.36 Z M 163.92 136.04 L 164.82 135.75 C 165.61 135.48 166.04 134.63 165.78 133.84 C 165.52 133.04 164.67 132.61 163.87 132.87 L 162.97 133.17 C 162.18 133.43 161.75 134.29 162.01 135.08 C 162.27 135.87 163.13 136.30 163.92 136.04 Z M 164.82 135.73 L 165.75 135.42 C 166.54 135.16 166.96 134.31 166.70 133.52 C 166.43 132.74 165.58 132.31 164.79 132.58 L 163.87 132.89 C 163.08 133.15 162.66 134.00 162.92 134.79 C 163.19 135.57 164.04 136.00 164.82 135.73 Z M 165.76 135.41 L 166.71 135.08 C 167.49 134.82 167.91 133.97 167.64 133.19 C 167.37 132.41 166.52 131.99 165.75 132.26 L 164.79 132.59 C 164.01 132.86 163.59 133.70 163.86 134.48 C 164.13 135.26 164.98 135.68 165.76 135.41 Z M 166.72 135.07 L 167.72 134.72 C 168.49 134.45 168.89 133.60 168.62 132.83 C 168.35 132.06 167.51 131.65 166.73 131.92 L 165.74 132.27 C 164.97 132.55 164.56 133.39 164.83 134.16 C 165.10 134.94 165.95 135.34 166.72 135.07 Z M 167.73 134.71 L 168.69 134.36 C 169.46 134.08 169.85 133.24 169.58 132.47 C 169.30 131.71 168.46 131.31 167.69 131.59 L 166.72 131.94 C 165.96 132.21 165.56 133.06 165.84 133.82 C 166.12 134.59 166.96 134.98 167.73 134.71 Z M 168.70 134.35 L 169.67 133.99 C 170.43 133.71 170.82 132.87 170.54 132.11 C 170.25 131.35 169.41 130.96 168.65 131.24 L 167.68 131.60 C 166.92 131.88 166.53 132.72 166.82 133.48 C 167.10 134.24 167.94 134.63 168.70 134.35 Z M 169.68 133.98 L 170.64 133.62 C 171.39 133.33 171.77 132.49 171.49 131.73 C 171.20 130.98 170.36 130.60 169.60 130.89 L 168.64 131.25 C 167.89 131.54 167.51 132.38 167.80 133.13 C 168.08 133.89 168.92 134.27 169.68 133.98 Z M 170.65 133.61 L 171.57 133.25 C 172.32 132.96 172.69 132.11 172.40 131.36 C 172.11 130.62 171.27 130.25 170.52 130.54 L 169.59 130.90 C 168.85 131.19 168.47 132.03 168.77 132.78 C 169.06 133.53 169.90 133.90 170.65 133.61 Z M 171.58 133.23 L 172.47 132.88 C 173.21 132.58 173.57 131.74 173.27 131.00 C 172.98 130.25 172.13 129.89 171.39 130.19 L 170.51 130.55 C 169.76 130.85 169.40 131.69 169.70 132.43 C 170.00 133.17 170.84 133.53 171.58 133.23 Z M 172.49 132.87 L 173.51 132.44 C 174.24 132.13 174.59 131.29 174.28 130.55 C 173.98 129.81 173.13 129.47 172.39 129.78 L 171.37 130.20 C 170.64 130.51 170.29 131.36 170.60 132.09 C 170.91 132.83 171.75 133.18 172.49 132.87 Z M 173.53 132.44 L 174.44 132.04 C 175.17 131.72 175.50 130.87 175.19 130.13 C 174.87 129.40 174.01 129.07 173.28 129.39 L 172.37 129.78 C 171.64 130.10 171.30 130.96 171.62 131.69 C 171.94 132.42 172.80 132.76 173.53 132.44 Z M 174.45 132.03 L 175.30 131.65 C 176.03 131.32 176.35 130.47 176.02 129.74 C 175.70 129.01 174.84 128.68 174.11 129.01 L 173.26 129.39 C 172.54 129.72 172.21 130.58 172.54 131.31 C 172.87 132.04 173.72 132.36 174.45 132.03 Z M 175.30 131.65 L 175.66 131.49 C 176.39 131.16 176.71 130.30 176.38 129.57 C 176.05 128.84 175.19 128.52 174.46 128.85 L 174.10 129.01 C 173.38 129.34 173.05 130.20 173.38 130.93 C 173.72 131.66 174.57 131.98 175.30 131.65 Z"
      fill="black"
      fill-rule="nonzero" /><path d="M 152.97 140.22 L 152.44 141.11 C 152.00 141.85 152.24 142.80 152.97 143.23 C 153.70 143.67 154.65 143.43 155.09 142.70 L 155.62 141.81 C 156.06 141.08 155.82 140.13 155.09 139.69 C 154.35 139.25 153.40 139.49 152.97 140.22 Z M 152.42 141.13 L 151.91 142.01 C 151.48 142.75 151.73 143.70 152.48 144.13 C 153.22 144.56 154.17 144.31 154.60 143.57 L 155.11 142.68 C 155.54 141.94 155.28 140.99 154.54 140.56 C 153.80 140.13 152.85 140.39 152.42 141.13 Z M 151.88 142.05 L 151.41 142.91 C 151.00 143.67 151.28 144.61 152.04 145.02 C 152.80 145.43 153.74 145.15 154.15 144.40 L 154.62 143.53 C 155.03 142.77 154.75 141.83 153.99 141.42 C 153.24 141.01 152.29 141.29 151.88 142.05 Z M 151.37 142.97 L 150.95 143.85 C 150.58 144.62 150.90 145.56 151.68 145.94 C 152.46 146.31 153.40 145.98 153.78 145.20 L 154.19 144.33 C 154.57 143.55 154.24 142.62 153.46 142.24 C 152.68 141.87 151.75 142.19 151.37 142.97 Z M 150.90 143.93 L 150.53 144.86 C 150.20 145.66 150.59 146.58 151.40 146.91 C 152.21 147.23 153.13 146.84 153.45 146.04 L 153.83 145.12 C 154.15 144.31 153.76 143.39 152.95 143.06 C 152.15 142.74 151.23 143.13 150.90 143.93 Z M 150.48 144.95 L 150.17 145.88 C 149.90 146.71 150.35 147.61 151.18 147.89 C 152.02 148.16 152.92 147.71 153.19 146.88 L 153.50 145.95 C 153.78 145.11 153.32 144.21 152.49 143.94 C 151.66 143.66 150.76 144.11 150.48 144.95 Z M 150.14 145.95 L 149.87 146.93 C 149.63 147.78 150.13 148.67 150.99 148.90 C 151.84 149.14 152.72 148.64 152.96 147.78 L 153.23 146.80 C 153.46 145.95 152.96 145.07 152.11 144.83 C 151.26 144.60 150.37 145.10 150.14 145.95 Z M 149.85 146.98 L 149.62 147.90 C 149.41 148.77 149.94 149.64 150.81 149.85 C 151.68 150.06 152.55 149.53 152.76 148.66 L 152.98 147.74 C 153.19 146.87 152.66 146.00 151.79 145.79 C 150.93 145.58 150.06 146.11 149.85 146.98 Z M 149.61 147.94 L 149.39 148.91 C 149.20 149.78 149.76 150.64 150.63 150.83 C 151.51 151.02 152.37 150.47 152.56 149.60 L 152.77 148.63 C 152.96 147.75 152.41 146.89 151.53 146.70 C 150.66 146.51 149.80 147.06 149.61 147.94 Z M 149.38 148.94 L 149.18 149.94 C 149.01 150.83 149.59 151.68 150.47 151.86 C 151.35 152.03 152.21 151.45 152.38 150.57 L 152.58 149.56 C 152.75 148.68 152.18 147.82 151.29 147.65 C 150.41 147.48 149.55 148.05 149.38 148.94 Z M 149.17 149.97 L 148.99 150.99 C 148.84 151.88 149.43 152.73 150.32 152.88 C 151.21 153.04 152.06 152.44 152.22 151.55 L 152.39 150.54 C 152.55 149.65 151.96 148.80 151.07 148.64 C 150.18 148.49 149.33 149.08 149.17 149.97 Z M 148.98 151.02 L 148.83 151.99 C 148.69 152.88 149.30 153.72 150.20 153.86 C 151.09 154.00 151.93 153.39 152.07 152.50 L 152.23 151.53 C 152.37 150.63 151.75 149.79 150.86 149.65 C 149.96 149.51 149.12 150.12 148.98 151.02 Z M 148.82 152.02 L 148.69 153.00 C 148.56 153.90 149.19 154.73 150.09 154.85 C 150.99 154.98 151.82 154.35 151.94 153.45 L 152.08 152.47 C 152.20 151.57 151.58 150.74 150.68 150.61 C 149.78 150.49 148.95 151.12 148.82 152.02 Z M 148.68 153.03 L 148.56 154.03 C 148.46 154.93 149.10 155.75 150.00 155.86 C 150.90 155.96 151.72 155.32 151.83 154.42 L 151.95 153.42 C 152.05 152.52 151.41 151.70 150.51 151.59 C 149.61 151.49 148.79 152.13 148.68 153.03 Z M 148.56 154.06 L 148.46 155.05 C 148.37 155.95 149.02 156.76 149.93 156.85 C 150.83 156.95 151.64 156.29 151.73 155.39 L 151.83 154.39 C 151.92 153.49 151.27 152.68 150.36 152.59 C 149.46 152.50 148.65 153.15 148.56 154.06 Z M 148.46 155.08 L 148.38 155.92 C 148.30 156.82 148.97 157.62 149.88 157.70 C 150.78 157.78 151.58 157.11 151.66 156.20 L 151.73 155.36 C 151.81 154.46 151.14 153.66 150.24 153.58 C 149.33 153.50 148.53 154.17 148.46 155.08 Z M 148.38 155.94 L 148.31 156.83 C 148.24 157.74 148.92 158.53 149.83 158.60 C 150.73 158.67 151.52 157.99 151.59 157.08 L 151.66 156.19 C 151.73 155.28 151.05 154.49 150.15 154.42 C 149.24 154.35 148.45 155.03 148.38 155.94 Z M 148.31 156.84 L 148.24 157.82 C 148.18 158.72 148.86 159.51 149.77 159.57 C 150.67 159.64 151.46 158.96 151.52 158.05 L 151.59 157.07 C 151.66 156.17 150.97 155.38 150.07 155.32 C 149.16 155.25 148.38 155.94 148.31 156.84 Z M 148.24 157.82 L 148.17 158.91 C 148.11 159.82 148.79 160.60 149.69 160.66 C 150.60 160.72 151.38 160.04 151.45 159.14 L 151.52 158.05 C 151.58 157.14 150.90 156.36 150.00 156.29 C 149.09 156.23 148.31 156.92 148.24 157.82 Z M 148.17 158.91 L 148.09 160.11 C 148.02 161.01 148.70 161.80 149.61 161.86 C 150.51 161.92 151.30 161.24 151.36 160.34 L 151.45 159.14 C 151.51 158.23 150.83 157.45 149.92 157.39 C 149.02 157.32 148.23 158.00 148.17 158.91 Z M 148.09 160.10 L 148.02 161.07 C 147.95 161.98 148.63 162.76 149.54 162.82 C 150.44 162.89 151.22 162.21 151.29 161.31 L 151.36 160.34 C 151.42 159.43 150.74 158.65 149.84 158.59 C 148.94 158.52 148.15 159.20 148.09 160.10 Z M 148.02 161.07 L 147.95 162.10 C 147.89 163.00 148.56 163.78 149.46 163.84 C 150.36 163.91 151.14 163.23 151.21 162.33 L 151.28 161.31 C 151.35 160.41 150.67 159.62 149.77 159.56 C 148.87 159.49 148.09 160.17 148.02 161.07 Z M 147.96 162.10 L 147.88 163.15 C 147.82 164.05 148.49 164.83 149.39 164.89 C 150.29 164.96 151.06 164.28 151.13 163.38 L 151.20 162.33 C 151.27 161.43 150.59 160.65 149.70 160.59 C 148.80 160.53 148.02 161.20 147.96 162.10 Z M 147.89 163.15 L 147.81 164.21 C 147.75 165.10 148.42 165.88 149.32 165.94 C 150.21 166.00 150.99 165.33 151.05 164.44 L 151.12 163.38 C 151.19 162.49 150.51 161.71 149.62 161.65 C 148.72 161.59 147.95 162.26 147.89 163.15 Z M 147.82 164.21 L 147.75 165.24 C 147.69 166.13 148.36 166.90 149.25 166.96 C 150.14 167.02 150.91 166.35 150.97 165.46 L 151.04 164.43 C 151.11 163.54 150.43 162.77 149.54 162.71 C 148.65 162.65 147.88 163.32 147.82 164.21 Z M 147.75 165.24 L 147.69 166.22 C 147.63 167.11 148.30 167.87 149.19 167.93 C 150.08 167.99 150.85 167.31 150.91 166.43 L 150.97 165.45 C 151.03 164.56 150.35 163.80 149.46 163.74 C 148.58 163.68 147.81 164.36 147.75 165.24 Z M 147.69 166.23 L 147.64 167.12 C 147.59 168.00 148.26 168.76 149.15 168.82 C 150.04 168.87 150.80 168.19 150.85 167.31 L 150.90 166.42 C 150.95 165.53 150.28 164.77 149.39 164.72 C 148.51 164.66 147.75 165.34 147.69 166.23 Z M 147.66 167.13 L 147.60 168.43 C 147.56 169.31 148.23 170.05 149.11 170.09 C 149.98 170.13 150.72 169.46 150.76 168.59 L 150.83 167.29 C 150.87 166.41 150.19 165.67 149.32 165.63 C 148.45 165.59 147.70 166.26 147.66 167.13 Z M 147.64 168.46 L 147.61 169.51 C 147.58 170.36 148.25 171.07 149.10 171.10 C 149.95 171.13 150.66 170.46 150.69 169.61 L 150.72 168.56 C 150.75 167.71 150.08 167.00 149.23 166.97 C 148.38 166.94 147.67 167.61 147.64 168.46 Z M 147.65 169.54 L 147.64 170.42 C 147.62 171.25 148.29 171.93 149.11 171.94 C 149.94 171.95 150.63 171.29 150.64 170.46 L 150.65 169.58 C 150.66 168.75 150.00 168.07 149.17 168.06 C 148.34 168.05 147.66 168.71 147.65 169.54 Z M 147.68 170.44 L 147.67 171.23 C 147.67 172.03 148.32 172.69 149.13 172.69 C 149.94 172.69 150.59 172.04 150.59 171.24 L 150.60 170.44 C 150.60 169.64 149.95 168.98 149.14 168.98 C 148.33 168.98 147.68 169.63 147.68 170.44 Z M 147.70 171.23 L 147.70 171.31 C 147.70 172.11 148.34 172.75 149.13 172.75 C 149.93 172.75 150.57 172.11 150.57 171.31 L 150.57 171.23 C 150.57 170.44 149.93 169.79 149.13 169.79 C 148.34 169.79 147.70 170.44 147.70 171.23 Z"
      fill="black"
      fill-rule="nonzero" /><path d="M 151.98 156.65 L 152.77 156.15 C 153.51 155.67 153.73 154.69 153.25 153.94 C 152.78 153.20 151.79 152.98 151.05 153.45 L 150.26 153.96 C 149.51 154.43 149.30 155.42 149.77 156.16 C 150.25 156.91 151.23 157.13 151.98 156.65 Z M 152.75 156.15 L 153.56 155.64 C 154.31 155.17 154.53 154.19 154.06 153.44 C 153.60 152.70 152.61 152.48 151.87 152.95 L 151.06 153.46 C 150.32 153.92 150.09 154.90 150.56 155.65 C 151.03 156.39 152.01 156.61 152.75 156.15 Z M 153.54 155.64 L 154.40 155.12 C 155.15 154.66 155.38 153.69 154.92 152.94 C 154.47 152.20 153.49 151.96 152.75 152.42 L 151.89 152.94 C 151.15 153.40 150.91 154.37 151.37 155.12 C 151.82 155.86 152.80 156.10 153.54 155.64 Z M 154.37 155.12 L 155.30 154.58 C 156.05 154.14 156.30 153.17 155.86 152.42 C 155.41 151.67 154.45 151.42 153.70 151.87 L 152.78 152.41 C 152.03 152.85 151.78 153.82 152.22 154.57 C 152.66 155.31 153.62 155.56 154.37 155.12 Z M 155.27 154.58 L 156.13 154.09 C 156.88 153.67 157.14 152.72 156.71 151.97 C 156.29 151.22 155.34 150.95 154.59 151.38 L 153.73 151.86 C 152.98 152.29 152.72 153.24 153.14 153.99 C 153.57 154.74 154.52 155.00 155.27 154.58 Z M 156.10 154.08 L 156.97 153.60 C 157.71 153.19 157.98 152.25 157.57 151.51 C 157.16 150.77 156.22 150.50 155.48 150.91 L 154.61 151.39 C 153.87 151.80 153.60 152.74 154.01 153.48 C 154.42 154.23 155.36 154.49 156.10 154.08 Z M 156.95 153.59 L 157.85 153.10 C 158.58 152.69 158.85 151.77 158.44 151.03 C 158.04 150.30 157.12 150.03 156.38 150.44 L 155.49 150.93 C 154.76 151.33 154.49 152.25 154.89 152.99 C 155.30 153.72 156.22 153.99 156.95 153.59 Z M 157.84 153.08 L 158.74 152.58 C 159.46 152.18 159.72 151.27 159.32 150.55 C 158.92 149.82 158.01 149.56 157.29 149.96 L 156.39 150.46 C 155.66 150.86 155.40 151.77 155.80 152.49 C 156.20 153.22 157.11 153.48 157.84 153.08 Z M 158.74 152.56 L 159.62 152.06 C 160.33 151.66 160.58 150.76 160.18 150.05 C 159.78 149.34 158.88 149.08 158.17 149.49 L 157.29 149.98 C 156.57 150.38 156.32 151.29 156.72 152.00 C 157.13 152.71 158.03 152.96 158.74 152.56 Z M 159.63 152.03 L 160.52 151.51 C 161.22 151.10 161.45 150.21 161.05 149.51 C 160.64 148.82 159.75 148.58 159.05 148.99 L 158.16 149.51 C 157.46 149.92 157.23 150.81 157.63 151.51 C 158.04 152.20 158.93 152.44 159.63 152.03 Z M 160.54 151.49 L 161.42 150.95 C 162.10 150.54 162.32 149.64 161.90 148.96 C 161.49 148.28 160.60 148.06 159.91 148.48 L 159.03 149.01 C 158.35 149.43 158.13 150.32 158.55 151.00 C 158.96 151.69 159.86 151.91 160.54 151.49 Z M 161.44 150.94 L 162.28 150.40 C 162.95 149.98 163.16 149.09 162.73 148.41 C 162.31 147.74 161.42 147.54 160.74 147.96 L 159.90 148.49 C 159.22 148.92 159.02 149.81 159.44 150.48 C 159.87 151.16 160.76 151.36 161.44 150.94 Z M 162.29 150.39 L 163.11 149.86 C 163.78 149.43 163.97 148.54 163.54 147.88 C 163.11 147.21 162.22 147.02 161.55 147.45 L 160.73 147.98 C 160.07 148.41 159.87 149.29 160.30 149.96 C 160.73 150.63 161.62 150.82 162.29 150.39 Z M 163.11 149.85 L 163.92 149.32 C 164.58 148.89 164.77 148.01 164.34 147.34 C 163.91 146.68 163.02 146.50 162.36 146.93 L 161.55 147.46 C 160.89 147.89 160.70 148.77 161.14 149.44 C 161.57 150.10 162.45 150.28 163.11 149.85 Z M 163.92 149.32 L 164.07 149.22 C 164.73 148.79 164.91 147.91 164.48 147.25 C 164.05 146.59 163.17 146.40 162.51 146.84 L 162.36 146.93 C 161.70 147.36 161.52 148.25 161.95 148.91 C 162.38 149.57 163.26 149.75 163.92 149.32 Z"
      fill="black"
      fill-rule="nonzero" /><path d="M 135.79 150.80 L 134.97 151.35 C 134.24 151.86 134.05 152.86 134.55 153.60 C 135.06 154.33 136.06 154.52 136.80 154.02 L 137.61 153.46 C 138.35 152.96 138.54 151.95 138.03 151.22 C 137.53 150.48 136.52 150.29 135.79 150.80 Z M 134.93 151.33 L 134.12 151.91 C 133.37 152.44 133.20 153.47 133.73 154.22 C 134.26 154.97 135.30 155.14 136.04 154.61 L 136.85 154.04 C 137.59 153.51 137.77 152.47 137.24 151.72 C 136.71 150.98 135.67 150.80 134.93 151.33 Z M 134.05 151.91 L 133.25 152.52 C 132.51 153.09 132.36 154.16 132.94 154.90 C 133.51 155.65 134.57 155.79 135.32 155.22 L 136.11 154.61 C 136.86 154.04 137.00 152.97 136.43 152.22 C 135.86 151.48 134.79 151.34 134.05 151.91 Z M 133.16 152.54 L 132.38 153.20 C 131.65 153.83 131.56 154.93 132.18 155.66 C 132.81 156.39 133.91 156.48 134.64 155.86 L 135.42 155.19 C 136.15 154.57 136.24 153.47 135.61 152.74 C 134.99 152.01 133.89 151.92 133.16 152.54 Z M 132.28 153.26 L 131.56 153.96 C 130.85 154.64 130.83 155.75 131.51 156.46 C 132.18 157.16 133.30 157.18 134.00 156.50 L 134.73 155.80 C 135.44 155.13 135.46 154.01 134.78 153.31 C 134.10 152.60 132.99 152.58 132.28 153.26 Z M 131.49 154.02 L 130.79 154.76 C 130.13 155.47 130.16 156.59 130.87 157.26 C 131.58 157.93 132.70 157.90 133.37 157.19 L 134.07 156.44 C 134.74 155.73 134.70 154.62 133.99 153.95 C 133.28 153.28 132.16 153.31 131.49 154.02 Z M 130.75 154.81 L 130.09 155.56 C 129.44 156.30 129.51 157.41 130.25 158.06 C 130.98 158.70 132.10 158.63 132.74 157.90 L 133.41 157.14 C 134.05 156.41 133.98 155.29 133.25 154.65 C 132.52 154.00 131.40 154.07 130.75 154.81 Z M 130.06 155.59 L 129.43 156.34 C 128.80 157.09 128.90 158.20 129.65 158.83 C 130.39 159.46 131.51 159.37 132.14 158.62 L 132.77 157.87 C 133.40 157.12 133.30 156.01 132.55 155.38 C 131.81 154.75 130.69 154.85 130.06 155.59 Z M 129.42 156.35 L 128.79 157.12 C 128.17 157.88 128.27 158.99 129.03 159.61 C 129.78 160.23 130.90 160.13 131.52 159.37 L 132.15 158.60 C 132.77 157.85 132.66 156.73 131.91 156.11 C 131.15 155.49 130.04 155.60 129.42 156.35 Z M 128.78 157.13 L 128.16 157.90 C 127.55 158.65 127.66 159.77 128.42 160.38 C 129.18 160.99 130.29 160.88 130.90 160.12 L 131.52 159.36 C 132.14 158.60 132.02 157.49 131.26 156.88 C 130.51 156.26 129.40 156.38 128.78 157.13 Z M 128.16 157.91 L 127.54 158.67 C 126.94 159.43 127.06 160.54 127.82 161.15 C 128.58 161.76 129.69 161.64 130.30 160.88 L 130.91 160.11 C 131.52 159.35 131.40 158.24 130.64 157.63 C 129.88 157.02 128.77 157.15 128.16 157.91 Z M 127.54 158.68 L 126.91 159.48 C 126.30 160.24 126.43 161.35 127.19 161.95 C 127.95 162.56 129.06 162.43 129.66 161.67 L 130.30 160.87 C 130.90 160.11 130.78 159.00 130.02 158.39 C 129.25 157.79 128.15 157.92 127.54 158.68 Z M 126.90 159.48 L 126.34 160.20 C 125.74 160.96 125.87 162.07 126.63 162.67 C 127.39 163.27 128.50 163.14 129.10 162.38 L 129.66 161.67 C 130.27 160.90 130.14 159.80 129.38 159.19 C 128.61 158.59 127.51 158.72 126.90 159.48 Z M 126.34 160.20 L 125.75 160.95 C 125.15 161.71 125.28 162.82 126.04 163.42 C 126.80 164.02 127.90 163.89 128.50 163.13 L 129.10 162.38 C 129.70 161.62 129.57 160.51 128.81 159.91 C 128.05 159.31 126.94 159.44 126.34 160.20 Z M 125.75 160.95 L 125.12 161.74 C 124.52 162.50 124.65 163.60 125.41 164.21 C 126.17 164.81 127.27 164.68 127.88 163.92 L 128.50 163.13 C 129.10 162.37 128.98 161.27 128.22 160.66 C 127.46 160.06 126.35 160.19 125.75 160.95 Z M 125.13 161.74 L 124.47 162.57 C 123.87 163.32 123.99 164.43 124.75 165.03 C 125.51 165.63 126.61 165.51 127.21 164.75 L 127.87 163.92 C 128.47 163.16 128.35 162.06 127.59 161.46 C 126.83 160.85 125.73 160.98 125.13 161.74 Z M 124.47 162.56 L 123.82 163.38 C 123.21 164.14 123.33 165.24 124.09 165.85 C 124.84 166.45 125.94 166.33 126.55 165.57 L 127.21 164.75 C 127.81 164.00 127.69 162.90 126.94 162.29 C 126.18 161.69 125.08 161.81 124.47 162.56 Z M 123.82 163.38 L 123.22 164.12 C 122.62 164.87 122.73 165.97 123.49 166.58 C 124.24 167.19 125.34 167.07 125.95 166.32 L 126.54 165.58 C 127.15 164.83 127.03 163.72 126.28 163.12 C 125.53 162.51 124.43 162.63 123.82 163.38 Z M 123.23 164.12 L 122.61 164.88 C 122.00 165.63 122.12 166.73 122.87 167.34 C 123.62 167.95 124.72 167.83 125.32 167.08 L 125.94 166.32 C 126.55 165.57 126.43 164.47 125.68 163.86 C 124.93 163.26 123.83 163.37 123.23 164.12 Z M 122.61 164.88 L 121.98 165.66 C 121.37 166.41 121.49 167.50 122.23 168.11 C 122.98 168.72 124.08 168.61 124.69 167.86 L 125.32 167.08 C 125.93 166.33 125.82 165.23 125.07 164.63 C 124.32 164.02 123.22 164.13 122.61 164.88 Z M 121.98 165.66 L 121.34 166.45 C 120.73 167.20 120.84 168.30 121.59 168.91 C 122.33 169.51 123.43 169.40 124.04 168.65 L 124.69 167.86 C 125.29 167.11 125.18 166.01 124.43 165.41 C 123.69 164.80 122.59 164.91 121.98 165.66 Z M 121.34 166.46 L 120.68 167.27 C 120.07 168.01 120.19 169.11 120.93 169.71 C 121.68 170.32 122.77 170.21 123.38 169.46 L 124.04 168.65 C 124.64 167.91 124.53 166.81 123.79 166.20 C 123.04 165.60 121.94 165.71 121.34 166.46 Z M 120.68 167.27 L 120.05 168.04 C 119.45 168.79 119.56 169.88 120.31 170.49 C 121.05 171.09 122.15 170.98 122.75 170.23 L 123.38 169.46 C 123.98 168.71 123.87 167.62 123.12 167.01 C 122.38 166.41 121.29 166.52 120.68 167.27 Z M 120.06 168.05 L 119.44 168.81 C 118.84 169.56 118.95 170.65 119.70 171.25 C 120.44 171.85 121.53 171.73 122.13 170.99 L 122.75 170.23 C 123.35 169.48 123.24 168.39 122.49 167.79 C 121.75 167.19 120.66 167.30 120.06 168.05 Z M 119.44 168.82 L 118.82 169.59 C 118.22 170.34 118.34 171.42 119.08 172.02 C 119.82 172.62 120.91 172.50 121.51 171.76 L 122.13 170.98 C 122.73 170.24 122.61 169.15 121.87 168.56 C 121.12 167.96 120.04 168.08 119.44 168.82 Z M 118.82 169.60 L 118.19 170.38 C 117.60 171.12 117.72 172.21 118.46 172.80 C 119.20 173.40 120.28 173.28 120.88 172.54 L 121.51 171.75 C 122.10 171.01 121.98 169.93 121.24 169.33 C 120.50 168.74 119.41 168.86 118.82 169.60 Z M 118.19 170.39 L 117.56 171.18 C 116.97 171.92 117.09 173.00 117.84 173.59 C 118.58 174.19 119.66 174.06 120.25 173.32 L 120.88 172.53 C 121.47 171.79 121.35 170.71 120.60 170.11 C 119.86 169.52 118.78 169.65 118.19 170.39 Z M 117.56 171.19 L 116.93 171.99 C 116.34 172.73 116.47 173.81 117.21 174.39 C 117.95 174.98 119.03 174.85 119.62 174.11 L 120.25 173.31 C 120.83 172.57 120.71 171.49 119.97 170.91 C 119.22 170.32 118.15 170.45 117.56 171.19 Z M 116.93 172.00 L 116.31 172.79 C 115.73 173.53 115.86 174.60 116.60 175.18 C 117.34 175.77 118.42 175.64 119.00 174.89 L 119.62 174.10 C 120.20 173.36 120.07 172.29 119.33 171.71 C 118.58 171.12 117.51 171.26 116.93 172.00 Z M 116.31 172.80 L 115.70 173.58 C 115.12 174.32 115.26 175.39 116.00 175.97 C 116.74 176.55 117.81 176.41 118.39 175.67 L 119.00 174.88 C 119.58 174.14 119.44 173.07 118.70 172.50 C 117.96 171.92 116.89 172.05 116.31 172.80 Z M 115.70 173.59 L 115.09 174.38 C 114.52 175.12 114.65 176.18 115.39 176.76 C 116.13 177.33 117.20 177.19 117.77 176.45 L 118.38 175.66 C 118.96 174.92 118.82 173.86 118.08 173.28 C 117.34 172.71 116.28 172.85 115.70 173.59 Z M 115.10 174.38 L 114.48 175.17 C 113.91 175.91 114.05 176.97 114.78 177.54 C 115.52 178.11 116.58 177.98 117.16 177.24 L 117.77 176.45 C 118.34 175.71 118.20 174.65 117.47 174.08 C 116.73 173.51 115.67 173.64 115.10 174.38 Z M 114.49 175.17 L 113.87 175.97 C 113.30 176.70 113.44 177.76 114.17 178.33 C 114.91 178.90 115.96 178.77 116.53 178.03 L 117.15 177.24 C 117.72 176.50 117.59 175.45 116.85 174.88 C 116.12 174.31 115.06 174.44 114.49 175.17 Z M 113.88 175.97 L 113.26 176.76 C 112.69 177.49 112.82 178.55 113.56 179.11 C 114.29 179.68 115.34 179.55 115.91 178.82 L 116.53 178.03 C 117.10 177.30 116.97 176.25 116.24 175.68 C 115.51 175.11 114.45 175.24 113.88 175.97 Z M 113.27 176.76 L 112.64 177.56 C 112.07 178.29 112.20 179.34 112.92 179.91 C 113.65 180.48 114.70 180.35 115.27 179.63 L 115.90 178.82 C 116.47 178.10 116.35 177.05 115.62 176.48 C 114.89 175.91 113.84 176.03 113.27 176.76 Z M 112.65 177.56 L 112.00 178.38 C 111.43 179.10 111.55 180.15 112.27 180.72 C 112.99 181.29 114.04 181.17 114.61 180.45 L 115.26 179.63 C 115.83 178.91 115.71 177.86 114.99 177.29 C 114.27 176.72 113.22 176.84 112.65 177.56 Z M 112.01 178.38 L 111.37 179.19 C 110.80 179.91 110.91 180.95 111.63 181.52 C 112.34 182.09 113.38 181.97 113.95 181.26 L 114.60 180.45 C 115.17 179.73 115.05 178.69 114.34 178.12 C 113.62 177.55 112.58 177.67 112.01 178.38 Z M 111.38 179.19 L 110.74 179.99 C 110.17 180.70 110.29 181.73 111.00 182.30 C 111.71 182.87 112.74 182.76 113.31 182.05 L 113.95 181.25 C 114.51 180.54 114.40 179.51 113.69 178.94 C 112.98 178.37 111.94 178.48 111.38 179.19 Z M 110.75 179.99 L 110.13 180.76 C 109.56 181.47 109.68 182.50 110.38 183.06 C 111.09 183.63 112.12 183.52 112.69 182.81 L 113.30 182.04 C 113.87 181.34 113.76 180.30 113.05 179.74 C 112.34 179.17 111.31 179.29 110.75 179.99 Z M 110.14 180.77 L 109.54 181.51 C 108.98 182.21 109.09 183.24 109.79 183.80 C 110.50 184.36 111.52 184.25 112.08 183.55 L 112.68 182.81 C 113.24 182.10 113.13 181.08 112.43 180.51 C 111.72 179.95 110.70 180.07 110.14 180.77 Z M 109.55 181.52 L 108.92 182.30 C 108.37 183.00 108.48 184.02 109.18 184.58 C 109.88 185.13 110.90 185.02 111.46 184.32 L 112.08 183.54 C 112.64 182.84 112.52 181.82 111.82 181.26 C 111.12 180.70 110.10 180.82 109.55 181.52 Z M 108.93 182.31 L 108.25 183.17 C 107.69 183.87 107.81 184.88 108.51 185.43 C 109.21 185.98 110.22 185.87 110.77 185.17 L 111.45 184.31 C 112.00 183.61 111.89 182.60 111.19 182.05 C 110.49 181.50 109.48 181.61 108.93 182.31 Z M 108.25 183.18 L 107.62 183.98 C 107.07 184.68 107.19 185.68 107.88 186.23 C 108.57 186.78 109.58 186.66 110.13 185.97 L 110.76 185.16 C 111.31 184.47 111.19 183.46 110.50 182.92 C 109.81 182.37 108.80 182.49 108.25 183.18 Z M 107.63 183.99 L 107.03 184.74 C 106.49 185.43 106.60 186.43 107.29 186.97 C 107.98 187.52 108.98 187.40 109.52 186.71 L 110.12 185.96 C 110.66 185.27 110.54 184.28 109.86 183.73 C 109.17 183.19 108.17 183.30 107.63 183.99 Z M 107.05 184.75 L 106.48 185.45 C 105.94 186.13 106.05 187.12 106.73 187.66 C 107.41 188.21 108.40 188.10 108.94 187.42 L 109.51 186.71 C 110.05 186.03 109.94 185.04 109.26 184.50 C 108.58 183.95 107.59 184.07 107.05 184.75 Z M 106.50 185.45 L 105.86 186.23 C 105.32 186.90 105.42 187.89 106.09 188.43 C 106.76 188.98 107.74 188.88 108.29 188.21 L 108.93 187.42 C 109.47 186.75 109.37 185.77 108.70 185.22 C 108.03 184.68 107.05 184.78 106.50 185.45 Z M 105.89 186.22 L 105.23 187.00 C 104.68 187.66 104.76 188.64 105.42 189.19 C 106.07 189.74 107.05 189.65 107.60 189.00 L 108.26 188.22 C 108.81 187.56 108.73 186.59 108.07 186.03 C 107.42 185.48 106.44 185.57 105.89 186.22 Z M 105.27 186.98 L 104.62 187.71 C 104.06 188.35 104.12 189.32 104.75 189.88 C 105.39 190.44 106.36 190.38 106.92 189.75 L 107.57 189.02 C 108.13 188.38 108.07 187.41 107.43 186.85 C 106.80 186.29 105.83 186.35 105.27 186.98 Z M 104.66 187.69 L 104.01 188.38 C 103.43 188.99 103.46 189.95 104.07 190.53 C 104.68 191.11 105.65 191.08 106.22 190.47 L 106.88 189.78 C 107.45 189.16 107.43 188.20 106.82 187.62 C 106.20 187.05 105.24 187.07 104.66 187.69 Z M 104.06 188.35 L 103.34 189.05 C 102.75 189.64 102.74 190.59 103.33 191.19 C 103.91 191.78 104.87 191.79 105.46 191.20 L 106.18 190.50 C 106.77 189.91 106.78 188.96 106.19 188.36 C 105.61 187.77 104.65 187.76 104.06 188.35 Z M 103.38 189.03 L 102.65 189.72 C 102.05 190.28 102.01 191.23 102.58 191.83 C 103.14 192.43 104.09 192.47 104.69 191.90 L 105.42 191.22 C 106.03 190.66 106.06 189.71 105.50 189.11 C 104.93 188.50 103.99 188.47 103.38 189.03 Z M 102.68 189.71 L 101.94 190.38 C 101.33 190.93 101.28 191.86 101.83 192.47 C 102.38 193.08 103.32 193.13 103.92 192.58 L 104.66 191.91 C 105.27 191.36 105.32 190.42 104.77 189.82 C 104.22 189.21 103.29 189.16 102.68 189.71 Z M 101.95 190.38 L 101.72 190.59 C 101.11 191.13 101.06 192.06 101.60 192.67 C 102.14 193.27 103.08 193.33 103.68 192.78 L 103.91 192.58 C 104.52 192.03 104.57 191.10 104.03 190.49 C 103.49 189.89 102.55 189.84 101.95 190.38 Z"
      fill="black"
      fill-rule="nonzero" /><path d="M 130.02 164.81 L 130.80 165.41 C 131.52 165.95 132.55 165.81 133.10 165.09 C 133.65 164.37 133.51 163.35 132.79 162.80 L 132.00 162.20 C 131.28 161.65 130.25 161.79 129.71 162.51 C 129.16 163.23 129.30 164.26 130.02 164.81 Z M 130.78 165.42 L 131.56 166.03 C 132.29 166.59 133.33 166.45 133.90 165.72 C 134.46 165.00 134.32 163.95 133.59 163.39 L 132.81 162.78 C 132.08 162.22 131.04 162.36 130.47 163.08 C 129.91 163.81 130.05 164.86 130.78 165.42 Z M 131.52 166.03 L 132.30 166.65 C 133.04 167.24 134.10 167.11 134.68 166.38 C 135.27 165.65 135.14 164.58 134.41 164.00 L 133.63 163.38 C 132.90 162.80 131.83 162.92 131.25 163.65 C 130.67 164.38 130.79 165.45 131.52 166.03 Z M 132.26 166.65 L 133.03 167.30 C 133.77 167.90 134.85 167.80 135.46 167.07 C 136.07 166.33 135.97 165.25 135.23 164.64 L 134.46 164.00 C 133.72 163.39 132.64 163.49 132.03 164.23 C 131.42 164.96 131.52 166.05 132.26 166.65 Z M 132.98 167.29 L 133.75 167.96 C 134.48 168.60 135.59 168.52 136.22 167.79 C 136.86 167.07 136.79 165.96 136.06 165.32 L 135.29 164.65 C 134.56 164.01 133.45 164.09 132.81 164.82 C 132.18 165.54 132.25 166.65 132.98 167.29 Z M 133.70 167.94 L 134.46 168.64 C 135.18 169.31 136.30 169.27 136.96 168.55 C 137.63 167.83 137.59 166.71 136.87 166.04 L 136.11 165.34 C 135.39 164.68 134.27 164.72 133.60 165.44 C 132.94 166.16 132.98 167.28 133.70 167.94 Z M 134.41 168.63 L 135.16 169.35 C 135.86 170.04 137.00 170.02 137.69 169.31 C 138.38 168.60 138.36 167.47 137.65 166.78 L 136.91 166.06 C 136.20 165.37 135.07 165.39 134.38 166.10 C 133.69 166.81 133.71 167.94 134.41 168.63 Z M 135.12 169.34 L 135.83 170.06 C 136.54 170.77 137.68 170.77 138.39 170.07 C 139.10 169.37 139.10 168.22 138.40 167.51 L 137.69 166.79 C 136.98 166.08 135.84 166.08 135.13 166.78 C 134.42 167.48 134.42 168.63 135.12 169.34 Z M 135.80 170.05 L 136.48 170.76 C 137.18 171.48 138.34 171.50 139.06 170.80 C 139.79 170.10 139.81 168.95 139.11 168.22 L 138.43 167.52 C 137.73 166.79 136.58 166.77 135.85 167.47 C 135.13 168.17 135.10 169.33 135.80 170.05 Z M 136.46 170.75 L 137.11 171.45 C 137.81 172.19 138.98 172.22 139.72 171.52 C 140.46 170.83 140.49 169.66 139.79 168.92 L 139.14 168.23 C 138.44 167.49 137.27 167.45 136.53 168.15 C 135.79 168.85 135.76 170.01 136.46 170.75 Z M 137.09 171.45 L 137.81 172.21 C 138.50 172.97 139.68 173.01 140.43 172.31 C 141.18 171.62 141.22 170.44 140.52 169.69 L 139.81 168.92 C 139.11 168.17 137.94 168.13 137.19 168.83 C 136.44 169.52 136.40 170.70 137.09 171.45 Z M 137.79 172.21 L 138.46 172.94 C 139.15 173.70 140.33 173.75 141.09 173.06 C 141.85 172.36 141.90 171.19 141.21 170.43 L 140.54 169.70 C 139.85 168.94 138.67 168.89 137.91 169.58 C 137.15 170.27 137.10 171.45 137.79 172.21 Z M 138.44 172.93 L 139.09 173.65 C 139.78 174.42 140.96 174.48 141.73 173.79 C 142.49 173.10 142.56 171.92 141.87 171.15 L 141.22 170.43 C 140.53 169.67 139.35 169.60 138.58 170.29 C 137.81 170.98 137.75 172.17 138.44 172.93 Z M 139.08 173.65 L 139.72 174.37 C 140.41 175.14 141.60 175.21 142.37 174.52 C 143.14 173.83 143.21 172.65 142.52 171.88 L 141.88 171.15 C 141.19 170.38 140.00 170.31 139.23 171.00 C 138.46 171.69 138.39 172.87 139.08 173.65 Z M 139.71 174.37 L 140.34 175.08 C 141.03 175.86 142.22 175.93 143.00 175.24 C 143.77 174.55 143.84 173.36 143.16 172.58 L 142.53 171.88 C 141.84 171.10 140.65 171.03 139.87 171.72 C 139.10 172.40 139.03 173.59 139.71 174.37 Z M 140.33 175.08 L 140.99 175.82 C 141.67 176.60 142.86 176.67 143.65 175.98 C 144.43 175.30 144.50 174.10 143.81 173.32 L 143.16 172.59 C 142.47 171.80 141.28 171.73 140.50 172.42 C 139.72 173.11 139.65 174.30 140.33 175.08 Z M 140.98 175.81 L 141.65 176.58 C 142.34 177.37 143.53 177.44 144.32 176.76 C 145.10 176.07 145.18 174.88 144.49 174.09 L 143.82 173.33 C 143.13 172.54 141.94 172.46 141.16 173.15 C 140.37 173.84 140.29 175.03 140.98 175.81 Z M 141.65 176.58 L 142.34 177.37 C 143.02 178.16 144.22 178.24 145.01 177.56 C 145.79 176.87 145.87 175.67 145.19 174.89 L 144.50 174.09 C 143.81 173.31 142.62 173.22 141.83 173.91 C 141.04 174.60 140.96 175.79 141.65 176.58 Z M 142.33 177.37 L 142.97 178.10 C 143.65 178.89 144.85 178.98 145.64 178.29 C 146.43 177.61 146.51 176.41 145.83 175.62 L 145.19 174.89 C 144.51 174.10 143.31 174.01 142.52 174.70 C 141.73 175.38 141.65 176.58 142.33 177.37 Z M 142.96 178.10 L 143.60 178.84 C 144.29 179.63 145.48 179.71 146.27 179.03 C 147.07 178.34 147.15 177.14 146.46 176.35 L 145.83 175.62 C 145.14 174.83 143.95 174.74 143.15 175.43 C 142.36 176.12 142.28 177.31 142.96 178.10 Z M 143.60 178.84 L 144.26 179.59 C 144.95 180.38 146.15 180.46 146.93 179.77 C 147.72 179.08 147.80 177.88 147.12 177.09 L 146.46 176.34 C 145.77 175.55 144.57 175.47 143.78 176.16 C 142.99 176.85 142.91 178.05 143.60 178.84 Z M 144.26 179.60 L 144.94 180.36 C 145.64 181.15 146.84 181.22 147.62 180.53 C 148.41 179.83 148.48 178.63 147.78 177.85 L 147.11 177.08 C 146.41 176.30 145.21 176.22 144.43 176.92 C 143.64 177.61 143.57 178.82 144.26 179.60 Z M 144.95 180.38 L 145.66 181.16 C 146.36 181.94 147.56 182.00 148.34 181.30 C 149.12 180.59 149.18 179.39 148.48 178.61 L 147.77 177.83 C 147.07 177.05 145.87 176.99 145.09 177.69 C 144.31 178.40 144.25 179.60 144.95 180.38 Z M 145.67 181.18 L 146.33 181.90 C 147.05 182.67 148.25 182.72 149.02 182.01 C 149.80 181.29 149.84 180.09 149.13 179.32 L 148.47 178.60 C 147.75 177.82 146.55 177.77 145.78 178.49 C 145.00 179.20 144.96 180.40 145.67 181.18 Z M 146.35 181.91 L 147.02 182.63 C 147.75 183.40 148.95 183.43 149.72 182.71 C 150.48 181.99 150.52 180.79 149.80 180.02 L 149.12 179.30 C 148.40 178.54 147.19 178.50 146.43 179.22 C 145.66 179.94 145.63 181.15 146.35 181.91 Z M 147.04 182.65 L 147.73 183.37 C 148.46 184.13 149.67 184.15 150.43 183.43 C 151.18 182.70 151.21 181.49 150.48 180.73 L 149.79 180.01 C 149.06 179.25 147.85 179.22 147.09 179.95 C 146.33 180.68 146.31 181.89 147.04 182.65 Z M 147.74 183.38 L 148.45 184.11 C 149.19 184.86 150.39 184.87 151.15 184.14 C 151.90 183.40 151.91 182.19 151.18 181.44 L 150.47 180.72 C 149.73 179.97 148.53 179.95 147.77 180.69 C 147.02 181.42 147.01 182.63 147.74 183.38 Z M 148.46 184.12 L 149.18 184.84 C 149.92 185.59 151.13 185.59 151.88 184.85 C 152.62 184.10 152.62 182.89 151.88 182.15 L 151.17 181.43 C 150.42 180.68 149.21 180.68 148.47 181.42 C 147.72 182.17 147.72 183.37 148.46 184.12 Z M 149.19 184.85 L 149.91 185.56 C 150.66 186.30 151.87 186.29 152.61 185.54 C 153.35 184.79 153.34 183.58 152.59 182.84 L 151.87 182.13 C 151.12 181.39 149.91 181.40 149.17 182.15 C 148.43 182.90 148.44 184.11 149.19 184.85 Z M 149.92 185.57 L 150.64 186.27 C 151.39 187.00 152.60 186.98 153.34 186.22 C 154.07 185.46 154.05 184.25 153.29 183.52 L 152.57 182.83 C 151.82 182.09 150.61 182.11 149.87 182.87 C 149.14 183.63 149.16 184.84 149.92 185.57 Z M 150.65 186.28 L 151.37 186.96 C 152.14 187.69 153.35 187.65 154.08 186.88 C 154.80 186.12 154.76 184.91 154.00 184.18 L 153.27 183.50 C 152.51 182.78 151.30 182.81 150.57 183.58 C 149.85 184.35 149.88 185.56 150.65 186.28 Z M 151.39 186.98 L 152.13 187.66 C 152.91 188.37 154.12 188.32 154.83 187.54 C 155.54 186.76 155.49 185.55 154.71 184.83 L 153.98 184.16 C 153.20 183.45 151.99 183.50 151.27 184.28 C 150.56 185.06 150.61 186.27 151.39 186.98 Z M 152.15 187.68 L 152.90 188.34 C 153.69 189.04 154.90 188.97 155.60 188.18 C 156.30 187.39 156.23 186.18 155.44 185.48 L 154.69 184.81 C 153.90 184.11 152.69 184.18 151.99 184.97 C 151.28 185.77 151.36 186.98 152.15 187.68 Z M 152.92 188.37 L 153.69 189.02 C 154.49 189.71 155.70 189.62 156.39 188.81 C 157.08 188.01 156.99 186.80 156.18 186.11 L 155.41 185.45 C 154.61 184.77 153.40 184.86 152.71 185.66 C 152.02 186.47 152.12 187.68 152.92 188.37 Z M 153.72 189.05 L 154.47 189.67 C 155.29 190.34 156.49 190.22 157.17 189.40 C 157.84 188.59 157.72 187.38 156.91 186.71 L 156.15 186.09 C 155.34 185.42 154.13 185.53 153.46 186.35 C 152.79 187.17 152.90 188.37 153.72 189.05 Z M 154.50 189.69 L 155.27 190.29 C 156.09 190.95 157.30 190.81 157.95 189.98 C 158.61 189.15 158.47 187.95 157.64 187.29 L 156.88 186.69 C 156.05 186.03 154.85 186.17 154.19 187.00 C 153.53 187.83 153.67 189.03 154.50 189.69 Z M 155.30 190.31 L 156.09 190.91 C 156.93 191.55 158.13 191.38 158.76 190.55 C 159.40 189.71 159.24 188.51 158.40 187.87 L 157.61 187.27 C 156.77 186.64 155.57 186.80 154.94 187.64 C 154.30 188.48 154.46 189.68 155.30 190.31 Z M 156.13 190.93 L 156.94 191.52 C 157.79 192.14 158.98 191.95 159.60 191.10 C 160.21 190.25 160.02 189.06 159.17 188.44 L 158.36 187.85 C 157.51 187.24 156.32 187.42 155.70 188.28 C 155.09 189.13 155.28 190.32 156.13 190.93 Z M 156.98 191.54 L 157.82 192.12 C 158.68 192.72 159.86 192.50 160.46 191.64 C 161.05 190.78 160.84 189.60 159.97 189.00 L 159.14 188.42 C 158.27 187.83 157.09 188.04 156.50 188.90 C 155.90 189.77 156.12 190.95 156.98 191.54 Z M 157.86 192.14 L 158.72 192.71 C 159.60 193.28 160.77 193.04 161.34 192.17 C 161.92 191.29 161.67 190.12 160.80 189.54 L 159.93 188.98 C 159.06 188.40 157.88 188.65 157.31 189.52 C 156.74 190.40 156.98 191.57 157.86 192.14 Z M 158.76 192.73 L 159.59 193.25 C 160.48 193.80 161.64 193.52 162.19 192.64 C 162.74 191.75 162.47 190.59 161.58 190.04 L 160.76 189.52 C 159.87 188.97 158.70 189.24 158.15 190.13 C 157.60 191.02 157.88 192.18 158.76 192.73 Z M 159.63 193.26 L 160.47 193.76 C 161.37 194.29 162.52 193.99 163.05 193.10 C 163.58 192.20 163.28 191.04 162.38 190.51 L 161.54 190.02 C 160.65 189.49 159.49 189.79 158.96 190.68 C 158.43 191.58 158.73 192.74 159.63 193.26 Z M 160.51 193.78 L 161.37 194.26 C 162.27 194.77 163.42 194.45 163.93 193.54 C 164.44 192.64 164.12 191.49 163.21 190.98 L 162.35 190.50 C 161.44 189.99 160.30 190.31 159.79 191.22 C 159.28 192.12 159.60 193.27 160.51 193.78 Z M 161.40 194.28 L 162.29 194.75 C 163.20 195.24 164.34 194.89 164.83 193.98 C 165.31 193.07 164.97 191.93 164.06 191.44 L 163.17 190.97 C 162.26 190.48 161.13 190.82 160.64 191.74 C 160.15 192.65 160.49 193.79 161.40 194.28 Z M 162.32 194.76 L 163.22 195.22 C 164.14 195.69 165.27 195.33 165.74 194.41 C 166.21 193.49 165.85 192.36 164.93 191.89 L 164.02 191.43 C 163.10 190.96 161.98 191.32 161.51 192.24 C 161.04 193.16 161.40 194.29 162.32 194.76 Z M 163.26 195.23 L 164.18 195.69 C 165.10 196.14 166.22 195.76 166.68 194.83 C 167.13 193.90 166.75 192.79 165.82 192.33 L 164.90 191.88 C 163.97 191.43 162.85 191.81 162.40 192.74 C 161.95 193.66 162.33 194.78 163.26 195.23 Z M 164.21 195.69 L 165.12 196.12 C 166.05 196.56 167.16 196.16 167.60 195.23 C 168.03 194.30 167.63 193.19 166.70 192.75 L 165.79 192.32 C 164.86 191.89 163.75 192.29 163.31 193.22 C 162.88 194.15 163.28 195.26 164.21 195.69 Z M 165.15 196.13 L 166.04 196.53 C 166.97 196.95 168.07 196.54 168.49 195.60 C 168.92 194.67 168.50 193.57 167.57 193.15 L 166.67 192.75 C 165.74 192.32 164.64 192.74 164.22 193.67 C 163.80 194.61 164.22 195.71 165.15 196.13 Z M 166.07 196.53 L 166.97 196.93 C 167.91 197.33 169.00 196.90 169.41 195.96 C 169.81 195.03 169.38 193.94 168.44 193.53 L 167.54 193.14 C 166.60 192.74 165.51 193.17 165.11 194.10 C 164.70 195.04 165.13 196.13 166.07 196.53 Z M 167.00 196.93 L 167.92 197.31 C 168.86 197.70 169.94 197.26 170.33 196.32 C 170.72 195.38 170.27 194.30 169.34 193.91 L 168.41 193.53 C 167.48 193.14 166.40 193.59 166.01 194.53 C 165.62 195.46 166.06 196.54 167.00 196.93 Z M 167.95 197.32 L 168.89 197.69 C 169.83 198.06 170.89 197.60 171.27 196.66 C 171.64 195.72 171.18 194.65 170.24 194.28 L 169.31 193.91 C 168.36 193.53 167.30 193.99 166.92 194.94 C 166.55 195.88 167.01 196.94 167.95 197.32 Z M 168.92 197.69 L 169.86 198.05 C 170.81 198.41 171.86 197.93 172.22 196.99 C 172.58 196.05 172.10 194.99 171.16 194.63 L 170.21 194.28 C 169.27 193.92 168.21 194.39 167.86 195.34 C 167.50 196.28 167.97 197.33 168.92 197.69 Z M 169.89 198.05 L 170.85 198.40 C 171.80 198.74 172.84 198.25 173.18 197.31 C 173.52 196.36 173.03 195.32 172.09 194.98 L 171.13 194.63 C 170.18 194.29 169.14 194.78 168.80 195.72 C 168.46 196.67 168.95 197.71 169.89 198.05 Z M 170.88 198.40 L 171.82 198.73 C 172.77 199.05 173.80 198.55 174.13 197.60 C 174.45 196.66 173.95 195.63 173.00 195.30 L 172.06 194.98 C 171.11 194.65 170.08 195.15 169.76 196.10 C 169.43 197.05 169.93 198.08 170.88 198.40 Z M 171.85 198.73 L 172.78 199.03 C 173.72 199.34 174.74 198.82 175.05 197.88 C 175.36 196.93 174.84 195.91 173.90 195.60 L 172.97 195.30 C 172.03 194.99 171.01 195.51 170.70 196.45 C 170.39 197.40 170.91 198.42 171.85 198.73 Z M 172.80 199.03 L 173.74 199.32 C 174.68 199.62 175.69 199.09 175.98 198.14 C 176.28 197.19 175.75 196.19 174.80 195.89 L 173.87 195.60 C 172.92 195.31 171.92 195.84 171.62 196.78 C 171.33 197.73 171.86 198.73 172.80 199.03 Z M 173.76 199.32 L 174.71 199.60 C 175.65 199.88 176.65 199.34 176.93 198.40 C 177.21 197.45 176.67 196.46 175.73 196.18 L 174.78 195.90 C 173.83 195.61 172.84 196.15 172.56 197.10 C 172.28 198.04 172.82 199.04 173.76 199.32 Z M 174.73 199.60 L 175.69 199.87 C 176.64 200.14 177.62 199.59 177.89 198.65 C 178.16 197.70 177.61 196.72 176.66 196.45 L 175.70 196.18 C 174.76 195.91 173.78 196.46 173.51 197.40 C 173.24 198.35 173.79 199.33 174.73 199.60 Z M 175.72 199.87 L 176.69 200.13 C 177.64 200.39 178.61 199.83 178.86 198.89 C 179.12 197.95 178.56 196.98 177.62 196.72 L 176.64 196.46 C 175.70 196.20 174.73 196.76 174.47 197.70 C 174.22 198.64 174.78 199.61 175.72 199.87 Z M 176.71 200.13 L 177.71 200.39 C 178.65 200.63 179.61 200.07 179.85 199.13 C 180.10 198.19 179.53 197.23 178.59 196.98 L 177.60 196.73 C 176.66 196.48 175.70 197.04 175.46 197.98 C 175.21 198.92 175.77 199.88 176.71 200.13 Z M 177.73 200.38 L 178.74 200.63 C 179.67 200.87 180.62 200.30 180.86 199.36 C 181.09 198.42 180.52 197.47 179.58 197.24 L 178.57 196.99 C 177.64 196.75 176.69 197.32 176.45 198.26 C 176.22 199.20 176.79 200.15 177.73 200.38 Z M 178.75 200.63 L 179.73 200.86 C 180.66 201.09 181.60 200.51 181.83 199.58 C 182.05 198.64 181.48 197.70 180.54 197.48 L 179.57 197.25 C 178.63 197.02 177.69 197.60 177.47 198.53 C 177.24 199.46 177.82 200.40 178.75 200.63 Z M 179.75 200.86 L 180.74 201.08 C 181.67 201.30 182.60 200.72 182.81 199.79 C 183.03 198.86 182.44 197.93 181.51 197.71 L 180.52 197.49 C 179.59 197.27 178.67 197.85 178.45 198.78 C 178.24 199.71 178.82 200.64 179.75 200.86 Z M 180.76 201.08 L 181.75 201.30 C 182.68 201.50 183.60 200.91 183.80 199.99 C 184.00 199.06 183.42 198.14 182.49 197.94 L 181.49 197.72 C 180.57 197.52 179.65 198.10 179.45 199.03 C 179.24 199.96 179.83 200.88 180.76 201.08 Z M 181.77 201.29 L 182.77 201.50 C 183.69 201.69 184.60 201.09 184.79 200.17 C 184.98 199.25 184.39 198.34 183.46 198.15 L 182.47 197.94 C 181.54 197.75 180.64 198.35 180.45 199.27 C 180.26 200.20 180.85 201.10 181.77 201.29 Z M 182.79 201.49 L 183.78 201.68 C 184.71 201.86 185.60 201.26 185.77 200.34 C 185.95 199.42 185.35 198.52 184.43 198.35 L 183.44 198.16 C 182.52 197.98 181.63 198.58 181.45 199.50 C 181.27 200.42 181.87 201.31 182.79 201.49 Z M 183.81 201.68 L 184.79 201.85 C 185.71 202.02 186.58 201.40 186.75 200.48 C 186.91 199.57 186.30 198.69 185.38 198.53 L 184.40 198.35 C 183.48 198.19 182.61 198.80 182.44 199.72 C 182.28 200.64 182.89 201.51 183.81 201.68 Z M 184.82 201.85 L 185.78 202.00 C 186.70 202.15 187.56 201.52 187.70 200.61 C 187.85 199.69 187.23 198.83 186.31 198.69 L 185.35 198.53 C 184.44 198.38 183.57 199.01 183.43 199.92 C 183.28 200.84 183.90 201.70 184.82 201.85 Z M 185.82 202.00 L 186.79 202.13 C 187.71 202.26 188.55 201.62 188.68 200.71 C 188.81 199.80 188.17 198.96 187.26 198.83 L 186.28 198.69 C 185.37 198.56 184.52 199.20 184.39 200.11 C 184.27 201.02 184.90 201.87 185.82 202.00 Z M 186.83 202.13 L 187.87 202.25 C 188.78 202.36 189.61 201.70 189.71 200.79 C 189.82 199.88 189.17 199.06 188.26 198.95 L 187.22 198.83 C 186.31 198.73 185.48 199.38 185.38 200.29 C 185.27 201.20 185.92 202.02 186.83 202.13 Z M 187.91 202.24 L 188.93 202.34 C 189.83 202.42 190.64 201.76 190.72 200.85 C 190.81 199.94 190.14 199.14 189.23 199.06 L 188.22 198.96 C 187.31 198.88 186.51 199.54 186.42 200.45 C 186.34 201.35 187.01 202.16 187.91 202.24 Z M 188.96 202.33 L 189.95 202.40 C 190.86 202.47 191.64 201.79 191.71 200.89 C 191.77 199.99 191.09 199.20 190.19 199.14 L 189.20 199.06 C 188.30 199.00 187.51 199.68 187.45 200.58 C 187.38 201.48 188.06 202.26 188.96 202.33 Z M 189.98 202.39 L 190.97 202.45 C 191.86 202.50 192.63 201.81 192.68 200.91 C 192.73 200.02 192.04 199.25 191.14 199.20 L 190.16 199.15 C 189.27 199.10 188.50 199.78 188.45 200.68 C 188.40 201.58 189.09 202.34 189.98 202.39 Z M 190.99 202.44 L 191.96 202.48 C 192.86 202.51 193.61 201.82 193.64 200.93 C 193.68 200.03 192.98 199.28 192.09 199.25 L 191.12 199.21 C 190.23 199.17 189.47 199.87 189.44 200.76 C 189.40 201.65 190.10 202.40 190.99 202.44 Z M 191.98 202.47 L 192.96 202.49 C 193.84 202.52 194.58 201.82 194.61 200.93 C 194.63 200.05 193.93 199.31 193.05 199.28 L 192.07 199.26 C 191.19 199.23 190.45 199.93 190.42 200.82 C 190.40 201.70 191.10 202.44 191.98 202.47 Z M 192.97 202.48 L 193.94 202.50 C 194.82 202.52 195.55 201.82 195.57 200.94 C 195.58 200.06 194.88 199.33 194.00 199.31 L 193.03 199.29 C 192.15 199.28 191.42 199.98 191.41 200.86 C 191.39 201.74 192.09 202.47 192.97 202.48 Z M 193.95 202.50 L 194.92 202.51 C 195.80 202.52 196.52 201.82 196.53 200.94 C 196.54 200.07 195.84 199.35 194.97 199.34 L 193.99 199.32 C 193.12 199.31 192.40 200.01 192.39 200.89 C 192.37 201.76 193.07 202.48 193.95 202.50 Z M 194.93 202.50 L 195.92 202.51 C 196.79 202.51 197.50 201.81 197.51 200.94 C 197.51 200.07 196.81 199.36 195.94 199.35 L 194.96 199.34 C 194.08 199.34 193.37 200.04 193.37 200.91 C 193.36 201.78 194.06 202.50 194.93 202.50 Z M 195.93 202.50 L 196.92 202.50 C 197.79 202.50 198.49 201.79 198.49 200.93 C 198.49 200.06 197.79 199.36 196.92 199.36 L 195.93 199.36 C 195.06 199.36 194.36 200.06 194.36 200.93 C 194.36 201.80 195.06 202.50 195.93 202.50 Z M 196.93 202.49 L 197.94 202.48 C 198.80 202.47 199.50 201.77 199.49 200.90 C 199.48 200.04 198.77 199.35 197.91 199.36 L 196.91 199.37 C 196.04 199.37 195.35 200.08 195.36 200.94 C 195.37 201.81 196.07 202.50 196.93 202.49 Z M 197.95 202.47 L 198.97 202.46 C 199.83 202.44 200.51 201.73 200.49 200.87 C 200.48 200.01 199.77 199.33 198.91 199.35 L 197.90 199.36 C 197.04 199.38 196.35 200.09 196.37 200.95 C 196.39 201.81 197.09 202.49 197.95 202.47 Z M 198.98 202.45 L 200.01 202.42 C 200.87 202.40 201.54 201.68 201.52 200.83 C 201.49 199.98 200.78 199.30 199.93 199.33 L 198.90 199.35 C 198.04 199.38 197.37 200.09 197.39 200.94 C 197.42 201.80 198.13 202.47 198.98 202.45 Z M 200.03 202.41 L 201.02 202.38 C 201.87 202.34 202.53 201.63 202.50 200.78 C 202.47 199.93 201.75 199.27 200.90 199.30 L 199.91 199.33 C 199.06 199.36 198.40 200.08 198.43 200.93 C 198.46 201.78 199.18 202.44 200.03 202.41 Z M 201.03 202.37 L 201.99 202.33 C 202.84 202.29 203.50 201.57 203.46 200.72 C 203.42 199.87 202.70 199.21 201.85 199.25 L 200.89 199.30 C 200.04 199.34 199.38 200.06 199.42 200.91 C 199.46 201.76 200.18 202.41 201.03 202.37 Z M 202.01 202.32 L 202.99 202.27 C 203.83 202.22 204.48 201.49 204.43 200.64 C 204.38 199.80 203.65 199.15 202.81 199.20 L 201.83 199.26 C 200.99 199.31 200.34 200.03 200.39 200.88 C 200.44 201.73 201.16 202.37 202.01 202.32 Z M 203.00 202.27 L 203.99 202.20 C 204.84 202.14 205.47 201.40 205.41 200.56 C 205.35 199.71 204.62 199.07 203.77 199.13 L 202.79 199.20 C 201.94 199.26 201.30 200.00 201.36 200.84 C 201.42 201.69 202.16 202.33 203.00 202.27 Z M 204.01 202.19 L 205.01 202.11 C 205.85 202.04 206.48 201.29 206.41 200.45 C 206.34 199.61 205.59 198.98 204.75 199.05 L 203.75 199.14 C 202.91 199.21 202.28 199.95 202.35 200.79 C 202.42 201.64 203.17 202.26 204.01 202.19 Z M 205.03 202.10 L 206.04 202.00 C 206.88 201.92 207.50 201.17 207.42 200.33 C 207.33 199.49 206.58 198.87 205.74 198.95 L 204.73 199.06 C 203.89 199.14 203.27 199.89 203.36 200.73 C 203.44 201.57 204.19 202.19 205.03 202.10 Z M 206.07 202.00 L 207.09 201.88 C 207.93 201.79 208.53 201.03 208.44 200.19 C 208.34 199.35 207.58 198.74 206.74 198.84 L 205.72 198.96 C 204.88 199.06 204.27 199.81 204.37 200.65 C 204.47 201.49 205.23 202.10 206.07 202.00 Z M 207.12 201.88 L 208.15 201.74 C 208.99 201.63 209.58 200.86 209.47 200.02 C 209.36 199.19 208.59 198.60 207.75 198.71 L 206.72 198.85 C 205.88 198.96 205.29 199.72 205.40 200.56 C 205.51 201.40 206.28 201.99 207.12 201.88 Z M 208.18 201.74 L 209.13 201.59 C 209.97 201.47 210.54 200.69 210.42 199.86 C 210.30 199.02 209.52 198.45 208.68 198.57 L 207.73 198.71 C 206.89 198.84 206.32 199.61 206.44 200.45 C 206.57 201.28 207.34 201.86 208.18 201.74 Z M 209.15 201.59 L 210.11 201.43 C 210.95 201.30 211.51 200.51 211.38 199.68 C 211.24 198.84 210.45 198.28 209.62 198.42 L 208.66 198.57 C 207.83 198.71 207.26 199.50 207.40 200.33 C 207.53 201.16 208.32 201.73 209.15 201.59 Z M 210.13 201.43 L 211.10 201.26 C 211.93 201.11 212.49 200.32 212.34 199.49 C 212.19 198.65 211.40 198.10 210.57 198.25 L 209.60 198.42 C 208.77 198.57 208.21 199.36 208.36 200.19 C 208.51 201.02 209.30 201.58 210.13 201.43 Z M 211.12 201.26 L 212.10 201.07 C 212.93 200.91 213.47 200.11 213.31 199.28 C 213.16 198.45 212.36 197.91 211.53 198.06 L 210.55 198.25 C 209.72 198.41 209.17 199.21 209.33 200.04 C 209.49 200.87 210.29 201.41 211.12 201.26 Z M 212.12 201.07 L 213.10 200.87 C 213.93 200.70 214.46 199.89 214.30 199.06 C 214.13 198.23 213.32 197.70 212.49 197.87 L 211.51 198.07 C 210.68 198.24 210.15 199.04 210.31 199.87 C 210.48 200.70 211.29 201.23 212.12 201.07 Z M 213.12 200.86 L 214.11 200.65 C 214.94 200.47 215.46 199.66 215.28 198.83 C 215.11 198.01 214.30 197.48 213.47 197.66 L 212.48 197.87 C 211.65 198.05 211.13 198.86 211.30 199.69 C 211.48 200.51 212.29 201.04 213.12 200.86 Z M 214.12 200.65 L 215.12 200.42 C 215.95 200.24 216.46 199.42 216.28 198.60 C 216.09 197.77 215.28 197.25 214.45 197.44 L 213.45 197.66 C 212.63 197.85 212.11 198.66 212.30 199.49 C 212.48 200.31 213.30 200.83 214.12 200.65 Z M 215.14 200.42 L 216.14 200.19 C 216.96 199.99 217.47 199.17 217.28 198.35 C 217.09 197.53 216.26 197.01 215.44 197.21 L 214.44 197.44 C 213.62 197.63 213.11 198.46 213.30 199.28 C 213.49 200.10 214.31 200.61 215.14 200.42 Z M 216.15 200.18 L 217.13 199.95 C 217.95 199.75 218.46 198.92 218.26 198.10 C 218.06 197.28 217.23 196.77 216.41 196.97 L 215.43 197.21 C 214.61 197.41 214.10 198.24 214.30 199.06 C 214.50 199.88 215.33 200.38 216.15 200.18 Z M 217.14 199.94 L 218.10 199.70 C 218.92 199.50 219.42 198.67 219.21 197.85 C 219.01 197.03 218.18 196.53 217.36 196.73 L 216.40 196.97 C 215.58 197.18 215.08 198.01 215.28 198.83 C 215.49 199.65 216.32 200.15 217.14 199.94 Z M 218.11 199.70 L 219.07 199.46 C 219.89 199.25 220.39 198.41 220.18 197.59 C 219.97 196.77 219.13 196.28 218.31 196.49 L 217.35 196.74 C 216.53 196.95 216.04 197.78 216.25 198.60 C 216.46 199.42 217.29 199.91 218.11 199.70 Z M 219.08 199.45 L 220.05 199.20 C 220.86 198.99 221.35 198.15 221.14 197.33 C 220.92 196.51 220.09 196.02 219.27 196.24 L 218.30 196.49 C 217.48 196.70 216.99 197.54 217.21 198.36 C 217.42 199.18 218.26 199.67 219.08 199.45 Z M 220.05 199.20 L 221.02 198.94 C 221.84 198.72 222.32 197.88 222.11 197.07 C 221.89 196.25 221.05 195.76 220.23 195.98 L 219.26 196.24 C 218.44 196.46 217.96 197.30 218.18 198.11 C 218.39 198.93 219.23 199.42 220.05 199.20 Z M 221.02 198.94 L 221.99 198.68 C 222.81 198.46 223.29 197.62 223.07 196.80 C 222.85 195.98 222.01 195.50 221.19 195.72 L 220.22 195.98 C 219.41 196.20 218.92 197.04 219.14 197.86 C 219.36 198.68 220.21 199.16 221.02 198.94 Z M 222.00 198.68 L 222.97 198.41 C 223.79 198.19 224.27 197.35 224.04 196.53 C 223.82 195.71 222.98 195.23 222.16 195.45 L 221.19 195.72 C 220.37 195.94 219.89 196.79 220.11 197.60 C 220.34 198.42 221.18 198.90 222.00 198.68 Z M 222.97 198.42 L 223.94 198.15 C 224.76 197.92 225.24 197.08 225.01 196.26 C 224.79 195.44 223.94 194.96 223.13 195.19 L 222.15 195.45 C 221.34 195.68 220.86 196.52 221.08 197.34 C 221.31 198.16 222.15 198.64 222.97 198.42 Z M 223.94 198.15 L 224.91 197.88 C 225.73 197.65 226.21 196.81 225.99 195.99 C 225.76 195.17 224.91 194.69 224.09 194.92 L 223.12 195.18 C 222.31 195.41 221.83 196.26 222.05 197.08 C 222.28 197.89 223.12 198.37 223.94 198.15 Z M 224.91 197.88 L 225.22 197.80 C 226.03 197.57 226.51 196.72 226.29 195.90 C 226.06 195.09 225.21 194.61 224.39 194.83 L 224.09 194.92 C 223.28 195.14 222.80 195.99 223.02 196.81 C 223.25 197.63 224.10 198.11 224.91 197.88 Z"
      fill="black"
      fill-rule="nonzero" /></svg>