<svg xmlns="http://www.w3.org/2000/svg" width="300" height="300" viewBox="0 0 300 300">
<path d="M 165.59 103.88 L 164.77 104.31 C 163.99 104.72 163.69 105.69 164.10 106.47 C 164.51 107.25 165.47 107.55 166.25 107.14 L 167.07 106.71 C 167.85 106.30 168.16 105.34 167.75 104.56 C 167.34 103.78 166.37 103.48 165.59 103.88 Z M 164.73 104.32 L 163.90 104.78 C 163.12 105.21 162.83 106.19 163.27 106.97 C 163.70 107.75 164.68 108.03 165.46 107.60 L 166.29 107.14 C 167.07 106.71 167.35 105.73 166.92 104.95 C 166.49 104.17 165.51 103.88 164.73 104.32 Z M 163.83 104.80 L 162.97 105.32 C 162.21 105.79 161.97 106.80 162.44 107.56 C 162.91 108.33 163.91 108.57 164.68 108.10 L 165.53 107.58 C 166.30 107.11 166.54 106.10 166.07 105.34 C 165.60 104.57 164.59 104.33 163.83 104.80 Z M 162.88 105.36 L 162.00 105.97 C 161.26 106.49 161.07 107.52 161.59 108.27 C 162.12 109.02 163.14 109.20 163.89 108.68 L 164.77 108.06 C 165.52 107.54 165.70 106.52 165.18 105.77 C 164.66 105.02 163.63 104.84 162.88 105.36 Z M 161.92 106.02 L 161.13 106.64 C 160.41 107.21 160.29 108.26 160.86 108.98 C 161.43 109.70 162.47 109.82 163.19 109.25 L 163.98 108.63 C 164.70 108.06 164.82 107.01 164.25 106.29 C 163.68 105.57 162.64 105.45 161.92 106.02 Z M 161.07 106.69 L 160.33 107.33 C 159.64 107.93 159.57 108.98 160.17 109.68 C 160.77 110.37 161.82 110.44 162.51 109.84 L 163.25 109.20 C 163.94 108.60 164.02 107.55 163.42 106.86 C 162.81 106.17 161.77 106.09 161.07 106.69 Z M 160.30 107.37 L 159.55 108.05 C 158.88 108.68 158.84 109.72 159.46 110.40 C 160.08 111.07 161.13 111.12 161.80 110.49 L 162.55 109.81 C 163.22 109.19 163.26 108.14 162.64 107.46 C 162.02 106.79 160.97 106.75 160.30 107.37 Z M 159.53 108.08 L 158.79 108.79 C 158.13 109.43 158.11 110.48 158.74 111.14 C 159.37 111.80 160.42 111.82 161.08 111.18 L 161.82 110.47 C 162.48 109.84 162.50 108.79 161.87 108.13 C 161.24 107.47 160.19 107.45 159.53 108.08 Z M 158.77 108.81 L 158.04 109.53 C 157.39 110.17 157.39 111.22 158.03 111.87 C 158.67 112.52 159.71 112.53 160.37 111.88 L 161.09 111.17 C 161.74 110.52 161.75 109.48 161.11 108.83 C 160.47 108.18 159.42 108.17 158.77 108.81 Z M 158.04 109.54 L 157.33 110.25 C 156.68 110.89 156.68 111.94 157.32 112.58 C 157.97 113.23 159.01 113.23 159.66 112.59 L 160.37 111.88 C 161.02 111.23 161.02 110.19 160.37 109.54 C 159.73 108.90 158.68 108.89 158.04 109.54 Z M 157.33 110.25 L 156.58 111.00 C 155.94 111.64 155.94 112.68 156.58 113.33 C 157.23 113.97 158.27 113.97 158.91 113.33 L 159.66 112.58 C 160.30 111.94 160.30 110.90 159.66 110.25 C 159.01 109.61 157.97 109.61 157.33 110.25 Z M 156.58 111.00 L 155.87 111.71 C 155.23 112.35 155.22 113.39 155.87 114.04 C 156.51 114.68 157.55 114.68 158.20 114.04 L 158.91 113.33 C 159.56 112.69 159.56 111.64 158.92 111.00 C 158.27 110.35 157.23 110.35 156.58 111.00 Z M 155.87 111.71 L 155.18 112.40 C 154.53 113.04 154.53 114.08 155.17 114.73 C 155.81 115.37 156.85 115.38 157.50 114.74 L 158.20 114.04 C 158.84 113.40 158.84 112.36 158.20 111.71 C 157.56 111.07 156.52 111.06 155.87 111.71 Z M 155.18 112.40 L 154.49 113.08 C 153.84 113.72 153.84 114.76 154.48 115.41 C 155.12 116.06 156.16 116.06 156.81 115.42 L 157.50 114.74 C 158.14 114.10 158.15 113.06 157.51 112.41 C 156.87 111.76 155.83 111.76 155.18 112.40 Z M 154.49 113.08 L 153.80 113.76 C 153.15 114.40 153.14 115.44 153.78 116.09 C 154.42 116.73 155.46 116.74 156.11 116.11 L 156.80 115.42 C 157.45 114.79 157.46 113.74 156.82 113.10 C 156.18 112.45 155.14 112.44 154.49 113.08 Z M 153.80 113.76 L 153.12 114.43 C 152.47 115.06 152.46 116.10 153.09 116.75 C 153.73 117.40 154.77 117.41 155.42 116.78 L 156.10 116.11 C 156.75 115.47 156.77 114.43 156.13 113.78 C 155.50 113.13 154.45 113.12 153.80 113.76 Z M 153.12 114.42 L 152.42 115.11 C 151.77 115.74 151.75 116.78 152.39 117.43 C 153.02 118.08 154.06 118.10 154.71 117.46 L 155.41 116.78 C 156.06 116.15 156.08 115.11 155.45 114.46 C 154.82 113.81 153.77 113.79 153.12 114.42 Z M 152.43 115.10 L 151.71 115.80 C 151.05 116.43 151.03 117.47 151.66 118.12 C 152.29 118.77 153.33 118.79 153.99 118.16 L 154.71 117.47 C 155.36 116.84 155.38 115.80 154.75 115.14 C 154.12 114.49 153.08 114.47 152.43 115.10 Z M 151.71 115.79 L 150.97 116.50 C 150.32 117.13 150.30 118.17 150.93 118.82 C 151.55 119.47 152.59 119.50 153.25 118.87 L 153.98 118.16 C 154.64 117.54 154.66 116.50 154.03 115.84 C 153.40 115.19 152.37 115.17 151.71 115.79 Z M 150.98 116.50 L 150.22 117.22 C 149.57 117.84 149.54 118.88 150.17 119.54 C 150.79 120.19 151.83 120.22 152.49 119.59 L 153.24 118.87 C 153.90 118.25 153.92 117.21 153.30 116.55 C 152.67 115.90 151.63 115.87 150.98 116.50 Z M 150.23 117.21 L 149.53 117.88 C 148.87 118.50 148.84 119.54 149.46 120.20 C 150.09 120.85 151.12 120.88 151.78 120.26 L 152.48 119.59 C 153.14 118.97 153.17 117.93 152.54 117.28 C 151.92 116.62 150.88 116.59 150.23 117.21 Z M 149.53 117.88 L 148.82 118.55 C 148.16 119.17 148.13 120.20 148.75 120.86 C 149.37 121.52 150.40 121.55 151.06 120.93 L 151.77 120.26 C 152.43 119.64 152.47 118.61 151.85 117.95 C 151.23 117.29 150.19 117.26 149.53 117.88 Z M 148.83 118.54 L 148.10 119.22 C 147.44 119.83 147.40 120.87 148.02 121.53 C 148.63 122.19 149.67 122.23 150.33 121.61 L 151.06 120.94 C 151.72 120.32 151.75 119.29 151.14 118.62 C 150.52 117.96 149.49 117.93 148.83 118.54 Z M 148.11 119.21 L 147.36 119.90 C 146.70 120.51 146.66 121.54 147.27 122.21 C 147.88 122.87 148.91 122.91 149.57 122.30 L 150.32 121.62 C 150.98 121.01 151.03 119.98 150.42 119.31 C 149.81 118.65 148.77 118.60 148.11 119.21 Z M 147.38 119.89 L 146.62 120.58 C 145.95 121.18 145.90 122.21 146.50 122.88 C 147.10 123.55 148.14 123.60 148.80 123.00 L 149.56 122.31 C 150.23 121.71 150.28 120.67 149.68 120.01 C 149.07 119.34 148.04 119.29 147.38 119.89 Z M 146.63 120.57 L 145.86 121.25 C 145.19 121.85 145.13 122.88 145.72 123.55 C 146.32 124.22 147.35 124.28 148.02 123.69 L 148.79 123.01 C 149.46 122.41 149.53 121.38 148.93 120.71 C 148.33 120.03 147.30 119.97 146.63 120.57 Z M 145.87 121.24 L 145.13 121.89 C 144.45 122.48 144.38 123.51 144.97 124.18 C 145.57 124.86 146.59 124.93 147.27 124.34 L 148.01 123.70 C 148.69 123.11 148.76 122.08 148.17 121.40 C 147.58 120.72 146.55 120.65 145.87 121.24 Z M 145.14 121.88 L 144.39 122.52 C 143.71 123.11 143.63 124.13 144.21 124.82 C 144.80 125.50 145.82 125.58 146.51 124.99 L 147.26 124.35 C 147.94 123.77 148.02 122.74 147.44 122.06 C 146.85 121.37 145.83 121.29 145.14 121.88 Z M 144.40 122.51 L 143.64 123.16 C 142.95 123.74 142.86 124.76 143.44 125.45 C 144.02 126.13 145.04 126.22 145.73 125.65 L 146.50 125.00 C 147.18 124.42 147.27 123.40 146.69 122.71 C 146.11 122.02 145.09 121.94 144.40 122.51 Z M 143.65 123.15 L 142.87 123.79 C 142.18 124.36 142.09 125.39 142.66 126.08 C 143.23 126.77 144.25 126.87 144.95 126.29 L 145.72 125.65 C 146.41 125.08 146.51 124.06 145.94 123.37 C 145.36 122.67 144.34 122.58 143.65 123.15 Z M 142.88 123.78 L 142.10 124.42 C 141.41 124.99 141.30 126.01 141.87 126.71 C 142.43 127.40 143.46 127.51 144.15 126.94 L 144.94 126.30 C 145.63 125.73 145.73 124.71 145.17 124.02 C 144.60 123.32 143.58 123.22 142.88 123.78 Z M 142.11 124.42 L 141.32 125.05 C 140.62 125.61 140.51 126.63 141.07 127.33 C 141.63 128.03 142.65 128.14 143.35 127.58 L 144.14 126.95 C 144.84 126.39 144.95 125.36 144.39 124.67 C 143.83 123.97 142.81 123.86 142.11 124.42 Z M 141.33 125.05 L 140.54 125.67 C 139.83 126.23 139.72 127.25 140.27 127.95 C 140.83 128.65 141.85 128.77 142.55 128.22 L 143.34 127.59 C 144.04 127.03 144.16 126.01 143.61 125.31 C 143.05 124.61 142.03 124.49 141.33 125.05 Z M 140.54 125.67 L 139.75 126.29 C 139.04 126.84 138.92 127.86 139.47 128.56 C 140.02 129.27 141.04 129.39 141.75 128.84 L 142.54 128.22 C 143.25 127.67 143.37 126.65 142.82 125.95 C 142.27 125.24 141.25 125.12 140.54 125.67 Z M 139.76 126.28 L 138.96 126.90 C 138.25 127.45 138.12 128.47 138.67 129.17 C 139.22 129.88 140.23 130.01 140.94 129.46 L 141.74 128.85 C 142.45 128.30 142.58 127.28 142.03 126.57 C 141.48 125.87 140.46 125.74 139.76 126.28 Z M 138.96 126.90 L 138.17 127.51 C 137.46 128.05 137.32 129.07 137.87 129.78 C 138.41 130.49 139.43 130.62 140.14 130.08 L 140.94 129.47 C 141.65 128.92 141.78 127.91 141.24 127.20 C 140.69 126.49 139.68 126.35 138.96 126.90 Z M 138.17 127.50 L 137.38 128.10 C 136.67 128.65 136.53 129.66 137.07 130.38 C 137.62 131.09 138.63 131.23 139.35 130.68 L 140.14 130.08 C 140.85 129.54 140.99 128.52 140.45 127.81 C 139.90 127.10 138.89 126.96 138.17 127.50 Z M 137.39 128.10 L 136.60 128.69 C 135.89 129.23 135.75 130.25 136.29 130.96 C 136.83 131.68 137.84 131.82 138.56 131.28 L 139.34 130.69 C 140.06 130.15 140.20 129.13 139.66 128.42 C 139.12 127.70 138.10 127.56 137.39 128.10 Z M 136.61 128.69 L 135.79 129.30 C 135.08 129.84 134.93 130.86 135.47 131.57 C 136.01 132.29 137.03 132.43 137.74 131.89 L 138.56 131.28 C 139.27 130.74 139.41 129.73 138.88 129.01 C 138.34 128.30 137.32 128.15 136.61 128.69 Z M 135.80 129.30 L 134.98 129.91 C 134.27 130.44 134.12 131.46 134.66 132.18 C 135.19 132.89 136.21 133.04 136.92 132.50 L 137.74 131.90 C 138.45 131.36 138.60 130.35 138.06 129.63 C 137.53 128.91 136.51 128.77 135.80 129.30 Z M 134.99 129.90 L 134.18 130.50 C 133.47 131.03 133.31 132.04 133.84 132.76 C 134.38 133.48 135.39 133.63 136.11 133.10 L 136.91 132.51 C 137.63 131.98 137.79 130.96 137.25 130.25 C 136.72 129.53 135.71 129.37 134.99 129.90 Z M 134.19 130.50 L 133.39 131.08 C 132.67 131.61 132.51 132.62 133.04 133.34 C 133.56 134.06 134.57 134.22 135.29 133.69 L 136.10 133.11 C 136.82 132.58 136.98 131.57 136.45 130.85 C 135.93 130.13 134.92 129.97 134.19 130.50 Z M 133.40 131.07 L 132.60 131.65 C 131.88 132.16 131.71 133.17 132.23 133.90 C 132.75 134.62 133.75 134.79 134.48 134.27 L 135.28 133.70 C 136.01 133.18 136.17 132.17 135.66 131.45 C 135.14 130.72 134.13 130.55 133.40 131.07 Z M 132.62 131.64 L 131.81 132.20 C 131.08 132.71 130.91 133.72 131.42 134.45 C 131.93 135.18 132.93 135.35 133.66 134.84 L 134.47 134.28 C 135.20 133.77 135.37 132.77 134.86 132.04 C 134.35 131.31 133.35 131.13 132.62 131.64 Z M 131.83 132.19 L 130.95 132.79 C 130.21 133.29 130.02 134.30 130.52 135.03 C 131.02 135.77 132.03 135.96 132.76 135.46 L 133.65 134.85 C 134.38 134.35 134.57 133.35 134.07 132.61 C 133.57 131.88 132.57 131.69 131.83 132.19 Z M 130.96 132.78 L 130.08 133.36 C 129.34 133.85 129.14 134.86 129.63 135.60 C 130.12 136.34 131.12 136.54 131.87 136.05 L 132.75 135.47 C 133.49 134.98 133.69 133.97 133.20 133.23 C 132.71 132.49 131.71 132.29 130.96 132.78 Z M 130.10 133.35 L 129.24 133.91 C 128.49 134.39 128.28 135.39 128.76 136.14 C 129.24 136.89 130.24 137.10 130.99 136.62 L 131.85 136.06 C 132.60 135.58 132.81 134.58 132.33 133.83 C 131.85 133.08 130.85 132.87 130.10 133.35 Z M 129.26 133.90 L 128.43 134.42 C 127.67 134.89 127.45 135.89 127.92 136.64 C 128.40 137.39 129.39 137.62 130.15 137.15 L 130.97 136.63 C 131.73 136.15 131.96 135.16 131.48 134.40 C 131.01 133.65 130.01 133.42 129.26 133.90 Z M 128.45 134.40 L 127.66 134.88 C 126.90 135.35 126.66 136.34 127.13 137.10 C 127.59 137.86 128.58 138.10 129.34 137.64 L 130.13 137.16 C 130.89 136.70 131.13 135.70 130.67 134.94 C 130.20 134.18 129.21 133.94 128.45 134.40 Z M 127.69 134.87 L 126.80 135.39 C 126.03 135.84 125.77 136.83 126.22 137.60 C 126.67 138.37 127.66 138.63 128.43 138.17 L 129.32 137.65 C 130.09 137.20 130.35 136.21 129.90 135.44 C 129.45 134.67 128.46 134.42 127.69 134.87 Z M 126.84 135.37 L 125.94 135.86 C 125.16 136.29 124.87 137.27 125.30 138.05 C 125.73 138.84 126.71 139.12 127.49 138.69 L 128.39 138.20 C 129.17 137.77 129.46 136.79 129.03 136.00 C 128.60 135.22 127.62 134.94 126.84 135.37 Z M 125.99 135.83 L 125.13 136.26 C 124.34 136.66 124.01 137.63 124.41 138.42 C 124.81 139.22 125.78 139.55 126.57 139.15 L 127.43 138.72 C 128.23 138.32 128.56 137.35 128.16 136.56 C 127.76 135.76 126.79 135.43 125.99 135.83 Z M 125.20 136.23 L 124.34 136.61 C 123.52 136.96 123.15 137.92 123.51 138.73 C 123.87 139.55 124.82 139.92 125.64 139.56 L 126.50 139.18 C 127.32 138.82 127.69 137.87 127.33 137.05 C 126.97 136.24 126.02 135.87 125.20 136.23 Z M 124.41 136.57 L 123.22 137.03 C 122.38 137.35 121.96 138.28 122.28 139.11 C 122.60 139.95 123.53 140.37 124.37 140.05 L 125.56 139.60 C 126.40 139.28 126.82 138.35 126.50 137.51 C 126.18 136.68 125.25 136.26 124.41 136.57 Z M 123.24 137.02 L 122.16 137.42 C 121.32 137.72 120.89 138.65 121.20 139.49 C 121.51 140.33 122.43 140.76 123.27 140.45 L 124.35 140.06 C 125.19 139.75 125.62 138.82 125.31 137.98 C 125.00 137.14 124.07 136.71 123.24 137.02 Z M 121.91 137.53 L 121.50 137.77 C 120.72 138.21 120.46 139.20 120.90 139.97 C 121.34 140.75 122.33 141.02 123.11 140.57 L 123.52 140.34 C 124.29 139.89 124.56 138.91 124.12 138.13 C 123.68 137.36 122.69 137.09 121.91 137.53 Z M 122.09 140.77 L 122.62 140.85 C 123.50 140.97 124.32 140.35 124.44 139.46 C 124.56 138.57 123.94 137.76 123.05 137.64 L 122.52 137.57 C 121.64 137.45 120.82 138.07 120.70 138.95 C 120.58 139.84 121.20 140.65 122.09 140.77 Z M 122.71 140.86 L 123.87 140.95 C 124.76 141.02 125.54 140.35 125.61 139.46 C 125.68 138.56 125.01 137.78 124.12 137.72 L 122.96 137.63 C 122.07 137.56 121.29 138.23 121.22 139.12 C 121.15 140.01 121.82 140.79 122.71 140.86 Z M 123.64 140.91 L 124.85 141.19 C 125.72 141.39 126.59 140.84 126.79 139.97 C 126.99 139.09 126.44 138.22 125.57 138.02 L 124.36 137.75 C 123.48 137.55 122.61 138.10 122.41 138.97 C 122.22 139.85 122.76 140.72 123.64 140.91 Z M 124.54 141.09 L 125.40 141.48 C 126.22 141.84 127.18 141.48 127.55 140.66 C 127.92 139.84 127.55 138.88 126.73 138.51 L 125.87 138.12 C 125.05 137.76 124.09 138.12 123.72 138.94 C 123.36 139.76 123.72 140.72 124.54 141.09 Z M 125.19 141.37 L 126.02 141.89 C 126.78 142.38 127.79 142.15 128.27 141.39 C 128.75 140.63 128.53 139.62 127.77 139.14 L 126.94 138.61 C 126.18 138.13 125.17 138.36 124.69 139.12 C 124.21 139.88 124.43 140.89 125.19 141.37 Z M 125.88 141.80 L 126.68 142.44 C 127.39 143.00 128.42 142.88 128.98 142.18 C 129.54 141.47 129.42 140.44 128.72 139.88 L 127.91 139.24 C 127.20 138.68 126.18 138.79 125.61 139.50 C 125.05 140.21 125.17 141.23 125.88 141.80 Z M 126.59 142.36 L 127.36 143.08 C 128.03 143.69 129.07 143.65 129.68 142.98 C 130.29 142.32 130.25 141.28 129.59 140.67 L 128.81 139.95 C 128.15 139.34 127.11 139.38 126.50 140.05 C 125.88 140.71 125.92 141.75 126.59 142.36 Z M 127.30 143.03 L 127.97 143.70 C 128.60 144.34 129.64 144.35 130.29 143.72 C 130.94 143.08 130.94 142.04 130.31 141.39 L 129.65 140.72 C 129.01 140.07 127.97 140.07 127.32 140.70 C 126.68 141.34 126.67 142.38 127.30 143.03 Z M 127.92 143.65 L 128.57 144.37 C 129.18 145.05 130.22 145.10 130.90 144.49 C 131.57 143.88 131.62 142.84 131.01 142.16 L 130.36 141.44 C 129.75 140.77 128.71 140.71 128.03 141.32 C 127.36 141.93 127.31 142.98 127.92 143.65 Z M 128.52 144.32 L 129.17 145.10 C 129.75 145.80 130.79 145.90 131.49 145.31 C 132.19 144.73 132.29 143.69 131.71 142.99 L 131.06 142.21 C 130.48 141.51 129.44 141.42 128.74 142.00 C 128.04 142.58 127.94 143.62 128.52 144.32 Z M 129.12 145.05 L 129.75 145.87 C 130.30 146.60 131.34 146.74 132.07 146.19 C 132.79 145.63 132.93 144.59 132.38 143.87 L 131.75 143.04 C 131.20 142.31 130.16 142.17 129.43 142.73 C 128.71 143.28 128.57 144.32 129.12 145.05 Z M 129.70 145.81 L 130.30 146.68 C 130.82 147.43 131.86 147.62 132.61 147.10 C 133.36 146.58 133.55 145.54 133.03 144.79 L 132.43 143.92 C 131.91 143.17 130.87 142.98 130.12 143.50 C 129.36 144.03 129.18 145.06 129.70 145.81 Z M 130.26 146.62 L 130.81 147.50 C 131.31 148.28 132.33 148.51 133.11 148.02 C 133.89 147.53 134.12 146.50 133.63 145.73 L 133.07 144.85 C 132.58 144.07 131.55 143.84 130.78 144.33 C 130.00 144.82 129.77 145.85 130.26 146.62 Z M 130.78 147.46 L 131.31 148.36 C 131.77 149.15 132.79 149.42 133.59 148.95 C 134.38 148.49 134.65 147.47 134.19 146.67 L 133.66 145.77 C 133.20 144.98 132.18 144.71 131.38 145.18 C 130.58 145.64 130.32 146.66 130.78 147.46 Z M 131.28 148.31 L 131.77 149.21 C 132.21 150.02 133.22 150.32 134.03 149.88 C 134.84 149.44 135.14 148.42 134.70 147.61 L 134.21 146.71 C 133.77 145.90 132.76 145.60 131.95 146.05 C 131.14 146.49 130.84 147.50 131.28 148.31 Z M 131.74 149.17 L 132.19 150.04 C 132.61 150.87 133.62 151.19 134.44 150.77 C 135.27 150.35 135.59 149.34 135.17 148.52 L 134.73 147.65 C 134.30 146.82 133.30 146.50 132.47 146.92 C 131.65 147.34 131.32 148.35 131.74 149.17 Z M 132.17 150.01 L 132.56 150.83 C 132.97 151.67 133.97 152.02 134.81 151.62 C 135.64 151.21 135.99 150.21 135.59 149.37 L 135.19 148.55 C 134.79 147.72 133.79 147.36 132.95 147.77 C 132.12 148.17 131.76 149.17 132.17 150.01 Z M 132.54 150.79 L 133.01 151.83 C 133.39 152.68 134.38 153.06 135.23 152.68 C 136.08 152.30 136.46 151.30 136.08 150.46 L 135.61 149.42 C 135.23 148.57 134.24 148.19 133.39 148.57 C 132.54 148.95 132.16 149.94 132.54 150.79 Z M 132.98 151.78 L 133.36 152.72 C 133.71 153.58 134.69 154.00 135.56 153.65 C 136.42 153.30 136.84 152.31 136.49 151.45 L 136.11 150.51 C 135.76 149.65 134.77 149.23 133.91 149.58 C 133.04 149.93 132.63 150.91 132.98 151.78 Z M 133.33 152.66 L 133.65 153.53 C 133.97 154.41 134.94 154.86 135.82 154.54 C 136.70 154.23 137.15 153.25 136.83 152.38 L 136.51 151.50 C 136.19 150.63 135.22 150.17 134.35 150.49 C 133.47 150.81 133.01 151.78 133.33 152.66 Z M 133.63 153.48 L 133.92 154.36 C 134.21 155.25 135.16 155.74 136.05 155.45 C 136.94 155.16 137.43 154.20 137.14 153.31 L 136.85 152.43 C 136.56 151.54 135.61 151.05 134.72 151.34 C 133.83 151.63 133.34 152.59 133.63 153.48 Z M 133.89 154.31 L 134.18 155.27 C 134.44 156.18 135.38 156.69 136.28 156.43 C 137.18 156.17 137.70 155.23 137.44 154.33 L 137.16 153.36 C 136.90 152.46 135.96 151.94 135.05 152.20 C 134.15 152.46 133.63 153.41 133.89 154.31 Z M 134.16 155.21 L 134.40 156.18 C 134.63 157.09 135.55 157.65 136.46 157.42 C 137.38 157.19 137.93 156.26 137.70 155.35 L 137.46 154.39 C 137.23 153.47 136.31 152.92 135.39 153.15 C 134.48 153.38 133.93 154.30 134.16 155.21 Z M 134.38 156.11 L 134.58 157.08 C 134.77 158.01 135.68 158.60 136.60 158.41 C 137.52 158.21 138.12 157.31 137.92 156.39 L 137.72 155.42 C 137.53 154.49 136.62 153.90 135.70 154.09 C 134.78 154.29 134.18 155.19 134.38 156.11 Z M 134.56 157.02 L 134.73 157.99 C 134.89 158.92 135.77 159.55 136.70 159.39 C 137.63 159.24 138.26 158.35 138.10 157.42 L 137.94 156.45 C 137.78 155.52 136.90 154.89 135.97 155.05 C 135.04 155.20 134.41 156.09 134.56 157.02 Z M 134.72 157.94 L 134.85 158.93 C 134.98 159.86 135.84 160.52 136.78 160.39 C 137.72 160.27 138.38 159.40 138.25 158.46 L 138.12 157.48 C 137.99 156.54 137.12 155.88 136.19 156.01 C 135.25 156.13 134.59 157.00 134.72 157.94 Z M 134.84 158.88 L 134.95 159.89 C 135.06 160.84 135.91 161.52 136.85 161.41 C 137.80 161.31 138.48 160.46 138.37 159.51 L 138.26 158.50 C 138.15 157.56 137.30 156.88 136.36 156.99 C 135.42 157.09 134.74 157.94 134.84 158.88 Z M 134.95 159.87 L 135.04 160.85 C 135.13 161.80 135.97 162.49 136.92 162.40 C 137.87 162.31 138.56 161.47 138.47 160.53 L 138.38 159.54 C 138.29 158.59 137.45 157.90 136.50 157.99 C 135.55 158.08 134.86 158.92 134.95 159.87 Z M 135.04 160.83 L 135.12 161.83 C 135.20 162.77 136.03 163.48 136.98 163.40 C 137.93 163.32 138.63 162.49 138.55 161.54 L 138.47 160.55 C 138.40 159.60 137.56 158.90 136.62 158.97 C 135.67 159.05 134.96 159.88 135.04 160.83 Z M 135.12 161.81 L 135.19 162.81 C 135.25 163.76 136.08 164.48 137.03 164.41 C 137.98 164.34 138.69 163.52 138.63 162.57 L 138.56 161.57 C 138.49 160.62 137.67 159.90 136.72 159.97 C 135.77 160.03 135.05 160.86 135.12 161.81 Z M 135.19 162.79 L 135.25 163.80 C 135.30 164.75 136.12 165.47 137.07 165.42 C 138.02 165.36 138.74 164.55 138.69 163.60 L 138.63 162.59 C 138.57 161.64 137.76 160.91 136.81 160.97 C 135.86 161.02 135.13 161.84 135.19 162.79 Z M 135.24 163.78 L 135.29 164.78 C 135.34 165.73 136.14 166.46 137.09 166.42 C 138.05 166.37 138.78 165.57 138.74 164.61 L 138.69 163.61 C 138.64 162.66 137.84 161.93 136.89 161.97 C 135.93 162.02 135.20 162.83 135.24 163.78 Z M 135.29 164.76 L 135.33 165.76 C 135.36 166.71 136.16 167.45 137.11 167.42 C 138.06 167.38 138.81 166.58 138.77 165.63 L 138.74 164.63 C 138.70 163.68 137.90 162.94 136.95 162.97 C 136.00 163.01 135.26 163.80 135.29 164.76 Z M 135.33 165.74 L 135.35 166.74 C 135.37 167.69 136.16 168.44 137.12 168.42 C 138.07 168.39 138.82 167.60 138.80 166.65 L 138.77 165.65 C 138.75 164.70 137.96 163.95 137.01 163.97 C 136.05 163.99 135.30 164.78 135.33 165.74 Z M 135.35 166.72 L 135.36 167.71 C 135.38 168.66 136.16 169.42 137.11 169.41 C 138.06 169.40 138.82 168.62 138.81 167.66 L 138.80 166.67 C 138.78 165.72 138.00 164.96 137.05 164.97 C 136.10 164.98 135.34 165.77 135.35 166.72 Z M 135.37 167.70 L 135.37 168.70 C 135.38 169.65 136.15 170.41 137.10 170.41 C 138.06 170.40 138.82 169.62 138.82 168.67 L 138.81 167.68 C 138.80 166.73 138.03 165.96 137.08 165.97 C 136.13 165.97 135.36 166.75 135.37 167.70 Z M 135.38 168.69 L 135.38 169.69 C 135.38 170.64 136.15 171.41 137.10 171.41 C 138.05 171.41 138.82 170.64 138.81 169.69 L 138.81 168.68 C 138.81 167.73 138.04 166.96 137.09 166.97 C 136.14 166.97 135.37 167.74 135.38 168.69 Z M 135.38 169.69 L 135.38 170.66 C 135.38 171.61 136.15 172.38 137.10 172.38 C 138.04 172.38 138.81 171.61 138.81 170.66 L 138.81 169.69 C 138.81 168.74 138.04 167.97 137.10 167.97 C 136.15 167.97 135.38 168.74 135.38 169.69 Z M 135.38 170.66 L 135.38 171.62 C 135.38 172.56 136.15 173.33 137.10 173.33 C 138.04 173.33 138.81 172.56 138.81 171.62 L 138.81 170.66 C 138.81 169.71 138.04 168.95 137.10 168.95 C 136.15 168.95 135.38 169.71 135.38 170.66 Z M 135.39 171.62 L 135.39 172.61 C 135.39 173.56 136.15 174.32 137.10 174.32 C 138.04 174.32 138.80 173.56 138.80 172.61 L 138.80 171.62 C 138.80 170.67 138.04 169.91 137.10 169.91 C 136.15 169.91 135.39 170.67 135.39 171.62 Z M 135.39 172.61 L 135.39 173.67 C 135.39 174.61 136.16 175.38 137.10 175.38 C 138.04 175.38 138.80 174.61 138.80 173.67 L 138.80 172.61 C 138.80 171.67 138.04 170.91 137.10 170.91 C 136.16 170.91 135.39 171.67 135.39 172.61 Z M 135.40 173.67 L 135.40 174.67 C 135.40 175.61 136.16 176.37 137.10 176.37 C 138.03 176.37 138.79 175.61 138.79 174.67 L 138.79 173.67 C 138.79 172.74 138.03 171.97 137.10 171.97 C 136.16 171.97 135.40 172.73 135.40 173.67 Z M 135.40 174.67 L 135.40 175.68 C 135.40 176.62 136.16 177.38 137.09 177.38 C 138.03 177.38 138.78 176.62 138.79 175.69 L 138.79 174.68 C 138.79 173.74 138.03 172.98 137.10 172.98 C 136.16 172.98 135.41 173.74 135.40 174.67 Z M 135.41 175.68 L 135.40 176.70 C 135.40 177.63 136.15 178.39 137.08 178.39 C 138.01 178.40 138.77 177.64 138.78 176.71 L 138.78 175.69 C 138.78 174.76 138.03 174.00 137.10 174.00 C 136.17 174.00 135.41 174.75 135.41 175.68 Z M 135.41 176.69 L 135.40 177.70 C 135.39 178.62 136.14 179.38 137.07 179.39 C 137.99 179.40 138.75 178.65 138.76 177.72 L 138.77 176.72 C 138.78 175.79 138.03 175.04 137.10 175.03 C 136.18 175.02 135.42 175.76 135.41 176.69 Z M 135.41 177.68 L 135.39 178.91 C 135.38 179.83 136.11 180.59 137.03 180.60 C 137.95 180.62 138.71 179.89 138.73 178.97 L 138.75 177.74 C 138.76 176.82 138.03 176.06 137.11 176.04 C 136.19 176.03 135.43 176.76 135.41 177.68 Z M 135.42 178.89 L 135.38 180.10 C 135.35 181.01 136.07 181.77 136.97 181.79 C 137.88 181.82 138.64 181.11 138.67 180.20 L 138.70 178.99 C 138.73 178.08 138.02 177.32 137.11 177.30 C 136.20 177.27 135.45 177.98 135.42 178.89 Z M 135.42 179.99 L 135.39 180.33 C 135.30 181.21 135.94 182.00 136.83 182.10 C 137.71 182.19 138.50 181.54 138.59 180.65 L 138.63 180.32 C 138.72 179.43 138.07 178.64 137.19 178.55 C 136.30 178.46 135.51 179.10 135.42 179.99 Z M 138.57 180.44 L 138.55 179.99 C 138.52 179.11 137.80 178.43 136.92 178.46 C 136.05 178.49 135.37 179.21 135.40 180.09 L 135.41 180.54 C 135.44 181.41 136.17 182.10 137.04 182.07 C 137.91 182.04 138.59 181.31 138.57 180.44 Z M 138.52 180.02 L 138.51 179.18 C 138.50 178.33 137.81 177.65 136.95 177.65 C 136.10 177.66 135.42 178.36 135.43 179.21 L 135.43 180.05 C 135.44 180.90 136.14 181.58 136.99 181.58 C 137.84 181.57 138.52 180.87 138.52 180.02 Z M 138.47 179.19 L 138.47 178.06 C 138.47 177.23 137.79 176.56 136.96 176.57 C 136.13 176.57 135.46 177.24 135.46 178.07 L 135.46 179.20 C 135.47 180.03 136.14 180.70 136.97 180.70 C 137.80 180.70 138.47 180.02 138.47 179.19 Z M 138.43 178.07 L 138.43 176.77 C 138.43 175.96 137.77 175.30 136.96 175.30 C 136.15 175.30 135.50 175.96 135.50 176.77 L 135.50 178.07 C 135.50 178.88 136.16 179.54 136.97 179.53 C 137.78 179.53 138.43 178.88 138.43 178.07 Z M 138.40 176.77 L 138.40 176.07 C 138.40 175.28 137.76 174.64 136.96 174.64 C 136.17 174.64 135.53 175.28 135.53 176.07 L 135.53 176.77 C 135.53 177.56 136.17 178.21 136.96 178.21 C 137.76 178.21 138.40 177.56 138.40 176.77 Z"
      fill="black"
      fill-rule="nonzero" /><path d="M 133.42 134.15 L 132.06 133.90 C 131.19 133.73 130.35 134.30 130.19 135.17 C 130.02 136.04 130.60 136.88 131.47 137.04 L 132.83 137.30 C 133.70 137.46 134.54 136.89 134.70 136.02 C 134.86 135.15 134.29 134.32 133.42 134.15 Z M 132.08 133.86 L 130.86 133.62 C 129.98 133.45 129.11 134.02 128.94 134.91 C 128.76 135.80 129.34 136.66 130.23 136.83 L 131.44 137.08 C 132.33 137.25 133.19 136.67 133.37 135.79 C 133.54 134.90 132.97 134.04 132.08 133.86 Z M 130.92 133.59 L 130.01 133.38 C 129.10 133.18 128.21 133.74 128.00 134.64 C 127.79 135.54 128.35 136.44 129.26 136.65 L 130.17 136.86 C 131.07 137.07 131.97 136.50 132.18 135.60 C 132.38 134.70 131.82 133.80 130.92 133.59 Z M 130.21 133.40 L 129.75 133.24 C 128.85 132.92 127.87 133.39 127.56 134.28 C 127.24 135.17 127.71 136.15 128.60 136.47 L 129.06 136.63 C 129.95 136.95 130.93 136.48 131.25 135.59 C 131.56 134.70 131.10 133.72 130.21 133.40 Z M 130.02 136.37 L 130.24 136.25 C 131.08 135.78 131.38 134.72 130.91 133.88 C 130.44 133.05 129.38 132.75 128.54 133.22 L 128.32 133.34 C 127.49 133.81 127.19 134.87 127.66 135.70 C 128.12 136.54 129.18 136.84 130.02 136.37 Z M 129.47 136.48 L 130.42 136.43 C 131.38 136.39 132.13 135.57 132.08 134.61 C 132.04 133.64 131.22 132.90 130.26 132.94 L 129.31 132.99 C 128.35 133.03 127.60 133.85 127.65 134.81 C 127.69 135.78 128.51 136.52 129.47 136.48 Z M 130.32 136.44 L 131.70 136.45 C 132.67 136.46 133.46 135.68 133.47 134.72 C 133.48 133.75 132.70 132.96 131.73 132.95 L 130.36 132.93 C 129.39 132.93 128.60 133.70 128.59 134.67 C 128.58 135.64 129.36 136.43 130.32 136.44 Z M 131.67 136.46 L 132.77 136.49 C 133.74 136.52 134.55 135.75 134.58 134.78 C 134.60 133.81 133.84 133.00 132.87 132.97 L 131.77 132.94 C 130.80 132.92 129.99 133.68 129.96 134.65 C 129.93 135.62 130.70 136.43 131.67 136.46 Z M 132.75 136.49 L 133.72 136.53 C 134.69 136.56 135.50 135.80 135.54 134.83 C 135.57 133.86 134.82 133.04 133.84 133.01 L 132.88 132.97 C 131.91 132.94 131.09 133.70 131.06 134.67 C 131.02 135.64 131.78 136.46 132.75 136.49 Z M 133.71 136.53 L 134.70 136.57 C 135.67 136.61 136.49 135.85 136.53 134.87 C 136.56 133.90 135.81 133.08 134.83 133.04 L 133.85 133.00 C 132.87 132.97 132.05 133.72 132.02 134.70 C 131.98 135.67 132.74 136.49 133.71 136.53 Z M 134.70 136.57 L 135.71 136.61 C 136.69 136.64 137.51 135.88 137.54 134.91 C 137.58 133.93 136.82 133.11 135.84 133.08 L 134.83 133.04 C 133.86 133.00 133.04 133.76 133.00 134.74 C 132.96 135.71 133.72 136.53 134.70 136.57 Z M 135.72 136.61 L 136.77 136.64 C 137.74 136.67 138.56 135.91 138.59 134.93 C 138.62 133.96 137.86 133.14 136.88 133.11 L 135.83 133.07 C 134.86 133.04 134.04 133.81 134.01 134.79 C 133.98 135.76 134.75 136.58 135.72 136.61 Z M 136.78 136.65 L 137.83 136.67 C 138.81 136.69 139.62 135.92 139.64 134.94 C 139.66 133.96 138.89 133.15 137.91 133.13 L 136.86 133.10 C 135.89 133.08 135.08 133.86 135.05 134.83 C 135.03 135.81 135.80 136.62 136.78 136.65 Z M 137.84 136.67 L 138.88 136.69 C 139.86 136.70 140.67 135.92 140.68 134.94 C 140.70 133.96 139.91 133.16 138.94 133.14 L 137.90 133.13 C 136.92 133.11 136.11 133.89 136.10 134.87 C 136.08 135.85 136.86 136.66 137.84 136.67 Z M 138.89 136.69 L 139.93 136.70 C 140.91 136.71 141.72 135.92 141.72 134.94 C 141.73 133.96 140.95 133.16 139.96 133.15 L 138.92 133.14 C 137.94 133.13 137.14 133.92 137.13 134.90 C 137.12 135.88 137.91 136.68 138.89 136.69 Z M 139.94 136.70 L 140.96 136.71 C 141.94 136.71 142.74 135.92 142.74 134.94 C 142.75 133.96 141.96 133.16 140.97 133.15 L 139.96 133.15 C 138.98 133.14 138.18 133.93 138.17 134.92 C 138.17 135.90 138.96 136.70 139.94 136.70 Z M 140.96 136.71 L 141.93 136.71 C 142.92 136.71 143.71 135.92 143.72 134.93 C 143.72 133.95 142.92 133.15 141.94 133.15 L 140.97 133.15 C 139.99 133.15 139.19 133.94 139.19 134.93 C 139.18 135.91 139.98 136.71 140.96 136.71 Z M 141.94 136.71 L 142.88 136.71 C 143.86 136.71 144.66 135.92 144.66 134.93 C 144.66 133.95 143.86 133.15 142.88 133.15 L 141.94 133.15 C 140.95 133.15 140.15 133.95 140.15 134.93 C 140.15 135.91 140.95 136.71 141.94 136.71 Z M 142.88 136.71 L 143.99 136.71 C 144.97 136.71 145.77 135.92 145.77 134.93 C 145.77 133.95 144.97 133.15 143.99 133.15 L 142.88 133.15 C 141.89 133.15 141.09 133.95 141.09 134.93 C 141.09 135.92 141.89 136.71 142.88 136.71 Z M 143.99 136.71 L 144.99 136.71 C 145.97 136.71 146.77 135.92 146.77 134.93 C 146.77 133.95 145.97 133.15 144.99 133.15 L 143.99 133.15 C 143.01 133.15 142.21 133.95 142.21 134.93 C 142.21 135.92 143.01 136.71 143.99 136.71 Z M 144.99 136.71 L 145.92 136.71 C 146.91 136.71 147.71 135.92 147.71 134.93 C 147.71 133.95 146.91 133.15 145.92 133.15 L 144.99 133.15 C 144.00 133.15 143.21 133.95 143.21 134.93 C 143.21 135.92 144.00 136.71 144.99 136.71 Z M 145.92 136.71 L 146.85 136.71 C 147.83 136.71 148.63 135.92 148.63 134.93 C 148.63 133.95 147.83 133.15 146.85 133.15 L 145.92 133.15 C 144.94 133.15 144.14 133.95 144.14 134.93 C 144.14 135.92 144.94 136.71 145.92 136.71 Z M 146.85 136.71 L 147.84 136.71 C 148.82 136.71 149.62 135.91 149.62 134.93 C 149.62 133.94 148.82 133.15 147.83 133.15 L 146.85 133.15 C 145.86 133.15 145.07 133.95 145.07 134.93 C 145.07 135.92 145.87 136.72 146.85 136.71 Z M 147.85 136.71 L 148.85 136.71 C 149.84 136.70 150.63 135.89 150.62 134.91 C 150.61 133.93 149.81 133.13 148.83 133.14 L 147.82 133.15 C 146.84 133.15 146.05 133.96 146.05 134.94 C 146.06 135.93 146.86 136.72 147.85 136.71 Z M 148.87 136.71 L 149.88 136.69 C 150.87 136.67 151.65 135.86 151.63 134.87 C 151.61 133.89 150.80 133.10 149.82 133.12 L 148.81 133.14 C 147.82 133.16 147.04 133.97 147.06 134.95 C 147.07 135.94 147.89 136.72 148.87 136.71 Z M 149.91 136.69 L 150.91 136.65 C 151.90 136.62 152.67 135.80 152.63 134.81 C 152.60 133.83 151.78 133.06 150.79 133.09 L 149.79 133.12 C 148.80 133.16 148.03 133.98 148.07 134.96 C 148.10 135.95 148.92 136.72 149.91 136.69 Z M 150.94 136.65 L 151.94 136.60 C 152.92 136.55 153.68 135.71 153.62 134.73 C 153.57 133.74 152.73 132.99 151.75 133.04 L 150.76 133.09 C 149.77 133.14 149.02 133.98 149.07 134.96 C 149.12 135.95 149.96 136.70 150.94 136.65 Z M 151.97 136.60 L 152.96 136.53 C 153.95 136.46 154.69 135.60 154.62 134.62 C 154.55 133.64 153.69 132.90 152.71 132.97 L 151.72 133.04 C 150.73 133.11 149.99 133.96 150.06 134.95 C 150.13 135.93 150.99 136.67 151.97 136.60 Z M 153.00 136.53 L 154.00 136.44 C 154.98 136.35 155.70 135.48 155.62 134.50 C 155.53 133.52 154.66 132.79 153.68 132.88 L 152.68 132.97 C 151.70 133.06 150.97 133.92 151.06 134.91 C 151.15 135.89 152.01 136.61 153.00 136.53 Z M 154.03 136.43 L 155.01 136.33 C 155.99 136.23 156.70 135.35 156.60 134.37 C 156.49 133.39 155.61 132.68 154.63 132.78 L 153.65 132.88 C 152.67 132.99 151.96 133.87 152.06 134.85 C 152.17 135.83 153.05 136.54 154.03 136.43 Z M 155.03 136.33 L 156.01 136.21 C 156.99 136.10 157.69 135.21 157.57 134.23 C 157.46 133.25 156.57 132.55 155.59 132.67 L 154.61 132.78 C 153.63 132.90 152.93 133.79 153.05 134.76 C 153.16 135.74 154.05 136.44 155.03 136.33 Z M 156.02 136.21 L 157.02 136.09 C 158.00 135.96 158.69 135.07 158.57 134.09 C 158.44 133.11 157.55 132.42 156.57 132.54 L 155.58 132.67 C 154.60 132.79 153.90 133.68 154.03 134.66 C 154.15 135.64 155.04 136.34 156.02 136.21 Z M 157.02 136.09 L 158.03 135.96 C 159.01 135.83 159.70 134.93 159.58 133.96 C 159.45 132.98 158.56 132.29 157.58 132.41 L 156.57 132.54 C 155.59 132.67 154.90 133.57 155.02 134.54 C 155.15 135.52 156.04 136.21 157.02 136.09 Z M 158.03 135.96 L 159.03 135.83 C 160.00 135.70 160.70 134.81 160.57 133.83 C 160.44 132.85 159.55 132.16 158.57 132.29 L 157.58 132.41 C 156.60 132.54 155.91 133.43 156.03 134.41 C 156.16 135.39 157.06 136.08 158.03 135.96 Z M 159.03 135.83 L 160.01 135.70 C 160.99 135.58 161.68 134.68 161.56 133.70 C 161.43 132.72 160.53 132.03 159.56 132.16 L 158.57 132.28 C 157.59 132.41 156.90 133.31 157.02 134.28 C 157.15 135.26 158.05 135.96 159.03 135.83 Z M 160.01 135.70 L 161.01 135.57 C 161.99 135.45 162.68 134.55 162.55 133.57 C 162.42 132.59 161.53 131.90 160.55 132.03 L 159.55 132.16 C 158.57 132.29 157.88 133.18 158.01 134.16 C 158.14 135.14 159.03 135.83 160.01 135.70 Z M 161.01 135.57 L 162.01 135.44 C 162.99 135.31 163.68 134.41 163.55 133.43 C 163.42 132.45 162.52 131.76 161.54 131.90 L 160.54 132.03 C 159.56 132.16 158.87 133.06 159.00 134.04 C 159.14 135.02 160.04 135.71 161.01 135.57 Z M 162.02 135.44 L 163.02 135.30 C 164.00 135.16 164.68 134.26 164.54 133.28 C 164.41 132.30 163.50 131.62 162.53 131.76 L 161.53 131.90 C 160.55 132.03 159.87 132.94 160.01 133.92 C 160.14 134.89 161.05 135.58 162.02 135.44 Z M 163.03 135.30 L 164.02 135.15 C 165.00 135.01 165.68 134.10 165.53 133.13 C 165.39 132.15 164.48 131.47 163.50 131.61 L 162.52 131.76 C 161.54 131.90 160.86 132.81 161.00 133.79 C 161.15 134.76 162.05 135.44 163.03 135.30 Z M 164.03 135.15 L 165.01 135.01 C 165.99 134.86 166.67 133.95 166.52 132.97 C 166.38 132.00 165.47 131.32 164.49 131.47 L 163.50 131.61 C 162.52 131.76 161.85 132.67 161.99 133.65 C 162.14 134.62 163.05 135.30 164.03 135.15 Z M 165.01 135.01 L 166.00 134.86 C 166.98 134.72 167.66 133.81 167.51 132.83 C 167.37 131.85 166.46 131.18 165.48 131.32 L 164.49 131.47 C 163.51 131.61 162.84 132.52 162.98 133.50 C 163.13 134.48 164.03 135.15 165.01 135.01 Z M 166.00 134.86 L 166.98 134.72 C 167.96 134.58 168.64 133.68 168.50 132.70 C 168.36 131.72 167.46 131.04 166.48 131.18 L 165.49 131.32 C 164.51 131.46 163.83 132.37 163.97 133.34 C 164.11 134.32 165.02 135.00 166.00 134.86 Z M 166.97 134.73 L 167.96 134.59 C 168.94 134.46 169.63 133.55 169.49 132.57 C 169.36 131.59 168.46 130.91 167.48 131.04 L 166.49 131.17 C 165.51 131.31 164.82 132.21 164.96 133.19 C 165.09 134.17 165.99 134.86 166.97 134.73 Z M 167.95 134.59 L 168.94 134.46 C 169.92 134.34 170.61 133.44 170.48 132.45 C 170.36 131.47 169.46 130.78 168.47 130.91 L 167.49 131.04 C 166.50 131.17 165.81 132.07 165.94 133.05 C 166.07 134.03 166.97 134.72 167.95 134.59 Z M 168.93 134.47 L 169.92 134.34 C 170.91 134.22 171.60 133.32 171.48 132.34 C 171.35 131.35 170.46 130.66 169.47 130.78 L 168.48 130.91 C 167.50 131.03 166.80 131.93 166.93 132.91 C 167.05 133.89 167.95 134.59 168.93 134.47 Z M 169.92 134.34 L 170.92 134.22 C 171.90 134.10 172.60 133.20 172.48 132.22 C 172.36 131.23 171.46 130.53 170.48 130.66 L 169.48 130.78 C 168.49 130.90 167.80 131.80 167.92 132.78 C 168.04 133.76 168.94 134.46 169.92 134.34 Z M 170.92 134.22 L 171.94 134.09 C 172.93 133.97 173.63 133.08 173.51 132.09 C 173.38 131.11 172.49 130.41 171.50 130.53 L 170.48 130.65 C 169.49 130.78 168.79 131.67 168.91 132.66 C 169.04 133.64 169.93 134.34 170.92 134.22 Z M 171.94 134.09 L 172.96 133.97 C 173.95 133.85 174.65 132.96 174.53 131.97 C 174.41 130.99 173.52 130.29 172.53 130.40 L 171.51 130.53 C 170.52 130.65 169.82 131.54 169.94 132.53 C 170.06 133.51 170.95 134.21 171.94 134.09 Z M 172.96 133.97 L 173.95 133.86 C 174.94 133.74 175.64 132.85 175.53 131.86 C 175.41 130.88 174.52 130.17 173.54 130.29 L 172.54 130.40 C 171.55 130.52 170.85 131.41 170.96 132.40 C 171.08 133.38 171.97 134.09 172.96 133.97 Z M 173.94 133.86 L 174.90 133.75 C 175.88 133.64 176.59 132.75 176.48 131.77 C 176.37 130.78 175.48 130.07 174.50 130.18 L 173.54 130.28 C 172.56 130.39 171.85 131.28 171.96 132.27 C 172.07 133.26 172.96 133.97 173.94 133.86 Z M 174.88 133.75 L 175.86 133.65 C 176.85 133.55 177.57 132.67 177.47 131.68 C 177.37 130.69 176.48 129.97 175.49 130.07 L 174.51 130.17 C 173.52 130.28 172.80 131.16 172.91 132.15 C 173.01 133.14 173.89 133.86 174.88 133.75 Z M 175.84 133.66 L 176.81 133.57 C 177.80 133.48 178.53 132.60 178.45 131.61 C 178.36 130.62 177.48 129.89 176.49 129.98 L 175.52 130.07 C 174.52 130.16 173.79 131.03 173.88 132.03 C 173.97 133.02 174.85 133.75 175.84 133.66 Z M 176.78 133.57 L 177.76 133.50 C 178.75 133.43 179.50 132.56 179.43 131.57 C 179.35 130.58 178.49 129.83 177.49 129.91 L 176.52 129.98 C 175.52 130.05 174.78 130.92 174.85 131.91 C 174.93 132.90 175.79 133.65 176.78 133.57 Z M 177.73 133.51 L 178.76 133.45 C 179.75 133.39 180.51 132.54 180.46 131.54 C 180.40 130.54 179.55 129.78 178.55 129.84 L 177.52 129.90 C 176.53 129.96 175.77 130.81 175.82 131.81 C 175.88 132.80 176.74 133.56 177.73 133.51 Z M 178.73 133.45 L 179.72 133.41 C 180.72 133.37 181.49 132.53 181.45 131.53 C 181.41 130.53 180.57 129.75 179.57 129.80 L 178.58 129.84 C 177.58 129.88 176.81 130.72 176.85 131.72 C 176.89 132.72 177.73 133.49 178.73 133.45 Z M 179.67 133.42 L 180.70 133.40 C 181.70 133.38 182.50 132.56 182.48 131.55 C 182.47 130.55 181.64 129.76 180.64 129.77 L 179.61 129.79 C 178.61 129.81 177.81 130.63 177.83 131.63 C 177.85 132.63 178.67 133.43 179.67 133.42 Z M 180.63 133.40 L 181.65 133.42 C 182.65 133.45 183.49 132.65 183.51 131.65 C 183.53 130.64 182.73 129.81 181.73 129.79 L 180.71 129.77 C 179.71 129.75 178.87 130.54 178.85 131.55 C 178.83 132.55 179.63 133.38 180.63 133.40 Z M 181.55 133.42 L 182.51 133.50 C 183.52 133.58 184.39 132.83 184.47 131.83 C 184.55 130.82 183.80 129.95 182.80 129.87 L 181.83 129.79 C 180.83 129.71 179.95 130.46 179.87 131.46 C 179.79 132.47 180.54 133.34 181.55 133.42 Z M 182.31 133.49 L 183.50 133.72 C 184.50 133.91 185.46 133.25 185.65 132.26 C 185.84 131.26 185.19 130.30 184.19 130.11 L 183.00 129.88 C 182.00 129.69 181.04 130.34 180.85 131.34 C 180.66 132.34 181.31 133.30 182.31 133.49 Z M 183.08 133.61 L 183.97 134.01 C 184.92 134.44 186.02 134.02 186.44 133.08 C 186.87 132.14 186.45 131.03 185.50 130.61 L 184.61 130.21 C 183.67 129.78 182.57 130.20 182.14 131.15 C 181.72 132.09 182.14 133.19 183.08 133.61 Z M 183.22 133.44 L 183.66 134.04 C 184.29 134.88 185.47 135.05 186.31 134.43 C 187.15 133.80 187.33 132.62 186.70 131.78 L 186.26 131.18 C 185.64 130.34 184.45 130.16 183.61 130.79 C 182.77 131.41 182.59 132.60 183.22 133.44 Z M 183.28 132.74 L 183.20 133.57 C 183.11 134.63 183.89 135.55 184.94 135.65 C 185.99 135.74 186.92 134.96 187.01 133.91 L 187.09 133.07 C 187.18 132.02 186.40 131.10 185.35 131.00 C 184.30 130.91 183.37 131.69 183.28 132.74 Z M 183.36 132.96 L 182.93 133.93 C 182.49 134.89 182.93 136.02 183.89 136.46 C 184.86 136.89 185.99 136.46 186.42 135.49 L 186.86 134.53 C 187.29 133.56 186.86 132.43 185.89 131.99 C 184.93 131.56 183.79 131.99 183.36 132.96 Z M 183.00 133.78 L 182.47 134.72 C 181.96 135.65 182.29 136.82 183.22 137.33 C 184.15 137.85 185.31 137.51 185.83 136.59 L 186.35 135.64 C 186.87 134.71 186.53 133.54 185.61 133.03 C 184.68 132.52 183.51 132.85 183.00 133.78 Z M 182.46 134.73 L 181.99 135.60 C 181.49 136.53 181.83 137.69 182.76 138.20 C 183.69 138.71 184.86 138.37 185.37 137.44 L 185.84 136.58 C 186.35 135.65 186.00 134.48 185.07 133.97 C 184.14 133.46 182.97 133.80 182.46 134.73 Z M 181.97 135.64 L 181.52 136.53 C 181.03 137.47 181.40 138.63 182.35 139.11 C 183.29 139.60 184.45 139.23 184.93 138.28 L 185.39 137.39 C 185.87 136.45 185.50 135.29 184.56 134.81 C 183.62 134.32 182.46 134.69 181.97 135.64 Z M 181.49 136.59 L 181.06 137.49 C 180.61 138.45 181.02 139.60 181.98 140.05 C 182.94 140.50 184.09 140.09 184.54 139.12 L 184.96 138.22 C 185.41 137.26 185.00 136.12 184.04 135.67 C 183.08 135.21 181.94 135.63 181.49 136.59 Z M 181.03 137.56 L 180.67 138.40 C 180.26 139.38 180.72 140.51 181.69 140.92 C 182.67 141.33 183.80 140.88 184.21 139.90 L 184.57 139.06 C 184.98 138.08 184.53 136.95 183.55 136.54 C 182.57 136.13 181.45 136.58 181.03 137.56 Z M 180.65 138.47 L 180.30 139.39 C 179.92 140.38 180.42 141.49 181.41 141.86 C 182.40 142.24 183.51 141.74 183.89 140.75 L 184.24 139.83 C 184.61 138.84 184.12 137.73 183.12 137.36 C 182.13 136.98 181.02 137.48 180.65 138.47 Z M 180.28 139.45 L 179.94 140.46 C 179.60 141.46 180.14 142.55 181.14 142.89 C 182.14 143.23 183.23 142.69 183.57 141.69 L 183.91 140.68 C 184.25 139.68 183.71 138.59 182.71 138.25 C 181.70 137.91 180.62 138.45 180.28 139.45 Z M 179.92 140.52 L 179.62 141.50 C 179.32 142.51 179.89 143.58 180.91 143.89 C 181.92 144.19 182.99 143.62 183.30 142.61 L 183.59 141.62 C 183.90 140.61 183.32 139.54 182.31 139.24 C 181.29 138.93 180.22 139.50 179.92 140.52 Z M 179.61 141.55 L 179.37 142.44 C 179.09 143.46 179.69 144.52 180.71 144.80 C 181.73 145.08 182.78 144.47 183.06 143.45 L 183.31 142.56 C 183.59 141.54 182.99 140.48 181.96 140.20 C 180.94 139.92 179.89 140.53 179.61 141.55 Z M 179.36 142.48 L 179.12 143.43 C 178.86 144.46 179.48 145.50 180.51 145.76 C 181.53 146.01 182.57 145.39 182.83 144.37 L 183.07 143.42 C 183.33 142.39 182.71 141.35 181.68 141.09 C 180.66 140.83 179.62 141.45 179.36 142.48 Z M 179.11 143.46 L 178.88 144.46 C 178.63 145.49 179.27 146.52 180.30 146.76 C 181.33 147.00 182.36 146.36 182.61 145.33 L 182.84 144.34 C 183.08 143.31 182.44 142.28 181.41 142.03 C 180.38 141.79 179.35 142.43 179.11 143.46 Z M 178.87 144.48 L 178.64 145.52 C 178.42 146.55 179.07 147.57 180.10 147.80 C 181.13 148.03 182.15 147.38 182.38 146.34 L 182.61 145.31 C 182.84 144.27 182.19 143.25 181.15 143.03 C 180.12 142.80 179.10 143.45 178.87 144.48 Z M 178.64 145.54 L 178.42 146.59 C 178.21 147.62 178.87 148.64 179.90 148.85 C 180.94 149.07 181.95 148.40 182.17 147.37 L 182.38 146.32 C 182.60 145.29 181.94 144.28 180.90 144.06 C 179.87 143.84 178.86 144.51 178.64 145.54 Z M 178.42 146.61 L 178.21 147.63 C 178.01 148.67 178.68 149.68 179.72 149.88 C 180.75 150.09 181.76 149.41 181.96 148.38 L 182.17 147.35 C 182.37 146.32 181.70 145.31 180.67 145.10 C 179.63 144.90 178.62 145.57 178.42 146.61 Z M 178.21 147.65 L 178.02 148.68 C 177.82 149.71 178.50 150.71 179.54 150.91 C 180.57 151.10 181.57 150.42 181.77 149.39 L 181.97 148.36 C 182.16 147.33 181.48 146.33 180.45 146.13 C 179.41 145.93 178.41 146.61 178.21 147.65 Z M 178.02 148.69 L 177.84 149.69 C 177.65 150.73 178.34 151.72 179.37 151.91 C 180.41 152.10 181.40 151.41 181.59 150.37 L 181.77 149.37 C 181.96 148.34 181.27 147.34 180.24 147.15 C 179.20 146.97 178.21 147.65 178.02 148.69 Z M 177.83 149.71 L 177.67 150.66 C 177.49 151.70 178.18 152.69 179.22 152.87 C 180.26 153.05 181.25 152.35 181.43 151.31 L 181.59 150.36 C 181.77 149.32 181.08 148.33 180.04 148.16 C 179.00 147.98 178.01 148.67 177.83 149.71 Z M 177.67 150.68 L 177.52 151.58 C 177.35 152.62 178.05 153.60 179.09 153.77 C 180.13 153.94 181.11 153.24 181.28 152.20 L 181.43 151.30 C 181.60 150.26 180.89 149.28 179.86 149.11 C 178.82 148.94 177.84 149.64 177.67 150.68 Z M 177.52 151.61 L 177.35 152.72 C 177.19 153.76 177.91 154.73 178.95 154.89 C 179.98 155.04 180.95 154.33 181.11 153.29 L 181.28 152.18 C 181.44 151.14 180.72 150.17 179.68 150.01 C 178.65 149.86 177.68 150.57 177.52 151.61 Z M 177.35 152.74 L 177.21 153.74 C 177.07 154.77 177.79 155.73 178.83 155.88 C 179.87 156.02 180.82 155.30 180.97 154.26 L 181.11 153.27 C 181.25 152.23 180.53 151.27 179.49 151.13 C 178.46 150.98 177.50 151.71 177.35 152.74 Z M 177.22 153.75 L 177.10 154.67 C 176.96 155.71 177.69 156.66 178.72 156.80 C 179.76 156.93 180.71 156.21 180.84 155.17 L 180.97 154.25 C 181.10 153.21 180.37 152.26 179.34 152.13 C 178.31 151.99 177.36 152.72 177.22 153.75 Z M 177.10 154.67 L 176.98 155.59 C 176.84 156.62 177.57 157.57 178.60 157.71 C 179.63 157.84 180.58 157.12 180.72 156.09 L 180.84 155.17 C 180.98 154.14 180.25 153.19 179.22 153.05 C 178.19 152.92 177.24 153.64 177.10 154.67 Z M 176.99 155.58 L 176.85 156.55 C 176.71 157.58 177.42 158.53 178.45 158.67 C 179.48 158.82 180.43 158.10 180.57 157.07 L 180.71 156.10 C 180.85 155.07 180.14 154.12 179.11 153.98 C 178.08 153.83 177.13 154.55 176.99 155.58 Z M 176.85 156.54 L 176.71 157.53 C 176.56 158.56 177.28 159.51 178.30 159.66 C 179.33 159.81 180.28 159.09 180.43 158.07 L 180.57 157.08 C 180.72 156.05 180.00 155.10 178.98 154.95 C 177.95 154.81 177.00 155.52 176.85 156.54 Z M 176.72 157.53 L 176.57 158.54 C 176.42 159.56 177.13 160.51 178.15 160.66 C 179.18 160.81 180.13 160.10 180.28 159.08 L 180.42 158.07 C 180.57 157.05 179.86 156.10 178.84 155.95 C 177.82 155.80 176.87 156.51 176.72 157.53 Z M 176.58 158.54 L 176.43 159.51 C 176.29 160.53 176.99 161.48 178.01 161.63 C 179.03 161.78 179.98 161.07 180.13 160.05 L 180.27 159.07 C 180.42 158.05 179.71 157.11 178.69 156.96 C 177.67 156.81 176.72 157.52 176.58 158.54 Z M 176.44 159.52 L 176.30 160.48 C 176.15 161.50 176.86 162.45 177.88 162.59 C 178.90 162.74 179.84 162.03 179.99 161.01 L 180.12 160.04 C 180.27 159.03 179.56 158.08 178.54 157.94 C 177.53 157.79 176.58 158.50 176.44 159.52 Z M 176.30 160.49 L 176.17 161.48 C 176.02 162.50 176.73 163.44 177.75 163.58 C 178.76 163.72 179.70 163.01 179.84 162.00 L 179.98 161.00 C 180.12 159.99 179.41 159.05 178.40 158.91 C 177.38 158.77 176.45 159.48 176.30 160.49 Z M 176.17 161.49 L 176.03 162.52 C 175.90 163.53 176.61 164.46 177.62 164.60 C 178.63 164.74 179.56 164.02 179.70 163.01 L 179.84 161.99 C 179.98 160.97 179.27 160.04 178.25 159.90 C 177.24 159.77 176.31 160.48 176.17 161.49 Z M 176.04 162.53 L 175.91 163.52 C 175.78 164.53 176.49 165.46 177.50 165.59 C 178.51 165.72 179.44 165.00 179.57 163.99 L 179.70 163.00 C 179.83 161.99 179.11 161.07 178.10 160.93 C 177.09 160.80 176.17 161.52 176.04 162.53 Z M 175.91 163.53 L 175.79 164.53 C 175.66 165.54 176.38 166.45 177.38 166.58 C 178.39 166.71 179.31 165.99 179.44 164.98 L 179.56 163.99 C 179.69 162.98 178.97 162.06 177.97 161.93 C 176.96 161.81 176.04 162.52 175.91 163.53 Z M 175.79 164.54 L 175.67 165.54 C 175.55 166.55 176.27 167.46 177.27 167.58 C 178.28 167.70 179.19 166.99 179.31 165.98 L 179.43 164.98 C 179.55 163.97 178.84 163.06 177.83 162.94 C 176.83 162.82 175.92 163.53 175.79 164.54 Z M 175.68 165.55 L 175.56 166.54 C 175.44 167.54 176.16 168.45 177.16 168.57 C 178.16 168.68 179.07 167.97 179.19 166.97 L 179.30 165.97 C 179.42 164.97 178.71 164.07 177.70 163.95 C 176.70 163.83 175.80 164.55 175.68 165.55 Z M 175.57 166.55 L 175.45 167.56 C 175.34 168.56 176.05 169.46 177.05 169.58 C 178.05 169.69 178.95 168.97 179.06 167.98 L 179.18 166.96 C 179.29 165.96 178.58 165.06 177.58 164.95 C 176.58 164.83 175.68 165.55 175.57 166.55 Z M 175.46 167.57 L 175.35 168.59 C 175.24 169.58 175.96 170.47 176.95 170.58 C 177.94 170.69 178.84 169.97 178.95 168.98 L 179.06 167.97 C 179.17 166.98 178.45 166.08 177.46 165.97 C 176.46 165.86 175.57 166.58 175.46 167.57 Z M 175.36 168.60 L 175.26 169.58 C 175.15 170.57 175.87 171.45 176.86 171.56 C 177.85 171.66 178.73 170.94 178.84 169.95 L 178.94 168.97 C 179.04 167.98 178.32 167.10 177.33 166.99 C 176.34 166.89 175.46 167.61 175.36 168.60 Z M 175.26 169.60 L 175.17 170.56 C 175.08 171.54 175.80 172.42 176.78 172.51 C 177.76 172.61 178.64 171.89 178.73 170.90 L 178.83 169.94 C 178.92 168.95 178.20 168.08 177.22 167.99 C 176.23 167.89 175.36 168.61 175.26 169.60 Z M 175.18 170.57 L 175.09 171.57 C 175.01 172.55 175.73 173.42 176.71 173.50 C 177.69 173.59 178.55 172.87 178.64 171.89 L 178.73 170.89 C 178.81 169.91 178.09 169.04 177.11 168.96 C 176.13 168.87 175.27 169.59 175.18 170.57 Z M 175.10 171.59 L 175.02 172.59 C 174.94 173.56 175.67 174.42 176.64 174.49 C 177.61 174.57 178.47 173.85 178.54 172.88 L 178.63 171.87 C 178.71 170.90 177.98 170.05 177.01 169.97 C 176.03 169.89 175.18 170.61 175.10 171.59 Z M 175.03 172.60 L 174.96 173.59 C 174.88 174.56 175.61 175.40 176.57 175.47 C 177.54 175.55 178.38 174.83 178.46 173.86 L 178.53 172.87 C 178.61 171.90 177.88 171.06 176.92 170.98 C 175.95 170.91 175.11 171.63 175.03 172.60 Z M 174.97 173.59 L 174.89 174.59 C 174.82 175.55 175.54 176.38 176.50 176.46 C 177.46 176.53 178.30 175.81 178.37 174.85 L 178.45 173.86 C 178.52 172.89 177.80 172.06 176.84 171.99 C 175.88 171.91 175.04 172.63 174.97 173.59 Z M 174.91 174.59 L 174.83 175.60 C 174.76 176.56 175.47 177.39 176.42 177.46 C 177.38 177.53 178.21 176.82 178.28 175.87 L 178.36 174.85 C 178.43 173.90 177.72 173.06 176.76 172.99 C 175.81 172.92 174.98 173.63 174.91 174.59 Z M 174.84 175.60 L 174.77 176.60 C 174.69 177.55 175.40 178.37 176.34 178.45 C 177.29 178.52 178.11 177.81 178.19 176.87 L 178.27 175.87 C 178.34 174.92 177.63 174.10 176.69 174.02 C 175.74 173.95 174.92 174.66 174.84 175.60 Z M 174.78 176.60 L 174.70 177.57 C 174.63 178.51 175.33 179.33 176.26 179.40 C 177.20 179.48 178.02 178.78 178.10 177.84 L 178.17 176.87 C 178.25 175.93 177.55 175.11 176.61 175.04 C 175.68 174.96 174.85 175.66 174.78 176.60 Z M 174.72 177.57 L 174.64 178.48 C 174.57 179.41 175.26 180.23 176.19 180.30 C 177.11 180.38 177.93 179.69 178.01 178.76 L 178.08 177.85 C 178.16 176.92 177.47 176.10 176.54 176.03 C 175.61 175.95 174.79 176.64 174.72 177.57 Z M 174.66 178.49 L 174.58 179.42 C 174.51 180.34 175.20 181.15 176.12 181.22 C 177.04 181.29 177.84 180.61 177.92 179.69 L 177.99 178.75 C 178.06 177.83 177.38 177.03 176.46 176.95 C 175.54 176.88 174.73 177.57 174.66 178.49 Z M 174.60 179.43 L 174.52 180.46 C 174.46 181.37 175.14 182.16 176.06 182.23 C 176.97 182.30 177.76 181.61 177.83 180.70 L 177.90 179.67 C 177.97 178.76 177.28 177.97 176.37 177.90 C 175.46 177.83 174.66 178.52 174.60 179.43 Z M 174.54 180.47 L 174.47 181.56 C 174.41 182.46 175.10 183.24 176.00 183.30 C 176.91 183.35 177.69 182.67 177.75 181.76 L 177.81 180.68 C 177.87 179.78 177.18 179.00 176.28 178.94 C 175.37 178.88 174.59 179.57 174.54 180.47 Z M 174.48 181.57 L 174.43 182.51 C 174.38 183.41 175.06 184.18 175.96 184.23 C 176.86 184.28 177.63 183.59 177.68 182.70 L 177.73 181.75 C 177.78 180.85 177.10 180.08 176.20 180.03 C 175.30 179.98 174.53 180.67 174.48 181.57 Z M 174.44 182.52 L 174.38 183.53 C 174.34 184.42 175.02 185.18 175.91 185.23 C 176.80 185.28 177.56 184.59 177.61 183.70 L 177.67 182.69 C 177.72 181.80 177.03 181.04 176.14 180.99 C 175.25 180.94 174.49 181.63 174.44 182.52 Z M 174.40 183.52 L 174.34 184.56 C 174.29 185.45 174.97 186.20 175.85 186.25 C 176.74 186.30 177.50 185.62 177.54 184.74 L 177.60 183.70 C 177.65 182.82 176.97 182.06 176.09 182.01 C 175.20 181.96 174.45 182.64 174.40 183.52 Z M 174.35 184.56 L 174.29 185.59 C 174.24 186.47 174.91 187.22 175.79 187.27 C 176.67 187.32 177.42 186.65 177.47 185.77 L 177.53 184.74 C 177.58 183.87 176.91 183.11 176.04 183.06 C 175.16 183.01 174.40 183.68 174.35 184.56 Z M 174.31 185.58 L 174.24 186.61 C 174.18 187.48 174.84 188.23 175.71 188.29 C 176.58 188.35 177.33 187.69 177.39 186.82 L 177.46 185.79 C 177.51 184.91 176.86 184.16 175.98 184.11 C 175.11 184.05 174.36 184.71 174.31 185.58 Z M 174.26 186.59 L 174.18 187.65 C 174.11 188.51 174.76 189.26 175.61 189.33 C 176.47 189.39 177.22 188.75 177.29 187.89 L 177.37 186.83 C 177.43 185.97 176.79 185.22 175.93 185.16 C 175.07 185.09 174.32 185.74 174.26 186.59 Z M 174.20 187.64 L 174.12 188.64 C 174.04 189.49 174.67 190.23 175.52 190.30 C 176.36 190.37 177.11 189.75 177.18 188.90 L 177.26 187.90 C 177.34 187.06 176.71 186.31 175.86 186.24 C 175.02 186.17 174.27 186.79 174.20 187.64 Z M 174.14 188.63 L 174.05 189.59 C 173.98 190.42 174.59 191.16 175.42 191.24 C 176.25 191.31 176.99 190.70 177.07 189.87 L 177.15 188.91 C 177.23 188.08 176.62 187.34 175.79 187.26 C 174.95 187.19 174.22 187.80 174.14 188.63 Z M 174.08 189.59 L 173.99 190.53 C 173.91 191.35 174.51 192.08 175.33 192.15 C 176.15 192.23 176.87 191.63 176.95 190.81 L 177.04 189.87 C 177.12 189.05 176.52 188.33 175.70 188.25 C 174.88 188.17 174.15 188.77 174.08 189.59 Z M 174.00 190.53 L 173.99 190.62 C 173.91 191.43 174.51 192.15 175.32 192.23 C 176.13 192.31 176.85 191.71 176.93 190.90 L 176.94 190.81 C 177.02 190.00 176.42 189.28 175.61 189.20 C 174.80 189.12 174.08 189.72 174.00 190.53 Z"
      fill="black"
      fill-rule="nonzero" /><path d="M 139.48 156.31 L 138.44 156.31 C 137.53 156.31 136.80 157.05 136.80 157.95 C 136.80 158.86 137.53 159.59 138.44 159.59 L 139.48 159.59 C 140.38 159.59 141.12 158.85 141.12 157.95 C 141.12 157.04 140.38 156.31 139.48 156.31 Z M 138.43 156.31 L 137.40 156.31 C 136.50 156.32 135.77 157.05 135.77 157.96 C 135.77 158.86 136.51 159.59 137.41 159.59 L 138.44 159.59 C 139.35 159.59 140.08 158.85 140.08 157.95 C 140.07 157.04 139.34 156.31 138.43 156.31 Z M 137.39 156.31 L 136.39 156.32 C 135.48 156.33 134.76 157.07 134.76 157.97 C 134.77 158.88 135.51 159.61 136.42 159.60 L 137.42 159.59 C 138.33 159.58 139.05 158.85 139.05 157.94 C 139.04 157.04 138.30 156.31 137.39 156.31 Z M 136.38 156.32 L 135.40 156.34 C 134.50 156.35 133.78 157.10 133.79 158.00 C 133.81 158.91 134.55 159.63 135.46 159.62 L 136.43 159.60 C 137.33 159.59 138.06 158.84 138.04 157.93 C 138.03 157.03 137.28 156.31 136.38 156.32 Z M 135.38 156.34 L 134.26 156.37 C 133.35 156.40 132.64 157.15 132.67 158.06 C 132.69 158.96 133.45 159.68 134.35 159.65 L 135.48 159.62 C 136.38 159.59 137.10 158.83 137.07 157.93 C 137.04 157.02 136.29 156.31 135.38 156.34 Z M 134.21 156.37 L 132.88 156.45 C 131.98 156.50 131.28 157.27 131.33 158.17 C 131.38 159.08 132.16 159.77 133.06 159.72 L 134.40 159.65 C 135.30 159.60 135.99 158.82 135.94 157.92 C 135.89 157.02 135.12 156.32 134.21 156.37 Z M 132.75 156.46 L 132.05 156.55 C 131.16 156.67 130.52 157.49 130.64 158.39 C 130.76 159.29 131.59 159.92 132.48 159.80 L 133.18 159.71 C 134.08 159.59 134.71 158.77 134.60 157.87 C 134.48 156.97 133.65 156.34 132.75 156.46 Z M 131.48 159.62 L 131.63 159.70 C 132.43 160.13 133.42 159.84 133.86 159.04 C 134.29 158.25 134.00 157.25 133.20 156.82 L 133.05 156.74 C 132.26 156.30 131.26 156.60 130.83 157.39 C 130.39 158.19 130.69 159.18 131.48 159.62 Z M 132.26 159.89 L 132.96 159.96 C 133.86 160.05 134.66 159.38 134.75 158.48 C 134.84 157.58 134.18 156.78 133.27 156.69 L 132.57 156.62 C 131.67 156.54 130.87 157.20 130.78 158.10 C 130.70 159.00 131.36 159.81 132.26 159.89 Z M 133.03 159.97 L 134.17 160.02 C 135.08 160.07 135.85 159.37 135.90 158.47 C 135.95 157.56 135.25 156.79 134.34 156.74 L 133.20 156.69 C 132.30 156.64 131.52 157.33 131.48 158.24 C 131.43 159.15 132.13 159.92 133.03 159.97 Z M 134.21 160.03 L 135.71 160.07 C 136.61 160.10 137.37 159.39 137.40 158.48 C 137.43 157.57 136.71 156.82 135.81 156.79 L 134.31 156.74 C 133.40 156.71 132.65 157.43 132.62 158.33 C 132.59 159.24 133.30 160.00 134.21 160.03 Z M 135.73 160.07 L 136.79 160.09 C 137.70 160.11 138.45 159.39 138.46 158.48 C 138.48 157.57 137.76 156.83 136.85 156.81 L 135.79 156.79 C 134.88 156.77 134.13 157.49 134.12 158.40 C 134.10 159.31 134.82 160.06 135.73 160.07 Z M 136.81 160.09 L 137.83 160.10 C 138.74 160.11 139.48 159.39 139.49 158.48 C 139.50 157.57 138.78 156.83 137.87 156.82 L 136.84 156.81 C 135.94 156.80 135.19 157.53 135.18 158.43 C 135.17 159.34 135.90 160.08 136.81 160.09 Z M 137.85 160.10 L 138.90 160.10 C 139.81 160.11 140.54 159.38 140.55 158.47 C 140.55 157.57 139.82 156.83 138.91 156.83 L 137.86 156.82 C 136.95 156.82 136.22 157.55 136.21 158.45 C 136.21 159.36 136.94 160.10 137.85 160.10 Z M 138.91 160.10 L 139.96 160.10 C 140.87 160.10 141.60 159.36 141.60 158.46 C 141.59 157.55 140.86 156.82 139.95 156.83 L 138.90 156.83 C 138.00 156.83 137.27 157.57 137.27 158.47 C 137.27 159.37 138.01 160.10 138.91 160.10 Z M 139.98 160.10 L 141.00 160.09 C 141.90 160.08 142.62 159.34 142.61 158.44 C 142.60 157.53 141.86 156.81 140.96 156.82 L 139.94 156.83 C 139.04 156.84 138.32 157.58 138.32 158.48 C 138.33 159.38 139.07 160.11 139.98 160.10 Z M 141.01 160.08 L 141.97 160.07 C 142.87 160.05 143.58 159.30 143.57 158.40 C 143.55 157.50 142.80 156.78 141.90 156.80 L 140.95 156.82 C 140.04 156.84 139.33 157.58 139.35 158.48 C 139.36 159.39 140.11 160.10 141.01 160.08 Z M 141.99 160.06 L 142.92 160.03 C 143.82 160.00 144.52 159.25 144.49 158.35 C 144.46 157.45 143.71 156.75 142.81 156.78 L 141.88 156.81 C 140.98 156.84 140.28 157.59 140.31 158.49 C 140.34 159.38 141.09 160.09 141.99 160.06 Z M 142.95 160.01 L 143.96 159.96 C 144.85 159.91 145.53 159.15 145.48 158.26 C 145.44 157.37 144.68 156.69 143.79 156.74 L 142.78 156.79 C 141.89 156.84 141.21 157.60 141.25 158.49 C 141.30 159.38 142.06 160.06 142.95 160.01 Z M 144.00 159.94 L 144.92 159.86 C 145.79 159.79 146.44 159.02 146.37 158.14 C 146.30 157.27 145.53 156.62 144.65 156.69 L 143.74 156.76 C 142.86 156.84 142.21 157.60 142.29 158.48 C 142.36 159.36 143.13 160.01 144.00 159.94 Z M 144.96 159.83 L 145.87 159.73 C 146.73 159.64 147.35 158.86 147.26 158.00 C 147.16 157.14 146.39 156.52 145.52 156.61 L 144.61 156.71 C 143.75 156.81 143.13 157.59 143.22 158.45 C 143.32 159.31 144.10 159.93 144.96 159.83 Z M 145.90 159.71 L 146.91 159.57 C 147.76 159.46 148.35 158.68 148.24 157.84 C 148.13 156.99 147.35 156.39 146.50 156.51 L 145.50 156.64 C 144.65 156.75 144.05 157.53 144.16 158.37 C 144.28 159.22 145.05 159.82 145.90 159.71 Z M 146.92 159.55 L 147.97 159.40 C 148.81 159.29 149.39 158.52 149.27 157.68 C 149.15 156.84 148.38 156.26 147.55 156.38 L 146.49 156.53 C 145.66 156.64 145.08 157.42 145.19 158.25 C 145.31 159.09 146.08 159.67 146.92 159.55 Z M 147.97 159.39 L 148.85 159.27 C 149.68 159.15 150.26 158.38 150.14 157.55 C 150.02 156.72 149.26 156.15 148.43 156.26 L 147.55 156.39 C 146.72 156.51 146.14 157.28 146.26 158.11 C 146.37 158.93 147.14 159.51 147.97 159.39 Z M 148.85 159.26 L 149.81 159.13 C 150.64 159.01 151.21 158.24 151.10 157.42 C 150.98 156.59 150.21 156.02 149.39 156.13 L 148.43 156.27 C 147.60 156.39 147.03 157.15 147.14 157.98 C 147.26 158.81 148.03 159.38 148.85 159.26 Z M 149.81 159.12 L 150.82 158.98 C 151.65 158.86 152.22 158.10 152.10 157.28 C 151.99 156.45 151.22 155.88 150.40 156.00 L 149.39 156.14 C 148.56 156.26 147.99 157.02 148.11 157.84 C 148.22 158.66 148.99 159.24 149.81 159.12 Z M 150.82 158.97 L 151.86 158.83 C 152.68 158.71 153.26 157.95 153.14 157.13 C 153.03 156.31 152.27 155.74 151.45 155.85 L 150.40 156.00 C 149.58 156.12 149.01 156.87 149.13 157.70 C 149.24 158.52 150.00 159.09 150.82 158.97 Z M 151.86 158.82 L 152.91 158.68 C 153.73 158.56 154.30 157.81 154.19 156.99 C 154.08 156.17 153.32 155.60 152.50 155.71 L 151.45 155.86 C 150.63 155.97 150.06 156.73 150.17 157.55 C 150.29 158.36 151.04 158.93 151.86 158.82 Z M 152.91 158.67 L 153.95 158.53 C 154.76 158.42 155.33 157.67 155.22 156.86 C 155.11 156.04 154.36 155.47 153.55 155.58 L 152.51 155.72 C 151.69 155.83 151.12 156.58 151.23 157.39 C 151.34 158.21 152.09 158.78 152.91 158.67 Z M 153.94 158.53 L 154.94 158.40 C 155.76 158.29 156.33 157.54 156.22 156.73 C 156.12 155.92 155.37 155.35 154.56 155.45 L 153.55 155.58 C 152.74 155.69 152.17 156.44 152.28 157.25 C 152.38 158.06 153.13 158.63 153.94 158.53 Z M 154.93 158.39 L 156.05 158.25 C 156.86 158.15 157.43 157.41 157.33 156.60 C 157.23 155.79 156.49 155.22 155.68 155.32 L 154.57 155.46 C 153.76 155.56 153.18 156.30 153.28 157.11 C 153.39 157.92 154.12 158.49 154.93 158.39 Z M 156.04 158.24 L 157.12 158.11 C 157.93 158.02 158.50 157.29 158.41 156.48 C 158.31 155.68 157.58 155.10 156.78 155.20 L 155.69 155.32 C 154.88 155.42 154.31 156.15 154.40 156.96 C 154.50 157.76 155.23 158.34 156.04 158.24 Z M 157.11 158.11 L 158.13 157.99 C 158.93 157.90 159.50 157.18 159.41 156.38 C 159.33 155.58 158.60 155.00 157.80 155.09 L 156.79 155.20 C 155.99 155.29 155.41 156.02 155.50 156.82 C 155.59 157.62 156.31 158.20 157.11 158.11 Z M 158.12 157.99 L 159.08 157.88 C 159.87 157.80 160.45 157.09 160.37 156.29 C 160.28 155.49 159.57 154.91 158.77 155.00 L 157.81 155.10 C 157.01 155.18 156.44 155.90 156.52 156.69 C 156.60 157.49 157.32 158.07 158.12 157.99 Z M 159.07 157.88 L 159.99 157.78 C 160.78 157.70 161.36 157.00 161.28 156.20 C 161.20 155.41 160.49 154.83 159.70 154.91 L 158.78 155.01 C 157.98 155.09 157.41 155.79 157.49 156.59 C 157.57 157.38 158.28 157.96 159.07 157.88 Z M 159.98 157.77 L 160.88 157.69 C 161.67 157.61 162.25 156.91 162.17 156.12 C 162.09 155.33 161.39 154.75 160.60 154.83 L 159.70 154.92 C 158.92 155.00 158.34 155.70 158.42 156.49 C 158.49 157.28 159.20 157.85 159.98 157.77 Z M 160.88 157.68 L 161.18 157.65 C 161.96 157.57 162.54 156.88 162.46 156.09 C 162.39 155.31 161.69 154.73 160.90 154.81 L 160.60 154.84 C 159.82 154.91 159.24 155.61 159.32 156.40 C 159.40 157.18 160.10 157.76 160.88 157.68 Z"
      fill="black"
      fill-rule="nonzero" /><path d="M 146.44 177.75 L 145.17 178.10 C 144.27 178.34 143.74 179.27 143.99 180.17 C 144.23 181.07 145.16 181.61 146.07 181.36 L 147.33 181.01 C 148.23 180.77 148.76 179.84 148.52 178.94 C 148.27 178.03 147.34 177.50 146.44 177.75 Z M 145.15 178.09 L 143.97 178.43 C 143.06 178.69 142.54 179.64 142.80 180.54 C 143.06 181.44 144.01 181.97 144.91 181.70 L 146.09 181.36 C 147.00 181.10 147.52 180.16 147.25 179.25 C 146.99 178.35 146.05 177.83 145.15 178.09 Z M 143.90 178.44 L 142.89 178.77 C 141.99 179.07 141.50 180.04 141.80 180.94 C 142.09 181.84 143.06 182.33 143.96 182.03 L 144.97 181.70 C 145.87 181.40 146.36 180.43 146.07 179.53 C 145.77 178.63 144.80 178.15 143.90 178.44 Z M 142.76 178.81 L 142.00 179.13 C 141.12 179.50 140.71 180.51 141.08 181.39 C 141.45 182.27 142.46 182.68 143.34 182.31 L 144.10 181.99 C 144.97 181.62 145.38 180.61 145.01 179.73 C 144.64 178.85 143.63 178.44 142.76 178.81 Z M 141.65 179.32 L 141.22 179.63 C 140.45 180.19 140.27 181.28 140.84 182.05 C 141.40 182.83 142.49 183.00 143.26 182.44 L 143.69 182.13 C 144.46 181.56 144.63 180.48 144.07 179.70 C 143.51 178.93 142.42 178.75 141.65 179.32 Z M 140.58 181.56 L 140.72 182.00 C 141.01 182.92 141.99 183.42 142.91 183.13 C 143.83 182.84 144.33 181.86 144.04 180.94 L 143.90 180.50 C 143.61 179.59 142.63 179.08 141.71 179.37 C 140.80 179.66 140.29 180.64 140.58 181.56 Z M 141.71 183.08 L 142.61 183.45 C 143.50 183.82 144.52 183.40 144.89 182.51 C 145.26 181.62 144.83 180.60 143.94 180.23 L 143.05 179.86 C 142.16 179.49 141.14 179.91 140.77 180.80 C 140.40 181.69 140.82 182.72 141.71 183.08 Z M 142.91 183.55 L 144.23 183.84 C 145.18 184.04 146.11 183.44 146.31 182.50 C 146.51 181.55 145.91 180.62 144.97 180.42 L 143.64 180.13 C 142.70 179.93 141.77 180.53 141.56 181.47 C 141.36 182.42 141.96 183.35 142.91 183.55 Z M 144.36 183.86 L 145.38 184.00 C 146.34 184.14 147.22 183.48 147.36 182.52 C 147.49 181.56 146.83 180.68 145.87 180.54 L 144.85 180.40 C 143.89 180.26 143.00 180.93 142.87 181.88 C 142.73 182.84 143.40 183.72 144.36 183.86 Z M 145.45 184.01 L 146.48 184.11 C 147.44 184.21 148.29 183.51 148.39 182.55 C 148.48 181.59 147.79 180.74 146.83 180.64 L 145.80 180.54 C 144.84 180.44 143.99 181.14 143.89 182.10 C 143.79 183.06 144.49 183.91 145.45 184.01 Z M 146.53 184.11 L 147.54 184.18 C 148.50 184.25 149.33 183.53 149.40 182.57 C 149.47 181.61 148.75 180.78 147.79 180.71 L 146.77 180.64 C 145.82 180.57 144.98 181.30 144.92 182.25 C 144.85 183.21 145.57 184.04 146.53 184.11 Z M 147.58 184.18 L 148.55 184.23 C 149.51 184.28 150.33 183.54 150.37 182.58 C 150.42 181.62 149.68 180.81 148.72 180.76 L 147.75 180.71 C 146.79 180.67 145.98 181.41 145.93 182.36 C 145.89 183.32 146.62 184.14 147.58 184.18 Z M 148.58 184.22 L 149.59 184.26 C 150.55 184.29 151.34 183.54 151.37 182.58 C 151.41 181.63 150.66 180.83 149.70 180.80 L 148.69 180.77 C 147.74 180.74 146.94 181.48 146.91 182.44 C 146.88 183.39 147.63 184.19 148.58 184.22 Z M 149.61 184.24 L 150.64 184.26 C 151.59 184.28 152.37 183.53 152.39 182.58 C 152.40 181.63 151.65 180.85 150.70 180.83 L 149.68 180.81 C 148.73 180.80 147.95 181.55 147.93 182.49 C 147.91 183.44 148.67 184.22 149.61 184.24 Z M 150.66 184.25 L 151.62 184.25 C 152.56 184.26 153.33 183.51 153.34 182.57 C 153.34 181.63 152.59 180.86 151.65 180.86 L 150.68 180.85 C 149.75 180.84 148.98 181.60 148.97 182.53 C 148.97 183.47 149.72 184.24 150.66 184.25 Z M 151.64 184.24 L 152.60 184.24 C 153.53 184.24 154.28 183.49 154.28 182.56 C 154.28 181.63 153.53 180.88 152.60 180.88 L 151.64 180.87 C 150.71 180.87 149.96 181.62 149.96 182.55 C 149.96 183.48 150.71 184.23 151.64 184.24 Z M 152.60 184.22 L 153.56 184.22 C 154.48 184.22 155.23 183.47 155.22 182.55 C 155.22 181.63 154.48 180.89 153.56 180.89 L 152.60 180.89 C 151.68 180.89 150.93 181.64 150.93 182.56 C 150.93 183.48 151.68 184.22 152.60 184.22 Z M 153.57 184.21 L 154.56 184.20 C 155.48 184.19 156.21 183.45 156.20 182.53 C 156.20 181.62 155.45 180.89 154.54 180.89 L 153.54 180.90 C 152.63 180.91 151.90 181.65 151.90 182.57 C 151.91 183.48 152.66 184.22 153.57 184.21 Z M 154.58 184.19 L 155.60 184.17 C 156.51 184.15 157.23 183.40 157.21 182.49 C 157.19 181.58 156.44 180.86 155.53 180.88 L 154.51 180.90 C 153.61 180.92 152.89 181.68 152.91 182.58 C 152.93 183.49 153.68 184.21 154.58 184.19 Z M 155.64 184.15 L 156.66 184.11 C 157.56 184.07 158.26 183.31 158.22 182.41 C 158.18 181.51 157.42 180.81 156.52 180.85 L 155.50 180.90 C 154.60 180.93 153.90 181.69 153.94 182.59 C 153.98 183.49 154.74 184.19 155.64 184.15 Z M 156.70 184.10 L 157.67 184.03 C 158.56 183.97 159.24 183.20 159.18 182.31 C 159.12 181.42 158.34 180.74 157.45 180.80 L 156.48 180.87 C 155.59 180.93 154.92 181.70 154.98 182.59 C 155.04 183.48 155.81 184.16 156.70 184.10 Z M 157.71 184.02 L 158.69 183.93 C 159.57 183.85 160.22 183.07 160.14 182.18 C 160.06 181.30 159.28 180.65 158.40 180.73 L 157.42 180.82 C 156.53 180.90 155.88 181.68 155.96 182.56 C 156.04 183.44 156.82 184.10 157.71 184.02 Z M 158.72 183.91 L 159.73 183.80 C 160.60 183.70 161.23 182.91 161.13 182.04 C 161.03 181.16 160.25 180.53 159.37 180.63 L 158.37 180.75 C 157.49 180.84 156.86 181.63 156.96 182.51 C 157.06 183.38 157.85 184.01 158.72 183.91 Z M 159.76 183.78 L 160.78 183.64 C 161.64 183.53 162.25 182.74 162.13 181.87 C 162.02 181.01 161.23 180.40 160.36 180.51 L 159.34 180.65 C 158.48 180.76 157.87 181.56 157.98 182.42 C 158.10 183.29 158.89 183.89 159.76 183.78 Z M 160.80 183.63 L 161.75 183.48 C 162.61 183.35 163.20 182.56 163.07 181.70 C 162.94 180.85 162.14 180.26 161.29 180.39 L 160.34 180.53 C 159.48 180.66 158.89 181.46 159.02 182.31 C 159.15 183.17 159.95 183.75 160.80 183.63 Z M 161.77 183.46 L 162.75 183.30 C 163.59 183.16 164.16 182.37 164.02 181.52 C 163.88 180.68 163.09 180.11 162.24 180.25 L 161.27 180.41 C 160.42 180.55 159.85 181.34 159.99 182.19 C 160.13 183.03 160.93 183.60 161.77 183.46 Z M 162.77 183.28 L 163.76 183.11 C 164.59 182.96 165.15 182.16 165.00 181.33 C 164.85 180.49 164.05 179.94 163.22 180.09 L 162.23 180.26 C 161.39 180.41 160.84 181.21 160.99 182.04 C 161.13 182.88 161.93 183.43 162.77 183.28 Z M 163.77 183.09 L 164.78 182.90 C 165.61 182.74 166.15 181.94 165.99 181.12 C 165.84 180.30 165.04 179.76 164.22 179.91 L 163.21 180.11 C 162.38 180.26 161.84 181.06 162.00 181.88 C 162.16 182.70 162.95 183.25 163.77 183.09 Z M 164.80 182.88 L 165.78 182.68 C 166.60 182.52 167.13 181.73 166.96 180.91 C 166.80 180.10 166.01 179.57 165.19 179.73 L 164.21 179.93 C 163.39 180.09 162.86 180.89 163.03 181.70 C 163.19 182.51 163.98 183.04 164.80 182.88 Z M 165.79 182.67 L 166.76 182.47 C 167.57 182.30 168.09 181.51 167.92 180.70 C 167.75 179.89 166.96 179.38 166.16 179.54 L 165.18 179.75 C 164.38 179.91 163.86 180.70 164.03 181.51 C 164.20 182.32 164.99 182.84 165.79 182.67 Z M 166.77 182.45 L 167.75 182.25 C 168.55 182.08 169.06 181.29 168.89 180.49 C 168.72 179.69 167.93 179.18 167.13 179.35 L 166.15 179.56 C 165.35 179.73 164.84 180.51 165.01 181.31 C 165.18 182.11 165.97 182.62 166.77 182.45 Z M 167.75 182.24 L 168.73 182.03 C 169.52 181.86 170.03 181.07 169.86 180.28 C 169.69 179.48 168.91 178.98 168.11 179.15 L 167.13 179.36 C 166.34 179.53 165.83 180.31 166.00 181.10 C 166.17 181.90 166.95 182.41 167.75 182.24 Z M 168.72 182.02 L 169.71 181.81 C 170.50 181.64 171.01 180.86 170.84 180.08 C 170.67 179.29 169.90 178.78 169.11 178.95 L 168.12 179.16 C 167.33 179.32 166.83 180.10 166.99 180.89 C 167.16 181.68 167.94 182.18 168.72 182.02 Z M 169.70 181.80 L 170.67 181.60 C 171.46 181.44 171.96 180.67 171.80 179.88 C 171.64 179.10 170.87 178.59 170.08 178.75 L 169.11 178.96 C 168.33 179.12 167.82 179.89 167.99 180.67 C 168.15 181.46 168.92 181.96 169.70 181.80 Z M 170.67 181.60 L 171.63 181.40 C 172.42 181.24 172.92 180.48 172.76 179.69 C 172.60 178.91 171.84 178.40 171.06 178.56 L 170.09 178.76 C 169.31 178.92 168.80 179.68 168.96 180.46 C 169.12 181.25 169.88 181.75 170.67 181.60 Z M 171.63 181.40 L 172.60 181.20 C 173.38 181.05 173.89 180.29 173.73 179.51 C 173.58 178.72 172.82 178.22 172.04 178.37 L 171.06 178.57 C 170.28 178.72 169.77 179.48 169.93 180.26 C 170.09 181.04 170.84 181.55 171.63 181.40 Z M 172.60 181.20 L 173.58 181.00 C 174.36 180.85 174.87 180.09 174.72 179.31 C 174.56 178.54 173.81 178.03 173.03 178.18 L 172.04 178.38 C 171.26 178.53 170.75 179.29 170.91 180.07 C 171.06 180.85 171.82 181.35 172.60 181.20 Z M 173.58 181.00 L 174.58 180.80 C 175.36 180.65 175.87 179.90 175.71 179.12 C 175.56 178.34 174.81 177.84 174.03 177.99 L 173.03 178.19 C 172.25 178.34 171.75 179.09 171.90 179.87 C 172.05 180.65 172.81 181.15 173.58 181.00 Z M 174.59 180.80 L 175.55 180.61 C 176.33 180.45 176.83 179.70 176.68 178.93 C 176.52 178.15 175.77 177.65 175.00 177.80 L 174.03 177.99 C 173.26 178.15 172.75 178.90 172.90 179.67 C 173.06 180.45 173.81 180.95 174.59 180.80 Z M 175.55 180.61 L 176.52 180.41 C 177.29 180.26 177.80 179.51 177.64 178.73 C 177.49 177.96 176.74 177.46 175.96 177.61 L 174.99 177.80 C 174.22 177.96 173.72 178.71 173.87 179.48 C 174.03 180.26 174.78 180.76 175.55 180.61 Z M 176.52 180.41 L 177.50 180.22 C 178.28 180.06 178.78 179.31 178.62 178.54 C 178.47 177.76 177.72 177.26 176.94 177.42 L 175.96 177.61 C 175.19 177.77 174.69 178.52 174.84 179.29 C 175.00 180.06 175.75 180.57 176.52 180.41 Z M 177.50 180.22 L 178.49 180.02 C 179.27 179.86 179.77 179.11 179.61 178.34 C 179.46 177.57 178.71 177.06 177.93 177.22 L 176.94 177.42 C 176.17 177.57 175.67 178.32 175.82 179.10 C 175.98 179.87 176.73 180.37 177.50 180.22 Z M 178.49 180.02 L 179.49 179.82 C 180.26 179.66 180.76 178.91 180.61 178.14 C 180.45 177.37 179.70 176.87 178.93 177.02 L 177.93 177.22 C 177.16 177.37 176.66 178.13 176.82 178.90 C 176.97 179.67 177.72 180.17 178.49 180.02 Z M 179.49 179.82 L 179.97 179.72 C 180.75 179.57 181.25 178.82 181.09 178.04 C 180.94 177.27 180.19 176.77 179.41 176.93 L 178.93 177.02 C 178.16 177.18 177.66 177.93 177.81 178.70 C 177.97 179.47 178.72 179.97 179.49 179.82 Z"
      fill="black"
      fill-rule="nonzero" /></svg>