<svg xmlns="http://www.w3.org/2000/svg" width="300" height="300" viewBox="0 0 300 300">
<path d="M 135.51 105.46 L 135.62 106.50 C 135.71 107.37 136.50 108.01 137.37 107.92 C 138.25 107.82 138.88 107.04 138.79 106.16 L 138.68 105.13 C 138.59 104.26 137.80 103.62 136.93 103.71 C 136.05 103.81 135.42 104.59 135.51 105.46 Z M 135.62 106.55 L 135.76 107.56 C 135.88 108.43 136.69 109.05 137.56 108.92 C 138.44 108.80 139.05 108.00 138.93 107.12 L 138.79 106.11 C 138.67 105.24 137.86 104.63 136.99 104.75 C 136.11 104.87 135.50 105.68 135.62 106.55 Z M 135.78 107.67 L 135.98 108.63 C 136.16 109.50 137.01 110.05 137.87 109.87 C 138.74 109.69 139.29 108.84 139.11 107.98 L 138.91 107.01 C 138.73 106.15 137.88 105.59 137.02 105.77 C 136.15 105.95 135.60 106.80 135.78 107.67 Z M 136.02 108.81 L 136.32 109.70 C 136.59 110.54 137.50 111.00 138.34 110.72 C 139.18 110.44 139.64 109.54 139.36 108.70 L 139.07 107.80 C 138.79 106.96 137.89 106.51 137.04 106.78 C 136.20 107.06 135.75 107.96 136.02 108.81 Z M 136.42 109.90 L 136.82 110.71 C 137.21 111.50 138.16 111.82 138.94 111.43 C 139.73 111.05 140.05 110.10 139.66 109.31 L 139.26 108.50 C 138.87 107.71 137.92 107.39 137.14 107.78 C 136.35 108.16 136.03 109.11 136.42 109.90 Z M 136.94 110.84 L 137.44 111.65 C 137.90 112.37 138.86 112.58 139.58 112.12 C 140.30 111.66 140.52 110.71 140.06 109.99 L 139.55 109.18 C 139.09 108.46 138.13 108.25 137.41 108.71 C 136.69 109.16 136.48 110.12 136.94 110.84 Z M 137.52 111.69 L 138.12 112.54 C 138.61 113.22 139.55 113.38 140.23 112.90 C 140.92 112.41 141.07 111.47 140.59 110.79 L 139.98 109.94 C 139.50 109.26 138.55 109.10 137.87 109.58 C 137.19 110.07 137.03 111.01 137.52 111.69 Z M 138.16 112.53 L 138.77 113.39 C 139.25 114.05 140.18 114.20 140.84 113.72 C 141.51 113.24 141.66 112.32 141.18 111.65 L 140.56 110.80 C 140.08 110.13 139.15 109.99 138.49 110.46 C 137.83 110.94 137.68 111.87 138.16 112.53 Z M 138.78 113.37 L 139.30 114.11 C 139.77 114.77 140.68 114.93 141.34 114.46 C 142.01 114.00 142.16 113.08 141.70 112.42 L 141.17 111.68 C 140.71 111.02 139.79 110.86 139.13 111.32 C 138.47 111.79 138.31 112.70 138.78 113.37 Z M 139.30 114.10 L 139.86 114.90 C 140.31 115.56 141.22 115.72 141.88 115.27 C 142.55 114.81 142.71 113.90 142.25 113.24 L 141.70 112.44 C 141.24 111.77 140.33 111.61 139.67 112.07 C 139.01 112.53 138.84 113.43 139.30 114.10 Z M 139.86 114.89 L 140.44 115.73 C 140.89 116.39 141.79 116.56 142.45 116.11 C 143.11 115.66 143.28 114.75 142.83 114.09 L 142.25 113.25 C 141.80 112.59 140.90 112.42 140.24 112.87 C 139.57 113.32 139.41 114.23 139.86 114.89 Z M 140.44 115.72 L 141.03 116.59 C 141.48 117.25 142.38 117.43 143.04 116.98 C 143.69 116.53 143.87 115.63 143.42 114.97 L 142.83 114.10 C 142.38 113.44 141.48 113.27 140.82 113.72 C 140.16 114.16 139.99 115.06 140.44 115.72 Z M 141.04 116.59 L 141.64 117.48 C 142.08 118.13 142.97 118.31 143.63 117.86 C 144.29 117.42 144.46 116.53 144.02 115.87 L 143.41 114.98 C 142.97 114.32 142.08 114.15 141.42 114.59 C 140.76 115.04 140.59 115.93 141.04 116.59 Z M 141.64 117.47 L 141.73 117.61 C 142.17 118.26 143.06 118.44 143.72 117.99 C 144.37 117.55 144.55 116.66 144.10 116.01 L 144.01 115.87 C 143.57 115.22 142.68 115.04 142.02 115.49 C 141.37 115.93 141.20 116.82 141.64 117.47 Z"
      fill="black"
      fill-rule="nonzero" /><path d="M 127.37 138.76 L 126.39 138.72 C 125.50 138.68 124.76 139.36 124.72 140.25 C 124.69 141.13 125.37 141.88 126.25 141.91 L 127.24 141.95 C 128.12 141.99 128.87 141.30 128.90 140.42 C 128.94 139.54 128.26 138.79 127.37 138.76 Z M 126.42 138.71 L 125.43 138.65 C 124.54 138.60 123.78 139.27 123.72 140.16 C 123.67 141.05 124.35 141.81 125.23 141.86 L 126.22 141.92 C 127.11 141.97 127.87 141.30 127.93 140.41 C 127.98 139.52 127.31 138.76 126.42 138.71 Z M 125.49 138.64 L 124.48 138.55 C 123.59 138.46 122.80 139.11 122.72 140.00 C 122.63 140.89 123.28 141.68 124.17 141.77 L 125.18 141.87 C 126.06 141.95 126.86 141.30 126.94 140.41 C 127.03 139.52 126.38 138.73 125.49 138.64 Z M 124.58 138.55 L 123.39 138.37 C 122.50 138.23 121.67 138.84 121.53 139.72 C 121.39 140.61 122.00 141.44 122.89 141.58 L 124.08 141.77 C 124.97 141.90 125.80 141.30 125.93 140.41 C 126.07 139.52 125.46 138.69 124.58 138.55 Z M 123.58 138.40 L 122.50 138.10 C 121.63 137.85 120.73 138.35 120.48 139.22 C 120.24 140.09 120.74 140.99 121.61 141.24 L 122.69 141.55 C 123.56 141.79 124.46 141.29 124.71 140.42 C 124.95 139.55 124.45 138.65 123.58 138.40 Z M 123.51 138.91 L 123.31 138.53 C 122.89 137.73 121.90 137.42 121.10 137.83 C 120.30 138.25 119.99 139.24 120.40 140.05 L 120.60 140.43 C 121.02 141.23 122.01 141.54 122.81 141.12 C 123.62 140.70 123.93 139.71 123.51 138.91 Z M 122.56 140.77 L 123.08 140.53 C 123.90 140.14 124.25 139.16 123.86 138.34 C 123.47 137.52 122.49 137.17 121.67 137.56 L 121.15 137.80 C 120.34 138.19 119.99 139.17 120.37 139.99 C 120.76 140.81 121.74 141.16 122.56 140.77 Z M 122.81 140.63 L 123.66 140.39 C 124.54 140.15 125.05 139.24 124.80 138.37 C 124.56 137.49 123.65 136.98 122.78 137.23 L 121.93 137.46 C 121.06 137.71 120.55 138.61 120.79 139.49 C 121.04 140.36 121.94 140.87 122.81 140.63 Z M 123.58 140.41 L 124.66 140.16 C 125.54 139.96 126.10 139.09 125.90 138.20 C 125.70 137.32 124.82 136.77 123.94 136.97 L 122.86 137.21 C 121.98 137.41 121.42 138.29 121.62 139.17 C 121.82 140.05 122.70 140.61 123.58 140.41 Z M 124.64 140.17 L 125.83 139.92 C 126.71 139.74 127.28 138.87 127.10 137.98 C 126.91 137.10 126.04 136.53 125.16 136.71 L 123.97 136.96 C 123.08 137.15 122.51 138.01 122.70 138.90 C 122.88 139.78 123.75 140.35 124.64 140.17 Z M 125.83 139.92 L 127.00 139.67 C 127.89 139.48 128.45 138.61 128.26 137.73 C 128.08 136.85 127.21 136.28 126.33 136.47 L 125.15 136.72 C 124.27 136.90 123.71 137.77 123.89 138.66 C 124.08 139.54 124.95 140.10 125.83 139.92 Z M 127.03 139.65 L 128.07 139.41 C 128.94 139.21 129.49 138.34 129.29 137.46 C 129.09 136.59 128.22 136.05 127.34 136.25 L 126.30 136.49 C 125.43 136.69 124.89 137.56 125.09 138.43 C 125.29 139.30 126.16 139.85 127.03 139.65 Z M 128.10 139.38 L 129.07 139.13 C 129.93 138.91 130.45 138.04 130.23 137.19 C 130.01 136.33 129.14 135.82 128.29 136.03 L 127.32 136.28 C 126.46 136.50 125.94 137.36 126.16 138.22 C 126.38 139.07 127.24 139.59 128.10 139.38 Z M 129.10 139.10 L 130.03 138.84 C 130.87 138.61 131.36 137.74 131.13 136.90 C 130.90 136.07 130.03 135.57 129.19 135.81 L 128.26 136.06 C 127.42 136.30 126.93 137.16 127.16 138.00 C 127.40 138.84 128.26 139.33 129.10 139.10 Z M 130.06 138.81 L 130.98 138.53 C 131.80 138.29 132.26 137.42 132.02 136.60 C 131.77 135.78 130.91 135.32 130.09 135.56 L 129.17 135.84 C 128.35 136.08 127.88 136.95 128.13 137.77 C 128.37 138.59 129.24 139.05 130.06 138.81 Z M 131.00 138.50 L 131.92 138.21 C 132.72 137.95 133.17 137.09 132.91 136.29 C 132.66 135.49 131.80 135.04 130.99 135.30 L 130.07 135.59 C 129.26 135.85 128.82 136.71 129.08 137.51 C 129.33 138.32 130.19 138.76 131.00 138.50 Z M 131.93 138.19 L 132.84 137.89 C 133.63 137.62 134.06 136.77 133.80 135.97 C 133.53 135.18 132.68 134.75 131.88 135.02 L 130.98 135.32 C 130.18 135.58 129.75 136.44 130.02 137.23 C 130.28 138.03 131.14 138.45 131.93 138.19 Z M 132.86 137.87 L 133.79 137.55 C 134.57 137.28 134.99 136.42 134.71 135.63 C 134.44 134.85 133.58 134.43 132.80 134.71 L 131.87 135.03 C 131.08 135.30 130.67 136.16 130.94 136.95 C 131.21 137.73 132.07 138.14 132.86 137.87 Z M 133.80 137.53 L 134.75 137.19 C 135.53 136.91 135.93 136.05 135.65 135.28 C 135.36 134.50 134.51 134.10 133.73 134.38 L 132.78 134.72 C 132.01 135.00 131.61 135.86 131.89 136.64 C 132.17 137.41 133.03 137.81 133.80 137.53 Z M 134.76 137.17 L 135.72 136.81 C 136.49 136.52 136.88 135.67 136.59 134.90 C 136.30 134.13 135.44 133.74 134.68 134.03 L 133.72 134.39 C 132.95 134.68 132.56 135.54 132.85 136.31 C 133.14 137.08 134.00 137.46 134.76 137.17 Z M 135.74 136.80 L 136.70 136.42 C 137.46 136.12 137.83 135.26 137.53 134.51 C 137.24 133.75 136.38 133.37 135.62 133.67 L 134.66 134.05 C 133.90 134.35 133.53 135.20 133.83 135.96 C 134.12 136.72 134.98 137.09 135.74 136.80 Z M 136.72 136.40 L 137.65 136.02 C 138.40 135.72 138.76 134.86 138.45 134.11 C 138.14 133.36 137.29 133.00 136.54 133.31 L 135.61 133.69 C 134.86 133.99 134.50 134.85 134.80 135.60 C 135.11 136.35 135.97 136.71 136.72 136.40 Z M 137.66 136.01 L 138.58 135.62 C 139.33 135.31 139.67 134.45 139.36 133.71 C 139.04 132.96 138.19 132.62 137.44 132.93 L 136.52 133.32 C 135.78 133.63 135.43 134.49 135.75 135.23 C 136.06 135.98 136.92 136.33 137.66 136.01 Z M 138.59 135.61 L 139.51 135.21 C 140.25 134.89 140.58 134.03 140.26 133.29 C 139.94 132.56 139.08 132.22 138.35 132.54 L 137.43 132.94 C 136.69 133.26 136.36 134.12 136.68 134.86 C 137.00 135.59 137.86 135.93 138.59 135.61 Z M 139.52 135.20 L 140.44 134.79 C 141.17 134.46 141.49 133.60 141.17 132.87 C 140.84 132.14 139.98 131.82 139.25 132.14 L 138.34 132.55 C 137.61 132.88 137.28 133.74 137.61 134.47 C 137.93 135.20 138.79 135.52 139.52 135.20 Z M 140.44 134.78 L 141.35 134.36 C 142.08 134.03 142.39 133.17 142.06 132.45 C 141.73 131.73 140.88 131.41 140.15 131.74 L 139.24 132.15 C 138.52 132.49 138.20 133.34 138.53 134.07 C 138.86 134.79 139.72 135.11 140.44 134.78 Z M 141.36 134.35 L 142.26 133.93 C 142.98 133.60 143.30 132.74 142.96 132.02 C 142.63 131.30 141.77 130.99 141.05 131.33 L 140.14 131.75 C 139.43 132.08 139.11 132.94 139.45 133.66 C 139.78 134.38 140.64 134.69 141.36 134.35 Z M 142.27 133.93 L 143.18 133.50 C 143.89 133.16 144.20 132.30 143.86 131.59 C 143.52 130.87 142.67 130.57 141.95 130.90 L 141.05 131.33 C 140.33 131.67 140.02 132.52 140.36 133.24 C 140.70 133.96 141.55 134.26 142.27 133.93 Z M 143.18 133.49 L 144.08 133.06 C 144.80 132.72 145.10 131.87 144.76 131.15 C 144.42 130.44 143.56 130.14 142.85 130.48 L 141.95 130.91 C 141.23 131.25 140.93 132.10 141.27 132.82 C 141.61 133.53 142.47 133.83 143.18 133.49 Z M 144.09 133.06 L 144.99 132.62 C 145.70 132.28 146.00 131.43 145.66 130.71 C 145.31 130.00 144.46 129.70 143.75 130.05 L 142.85 130.48 C 142.13 130.82 141.84 131.68 142.18 132.39 C 142.52 133.10 143.38 133.40 144.09 133.06 Z M 144.99 132.62 L 145.89 132.19 C 146.60 131.84 146.90 130.99 146.55 130.28 C 146.21 129.57 145.35 129.27 144.64 129.61 L 143.74 130.05 C 143.03 130.39 142.74 131.25 143.08 131.96 C 143.43 132.67 144.28 132.96 144.99 132.62 Z M 145.89 132.18 L 146.79 131.75 C 147.50 131.40 147.79 130.55 147.45 129.84 C 147.10 129.13 146.25 128.83 145.54 129.18 L 144.64 129.62 C 143.93 129.96 143.64 130.81 143.98 131.52 C 144.33 132.23 145.18 132.53 145.89 132.18 Z M 146.79 131.75 L 146.85 131.72 C 147.56 131.37 147.85 130.52 147.51 129.81 C 147.16 129.10 146.31 128.81 145.60 129.15 L 145.54 129.18 C 144.83 129.53 144.54 130.38 144.88 131.09 C 145.23 131.80 146.08 132.09 146.79 131.75 Z"
      fill="black"
      fill-rule="nonzero" /><path d="M 110.56 166.80 L 109.28 166.54 C 108.40 166.37 107.54 166.94 107.36 167.83 C 107.19 168.71 107.76 169.57 108.64 169.75 L 109.92 170.00 C 110.80 170.18 111.66 169.61 111.84 168.72 C 112.02 167.84 111.44 166.98 110.56 166.80 Z M 109.34 166.55 L 108.18 166.28 C 107.30 166.07 106.42 166.62 106.21 167.50 C 106.00 168.39 106.55 169.27 107.44 169.48 L 108.59 169.75 C 109.47 169.95 110.36 169.40 110.56 168.52 C 110.77 167.63 110.22 166.75 109.34 166.55 Z M 108.32 166.31 L 107.42 166.01 C 106.55 165.73 105.62 166.20 105.34 167.07 C 105.05 167.94 105.53 168.87 106.40 169.16 L 107.30 169.45 C 108.17 169.73 109.10 169.26 109.38 168.39 C 109.67 167.52 109.19 166.59 108.32 166.31 Z M 107.80 166.18 L 107.27 165.84 C 106.49 165.35 105.47 165.59 104.98 166.36 C 104.48 167.14 104.72 168.17 105.49 168.66 L 106.02 168.99 C 106.80 169.48 107.83 169.25 108.32 168.47 C 108.81 167.69 108.57 166.67 107.80 166.18 Z M 108.06 167.38 L 108.10 166.85 C 108.17 165.93 107.47 165.12 106.54 165.05 C 105.62 164.99 104.81 165.68 104.75 166.61 L 104.71 167.13 C 104.64 168.05 105.33 168.86 106.26 168.93 C 107.18 169.00 107.99 168.30 108.06 167.38 Z M 107.48 168.07 L 108.23 167.47 C 108.97 166.89 109.10 165.82 108.51 165.08 C 107.93 164.34 106.86 164.21 106.12 164.80 L 105.37 165.39 C 104.63 165.97 104.50 167.05 105.08 167.79 C 105.67 168.52 106.74 168.65 107.48 168.07 Z M 107.97 167.67 L 109.07 167.10 C 109.92 166.66 110.25 165.62 109.81 164.77 C 109.37 163.92 108.33 163.59 107.48 164.03 L 106.38 164.60 C 105.53 165.04 105.20 166.08 105.64 166.93 C 106.08 167.78 107.12 168.11 107.97 167.67 Z M 108.98 167.16 L 109.94 166.74 C 110.82 166.35 111.22 165.32 110.83 164.44 C 110.44 163.56 109.41 163.16 108.53 163.55 L 107.57 163.97 C 106.69 164.36 106.29 165.39 106.68 166.27 C 107.07 167.15 108.10 167.55 108.98 167.16 Z M 109.88 166.77 L 110.79 166.41 C 111.69 166.05 112.13 165.04 111.77 164.14 C 111.42 163.24 110.41 162.80 109.51 163.16 L 108.59 163.52 C 107.70 163.87 107.26 164.88 107.61 165.78 C 107.96 166.68 108.98 167.12 109.88 166.77 Z M 110.74 166.43 L 111.66 166.10 C 112.57 165.77 113.05 164.77 112.72 163.86 C 112.40 162.95 111.40 162.48 110.49 162.80 L 109.56 163.13 C 108.65 163.46 108.18 164.46 108.50 165.37 C 108.83 166.28 109.83 166.75 110.74 166.43 Z M 111.63 166.11 L 112.54 165.81 C 113.46 165.50 113.95 164.51 113.65 163.59 C 113.34 162.67 112.35 162.18 111.43 162.48 L 110.52 162.79 C 109.60 163.10 109.11 164.09 109.42 165.01 C 109.72 165.92 110.71 166.42 111.63 166.11 Z M 112.53 165.81 L 113.42 165.52 C 114.34 165.23 114.84 164.24 114.55 163.32 C 114.25 162.40 113.26 161.89 112.34 162.19 L 111.45 162.48 C 110.53 162.78 110.02 163.76 110.32 164.69 C 110.62 165.61 111.61 166.11 112.53 165.81 Z M 113.41 165.53 L 114.36 165.22 C 115.28 164.93 115.79 163.94 115.50 163.02 C 115.20 162.10 114.22 161.59 113.30 161.88 L 112.35 162.19 C 111.42 162.48 110.91 163.47 111.21 164.39 C 111.50 165.31 112.49 165.82 113.41 165.53 Z M 114.36 165.23 L 115.37 164.90 C 116.29 164.61 116.80 163.62 116.51 162.70 C 116.21 161.77 115.22 161.26 114.30 161.56 L 113.29 161.88 C 112.37 162.18 111.86 163.16 112.16 164.09 C 112.45 165.01 113.44 165.52 114.36 165.23 Z M 115.37 164.90 L 116.35 164.59 C 117.27 164.29 117.78 163.30 117.48 162.38 C 117.18 161.46 116.19 160.95 115.27 161.25 L 114.30 161.56 C 113.37 161.86 112.87 162.85 113.16 163.77 C 113.46 164.69 114.45 165.20 115.37 164.90 Z M 116.35 164.59 L 117.25 164.30 C 118.18 163.99 118.68 163.00 118.38 162.08 C 118.08 161.16 117.09 160.65 116.16 160.95 L 115.26 161.25 C 114.34 161.55 113.84 162.54 114.14 163.46 C 114.44 164.39 115.43 164.89 116.35 164.59 Z M 117.26 164.30 L 118.19 163.99 C 119.12 163.69 119.62 162.69 119.32 161.77 C 119.01 160.84 118.02 160.34 117.09 160.65 L 116.16 160.95 C 115.24 161.26 114.73 162.25 115.04 163.17 C 115.34 164.10 116.33 164.60 117.26 164.30 Z M 118.19 163.99 L 119.16 163.67 C 120.08 163.37 120.59 162.37 120.28 161.45 C 119.98 160.53 118.98 160.02 118.06 160.33 L 117.09 160.64 C 116.17 160.95 115.67 161.94 115.97 162.87 C 116.27 163.79 117.27 164.29 118.19 163.99 Z M 119.16 163.68 L 120.16 163.35 C 121.08 163.05 121.59 162.05 121.28 161.12 C 120.98 160.20 119.98 159.69 119.06 160.00 L 118.06 160.32 C 117.14 160.63 116.63 161.62 116.93 162.55 C 117.24 163.47 118.23 163.98 119.16 163.68 Z M 120.15 163.35 L 121.11 163.04 C 122.04 162.74 122.55 161.74 122.24 160.82 C 121.94 159.89 120.95 159.38 120.02 159.68 L 119.06 160.00 C 118.14 160.30 117.63 161.29 117.93 162.22 C 118.23 163.15 119.23 163.65 120.15 163.35 Z M 121.11 163.04 L 122.02 162.75 C 122.94 162.45 123.45 161.46 123.16 160.53 C 122.86 159.60 121.86 159.09 120.93 159.39 L 120.03 159.68 C 119.10 159.98 118.59 160.97 118.89 161.90 C 119.18 162.83 120.18 163.34 121.11 163.04 Z M 122.01 162.75 L 122.94 162.46 C 123.87 162.16 124.39 161.17 124.09 160.24 C 123.79 159.31 122.80 158.79 121.87 159.09 L 120.94 159.39 C 120.01 159.68 119.50 160.68 119.79 161.61 C 120.09 162.54 121.08 163.05 122.01 162.75 Z M 122.94 162.46 L 123.89 162.16 C 124.82 161.87 125.34 160.87 125.05 159.94 C 124.75 159.01 123.76 158.49 122.83 158.79 L 121.88 159.09 C 120.94 159.38 120.43 160.37 120.72 161.30 C 121.01 162.24 122.01 162.75 122.94 162.46 Z M 123.89 162.16 L 124.87 161.86 C 125.80 161.57 126.32 160.58 126.03 159.64 C 125.74 158.71 124.75 158.19 123.82 158.48 L 122.84 158.78 C 121.90 159.07 121.38 160.06 121.67 161.00 C 121.96 161.93 122.95 162.45 123.89 162.16 Z M 124.86 161.86 L 125.87 161.55 C 126.80 161.27 127.33 160.28 127.04 159.34 C 126.75 158.41 125.76 157.88 124.83 158.17 L 123.82 158.48 C 122.89 158.76 122.36 159.75 122.65 160.69 C 122.94 161.62 123.93 162.15 124.86 161.86 Z M 125.86 161.55 L 126.81 161.27 C 127.75 160.98 128.28 159.99 128.00 159.06 C 127.71 158.12 126.72 157.59 125.79 157.88 L 124.83 158.16 C 123.90 158.45 123.37 159.44 123.65 160.37 C 123.94 161.31 124.92 161.84 125.86 161.55 Z M 126.81 161.27 L 127.75 160.99 C 128.69 160.71 129.22 159.72 128.94 158.78 C 128.66 157.84 127.67 157.31 126.74 157.59 L 125.79 157.87 C 124.85 158.15 124.32 159.14 124.60 160.08 C 124.88 161.02 125.87 161.55 126.81 161.27 Z M 127.75 160.99 L 128.71 160.70 C 129.65 160.42 130.18 159.44 129.90 158.50 C 129.62 157.56 128.64 157.02 127.70 157.30 L 126.74 157.59 C 125.80 157.87 125.27 158.86 125.54 159.79 C 125.82 160.73 126.81 161.27 127.75 160.99 Z M 128.71 160.70 L 129.67 160.42 C 130.61 160.14 131.15 159.15 130.87 158.21 C 130.59 157.27 129.60 156.74 128.66 157.02 L 127.70 157.30 C 126.76 157.58 126.22 158.57 126.50 159.51 C 126.78 160.45 127.77 160.98 128.71 160.70 Z M 129.67 160.42 L 130.65 160.13 C 131.59 159.85 132.12 158.86 131.84 157.92 C 131.56 156.98 130.57 156.45 129.63 156.73 L 128.66 157.01 C 127.72 157.29 127.19 158.28 127.47 159.22 C 127.75 160.16 128.73 160.70 129.67 160.42 Z M 130.65 160.13 L 131.62 159.84 C 132.56 159.56 133.09 158.57 132.81 157.63 C 132.53 156.69 131.54 156.16 130.60 156.44 L 129.63 156.73 C 128.69 157.01 128.16 158.00 128.44 158.94 C 128.72 159.88 129.71 160.41 130.65 160.13 Z M 131.62 159.84 L 132.59 159.55 C 133.53 159.27 134.06 158.28 133.78 157.34 C 133.49 156.40 132.50 155.86 131.56 156.15 L 130.60 156.44 C 129.66 156.72 129.12 157.71 129.41 158.65 C 129.69 159.59 130.68 160.12 131.62 159.84 Z M 132.59 159.55 L 133.56 159.26 C 134.50 158.97 135.03 157.98 134.74 157.04 C 134.46 156.10 133.46 155.57 132.52 155.85 L 131.56 156.15 C 130.62 156.43 130.09 157.43 130.38 158.36 C 130.66 159.30 131.65 159.83 132.59 159.55 Z M 133.56 159.25 L 134.52 158.96 C 135.46 158.67 135.99 157.68 135.70 156.74 C 135.41 155.80 134.42 155.27 133.48 155.56 L 132.52 155.86 C 131.58 156.14 131.05 157.14 131.34 158.08 C 131.63 159.01 132.62 159.54 133.56 159.25 Z M 134.52 158.96 L 135.48 158.66 C 136.41 158.37 136.94 157.38 136.65 156.44 C 136.36 155.50 135.36 154.98 134.43 155.27 L 133.47 155.56 C 132.54 155.85 132.01 156.85 132.30 157.79 C 132.59 158.72 133.59 159.25 134.52 158.96 Z M 135.48 158.66 L 136.43 158.37 C 137.37 158.07 137.89 157.08 137.60 156.14 C 137.30 155.20 136.31 154.68 135.37 154.97 L 134.42 155.27 C 133.49 155.56 132.96 156.56 133.26 157.50 C 133.55 158.43 134.54 158.95 135.48 158.66 Z M 136.43 158.36 L 137.38 158.06 C 138.32 157.77 138.84 156.77 138.54 155.84 C 138.25 154.90 137.25 154.38 136.32 154.68 L 135.37 154.98 C 134.43 155.27 133.91 156.27 134.21 157.20 C 134.50 158.14 135.50 158.66 136.43 158.36 Z M 137.39 158.06 L 138.34 157.76 C 139.27 157.47 139.79 156.47 139.49 155.53 C 139.20 154.60 138.20 154.08 137.26 154.38 L 136.31 154.68 C 135.38 154.97 134.86 155.97 135.16 156.91 C 135.45 157.84 136.45 158.36 137.39 158.06 Z M 138.34 157.76 L 139.28 157.46 C 140.21 157.16 140.73 156.16 140.43 155.23 C 140.13 154.29 139.13 153.78 138.20 154.08 L 137.26 154.38 C 136.33 154.68 135.81 155.68 136.11 156.61 C 136.41 157.54 137.41 158.06 138.34 157.76 Z M 139.28 157.46 L 140.22 157.16 C 141.15 156.86 141.67 155.86 141.37 154.92 C 141.07 153.99 140.07 153.48 139.13 153.78 L 138.19 154.08 C 137.26 154.38 136.75 155.38 137.05 156.31 C 137.35 157.25 138.35 157.76 139.28 157.46 Z M 140.22 157.16 L 141.17 156.85 C 142.10 156.55 142.61 155.55 142.31 154.62 C 142.01 153.68 141.01 153.17 140.08 153.47 L 139.13 153.78 C 138.20 154.08 137.69 155.08 137.99 156.01 C 138.29 156.95 139.29 157.46 140.22 157.16 Z M 141.17 156.85 L 142.12 156.54 C 143.05 156.24 143.56 155.24 143.26 154.30 C 142.96 153.37 141.96 152.86 141.03 153.16 L 140.07 153.47 C 139.14 153.78 138.63 154.78 138.93 155.71 C 139.24 156.64 140.24 157.15 141.17 156.85 Z M 142.12 156.54 L 143.08 156.23 C 144.01 155.92 144.52 154.92 144.22 153.99 C 143.92 153.06 142.92 152.55 141.98 152.85 L 141.02 153.17 C 140.09 153.47 139.58 154.47 139.89 155.40 C 140.19 156.33 141.19 156.84 142.12 156.54 Z M 143.08 156.23 L 144.05 155.91 C 144.98 155.61 145.49 154.61 145.19 153.68 C 144.88 152.74 143.88 152.24 142.95 152.54 L 141.98 152.85 C 141.05 153.16 140.54 154.16 140.85 155.09 C 141.15 156.02 142.15 156.53 143.08 156.23 Z M 144.05 155.91 L 145.00 155.60 C 145.93 155.30 146.44 154.30 146.13 153.37 C 145.83 152.43 144.83 151.93 143.90 152.23 L 142.95 152.54 C 142.02 152.84 141.51 153.84 141.81 154.77 C 142.12 155.71 143.12 156.21 144.05 155.91 Z M 145.00 155.60 L 145.94 155.29 C 146.87 154.99 147.38 153.99 147.07 153.06 C 146.77 152.13 145.77 151.62 144.84 151.92 L 143.90 152.23 C 142.97 152.53 142.46 153.53 142.77 154.46 C 143.07 155.39 144.07 155.90 145.00 155.60 Z M 145.94 155.29 L 146.88 154.98 C 147.81 154.68 148.32 153.68 148.02 152.75 C 147.71 151.82 146.72 151.31 145.79 151.62 L 144.84 151.93 C 143.91 152.23 143.40 153.23 143.71 154.16 C 144.01 155.09 145.01 155.59 145.94 155.29 Z M 146.88 154.98 L 147.84 154.67 C 148.76 154.37 149.27 153.37 148.97 152.44 C 148.67 151.51 147.67 151.01 146.74 151.31 L 145.79 151.62 C 144.86 151.92 144.35 152.92 144.66 153.85 C 144.96 154.78 145.96 155.28 146.88 154.98 Z M 147.84 154.67 L 148.79 154.36 C 149.72 154.05 150.23 153.06 149.92 152.13 C 149.62 151.20 148.62 150.69 147.70 151.00 L 146.74 151.31 C 145.81 151.61 145.31 152.61 145.61 153.54 C 145.91 154.46 146.91 154.97 147.84 154.67 Z M 148.79 154.35 L 149.75 154.04 C 150.68 153.74 151.18 152.74 150.88 151.82 C 150.58 150.89 149.58 150.38 148.65 150.69 L 147.70 151.00 C 146.77 151.30 146.26 152.30 146.57 153.22 C 146.87 154.15 147.86 154.66 148.79 154.35 Z M 149.75 154.04 L 150.71 153.73 C 151.63 153.42 152.14 152.43 151.84 151.50 C 151.54 150.58 150.54 150.07 149.61 150.37 L 148.65 150.69 C 147.73 150.99 147.22 151.99 147.53 152.91 C 147.83 153.84 148.82 154.34 149.75 154.04 Z M 150.71 153.72 L 151.66 153.41 C 152.58 153.11 153.09 152.12 152.79 151.19 C 152.48 150.27 151.49 149.76 150.56 150.07 L 149.62 150.38 C 148.69 150.68 148.19 151.67 148.49 152.60 C 148.79 153.52 149.78 154.03 150.71 153.72 Z M 151.66 153.41 L 152.60 153.10 C 153.53 152.80 154.03 151.81 153.73 150.88 C 153.43 149.96 152.44 149.46 151.51 149.76 L 150.56 150.07 C 149.64 150.37 149.14 151.36 149.44 152.29 C 149.74 153.21 150.73 153.71 151.66 153.41 Z M 152.60 153.10 L 153.55 152.79 C 154.47 152.49 154.98 151.50 154.68 150.57 C 154.37 149.65 153.38 149.15 152.46 149.45 L 151.51 149.76 C 150.59 150.06 150.09 151.06 150.39 151.98 C 150.69 152.90 151.68 153.40 152.60 153.10 Z M 153.55 152.79 L 154.50 152.48 C 155.42 152.17 155.92 151.18 155.62 150.26 C 155.32 149.34 154.33 148.84 153.41 149.14 L 152.46 149.45 C 151.54 149.76 151.04 150.75 151.34 151.67 C 151.64 152.59 152.63 153.09 153.55 152.79 Z M 154.50 152.47 L 155.45 152.16 C 156.37 151.86 156.87 150.87 156.57 149.95 C 156.27 149.03 155.28 148.53 154.36 148.83 L 153.41 149.14 C 152.49 149.45 151.99 150.44 152.29 151.36 C 152.59 152.28 153.58 152.78 154.50 152.47 Z M 155.46 152.16 L 156.41 151.84 C 157.33 151.54 157.82 150.55 157.52 149.63 C 157.22 148.71 156.23 148.22 155.31 148.52 L 154.36 148.83 C 153.44 149.14 152.94 150.13 153.24 151.05 C 153.55 151.96 154.54 152.46 155.46 152.16 Z M 156.41 151.84 L 157.36 151.52 C 158.28 151.22 158.78 150.23 158.47 149.31 C 158.17 148.40 157.18 147.90 156.26 148.20 L 155.31 148.52 C 154.39 148.83 153.89 149.82 154.20 150.73 C 154.50 151.65 155.49 152.14 156.41 151.84 Z M 157.37 151.52 L 158.30 151.21 C 159.21 150.90 159.70 149.91 159.40 149.00 C 159.09 148.09 158.10 147.59 157.19 147.90 L 156.26 148.21 C 155.35 148.51 154.85 149.50 155.16 150.42 C 155.46 151.33 156.45 151.82 157.37 151.52 Z M 158.30 151.20 L 159.23 150.89 C 160.14 150.58 160.63 149.60 160.33 148.68 C 160.02 147.77 159.03 147.28 158.12 147.59 L 157.19 147.90 C 156.28 148.21 155.79 149.20 156.09 150.11 C 156.40 151.02 157.39 151.51 158.30 151.20 Z M 159.23 150.89 L 160.17 150.57 C 161.08 150.26 161.57 149.27 161.26 148.37 C 160.95 147.46 159.97 146.97 159.06 147.27 L 158.12 147.59 C 157.21 147.90 156.72 148.89 157.03 149.80 C 157.34 150.71 158.32 151.19 159.23 150.89 Z M 160.17 150.56 L 161.12 150.24 C 162.02 149.94 162.51 148.95 162.20 148.04 C 161.89 147.14 160.91 146.65 160.00 146.96 L 159.06 147.28 C 158.15 147.59 157.66 148.57 157.97 149.48 C 158.28 150.39 159.27 150.87 160.17 150.56 Z M 161.12 150.24 L 162.07 149.91 C 162.98 149.61 163.46 148.62 163.15 147.72 C 162.84 146.81 161.86 146.33 160.95 146.64 L 160.00 146.96 C 159.09 147.27 158.61 148.26 158.92 149.16 C 159.23 150.07 160.21 150.55 161.12 150.24 Z M 162.07 149.91 L 163.03 149.58 C 163.93 149.27 164.41 148.29 164.10 147.38 C 163.79 146.48 162.81 146.00 161.91 146.31 L 160.95 146.64 C 160.05 146.95 159.57 147.93 159.88 148.84 C 160.19 149.74 161.17 150.22 162.07 149.91 Z M 163.03 149.58 L 164.00 149.24 C 164.90 148.93 165.38 147.95 165.07 147.05 C 164.76 146.15 163.78 145.67 162.88 145.98 L 161.91 146.32 C 161.01 146.63 160.53 147.61 160.84 148.51 C 161.15 149.41 162.13 149.89 163.03 149.58 Z M 164.00 149.24 L 164.96 148.90 C 165.86 148.59 166.34 147.61 166.03 146.71 C 165.71 145.82 164.73 145.34 163.84 145.65 L 162.88 145.99 C 161.98 146.30 161.50 147.28 161.81 148.18 C 162.12 149.07 163.10 149.55 164.00 149.24 Z M 164.96 148.90 L 165.93 148.56 C 166.83 148.25 167.30 147.27 166.99 146.38 C 166.67 145.48 165.70 145.01 164.80 145.32 L 163.84 145.66 C 162.94 145.97 162.47 146.95 162.78 147.84 C 163.09 148.74 164.07 149.21 164.96 148.90 Z M 165.93 148.56 L 166.89 148.22 C 167.79 147.91 168.26 146.93 167.95 146.04 C 167.63 145.15 166.66 144.68 165.76 144.99 L 164.80 145.33 C 163.91 145.64 163.43 146.61 163.75 147.51 C 164.06 148.40 165.04 148.87 165.93 148.56 Z M 166.89 148.22 L 167.85 147.88 C 168.74 147.57 169.21 146.59 168.90 145.70 C 168.59 144.81 167.61 144.34 166.72 144.66 L 165.76 144.99 C 164.87 145.30 164.40 146.28 164.72 147.17 C 165.03 148.06 166.00 148.53 166.89 148.22 Z M 167.85 147.88 L 168.80 147.55 C 169.69 147.23 170.15 146.26 169.84 145.37 C 169.53 144.48 168.55 144.02 167.66 144.33 L 166.72 144.66 C 165.83 144.97 165.36 145.95 165.68 146.84 C 165.99 147.72 166.96 148.19 167.85 147.88 Z M 168.80 147.54 L 169.72 147.21 C 170.61 146.90 171.08 145.93 170.76 145.04 C 170.45 144.16 169.48 143.69 168.59 144.01 L 167.66 144.33 C 166.78 144.65 166.31 145.62 166.63 146.50 C 166.94 147.39 167.91 147.85 168.80 147.54 Z M 169.72 147.21 L 170.63 146.89 C 171.51 146.58 171.98 145.61 171.66 144.72 C 171.35 143.84 170.38 143.38 169.50 143.69 L 168.59 144.01 C 167.71 144.32 167.25 145.29 167.56 146.18 C 167.87 147.06 168.84 147.52 169.72 147.21 Z M 170.63 146.89 L 171.62 146.53 C 172.50 146.22 172.96 145.25 172.65 144.37 C 172.34 143.49 171.37 143.03 170.49 143.34 L 169.50 143.69 C 168.62 144.01 168.15 144.97 168.47 145.86 C 168.78 146.74 169.75 147.20 170.63 146.89 Z M 171.62 146.53 L 172.62 146.17 C 173.49 145.86 173.95 144.90 173.64 144.02 C 173.33 143.14 172.36 142.68 171.49 143.00 L 170.49 143.35 C 169.61 143.66 169.15 144.63 169.47 145.50 C 169.78 146.38 170.74 146.84 171.62 146.53 Z M 172.62 146.17 L 173.58 145.82 C 174.45 145.51 174.91 144.55 174.59 143.68 C 174.28 142.80 173.32 142.35 172.45 142.66 L 171.49 143.00 C 170.61 143.31 170.16 144.28 170.47 145.15 C 170.78 146.02 171.74 146.48 172.62 146.17 Z M 173.58 145.82 L 174.51 145.48 C 175.38 145.17 175.83 144.21 175.52 143.34 C 175.20 142.47 174.25 142.02 173.38 142.33 L 172.45 142.67 C 171.58 142.98 171.12 143.94 171.44 144.81 C 171.75 145.68 172.71 146.13 173.58 145.82 Z M 174.51 145.48 L 175.41 145.15 C 176.28 144.84 176.72 143.88 176.41 143.02 C 176.10 142.15 175.14 141.70 174.28 142.01 L 173.37 142.34 C 172.51 142.65 172.06 143.61 172.37 144.47 C 172.69 145.34 173.64 145.79 174.51 145.48 Z M 175.41 145.14 L 176.29 144.82 C 177.15 144.51 177.60 143.56 177.28 142.69 C 176.97 141.83 176.01 141.39 175.15 141.70 L 174.27 142.02 C 173.41 142.34 172.97 143.29 173.28 144.15 C 173.60 145.01 174.55 145.46 175.41 145.14 Z M 176.29 144.82 L 177.24 144.47 C 178.09 144.15 178.53 143.20 178.22 142.34 C 177.90 141.49 176.95 141.05 176.09 141.36 L 175.15 141.71 C 174.29 142.02 173.85 142.98 174.17 143.83 C 174.48 144.69 175.43 145.13 176.29 144.82 Z M 177.24 144.46 L 178.21 144.10 C 179.06 143.78 179.50 142.83 179.18 141.98 C 178.86 141.13 177.91 140.69 177.06 141.01 L 176.09 141.37 C 175.24 141.69 174.80 142.64 175.12 143.49 C 175.44 144.34 176.39 144.78 177.24 144.46 Z M 178.21 144.09 L 179.16 143.74 C 180.01 143.42 180.43 142.47 180.11 141.62 C 179.79 140.77 178.84 140.34 177.99 140.66 L 177.05 141.02 C 176.20 141.34 175.77 142.29 176.09 143.14 C 176.41 143.99 177.36 144.41 178.21 144.09 Z M 179.16 143.73 L 180.08 143.38 C 180.93 143.05 181.35 142.10 181.03 141.26 C 180.70 140.41 179.75 139.99 178.91 140.31 L 177.99 140.67 C 177.14 140.99 176.72 141.94 177.04 142.79 C 177.37 143.63 178.32 144.05 179.16 143.73 Z M 180.09 143.37 L 180.99 143.01 C 181.83 142.69 182.25 141.74 181.92 140.90 C 181.59 140.06 180.64 139.64 179.80 139.97 L 178.90 140.32 C 178.06 140.65 177.65 141.60 177.97 142.44 C 178.30 143.28 179.25 143.70 180.09 143.37 Z M 181.00 143.00 L 181.93 142.64 C 182.76 142.30 183.17 141.35 182.83 140.52 C 182.50 139.68 181.55 139.28 180.72 139.61 L 179.79 139.98 C 178.96 140.31 178.55 141.26 178.89 142.10 C 179.22 142.93 180.17 143.34 181.00 143.00 Z M 181.94 142.62 L 182.90 142.23 C 183.73 141.89 184.12 140.94 183.79 140.12 C 183.45 139.29 182.50 138.89 181.67 139.23 L 180.71 139.62 C 179.88 139.96 179.48 140.91 179.82 141.74 C 180.16 142.56 181.11 142.96 181.94 142.62 Z M 182.91 142.22 L 183.84 141.82 C 184.67 141.48 185.05 140.53 184.71 139.71 C 184.36 138.89 183.42 138.51 182.60 138.85 L 181.66 139.24 C 180.84 139.59 180.46 140.53 180.80 141.35 C 181.14 142.17 182.09 142.56 182.91 142.22 Z M 183.85 141.81 L 184.76 141.42 C 185.57 141.07 185.95 140.13 185.60 139.32 C 185.25 138.50 184.31 138.13 183.50 138.48 L 182.59 138.86 C 181.78 139.21 181.40 140.16 181.75 140.97 C 182.10 141.78 183.04 142.16 183.85 141.81 Z M 184.77 141.41 L 185.64 141.02 C 186.45 140.67 186.81 139.73 186.46 138.92 C 186.10 138.11 185.16 137.75 184.36 138.10 L 183.49 138.49 C 182.68 138.84 182.32 139.78 182.67 140.59 C 183.02 141.40 183.97 141.76 184.77 141.41 Z M 185.66 141.00 L 186.60 140.58 C 187.40 140.21 187.75 139.28 187.39 138.48 C 187.03 137.68 186.09 137.33 185.30 137.69 L 184.35 138.12 C 183.55 138.48 183.20 139.42 183.56 140.22 C 183.92 141.01 184.86 141.37 185.66 141.00 Z M 186.62 140.56 L 187.56 140.11 C 188.35 139.75 188.68 138.81 188.32 138.02 C 187.95 137.24 187.01 136.90 186.22 137.27 L 185.28 137.71 C 184.49 138.08 184.16 139.01 184.53 139.80 C 184.89 140.59 185.83 140.93 186.62 140.56 Z M 187.58 140.09 L 188.47 139.66 C 189.24 139.28 189.56 138.35 189.18 137.57 C 188.80 136.80 187.87 136.47 187.09 136.85 L 186.21 137.29 C 185.43 137.67 185.11 138.60 185.49 139.38 C 185.87 140.15 186.80 140.47 187.58 140.09 Z M 188.49 139.64 L 189.32 139.21 C 190.08 138.82 190.38 137.89 189.99 137.12 C 189.60 136.36 188.67 136.06 187.90 136.45 L 187.07 136.88 C 186.31 137.27 186.01 138.20 186.40 138.96 C 186.79 139.73 187.72 140.03 188.49 139.64 Z M 189.35 139.18 L 190.19 138.72 C 190.94 138.32 191.22 137.38 190.81 136.64 C 190.41 135.89 189.47 135.61 188.73 136.02 L 187.88 136.48 C 187.13 136.88 186.85 137.82 187.26 138.57 C 187.66 139.31 188.60 139.59 189.35 139.18 Z M 190.24 138.69 L 191.07 138.19 C 191.80 137.77 192.04 136.83 191.61 136.10 C 191.18 135.38 190.24 135.13 189.51 135.56 L 188.68 136.05 C 187.96 136.48 187.71 137.42 188.14 138.15 C 188.57 138.87 189.51 139.12 190.24 138.69 Z M 191.12 138.15 L 191.96 137.60 C 192.66 137.14 192.85 136.20 192.39 135.50 C 191.93 134.80 190.99 134.60 190.29 135.06 L 189.46 135.61 C 188.76 136.07 188.56 137.01 189.02 137.71 C 189.48 138.41 190.42 138.61 191.12 138.15 Z M 192.01 137.55 L 192.84 136.94 C 193.52 136.45 193.67 135.51 193.18 134.84 C 192.69 134.17 191.75 134.02 191.07 134.51 L 190.24 135.11 C 189.56 135.60 189.42 136.55 189.90 137.22 C 190.39 137.89 191.34 138.04 192.01 137.55 Z M 192.90 136.89 L 193.66 136.28 C 194.31 135.76 194.41 134.82 193.89 134.17 C 193.37 133.53 192.43 133.43 191.78 133.94 L 191.02 134.56 C 190.38 135.08 190.27 136.02 190.79 136.66 C 191.31 137.31 192.25 137.41 192.90 136.89 Z M 193.73 136.20 L 194.48 135.51 C 195.08 134.95 195.12 134.01 194.56 133.41 C 194.00 132.80 193.06 132.77 192.46 133.33 L 191.71 134.02 C 191.11 134.58 191.07 135.52 191.63 136.12 C 192.19 136.72 193.13 136.76 193.73 136.20 Z M 194.58 135.40 L 195.25 134.63 C 195.79 134.02 195.73 133.09 195.12 132.54 C 194.51 132.00 193.57 132.06 193.03 132.68 L 192.36 133.44 C 191.82 134.05 191.88 134.99 192.49 135.53 C 193.10 136.07 194.04 136.01 194.58 135.40 Z M 195.37 134.46 L 195.92 133.63 C 196.36 132.95 196.17 132.04 195.49 131.59 C 194.81 131.15 193.90 131.34 193.45 132.02 L 192.91 132.85 C 192.47 133.53 192.66 134.44 193.34 134.89 C 194.02 135.33 194.93 135.14 195.37 134.46 Z M 196.03 133.39 L 196.42 132.48 C 196.73 131.74 196.38 130.88 195.64 130.57 C 194.89 130.25 194.04 130.60 193.72 131.34 L 193.34 132.26 C 193.02 133.00 193.37 133.86 194.12 134.17 C 194.86 134.48 195.72 134.14 196.03 133.39 Z M 196.48 132.27 L 196.72 131.31 C 196.92 130.54 196.45 129.75 195.67 129.55 C 194.90 129.35 194.11 129.82 193.91 130.60 L 193.66 131.55 C 193.47 132.33 193.93 133.12 194.71 133.32 C 195.49 133.52 196.28 133.05 196.48 132.27 Z M 196.74 131.17 L 196.89 130.18 C 197.01 129.40 196.47 128.66 195.68 128.54 C 194.90 128.42 194.16 128.96 194.04 129.75 L 193.89 130.74 C 193.77 131.52 194.31 132.26 195.10 132.38 C 195.88 132.50 196.62 131.96 196.74 131.17 Z M 196.89 130.11 L 196.99 129.13 C 197.07 128.34 196.50 127.64 195.72 127.56 C 194.93 127.47 194.23 128.04 194.15 128.83 L 194.04 129.82 C 193.96 130.60 194.53 131.31 195.32 131.39 C 196.10 131.47 196.81 130.90 196.89 130.11 Z"
      fill="black"
      fill-rule="nonzero" /><path d="M 158.54 91.39 L 158.45 92.42 C 158.36 93.29 159.00 94.06 159.87 94.14 C 160.73 94.22 161.50 93.58 161.59 92.72 L 161.68 91.69 C 161.77 90.82 161.13 90.05 160.26 89.97 C 159.40 89.89 158.63 90.52 158.54 91.39 Z M 158.41 92.43 L 158.32 93.45 C 158.25 94.33 158.90 95.11 159.79 95.19 C 160.68 95.27 161.46 94.61 161.54 93.72 L 161.62 92.71 C 161.70 91.82 161.04 91.04 160.16 90.96 C 159.27 90.89 158.49 91.54 158.41 92.43 Z M 158.29 93.47 L 158.22 94.46 C 158.16 95.37 158.84 96.16 159.75 96.22 C 160.66 96.28 161.45 95.59 161.51 94.68 L 161.57 93.69 C 161.63 92.79 160.95 92.00 160.04 91.94 C 159.13 91.88 158.35 92.57 158.29 93.47 Z M 158.18 94.51 L 158.15 95.47 C 158.11 96.40 158.84 97.18 159.77 97.21 C 160.69 97.24 161.47 96.52 161.51 95.59 L 161.54 94.64 C 161.58 93.71 160.85 92.93 159.92 92.89 C 159.00 92.86 158.22 93.58 158.18 94.51 Z M 158.12 95.54 L 158.13 96.53 C 158.14 97.47 158.91 98.23 159.85 98.22 C 160.79 98.22 161.55 97.45 161.54 96.51 L 161.53 95.52 C 161.53 94.57 160.76 93.82 159.81 93.82 C 158.87 93.83 158.11 94.60 158.12 95.54 Z M 158.12 96.62 L 158.18 97.59 C 158.23 98.54 159.05 99.26 159.99 99.21 C 160.94 99.15 161.66 98.34 161.61 97.39 L 161.55 96.42 C 161.49 95.47 160.68 94.75 159.73 94.80 C 158.79 94.86 158.07 95.67 158.12 96.62 Z M 158.17 97.68 L 158.28 98.67 C 158.38 99.62 159.23 100.31 160.18 100.21 C 161.13 100.10 161.82 99.25 161.72 98.30 L 161.61 97.31 C 161.51 96.36 160.66 95.67 159.71 95.77 C 158.76 95.87 158.07 96.73 158.17 97.68 Z M 158.28 98.74 L 158.42 99.71 C 158.56 100.66 159.44 101.32 160.39 101.18 C 161.34 101.04 162.00 100.16 161.86 99.21 L 161.72 98.23 C 161.58 97.28 160.70 96.63 159.75 96.77 C 158.80 96.91 158.14 97.79 158.28 98.74 Z M 158.42 99.76 L 158.58 100.65 C 158.74 101.60 159.64 102.24 160.59 102.07 C 161.54 101.91 162.18 101.01 162.02 100.06 L 161.86 99.16 C 161.70 98.21 160.80 97.58 159.85 97.74 C 158.90 97.90 158.26 98.81 158.42 99.76 Z M 158.58 100.68 L 158.76 101.63 C 158.94 102.58 159.85 103.20 160.80 103.02 C 161.75 102.85 162.37 101.93 162.19 100.98 L 162.01 100.03 C 161.84 99.08 160.92 98.46 159.97 98.64 C 159.02 98.81 158.40 99.73 158.58 100.68 Z M 158.76 101.65 L 158.96 102.66 C 159.15 103.61 160.07 104.23 161.02 104.04 C 161.96 103.85 162.58 102.93 162.39 101.98 L 162.19 100.97 C 162.01 100.02 161.08 99.40 160.14 99.59 C 159.19 99.78 158.57 100.70 158.76 101.65 Z M 158.96 102.67 L 159.17 103.75 C 159.37 104.70 160.29 105.31 161.24 105.12 C 162.19 104.93 162.81 104.00 162.61 103.05 L 162.40 101.97 C 162.20 101.02 161.28 100.41 160.33 100.60 C 159.38 100.79 158.76 101.72 158.96 102.67 Z M 159.17 103.75 L 159.36 104.68 C 159.55 105.64 160.48 106.25 161.43 106.06 C 162.38 105.87 163.00 104.94 162.81 103.99 L 162.62 103.05 C 162.42 102.10 161.50 101.49 160.55 101.68 C 159.59 101.87 158.98 102.80 159.17 103.75 Z M 159.36 104.68 L 159.54 105.59 C 159.73 106.54 160.66 107.16 161.61 106.97 C 162.56 106.78 163.18 105.85 162.99 104.90 L 162.81 103.99 C 162.62 103.04 161.69 102.42 160.74 102.61 C 159.79 102.80 159.17 103.73 159.36 104.68 Z M 159.54 105.58 L 159.72 106.53 C 159.91 107.48 160.84 108.10 161.79 107.92 C 162.75 107.73 163.37 106.80 163.18 105.85 L 162.99 104.90 C 162.80 103.95 161.88 103.33 160.92 103.51 C 159.97 103.70 159.35 104.63 159.54 105.58 Z M 159.72 106.52 L 159.91 107.51 C 160.09 108.47 161.02 109.09 161.97 108.91 C 162.93 108.72 163.56 107.80 163.37 106.84 L 163.18 105.85 C 163.00 104.90 162.07 104.27 161.12 104.46 C 160.16 104.64 159.54 105.56 159.72 106.52 Z M 159.91 107.50 L 160.10 108.53 C 160.28 109.49 161.20 110.12 162.16 109.94 C 163.12 109.76 163.75 108.84 163.57 107.88 L 163.38 106.85 C 163.20 105.89 162.27 105.26 161.32 105.44 C 160.36 105.62 159.73 106.54 159.91 107.50 Z M 160.10 108.52 L 160.29 109.60 C 160.46 110.56 161.38 111.20 162.34 111.02 C 163.30 110.85 163.94 109.93 163.77 108.97 L 163.57 107.89 C 163.40 106.93 162.48 106.30 161.52 106.47 C 160.56 106.64 159.92 107.56 160.10 108.52 Z M 160.29 109.59 L 160.46 110.56 C 160.62 111.52 161.54 112.16 162.50 111.99 C 163.46 111.83 164.11 110.91 163.94 109.95 L 163.77 108.98 C 163.60 108.02 162.69 107.38 161.73 107.54 C 160.76 107.71 160.12 108.63 160.29 109.59 Z M 160.45 110.55 L 160.61 111.46 C 160.77 112.42 161.68 113.07 162.64 112.91 C 163.61 112.75 164.26 111.84 164.09 110.87 L 163.94 109.96 C 163.78 109.00 162.87 108.35 161.90 108.51 C 160.94 108.67 160.29 109.58 160.45 110.55 Z M 160.61 111.45 L 160.76 112.39 C 160.92 113.35 161.82 114.01 162.79 113.85 C 163.75 113.70 164.41 112.79 164.25 111.82 L 164.10 110.88 C 163.94 109.92 163.03 109.26 162.07 109.42 C 161.10 109.58 160.45 110.49 160.61 111.45 Z M 160.76 112.38 L 160.91 113.35 C 161.06 114.32 161.97 114.98 162.93 114.82 C 163.90 114.67 164.56 113.77 164.40 112.80 L 164.25 111.83 C 164.10 110.87 163.19 110.21 162.23 110.36 C 161.26 110.51 160.60 111.42 160.76 112.38 Z M 160.91 113.34 L 161.06 114.34 C 161.20 115.30 162.11 115.97 163.07 115.82 C 164.04 115.68 164.70 114.77 164.56 113.81 L 164.41 112.81 C 164.26 111.84 163.36 111.18 162.39 111.33 C 161.42 111.47 160.76 112.37 160.91 113.34 Z M 161.06 114.33 L 161.21 115.35 C 161.35 116.32 162.25 116.99 163.21 116.85 C 164.18 116.71 164.85 115.81 164.71 114.84 L 164.56 113.82 C 164.42 112.85 163.52 112.18 162.55 112.32 C 161.58 112.46 160.91 113.36 161.06 114.33 Z M 161.20 115.34 L 161.35 116.39 C 161.49 117.36 162.39 118.04 163.35 117.90 C 164.32 117.76 165.00 116.87 164.86 115.90 L 164.71 114.85 C 164.57 113.88 163.68 113.21 162.71 113.34 C 161.74 113.48 161.07 114.38 161.20 115.34 Z M 161.35 116.39 L 161.50 117.46 C 161.63 118.43 162.52 119.11 163.49 118.98 C 164.46 118.85 165.14 117.96 165.01 116.99 L 164.86 115.91 C 164.73 114.94 163.84 114.26 162.87 114.39 C 161.90 114.52 161.22 115.42 161.35 116.39 Z M 161.50 117.46 L 161.62 118.41 C 161.75 119.38 162.64 120.07 163.61 119.94 C 164.58 119.81 165.26 118.92 165.14 117.95 L 165.01 116.99 C 164.88 116.02 163.99 115.34 163.02 115.47 C 162.05 115.59 161.37 116.48 161.50 117.46 Z M 161.62 118.41 L 161.74 119.37 C 161.86 120.34 162.75 121.03 163.72 120.90 C 164.69 120.78 165.38 119.89 165.26 118.92 L 165.14 117.96 C 165.01 116.99 164.13 116.30 163.16 116.42 C 162.18 116.55 161.50 117.44 161.62 118.41 Z M 161.74 119.36 L 161.86 120.33 C 161.98 121.31 162.86 122.00 163.84 121.88 C 164.81 121.76 165.50 120.87 165.38 119.90 L 165.26 118.93 C 165.14 117.96 164.26 117.26 163.28 117.38 C 162.31 117.50 161.62 118.39 161.74 119.36 Z M 161.86 120.33 L 161.98 121.32 C 162.09 122.29 162.97 122.98 163.95 122.87 C 164.92 122.75 165.61 121.87 165.50 120.90 L 165.38 119.91 C 165.26 118.94 164.38 118.24 163.41 118.36 C 162.44 118.47 161.74 119.36 161.86 120.33 Z M 161.98 121.31 L 162.09 122.31 C 162.20 123.28 163.08 123.98 164.06 123.87 C 165.03 123.76 165.73 122.88 165.61 121.90 L 165.50 120.90 C 165.39 119.93 164.51 119.23 163.53 119.35 C 162.56 119.46 161.86 120.34 161.98 121.31 Z M 162.09 122.30 L 162.20 123.31 C 162.31 124.28 163.19 124.99 164.16 124.88 C 165.14 124.77 165.84 123.89 165.73 122.92 L 165.62 121.91 C 165.51 120.94 164.63 120.24 163.66 120.34 C 162.68 120.45 161.98 121.33 162.09 122.30 Z M 162.20 123.31 L 162.31 124.32 C 162.42 125.29 163.29 126.00 164.27 125.89 C 165.24 125.79 165.94 124.91 165.84 123.94 L 165.73 122.92 C 165.62 121.95 164.75 121.25 163.77 121.35 C 162.80 121.46 162.10 122.33 162.20 123.31 Z M 162.31 124.32 L 162.42 125.33 C 162.52 126.31 163.40 127.02 164.37 126.91 C 165.34 126.81 166.05 125.94 165.95 124.96 L 165.84 123.94 C 165.74 122.97 164.86 122.26 163.89 122.37 C 162.92 122.47 162.21 123.34 162.31 124.32 Z M 162.42 125.33 L 162.52 126.35 C 162.62 127.33 163.49 128.03 164.47 127.94 C 165.44 127.84 166.15 126.97 166.05 125.99 L 165.95 124.97 C 165.85 123.99 164.98 123.29 164.00 123.38 C 163.03 123.48 162.32 124.35 162.42 125.33 Z M 162.52 126.35 L 162.62 127.34 C 162.72 128.31 163.59 129.03 164.56 128.93 C 165.54 128.83 166.25 127.97 166.15 126.99 L 166.05 126.00 C 165.96 125.02 165.09 124.31 164.11 124.41 C 163.14 124.50 162.43 125.37 162.52 126.35 Z M 162.62 127.33 L 162.72 128.32 C 162.81 129.30 163.68 130.01 164.65 129.92 C 165.62 129.83 166.34 128.96 166.25 127.99 L 166.15 127.00 C 166.06 126.02 165.19 125.31 164.22 125.40 C 163.24 125.49 162.53 126.36 162.62 127.33 Z M 162.72 128.32 L 162.81 129.31 C 162.90 130.28 163.76 131.00 164.74 130.91 C 165.71 130.82 166.43 129.96 166.34 128.98 L 166.25 127.99 C 166.16 127.02 165.29 126.30 164.32 126.39 C 163.34 126.48 162.63 127.34 162.72 128.32 Z M 162.81 129.30 L 162.90 130.30 C 162.98 131.27 163.84 131.99 164.82 131.90 C 165.79 131.82 166.51 130.95 166.43 129.98 L 166.34 128.99 C 166.25 128.01 165.39 127.29 164.41 127.38 C 163.44 127.47 162.72 128.33 162.81 129.30 Z M 162.90 130.29 L 162.98 131.28 C 163.07 132.26 163.92 132.98 164.90 132.90 C 165.87 132.81 166.60 131.95 166.51 130.98 L 166.43 129.99 C 166.34 129.01 165.48 128.29 164.51 128.37 C 163.53 128.46 162.81 129.32 162.90 130.29 Z M 162.98 131.28 L 163.06 132.27 C 163.15 133.25 164.00 133.97 164.98 133.89 C 165.95 133.81 166.68 132.96 166.60 131.98 L 166.51 130.99 C 166.43 130.01 165.58 129.29 164.60 129.37 C 163.63 129.45 162.90 130.30 162.98 131.28 Z M 163.06 132.27 L 163.14 133.27 C 163.22 134.24 164.08 134.97 165.05 134.89 C 166.03 134.81 166.75 133.96 166.68 132.99 L 166.60 131.99 C 166.52 131.01 165.66 130.28 164.69 130.36 C 163.71 130.44 162.99 131.29 163.06 132.27 Z M 163.14 133.26 L 163.22 134.26 C 163.30 135.24 164.15 135.97 165.12 135.90 C 166.10 135.82 166.83 134.97 166.75 133.99 L 166.68 132.99 C 166.60 132.02 165.75 131.29 164.77 131.36 C 163.80 131.44 163.07 132.29 163.14 133.26 Z M 163.22 134.26 L 163.29 135.27 C 163.37 136.24 164.21 136.97 165.19 136.90 C 166.17 136.83 166.90 135.98 166.83 135.01 L 166.75 134.00 C 166.68 133.02 165.83 132.29 164.86 132.36 C 163.88 132.44 163.15 133.28 163.22 134.26 Z M 163.29 135.26 L 163.36 136.26 C 163.43 137.23 164.28 137.97 165.25 137.90 C 166.23 137.83 166.96 136.98 166.90 136.01 L 166.83 135.01 C 166.76 134.04 165.91 133.30 164.94 133.37 C 163.96 133.44 163.23 134.28 163.29 135.26 Z M 163.36 136.25 L 163.43 137.24 C 163.50 138.21 164.34 138.95 165.31 138.89 C 166.29 138.82 167.03 137.98 166.96 137.00 L 166.90 136.01 C 166.83 135.04 165.99 134.30 165.01 134.37 C 164.04 134.43 163.30 135.28 163.36 136.25 Z M 163.43 137.23 L 163.49 138.22 C 163.56 139.20 164.40 139.94 165.37 139.88 C 166.35 139.81 167.09 138.97 167.03 138.00 L 166.96 137.01 C 166.90 136.03 166.06 135.29 165.08 135.35 C 164.11 135.41 163.37 136.26 163.43 137.23 Z M 163.49 138.22 L 163.55 139.21 C 163.61 140.19 164.45 140.93 165.43 140.87 C 166.40 140.81 167.15 139.97 167.09 138.99 L 167.03 138.00 C 166.97 137.02 166.13 136.28 165.15 136.34 C 164.18 136.40 163.43 137.24 163.49 138.22 Z M 163.55 139.21 L 163.61 140.20 C 163.67 141.18 164.51 141.93 165.48 141.87 C 166.46 141.81 167.20 140.97 167.15 140.00 L 167.09 139.00 C 167.03 138.02 166.19 137.28 165.22 137.33 C 164.24 137.39 163.50 138.23 163.55 139.21 Z M 163.61 140.20 L 163.67 141.20 C 163.72 142.18 164.56 142.92 165.53 142.87 C 166.51 142.81 167.26 141.98 167.20 141.00 L 167.15 140.00 C 167.09 139.02 166.26 138.28 165.28 138.33 C 164.30 138.39 163.56 139.22 163.61 140.20 Z M 163.67 141.20 L 163.72 142.20 C 163.77 143.17 164.61 143.92 165.59 143.87 C 166.56 143.82 167.31 142.98 167.26 142.01 L 167.20 141.00 C 167.15 140.03 166.32 139.28 165.34 139.33 C 164.36 139.38 163.61 140.22 163.67 141.20 Z M 163.72 142.19 L 163.77 143.20 C 163.82 144.18 164.66 144.93 165.63 144.88 C 166.61 144.83 167.36 143.99 167.31 143.01 L 167.26 142.01 C 167.21 141.03 166.37 140.28 165.40 140.33 C 164.42 140.38 163.67 141.22 163.72 142.19 Z M 163.77 143.20 L 163.82 144.20 C 163.87 145.18 164.70 145.93 165.68 145.88 C 166.66 145.83 167.41 145.00 167.36 144.03 L 167.31 143.02 C 167.26 142.04 166.43 141.29 165.45 141.34 C 164.48 141.39 163.72 142.22 163.77 143.20 Z M 163.82 144.20 L 163.87 145.21 C 163.92 146.19 164.75 146.94 165.73 146.89 C 166.71 146.85 167.46 146.01 167.41 145.04 L 167.36 144.03 C 167.32 143.05 166.48 142.30 165.51 142.34 C 164.53 142.39 163.78 143.22 163.82 144.20 Z M 163.87 145.21 L 163.92 146.21 C 163.97 147.18 164.79 147.94 165.77 147.89 C 166.75 147.85 167.50 147.02 167.46 146.04 L 167.41 145.04 C 167.37 144.06 166.54 143.31 165.56 143.35 C 164.58 143.40 163.83 144.23 163.87 145.21 Z M 163.92 146.20 L 163.97 147.20 C 164.01 148.18 164.84 148.93 165.82 148.89 C 166.79 148.85 167.55 148.02 167.50 147.04 L 167.46 146.04 C 167.41 145.06 166.58 144.31 165.61 144.35 C 164.63 144.40 163.88 145.23 163.92 146.20 Z M 163.97 147.20 L 164.01 148.20 C 164.05 149.17 164.88 149.93 165.86 149.89 C 166.83 149.84 167.59 149.02 167.55 148.04 L 167.50 147.04 C 167.46 146.07 166.63 145.31 165.66 145.35 C 164.68 145.40 163.92 146.22 163.97 147.20 Z M 164.01 148.20 L 164.05 149.20 C 164.10 150.17 164.92 150.93 165.90 150.89 C 166.87 150.85 167.63 150.02 167.59 149.04 L 167.55 148.04 C 167.50 147.07 166.68 146.31 165.70 146.35 C 164.73 146.40 163.97 147.22 164.01 148.20 Z M 164.06 149.19 L 164.10 150.19 C 164.14 151.17 164.96 151.93 165.94 151.89 C 166.91 151.85 167.67 151.02 167.63 150.05 L 167.59 149.05 C 167.55 148.07 166.72 147.31 165.75 147.35 C 164.77 147.39 164.02 148.22 164.06 149.19 Z M 164.10 150.19 L 164.14 151.19 C 164.18 152.17 165.00 152.92 165.97 152.89 C 166.95 152.85 167.71 152.02 167.67 151.05 L 167.63 150.05 C 167.59 149.08 166.77 148.32 165.79 148.36 C 164.82 148.39 164.06 149.22 164.10 150.19 Z M 164.14 151.19 L 164.18 152.19 C 164.22 153.16 165.04 153.92 166.01 153.88 C 166.98 153.85 167.74 153.03 167.71 152.05 L 167.67 151.05 C 167.63 150.08 166.81 149.32 165.83 149.36 C 164.86 149.39 164.10 150.21 164.14 151.19 Z M 164.18 152.19 L 164.22 153.19 C 164.25 154.16 165.07 154.92 166.04 154.88 C 167.02 154.85 167.78 154.03 167.74 153.05 L 167.70 152.05 C 167.67 151.08 166.85 150.32 165.88 150.36 C 164.90 150.39 164.14 151.21 164.18 152.19 Z M 164.22 153.18 L 164.25 154.18 C 164.29 155.15 165.10 155.92 166.08 155.88 C 167.05 155.85 167.81 155.03 167.78 154.06 L 167.74 153.06 C 167.71 152.08 166.89 151.32 165.92 151.36 C 164.94 151.39 164.18 152.21 164.22 153.18 Z M 164.25 154.18 L 164.29 155.18 C 164.32 156.15 165.14 156.91 166.11 156.88 C 167.08 156.84 167.84 156.03 167.81 155.06 L 167.78 154.06 C 167.74 153.09 166.93 152.32 165.95 152.36 C 164.98 152.39 164.22 153.21 164.25 154.18 Z M 164.29 155.18 L 164.32 156.18 C 164.36 157.16 165.17 157.92 166.14 157.88 C 167.11 157.85 167.87 157.04 167.84 156.07 L 167.81 155.06 C 167.78 154.09 166.96 153.33 165.99 153.36 C 165.02 153.39 164.26 154.20 164.29 155.18 Z M 164.33 156.18 L 164.36 157.19 C 164.39 158.16 165.20 158.92 166.17 158.89 C 167.14 158.86 167.90 158.05 167.87 157.08 L 167.84 156.07 C 167.81 155.10 167.00 154.34 166.03 154.37 C 165.06 154.40 164.29 155.21 164.33 156.18 Z M 164.36 157.18 L 164.39 158.19 C 164.42 159.16 165.23 159.92 166.20 159.89 C 167.17 159.86 167.93 159.05 167.90 158.08 L 167.87 157.08 C 167.84 156.11 167.03 155.35 166.06 155.38 C 165.09 155.41 164.33 156.22 164.36 157.18 Z M 164.39 158.19 L 164.42 159.19 C 164.45 160.16 165.26 160.92 166.23 160.89 C 167.19 160.86 167.96 160.06 167.93 159.09 L 167.90 158.08 C 167.87 157.12 167.06 156.35 166.09 156.38 C 165.13 156.41 164.36 157.22 164.39 158.19 Z M 164.42 159.19 L 164.45 160.19 C 164.48 161.15 165.28 161.92 166.25 161.89 C 167.22 161.86 167.98 161.06 167.95 160.09 L 167.93 159.09 C 167.90 158.12 167.09 157.36 166.13 157.39 C 165.16 157.41 164.40 158.22 164.42 159.19 Z M 164.45 160.19 L 164.48 161.18 C 164.51 162.15 165.31 162.91 166.27 162.89 C 167.24 162.86 168.00 162.06 167.98 161.09 L 167.95 160.09 C 167.93 159.13 167.12 158.36 166.16 158.39 C 165.19 158.42 164.43 159.22 164.45 160.19 Z M 164.48 161.18 L 164.51 162.18 C 164.53 163.14 165.33 163.90 166.30 163.88 C 167.26 163.86 168.02 163.05 168.00 162.09 L 167.98 161.09 C 167.95 160.13 167.15 159.37 166.18 159.39 C 165.22 159.41 164.46 160.22 164.48 161.18 Z M 164.51 162.18 L 164.53 163.17 C 164.55 164.13 165.35 164.90 166.32 164.87 C 167.28 164.85 168.04 164.05 168.02 163.09 L 168.00 162.09 C 167.98 161.13 167.18 160.37 166.21 160.39 C 165.25 160.41 164.49 161.21 164.51 162.18 Z M 164.53 163.17 L 164.56 164.16 C 164.58 165.12 165.38 165.88 166.34 165.86 C 167.30 165.84 168.06 165.04 168.04 164.08 L 168.02 163.09 C 168.00 162.13 167.20 161.36 166.24 161.38 C 165.28 161.41 164.51 162.20 164.53 163.17 Z M 164.56 164.15 L 164.58 165.15 C 164.60 166.11 165.39 166.87 166.36 166.85 C 167.32 166.83 168.08 166.04 168.06 165.08 L 168.04 164.08 C 168.02 163.12 167.22 162.36 166.26 162.38 C 165.30 162.40 164.54 163.19 164.56 164.15 Z M 164.58 165.15 L 164.60 166.15 C 164.62 167.11 165.41 167.87 166.37 167.85 C 167.33 167.83 168.10 167.04 168.08 166.08 L 168.06 165.08 C 168.04 164.12 167.24 163.36 166.29 163.38 C 165.33 163.39 164.56 164.19 164.58 165.15 Z M 164.61 166.15 L 164.62 167.14 C 164.64 168.10 165.43 168.86 166.39 168.84 C 167.35 168.83 168.11 168.04 168.09 167.08 L 168.07 166.08 C 168.05 165.12 167.26 164.36 166.31 164.38 C 165.35 164.40 164.59 165.19 164.61 166.15 Z M 164.63 167.14 L 164.65 168.14 C 164.66 169.10 165.45 169.86 166.41 169.84 C 167.36 169.82 168.12 169.03 168.11 168.08 L 168.09 167.08 C 168.07 166.12 167.28 165.36 166.33 165.38 C 165.37 165.40 164.61 166.19 164.63 167.14 Z M 164.65 168.14 L 164.67 169.14 C 164.69 170.09 165.47 170.85 166.43 170.83 C 167.38 170.81 168.14 170.03 168.12 169.07 L 168.10 168.08 C 168.09 167.12 167.30 166.36 166.34 166.38 C 165.39 166.40 164.63 167.19 164.65 168.14 Z M 164.67 169.14 L 164.69 170.13 C 164.71 171.09 165.50 171.84 166.45 171.82 C 167.40 171.81 168.16 171.02 168.14 170.07 L 168.12 169.07 C 168.10 168.12 167.31 167.36 166.36 167.38 C 165.41 167.40 164.65 168.19 164.67 169.14 Z M 164.70 170.14 L 164.72 171.13 C 164.74 172.08 165.52 172.84 166.47 172.82 C 167.42 172.80 168.17 172.01 168.15 171.06 L 168.13 170.07 C 168.11 169.12 167.33 168.36 166.38 168.38 C 165.43 168.40 164.68 169.19 164.70 170.14 Z M 164.72 171.14 L 164.74 172.14 C 164.76 173.09 165.55 173.84 166.49 173.82 C 167.44 173.79 168.19 173.01 168.17 172.06 L 168.15 171.06 C 168.13 170.11 167.35 169.36 166.40 169.38 C 165.45 169.40 164.70 170.19 164.72 171.14 Z M 164.75 172.14 L 164.77 173.14 C 164.79 174.09 165.58 174.84 166.52 174.82 C 167.47 174.79 168.22 174.01 168.19 173.06 L 168.17 172.06 C 168.15 171.11 167.36 170.37 166.42 170.39 C 165.47 170.41 164.72 171.20 164.75 172.14 Z M 164.77 173.15 L 164.80 174.15 C 164.82 175.10 165.61 175.84 166.55 175.82 C 167.50 175.79 168.24 175.01 168.22 174.07 L 168.19 173.06 C 168.16 172.12 167.38 171.37 166.44 171.39 C 165.49 171.42 164.75 172.20 164.77 173.15 Z M 164.80 174.16 L 164.83 175.20 C 164.86 176.14 165.65 176.88 166.59 176.85 C 167.53 176.83 168.27 176.04 168.24 175.10 L 168.21 174.06 C 168.18 173.12 167.40 172.38 166.46 172.41 C 165.52 172.43 164.78 173.22 164.80 174.16 Z M 164.84 175.20 L 164.87 176.24 C 164.90 177.18 165.68 177.92 166.62 177.89 C 167.56 177.86 168.30 177.07 168.27 176.13 L 168.24 175.09 C 168.21 174.16 167.42 173.42 166.48 173.45 C 165.54 173.48 164.81 174.26 164.84 175.20 Z M 164.87 176.24 L 164.91 177.28 C 164.94 178.22 165.72 178.95 166.66 178.92 C 167.60 178.89 168.33 178.10 168.30 177.17 L 168.27 176.13 C 168.24 175.19 167.45 174.46 166.51 174.49 C 165.58 174.52 164.84 175.31 164.87 176.24 Z M 164.91 177.28 L 164.95 178.31 C 164.98 179.25 165.77 179.98 166.70 179.94 C 167.64 179.91 168.37 179.13 168.33 178.19 L 168.30 177.16 C 168.26 176.23 167.48 175.50 166.54 175.53 C 165.61 175.56 164.88 176.35 164.91 177.28 Z M 164.95 178.31 L 164.99 179.33 C 165.02 180.26 165.81 180.99 166.74 180.96 C 167.67 180.92 168.40 180.14 168.37 179.21 L 168.33 178.19 C 168.30 177.26 167.51 176.53 166.58 176.56 C 165.65 176.60 164.92 177.38 164.95 178.31 Z M 164.99 179.33 L 165.03 180.33 C 165.07 181.26 165.85 181.99 166.78 181.95 C 167.71 181.92 168.44 181.14 168.40 180.20 L 168.36 179.20 C 168.33 178.27 167.54 177.55 166.61 177.58 C 165.68 177.62 164.96 178.40 164.99 179.33 Z M 165.04 180.33 L 165.07 181.31 C 165.11 182.24 165.89 182.97 166.82 182.93 C 167.75 182.89 168.47 182.11 168.44 181.18 L 168.40 180.20 C 168.36 179.28 167.58 178.55 166.65 178.59 C 165.72 178.62 165.00 179.41 165.04 180.33 Z M 165.08 181.32 L 165.12 182.27 C 165.15 183.20 165.93 183.92 166.86 183.88 C 167.78 183.85 168.51 183.06 168.47 182.14 L 168.43 181.18 C 168.39 180.26 167.61 179.54 166.69 179.57 C 165.76 179.61 165.04 180.39 165.08 181.32 Z M 165.12 182.27 L 165.16 183.20 C 165.19 184.12 165.97 184.84 166.90 184.80 C 167.82 184.77 168.54 183.99 168.50 183.07 L 168.47 182.14 C 168.43 181.21 167.65 180.49 166.73 180.53 C 165.80 180.57 165.08 181.35 165.12 182.27 Z M 165.16 183.20 L 165.20 184.26 C 165.24 185.19 166.02 185.90 166.94 185.87 C 167.86 185.83 168.58 185.05 168.54 184.13 L 168.50 183.07 C 168.46 182.14 167.68 181.43 166.76 181.46 C 165.84 181.50 165.12 182.28 165.16 183.20 Z M 165.21 184.26 L 165.25 185.35 C 165.29 186.27 166.06 186.99 166.98 186.95 C 167.90 186.91 168.62 186.14 168.58 185.22 L 168.54 184.13 C 168.50 183.21 167.72 182.50 166.80 182.53 C 165.89 182.57 165.17 183.35 165.21 184.26 Z M 165.25 185.35 L 165.30 186.40 C 165.33 187.31 166.11 188.03 167.03 187.99 C 167.94 187.95 168.66 187.18 168.62 186.26 L 168.58 185.22 C 168.54 184.30 167.76 183.59 166.85 183.63 C 165.93 183.66 165.22 184.44 165.25 185.35 Z M 165.30 186.40 L 165.34 187.40 C 165.38 188.32 166.16 189.03 167.07 188.99 C 167.99 188.95 168.70 188.17 168.66 187.26 L 168.61 186.26 C 168.57 185.34 167.80 184.63 166.89 184.67 C 165.97 184.71 165.26 185.49 165.30 186.40 Z M 165.35 187.41 L 165.39 188.37 C 165.44 189.29 166.21 189.99 167.12 189.95 C 168.03 189.91 168.74 189.13 168.70 188.22 L 168.65 187.26 C 168.61 186.34 167.84 185.64 166.92 185.68 C 166.01 185.72 165.31 186.49 165.35 187.41 Z M 165.40 188.38 L 165.44 189.32 C 165.49 190.23 166.26 190.93 167.17 190.88 C 168.08 190.84 168.78 190.06 168.74 189.15 L 168.69 188.22 C 168.65 187.31 167.87 186.61 166.96 186.65 C 166.05 186.70 165.35 187.47 165.40 188.38 Z M 165.45 189.33 L 165.50 190.24 C 165.55 191.15 166.33 191.84 167.23 191.79 C 168.14 191.74 168.83 190.97 168.78 190.06 L 168.73 189.15 C 168.68 188.24 167.91 187.54 167.00 187.59 C 166.09 187.64 165.40 188.42 165.45 189.33 Z M 165.50 190.25 L 165.56 191.22 C 165.62 192.13 166.40 192.82 167.30 192.76 C 168.21 192.70 168.89 191.93 168.84 191.02 L 168.78 190.05 C 168.72 189.15 167.95 188.46 167.04 188.51 C 166.14 188.57 165.45 189.35 165.50 190.25 Z M 165.57 191.24 L 165.64 192.28 C 165.70 193.18 166.48 193.86 167.39 193.80 C 168.29 193.73 168.97 192.95 168.91 192.05 L 168.83 191.01 C 168.77 190.11 167.99 189.43 167.09 189.49 C 166.19 189.55 165.51 190.33 165.57 191.24 Z M 165.65 192.29 L 165.72 193.31 C 165.79 194.21 166.58 194.88 167.48 194.81 C 168.38 194.74 169.05 193.96 168.98 193.06 L 168.90 192.04 C 168.83 191.14 168.05 190.47 167.15 190.54 C 166.25 190.61 165.58 191.39 165.65 192.29 Z M 165.73 193.32 L 165.82 194.32 C 165.89 195.22 166.68 195.88 167.58 195.80 C 168.47 195.73 169.14 194.94 169.06 194.04 L 168.98 193.04 C 168.90 192.15 168.11 191.48 167.21 191.56 C 166.32 191.64 165.65 192.43 165.73 193.32 Z M 165.82 194.33 L 165.91 195.31 C 166.00 196.21 166.79 196.86 167.69 196.78 C 168.58 196.69 169.23 195.90 169.15 195.00 L 169.06 194.03 C 168.97 193.13 168.18 192.48 167.28 192.56 C 166.39 192.65 165.73 193.44 165.82 194.33 Z M 165.92 195.33 L 166.02 196.28 C 166.11 197.17 166.91 197.82 167.80 197.73 C 168.69 197.63 169.34 196.83 169.24 195.94 L 169.14 194.99 C 169.05 194.10 168.25 193.45 167.36 193.54 C 166.47 193.64 165.82 194.44 165.92 195.33 Z M 166.02 196.30 L 166.14 197.27 C 166.24 198.16 167.04 198.80 167.93 198.70 C 168.82 198.59 169.45 197.79 169.35 196.90 L 169.24 195.93 C 169.14 195.04 168.33 194.40 167.45 194.50 C 166.56 194.61 165.92 195.41 166.02 196.30 Z M 166.14 197.29 L 166.27 198.31 C 166.38 199.20 167.19 199.83 168.07 199.72 C 168.96 199.60 169.59 198.80 169.47 197.91 L 169.35 196.89 C 169.23 196.00 168.43 195.38 167.54 195.49 C 166.66 195.60 166.03 196.40 166.14 197.29 Z M 166.28 198.33 L 166.41 199.33 C 166.53 200.21 167.34 200.83 168.22 200.71 C 169.11 200.59 169.72 199.78 169.60 198.90 L 169.47 197.90 C 169.35 197.02 168.54 196.40 167.66 196.52 C 166.78 196.64 166.16 197.45 166.28 198.33 Z M 166.42 199.34 L 166.56 200.33 C 166.68 201.21 167.50 201.82 168.38 201.69 C 169.26 201.57 169.87 200.75 169.74 199.87 L 169.60 198.89 C 169.47 198.01 168.66 197.40 167.78 197.53 C 166.90 197.65 166.29 198.47 166.42 199.34 Z M 166.56 200.34 L 166.71 201.30 C 166.84 202.18 167.65 202.79 168.53 202.65 C 169.40 202.52 170.01 201.71 169.88 200.83 L 169.74 199.86 C 169.60 198.99 168.79 198.38 167.91 198.51 C 167.04 198.64 166.43 199.46 166.56 200.34 Z M 166.71 201.31 L 166.86 202.27 C 166.99 203.14 167.81 203.74 168.68 203.61 C 169.55 203.47 170.15 202.66 170.02 201.78 L 169.87 200.83 C 169.74 199.95 168.93 199.35 168.05 199.49 C 167.18 199.62 166.58 200.44 166.71 201.31 Z M 166.86 202.27 L 167.01 203.27 C 167.15 204.14 167.96 204.74 168.84 204.60 C 169.71 204.47 170.31 203.65 170.17 202.78 L 170.02 201.78 C 169.88 200.91 169.07 200.31 168.19 200.44 C 167.32 200.58 166.72 201.40 166.86 202.27 Z M 167.01 203.27 L 167.17 204.26 C 167.30 205.13 168.12 205.73 168.99 205.59 C 169.87 205.46 170.46 204.64 170.33 203.77 L 170.17 202.78 C 170.04 201.90 169.22 201.31 168.35 201.44 C 167.47 201.58 166.88 202.39 167.01 203.27 Z M 167.17 204.26 L 167.32 205.25 C 167.46 206.12 168.28 206.72 169.15 206.58 C 170.02 206.44 170.62 205.63 170.48 204.75 L 170.33 203.77 C 170.19 202.89 169.37 202.30 168.50 202.43 C 167.63 202.57 167.03 203.39 167.17 204.26 Z M 167.32 205.25 L 167.48 206.23 C 167.61 207.11 168.43 207.70 169.31 207.56 C 170.18 207.43 170.77 206.61 170.64 205.73 L 170.48 204.75 C 170.35 203.88 169.53 203.28 168.65 203.42 C 167.78 203.56 167.18 204.38 167.32 205.25 Z M 167.48 206.23 L 167.63 207.21 C 167.77 208.09 168.59 208.68 169.46 208.54 C 170.33 208.41 170.93 207.59 170.79 206.71 L 170.64 205.73 C 170.50 204.86 169.68 204.26 168.81 204.40 C 167.93 204.54 167.34 205.36 167.48 206.23 Z M 167.63 207.21 L 167.66 207.41 C 167.80 208.29 168.62 208.88 169.49 208.74 C 170.37 208.61 170.96 207.79 170.82 206.91 L 170.79 206.71 C 170.65 205.84 169.84 205.24 168.96 205.38 C 168.09 205.52 167.49 206.34 167.63 207.21 Z"
      fill="black"
      fill-rule="nonzero" /></svg>