<svg xmlns="http://www.w3.org/2000/svg" width="300" height="300" viewBox="0 0 300 300">
<path d="M 120.71 118.15 L 119.38 117.90 C 118.52 117.74 117.69 118.32 117.53 119.19 C 117.37 120.05 117.94 120.88 118.81 121.04 L 120.14 121.29 C 121.01 121.45 121.84 120.87 122.00 120.01 C 122.16 119.14 121.58 118.31 120.71 118.15 Z M 119.58 117.91 L 118.93 117.71 C 118.06 117.44 117.15 117.93 116.88 118.79 C 116.61 119.65 117.10 120.57 117.96 120.83 L 118.61 121.04 C 119.48 121.30 120.39 120.82 120.66 119.96 C 120.93 119.09 120.44 118.18 119.58 117.91 Z M 118.90 120.87 L 119.29 120.76 C 120.17 120.51 120.68 119.59 120.43 118.70 C 120.18 117.82 119.26 117.31 118.37 117.56 L 117.99 117.67 C 117.10 117.93 116.59 118.85 116.85 119.73 C 117.10 120.61 118.02 121.12 118.90 120.87 Z M 118.95 120.83 L 120.05 120.76 C 120.97 120.69 121.67 119.89 121.60 118.97 C 121.54 118.05 120.74 117.35 119.82 117.41 L 118.72 117.49 C 117.79 117.55 117.10 118.35 117.16 119.28 C 117.22 120.20 118.02 120.90 118.95 120.83 Z M 120.01 120.77 L 121.36 120.70 C 122.29 120.66 123.00 119.87 122.96 118.94 C 122.91 118.01 122.13 117.29 121.20 117.34 L 119.85 117.40 C 118.92 117.45 118.20 118.24 118.25 119.17 C 118.29 120.09 119.08 120.81 120.01 120.77 Z M 121.36 120.71 L 122.35 120.66 C 123.28 120.62 124.00 119.82 123.96 118.89 C 123.91 117.96 123.12 117.24 122.19 117.29 L 121.19 117.33 C 120.26 117.38 119.54 118.17 119.59 119.10 C 119.63 120.03 120.43 120.75 121.36 120.71 Z M 122.35 120.66 L 123.38 120.61 C 124.31 120.57 125.03 119.77 124.99 118.84 C 124.94 117.91 124.15 117.19 123.21 117.23 L 122.19 117.28 C 121.25 117.33 120.53 118.12 120.58 119.06 C 120.63 119.99 121.42 120.71 122.35 120.66 Z M 123.38 120.61 L 124.41 120.56 C 125.34 120.52 126.06 119.72 126.01 118.79 C 125.97 117.85 125.17 117.13 124.24 117.18 L 123.21 117.23 C 122.28 117.28 121.56 118.07 121.61 119.01 C 121.65 119.94 122.45 120.66 123.38 120.61 Z M 124.41 120.57 L 125.38 120.52 C 126.32 120.47 127.04 119.68 127.00 118.74 C 126.95 117.81 126.15 117.09 125.22 117.13 L 124.24 117.18 C 123.31 117.22 122.58 118.02 122.63 118.95 C 122.68 119.89 123.47 120.61 124.41 120.57 Z M 125.38 120.52 L 126.45 120.47 C 127.38 120.42 128.11 119.63 128.06 118.69 C 128.02 117.76 127.22 117.03 126.29 117.08 L 125.22 117.13 C 124.29 117.17 123.56 117.97 123.61 118.90 C 123.65 119.84 124.45 120.56 125.38 120.52 Z M 126.45 120.47 L 127.46 120.42 C 128.39 120.37 129.12 119.58 129.07 118.64 C 129.03 117.71 128.23 116.98 127.29 117.03 L 126.28 117.08 C 125.35 117.12 124.62 117.92 124.67 118.86 C 124.72 119.79 125.51 120.52 126.45 120.47 Z M 127.47 120.42 L 128.42 120.37 C 129.36 120.31 130.08 119.51 130.02 118.57 C 129.97 117.64 129.17 116.92 128.23 116.97 L 127.28 117.03 C 126.34 117.08 125.63 117.88 125.68 118.82 C 125.73 119.76 126.54 120.47 127.47 120.42 Z M 128.45 120.37 L 129.39 120.30 C 130.33 120.23 131.03 119.42 130.96 118.48 C 130.90 117.55 130.08 116.84 129.15 116.91 L 128.21 116.98 C 127.27 117.04 126.57 117.86 126.63 118.79 C 126.70 119.73 127.51 120.43 128.45 120.37 Z M 129.42 120.30 L 130.37 120.21 C 131.30 120.13 131.99 119.31 131.91 118.37 C 131.83 117.44 131.00 116.75 130.07 116.83 L 129.12 116.91 C 128.19 116.99 127.49 117.82 127.58 118.75 C 127.66 119.69 128.48 120.38 129.42 120.30 Z M 130.39 120.21 L 131.37 120.11 C 132.31 120.02 132.99 119.19 132.90 118.25 C 132.80 117.32 131.97 116.64 131.04 116.73 L 130.05 116.83 C 129.11 116.92 128.43 117.76 128.53 118.69 C 128.62 119.62 129.45 120.31 130.39 120.21 Z M 131.39 120.11 L 132.42 120.00 C 133.35 119.90 134.02 119.06 133.92 118.12 C 133.82 117.19 132.98 116.52 132.04 116.62 L 131.02 116.73 C 130.09 116.83 129.41 117.67 129.51 118.61 C 129.62 119.54 130.46 120.21 131.39 120.11 Z M 132.43 120.00 L 133.45 119.88 C 134.38 119.77 135.05 118.93 134.94 117.99 C 134.83 117.06 133.99 116.39 133.05 116.50 L 132.03 116.62 C 131.10 116.73 130.43 117.57 130.54 118.50 C 130.65 119.44 131.49 120.11 132.43 120.00 Z M 133.45 119.88 L 134.44 119.76 C 135.37 119.65 136.04 118.80 135.92 117.86 C 135.81 116.93 134.96 116.27 134.03 116.38 L 133.04 116.50 C 132.11 116.61 131.45 117.46 131.56 118.39 C 131.67 119.33 132.52 119.99 133.45 119.88 Z M 134.45 119.76 L 135.45 119.63 C 136.38 119.51 137.04 118.66 136.92 117.73 C 136.80 116.79 135.95 116.14 135.02 116.25 L 134.02 116.38 C 133.09 116.50 132.43 117.35 132.55 118.29 C 132.67 119.22 133.52 119.88 134.45 119.76 Z M 135.47 119.63 L 136.46 119.49 C 137.39 119.37 138.05 118.51 137.92 117.58 C 137.79 116.65 136.94 115.99 136.01 116.12 L 135.01 116.26 C 134.08 116.38 133.42 117.24 133.55 118.17 C 133.68 119.10 134.53 119.75 135.47 119.63 Z M 136.48 119.49 L 137.47 119.35 C 138.40 119.21 139.05 118.35 138.91 117.42 C 138.78 116.49 137.91 115.84 136.98 115.98 L 135.99 116.12 C 135.06 116.26 134.42 117.12 134.55 118.05 C 134.69 118.98 135.55 119.63 136.48 119.49 Z M 137.49 119.34 L 138.48 119.19 C 139.41 119.04 140.05 118.17 139.90 117.24 C 139.76 116.32 138.89 115.68 137.96 115.83 L 136.97 115.98 C 136.04 116.13 135.40 117.00 135.55 117.92 C 135.69 118.85 136.56 119.49 137.49 119.34 Z M 138.50 119.19 L 139.48 119.02 C 140.40 118.87 141.03 118.00 140.88 117.07 C 140.73 116.14 139.86 115.52 138.93 115.67 L 137.95 115.83 C 137.02 115.98 136.39 116.85 136.54 117.78 C 136.69 118.71 137.57 119.34 138.50 119.19 Z M 139.48 119.02 L 140.46 118.86 C 141.39 118.70 142.02 117.83 141.86 116.90 C 141.71 115.98 140.83 115.35 139.90 115.50 L 138.92 115.67 C 138.00 115.82 137.37 116.70 137.53 117.63 C 137.68 118.55 138.56 119.18 139.48 119.02 Z M 140.46 118.86 L 141.44 118.70 C 142.37 118.54 142.99 117.67 142.84 116.74 C 142.68 115.81 141.81 115.19 140.88 115.34 L 139.90 115.50 C 138.98 115.66 138.35 116.54 138.51 117.46 C 138.66 118.39 139.54 119.01 140.46 118.86 Z M 141.44 118.70 L 142.41 118.54 C 143.33 118.38 143.96 117.51 143.81 116.58 C 143.65 115.66 142.78 115.03 141.85 115.18 L 140.88 115.34 C 139.96 115.49 139.33 116.37 139.48 117.30 C 139.64 118.22 140.51 118.85 141.44 118.70 Z M 142.41 118.54 L 143.39 118.37 C 144.31 118.22 144.94 117.35 144.79 116.42 C 144.64 115.49 143.76 114.87 142.83 115.02 L 141.85 115.18 C 140.93 115.33 140.30 116.21 140.45 117.14 C 140.60 118.06 141.48 118.69 142.41 118.54 Z M 143.39 118.37 L 144.39 118.21 C 145.31 118.05 145.94 117.18 145.79 116.25 C 145.63 115.32 144.76 114.70 143.83 114.85 L 142.83 115.02 C 141.91 115.17 141.28 116.05 141.43 116.98 C 141.59 117.90 142.46 118.53 143.39 118.37 Z M 144.39 118.21 L 145.40 118.04 C 146.32 117.88 146.95 117.00 146.79 116.07 C 146.63 115.15 145.75 114.53 144.83 114.68 L 143.82 114.86 C 142.90 115.01 142.28 115.89 142.43 116.82 C 142.59 117.74 143.47 118.36 144.39 118.21 Z M 145.40 118.03 L 146.37 117.86 C 147.30 117.70 147.92 116.82 147.75 115.90 C 147.59 114.97 146.71 114.36 145.79 114.52 L 144.82 114.69 C 143.90 114.85 143.28 115.73 143.44 116.65 C 143.60 117.58 144.48 118.19 145.40 118.03 Z M 146.38 117.86 L 147.36 117.69 C 148.28 117.52 148.90 116.64 148.73 115.72 C 148.57 114.80 147.69 114.18 146.76 114.35 L 145.78 114.52 C 144.86 114.68 144.25 115.56 144.41 116.49 C 144.57 117.41 145.45 118.03 146.38 117.86 Z M 147.36 117.69 L 148.35 117.51 C 149.27 117.34 149.89 116.46 149.72 115.54 C 149.56 114.62 148.67 114.00 147.75 114.17 L 146.76 114.35 C 145.84 114.51 145.23 115.39 145.39 116.32 C 145.56 117.24 146.44 117.85 147.36 117.69 Z M 148.35 117.51 L 149.35 117.33 C 150.27 117.16 150.88 116.28 150.72 115.36 C 150.55 114.44 149.67 113.83 148.75 113.99 L 147.75 114.17 C 146.83 114.34 146.22 115.22 146.38 116.14 C 146.55 117.06 147.43 117.67 148.35 117.51 Z M 149.35 117.33 L 150.33 117.15 C 151.25 116.99 151.86 116.11 151.70 115.19 C 151.54 114.26 150.66 113.65 149.73 113.82 L 148.75 113.99 C 147.83 114.16 147.22 115.04 147.38 115.96 C 147.55 116.88 148.43 117.49 149.35 117.33 Z M 150.33 117.15 L 151.31 116.97 C 152.23 116.81 152.84 115.93 152.68 115.01 C 152.51 114.09 151.64 113.48 150.72 113.64 L 149.73 113.82 C 148.82 113.98 148.20 114.86 148.37 115.78 C 148.53 116.70 149.41 117.31 150.33 117.15 Z M 151.31 116.97 L 152.30 116.79 C 153.22 116.63 153.83 115.75 153.66 114.83 C 153.50 113.91 152.62 113.30 151.70 113.47 L 150.71 113.65 C 149.79 113.81 149.19 114.69 149.35 115.61 C 149.52 116.53 150.40 117.14 151.31 116.97 Z M 152.30 116.79 L 153.29 116.61 C 154.21 116.44 154.81 115.56 154.65 114.64 C 154.48 113.73 153.60 113.12 152.68 113.29 L 151.69 113.47 C 150.78 113.64 150.17 114.52 150.34 115.44 C 150.51 116.35 151.39 116.96 152.30 116.79 Z M 153.30 116.60 L 154.28 116.42 C 155.20 116.24 155.80 115.36 155.63 114.45 C 155.45 113.53 154.57 112.93 153.66 113.11 L 152.67 113.29 C 151.76 113.47 151.16 114.35 151.33 115.26 C 151.50 116.18 152.39 116.78 153.30 116.60 Z M 154.29 116.41 L 155.26 116.22 C 156.17 116.05 156.77 115.16 156.59 114.25 C 156.41 113.34 155.53 112.74 154.62 112.92 L 153.65 113.11 C 152.74 113.29 152.14 114.17 152.32 115.08 C 152.50 116.00 153.38 116.59 154.29 116.41 Z M 155.27 116.22 L 156.24 116.03 C 157.15 115.85 157.74 114.96 157.56 114.05 C 157.38 113.14 156.49 112.55 155.58 112.73 L 154.61 112.93 C 153.70 113.11 153.11 113.99 153.29 114.90 C 153.47 115.81 154.36 116.40 155.27 116.22 Z M 156.24 116.02 L 157.22 115.83 C 158.13 115.64 158.72 114.76 158.54 113.85 C 158.35 112.95 157.47 112.36 156.56 112.54 L 155.58 112.74 C 154.67 112.92 154.09 113.80 154.27 114.71 C 154.45 115.62 155.33 116.20 156.24 116.02 Z M 157.22 115.82 L 158.21 115.62 C 159.12 115.44 159.71 114.56 159.53 113.66 C 159.35 112.75 158.46 112.16 157.56 112.34 L 156.56 112.54 C 155.66 112.72 155.07 113.60 155.25 114.51 C 155.43 115.42 156.31 116.00 157.22 115.82 Z M 158.21 115.62 L 159.21 115.43 C 160.11 115.25 160.70 114.37 160.52 113.46 C 160.34 112.56 159.47 111.97 158.56 112.15 L 157.56 112.35 C 156.66 112.52 156.07 113.40 156.25 114.31 C 156.43 115.21 157.30 115.80 158.21 115.62 Z M 159.20 115.42 L 160.20 115.23 C 161.11 115.05 161.70 114.18 161.52 113.27 C 161.34 112.37 160.47 111.78 159.57 111.96 L 158.57 112.15 C 157.66 112.33 157.07 113.20 157.25 114.11 C 157.43 115.01 158.30 115.60 159.20 115.42 Z M 160.20 115.22 L 161.20 115.03 C 162.10 114.85 162.69 113.98 162.51 113.08 C 162.34 112.18 161.46 111.59 160.56 111.77 L 159.57 111.96 C 158.67 112.14 158.08 113.01 158.26 113.91 C 158.43 114.81 159.30 115.40 160.20 115.22 Z M 161.21 115.02 L 162.19 114.83 C 163.08 114.65 163.67 113.78 163.49 112.88 C 163.31 111.98 162.44 111.40 161.54 111.58 L 160.56 111.77 C 159.66 111.95 159.08 112.82 159.26 113.72 C 159.44 114.62 160.31 115.20 161.21 115.02 Z M 162.20 114.82 L 163.14 114.62 C 164.04 114.44 164.61 113.57 164.43 112.67 C 164.24 111.78 163.37 111.21 162.48 111.39 L 161.53 111.58 C 160.64 111.77 160.06 112.64 160.24 113.53 C 160.43 114.43 161.30 115.00 162.20 114.82 Z M 163.16 114.62 L 164.19 114.39 C 165.08 114.20 165.64 113.33 165.45 112.44 C 165.26 111.55 164.38 110.98 163.49 111.17 L 162.46 111.40 C 161.57 111.59 161.01 112.47 161.20 113.35 C 161.39 114.24 162.27 114.81 163.16 114.62 Z M 164.20 114.38 L 165.20 114.16 C 166.09 113.96 166.64 113.08 166.45 112.20 C 166.25 111.32 165.37 110.76 164.49 110.96 L 163.48 111.18 C 162.60 111.38 162.04 112.26 162.24 113.14 C 162.44 114.03 163.32 114.58 164.20 114.38 Z M 165.21 114.15 L 166.16 113.93 C 167.04 113.73 167.60 112.86 167.39 111.98 C 167.19 111.10 166.32 110.55 165.44 110.75 L 164.48 110.97 C 163.60 111.17 163.05 112.04 163.25 112.92 C 163.45 113.80 164.33 114.35 165.21 114.15 Z M 166.16 113.93 L 167.08 113.72 C 167.96 113.53 168.51 112.65 168.31 111.78 C 168.11 110.90 167.24 110.35 166.36 110.55 L 165.44 110.75 C 164.57 110.95 164.02 111.82 164.21 112.70 C 164.41 113.57 165.28 114.13 166.16 113.93 Z M 167.06 113.72 L 167.92 113.53 C 168.79 113.35 169.35 112.48 169.16 111.61 C 168.97 110.73 168.11 110.18 167.24 110.36 L 166.38 110.55 C 165.50 110.74 164.95 111.60 165.14 112.48 C 165.33 113.35 166.19 113.91 167.06 113.72 Z M 167.91 113.53 L 168.78 113.35 C 169.65 113.17 170.21 112.31 170.02 111.44 C 169.84 110.56 168.99 110.00 168.11 110.19 L 167.25 110.37 C 166.37 110.55 165.81 111.41 166.00 112.28 C 166.18 113.15 167.04 113.71 167.91 113.53 Z M 168.78 113.34 L 169.72 113.14 C 170.59 112.96 171.15 112.11 170.97 111.24 C 170.78 110.37 169.93 109.81 169.06 109.99 L 168.11 110.19 C 167.24 110.38 166.69 111.23 166.87 112.10 C 167.05 112.97 167.91 113.52 168.78 113.34 Z M 169.73 113.13 L 170.82 112.90 C 171.68 112.71 172.23 111.86 172.04 110.99 C 171.86 110.13 171.00 109.58 170.14 109.77 L 169.05 110.00 C 168.19 110.19 167.64 111.04 167.83 111.91 C 168.01 112.77 168.87 113.32 169.73 113.13 Z M 170.83 112.89 L 171.91 112.65 C 172.77 112.45 173.31 111.60 173.11 110.74 C 172.92 109.88 172.07 109.34 171.21 109.53 L 170.13 109.78 C 169.27 109.97 168.73 110.82 168.92 111.68 C 169.12 112.54 169.97 113.08 170.83 112.89 Z M 171.92 112.64 L 172.87 112.42 C 173.73 112.22 174.26 111.36 174.06 110.51 C 173.86 109.65 173.01 109.12 172.15 109.32 L 171.20 109.54 C 170.34 109.74 169.81 110.60 170.01 111.45 C 170.21 112.31 171.06 112.84 171.92 112.64 Z M 172.88 112.41 L 173.90 112.17 C 174.75 111.96 175.27 111.11 175.07 110.25 C 174.86 109.40 174.01 108.88 173.16 109.08 L 172.14 109.33 C 171.29 109.53 170.77 110.39 170.97 111.24 C 171.18 112.09 172.03 112.61 172.88 112.41 Z M 173.91 112.16 L 174.94 111.90 C 175.78 111.69 176.30 110.83 176.09 109.99 C 175.88 109.14 175.02 108.62 174.17 108.84 L 173.14 109.09 C 172.30 109.30 171.78 110.16 171.99 111.01 C 172.20 111.85 173.06 112.37 173.91 112.16 Z M 174.95 111.89 L 175.96 111.63 C 176.80 111.41 177.31 110.55 177.09 109.71 C 176.87 108.87 176.01 108.36 175.17 108.58 L 174.16 108.84 C 173.32 109.06 172.81 109.92 173.03 110.76 C 173.25 111.61 174.11 112.11 174.95 111.89 Z M 175.98 111.62 L 176.93 111.36 C 177.77 111.13 178.26 110.27 178.03 109.43 C 177.80 108.59 176.94 108.10 176.10 108.33 L 175.15 108.59 C 174.31 108.82 173.82 109.68 174.05 110.52 C 174.28 111.36 175.14 111.85 175.98 111.62 Z M 176.96 111.35 L 177.92 111.06 C 178.75 110.82 179.22 109.95 178.98 109.12 C 178.73 108.29 177.86 107.82 177.04 108.06 L 176.08 108.34 C 175.25 108.59 174.77 109.46 175.02 110.29 C 175.26 111.12 176.13 111.59 176.96 111.35 Z M 177.99 111.02 L 179.34 110.54 C 180.15 110.26 180.57 109.38 180.29 108.57 C 180.01 107.77 179.12 107.34 178.32 107.63 L 176.97 108.10 C 176.16 108.39 175.74 109.27 176.02 110.08 C 176.30 110.88 177.19 111.30 177.99 111.02 Z M 179.55 110.43 L 180.37 109.98 C 181.11 109.59 181.39 108.67 181.00 107.93 C 180.60 107.19 179.68 106.91 178.94 107.30 L 178.12 107.75 C 177.38 108.14 177.10 109.06 177.49 109.80 C 177.89 110.54 178.81 110.82 179.55 110.43 Z M 180.91 109.46 L 181.18 109.04 C 181.64 108.35 181.44 107.42 180.75 106.97 C 180.07 106.52 179.14 106.71 178.69 107.40 L 178.41 107.83 C 177.96 108.51 178.15 109.44 178.84 109.89 C 179.53 110.34 180.45 110.15 180.91 109.46 Z M 181.10 107.32 L 180.69 106.79 C 180.20 106.15 179.28 106.03 178.63 106.52 C 177.99 107.02 177.87 107.94 178.36 108.58 L 178.77 109.11 C 179.27 109.76 180.19 109.88 180.83 109.38 C 181.47 108.89 181.59 107.97 181.10 107.32 Z M 180.23 106.42 L 179.25 105.88 C 178.55 105.50 177.67 105.75 177.28 106.45 C 176.90 107.16 177.15 108.04 177.85 108.42 L 178.83 108.96 C 179.53 109.34 180.41 109.09 180.80 108.39 C 181.18 107.68 180.93 106.80 180.23 106.42 Z M 179.15 105.85 L 178.57 105.58 C 177.85 105.25 177.00 105.56 176.67 106.28 C 176.34 107.00 176.65 107.86 177.37 108.19 L 177.95 108.46 C 178.67 108.79 179.52 108.47 179.86 107.75 C 180.19 107.03 179.87 106.18 179.15 105.85 Z"
      fill="black"
      fill-rule="nonzero" /><path d="M 145.67 98.83 L 145.51 99.77 C 145.37 100.59 145.92 101.36 146.74 101.50 C 147.56 101.64 148.33 101.09 148.47 100.27 L 148.63 99.33 C 148.77 98.51 148.22 97.74 147.40 97.60 C 146.58 97.46 145.81 98.01 145.67 98.83 Z M 145.48 99.78 L 145.33 100.74 C 145.19 101.58 145.77 102.36 146.60 102.49 C 147.44 102.62 148.22 102.05 148.35 101.22 L 148.50 100.26 C 148.64 99.42 148.06 98.64 147.23 98.51 C 146.39 98.37 145.61 98.95 145.48 99.78 Z M 145.29 100.78 L 145.16 101.77 C 145.04 102.63 145.65 103.42 146.51 103.53 C 147.36 103.64 148.15 103.04 148.26 102.18 L 148.39 101.18 C 148.50 100.33 147.90 99.54 147.04 99.43 C 146.19 99.31 145.40 99.92 145.29 100.78 Z M 145.12 101.82 L 145.02 102.88 C 144.93 103.76 145.57 104.54 146.45 104.62 C 147.33 104.71 148.11 104.06 148.20 103.19 L 148.30 102.13 C 148.38 101.25 147.74 100.47 146.86 100.39 C 145.98 100.30 145.20 100.94 145.12 101.82 Z M 144.99 102.93 L 144.93 103.93 C 144.88 104.82 145.56 105.59 146.45 105.64 C 147.34 105.69 148.11 105.01 148.16 104.12 L 148.22 103.13 C 148.28 102.24 147.60 101.47 146.70 101.42 C 145.81 101.36 145.04 102.04 144.99 102.93 Z M 144.92 103.97 L 144.88 104.98 C 144.85 105.88 145.56 106.63 146.46 106.67 C 147.36 106.70 148.11 105.99 148.14 105.09 L 148.18 104.08 C 148.21 103.18 147.50 102.43 146.60 102.39 C 145.70 102.36 144.95 103.07 144.92 103.97 Z M 144.87 105.01 L 144.86 106.03 C 144.84 106.94 145.56 107.68 146.47 107.70 C 147.37 107.71 148.12 106.99 148.13 106.09 L 148.15 105.06 C 148.16 104.16 147.44 103.41 146.54 103.40 C 145.63 103.38 144.89 104.11 144.87 105.01 Z M 144.85 106.05 L 144.84 107.06 C 144.84 107.96 145.57 108.71 146.48 108.71 C 147.39 108.72 148.13 107.98 148.14 107.07 L 148.14 106.07 C 148.15 105.16 147.41 104.42 146.50 104.41 C 145.59 104.41 144.85 105.14 144.85 106.05 Z M 144.83 107.06 L 144.83 108.06 C 144.83 108.97 145.57 109.71 146.49 109.71 C 147.40 109.71 148.14 108.97 148.14 108.06 L 148.14 107.07 C 148.14 106.15 147.40 105.41 146.49 105.41 C 145.58 105.41 144.83 106.15 144.83 107.06 Z M 144.83 108.06 L 144.83 109.10 C 144.83 110.02 145.57 110.76 146.49 110.76 C 147.41 110.76 148.15 110.02 148.15 109.10 L 148.15 108.06 C 148.15 107.14 147.41 106.40 146.49 106.40 C 145.57 106.40 144.83 107.14 144.83 108.06 Z M 144.82 109.10 L 144.82 110.09 C 144.82 111.01 145.57 111.76 146.49 111.76 C 147.41 111.76 148.15 111.01 148.15 110.09 L 148.15 109.10 C 148.15 108.18 147.41 107.44 146.49 107.44 C 145.57 107.44 144.82 108.18 144.82 109.10 Z M 144.82 110.09 L 144.82 111.06 C 144.82 111.98 145.57 112.73 146.49 112.73 C 147.41 112.73 148.16 111.98 148.16 111.06 L 148.16 110.09 C 148.16 109.17 147.41 108.42 146.49 108.42 C 145.57 108.42 144.82 109.17 144.82 110.09 Z M 144.82 111.06 L 144.82 112.02 C 144.82 112.95 145.56 113.70 146.49 113.70 C 147.41 113.70 148.16 112.95 148.16 112.02 L 148.16 111.06 C 148.16 110.14 147.41 109.39 146.49 109.39 C 145.56 109.39 144.82 110.14 144.82 111.06 Z M 144.81 112.02 L 144.81 112.96 C 144.81 113.89 145.56 114.64 146.49 114.64 C 147.41 114.64 148.16 113.89 148.17 112.96 L 148.17 112.03 C 148.17 111.10 147.42 110.35 146.49 110.35 C 145.56 110.35 144.81 111.10 144.81 112.02 Z M 144.81 112.96 L 144.81 113.93 C 144.80 114.86 145.55 115.62 146.48 115.62 C 147.41 115.62 148.16 114.87 148.17 113.94 L 148.17 112.97 C 148.17 112.04 147.42 111.29 146.49 111.28 C 145.56 111.28 144.81 112.03 144.81 112.96 Z M 144.80 113.93 L 144.80 114.95 C 144.79 115.88 145.54 116.63 146.47 116.64 C 147.40 116.65 148.16 115.90 148.16 114.97 L 148.17 113.95 C 148.18 113.02 147.43 112.26 146.50 112.25 C 145.57 112.25 144.81 113.00 144.80 113.93 Z M 144.79 114.94 L 144.78 116.01 C 144.77 116.94 145.52 117.70 146.45 117.71 C 147.38 117.72 148.15 116.97 148.16 116.04 L 148.17 114.97 C 148.18 114.04 147.43 113.28 146.50 113.27 C 145.57 113.26 144.80 114.01 144.79 114.94 Z M 144.78 116.00 L 144.76 116.95 C 144.75 117.88 145.49 118.65 146.43 118.67 C 147.36 118.68 148.13 117.94 148.14 117.00 L 148.16 116.05 C 148.17 115.12 147.43 114.35 146.50 114.33 C 145.56 114.32 144.79 115.06 144.78 116.00 Z M 144.76 116.93 L 144.74 117.89 C 144.71 118.83 145.45 119.60 146.39 119.63 C 147.32 119.65 148.10 118.91 148.12 117.98 L 148.15 117.02 C 148.17 116.08 147.43 115.31 146.50 115.28 C 145.56 115.26 144.78 116.00 144.76 116.93 Z M 144.74 117.87 L 144.70 118.87 C 144.66 119.80 145.39 120.59 146.33 120.62 C 147.27 120.66 148.05 119.93 148.09 118.99 L 148.12 118.00 C 148.16 117.06 147.43 116.28 146.49 116.24 C 145.56 116.21 144.77 116.94 144.74 117.87 Z M 144.70 118.84 L 144.64 119.86 C 144.59 120.80 145.31 121.60 146.25 121.65 C 147.18 121.70 147.98 120.98 148.03 120.04 L 148.09 119.02 C 148.14 118.08 147.42 117.28 146.48 117.23 C 145.55 117.18 144.75 117.90 144.70 118.84 Z M 144.64 119.83 L 144.56 120.88 C 144.50 121.82 145.20 122.63 146.14 122.70 C 147.07 122.77 147.89 122.07 147.96 121.13 L 148.03 120.08 C 148.10 119.14 147.40 118.32 146.46 118.26 C 145.53 118.19 144.71 118.89 144.64 119.83 Z M 144.57 120.84 L 144.47 121.83 C 144.38 122.76 145.07 123.60 146.00 123.69 C 146.94 123.78 147.77 123.09 147.86 122.15 L 147.96 121.17 C 148.05 120.23 147.36 119.40 146.42 119.31 C 145.49 119.22 144.66 119.90 144.57 120.84 Z M 144.47 121.79 L 144.36 122.74 C 144.25 123.68 144.92 124.53 145.86 124.63 C 146.79 124.74 147.64 124.08 147.75 123.14 L 147.86 122.19 C 147.97 121.25 147.30 120.41 146.36 120.30 C 145.43 120.19 144.58 120.86 144.47 121.79 Z M 144.36 122.71 L 144.23 123.68 C 144.10 124.61 144.76 125.47 145.69 125.60 C 146.63 125.73 147.49 125.08 147.61 124.14 L 147.75 123.17 C 147.87 122.24 147.22 121.38 146.29 121.25 C 145.35 121.12 144.49 121.78 144.36 122.71 Z M 144.23 123.65 L 144.08 124.64 C 143.94 125.57 144.58 126.45 145.51 126.59 C 146.44 126.73 147.32 126.09 147.46 125.16 L 147.61 124.17 C 147.75 123.24 147.11 122.37 146.18 122.22 C 145.25 122.08 144.38 122.72 144.23 123.65 Z M 144.08 124.61 L 143.91 125.62 C 143.75 126.55 144.38 127.44 145.31 127.60 C 146.24 127.75 147.13 127.13 147.28 126.20 L 147.46 125.19 C 147.61 124.26 146.99 123.37 146.06 123.21 C 145.13 123.06 144.24 123.68 144.08 124.61 Z M 143.92 125.60 L 143.72 126.63 C 143.55 127.56 144.17 128.45 145.10 128.62 C 146.03 128.80 146.92 128.18 147.09 127.25 L 147.28 126.22 C 147.45 125.29 146.84 124.40 145.91 124.23 C 144.98 124.06 144.09 124.67 143.92 125.60 Z M 143.73 126.61 L 143.53 127.59 C 143.35 128.52 143.95 129.42 144.88 129.60 C 145.81 129.79 146.71 129.18 146.89 128.25 L 147.09 127.27 C 147.27 126.35 146.67 125.44 145.74 125.26 C 144.81 125.08 143.91 125.68 143.73 126.61 Z M 143.54 127.57 L 143.34 128.51 C 143.14 129.44 143.73 130.35 144.66 130.54 C 145.59 130.74 146.50 130.14 146.69 129.22 L 146.89 128.27 C 147.09 127.35 146.49 126.44 145.57 126.24 C 144.64 126.05 143.73 126.64 143.54 127.57 Z M 143.34 128.49 L 143.13 129.45 C 142.92 130.37 143.50 131.29 144.43 131.50 C 145.35 131.70 146.27 131.12 146.48 130.20 L 146.69 129.24 C 146.90 128.31 146.31 127.40 145.39 127.19 C 144.46 126.98 143.55 127.57 143.34 128.49 Z M 143.13 129.43 L 142.90 130.40 C 142.68 131.32 143.26 132.25 144.18 132.46 C 145.10 132.68 146.03 132.11 146.24 131.19 L 146.47 130.22 C 146.69 129.29 146.12 128.37 145.19 128.15 C 144.27 127.93 143.35 128.51 143.13 129.43 Z M 142.91 130.38 L 142.66 131.36 C 142.43 132.28 142.99 133.21 143.91 133.44 C 144.83 133.67 145.77 133.11 146.00 132.19 L 146.24 131.21 C 146.47 130.29 145.91 129.35 144.99 129.13 C 144.07 128.90 143.13 129.46 142.91 130.38 Z M 142.67 131.34 L 142.41 132.33 C 142.16 133.25 142.71 134.19 143.63 134.43 C 144.55 134.67 145.49 134.12 145.73 133.20 L 145.99 132.21 C 146.23 131.29 145.68 130.35 144.76 130.11 C 143.85 129.87 142.91 130.42 142.67 131.34 Z M 142.41 132.31 L 142.13 133.31 C 141.88 134.22 142.42 135.17 143.33 135.42 C 144.25 135.68 145.20 135.14 145.45 134.22 L 145.73 133.23 C 145.98 132.31 145.44 131.36 144.53 131.11 C 143.61 130.85 142.66 131.39 142.41 132.31 Z M 142.14 133.28 L 141.86 134.22 C 141.60 135.14 142.12 136.09 143.04 136.36 C 143.95 136.63 144.91 136.10 145.17 135.19 L 145.44 134.25 C 145.71 133.33 145.19 132.38 144.27 132.11 C 143.36 131.85 142.40 132.37 142.14 133.28 Z M 141.87 134.20 L 141.59 135.13 C 141.31 136.04 141.83 137.00 142.74 137.28 C 143.65 137.55 144.61 137.04 144.89 136.13 L 145.17 135.21 C 145.44 134.30 144.93 133.34 144.02 133.06 C 143.11 132.78 142.15 133.29 141.87 134.20 Z M 141.59 135.11 L 141.30 136.04 C 141.01 136.94 141.52 137.91 142.42 138.20 C 143.33 138.49 144.30 137.98 144.59 137.08 L 144.88 136.15 C 145.17 135.24 144.66 134.27 143.76 133.98 C 142.85 133.70 141.88 134.20 141.59 135.11 Z M 141.30 136.02 L 141.00 136.96 C 140.70 137.86 141.20 138.84 142.10 139.13 C 143.00 139.43 143.98 138.94 144.27 138.03 L 144.58 137.09 C 144.88 136.19 144.38 135.21 143.48 134.92 C 142.57 134.62 141.60 135.12 141.30 136.02 Z M 141.00 136.95 L 140.68 137.90 C 140.38 138.80 140.86 139.78 141.77 140.08 C 142.67 140.38 143.65 139.90 143.95 139.00 L 144.27 138.05 C 144.57 137.14 144.09 136.16 143.19 135.86 C 142.28 135.56 141.31 136.04 141.00 136.95 Z M 140.68 137.88 L 140.35 138.85 C 140.04 139.75 140.52 140.73 141.42 141.04 C 142.32 141.35 143.30 140.87 143.61 139.97 L 143.95 139.01 C 144.26 138.11 143.78 137.13 142.88 136.82 C 141.98 136.50 141.00 136.98 140.68 137.88 Z M 140.36 138.84 L 140.01 139.82 C 139.69 140.72 140.17 141.70 141.07 142.02 C 141.96 142.33 142.95 141.86 143.27 140.96 L 143.61 139.98 C 143.93 139.08 143.46 138.10 142.56 137.78 C 141.66 137.47 140.67 137.94 140.36 138.84 Z M 140.01 139.81 L 139.66 140.79 C 139.34 141.69 139.81 142.67 140.71 143.00 C 141.60 143.32 142.59 142.85 142.91 141.95 L 143.26 140.97 C 143.59 140.07 143.12 139.09 142.22 138.76 C 141.32 138.44 140.33 138.91 140.01 139.81 Z M 139.66 140.78 L 139.33 141.70 C 139.00 142.60 139.47 143.59 140.36 143.92 C 141.26 144.24 142.25 143.78 142.58 142.88 L 142.91 141.96 C 143.24 141.06 142.77 140.07 141.88 139.75 C 140.98 139.42 139.99 139.88 139.66 140.78 Z M 139.33 141.70 L 138.99 142.63 C 138.66 143.53 139.11 144.52 140.01 144.85 C 140.90 145.18 141.90 144.72 142.23 143.83 L 142.57 142.89 C 142.90 142.00 142.45 141.00 141.55 140.67 C 140.65 140.34 139.66 140.80 139.33 141.70 Z M 138.99 142.62 L 138.64 143.56 C 138.30 144.46 138.75 145.45 139.65 145.79 C 140.54 146.12 141.54 145.67 141.87 144.78 L 142.23 143.84 C 142.56 142.94 142.11 141.95 141.21 141.61 C 140.32 141.28 139.32 141.73 138.99 142.62 Z M 138.64 143.55 L 138.28 144.50 C 137.94 145.39 138.38 146.39 139.27 146.73 C 140.16 147.07 141.16 146.63 141.51 145.73 L 141.87 144.79 C 142.21 143.90 141.76 142.90 140.87 142.56 C 139.98 142.21 138.98 142.66 138.64 143.55 Z M 138.28 144.48 L 137.91 145.42 C 137.56 146.31 138.00 147.32 138.89 147.67 C 139.78 148.01 140.78 147.58 141.13 146.69 L 141.50 145.75 C 141.85 144.86 141.41 143.85 140.52 143.50 C 139.63 143.16 138.63 143.59 138.28 144.48 Z M 137.92 145.41 L 137.54 146.34 C 137.18 147.23 137.61 148.24 138.50 148.59 C 139.38 148.95 140.39 148.52 140.75 147.64 L 141.13 146.70 C 141.48 145.82 141.06 144.81 140.17 144.45 C 139.28 144.09 138.27 144.52 137.92 145.41 Z M 137.55 146.33 L 137.16 147.25 C 136.80 148.13 137.21 149.15 138.10 149.51 C 138.98 149.88 139.99 149.46 140.36 148.58 L 140.74 147.65 C 141.11 146.77 140.69 145.76 139.81 145.39 C 138.93 145.03 137.91 145.44 137.55 146.33 Z M 137.17 147.23 L 136.78 148.14 C 136.40 149.02 136.81 150.04 137.69 150.41 C 138.57 150.79 139.59 150.38 139.96 149.51 L 140.35 148.60 C 140.73 147.72 140.32 146.70 139.44 146.32 C 138.57 145.95 137.55 146.35 137.17 147.23 Z M 136.79 148.12 L 136.37 149.06 C 135.98 149.93 136.38 150.96 137.25 151.35 C 138.12 151.73 139.15 151.34 139.53 150.47 L 139.95 149.53 C 140.34 148.65 139.95 147.63 139.08 147.24 C 138.20 146.85 137.18 147.25 136.79 148.12 Z M 136.38 149.04 L 135.95 149.96 C 135.55 150.83 135.93 151.86 136.80 152.26 C 137.67 152.66 138.70 152.28 139.10 151.41 L 139.52 150.49 C 139.93 149.62 139.55 148.59 138.68 148.19 C 137.81 147.79 136.78 148.17 136.38 149.04 Z M 135.96 149.94 L 135.53 150.85 C 135.12 151.71 135.48 152.74 136.35 153.16 C 137.21 153.57 138.24 153.20 138.66 152.34 L 139.09 151.43 C 139.50 150.57 139.14 149.54 138.27 149.12 C 137.41 148.71 136.38 149.08 135.96 149.94 Z M 135.54 150.83 L 135.10 151.72 C 134.68 152.58 135.03 153.62 135.89 154.04 C 136.74 154.46 137.78 154.11 138.21 153.25 L 138.65 152.36 C 139.07 151.50 138.72 150.46 137.86 150.04 C 137.00 149.62 135.96 149.97 135.54 150.83 Z M 135.11 151.70 L 134.66 152.59 C 134.23 153.44 134.57 154.48 135.42 154.91 C 136.27 155.35 137.31 155.01 137.75 154.15 L 138.20 153.27 C 138.63 152.42 138.29 151.38 137.44 150.94 C 136.58 150.51 135.54 150.85 135.11 151.70 Z M 134.67 152.57 L 134.21 153.44 C 133.77 154.29 134.10 155.34 134.95 155.78 C 135.79 156.22 136.84 155.89 137.28 155.04 L 137.74 154.17 C 138.18 153.32 137.85 152.28 137.01 151.83 C 136.16 151.39 135.11 151.72 134.67 152.57 Z M 134.22 153.43 L 133.76 154.30 C 133.31 155.14 133.62 156.19 134.47 156.64 C 135.31 157.09 136.36 156.77 136.81 155.93 L 137.27 155.06 C 137.73 154.22 137.41 153.17 136.56 152.72 C 135.72 152.27 134.67 152.58 134.22 153.43 Z M 133.76 154.28 L 133.29 155.15 C 132.83 155.99 133.14 157.04 133.98 157.50 C 134.82 157.96 135.87 157.65 136.33 156.81 L 136.80 155.94 C 137.26 155.10 136.95 154.05 136.11 153.59 C 135.27 153.14 134.22 153.44 133.76 154.28 Z M 133.30 155.14 L 132.82 156.00 C 132.35 156.84 132.65 157.89 133.49 158.36 C 134.33 158.82 135.38 158.52 135.84 157.69 L 136.32 156.82 C 136.79 155.99 136.49 154.93 135.65 154.47 C 134.82 154.00 133.76 154.30 133.30 155.14 Z M 132.82 155.99 L 132.33 156.86 C 131.86 157.69 132.16 158.75 132.99 159.22 C 133.82 159.69 134.88 159.39 135.35 158.56 L 135.84 157.70 C 136.31 156.86 136.01 155.81 135.18 155.34 C 134.35 154.87 133.29 155.16 132.82 155.99 Z M 132.34 156.85 L 131.84 157.71 C 131.37 158.54 131.66 159.60 132.48 160.07 C 133.31 160.55 134.37 160.26 134.85 159.43 L 135.34 158.57 C 135.82 157.74 135.53 156.68 134.70 156.21 C 133.87 155.73 132.82 156.02 132.34 156.85 Z M 131.85 157.70 L 131.35 158.57 C 130.87 159.39 131.15 160.45 131.97 160.93 C 132.80 161.41 133.86 161.13 134.34 160.31 L 134.84 159.44 C 135.32 158.62 135.04 157.56 134.22 157.08 C 133.39 156.60 132.33 156.88 131.85 157.70 Z M 131.35 158.56 L 130.84 159.42 C 130.36 160.25 130.63 161.31 131.46 161.79 C 132.28 162.28 133.34 162.00 133.83 161.18 L 134.33 160.32 C 134.82 159.49 134.55 158.43 133.72 157.95 C 132.90 157.46 131.84 157.74 131.35 158.56 Z M 130.85 159.42 L 130.33 160.28 C 129.84 161.10 130.11 162.16 130.93 162.65 C 131.76 163.14 132.82 162.87 133.31 162.05 L 133.82 161.19 C 134.31 160.37 134.04 159.30 133.22 158.82 C 132.40 158.33 131.34 158.60 130.85 159.42 Z M 130.34 160.27 L 129.82 161.14 C 129.32 161.96 129.59 163.02 130.41 163.51 C 131.23 164.01 132.29 163.74 132.78 162.92 L 133.30 162.06 C 133.80 161.24 133.53 160.18 132.71 159.68 C 131.89 159.19 130.83 159.46 130.34 160.27 Z M 129.82 161.13 L 129.30 161.99 C 128.80 162.81 129.06 163.88 129.88 164.37 C 130.70 164.87 131.76 164.61 132.26 163.79 L 132.78 162.93 C 133.27 162.11 133.01 161.05 132.20 160.55 C 131.38 160.06 130.32 160.32 129.82 161.13 Z M 129.30 161.99 L 128.78 162.85 C 128.28 163.66 128.53 164.73 129.35 165.22 C 130.16 165.72 131.23 165.47 131.73 164.65 L 132.25 163.80 C 132.75 162.98 132.49 161.92 131.68 161.42 C 130.86 160.92 129.80 161.17 129.30 161.99 Z M 128.78 162.84 L 128.25 163.70 C 127.75 164.51 128.00 165.57 128.81 166.08 C 129.62 166.58 130.69 166.33 131.19 165.51 L 131.72 164.66 C 132.22 163.85 131.97 162.78 131.16 162.28 C 130.35 161.78 129.28 162.03 128.78 162.84 Z M 128.26 163.69 L 127.72 164.54 C 127.22 165.35 127.46 166.42 128.27 166.92 C 129.08 167.43 130.15 167.18 130.65 166.37 L 131.19 165.52 C 131.69 164.71 131.45 163.65 130.64 163.14 C 129.83 162.64 128.76 162.88 128.26 163.69 Z M 127.73 164.54 L 127.19 165.38 C 126.68 166.19 126.92 167.26 127.73 167.77 C 128.54 168.28 129.60 168.03 130.11 167.23 L 130.65 166.38 C 131.16 165.58 130.92 164.51 130.11 164.00 C 129.31 163.49 128.24 163.73 127.73 164.54 Z M 127.20 165.38 L 126.66 166.22 C 126.15 167.02 126.38 168.09 127.18 168.60 C 127.99 169.12 129.05 168.88 129.57 168.08 L 130.11 167.24 C 130.62 166.43 130.39 165.37 129.58 164.85 C 128.78 164.34 127.71 164.57 127.20 165.38 Z M 126.67 166.21 L 126.13 167.05 C 125.61 167.84 125.83 168.91 126.63 169.43 C 127.43 169.95 128.50 169.72 129.02 168.92 L 129.56 168.09 C 130.08 167.29 129.85 166.22 129.05 165.70 C 128.25 165.18 127.19 165.41 126.67 166.21 Z M 126.13 167.04 L 125.59 167.86 C 125.06 168.66 125.28 169.72 126.08 170.25 C 126.87 170.77 127.94 170.55 128.46 169.76 L 129.01 168.93 C 129.53 168.14 129.31 167.07 128.52 166.55 C 127.73 166.02 126.66 166.24 126.13 167.04 Z M 125.60 167.85 L 125.03 168.69 C 124.51 169.48 124.72 170.55 125.51 171.08 C 126.30 171.61 127.37 171.40 127.89 170.61 L 128.46 169.77 C 128.99 168.98 128.77 167.91 127.99 167.38 C 127.20 166.85 126.13 167.06 125.60 167.85 Z M 125.04 168.68 L 124.46 169.53 C 123.93 170.31 124.13 171.38 124.92 171.92 C 125.70 172.45 126.77 172.25 127.31 171.47 L 127.89 170.62 C 128.42 169.83 128.22 168.76 127.43 168.23 C 126.65 167.69 125.58 167.89 125.04 168.68 Z M 124.47 169.52 L 123.89 170.36 C 123.35 171.14 123.55 172.21 124.33 172.75 C 125.11 173.29 126.18 173.09 126.72 172.31 L 127.30 171.48 C 127.84 170.70 127.64 169.62 126.86 169.08 C 126.08 168.54 125.01 168.74 124.47 169.52 Z M 123.90 170.35 L 123.32 171.17 C 122.78 171.95 122.96 173.02 123.74 173.57 C 124.51 174.11 125.59 173.92 126.13 173.15 L 126.71 172.32 C 127.26 171.55 127.07 170.47 126.29 169.93 C 125.52 169.38 124.45 169.57 123.90 170.35 Z M 123.33 171.16 L 122.75 171.98 C 122.20 172.75 122.38 173.82 123.15 174.37 C 123.92 174.92 125.00 174.74 125.55 173.97 L 126.12 173.16 C 126.67 172.38 126.49 171.31 125.72 170.76 C 124.95 170.21 123.88 170.39 123.33 171.16 Z M 122.76 171.97 L 122.18 172.77 C 121.62 173.54 121.80 174.61 122.57 175.17 C 123.34 175.72 124.41 175.55 124.96 174.78 L 125.54 173.98 C 126.09 173.21 125.92 172.13 125.15 171.58 C 124.38 171.03 123.31 171.20 122.76 171.97 Z M 122.18 172.77 L 121.61 173.56 C 121.05 174.32 121.22 175.39 121.99 175.95 C 122.75 176.51 123.83 176.34 124.38 175.57 L 124.96 174.78 C 125.51 174.02 125.34 172.95 124.58 172.39 C 123.81 171.83 122.74 172.00 122.18 172.77 Z M 121.62 173.55 L 121.04 174.33 C 120.48 175.10 120.65 176.17 121.41 176.73 C 122.17 177.29 123.25 177.12 123.81 176.36 L 124.38 175.58 C 124.94 174.81 124.77 173.74 124.01 173.18 C 123.25 172.62 122.17 172.79 121.62 173.55 Z M 121.05 174.33 L 120.44 175.15 C 119.88 175.91 120.04 176.98 120.80 177.54 C 121.56 178.10 122.63 177.94 123.19 177.18 L 123.80 176.36 C 124.36 175.60 124.20 174.53 123.44 173.97 C 122.68 173.41 121.61 173.57 121.05 174.33 Z M 120.45 175.15 L 119.84 175.96 C 119.28 176.71 119.44 177.78 120.19 178.35 C 120.95 178.91 122.02 178.76 122.58 178.00 L 123.19 177.19 C 123.75 176.43 123.60 175.36 122.84 174.80 C 122.08 174.23 121.01 174.39 120.45 175.15 Z M 119.85 175.95 L 119.25 176.75 C 118.68 177.51 118.83 178.58 119.59 179.14 C 120.34 179.71 121.41 179.56 121.98 178.80 L 122.58 178.00 C 123.15 177.25 122.99 176.18 122.24 175.61 C 121.48 175.04 120.41 175.20 119.85 175.95 Z M 119.25 176.75 L 118.65 177.54 C 118.08 178.29 118.23 179.36 118.98 179.93 C 119.73 180.50 120.80 180.35 121.37 179.60 L 121.97 178.81 C 122.54 178.06 122.39 176.99 121.64 176.42 C 120.89 175.85 119.82 176.00 119.25 176.75 Z M 118.66 177.54 L 118.06 178.32 C 117.48 179.07 117.63 180.14 118.38 180.71 C 119.12 181.28 120.19 181.14 120.77 180.39 L 121.37 179.61 C 121.94 178.86 121.80 177.79 121.05 177.22 C 120.30 176.64 119.23 176.79 118.66 177.54 Z M 118.06 178.32 L 117.46 179.10 C 116.88 179.85 117.02 180.92 117.77 181.49 C 118.51 182.06 119.58 181.93 120.16 181.18 L 120.76 180.40 C 121.33 179.65 121.20 178.58 120.45 178.01 C 119.71 177.43 118.64 177.57 118.06 178.32 Z M 117.46 179.10 L 116.85 179.88 C 116.27 180.63 116.41 181.69 117.15 182.27 C 117.89 182.85 118.96 182.72 119.54 181.97 L 120.15 181.19 C 120.73 180.44 120.59 179.37 119.85 178.80 C 119.11 178.22 118.04 178.35 117.46 179.10 Z M 116.86 179.88 L 116.21 180.71 C 115.63 181.45 115.75 182.52 116.49 183.10 C 117.23 183.68 118.30 183.55 118.88 182.81 L 119.53 181.98 C 120.11 181.24 119.98 180.17 119.24 179.59 C 118.51 179.01 117.44 179.14 116.86 179.88 Z M 116.21 180.70 L 115.56 181.52 C 114.98 182.26 115.10 183.33 115.84 183.91 C 116.57 184.49 117.64 184.37 118.22 183.63 L 118.87 182.81 C 119.46 182.08 119.33 181.01 118.60 180.43 C 117.86 179.84 116.80 179.97 116.21 180.70 Z M 115.57 181.52 L 114.92 182.32 C 114.34 183.05 114.45 184.12 115.19 184.71 C 115.92 185.29 116.98 185.18 117.57 184.45 L 118.22 183.64 C 118.80 182.91 118.68 181.84 117.95 181.26 C 117.22 180.67 116.15 180.79 115.57 181.52 Z M 114.93 182.32 L 114.30 183.10 C 113.71 183.83 113.82 184.89 114.55 185.48 C 115.27 186.07 116.34 185.96 116.93 185.23 L 117.56 184.45 C 118.15 183.73 118.04 182.66 117.31 182.07 C 116.59 181.48 115.52 181.59 114.93 182.32 Z M 114.31 183.09 L 113.69 183.84 C 113.10 184.56 113.20 185.63 113.92 186.22 C 114.64 186.82 115.71 186.71 116.30 185.99 L 116.92 185.24 C 117.51 184.52 117.41 183.45 116.69 182.86 C 115.96 182.27 114.90 182.37 114.31 183.09 Z M 113.70 183.83 L 113.10 184.54 C 112.51 185.26 112.60 186.33 113.32 186.93 C 114.04 187.52 115.10 187.43 115.70 186.71 L 116.29 186.00 C 116.89 185.28 116.80 184.22 116.08 183.62 C 115.36 183.02 114.30 183.12 113.70 183.83 Z M 113.12 184.53 L 112.44 185.33 C 111.83 186.04 111.92 187.11 112.63 187.71 C 113.34 188.32 114.40 188.23 115.01 187.52 L 115.69 186.72 C 116.29 186.01 116.21 184.95 115.50 184.34 C 114.79 183.74 113.72 183.82 113.12 184.53 Z M 112.45 185.32 L 111.74 186.14 C 111.13 186.84 111.20 187.90 111.90 188.51 C 112.60 189.13 113.66 189.05 114.27 188.35 L 114.99 187.53 C 115.60 186.83 115.53 185.77 114.83 185.16 C 114.13 184.55 113.06 184.62 112.45 185.32 Z M 111.76 186.13 L 111.08 186.88 C 110.47 187.57 110.53 188.63 111.22 189.25 C 111.91 189.86 112.97 189.81 113.58 189.12 L 114.26 188.36 C 114.87 187.67 114.81 186.61 114.12 186.00 C 113.43 185.38 112.37 185.44 111.76 186.13 Z M 111.10 186.87 L 110.47 187.57 C 109.84 188.25 109.89 189.30 110.57 189.93 C 111.25 190.55 112.31 190.50 112.93 189.82 L 113.57 189.12 C 114.19 188.44 114.14 187.39 113.46 186.76 C 112.78 186.14 111.72 186.19 111.10 186.87 Z M 110.48 187.56 L 109.87 188.22 C 109.24 188.89 109.28 189.94 109.96 190.57 C 110.63 191.19 111.69 191.16 112.31 190.48 L 112.92 189.83 C 113.55 189.15 113.51 188.10 112.83 187.47 C 112.16 186.85 111.10 186.89 110.48 187.56 Z M 109.88 188.21 L 109.24 188.90 C 108.61 189.56 108.65 190.61 109.31 191.24 C 109.98 191.87 111.03 191.83 111.66 191.17 L 112.30 190.48 C 112.93 189.82 112.89 188.77 112.23 188.14 C 111.56 187.51 110.51 187.54 109.88 188.21 Z M 109.26 188.89 L 108.60 189.58 C 107.97 190.23 107.99 191.28 108.65 191.91 C 109.31 192.54 110.36 192.52 110.99 191.86 L 111.64 191.17 C 112.27 190.51 112.25 189.47 111.59 188.84 C 110.93 188.21 109.89 188.23 109.26 188.89 Z M 108.62 189.56 L 107.94 190.26 C 107.30 190.90 107.30 191.94 107.95 192.58 C 108.59 193.22 109.64 193.22 110.27 192.57 L 110.96 191.87 C 111.60 191.23 111.60 190.19 110.95 189.55 C 110.30 188.91 109.26 188.92 108.62 189.56 Z M 107.96 190.24 L 107.21 190.97 C 106.57 191.60 106.55 192.63 107.18 193.28 C 107.81 193.93 108.85 193.95 109.49 193.32 L 110.24 192.59 C 110.89 191.96 110.91 190.92 110.28 190.27 C 109.65 189.63 108.61 189.61 107.96 190.24 Z M 107.24 190.95 L 106.49 191.65 C 105.83 192.26 105.80 193.29 106.41 193.95 C 107.02 194.61 108.05 194.65 108.71 194.03 L 109.46 193.34 C 110.12 192.72 110.16 191.69 109.55 191.03 C 108.94 190.37 107.90 190.34 107.24 190.95 Z M 106.52 191.63 L 105.80 192.27 C 105.13 192.87 105.07 193.90 105.67 194.56 C 106.27 195.23 107.29 195.29 107.96 194.69 L 108.68 194.05 C 109.35 193.45 109.41 192.43 108.82 191.76 C 108.22 191.09 107.19 191.03 106.52 191.63 Z M 105.84 192.25 L 105.07 192.91 C 104.39 193.48 104.30 194.50 104.88 195.18 C 105.46 195.86 106.48 195.95 107.16 195.37 L 107.93 194.71 C 108.61 194.14 108.69 193.12 108.11 192.44 C 107.54 191.76 106.52 191.67 105.84 192.25 Z M 105.11 192.88 L 104.30 193.52 C 103.61 194.08 103.50 195.09 104.06 195.79 C 104.61 196.48 105.63 196.59 106.32 196.04 L 107.12 195.39 C 107.82 194.84 107.93 193.82 107.37 193.13 C 106.81 192.44 105.80 192.32 105.11 192.88 Z M 104.35 193.49 L 103.53 194.11 C 102.82 194.64 102.67 195.64 103.20 196.35 C 103.73 197.06 104.74 197.21 105.45 196.68 L 106.27 196.07 C 106.98 195.54 107.13 194.53 106.60 193.82 C 106.07 193.11 105.06 192.97 104.35 193.49 Z M 103.59 194.07 L 102.76 194.63 C 102.03 195.13 101.84 196.12 102.33 196.85 C 102.83 197.58 103.82 197.77 104.55 197.28 L 105.38 196.72 C 106.11 196.22 106.31 195.23 105.81 194.50 C 105.32 193.77 104.32 193.58 103.59 194.07 Z M 102.85 194.59 L 101.88 195.17 C 101.13 195.61 100.88 196.58 101.33 197.34 C 101.77 198.09 102.75 198.34 103.50 197.89 L 104.46 197.32 C 105.22 196.87 105.47 195.90 105.02 195.15 C 104.57 194.40 103.60 194.15 102.85 194.59 Z M 101.98 195.13 L 101.04 195.61 C 100.26 196.00 99.95 196.94 100.34 197.72 C 100.73 198.49 101.68 198.80 102.45 198.41 L 103.40 197.93 C 104.17 197.54 104.48 196.59 104.09 195.82 C 103.70 195.05 102.76 194.74 101.98 195.13 Z M 101.14 195.58 L 100.22 195.97 C 99.43 196.30 99.07 197.21 99.40 198.00 C 99.73 198.79 100.64 199.16 101.43 198.82 L 102.35 198.44 C 103.14 198.10 103.51 197.19 103.17 196.40 C 102.84 195.61 101.93 195.25 101.14 195.58 Z M 100.33 195.95 L 99.46 196.25 C 98.65 196.52 98.23 197.40 98.51 198.20 C 98.78 199.00 99.65 199.42 100.45 199.15 L 101.33 198.85 C 102.13 198.57 102.55 197.70 102.28 196.90 C 102.00 196.10 101.13 195.67 100.33 195.95 Z M 99.58 196.23 L 98.67 196.46 C 97.86 196.67 97.37 197.50 97.58 198.31 C 97.79 199.12 98.61 199.61 99.42 199.40 L 100.33 199.16 C 101.14 198.96 101.63 198.13 101.42 197.32 C 101.21 196.51 100.39 196.02 99.58 196.23 Z M 98.89 196.44 L 97.86 196.55 C 97.04 196.63 96.44 197.37 96.53 198.19 C 96.61 199.01 97.35 199.61 98.17 199.53 L 99.20 199.42 C 100.02 199.34 100.62 198.60 100.54 197.78 C 100.45 196.96 99.71 196.36 98.89 196.44 Z M 98.35 196.60 L 97.46 196.39 C 96.66 196.21 95.87 196.71 95.68 197.50 C 95.50 198.30 96.00 199.09 96.79 199.27 L 97.69 199.48 C 98.48 199.66 99.27 199.17 99.46 198.37 C 99.64 197.57 99.14 196.78 98.35 196.60 Z M 98.06 196.71 L 97.31 196.08 C 96.69 195.57 95.77 195.65 95.25 196.27 C 94.74 196.89 94.82 197.81 95.44 198.32 L 96.19 198.95 C 96.81 199.47 97.73 199.39 98.24 198.77 C 98.76 198.15 98.68 197.23 98.06 196.71 Z M 97.61 196.45 L 97.20 195.78 C 96.78 195.10 95.89 194.89 95.21 195.30 C 94.53 195.72 94.31 196.61 94.73 197.29 L 95.14 197.96 C 95.56 198.64 96.45 198.86 97.13 198.44 C 97.81 198.02 98.02 197.13 97.61 196.45 Z M 97.29 195.97 L 96.94 195.14 C 96.62 194.41 95.78 194.07 95.04 194.38 C 94.31 194.69 93.97 195.54 94.28 196.27 L 94.64 197.10 C 94.95 197.84 95.80 198.18 96.53 197.86 C 97.26 197.55 97.60 196.70 97.29 195.97 Z M 96.98 195.26 L 96.66 194.29 C 96.41 193.54 95.59 193.13 94.84 193.38 C 94.09 193.63 93.68 194.44 93.93 195.19 L 94.24 196.16 C 94.49 196.91 95.31 197.32 96.06 197.07 C 96.82 196.82 97.23 196.01 96.98 195.26 Z M 96.67 194.36 L 96.38 193.30 C 96.17 192.54 95.38 192.09 94.61 192.30 C 93.85 192.52 93.40 193.31 93.62 194.07 L 93.91 195.13 C 94.12 195.89 94.91 196.34 95.68 196.13 C 96.44 195.91 96.89 195.12 96.67 194.36 Z M 96.39 193.34 L 96.11 192.23 C 95.91 191.46 95.14 191.00 94.37 191.19 C 93.60 191.38 93.14 192.16 93.33 192.93 L 93.61 194.04 C 93.80 194.80 94.58 195.27 95.35 195.07 C 96.11 194.88 96.58 194.10 96.39 193.34 Z M 96.11 192.24 L 96.02 191.87 C 95.83 191.11 95.06 190.64 94.29 190.83 C 93.53 191.01 93.06 191.79 93.24 192.55 L 93.33 192.92 C 93.52 193.68 94.29 194.15 95.06 193.96 C 95.82 193.78 96.29 193.00 96.11 192.24 Z"
      fill="black"
      fill-rule="nonzero" /><path d="M 151.30 119.48 L 151.06 120.45 C 150.86 121.30 151.38 122.16 152.23 122.36 C 153.08 122.57 153.93 122.05 154.14 121.20 L 154.37 120.22 C 154.58 119.37 154.06 118.52 153.21 118.31 C 152.36 118.11 151.51 118.63 151.30 119.48 Z M 151.02 120.45 L 150.79 121.42 C 150.58 122.30 151.11 123.17 151.98 123.38 C 152.86 123.59 153.74 123.06 153.95 122.18 L 154.18 121.21 C 154.39 120.34 153.85 119.46 152.98 119.25 C 152.11 119.04 151.23 119.57 151.02 120.45 Z M 150.74 121.42 L 150.51 122.39 C 150.30 123.29 150.85 124.19 151.75 124.40 C 152.65 124.62 153.55 124.06 153.76 123.16 L 153.99 122.19 C 154.20 121.29 153.65 120.39 152.75 120.18 C 151.85 119.97 150.95 120.52 150.74 121.42 Z M 150.47 122.39 L 150.24 123.36 C 150.03 124.29 150.60 125.21 151.52 125.42 C 152.45 125.63 153.37 125.06 153.58 124.14 L 153.80 123.17 C 154.02 122.24 153.44 121.32 152.52 121.11 C 151.60 120.90 150.68 121.47 150.47 122.39 Z M 150.19 123.37 L 149.98 124.33 C 149.77 125.28 150.36 126.22 151.31 126.43 C 152.26 126.64 153.20 126.05 153.41 125.10 L 153.63 124.13 C 153.84 123.19 153.24 122.25 152.29 122.03 C 151.35 121.82 150.41 122.42 150.19 123.37 Z M 149.95 124.34 L 149.75 125.28 C 149.54 126.24 150.16 127.19 151.12 127.40 C 152.08 127.60 153.03 126.99 153.23 126.03 L 153.44 125.09 C 153.64 124.13 153.03 123.18 152.07 122.98 C 151.11 122.77 150.16 123.38 149.95 124.34 Z M 149.74 125.29 L 149.55 126.24 C 149.35 127.20 149.97 128.15 150.94 128.35 C 151.90 128.55 152.85 127.92 153.04 126.96 L 153.24 126.02 C 153.44 125.05 152.82 124.11 151.85 123.91 C 150.89 123.71 149.94 124.33 149.74 125.29 Z M 149.54 126.25 L 149.35 127.21 C 149.16 128.18 149.79 129.12 150.75 129.32 C 151.72 129.51 152.66 128.88 152.86 127.91 L 153.05 126.95 C 153.24 125.98 152.62 125.04 151.65 124.85 C 150.68 124.65 149.74 125.28 149.54 126.25 Z M 149.35 127.22 L 149.15 128.22 C 148.96 129.19 149.60 130.13 150.57 130.32 C 151.54 130.51 152.48 129.87 152.67 128.90 L 152.86 127.91 C 153.05 126.94 152.42 126.00 151.45 125.81 C 150.48 125.62 149.54 126.25 149.35 127.22 Z M 149.15 128.22 L 148.95 129.27 C 148.76 130.24 149.40 131.18 150.37 131.36 C 151.34 131.55 152.28 130.91 152.47 129.94 L 152.67 128.90 C 152.86 127.93 152.22 126.99 151.25 126.80 C 150.27 126.61 149.34 127.25 149.15 128.22 Z M 148.95 129.27 L 148.76 130.26 C 148.57 131.24 149.21 132.18 150.19 132.36 C 151.16 132.55 152.10 131.91 152.28 130.94 L 152.47 129.94 C 152.66 128.97 152.02 128.03 151.05 127.84 C 150.07 127.66 149.13 128.30 148.95 129.27 Z M 148.75 130.27 L 148.56 131.27 C 148.38 132.25 149.02 133.19 150.00 133.37 C 150.97 133.56 151.91 132.92 152.10 131.94 L 152.29 130.93 C 152.47 129.96 151.83 129.02 150.85 128.83 C 149.88 128.65 148.94 129.29 148.75 130.27 Z M 148.56 131.28 L 148.37 132.29 C 148.19 133.27 148.83 134.21 149.81 134.39 C 150.78 134.58 151.72 133.93 151.91 132.96 L 152.10 131.94 C 152.28 130.96 151.64 130.02 150.66 129.84 C 149.69 129.66 148.75 130.30 148.56 131.28 Z M 148.37 132.29 L 148.18 133.30 C 148.00 134.27 148.65 135.22 149.62 135.40 C 150.60 135.58 151.54 134.93 151.72 133.96 L 151.91 132.95 C 152.09 131.98 151.45 131.04 150.47 130.85 C 149.49 130.67 148.55 131.32 148.37 132.29 Z M 148.18 133.30 L 148.00 134.27 C 147.82 135.25 148.47 136.19 149.45 136.37 C 150.43 136.55 151.37 135.90 151.55 134.92 L 151.72 133.95 C 151.91 132.98 151.26 132.04 150.28 131.85 C 149.30 131.67 148.36 132.32 148.18 133.30 Z M 148.00 134.27 L 147.83 135.21 C 147.65 136.19 148.30 137.13 149.28 137.31 C 150.26 137.48 151.20 136.84 151.38 135.85 L 151.55 134.92 C 151.73 133.94 151.08 133.00 150.10 132.82 C 149.12 132.64 148.18 133.29 148.00 134.27 Z M 147.83 135.21 L 147.63 136.31 C 147.45 137.29 148.10 138.23 149.09 138.41 C 150.07 138.58 151.01 137.93 151.18 136.95 L 151.38 135.85 C 151.56 134.87 150.90 133.93 149.92 133.75 C 148.94 133.58 148.00 134.23 147.83 135.21 Z M 147.63 136.31 L 147.45 137.32 C 147.28 138.30 147.93 139.24 148.92 139.41 C 149.90 139.58 150.84 138.93 151.01 137.94 L 151.18 136.94 C 151.36 135.96 150.70 135.02 149.72 134.85 C 148.74 134.68 147.80 135.33 147.63 136.31 Z M 147.45 137.32 L 147.28 138.26 C 147.12 139.25 147.78 140.18 148.76 140.35 C 149.74 140.52 150.68 139.86 150.85 138.88 L 151.01 137.94 C 151.18 136.95 150.52 136.02 149.54 135.85 C 148.55 135.68 147.62 136.34 147.45 137.32 Z M 147.28 138.27 L 147.13 139.18 C 146.96 140.16 147.63 141.10 148.61 141.26 C 149.60 141.43 150.53 140.77 150.70 139.78 L 150.85 138.87 C 151.02 137.88 150.35 136.95 149.37 136.78 C 148.38 136.62 147.45 137.28 147.28 138.27 Z M 147.13 139.18 L 146.97 140.13 C 146.81 141.11 147.47 142.05 148.46 142.21 C 149.45 142.38 150.38 141.71 150.54 140.72 L 150.70 139.78 C 150.86 138.79 150.20 137.86 149.21 137.69 C 148.22 137.53 147.29 138.20 147.13 139.18 Z M 146.97 140.13 L 146.81 141.11 C 146.65 142.09 147.32 143.03 148.30 143.19 C 149.29 143.35 150.22 142.68 150.39 141.69 L 150.54 140.72 C 150.71 139.73 150.04 138.80 149.05 138.64 C 148.06 138.47 147.13 139.14 146.97 140.13 Z M 146.81 141.11 L 146.65 142.10 C 146.49 143.09 147.16 144.02 148.15 144.18 C 149.14 144.34 150.07 143.67 150.23 142.68 L 150.39 141.69 C 150.55 140.70 149.87 139.77 148.88 139.61 C 147.90 139.45 146.97 140.12 146.81 141.11 Z M 146.65 142.10 L 146.49 143.11 C 146.33 144.10 147.00 145.03 147.99 145.19 C 148.98 145.34 149.91 144.67 150.07 143.68 L 150.23 142.67 C 150.39 141.68 149.71 140.75 148.72 140.60 C 147.73 140.44 146.80 141.11 146.65 142.10 Z M 146.48 143.11 L 146.33 144.09 C 146.18 145.08 146.85 146.01 147.85 146.16 C 148.84 146.32 149.77 145.64 149.92 144.65 L 150.07 143.67 C 150.23 142.68 149.55 141.75 148.56 141.60 C 147.57 141.44 146.64 142.12 146.48 143.11 Z M 146.33 144.09 L 146.18 145.05 C 146.03 146.05 146.71 146.97 147.70 147.13 C 148.69 147.28 149.62 146.60 149.77 145.61 L 149.92 144.65 C 150.07 143.66 149.39 142.73 148.40 142.58 C 147.41 142.42 146.48 143.10 146.33 144.09 Z M 146.18 145.06 L 146.03 146.04 C 145.88 147.03 146.56 147.96 147.55 148.11 C 148.54 148.26 149.47 147.58 149.62 146.59 L 149.77 145.61 C 149.93 144.62 149.24 143.69 148.25 143.54 C 147.26 143.38 146.33 144.06 146.18 145.06 Z M 146.03 146.04 L 145.88 147.04 C 145.72 148.03 146.40 148.96 147.40 149.11 C 148.39 149.27 149.32 148.59 149.47 147.59 L 149.62 146.59 C 149.78 145.60 149.09 144.67 148.10 144.52 C 147.11 144.36 146.18 145.04 146.03 146.04 Z M 145.88 147.04 L 145.72 148.07 C 145.56 149.06 146.24 149.99 147.24 150.14 C 148.23 150.29 149.16 149.61 149.31 148.62 L 149.47 147.59 C 149.62 146.60 148.94 145.67 147.95 145.52 C 146.96 145.37 146.03 146.05 145.88 147.04 Z M 145.72 148.07 L 145.57 149.04 C 145.41 150.03 146.09 150.96 147.08 151.12 C 148.08 151.27 149.00 150.59 149.16 149.60 L 149.31 148.62 C 149.46 147.63 148.78 146.70 147.79 146.55 C 146.80 146.39 145.87 147.07 145.72 148.07 Z M 145.56 149.04 L 145.41 150.03 C 145.26 151.03 145.94 151.96 146.93 152.11 C 147.92 152.26 148.85 151.58 149.01 150.59 L 149.16 149.60 C 149.31 148.61 148.63 147.68 147.64 147.52 C 146.65 147.37 145.72 148.05 145.56 149.04 Z M 145.41 150.04 L 145.26 151.04 C 145.11 152.03 145.79 152.96 146.78 153.11 C 147.78 153.26 148.70 152.58 148.85 151.58 L 149.01 150.59 C 149.16 149.59 148.47 148.67 147.48 148.51 C 146.49 148.36 145.56 149.05 145.41 150.04 Z M 145.26 151.05 L 145.11 152.04 C 144.96 153.03 145.65 153.96 146.64 154.11 C 147.64 154.25 148.56 153.57 148.71 152.57 L 148.86 151.58 C 149.00 150.58 148.32 149.66 147.32 149.51 C 146.33 149.37 145.40 150.05 145.26 151.05 Z M 145.11 152.05 L 144.97 153.04 C 144.83 154.04 145.52 154.96 146.52 155.10 C 147.51 155.24 148.43 154.55 148.57 153.55 L 148.71 152.56 C 148.85 151.57 148.16 150.65 147.16 150.51 C 146.17 150.36 145.25 151.06 145.11 152.05 Z M 144.97 153.06 L 144.83 154.06 C 144.70 155.06 145.40 155.97 146.40 156.11 C 147.39 156.24 148.31 155.54 148.44 154.54 L 148.57 153.54 C 148.71 152.54 148.01 151.63 147.01 151.49 C 146.01 151.36 145.10 152.06 144.97 153.06 Z M 144.83 154.07 L 144.71 155.07 C 144.58 156.06 145.29 156.97 146.28 157.10 C 147.28 157.22 148.19 156.52 148.32 155.52 L 148.44 154.53 C 148.57 153.53 147.86 152.62 146.86 152.50 C 145.87 152.37 144.96 153.08 144.83 154.07 Z M 144.70 155.08 L 144.59 156.06 C 144.47 157.06 145.18 157.96 146.17 158.08 C 147.17 158.20 148.08 157.49 148.20 156.50 L 148.32 155.51 C 148.44 154.51 147.73 153.61 146.73 153.49 C 145.73 153.37 144.82 154.08 144.70 155.08 Z M 144.59 156.07 L 144.47 157.05 C 144.35 158.05 145.07 158.95 146.07 159.07 C 147.07 159.19 147.97 158.47 148.08 157.47 L 148.20 156.49 C 148.32 155.49 147.60 154.59 146.60 154.47 C 145.60 154.35 144.70 155.07 144.59 156.07 Z M 144.47 157.06 L 144.36 158.04 C 144.24 159.03 144.96 159.94 145.96 160.05 C 146.96 160.16 147.86 159.45 147.97 158.45 L 148.09 157.47 C 148.20 156.47 147.48 155.57 146.48 155.45 C 145.49 155.34 144.58 156.06 144.47 157.06 Z M 144.36 158.04 L 144.25 159.02 C 144.14 160.02 144.86 160.92 145.85 161.03 C 146.85 161.14 147.75 160.42 147.87 159.42 L 147.97 158.44 C 148.09 157.44 147.37 156.54 146.37 156.43 C 145.37 156.32 144.47 157.04 144.36 158.04 Z M 144.25 159.03 L 144.14 160.02 C 144.04 161.02 144.76 161.91 145.76 162.02 C 146.76 162.13 147.65 161.40 147.76 160.40 L 147.87 159.41 C 147.97 158.41 147.25 157.52 146.25 157.41 C 145.25 157.30 144.35 158.03 144.25 159.03 Z M 144.14 160.03 L 144.04 161.03 C 143.94 162.03 144.67 162.92 145.67 163.02 C 146.67 163.12 147.56 162.39 147.66 161.39 L 147.76 160.39 C 147.86 159.39 147.13 158.50 146.13 158.40 C 145.13 158.30 144.24 159.03 144.14 160.03 Z M 144.04 161.05 L 143.95 162.06 C 143.86 163.07 144.60 163.95 145.60 164.04 C 146.60 164.13 147.48 163.39 147.57 162.39 L 147.66 161.38 C 147.75 160.37 147.02 159.49 146.01 159.40 C 145.01 159.31 144.13 160.05 144.04 161.05 Z M 143.95 162.08 L 143.87 163.08 C 143.79 164.09 144.54 164.96 145.54 165.04 C 146.54 165.12 147.42 164.37 147.50 163.37 L 147.58 162.37 C 147.65 161.37 146.91 160.49 145.90 160.41 C 144.90 160.33 144.03 161.08 143.95 162.08 Z M 143.87 163.10 L 143.80 164.10 C 143.73 165.11 144.49 165.97 145.49 166.04 C 146.49 166.11 147.36 165.35 147.43 164.35 L 147.50 163.35 C 147.57 162.35 146.81 161.48 145.81 161.41 C 144.80 161.34 143.93 162.10 143.87 163.10 Z M 143.80 164.12 L 143.74 165.12 C 143.68 166.13 144.45 166.99 145.45 167.05 C 146.45 167.10 147.31 166.34 147.37 165.34 L 147.43 164.33 C 147.49 163.33 146.72 162.47 145.72 162.41 C 144.72 162.35 143.86 163.12 143.80 164.12 Z M 143.74 165.14 L 143.69 166.14 C 143.64 167.14 144.41 168.00 145.41 168.05 C 146.42 168.10 147.27 167.33 147.32 166.32 L 147.37 165.32 C 147.42 164.32 146.65 163.46 145.65 163.41 C 144.64 163.36 143.79 164.13 143.74 165.14 Z M 143.69 166.15 L 143.64 167.14 C 143.60 168.15 144.38 169.00 145.38 169.04 C 146.38 169.09 147.23 168.31 147.28 167.31 L 147.32 166.31 C 147.37 165.31 146.59 164.46 145.59 164.41 C 144.58 164.37 143.73 165.15 143.69 166.15 Z M 143.64 167.15 L 143.60 168.16 C 143.56 169.17 144.35 170.01 145.35 170.05 C 146.35 170.09 147.20 169.31 147.24 168.31 L 147.28 167.30 C 147.32 166.29 146.54 165.45 145.53 165.41 C 144.53 165.37 143.68 166.15 143.64 167.15 Z M 143.60 168.17 L 143.57 169.18 C 143.54 170.18 144.32 171.02 145.33 171.06 C 146.33 171.09 147.17 170.31 147.21 169.30 L 147.24 168.30 C 147.27 167.29 146.49 166.45 145.48 166.42 C 144.48 166.38 143.64 167.17 143.60 168.17 Z M 143.57 169.19 L 143.54 170.19 C 143.51 171.19 144.30 172.03 145.31 172.06 C 146.31 172.08 147.15 171.29 147.18 170.29 L 147.21 169.29 C 147.23 168.29 146.44 167.45 145.44 167.42 C 144.43 167.39 143.60 168.18 143.57 169.19 Z M 143.54 170.20 L 143.52 171.19 C 143.50 172.19 144.29 173.03 145.30 173.05 C 146.30 173.07 147.13 172.28 147.15 171.27 L 147.18 170.28 C 147.20 169.27 146.40 168.44 145.40 168.42 C 144.40 168.40 143.56 169.19 143.54 170.20 Z M 143.52 171.20 L 143.50 172.19 C 143.49 173.20 144.29 174.02 145.29 174.04 C 146.29 174.06 147.12 173.26 147.14 172.25 L 147.15 171.26 C 147.17 170.26 146.37 169.43 145.37 169.41 C 144.36 169.40 143.54 170.20 143.52 171.20 Z M 143.50 172.20 L 143.49 173.20 C 143.48 174.20 144.28 175.02 145.29 175.03 C 146.29 175.05 147.11 174.24 147.13 173.24 L 147.14 172.24 C 147.15 171.24 146.34 170.42 145.34 170.40 C 144.34 170.39 143.51 171.20 143.50 172.20 Z M 143.49 173.21 L 143.49 174.20 C 143.48 175.21 144.29 176.02 145.29 176.03 C 146.29 176.04 147.11 175.23 147.12 174.23 L 147.13 173.23 C 147.13 172.23 146.32 171.41 145.32 171.40 C 144.32 171.39 143.50 172.20 143.49 173.21 Z M 143.49 174.21 L 143.48 175.21 C 143.48 176.21 144.29 177.03 145.29 177.03 C 146.30 177.03 147.11 176.22 147.12 175.22 L 147.12 174.22 C 147.12 173.22 146.31 172.40 145.31 172.40 C 144.31 172.39 143.49 173.21 143.49 174.21 Z M 143.48 175.21 L 143.48 176.21 C 143.48 177.22 144.29 178.03 145.30 178.03 C 146.30 178.03 147.11 177.22 147.11 176.22 L 147.11 175.22 C 147.12 174.21 146.30 173.40 145.30 173.40 C 144.30 173.40 143.48 174.21 143.48 175.21 Z M 143.48 176.22 L 143.48 177.23 C 143.48 178.23 144.30 179.04 145.30 179.04 C 146.30 179.04 147.11 178.23 147.11 177.23 L 147.11 176.22 C 147.11 175.21 146.30 174.40 145.30 174.40 C 144.30 174.40 143.48 175.21 143.48 176.22 Z M 143.48 177.23 L 143.48 178.27 C 143.48 179.27 144.30 180.08 145.30 180.08 C 146.30 180.08 147.11 179.27 147.11 178.27 L 147.11 177.23 C 147.11 176.23 146.30 175.42 145.30 175.42 C 144.30 175.42 143.48 176.23 143.48 177.23 Z M 143.48 178.27 L 143.48 179.29 C 143.48 180.30 144.30 181.11 145.30 181.11 C 146.30 181.11 147.11 180.30 147.11 179.29 L 147.11 178.27 C 147.11 177.27 146.30 176.45 145.30 176.45 C 144.30 176.45 143.48 177.27 143.48 178.27 Z M 143.49 179.29 L 143.49 180.30 C 143.49 181.30 144.30 182.11 145.30 182.11 C 146.30 182.11 147.11 181.30 147.11 180.30 L 147.11 179.29 C 147.11 178.29 146.30 177.48 145.30 177.48 C 144.30 177.48 143.49 178.29 143.49 179.29 Z M 143.49 180.30 L 143.49 181.26 C 143.49 182.26 144.30 183.07 145.30 183.07 C 146.30 183.07 147.11 182.26 147.11 181.26 L 147.11 180.30 C 147.11 179.29 146.30 178.48 145.30 178.48 C 144.30 178.48 143.49 179.29 143.49 180.30 Z M 143.49 181.26 L 143.49 182.28 C 143.49 183.28 144.30 184.09 145.30 184.09 C 146.30 184.09 147.11 183.28 147.11 182.28 L 147.11 181.26 C 147.11 180.26 146.30 179.44 145.30 179.44 C 144.30 179.44 143.49 180.26 143.49 181.26 Z M 143.49 182.28 L 143.49 183.32 C 143.49 184.32 144.30 185.13 145.30 185.13 C 146.30 185.13 147.11 184.32 147.11 183.32 L 147.11 182.28 C 147.11 181.28 146.30 180.47 145.30 180.47 C 144.30 180.47 143.49 181.28 143.49 182.28 Z M 143.49 183.32 L 143.49 184.30 C 143.49 185.30 144.30 186.11 145.30 186.11 C 146.30 186.11 147.11 185.30 147.11 184.30 L 147.11 183.32 C 147.11 182.32 146.30 181.51 145.30 181.51 C 144.30 181.51 143.49 182.32 143.49 183.32 Z M 143.49 184.30 L 143.49 185.24 C 143.49 186.24 144.30 187.05 145.30 187.05 C 146.30 187.05 147.11 186.24 147.11 185.24 L 147.11 184.30 C 147.11 183.30 146.30 182.49 145.30 182.49 C 144.30 182.49 143.49 183.30 143.49 184.30 Z M 143.49 185.24 L 143.49 186.17 C 143.49 187.17 144.30 187.98 145.30 187.98 C 146.30 187.98 147.11 187.17 147.11 186.17 L 147.11 185.24 C 147.11 184.24 146.29 183.43 145.30 183.43 C 144.30 183.43 143.49 184.24 143.49 185.24 Z M 143.49 186.20 L 143.51 187.15 C 143.52 188.15 144.34 188.94 145.34 188.93 C 146.34 188.91 147.14 188.09 147.12 187.09 L 147.11 186.14 C 147.09 185.14 146.27 184.35 145.27 184.36 C 144.27 184.38 143.48 185.20 143.49 186.20 Z M 143.51 187.20 L 143.55 188.21 C 143.59 189.20 144.44 189.98 145.43 189.94 C 146.43 189.89 147.21 189.05 147.16 188.05 L 147.12 187.04 C 147.08 186.05 146.23 185.27 145.24 185.32 C 144.24 185.36 143.46 186.20 143.51 187.20 Z M 143.56 188.27 L 143.64 189.34 C 143.72 190.33 144.59 191.08 145.58 191.00 C 146.58 190.92 147.32 190.05 147.24 189.06 L 147.16 187.99 C 147.08 186.99 146.21 186.25 145.21 186.33 C 144.22 186.41 143.48 187.28 143.56 188.27 Z M 143.65 189.40 L 143.74 190.29 C 143.85 191.28 144.75 192.00 145.74 191.89 C 146.73 191.78 147.45 190.88 147.34 189.89 L 147.24 189.00 C 147.13 188.01 146.23 187.29 145.24 187.40 C 144.25 187.51 143.54 188.41 143.65 189.40 Z M 143.75 190.33 L 143.88 191.28 C 144.01 192.27 144.92 192.97 145.91 192.83 C 146.89 192.70 147.59 191.79 147.46 190.81 L 147.33 189.85 C 147.20 188.86 146.29 188.17 145.30 188.30 C 144.31 188.43 143.62 189.34 143.75 190.33 Z M 143.88 191.31 L 144.03 192.32 C 144.18 193.31 145.10 193.98 146.09 193.84 C 147.08 193.69 147.75 192.77 147.60 191.78 L 147.45 190.77 C 147.30 189.79 146.38 189.11 145.40 189.26 C 144.41 189.41 143.73 190.33 143.88 191.31 Z M 144.04 192.35 L 144.21 193.39 C 144.38 194.38 145.31 195.04 146.29 194.88 C 147.27 194.71 147.94 193.78 147.77 192.80 L 147.60 191.75 C 147.44 190.77 146.51 190.11 145.52 190.27 C 144.54 190.43 143.88 191.36 144.04 192.35 Z M 144.22 193.41 L 144.41 194.48 C 144.58 195.46 145.52 196.11 146.50 195.94 C 147.48 195.76 148.13 194.82 147.96 193.84 L 147.77 192.78 C 147.59 191.80 146.66 191.15 145.68 191.32 C 144.70 191.50 144.04 192.43 144.22 193.41 Z M 144.41 194.50 L 144.60 195.48 C 144.78 196.46 145.73 197.10 146.71 196.92 C 147.68 196.73 148.33 195.79 148.14 194.81 L 147.96 193.82 C 147.77 192.85 146.83 192.20 145.85 192.39 C 144.87 192.57 144.23 193.52 144.41 194.50 Z M 144.60 195.50 L 144.80 196.49 C 144.99 197.47 145.94 198.10 146.92 197.91 C 147.90 197.72 148.53 196.76 148.34 195.79 L 148.14 194.79 C 147.95 193.82 146.99 193.18 146.02 193.38 C 145.04 193.57 144.41 194.52 144.60 195.50 Z M 144.80 196.51 L 145.01 197.50 C 145.21 198.48 146.17 199.10 147.15 198.90 C 148.12 198.69 148.75 197.74 148.54 196.76 L 148.33 195.77 C 148.13 194.79 147.17 194.17 146.20 194.37 C 145.22 194.58 144.60 195.53 144.80 196.51 Z M 145.01 197.52 L 145.23 198.50 C 145.44 199.47 146.41 200.09 147.38 199.87 C 148.35 199.66 148.97 198.70 148.75 197.72 L 148.54 196.74 C 148.32 195.77 147.36 195.15 146.39 195.37 C 145.41 195.58 144.80 196.55 145.01 197.52 Z M 145.23 198.52 L 145.45 199.48 C 145.68 200.45 146.65 201.05 147.62 200.83 C 148.59 200.60 149.20 199.63 148.97 198.66 L 148.75 197.70 C 148.53 196.73 147.55 196.12 146.58 196.35 C 145.61 196.58 145.01 197.55 145.23 198.52 Z M 145.46 199.50 L 145.71 200.52 C 145.95 201.49 146.93 202.09 147.90 201.85 C 148.87 201.61 149.46 200.63 149.22 199.66 L 148.97 198.64 C 148.73 197.67 147.75 197.07 146.78 197.31 C 145.81 197.55 145.22 198.53 145.46 199.50 Z M 145.72 200.55 L 145.99 201.60 C 146.24 202.56 147.23 203.14 148.20 202.88 C 149.17 202.63 149.74 201.64 149.49 200.67 L 149.22 199.63 C 148.96 198.67 147.97 198.09 147.00 198.34 C 146.04 198.60 145.46 199.59 145.72 200.55 Z M 146.00 201.63 L 146.28 202.61 C 146.55 203.58 147.56 204.13 148.52 203.86 C 149.48 203.58 150.04 202.58 149.76 201.62 L 149.48 200.64 C 149.21 199.67 148.20 199.12 147.24 199.39 C 146.28 199.67 145.72 200.67 146.00 201.63 Z M 146.29 202.66 L 146.58 203.57 C 146.87 204.53 147.89 205.06 148.85 204.76 C 149.81 204.46 150.34 203.44 150.04 202.49 L 149.75 201.57 C 149.45 200.62 148.43 200.09 147.48 200.38 C 146.52 200.68 145.99 201.70 146.29 202.66 Z M 146.59 203.63 L 146.88 204.47 C 147.21 205.41 148.25 205.91 149.20 205.58 C 150.15 205.25 150.65 204.22 150.31 203.27 L 150.02 202.43 C 149.69 201.48 148.66 200.98 147.71 201.31 C 146.76 201.65 146.26 202.68 146.59 203.63 Z M 146.91 204.55 L 147.31 205.53 C 147.69 206.46 148.75 206.91 149.68 206.53 C 150.61 206.16 151.06 205.09 150.68 204.16 L 150.28 203.18 C 149.91 202.25 148.85 201.80 147.91 202.18 C 146.98 202.56 146.54 203.62 146.91 204.55 Z M 147.37 205.67 L 147.82 206.56 C 148.28 207.45 149.37 207.81 150.27 207.35 C 151.17 206.90 151.52 205.80 151.07 204.91 L 150.62 204.02 C 150.16 203.13 149.07 202.77 148.17 203.22 C 147.28 203.68 146.92 204.78 147.37 205.67 Z M 147.93 206.73 L 148.45 207.53 C 149.00 208.37 150.13 208.60 150.98 208.05 C 151.82 207.50 152.05 206.37 151.49 205.53 L 150.97 204.73 C 150.41 203.89 149.28 203.66 148.44 204.21 C 147.60 204.76 147.37 205.89 147.93 206.73 Z M 148.58 207.71 L 149.20 208.44 C 149.86 209.20 151.01 209.29 151.77 208.64 C 152.54 207.99 152.63 206.84 151.98 206.07 L 151.36 205.35 C 150.71 204.58 149.56 204.49 148.79 205.14 C 148.02 205.79 147.93 206.94 148.58 207.71 Z M 149.34 208.58 L 150.04 209.25 C 150.78 209.94 151.93 209.90 152.62 209.17 C 153.31 208.44 153.28 207.28 152.55 206.59 L 151.84 205.93 C 151.11 205.24 149.95 205.27 149.26 206.00 C 148.57 206.74 148.61 207.89 149.34 208.58 Z M 150.17 209.36 L 150.97 209.98 C 151.76 210.60 152.91 210.46 153.53 209.66 C 154.15 208.87 154.01 207.72 153.21 207.10 L 152.42 206.48 C 151.62 205.86 150.48 206.00 149.86 206.80 C 149.24 207.59 149.38 208.74 150.17 209.36 Z M 151.09 210.07 L 151.96 210.63 C 152.80 211.18 153.93 210.95 154.48 210.11 C 155.03 209.26 154.80 208.13 153.95 207.58 L 153.09 207.01 C 152.25 206.46 151.12 206.70 150.56 207.54 C 150.01 208.38 150.25 209.51 151.09 210.07 Z M 152.08 210.70 L 152.92 211.17 C 153.81 211.66 154.91 211.33 155.40 210.45 C 155.89 209.57 155.56 208.46 154.68 207.97 L 153.84 207.51 C 152.95 207.02 151.84 207.35 151.36 208.23 C 150.87 209.11 151.19 210.22 152.08 210.70 Z M 153.04 211.23 L 153.91 211.63 C 154.82 212.05 155.90 211.65 156.33 210.73 C 156.75 209.82 156.35 208.73 155.43 208.31 L 154.56 207.91 C 153.65 207.49 152.57 207.90 152.14 208.81 C 151.72 209.73 152.12 210.81 153.04 211.23 Z M 154.02 211.68 L 154.95 212.03 C 155.89 212.38 156.95 211.91 157.30 210.97 C 157.66 210.02 157.18 208.97 156.24 208.61 L 155.31 208.26 C 154.37 207.91 153.32 208.38 152.96 209.33 C 152.60 210.27 153.08 211.32 154.02 211.68 Z M 155.06 212.07 L 156.07 212.38 C 157.03 212.67 158.05 212.13 158.35 211.16 C 158.64 210.20 158.10 209.18 157.14 208.88 L 156.13 208.58 C 155.17 208.28 154.15 208.82 153.85 209.79 C 153.56 210.75 154.10 211.77 155.06 212.07 Z M 156.17 212.40 L 157.18 212.65 C 158.16 212.89 159.15 212.29 159.39 211.32 C 159.63 210.34 159.03 209.35 158.05 209.10 L 157.04 208.86 C 156.06 208.61 155.07 209.21 154.83 210.19 C 154.59 211.17 155.19 212.16 156.17 212.40 Z M 157.25 212.67 L 158.25 212.87 C 159.24 213.07 160.21 212.43 160.41 211.45 C 160.61 210.46 159.97 209.49 158.98 209.29 L 157.98 209.09 C 156.99 208.89 156.03 209.53 155.83 210.51 C 155.62 211.50 156.26 212.47 157.25 212.67 Z M 158.31 212.88 L 159.33 213.06 C 160.32 213.23 161.27 212.56 161.44 211.56 C 161.61 210.57 160.94 209.63 159.94 209.46 L 158.92 209.28 C 157.93 209.11 156.99 209.78 156.82 210.77 C 156.65 211.77 157.31 212.71 158.31 212.88 Z M 159.37 213.06 L 160.38 213.21 C 161.37 213.36 162.30 212.66 162.45 211.67 C 162.59 210.67 161.90 209.74 160.90 209.60 L 159.90 209.45 C 158.90 209.30 157.98 209.99 157.83 210.99 C 157.68 211.99 158.37 212.92 159.37 213.06 Z M 160.42 213.21 L 161.37 213.33 C 162.37 213.46 163.28 212.75 163.41 211.75 C 163.53 210.75 162.82 209.83 161.82 209.71 L 160.87 209.59 C 159.86 209.47 158.95 210.18 158.83 211.18 C 158.71 212.18 159.42 213.09 160.42 213.21 Z M 161.41 213.34 L 162.47 213.44 C 163.47 213.55 164.36 212.81 164.47 211.81 C 164.57 210.81 163.84 209.91 162.83 209.81 L 161.78 209.71 C 160.78 209.60 159.88 210.33 159.78 211.34 C 159.68 212.34 160.41 213.24 161.41 213.34 Z M 162.52 213.45 L 163.53 213.52 C 164.54 213.60 165.41 212.84 165.48 211.84 C 165.56 210.83 164.80 209.96 163.80 209.88 L 162.78 209.81 C 161.78 209.73 160.90 210.49 160.83 211.49 C 160.76 212.50 161.51 213.37 162.52 213.45 Z M 163.58 213.52 L 164.53 213.57 C 165.54 213.62 166.39 212.84 166.44 211.83 C 166.48 210.83 165.71 209.97 164.70 209.93 L 163.75 209.88 C 162.74 209.83 161.89 210.61 161.84 211.62 C 161.80 212.62 162.57 213.48 163.58 213.52 Z M 164.57 213.57 L 165.51 213.59 C 166.51 213.62 167.35 212.82 167.38 211.82 C 167.40 210.81 166.61 209.98 165.60 209.95 L 164.66 209.93 C 163.65 209.90 162.82 210.69 162.79 211.70 C 162.77 212.71 163.56 213.54 164.57 213.57 Z M 165.53 213.59 L 166.48 213.61 C 167.49 213.62 168.32 212.82 168.33 211.81 C 168.34 210.80 167.54 209.98 166.53 209.96 L 165.58 209.95 C 164.57 209.94 163.75 210.74 163.73 211.75 C 163.72 212.75 164.52 213.58 165.53 213.59 Z M 166.50 213.61 L 167.49 213.61 C 168.50 213.62 169.32 212.81 169.32 211.80 C 169.33 210.80 168.52 209.97 167.51 209.97 L 166.52 209.96 C 165.51 209.96 164.69 210.77 164.69 211.77 C 164.68 212.78 165.49 213.60 166.50 213.61 Z M 167.50 213.61 L 168.52 213.61 C 169.53 213.62 170.35 212.80 170.35 211.80 C 170.35 210.79 169.53 209.97 168.53 209.97 L 167.50 209.97 C 166.50 209.97 165.68 210.78 165.68 211.79 C 165.68 212.79 166.49 213.61 167.50 213.61 Z M 168.52 213.61 L 169.55 213.61 C 170.56 213.61 171.37 212.80 171.37 211.79 C 171.37 210.79 170.56 209.97 169.55 209.97 L 168.53 209.97 C 167.52 209.97 166.70 210.79 166.70 211.79 C 166.70 212.80 167.52 213.61 168.52 213.61 Z M 169.55 213.61 L 170.53 213.61 C 171.54 213.61 172.35 212.79 172.35 211.79 C 172.35 210.78 171.53 209.97 170.53 209.97 L 169.55 209.97 C 168.54 209.97 167.73 210.79 167.73 211.80 C 167.73 212.80 168.55 213.62 169.55 213.61 Z M 170.55 213.61 L 171.54 213.60 C 172.55 213.59 173.36 212.77 173.35 211.76 C 173.34 210.76 172.51 209.95 171.51 209.96 L 170.51 209.97 C 169.51 209.98 168.70 210.80 168.71 211.81 C 168.72 212.81 169.54 213.62 170.55 213.61 Z M 171.56 213.60 L 172.58 213.58 C 173.58 213.56 174.38 212.72 174.36 211.72 C 174.33 210.71 173.50 209.92 172.50 209.94 L 171.48 209.96 C 170.48 209.98 169.68 210.82 169.70 211.82 C 169.73 212.83 170.56 213.62 171.56 213.60 Z M 172.61 213.58 L 173.62 213.54 C 174.63 213.50 175.41 212.65 175.37 211.65 C 175.33 210.64 174.48 209.86 173.48 209.90 L 172.46 209.94 C 171.46 209.98 170.68 210.83 170.72 211.83 C 170.76 212.84 171.60 213.62 172.61 213.58 Z M 173.66 213.54 L 174.63 213.48 C 175.63 213.42 176.39 212.55 176.33 211.55 C 176.27 210.54 175.41 209.78 174.40 209.84 L 173.44 209.90 C 172.43 209.96 171.67 210.83 171.73 211.83 C 171.79 212.83 172.66 213.60 173.66 213.54 Z M 174.67 213.47 L 175.65 213.39 C 176.65 213.31 177.39 212.43 177.31 211.42 C 177.23 210.42 176.34 209.68 175.34 209.76 L 174.36 209.85 C 173.36 209.93 172.61 210.81 172.70 211.81 C 172.78 212.81 173.67 213.56 174.67 213.47 Z M 175.69 213.39 L 176.70 213.28 C 177.69 213.17 178.42 212.27 178.31 211.27 C 178.20 210.27 177.30 209.55 176.30 209.66 L 175.30 209.77 C 174.30 209.88 173.58 210.78 173.69 211.77 C 173.79 212.77 174.69 213.50 175.69 213.39 Z M 176.74 213.27 L 177.77 213.13 C 178.76 213.00 179.46 212.08 179.33 211.08 C 179.19 210.09 178.27 209.39 177.28 209.52 L 176.25 209.66 C 175.26 209.80 174.56 210.72 174.69 211.71 C 174.83 212.71 175.75 213.41 176.74 213.27 Z M 177.81 213.13 L 178.81 212.96 C 179.80 212.80 180.47 211.87 180.31 210.87 C 180.15 209.88 179.22 209.21 178.22 209.37 L 177.23 209.53 C 176.24 209.69 175.56 210.63 175.72 211.62 C 175.89 212.61 176.82 213.29 177.81 213.13 Z M 178.85 212.96 L 179.84 212.77 C 180.83 212.59 181.48 211.64 181.29 210.65 C 181.11 209.66 180.16 209.01 179.17 209.19 L 178.18 209.38 C 177.19 209.56 176.54 210.51 176.73 211.50 C 176.91 212.49 177.86 213.14 178.85 212.96 Z M 179.87 212.77 L 180.86 212.56 C 181.85 212.36 182.48 211.39 182.28 210.41 C 182.08 209.42 181.11 208.79 180.13 208.99 L 179.14 209.20 C 178.15 209.40 177.52 210.37 177.72 211.35 C 177.92 212.34 178.89 212.97 179.87 212.77 Z M 180.89 212.55 L 181.88 212.33 C 182.86 212.11 183.47 211.14 183.25 210.16 C 183.03 209.17 182.06 208.56 181.08 208.78 L 180.10 209.00 C 179.11 209.22 178.50 210.19 178.72 211.18 C 178.94 212.16 179.91 212.78 180.89 212.55 Z M 181.90 212.33 L 182.86 212.10 C 183.84 211.86 184.44 210.88 184.21 209.90 C 183.97 208.92 182.98 208.32 182.01 208.55 L 181.05 208.78 C 180.07 209.02 179.47 210.01 179.70 210.98 C 179.94 211.96 180.92 212.56 181.90 212.33 Z M 182.89 212.09 L 183.90 211.83 C 184.87 211.58 185.46 210.58 185.21 209.61 C 184.96 208.63 183.96 208.05 182.99 208.30 L 181.98 208.56 C 181.00 208.81 180.42 209.80 180.67 210.78 C 180.92 211.75 181.91 212.34 182.89 212.09 Z M 183.93 211.82 L 184.91 211.55 C 185.88 211.29 186.45 210.29 186.18 209.31 C 185.92 208.34 184.91 207.77 183.94 208.04 L 182.96 208.31 C 181.99 208.57 181.42 209.58 181.69 210.55 C 181.95 211.52 182.96 212.09 183.93 211.82 Z M 184.93 211.55 L 185.88 211.27 C 186.85 210.99 187.41 209.98 187.12 209.01 C 186.84 208.05 185.83 207.49 184.86 207.77 L 183.92 208.04 C 182.95 208.32 182.39 209.34 182.67 210.30 C 182.95 211.27 183.96 211.83 184.93 211.55 Z M 185.90 211.27 L 186.83 210.98 C 187.79 210.69 188.34 209.67 188.04 208.71 C 187.75 207.74 186.73 207.20 185.77 207.49 L 184.84 207.78 C 183.88 208.07 183.33 209.09 183.63 210.05 C 183.92 211.02 184.94 211.56 185.90 211.27 Z M 186.85 210.98 L 187.80 210.68 C 188.76 210.37 189.29 209.34 188.99 208.38 C 188.68 207.42 187.65 206.89 186.69 207.20 L 185.75 207.50 C 184.78 207.81 184.25 208.83 184.56 209.79 C 184.87 210.75 185.89 211.28 186.85 210.98 Z M 187.82 210.67 L 188.78 210.35 C 189.74 210.03 190.26 209.00 189.94 208.04 C 189.62 207.08 188.59 206.57 187.63 206.88 L 186.67 207.20 C 185.71 207.52 185.20 208.56 185.51 209.51 C 185.83 210.47 186.87 210.99 187.82 210.67 Z M 188.81 210.34 L 189.75 210.01 C 190.71 209.68 191.21 208.63 190.87 207.68 C 190.54 206.73 189.50 206.23 188.54 206.56 L 187.60 206.89 C 186.65 207.23 186.15 208.27 186.48 209.22 C 186.82 210.17 187.86 210.68 188.81 210.34 Z M 189.78 210.00 L 190.71 209.66 C 191.66 209.31 192.14 208.25 191.79 207.31 C 191.44 206.36 190.39 205.88 189.44 206.23 L 188.51 206.57 C 187.57 206.92 187.08 207.98 187.43 208.92 C 187.79 209.87 188.84 210.35 189.78 210.00 Z M 190.75 209.65 L 191.68 209.28 C 192.62 208.91 193.08 207.84 192.71 206.90 C 192.34 205.96 191.28 205.50 190.34 205.87 L 189.40 206.24 C 188.46 206.61 188.00 207.67 188.37 208.61 C 188.74 209.55 189.81 210.02 190.75 209.65 Z M 191.71 209.26 L 192.65 208.87 C 193.59 208.48 194.03 207.41 193.64 206.48 C 193.25 205.55 192.18 205.11 191.25 205.49 L 190.31 205.89 C 189.37 206.27 188.93 207.35 189.32 208.28 C 189.71 209.21 190.78 209.65 191.71 209.26 Z M 192.68 208.86 L 193.60 208.47 C 194.52 208.06 194.95 206.98 194.55 206.06 C 194.15 205.13 193.07 204.70 192.14 205.11 L 191.22 205.50 C 190.29 205.91 189.87 206.98 190.27 207.91 C 190.67 208.84 191.75 209.27 192.68 208.86 Z M 193.61 208.46 L 194.51 208.06 C 195.43 207.65 195.85 206.57 195.44 205.64 C 195.02 204.72 193.94 204.30 193.02 204.71 L 192.12 205.11 C 191.20 205.52 190.78 206.61 191.19 207.53 C 191.61 208.46 192.69 208.87 193.61 208.46 Z M 194.52 208.06 L 195.44 207.64 C 196.36 207.22 196.77 206.14 196.36 205.22 C 195.94 204.29 194.85 203.88 193.93 204.30 L 193.01 204.72 C 192.09 205.13 191.68 206.22 192.09 207.14 C 192.51 208.06 193.59 208.47 194.52 208.06 Z M 195.45 207.64 L 196.37 207.21 C 197.29 206.79 197.69 205.70 197.27 204.78 C 196.85 203.86 195.76 203.46 194.84 203.88 L 193.92 204.30 C 193.00 204.73 192.60 205.82 193.02 206.74 C 193.44 207.66 194.53 208.06 195.45 207.64 Z M 196.39 207.21 L 197.28 206.78 C 198.20 206.35 198.59 205.26 198.16 204.34 C 197.72 203.43 196.63 203.03 195.71 203.47 L 194.82 203.89 C 193.91 204.32 193.51 205.42 193.95 206.33 C 194.38 207.25 195.47 207.64 196.39 207.21 Z M 197.31 206.77 L 198.18 206.34 C 199.09 205.89 199.47 204.79 199.02 203.88 C 198.57 202.97 197.47 202.60 196.56 203.05 L 195.69 203.48 C 194.78 203.93 194.40 205.03 194.85 205.93 C 195.30 206.84 196.40 207.22 197.31 206.77 Z M 198.21 206.33 L 199.11 205.87 C 200.01 205.40 200.36 204.30 199.90 203.40 C 199.44 202.49 198.33 202.14 197.43 202.60 L 196.53 203.06 C 195.63 203.53 195.28 204.63 195.74 205.53 C 196.21 206.44 197.31 206.79 198.21 206.33 Z M 199.13 205.86 L 200.01 205.39 C 200.90 204.92 201.24 203.80 200.77 202.91 C 200.30 202.01 199.18 201.67 198.29 202.15 L 197.41 202.61 C 196.51 203.09 196.17 204.20 196.64 205.10 C 197.12 205.99 198.23 206.33 199.13 205.86 Z M 200.01 205.39 L 200.89 204.92 C 201.79 204.44 202.13 203.32 201.65 202.43 C 201.17 201.54 200.05 201.20 199.16 201.68 L 198.28 202.15 C 197.39 202.63 197.05 203.74 197.53 204.64 C 198.01 205.53 199.12 205.87 200.01 205.39 Z M 200.89 204.92 L 201.73 204.47 C 202.62 204.00 202.96 202.88 202.48 201.99 C 202.01 201.09 200.89 200.75 200.00 201.23 L 199.16 201.68 C 198.27 202.15 197.93 203.27 198.41 204.16 C 198.88 205.06 200.00 205.40 200.89 204.92 Z M 201.73 204.47 L 202.58 204.02 C 203.47 203.54 203.80 202.42 203.32 201.53 C 202.84 200.64 201.73 200.30 200.84 200.78 L 199.99 201.23 C 199.10 201.71 198.76 202.83 199.24 203.72 C 199.72 204.62 200.84 204.95 201.73 204.47 Z M 202.60 204.01 L 203.48 203.51 C 204.37 203.02 204.69 201.90 204.20 201.02 C 203.71 200.13 202.59 199.81 201.70 200.30 L 200.81 200.79 C 199.93 201.28 199.61 202.40 200.10 203.29 C 200.59 204.18 201.71 204.50 202.60 204.01 Z M 203.52 203.50 L 204.45 202.96 C 205.32 202.45 205.62 201.32 205.11 200.44 C 204.60 199.57 203.48 199.27 202.60 199.78 L 201.67 200.32 C 200.79 200.83 200.49 201.95 201.00 202.83 C 201.51 203.71 202.64 204.01 203.52 203.50 Z M 204.48 202.94 L 205.31 202.43 C 206.18 201.90 206.46 200.77 205.93 199.90 C 205.40 199.04 204.27 198.76 203.41 199.29 L 202.57 199.80 C 201.70 200.32 201.43 201.46 201.95 202.32 C 202.48 203.19 203.61 203.47 204.48 202.94 Z M 205.34 202.42 L 206.20 201.87 C 207.06 201.33 207.32 200.20 206.78 199.34 C 206.24 198.48 205.11 198.22 204.25 198.76 L 203.38 199.30 C 202.52 199.84 202.26 200.98 202.80 201.84 C 203.34 202.69 204.48 202.95 205.34 202.42 Z M 206.22 201.86 L 207.08 201.31 C 207.93 200.76 208.18 199.63 207.63 198.77 C 207.08 197.92 205.95 197.67 205.09 198.22 L 204.23 198.77 C 203.38 199.32 203.13 200.46 203.68 201.31 C 204.22 202.16 205.36 202.41 206.22 201.86 Z M 207.09 201.30 L 207.92 200.76 C 208.77 200.20 209.01 199.06 208.46 198.22 C 207.90 197.37 206.76 197.13 205.91 197.68 L 205.08 198.23 C 204.23 198.78 203.99 199.92 204.55 200.77 C 205.10 201.62 206.24 201.86 207.09 201.30 Z M 207.93 200.75 L 208.82 200.17 C 209.66 199.60 209.89 198.46 209.33 197.62 C 208.77 196.77 207.63 196.54 206.78 197.10 L 205.90 197.69 C 205.06 198.25 204.83 199.39 205.39 200.24 C 205.95 201.08 207.09 201.31 207.93 200.75 Z M 208.84 200.15 L 209.69 199.57 C 210.52 199.00 210.74 197.85 210.16 197.02 C 209.59 196.18 208.45 195.97 207.61 196.54 L 206.76 197.12 C 205.93 197.69 205.71 198.83 206.29 199.67 C 206.86 200.51 208.00 200.72 208.84 200.15 Z M 209.72 199.54 L 210.51 198.97 C 211.33 198.38 211.51 197.23 210.92 196.41 C 210.32 195.59 209.18 195.41 208.36 196.00 L 207.57 196.57 C 206.75 197.16 206.57 198.31 207.16 199.13 C 207.76 199.95 208.90 200.13 209.72 199.54 Z M 210.57 198.93 L 211.30 198.35 C 212.09 197.72 212.23 196.57 211.61 195.78 C 210.98 194.98 209.83 194.84 209.03 195.47 L 208.30 196.05 C 207.51 196.67 207.37 197.82 207.99 198.62 C 208.62 199.41 209.77 199.55 210.57 198.93 Z M 211.38 198.27 L 212.13 197.61 C 212.89 196.94 212.95 195.78 212.28 195.02 C 211.61 194.27 210.45 194.20 209.70 194.88 L 208.95 195.54 C 208.20 196.21 208.13 197.37 208.80 198.13 C 209.47 198.88 210.63 198.95 211.38 198.27 Z M 212.28 197.45 L 212.94 196.71 C 213.61 195.96 213.54 194.81 212.78 194.14 C 212.03 193.47 210.87 193.54 210.21 194.29 L 209.55 195.03 C 208.88 195.78 208.95 196.94 209.70 197.61 C 210.46 198.28 211.61 198.21 212.28 197.45 Z M 213.13 196.45 L 213.64 195.60 C 214.16 194.74 213.89 193.62 213.03 193.10 C 212.17 192.57 211.05 192.85 210.53 193.71 L 210.01 194.56 C 209.49 195.42 209.77 196.54 210.63 197.06 C 211.49 197.58 212.61 197.31 213.13 196.45 Z M 213.80 195.24 L 214.12 194.32 C 214.44 193.37 213.93 192.34 212.98 192.01 C 212.03 191.69 211.00 192.20 210.68 193.15 L 210.37 194.07 C 210.04 195.02 210.55 196.05 211.50 196.37 C 212.45 196.70 213.48 196.19 213.80 195.24 Z M 214.19 193.98 L 214.33 193.01 C 214.47 192.02 213.78 191.10 212.79 190.97 C 211.80 190.83 210.89 191.51 210.75 192.50 L 210.61 193.48 C 210.47 194.47 211.16 195.38 212.15 195.52 C 213.13 195.66 214.05 194.97 214.19 193.98 Z M 214.33 192.74 L 214.33 191.72 C 214.32 190.73 213.51 189.93 212.52 189.94 C 211.52 189.94 210.72 190.75 210.73 191.75 L 210.74 192.77 C 210.75 193.76 211.56 194.56 212.55 194.55 C 213.54 194.54 214.34 193.73 214.33 192.74 Z M 214.30 191.49 L 214.16 190.48 C 214.02 189.50 213.12 188.82 212.14 188.95 C 211.16 189.09 210.48 189.99 210.62 190.97 L 210.76 191.98 C 210.89 192.96 211.80 193.64 212.78 193.51 C 213.75 193.37 214.44 192.47 214.30 191.49 Z M 214.08 190.26 L 213.83 189.33 C 213.57 188.39 212.61 187.84 211.67 188.10 C 210.73 188.35 210.18 189.32 210.44 190.26 L 210.69 191.19 C 210.95 192.12 211.92 192.68 212.85 192.42 C 213.79 192.16 214.34 191.20 214.08 190.26 Z M 213.71 189.15 L 213.35 188.27 C 212.99 187.40 212.00 186.98 211.13 187.33 C 210.26 187.69 209.84 188.68 210.20 189.55 L 210.56 190.44 C 210.91 191.31 211.91 191.72 212.78 191.37 C 213.65 191.01 214.06 190.02 213.71 189.15 Z M 213.22 188.14 L 212.76 187.26 C 212.34 186.46 211.34 186.16 210.54 186.58 C 209.74 187.00 209.44 187.99 209.86 188.80 L 210.32 189.67 C 210.75 190.48 211.74 190.78 212.54 190.36 C 213.34 189.93 213.65 188.94 213.22 188.14 Z M 212.65 187.20 L 212.09 186.29 C 211.63 185.55 210.65 185.32 209.91 185.78 C 209.17 186.24 208.94 187.21 209.40 187.95 L 209.97 188.86 C 210.43 189.60 211.40 189.83 212.14 189.37 C 212.88 188.91 213.11 187.94 212.65 187.20 Z M 212.02 186.26 L 211.46 185.44 C 210.98 184.73 210.03 184.55 209.33 185.02 C 208.63 185.50 208.44 186.45 208.92 187.15 L 209.47 187.98 C 209.95 188.68 210.90 188.87 211.60 188.39 C 212.31 187.92 212.49 186.96 212.02 186.26 Z M 211.42 185.42 L 210.83 184.59 C 210.34 183.91 209.40 183.75 208.72 184.23 C 208.04 184.71 207.88 185.66 208.36 186.34 L 208.95 187.17 C 209.44 187.85 210.38 188.01 211.06 187.53 C 211.74 187.04 211.90 186.10 211.42 185.42 Z M 210.79 184.58 L 210.18 183.75 C 209.69 183.09 208.76 182.94 208.10 183.43 C 207.44 183.92 207.30 184.85 207.78 185.52 L 208.40 186.35 C 208.88 187.01 209.82 187.15 210.48 186.66 C 211.14 186.17 211.28 185.24 210.79 184.58 Z M 210.15 183.74 L 209.54 182.94 C 209.05 182.30 208.13 182.17 207.49 182.66 C 206.84 183.15 206.72 184.07 207.21 184.72 L 207.81 185.52 C 208.30 186.16 209.23 186.29 209.87 185.80 C 210.52 185.31 210.64 184.39 210.15 183.74 Z M 209.52 182.94 L 208.91 182.16 C 208.41 181.52 207.50 181.41 206.87 181.90 C 206.24 182.40 206.13 183.31 206.62 183.94 L 207.23 184.72 C 207.73 185.35 208.64 185.47 209.27 184.97 C 209.90 184.48 210.01 183.57 209.52 182.94 Z M 208.89 182.15 L 208.21 181.30 C 207.71 180.68 206.80 180.58 206.18 181.07 C 205.57 181.57 205.47 182.48 205.96 183.09 L 206.64 183.94 C 207.14 184.56 208.04 184.66 208.66 184.17 C 209.28 183.67 209.38 182.77 208.89 182.15 Z M 208.19 181.29 L 207.56 180.52 C 207.06 179.91 206.16 179.82 205.55 180.33 C 204.94 180.83 204.85 181.73 205.35 182.34 L 205.98 183.11 C 206.48 183.72 207.38 183.81 207.99 183.30 C 208.60 182.80 208.69 181.90 208.19 181.29 Z M 207.55 180.52 L 206.96 179.81 C 206.45 179.20 205.55 179.12 204.94 179.63 C 204.34 180.13 204.26 181.04 204.77 181.64 L 205.36 182.35 C 205.87 182.96 206.77 183.04 207.37 182.53 C 207.98 182.02 208.06 181.12 207.55 180.52 Z M 206.95 179.81 L 206.71 179.52 C 206.21 178.92 205.31 178.84 204.70 179.35 C 204.10 179.86 204.02 180.76 204.53 181.36 L 204.77 181.64 C 205.28 182.24 206.18 182.32 206.78 181.81 C 207.38 181.31 207.46 180.41 206.95 179.81 Z"
      fill="black"
      fill-rule="nonzero" /></svg>