<svg xmlns="http://www.w3.org/2000/svg" width="300" height="300" viewBox="0 0 300 300">
<path d="M 129.57 89.81 L 128.58 89.96 C 127.70 90.10 127.10 90.93 127.24 91.81 C 127.37 92.69 128.20 93.30 129.08 93.16 L 130.07 93.01 C 130.95 92.87 131.56 92.04 131.42 91.16 C 131.28 90.27 130.45 89.67 129.57 89.81 Z M 128.51 89.98 L 127.53 90.18 C 126.66 90.36 126.10 91.22 126.28 92.09 C 126.46 92.97 127.31 93.53 128.19 93.35 L 129.16 93.15 C 130.04 92.96 130.60 92.11 130.42 91.23 C 130.24 90.36 129.38 89.80 128.51 89.98 Z M 127.38 90.22 L 126.43 90.51 C 125.57 90.78 125.10 91.69 125.36 92.54 C 125.63 93.39 126.54 93.87 127.39 93.60 L 128.34 93.31 C 129.20 93.04 129.67 92.14 129.41 91.28 C 129.14 90.43 128.23 89.95 127.38 90.22 Z M 126.22 90.60 L 125.34 91.01 C 124.53 91.39 124.18 92.36 124.57 93.17 C 124.95 93.97 125.91 94.32 126.72 93.94 L 127.60 93.52 C 128.41 93.14 128.76 92.18 128.37 91.37 C 127.99 90.56 127.03 90.21 126.22 90.60 Z M 125.15 91.12 L 124.36 91.63 C 123.61 92.12 123.40 93.12 123.89 93.87 C 124.37 94.62 125.38 94.83 126.12 94.34 L 126.91 93.83 C 127.66 93.34 127.87 92.34 127.39 91.59 C 126.90 90.84 125.90 90.63 125.15 91.12 Z M 124.24 91.72 L 123.46 92.33 C 122.76 92.88 122.64 93.90 123.19 94.60 C 123.75 95.30 124.76 95.42 125.47 94.87 L 126.24 94.26 C 126.94 93.71 127.07 92.69 126.51 91.99 C 125.96 91.28 124.94 91.16 124.24 91.72 Z M 123.40 92.38 L 122.62 93.07 C 121.95 93.66 121.88 94.68 122.47 95.35 C 123.06 96.02 124.08 96.09 124.75 95.50 L 125.53 94.81 C 126.20 94.23 126.27 93.20 125.68 92.53 C 125.09 91.86 124.07 91.80 123.40 92.38 Z M 122.59 93.10 L 121.84 93.78 C 121.18 94.38 121.14 95.41 121.74 96.06 C 122.34 96.72 123.37 96.77 124.02 96.16 L 124.77 95.48 C 125.43 94.87 125.48 93.85 124.87 93.19 C 124.27 92.54 123.25 92.49 122.59 93.10 Z M 121.84 93.79 L 121.19 94.38 C 120.54 94.99 120.50 96.01 121.10 96.66 C 121.71 97.32 122.73 97.36 123.38 96.75 L 124.03 96.16 C 124.68 95.55 124.72 94.53 124.12 93.88 C 123.51 93.22 122.49 93.18 121.84 93.79 Z M 121.19 94.38 L 120.51 95.01 C 119.86 95.62 119.82 96.64 120.43 97.30 C 121.03 97.95 122.05 97.99 122.71 97.38 L 123.39 96.75 C 124.04 96.14 124.08 95.12 123.47 94.47 C 122.86 93.82 121.84 93.78 121.19 94.38 Z M 120.51 95.02 L 119.78 95.70 C 119.13 96.31 119.10 97.33 119.71 97.98 C 120.32 98.63 121.34 98.66 121.99 98.05 L 122.71 97.38 C 123.36 96.77 123.40 95.75 122.79 95.09 C 122.18 94.44 121.16 94.41 120.51 95.02 Z M 119.78 95.70 L 119.00 96.44 C 118.35 97.05 118.32 98.07 118.93 98.72 C 119.54 99.37 120.56 99.40 121.21 98.79 L 121.99 98.05 C 122.64 97.44 122.67 96.42 122.06 95.77 C 121.45 95.12 120.43 95.09 119.78 95.70 Z M 118.99 96.44 L 118.14 97.25 C 117.50 97.87 117.47 98.89 118.09 99.53 C 118.70 100.18 119.72 100.20 120.37 99.59 L 121.22 98.78 C 121.86 98.17 121.89 97.14 121.27 96.50 C 120.66 95.85 119.64 95.83 118.99 96.44 Z M 118.14 97.26 L 117.48 97.89 C 116.84 98.51 116.82 99.53 117.44 100.17 C 118.05 100.81 119.08 100.83 119.72 100.21 L 120.37 99.58 C 121.01 98.97 121.03 97.95 120.42 97.30 C 119.80 96.66 118.78 96.64 118.14 97.26 Z M 117.48 97.89 L 116.79 98.56 C 116.15 99.18 116.14 100.20 116.75 100.84 C 117.37 101.48 118.39 101.49 119.03 100.87 L 119.72 100.21 C 120.36 99.59 120.38 98.57 119.76 97.93 C 119.14 97.29 118.12 97.27 117.48 97.89 Z M 116.79 98.56 L 116.08 99.25 C 115.44 99.87 115.42 100.89 116.04 101.53 C 116.66 102.17 117.68 102.18 118.32 101.56 L 119.03 100.87 C 119.67 100.25 119.69 99.23 119.07 98.59 C 118.45 97.96 117.43 97.94 116.79 98.56 Z M 116.08 99.26 L 115.34 99.97 C 114.71 100.59 114.70 101.61 115.32 102.24 C 115.94 102.88 116.95 102.89 117.59 102.27 L 118.32 101.56 C 118.96 100.94 118.97 99.92 118.35 99.29 C 117.73 98.65 116.71 98.64 116.08 99.26 Z M 115.34 99.97 L 114.60 100.70 C 113.97 101.32 113.96 102.34 114.58 102.97 C 115.20 103.61 116.22 103.62 116.85 103.00 L 117.59 102.27 C 118.23 101.65 118.24 100.63 117.62 100.00 C 117.00 99.36 115.98 99.35 115.34 99.97 Z M 114.60 100.70 L 113.86 101.43 C 113.23 102.05 113.22 103.07 113.84 103.70 C 114.46 104.33 115.48 104.34 116.11 103.72 L 116.85 102.99 C 117.48 102.37 117.49 101.35 116.87 100.72 C 116.25 100.09 115.23 100.08 114.60 100.70 Z M 113.86 101.43 L 113.12 102.16 C 112.49 102.78 112.48 103.80 113.10 104.43 C 113.73 105.06 114.74 105.07 115.37 104.44 L 116.11 103.72 C 116.74 103.10 116.75 102.08 116.13 101.45 C 115.51 100.82 114.49 100.81 113.86 101.43 Z M 113.12 102.16 L 112.35 102.92 C 111.72 103.55 111.71 104.56 112.33 105.19 C 112.96 105.82 113.97 105.83 114.60 105.21 L 115.37 104.44 C 116.00 103.82 116.01 102.80 115.39 102.17 C 114.77 101.54 113.75 101.54 113.12 102.16 Z M 112.35 102.93 L 111.56 103.70 C 110.94 104.32 110.93 105.34 111.55 105.97 C 112.18 106.60 113.19 106.60 113.82 105.98 L 114.60 105.20 C 115.23 104.58 115.24 103.57 114.61 102.94 C 113.99 102.31 112.98 102.30 112.35 102.93 Z M 111.56 103.70 L 110.81 104.45 C 110.18 105.07 110.18 106.09 110.80 106.72 C 111.42 107.34 112.43 107.35 113.06 106.73 L 113.82 105.98 C 114.45 105.36 114.45 104.34 113.83 103.71 C 113.21 103.09 112.19 103.08 111.56 103.70 Z M 110.81 104.45 L 110.08 105.17 C 109.46 105.79 109.45 106.80 110.07 107.43 C 110.70 108.06 111.71 108.07 112.34 107.44 L 113.06 106.73 C 113.69 106.10 113.69 105.09 113.07 104.46 C 112.45 103.84 111.44 103.83 110.81 104.45 Z M 110.09 105.17 L 109.40 105.85 C 108.77 106.47 108.76 107.48 109.38 108.11 C 110.00 108.74 111.01 108.75 111.64 108.13 L 112.33 107.45 C 112.96 106.83 112.97 105.81 112.35 105.18 C 111.73 104.56 110.72 104.55 110.09 105.17 Z M 109.40 105.85 L 108.75 106.49 C 108.12 107.11 108.11 108.12 108.73 108.75 C 109.34 109.38 110.36 109.39 110.99 108.77 L 111.64 108.13 C 112.27 107.51 112.28 106.50 111.66 105.87 C 111.04 105.24 110.03 105.23 109.40 105.85 Z M 108.75 106.48 L 108.14 107.08 C 107.51 107.69 107.50 108.70 108.11 109.34 C 108.73 109.97 109.74 109.98 110.37 109.37 L 110.98 108.77 C 111.61 108.16 111.63 107.15 111.01 106.52 C 110.40 105.88 109.39 105.87 108.75 106.48 Z M 108.15 107.07 L 107.30 107.89 C 106.66 108.50 106.64 109.51 107.26 110.15 C 107.87 110.78 108.88 110.80 109.51 110.19 L 110.36 109.37 C 111.00 108.76 111.02 107.75 110.40 107.12 C 109.79 106.48 108.78 106.46 108.15 107.07 Z M 107.28 107.91 L 106.54 108.65 C 105.91 109.27 105.90 110.28 106.52 110.90 C 107.14 111.53 108.15 111.53 108.78 110.92 L 109.53 110.18 C 110.15 109.56 110.16 108.55 109.54 107.92 C 108.92 107.30 107.91 107.29 107.28 107.91 Z M 106.49 108.70 L 105.85 109.39 C 105.25 110.04 105.29 111.05 105.94 111.65 C 106.58 112.24 107.59 112.20 108.19 111.56 L 108.83 110.86 C 109.43 110.22 109.38 109.21 108.74 108.61 C 108.09 108.01 107.08 108.05 106.49 108.70 Z M 105.76 109.50 L 105.23 110.18 C 104.69 110.88 104.81 111.88 105.51 112.42 C 106.20 112.96 107.20 112.83 107.74 112.14 L 108.27 111.45 C 108.81 110.76 108.69 109.76 107.99 109.22 C 107.30 108.68 106.30 108.80 105.76 109.50 Z M 105.11 110.35 L 104.65 111.13 C 104.20 111.89 104.46 112.87 105.22 113.32 C 105.98 113.77 106.95 113.51 107.40 112.75 L 107.86 111.97 C 108.31 111.21 108.05 110.23 107.29 109.79 C 106.53 109.34 105.56 109.59 105.11 110.35 Z M 104.53 111.34 L 104.18 112.21 C 103.84 113.04 104.24 113.98 105.06 114.31 C 105.89 114.64 106.83 114.25 107.16 113.42 L 107.52 112.55 C 107.85 111.72 107.45 110.78 106.63 110.45 C 105.81 110.12 104.87 110.51 104.53 111.34 Z M 104.10 112.41 L 103.85 113.37 C 103.62 114.24 104.14 115.13 105.01 115.35 C 105.88 115.58 106.76 115.06 106.99 114.19 L 107.24 113.23 C 107.47 112.36 106.95 111.47 106.08 111.25 C 105.21 111.02 104.32 111.54 104.10 112.41 Z M 103.80 113.53 L 103.63 114.60 C 103.49 115.49 104.10 116.33 105.00 116.47 C 105.90 116.61 106.74 116.00 106.87 115.10 L 107.04 114.03 C 107.18 113.14 106.57 112.30 105.67 112.16 C 104.77 112.02 103.94 112.63 103.80 113.53 Z M 103.61 114.70 L 103.52 115.63 C 103.44 116.54 104.11 117.34 105.02 117.43 C 105.93 117.51 106.73 116.84 106.81 115.93 L 106.90 115.00 C 106.98 114.09 106.31 113.29 105.40 113.21 C 104.49 113.12 103.69 113.79 103.61 114.70 Z M 103.52 115.70 L 103.47 116.65 C 103.42 117.57 104.12 118.34 105.03 118.39 C 105.94 118.44 106.72 117.74 106.77 116.83 L 106.82 115.87 C 106.87 114.96 106.17 114.18 105.25 114.13 C 104.34 114.08 103.57 114.78 103.52 115.70 Z M 103.47 116.69 L 103.44 117.70 C 103.41 118.61 104.13 119.37 105.04 119.40 C 105.95 119.43 106.72 118.71 106.74 117.80 L 106.77 116.79 C 106.80 115.88 106.08 115.11 105.17 115.09 C 104.25 115.06 103.49 115.78 103.47 116.69 Z M 103.44 117.72 L 103.42 118.76 C 103.41 119.68 104.13 120.43 105.05 120.44 C 105.96 120.46 106.71 119.73 106.73 118.82 L 106.74 117.77 C 106.76 116.86 106.03 116.11 105.12 116.09 C 104.20 116.08 103.45 116.81 103.44 117.72 Z M 103.42 118.77 L 103.41 119.83 C 103.40 120.75 104.13 121.50 105.04 121.51 C 105.96 121.52 106.70 120.78 106.72 119.87 L 106.73 118.81 C 106.74 117.89 106.01 117.15 105.09 117.14 C 104.18 117.13 103.43 117.86 103.42 118.77 Z M 103.41 119.83 L 103.39 120.89 C 103.38 121.80 104.11 122.56 105.02 122.57 C 105.94 122.58 106.69 121.85 106.70 120.94 L 106.72 119.88 C 106.73 118.96 106.00 118.21 105.08 118.20 C 104.17 118.18 103.42 118.91 103.41 119.83 Z M 103.39 120.88 L 103.37 121.93 C 103.35 122.85 104.08 123.60 104.99 123.62 C 105.91 123.64 106.66 122.91 106.68 122.00 L 106.70 120.95 C 106.72 120.03 105.99 119.28 105.08 119.26 C 104.16 119.24 103.41 119.97 103.39 120.88 Z M 103.37 121.92 L 103.34 122.94 C 103.32 123.86 104.04 124.62 104.95 124.64 C 105.87 124.67 106.63 123.95 106.65 123.03 L 106.68 122.01 C 106.71 121.10 105.99 120.33 105.07 120.31 C 104.16 120.28 103.39 121.00 103.37 121.92 Z M 103.34 122.93 L 103.30 123.91 C 103.27 124.82 103.98 125.59 104.90 125.62 C 105.81 125.66 106.58 124.94 106.62 124.03 L 106.65 123.05 C 106.69 122.13 105.97 121.37 105.06 121.33 C 104.14 121.30 103.37 122.01 103.34 122.93 Z M 103.30 123.88 L 103.26 124.80 C 103.21 125.72 103.92 126.50 104.83 126.54 C 105.75 126.59 106.53 125.88 106.57 124.97 L 106.62 124.05 C 106.66 123.13 105.96 122.36 105.04 122.31 C 104.13 122.26 103.35 122.97 103.30 123.88 Z M 103.26 124.77 L 103.19 125.84 C 103.12 126.76 103.81 127.55 104.73 127.61 C 105.64 127.68 106.44 126.99 106.50 126.07 L 106.57 125.00 C 106.63 124.08 105.94 123.29 105.03 123.23 C 104.11 123.17 103.32 123.86 103.26 124.77 Z M 103.19 125.81 L 103.10 126.83 C 103.01 127.74 103.69 128.55 104.60 128.63 C 105.51 128.71 106.32 128.04 106.40 127.13 L 106.50 126.11 C 106.58 125.19 105.90 124.39 104.99 124.30 C 104.08 124.22 103.27 124.89 103.19 125.81 Z M 103.10 126.80 L 103.00 127.74 C 102.90 128.65 103.56 129.47 104.47 129.57 C 105.38 129.67 106.20 129.01 106.30 128.10 L 106.40 127.15 C 106.50 126.24 105.84 125.42 104.93 125.32 C 104.02 125.22 103.20 125.88 103.10 126.80 Z M 103.00 127.73 L 102.89 128.64 C 102.78 129.56 103.44 130.38 104.35 130.49 C 105.26 130.60 106.08 129.94 106.19 129.03 L 106.30 128.11 C 106.40 127.20 105.75 126.37 104.84 126.27 C 103.93 126.16 103.10 126.81 103.00 127.73 Z M 102.89 128.64 L 102.77 129.61 C 102.67 130.53 103.32 131.35 104.23 131.46 C 105.14 131.57 105.97 130.91 106.08 130.00 L 106.19 129.03 C 106.30 128.12 105.65 127.29 104.73 127.19 C 103.82 127.08 103.00 127.73 102.89 128.64 Z M 102.77 129.61 L 102.66 130.60 C 102.55 131.51 103.20 132.34 104.11 132.45 C 105.03 132.55 105.85 131.90 105.96 130.99 L 106.08 130.00 C 106.19 129.09 105.53 128.26 104.62 128.15 C 103.71 128.05 102.88 128.70 102.77 129.61 Z M 102.66 130.59 L 102.53 131.60 C 102.42 132.51 103.07 133.34 103.98 133.46 C 104.90 133.57 105.73 132.92 105.84 132.01 L 105.96 131.00 C 106.07 130.08 105.42 129.25 104.51 129.14 C 103.60 129.03 102.77 129.68 102.66 130.59 Z M 102.53 131.59 L 102.41 132.59 C 102.29 133.51 102.93 134.34 103.85 134.46 C 104.76 134.57 105.59 133.93 105.71 133.02 L 105.84 132.01 C 105.95 131.10 105.31 130.27 104.40 130.15 C 103.48 130.04 102.65 130.68 102.53 131.59 Z M 102.41 132.59 L 102.28 133.58 C 102.16 134.49 102.80 135.33 103.71 135.45 C 104.62 135.57 105.46 134.93 105.58 134.02 L 105.71 133.02 C 105.83 132.11 105.19 131.27 104.28 131.15 C 103.36 131.03 102.53 131.68 102.41 132.59 Z M 102.28 133.58 L 102.14 134.58 C 102.02 135.49 102.66 136.33 103.58 136.45 C 104.49 136.57 105.32 135.93 105.45 135.02 L 105.58 134.02 C 105.70 133.11 105.06 132.27 104.15 132.15 C 103.23 132.03 102.40 132.67 102.28 133.58 Z M 102.14 134.58 L 102.01 135.57 C 101.89 136.49 102.54 137.32 103.45 137.44 C 104.36 137.56 105.20 136.92 105.32 136.00 L 105.45 135.02 C 105.57 134.10 104.92 133.27 104.01 133.15 C 103.10 133.03 102.26 133.67 102.14 134.58 Z M 102.01 135.58 L 101.88 136.60 C 101.77 137.52 102.42 138.35 103.33 138.46 C 104.24 138.58 105.08 137.93 105.19 137.02 L 105.32 136.00 C 105.43 135.08 104.79 134.25 103.87 134.13 C 102.96 134.02 102.13 134.67 102.01 135.58 Z M 101.88 136.60 L 101.76 137.61 C 101.65 138.52 102.29 139.35 103.21 139.46 C 104.12 139.58 104.95 138.93 105.07 138.02 L 105.19 137.01 C 105.30 136.10 104.66 135.27 103.74 135.16 C 102.83 135.04 102.00 135.69 101.88 136.60 Z M 101.76 137.60 L 101.63 138.57 C 101.52 139.49 102.16 140.32 103.08 140.44 C 103.99 140.56 104.83 139.91 104.94 139.00 L 105.07 138.02 C 105.18 137.11 104.54 136.27 103.62 136.16 C 102.71 136.04 101.88 136.69 101.76 137.60 Z M 101.64 138.56 L 101.50 139.53 C 101.38 140.45 102.01 141.29 102.92 141.42 C 103.84 141.54 104.68 140.90 104.80 139.99 L 104.94 139.01 C 105.07 138.10 104.43 137.26 103.52 137.13 C 102.61 137.01 101.76 137.64 101.64 138.56 Z M 101.50 139.52 L 101.35 140.52 C 101.22 141.43 101.84 142.28 102.75 142.41 C 103.66 142.55 104.51 141.92 104.65 141.01 L 104.80 140.01 C 104.94 139.10 104.31 138.25 103.40 138.11 C 102.49 137.98 101.64 138.60 101.50 139.52 Z M 101.35 140.51 L 101.20 141.49 C 101.06 142.40 101.68 143.25 102.59 143.40 C 103.50 143.54 104.36 142.91 104.50 142.00 L 104.65 141.02 C 104.79 140.11 104.17 139.26 103.26 139.12 C 102.35 138.98 101.50 139.60 101.35 140.51 Z M 101.20 141.50 L 101.06 142.44 C 100.92 143.35 101.54 144.20 102.45 144.34 C 103.37 144.48 104.22 143.86 104.35 142.95 L 104.50 142.00 C 104.64 141.09 104.01 140.24 103.10 140.10 C 102.19 139.96 101.34 140.59 101.20 141.50 Z M 101.05 142.46 L 100.94 143.29 C 100.81 144.20 101.44 145.05 102.35 145.18 C 103.26 145.31 104.11 144.67 104.24 143.76 L 104.36 142.93 C 104.49 142.02 103.85 141.17 102.94 141.04 C 102.03 140.91 101.18 141.55 101.05 142.46 Z M 100.93 143.31 L 100.81 144.22 C 100.69 145.13 101.34 145.97 102.25 146.09 C 103.16 146.21 104.00 145.57 104.12 144.66 L 104.24 143.74 C 104.36 142.83 103.72 141.99 102.80 141.87 C 101.89 141.75 101.05 142.40 100.93 143.31 Z M 100.81 144.24 L 100.68 145.31 C 100.57 146.22 101.22 147.06 102.13 147.17 C 103.05 147.28 103.88 146.63 103.99 145.72 L 104.12 144.64 C 104.23 143.73 103.58 142.90 102.67 142.78 C 101.76 142.67 100.92 143.32 100.81 144.24 Z M 100.68 145.32 L 100.55 146.46 C 100.44 147.37 101.10 148.20 102.01 148.31 C 102.92 148.41 103.75 147.76 103.86 146.84 L 103.99 145.71 C 104.10 144.79 103.44 143.96 102.53 143.86 C 101.61 143.75 100.79 144.40 100.68 145.32 Z M 100.55 146.46 L 100.44 147.41 C 100.34 148.33 100.99 149.15 101.91 149.26 C 102.82 149.36 103.65 148.70 103.75 147.79 L 103.86 146.84 C 103.96 145.92 103.31 145.10 102.39 144.99 C 101.47 144.89 100.65 145.55 100.55 146.46 Z M 100.44 147.42 L 100.33 148.44 C 100.23 149.35 100.89 150.18 101.80 150.28 C 102.72 150.38 103.54 149.72 103.64 148.80 L 103.75 147.78 C 103.85 146.87 103.19 146.04 102.28 145.94 C 101.36 145.84 100.54 146.50 100.44 147.42 Z M 100.33 148.44 L 100.21 149.49 C 100.12 150.41 100.78 151.23 101.70 151.32 C 102.61 151.42 103.43 150.76 103.53 149.84 L 103.64 148.79 C 103.74 147.88 103.08 147.06 102.16 146.96 C 101.24 146.86 100.42 147.53 100.33 148.44 Z M 100.21 149.50 L 100.11 150.54 C 100.01 151.45 100.68 152.27 101.60 152.37 C 102.51 152.46 103.33 151.79 103.43 150.87 L 103.53 149.83 C 103.63 148.92 102.96 148.10 102.04 148.01 C 101.12 147.91 100.31 148.58 100.21 149.50 Z M 100.11 150.55 L 100.01 151.54 C 99.92 152.46 100.60 153.27 101.51 153.36 C 102.43 153.45 103.24 152.78 103.33 151.86 L 103.43 150.87 C 103.52 149.95 102.84 149.13 101.93 149.05 C 101.01 148.96 100.19 149.63 100.11 150.55 Z M 100.01 151.56 L 99.92 152.62 C 99.84 153.53 100.52 154.34 101.44 154.42 C 102.35 154.50 103.16 153.82 103.24 152.90 L 103.33 151.84 C 103.41 150.93 102.73 150.12 101.82 150.04 C 100.90 149.96 100.09 150.64 100.01 151.56 Z M 99.91 152.64 L 99.83 153.78 C 99.76 154.70 100.45 155.50 101.38 155.57 C 102.30 155.64 103.10 154.94 103.17 154.02 L 103.25 152.88 C 103.32 151.96 102.62 151.16 101.70 151.09 C 100.78 151.02 99.98 151.72 99.91 152.64 Z M 99.82 153.81 L 99.76 154.79 C 99.71 155.72 100.43 156.51 101.35 156.56 C 102.28 156.61 103.08 155.90 103.13 154.97 L 103.18 153.99 C 103.23 153.06 102.52 152.27 101.59 152.22 C 100.66 152.17 99.87 152.88 99.82 153.81 Z M 99.75 154.82 L 99.72 155.70 C 99.69 156.64 100.42 157.42 101.35 157.45 C 102.29 157.49 103.07 156.76 103.10 155.82 L 103.14 154.94 C 103.17 154.01 102.44 153.22 101.51 153.19 C 100.57 153.16 99.79 153.89 99.75 154.82 Z M 99.71 155.73 L 99.69 156.62 C 99.67 157.56 100.42 158.34 101.36 158.36 C 102.30 158.38 103.07 157.63 103.09 156.69 L 103.11 155.80 C 103.13 154.86 102.39 154.08 101.45 154.06 C 100.51 154.04 99.73 154.79 99.71 155.73 Z M 99.68 156.61 L 99.66 157.63 C 99.63 158.57 100.38 159.36 101.32 159.38 C 102.27 159.41 103.05 158.66 103.08 157.72 L 103.10 156.70 C 103.13 155.76 102.38 154.97 101.44 154.95 C 100.49 154.92 99.71 155.67 99.68 156.61 Z M 99.65 157.55 L 99.57 158.54 C 99.50 159.49 100.22 160.31 101.17 160.38 C 102.12 160.45 102.94 159.74 103.01 158.79 L 103.09 157.80 C 103.16 156.85 102.44 156.02 101.49 155.95 C 100.54 155.88 99.72 156.60 99.65 157.55 Z M 99.58 158.37 L 99.42 159.34 C 99.26 160.28 99.89 161.18 100.84 161.34 C 101.78 161.50 102.68 160.87 102.84 159.92 L 103.00 158.96 C 103.17 158.01 102.53 157.12 101.59 156.95 C 100.64 156.79 99.74 157.43 99.58 158.37 Z M 99.45 159.15 L 99.17 160.11 C 98.91 161.04 99.44 162.00 100.37 162.27 C 101.29 162.54 102.26 162.00 102.53 161.08 L 102.81 160.11 C 103.07 159.19 102.54 158.22 101.61 157.95 C 100.69 157.69 99.72 158.22 99.45 159.15 Z M 99.16 160.13 L 98.90 161.08 C 98.64 162.01 99.18 162.98 100.12 163.24 C 101.05 163.50 102.01 162.95 102.27 162.02 L 102.54 161.06 C 102.80 160.13 102.25 159.17 101.32 158.91 C 100.39 158.65 99.42 159.19 99.16 160.13 Z M 98.83 161.37 L 98.74 162.35 C 98.64 163.31 99.34 164.18 100.31 164.27 C 101.28 164.37 102.14 163.67 102.24 162.70 L 102.34 161.73 C 102.43 160.76 101.73 159.90 100.76 159.80 C 99.80 159.70 98.93 160.41 98.83 161.37 Z M 98.75 162.80 L 98.87 163.59 C 99.03 164.55 99.93 165.20 100.89 165.05 C 101.85 164.89 102.51 163.99 102.35 163.03 L 102.23 162.24 C 102.07 161.28 101.17 160.63 100.21 160.78 C 99.25 160.94 98.59 161.84 98.75 162.80 Z M 98.96 163.92 L 99.26 164.72 C 99.59 165.63 100.61 166.10 101.52 165.76 C 102.43 165.42 102.90 164.41 102.56 163.49 L 102.27 162.69 C 101.93 161.78 100.91 161.32 100.00 161.65 C 99.09 161.99 98.62 163.01 98.96 163.92 Z M 99.34 164.91 L 99.80 165.80 C 100.24 166.66 101.30 167.01 102.17 166.56 C 103.03 166.12 103.38 165.06 102.93 164.19 L 102.48 163.30 C 102.03 162.44 100.97 162.09 100.10 162.54 C 99.24 162.98 98.90 164.04 99.34 164.91 Z M 99.85 165.90 L 100.46 166.91 C 100.96 167.75 102.04 168.02 102.87 167.52 C 103.71 167.02 103.98 165.94 103.48 165.11 L 102.88 164.09 C 102.38 163.26 101.30 162.99 100.46 163.48 C 99.63 163.98 99.35 165.06 99.85 165.90 Z M 100.48 166.95 L 101.08 167.89 C 101.60 168.71 102.69 168.96 103.51 168.44 C 104.33 167.92 104.57 166.83 104.05 166.01 L 103.46 165.07 C 102.94 164.25 101.85 164.00 101.03 164.52 C 100.21 165.04 99.96 166.13 100.48 166.95 Z M 101.09 167.91 L 101.60 168.70 C 102.13 169.52 103.22 169.75 104.04 169.23 C 104.86 168.70 105.09 167.61 104.56 166.79 L 104.05 165.99 C 103.52 165.18 102.43 164.94 101.61 165.47 C 100.79 166.00 100.56 167.09 101.09 167.91 Z M 101.61 168.71 L 102.16 169.55 C 102.69 170.37 103.79 170.59 104.60 170.06 C 105.41 169.53 105.64 168.43 105.11 167.62 L 104.56 166.78 C 104.02 165.97 102.93 165.74 102.12 166.27 C 101.30 166.81 101.08 167.90 101.61 168.71 Z M 102.17 169.56 L 102.74 170.43 C 103.28 171.24 104.37 171.46 105.18 170.92 C 106.00 170.38 106.22 169.28 105.68 168.47 L 105.10 167.61 C 104.56 166.80 103.47 166.58 102.66 167.12 C 101.85 167.66 101.63 168.75 102.17 169.56 Z M 102.74 170.44 L 103.33 171.30 C 103.87 172.11 104.97 172.33 105.78 171.78 C 106.59 171.24 106.80 170.14 106.26 169.33 L 105.67 168.46 C 105.13 167.66 104.03 167.44 103.22 167.99 C 102.41 168.53 102.20 169.63 102.74 170.44 Z M 103.33 171.31 L 103.91 172.17 C 104.46 172.97 105.56 173.18 106.37 172.63 C 107.18 172.08 107.38 170.98 106.83 170.17 L 106.25 169.32 C 105.70 168.52 104.60 168.31 103.80 168.86 C 102.99 169.41 102.78 170.51 103.33 171.31 Z M 103.92 172.18 L 104.49 173.00 C 105.05 173.80 106.15 174.00 106.95 173.44 C 107.75 172.89 107.95 171.79 107.40 170.98 L 106.83 170.16 C 106.27 169.36 105.17 169.16 104.37 169.72 C 103.56 170.27 103.36 171.37 103.92 172.18 Z M 104.50 173.01 L 105.12 173.89 C 105.68 174.69 106.78 174.88 107.58 174.31 C 108.38 173.75 108.57 172.65 108.01 171.85 L 107.39 170.97 C 106.82 170.17 105.72 169.98 104.92 170.55 C 104.12 171.11 103.93 172.21 104.50 173.01 Z M 105.13 173.91 L 105.76 174.78 C 106.34 175.57 107.44 175.75 108.23 175.18 C 109.03 174.61 109.20 173.50 108.63 172.71 L 108.00 171.83 C 107.42 171.04 106.32 170.86 105.52 171.44 C 104.73 172.01 104.56 173.11 105.13 173.91 Z M 105.77 174.80 L 106.38 175.61 C 106.96 176.40 108.07 176.56 108.86 175.98 C 109.64 175.39 109.80 174.28 109.22 173.50 L 108.62 172.69 C 108.03 171.90 106.92 171.74 106.14 172.32 C 105.35 172.91 105.19 174.02 105.77 174.80 Z M 106.39 175.63 L 106.98 176.40 C 107.57 177.17 108.68 177.32 109.46 176.73 C 110.24 176.13 110.39 175.02 109.79 174.24 L 109.21 173.48 C 108.61 172.70 107.50 172.55 106.72 173.15 C 105.94 173.74 105.80 174.86 106.39 175.63 Z M 106.99 176.42 L 107.57 177.15 C 108.17 177.92 109.29 178.05 110.06 177.44 C 110.83 176.84 110.96 175.72 110.35 174.95 L 109.78 174.22 C 109.17 173.45 108.06 173.32 107.29 173.93 C 106.52 174.53 106.38 175.65 106.99 176.42 Z M 107.58 177.17 L 108.16 177.89 C 108.78 178.65 109.89 178.77 110.66 178.15 C 111.42 177.53 111.54 176.42 110.92 175.65 L 110.34 174.94 C 109.73 174.17 108.61 174.05 107.85 174.67 C 107.08 175.29 106.96 176.40 107.58 177.17 Z M 108.17 177.90 L 108.81 178.67 C 109.43 179.43 110.55 179.53 111.31 178.91 C 112.06 178.28 112.17 177.16 111.54 176.40 L 110.91 175.64 C 110.28 174.88 109.17 174.78 108.41 175.40 C 107.65 176.03 107.55 177.15 108.17 177.90 Z M 108.82 178.69 L 109.47 179.45 C 110.10 180.20 111.22 180.29 111.97 179.66 C 112.72 179.02 112.81 177.90 112.18 177.15 L 111.53 176.39 C 110.90 175.64 109.78 175.55 109.03 176.18 C 108.28 176.82 108.18 177.94 108.82 178.69 Z M 109.48 179.47 L 110.14 180.22 C 110.78 180.97 111.91 181.05 112.65 180.40 C 113.39 179.76 113.47 178.63 112.82 177.89 L 112.17 177.13 C 111.52 176.39 110.40 176.31 109.66 176.96 C 108.91 177.60 108.83 178.73 109.48 179.47 Z M 110.15 180.24 L 110.82 180.99 C 111.47 181.73 112.60 181.79 113.33 181.14 C 114.07 180.48 114.13 179.36 113.48 178.62 L 112.81 177.87 C 112.16 177.14 111.03 177.07 110.30 177.73 C 109.56 178.38 109.50 179.51 110.15 180.24 Z M 110.83 181.01 L 111.51 181.75 C 112.17 182.47 113.30 182.52 114.02 181.86 C 114.75 181.20 114.80 180.07 114.14 179.34 L 113.46 178.60 C 112.80 177.88 111.67 177.83 110.94 178.49 C 110.22 179.16 110.17 180.28 110.83 181.01 Z M 111.52 181.77 L 112.23 182.52 C 112.91 183.24 114.04 183.28 114.76 182.60 C 115.47 181.93 115.51 180.80 114.83 180.08 L 114.12 179.32 C 113.45 178.60 112.32 178.57 111.60 179.24 C 110.88 179.92 110.85 181.05 111.52 181.77 Z M 112.25 182.54 L 112.96 183.29 C 113.65 184.00 114.78 184.02 115.49 183.33 C 116.20 182.65 116.22 181.52 115.54 180.81 L 114.82 180.06 C 114.14 179.35 113.01 179.33 112.30 180.02 C 111.58 180.70 111.56 181.83 112.25 182.54 Z M 112.97 183.30 L 113.68 184.02 C 114.37 184.73 115.50 184.74 116.21 184.05 C 116.91 183.35 116.93 182.22 116.23 181.52 L 115.53 180.79 C 114.84 180.09 113.70 180.08 113.00 180.77 C 112.29 181.46 112.28 182.59 112.97 183.30 Z M 113.68 184.03 L 114.37 184.72 C 115.07 185.43 116.20 185.43 116.91 184.73 C 117.61 184.04 117.61 182.90 116.92 182.20 L 116.23 181.51 C 115.53 180.80 114.40 180.80 113.69 181.50 C 112.99 182.19 112.99 183.33 113.68 184.03 Z M 114.38 184.73 L 115.04 185.39 C 115.74 186.10 116.88 186.10 117.58 185.40 C 118.28 184.70 118.28 183.56 117.58 182.86 L 116.91 182.20 C 116.21 181.49 115.08 181.49 114.38 182.19 C 113.68 182.89 113.68 184.03 114.38 184.73 Z M 115.04 185.40 L 115.81 186.17 C 116.51 186.87 117.65 186.87 118.35 186.16 C 119.05 185.46 119.05 184.33 118.35 183.63 L 117.58 182.86 C 116.88 182.16 115.74 182.16 115.04 182.86 C 114.34 183.56 114.34 184.70 115.04 185.40 Z M 115.81 186.17 L 116.54 186.89 C 117.25 187.59 118.38 187.59 119.08 186.89 C 119.78 186.18 119.78 185.05 119.07 184.35 L 118.35 183.62 C 117.64 182.92 116.50 182.93 115.80 183.63 C 115.11 184.33 115.11 185.47 115.81 186.17 Z M 116.55 186.90 L 117.24 187.58 C 117.95 188.28 119.09 188.27 119.78 187.56 C 120.48 186.85 120.47 185.71 119.76 185.02 L 119.07 184.34 C 118.36 183.64 117.22 183.65 116.53 184.36 C 115.83 185.07 115.84 186.21 116.55 186.90 Z M 117.25 187.60 L 117.91 188.23 C 118.63 188.92 119.77 188.90 120.46 188.18 C 121.15 187.46 121.12 186.33 120.41 185.64 L 119.75 185.00 C 119.03 184.31 117.89 184.34 117.20 185.05 C 116.51 185.77 116.54 186.91 117.25 187.60 Z M 117.93 188.25 L 118.67 188.95 C 119.40 189.63 120.54 189.59 121.22 188.86 C 121.90 188.14 121.86 187.00 121.14 186.32 L 120.39 185.62 C 119.66 184.94 118.53 184.98 117.85 185.70 C 117.17 186.43 117.20 187.57 117.93 188.25 Z M 118.68 188.96 L 119.41 189.63 C 120.14 190.30 121.28 190.26 121.95 189.53 C 122.63 188.80 122.59 187.66 121.86 186.98 L 121.13 186.31 C 120.40 185.63 119.26 185.68 118.58 186.41 C 117.91 187.14 117.95 188.28 118.68 188.96 Z M 119.40 189.62 L 120.11 190.30 C 120.84 190.98 121.98 190.94 122.67 190.22 C 123.35 189.49 123.31 188.35 122.59 187.66 L 121.87 186.99 C 121.14 186.31 120.00 186.34 119.32 187.07 C 118.63 187.79 118.67 188.94 119.40 189.62 Z M 120.09 190.27 L 120.80 190.97 C 121.51 191.67 122.66 191.65 123.35 190.94 C 124.05 190.23 124.04 189.08 123.33 188.39 L 122.61 187.69 C 121.90 186.99 120.76 187.00 120.06 187.72 C 119.36 188.43 119.37 189.57 120.09 190.27 Z M 120.75 190.93 L 121.45 191.66 C 122.14 192.38 123.28 192.41 124.01 191.72 C 124.73 191.03 124.76 189.88 124.07 189.16 L 123.37 188.43 C 122.68 187.71 121.54 187.68 120.81 188.37 C 120.09 189.06 120.06 190.20 120.75 190.93 Z M 121.39 191.59 L 122.04 192.35 C 122.69 193.11 123.84 193.20 124.60 192.54 C 125.35 191.89 125.44 190.75 124.79 189.99 L 124.13 189.23 C 123.48 188.47 122.34 188.38 121.58 189.03 C 120.82 189.69 120.73 190.83 121.39 191.59 Z M 121.96 192.25 L 122.54 193.04 C 123.14 193.85 124.28 194.01 125.08 193.42 C 125.89 192.82 126.05 191.69 125.46 190.88 L 124.87 190.09 C 124.28 189.29 123.14 189.12 122.34 189.71 C 121.53 190.31 121.36 191.44 121.96 192.25 Z M 122.45 192.90 L 122.95 193.73 C 123.46 194.58 124.58 194.86 125.44 194.34 C 126.29 193.83 126.57 192.71 126.05 191.86 L 125.56 191.03 C 125.04 190.17 123.92 189.89 123.07 190.41 C 122.21 190.92 121.93 192.04 122.45 192.90 Z M 122.86 193.56 L 123.28 194.45 C 123.70 195.35 124.78 195.74 125.69 195.32 C 126.60 194.89 126.98 193.81 126.56 192.90 L 126.14 192.02 C 125.71 191.11 124.63 190.72 123.73 191.15 C 122.82 191.58 122.43 192.66 122.86 193.56 Z M 123.21 194.29 L 123.56 195.26 C 123.90 196.20 124.94 196.69 125.88 196.35 C 126.83 196.01 127.31 194.97 126.97 194.03 L 126.62 193.06 C 126.28 192.12 125.24 191.63 124.30 191.97 C 123.36 192.31 122.87 193.35 123.21 194.29 Z M 123.52 195.14 L 123.79 196.07 C 124.06 197.04 125.06 197.60 126.02 197.33 C 126.99 197.05 127.55 196.05 127.28 195.09 L 127.01 194.15 C 126.74 193.19 125.74 192.62 124.77 192.90 C 123.81 193.17 123.25 194.17 123.52 195.14 Z M 123.76 195.99 L 123.99 196.94 C 124.21 197.91 125.19 198.52 126.17 198.29 C 127.14 198.06 127.75 197.09 127.52 196.11 L 127.30 195.17 C 127.07 194.19 126.09 193.58 125.12 193.81 C 124.14 194.04 123.54 195.02 123.76 195.99 Z M 123.97 196.89 L 124.18 197.88 C 124.38 198.86 125.34 199.50 126.32 199.30 C 127.30 199.10 127.93 198.14 127.73 197.16 L 127.53 196.16 C 127.33 195.18 126.37 194.55 125.39 194.75 C 124.41 194.95 123.77 195.91 123.97 196.89 Z M 124.17 197.85 L 124.36 198.88 C 124.55 199.86 125.50 200.51 126.48 200.32 C 127.47 200.14 128.12 199.19 127.93 198.21 L 127.74 197.18 C 127.55 196.20 126.61 195.55 125.62 195.74 C 124.64 195.92 123.99 196.87 124.17 197.85 Z M 124.36 198.87 L 124.46 199.42 C 124.64 200.40 125.59 201.06 126.57 200.88 C 127.56 200.70 128.21 199.75 128.03 198.77 L 127.93 198.22 C 127.75 197.23 126.81 196.58 125.82 196.76 C 124.84 196.94 124.18 197.88 124.36 198.87 Z"
      fill="black"
      fill-rule="nonzero" /><path d="M 132.73 96.31 L 131.90 95.24 C 131.40 94.58 130.46 94.46 129.80 94.96 C 129.14 95.47 129.02 96.41 129.52 97.07 L 130.35 98.14 C 130.85 98.80 131.80 98.92 132.45 98.42 C 133.11 97.91 133.24 96.97 132.73 96.31 Z M 131.91 95.20 L 131.15 94.25 C 130.62 93.59 129.66 93.48 129.00 94.01 C 128.34 94.54 128.23 95.50 128.76 96.16 L 129.52 97.11 C 130.05 97.77 131.01 97.88 131.67 97.35 C 132.33 96.82 132.44 95.86 131.91 95.20 Z M 131.12 94.17 L 130.49 93.46 C 129.92 92.82 128.93 92.76 128.29 93.34 C 127.65 93.91 127.59 94.90 128.16 95.54 L 128.79 96.24 C 129.36 96.88 130.35 96.94 130.99 96.37 C 131.63 95.80 131.69 94.81 131.12 94.17 Z M 130.30 93.25 L 129.88 92.92 C 129.18 92.38 128.19 92.50 127.65 93.20 C 127.11 93.89 127.24 94.89 127.93 95.43 L 128.35 95.76 C 129.05 96.29 130.05 96.17 130.58 95.48 C 131.12 94.78 131.00 93.79 130.30 93.25 Z M 127.56 93.30 L 127.38 93.57 C 126.90 94.31 127.11 95.31 127.85 95.79 C 128.59 96.27 129.59 96.06 130.07 95.32 L 130.25 95.05 C 130.73 94.30 130.52 93.31 129.78 92.82 C 129.04 92.34 128.04 92.55 127.56 93.30 Z M 127.15 94.79 L 127.36 95.72 C 127.55 96.60 128.41 97.15 129.28 96.96 C 130.15 96.76 130.70 95.90 130.51 95.03 L 130.30 94.10 C 130.11 93.23 129.25 92.68 128.38 92.87 C 127.51 93.06 126.96 93.92 127.15 94.79 Z M 127.41 95.93 L 127.88 97.22 C 128.18 98.06 129.11 98.49 129.95 98.19 C 130.79 97.88 131.23 96.96 130.92 96.12 L 130.45 94.83 C 130.15 93.99 129.22 93.55 128.38 93.86 C 127.54 94.16 127.11 95.09 127.41 95.93 Z M 127.92 97.32 L 128.35 98.31 C 128.71 99.13 129.66 99.50 130.48 99.14 C 131.30 98.78 131.68 97.82 131.32 97.00 L 130.88 96.02 C 130.52 95.20 129.57 94.82 128.75 95.18 C 127.93 95.54 127.56 96.50 127.92 97.32 Z M 128.37 98.37 L 128.82 99.29 C 129.22 100.09 130.19 100.43 130.99 100.03 C 131.80 99.64 132.13 98.67 131.74 97.86 L 131.29 96.94 C 130.90 96.14 129.93 95.80 129.12 96.20 C 128.32 96.59 127.98 97.56 128.37 98.37 Z M 128.84 99.33 L 129.31 100.22 C 129.73 101.02 130.71 101.32 131.50 100.91 C 132.30 100.49 132.60 99.51 132.19 98.72 L 131.72 97.82 C 131.30 97.03 130.32 96.72 129.53 97.14 C 128.73 97.56 128.43 98.54 128.84 99.33 Z M 129.33 100.25 L 129.80 101.11 C 130.23 101.89 131.22 102.18 132.00 101.75 C 132.79 101.32 133.08 100.33 132.64 99.54 L 132.17 98.69 C 131.74 97.90 130.75 97.62 129.97 98.05 C 129.18 98.48 128.90 99.47 129.33 100.25 Z M 129.81 101.13 L 130.30 101.99 C 130.74 102.77 131.73 103.04 132.51 102.60 C 133.29 102.16 133.57 101.17 133.12 100.39 L 132.63 99.53 C 132.19 98.75 131.20 98.47 130.42 98.91 C 129.64 99.36 129.37 100.35 129.81 101.13 Z M 130.31 102.01 L 130.81 102.87 C 131.26 103.65 132.26 103.91 133.03 103.46 C 133.81 103.01 134.07 102.02 133.62 101.24 L 133.11 100.37 C 132.66 99.60 131.67 99.34 130.90 99.79 C 130.12 100.24 129.86 101.23 130.31 102.01 Z M 130.82 102.90 L 131.33 103.73 C 131.79 104.50 132.79 104.75 133.56 104.28 C 134.32 103.82 134.57 102.82 134.11 102.05 L 133.60 101.22 C 133.14 100.45 132.14 100.20 131.38 100.67 C 130.61 101.13 130.36 102.13 130.82 102.90 Z M 131.35 103.76 L 131.87 104.60 C 132.35 105.35 133.35 105.58 134.11 105.10 C 134.87 104.63 135.10 103.62 134.62 102.86 L 134.09 102.03 C 133.61 101.27 132.61 101.04 131.85 101.52 C 131.09 102.00 130.87 103.00 131.35 103.76 Z M 131.89 104.62 L 132.42 105.42 C 132.91 106.17 133.92 106.38 134.67 105.89 C 135.42 105.39 135.62 104.39 135.13 103.64 L 134.60 102.84 C 134.11 102.09 133.10 101.88 132.35 102.37 C 131.60 102.87 131.40 103.88 131.89 104.62 Z M 132.44 105.45 L 132.99 106.26 C 133.50 106.99 134.51 107.18 135.25 106.67 C 135.99 106.16 136.18 105.15 135.67 104.41 L 135.11 103.61 C 134.60 102.87 133.59 102.69 132.85 103.19 C 132.12 103.70 131.93 104.71 132.44 105.45 Z M 133.01 106.29 L 133.61 107.11 C 134.13 107.83 135.15 108.00 135.87 107.47 C 136.60 106.95 136.76 105.93 136.24 105.20 L 135.65 104.38 C 135.12 103.66 134.11 103.49 133.38 104.02 C 132.65 104.54 132.49 105.56 133.01 106.29 Z M 133.63 107.14 L 134.26 107.96 C 134.80 108.68 135.82 108.81 136.53 108.27 C 137.25 107.73 137.38 106.71 136.84 105.99 L 136.21 105.17 C 135.67 104.46 134.65 104.32 133.94 104.86 C 133.22 105.41 133.09 106.43 133.63 107.14 Z M 134.29 108.00 L 134.95 108.82 C 135.51 109.51 136.53 109.62 137.23 109.06 C 137.93 108.49 138.04 107.47 137.47 106.77 L 136.81 105.96 C 136.25 105.26 135.23 105.15 134.53 105.72 C 133.83 106.28 133.72 107.30 134.29 108.00 Z M 134.98 108.86 L 135.66 109.65 C 136.24 110.33 137.27 110.40 137.95 109.82 C 138.63 109.23 138.71 108.20 138.12 107.52 L 137.44 106.73 C 136.85 106.05 135.83 105.98 135.15 106.56 C 134.47 107.15 134.39 108.18 134.98 108.86 Z M 135.69 109.69 L 136.38 110.44 C 136.99 111.10 138.02 111.14 138.68 110.53 C 139.34 109.92 139.39 108.89 138.78 108.23 L 138.09 107.48 C 137.48 106.82 136.45 106.78 135.79 107.39 C 135.13 108.00 135.08 109.03 135.69 109.69 Z M 136.42 110.48 L 137.11 111.17 C 137.74 111.81 138.77 111.82 139.41 111.18 C 140.05 110.55 140.06 109.51 139.42 108.87 L 138.74 108.18 C 138.10 107.55 137.07 107.54 136.43 108.18 C 135.79 108.81 135.79 109.84 136.42 110.48 Z M 137.16 111.23 L 137.98 111.98 C 138.65 112.59 139.69 112.54 140.30 111.87 C 140.90 111.21 140.86 110.17 140.19 109.56 L 139.37 108.81 C 138.70 108.20 137.66 108.25 137.05 108.92 C 136.44 109.59 136.49 110.62 137.16 111.23 Z M 138.10 112.11 L 139.07 112.83 C 139.81 113.37 140.85 113.21 141.40 112.47 C 141.94 111.73 141.78 110.69 141.04 110.15 L 140.07 109.43 C 139.33 108.89 138.29 109.05 137.75 109.79 C 137.20 110.53 137.36 111.57 138.10 112.11 Z M 140.16 113.18 L 140.54 113.16 C 141.48 113.11 142.20 112.30 142.14 111.37 C 142.09 110.43 141.29 109.72 140.35 109.77 L 139.96 109.79 C 139.03 109.85 138.31 110.65 138.37 111.58 C 138.42 112.52 139.22 113.23 140.16 113.18 Z M 142.02 110.77 L 141.73 110.12 C 141.35 109.25 140.34 108.86 139.47 109.24 C 138.60 109.62 138.21 110.63 138.59 111.50 L 138.88 112.16 C 139.26 113.02 140.27 113.42 141.14 113.04 C 142.01 112.66 142.40 111.64 142.02 110.77 Z M 141.51 109.74 L 140.82 108.87 C 140.22 108.13 139.14 108.01 138.40 108.60 C 137.65 109.20 137.53 110.28 138.13 111.02 L 138.82 111.89 C 139.41 112.63 140.49 112.75 141.24 112.16 C 141.98 111.56 142.10 110.48 141.51 109.74 Z M 140.45 108.53 L 139.53 107.89 C 138.75 107.35 137.67 107.55 137.13 108.33 C 136.59 109.12 136.78 110.19 137.57 110.73 L 138.49 111.37 C 139.27 111.91 140.35 111.71 140.89 110.93 C 141.43 110.14 141.24 109.07 140.45 108.53 Z M 138.70 107.59 L 137.83 107.51 C 136.88 107.43 136.04 108.13 135.96 109.08 C 135.87 110.03 136.57 110.87 137.53 110.96 L 138.40 111.03 C 139.35 111.12 140.19 110.42 140.27 109.46 C 140.36 108.51 139.65 107.67 138.70 107.59 Z M 137.09 107.61 L 136.21 107.93 C 135.31 108.25 134.84 109.24 135.17 110.14 C 135.49 111.04 136.48 111.50 137.38 111.18 L 138.26 110.86 C 139.16 110.54 139.63 109.55 139.30 108.65 C 138.98 107.75 137.99 107.29 137.09 107.61 Z M 135.87 108.10 L 134.97 108.66 C 134.17 109.17 133.92 110.24 134.43 111.04 C 134.94 111.85 136.01 112.09 136.81 111.58 L 137.71 111.01 C 138.52 110.51 138.76 109.44 138.25 108.63 C 137.74 107.83 136.68 107.59 135.87 108.10 Z M 134.86 108.74 L 134.04 109.35 C 133.27 109.92 133.11 111.00 133.68 111.76 C 134.25 112.53 135.32 112.69 136.09 112.12 L 136.92 111.51 C 137.68 110.94 137.84 109.86 137.27 109.10 C 136.71 108.33 135.63 108.17 134.86 108.74 Z M 134.02 109.37 L 133.28 109.93 C 132.52 110.51 132.38 111.59 132.96 112.35 C 133.54 113.10 134.62 113.25 135.37 112.67 L 136.11 112.11 C 136.86 111.53 137.01 110.45 136.43 109.69 C 135.85 108.94 134.77 108.79 134.02 109.37 Z M 133.27 109.94 L 132.51 110.53 C 131.75 111.11 131.62 112.20 132.20 112.95 C 132.78 113.70 133.86 113.84 134.61 113.26 L 135.38 112.66 C 136.13 112.08 136.27 111.00 135.69 110.25 C 135.11 109.49 134.02 109.36 133.27 109.94 Z M 132.50 110.53 L 131.69 111.17 C 130.94 111.75 130.80 112.83 131.38 113.58 C 131.97 114.34 133.05 114.47 133.80 113.89 L 134.62 113.25 C 135.37 112.67 135.50 111.59 134.92 110.84 C 134.34 110.09 133.25 109.95 132.50 110.53 Z M 131.69 111.16 L 130.82 111.84 C 130.06 112.42 129.92 113.51 130.51 114.26 C 131.09 115.01 132.17 115.15 132.92 114.57 L 133.80 113.89 C 134.55 113.31 134.69 112.23 134.11 111.47 C 133.53 110.72 132.44 110.58 131.69 111.16 Z M 130.82 111.84 L 130.06 112.42 C 129.31 113.00 129.16 114.08 129.74 114.84 C 130.32 115.59 131.41 115.73 132.16 115.15 L 132.92 114.57 C 133.67 113.99 133.82 112.91 133.24 112.15 C 132.66 111.40 131.58 111.26 130.82 111.84 Z M 130.06 112.42 L 129.27 113.02 C 128.51 113.60 128.37 114.68 128.94 115.44 C 129.52 116.20 130.60 116.34 131.36 115.76 L 132.16 115.16 C 132.91 114.58 133.06 113.50 132.48 112.74 C 131.90 111.98 130.82 111.84 130.06 112.42 Z M 129.27 113.02 L 128.45 113.64 C 127.70 114.22 127.55 115.30 128.13 116.06 C 128.71 116.82 129.79 116.96 130.54 116.39 L 131.36 115.77 C 132.12 115.19 132.26 114.11 131.69 113.35 C 131.11 112.59 130.03 112.45 129.27 113.02 Z M 128.45 113.64 L 127.64 114.27 C 126.88 114.84 126.73 115.93 127.31 116.68 C 127.89 117.44 128.97 117.59 129.73 117.01 L 130.54 116.39 C 131.30 115.81 131.45 114.73 130.87 113.97 C 130.29 113.21 129.21 113.07 128.45 113.64 Z M 127.64 114.27 L 126.84 114.88 C 126.08 115.45 125.94 116.54 126.51 117.29 C 127.09 118.05 128.17 118.20 128.93 117.62 L 129.73 117.01 C 130.49 116.43 130.63 115.35 130.05 114.59 C 129.48 113.84 128.39 113.69 127.64 114.27 Z M 126.84 114.88 L 126.01 115.51 C 125.25 116.09 125.11 117.17 125.69 117.93 C 126.27 118.68 127.35 118.83 128.11 118.25 L 128.93 117.62 C 129.69 117.04 129.83 115.96 129.25 115.20 C 128.67 114.44 127.59 114.30 126.84 114.88 Z M 126.01 115.51 L 125.18 116.15 C 124.42 116.73 124.28 117.82 124.87 118.57 C 125.45 119.32 126.53 119.46 127.28 118.88 L 128.11 118.24 C 128.87 117.66 129.01 116.58 128.42 115.83 C 127.84 115.07 126.76 114.93 126.01 115.51 Z M 125.17 116.16 L 124.38 116.77 C 123.63 117.35 123.50 118.44 124.08 119.19 C 124.66 119.94 125.75 120.08 126.50 119.49 L 127.29 118.88 C 128.04 118.30 128.18 117.21 127.59 116.46 C 127.01 115.71 125.93 115.57 125.17 116.16 Z M 124.38 116.77 L 123.62 117.37 C 122.87 117.96 122.74 119.04 123.32 119.79 C 123.91 120.54 124.99 120.67 125.74 120.08 L 126.51 119.49 C 127.25 118.90 127.39 117.82 126.80 117.07 C 126.21 116.32 125.13 116.19 124.38 116.77 Z M 123.61 117.37 L 122.86 117.96 C 122.12 118.56 121.99 119.64 122.58 120.39 C 123.17 121.13 124.26 121.26 125.00 120.67 L 125.75 120.08 C 126.50 119.49 126.62 118.40 126.03 117.66 C 125.44 116.91 124.36 116.78 123.61 117.37 Z M 122.86 117.97 L 122.09 118.58 C 121.34 119.18 121.22 120.26 121.82 121.01 C 122.41 121.75 123.49 121.87 124.24 121.28 L 125.01 120.66 C 125.75 120.07 125.87 118.99 125.28 118.24 C 124.69 117.50 123.60 117.38 122.86 117.97 Z M 122.08 118.59 L 121.30 119.21 C 120.56 119.81 120.44 120.90 121.04 121.64 C 121.64 122.38 122.72 122.50 123.46 121.90 L 124.24 121.28 C 124.98 120.68 125.10 119.59 124.51 118.85 C 123.91 118.11 122.83 117.99 122.08 118.59 Z M 121.30 119.22 L 120.52 119.84 C 119.78 120.44 119.66 121.53 120.26 122.27 C 120.86 123.01 121.94 123.13 122.68 122.53 L 123.46 121.90 C 124.21 121.30 124.32 120.22 123.73 119.48 C 123.13 118.74 122.04 118.62 121.30 119.22 Z M 120.52 119.84 L 119.74 120.47 C 119.00 121.07 118.88 122.15 119.48 122.89 C 120.08 123.64 121.16 123.75 121.90 123.16 L 122.68 122.53 C 123.43 121.93 123.54 120.85 122.95 120.11 C 122.35 119.36 121.27 119.25 120.52 119.84 Z M 119.75 120.47 L 118.96 121.09 C 118.22 121.69 118.10 122.77 118.69 123.52 C 119.28 124.26 120.37 124.38 121.11 123.79 L 121.90 123.16 C 122.64 122.57 122.76 121.48 122.17 120.74 C 121.58 119.99 120.49 119.87 119.75 120.47 Z M 118.97 121.09 L 118.15 121.74 C 117.40 122.33 117.27 123.42 117.86 124.16 C 118.46 124.91 119.54 125.03 120.29 124.44 L 121.11 123.79 C 121.85 123.20 121.98 122.12 121.39 121.37 C 120.80 120.63 119.71 120.50 118.97 121.09 Z M 118.15 121.74 L 117.34 122.37 C 116.59 122.96 116.47 124.05 117.06 124.79 C 117.65 125.54 118.73 125.67 119.48 125.08 L 120.28 124.45 C 121.03 123.86 121.16 122.77 120.57 122.03 C 119.98 121.28 118.90 121.15 118.15 121.74 Z M 117.34 122.38 L 116.56 122.99 C 115.82 123.58 115.69 124.66 116.28 125.41 C 116.87 126.16 117.95 126.28 118.70 125.69 L 119.48 125.08 C 120.22 124.49 120.35 123.41 119.76 122.66 C 119.17 121.91 118.09 121.79 117.34 122.38 Z M 116.56 123.00 L 115.82 123.58 C 115.08 124.18 114.95 125.26 115.55 126.00 C 116.14 126.75 117.22 126.87 117.97 126.28 L 118.70 125.69 C 119.45 125.10 119.57 124.01 118.98 123.27 C 118.39 122.53 117.30 122.40 116.56 123.00 Z M 115.81 123.59 L 115.00 124.25 C 114.26 124.85 114.15 125.93 114.75 126.67 C 115.35 127.41 116.43 127.52 117.17 126.92 L 117.98 126.27 C 118.72 125.67 118.83 124.58 118.23 123.85 C 117.63 123.11 116.55 122.99 115.81 123.59 Z M 114.98 124.26 L 114.21 124.91 C 113.48 125.52 113.38 126.60 113.99 127.33 C 114.60 128.06 115.68 128.16 116.41 127.55 L 117.19 126.91 C 117.92 126.30 118.01 125.22 117.41 124.49 C 116.80 123.75 115.71 123.66 114.98 124.26 Z M 114.19 124.93 L 113.46 125.56 C 112.74 126.17 112.66 127.26 113.27 127.98 C 113.89 128.70 114.98 128.78 115.70 128.16 L 116.43 127.53 C 117.15 126.92 117.23 125.83 116.61 125.11 C 116.00 124.39 114.91 124.31 114.19 124.93 Z M 113.43 125.58 L 112.63 126.30 C 111.92 126.93 111.85 128.02 112.49 128.72 C 113.12 129.43 114.20 129.50 114.91 128.86 L 115.72 128.14 C 116.43 127.51 116.49 126.42 115.86 125.72 C 115.23 125.01 114.14 124.95 113.43 125.58 Z M 112.55 126.37 L 111.69 127.23 C 111.02 127.91 111.02 128.99 111.70 129.66 C 112.37 130.33 113.46 130.33 114.12 129.66 L 114.99 128.79 C 115.65 128.12 115.65 127.03 114.98 126.36 C 114.31 125.70 113.22 125.70 112.55 126.37 Z M 111.33 127.78 L 111.09 128.34 C 110.72 129.21 111.13 130.22 112.00 130.59 C 112.87 130.96 113.88 130.55 114.25 129.68 L 114.49 129.11 C 114.86 128.24 114.45 127.23 113.58 126.87 C 112.70 126.50 111.70 126.90 111.33 127.78 Z M 112.37 130.69 L 112.98 130.80 C 113.91 130.97 114.80 130.35 114.96 129.42 C 115.13 128.49 114.51 127.60 113.58 127.43 L 112.97 127.32 C 112.04 127.15 111.15 127.77 110.98 128.71 C 110.82 129.64 111.44 130.53 112.37 130.69 Z M 113.08 130.81 L 114.09 130.93 C 115.03 131.04 115.88 130.37 115.99 129.43 C 116.10 128.49 115.43 127.64 114.49 127.53 L 113.47 127.42 C 112.54 127.31 111.69 127.98 111.58 128.92 C 111.47 129.86 112.14 130.71 113.08 130.81 Z M 113.27 130.60 L 114.13 131.24 C 114.89 131.80 115.95 131.64 116.52 130.88 C 117.08 130.13 116.92 129.06 116.16 128.50 L 115.31 127.86 C 114.55 127.30 113.48 127.46 112.92 128.22 C 112.36 128.97 112.52 130.04 113.27 130.60 Z M 113.55 130.46 L 113.82 131.19 C 114.15 132.07 115.13 132.52 116.01 132.19 C 116.90 131.86 117.34 130.88 117.01 129.99 L 116.74 129.27 C 116.41 128.39 115.43 127.94 114.55 128.27 C 113.67 128.60 113.22 129.58 113.55 130.46 Z M 113.73 130.82 L 113.86 131.76 C 113.98 132.70 114.84 133.35 115.78 133.22 C 116.71 133.09 117.36 132.23 117.23 131.30 L 117.11 130.36 C 116.98 129.43 116.12 128.77 115.18 128.90 C 114.25 129.03 113.60 129.89 113.73 130.82 Z M 113.84 131.57 L 113.87 132.64 C 113.89 133.58 114.67 134.33 115.61 134.30 C 116.55 134.28 117.29 133.50 117.27 132.56 L 117.25 131.49 C 117.23 130.55 116.45 129.81 115.51 129.83 C 114.57 129.85 113.82 130.63 113.84 131.57 Z M 113.87 132.53 L 113.82 133.65 C 113.79 134.59 114.52 135.38 115.46 135.42 C 116.40 135.46 117.19 134.72 117.23 133.78 L 117.27 132.67 C 117.31 131.73 116.58 130.93 115.64 130.90 C 114.70 130.86 113.90 131.59 113.87 132.53 Z M 113.83 133.60 L 113.75 134.68 C 113.69 135.62 114.39 136.43 115.33 136.50 C 116.27 136.56 117.09 135.85 117.15 134.91 L 117.22 133.83 C 117.29 132.90 116.58 132.08 115.64 132.02 C 114.70 131.95 113.89 132.66 113.83 133.60 Z M 113.75 134.67 L 113.66 135.84 C 113.59 136.78 114.30 137.59 115.24 137.66 C 116.17 137.73 116.99 137.03 117.06 136.09 L 117.15 134.92 C 117.22 133.99 116.52 133.17 115.58 133.10 C 114.64 133.03 113.82 133.73 113.75 134.67 Z M 113.66 135.84 L 113.58 136.87 C 113.51 137.81 114.22 138.63 115.15 138.70 C 116.09 138.77 116.91 138.07 116.98 137.13 L 117.06 136.09 C 117.13 135.16 116.43 134.34 115.49 134.27 C 114.55 134.19 113.74 134.90 113.66 135.84 Z M 113.58 136.87 L 113.51 137.80 C 113.44 138.74 114.14 139.56 115.07 139.64 C 116.01 139.71 116.83 139.01 116.91 138.07 L 116.98 137.14 C 117.06 136.20 116.36 135.38 115.42 135.30 C 114.48 135.23 113.66 135.93 113.58 136.87 Z M 113.51 137.79 L 113.44 138.68 C 113.36 139.61 114.05 140.44 114.99 140.52 C 115.93 140.60 116.75 139.90 116.83 138.97 L 116.91 138.08 C 116.99 137.15 116.29 136.32 115.35 136.24 C 114.42 136.16 113.59 136.86 113.51 137.79 Z M 113.44 138.66 L 113.35 139.61 C 113.26 140.55 113.95 141.38 114.89 141.47 C 115.83 141.56 116.66 140.87 116.74 139.93 L 116.83 138.98 C 116.92 138.04 116.23 137.21 115.29 137.12 C 114.35 137.04 113.52 137.72 113.44 138.66 Z M 113.35 139.61 L 113.25 140.60 C 113.16 141.53 113.85 142.37 114.78 142.46 C 115.72 142.55 116.56 141.86 116.65 140.93 L 116.74 139.94 C 116.84 139.00 116.15 138.17 115.21 138.07 C 114.27 137.98 113.44 138.67 113.35 139.61 Z M 113.25 140.60 L 113.15 141.59 C 113.06 142.53 113.75 143.37 114.69 143.46 C 115.62 143.55 116.46 142.86 116.55 141.93 L 116.65 140.93 C 116.74 139.99 116.05 139.15 115.11 139.06 C 114.18 138.97 113.34 139.66 113.25 140.60 Z M 113.15 141.60 L 113.06 142.61 C 112.98 143.55 113.67 144.38 114.60 144.47 C 115.54 144.55 116.37 143.86 116.46 142.92 L 116.55 141.92 C 116.64 140.98 115.95 140.15 115.01 140.06 C 114.07 139.98 113.24 140.67 113.15 141.60 Z M 113.06 142.63 L 112.98 143.60 C 112.90 144.54 113.60 145.36 114.54 145.44 C 115.48 145.52 116.30 144.82 116.38 143.88 L 116.46 142.91 C 116.54 141.97 115.84 141.15 114.90 141.07 C 113.96 140.99 113.14 141.69 113.06 142.63 Z M 112.98 143.61 L 112.90 144.60 C 112.83 145.54 113.53 146.36 114.47 146.43 C 115.41 146.50 116.23 145.80 116.30 144.86 L 116.38 143.87 C 116.45 142.94 115.75 142.11 114.81 142.04 C 113.87 141.97 113.05 142.67 112.98 143.61 Z M 112.90 144.60 L 112.82 145.60 C 112.75 146.54 113.45 147.36 114.39 147.43 C 115.33 147.51 116.15 146.80 116.22 145.86 L 116.30 144.86 C 116.37 143.92 115.67 143.10 114.73 143.03 C 113.79 142.96 112.97 143.66 112.90 144.60 Z M 112.82 145.60 L 112.74 146.62 C 112.67 147.56 113.37 148.38 114.31 148.46 C 115.25 148.53 116.07 147.83 116.14 146.89 L 116.22 145.87 C 116.30 144.93 115.60 144.11 114.66 144.03 C 113.72 143.96 112.90 144.66 112.82 145.60 Z M 112.74 146.61 L 112.66 147.63 C 112.58 148.57 113.27 149.39 114.21 149.47 C 115.15 149.55 115.98 148.86 116.05 147.92 L 116.14 146.90 C 116.22 145.96 115.52 145.14 114.59 145.06 C 113.65 144.98 112.82 145.68 112.74 146.61 Z M 112.66 147.63 L 112.57 148.65 C 112.49 149.58 113.18 150.41 114.12 150.49 C 115.06 150.57 115.88 149.88 115.97 148.94 L 116.05 147.92 C 116.13 146.98 115.44 146.16 114.50 146.08 C 113.56 146.00 112.74 146.69 112.66 147.63 Z M 112.57 148.65 L 112.49 149.64 C 112.41 150.58 113.11 151.40 114.04 151.48 C 114.98 151.56 115.80 150.86 115.88 149.93 L 115.96 148.93 C 116.04 148.00 115.35 147.17 114.41 147.10 C 113.47 147.02 112.65 147.71 112.57 148.65 Z M 112.49 149.66 L 112.42 150.62 C 112.35 151.56 113.05 152.38 113.98 152.45 C 114.92 152.52 115.74 151.82 115.81 150.88 L 115.88 149.91 C 115.95 148.98 115.25 148.16 114.31 148.09 C 113.38 148.02 112.56 148.72 112.49 149.66 Z M 112.42 150.65 L 112.36 151.68 C 112.30 152.62 113.02 153.42 113.96 153.48 C 114.89 153.53 115.70 152.82 115.75 151.88 L 115.81 150.85 C 115.86 149.91 115.15 149.11 114.21 149.05 C 113.27 149.00 112.47 149.71 112.42 150.65 Z M 112.35 151.75 L 112.33 152.73 C 112.32 153.67 113.06 154.45 114.00 154.46 C 114.94 154.48 115.72 153.74 115.73 152.80 L 115.75 151.81 C 115.77 150.87 115.02 150.10 114.09 150.08 C 113.15 150.06 112.37 150.81 112.35 151.75 Z M 112.34 152.83 L 112.37 153.81 C 112.41 154.74 113.20 155.47 114.14 155.44 C 115.07 155.40 115.81 154.61 115.77 153.68 L 115.73 152.70 C 115.70 151.76 114.91 151.03 113.97 151.07 C 113.03 151.10 112.30 151.89 112.34 152.83 Z M 112.37 153.92 L 112.48 154.91 C 112.58 155.85 113.42 156.53 114.36 156.43 C 115.30 156.32 115.98 155.48 115.88 154.55 L 115.77 153.56 C 115.67 152.62 114.83 151.94 113.89 152.04 C 112.95 152.14 112.27 152.99 112.37 153.92 Z M 112.48 155.03 L 112.65 156.03 C 112.82 156.97 113.71 157.59 114.65 157.43 C 115.59 157.26 116.22 156.37 116.06 155.43 L 115.88 154.43 C 115.71 153.49 114.82 152.86 113.88 153.03 C 112.94 153.19 112.31 154.09 112.48 155.03 Z M 112.65 156.14 L 112.89 157.12 C 113.12 158.07 114.07 158.64 115.01 158.41 C 115.95 158.18 116.53 157.23 116.30 156.29 L 116.06 155.31 C 115.83 154.37 114.88 153.79 113.94 154.02 C 113.00 154.25 112.42 155.20 112.65 156.14 Z M 112.90 157.25 L 113.20 158.17 C 113.50 159.10 114.50 159.62 115.44 159.32 C 116.37 159.02 116.88 158.01 116.58 157.08 L 116.29 156.16 C 115.98 155.23 114.98 154.72 114.05 155.02 C 113.12 155.32 112.60 156.32 112.90 157.25 Z M 113.24 158.30 L 113.58 159.12 C 113.95 160.03 114.99 160.46 115.90 160.09 C 116.81 159.71 117.25 158.67 116.87 157.76 L 116.54 156.95 C 116.17 156.04 115.13 155.61 114.22 155.98 C 113.31 156.35 112.87 157.39 113.24 158.30 Z M 113.64 159.22 L 114.04 160.05 C 114.47 160.93 115.54 161.29 116.41 160.86 C 117.29 160.43 117.65 159.37 117.22 158.49 L 116.81 157.66 C 116.38 156.78 115.32 156.42 114.44 156.85 C 113.57 157.28 113.20 158.34 113.64 159.22 Z M 114.09 160.11 L 114.60 161.05 C 115.06 161.90 116.13 162.21 116.98 161.75 C 117.84 161.28 118.15 160.22 117.69 159.36 L 117.18 158.43 C 116.71 157.58 115.64 157.26 114.79 157.73 C 113.94 158.19 113.62 159.26 114.09 160.11 Z M 114.62 161.07 L 115.15 162.01 C 115.63 162.85 116.69 163.14 117.54 162.67 C 118.38 162.19 118.67 161.12 118.20 160.28 L 117.66 159.34 C 117.19 158.50 116.12 158.20 115.28 158.68 C 114.44 159.16 114.14 160.23 114.62 161.07 Z M 115.15 162.01 L 115.59 162.77 C 116.07 163.61 117.14 163.90 117.97 163.42 C 118.81 162.94 119.10 161.87 118.62 161.03 L 118.19 160.27 C 117.71 159.44 116.64 159.14 115.80 159.62 C 114.97 160.10 114.68 161.17 115.15 162.01 Z M 115.59 162.77 L 116.07 163.60 C 116.55 164.43 117.62 164.72 118.45 164.24 C 119.29 163.76 119.58 162.69 119.10 161.85 L 118.62 161.03 C 118.14 160.19 117.07 159.90 116.23 160.39 C 115.40 160.87 115.11 161.94 115.59 162.77 Z M 116.07 163.60 L 116.58 164.48 C 117.06 165.31 118.13 165.60 118.97 165.11 C 119.80 164.63 120.09 163.56 119.60 162.72 L 119.09 161.85 C 118.61 161.01 117.54 160.73 116.70 161.21 C 115.87 161.70 115.58 162.77 116.07 163.60 Z M 116.58 164.48 L 117.11 165.40 C 117.60 166.23 118.67 166.51 119.51 166.02 C 120.34 165.54 120.62 164.47 120.13 163.63 L 119.60 162.72 C 119.11 161.89 118.04 161.60 117.21 162.09 C 116.37 162.58 116.09 163.65 116.58 164.48 Z M 117.12 165.40 L 117.67 166.34 C 118.16 167.17 119.23 167.45 120.06 166.96 C 120.89 166.47 121.17 165.40 120.68 164.56 L 120.13 163.63 C 119.64 162.80 118.57 162.52 117.74 163.01 C 116.90 163.50 116.63 164.57 117.12 165.40 Z M 117.67 166.34 L 118.23 167.29 C 118.72 168.12 119.80 168.39 120.63 167.90 C 121.46 167.41 121.73 166.33 121.24 165.50 L 120.68 164.56 C 120.19 163.73 119.11 163.45 118.28 163.95 C 117.45 164.44 117.18 165.51 117.67 166.34 Z M 118.23 167.30 L 118.80 168.23 C 119.29 169.06 120.37 169.33 121.20 168.83 C 122.02 168.34 122.29 167.26 121.80 166.43 L 121.24 165.50 C 120.74 164.67 119.66 164.40 118.84 164.90 C 118.01 165.39 117.74 166.47 118.23 167.30 Z M 118.80 168.24 L 119.36 169.16 C 119.86 169.98 120.93 170.25 121.76 169.75 C 122.59 169.24 122.85 168.17 122.35 167.34 L 121.79 166.42 C 121.29 165.60 120.21 165.33 119.39 165.84 C 118.56 166.34 118.30 167.41 118.80 168.24 Z M 119.36 169.17 L 119.91 170.05 C 120.41 170.88 121.49 171.13 122.32 170.63 C 123.14 170.12 123.40 169.04 122.89 168.22 L 122.34 167.33 C 121.84 166.51 120.76 166.25 119.94 166.76 C 119.11 167.26 118.86 168.34 119.36 169.17 Z M 119.91 170.07 L 120.44 170.91 C 120.96 171.73 122.04 171.98 122.86 171.47 C 123.68 170.95 123.92 169.87 123.41 169.05 L 122.88 168.21 C 122.37 167.39 121.29 167.14 120.47 167.65 C 119.65 168.17 119.40 169.25 119.91 170.07 Z M 120.45 170.93 L 120.96 171.72 C 121.48 172.53 122.56 172.77 123.38 172.25 C 124.19 171.73 124.43 170.64 123.91 169.83 L 123.40 169.04 C 122.88 168.22 121.80 167.99 120.98 168.51 C 120.17 169.03 119.93 170.11 120.45 170.93 Z M 120.97 171.73 L 121.45 172.46 C 121.98 173.27 123.06 173.49 123.87 172.96 C 124.68 172.43 124.90 171.34 124.37 170.53 L 123.90 169.81 C 123.36 169.00 122.28 168.78 121.47 169.31 C 120.66 169.84 120.44 170.93 120.97 171.73 Z M 121.47 172.49 L 122.13 173.45 C 122.68 174.24 123.77 174.44 124.56 173.90 C 125.36 173.35 125.56 172.26 125.01 171.46 L 124.35 170.50 C 123.80 169.71 122.71 169.51 121.92 170.05 C 121.12 170.60 120.92 171.69 121.47 172.49 Z M 122.17 173.50 L 122.79 174.34 C 123.37 175.11 124.46 175.27 125.24 174.70 C 126.01 174.12 126.18 173.02 125.60 172.25 L 124.97 171.41 C 124.40 170.63 123.30 170.47 122.53 171.05 C 121.75 171.63 121.59 172.72 122.17 173.50 Z M 122.84 174.40 L 123.42 175.11 C 124.03 175.86 125.13 175.98 125.88 175.36 C 126.63 174.75 126.74 173.65 126.13 172.90 L 125.55 172.19 C 124.94 171.44 123.84 171.33 123.09 171.94 C 122.34 172.55 122.23 173.65 122.84 174.40 Z M 123.47 175.18 L 124.04 175.81 C 124.69 176.53 125.80 176.59 126.52 175.94 C 127.24 175.30 127.29 174.19 126.65 173.47 L 126.08 172.84 C 125.43 172.12 124.33 172.06 123.61 172.71 C 122.89 173.35 122.83 174.46 123.47 175.18 Z M 124.10 175.87 L 124.80 176.58 C 125.48 177.27 126.59 177.27 127.28 176.59 C 127.96 175.91 127.97 174.80 127.29 174.11 L 126.59 173.41 C 125.91 172.72 124.80 172.72 124.11 173.40 C 123.43 174.08 123.42 175.19 124.10 175.87 Z M 124.85 176.64 L 125.58 177.31 C 126.30 177.97 127.41 177.92 128.06 177.21 C 128.72 176.50 128.68 175.39 127.96 174.73 L 127.23 174.06 C 126.52 173.40 125.41 173.44 124.75 174.16 C 124.10 174.87 124.14 175.98 124.85 176.64 Z M 125.63 177.35 L 126.39 178.01 C 127.13 178.64 128.24 178.56 128.87 177.82 C 129.50 177.08 129.42 175.97 128.68 175.34 L 127.92 174.69 C 127.18 174.05 126.07 174.14 125.44 174.88 C 124.81 175.61 124.89 176.72 125.63 177.35 Z M 126.42 178.04 L 127.20 178.67 C 127.95 179.28 129.06 179.17 129.67 178.42 C 130.29 177.66 130.17 176.55 129.42 175.94 L 128.65 175.31 C 127.89 174.70 126.79 174.81 126.17 175.56 C 125.56 176.32 125.67 177.42 126.42 178.04 Z M 127.21 178.68 L 128.00 179.31 C 128.76 179.91 129.86 179.79 130.47 179.03 C 131.07 178.27 130.95 177.16 130.19 176.55 L 129.41 175.93 C 128.65 175.32 127.54 175.45 126.93 176.21 C 126.33 176.97 126.45 178.08 127.21 178.68 Z M 127.99 179.30 L 128.77 179.93 C 129.53 180.54 130.64 180.42 131.25 179.66 C 131.86 178.90 131.74 177.80 130.98 177.19 L 130.19 176.56 C 129.44 175.95 128.33 176.07 127.72 176.83 C 127.11 177.58 127.23 178.69 127.99 179.30 Z M 128.75 179.91 L 129.50 180.53 C 130.24 181.16 131.35 181.06 131.97 180.31 C 132.60 179.57 132.50 178.46 131.75 177.84 L 131.01 177.21 C 130.26 176.59 129.15 176.69 128.53 177.43 C 127.91 178.18 128.00 179.28 128.75 179.91 Z M 129.44 180.48 L 130.12 181.10 C 130.83 181.76 131.95 181.71 132.60 180.99 C 133.26 180.27 133.21 179.16 132.49 178.51 L 131.81 177.89 C 131.09 177.23 129.98 177.28 129.33 178.00 C 128.67 178.71 128.72 179.83 129.44 180.48 Z M 130.02 181.01 L 130.68 181.71 C 131.34 182.42 132.46 182.46 133.16 181.80 C 133.87 181.13 133.91 180.02 133.25 179.31 L 132.59 178.60 C 131.92 177.89 130.81 177.86 130.10 178.52 C 129.39 179.18 129.35 180.30 130.02 181.01 Z M 130.56 181.58 L 131.21 182.43 C 131.80 183.20 132.91 183.35 133.68 182.76 C 134.45 182.17 134.60 181.06 134.01 180.29 L 133.36 179.44 C 132.77 178.67 131.67 178.52 130.89 179.11 C 130.12 179.70 129.97 180.81 130.56 181.58 Z M 131.11 182.29 L 131.68 183.21 C 132.20 184.04 133.29 184.29 134.12 183.77 C 134.94 183.26 135.20 182.17 134.68 181.34 L 134.11 180.43 C 133.60 179.60 132.51 179.35 131.68 179.86 C 130.85 180.38 130.60 181.47 131.11 182.29 Z M 131.60 183.08 L 132.08 184.03 C 132.53 184.91 133.60 185.26 134.48 184.81 C 135.35 184.36 135.70 183.29 135.25 182.42 L 134.77 181.47 C 134.32 180.59 133.25 180.24 132.37 180.69 C 131.50 181.14 131.15 182.21 131.60 183.08 Z M 132.00 183.88 L 132.38 184.87 C 132.74 185.79 133.79 186.24 134.71 185.88 C 135.63 185.52 136.09 184.48 135.72 183.56 L 135.34 182.57 C 134.98 181.65 133.93 181.19 133.01 181.55 C 132.09 181.92 131.63 182.96 132.00 183.88 Z M 132.29 184.63 L 132.52 185.58 C 132.75 186.56 133.73 187.16 134.70 186.92 C 135.67 186.69 136.27 185.72 136.04 184.74 L 135.81 183.79 C 135.58 182.82 134.61 182.22 133.63 182.45 C 132.66 182.68 132.06 183.66 132.29 184.63 Z M 132.45 185.17 L 132.46 186.04 C 132.46 187.05 133.28 187.86 134.29 187.86 C 135.30 187.85 136.11 187.03 136.11 186.02 L 136.11 185.16 C 136.10 184.15 135.28 183.33 134.27 183.34 C 133.26 183.34 132.45 184.16 132.45 185.17 Z M 132.60 185.32 L 132.23 186.20 C 131.84 187.13 132.27 188.20 133.20 188.59 C 134.13 188.98 135.21 188.55 135.60 187.62 L 135.97 186.74 C 136.36 185.81 135.92 184.74 134.99 184.35 C 134.06 183.95 132.99 184.39 132.60 185.32 Z M 132.61 185.63 L 131.94 186.32 C 131.24 187.04 131.25 188.19 131.97 188.89 C 132.68 189.60 133.84 189.59 134.54 188.87 L 135.21 188.18 C 135.92 187.46 135.90 186.31 135.19 185.61 C 134.47 184.90 133.32 184.92 132.61 185.63 Z M 132.19 186.12 L 131.36 186.71 C 130.55 187.28 130.35 188.41 130.93 189.23 C 131.51 190.04 132.64 190.24 133.45 189.66 L 134.28 189.07 C 135.10 188.50 135.29 187.37 134.72 186.55 C 134.14 185.74 133.01 185.54 132.19 186.12 Z M 131.41 186.71 L 130.58 187.26 C 129.77 187.81 129.55 188.92 130.10 189.74 C 130.65 190.55 131.76 190.77 132.57 190.22 L 133.40 189.66 C 134.22 189.11 134.43 188.00 133.88 187.19 C 133.34 186.37 132.23 186.16 131.41 186.71 Z M 130.57 187.35 L 129.78 187.92 C 129.01 188.48 128.84 189.56 129.40 190.32 C 129.96 191.09 131.03 191.26 131.80 190.70 L 132.59 190.13 C 133.36 189.57 133.53 188.50 132.97 187.73 C 132.41 186.96 131.34 186.79 130.57 187.35 Z M 129.80 188.01 L 129.01 188.61 C 128.28 189.16 128.15 190.19 128.69 190.91 C 129.24 191.63 130.27 191.77 131.00 191.22 L 131.79 190.62 C 132.51 190.07 132.65 189.04 132.10 188.32 C 131.55 187.60 130.52 187.46 129.80 188.01 Z M 129.05 188.67 L 128.22 189.31 C 127.53 189.84 127.41 190.82 127.94 191.51 C 128.46 192.19 129.45 192.32 130.13 191.79 L 130.96 191.16 C 131.64 190.63 131.77 189.64 131.24 188.96 C 130.71 188.27 129.73 188.15 129.05 188.67 Z M 128.26 189.34 L 127.50 189.92 C 126.84 190.43 126.71 191.38 127.21 192.04 C 127.72 192.71 128.67 192.84 129.34 192.33 L 130.09 191.76 C 130.76 191.25 130.89 190.30 130.38 189.63 C 129.88 188.97 128.92 188.84 128.26 189.34 Z M 127.52 189.93 L 126.73 190.52 C 126.07 191.02 125.94 191.96 126.44 192.62 C 126.93 193.28 127.87 193.41 128.53 192.91 L 129.32 192.32 C 129.98 191.83 130.11 190.89 129.62 190.23 C 129.12 189.57 128.18 189.44 127.52 189.93 Z M 126.75 190.54 L 125.94 191.15 C 125.28 191.63 125.15 192.55 125.63 193.21 C 126.12 193.86 127.04 193.99 127.69 193.51 L 128.51 192.90 C 129.16 192.41 129.30 191.49 128.81 190.84 C 128.33 190.19 127.40 190.05 126.75 190.54 Z M 125.95 191.16 L 125.12 191.78 C 124.47 192.26 124.34 193.16 124.82 193.81 C 125.29 194.45 126.20 194.59 126.85 194.11 L 127.68 193.49 C 128.32 193.02 128.46 192.11 127.98 191.46 C 127.50 190.82 126.59 190.68 125.95 191.16 Z M 125.13 191.79 L 124.86 191.98 C 124.22 192.46 124.09 193.36 124.56 194.00 C 125.04 194.63 125.94 194.77 126.57 194.29 L 126.84 194.10 C 127.48 193.63 127.61 192.73 127.14 192.09 C 126.67 191.45 125.76 191.32 125.13 191.79 Z"
      fill="black"
      fill-rule="nonzero" /></svg>