<svg xmlns="http://www.w3.org/2000/svg" width="300" height="300" viewBox="0 0 300 300">
<path d="M 103.01 98.58 L 102.95 99.49 C 102.89 100.35 103.54 101.08 104.39 101.14 C 105.24 101.19 105.98 100.55 106.04 99.69 L 106.10 98.78 C 106.15 97.93 105.51 97.19 104.65 97.14 C 103.80 97.08 103.06 97.73 103.01 98.58 Z M 102.91 99.52 L 102.87 100.46 C 102.83 101.34 103.51 102.07 104.38 102.11 C 105.25 102.15 105.99 101.48 106.03 100.61 L 106.07 99.66 C 106.11 98.79 105.44 98.05 104.56 98.01 C 103.69 97.98 102.95 98.65 102.91 99.52 Z M 102.84 100.52 L 102.83 101.53 C 102.82 102.42 103.54 103.15 104.43 103.15 C 105.32 103.16 106.05 102.44 106.06 101.55 L 106.06 100.55 C 106.07 99.66 105.35 98.93 104.46 98.92 C 103.57 98.91 102.84 99.63 102.84 100.52 Z M 102.80 101.61 L 102.84 102.70 C 102.88 103.61 103.65 104.32 104.55 104.28 C 105.46 104.25 106.17 103.48 106.13 102.57 L 106.09 101.47 C 106.05 100.56 105.28 99.86 104.38 99.89 C 103.47 99.93 102.76 100.70 102.80 101.61 Z M 102.83 102.78 L 102.91 103.77 C 102.99 104.68 103.80 105.36 104.72 105.28 C 105.64 105.20 106.32 104.39 106.24 103.48 L 106.15 102.49 C 106.07 101.57 105.26 100.89 104.34 100.97 C 103.42 101.05 102.75 101.86 102.83 102.78 Z M 102.91 103.82 L 103.03 104.79 C 103.13 105.71 103.97 106.37 104.89 106.26 C 105.80 106.15 106.46 105.32 106.35 104.40 L 106.24 103.42 C 106.13 102.51 105.30 101.85 104.38 101.96 C 103.46 102.07 102.80 102.90 102.91 103.82 Z M 103.03 104.83 L 103.17 105.84 C 103.29 106.76 104.14 107.40 105.06 107.27 C 105.98 107.15 106.62 106.30 106.49 105.38 L 106.35 104.37 C 106.23 103.45 105.38 102.81 104.46 102.94 C 103.54 103.06 102.90 103.91 103.03 104.83 Z M 103.17 105.86 L 103.32 106.88 C 103.45 107.80 104.31 108.43 105.23 108.29 C 106.15 108.16 106.78 107.30 106.64 106.38 L 106.49 105.36 C 106.35 104.44 105.50 103.81 104.58 103.95 C 103.66 104.08 103.03 104.94 103.17 105.86 Z M 103.32 106.89 L 103.47 107.90 C 103.61 108.82 104.47 109.45 105.39 109.31 C 106.31 109.17 106.94 108.31 106.80 107.39 L 106.65 106.38 C 106.50 105.46 105.65 104.83 104.73 104.97 C 103.81 105.11 103.18 105.97 103.32 106.89 Z M 103.47 107.89 L 103.62 108.89 C 103.76 109.81 104.61 110.44 105.54 110.31 C 106.46 110.17 107.09 109.31 106.95 108.39 L 106.80 107.39 C 106.67 106.47 105.81 105.84 104.88 105.97 C 103.96 106.11 103.33 106.97 103.47 107.89 Z M 103.61 108.87 L 103.76 109.91 C 103.89 110.84 104.74 111.48 105.67 111.35 C 106.59 111.22 107.24 110.37 107.10 109.44 L 106.96 108.40 C 106.83 107.48 105.97 106.83 105.05 106.97 C 104.13 107.10 103.48 107.95 103.61 108.87 Z M 103.75 109.90 L 103.89 110.89 C 104.01 111.82 104.86 112.47 105.78 112.35 C 106.71 112.23 107.36 111.38 107.24 110.45 L 107.11 109.46 C 106.99 108.53 106.14 107.88 105.21 108.00 C 104.29 108.12 103.63 108.97 103.75 109.90 Z M 103.88 110.88 L 104.00 111.85 C 104.11 112.77 104.96 113.43 105.89 113.32 C 106.81 113.21 107.48 112.36 107.36 111.43 L 107.24 110.47 C 107.13 109.54 106.29 108.88 105.36 108.99 C 104.43 109.10 103.77 109.95 103.88 110.88 Z M 104.00 111.83 L 104.11 112.80 C 104.21 113.73 105.05 114.40 105.98 114.29 C 106.91 114.18 107.58 113.34 107.48 112.41 L 107.37 111.45 C 107.26 110.52 106.42 109.85 105.49 109.95 C 104.56 110.06 103.89 110.90 104.00 111.83 Z M 104.10 112.79 L 104.21 113.75 C 104.31 114.69 105.15 115.36 106.08 115.26 C 107.01 115.16 107.69 114.32 107.59 113.38 L 107.48 112.42 C 107.38 111.49 106.54 110.81 105.61 110.92 C 104.67 111.02 104.00 111.86 104.10 112.79 Z M 104.21 113.75 L 104.30 114.69 C 104.40 115.62 105.24 116.30 106.17 116.20 C 107.11 116.10 107.79 115.27 107.69 114.33 L 107.59 113.39 C 107.49 112.46 106.65 111.78 105.72 111.88 C 104.78 111.98 104.11 112.81 104.21 113.75 Z M 104.30 114.68 L 104.40 115.65 C 104.49 116.59 105.33 117.27 106.26 117.17 C 107.20 117.08 107.88 116.25 107.79 115.31 L 107.69 114.34 C 107.60 113.41 106.76 112.72 105.83 112.82 C 104.89 112.91 104.21 113.74 104.30 114.68 Z M 104.39 115.64 L 104.49 116.64 C 104.57 117.57 105.41 118.26 106.34 118.18 C 107.28 118.09 107.97 117.26 107.88 116.32 L 107.79 115.32 C 107.70 114.38 106.87 113.69 105.93 113.78 C 105.00 113.87 104.31 114.70 104.39 115.64 Z M 104.48 116.62 L 104.57 117.65 C 104.65 118.59 105.48 119.29 106.42 119.21 C 107.36 119.13 108.06 118.30 107.97 117.36 L 107.89 116.33 C 107.81 115.39 106.98 114.70 106.04 114.78 C 105.10 114.86 104.40 115.68 104.48 116.62 Z M 104.57 117.63 L 104.65 118.69 C 104.72 119.63 105.54 120.33 106.48 120.26 C 107.42 120.19 108.13 119.37 108.06 118.43 L 107.98 117.37 C 107.91 116.43 107.09 115.73 106.14 115.80 C 105.20 115.87 104.50 116.69 104.57 117.63 Z M 104.64 118.67 L 104.71 119.63 C 104.77 120.58 105.59 121.29 106.53 121.23 C 107.47 121.16 108.19 120.35 108.13 119.41 L 108.06 118.44 C 108.00 117.50 107.18 116.79 106.24 116.85 C 105.30 116.91 104.58 117.73 104.64 118.67 Z M 104.71 119.62 L 104.76 120.59 C 104.82 121.53 105.63 122.25 106.57 122.20 C 107.52 122.14 108.24 121.33 108.18 120.39 L 108.13 119.42 C 108.07 118.47 107.26 117.75 106.32 117.81 C 105.37 117.86 104.65 118.67 104.71 119.62 Z M 104.76 120.58 L 104.81 121.57 C 104.86 122.51 105.67 123.24 106.61 123.19 C 107.56 123.14 108.29 122.33 108.24 121.39 L 108.19 120.40 C 108.14 119.45 107.33 118.72 106.38 118.77 C 105.44 118.82 104.71 119.63 104.76 120.58 Z M 104.81 121.56 L 104.86 122.57 C 104.90 123.51 105.71 124.24 106.65 124.20 C 107.60 124.15 108.33 123.35 108.29 122.40 L 108.24 121.40 C 108.20 120.45 107.39 119.72 106.44 119.76 C 105.50 119.81 104.76 120.61 104.81 121.56 Z M 104.86 122.56 L 104.90 123.58 C 104.94 124.53 105.75 125.27 106.69 125.23 C 107.64 125.18 108.38 124.38 108.34 123.43 L 108.29 122.41 C 108.25 121.46 107.45 120.72 106.50 120.77 C 105.55 120.81 104.81 121.61 104.86 122.56 Z M 104.90 123.58 L 104.94 124.62 C 104.98 125.57 105.79 126.31 106.74 126.27 C 107.68 126.23 108.42 125.43 108.38 124.48 L 108.34 123.44 C 108.30 122.49 107.50 121.75 106.55 121.79 C 105.60 121.83 104.86 122.63 104.90 123.58 Z M 104.94 124.62 L 104.98 125.59 C 105.02 126.54 105.82 127.28 106.77 127.24 C 107.72 127.20 108.46 126.40 108.42 125.45 L 108.38 124.48 C 108.34 123.53 107.54 122.79 106.59 122.83 C 105.64 122.87 104.90 123.67 104.94 124.62 Z M 104.98 125.59 L 105.02 126.56 C 105.06 127.51 105.86 128.25 106.81 128.21 C 107.76 128.17 108.50 127.37 108.46 126.42 L 108.42 125.45 C 108.39 124.50 107.58 123.76 106.63 123.80 C 105.68 123.84 104.94 124.64 104.98 125.59 Z M 105.02 126.56 L 105.06 127.54 C 105.09 128.49 105.90 129.23 106.85 129.20 C 107.80 129.16 108.54 128.36 108.50 127.41 L 108.46 126.42 C 108.43 125.47 107.63 124.73 106.67 124.77 C 105.72 124.80 104.98 125.61 105.02 126.56 Z M 105.06 127.54 L 105.09 128.54 C 105.13 129.49 105.93 130.23 106.88 130.20 C 107.83 130.16 108.58 129.36 108.54 128.41 L 108.50 127.41 C 108.47 126.46 107.67 125.71 106.72 125.75 C 105.76 125.78 105.02 126.59 105.06 127.54 Z M 105.09 128.53 L 105.13 129.55 C 105.16 130.50 105.96 131.24 106.91 131.21 C 107.87 131.18 108.61 130.38 108.58 129.42 L 108.54 128.41 C 108.51 127.46 107.71 126.71 106.76 126.75 C 105.80 126.78 105.06 127.58 105.09 128.53 Z M 105.13 129.54 L 105.16 130.57 C 105.19 131.52 105.99 132.27 106.94 132.24 C 107.90 132.21 108.64 131.41 108.61 130.46 L 108.58 129.43 C 108.55 128.48 107.75 127.73 106.80 127.76 C 105.84 127.79 105.10 128.59 105.13 129.54 Z M 105.16 130.57 L 105.19 131.60 C 105.22 132.55 106.01 133.30 106.97 133.28 C 107.92 133.25 108.67 132.45 108.64 131.50 L 108.61 130.46 C 108.59 129.51 107.79 128.76 106.84 128.79 C 105.88 128.81 105.13 129.61 105.16 130.57 Z M 105.19 131.59 L 105.21 132.59 C 105.24 133.55 106.03 134.30 106.99 134.27 C 107.94 134.25 108.70 133.45 108.67 132.50 L 108.65 131.50 C 108.62 130.55 107.83 129.80 106.87 129.82 C 105.92 129.85 105.16 130.64 105.19 131.59 Z M 105.21 132.59 L 105.24 133.59 C 105.26 134.55 106.05 135.30 107.01 135.28 C 107.96 135.26 108.72 134.47 108.70 133.51 L 108.67 132.51 C 108.65 131.55 107.86 130.79 106.90 130.82 C 105.95 130.84 105.19 131.63 105.21 132.59 Z M 105.24 133.59 L 105.26 134.60 C 105.28 135.55 106.07 136.31 107.02 136.29 C 107.98 136.27 108.74 135.48 108.72 134.53 L 108.70 133.52 C 108.68 132.56 107.89 131.80 106.93 131.82 C 105.98 131.84 105.22 132.63 105.24 133.59 Z M 105.26 134.59 L 105.27 135.60 C 105.29 136.56 106.08 137.32 107.04 137.30 C 107.99 137.29 108.75 136.50 108.74 135.54 L 108.72 134.53 C 108.70 133.58 107.91 132.82 106.96 132.83 C 106.00 132.85 105.24 133.64 105.26 134.59 Z M 105.27 135.60 L 105.29 136.60 C 105.30 137.56 106.09 138.32 107.05 138.31 C 108.00 138.29 108.77 137.51 108.75 136.55 L 108.74 135.55 C 108.72 134.59 107.93 133.83 106.98 133.84 C 106.02 133.86 105.26 134.64 105.27 135.60 Z M 105.29 136.60 L 105.30 137.59 C 105.31 138.55 106.10 139.31 107.06 139.30 C 108.01 139.29 108.78 138.50 108.77 137.55 L 108.75 136.55 C 108.74 135.60 107.95 134.83 107.00 134.85 C 106.04 134.86 105.28 135.64 105.29 136.60 Z M 105.30 137.59 L 105.31 138.57 C 105.32 139.53 106.11 140.30 107.06 140.29 C 108.02 140.28 108.79 139.49 108.78 138.54 L 108.77 137.55 C 108.76 136.59 107.97 135.83 107.02 135.84 C 106.06 135.85 105.29 136.63 105.30 137.59 Z M 105.31 138.57 L 105.32 139.61 C 105.33 140.57 106.11 141.34 107.07 141.33 C 108.02 141.32 108.79 140.54 108.79 139.58 L 108.78 138.54 C 108.77 137.58 107.99 136.81 107.03 136.82 C 106.07 136.83 105.30 137.61 105.31 138.57 Z M 105.32 139.61 L 105.33 140.63 C 105.33 141.59 106.11 142.36 107.07 142.35 C 108.03 142.35 108.80 141.57 108.79 140.61 L 108.79 139.59 C 108.78 138.63 108.00 137.86 107.04 137.87 C 106.09 137.87 105.31 138.65 105.32 139.61 Z M 105.33 140.63 L 105.33 141.63 C 105.33 142.59 106.11 143.36 107.07 143.36 C 108.03 143.35 108.80 142.58 108.80 141.62 L 108.79 140.61 C 108.79 139.66 108.01 138.88 107.05 138.89 C 106.10 138.89 105.32 139.67 105.33 140.63 Z M 105.33 141.63 L 105.33 142.62 C 105.33 143.58 106.11 144.35 107.07 144.35 C 108.03 144.35 108.80 143.57 108.80 142.61 L 108.80 141.62 C 108.79 140.66 108.02 139.89 107.06 139.89 C 106.10 139.89 105.33 140.67 105.33 141.63 Z M 105.33 142.62 L 105.33 143.59 C 105.33 144.55 106.11 145.33 107.07 145.33 C 108.02 145.33 108.80 144.55 108.80 143.59 L 108.80 142.61 C 108.80 141.66 108.02 140.88 107.06 140.88 C 106.11 140.88 105.33 141.66 105.33 142.62 Z M 105.33 143.59 L 105.33 144.56 C 105.33 145.52 106.11 146.30 107.07 146.30 C 108.02 146.30 108.80 145.52 108.80 144.56 L 108.80 143.59 C 108.80 142.63 108.02 141.86 107.07 141.86 C 106.11 141.86 105.33 142.64 105.33 143.59 Z M 105.33 144.56 L 105.33 145.56 C 105.33 146.52 106.11 147.30 107.07 147.30 C 108.02 147.30 108.80 146.52 108.80 145.56 L 108.80 144.56 C 108.80 143.61 108.02 142.83 107.07 142.83 C 106.11 142.83 105.33 143.61 105.33 144.56 Z M 105.33 145.56 L 105.33 146.58 C 105.33 147.54 106.11 148.32 107.07 148.32 C 108.02 148.32 108.80 147.54 108.80 146.58 L 108.80 145.56 C 108.80 144.61 108.02 143.83 107.07 143.83 C 106.11 143.83 105.33 144.61 105.33 145.56 Z M 105.33 146.58 L 105.33 147.60 C 105.33 148.55 106.11 149.33 107.07 149.33 C 108.02 149.33 108.80 148.55 108.80 147.60 L 108.80 146.58 C 108.80 145.63 108.02 144.85 107.07 144.85 C 106.11 144.85 105.33 145.63 105.33 146.58 Z M 105.33 147.60 L 105.33 148.60 C 105.33 149.56 106.11 150.33 107.07 150.33 C 108.02 150.33 108.80 149.56 108.80 148.60 L 108.80 147.60 C 108.80 146.64 108.02 145.86 107.07 145.86 C 106.11 145.86 105.33 146.64 105.33 147.60 Z M 105.33 148.60 L 105.33 149.59 C 105.33 150.55 106.11 151.32 107.07 151.32 C 108.02 151.32 108.80 150.55 108.80 149.59 L 108.80 148.60 C 108.80 147.64 108.02 146.87 107.07 146.87 C 106.11 146.87 105.33 147.64 105.33 148.60 Z M 105.33 149.59 L 105.33 150.57 C 105.33 151.53 106.11 152.30 107.07 152.30 C 108.02 152.30 108.80 151.53 108.80 150.57 L 108.80 149.59 C 108.80 148.63 108.02 147.86 107.07 147.86 C 106.11 147.86 105.33 148.63 105.33 149.59 Z M 105.33 150.57 L 105.33 151.57 C 105.33 152.53 106.11 153.31 107.07 153.31 C 108.02 153.31 108.80 152.53 108.80 151.57 L 108.80 150.57 C 108.80 149.61 108.02 148.84 107.07 148.84 C 106.11 148.84 105.33 149.61 105.33 150.57 Z M 105.33 151.57 L 105.33 152.61 C 105.33 153.57 106.11 154.34 107.06 154.34 C 108.02 154.35 108.80 153.57 108.80 152.62 L 108.80 151.58 C 108.80 150.62 108.02 149.84 107.07 149.84 C 106.11 149.84 105.34 150.62 105.33 151.57 Z M 105.33 152.61 L 105.33 153.62 C 105.32 154.58 106.10 155.36 107.05 155.36 C 108.01 155.37 108.79 154.59 108.79 153.64 L 108.80 152.62 C 108.80 151.66 108.03 150.89 107.07 150.88 C 106.12 150.88 105.34 151.65 105.33 152.61 Z M 105.33 153.61 L 105.32 154.61 C 105.31 155.56 106.08 156.35 107.03 156.36 C 107.99 156.37 108.77 155.60 108.78 154.64 L 108.79 153.65 C 108.80 152.69 108.03 151.91 107.08 151.90 C 106.12 151.89 105.34 152.66 105.33 153.61 Z M 105.32 154.59 L 105.30 155.57 C 105.28 156.52 106.04 157.31 107.00 157.33 C 107.95 157.35 108.74 156.59 108.76 155.63 L 108.78 154.66 C 108.80 153.70 108.04 152.91 107.08 152.90 C 106.13 152.88 105.34 153.64 105.32 154.59 Z M 105.30 155.55 L 105.27 156.50 C 105.25 157.46 106.00 158.25 106.95 158.28 C 107.91 158.31 108.70 157.56 108.73 156.61 L 108.76 155.65 C 108.79 154.70 108.04 153.90 107.08 153.87 C 106.13 153.84 105.33 154.59 105.30 155.55 Z M 105.28 156.48 L 105.23 157.53 C 105.19 158.48 105.93 159.29 106.88 159.33 C 107.83 159.37 108.64 158.63 108.68 157.68 L 108.73 156.63 C 108.77 155.68 108.03 154.87 107.08 154.83 C 106.13 154.79 105.32 155.52 105.28 156.48 Z M 105.23 157.51 L 105.17 158.54 C 105.12 159.49 105.85 160.31 106.80 160.36 C 107.75 160.42 108.56 159.69 108.62 158.74 L 108.68 157.70 C 108.73 156.75 108.01 155.94 107.06 155.88 C 106.10 155.83 105.29 156.55 105.23 157.51 Z M 105.18 158.52 L 105.11 159.52 C 105.05 160.47 105.76 161.29 106.71 161.36 C 107.66 161.42 108.48 160.70 108.55 159.76 L 108.62 158.75 C 108.68 157.80 107.96 156.98 107.01 156.92 C 106.06 156.85 105.24 157.57 105.18 158.52 Z M 105.11 159.51 L 105.04 160.48 C 104.97 161.43 105.68 162.25 106.63 162.32 C 107.58 162.39 108.40 161.68 108.47 160.73 L 108.55 159.77 C 108.62 158.82 107.90 157.99 106.96 157.92 C 106.01 157.85 105.18 158.56 105.11 159.51 Z M 105.04 160.48 L 104.97 161.41 C 104.90 162.36 105.61 163.18 106.56 163.25 C 107.51 163.33 108.33 162.62 108.40 161.67 L 108.47 160.73 C 108.54 159.79 107.83 158.96 106.89 158.89 C 105.94 158.82 105.12 159.53 105.04 160.48 Z M 104.98 161.42 L 104.90 162.46 C 104.83 163.41 105.54 164.23 106.49 164.30 C 107.43 164.37 108.25 163.66 108.32 162.71 L 108.40 161.67 C 108.47 160.72 107.76 159.90 106.81 159.83 C 105.87 159.76 105.05 160.47 104.98 161.42 Z M 104.91 162.46 L 104.83 163.47 C 104.76 164.41 105.47 165.23 106.42 165.30 C 107.36 165.36 108.18 164.66 108.24 163.71 L 108.32 162.71 C 108.39 161.77 107.68 160.95 106.73 160.88 C 105.79 160.81 104.97 161.52 104.91 162.46 Z M 104.84 163.46 L 104.76 164.44 C 104.70 165.38 105.40 166.20 106.34 166.27 C 107.28 166.34 108.10 165.63 108.17 164.69 L 108.24 163.72 C 108.31 162.78 107.60 161.96 106.66 161.89 C 105.73 161.82 104.91 162.53 104.84 163.46 Z M 104.77 164.43 L 104.69 165.40 C 104.62 166.33 105.32 167.15 106.26 167.23 C 107.19 167.30 108.01 166.60 108.09 165.66 L 108.16 164.70 C 108.24 163.77 107.54 162.95 106.60 162.87 C 105.66 162.80 104.84 163.50 104.77 164.43 Z M 104.70 165.39 L 104.61 166.40 C 104.53 167.34 105.22 168.16 106.16 168.24 C 107.09 168.32 107.91 167.63 107.99 166.69 L 108.08 165.68 C 108.16 164.74 107.47 163.92 106.54 163.84 C 105.60 163.76 104.78 164.45 104.70 165.39 Z M 104.62 166.40 L 104.53 167.41 C 104.45 168.34 105.13 169.16 106.06 169.24 C 106.99 169.32 107.81 168.64 107.89 167.71 L 107.98 166.70 C 108.07 165.77 107.38 164.95 106.45 164.87 C 105.52 164.78 104.70 165.47 104.62 166.40 Z M 104.54 167.41 L 104.45 168.41 C 104.37 169.33 105.05 170.14 105.98 170.23 C 106.90 170.31 107.72 169.62 107.80 168.70 L 107.88 167.71 C 107.97 166.78 107.28 165.97 106.36 165.89 C 105.43 165.81 104.62 166.49 104.54 167.41 Z M 104.46 168.42 L 104.38 169.40 C 104.31 170.32 105.00 171.12 105.92 171.19 C 106.84 171.27 107.64 170.58 107.72 169.66 L 107.79 168.68 C 107.86 167.76 107.18 166.96 106.26 166.89 C 105.34 166.81 104.53 167.50 104.46 168.42 Z M 104.36 169.44 L 104.30 170.79 C 104.25 171.72 104.97 172.51 105.90 172.56 C 106.82 172.61 107.62 171.89 107.66 170.96 L 107.73 169.61 C 107.78 168.68 107.06 167.89 106.13 167.84 C 105.20 167.80 104.41 168.51 104.36 169.44 Z M 104.27 171.01 L 104.33 171.87 C 104.41 172.82 105.23 173.52 106.18 173.45 C 107.13 173.38 107.83 172.55 107.76 171.60 L 107.69 170.74 C 107.62 169.80 106.79 169.09 105.85 169.16 C 104.90 169.24 104.19 170.06 104.27 171.01 Z M 105.85 173.46 L 106.12 173.49 C 107.07 173.61 107.93 172.92 108.04 171.97 C 108.15 171.01 107.47 170.15 106.52 170.04 L 106.25 170.01 C 105.29 169.90 104.43 170.58 104.32 171.54 C 104.21 172.49 104.89 173.35 105.85 173.46 Z M 107.80 172.66 L 108.25 171.91 C 108.75 171.09 108.48 170.03 107.66 169.53 C 106.84 169.04 105.78 169.30 105.28 170.12 L 104.83 170.87 C 104.34 171.69 104.60 172.76 105.42 173.25 C 106.24 173.75 107.31 173.48 107.80 172.66 Z M 108.35 171.70 L 108.90 170.41 C 109.28 169.54 108.88 168.53 108.00 168.15 C 107.13 167.78 106.12 168.18 105.75 169.05 L 105.19 170.34 C 104.81 171.21 105.22 172.22 106.09 172.60 C 106.96 172.97 107.97 172.57 108.35 171.70 Z M 108.91 170.33 L 109.26 169.39 C 109.59 168.52 109.14 167.54 108.27 167.21 C 107.39 166.89 106.42 167.33 106.09 168.20 L 105.74 169.14 C 105.41 170.01 105.85 170.99 106.73 171.32 C 107.60 171.64 108.58 171.20 108.91 170.33 Z M 109.24 169.34 L 109.57 168.38 C 109.87 167.52 109.41 166.57 108.55 166.27 C 107.68 165.98 106.74 166.43 106.44 167.30 L 106.11 168.26 C 105.81 169.12 106.27 170.06 107.13 170.36 C 107.99 170.66 108.94 170.21 109.24 169.34 Z M 109.55 168.34 L 109.86 167.35 C 110.14 166.50 109.67 165.59 108.82 165.32 C 107.97 165.04 107.06 165.51 106.78 166.36 L 106.47 167.34 C 106.19 168.19 106.66 169.10 107.51 169.38 C 108.36 169.65 109.27 169.19 109.55 168.34 Z M 109.84 167.31 L 110.13 166.35 C 110.38 165.51 109.90 164.63 109.07 164.38 C 108.23 164.13 107.35 164.60 107.10 165.44 L 106.81 166.40 C 106.56 167.24 107.03 168.12 107.87 168.37 C 108.70 168.62 109.59 168.15 109.84 167.31 Z M 110.10 166.30 L 110.38 165.30 C 110.60 164.48 110.12 163.63 109.30 163.40 C 108.47 163.18 107.62 163.66 107.40 164.48 L 107.12 165.48 C 106.90 166.30 107.38 167.16 108.20 167.38 C 109.03 167.61 109.88 167.12 110.10 166.30 Z M 110.36 165.26 L 110.61 164.23 C 110.81 163.42 110.32 162.59 109.50 162.39 C 108.69 162.19 107.86 162.69 107.66 163.51 L 107.41 164.53 C 107.21 165.35 107.71 166.17 108.52 166.37 C 109.34 166.57 110.16 166.07 110.36 165.26 Z M 110.60 164.19 L 110.81 163.24 C 110.99 162.43 110.48 161.63 109.67 161.45 C 108.86 161.28 108.06 161.79 107.89 162.59 L 107.68 163.55 C 107.50 164.35 108.01 165.15 108.82 165.33 C 109.63 165.51 110.42 165.00 110.60 164.19 Z M 110.80 163.21 L 110.98 162.30 C 111.14 161.50 110.63 160.72 109.83 160.56 C 109.03 160.39 108.25 160.91 108.09 161.71 L 107.90 162.62 C 107.74 163.42 108.26 164.20 109.05 164.36 C 109.85 164.53 110.63 164.01 110.80 163.21 Z M 110.97 162.29 L 111.01 162.07 C 111.17 161.28 110.66 160.51 109.87 160.35 C 109.07 160.19 108.30 160.71 108.14 161.50 L 108.10 161.72 C 107.94 162.51 108.46 163.28 109.25 163.44 C 110.04 163.60 110.81 163.08 110.97 162.29 Z"
      fill="black"
      fill-rule="nonzero" /><path d="M 110.12 97.67 L 109.41 97.01 C 108.78 96.42 107.79 96.45 107.20 97.08 C 106.61 97.71 106.64 98.70 107.27 99.29 L 107.98 99.96 C 108.61 100.55 109.60 100.51 110.19 99.88 C 110.78 99.25 110.75 98.26 110.12 97.67 Z M 109.42 96.96 L 108.69 96.29 C 108.03 95.69 107.01 95.74 106.42 96.40 C 105.82 97.06 105.87 98.07 106.52 98.67 L 107.26 99.34 C 107.91 99.93 108.93 99.89 109.53 99.23 C 110.12 98.57 110.08 97.56 109.42 96.96 Z M 108.68 96.23 L 107.91 95.56 C 107.22 94.97 106.17 95.04 105.58 95.74 C 104.98 96.43 105.06 97.47 105.75 98.06 L 106.53 98.73 C 107.22 99.33 108.26 99.25 108.85 98.56 C 109.45 97.87 109.37 96.82 108.68 96.23 Z M 107.89 95.52 L 106.93 94.73 C 106.21 94.14 105.16 94.24 104.57 94.96 C 103.98 95.68 104.09 96.73 104.80 97.32 L 105.77 98.11 C 106.48 98.70 107.54 98.59 108.12 97.88 C 108.71 97.16 108.61 96.10 107.89 95.52 Z M 107.09 94.87 L 106.41 94.16 C 105.77 93.48 104.71 93.45 104.04 94.09 C 103.36 94.73 103.33 95.80 103.97 96.47 L 104.65 97.18 C 105.29 97.85 106.35 97.88 107.02 97.24 C 107.70 96.60 107.72 95.54 107.09 94.87 Z M 106.83 95.69 L 106.93 95.23 C 107.14 94.33 106.58 93.43 105.67 93.22 C 104.77 93.01 103.87 93.58 103.66 94.48 L 103.55 94.94 C 103.35 95.84 103.91 96.74 104.82 96.95 C 105.72 97.16 106.62 96.59 106.83 95.69 Z M 105.71 96.48 L 106.45 96.29 C 107.35 96.06 107.89 95.15 107.66 94.25 C 107.43 93.36 106.52 92.82 105.62 93.04 L 104.88 93.23 C 103.99 93.46 103.45 94.37 103.67 95.27 C 103.90 96.17 104.81 96.71 105.71 96.48 Z M 106.15 96.33 L 107.25 96.26 C 108.17 96.20 108.87 95.40 108.81 94.49 C 108.74 93.57 107.95 92.87 107.03 92.93 L 105.93 93.01 C 105.01 93.07 104.31 93.86 104.38 94.78 C 104.44 95.69 105.23 96.39 106.15 96.33 Z M 107.16 96.25 L 108.38 96.24 C 109.29 96.23 110.03 95.48 110.02 94.57 C 110.01 93.65 109.26 92.92 108.35 92.93 L 107.13 92.94 C 106.21 92.95 105.48 93.70 105.49 94.61 C 105.50 95.53 106.24 96.26 107.16 96.25 Z M 108.36 96.23 L 109.46 96.23 C 110.37 96.23 111.11 95.49 111.11 94.58 C 111.11 93.67 110.37 92.93 109.46 92.93 L 108.36 92.93 C 107.45 92.93 106.71 93.67 106.71 94.58 C 106.71 95.49 107.45 96.23 108.36 96.23 Z M 109.46 96.23 L 110.45 96.23 C 111.36 96.23 112.09 95.49 112.09 94.58 C 112.09 93.67 111.36 92.94 110.45 92.94 L 109.46 92.94 C 108.55 92.94 107.81 93.67 107.81 94.58 C 107.81 95.49 108.55 96.23 109.46 96.23 Z M 110.45 96.22 L 111.40 96.22 C 112.31 96.22 113.04 95.49 113.04 94.58 C 113.04 93.68 112.31 92.94 111.40 92.94 L 110.45 92.94 C 109.54 92.94 108.81 93.68 108.81 94.58 C 108.81 95.49 109.54 96.22 110.45 96.22 Z M 111.40 96.22 L 112.36 96.22 C 113.26 96.22 113.99 95.49 113.99 94.58 C 113.99 93.68 113.26 92.95 112.36 92.95 L 111.40 92.95 C 110.50 92.95 109.77 93.68 109.77 94.58 C 109.77 95.49 110.50 96.22 111.40 96.22 Z M 112.36 96.22 L 113.33 96.22 C 114.23 96.22 114.96 95.48 114.96 94.58 C 114.96 93.68 114.23 92.95 113.33 92.95 L 112.36 92.95 C 111.45 92.95 110.72 93.68 110.72 94.58 C 110.72 95.48 111.45 96.22 112.36 96.22 Z M 113.33 96.22 L 114.34 96.22 C 115.24 96.22 115.97 95.48 115.97 94.58 C 115.97 93.68 115.24 92.95 114.34 92.95 L 113.33 92.95 C 112.43 92.95 111.70 93.68 111.70 94.58 C 111.70 95.48 112.43 96.22 113.33 96.22 Z M 114.34 96.22 L 115.37 96.22 C 116.27 96.22 117.01 95.48 117.01 94.58 C 117.01 93.68 116.27 92.95 115.37 92.95 L 114.34 92.95 C 113.44 92.95 112.71 93.68 112.71 94.58 C 112.71 95.48 113.44 96.22 114.34 96.22 Z M 115.37 96.22 L 116.37 96.22 C 117.27 96.22 118.00 95.48 118.00 94.58 C 118.00 93.68 117.27 92.95 116.37 92.95 L 115.37 92.95 C 114.47 92.95 113.74 93.68 113.74 94.58 C 113.74 95.48 114.47 96.22 115.37 96.22 Z M 116.37 96.21 L 117.36 96.21 C 118.27 96.21 119.00 95.48 119.00 94.58 C 119.00 93.68 118.27 92.95 117.36 92.95 L 116.37 92.95 C 115.47 92.95 114.74 93.68 114.74 94.58 C 114.74 95.48 115.47 96.21 116.37 96.21 Z M 117.36 96.21 L 118.37 96.21 C 119.27 96.21 120.00 95.48 120.00 94.58 C 120.00 93.68 119.27 92.95 118.37 92.95 L 117.36 92.95 C 116.46 92.95 115.73 93.68 115.73 94.58 C 115.73 95.48 116.46 96.21 117.36 96.21 Z M 118.37 96.21 L 119.38 96.21 C 120.28 96.21 121.01 95.48 121.01 94.58 C 121.01 93.68 120.28 92.95 119.38 92.95 L 118.37 92.95 C 117.47 92.95 116.74 93.68 116.74 94.58 C 116.74 95.48 117.47 96.21 118.37 96.21 Z M 119.38 96.21 L 120.36 96.21 C 121.26 96.21 121.99 95.48 121.99 94.58 C 121.99 93.68 121.26 92.95 120.36 92.95 L 119.38 92.95 C 118.48 92.95 117.75 93.68 117.75 94.58 C 117.75 95.48 118.48 96.21 119.38 96.21 Z M 120.36 96.21 L 121.35 96.21 C 122.25 96.21 122.98 95.48 122.98 94.58 C 122.98 93.68 122.25 92.95 121.35 92.95 L 120.36 92.95 C 119.46 92.95 118.73 93.68 118.73 94.58 C 118.73 95.48 119.46 96.21 120.36 96.21 Z M 121.35 96.21 L 122.35 96.21 C 123.25 96.21 123.98 95.48 123.98 94.58 C 123.98 93.68 123.25 92.95 122.35 92.95 L 121.35 92.95 C 120.45 92.95 119.72 93.68 119.72 94.58 C 119.72 95.48 120.45 96.21 121.35 96.21 Z M 122.35 96.21 L 123.38 96.21 C 124.28 96.21 125.01 95.48 125.01 94.58 C 125.01 93.68 124.28 92.95 123.38 92.95 L 122.35 92.95 C 121.45 92.95 120.72 93.68 120.72 94.58 C 120.72 95.48 121.45 96.21 122.35 96.21 Z M 123.38 96.21 L 124.38 96.21 C 125.28 96.21 126.02 95.48 126.02 94.58 C 126.02 93.68 125.28 92.95 124.38 92.95 L 123.38 92.95 C 122.48 92.95 121.75 93.68 121.75 94.58 C 121.75 95.48 122.48 96.21 123.38 96.21 Z M 124.38 96.21 L 125.40 96.21 C 126.30 96.21 127.03 95.48 127.03 94.58 C 127.03 93.68 126.30 92.95 125.40 92.95 L 124.38 92.95 C 123.48 92.95 122.75 93.68 122.75 94.58 C 122.75 95.48 123.48 96.21 124.38 96.21 Z M 125.40 96.22 L 126.40 96.22 C 127.30 96.22 128.03 95.48 128.03 94.58 C 128.03 93.68 127.30 92.95 126.40 92.95 L 125.40 92.95 C 124.49 92.95 123.76 93.68 123.76 94.58 C 123.76 95.48 124.49 96.22 125.40 96.22 Z M 126.40 96.22 L 127.39 96.22 C 128.29 96.22 129.02 95.48 129.02 94.58 C 129.02 93.68 128.29 92.95 127.39 92.95 L 126.40 92.95 C 125.50 92.95 124.77 93.68 124.77 94.58 C 124.77 95.48 125.50 96.22 126.40 96.22 Z M 127.39 96.22 L 128.44 96.22 C 129.34 96.22 130.07 95.48 130.07 94.58 C 130.07 93.68 129.34 92.95 128.43 92.95 L 127.39 92.95 C 126.48 92.95 125.75 93.68 125.75 94.58 C 125.75 95.49 126.48 96.22 127.39 96.22 Z M 128.44 96.22 L 129.47 96.22 C 130.37 96.21 131.10 95.48 131.10 94.58 C 131.10 93.67 130.36 92.94 129.46 92.94 L 128.43 92.95 C 127.53 92.95 126.80 93.68 126.80 94.59 C 126.80 95.49 127.54 96.22 128.44 96.22 Z M 129.47 96.22 L 130.45 96.21 C 131.36 96.20 132.08 95.47 132.08 94.56 C 132.07 93.66 131.33 92.93 130.43 92.94 L 129.45 92.94 C 128.55 92.95 127.82 93.69 127.83 94.59 C 127.83 95.50 128.57 96.22 129.47 96.22 Z M 130.47 96.21 L 131.41 96.20 C 132.31 96.18 133.04 95.44 133.02 94.53 C 133.01 93.63 132.26 92.91 131.36 92.92 L 130.42 92.94 C 129.51 92.95 128.79 93.69 128.80 94.60 C 128.82 95.50 129.56 96.22 130.47 96.21 Z M 131.43 96.20 L 132.46 96.17 C 133.37 96.14 134.08 95.39 134.05 94.48 C 134.03 93.57 133.27 92.86 132.36 92.89 L 131.34 92.92 C 130.43 92.94 129.72 93.70 129.74 94.61 C 129.77 95.51 130.53 96.23 131.43 96.20 Z M 132.50 96.17 L 133.49 96.12 C 134.40 96.07 135.10 95.30 135.05 94.39 C 135.00 93.48 134.22 92.78 133.31 92.83 L 132.33 92.88 C 131.42 92.93 130.72 93.71 130.77 94.62 C 130.81 95.52 131.59 96.22 132.50 96.17 Z M 133.54 96.12 L 134.52 96.04 C 135.43 95.97 136.10 95.17 136.02 94.25 C 135.95 93.34 135.15 92.67 134.24 92.75 L 133.26 92.83 C 132.35 92.90 131.68 93.70 131.75 94.62 C 131.83 95.53 132.63 96.20 133.54 96.12 Z M 134.60 96.06 L 135.89 95.88 C 136.81 95.76 137.46 94.91 137.33 94.00 C 137.21 93.08 136.37 92.44 135.45 92.56 L 134.15 92.73 C 133.24 92.86 132.59 93.70 132.71 94.62 C 132.84 95.53 133.68 96.18 134.60 96.06 Z M 136.15 95.87 L 136.97 95.63 C 137.88 95.37 138.40 94.42 138.14 93.51 C 137.87 92.60 136.92 92.07 136.01 92.34 L 135.19 92.57 C 134.28 92.84 133.76 93.79 134.02 94.70 C 134.29 95.61 135.24 96.13 136.15 95.87 Z M 137.94 93.02 L 137.79 92.79 C 137.26 91.98 136.18 91.76 135.37 92.29 C 134.57 92.82 134.35 93.90 134.88 94.71 L 135.04 94.94 C 135.57 95.75 136.65 95.97 137.45 95.44 C 138.25 94.91 138.47 93.83 137.94 93.02 Z M 136.72 92.04 L 135.82 91.84 C 134.88 91.62 133.94 92.21 133.72 93.15 C 133.51 94.09 134.10 95.03 135.04 95.24 L 135.95 95.45 C 136.89 95.67 137.82 95.08 138.04 94.14 C 138.25 93.19 137.66 92.26 136.72 92.04 Z M 135.61 91.80 L 134.18 91.66 C 133.22 91.56 132.37 92.25 132.27 93.22 C 132.17 94.18 132.87 95.03 133.83 95.13 L 135.25 95.28 C 136.21 95.38 137.07 94.68 137.17 93.72 C 137.27 92.76 136.57 91.90 135.61 91.80 Z M 134.07 91.65 L 133.10 91.61 C 132.13 91.57 131.32 92.33 131.29 93.29 C 131.25 94.26 132.00 95.07 132.97 95.10 L 133.94 95.14 C 134.90 95.18 135.72 94.43 135.75 93.46 C 135.79 92.50 135.04 91.68 134.07 91.65 Z M 133.00 91.61 L 131.99 91.63 C 131.03 91.65 130.26 92.44 130.28 93.41 C 130.29 94.37 131.09 95.14 132.05 95.12 L 133.06 95.10 C 134.03 95.09 134.80 94.29 134.78 93.33 C 134.76 92.36 133.97 91.59 133.00 91.61 Z M 131.87 91.64 L 130.84 91.73 C 129.88 91.81 129.17 92.66 129.26 93.62 C 129.35 94.58 130.20 95.29 131.16 95.21 L 132.18 95.11 C 133.14 95.03 133.85 94.18 133.76 93.22 C 133.68 92.26 132.83 91.55 131.87 91.64 Z M 130.68 91.75 L 129.68 91.94 C 128.74 92.11 128.11 93.03 128.29 93.97 C 128.46 94.92 129.38 95.55 130.32 95.37 L 131.32 95.18 C 132.27 95.01 132.89 94.10 132.72 93.15 C 132.54 92.20 131.63 91.57 130.68 91.75 Z M 129.47 91.99 L 128.54 92.29 C 127.62 92.59 127.12 93.57 127.41 94.49 C 127.71 95.41 128.69 95.91 129.61 95.61 L 130.54 95.31 C 131.46 95.02 131.96 94.04 131.66 93.12 C 131.37 92.20 130.39 91.70 129.47 91.99 Z M 128.29 92.40 L 127.44 92.82 C 126.58 93.26 126.24 94.31 126.67 95.17 C 127.10 96.03 128.15 96.37 129.01 95.94 L 129.86 95.51 C 130.72 95.07 131.06 94.03 130.63 93.17 C 130.19 92.31 129.15 91.96 128.29 92.40 Z M 127.22 92.96 L 126.44 93.51 C 125.66 94.06 125.47 95.15 126.03 95.94 C 126.58 96.72 127.67 96.91 128.45 96.35 L 129.23 95.80 C 130.02 95.25 130.20 94.16 129.65 93.38 C 129.09 92.59 128.01 92.40 127.22 92.96 Z M 126.28 93.64 L 125.55 94.30 C 124.83 94.95 124.78 96.05 125.42 96.76 C 126.06 97.47 127.17 97.53 127.88 96.89 L 128.61 96.22 C 129.33 95.58 129.38 94.48 128.74 93.76 C 128.10 93.05 127.00 92.99 126.28 93.64 Z M 125.44 94.41 L 124.72 95.18 C 124.07 95.88 124.11 96.98 124.81 97.63 C 125.51 98.29 126.61 98.25 127.26 97.55 L 127.98 96.78 C 128.64 96.08 128.60 94.98 127.90 94.32 C 127.20 93.67 126.10 93.71 125.44 94.41 Z M 124.67 95.24 L 124.02 96.01 C 123.40 96.74 123.49 97.84 124.23 98.46 C 124.96 99.08 126.06 98.98 126.68 98.25 L 127.32 97.48 C 127.94 96.75 127.85 95.65 127.11 95.04 C 126.38 94.42 125.28 94.51 124.67 95.24 Z M 123.99 96.05 L 123.41 96.77 C 122.82 97.52 122.94 98.61 123.69 99.21 C 124.44 99.81 125.54 99.69 126.13 98.93 L 126.71 98.21 C 127.31 97.46 127.18 96.37 126.43 95.77 C 125.68 95.17 124.59 95.29 123.99 96.05 Z M 123.39 96.80 L 122.80 97.57 C 122.22 98.33 122.37 99.42 123.13 100.01 C 123.90 100.59 124.99 100.44 125.57 99.68 L 126.16 98.91 C 126.74 98.14 126.59 97.05 125.83 96.47 C 125.06 95.88 123.97 96.03 123.39 96.80 Z M 122.78 97.59 L 122.19 98.40 C 121.62 99.18 121.78 100.27 122.56 100.84 C 123.33 101.41 124.42 101.24 124.99 100.47 L 125.59 99.65 C 126.16 98.88 125.99 97.79 125.22 97.22 C 124.44 96.65 123.35 96.81 122.78 97.59 Z M 122.17 98.42 L 121.57 99.26 C 121.01 100.05 121.19 101.14 121.97 101.70 C 122.75 102.26 123.84 102.08 124.40 101.29 L 125.01 100.45 C 125.57 99.66 125.39 98.57 124.60 98.01 C 123.82 97.45 122.73 97.63 122.17 98.42 Z M 121.55 99.28 L 120.94 100.15 C 120.39 100.94 120.58 102.03 121.37 102.58 C 122.16 103.13 123.25 102.94 123.80 102.15 L 124.42 101.28 C 124.97 100.49 124.78 99.40 123.99 98.85 C 123.20 98.30 122.11 98.49 121.55 99.28 Z M 120.93 100.16 L 120.35 101.02 C 119.80 101.81 120.00 102.90 120.80 103.44 C 121.59 103.99 122.68 103.79 123.22 103.00 L 123.81 102.14 C 124.36 101.35 124.16 100.26 123.36 99.71 C 122.57 99.17 121.48 99.37 120.93 100.16 Z M 120.34 101.02 L 119.79 101.83 C 119.25 102.63 119.46 103.71 120.26 104.26 C 121.06 104.80 122.14 104.59 122.69 103.79 L 123.23 102.99 C 123.77 102.19 123.57 101.10 122.77 100.56 C 121.97 100.02 120.88 100.23 120.34 101.02 Z M 119.79 101.84 L 119.24 102.65 C 118.70 103.46 118.92 104.54 119.72 105.08 C 120.52 105.62 121.61 105.40 122.15 104.60 L 122.69 103.78 C 123.23 102.98 123.01 101.89 122.21 101.36 C 121.41 100.82 120.32 101.03 119.79 101.84 Z M 119.23 102.67 L 118.69 103.50 C 118.16 104.30 118.38 105.39 119.19 105.92 C 119.99 106.45 121.08 106.23 121.61 105.42 L 122.15 104.59 C 122.69 103.78 122.46 102.70 121.65 102.17 C 120.85 101.63 119.76 101.86 119.23 102.67 Z M 118.68 103.51 L 118.13 104.35 C 117.61 105.17 117.84 106.25 118.65 106.77 C 119.47 107.30 120.55 107.06 121.07 106.25 L 121.62 105.41 C 122.14 104.59 121.91 103.51 121.10 102.99 C 120.28 102.46 119.20 102.70 118.68 103.51 Z M 118.12 104.37 L 117.58 105.23 C 117.06 106.04 117.31 107.12 118.12 107.64 C 118.94 108.16 120.02 107.91 120.54 107.10 L 121.08 106.24 C 121.60 105.42 121.35 104.34 120.54 103.82 C 119.72 103.31 118.64 103.55 118.12 104.37 Z M 117.57 105.24 L 117.03 106.11 C 116.52 106.94 116.78 108.01 117.60 108.52 C 118.42 109.03 119.50 108.78 120.01 107.95 L 120.55 107.08 C 121.06 106.26 120.80 105.18 119.98 104.67 C 119.16 104.16 118.08 104.42 117.57 105.24 Z M 117.02 106.13 L 116.49 107.01 C 115.99 107.84 116.25 108.92 117.08 109.42 C 117.91 109.92 118.99 109.65 119.49 108.82 L 120.02 107.94 C 120.52 107.11 120.25 106.03 119.42 105.53 C 118.60 105.04 117.52 105.30 117.02 106.13 Z M 116.48 107.03 L 115.95 107.92 C 115.46 108.76 115.74 109.83 116.57 110.32 C 117.41 110.81 118.48 110.53 118.97 109.70 L 119.50 108.81 C 119.99 107.97 119.71 106.90 118.87 106.41 C 118.04 105.92 116.97 106.20 116.48 107.03 Z M 115.94 107.94 L 115.43 108.84 C 114.95 109.68 115.24 110.75 116.08 111.23 C 116.91 111.71 117.98 111.42 118.46 110.58 L 118.98 109.68 C 119.46 108.84 119.17 107.77 118.33 107.29 C 117.49 106.81 116.42 107.10 115.94 107.94 Z M 115.42 108.85 L 114.92 109.75 C 114.45 110.59 114.75 111.66 115.59 112.13 C 116.43 112.60 117.50 112.30 117.97 111.46 L 118.47 110.56 C 118.95 109.72 118.65 108.65 117.80 108.18 C 116.96 107.71 115.89 108.01 115.42 108.85 Z M 114.91 109.76 L 114.43 110.64 C 113.96 111.49 114.27 112.56 115.12 113.02 C 115.97 113.48 117.03 113.17 117.50 112.32 L 117.98 111.44 C 118.45 110.59 118.13 109.53 117.29 109.07 C 116.44 108.60 115.37 108.91 114.91 109.76 Z M 114.42 110.66 L 113.96 111.52 C 113.50 112.38 113.82 113.44 114.68 113.89 C 115.53 114.35 116.59 114.03 117.05 113.17 L 117.51 112.31 C 117.96 111.46 117.64 110.40 116.79 109.94 C 115.93 109.48 114.87 109.81 114.42 110.66 Z M 113.95 111.54 L 113.51 112.38 C 113.06 113.24 113.40 114.30 114.26 114.74 C 115.11 115.19 116.17 114.86 116.62 114.00 L 117.05 113.16 C 117.50 112.30 117.17 111.24 116.31 110.80 C 115.45 110.35 114.39 110.68 113.95 111.54 Z M 113.50 112.40 L 113.04 113.31 C 112.60 114.18 112.95 115.23 113.81 115.67 C 114.68 116.10 115.73 115.76 116.16 114.89 L 116.63 113.98 C 117.06 113.12 116.72 112.06 115.85 111.63 C 114.99 111.19 113.94 111.54 113.50 112.40 Z M 113.03 113.34 L 112.55 114.32 C 112.13 115.19 112.49 116.23 113.36 116.66 C 114.23 117.08 115.28 116.72 115.70 115.85 L 116.18 114.87 C 116.60 114.00 116.24 112.95 115.37 112.53 C 114.50 112.11 113.45 112.47 113.03 113.34 Z M 112.54 114.35 L 112.11 115.28 C 111.70 116.16 112.08 117.20 112.96 117.60 C 113.84 118.01 114.88 117.63 115.28 116.75 L 115.72 115.82 C 116.12 114.94 115.74 113.90 114.86 113.49 C 113.98 113.09 112.94 113.47 112.54 114.35 Z M 112.09 115.31 L 111.70 116.21 C 111.32 117.10 111.72 118.13 112.61 118.51 C 113.49 118.90 114.52 118.49 114.91 117.61 L 115.30 116.71 C 115.69 115.83 115.28 114.80 114.39 114.41 C 113.51 114.02 112.48 114.43 112.09 115.31 Z M 111.69 116.25 L 111.33 117.12 C 110.97 118.01 111.40 119.03 112.29 119.40 C 113.19 119.76 114.21 119.33 114.57 118.44 L 114.93 117.57 C 115.29 116.67 114.86 115.65 113.97 115.29 C 113.07 114.92 112.05 115.35 111.69 116.25 Z M 111.32 117.16 L 111.00 118.01 C 110.66 118.91 111.11 119.92 112.02 120.26 C 112.92 120.60 113.93 120.15 114.27 119.24 L 114.59 118.39 C 114.93 117.49 114.47 116.48 113.57 116.14 C 112.67 115.80 111.66 116.25 111.32 117.16 Z M 110.98 118.06 L 110.64 119.03 C 110.33 119.95 110.82 120.94 111.73 121.26 C 112.64 121.57 113.64 121.08 113.95 120.17 L 114.29 119.19 C 114.60 118.28 114.11 117.28 113.20 116.97 C 112.29 116.66 111.29 117.14 110.98 118.06 Z M 110.63 119.09 L 110.33 120.05 C 110.05 120.97 110.57 121.95 111.49 122.24 C 112.41 122.52 113.39 122.00 113.67 121.08 L 113.97 120.11 C 114.25 119.19 113.73 118.21 112.81 117.93 C 111.89 117.65 110.91 118.17 110.63 119.09 Z M 110.32 120.10 L 110.06 121.06 C 109.80 121.99 110.35 122.95 111.28 123.21 C 112.21 123.46 113.17 122.91 113.43 121.98 L 113.69 121.02 C 113.94 120.09 113.39 119.13 112.46 118.88 C 111.53 118.63 110.57 119.17 110.32 120.10 Z M 110.04 121.11 L 109.81 122.07 C 109.59 123.00 110.17 123.95 111.10 124.17 C 112.04 124.40 112.98 123.82 113.21 122.88 L 113.44 121.93 C 113.66 120.99 113.09 120.05 112.15 119.82 C 111.21 119.60 110.27 120.17 110.04 121.11 Z M 109.80 122.11 L 109.60 123.08 C 109.40 124.02 110.00 124.95 110.95 125.15 C 111.89 125.35 112.82 124.74 113.01 123.80 L 113.22 122.84 C 113.42 121.89 112.82 120.97 111.87 120.77 C 110.93 120.57 110.00 121.17 109.80 122.11 Z M 109.59 123.12 L 109.41 124.11 C 109.24 125.05 109.86 125.96 110.81 126.14 C 111.76 126.31 112.67 125.69 112.84 124.74 L 113.02 123.76 C 113.20 122.81 112.57 121.90 111.62 121.72 C 110.68 121.55 109.77 122.17 109.59 123.12 Z M 109.40 124.15 L 109.25 125.14 C 109.09 126.09 109.74 126.98 110.69 127.13 C 111.64 127.28 112.54 126.64 112.69 125.69 L 112.85 124.70 C 113.00 123.75 112.35 122.85 111.40 122.70 C 110.45 122.55 109.56 123.20 109.40 124.15 Z M 109.24 125.17 L 109.11 126.17 C 108.98 127.12 109.64 128.00 110.60 128.13 C 111.55 128.26 112.43 127.59 112.56 126.64 L 112.69 125.65 C 112.82 124.69 112.16 123.82 111.20 123.68 C 110.25 123.55 109.37 124.22 109.24 125.17 Z M 109.10 126.20 L 108.99 127.19 C 108.88 128.15 109.56 129.01 110.52 129.12 C 111.47 129.23 112.34 128.55 112.45 127.59 L 112.56 126.60 C 112.67 125.65 111.99 124.78 111.03 124.67 C 110.08 124.56 109.21 125.25 109.10 126.20 Z M 108.99 127.23 L 108.89 128.20 C 108.80 129.16 109.50 130.01 110.46 130.10 C 111.41 130.19 112.26 129.49 112.36 128.53 L 112.45 127.56 C 112.54 126.60 111.84 125.75 110.88 125.66 C 109.93 125.57 109.08 126.27 108.99 127.23 Z M 108.89 128.23 L 108.81 129.21 C 108.74 130.17 109.46 131.00 110.41 131.08 C 111.37 131.15 112.21 130.44 112.28 129.48 L 112.36 128.50 C 112.43 127.54 111.72 126.71 110.76 126.63 C 109.80 126.56 108.96 127.28 108.89 128.23 Z M 108.81 129.24 L 108.75 130.23 C 108.70 131.19 109.43 132.01 110.38 132.07 C 111.34 132.13 112.16 131.40 112.22 130.44 L 112.28 129.45 C 112.34 128.49 111.61 127.67 110.65 127.61 C 109.69 127.55 108.87 128.28 108.81 129.24 Z M 108.75 130.26 L 108.71 131.27 C 108.67 132.23 109.41 133.04 110.37 133.09 C 111.32 133.13 112.13 132.39 112.18 131.43 L 112.22 130.41 C 112.26 129.46 111.52 128.65 110.57 128.60 C 109.61 128.56 108.80 129.30 108.75 130.26 Z M 108.71 131.30 L 108.68 132.32 C 108.65 133.28 109.40 134.08 110.36 134.11 C 111.32 134.14 112.12 133.39 112.14 132.43 L 112.18 131.40 C 112.21 130.45 111.45 129.65 110.50 129.62 C 109.54 129.59 108.74 130.34 108.71 131.30 Z M 108.68 132.35 L 108.66 133.33 C 108.65 134.29 109.41 135.08 110.37 135.09 C 111.32 135.11 112.11 134.34 112.13 133.39 L 112.14 132.40 C 112.16 131.45 111.40 130.66 110.44 130.64 C 109.48 130.63 108.69 131.39 108.68 132.35 Z M 108.66 133.37 L 108.67 134.37 C 108.67 135.32 109.45 136.10 110.41 136.09 C 111.36 136.09 112.14 135.31 112.13 134.35 L 112.13 133.35 C 112.12 132.39 111.35 131.62 110.39 131.63 C 109.43 131.63 108.66 132.41 108.66 133.37 Z M 108.67 134.42 L 108.70 135.42 C 108.73 136.38 109.53 137.13 110.49 137.10 C 111.44 137.07 112.19 136.27 112.16 135.31 L 112.13 134.30 C 112.10 133.35 111.30 132.60 110.34 132.63 C 109.39 132.66 108.64 133.46 108.67 134.42 Z M 108.70 135.49 L 108.77 136.49 C 108.84 137.45 109.66 138.17 110.62 138.10 C 111.57 138.04 112.29 137.21 112.23 136.26 L 112.16 135.25 C 112.09 134.30 111.27 133.58 110.31 133.64 C 109.36 133.71 108.64 134.53 108.70 135.49 Z M 108.78 136.57 L 108.90 137.58 C 109.00 138.53 109.86 139.21 110.81 139.10 C 111.76 138.99 112.44 138.14 112.33 137.19 L 112.22 136.18 C 112.11 135.23 111.25 134.55 110.30 134.66 C 109.36 134.77 108.67 135.62 108.78 136.57 Z M 108.91 137.67 L 109.08 138.70 C 109.24 139.65 110.13 140.28 111.07 140.13 C 112.02 139.97 112.65 139.08 112.50 138.13 L 112.32 137.10 C 112.16 136.15 111.27 135.52 110.33 135.68 C 109.39 135.83 108.75 136.73 108.91 137.67 Z M 109.10 138.79 L 109.32 139.79 C 109.52 140.73 110.44 141.32 111.38 141.11 C 112.31 140.91 112.90 139.99 112.70 139.05 L 112.48 138.05 C 112.28 137.12 111.35 136.52 110.42 136.73 C 109.49 136.93 108.89 137.85 109.10 138.79 Z M 109.33 139.86 L 109.59 140.83 C 109.83 141.75 110.78 142.31 111.70 142.06 C 112.63 141.82 113.18 140.87 112.94 139.95 L 112.68 138.98 C 112.44 138.06 111.49 137.50 110.57 137.75 C 109.64 137.99 109.09 138.94 109.33 139.86 Z M 109.60 140.89 L 109.88 141.81 C 110.16 142.72 111.12 143.24 112.04 142.97 C 112.95 142.69 113.47 141.72 113.20 140.81 L 112.92 139.89 C 112.64 138.97 111.68 138.45 110.76 138.73 C 109.84 139.01 109.33 139.97 109.60 140.89 Z M 109.90 141.86 L 110.21 142.80 C 110.52 143.71 111.50 144.20 112.41 143.89 C 113.31 143.59 113.80 142.61 113.50 141.70 L 113.18 140.76 C 112.88 139.85 111.89 139.36 110.99 139.67 C 110.08 139.97 109.59 140.95 109.90 141.86 Z M 110.23 142.85 L 110.60 143.84 C 110.93 144.74 111.93 145.20 112.82 144.87 C 113.72 144.54 114.18 143.54 113.85 142.64 L 113.48 141.65 C 113.15 140.75 112.15 140.29 111.25 140.62 C 110.35 140.96 109.90 141.95 110.23 142.85 Z M 110.61 143.89 L 110.99 144.82 C 111.35 145.70 112.36 146.13 113.25 145.77 C 114.13 145.41 114.56 144.40 114.20 143.51 L 113.83 142.59 C 113.47 141.70 112.46 141.27 111.57 141.63 C 110.68 141.99 110.25 143.00 110.61 143.89 Z M 111.00 144.86 L 111.38 145.72 C 111.76 146.60 112.79 147.01 113.66 146.62 C 114.54 146.24 114.95 145.22 114.56 144.34 L 114.19 143.47 C 113.81 142.59 112.78 142.19 111.90 142.57 C 111.02 142.96 110.62 143.98 111.00 144.86 Z M 111.39 145.76 L 111.81 146.65 C 112.21 147.52 113.24 147.91 114.11 147.50 C 114.98 147.10 115.36 146.07 114.96 145.20 L 114.55 144.31 C 114.15 143.43 113.12 143.05 112.25 143.45 C 111.37 143.85 110.99 144.89 111.39 145.76 Z M 111.83 146.69 L 112.27 147.61 C 112.70 148.47 113.74 148.82 114.60 148.40 C 115.46 147.97 115.82 146.93 115.39 146.07 L 114.94 145.16 C 114.52 144.30 113.48 143.94 112.62 144.37 C 111.76 144.79 111.40 145.83 111.83 146.69 Z M 112.31 147.67 L 112.78 148.54 C 113.24 149.38 114.30 149.69 115.14 149.23 C 115.98 148.77 116.29 147.71 115.83 146.87 L 115.36 146.01 C 114.90 145.16 113.84 144.85 113.00 145.31 C 112.16 145.77 111.85 146.83 112.31 147.67 Z M 112.83 148.62 L 113.35 149.45 C 113.86 150.27 114.93 150.51 115.74 150.00 C 116.56 149.50 116.81 148.42 116.30 147.61 L 115.78 146.78 C 115.27 145.97 114.20 145.72 113.38 146.23 C 112.57 146.74 112.32 147.81 112.83 148.62 Z M 113.42 149.56 L 114.02 150.37 C 114.59 151.15 115.67 151.31 116.45 150.75 C 117.22 150.18 117.39 149.09 116.82 148.32 L 116.22 147.50 C 115.66 146.73 114.57 146.56 113.80 147.13 C 113.02 147.70 112.86 148.78 113.42 149.56 Z M 114.11 150.48 L 114.76 151.23 C 115.39 151.96 116.48 152.04 117.21 151.41 C 117.93 150.78 118.01 149.69 117.38 148.96 L 116.73 148.21 C 116.10 147.49 115.01 147.41 114.28 148.03 C 113.56 148.66 113.48 149.76 114.11 150.48 Z M 114.86 151.34 L 115.57 152.03 C 116.26 152.70 117.36 152.68 118.02 152.00 C 118.69 151.31 118.68 150.21 117.99 149.54 L 117.28 148.86 C 116.59 148.19 115.50 148.20 114.83 148.89 C 114.16 149.58 114.18 150.67 114.86 151.34 Z M 115.69 152.13 L 116.46 152.76 C 117.21 153.36 118.30 153.24 118.90 152.50 C 119.50 151.76 119.38 150.67 118.64 150.07 L 117.87 149.44 C 117.12 148.84 116.04 148.96 115.44 149.70 C 114.83 150.44 114.95 151.53 115.69 152.13 Z M 116.60 152.85 L 117.44 153.40 C 118.23 153.92 119.30 153.70 119.83 152.91 C 120.35 152.11 120.13 151.04 119.33 150.52 L 118.50 149.97 C 117.70 149.45 116.63 149.67 116.11 150.46 C 115.59 151.26 115.81 152.33 116.60 152.85 Z M 117.59 153.49 L 118.49 153.95 C 119.33 154.39 120.37 154.06 120.81 153.22 C 121.25 152.38 120.92 151.34 120.07 150.90 L 119.18 150.43 C 118.34 149.99 117.30 150.32 116.86 151.16 C 116.42 152.01 116.75 153.05 117.59 153.49 Z M 118.64 154.03 L 119.57 154.40 C 120.46 154.75 121.46 154.31 121.81 153.43 C 122.16 152.55 121.73 151.54 120.85 151.19 L 119.92 150.82 C 119.03 150.47 118.03 150.90 117.68 151.79 C 117.33 152.67 117.76 153.67 118.64 154.03 Z M 119.73 154.46 L 120.70 154.74 C 121.62 155.00 122.58 154.47 122.84 153.55 C 123.11 152.63 122.57 151.67 121.65 151.40 L 120.69 151.13 C 119.77 150.86 118.81 151.40 118.54 152.32 C 118.28 153.24 118.81 154.20 119.73 154.46 Z M 120.87 154.79 L 121.86 154.96 C 122.80 155.13 123.71 154.49 123.88 153.54 C 124.04 152.60 123.41 151.69 122.46 151.52 L 121.48 151.35 C 120.53 151.19 119.63 151.82 119.46 152.77 C 119.29 153.72 119.93 154.62 120.87 154.79 Z M 122.05 154.99 L 123.05 155.05 C 124.01 155.11 124.84 154.38 124.91 153.42 C 124.97 152.46 124.24 151.62 123.27 151.56 L 122.27 151.50 C 121.31 151.44 120.47 152.17 120.41 153.13 C 120.35 154.09 121.08 154.93 122.05 154.99 Z M 123.17 155.06 L 124.17 155.05 C 125.13 155.05 125.91 154.26 125.91 153.30 C 125.90 152.33 125.12 151.55 124.15 151.56 L 123.16 151.56 C 122.19 151.56 121.41 152.35 121.41 153.31 C 121.42 154.28 122.20 155.06 123.17 155.06 Z M 124.17 155.05 L 125.17 155.04 C 126.13 155.03 126.91 154.24 126.90 153.28 C 126.89 152.32 126.10 151.54 125.14 151.55 L 124.14 151.56 C 123.18 151.57 122.40 152.35 122.41 153.32 C 122.42 154.28 123.21 155.06 124.17 155.05 Z M 125.06 155.04 L 126.09 155.09 C 127.05 155.14 127.87 154.40 127.92 153.44 C 127.98 152.48 127.24 151.66 126.27 151.60 L 125.24 151.55 C 124.28 151.50 123.46 152.24 123.41 153.20 C 123.36 154.17 124.10 154.99 125.06 155.04 Z M 125.86 155.07 L 126.85 155.26 C 127.80 155.43 128.71 154.81 128.89 153.86 C 129.07 152.91 128.44 151.99 127.49 151.81 L 126.50 151.63 C 125.55 151.45 124.64 152.08 124.46 153.03 C 124.28 153.98 124.91 154.89 125.86 155.07 Z M 126.47 155.15 L 127.36 155.53 C 128.25 155.91 129.28 155.50 129.66 154.61 C 130.04 153.72 129.63 152.68 128.74 152.30 L 127.86 151.92 C 126.97 151.54 125.94 151.95 125.56 152.84 C 125.17 153.73 125.58 154.76 126.47 155.15 Z M 126.90 155.24 L 127.63 155.87 C 128.36 156.51 129.47 156.43 130.11 155.70 C 130.74 154.97 130.67 153.86 129.93 153.22 L 129.20 152.59 C 128.47 151.95 127.36 152.03 126.72 152.76 C 126.09 153.50 126.17 154.60 126.90 155.24 Z M 127.29 155.48 L 127.82 156.32 C 128.34 157.15 129.42 157.39 130.24 156.88 C 131.07 156.36 131.31 155.28 130.80 154.46 L 130.27 153.61 C 129.75 152.79 128.67 152.54 127.85 153.06 C 127.02 153.58 126.78 154.66 127.29 155.48 Z M 127.63 155.90 L 127.93 156.88 C 128.21 157.81 129.19 158.33 130.12 158.05 C 131.05 157.76 131.57 156.78 131.29 155.85 L 130.99 154.88 C 130.71 153.95 129.73 153.43 128.80 153.71 C 127.87 153.99 127.35 154.97 127.63 155.90 Z M 127.85 156.48 L 127.91 157.45 C 127.98 158.42 128.82 159.16 129.79 159.09 C 130.76 159.03 131.50 158.19 131.43 157.22 L 131.37 156.25 C 131.30 155.28 130.46 154.54 129.49 154.60 C 128.52 154.67 127.78 155.51 127.85 156.48 Z M 127.90 157.20 L 127.82 158.20 C 127.75 159.17 128.48 160.03 129.46 160.11 C 130.43 160.18 131.29 159.45 131.37 158.47 L 131.44 157.47 C 131.52 156.49 130.79 155.64 129.81 155.56 C 128.83 155.49 127.98 156.22 127.90 157.20 Z M 127.82 158.08 L 127.68 159.09 C 127.54 160.07 128.22 160.98 129.20 161.12 C 130.18 161.25 131.08 160.57 131.22 159.60 L 131.37 158.58 C 131.50 157.61 130.82 156.70 129.85 156.56 C 128.87 156.42 127.96 157.10 127.82 158.08 Z M 127.67 159.08 L 127.53 160.07 C 127.38 161.05 128.06 161.96 129.05 162.11 C 130.03 162.25 130.94 161.57 131.08 160.59 L 131.23 159.60 C 131.37 158.62 130.69 157.71 129.71 157.57 C 128.73 157.42 127.82 158.10 127.67 159.08 Z M 127.53 160.05 L 127.38 161.04 C 127.23 162.02 127.90 162.93 128.88 163.09 C 129.86 163.24 130.78 162.56 130.93 161.58 L 131.08 160.60 C 131.24 159.62 130.56 158.70 129.58 158.55 C 128.60 158.40 127.68 159.07 127.53 160.05 Z M 127.39 160.99 L 127.21 161.98 C 127.03 162.96 127.68 163.90 128.66 164.07 C 129.64 164.25 130.57 163.60 130.75 162.62 L 130.93 161.63 C 131.10 160.65 130.45 159.71 129.48 159.54 C 128.50 159.36 127.56 160.01 127.39 160.99 Z M 127.22 161.89 L 126.99 162.89 C 126.76 163.86 127.37 164.83 128.34 165.05 C 129.31 165.28 130.28 164.68 130.50 163.71 L 130.73 162.71 C 130.96 161.74 130.36 160.77 129.38 160.54 C 128.41 160.32 127.44 160.92 127.22 161.89 Z M 127.05 162.66 L 126.69 163.60 C 126.34 164.54 126.82 165.59 127.76 165.94 C 128.70 166.29 129.74 165.81 130.09 164.87 L 130.45 163.93 C 130.80 162.99 130.32 161.95 129.38 161.60 C 128.44 161.25 127.40 161.72 127.05 162.66 Z M 126.90 163.18 L 126.34 163.97 C 125.76 164.80 125.96 165.94 126.78 166.52 C 127.61 167.10 128.75 166.90 129.33 166.08 L 129.89 165.29 C 130.47 164.47 130.27 163.33 129.45 162.74 C 128.62 162.16 127.48 162.36 126.90 163.18 Z M 126.81 163.51 L 126.05 164.02 C 125.21 164.59 124.99 165.73 125.56 166.57 C 126.13 167.41 127.27 167.63 128.11 167.06 L 128.87 166.55 C 129.71 165.98 129.93 164.84 129.36 164.00 C 128.79 163.16 127.65 162.94 126.81 163.51 Z M 126.51 163.79 L 125.60 164.08 C 124.64 164.40 124.11 165.45 124.43 166.41 C 124.75 167.38 125.79 167.90 126.76 167.59 L 127.66 167.29 C 128.63 166.97 129.15 165.93 128.83 164.96 C 128.51 163.99 127.47 163.47 126.51 163.79 Z M 125.87 164.01 L 124.85 164.19 C 123.84 164.36 123.17 165.32 123.34 166.33 C 123.51 167.33 124.47 168.01 125.48 167.83 L 126.50 167.66 C 127.50 167.48 128.18 166.53 128.00 165.52 C 127.83 164.51 126.87 163.84 125.87 164.01 Z M 124.98 164.17 L 123.91 164.27 C 122.89 164.38 122.15 165.28 122.25 166.30 C 122.35 167.32 123.26 168.07 124.28 167.96 L 125.35 167.86 C 126.37 167.75 127.11 166.84 127.01 165.83 C 126.90 164.81 126.00 164.06 124.98 164.17 Z M 123.95 164.27 L 122.90 164.35 C 121.88 164.44 121.12 165.33 121.20 166.35 C 121.29 167.38 122.18 168.14 123.21 168.05 L 124.25 167.97 C 125.27 167.89 126.03 166.99 125.95 165.97 C 125.87 164.95 124.97 164.18 123.95 164.27 Z M 122.91 164.35 L 121.90 164.43 C 120.88 164.51 120.11 165.40 120.19 166.42 C 120.27 167.45 121.16 168.21 122.19 168.13 L 123.20 168.05 C 124.22 167.98 124.98 167.08 124.91 166.06 C 124.83 165.04 123.93 164.27 122.91 164.35 Z M 121.91 164.43 L 120.93 164.50 C 119.90 164.58 119.14 165.47 119.21 166.49 C 119.29 167.51 120.18 168.28 121.20 168.21 L 122.18 168.13 C 123.21 168.06 123.97 167.17 123.90 166.14 C 123.82 165.12 122.93 164.35 121.91 164.43 Z M 120.93 164.50 L 119.96 164.57 C 118.94 164.65 118.17 165.54 118.25 166.56 C 118.32 167.58 119.21 168.35 120.23 168.28 L 121.20 168.20 C 122.22 168.13 122.99 167.24 122.91 166.22 C 122.84 165.19 121.95 164.43 120.93 164.50 Z M 119.96 164.58 L 118.95 164.65 C 117.93 164.73 117.16 165.62 117.24 166.64 C 117.31 167.66 118.20 168.43 119.23 168.35 L 120.24 168.27 C 121.26 168.20 122.02 167.31 121.95 166.29 C 121.87 165.26 120.98 164.50 119.96 164.58 Z M 118.95 164.65 L 117.95 164.73 C 116.93 164.81 116.17 165.70 116.24 166.72 C 116.32 167.74 117.21 168.50 118.23 168.42 L 119.23 168.35 C 120.25 168.27 121.01 167.38 120.93 166.36 C 120.86 165.34 119.97 164.58 118.95 164.65 Z M 117.95 164.73 L 116.96 164.81 C 115.94 164.88 115.18 165.77 115.26 166.79 C 115.34 167.81 116.23 168.58 117.25 168.50 L 118.23 168.42 C 119.25 168.34 120.02 167.45 119.94 166.43 C 119.86 165.42 118.97 164.65 117.95 164.73 Z M 116.96 164.81 L 116.05 164.88 C 115.03 164.96 114.27 165.85 114.35 166.86 C 114.43 167.88 115.32 168.64 116.33 168.57 L 117.25 168.49 C 118.26 168.42 119.03 167.53 118.95 166.51 C 118.87 165.49 117.98 164.73 116.96 164.81 Z M 116.05 164.88 L 115.15 164.95 C 114.13 165.03 113.38 165.92 113.46 166.94 C 113.54 167.95 114.42 168.71 115.44 168.63 L 116.34 168.56 C 117.35 168.48 118.11 167.59 118.03 166.58 C 117.95 165.56 117.06 164.80 116.05 164.88 Z M 115.14 164.96 L 114.17 165.04 C 113.15 165.12 112.40 166.01 112.48 167.03 C 112.57 168.04 113.46 168.79 114.47 168.71 L 115.45 168.63 C 116.46 168.54 117.21 167.65 117.13 166.64 C 117.05 165.63 116.16 164.87 115.14 164.96 Z M 114.16 165.04 L 113.05 165.14 C 112.04 165.23 111.29 166.12 111.38 167.13 C 111.47 168.14 112.36 168.89 113.37 168.80 L 114.48 168.70 C 115.49 168.62 116.24 167.72 116.15 166.71 C 116.06 165.70 115.17 164.95 114.16 165.04 Z M 113.04 165.15 L 112.01 165.24 C 111.00 165.33 110.26 166.23 110.35 167.23 C 110.44 168.24 111.33 168.98 112.34 168.89 L 113.38 168.80 C 114.38 168.70 115.13 167.81 115.03 166.80 C 114.94 165.79 114.05 165.05 113.04 165.15 Z M 112.01 165.25 L 111.02 165.34 C 110.02 165.43 109.28 166.32 109.37 167.32 C 109.47 168.33 110.36 169.07 111.36 168.97 L 112.34 168.88 C 113.35 168.79 114.08 167.90 113.99 166.90 C 113.90 165.89 113.01 165.16 112.01 165.25 Z M 111.03 165.35 L 110.01 165.44 C 109.01 165.52 108.27 166.40 108.35 167.41 C 108.44 168.41 109.32 169.15 110.32 169.06 L 111.35 168.97 C 112.35 168.88 113.09 168.00 113.00 167.00 C 112.92 166.00 112.03 165.26 111.03 165.35 Z M 110.02 165.44 L 108.98 165.52 C 107.99 165.60 107.24 166.47 107.32 167.47 C 107.40 168.47 108.27 169.21 109.27 169.13 L 110.31 169.05 C 111.30 168.97 112.05 168.10 111.97 167.11 C 111.89 166.11 111.02 165.36 110.02 165.44 Z M 109.01 165.53 L 107.99 165.59 C 107.00 165.65 106.24 166.51 106.31 167.50 C 106.37 168.50 107.22 169.25 108.22 169.19 L 109.24 169.13 C 110.23 169.07 110.99 168.21 110.92 167.21 C 110.86 166.22 110.01 165.47 109.01 165.53 Z M 108.03 165.60 L 107.07 165.64 C 106.08 165.68 105.31 166.51 105.35 167.50 C 105.39 168.49 106.22 169.27 107.21 169.23 L 108.18 169.19 C 109.17 169.15 109.94 168.31 109.90 167.32 C 109.86 166.33 109.02 165.56 108.03 165.60 Z M 107.13 165.66 L 105.99 165.67 C 105.01 165.67 104.23 166.47 104.23 167.44 C 104.23 168.42 105.03 169.21 106.01 169.20 L 107.15 169.20 C 108.12 169.19 108.91 168.40 108.91 167.42 C 108.90 166.45 108.11 165.66 107.13 165.66 Z M 106.06 165.72 L 105.03 165.68 C 104.08 165.64 103.29 166.38 103.25 167.33 C 103.21 168.28 103.95 169.08 104.90 169.12 L 105.93 169.15 C 106.88 169.19 107.68 168.45 107.72 167.50 C 107.75 166.55 107.01 165.75 106.06 165.72 Z M 105.09 165.73 L 104.14 165.66 C 103.22 165.59 102.42 166.28 102.35 167.20 C 102.28 168.13 102.98 168.93 103.90 168.99 L 104.85 169.06 C 105.77 169.13 106.57 168.44 106.64 167.52 C 106.70 166.60 106.01 165.80 105.09 165.73 Z M 104.18 165.71 L 103.27 165.62 C 102.38 165.54 101.59 166.19 101.50 167.08 C 101.41 167.98 102.07 168.77 102.96 168.86 L 103.86 168.94 C 104.76 169.03 105.55 168.37 105.64 167.48 C 105.72 166.59 105.07 165.80 104.18 165.71 Z M 103.28 165.66 L 103.00 165.63 C 102.12 165.54 101.34 166.17 101.25 167.05 C 101.16 167.92 101.79 168.70 102.67 168.79 L 102.95 168.82 C 103.83 168.91 104.61 168.28 104.70 167.40 C 104.79 166.53 104.15 165.75 103.28 165.66 Z"
      fill="black"
      fill-rule="nonzero" /><path d="M 120.28 93.95 L 119.29 94.21 C 118.43 94.44 117.92 95.33 118.15 96.18 C 118.38 97.04 119.26 97.56 120.12 97.33 L 121.11 97.06 C 121.97 96.84 122.48 95.95 122.25 95.09 C 122.02 94.23 121.14 93.72 120.28 93.95 Z M 119.23 94.23 L 118.27 94.53 C 117.42 94.79 116.95 95.70 117.21 96.55 C 117.47 97.40 118.38 97.87 119.23 97.61 L 120.19 97.31 C 121.04 97.05 121.51 96.14 121.25 95.29 C 120.98 94.44 120.08 93.97 119.23 94.23 Z M 118.14 94.57 L 117.23 94.94 C 116.40 95.28 116.00 96.22 116.34 97.04 C 116.67 97.87 117.61 98.27 118.44 97.93 L 119.35 97.56 C 120.18 97.23 120.58 96.29 120.24 95.46 C 119.91 94.64 118.97 94.24 118.14 94.57 Z M 117.04 95.03 L 116.19 95.52 C 115.41 95.95 115.14 96.94 115.57 97.71 C 116.01 98.49 116.99 98.76 117.77 98.32 L 118.62 97.84 C 119.40 97.41 119.67 96.42 119.24 95.65 C 118.80 94.87 117.82 94.60 117.04 95.03 Z M 116.00 95.64 L 115.21 96.25 C 114.50 96.79 114.37 97.80 114.91 98.50 C 115.45 99.21 116.46 99.34 117.17 98.80 L 117.96 98.20 C 118.66 97.66 118.80 96.65 118.26 95.94 C 117.72 95.23 116.70 95.10 116.00 95.64 Z M 115.09 96.35 L 114.36 97.04 C 113.71 97.65 113.68 98.67 114.29 99.32 C 114.90 99.96 115.92 99.99 116.56 99.38 L 117.29 98.70 C 117.94 98.09 117.97 97.07 117.36 96.42 C 116.75 95.77 115.73 95.74 115.09 96.35 Z M 114.29 97.11 L 113.60 97.84 C 112.99 98.49 113.02 99.51 113.67 100.12 C 114.32 100.73 115.34 100.69 115.95 100.05 L 116.63 99.31 C 117.24 98.67 117.21 97.65 116.56 97.04 C 115.91 96.43 114.90 96.46 114.29 97.11 Z M 113.57 97.88 L 112.90 98.63 C 112.31 99.30 112.37 100.31 113.04 100.90 C 113.70 101.49 114.71 101.43 115.30 100.77 L 115.97 100.01 C 116.56 99.35 116.50 98.33 115.84 97.75 C 115.18 97.16 114.16 97.22 113.57 97.88 Z M 112.88 98.67 L 112.24 99.43 C 111.67 100.11 111.75 101.11 112.42 101.68 C 113.10 102.25 114.10 102.17 114.67 101.49 L 115.32 100.73 C 115.89 100.06 115.81 99.05 115.13 98.48 C 114.46 97.91 113.45 98.00 112.88 98.67 Z M 112.21 99.48 L 111.59 100.27 C 111.05 100.96 111.17 101.95 111.86 102.49 C 112.55 103.04 113.55 102.92 114.09 102.23 L 114.70 101.44 C 115.24 100.75 115.12 99.76 114.44 99.22 C 113.75 98.67 112.75 98.79 112.21 99.48 Z M 111.56 100.34 L 110.93 101.23 C 110.42 101.94 110.59 102.92 111.30 103.42 C 112.01 103.92 113.00 103.75 113.50 103.04 L 114.13 102.15 C 114.63 101.44 114.46 100.46 113.75 99.96 C 113.04 99.46 112.06 99.63 111.56 100.34 Z M 110.85 101.38 L 110.29 102.41 C 109.87 103.16 110.14 104.10 110.89 104.52 C 111.64 104.93 112.59 104.66 113.00 103.91 L 113.57 102.89 C 113.99 102.14 113.72 101.19 112.97 100.78 C 112.22 100.36 111.27 100.63 110.85 101.38 Z M 110.13 102.99 L 110.04 103.76 C 109.95 104.59 110.55 105.35 111.39 105.44 C 112.23 105.54 112.98 104.93 113.08 104.09 L 113.16 103.33 C 113.25 102.49 112.65 101.74 111.81 101.64 C 110.98 101.55 110.22 102.15 110.13 102.99 Z M 110.94 105.31 L 111.62 105.61 C 112.39 105.95 113.28 105.61 113.62 104.84 C 113.96 104.08 113.62 103.18 112.85 102.84 L 112.17 102.54 C 111.41 102.20 110.51 102.55 110.17 103.31 C 109.83 104.08 110.18 104.97 110.94 105.31 Z M 112.24 105.76 L 113.36 105.76 C 114.21 105.76 114.90 105.07 114.90 104.23 C 114.90 103.38 114.21 102.69 113.36 102.69 L 112.24 102.69 C 111.39 102.69 110.70 103.38 110.70 104.23 C 110.70 105.07 111.39 105.76 112.24 105.76 Z M 113.09 105.76 L 113.93 105.91 C 114.78 106.06 115.59 105.49 115.74 104.64 C 115.88 103.80 115.32 102.99 114.47 102.84 L 113.63 102.69 C 112.78 102.54 111.98 103.11 111.83 103.96 C 111.68 104.81 112.24 105.61 113.09 105.76 Z M 112.62 104.43 L 112.64 105.04 C 112.67 105.92 113.41 106.60 114.28 106.56 C 115.15 106.53 115.83 105.80 115.80 104.93 L 115.78 104.32 C 115.74 103.45 115.01 102.76 114.14 102.80 C 113.27 102.83 112.59 103.56 112.62 104.43 Z M 112.87 104.16 L 112.29 105.11 C 111.83 105.85 112.06 106.83 112.81 107.29 C 113.56 107.75 114.54 107.51 114.99 106.76 L 115.58 105.82 C 116.03 105.07 115.80 104.09 115.05 103.63 C 114.30 103.17 113.32 103.41 112.87 104.16 Z M 112.38 104.96 L 111.66 105.88 C 111.12 106.58 111.25 107.58 111.95 108.12 C 112.64 108.66 113.64 108.53 114.18 107.84 L 114.90 106.91 C 115.44 106.22 115.31 105.21 114.62 104.67 C 113.92 104.13 112.92 104.26 112.38 104.96 Z M 111.69 105.84 L 111.06 106.62 C 110.50 107.30 110.60 108.30 111.28 108.86 C 111.96 109.42 112.97 109.32 113.53 108.64 L 114.16 107.87 C 114.72 107.19 114.62 106.18 113.94 105.62 C 113.25 105.06 112.25 105.16 111.69 105.84 Z M 111.07 106.60 L 110.42 107.36 C 109.85 108.03 109.94 109.04 110.61 109.61 C 111.28 110.18 112.29 110.10 112.86 109.43 L 113.51 108.66 C 114.08 107.99 114.00 106.98 113.32 106.41 C 112.65 105.84 111.64 105.92 111.07 106.60 Z M 110.44 107.35 L 109.78 108.11 C 109.20 108.77 109.27 109.78 109.94 110.36 C 110.60 110.94 111.61 110.86 112.19 110.20 L 112.85 109.44 C 113.42 108.78 113.35 107.77 112.69 107.19 C 112.02 106.61 111.02 106.68 110.44 107.35 Z M 109.78 108.11 L 109.05 108.96 C 108.47 109.62 108.55 110.63 109.21 111.20 C 109.88 111.78 110.88 111.70 111.45 111.04 L 112.19 110.19 C 112.76 109.53 112.69 108.53 112.02 107.95 C 111.36 107.38 110.35 107.45 109.78 108.11 Z M 108.98 109.06 L 108.36 109.90 C 107.85 110.60 108.00 111.59 108.70 112.11 C 109.41 112.63 110.40 112.47 110.91 111.77 L 111.53 110.93 C 112.04 110.23 111.89 109.24 111.19 108.72 C 110.48 108.21 109.49 108.36 108.98 109.06 Z M 108.19 110.22 L 107.85 111.03 C 107.51 111.83 107.89 112.75 108.69 113.09 C 109.48 113.43 110.41 113.05 110.74 112.25 L 111.08 111.45 C 111.42 110.65 111.05 109.73 110.25 109.39 C 109.45 109.05 108.53 109.42 108.19 110.22 Z M 107.74 111.79 L 107.82 112.66 C 107.90 113.52 108.66 114.16 109.52 114.08 C 110.38 114.00 111.02 113.23 110.94 112.37 L 110.86 111.50 C 110.78 110.64 110.01 110.00 109.15 110.08 C 108.29 110.16 107.66 110.93 107.74 111.79 Z M 107.93 113.11 L 108.30 114.02 C 108.62 114.82 109.53 115.20 110.33 114.88 C 111.14 114.55 111.52 113.64 111.20 112.84 L 110.83 111.93 C 110.50 111.13 109.59 110.74 108.79 111.07 C 107.99 111.39 107.60 112.31 107.93 113.11 Z M 108.22 113.76 L 108.42 114.71 C 108.61 115.56 109.44 116.09 110.29 115.91 C 111.14 115.72 111.67 114.89 111.48 114.04 L 111.28 113.09 C 111.09 112.25 110.26 111.71 109.41 111.90 C 108.57 112.08 108.03 112.92 108.22 113.76 Z M 108.41 114.10 L 108.27 114.86 C 108.12 115.71 108.68 116.53 109.53 116.69 C 110.38 116.84 111.20 116.28 111.36 115.43 L 111.50 114.66 C 111.65 113.81 111.09 112.99 110.24 112.83 C 109.38 112.68 108.57 113.24 108.41 114.10 Z M 108.37 114.53 L 108.01 115.39 C 107.67 116.19 108.04 117.11 108.83 117.45 C 109.63 117.79 110.55 117.42 110.89 116.62 L 111.26 115.76 C 111.60 114.96 111.23 114.04 110.43 113.70 C 109.63 113.36 108.71 113.73 108.37 114.53 Z M 108.07 115.25 L 107.54 116.23 C 107.12 116.99 107.40 117.95 108.17 118.36 C 108.93 118.77 109.88 118.49 110.29 117.73 L 110.82 116.75 C 111.24 115.99 110.96 115.04 110.20 114.63 C 109.44 114.21 108.48 114.49 108.07 115.25 Z M 107.55 116.21 L 106.94 117.28 C 106.51 118.03 106.78 118.99 107.53 119.42 C 108.28 119.85 109.24 119.58 109.66 118.83 L 110.28 117.76 C 110.70 117.01 110.44 116.05 109.69 115.62 C 108.94 115.19 107.98 115.46 107.55 116.21 Z M 106.93 117.31 L 106.35 118.38 C 105.95 119.14 106.23 120.09 106.99 120.50 C 107.75 120.91 108.69 120.62 109.10 119.86 L 109.68 118.80 C 110.09 118.04 109.80 117.09 109.05 116.68 C 108.29 116.27 107.34 116.56 106.93 117.31 Z M 106.32 118.46 L 105.84 119.49 C 105.48 120.27 105.81 121.19 106.59 121.55 C 107.36 121.92 108.29 121.59 108.65 120.81 L 109.13 119.78 C 109.50 119.01 109.16 118.08 108.39 117.72 C 107.61 117.35 106.69 117.69 106.32 118.46 Z M 105.78 119.67 L 105.50 120.54 C 105.23 121.35 105.68 122.22 106.49 122.49 C 107.30 122.75 108.17 122.30 108.43 121.49 L 108.72 120.63 C 108.98 119.81 108.53 118.94 107.72 118.68 C 106.91 118.42 106.04 118.86 105.78 119.67 Z M 105.43 121.11 L 105.47 121.71 C 105.52 122.56 106.25 123.20 107.09 123.15 C 107.94 123.10 108.59 122.37 108.54 121.52 L 108.50 120.92 C 108.45 120.08 107.72 119.43 106.87 119.48 C 106.03 119.53 105.38 120.26 105.43 121.11 Z M 106.49 123.06 L 107.21 123.31 C 108.01 123.59 108.88 123.18 109.16 122.38 C 109.45 121.58 109.03 120.71 108.23 120.43 L 107.51 120.17 C 106.71 119.89 105.84 120.31 105.56 121.11 C 105.28 121.91 105.70 122.78 106.49 123.06 Z M 107.80 123.40 L 108.87 123.34 C 109.72 123.30 110.36 122.58 110.32 121.74 C 110.28 120.89 109.56 120.25 108.72 120.29 L 107.64 120.35 C 106.80 120.39 106.15 121.11 106.20 121.95 C 106.24 122.79 106.96 123.44 107.80 123.40 Z M 108.48 123.31 L 109.32 123.48 C 110.15 123.66 110.96 123.13 111.13 122.30 C 111.30 121.48 110.77 120.67 109.95 120.50 L 109.11 120.32 C 108.28 120.15 107.48 120.68 107.30 121.50 C 107.13 122.33 107.66 123.13 108.48 123.31 Z M 108.33 122.76 L 108.67 123.35 C 109.10 124.07 110.03 124.32 110.76 123.89 C 111.48 123.46 111.72 122.53 111.29 121.80 L 110.95 121.22 C 110.52 120.49 109.59 120.25 108.86 120.68 C 108.14 121.11 107.90 122.04 108.33 122.76 Z M 108.46 122.60 L 108.47 123.57 C 108.49 124.41 109.18 125.08 110.02 125.07 C 110.87 125.06 111.54 124.36 111.52 123.52 L 111.51 122.55 C 111.49 121.71 110.80 121.04 109.96 121.05 C 109.12 121.07 108.44 121.76 108.46 122.60 Z M 108.50 123.25 L 108.24 124.55 C 108.08 125.38 108.61 126.18 109.44 126.35 C 110.27 126.51 111.07 125.97 111.24 125.15 L 111.50 123.84 C 111.66 123.02 111.12 122.21 110.30 122.05 C 109.47 121.88 108.67 122.42 108.50 123.25 Z M 108.27 124.43 L 107.99 125.39 C 107.76 126.20 108.23 127.04 109.04 127.28 C 109.85 127.51 110.69 127.04 110.93 126.23 L 111.21 125.27 C 111.44 124.46 110.97 123.61 110.16 123.38 C 109.35 123.15 108.50 123.61 108.27 124.43 Z M 108.01 125.34 L 107.70 126.29 C 107.44 127.09 107.88 127.95 108.68 128.21 C 109.48 128.47 110.34 128.03 110.60 127.23 L 110.91 126.28 C 111.17 125.48 110.74 124.62 109.93 124.36 C 109.13 124.10 108.27 124.54 108.01 125.34 Z M 107.71 126.26 L 107.37 127.24 C 107.09 128.04 107.51 128.91 108.31 129.18 C 109.10 129.46 109.97 129.04 110.25 128.25 L 110.59 127.26 C 110.87 126.47 110.45 125.60 109.65 125.32 C 108.86 125.04 107.99 125.46 107.71 126.26 Z M 107.38 127.23 L 107.02 128.22 C 106.73 129.01 107.14 129.88 107.93 130.16 C 108.73 130.45 109.60 130.04 109.88 129.25 L 110.24 128.26 C 110.53 127.47 110.12 126.60 109.32 126.31 C 108.53 126.03 107.66 126.44 107.38 127.23 Z M 107.02 128.21 L 106.67 129.17 C 106.38 129.96 106.79 130.83 107.58 131.12 C 108.37 131.41 109.24 131.00 109.53 130.21 L 109.88 129.25 C 110.17 128.46 109.76 127.59 108.97 127.30 C 108.18 127.02 107.31 127.42 107.02 128.21 Z M 106.67 129.18 L 106.35 130.08 C 106.06 130.87 106.47 131.74 107.26 132.02 C 108.05 132.31 108.93 131.90 109.21 131.11 L 109.53 130.21 C 109.82 129.42 109.41 128.55 108.61 128.26 C 107.82 127.98 106.95 128.39 106.67 129.18 Z M 106.35 130.11 L 105.96 131.24 C 105.70 132.03 106.12 132.89 106.91 133.16 C 107.70 133.42 108.56 133.00 108.83 132.21 L 109.21 131.08 C 109.48 130.29 109.05 129.43 108.26 129.16 C 107.47 128.89 106.61 129.32 106.35 130.11 Z M 105.96 131.29 L 105.66 132.30 C 105.42 133.09 105.87 133.93 106.66 134.17 C 107.45 134.41 108.28 133.96 108.52 133.17 L 108.83 132.16 C 109.07 131.37 108.62 130.53 107.83 130.29 C 107.04 130.05 106.20 130.50 105.96 131.29 Z M 105.66 132.37 L 105.43 133.27 C 105.22 134.06 105.70 134.87 106.49 135.07 C 107.29 135.27 108.09 134.79 108.29 134.00 L 108.52 133.10 C 108.73 132.31 108.25 131.50 107.45 131.30 C 106.66 131.10 105.86 131.58 105.66 132.37 Z M 105.42 133.35 L 105.26 134.18 C 105.10 134.97 105.62 135.74 106.41 135.90 C 107.20 136.06 107.97 135.55 108.13 134.75 L 108.30 133.92 C 108.45 133.13 107.94 132.36 107.15 132.20 C 106.35 132.04 105.58 132.56 105.42 133.35 Z M 105.26 134.27 L 105.12 135.24 C 105.01 136.03 105.57 136.77 106.36 136.88 C 107.15 136.99 107.89 136.43 108.00 135.64 L 108.13 134.67 C 108.24 133.87 107.69 133.14 106.89 133.03 C 106.10 132.92 105.37 133.47 105.26 134.27 Z M 105.12 135.32 L 105.04 136.31 C 104.97 137.11 105.56 137.81 106.35 137.87 C 107.14 137.94 107.84 137.35 107.91 136.56 L 108.00 135.56 C 108.06 134.77 107.48 134.07 106.68 134.00 C 105.89 133.94 105.19 134.52 105.12 135.32 Z M 105.04 136.36 L 104.99 137.35 C 104.95 138.14 105.56 138.81 106.35 138.86 C 107.14 138.90 107.81 138.29 107.85 137.50 L 107.91 136.51 C 107.95 135.72 107.34 135.05 106.55 135.01 C 105.76 134.96 105.08 135.57 105.04 136.36 Z M 104.99 137.36 L 104.98 137.78 C 104.94 138.57 105.56 139.24 106.34 139.27 C 107.13 139.30 107.80 138.69 107.83 137.90 L 107.85 137.48 C 107.88 136.70 107.27 136.03 106.48 136.00 C 105.69 135.96 105.03 136.57 104.99 137.36 Z"
      fill="black"
      fill-rule="nonzero" /><path d="M 110.65 156.61 L 110.45 155.58 C 110.29 154.77 109.51 154.25 108.70 154.40 C 107.89 154.56 107.36 155.34 107.52 156.15 L 107.72 157.18 C 107.87 157.98 108.66 158.51 109.47 158.36 C 110.27 158.20 110.80 157.42 110.65 156.61 Z M 110.48 155.71 L 110.37 154.71 C 110.29 153.89 109.55 153.29 108.72 153.37 C 107.90 153.46 107.30 154.20 107.38 155.02 L 107.49 156.02 C 107.58 156.85 108.31 157.45 109.14 157.36 C 109.96 157.28 110.56 156.54 110.48 155.71 Z M 110.39 155.01 L 110.47 154.06 C 110.55 153.23 109.93 152.49 109.10 152.42 C 108.27 152.34 107.53 152.96 107.46 153.79 L 107.37 154.73 C 107.30 155.57 107.91 156.30 108.74 156.38 C 109.58 156.45 110.31 155.84 110.39 155.01 Z M 110.36 154.55 L 110.83 153.49 C 111.18 152.72 110.83 151.82 110.07 151.48 C 109.30 151.13 108.39 151.47 108.05 152.24 L 107.57 153.30 C 107.23 154.07 107.57 154.97 108.34 155.32 C 109.11 155.66 110.01 155.32 110.36 154.55 Z M 110.46 154.02 L 111.16 153.41 C 111.79 152.84 111.85 151.87 111.29 151.23 C 110.72 150.59 109.75 150.53 109.11 151.10 L 108.42 151.72 C 107.78 152.28 107.72 153.25 108.29 153.89 C 108.85 154.53 109.83 154.59 110.46 154.02 Z M 109.75 153.75 L 110.35 153.91 C 111.18 154.12 112.03 153.62 112.24 152.79 C 112.45 151.96 111.95 151.12 111.12 150.91 L 110.52 150.75 C 109.69 150.54 108.85 151.04 108.64 151.87 C 108.42 152.70 108.92 153.54 109.75 153.75 Z M 109.63 153.48 L 110.26 154.13 C 110.85 154.74 111.83 154.76 112.44 154.17 C 113.05 153.58 113.07 152.60 112.48 151.99 L 111.85 151.34 C 111.26 150.73 110.28 150.71 109.67 151.30 C 109.06 151.89 109.04 152.86 109.63 153.48 Z M 110.74 154.45 L 111.75 154.91 C 112.51 155.26 113.42 154.92 113.77 154.15 C 114.12 153.38 113.78 152.48 113.01 152.13 L 112.00 151.67 C 111.23 151.32 110.33 151.66 109.98 152.43 C 109.63 153.20 109.97 154.10 110.74 154.45 Z M 112.35 155.05 L 113.32 155.07 C 114.16 155.09 114.86 154.41 114.88 153.57 C 114.90 152.72 114.22 152.02 113.38 152.00 L 112.41 151.99 C 111.56 151.97 110.86 152.64 110.84 153.49 C 110.83 154.34 111.50 155.04 112.35 155.05 Z M 113.48 155.09 L 114.56 155.00 C 115.42 154.93 116.06 154.18 115.98 153.32 C 115.91 152.46 115.16 151.82 114.30 151.90 L 113.22 151.99 C 112.36 152.06 111.72 152.81 111.80 153.67 C 111.87 154.52 112.62 155.16 113.48 155.09 Z M 114.51 155.03 L 115.54 154.98 C 116.41 154.94 117.09 154.19 117.04 153.32 C 117.00 152.45 116.26 151.78 115.39 151.82 L 114.36 151.87 C 113.48 151.91 112.81 152.65 112.85 153.52 C 112.89 154.40 113.64 155.07 114.51 155.03 Z M 115.17 154.97 L 116.03 155.13 C 116.90 155.29 117.74 154.72 117.90 153.85 C 118.06 152.98 117.49 152.14 116.62 151.98 L 115.76 151.82 C 114.89 151.66 114.05 152.24 113.89 153.11 C 113.73 153.98 114.30 154.81 115.17 154.97 Z M 115.17 154.68 L 115.80 155.34 C 116.42 155.97 117.44 155.99 118.08 155.37 C 118.72 154.75 118.74 153.73 118.12 153.09 L 117.48 152.43 C 116.86 151.79 115.84 151.78 115.20 152.40 C 114.56 153.02 114.55 154.04 115.17 154.68 Z M 115.47 154.83 L 115.85 155.73 C 116.19 156.55 117.13 156.94 117.95 156.60 C 118.77 156.26 119.16 155.31 118.82 154.49 L 118.45 153.60 C 118.11 152.77 117.16 152.39 116.34 152.73 C 115.52 153.07 115.13 154.01 115.47 154.83 Z M 115.96 155.94 L 116.45 156.74 C 116.91 157.50 117.89 157.74 118.65 157.28 C 119.41 156.82 119.65 155.84 119.19 155.08 L 118.70 154.28 C 118.24 153.53 117.26 153.28 116.50 153.74 C 115.75 154.20 115.51 155.18 115.96 155.94 Z M 116.86 157.16 L 117.61 157.74 C 118.30 158.27 119.29 158.14 119.82 157.45 C 120.35 156.76 120.22 155.77 119.53 155.24 L 118.78 154.66 C 118.09 154.14 117.10 154.27 116.57 154.96 C 116.04 155.65 116.17 156.63 116.86 157.16 Z M 117.77 157.80 L 118.64 158.33 C 119.36 158.77 120.31 158.54 120.75 157.82 C 121.19 157.10 120.96 156.15 120.24 155.71 L 119.37 155.18 C 118.65 154.74 117.70 154.96 117.26 155.69 C 116.82 156.41 117.05 157.36 117.77 157.80 Z M 118.49 158.18 L 119.23 158.79 C 119.88 159.31 120.82 159.22 121.35 158.57 C 121.87 157.93 121.77 156.98 121.13 156.46 L 120.39 155.85 C 119.75 155.33 118.80 155.43 118.27 156.07 C 117.75 156.71 117.85 157.66 118.49 158.18 Z M 119.00 158.52 L 119.54 159.22 C 120.03 159.87 120.96 160.00 121.61 159.50 C 122.26 159.01 122.39 158.08 121.89 157.43 L 121.36 156.73 C 120.86 156.08 119.93 155.95 119.29 156.45 C 118.64 156.94 118.51 157.87 119.00 158.52 Z M 119.40 158.95 L 119.82 159.84 C 120.17 160.57 121.04 160.88 121.77 160.53 C 122.50 160.18 122.80 159.31 122.46 158.59 L 122.03 157.70 C 121.68 156.97 120.81 156.66 120.09 157.01 C 119.36 157.36 119.05 158.23 119.40 158.95 Z M 119.76 159.61 L 120.07 160.71 C 120.29 161.47 121.09 161.91 121.85 161.69 C 122.62 161.48 123.06 160.68 122.84 159.91 L 122.52 158.82 C 122.30 158.05 121.51 157.61 120.74 157.83 C 119.98 158.05 119.54 158.85 119.76 159.61 Z M 120.05 160.55 L 120.21 161.49 C 120.34 162.26 121.08 162.78 121.86 162.65 C 122.63 162.52 123.16 161.78 123.02 161.00 L 122.86 160.07 C 122.73 159.29 121.99 158.77 121.21 158.90 C 120.44 159.04 119.91 159.78 120.05 160.55 Z M 120.20 161.40 L 120.30 162.32 C 120.38 163.11 121.09 163.67 121.87 163.59 C 122.65 163.50 123.22 162.80 123.13 162.01 L 123.03 161.09 C 122.95 160.31 122.24 159.74 121.46 159.83 C 120.68 159.91 120.11 160.62 120.20 161.40 Z M 120.29 162.27 L 120.36 163.26 C 120.42 164.04 121.10 164.64 121.88 164.58 C 122.67 164.53 123.26 163.85 123.21 163.06 L 123.14 162.07 C 123.08 161.28 122.40 160.69 121.62 160.75 C 120.83 160.80 120.24 161.48 120.29 162.27 Z M 120.36 163.22 L 120.41 164.26 C 120.44 165.05 121.11 165.66 121.89 165.62 C 122.68 165.59 123.29 164.92 123.26 164.14 L 123.21 163.10 C 123.17 162.31 122.51 161.70 121.72 161.74 C 120.94 161.77 120.33 162.44 120.36 163.22 Z M 120.41 164.24 L 120.44 165.31 C 120.46 166.10 121.12 166.72 121.90 166.70 C 122.69 166.67 123.31 166.02 123.29 165.23 L 123.26 164.16 C 123.23 163.37 122.58 162.75 121.79 162.77 C 121.00 162.80 120.38 163.45 120.41 164.24 Z M 120.44 165.30 L 120.46 166.18 C 120.48 166.97 121.13 167.59 121.91 167.58 C 122.70 167.56 123.33 166.91 123.31 166.12 L 123.29 165.24 C 123.27 164.45 122.62 163.83 121.83 163.85 C 121.04 163.86 120.42 164.52 120.44 165.30 Z"
      fill="black"
      fill-rule="nonzero" /></svg>