<svg xmlns="http://www.w3.org/2000/svg" width="300" height="300" viewBox="0 0 300 300">
<path d="M 127.47 119.46 L 127.48 118.06 C 127.48 117.24 126.82 116.57 126.00 116.57 C 125.18 116.56 124.51 117.22 124.51 118.04 L 124.50 119.44 C 124.49 120.26 125.15 120.93 125.97 120.94 C 126.79 120.94 127.46 120.28 127.47 119.46 Z M 127.51 118.14 L 127.57 117.07 C 127.62 116.23 126.98 115.51 126.14 115.46 C 125.31 115.41 124.59 116.05 124.54 116.89 L 124.47 117.96 C 124.43 118.80 125.07 119.52 125.90 119.57 C 126.74 119.62 127.46 118.98 127.51 118.14 Z M 127.50 117.56 L 127.67 117.14 C 127.99 116.35 127.60 115.44 126.81 115.12 C 126.01 114.80 125.11 115.18 124.78 115.98 L 124.61 116.40 C 124.29 117.19 124.68 118.10 125.47 118.42 C 126.27 118.74 127.17 118.36 127.50 117.56 Z M 124.94 117.48 L 125.22 117.86 C 125.73 118.57 126.72 118.73 127.42 118.22 C 128.13 117.71 128.29 116.73 127.78 116.02 L 127.51 115.64 C 127.00 114.93 126.01 114.77 125.30 115.28 C 124.60 115.79 124.43 116.77 124.94 117.48 Z M 125.01 117.51 L 125.36 118.43 C 125.68 119.25 126.59 119.67 127.42 119.35 C 128.24 119.04 128.65 118.12 128.34 117.30 L 127.99 116.38 C 127.68 115.55 126.76 115.14 125.93 115.45 C 125.11 115.77 124.70 116.68 125.01 117.51 Z M 125.32 118.34 L 125.70 119.55 C 125.96 120.39 126.86 120.86 127.70 120.60 C 128.55 120.34 129.02 119.44 128.76 118.59 L 128.38 117.39 C 128.12 116.54 127.22 116.07 126.37 116.34 C 125.53 116.60 125.06 117.50 125.32 118.34 Z M 125.67 119.51 L 126.01 120.68 C 126.25 121.54 127.14 122.04 128.00 121.79 C 128.86 121.55 129.36 120.66 129.11 119.80 L 128.78 118.63 C 128.54 117.77 127.64 117.27 126.79 117.52 C 125.93 117.76 125.43 118.65 125.67 119.51 Z M 125.99 120.65 L 126.26 121.66 C 126.49 122.53 127.37 123.04 128.24 122.81 C 129.10 122.58 129.62 121.70 129.39 120.83 L 129.13 119.83 C 128.90 118.96 128.01 118.45 127.15 118.67 C 126.28 118.90 125.76 119.79 125.99 120.65 Z M 126.25 121.63 L 126.47 122.57 C 126.69 123.45 127.56 123.98 128.43 123.77 C 129.31 123.56 129.84 122.68 129.63 121.81 L 129.40 120.87 C 129.19 119.99 128.32 119.46 127.44 119.67 C 126.57 119.88 126.04 120.76 126.25 121.63 Z M 126.46 122.54 L 126.67 123.47 C 126.86 124.35 127.72 124.91 128.60 124.72 C 129.48 124.52 130.04 123.66 129.85 122.78 L 129.64 121.85 C 129.45 120.97 128.59 120.41 127.71 120.60 C 126.83 120.79 126.27 121.66 126.46 122.54 Z M 126.65 123.44 L 126.84 124.36 C 127.01 125.24 127.87 125.82 128.75 125.65 C 129.64 125.47 130.21 124.62 130.04 123.73 L 129.86 122.81 C 129.68 121.93 128.83 121.35 127.94 121.52 C 127.06 121.70 126.48 122.55 126.65 123.44 Z M 126.83 124.34 L 126.99 125.27 C 127.16 126.16 128.01 126.75 128.89 126.59 C 129.78 126.43 130.37 125.58 130.21 124.69 L 130.05 123.76 C 129.89 122.87 129.04 122.28 128.15 122.44 C 127.26 122.60 126.67 123.45 126.83 124.34 Z M 126.99 125.25 L 127.15 126.24 C 127.31 127.13 128.15 127.73 129.04 127.58 C 129.94 127.43 130.54 126.58 130.39 125.69 L 130.22 124.71 C 130.07 123.81 129.22 123.21 128.33 123.36 C 127.44 123.51 126.84 124.36 126.99 125.25 Z M 127.15 126.23 L 127.32 127.26 C 127.46 128.15 128.31 128.76 129.20 128.62 C 130.10 128.47 130.71 127.63 130.56 126.73 L 130.39 125.70 C 130.25 124.80 129.40 124.19 128.51 124.34 C 127.61 124.49 127.00 125.33 127.15 126.23 Z M 127.31 127.25 L 127.48 128.27 C 127.62 129.17 128.46 129.78 129.36 129.64 C 130.26 129.50 130.87 128.65 130.73 127.75 L 130.57 126.74 C 130.42 125.84 129.58 125.22 128.68 125.37 C 127.78 125.51 127.17 126.36 127.31 127.25 Z M 127.47 128.27 L 127.62 129.22 C 127.76 130.12 128.61 130.74 129.51 130.59 C 130.41 130.45 131.02 129.61 130.88 128.71 L 130.73 127.76 C 130.59 126.86 129.74 126.24 128.84 126.38 C 127.94 126.53 127.33 127.37 127.47 128.27 Z M 127.62 129.21 L 127.77 130.19 C 127.91 131.10 128.75 131.71 129.65 131.58 C 130.56 131.44 131.17 130.59 131.04 129.69 L 130.89 128.71 C 130.75 127.81 129.90 127.19 129.00 127.33 C 128.10 127.47 127.48 128.31 127.62 129.21 Z M 127.76 130.18 L 127.91 131.19 C 128.05 132.09 128.89 132.72 129.79 132.58 C 130.70 132.45 131.32 131.61 131.19 130.70 L 131.04 129.70 C 130.91 128.79 130.06 128.17 129.16 128.30 C 128.25 128.44 127.63 129.28 127.76 130.18 Z M 127.91 131.17 L 128.05 132.20 C 128.18 133.10 129.02 133.74 129.92 133.61 C 130.83 133.48 131.46 132.65 131.34 131.74 L 131.19 130.72 C 131.07 129.81 130.23 129.17 129.32 129.30 C 128.41 129.43 127.78 130.27 127.91 131.17 Z M 128.04 132.18 L 128.18 133.19 C 128.29 134.10 129.13 134.74 130.04 134.62 C 130.95 134.51 131.59 133.67 131.47 132.76 L 131.34 131.75 C 131.22 130.84 130.39 130.20 129.48 130.32 C 128.57 130.44 127.93 131.27 128.04 132.18 Z M 128.17 133.17 L 128.29 134.15 C 128.40 135.06 129.22 135.71 130.14 135.60 C 131.05 135.49 131.70 134.66 131.59 133.75 L 131.48 132.78 C 131.37 131.86 130.54 131.21 129.63 131.32 C 128.71 131.43 128.06 132.26 128.17 133.17 Z M 128.28 134.13 L 128.39 135.12 C 128.49 136.03 129.32 136.69 130.23 136.59 C 131.15 136.49 131.81 135.66 131.71 134.75 L 131.60 133.76 C 131.50 132.85 130.67 132.19 129.76 132.29 C 128.84 132.39 128.18 133.22 128.28 134.13 Z M 128.39 135.11 L 128.49 136.10 C 128.59 137.02 129.41 137.69 130.33 137.59 C 131.25 137.49 131.91 136.67 131.82 135.76 L 131.71 134.76 C 131.61 133.84 130.79 133.18 129.88 133.27 C 128.96 133.37 128.29 134.19 128.39 135.11 Z M 128.49 136.10 L 128.59 137.10 C 128.68 138.02 129.50 138.69 130.42 138.60 C 131.34 138.51 132.01 137.69 131.92 136.77 L 131.82 135.76 C 131.73 134.84 130.91 134.17 129.99 134.26 C 129.07 134.36 128.40 135.18 128.49 136.10 Z M 128.59 137.10 L 128.69 138.12 C 128.78 139.04 129.59 139.71 130.52 139.62 C 131.44 139.53 132.11 138.71 132.02 137.79 L 131.92 136.78 C 131.83 135.85 131.01 135.18 130.09 135.27 C 129.17 135.36 128.50 136.18 128.59 137.10 Z M 128.68 138.11 L 128.78 139.09 C 128.86 140.01 129.68 140.69 130.61 140.60 C 131.53 140.51 132.21 139.69 132.12 138.77 L 132.02 137.80 C 131.94 136.87 131.12 136.20 130.19 136.28 C 129.27 136.37 128.59 137.19 128.68 138.11 Z M 128.77 139.08 L 128.86 140.07 C 128.95 140.99 129.77 141.67 130.69 141.58 C 131.62 141.50 132.30 140.68 132.21 139.76 L 132.12 138.77 C 132.03 137.85 131.22 137.17 130.29 137.25 C 129.37 137.34 128.69 138.16 128.77 139.08 Z M 128.86 140.06 L 128.95 141.05 C 129.03 141.98 129.85 142.66 130.77 142.58 C 131.70 142.50 132.39 141.68 132.30 140.76 L 132.22 139.76 C 132.13 138.84 131.32 138.15 130.39 138.23 C 129.46 138.32 128.78 139.13 128.86 140.06 Z M 128.94 141.05 L 129.03 142.05 C 129.11 142.98 129.92 143.67 130.85 143.59 C 131.78 143.51 132.47 142.70 132.39 141.77 L 132.31 140.76 C 132.23 139.84 131.41 139.15 130.49 139.22 C 129.56 139.30 128.87 140.12 128.94 141.05 Z M 129.03 142.04 L 129.10 143.05 C 129.17 143.98 129.99 144.68 130.92 144.61 C 131.85 144.54 132.54 143.72 132.47 142.79 L 132.39 141.78 C 132.32 140.85 131.51 140.15 130.58 140.22 C 129.65 140.30 128.95 141.11 129.03 142.04 Z M 129.10 143.04 L 129.17 144.04 C 129.23 144.98 130.04 145.68 130.97 145.61 C 131.91 145.55 132.61 144.74 132.55 143.81 L 132.48 142.81 C 132.41 141.87 131.60 141.17 130.67 141.23 C 129.74 141.30 129.03 142.11 129.10 143.04 Z M 129.17 144.03 L 129.23 145.01 C 129.28 145.94 130.09 146.65 131.02 146.59 C 131.96 146.54 132.67 145.73 132.61 144.80 L 132.55 143.82 C 132.49 142.89 131.69 142.18 130.75 142.23 C 129.82 142.29 129.11 143.10 129.17 144.03 Z M 129.22 145.00 L 129.28 145.98 C 129.33 146.92 130.13 147.63 131.07 147.58 C 132.01 147.53 132.72 146.73 132.67 145.79 L 132.61 144.81 C 132.56 143.87 131.76 143.15 130.82 143.21 C 129.89 143.26 129.17 144.06 129.22 145.00 Z M 129.28 145.98 L 129.33 146.97 C 129.38 147.91 130.18 148.63 131.12 148.58 C 132.05 148.53 132.77 147.73 132.72 146.79 L 132.67 145.80 C 132.62 144.86 131.82 144.14 130.88 144.19 C 129.95 144.24 129.23 145.04 129.28 145.98 Z M 129.32 146.97 L 129.38 147.97 C 129.42 148.91 130.23 149.64 131.16 149.59 C 132.10 149.54 132.83 148.74 132.78 147.80 L 132.73 146.79 C 132.68 145.85 131.88 145.13 130.94 145.18 C 130.00 145.23 129.28 146.03 129.32 146.97 Z M 129.37 147.98 L 129.43 148.99 C 129.47 149.94 130.28 150.66 131.22 150.61 C 132.16 150.56 132.88 149.76 132.83 148.82 L 132.78 147.80 C 132.73 146.86 131.93 146.14 130.99 146.18 C 130.05 146.23 129.33 147.03 129.37 147.98 Z M 129.42 149.00 L 129.48 150.01 C 129.53 150.95 130.33 151.67 131.27 151.62 C 132.22 151.57 132.94 150.77 132.89 149.82 L 132.84 148.82 C 132.79 147.87 131.98 147.15 131.04 147.20 C 130.10 147.25 129.37 148.05 129.42 149.00 Z M 129.47 150.01 L 129.53 150.98 C 129.58 151.93 130.39 152.65 131.33 152.60 C 132.27 152.55 133.00 151.74 132.95 150.80 L 132.89 149.82 C 132.84 148.88 132.03 148.15 131.09 148.21 C 130.15 148.26 129.42 149.06 129.47 150.01 Z M 129.53 150.98 L 129.58 151.97 C 129.63 152.92 130.44 153.64 131.39 153.59 C 132.33 153.54 133.05 152.73 133.00 151.78 L 132.95 150.80 C 132.90 149.85 132.09 149.13 131.14 149.18 C 130.20 149.23 129.47 150.04 129.53 150.98 Z M 129.58 151.97 L 129.63 152.97 C 129.68 153.91 130.49 154.64 131.44 154.59 C 132.39 154.54 133.11 153.73 133.06 152.78 L 133.00 151.78 C 132.95 150.84 132.14 150.11 131.20 150.16 C 130.25 150.21 129.53 151.02 129.58 151.97 Z M 129.63 152.96 L 129.68 153.97 C 129.73 154.92 130.54 155.64 131.49 155.60 C 132.44 155.55 133.16 154.74 133.11 153.79 L 133.06 152.78 C 133.01 151.84 132.20 151.11 131.26 151.16 C 130.31 151.21 129.58 152.01 129.63 152.96 Z M 129.68 153.96 L 129.73 154.98 C 129.77 155.93 130.58 156.66 131.53 156.61 C 132.48 156.57 133.21 155.76 133.17 154.81 L 133.12 153.80 C 133.07 152.85 132.26 152.11 131.31 152.16 C 130.37 152.21 129.63 153.01 129.68 153.96 Z M 129.73 154.97 L 129.77 155.99 C 129.81 156.94 130.62 157.68 131.57 157.64 C 132.52 157.60 133.25 156.79 133.21 155.84 L 133.17 154.82 C 133.13 153.87 132.32 153.13 131.37 153.17 C 130.42 153.21 129.68 154.02 129.73 154.97 Z M 129.77 155.98 L 129.80 156.96 C 129.84 157.91 130.64 158.66 131.59 158.62 C 132.55 158.58 133.29 157.78 133.25 156.83 L 133.22 155.85 C 133.18 154.90 132.38 154.16 131.43 154.19 C 130.47 154.23 129.73 155.03 129.77 155.98 Z M 129.80 156.95 L 129.83 157.94 C 129.87 158.89 130.66 159.64 131.62 159.61 C 132.57 159.57 133.32 158.78 133.29 157.82 L 133.25 156.84 C 133.22 155.89 132.43 155.14 131.47 155.17 C 130.52 155.20 129.77 156.00 129.80 156.95 Z M 129.83 157.93 L 129.86 158.92 C 129.89 159.87 130.68 160.62 131.64 160.60 C 132.59 160.57 133.34 159.78 133.32 158.82 L 133.29 157.83 C 133.26 156.88 132.47 156.12 131.51 156.15 C 130.56 156.18 129.81 156.97 129.83 157.93 Z M 129.86 158.91 L 129.88 159.91 C 129.91 160.87 130.70 161.62 131.65 161.60 C 132.61 161.57 133.37 160.78 133.34 159.83 L 133.32 158.83 C 133.29 157.87 132.50 157.12 131.55 157.14 C 130.59 157.16 129.83 157.96 129.86 158.91 Z M 129.88 159.91 L 129.90 160.91 C 129.92 161.87 130.72 162.63 131.67 162.61 C 132.63 162.59 133.39 161.79 133.37 160.84 L 133.34 159.83 C 133.32 158.87 132.53 158.11 131.57 158.14 C 130.62 158.16 129.86 158.95 129.88 159.91 Z M 129.90 160.91 L 129.92 161.93 C 129.94 162.88 130.73 163.64 131.69 163.63 C 132.65 163.61 133.41 162.81 133.39 161.86 L 133.37 160.84 C 133.35 159.88 132.56 159.12 131.60 159.14 C 130.64 159.16 129.88 159.95 129.90 160.91 Z M 129.92 161.92 L 129.94 162.95 C 129.96 163.91 130.75 164.67 131.71 164.65 C 132.67 164.63 133.43 163.84 133.41 162.88 L 133.39 161.86 C 133.37 160.90 132.58 160.14 131.62 160.16 C 130.66 160.17 129.90 160.97 129.92 161.92 Z M 129.94 162.95 L 129.96 163.96 C 129.97 164.92 130.77 165.69 131.73 165.67 C 132.69 165.65 133.45 164.86 133.43 163.90 L 133.41 162.88 C 133.39 161.92 132.60 161.16 131.64 161.18 C 130.68 161.20 129.92 161.99 129.94 162.95 Z M 129.95 163.96 L 129.97 164.98 C 129.99 165.94 130.78 166.71 131.74 166.69 C 132.70 166.67 133.47 165.88 133.45 164.92 L 133.43 163.90 C 133.41 162.94 132.62 162.17 131.66 162.19 C 130.70 162.21 129.94 163.00 129.95 163.96 Z M 129.97 164.98 L 129.99 166.00 C 130.01 166.96 130.80 167.73 131.76 167.71 C 132.72 167.69 133.49 166.90 133.47 165.94 L 133.45 164.92 C 133.43 163.96 132.64 163.19 131.68 163.21 C 130.72 163.23 129.95 164.02 129.97 164.98 Z M 129.99 166.00 L 130.01 167.01 C 130.03 167.97 130.82 168.74 131.78 168.72 C 132.74 168.70 133.51 167.91 133.49 166.95 L 133.47 165.94 C 133.45 164.97 132.66 164.21 131.70 164.23 C 130.74 164.24 129.97 165.04 129.99 166.00 Z M 130.01 167.01 L 130.03 168.01 C 130.04 168.97 130.84 169.74 131.80 169.72 C 132.77 169.70 133.53 168.90 133.51 167.94 L 133.49 166.95 C 133.48 165.98 132.68 165.22 131.72 165.24 C 130.75 165.25 129.99 166.05 130.01 167.01 Z M 130.02 168.01 L 130.04 168.99 C 130.06 169.95 130.86 170.72 131.82 170.70 C 132.79 170.68 133.55 169.88 133.53 168.92 L 133.51 167.94 C 133.50 166.98 132.70 166.21 131.74 166.23 C 130.77 166.25 130.01 167.05 130.02 168.01 Z M 130.04 168.99 L 130.06 169.97 C 130.08 170.93 130.88 171.70 131.84 171.68 C 132.81 171.66 133.57 170.86 133.55 169.90 L 133.53 168.92 C 133.52 167.95 132.72 167.19 131.75 167.21 C 130.79 167.23 130.02 168.02 130.04 168.99 Z M 130.06 169.97 L 130.08 171.04 C 130.10 172.01 130.90 172.77 131.87 172.75 C 132.83 172.73 133.60 171.93 133.58 170.97 L 133.56 169.89 C 133.54 168.93 132.74 168.16 131.77 168.18 C 130.81 168.20 130.04 169.00 130.06 169.97 Z M 130.08 171.04 L 130.10 172.08 C 130.12 173.04 130.92 173.81 131.89 173.79 C 132.85 173.77 133.62 172.97 133.60 172.00 L 133.58 170.97 C 133.56 170.00 132.76 169.24 131.79 169.26 C 130.83 169.28 130.06 170.07 130.08 171.04 Z M 130.10 172.08 L 130.12 173.08 C 130.14 174.05 130.94 174.81 131.91 174.79 C 132.87 174.78 133.64 173.98 133.62 173.01 L 133.60 172.01 C 133.58 171.04 132.78 170.27 131.82 170.29 C 130.85 170.31 130.08 171.11 130.10 172.08 Z M 130.12 173.08 L 130.14 174.05 C 130.16 175.02 130.95 175.79 131.92 175.77 C 132.89 175.75 133.66 174.95 133.64 173.99 L 133.62 173.01 C 133.61 172.04 132.81 171.28 131.84 171.29 C 130.87 171.31 130.10 172.11 130.12 173.08 Z M 130.14 174.05 L 130.15 175.00 C 130.17 175.97 130.96 176.74 131.93 176.72 C 132.90 176.71 133.67 175.91 133.66 174.94 L 133.64 173.99 C 133.63 173.02 132.83 172.25 131.86 172.27 C 130.89 172.28 130.12 173.08 130.14 174.05 Z M 130.15 174.99 L 130.16 175.95 C 130.17 176.92 130.97 177.69 131.94 177.68 C 132.91 177.67 133.68 176.87 133.67 175.90 L 133.66 174.95 C 133.65 173.98 132.85 173.20 131.88 173.21 C 130.91 173.23 130.14 174.02 130.15 174.99 Z M 130.16 175.94 L 130.17 176.99 C 130.18 177.96 130.97 178.74 131.94 178.73 C 132.91 178.72 133.69 177.93 133.68 176.96 L 133.67 175.91 C 133.66 174.94 132.87 174.16 131.90 174.17 C 130.93 174.18 130.15 174.97 130.16 175.94 Z M 130.17 176.98 L 130.18 178.00 C 130.18 178.97 130.97 179.76 131.94 179.75 C 132.91 179.75 133.69 178.96 133.69 177.98 L 133.68 176.96 C 133.68 175.99 132.89 175.21 131.92 175.22 C 130.95 175.22 130.16 176.01 130.17 176.98 Z M 130.17 178.00 L 130.18 179.00 C 130.18 179.97 130.97 180.75 131.94 180.75 C 132.91 180.75 133.70 179.96 133.69 178.99 L 133.69 177.99 C 133.69 177.02 132.90 176.23 131.93 176.24 C 130.96 176.24 130.17 177.03 130.17 178.00 Z M 130.18 178.99 L 130.18 179.96 C 130.18 180.94 130.97 181.72 131.94 181.72 C 132.91 181.72 133.70 180.93 133.70 179.96 L 133.69 178.99 C 133.69 178.02 132.91 177.23 131.93 177.23 C 130.96 177.23 130.17 178.02 130.18 178.99 Z M 130.18 179.96 L 130.18 180.92 C 130.18 181.89 130.96 182.68 131.94 182.68 C 132.91 182.68 133.70 181.89 133.70 180.92 L 133.70 179.96 C 133.70 178.99 132.91 178.20 131.94 178.20 C 130.96 178.20 130.18 178.99 130.18 179.96 Z M 130.17 180.92 L 130.17 181.98 C 130.17 182.96 130.96 183.74 131.94 183.74 C 132.91 183.74 133.70 182.96 133.70 181.98 L 133.70 180.92 C 133.70 179.95 132.91 179.16 131.94 179.16 C 130.96 179.16 130.17 179.95 130.17 180.92 Z M 130.17 181.98 L 130.17 183.01 C 130.17 183.98 130.96 184.77 131.94 184.77 C 132.91 184.77 133.70 183.98 133.70 183.01 L 133.70 181.98 C 133.70 181.01 132.91 180.22 131.94 180.22 C 130.96 180.22 130.17 181.01 130.17 181.98 Z M 130.17 183.01 L 130.17 184.00 C 130.17 184.97 130.96 185.76 131.94 185.76 C 132.91 185.76 133.70 184.97 133.70 184.00 L 133.70 183.01 C 133.70 182.04 132.91 181.25 131.94 181.25 C 130.96 181.25 130.17 182.04 130.17 183.01 Z M 130.17 184.00 L 130.17 184.95 C 130.17 185.92 130.96 186.71 131.94 186.71 C 132.91 186.71 133.70 185.92 133.70 184.95 L 133.70 184.00 C 133.70 183.03 132.91 182.24 131.94 182.24 C 130.96 182.24 130.17 183.03 130.17 184.00 Z M 130.17 184.95 L 130.17 185.90 C 130.17 186.88 130.96 187.67 131.94 187.67 C 132.91 187.67 133.70 186.88 133.70 185.90 L 133.70 184.95 C 133.70 183.97 132.91 183.18 131.94 183.18 C 130.96 183.18 130.17 183.97 130.17 184.95 Z M 130.17 185.90 L 130.17 186.87 C 130.17 187.84 130.96 188.63 131.94 188.63 C 132.91 188.63 133.70 187.84 133.70 186.87 L 133.70 185.90 C 133.70 184.93 132.91 184.14 131.94 184.14 C 130.96 184.14 130.17 184.93 130.17 185.90 Z M 130.17 186.87 L 130.17 187.85 C 130.17 188.82 130.96 189.61 131.94 189.61 C 132.91 189.61 133.70 188.82 133.70 187.85 L 133.70 186.87 C 133.70 185.89 132.91 185.10 131.94 185.10 C 130.96 185.10 130.17 185.89 130.17 186.87 Z M 130.17 187.85 L 130.17 188.87 C 130.17 189.85 130.96 190.64 131.94 190.64 C 132.91 190.64 133.70 189.85 133.70 188.87 L 133.70 187.85 C 133.70 186.87 132.91 186.08 131.94 186.08 C 130.96 186.08 130.17 186.87 130.17 187.85 Z M 130.17 188.87 L 130.17 190.07 C 130.17 191.04 130.96 191.83 131.94 191.83 C 132.91 191.83 133.70 191.04 133.70 190.06 L 133.70 188.87 C 133.70 187.90 132.91 187.11 131.94 187.11 C 130.96 187.11 130.17 187.90 130.17 188.87 Z M 130.17 190.09 L 130.19 191.34 C 130.20 192.31 131.00 193.09 131.97 193.08 C 132.95 193.07 133.73 192.27 133.72 191.29 L 133.70 190.04 C 133.69 189.07 132.89 188.29 131.92 188.30 C 130.94 188.31 130.16 189.11 130.17 190.09 Z M 130.19 191.41 L 130.24 192.44 C 130.29 193.41 131.13 194.16 132.10 194.11 C 133.07 194.06 133.82 193.23 133.77 192.25 L 133.72 191.22 C 133.66 190.25 132.83 189.50 131.86 189.55 C 130.89 189.60 130.14 190.43 130.19 191.41 Z M 130.28 192.70 L 130.39 193.28 C 130.59 194.23 131.52 194.85 132.48 194.66 C 133.43 194.46 134.05 193.53 133.86 192.57 L 133.74 191.99 C 133.54 191.04 132.61 190.42 131.65 190.61 C 130.70 190.81 130.08 191.74 130.28 192.70 Z M 132.60 194.62 L 132.83 194.56 C 133.76 194.30 134.31 193.32 134.05 192.39 C 133.79 191.45 132.81 190.90 131.87 191.16 L 131.65 191.23 C 130.71 191.49 130.16 192.46 130.43 193.40 C 130.69 194.34 131.66 194.89 132.60 194.62 Z M 133.86 193.77 L 134.26 193.09 C 134.76 192.26 134.49 191.18 133.66 190.68 C 132.83 190.18 131.75 190.45 131.25 191.28 L 130.84 191.96 C 130.34 192.79 130.61 193.87 131.44 194.37 C 132.28 194.87 133.36 194.60 133.86 193.77 Z M 134.27 193.08 L 134.94 191.93 C 135.43 191.10 135.15 190.02 134.32 189.53 C 133.49 189.04 132.41 189.32 131.92 190.15 L 131.25 191.30 C 130.75 192.13 131.03 193.21 131.87 193.70 C 132.70 194.19 133.78 193.91 134.27 193.08 Z M 134.87 192.03 L 135.63 190.93 C 136.17 190.13 135.97 189.04 135.17 188.50 C 134.37 187.95 133.29 188.16 132.74 188.95 L 131.99 190.06 C 131.44 190.86 131.65 191.94 132.44 192.49 C 133.24 193.03 134.33 192.83 134.87 192.03 Z M 135.57 191.00 L 136.16 190.23 C 136.74 189.47 136.60 188.37 135.84 187.79 C 135.07 187.20 133.98 187.35 133.39 188.11 L 132.80 188.88 C 132.22 189.64 132.36 190.73 133.12 191.32 C 133.89 191.91 134.98 191.76 135.57 191.00 Z M 136.12 190.27 L 136.77 189.47 C 137.38 188.73 137.27 187.63 136.53 187.03 C 135.78 186.42 134.69 186.53 134.09 187.27 L 133.43 188.07 C 132.83 188.81 132.94 189.91 133.68 190.51 C 134.42 191.12 135.51 191.01 136.12 190.27 Z M 136.74 189.49 L 137.43 188.68 C 138.05 187.96 137.97 186.87 137.24 186.25 C 136.51 185.63 135.42 185.72 134.81 186.44 L 134.12 187.25 C 133.50 187.97 133.58 189.06 134.31 189.68 C 135.03 190.30 136.12 190.22 136.74 189.49 Z M 137.41 188.70 L 138.11 187.91 C 138.74 187.19 138.67 186.11 137.96 185.48 C 137.24 184.85 136.16 184.92 135.53 185.63 L 134.83 186.42 C 134.20 187.14 134.27 188.22 134.98 188.85 C 135.69 189.48 136.78 189.41 137.41 188.70 Z M 138.09 187.92 L 138.78 187.15 C 139.41 186.45 139.36 185.37 138.66 184.73 C 137.95 184.10 136.87 184.16 136.24 184.86 L 135.55 185.62 C 134.91 186.32 134.97 187.41 135.67 188.04 C 136.37 188.67 137.46 188.62 138.09 187.92 Z M 138.76 187.16 L 139.41 186.45 C 140.05 185.76 140.00 184.68 139.31 184.04 C 138.62 183.40 137.54 183.45 136.90 184.14 L 136.25 184.85 C 135.61 185.55 135.66 186.63 136.35 187.26 C 137.05 187.90 138.13 187.85 138.76 187.16 Z M 139.40 186.45 L 140.13 185.66 C 140.76 184.97 140.72 183.90 140.04 183.27 C 139.35 182.63 138.28 182.67 137.64 183.36 L 136.91 184.15 C 136.28 184.83 136.32 185.91 137.01 186.54 C 137.69 187.18 138.77 187.14 139.40 186.45 Z M 140.11 185.65 L 140.94 184.76 C 141.57 184.08 141.53 183.02 140.85 182.39 C 140.18 181.76 139.12 181.80 138.49 182.48 L 137.66 183.37 C 137.03 184.05 137.07 185.11 137.75 185.74 C 138.42 186.37 139.48 186.33 140.11 185.65 Z M 140.92 184.74 L 141.58 184.03 C 142.20 183.36 142.17 182.32 141.50 181.70 C 140.84 181.08 139.80 181.12 139.18 181.78 L 138.51 182.50 C 137.89 183.16 137.93 184.20 138.59 184.82 C 139.25 185.44 140.30 185.41 140.92 184.74 Z M 141.56 184.01 L 142.13 183.41 C 142.74 182.76 142.70 181.73 142.05 181.12 C 141.40 180.51 140.38 180.54 139.77 181.19 L 139.20 181.80 C 138.59 182.45 138.62 183.47 139.28 184.08 C 139.93 184.69 140.95 184.66 141.56 184.01 Z M 142.11 183.39 L 142.67 182.78 C 143.28 182.15 143.25 181.14 142.61 180.54 C 141.97 179.94 140.96 179.97 140.36 180.61 L 139.79 181.21 C 139.19 181.85 139.22 182.86 139.86 183.46 C 140.50 184.06 141.50 184.03 142.11 183.39 Z M 142.66 182.77 L 143.35 182.04 C 143.94 181.41 143.91 180.41 143.27 179.82 C 142.64 179.23 141.65 179.26 141.05 179.89 L 140.37 180.62 C 139.78 181.25 139.81 182.25 140.44 182.84 C 141.08 183.44 142.07 183.40 142.66 182.77 Z M 143.35 182.02 L 144.02 181.29 C 144.61 180.65 144.57 179.67 143.93 179.08 C 143.30 178.50 142.32 178.54 141.73 179.17 L 141.05 179.91 C 140.47 180.54 140.51 181.53 141.14 182.11 C 141.78 182.70 142.76 182.66 143.35 182.02 Z M 144.03 181.26 L 144.70 180.52 C 145.27 179.88 145.21 178.90 144.58 178.33 C 143.94 177.76 142.96 177.82 142.39 178.45 L 141.73 179.20 C 141.16 179.84 141.21 180.81 141.85 181.38 C 142.48 181.95 143.46 181.90 144.03 181.26 Z M 144.70 180.49 L 145.36 179.74 C 145.91 179.10 145.84 178.13 145.20 177.58 C 144.56 177.02 143.59 177.09 143.04 177.73 L 142.39 178.48 C 141.83 179.12 141.90 180.09 142.54 180.65 C 143.18 181.20 144.15 181.13 144.70 180.49 Z M 145.36 179.72 L 146.00 178.96 C 146.55 178.32 146.47 177.36 145.83 176.82 C 145.19 176.27 144.23 176.35 143.69 176.99 L 143.04 177.75 C 142.49 178.39 142.57 179.35 143.21 179.89 C 143.85 180.44 144.81 180.36 145.36 179.72 Z M 145.99 178.96 L 146.65 178.19 C 147.19 177.56 147.11 176.61 146.48 176.06 C 145.85 175.52 144.89 175.59 144.35 176.23 L 143.70 176.99 C 143.16 177.63 143.23 178.58 143.86 179.12 C 144.50 179.66 145.45 179.59 145.99 178.96 Z M 146.63 178.19 L 147.28 177.45 C 147.82 176.82 147.75 175.88 147.13 175.33 C 146.50 174.79 145.56 174.86 145.01 175.48 L 144.37 176.23 C 143.82 176.85 143.89 177.80 144.52 178.34 C 145.14 178.89 146.09 178.82 146.63 178.19 Z M 147.27 177.44 L 147.92 176.69 C 148.46 176.07 148.40 175.13 147.78 174.59 C 147.16 174.05 146.22 174.12 145.68 174.74 L 145.02 175.49 C 144.48 176.11 144.55 177.05 145.17 177.59 C 145.79 178.13 146.73 178.06 147.27 177.44 Z M 147.92 176.67 L 148.58 175.90 C 149.11 175.28 149.04 174.35 148.42 173.82 C 147.80 173.29 146.87 173.36 146.34 173.98 L 145.68 174.75 C 145.15 175.37 145.22 176.30 145.84 176.84 C 146.46 177.37 147.39 177.29 147.92 176.67 Z M 148.59 175.88 L 149.17 175.18 C 149.69 174.56 149.61 173.63 148.98 173.11 C 148.36 172.59 147.43 172.68 146.91 173.30 L 146.33 174.00 C 145.81 174.63 145.90 175.55 146.52 176.07 C 147.14 176.59 148.07 176.51 148.59 175.88 Z M 149.18 175.16 L 149.77 174.43 C 150.28 173.80 150.18 172.88 149.55 172.37 C 148.93 171.87 148.01 171.96 147.50 172.59 L 146.91 173.32 C 146.40 173.95 146.50 174.87 147.12 175.38 C 147.75 175.89 148.67 175.79 149.18 175.16 Z M 149.78 174.41 L 150.41 173.60 C 150.91 172.97 150.80 172.05 150.17 171.56 C 149.54 171.06 148.62 171.17 148.13 171.80 L 147.49 172.61 C 147.00 173.24 147.11 174.16 147.74 174.65 C 148.37 175.15 149.28 175.04 149.78 174.41 Z M 150.42 173.58 L 151.09 172.71 C 151.57 172.07 151.45 171.16 150.82 170.68 C 150.18 170.19 149.28 170.31 148.79 170.95 L 148.12 171.82 C 147.64 172.46 147.76 173.36 148.39 173.85 C 149.03 174.34 149.93 174.21 150.42 173.58 Z M 151.09 172.69 L 151.64 171.97 C 152.12 171.33 151.99 170.43 151.35 169.95 C 150.72 169.47 149.81 169.60 149.33 170.23 L 148.79 170.96 C 148.31 171.60 148.44 172.50 149.07 172.98 C 149.71 173.46 150.61 173.33 151.09 172.69 Z M 151.64 171.96 L 152.22 171.18 C 152.69 170.54 152.56 169.64 151.93 169.17 C 151.29 168.69 150.39 168.83 149.91 169.46 L 149.33 170.24 C 148.86 170.88 148.99 171.78 149.63 172.25 C 150.26 172.73 151.16 172.60 151.64 171.96 Z M 152.22 171.18 L 152.83 170.36 C 153.30 169.72 153.16 168.82 152.53 168.35 C 151.89 167.88 150.99 168.01 150.52 168.65 L 149.91 169.47 C 149.44 170.11 149.58 171.00 150.21 171.48 C 150.85 171.95 151.75 171.81 152.22 171.18 Z M 152.82 170.35 L 153.45 169.51 C 153.92 168.87 153.78 167.97 153.14 167.51 C 152.51 167.04 151.61 167.17 151.14 167.81 L 150.52 168.65 C 150.05 169.29 150.19 170.19 150.82 170.66 C 151.46 171.13 152.36 170.99 152.82 170.35 Z M 153.45 169.50 L 154.08 168.64 C 154.55 168.01 154.41 167.11 153.77 166.65 C 153.14 166.18 152.24 166.32 151.78 166.95 L 151.14 167.81 C 150.68 168.45 150.81 169.34 151.45 169.81 C 152.08 170.28 152.98 170.14 153.45 169.50 Z M 154.08 168.64 L 154.12 168.58 C 154.59 167.95 154.45 167.06 153.82 166.59 C 153.18 166.12 152.29 166.26 151.82 166.89 L 151.78 166.95 C 151.31 167.59 151.45 168.48 152.08 168.95 C 152.72 169.42 153.61 169.28 154.08 168.64 Z"
      fill="black"
      fill-rule="nonzero" /><path d="M 155.53 131.97 L 154.82 131.08 C 154.28 130.40 153.29 130.29 152.61 130.83 C 151.93 131.37 151.82 132.36 152.36 133.04 L 153.06 133.93 C 153.60 134.61 154.59 134.72 155.27 134.18 C 155.95 133.64 156.07 132.65 155.53 131.97 Z M 154.98 131.31 L 154.52 130.46 C 154.11 129.69 153.15 129.41 152.38 129.82 C 151.62 130.23 151.33 131.19 151.74 131.96 L 152.20 132.81 C 152.62 133.57 153.57 133.86 154.34 133.45 C 155.11 133.03 155.39 132.08 154.98 131.31 Z M 154.71 131.24 L 154.73 130.48 C 154.74 129.61 154.05 128.89 153.18 128.87 C 152.31 128.85 151.58 129.55 151.57 130.42 L 151.55 131.18 C 151.53 132.05 152.23 132.77 153.10 132.79 C 153.97 132.80 154.69 132.11 154.71 131.24 Z M 154.39 131.43 L 154.89 130.80 C 155.43 130.11 155.32 129.12 154.63 128.58 C 153.95 128.03 152.95 128.15 152.41 128.83 L 151.91 129.47 C 151.36 130.15 151.48 131.15 152.16 131.69 C 152.85 132.23 153.84 132.12 154.39 131.43 Z M 154.54 131.13 L 155.43 130.53 C 156.15 130.04 156.34 129.05 155.85 128.33 C 155.36 127.60 154.38 127.41 153.66 127.90 L 152.76 128.50 C 152.04 128.99 151.85 129.98 152.34 130.70 C 152.83 131.43 153.81 131.62 154.54 131.13 Z M 155.26 130.62 L 156.30 130.09 C 157.08 129.69 157.39 128.74 156.99 127.96 C 156.59 127.18 155.64 126.87 154.86 127.27 L 153.82 127.80 C 153.04 128.20 152.73 129.16 153.13 129.93 C 153.53 130.71 154.48 131.02 155.26 130.62 Z M 156.24 130.12 L 157.14 129.71 C 157.94 129.35 158.29 128.41 157.93 127.62 C 157.57 126.82 156.63 126.47 155.83 126.83 L 154.93 127.24 C 154.13 127.60 153.78 128.54 154.14 129.34 C 154.50 130.13 155.44 130.49 156.24 130.12 Z M 157.10 129.73 L 158.05 129.33 C 158.86 128.98 159.23 128.05 158.89 127.25 C 158.55 126.44 157.62 126.07 156.82 126.41 L 155.87 126.81 C 155.06 127.15 154.69 128.08 155.03 128.89 C 155.37 129.69 156.30 130.07 157.10 129.73 Z M 158.03 129.33 L 158.98 128.95 C 159.79 128.62 160.18 127.70 159.85 126.89 C 159.52 126.08 158.60 125.69 157.79 126.02 L 156.84 126.40 C 156.03 126.73 155.64 127.65 155.97 128.46 C 156.30 129.27 157.22 129.66 158.03 129.33 Z M 158.96 128.96 L 159.86 128.60 C 160.68 128.29 161.08 127.37 160.76 126.55 C 160.44 125.74 159.53 125.34 158.71 125.66 L 157.81 126.01 C 156.99 126.33 156.59 127.25 156.91 128.06 C 157.23 128.87 158.15 129.28 158.96 128.96 Z M 159.85 128.61 L 160.87 128.22 C 161.69 127.91 162.10 126.99 161.79 126.18 C 161.47 125.36 160.56 124.95 159.75 125.27 L 158.73 125.65 C 157.91 125.96 157.50 126.88 157.81 127.69 C 158.12 128.51 159.03 128.92 159.85 128.61 Z M 160.85 128.22 L 161.78 127.88 C 162.60 127.58 163.02 126.67 162.72 125.85 C 162.42 125.04 161.51 124.62 160.70 124.92 L 159.76 125.26 C 158.95 125.56 158.53 126.47 158.83 127.29 C 159.13 128.10 160.04 128.52 160.85 128.22 Z M 161.76 127.88 L 162.65 127.57 C 163.47 127.28 163.90 126.38 163.61 125.56 C 163.32 124.74 162.42 124.31 161.61 124.60 L 160.72 124.92 C 159.90 125.21 159.47 126.10 159.76 126.92 C 160.05 127.74 160.95 128.17 161.76 127.88 Z M 162.63 127.57 L 163.53 127.26 C 164.35 126.98 164.79 126.09 164.51 125.27 C 164.23 124.45 163.34 124.02 162.52 124.30 L 161.62 124.60 C 160.80 124.88 160.37 125.77 160.65 126.59 C 160.92 127.41 161.82 127.85 162.63 127.57 Z M 163.52 127.26 L 164.44 126.96 C 165.26 126.69 165.71 125.80 165.43 124.98 C 165.16 124.16 164.28 123.72 163.46 123.99 L 162.53 124.29 C 161.71 124.57 161.27 125.45 161.54 126.27 C 161.81 127.09 162.70 127.54 163.52 127.26 Z M 164.44 126.95 L 165.40 126.64 C 166.22 126.37 166.66 125.48 166.39 124.67 C 166.12 123.85 165.24 123.40 164.42 123.67 L 163.46 123.99 C 162.64 124.26 162.20 125.14 162.47 125.96 C 162.74 126.78 163.62 127.23 164.44 126.95 Z M 165.40 126.63 L 166.39 126.30 C 167.20 126.03 167.64 125.14 167.37 124.33 C 167.10 123.51 166.21 123.07 165.40 123.35 L 164.41 123.68 C 163.60 123.95 163.16 124.84 163.43 125.65 C 163.70 126.47 164.59 126.91 165.40 126.63 Z M 166.40 126.29 L 167.31 125.98 C 168.13 125.70 168.56 124.82 168.28 124.01 C 168.00 123.19 167.12 122.76 166.30 123.04 L 165.39 123.35 C 164.58 123.63 164.14 124.52 164.42 125.33 C 164.70 126.14 165.59 126.57 166.40 126.29 Z M 167.32 125.98 L 168.25 125.65 C 169.06 125.37 169.49 124.49 169.21 123.68 C 168.93 122.87 168.05 122.44 167.24 122.72 L 166.30 123.04 C 165.49 123.32 165.06 124.21 165.34 125.02 C 165.62 125.83 166.51 126.26 167.32 125.98 Z M 168.25 125.65 L 169.21 125.32 C 170.02 125.05 170.45 124.17 170.17 123.36 C 169.89 122.55 169.01 122.12 168.21 122.39 L 167.25 122.72 C 166.44 123.00 166.01 123.88 166.28 124.69 C 166.56 125.50 167.44 125.93 168.25 125.65 Z M 169.19 125.32 L 170.17 125.00 C 170.97 124.73 171.41 123.86 171.14 123.05 C 170.87 122.24 170.00 121.80 169.19 122.07 L 168.22 122.39 C 167.41 122.66 166.97 123.54 167.24 124.34 C 167.51 125.15 168.38 125.59 169.19 125.32 Z M 170.15 125.00 L 171.08 124.70 C 171.90 124.44 172.34 123.58 172.08 122.77 C 171.82 121.95 170.96 121.51 170.15 121.77 L 169.21 122.07 C 168.40 122.33 167.95 123.19 168.21 124.00 C 168.47 124.82 169.34 125.26 170.15 125.00 Z M 171.07 124.70 L 172.02 124.41 C 172.83 124.15 173.29 123.29 173.03 122.48 C 172.78 121.67 171.92 121.22 171.11 121.47 L 170.16 121.77 C 169.35 122.02 168.89 122.88 169.15 123.69 C 169.40 124.50 170.26 124.96 171.07 124.70 Z M 172.02 124.41 L 172.98 124.11 C 173.79 123.86 174.24 123.00 173.99 122.19 C 173.74 121.38 172.89 120.93 172.08 121.17 L 171.11 121.47 C 170.30 121.72 169.85 122.58 170.10 123.39 C 170.35 124.20 171.21 124.66 172.02 124.41 Z M 172.98 124.11 L 173.95 123.80 C 174.76 123.55 175.21 122.70 174.96 121.89 C 174.71 121.08 173.85 120.63 173.05 120.88 L 172.07 121.18 C 171.27 121.43 170.81 122.29 171.06 123.09 C 171.31 123.90 172.17 124.36 172.98 124.11 Z M 173.96 123.80 L 174.89 123.51 C 175.70 123.25 176.15 122.40 175.89 121.59 C 175.64 120.78 174.78 120.34 173.98 120.59 L 173.04 120.88 C 172.24 121.14 171.79 121.99 172.04 122.80 C 172.29 123.60 173.15 124.05 173.96 123.80 Z M 174.90 123.50 L 175.84 123.20 C 176.65 122.95 177.09 122.09 176.84 121.29 C 176.58 120.48 175.72 120.04 174.92 120.29 L 173.98 120.59 C 173.17 120.85 172.73 121.70 172.98 122.51 C 173.24 123.31 174.09 123.76 174.90 123.50 Z M 175.84 123.20 L 176.80 122.90 C 177.60 122.64 178.04 121.79 177.79 120.98 C 177.54 120.18 176.68 119.74 175.88 119.99 L 174.92 120.30 C 174.12 120.55 173.68 121.41 173.93 122.21 C 174.18 123.01 175.04 123.45 175.84 123.20 Z M 176.80 122.89 L 177.76 122.59 C 178.56 122.34 179.01 121.48 178.76 120.68 C 178.50 119.88 177.65 119.44 176.85 119.69 L 175.88 120.00 C 175.08 120.25 174.64 121.10 174.89 121.90 C 175.14 122.70 175.99 123.15 176.80 122.89 Z M 177.76 122.59 L 178.73 122.29 C 179.53 122.04 179.97 121.19 179.72 120.39 C 179.48 119.59 178.62 119.14 177.82 119.39 L 176.85 119.69 C 176.05 119.94 175.61 120.79 175.86 121.59 C 176.11 122.39 176.96 122.84 177.76 122.59 Z M 178.72 122.28 L 179.69 121.99 C 180.49 121.74 180.94 120.90 180.70 120.10 C 180.45 119.30 179.60 118.85 178.80 119.09 L 177.83 119.39 C 177.03 119.63 176.58 120.48 176.83 121.28 C 177.07 122.08 177.92 122.53 178.72 122.28 Z M 179.68 121.99 L 180.65 121.70 C 181.45 121.46 181.90 120.62 181.66 119.82 C 181.42 119.02 180.58 118.56 179.78 118.80 L 178.81 119.09 C 178.01 119.33 177.56 120.17 177.80 120.97 C 178.04 121.77 178.88 122.23 179.68 121.99 Z M 180.64 121.70 L 181.59 121.42 C 182.39 121.19 182.85 120.35 182.61 119.55 C 182.38 118.75 181.54 118.29 180.74 118.52 L 179.79 118.80 C 178.99 119.03 178.53 119.87 178.77 120.67 C 179.00 121.47 179.84 121.93 180.64 121.70 Z M 181.57 121.42 L 182.53 121.15 C 183.33 120.93 183.80 120.10 183.57 119.30 C 183.35 118.50 182.52 118.03 181.72 118.25 L 180.76 118.52 C 179.96 118.75 179.49 119.58 179.72 120.38 C 179.94 121.18 180.77 121.65 181.57 121.42 Z M 182.51 121.15 L 183.52 120.88 C 184.32 120.67 184.79 119.84 184.58 119.04 C 184.36 118.24 183.54 117.77 182.74 117.98 L 181.73 118.25 C 180.93 118.47 180.46 119.29 180.67 120.09 C 180.89 120.89 181.71 121.37 182.51 121.15 Z M 183.50 120.88 L 184.47 120.63 C 185.27 120.42 185.75 119.60 185.54 118.80 C 185.33 118.00 184.52 117.52 183.72 117.73 L 182.75 117.98 C 181.95 118.19 181.47 119.01 181.68 119.81 C 181.89 120.61 182.70 121.09 183.50 120.88 Z M 184.47 120.63 L 185.41 120.38 C 186.21 120.18 186.69 119.36 186.48 118.57 C 186.27 117.77 185.46 117.29 184.66 117.49 L 183.72 117.73 C 182.92 117.94 182.44 118.75 182.65 119.55 C 182.85 120.35 183.67 120.83 184.47 120.63 Z M 185.41 120.38 L 186.32 120.14 C 187.12 119.94 187.60 119.12 187.39 118.33 C 187.18 117.53 186.37 117.05 185.58 117.26 L 184.66 117.50 C 183.87 117.70 183.39 118.52 183.59 119.31 C 183.80 120.11 184.61 120.59 185.41 120.38 Z M 186.33 120.14 L 187.23 119.90 C 188.03 119.69 188.50 118.88 188.29 118.09 C 188.08 117.29 187.27 116.82 186.48 117.03 L 185.57 117.27 C 184.78 117.47 184.31 118.29 184.51 119.08 C 184.72 119.87 185.53 120.34 186.33 120.14 Z M 187.23 119.89 L 188.17 119.65 C 188.96 119.44 189.43 118.63 189.23 117.84 C 189.02 117.05 188.21 116.58 187.42 116.79 L 186.48 117.03 C 185.69 117.24 185.22 118.05 185.43 118.84 C 185.63 119.63 186.44 120.10 187.23 119.89 Z M 188.17 119.64 L 189.18 119.38 C 189.97 119.18 190.44 118.37 190.23 117.59 C 190.03 116.80 189.23 116.33 188.44 116.53 L 187.43 116.79 C 186.64 117.00 186.17 117.80 186.37 118.59 C 186.58 119.37 187.38 119.85 188.17 119.64 Z M 189.17 119.38 L 190.17 119.12 C 190.95 118.92 191.43 118.12 191.23 117.34 C 191.03 116.55 190.23 116.08 189.45 116.28 L 188.45 116.53 C 187.66 116.73 187.19 117.53 187.39 118.32 C 187.59 119.10 188.38 119.58 189.17 119.38 Z M 190.16 119.12 L 191.09 118.89 C 191.87 118.70 192.35 117.90 192.15 117.12 C 191.96 116.33 191.16 115.85 190.38 116.05 L 189.45 116.28 C 188.67 116.48 188.19 117.27 188.39 118.05 C 188.58 118.84 189.38 119.32 190.16 119.12 Z M 191.08 118.89 L 192.05 118.65 C 192.84 118.46 193.32 117.67 193.13 116.89 C 192.94 116.10 192.15 115.62 191.36 115.81 L 190.39 116.05 C 189.60 116.24 189.12 117.03 189.31 117.82 C 189.51 118.60 190.30 119.08 191.08 118.89 Z M 192.04 118.65 L 193.05 118.41 C 193.83 118.23 194.31 117.44 194.13 116.66 C 193.94 115.87 193.15 115.39 192.37 115.58 L 191.37 115.82 C 190.59 116.00 190.10 116.79 190.29 117.57 C 190.48 118.35 191.26 118.84 192.04 118.65 Z M 193.04 118.41 L 194.05 118.18 C 194.83 118.00 195.31 117.22 195.13 116.43 C 194.95 115.65 194.17 115.17 193.39 115.35 L 192.38 115.58 C 191.60 115.76 191.11 116.54 191.29 117.32 C 191.47 118.10 192.25 118.59 193.04 118.41 Z M 194.03 118.18 L 195.04 117.95 C 195.82 117.78 196.31 117.00 196.14 116.22 C 195.97 115.44 195.19 114.95 194.41 115.12 L 193.40 115.35 C 192.62 115.52 192.13 116.29 192.30 117.08 C 192.48 117.86 193.25 118.35 194.03 118.18 Z M 195.03 117.95 L 196.03 117.74 C 196.81 117.57 197.31 116.80 197.14 116.02 C 196.98 115.24 196.21 114.74 195.43 114.91 L 194.42 115.12 C 193.64 115.29 193.14 116.06 193.31 116.84 C 193.48 117.62 194.25 118.12 195.03 117.95 Z M 196.02 117.74 L 197.00 117.53 C 197.78 117.37 198.29 116.61 198.13 115.83 C 197.97 115.05 197.20 114.55 196.42 114.71 L 195.44 114.91 C 194.66 115.07 194.16 115.83 194.32 116.61 C 194.48 117.39 195.24 117.90 196.02 117.74 Z M 197.00 117.53 L 197.97 117.34 C 198.74 117.18 199.25 116.42 199.09 115.65 C 198.94 114.87 198.18 114.36 197.40 114.52 L 196.43 114.71 C 195.65 114.87 195.15 115.62 195.30 116.40 C 195.46 117.18 196.22 117.69 197.00 117.53 Z M 197.96 117.33 L 198.92 117.15 C 199.70 116.99 200.20 116.24 200.05 115.46 C 199.90 114.69 199.15 114.18 198.37 114.33 L 197.41 114.52 C 196.63 114.67 196.13 115.43 196.28 116.20 C 196.43 116.98 197.18 117.49 197.96 117.33 Z M 198.92 117.14 L 199.55 117.02 C 200.32 116.87 200.83 116.12 200.68 115.34 C 200.53 114.57 199.77 114.06 199.00 114.21 L 198.37 114.34 C 197.60 114.49 197.09 115.24 197.24 116.01 C 197.39 116.79 198.14 117.29 198.92 117.14 Z"
      fill="black"
      fill-rule="nonzero" /><path d="M 175.16 104.15 L 175.27 105.05 C 175.37 105.87 176.12 106.45 176.94 106.36 C 177.76 106.26 178.35 105.51 178.25 104.69 L 178.14 103.80 C 178.04 102.97 177.29 102.39 176.47 102.49 C 175.65 102.59 175.06 103.33 175.16 104.15 Z M 175.24 105.06 L 175.36 106.00 C 175.46 106.84 176.23 107.43 177.07 107.32 C 177.91 107.22 178.50 106.45 178.40 105.62 L 178.28 104.68 C 178.17 103.84 177.41 103.24 176.57 103.35 C 175.73 103.45 175.13 104.22 175.24 105.06 Z M 175.33 106.01 L 175.47 107.04 C 175.58 107.90 176.37 108.50 177.22 108.38 C 178.08 108.27 178.68 107.48 178.56 106.63 L 178.43 105.60 C 178.31 104.74 177.52 104.14 176.67 104.26 C 175.81 104.37 175.21 105.16 175.33 106.01 Z M 175.44 107.06 L 175.60 108.14 C 175.72 109.01 176.53 109.61 177.40 109.49 C 178.27 109.36 178.87 108.56 178.75 107.69 L 178.59 106.61 C 178.47 105.74 177.66 105.14 176.79 105.26 C 175.92 105.39 175.31 106.19 175.44 107.06 Z M 175.58 108.16 L 175.72 109.09 C 175.85 109.97 176.68 110.58 177.55 110.44 C 178.43 110.31 179.04 109.49 178.90 108.61 L 178.76 107.67 C 178.63 106.79 177.81 106.19 176.93 106.32 C 176.05 106.46 175.45 107.28 175.58 108.16 Z M 175.71 109.10 L 175.87 110.09 C 176.00 110.98 176.83 111.58 177.71 111.44 C 178.60 111.31 179.20 110.48 179.07 109.60 L 178.91 108.60 C 178.78 107.72 177.95 107.11 177.07 107.25 C 176.18 107.39 175.58 108.21 175.71 109.10 Z M 175.86 110.09 L 176.01 111.11 C 176.15 112.00 176.98 112.61 177.87 112.48 C 178.76 112.34 179.37 111.50 179.24 110.61 L 179.08 109.59 C 178.94 108.70 178.11 108.09 177.22 108.23 C 176.33 108.37 175.72 109.20 175.86 110.09 Z M 176.00 111.11 L 176.16 112.13 C 176.29 113.03 177.13 113.64 178.03 113.51 C 178.92 113.37 179.54 112.53 179.40 111.64 L 179.25 110.62 C 179.11 109.72 178.27 109.11 177.38 109.24 C 176.48 109.38 175.87 110.22 176.00 111.11 Z M 176.15 112.13 L 176.30 113.13 C 176.43 114.03 177.27 114.66 178.17 114.52 C 179.07 114.39 179.69 113.55 179.56 112.65 L 179.41 111.65 C 179.28 110.74 178.44 110.12 177.54 110.25 C 176.64 110.39 176.01 111.22 176.15 112.13 Z M 176.29 113.12 L 176.43 114.14 C 176.55 115.05 177.39 115.68 178.30 115.55 C 179.20 115.43 179.84 114.59 179.71 113.69 L 179.57 112.66 C 179.44 111.76 178.61 111.12 177.70 111.25 C 176.79 111.38 176.16 112.21 176.29 113.12 Z M 176.42 114.12 L 176.55 115.11 C 176.66 116.02 177.50 116.66 178.41 116.55 C 179.31 116.43 179.96 115.60 179.84 114.69 L 179.72 113.70 C 179.60 112.79 178.77 112.15 177.86 112.27 C 176.95 112.38 176.31 113.21 176.42 114.12 Z M 176.54 115.09 L 176.65 116.06 C 176.76 116.97 177.58 117.63 178.49 117.53 C 179.41 117.42 180.06 116.60 179.96 115.68 L 179.85 114.71 C 179.74 113.80 178.92 113.14 178.01 113.25 C 177.09 113.35 176.44 114.17 176.54 115.09 Z M 176.65 116.04 L 176.74 117.02 C 176.84 117.93 177.65 118.60 178.57 118.51 C 179.48 118.42 180.15 117.60 180.06 116.69 L 179.97 115.71 C 179.87 114.79 179.06 114.12 178.14 114.21 C 177.23 114.30 176.56 115.12 176.65 116.04 Z M 176.74 116.99 L 176.82 117.96 C 176.90 118.88 177.71 119.57 178.63 119.49 C 179.55 119.41 180.23 118.60 180.15 117.68 L 180.07 116.71 C 179.99 115.79 179.18 115.11 178.26 115.19 C 177.34 115.27 176.66 116.07 176.74 116.99 Z M 176.82 117.94 L 176.88 118.89 C 176.95 119.81 177.75 120.50 178.67 120.44 C 179.59 120.37 180.29 119.57 180.22 118.65 L 180.15 117.70 C 180.09 116.78 179.29 116.09 178.37 116.15 C 177.44 116.22 176.75 117.02 176.82 117.94 Z M 176.88 118.87 L 176.94 119.84 C 177.00 120.77 177.79 121.47 178.71 121.41 C 179.64 121.36 180.34 120.56 180.28 119.64 L 180.23 118.67 C 180.17 117.74 179.38 117.04 178.45 117.09 C 177.53 117.15 176.82 117.94 176.88 118.87 Z M 176.94 119.83 L 176.99 120.83 C 177.04 121.76 177.82 122.47 178.75 122.42 C 179.68 122.38 180.39 121.59 180.34 120.66 L 180.29 119.66 C 180.24 118.73 179.45 118.02 178.53 118.07 C 177.60 118.11 176.89 118.90 176.94 119.83 Z M 176.98 120.82 L 177.03 121.86 C 177.07 122.79 177.85 123.50 178.78 123.46 C 179.71 123.42 180.43 122.64 180.39 121.71 L 180.34 120.67 C 180.30 119.75 179.52 119.03 178.59 119.07 C 177.66 119.11 176.94 119.89 176.98 120.82 Z M 177.03 121.85 L 177.07 122.90 C 177.10 123.83 177.88 124.56 178.81 124.52 C 179.74 124.49 180.47 123.71 180.43 122.78 L 180.39 121.72 C 180.36 120.79 179.58 120.07 178.65 120.10 C 177.72 120.14 176.99 120.92 177.03 121.85 Z M 177.06 122.89 L 177.09 123.85 C 177.12 124.78 177.90 125.51 178.83 125.48 C 179.76 125.45 180.49 124.67 180.46 123.74 L 180.43 122.78 C 180.40 121.85 179.62 121.12 178.69 121.15 C 177.76 121.18 177.03 121.96 177.06 122.89 Z M 177.09 123.84 L 177.12 124.81 C 177.15 125.75 177.92 126.48 178.85 126.45 C 179.78 126.43 180.52 125.65 180.49 124.72 L 180.47 123.75 C 180.44 122.81 179.66 122.08 178.73 122.11 C 177.80 122.13 177.07 122.91 177.09 123.84 Z M 177.12 124.81 L 177.14 125.80 C 177.16 126.73 177.94 127.47 178.87 127.45 C 179.80 127.43 180.54 126.65 180.52 125.72 L 180.49 124.73 C 180.47 123.79 179.70 123.06 178.77 123.08 C 177.83 123.10 177.10 123.87 177.12 124.81 Z M 177.14 125.79 L 177.16 126.80 C 177.18 127.74 177.95 128.48 178.88 128.46 C 179.82 128.44 180.56 127.67 180.54 126.74 L 180.52 125.73 C 180.50 124.79 179.73 124.05 178.80 124.07 C 177.86 124.09 177.12 124.86 177.14 125.79 Z M 177.16 126.80 L 177.17 127.83 C 177.19 128.76 177.96 129.51 178.89 129.49 C 179.83 129.48 180.57 128.71 180.56 127.77 L 180.54 126.75 C 180.53 125.81 179.76 125.07 178.82 125.08 C 177.89 125.09 177.14 125.86 177.16 126.80 Z M 177.17 127.82 L 177.18 128.86 C 177.20 129.80 177.96 130.55 178.90 130.53 C 179.83 130.52 180.58 129.76 180.57 128.82 L 180.56 127.78 C 180.55 126.84 179.78 126.10 178.85 126.11 C 177.91 126.12 177.16 126.89 177.17 127.82 Z M 177.18 128.86 L 177.19 129.83 C 177.20 130.76 177.97 131.52 178.90 131.51 C 179.84 131.50 180.59 130.74 180.58 129.80 L 180.57 128.83 C 180.57 127.89 179.80 127.14 178.86 127.15 C 177.93 127.15 177.17 127.92 177.18 128.86 Z M 177.19 129.82 L 177.20 130.81 C 177.20 131.74 177.96 132.50 178.90 132.49 C 179.84 132.49 180.59 131.73 180.59 130.79 L 180.58 129.80 C 180.58 128.87 179.81 128.11 178.88 128.12 C 177.94 128.12 177.18 128.89 177.19 129.82 Z M 177.19 130.80 L 177.20 131.80 C 177.20 132.73 177.96 133.49 178.90 133.49 C 179.84 133.49 180.60 132.73 180.59 131.79 L 180.59 130.79 C 180.59 129.86 179.83 129.10 178.89 129.10 C 177.95 129.10 177.19 129.86 177.19 130.80 Z M 177.19 131.79 L 177.19 132.79 C 177.19 133.73 177.95 134.50 178.89 134.50 C 179.83 134.50 180.59 133.74 180.59 132.80 L 180.59 131.79 C 180.60 130.85 179.83 130.09 178.90 130.09 C 177.96 130.09 177.19 130.85 177.19 131.79 Z M 177.19 132.79 L 177.19 133.80 C 177.18 134.74 177.94 135.51 178.88 135.51 C 179.82 135.51 180.59 134.76 180.59 133.82 L 180.60 132.80 C 180.60 131.86 179.84 131.10 178.90 131.09 C 177.96 131.09 177.19 131.85 177.19 132.79 Z M 177.19 133.80 L 177.18 134.82 C 177.17 135.76 177.93 136.53 178.87 136.53 C 179.81 136.54 180.58 135.78 180.59 134.84 L 180.59 133.82 C 180.60 132.88 179.84 132.11 178.90 132.10 C 177.96 132.10 177.19 132.86 177.19 133.80 Z M 177.18 134.81 L 177.17 135.81 C 177.16 136.75 177.91 137.52 178.86 137.53 C 179.80 137.54 180.57 136.78 180.58 135.84 L 180.59 134.85 C 180.60 133.90 179.84 133.13 178.90 133.12 C 177.96 133.11 177.19 133.87 177.18 134.81 Z M 177.17 135.80 L 177.15 136.77 C 177.14 137.71 177.89 138.49 178.84 138.50 C 179.78 138.51 180.55 137.76 180.57 136.82 L 180.58 135.85 C 180.59 134.91 179.84 134.13 178.90 134.12 C 177.96 134.11 177.18 134.86 177.17 135.80 Z M 177.15 136.76 L 177.13 137.74 C 177.11 138.68 177.86 139.46 178.80 139.48 C 179.74 139.50 180.52 138.75 180.54 137.81 L 180.57 136.83 C 180.59 135.89 179.84 135.11 178.90 135.09 C 177.95 135.07 177.17 135.82 177.15 136.76 Z M 177.13 137.72 L 177.10 138.71 C 177.07 139.65 177.81 140.44 178.75 140.47 C 179.70 140.50 180.48 139.76 180.51 138.82 L 180.54 137.83 C 180.57 136.89 179.83 136.10 178.89 136.07 C 177.95 136.04 177.16 136.78 177.13 137.72 Z M 177.10 138.69 L 177.06 139.69 C 177.02 140.63 177.75 141.43 178.69 141.47 C 179.63 141.51 180.43 140.78 180.47 139.84 L 180.51 138.84 C 180.55 137.90 179.83 137.10 178.88 137.06 C 177.94 137.02 177.14 137.75 177.10 138.69 Z M 177.06 139.66 L 177.00 140.68 C 176.94 141.62 177.66 142.43 178.60 142.48 C 179.54 142.54 180.35 141.82 180.41 140.88 L 180.47 139.87 C 180.52 138.93 179.81 138.12 178.87 138.06 C 177.92 138.00 177.12 138.72 177.06 139.66 Z M 177.00 140.65 L 176.92 141.68 C 176.85 142.62 177.55 143.44 178.49 143.51 C 179.43 143.58 180.25 142.88 180.32 141.94 L 180.40 140.91 C 180.48 139.97 179.77 139.15 178.83 139.08 C 177.89 139.00 177.07 139.71 177.00 140.65 Z M 176.92 141.64 L 176.82 142.66 C 176.73 143.59 177.42 144.43 178.35 144.52 C 179.29 144.61 180.13 143.93 180.22 142.99 L 180.32 141.98 C 180.41 141.04 179.73 140.20 178.79 140.11 C 177.85 140.02 177.01 140.70 176.92 141.64 Z M 176.83 142.62 L 176.71 143.61 C 176.60 144.55 177.27 145.40 178.21 145.51 C 179.14 145.62 179.99 144.95 180.10 144.01 L 180.22 143.02 C 180.33 142.08 179.66 141.24 178.72 141.13 C 177.78 141.02 176.94 141.69 176.83 142.62 Z M 176.71 143.58 L 176.58 144.58 C 176.45 145.51 177.11 146.37 178.04 146.50 C 178.98 146.62 179.84 145.97 179.96 145.04 L 180.10 144.04 C 180.22 143.10 179.57 142.24 178.63 142.12 C 177.70 141.99 176.84 142.65 176.71 143.58 Z M 176.58 144.55 L 176.43 145.55 C 176.29 146.48 176.93 147.35 177.86 147.49 C 178.79 147.64 179.66 146.99 179.81 146.06 L 179.96 145.06 C 180.10 144.13 179.46 143.26 178.53 143.12 C 177.59 142.98 176.72 143.62 176.58 144.55 Z M 176.43 145.52 L 176.27 146.52 C 176.11 147.45 176.74 148.33 177.67 148.49 C 178.60 148.64 179.48 148.02 179.63 147.09 L 179.80 146.09 C 179.96 145.16 179.33 144.28 178.40 144.12 C 177.47 143.97 176.59 144.59 176.43 145.52 Z M 176.27 146.50 L 176.09 147.49 C 175.92 148.41 176.53 149.30 177.46 149.47 C 178.39 149.64 179.28 149.03 179.45 148.10 L 179.63 147.11 C 179.80 146.18 179.19 145.29 178.26 145.12 C 177.33 144.95 176.44 145.57 176.27 146.50 Z M 176.09 147.46 L 175.90 148.44 C 175.72 149.36 176.32 150.26 177.24 150.45 C 178.17 150.63 179.07 150.03 179.25 149.10 L 179.44 148.13 C 179.63 147.20 179.03 146.30 178.10 146.12 C 177.18 145.94 176.28 146.54 176.09 147.46 Z M 175.91 148.42 L 175.70 149.38 C 175.50 150.30 176.09 151.21 177.01 151.40 C 177.94 151.60 178.84 151.01 179.04 150.09 L 179.24 149.13 C 179.44 148.21 178.85 147.30 177.93 147.10 C 177.01 146.91 176.10 147.49 175.91 148.42 Z M 175.71 149.35 L 175.48 150.36 C 175.27 151.27 175.84 152.19 176.76 152.40 C 177.68 152.61 178.59 152.04 178.80 151.12 L 179.03 150.11 C 179.24 149.20 178.67 148.28 177.75 148.07 C 176.83 147.86 175.92 148.43 175.71 149.35 Z M 175.48 150.33 L 175.24 151.32 C 175.02 152.23 175.58 153.16 176.49 153.38 C 177.40 153.60 178.33 153.05 178.55 152.13 L 178.79 151.14 C 179.02 150.23 178.46 149.31 177.55 149.08 C 176.63 148.86 175.71 149.42 175.48 150.33 Z M 175.25 151.29 L 175.00 152.26 C 174.76 153.17 175.30 154.10 176.21 154.34 C 177.12 154.58 178.05 154.03 178.29 153.12 L 178.54 152.15 C 178.78 151.25 178.24 150.32 177.33 150.08 C 176.42 149.84 175.49 150.38 175.25 151.29 Z M 175.00 152.24 L 174.74 153.20 C 174.49 154.10 175.02 155.04 175.93 155.29 C 176.83 155.54 177.77 155.01 178.02 154.10 L 178.28 153.15 C 178.53 152.24 178.00 151.30 177.10 151.05 C 176.19 150.80 175.25 151.34 175.00 152.24 Z M 174.75 153.18 L 174.47 154.12 C 174.21 155.02 174.73 155.96 175.63 156.23 C 176.53 156.49 177.47 155.97 177.74 155.07 L 178.01 154.12 C 178.27 153.22 177.75 152.28 176.85 152.02 C 175.95 151.76 175.01 152.27 174.75 153.18 Z M 174.48 154.10 L 174.20 155.05 C 173.92 155.94 174.43 156.89 175.33 157.16 C 176.22 157.43 177.17 156.93 177.44 156.03 L 177.73 155.09 C 178.00 154.19 177.49 153.24 176.60 152.97 C 175.70 152.70 174.75 153.21 174.48 154.10 Z M 174.20 155.03 L 173.91 155.97 C 173.63 156.87 174.12 157.82 175.02 158.10 C 175.91 158.38 176.86 157.88 177.14 156.99 L 177.44 156.05 C 177.72 155.15 177.22 154.20 176.33 153.92 C 175.43 153.64 174.48 154.14 174.20 155.03 Z M 173.91 155.96 L 173.61 156.90 C 173.32 157.79 173.81 158.74 174.70 159.03 C 175.59 159.32 176.54 158.83 176.83 157.94 L 177.13 157.00 C 177.42 156.11 176.93 155.16 176.04 154.87 C 175.16 154.58 174.20 155.07 173.91 155.96 Z M 173.62 156.88 L 173.30 157.83 C 173.01 158.71 173.49 159.67 174.37 159.96 C 175.26 160.26 176.21 159.78 176.51 158.89 L 176.82 157.95 C 177.12 157.07 176.64 156.11 175.75 155.82 C 174.87 155.52 173.91 156.00 173.62 156.88 Z M 173.31 157.81 L 172.99 158.76 C 172.69 159.64 173.16 160.60 174.04 160.90 C 174.92 161.20 175.88 160.73 176.18 159.85 L 176.50 158.90 C 176.80 158.02 176.33 157.06 175.45 156.76 C 174.57 156.46 173.61 156.93 173.31 157.81 Z M 173.00 158.75 L 172.66 159.69 C 172.36 160.57 172.82 161.53 173.70 161.84 C 174.57 162.14 175.53 161.68 175.84 160.80 L 176.17 159.86 C 176.48 158.98 176.02 158.02 175.14 157.71 C 174.26 157.41 173.30 157.87 173.00 158.75 Z M 172.67 159.68 L 172.33 160.63 C 172.02 161.50 172.48 162.46 173.35 162.78 C 174.22 163.09 175.18 162.63 175.50 161.76 L 175.83 160.81 C 176.15 159.94 175.69 158.98 174.82 158.67 C 173.94 158.36 172.98 158.81 172.67 159.68 Z M 172.34 160.62 L 171.99 161.57 C 171.68 162.44 172.12 163.40 172.99 163.72 C 173.86 164.03 174.83 163.59 175.14 162.72 L 175.49 161.77 C 175.81 160.90 175.36 159.94 174.49 159.62 C 173.62 159.30 172.66 159.75 172.34 160.62 Z M 172.00 161.56 L 171.65 162.50 C 171.33 163.37 171.77 164.33 172.63 164.66 C 173.50 164.98 174.46 164.54 174.79 163.67 L 175.14 162.73 C 175.46 161.86 175.02 160.90 174.15 160.57 C 173.29 160.25 172.32 160.69 172.00 161.56 Z M 171.65 162.50 L 171.30 163.44 C 170.97 164.30 171.41 165.26 172.27 165.59 C 173.13 165.92 174.10 165.48 174.42 164.62 L 174.78 163.68 C 175.11 162.82 174.67 161.85 173.81 161.53 C 172.95 161.20 171.98 161.63 171.65 162.50 Z M 171.31 163.43 L 170.94 164.37 C 170.61 165.23 171.04 166.19 171.90 166.52 C 172.76 166.85 173.72 166.42 174.06 165.56 L 174.42 164.63 C 174.75 163.77 174.32 162.80 173.46 162.47 C 172.60 162.14 171.64 162.57 171.31 163.43 Z M 170.95 164.36 L 170.59 165.29 C 170.25 166.15 170.67 167.11 171.53 167.45 C 172.38 167.78 173.35 167.36 173.68 166.51 L 174.05 165.57 C 174.38 164.72 173.96 163.75 173.11 163.42 C 172.25 163.08 171.29 163.50 170.95 164.36 Z M 170.59 165.29 L 170.22 166.22 C 169.88 167.07 170.30 168.03 171.15 168.37 C 172.00 168.71 172.97 168.30 173.31 167.44 L 173.68 166.51 C 174.01 165.66 173.60 164.70 172.75 164.36 C 171.90 164.02 170.93 164.44 170.59 165.29 Z M 170.23 166.21 L 169.86 167.14 C 169.51 167.99 169.92 168.95 170.77 169.29 C 171.62 169.63 172.58 169.22 172.93 168.38 L 173.30 167.45 C 173.64 166.60 173.23 165.64 172.38 165.30 C 171.54 164.95 170.57 165.36 170.23 166.21 Z M 169.86 167.13 L 169.48 168.05 C 169.14 168.90 169.54 169.86 170.39 170.21 C 171.23 170.55 172.20 170.15 172.54 169.30 L 172.92 168.38 C 173.27 167.54 172.86 166.57 172.02 166.23 C 171.17 165.88 170.21 166.29 169.86 167.13 Z M 169.49 168.05 L 169.11 168.97 C 168.76 169.81 169.16 170.77 170.00 171.12 C 170.84 171.47 171.81 171.07 172.16 170.23 L 172.54 169.31 C 172.89 168.47 172.49 167.50 171.64 167.16 C 170.80 166.81 169.84 167.21 169.49 168.05 Z M 169.12 168.96 L 168.72 169.90 C 168.37 170.73 168.77 171.70 169.60 172.05 C 170.44 172.40 171.41 172.01 171.76 171.17 L 172.15 170.23 C 172.50 169.40 172.11 168.43 171.27 168.08 C 170.43 167.73 169.47 168.12 169.12 168.96 Z M 168.73 169.89 L 168.33 170.83 C 167.98 171.66 168.37 172.62 169.20 172.98 C 170.03 173.33 171.00 172.94 171.35 172.11 L 171.75 171.17 C 172.10 170.34 171.72 169.38 170.88 169.02 C 170.05 168.67 169.09 169.06 168.73 169.89 Z M 168.34 170.82 L 167.94 171.75 C 167.58 172.58 167.96 173.54 168.79 173.90 C 169.62 174.26 170.59 173.87 170.94 173.05 L 171.34 172.12 C 171.70 171.29 171.32 170.32 170.49 169.97 C 169.66 169.61 168.70 169.99 168.34 170.82 Z M 167.95 171.74 L 167.54 172.66 C 167.18 173.49 167.56 174.45 168.39 174.81 C 169.21 175.17 170.17 174.80 170.53 173.97 L 170.94 173.05 C 171.30 172.23 170.92 171.26 170.10 170.90 C 169.27 170.54 168.31 170.92 167.95 171.74 Z M 167.55 172.66 L 167.15 173.57 C 166.78 174.39 167.16 175.35 167.98 175.71 C 168.80 176.08 169.76 175.71 170.12 174.89 L 170.53 173.98 C 170.89 173.16 170.52 172.19 169.70 171.83 C 168.88 171.47 167.92 171.84 167.55 172.66 Z M 167.16 173.56 L 166.75 174.46 C 166.38 175.28 166.75 176.24 167.57 176.60 C 168.38 176.97 169.34 176.61 169.71 175.79 L 170.12 174.89 C 170.48 174.08 170.12 173.12 169.30 172.75 C 168.49 172.38 167.52 172.74 167.16 173.56 Z M 166.76 174.45 L 166.36 175.34 C 165.98 176.15 166.34 177.11 167.15 177.48 C 167.97 177.85 168.93 177.50 169.30 176.68 L 169.70 175.80 C 170.08 174.98 169.72 174.02 168.90 173.65 C 168.09 173.28 167.13 173.64 166.76 174.45 Z M 166.36 175.33 L 165.94 176.25 C 165.56 177.06 165.91 178.02 166.72 178.39 C 167.53 178.77 168.49 178.42 168.86 177.61 L 169.29 176.69 C 169.67 175.88 169.31 174.92 168.51 174.55 C 167.70 174.17 166.74 174.52 166.36 175.33 Z M 165.95 176.24 L 165.52 177.15 C 165.14 177.96 165.48 178.91 166.29 179.29 C 167.09 179.67 168.05 179.33 168.42 178.52 L 168.85 177.61 C 169.23 176.81 168.89 175.85 168.09 175.47 C 167.28 175.10 166.33 175.44 165.95 176.24 Z M 165.53 177.15 L 165.10 178.05 C 164.72 178.85 165.05 179.80 165.85 180.18 C 166.65 180.57 167.61 180.23 167.99 179.43 L 168.42 178.53 C 168.80 177.73 168.46 176.77 167.66 176.39 C 166.86 176.01 165.91 176.35 165.53 177.15 Z M 165.10 178.05 L 164.67 178.94 C 164.29 179.74 164.62 180.69 165.42 181.07 C 166.21 181.45 167.16 181.12 167.55 180.33 L 167.98 179.43 C 168.36 178.64 168.03 177.69 167.23 177.30 C 166.44 176.92 165.49 177.25 165.10 178.05 Z M 164.68 178.94 L 164.25 179.83 C 163.86 180.62 164.19 181.57 164.98 181.96 C 165.77 182.34 166.72 182.01 167.11 181.22 L 167.54 180.33 C 167.92 179.54 167.59 178.59 166.80 178.21 C 166.01 177.82 165.06 178.15 164.68 178.94 Z M 164.25 179.83 L 163.82 180.73 C 163.43 181.51 163.76 182.46 164.55 182.84 C 165.33 183.23 166.28 182.90 166.66 182.11 L 167.10 181.22 C 167.48 180.44 167.16 179.49 166.37 179.11 C 165.58 178.72 164.64 179.05 164.25 179.83 Z M 163.82 180.73 L 163.38 181.64 C 163.00 182.42 163.32 183.37 164.10 183.75 C 164.89 184.13 165.83 183.81 166.21 183.02 L 166.66 182.11 C 167.04 181.33 166.71 180.39 165.93 180.00 C 165.15 179.62 164.21 179.95 163.82 180.73 Z M 163.39 181.64 L 162.93 182.57 C 162.55 183.35 162.87 184.29 163.65 184.67 C 164.43 185.05 165.37 184.73 165.75 183.95 L 166.21 183.02 C 166.59 182.24 166.26 181.30 165.49 180.92 C 164.71 180.54 163.77 180.86 163.39 181.64 Z M 162.94 182.57 L 162.48 183.50 C 162.10 184.27 162.42 185.21 163.19 185.59 C 163.97 185.97 164.90 185.65 165.29 184.88 L 165.74 183.95 C 166.12 183.18 165.81 182.24 165.03 181.86 C 164.26 181.48 163.32 181.80 162.94 182.57 Z M 162.49 183.49 L 162.04 184.40 C 161.65 185.17 161.97 186.11 162.73 186.49 C 163.50 186.88 164.44 186.56 164.82 185.79 L 165.28 184.88 C 165.66 184.11 165.35 183.18 164.58 182.79 C 163.81 182.41 162.87 182.72 162.49 183.49 Z M 162.05 184.40 L 161.60 185.28 C 161.21 186.05 161.51 186.98 162.28 187.37 C 163.04 187.76 163.98 187.45 164.36 186.69 L 164.81 185.80 C 165.20 185.03 164.90 184.10 164.13 183.71 C 163.37 183.33 162.43 183.63 162.05 184.40 Z M 161.61 185.28 L 161.16 186.13 C 160.77 186.89 161.07 187.82 161.83 188.21 C 162.58 188.61 163.51 188.31 163.91 187.55 L 164.35 186.70 C 164.74 185.94 164.45 185.01 163.69 184.61 C 162.93 184.22 162.00 184.52 161.61 185.28 Z M 161.18 186.12 L 160.73 186.96 C 160.33 187.71 160.61 188.65 161.36 189.05 C 162.11 189.45 163.04 189.16 163.44 188.41 L 163.89 187.57 C 164.29 186.82 164.01 185.89 163.26 185.49 C 162.51 185.09 161.58 185.37 161.18 186.12 Z M 160.74 186.94 L 160.22 187.90 C 159.81 188.64 160.07 189.57 160.81 189.98 C 161.55 190.39 162.49 190.12 162.90 189.38 L 163.42 188.43 C 163.84 187.69 163.57 186.76 162.83 186.35 C 162.09 185.94 161.15 186.20 160.74 186.94 Z M 160.23 187.87 L 159.72 188.76 C 159.30 189.50 159.55 190.43 160.28 190.85 C 161.01 191.28 161.94 191.03 162.36 190.30 L 162.88 189.40 C 163.30 188.67 163.05 187.74 162.32 187.32 C 161.59 186.89 160.66 187.14 160.23 187.87 Z M 159.74 188.75 L 159.23 189.59 C 158.80 190.31 159.03 191.24 159.75 191.68 C 160.47 192.11 161.41 191.88 161.84 191.16 L 162.35 190.31 C 162.78 189.59 162.55 188.66 161.83 188.22 C 161.11 187.79 160.17 188.02 159.74 188.75 Z M 159.25 189.57 L 158.75 190.38 C 158.30 191.09 158.52 192.03 159.23 192.47 C 159.95 192.91 160.88 192.69 161.32 191.98 L 161.82 191.17 C 162.27 190.46 162.05 189.53 161.34 189.08 C 160.62 188.64 159.69 188.86 159.25 189.57 Z M 158.76 190.36 L 158.26 191.15 C 157.81 191.86 158.01 192.79 158.72 193.24 C 159.42 193.69 160.36 193.49 160.81 192.78 L 161.31 191.99 C 161.76 191.29 161.55 190.35 160.85 189.90 C 160.14 189.45 159.21 189.66 158.76 190.36 Z M 158.27 191.14 L 157.71 192.00 C 157.25 192.70 157.45 193.63 158.15 194.09 C 158.84 194.54 159.78 194.35 160.24 193.65 L 160.79 192.79 C 161.25 192.09 161.05 191.16 160.36 190.70 C 159.66 190.25 158.72 190.44 158.27 191.14 Z M 157.72 191.99 L 157.16 192.83 C 156.70 193.52 156.88 194.45 157.58 194.92 C 158.27 195.38 159.20 195.19 159.67 194.50 L 160.22 193.66 C 160.69 192.97 160.50 192.03 159.81 191.57 C 159.12 191.11 158.18 191.30 157.72 191.99 Z M 157.17 192.82 L 156.61 193.64 C 156.14 194.33 156.32 195.26 157.01 195.73 C 157.69 196.20 158.63 196.02 159.10 195.33 L 159.66 194.51 C 160.12 193.82 159.94 192.89 159.26 192.42 C 158.57 191.95 157.64 192.13 157.17 192.82 Z M 156.62 193.63 L 156.06 194.44 C 155.59 195.12 155.76 196.05 156.44 196.53 C 157.12 197.00 158.06 196.83 158.53 196.15 L 159.09 195.34 C 159.56 194.66 159.39 193.72 158.71 193.25 C 158.03 192.78 157.09 192.95 156.62 193.63 Z M 156.07 194.43 L 155.49 195.24 C 155.02 195.92 155.18 196.86 155.86 197.33 C 156.53 197.81 157.47 197.65 157.94 196.97 L 158.52 196.16 C 159.00 195.48 158.83 194.54 158.16 194.07 C 157.48 193.59 156.55 193.75 156.07 194.43 Z M 155.50 195.24 L 154.92 196.05 C 154.43 196.73 154.59 197.66 155.26 198.14 C 155.94 198.62 156.87 198.47 157.35 197.80 L 157.94 196.98 C 158.42 196.31 158.26 195.37 157.59 194.89 C 156.92 194.41 155.98 194.56 155.50 195.24 Z M 154.92 196.05 L 154.34 196.86 C 153.85 197.53 154.00 198.46 154.67 198.95 C 155.34 199.43 156.28 199.28 156.76 198.61 L 157.35 197.80 C 157.83 197.13 157.68 196.20 157.01 195.71 C 156.34 195.23 155.41 195.38 154.92 196.05 Z M 154.34 196.85 L 153.75 197.66 C 153.27 198.32 153.41 199.26 154.08 199.75 C 154.75 200.24 155.69 200.09 156.17 199.42 L 156.76 198.62 C 157.25 197.95 157.10 197.01 156.43 196.52 C 155.76 196.04 154.83 196.18 154.34 196.85 Z M 153.75 197.65 L 153.35 198.21 C 152.86 198.88 153.01 199.81 153.67 200.30 C 154.34 200.79 155.28 200.64 155.77 199.98 L 156.17 199.42 C 156.66 198.75 156.52 197.82 155.85 197.33 C 155.18 196.84 154.24 196.99 153.75 197.65 Z"
      fill="black"
      fill-rule="nonzero" /></svg>