<svg xmlns="http://www.w3.org/2000/svg" width="300" height="300" viewBox="0 0 300 300">
<path d="M 159.18 102.40 L 158.43 103.00 C 157.78 103.51 157.67 104.46 158.18 105.11 C 158.70 105.76 159.65 105.87 160.30 105.35 L 161.05 104.76 C 161.70 104.24 161.81 103.29 161.29 102.64 C 160.78 101.99 159.83 101.88 159.18 102.40 Z M 158.40 102.97 L 157.64 103.58 C 156.97 104.12 156.87 105.09 157.40 105.75 C 157.94 106.42 158.91 106.52 159.57 105.99 L 160.33 105.38 C 160.99 104.84 161.10 103.87 160.57 103.21 C 160.03 102.54 159.06 102.44 158.40 102.97 Z M 157.60 103.56 L 156.82 104.20 C 156.15 104.76 156.05 105.76 156.61 106.43 C 157.17 107.11 158.17 107.20 158.84 106.64 L 159.61 106.01 C 160.29 105.45 160.38 104.45 159.82 103.78 C 159.27 103.10 158.27 103.01 157.60 103.56 Z M 156.77 104.19 L 155.98 104.87 C 155.30 105.46 155.22 106.48 155.81 107.16 C 156.39 107.84 157.41 107.92 158.09 107.34 L 158.89 106.66 C 159.57 106.07 159.65 105.05 159.06 104.37 C 158.48 103.69 157.46 103.61 156.77 104.19 Z M 155.94 104.88 L 155.17 105.56 C 154.50 106.17 154.44 107.21 155.04 107.89 C 155.65 108.56 156.69 108.62 157.37 108.02 L 158.13 107.33 C 158.81 106.73 158.87 105.69 158.27 105.01 C 157.66 104.33 156.62 104.27 155.94 104.88 Z M 155.15 105.58 L 154.39 106.28 C 153.72 106.89 153.68 107.94 154.30 108.61 C 154.92 109.28 155.96 109.32 156.63 108.70 L 157.39 108.00 C 158.06 107.38 158.10 106.34 157.48 105.67 C 156.87 105.00 155.82 104.96 155.15 105.58 Z M 154.38 106.29 L 153.63 106.99 C 152.97 107.62 152.94 108.66 153.56 109.32 C 154.19 109.99 155.23 110.02 155.89 109.39 L 156.64 108.69 C 157.30 108.06 157.34 107.02 156.71 106.36 C 156.09 105.70 155.05 105.67 154.38 106.29 Z M 153.63 107.00 L 152.91 107.69 C 152.25 108.31 152.23 109.35 152.86 110.01 C 153.48 110.67 154.52 110.70 155.18 110.07 L 155.90 109.38 C 156.56 108.76 156.58 107.72 155.96 107.06 C 155.33 106.40 154.29 106.38 153.63 107.00 Z M 152.91 107.69 L 152.22 108.35 C 151.56 108.98 151.54 110.02 152.16 110.68 C 152.79 111.33 153.83 111.36 154.49 110.73 L 155.18 110.06 C 155.84 109.44 155.86 108.40 155.23 107.74 C 154.61 107.09 153.57 107.06 152.91 107.69 Z M 152.22 108.36 L 151.45 109.09 C 150.79 109.72 150.77 110.75 151.39 111.41 C 152.01 112.06 153.05 112.09 153.70 111.47 L 154.48 110.73 C 155.13 110.10 155.16 109.07 154.54 108.41 C 153.91 107.76 152.88 107.73 152.22 108.36 Z M 151.46 109.10 L 150.75 109.77 C 150.10 110.38 150.06 111.41 150.68 112.06 C 151.30 112.72 152.32 112.75 152.98 112.13 L 153.69 111.46 C 154.34 110.85 154.37 109.82 153.76 109.17 C 153.14 108.51 152.11 108.48 151.46 109.10 Z M 150.76 109.77 L 150.07 110.41 C 149.42 111.02 149.38 112.04 149.99 112.69 C 150.60 113.35 151.62 113.38 152.27 112.78 L 152.96 112.13 C 153.62 111.52 153.65 110.50 153.04 109.85 C 152.44 109.20 151.42 109.16 150.76 109.77 Z M 150.09 110.41 L 149.39 111.06 C 148.74 111.66 148.69 112.67 149.29 113.32 C 149.89 113.97 150.91 114.02 151.56 113.42 L 152.26 112.77 C 152.91 112.17 152.95 111.16 152.35 110.51 C 151.75 109.86 150.74 109.81 150.09 110.41 Z M 149.40 111.06 L 148.68 111.71 C 148.03 112.31 147.98 113.32 148.57 113.97 C 149.17 114.62 150.17 114.67 150.83 114.07 L 151.55 113.42 C 152.20 112.82 152.25 111.81 151.65 111.16 C 151.06 110.51 150.05 110.46 149.40 111.06 Z M 148.69 111.71 L 147.94 112.39 C 147.29 112.98 147.23 113.98 147.82 114.63 C 148.41 115.29 149.41 115.34 150.06 114.75 L 150.81 114.07 C 151.47 113.49 151.52 112.48 150.93 111.83 C 150.34 111.18 149.34 111.13 148.69 111.71 Z M 147.95 112.39 L 147.17 113.09 C 146.52 113.67 146.46 114.67 147.04 115.32 C 147.62 115.97 148.62 116.02 149.27 115.44 L 150.05 114.75 C 150.70 114.17 150.76 113.17 150.18 112.52 C 149.60 111.87 148.60 111.81 147.95 112.39 Z M 147.18 113.09 L 146.46 113.73 C 145.81 114.30 145.74 115.29 146.32 115.94 C 146.89 116.60 147.89 116.66 148.54 116.08 L 149.26 115.44 C 149.91 114.87 149.97 113.88 149.40 113.22 C 148.83 112.57 147.83 112.51 147.18 113.09 Z M 146.47 113.73 L 145.73 114.37 C 145.08 114.94 145.01 115.93 145.58 116.58 C 146.15 117.23 147.14 117.30 147.79 116.73 L 148.53 116.08 C 149.18 115.51 149.24 114.52 148.67 113.87 C 148.11 113.22 147.12 113.16 146.47 113.73 Z M 145.74 114.37 L 144.98 115.03 C 144.33 115.60 144.26 116.58 144.82 117.23 C 145.39 117.88 146.37 117.95 147.02 117.39 L 147.78 116.72 C 148.43 116.16 148.50 115.18 147.94 114.53 C 147.37 113.88 146.39 113.81 145.74 114.37 Z M 144.99 115.04 L 144.20 115.72 C 143.55 116.28 143.48 117.25 144.04 117.90 C 144.60 118.55 145.58 118.62 146.22 118.06 L 147.01 117.38 C 147.66 116.82 147.73 115.85 147.17 115.20 C 146.61 114.55 145.64 114.48 144.99 115.04 Z M 144.21 115.72 L 143.46 116.37 C 142.81 116.92 142.74 117.89 143.29 118.54 C 143.84 119.19 144.82 119.26 145.46 118.71 L 146.22 118.06 C 146.86 117.50 146.94 116.53 146.38 115.89 C 145.83 115.24 144.85 115.17 144.21 115.72 Z M 143.46 116.37 L 142.70 117.02 C 142.06 117.57 141.98 118.54 142.54 119.18 C 143.09 119.83 144.06 119.90 144.70 119.35 L 145.46 118.70 C 146.10 118.15 146.18 117.18 145.63 116.54 C 145.08 115.89 144.11 115.82 143.46 116.37 Z M 142.71 117.02 L 141.94 117.68 C 141.30 118.22 141.22 119.19 141.77 119.83 C 142.32 120.47 143.28 120.55 143.92 120.00 L 144.69 119.35 C 145.34 118.80 145.41 117.84 144.86 117.19 C 144.32 116.55 143.35 116.47 142.71 117.02 Z M 141.95 117.68 L 141.18 118.33 C 140.54 118.88 140.46 119.84 141.00 120.48 C 141.55 121.12 142.51 121.20 143.15 120.65 L 143.92 120.00 C 144.56 119.45 144.64 118.49 144.09 117.85 C 143.55 117.21 142.59 117.14 141.95 117.68 Z M 141.18 118.34 L 140.41 118.99 C 139.77 119.53 139.70 120.49 140.24 121.13 C 140.78 121.76 141.73 121.84 142.37 121.30 L 143.14 120.65 C 143.78 120.11 143.86 119.15 143.32 118.51 C 142.78 117.88 141.82 117.80 141.18 118.34 Z M 140.42 118.99 L 139.64 119.65 C 139.00 120.19 138.92 121.14 139.46 121.78 C 139.99 122.41 140.95 122.49 141.58 121.96 L 142.36 121.30 C 143.00 120.76 143.08 119.81 142.54 119.18 C 142.01 118.54 141.06 118.46 140.42 118.99 Z M 139.65 119.65 L 138.88 120.29 C 138.24 120.83 138.16 121.77 138.69 122.41 C 139.22 123.05 140.17 123.13 140.80 122.60 L 141.57 121.96 C 142.21 121.42 142.30 120.48 141.76 119.84 C 141.23 119.21 140.29 119.12 139.65 119.65 Z M 138.89 120.29 L 138.13 120.92 C 137.49 121.45 137.40 122.39 137.92 123.03 C 138.45 123.66 139.39 123.76 140.03 123.23 L 140.79 122.60 C 141.43 122.08 141.52 121.13 140.99 120.50 C 140.47 119.86 139.53 119.77 138.89 120.29 Z M 138.14 120.92 L 137.38 121.53 C 136.74 122.05 136.64 122.99 137.16 123.63 C 137.68 124.27 138.61 124.37 139.25 123.85 L 140.01 123.23 C 140.65 122.72 140.75 121.78 140.23 121.14 C 139.72 120.50 138.78 120.40 138.14 120.92 Z M 137.40 121.53 L 136.59 122.17 C 135.95 122.67 135.84 123.61 136.35 124.25 C 136.86 124.89 137.79 125.00 138.43 124.49 L 139.24 123.85 C 139.88 123.35 139.99 122.41 139.48 121.77 C 138.97 121.13 138.04 121.02 137.40 121.53 Z M 136.61 122.16 L 135.81 122.78 C 135.16 123.29 135.05 124.21 135.55 124.86 C 136.05 125.50 136.98 125.62 137.62 125.12 L 138.42 124.49 C 139.06 123.99 139.18 123.07 138.68 122.42 C 138.18 121.78 137.25 121.66 136.61 122.16 Z M 135.82 122.78 L 135.03 123.39 C 134.38 123.89 134.26 124.81 134.76 125.45 C 135.25 126.10 136.18 126.22 136.82 125.72 L 137.61 125.12 C 138.25 124.62 138.37 123.70 137.88 123.05 C 137.38 122.41 136.46 122.29 135.82 122.78 Z M 135.03 123.39 L 134.26 123.98 C 133.62 124.48 133.50 125.40 133.99 126.04 C 134.48 126.68 135.40 126.80 136.04 126.31 L 136.82 125.72 C 137.46 125.23 137.58 124.31 137.09 123.67 C 136.60 123.02 135.68 122.90 135.03 123.39 Z M 134.27 123.99 L 133.44 124.62 C 132.80 125.11 132.68 126.03 133.17 126.67 C 133.66 127.30 134.58 127.43 135.22 126.94 L 136.04 126.31 C 136.68 125.82 136.80 124.90 136.31 124.26 C 135.82 123.62 134.91 123.50 134.27 123.99 Z M 133.45 124.62 L 132.64 125.24 C 132.00 125.73 131.88 126.64 132.37 127.28 C 132.86 127.92 133.77 128.04 134.41 127.55 L 135.22 126.93 C 135.85 126.44 135.97 125.53 135.49 124.89 C 135.00 124.26 134.09 124.13 133.45 124.62 Z M 132.65 125.24 L 131.87 125.83 C 131.23 126.32 131.10 127.23 131.59 127.86 C 132.07 128.50 132.98 128.63 133.62 128.14 L 134.40 127.55 C 135.04 127.07 135.16 126.16 134.68 125.52 C 134.20 124.88 133.29 124.76 132.65 125.24 Z M 131.88 125.83 L 131.12 126.40 C 130.48 126.87 130.34 127.78 130.82 128.42 C 131.29 129.06 132.20 129.19 132.84 128.72 L 133.60 128.15 C 134.24 127.67 134.38 126.77 133.90 126.13 C 133.42 125.49 132.52 125.35 131.88 125.83 Z M 131.13 126.39 L 130.36 126.95 C 129.72 127.41 129.57 128.31 130.04 128.96 C 130.50 129.60 131.40 129.75 132.05 129.28 L 132.82 128.72 C 133.46 128.26 133.61 127.36 133.14 126.71 C 132.68 126.07 131.78 125.92 131.13 126.39 Z M 130.39 126.93 L 129.59 127.49 C 128.94 127.94 128.77 128.83 129.23 129.49 C 129.68 130.14 130.57 130.30 131.22 129.85 L 132.02 129.29 C 132.68 128.84 132.84 127.95 132.39 127.30 C 131.93 126.64 131.04 126.48 130.39 126.93 Z M 129.62 127.47 L 128.75 128.04 C 128.09 128.48 127.91 129.37 128.35 130.03 C 128.78 130.69 129.67 130.87 130.33 130.44 L 131.20 129.86 C 131.86 129.43 132.04 128.54 131.60 127.88 C 131.17 127.22 130.28 127.04 129.62 127.47 Z M 128.77 128.02 L 127.94 128.55 C 127.26 128.98 127.06 129.87 127.49 130.54 C 127.92 131.21 128.81 131.41 129.48 130.99 L 130.31 130.46 C 130.99 130.03 131.19 129.14 130.76 128.47 C 130.33 127.80 129.44 127.60 128.77 128.02 Z M 127.94 128.51 L 127.12 129.01 C 126.43 129.44 126.22 130.35 126.64 131.04 C 127.07 131.73 127.98 131.95 128.67 131.52 L 129.48 131.02 C 130.17 130.60 130.39 129.69 129.96 129.00 C 129.54 128.30 128.63 128.09 127.94 128.51 Z M 127.11 128.97 L 126.25 129.49 C 125.54 129.93 125.31 130.86 125.74 131.57 C 126.17 132.28 127.10 132.51 127.82 132.08 L 128.68 131.56 C 129.39 131.13 129.62 130.20 129.19 129.49 C 128.76 128.77 127.83 128.54 127.11 128.97 Z M 126.24 129.46 L 125.35 129.99 C 124.61 130.43 124.37 131.38 124.81 132.12 C 125.25 132.85 126.20 133.09 126.94 132.65 L 127.83 132.12 C 128.57 131.68 128.81 130.73 128.37 129.99 C 127.93 129.26 126.98 129.02 126.24 129.46 Z M 125.33 129.96 L 124.42 130.50 C 123.67 130.94 123.42 131.92 123.87 132.67 C 124.32 133.43 125.29 133.68 126.05 133.23 L 126.96 132.69 C 127.71 132.24 127.96 131.26 127.51 130.51 C 127.06 129.76 126.09 129.51 125.33 129.96 Z M 124.41 130.48 L 124.37 130.50 C 123.60 130.96 123.35 131.95 123.81 132.71 C 124.26 133.47 125.25 133.73 126.01 133.27 L 126.06 133.25 C 126.82 132.79 127.07 131.80 126.62 131.04 C 126.16 130.28 125.18 130.02 124.41 130.48 Z"
      fill="black"
      fill-rule="nonzero" /><path d="M 115.25 145.38 L 114.28 145.12 C 113.47 144.91 112.64 145.39 112.43 146.20 C 112.22 147.00 112.70 147.83 113.51 148.04 L 114.49 148.30 C 115.29 148.51 116.12 148.03 116.33 147.22 C 116.55 146.41 116.06 145.59 115.25 145.38 Z M 114.31 145.11 L 113.34 144.83 C 112.53 144.60 111.68 145.08 111.45 145.89 C 111.22 146.70 111.70 147.55 112.51 147.78 L 113.48 148.05 C 114.29 148.28 115.14 147.81 115.37 147.00 C 115.59 146.18 115.12 145.34 114.31 145.11 Z M 113.40 144.83 L 112.46 144.53 C 111.64 144.26 110.77 144.71 110.51 145.52 C 110.24 146.34 110.69 147.21 111.50 147.47 L 112.45 147.78 C 113.26 148.04 114.14 147.60 114.40 146.78 C 114.66 145.97 114.22 145.10 113.40 144.83 Z M 112.55 144.54 L 111.54 144.14 C 110.74 143.83 109.83 144.22 109.51 145.03 C 109.19 145.83 109.59 146.74 110.39 147.06 L 111.40 147.46 C 112.21 147.78 113.12 147.38 113.44 146.58 C 113.75 145.77 113.36 144.86 112.55 144.54 Z M 111.72 144.21 L 110.70 143.66 C 109.93 143.24 108.97 143.53 108.55 144.30 C 108.14 145.07 108.42 146.03 109.19 146.44 L 110.21 147.00 C 110.98 147.41 111.94 147.12 112.36 146.36 C 112.78 145.59 112.49 144.63 111.72 144.21 Z M 111.11 143.95 L 110.54 143.35 C 109.93 142.70 108.92 142.67 108.28 143.28 C 107.63 143.88 107.60 144.90 108.21 145.54 L 108.78 146.15 C 109.39 146.79 110.40 146.82 111.04 146.21 C 111.68 145.61 111.71 144.60 111.11 143.95 Z M 110.96 144.71 L 111.06 144.16 C 111.21 143.28 110.62 142.45 109.74 142.30 C 108.86 142.15 108.03 142.74 107.88 143.62 L 107.78 144.17 C 107.63 145.05 108.22 145.88 109.10 146.03 C 109.98 146.18 110.81 145.59 110.96 144.71 Z M 110.50 145.14 L 111.12 144.63 C 111.81 144.06 111.91 143.04 111.34 142.35 C 110.77 141.66 109.74 141.56 109.05 142.13 L 108.44 142.64 C 107.75 143.21 107.65 144.23 108.22 144.92 C 108.79 145.61 109.81 145.71 110.50 145.14 Z M 110.81 144.84 L 111.82 144.34 C 112.63 143.94 112.96 142.96 112.56 142.15 C 112.16 141.35 111.18 141.02 110.38 141.42 L 109.36 141.92 C 108.56 142.32 108.22 143.30 108.62 144.10 C 109.02 144.91 110.00 145.24 110.81 144.84 Z M 111.68 144.41 L 112.87 143.95 C 113.72 143.63 114.14 142.69 113.82 141.84 C 113.50 141.00 112.55 140.57 111.71 140.89 L 110.52 141.35 C 109.67 141.67 109.25 142.61 109.57 143.46 C 109.89 144.30 110.84 144.73 111.68 144.41 Z M 112.81 143.98 L 113.72 143.68 C 114.58 143.39 115.05 142.46 114.76 141.60 C 114.47 140.74 113.55 140.28 112.69 140.56 L 111.77 140.87 C 110.91 141.15 110.45 142.08 110.73 142.94 C 111.02 143.80 111.95 144.27 112.81 143.98 Z M 113.68 143.69 L 114.65 143.40 C 115.51 143.13 116.00 142.21 115.74 141.34 C 115.47 140.48 114.55 139.99 113.68 140.26 L 112.72 140.55 C 111.85 140.82 111.37 141.74 111.63 142.60 C 111.90 143.47 112.82 143.96 113.68 143.69 Z M 114.62 143.40 L 115.61 143.12 C 116.48 142.87 116.99 141.96 116.73 141.08 C 116.48 140.21 115.57 139.71 114.70 139.96 L 113.71 140.25 C 112.84 140.50 112.34 141.41 112.59 142.28 C 112.84 143.15 113.75 143.66 114.62 143.40 Z M 115.59 143.13 L 116.58 142.85 C 117.46 142.61 117.97 141.71 117.73 140.83 C 117.49 139.95 116.58 139.44 115.71 139.68 L 114.72 139.95 C 113.84 140.20 113.33 141.10 113.57 141.98 C 113.81 142.85 114.72 143.37 115.59 143.13 Z M 116.57 142.86 L 117.53 142.60 C 118.41 142.37 118.93 141.46 118.70 140.59 C 118.46 139.71 117.56 139.18 116.68 139.42 L 115.72 139.68 C 114.84 139.91 114.32 140.81 114.55 141.69 C 114.79 142.57 115.69 143.09 116.57 142.86 Z M 117.52 142.61 L 118.55 142.34 C 119.43 142.11 119.96 141.21 119.73 140.32 C 119.50 139.44 118.60 138.92 117.72 139.15 L 116.69 139.42 C 115.81 139.65 115.28 140.55 115.51 141.43 C 115.74 142.31 116.64 142.84 117.52 142.61 Z M 118.55 142.34 L 119.54 142.08 C 120.42 141.86 120.95 140.96 120.73 140.08 C 120.50 139.19 119.60 138.66 118.72 138.89 L 117.73 139.14 C 116.84 139.37 116.31 140.27 116.54 141.15 C 116.76 142.03 117.66 142.57 118.55 142.34 Z M 119.53 142.09 L 120.49 141.85 C 121.37 141.62 121.91 140.73 121.68 139.84 C 121.46 138.96 120.56 138.42 119.68 138.65 L 118.73 138.89 C 117.84 139.11 117.31 140.01 117.53 140.89 C 117.75 141.77 118.65 142.31 119.53 142.09 Z M 120.48 141.85 L 121.41 141.62 C 122.30 141.40 122.84 140.50 122.62 139.62 C 122.40 138.73 121.50 138.19 120.62 138.41 L 119.69 138.64 C 118.80 138.86 118.26 139.76 118.48 140.64 C 118.70 141.53 119.59 142.07 120.48 141.85 Z M 121.41 141.62 L 122.34 141.40 C 123.22 141.18 123.77 140.29 123.55 139.40 C 123.34 138.51 122.44 137.97 121.55 138.18 L 120.62 138.41 C 119.74 138.63 119.19 139.52 119.41 140.41 C 119.63 141.29 120.52 141.84 121.41 141.62 Z M 122.33 141.40 L 123.28 141.17 C 124.17 140.96 124.72 140.06 124.50 139.17 C 124.29 138.29 123.40 137.74 122.51 137.95 L 121.56 138.18 C 120.67 138.39 120.12 139.29 120.34 140.18 C 120.55 141.07 121.44 141.61 122.33 141.40 Z M 123.28 141.17 L 124.24 140.94 C 125.13 140.73 125.68 139.84 125.47 138.95 C 125.26 138.06 124.36 137.51 123.47 137.72 L 122.51 137.95 C 121.62 138.16 121.07 139.06 121.28 139.95 C 121.49 140.84 122.39 141.39 123.28 141.17 Z M 124.24 140.95 L 125.22 140.71 C 126.11 140.50 126.66 139.61 126.45 138.71 C 126.23 137.82 125.34 137.27 124.45 137.48 L 123.47 137.72 C 122.58 137.93 122.03 138.82 122.24 139.72 C 122.45 140.61 123.35 141.16 124.24 140.95 Z M 125.22 140.72 L 126.21 140.48 C 127.10 140.27 127.65 139.37 127.44 138.48 C 127.23 137.58 126.33 137.03 125.44 137.25 L 124.45 137.48 C 123.55 137.70 123.00 138.59 123.22 139.48 C 123.43 140.38 124.32 140.93 125.22 140.72 Z M 126.21 140.48 L 127.18 140.25 C 128.08 140.03 128.63 139.14 128.41 138.24 C 128.20 137.35 127.30 136.80 126.41 137.01 L 125.44 137.24 C 124.54 137.46 123.99 138.36 124.21 139.25 C 124.42 140.14 125.32 140.69 126.21 140.48 Z M 127.18 140.25 L 128.13 140.02 C 129.02 139.81 129.57 138.91 129.36 138.01 C 129.14 137.12 128.25 136.57 127.35 136.78 L 126.41 137.01 C 125.51 137.23 124.96 138.13 125.17 139.02 C 125.39 139.91 126.29 140.46 127.18 140.25 Z M 128.13 140.02 L 129.09 139.79 C 129.99 139.58 130.54 138.68 130.32 137.78 C 130.11 136.89 129.21 136.34 128.31 136.55 L 127.35 136.78 C 126.46 137.00 125.90 137.90 126.12 138.79 C 126.33 139.69 127.23 140.24 128.13 140.02 Z M 129.09 139.80 L 130.07 139.56 C 130.97 139.35 131.52 138.45 131.31 137.55 C 131.09 136.66 130.19 136.10 129.30 136.32 L 128.32 136.55 C 127.42 136.76 126.87 137.66 127.08 138.56 C 127.29 139.46 128.19 140.01 129.09 139.80 Z M 130.07 139.57 L 131.07 139.33 C 131.96 139.12 132.52 138.22 132.31 137.32 C 132.10 136.42 131.20 135.87 130.30 136.08 L 129.30 136.31 C 128.40 136.52 127.85 137.42 128.06 138.32 C 128.27 139.22 129.17 139.78 130.07 139.57 Z M 131.06 139.33 L 132.04 139.11 C 132.94 138.90 133.50 138.00 133.30 137.10 C 133.09 136.20 132.19 135.64 131.29 135.85 L 130.31 136.07 C 129.41 136.28 128.85 137.18 129.05 138.08 C 129.26 138.98 130.16 139.54 131.06 139.33 Z M 132.04 139.11 L 133.00 138.89 C 133.90 138.69 134.46 137.79 134.26 136.89 C 134.05 135.99 133.16 135.42 132.26 135.63 L 131.30 135.85 C 130.40 136.05 129.83 136.95 130.04 137.85 C 130.24 138.75 131.14 139.31 132.04 139.11 Z M 132.99 138.89 L 133.96 138.67 C 134.87 138.47 135.43 137.58 135.23 136.68 C 135.03 135.77 134.13 135.21 133.23 135.41 L 132.26 135.63 C 131.36 135.83 130.79 136.72 130.99 137.63 C 131.20 138.53 132.09 139.09 132.99 138.89 Z M 133.96 138.68 L 134.94 138.46 C 135.85 138.26 136.42 137.36 136.22 136.46 C 136.02 135.56 135.12 134.99 134.22 135.19 L 133.24 135.41 C 132.33 135.61 131.76 136.50 131.96 137.40 C 132.16 138.31 133.06 138.88 133.96 138.68 Z M 134.94 138.46 L 135.93 138.24 C 136.83 138.04 137.40 137.15 137.21 136.25 C 137.01 135.34 136.11 134.77 135.21 134.97 L 134.22 135.19 C 133.32 135.39 132.74 136.28 132.94 137.18 C 133.14 138.09 134.04 138.66 134.94 138.46 Z M 135.93 138.24 L 136.92 138.03 C 137.82 137.83 138.40 136.93 138.20 136.03 C 138.00 135.12 137.11 134.55 136.20 134.75 L 135.21 134.97 C 134.30 135.17 133.73 136.06 133.93 136.97 C 134.13 137.87 135.02 138.44 135.93 138.24 Z M 136.92 138.03 L 137.89 137.81 C 138.79 137.61 139.37 136.72 139.17 135.82 C 138.97 134.91 138.07 134.34 137.17 134.54 L 136.20 134.75 C 135.30 134.95 134.72 135.84 134.92 136.75 C 135.12 137.65 136.02 138.23 136.92 138.03 Z M 137.89 137.81 L 138.86 137.60 C 139.76 137.40 140.34 136.50 140.14 135.60 C 139.94 134.69 139.04 134.12 138.14 134.32 L 137.17 134.54 C 136.26 134.74 135.69 135.63 135.89 136.54 C 136.09 137.44 136.99 138.01 137.89 137.81 Z M 138.86 137.60 L 139.84 137.38 C 140.74 137.18 141.31 136.28 141.11 135.38 C 140.91 134.47 140.01 133.90 139.10 134.11 L 138.13 134.32 C 137.23 134.52 136.66 135.42 136.86 136.33 C 137.06 137.23 137.96 137.80 138.86 137.60 Z M 139.84 137.38 L 140.82 137.16 C 141.72 136.95 142.29 136.06 142.08 135.15 C 141.88 134.25 140.98 133.68 140.08 133.88 L 139.10 134.11 C 138.19 134.31 137.63 135.21 137.83 136.12 C 138.04 137.02 138.94 137.59 139.84 137.38 Z M 140.83 137.16 L 141.81 136.93 C 142.71 136.72 143.28 135.82 143.07 134.92 C 142.86 134.01 141.95 133.45 141.05 133.66 L 140.07 133.89 C 139.16 134.09 138.60 135.00 138.81 135.90 C 139.02 136.81 139.92 137.37 140.83 137.16 Z M 141.82 136.93 L 142.79 136.70 C 143.69 136.49 144.25 135.58 144.03 134.68 C 143.82 133.77 142.91 133.22 142.01 133.43 L 141.04 133.66 C 140.14 133.87 139.58 134.78 139.79 135.68 C 140.01 136.59 140.91 137.14 141.82 136.93 Z M 142.79 136.70 L 143.74 136.47 C 144.64 136.25 145.19 135.34 144.97 134.44 C 144.75 133.54 143.85 132.98 142.94 133.20 L 142.00 133.43 C 141.10 133.65 140.55 134.56 140.76 135.46 C 140.98 136.36 141.89 136.92 142.79 136.70 Z M 143.74 136.47 L 144.69 136.23 C 145.60 136.01 146.15 135.10 145.93 134.20 C 145.70 133.30 144.79 132.75 143.89 132.97 L 142.94 133.20 C 142.04 133.43 141.49 134.34 141.71 135.24 C 141.93 136.14 142.84 136.69 143.74 136.47 Z M 144.70 136.23 L 145.66 136.00 C 146.56 135.77 147.11 134.86 146.89 133.96 C 146.67 133.06 145.76 132.51 144.86 132.73 L 143.89 132.97 C 142.99 133.19 142.44 134.10 142.66 135.01 C 142.88 135.91 143.79 136.46 144.70 136.23 Z M 145.66 136.00 L 146.64 135.75 C 147.55 135.53 148.10 134.62 147.87 133.72 C 147.65 132.82 146.74 132.27 145.84 132.49 L 144.86 132.73 C 143.96 132.95 143.41 133.86 143.63 134.77 C 143.85 135.67 144.76 136.22 145.66 136.00 Z M 146.64 135.75 L 147.64 135.51 C 148.54 135.29 149.10 134.38 148.88 133.48 C 148.66 132.58 147.75 132.02 146.85 132.24 L 145.84 132.49 C 144.94 132.71 144.39 133.62 144.61 134.52 C 144.83 135.42 145.74 135.97 146.64 135.75 Z M 147.63 135.51 L 148.63 135.27 C 149.53 135.06 150.08 134.15 149.87 133.25 C 149.65 132.35 148.75 131.79 147.84 132.01 L 146.85 132.24 C 145.95 132.46 145.39 133.37 145.61 134.27 C 145.82 135.17 146.73 135.73 147.63 135.51 Z M 148.62 135.28 L 149.59 135.05 C 150.49 134.84 151.05 133.93 150.84 133.03 C 150.63 132.12 149.72 131.56 148.82 131.78 L 147.85 132.00 C 146.95 132.22 146.39 133.12 146.60 134.02 C 146.81 134.93 147.71 135.49 148.62 135.28 Z M 149.58 135.05 L 150.56 134.82 C 151.47 134.61 152.03 133.71 151.82 132.81 C 151.61 131.90 150.71 131.34 149.80 131.55 L 148.82 131.77 C 147.92 131.98 147.36 132.89 147.57 133.79 C 147.78 134.70 148.68 135.26 149.58 135.05 Z M 150.56 134.82 L 151.54 134.60 C 152.45 134.39 153.01 133.49 152.81 132.58 C 152.60 131.68 151.70 131.11 150.79 131.32 L 149.81 131.55 C 148.90 131.75 148.34 132.66 148.54 133.56 C 148.75 134.47 149.65 135.03 150.56 134.82 Z M 151.54 134.60 L 152.52 134.37 C 153.43 134.17 153.99 133.27 153.79 132.36 C 153.58 131.46 152.68 130.89 151.78 131.10 L 150.79 131.32 C 149.89 131.53 149.32 132.43 149.53 133.33 C 149.74 134.24 150.64 134.80 151.54 134.60 Z M 152.52 134.37 L 153.50 134.15 C 154.40 133.95 154.97 133.05 154.76 132.14 C 154.56 131.24 153.66 130.67 152.75 130.87 L 151.78 131.10 C 150.87 131.30 150.31 132.20 150.51 133.11 C 150.72 134.01 151.62 134.58 152.52 134.37 Z M 153.50 134.15 L 154.46 133.93 C 155.37 133.73 155.93 132.82 155.73 131.92 C 155.52 131.02 154.62 130.45 153.72 130.66 L 152.75 130.88 C 151.85 131.08 151.28 131.98 151.49 132.89 C 151.69 133.79 152.59 134.36 153.50 134.15 Z M 154.47 133.93 L 155.47 133.70 C 156.38 133.49 156.94 132.59 156.73 131.69 C 156.53 130.78 155.63 130.22 154.72 130.43 L 153.72 130.66 C 152.81 130.86 152.25 131.76 152.45 132.67 C 152.66 133.57 153.56 134.14 154.47 133.93 Z M 155.47 133.70 L 156.46 133.47 C 157.37 133.26 157.93 132.36 157.72 131.46 C 157.51 130.56 156.61 129.99 155.71 130.20 L 154.72 130.43 C 153.82 130.63 153.25 131.54 153.46 132.44 C 153.67 133.34 154.57 133.91 155.47 133.70 Z M 156.46 133.47 L 157.44 133.25 C 158.34 133.04 158.90 132.14 158.70 131.23 C 158.49 130.33 157.59 129.77 156.68 129.98 L 155.71 130.20 C 154.81 130.41 154.24 131.31 154.45 132.21 C 154.66 133.12 155.56 133.68 156.46 133.47 Z M 157.44 133.24 L 158.40 133.02 C 159.30 132.81 159.87 131.91 159.66 131.01 C 159.45 130.11 158.55 129.54 157.64 129.75 L 156.68 129.98 C 155.78 130.19 155.22 131.09 155.43 131.99 C 155.64 132.89 156.54 133.45 157.44 133.24 Z M 158.40 133.02 L 159.36 132.80 C 160.26 132.59 160.82 131.69 160.61 130.79 C 160.40 129.88 159.50 129.32 158.60 129.53 L 157.64 129.75 C 156.74 129.96 156.18 130.86 156.39 131.77 C 156.60 132.67 157.50 133.23 158.40 133.02 Z M 159.36 132.80 L 160.31 132.57 C 161.22 132.37 161.78 131.46 161.57 130.56 C 161.36 129.66 160.46 129.10 159.55 129.31 L 158.60 129.53 C 157.70 129.74 157.14 130.64 157.35 131.54 C 157.56 132.45 158.46 133.01 159.36 132.80 Z M 160.31 132.57 L 161.29 132.35 C 162.19 132.14 162.75 131.24 162.54 130.34 C 162.34 129.44 161.44 128.87 160.53 129.08 L 159.56 129.31 C 158.65 129.52 158.09 130.42 158.30 131.32 C 158.51 132.22 159.41 132.78 160.31 132.57 Z M 161.29 132.35 L 162.27 132.12 C 163.17 131.91 163.73 131.01 163.52 130.11 C 163.31 129.21 162.42 128.65 161.52 128.86 L 160.54 129.08 C 159.64 129.29 159.07 130.19 159.28 131.09 C 159.49 131.99 160.39 132.55 161.29 132.35 Z M 162.26 132.12 L 163.24 131.90 C 164.14 131.69 164.70 130.79 164.50 129.89 C 164.29 128.99 163.40 128.43 162.50 128.64 L 161.52 128.86 C 160.62 129.06 160.06 129.96 160.26 130.86 C 160.47 131.76 161.36 132.33 162.26 132.12 Z M 163.24 131.90 L 164.21 131.68 C 165.11 131.48 165.68 130.58 165.47 129.68 C 165.27 128.78 164.38 128.21 163.48 128.42 L 162.50 128.64 C 161.60 128.84 161.04 129.73 161.24 130.63 C 161.44 131.53 162.33 132.10 163.24 131.90 Z M 164.20 131.68 L 165.17 131.47 C 166.08 131.27 166.65 130.38 166.45 129.48 C 166.25 128.57 165.36 128.00 164.46 128.20 L 163.49 128.42 C 162.58 128.61 162.01 129.50 162.21 130.41 C 162.41 131.31 163.30 131.88 164.20 131.68 Z M 165.16 131.47 L 166.14 131.26 C 167.04 131.07 167.62 130.18 167.43 129.28 C 167.23 128.38 166.35 127.80 165.45 127.99 L 164.47 128.20 C 163.57 128.39 162.99 129.28 163.18 130.18 C 163.38 131.08 164.26 131.66 165.16 131.47 Z M 166.13 131.26 L 167.13 131.05 C 168.03 130.87 168.61 129.99 168.42 129.08 C 168.24 128.18 167.36 127.60 166.46 127.79 L 165.46 127.99 C 164.56 128.18 163.97 129.06 164.16 129.96 C 164.35 130.86 165.23 131.44 166.13 131.26 Z M 167.12 131.05 L 168.11 130.86 C 169.01 130.68 169.60 129.80 169.42 128.90 C 169.24 128.00 168.36 127.41 167.46 127.59 L 166.47 127.79 C 165.56 127.97 164.98 128.84 165.16 129.74 C 165.34 130.65 166.21 131.23 167.12 131.05 Z M 168.10 130.86 L 169.08 130.67 C 169.98 130.49 170.57 129.62 170.40 128.72 C 170.23 127.82 169.36 127.23 168.45 127.40 L 167.47 127.59 C 166.57 127.76 165.98 128.63 166.15 129.54 C 166.32 130.44 167.19 131.03 168.10 130.86 Z M 169.07 130.67 L 170.04 130.49 C 170.95 130.32 171.54 129.45 171.38 128.55 C 171.21 127.65 170.34 127.05 169.44 127.22 L 168.47 127.40 C 167.56 127.57 166.97 128.43 167.13 129.34 C 167.30 130.24 168.17 130.83 169.07 130.67 Z M 170.03 130.49 L 171.00 130.31 C 171.90 130.15 172.50 129.29 172.34 128.39 C 172.18 127.49 171.32 126.89 170.42 127.05 L 169.45 127.22 C 168.55 127.38 167.95 128.24 168.11 129.14 C 168.27 130.05 169.13 130.65 170.03 130.49 Z M 170.99 130.31 L 171.99 130.14 C 172.90 129.99 173.50 129.13 173.35 128.23 C 173.19 127.33 172.34 126.72 171.43 126.88 L 170.43 127.05 C 169.52 127.20 168.92 128.06 169.07 128.96 C 169.23 129.86 170.09 130.47 170.99 130.31 Z M 171.98 130.14 L 173.00 129.97 C 173.91 129.82 174.52 128.97 174.37 128.07 C 174.22 127.17 173.37 126.56 172.46 126.71 L 171.44 126.88 C 170.54 127.03 169.93 127.88 170.08 128.78 C 170.23 129.68 171.08 130.29 171.98 130.14 Z M 173.00 129.97 L 174.00 129.81 C 174.90 129.67 175.51 128.82 175.36 127.92 C 175.22 127.02 174.37 126.40 173.47 126.55 L 172.47 126.71 C 171.57 126.85 170.96 127.70 171.10 128.60 C 171.25 129.50 172.09 130.11 173.00 129.97 Z M 173.99 129.81 L 174.97 129.66 C 175.87 129.51 176.48 128.67 176.34 127.77 C 176.20 126.87 175.35 126.26 174.46 126.40 L 173.48 126.55 C 172.58 126.69 171.96 127.53 172.10 128.43 C 172.25 129.33 173.09 129.95 173.99 129.81 Z M 174.96 129.65 L 175.91 129.51 C 176.81 129.37 177.43 128.53 177.29 127.63 C 177.15 126.73 176.31 126.11 175.41 126.25 L 174.46 126.40 C 173.56 126.54 172.95 127.38 173.08 128.28 C 173.22 129.18 174.06 129.79 174.96 129.65 Z M 175.91 129.50 L 176.85 129.36 C 177.74 129.22 178.36 128.39 178.22 127.49 C 178.09 126.59 177.25 125.98 176.35 126.11 L 175.41 126.26 C 174.52 126.39 173.90 127.23 174.04 128.13 C 174.17 129.02 175.01 129.64 175.91 129.50 Z M 176.84 129.36 L 177.78 129.22 C 178.67 129.08 179.29 128.25 179.15 127.35 C 179.02 126.46 178.18 125.84 177.29 125.98 L 176.35 126.12 C 175.46 126.25 174.84 127.09 174.98 127.98 C 175.11 128.88 175.95 129.49 176.84 129.36 Z M 177.77 129.21 L 178.72 129.07 C 179.61 128.94 180.23 128.11 180.10 127.22 C 179.96 126.33 179.13 125.71 178.24 125.84 L 177.30 125.98 C 176.40 126.11 175.78 126.94 175.92 127.83 C 176.05 128.73 176.88 129.34 177.77 129.21 Z M 178.71 129.07 L 179.69 128.93 C 180.58 128.81 181.20 127.98 181.08 127.09 C 180.95 126.20 180.13 125.58 179.24 125.70 L 178.25 125.84 C 177.36 125.97 176.74 126.79 176.86 127.68 C 176.99 128.58 177.81 129.20 178.71 129.07 Z M 179.68 128.93 L 180.73 128.79 C 181.62 128.67 182.25 127.85 182.13 126.96 C 182.01 126.07 181.19 125.45 180.30 125.57 L 179.25 125.71 C 178.36 125.83 177.73 126.64 177.85 127.53 C 177.97 128.42 178.79 129.05 179.68 128.93 Z M 180.72 128.78 L 181.76 128.65 C 182.65 128.54 183.28 127.73 183.16 126.84 C 183.05 125.95 182.24 125.32 181.35 125.44 L 180.31 125.57 C 179.42 125.68 178.80 126.49 178.91 127.38 C 179.02 128.27 179.83 128.90 180.72 128.78 Z M 181.75 128.65 L 182.75 128.53 C 183.64 128.42 184.27 127.62 184.16 126.73 C 184.05 125.84 183.25 125.21 182.36 125.32 L 181.36 125.44 C 180.48 125.55 179.84 126.35 179.95 127.24 C 180.06 128.13 180.86 128.76 181.75 128.65 Z M 182.74 128.53 L 183.77 128.41 C 184.66 128.31 185.29 127.51 185.19 126.62 C 185.09 125.74 184.29 125.10 183.40 125.20 L 182.37 125.32 C 181.48 125.42 180.85 126.22 180.95 127.11 C 181.05 127.99 181.85 128.63 182.74 128.53 Z M 183.76 128.41 L 184.80 128.29 C 185.68 128.20 186.32 127.40 186.22 126.52 C 186.13 125.63 185.33 124.99 184.45 125.09 L 183.41 125.20 C 182.53 125.30 181.89 126.10 181.99 126.98 C 182.08 127.87 182.88 128.50 183.76 128.41 Z M 184.79 128.29 L 185.80 128.19 C 186.69 128.09 187.33 127.30 187.24 126.42 C 187.14 125.54 186.35 124.90 185.47 124.99 L 184.46 125.09 C 183.57 125.18 182.93 125.97 183.02 126.86 C 183.12 127.74 183.91 128.38 184.79 128.29 Z M 185.79 128.18 L 186.76 128.09 C 187.64 128.00 188.28 127.22 188.20 126.34 C 188.11 125.46 187.33 124.81 186.45 124.90 L 185.48 124.99 C 184.60 125.08 183.96 125.86 184.04 126.74 C 184.13 127.62 184.91 128.27 185.79 128.18 Z M 186.74 128.09 L 187.77 128.00 C 188.65 127.92 189.30 127.15 189.23 126.27 C 189.15 125.39 188.37 124.73 187.49 124.81 L 186.46 124.90 C 185.58 124.98 184.93 125.75 185.01 126.63 C 185.09 127.51 185.86 128.16 186.74 128.09 Z M 187.75 127.99 L 188.87 127.91 C 189.75 127.84 190.41 127.08 190.34 126.21 C 190.28 125.33 189.52 124.67 188.64 124.74 L 187.52 124.82 C 186.64 124.88 185.99 125.64 186.05 126.52 C 186.11 127.39 186.87 128.05 187.75 127.99 Z M 188.85 127.89 L 189.84 127.84 C 190.70 127.79 191.37 127.04 191.32 126.18 C 191.27 125.31 190.52 124.64 189.66 124.69 L 188.67 124.75 C 187.80 124.80 187.14 125.54 187.19 126.41 C 187.24 127.28 187.98 127.94 188.85 127.89 Z M 189.81 127.83 L 190.71 127.79 C 191.58 127.75 192.24 127.02 192.20 126.16 C 192.17 125.30 191.44 124.63 190.58 124.67 L 189.68 124.71 C 188.82 124.74 188.15 125.47 188.19 126.33 C 188.22 127.20 188.95 127.86 189.81 127.83 Z M 190.70 127.77 L 191.39 127.75 C 192.25 127.72 192.92 127.00 192.88 126.14 C 192.85 125.29 192.13 124.62 191.28 124.65 L 190.59 124.68 C 189.73 124.71 189.06 125.43 189.10 126.28 C 189.13 127.14 189.85 127.81 190.70 127.77 Z"
      fill="black"
      fill-rule="nonzero" /><path d="M 149.54 115.32 L 149.81 116.39 C 150.00 117.19 150.82 117.67 151.62 117.47 C 152.42 117.27 152.90 116.46 152.70 115.66 L 152.43 114.59 C 152.24 113.79 151.42 113.31 150.62 113.51 C 149.82 113.71 149.34 114.52 149.54 115.32 Z M 149.78 116.39 L 150.04 117.45 C 150.25 118.26 151.07 118.76 151.88 118.55 C 152.70 118.35 153.19 117.53 152.99 116.72 L 152.73 115.66 C 152.52 114.85 151.70 114.35 150.89 114.55 C 150.07 114.75 149.58 115.58 149.78 116.39 Z M 150.02 117.45 L 150.27 118.48 C 150.48 119.31 151.31 119.81 152.14 119.61 C 152.97 119.41 153.47 118.57 153.27 117.75 L 153.01 116.71 C 152.81 115.89 151.97 115.38 151.15 115.58 C 150.32 115.79 149.82 116.62 150.02 117.45 Z M 150.25 118.48 L 150.49 119.48 C 150.69 120.32 151.54 120.83 152.38 120.63 C 153.22 120.43 153.74 119.58 153.53 118.74 L 153.29 117.75 C 153.09 116.90 152.24 116.39 151.40 116.59 C 150.56 116.79 150.04 117.64 150.25 118.48 Z M 150.46 119.47 L 150.69 120.42 C 150.89 121.27 151.74 121.80 152.60 121.60 C 153.45 121.40 153.98 120.54 153.78 119.69 L 153.56 118.74 C 153.36 117.89 152.50 117.36 151.65 117.56 C 150.79 117.76 150.26 118.62 150.46 119.47 Z M 150.66 120.41 L 150.86 121.30 C 151.06 122.16 151.92 122.71 152.79 122.51 C 153.66 122.31 154.21 121.45 154.01 120.58 L 153.81 119.69 C 153.61 118.83 152.75 118.28 151.88 118.48 C 151.01 118.68 150.46 119.54 150.66 120.41 Z M 150.83 121.28 L 151.02 122.13 C 151.21 123.02 152.08 123.58 152.96 123.39 C 153.85 123.20 154.41 122.33 154.22 121.44 L 154.04 120.59 C 153.85 119.71 152.97 119.14 152.09 119.33 C 151.21 119.53 150.64 120.40 150.83 121.28 Z M 151.00 122.10 L 151.22 123.27 C 151.39 124.16 152.26 124.75 153.16 124.58 C 154.05 124.40 154.64 123.54 154.47 122.64 L 154.24 121.48 C 154.07 120.58 153.20 119.99 152.31 120.17 C 151.41 120.34 150.82 121.21 151.00 122.10 Z M 151.21 123.21 L 151.37 124.22 C 151.51 125.12 152.36 125.73 153.26 125.59 C 154.17 125.45 154.78 124.60 154.64 123.70 L 154.48 122.70 C 154.34 121.79 153.49 121.18 152.58 121.32 C 151.68 121.46 151.06 122.31 151.21 123.21 Z M 151.35 124.16 L 151.46 125.06 C 151.57 125.97 152.40 126.62 153.31 126.51 C 154.22 126.40 154.87 125.57 154.76 124.66 L 154.65 123.76 C 154.54 122.85 153.71 122.20 152.80 122.31 C 151.89 122.42 151.24 123.24 151.35 124.16 Z M 151.45 125.00 L 151.53 125.87 C 151.61 126.79 152.42 127.46 153.33 127.38 C 154.25 127.30 154.93 126.50 154.85 125.58 L 154.77 124.71 C 154.69 123.80 153.88 123.12 152.97 123.20 C 152.05 123.28 151.37 124.09 151.45 125.00 Z M 151.52 125.83 L 151.58 126.77 C 151.64 127.69 152.43 128.39 153.35 128.33 C 154.27 128.27 154.97 127.48 154.91 126.56 L 154.85 125.62 C 154.79 124.70 154.00 124.00 153.08 124.06 C 152.16 124.12 151.46 124.91 151.52 125.83 Z M 151.58 126.74 L 151.62 127.72 C 151.66 128.64 152.45 129.35 153.37 129.31 C 154.29 129.27 155.00 128.49 154.96 127.57 L 154.92 126.59 C 154.87 125.66 154.09 124.95 153.17 124.99 C 152.25 125.04 151.54 125.82 151.58 126.74 Z M 151.62 127.69 L 151.65 128.71 C 151.68 129.64 152.45 130.36 153.38 130.33 C 154.30 130.30 155.03 129.53 155.00 128.61 L 154.97 127.59 C 154.94 126.66 154.16 125.94 153.24 125.97 C 152.31 126.00 151.59 126.77 151.62 127.69 Z M 151.65 128.69 L 151.67 129.75 C 151.69 130.67 152.45 131.41 153.38 131.39 C 154.31 131.37 155.04 130.61 155.02 129.68 L 155.00 128.63 C 154.98 127.70 154.22 126.96 153.29 126.98 C 152.36 127.00 151.63 127.77 151.65 128.69 Z M 151.67 129.73 L 151.68 130.69 C 151.69 131.62 152.45 132.36 153.38 132.35 C 154.31 132.34 155.05 131.58 155.04 130.65 L 155.03 129.69 C 155.01 128.77 154.25 128.02 153.32 128.03 C 152.40 128.05 151.65 128.81 151.67 129.73 Z M 151.68 130.68 L 151.68 131.66 C 151.69 132.59 152.45 133.34 153.38 133.33 C 154.30 133.32 155.05 132.57 155.05 131.64 L 155.04 130.66 C 155.03 129.73 154.27 128.98 153.35 128.99 C 152.42 128.99 151.67 129.75 151.68 130.68 Z M 151.68 131.65 L 151.68 132.66 C 151.69 133.59 152.44 134.34 153.37 134.34 C 154.30 134.34 155.05 133.58 155.05 132.65 L 155.05 131.64 C 155.04 130.71 154.29 129.96 153.36 129.97 C 152.43 129.97 151.68 130.73 151.68 131.65 Z M 151.68 132.66 L 151.68 133.69 C 151.68 134.62 152.44 135.37 153.37 135.37 C 154.30 135.37 155.05 134.62 155.05 133.69 L 155.05 132.65 C 155.05 131.72 154.30 130.97 153.37 130.97 C 152.44 130.97 151.68 131.73 151.68 132.66 Z M 151.68 133.69 L 151.68 134.69 C 151.68 135.62 152.44 136.37 153.37 136.37 C 154.30 136.37 155.05 135.62 155.05 134.69 L 155.05 133.69 C 155.05 132.76 154.30 132.00 153.37 132.00 C 152.44 132.00 151.68 132.76 151.68 133.69 Z M 151.68 134.68 L 151.68 135.64 C 151.68 136.57 152.43 137.33 153.36 137.33 C 154.29 137.34 155.05 136.58 155.05 135.65 L 155.05 134.69 C 155.06 133.76 154.30 133.00 153.37 133.00 C 152.44 133.00 151.68 133.75 151.68 134.68 Z M 151.68 135.63 L 151.67 136.61 C 151.65 137.54 152.40 138.31 153.33 138.32 C 154.26 138.33 155.03 137.58 155.04 136.65 L 155.05 135.67 C 155.06 134.74 154.32 133.97 153.39 133.96 C 152.45 133.95 151.69 134.69 151.68 135.63 Z M 151.67 136.58 L 151.64 137.59 C 151.61 138.53 152.35 139.30 153.28 139.33 C 154.21 139.35 154.99 138.62 155.01 137.69 L 155.04 136.68 C 155.06 135.74 154.33 134.97 153.40 134.94 C 152.47 134.92 151.69 135.65 151.67 136.58 Z M 151.64 137.56 L 151.59 138.60 C 151.55 139.53 152.27 140.32 153.20 140.36 C 154.13 140.41 154.92 139.69 154.96 138.76 L 155.01 137.72 C 155.05 136.79 154.33 136.00 153.40 135.95 C 152.47 135.91 151.68 136.63 151.64 137.56 Z M 151.59 138.56 L 151.52 139.58 C 151.46 140.51 152.16 141.31 153.09 141.38 C 154.02 141.44 154.82 140.74 154.89 139.81 L 154.96 138.79 C 155.03 137.87 154.32 137.06 153.39 136.99 C 152.46 136.93 151.66 137.63 151.59 138.56 Z M 151.52 139.54 L 151.43 140.51 C 151.34 141.44 152.02 142.26 152.95 142.35 C 153.88 142.44 154.70 141.76 154.79 140.83 L 154.88 139.85 C 154.97 138.93 154.29 138.10 153.36 138.01 C 152.44 137.93 151.61 138.61 151.52 139.54 Z M 151.44 140.47 L 151.32 141.46 C 151.21 142.39 151.87 143.22 152.80 143.33 C 153.72 143.44 154.56 142.78 154.67 141.86 L 154.79 140.87 C 154.90 139.94 154.24 139.10 153.31 138.99 C 152.38 138.88 151.55 139.55 151.44 140.47 Z M 151.33 141.42 L 151.18 142.42 C 151.05 143.34 151.69 144.20 152.62 144.33 C 153.54 144.46 154.39 143.82 154.52 142.89 L 154.67 141.89 C 154.80 140.97 154.15 140.12 153.23 139.99 C 152.31 139.86 151.46 140.50 151.33 141.42 Z M 151.19 142.38 L 151.02 143.38 C 150.87 144.30 151.49 145.17 152.41 145.32 C 153.33 145.47 154.20 144.85 154.35 143.93 L 154.52 142.93 C 154.67 142.01 154.05 141.15 153.13 140.99 C 152.21 140.84 151.34 141.46 151.19 142.38 Z M 151.03 143.34 L 150.84 144.34 C 150.67 145.25 151.27 146.13 152.18 146.31 C 153.09 146.48 153.98 145.88 154.15 144.97 L 154.34 143.97 C 154.52 143.06 153.92 142.18 153.00 142.00 C 152.09 141.83 151.21 142.43 151.03 143.34 Z M 150.85 144.30 L 150.64 145.27 C 150.44 146.18 151.02 147.08 151.92 147.28 C 152.83 147.48 153.73 146.90 153.93 145.99 L 154.14 145.01 C 154.34 144.10 153.76 143.21 152.86 143.01 C 151.95 142.81 151.05 143.39 150.85 144.30 Z M 150.65 145.23 L 150.41 146.20 C 150.19 147.11 150.75 148.02 151.65 148.24 C 152.55 148.46 153.46 147.90 153.68 147.00 L 153.92 146.03 C 154.14 145.13 153.59 144.22 152.68 144.00 C 151.78 143.78 150.87 144.33 150.65 145.23 Z M 150.42 146.17 L 150.17 147.13 C 149.93 148.03 150.46 148.95 151.36 149.19 C 152.26 149.43 153.18 148.89 153.42 147.99 L 153.67 147.03 C 153.91 146.13 153.38 145.21 152.48 144.97 C 151.58 144.74 150.66 145.27 150.42 146.17 Z M 150.18 147.10 L 149.90 148.06 C 149.65 148.95 150.16 149.88 151.06 150.14 C 151.95 150.39 152.88 149.87 153.14 148.98 L 153.41 148.02 C 153.66 147.13 153.15 146.20 152.25 145.94 C 151.36 145.69 150.43 146.21 150.18 147.10 Z M 149.91 148.03 L 149.62 148.99 C 149.35 149.88 149.85 150.82 150.74 151.09 C 151.63 151.36 152.57 150.85 152.84 149.97 L 153.13 149.01 C 153.40 148.12 152.89 147.18 152.01 146.91 C 151.12 146.64 150.18 147.15 149.91 148.03 Z M 149.63 148.97 L 149.32 149.94 C 149.04 150.82 149.53 151.77 150.42 152.04 C 151.30 152.32 152.25 151.83 152.52 150.95 L 152.83 149.99 C 153.11 149.10 152.62 148.16 151.73 147.88 C 150.85 147.60 149.91 148.09 149.63 148.97 Z M 149.33 149.92 L 149.03 150.85 C 148.74 151.73 149.22 152.68 150.10 152.96 C 150.98 153.25 151.93 152.77 152.22 151.89 L 152.52 150.96 C 152.81 150.08 152.32 149.14 151.44 148.85 C 150.56 148.56 149.62 149.04 149.33 149.92 Z M 149.03 150.84 L 148.72 151.77 C 148.42 152.65 148.90 153.60 149.77 153.89 C 150.65 154.19 151.60 153.71 151.89 152.84 L 152.21 151.91 C 152.50 151.03 152.03 150.08 151.16 149.78 C 150.28 149.49 149.33 149.96 149.03 150.84 Z M 148.73 151.75 L 148.40 152.69 C 148.10 153.56 148.56 154.52 149.43 154.82 C 150.30 155.13 151.25 154.67 151.56 153.79 L 151.88 152.85 C 152.19 151.98 151.73 151.03 150.86 150.73 C 149.99 150.42 149.03 150.88 148.73 151.75 Z M 148.41 152.67 L 148.07 153.62 C 147.75 154.49 148.20 155.44 149.07 155.76 C 149.93 156.07 150.89 155.62 151.21 154.76 L 151.55 153.81 C 151.86 152.94 151.41 151.99 150.55 151.67 C 149.68 151.36 148.72 151.81 148.41 152.67 Z M 148.08 153.60 L 147.72 154.55 C 147.40 155.41 147.83 156.37 148.69 156.70 C 149.55 157.02 150.51 156.59 150.84 155.72 L 151.20 154.78 C 151.52 153.91 151.09 152.95 150.22 152.63 C 149.36 152.30 148.40 152.74 148.08 153.60 Z M 147.73 154.53 L 147.36 155.48 C 147.02 156.34 147.44 157.30 148.29 157.64 C 149.15 157.97 150.11 157.55 150.45 156.70 L 150.83 155.75 C 151.16 154.89 150.74 153.93 149.89 153.59 C 149.03 153.25 148.07 153.67 147.73 154.53 Z M 147.37 155.46 L 147.00 156.37 C 146.65 157.21 147.06 158.18 147.90 158.53 C 148.75 158.88 149.72 158.47 150.07 157.62 L 150.44 156.72 C 150.79 155.87 150.38 154.90 149.53 154.56 C 148.68 154.21 147.72 154.61 147.37 155.46 Z M 147.01 156.35 L 146.62 157.25 C 146.27 158.09 146.66 159.07 147.50 159.42 C 148.34 159.78 149.31 159.39 149.67 158.55 L 150.06 157.64 C 150.41 156.80 150.02 155.83 149.18 155.47 C 148.34 155.11 147.37 155.51 147.01 156.35 Z M 146.64 157.24 L 146.24 158.14 C 145.87 158.98 146.25 159.95 147.08 160.32 C 147.91 160.69 148.89 160.31 149.26 159.48 L 149.66 158.57 C 150.02 157.73 149.65 156.76 148.81 156.39 C 147.98 156.02 147.00 156.40 146.64 157.24 Z M 146.25 158.13 L 145.83 159.04 C 145.46 159.87 145.82 160.84 146.65 161.22 C 147.48 161.60 148.45 161.23 148.83 160.41 L 149.24 159.49 C 149.62 158.67 149.26 157.69 148.43 157.31 C 147.60 156.94 146.62 157.30 146.25 158.13 Z M 145.84 159.02 L 145.41 159.94 C 145.03 160.76 145.38 161.74 146.20 162.12 C 147.02 162.51 148.00 162.16 148.39 161.34 L 148.82 160.42 C 149.20 159.60 148.85 158.62 148.03 158.24 C 147.21 157.85 146.23 158.20 145.84 159.02 Z M 145.43 159.93 L 144.98 160.85 C 144.59 161.66 144.93 162.64 145.74 163.03 C 146.56 163.42 147.54 163.08 147.93 162.27 L 148.38 161.35 C 148.77 160.54 148.43 159.56 147.61 159.16 C 146.80 158.77 145.82 159.11 145.43 159.93 Z M 144.99 160.83 L 144.55 161.73 C 144.15 162.54 144.48 163.52 145.29 163.92 C 146.10 164.32 147.08 163.99 147.48 163.18 L 147.92 162.28 C 148.32 161.47 147.99 160.49 147.18 160.09 C 146.37 159.69 145.39 160.02 144.99 160.83 Z M 144.56 161.72 L 144.11 162.60 C 143.71 163.40 144.03 164.38 144.83 164.79 C 145.63 165.19 146.61 164.87 147.02 164.07 L 147.46 163.19 C 147.87 162.39 147.55 161.41 146.75 161.00 C 145.95 160.60 144.97 160.92 144.56 161.72 Z M 144.13 162.59 L 143.67 163.47 C 143.25 164.27 143.56 165.25 144.36 165.66 C 145.16 166.07 146.14 165.76 146.55 164.97 L 147.01 164.08 C 147.42 163.29 147.11 162.31 146.31 161.90 C 145.52 161.48 144.54 161.79 144.13 162.59 Z M 143.68 163.46 L 143.21 164.34 C 142.79 165.13 143.09 166.11 143.88 166.53 C 144.67 166.95 145.65 166.65 146.07 165.86 L 146.54 164.98 C 146.95 164.19 146.65 163.21 145.87 162.79 C 145.08 162.37 144.10 162.67 143.68 163.46 Z M 143.22 164.33 L 142.74 165.22 C 142.32 166.00 142.61 166.98 143.39 167.40 C 144.17 167.83 145.15 167.54 145.58 166.75 L 146.06 165.87 C 146.48 165.09 146.19 164.11 145.41 163.68 C 144.62 163.26 143.65 163.55 143.22 164.33 Z M 142.75 165.21 L 142.27 166.09 C 141.84 166.87 142.12 167.84 142.89 168.27 C 143.67 168.70 144.65 168.42 145.08 167.65 L 145.57 166.76 C 146.00 165.99 145.71 165.01 144.94 164.58 C 144.16 164.15 143.18 164.43 142.75 165.21 Z M 142.28 166.08 L 141.78 166.96 C 141.34 167.73 141.61 168.71 142.38 169.14 C 143.15 169.58 144.13 169.31 144.57 168.54 L 145.07 167.66 C 145.50 166.89 145.23 165.91 144.46 165.47 C 143.69 165.04 142.71 165.31 142.28 166.08 Z M 141.79 166.95 L 141.30 167.80 C 140.86 168.56 141.12 169.54 141.88 169.98 C 142.65 170.42 143.62 170.16 144.06 169.40 L 144.56 168.55 C 145.00 167.78 144.73 166.81 143.97 166.37 C 143.21 165.93 142.23 166.19 141.79 166.95 Z M 141.31 167.79 L 140.81 168.64 C 140.37 169.39 140.62 170.37 141.38 170.82 C 142.13 171.26 143.11 171.01 143.56 170.25 L 144.05 169.41 C 144.50 168.65 144.25 167.67 143.49 167.23 C 142.73 166.78 141.76 167.03 141.31 167.79 Z M 140.82 168.63 L 140.32 169.48 C 139.87 170.23 140.11 171.20 140.86 171.65 C 141.61 172.10 142.59 171.86 143.04 171.11 L 143.54 170.26 C 143.99 169.51 143.75 168.53 143.00 168.08 C 142.25 167.63 141.28 167.88 140.82 168.63 Z M 140.33 169.47 L 139.81 170.32 C 139.36 171.06 139.59 172.03 140.34 172.49 C 141.08 172.94 142.05 172.71 142.51 171.96 L 143.03 171.11 C 143.48 170.37 143.24 169.40 142.50 168.94 C 141.75 168.49 140.78 168.72 140.33 169.47 Z M 139.82 170.31 L 139.29 171.17 C 138.83 171.90 139.06 172.87 139.80 173.33 C 140.54 173.79 141.51 173.56 141.97 172.82 L 142.50 171.97 C 142.95 171.23 142.73 170.26 141.99 169.80 C 141.25 169.34 140.28 169.57 139.82 170.31 Z M 139.30 171.16 L 138.76 172.02 C 138.30 172.75 138.52 173.72 139.25 174.18 C 139.99 174.64 140.96 174.42 141.42 173.69 L 141.96 172.83 C 142.42 172.10 142.20 171.13 141.46 170.67 C 140.73 170.21 139.76 170.43 139.30 171.16 Z M 138.77 172.02 L 138.22 172.89 C 137.75 173.61 137.97 174.58 138.69 175.04 C 139.42 175.51 140.39 175.29 140.85 174.57 L 141.41 173.70 C 141.87 172.97 141.66 172.00 140.93 171.54 C 140.20 171.07 139.23 171.29 138.77 172.02 Z M 138.22 172.88 L 137.68 173.73 C 137.22 174.45 137.42 175.41 138.15 175.88 C 138.87 176.34 139.83 176.14 140.30 175.41 L 140.84 174.57 C 141.31 173.85 141.10 172.88 140.38 172.42 C 139.66 171.95 138.69 172.16 138.22 172.88 Z M 137.69 173.72 L 137.14 174.57 C 136.67 175.28 136.87 176.25 137.59 176.72 C 138.31 177.19 139.27 176.98 139.74 176.26 L 140.29 175.42 C 140.76 174.70 140.56 173.74 139.84 173.27 C 139.12 172.80 138.16 173.00 137.69 173.72 Z M 137.15 174.56 L 136.59 175.40 C 136.11 176.12 136.31 177.08 137.02 177.55 C 137.74 178.03 138.70 177.83 139.17 177.12 L 139.73 176.27 C 140.21 175.56 140.01 174.59 139.30 174.12 C 138.58 173.65 137.62 173.84 137.15 174.56 Z M 136.59 175.40 L 136.03 176.24 C 135.55 176.95 135.74 177.91 136.45 178.39 C 137.16 178.86 138.12 178.67 138.60 177.96 L 139.16 177.12 C 139.64 176.42 139.45 175.45 138.74 174.98 C 138.03 174.50 137.07 174.69 136.59 175.40 Z M 136.04 176.23 L 135.47 177.06 C 134.99 177.76 135.17 178.72 135.87 179.21 C 136.58 179.69 137.54 179.51 138.02 178.80 L 138.59 177.97 C 139.07 177.27 138.89 176.31 138.19 175.83 C 137.48 175.34 136.52 175.52 136.04 176.23 Z M 135.48 177.05 L 134.91 177.86 C 134.43 178.56 134.60 179.52 135.29 180.01 C 135.99 180.50 136.95 180.33 137.44 179.63 L 138.01 178.81 C 138.50 178.12 138.33 177.15 137.63 176.67 C 136.93 176.18 135.97 176.35 135.48 177.05 Z M 134.92 177.85 L 134.36 178.65 C 133.86 179.34 134.02 180.30 134.72 180.79 C 135.41 181.29 136.37 181.13 136.86 180.43 L 137.43 179.64 C 137.92 178.95 137.76 177.99 137.07 177.49 C 136.38 177.00 135.42 177.16 134.92 177.85 Z M 134.37 178.63 L 133.77 179.46 C 133.27 180.14 133.41 181.10 134.10 181.60 C 134.78 182.10 135.74 181.96 136.24 181.27 L 136.85 180.45 C 137.35 179.76 137.20 178.80 136.52 178.30 C 135.83 177.80 134.87 177.95 134.37 178.63 Z M 133.78 179.44 L 133.16 180.26 C 132.65 180.94 132.79 181.90 133.46 182.41 C 134.14 182.92 135.10 182.79 135.61 182.11 L 136.23 181.29 C 136.74 180.61 136.60 179.65 135.93 179.14 C 135.25 178.63 134.29 178.77 133.78 179.44 Z M 133.18 180.25 L 132.56 181.05 C 132.04 181.71 132.16 182.67 132.83 183.19 C 133.49 183.71 134.45 183.59 134.97 182.92 L 135.59 182.13 C 136.11 181.46 135.99 180.50 135.32 179.98 C 134.65 179.46 133.69 179.58 133.18 180.25 Z M 132.57 181.03 L 131.95 181.81 C 131.43 182.47 131.54 183.43 132.19 183.95 C 132.85 184.48 133.81 184.37 134.34 183.71 L 134.96 182.94 C 135.48 182.28 135.37 181.32 134.72 180.79 C 134.06 180.27 133.10 180.37 132.57 181.03 Z M 131.97 181.79 L 131.35 182.55 C 130.81 183.20 130.91 184.16 131.56 184.70 C 132.21 185.23 133.17 185.13 133.70 184.48 L 134.32 183.72 C 134.86 183.07 134.76 182.11 134.11 181.58 C 133.46 181.05 132.50 181.14 131.97 181.79 Z M 131.36 182.54 L 130.73 183.29 C 130.19 183.93 130.28 184.89 130.92 185.43 C 131.56 185.97 132.52 185.88 133.06 185.24 L 133.69 184.49 C 134.23 183.85 134.14 182.89 133.50 182.35 C 132.86 181.81 131.90 181.90 131.36 182.54 Z M 130.75 183.28 L 130.11 184.02 C 129.57 184.66 129.64 185.61 130.28 186.16 C 130.91 186.70 131.87 186.63 132.41 185.99 L 133.05 185.25 C 133.59 184.62 133.52 183.66 132.88 183.11 C 132.25 182.57 131.29 182.64 130.75 183.28 Z M 130.12 184.01 L 129.46 184.76 C 128.91 185.39 128.98 186.35 129.61 186.90 C 130.24 187.45 131.20 187.38 131.75 186.75 L 132.40 186.00 C 132.95 185.37 132.89 184.42 132.26 183.87 C 131.63 183.32 130.67 183.38 130.12 184.01 Z M 129.47 184.75 L 128.81 185.50 C 128.26 186.13 128.31 187.08 128.94 187.64 C 129.56 188.19 130.52 188.14 131.07 187.51 L 131.74 186.76 C 132.29 186.14 132.23 185.18 131.61 184.63 C 130.99 184.07 130.03 184.13 129.47 184.75 Z M 128.82 185.50 L 128.15 186.24 C 127.59 186.86 127.64 187.81 128.26 188.37 C 128.88 188.93 129.83 188.88 130.39 188.26 L 131.06 187.52 C 131.62 186.90 131.57 185.94 130.95 185.39 C 130.33 184.83 129.38 184.88 128.82 185.50 Z M 128.16 186.23 L 127.48 186.97 C 126.92 187.59 126.96 188.54 127.58 189.10 C 128.19 189.67 129.14 189.62 129.71 189.01 L 130.38 188.27 C 130.94 187.65 130.90 186.70 130.29 186.14 C 129.67 185.58 128.72 185.62 128.16 186.23 Z M 127.49 186.97 L 126.81 187.70 C 126.24 188.31 126.28 189.27 126.89 189.83 C 127.50 190.40 128.45 190.36 129.02 189.75 L 129.70 189.01 C 130.26 188.40 130.23 187.45 129.62 186.89 C 129.01 186.32 128.05 186.36 127.49 186.97 Z M 126.82 187.70 L 126.13 188.43 C 125.57 189.03 125.60 189.98 126.20 190.55 C 126.81 191.12 127.76 191.09 128.33 190.48 L 129.01 189.75 C 129.58 189.15 129.55 188.19 128.94 187.63 C 128.34 187.06 127.38 187.09 126.82 187.70 Z M 126.14 188.42 L 125.45 189.15 C 124.88 189.75 124.91 190.70 125.51 191.27 C 126.11 191.84 127.07 191.82 127.64 191.21 L 128.32 190.49 C 128.89 189.88 128.87 188.93 128.26 188.36 C 127.66 187.79 126.71 187.82 126.14 188.42 Z M 125.46 189.15 L 124.77 189.87 C 124.19 190.47 124.22 191.42 124.82 191.99 C 125.42 192.57 126.37 192.54 126.94 191.94 L 127.63 191.22 C 128.20 190.62 128.18 189.67 127.58 189.10 C 126.98 188.52 126.03 188.55 125.46 189.15 Z M 124.77 189.87 L 124.08 190.59 C 123.50 191.19 123.52 192.14 124.12 192.71 C 124.72 193.28 125.67 193.26 126.24 192.67 L 126.93 191.95 C 127.51 191.35 127.49 190.40 126.89 189.83 C 126.29 189.25 125.34 189.27 124.77 189.87 Z M 124.08 190.59 L 123.39 191.31 C 122.81 191.90 122.83 192.85 123.42 193.42 C 124.02 194.00 124.97 193.98 125.54 193.39 L 126.24 192.67 C 126.81 192.08 126.79 191.13 126.20 190.55 C 125.61 189.98 124.66 189.99 124.08 190.59 Z M 123.39 191.30 L 122.70 192.02 C 122.12 192.61 122.13 193.56 122.73 194.13 C 123.32 194.71 124.26 194.70 124.84 194.10 L 125.54 193.39 C 126.11 192.80 126.10 191.85 125.51 191.28 C 124.92 190.70 123.97 190.71 123.39 191.30 Z M 122.70 192.02 L 122.00 192.73 C 121.43 193.32 121.44 194.26 122.03 194.84 C 122.61 195.42 123.56 195.41 124.14 194.82 L 124.84 194.11 C 125.41 193.52 125.40 192.57 124.81 191.99 C 124.23 191.42 123.28 191.43 122.70 192.02 Z M 122.01 192.73 L 121.31 193.44 C 120.73 194.03 120.74 194.97 121.32 195.55 C 121.91 196.13 122.86 196.12 123.43 195.53 L 124.13 194.82 C 124.71 194.23 124.71 193.29 124.12 192.71 C 123.53 192.13 122.59 192.14 122.01 192.73 Z M 121.31 193.44 L 120.61 194.14 C 120.03 194.73 120.03 195.68 120.62 196.26 C 121.21 196.83 122.15 196.83 122.73 196.24 L 123.43 195.53 C 124.01 194.95 124.01 194.00 123.42 193.42 C 122.83 192.84 121.89 192.85 121.31 193.44 Z M 120.61 194.14 L 119.91 194.85 C 119.33 195.44 119.33 196.38 119.91 196.96 C 120.50 197.54 121.44 197.54 122.03 196.95 L 122.73 196.25 C 123.31 195.66 123.31 194.72 122.72 194.13 C 122.14 193.55 121.19 193.56 120.61 194.14 Z M 119.91 194.85 L 119.20 195.56 C 118.62 196.14 118.62 197.09 119.21 197.67 C 119.79 198.25 120.74 198.25 121.32 197.67 L 122.02 196.96 C 122.61 196.37 122.60 195.43 122.02 194.84 C 121.44 194.26 120.49 194.26 119.91 194.85 Z M 119.20 195.56 L 118.49 196.26 C 117.91 196.85 117.91 197.80 118.50 198.38 C 119.08 198.96 120.03 198.96 120.61 198.38 L 121.32 197.67 C 121.90 197.08 121.90 196.14 121.32 195.55 C 120.73 194.97 119.78 194.97 119.20 195.56 Z M 118.49 196.26 L 117.79 196.97 C 117.20 197.56 117.20 198.50 117.79 199.09 C 118.37 199.67 119.32 199.67 119.90 199.09 L 120.61 198.38 C 121.19 197.79 121.19 196.85 120.61 196.26 C 120.03 195.68 119.08 195.68 118.49 196.26 Z M 117.79 196.97 L 117.12 197.64 C 116.54 198.22 116.54 199.17 117.12 199.75 C 117.70 200.34 118.65 200.34 119.24 199.75 L 119.90 199.09 C 120.49 198.50 120.49 197.56 119.90 196.97 C 119.32 196.39 118.37 196.39 117.79 196.97 Z"
      fill="black"
      fill-rule="nonzero" /></svg>