<svg xmlns="http://www.w3.org/2000/svg" width="300" height="300" viewBox="0 0 300 300">
<path d="M 153.06 93.33 L 152.62 94.18 C 152.22 94.93 152.51 95.86 153.26 96.26 C 154.01 96.66 154.94 96.37 155.34 95.62 L 155.79 94.77 C 156.18 94.02 155.90 93.09 155.15 92.69 C 154.39 92.29 153.46 92.58 153.06 93.33 Z M 152.57 94.21 L 152.14 95.08 C 151.76 95.86 152.09 96.80 152.87 97.18 C 153.65 97.56 154.59 97.24 154.97 96.46 L 155.39 95.59 C 155.77 94.81 155.45 93.87 154.67 93.49 C 153.89 93.11 152.95 93.43 152.57 94.21 Z M 152.07 95.16 L 151.70 96.08 C 151.36 96.90 151.75 97.84 152.57 98.17 C 153.39 98.51 154.32 98.11 154.66 97.30 L 155.04 96.38 C 155.37 95.56 154.98 94.62 154.16 94.29 C 153.34 93.95 152.41 94.34 152.07 95.16 Z M 151.62 96.21 L 151.31 97.20 C 151.05 98.06 151.53 98.98 152.39 99.24 C 153.25 99.51 154.16 99.03 154.43 98.17 L 154.74 97.17 C 155.00 96.31 154.52 95.40 153.66 95.13 C 152.80 94.86 151.89 95.35 151.62 96.21 Z M 151.25 97.36 L 151.05 98.34 C 150.87 99.24 151.45 100.11 152.34 100.29 C 153.24 100.47 154.11 99.89 154.29 99.00 L 154.49 98.01 C 154.67 97.12 154.09 96.25 153.20 96.06 C 152.30 95.88 151.43 96.46 151.25 97.36 Z M 151.02 98.47 L 150.90 99.46 C 150.80 100.37 151.45 101.19 152.36 101.30 C 153.27 101.41 154.09 100.76 154.20 99.85 L 154.32 98.87 C 154.43 97.96 153.78 97.13 152.87 97.02 C 151.96 96.91 151.13 97.56 151.02 98.47 Z M 150.90 99.55 L 150.83 100.57 C 150.77 101.48 151.47 102.27 152.38 102.33 C 153.30 102.39 154.09 101.69 154.15 100.78 L 154.21 99.76 C 154.27 98.84 153.57 98.05 152.66 98.00 C 151.74 97.94 150.95 98.63 150.90 99.55 Z M 150.83 100.64 L 150.80 101.66 C 150.78 102.58 151.51 103.34 152.43 103.36 C 153.35 103.38 154.11 102.65 154.13 101.74 L 154.15 100.71 C 154.17 99.79 153.44 99.03 152.53 99.01 C 151.61 98.99 150.85 99.72 150.83 100.64 Z M 150.80 101.71 L 150.81 102.72 C 150.82 103.63 151.57 104.37 152.48 104.37 C 153.40 104.36 154.14 103.61 154.14 102.69 L 154.13 101.69 C 154.12 100.77 153.37 100.03 152.46 100.04 C 151.54 100.04 150.80 100.79 150.80 101.71 Z M 150.81 102.75 L 150.83 103.75 C 150.86 104.67 151.62 105.40 152.54 105.38 C 153.46 105.35 154.19 104.59 154.16 103.67 L 154.14 102.66 C 154.11 101.74 153.35 101.02 152.43 101.04 C 151.51 101.06 150.79 101.83 150.81 102.75 Z M 150.83 103.78 L 150.87 104.80 C 150.91 105.72 151.69 106.43 152.61 106.40 C 153.52 106.36 154.24 105.58 154.20 104.67 L 154.16 103.65 C 154.13 102.73 153.35 102.01 152.43 102.05 C 151.51 102.08 150.80 102.86 150.83 103.78 Z M 150.88 104.83 L 150.93 105.81 C 150.98 106.72 151.77 107.43 152.69 107.38 C 153.61 107.32 154.31 106.54 154.26 105.62 L 154.20 104.64 C 154.15 103.72 153.36 103.02 152.45 103.07 C 151.53 103.12 150.82 103.91 150.88 104.83 Z M 150.93 105.83 L 151.00 106.80 C 151.07 107.72 151.87 108.41 152.79 108.34 C 153.70 108.28 154.39 107.48 154.33 106.56 L 154.26 105.59 C 154.19 104.67 153.39 103.98 152.47 104.05 C 151.55 104.12 150.86 104.92 150.93 105.83 Z M 151.00 106.83 L 151.09 107.82 C 151.17 108.74 151.98 109.42 152.90 109.33 C 153.82 109.25 154.50 108.44 154.41 107.53 L 154.33 106.54 C 154.24 105.62 153.43 104.94 152.52 105.02 C 151.60 105.10 150.92 105.91 151.00 106.83 Z M 151.09 107.84 L 151.19 108.79 C 151.28 109.70 152.10 110.37 153.02 110.28 C 153.93 110.18 154.60 109.36 154.51 108.45 L 154.41 107.50 C 154.32 106.59 153.50 105.92 152.58 106.01 C 151.67 106.11 151.00 106.93 151.09 107.84 Z M 151.19 108.80 L 151.30 109.76 C 151.40 110.68 152.22 111.34 153.14 111.24 C 154.05 111.13 154.71 110.31 154.61 109.39 L 154.51 108.43 C 154.41 107.52 153.58 106.86 152.66 106.96 C 151.75 107.06 151.09 107.88 151.19 108.80 Z M 151.30 109.77 L 151.41 110.76 C 151.52 111.68 152.35 112.33 153.26 112.23 C 154.18 112.12 154.84 111.29 154.73 110.38 L 154.61 109.38 C 154.51 108.47 153.68 107.81 152.76 107.92 C 151.85 108.03 151.19 108.85 151.30 109.77 Z M 151.41 110.77 L 151.54 111.79 C 151.65 112.70 152.48 113.36 153.39 113.25 C 154.31 113.14 154.96 112.30 154.85 111.39 L 154.73 110.37 C 154.62 109.45 153.79 108.80 152.87 108.91 C 151.96 109.02 151.30 109.85 151.41 110.77 Z M 151.54 111.79 L 151.66 112.83 C 151.77 113.74 152.61 114.40 153.52 114.28 C 154.44 114.17 155.09 113.34 154.98 112.42 L 154.85 111.38 C 154.74 110.47 153.91 109.82 152.99 109.93 C 152.08 110.04 151.42 110.87 151.54 111.79 Z M 151.66 112.83 L 151.78 113.82 C 151.89 114.74 152.73 115.39 153.64 115.28 C 154.56 115.17 155.21 114.33 155.10 113.42 L 154.98 112.42 C 154.87 111.51 154.03 110.85 153.12 110.97 C 152.20 111.08 151.55 111.91 151.66 112.83 Z M 151.78 113.82 L 151.90 114.79 C 152.01 115.71 152.84 116.36 153.76 116.25 C 154.68 116.14 155.33 115.31 155.22 114.39 L 155.10 113.42 C 154.99 112.50 154.16 111.85 153.24 111.96 C 152.32 112.07 151.67 112.90 151.78 113.82 Z M 151.90 114.79 L 152.02 115.77 C 152.13 116.69 152.96 117.34 153.88 117.23 C 154.80 117.12 155.45 116.29 155.34 115.37 L 155.22 114.39 C 155.11 113.47 154.27 112.82 153.36 112.93 C 152.44 113.04 151.79 113.88 151.90 114.79 Z M 152.02 115.78 L 152.14 116.77 C 152.25 117.69 153.08 118.34 154.00 118.23 C 154.92 118.12 155.57 117.28 155.46 116.37 L 155.34 115.37 C 155.23 114.46 154.39 113.80 153.48 113.91 C 152.56 114.02 151.91 114.86 152.02 115.78 Z M 152.14 116.77 L 152.26 117.78 C 152.37 118.70 153.21 119.35 154.13 119.24 C 155.04 119.13 155.70 118.29 155.58 117.37 L 155.46 116.37 C 155.35 115.45 154.51 114.80 153.60 114.91 C 152.68 115.02 152.03 115.85 152.14 116.77 Z M 152.26 117.78 L 152.39 118.81 C 152.50 119.72 153.34 120.37 154.26 120.26 C 155.17 120.15 155.82 119.31 155.71 118.39 L 155.58 117.37 C 155.47 116.45 154.63 115.80 153.72 115.92 C 152.80 116.03 152.15 116.87 152.26 117.78 Z M 152.39 118.81 L 152.51 119.78 C 152.63 120.69 153.46 121.34 154.38 121.23 C 155.30 121.11 155.95 120.28 155.83 119.36 L 155.71 118.39 C 155.59 117.47 154.76 116.82 153.84 116.94 C 152.92 117.05 152.27 117.89 152.39 118.81 Z M 152.51 119.78 L 152.63 120.76 C 152.75 121.67 153.59 122.32 154.51 122.21 C 155.42 122.09 156.07 121.25 155.96 120.33 L 155.83 119.36 C 155.72 118.44 154.88 117.79 153.96 117.91 C 153.04 118.02 152.39 118.86 152.51 119.78 Z M 152.63 120.76 L 152.76 121.75 C 152.88 122.67 153.72 123.31 154.64 123.20 C 155.55 123.08 156.20 122.24 156.08 121.32 L 155.96 120.33 C 155.84 119.42 155.00 118.77 154.08 118.88 C 153.17 119.00 152.52 119.84 152.63 120.76 Z M 152.76 121.75 L 152.89 122.75 C 153.01 123.67 153.85 124.31 154.77 124.19 C 155.68 124.08 156.33 123.24 156.21 122.32 L 156.08 121.32 C 155.97 120.40 155.13 119.76 154.21 119.87 C 153.29 119.99 152.64 120.83 152.76 121.75 Z M 152.89 122.75 L 153.02 123.75 C 153.14 124.67 153.98 125.32 154.90 125.20 C 155.81 125.08 156.46 124.24 156.34 123.32 L 156.21 122.32 C 156.09 121.40 155.25 120.75 154.34 120.87 C 153.42 120.99 152.77 121.83 152.89 122.75 Z M 153.02 123.75 L 153.15 124.77 C 153.27 125.68 154.11 126.33 155.03 126.21 C 155.94 126.09 156.59 125.25 156.47 124.34 L 156.34 123.32 C 156.22 122.41 155.38 121.76 154.47 121.88 C 153.55 122.00 152.90 122.84 153.02 123.75 Z M 153.15 124.76 L 153.28 125.76 C 153.40 126.68 154.24 127.33 155.15 127.21 C 156.07 127.09 156.72 126.25 156.60 125.33 L 156.47 124.34 C 156.36 123.42 155.52 122.77 154.60 122.89 C 153.68 123.01 153.03 123.85 153.15 124.76 Z M 153.28 125.76 L 153.41 126.75 C 153.52 127.67 154.36 128.32 155.28 128.20 C 156.20 128.08 156.85 127.24 156.73 126.33 L 156.60 125.33 C 156.48 124.41 155.64 123.76 154.73 123.88 C 153.81 124.00 153.16 124.84 153.28 125.76 Z M 153.41 126.75 L 153.53 127.75 C 153.65 128.67 154.49 129.32 155.41 129.20 C 156.33 129.08 156.98 128.24 156.86 127.32 L 156.73 126.33 C 156.61 125.41 155.77 124.76 154.85 124.88 C 153.94 125.00 153.29 125.84 153.41 126.75 Z M 153.53 127.75 L 153.66 128.74 C 153.78 129.66 154.62 130.31 155.54 130.19 C 156.46 130.07 157.11 129.23 156.99 128.31 L 156.86 127.32 C 156.74 126.40 155.90 125.75 154.98 125.87 C 154.06 125.99 153.42 126.83 153.53 127.75 Z M 153.66 128.74 L 153.79 129.73 C 153.91 130.65 154.75 131.30 155.67 131.18 C 156.59 131.06 157.23 130.22 157.12 129.30 L 156.99 128.31 C 156.87 127.40 156.03 126.75 155.11 126.87 C 154.19 126.98 153.54 127.83 153.66 128.74 Z M 153.79 129.74 L 153.92 130.72 C 154.04 131.64 154.88 132.29 155.80 132.17 C 156.71 132.05 157.36 131.21 157.24 130.29 L 157.12 129.30 C 157.00 128.39 156.15 127.74 155.24 127.86 C 154.32 127.98 153.67 128.82 153.79 129.74 Z M 153.92 130.72 L 154.05 131.73 C 154.17 132.65 155.01 133.29 155.93 133.17 C 156.85 133.05 157.49 132.21 157.37 131.29 L 157.24 130.29 C 157.12 129.37 156.28 128.72 155.36 128.84 C 154.44 128.96 153.80 129.80 153.92 130.72 Z M 154.05 131.73 L 154.18 132.74 C 154.30 133.66 155.14 134.30 156.06 134.18 C 156.98 134.06 157.63 133.22 157.51 132.30 L 157.37 131.29 C 157.25 130.37 156.41 129.73 155.49 129.85 C 154.57 129.97 153.93 130.81 154.05 131.73 Z M 154.18 132.74 L 154.31 133.74 C 154.44 134.66 155.28 135.30 156.20 135.18 C 157.12 135.06 157.76 134.21 157.64 133.30 L 157.51 132.30 C 157.38 131.38 156.54 130.73 155.62 130.86 C 154.71 130.98 154.06 131.82 154.18 132.74 Z M 154.31 133.74 L 154.45 134.73 C 154.57 135.65 155.41 136.29 156.33 136.17 C 157.25 136.05 157.89 135.20 157.77 134.28 L 157.64 133.29 C 157.52 132.38 156.67 131.73 155.75 131.85 C 154.84 131.98 154.19 132.82 154.31 133.74 Z M 154.45 134.73 L 154.58 135.71 C 154.70 136.63 155.55 137.27 156.47 137.15 C 157.38 137.03 158.03 136.18 157.90 135.26 L 157.77 134.28 C 157.65 133.36 156.80 132.72 155.88 132.85 C 154.97 132.97 154.32 133.81 154.45 134.73 Z M 154.58 135.71 L 154.71 136.68 C 154.84 137.60 155.68 138.24 156.60 138.12 C 157.52 137.99 158.16 137.15 158.04 136.23 L 157.90 135.26 C 157.78 134.34 156.93 133.70 156.01 133.83 C 155.10 133.95 154.45 134.80 154.58 135.71 Z M 154.71 136.69 L 154.85 137.68 C 154.98 138.60 155.82 139.24 156.74 139.11 C 157.66 138.99 158.30 138.14 158.17 137.22 L 158.04 136.23 C 157.91 135.31 157.06 134.67 156.14 134.80 C 155.23 134.92 154.59 135.77 154.71 136.69 Z M 154.85 137.68 L 154.99 138.68 C 155.12 139.60 155.97 140.24 156.88 140.11 C 157.80 139.98 158.44 139.13 158.31 138.21 L 158.17 137.22 C 158.04 136.30 157.20 135.66 156.28 135.79 C 155.36 135.92 154.72 136.77 154.85 137.68 Z M 154.99 138.68 L 155.13 139.67 C 155.26 140.59 156.11 141.23 157.03 141.10 C 157.95 140.97 158.58 140.12 158.45 139.20 L 158.31 138.21 C 158.18 137.29 157.33 136.66 156.42 136.79 C 155.50 136.92 154.86 137.77 154.99 138.68 Z M 155.13 139.68 L 155.28 140.66 C 155.41 141.58 156.26 142.21 157.18 142.08 C 158.09 141.95 158.73 141.10 158.60 140.18 L 158.45 139.20 C 158.32 138.28 157.47 137.64 156.55 137.78 C 155.64 137.91 155.00 138.76 155.13 139.68 Z M 155.28 140.67 L 155.42 141.65 C 155.56 142.57 156.41 143.20 157.33 143.06 C 158.24 142.93 158.88 142.07 158.74 141.16 L 158.59 140.18 C 158.46 139.26 157.61 138.63 156.69 138.76 C 155.77 138.90 155.14 139.75 155.28 140.67 Z M 155.42 141.65 L 155.57 142.64 C 155.71 143.56 156.57 144.19 157.48 144.05 C 158.40 143.91 159.03 143.05 158.89 142.14 L 158.74 141.15 C 158.60 140.24 157.75 139.61 156.83 139.75 C 155.91 139.88 155.28 140.74 155.42 141.65 Z M 155.57 142.65 L 155.73 143.67 C 155.87 144.59 156.73 145.22 157.65 145.07 C 158.56 144.93 159.19 144.08 159.05 143.16 L 158.89 142.13 C 158.75 141.22 157.89 140.59 156.97 140.73 C 156.06 140.87 155.43 141.73 155.57 142.65 Z M 155.73 143.68 L 155.89 144.70 C 156.04 145.62 156.90 146.24 157.81 146.10 C 158.73 145.95 159.35 145.09 159.21 144.18 L 159.05 143.16 C 158.90 142.24 158.04 141.62 157.13 141.76 C 156.21 141.91 155.59 142.76 155.73 143.68 Z M 155.90 144.70 L 156.06 145.71 C 156.20 146.62 157.06 147.25 157.98 147.10 C 158.89 146.95 159.51 146.09 159.37 145.18 L 159.21 144.18 C 159.06 143.26 158.20 142.64 157.29 142.78 C 156.37 142.93 155.75 143.79 155.90 144.70 Z M 156.06 145.71 L 156.21 146.69 C 156.36 147.60 157.22 148.22 158.14 148.08 C 159.05 147.93 159.67 147.07 159.52 146.16 L 159.37 145.18 C 159.22 144.26 158.36 143.64 157.44 143.79 C 156.53 143.94 155.91 144.80 156.06 145.71 Z M 156.21 146.69 L 156.37 147.63 C 156.51 148.54 157.38 149.16 158.29 149.02 C 159.20 148.87 159.82 148.01 159.68 147.09 L 159.52 146.15 C 159.37 145.24 158.51 144.62 157.60 144.77 C 156.69 144.92 156.07 145.78 156.21 146.69 Z M 156.37 147.63 L 156.53 148.65 C 156.68 149.56 157.54 150.18 158.45 150.03 C 159.37 149.89 159.99 149.02 159.84 148.11 L 159.68 147.09 C 159.53 146.18 158.67 145.56 157.75 145.71 C 156.84 145.86 156.22 146.72 156.37 147.63 Z M 156.53 148.65 L 156.70 149.70 C 156.85 150.61 157.71 151.23 158.63 151.08 C 159.54 150.93 160.16 150.07 160.01 149.16 L 159.84 148.11 C 159.69 147.20 158.83 146.58 157.92 146.73 C 157.00 146.88 156.38 147.74 156.53 148.65 Z M 156.70 149.70 L 156.87 150.69 C 157.02 151.60 157.89 152.21 158.80 152.06 C 159.71 151.91 160.33 151.04 160.17 150.13 L 160.01 149.15 C 159.86 148.24 158.99 147.62 158.08 147.77 C 157.17 147.93 156.55 148.79 156.70 149.70 Z M 156.87 150.70 L 157.03 151.63 C 157.19 152.54 158.06 153.15 158.97 152.99 C 159.88 152.83 160.49 151.96 160.33 151.05 L 160.17 150.12 C 160.01 149.21 159.14 148.60 158.23 148.76 C 157.32 148.92 156.71 149.79 156.87 150.70 Z M 157.04 151.65 L 157.21 152.55 C 157.38 153.46 158.25 154.06 159.16 153.89 C 160.07 153.72 160.67 152.85 160.50 151.94 L 160.33 151.03 C 160.16 150.12 159.29 149.52 158.38 149.69 C 157.47 149.86 156.87 150.74 157.04 151.65 Z M 157.21 152.57 L 157.39 153.49 C 157.58 154.40 158.46 154.98 159.37 154.80 C 160.27 154.62 160.86 153.74 160.68 152.83 L 160.49 151.91 C 160.31 151.01 159.43 150.42 158.52 150.60 C 157.62 150.78 157.03 151.67 157.21 152.57 Z M 157.40 153.51 L 157.60 154.45 C 157.79 155.35 158.68 155.93 159.59 155.73 C 160.49 155.54 161.07 154.65 160.87 153.75 L 160.67 152.81 C 160.48 151.91 159.59 151.33 158.68 151.52 C 157.78 151.72 157.21 152.61 157.40 153.51 Z M 157.61 154.47 L 157.83 155.46 C 158.04 156.36 158.93 156.93 159.83 156.72 C 160.73 156.52 161.30 155.62 161.09 154.72 L 160.87 153.73 C 160.66 152.82 159.77 152.26 158.87 152.46 C 157.97 152.67 157.40 153.57 157.61 154.47 Z M 157.83 155.47 L 158.09 156.54 C 158.30 157.44 159.20 157.99 160.10 157.78 C 161.00 157.57 161.55 156.67 161.34 155.77 L 161.09 154.70 C 160.88 153.80 159.98 153.25 159.08 153.46 C 158.18 153.67 157.62 154.57 157.83 155.47 Z M 158.09 156.55 L 158.31 157.45 C 158.52 158.35 159.43 158.90 160.33 158.68 C 161.22 158.47 161.78 157.56 161.56 156.66 L 161.34 155.76 C 161.12 154.86 160.22 154.31 159.32 154.53 C 158.42 154.74 157.87 155.65 158.09 156.55 Z M 158.31 157.46 L 158.54 158.42 C 158.77 159.31 159.67 159.86 160.57 159.64 C 161.47 159.42 162.01 158.51 161.79 157.62 L 161.56 156.66 C 161.34 155.76 160.43 155.21 159.53 155.43 C 158.64 155.65 158.09 156.56 158.31 157.46 Z M 158.55 158.42 L 158.79 159.41 C 159.02 160.31 159.93 160.85 160.82 160.63 C 161.72 160.41 162.26 159.50 162.04 158.60 L 161.79 157.61 C 161.57 156.71 160.66 156.17 159.76 156.39 C 158.87 156.62 158.32 157.52 158.55 158.42 Z M 158.80 159.42 L 159.05 160.42 C 159.28 161.32 160.19 161.86 161.08 161.63 C 161.98 161.40 162.52 160.49 162.29 159.60 L 162.04 158.59 C 161.81 157.70 160.90 157.16 160.01 157.39 C 159.11 157.61 158.57 158.52 158.80 159.42 Z M 159.05 160.43 L 159.31 161.43 C 159.54 162.32 160.45 162.86 161.35 162.63 C 162.24 162.39 162.78 161.48 162.55 160.59 L 162.29 159.59 C 162.06 158.70 161.15 158.16 160.25 158.39 C 159.36 158.62 158.82 159.54 159.05 160.43 Z M 159.31 161.43 L 159.58 162.44 C 159.81 163.33 160.73 163.86 161.62 163.63 C 162.51 163.39 163.05 162.48 162.81 161.58 L 162.55 160.58 C 162.31 159.69 161.40 159.15 160.50 159.39 C 159.61 159.62 159.08 160.54 159.31 161.43 Z M 159.58 162.44 L 159.85 163.43 C 160.09 164.32 161.00 164.85 161.89 164.61 C 162.79 164.37 163.31 163.45 163.07 162.56 L 162.81 161.57 C 162.57 160.68 161.65 160.15 160.76 160.39 C 159.87 160.63 159.34 161.55 159.58 162.44 Z M 159.85 163.44 L 160.11 164.40 C 160.36 165.29 161.28 165.82 162.17 165.57 C 163.06 165.32 163.58 164.40 163.34 163.51 L 163.07 162.55 C 162.83 161.66 161.90 161.14 161.01 161.38 C 160.12 161.63 159.60 162.55 159.85 163.44 Z M 160.12 164.42 L 160.39 165.36 C 160.64 166.25 161.56 166.76 162.45 166.51 C 163.34 166.26 163.86 165.33 163.60 164.45 L 163.33 163.50 C 163.08 162.61 162.16 162.10 161.27 162.35 C 160.38 162.60 159.86 163.53 160.12 164.42 Z M 160.39 165.37 L 160.66 166.31 C 160.92 167.20 161.85 167.70 162.74 167.45 C 163.62 167.19 164.13 166.26 163.87 165.37 L 163.60 164.43 C 163.34 163.55 162.41 163.04 161.52 163.30 C 160.64 163.56 160.13 164.49 160.39 165.37 Z M 160.67 166.32 L 160.98 167.37 C 161.25 168.26 162.18 168.76 163.07 168.49 C 163.95 168.23 164.45 167.29 164.19 166.41 L 163.87 165.36 C 163.60 164.47 162.67 163.97 161.79 164.24 C 160.90 164.50 160.40 165.44 160.67 166.32 Z M 160.97 167.35 L 161.29 168.48 C 161.55 169.37 162.48 169.88 163.37 169.63 C 164.26 169.38 164.77 168.45 164.52 167.56 L 164.20 166.43 C 163.94 165.54 163.01 165.02 162.12 165.28 C 161.23 165.53 160.72 166.46 160.97 167.35 Z M 161.26 168.37 L 161.48 169.39 C 161.67 170.30 162.57 170.88 163.48 170.69 C 164.38 170.49 164.96 169.60 164.77 168.69 L 164.55 167.67 C 164.36 166.76 163.46 166.18 162.56 166.37 C 161.65 166.57 161.07 167.46 161.26 168.37 Z M 161.44 169.12 L 161.48 169.96 C 161.52 170.89 162.30 171.62 163.23 171.58 C 164.16 171.54 164.88 170.75 164.85 169.82 L 164.81 168.97 C 164.77 168.04 163.98 167.32 163.05 167.36 C 162.12 167.40 161.40 168.18 161.44 169.12 Z M 161.59 169.26 L 161.34 169.90 C 160.99 170.77 161.41 171.75 162.27 172.10 C 163.14 172.45 164.12 172.03 164.47 171.16 L 164.73 170.52 C 165.08 169.66 164.66 168.67 163.79 168.33 C 162.93 167.98 161.94 168.40 161.59 169.26 Z M 162.13 169.03 L 161.43 169.39 C 160.60 169.82 160.27 170.84 160.70 171.67 C 161.13 172.50 162.15 172.83 162.98 172.40 L 163.68 172.03 C 164.51 171.60 164.84 170.58 164.41 169.75 C 163.98 168.92 162.96 168.60 162.13 169.03 Z M 162.05 169.20 L 161.03 169.30 C 160.10 169.38 159.42 170.21 159.50 171.14 C 159.59 172.07 160.41 172.76 161.35 172.67 L 162.36 172.58 C 163.29 172.49 163.98 171.67 163.89 170.74 C 163.81 169.80 162.98 169.12 162.05 169.20 Z M 161.23 169.29 L 160.02 169.26 C 159.08 169.24 158.30 169.98 158.28 170.92 C 158.26 171.86 159.00 172.63 159.94 172.66 L 161.15 172.68 C 162.09 172.70 162.87 171.96 162.89 171.02 C 162.91 170.09 162.17 169.31 161.23 169.29 Z M 160.02 169.26 L 159.04 169.24 C 158.10 169.21 157.32 169.96 157.30 170.89 C 157.28 171.83 158.02 172.61 158.96 172.63 L 159.94 172.66 C 160.88 172.68 161.65 171.94 161.68 171.00 C 161.70 170.06 160.96 169.28 160.02 169.26 Z M 159.02 169.24 L 158.01 169.22 C 157.08 169.21 156.31 169.96 156.29 170.90 C 156.28 171.84 157.03 172.61 157.97 172.62 L 158.98 172.63 C 159.91 172.64 160.68 171.89 160.70 170.96 C 160.71 170.02 159.96 169.25 159.02 169.24 Z M 158.00 169.22 L 156.99 169.22 C 156.05 169.21 155.29 169.97 155.28 170.91 C 155.27 171.84 156.03 172.61 156.97 172.61 L 157.98 172.62 C 158.92 172.62 159.68 171.87 159.69 170.93 C 159.69 169.99 158.94 169.23 158.00 169.22 Z M 156.98 169.22 L 155.98 169.22 C 155.04 169.22 154.28 169.97 154.28 170.91 C 154.28 171.85 155.03 172.61 155.97 172.61 L 156.98 172.61 C 157.91 172.62 158.67 171.86 158.68 170.92 C 158.68 169.98 157.92 169.22 156.98 169.22 Z M 155.98 169.22 L 154.99 169.22 C 154.05 169.22 153.29 169.98 153.29 170.91 C 153.29 171.85 154.05 172.61 154.99 172.61 L 155.97 172.61 C 156.91 172.61 157.67 171.85 157.67 170.91 C 157.67 169.98 156.91 169.22 155.98 169.22 Z M 154.99 169.22 L 154.01 169.22 C 153.07 169.22 152.31 169.98 152.31 170.91 C 152.31 171.85 153.07 172.61 154.01 172.61 L 154.99 172.61 C 155.92 172.61 156.68 171.85 156.68 170.91 C 156.68 169.98 155.92 169.22 154.99 169.22 Z M 154.01 169.22 L 153.03 169.22 C 152.09 169.22 151.33 169.98 151.33 170.91 C 151.33 171.85 152.09 172.61 153.03 172.61 L 154.01 172.61 C 154.95 172.61 155.70 171.85 155.70 170.91 C 155.70 169.98 154.95 169.22 154.01 169.22 Z M 153.03 169.22 L 152.02 169.22 C 151.08 169.22 150.32 169.98 150.32 170.91 C 150.32 171.85 151.08 172.61 152.02 172.61 L 153.03 172.61 C 153.96 172.61 154.72 171.85 154.72 170.91 C 154.72 169.98 153.96 169.22 153.03 169.22 Z M 152.02 169.22 L 150.98 169.22 C 150.05 169.22 149.29 169.98 149.29 170.91 C 149.29 171.85 150.05 172.61 150.98 172.61 L 152.02 172.61 C 152.95 172.61 153.71 171.85 153.71 170.91 C 153.71 169.98 152.95 169.22 152.02 169.22 Z M 150.98 169.23 L 149.96 169.23 C 149.03 169.23 148.27 169.98 148.27 170.92 C 148.27 171.85 149.03 172.60 149.96 172.60 L 150.98 172.60 C 151.92 172.60 152.67 171.85 152.67 170.91 C 152.67 169.98 151.91 169.23 150.98 169.23 Z M 149.96 169.23 L 148.92 169.23 C 147.99 169.23 147.24 169.99 147.24 170.92 C 147.24 171.85 148.00 172.60 148.93 172.60 L 149.96 172.60 C 150.89 172.60 151.65 171.84 151.65 170.91 C 151.64 169.98 150.89 169.23 149.96 169.23 Z M 148.92 169.24 L 147.90 169.24 C 146.97 169.25 146.22 170.00 146.23 170.93 C 146.23 171.86 146.99 172.61 147.92 172.60 L 148.93 172.60 C 149.86 172.59 150.61 171.84 150.61 170.91 C 150.60 169.98 149.84 169.23 148.92 169.24 Z M 147.89 169.24 L 146.93 169.25 C 146.00 169.26 145.26 170.02 145.27 170.95 C 145.28 171.87 146.03 172.62 146.96 172.61 L 147.92 172.60 C 148.85 172.59 149.59 171.83 149.59 170.91 C 149.58 169.98 148.82 169.24 147.89 169.24 Z M 146.91 169.26 L 145.86 169.28 C 144.94 169.29 144.20 170.06 144.22 170.98 C 144.24 171.90 145.00 172.64 145.92 172.62 L 146.97 172.60 C 147.90 172.59 148.63 171.83 148.62 170.90 C 148.60 169.98 147.84 169.24 146.91 169.26 Z M 145.84 169.29 L 144.81 169.32 C 143.89 169.35 143.17 170.11 143.20 171.03 C 143.23 171.95 143.99 172.67 144.91 172.64 L 145.94 172.61 C 146.86 172.59 147.58 171.82 147.56 170.90 C 147.53 169.98 146.76 169.26 145.84 169.29 Z M 144.79 169.33 L 143.84 169.37 C 142.93 169.41 142.22 170.18 142.26 171.10 C 142.31 172.01 143.08 172.72 143.99 172.68 L 144.94 172.63 C 145.85 172.59 146.56 171.82 146.52 170.91 C 146.47 170.00 145.70 169.29 144.79 169.33 Z M 143.82 169.38 L 142.90 169.44 C 141.99 169.49 141.30 170.26 141.35 171.17 C 141.40 172.08 142.18 172.77 143.09 172.72 L 144.01 172.66 C 144.92 172.61 145.61 171.84 145.56 170.93 C 145.51 170.02 144.73 169.33 143.82 169.38 Z M 142.89 169.45 L 141.94 169.51 C 141.04 169.57 140.35 170.35 140.41 171.25 C 140.47 172.15 141.25 172.83 142.15 172.77 L 143.10 172.71 C 144.00 172.65 144.68 171.87 144.62 170.97 C 144.56 170.07 143.79 169.39 142.89 169.45 Z M 141.93 169.52 L 140.94 169.59 C 140.05 169.64 139.37 170.42 139.43 171.31 C 139.49 172.21 140.27 172.88 141.16 172.82 L 142.15 172.76 C 143.04 172.70 143.72 171.93 143.66 171.03 C 143.60 170.14 142.83 169.46 141.93 169.52 Z M 140.95 169.59 L 139.92 169.66 C 139.03 169.71 138.35 170.48 138.41 171.37 C 138.46 172.26 139.23 172.93 140.11 172.88 L 141.15 172.81 C 142.04 172.76 142.72 172.00 142.66 171.11 C 142.61 170.22 141.84 169.54 140.95 169.59 Z M 139.93 169.67 L 138.95 169.72 C 138.06 169.76 137.38 170.52 137.43 171.40 C 137.47 172.29 138.23 172.97 139.11 172.92 L 140.10 172.87 C 140.98 172.82 141.66 172.07 141.62 171.19 C 141.57 170.30 140.82 169.62 139.93 169.67 Z M 138.96 169.73 L 137.99 169.77 C 137.11 169.81 136.43 170.55 136.47 171.43 C 136.50 172.31 137.25 172.99 138.13 172.95 L 139.10 172.91 C 139.98 172.87 140.66 172.13 140.62 171.25 C 140.58 170.37 139.84 169.69 138.96 169.73 Z M 137.99 169.78 L 136.99 169.82 C 136.11 169.86 135.43 170.59 135.47 171.47 C 135.51 172.34 136.24 173.02 137.12 172.98 L 138.12 172.94 C 138.99 172.91 139.67 172.17 139.64 171.30 C 139.60 170.42 138.87 169.74 137.99 169.78 Z M 136.99 169.83 L 135.95 169.87 C 135.08 169.91 134.41 170.64 134.44 171.51 C 134.48 172.38 135.21 173.05 136.08 173.02 L 137.12 172.98 C 137.99 172.94 138.66 172.21 138.62 171.34 C 138.59 170.47 137.85 169.79 136.99 169.83 Z M 135.94 169.88 L 134.96 169.93 C 134.09 169.97 133.43 170.70 133.47 171.56 C 133.51 172.43 134.24 173.09 135.10 173.05 L 136.09 173.01 C 136.95 172.97 137.62 172.24 137.58 171.37 C 137.54 170.51 136.81 169.84 135.94 169.88 Z M 134.95 169.94 L 133.99 169.99 C 133.13 170.03 132.47 170.76 132.51 171.62 C 132.56 172.48 133.29 173.14 134.15 173.09 L 135.11 173.05 C 135.97 173.00 136.63 172.27 136.58 171.41 C 136.54 170.55 135.81 169.89 134.95 169.94 Z M 133.98 170.00 L 133.00 170.05 C 132.14 170.10 131.49 170.82 131.54 171.68 C 131.58 172.53 132.31 173.18 133.16 173.14 L 134.15 173.09 C 135.00 173.04 135.66 172.31 135.61 171.46 C 135.57 170.60 134.84 169.95 133.98 170.00 Z M 133.00 170.06 L 131.98 170.11 C 131.13 170.16 130.48 170.89 130.52 171.73 C 130.57 172.58 131.30 173.23 132.14 173.19 L 133.17 173.13 C 134.01 173.08 134.66 172.36 134.62 171.51 C 134.57 170.66 133.84 170.01 133.00 170.06 Z M 131.98 170.12 L 130.92 170.18 C 130.08 170.23 129.43 170.95 129.47 171.79 C 129.52 172.63 130.24 173.28 131.08 173.24 L 132.14 173.18 C 132.99 173.13 133.63 172.41 133.59 171.57 C 133.54 170.72 132.82 170.08 131.98 170.12 Z M 130.92 170.19 L 129.95 170.24 C 129.11 170.28 128.47 171.00 128.51 171.84 C 128.55 172.68 129.27 173.32 130.11 173.28 L 131.08 173.23 C 131.92 173.18 132.57 172.47 132.52 171.63 C 132.48 170.79 131.76 170.14 130.92 170.19 Z M 129.95 170.25 L 128.96 170.30 C 128.12 170.34 127.48 171.05 127.52 171.88 C 127.56 172.72 128.27 173.36 129.11 173.32 L 130.10 173.27 C 130.94 173.23 131.58 172.52 131.54 171.68 C 131.50 170.85 130.79 170.20 129.95 170.25 Z M 128.96 170.30 L 127.95 170.35 C 127.12 170.39 126.48 171.10 126.52 171.93 C 126.56 172.76 127.26 173.40 128.10 173.36 L 129.10 173.31 C 129.94 173.27 130.58 172.57 130.54 171.74 C 130.50 170.91 129.79 170.26 128.96 170.30 Z M 127.96 170.36 L 126.94 170.40 C 126.12 170.44 125.48 171.14 125.51 171.97 C 125.55 172.80 126.25 173.44 127.08 173.40 L 128.09 173.36 C 128.92 173.32 129.56 172.62 129.52 171.79 C 129.49 170.96 128.78 170.32 127.96 170.36 Z M 126.95 170.41 L 125.94 170.45 C 125.12 170.49 124.48 171.18 124.51 172.00 C 124.55 172.83 125.24 173.47 126.07 173.43 L 127.07 173.39 C 127.90 173.36 128.54 172.66 128.50 171.84 C 128.47 171.02 127.77 170.38 126.95 170.41 Z M 125.95 170.46 L 124.93 170.50 C 124.11 170.53 123.47 171.22 123.50 172.04 C 123.53 172.86 124.22 173.50 125.04 173.47 L 126.06 173.43 C 126.88 173.40 127.52 172.71 127.49 171.89 C 127.46 171.07 126.77 170.43 125.95 170.46 Z M 124.94 170.50 L 123.92 170.54 C 123.11 170.56 122.47 171.25 122.50 172.06 C 122.52 172.88 123.21 173.52 124.02 173.49 L 125.03 173.46 C 125.85 173.43 126.49 172.75 126.46 171.93 C 126.44 171.12 125.75 170.48 124.94 170.50 Z M 123.93 170.55 L 122.93 170.58 C 122.12 170.60 121.48 171.28 121.51 172.09 C 121.53 172.90 122.21 173.54 123.02 173.52 L 124.02 173.48 C 124.83 173.46 125.47 172.78 125.44 171.97 C 125.42 171.16 124.74 170.52 123.93 170.55 Z M 122.94 170.58 L 121.95 170.61 C 121.14 170.63 120.50 171.31 120.53 172.12 C 120.55 172.92 121.22 173.56 122.03 173.54 L 123.02 173.51 C 123.83 173.48 124.46 172.81 124.44 172.00 C 124.42 171.20 123.74 170.56 122.94 170.58 Z M 121.95 170.62 L 120.97 170.65 C 120.16 170.67 119.53 171.34 119.55 172.14 C 119.57 172.94 120.24 173.58 121.05 173.55 L 122.03 173.53 C 122.83 173.51 123.47 172.84 123.44 172.03 C 123.42 171.23 122.75 170.60 121.95 170.62 Z M 120.97 170.65 L 119.96 170.68 C 119.16 170.70 118.53 171.37 118.55 172.17 C 118.58 172.97 119.24 173.60 120.04 173.58 L 121.04 173.55 C 121.84 173.53 122.48 172.86 122.45 172.06 C 122.43 171.26 121.77 170.63 120.97 170.65 Z M 119.96 170.68 L 118.96 170.71 C 118.16 170.73 117.53 171.39 117.55 172.19 C 117.57 172.99 118.24 173.62 119.03 173.60 L 120.04 173.57 C 120.84 173.55 121.47 172.89 121.45 172.09 C 121.42 171.29 120.76 170.66 119.96 170.68 Z M 118.96 170.71 L 117.96 170.74 C 117.16 170.76 116.53 171.42 116.55 172.21 C 116.57 173.01 117.23 173.64 118.03 173.62 L 119.03 173.59 C 119.82 173.57 120.45 172.91 120.43 172.12 C 120.42 171.32 119.76 170.70 118.96 170.71 Z M 117.96 170.74 L 116.97 170.76 C 116.17 170.78 115.55 171.44 115.56 172.23 C 115.58 173.02 116.23 173.65 117.03 173.63 L 118.02 173.61 C 118.82 173.60 119.44 172.94 119.43 172.15 C 119.41 171.36 118.76 170.73 117.96 170.74 Z M 116.97 170.77 L 115.99 170.78 C 115.20 170.80 114.57 171.45 114.58 172.24 C 114.59 173.03 115.24 173.66 116.03 173.65 L 117.02 173.63 C 117.81 173.62 118.44 172.96 118.43 172.17 C 118.41 171.38 117.76 170.75 116.97 170.77 Z M 115.99 170.79 L 114.97 170.80 C 114.18 170.81 113.55 171.45 113.56 172.24 C 113.56 173.03 114.21 173.66 115.00 173.65 L 116.03 173.64 C 116.81 173.63 117.45 172.99 117.44 172.20 C 117.43 171.41 116.78 170.78 115.99 170.79 Z M 114.97 170.80 L 113.96 170.81 C 113.17 170.81 112.54 171.45 112.54 172.24 C 112.55 173.03 113.19 173.67 113.98 173.66 L 114.99 173.65 C 115.78 173.65 116.42 173.01 116.41 172.22 C 116.41 171.43 115.76 170.79 114.97 170.80 Z M 113.97 170.81 L 112.97 170.81 C 112.18 170.81 111.54 171.45 111.54 172.24 C 111.55 173.03 112.19 173.67 112.98 173.66 L 113.97 173.66 C 114.76 173.66 115.40 173.02 115.40 172.23 C 115.39 171.44 114.75 170.80 113.97 170.81 Z M 112.97 170.81 L 111.99 170.81 C 111.20 170.81 110.56 171.45 110.56 172.24 C 110.56 173.03 111.20 173.66 111.99 173.66 L 112.97 173.66 C 113.76 173.66 114.40 173.02 114.40 172.24 C 114.40 171.45 113.76 170.81 112.97 170.81 Z M 111.99 170.81 L 111.00 170.81 C 110.21 170.81 109.57 171.45 109.57 172.24 C 109.57 173.03 110.21 173.66 111.00 173.66 L 111.99 173.66 C 112.78 173.66 113.42 173.02 113.42 172.24 C 113.42 171.45 112.78 170.81 111.99 170.81 Z M 111.00 170.81 L 109.99 170.81 C 109.20 170.81 108.56 171.45 108.56 172.24 C 108.56 173.02 109.20 173.66 109.99 173.66 L 111.00 173.66 C 111.79 173.66 112.43 173.02 112.43 172.24 C 112.43 171.45 111.79 170.81 111.00 170.81 Z M 109.99 170.81 L 108.99 170.81 C 108.20 170.81 107.56 171.45 107.56 172.24 C 107.56 173.02 108.20 173.66 108.99 173.66 L 109.99 173.66 C 110.77 173.66 111.41 173.02 111.41 172.24 C 111.41 171.45 110.77 170.81 109.99 170.81 Z M 108.99 170.81 L 108.00 170.81 C 107.21 170.81 106.57 171.45 106.57 172.24 C 106.57 173.02 107.21 173.66 108.00 173.66 L 108.99 173.66 C 109.77 173.66 110.41 173.02 110.41 172.24 C 110.41 171.45 109.77 170.81 108.99 170.81 Z M 108.00 170.81 L 107.07 170.81 C 106.28 170.81 105.64 171.45 105.64 172.24 C 105.64 173.02 106.28 173.66 107.07 173.66 L 108.00 173.66 C 108.78 173.66 109.42 173.02 109.42 172.24 C 109.42 171.45 108.78 170.81 108.00 170.81 Z"
      fill="black"
      fill-rule="nonzero" /></svg>