<svg xmlns="http://www.w3.org/2000/svg" width="300" height="300" viewBox="0 0 300 300">
<path d="M 136.38 120.69 L 135.04 120.39 C 134.19 120.20 133.35 120.74 133.16 121.59 C 132.97 122.44 133.50 123.28 134.36 123.47 L 135.69 123.77 C 136.55 123.96 137.39 123.43 137.58 122.57 C 137.77 121.72 137.23 120.88 136.38 120.69 Z M 135.08 120.39 L 133.90 120.10 C 133.05 119.89 132.18 120.41 131.97 121.26 C 131.76 122.12 132.29 122.98 133.14 123.19 L 134.32 123.48 C 135.17 123.69 136.03 123.17 136.24 122.31 C 136.45 121.46 135.93 120.60 135.08 120.39 Z M 134.01 120.11 L 133.15 119.84 C 132.31 119.57 131.40 120.04 131.13 120.88 C 130.86 121.73 131.33 122.63 132.18 122.90 L 133.03 123.17 C 133.88 123.44 134.78 122.98 135.05 122.13 C 135.32 121.29 134.85 120.38 134.01 120.11 Z M 133.56 120.02 L 133.18 119.77 C 132.43 119.28 131.43 119.48 130.94 120.23 C 130.44 120.97 130.65 121.98 131.39 122.47 L 131.77 122.72 C 132.52 123.21 133.52 123.01 134.01 122.26 C 134.51 121.52 134.30 120.51 133.56 120.02 Z M 133.31 122.39 L 133.63 122.12 C 134.33 121.56 134.44 120.54 133.88 119.84 C 133.31 119.14 132.29 119.03 131.59 119.59 L 131.27 119.86 C 130.57 120.42 130.46 121.44 131.02 122.14 C 131.59 122.84 132.61 122.95 133.31 122.39 Z M 132.99 122.43 L 133.97 122.20 C 134.83 121.99 135.37 121.11 135.16 120.24 C 134.95 119.37 134.07 118.84 133.20 119.05 L 132.23 119.29 C 131.36 119.50 130.83 120.37 131.04 121.24 C 131.25 122.11 132.12 122.64 132.99 122.43 Z M 133.86 122.21 L 135.19 121.98 C 136.07 121.83 136.66 120.99 136.51 120.11 C 136.35 119.23 135.51 118.65 134.64 118.80 L 133.31 119.03 C 132.43 119.19 131.84 120.02 131.99 120.90 C 132.15 121.78 132.98 122.37 133.86 122.21 Z M 135.19 121.97 L 136.25 121.79 C 137.13 121.64 137.71 120.81 137.56 119.93 C 137.41 119.06 136.58 118.47 135.70 118.62 L 134.64 118.81 C 133.76 118.96 133.18 119.79 133.33 120.67 C 133.48 121.54 134.31 122.13 135.19 121.97 Z M 136.27 121.78 L 137.23 121.60 C 138.09 121.44 138.67 120.61 138.51 119.74 C 138.35 118.87 137.52 118.30 136.65 118.46 L 135.69 118.64 C 134.82 118.80 134.25 119.63 134.41 120.50 C 134.57 121.36 135.40 121.94 136.27 121.78 Z M 137.24 121.59 L 138.21 121.40 C 139.07 121.23 139.63 120.40 139.47 119.55 C 139.30 118.69 138.47 118.12 137.61 118.29 L 136.64 118.47 C 135.78 118.64 135.22 119.47 135.38 120.33 C 135.55 121.19 136.38 121.75 137.24 121.59 Z M 138.21 121.39 L 139.21 121.19 C 140.06 121.02 140.61 120.20 140.45 119.35 C 140.28 118.49 139.45 117.94 138.60 118.11 L 137.61 118.30 C 136.76 118.47 136.20 119.29 136.37 120.14 C 136.54 121.00 137.36 121.55 138.21 121.39 Z M 139.21 121.18 L 140.23 120.98 C 141.07 120.81 141.62 119.99 141.45 119.15 C 141.29 118.30 140.47 117.75 139.62 117.92 L 138.60 118.12 C 137.76 118.29 137.21 119.11 137.37 119.95 C 137.54 120.80 138.36 121.35 139.21 121.18 Z M 140.22 120.97 L 141.16 120.78 C 142.00 120.62 142.55 119.80 142.38 118.96 C 142.22 118.12 141.40 117.58 140.56 117.74 L 139.62 117.93 C 138.78 118.09 138.24 118.91 138.40 119.75 C 138.57 120.59 139.38 121.13 140.22 120.97 Z M 141.16 120.78 L 142.12 120.59 C 142.95 120.42 143.50 119.61 143.33 118.77 C 143.16 117.94 142.35 117.39 141.52 117.56 L 140.56 117.75 C 139.73 117.91 139.18 118.73 139.35 119.56 C 139.51 120.40 140.33 120.94 141.16 120.78 Z M 142.12 120.58 L 143.10 120.38 C 143.93 120.21 144.47 119.40 144.30 118.57 C 144.13 117.74 143.32 117.20 142.49 117.37 L 141.51 117.57 C 140.68 117.73 140.14 118.54 140.31 119.38 C 140.48 120.21 141.29 120.75 142.12 120.58 Z M 143.10 120.37 L 144.10 120.17 C 144.93 120.00 145.46 119.19 145.29 118.36 C 145.11 117.53 144.31 117.00 143.48 117.17 L 142.48 117.38 C 141.66 117.55 141.12 118.36 141.29 119.19 C 141.47 120.01 142.28 120.54 143.10 120.37 Z M 144.11 120.16 L 145.12 119.94 C 145.94 119.77 146.47 118.96 146.29 118.13 C 146.11 117.31 145.30 116.79 144.48 116.96 L 143.47 117.18 C 142.65 117.36 142.12 118.17 142.30 118.99 C 142.48 119.81 143.28 120.33 144.11 120.16 Z M 145.13 119.93 L 146.08 119.72 C 146.90 119.54 147.42 118.73 147.23 117.91 C 147.05 117.09 146.24 116.58 145.42 116.76 L 144.47 116.97 C 143.65 117.16 143.14 117.97 143.32 118.78 C 143.50 119.60 144.31 120.11 145.13 119.93 Z M 146.09 119.71 L 146.97 119.51 C 147.78 119.32 148.29 118.51 148.10 117.70 C 147.92 116.89 147.11 116.38 146.29 116.57 L 145.41 116.77 C 144.60 116.96 144.10 117.77 144.28 118.58 C 144.47 119.39 145.28 119.90 146.09 119.71 Z M 146.98 119.50 L 147.88 119.29 C 148.69 119.10 149.19 118.29 149.00 117.48 C 148.81 116.67 148.00 116.17 147.19 116.36 L 146.29 116.57 C 145.48 116.76 144.98 117.58 145.17 118.38 C 145.36 119.19 146.17 119.69 146.98 119.50 Z M 147.89 119.28 L 148.83 119.06 C 149.63 118.86 150.13 118.06 149.94 117.25 C 149.74 116.45 148.93 115.95 148.13 116.14 L 147.19 116.37 C 146.38 116.56 145.89 117.37 146.08 118.17 C 146.27 118.98 147.08 119.48 147.89 119.28 Z M 148.83 119.05 L 149.82 118.81 C 150.62 118.62 151.11 117.81 150.92 117.01 C 150.72 116.21 149.92 115.72 149.12 115.91 L 148.13 116.15 C 147.33 116.34 146.83 117.15 147.03 117.95 C 147.22 118.75 148.03 119.24 148.83 119.05 Z M 149.81 118.81 L 150.86 118.56 C 151.66 118.36 152.15 117.56 151.96 116.76 C 151.77 115.96 150.96 115.47 150.17 115.66 L 149.12 115.92 C 148.32 116.11 147.83 116.91 148.02 117.71 C 148.21 118.51 149.01 119.00 149.81 118.81 Z M 150.86 118.55 L 151.97 118.29 C 152.77 118.10 153.26 117.30 153.07 116.50 C 152.88 115.70 152.08 115.21 151.29 115.40 L 150.17 115.67 C 149.37 115.86 148.88 116.66 149.07 117.45 C 149.26 118.25 150.06 118.74 150.86 118.55 Z M 151.97 118.29 L 152.92 118.07 C 153.72 117.88 154.21 117.08 154.02 116.28 C 153.84 115.48 153.04 114.99 152.24 115.18 L 151.29 115.40 C 150.49 115.59 150.00 116.39 150.18 117.18 C 150.37 117.98 151.17 118.48 151.97 118.29 Z M 152.92 118.08 L 153.89 117.85 C 154.70 117.66 155.20 116.86 155.01 116.05 C 154.82 115.25 154.02 114.75 153.21 114.94 L 152.24 115.16 C 151.44 115.35 150.94 116.16 151.12 116.96 C 151.31 117.76 152.12 118.26 152.92 118.08 Z M 153.89 117.86 L 154.89 117.63 C 155.71 117.44 156.21 116.63 156.02 115.82 C 155.84 115.01 155.03 114.50 154.21 114.69 L 153.21 114.92 C 152.40 115.11 151.90 115.92 152.09 116.73 C 152.27 117.54 153.08 118.05 153.89 117.86 Z M 154.89 117.64 L 155.91 117.41 C 156.72 117.22 157.23 116.41 157.05 115.59 C 156.86 114.77 156.04 114.26 155.23 114.45 L 154.21 114.68 C 153.40 114.87 152.89 115.68 153.07 116.50 C 153.26 117.32 154.08 117.83 154.89 117.64 Z M 155.91 117.42 L 156.92 117.19 C 157.74 117.00 158.26 116.18 158.07 115.36 C 157.88 114.54 157.06 114.02 156.24 114.21 L 155.23 114.44 C 154.40 114.62 153.89 115.44 154.07 116.27 C 154.26 117.09 155.08 117.61 155.91 117.42 Z M 156.91 117.20 L 157.91 116.98 C 158.74 116.79 159.26 115.97 159.07 115.14 C 158.89 114.31 158.06 113.78 157.23 113.97 L 156.24 114.19 C 155.41 114.38 154.88 115.21 155.07 116.04 C 155.26 116.87 156.08 117.39 156.91 117.20 Z M 157.91 116.99 L 158.88 116.78 C 159.71 116.59 160.24 115.76 160.05 114.92 C 159.87 114.08 159.04 113.56 158.20 113.74 L 157.23 113.96 C 156.40 114.15 155.87 114.98 156.05 115.81 C 156.24 116.65 157.07 117.18 157.91 116.99 Z M 158.87 116.79 L 159.80 116.58 C 160.64 116.40 161.18 115.56 160.99 114.72 C 160.80 113.87 159.97 113.34 159.13 113.53 L 158.20 113.73 C 157.36 113.92 156.82 114.75 157.01 115.60 C 157.20 116.44 158.03 116.97 158.87 116.79 Z M 159.80 116.59 L 160.88 116.35 C 161.72 116.17 162.26 115.33 162.08 114.49 C 161.89 113.64 161.06 113.11 160.21 113.29 L 159.13 113.52 C 158.29 113.71 157.75 114.54 157.93 115.39 C 158.12 116.23 158.95 116.77 159.80 116.59 Z M 160.87 116.34 L 161.95 116.11 C 162.79 115.93 163.33 115.11 163.15 114.27 C 162.97 113.43 162.14 112.89 161.30 113.07 L 160.22 113.30 C 159.38 113.48 158.85 114.30 159.03 115.14 C 159.20 115.98 160.03 116.52 160.87 116.34 Z M 161.94 116.10 L 162.94 115.89 C 163.78 115.71 164.31 114.90 164.14 114.07 C 163.96 113.23 163.15 112.70 162.31 112.87 L 161.31 113.08 C 160.48 113.26 159.95 114.07 160.12 114.90 C 160.29 115.74 161.11 116.27 161.94 116.10 Z M 162.94 115.87 L 163.88 115.68 C 164.70 115.51 165.23 114.70 165.07 113.88 C 164.90 113.06 164.09 112.53 163.27 112.69 L 162.32 112.89 C 161.50 113.06 160.97 113.86 161.14 114.69 C 161.31 115.51 162.11 116.04 162.94 115.87 Z M 163.87 115.66 L 164.77 115.48 C 165.59 115.32 166.12 114.52 165.95 113.71 C 165.79 112.89 164.99 112.36 164.18 112.53 L 163.27 112.71 C 162.46 112.87 161.93 113.67 162.10 114.49 C 162.26 115.30 163.06 115.83 163.87 115.66 Z M 164.77 115.47 L 165.65 115.29 C 166.45 115.13 166.98 114.34 166.81 113.53 C 166.65 112.73 165.87 112.20 165.06 112.37 L 164.18 112.54 C 163.37 112.70 162.85 113.49 163.01 114.30 C 163.17 115.11 163.96 115.63 164.77 115.47 Z M 165.64 115.28 L 165.96 115.22 C 166.76 115.06 167.28 114.28 167.12 113.47 C 166.96 112.67 166.18 112.15 165.38 112.31 L 165.06 112.38 C 164.26 112.54 163.74 113.32 163.90 114.12 C 164.06 114.92 164.84 115.44 165.64 115.28 Z"
      fill="black"
      fill-rule="nonzero" /><path d="M 107.07 137.70 L 105.66 137.70 C 104.78 137.70 104.07 138.41 104.07 139.30 C 104.07 140.18 104.78 140.89 105.66 140.89 L 107.07 140.89 C 107.95 140.89 108.66 140.18 108.66 139.30 C 108.66 138.42 107.95 137.70 107.07 137.70 Z M 105.67 137.69 L 104.49 137.69 C 103.61 137.69 102.89 138.40 102.89 139.29 C 102.88 140.17 103.60 140.89 104.48 140.90 L 105.66 140.90 C 106.54 140.90 107.26 140.19 107.27 139.30 C 107.27 138.42 106.55 137.70 105.67 137.69 Z M 104.51 137.68 L 103.80 137.67 C 102.91 137.66 102.18 138.37 102.16 139.26 C 102.15 140.15 102.86 140.88 103.75 140.89 L 104.47 140.90 C 105.36 140.92 106.09 140.21 106.10 139.32 C 106.12 138.43 105.40 137.69 104.51 137.68 Z M 103.86 140.88 L 104.63 140.83 C 105.53 140.78 106.21 140.00 106.16 139.10 C 106.10 138.21 105.32 137.53 104.43 137.58 L 103.65 137.63 C 102.76 137.69 102.08 138.46 102.13 139.36 C 102.19 140.26 102.96 140.94 103.86 140.88 Z M 104.65 140.84 L 105.98 140.75 C 106.88 140.68 107.56 139.90 107.50 139.00 C 107.43 138.10 106.65 137.42 105.75 137.48 L 104.42 137.58 C 103.52 137.64 102.84 138.42 102.90 139.32 C 102.96 140.22 103.74 140.90 104.65 140.84 Z M 106.01 140.75 L 107.26 140.64 C 108.16 140.56 108.83 139.76 108.75 138.86 C 108.66 137.95 107.87 137.29 106.96 137.37 L 105.72 137.48 C 104.81 137.56 104.15 138.36 104.23 139.26 C 104.31 140.17 105.11 140.83 106.01 140.75 Z M 107.29 140.64 L 108.28 140.53 C 109.19 140.43 109.84 139.62 109.74 138.72 C 109.64 137.81 108.83 137.16 107.93 137.26 L 106.93 137.37 C 106.03 137.46 105.38 138.28 105.47 139.18 C 105.57 140.08 106.38 140.74 107.29 140.64 Z M 108.30 140.53 L 109.32 140.41 C 110.23 140.30 110.87 139.48 110.76 138.58 C 110.66 137.68 109.84 137.03 108.93 137.14 L 107.91 137.26 C 107.01 137.37 106.36 138.19 106.47 139.09 C 106.58 139.99 107.40 140.64 108.30 140.53 Z M 109.33 140.41 L 110.35 140.28 C 111.26 140.17 111.90 139.34 111.78 138.44 C 111.67 137.53 110.84 136.89 109.94 137.01 L 108.92 137.14 C 108.01 137.25 107.37 138.08 107.49 138.98 C 107.60 139.89 108.43 140.53 109.33 140.41 Z M 110.36 140.28 L 111.35 140.15 C 112.26 140.03 112.90 139.20 112.78 138.30 C 112.66 137.39 111.83 136.76 110.92 136.87 L 109.93 137.01 C 109.02 137.13 108.39 137.96 108.51 138.86 C 108.63 139.77 109.46 140.40 110.36 140.28 Z M 111.36 140.15 L 112.34 140.02 C 113.25 139.90 113.88 139.07 113.76 138.16 C 113.64 137.25 112.80 136.62 111.90 136.74 L 110.92 136.87 C 110.01 137.00 109.37 137.83 109.50 138.73 C 109.62 139.64 110.45 140.28 111.36 140.15 Z M 112.34 140.02 L 113.40 139.88 C 114.31 139.76 114.94 138.92 114.82 138.01 C 114.69 137.11 113.86 136.47 112.95 136.60 L 111.89 136.74 C 110.99 136.86 110.35 137.70 110.48 138.61 C 110.60 139.51 111.44 140.15 112.34 140.02 Z M 113.40 139.88 L 114.39 139.74 C 115.30 139.61 115.93 138.78 115.80 137.87 C 115.68 136.96 114.84 136.33 113.93 136.46 L 112.95 136.60 C 112.04 136.72 111.41 137.56 111.53 138.47 C 111.66 139.37 112.50 140.01 113.40 139.88 Z M 114.40 139.74 L 115.35 139.60 C 116.26 139.47 116.88 138.63 116.75 137.72 C 116.62 136.82 115.78 136.19 114.87 136.32 L 113.92 136.46 C 113.01 136.59 112.39 137.43 112.52 138.34 C 112.65 139.25 113.49 139.87 114.40 139.74 Z M 115.36 139.60 L 116.31 139.46 C 117.21 139.32 117.83 138.47 117.70 137.56 C 117.56 136.66 116.71 136.04 115.80 136.18 L 114.86 136.32 C 113.95 136.46 113.33 137.31 113.47 138.21 C 113.61 139.12 114.45 139.74 115.36 139.60 Z M 116.32 139.46 L 117.26 139.30 C 118.16 139.16 118.78 138.31 118.63 137.40 C 118.49 136.49 117.63 135.88 116.73 136.02 L 115.79 136.18 C 114.88 136.32 114.27 137.18 114.41 138.08 C 114.56 138.99 115.41 139.60 116.32 139.46 Z M 117.27 139.30 L 118.23 139.14 C 119.14 138.99 119.75 138.13 119.60 137.23 C 119.45 136.32 118.59 135.71 117.68 135.86 L 116.72 136.03 C 115.81 136.18 115.20 137.03 115.35 137.94 C 115.51 138.84 116.36 139.45 117.27 139.30 Z M 118.24 139.14 L 119.23 138.97 C 120.13 138.82 120.74 137.96 120.59 137.05 C 120.43 136.15 119.58 135.54 118.67 135.70 L 117.68 135.86 C 116.77 136.02 116.16 136.88 116.32 137.78 C 116.47 138.69 117.33 139.30 118.24 139.14 Z M 119.23 138.97 L 120.25 138.80 C 121.15 138.64 121.76 137.78 121.60 136.88 C 121.45 135.97 120.59 135.37 119.68 135.52 L 118.67 135.69 C 117.76 135.85 117.16 136.71 117.31 137.61 C 117.47 138.52 118.32 139.13 119.23 138.97 Z M 120.24 138.80 L 121.25 138.63 C 122.15 138.48 122.76 137.62 122.61 136.71 C 122.46 135.81 121.60 135.20 120.69 135.35 L 119.69 135.52 C 118.78 135.67 118.17 136.53 118.32 137.44 C 118.48 138.34 119.34 138.95 120.24 138.80 Z M 121.24 138.63 L 122.21 138.47 C 123.11 138.32 123.73 137.46 123.57 136.55 C 123.42 135.65 122.57 135.04 121.66 135.19 L 120.70 135.35 C 119.79 135.50 119.18 136.36 119.33 137.26 C 119.48 138.17 120.34 138.78 121.24 138.63 Z M 122.21 138.47 L 123.19 138.31 C 124.09 138.16 124.70 137.30 124.55 136.39 C 124.40 135.49 123.55 134.87 122.64 135.02 L 121.66 135.19 C 120.75 135.34 120.14 136.19 120.29 137.10 C 120.44 138.01 121.30 138.62 122.21 138.47 Z M 123.19 138.31 L 124.18 138.14 C 125.09 137.99 125.70 137.13 125.55 136.23 C 125.40 135.32 124.54 134.71 123.63 134.86 L 122.64 135.02 C 121.73 135.18 121.12 136.03 121.27 136.94 C 121.42 137.85 122.28 138.46 123.19 138.31 Z M 124.18 138.14 L 125.19 137.97 C 126.09 137.82 126.70 136.96 126.55 136.06 C 126.40 135.15 125.54 134.54 124.63 134.69 L 123.63 134.86 C 122.72 135.01 122.11 135.87 122.26 136.78 C 122.42 137.68 123.27 138.29 124.18 138.14 Z M 125.19 137.97 L 126.18 137.80 C 127.09 137.65 127.70 136.79 127.54 135.88 C 127.39 134.98 126.53 134.37 125.62 134.52 L 124.63 134.69 C 123.72 134.85 123.11 135.71 123.27 136.61 C 123.42 137.52 124.28 138.13 125.19 137.97 Z M 126.19 137.80 L 127.15 137.64 C 128.06 137.48 128.66 136.62 128.50 135.71 C 128.35 134.80 127.49 134.20 126.58 134.36 L 125.62 134.52 C 124.71 134.68 124.10 135.54 124.26 136.45 C 124.42 137.35 125.28 137.96 126.19 137.80 Z M 127.15 137.63 L 128.13 137.46 C 129.04 137.30 129.64 136.44 129.48 135.53 C 129.32 134.63 128.46 134.02 127.55 134.18 L 126.57 134.36 C 125.67 134.52 125.07 135.38 125.23 136.29 C 125.39 137.19 126.25 137.79 127.15 137.63 Z M 128.13 137.46 L 129.12 137.28 C 130.03 137.12 130.63 136.26 130.47 135.35 C 130.30 134.45 129.44 133.84 128.53 134.01 L 127.55 134.18 C 126.64 134.35 126.04 135.21 126.20 136.12 C 126.36 137.02 127.23 137.62 128.13 137.46 Z M 129.13 137.28 L 130.12 137.10 C 131.03 136.94 131.63 136.07 131.46 135.16 C 131.30 134.26 130.43 133.66 129.53 133.83 L 128.53 134.01 C 127.62 134.17 127.02 135.04 127.19 135.94 C 127.35 136.85 128.22 137.45 129.13 137.28 Z M 130.13 137.10 L 131.13 136.92 C 132.03 136.75 132.63 135.88 132.46 134.98 C 132.30 134.07 131.43 133.47 130.53 133.64 L 129.52 133.83 C 128.62 133.99 128.02 134.86 128.19 135.77 C 128.36 136.67 129.22 137.27 130.13 137.10 Z M 131.13 136.91 L 132.08 136.74 C 132.98 136.57 133.58 135.70 133.41 134.80 C 133.24 133.89 132.37 133.30 131.47 133.47 L 130.52 133.64 C 129.62 133.81 129.02 134.68 129.19 135.58 C 129.36 136.49 130.23 137.08 131.13 136.91 Z M 132.08 136.74 L 133.05 136.55 C 133.95 136.38 134.54 135.51 134.37 134.61 C 134.20 133.71 133.33 133.11 132.42 133.28 L 131.46 133.47 C 130.56 133.64 129.97 134.51 130.14 135.41 C 130.31 136.32 131.18 136.91 132.08 136.74 Z M 133.05 136.55 L 134.03 136.36 C 134.93 136.19 135.52 135.31 135.34 134.41 C 135.17 133.51 134.30 132.92 133.39 133.10 L 132.42 133.29 C 131.52 133.46 130.93 134.33 131.10 135.24 C 131.28 136.14 132.15 136.73 133.05 136.55 Z M 134.04 136.36 L 135.03 136.16 C 135.93 135.98 136.51 135.11 136.33 134.21 C 136.15 133.30 135.28 132.72 134.38 132.90 L 133.39 133.10 C 132.48 133.28 131.90 134.15 132.08 135.06 C 132.26 135.96 133.14 136.54 134.04 136.36 Z M 135.04 136.16 L 136.05 135.95 C 136.95 135.77 137.53 134.89 137.34 133.99 C 137.16 133.09 136.28 132.51 135.38 132.69 L 134.37 132.90 C 133.47 133.09 132.89 133.97 133.07 134.87 C 133.26 135.77 134.14 136.35 135.04 136.16 Z M 136.06 135.95 L 137.06 135.74 C 137.96 135.55 138.53 134.66 138.34 133.76 C 138.15 132.87 137.26 132.29 136.37 132.48 L 135.37 132.70 C 134.47 132.89 133.90 133.77 134.09 134.67 C 134.28 135.57 135.16 136.14 136.06 135.95 Z M 137.07 135.73 L 138.04 135.52 C 138.94 135.32 139.51 134.44 139.31 133.54 C 139.11 132.64 138.23 132.08 137.33 132.27 L 136.36 132.49 C 135.46 132.68 134.89 133.57 135.09 134.47 C 135.29 135.36 136.17 135.93 137.07 135.73 Z M 138.05 135.52 L 139.03 135.30 C 139.93 135.09 140.49 134.21 140.29 133.31 C 140.09 132.42 139.20 131.85 138.30 132.05 L 137.32 132.28 C 136.43 132.48 135.86 133.37 136.07 134.26 C 136.27 135.16 137.16 135.72 138.05 135.52 Z M 139.04 135.29 L 140.03 135.07 C 140.92 134.86 141.48 133.97 141.27 133.08 C 141.07 132.18 140.18 131.63 139.28 131.83 L 138.30 132.06 C 137.40 132.26 136.85 133.15 137.05 134.05 C 137.26 134.94 138.15 135.50 139.04 135.29 Z M 140.03 135.07 L 141.01 134.84 C 141.90 134.63 142.46 133.74 142.25 132.84 C 142.04 131.95 141.15 131.40 140.26 131.60 L 139.28 131.83 C 138.38 132.04 137.83 132.93 138.04 133.83 C 138.25 134.72 139.14 135.27 140.03 135.07 Z M 141.02 134.84 L 141.99 134.61 C 142.88 134.40 143.43 133.50 143.22 132.61 C 143.01 131.72 142.11 131.17 141.22 131.38 L 140.25 131.61 C 139.36 131.82 138.81 132.71 139.02 133.60 C 139.23 134.49 140.12 135.05 141.02 134.84 Z M 141.99 134.61 L 142.96 134.37 C 143.86 134.16 144.41 133.27 144.19 132.37 C 143.98 131.48 143.09 130.93 142.20 131.15 L 141.22 131.38 C 140.33 131.59 139.78 132.49 139.99 133.38 C 140.20 134.27 141.10 134.82 141.99 134.61 Z M 142.97 134.37 L 143.97 134.13 C 144.86 133.92 145.41 133.02 145.19 132.13 C 144.98 131.24 144.08 130.69 143.20 130.91 L 142.19 131.15 C 141.30 131.36 140.75 132.26 140.97 133.15 C 141.18 134.04 142.08 134.58 142.97 134.37 Z M 143.97 134.13 L 144.96 133.89 C 145.84 133.67 146.39 132.78 146.17 131.89 C 145.96 131.00 145.06 130.46 144.17 130.67 L 143.19 130.91 C 142.30 131.13 141.76 132.02 141.97 132.91 C 142.19 133.80 143.08 134.34 143.97 134.13 Z M 144.96 133.88 L 145.93 133.65 C 146.81 133.43 147.36 132.53 147.14 131.65 C 146.92 130.76 146.02 130.22 145.14 130.44 L 144.17 130.67 C 143.28 130.89 142.74 131.79 142.96 132.67 C 143.18 133.56 144.07 134.10 144.96 133.88 Z M 145.93 133.64 L 146.89 133.41 C 147.77 133.18 148.31 132.29 148.09 131.40 C 147.87 130.52 146.97 129.98 146.08 130.20 L 145.13 130.44 C 144.25 130.66 143.71 131.56 143.93 132.44 C 144.15 133.33 145.05 133.87 145.93 133.64 Z M 146.89 133.40 L 147.84 133.16 C 148.72 132.94 149.25 132.04 149.03 131.16 C 148.80 130.27 147.91 129.74 147.02 129.96 L 146.08 130.20 C 145.20 130.43 144.66 131.33 144.89 132.21 C 145.11 133.09 146.01 133.63 146.89 133.40 Z M 147.84 133.16 L 148.81 132.91 C 149.69 132.68 150.22 131.78 149.99 130.90 C 149.76 130.02 148.86 129.49 147.98 129.72 L 147.02 129.97 C 146.14 130.20 145.61 131.10 145.84 131.98 C 146.06 132.86 146.96 133.39 147.84 133.16 Z M 148.81 132.90 L 149.79 132.64 C 150.67 132.41 151.19 131.51 150.96 130.63 C 150.72 129.76 149.82 129.23 148.95 129.46 L 147.97 129.72 C 147.09 129.95 146.57 130.85 146.80 131.73 C 147.04 132.61 147.94 133.13 148.81 132.90 Z M 149.79 132.64 L 150.76 132.38 C 151.64 132.15 152.16 131.25 151.92 130.37 C 151.69 129.50 150.79 128.98 149.91 129.21 L 148.94 129.47 C 148.07 129.70 147.55 130.60 147.78 131.48 C 148.02 132.35 148.92 132.87 149.79 132.64 Z M 150.76 132.38 L 151.73 132.12 C 152.60 131.88 153.12 130.98 152.88 130.11 C 152.65 129.24 151.75 128.72 150.87 128.95 L 149.91 129.21 C 149.04 129.45 148.52 130.35 148.75 131.22 C 148.99 132.09 149.89 132.61 150.76 132.38 Z M 151.72 132.12 L 152.69 131.86 C 153.56 131.62 154.07 130.73 153.84 129.85 C 153.61 128.98 152.71 128.46 151.84 128.70 L 150.88 128.96 C 150.00 129.19 149.49 130.09 149.72 130.96 C 149.96 131.83 150.85 132.35 151.72 132.12 Z M 152.68 131.85 L 153.64 131.60 C 154.51 131.37 155.03 130.47 154.80 129.60 C 154.56 128.73 153.67 128.21 152.80 128.44 L 151.84 128.70 C 150.97 128.93 150.45 129.83 150.68 130.70 C 150.92 131.57 151.81 132.09 152.68 131.85 Z M 153.64 131.60 L 154.61 131.34 C 155.48 131.11 156.00 130.22 155.77 129.35 C 155.54 128.48 154.65 127.96 153.78 128.19 L 152.80 128.45 C 151.94 128.68 151.42 129.57 151.65 130.44 C 151.87 131.31 152.77 131.83 153.64 131.60 Z M 154.61 131.33 L 155.58 131.08 C 156.45 130.85 156.97 129.97 156.74 129.10 C 156.51 128.23 155.63 127.71 154.76 127.94 L 153.79 128.19 C 152.92 128.42 152.40 129.31 152.63 130.17 C 152.85 131.04 153.74 131.56 154.61 131.33 Z M 155.58 131.08 L 156.54 130.83 C 157.41 130.60 157.93 129.72 157.70 128.85 C 157.48 127.99 156.60 127.47 155.73 127.69 L 154.76 127.94 C 153.90 128.17 153.38 129.05 153.60 129.92 C 153.83 130.78 154.71 131.30 155.58 131.08 Z M 156.54 130.82 L 157.51 130.57 C 158.37 130.35 158.89 129.47 158.66 128.60 C 158.44 127.74 157.56 127.22 156.70 127.45 L 155.73 127.70 C 154.87 127.92 154.35 128.80 154.57 129.66 C 154.80 130.53 155.68 131.04 156.54 130.82 Z M 157.50 130.57 L 158.46 130.32 C 159.32 130.10 159.84 129.22 159.62 128.36 C 159.39 127.50 158.52 126.98 157.66 127.20 L 156.70 127.45 C 155.84 127.67 155.32 128.55 155.54 129.41 C 155.77 130.27 156.64 130.79 157.50 130.57 Z M 158.46 130.31 L 159.45 130.06 C 160.31 129.83 160.82 128.96 160.60 128.10 C 160.37 127.24 159.50 126.73 158.64 126.95 L 157.66 127.21 C 156.80 127.43 156.28 128.31 156.51 129.16 C 156.73 130.02 157.61 130.54 158.46 130.31 Z M 159.45 130.05 L 160.43 129.79 C 161.29 129.57 161.80 128.70 161.58 127.85 C 161.35 126.99 160.48 126.48 159.63 126.70 L 158.64 126.96 C 157.79 127.18 157.27 128.05 157.50 128.91 C 157.72 129.76 158.59 130.27 159.45 130.05 Z M 160.43 129.79 L 161.40 129.54 C 162.25 129.32 162.77 128.45 162.54 127.60 C 162.32 126.74 161.45 126.23 160.60 126.45 L 159.63 126.71 C 158.78 126.93 158.27 127.80 158.49 128.65 C 158.71 129.50 159.58 130.01 160.43 129.79 Z M 161.40 129.53 L 162.36 129.28 C 163.21 129.07 163.72 128.20 163.50 127.35 C 163.28 126.50 162.42 125.99 161.57 126.21 L 160.61 126.46 C 159.76 126.68 159.25 127.54 159.47 128.39 C 159.69 129.24 160.55 129.75 161.40 129.53 Z M 162.35 129.28 L 163.30 129.04 C 164.14 128.82 164.66 127.97 164.44 127.12 C 164.23 126.27 163.37 125.76 162.52 125.98 L 161.58 126.22 C 160.73 126.43 160.22 127.29 160.43 128.14 C 160.65 128.98 161.51 129.49 162.35 129.28 Z M 163.29 129.03 L 164.26 128.79 C 165.11 128.58 165.62 127.73 165.41 126.89 C 165.20 126.04 164.35 125.53 163.50 125.74 L 162.53 125.98 C 161.69 126.19 161.17 127.04 161.38 127.89 C 161.59 128.73 162.45 129.24 163.29 129.03 Z M 164.25 128.79 L 165.23 128.55 C 166.07 128.35 166.59 127.50 166.39 126.66 C 166.18 125.82 165.34 125.30 164.49 125.51 L 163.52 125.74 C 162.67 125.95 162.16 126.79 162.36 127.63 C 162.57 128.48 163.41 128.99 164.25 128.79 Z M 165.22 128.55 L 166.19 128.32 C 167.03 128.12 167.55 127.28 167.35 126.44 C 167.15 125.60 166.31 125.08 165.47 125.28 L 164.51 125.51 C 163.67 125.71 163.15 126.55 163.35 127.39 C 163.54 128.22 164.38 128.74 165.22 128.55 Z M 166.18 128.31 L 167.14 128.09 C 167.98 127.90 168.50 127.07 168.31 126.24 C 168.12 125.40 167.29 124.88 166.45 125.07 L 165.49 125.29 C 164.65 125.48 164.13 126.31 164.32 127.14 C 164.51 127.98 165.34 128.50 166.18 128.31 Z M 167.13 128.09 L 168.10 127.88 C 168.93 127.70 169.46 126.87 169.28 126.04 C 169.09 125.20 168.27 124.68 167.43 124.86 L 166.47 125.07 C 165.63 125.25 165.10 126.08 165.29 126.91 C 165.47 127.75 166.29 128.27 167.13 128.09 Z M 168.08 127.87 L 169.10 127.66 C 169.93 127.49 170.46 126.67 170.29 125.84 C 170.11 125.01 169.30 124.47 168.46 124.65 L 167.45 124.86 C 166.62 125.04 166.08 125.85 166.26 126.69 C 166.43 127.52 167.25 128.05 168.08 127.87 Z M 169.08 127.66 L 170.10 127.45 C 170.93 127.28 171.46 126.47 171.30 125.65 C 171.13 124.82 170.32 124.28 169.49 124.45 L 168.48 124.65 C 167.65 124.82 167.11 125.63 167.28 126.46 C 167.45 127.29 168.26 127.82 169.08 127.66 Z M 170.09 127.45 L 171.08 127.25 C 171.90 127.09 172.44 126.29 172.28 125.46 C 172.12 124.64 171.32 124.10 170.49 124.26 L 169.50 124.45 C 168.68 124.61 168.14 125.42 168.30 126.24 C 168.46 127.07 169.26 127.61 170.09 127.45 Z M 171.07 127.25 L 172.02 127.07 C 172.84 126.91 173.38 126.12 173.23 125.30 C 173.07 124.47 172.28 123.93 171.46 124.09 L 170.51 124.26 C 169.68 124.42 169.14 125.21 169.29 126.04 C 169.45 126.86 170.24 127.40 171.07 127.25 Z M 172.01 127.06 L 172.96 126.89 C 173.78 126.74 174.32 125.96 174.17 125.14 C 174.03 124.31 173.24 123.77 172.42 123.92 L 171.47 124.09 C 170.65 124.24 170.10 125.02 170.25 125.85 C 170.40 126.67 171.19 127.21 172.01 127.06 Z M 172.94 126.89 L 173.92 126.72 C 174.74 126.58 175.29 125.80 175.15 124.98 C 175.01 124.17 174.24 123.62 173.42 123.76 L 172.44 123.92 C 171.62 124.06 171.07 124.84 171.21 125.66 C 171.35 126.48 172.12 127.03 172.94 126.89 Z M 173.90 126.72 L 174.86 126.57 C 175.67 126.44 176.23 125.68 176.11 124.86 C 175.98 124.05 175.22 123.49 174.40 123.61 L 173.44 123.76 C 172.63 123.88 172.07 124.65 172.19 125.46 C 172.32 126.28 173.08 126.84 173.90 126.72 Z M 174.83 126.57 L 175.81 126.43 C 176.63 126.33 177.20 125.58 177.09 124.76 C 176.98 123.95 176.23 123.38 175.42 123.48 L 174.43 123.62 C 173.62 123.72 173.05 124.47 173.15 125.29 C 173.26 126.10 174.01 126.67 174.83 126.57 Z M 175.78 126.43 L 176.77 126.32 C 177.59 126.23 178.17 125.49 178.08 124.68 C 177.99 123.87 177.25 123.28 176.44 123.37 L 175.45 123.49 C 174.64 123.58 174.05 124.31 174.14 125.13 C 174.24 125.94 174.97 126.52 175.78 126.43 Z M 176.75 126.31 L 177.74 126.22 C 178.55 126.14 179.14 125.42 179.06 124.61 C 178.99 123.80 178.26 123.20 177.45 123.28 L 176.46 123.38 C 175.65 123.46 175.06 124.18 175.14 124.99 C 175.22 125.80 175.94 126.39 176.75 126.31 Z M 177.72 126.22 L 178.74 126.13 C 179.55 126.06 180.15 125.35 180.08 124.54 C 180.01 123.74 179.30 123.13 178.50 123.20 L 177.47 123.29 C 176.67 123.35 176.06 124.06 176.13 124.87 C 176.20 125.68 176.91 126.28 177.72 126.22 Z M 178.72 126.13 L 179.74 126.06 C 180.54 126.00 181.15 125.30 181.10 124.49 C 181.04 123.69 180.34 123.08 179.53 123.13 L 178.52 123.20 C 177.71 123.26 177.10 123.96 177.16 124.77 C 177.21 125.57 177.91 126.18 178.72 126.13 Z M 179.71 126.05 L 180.71 126.00 C 181.51 125.96 182.13 125.27 182.09 124.46 C 182.04 123.66 181.35 123.04 180.55 123.09 L 179.56 123.14 C 178.75 123.18 178.13 123.87 178.18 124.67 C 178.22 125.48 178.91 126.10 179.71 126.05 Z M 180.68 125.99 L 181.75 125.96 C 182.55 125.93 183.18 125.25 183.15 124.45 C 183.12 123.65 182.45 123.02 181.64 123.05 L 180.58 123.09 C 179.78 123.12 179.15 123.79 179.18 124.59 C 179.21 125.39 179.88 126.02 180.68 125.99 Z M 181.72 125.95 L 182.72 125.93 C 183.52 125.92 184.16 125.26 184.14 124.46 C 184.13 123.66 183.47 123.03 182.67 123.04 L 181.67 123.06 C 180.87 123.07 180.24 123.73 180.25 124.53 C 180.27 125.33 180.92 125.96 181.72 125.95 Z M 182.71 125.92 L 183.67 125.92 C 184.46 125.91 185.10 125.27 185.09 124.47 C 185.09 123.68 184.44 123.04 183.65 123.04 L 182.69 123.05 C 181.90 123.05 181.26 123.70 181.26 124.49 C 181.27 125.29 181.91 125.93 182.71 125.92 Z M 183.66 125.91 L 184.32 125.91 C 185.11 125.91 185.75 125.27 185.75 124.48 C 185.75 123.69 185.11 123.05 184.32 123.05 L 183.66 123.05 C 182.87 123.05 182.23 123.69 182.23 124.48 C 182.23 125.27 182.87 125.91 183.66 125.91 Z"
      fill="black"
      fill-rule="nonzero" /><path d="M 145.34 133.59 L 144.98 134.51 C 144.68 135.30 145.07 136.17 145.86 136.48 C 146.64 136.78 147.52 136.39 147.82 135.60 L 148.17 134.68 C 148.47 133.90 148.08 133.02 147.30 132.72 C 146.52 132.42 145.64 132.81 145.34 133.59 Z M 144.94 134.56 L 144.61 135.50 C 144.34 136.31 144.77 137.19 145.58 137.46 C 146.39 137.74 147.27 137.31 147.54 136.50 L 147.86 135.56 C 148.14 134.75 147.71 133.87 146.90 133.60 C 146.09 133.32 145.21 133.75 144.94 134.56 Z M 144.55 135.60 L 144.30 136.58 C 144.08 137.42 144.58 138.28 145.42 138.50 C 146.26 138.72 147.13 138.22 147.35 137.37 L 147.60 136.40 C 147.82 135.56 147.32 134.69 146.48 134.47 C 145.64 134.25 144.77 134.76 144.55 135.60 Z M 144.24 136.72 L 144.09 137.65 C 143.95 138.52 144.55 139.34 145.42 139.48 C 146.29 139.62 147.11 139.03 147.25 138.16 L 147.40 137.23 C 147.54 136.36 146.95 135.54 146.08 135.40 C 145.21 135.26 144.38 135.85 144.24 136.72 Z M 144.06 137.77 L 143.99 138.71 C 143.92 139.60 144.58 140.37 145.47 140.45 C 146.36 140.52 147.14 139.85 147.21 138.97 L 147.28 138.03 C 147.35 137.14 146.69 136.36 145.80 136.29 C 144.91 136.22 144.14 136.88 144.06 137.77 Z M 143.97 138.79 L 143.94 139.80 C 143.92 140.69 144.62 141.44 145.52 141.47 C 146.42 141.50 147.17 140.79 147.19 139.89 L 147.22 138.89 C 147.25 137.99 146.54 137.24 145.65 137.21 C 144.75 137.19 144.00 137.89 143.97 138.79 Z M 143.93 139.84 L 143.92 140.93 C 143.92 141.83 144.65 142.57 145.55 142.58 C 146.46 142.58 147.20 141.85 147.20 140.95 L 147.21 139.85 C 147.21 138.95 146.48 138.21 145.58 138.21 C 144.67 138.20 143.93 138.93 143.93 139.84 Z M 143.92 140.94 L 143.92 141.96 C 143.92 142.87 144.65 143.60 145.56 143.60 C 146.47 143.60 147.21 142.87 147.21 141.96 L 147.21 140.94 C 147.21 140.03 146.47 139.29 145.56 139.29 C 144.65 139.29 143.92 140.03 143.92 140.94 Z M 143.91 141.96 L 143.91 142.98 C 143.91 143.90 144.65 144.64 145.56 144.64 C 146.48 144.64 147.22 143.90 147.22 142.98 L 147.22 141.96 C 147.22 141.04 146.48 140.30 145.56 140.30 C 144.65 140.30 143.91 141.04 143.91 141.96 Z M 143.90 142.98 L 143.90 144.01 C 143.90 144.93 144.65 145.67 145.56 145.67 C 146.48 145.67 147.22 144.93 147.22 144.01 L 147.22 142.98 C 147.22 142.06 146.48 141.32 145.56 141.32 C 144.65 141.32 143.90 142.06 143.90 142.98 Z M 143.90 144.01 L 143.90 145.02 C 143.90 145.94 144.64 146.68 145.56 146.68 C 146.48 146.68 147.23 145.94 147.23 145.02 L 147.23 144.01 C 147.23 143.09 146.48 142.35 145.56 142.35 C 144.64 142.35 143.90 143.09 143.90 144.01 Z M 143.89 145.02 L 143.89 145.99 C 143.89 146.91 144.64 147.66 145.56 147.66 C 146.49 147.66 147.23 146.91 147.23 145.99 L 147.23 145.02 C 147.23 144.09 146.49 143.34 145.56 143.34 C 144.64 143.34 143.89 144.09 143.89 145.02 Z M 143.89 145.99 L 143.88 147.07 C 143.88 147.99 144.63 148.74 145.56 148.75 C 146.48 148.75 147.24 148.00 147.24 147.07 L 147.24 145.99 C 147.24 145.07 146.49 144.31 145.56 144.31 C 144.64 144.31 143.89 145.06 143.89 145.99 Z M 143.88 147.06 L 143.87 148.04 C 143.87 148.97 144.61 149.72 145.54 149.73 C 146.47 149.74 147.22 148.99 147.23 148.07 L 147.24 147.08 C 147.25 146.16 146.50 145.40 145.57 145.39 C 144.65 145.38 143.89 146.13 143.88 147.06 Z M 143.87 148.02 L 143.85 148.96 C 143.83 149.89 144.57 150.65 145.50 150.67 C 146.43 150.69 147.19 149.96 147.21 149.03 L 147.23 148.09 C 147.25 147.16 146.52 146.39 145.59 146.37 C 144.66 146.35 143.89 147.09 143.87 148.02 Z M 143.85 148.93 L 143.82 149.86 C 143.78 150.79 144.50 151.57 145.43 151.61 C 146.36 151.65 147.14 150.92 147.18 150.00 L 147.21 149.06 C 147.25 148.13 146.53 147.35 145.60 147.31 C 144.67 147.28 143.89 148.00 143.85 148.93 Z M 143.82 149.82 L 143.75 150.78 C 143.69 151.71 144.39 152.51 145.32 152.57 C 146.25 152.63 147.05 151.93 147.11 151.00 L 147.18 150.04 C 147.24 149.11 146.54 148.31 145.61 148.25 C 144.68 148.19 143.88 148.89 143.82 149.82 Z M 143.76 150.71 L 143.65 151.71 C 143.56 152.64 144.23 153.47 145.15 153.56 C 146.07 153.66 146.90 152.99 147.00 152.07 L 147.11 151.07 C 147.20 150.14 146.53 149.32 145.61 149.22 C 144.69 149.12 143.86 149.79 143.76 150.71 Z M 143.67 151.63 L 143.50 152.67 C 143.36 153.58 143.98 154.44 144.90 154.59 C 145.82 154.73 146.68 154.11 146.82 153.19 L 146.99 152.15 C 147.13 151.24 146.51 150.37 145.59 150.23 C 144.67 150.08 143.81 150.71 143.67 151.63 Z M 143.52 152.58 L 143.32 153.52 C 143.12 154.43 143.70 155.32 144.61 155.51 C 145.52 155.71 146.41 155.13 146.61 154.22 L 146.81 153.28 C 147.00 152.37 146.42 151.48 145.52 151.28 C 144.61 151.09 143.71 151.67 143.52 152.58 Z M 143.33 153.45 L 143.09 154.38 C 142.86 155.28 143.39 156.20 144.29 156.43 C 145.19 156.67 146.11 156.13 146.34 155.23 L 146.59 154.29 C 146.82 153.40 146.28 152.48 145.39 152.24 C 144.49 152.01 143.57 152.55 143.33 153.45 Z M 143.11 154.33 L 142.82 155.29 C 142.56 156.18 143.07 157.12 143.96 157.38 C 144.85 157.64 145.78 157.14 146.05 156.25 L 146.33 155.28 C 146.59 154.39 146.08 153.46 145.19 153.19 C 144.30 152.93 143.37 153.44 143.11 154.33 Z M 142.83 155.26 L 142.51 156.25 C 142.23 157.13 142.72 158.08 143.60 158.36 C 144.49 158.64 145.43 158.16 145.72 157.27 L 146.03 156.28 C 146.32 155.40 145.83 154.45 144.95 154.17 C 144.06 153.88 143.12 154.37 142.83 155.26 Z M 142.52 156.22 L 142.20 157.19 C 141.90 158.06 142.38 159.02 143.26 159.31 C 144.14 159.61 145.09 159.14 145.38 158.26 L 145.71 157.29 C 146.00 156.42 145.53 155.46 144.65 155.17 C 143.77 154.87 142.82 155.34 142.52 156.22 Z M 142.21 157.17 L 141.90 158.07 C 141.59 158.94 142.06 159.90 142.93 160.20 C 143.81 160.51 144.76 160.04 145.06 159.17 L 145.38 158.27 C 145.68 157.40 145.22 156.44 144.34 156.14 C 143.47 155.83 142.51 156.30 142.21 157.17 Z M 141.90 158.05 L 141.58 158.97 C 141.26 159.84 141.72 160.80 142.59 161.11 C 143.46 161.43 144.42 160.97 144.73 160.10 L 145.06 159.18 C 145.37 158.31 144.91 157.35 144.04 157.04 C 143.17 156.73 142.22 157.18 141.90 158.05 Z M 141.58 158.96 L 141.24 159.90 C 140.92 160.77 141.36 161.73 142.22 162.05 C 143.09 162.37 144.05 161.93 144.37 161.06 L 144.72 160.12 C 145.04 159.25 144.60 158.29 143.73 157.97 C 142.86 157.65 141.90 158.09 141.58 158.96 Z M 141.25 159.89 L 140.87 160.86 C 140.55 161.72 140.98 162.68 141.84 163.01 C 142.70 163.34 143.66 162.91 143.99 162.05 L 144.36 161.08 C 144.69 160.22 144.26 159.25 143.40 158.93 C 142.54 158.60 141.57 159.03 141.25 159.89 Z M 140.88 160.85 L 140.50 161.81 C 140.17 162.67 140.59 163.63 141.44 163.97 C 142.29 164.30 143.26 163.89 143.60 163.03 L 143.98 162.06 C 144.31 161.21 143.90 160.24 143.04 159.91 C 142.19 159.57 141.22 159.99 140.88 160.85 Z M 140.51 161.80 L 140.15 162.69 C 139.80 163.54 140.21 164.51 141.06 164.85 C 141.91 165.20 142.88 164.79 143.22 163.94 L 143.59 163.05 C 143.93 162.20 143.52 161.23 142.67 160.88 C 141.83 160.54 140.86 160.95 140.51 161.80 Z M 140.16 162.68 L 139.78 163.59 C 139.42 164.43 139.82 165.40 140.67 165.76 C 141.51 166.11 142.48 165.71 142.83 164.87 L 143.21 163.96 C 143.57 163.11 143.17 162.14 142.33 161.79 C 141.48 161.44 140.51 161.83 140.16 162.68 Z M 139.79 163.57 L 139.39 164.50 C 139.03 165.34 139.42 166.31 140.25 166.67 C 141.09 167.03 142.06 166.64 142.42 165.80 L 142.82 164.88 C 143.18 164.04 142.80 163.07 141.96 162.71 C 141.12 162.35 140.15 162.74 139.79 163.57 Z M 139.40 164.48 L 138.99 165.41 C 138.62 166.24 138.99 167.22 139.83 167.59 C 140.66 167.96 141.63 167.58 142.00 166.75 L 142.41 165.82 C 142.78 164.99 142.41 164.01 141.58 163.64 C 140.74 163.28 139.77 163.65 139.40 164.48 Z M 139.00 165.39 L 138.57 166.32 C 138.19 167.15 138.56 168.13 139.38 168.50 C 140.21 168.88 141.18 168.52 141.56 167.70 L 141.99 166.77 C 142.37 165.94 142.01 164.96 141.18 164.59 C 140.35 164.21 139.38 164.57 139.00 165.39 Z M 138.59 166.31 L 138.15 167.22 C 137.76 168.04 138.11 169.02 138.93 169.41 C 139.75 169.80 140.73 169.45 141.12 168.63 L 141.55 167.71 C 141.94 166.89 141.59 165.92 140.77 165.53 C 139.95 165.14 138.97 165.49 138.59 166.31 Z M 138.17 167.20 L 137.73 168.10 C 137.33 168.91 137.67 169.89 138.48 170.29 C 139.29 170.69 140.27 170.35 140.67 169.54 L 141.10 168.64 C 141.50 167.83 141.17 166.85 140.35 166.46 C 139.54 166.06 138.56 166.39 138.17 167.20 Z M 137.74 168.08 L 137.29 168.97 C 136.89 169.77 137.21 170.75 138.01 171.16 C 138.81 171.57 139.79 171.25 140.20 170.44 L 140.65 169.56 C 141.06 168.75 140.74 167.77 139.93 167.36 C 139.13 166.96 138.15 167.28 137.74 168.08 Z M 137.31 168.95 L 136.84 169.84 C 136.43 170.63 136.74 171.61 137.53 172.03 C 138.33 172.45 139.31 172.14 139.72 171.34 L 140.19 170.46 C 140.60 169.66 140.29 168.68 139.50 168.27 C 138.70 167.85 137.72 168.16 137.31 168.95 Z M 136.86 169.82 L 136.38 170.70 C 135.96 171.49 136.25 172.47 137.04 172.90 C 137.83 173.32 138.81 173.03 139.23 172.24 L 139.71 171.36 C 140.13 170.57 139.84 169.59 139.05 169.17 C 138.27 168.74 137.28 169.03 136.86 169.82 Z M 136.40 170.69 L 135.91 171.57 C 135.48 172.34 135.76 173.33 136.54 173.76 C 137.31 174.19 138.30 173.91 138.73 173.14 L 139.22 172.26 C 139.65 171.48 139.37 170.49 138.59 170.06 C 137.81 169.63 136.83 169.91 136.40 170.69 Z M 135.92 171.55 L 135.43 172.42 C 134.99 173.19 135.25 174.17 136.02 174.61 C 136.79 175.06 137.78 174.79 138.22 174.02 L 138.72 173.15 C 139.16 172.38 138.89 171.40 138.12 170.95 C 137.35 170.51 136.37 170.78 135.92 171.55 Z M 135.44 172.40 L 134.94 173.25 C 134.49 174.02 134.75 175.00 135.51 175.45 C 136.27 175.90 137.25 175.64 137.70 174.88 L 138.20 174.03 C 138.65 173.27 138.40 172.29 137.64 171.84 C 136.87 171.39 135.89 171.64 135.44 172.40 Z M 134.96 173.24 L 134.44 174.09 C 133.98 174.84 134.23 175.83 134.98 176.28 C 135.73 176.74 136.72 176.50 137.17 175.75 L 137.69 174.90 C 138.15 174.14 137.90 173.16 137.15 172.70 C 136.40 172.24 135.41 172.49 134.96 173.24 Z M 134.46 174.08 L 133.93 174.92 C 133.46 175.67 133.69 176.65 134.44 177.12 C 135.18 177.58 136.17 177.35 136.63 176.61 L 137.16 175.76 C 137.62 175.01 137.40 174.03 136.65 173.57 C 135.90 173.10 134.92 173.33 134.46 174.08 Z M 133.94 174.91 L 133.40 175.76 C 132.93 176.49 133.14 177.48 133.88 177.95 C 134.62 178.42 135.60 178.21 136.07 177.47 L 136.62 176.62 C 137.09 175.88 136.87 174.90 136.14 174.43 C 135.40 173.96 134.42 174.17 133.94 174.91 Z M 133.42 175.74 L 132.86 176.59 C 132.38 177.32 132.58 178.30 133.31 178.78 C 134.04 179.26 135.02 179.05 135.50 178.32 L 136.06 177.48 C 136.54 176.75 136.34 175.77 135.61 175.29 C 134.88 174.81 133.90 175.01 133.42 175.74 Z M 132.88 176.57 L 132.31 177.41 C 131.82 178.13 132.01 179.11 132.73 179.60 C 133.45 180.09 134.43 179.90 134.92 179.18 L 135.49 178.34 C 135.97 177.62 135.79 176.64 135.07 176.15 C 134.34 175.66 133.37 175.85 132.88 176.57 Z M 132.33 177.40 L 131.76 178.21 C 131.27 178.92 131.44 179.90 132.15 180.40 C 132.87 180.89 133.84 180.71 134.34 180.00 L 134.90 179.19 C 135.40 178.48 135.22 177.50 134.51 177.00 C 133.80 176.51 132.82 176.68 132.33 177.40 Z M 131.78 178.20 L 131.20 179.01 C 130.70 179.71 130.86 180.69 131.56 181.19 C 132.27 181.69 133.24 181.53 133.75 180.82 L 134.32 180.01 C 134.82 179.31 134.66 178.33 133.96 177.83 C 133.25 177.33 132.28 177.50 131.78 178.20 Z M 131.21 179.00 L 130.62 179.81 C 130.12 180.50 130.27 181.48 130.97 181.98 C 131.66 182.49 132.64 182.34 133.14 181.64 L 133.73 180.83 C 134.24 180.14 134.09 179.16 133.39 178.66 C 132.69 178.15 131.72 178.30 131.21 179.00 Z M 130.64 179.80 L 130.04 180.60 C 129.53 181.29 129.67 182.26 130.36 182.77 C 131.05 183.29 132.02 183.14 132.53 182.46 L 133.13 181.65 C 133.64 180.96 133.50 179.99 132.81 179.48 C 132.12 178.97 131.15 179.11 130.64 179.80 Z M 130.05 180.59 L 129.45 181.40 C 128.93 182.08 129.06 183.05 129.74 183.56 C 130.43 184.08 131.40 183.94 131.91 183.26 L 132.52 182.46 C 133.03 181.78 132.90 180.81 132.22 180.30 C 131.54 179.78 130.57 179.91 130.05 180.59 Z M 129.46 181.39 L 128.84 182.19 C 128.32 182.86 128.45 183.83 129.12 184.35 C 129.80 184.87 130.77 184.74 131.28 184.07 L 131.90 183.27 C 132.42 182.60 132.29 181.63 131.62 181.11 C 130.94 180.59 129.98 180.72 129.46 181.39 Z M 128.85 182.18 L 128.23 182.98 C 127.71 183.64 127.83 184.61 128.50 185.13 C 129.17 185.65 130.13 185.53 130.65 184.87 L 131.27 184.07 C 131.80 183.41 131.68 182.44 131.01 181.92 C 130.34 181.40 129.38 181.51 128.85 182.18 Z M 128.24 182.97 L 127.62 183.76 C 127.09 184.42 127.20 185.38 127.87 185.91 C 128.53 186.43 129.49 186.32 130.02 185.66 L 130.64 184.87 C 131.17 184.21 131.06 183.25 130.39 182.72 C 129.73 182.20 128.77 182.31 128.24 182.97 Z M 127.63 183.75 L 127.00 184.54 C 126.47 185.19 126.57 186.15 127.23 186.68 C 127.89 187.21 128.84 187.11 129.37 186.45 L 130.00 185.67 C 130.53 185.01 130.43 184.05 129.77 183.52 C 129.12 183.00 128.16 183.10 127.63 183.75 Z M 127.01 184.53 L 126.38 185.31 C 125.84 185.96 125.94 186.92 126.59 187.45 C 127.24 187.98 128.20 187.88 128.73 187.23 L 129.36 186.46 C 129.89 185.81 129.80 184.85 129.15 184.32 C 128.50 183.79 127.54 183.88 127.01 184.53 Z M 126.39 185.30 L 125.75 186.07 C 125.22 186.71 125.30 187.67 125.95 188.20 C 126.59 188.74 127.54 188.65 128.08 188.00 L 128.71 187.24 C 129.25 186.59 129.16 185.64 128.52 185.11 C 127.87 184.57 126.92 184.66 126.39 185.30 Z M 125.76 186.07 L 125.12 186.82 C 124.58 187.46 124.67 188.41 125.30 188.95 C 125.94 189.48 126.89 189.40 127.43 188.77 L 128.07 188.01 C 128.60 187.37 128.52 186.42 127.89 185.89 C 127.25 185.35 126.30 185.43 125.76 186.07 Z M 125.13 186.82 L 124.49 187.57 C 123.95 188.20 124.02 189.15 124.65 189.69 C 125.28 190.23 126.23 190.16 126.77 189.53 L 127.41 188.77 C 127.95 188.14 127.88 187.20 127.25 186.65 C 126.62 186.11 125.68 186.19 125.13 186.82 Z M 124.50 187.56 L 123.84 188.32 C 123.30 188.94 123.36 189.88 123.98 190.43 C 124.61 190.97 125.55 190.91 126.10 190.29 L 126.76 189.53 C 127.30 188.91 127.24 187.96 126.61 187.42 C 125.99 186.88 125.05 186.94 124.50 187.56 Z M 123.85 188.31 L 123.19 189.05 C 122.64 189.67 122.70 190.61 123.32 191.16 C 123.93 191.71 124.87 191.65 125.42 191.04 L 126.08 190.29 C 126.63 189.68 126.58 188.73 125.96 188.19 C 125.34 187.64 124.40 187.69 123.85 188.31 Z M 123.20 189.05 L 122.54 189.79 C 121.99 190.39 122.03 191.33 122.64 191.88 C 123.25 192.44 124.19 192.39 124.74 191.78 L 125.41 191.04 C 125.96 190.43 125.91 189.49 125.30 188.94 C 124.70 188.39 123.76 188.44 123.20 189.05 Z M 122.55 189.78 L 121.88 190.51 C 121.32 191.11 121.36 192.05 121.96 192.60 C 122.56 193.16 123.50 193.12 124.05 192.52 L 124.73 191.79 C 125.28 191.18 125.24 190.25 124.64 189.69 C 124.04 189.14 123.10 189.18 122.55 189.78 Z M 121.89 190.51 L 121.20 191.24 C 120.65 191.83 120.68 192.77 121.27 193.32 C 121.87 193.88 122.80 193.85 123.36 193.25 L 124.04 192.52 C 124.60 191.93 124.57 191.00 123.97 190.44 C 123.38 189.88 122.44 189.91 121.89 190.51 Z M 121.22 191.23 L 120.52 191.97 C 119.96 192.55 119.98 193.48 120.57 194.04 C 121.16 194.60 122.09 194.58 122.65 193.99 L 123.35 193.26 C 123.91 192.67 123.88 191.74 123.29 191.18 C 122.71 190.62 121.77 190.64 121.22 191.23 Z M 120.53 191.96 L 119.82 192.70 C 119.26 193.28 119.27 194.21 119.86 194.77 C 120.44 195.33 121.37 195.31 121.93 194.73 L 122.64 194.00 C 123.20 193.41 123.18 192.49 122.60 191.92 C 122.02 191.36 121.09 191.38 120.53 191.96 Z M 119.83 192.69 L 119.11 193.42 C 118.55 194.00 118.56 194.93 119.13 195.49 C 119.71 196.06 120.64 196.05 121.20 195.47 L 121.92 194.74 C 122.48 194.16 122.47 193.23 121.90 192.67 C 121.32 192.11 120.39 192.12 119.83 192.69 Z M 119.12 193.42 L 118.40 194.14 C 117.84 194.71 117.84 195.64 118.41 196.20 C 118.98 196.77 119.90 196.77 120.47 196.20 L 121.19 195.47 C 121.76 194.90 121.75 193.98 121.18 193.41 C 120.61 192.85 119.69 192.85 119.12 193.42 Z M 118.41 194.14 L 117.70 194.85 C 117.13 195.41 117.13 196.33 117.69 196.90 C 118.26 197.47 119.18 197.48 119.75 196.91 L 120.46 196.20 C 121.03 195.64 121.03 194.72 120.47 194.15 C 119.90 193.58 118.98 193.57 118.41 194.14 Z M 117.71 194.84 L 117.01 195.53 C 116.44 196.09 116.43 197.01 116.99 197.58 C 117.55 198.15 118.46 198.16 119.04 197.60 L 119.74 196.91 C 120.31 196.36 120.32 195.44 119.76 194.87 C 119.20 194.29 118.28 194.28 117.71 194.84 Z M 117.02 195.52 L 116.34 196.18 C 115.76 196.74 115.74 197.65 116.30 198.23 C 116.85 198.80 117.77 198.82 118.34 198.26 L 119.02 197.61 C 119.60 197.05 119.62 196.14 119.06 195.56 C 118.51 194.99 117.60 194.97 117.02 195.52 Z M 116.35 196.17 L 115.57 196.91 C 114.99 197.46 114.96 198.37 115.51 198.95 C 116.06 199.53 116.97 199.56 117.55 199.01 L 118.33 198.27 C 118.91 197.73 118.93 196.81 118.39 196.23 C 117.84 195.65 116.93 195.63 116.35 196.17 Z M 115.58 196.90 L 114.81 197.61 C 114.23 198.15 114.20 199.06 114.74 199.65 C 115.28 200.23 116.19 200.27 116.78 199.73 L 117.54 199.02 C 118.12 198.48 118.16 197.56 117.62 196.98 C 117.08 196.40 116.16 196.36 115.58 196.90 Z M 114.82 197.60 L 114.09 198.27 C 113.50 198.81 113.45 199.72 113.99 200.31 C 114.53 200.90 115.44 200.94 116.03 200.40 L 116.77 199.73 C 117.36 199.20 117.40 198.28 116.86 197.70 C 116.33 197.11 115.41 197.06 114.82 197.60 Z M 114.09 198.27 L 113.38 198.91 C 112.78 199.44 112.74 200.35 113.27 200.95 C 113.80 201.54 114.71 201.59 115.31 201.06 L 116.02 200.41 C 116.62 199.88 116.66 198.97 116.13 198.37 C 115.60 197.78 114.69 197.73 114.09 198.27 Z M 113.38 198.91 L 112.68 199.53 C 112.09 200.06 112.03 200.97 112.56 201.57 C 113.09 202.16 114.01 202.21 114.60 201.68 L 115.30 201.06 C 115.90 200.53 115.95 199.62 115.42 199.02 C 114.89 198.43 113.98 198.38 113.38 198.91 Z M 112.68 199.53 L 111.94 200.19 C 111.34 200.72 111.29 201.63 111.82 202.23 C 112.35 202.82 113.26 202.88 113.86 202.35 L 114.60 201.69 C 115.20 201.16 115.25 200.24 114.72 199.65 C 114.19 199.05 113.28 199.00 112.68 199.53 Z M 111.94 200.19 L 111.18 200.86 C 110.58 201.39 110.53 202.30 111.06 202.90 C 111.59 203.50 112.50 203.55 113.10 203.02 L 113.86 202.35 C 114.45 201.82 114.51 200.91 113.98 200.31 C 113.45 199.71 112.53 199.66 111.94 200.19 Z M 111.18 200.85 L 110.43 201.51 C 109.84 202.05 109.78 202.96 110.31 203.56 C 110.84 204.16 111.76 204.21 112.36 203.68 L 113.10 203.02 C 113.70 202.49 113.76 201.58 113.23 200.98 C 112.70 200.38 111.78 200.32 111.18 200.85 Z M 110.43 201.51 L 109.69 202.17 C 109.09 202.70 109.03 203.62 109.57 204.22 C 110.10 204.82 111.02 204.87 111.62 204.34 L 112.36 203.69 C 112.96 203.16 113.01 202.24 112.48 201.64 C 111.95 201.04 111.03 200.98 110.43 201.51 Z M 109.69 202.17 L 109.01 202.77 C 108.41 203.30 108.35 204.22 108.89 204.82 C 109.42 205.42 110.34 205.48 110.94 204.94 L 111.62 204.35 C 112.22 203.81 112.27 202.89 111.74 202.29 C 111.21 201.69 110.29 201.63 109.69 202.17 Z"
      fill="black"
      fill-rule="nonzero" /></svg>