<svg xmlns="http://www.w3.org/2000/svg" width="300" height="300" viewBox="0 0 300 300">
<path d="M 125.56 109.55 L 124.48 108.92 C 123.76 108.49 122.83 108.74 122.41 109.46 C 121.98 110.19 122.23 111.11 122.95 111.53 L 124.03 112.16 C 124.75 112.58 125.68 112.34 126.10 111.62 C 126.52 110.89 126.28 109.97 125.56 109.55 Z M 124.45 108.87 L 123.42 108.32 C 122.67 107.91 121.74 108.19 121.33 108.94 C 120.93 109.68 121.21 110.62 121.95 111.02 L 122.98 111.58 C 123.73 111.98 124.66 111.70 125.07 110.96 C 125.47 110.21 125.19 109.28 124.45 108.87 Z M 123.32 108.24 L 122.39 107.83 C 121.60 107.48 120.68 107.83 120.33 108.62 C 119.98 109.41 120.34 110.33 121.12 110.68 L 122.05 111.09 C 122.84 111.44 123.76 111.09 124.11 110.30 C 124.46 109.52 124.11 108.59 123.32 108.24 Z M 122.15 107.72 L 121.36 107.52 C 120.52 107.31 119.66 107.82 119.44 108.67 C 119.23 109.51 119.74 110.37 120.58 110.59 L 121.37 110.79 C 122.21 111.00 123.07 110.49 123.29 109.64 C 123.50 108.80 122.99 107.94 122.15 107.72 Z M 120.72 107.48 L 120.12 107.57 C 119.25 107.71 118.66 108.53 118.79 109.40 C 118.93 110.28 119.75 110.87 120.63 110.73 L 121.23 110.64 C 122.10 110.50 122.69 109.68 122.55 108.80 C 122.42 107.93 121.59 107.34 120.72 107.48 Z M 119.11 108.15 L 118.72 108.65 C 118.17 109.34 118.28 110.35 118.98 110.91 C 119.67 111.46 120.69 111.34 121.24 110.65 L 121.63 110.15 C 122.19 109.46 122.07 108.44 121.38 107.89 C 120.68 107.34 119.67 107.45 119.11 108.15 Z M 118.40 109.32 L 118.23 110.18 C 118.05 111.05 118.61 111.90 119.48 112.08 C 120.35 112.26 121.21 111.69 121.38 110.82 L 121.56 109.97 C 121.74 109.10 121.17 108.25 120.30 108.07 C 119.43 107.89 118.58 108.45 118.40 109.32 Z M 118.19 110.47 L 118.17 111.62 C 118.16 112.51 118.87 113.25 119.76 113.26 C 120.65 113.28 121.38 112.57 121.40 111.68 L 121.42 110.53 C 121.43 109.64 120.72 108.90 119.83 108.89 C 118.94 108.87 118.21 109.58 118.19 110.47 Z M 118.18 111.73 L 118.25 113.08 C 118.29 113.97 119.05 114.66 119.94 114.61 C 120.83 114.57 121.51 113.81 121.47 112.92 L 121.40 111.56 C 121.35 110.68 120.59 109.99 119.70 110.04 C 118.81 110.08 118.13 110.84 118.18 111.73 Z M 118.25 113.11 L 118.32 114.10 C 118.38 114.99 119.15 115.66 120.04 115.60 C 120.92 115.54 121.60 114.77 121.53 113.88 L 121.47 112.89 C 121.41 112.00 120.64 111.33 119.75 111.39 C 118.86 111.45 118.19 112.22 118.25 113.11 Z M 118.32 114.11 L 118.39 115.15 C 118.46 116.03 119.23 116.70 120.12 116.63 C 121.01 116.57 121.67 115.80 121.61 114.91 L 121.53 113.87 C 121.47 112.99 120.69 112.32 119.81 112.38 C 118.92 112.45 118.25 113.22 118.32 114.11 Z M 118.40 115.15 L 118.48 116.20 C 118.55 117.09 119.32 117.75 120.21 117.68 C 121.09 117.61 121.76 116.84 121.69 115.95 L 121.61 114.90 C 121.54 114.02 120.76 113.35 119.88 113.42 C 118.99 113.49 118.33 114.26 118.40 115.15 Z M 118.48 116.20 L 118.56 117.24 C 118.63 118.13 119.41 118.79 120.29 118.72 C 121.18 118.65 121.84 117.87 121.77 116.99 L 121.69 115.95 C 121.62 115.07 120.84 114.40 119.96 114.47 C 119.07 114.54 118.41 115.32 118.48 116.20 Z M 118.56 117.24 L 118.64 118.24 C 118.71 119.12 119.48 119.78 120.37 119.71 C 121.25 119.64 121.92 118.87 121.85 117.98 L 121.77 116.99 C 121.70 116.10 120.92 115.44 120.04 115.51 C 119.15 115.58 118.49 116.36 118.56 117.24 Z M 118.64 118.23 L 118.71 119.16 C 118.78 120.04 119.55 120.71 120.44 120.64 C 121.32 120.57 121.98 119.80 121.92 118.91 L 121.84 117.99 C 121.78 117.10 121.00 116.44 120.12 116.51 C 119.24 116.58 118.57 117.35 118.64 118.23 Z M 118.72 119.15 L 118.79 120.14 C 118.85 121.02 119.62 121.68 120.50 121.62 C 121.38 121.55 122.05 120.79 121.98 119.91 L 121.91 118.92 C 121.85 118.04 121.08 117.38 120.20 117.44 C 119.32 117.50 118.65 118.27 118.72 119.15 Z M 118.80 120.12 L 118.86 121.08 C 118.91 121.96 119.67 122.62 120.55 122.57 C 121.42 122.51 122.09 121.76 122.04 120.88 L 121.97 119.92 C 121.92 119.04 121.16 118.38 120.28 118.43 C 119.41 118.49 118.74 119.24 118.80 120.12 Z M 118.87 121.07 L 118.92 121.98 C 118.96 122.85 119.71 123.52 120.58 123.47 C 121.45 123.42 122.12 122.68 122.08 121.80 L 122.03 120.89 C 121.98 120.02 121.23 119.35 120.36 119.40 C 119.49 119.45 118.82 120.19 118.87 121.07 Z M 118.93 121.97 L 118.97 122.92 C 119.01 123.79 119.75 124.45 120.62 124.41 C 121.48 124.37 122.15 123.64 122.11 122.77 L 122.06 121.82 C 122.02 120.95 121.29 120.28 120.42 120.32 C 119.55 120.36 118.89 121.10 118.93 121.97 Z M 118.98 122.91 L 119.03 123.99 C 119.07 124.85 119.80 125.52 120.66 125.48 C 121.52 125.44 122.19 124.72 122.15 123.86 L 122.10 122.77 C 122.06 121.91 121.33 121.25 120.47 121.29 C 119.61 121.32 118.95 122.05 118.98 122.91 Z M 119.04 123.99 L 119.08 124.94 C 119.12 125.80 119.84 126.46 120.70 126.42 C 121.56 126.39 122.22 125.66 122.18 124.80 L 122.14 123.86 C 122.10 123.00 121.38 122.34 120.52 122.37 C 119.67 122.41 119.00 123.14 119.04 123.99 Z M 119.09 124.94 L 119.13 125.87 C 119.17 126.73 119.89 127.39 120.74 127.35 C 121.60 127.31 122.26 126.59 122.22 125.74 L 122.18 124.80 C 122.14 123.95 121.42 123.29 120.56 123.33 C 119.71 123.37 119.05 124.09 119.09 124.94 Z M 119.13 125.88 L 119.18 126.87 C 119.21 127.73 119.93 128.39 120.79 128.35 C 121.64 128.31 122.30 127.59 122.26 126.74 L 122.21 125.74 C 122.18 124.89 121.46 124.23 120.60 124.26 C 119.75 124.30 119.09 125.02 119.13 125.88 Z M 119.18 126.87 L 119.23 127.91 C 119.26 128.76 119.98 129.42 120.83 129.38 C 121.68 129.35 122.34 128.63 122.30 127.78 L 122.26 126.74 C 122.22 125.89 121.50 125.23 120.65 125.27 C 119.80 125.31 119.14 126.02 119.18 126.87 Z M 119.23 127.91 L 119.28 128.97 C 119.32 129.82 120.03 130.48 120.88 130.44 C 121.73 130.40 122.39 129.68 122.35 128.83 L 122.30 127.78 C 122.26 126.93 121.54 126.27 120.69 126.31 C 119.85 126.35 119.19 127.07 119.23 127.91 Z M 119.28 128.97 L 119.33 130.03 C 119.37 130.87 120.08 131.53 120.93 131.49 C 121.78 131.45 122.43 130.73 122.39 129.89 L 122.34 128.83 C 122.30 127.99 121.59 127.33 120.74 127.37 C 119.90 127.41 119.24 128.13 119.28 128.97 Z M 119.33 130.03 L 119.38 131.05 C 119.42 131.89 120.13 132.55 120.98 132.51 C 121.82 132.47 122.47 131.75 122.43 130.91 L 122.39 129.89 C 122.35 129.04 121.63 128.39 120.79 128.43 C 119.95 128.47 119.29 129.18 119.33 130.03 Z M 119.39 131.05 L 119.44 132.13 C 119.48 132.97 120.19 133.62 121.03 133.58 C 121.87 133.54 122.52 132.83 122.48 131.99 L 122.43 130.91 C 122.39 130.07 121.68 129.42 120.84 129.46 C 120.00 129.50 119.35 130.21 119.39 131.05 Z M 119.45 132.14 L 119.50 133.29 C 119.54 134.12 120.25 134.76 121.09 134.72 C 121.92 134.68 122.56 133.97 122.52 133.14 L 122.47 131.99 C 122.43 131.16 121.72 130.51 120.88 130.55 C 120.05 130.59 119.41 131.30 119.45 132.14 Z M 119.52 133.29 L 119.58 134.35 C 119.62 135.18 120.32 135.81 121.15 135.77 C 121.97 135.72 122.61 135.02 122.56 134.19 L 122.51 133.13 C 122.46 132.31 121.76 131.68 120.93 131.72 C 120.11 131.76 119.48 132.47 119.52 133.29 Z M 119.59 134.36 L 119.65 135.34 C 119.70 136.15 120.40 136.78 121.22 136.73 C 122.03 136.68 122.66 135.98 122.61 135.16 L 122.55 134.18 C 122.50 133.37 121.80 132.74 120.98 132.79 C 120.16 132.84 119.54 133.54 119.59 134.36 Z M 119.67 135.35 L 119.73 136.26 C 119.79 137.07 120.49 137.68 121.30 137.62 C 122.10 137.56 122.71 136.86 122.66 136.05 L 122.59 135.14 C 122.53 134.34 121.83 133.73 121.02 133.78 C 120.22 133.84 119.61 134.54 119.67 135.35 Z M 119.75 136.28 L 119.82 137.13 C 119.89 137.93 120.59 138.52 121.39 138.45 C 122.19 138.38 122.78 137.68 122.71 136.88 L 122.64 136.03 C 122.57 135.23 121.87 134.64 121.07 134.71 C 120.27 134.78 119.68 135.48 119.75 136.28 Z M 119.83 137.16 L 119.94 138.16 C 120.02 138.95 120.73 139.53 121.53 139.44 C 122.32 139.36 122.89 138.65 122.81 137.86 L 122.70 136.85 C 122.61 136.06 121.90 135.49 121.11 135.57 C 120.32 135.66 119.75 136.37 119.83 137.16 Z M 119.95 138.19 L 120.08 139.21 C 120.18 140.00 120.90 140.55 121.69 140.45 C 122.48 140.35 123.03 139.63 122.93 138.84 L 122.80 137.82 C 122.69 137.04 121.97 136.48 121.19 136.58 C 120.40 136.69 119.85 137.41 119.95 138.19 Z M 120.09 139.24 L 120.23 140.21 C 120.35 140.99 121.08 141.53 121.86 141.42 C 122.65 141.30 123.19 140.57 123.07 139.79 L 122.92 138.81 C 122.81 138.03 122.08 137.49 121.29 137.61 C 120.51 137.73 119.97 138.45 120.09 139.24 Z M 120.24 140.23 L 120.39 141.17 C 120.52 141.95 121.25 142.48 122.03 142.36 C 122.81 142.23 123.34 141.50 123.22 140.72 L 123.06 139.77 C 122.94 138.99 122.20 138.46 121.42 138.59 C 120.64 138.71 120.11 139.45 120.24 140.23 Z M 120.40 141.18 L 120.48 141.65 C 120.60 142.42 121.34 142.95 122.12 142.82 C 122.89 142.69 123.42 141.96 123.29 141.18 L 123.21 140.71 C 123.08 139.93 122.35 139.41 121.57 139.54 C 120.79 139.67 120.27 140.40 120.40 141.18 Z"
      fill="black"
      fill-rule="nonzero" /><path d="M 127.70 105.56 L 126.74 105.56 C 125.86 105.56 125.15 106.27 125.15 107.15 C 125.15 108.03 125.86 108.74 126.74 108.74 L 127.70 108.74 C 128.58 108.74 129.29 108.03 129.29 107.15 C 129.29 106.27 128.58 105.56 127.70 105.56 Z M 126.74 105.56 L 125.75 105.56 C 124.87 105.56 124.16 106.27 124.16 107.15 C 124.16 108.03 124.87 108.74 125.75 108.74 L 126.74 108.74 C 127.62 108.74 128.33 108.03 128.33 107.15 C 128.33 106.27 127.62 105.56 126.74 105.56 Z M 125.75 105.56 L 124.72 105.56 C 123.84 105.56 123.13 106.27 123.13 107.15 C 123.13 108.03 123.84 108.74 124.72 108.74 L 125.75 108.74 C 126.63 108.74 127.34 108.03 127.34 107.15 C 127.34 106.27 126.63 105.56 125.75 105.56 Z M 124.72 105.55 L 123.38 105.55 C 122.50 105.55 121.78 106.27 121.78 107.15 C 121.78 108.03 122.50 108.75 123.38 108.75 L 124.72 108.75 C 125.60 108.75 126.31 108.03 126.31 107.15 C 126.31 106.27 125.60 105.55 124.72 105.55 Z M 123.38 105.54 L 122.32 105.54 C 121.43 105.54 120.71 106.26 120.71 107.15 C 120.71 108.04 121.43 108.76 122.32 108.76 L 123.38 108.76 C 124.27 108.76 124.99 108.04 124.99 107.15 C 124.99 106.26 124.27 105.54 123.38 105.54 Z M 122.32 105.53 L 122.15 105.53 C 121.25 105.52 120.52 106.25 120.52 107.15 C 120.52 108.04 121.24 108.77 122.14 108.77 L 122.31 108.77 C 123.21 108.78 123.94 108.05 123.94 107.15 C 123.95 106.26 123.22 105.53 122.32 105.53 Z M 122.19 108.78 L 122.97 108.76 C 123.87 108.74 124.58 107.98 124.55 107.08 C 124.53 106.18 123.78 105.47 122.88 105.49 L 122.10 105.52 C 121.20 105.54 120.49 106.29 120.51 107.20 C 120.54 108.10 121.29 108.81 122.19 108.78 Z M 123.03 108.76 L 124.40 108.67 C 125.30 108.61 125.98 107.83 125.92 106.93 C 125.86 106.02 125.08 105.34 124.18 105.40 L 122.81 105.49 C 121.91 105.55 121.22 106.33 121.29 107.24 C 121.35 108.14 122.13 108.82 123.03 108.76 Z M 124.48 108.67 L 125.53 108.55 C 126.44 108.44 127.08 107.62 126.98 106.72 C 126.87 105.82 126.05 105.17 125.15 105.28 L 124.10 105.40 C 123.19 105.51 122.55 106.32 122.65 107.23 C 122.76 108.13 123.58 108.78 124.48 108.67 Z M 125.60 108.54 L 126.52 108.40 C 127.42 108.25 128.03 107.41 127.89 106.51 C 127.75 105.61 126.91 105.00 126.01 105.14 L 125.09 105.29 C 124.19 105.43 123.57 106.27 123.71 107.17 C 123.86 108.07 124.70 108.68 125.60 108.54 Z M 126.57 108.39 L 127.54 108.21 C 128.43 108.04 129.02 107.18 128.86 106.29 C 128.69 105.39 127.83 104.80 126.93 104.97 L 125.96 105.15 C 125.07 105.31 124.48 106.17 124.64 107.07 C 124.81 107.97 125.67 108.56 126.57 108.39 Z M 127.57 108.20 L 128.60 107.99 C 129.49 107.80 130.06 106.93 129.87 106.04 C 129.69 105.14 128.81 104.57 127.92 104.76 L 126.90 104.97 C 126.00 105.16 125.43 106.03 125.62 106.93 C 125.80 107.82 126.68 108.39 127.57 108.20 Z M 128.62 107.99 L 129.70 107.74 C 130.60 107.54 131.15 106.65 130.95 105.76 C 130.75 104.87 129.86 104.31 128.97 104.52 L 127.89 104.76 C 127.00 104.96 126.44 105.85 126.64 106.74 C 126.85 107.63 127.73 108.19 128.62 107.99 Z M 129.72 107.74 L 130.72 107.50 C 131.61 107.29 132.16 106.40 131.94 105.51 C 131.73 104.62 130.84 104.07 129.95 104.28 L 128.95 104.52 C 128.06 104.73 127.52 105.62 127.73 106.51 C 127.94 107.40 128.83 107.95 129.72 107.74 Z M 130.73 107.50 L 131.74 107.25 C 132.63 107.03 133.17 106.13 132.95 105.24 C 132.73 104.35 131.83 103.81 130.94 104.03 L 129.93 104.28 C 129.04 104.50 128.50 105.40 128.72 106.29 C 128.94 107.18 129.84 107.72 130.73 107.50 Z M 131.75 107.25 L 132.76 106.99 C 133.65 106.76 134.18 105.86 133.95 104.97 C 133.73 104.08 132.82 103.55 131.93 103.77 L 130.93 104.03 C 130.04 104.26 129.51 105.17 129.73 106.05 C 129.96 106.94 130.87 107.48 131.75 107.25 Z M 132.77 106.99 L 133.75 106.73 C 134.64 106.49 135.17 105.58 134.93 104.70 C 134.69 103.81 133.79 103.28 132.90 103.52 L 131.92 103.78 C 131.03 104.01 130.51 104.92 130.74 105.81 C 130.98 106.69 131.89 107.22 132.77 106.99 Z M 133.76 106.73 L 134.69 106.47 C 135.57 106.23 136.09 105.31 135.85 104.43 C 135.61 103.54 134.69 103.02 133.81 103.27 L 132.88 103.52 C 132.00 103.76 131.48 104.68 131.72 105.56 C 131.96 106.45 132.88 106.97 133.76 106.73 Z M 134.71 106.47 L 135.69 106.19 C 136.57 105.94 137.09 105.01 136.83 104.13 C 136.58 103.25 135.66 102.73 134.78 102.99 L 133.79 103.27 C 132.91 103.52 132.40 104.44 132.65 105.33 C 132.90 106.21 133.82 106.72 134.71 106.47 Z M 135.71 106.18 L 136.76 105.87 C 137.64 105.60 138.14 104.67 137.87 103.79 C 137.61 102.91 136.68 102.41 135.80 102.68 L 134.75 102.99 C 133.87 103.26 133.37 104.19 133.64 105.07 C 133.90 105.95 134.83 106.45 135.71 106.18 Z M 136.78 105.86 L 137.71 105.57 C 138.59 105.29 139.07 104.36 138.79 103.48 C 138.52 102.60 137.58 102.11 136.70 102.39 L 135.78 102.68 C 134.90 102.96 134.41 103.90 134.69 104.77 C 134.97 105.65 135.90 106.14 136.78 105.86 Z M 137.72 105.57 L 138.58 105.29 C 139.46 105.00 139.93 104.06 139.65 103.19 C 139.36 102.31 138.42 101.83 137.55 102.12 L 136.69 102.40 C 135.82 102.68 135.34 103.62 135.62 104.50 C 135.91 105.37 136.85 105.85 137.72 105.57 Z M 138.58 105.29 L 139.48 104.99 C 140.35 104.71 140.83 103.77 140.55 102.89 C 140.26 102.02 139.32 101.54 138.44 101.82 L 137.55 102.12 C 136.67 102.40 136.19 103.34 136.48 104.22 C 136.76 105.09 137.71 105.57 138.58 105.29 Z M 139.47 105.00 L 140.42 104.69 C 141.30 104.41 141.78 103.47 141.50 102.59 C 141.21 101.71 140.27 101.23 139.40 101.51 L 138.45 101.82 C 137.57 102.10 137.09 103.05 137.37 103.92 C 137.66 104.80 138.60 105.28 139.47 105.00 Z M 140.42 104.69 L 141.38 104.39 C 142.25 104.10 142.74 103.16 142.45 102.28 C 142.17 101.41 141.23 100.92 140.35 101.21 L 139.40 101.51 C 138.52 101.79 138.04 102.73 138.32 103.61 C 138.60 104.49 139.54 104.97 140.42 104.69 Z M 141.37 104.39 L 142.33 104.08 C 143.21 103.80 143.70 102.86 143.41 101.98 C 143.13 101.10 142.19 100.62 141.31 100.90 L 140.35 101.20 C 139.48 101.48 138.99 102.43 139.27 103.31 C 139.55 104.18 140.49 104.67 141.37 104.39 Z M 142.33 104.08 L 143.29 103.78 C 144.17 103.49 144.65 102.55 144.37 101.67 C 144.09 100.79 143.15 100.31 142.27 100.59 L 141.31 100.90 C 140.43 101.18 139.95 102.12 140.23 103.00 C 140.51 103.88 141.45 104.36 142.33 104.08 Z M 143.29 103.78 L 144.25 103.47 C 145.13 103.19 145.61 102.24 145.33 101.36 C 145.04 100.48 144.10 100.00 143.22 100.28 L 142.27 100.59 C 141.39 100.87 140.90 101.81 141.19 102.69 C 141.47 103.58 142.41 104.06 143.29 103.78 Z M 144.25 103.47 L 145.20 103.16 C 146.08 102.88 146.56 101.93 146.27 101.05 C 145.99 100.17 145.05 99.69 144.16 99.98 L 143.22 100.28 C 142.34 100.57 141.85 101.51 142.14 102.39 C 142.42 103.27 143.37 103.75 144.25 103.47 Z M 145.20 103.16 L 146.16 102.85 C 147.04 102.56 147.52 101.62 147.23 100.74 C 146.94 99.86 146.00 99.37 145.12 99.66 L 144.16 99.98 C 143.28 100.26 142.80 101.21 143.09 102.09 C 143.38 102.97 144.32 103.45 145.20 103.16 Z M 146.16 102.85 L 147.12 102.54 C 148.00 102.25 148.48 101.30 148.19 100.42 C 147.90 99.54 146.95 99.06 146.07 99.35 L 145.11 99.66 C 144.23 99.95 143.76 100.90 144.04 101.78 C 144.33 102.66 145.28 103.14 146.16 102.85 Z M 147.12 102.54 L 148.06 102.23 C 148.94 101.94 149.42 100.99 149.14 100.11 C 148.85 99.23 147.90 98.75 147.02 99.04 L 146.07 99.35 C 145.19 99.63 144.71 100.58 145.00 101.46 C 145.29 102.34 146.23 102.83 147.12 102.54 Z M 148.05 102.23 L 148.99 101.93 C 149.87 101.65 150.36 100.70 150.08 99.82 C 149.79 98.94 148.85 98.45 147.96 98.73 L 147.03 99.03 C 146.14 99.32 145.66 100.26 145.94 101.15 C 146.22 102.03 147.17 102.52 148.05 102.23 Z M 148.98 101.94 L 149.92 101.64 C 150.80 101.37 151.30 100.42 151.02 99.54 C 150.74 98.65 149.80 98.16 148.91 98.43 L 147.98 98.73 C 147.09 99.01 146.60 99.95 146.87 100.83 C 147.15 101.72 148.09 102.21 148.98 101.94 Z M 149.91 101.65 L 150.86 101.36 C 151.75 101.08 152.25 100.14 151.98 99.26 C 151.70 98.37 150.76 97.87 149.88 98.14 L 148.92 98.43 C 148.04 98.70 147.54 99.64 147.81 100.53 C 148.08 101.42 149.02 101.92 149.91 101.65 Z M 150.85 101.36 L 151.83 101.06 C 152.72 100.80 153.23 99.86 152.96 98.97 C 152.69 98.08 151.75 97.57 150.86 97.84 L 149.88 98.14 C 148.99 98.41 148.49 99.34 148.76 100.23 C 149.02 101.12 149.96 101.63 150.85 101.36 Z M 151.83 101.07 L 152.67 100.81 C 153.57 100.55 154.07 99.61 153.81 98.72 C 153.54 97.83 152.60 97.32 151.71 97.59 L 150.87 97.84 C 149.98 98.10 149.47 99.04 149.73 99.93 C 150.00 100.83 150.94 101.33 151.83 101.07 Z M 152.67 100.82 L 153.57 100.55 C 154.46 100.29 154.98 99.36 154.72 98.46 C 154.45 97.57 153.52 97.06 152.63 97.32 L 151.72 97.58 C 150.83 97.84 150.31 98.78 150.58 99.67 C 150.84 100.57 151.77 101.08 152.67 100.82 Z M 153.56 100.56 L 154.55 100.28 C 155.44 100.02 155.97 99.09 155.71 98.20 C 155.46 97.30 154.53 96.78 153.63 97.03 L 152.64 97.31 C 151.74 97.57 151.22 98.50 151.48 99.40 C 151.73 100.29 152.66 100.81 153.56 100.56 Z M 154.53 100.28 L 155.64 99.98 C 156.54 99.74 157.07 98.81 156.82 97.91 C 156.58 97.01 155.65 96.48 154.75 96.73 L 153.65 97.03 C 152.75 97.27 152.22 98.20 152.46 99.10 C 152.71 100.00 153.64 100.53 154.53 100.28 Z M 155.62 99.99 L 156.51 99.75 C 157.41 99.52 157.95 98.59 157.71 97.69 C 157.47 96.79 156.55 96.25 155.65 96.49 L 154.76 96.72 C 153.86 96.96 153.32 97.88 153.56 98.78 C 153.80 99.68 154.72 100.22 155.62 99.99 Z M 156.49 99.76 L 157.44 99.52 C 158.34 99.29 158.89 98.37 158.66 97.47 C 158.43 96.56 157.51 96.02 156.61 96.24 L 155.66 96.48 C 154.76 96.71 154.21 97.63 154.44 98.54 C 154.67 99.44 155.59 99.99 156.49 99.76 Z M 157.42 99.53 L 158.40 99.29 C 159.31 99.07 159.87 98.16 159.65 97.25 C 159.43 96.34 158.52 95.78 157.61 96.00 L 156.62 96.24 C 155.72 96.46 155.16 97.37 155.38 98.28 C 155.60 99.19 156.51 99.74 157.42 99.53 Z M 158.38 99.29 L 159.39 99.06 C 160.30 98.86 160.87 97.95 160.67 97.04 C 160.46 96.13 159.55 95.56 158.64 95.76 L 157.63 95.99 C 156.72 96.20 156.15 97.11 156.35 98.02 C 156.56 98.93 157.47 99.50 158.38 99.29 Z M 159.36 99.07 L 160.39 98.86 C 161.30 98.67 161.89 97.77 161.70 96.85 C 161.50 95.94 160.61 95.35 159.69 95.54 L 158.67 95.76 C 157.75 95.95 157.17 96.85 157.36 97.76 C 157.55 98.68 158.45 99.26 159.36 99.07 Z M 160.35 98.87 L 161.37 98.67 C 162.29 98.50 162.90 97.61 162.73 96.69 C 162.55 95.77 161.67 95.17 160.75 95.34 L 159.72 95.54 C 158.80 95.71 158.20 96.60 158.37 97.52 C 158.55 98.44 159.43 99.04 160.35 98.87 Z M 161.34 98.68 L 162.35 98.51 C 163.28 98.36 163.90 97.49 163.75 96.56 C 163.59 95.64 162.72 95.01 161.80 95.17 L 160.78 95.33 C 159.86 95.49 159.23 96.36 159.39 97.29 C 159.54 98.21 160.41 98.84 161.34 98.68 Z M 162.32 98.52 L 163.32 98.38 C 164.25 98.24 164.89 97.38 164.76 96.45 C 164.62 95.52 163.76 94.88 162.83 95.01 L 161.83 95.16 C 160.90 95.29 160.26 96.15 160.39 97.08 C 160.53 98.01 161.39 98.65 162.32 98.52 Z M 163.28 98.38 L 164.27 98.26 C 165.20 98.15 165.87 97.30 165.75 96.36 C 165.64 95.43 164.79 94.77 163.86 94.89 L 162.87 95.01 C 161.94 95.12 161.27 95.97 161.39 96.90 C 161.50 97.83 162.35 98.50 163.28 98.38 Z M 164.24 98.27 L 165.21 98.16 C 166.15 98.07 166.83 97.23 166.73 96.30 C 166.63 95.36 165.80 94.68 164.86 94.78 L 163.89 94.88 C 162.95 94.98 162.27 95.81 162.37 96.75 C 162.47 97.68 163.30 98.36 164.24 98.27 Z M 165.18 98.17 L 166.14 98.09 C 167.08 98.01 167.78 97.18 167.70 96.25 C 167.62 95.31 166.79 94.61 165.86 94.69 L 164.89 94.77 C 163.96 94.85 163.26 95.68 163.34 96.62 C 163.42 97.55 164.25 98.25 165.18 98.17 Z M 166.11 98.09 L 167.19 98.02 C 168.13 97.96 168.84 97.15 168.78 96.21 C 168.71 95.27 167.90 94.55 166.96 94.62 L 165.89 94.69 C 164.95 94.75 164.24 95.56 164.30 96.50 C 164.36 97.44 165.17 98.15 166.11 98.09 Z M 167.16 98.02 L 168.21 97.97 C 169.15 97.92 169.87 97.12 169.83 96.18 C 169.78 95.24 168.98 94.51 168.04 94.56 L 166.99 94.61 C 166.05 94.66 165.32 95.46 165.37 96.40 C 165.42 97.35 166.22 98.07 167.16 98.02 Z M 168.18 97.98 L 169.19 97.94 C 170.13 97.90 170.87 97.11 170.84 96.17 C 170.80 95.22 170.01 94.49 169.07 94.52 L 168.06 94.56 C 167.12 94.59 166.38 95.38 166.41 96.33 C 166.45 97.27 167.24 98.01 168.18 97.98 Z M 169.17 97.94 L 170.12 97.92 C 171.07 97.89 171.82 97.11 171.79 96.16 C 171.77 95.22 170.98 94.47 170.04 94.49 L 169.08 94.52 C 168.14 94.54 167.39 95.33 167.42 96.27 C 167.44 97.22 168.23 97.97 169.17 97.94 Z M 170.11 97.92 L 171.04 97.90 C 171.99 97.89 172.74 97.11 172.72 96.16 C 172.71 95.21 171.92 94.46 170.98 94.47 L 170.05 94.49 C 169.10 94.51 168.35 95.29 168.37 96.24 C 168.38 97.18 169.16 97.94 170.11 97.92 Z M 171.01 97.90 L 172.02 97.91 C 172.97 97.91 173.74 97.14 173.74 96.19 C 173.74 95.25 172.98 94.48 172.03 94.48 L 171.01 94.47 C 170.06 94.47 169.29 95.24 169.29 96.19 C 169.29 97.13 170.06 97.90 171.01 97.90 Z M 171.91 97.90 L 172.87 97.97 C 173.82 98.03 174.64 97.32 174.70 96.37 C 174.77 95.43 174.05 94.61 173.11 94.54 L 172.14 94.48 C 171.20 94.41 170.38 95.13 170.31 96.07 C 170.25 97.02 170.96 97.84 171.91 97.90 Z M 172.68 97.95 L 173.64 98.12 C 174.57 98.29 175.46 97.68 175.64 96.74 C 175.81 95.81 175.19 94.92 174.26 94.74 L 173.30 94.57 C 172.37 94.40 171.47 95.01 171.30 95.95 C 171.13 96.88 171.75 97.77 172.68 97.95 Z M 173.41 98.07 L 174.37 98.38 C 175.27 98.68 176.25 98.19 176.54 97.29 C 176.84 96.38 176.35 95.41 175.45 95.12 L 174.48 94.80 C 173.58 94.50 172.61 94.99 172.31 95.90 C 172.02 96.80 172.51 97.77 173.41 98.07 Z M 174.18 98.32 L 175.10 98.74 C 175.96 99.15 176.99 98.77 177.39 97.91 C 177.80 97.04 177.42 96.02 176.56 95.61 L 175.64 95.18 C 174.77 94.78 173.75 95.15 173.34 96.02 C 172.94 96.88 173.31 97.91 174.18 98.32 Z M 174.93 98.67 L 175.82 99.21 C 176.65 99.70 177.72 99.44 178.21 98.61 C 178.71 97.79 178.44 96.72 177.62 96.22 L 176.72 95.69 C 175.90 95.19 174.83 95.46 174.34 96.28 C 173.84 97.10 174.11 98.17 174.93 98.67 Z M 175.65 99.10 L 176.45 99.72 C 177.22 100.31 178.32 100.17 178.91 99.41 C 179.50 98.64 179.36 97.54 178.59 96.95 L 177.79 96.33 C 177.02 95.74 175.92 95.88 175.33 96.65 C 174.74 97.41 174.88 98.51 175.65 99.10 Z M 176.25 99.56 L 176.90 100.24 C 177.58 100.94 178.70 100.96 179.40 100.28 C 180.10 99.61 180.12 98.49 179.45 97.79 L 178.80 97.11 C 178.12 96.41 177.00 96.39 176.30 97.06 C 175.60 97.74 175.58 98.86 176.25 99.56 Z M 176.65 99.92 L 177.18 100.82 C 177.69 101.67 178.78 101.94 179.62 101.44 C 180.47 100.94 180.74 99.85 180.24 99.00 L 179.70 98.10 C 179.20 97.26 178.11 96.98 177.26 97.48 C 176.42 97.99 176.14 99.08 176.65 99.92 Z M 176.99 100.42 L 177.27 101.36 C 177.55 102.31 178.54 102.86 179.50 102.58 C 180.45 102.30 180.99 101.30 180.71 100.35 L 180.44 99.41 C 180.15 98.45 179.16 97.91 178.20 98.19 C 177.25 98.47 176.71 99.47 176.99 100.42 Z M 177.19 101.06 L 177.30 102.02 C 177.41 103.01 178.31 103.73 179.31 103.61 C 180.30 103.50 181.01 102.60 180.90 101.61 L 180.79 100.65 C 180.68 99.65 179.78 98.94 178.78 99.05 C 177.79 99.17 177.07 100.06 177.19 101.06 Z M 177.27 101.89 L 177.31 102.80 C 177.35 103.81 178.20 104.60 179.21 104.55 C 180.22 104.51 181.00 103.66 180.96 102.66 L 180.92 101.74 C 180.88 100.73 180.03 99.95 179.02 99.99 C 178.02 100.03 177.23 100.88 177.27 101.89 Z M 177.30 102.73 L 177.31 103.64 C 177.31 104.65 178.13 105.47 179.14 105.47 C 180.15 105.46 180.97 104.64 180.97 103.63 L 180.97 102.73 C 180.97 101.71 180.14 100.90 179.13 100.90 C 178.12 100.90 177.30 101.72 177.30 102.73 Z M 177.31 103.53 L 177.25 104.51 C 177.19 105.53 177.97 106.39 178.98 106.45 C 179.99 106.50 180.86 105.73 180.91 104.72 L 180.97 103.73 C 181.03 102.72 180.25 101.86 179.24 101.80 C 178.23 101.74 177.36 102.52 177.31 103.53 Z M 177.26 104.39 L 177.12 105.51 C 177.00 106.51 177.72 107.43 178.73 107.55 C 179.73 107.67 180.65 106.96 180.77 105.95 L 180.91 104.84 C 181.03 103.83 180.31 102.91 179.30 102.79 C 178.30 102.67 177.38 103.39 177.26 104.39 Z M 177.14 105.41 L 176.97 106.37 C 176.79 107.37 177.46 108.33 178.46 108.51 C 179.46 108.68 180.41 108.02 180.59 107.02 L 180.76 106.05 C 180.94 105.05 180.27 104.10 179.27 103.92 C 178.27 103.74 177.31 104.41 177.14 105.41 Z M 176.98 106.31 L 176.78 107.26 C 176.56 108.25 177.20 109.23 178.19 109.44 C 179.18 109.65 180.16 109.02 180.37 108.03 L 180.58 107.08 C 180.79 106.09 180.15 105.11 179.16 104.90 C 178.17 104.68 177.19 105.32 176.98 106.31 Z M 176.79 107.21 L 176.55 108.20 C 176.31 109.19 176.92 110.18 177.91 110.42 C 178.89 110.66 179.89 110.05 180.12 109.06 L 180.36 108.07 C 180.60 107.08 179.99 106.09 179.00 105.85 C 178.02 105.62 177.02 106.22 176.79 107.21 Z M 176.56 108.17 L 176.29 109.17 C 176.04 110.16 176.62 111.16 177.61 111.42 C 178.59 111.68 179.59 111.09 179.85 110.11 L 180.12 109.10 C 180.37 108.12 179.79 107.11 178.80 106.85 C 177.82 106.60 176.81 107.18 176.56 108.17 Z M 176.30 109.14 L 176.02 110.14 C 175.75 111.12 176.32 112.14 177.29 112.41 C 178.27 112.69 179.29 112.12 179.56 111.14 L 179.84 110.14 C 180.12 109.16 179.55 108.15 178.57 107.87 C 177.59 107.60 176.58 108.17 176.30 109.14 Z M 176.03 110.11 L 175.74 111.09 C 175.45 112.06 176.00 113.09 176.97 113.38 C 177.94 113.67 178.97 113.12 179.26 112.14 L 179.55 111.17 C 179.85 110.19 179.29 109.17 178.32 108.88 C 177.35 108.59 176.32 109.14 176.03 110.11 Z M 175.75 111.06 L 175.44 112.03 C 175.13 113.00 175.67 114.03 176.63 114.34 C 177.60 114.65 178.64 114.11 178.94 113.14 L 179.25 112.17 C 179.56 111.21 179.02 110.17 178.06 109.86 C 177.09 109.56 176.05 110.09 175.75 111.06 Z M 175.45 112.00 L 175.13 112.93 C 174.81 113.90 175.33 114.94 176.29 115.26 C 177.26 115.58 178.30 115.07 178.62 114.10 L 178.93 113.17 C 179.26 112.21 178.74 111.17 177.77 110.84 C 176.81 110.52 175.77 111.04 175.45 112.00 Z M 175.14 112.91 L 174.82 113.83 C 174.49 114.79 174.99 115.84 175.95 116.17 C 176.91 116.51 177.96 116.00 178.29 115.05 L 178.61 114.12 C 178.95 113.17 178.44 112.12 177.48 111.78 C 176.53 111.45 175.48 111.96 175.14 112.91 Z M 174.83 113.82 L 174.49 114.75 C 174.15 115.71 174.65 116.76 175.60 117.10 C 176.56 117.44 177.61 116.95 177.95 115.99 L 178.29 115.06 C 178.63 114.10 178.13 113.05 177.18 112.71 C 176.22 112.37 175.17 112.86 174.83 113.82 Z M 174.50 114.74 L 174.15 115.70 C 173.80 116.65 174.30 117.70 175.25 118.05 C 176.20 118.40 177.26 117.90 177.60 116.95 L 177.95 116.00 C 178.29 115.04 177.80 113.99 176.85 113.64 C 175.90 113.30 174.84 113.79 174.50 114.74 Z M 174.15 115.70 L 173.84 116.56 C 173.49 117.51 173.98 118.57 174.93 118.91 C 175.89 119.26 176.94 118.77 177.29 117.82 L 177.60 116.95 C 177.95 116.00 177.46 114.95 176.50 114.60 C 175.55 114.25 174.50 114.74 174.15 115.70 Z M 173.84 116.56 L 173.51 117.46 C 173.16 118.41 173.65 119.46 174.60 119.81 C 175.55 120.16 176.61 119.67 176.96 118.72 L 177.29 117.82 C 177.63 116.87 177.14 115.81 176.19 115.47 C 175.24 115.12 174.19 115.61 173.84 116.56 Z M 173.51 117.45 L 173.17 118.38 C 172.82 119.33 173.30 120.39 174.25 120.74 C 175.20 121.09 176.26 120.60 176.61 119.65 L 176.95 118.72 C 177.30 117.77 176.82 116.72 175.87 116.37 C 174.92 116.02 173.86 116.50 173.51 117.45 Z M 173.17 118.38 L 172.81 119.33 C 172.46 120.28 172.94 121.34 173.89 121.69 C 174.84 122.05 175.89 121.57 176.25 120.62 L 176.61 119.66 C 176.96 118.71 176.48 117.66 175.53 117.30 C 174.58 116.95 173.53 117.43 173.17 118.38 Z M 172.82 119.32 L 172.45 120.30 C 172.09 121.25 172.56 122.31 173.51 122.67 C 174.45 123.03 175.51 122.55 175.87 121.61 L 176.24 120.63 C 176.60 119.68 176.13 118.62 175.18 118.26 C 174.24 117.90 173.18 118.38 172.82 119.32 Z M 172.45 120.29 L 172.07 121.29 C 171.70 122.23 172.17 123.29 173.11 123.66 C 174.06 124.02 175.12 123.55 175.48 122.61 L 175.87 121.62 C 176.23 120.67 175.76 119.61 174.82 119.25 C 173.88 118.88 172.82 119.35 172.45 120.29 Z M 172.07 121.28 L 171.72 122.16 C 171.35 123.10 171.81 124.17 172.75 124.54 C 173.69 124.91 174.75 124.45 175.13 123.51 L 175.48 122.62 C 175.85 121.68 175.39 120.62 174.45 120.25 C 173.51 119.88 172.44 120.34 172.07 121.28 Z M 171.73 122.15 L 171.37 123.05 C 170.99 123.99 171.44 125.05 172.38 125.43 C 173.32 125.81 174.38 125.35 174.76 124.42 L 175.12 123.52 C 175.50 122.58 175.04 121.52 174.11 121.14 C 173.17 120.76 172.10 121.22 171.73 122.15 Z M 171.37 123.04 L 171.00 123.95 C 170.62 124.89 171.06 125.95 172.00 126.33 C 172.93 126.72 174.00 126.27 174.38 125.33 L 174.75 124.42 C 175.14 123.49 174.69 122.42 173.75 122.04 C 172.82 121.66 171.75 122.11 171.37 123.04 Z M 171.00 123.94 L 170.62 124.87 C 170.23 125.80 170.68 126.87 171.61 127.25 C 172.54 127.64 173.61 127.20 173.99 126.27 L 174.38 125.34 C 174.76 124.41 174.32 123.34 173.39 122.96 C 172.46 122.57 171.39 123.01 171.00 123.94 Z M 170.63 124.86 L 170.23 125.80 C 169.84 126.73 170.28 127.80 171.21 128.19 C 172.14 128.58 173.21 128.14 173.60 127.21 L 173.99 126.27 C 174.38 125.34 173.94 124.27 173.02 123.88 C 172.09 123.49 171.02 123.93 170.63 124.86 Z M 170.23 125.79 L 169.83 126.74 C 169.44 127.67 169.87 128.74 170.79 129.14 C 171.72 129.53 172.79 129.10 173.19 128.17 L 173.59 127.22 C 173.99 126.29 173.55 125.22 172.63 124.83 C 171.70 124.43 170.63 124.86 170.23 125.79 Z M 169.83 126.74 L 169.42 127.69 C 169.03 128.62 169.45 129.69 170.38 130.09 C 171.30 130.49 172.37 130.06 172.77 129.13 L 173.18 128.18 C 173.58 127.25 173.15 126.18 172.23 125.78 C 171.30 125.38 170.23 125.81 169.83 126.74 Z M 169.43 127.69 L 169.05 128.56 C 168.65 129.48 169.07 130.56 169.99 130.96 C 170.92 131.36 171.99 130.93 172.39 130.01 L 172.77 129.14 C 173.17 128.21 172.75 127.14 171.82 126.74 C 170.90 126.34 169.83 126.76 169.43 127.69 Z M 169.05 128.56 L 168.66 129.44 C 168.26 130.36 168.68 131.43 169.60 131.84 C 170.52 132.24 171.60 131.82 172.00 130.90 L 172.39 130.01 C 172.79 129.09 172.37 128.02 171.45 127.62 C 170.53 127.21 169.45 127.63 169.05 128.56 Z M 168.67 129.43 L 168.27 130.33 C 167.87 131.25 168.28 132.33 169.20 132.73 C 170.12 133.14 171.19 132.72 171.60 131.80 L 172.00 130.91 C 172.40 129.99 171.99 128.91 171.07 128.51 C 170.15 128.10 169.07 128.52 168.67 129.43 Z M 168.28 130.33 L 167.87 131.24 C 167.46 132.15 167.87 133.23 168.79 133.64 C 169.71 134.05 170.78 133.63 171.19 132.72 L 171.60 131.81 C 172.00 130.89 171.59 129.82 170.68 129.41 C 169.76 129.00 168.68 129.41 168.28 130.33 Z M 167.87 131.23 L 167.46 132.15 C 167.05 133.07 167.45 134.14 168.37 134.55 C 169.28 134.97 170.36 134.56 170.77 133.65 L 171.19 132.72 C 171.60 131.81 171.19 130.73 170.28 130.32 C 169.36 129.91 168.29 130.31 167.87 131.23 Z M 167.46 132.14 L 167.04 133.08 C 166.62 133.99 167.02 135.07 167.93 135.48 C 168.85 135.90 169.92 135.50 170.34 134.58 L 170.77 133.65 C 171.18 132.74 170.78 131.66 169.87 131.25 C 168.96 130.83 167.88 131.23 167.46 132.14 Z M 167.04 133.07 L 166.60 134.01 C 166.18 134.92 166.58 136.00 167.49 136.42 C 168.40 136.84 169.48 136.45 169.90 135.54 L 170.33 134.59 C 170.76 133.68 170.36 132.60 169.45 132.18 C 168.54 131.76 167.46 132.16 167.04 133.07 Z M 166.61 134.01 L 166.18 134.94 C 165.75 135.84 166.14 136.92 167.05 137.35 C 167.96 137.77 169.04 137.38 169.46 136.47 L 169.89 135.54 C 170.32 134.64 169.93 133.56 169.02 133.13 C 168.11 132.71 167.03 133.10 166.61 134.01 Z M 166.18 134.93 L 165.77 135.81 C 165.34 136.71 165.72 137.79 166.63 138.22 C 167.53 138.64 168.61 138.26 169.04 137.35 L 169.45 136.48 C 169.88 135.57 169.50 134.49 168.59 134.07 C 167.69 133.64 166.61 134.02 166.18 134.93 Z M 165.77 135.80 L 165.35 136.68 C 164.92 137.59 165.30 138.67 166.20 139.10 C 167.10 139.53 168.18 139.14 168.61 138.24 L 169.03 137.36 C 169.47 136.46 169.08 135.38 168.18 134.95 C 167.28 134.52 166.20 134.90 165.77 135.80 Z M 165.35 136.68 L 164.92 137.57 C 164.49 138.47 164.87 139.55 165.77 139.98 C 166.67 140.42 167.75 140.04 168.18 139.14 L 168.61 138.25 C 169.04 137.35 168.66 136.27 167.76 135.84 C 166.87 135.40 165.79 135.78 165.35 136.68 Z M 164.93 137.57 L 164.49 138.47 C 164.06 139.36 164.43 140.44 165.33 140.88 C 166.22 141.31 167.30 140.94 167.74 140.04 L 168.17 139.14 C 168.61 138.25 168.23 137.17 167.34 136.73 C 166.44 136.30 165.36 136.67 164.93 137.57 Z M 164.50 138.47 L 164.05 139.37 C 163.62 140.26 163.99 141.34 164.89 141.78 C 165.78 142.21 166.86 141.84 167.29 140.95 L 167.73 140.04 C 168.17 139.15 167.80 138.07 166.90 137.64 C 166.01 137.20 164.93 137.57 164.50 138.47 Z M 164.06 139.37 L 163.61 140.28 C 163.18 141.17 163.55 142.25 164.44 142.69 C 165.33 143.12 166.41 142.75 166.84 141.86 L 167.29 140.95 C 167.73 140.06 167.36 138.98 166.46 138.54 C 165.57 138.11 164.49 138.48 164.06 139.37 Z M 163.62 140.28 L 163.17 141.19 C 162.73 142.09 163.10 143.16 163.99 143.60 C 164.88 144.04 165.96 143.67 166.39 142.78 L 166.84 141.86 C 167.28 140.97 166.91 139.89 166.02 139.46 C 165.13 139.02 164.05 139.39 163.62 140.28 Z M 163.17 141.19 L 162.72 142.11 C 162.28 143.00 162.65 144.08 163.54 144.52 C 164.43 144.95 165.50 144.59 165.94 143.70 L 166.39 142.78 C 166.83 141.89 166.46 140.81 165.57 140.38 C 164.68 139.94 163.61 140.30 163.17 141.19 Z M 162.72 142.11 L 162.28 143.01 C 161.84 143.90 162.21 144.98 163.10 145.41 C 163.98 145.85 165.06 145.48 165.49 144.59 L 165.94 143.70 C 166.37 142.81 166.01 141.73 165.12 141.30 C 164.23 140.86 163.16 141.23 162.72 142.11 Z M 162.28 143.01 L 161.84 143.90 C 161.40 144.79 161.77 145.86 162.66 146.30 C 163.55 146.74 164.62 146.37 165.05 145.48 L 165.49 144.59 C 165.93 143.71 165.56 142.63 164.68 142.20 C 163.79 141.76 162.72 142.13 162.28 143.01 Z M 161.84 143.90 L 161.40 144.80 C 160.97 145.68 161.33 146.76 162.22 147.19 C 163.10 147.63 164.18 147.26 164.61 146.38 L 165.05 145.48 C 165.49 144.60 165.12 143.52 164.24 143.09 C 163.35 142.65 162.28 143.02 161.84 143.90 Z M 161.41 144.80 L 160.96 145.69 C 160.53 146.58 160.89 147.65 161.78 148.09 C 162.66 148.52 163.73 148.16 164.17 147.27 L 164.61 146.38 C 165.05 145.49 164.68 144.42 163.80 143.98 C 162.91 143.55 161.84 143.91 161.41 144.80 Z M 160.97 145.69 L 160.52 146.59 C 160.09 147.47 160.45 148.54 161.33 148.98 C 162.22 149.42 163.29 149.05 163.73 148.17 L 164.17 147.27 C 164.61 146.39 164.24 145.32 163.36 144.88 C 162.47 144.44 161.40 144.81 160.97 145.69 Z M 160.52 146.59 L 160.08 147.49 C 159.64 148.37 160.01 149.44 160.89 149.88 C 161.77 150.31 162.84 149.95 163.28 149.07 L 163.72 148.17 C 164.16 147.29 163.80 146.22 162.92 145.78 C 162.03 145.34 160.96 145.70 160.52 146.59 Z M 160.08 147.49 L 159.64 148.39 C 159.20 149.27 159.56 150.34 160.44 150.78 C 161.32 151.21 162.39 150.85 162.83 149.97 L 163.28 149.07 C 163.71 148.19 163.35 147.12 162.47 146.68 C 161.59 146.24 160.52 146.60 160.08 147.49 Z M 159.64 148.38 L 159.19 149.29 C 158.75 150.17 159.11 151.24 159.99 151.67 C 160.87 152.11 161.94 151.75 162.38 150.87 L 162.83 149.97 C 163.27 149.09 162.91 148.02 162.03 147.58 C 161.15 147.14 160.08 147.50 159.64 148.38 Z M 159.19 149.28 L 158.74 150.19 C 158.30 151.06 158.66 152.13 159.54 152.57 C 160.42 153.01 161.49 152.65 161.93 151.77 L 162.38 150.87 C 162.82 149.99 162.46 148.92 161.58 148.49 C 160.70 148.05 159.63 148.40 159.19 149.28 Z M 158.75 150.18 L 158.30 151.07 C 157.86 151.95 158.22 153.02 159.10 153.46 C 159.98 153.90 161.04 153.54 161.48 152.66 L 161.93 151.78 C 162.37 150.90 162.01 149.83 161.13 149.39 C 160.25 148.95 159.19 149.31 158.75 150.18 Z M 158.31 151.07 L 157.86 151.95 C 157.42 152.83 157.78 153.89 158.65 154.33 C 159.53 154.77 160.60 154.42 161.04 153.54 L 161.48 152.66 C 161.92 151.79 161.57 150.72 160.69 150.28 C 159.81 149.84 158.75 150.19 158.31 151.07 Z M 157.87 151.95 L 157.42 152.83 C 156.98 153.71 157.33 154.77 158.21 155.21 C 159.08 155.65 160.15 155.30 160.59 154.43 L 161.03 153.54 C 161.47 152.67 161.12 151.60 160.25 151.16 C 159.37 150.72 158.31 151.08 157.87 151.95 Z M 157.43 152.83 L 156.98 153.72 C 156.54 154.59 156.89 155.66 157.76 156.10 C 158.64 156.54 159.70 156.19 160.14 155.31 L 160.59 154.43 C 161.03 153.55 160.68 152.49 159.80 152.05 C 158.93 151.61 157.87 151.96 157.43 152.83 Z M 156.98 153.72 L 156.53 154.61 C 156.09 155.48 156.44 156.54 157.31 156.98 C 158.19 157.42 159.25 157.07 159.69 156.20 L 160.14 155.31 C 160.58 154.44 160.23 153.38 159.36 152.94 C 158.48 152.50 157.42 152.85 156.98 153.72 Z M 156.54 154.61 L 156.08 155.50 C 155.65 156.37 155.99 157.43 156.86 157.87 C 157.73 158.31 158.80 157.96 159.23 157.09 L 159.69 156.20 C 160.13 155.33 159.78 154.27 158.91 153.83 C 158.04 153.39 156.98 153.74 156.54 154.61 Z M 156.09 155.50 L 155.63 156.40 C 155.19 157.27 155.54 158.33 156.41 158.77 C 157.28 159.21 158.34 158.86 158.78 157.99 L 159.23 157.09 C 159.67 156.22 159.32 155.16 158.45 154.72 C 157.59 154.29 156.53 154.63 156.09 155.50 Z M 155.64 156.40 L 155.18 157.31 C 154.74 158.17 155.09 159.23 155.96 159.67 C 156.82 160.11 157.88 159.76 158.32 158.89 L 158.78 157.99 C 159.21 157.12 158.87 156.06 158.00 155.62 C 157.13 155.19 156.07 155.53 155.64 156.40 Z M 155.18 157.31 L 154.72 158.22 C 154.28 159.08 154.63 160.14 155.50 160.58 C 156.37 161.01 157.42 160.67 157.86 159.80 L 158.32 158.89 C 158.76 158.02 158.41 156.97 157.54 156.53 C 156.67 156.09 155.62 156.44 155.18 157.31 Z M 154.72 158.22 L 154.27 159.13 C 153.83 160.00 154.18 161.05 155.04 161.49 C 155.91 161.92 156.96 161.57 157.40 160.71 L 157.86 159.80 C 158.29 158.93 157.94 157.88 157.08 157.44 C 156.21 157.01 155.16 157.36 154.72 158.22 Z M 154.27 159.13 L 153.81 160.04 C 153.38 160.91 153.72 161.96 154.59 162.39 C 155.45 162.83 156.50 162.48 156.94 161.62 L 157.40 160.71 C 157.83 159.84 157.48 158.79 156.62 158.36 C 155.76 157.92 154.70 158.27 154.27 159.13 Z M 153.81 160.04 L 153.35 160.96 C 152.92 161.82 153.27 162.87 154.13 163.30 C 154.99 163.74 156.04 163.39 156.48 162.53 L 156.93 161.62 C 157.37 160.75 157.02 159.70 156.16 159.27 C 155.30 158.84 154.25 159.18 153.81 160.04 Z M 153.36 160.96 L 152.90 161.87 C 152.46 162.73 152.81 163.78 153.67 164.21 C 154.53 164.65 155.58 164.30 156.01 163.44 L 156.47 162.53 C 156.91 161.67 156.56 160.62 155.70 160.18 C 154.84 159.75 153.79 160.10 153.36 160.96 Z M 152.90 161.87 L 152.44 162.78 C 152.01 163.64 152.36 164.69 153.22 165.12 C 154.07 165.55 155.12 165.21 155.55 164.35 L 156.01 163.44 C 156.44 162.58 156.10 161.53 155.24 161.10 C 154.38 160.67 153.33 161.01 152.90 161.87 Z M 152.45 162.78 L 151.99 163.68 C 151.56 164.54 151.90 165.58 152.76 166.02 C 153.62 166.45 154.66 166.10 155.10 165.25 L 155.55 164.35 C 155.98 163.49 155.64 162.44 154.78 162.01 C 153.92 161.58 152.88 161.92 152.45 162.78 Z M 152.00 163.68 L 151.55 164.57 C 151.11 165.43 151.46 166.47 152.31 166.90 C 153.17 167.33 154.21 166.99 154.64 166.14 L 155.09 165.25 C 155.52 164.39 155.18 163.35 154.33 162.92 C 153.47 162.48 152.43 162.83 152.00 163.68 Z M 151.55 164.57 L 151.11 165.45 C 150.67 166.30 151.01 167.34 151.87 167.77 C 152.72 168.21 153.76 167.87 154.19 167.01 L 154.64 166.14 C 155.07 165.28 154.73 164.24 153.88 163.81 C 153.02 163.38 151.98 163.72 151.55 164.57 Z M 151.11 165.44 L 150.67 166.30 C 150.24 167.15 150.58 168.19 151.43 168.63 C 152.28 169.06 153.32 168.72 153.75 167.87 L 154.19 167.01 C 154.62 166.16 154.29 165.12 153.43 164.69 C 152.58 164.26 151.54 164.59 151.11 165.44 Z M 150.68 166.30 L 150.22 167.19 C 149.79 168.03 150.13 169.07 150.97 169.51 C 151.82 169.94 152.86 169.61 153.29 168.76 L 153.75 167.87 C 154.18 167.03 153.85 165.99 153.00 165.55 C 152.15 165.12 151.11 165.45 150.68 166.30 Z M 150.23 167.18 L 149.73 168.15 C 149.30 168.99 149.63 170.03 150.47 170.46 C 151.32 170.90 152.36 170.57 152.79 169.72 L 153.29 168.76 C 153.72 167.92 153.39 166.88 152.55 166.44 C 151.70 166.01 150.67 166.34 150.23 167.18 Z M 149.74 168.14 L 149.25 169.08 C 148.82 169.92 149.14 170.95 149.98 171.39 C 150.82 171.83 151.86 171.50 152.30 170.66 L 152.78 169.73 C 153.22 168.89 152.89 167.85 152.05 167.41 C 151.21 166.98 150.18 167.30 149.74 168.14 Z M 149.26 169.07 L 148.79 169.98 C 148.35 170.82 148.67 171.85 149.50 172.29 C 150.34 172.73 151.37 172.41 151.81 171.57 L 152.29 170.67 C 152.73 169.83 152.41 168.80 151.57 168.36 C 150.74 167.92 149.70 168.24 149.26 169.07 Z M 148.79 169.97 L 148.33 170.85 C 147.88 171.69 148.20 172.72 149.03 173.16 C 149.86 173.60 150.89 173.29 151.34 172.46 L 151.81 171.58 C 152.25 170.74 151.93 169.71 151.10 169.27 C 150.27 168.83 149.24 169.14 148.79 169.97 Z M 148.33 170.85 L 147.87 171.71 C 147.43 172.53 147.74 173.56 148.56 174.01 C 149.39 174.45 150.42 174.15 150.87 173.32 L 151.33 172.46 C 151.77 171.64 151.46 170.60 150.64 170.16 C 149.81 169.71 148.78 170.02 148.33 170.85 Z M 147.88 171.70 L 147.43 172.53 C 146.98 173.35 147.28 174.39 148.10 174.83 C 148.92 175.28 149.95 174.98 150.40 174.16 L 150.86 173.32 C 151.31 172.50 151.01 171.47 150.18 171.02 C 149.36 170.57 148.33 170.88 147.88 171.70 Z M 147.44 172.53 L 146.98 173.34 C 146.53 174.16 146.83 175.19 147.64 175.64 C 148.46 176.09 149.49 175.80 149.94 174.98 L 150.39 174.17 C 150.85 173.35 150.55 172.32 149.73 171.87 C 148.92 171.41 147.89 171.71 147.44 172.53 Z M 147.00 173.33 L 146.51 174.19 C 146.05 175.01 146.34 176.03 147.15 176.49 C 147.96 176.95 148.99 176.66 149.44 175.85 L 149.93 174.99 C 150.39 174.18 150.10 173.15 149.29 172.69 C 148.48 172.23 147.45 172.52 147.00 173.33 Z M 146.52 174.19 L 145.99 175.10 C 145.53 175.91 145.81 176.93 146.61 177.39 C 147.42 177.86 148.44 177.58 148.91 176.78 L 149.43 175.86 C 149.89 175.06 149.62 174.03 148.81 173.57 C 148.01 173.11 146.98 173.38 146.52 174.19 Z M 146.01 175.09 L 145.49 175.98 C 145.02 176.78 145.28 177.80 146.08 178.27 C 146.88 178.74 147.90 178.47 148.37 177.68 L 148.89 176.78 C 149.36 175.99 149.09 174.96 148.30 174.50 C 147.50 174.03 146.48 174.30 146.01 175.09 Z M 145.50 175.97 L 144.98 176.84 C 144.51 177.63 144.76 178.65 145.55 179.12 C 146.34 179.60 147.36 179.34 147.84 178.55 L 148.35 177.69 C 148.83 176.90 148.57 175.87 147.78 175.40 C 146.99 174.93 145.97 175.18 145.50 175.97 Z M 144.99 176.83 L 144.48 177.67 C 144.00 178.45 144.25 179.47 145.03 179.95 C 145.81 180.43 146.83 180.18 147.31 179.40 L 147.82 178.56 C 148.30 177.78 148.05 176.76 147.27 176.28 C 146.49 175.80 145.47 176.05 144.99 176.83 Z M 144.50 177.66 L 143.99 178.47 C 143.50 179.25 143.74 180.26 144.51 180.75 C 145.28 181.23 146.30 181.00 146.78 180.22 L 147.29 179.41 C 147.78 178.64 147.54 177.62 146.77 177.14 C 146.00 176.65 144.98 176.89 144.50 177.66 Z M 144.00 178.46 L 143.50 179.25 C 143.01 180.01 143.23 181.03 144.00 181.52 C 144.76 182.01 145.78 181.78 146.27 181.02 L 146.77 180.23 C 147.26 179.47 147.04 178.45 146.27 177.96 C 145.51 177.47 144.49 177.70 144.00 178.46 Z M 143.51 179.24 L 142.93 180.12 C 142.44 180.88 142.65 181.89 143.40 182.39 C 144.16 182.88 145.17 182.67 145.67 181.92 L 146.25 181.03 C 146.75 180.28 146.53 179.26 145.78 178.77 C 145.02 178.27 144.01 178.48 143.51 179.24 Z M 142.95 180.11 L 142.37 180.97 C 141.86 181.72 142.06 182.73 142.80 183.24 C 143.55 183.74 144.56 183.54 145.06 182.80 L 145.65 181.93 C 146.15 181.19 145.96 180.18 145.21 179.67 C 144.47 179.17 143.46 179.36 142.95 180.11 Z M 142.39 180.96 L 141.81 181.78 C 141.29 182.52 141.47 183.53 142.20 184.04 C 142.93 184.56 143.94 184.38 144.46 183.65 L 145.04 182.82 C 145.55 182.09 145.38 181.08 144.64 180.56 C 143.91 180.05 142.90 180.22 142.39 180.96 Z M 141.83 181.76 L 141.25 182.55 C 140.73 183.27 140.88 184.28 141.60 184.81 C 142.32 185.33 143.33 185.18 143.86 184.46 L 144.43 183.67 C 144.96 182.95 144.80 181.94 144.08 181.41 C 143.36 180.89 142.36 181.04 141.83 181.76 Z M 141.28 182.53 L 140.70 183.28 C 140.17 183.98 140.30 184.99 141.00 185.53 C 141.71 186.07 142.71 185.94 143.25 185.23 L 143.83 184.48 C 144.37 183.78 144.23 182.77 143.53 182.23 C 142.83 181.69 141.82 181.83 141.28 182.53 Z M 140.74 183.25 L 140.12 184.01 C 139.57 184.70 139.67 185.71 140.36 186.26 C 141.05 186.82 142.05 186.71 142.61 186.02 L 143.22 185.26 C 143.78 184.57 143.67 183.57 142.98 183.01 C 142.30 182.46 141.29 182.57 140.74 183.25 Z M 140.16 183.98 L 139.46 184.79 C 138.89 185.46 138.96 186.47 139.63 187.04 C 140.29 187.61 141.30 187.54 141.87 186.87 L 142.57 186.06 C 143.14 185.39 143.07 184.39 142.40 183.81 C 141.74 183.24 140.73 183.32 140.16 183.98 Z M 139.50 184.76 L 138.80 185.51 C 138.21 186.16 138.25 187.16 138.90 187.75 C 139.54 188.34 140.54 188.30 141.14 187.66 L 141.83 186.91 C 142.42 186.26 142.38 185.26 141.74 184.67 C 141.09 184.07 140.09 184.11 139.50 184.76 Z M 138.85 185.48 L 138.16 186.17 C 137.55 186.79 137.56 187.79 138.18 188.40 C 138.80 189.01 139.80 189.01 140.41 188.39 L 141.09 187.69 C 141.71 187.07 141.70 186.08 141.08 185.46 C 140.46 184.85 139.46 184.86 138.85 185.48 Z M 138.21 186.13 L 137.54 186.76 C 136.91 187.36 136.88 188.35 137.47 188.98 C 138.07 189.61 139.06 189.65 139.69 189.05 L 140.36 188.42 C 141.00 187.83 141.03 186.83 140.43 186.20 C 139.84 185.57 138.84 185.54 138.21 186.13 Z M 137.60 186.72 L 136.86 187.35 C 136.20 187.92 136.13 188.90 136.69 189.56 C 137.26 190.22 138.24 190.29 138.90 189.73 L 139.64 189.09 C 140.29 188.53 140.37 187.54 139.80 186.89 C 139.24 186.23 138.25 186.15 137.60 186.72 Z M 136.94 187.29 L 136.17 187.86 C 135.48 188.38 135.34 189.36 135.86 190.05 C 136.37 190.74 137.35 190.88 138.04 190.37 L 138.81 189.79 C 139.51 189.27 139.65 188.30 139.13 187.60 C 138.61 186.91 137.64 186.77 136.94 187.29 Z M 136.29 187.79 L 135.46 188.30 C 134.73 188.75 134.50 189.71 134.95 190.45 C 135.40 191.18 136.36 191.41 137.09 190.95 L 137.93 190.44 C 138.66 189.99 138.89 189.03 138.43 188.30 C 137.98 187.57 137.02 187.34 136.29 187.79 Z M 135.59 188.23 L 134.65 188.70 C 133.88 189.08 133.56 190.01 133.94 190.78 C 134.32 191.55 135.25 191.87 136.02 191.49 L 136.96 191.02 C 137.73 190.64 138.05 189.71 137.67 188.94 C 137.29 188.17 136.36 187.86 135.59 188.23 Z M 134.76 188.65 L 133.91 188.99 C 133.11 189.31 132.72 190.21 133.04 191.01 C 133.36 191.80 134.26 192.19 135.06 191.87 L 135.91 191.53 C 136.70 191.21 137.09 190.31 136.77 189.52 C 136.45 188.72 135.55 188.34 134.76 188.65 Z M 133.98 188.97 L 133.07 189.28 C 132.27 189.56 131.84 190.44 132.12 191.25 C 132.40 192.06 133.28 192.49 134.08 192.21 L 134.99 191.90 C 135.80 191.62 136.22 190.74 135.95 189.93 C 135.67 189.12 134.79 188.69 133.98 188.97 Z M 133.12 189.27 L 132.16 189.57 C 131.34 189.82 130.89 190.69 131.14 191.50 C 131.39 192.32 132.26 192.77 133.07 192.52 L 134.04 192.22 C 134.85 191.97 135.31 191.10 135.06 190.29 C 134.80 189.47 133.94 189.02 133.12 189.27 Z M 132.19 189.56 L 131.18 189.85 C 130.36 190.09 129.89 190.94 130.13 191.76 C 130.36 192.58 131.22 193.05 132.04 192.82 L 133.04 192.53 C 133.86 192.29 134.33 191.43 134.10 190.62 C 133.86 189.80 133.01 189.33 132.19 189.56 Z M 131.20 189.85 L 130.17 190.14 C 129.35 190.36 128.87 191.21 129.10 192.03 C 129.32 192.85 130.17 193.33 130.99 193.11 L 132.02 192.82 C 132.84 192.59 133.32 191.74 133.09 190.92 C 132.87 190.10 132.02 189.62 131.20 189.85 Z M 130.17 190.14 L 129.94 190.20 C 129.12 190.43 128.64 191.27 128.87 192.09 C 129.09 192.91 129.94 193.39 130.76 193.17 L 130.99 193.10 C 131.81 192.88 132.29 192.03 132.07 191.21 C 131.84 190.39 130.99 189.91 130.17 190.14 Z"
      fill="black"
      fill-rule="nonzero" /><path d="M 163.97 68.27 L 164.59 68.95 C 165.18 69.59 166.19 69.64 166.83 69.05 C 167.48 68.45 167.52 67.45 166.93 66.81 L 166.31 66.13 C 165.72 65.48 164.72 65.44 164.07 66.03 C 163.42 66.62 163.38 67.62 163.97 68.27 Z M 164.59 68.95 L 165.22 69.64 C 165.81 70.29 166.82 70.34 167.47 69.75 C 168.11 69.16 168.16 68.16 167.57 67.51 L 166.94 66.81 C 166.35 66.16 165.34 66.11 164.69 66.70 C 164.05 67.29 164.00 68.30 164.59 68.95 Z M 165.21 69.64 L 165.87 70.37 C 166.46 71.03 167.46 71.08 168.12 70.50 C 168.77 69.91 168.83 68.90 168.24 68.25 L 167.58 67.51 C 167.00 66.86 165.99 66.80 165.33 67.39 C 164.68 67.98 164.62 68.98 165.21 69.64 Z M 165.86 70.36 L 166.56 71.16 C 167.14 71.82 168.15 71.88 168.81 71.30 C 169.47 70.72 169.53 69.71 168.95 69.05 L 168.25 68.26 C 167.67 67.60 166.66 67.53 166.00 68.11 C 165.34 68.69 165.28 69.70 165.86 70.36 Z M 166.54 71.15 L 167.24 71.96 C 167.82 72.62 168.83 72.70 169.49 72.12 C 170.16 71.55 170.24 70.54 169.66 69.87 L 168.96 69.06 C 168.39 68.39 167.38 68.32 166.71 68.89 C 166.04 69.47 165.97 70.48 166.54 71.15 Z M 167.24 71.94 L 167.86 72.68 C 168.43 73.35 169.43 73.43 170.11 72.87 C 170.78 72.30 170.86 71.29 170.29 70.62 L 169.67 69.89 C 169.10 69.21 168.09 69.13 167.42 69.70 C 166.75 70.27 166.67 71.27 167.24 71.94 Z M 167.86 72.67 L 168.51 73.44 C 169.07 74.11 170.07 74.20 170.74 73.64 C 171.41 73.07 171.50 72.07 170.94 71.40 L 170.29 70.63 C 169.73 69.96 168.73 69.87 168.06 70.44 C 167.39 71.00 167.30 72.00 167.86 72.67 Z M 168.51 73.43 L 169.17 74.22 C 169.72 74.89 170.72 74.98 171.39 74.42 C 172.06 73.86 172.15 72.87 171.59 72.20 L 170.93 71.41 C 170.38 70.74 169.38 70.65 168.71 71.21 C 168.04 71.77 167.95 72.76 168.51 73.43 Z M 169.17 74.21 L 169.83 75.00 C 170.38 75.67 171.37 75.76 172.04 75.21 C 172.71 74.65 172.80 73.66 172.24 73.00 L 171.59 72.20 C 171.03 71.54 170.04 71.45 169.37 72.00 C 168.71 72.55 168.61 73.55 169.17 74.21 Z M 169.83 75.00 L 170.48 75.78 C 171.03 76.44 172.02 76.53 172.68 75.98 C 173.35 75.43 173.44 74.44 172.88 73.78 L 172.24 73.00 C 171.69 72.34 170.70 72.24 170.04 72.80 C 169.37 73.35 169.28 74.34 169.83 75.00 Z M 170.49 75.77 L 171.14 76.56 C 171.69 77.22 172.67 77.31 173.33 76.76 C 173.99 76.20 174.08 75.22 173.53 74.56 L 172.88 73.78 C 172.32 73.12 171.34 73.03 170.68 73.58 C 170.03 74.13 169.94 75.11 170.49 75.77 Z M 171.16 76.55 L 171.85 77.37 C 172.39 78.02 173.37 78.10 174.02 77.55 C 174.67 77.01 174.75 76.03 174.20 75.38 L 173.51 74.57 C 172.97 73.92 171.99 73.84 171.34 74.38 C 170.69 74.93 170.61 75.90 171.16 76.55 Z M 171.87 77.36 L 172.53 78.14 C 173.07 78.77 174.03 78.85 174.67 78.30 C 175.31 77.76 175.38 76.80 174.84 76.16 L 174.18 75.39 C 173.63 74.75 172.67 74.68 172.04 75.22 C 171.40 75.77 171.32 76.73 171.87 77.36 Z M 172.55 78.13 L 173.20 78.87 C 173.74 79.50 174.69 79.56 175.31 79.02 C 175.94 78.47 176.00 77.53 175.46 76.90 L 174.81 76.16 C 174.27 75.54 173.32 75.47 172.70 76.02 C 172.07 76.56 172.01 77.51 172.55 78.13 Z M 173.22 78.87 L 173.86 79.58 C 174.40 80.19 175.34 80.25 175.95 79.70 C 176.56 79.16 176.61 78.22 176.07 77.61 L 175.43 76.90 C 174.89 76.29 173.95 76.24 173.34 76.78 C 172.73 77.33 172.68 78.26 173.22 78.87 Z M 173.89 79.59 L 174.53 80.29 C 175.07 80.88 176.00 80.92 176.59 80.38 C 177.19 79.83 177.23 78.91 176.68 78.31 L 176.04 77.61 C 175.49 77.02 174.57 76.98 173.98 77.52 C 173.38 78.07 173.34 78.99 173.89 79.59 Z M 174.55 80.29 L 175.24 81.02 C 175.79 81.60 176.70 81.63 177.28 81.08 C 177.87 80.53 177.89 79.62 177.34 79.03 L 176.66 78.31 C 176.11 77.72 175.19 77.70 174.61 78.25 C 174.03 78.80 174.00 79.71 174.55 80.29 Z M 175.25 81.03 L 175.95 81.75 C 176.50 82.32 177.42 82.34 177.99 81.78 C 178.56 81.23 178.58 80.32 178.02 79.74 L 177.33 79.02 C 176.77 78.45 175.86 78.44 175.29 78.99 C 174.71 79.54 174.70 80.46 175.25 81.03 Z M 175.96 81.75 L 176.66 82.47 C 177.22 83.03 178.13 83.04 178.70 82.48 C 179.26 81.93 179.27 81.02 178.71 80.45 L 178.01 79.74 C 177.45 79.17 176.54 79.16 175.98 79.72 C 175.41 80.28 175.40 81.19 175.96 81.75 Z M 176.67 82.47 L 177.38 83.18 C 177.93 83.74 178.84 83.74 179.40 83.18 C 179.96 82.63 179.97 81.72 179.41 81.16 L 178.70 80.45 C 178.14 79.89 177.24 79.89 176.68 80.44 C 176.12 81.00 176.11 81.91 176.67 82.47 Z M 177.38 83.18 L 177.89 83.69 C 178.45 84.24 179.35 84.24 179.91 83.69 C 180.47 83.13 180.47 82.22 179.91 81.67 L 179.40 81.16 C 178.84 80.60 177.94 80.60 177.38 81.16 C 176.82 81.72 176.82 82.62 177.38 83.18 Z"
      fill="black"
      fill-rule="nonzero" /><path d="M 184.92 74.41 L 185.17 75.24 C 185.43 76.08 186.32 76.55 187.16 76.30 C 188.00 76.04 188.47 75.15 188.22 74.31 L 187.96 73.48 C 187.71 72.64 186.82 72.16 185.98 72.42 C 185.13 72.68 184.66 73.57 184.92 74.41 Z M 185.17 75.25 L 185.44 76.11 C 185.71 76.95 186.60 77.41 187.44 77.15 C 188.28 76.89 188.75 75.99 188.48 75.15 L 188.21 74.30 C 187.95 73.46 187.06 72.99 186.22 73.25 C 185.38 73.52 184.91 74.41 185.17 75.25 Z M 185.45 76.13 L 185.75 77.04 C 186.03 77.87 186.93 78.33 187.76 78.05 C 188.60 77.77 189.05 76.87 188.78 76.03 L 188.48 75.13 C 188.20 74.29 187.30 73.84 186.46 74.11 C 185.62 74.39 185.17 75.29 185.45 76.13 Z M 185.76 77.07 L 186.11 78.05 C 186.40 78.88 187.31 79.32 188.14 79.02 C 188.97 78.73 189.41 77.82 189.12 76.99 L 188.77 76.00 C 188.47 75.17 187.56 74.74 186.73 75.03 C 185.90 75.33 185.46 76.24 185.76 77.07 Z M 186.12 78.09 L 186.53 79.17 C 186.84 80.00 187.77 80.41 188.59 80.10 C 189.42 79.79 189.83 78.86 189.52 78.04 L 189.10 76.95 C 188.79 76.13 187.87 75.71 187.04 76.03 C 186.22 76.34 185.81 77.26 186.12 78.09 Z M 186.55 79.20 L 186.93 80.16 C 187.26 80.97 188.19 81.37 189.00 81.04 C 189.82 80.71 190.22 79.78 189.89 78.97 L 189.50 78.01 C 189.17 77.19 188.25 76.80 187.43 77.13 C 186.61 77.46 186.22 78.38 186.55 79.20 Z M 186.95 80.18 L 187.33 81.09 C 187.67 81.90 188.60 82.28 189.40 81.94 C 190.21 81.60 190.59 80.67 190.26 79.86 L 189.87 78.95 C 189.53 78.14 188.61 77.76 187.80 78.10 C 186.99 78.44 186.61 79.37 186.95 80.18 Z M 187.34 81.10 L 187.75 82.05 C 188.10 82.85 189.02 83.22 189.82 82.87 C 190.62 82.53 190.99 81.60 190.65 80.80 L 190.24 79.85 C 189.90 79.05 188.97 78.68 188.17 79.03 C 187.37 79.37 187.00 80.30 187.34 81.10 Z M 187.77 82.06 L 188.19 83.02 C 188.54 83.81 189.46 84.17 190.26 83.82 C 191.05 83.47 191.41 82.55 191.06 81.76 L 190.64 80.79 C 190.29 80.00 189.36 79.64 188.57 79.99 C 187.78 80.34 187.42 81.26 187.77 82.06 Z M 188.20 83.03 L 188.63 83.98 C 188.98 84.77 189.90 85.12 190.69 84.77 C 191.48 84.41 191.83 83.49 191.47 82.71 L 191.05 81.75 C 190.69 80.96 189.77 80.61 188.99 80.97 C 188.20 81.32 187.85 82.24 188.20 83.03 Z M 188.64 83.99 L 189.06 84.91 C 189.42 85.69 190.34 86.04 191.12 85.68 C 191.90 85.33 192.24 84.41 191.88 83.63 L 191.46 82.70 C 191.11 81.92 190.19 81.58 189.41 81.93 C 188.63 82.29 188.29 83.21 188.64 83.99 Z M 189.08 84.92 L 189.48 85.80 C 189.84 86.57 190.76 86.91 191.53 86.55 C 192.30 86.19 192.64 85.27 192.28 84.50 L 191.87 83.62 C 191.52 82.85 190.60 82.52 189.83 82.87 C 189.06 83.23 188.72 84.15 189.08 84.92 Z M 189.50 85.80 L 189.93 86.72 C 190.29 87.49 191.20 87.81 191.97 87.45 C 192.73 87.09 193.06 86.18 192.70 85.42 L 192.27 84.50 C 191.91 83.73 190.99 83.41 190.23 83.77 C 189.47 84.13 189.14 85.04 189.50 85.80 Z M 189.95 86.73 L 190.46 87.79 C 190.82 88.54 191.73 88.86 192.48 88.50 C 193.24 88.14 193.55 87.23 193.19 86.48 L 192.68 85.41 C 192.32 84.66 191.41 84.34 190.66 84.71 C 189.91 85.07 189.59 85.97 189.95 86.73 Z M 190.49 87.79 L 190.94 88.72 C 191.30 89.46 192.20 89.76 192.94 89.40 C 193.68 89.04 193.98 88.14 193.62 87.40 L 193.17 86.48 C 192.80 85.74 191.91 85.43 191.17 85.79 C 190.43 86.16 190.12 87.05 190.49 87.79 Z M 190.96 88.72 L 191.37 89.55 C 191.74 90.27 192.62 90.57 193.35 90.21 C 194.08 89.85 194.37 88.96 194.01 88.23 L 193.60 87.40 C 193.24 86.68 192.35 86.38 191.62 86.74 C 190.90 87.10 190.60 87.99 190.96 88.72 Z M 191.39 89.54 L 191.78 90.32 C 192.14 91.03 193.01 91.33 193.73 90.97 C 194.45 90.61 194.74 89.74 194.38 89.02 L 193.99 88.24 C 193.64 87.52 192.76 87.23 192.05 87.59 C 191.33 87.95 191.04 88.82 191.39 89.54 Z M 191.79 90.30 L 192.19 91.11 C 192.54 91.82 193.40 92.11 194.11 91.76 C 194.82 91.41 195.12 90.55 194.77 89.84 L 194.37 89.03 C 194.02 88.32 193.16 88.03 192.45 88.38 C 191.74 88.73 191.44 89.59 191.79 90.30 Z M 192.19 91.10 L 192.62 91.98 C 192.96 92.70 193.82 92.99 194.53 92.65 C 195.24 92.31 195.54 91.45 195.19 90.74 L 194.77 89.85 C 194.42 89.14 193.57 88.85 192.86 89.19 C 192.15 89.53 191.85 90.38 192.19 91.10 Z M 192.62 91.98 L 193.05 92.88 C 193.38 93.59 194.24 93.90 194.95 93.56 C 195.66 93.22 195.96 92.37 195.63 91.66 L 195.20 90.75 C 194.86 90.04 194.01 89.74 193.30 90.07 C 192.58 90.41 192.28 91.26 192.62 91.98 Z M 193.04 92.87 L 193.47 93.79 C 193.81 94.50 194.66 94.81 195.37 94.47 C 196.08 94.14 196.39 93.29 196.06 92.57 L 195.63 91.66 C 195.29 90.95 194.44 90.64 193.73 90.98 C 193.02 91.31 192.71 92.16 193.04 92.87 Z M 193.47 93.78 L 193.88 94.66 C 194.21 95.37 195.06 95.68 195.78 95.34 C 196.49 95.01 196.80 94.16 196.46 93.45 L 196.06 92.58 C 195.72 91.86 194.87 91.56 194.16 91.89 C 193.45 92.22 193.14 93.07 193.47 93.78 Z"
      fill="black"
      fill-rule="nonzero" /></svg>