<svg xmlns="http://www.w3.org/2000/svg" width="300" height="300" viewBox="0 0 300 300">
<path d="M 118.67 119.05 L 119.34 119.75 C 119.92 120.35 120.88 120.37 121.49 119.79 C 122.09 119.21 122.11 118.24 121.53 117.64 L 120.86 116.94 C 120.28 116.34 119.32 116.32 118.71 116.90 C 118.11 117.48 118.09 118.45 118.67 119.05 Z M 119.34 119.75 L 120.02 120.45 C 120.61 121.05 121.57 121.07 122.17 120.48 C 122.77 119.89 122.79 118.93 122.20 118.33 L 121.52 117.63 C 120.94 117.03 119.97 117.01 119.37 117.60 C 118.77 118.19 118.76 119.15 119.34 119.75 Z M 120.03 120.46 L 120.73 121.17 C 121.32 121.76 122.29 121.77 122.88 121.17 C 123.48 120.58 123.48 119.62 122.89 119.02 L 122.19 118.32 C 121.60 117.72 120.63 117.72 120.04 118.31 C 119.44 118.90 119.44 119.87 120.03 120.46 Z M 120.75 121.18 L 121.48 121.90 C 122.08 122.49 123.05 122.47 123.63 121.87 C 124.22 121.27 124.21 120.31 123.61 119.72 L 122.87 119.00 C 122.27 118.42 121.31 118.43 120.72 119.03 C 120.14 119.63 120.15 120.60 120.75 121.18 Z M 121.50 121.92 L 122.26 122.63 C 122.87 123.21 123.83 123.18 124.41 122.56 C 124.99 121.95 124.96 120.99 124.34 120.42 L 123.59 119.70 C 122.97 119.13 122.01 119.16 121.44 119.77 C 120.86 120.38 120.89 121.34 121.50 121.92 Z M 122.29 122.64 L 123.02 123.31 C 123.64 123.87 124.60 123.83 125.16 123.21 C 125.72 122.59 125.68 121.63 125.06 121.07 L 124.32 120.40 C 123.70 119.84 122.74 119.89 122.18 120.51 C 121.62 121.12 121.67 122.08 122.29 122.64 Z M 123.05 123.31 L 123.81 123.99 C 124.43 124.54 125.37 124.48 125.92 123.86 C 126.47 123.24 126.42 122.29 125.80 121.74 L 125.04 121.07 C 124.42 120.52 123.47 120.58 122.92 121.20 C 122.37 121.82 122.43 122.77 123.05 123.31 Z M 123.82 123.99 L 124.59 124.66 C 125.21 125.20 126.15 125.13 126.69 124.52 C 127.23 123.90 127.16 122.96 126.55 122.42 L 125.78 121.75 C 125.16 121.21 124.22 121.27 123.68 121.89 C 123.14 122.51 123.21 123.45 123.82 123.99 Z M 124.60 124.65 L 125.36 125.31 C 125.97 125.84 126.91 125.78 127.44 125.16 C 127.97 124.55 127.91 123.62 127.29 123.08 L 126.54 122.43 C 125.92 121.89 124.99 121.96 124.46 122.57 C 123.92 123.19 123.99 124.12 124.60 124.65 Z M 125.37 125.30 L 126.10 125.94 C 126.71 126.47 127.63 126.40 128.16 125.79 C 128.69 125.19 128.63 124.26 128.02 123.73 L 127.29 123.10 C 126.68 122.57 125.76 122.63 125.23 123.24 C 124.70 123.84 124.76 124.77 125.37 125.30 Z M 126.10 125.92 L 126.90 126.63 C 127.50 127.16 128.42 127.10 128.95 126.50 C 129.48 125.90 129.42 124.98 128.82 124.45 L 128.02 123.75 C 127.42 123.22 126.50 123.27 125.97 123.87 C 125.44 124.47 125.50 125.39 126.10 125.92 Z M 126.89 126.62 L 127.66 127.30 C 128.25 127.83 129.16 127.78 129.69 127.19 C 130.23 126.59 130.18 125.68 129.58 125.15 L 128.82 124.46 C 128.23 123.93 127.32 123.98 126.78 124.58 C 126.25 125.17 126.30 126.08 126.89 126.62 Z M 127.65 127.29 L 128.38 127.95 C 128.97 128.48 129.88 128.44 130.41 127.85 C 130.95 127.26 130.90 126.35 130.31 125.82 L 129.59 125.16 C 129.00 124.62 128.09 124.67 127.55 125.26 C 127.02 125.84 127.06 126.75 127.65 127.29 Z M 128.38 127.94 L 129.09 128.59 C 129.67 129.12 130.58 129.08 131.11 128.49 C 131.64 127.91 131.60 127.00 131.02 126.47 L 130.31 125.82 C 129.73 125.29 128.82 125.33 128.29 125.92 C 127.76 126.50 127.80 127.41 128.38 127.94 Z M 129.09 128.58 L 129.52 128.97 C 130.10 129.50 131.00 129.47 131.53 128.88 C 132.07 128.30 132.03 127.40 131.45 126.87 L 131.02 126.48 C 130.44 125.94 129.53 125.98 129.00 126.56 C 128.47 127.15 128.51 128.05 129.09 128.58 Z"
      fill="black"
      fill-rule="nonzero" /><path d="M 113.81 143.02 L 112.43 143.02 C 111.56 143.02 110.86 143.72 110.86 144.59 C 110.86 145.46 111.57 146.16 112.43 146.16 L 113.81 146.16 C 114.68 146.16 115.39 145.46 115.38 144.59 C 115.38 143.72 114.68 143.02 113.81 143.02 Z M 112.42 143.02 L 111.45 143.03 C 110.58 143.04 109.88 143.75 109.89 144.61 C 109.90 145.48 110.61 146.18 111.48 146.17 L 112.45 146.16 C 113.32 146.15 114.01 145.44 114.01 144.57 C 114.00 143.71 113.29 143.01 112.42 143.02 Z M 111.25 143.04 L 111.08 143.07 C 110.22 143.19 109.62 143.98 109.74 144.83 C 109.86 145.69 110.65 146.29 111.51 146.18 L 111.68 146.15 C 112.54 146.04 113.14 145.25 113.02 144.39 C 112.90 143.53 112.11 142.93 111.25 143.04 Z M 111.17 146.18 L 111.80 146.23 C 112.66 146.30 113.41 145.66 113.48 144.80 C 113.55 143.94 112.91 143.19 112.05 143.12 L 111.42 143.07 C 110.56 143.00 109.81 143.64 109.74 144.50 C 109.67 145.36 110.31 146.11 111.17 146.18 Z M 111.80 146.22 L 113.12 146.32 C 113.98 146.39 114.72 145.76 114.79 144.90 C 114.86 144.05 114.22 143.30 113.37 143.23 L 112.05 143.13 C 111.20 143.06 110.45 143.70 110.38 144.55 C 110.31 145.40 110.95 146.15 111.80 146.22 Z M 113.10 146.31 L 114.35 146.43 C 115.20 146.51 115.95 145.89 116.03 145.04 C 116.11 144.19 115.49 143.44 114.64 143.36 L 113.39 143.25 C 112.54 143.17 111.79 143.79 111.71 144.63 C 111.63 145.48 112.25 146.23 113.10 146.31 Z M 114.33 146.42 L 115.21 146.51 C 116.05 146.60 116.81 145.99 116.90 145.15 C 116.98 144.31 116.37 143.55 115.53 143.46 L 114.65 143.37 C 113.81 143.28 113.06 143.89 112.97 144.74 C 112.88 145.58 113.49 146.33 114.33 146.42 Z M 115.20 146.51 L 116.15 146.61 C 116.99 146.71 117.74 146.10 117.84 145.27 C 117.93 144.43 117.33 143.67 116.49 143.58 L 115.54 143.47 C 114.70 143.38 113.95 143.98 113.85 144.82 C 113.76 145.66 114.36 146.41 115.20 146.51 Z M 116.14 146.61 L 117.14 146.73 C 117.98 146.83 118.73 146.23 118.83 145.40 C 118.93 144.56 118.34 143.80 117.50 143.71 L 116.50 143.59 C 115.67 143.49 114.91 144.08 114.81 144.91 C 114.71 145.75 115.30 146.51 116.14 146.61 Z M 117.13 146.72 L 118.18 146.85 C 119.01 146.96 119.76 146.37 119.87 145.54 C 119.97 144.71 119.39 143.95 118.56 143.84 L 117.51 143.71 C 116.68 143.61 115.92 144.19 115.82 145.02 C 115.71 145.86 116.30 146.61 117.13 146.72 Z M 118.17 146.84 L 119.23 146.99 C 120.06 147.10 120.82 146.52 120.93 145.69 C 121.04 144.86 120.46 144.11 119.63 143.99 L 118.57 143.85 C 117.74 143.74 116.98 144.32 116.87 145.15 C 116.76 145.97 117.34 146.73 118.17 146.84 Z M 119.22 146.98 L 120.30 147.13 C 121.12 147.25 121.88 146.68 122.00 145.86 C 122.12 145.03 121.54 144.27 120.72 144.15 L 119.65 144.00 C 118.82 143.89 118.06 144.46 117.95 145.28 C 117.83 146.10 118.40 146.86 119.22 146.98 Z M 120.29 147.12 L 121.33 147.28 C 122.14 147.40 122.91 146.84 123.03 146.02 C 123.15 145.21 122.59 144.44 121.77 144.32 L 120.73 144.16 C 119.92 144.04 119.15 144.60 119.03 145.42 C 118.91 146.24 119.47 147.00 120.29 147.12 Z M 121.31 147.27 L 122.32 147.43 C 123.13 147.56 123.89 147.01 124.02 146.19 C 124.15 145.38 123.60 144.62 122.79 144.49 L 121.78 144.33 C 120.97 144.20 120.21 144.75 120.08 145.57 C 119.95 146.38 120.50 147.14 121.31 147.27 Z M 122.31 147.42 L 123.30 147.59 C 124.11 147.72 124.87 147.18 125.01 146.37 C 125.14 145.56 124.60 144.80 123.79 144.67 L 122.80 144.50 C 121.99 144.37 121.23 144.91 121.09 145.72 C 120.96 146.52 121.50 147.29 122.31 147.42 Z M 123.30 147.57 L 124.28 147.75 C 125.08 147.88 125.84 147.35 125.98 146.55 C 126.12 145.75 125.58 144.99 124.78 144.85 L 123.80 144.68 C 123.00 144.54 122.24 145.08 122.10 145.88 C 121.96 146.68 122.50 147.44 123.30 147.57 Z M 124.28 147.74 L 125.25 147.91 C 126.05 148.05 126.81 147.52 126.95 146.73 C 127.09 145.93 126.56 145.17 125.77 145.03 L 124.79 144.86 C 123.99 144.72 123.23 145.25 123.09 146.04 C 122.95 146.84 123.48 147.59 124.28 147.74 Z M 125.25 147.90 L 126.23 148.08 C 127.02 148.22 127.77 147.70 127.91 146.91 C 128.06 146.12 127.53 145.36 126.75 145.22 L 125.77 145.04 C 124.98 144.90 124.23 145.42 124.08 146.21 C 123.94 147.00 124.46 147.76 125.25 147.90 Z M 126.22 148.07 L 127.20 148.25 C 127.98 148.39 128.73 147.87 128.88 147.09 C 129.02 146.30 128.50 145.55 127.72 145.41 L 126.75 145.23 C 125.96 145.08 125.21 145.60 125.07 146.39 C 124.92 147.17 125.44 147.92 126.22 148.07 Z M 127.20 148.24 L 127.97 148.38 C 128.75 148.53 129.50 148.01 129.64 147.23 C 129.79 146.45 129.27 145.70 128.49 145.56 L 127.72 145.41 C 126.94 145.27 126.19 145.79 126.05 146.57 C 125.90 147.34 126.42 148.09 127.20 148.24 Z"
      fill="black"
      fill-rule="nonzero" /><path d="M 162.61 134.55 L 162.14 135.35 C 161.71 136.10 161.97 137.05 162.71 137.48 C 163.45 137.91 164.40 137.65 164.83 136.91 L 165.30 136.11 C 165.73 135.36 165.47 134.41 164.73 133.98 C 163.99 133.55 163.03 133.81 162.61 134.55 Z M 162.10 135.37 L 161.64 136.21 C 161.22 136.97 161.50 137.93 162.27 138.35 C 163.03 138.78 163.99 138.49 164.42 137.73 L 164.87 136.89 C 165.30 136.13 165.02 135.16 164.25 134.74 C 163.48 134.32 162.52 134.60 162.10 135.37 Z M 161.59 136.25 L 161.13 137.16 C 160.74 137.96 161.06 138.92 161.86 139.32 C 162.66 139.71 163.62 139.39 164.02 138.59 L 164.47 137.68 C 164.87 136.89 164.54 135.92 163.74 135.52 C 162.95 135.13 161.98 135.45 161.59 136.25 Z M 161.07 137.23 L 160.64 138.24 C 160.28 139.07 160.66 140.03 161.49 140.39 C 162.32 140.75 163.28 140.37 163.64 139.54 L 164.08 138.53 C 164.44 137.70 164.06 136.73 163.23 136.37 C 162.40 136.01 161.43 136.39 161.07 137.23 Z M 160.59 138.31 L 160.25 139.21 C 159.93 140.06 160.36 141.02 161.22 141.34 C 162.07 141.66 163.03 141.23 163.35 140.37 L 163.69 139.47 C 164.01 138.61 163.58 137.66 162.72 137.34 C 161.87 137.02 160.91 137.45 160.59 138.31 Z M 160.23 139.25 L 159.90 140.21 C 159.61 141.08 160.07 142.02 160.94 142.32 C 161.80 142.61 162.75 142.15 163.04 141.28 L 163.37 140.32 C 163.67 139.46 163.20 138.51 162.34 138.22 C 161.47 137.92 160.53 138.39 160.23 139.25 Z M 159.89 140.24 L 159.57 141.22 C 159.29 142.10 159.78 143.03 160.65 143.31 C 161.53 143.59 162.46 143.11 162.74 142.24 L 163.06 141.25 C 163.34 140.38 162.86 139.44 161.98 139.16 C 161.11 138.88 160.17 139.36 159.89 140.24 Z M 159.56 141.24 L 159.26 142.21 C 158.99 143.09 159.49 144.03 160.37 144.30 C 161.25 144.57 162.18 144.08 162.45 143.19 L 162.75 142.22 C 163.03 141.34 162.53 140.41 161.65 140.13 C 160.77 139.86 159.84 140.36 159.56 141.24 Z M 159.26 142.21 L 158.97 143.15 C 158.70 144.03 159.20 144.97 160.08 145.24 C 160.97 145.51 161.90 145.01 162.17 144.13 L 162.46 143.19 C 162.73 142.31 162.23 141.37 161.35 141.10 C 160.47 140.83 159.53 141.33 159.26 142.21 Z M 158.97 143.13 L 158.65 144.15 C 158.38 145.04 158.87 145.98 159.75 146.25 C 160.63 146.53 161.58 146.04 161.85 145.16 L 162.17 144.14 C 162.45 143.25 161.96 142.31 161.07 142.04 C 160.19 141.76 159.25 142.25 158.97 143.13 Z M 158.66 144.14 L 158.35 145.08 C 158.06 145.97 158.55 146.91 159.43 147.20 C 160.31 147.49 161.26 147.00 161.54 146.12 L 161.85 145.17 C 162.14 144.29 161.65 143.34 160.77 143.06 C 159.89 142.77 158.94 143.25 158.66 144.14 Z M 158.35 145.07 L 158.05 145.98 C 157.75 146.86 158.23 147.82 159.11 148.11 C 159.99 148.41 160.94 147.93 161.23 147.05 L 161.54 146.14 C 161.83 145.26 161.36 144.30 160.48 144.01 C 159.60 143.71 158.65 144.19 158.35 145.07 Z M 158.05 145.97 L 157.73 146.89 C 157.43 147.77 157.90 148.72 158.78 149.03 C 159.65 149.33 160.61 148.86 160.91 147.98 L 161.23 147.07 C 161.53 146.19 161.06 145.23 160.19 144.93 C 159.31 144.63 158.35 145.09 158.05 145.97 Z M 157.74 146.88 L 157.42 147.76 C 157.11 148.64 157.58 149.60 158.45 149.91 C 159.33 150.22 160.29 149.76 160.60 148.88 L 160.91 147.99 C 161.22 147.12 160.76 146.16 159.88 145.85 C 159.00 145.54 158.04 146.00 157.74 146.88 Z M 157.43 147.76 L 157.10 148.66 C 156.79 149.54 157.25 150.50 158.12 150.82 C 159.00 151.13 159.96 150.67 160.27 149.80 L 160.60 148.89 C 160.91 148.01 160.45 147.05 159.58 146.74 C 158.70 146.42 157.74 146.88 157.43 147.76 Z M 157.10 148.66 L 156.76 149.60 C 156.45 150.47 156.90 151.44 157.78 151.75 C 158.65 152.07 159.62 151.62 159.93 150.74 L 160.27 149.80 C 160.59 148.93 160.13 147.96 159.26 147.64 C 158.38 147.33 157.42 147.78 157.10 148.66 Z M 156.76 149.59 L 156.41 150.57 C 156.09 151.44 156.54 152.41 157.42 152.73 C 158.29 153.05 159.26 152.60 159.58 151.72 L 159.93 150.75 C 160.25 149.87 159.80 148.91 158.92 148.59 C 158.05 148.27 157.08 148.72 156.76 149.59 Z M 156.41 150.57 L 156.05 151.55 C 155.73 152.42 156.18 153.39 157.05 153.71 C 157.93 154.03 158.90 153.58 159.22 152.71 L 159.58 151.72 C 159.90 150.85 159.45 149.88 158.57 149.56 C 157.70 149.24 156.73 149.69 156.41 150.57 Z M 156.05 151.55 L 155.72 152.44 C 155.40 153.31 155.85 154.28 156.73 154.60 C 157.60 154.92 158.57 154.47 158.89 153.60 L 159.22 152.71 C 159.54 151.83 159.09 150.87 158.21 150.54 C 157.34 150.22 156.37 150.67 156.05 151.55 Z M 155.73 152.43 L 155.39 153.34 C 155.06 154.22 155.51 155.19 156.38 155.51 C 157.26 155.83 158.23 155.39 158.55 154.51 L 158.89 153.60 C 159.21 152.73 158.77 151.76 157.89 151.44 C 157.02 151.11 156.05 151.56 155.73 152.43 Z M 155.39 153.34 L 155.04 154.27 C 154.71 155.14 155.15 156.12 156.03 156.44 C 156.90 156.77 157.87 156.33 158.20 155.46 L 158.55 154.52 C 158.88 153.65 158.43 152.68 157.56 152.35 C 156.69 152.02 155.72 152.46 155.39 153.34 Z M 155.04 154.26 L 154.68 155.22 C 154.34 156.09 154.78 157.07 155.65 157.40 C 156.52 157.73 157.50 157.29 157.83 156.42 L 158.19 155.47 C 158.53 154.60 158.09 153.62 157.22 153.29 C 156.35 152.96 155.37 153.39 155.04 154.26 Z M 154.68 155.21 L 154.30 156.19 C 153.96 157.06 154.39 158.04 155.26 158.38 C 156.13 158.71 157.11 158.28 157.44 157.42 L 157.82 156.43 C 158.16 155.57 157.73 154.59 156.86 154.25 C 156.00 153.91 155.02 154.34 154.68 155.21 Z M 154.30 156.18 L 153.95 157.08 C 153.60 157.95 154.03 158.93 154.89 159.27 C 155.76 159.61 156.74 159.19 157.08 158.33 L 157.44 157.43 C 157.78 156.56 157.36 155.58 156.49 155.24 C 155.63 154.89 154.65 155.32 154.30 156.18 Z M 153.95 157.07 L 153.59 157.96 C 153.24 158.82 153.66 159.81 154.52 160.16 C 155.39 160.51 156.37 160.09 156.72 159.23 L 157.08 158.33 C 157.43 157.47 157.01 156.49 156.15 156.14 C 155.28 155.79 154.30 156.21 153.95 157.07 Z M 153.59 157.95 L 153.22 158.86 C 152.87 159.72 153.28 160.71 154.14 161.06 C 155.00 161.42 155.99 161.00 156.34 160.14 L 156.71 159.23 C 157.07 158.37 156.66 157.39 155.79 157.03 C 154.93 156.68 153.95 157.09 153.59 157.95 Z M 153.22 158.85 L 152.84 159.78 C 152.48 160.64 152.89 161.63 153.75 161.99 C 154.61 162.34 155.60 161.94 155.95 161.08 L 156.34 160.15 C 156.70 159.29 156.29 158.30 155.43 157.94 C 154.57 157.59 153.58 157.99 153.22 158.85 Z M 152.84 159.78 L 152.44 160.72 C 152.08 161.58 152.49 162.57 153.35 162.93 C 154.21 163.29 155.19 162.89 155.55 162.03 L 155.95 161.08 C 156.31 160.22 155.91 159.23 155.05 158.87 C 154.19 158.51 153.20 158.92 152.84 159.78 Z M 152.44 160.72 L 152.04 161.69 C 151.67 162.54 152.08 163.53 152.93 163.90 C 153.79 164.26 154.78 163.86 155.15 163.00 L 155.55 162.03 C 155.92 161.17 155.51 160.18 154.66 159.82 C 153.80 159.46 152.81 159.86 152.44 160.72 Z M 152.04 161.68 L 151.64 162.61 C 151.28 163.47 151.68 164.46 152.54 164.83 C 153.39 165.19 154.39 164.79 154.75 163.93 L 155.14 163.00 C 155.51 162.14 155.11 161.15 154.25 160.79 C 153.39 160.43 152.40 160.83 152.04 161.68 Z M 151.64 162.61 L 151.26 163.52 C 150.89 164.38 151.29 165.37 152.15 165.74 C 153.00 166.10 153.99 165.70 154.36 164.85 L 154.75 163.93 C 155.11 163.08 154.71 162.09 153.86 161.72 C 153.00 161.36 152.01 161.75 151.64 162.61 Z M 151.26 163.52 L 150.86 164.44 C 150.49 165.29 150.89 166.29 151.74 166.65 C 152.60 167.02 153.59 166.63 153.96 165.77 L 154.36 164.85 C 154.72 164.00 154.33 163.00 153.47 162.64 C 152.62 162.27 151.63 162.66 151.26 163.52 Z M 150.87 164.43 L 150.46 165.36 C 150.09 166.21 150.48 167.20 151.34 167.58 C 152.19 167.95 153.18 167.56 153.55 166.70 L 153.96 165.78 C 154.33 164.92 153.94 163.93 153.08 163.56 C 152.23 163.19 151.24 163.58 150.87 164.43 Z M 150.47 165.35 L 150.06 166.27 C 149.68 167.12 150.07 168.12 150.92 168.49 C 151.77 168.87 152.77 168.49 153.14 167.63 L 153.55 166.71 C 153.93 165.86 153.54 164.87 152.69 164.49 C 151.84 164.11 150.84 164.50 150.47 165.35 Z M 150.06 166.26 L 149.65 167.18 C 149.27 168.03 149.65 169.03 150.50 169.41 C 151.35 169.79 152.34 169.41 152.72 168.56 L 153.14 167.64 C 153.52 166.80 153.14 165.80 152.29 165.42 C 151.44 165.04 150.45 165.41 150.06 166.26 Z M 149.66 167.17 L 149.24 168.07 C 148.85 168.92 149.22 169.92 150.07 170.31 C 150.91 170.70 151.91 170.33 152.30 169.48 L 152.72 168.57 C 153.11 167.73 152.74 166.73 151.89 166.34 C 151.05 165.95 150.05 166.32 149.66 167.17 Z M 149.25 168.06 L 148.81 168.98 C 148.42 169.82 148.78 170.82 149.62 171.22 C 150.46 171.62 151.46 171.26 151.86 170.42 L 152.29 169.49 C 152.69 168.65 152.33 167.65 151.49 167.26 C 150.65 166.86 149.65 167.22 149.25 168.06 Z M 148.82 168.97 L 148.38 169.88 C 147.98 170.71 148.33 171.72 149.16 172.12 C 150.00 172.53 151.01 172.18 151.41 171.34 L 151.85 170.43 C 152.26 169.59 151.91 168.59 151.07 168.18 C 150.23 167.78 149.23 168.13 148.82 168.97 Z M 148.39 169.86 L 147.94 170.76 C 147.53 171.59 147.87 172.60 148.70 173.01 C 149.54 173.43 150.55 173.09 150.96 172.25 L 151.40 171.36 C 151.81 170.52 151.47 169.52 150.64 169.10 C 149.81 168.69 148.80 169.03 148.39 169.86 Z M 147.95 170.75 L 147.50 171.64 C 147.08 172.46 147.41 173.47 148.24 173.89 C 149.07 174.31 150.08 173.98 150.50 173.15 L 150.95 172.27 C 151.37 171.44 151.04 170.43 150.21 170.01 C 149.38 169.59 148.37 169.92 147.95 170.75 Z M 147.51 171.62 L 147.06 172.50 C 146.63 173.33 146.95 174.34 147.78 174.77 C 148.60 175.19 149.61 174.87 150.04 174.05 L 150.49 173.17 C 150.92 172.34 150.60 171.33 149.77 170.90 C 148.95 170.48 147.94 170.80 147.51 171.62 Z M 147.06 172.49 L 146.60 173.37 C 146.17 174.19 146.49 175.20 147.31 175.64 C 148.13 176.07 149.14 175.75 149.57 174.93 L 150.03 174.06 C 150.46 173.23 150.15 172.22 149.33 171.79 C 148.51 171.36 147.49 171.67 147.06 172.49 Z M 146.61 173.36 L 146.14 174.24 C 145.71 175.05 146.01 176.07 146.83 176.50 C 147.65 176.94 148.66 176.63 149.10 175.81 L 149.57 174.94 C 150.00 174.12 149.69 173.11 148.88 172.67 C 148.06 172.23 147.04 172.54 146.61 173.36 Z M 146.15 174.23 L 145.67 175.11 C 145.23 175.92 145.53 176.94 146.35 177.38 C 147.16 177.82 148.18 177.51 148.62 176.70 L 149.09 175.82 C 149.53 175.01 149.23 173.99 148.42 173.55 C 147.60 173.11 146.59 173.41 146.15 174.23 Z M 145.68 175.10 L 145.20 175.97 C 144.75 176.78 145.05 177.80 145.86 178.25 C 146.67 178.69 147.68 178.40 148.13 177.59 L 148.61 176.71 C 149.06 175.90 148.76 174.88 147.95 174.44 C 147.14 173.99 146.12 174.29 145.68 175.10 Z M 145.20 175.96 L 144.71 176.84 C 144.26 177.64 144.55 178.66 145.35 179.11 C 146.16 179.56 147.18 179.28 147.63 178.47 L 148.12 177.60 C 148.57 176.79 148.29 175.77 147.48 175.32 C 146.68 174.87 145.66 175.16 145.20 175.96 Z M 144.72 176.82 L 144.23 177.69 C 143.77 178.49 144.04 179.51 144.84 179.97 C 145.64 180.43 146.66 180.15 147.12 179.35 L 147.62 178.48 C 148.08 177.68 147.80 176.66 147.00 176.21 C 146.20 175.75 145.18 176.02 144.72 176.82 Z M 144.24 177.68 L 143.73 178.54 C 143.26 179.33 143.53 180.36 144.32 180.82 C 145.12 181.29 146.14 181.02 146.61 180.23 L 147.11 179.37 C 147.58 178.57 147.31 177.55 146.52 177.08 C 145.72 176.62 144.70 176.88 144.24 177.68 Z M 143.74 178.52 L 143.23 179.38 C 142.75 180.17 143.00 181.19 143.79 181.67 C 144.58 182.14 145.60 181.89 146.08 181.10 L 146.59 180.25 C 147.07 179.46 146.82 178.43 146.03 177.96 C 145.24 177.48 144.22 177.74 143.74 178.52 Z M 143.24 179.36 L 142.70 180.22 C 142.22 181.00 142.46 182.03 143.24 182.51 C 144.02 183.00 145.05 182.76 145.53 181.98 L 146.07 181.12 C 146.55 180.34 146.31 179.31 145.53 178.83 C 144.75 178.34 143.72 178.58 143.24 179.36 Z M 142.72 180.21 L 142.17 181.06 C 141.68 181.83 141.91 182.86 142.68 183.35 C 143.45 183.85 144.48 183.62 144.97 182.85 L 145.52 181.99 C 146.01 181.22 145.79 180.19 145.01 179.70 C 144.24 179.21 143.21 179.43 142.72 180.21 Z M 142.19 181.05 L 141.63 181.89 C 141.13 182.65 141.35 183.68 142.11 184.18 C 142.88 184.69 143.91 184.47 144.41 183.70 L 144.96 182.86 C 145.46 182.10 145.25 181.07 144.48 180.57 C 143.72 180.06 142.69 180.28 142.19 181.05 Z M 141.65 181.87 L 141.09 182.71 C 140.58 183.47 140.78 184.49 141.54 185.00 C 142.30 185.51 143.33 185.31 143.84 184.55 L 144.40 183.72 C 144.91 182.96 144.70 181.93 143.94 181.42 C 143.18 180.91 142.16 181.11 141.65 181.87 Z M 141.10 182.69 L 140.54 183.51 C 140.02 184.27 140.22 185.30 140.97 185.81 C 141.72 186.33 142.75 186.13 143.27 185.38 L 143.83 184.56 C 144.34 183.81 144.15 182.78 143.40 182.26 C 142.65 181.75 141.62 181.94 141.10 182.69 Z M 140.55 183.50 L 139.99 184.31 C 139.46 185.06 139.65 186.09 140.39 186.61 C 141.14 187.13 142.17 186.95 142.69 186.20 L 143.26 185.39 C 143.78 184.64 143.60 183.62 142.85 183.09 C 142.10 182.57 141.07 182.75 140.55 183.50 Z M 140.00 184.30 L 139.41 185.12 C 138.89 185.86 139.06 186.89 139.80 187.42 C 140.54 187.94 141.57 187.77 142.10 187.03 L 142.68 186.21 C 143.21 185.47 143.04 184.44 142.29 183.91 C 141.55 183.38 140.52 183.56 140.00 184.30 Z M 139.43 185.11 L 138.83 185.94 C 138.29 186.67 138.46 187.70 139.19 188.23 C 139.93 188.77 140.96 188.60 141.49 187.87 L 142.09 187.04 C 142.62 186.30 142.46 185.27 141.72 184.74 C 140.99 184.21 139.96 184.37 139.43 185.11 Z M 138.84 185.93 L 138.24 186.74 C 137.70 187.47 137.86 188.50 138.59 189.04 C 139.31 189.57 140.34 189.42 140.88 188.69 L 141.48 187.88 C 142.02 187.15 141.86 186.12 141.13 185.58 C 140.40 185.04 139.37 185.20 138.84 185.93 Z M 138.25 186.73 L 137.65 187.53 C 137.11 188.26 137.25 189.28 137.98 189.82 C 138.70 190.37 139.72 190.22 140.27 189.50 L 140.87 188.70 C 141.41 187.98 141.26 186.95 140.54 186.41 C 139.82 185.87 138.79 186.01 138.25 186.73 Z M 137.66 187.52 L 137.06 188.31 C 136.51 189.03 136.65 190.05 137.37 190.60 C 138.08 191.14 139.11 191.01 139.65 190.29 L 140.25 189.51 C 140.80 188.79 140.67 187.77 139.95 187.22 C 139.23 186.67 138.21 186.81 137.66 187.52 Z M 137.07 188.30 L 136.47 189.07 C 135.92 189.78 136.05 190.80 136.76 191.35 C 137.47 191.91 138.49 191.78 139.04 191.07 L 139.64 190.30 C 140.19 189.59 140.07 188.57 139.36 188.02 C 138.65 187.46 137.63 187.59 137.07 188.30 Z M 136.49 189.06 L 135.87 189.83 C 135.31 190.54 135.43 191.56 136.13 192.12 C 136.83 192.67 137.85 192.56 138.41 191.86 L 139.03 191.08 C 139.59 190.38 139.47 189.36 138.77 188.80 C 138.07 188.24 137.05 188.36 136.49 189.06 Z M 135.89 189.82 L 135.26 190.60 C 134.69 191.29 134.80 192.31 135.49 192.88 C 136.18 193.44 137.20 193.34 137.77 192.64 L 138.40 191.87 C 138.96 191.17 138.86 190.15 138.16 189.59 C 137.47 189.03 136.45 189.13 135.89 189.82 Z M 135.27 190.59 L 134.63 191.35 C 134.06 192.04 134.16 193.06 134.84 193.63 C 135.53 194.20 136.54 194.10 137.11 193.42 L 137.75 192.65 C 138.32 191.97 138.23 190.95 137.54 190.38 C 136.86 189.81 135.84 189.90 135.27 190.59 Z M 134.65 191.34 L 134.01 192.10 C 133.43 192.77 133.51 193.79 134.18 194.36 C 134.86 194.94 135.87 194.86 136.45 194.19 L 137.10 193.43 C 137.67 192.76 137.59 191.74 136.92 191.16 C 136.24 190.59 135.23 190.67 134.65 191.34 Z M 134.02 192.08 L 133.37 192.83 C 132.78 193.50 132.85 194.51 133.51 195.09 C 134.18 195.68 135.19 195.61 135.77 194.95 L 136.43 194.20 C 137.02 193.53 136.95 192.52 136.29 191.94 C 135.62 191.35 134.61 191.42 134.02 192.08 Z M 133.38 192.82 L 132.71 193.57 C 132.12 194.22 132.17 195.23 132.82 195.82 C 133.48 196.41 134.49 196.36 135.08 195.71 L 135.75 194.96 C 136.34 194.31 136.29 193.30 135.64 192.71 C 134.99 192.11 133.98 192.17 133.38 192.82 Z M 132.73 193.55 L 132.03 194.30 C 131.43 194.94 131.47 195.95 132.11 196.55 C 132.75 197.15 133.76 197.11 134.36 196.47 L 135.06 195.72 C 135.66 195.08 135.62 194.07 134.98 193.47 C 134.34 192.87 133.33 192.91 132.73 193.55 Z M 132.06 194.28 L 131.34 195.02 C 130.74 195.65 130.76 196.66 131.39 197.26 C 132.02 197.87 133.02 197.85 133.63 197.22 L 134.34 196.48 C 134.95 195.85 134.93 194.85 134.30 194.24 C 133.67 193.63 132.66 193.65 132.06 194.28 Z M 131.37 195.01 L 130.65 195.73 C 130.03 196.35 130.03 197.35 130.65 197.96 C 131.27 198.58 132.27 198.58 132.89 197.96 L 133.61 197.24 C 134.22 196.62 134.22 195.62 133.60 195.00 C 132.98 194.39 131.98 194.39 131.37 195.01 Z M 130.67 195.71 L 129.95 196.41 C 129.33 197.01 129.31 198.01 129.91 198.64 C 130.52 199.26 131.51 199.28 132.14 198.67 L 132.86 197.98 C 133.49 197.37 133.50 196.38 132.90 195.75 C 132.29 195.13 131.30 195.11 130.67 195.71 Z M 129.98 196.39 L 129.26 197.06 C 128.63 197.64 128.59 198.64 129.18 199.27 C 129.77 199.91 130.76 199.94 131.39 199.36 L 132.11 198.69 C 132.75 198.10 132.78 197.11 132.20 196.48 C 131.61 195.84 130.62 195.80 129.98 196.39 Z M 129.30 197.03 L 128.56 197.68 C 127.92 198.25 127.85 199.24 128.42 199.88 C 128.99 200.53 129.98 200.59 130.63 200.02 L 131.36 199.38 C 132.01 198.81 132.07 197.82 131.50 197.17 C 130.93 196.53 129.95 196.46 129.30 197.03 Z M 128.61 197.65 L 127.78 198.33 C 127.12 198.88 127.03 199.86 127.57 200.52 C 128.12 201.18 129.10 201.28 129.76 200.73 L 130.58 200.05 C 131.25 199.50 131.34 198.52 130.79 197.86 C 130.25 197.20 129.27 197.11 128.61 197.65 Z M 127.83 198.30 L 127.02 198.93 C 126.34 199.45 126.22 200.42 126.74 201.09 C 127.26 201.77 128.23 201.90 128.91 201.38 L 129.72 200.76 C 130.39 200.24 130.52 199.26 130.00 198.59 C 129.48 197.91 128.50 197.78 127.83 198.30 Z M 127.07 198.90 L 126.27 199.47 C 125.58 199.97 125.43 200.93 125.92 201.62 C 126.42 202.31 127.38 202.47 128.07 201.97 L 128.87 201.40 C 129.56 200.90 129.71 199.94 129.21 199.25 C 128.72 198.56 127.76 198.40 127.07 198.90 Z M 126.31 199.45 L 125.53 199.99 C 124.83 200.46 124.64 201.42 125.12 202.12 C 125.59 202.82 126.55 203.00 127.25 202.52 L 128.03 201.99 C 128.73 201.52 128.92 200.56 128.44 199.86 C 127.97 199.16 127.01 198.98 126.31 199.45 Z M 125.56 199.97 L 124.74 200.50 C 124.03 200.96 123.82 201.90 124.28 202.61 C 124.74 203.32 125.68 203.52 126.39 203.07 L 127.21 202.54 C 127.92 202.08 128.13 201.14 127.67 200.43 C 127.21 199.72 126.27 199.52 125.56 199.97 Z M 124.77 200.49 L 123.90 201.02 C 123.19 201.46 122.96 202.39 123.40 203.11 C 123.84 203.82 124.77 204.05 125.49 203.61 L 126.36 203.08 C 127.07 202.64 127.30 201.71 126.86 200.99 C 126.42 200.28 125.48 200.05 124.77 200.49 Z M 123.93 201.01 L 123.07 201.52 C 122.35 201.94 122.10 202.87 122.53 203.59 C 122.95 204.31 123.88 204.55 124.60 204.13 L 125.46 203.62 C 126.18 203.20 126.42 202.27 126.00 201.55 C 125.58 200.83 124.65 200.59 123.93 201.01 Z M 123.09 201.51 L 122.23 202.00 C 121.51 202.41 121.25 203.33 121.66 204.05 C 122.07 204.78 122.99 205.03 123.71 204.62 L 124.57 204.13 C 125.30 203.72 125.55 202.81 125.14 202.08 C 124.73 201.36 123.81 201.10 123.09 201.51 Z M 122.25 201.99 L 121.38 202.47 C 120.66 202.87 120.39 203.78 120.79 204.51 C 121.19 205.23 122.10 205.50 122.83 205.10 L 123.70 204.62 C 124.42 204.23 124.69 203.31 124.29 202.59 C 123.89 201.86 122.98 201.59 122.25 201.99 Z M 121.40 202.47 L 120.50 202.95 C 119.78 203.34 119.50 204.24 119.89 204.97 C 120.28 205.70 121.18 205.97 121.91 205.58 L 122.81 205.10 C 123.54 204.71 123.81 203.81 123.43 203.08 C 123.04 202.35 122.13 202.08 121.40 202.47 Z M 120.53 202.94 L 119.64 203.40 C 118.90 203.78 118.62 204.67 118.99 205.40 C 119.37 206.13 120.26 206.42 121.00 206.05 L 121.89 205.59 C 122.62 205.21 122.91 204.32 122.53 203.58 C 122.16 202.85 121.26 202.57 120.53 202.94 Z M 119.67 203.39 L 118.78 203.83 C 118.04 204.18 117.74 205.07 118.09 205.81 C 118.45 206.54 119.34 206.85 120.08 206.49 L 120.96 206.06 C 121.70 205.70 122.01 204.81 121.65 204.07 C 121.29 203.34 120.40 203.03 119.67 203.39 Z M 118.82 203.81 L 117.92 204.22 C 117.17 204.56 116.85 205.44 117.18 206.18 C 117.52 206.92 118.40 207.25 119.14 206.91 L 120.04 206.50 C 120.78 206.16 121.11 205.29 120.77 204.55 C 120.43 203.80 119.56 203.48 118.82 203.81 Z M 117.96 204.21 L 117.02 204.61 C 116.27 204.92 115.91 205.78 116.23 206.53 C 116.54 207.28 117.40 207.63 118.15 207.32 L 119.09 206.92 C 119.84 206.61 120.20 205.75 119.88 205.00 C 119.57 204.25 118.71 203.90 117.96 204.21 Z M 117.06 204.60 L 116.12 204.96 C 115.36 205.25 114.99 206.09 115.28 206.85 C 115.57 207.60 116.42 207.98 117.17 207.69 L 118.11 207.33 C 118.86 207.04 119.24 206.19 118.95 205.44 C 118.66 204.68 117.81 204.31 117.06 204.60 Z M 116.16 204.95 L 115.23 205.28 C 114.47 205.55 114.07 206.38 114.34 207.14 C 114.61 207.90 115.45 208.30 116.20 208.03 L 117.13 207.70 C 117.89 207.43 118.29 206.59 118.02 205.83 C 117.75 205.08 116.92 204.68 116.16 204.95 Z M 115.26 205.27 L 114.32 205.58 C 113.55 205.83 113.14 206.65 113.39 207.42 C 113.64 208.18 114.46 208.59 115.22 208.34 L 116.17 208.03 C 116.93 207.78 117.35 206.96 117.10 206.20 C 116.85 205.44 116.03 205.02 115.26 205.27 Z M 114.35 205.58 L 113.38 205.87 C 112.61 206.10 112.18 206.91 112.41 207.68 C 112.64 208.44 113.45 208.87 114.21 208.64 L 115.19 208.35 C 115.95 208.12 116.39 207.31 116.16 206.54 C 115.92 205.78 115.12 205.35 114.35 205.58 Z M 113.41 205.87 L 112.46 206.13 C 111.69 206.34 111.23 207.13 111.44 207.90 C 111.65 208.67 112.45 209.12 113.22 208.91 L 114.17 208.65 C 114.94 208.44 115.40 207.65 115.19 206.88 C 114.98 206.11 114.18 205.66 113.41 205.87 Z M 112.50 206.12 L 111.55 206.35 C 110.78 206.54 110.31 207.32 110.49 208.09 C 110.68 208.86 111.46 209.33 112.23 209.15 L 113.17 208.92 C 113.95 208.73 114.42 207.95 114.23 207.18 C 114.05 206.41 113.27 205.94 112.50 206.12 Z M 111.60 206.34 L 110.63 206.54 C 109.86 206.70 109.36 207.46 109.52 208.24 C 109.67 209.01 110.43 209.51 111.21 209.35 L 112.18 209.15 C 112.96 208.99 113.45 208.24 113.30 207.46 C 113.14 206.68 112.38 206.19 111.60 206.34 Z M 110.71 206.53 L 109.73 206.68 C 108.95 206.80 108.41 207.53 108.53 208.31 C 108.64 209.09 109.37 209.63 110.15 209.51 L 111.13 209.36 C 111.91 209.25 112.45 208.52 112.33 207.74 C 112.22 206.95 111.49 206.42 110.71 206.53 Z M 109.83 206.67 L 108.83 206.75 C 108.04 206.81 107.45 207.49 107.51 208.28 C 107.57 209.06 108.26 209.65 109.05 209.60 L 110.05 209.52 C 110.83 209.46 111.42 208.77 111.37 207.99 C 111.31 207.20 110.62 206.61 109.83 206.67 Z M 108.95 206.74 L 107.97 206.73 C 107.18 206.73 106.54 207.36 106.53 208.15 C 106.52 208.94 107.15 209.58 107.94 209.59 L 108.92 209.60 C 109.71 209.60 110.36 208.97 110.37 208.18 C 110.37 207.40 109.74 206.75 108.95 206.74 Z M 108.06 206.74 L 107.08 206.66 C 106.30 206.60 105.61 207.19 105.55 207.98 C 105.49 208.76 106.08 209.45 106.86 209.51 L 107.85 209.58 C 108.63 209.64 109.32 209.06 109.38 208.27 C 109.44 207.49 108.85 206.80 108.06 206.74 Z M 107.14 206.67 L 106.13 206.55 C 105.35 206.46 104.64 207.02 104.55 207.80 C 104.46 208.58 105.02 209.29 105.80 209.38 L 106.80 209.50 C 107.58 209.59 108.29 209.04 108.39 208.25 C 108.48 207.47 107.92 206.76 107.14 206.67 Z M 106.16 206.55 L 105.15 206.41 C 104.37 206.30 103.65 206.85 103.54 207.63 C 103.43 208.41 103.97 209.13 104.75 209.24 L 105.77 209.38 C 106.55 209.49 107.27 208.94 107.38 208.16 C 107.49 207.38 106.94 206.66 106.16 206.55 Z"
      fill="black"
      fill-rule="nonzero" /><path d="M 155.19 113.59 L 155.95 114.23 C 156.58 114.76 157.53 114.68 158.06 114.04 C 158.59 113.41 158.50 112.47 157.87 111.94 L 157.11 111.30 C 156.47 110.77 155.53 110.85 155.00 111.48 C 154.47 112.11 154.55 113.06 155.19 113.59 Z M 155.95 114.23 L 156.72 114.87 C 157.35 115.40 158.29 115.32 158.82 114.69 C 159.35 114.05 159.27 113.11 158.64 112.58 L 157.87 111.94 C 157.24 111.41 156.30 111.49 155.77 112.12 C 155.24 112.76 155.32 113.70 155.95 114.23 Z M 156.72 114.87 L 157.48 115.51 C 158.12 116.04 159.06 115.96 159.59 115.33 C 160.12 114.70 160.04 113.76 159.40 113.23 L 158.64 112.58 C 158.01 112.05 157.06 112.13 156.53 112.77 C 156.00 113.40 156.09 114.34 156.72 114.87 Z M 157.48 115.51 L 158.25 116.16 C 158.88 116.69 159.82 116.60 160.36 115.97 C 160.89 115.34 160.80 114.40 160.17 113.87 L 159.40 113.23 C 158.77 112.69 157.83 112.78 157.30 113.41 C 156.77 114.04 156.85 114.98 157.48 115.51 Z M 158.25 116.16 L 159.02 116.80 C 159.65 117.33 160.59 117.25 161.12 116.61 C 161.65 115.98 161.57 115.04 160.94 114.51 L 160.17 113.87 C 159.54 113.34 158.60 113.42 158.07 114.05 C 157.54 114.68 157.62 115.63 158.25 116.16 Z M 159.02 116.80 L 159.29 117.03 C 159.92 117.56 160.86 117.47 161.39 116.84 C 161.92 116.21 161.84 115.27 161.21 114.74 L 160.94 114.51 C 160.30 113.98 159.36 114.06 158.83 114.69 C 158.30 115.33 158.38 116.27 159.02 116.80 Z"
      fill="black"
      fill-rule="nonzero" /><path d="M 167.59 113.86 L 168.28 114.61 C 168.84 115.23 169.80 115.27 170.42 114.71 C 171.04 114.15 171.08 113.19 170.52 112.57 L 169.83 111.82 C 169.27 111.20 168.31 111.16 167.69 111.72 C 167.08 112.28 167.03 113.24 167.59 113.86 Z M 168.28 114.62 L 168.96 115.37 C 169.53 115.98 170.49 116.03 171.11 115.46 C 171.73 114.89 171.77 113.93 171.20 113.31 L 170.52 112.56 C 169.95 111.94 168.99 111.90 168.37 112.47 C 167.75 113.04 167.71 114.00 168.28 114.62 Z M 168.97 115.38 L 169.65 116.11 C 170.22 116.72 171.19 116.76 171.81 116.18 C 172.42 115.60 172.46 114.63 171.88 114.02 L 171.20 113.29 C 170.62 112.68 169.66 112.64 169.04 113.22 C 168.42 113.80 168.39 114.76 168.97 115.38 Z M 169.66 116.13 L 170.33 116.83 C 170.92 117.44 171.89 117.46 172.50 116.87 C 173.11 116.28 173.13 115.31 172.54 114.70 L 171.87 114.00 C 171.28 113.39 170.31 113.37 169.70 113.96 C 169.09 114.55 169.07 115.52 169.66 116.13 Z M 170.36 116.84 L 171.05 117.53 C 171.65 118.13 172.61 118.13 173.21 117.53 C 173.81 116.94 173.81 115.97 173.21 115.38 L 172.52 114.68 C 171.92 114.09 170.95 114.09 170.36 114.68 C 169.76 115.28 169.76 116.25 170.36 116.84 Z M 171.08 117.54 L 171.79 118.22 C 172.39 118.80 173.34 118.78 173.92 118.18 C 174.50 117.58 174.48 116.63 173.88 116.05 L 173.18 115.37 C 172.58 114.79 171.62 114.81 171.04 115.41 C 170.46 116.01 170.48 116.96 171.08 117.54 Z M 171.82 118.22 L 172.56 118.91 C 173.16 119.48 174.10 119.44 174.66 118.84 C 175.22 118.24 175.19 117.30 174.59 116.74 L 173.85 116.05 C 173.25 115.48 172.31 115.52 171.75 116.12 C 171.18 116.72 171.22 117.66 171.82 118.22 Z M 172.58 118.91 L 173.32 119.59 C 173.92 120.14 174.85 120.10 175.40 119.50 C 175.95 118.89 175.91 117.96 175.31 117.41 L 174.57 116.74 C 173.97 116.19 173.03 116.23 172.49 116.83 C 171.94 117.43 171.98 118.36 172.58 118.91 Z M 173.34 119.59 L 174.05 120.23 C 174.65 120.77 175.58 120.72 176.12 120.12 C 176.66 119.52 176.61 118.60 176.01 118.06 L 175.29 117.41 C 174.69 116.87 173.77 116.92 173.23 117.52 C 172.69 118.12 172.74 119.05 173.34 119.59 Z M 174.06 120.23 L 174.81 120.89 C 175.41 121.43 176.33 121.38 176.86 120.78 C 177.39 120.18 177.34 119.26 176.74 118.73 L 176.00 118.06 C 175.40 117.53 174.48 117.58 173.95 118.18 C 173.41 118.78 173.46 119.69 174.06 120.23 Z M 174.82 120.89 L 175.59 121.57 C 176.18 122.10 177.09 122.05 177.62 121.45 C 178.15 120.86 178.10 119.94 177.50 119.42 L 176.73 118.73 C 176.14 118.20 175.23 118.26 174.70 118.85 C 174.17 119.45 174.22 120.36 174.82 120.89 Z M 175.60 121.57 L 176.36 122.25 C 176.96 122.77 177.86 122.71 178.38 122.12 C 178.91 121.53 178.85 120.62 178.26 120.10 L 177.49 119.42 C 176.90 118.90 176.00 118.95 175.47 119.54 C 174.95 120.14 175.00 121.04 175.60 121.57 Z"
      fill="black"
      fill-rule="nonzero" /></svg>