<svg xmlns="http://www.w3.org/2000/svg" width="300" height="300" viewBox="0 0 300 300">
<path d="M 141.11 118.04 L 141.13 118.99 C 141.16 119.84 141.87 120.52 142.72 120.49 C 143.57 120.47 144.25 119.76 144.22 118.90 L 144.20 117.96 C 144.17 117.10 143.46 116.43 142.61 116.45 C 141.76 116.48 141.08 117.19 141.11 118.04 Z M 141.13 119.00 L 141.16 119.96 C 141.19 120.82 141.91 121.49 142.77 121.46 C 143.62 121.43 144.29 120.71 144.26 119.85 L 144.23 118.89 C 144.20 118.04 143.48 117.37 142.62 117.40 C 141.77 117.43 141.10 118.15 141.13 119.00 Z M 141.16 119.99 L 141.21 120.97 C 141.25 121.83 141.98 122.49 142.84 122.45 C 143.70 122.40 144.36 121.67 144.32 120.81 L 144.27 119.83 C 144.23 118.97 143.49 118.31 142.63 118.35 C 141.77 118.39 141.11 119.13 141.16 119.99 Z M 141.20 121.00 L 141.28 122.02 C 141.34 122.88 142.09 123.53 142.95 123.46 C 143.81 123.40 144.46 122.65 144.40 121.79 L 144.32 120.77 C 144.26 119.91 143.51 119.26 142.65 119.33 C 141.79 119.39 141.14 120.14 141.20 121.00 Z M 141.27 122.06 L 141.38 123.11 C 141.47 123.98 142.24 124.61 143.10 124.52 C 143.96 124.43 144.59 123.66 144.51 122.80 L 144.40 121.74 C 144.31 120.88 143.54 120.25 142.68 120.34 C 141.82 120.43 141.19 121.20 141.27 122.06 Z M 141.38 123.16 L 141.51 124.17 C 141.62 125.03 142.41 125.64 143.28 125.53 C 144.14 125.42 144.75 124.63 144.64 123.77 L 144.50 122.76 C 144.39 121.89 143.60 121.28 142.74 121.40 C 141.88 121.51 141.27 122.30 141.38 123.16 Z M 141.52 124.21 L 141.67 125.21 C 141.80 126.07 142.61 126.66 143.47 126.53 C 144.33 126.39 144.91 125.59 144.78 124.73 L 144.63 123.73 C 144.50 122.87 143.69 122.28 142.84 122.41 C 141.98 122.54 141.39 123.35 141.52 124.21 Z M 141.68 125.23 L 141.85 126.25 C 142.00 127.10 142.81 127.68 143.66 127.53 C 144.52 127.39 145.10 126.58 144.95 125.72 L 144.78 124.71 C 144.63 123.85 143.82 123.27 142.96 123.42 C 142.11 123.57 141.53 124.38 141.68 125.23 Z M 141.86 126.27 L 142.04 127.28 C 142.20 128.13 143.01 128.69 143.87 128.54 C 144.72 128.38 145.29 127.56 145.13 126.71 L 144.95 125.70 C 144.79 124.85 143.97 124.28 143.12 124.44 C 142.26 124.60 141.70 125.41 141.86 126.27 Z M 142.04 127.29 L 142.23 128.27 C 142.39 129.13 143.22 129.68 144.07 129.52 C 144.92 129.36 145.48 128.54 145.31 127.69 L 145.13 126.70 C 144.96 125.85 144.14 125.29 143.29 125.45 C 142.44 125.62 141.88 126.44 142.04 127.29 Z M 142.23 128.28 L 142.42 129.23 C 142.58 130.07 143.41 130.63 144.26 130.46 C 145.11 130.30 145.66 129.48 145.50 128.63 L 145.31 127.68 C 145.15 126.83 144.32 126.28 143.47 126.44 C 142.62 126.61 142.07 127.43 142.23 128.28 Z M 142.42 129.22 L 142.62 130.25 C 142.79 131.10 143.61 131.65 144.46 131.49 C 145.30 131.32 145.86 130.50 145.69 129.65 L 145.49 128.63 C 145.33 127.78 144.51 127.23 143.66 127.39 C 142.81 127.56 142.26 128.38 142.42 129.22 Z M 142.62 130.24 L 142.82 131.27 C 142.98 132.11 143.80 132.67 144.64 132.51 C 145.49 132.35 146.04 131.53 145.88 130.69 L 145.69 129.66 C 145.53 128.82 144.71 128.26 143.87 128.42 C 143.02 128.58 142.46 129.40 142.62 130.24 Z M 142.82 131.25 L 143.00 132.22 C 143.15 133.07 143.96 133.63 144.80 133.47 C 145.65 133.32 146.21 132.51 146.06 131.67 L 145.88 130.70 C 145.73 129.85 144.92 129.29 144.07 129.45 C 143.23 129.60 142.67 130.41 142.82 131.25 Z M 143.00 132.20 L 143.16 133.14 C 143.30 133.99 144.10 134.56 144.94 134.41 C 145.79 134.27 146.36 133.47 146.21 132.63 L 146.05 131.69 C 145.91 130.84 145.11 130.27 144.27 130.42 C 143.42 130.56 142.86 131.36 143.00 132.20 Z M 143.16 133.12 L 143.30 134.06 C 143.43 134.91 144.22 135.48 145.07 135.35 C 145.91 135.22 146.49 134.44 146.36 133.59 L 146.21 132.65 C 146.08 131.81 145.29 131.23 144.45 131.36 C 143.61 131.49 143.03 132.28 143.16 133.12 Z M 143.31 134.04 L 143.44 134.97 C 143.55 135.82 144.33 136.41 145.17 136.29 C 146.01 136.17 146.60 135.40 146.49 134.55 L 146.36 133.62 C 146.24 132.78 145.46 132.19 144.62 132.30 C 143.78 132.42 143.19 133.20 143.31 134.04 Z M 143.44 134.95 L 143.56 135.91 C 143.66 136.75 144.43 137.35 145.27 137.25 C 146.11 137.14 146.71 136.38 146.60 135.53 L 146.48 134.57 C 146.38 133.73 145.61 133.14 144.77 133.24 C 143.93 133.34 143.33 134.11 143.44 134.95 Z M 143.56 135.90 L 143.67 136.89 C 143.77 137.73 144.53 138.33 145.37 138.23 C 146.21 138.14 146.81 137.38 146.71 136.54 L 146.60 135.55 C 146.51 134.71 145.75 134.11 144.91 134.20 C 144.07 134.30 143.46 135.06 143.56 135.90 Z M 143.67 136.87 L 143.78 137.89 C 143.87 138.73 144.62 139.34 145.46 139.25 C 146.30 139.16 146.91 138.41 146.82 137.57 L 146.71 136.55 C 146.62 135.71 145.87 135.10 145.03 135.19 C 144.19 135.28 143.58 136.03 143.67 136.87 Z M 143.78 137.88 L 143.89 138.93 C 143.98 139.76 144.72 140.37 145.56 140.29 C 146.40 140.20 147.01 139.46 146.92 138.62 L 146.82 137.58 C 146.73 136.74 145.99 136.13 145.15 136.21 C 144.31 136.30 143.70 137.04 143.78 137.88 Z M 143.89 138.92 L 143.99 139.90 C 144.07 140.73 144.82 141.35 145.65 141.26 C 146.49 141.18 147.10 140.44 147.02 139.60 L 146.92 138.62 C 146.84 137.79 146.09 137.18 145.26 137.26 C 144.42 137.34 143.81 138.09 143.89 138.92 Z M 143.99 139.89 L 144.09 140.86 C 144.16 141.70 144.90 142.31 145.74 142.23 C 146.57 142.15 147.18 141.41 147.10 140.58 L 147.01 139.61 C 146.93 138.77 146.19 138.16 145.36 138.24 C 144.53 138.32 143.91 139.06 143.99 139.89 Z M 144.09 140.86 L 144.18 141.85 C 144.25 142.68 144.99 143.29 145.82 143.22 C 146.65 143.14 147.27 142.41 147.19 141.57 L 147.10 140.58 C 147.03 139.75 146.29 139.14 145.46 139.22 C 144.63 139.29 144.01 140.03 144.09 140.86 Z M 144.18 141.84 L 144.27 142.84 C 144.34 143.67 145.07 144.29 145.90 144.22 C 146.73 144.15 147.34 143.42 147.27 142.59 L 147.19 141.58 C 147.12 140.75 146.39 140.14 145.56 140.21 C 144.73 140.28 144.11 141.01 144.18 141.84 Z M 144.27 142.83 L 144.35 143.85 C 144.42 144.68 145.14 145.30 145.97 145.24 C 146.80 145.17 147.41 144.45 147.35 143.62 L 147.27 142.60 C 147.20 141.77 146.48 141.15 145.65 141.22 C 144.82 141.28 144.21 142.00 144.27 142.83 Z M 144.35 143.84 L 144.43 144.87 C 144.48 145.70 145.20 146.32 146.03 146.26 C 146.86 146.20 147.48 145.48 147.42 144.66 L 147.35 143.63 C 147.29 142.80 146.57 142.18 145.74 142.24 C 144.92 142.30 144.29 143.01 144.35 143.84 Z M 144.43 144.86 L 144.49 145.84 C 144.54 146.66 145.25 147.29 146.08 147.24 C 146.90 147.18 147.53 146.47 147.48 145.65 L 147.42 144.67 C 147.36 143.84 146.65 143.22 145.83 143.27 C 145.00 143.32 144.38 144.03 144.43 144.86 Z M 144.49 145.83 L 144.55 146.81 C 144.60 147.64 145.30 148.27 146.12 148.22 C 146.95 148.17 147.58 147.47 147.53 146.65 L 147.47 145.66 C 147.43 144.84 146.72 144.21 145.90 144.25 C 145.08 144.30 144.45 145.00 144.49 145.83 Z M 144.55 146.81 L 144.60 147.80 C 144.65 148.63 145.35 149.26 146.17 149.21 C 146.99 149.17 147.62 148.47 147.58 147.65 L 147.53 146.66 C 147.48 145.83 146.78 145.20 145.96 145.24 C 145.14 145.29 144.51 145.99 144.55 146.81 Z M 144.61 147.80 L 144.66 148.80 C 144.69 149.62 145.39 150.25 146.21 150.22 C 147.03 150.18 147.66 149.48 147.62 148.66 L 147.57 147.66 C 147.53 146.84 146.84 146.21 146.02 146.25 C 145.20 146.28 144.57 146.98 144.61 147.80 Z M 144.66 148.80 L 144.70 149.81 C 144.74 150.63 145.43 151.26 146.25 151.22 C 147.07 151.19 147.70 150.49 147.66 149.68 L 147.62 148.67 C 147.58 147.85 146.89 147.22 146.07 147.25 C 145.26 147.29 144.62 147.98 144.66 148.80 Z M 144.71 149.81 L 144.75 150.82 C 144.79 151.63 145.48 152.27 146.29 152.23 C 147.10 152.20 147.74 151.51 147.70 150.69 L 147.66 149.68 C 147.62 148.87 146.93 148.23 146.12 148.27 C 145.30 148.30 144.67 148.99 144.71 149.81 Z M 144.76 150.82 L 144.80 151.80 C 144.83 152.61 145.52 153.24 146.33 153.21 C 147.14 153.17 147.77 152.49 147.74 151.67 L 147.70 150.69 C 147.66 149.88 146.98 149.25 146.16 149.29 C 145.35 149.32 144.72 150.01 144.76 150.82 Z M 144.80 151.80 L 144.84 152.78 C 144.88 153.59 145.56 154.22 146.37 154.19 C 147.18 154.16 147.81 153.47 147.78 152.66 L 147.74 151.67 C 147.70 150.86 147.02 150.23 146.21 150.27 C 145.40 150.30 144.77 150.99 144.80 151.80 Z M 144.85 152.78 L 144.89 153.77 C 144.92 154.58 145.60 155.21 146.41 155.18 C 147.22 155.15 147.85 154.46 147.81 153.65 L 147.77 152.66 C 147.74 151.85 147.06 151.23 146.25 151.26 C 145.44 151.29 144.81 151.97 144.85 152.78 Z M 144.89 153.77 L 144.93 154.77 C 144.96 155.58 145.64 156.21 146.45 156.17 C 147.25 156.14 147.88 155.46 147.85 154.66 L 147.81 153.66 C 147.78 152.85 147.10 152.22 146.29 152.25 C 145.49 152.28 144.86 152.96 144.89 153.77 Z M 144.93 154.77 L 144.97 155.78 C 145.00 156.58 145.67 157.21 146.48 157.18 C 147.28 157.15 147.91 156.48 147.88 155.67 L 147.85 154.66 C 147.82 153.86 147.14 153.23 146.34 153.26 C 145.53 153.29 144.90 153.96 144.93 154.77 Z M 144.97 155.77 L 145.01 156.79 C 145.03 157.60 145.70 158.23 146.51 158.20 C 147.31 158.17 147.94 157.50 147.91 156.70 L 147.88 155.68 C 147.85 154.87 147.18 154.24 146.38 154.27 C 145.57 154.30 144.95 154.97 144.97 155.77 Z M 145.01 156.79 L 145.04 157.81 C 145.06 158.61 145.73 159.24 146.53 159.21 C 147.33 159.19 147.96 158.52 147.94 157.72 L 147.91 156.70 C 147.89 155.90 147.22 155.27 146.42 155.30 C 145.62 155.32 144.98 155.99 145.01 156.79 Z M 145.04 157.80 L 145.07 158.82 C 145.09 159.62 145.75 160.25 146.55 160.23 C 147.35 160.21 147.99 159.55 147.96 158.75 L 147.94 157.73 C 147.92 156.93 147.25 156.29 146.45 156.32 C 145.65 156.34 145.02 157.00 145.04 157.80 Z M 145.07 158.82 L 145.09 159.84 C 145.11 160.63 145.78 161.27 146.57 161.25 C 147.37 161.23 148.00 160.57 147.98 159.77 L 147.96 158.75 C 147.94 157.95 147.28 157.32 146.48 157.34 C 145.68 157.36 145.05 158.02 145.07 158.82 Z M 145.10 159.83 L 145.12 160.84 C 145.13 161.64 145.79 162.27 146.59 162.26 C 147.39 162.24 148.02 161.58 148.00 160.79 L 147.98 159.77 C 147.97 158.98 147.31 158.34 146.51 158.36 C 145.71 158.38 145.08 159.04 145.10 159.83 Z M 145.12 160.84 L 145.14 161.84 C 145.15 162.63 145.81 163.26 146.60 163.25 C 147.40 163.24 148.03 162.58 148.02 161.79 L 148.00 160.79 C 147.99 159.99 147.33 159.36 146.54 159.38 C 145.74 159.39 145.11 160.04 145.12 160.84 Z M 145.14 161.83 L 145.15 162.80 C 145.17 163.60 145.82 164.23 146.61 164.22 C 147.41 164.21 148.04 163.56 148.03 162.76 L 148.01 161.79 C 148.00 161.00 147.35 160.36 146.56 160.37 C 145.76 160.39 145.13 161.04 145.14 161.83 Z M 145.16 162.80 L 145.17 163.80 C 145.18 164.60 145.83 165.23 146.62 165.22 C 147.41 165.21 148.05 164.56 148.04 163.77 L 148.03 162.77 C 148.02 161.98 147.37 161.34 146.58 161.35 C 145.78 161.36 145.15 162.01 145.16 162.80 Z M 145.17 163.80 L 145.18 164.87 C 145.19 165.66 145.83 166.30 146.62 166.29 C 147.41 166.28 148.05 165.64 148.04 164.84 L 148.04 163.78 C 148.03 162.98 147.38 162.35 146.59 162.35 C 145.80 162.36 145.16 163.01 145.17 163.80 Z M 145.18 164.86 L 145.19 165.89 C 145.19 166.68 145.83 167.32 146.62 167.31 C 147.41 167.31 148.05 166.67 148.05 165.88 L 148.04 164.85 C 148.04 164.06 147.39 163.42 146.60 163.43 C 145.81 163.43 145.18 164.07 145.18 164.86 Z M 145.19 165.89 L 145.19 166.88 C 145.19 167.67 145.83 168.30 146.62 168.30 C 147.41 168.30 148.05 167.66 148.05 166.87 L 148.05 165.88 C 148.04 165.09 147.40 164.45 146.61 164.45 C 145.82 164.46 145.18 165.10 145.19 165.89 Z M 145.19 166.87 L 145.19 167.83 C 145.19 168.62 145.83 169.26 146.62 169.26 C 147.41 169.26 148.05 168.62 148.05 167.83 L 148.05 166.87 C 148.05 166.08 147.41 165.44 146.62 165.44 C 145.83 165.44 145.19 166.08 145.19 166.87 Z M 145.19 167.83 L 145.19 168.76 C 145.19 169.55 145.83 170.18 146.62 170.18 C 147.41 170.18 148.05 169.55 148.05 168.76 L 148.05 167.83 C 148.05 167.04 147.41 166.40 146.62 166.40 C 145.83 166.40 145.19 167.04 145.19 167.83 Z M 145.19 168.76 L 145.19 169.78 C 145.19 170.57 145.83 171.21 146.62 171.21 C 147.41 171.21 148.05 170.57 148.05 169.78 L 148.05 168.76 C 148.05 167.97 147.41 167.33 146.62 167.33 C 145.83 167.33 145.19 167.97 145.19 168.76 Z M 145.19 169.78 L 145.19 170.79 C 145.19 171.58 145.83 172.22 146.62 172.22 C 147.41 172.22 148.05 171.58 148.05 170.79 L 148.05 169.78 C 148.05 168.99 147.41 168.36 146.62 168.36 C 145.83 168.36 145.19 168.99 145.19 169.78 Z M 145.19 170.79 L 145.19 171.79 C 145.19 172.57 145.83 173.21 146.62 173.21 C 147.41 173.21 148.05 172.57 148.05 171.79 L 148.05 170.79 C 148.05 170.01 147.41 169.37 146.62 169.37 C 145.83 169.37 145.19 170.01 145.19 170.79 Z M 145.20 171.79 L 145.20 172.77 C 145.20 173.56 145.83 174.20 146.62 174.20 C 147.41 174.20 148.05 173.56 148.05 172.77 L 148.05 171.79 C 148.05 171.00 147.41 170.36 146.62 170.36 C 145.83 170.36 145.20 171.00 145.20 171.79 Z M 145.20 172.77 L 145.20 173.56 C 145.20 174.35 145.83 174.99 146.62 174.99 C 147.41 174.99 148.05 174.35 148.05 173.56 L 148.05 172.77 C 148.05 171.98 147.41 171.34 146.62 171.34 C 145.83 171.34 145.20 171.98 145.20 172.77 Z"
      fill="black"
      fill-rule="nonzero" /><path d="M 179.69 102.95 L 179.96 103.89 C 180.20 104.70 181.05 105.16 181.86 104.92 C 182.67 104.68 183.13 103.83 182.89 103.03 L 182.61 102.09 C 182.37 101.28 181.52 100.82 180.72 101.06 C 179.91 101.29 179.45 102.14 179.69 102.95 Z M 179.95 103.91 L 180.23 104.85 C 180.48 105.66 181.34 106.12 182.16 105.88 C 182.97 105.63 183.44 104.77 183.19 103.95 L 182.90 103.01 C 182.66 102.19 181.79 101.73 180.98 101.98 C 180.16 102.23 179.70 103.09 179.95 103.91 Z M 180.22 104.87 L 180.53 105.82 C 180.79 106.64 181.67 107.10 182.49 106.83 C 183.31 106.57 183.76 105.70 183.50 104.87 L 183.20 103.93 C 182.94 103.10 182.06 102.65 181.24 102.91 C 180.42 103.17 179.96 104.05 180.22 104.87 Z M 180.52 105.86 L 180.85 106.82 C 181.13 107.64 182.03 108.08 182.85 107.80 C 183.67 107.52 184.12 106.62 183.83 105.80 L 183.51 104.84 C 183.23 104.01 182.33 103.57 181.50 103.85 C 180.68 104.14 180.24 105.03 180.52 105.86 Z M 180.85 106.86 L 181.20 107.83 C 181.51 108.65 182.43 109.07 183.25 108.77 C 184.08 108.46 184.50 107.55 184.19 106.72 L 183.84 105.75 C 183.53 104.93 182.61 104.51 181.79 104.81 C 180.96 105.12 180.54 106.04 180.85 106.86 Z M 181.21 107.87 L 181.59 108.82 C 181.92 109.65 182.86 110.05 183.68 109.72 C 184.50 109.39 184.90 108.45 184.57 107.63 L 184.19 106.68 C 183.86 105.85 182.92 105.45 182.10 105.78 C 181.28 106.11 180.88 107.05 181.21 107.87 Z M 181.59 108.86 L 181.99 109.81 C 182.34 110.63 183.29 111.01 184.12 110.66 C 184.94 110.31 185.32 109.37 184.97 108.54 L 184.57 107.59 C 184.22 106.77 183.27 106.39 182.45 106.74 C 181.63 107.09 181.24 108.04 181.59 108.86 Z M 181.99 109.83 L 182.40 110.76 C 182.76 111.58 183.73 111.96 184.55 111.59 C 185.37 111.23 185.75 110.27 185.38 109.45 L 184.97 108.52 C 184.61 107.69 183.65 107.32 182.83 107.68 C 182.00 108.05 181.63 109.01 181.99 109.83 Z M 182.40 110.78 L 182.80 111.67 C 183.17 112.49 184.14 112.86 184.97 112.49 C 185.79 112.12 186.16 111.15 185.79 110.32 L 185.39 109.43 C 185.02 108.61 184.05 108.24 183.22 108.61 C 182.39 108.98 182.03 109.95 182.40 110.78 Z M 182.79 111.68 L 183.19 112.56 C 183.57 113.39 184.54 113.76 185.37 113.38 C 186.20 113.01 186.57 112.03 186.20 111.20 L 185.80 110.32 C 185.42 109.49 184.44 109.12 183.61 109.49 C 182.78 109.87 182.42 110.85 182.79 111.68 Z M 183.18 112.56 L 183.61 113.51 C 183.98 114.34 184.96 114.72 185.79 114.35 C 186.63 113.97 187.00 112.99 186.63 112.16 L 186.21 111.20 C 185.83 110.37 184.85 109.99 184.02 110.37 C 183.18 110.74 182.81 111.72 183.18 112.56 Z M 183.59 113.49 L 183.99 114.40 C 184.35 115.24 185.33 115.63 186.17 115.26 C 187.01 114.90 187.40 113.92 187.04 113.08 L 186.64 112.17 C 186.28 111.33 185.30 110.94 184.46 111.31 C 183.62 111.67 183.23 112.65 183.59 113.49 Z M 183.97 114.38 L 184.34 115.27 C 184.69 116.12 185.67 116.52 186.52 116.17 C 187.37 115.81 187.77 114.84 187.42 113.99 L 187.05 113.10 C 186.70 112.25 185.72 111.84 184.87 112.20 C 184.02 112.55 183.62 113.53 183.97 114.38 Z M 184.33 115.24 L 184.68 116.14 C 185.02 117.00 185.99 117.43 186.85 117.09 C 187.71 116.75 188.13 115.78 187.79 114.92 L 187.44 114.02 C 187.10 113.16 186.13 112.73 185.27 113.07 C 184.41 113.41 183.99 114.38 184.33 115.24 Z M 184.67 116.12 L 185.00 117.02 C 185.32 117.88 186.29 118.33 187.16 118.00 C 188.02 117.68 188.47 116.71 188.14 115.85 L 187.81 114.95 C 187.49 114.08 186.52 113.64 185.65 113.96 C 184.78 114.28 184.34 115.25 184.67 116.12 Z M 184.99 116.99 L 185.32 117.93 C 185.63 118.81 186.59 119.26 187.47 118.95 C 188.34 118.64 188.80 117.68 188.49 116.80 L 188.16 115.87 C 187.85 114.99 186.88 114.53 186.01 114.85 C 185.13 115.16 184.68 116.12 184.99 116.99 Z M 185.31 117.91 L 185.64 118.88 C 185.94 119.76 186.90 120.23 187.78 119.93 C 188.66 119.63 189.13 118.67 188.83 117.79 L 188.50 116.82 C 188.20 115.94 187.24 115.47 186.36 115.77 C 185.48 116.07 185.01 117.03 185.31 117.91 Z M 185.63 118.86 L 185.95 119.84 C 186.24 120.73 187.20 121.21 188.09 120.92 C 188.97 120.63 189.46 119.67 189.16 118.78 L 188.84 117.80 C 188.55 116.91 187.59 116.43 186.70 116.72 C 185.82 117.02 185.33 117.97 185.63 118.86 Z M 185.94 119.83 L 186.24 120.78 C 186.53 121.67 187.48 122.16 188.38 121.88 C 189.27 121.59 189.76 120.64 189.48 119.74 L 189.17 118.80 C 188.89 117.90 187.93 117.41 187.04 117.70 C 186.15 117.98 185.66 118.94 185.94 119.83 Z M 186.23 120.76 L 186.53 121.71 C 186.80 122.61 187.76 123.11 188.65 122.83 C 189.55 122.55 190.05 121.60 189.78 120.70 L 189.48 119.76 C 189.21 118.86 188.25 118.36 187.36 118.63 C 186.46 118.91 185.96 119.86 186.23 120.76 Z M 186.52 121.69 L 186.80 122.65 C 187.07 123.55 188.02 124.06 188.92 123.80 C 189.82 123.53 190.34 122.58 190.07 121.68 L 189.79 120.72 C 189.52 119.82 188.57 119.30 187.67 119.57 C 186.77 119.84 186.25 120.79 186.52 121.69 Z M 186.79 122.63 L 187.07 123.60 C 187.32 124.51 188.26 125.03 189.17 124.78 C 190.08 124.52 190.61 123.58 190.35 122.67 L 190.08 121.70 C 189.82 120.79 188.88 120.26 187.97 120.52 C 187.06 120.77 186.54 121.72 186.79 122.63 Z M 187.05 123.57 L 187.31 124.55 C 187.56 125.46 188.49 126.01 189.41 125.76 C 190.32 125.52 190.87 124.58 190.62 123.67 L 190.36 122.69 C 190.12 121.78 189.18 121.24 188.27 121.48 C 187.36 121.72 186.81 122.66 187.05 123.57 Z M 187.30 124.52 L 187.54 125.47 C 187.77 126.39 188.70 126.95 189.62 126.72 C 190.54 126.49 191.10 125.56 190.87 124.64 L 190.63 123.69 C 190.40 122.77 189.47 122.21 188.55 122.44 C 187.63 122.67 187.07 123.60 187.30 124.52 Z M 187.53 125.45 L 187.75 126.41 C 187.97 127.33 188.89 127.91 189.82 127.69 C 190.74 127.48 191.32 126.55 191.10 125.63 L 190.88 124.67 C 190.66 123.74 189.74 123.17 188.81 123.38 C 187.89 123.60 187.31 124.52 187.53 125.45 Z M 187.75 126.39 L 187.96 127.37 C 188.16 128.30 189.08 128.89 190.01 128.68 C 190.94 128.48 191.53 127.56 191.32 126.63 L 191.11 125.65 C 190.91 124.72 189.99 124.14 189.06 124.34 C 188.13 124.54 187.54 125.46 187.75 126.39 Z M 187.95 127.34 L 188.15 128.34 C 188.34 129.28 189.25 129.88 190.19 129.69 C 191.12 129.50 191.72 128.59 191.53 127.66 L 191.33 126.66 C 191.14 125.72 190.23 125.12 189.30 125.31 C 188.37 125.50 187.76 126.41 187.95 127.34 Z M 188.15 128.32 L 188.33 129.31 C 188.51 130.25 189.41 130.87 190.35 130.69 C 191.29 130.51 191.91 129.61 191.73 128.67 L 191.54 127.68 C 191.36 126.74 190.46 126.12 189.52 126.30 C 188.59 126.48 187.97 127.38 188.15 128.32 Z M 188.33 129.29 L 188.50 130.26 C 188.66 131.20 189.56 131.83 190.50 131.67 C 191.44 131.50 192.07 130.61 191.91 129.66 L 191.74 128.69 C 191.57 127.75 190.67 127.12 189.73 127.29 C 188.79 127.45 188.16 128.35 188.33 129.29 Z M 188.49 130.24 L 188.65 131.22 C 188.80 132.17 189.69 132.81 190.64 132.66 C 191.58 132.50 192.22 131.61 192.07 130.67 L 191.91 129.69 C 191.76 128.74 190.87 128.10 189.93 128.25 C 188.98 128.41 188.34 129.29 188.49 130.24 Z M 188.65 131.20 L 188.79 132.19 C 188.93 133.14 189.81 133.79 190.76 133.65 C 191.71 133.51 192.36 132.63 192.22 131.69 L 192.08 130.69 C 191.94 129.74 191.05 129.09 190.11 129.23 C 189.16 129.37 188.51 130.25 188.65 131.20 Z M 188.79 132.17 L 188.92 133.17 C 189.05 134.12 189.92 134.79 190.87 134.66 C 191.82 134.53 192.49 133.66 192.36 132.71 L 192.23 131.71 C 192.10 130.76 191.23 130.09 190.28 130.22 C 189.33 130.35 188.66 131.22 188.79 132.17 Z M 188.92 133.15 L 189.04 134.15 C 189.15 135.10 190.01 135.78 190.97 135.67 C 191.92 135.56 192.60 134.69 192.49 133.74 L 192.37 132.74 C 192.25 131.78 191.39 131.10 190.44 131.22 C 189.48 131.33 188.80 132.19 188.92 133.15 Z M 189.03 134.12 L 189.13 135.11 C 189.23 136.07 190.09 136.76 191.04 136.66 C 192.00 136.56 192.69 135.71 192.59 134.75 L 192.49 133.76 C 192.39 132.81 191.54 132.12 190.58 132.21 C 189.63 132.31 188.93 133.17 189.03 134.12 Z M 189.13 135.09 L 189.22 136.08 C 189.30 137.04 190.15 137.74 191.11 137.66 C 192.06 137.57 192.77 136.73 192.68 135.77 L 192.60 134.78 C 192.51 133.82 191.67 133.11 190.71 133.20 C 189.75 133.28 189.04 134.13 189.13 135.09 Z M 189.21 136.05 L 189.29 137.05 C 189.36 138.01 190.20 138.73 191.16 138.66 C 192.11 138.59 192.83 137.75 192.76 136.79 L 192.69 135.79 C 192.62 134.84 191.78 134.12 190.82 134.19 C 189.86 134.26 189.14 135.09 189.21 136.05 Z M 189.29 137.03 L 189.35 138.03 C 189.40 138.99 190.23 139.72 191.19 139.66 C 192.15 139.60 192.88 138.78 192.83 137.82 L 192.77 136.82 C 192.71 135.86 191.88 135.12 190.92 135.18 C 189.96 135.24 189.23 136.07 189.29 137.03 Z M 189.34 138.00 L 189.39 139.01 C 189.43 139.97 190.25 140.72 191.21 140.67 C 192.17 140.63 192.92 139.81 192.87 138.85 L 192.83 137.84 C 192.78 136.88 191.97 136.14 191.01 136.18 C 190.04 136.22 189.30 137.04 189.34 138.00 Z M 189.39 138.99 L 189.42 139.96 C 189.45 140.92 190.26 141.68 191.22 141.65 C 192.18 141.61 192.94 140.81 192.91 139.85 L 192.88 138.87 C 192.85 137.91 192.04 137.15 191.08 137.19 C 190.11 137.22 189.36 138.02 189.39 138.99 Z M 189.42 139.94 L 189.44 140.91 C 189.46 141.88 190.26 142.64 191.22 142.62 C 192.18 142.60 192.95 141.80 192.93 140.84 L 192.91 139.86 C 192.89 138.90 192.09 138.14 191.13 138.16 C 190.16 138.18 189.40 138.97 189.42 139.94 Z M 189.44 140.90 L 189.45 141.88 C 189.46 142.85 190.25 143.62 191.22 143.61 C 192.18 143.60 192.95 142.81 192.94 141.84 L 192.93 140.86 C 192.92 139.89 192.13 139.12 191.16 139.13 C 190.20 139.14 189.43 139.93 189.44 140.90 Z M 189.45 141.87 L 189.45 142.88 C 189.46 143.84 190.25 144.62 191.21 144.62 C 192.18 144.61 192.95 143.82 192.95 142.86 L 192.94 141.85 C 192.94 140.89 192.15 140.11 191.19 140.12 C 190.22 140.12 189.44 140.91 189.45 141.87 Z M 189.45 142.87 L 189.45 143.90 C 189.46 144.86 190.24 145.65 191.21 145.64 C 192.17 145.64 192.95 144.86 192.95 143.89 L 192.95 142.87 C 192.95 141.90 192.16 141.12 191.20 141.12 C 190.23 141.12 189.45 141.91 189.45 142.87 Z M 189.45 143.90 L 189.45 144.92 C 189.45 145.89 190.24 146.67 191.20 146.67 C 192.17 146.67 192.95 145.89 192.95 144.92 L 192.95 143.90 C 192.95 142.93 192.17 142.15 191.20 142.15 C 190.24 142.15 189.45 142.93 189.45 143.90 Z M 189.45 144.92 L 189.45 145.92 C 189.45 146.88 190.23 147.67 191.20 147.67 C 192.17 147.67 192.95 146.89 192.95 145.92 L 192.95 144.93 C 192.95 143.96 192.17 143.18 191.20 143.17 C 190.24 143.17 189.45 143.96 189.45 144.92 Z M 189.45 145.91 L 189.45 146.92 C 189.44 147.89 190.22 148.67 191.19 148.68 C 192.16 148.68 192.94 147.90 192.95 146.94 L 192.95 145.93 C 192.96 144.96 192.18 144.17 191.21 144.17 C 190.24 144.17 189.46 144.95 189.45 145.91 Z M 189.45 146.91 L 189.44 147.92 C 189.43 148.89 190.20 149.68 191.17 149.69 C 192.14 149.70 192.93 148.93 192.94 147.96 L 192.95 146.94 C 192.96 145.98 192.18 145.19 191.21 145.18 C 190.25 145.17 189.46 145.94 189.45 146.91 Z M 189.44 147.91 L 189.42 148.92 C 189.40 149.89 190.17 150.68 191.14 150.70 C 192.11 150.72 192.90 149.95 192.92 148.98 L 192.94 147.97 C 192.96 147.01 192.19 146.21 191.22 146.19 C 190.25 146.17 189.45 146.94 189.44 147.91 Z M 189.42 148.90 L 189.39 149.90 C 189.36 150.86 190.13 151.67 191.09 151.70 C 192.06 151.72 192.87 150.96 192.89 149.99 L 192.92 149.00 C 192.95 148.03 192.19 147.23 191.22 147.20 C 190.25 147.17 189.45 147.93 189.42 148.90 Z M 189.39 149.87 L 189.35 150.87 C 189.31 151.83 190.06 152.65 191.03 152.69 C 191.99 152.73 192.81 151.98 192.85 151.02 L 192.89 150.02 C 192.93 149.05 192.18 148.24 191.22 148.19 C 190.25 148.15 189.43 148.90 189.39 149.87 Z M 189.35 150.83 L 189.29 151.86 C 189.23 152.82 189.96 153.66 190.93 153.71 C 191.90 153.77 192.73 153.04 192.79 152.07 L 192.85 151.05 C 192.91 150.08 192.17 149.25 191.21 149.19 C 190.24 149.13 189.41 149.87 189.35 150.83 Z M 189.29 151.82 L 189.21 152.82 C 189.13 153.78 189.84 154.63 190.81 154.71 C 191.77 154.79 192.62 154.08 192.70 153.11 L 192.78 152.11 C 192.87 151.15 192.15 150.30 191.18 150.22 C 190.22 150.14 189.37 150.85 189.29 151.82 Z M 189.21 152.77 L 189.10 153.76 C 189.00 154.72 189.69 155.58 190.65 155.69 C 191.62 155.80 192.48 155.10 192.59 154.14 L 192.70 153.16 C 192.80 152.19 192.11 151.33 191.15 151.22 C 190.18 151.12 189.32 151.81 189.21 152.77 Z M 189.11 153.71 L 188.97 154.68 C 188.84 155.64 189.51 156.53 190.47 156.66 C 191.43 156.79 192.31 156.12 192.45 155.16 L 192.58 154.19 C 192.72 153.23 192.05 152.34 191.09 152.21 C 190.13 152.08 189.24 152.75 189.11 153.71 Z M 188.98 154.63 L 188.82 155.60 C 188.65 156.56 189.30 157.46 190.25 157.62 C 191.21 157.79 192.11 157.14 192.27 156.19 L 192.44 155.22 C 192.60 154.26 191.96 153.36 191.01 153.19 C 190.05 153.03 189.14 153.67 188.98 154.63 Z M 188.82 155.55 L 188.63 156.50 C 188.44 157.45 189.05 158.37 190.00 158.57 C 190.95 158.76 191.88 158.15 192.07 157.20 L 192.27 156.24 C 192.46 155.29 191.84 154.37 190.89 154.17 C 189.94 153.98 189.02 154.60 188.82 155.55 Z M 188.64 156.45 L 188.42 157.40 C 188.20 158.34 188.79 159.29 189.73 159.51 C 190.68 159.73 191.62 159.14 191.84 158.20 L 192.06 157.25 C 192.28 156.30 191.70 155.36 190.75 155.14 C 189.81 154.91 188.86 155.50 188.64 156.45 Z M 188.43 157.35 L 188.18 158.31 C 187.93 159.25 188.50 160.21 189.44 160.46 C 190.38 160.70 191.34 160.14 191.58 159.20 L 191.83 158.24 C 192.08 157.30 191.51 156.34 190.57 156.09 C 189.63 155.85 188.67 156.41 188.43 157.35 Z M 188.19 158.27 L 187.91 159.24 C 187.64 160.18 188.18 161.15 189.12 161.42 C 190.06 161.68 191.03 161.14 191.30 160.21 L 191.57 159.24 C 191.84 158.30 191.30 157.33 190.36 157.06 C 189.43 156.79 188.45 157.34 188.19 158.27 Z M 187.92 159.20 L 187.62 160.18 C 187.33 161.11 187.85 162.10 188.79 162.38 C 189.72 162.67 190.70 162.15 190.99 161.22 L 191.29 160.24 C 191.58 159.31 191.06 158.32 190.12 158.04 C 189.19 157.75 188.20 158.27 187.92 159.20 Z M 187.63 160.15 L 187.30 161.13 C 187.00 162.06 187.50 163.06 188.43 163.36 C 189.36 163.66 190.36 163.16 190.66 162.23 L 190.98 161.25 C 191.29 160.32 190.78 159.32 189.85 159.02 C 188.93 158.71 187.93 159.22 187.63 160.15 Z M 187.31 161.10 L 186.99 162.03 C 186.67 162.95 187.16 163.96 188.09 164.28 C 189.01 164.60 190.02 164.11 190.34 163.18 L 190.65 162.26 C 190.97 161.33 190.48 160.33 189.56 160.01 C 188.64 159.69 187.63 160.18 187.31 161.10 Z M 187.00 162.01 L 186.66 162.94 C 186.33 163.86 186.81 164.87 187.73 165.20 C 188.65 165.53 189.66 165.05 189.99 164.13 L 190.33 163.20 C 190.66 162.28 190.18 161.27 189.26 160.94 C 188.34 160.61 187.33 161.09 187.00 162.01 Z M 186.67 162.92 L 186.32 163.85 C 185.98 164.77 186.45 165.79 187.36 166.13 C 188.28 166.47 189.30 166.01 189.64 165.09 L 189.99 164.15 C 190.33 163.24 189.86 162.22 188.95 161.88 C 188.03 161.53 187.01 162.00 186.67 162.92 Z M 186.33 163.83 L 185.97 164.77 C 185.61 165.69 186.07 166.71 186.98 167.06 C 187.90 167.41 188.92 166.96 189.27 166.04 L 189.64 165.11 C 189.99 164.19 189.53 163.17 188.62 162.82 C 187.70 162.46 186.68 162.92 186.33 163.83 Z M 185.97 164.76 L 185.60 165.70 C 185.24 166.61 185.69 167.64 186.60 168.00 C 187.51 168.36 188.54 167.91 188.90 167.00 L 189.27 166.06 C 189.63 165.15 189.18 164.12 188.27 163.76 C 187.36 163.40 186.33 163.85 185.97 164.76 Z M 185.60 165.68 L 185.22 166.63 C 184.86 167.54 185.29 168.57 186.20 168.94 C 187.11 169.30 188.15 168.87 188.51 167.96 L 188.89 167.01 C 189.26 166.10 188.82 165.07 187.91 164.70 C 187.00 164.34 185.97 164.78 185.60 165.68 Z M 185.23 166.62 L 184.85 167.54 C 184.47 168.44 184.91 169.48 185.81 169.86 C 186.72 170.23 187.76 169.80 188.13 168.89 L 188.51 167.97 C 188.88 167.06 188.45 166.02 187.54 165.65 C 186.64 165.27 185.60 165.71 185.23 166.62 Z M 184.85 167.52 L 184.47 168.44 C 184.09 169.35 184.51 170.39 185.42 170.77 C 186.32 171.15 187.37 170.72 187.75 169.82 L 188.13 168.90 C 188.51 167.99 188.08 166.95 187.18 166.57 C 186.27 166.19 185.23 166.62 184.85 167.52 Z M 184.47 168.43 L 184.08 169.34 C 183.69 170.25 184.11 171.29 185.01 171.68 C 185.92 172.07 186.96 171.65 187.35 170.74 L 187.74 169.83 C 188.13 168.93 187.71 167.88 186.81 167.49 C 185.90 167.10 184.86 167.52 184.47 168.43 Z M 184.08 169.33 L 183.68 170.24 C 183.29 171.14 183.69 172.19 184.60 172.59 C 185.50 172.98 186.55 172.57 186.94 171.67 L 187.34 170.76 C 187.74 169.86 187.33 168.81 186.43 168.41 C 185.53 168.02 184.48 168.43 184.08 169.33 Z M 183.69 170.23 L 183.27 171.14 C 182.87 172.04 183.27 173.09 184.17 173.50 C 185.07 173.90 186.12 173.50 186.52 172.61 L 186.94 171.69 C 187.34 170.79 186.94 169.74 186.04 169.33 C 185.15 168.93 184.09 169.33 183.69 170.23 Z M 183.28 171.12 L 182.86 172.04 C 182.44 172.93 182.83 173.99 183.73 174.41 C 184.62 174.82 185.68 174.43 186.09 173.54 L 186.52 172.62 C 186.93 171.73 186.54 170.67 185.65 170.25 C 184.75 169.84 183.69 170.23 183.28 171.12 Z M 182.86 172.02 L 182.44 172.92 C 182.01 173.81 182.39 174.87 183.28 175.30 C 184.17 175.72 185.24 175.34 185.66 174.45 L 186.09 173.56 C 186.51 172.67 186.13 171.60 185.24 171.18 C 184.35 170.75 183.29 171.13 182.86 172.02 Z M 182.44 172.90 L 182.01 173.78 C 181.58 174.66 181.95 175.73 182.83 176.17 C 183.72 176.60 184.79 176.23 185.22 175.35 L 185.65 174.47 C 186.09 173.59 185.72 172.52 184.83 172.08 C 183.95 171.65 182.88 172.02 182.44 172.90 Z M 182.02 173.76 L 181.58 174.64 C 181.14 175.52 181.49 176.60 182.38 177.04 C 183.26 177.48 184.33 177.13 184.77 176.24 L 185.22 175.36 C 185.66 174.48 185.30 173.41 184.42 172.97 C 183.54 172.52 182.46 172.88 182.02 173.76 Z M 181.59 174.63 L 181.13 175.51 C 180.68 176.39 181.03 177.47 181.91 177.92 C 182.79 178.37 183.86 178.02 184.31 177.14 L 184.77 176.26 C 185.22 175.38 184.87 174.30 183.99 173.85 C 183.11 173.40 182.04 173.75 181.59 174.63 Z M 181.14 175.50 L 180.68 176.39 C 180.22 177.26 180.56 178.34 181.43 178.80 C 182.31 179.26 183.39 178.92 183.84 178.04 L 184.31 177.15 C 184.77 176.28 184.43 175.20 183.55 174.74 C 182.68 174.28 181.60 174.62 181.14 175.50 Z M 180.68 176.38 L 180.20 177.27 C 179.74 178.15 180.07 179.23 180.94 179.69 C 181.81 180.16 182.90 179.82 183.36 178.95 L 183.84 178.05 C 184.30 177.18 183.97 176.10 183.10 175.64 C 182.23 175.17 181.14 175.51 180.68 176.38 Z M 180.21 177.27 L 179.72 178.17 C 179.25 179.04 179.58 180.13 180.44 180.60 C 181.31 181.06 182.40 180.74 182.87 179.87 L 183.36 178.96 C 183.82 178.09 183.50 177.01 182.63 176.54 C 181.76 176.07 180.68 176.40 180.21 177.27 Z M 179.72 178.17 L 179.24 179.05 C 178.77 179.92 179.09 181.01 179.95 181.48 C 180.82 181.95 181.91 181.63 182.38 180.76 L 182.86 179.88 C 183.33 179.01 183.02 177.92 182.15 177.45 C 181.28 176.98 180.20 177.30 179.72 178.17 Z M 179.24 179.04 L 178.76 179.93 C 178.28 180.79 178.59 181.88 179.45 182.36 C 180.32 182.84 181.41 182.52 181.88 181.66 L 182.37 180.77 C 182.85 179.91 182.54 178.82 181.67 178.35 C 180.81 177.87 179.72 178.18 179.24 179.04 Z M 178.76 179.92 L 178.26 180.81 C 177.78 181.66 178.09 182.75 178.95 183.24 C 179.81 183.72 180.89 183.41 181.38 182.56 L 181.88 181.67 C 182.36 180.81 182.05 179.72 181.19 179.24 C 180.33 178.76 179.25 179.06 178.76 179.92 Z M 178.27 180.79 L 177.77 181.67 C 177.28 182.53 177.57 183.62 178.43 184.11 C 179.28 184.60 180.37 184.30 180.86 183.45 L 181.37 182.57 C 181.86 181.71 181.56 180.62 180.71 180.13 C 179.85 179.64 178.76 179.94 178.27 180.79 Z M 177.78 181.65 L 177.27 182.52 C 176.77 183.37 177.05 184.46 177.90 184.96 C 178.75 185.46 179.85 185.18 180.34 184.33 L 180.85 183.46 C 181.35 182.61 181.07 181.52 180.22 181.02 C 179.37 180.52 178.28 180.81 177.78 181.65 Z M 177.28 182.50 L 176.77 183.35 C 176.26 184.19 176.53 185.28 177.37 185.79 C 178.21 186.30 179.31 186.04 179.82 185.19 L 180.33 184.35 C 180.84 183.51 180.57 182.41 179.73 181.90 C 178.89 181.39 177.79 181.66 177.28 182.50 Z M 176.79 183.32 L 176.27 184.15 C 175.75 184.98 176.00 186.08 176.83 186.60 C 177.67 187.12 178.77 186.87 179.29 186.04 L 179.80 185.22 C 180.33 184.38 180.07 183.28 179.24 182.76 C 178.41 182.24 177.31 182.49 176.79 183.32 Z M 176.29 184.12 L 175.73 184.98 C 175.19 185.81 175.42 186.91 176.24 187.45 C 177.06 187.98 178.17 187.75 178.70 186.93 L 179.27 186.06 C 179.81 185.24 179.58 184.14 178.75 183.60 C 177.93 183.07 176.83 183.30 176.29 184.12 Z M 175.75 184.96 L 175.17 185.80 C 174.62 186.61 174.83 187.71 175.64 188.27 C 176.45 188.82 177.55 188.61 178.10 187.80 L 178.68 186.96 C 179.23 186.15 179.03 185.04 178.22 184.49 C 177.41 183.94 176.30 184.15 175.75 184.96 Z M 175.19 185.77 L 174.61 186.59 C 174.05 187.38 174.23 188.49 175.03 189.06 C 175.83 189.63 176.93 189.44 177.50 188.64 L 178.08 187.83 C 178.65 187.03 178.46 185.93 177.67 185.36 C 176.87 184.79 175.76 184.98 175.19 185.77 Z M 174.64 186.56 L 174.05 187.36 C 173.47 188.14 173.63 189.25 174.42 189.83 C 175.20 190.41 176.31 190.25 176.89 189.46 L 177.48 188.67 C 178.06 187.88 177.90 186.77 177.11 186.19 C 176.32 185.61 175.22 185.78 174.64 186.56 Z M 174.07 187.33 L 173.47 188.11 C 172.88 188.89 173.03 189.99 173.80 190.59 C 174.58 191.18 175.69 191.03 176.28 190.26 L 176.87 189.48 C 177.47 188.71 177.32 187.60 176.54 187.01 C 175.77 186.41 174.66 186.56 174.07 187.33 Z M 173.49 188.09 L 172.89 188.86 C 172.28 189.63 172.41 190.74 173.18 191.34 C 173.94 191.94 175.05 191.81 175.65 191.05 L 176.26 190.28 C 176.86 189.51 176.73 188.40 175.97 187.80 C 175.20 187.20 174.09 187.33 173.49 188.09 Z M 172.90 188.85 L 172.28 189.61 C 171.67 190.37 171.79 191.48 172.55 192.09 C 173.30 192.70 174.41 192.58 175.02 191.82 L 175.64 191.06 C 176.25 190.30 176.13 189.20 175.38 188.59 C 174.62 187.97 173.51 188.09 172.90 188.85 Z M 172.30 189.60 L 171.67 190.37 C 171.05 191.11 171.16 192.22 171.90 192.84 C 172.65 193.45 173.76 193.35 174.37 192.60 L 175.01 191.84 C 175.62 191.09 175.52 189.98 174.77 189.37 C 174.02 188.75 172.92 188.85 172.30 189.60 Z M 171.68 190.35 L 171.04 191.12 C 170.42 191.86 170.51 192.96 171.25 193.58 C 171.99 194.21 173.09 194.11 173.72 193.38 L 174.36 192.61 C 174.98 191.87 174.89 190.77 174.15 190.14 C 173.41 189.52 172.31 189.62 171.68 190.35 Z M 171.05 191.11 L 170.40 191.87 C 169.77 192.60 169.85 193.70 170.58 194.33 C 171.32 194.96 172.42 194.88 173.05 194.15 L 173.70 193.39 C 174.33 192.65 174.25 191.55 173.52 190.92 C 172.79 190.29 171.68 190.38 171.05 191.11 Z M 170.41 191.86 L 169.75 192.61 C 169.12 193.34 169.19 194.44 169.91 195.07 C 170.63 195.71 171.73 195.63 172.37 194.91 L 173.03 194.16 C 173.67 193.43 173.60 192.33 172.87 191.70 C 172.15 191.06 171.05 191.13 170.41 191.86 Z M 169.76 192.60 L 169.09 193.35 C 168.45 194.07 168.51 195.17 169.23 195.81 C 169.94 196.45 171.04 196.39 171.68 195.67 L 172.36 194.92 C 173.00 194.21 172.94 193.11 172.22 192.47 C 171.50 191.83 170.41 191.89 169.76 192.60 Z M 169.11 193.34 L 168.43 194.09 C 167.78 194.79 167.83 195.89 168.54 196.54 C 169.25 197.18 170.34 197.13 170.99 196.43 L 171.67 195.68 C 172.31 194.97 172.26 193.88 171.56 193.23 C 170.85 192.59 169.75 192.64 169.11 193.34 Z M 168.44 194.08 L 167.76 194.82 C 167.11 195.51 167.15 196.61 167.85 197.26 C 168.55 197.91 169.64 197.87 170.29 197.17 L 170.97 196.43 C 171.62 195.73 171.58 194.64 170.89 193.99 C 170.19 193.34 169.09 193.38 168.44 194.08 Z M 167.77 194.81 L 167.08 195.54 C 166.43 196.23 166.46 197.32 167.15 197.97 C 167.84 198.63 168.93 198.60 169.59 197.90 L 170.28 197.18 C 170.93 196.48 170.90 195.39 170.21 194.74 C 169.52 194.09 168.43 194.12 167.77 194.81 Z M 167.10 195.53 L 166.40 196.26 C 165.75 196.94 165.77 198.02 166.45 198.68 C 167.14 199.34 168.22 199.31 168.88 198.63 L 169.57 197.91 C 170.23 197.23 170.21 196.14 169.52 195.48 C 168.84 194.83 167.75 194.85 167.10 195.53 Z M 166.42 196.25 L 165.72 196.97 C 165.06 197.64 165.08 198.73 165.75 199.38 C 166.43 200.04 167.51 200.03 168.17 199.35 L 168.87 198.64 C 169.52 197.96 169.51 196.88 168.83 196.22 C 168.16 195.56 167.08 195.58 166.42 196.25 Z M 165.73 196.96 L 165.03 197.67 C 164.37 198.34 164.38 199.42 165.05 200.08 C 165.72 200.74 166.80 200.73 167.46 200.06 L 168.16 199.35 C 168.82 198.69 168.81 197.61 168.14 196.95 C 167.47 196.29 166.39 196.30 165.73 196.96 Z M 165.05 197.67 L 164.34 198.38 C 163.68 199.04 163.68 200.11 164.35 200.77 C 165.01 201.44 166.08 201.43 166.74 200.77 L 167.45 200.07 C 168.11 199.40 168.11 198.33 167.44 197.67 C 166.78 197.01 165.71 197.01 165.05 197.67 Z M 164.35 198.38 L 163.63 199.09 C 162.97 199.75 162.97 200.82 163.62 201.48 C 164.28 202.14 165.35 202.15 166.01 201.49 L 166.73 200.77 C 167.39 200.11 167.40 199.05 166.74 198.38 C 166.08 197.72 165.01 197.72 164.35 198.38 Z M 163.64 199.09 L 162.92 199.80 C 162.26 200.45 162.25 201.52 162.90 202.18 C 163.55 202.84 164.62 202.85 165.28 202.20 L 166.00 201.49 C 166.66 200.84 166.67 199.77 166.02 199.11 C 165.37 198.45 164.30 198.44 163.64 199.09 Z M 162.93 199.80 L 162.21 200.50 C 161.55 201.14 161.54 202.20 162.18 202.87 C 162.83 203.53 163.88 203.54 164.55 202.90 L 165.27 202.20 C 165.93 201.55 165.94 200.49 165.30 199.83 C 164.65 199.17 163.60 199.16 162.93 199.80 Z M 162.23 200.50 L 161.51 201.19 C 160.85 201.83 160.83 202.88 161.46 203.55 C 162.10 204.21 163.16 204.23 163.82 203.59 L 164.54 202.90 C 165.20 202.26 165.22 201.21 164.58 200.54 C 163.94 199.88 162.89 199.86 162.23 200.50 Z M 161.52 201.19 L 160.80 201.87 C 160.14 202.50 160.12 203.55 160.75 204.21 C 161.38 204.88 162.43 204.90 163.09 204.27 L 163.81 203.59 C 164.47 202.96 164.49 201.91 163.86 201.25 C 163.23 200.58 162.18 200.56 161.52 201.19 Z M 160.82 201.87 L 160.10 202.54 C 159.44 203.17 159.41 204.21 160.03 204.88 C 160.66 205.54 161.70 205.57 162.36 204.95 L 163.08 204.27 C 163.74 203.65 163.77 202.60 163.15 201.94 C 162.52 201.28 161.48 201.25 160.82 201.87 Z M 160.11 202.55 L 159.38 203.23 C 158.72 203.85 158.68 204.88 159.30 205.55 C 159.92 206.21 160.96 206.25 161.62 205.63 L 162.35 204.95 C 163.01 204.33 163.05 203.29 162.43 202.63 C 161.81 201.96 160.78 201.93 160.11 202.55 Z M 159.39 203.23 L 158.66 203.91 C 158.00 204.52 157.96 205.55 158.57 206.21 C 159.18 206.87 160.21 206.91 160.88 206.30 L 161.61 205.63 C 162.27 205.01 162.31 203.98 161.70 203.32 C 161.09 202.66 160.05 202.62 159.39 203.23 Z M 158.67 203.91 L 157.94 204.59 C 157.28 205.19 157.24 206.22 157.85 206.87 C 158.45 207.53 159.48 207.57 160.13 206.97 L 160.87 206.30 C 161.52 205.69 161.57 204.67 160.96 204.01 C 160.36 203.35 159.33 203.31 158.67 203.91 Z M 157.95 204.59 L 157.22 205.27 C 156.56 205.87 156.52 206.88 157.12 207.54 C 157.72 208.19 158.74 208.24 159.39 207.64 L 160.13 206.96 C 160.78 206.36 160.82 205.34 160.22 204.69 C 159.62 204.04 158.60 203.99 157.95 204.59 Z M 157.22 205.27 L 156.48 205.95 C 155.83 206.55 155.79 207.56 156.39 208.21 C 156.99 208.86 158.00 208.90 158.65 208.31 L 159.38 207.63 C 160.03 207.03 160.08 206.02 159.48 205.37 C 158.88 204.72 157.87 204.68 157.22 205.27 Z M 156.49 205.96 L 155.74 206.65 C 155.10 207.25 155.06 208.25 155.65 208.89 C 156.25 209.54 157.25 209.58 157.90 208.98 L 158.64 208.30 C 159.29 207.70 159.33 206.70 158.73 206.05 C 158.14 205.41 157.13 205.37 156.49 205.96 Z M 155.75 206.66 L 154.99 207.36 C 154.35 207.95 154.32 208.95 154.91 209.59 C 155.50 210.23 156.50 210.27 157.14 209.67 L 157.89 208.97 C 158.53 208.38 158.57 207.38 157.98 206.75 C 157.38 206.11 156.39 206.07 155.75 206.66 Z M 155.00 207.37 L 154.25 208.07 C 153.61 208.66 153.58 209.65 154.16 210.28 C 154.75 210.92 155.75 210.95 156.38 210.37 L 157.13 209.67 C 157.77 209.08 157.80 208.08 157.21 207.45 C 156.62 206.82 155.63 206.78 155.00 207.37 Z M 154.25 208.08 L 153.51 208.77 C 152.88 209.35 152.84 210.34 153.43 210.97 C 154.01 211.60 155.00 211.64 155.63 211.05 L 156.37 210.36 C 157.00 209.77 157.04 208.79 156.45 208.16 C 155.87 207.53 154.88 207.49 154.25 208.08 Z M 153.52 208.77 L 152.79 209.45 C 152.16 210.03 152.12 211.01 152.70 211.63 C 153.28 212.26 154.26 212.30 154.88 211.72 L 155.62 211.05 C 156.24 210.47 156.28 209.49 155.70 208.86 C 155.12 208.23 154.15 208.19 153.52 208.77 Z M 152.80 209.45 L 152.09 210.10 C 151.46 210.67 151.42 211.64 151.99 212.27 C 152.56 212.90 153.54 212.94 154.16 212.37 L 154.87 211.72 C 155.50 211.15 155.54 210.17 154.97 209.55 C 154.40 208.92 153.43 208.88 152.80 209.45 Z M 152.10 210.10 L 151.35 210.77 C 150.73 211.34 150.68 212.30 151.24 212.93 C 151.80 213.56 152.77 213.61 153.40 213.04 L 154.15 212.37 C 154.77 211.80 154.82 210.84 154.26 210.21 C 153.70 209.58 152.73 209.53 152.10 210.10 Z M 151.37 210.77 L 150.58 211.46 C 149.95 212.02 149.89 212.98 150.45 213.61 C 151.00 214.24 151.96 214.30 152.59 213.74 L 153.38 213.05 C 154.01 212.49 154.07 211.53 153.52 210.90 C 152.96 210.27 152.00 210.21 151.37 210.77 Z M 150.60 211.46 L 149.84 212.11 C 149.21 212.66 149.14 213.61 149.68 214.24 C 150.22 214.88 151.18 214.95 151.81 214.40 L 152.57 213.75 C 153.20 213.20 153.28 212.25 152.73 211.62 C 152.19 210.98 151.23 210.91 150.60 211.46 Z M 149.86 212.11 L 149.12 212.73 C 148.48 213.27 148.40 214.22 148.93 214.85 C 149.47 215.49 150.42 215.57 151.05 215.03 L 151.79 214.41 C 152.43 213.87 152.51 212.93 151.98 212.29 C 151.44 211.65 150.49 211.57 149.86 212.11 Z M 149.13 212.73 L 148.40 213.33 C 147.76 213.86 147.67 214.80 148.20 215.44 C 148.72 216.08 149.67 216.17 150.31 215.64 L 151.04 215.04 C 151.67 214.51 151.77 213.57 151.24 212.93 C 150.71 212.29 149.77 212.20 149.13 212.73 Z M 148.42 213.33 L 147.65 213.94 C 147.01 214.46 146.92 215.40 147.43 216.04 C 147.95 216.68 148.89 216.78 149.53 216.26 L 150.29 215.64 C 150.93 215.13 151.03 214.19 150.51 213.55 C 149.99 212.91 149.06 212.81 148.42 213.33 Z M 147.67 213.93 L 146.89 214.55 C 146.24 215.06 146.13 215.99 146.64 216.64 C 147.15 217.28 148.09 217.39 148.73 216.88 L 149.51 216.27 C 150.16 215.76 150.27 214.82 149.76 214.18 C 149.25 213.54 148.32 213.42 147.67 213.93 Z M 146.91 214.54 L 146.12 215.15 C 145.46 215.64 145.34 216.57 145.84 217.22 C 146.33 217.88 147.26 218.00 147.92 217.50 L 148.71 216.90 C 149.36 216.40 149.49 215.47 148.99 214.82 C 148.49 214.17 147.56 214.04 146.91 214.54 Z M 146.14 215.13 L 145.33 215.72 C 144.67 216.21 144.53 217.13 145.01 217.79 C 145.50 218.45 146.42 218.59 147.08 218.11 L 147.89 217.52 C 148.55 217.03 148.69 216.11 148.21 215.45 C 147.73 214.79 146.80 214.65 146.14 215.13 Z M 145.36 215.71 L 144.54 216.28 C 143.87 216.75 143.71 217.67 144.17 218.34 C 144.64 219.00 145.56 219.17 146.23 218.70 L 147.05 218.13 C 147.72 217.66 147.88 216.74 147.42 216.07 C 146.95 215.40 146.03 215.24 145.36 215.71 Z M 144.57 216.26 L 143.74 216.81 C 143.06 217.26 142.88 218.18 143.33 218.85 C 143.78 219.53 144.69 219.72 145.37 219.27 L 146.20 218.72 C 146.88 218.27 147.06 217.36 146.61 216.68 C 146.16 216.00 145.25 215.81 144.57 216.26 Z M 143.77 216.80 L 142.92 217.33 C 142.23 217.77 142.03 218.68 142.47 219.36 C 142.90 220.05 143.81 220.26 144.50 219.82 L 145.34 219.29 C 146.03 218.85 146.24 217.94 145.80 217.25 C 145.36 216.56 144.45 216.36 143.77 216.80 Z M 142.94 217.32 L 142.09 217.84 C 141.39 218.27 141.18 219.18 141.60 219.87 C 142.03 220.57 142.94 220.78 143.63 220.36 L 144.48 219.83 C 145.18 219.40 145.39 218.50 144.97 217.80 C 144.54 217.11 143.63 216.89 142.94 217.32 Z M 142.10 217.84 L 141.24 218.36 C 140.54 218.78 140.32 219.68 140.74 220.38 C 141.16 221.08 142.06 221.30 142.76 220.88 L 143.62 220.36 C 144.32 219.94 144.54 219.04 144.12 218.34 C 143.70 217.64 142.79 217.42 142.10 217.84 Z M 141.24 218.36 L 140.84 218.60 C 140.14 219.02 139.91 219.92 140.33 220.62 C 140.75 221.32 141.65 221.54 142.35 221.13 L 142.76 220.88 C 143.46 220.46 143.68 219.56 143.26 218.86 C 142.84 218.16 141.94 217.94 141.24 218.36 Z"
      fill="black"
      fill-rule="nonzero" /></svg>