<svg xmlns="http://www.w3.org/2000/svg" width="300" height="300" viewBox="0 0 300 300">
<path d="M 115.00 120.37 L 114.01 120.37 C 113.13 120.37 112.41 121.08 112.41 121.97 C 112.41 122.85 113.13 123.57 114.01 123.57 L 115.00 123.57 C 115.89 123.57 116.60 122.85 116.60 121.97 C 116.60 121.08 115.89 120.37 115.00 120.37 Z M 114.01 120.37 L 113.02 120.37 C 112.14 120.37 111.42 121.08 111.42 121.97 C 111.42 122.85 112.14 123.57 113.02 123.57 L 114.01 123.57 C 114.90 123.57 115.62 122.85 115.62 121.97 C 115.62 121.08 114.90 120.37 114.01 120.37 Z M 113.02 120.37 L 112.01 120.37 C 111.13 120.37 110.41 121.08 110.41 121.97 C 110.41 122.85 111.13 123.57 112.01 123.57 L 113.02 123.57 C 113.90 123.57 114.62 122.85 114.62 121.97 C 114.62 121.08 113.90 120.37 113.02 120.37 Z M 112.01 120.37 L 110.83 120.37 C 109.94 120.37 109.23 121.08 109.23 121.97 C 109.23 122.85 109.94 123.57 110.83 123.57 L 112.01 123.57 C 112.90 123.57 113.62 122.85 113.62 121.97 C 113.62 121.08 112.90 120.37 112.01 120.37 Z M 110.83 120.37 L 109.55 120.36 C 108.66 120.35 107.94 121.07 107.94 121.95 C 107.93 122.83 108.65 123.55 109.53 123.56 L 110.82 123.57 C 111.70 123.57 112.42 122.86 112.43 121.98 C 112.43 121.09 111.72 120.37 110.83 120.37 Z M 109.61 120.36 L 108.98 120.33 C 108.10 120.29 107.35 120.97 107.31 121.85 C 107.27 122.74 107.95 123.49 108.83 123.53 L 109.47 123.56 C 110.35 123.60 111.10 122.92 111.14 122.03 C 111.18 121.15 110.50 120.40 109.61 120.36 Z M 109.22 123.50 L 109.50 123.44 C 110.36 123.27 110.93 122.43 110.75 121.56 C 110.58 120.69 109.74 120.13 108.87 120.30 L 108.59 120.36 C 107.72 120.53 107.16 121.38 107.33 122.24 C 107.51 123.11 108.35 123.67 109.22 123.50 Z M 109.37 123.47 L 110.30 123.36 C 111.18 123.26 111.81 122.46 111.71 121.58 C 111.61 120.70 110.81 120.07 109.93 120.17 L 109.00 120.28 C 108.12 120.38 107.49 121.18 107.59 122.06 C 107.69 122.94 108.49 123.57 109.37 123.47 Z M 110.33 123.36 L 111.74 123.17 C 112.62 123.06 113.24 122.25 113.12 121.37 C 113.00 120.49 112.19 119.87 111.31 119.98 L 109.90 120.17 C 109.02 120.29 108.40 121.10 108.52 121.98 C 108.64 122.86 109.45 123.48 110.33 123.36 Z M 111.79 123.17 L 112.91 122.98 C 113.79 122.84 114.38 122.01 114.24 121.13 C 114.09 120.25 113.26 119.66 112.39 119.80 L 111.26 119.99 C 110.39 120.13 109.79 120.96 109.93 121.84 C 110.08 122.72 110.91 123.31 111.79 123.17 Z M 112.94 122.98 L 113.90 122.80 C 114.78 122.64 115.36 121.79 115.19 120.92 C 115.03 120.04 114.19 119.47 113.31 119.63 L 112.35 119.81 C 111.48 119.97 110.90 120.82 111.06 121.69 C 111.23 122.57 112.07 123.14 112.94 122.98 Z M 113.93 122.80 L 114.92 122.59 C 115.80 122.42 116.36 121.56 116.18 120.69 C 116.01 119.82 115.15 119.25 114.28 119.43 L 113.29 119.63 C 112.41 119.81 111.85 120.66 112.03 121.54 C 112.20 122.41 113.05 122.97 113.93 122.80 Z M 114.94 122.59 L 115.95 122.37 C 116.83 122.18 117.38 121.32 117.19 120.45 C 117.00 119.58 116.14 119.03 115.27 119.22 L 114.26 119.43 C 113.39 119.62 112.84 120.48 113.03 121.35 C 113.21 122.22 114.07 122.78 114.94 122.59 Z M 115.97 122.37 L 116.98 122.14 C 117.85 121.94 118.39 121.07 118.19 120.21 C 117.99 119.34 117.13 118.79 116.26 118.99 L 115.25 119.22 C 114.39 119.42 113.84 120.28 114.04 121.15 C 114.24 122.02 115.10 122.57 115.97 122.37 Z M 116.99 122.14 L 117.97 121.90 C 118.84 121.69 119.37 120.82 119.17 119.96 C 118.96 119.09 118.09 118.55 117.22 118.76 L 116.24 118.99 C 115.38 119.20 114.84 120.07 115.05 120.94 C 115.25 121.81 116.13 122.34 116.99 122.14 Z M 117.99 121.90 L 119.02 121.64 C 119.89 121.42 120.41 120.55 120.20 119.68 C 119.98 118.81 119.10 118.29 118.24 118.50 L 117.20 118.76 C 116.34 118.98 115.81 119.86 116.03 120.72 C 116.24 121.59 117.12 122.11 117.99 121.90 Z M 119.04 121.64 L 120.05 121.37 C 120.92 121.14 121.43 120.26 121.21 119.40 C 120.98 118.54 120.10 118.02 119.23 118.24 L 118.22 118.51 C 117.36 118.73 116.84 119.62 117.07 120.48 C 117.29 121.34 118.18 121.86 119.04 121.64 Z M 120.07 121.37 L 121.03 121.10 C 121.89 120.87 122.40 119.98 122.17 119.12 C 121.93 118.26 121.04 117.75 120.18 117.99 L 119.22 118.25 C 118.36 118.48 117.85 119.37 118.08 120.23 C 118.32 121.09 119.21 121.60 120.07 121.37 Z M 121.04 121.10 L 121.97 120.84 C 122.83 120.60 123.33 119.71 123.09 118.85 C 122.85 117.99 121.96 117.49 121.10 117.73 L 120.17 117.99 C 119.31 118.23 118.81 119.12 119.05 119.98 C 119.29 120.84 120.18 121.34 121.04 121.10 Z M 121.98 120.84 L 122.88 120.58 C 123.74 120.34 124.24 119.45 124.00 118.59 C 123.75 117.73 122.86 117.23 122.00 117.47 L 121.09 117.73 C 120.23 117.98 119.74 118.87 119.98 119.73 C 120.22 120.59 121.12 121.08 121.98 120.84 Z M 122.89 120.58 L 123.81 120.32 C 124.67 120.07 125.17 119.18 124.92 118.32 C 124.68 117.46 123.78 116.97 122.92 117.21 L 122.00 117.48 C 121.14 117.72 120.64 118.61 120.89 119.47 C 121.13 120.33 122.03 120.83 122.89 120.58 Z M 123.81 120.32 L 124.76 120.05 C 125.61 119.80 126.11 118.91 125.86 118.05 C 125.62 117.19 124.72 116.69 123.87 116.94 L 122.92 117.21 C 122.06 117.46 121.57 118.35 121.81 119.21 C 122.06 120.07 122.96 120.56 123.81 120.32 Z M 124.76 120.04 L 125.71 119.77 C 126.57 119.52 127.06 118.62 126.81 117.77 C 126.56 116.91 125.67 116.42 124.81 116.67 L 123.86 116.94 C 123.00 117.19 122.51 118.09 122.76 118.94 C 123.01 119.80 123.90 120.29 124.76 120.04 Z M 125.72 119.77 L 126.68 119.48 C 127.54 119.23 128.03 118.33 127.77 117.47 C 127.52 116.62 126.62 116.13 125.77 116.38 L 124.80 116.67 C 123.95 116.92 123.46 117.82 123.71 118.68 C 123.97 119.53 124.87 120.02 125.72 119.77 Z M 126.69 119.48 L 127.67 119.18 C 128.53 118.92 129.01 118.02 128.75 117.17 C 128.49 116.31 127.59 115.83 126.73 116.09 L 125.76 116.39 C 124.90 116.64 124.42 117.55 124.68 118.40 C 124.94 119.25 125.84 119.74 126.69 119.48 Z M 127.69 119.18 L 128.63 118.88 C 129.48 118.62 129.95 117.71 129.69 116.86 C 129.42 116.01 128.52 115.53 127.67 115.80 L 126.72 116.09 C 125.87 116.36 125.40 117.26 125.66 118.12 C 125.93 118.97 126.83 119.44 127.69 119.18 Z M 128.64 118.88 L 129.57 118.58 C 130.42 118.31 130.89 117.40 130.62 116.55 C 130.35 115.70 129.44 115.23 128.59 115.50 L 127.65 115.80 C 126.80 116.07 126.34 116.98 126.61 117.83 C 126.88 118.68 127.79 119.15 128.64 118.88 Z M 129.58 118.58 L 130.53 118.27 C 131.38 117.99 131.84 117.08 131.56 116.23 C 131.28 115.38 130.37 114.92 129.52 115.20 L 128.58 115.51 C 127.73 115.78 127.27 116.70 127.54 117.54 C 127.82 118.39 128.73 118.85 129.58 118.58 Z M 130.54 118.26 L 131.49 117.94 C 132.34 117.66 132.80 116.75 132.52 115.90 C 132.23 115.06 131.32 114.60 130.47 114.88 L 129.52 115.20 C 128.67 115.48 128.21 116.40 128.49 117.24 C 128.78 118.09 129.69 118.55 130.54 118.26 Z M 131.50 117.94 L 132.47 117.62 C 133.31 117.33 133.76 116.42 133.48 115.57 C 133.20 114.73 132.28 114.27 131.44 114.56 L 130.47 114.88 C 129.62 115.17 129.17 116.08 129.46 116.93 C 129.74 117.77 130.66 118.23 131.50 117.94 Z M 132.47 117.61 L 133.43 117.29 C 134.28 117.00 134.73 116.08 134.44 115.24 C 134.15 114.39 133.24 113.94 132.39 114.23 L 131.43 114.56 C 130.59 114.85 130.14 115.76 130.42 116.61 C 130.71 117.45 131.63 117.90 132.47 117.61 Z M 133.44 117.28 L 134.38 116.96 C 135.22 116.67 135.67 115.75 135.38 114.91 C 135.09 114.07 134.17 113.62 133.33 113.91 L 132.39 114.23 C 131.55 114.52 131.10 115.44 131.39 116.28 C 131.68 117.13 132.60 117.57 133.44 117.28 Z M 134.39 116.96 L 135.33 116.63 C 136.17 116.34 136.62 115.42 136.33 114.58 C 136.03 113.74 135.12 113.29 134.27 113.58 L 133.33 113.91 C 132.49 114.20 132.04 115.12 132.33 115.96 C 132.63 116.80 133.54 117.25 134.39 116.96 Z M 135.33 116.63 L 136.28 116.30 C 137.12 116.00 137.56 115.09 137.27 114.24 C 136.98 113.40 136.06 112.96 135.22 113.25 L 134.27 113.58 C 133.43 113.88 132.99 114.80 133.28 115.64 C 133.57 116.48 134.49 116.92 135.33 116.63 Z M 136.28 116.30 L 137.23 115.96 C 138.07 115.67 138.51 114.75 138.21 113.91 C 137.92 113.07 137.00 112.63 136.16 112.92 L 135.21 113.26 C 134.38 113.55 133.93 114.47 134.23 115.31 C 134.52 116.15 135.44 116.59 136.28 116.30 Z M 137.23 115.96 L 138.17 115.63 C 139.01 115.33 139.45 114.41 139.16 113.57 C 138.86 112.74 137.94 112.30 137.10 112.59 L 136.16 112.93 C 135.32 113.22 134.88 114.14 135.18 114.98 C 135.47 115.82 136.39 116.26 137.23 115.96 Z M 138.18 115.63 L 139.12 115.29 C 139.96 114.99 140.40 114.07 140.10 113.24 C 139.80 112.40 138.88 111.96 138.04 112.26 L 137.10 112.59 C 136.26 112.89 135.82 113.81 136.12 114.65 C 136.42 115.49 137.34 115.92 138.18 115.63 Z M 139.12 115.29 L 140.07 114.95 C 140.90 114.65 141.34 113.73 141.04 112.90 C 140.74 112.06 139.82 111.63 138.99 111.92 L 138.04 112.26 C 137.21 112.56 136.77 113.48 137.07 114.32 C 137.37 115.15 138.29 115.59 139.12 115.29 Z M 140.07 114.95 L 141.01 114.61 C 141.84 114.31 142.28 113.39 141.98 112.56 C 141.68 111.72 140.76 111.29 139.92 111.59 L 138.98 111.93 C 138.15 112.23 137.71 113.15 138.01 113.98 C 138.31 114.82 139.23 115.25 140.07 114.95 Z M 141.01 114.61 L 141.95 114.27 C 142.78 113.97 143.21 113.05 142.91 112.21 C 142.61 111.38 141.69 110.95 140.86 111.25 L 139.92 111.59 C 139.09 111.89 138.66 112.81 138.96 113.65 C 139.26 114.48 140.18 114.91 141.01 114.61 Z M 141.96 114.26 L 142.89 113.92 C 143.72 113.62 144.15 112.70 143.85 111.87 C 143.54 111.03 142.62 110.61 141.79 110.91 L 140.85 111.26 C 140.02 111.56 139.60 112.48 139.90 113.31 C 140.20 114.14 141.13 114.57 141.96 114.26 Z M 142.90 113.92 L 143.83 113.57 C 144.66 113.26 145.08 112.34 144.77 111.52 C 144.47 110.69 143.55 110.26 142.72 110.57 L 141.79 110.92 C 140.96 111.22 140.53 112.14 140.84 112.97 C 141.15 113.80 142.07 114.22 142.90 113.92 Z M 143.84 113.57 L 144.75 113.22 C 145.58 112.91 146.00 111.99 145.69 111.17 C 145.38 110.34 144.46 109.92 143.63 110.23 L 142.71 110.57 C 141.89 110.88 141.47 111.81 141.78 112.63 C 142.09 113.46 143.01 113.88 143.84 113.57 Z M 144.76 113.22 L 145.68 112.87 C 146.51 112.56 146.92 111.64 146.61 110.81 C 146.30 109.99 145.37 109.57 144.55 109.88 L 143.63 110.23 C 142.80 110.55 142.39 111.47 142.70 112.29 C 143.01 113.12 143.93 113.53 144.76 113.22 Z M 145.69 112.87 L 146.62 112.51 C 147.44 112.19 147.85 111.27 147.53 110.45 C 147.22 109.63 146.30 109.22 145.48 109.53 L 144.55 109.89 C 143.72 110.20 143.31 111.12 143.63 111.95 C 143.94 112.77 144.86 113.18 145.69 112.87 Z M 146.62 112.51 L 147.56 112.14 C 148.38 111.83 148.79 110.91 148.47 110.09 C 148.15 109.27 147.23 108.86 146.41 109.17 L 145.47 109.54 C 144.65 109.85 144.24 110.77 144.56 111.59 C 144.88 112.41 145.80 112.82 146.62 112.51 Z M 147.56 112.14 L 148.51 111.77 C 149.33 111.45 149.74 110.53 149.42 109.71 C 149.10 108.90 148.18 108.49 147.36 108.81 L 146.41 109.18 C 145.59 109.49 145.19 110.42 145.50 111.23 C 145.82 112.05 146.74 112.46 147.56 112.14 Z M 148.51 111.77 L 149.46 111.40 C 150.27 111.08 150.68 110.16 150.36 109.34 C 150.04 108.53 149.12 108.12 148.30 108.44 L 147.36 108.81 C 146.54 109.13 146.14 110.05 146.46 110.87 C 146.78 111.68 147.70 112.09 148.51 111.77 Z M 149.46 111.39 L 150.40 111.03 C 151.21 110.71 151.61 109.79 151.29 108.97 C 150.97 108.16 150.06 107.76 149.24 108.08 L 148.30 108.45 C 147.49 108.77 147.09 109.68 147.41 110.50 C 147.73 111.31 148.64 111.71 149.46 111.39 Z M 150.40 111.02 L 151.34 110.65 C 152.15 110.33 152.55 109.42 152.23 108.60 C 151.91 107.79 151.00 107.39 150.19 107.71 L 149.24 108.08 C 148.43 108.40 148.03 109.32 148.35 110.13 C 148.67 110.94 149.59 111.34 150.40 111.02 Z M 151.34 110.65 L 152.28 110.28 C 153.09 109.96 153.49 109.04 153.17 108.24 C 152.85 107.43 151.94 107.03 151.13 107.35 L 150.19 107.72 C 149.38 108.03 148.98 108.95 149.30 109.76 C 149.62 110.57 150.53 110.97 151.34 110.65 Z M 152.28 110.28 L 153.21 109.91 C 154.01 109.59 154.41 108.68 154.09 107.87 C 153.78 107.06 152.86 106.67 152.06 106.98 L 151.13 107.35 C 150.32 107.67 149.92 108.58 150.24 109.39 C 150.56 110.20 151.47 110.59 152.28 110.28 Z M 153.20 109.91 L 154.12 109.55 C 154.92 109.23 155.32 108.32 155.00 107.51 C 154.68 106.71 153.77 106.31 152.97 106.63 L 152.06 106.99 C 151.25 107.30 150.85 108.21 151.17 109.02 C 151.49 109.83 152.40 110.22 153.20 109.91 Z M 154.11 109.55 L 155.08 109.17 C 155.89 108.85 156.28 107.94 155.97 107.14 C 155.65 106.33 154.74 105.94 153.94 106.25 L 152.97 106.63 C 152.17 106.95 151.77 107.86 152.08 108.66 C 152.40 109.46 153.31 109.86 154.11 109.55 Z M 155.08 109.16 L 156.04 108.79 C 156.84 108.47 157.24 107.57 156.93 106.76 C 156.61 105.96 155.71 105.57 154.91 105.88 L 153.94 106.26 C 153.14 106.57 152.74 107.47 153.06 108.28 C 153.37 109.08 154.28 109.48 155.08 109.16 Z M 156.04 108.78 L 156.98 108.42 C 157.78 108.10 158.17 107.20 157.86 106.40 C 157.55 105.60 156.64 105.20 155.84 105.52 L 154.91 105.88 C 154.11 106.20 153.71 107.10 154.02 107.90 C 154.34 108.70 155.24 109.09 156.04 108.78 Z M 156.97 108.41 L 157.89 108.06 C 158.68 107.74 159.08 106.84 158.77 106.05 C 158.45 105.25 157.56 104.85 156.76 105.17 L 155.85 105.52 C 155.05 105.83 154.65 106.73 154.96 107.53 C 155.28 108.33 156.18 108.72 156.97 108.41 Z M 157.88 108.05 L 158.78 107.70 C 159.57 107.39 159.96 106.50 159.65 105.70 C 159.34 104.90 158.45 104.51 157.65 104.82 L 156.76 105.17 C 155.96 105.48 155.57 106.38 155.88 107.17 C 156.19 107.97 157.09 108.36 157.88 108.05 Z M 158.77 107.70 L 159.70 107.33 C 160.50 107.02 160.89 106.13 160.58 105.34 C 160.27 104.54 159.37 104.15 158.58 104.46 L 157.65 104.83 C 156.86 105.14 156.47 106.03 156.78 106.82 C 157.09 107.62 157.98 108.01 158.77 107.70 Z M 159.70 107.33 L 160.65 106.96 C 161.45 106.65 161.84 105.76 161.53 104.97 C 161.22 104.18 160.33 103.79 159.54 104.10 L 158.58 104.47 C 157.79 104.78 157.40 105.67 157.71 106.46 C 158.02 107.25 158.91 107.64 159.70 107.33 Z M 160.65 106.96 L 161.58 106.59 C 162.37 106.29 162.77 105.40 162.46 104.61 C 162.16 103.82 161.27 103.43 160.48 103.74 L 159.54 104.10 C 158.75 104.40 158.36 105.29 158.67 106.08 C 158.97 106.87 159.86 107.26 160.65 106.96 Z M 161.57 106.59 L 162.50 106.24 C 163.28 105.94 163.68 105.06 163.38 104.27 C 163.08 103.49 162.20 103.09 161.41 103.39 L 160.49 103.74 C 159.70 104.04 159.31 104.92 159.61 105.71 C 159.90 106.49 160.79 106.89 161.57 106.59 Z M 162.48 106.24 L 163.39 105.91 C 164.18 105.62 164.58 104.74 164.29 103.95 C 164.00 103.17 163.13 102.76 162.34 103.05 L 161.43 103.39 C 160.64 103.68 160.24 104.55 160.53 105.34 C 160.82 106.13 161.69 106.53 162.48 106.24 Z M 163.37 105.91 L 164.26 105.59 C 165.05 105.32 165.46 104.45 165.18 103.66 C 164.91 102.87 164.04 102.46 163.25 102.74 L 162.36 103.05 C 161.57 103.33 161.16 104.20 161.43 104.99 C 161.71 105.78 162.58 106.19 163.37 105.91 Z M 164.24 105.60 L 165.14 105.29 C 165.93 105.03 166.35 104.17 166.09 103.38 C 165.82 102.59 164.96 102.16 164.17 102.43 L 163.27 102.73 C 162.48 103.00 162.06 103.86 162.32 104.65 C 162.59 105.44 163.45 105.86 164.24 105.60 Z M 165.12 105.30 L 166.05 105.00 C 166.84 104.74 167.27 103.89 167.02 103.10 C 166.76 102.31 165.91 101.87 165.12 102.13 L 164.19 102.43 C 163.40 102.68 162.96 103.53 163.22 104.32 C 163.47 105.12 164.32 105.55 165.12 105.30 Z M 166.03 105.00 L 167.01 104.69 C 167.80 104.45 168.25 103.61 168.00 102.82 C 167.76 102.02 166.92 101.58 166.13 101.82 L 165.14 102.13 C 164.35 102.37 163.91 103.21 164.15 104.00 C 164.39 104.80 165.23 105.24 166.03 105.00 Z M 166.99 104.69 L 168.03 104.39 C 168.83 104.15 169.28 103.32 169.05 102.53 C 168.81 101.73 167.98 101.28 167.19 101.52 L 166.15 101.82 C 165.35 102.06 164.90 102.89 165.13 103.68 C 165.37 104.47 166.20 104.93 166.99 104.69 Z M 168.02 104.39 L 168.95 104.12 C 169.75 103.90 170.21 103.07 169.98 102.28 C 169.75 101.48 168.93 101.02 168.14 101.25 L 167.20 101.52 C 166.41 101.74 165.95 102.57 166.18 103.36 C 166.40 104.15 167.23 104.61 168.02 104.39 Z M 168.93 104.12 L 169.91 103.86 C 170.70 103.65 171.17 102.83 170.96 102.04 C 170.75 101.24 169.93 100.77 169.13 100.98 L 168.16 101.25 C 167.36 101.46 166.89 102.28 167.11 103.07 C 167.32 103.87 168.14 104.34 168.93 104.12 Z M 169.88 103.86 L 170.88 103.62 C 171.67 103.42 172.16 102.61 171.96 101.82 C 171.77 101.02 170.96 100.54 170.16 100.73 L 169.16 100.98 C 168.37 101.18 167.88 101.98 168.08 102.78 C 168.28 103.58 169.08 104.06 169.88 103.86 Z M 170.84 103.62 L 171.84 103.40 C 172.64 103.23 173.14 102.44 172.97 101.64 C 172.79 100.84 172.00 100.33 171.20 100.51 L 170.20 100.73 C 169.40 100.90 168.90 101.69 169.07 102.49 C 169.25 103.29 170.04 103.80 170.84 103.62 Z M 171.79 103.41 L 172.77 103.23 C 173.57 103.08 174.10 102.31 173.96 101.51 C 173.81 100.71 173.04 100.18 172.24 100.32 L 171.26 100.50 C 170.45 100.65 169.92 101.42 170.07 102.22 C 170.21 103.02 170.98 103.56 171.79 103.41 Z M 172.70 103.24 L 173.69 103.11 C 174.50 103.00 175.07 102.26 174.96 101.45 C 174.86 100.65 174.12 100.08 173.31 100.18 L 172.31 100.31 C 171.50 100.42 170.94 101.16 171.04 101.97 C 171.15 102.78 171.89 103.34 172.70 103.24 Z M 173.60 103.11 L 174.67 103.04 C 175.48 102.99 176.09 102.29 176.04 101.48 C 175.98 100.67 175.28 100.05 174.47 100.11 L 173.40 100.18 C 172.59 100.23 171.98 100.93 172.04 101.74 C 172.09 102.55 172.79 103.16 173.60 103.11 Z M 174.58 103.04 L 175.59 103.03 C 176.39 103.03 177.04 102.37 177.04 101.56 C 177.04 100.75 176.38 100.10 175.57 100.11 L 174.56 100.11 C 173.76 100.12 173.10 100.77 173.11 101.58 C 173.11 102.39 173.77 103.04 174.58 103.04 Z M 175.51 103.02 L 176.48 103.07 C 177.28 103.10 177.96 102.48 178.00 101.68 C 178.04 100.87 177.41 100.19 176.61 100.16 L 175.64 100.12 C 174.84 100.08 174.16 100.70 174.13 101.50 C 174.09 102.31 174.71 102.99 175.51 103.02 Z M 176.44 103.06 L 177.38 103.13 C 178.18 103.19 178.87 102.59 178.93 101.79 C 178.99 101.00 178.40 100.30 177.60 100.24 L 176.66 100.17 C 175.86 100.11 175.16 100.70 175.10 101.50 C 175.04 102.30 175.64 102.99 176.44 103.06 Z M 177.36 103.12 L 177.85 103.16 C 178.64 103.23 179.34 102.65 179.41 101.85 C 179.48 101.06 178.89 100.36 178.10 100.29 L 177.61 100.25 C 176.82 100.18 176.12 100.76 176.05 101.56 C 175.98 102.35 176.57 103.05 177.36 103.12 Z"
      fill="black"
      fill-rule="nonzero" /><path d="M 137.61 98.44 L 138.06 99.30 C 138.43 100.04 139.34 100.33 140.07 99.95 C 140.81 99.57 141.10 98.67 140.72 97.93 L 140.28 97.07 C 139.90 96.34 139.00 96.05 138.26 96.42 C 137.53 96.80 137.24 97.70 137.61 98.44 Z M 138.01 99.30 L 138.44 100.17 C 138.82 100.93 139.74 101.25 140.50 100.87 C 141.26 100.50 141.57 99.58 141.20 98.82 L 140.77 97.94 C 140.39 97.18 139.47 96.87 138.71 97.24 C 137.95 97.61 137.64 98.53 138.01 99.30 Z M 138.39 100.14 L 138.79 101.05 C 139.15 101.84 140.08 102.19 140.88 101.83 C 141.67 101.47 142.02 100.54 141.66 99.75 L 141.25 98.85 C 140.90 98.05 139.96 97.70 139.17 98.06 C 138.38 98.42 138.03 99.35 138.39 100.14 Z M 138.73 100.99 L 139.11 101.94 C 139.43 102.77 140.37 103.17 141.20 102.84 C 142.02 102.52 142.43 101.58 142.10 100.75 L 141.72 99.81 C 141.40 98.98 140.46 98.57 139.64 98.90 C 138.81 99.23 138.40 100.16 138.73 100.99 Z M 139.04 101.86 L 139.37 102.85 C 139.66 103.71 140.59 104.18 141.45 103.90 C 142.31 103.61 142.78 102.68 142.49 101.82 L 142.16 100.83 C 141.88 99.97 140.95 99.50 140.09 99.79 C 139.23 100.07 138.76 101.00 139.04 101.86 Z M 139.33 102.77 L 139.59 103.75 C 139.83 104.64 140.74 105.16 141.62 104.93 C 142.51 104.69 143.03 103.78 142.80 102.90 L 142.53 101.91 C 142.30 101.02 141.39 100.50 140.50 100.74 C 139.62 100.97 139.09 101.88 139.33 102.77 Z M 139.57 103.68 L 139.80 104.70 C 139.99 105.59 140.88 106.16 141.78 105.96 C 142.67 105.76 143.24 104.88 143.04 103.98 L 142.82 102.97 C 142.62 102.07 141.73 101.51 140.84 101.70 C 139.94 101.90 139.38 102.79 139.57 103.68 Z M 139.78 104.64 L 139.97 105.65 C 140.13 106.55 141.00 107.15 141.90 106.98 C 142.81 106.82 143.40 105.95 143.24 105.05 L 143.05 104.04 C 142.89 103.14 142.02 102.54 141.12 102.70 C 140.22 102.87 139.62 103.73 139.78 104.64 Z M 139.96 105.60 L 140.11 106.57 C 140.24 107.48 141.09 108.10 142.00 107.97 C 142.91 107.83 143.54 106.98 143.40 106.07 L 143.25 105.10 C 143.11 104.19 142.26 103.56 141.35 103.70 C 140.44 103.84 139.82 104.69 139.96 105.60 Z M 140.10 106.53 L 140.22 107.47 C 140.33 108.38 141.17 109.03 142.08 108.91 C 142.99 108.80 143.64 107.96 143.52 107.05 L 143.41 106.11 C 143.29 105.20 142.46 104.55 141.54 104.67 C 140.63 104.78 139.98 105.62 140.10 106.53 Z M 140.21 107.42 L 140.32 108.52 C 140.41 109.44 141.23 110.11 142.15 110.02 C 143.06 109.92 143.73 109.11 143.64 108.19 L 143.53 107.09 C 143.44 106.17 142.62 105.51 141.71 105.60 C 140.79 105.69 140.12 106.51 140.21 107.42 Z M 140.31 108.47 L 140.38 109.46 C 140.44 110.38 141.24 111.07 142.16 111.01 C 143.08 110.95 143.78 110.15 143.71 109.23 L 143.65 108.24 C 143.58 107.32 142.79 106.63 141.87 106.69 C 140.95 106.75 140.25 107.55 140.31 108.47 Z M 140.38 109.41 L 140.42 110.35 C 140.45 111.27 141.23 111.99 142.15 111.95 C 143.08 111.91 143.79 111.14 143.76 110.21 L 143.72 109.28 C 143.68 108.36 142.90 107.64 141.98 107.68 C 141.06 107.71 140.34 108.49 140.38 109.41 Z M 140.41 110.32 L 140.43 111.25 C 140.45 112.17 141.22 112.91 142.14 112.89 C 143.06 112.87 143.80 112.10 143.78 111.18 L 143.76 110.24 C 143.74 109.32 142.97 108.59 142.05 108.61 C 141.13 108.63 140.39 109.39 140.41 110.32 Z M 140.43 111.23 L 140.44 112.20 C 140.45 113.12 141.21 113.86 142.14 113.85 C 143.06 113.84 143.80 113.08 143.79 112.16 L 143.78 111.20 C 143.77 110.27 143.01 109.53 142.09 109.54 C 141.16 109.55 140.42 110.31 140.43 111.23 Z M 140.44 112.19 L 140.45 113.19 C 140.45 114.11 141.21 114.85 142.13 114.85 C 143.05 114.85 143.80 114.09 143.80 113.17 L 143.79 112.17 C 143.79 111.25 143.03 110.50 142.11 110.51 C 141.18 110.51 140.44 111.26 140.44 112.19 Z M 140.45 113.18 L 140.45 114.21 C 140.45 115.13 141.20 115.88 142.13 115.88 C 143.05 115.88 143.80 115.13 143.80 114.20 L 143.80 113.17 C 143.79 112.25 143.04 111.50 142.12 111.50 C 141.19 111.50 140.45 112.25 140.45 113.18 Z M 140.45 114.20 L 140.45 115.20 C 140.45 116.13 141.20 116.88 142.12 116.88 C 143.05 116.88 143.80 116.13 143.80 115.20 L 143.80 114.21 C 143.80 113.28 143.05 112.53 142.12 112.53 C 141.20 112.53 140.45 113.28 140.45 114.20 Z M 140.45 115.19 L 140.44 116.15 C 140.43 117.08 141.18 117.83 142.10 117.84 C 143.03 117.85 143.79 117.10 143.79 116.18 L 143.80 115.22 C 143.81 114.29 143.06 113.54 142.13 113.53 C 141.21 113.52 140.45 114.27 140.45 115.19 Z M 140.44 116.12 L 140.41 117.11 C 140.39 118.03 141.12 118.80 142.04 118.83 C 142.97 118.85 143.74 118.12 143.77 117.20 L 143.79 116.21 C 143.82 115.28 143.09 114.51 142.16 114.49 C 141.24 114.46 140.46 115.19 140.44 116.12 Z M 140.42 117.06 L 140.36 118.08 C 140.30 119.00 141.01 119.80 141.93 119.85 C 142.86 119.90 143.65 119.20 143.70 118.27 L 143.76 117.25 C 143.82 116.33 143.11 115.53 142.19 115.48 C 141.26 115.43 140.47 116.13 140.42 117.06 Z M 140.36 118.01 L 140.26 119.04 C 140.17 119.97 140.84 120.79 141.76 120.88 C 142.69 120.97 143.51 120.29 143.60 119.37 L 143.70 118.34 C 143.79 117.42 143.12 116.60 142.19 116.51 C 141.27 116.42 140.45 117.09 140.36 118.01 Z M 140.27 118.98 L 140.14 119.89 C 140.01 120.81 140.65 121.66 141.57 121.79 C 142.49 121.91 143.33 121.27 143.46 120.36 L 143.59 119.44 C 143.72 118.52 143.08 117.67 142.16 117.55 C 141.24 117.42 140.40 118.06 140.27 118.98 Z M 140.15 119.84 L 139.98 120.79 C 139.83 121.70 140.44 122.57 141.35 122.73 C 142.27 122.88 143.13 122.27 143.29 121.36 L 143.45 120.41 C 143.61 119.50 143.00 118.63 142.09 118.47 C 141.17 118.31 140.30 118.93 140.15 119.84 Z M 139.99 120.75 L 139.80 121.73 C 139.62 122.64 140.21 123.52 141.12 123.70 C 142.03 123.88 142.91 123.29 143.09 122.38 L 143.28 121.40 C 143.46 120.49 142.87 119.61 141.96 119.43 C 141.05 119.25 140.17 119.84 139.99 120.75 Z M 139.80 121.70 L 139.58 122.72 C 139.38 123.62 139.96 124.52 140.86 124.71 C 141.77 124.91 142.66 124.34 142.86 123.43 L 143.08 122.41 C 143.28 121.51 142.71 120.61 141.80 120.42 C 140.89 120.22 140.00 120.79 139.80 121.70 Z M 139.59 122.69 L 139.34 123.75 C 139.13 124.65 139.69 125.55 140.60 125.76 C 141.50 125.97 142.40 125.41 142.61 124.51 L 142.86 123.45 C 143.07 122.55 142.50 121.65 141.60 121.44 C 140.70 121.23 139.80 121.79 139.59 122.69 Z M 139.34 123.73 L 139.12 124.66 C 138.90 125.56 139.45 126.47 140.36 126.69 C 141.26 126.91 142.16 126.35 142.38 125.45 L 142.61 124.53 C 142.83 123.62 142.27 122.72 141.37 122.50 C 140.47 122.28 139.56 122.83 139.34 123.73 Z M 139.12 124.64 L 138.88 125.59 C 138.66 126.49 139.20 127.40 140.10 127.63 C 141.00 127.86 141.91 127.31 142.14 126.42 L 142.38 125.47 C 142.61 124.57 142.06 123.65 141.16 123.43 C 140.26 123.20 139.35 123.74 139.12 124.64 Z M 138.89 125.57 L 138.63 126.54 C 138.39 127.43 138.93 128.35 139.82 128.59 C 140.72 128.83 141.64 128.30 141.88 127.40 L 142.13 126.44 C 142.37 125.54 141.84 124.62 140.94 124.38 C 140.05 124.14 139.13 124.68 138.89 125.57 Z M 138.64 126.51 L 138.36 127.49 C 138.11 128.38 138.63 129.31 139.53 129.56 C 140.42 129.81 141.35 129.29 141.60 128.40 L 141.87 127.42 C 142.12 126.53 141.60 125.60 140.71 125.35 C 139.82 125.10 138.89 125.62 138.64 126.51 Z M 138.37 127.46 L 138.08 128.45 C 137.81 129.33 138.32 130.27 139.21 130.54 C 140.09 130.80 141.03 130.30 141.30 129.41 L 141.59 128.43 C 141.86 127.54 141.35 126.60 140.46 126.34 C 139.57 126.07 138.64 126.57 138.37 127.46 Z M 138.09 128.41 L 137.77 129.40 C 137.49 130.28 137.98 131.22 138.86 131.51 C 139.75 131.79 140.69 131.30 140.97 130.42 L 141.29 129.44 C 141.57 128.55 141.08 127.61 140.20 127.33 C 139.31 127.04 138.37 127.53 138.09 128.41 Z M 137.78 129.36 L 137.46 130.30 C 137.16 131.17 137.63 132.13 138.51 132.43 C 139.39 132.73 140.34 132.26 140.64 131.39 L 140.96 130.45 C 141.26 129.57 140.80 128.62 139.92 128.32 C 139.04 128.02 138.08 128.48 137.78 129.36 Z M 137.48 130.26 L 137.14 131.19 C 136.82 132.06 137.27 133.03 138.14 133.34 C 139.01 133.66 139.98 133.21 140.29 132.34 L 140.63 131.42 C 140.95 130.54 140.50 129.58 139.63 129.26 C 138.76 128.94 137.79 129.39 137.48 130.26 Z M 137.15 131.16 L 136.79 132.09 C 136.46 132.95 136.89 133.92 137.76 134.26 C 138.62 134.59 139.59 134.16 139.93 133.29 L 140.28 132.37 C 140.62 131.50 140.19 130.53 139.32 130.20 C 138.45 129.87 137.48 130.30 137.15 131.16 Z M 136.80 132.06 L 136.43 132.99 C 136.08 133.85 136.50 134.82 137.36 135.17 C 138.22 135.52 139.19 135.11 139.54 134.25 L 139.92 133.32 C 140.26 132.46 139.85 131.48 138.99 131.13 C 138.13 130.79 137.15 131.20 136.80 132.06 Z M 136.44 132.96 L 136.05 133.89 C 135.69 134.75 136.09 135.73 136.94 136.09 C 137.80 136.45 138.78 136.05 139.14 135.20 L 139.53 134.27 C 139.89 133.41 139.49 132.43 138.64 132.07 C 137.78 131.71 136.80 132.11 136.44 132.96 Z M 136.05 133.87 L 135.65 134.81 C 135.27 135.66 135.66 136.65 136.51 137.02 C 137.36 137.39 138.35 137.00 138.72 136.15 L 139.13 135.22 C 139.50 134.37 139.12 133.38 138.27 133.00 C 137.42 132.63 136.43 133.02 136.05 133.87 Z M 135.65 134.79 L 135.25 135.69 C 134.86 136.54 135.24 137.53 136.09 137.92 C 136.93 138.30 137.93 137.92 138.31 137.07 L 138.72 136.17 C 139.10 135.32 138.72 134.33 137.88 133.95 C 137.03 133.57 136.03 133.94 135.65 134.79 Z M 135.25 135.68 L 134.85 136.56 C 134.46 137.40 134.82 138.40 135.66 138.79 C 136.51 139.18 137.51 138.81 137.89 137.97 L 138.30 137.09 C 138.69 136.25 138.32 135.25 137.48 134.86 C 136.64 134.47 135.64 134.84 135.25 135.68 Z M 134.85 136.54 L 134.43 137.43 C 134.03 138.27 134.39 139.27 135.23 139.67 C 136.07 140.07 137.07 139.71 137.47 138.87 L 137.89 137.98 C 138.29 137.15 137.93 136.14 137.09 135.75 C 136.25 135.35 135.25 135.71 134.85 136.54 Z M 134.44 137.42 L 134.00 138.31 C 133.60 139.15 133.95 140.15 134.78 140.56 C 135.61 140.96 136.62 140.62 137.02 139.78 L 137.46 138.89 C 137.87 138.05 137.52 137.05 136.68 136.64 C 135.85 136.24 134.84 136.58 134.44 137.42 Z M 134.01 138.30 L 133.56 139.20 C 133.15 140.03 133.49 141.04 134.32 141.45 C 135.15 141.87 136.16 141.53 136.57 140.70 L 137.02 139.79 C 137.43 138.96 137.09 137.96 136.26 137.54 C 135.43 137.13 134.42 137.47 134.01 138.30 Z M 133.57 139.19 L 133.11 140.10 C 132.69 140.92 133.01 141.93 133.84 142.35 C 134.67 142.78 135.68 142.45 136.10 141.62 L 136.56 140.71 C 136.98 139.88 136.65 138.87 135.83 138.45 C 135.00 138.03 133.99 138.36 133.57 139.19 Z M 133.11 140.08 L 132.64 141.00 C 132.21 141.82 132.53 142.83 133.35 143.26 C 134.17 143.69 135.19 143.37 135.62 142.55 L 136.09 141.63 C 136.52 140.81 136.20 139.80 135.38 139.37 C 134.56 138.94 133.54 139.26 133.11 140.08 Z M 132.64 140.98 L 132.17 141.87 C 131.74 142.69 132.05 143.70 132.87 144.14 C 133.69 144.57 134.70 144.26 135.14 143.45 L 135.61 142.56 C 136.04 141.74 135.73 140.73 134.92 140.29 C 134.10 139.85 133.08 140.16 132.64 140.98 Z M 132.18 141.85 L 131.71 142.72 C 131.27 143.53 131.57 144.55 132.38 145.00 C 133.20 145.44 134.22 145.14 134.66 144.32 L 135.13 143.46 C 135.57 142.64 135.27 141.62 134.46 141.18 C 133.64 140.74 132.62 141.04 132.18 141.85 Z M 131.72 142.71 L 131.24 143.57 C 130.79 144.38 131.08 145.41 131.89 145.86 C 132.70 146.31 133.72 146.01 134.17 145.20 L 134.65 144.34 C 135.10 143.53 134.81 142.50 134.00 142.05 C 133.19 141.60 132.17 141.90 131.72 142.71 Z M 131.24 143.56 L 130.75 144.43 C 130.29 145.24 130.58 146.26 131.38 146.72 C 132.19 147.17 133.21 146.89 133.67 146.09 L 134.16 145.22 C 134.62 144.41 134.34 143.39 133.53 142.93 C 132.73 142.47 131.70 142.75 131.24 143.56 Z M 130.76 144.42 L 130.25 145.28 C 129.79 146.09 130.06 147.11 130.86 147.58 C 131.66 148.04 132.69 147.77 133.16 146.97 L 133.66 146.10 C 134.13 145.30 133.85 144.27 133.05 143.81 C 132.25 143.34 131.22 143.61 130.76 144.42 Z M 130.26 145.27 L 129.75 146.14 C 129.28 146.94 129.54 147.96 130.33 148.44 C 131.13 148.91 132.16 148.65 132.63 147.85 L 133.15 146.98 C 133.62 146.19 133.36 145.16 132.56 144.68 C 131.76 144.21 130.74 144.47 130.26 145.27 Z M 129.76 146.12 L 129.23 146.99 C 128.75 147.78 129.00 148.81 129.80 149.29 C 130.59 149.77 131.62 149.52 132.10 148.73 L 132.62 147.86 C 133.10 147.07 132.85 146.04 132.06 145.56 C 131.27 145.08 130.24 145.33 129.76 146.12 Z M 129.24 146.98 L 128.71 147.83 C 128.22 148.62 128.46 149.65 129.25 150.14 C 130.03 150.63 131.07 150.39 131.56 149.60 L 132.09 148.74 C 132.58 147.96 132.34 146.92 131.55 146.44 C 130.76 145.95 129.73 146.19 129.24 146.98 Z M 128.72 147.82 L 128.18 148.66 C 127.68 149.45 127.92 150.48 128.70 150.98 C 129.48 151.47 130.51 151.24 131.01 150.46 L 131.55 149.62 C 132.04 148.84 131.81 147.80 131.03 147.30 C 130.25 146.81 129.21 147.04 128.72 147.82 Z M 128.19 148.65 L 127.65 149.49 C 127.14 150.27 127.36 151.31 128.14 151.81 C 128.92 152.31 129.95 152.09 130.46 151.31 L 131.00 150.47 C 131.50 149.70 131.28 148.66 130.51 148.16 C 129.73 147.65 128.69 147.88 128.19 148.65 Z M 127.65 149.48 L 127.10 150.32 C 126.59 151.09 126.81 152.13 127.58 152.64 C 128.35 153.15 129.39 152.93 129.90 152.16 L 130.45 151.32 C 130.96 150.55 130.74 149.51 129.97 149.01 C 129.20 148.50 128.16 148.71 127.65 149.48 Z M 127.11 150.31 L 126.55 151.14 C 126.04 151.91 126.25 152.95 127.01 153.46 C 127.78 153.98 128.82 153.77 129.34 153.00 L 129.89 152.17 C 130.41 151.40 130.20 150.36 129.43 149.85 C 128.66 149.33 127.62 149.54 127.11 150.31 Z M 126.56 151.13 L 126.00 151.96 C 125.48 152.73 125.68 153.77 126.45 154.29 C 127.21 154.80 128.25 154.60 128.77 153.84 L 129.33 153.01 C 129.85 152.24 129.65 151.20 128.88 150.69 C 128.12 150.17 127.08 150.37 126.56 151.13 Z M 126.00 151.96 L 125.44 152.78 C 124.92 153.55 125.12 154.59 125.88 155.11 C 126.64 155.63 127.68 155.43 128.20 154.67 L 128.77 153.84 C 129.29 153.08 129.09 152.04 128.33 151.52 C 127.56 151.00 126.52 151.20 126.00 151.96 Z M 125.44 152.78 L 124.88 153.60 C 124.36 154.36 124.55 155.40 125.31 155.93 C 126.07 156.45 127.11 156.25 127.63 155.49 L 128.20 154.67 C 128.72 153.91 128.53 152.87 127.77 152.35 C 127.01 151.83 125.97 152.02 125.44 152.78 Z M 124.88 153.60 L 124.32 154.42 C 123.79 155.18 123.99 156.22 124.74 156.74 C 125.50 157.27 126.54 157.08 127.07 156.32 L 127.63 155.50 C 128.15 154.74 127.96 153.70 127.20 153.17 C 126.44 152.65 125.40 152.84 124.88 153.60 Z M 124.32 154.42 L 123.75 155.24 C 123.23 156.00 123.42 157.04 124.18 157.56 C 124.94 158.08 125.97 157.89 126.50 157.14 L 127.06 156.32 C 127.59 155.56 127.40 154.52 126.64 154.00 C 125.88 153.47 124.84 153.66 124.32 154.42 Z M 123.76 155.24 L 123.19 156.06 C 122.66 156.81 122.85 157.85 123.61 158.38 C 124.37 158.90 125.41 158.71 125.93 157.95 L 126.50 157.14 C 127.02 156.38 126.83 155.34 126.07 154.82 C 125.32 154.29 124.28 154.48 123.76 155.24 Z M 123.19 156.06 L 122.62 156.87 C 122.10 157.63 122.29 158.67 123.04 159.19 C 123.80 159.72 124.83 159.53 125.36 158.77 L 125.93 157.96 C 126.45 157.20 126.26 156.16 125.51 155.64 C 124.75 155.11 123.72 155.30 123.19 156.06 Z M 122.63 156.87 L 122.05 157.69 C 121.53 158.45 121.71 159.48 122.47 160.01 C 123.22 160.53 124.26 160.35 124.79 159.59 L 125.36 158.78 C 125.88 158.02 125.70 156.98 124.94 156.46 C 124.19 155.93 123.15 156.12 122.63 156.87 Z M 122.06 157.69 L 121.48 158.51 C 120.96 159.27 121.14 160.30 121.89 160.83 C 122.65 161.35 123.68 161.17 124.21 160.42 L 124.78 159.60 C 125.31 158.84 125.12 157.81 124.37 157.28 C 123.62 156.75 122.58 156.94 122.06 157.69 Z M 121.49 158.51 L 120.91 159.34 C 120.38 160.09 120.56 161.13 121.32 161.65 C 122.07 162.18 123.10 161.99 123.63 161.24 L 124.21 160.42 C 124.73 159.67 124.55 158.63 123.80 158.10 C 123.05 157.58 122.01 157.76 121.49 158.51 Z M 120.91 159.34 L 120.33 160.17 C 119.80 160.92 119.98 161.95 120.73 162.48 C 121.48 163.01 122.52 162.83 123.04 162.07 L 123.63 161.24 C 124.15 160.49 123.97 159.46 123.22 158.93 C 122.47 158.40 121.44 158.59 120.91 159.34 Z M 120.33 160.17 L 119.74 161.01 C 119.21 161.76 119.39 162.79 120.14 163.32 C 120.89 163.85 121.92 163.67 122.45 162.92 L 123.04 162.08 C 123.57 161.33 123.39 160.29 122.64 159.77 C 121.89 159.24 120.86 159.42 120.33 160.17 Z M 119.74 161.01 L 119.15 161.85 C 118.62 162.59 118.80 163.63 119.54 164.15 C 120.29 164.68 121.33 164.51 121.85 163.76 L 122.45 162.92 C 122.97 162.17 122.80 161.14 122.05 160.61 C 121.30 160.08 120.27 160.26 119.74 161.01 Z M 119.15 161.84 L 118.56 162.68 C 118.03 163.42 118.21 164.46 118.95 164.98 C 119.69 165.51 120.73 165.34 121.26 164.59 L 121.85 163.76 C 122.38 163.02 122.20 161.98 121.46 161.45 C 120.71 160.92 119.68 161.10 119.15 161.84 Z M 118.56 162.67 L 117.98 163.50 C 117.44 164.24 117.62 165.27 118.36 165.80 C 119.10 166.33 120.13 166.16 120.66 165.42 L 121.25 164.60 C 121.78 163.86 121.61 162.82 120.87 162.29 C 120.13 161.76 119.10 161.93 118.56 162.67 Z M 117.98 163.49 L 117.40 164.30 C 116.87 165.04 117.03 166.07 117.77 166.60 C 118.51 167.14 119.54 166.97 120.07 166.23 L 120.66 165.42 C 121.19 164.69 121.02 163.65 120.29 163.12 C 119.55 162.59 118.52 162.75 117.98 163.49 Z M 117.41 164.29 L 116.83 165.08 C 116.30 165.81 116.46 166.85 117.19 167.38 C 117.93 167.92 118.96 167.76 119.49 167.02 L 120.07 166.24 C 120.60 165.50 120.44 164.47 119.71 163.93 C 118.97 163.40 117.94 163.56 117.41 164.29 Z M 116.84 165.07 L 116.28 165.83 C 115.74 166.56 115.89 167.59 116.62 168.13 C 117.35 168.68 118.38 168.52 118.92 167.79 L 119.49 167.03 C 120.03 166.30 119.87 165.27 119.14 164.73 C 118.41 164.19 117.38 164.34 116.84 165.07 Z M 116.29 165.82 L 115.64 166.68 C 115.10 167.41 115.24 168.44 115.97 168.98 C 116.69 169.53 117.72 169.38 118.27 168.66 L 118.91 167.80 C 119.46 167.07 119.31 166.04 118.59 165.50 C 117.86 164.95 116.83 165.10 116.29 165.82 Z M 115.65 166.67 L 115.01 167.51 C 114.46 168.23 114.60 169.26 115.32 169.81 C 116.03 170.36 117.06 170.23 117.62 169.51 L 118.26 168.67 C 118.81 167.95 118.67 166.92 117.95 166.37 C 117.23 165.82 116.20 165.95 115.65 166.67 Z M 115.02 167.51 L 114.39 168.31 C 113.84 169.03 113.97 170.05 114.68 170.61 C 115.40 171.16 116.43 171.03 116.98 170.32 L 117.61 169.51 C 118.16 168.80 118.03 167.77 117.32 167.22 C 116.60 166.66 115.57 166.79 115.02 167.51 Z M 114.40 168.31 L 113.80 169.08 C 113.24 169.79 113.36 170.82 114.07 171.37 C 114.78 171.93 115.81 171.81 116.37 171.10 L 116.97 170.32 C 117.53 169.61 117.41 168.59 116.70 168.03 C 115.99 167.47 114.96 167.60 114.40 168.31 Z M 113.80 169.08 L 113.21 169.83 C 112.65 170.53 112.77 171.56 113.48 172.12 C 114.19 172.67 115.21 172.55 115.77 171.85 L 116.36 171.10 C 116.92 170.39 116.80 169.37 116.09 168.81 C 115.38 168.25 114.36 168.37 113.80 169.08 Z M 113.21 169.83 L 112.64 170.55 C 112.08 171.26 112.20 172.28 112.91 172.84 C 113.61 173.40 114.64 173.28 115.20 172.57 L 115.77 171.85 C 116.33 171.14 116.21 170.12 115.50 169.56 C 114.80 169.00 113.77 169.12 113.21 169.83 Z M 112.64 170.56 L 112.01 171.37 C 111.45 172.07 111.57 173.09 112.28 173.65 C 112.98 174.20 114.00 174.08 114.56 173.37 L 115.19 172.57 C 115.75 171.86 115.63 170.84 114.92 170.29 C 114.22 169.73 113.20 169.85 112.64 170.56 Z M 112.01 171.37 L 111.36 172.19 C 110.81 172.89 110.93 173.91 111.64 174.47 C 112.34 175.02 113.36 174.90 113.91 174.19 L 114.56 173.37 C 115.11 172.67 114.99 171.65 114.28 171.10 C 113.58 170.54 112.56 170.67 112.01 171.37 Z M 111.37 172.19 L 110.74 172.99 C 110.19 173.69 110.31 174.71 111.01 175.26 C 111.72 175.81 112.73 175.69 113.28 174.99 L 113.91 174.19 C 114.46 173.49 114.34 172.47 113.64 171.92 C 112.94 171.37 111.92 171.49 111.37 172.19 Z M 110.75 172.99 L 110.14 173.75 C 109.59 174.45 109.71 175.47 110.40 176.02 C 111.10 176.57 112.11 176.45 112.67 175.76 L 113.28 174.99 C 113.83 174.29 113.71 173.28 113.01 172.72 C 112.32 172.17 111.30 172.29 110.75 172.99 Z M 110.15 173.75 L 109.56 174.49 C 109.00 175.18 109.11 176.19 109.81 176.74 C 110.50 177.30 111.51 177.19 112.06 176.50 L 112.66 175.76 C 113.21 175.07 113.10 174.06 112.41 173.50 C 111.72 172.95 110.71 173.06 110.15 173.75 Z M 109.57 174.48 L 108.96 175.22 C 108.40 175.90 108.50 176.91 109.19 177.47 C 109.87 178.04 110.88 177.94 111.44 177.25 L 112.05 176.51 C 112.61 175.82 112.51 174.82 111.83 174.25 C 111.14 173.69 110.13 173.79 109.57 174.48 Z M 108.98 175.21 L 108.35 175.95 C 107.79 176.62 107.87 177.63 108.55 178.20 C 109.22 178.77 110.23 178.68 110.79 178.01 L 111.42 177.26 C 111.99 176.59 111.90 175.58 111.23 175.02 C 110.56 174.45 109.55 174.53 108.98 175.21 Z M 108.37 175.94 L 107.74 176.67 C 107.16 177.33 107.23 178.34 107.89 178.91 C 108.56 179.49 109.56 179.42 110.14 178.76 L 110.78 178.02 C 111.35 177.36 111.28 176.35 110.62 175.78 C 109.95 175.20 108.95 175.27 108.37 175.94 Z M 107.76 176.66 L 107.09 177.40 C 106.51 178.05 106.56 179.06 107.22 179.64 C 107.87 180.22 108.87 180.17 109.45 179.51 L 110.12 178.77 C 110.70 178.12 110.65 177.11 109.99 176.53 C 109.34 175.95 108.34 176.00 107.76 176.66 Z M 107.11 177.39 L 106.40 178.17 C 105.81 178.81 105.85 179.81 106.49 180.40 C 107.14 180.99 108.13 180.94 108.72 180.30 L 109.44 179.52 C 110.02 178.88 109.98 177.88 109.34 177.29 C 108.70 176.70 107.70 176.75 107.11 177.39 Z M 106.41 178.16 L 105.74 178.87 C 105.15 179.51 105.18 180.50 105.81 181.10 C 106.45 181.69 107.44 181.66 108.04 181.03 L 108.71 180.31 C 109.30 179.68 109.27 178.68 108.64 178.09 C 108.00 177.49 107.01 177.52 106.41 178.16 Z M 105.76 178.86 L 105.06 179.58 C 104.46 180.21 104.48 181.20 105.10 181.80 C 105.72 182.40 106.71 182.39 107.31 181.76 L 108.01 181.04 C 108.62 180.42 108.60 179.43 107.98 178.82 C 107.36 178.22 106.36 178.24 105.76 178.86 Z M 105.09 179.56 L 104.36 180.28 C 103.75 180.89 103.74 181.88 104.35 182.49 C 104.95 183.11 105.94 183.11 106.56 182.51 L 107.29 181.79 C 107.90 181.18 107.90 180.19 107.30 179.58 C 106.69 178.96 105.70 178.96 105.09 179.56 Z M 104.40 180.26 L 103.65 180.95 C 103.02 181.54 102.98 182.52 103.57 183.15 C 104.15 183.78 105.14 183.82 105.77 183.23 L 106.52 182.54 C 107.15 181.95 107.18 180.97 106.60 180.34 C 106.01 179.71 105.03 179.67 104.40 180.26 Z M 103.70 180.91 L 102.95 181.56 C 102.30 182.11 102.22 183.09 102.78 183.74 C 103.33 184.40 104.31 184.47 104.96 183.92 L 105.72 183.27 C 106.37 182.71 106.45 181.73 105.89 181.08 C 105.33 180.43 104.35 180.35 103.70 180.91 Z M 103.03 181.50 L 102.11 182.19 C 101.43 182.70 101.29 183.67 101.80 184.35 C 102.31 185.03 103.28 185.17 103.96 184.66 L 104.88 183.97 C 105.56 183.46 105.70 182.49 105.19 181.81 C 104.68 181.13 103.71 180.99 103.03 181.50 Z M 102.26 182.11 L 101.20 182.73 C 100.47 183.16 100.23 184.11 100.66 184.83 C 101.09 185.56 102.03 185.80 102.76 185.37 L 103.82 184.74 C 104.55 184.31 104.79 183.37 104.36 182.64 C 103.92 181.92 102.98 181.67 102.26 182.11 Z M 101.50 182.61 L 100.60 182.91 C 99.81 183.17 99.37 184.03 99.64 184.83 C 99.90 185.63 100.77 186.06 101.56 185.79 L 102.46 185.49 C 103.25 185.23 103.68 184.37 103.42 183.57 C 103.15 182.78 102.29 182.35 101.50 182.61 Z M 101.37 182.87 L 100.74 182.75 C 99.92 182.59 99.13 183.12 98.97 183.93 C 98.81 184.75 99.34 185.54 100.15 185.70 L 100.79 185.83 C 101.60 185.99 102.40 185.46 102.56 184.64 C 102.72 183.83 102.19 183.04 101.37 182.87 Z M 101.79 183.57 L 101.50 182.98 C 101.14 182.24 100.25 181.94 99.51 182.30 C 98.77 182.66 98.46 183.55 98.82 184.29 L 99.11 184.88 C 99.47 185.62 100.36 185.93 101.10 185.57 C 101.84 185.21 102.15 184.31 101.79 183.57 Z M 101.64 183.63 L 101.63 182.70 C 101.63 181.89 100.97 181.23 100.15 181.23 C 99.34 181.23 98.68 181.90 98.68 182.71 L 98.69 183.64 C 98.69 184.46 99.35 185.12 100.17 185.11 C 100.98 185.11 101.64 184.45 101.64 183.63 Z M 101.59 182.96 L 101.79 181.85 C 101.93 181.06 101.40 180.30 100.60 180.16 C 99.81 180.02 99.05 180.55 98.92 181.35 L 98.72 182.45 C 98.58 183.25 99.11 184.00 99.91 184.14 C 100.70 184.28 101.45 183.75 101.59 182.96 Z M 101.74 181.99 L 102.05 180.87 C 102.27 180.11 101.82 179.31 101.05 179.10 C 100.29 178.88 99.49 179.33 99.28 180.10 L 98.96 181.21 C 98.75 181.97 99.20 182.77 99.96 182.98 C 100.73 183.20 101.52 182.75 101.74 181.99 Z M 102.01 180.98 L 102.39 179.96 C 102.66 179.21 102.29 178.39 101.55 178.12 C 100.80 177.84 99.98 178.22 99.71 178.96 L 99.32 179.99 C 99.05 180.73 99.42 181.55 100.16 181.83 C 100.91 182.10 101.73 181.73 102.01 180.98 Z M 102.34 180.06 L 102.76 179.16 C 103.10 178.45 102.79 177.60 102.07 177.26 C 101.36 176.93 100.51 177.24 100.17 177.95 L 99.75 178.85 C 99.42 179.57 99.73 180.42 100.44 180.75 C 101.16 181.09 102.01 180.78 102.34 180.06 Z M 102.72 179.25 L 103.17 178.42 C 103.55 177.73 103.30 176.86 102.61 176.48 C 101.92 176.10 101.05 176.35 100.67 177.04 L 100.22 177.87 C 99.84 178.56 100.09 179.43 100.78 179.81 C 101.47 180.19 102.34 179.94 102.72 179.25 Z M 103.15 178.46 L 103.63 177.64 C 104.04 176.97 103.82 176.09 103.14 175.69 C 102.46 175.28 101.59 175.51 101.18 176.18 L 100.70 177.00 C 100.29 177.68 100.52 178.55 101.19 178.95 C 101.87 179.36 102.74 179.14 103.15 178.46 Z M 103.63 177.66 L 104.14 176.82 C 104.55 176.15 104.33 175.27 103.66 174.86 C 102.99 174.45 102.11 174.66 101.70 175.33 L 101.19 176.17 C 100.78 176.84 100.99 177.72 101.67 178.13 C 102.34 178.54 103.22 178.33 103.63 177.66 Z M 104.13 176.83 L 104.66 175.97 C 105.08 175.30 104.87 174.42 104.20 174.01 C 103.53 173.59 102.65 173.80 102.24 174.47 L 101.71 175.33 C 101.29 176.00 101.50 176.87 102.17 177.29 C 102.84 177.70 103.72 177.50 104.13 176.83 Z M 104.66 175.97 L 105.20 175.11 C 105.62 174.44 105.41 173.56 104.74 173.15 C 104.08 172.73 103.20 172.93 102.78 173.60 L 102.24 174.47 C 101.82 175.13 102.03 176.01 102.70 176.43 C 103.36 176.85 104.24 176.64 104.66 175.97 Z M 105.20 175.11 L 105.36 174.84 C 105.78 174.18 105.58 173.30 104.91 172.88 C 104.24 172.46 103.36 172.67 102.95 173.33 L 102.78 173.60 C 102.36 174.27 102.57 175.15 103.23 175.56 C 103.90 175.98 104.78 175.78 105.20 175.11 Z"
      fill="black"
      fill-rule="nonzero" /><path d="M 145.78 133.29 L 145.83 134.28 C 145.87 135.11 146.58 135.75 147.41 135.71 C 148.24 135.66 148.88 134.95 148.84 134.12 L 148.79 133.13 C 148.74 132.30 148.03 131.66 147.20 131.71 C 146.37 131.75 145.74 132.46 145.78 133.29 Z M 145.79 134.28 L 145.84 135.27 C 145.88 136.12 146.61 136.78 147.46 136.74 C 148.31 136.69 148.97 135.97 148.93 135.12 L 148.88 134.12 C 148.83 133.27 148.11 132.62 147.26 132.66 C 146.41 132.70 145.75 133.43 145.79 134.28 Z M 145.80 135.27 L 145.85 136.26 C 145.89 137.14 146.63 137.81 147.50 137.77 C 148.38 137.73 149.05 136.99 149.01 136.12 L 148.96 135.12 C 148.92 134.25 148.18 133.57 147.31 133.61 C 146.44 133.65 145.76 134.39 145.80 135.27 Z M 145.81 136.26 L 145.85 137.26 C 145.88 138.15 146.64 138.85 147.53 138.81 C 148.43 138.78 149.12 138.03 149.09 137.13 L 149.05 136.13 C 149.01 135.23 148.26 134.54 147.37 134.57 C 146.47 134.61 145.77 135.36 145.81 136.26 Z M 145.81 137.25 L 145.84 138.26 C 145.87 139.17 146.64 139.89 147.55 139.86 C 148.47 139.84 149.19 139.07 149.16 138.15 L 149.13 137.14 C 149.10 136.23 148.33 135.51 147.42 135.54 C 146.50 135.56 145.78 136.33 145.81 137.25 Z M 145.82 138.24 L 145.84 139.29 C 145.86 140.22 146.63 140.96 147.56 140.94 C 148.49 140.92 149.22 140.15 149.21 139.22 L 149.18 138.17 C 149.16 137.24 148.39 136.50 147.47 136.52 C 146.54 136.54 145.80 137.31 145.82 138.24 Z M 145.83 139.27 L 145.84 140.32 C 145.85 141.25 146.62 142.00 147.55 141.99 C 148.48 141.98 149.23 141.22 149.22 140.28 L 149.21 139.24 C 149.20 138.30 148.44 137.56 147.51 137.56 C 146.57 137.57 145.82 138.34 145.83 139.27 Z M 145.84 140.29 L 145.83 141.31 C 145.83 142.25 146.59 143.01 147.53 143.01 C 148.46 143.02 149.22 142.26 149.23 141.32 L 149.23 140.30 C 149.23 139.37 148.47 138.61 147.54 138.60 C 146.60 138.60 145.84 139.36 145.84 140.29 Z M 145.83 141.29 L 145.81 142.26 C 145.80 143.20 146.54 143.98 147.48 143.99 C 148.42 144.01 149.20 143.26 149.21 142.32 L 149.23 141.35 C 149.25 140.41 148.50 139.63 147.56 139.62 C 146.62 139.60 145.85 140.35 145.83 141.29 Z M 145.81 142.23 L 145.77 143.15 C 145.74 144.09 146.48 144.88 147.42 144.91 C 148.36 144.95 149.15 144.21 149.19 143.27 L 149.22 142.35 C 149.25 141.41 148.52 140.62 147.57 140.59 C 146.63 140.55 145.84 141.29 145.81 142.23 Z M 145.77 143.10 L 145.70 144.21 C 145.65 145.16 146.37 145.97 147.31 146.02 C 148.25 146.08 149.06 145.36 149.12 144.42 L 149.19 143.31 C 149.25 142.37 148.53 141.56 147.58 141.50 C 146.64 141.44 145.83 142.16 145.77 143.10 Z M 145.70 144.17 L 145.62 145.17 C 145.54 146.11 146.23 146.94 147.18 147.03 C 148.12 147.11 148.95 146.41 149.04 145.46 L 149.12 144.46 C 149.20 143.52 148.50 142.69 147.56 142.61 C 146.62 142.52 145.78 143.22 145.70 144.17 Z M 145.61 145.14 L 145.52 146.08 C 145.42 147.02 146.11 147.87 147.06 147.96 C 148.00 148.06 148.85 147.37 148.94 146.42 L 149.04 145.49 C 149.13 144.54 148.44 143.70 147.50 143.60 C 146.55 143.51 145.71 144.20 145.61 145.14 Z M 145.52 146.08 L 145.42 147.01 C 145.33 147.96 146.02 148.81 146.96 148.90 C 147.91 149.00 148.76 148.31 148.85 147.36 L 148.95 146.42 C 149.04 145.48 148.35 144.63 147.41 144.53 C 146.46 144.44 145.61 145.13 145.52 146.08 Z M 145.42 147.02 L 145.32 148.01 C 145.24 148.96 145.93 149.80 146.88 149.89 C 147.83 149.98 148.68 149.28 148.77 148.33 L 148.86 147.35 C 148.95 146.40 148.25 145.55 147.30 145.46 C 146.35 145.37 145.51 146.07 145.42 147.02 Z M 145.32 148.01 L 145.23 149.00 C 145.13 149.95 145.83 150.80 146.79 150.89 C 147.74 150.98 148.58 150.28 148.68 149.33 L 148.77 148.33 C 148.86 147.38 148.16 146.54 147.21 146.45 C 146.26 146.35 145.41 147.05 145.32 148.01 Z M 145.22 148.98 L 145.12 149.99 C 145.01 150.94 145.71 151.80 146.66 151.90 C 147.61 152.00 148.47 151.31 148.57 150.36 L 148.68 149.35 C 148.78 148.39 148.09 147.54 147.13 147.44 C 146.18 147.34 145.33 148.03 145.22 148.98 Z M 145.12 149.96 L 145.00 150.93 C 144.88 151.88 145.56 152.75 146.51 152.87 C 147.47 152.98 148.33 152.31 148.45 151.35 L 148.57 150.39 C 148.69 149.43 148.01 148.56 147.06 148.45 C 146.10 148.33 145.23 149.01 145.12 149.96 Z M 145.00 150.91 L 144.86 151.90 C 144.74 152.85 145.41 153.73 146.36 153.85 C 147.32 153.98 148.20 153.31 148.32 152.36 L 148.45 151.37 C 148.58 150.42 147.91 149.54 146.95 149.41 C 146.00 149.29 145.12 149.96 145.00 150.91 Z M 144.86 151.89 L 144.73 152.90 C 144.60 153.86 145.27 154.74 146.23 154.86 C 147.18 154.99 148.06 154.32 148.19 153.36 L 148.32 152.36 C 148.45 151.40 147.78 150.52 146.82 150.39 C 145.87 150.27 144.99 150.94 144.86 151.89 Z M 144.72 152.91 L 144.60 153.91 C 144.48 154.87 145.15 155.75 146.11 155.87 C 147.07 155.99 147.95 155.31 148.07 154.35 L 148.20 153.35 C 148.32 152.39 147.64 151.52 146.68 151.39 C 145.72 151.27 144.84 151.95 144.72 152.91 Z M 144.59 153.93 L 144.48 154.91 C 144.36 155.87 145.05 156.74 146.01 156.85 C 146.98 156.97 147.85 156.28 147.96 155.32 L 148.07 154.34 C 148.19 153.37 147.50 152.50 146.54 152.39 C 145.57 152.28 144.70 152.97 144.59 153.93 Z M 144.47 154.92 L 144.36 155.91 C 144.25 156.87 144.94 157.74 145.91 157.85 C 146.87 157.96 147.74 157.27 147.85 156.30 L 147.96 155.31 C 148.07 154.35 147.38 153.48 146.41 153.37 C 145.45 153.26 144.58 153.95 144.47 154.92 Z M 144.36 155.91 L 144.24 156.91 C 144.13 157.88 144.83 158.75 145.79 158.86 C 146.76 158.97 147.63 158.28 147.74 157.31 L 147.85 156.31 C 147.96 155.34 147.27 154.47 146.30 154.36 C 145.34 154.25 144.47 154.94 144.36 155.91 Z M 144.24 156.90 L 144.12 157.90 C 144.01 158.87 144.70 159.74 145.67 159.86 C 146.63 159.97 147.51 159.28 147.62 158.32 L 147.74 157.32 C 147.86 156.35 147.17 155.48 146.20 155.36 C 145.23 155.25 144.36 155.94 144.24 156.90 Z M 144.12 157.89 L 144.00 158.87 C 143.88 159.84 144.56 160.72 145.53 160.84 C 146.50 160.96 147.38 160.28 147.50 159.31 L 147.63 158.33 C 147.75 157.36 147.06 156.48 146.09 156.36 C 145.12 156.23 144.24 156.92 144.12 157.89 Z M 144.00 158.86 L 143.87 159.86 C 143.74 160.83 144.43 161.71 145.40 161.84 C 146.36 161.96 147.25 161.28 147.38 160.31 L 147.50 159.32 C 147.63 158.35 146.95 157.46 145.98 157.34 C 145.01 157.21 144.12 157.90 144.00 158.86 Z M 143.87 159.85 L 143.73 160.85 C 143.61 161.82 144.29 162.71 145.26 162.84 C 146.23 162.97 147.12 162.28 147.25 161.31 L 147.38 160.31 C 147.51 159.34 146.82 158.45 145.85 158.33 C 144.88 158.20 143.99 158.88 143.87 159.85 Z M 143.73 160.85 L 143.60 161.84 C 143.48 162.81 144.16 163.70 145.13 163.83 C 146.10 163.96 146.99 163.27 147.12 162.30 L 147.25 161.31 C 147.38 160.34 146.69 159.45 145.72 159.33 C 144.75 159.20 143.86 159.88 143.73 160.85 Z M 143.60 161.84 L 143.47 162.82 C 143.35 163.80 144.03 164.69 145.00 164.81 C 145.98 164.94 146.87 164.25 146.99 163.28 L 147.12 162.30 C 147.25 161.33 146.56 160.44 145.59 160.31 C 144.62 160.18 143.73 160.87 143.60 161.84 Z M 143.47 162.83 L 143.34 163.82 C 143.22 164.79 143.91 165.68 144.88 165.81 C 145.85 165.93 146.74 165.24 146.87 164.27 L 147.00 163.28 C 147.12 162.30 146.43 161.41 145.46 161.29 C 144.49 161.16 143.60 161.85 143.47 162.83 Z M 143.34 163.82 L 143.21 164.82 C 143.09 165.80 143.78 166.69 144.75 166.81 C 145.73 166.93 146.62 166.24 146.75 165.27 L 146.87 164.27 C 147.00 163.29 146.31 162.40 145.33 162.28 C 144.36 162.15 143.46 162.84 143.34 163.82 Z M 143.21 164.82 L 143.08 165.83 C 142.96 166.81 143.65 167.70 144.63 167.82 C 145.61 167.95 146.50 167.25 146.62 166.28 L 146.75 165.27 C 146.87 164.29 146.18 163.40 145.20 163.28 C 144.22 163.15 143.33 163.85 143.21 164.82 Z M 143.08 165.84 L 142.96 166.85 C 142.84 167.83 143.53 168.72 144.51 168.84 C 145.49 168.96 146.38 168.26 146.50 167.28 L 146.62 166.27 C 146.74 165.30 146.05 164.41 145.07 164.29 C 144.09 164.16 143.20 164.86 143.08 165.84 Z M 142.96 166.85 L 142.83 167.86 C 142.71 168.83 143.41 169.73 144.39 169.84 C 145.37 169.96 146.26 169.27 146.38 168.29 L 146.50 167.28 C 146.62 166.30 145.92 165.41 144.94 165.29 C 143.96 165.17 143.07 165.87 142.96 166.85 Z M 142.83 167.86 L 142.71 168.85 C 142.60 169.83 143.30 170.72 144.28 170.83 C 145.26 170.95 146.15 170.25 146.26 169.27 L 146.38 168.28 C 146.50 167.30 145.80 166.41 144.82 166.30 C 143.84 166.18 142.95 166.88 142.83 167.86 Z M 142.71 168.85 L 142.60 169.81 C 142.48 170.79 143.19 171.68 144.17 171.79 C 145.15 171.91 146.04 171.21 146.15 170.22 L 146.26 169.27 C 146.38 168.29 145.68 167.40 144.70 167.28 C 143.72 167.17 142.83 167.87 142.71 168.85 Z M 142.60 169.81 L 142.49 170.76 C 142.38 171.74 143.08 172.63 144.07 172.74 C 145.05 172.85 145.94 172.14 146.05 171.16 L 146.15 170.22 C 146.27 169.24 145.56 168.35 144.58 168.24 C 143.59 168.13 142.71 168.83 142.60 169.81 Z M 142.49 170.77 L 142.39 171.72 C 142.28 172.71 143.00 173.59 143.98 173.69 C 144.97 173.79 145.85 173.08 145.95 172.10 L 146.05 171.15 C 146.15 170.16 145.44 169.28 144.45 169.18 C 143.47 169.08 142.59 169.79 142.49 170.77 Z M 142.38 171.75 L 142.29 172.75 C 142.20 173.73 142.93 174.61 143.91 174.70 C 144.90 174.79 145.77 174.06 145.86 173.07 L 145.95 172.07 C 146.04 171.09 145.32 170.22 144.33 170.13 C 143.35 170.04 142.47 170.76 142.38 171.75 Z M 142.29 172.78 L 142.21 173.86 C 142.13 174.85 142.87 175.71 143.86 175.79 C 144.84 175.86 145.71 175.12 145.78 174.14 L 145.86 173.05 C 145.94 172.06 145.20 171.20 144.21 171.12 C 143.23 171.05 142.37 171.79 142.29 172.78 Z M 142.20 173.88 L 142.14 174.83 C 142.08 175.81 142.83 176.67 143.82 176.73 C 144.81 176.79 145.66 176.04 145.72 175.05 L 145.78 174.11 C 145.85 173.12 145.10 172.27 144.11 172.21 C 143.12 172.15 142.27 172.90 142.20 173.88 Z M 142.14 174.84 L 142.09 175.84 C 142.04 176.83 142.79 177.67 143.78 177.73 C 144.77 177.78 145.62 177.02 145.67 176.03 L 145.73 175.04 C 145.78 174.05 145.02 173.20 144.03 173.15 C 143.04 173.09 142.20 173.85 142.14 174.84 Z M 142.09 175.85 L 142.04 176.88 C 141.99 177.87 142.76 178.71 143.75 178.76 C 144.74 178.80 145.58 178.04 145.63 177.05 L 145.67 176.02 C 145.72 175.03 144.95 174.19 143.96 174.14 C 142.97 174.10 142.13 174.86 142.09 175.85 Z M 142.04 176.89 L 142.00 177.92 C 141.96 178.92 142.73 179.75 143.72 179.79 C 144.71 179.83 145.55 179.05 145.59 178.06 L 145.63 177.03 C 145.67 176.04 144.89 175.21 143.90 175.17 C 142.91 175.13 142.08 175.90 142.04 176.89 Z M 142.00 177.94 L 141.97 178.95 C 141.93 179.94 142.71 180.77 143.70 180.80 C 144.70 180.83 145.52 180.05 145.56 179.06 L 145.59 178.05 C 145.62 177.06 144.84 176.23 143.85 176.20 C 142.86 176.17 142.03 176.95 142.00 177.94 Z M 141.97 178.96 L 141.94 180.06 C 141.92 181.05 142.70 181.87 143.70 181.90 C 144.69 181.92 145.51 181.13 145.53 180.14 L 145.56 179.04 C 145.58 178.05 144.79 177.23 143.80 177.21 C 142.81 177.18 141.99 177.97 141.97 178.96 Z M 141.94 180.09 L 141.93 181.16 C 141.92 182.15 142.72 182.96 143.71 182.97 C 144.71 182.97 145.52 182.18 145.52 181.18 L 145.53 180.11 C 145.54 179.12 144.74 178.31 143.75 178.30 C 142.76 178.30 141.95 179.10 141.94 180.09 Z M 141.93 181.20 L 141.95 182.19 C 141.96 183.19 142.78 183.98 143.77 183.96 C 144.77 183.94 145.56 183.13 145.54 182.13 L 145.52 181.14 C 145.51 180.15 144.69 179.36 143.70 179.37 C 142.71 179.39 141.92 180.21 141.93 181.20 Z M 141.95 182.26 L 142.00 183.18 C 142.05 184.17 142.89 184.93 143.88 184.88 C 144.87 184.83 145.64 183.98 145.59 182.99 L 145.54 182.07 C 145.49 181.08 144.64 180.32 143.65 180.37 C 142.66 180.42 141.90 181.26 141.95 182.26 Z M 142.00 183.27 L 142.10 184.22 C 142.20 185.21 143.08 185.93 144.07 185.83 C 145.06 185.73 145.78 184.84 145.68 183.86 L 145.58 182.90 C 145.48 181.92 144.60 181.20 143.61 181.30 C 142.62 181.40 141.90 182.28 142.00 183.27 Z M 142.12 184.38 L 142.33 185.43 C 142.51 186.40 143.46 187.04 144.43 186.85 C 145.41 186.66 146.04 185.72 145.86 184.75 L 145.65 183.70 C 145.47 182.72 144.52 182.09 143.55 182.27 C 142.57 182.46 141.94 183.40 142.12 184.38 Z M 142.40 185.69 L 142.72 186.60 C 143.05 187.53 144.08 188.02 145.02 187.69 C 145.95 187.36 146.44 186.33 146.11 185.39 L 145.78 184.49 C 145.45 183.55 144.42 183.06 143.49 183.39 C 142.55 183.73 142.06 184.76 142.40 185.69 Z M 142.89 186.95 L 143.37 187.72 C 143.90 188.56 145.01 188.81 145.85 188.28 C 146.69 187.75 146.95 186.64 146.42 185.80 L 145.94 185.04 C 145.41 184.20 144.30 183.95 143.46 184.47 C 142.62 185.00 142.36 186.11 142.89 186.95 Z M 143.68 188.08 L 144.38 188.73 C 145.11 189.40 146.25 189.35 146.92 188.62 C 147.59 187.89 147.54 186.75 146.81 186.08 L 146.11 185.44 C 145.38 184.77 144.24 184.81 143.57 185.55 C 142.90 186.28 142.95 187.41 143.68 188.08 Z M 144.72 188.97 L 145.59 189.46 C 146.45 189.94 147.55 189.63 148.03 188.77 C 148.52 187.90 148.21 186.81 147.34 186.32 L 146.47 185.84 C 145.61 185.35 144.51 185.66 144.03 186.52 C 143.54 187.39 143.85 188.49 144.72 188.97 Z M 145.87 189.58 L 146.85 189.93 C 147.78 190.26 148.81 189.76 149.14 188.83 C 149.46 187.89 148.97 186.87 148.04 186.54 L 147.06 186.20 C 146.12 185.87 145.10 186.36 144.77 187.30 C 144.44 188.23 144.93 189.26 145.87 189.58 Z M 147.05 189.98 L 147.91 190.18 C 148.88 190.40 149.84 189.79 150.06 188.83 C 150.28 187.86 149.67 186.90 148.71 186.68 L 147.84 186.48 C 146.87 186.26 145.91 186.87 145.69 187.84 C 145.47 188.80 146.08 189.76 147.05 189.98 Z M 148.05 190.20 L 149.00 190.34 C 149.98 190.49 150.89 189.81 151.04 188.83 C 151.18 187.85 150.50 186.94 149.52 186.80 L 148.57 186.66 C 147.59 186.51 146.68 187.19 146.53 188.17 C 146.39 189.15 147.07 190.06 148.05 190.20 Z M 149.10 190.35 L 150.16 190.45 C 151.14 190.53 152.01 189.81 152.10 188.82 C 152.19 187.83 151.46 186.96 150.47 186.88 L 149.42 186.78 C 148.43 186.70 147.56 187.43 147.48 188.41 C 147.39 189.40 148.12 190.27 149.10 190.35 Z M 150.22 190.45 L 151.32 190.51 C 152.31 190.56 153.15 189.80 153.20 188.81 C 153.25 187.82 152.49 186.98 151.50 186.93 L 150.40 186.87 C 149.42 186.82 148.58 187.58 148.53 188.57 C 148.48 189.56 149.24 190.40 150.22 190.45 Z M 151.36 190.51 L 152.35 190.53 C 153.34 190.56 154.16 189.78 154.19 188.79 C 154.21 187.80 153.43 186.98 152.45 186.96 L 151.46 186.93 C 150.47 186.90 149.65 187.68 149.62 188.67 C 149.60 189.66 150.38 190.48 151.36 190.51 Z M 152.39 190.53 L 153.42 190.54 C 154.40 190.54 155.21 189.74 155.21 188.76 C 155.21 187.77 154.42 186.97 153.43 186.96 L 152.41 186.96 C 151.42 186.95 150.62 187.75 150.61 188.74 C 150.61 189.72 151.40 190.53 152.39 190.53 Z M 153.46 190.53 L 154.49 190.51 C 155.48 190.49 156.26 189.67 156.24 188.69 C 156.22 187.70 155.40 186.92 154.41 186.94 L 153.39 186.96 C 152.40 186.98 151.62 187.80 151.64 188.79 C 151.66 189.77 152.48 190.56 153.46 190.53 Z M 154.55 190.51 L 155.54 190.46 C 156.53 190.40 157.28 189.56 157.23 188.58 C 157.18 187.60 156.34 186.84 155.36 186.89 L 154.36 186.94 C 153.37 187.00 152.62 187.84 152.67 188.82 C 152.72 189.81 153.56 190.56 154.55 190.51 Z M 155.62 190.45 L 156.62 190.35 C 157.60 190.26 158.32 189.39 158.23 188.41 C 158.13 187.43 157.26 186.71 156.28 186.80 L 155.28 186.90 C 154.30 186.99 153.58 187.86 153.68 188.84 C 153.77 189.82 154.64 190.54 155.62 190.45 Z M 156.72 190.34 L 157.75 190.18 C 158.72 190.03 159.39 189.12 159.24 188.15 C 159.09 187.18 158.19 186.52 157.22 186.66 L 156.18 186.82 C 155.21 186.97 154.55 187.87 154.69 188.85 C 154.84 189.82 155.75 190.48 156.72 190.34 Z M 157.85 190.16 L 158.81 189.95 C 159.77 189.75 160.38 188.81 160.18 187.86 C 159.98 186.90 159.04 186.28 158.08 186.48 L 157.12 186.69 C 156.16 186.89 155.55 187.83 155.75 188.79 C 155.95 189.74 156.89 190.36 157.85 190.16 Z M 158.89 189.93 L 159.82 189.69 C 160.76 189.45 161.33 188.48 161.09 187.54 C 160.84 186.59 159.88 186.02 158.94 186.27 L 158.01 186.51 C 157.06 186.75 156.49 187.71 156.73 188.66 C 156.98 189.61 157.94 190.17 158.89 189.93 Z M 159.86 189.67 L 160.78 189.41 C 161.72 189.14 162.26 188.16 161.99 187.23 C 161.72 186.29 160.75 185.75 159.81 186.02 L 158.89 186.29 C 157.95 186.56 157.41 187.53 157.68 188.47 C 157.95 189.40 158.93 189.94 159.86 189.67 Z M 160.81 189.40 L 161.72 189.12 C 162.65 188.84 163.17 187.86 162.89 186.93 C 162.61 186.00 161.63 185.48 160.70 185.76 L 159.79 186.03 C 158.86 186.31 158.33 187.30 158.61 188.22 C 158.90 189.15 159.88 189.68 160.81 189.40 Z M 161.73 189.11 L 162.67 188.82 C 163.59 188.53 164.11 187.54 163.82 186.62 C 163.53 185.70 162.55 185.18 161.62 185.47 L 160.68 185.77 C 159.76 186.06 159.24 187.04 159.53 187.96 C 159.82 188.89 160.81 189.40 161.73 189.11 Z M 162.68 188.81 L 163.65 188.50 C 164.57 188.20 165.08 187.22 164.78 186.30 C 164.49 185.38 163.50 184.87 162.58 185.17 L 161.61 185.48 C 160.69 185.77 160.18 186.76 160.48 187.68 C 160.78 188.60 161.76 189.11 162.68 188.81 Z M 163.66 188.49 L 164.66 188.16 C 165.58 187.86 166.08 186.88 165.78 185.96 C 165.48 185.05 164.50 184.55 163.58 184.84 L 162.58 185.17 C 161.66 185.47 161.16 186.46 161.46 187.37 C 161.76 188.29 162.74 188.79 163.66 188.49 Z M 164.67 188.16 L 165.58 187.86 C 166.49 187.56 166.99 186.57 166.69 185.66 C 166.39 184.75 165.40 184.25 164.49 184.55 L 163.58 184.85 C 162.66 185.15 162.17 186.14 162.47 187.05 C 162.77 187.96 163.75 188.46 164.67 188.16 Z M 165.58 187.85 L 166.51 187.55 C 167.42 187.24 167.91 186.26 167.61 185.35 C 167.31 184.44 166.32 183.95 165.41 184.25 L 164.49 184.56 C 163.57 184.86 163.08 185.84 163.38 186.75 C 163.69 187.66 164.67 188.16 165.58 187.85 Z M 166.51 187.54 L 167.46 187.22 C 168.37 186.92 168.86 185.93 168.55 185.03 C 168.25 184.12 167.26 183.63 166.36 183.93 L 165.41 184.25 C 164.50 184.56 164.01 185.54 164.32 186.45 C 164.62 187.36 165.60 187.84 166.51 187.54 Z M 167.46 187.22 L 168.43 186.89 C 169.34 186.58 169.82 185.60 169.52 184.69 C 169.21 183.79 168.23 183.30 167.32 183.61 L 166.35 183.94 C 165.45 184.25 164.96 185.23 165.27 186.13 C 165.58 187.04 166.56 187.52 167.46 187.22 Z M 168.44 186.88 L 169.43 186.54 C 170.33 186.23 170.81 185.25 170.50 184.35 C 170.19 183.45 169.20 182.97 168.30 183.28 L 167.32 183.62 C 166.41 183.93 165.94 184.91 166.25 185.81 C 166.56 186.71 167.54 187.19 168.44 186.88 Z M 169.43 186.54 L 170.34 186.22 C 171.24 185.91 171.71 184.92 171.40 184.03 C 171.09 183.13 170.10 182.65 169.21 182.97 L 168.30 183.28 C 167.40 183.60 166.93 184.58 167.24 185.48 C 167.55 186.37 168.53 186.85 169.43 186.54 Z M 170.34 186.21 L 171.26 185.89 C 172.16 185.57 172.63 184.59 172.31 183.70 C 172.00 182.80 171.02 182.33 170.12 182.65 L 169.20 182.97 C 168.31 183.29 167.84 184.27 168.15 185.16 C 168.47 186.06 169.45 186.53 170.34 186.21 Z M 171.27 185.88 L 172.20 185.55 C 173.09 185.23 173.56 184.25 173.24 183.36 C 172.92 182.47 171.94 182.01 171.05 182.32 L 170.12 182.66 C 169.23 182.97 168.76 183.95 169.08 184.84 C 169.40 185.73 170.38 186.20 171.27 185.88 Z M 172.20 185.54 L 173.16 185.20 C 174.04 184.88 174.51 183.91 174.19 183.02 C 173.87 182.13 172.89 181.67 172.00 181.99 L 171.05 182.33 C 170.16 182.65 169.70 183.62 170.02 184.51 C 170.34 185.40 171.32 185.86 172.20 185.54 Z M 173.16 185.20 L 174.13 184.85 C 175.01 184.53 175.47 183.55 175.15 182.67 C 174.83 181.78 173.86 181.32 172.97 181.64 L 172.00 181.99 C 171.12 182.31 170.66 183.29 170.98 184.17 C 171.30 185.06 172.27 185.52 173.16 185.20 Z M 174.13 184.84 L 175.09 184.49 C 175.97 184.18 176.43 183.20 176.11 182.32 C 175.79 181.44 174.82 180.98 173.94 181.30 L 172.97 181.65 C 172.09 181.97 171.64 182.94 171.95 183.82 C 172.27 184.70 173.25 185.16 174.13 184.84 Z M 175.09 184.49 L 176.03 184.15 C 176.91 183.83 177.36 182.86 177.04 181.98 C 176.72 181.10 175.75 180.65 174.87 180.97 L 173.94 181.31 C 173.06 181.62 172.60 182.60 172.92 183.47 C 173.24 184.35 174.21 184.81 175.09 184.49 Z M 176.03 184.14 L 176.98 183.80 C 177.85 183.48 178.30 182.51 177.98 181.63 C 177.67 180.76 176.70 180.31 175.82 180.63 L 174.87 180.97 C 174.00 181.29 173.55 182.26 173.86 183.14 C 174.18 184.01 175.15 184.46 176.03 184.14 Z M 176.98 183.79 L 177.93 183.45 C 178.80 183.13 179.25 182.16 178.93 181.29 C 178.61 180.41 177.64 179.96 176.77 180.28 L 175.82 180.63 C 174.95 180.95 174.50 181.92 174.82 182.79 C 175.14 183.67 176.10 184.11 176.98 183.79 Z M 177.93 183.44 L 178.87 183.09 C 179.74 182.77 180.19 181.80 179.86 180.93 C 179.54 180.06 178.58 179.62 177.71 179.94 L 176.76 180.29 C 175.89 180.61 175.45 181.58 175.77 182.45 C 176.09 183.32 177.06 183.76 177.93 183.44 Z M 178.88 183.08 L 179.81 182.74 C 180.67 182.41 181.11 181.45 180.79 180.58 C 180.47 179.72 179.50 179.28 178.64 179.60 L 177.70 179.95 C 176.84 180.27 176.40 181.24 176.72 182.10 C 177.05 182.97 178.01 183.41 178.88 183.08 Z M 179.81 182.73 L 180.76 182.37 C 181.62 182.04 182.06 181.08 181.73 180.22 C 181.41 179.36 180.44 178.92 179.58 179.25 L 178.63 179.61 C 177.77 179.93 177.34 180.90 177.66 181.76 C 177.99 182.62 178.95 183.06 179.81 182.73 Z M 180.77 182.36 L 181.73 181.99 C 182.59 181.66 183.02 180.70 182.69 179.85 C 182.36 178.99 181.40 178.56 180.54 178.89 L 179.58 179.26 C 178.72 179.59 178.29 180.55 178.62 181.40 C 178.95 182.26 179.91 182.69 180.77 182.36 Z M 181.73 181.98 L 182.68 181.62 C 183.53 181.29 183.95 180.33 183.62 179.48 C 183.30 178.63 182.34 178.20 181.49 178.53 L 180.54 178.90 C 179.69 179.23 179.26 180.18 179.59 181.04 C 179.92 181.89 180.88 182.31 181.73 181.98 Z M 182.67 181.61 L 183.60 181.25 C 184.45 180.93 184.87 179.97 184.54 179.13 C 184.22 178.28 183.26 177.85 182.41 178.18 L 181.49 178.54 C 180.64 178.87 180.22 179.82 180.54 180.67 C 180.87 181.52 181.83 181.94 182.67 181.61 Z M 183.60 181.25 L 184.51 180.90 C 185.35 180.57 185.77 179.62 185.45 178.78 C 185.12 177.93 184.17 177.51 183.33 177.84 L 182.42 178.19 C 181.57 178.51 181.15 179.46 181.48 180.31 C 181.80 181.15 182.75 181.57 183.60 181.25 Z M 184.50 180.89 L 185.40 180.55 C 186.24 180.23 186.66 179.29 186.34 178.44 C 186.02 177.60 185.08 177.18 184.23 177.50 L 183.34 177.84 C 182.49 178.16 182.07 179.11 182.39 179.95 C 182.71 180.79 183.66 181.21 184.50 180.89 Z M 185.39 180.55 L 186.35 180.19 C 187.19 179.87 187.61 178.94 187.30 178.10 C 186.98 177.26 186.05 176.83 185.21 177.15 L 184.25 177.51 C 183.41 177.82 182.98 178.76 183.29 179.60 C 183.61 180.44 184.55 180.86 185.39 180.55 Z M 186.34 180.18 L 187.29 179.83 C 188.12 179.52 188.55 178.59 188.24 177.75 C 187.93 176.92 187.00 176.49 186.17 176.80 L 185.22 177.15 C 184.38 177.46 183.95 178.39 184.26 179.23 C 184.57 180.06 185.50 180.49 186.34 180.18 Z M 187.28 179.83 L 188.22 179.48 C 189.05 179.18 189.48 178.26 189.18 177.42 C 188.87 176.59 187.95 176.16 187.11 176.46 L 186.17 176.80 C 185.34 177.11 184.91 178.03 185.21 178.87 C 185.52 179.70 186.44 180.13 187.28 179.83 Z M 188.21 179.48 L 189.14 179.14 C 189.97 178.84 190.40 177.92 190.10 177.09 C 189.80 176.26 188.88 175.83 188.05 176.13 L 187.12 176.47 C 186.29 176.77 185.86 177.68 186.16 178.52 C 186.46 179.35 187.38 179.78 188.21 179.48 Z M 189.13 179.14 L 190.05 178.81 C 190.88 178.51 191.31 177.60 191.01 176.77 C 190.71 175.94 189.80 175.51 188.98 175.81 L 188.06 176.14 C 187.23 176.43 186.80 177.35 187.10 178.17 C 187.39 179.00 188.30 179.43 189.13 179.14 Z M 190.04 178.80 L 191.02 178.45 C 191.84 178.16 192.27 177.25 191.97 176.43 C 191.68 175.61 190.78 175.18 189.95 175.47 L 188.98 175.82 C 188.16 176.11 187.73 177.02 188.02 177.84 C 188.32 178.66 189.22 179.09 190.04 178.80 Z M 191.01 178.45 L 191.97 178.10 C 192.79 177.81 193.22 176.92 192.93 176.10 C 192.64 175.28 191.74 174.85 190.92 175.14 L 189.96 175.48 C 189.14 175.77 188.71 176.67 189.00 177.49 C 189.29 178.31 190.19 178.74 191.01 178.45 Z M 191.96 178.10 L 192.91 177.77 C 193.72 177.48 194.15 176.59 193.87 175.77 C 193.58 174.96 192.69 174.53 191.87 174.81 L 190.93 175.15 C 190.11 175.43 189.68 176.33 189.97 177.14 C 190.26 177.96 191.15 178.38 191.96 178.10 Z M 192.90 177.76 L 193.83 177.44 C 194.64 177.15 195.07 176.27 194.78 175.45 C 194.50 174.64 193.61 174.22 192.80 174.50 L 191.88 174.82 C 191.07 175.10 190.64 175.99 190.92 176.80 C 191.20 177.61 192.09 178.04 192.90 177.76 Z M 193.82 177.43 L 194.74 177.11 C 195.55 176.83 195.98 175.95 195.70 175.14 C 195.42 174.34 194.54 173.91 193.73 174.19 L 192.81 174.51 C 192.00 174.78 191.57 175.66 191.85 176.47 C 192.13 177.28 193.01 177.71 193.82 177.43 Z M 194.73 177.10 L 195.71 176.77 C 196.51 176.50 196.94 175.63 196.67 174.82 C 196.40 174.02 195.52 173.59 194.72 173.86 L 193.74 174.19 C 192.94 174.47 192.51 175.34 192.78 176.14 C 193.06 176.95 193.93 177.38 194.73 177.10 Z M 195.69 176.77 L 196.64 176.45 C 197.45 176.19 197.88 175.33 197.62 174.53 C 197.35 173.72 196.49 173.29 195.69 173.55 L 194.74 173.87 C 193.93 174.13 193.50 174.99 193.76 175.80 C 194.03 176.60 194.89 177.03 195.69 176.77 Z M 196.62 176.45 L 197.56 176.16 C 198.36 175.90 198.81 175.05 198.55 174.25 C 198.30 173.45 197.45 173.01 196.65 173.26 L 195.71 173.56 C 194.91 173.81 194.47 174.66 194.72 175.46 C 194.97 176.26 195.82 176.70 196.62 176.45 Z M 197.53 176.15 L 198.47 175.88 C 199.27 175.64 199.72 174.80 199.49 174.01 C 199.25 173.21 198.41 172.75 197.61 172.99 L 196.68 173.26 C 195.88 173.50 195.42 174.34 195.66 175.14 C 195.90 175.93 196.73 176.39 197.53 176.15 Z M 198.43 175.88 L 199.39 175.62 C 200.19 175.40 200.66 174.58 200.44 173.78 C 200.23 172.98 199.40 172.51 198.60 172.72 L 197.65 172.99 C 196.85 173.20 196.37 174.03 196.59 174.83 C 196.81 175.63 197.63 176.10 198.43 175.88 Z M 199.35 175.62 L 200.32 175.38 C 201.12 175.18 201.61 174.38 201.41 173.58 C 201.21 172.78 200.40 172.29 199.60 172.49 L 198.64 172.72 C 197.84 172.92 197.35 173.73 197.55 174.53 C 197.75 175.33 198.55 175.82 199.35 175.62 Z M 200.28 175.38 L 201.26 175.17 C 202.06 174.99 202.56 174.20 202.38 173.40 C 202.21 172.60 201.42 172.10 200.62 172.27 L 199.64 172.49 C 198.84 172.66 198.34 173.45 198.51 174.25 C 198.69 175.05 199.48 175.56 200.28 175.38 Z M 201.22 175.17 L 202.21 174.97 C 203.01 174.82 203.53 174.05 203.38 173.25 C 203.22 172.45 202.45 171.93 201.65 172.08 L 200.66 172.27 C 199.86 172.43 199.34 173.20 199.49 174.00 C 199.64 174.80 200.42 175.32 201.22 175.17 Z M 202.17 174.97 L 203.17 174.81 C 203.97 174.67 204.51 173.92 204.38 173.12 C 204.24 172.32 203.49 171.78 202.69 171.92 L 201.69 172.08 C 200.89 172.21 200.35 172.97 200.48 173.77 C 200.62 174.57 201.37 175.11 202.17 174.97 Z M 203.13 174.81 L 204.14 174.66 C 204.94 174.55 205.49 173.81 205.38 173.02 C 205.27 172.22 204.53 171.66 203.73 171.77 L 202.73 171.92 C 201.93 172.03 201.37 172.77 201.48 173.57 C 201.60 174.36 202.33 174.92 203.13 174.81 Z M 204.10 174.66 L 205.10 174.55 C 205.90 174.45 206.47 173.73 206.38 172.93 C 206.29 172.14 205.57 171.57 204.77 171.66 L 203.77 171.78 C 202.97 171.87 202.40 172.59 202.49 173.39 C 202.59 174.18 203.31 174.76 204.10 174.66 Z M 205.07 174.54 L 206.05 174.46 C 206.84 174.38 207.43 173.68 207.36 172.88 C 207.28 172.09 206.58 171.50 205.78 171.57 L 204.81 171.66 C 204.01 171.73 203.42 172.44 203.50 173.23 C 203.57 174.03 204.27 174.62 205.07 174.54 Z M 206.00 174.45 L 207.02 174.39 C 207.81 174.34 208.42 173.66 208.37 172.86 C 208.32 172.07 207.63 171.46 206.84 171.51 L 205.82 171.57 C 205.03 171.62 204.43 172.31 204.48 173.10 C 204.53 173.90 205.21 174.50 206.00 174.45 Z M 206.98 174.39 L 207.99 174.35 C 208.78 174.32 209.40 173.66 209.38 172.86 C 209.35 172.07 208.68 171.45 207.89 171.48 L 206.88 171.51 C 206.08 171.54 205.46 172.21 205.49 173.00 C 205.52 173.79 206.18 174.42 206.98 174.39 Z M 207.96 174.35 L 208.94 174.34 C 209.74 174.32 210.37 173.67 210.36 172.88 C 210.35 172.09 209.70 171.46 208.90 171.47 L 207.92 171.48 C 207.13 171.49 206.49 172.14 206.50 172.94 C 206.52 173.73 207.17 174.36 207.96 174.35 Z M 208.93 174.33 L 209.90 174.33 C 210.69 174.33 211.33 173.69 211.33 172.90 C 211.33 172.11 210.68 171.47 209.89 171.47 L 208.92 171.47 C 208.13 171.47 207.49 172.11 207.49 172.90 C 207.49 173.70 208.14 174.33 208.93 174.33 Z M 209.90 174.33 L 210.89 174.33 C 211.68 174.33 212.32 173.69 212.32 172.90 C 212.32 172.11 211.68 171.47 210.89 171.47 L 209.90 171.47 C 209.11 171.47 208.47 172.11 208.47 172.90 C 208.47 173.69 209.11 174.33 209.90 174.33 Z M 210.89 174.33 L 211.89 174.33 C 212.67 174.33 213.31 173.69 213.31 172.90 C 213.31 172.11 212.67 171.47 211.89 171.47 L 210.89 171.47 C 210.10 171.47 209.46 172.11 209.46 172.90 C 209.46 173.69 210.10 174.33 210.89 174.33 Z M 211.89 174.33 L 212.89 174.33 C 213.68 174.33 214.32 173.69 214.32 172.90 C 214.32 172.11 213.68 171.47 212.89 171.47 L 211.89 171.47 C 211.10 171.47 210.46 172.11 210.46 172.90 C 210.46 173.69 211.10 174.33 211.89 174.33 Z M 212.89 174.32 L 213.69 174.32 C 214.48 174.32 215.12 173.69 215.12 172.90 C 215.12 172.11 214.48 171.47 213.69 171.47 L 212.89 171.47 C 212.10 171.47 211.46 172.11 211.46 172.90 C 211.46 173.69 212.10 174.32 212.89 174.32 Z"
      fill="black"
      fill-rule="nonzero" /></svg>