<svg xmlns="http://www.w3.org/2000/svg" width="300" height="300" viewBox="0 0 300 300">
<path d="M 150.61 103.59 L 150.37 104.48 C 150.16 105.28 150.64 106.09 151.43 106.30 C 152.22 106.51 153.03 106.04 153.24 105.25 L 153.48 104.36 C 153.69 103.56 153.22 102.75 152.43 102.54 C 151.63 102.33 150.82 102.80 150.61 103.59 Z M 150.35 104.44 L 150.08 105.37 C 149.84 106.17 150.31 107.02 151.12 107.25 C 151.92 107.49 152.77 107.02 153.00 106.22 L 153.27 105.29 C 153.51 104.48 153.04 103.64 152.23 103.40 C 151.43 103.17 150.58 103.63 150.35 104.44 Z M 150.06 105.30 L 149.73 106.29 C 149.45 107.11 149.90 107.99 150.71 108.27 C 151.53 108.54 152.41 108.10 152.69 107.28 L 153.02 106.29 C 153.29 105.47 152.85 104.59 152.03 104.31 C 151.22 104.04 150.33 104.48 150.06 105.30 Z M 149.72 106.22 L 149.36 107.16 C 149.04 107.98 149.45 108.90 150.27 109.22 C 151.09 109.53 152.01 109.12 152.32 108.31 L 152.69 107.36 C 153.00 106.54 152.60 105.62 151.78 105.31 C 150.96 104.99 150.04 105.40 149.72 106.22 Z M 149.37 107.10 L 148.99 107.99 C 148.64 108.81 149.02 109.75 149.83 110.10 C 150.65 110.45 151.59 110.07 151.94 109.25 L 152.32 108.36 C 152.67 107.55 152.29 106.61 151.47 106.26 C 150.66 105.91 149.72 106.29 149.37 107.10 Z M 149.00 107.95 L 148.57 108.87 C 148.20 109.68 148.55 110.64 149.36 111.01 C 150.17 111.38 151.13 111.03 151.50 110.22 L 151.93 109.30 C 152.30 108.49 151.95 107.53 151.14 107.16 C 150.33 106.78 149.37 107.14 149.00 107.95 Z M 148.58 108.83 L 148.13 109.76 C 147.73 110.57 148.06 111.54 148.87 111.93 C 149.67 112.33 150.65 111.99 151.04 111.19 L 151.50 110.26 C 151.89 109.45 151.56 108.48 150.75 108.09 C 149.95 107.69 148.97 108.03 148.58 108.83 Z M 148.13 109.72 L 147.66 110.64 C 147.24 111.44 147.56 112.43 148.36 112.84 C 149.16 113.26 150.14 112.94 150.56 112.14 L 151.03 111.23 C 151.45 110.43 151.13 109.44 150.33 109.03 C 149.53 108.61 148.55 108.92 148.13 109.72 Z M 147.67 110.60 L 147.18 111.50 C 146.74 112.29 147.03 113.29 147.83 113.73 C 148.62 114.16 149.62 113.87 150.06 113.08 L 150.55 112.18 C 150.98 111.39 150.69 110.39 149.90 109.95 C 149.10 109.52 148.10 109.81 147.67 110.60 Z M 147.19 111.46 L 146.69 112.33 C 146.23 113.11 146.50 114.12 147.29 114.58 C 148.08 115.03 149.08 114.77 149.54 113.98 L 150.04 113.11 C 150.50 112.33 150.23 111.32 149.44 110.86 C 148.66 110.41 147.65 110.67 147.19 111.46 Z M 146.71 112.29 L 146.19 113.13 C 145.71 113.91 145.95 114.93 146.73 115.41 C 147.51 115.88 148.53 115.64 149.01 114.86 L 149.52 114.02 C 150.00 113.24 149.76 112.22 148.98 111.74 C 148.20 111.27 147.18 111.51 146.71 112.29 Z M 146.20 113.10 L 145.67 113.93 C 145.17 114.70 145.39 115.72 146.16 116.22 C 146.93 116.72 147.96 116.50 148.45 115.73 L 148.99 114.90 C 149.49 114.13 149.27 113.10 148.50 112.60 C 147.73 112.10 146.70 112.33 146.20 113.10 Z M 145.68 113.89 L 145.12 114.71 C 144.61 115.48 144.80 116.51 145.56 117.03 C 146.33 117.55 147.36 117.35 147.88 116.59 L 148.44 115.76 C 148.96 115.00 148.76 113.97 148.00 113.45 C 147.24 112.93 146.20 113.13 145.68 113.89 Z M 145.14 114.68 L 144.56 115.50 C 144.02 116.25 144.20 117.29 144.95 117.83 C 145.71 118.37 146.75 118.19 147.28 117.44 L 147.86 116.62 C 148.40 115.87 148.22 114.82 147.47 114.29 C 146.72 113.75 145.67 113.93 145.14 114.68 Z M 144.57 115.47 L 143.97 116.27 C 143.42 117.02 143.58 118.07 144.32 118.62 C 145.07 119.17 146.12 119.02 146.67 118.27 L 147.27 117.47 C 147.82 116.72 147.67 115.67 146.92 115.12 C 146.18 114.57 145.13 114.72 144.57 115.47 Z M 143.99 116.24 L 143.38 117.03 C 142.81 117.77 142.94 118.83 143.68 119.40 C 144.41 119.97 145.47 119.83 146.04 119.10 L 146.65 118.31 C 147.22 117.57 147.09 116.51 146.35 115.94 C 145.62 115.37 144.56 115.51 143.99 116.24 Z M 143.39 117.00 L 142.77 117.78 C 142.18 118.50 142.29 119.57 143.02 120.15 C 143.74 120.74 144.81 120.63 145.40 119.90 L 146.02 119.13 C 146.61 118.40 146.50 117.34 145.77 116.75 C 145.05 116.17 143.98 116.28 143.39 117.00 Z M 142.79 117.74 L 142.11 118.54 C 141.51 119.26 141.60 120.33 142.31 120.93 C 143.02 121.54 144.09 121.45 144.70 120.73 L 145.38 119.93 C 145.98 119.22 145.89 118.15 145.18 117.55 C 144.46 116.94 143.39 117.03 142.79 117.74 Z M 142.13 118.51 L 141.45 119.28 C 140.83 119.98 140.90 121.06 141.60 121.68 C 142.31 122.30 143.38 122.24 144.00 121.53 L 144.68 120.76 C 145.30 120.06 145.23 118.99 144.53 118.37 C 143.83 117.74 142.75 117.81 142.13 118.51 Z M 141.47 119.25 L 140.80 119.98 C 140.17 120.68 140.21 121.75 140.90 122.39 C 141.60 123.03 142.67 122.98 143.31 122.29 L 143.98 121.56 C 144.62 120.87 144.57 119.79 143.88 119.15 C 143.19 118.51 142.11 118.56 141.47 119.25 Z M 140.82 119.96 L 140.16 120.65 C 139.51 121.33 139.54 122.41 140.22 123.06 C 140.90 123.71 141.99 123.69 142.64 123.00 L 143.29 122.31 C 143.95 121.63 143.92 120.55 143.24 119.90 C 142.55 119.25 141.47 119.27 140.82 119.96 Z M 140.18 120.62 L 139.45 121.36 C 138.79 122.03 138.79 123.11 139.47 123.78 C 140.14 124.45 141.22 124.44 141.89 123.77 L 142.62 123.03 C 143.28 122.36 143.28 121.27 142.60 120.61 C 141.93 119.94 140.85 119.95 140.18 120.62 Z M 139.48 121.32 L 138.75 122.02 C 138.07 122.68 138.04 123.77 138.70 124.45 C 139.35 125.14 140.44 125.16 141.12 124.51 L 141.86 123.80 C 142.54 123.15 142.57 122.06 141.91 121.38 C 141.26 120.69 140.17 120.67 139.48 121.32 Z M 138.80 121.97 L 138.07 122.62 C 137.36 123.25 137.29 124.34 137.92 125.05 C 138.55 125.76 139.64 125.83 140.35 125.20 L 141.08 124.55 C 141.79 123.92 141.86 122.84 141.23 122.12 C 140.60 121.41 139.51 121.35 138.80 121.97 Z M 138.14 122.56 L 137.30 123.23 C 136.55 123.82 136.43 124.90 137.02 125.65 C 137.61 126.39 138.69 126.52 139.44 125.93 L 140.28 125.26 C 141.02 124.67 141.15 123.58 140.56 122.84 C 139.97 122.09 138.88 121.97 138.14 122.56 Z M 137.39 123.17 L 136.35 123.90 C 135.57 124.44 135.38 125.50 135.92 126.28 C 136.46 127.05 137.52 127.24 138.30 126.71 L 139.34 125.98 C 140.12 125.44 140.31 124.38 139.77 123.60 C 139.23 122.83 138.17 122.63 137.39 123.17 Z M 136.53 123.82 L 136.22 123.98 C 135.40 124.42 135.09 125.44 135.53 126.26 C 135.96 127.08 136.99 127.39 137.81 126.96 L 138.12 126.79 C 138.94 126.35 139.25 125.33 138.81 124.51 C 138.37 123.69 137.35 123.38 136.53 123.82 Z M 138.00 126.82 L 138.45 126.48 C 139.20 125.94 139.36 124.89 138.81 124.15 C 138.27 123.41 137.23 123.24 136.48 123.79 L 136.03 124.12 C 135.28 124.67 135.12 125.71 135.66 126.45 C 136.21 127.20 137.25 127.36 138.00 126.82 Z M 138.40 126.51 L 139.28 125.91 C 140.04 125.40 140.24 124.36 139.72 123.60 C 139.20 122.84 138.17 122.65 137.41 123.16 L 136.53 123.76 C 135.77 124.28 135.58 125.31 136.09 126.07 C 136.61 126.83 137.64 127.03 138.40 126.51 Z M 139.25 125.92 L 140.35 125.21 C 141.11 124.71 141.33 123.69 140.83 122.92 C 140.33 122.16 139.31 121.94 138.54 122.44 L 137.45 123.15 C 136.68 123.65 136.46 124.67 136.96 125.44 C 137.46 126.20 138.48 126.42 139.25 125.92 Z M 140.31 125.22 L 141.24 124.65 C 142.01 124.18 142.25 123.16 141.77 122.39 C 141.29 121.61 140.28 121.37 139.50 121.85 L 138.58 122.42 C 137.81 122.90 137.57 123.91 138.04 124.69 C 138.52 125.46 139.54 125.70 140.31 125.22 Z M 141.20 124.67 L 142.06 124.17 C 142.84 123.71 143.10 122.70 142.65 121.92 C 142.19 121.14 141.18 120.87 140.40 121.33 L 139.54 121.84 C 138.76 122.29 138.49 123.30 138.95 124.08 C 139.41 124.87 140.42 125.13 141.20 124.67 Z M 142.02 124.18 L 142.89 123.70 C 143.68 123.26 143.96 122.26 143.52 121.47 C 143.08 120.68 142.09 120.40 141.30 120.84 L 140.43 121.32 C 139.64 121.76 139.36 122.76 139.80 123.55 C 140.24 124.34 141.23 124.62 142.02 124.18 Z M 142.86 123.71 L 143.74 123.24 C 144.54 122.82 144.84 121.83 144.42 121.03 C 144.00 120.24 143.01 119.93 142.21 120.36 L 141.33 120.83 C 140.53 121.25 140.23 122.24 140.65 123.03 C 141.07 123.83 142.06 124.14 142.86 123.71 Z M 143.72 123.25 L 144.59 122.81 C 145.39 122.40 145.71 121.42 145.30 120.62 C 144.90 119.81 143.91 119.49 143.11 119.90 L 142.24 120.35 C 141.43 120.76 141.11 121.74 141.52 122.54 C 141.93 123.34 142.91 123.66 143.72 123.25 Z M 144.57 122.82 L 145.44 122.39 C 146.25 121.99 146.58 121.01 146.18 120.21 C 145.78 119.40 144.80 119.07 144.00 119.47 L 143.13 119.89 C 142.32 120.29 141.99 121.27 142.39 122.08 C 142.79 122.88 143.76 123.21 144.57 122.82 Z M 145.43 122.39 L 146.32 121.96 C 147.13 121.57 147.47 120.60 147.08 119.79 C 146.69 118.98 145.71 118.64 144.90 119.03 L 144.01 119.46 C 143.20 119.85 142.86 120.83 143.25 121.64 C 143.64 122.45 144.62 122.79 145.43 122.39 Z M 146.31 121.97 L 147.23 121.53 C 148.04 121.14 148.39 120.17 148.00 119.36 C 147.61 118.54 146.64 118.20 145.83 118.59 L 144.91 119.03 C 144.10 119.41 143.75 120.39 144.14 121.20 C 144.53 122.01 145.50 122.35 146.31 121.97 Z M 147.23 121.53 L 148.17 121.08 C 148.98 120.69 149.33 119.72 148.94 118.91 C 148.55 118.10 147.58 117.75 146.77 118.14 L 145.83 118.59 C 145.02 118.97 144.67 119.95 145.06 120.76 C 145.45 121.57 146.42 121.91 147.23 121.53 Z M 148.17 121.08 L 149.06 120.65 C 149.88 120.26 150.22 119.29 149.83 118.48 C 149.44 117.67 148.47 117.33 147.66 117.71 L 146.77 118.14 C 145.96 118.53 145.61 119.50 146.00 120.31 C 146.39 121.12 147.36 121.47 148.17 121.08 Z M 149.06 120.65 L 149.96 120.22 C 150.77 119.84 151.11 118.87 150.73 118.05 C 150.34 117.24 149.37 116.90 148.56 117.29 L 147.66 117.71 C 146.85 118.10 146.51 119.07 146.89 119.88 C 147.28 120.70 148.25 121.04 149.06 120.65 Z M 149.95 120.23 L 150.86 119.80 C 151.67 119.42 152.02 118.44 151.64 117.63 C 151.25 116.82 150.28 116.47 149.47 116.86 L 148.56 117.28 C 147.75 117.67 147.40 118.64 147.78 119.45 C 148.17 120.26 149.14 120.61 149.95 120.23 Z M 150.85 119.80 L 151.76 119.38 C 152.58 119.00 152.93 118.04 152.56 117.22 C 152.18 116.40 151.21 116.05 150.40 116.43 L 149.48 116.85 C 148.66 117.23 148.31 118.20 148.69 119.01 C 149.06 119.83 150.03 120.18 150.85 119.80 Z M 151.75 119.39 L 152.67 118.97 C 153.49 118.61 153.86 117.64 153.49 116.82 C 153.12 116.00 152.16 115.64 151.34 116.00 L 150.41 116.42 C 149.59 116.79 149.23 117.75 149.59 118.57 C 149.96 119.39 150.93 119.76 151.75 119.39 Z M 152.65 118.98 L 153.57 118.59 C 154.39 118.23 154.77 117.27 154.42 116.45 C 154.06 115.62 153.10 115.24 152.28 115.60 L 151.36 115.99 C 150.53 116.35 150.15 117.31 150.51 118.13 C 150.86 118.96 151.82 119.34 152.65 118.98 Z M 153.55 118.60 L 154.47 118.21 C 155.30 117.87 155.69 116.92 155.35 116.09 C 155.01 115.26 154.05 114.86 153.22 115.21 L 152.30 115.59 C 151.47 115.93 151.07 116.88 151.42 117.72 C 151.76 118.55 152.72 118.94 153.55 118.60 Z M 154.45 118.22 L 155.38 117.85 C 156.21 117.52 156.62 116.57 156.29 115.73 C 155.95 114.90 155.00 114.49 154.17 114.83 L 153.24 115.20 C 152.41 115.53 152.00 116.48 152.33 117.31 C 152.67 118.15 153.61 118.56 154.45 118.22 Z M 155.36 117.86 L 156.29 117.50 C 157.13 117.17 157.55 116.23 157.23 115.39 C 156.90 114.55 155.96 114.13 155.12 114.46 L 154.19 114.82 C 153.35 115.14 152.93 116.09 153.25 116.93 C 153.58 117.77 154.52 118.18 155.36 117.86 Z M 156.28 117.50 L 157.22 117.15 C 158.06 116.83 158.49 115.89 158.17 115.05 C 157.85 114.21 156.91 113.78 156.07 114.10 L 155.13 114.45 C 154.29 114.77 153.86 115.71 154.18 116.55 C 154.50 117.39 155.44 117.82 156.28 117.50 Z M 157.21 117.15 L 158.15 116.81 C 158.99 116.50 159.43 115.56 159.12 114.71 C 158.80 113.87 157.87 113.44 157.02 113.75 L 156.08 114.09 C 155.23 114.41 154.80 115.34 155.11 116.19 C 155.42 117.03 156.36 117.47 157.21 117.15 Z M 158.14 116.81 L 159.08 116.47 C 159.93 116.17 160.37 115.23 160.07 114.38 C 159.76 113.53 158.83 113.09 157.98 113.40 L 157.03 113.74 C 156.18 114.05 155.74 114.98 156.05 115.83 C 156.35 116.68 157.29 117.12 158.14 116.81 Z M 159.07 116.48 L 160.02 116.15 C 160.87 115.85 161.32 114.92 161.02 114.06 C 160.72 113.21 159.79 112.76 158.93 113.06 L 157.99 113.39 C 157.13 113.69 156.69 114.63 156.98 115.48 C 157.28 116.33 158.22 116.78 159.07 116.48 Z M 160.01 116.16 L 160.95 115.84 C 161.81 115.54 162.27 114.61 161.98 113.75 C 161.69 112.89 160.75 112.44 159.90 112.73 L 158.95 113.05 C 158.09 113.34 157.63 114.27 157.92 115.13 C 158.22 115.99 159.15 116.45 160.01 116.16 Z M 160.94 115.85 L 161.88 115.54 C 162.75 115.25 163.22 114.32 162.93 113.46 C 162.65 112.59 161.72 112.12 160.86 112.41 L 159.91 112.72 C 159.05 113.00 158.58 113.93 158.86 114.80 C 159.14 115.66 160.07 116.13 160.94 115.85 Z M 161.86 115.55 L 162.85 115.24 C 163.71 114.96 164.20 114.04 163.92 113.17 C 163.65 112.30 162.73 111.82 161.86 112.09 L 160.87 112.40 C 160.01 112.67 159.52 113.60 159.80 114.47 C 160.07 115.34 160.99 115.82 161.86 115.55 Z M 162.82 115.25 L 163.83 114.95 C 164.71 114.69 165.20 113.76 164.94 112.89 C 164.68 112.01 163.76 111.52 162.88 111.78 L 161.88 112.08 C 161.00 112.34 160.51 113.26 160.77 114.14 C 161.03 115.01 161.95 115.51 162.82 115.25 Z M 163.81 114.96 L 164.79 114.68 C 165.67 114.43 166.19 113.52 165.94 112.64 C 165.69 111.75 164.77 111.24 163.89 111.49 L 162.91 111.77 C 162.03 112.02 161.52 112.93 161.76 113.81 C 162.01 114.69 162.93 115.21 163.81 114.96 Z M 164.77 114.69 L 165.72 114.44 C 166.60 114.21 167.13 113.30 166.90 112.41 C 166.66 111.52 165.76 111.00 164.87 111.23 L 163.92 111.48 C 163.03 111.71 162.50 112.62 162.74 113.51 C 162.97 114.39 163.88 114.92 164.77 114.69 Z M 165.68 114.45 L 166.59 114.23 C 167.48 114.02 168.03 113.12 167.81 112.22 C 167.60 111.33 166.70 110.78 165.80 111.00 L 164.90 111.22 C 164.01 111.43 163.46 112.33 163.68 113.23 C 163.89 114.12 164.79 114.67 165.68 114.45 Z M 166.55 114.24 L 167.58 114.02 C 168.48 113.83 169.05 112.94 168.86 112.04 C 168.67 111.14 167.78 110.57 166.88 110.76 L 165.85 110.98 C 164.95 111.18 164.37 112.07 164.57 112.97 C 164.76 113.87 165.65 114.44 166.55 114.24 Z M 167.53 114.04 L 168.54 113.85 C 169.44 113.69 170.05 112.82 169.88 111.91 C 169.72 111.00 168.85 110.40 167.94 110.57 L 166.93 110.75 C 166.02 110.91 165.42 111.78 165.59 112.69 C 165.75 113.60 166.62 114.20 167.53 114.04 Z M 168.48 113.87 L 169.43 113.73 C 170.35 113.60 170.98 112.75 170.85 111.83 C 170.71 110.92 169.86 110.28 168.95 110.41 L 168.00 110.55 C 167.08 110.69 166.45 111.54 166.58 112.45 C 166.71 113.37 167.56 114.00 168.48 113.87 Z M 169.37 113.74 L 170.32 113.64 C 171.24 113.54 171.91 112.70 171.81 111.78 C 171.70 110.86 170.87 110.20 169.95 110.30 L 169.01 110.40 C 168.08 110.50 167.42 111.33 167.52 112.26 C 167.62 113.18 168.45 113.84 169.37 113.74 Z M 170.22 113.66 L 171.35 113.61 C 172.28 113.56 173.01 112.76 172.96 111.82 C 172.91 110.89 172.11 110.16 171.17 110.21 L 170.05 110.27 C 169.11 110.32 168.39 111.12 168.44 112.05 C 168.49 112.99 169.29 113.71 170.22 113.66 Z M 171.03 113.62 L 172.00 113.75 C 172.95 113.88 173.82 113.21 173.94 112.26 C 174.07 111.32 173.40 110.45 172.45 110.32 L 171.49 110.19 C 170.54 110.07 169.67 110.74 169.55 111.68 C 169.42 112.63 170.09 113.50 171.03 113.62 Z M 171.28 113.52 L 171.95 113.95 C 172.76 114.47 173.85 114.23 174.38 113.42 C 174.90 112.60 174.66 111.51 173.85 110.99 L 173.18 110.56 C 172.36 110.03 171.27 110.27 170.75 111.09 C 170.22 111.90 170.46 112.99 171.28 113.52 Z M 171.25 113.13 L 171.55 113.88 C 171.91 114.79 172.95 115.23 173.86 114.87 C 174.77 114.50 175.21 113.46 174.85 112.55 L 174.55 111.80 C 174.18 110.89 173.14 110.45 172.23 110.82 C 171.32 111.18 170.88 112.22 171.25 113.13 Z M 171.41 113.21 L 171.40 114.23 C 171.40 115.22 172.20 116.02 173.19 116.02 C 174.18 116.03 174.98 115.23 174.98 114.24 L 174.99 113.22 C 174.99 112.23 174.19 111.43 173.20 111.43 C 172.21 111.42 171.41 112.22 171.41 113.21 Z M 171.43 113.85 L 171.18 115.01 C 170.96 115.98 171.58 116.94 172.55 117.16 C 173.52 117.37 174.48 116.76 174.69 115.79 L 174.95 114.62 C 175.17 113.65 174.55 112.69 173.58 112.48 C 172.61 112.26 171.65 112.87 171.43 113.85 Z M 171.23 114.80 L 170.91 115.71 C 170.58 116.66 171.08 117.69 172.02 118.02 C 172.96 118.35 174.00 117.85 174.32 116.91 L 174.64 115.99 C 174.97 115.05 174.47 114.02 173.53 113.69 C 172.59 113.36 171.56 113.86 171.23 114.80 Z M 170.95 115.60 L 170.55 116.54 C 170.16 117.46 170.59 118.53 171.51 118.92 C 172.43 119.31 173.50 118.88 173.89 117.96 L 174.29 117.02 C 174.68 116.10 174.25 115.03 173.32 114.64 C 172.40 114.25 171.34 114.68 170.95 115.60 Z M 170.58 116.47 L 170.14 117.40 C 169.71 118.30 170.09 119.39 170.99 119.82 C 171.90 120.25 172.98 119.87 173.41 118.96 L 173.86 118.03 C 174.29 117.13 173.91 116.04 173.00 115.61 C 172.10 115.18 171.01 115.56 170.58 116.47 Z M 170.16 117.35 L 169.70 118.24 C 169.24 119.13 169.59 120.23 170.48 120.69 C 171.38 121.15 172.47 120.80 172.93 119.90 L 173.39 119.01 C 173.85 118.12 173.50 117.02 172.61 116.56 C 171.72 116.10 170.62 116.45 170.16 117.35 Z M 169.71 118.20 L 169.22 119.12 C 168.74 120.01 169.07 121.11 169.95 121.59 C 170.84 122.07 171.94 121.74 172.42 120.86 L 172.92 119.94 C 173.40 119.05 173.07 117.95 172.18 117.47 C 171.30 116.99 170.19 117.32 169.71 118.20 Z M 169.23 119.10 L 168.73 119.98 C 168.24 120.86 168.55 121.97 169.43 122.46 C 170.31 122.96 171.42 122.64 171.91 121.77 L 172.41 120.88 C 172.90 120.00 172.59 118.89 171.71 118.40 C 170.83 117.91 169.72 118.22 169.23 119.10 Z M 168.74 119.96 L 168.26 120.80 C 167.76 121.67 168.06 122.79 168.93 123.29 C 169.80 123.80 170.92 123.50 171.42 122.62 L 171.91 121.78 C 172.41 120.91 172.11 119.79 171.24 119.29 C 170.36 118.79 169.25 119.09 168.74 119.96 Z M 168.26 120.79 L 167.78 121.62 C 167.27 122.49 167.56 123.61 168.43 124.12 C 169.31 124.63 170.42 124.34 170.93 123.46 L 171.42 122.63 C 171.93 121.76 171.63 120.64 170.76 120.13 C 169.89 119.62 168.77 119.92 168.26 120.79 Z M 167.77 121.62 L 167.30 122.44 C 166.79 123.32 167.08 124.44 167.95 124.95 C 168.83 125.45 169.95 125.16 170.46 124.29 L 170.94 123.46 C 171.44 122.59 171.15 121.47 170.28 120.96 C 169.40 120.45 168.28 120.75 167.77 121.62 Z M 167.29 122.44 L 166.80 123.29 C 166.29 124.16 166.58 125.29 167.45 125.80 C 168.33 126.31 169.45 126.01 169.96 125.14 L 170.46 124.29 C 170.97 123.42 170.67 122.29 169.80 121.78 C 168.93 121.27 167.80 121.57 167.29 122.44 Z M 166.80 123.28 L 166.28 124.16 C 165.77 125.03 166.05 126.15 166.93 126.67 C 167.80 127.19 168.92 126.90 169.44 126.02 L 169.96 125.15 C 170.47 124.28 170.19 123.15 169.31 122.64 C 168.44 122.12 167.32 122.41 166.80 123.28 Z M 166.29 124.14 L 165.75 125.04 C 165.22 125.90 165.50 127.03 166.37 127.56 C 167.24 128.08 168.37 127.80 168.89 126.94 L 169.43 126.04 C 169.96 125.17 169.68 124.04 168.81 123.52 C 167.94 122.99 166.81 123.27 166.29 124.14 Z M 165.76 125.02 L 165.25 125.83 C 164.72 126.69 164.99 127.83 165.85 128.36 C 166.72 128.90 167.85 128.63 168.38 127.76 L 168.89 126.95 C 169.42 126.09 169.15 124.96 168.29 124.42 C 167.42 123.89 166.29 124.15 165.76 125.02 Z M 165.26 125.82 L 164.74 126.64 C 164.20 127.50 164.46 128.64 165.32 129.18 C 166.18 129.73 167.31 129.47 167.85 128.61 L 168.38 127.78 C 168.92 126.92 168.66 125.78 167.80 125.24 C 166.94 124.70 165.80 124.96 165.26 125.82 Z M 164.74 126.63 L 164.20 127.48 C 163.65 128.34 163.91 129.48 164.76 130.03 C 165.62 130.57 166.76 130.32 167.31 129.47 L 167.85 128.62 C 168.40 127.76 168.15 126.62 167.29 126.07 C 166.43 125.52 165.29 125.78 164.74 126.63 Z M 164.21 127.47 L 163.64 128.34 C 163.09 129.20 163.34 130.34 164.19 130.89 C 165.05 131.44 166.19 131.20 166.74 130.34 L 167.30 129.47 C 167.86 128.62 167.61 127.48 166.76 126.92 C 165.90 126.37 164.76 126.62 164.21 127.47 Z M 163.65 128.34 L 163.10 129.17 C 162.55 130.03 162.79 131.17 163.64 131.73 C 164.50 132.28 165.64 132.04 166.20 131.18 L 166.74 130.35 C 167.30 129.49 167.05 128.35 166.20 127.80 C 165.34 127.24 164.20 127.48 163.65 128.34 Z M 163.10 129.17 L 162.57 129.98 C 162.02 130.84 162.26 131.98 163.11 132.54 C 163.97 133.09 165.11 132.85 165.67 132.00 L 166.20 131.19 C 166.75 130.33 166.51 129.19 165.66 128.63 C 164.80 128.08 163.66 128.32 163.10 129.17 Z M 162.57 129.98 L 162.03 130.81 C 161.47 131.67 161.72 132.81 162.57 133.37 C 163.42 133.93 164.57 133.69 165.13 132.83 L 165.67 132.00 C 166.22 131.14 165.98 130.00 165.13 129.44 C 164.27 128.89 163.13 129.13 162.57 129.98 Z M 162.03 130.82 L 161.48 131.67 C 160.92 132.52 161.16 133.67 162.02 134.22 C 162.88 134.78 164.02 134.54 164.58 133.68 L 165.13 132.83 C 165.68 131.97 165.44 130.83 164.59 130.27 C 163.73 129.72 162.58 129.96 162.03 130.82 Z M 161.47 131.67 L 160.91 132.54 C 160.36 133.39 160.60 134.54 161.46 135.09 C 162.32 135.65 163.46 135.40 164.02 134.54 L 164.58 133.68 C 165.13 132.82 164.89 131.67 164.03 131.12 C 163.17 130.57 162.03 130.81 161.47 131.67 Z M 160.91 132.54 L 160.37 133.38 C 159.82 134.24 160.07 135.38 160.93 135.93 C 161.79 136.48 162.93 136.23 163.49 135.38 L 164.02 134.54 C 164.57 133.68 164.32 132.53 163.46 131.98 C 162.61 131.43 161.46 131.68 160.91 132.54 Z M 160.37 133.38 L 159.85 134.19 C 159.30 135.06 159.56 136.20 160.42 136.75 C 161.28 137.30 162.42 137.04 162.97 136.18 L 163.49 135.37 C 164.04 134.51 163.79 133.36 162.92 132.82 C 162.06 132.27 160.92 132.52 160.37 133.38 Z M 159.85 134.20 L 159.32 135.02 C 158.78 135.89 159.03 137.03 159.90 137.58 C 160.76 138.13 161.90 137.87 162.45 137.01 L 162.98 136.18 C 163.52 135.32 163.27 134.17 162.40 133.62 C 161.54 133.08 160.40 133.33 159.85 134.20 Z M 159.32 135.03 L 158.79 135.87 C 158.24 136.74 158.50 137.88 159.36 138.43 C 160.23 138.98 161.37 138.72 161.92 137.85 L 162.45 137.01 C 163.00 136.14 162.74 135.00 161.88 134.45 C 161.01 133.90 159.87 134.16 159.32 135.03 Z M 158.78 135.87 L 158.24 136.74 C 157.69 137.61 157.95 138.75 158.81 139.30 C 159.68 139.84 160.82 139.59 161.37 138.72 L 161.92 137.85 C 162.46 136.99 162.21 135.84 161.34 135.30 C 160.47 134.75 159.33 135.01 158.78 135.87 Z M 158.24 136.74 L 157.67 137.63 C 157.13 138.50 157.39 139.64 158.25 140.19 C 159.12 140.74 160.26 140.48 160.81 139.61 L 161.37 138.72 C 161.92 137.85 161.66 136.71 160.79 136.16 C 159.93 135.62 158.78 135.88 158.24 136.74 Z M 157.67 137.63 L 157.15 138.46 C 156.60 139.33 156.86 140.47 157.73 141.02 C 158.59 141.56 159.74 141.31 160.29 140.44 L 160.81 139.61 C 161.36 138.75 161.10 137.60 160.23 137.06 C 159.37 136.51 158.22 136.77 157.67 137.63 Z M 157.15 138.46 L 156.62 139.30 C 156.07 140.17 156.33 141.31 157.19 141.86 C 158.06 142.41 159.21 142.15 159.75 141.28 L 160.29 140.44 C 160.83 139.58 160.57 138.43 159.71 137.88 C 158.84 137.34 157.70 137.59 157.15 138.46 Z M 156.62 139.30 L 156.08 140.15 C 155.53 141.02 155.79 142.16 156.66 142.71 C 157.52 143.26 158.67 143.00 159.21 142.13 L 159.75 141.28 C 160.30 140.42 160.04 139.27 159.18 138.72 C 158.31 138.18 157.17 138.43 156.62 139.30 Z M 156.08 140.15 L 155.54 141.01 C 154.99 141.87 155.25 143.02 156.12 143.57 C 156.98 144.11 158.13 143.85 158.68 142.99 L 159.22 142.13 C 159.76 141.27 159.50 140.12 158.64 139.57 C 157.77 139.03 156.63 139.29 156.08 140.15 Z M 155.54 141.01 L 155.00 141.86 C 154.45 142.73 154.71 143.87 155.58 144.42 C 156.45 144.97 157.59 144.71 158.14 143.84 L 158.68 142.99 C 159.22 142.12 158.96 140.98 158.10 140.43 C 157.23 139.88 156.09 140.14 155.54 141.01 Z M 155.00 141.86 L 154.47 142.71 C 153.92 143.58 154.18 144.72 155.05 145.27 C 155.92 145.81 157.06 145.55 157.61 144.69 L 158.14 143.84 C 158.68 142.97 158.42 141.83 157.56 141.28 C 156.69 140.74 155.54 141.00 155.00 141.86 Z M 154.46 142.71 L 153.92 143.57 C 153.38 144.44 153.64 145.59 154.51 146.13 C 155.38 146.68 156.52 146.41 157.07 145.55 L 157.61 144.68 C 158.15 143.82 157.89 142.67 157.02 142.13 C 156.15 141.58 155.01 141.84 154.46 142.71 Z M 153.92 143.57 L 153.39 144.43 C 152.84 145.30 153.11 146.44 153.97 146.99 C 154.84 147.53 155.99 147.27 156.53 146.40 L 157.07 145.54 C 157.61 144.68 157.35 143.53 156.48 142.99 C 155.61 142.44 154.47 142.71 153.92 143.57 Z M 153.39 144.43 L 152.86 145.27 C 152.31 146.14 152.58 147.29 153.44 147.83 C 154.31 148.38 155.46 148.11 156.00 147.25 L 156.53 146.40 C 157.08 145.53 156.81 144.39 155.95 143.84 C 155.08 143.30 153.93 143.56 153.39 144.43 Z M 152.86 145.27 L 152.33 146.11 C 151.78 146.98 152.05 148.13 152.91 148.67 C 153.78 149.22 154.93 148.96 155.47 148.09 L 156.00 147.25 C 156.55 146.38 156.28 145.23 155.42 144.69 C 154.55 144.14 153.40 144.40 152.86 145.27 Z M 152.33 146.11 L 151.80 146.95 C 151.26 147.81 151.51 148.96 152.38 149.51 C 153.25 150.05 154.39 149.79 154.94 148.93 L 155.47 148.09 C 156.02 147.23 155.76 146.08 154.89 145.53 C 154.03 144.98 152.88 145.24 152.33 146.11 Z M 151.81 146.94 L 151.27 147.78 C 150.72 148.64 150.98 149.79 151.84 150.34 C 152.71 150.89 153.85 150.64 154.40 149.77 L 154.94 148.93 C 155.49 148.07 155.23 146.92 154.37 146.37 C 153.50 145.82 152.36 146.08 151.81 146.94 Z M 151.28 147.77 L 150.74 148.60 C 150.19 149.46 150.44 150.61 151.30 151.17 C 152.16 151.72 153.31 151.47 153.87 150.61 L 154.40 149.78 C 154.95 148.91 154.71 147.77 153.84 147.21 C 152.98 146.66 151.83 146.91 151.28 147.77 Z M 150.75 148.60 L 150.21 149.43 C 149.65 150.29 149.90 151.44 150.76 152.00 C 151.62 152.55 152.77 152.31 153.32 151.45 L 153.86 150.61 C 154.42 149.75 154.18 148.60 153.32 148.05 C 152.45 147.49 151.31 147.74 150.75 148.60 Z M 150.21 149.42 L 149.67 150.26 C 149.10 151.12 149.35 152.27 150.20 152.83 C 151.06 153.39 152.21 153.15 152.77 152.29 L 153.32 151.45 C 153.88 150.60 153.64 149.45 152.78 148.88 C 151.92 148.32 150.77 148.56 150.21 149.42 Z M 149.67 150.25 L 149.12 151.09 C 148.55 151.95 148.79 153.10 149.65 153.66 C 150.50 154.22 151.65 153.99 152.22 153.13 L 152.77 152.29 C 153.33 151.44 153.10 150.29 152.24 149.72 C 151.38 149.16 150.23 149.40 149.67 150.25 Z M 149.12 151.09 L 148.56 151.92 C 148.00 152.78 148.23 153.93 149.08 154.50 C 149.94 155.06 151.09 154.83 151.66 153.98 L 152.21 153.14 C 152.78 152.28 152.55 151.13 151.69 150.57 C 150.84 150.00 149.69 150.23 149.12 151.09 Z M 148.57 151.92 L 148.01 152.76 C 147.44 153.61 147.67 154.76 148.52 155.33 C 149.37 155.90 150.52 155.67 151.09 154.82 L 151.65 153.98 C 152.22 153.13 151.99 151.98 151.14 151.41 C 150.29 150.84 149.14 151.07 148.57 151.92 Z M 148.01 152.75 L 147.46 153.58 C 146.88 154.43 147.11 155.58 147.96 156.15 C 148.81 156.72 149.96 156.50 150.53 155.65 L 151.09 154.83 C 151.66 153.98 151.43 152.82 150.58 152.25 C 149.73 151.68 148.58 151.90 148.01 152.75 Z M 147.46 153.57 L 146.90 154.39 C 146.33 155.24 146.55 156.39 147.40 156.97 C 148.25 157.54 149.40 157.32 149.97 156.47 L 150.53 155.65 C 151.11 154.80 150.88 153.65 150.04 153.08 C 149.19 152.50 148.03 152.72 147.46 153.57 Z M 146.91 154.39 L 146.35 155.21 C 145.77 156.06 145.99 157.21 146.83 157.79 C 147.68 158.37 148.83 158.15 149.41 157.30 L 149.97 156.48 C 150.55 155.63 150.33 154.48 149.48 153.90 C 148.64 153.33 147.48 153.54 146.91 154.39 Z M 146.35 155.21 L 145.78 156.03 C 145.20 156.88 145.42 158.03 146.26 158.61 C 147.10 159.19 148.26 158.98 148.84 158.13 L 149.41 157.31 C 149.99 156.46 149.77 155.31 148.93 154.73 C 148.08 154.15 146.93 154.36 146.35 155.21 Z M 145.79 156.03 L 145.21 156.85 C 144.63 157.69 144.84 158.85 145.68 159.43 C 146.53 160.01 147.68 159.80 148.26 158.96 L 148.83 158.14 C 149.42 157.29 149.21 156.14 148.37 155.56 C 147.52 154.97 146.37 155.18 145.79 156.03 Z M 145.22 156.85 L 144.64 157.68 C 144.05 158.52 144.26 159.67 145.10 160.26 C 145.94 160.84 147.09 160.64 147.68 159.80 L 148.26 158.97 C 148.84 158.13 148.64 156.97 147.80 156.39 C 146.96 155.80 145.80 156.01 145.22 156.85 Z M 144.64 157.67 L 144.08 158.48 C 143.49 159.32 143.69 160.48 144.53 161.06 C 145.36 161.65 146.52 161.45 147.11 160.61 L 147.68 159.80 C 148.26 158.97 148.06 157.81 147.22 157.22 C 146.39 156.63 145.23 156.84 144.64 157.67 Z M 144.08 158.48 L 143.51 159.29 C 142.92 160.12 143.12 161.28 143.95 161.87 C 144.78 162.46 145.94 162.26 146.53 161.42 L 147.10 160.62 C 147.69 159.78 147.49 158.63 146.66 158.04 C 145.83 157.45 144.67 157.64 144.08 158.48 Z M 143.51 159.28 L 142.93 160.09 C 142.34 160.93 142.54 162.08 143.37 162.67 C 144.20 163.27 145.36 163.07 145.95 162.24 L 146.53 161.43 C 147.12 160.60 146.92 159.44 146.09 158.85 C 145.26 158.26 144.10 158.45 143.51 159.28 Z M 142.94 160.09 L 142.36 160.91 C 141.76 161.74 141.95 162.89 142.78 163.48 C 143.61 164.08 144.77 163.89 145.36 163.06 L 145.94 162.24 C 146.54 161.41 146.35 160.26 145.52 159.66 C 144.69 159.07 143.53 159.26 142.94 160.09 Z M 142.36 160.90 L 141.77 161.72 C 141.18 162.55 141.37 163.70 142.20 164.30 C 143.02 164.89 144.18 164.70 144.77 163.88 L 145.36 163.06 C 145.95 162.23 145.76 161.08 144.94 160.48 C 144.11 159.89 142.95 160.08 142.36 160.90 Z M 141.77 161.72 L 141.18 162.54 C 140.59 163.37 140.78 164.52 141.60 165.12 C 142.43 165.71 143.58 165.52 144.18 164.70 L 144.77 163.88 C 145.36 163.05 145.18 161.90 144.35 161.30 C 143.52 160.71 142.37 160.89 141.77 161.72 Z M 141.19 162.54 L 140.60 163.35 C 140.01 164.18 140.19 165.33 141.02 165.92 C 141.84 166.52 143.00 166.33 143.59 165.51 L 144.18 164.70 C 144.77 163.87 144.59 162.72 143.76 162.13 C 142.93 161.53 141.78 161.72 141.19 162.54 Z M 140.61 163.35 L 140.03 164.14 C 139.43 164.97 139.62 166.12 140.44 166.71 C 141.27 167.31 142.42 167.13 143.01 166.30 L 143.59 165.51 C 144.19 164.68 144.00 163.53 143.18 162.94 C 142.35 162.34 141.20 162.53 140.61 163.35 Z M 140.04 164.14 L 139.45 164.94 C 138.86 165.76 139.04 166.91 139.86 167.51 C 140.68 168.11 141.83 167.92 142.43 167.10 L 143.01 166.31 C 143.61 165.48 143.43 164.33 142.61 163.73 C 141.78 163.14 140.63 163.32 140.04 164.14 Z M 139.46 164.93 L 138.87 165.74 C 138.27 166.55 138.45 167.71 139.27 168.31 C 140.09 168.91 141.24 168.73 141.84 167.91 L 142.43 167.11 C 143.03 166.29 142.85 165.14 142.03 164.54 C 141.21 163.94 140.06 164.12 139.46 164.93 Z M 138.88 165.73 L 138.28 166.54 C 137.68 167.35 137.85 168.50 138.66 169.11 C 139.48 169.71 140.63 169.54 141.23 168.72 L 141.83 167.92 C 142.43 167.10 142.26 165.95 141.45 165.35 C 140.63 164.74 139.48 164.91 138.88 165.73 Z M 138.29 166.53 L 137.68 167.34 C 137.07 168.15 137.24 169.30 138.05 169.91 C 138.86 170.52 140.01 170.35 140.62 169.54 L 141.23 168.73 C 141.83 167.92 141.67 166.77 140.86 166.16 C 140.05 165.55 138.90 165.72 138.29 166.53 Z M 137.69 167.33 L 137.07 168.15 C 136.46 168.95 136.61 170.10 137.42 170.72 C 138.22 171.33 139.37 171.17 139.99 170.37 L 140.61 169.55 C 141.22 168.74 141.06 167.60 140.26 166.98 C 139.45 166.37 138.30 166.53 137.69 167.33 Z M 137.08 168.14 L 136.46 168.94 C 135.84 169.74 135.99 170.89 136.79 171.51 C 137.59 172.13 138.74 171.98 139.35 171.18 L 139.98 170.38 C 140.59 169.58 140.45 168.43 139.65 167.81 C 138.85 167.19 137.70 167.34 137.08 168.14 Z M 136.47 168.94 L 135.84 169.74 C 135.21 170.53 135.35 171.68 136.15 172.30 C 136.94 172.93 138.09 172.79 138.71 171.99 L 139.34 171.19 C 139.97 170.40 139.83 169.25 139.03 168.63 C 138.24 168.00 137.09 168.14 136.47 168.94 Z M 135.85 169.73 L 135.21 170.53 C 134.58 171.32 134.71 172.46 135.50 173.09 C 136.29 173.72 137.44 173.59 138.07 172.80 L 138.70 172.00 C 139.33 171.21 139.20 170.07 138.41 169.44 C 137.62 168.81 136.48 168.94 135.85 169.73 Z M 135.22 170.52 L 134.59 171.31 C 133.95 172.09 134.08 173.24 134.86 173.87 C 135.64 174.50 136.79 174.38 137.42 173.60 L 138.06 172.81 C 138.69 172.03 138.57 170.88 137.78 170.25 C 137.00 169.62 135.85 169.74 135.22 170.52 Z M 134.60 171.30 L 133.96 172.07 C 133.33 172.85 133.44 174.00 134.22 174.63 C 134.99 175.27 136.14 175.16 136.78 174.38 L 137.41 173.61 C 138.04 172.83 137.93 171.68 137.15 171.05 C 136.38 170.41 135.23 170.52 134.60 171.30 Z M 133.97 172.07 L 133.35 172.82 C 132.71 173.59 132.81 174.73 133.58 175.37 C 134.35 176.02 135.50 175.91 136.14 175.14 L 136.76 174.39 C 137.41 173.62 137.30 172.47 136.53 171.83 C 135.76 171.19 134.61 171.30 133.97 172.07 Z M 133.36 172.81 L 132.74 173.55 C 132.09 174.31 132.19 175.45 132.95 176.10 C 133.72 176.75 134.86 176.65 135.51 175.88 L 136.13 175.15 C 136.77 174.38 136.68 173.24 135.91 172.59 C 135.15 171.95 134.00 172.05 133.36 172.81 Z M 132.75 173.54 L 132.05 174.35 C 131.40 175.11 131.48 176.25 132.24 176.90 C 133.00 177.56 134.14 177.47 134.79 176.71 L 135.49 175.89 C 136.14 175.14 136.06 173.99 135.30 173.34 C 134.54 172.69 133.40 172.78 132.75 173.54 Z M 132.06 174.34 L 131.38 175.12 C 130.72 175.87 130.80 177.01 131.55 177.67 C 132.30 178.32 133.44 178.25 134.09 177.50 L 134.78 176.72 C 135.43 175.97 135.36 174.83 134.61 174.18 C 133.86 173.52 132.72 173.59 132.06 174.34 Z M 131.40 175.11 L 130.73 175.86 C 130.07 176.60 130.13 177.73 130.87 178.40 C 131.61 179.06 132.75 179.00 133.41 178.26 L 134.08 177.51 C 134.74 176.77 134.68 175.63 133.94 174.97 C 133.20 174.31 132.06 174.37 131.40 175.11 Z M 130.75 175.84 L 130.09 176.56 C 129.42 177.29 129.47 178.42 130.20 179.09 C 130.93 179.76 132.07 179.72 132.74 178.98 L 133.39 178.27 C 134.06 177.54 134.01 176.40 133.28 175.73 C 132.55 175.06 131.42 175.11 130.75 175.84 Z M 130.11 176.55 L 129.46 177.24 C 128.78 177.96 128.82 179.09 129.54 179.77 C 130.26 180.44 131.39 180.41 132.07 179.69 L 132.72 179.00 C 133.40 178.28 133.36 177.14 132.64 176.47 C 131.92 175.79 130.79 175.83 130.11 176.55 Z M 129.48 177.22 L 128.80 177.93 C 128.12 178.64 128.14 179.77 128.85 180.45 C 129.56 181.13 130.69 181.11 131.37 180.40 L 132.05 179.70 C 132.73 178.99 132.71 177.86 132.00 177.18 C 131.29 176.49 130.16 176.51 129.48 177.22 Z M 128.82 177.92 L 128.10 178.65 C 127.41 179.35 127.41 180.48 128.11 181.17 C 128.81 181.86 129.94 181.85 130.63 181.15 L 131.35 180.41 C 132.04 179.72 132.04 178.59 131.34 177.90 C 130.64 177.21 129.51 177.22 128.82 177.92 Z M 128.12 178.64 L 127.39 179.36 C 126.70 180.04 126.69 181.17 127.38 181.86 C 128.07 182.56 129.19 182.56 129.88 181.88 L 130.61 181.16 C 131.30 180.47 131.31 179.35 130.62 178.66 C 129.93 177.96 128.81 177.96 128.12 178.64 Z M 127.41 179.35 L 126.70 180.04 C 126.00 180.72 125.98 181.83 126.65 182.53 C 127.33 183.23 128.45 183.25 129.15 182.58 L 129.86 181.88 C 130.56 181.21 130.58 180.09 129.90 179.39 C 129.23 178.69 128.11 178.67 127.41 179.35 Z M 126.72 180.03 L 126.01 180.70 C 125.31 181.37 125.27 182.48 125.94 183.18 C 126.61 183.89 127.72 183.92 128.42 183.25 L 129.13 182.58 C 129.83 181.92 129.86 180.81 129.20 180.10 C 128.53 179.40 127.42 179.37 126.72 180.03 Z M 126.03 180.70 L 125.32 181.35 C 124.62 182.00 124.58 183.11 125.23 183.82 C 125.89 184.52 126.99 184.56 127.70 183.91 L 128.40 183.26 C 129.11 182.60 129.15 181.50 128.50 180.79 C 127.84 180.08 126.73 180.04 126.03 180.70 Z M 125.35 181.34 L 124.63 181.99 C 123.92 182.64 123.86 183.74 124.51 184.45 C 125.15 185.16 126.25 185.21 126.96 184.57 L 127.68 183.92 C 128.39 183.27 128.44 182.17 127.80 181.46 C 127.16 180.75 126.06 180.70 125.35 181.34 Z M 124.66 181.98 L 123.93 182.62 C 123.21 183.25 123.14 184.34 123.77 185.05 C 124.40 185.77 125.49 185.84 126.21 185.21 L 126.94 184.58 C 127.65 183.95 127.73 182.86 127.10 182.14 C 126.47 181.42 125.37 181.35 124.66 181.98 Z M 123.97 182.60 L 123.21 183.23 C 122.48 183.84 122.39 184.93 123.00 185.66 C 123.61 186.38 124.69 186.48 125.42 185.87 L 126.18 185.23 C 126.90 184.62 127.00 183.54 126.39 182.81 C 125.78 182.08 124.69 181.99 123.97 182.60 Z M 123.25 183.21 L 122.44 183.86 C 121.70 184.45 121.58 185.52 122.17 186.26 C 122.76 187.00 123.83 187.12 124.57 186.53 L 125.38 185.89 C 126.12 185.30 126.24 184.22 125.65 183.48 C 125.06 182.75 123.99 182.63 123.25 183.21 Z M 122.48 183.84 L 121.65 184.47 C 120.91 185.03 120.76 186.10 121.33 186.85 C 121.89 187.60 122.96 187.74 123.71 187.18 L 124.53 186.55 C 125.28 185.98 125.43 184.92 124.86 184.17 C 124.29 183.42 123.23 183.27 122.48 183.84 Z M 121.69 184.45 L 120.88 185.04 C 120.12 185.58 119.95 186.64 120.50 187.40 C 121.05 188.15 122.10 188.32 122.86 187.78 L 123.67 187.19 C 124.43 186.64 124.60 185.59 124.05 184.83 C 123.50 184.07 122.45 183.90 121.69 184.45 Z M 120.92 185.02 L 120.07 185.60 C 119.31 186.13 119.11 187.17 119.64 187.94 C 120.17 188.70 121.21 188.90 121.98 188.37 L 122.82 187.79 C 123.59 187.26 123.78 186.22 123.26 185.45 C 122.73 184.69 121.68 184.49 120.92 185.02 Z M 120.11 185.59 L 119.25 186.15 C 118.48 186.65 118.26 187.69 118.76 188.46 C 119.26 189.23 120.30 189.45 121.07 188.95 L 121.94 188.39 C 122.71 187.88 122.93 186.85 122.43 186.08 C 121.92 185.30 120.89 185.08 120.11 185.59 Z M 119.30 186.13 L 118.44 186.65 C 117.65 187.13 117.40 188.15 117.88 188.94 C 118.36 189.72 119.38 189.97 120.16 189.49 L 121.03 188.97 C 121.81 188.49 122.06 187.47 121.58 186.69 C 121.11 185.90 120.08 185.65 119.30 186.13 Z M 118.49 186.63 L 117.65 187.10 C 116.85 187.54 116.57 188.55 117.01 189.35 C 117.46 190.14 118.46 190.43 119.26 189.99 L 120.10 189.52 C 120.90 189.07 121.19 188.06 120.74 187.27 C 120.30 186.47 119.29 186.19 118.49 186.63 Z M 117.75 187.07 L 116.66 187.59 C 115.85 187.98 115.51 188.96 115.90 189.78 C 116.29 190.59 117.27 190.93 118.08 190.54 L 119.17 190.02 C 119.98 189.62 120.32 188.65 119.93 187.83 C 119.54 187.02 118.56 186.68 117.75 187.07 Z M 116.84 187.55 L 115.78 187.92 C 114.94 188.22 114.50 189.14 114.80 189.97 C 115.09 190.81 116.01 191.25 116.85 190.95 L 117.91 190.58 C 118.74 190.29 119.18 189.37 118.89 188.53 C 118.59 187.69 117.67 187.25 116.84 187.55 Z M 116.09 187.87 L 115.19 188.00 C 114.32 188.12 113.72 188.92 113.84 189.79 C 113.97 190.65 114.77 191.25 115.63 191.13 L 116.54 191.00 C 117.40 190.88 118.00 190.08 117.88 189.22 C 117.76 188.35 116.96 187.75 116.09 187.87 Z M 115.75 188.06 L 115.03 187.89 C 114.20 187.70 113.36 188.22 113.17 189.06 C 112.98 189.89 113.51 190.72 114.34 190.91 L 115.06 191.08 C 115.90 191.27 116.73 190.75 116.92 189.91 C 117.11 189.08 116.59 188.25 115.75 188.06 Z M 115.76 188.32 L 115.20 187.77 C 114.60 187.17 113.64 187.18 113.05 187.77 C 112.46 188.36 112.46 189.33 113.05 189.92 L 113.61 190.48 C 114.21 191.07 115.17 191.07 115.76 190.47 C 116.35 189.88 116.35 188.92 115.76 188.32 Z M 115.50 188.28 L 115.14 187.40 C 114.83 186.64 113.95 186.27 113.19 186.59 C 112.43 186.90 112.07 187.77 112.39 188.53 L 112.75 189.41 C 113.06 190.17 113.93 190.53 114.69 190.22 C 115.45 189.91 115.82 189.04 115.50 188.28 Z M 115.19 187.65 L 114.95 186.57 C 114.77 185.79 113.99 185.29 113.21 185.47 C 112.42 185.64 111.92 186.42 112.10 187.21 L 112.34 188.28 C 112.51 189.07 113.29 189.56 114.08 189.39 C 114.87 189.21 115.36 188.43 115.19 187.65 Z M 114.94 186.65 L 114.83 186.02 C 114.70 185.24 113.95 184.71 113.17 184.85 C 112.39 184.98 111.87 185.72 112.00 186.50 L 112.11 187.13 C 112.24 187.91 112.98 188.44 113.77 188.31 C 114.55 188.17 115.07 187.43 114.94 186.65 Z"
      fill="black"
      fill-rule="nonzero" /><path d="M 138.39 132.13 L 138.80 133.08 C 139.15 133.90 140.10 134.27 140.92 133.92 C 141.74 133.57 142.11 132.62 141.76 131.81 L 141.35 130.86 C 141.00 130.04 140.06 129.66 139.24 130.01 C 138.42 130.36 138.04 131.31 138.39 132.13 Z M 138.77 133.10 L 139.18 134.04 C 139.54 134.87 140.52 135.26 141.35 134.89 C 142.19 134.52 142.57 133.55 142.21 132.71 L 141.80 131.78 C 141.43 130.94 140.46 130.56 139.62 130.93 C 138.78 131.29 138.40 132.27 138.77 133.10 Z M 139.15 134.07 L 139.55 134.98 C 139.94 135.83 140.94 136.21 141.80 135.82 C 142.65 135.44 143.03 134.43 142.64 133.58 L 142.23 132.68 C 141.85 131.82 140.84 131.45 139.99 131.83 C 139.14 132.22 138.76 133.22 139.15 134.07 Z M 139.53 135.03 L 139.95 135.89 C 140.36 136.76 141.39 137.12 142.26 136.71 C 143.12 136.30 143.49 135.26 143.08 134.40 L 142.66 133.53 C 142.25 132.67 141.22 132.30 140.35 132.71 C 139.49 133.13 139.12 134.16 139.53 135.03 Z M 139.95 135.95 L 140.41 136.84 C 140.85 137.70 141.91 138.04 142.77 137.60 C 143.63 137.15 143.98 136.10 143.53 135.23 L 143.07 134.34 C 142.63 133.48 141.57 133.14 140.71 133.58 C 139.85 134.02 139.51 135.08 139.95 135.95 Z M 140.42 136.88 L 140.89 137.74 C 141.36 138.60 142.43 138.91 143.29 138.44 C 144.14 137.97 144.46 136.90 143.99 136.05 L 143.52 135.19 C 143.05 134.33 141.98 134.02 141.12 134.49 C 140.27 134.96 139.95 136.03 140.42 136.88 Z M 140.90 137.77 L 141.40 138.64 C 141.89 139.49 142.97 139.79 143.82 139.30 C 144.67 138.81 144.96 137.73 144.47 136.88 L 143.98 136.01 C 143.49 135.17 142.41 134.87 141.56 135.36 C 140.71 135.84 140.42 136.92 140.90 137.77 Z M 141.40 138.66 L 141.88 139.48 C 142.38 140.33 143.46 140.61 144.31 140.12 C 145.16 139.62 145.45 138.54 144.95 137.69 L 144.47 136.87 C 143.98 136.02 142.89 135.73 142.04 136.23 C 141.19 136.72 140.91 137.81 141.40 138.66 Z M 141.88 139.49 L 142.36 140.30 C 142.86 141.15 143.95 141.43 144.80 140.93 C 145.65 140.43 145.93 139.34 145.43 138.49 L 144.95 137.68 C 144.45 136.83 143.36 136.55 142.51 137.05 C 141.66 137.55 141.38 138.64 141.88 139.49 Z M 142.36 140.31 L 142.87 141.17 C 143.37 142.02 144.47 142.29 145.32 141.79 C 146.17 141.29 146.45 140.19 145.94 139.34 L 145.43 138.48 C 144.93 137.63 143.83 137.35 142.98 137.86 C 142.13 138.36 141.85 139.46 142.36 140.31 Z M 142.87 141.18 L 143.41 142.09 C 143.92 142.93 145.02 143.21 145.87 142.70 C 146.72 142.19 147.00 141.09 146.49 140.24 L 145.94 139.33 C 145.43 138.48 144.33 138.21 143.48 138.72 C 142.63 139.23 142.36 140.33 142.87 141.18 Z M 143.41 142.09 L 143.95 142.97 C 144.46 143.82 145.57 144.09 146.41 143.58 C 147.26 143.06 147.53 141.96 147.02 141.11 L 146.49 140.23 C 145.97 139.38 144.87 139.11 144.02 139.63 C 143.17 140.14 142.90 141.25 143.41 142.09 Z M 143.95 142.98 L 144.44 143.79 C 144.96 144.64 146.07 144.91 146.92 144.39 C 147.77 143.87 148.03 142.76 147.51 141.91 L 147.02 141.10 C 146.50 140.26 145.39 139.99 144.55 140.51 C 143.70 141.02 143.43 142.13 143.95 142.98 Z M 144.44 143.80 L 144.96 144.63 C 145.48 145.48 146.59 145.75 147.44 145.23 C 148.29 144.71 148.55 143.60 148.03 142.75 L 147.52 141.91 C 146.99 141.06 145.88 140.79 145.03 141.32 C 144.19 141.84 143.92 142.95 144.44 143.80 Z M 144.96 144.64 L 145.49 145.50 C 146.01 146.35 147.12 146.62 147.97 146.09 C 148.82 145.57 149.09 144.46 148.56 143.61 L 148.03 142.74 C 147.51 141.89 146.39 141.63 145.55 142.15 C 144.70 142.68 144.43 143.79 144.96 144.64 Z M 145.49 145.51 L 146.03 146.39 C 146.56 147.24 147.68 147.51 148.53 146.98 C 149.38 146.45 149.64 145.34 149.11 144.49 L 148.57 143.60 C 148.04 142.75 146.92 142.49 146.07 143.02 C 145.22 143.54 144.96 144.66 145.49 145.51 Z M 146.03 146.40 L 146.58 147.27 C 147.10 148.13 148.22 148.39 149.07 147.86 C 149.92 147.33 150.19 146.22 149.66 145.36 L 149.11 144.49 C 148.59 143.64 147.47 143.37 146.62 143.90 C 145.77 144.43 145.51 145.54 146.03 146.40 Z M 146.58 147.28 L 147.09 148.10 C 147.61 148.95 148.73 149.21 149.58 148.68 C 150.44 148.15 150.70 147.03 150.17 146.18 L 149.66 145.36 C 149.13 144.51 148.01 144.25 147.16 144.78 C 146.31 145.31 146.05 146.43 146.58 147.28 Z M 147.09 148.10 L 147.61 148.93 C 148.14 149.78 149.26 150.04 150.11 149.51 C 150.96 148.98 151.22 147.86 150.69 147.01 L 150.17 146.18 C 149.64 145.33 148.52 145.07 147.67 145.60 C 146.82 146.13 146.56 147.25 147.09 148.10 Z M 147.61 148.94 L 148.14 149.78 C 148.67 150.63 149.79 150.89 150.64 150.36 C 151.49 149.82 151.75 148.70 151.22 147.85 L 150.69 147.01 C 150.15 146.16 149.03 145.90 148.18 146.43 C 147.33 146.97 147.07 148.09 147.61 148.94 Z M 148.14 149.79 L 148.68 150.65 C 149.22 151.49 150.34 151.75 151.19 151.21 C 152.04 150.67 152.29 149.55 151.75 148.70 L 151.21 147.84 C 150.67 147.00 149.55 146.74 148.70 147.28 C 147.85 147.82 147.60 148.94 148.14 149.79 Z M 148.69 150.65 L 149.24 151.52 C 149.78 152.37 150.91 152.62 151.76 152.07 C 152.60 151.53 152.85 150.41 152.31 149.56 L 151.75 148.69 C 151.21 147.84 150.08 147.60 149.24 148.14 C 148.39 148.68 148.14 149.81 148.69 150.65 Z M 149.25 151.53 L 149.79 152.37 C 150.34 153.21 151.47 153.45 152.31 152.91 C 153.15 152.36 153.39 151.23 152.85 150.39 L 152.30 149.55 C 151.75 148.71 150.63 148.47 149.78 149.01 C 148.94 149.56 148.70 150.69 149.25 151.53 Z M 149.80 152.38 L 150.33 153.18 C 150.88 154.03 152.01 154.26 152.85 153.71 C 153.69 153.15 153.92 152.02 153.37 151.18 L 152.84 150.38 C 152.29 149.54 151.16 149.31 150.32 149.86 C 149.48 150.41 149.24 151.54 149.80 152.38 Z M 150.33 153.20 L 150.88 154.01 C 151.44 154.85 152.57 155.07 153.40 154.51 C 154.24 153.95 154.46 152.82 153.91 151.99 L 153.36 151.17 C 152.80 150.34 151.67 150.11 150.84 150.67 C 150.00 151.23 149.78 152.36 150.33 153.20 Z M 150.88 154.02 L 151.44 154.84 C 152.01 155.68 153.14 155.89 153.97 155.33 C 154.80 154.76 155.02 153.63 154.46 152.80 L 153.90 151.97 C 153.33 151.14 152.20 150.93 151.37 151.49 C 150.54 152.06 150.32 153.19 150.88 154.02 Z M 151.45 154.86 L 152.03 155.69 C 152.60 156.52 153.73 156.72 154.56 156.15 C 155.39 155.58 155.60 154.45 155.02 153.62 L 154.45 152.79 C 153.88 151.96 152.74 151.75 151.92 152.32 C 151.09 152.89 150.88 154.03 151.45 154.86 Z M 152.04 155.70 L 152.63 156.54 C 153.21 157.37 154.34 157.56 155.17 156.99 C 155.99 156.41 156.19 155.27 155.61 154.45 L 155.01 153.61 C 154.44 152.78 153.30 152.59 152.48 153.16 C 151.66 153.74 151.46 154.88 152.04 155.70 Z M 152.64 156.56 L 153.24 157.40 C 153.83 158.22 154.97 158.41 155.79 157.82 C 156.60 157.24 156.79 156.10 156.20 155.28 L 155.60 154.44 C 155.01 153.62 153.87 153.43 153.06 154.02 C 152.24 154.60 152.05 155.74 152.64 156.56 Z M 153.25 157.42 L 153.82 158.19 C 154.41 159.01 155.55 159.18 156.36 158.59 C 157.18 158.00 157.35 156.86 156.76 156.05 L 156.19 155.27 C 155.60 154.46 154.46 154.28 153.65 154.87 C 152.84 155.47 152.66 156.60 153.25 157.42 Z M 153.83 158.20 L 154.41 158.99 C 155.01 159.79 156.15 159.96 156.96 159.36 C 157.76 158.76 157.93 157.63 157.33 156.82 L 156.75 156.04 C 156.15 155.23 155.01 155.06 154.21 155.66 C 153.40 156.26 153.23 157.40 153.83 158.20 Z M 154.42 159.00 L 155.02 159.79 C 155.62 160.59 156.76 160.75 157.56 160.14 C 158.36 159.54 158.52 158.40 157.92 157.60 L 157.32 156.81 C 156.72 156.01 155.58 155.85 154.78 156.45 C 153.98 157.06 153.82 158.20 154.42 159.00 Z M 155.03 159.80 L 155.64 160.59 C 156.25 161.39 157.39 161.54 158.18 160.93 C 158.98 160.32 159.13 159.18 158.52 158.38 L 157.91 157.59 C 157.30 156.79 156.16 156.64 155.37 157.25 C 154.57 157.86 154.42 159.00 155.03 159.80 Z M 155.65 160.60 L 156.27 161.40 C 156.88 162.19 158.02 162.34 158.81 161.72 C 159.60 161.11 159.75 159.97 159.13 159.18 L 158.51 158.38 C 157.90 157.59 156.76 157.44 155.97 158.06 C 155.18 158.67 155.03 159.81 155.65 160.60 Z M 156.28 161.41 L 156.91 162.22 C 157.53 163.00 158.67 163.14 159.46 162.52 C 160.24 161.90 160.38 160.76 159.76 159.97 L 159.12 159.17 C 158.50 158.38 157.37 158.25 156.58 158.87 C 155.79 159.49 155.66 160.62 156.28 161.41 Z M 156.92 162.22 L 157.57 163.03 C 158.19 163.81 159.33 163.94 160.11 163.32 C 160.89 162.69 161.02 161.55 160.39 160.77 L 159.75 159.96 C 159.13 159.18 157.99 159.06 157.21 159.68 C 156.42 160.30 156.30 161.44 156.92 162.22 Z M 157.58 163.04 L 158.19 163.80 C 158.82 164.58 159.96 164.70 160.73 164.07 C 161.51 163.44 161.63 162.30 161.00 161.53 L 160.39 160.76 C 159.76 159.99 158.62 159.87 157.84 160.50 C 157.07 161.12 156.95 162.26 157.58 163.04 Z M 158.20 163.81 L 158.83 164.57 C 159.46 165.34 160.60 165.45 161.37 164.82 C 162.14 164.18 162.25 163.05 161.62 162.28 L 160.99 161.52 C 160.36 160.75 159.22 160.64 158.45 161.27 C 157.68 161.90 157.57 163.04 158.20 163.81 Z M 158.84 164.58 L 159.48 165.34 C 160.12 166.10 161.25 166.20 162.02 165.56 C 162.78 164.93 162.88 163.79 162.24 163.03 L 161.60 162.27 C 160.96 161.51 159.83 161.41 159.07 162.05 C 158.31 162.68 158.21 163.82 158.84 164.58 Z M 159.50 165.35 L 160.15 166.11 C 160.79 166.86 161.93 166.95 162.68 166.31 C 163.43 165.66 163.52 164.53 162.87 163.77 L 162.22 163.02 C 161.58 162.26 160.44 162.18 159.69 162.82 C 158.94 163.47 158.85 164.60 159.50 165.35 Z M 160.16 166.13 L 160.83 166.88 C 161.48 167.62 162.61 167.70 163.36 167.04 C 164.10 166.39 164.17 165.26 163.52 164.51 L 162.85 163.76 C 162.20 163.02 161.07 162.94 160.33 163.60 C 159.58 164.25 159.51 165.38 160.16 166.13 Z M 160.85 166.90 L 161.53 167.65 C 162.19 168.38 163.32 168.43 164.05 167.77 C 164.78 167.11 164.84 165.98 164.18 165.24 L 163.50 164.50 C 162.83 163.76 161.70 163.71 160.97 164.37 C 160.24 165.03 160.19 166.17 160.85 166.90 Z M 161.55 167.67 L 162.25 168.41 C 162.92 169.13 164.05 169.16 164.77 168.49 C 165.49 167.82 165.52 166.69 164.85 165.97 L 164.15 165.23 C 163.48 164.51 162.35 164.47 161.63 165.14 C 160.91 165.82 160.88 166.95 161.55 167.67 Z M 162.27 168.43 L 162.97 169.15 C 163.65 169.85 164.78 169.87 165.49 169.18 C 166.19 168.50 166.21 167.37 165.52 166.67 L 164.82 165.95 C 164.14 165.24 163.01 165.22 162.31 165.91 C 161.60 166.60 161.59 167.72 162.27 168.43 Z M 162.99 169.17 L 163.69 169.86 C 164.38 170.55 165.51 170.54 166.20 169.85 C 166.89 169.15 166.89 168.03 166.19 167.33 L 165.50 166.65 C 164.80 165.95 163.68 165.96 162.99 166.65 C 162.29 167.35 162.30 168.48 162.99 169.17 Z M 163.71 169.87 L 164.42 170.56 C 165.13 171.23 166.25 171.21 166.93 170.50 C 167.61 169.80 167.58 168.68 166.88 168.00 L 166.17 167.32 C 165.46 166.64 164.34 166.66 163.66 167.37 C 162.98 168.07 163.00 169.20 163.71 169.87 Z M 164.44 170.57 L 165.17 171.25 C 165.88 171.91 167.00 171.87 167.67 171.16 C 168.33 170.44 168.29 169.32 167.58 168.65 L 166.85 167.98 C 166.14 167.31 165.02 167.35 164.35 168.07 C 163.69 168.79 163.73 169.91 164.44 170.57 Z M 165.19 171.26 L 165.93 171.93 C 166.65 172.58 167.77 172.53 168.42 171.80 C 169.08 171.08 169.02 169.96 168.30 169.31 L 167.56 168.64 C 166.83 167.98 165.72 168.04 165.06 168.77 C 164.41 169.49 164.46 170.61 165.19 171.26 Z M 165.95 171.94 L 166.70 172.61 C 167.44 173.25 168.55 173.18 169.19 172.45 C 169.84 171.71 169.76 170.60 169.03 169.96 L 168.28 169.29 C 167.54 168.65 166.43 168.72 165.79 169.45 C 165.14 170.19 165.22 171.30 165.95 171.94 Z M 166.72 172.62 L 167.50 173.28 C 168.23 173.91 169.35 173.83 169.98 173.09 C 170.61 172.35 170.52 171.24 169.78 170.60 L 169.01 169.94 C 168.27 169.31 167.16 169.40 166.53 170.14 C 165.90 170.88 165.99 171.99 166.72 172.62 Z M 167.51 173.29 L 168.30 173.95 C 169.04 174.57 170.15 174.47 170.77 173.72 C 171.40 172.98 171.30 171.87 170.55 171.25 L 169.77 170.59 C 169.02 169.97 167.91 170.07 167.29 170.82 C 166.67 171.56 166.77 172.67 167.51 173.29 Z M 168.32 173.96 L 169.11 174.60 C 169.86 175.22 170.96 175.10 171.58 174.35 C 172.19 173.60 172.08 172.50 171.33 171.89 L 170.53 171.24 C 169.78 170.63 168.68 170.74 168.07 171.49 C 167.45 172.24 167.57 173.34 168.32 173.96 Z M 169.12 174.61 L 169.91 175.24 C 170.67 175.85 171.77 175.72 172.37 174.97 C 172.98 174.21 172.85 173.11 172.10 172.51 L 171.31 171.88 C 170.55 171.27 169.45 171.40 168.85 172.15 C 168.25 172.91 168.37 174.01 169.12 174.61 Z M 169.93 175.25 L 170.73 175.88 C 171.49 176.47 172.59 176.34 173.18 175.58 C 173.78 174.82 173.64 173.72 172.88 173.13 L 172.08 172.50 C 171.32 171.91 170.22 172.04 169.63 172.80 C 169.04 173.56 169.17 174.66 169.93 175.25 Z M 170.75 175.89 L 171.56 176.50 C 172.32 177.09 173.42 176.94 174.00 176.18 C 174.58 175.41 174.44 174.32 173.67 173.73 L 172.86 173.12 C 172.10 172.53 171.00 172.68 170.42 173.44 C 169.84 174.21 169.98 175.30 170.75 175.89 Z M 171.58 176.51 L 172.39 177.12 C 173.16 177.69 174.25 177.53 174.82 176.76 C 175.40 175.99 175.23 174.90 174.46 174.32 L 173.65 173.72 C 172.88 173.15 171.79 173.31 171.22 174.08 C 170.64 174.85 170.80 175.94 171.58 176.51 Z M 172.41 177.13 L 173.22 177.72 C 174.00 178.28 175.09 178.10 175.65 177.33 C 176.21 176.55 176.03 175.46 175.26 174.90 L 174.44 174.31 C 173.67 173.75 172.58 173.93 172.02 174.70 C 171.46 175.48 171.63 176.57 172.41 177.13 Z M 173.25 177.73 L 174.06 178.30 C 174.84 178.85 175.93 178.66 176.47 177.87 C 177.02 177.09 176.83 176.01 176.05 175.46 L 175.23 174.89 C 174.45 174.34 173.37 174.53 172.82 175.32 C 172.27 176.10 172.46 177.18 173.25 177.73 Z M 174.09 178.31 L 174.90 178.86 C 175.69 179.40 176.76 179.19 177.30 178.40 C 177.83 177.60 177.63 176.53 176.83 175.99 L 176.02 175.45 C 175.23 174.91 174.16 175.12 173.62 175.91 C 173.09 176.70 173.29 177.78 174.09 178.31 Z M 174.92 178.87 L 175.74 179.41 C 176.54 179.93 177.61 179.70 178.13 178.90 C 178.65 178.10 178.42 177.03 177.62 176.51 L 176.81 175.98 C 176.01 175.46 174.94 175.69 174.42 176.49 C 173.90 177.29 174.13 178.36 174.92 178.87 Z M 175.78 179.42 L 176.67 179.98 C 177.48 180.48 178.54 180.23 179.04 179.42 C 179.54 178.61 179.29 177.55 178.48 177.05 L 177.59 176.50 C 176.78 175.99 175.72 176.24 175.22 177.05 C 174.72 177.86 174.97 178.92 175.78 179.42 Z M 176.70 179.99 L 177.59 180.51 C 178.41 181.00 179.46 180.72 179.94 179.91 C 180.42 179.09 180.15 178.04 179.34 177.56 L 178.45 177.03 C 177.63 176.55 176.58 176.82 176.10 177.64 C 175.62 178.46 175.89 179.51 176.70 179.99 Z M 177.63 180.53 L 178.51 181.02 C 179.33 181.48 180.37 181.19 180.84 180.37 C 181.30 179.54 181.00 178.50 180.18 178.04 L 179.30 177.54 C 178.48 177.08 177.43 177.37 176.97 178.20 C 176.51 179.02 176.80 180.07 177.63 180.53 Z M 178.54 181.04 L 179.42 181.50 C 180.25 181.94 181.28 181.63 181.73 180.80 C 182.17 179.97 181.85 178.93 181.02 178.49 L 180.14 178.02 C 179.31 177.58 178.28 177.90 177.84 178.73 C 177.39 179.56 177.71 180.59 178.54 181.04 Z M 179.45 181.51 L 180.33 181.96 C 181.17 182.38 182.19 182.04 182.61 181.20 C 183.04 180.37 182.70 179.34 181.86 178.92 L 180.99 178.48 C 180.15 178.05 179.13 178.39 178.70 179.23 C 178.28 180.07 178.61 181.09 179.45 181.51 Z M 180.36 181.97 L 181.24 182.39 C 182.08 182.79 183.10 182.43 183.50 181.59 C 183.91 180.75 183.55 179.73 182.70 179.33 L 181.83 178.91 C 180.98 178.50 179.97 178.86 179.57 179.71 C 179.16 180.55 179.52 181.56 180.36 181.97 Z M 181.27 182.40 L 182.15 182.80 C 183.00 183.18 184.00 182.81 184.39 181.96 C 184.78 181.11 184.40 180.11 183.55 179.72 L 182.67 179.32 C 181.82 178.93 180.82 179.31 180.43 180.16 C 180.05 181.01 180.42 182.01 181.27 182.40 Z M 182.18 182.80 L 183.10 183.20 C 183.96 183.57 184.95 183.18 185.32 182.32 C 185.69 181.47 185.29 180.48 184.44 180.11 L 183.52 179.71 C 182.66 179.34 181.67 179.73 181.30 180.59 C 180.93 181.44 181.33 182.43 182.18 182.80 Z M 183.13 183.21 L 184.07 183.59 C 184.93 183.95 185.91 183.54 186.26 182.68 C 186.61 181.82 186.20 180.84 185.35 180.49 L 184.41 180.10 C 183.55 179.75 182.57 180.16 182.22 181.02 C 181.87 181.88 182.28 182.86 183.13 183.21 Z M 184.10 183.60 L 185.04 183.96 C 185.90 184.30 186.87 183.87 187.21 183.01 C 187.54 182.15 187.12 181.18 186.26 180.85 L 185.32 180.48 C 184.46 180.15 183.49 180.57 183.15 181.43 C 182.81 182.29 183.24 183.26 184.10 183.60 Z M 185.07 183.97 L 186.01 184.32 C 186.87 184.64 187.83 184.20 188.15 183.33 C 188.47 182.47 188.03 181.51 187.17 181.19 L 186.23 180.84 C 185.36 180.52 184.41 180.97 184.09 181.83 C 183.77 182.69 184.21 183.65 185.07 183.97 Z M 186.04 184.32 L 186.98 184.65 C 187.84 184.96 188.79 184.50 189.10 183.64 C 189.40 182.77 188.94 181.82 188.08 181.52 L 187.14 181.19 C 186.27 180.88 185.33 181.34 185.02 182.20 C 184.72 183.07 185.17 184.02 186.04 184.32 Z M 187.01 184.65 L 187.94 184.97 C 188.81 185.26 189.75 184.79 190.04 183.92 C 190.33 183.06 189.86 182.12 188.99 181.83 L 188.05 181.52 C 187.19 181.23 186.25 181.70 185.96 182.56 C 185.67 183.43 186.14 184.36 187.01 184.65 Z M 187.97 184.97 L 188.91 185.27 C 189.77 185.54 190.70 185.06 190.97 184.19 C 191.25 183.33 190.77 182.40 189.90 182.12 L 188.97 181.83 C 188.10 181.55 187.17 182.03 186.90 182.90 C 186.62 183.77 187.10 184.69 187.97 184.97 Z M 188.93 185.27 L 189.90 185.56 C 190.77 185.82 191.68 185.33 191.94 184.46 C 192.20 183.59 191.71 182.68 190.84 182.42 L 189.88 182.12 C 189.01 181.86 188.09 182.35 187.83 183.22 C 187.57 184.09 188.06 185.01 188.93 185.27 Z M 189.93 185.56 L 190.90 185.83 C 191.77 186.08 192.67 185.58 192.92 184.71 C 193.16 183.84 192.66 182.94 191.79 182.69 L 190.82 182.41 C 189.95 182.17 189.05 182.67 188.80 183.54 C 188.55 184.41 189.06 185.31 189.93 185.56 Z M 190.92 185.83 L 191.89 186.09 C 192.76 186.33 193.65 185.81 193.89 184.94 C 194.12 184.07 193.60 183.18 192.73 182.95 L 191.76 182.69 C 190.90 182.46 190.00 182.97 189.77 183.84 C 189.54 184.71 190.06 185.60 190.92 185.83 Z M 191.92 186.09 L 192.89 186.34 C 193.76 186.55 194.64 186.03 194.85 185.16 C 195.07 184.29 194.54 183.41 193.67 183.19 L 192.71 182.95 C 191.84 182.73 190.96 183.26 190.74 184.13 C 190.52 185.00 191.05 185.88 191.92 186.09 Z M 192.91 186.34 L 193.88 186.56 C 194.75 186.76 195.62 186.23 195.82 185.36 C 196.02 184.49 195.48 183.62 194.61 183.42 L 193.65 183.19 C 192.78 182.99 191.91 183.53 191.71 184.40 C 191.51 185.26 192.05 186.13 192.91 186.34 Z M 193.91 186.56 L 194.87 186.77 C 195.74 186.96 196.60 186.41 196.78 185.54 C 196.97 184.67 196.42 183.82 195.56 183.63 L 194.59 183.42 C 193.72 183.23 192.87 183.78 192.68 184.65 C 192.49 185.52 193.04 186.37 193.91 186.56 Z M 194.90 186.77 L 195.87 186.96 C 196.73 187.14 197.58 186.58 197.75 185.71 C 197.93 184.84 197.36 184.00 196.50 183.83 L 195.53 183.63 C 194.66 183.46 193.82 184.02 193.65 184.88 C 193.47 185.75 194.03 186.59 194.90 186.77 Z M 195.89 186.96 L 196.87 187.14 C 197.73 187.30 198.56 186.73 198.72 185.86 C 198.88 185.00 198.31 184.17 197.44 184.01 L 196.47 183.83 C 195.61 183.67 194.77 184.24 194.61 185.10 C 194.45 185.97 195.03 186.80 195.89 186.96 Z M 196.89 187.14 L 197.87 187.31 C 198.73 187.45 199.55 186.87 199.70 186.00 C 199.84 185.14 199.26 184.32 198.40 184.17 L 197.42 184.01 C 196.55 183.86 195.73 184.44 195.59 185.31 C 195.44 186.17 196.02 186.99 196.89 187.14 Z M 197.89 187.30 L 198.87 187.46 C 199.74 187.59 200.55 186.99 200.68 186.13 C 200.81 185.26 200.22 184.46 199.35 184.32 L 198.37 184.17 C 197.51 184.04 196.70 184.63 196.57 185.50 C 196.43 186.36 197.03 187.17 197.89 187.30 Z M 198.90 187.45 L 199.89 187.59 C 200.75 187.71 201.55 187.11 201.67 186.24 C 201.79 185.38 201.18 184.58 200.32 184.46 L 199.33 184.33 C 198.47 184.21 197.67 184.81 197.55 185.67 C 197.43 186.54 198.03 187.33 198.90 187.45 Z M 199.91 187.59 L 200.91 187.71 C 201.77 187.82 202.56 187.21 202.66 186.34 C 202.77 185.48 202.16 184.70 201.30 184.59 L 200.30 184.46 C 199.43 184.36 198.65 184.97 198.54 185.83 C 198.43 186.70 199.05 187.48 199.91 187.59 Z M 200.93 187.71 L 201.94 187.82 C 202.80 187.92 203.58 187.29 203.67 186.43 C 203.77 185.57 203.14 184.80 202.28 184.70 L 201.27 184.59 C 200.41 184.50 199.64 185.12 199.54 185.98 C 199.45 186.84 200.07 187.61 200.93 187.71 Z M 201.96 187.82 L 202.93 187.91 C 203.79 188.00 204.56 187.37 204.64 186.51 C 204.73 185.65 204.10 184.88 203.24 184.80 L 202.26 184.70 C 201.40 184.62 200.64 185.25 200.55 186.11 C 200.47 186.97 201.10 187.74 201.96 187.82 Z M 202.95 187.91 L 203.90 187.99 C 204.76 188.07 205.52 187.43 205.59 186.57 C 205.67 185.71 205.03 184.96 204.17 184.88 L 203.22 184.80 C 202.36 184.73 201.60 185.36 201.53 186.22 C 201.46 187.08 202.09 187.84 202.95 187.91 Z M 203.92 187.99 L 204.89 188.07 C 205.75 188.13 206.49 187.49 206.56 186.63 C 206.62 185.77 205.98 185.02 205.12 184.96 L 204.15 184.88 C 203.29 184.82 202.55 185.46 202.48 186.32 C 202.42 187.18 203.06 187.93 203.92 187.99 Z M 204.90 188.06 L 205.89 188.13 C 206.74 188.18 207.49 187.53 207.54 186.68 C 207.60 185.82 206.95 185.08 206.09 185.02 L 205.10 184.96 C 204.25 184.90 203.51 185.55 203.45 186.41 C 203.39 187.27 204.04 188.01 204.90 188.06 Z M 205.90 188.13 L 206.90 188.18 C 207.76 188.23 208.49 187.58 208.54 186.72 C 208.59 185.86 207.93 185.13 207.08 185.08 L 206.07 185.02 C 205.22 184.97 204.48 185.63 204.43 186.49 C 204.39 187.34 205.04 188.08 205.90 188.13 Z M 206.91 188.18 L 207.94 188.23 C 208.80 188.27 209.52 187.61 209.56 186.75 C 209.61 185.90 208.94 185.17 208.09 185.13 L 207.06 185.08 C 206.21 185.04 205.48 185.70 205.44 186.56 C 205.40 187.41 206.06 188.14 206.91 188.18 Z M 207.95 188.23 L 209.00 188.27 C 209.85 188.31 210.58 187.64 210.61 186.79 C 210.65 185.93 209.98 185.21 209.13 185.17 L 208.08 185.13 C 207.22 185.09 206.50 185.76 206.46 186.62 C 206.43 187.47 207.09 188.19 207.95 188.23 Z M 209.01 188.27 L 210.03 188.31 C 210.88 188.34 211.60 187.67 211.63 186.81 C 211.66 185.96 210.99 185.24 210.14 185.21 L 209.12 185.17 C 208.26 185.14 207.54 185.81 207.51 186.67 C 207.48 187.52 208.15 188.24 209.01 188.27 Z M 210.03 188.31 L 210.99 188.33 C 211.85 188.36 212.56 187.69 212.59 186.83 C 212.61 185.98 211.94 185.26 211.09 185.24 L 210.13 185.21 C 209.27 185.18 208.56 185.86 208.53 186.71 C 208.51 187.57 209.18 188.28 210.03 188.31 Z M 211.00 188.33 L 211.98 188.36 C 212.83 188.38 213.54 187.71 213.56 186.85 C 213.59 186.00 212.91 185.29 212.06 185.26 L 211.08 185.24 C 210.23 185.22 209.51 185.89 209.49 186.75 C 209.47 187.60 210.14 188.31 211.00 188.33 Z M 211.98 188.36 L 212.97 188.38 C 213.83 188.40 214.54 187.73 214.56 186.87 C 214.58 186.02 213.90 185.31 213.04 185.29 L 212.05 185.26 C 211.20 185.25 210.49 185.92 210.47 186.78 C 210.45 187.63 211.13 188.34 211.98 188.36 Z M 212.98 188.38 L 213.98 188.40 C 214.84 188.42 215.54 187.74 215.56 186.89 C 215.58 186.03 214.90 185.33 214.05 185.31 L 213.04 185.29 C 212.19 185.27 211.48 185.95 211.46 186.80 C 211.44 187.66 212.12 188.37 212.98 188.38 Z M 213.99 188.40 L 215.00 188.42 C 215.85 188.44 216.56 187.76 216.58 186.90 C 216.59 186.05 215.91 185.34 215.06 185.33 L 214.04 185.31 C 213.19 185.29 212.48 185.97 212.47 186.83 C 212.45 187.68 213.13 188.39 213.99 188.40 Z M 215.00 188.42 L 216.02 188.44 C 216.88 188.45 217.58 187.77 217.60 186.92 C 217.61 186.06 216.93 185.36 216.08 185.34 L 215.05 185.33 C 214.20 185.31 213.50 185.99 213.48 186.85 C 213.47 187.70 214.15 188.41 215.00 188.42 Z M 216.03 188.44 L 217.05 188.46 C 217.91 188.47 218.61 187.79 218.62 186.93 C 218.64 186.08 217.96 185.37 217.10 185.36 L 216.08 185.34 C 215.22 185.33 214.52 186.01 214.50 186.87 C 214.49 187.72 215.17 188.43 216.03 188.44 Z M 217.05 188.46 L 217.90 188.47 C 218.76 188.48 219.46 187.80 219.47 186.95 C 219.49 186.09 218.80 185.39 217.95 185.37 L 217.10 185.36 C 216.25 185.35 215.54 186.03 215.53 186.88 C 215.52 187.74 216.20 188.44 217.05 188.46 Z"
      fill="black"
      fill-rule="nonzero" /></svg>