<svg xmlns="http://www.w3.org/2000/svg" width="300" height="300" viewBox="0 0 300 300">
<path d="M 131.41 157.60 L 130.36 157.60 C 129.51 157.60 128.81 158.29 128.81 159.14 C 128.81 159.99 129.50 160.68 130.36 160.68 L 131.41 160.68 C 132.26 160.68 132.95 159.99 132.95 159.14 C 132.95 158.29 132.26 157.60 131.41 157.60 Z M 130.37 157.60 L 129.33 157.59 C 128.47 157.59 127.78 158.27 127.77 159.13 C 127.77 159.98 128.46 160.67 129.31 160.68 L 130.35 160.68 C 131.20 160.69 131.90 160.00 131.90 159.15 C 131.91 158.30 131.22 157.60 130.37 157.60 Z M 129.34 157.59 L 128.32 157.58 C 127.47 157.56 126.77 158.24 126.76 159.10 C 126.74 159.95 127.42 160.65 128.28 160.66 L 129.30 160.68 C 130.15 160.69 130.85 160.01 130.86 159.16 C 130.88 158.30 130.19 157.60 129.34 157.59 Z M 128.34 157.58 L 127.36 157.55 C 126.50 157.52 125.79 158.19 125.77 159.05 C 125.74 159.90 126.41 160.61 127.27 160.63 L 128.25 160.66 C 129.11 160.69 129.82 160.02 129.84 159.16 C 129.87 158.31 129.20 157.60 128.34 157.58 Z M 127.39 157.55 L 126.44 157.50 C 125.59 157.46 124.86 158.11 124.82 158.97 C 124.78 159.82 125.43 160.54 126.29 160.59 L 127.23 160.63 C 128.09 160.68 128.81 160.02 128.85 159.17 C 128.90 158.32 128.24 157.59 127.39 157.55 Z M 126.49 157.50 L 125.39 157.41 C 124.54 157.34 123.79 157.97 123.72 158.82 C 123.65 159.67 124.28 160.42 125.13 160.49 L 126.23 160.59 C 127.09 160.66 127.83 160.02 127.91 159.17 C 127.98 158.32 127.34 157.57 126.49 157.50 Z M 125.49 157.41 L 124.31 157.23 C 123.46 157.10 122.66 157.69 122.53 158.54 C 122.40 159.39 122.99 160.18 123.84 160.31 L 125.03 160.49 C 125.88 160.62 126.67 160.04 126.80 159.19 C 126.93 158.34 126.34 157.54 125.49 157.41 Z M 124.53 157.27 L 123.60 156.99 C 122.77 156.73 121.90 157.20 121.64 158.03 C 121.39 158.86 121.86 159.73 122.69 159.99 L 123.61 160.27 C 124.44 160.52 125.32 160.06 125.57 159.23 C 125.82 158.40 125.36 157.52 124.53 157.27 Z M 124.06 157.20 L 123.48 156.79 C 122.78 156.28 121.79 156.44 121.28 157.15 C 120.77 157.86 120.94 158.84 121.64 159.35 L 122.22 159.77 C 122.93 160.28 123.92 160.12 124.43 159.41 C 124.93 158.70 124.77 157.71 124.06 157.20 Z M 124.11 157.71 L 123.96 157.07 C 123.76 156.22 122.91 155.69 122.06 155.88 C 121.21 156.08 120.68 156.93 120.87 157.78 L 121.02 158.43 C 121.22 159.28 122.07 159.81 122.92 159.61 C 123.77 159.41 124.30 158.57 124.11 157.71 Z M 123.88 158.01 L 124.21 157.18 C 124.53 156.37 124.13 155.45 123.32 155.13 C 122.52 154.81 121.60 155.21 121.28 156.01 L 120.95 156.84 C 120.63 157.65 121.03 158.57 121.83 158.89 C 122.64 159.21 123.56 158.81 123.88 158.01 Z M 124.01 157.52 L 124.70 156.57 C 125.21 155.88 125.06 154.90 124.36 154.38 C 123.67 153.87 122.69 154.02 122.17 154.72 L 121.48 155.67 C 120.97 156.37 121.12 157.35 121.82 157.86 C 122.52 158.37 123.50 158.22 124.01 157.52 Z M 124.59 156.70 L 125.35 155.87 C 125.93 155.24 125.89 154.25 125.25 153.67 C 124.62 153.09 123.63 153.13 123.05 153.76 L 122.29 154.59 C 121.70 155.23 121.75 156.22 122.38 156.80 C 123.02 157.38 124.01 157.34 124.59 156.70 Z M 125.29 155.93 L 126.02 155.22 C 126.63 154.62 126.64 153.63 126.04 153.01 C 125.44 152.40 124.45 152.39 123.83 152.99 L 123.10 153.71 C 122.49 154.31 122.48 155.30 123.08 155.91 C 123.69 156.53 124.68 156.54 125.29 155.93 Z M 125.98 155.26 L 126.74 154.56 C 127.38 153.97 127.42 152.99 126.84 152.35 C 126.26 151.72 125.27 151.67 124.63 152.26 L 123.87 152.96 C 123.23 153.54 123.19 154.53 123.77 155.16 C 124.36 155.80 125.34 155.84 125.98 155.26 Z M 126.72 154.58 L 127.48 153.92 C 128.13 153.35 128.19 152.36 127.63 151.71 C 127.06 151.06 126.07 151.00 125.42 151.56 L 124.66 152.23 C 124.01 152.80 123.94 153.78 124.51 154.43 C 125.08 155.08 126.07 155.15 126.72 154.58 Z M 127.46 153.94 L 128.18 153.32 C 128.84 152.77 128.92 151.78 128.37 151.12 C 127.81 150.46 126.82 150.38 126.16 150.94 L 125.44 151.55 C 124.78 152.10 124.70 153.09 125.26 153.75 C 125.81 154.41 126.80 154.49 127.46 153.94 Z M 128.17 153.34 L 129.02 152.63 C 129.69 152.08 129.79 151.10 129.24 150.43 C 128.69 149.76 127.70 149.67 127.04 150.22 L 126.18 150.92 C 125.51 151.47 125.42 152.46 125.96 153.12 C 126.51 153.79 127.50 153.89 128.17 153.34 Z M 129.01 152.64 L 129.78 152.02 C 130.46 151.48 130.56 150.49 130.02 149.82 C 129.48 149.15 128.49 149.04 127.82 149.59 L 127.05 150.21 C 126.37 150.75 126.27 151.73 126.81 152.41 C 127.35 153.08 128.34 153.19 129.01 152.64 Z M 129.78 152.02 L 130.51 151.44 C 131.18 150.90 131.29 149.91 130.75 149.24 C 130.21 148.56 129.22 148.46 128.55 149.00 L 127.82 149.58 C 127.15 150.13 127.04 151.11 127.58 151.78 C 128.12 152.46 129.11 152.57 129.78 152.02 Z M 130.52 151.43 L 131.25 150.84 C 131.92 150.29 132.02 149.30 131.47 148.63 C 130.92 147.96 129.94 147.86 129.27 148.41 L 128.54 149.01 C 127.87 149.55 127.77 150.54 128.31 151.21 C 128.86 151.88 129.85 151.98 130.52 151.43 Z M 131.26 150.83 L 132.02 150.20 C 132.68 149.65 132.77 148.66 132.22 147.99 C 131.67 147.33 130.68 147.24 130.01 147.79 L 129.26 148.42 C 128.59 148.97 128.50 149.96 129.05 150.62 C 129.60 151.29 130.59 151.38 131.26 150.83 Z M 132.02 150.20 L 132.79 149.56 C 133.46 149.00 133.55 148.02 133.00 147.35 C 132.45 146.68 131.46 146.59 130.79 147.14 L 130.01 147.79 C 129.35 148.34 129.25 149.33 129.81 150.00 C 130.36 150.66 131.35 150.76 132.02 150.20 Z M 132.79 149.57 L 133.58 148.92 C 134.25 148.37 134.35 147.38 133.80 146.71 C 133.26 146.03 132.27 145.94 131.59 146.48 L 130.80 147.13 C 130.13 147.68 130.03 148.67 130.58 149.34 C 131.13 150.02 132.11 150.12 132.79 149.57 Z M 133.57 148.93 L 134.34 148.32 C 135.01 147.77 135.13 146.79 134.58 146.11 C 134.04 145.43 133.05 145.32 132.37 145.86 L 131.61 146.47 C 130.93 147.01 130.82 148.00 131.36 148.68 C 131.90 149.36 132.89 149.47 133.57 148.93 Z M 134.33 148.32 L 135.11 147.71 C 135.79 147.17 135.91 146.18 135.38 145.50 C 134.84 144.82 133.85 144.70 133.17 145.23 L 132.38 145.85 C 131.70 146.39 131.58 147.38 132.12 148.06 C 132.65 148.74 133.64 148.86 134.33 148.32 Z M 135.11 147.71 L 135.90 147.09 C 136.59 146.56 136.71 145.57 136.18 144.88 C 135.65 144.20 134.66 144.07 133.97 144.61 L 133.17 145.23 C 132.49 145.76 132.36 146.75 132.90 147.44 C 133.43 148.12 134.42 148.25 135.11 147.71 Z M 135.90 147.09 L 136.70 146.47 C 137.39 145.94 137.51 144.95 136.98 144.26 C 136.44 143.58 135.45 143.45 134.77 143.99 L 133.97 144.61 C 133.28 145.14 133.16 146.13 133.69 146.82 C 134.23 147.50 135.22 147.63 135.90 147.09 Z M 136.70 146.47 L 137.49 145.86 C 138.18 145.32 138.30 144.33 137.77 143.65 C 137.23 142.96 136.24 142.84 135.55 143.37 L 134.77 143.99 C 134.08 144.52 133.96 145.51 134.49 146.20 C 135.03 146.89 136.02 147.01 136.70 146.47 Z M 137.50 145.86 L 138.29 145.24 C 138.97 144.71 139.10 143.71 138.56 143.03 C 138.02 142.34 137.03 142.22 136.34 142.75 L 135.55 143.37 C 134.86 143.91 134.74 144.90 135.28 145.59 C 135.82 146.27 136.81 146.40 137.50 145.86 Z M 138.29 145.24 L 139.08 144.63 C 139.77 144.09 139.89 143.10 139.35 142.41 C 138.81 141.72 137.82 141.60 137.13 142.14 L 136.34 142.75 C 135.65 143.29 135.53 144.28 136.07 144.97 C 136.61 145.66 137.60 145.78 138.29 145.24 Z M 139.08 144.63 L 139.87 144.02 C 140.56 143.48 140.68 142.49 140.14 141.80 C 139.61 141.11 138.61 140.98 137.92 141.52 L 137.13 142.13 C 136.44 142.67 136.32 143.66 136.85 144.35 C 137.39 145.05 138.39 145.17 139.08 144.63 Z M 139.87 144.02 L 140.66 143.40 C 141.35 142.87 141.47 141.87 140.93 141.18 C 140.39 140.49 139.40 140.37 138.71 140.90 L 137.92 141.52 C 137.23 142.06 137.11 143.05 137.64 143.74 C 138.18 144.43 139.18 144.56 139.87 144.02 Z M 140.67 143.40 L 141.45 142.78 C 142.14 142.24 142.25 141.24 141.71 140.55 C 141.17 139.87 140.17 139.75 139.48 140.29 L 138.70 140.91 C 138.01 141.45 137.89 142.45 138.44 143.14 C 138.98 143.83 139.98 143.94 140.67 143.40 Z M 141.46 142.78 L 142.24 142.15 C 142.92 141.60 143.03 140.60 142.48 139.91 C 141.93 139.23 140.93 139.12 140.25 139.67 L 139.47 140.30 C 138.78 140.85 138.68 141.85 139.23 142.53 C 139.78 143.22 140.78 143.33 141.46 142.78 Z M 142.26 142.14 L 143.05 141.48 C 143.72 140.92 143.82 139.92 143.26 139.24 C 142.70 138.57 141.70 138.47 141.02 139.03 L 140.23 139.68 C 139.55 140.24 139.46 141.25 140.02 141.92 C 140.58 142.60 141.58 142.70 142.26 142.14 Z M 143.06 141.48 L 143.84 140.82 C 144.51 140.26 144.60 139.25 144.03 138.58 C 143.47 137.90 142.46 137.81 141.79 138.38 L 141.01 139.04 C 140.33 139.60 140.25 140.61 140.81 141.28 C 141.38 141.96 142.38 142.05 143.06 141.48 Z M 143.84 140.82 L 144.60 140.18 C 145.28 139.62 145.36 138.61 144.80 137.93 C 144.23 137.26 143.22 137.17 142.54 137.74 L 141.78 138.38 C 141.11 138.95 141.02 139.96 141.59 140.63 C 142.16 141.31 143.17 141.39 143.84 140.82 Z M 144.60 140.19 L 145.34 139.58 C 146.02 139.01 146.11 138.01 145.55 137.33 C 144.98 136.64 143.97 136.55 143.29 137.12 L 142.55 137.73 C 141.87 138.30 141.78 139.30 142.34 139.98 C 142.91 140.67 143.92 140.76 144.60 140.19 Z M 145.32 139.59 L 146.07 138.99 C 146.76 138.43 146.87 137.42 146.31 136.73 C 145.75 136.04 144.74 135.94 144.05 136.49 L 143.30 137.10 C 142.61 137.66 142.51 138.67 143.07 139.36 C 143.62 140.05 144.63 140.15 145.32 139.59 Z M 146.06 139.00 L 146.82 138.39 C 147.52 137.84 147.63 136.83 147.08 136.13 C 146.52 135.44 145.51 135.33 144.82 135.88 L 144.06 136.48 C 143.36 137.04 143.25 138.05 143.80 138.74 C 144.36 139.44 145.37 139.55 146.06 139.00 Z M 146.83 138.40 L 147.64 137.75 C 148.34 137.19 148.45 136.18 147.89 135.48 C 147.34 134.79 146.32 134.67 145.63 135.23 L 144.82 135.88 C 144.12 136.43 144.01 137.45 144.56 138.14 C 145.12 138.84 146.13 138.95 146.83 138.40 Z M 147.65 137.74 L 148.40 137.14 C 149.09 136.58 149.20 135.57 148.64 134.87 C 148.08 134.18 147.06 134.07 146.37 134.63 L 145.62 135.23 C 144.93 135.79 144.82 136.81 145.38 137.50 C 145.94 138.20 146.95 138.30 147.65 137.74 Z M 148.40 137.15 L 149.16 136.54 C 149.85 135.97 149.96 134.95 149.40 134.26 C 148.84 133.56 147.82 133.45 147.12 134.01 L 146.36 134.62 C 145.67 135.18 145.56 136.21 146.12 136.90 C 146.68 137.60 147.70 137.71 148.40 137.15 Z M 149.15 136.55 L 149.95 135.91 C 150.65 135.35 150.77 134.32 150.21 133.62 C 149.65 132.92 148.62 132.80 147.92 133.36 L 147.12 134.00 C 146.42 134.56 146.30 135.59 146.87 136.29 C 147.43 136.99 148.45 137.11 149.15 136.55 Z M 149.94 135.93 L 150.76 135.28 C 151.48 134.73 151.60 133.70 151.05 132.99 C 150.49 132.28 149.46 132.15 148.75 132.71 L 147.93 133.35 C 147.22 133.90 147.09 134.93 147.65 135.64 C 148.20 136.36 149.23 136.48 149.94 135.93 Z M 150.75 135.31 L 151.65 134.63 C 152.37 134.09 152.52 133.05 151.97 132.33 C 151.42 131.60 150.39 131.46 149.67 132.01 L 148.77 132.68 C 148.04 133.23 147.90 134.26 148.44 134.99 C 148.99 135.71 150.02 135.86 150.75 135.31 Z M 151.61 134.69 L 152.61 133.99 C 153.37 133.46 153.55 132.43 153.03 131.67 C 152.50 130.91 151.47 130.73 150.71 131.25 L 149.70 131.95 C 148.95 132.48 148.76 133.51 149.29 134.27 C 149.81 135.03 150.85 135.21 151.61 134.69 Z M 152.49 134.10 L 153.38 133.60 C 154.20 133.15 154.50 132.11 154.04 131.29 C 153.59 130.48 152.55 130.18 151.73 130.64 L 150.83 131.14 C 150.02 131.59 149.72 132.63 150.18 133.45 C 150.63 134.27 151.67 134.56 152.49 134.10 Z M 152.99 133.79 L 153.70 133.61 C 154.63 133.37 155.18 132.43 154.94 131.50 C 154.70 130.58 153.76 130.03 152.84 130.26 L 152.13 130.45 C 151.20 130.69 150.65 131.63 150.89 132.55 C 151.13 133.48 152.07 134.03 152.99 133.79 Z M 152.34 133.42 L 152.85 133.74 C 153.66 134.25 154.75 134.01 155.26 133.19 C 155.78 132.37 155.53 131.29 154.71 130.78 L 154.20 130.45 C 153.38 129.94 152.30 130.18 151.79 131.00 C 151.27 131.82 151.52 132.90 152.34 133.42 Z M 152.07 132.73 L 152.32 133.60 C 152.57 134.55 153.55 135.10 154.49 134.84 C 155.43 134.58 155.98 133.61 155.73 132.67 L 155.48 131.79 C 155.23 130.85 154.25 130.29 153.31 130.55 C 152.37 130.81 151.82 131.78 152.07 132.73 Z M 152.25 133.31 L 152.37 134.53 C 152.47 135.51 153.34 136.23 154.32 136.13 C 155.30 136.03 156.02 135.16 155.92 134.18 L 155.80 132.96 C 155.70 131.98 154.82 131.26 153.84 131.36 C 152.86 131.46 152.15 132.33 152.25 133.31 Z M 152.36 134.56 L 152.47 135.51 C 152.59 136.50 153.48 137.20 154.46 137.08 C 155.45 136.97 156.15 136.08 156.04 135.09 L 155.93 134.15 C 155.81 133.16 154.92 132.46 153.94 132.57 C 152.95 132.69 152.25 133.58 152.36 134.56 Z M 152.47 135.58 L 152.62 136.51 C 152.77 137.49 153.69 138.17 154.68 138.01 C 155.66 137.86 156.33 136.94 156.18 135.96 L 156.04 135.02 C 155.88 134.04 154.96 133.37 153.98 133.52 C 152.99 133.67 152.32 134.60 152.47 135.58 Z M 152.62 136.57 L 152.81 137.55 C 152.99 138.54 153.94 139.18 154.92 139.00 C 155.90 138.81 156.55 137.87 156.36 136.88 L 156.18 135.90 C 155.99 134.92 155.05 134.27 154.06 134.45 C 153.08 134.64 152.44 135.59 152.62 136.57 Z M 152.81 137.60 L 153.04 138.65 C 153.25 139.63 154.22 140.25 155.20 140.04 C 156.18 139.83 156.80 138.86 156.59 137.88 L 156.36 136.84 C 156.15 135.86 155.18 135.23 154.20 135.44 C 153.22 135.66 152.60 136.62 152.81 137.60 Z M 153.04 138.69 L 153.29 139.73 C 153.52 140.71 154.50 141.31 155.48 141.08 C 156.46 140.85 157.07 139.86 156.83 138.88 L 156.59 137.85 C 156.35 136.87 155.37 136.26 154.39 136.50 C 153.41 136.73 152.81 137.71 153.04 138.69 Z M 153.29 139.76 L 153.54 140.75 C 153.79 141.72 154.79 142.31 155.76 142.06 C 156.74 141.81 157.33 140.82 157.08 139.84 L 156.83 138.86 C 156.58 137.88 155.59 137.29 154.61 137.54 C 153.63 137.79 153.04 138.78 153.29 139.76 Z M 153.54 140.77 L 153.81 141.77 C 154.08 142.75 155.08 143.32 156.06 143.06 C 157.04 142.80 157.61 141.79 157.35 140.82 L 157.08 139.82 C 156.82 138.84 155.81 138.26 154.83 138.53 C 153.86 138.79 153.28 139.80 153.54 140.77 Z M 153.82 141.80 L 154.10 142.78 C 154.38 143.76 155.39 144.32 156.37 144.04 C 157.34 143.76 157.91 142.75 157.63 141.77 L 157.35 140.79 C 157.07 139.82 156.05 139.25 155.08 139.53 C 154.10 139.81 153.54 140.82 153.82 141.80 Z M 154.10 142.81 L 154.39 143.75 C 154.68 144.72 155.71 145.27 156.68 144.98 C 157.65 144.69 158.20 143.66 157.91 142.69 L 157.62 141.75 C 157.33 140.77 156.30 140.23 155.33 140.52 C 154.36 140.81 153.81 141.84 154.10 142.81 Z M 154.39 143.79 L 154.70 144.72 C 155.01 145.69 156.05 146.22 157.02 145.91 C 157.98 145.60 158.51 144.56 158.20 143.59 L 157.90 142.65 C 157.59 141.69 156.55 141.16 155.58 141.47 C 154.61 141.78 154.08 142.82 154.39 143.79 Z M 154.71 144.77 L 155.07 145.80 C 155.41 146.76 156.46 147.26 157.43 146.92 C 158.39 146.59 158.89 145.53 158.55 144.57 L 158.19 143.54 C 157.85 142.58 156.80 142.08 155.84 142.42 C 154.88 142.75 154.37 143.81 154.71 144.77 Z M 155.09 145.85 L 155.45 146.77 C 155.81 147.72 156.88 148.20 157.83 147.83 C 158.79 147.46 159.26 146.39 158.89 145.44 L 158.53 144.52 C 158.17 143.57 157.10 143.10 156.15 143.46 C 155.20 143.83 154.72 144.90 155.09 145.85 Z M 155.46 146.82 L 155.82 147.68 C 156.21 148.62 157.30 149.07 158.24 148.67 C 159.18 148.28 159.63 147.20 159.23 146.26 L 158.87 145.40 C 158.48 144.45 157.40 144.01 156.46 144.40 C 155.52 144.79 155.07 145.88 155.46 146.82 Z M 155.83 147.71 L 156.21 148.57 C 156.62 149.51 157.71 149.93 158.65 149.52 C 159.58 149.12 160.01 148.02 159.60 147.09 L 159.22 146.23 C 158.81 145.29 157.72 144.86 156.79 145.27 C 155.85 145.68 155.42 146.77 155.83 147.71 Z M 156.22 148.59 L 156.62 149.50 C 157.05 150.43 158.14 150.84 159.07 150.42 C 160.01 150.00 160.42 148.90 160.00 147.97 L 159.59 147.07 C 159.17 146.13 158.07 145.72 157.14 146.14 C 156.21 146.56 155.80 147.66 156.22 148.59 Z M 156.63 149.52 L 157.06 150.43 C 157.50 151.36 158.60 151.75 159.53 151.32 C 160.45 150.88 160.85 149.78 160.42 148.85 L 159.99 147.94 C 159.55 147.02 158.45 146.62 157.52 147.06 C 156.60 147.49 156.20 148.59 156.63 149.52 Z M 157.08 150.46 L 157.52 151.37 C 157.98 152.29 159.09 152.66 160.01 152.21 C 160.93 151.76 161.30 150.64 160.85 149.72 L 160.40 148.82 C 159.95 147.90 158.84 147.52 157.92 147.98 C 157.00 148.43 156.62 149.54 157.08 150.46 Z M 157.54 151.41 L 158.01 152.29 C 158.48 153.20 159.60 153.55 160.51 153.08 C 161.42 152.60 161.77 151.48 161.30 150.57 L 160.83 149.68 C 160.36 148.78 159.23 148.43 158.32 148.90 C 157.42 149.38 157.07 150.50 157.54 151.41 Z M 158.03 152.34 L 158.51 153.21 C 159.01 154.10 160.14 154.43 161.04 153.93 C 161.94 153.43 162.26 152.30 161.76 151.40 L 161.27 150.53 C 160.77 149.63 159.64 149.31 158.75 149.81 C 157.85 150.31 157.53 151.44 158.03 152.34 Z M 158.53 153.25 L 159.04 154.11 C 159.56 154.99 160.70 155.28 161.59 154.76 C 162.47 154.24 162.77 153.10 162.24 152.22 L 161.74 151.36 C 161.21 150.47 160.07 150.18 159.19 150.70 C 158.31 151.22 158.01 152.36 158.53 153.25 Z M 159.06 154.15 L 159.60 155.00 C 160.14 155.87 161.29 156.14 162.16 155.59 C 163.03 155.05 163.30 153.90 162.75 153.03 L 162.22 152.18 C 161.68 151.30 160.53 151.04 159.66 151.58 C 158.79 152.13 158.52 153.28 159.06 154.15 Z M 159.62 155.04 L 160.16 155.85 C 160.72 156.71 161.87 156.95 162.73 156.38 C 163.59 155.82 163.83 154.67 163.27 153.81 L 162.73 152.99 C 162.17 152.13 161.01 151.90 160.15 152.46 C 159.29 153.02 159.06 154.18 159.62 155.04 Z M 160.18 155.88 L 160.73 156.69 C 161.32 157.54 162.47 157.76 163.32 157.18 C 164.17 156.59 164.38 155.44 163.80 154.59 L 163.25 153.78 C 162.66 152.93 161.51 152.71 160.66 153.29 C 159.81 153.88 159.60 155.03 160.18 155.88 Z M 160.75 156.72 L 161.34 157.54 C 161.93 158.38 163.09 158.57 163.93 157.98 C 164.77 157.38 164.96 156.22 164.37 155.38 L 163.79 154.56 C 163.19 153.73 162.03 153.53 161.19 154.13 C 160.35 154.72 160.16 155.88 160.75 156.72 Z M 161.35 157.56 L 161.96 158.39 C 162.57 159.22 163.73 159.41 164.56 158.80 C 165.39 158.19 165.57 157.03 164.96 156.20 L 164.35 155.37 C 163.75 154.54 162.58 154.35 161.75 154.96 C 160.92 155.57 160.74 156.73 161.35 157.56 Z M 161.97 158.41 L 162.55 159.19 C 163.16 160.01 164.33 160.18 165.15 159.56 C 165.98 158.95 166.15 157.78 165.53 156.96 L 164.95 156.18 C 164.34 155.36 163.17 155.19 162.35 155.81 C 161.52 156.42 161.36 157.59 161.97 158.41 Z M 162.56 159.20 L 163.16 159.99 C 163.79 160.80 164.96 160.96 165.77 160.33 C 166.59 159.71 166.74 158.54 166.12 157.72 L 165.52 156.94 C 164.89 156.13 163.72 155.97 162.91 156.59 C 162.09 157.22 161.94 158.39 162.56 159.20 Z M 163.18 160.01 L 163.80 160.80 C 164.44 161.60 165.61 161.74 166.42 161.10 C 167.22 160.47 167.36 159.30 166.72 158.49 L 166.10 157.70 C 165.46 156.90 164.29 156.76 163.49 157.39 C 162.68 158.03 162.54 159.20 163.18 160.01 Z M 163.82 160.82 L 164.47 161.62 C 165.12 162.41 166.30 162.53 167.09 161.88 C 167.89 161.23 168.00 160.06 167.35 159.26 L 166.70 158.47 C 166.05 157.67 164.88 157.56 164.09 158.21 C 163.29 158.86 163.17 160.03 163.82 160.82 Z M 164.50 161.64 L 165.14 162.40 C 165.80 163.18 166.98 163.28 167.76 162.61 C 168.54 161.95 168.64 160.77 167.97 159.99 L 167.33 159.24 C 166.66 158.45 165.49 158.36 164.71 159.02 C 163.93 159.69 163.83 160.86 164.50 161.64 Z M 165.16 162.42 L 165.81 163.16 C 166.49 163.93 167.66 164.00 168.43 163.32 C 169.20 162.64 169.27 161.47 168.59 160.70 L 167.95 159.97 C 167.27 159.20 166.10 159.12 165.33 159.80 C 164.56 160.48 164.49 161.65 165.16 162.42 Z M 165.83 163.18 L 166.50 163.91 C 167.19 164.67 168.37 164.72 169.12 164.03 C 169.88 163.34 169.93 162.17 169.24 161.41 L 168.57 160.68 C 167.88 159.92 166.71 159.87 165.95 160.56 C 165.20 161.25 165.14 162.42 165.83 163.18 Z M 166.52 163.93 L 167.22 164.67 C 167.92 165.42 169.09 165.45 169.84 164.75 C 170.58 164.05 170.62 162.88 169.92 162.13 L 169.22 161.39 C 168.52 160.65 167.35 160.61 166.60 161.31 C 165.86 162.01 165.82 163.19 166.52 163.93 Z M 167.24 164.69 L 167.96 165.43 C 168.67 166.17 169.84 166.19 170.57 165.48 C 171.31 164.76 171.33 163.59 170.62 162.86 L 169.90 162.11 C 169.19 161.38 168.02 161.36 167.28 162.07 C 166.55 162.78 166.53 163.95 167.24 164.69 Z M 167.97 165.45 L 168.65 166.13 C 169.37 166.85 170.54 166.86 171.26 166.14 C 171.99 165.42 171.99 164.25 171.28 163.53 L 170.60 162.84 C 169.88 162.12 168.71 162.11 167.99 162.83 C 167.26 163.55 167.25 164.72 167.97 165.45 Z M 168.66 166.14 L 169.35 166.82 C 170.08 167.54 171.25 167.54 171.97 166.81 C 172.68 166.08 172.68 164.91 171.95 164.20 L 171.26 163.51 C 170.54 162.80 169.37 162.80 168.65 163.53 C 167.93 164.25 167.94 165.42 168.66 166.14 Z M 169.37 166.83 L 170.08 167.53 C 170.81 168.24 171.98 168.22 172.69 167.49 C 173.40 166.76 173.38 165.59 172.65 164.88 L 171.94 164.19 C 171.21 163.48 170.04 163.49 169.33 164.22 C 168.62 164.96 168.64 166.12 169.37 166.83 Z M 170.09 167.54 L 170.83 168.24 C 171.56 168.94 172.73 168.92 173.44 168.18 C 174.14 167.45 174.11 166.28 173.38 165.57 L 172.64 164.87 C 171.91 164.17 170.74 164.19 170.03 164.93 C 169.33 165.67 169.36 166.83 170.09 167.54 Z M 170.84 168.25 L 171.60 168.96 C 172.34 169.66 173.50 169.63 174.20 168.89 C 174.90 168.15 174.86 166.98 174.12 166.28 L 173.37 165.57 C 172.63 164.87 171.46 164.90 170.76 165.64 C 170.06 166.38 170.10 167.55 170.84 168.25 Z M 171.61 168.97 L 172.34 169.65 C 173.09 170.35 174.25 170.31 174.94 169.56 C 175.64 168.82 175.59 167.66 174.85 166.96 L 174.12 166.28 C 173.37 165.58 172.21 165.63 171.52 166.37 C 170.82 167.11 170.86 168.28 171.61 168.97 Z M 172.35 169.66 L 173.09 170.34 C 173.84 171.03 175.00 170.98 175.69 170.23 C 176.37 169.48 176.33 168.32 175.58 167.63 L 174.84 166.96 C 174.09 166.27 172.93 166.32 172.24 167.06 C 171.56 167.81 171.61 168.97 172.35 169.66 Z M 173.10 170.35 L 173.85 171.02 C 174.60 171.70 175.76 171.65 176.44 170.90 C 177.12 170.14 177.07 168.98 176.31 168.30 L 175.57 167.63 C 174.81 166.95 173.65 167.00 172.97 167.76 C 172.29 168.51 172.35 169.67 173.10 170.35 Z M 173.87 171.04 L 174.62 171.71 C 175.38 172.38 176.54 172.31 177.21 171.55 C 177.88 170.79 177.81 169.63 177.05 168.96 L 176.30 168.29 C 175.54 167.62 174.38 167.69 173.71 168.45 C 173.04 169.21 173.11 170.36 173.87 171.04 Z M 174.64 171.72 L 175.40 172.37 C 176.16 173.03 177.32 172.95 177.98 172.19 C 178.64 171.42 178.56 170.27 177.79 169.60 L 177.04 168.95 C 176.27 168.29 175.12 168.37 174.45 169.14 C 173.79 169.90 173.88 171.06 174.64 171.72 Z M 175.42 172.39 L 176.18 173.03 C 176.95 173.68 178.11 173.57 178.76 172.80 C 179.40 172.03 179.30 170.87 178.53 170.23 L 177.77 169.59 C 177.00 168.94 175.84 169.04 175.20 169.81 C 174.55 170.59 174.65 171.74 175.42 172.39 Z M 176.21 173.04 L 177.01 173.69 C 177.79 174.33 178.94 174.21 179.58 173.42 C 180.21 172.64 180.09 171.49 179.31 170.86 L 178.50 170.21 C 177.72 169.57 176.57 169.69 175.94 170.48 C 175.30 171.26 175.42 172.41 176.21 173.04 Z M 177.04 173.71 L 177.83 174.33 C 178.63 174.95 179.77 174.81 180.39 174.02 C 181.01 173.23 180.87 172.08 180.08 171.46 L 179.28 170.84 C 178.49 170.22 177.34 170.36 176.72 171.15 C 176.10 171.95 176.24 173.09 177.04 173.71 Z M 177.86 174.35 L 178.65 174.95 C 179.45 175.55 180.59 175.40 181.20 174.60 C 181.80 173.80 181.65 172.66 180.84 172.05 L 180.05 171.45 C 179.25 170.84 178.11 171.00 177.51 171.80 C 176.90 172.60 177.06 173.74 177.86 174.35 Z M 178.67 174.96 L 179.46 175.54 C 180.27 176.14 181.40 175.97 182.00 175.16 C 182.59 174.35 182.42 173.22 181.62 172.62 L 180.82 172.04 C 180.02 171.44 178.88 171.61 178.29 172.42 C 177.69 173.23 177.86 174.36 178.67 174.96 Z M 179.48 175.55 L 180.27 176.12 C 181.08 176.71 182.21 176.53 182.80 175.71 C 183.39 174.90 183.20 173.77 182.39 173.19 L 181.60 172.61 C 180.79 172.03 179.65 172.21 179.07 173.02 C 178.48 173.83 178.67 174.96 179.48 175.55 Z M 180.28 176.13 L 181.10 176.71 C 181.91 177.29 183.04 177.09 183.62 176.28 C 184.20 175.47 184.01 174.34 183.19 173.76 L 182.38 173.18 C 181.56 172.60 180.44 172.79 179.86 173.61 C 179.28 174.42 179.47 175.55 180.28 176.13 Z M 181.12 176.71 L 181.94 177.29 C 182.76 177.86 183.88 177.66 184.45 176.84 C 185.02 176.03 184.82 174.90 184.00 174.33 L 183.18 173.76 C 182.36 173.19 181.24 173.39 180.67 174.20 C 180.10 175.02 180.30 176.14 181.12 176.71 Z M 181.96 177.29 L 182.78 177.86 C 183.60 178.42 184.72 178.21 185.28 177.39 C 185.84 176.57 185.63 175.45 184.81 174.89 L 183.99 174.33 C 183.17 173.77 182.05 173.97 181.49 174.79 C 180.93 175.61 181.14 176.73 181.96 177.29 Z M 182.80 177.86 L 183.63 178.42 C 184.45 178.97 185.57 178.75 186.12 177.93 C 186.67 177.11 186.45 175.99 185.63 175.44 L 184.80 174.89 C 183.97 174.34 182.86 174.56 182.31 175.38 C 181.76 176.20 181.98 177.31 182.80 177.86 Z M 183.65 178.43 L 184.48 178.97 C 185.31 179.51 186.41 179.28 186.95 178.45 C 187.49 177.63 187.26 176.52 186.44 175.98 L 185.61 175.44 C 184.78 174.90 183.67 175.13 183.13 175.95 C 182.59 176.78 182.82 177.89 183.65 178.43 Z M 184.50 178.98 L 185.36 179.52 C 186.19 180.05 187.29 179.80 187.82 178.97 C 188.34 178.14 188.10 177.04 187.27 176.51 L 186.41 175.97 C 185.58 175.44 184.48 175.69 183.96 176.52 C 183.43 177.35 183.67 178.45 184.50 178.98 Z M 185.38 179.53 L 186.24 180.06 C 187.08 180.57 188.17 180.32 188.69 179.48 C 189.20 178.65 188.94 177.55 188.11 177.04 L 187.25 176.51 C 186.41 175.99 185.32 176.25 184.80 177.09 C 184.29 177.92 184.55 179.01 185.38 179.53 Z M 186.27 180.07 L 187.13 180.58 C 187.97 181.08 189.05 180.81 189.55 179.97 C 190.05 179.14 189.78 178.05 188.95 177.55 L 188.09 177.03 C 187.25 176.53 186.16 176.80 185.66 177.64 C 185.16 178.48 185.43 179.56 186.27 180.07 Z M 187.15 180.59 L 188.01 181.09 C 188.85 181.58 189.93 181.29 190.42 180.45 C 190.90 179.61 190.62 178.53 189.78 178.04 L 188.92 177.54 C 188.08 177.05 187.00 177.34 186.51 178.18 C 186.03 179.02 186.31 180.10 187.15 180.59 Z M 188.03 181.09 L 188.88 181.57 C 189.73 182.05 190.80 181.75 191.27 180.91 C 191.75 180.07 191.45 179.00 190.61 178.52 L 189.76 178.04 C 188.91 177.56 187.84 177.86 187.37 178.70 C 186.89 179.54 187.19 180.61 188.03 181.09 Z M 188.90 181.58 L 189.80 182.07 C 190.64 182.53 191.70 182.22 192.17 181.38 C 192.63 180.53 192.32 179.47 191.48 179.01 L 190.59 178.52 C 189.74 178.05 188.68 178.36 188.22 179.21 C 187.75 180.05 188.06 181.11 188.90 181.58 Z M 189.82 182.07 L 190.71 182.54 C 191.55 183.00 192.61 182.68 193.06 181.83 C 193.51 180.99 193.19 179.93 192.35 179.48 L 191.46 179.00 C 190.61 178.55 189.56 178.87 189.10 179.72 C 188.65 180.56 188.97 181.61 189.82 182.07 Z M 190.73 182.54 L 191.61 183.01 C 192.45 183.45 193.50 183.12 193.94 182.28 C 194.38 181.43 194.06 180.39 193.21 179.95 L 192.33 179.48 C 191.48 179.04 190.44 179.37 190.00 180.21 C 189.55 181.06 189.88 182.10 190.73 182.54 Z M 191.62 183.00 L 192.50 183.46 C 193.35 183.89 194.38 183.56 194.82 182.71 C 195.25 181.87 194.92 180.84 194.08 180.40 L 193.20 179.95 C 192.35 179.51 191.32 179.85 190.88 180.69 C 190.45 181.53 190.78 182.57 191.62 183.00 Z M 192.51 183.45 L 193.39 183.90 C 194.23 184.33 195.26 183.99 195.69 183.15 C 196.12 182.31 195.78 181.28 194.94 180.85 L 194.06 180.41 C 193.22 179.98 192.20 180.31 191.77 181.15 C 191.34 181.99 191.67 183.02 192.51 183.45 Z M 193.40 183.89 L 194.29 184.34 C 195.12 184.76 196.14 184.42 196.57 183.59 C 196.99 182.75 196.65 181.73 195.82 181.30 L 194.93 180.86 C 194.09 180.44 193.07 180.77 192.65 181.61 C 192.23 182.45 192.56 183.47 193.40 183.89 Z M 194.30 184.33 L 195.19 184.77 C 196.02 185.19 197.03 184.85 197.45 184.02 C 197.86 183.18 197.52 182.17 196.69 181.75 L 195.80 181.31 C 194.97 180.89 193.96 181.23 193.54 182.07 C 193.12 182.90 193.46 183.92 194.30 184.33 Z M 195.20 184.77 L 196.10 185.21 C 196.93 185.62 197.93 185.27 198.34 184.44 C 198.75 183.61 198.40 182.60 197.57 182.20 L 196.68 181.76 C 195.84 181.35 194.84 181.69 194.43 182.53 C 194.02 183.36 194.37 184.36 195.20 184.77 Z M 196.11 185.21 L 197.03 185.64 C 197.86 186.04 198.85 185.69 199.25 184.86 C 199.65 184.03 199.30 183.03 198.47 182.64 L 197.55 182.20 C 196.72 181.80 195.73 182.15 195.33 182.98 C 194.93 183.81 195.28 184.81 196.11 185.21 Z M 197.05 185.64 L 197.96 186.07 C 198.79 186.45 199.77 186.09 200.16 185.26 C 200.55 184.44 200.19 183.45 199.36 183.06 L 198.45 182.64 C 197.62 182.25 196.63 182.61 196.25 183.44 C 195.86 184.27 196.22 185.25 197.05 185.64 Z M 197.98 186.06 L 198.90 186.48 C 199.73 186.85 200.70 186.49 201.08 185.66 C 201.45 184.83 201.09 183.86 200.26 183.48 L 199.34 183.07 C 198.51 182.69 197.54 183.06 197.16 183.89 C 196.79 184.71 197.15 185.69 197.98 186.06 Z M 198.92 186.48 L 199.85 186.88 C 200.68 187.25 201.64 186.87 202.00 186.04 C 202.36 185.22 201.99 184.25 201.16 183.89 L 200.24 183.49 C 199.41 183.12 198.45 183.50 198.08 184.33 C 197.72 185.15 198.10 186.12 198.92 186.48 Z M 199.88 186.88 L 200.80 187.27 C 201.62 187.62 202.58 187.23 202.92 186.41 C 203.27 185.58 202.88 184.63 202.06 184.28 L 201.14 183.89 C 200.31 183.54 199.36 183.93 199.01 184.76 C 198.66 185.58 199.05 186.53 199.88 186.88 Z M 200.83 187.27 L 201.74 187.64 C 202.56 187.97 203.50 187.57 203.83 186.74 C 204.16 185.92 203.76 184.98 202.94 184.65 L 202.03 184.28 C 201.20 183.95 200.27 184.35 199.93 185.18 C 199.60 186.00 200.00 186.94 200.83 187.27 Z M 201.77 187.64 L 202.73 188.00 C 203.56 188.31 204.48 187.90 204.79 187.07 C 205.10 186.25 204.69 185.32 203.86 185.01 L 202.90 184.65 C 202.08 184.33 201.16 184.75 200.84 185.58 C 200.53 186.40 200.95 187.32 201.77 187.64 Z M 202.77 188.00 L 203.71 188.33 C 204.54 188.63 205.44 188.19 205.74 187.37 C 206.03 186.54 205.60 185.63 204.77 185.34 L 203.83 185.01 C 203.00 184.72 202.09 185.15 201.80 185.98 C 201.51 186.80 201.94 187.71 202.77 188.00 Z M 203.75 188.33 L 204.69 188.64 C 205.51 188.91 206.40 188.46 206.68 187.64 C 206.95 186.81 206.50 185.92 205.67 185.65 L 204.73 185.34 C 203.91 185.07 203.02 185.52 202.75 186.35 C 202.47 187.17 202.92 188.06 203.75 188.33 Z M 204.72 188.64 L 205.67 188.93 C 206.49 189.18 207.37 188.72 207.62 187.89 C 207.87 187.07 207.40 186.19 206.58 185.94 L 205.64 185.65 C 204.81 185.40 203.94 185.87 203.68 186.69 C 203.43 187.52 203.90 188.39 204.72 188.64 Z M 205.70 188.93 L 206.64 189.19 C 207.47 189.43 208.33 188.95 208.56 188.13 C 208.79 187.30 208.31 186.44 207.49 186.21 L 206.55 185.94 C 205.72 185.71 204.86 186.19 204.63 187.01 C 204.40 187.84 204.88 188.69 205.70 188.93 Z M 206.67 189.19 L 207.63 189.44 C 208.45 189.66 209.29 189.17 209.51 188.35 C 209.73 187.52 209.23 186.68 208.41 186.47 L 207.46 186.21 C 206.64 186.00 205.80 186.49 205.58 187.31 C 205.36 188.13 205.85 188.97 206.67 189.19 Z M 207.66 189.44 L 208.63 189.68 C 209.45 189.88 210.27 189.38 210.48 188.56 C 210.68 187.74 210.17 186.91 209.36 186.71 L 208.38 186.47 C 207.56 186.27 206.74 186.77 206.54 187.59 C 206.33 188.41 206.84 189.24 207.66 189.44 Z M 208.65 189.67 L 209.64 189.90 C 210.46 190.08 211.27 189.57 211.46 188.75 C 211.64 187.94 211.13 187.12 210.31 186.94 L 209.33 186.71 C 208.51 186.53 207.70 187.04 207.51 187.85 C 207.33 188.67 207.84 189.49 208.65 189.67 Z M 209.67 189.89 L 210.66 190.10 C 211.47 190.27 212.27 189.75 212.45 188.94 C 212.62 188.13 212.10 187.33 211.28 187.15 L 210.29 186.94 C 209.48 186.77 208.68 187.29 208.50 188.11 C 208.33 188.92 208.85 189.72 209.67 189.89 Z M 210.68 190.10 L 211.66 190.29 C 212.47 190.45 213.25 189.92 213.41 189.11 C 213.57 188.30 213.05 187.51 212.23 187.35 L 211.26 187.16 C 210.45 187.00 209.66 187.53 209.50 188.34 C 209.34 189.15 209.87 189.94 210.68 190.10 Z M 211.68 190.28 L 212.66 190.46 C 213.47 190.61 214.24 190.08 214.39 189.27 C 214.54 188.46 214.00 187.68 213.20 187.54 L 212.21 187.36 C 211.41 187.21 210.63 187.74 210.48 188.55 C 210.33 189.36 210.87 190.13 211.68 190.28 Z M 212.67 190.46 L 213.66 190.63 C 214.47 190.77 215.23 190.23 215.37 189.42 C 215.51 188.62 214.97 187.85 214.17 187.71 L 213.18 187.54 C 212.37 187.40 211.61 187.94 211.47 188.75 C 211.33 189.55 211.87 190.32 212.67 190.46 Z M 213.68 190.62 L 214.67 190.78 C 215.47 190.92 216.23 190.37 216.36 189.57 C 216.49 188.77 215.95 188.01 215.15 187.88 L 214.15 187.72 C 213.35 187.59 212.60 188.13 212.46 188.93 C 212.33 189.73 212.88 190.49 213.68 190.62 Z M 214.68 190.78 L 215.67 190.93 C 216.47 191.06 217.22 190.51 217.35 189.72 C 217.47 188.92 216.93 188.17 216.13 188.04 L 215.14 187.89 C 214.34 187.76 213.59 188.31 213.46 189.11 C 213.34 189.90 213.88 190.65 214.68 190.78 Z M 215.68 190.93 L 216.67 191.08 C 217.47 191.20 218.21 190.65 218.33 189.85 C 218.45 189.06 217.90 188.32 217.11 188.20 L 216.12 188.05 C 215.32 187.93 214.58 188.48 214.46 189.27 C 214.34 190.07 214.89 190.81 215.68 190.93 Z M 216.69 191.07 L 217.68 191.22 C 218.47 191.33 219.20 190.78 219.32 189.98 C 219.43 189.19 218.88 188.46 218.09 188.34 L 217.10 188.20 C 216.30 188.09 215.57 188.64 215.45 189.43 C 215.34 190.23 215.89 190.96 216.69 191.07 Z M 217.69 191.21 L 218.68 191.34 C 219.47 191.45 220.20 190.89 220.30 190.10 C 220.41 189.31 219.85 188.58 219.06 188.48 L 218.07 188.35 C 217.28 188.24 216.55 188.80 216.45 189.59 C 216.34 190.38 216.90 191.11 217.69 191.21 Z M 218.70 191.34 L 219.69 191.46 C 220.48 191.56 221.19 191.00 221.29 190.21 C 221.39 189.42 220.83 188.70 220.04 188.60 L 219.05 188.48 C 218.26 188.39 217.54 188.95 217.44 189.74 C 217.35 190.53 217.91 191.24 218.70 191.34 Z M 219.70 191.46 L 220.68 191.57 C 221.47 191.65 222.18 191.09 222.27 190.30 C 222.36 189.51 221.79 188.80 221.00 188.71 L 220.02 188.61 C 219.23 188.52 218.52 189.09 218.44 189.87 C 218.35 190.66 218.92 191.37 219.70 191.46 Z M 220.70 191.57 L 221.68 191.66 C 222.47 191.74 223.17 191.17 223.25 190.38 C 223.33 189.59 222.75 188.89 221.97 188.81 L 220.99 188.72 C 220.20 188.64 219.50 189.21 219.42 190.00 C 219.34 190.78 219.91 191.49 220.70 191.57 Z M 221.69 191.66 L 222.68 191.75 C 223.47 191.83 224.17 191.25 224.24 190.46 C 224.31 189.67 223.73 188.98 222.95 188.91 L 221.96 188.81 C 221.17 188.74 220.47 189.32 220.40 190.11 C 220.33 190.89 220.91 191.59 221.69 191.66 Z M 222.69 191.75 L 223.70 191.84 C 224.48 191.91 225.17 191.32 225.24 190.54 C 225.31 189.75 224.73 189.06 223.94 188.99 L 222.94 188.91 C 222.15 188.84 221.46 189.42 221.39 190.21 C 221.32 190.99 221.91 191.69 222.69 191.75 Z M 223.70 191.84 L 224.72 191.92 C 225.51 191.99 226.19 191.40 226.26 190.62 C 226.32 189.83 225.74 189.14 224.95 189.08 L 223.94 188.99 C 223.15 188.93 222.46 189.51 222.40 190.30 C 222.33 191.08 222.92 191.77 223.70 191.84 Z M 224.72 191.92 L 225.70 192.00 C 226.48 192.06 227.17 191.48 227.23 190.69 C 227.29 189.91 226.71 189.22 225.92 189.16 L 224.95 189.08 C 224.17 189.02 223.48 189.60 223.42 190.39 C 223.35 191.17 223.94 191.86 224.72 191.92 Z M 225.70 192.00 L 226.69 192.08 C 227.47 192.14 228.16 191.55 228.22 190.77 C 228.28 189.98 227.70 189.30 226.91 189.23 L 225.92 189.16 C 225.14 189.09 224.45 189.68 224.39 190.47 C 224.33 191.25 224.91 191.94 225.70 192.00 Z M 226.69 192.08 L 227.69 192.16 C 228.48 192.22 229.16 191.63 229.22 190.84 C 229.28 190.06 228.70 189.37 227.91 189.31 L 226.91 189.23 C 226.13 189.17 225.44 189.76 225.38 190.55 C 225.32 191.33 225.90 192.02 226.69 192.08 Z M 227.69 192.16 L 228.70 192.23 C 229.49 192.29 230.17 191.71 230.23 190.92 C 230.29 190.14 229.71 189.45 228.92 189.39 L 227.91 189.31 C 227.13 189.25 226.44 189.84 226.38 190.62 C 226.32 191.41 226.91 192.09 227.69 192.16 Z M 228.70 192.23 L 229.71 192.31 C 230.50 192.37 231.19 191.78 231.25 191.00 C 231.31 190.21 230.72 189.53 229.93 189.47 L 228.92 189.39 C 228.14 189.33 227.45 189.92 227.39 190.70 C 227.33 191.49 227.92 192.17 228.70 192.23 Z"
      fill="black"
      fill-rule="nonzero" /></svg>