<svg xmlns="http://www.w3.org/2000/svg" width="300" height="300" viewBox="0 0 300 300">
<path d="M 152.67 104.39 L 152.20 105.23 C 151.77 105.97 152.03 106.93 152.78 107.36 C 153.53 107.78 154.48 107.52 154.91 106.77 L 155.39 105.94 C 155.81 105.19 155.55 104.24 154.80 103.81 C 154.05 103.38 153.10 103.64 152.67 104.39 Z M 152.15 105.20 L 151.67 106.05 C 151.23 106.82 151.50 107.81 152.27 108.25 C 153.05 108.69 154.04 108.42 154.48 107.64 L 154.96 106.80 C 155.40 106.02 155.13 105.04 154.35 104.60 C 153.58 104.15 152.59 104.43 152.15 105.20 Z M 151.62 106.03 L 151.13 106.90 C 150.68 107.70 150.96 108.72 151.76 109.17 C 152.57 109.62 153.59 109.34 154.04 108.53 L 154.53 107.66 C 154.98 106.86 154.69 105.84 153.89 105.39 C 153.09 104.94 152.07 105.22 151.62 106.03 Z M 151.08 106.88 L 150.57 107.78 C 150.11 108.62 150.41 109.67 151.24 110.13 C 152.07 110.59 153.12 110.29 153.59 109.46 L 154.09 108.55 C 154.55 107.72 154.25 106.67 153.42 106.21 C 152.59 105.75 151.54 106.05 151.08 106.88 Z M 150.53 107.78 L 150.04 108.68 C 149.57 109.53 149.89 110.60 150.74 111.07 C 151.59 111.54 152.67 111.23 153.13 110.37 L 153.63 109.47 C 154.09 108.61 153.78 107.54 152.93 107.07 C 152.07 106.61 151.00 106.92 150.53 107.78 Z M 150.02 108.68 L 149.54 109.57 C 149.07 110.44 149.39 111.52 150.26 111.98 C 151.12 112.45 152.20 112.13 152.66 111.27 L 153.15 110.37 C 153.62 109.51 153.29 108.43 152.43 107.96 C 151.57 107.49 150.49 107.82 150.02 108.68 Z M 149.54 109.57 L 149.05 110.48 C 148.58 111.34 148.90 112.42 149.76 112.89 C 150.63 113.35 151.71 113.03 152.18 112.17 L 152.66 111.27 C 153.13 110.40 152.81 109.32 151.95 108.86 C 151.08 108.39 150.00 108.71 149.54 109.57 Z M 149.05 110.47 L 148.56 111.35 C 148.09 112.22 148.41 113.30 149.27 113.77 C 150.13 114.24 151.22 113.93 151.69 113.06 L 152.17 112.18 C 152.65 111.32 152.33 110.23 151.47 109.76 C 150.60 109.29 149.52 109.61 149.05 110.47 Z M 148.57 111.34 L 148.10 112.19 C 147.62 113.05 147.92 114.13 148.78 114.61 C 149.64 115.09 150.73 114.79 151.21 113.93 L 151.68 113.08 C 152.16 112.22 151.86 111.14 151.00 110.65 C 150.14 110.17 149.05 110.48 148.57 111.34 Z M 148.11 112.16 L 147.59 113.05 C 147.10 113.90 147.39 114.99 148.24 115.49 C 149.09 115.98 150.18 115.69 150.68 114.84 L 151.19 113.95 C 151.69 113.10 151.40 112.01 150.55 111.52 C 149.70 111.02 148.61 111.31 148.11 112.16 Z M 147.61 113.02 L 147.08 113.89 C 146.57 114.73 146.84 115.83 147.68 116.34 C 148.52 116.85 149.62 116.58 150.13 115.74 L 150.66 114.87 C 151.17 114.03 150.90 112.93 150.06 112.42 C 149.22 111.91 148.12 112.18 147.61 113.02 Z M 147.10 113.86 L 146.58 114.68 C 146.05 115.52 146.30 116.62 147.14 117.15 C 147.97 117.67 149.07 117.42 149.60 116.59 L 150.12 115.77 C 150.64 114.93 150.39 113.83 149.56 113.30 C 148.73 112.78 147.62 113.03 147.10 113.86 Z M 146.59 114.67 L 146.07 115.48 C 145.53 116.31 145.77 117.42 146.60 117.95 C 147.43 118.48 148.53 118.24 149.07 117.41 L 149.59 116.60 C 150.12 115.77 149.88 114.67 149.06 114.14 C 148.23 113.60 147.12 113.84 146.59 114.67 Z M 146.07 115.48 L 145.55 116.27 C 145.02 117.10 145.25 118.21 146.08 118.74 C 146.91 119.28 148.02 119.04 148.55 118.21 L 149.07 117.42 C 149.60 116.59 149.36 115.49 148.54 114.95 C 147.71 114.41 146.60 114.65 146.07 115.48 Z M 145.55 116.27 L 145.04 117.07 C 144.50 117.90 144.73 119.00 145.56 119.54 C 146.39 120.08 147.49 119.84 148.03 119.01 L 148.55 118.22 C 149.09 117.39 148.85 116.28 148.02 115.75 C 147.20 115.21 146.09 115.44 145.55 116.27 Z M 145.04 117.06 L 144.50 117.89 C 143.95 118.71 144.18 119.82 145.01 120.36 C 145.83 120.91 146.94 120.68 147.48 119.85 L 148.03 119.02 C 148.57 118.20 148.34 117.09 147.52 116.55 C 146.69 116.01 145.58 116.24 145.04 117.06 Z M 144.51 117.88 L 143.93 118.74 C 143.38 119.55 143.59 120.66 144.41 121.21 C 145.23 121.76 146.34 121.55 146.89 120.73 L 147.47 119.87 C 148.02 119.05 147.80 117.94 146.98 117.39 C 146.17 116.84 145.06 117.06 144.51 117.88 Z M 143.94 118.72 L 143.34 119.58 C 142.78 120.39 142.98 121.51 143.79 122.07 C 144.60 122.63 145.72 122.43 146.28 121.61 L 146.88 120.75 C 147.44 119.94 147.24 118.83 146.43 118.26 C 145.61 117.70 144.50 117.90 143.94 118.72 Z M 143.36 119.56 L 142.80 120.34 C 142.23 121.14 142.41 122.26 143.22 122.83 C 144.02 123.40 145.14 123.22 145.71 122.41 L 146.26 121.64 C 146.84 120.83 146.65 119.72 145.85 119.14 C 145.04 118.57 143.93 118.76 143.36 119.56 Z M 142.81 120.32 L 142.23 121.11 C 141.65 121.91 141.82 123.03 142.62 123.61 C 143.41 124.19 144.53 124.02 145.11 123.22 L 145.69 122.43 C 146.28 121.64 146.11 120.52 145.31 119.94 C 144.51 119.35 143.40 119.53 142.81 120.32 Z M 142.25 121.10 L 141.64 121.90 C 141.05 122.69 141.21 123.81 142.00 124.40 C 142.78 124.99 143.90 124.83 144.50 124.05 L 145.10 123.24 C 145.69 122.45 145.53 121.33 144.75 120.74 C 143.96 120.15 142.84 120.31 142.25 121.10 Z M 141.65 121.89 L 141.03 122.70 C 140.43 123.48 140.57 124.60 141.35 125.20 C 142.14 125.80 143.26 125.66 143.86 124.88 L 144.48 124.06 C 145.08 123.28 144.94 122.16 144.16 121.56 C 143.38 120.96 142.25 121.10 141.65 121.89 Z M 141.04 122.68 L 140.40 123.50 C 139.79 124.27 139.92 125.39 140.70 126.00 C 141.47 126.61 142.59 126.48 143.20 125.71 L 143.85 124.89 C 144.45 124.12 144.32 122.99 143.55 122.38 C 142.77 121.77 141.65 121.91 141.04 122.68 Z M 140.41 123.48 L 139.79 124.25 C 139.18 125.02 139.30 126.14 140.07 126.76 C 140.83 127.38 141.96 127.25 142.57 126.49 L 143.19 125.72 C 143.81 124.95 143.69 123.83 142.92 123.21 C 142.15 122.59 141.03 122.72 140.41 123.48 Z M 139.81 124.24 L 139.18 125.00 C 138.55 125.76 138.67 126.89 139.43 127.51 C 140.19 128.14 141.31 128.02 141.94 127.26 L 142.56 126.50 C 143.19 125.74 143.08 124.61 142.32 123.99 C 141.55 123.36 140.43 123.47 139.81 124.24 Z M 139.19 124.99 L 138.55 125.76 C 137.92 126.51 138.02 127.64 138.78 128.27 C 139.53 128.90 140.66 128.80 141.29 128.04 L 141.93 127.27 C 142.56 126.52 142.45 125.39 141.70 124.76 C 140.94 124.13 139.82 124.23 139.19 124.99 Z M 138.56 125.75 L 137.91 126.52 C 137.27 127.27 137.37 128.39 138.12 129.03 C 138.87 129.66 140.00 129.57 140.63 128.82 L 141.28 128.05 C 141.92 127.30 141.82 126.17 141.07 125.54 C 140.32 124.90 139.19 125.00 138.56 125.75 Z M 137.92 126.51 L 137.26 127.28 C 136.62 128.03 136.71 129.15 137.45 129.79 C 138.20 130.43 139.33 130.34 139.97 129.60 L 140.62 128.82 C 141.26 128.08 141.17 126.95 140.43 126.31 C 139.68 125.67 138.55 125.76 137.92 126.51 Z M 137.26 127.28 L 136.61 128.04 C 135.97 128.78 136.05 129.91 136.79 130.55 C 137.54 131.19 138.66 131.11 139.31 130.36 L 139.96 129.60 C 140.60 128.86 140.52 127.73 139.77 127.09 C 139.03 126.45 137.90 126.53 137.26 127.28 Z M 136.61 128.03 L 135.97 128.78 C 135.32 129.52 135.40 130.64 136.14 131.29 C 136.88 131.93 138.01 131.85 138.65 131.11 L 139.30 130.37 C 139.94 129.62 139.86 128.50 139.12 127.86 C 138.38 127.21 137.26 127.29 136.61 128.03 Z M 135.97 128.77 L 135.32 129.52 C 134.67 130.26 134.74 131.38 135.48 132.03 C 136.22 132.67 137.34 132.60 137.99 131.86 L 138.64 131.12 C 139.29 130.38 139.22 129.26 138.48 128.61 C 137.74 127.96 136.62 128.03 135.97 128.77 Z M 135.33 129.51 L 134.66 130.26 C 134.01 130.99 134.08 132.11 134.81 132.77 C 135.54 133.42 136.66 133.35 137.31 132.62 L 137.98 131.87 C 138.63 131.14 138.57 130.02 137.83 129.37 C 137.10 128.71 135.98 128.78 135.33 129.51 Z M 134.67 130.25 L 134.00 131.00 C 133.34 131.72 133.40 132.84 134.12 133.50 C 134.85 134.16 135.97 134.10 136.63 133.38 L 137.30 132.63 C 137.96 131.90 137.90 130.78 137.18 130.12 C 136.45 129.47 135.33 129.52 134.67 130.25 Z M 134.01 130.99 L 133.32 131.73 C 132.66 132.45 132.70 133.57 133.42 134.23 C 134.14 134.90 135.26 134.85 135.93 134.13 L 136.61 133.39 C 137.28 132.67 137.23 131.55 136.51 130.88 C 135.79 130.22 134.67 130.27 134.01 130.99 Z M 133.34 131.72 L 132.65 132.45 C 131.98 133.16 132.02 134.28 132.73 134.95 C 133.44 135.62 134.56 135.58 135.23 134.87 L 135.91 134.14 C 136.58 133.43 136.55 132.31 135.84 131.64 C 135.13 130.97 134.01 131.01 133.34 131.72 Z M 132.67 132.44 L 131.98 133.15 C 131.30 133.86 131.32 134.97 132.03 135.65 C 132.73 136.33 133.85 136.30 134.52 135.60 L 135.21 134.88 C 135.89 134.18 135.87 133.06 135.16 132.39 C 134.46 131.71 133.34 131.73 132.67 132.44 Z M 131.99 133.14 L 131.29 133.86 C 130.61 134.55 130.62 135.67 131.32 136.35 C 132.01 137.03 133.13 137.02 133.81 136.32 L 134.51 135.61 C 135.19 134.91 135.18 133.80 134.48 133.12 C 133.79 132.44 132.67 132.45 131.99 133.14 Z M 131.30 133.85 L 130.60 134.56 C 129.91 135.25 129.92 136.36 130.60 137.05 C 131.29 137.73 132.41 137.73 133.09 137.04 L 133.80 136.33 C 134.48 135.64 134.48 134.53 133.79 133.84 C 133.10 133.16 131.99 133.16 131.30 133.85 Z M 130.61 134.55 L 129.90 135.26 C 129.21 135.94 129.20 137.05 129.89 137.74 C 130.57 138.43 131.68 138.44 132.37 137.75 L 133.08 137.05 C 133.77 136.37 133.77 135.25 133.09 134.57 C 132.41 133.88 131.30 133.87 130.61 134.55 Z M 129.91 135.25 L 129.19 135.96 C 128.50 136.63 128.48 137.74 129.16 138.43 C 129.84 139.13 130.95 139.14 131.64 138.46 L 132.36 137.76 C 133.05 137.08 133.06 135.97 132.38 135.28 C 131.71 134.59 130.60 134.58 129.91 135.25 Z M 129.20 135.95 L 128.48 136.65 C 127.78 137.32 127.76 138.43 128.43 139.13 C 129.11 139.82 130.21 139.84 130.91 139.17 L 131.63 138.47 C 132.32 137.80 132.34 136.69 131.67 135.99 C 131.00 135.30 129.89 135.28 129.20 135.95 Z M 128.48 136.65 L 127.76 137.35 C 127.06 138.01 127.04 139.12 127.70 139.81 C 128.37 140.51 129.47 140.53 130.17 139.87 L 130.90 139.17 C 131.59 138.50 131.62 137.40 130.95 136.70 C 130.28 136.01 129.18 135.98 128.48 136.65 Z M 127.77 137.34 L 127.04 138.04 C 126.34 138.70 126.31 139.80 126.97 140.49 C 127.63 141.19 128.74 141.22 129.43 140.56 L 130.16 139.87 C 130.86 139.21 130.89 138.11 130.22 137.41 C 129.56 136.71 128.46 136.68 127.77 137.34 Z M 127.05 138.03 L 126.32 138.72 C 125.62 139.38 125.59 140.47 126.24 141.17 C 126.90 141.87 128.00 141.90 128.69 141.25 L 129.42 140.56 C 130.12 139.90 130.15 138.81 129.50 138.11 C 128.84 137.41 127.74 137.38 127.05 138.03 Z M 126.33 138.72 L 125.60 139.40 C 124.90 140.05 124.86 141.15 125.51 141.84 C 126.17 142.54 127.26 142.58 127.96 141.93 L 128.69 141.25 C 129.38 140.60 129.42 139.50 128.77 138.80 C 128.12 138.10 127.02 138.07 126.33 138.72 Z M 125.60 139.40 L 124.88 140.07 C 124.18 140.72 124.14 141.81 124.79 142.51 C 125.43 143.21 126.53 143.25 127.22 142.60 L 127.95 141.93 C 128.65 141.28 128.69 140.19 128.04 139.49 C 127.39 138.79 126.30 138.75 125.60 139.40 Z M 124.89 140.07 L 124.15 140.75 C 123.45 141.39 123.41 142.48 124.05 143.18 C 124.70 143.88 125.78 143.92 126.48 143.28 L 127.22 142.60 C 127.92 141.96 127.96 140.87 127.32 140.17 C 126.67 139.47 125.58 139.43 124.89 140.07 Z M 124.16 140.75 L 123.42 141.42 C 122.73 142.06 122.68 143.15 123.32 143.84 C 123.96 144.54 125.04 144.59 125.74 143.95 L 126.48 143.28 C 127.17 142.64 127.22 141.55 126.58 140.86 C 125.94 140.16 124.86 140.11 124.16 140.75 Z M 123.43 141.42 L 122.70 142.09 C 122.00 142.73 121.95 143.81 122.58 144.50 C 123.22 145.20 124.30 145.25 124.99 144.62 L 125.73 143.95 C 126.43 143.32 126.48 142.24 125.85 141.54 C 125.21 140.84 124.13 140.79 123.43 141.42 Z M 122.71 142.09 L 121.97 142.76 C 121.27 143.39 121.21 144.46 121.84 145.16 C 122.47 145.86 123.55 145.92 124.25 145.29 L 124.99 144.62 C 125.68 143.99 125.74 142.91 125.11 142.22 C 124.48 141.52 123.40 141.46 122.71 142.09 Z M 121.98 142.76 L 121.23 143.42 C 120.53 144.05 120.47 145.12 121.09 145.82 C 121.72 146.52 122.79 146.58 123.49 145.95 L 124.24 145.29 C 124.93 144.66 125.00 143.59 124.37 142.89 C 123.75 142.19 122.67 142.13 121.98 142.76 Z M 121.24 143.42 L 120.48 144.09 C 119.79 144.71 119.72 145.78 120.34 146.48 C 120.96 147.18 122.03 147.24 122.73 146.62 L 123.48 145.95 C 124.18 145.34 124.24 144.27 123.63 143.57 C 123.01 142.87 121.94 142.80 121.24 143.42 Z M 120.49 144.09 L 119.72 144.77 C 119.02 145.38 118.95 146.45 119.57 147.15 C 120.18 147.85 121.24 147.92 121.94 147.30 L 122.71 146.62 C 123.41 146.01 123.48 144.95 122.87 144.25 C 122.26 143.55 121.19 143.48 120.49 144.09 Z M 119.73 144.77 L 118.95 145.45 C 118.25 146.05 118.18 147.11 118.79 147.81 C 119.39 148.51 120.45 148.59 121.15 147.98 L 121.93 147.30 C 122.63 146.69 122.70 145.64 122.10 144.94 C 121.49 144.24 120.43 144.16 119.73 144.77 Z M 118.96 145.45 L 118.19 146.11 C 117.49 146.72 117.41 147.77 118.01 148.47 C 118.62 149.17 119.67 149.25 120.37 148.64 L 121.14 147.98 C 121.84 147.38 121.92 146.32 121.32 145.62 C 120.72 144.92 119.66 144.85 118.96 145.45 Z M 118.20 146.12 L 117.44 146.77 C 116.74 147.36 116.66 148.41 117.25 149.11 C 117.85 149.81 118.90 149.89 119.60 149.29 L 120.36 148.64 C 121.06 148.05 121.14 147.00 120.54 146.30 C 119.95 145.60 118.90 145.52 118.20 146.12 Z M 117.45 146.77 L 116.71 147.40 C 116.01 147.99 115.92 149.03 116.51 149.73 C 117.10 150.42 118.15 150.51 118.84 149.92 L 119.59 149.29 C 120.28 148.70 120.37 147.66 119.78 146.96 C 119.19 146.26 118.14 146.18 117.45 146.77 Z M 116.72 147.40 L 115.99 148.01 C 115.29 148.59 115.20 149.63 115.78 150.33 C 116.37 151.02 117.41 151.12 118.10 150.53 L 118.83 149.92 C 119.53 149.34 119.62 148.30 119.04 147.60 C 118.45 146.90 117.41 146.81 116.72 147.40 Z M 116.00 148.01 L 115.23 148.65 C 114.53 149.23 114.43 150.26 115.01 150.96 C 115.59 151.65 116.62 151.75 117.32 151.17 L 118.09 150.53 C 118.79 149.95 118.88 148.92 118.31 148.22 C 117.73 147.53 116.70 147.43 116.00 148.01 Z M 115.24 148.65 L 114.49 149.26 C 113.79 149.83 113.69 150.86 114.26 151.55 C 114.82 152.25 115.85 152.35 116.55 151.79 L 117.30 151.17 C 118.00 150.60 118.10 149.58 117.53 148.88 C 116.97 148.19 115.94 148.08 115.24 148.65 Z M 114.51 149.26 L 113.75 149.87 C 113.05 150.42 112.94 151.44 113.49 152.14 C 114.05 152.84 115.07 152.95 115.77 152.40 L 116.53 151.79 C 117.23 151.23 117.34 150.21 116.78 149.52 C 116.22 148.82 115.21 148.70 114.51 149.26 Z M 113.77 149.86 L 112.98 150.48 C 112.28 151.03 112.16 152.04 112.70 152.74 C 113.25 153.43 114.26 153.56 114.96 153.01 L 115.75 152.40 C 116.45 151.85 116.57 150.84 116.03 150.14 C 115.48 149.44 114.47 149.32 113.77 149.86 Z M 113.00 150.48 L 112.17 151.11 C 111.47 151.65 111.34 152.65 111.87 153.35 C 112.41 154.05 113.41 154.18 114.11 153.65 L 114.94 153.02 C 115.64 152.48 115.78 151.48 115.24 150.78 C 114.70 150.08 113.70 149.94 113.00 150.48 Z M 112.19 151.11 L 111.38 151.72 C 110.68 152.24 110.53 153.24 111.06 153.94 C 111.58 154.64 112.58 154.78 113.28 154.26 L 114.09 153.65 C 114.79 153.13 114.94 152.13 114.41 151.43 C 113.89 150.73 112.89 150.58 112.19 151.11 Z M 111.40 151.71 L 110.55 152.33 C 109.85 152.84 109.69 153.83 110.21 154.53 C 110.72 155.24 111.71 155.39 112.41 154.88 L 113.26 154.26 C 113.96 153.75 114.12 152.76 113.60 152.06 C 113.09 151.35 112.10 151.20 111.40 151.71 Z M 110.58 152.32 L 109.72 152.92 C 109.02 153.42 108.85 154.40 109.35 155.11 C 109.85 155.82 110.83 155.99 111.53 155.49 L 112.39 154.89 C 113.10 154.39 113.26 153.41 112.76 152.70 C 112.27 151.99 111.29 151.82 110.58 152.32 Z M 109.76 152.91 L 108.92 153.48 C 108.21 153.96 108.02 154.93 108.50 155.64 C 108.98 156.36 109.95 156.55 110.67 156.06 L 111.50 155.50 C 112.22 155.02 112.40 154.05 111.92 153.33 C 111.44 152.62 110.47 152.43 109.76 152.91 Z M 108.96 153.46 L 108.17 153.97 C 107.44 154.42 107.23 155.38 107.69 156.11 C 108.15 156.83 109.10 157.05 109.83 156.59 L 110.62 156.08 C 111.35 155.62 111.56 154.66 111.10 153.94 C 110.64 153.22 109.69 153.00 108.96 153.46 Z M 108.23 153.92 L 107.29 154.46 C 106.55 154.88 106.29 155.83 106.71 156.58 C 107.13 157.32 108.08 157.58 108.83 157.16 L 109.76 156.63 C 110.51 156.20 110.77 155.25 110.35 154.51 C 109.92 153.76 108.98 153.50 108.23 153.92 Z M 107.38 154.38 L 106.41 154.85 C 105.62 155.22 105.29 156.16 105.66 156.95 C 106.03 157.74 106.98 158.07 107.76 157.70 L 108.74 157.23 C 109.53 156.86 109.86 155.92 109.49 155.13 C 109.11 154.34 108.17 154.01 107.38 154.38 Z M 106.51 154.77 L 105.64 155.10 C 104.80 155.42 104.39 156.35 104.71 157.19 C 105.03 158.02 105.96 158.43 106.79 158.11 L 107.66 157.78 C 108.50 157.46 108.91 156.52 108.59 155.69 C 108.27 154.86 107.34 154.45 106.51 154.77 Z M 105.70 155.04 L 104.88 155.31 C 104.02 155.60 103.55 156.53 103.83 157.39 C 104.12 158.25 105.05 158.72 105.91 158.44 L 106.73 158.17 C 107.59 157.89 108.06 156.95 107.78 156.09 C 107.49 155.23 106.56 154.76 105.70 155.04 Z M 104.89 155.29 L 104.84 155.31 C 103.97 155.58 103.48 156.52 103.76 157.40 C 104.04 158.27 104.97 158.76 105.85 158.48 L 105.90 158.46 C 106.78 158.18 107.26 157.25 106.98 156.37 C 106.70 155.49 105.77 155.01 104.89 155.29 Z"
      fill="black"
      fill-rule="nonzero" /><path d="M 147.91 117.52 L 147.94 118.57 C 147.97 119.47 148.72 120.17 149.62 120.14 C 150.52 120.11 151.22 119.36 151.19 118.46 L 151.16 117.42 C 151.13 116.52 150.38 115.81 149.48 115.84 C 148.58 115.87 147.88 116.62 147.91 117.52 Z M 147.91 118.61 L 147.97 119.63 C 148.02 120.55 148.80 121.25 149.71 121.20 C 150.63 121.15 151.33 120.36 151.27 119.45 L 151.22 118.42 C 151.17 117.51 150.39 116.81 149.48 116.86 C 148.56 116.91 147.86 117.69 147.91 118.61 Z M 147.95 119.71 L 148.05 120.70 C 148.14 121.63 148.97 122.30 149.89 122.21 C 150.82 122.12 151.49 121.29 151.40 120.36 L 151.30 119.37 C 151.20 118.45 150.38 117.77 149.45 117.87 C 148.53 117.96 147.85 118.79 147.95 119.71 Z M 148.03 120.83 L 148.20 121.77 C 148.36 122.70 149.25 123.32 150.19 123.16 C 151.12 122.99 151.74 122.10 151.57 121.17 L 151.41 120.23 C 151.24 119.30 150.36 118.68 149.42 118.85 C 148.49 119.01 147.87 119.90 148.03 120.83 Z M 148.23 121.96 L 148.50 122.89 C 148.77 123.81 149.74 124.33 150.65 124.06 C 151.57 123.79 152.10 122.82 151.82 121.91 L 151.55 120.98 C 151.28 120.06 150.31 119.53 149.40 119.81 C 148.48 120.08 147.95 121.04 148.23 121.96 Z M 148.57 123.10 L 148.96 123.99 C 149.35 124.87 150.38 125.26 151.26 124.88 C 152.14 124.49 152.53 123.46 152.15 122.58 L 151.75 121.69 C 151.37 120.81 150.34 120.42 149.46 120.80 C 148.58 121.19 148.18 122.22 148.57 123.10 Z M 149.05 124.16 L 149.54 125.01 C 150.02 125.84 151.09 126.13 151.92 125.64 C 152.76 125.16 153.04 124.09 152.56 123.26 L 152.06 122.41 C 151.58 121.57 150.51 121.29 149.68 121.78 C 148.84 122.26 148.56 123.33 149.05 124.16 Z M 149.61 125.13 L 150.20 125.98 C 150.75 126.78 151.84 126.97 152.63 126.42 C 153.43 125.88 153.62 124.79 153.07 123.99 L 152.48 123.14 C 151.93 122.35 150.85 122.15 150.05 122.70 C 149.26 123.25 149.06 124.34 149.61 125.13 Z M 150.25 126.05 L 150.82 126.80 C 151.41 127.56 152.50 127.71 153.27 127.13 C 154.04 126.54 154.19 125.44 153.60 124.68 L 153.03 123.93 C 152.44 123.16 151.35 123.01 150.58 123.60 C 149.81 124.18 149.66 125.28 150.25 126.05 Z M 150.86 126.85 L 151.47 127.59 C 152.08 128.34 153.18 128.44 153.93 127.83 C 154.68 127.22 154.78 126.12 154.17 125.37 L 153.56 124.63 C 152.95 123.88 151.85 123.77 151.10 124.38 C 150.35 125.00 150.25 126.10 150.86 126.85 Z M 151.51 127.64 L 152.18 128.39 C 152.82 129.12 153.93 129.18 154.65 128.54 C 155.37 127.90 155.44 126.79 154.80 126.07 L 154.13 125.32 C 153.49 124.60 152.38 124.53 151.66 125.17 C 150.94 125.81 150.87 126.92 151.51 127.64 Z M 152.23 128.45 L 152.95 129.20 C 153.63 129.89 154.73 129.91 155.43 129.24 C 156.12 128.57 156.14 127.46 155.47 126.77 L 154.75 126.02 C 154.08 125.32 152.97 125.30 152.27 125.97 C 151.58 126.64 151.56 127.75 152.23 128.45 Z M 153.01 129.25 L 153.78 129.98 C 154.48 130.64 155.58 130.61 156.25 129.91 C 156.91 129.21 156.88 128.10 156.18 127.44 L 155.41 126.71 C 154.71 126.05 153.61 126.08 152.94 126.78 C 152.28 127.48 152.31 128.59 153.01 129.25 Z M 153.83 130.03 L 154.56 130.65 C 155.29 131.29 156.39 131.20 157.02 130.47 C 157.66 129.74 157.57 128.64 156.84 128.01 L 156.12 127.38 C 155.39 126.75 154.29 126.83 153.66 127.56 C 153.02 128.29 153.10 129.40 153.83 130.03 Z M 154.61 130.70 L 155.38 131.31 C 156.13 131.91 157.23 131.78 157.83 131.02 C 158.43 130.27 158.31 129.17 157.55 128.57 L 156.79 127.96 C 156.03 127.36 154.93 127.49 154.33 128.24 C 153.73 129.00 153.86 130.10 154.61 130.70 Z M 155.43 131.35 L 156.24 131.93 C 157.02 132.50 158.11 132.33 158.68 131.56 C 159.25 130.78 159.08 129.69 158.30 129.12 L 157.49 128.53 C 156.72 127.96 155.62 128.13 155.06 128.91 C 154.49 129.68 154.66 130.78 155.43 131.35 Z M 156.29 131.97 L 157.14 132.54 C 157.94 133.08 159.02 132.87 159.56 132.07 C 160.10 131.27 159.89 130.19 159.09 129.65 L 158.24 129.08 C 157.45 128.54 156.36 128.75 155.82 129.55 C 155.28 130.35 155.49 131.43 156.29 131.97 Z M 157.19 132.57 L 158.08 133.13 C 158.89 133.64 159.97 133.39 160.48 132.57 C 160.99 131.75 160.74 130.68 159.92 130.17 L 159.03 129.62 C 158.22 129.11 157.14 129.36 156.63 130.17 C 156.13 130.99 156.37 132.07 157.19 132.57 Z M 158.13 133.15 L 159.03 133.68 C 159.87 134.16 160.93 133.87 161.41 133.04 C 161.89 132.21 161.60 131.15 160.77 130.67 L 159.87 130.14 C 159.04 129.66 157.97 129.95 157.49 130.78 C 157.01 131.61 157.30 132.67 158.13 133.15 Z M 159.08 133.70 L 160.00 134.19 C 160.84 134.65 161.90 134.33 162.35 133.49 C 162.80 132.65 162.49 131.60 161.65 131.14 L 160.73 130.65 C 159.88 130.19 158.83 130.51 158.38 131.35 C 157.92 132.19 158.24 133.24 159.08 133.70 Z M 160.04 134.21 L 160.97 134.68 C 161.82 135.11 162.86 134.77 163.29 133.92 C 163.72 133.07 163.38 132.03 162.53 131.60 L 161.61 131.13 C 160.76 130.70 159.72 131.03 159.28 131.88 C 158.85 132.73 159.19 133.78 160.04 134.21 Z M 161.00 134.69 L 161.91 135.13 C 162.77 135.54 163.80 135.18 164.21 134.33 C 164.62 133.47 164.26 132.44 163.41 132.03 L 162.50 131.59 C 161.64 131.18 160.61 131.53 160.20 132.39 C 159.79 133.25 160.14 134.28 161.00 134.69 Z M 161.94 135.14 L 162.82 135.54 C 163.68 135.94 164.70 135.56 165.09 134.70 C 165.49 133.84 165.11 132.82 164.25 132.42 L 163.38 132.02 C 162.52 131.62 161.50 132.00 161.10 132.86 C 160.70 133.72 161.08 134.74 161.94 135.14 Z M 162.85 135.55 L 163.71 135.93 C 164.58 136.31 165.59 135.91 165.96 135.05 C 166.34 134.19 165.95 133.18 165.09 132.80 L 164.22 132.42 C 163.36 132.04 162.35 132.43 161.97 133.29 C 161.59 134.16 161.98 135.17 162.85 135.55 Z M 163.75 135.93 L 164.80 136.36 C 165.67 136.72 166.66 136.31 167.02 135.44 C 167.38 134.58 166.97 133.58 166.10 133.23 L 165.05 132.79 C 164.18 132.44 163.19 132.85 162.83 133.71 C 162.47 134.58 162.89 135.57 163.75 135.93 Z M 164.86 136.37 L 165.81 136.72 C 166.68 137.05 167.64 136.61 167.97 135.74 C 168.30 134.87 167.86 133.90 166.99 133.57 L 166.04 133.22 C 165.17 132.90 164.20 133.34 163.88 134.21 C 163.55 135.08 163.99 136.05 164.86 136.37 Z M 165.88 136.73 L 166.75 137.02 C 167.62 137.31 168.56 136.83 168.85 135.96 C 169.14 135.08 168.66 134.14 167.79 133.85 L 166.92 133.57 C 166.04 133.28 165.10 133.76 164.81 134.63 C 164.53 135.50 165.00 136.45 165.88 136.73 Z M 166.83 137.03 L 167.71 137.27 C 168.59 137.51 169.49 137.00 169.74 136.12 C 169.98 135.24 169.47 134.33 168.59 134.09 L 167.71 133.84 C 166.83 133.60 165.92 134.12 165.68 135.00 C 165.43 135.87 165.95 136.78 166.83 137.03 Z M 167.79 137.28 L 168.78 137.50 C 169.66 137.70 170.54 137.15 170.74 136.26 C 170.94 135.38 170.38 134.50 169.50 134.30 L 168.51 134.08 C 167.62 133.88 166.75 134.44 166.55 135.32 C 166.35 136.20 166.90 137.08 167.79 137.28 Z M 168.84 137.50 L 169.82 137.68 C 170.71 137.84 171.56 137.26 171.72 136.38 C 171.88 135.49 171.30 134.64 170.41 134.48 L 169.43 134.30 C 168.55 134.14 167.70 134.72 167.54 135.61 C 167.38 136.49 167.96 137.34 168.84 137.50 Z M 169.87 137.68 L 170.83 137.83 C 171.71 137.97 172.54 137.37 172.68 136.48 C 172.82 135.60 172.21 134.78 171.33 134.64 L 170.37 134.49 C 169.49 134.35 168.66 134.95 168.52 135.83 C 168.38 136.71 168.99 137.54 169.87 137.68 Z M 170.86 137.82 L 171.67 137.94 C 172.55 138.06 173.36 137.45 173.49 136.57 C 173.61 135.70 173.00 134.88 172.12 134.76 L 171.31 134.65 C 170.43 134.52 169.62 135.13 169.49 136.01 C 169.37 136.89 169.98 137.70 170.86 137.82 Z M 171.71 137.93 L 172.61 138.03 C 173.48 138.13 174.27 137.51 174.37 136.64 C 174.47 135.76 173.85 134.97 172.97 134.87 L 172.08 134.77 C 171.21 134.67 170.42 135.29 170.32 136.16 C 170.22 137.04 170.84 137.83 171.71 137.93 Z M 172.65 138.03 L 173.70 138.12 C 174.57 138.19 175.34 137.55 175.41 136.68 C 175.49 135.81 174.84 135.05 173.97 134.97 L 172.93 134.88 C 172.06 134.81 171.29 135.45 171.22 136.32 C 171.14 137.19 171.79 137.95 172.65 138.03 Z M 173.75 138.11 L 174.95 138.18 C 175.81 138.23 176.55 137.57 176.61 136.70 C 176.66 135.84 176.00 135.10 175.13 135.05 L 173.93 134.98 C 173.07 134.93 172.33 135.59 172.28 136.45 C 172.23 137.31 172.88 138.06 173.75 138.11 Z M 174.98 138.17 L 175.89 138.20 C 176.75 138.24 177.47 137.57 177.51 136.71 C 177.54 135.85 176.87 135.13 176.01 135.09 L 175.10 135.06 C 174.24 135.02 173.52 135.69 173.49 136.55 C 173.45 137.41 174.12 138.13 174.98 138.17 Z M 175.91 138.20 L 176.90 138.22 C 177.76 138.24 178.47 137.57 178.49 136.71 C 178.51 135.86 177.83 135.15 176.98 135.13 L 175.99 135.10 C 175.13 135.08 174.42 135.76 174.40 136.61 C 174.38 137.47 175.06 138.18 175.91 138.20 Z M 176.93 138.22 L 177.97 138.22 C 178.82 138.23 179.51 137.54 179.52 136.69 C 179.53 135.84 178.84 135.15 177.99 135.14 L 176.95 135.13 C 176.10 135.13 175.41 135.81 175.40 136.66 C 175.39 137.51 176.08 138.21 176.93 138.22 Z M 178.00 138.22 L 179.05 138.20 C 179.90 138.19 180.58 137.50 180.57 136.65 C 180.56 135.80 179.86 135.12 179.01 135.13 L 177.96 135.15 C 177.11 135.16 176.43 135.85 176.44 136.70 C 176.45 137.55 177.15 138.23 178.00 138.22 Z M 179.09 138.19 L 180.13 138.15 C 180.97 138.12 181.63 137.41 181.60 136.57 C 181.57 135.73 180.86 135.07 180.01 135.10 L 178.97 135.14 C 178.13 135.17 177.47 135.88 177.51 136.73 C 177.54 137.57 178.25 138.23 179.09 138.19 Z M 180.18 138.14 L 181.17 138.07 C 182.01 138.02 182.64 137.29 182.58 136.45 C 182.52 135.62 181.80 134.98 180.96 135.04 L 179.97 135.11 C 179.13 135.17 178.50 135.90 178.56 136.73 C 178.62 137.57 179.34 138.20 180.18 138.14 Z M 181.24 138.06 L 182.35 137.93 C 183.18 137.83 183.77 137.08 183.67 136.25 C 183.57 135.43 182.83 134.83 182.00 134.93 L 180.89 135.06 C 180.06 135.16 179.47 135.91 179.57 136.73 C 179.67 137.56 180.42 138.15 181.24 138.06 Z M 182.43 137.90 L 183.48 137.72 C 184.29 137.58 184.83 136.80 184.69 135.99 C 184.55 135.18 183.78 134.64 182.96 134.78 L 181.92 134.96 C 181.11 135.10 180.56 135.87 180.70 136.69 C 180.84 137.50 181.62 138.04 182.43 137.90 Z M 183.55 137.69 L 184.51 137.47 C 185.31 137.29 185.80 136.50 185.62 135.70 C 185.44 134.91 184.65 134.41 183.86 134.59 L 182.89 134.81 C 182.10 134.99 181.60 135.78 181.78 136.57 C 181.96 137.37 182.75 137.87 183.55 137.69 Z M 184.56 137.44 L 185.47 137.19 C 186.25 136.98 186.71 136.18 186.50 135.40 C 186.29 134.63 185.49 134.17 184.71 134.38 L 183.80 134.62 C 183.03 134.83 182.57 135.63 182.78 136.41 C 182.99 137.19 183.79 137.65 184.56 137.44 Z M 185.50 137.17 L 186.37 136.91 C 187.14 136.68 187.57 135.88 187.35 135.12 C 187.12 134.35 186.32 133.92 185.55 134.14 L 184.68 134.40 C 183.92 134.63 183.48 135.43 183.71 136.19 C 183.93 136.96 184.74 137.39 185.50 137.17 Z M 186.38 136.90 L 186.59 136.83 C 187.35 136.60 187.78 135.80 187.55 135.05 C 187.32 134.29 186.52 133.86 185.76 134.09 L 185.55 134.15 C 184.79 134.38 184.36 135.18 184.59 135.94 C 184.82 136.70 185.62 137.12 186.38 136.90 Z"
      fill="black"
      fill-rule="nonzero" /><path d="M 143.63 144.77 L 144.65 144.73 C 145.47 144.71 146.12 144.01 146.10 143.18 C 146.07 142.35 145.38 141.70 144.55 141.73 L 143.53 141.76 C 142.70 141.79 142.05 142.49 142.08 143.31 C 142.10 144.14 142.80 144.79 143.63 144.77 Z M 144.66 144.73 L 145.67 144.69 C 146.50 144.66 147.14 143.96 147.11 143.13 C 147.08 142.30 146.38 141.66 145.55 141.69 L 144.54 141.73 C 143.71 141.76 143.06 142.46 143.10 143.29 C 143.13 144.12 143.83 144.77 144.66 144.73 Z M 145.69 144.69 L 146.69 144.64 C 147.52 144.59 148.15 143.88 148.10 143.05 C 148.06 142.23 147.35 141.59 146.52 141.64 L 145.52 141.69 C 144.70 141.74 144.06 142.45 144.11 143.28 C 144.15 144.10 144.86 144.74 145.69 144.69 Z M 146.72 144.63 L 147.70 144.56 C 148.52 144.49 149.14 143.77 149.08 142.94 C 149.01 142.11 148.29 141.50 147.46 141.56 L 146.48 141.64 C 145.66 141.71 145.04 142.43 145.11 143.26 C 145.17 144.08 145.90 144.70 146.72 144.63 Z M 147.74 144.55 L 148.66 144.45 C 149.49 144.36 150.08 143.61 149.99 142.79 C 149.90 141.97 149.16 141.38 148.33 141.47 L 147.41 141.57 C 146.59 141.66 146.00 142.40 146.09 143.23 C 146.18 144.05 146.92 144.64 147.74 144.55 Z M 148.71 144.43 L 149.63 144.30 C 150.45 144.19 151.01 143.43 150.90 142.62 C 150.78 141.80 150.03 141.23 149.21 141.35 L 148.29 141.48 C 147.47 141.59 146.91 142.35 147.02 143.17 C 147.14 143.98 147.89 144.55 148.71 144.43 Z M 149.66 144.29 L 150.63 144.13 C 151.44 144.00 151.99 143.24 151.86 142.43 C 151.72 141.62 150.96 141.07 150.15 141.20 L 149.18 141.36 C 148.37 141.49 147.82 142.26 147.95 143.07 C 148.09 143.88 148.85 144.42 149.66 144.29 Z M 150.65 144.12 L 151.71 143.93 C 152.51 143.79 153.05 143.03 152.91 142.22 C 152.76 141.42 152.00 140.88 151.19 141.02 L 150.13 141.21 C 149.33 141.35 148.79 142.12 148.94 142.92 C 149.08 143.73 149.84 144.26 150.65 144.12 Z M 151.71 143.93 L 152.70 143.75 C 153.50 143.60 154.03 142.84 153.89 142.04 C 153.74 141.24 152.97 140.71 152.18 140.85 L 151.19 141.03 C 150.39 141.18 149.86 141.94 150.00 142.74 C 150.15 143.54 150.91 144.07 151.71 143.93 Z M 152.70 143.74 L 153.60 143.58 C 154.40 143.43 154.93 142.67 154.78 141.87 C 154.64 141.08 153.87 140.55 153.08 140.70 L 152.18 140.86 C 151.38 141.01 150.85 141.77 151.00 142.56 C 151.14 143.36 151.91 143.89 152.70 143.74 Z M 153.60 143.57 L 154.56 143.39 C 155.35 143.25 155.88 142.49 155.73 141.70 C 155.59 140.91 154.83 140.38 154.04 140.53 L 153.08 140.70 C 152.29 140.85 151.76 141.61 151.91 142.40 C 152.05 143.19 152.81 143.71 153.60 143.57 Z M 154.56 143.39 L 155.56 143.20 C 156.35 143.06 156.87 142.30 156.73 141.52 C 156.58 140.73 155.83 140.21 155.04 140.35 L 154.04 140.53 C 153.25 140.68 152.73 141.43 152.87 142.22 C 153.02 143.01 153.77 143.53 154.56 143.39 Z M 155.56 143.20 L 156.59 143.01 C 157.38 142.86 157.90 142.11 157.75 141.33 C 157.61 140.54 156.86 140.02 156.07 140.17 L 155.04 140.36 C 154.26 140.50 153.74 141.25 153.88 142.04 C 154.02 142.82 154.78 143.34 155.56 143.20 Z M 156.59 143.00 L 157.64 142.81 C 158.42 142.66 158.94 141.91 158.80 141.13 C 158.65 140.35 157.91 139.84 157.13 139.98 L 156.07 140.17 C 155.29 140.32 154.78 141.07 154.92 141.85 C 155.06 142.63 155.81 143.14 156.59 143.00 Z M 157.64 142.80 L 158.26 142.69 C 159.03 142.55 159.55 141.80 159.41 141.02 C 159.26 140.25 158.52 139.73 157.74 139.87 L 157.13 139.99 C 156.35 140.13 155.83 140.88 155.98 141.65 C 156.12 142.43 156.87 142.94 157.64 142.80 Z"
      fill="black"
      fill-rule="nonzero" /><path d="M 138.52 156.02 L 137.19 156.27 C 136.34 156.44 135.78 157.26 135.95 158.10 C 136.11 158.95 136.93 159.51 137.78 159.35 L 139.11 159.09 C 139.96 158.93 140.52 158.11 140.35 157.26 C 140.19 156.41 139.37 155.85 138.52 156.02 Z M 137.14 156.29 L 136.07 156.53 C 135.23 156.72 134.70 157.56 134.89 158.40 C 135.08 159.24 135.92 159.76 136.76 159.57 L 137.83 159.33 C 138.67 159.14 139.20 158.30 139.01 157.46 C 138.82 156.62 137.98 156.10 137.14 156.29 Z M 135.84 156.60 L 135.30 156.82 C 134.50 157.13 134.11 158.04 134.43 158.84 C 134.74 159.64 135.65 160.03 136.45 159.71 L 136.99 159.50 C 137.79 159.18 138.18 158.28 137.86 157.48 C 137.55 156.68 136.64 156.29 135.84 156.60 Z M 135.03 159.58 L 135.36 159.80 C 136.09 160.27 137.06 160.06 137.52 159.33 C 137.99 158.60 137.78 157.63 137.06 157.16 L 136.72 156.95 C 135.99 156.48 135.02 156.69 134.56 157.42 C 134.09 158.15 134.30 159.11 135.03 159.58 Z M 136.00 160.05 L 137.17 160.20 C 138.04 160.32 138.83 159.70 138.94 158.83 C 139.06 157.97 138.44 157.17 137.57 157.06 L 136.41 156.91 C 135.54 156.80 134.75 157.41 134.63 158.28 C 134.52 159.15 135.14 159.94 136.00 160.05 Z M 137.27 160.23 L 138.46 160.30 C 139.35 160.36 140.11 159.68 140.16 158.80 C 140.21 157.91 139.54 157.16 138.65 157.10 L 137.47 157.03 C 136.58 156.98 135.82 157.65 135.77 158.54 C 135.72 159.42 136.39 160.18 137.27 160.23 Z M 138.51 160.31 L 139.49 160.34 C 140.38 160.37 141.12 159.67 141.15 158.78 C 141.17 157.89 140.47 157.15 139.58 157.12 L 138.61 157.09 C 137.72 157.07 136.97 157.77 136.95 158.66 C 136.92 159.55 137.62 160.29 138.51 160.31 Z M 139.52 160.35 L 140.52 160.36 C 141.41 160.37 142.14 159.65 142.15 158.76 C 142.16 157.87 141.45 157.14 140.56 157.13 L 139.55 157.11 C 138.66 157.11 137.93 157.82 137.92 158.71 C 137.91 159.61 138.63 160.34 139.52 160.35 Z M 140.54 160.36 L 141.57 160.36 C 142.46 160.37 143.19 159.64 143.19 158.75 C 143.19 157.85 142.47 157.12 141.57 157.12 L 140.54 157.12 C 139.65 157.12 138.92 157.84 138.92 158.74 C 138.92 159.63 139.64 160.36 140.54 160.36 Z M 141.57 160.37 L 142.54 160.37 C 143.44 160.37 144.17 159.64 144.17 158.74 C 144.17 157.85 143.44 157.12 142.54 157.12 L 141.57 157.12 C 140.67 157.12 139.94 157.85 139.95 158.74 C 139.95 159.64 140.67 160.37 141.57 160.37 Z M 142.55 160.37 L 143.54 160.37 C 144.44 160.36 145.17 159.63 145.16 158.73 C 145.16 157.83 144.43 157.11 143.53 157.11 L 142.54 157.11 C 141.64 157.12 140.91 157.85 140.92 158.75 C 140.92 159.65 141.65 160.38 142.55 160.37 Z M 143.55 160.37 L 144.56 160.36 C 145.46 160.35 146.19 159.61 146.18 158.71 C 146.17 157.81 145.43 157.08 144.53 157.10 L 143.51 157.11 C 142.61 157.12 141.89 157.86 141.90 158.76 C 141.91 159.66 142.65 160.38 143.55 160.37 Z M 144.58 160.36 L 145.61 160.34 C 146.51 160.32 147.23 159.57 147.21 158.67 C 147.19 157.76 146.44 157.05 145.53 157.07 L 144.51 157.09 C 143.60 157.11 142.89 157.86 142.91 158.76 C 142.93 159.67 143.68 160.38 144.58 160.36 Z M 145.63 160.34 L 146.58 160.31 C 147.48 160.27 148.19 159.51 148.16 158.61 C 148.12 157.70 147.36 157.00 146.46 157.03 L 145.51 157.07 C 144.60 157.10 143.90 157.86 143.93 158.76 C 143.96 159.67 144.73 160.38 145.63 160.34 Z M 146.61 160.31 L 147.56 160.26 C 148.47 160.21 149.16 159.44 149.11 158.53 C 149.06 157.62 148.29 156.93 147.38 156.97 L 146.43 157.03 C 145.52 157.08 144.83 157.85 144.87 158.76 C 144.92 159.67 145.70 160.36 146.61 160.31 Z M 147.59 160.26 L 148.58 160.19 C 149.49 160.12 150.17 159.33 150.11 158.42 C 150.04 157.51 149.25 156.83 148.34 156.90 L 147.35 156.97 C 146.44 157.04 145.76 157.83 145.82 158.74 C 145.89 159.65 146.68 160.33 147.59 160.26 Z M 148.62 160.19 L 149.66 160.10 C 150.57 160.01 151.24 159.20 151.15 158.29 C 151.06 157.38 150.26 156.71 149.34 156.80 L 148.30 156.90 C 147.39 156.98 146.72 157.79 146.81 158.70 C 146.90 159.61 147.70 160.28 148.62 160.19 Z M 149.69 160.10 L 150.73 159.98 C 151.64 159.87 152.29 159.05 152.19 158.14 C 152.08 157.23 151.26 156.57 150.35 156.68 L 149.31 156.80 C 148.40 156.90 147.75 157.72 147.85 158.64 C 147.95 159.55 148.78 160.20 149.69 160.10 Z M 150.75 159.98 L 151.72 159.85 C 152.63 159.74 153.28 158.90 153.16 157.99 C 153.04 157.07 152.20 156.43 151.29 156.55 L 150.32 156.67 C 149.41 156.79 148.76 157.63 148.88 158.54 C 149.00 159.46 149.84 160.10 150.75 159.98 Z M 151.73 159.86 L 152.73 159.72 C 153.65 159.59 154.29 158.75 154.16 157.83 C 154.03 156.92 153.19 156.28 152.27 156.40 L 151.27 156.54 C 150.36 156.67 149.72 157.52 149.85 158.43 C 149.97 159.35 150.82 159.99 151.73 159.86 Z M 152.74 159.73 L 153.75 159.58 C 154.67 159.45 155.31 158.60 155.18 157.68 C 155.05 156.77 154.20 156.13 153.28 156.26 L 152.27 156.40 C 151.35 156.53 150.71 157.38 150.84 158.30 C 150.97 159.22 151.82 159.86 152.74 159.73 Z M 153.74 159.59 L 154.75 159.45 C 155.68 159.32 156.32 158.47 156.19 157.55 C 156.06 156.62 155.21 155.98 154.29 156.11 L 153.28 156.25 C 152.36 156.38 151.71 157.23 151.84 158.15 C 151.97 159.07 152.82 159.72 153.74 159.59 Z M 154.74 159.46 L 155.73 159.33 C 156.66 159.21 157.31 158.36 157.19 157.43 C 157.07 156.50 156.22 155.85 155.29 155.97 L 154.30 156.10 C 153.37 156.22 152.72 157.07 152.84 158.00 C 152.97 158.93 153.82 159.58 154.74 159.46 Z M 155.71 159.34 L 156.80 159.21 C 157.73 159.10 158.40 158.25 158.29 157.32 C 158.18 156.39 157.33 155.72 156.40 155.83 L 155.31 155.96 C 154.38 156.07 153.71 156.92 153.82 157.85 C 153.93 158.78 154.78 159.45 155.71 159.34 Z M 156.78 159.22 L 157.82 159.11 C 158.76 159.02 159.44 158.17 159.35 157.24 C 159.25 156.30 158.41 155.61 157.47 155.71 L 156.42 155.82 C 155.48 155.92 154.80 156.76 154.90 157.70 C 155.00 158.64 155.84 159.32 156.78 159.22 Z M 157.80 159.12 L 158.79 159.03 C 159.74 158.95 160.44 158.11 160.35 157.17 C 160.27 156.22 159.43 155.53 158.49 155.61 L 157.49 155.70 C 156.55 155.79 155.85 156.62 155.93 157.57 C 156.02 158.51 156.86 159.21 157.80 159.12 Z M 158.77 159.04 L 159.71 158.97 C 160.67 158.90 161.38 158.07 161.30 157.11 C 161.23 156.16 160.40 155.45 159.45 155.53 L 158.51 155.60 C 157.55 155.67 156.84 156.51 156.92 157.46 C 156.99 158.41 157.82 159.12 158.77 159.04 Z M 159.70 158.98 L 160.66 158.92 C 161.62 158.85 162.34 158.03 162.28 157.07 C 162.21 156.11 161.39 155.39 160.43 155.45 L 159.46 155.52 C 158.51 155.58 157.78 156.41 157.85 157.37 C 157.91 158.32 158.74 159.05 159.70 158.98 Z M 160.60 158.93 L 161.77 158.90 C 162.73 158.87 163.49 158.06 163.46 157.10 C 163.43 156.13 162.63 155.37 161.66 155.40 L 160.49 155.44 C 159.53 155.46 158.77 156.27 158.79 157.24 C 158.82 158.20 159.63 158.96 160.60 158.93 Z M 161.50 158.90 L 162.46 159.02 C 163.43 159.14 164.31 158.45 164.43 157.48 C 164.54 156.51 163.85 155.63 162.89 155.51 L 161.93 155.40 C 160.96 155.28 160.08 155.97 159.96 156.94 C 159.84 157.90 160.53 158.78 161.50 158.90 Z M 161.82 158.83 L 162.50 159.20 C 163.36 159.67 164.44 159.36 164.91 158.49 C 165.39 157.63 165.07 156.55 164.21 156.08 L 163.53 155.71 C 162.67 155.23 161.58 155.55 161.11 156.41 C 160.64 157.27 160.96 158.36 161.82 158.83 Z M 161.76 158.45 L 162.10 159.13 C 162.55 160.01 163.63 160.36 164.51 159.91 C 165.39 159.46 165.74 158.38 165.29 157.50 L 164.95 156.83 C 164.50 155.95 163.42 155.60 162.54 156.04 C 161.66 156.49 161.31 157.57 161.76 158.45 Z M 161.91 158.42 L 161.96 159.36 C 162.02 160.35 162.87 161.11 163.86 161.05 C 164.84 160.99 165.60 160.14 165.54 159.15 L 165.49 158.21 C 165.43 157.22 164.58 156.47 163.59 156.52 C 162.60 156.58 161.85 157.43 161.91 158.42 Z M 161.98 158.96 L 161.79 160.11 C 161.62 161.09 162.28 162.01 163.25 162.18 C 164.23 162.35 165.16 161.69 165.33 160.71 L 165.52 159.56 C 165.69 158.58 165.03 157.66 164.05 157.49 C 163.08 157.32 162.15 157.98 161.98 158.96 Z M 161.84 159.89 L 161.53 160.90 C 161.24 161.85 161.77 162.86 162.72 163.15 C 163.67 163.44 164.67 162.90 164.96 161.95 L 165.27 160.94 C 165.56 159.99 165.03 158.98 164.08 158.69 C 163.13 158.40 162.13 158.94 161.84 159.89 Z M 161.57 160.78 L 161.21 161.72 C 160.85 162.64 161.32 163.68 162.24 164.04 C 163.17 164.39 164.21 163.93 164.56 163.01 L 164.92 162.07 C 165.28 161.15 164.81 160.11 163.89 159.75 C 162.96 159.40 161.92 159.86 161.57 160.78 Z M 161.24 161.65 L 160.83 162.59 C 160.44 163.50 160.85 164.56 161.76 164.95 C 162.67 165.35 163.73 164.93 164.12 164.02 L 164.53 163.08 C 164.93 162.17 164.51 161.11 163.60 160.72 C 162.69 160.32 161.64 160.74 161.24 161.65 Z M 160.85 162.55 L 160.42 163.48 C 160.00 164.37 160.39 165.44 161.28 165.86 C 162.18 166.28 163.25 165.89 163.66 164.99 L 164.10 164.07 C 164.52 163.17 164.13 162.10 163.23 161.68 C 162.34 161.26 161.27 161.65 160.85 162.55 Z M 160.43 163.45 L 160.00 164.34 C 159.57 165.22 159.94 166.30 160.83 166.73 C 161.72 167.16 162.79 166.79 163.22 165.90 L 163.65 165.02 C 164.08 164.13 163.71 163.06 162.82 162.63 C 161.94 162.19 160.86 162.56 160.43 163.45 Z M 160.01 164.33 L 159.53 165.30 C 159.09 166.19 159.46 167.26 160.34 167.69 C 161.23 168.13 162.30 167.77 162.73 166.88 L 163.21 165.91 C 163.65 165.02 163.28 163.95 162.40 163.52 C 161.52 163.08 160.45 163.45 160.01 164.33 Z M 159.54 165.30 L 159.09 166.21 C 158.65 167.09 159.01 168.16 159.89 168.59 C 160.77 169.03 161.83 168.67 162.27 167.79 L 162.72 166.88 C 163.16 166.01 162.80 164.94 161.92 164.50 C 161.04 164.07 159.98 164.43 159.54 165.30 Z M 159.10 166.21 L 158.67 167.07 C 158.23 167.94 158.59 169.00 159.46 169.44 C 160.33 169.87 161.39 169.52 161.83 168.65 L 162.26 167.80 C 162.69 166.92 162.34 165.86 161.47 165.43 C 160.60 164.99 159.54 165.34 159.10 166.21 Z M 158.68 167.06 L 158.26 167.90 C 157.82 168.76 158.17 169.82 159.03 170.26 C 159.90 170.70 160.95 170.35 161.39 169.49 L 161.81 168.65 C 162.25 167.79 161.91 166.73 161.04 166.29 C 160.18 165.85 159.12 166.20 158.68 167.06 Z M 158.27 167.90 L 157.82 168.77 C 157.38 169.63 157.72 170.68 158.58 171.12 C 159.44 171.56 160.49 171.22 160.93 170.36 L 161.38 169.49 C 161.82 168.63 161.48 167.58 160.62 167.14 C 159.76 166.70 158.71 167.04 158.27 167.90 Z M 157.83 168.77 L 157.38 169.66 C 156.94 170.51 157.27 171.56 158.13 172.00 C 158.98 172.44 160.02 172.10 160.46 171.25 L 160.92 170.36 C 161.36 169.51 161.02 168.46 160.17 168.03 C 159.32 167.59 158.27 167.92 157.83 168.77 Z M 157.39 169.67 L 156.93 170.56 C 156.49 171.41 156.82 172.45 157.67 172.88 C 158.52 173.32 159.56 172.99 159.99 172.14 L 160.45 171.24 C 160.89 170.40 160.56 169.36 159.71 168.92 C 158.86 168.48 157.82 168.82 157.39 169.67 Z M 156.93 170.57 L 156.47 171.47 C 156.04 172.31 156.38 173.34 157.22 173.77 C 158.06 174.21 159.10 173.87 159.53 173.03 L 159.99 172.13 C 160.42 171.29 160.08 170.25 159.24 169.82 C 158.40 169.39 157.36 169.73 156.93 170.57 Z M 156.48 171.48 L 156.03 172.36 C 155.61 173.20 155.94 174.23 156.78 174.65 C 157.62 175.08 158.65 174.74 159.07 173.90 L 159.52 173.02 C 159.95 172.18 159.61 171.15 158.77 170.73 C 157.93 170.30 156.91 170.64 156.48 171.48 Z M 156.04 172.37 L 155.59 173.26 C 155.17 174.09 155.50 175.11 156.33 175.53 C 157.17 175.96 158.19 175.62 158.61 174.79 L 159.06 173.90 C 159.48 173.07 159.15 172.05 158.32 171.62 C 157.48 171.20 156.47 171.53 156.04 172.37 Z M 155.60 173.26 L 155.15 174.16 C 154.72 174.98 155.05 176.00 155.88 176.42 C 156.70 176.84 157.72 176.51 158.14 175.69 L 158.60 174.79 C 159.02 173.96 158.69 172.95 157.87 172.53 C 157.04 172.11 156.03 172.43 155.60 173.26 Z M 155.16 174.15 L 154.70 175.04 C 154.27 175.86 154.59 176.87 155.41 177.29 C 156.23 177.72 157.24 177.40 157.66 176.58 L 158.12 175.69 C 158.55 174.87 158.23 173.86 157.41 173.44 C 156.59 173.01 155.59 173.33 155.16 174.15 Z M 154.71 175.04 L 154.25 175.93 C 153.82 176.74 154.13 177.74 154.94 178.16 C 155.75 178.59 156.75 178.28 157.18 177.47 L 157.65 176.58 C 158.07 175.77 157.76 174.77 156.95 174.35 C 156.14 173.92 155.14 174.23 154.71 175.04 Z M 154.26 175.93 L 153.79 176.81 C 153.37 177.62 153.68 178.61 154.48 179.04 C 155.28 179.46 156.28 179.15 156.70 178.35 L 157.17 177.47 C 157.59 176.66 157.29 175.67 156.48 175.24 C 155.68 174.82 154.69 175.13 154.26 175.93 Z M 153.80 176.82 L 153.34 177.71 C 152.92 178.51 153.22 179.49 154.02 179.91 C 154.82 180.33 155.80 180.02 156.22 179.23 L 156.69 178.34 C 157.11 177.54 156.80 176.56 156.01 176.14 C 155.21 175.72 154.22 176.03 153.80 176.82 Z M 153.35 177.72 L 152.88 178.61 C 152.47 179.41 152.78 180.38 153.57 180.79 C 154.37 181.20 155.34 180.90 155.76 180.10 L 156.22 179.21 C 156.63 178.42 156.32 177.44 155.53 177.03 C 154.73 176.62 153.76 176.93 153.35 177.72 Z M 152.89 178.63 L 152.43 179.52 C 152.03 180.31 152.35 181.28 153.14 181.68 C 153.93 182.08 154.89 181.77 155.29 180.98 L 155.75 180.08 C 156.15 179.30 155.84 178.33 155.05 177.93 C 154.26 177.53 153.29 177.84 152.89 178.63 Z M 152.44 179.54 L 152.00 180.44 C 151.60 181.22 151.92 182.18 152.71 182.57 C 153.49 182.96 154.45 182.64 154.84 181.86 L 155.29 180.96 C 155.68 180.18 155.36 179.22 154.57 178.83 C 153.79 178.44 152.83 178.76 152.44 179.54 Z M 152.00 180.45 L 151.56 181.35 C 151.18 182.13 151.51 183.08 152.29 183.46 C 153.07 183.84 154.02 183.52 154.40 182.73 L 154.84 181.84 C 155.22 181.06 154.89 180.11 154.11 179.73 C 153.33 179.35 152.38 179.67 152.00 180.45 Z M 151.57 181.37 L 151.14 182.26 C 150.77 183.04 151.10 183.97 151.88 184.35 C 152.66 184.72 153.59 184.39 153.96 183.61 L 154.39 182.72 C 154.76 181.94 154.44 181.00 153.66 180.63 C 152.88 180.26 151.94 180.59 151.57 181.37 Z M 151.15 182.28 L 150.73 183.18 C 150.36 183.95 150.70 184.88 151.47 185.24 C 152.25 185.60 153.17 185.27 153.53 184.49 L 153.96 183.59 C 154.32 182.82 153.99 181.90 153.21 181.53 C 152.44 181.17 151.51 181.50 151.15 182.28 Z M 150.73 183.20 L 150.32 184.10 C 149.96 184.88 150.30 185.79 151.07 186.14 C 151.84 186.49 152.76 186.16 153.11 185.39 L 153.53 184.48 C 153.88 183.71 153.54 182.79 152.77 182.44 C 152.00 182.09 151.09 182.42 150.73 183.20 Z M 150.33 184.12 L 149.91 185.04 C 149.57 185.81 149.91 186.71 150.68 187.05 C 151.44 187.40 152.34 187.06 152.69 186.29 L 153.10 185.37 C 153.45 184.60 153.11 183.70 152.34 183.36 C 151.57 183.01 150.67 183.35 150.33 184.12 Z M 149.92 185.06 L 149.51 185.99 C 149.17 186.75 149.52 187.64 150.28 187.98 C 151.04 188.32 151.93 187.97 152.27 187.21 L 152.68 186.28 C 153.02 185.51 152.67 184.62 151.91 184.28 C 151.15 183.95 150.26 184.29 149.92 185.06 Z M 149.51 186.00 L 149.11 186.93 C 148.78 187.69 149.12 188.57 149.88 188.91 C 150.64 189.24 151.52 188.89 151.85 188.13 L 152.26 187.20 C 152.59 186.44 152.25 185.56 151.49 185.22 C 150.73 184.89 149.85 185.24 149.51 186.00 Z M 149.12 186.94 L 148.72 187.86 C 148.39 188.61 148.74 189.48 149.49 189.81 C 150.24 190.14 151.12 189.80 151.45 189.04 L 151.84 188.13 C 152.17 187.37 151.83 186.50 151.07 186.17 C 150.32 185.84 149.44 186.19 149.12 186.94 Z M 148.73 187.86 L 148.34 188.74 C 148.02 189.49 148.36 190.36 149.10 190.69 C 149.85 191.01 150.72 190.67 151.05 189.93 L 151.43 189.04 C 151.76 188.29 151.42 187.42 150.67 187.10 C 149.93 186.77 149.06 187.11 148.73 187.86 Z M 148.35 188.74 L 147.93 189.70 C 147.60 190.44 147.94 191.31 148.68 191.63 C 149.41 191.96 150.28 191.63 150.61 190.89 L 151.03 189.93 C 151.36 189.19 151.03 188.32 150.29 187.99 C 149.55 187.67 148.68 188.00 148.35 188.74 Z M 147.94 189.70 L 147.53 190.61 C 147.21 191.35 147.54 192.21 148.27 192.53 C 149.01 192.86 149.87 192.53 150.19 191.80 L 150.60 190.89 C 150.93 190.15 150.60 189.29 149.86 188.96 C 149.13 188.64 148.27 188.97 147.94 189.70 Z M 147.54 190.62 L 147.15 191.50 C 146.83 192.24 147.16 193.09 147.89 193.41 C 148.62 193.73 149.48 193.40 149.80 192.67 L 150.19 191.79 C 150.51 191.06 150.18 190.20 149.45 189.88 C 148.72 189.56 147.86 189.89 147.54 190.62 Z M 147.15 191.52 L 146.76 192.43 C 146.45 193.16 146.79 194.00 147.52 194.32 C 148.25 194.63 149.09 194.29 149.41 193.56 L 149.80 192.65 C 150.11 191.92 149.77 191.08 149.04 190.77 C 148.31 190.45 147.47 190.79 147.15 191.52 Z M 146.76 192.44 L 146.38 193.37 C 146.07 194.10 146.42 194.94 147.15 195.24 C 147.88 195.55 148.72 195.20 149.02 194.47 L 149.41 193.55 C 149.71 192.82 149.37 191.98 148.64 191.67 C 147.91 191.37 147.07 191.71 146.76 192.44 Z M 146.38 193.38 L 146.00 194.30 C 145.70 195.03 146.05 195.86 146.78 196.16 C 147.51 196.46 148.34 196.12 148.64 195.39 L 149.02 194.46 C 149.32 193.73 148.97 192.90 148.24 192.60 C 147.51 192.30 146.68 192.65 146.38 193.38 Z M 146.00 194.30 L 145.62 195.23 C 145.32 195.96 145.67 196.79 146.40 197.09 C 147.13 197.39 147.96 197.04 148.26 196.31 L 148.64 195.38 C 148.94 194.65 148.59 193.82 147.86 193.52 C 147.13 193.22 146.30 193.57 146.00 194.30 Z M 145.62 195.23 L 145.24 196.15 C 144.94 196.88 145.29 197.71 146.02 198.01 C 146.75 198.31 147.58 197.96 147.88 197.23 L 148.26 196.31 C 148.56 195.58 148.21 194.75 147.48 194.45 C 146.75 194.15 145.92 194.50 145.62 195.23 Z M 145.24 196.15 L 144.86 197.08 C 144.57 197.81 144.92 198.64 145.64 198.94 C 146.37 199.24 147.21 198.89 147.50 198.16 L 147.88 197.23 C 148.18 196.50 147.83 195.67 147.10 195.37 C 146.37 195.07 145.54 195.42 145.24 196.15 Z M 144.86 197.08 L 144.64 197.63 C 144.34 198.36 144.69 199.19 145.42 199.49 C 146.15 199.78 146.98 199.43 147.28 198.71 L 147.50 198.16 C 147.80 197.43 147.45 196.60 146.72 196.30 C 146.00 196.00 145.16 196.35 144.86 197.08 Z"
      fill="black"
      fill-rule="nonzero" /></svg>