<svg xmlns="http://www.w3.org/2000/svg" width="300" height="300" viewBox="0 0 300 300">
<path d="M 128.36 114.41 L 127.27 114.41 C 126.38 114.41 125.66 115.13 125.66 116.01 C 125.66 116.90 126.38 117.62 127.27 117.62 L 128.36 117.62 C 129.25 117.62 129.97 116.90 129.97 116.01 C 129.97 115.13 129.25 114.41 128.36 114.41 Z M 127.27 114.40 L 126.19 114.40 C 125.30 114.40 124.58 115.12 124.58 116.01 C 124.58 116.90 125.30 117.62 126.19 117.62 L 127.27 117.62 C 128.16 117.62 128.88 116.90 128.88 116.01 C 128.88 115.12 128.16 114.40 127.27 114.40 Z M 126.19 114.40 L 125.14 114.40 C 124.25 114.40 123.53 115.12 123.53 116.01 C 123.53 116.90 124.25 117.62 125.14 117.62 L 126.19 117.62 C 127.08 117.62 127.80 116.90 127.80 116.01 C 127.80 115.12 127.08 114.40 126.19 114.40 Z M 125.14 114.40 L 124.14 114.40 C 123.25 114.40 122.53 115.12 122.53 116.01 C 122.53 116.90 123.25 117.63 124.14 117.63 L 125.14 117.63 C 126.03 117.63 126.75 116.90 126.75 116.01 C 126.75 115.12 126.03 114.40 125.14 114.40 Z M 124.14 114.40 L 123.21 114.40 C 122.32 114.40 121.60 115.12 121.60 116.01 C 121.60 116.91 122.32 117.63 123.21 117.63 L 124.14 117.63 C 125.04 117.63 125.76 116.91 125.76 116.01 C 125.76 115.12 125.04 114.40 124.14 114.40 Z M 123.21 114.40 L 122.36 114.40 C 121.47 114.40 120.74 115.12 120.74 116.01 C 120.74 116.91 121.47 117.63 122.36 117.63 L 123.21 117.63 C 124.10 117.63 124.83 116.91 124.83 116.01 C 124.83 115.12 124.10 114.40 123.21 114.40 Z M 122.36 114.39 L 120.83 114.39 C 119.93 114.39 119.20 115.11 119.20 116.01 C 119.20 116.91 119.93 117.64 120.83 117.64 L 122.36 117.64 C 123.26 117.64 123.99 116.91 123.99 116.01 C 123.99 115.11 123.26 114.39 122.36 114.39 Z M 120.83 114.37 L 120.05 114.37 C 119.14 114.37 118.40 115.10 118.40 116.01 C 118.40 116.92 119.14 117.66 120.05 117.66 L 120.83 117.66 C 121.74 117.66 122.48 116.92 122.48 116.01 C 122.48 115.10 121.74 114.37 120.83 114.37 Z M 120.05 117.68 L 120.21 117.68 C 121.13 117.68 121.87 116.93 121.87 116.01 C 121.87 115.09 121.12 114.35 120.21 114.35 L 120.05 114.35 C 119.13 114.35 118.38 115.10 118.39 116.02 C 118.39 116.93 119.13 117.68 120.05 117.68 Z M 120.23 117.68 L 120.92 117.68 C 121.84 117.66 122.58 116.91 122.57 115.98 C 122.56 115.06 121.80 114.32 120.88 114.33 L 120.19 114.34 C 119.26 114.35 118.52 115.11 118.54 116.03 C 118.55 116.96 119.30 117.70 120.23 117.68 Z M 120.96 117.68 L 122.02 117.64 C 122.94 117.61 123.66 116.83 123.63 115.91 C 123.60 114.99 122.82 114.27 121.90 114.30 L 120.84 114.33 C 119.92 114.37 119.20 115.14 119.23 116.06 C 119.26 116.99 120.04 117.71 120.96 117.68 Z M 122.07 117.64 L 123.36 117.55 C 124.28 117.49 124.97 116.69 124.91 115.77 C 124.85 114.85 124.05 114.15 123.13 114.21 L 121.85 114.30 C 120.93 114.36 120.23 115.16 120.29 116.08 C 120.35 117.00 121.15 117.70 122.07 117.64 Z M 123.43 117.54 L 124.62 117.41 C 125.54 117.31 126.20 116.49 126.10 115.57 C 126.00 114.65 125.18 113.99 124.26 114.09 L 123.06 114.22 C 122.14 114.32 121.48 115.15 121.58 116.06 C 121.68 116.98 122.51 117.64 123.43 117.54 Z M 124.69 117.40 L 125.73 117.25 C 126.64 117.11 127.27 116.26 127.13 115.34 C 126.99 114.43 126.14 113.80 125.23 113.94 L 124.19 114.10 C 123.28 114.24 122.65 115.09 122.79 116.00 C 122.93 116.91 123.78 117.54 124.69 117.40 Z M 125.77 117.24 L 126.79 117.05 C 127.70 116.89 128.30 116.02 128.14 115.11 C 127.97 114.20 127.10 113.60 126.19 113.76 L 125.18 113.95 C 124.27 114.12 123.67 114.99 123.83 115.89 C 124.00 116.80 124.87 117.40 125.77 117.24 Z M 126.83 117.04 L 127.81 116.84 C 128.72 116.65 129.30 115.77 129.11 114.87 C 128.92 113.96 128.04 113.38 127.14 113.57 L 126.15 113.77 C 125.25 113.96 124.67 114.84 124.86 115.75 C 125.04 116.65 125.93 117.23 126.83 117.04 Z M 127.84 116.83 L 128.77 116.62 C 129.67 116.42 130.24 115.52 130.03 114.63 C 129.83 113.73 128.94 113.16 128.04 113.37 L 127.11 113.58 C 126.21 113.78 125.64 114.67 125.85 115.57 C 126.05 116.47 126.95 117.04 127.84 116.83 Z M 128.80 116.61 L 129.77 116.38 C 130.66 116.16 131.21 115.26 131.00 114.37 C 130.78 113.47 129.88 112.92 128.99 113.14 L 128.01 113.37 C 127.12 113.59 126.57 114.49 126.79 115.39 C 127.00 116.28 127.90 116.83 128.80 116.61 Z M 129.79 116.37 L 130.82 116.11 C 131.71 115.88 132.25 114.97 132.02 114.08 C 131.79 113.19 130.89 112.65 130.00 112.88 L 128.96 113.15 C 128.07 113.38 127.54 114.28 127.76 115.17 C 127.99 116.06 128.90 116.60 129.79 116.37 Z M 130.84 116.10 L 131.79 115.84 C 132.67 115.60 133.20 114.69 132.96 113.80 C 132.72 112.92 131.80 112.40 130.92 112.64 L 129.97 112.89 C 129.09 113.13 128.57 114.04 128.81 114.93 C 129.05 115.82 129.96 116.34 130.84 116.10 Z M 131.81 115.83 L 132.70 115.58 C 133.58 115.33 134.09 114.41 133.84 113.53 C 133.59 112.65 132.67 112.14 131.79 112.39 L 130.90 112.64 C 130.02 112.90 129.51 113.81 129.76 114.69 C 130.01 115.57 130.93 116.08 131.81 115.83 Z M 132.72 115.57 L 133.63 115.30 C 134.51 115.04 135.01 114.12 134.75 113.25 C 134.49 112.37 133.57 111.87 132.70 112.13 L 131.78 112.40 C 130.90 112.65 130.40 113.57 130.66 114.45 C 130.92 115.33 131.84 115.83 132.72 115.57 Z M 133.64 115.29 L 134.59 115.01 C 135.46 114.74 135.96 113.82 135.69 112.95 C 135.43 112.07 134.50 111.58 133.63 111.85 L 132.68 112.13 C 131.81 112.40 131.32 113.32 131.58 114.19 C 131.85 115.07 132.77 115.56 133.64 115.29 Z M 134.61 115.00 L 135.56 114.70 C 136.43 114.42 136.91 113.49 136.64 112.63 C 136.36 111.76 135.44 111.28 134.57 111.55 L 133.61 111.85 C 132.74 112.13 132.26 113.05 132.54 113.92 C 132.81 114.79 133.74 115.27 134.61 115.00 Z M 135.58 114.69 L 136.55 114.37 C 137.41 114.08 137.88 113.15 137.60 112.29 C 137.31 111.42 136.38 110.95 135.52 111.24 L 134.55 111.56 C 133.69 111.85 133.22 112.78 133.50 113.64 C 133.79 114.50 134.72 114.97 135.58 114.69 Z M 136.57 114.36 L 137.49 114.04 C 138.35 113.74 138.80 112.80 138.51 111.95 C 138.21 111.09 137.27 110.63 136.41 110.93 L 135.50 111.25 C 134.64 111.55 134.18 112.48 134.48 113.34 C 134.78 114.20 135.71 114.65 136.57 114.36 Z M 137.51 114.03 L 138.44 113.69 C 139.29 113.39 139.73 112.45 139.43 111.60 C 139.12 110.75 138.18 110.30 137.33 110.61 L 136.40 110.94 C 135.55 111.25 135.10 112.19 135.41 113.04 C 135.71 113.89 136.65 114.33 137.51 114.03 Z M 138.44 113.69 L 139.39 113.34 C 140.24 113.03 140.68 112.09 140.37 111.24 C 140.06 110.39 139.12 109.96 138.27 110.27 L 137.32 110.62 C 136.47 110.93 136.04 111.86 136.35 112.71 C 136.66 113.56 137.60 114.00 138.44 113.69 Z M 139.40 113.34 L 140.36 112.98 C 141.21 112.67 141.64 111.73 141.33 110.89 C 141.02 110.04 140.08 109.61 139.23 109.92 L 138.27 110.27 C 137.42 110.58 136.99 111.52 137.30 112.37 C 137.61 113.21 138.55 113.65 139.40 113.34 Z M 140.36 112.98 L 141.30 112.63 C 142.14 112.32 142.57 111.38 142.26 110.54 C 141.95 109.70 141.01 109.27 140.17 109.58 L 139.23 109.92 C 138.39 110.23 137.96 111.17 138.27 112.01 C 138.58 112.85 139.52 113.29 140.36 112.98 Z M 141.30 112.62 L 142.24 112.27 C 143.08 111.96 143.51 111.03 143.20 110.19 C 142.89 109.35 141.95 108.92 141.11 109.23 L 140.17 109.58 C 139.33 109.90 138.90 110.83 139.21 111.67 C 139.52 112.51 140.46 112.94 141.30 112.62 Z M 142.25 112.27 L 143.19 111.91 C 144.03 111.59 144.45 110.66 144.13 109.83 C 143.82 108.99 142.88 108.57 142.05 108.88 L 141.11 109.24 C 140.27 109.56 139.85 110.49 140.17 111.32 C 140.48 112.16 141.41 112.58 142.25 112.27 Z M 143.20 111.90 L 144.13 111.54 C 144.96 111.22 145.37 110.29 145.05 109.46 C 144.73 108.63 143.79 108.21 142.96 108.54 L 142.04 108.89 C 141.21 109.22 140.79 110.15 141.12 110.98 C 141.44 111.81 142.37 112.22 143.20 111.90 Z M 144.14 111.53 L 145.10 111.15 C 145.92 110.82 146.32 109.88 145.99 109.06 C 145.66 108.24 144.73 107.84 143.90 108.17 L 142.95 108.55 C 142.12 108.88 141.72 109.81 142.05 110.64 C 142.38 111.46 143.32 111.86 144.14 111.53 Z M 145.11 111.13 L 146.04 110.75 C 146.86 110.41 147.24 109.48 146.91 108.66 C 146.57 107.85 145.63 107.46 144.82 107.79 L 143.89 108.18 C 143.07 108.52 142.69 109.45 143.02 110.27 C 143.36 111.08 144.30 111.47 145.11 111.13 Z M 146.05 110.74 L 146.96 110.36 C 147.77 110.01 148.14 109.08 147.80 108.27 C 147.46 107.46 146.52 107.08 145.71 107.42 L 144.81 107.81 C 144.00 108.15 143.62 109.08 143.96 109.89 C 144.30 110.70 145.24 111.08 146.05 110.74 Z M 146.96 110.35 L 147.86 109.96 C 148.67 109.61 149.04 108.68 148.69 107.87 C 148.35 107.07 147.41 106.70 146.61 107.04 L 145.71 107.43 C 144.90 107.78 144.53 108.71 144.88 109.52 C 145.22 110.32 146.16 110.69 146.96 110.35 Z M 147.87 109.95 L 148.79 109.55 C 149.59 109.20 149.95 108.27 149.61 107.47 C 149.26 106.67 148.33 106.31 147.53 106.65 L 146.61 107.05 C 145.81 107.40 145.44 108.33 145.79 109.13 C 146.14 109.93 147.07 110.30 147.87 109.95 Z M 148.79 109.54 L 149.70 109.14 C 150.50 108.79 150.86 107.87 150.51 107.07 C 150.16 106.28 149.24 105.91 148.44 106.26 L 147.53 106.66 C 146.73 107.01 146.37 107.94 146.72 108.73 C 147.07 109.53 147.99 109.89 148.79 109.54 Z M 149.70 109.13 L 150.61 108.73 C 151.40 108.38 151.76 107.46 151.42 106.67 C 151.07 105.88 150.15 105.52 149.36 105.87 L 148.44 106.27 C 147.65 106.62 147.30 107.54 147.64 108.33 C 147.99 109.12 148.91 109.48 149.70 109.13 Z M 150.61 108.72 L 151.52 108.32 C 152.31 107.98 152.67 107.06 152.32 106.27 C 151.98 105.49 151.06 105.13 150.27 105.47 L 149.36 105.88 C 148.57 106.22 148.22 107.14 148.56 107.93 C 148.91 108.71 149.82 109.07 150.61 108.72 Z M 151.52 108.31 L 152.44 107.91 C 153.22 107.57 153.57 106.65 153.23 105.87 C 152.89 105.09 151.97 104.74 151.19 105.08 L 150.28 105.48 C 149.49 105.83 149.14 106.74 149.48 107.52 C 149.83 108.30 150.74 108.66 151.52 108.31 Z M 152.43 107.90 L 153.35 107.50 C 154.13 107.16 154.48 106.25 154.14 105.47 C 153.79 104.70 152.89 104.34 152.11 104.68 L 151.19 105.09 C 150.42 105.43 150.06 106.34 150.41 107.11 C 150.75 107.89 151.66 108.25 152.43 107.90 Z M 153.35 107.49 L 154.26 107.09 C 155.03 106.75 155.39 105.85 155.04 105.07 C 154.70 104.30 153.80 103.95 153.03 104.29 L 152.11 104.69 C 151.34 105.03 150.99 105.94 151.33 106.71 C 151.67 107.48 152.57 107.83 153.35 107.49 Z M 154.26 107.08 L 155.17 106.68 C 155.94 106.34 156.29 105.44 155.95 104.67 C 155.61 103.90 154.72 103.56 153.95 103.89 L 153.03 104.30 C 152.26 104.64 151.91 105.53 152.25 106.30 C 152.59 107.07 153.49 107.42 154.26 107.08 Z M 155.17 106.67 L 156.08 106.27 C 156.85 105.93 157.20 105.04 156.86 104.27 C 156.52 103.51 155.63 103.16 154.87 103.50 L 153.95 103.90 C 153.18 104.24 152.84 105.13 153.17 105.90 C 153.51 106.66 154.40 107.01 155.17 106.67 Z M 156.08 106.26 L 157.00 105.86 C 157.76 105.52 158.10 104.64 157.77 103.88 C 157.43 103.11 156.54 102.77 155.78 103.10 L 154.87 103.51 C 154.11 103.84 153.76 104.73 154.10 105.49 C 154.43 106.25 155.32 106.60 156.08 106.26 Z M 156.99 105.85 L 157.90 105.45 C 158.66 105.12 159.00 104.24 158.67 103.48 C 158.34 102.72 157.45 102.38 156.70 102.71 L 155.79 103.11 C 155.03 103.44 154.69 104.33 155.02 105.08 C 155.35 105.84 156.24 106.18 156.99 105.85 Z M 157.90 105.44 L 158.80 105.05 C 159.55 104.72 159.89 103.84 159.56 103.09 C 159.23 102.33 158.35 101.99 157.60 102.32 L 156.70 102.72 C 155.95 103.05 155.60 103.93 155.94 104.68 C 156.27 105.43 157.14 105.78 157.90 105.44 Z M 158.79 105.04 L 159.71 104.64 C 160.46 104.31 160.80 103.44 160.47 102.69 C 160.14 101.94 159.27 101.60 158.52 101.93 L 157.61 102.33 C 156.86 102.66 156.52 103.53 156.84 104.28 C 157.17 105.03 158.05 105.37 158.79 105.04 Z M 159.70 104.64 L 160.63 104.23 C 161.38 103.90 161.72 103.04 161.39 102.29 C 161.07 101.54 160.20 101.20 159.46 101.53 L 158.52 101.94 C 157.78 102.26 157.44 103.13 157.76 103.87 C 158.09 104.62 158.96 104.96 159.70 104.64 Z M 160.63 104.22 L 161.45 103.87 C 162.19 103.55 162.53 102.68 162.21 101.94 C 161.89 101.20 161.02 100.86 160.28 101.18 L 159.46 101.53 C 158.72 101.86 158.38 102.72 158.70 103.46 C 159.02 104.20 159.88 104.55 160.63 104.22 Z M 161.44 103.87 L 162.25 103.52 C 162.99 103.20 163.33 102.34 163.01 101.60 C 162.69 100.86 161.83 100.52 161.09 100.84 L 160.29 101.18 C 159.55 101.50 159.20 102.36 159.52 103.10 C 159.84 103.84 160.70 104.18 161.44 103.87 Z M 162.24 103.52 L 163.12 103.14 C 163.86 102.82 164.21 101.97 163.89 101.23 C 163.58 100.49 162.72 100.15 161.98 100.46 L 161.10 100.84 C 160.36 101.15 160.02 102.01 160.33 102.75 C 160.65 103.49 161.50 103.83 162.24 103.52 Z M 163.12 103.14 L 164.11 102.72 C 164.85 102.41 165.19 101.56 164.88 100.82 C 164.57 100.08 163.72 99.73 162.98 100.05 L 161.99 100.46 C 161.25 100.78 160.91 101.63 161.22 102.36 C 161.53 103.10 162.38 103.45 163.12 103.14 Z M 164.10 102.72 L 165.20 102.26 C 165.93 101.95 166.28 101.10 165.97 100.37 C 165.66 99.63 164.82 99.28 164.08 99.59 L 162.99 100.05 C 162.25 100.36 161.90 101.20 162.21 101.94 C 162.52 102.68 163.37 103.02 164.10 102.72 Z M 165.19 102.26 L 165.99 101.93 C 166.72 101.62 167.07 100.78 166.77 100.04 C 166.46 99.31 165.62 98.96 164.88 99.26 L 164.09 99.59 C 163.35 99.90 163.00 100.74 163.31 101.48 C 163.61 102.21 164.46 102.56 165.19 102.26 Z M 165.99 101.92 L 166.84 101.57 C 167.57 101.27 167.92 100.43 167.62 99.69 C 167.31 98.96 166.47 98.61 165.74 98.91 L 164.88 99.26 C 164.15 99.57 163.80 100.41 164.10 101.15 C 164.41 101.88 165.25 102.23 165.99 101.92 Z M 166.84 101.57 L 167.74 101.20 C 168.47 100.89 168.82 100.05 168.52 99.32 C 168.22 98.59 167.38 98.24 166.64 98.54 L 165.74 98.91 C 165.00 99.21 164.66 100.06 164.96 100.79 C 165.26 101.52 166.10 101.87 166.84 101.57 Z M 167.74 101.20 L 168.68 100.81 C 169.41 100.51 169.76 99.67 169.46 98.93 C 169.16 98.20 168.32 97.85 167.59 98.15 L 166.64 98.54 C 165.91 98.84 165.56 99.68 165.86 100.42 C 166.16 101.15 167.00 101.50 167.74 101.20 Z M 168.68 100.81 L 169.65 100.41 C 170.38 100.11 170.73 99.27 170.43 98.53 C 170.13 97.80 169.29 97.45 168.56 97.75 L 167.59 98.15 C 166.85 98.45 166.50 99.29 166.81 100.03 C 167.11 100.76 167.95 101.11 168.68 100.81 Z M 169.65 100.41 L 170.64 100.00 C 171.38 99.70 171.73 98.86 171.43 98.13 C 171.12 97.39 170.29 97.04 169.55 97.35 L 168.56 97.75 C 167.83 98.06 167.48 98.89 167.78 99.63 C 168.08 100.36 168.92 100.71 169.65 100.41 Z M 170.64 100.00 L 171.65 99.58 C 172.38 99.28 172.73 98.45 172.43 97.71 C 172.13 96.98 171.29 96.63 170.56 96.93 L 169.56 97.35 C 168.82 97.65 168.47 98.48 168.77 99.22 C 169.08 99.95 169.91 100.30 170.64 100.00 Z M 171.65 99.58 L 171.90 99.48 C 172.63 99.18 172.98 98.34 172.68 97.61 C 172.38 96.88 171.55 96.53 170.82 96.83 L 170.56 96.94 C 169.83 97.24 169.48 98.07 169.78 98.80 C 170.08 99.53 170.92 99.88 171.65 99.58 Z"
      fill="black"
      fill-rule="nonzero" /><path d="M 153.40 90.03 L 152.27 90.01 C 151.44 89.99 150.75 90.65 150.74 91.49 C 150.72 92.32 151.38 93.01 152.22 93.03 L 153.34 93.05 C 154.17 93.07 154.86 92.40 154.88 91.57 C 154.89 90.74 154.23 90.05 153.40 90.03 Z M 152.20 89.99 L 151.13 90.02 C 150.28 90.05 149.62 90.76 149.65 91.60 C 149.67 92.45 150.38 93.11 151.23 93.08 L 152.30 93.05 C 153.14 93.02 153.80 92.31 153.78 91.47 C 153.75 90.62 153.04 89.96 152.20 89.99 Z M 150.94 90.02 L 149.98 90.17 C 149.13 90.30 148.55 91.09 148.68 91.94 C 148.82 92.79 149.61 93.37 150.46 93.24 L 151.42 93.09 C 152.26 92.96 152.84 92.16 152.71 91.31 C 152.58 90.47 151.79 89.89 150.94 90.02 Z M 149.63 90.24 L 148.84 90.56 C 148.03 90.88 147.64 91.80 147.97 92.61 C 148.29 93.42 149.21 93.81 150.02 93.48 L 150.81 93.16 C 151.62 92.84 152.01 91.92 151.68 91.11 C 151.36 90.31 150.44 89.91 149.63 90.24 Z M 148.34 90.85 L 147.77 91.38 C 147.12 91.98 147.09 92.99 147.68 93.63 C 148.28 94.28 149.29 94.32 149.94 93.72 L 150.51 93.19 C 151.16 92.59 151.20 91.58 150.60 90.94 C 150.00 90.29 148.99 90.25 148.34 90.85 Z M 147.42 91.82 L 147.04 92.57 C 146.63 93.37 146.95 94.33 147.74 94.74 C 148.53 95.14 149.50 94.83 149.90 94.03 L 150.29 93.28 C 150.69 92.49 150.38 91.52 149.58 91.12 C 148.79 90.71 147.82 91.03 147.42 91.82 Z M 146.89 92.91 L 146.66 93.88 C 146.44 94.75 146.97 95.63 147.84 95.84 C 148.71 96.06 149.59 95.52 149.81 94.65 L 150.05 93.69 C 150.26 92.82 149.73 91.94 148.86 91.73 C 147.99 91.51 147.11 92.04 146.89 92.91 Z M 146.61 94.07 L 146.47 95.23 C 146.37 96.13 147.01 96.95 147.91 97.05 C 148.80 97.16 149.62 96.51 149.72 95.62 L 149.86 94.46 C 149.96 93.56 149.32 92.74 148.42 92.64 C 147.53 92.53 146.71 93.18 146.61 94.07 Z M 146.45 95.32 L 146.38 96.45 C 146.33 97.36 147.02 98.14 147.93 98.19 C 148.84 98.25 149.62 97.56 149.68 96.65 L 149.74 95.52 C 149.80 94.62 149.11 93.83 148.20 93.78 C 147.29 93.72 146.51 94.42 146.45 95.32 Z M 146.37 96.49 L 146.34 97.49 C 146.30 98.41 147.01 99.18 147.93 99.21 C 148.84 99.24 149.61 98.53 149.65 97.62 L 149.68 96.61 C 149.72 95.70 149.01 94.93 148.09 94.89 C 147.18 94.86 146.41 95.57 146.37 96.49 Z M 146.33 97.52 L 146.31 98.56 C 146.28 99.48 147.01 100.24 147.93 100.26 C 148.85 100.28 149.61 99.55 149.63 98.64 L 149.65 97.59 C 149.67 96.68 148.95 95.91 148.03 95.89 C 147.11 95.87 146.35 96.60 146.33 97.52 Z M 146.30 98.58 L 146.29 99.63 C 146.27 100.55 147.01 101.30 147.93 101.31 C 148.85 101.33 149.61 100.59 149.62 99.67 L 149.63 98.62 C 149.65 97.70 148.91 96.94 147.99 96.93 C 147.07 96.92 146.31 97.66 146.30 98.58 Z M 146.28 99.64 L 146.27 100.66 C 146.27 101.58 147.01 102.34 147.94 102.34 C 148.86 102.35 149.61 101.61 149.62 100.68 L 149.62 99.66 C 149.63 98.74 148.89 97.98 147.96 97.98 C 147.04 97.97 146.29 98.71 146.28 99.64 Z M 146.27 100.67 L 146.27 101.63 C 146.27 102.56 147.01 103.31 147.94 103.31 C 148.87 103.32 149.62 102.57 149.62 101.64 L 149.62 100.68 C 149.62 99.75 148.88 99.00 147.95 99.00 C 147.02 98.99 146.27 99.74 146.27 100.67 Z M 146.26 101.64 L 146.26 102.67 C 146.26 103.60 147.02 104.35 147.94 104.35 C 148.87 104.36 149.62 103.60 149.62 102.67 L 149.62 101.64 C 149.62 100.71 148.87 99.96 147.94 99.96 C 147.02 99.96 146.26 100.71 146.26 101.64 Z M 146.26 102.67 L 146.26 103.81 C 146.26 104.74 147.01 105.50 147.94 105.50 C 148.87 105.50 149.63 104.74 149.63 103.81 L 149.63 102.67 C 149.63 101.74 148.87 100.99 147.94 100.99 C 147.01 100.99 146.26 101.74 146.26 102.67 Z M 146.26 103.81 L 146.26 104.78 C 146.26 105.71 147.01 106.47 147.94 106.47 C 148.88 106.47 149.63 105.71 149.63 104.78 L 149.63 103.81 C 149.63 102.88 148.88 102.13 147.94 102.13 C 147.01 102.13 146.26 102.88 146.26 103.81 Z M 146.25 104.78 L 146.25 105.66 C 146.25 106.59 147.01 107.35 147.94 107.35 C 148.88 107.35 149.63 106.59 149.63 105.66 L 149.63 104.78 C 149.63 103.85 148.88 103.09 147.94 103.09 C 147.01 103.09 146.25 103.85 146.25 104.78 Z M 146.25 105.66 L 146.25 106.55 C 146.25 107.48 147.01 108.24 147.94 108.24 C 148.88 108.24 149.64 107.48 149.64 106.55 L 149.64 105.66 C 149.64 104.72 148.88 103.96 147.94 103.96 C 147.01 103.96 146.25 104.72 146.25 105.66 Z M 146.25 106.55 L 146.25 107.52 C 146.25 108.46 147.01 109.22 147.95 109.22 C 148.88 109.22 149.64 108.46 149.64 107.52 L 149.64 106.55 C 149.64 105.61 148.88 104.85 147.94 104.85 C 147.01 104.85 146.25 105.61 146.25 106.55 Z M 146.25 107.53 L 146.25 108.53 C 146.26 109.47 147.02 110.23 147.96 110.22 C 148.90 110.22 149.65 109.45 149.65 108.52 L 149.64 107.51 C 149.64 106.57 148.87 105.82 147.94 105.82 C 147.00 105.83 146.24 106.59 146.25 107.53 Z M 146.25 108.55 L 146.26 109.58 C 146.27 110.52 147.04 111.27 147.98 111.26 C 148.92 111.25 149.68 110.48 149.66 109.54 L 149.65 108.50 C 149.64 107.57 148.87 106.81 147.93 106.82 C 146.99 106.84 146.24 107.61 146.25 108.55 Z M 146.26 109.59 L 146.28 110.56 C 146.30 111.51 147.08 112.25 148.02 112.23 C 148.96 112.22 149.70 111.44 149.69 110.50 L 149.67 109.53 C 149.65 108.59 148.87 107.84 147.93 107.86 C 146.99 107.88 146.24 108.65 146.26 109.59 Z M 146.28 110.57 L 146.30 111.55 C 146.32 112.49 147.11 113.24 148.05 113.22 C 148.99 113.19 149.73 112.41 149.71 111.47 L 149.69 110.49 C 149.67 109.55 148.88 108.80 147.94 108.83 C 147.00 108.85 146.25 109.63 146.28 110.57 Z M 146.30 111.55 L 146.32 112.56 C 146.35 113.50 147.13 114.25 148.07 114.23 C 149.02 114.20 149.76 113.42 149.74 112.48 L 149.71 111.47 C 149.69 110.53 148.91 109.78 147.96 109.80 C 147.02 109.83 146.28 110.61 146.30 111.55 Z M 146.32 112.55 L 146.34 113.59 C 146.36 114.54 147.14 115.29 148.09 115.27 C 149.03 115.25 149.78 114.47 149.76 113.52 L 149.74 112.49 C 149.72 111.54 148.94 110.79 148.00 110.81 C 147.05 110.83 146.30 111.61 146.32 112.55 Z M 146.34 113.58 L 146.35 114.58 C 146.36 115.53 147.14 116.29 148.09 116.27 C 149.03 116.26 149.79 115.48 149.78 114.54 L 149.76 113.54 C 149.75 112.59 148.97 111.83 148.03 111.85 C 147.08 111.86 146.33 112.64 146.34 113.58 Z M 146.35 114.57 L 146.36 115.58 C 146.36 116.52 147.14 117.29 148.08 117.28 C 149.03 117.27 149.79 116.50 149.79 115.55 L 149.78 114.55 C 149.77 113.60 149.00 112.84 148.05 112.84 C 147.10 112.85 146.34 113.62 146.35 114.57 Z M 146.35 115.57 L 146.36 116.58 C 146.36 117.53 147.13 118.29 148.08 118.29 C 149.03 118.29 149.80 117.52 149.79 116.57 L 149.79 115.56 C 149.79 114.61 149.02 113.84 148.07 113.85 C 147.12 113.85 146.35 114.62 146.35 115.57 Z M 146.35 116.58 L 146.36 117.58 C 146.36 118.53 147.13 119.30 148.08 119.29 C 149.03 119.29 149.80 118.52 149.80 117.57 L 149.80 116.57 C 149.79 115.62 149.02 114.85 148.07 114.85 C 147.12 114.85 146.35 115.63 146.35 116.58 Z M 146.35 117.57 L 146.35 118.58 C 146.35 119.53 147.12 120.30 148.08 120.30 C 149.03 120.30 149.80 119.53 149.80 118.58 L 149.80 117.57 C 149.80 116.62 149.03 115.85 148.08 115.85 C 147.12 115.85 146.35 116.62 146.35 117.57 Z M 146.35 118.58 L 146.35 119.59 C 146.35 120.54 147.12 121.31 148.08 121.31 C 149.03 121.31 149.80 120.54 149.80 119.59 L 149.80 118.58 C 149.80 117.63 149.03 116.86 148.08 116.86 C 147.12 116.86 146.35 117.63 146.35 118.58 Z M 146.35 119.59 L 146.35 120.58 C 146.35 121.53 147.12 122.31 148.08 122.31 C 149.03 122.31 149.80 121.53 149.80 120.58 L 149.80 119.59 C 149.80 118.63 149.03 117.86 148.08 117.86 C 147.12 117.86 146.35 118.63 146.35 119.59 Z M 146.35 120.58 L 146.35 121.57 C 146.35 122.52 147.12 123.30 148.08 123.30 C 149.03 123.30 149.80 122.52 149.80 121.57 L 149.80 120.58 C 149.80 119.63 149.03 118.85 148.08 118.85 C 147.12 118.85 146.35 119.63 146.35 120.58 Z M 146.35 121.57 L 146.35 122.56 C 146.35 123.51 147.12 124.29 148.08 124.29 C 149.03 124.29 149.81 123.51 149.81 122.56 L 149.81 121.57 C 149.81 120.61 149.03 119.84 148.08 119.84 C 147.12 119.84 146.35 120.61 146.35 121.57 Z M 146.34 122.56 L 146.34 123.54 C 146.34 124.50 147.12 125.28 148.07 125.28 C 149.03 125.28 149.81 124.50 149.81 123.55 L 149.81 122.56 C 149.81 121.60 149.03 120.83 148.08 120.83 C 147.12 120.82 146.34 121.60 146.34 122.56 Z M 146.34 123.54 L 146.34 124.54 C 146.33 125.50 147.11 126.27 148.07 126.28 C 149.02 126.28 149.80 125.51 149.81 124.55 L 149.81 123.55 C 149.81 122.59 149.04 121.81 148.08 121.81 C 147.12 121.81 146.34 122.58 146.34 123.54 Z M 146.34 124.53 L 146.33 125.54 C 146.32 126.50 147.09 127.28 148.05 127.29 C 149.01 127.30 149.79 126.53 149.80 125.57 L 149.81 124.56 C 149.81 123.60 149.04 122.82 148.09 122.81 C 147.13 122.80 146.34 123.57 146.34 124.53 Z M 146.33 125.53 L 146.31 126.54 C 146.30 127.50 147.07 128.29 148.03 128.30 C 148.99 128.32 149.78 127.55 149.79 126.59 L 149.80 125.58 C 149.81 124.62 149.05 123.83 148.09 123.82 C 147.13 123.80 146.34 124.57 146.33 125.53 Z M 146.31 126.53 L 146.29 127.53 C 146.27 128.49 147.03 129.28 147.99 129.30 C 148.95 129.32 149.75 128.56 149.77 127.60 L 149.79 126.60 C 149.81 125.64 149.05 124.85 148.09 124.83 C 147.13 124.81 146.33 125.57 146.31 126.53 Z M 146.29 127.51 L 146.26 128.51 C 146.23 129.47 146.98 130.27 147.94 130.31 C 148.90 130.34 149.71 129.58 149.74 128.62 L 149.77 127.62 C 149.80 126.66 149.05 125.85 148.09 125.82 C 147.12 125.79 146.32 126.55 146.29 127.51 Z M 146.26 128.48 L 146.21 129.49 C 146.16 130.45 146.91 131.26 147.87 131.31 C 148.83 131.35 149.65 130.61 149.69 129.65 L 149.74 128.65 C 149.78 127.68 149.04 126.87 148.08 126.82 C 147.12 126.78 146.30 127.52 146.26 128.48 Z M 146.21 129.45 L 146.14 130.45 C 146.08 131.41 146.81 132.24 147.77 132.31 C 148.74 132.37 149.57 131.64 149.63 130.68 L 149.69 129.68 C 149.75 128.72 149.02 127.89 148.06 127.82 C 147.10 127.76 146.27 128.49 146.21 129.45 Z M 146.15 130.42 L 146.06 131.41 C 145.98 132.38 146.69 133.22 147.65 133.30 C 148.61 133.39 149.46 132.67 149.54 131.71 L 149.63 130.71 C 149.71 129.75 149.00 128.91 148.03 128.82 C 147.07 128.74 146.23 129.45 146.15 130.42 Z M 146.06 131.38 L 145.96 132.37 C 145.85 133.33 146.55 134.19 147.51 134.30 C 148.47 134.40 149.33 133.70 149.43 132.74 L 149.54 131.75 C 149.64 130.79 148.95 129.93 147.99 129.82 C 147.02 129.72 146.16 130.42 146.06 131.38 Z M 145.96 132.34 L 145.84 133.33 C 145.72 134.29 146.40 135.17 147.35 135.29 C 148.31 135.41 149.19 134.72 149.31 133.77 L 149.43 132.78 C 149.55 131.82 148.87 130.94 147.91 130.82 C 146.95 130.70 146.08 131.38 145.96 132.34 Z M 145.84 133.30 L 145.70 134.29 C 145.56 135.25 146.23 136.13 147.18 136.27 C 148.14 136.41 149.03 135.74 149.17 134.78 L 149.31 133.80 C 149.44 132.84 148.78 131.95 147.82 131.81 C 146.86 131.68 145.97 132.34 145.84 133.30 Z M 145.70 134.26 L 145.54 135.25 C 145.39 136.20 146.05 137.10 147.00 137.25 C 147.96 137.40 148.86 136.75 149.01 135.79 L 149.16 134.81 C 149.31 133.85 148.66 132.96 147.70 132.81 C 146.75 132.65 145.85 133.31 145.70 134.26 Z M 145.55 135.22 L 145.38 136.20 C 145.22 137.16 145.86 138.07 146.81 138.23 C 147.77 138.39 148.68 137.75 148.84 136.79 L 149.01 135.81 C 149.17 134.86 148.53 133.95 147.57 133.79 C 146.62 133.63 145.71 134.27 145.55 135.22 Z M 145.38 136.18 L 145.20 137.17 C 145.03 138.12 145.66 139.04 146.61 139.21 C 147.57 139.38 148.48 138.75 148.66 137.80 L 148.84 136.81 C 149.01 135.86 148.38 134.95 147.42 134.77 C 146.47 134.60 145.55 135.23 145.38 136.18 Z M 145.20 137.15 L 145.01 138.14 C 144.83 139.09 145.46 140.01 146.41 140.19 C 147.36 140.38 148.28 139.75 148.47 138.80 L 148.66 137.81 C 148.84 136.86 148.21 135.94 147.26 135.76 C 146.31 135.57 145.39 136.20 145.20 137.15 Z M 145.02 138.13 L 144.82 139.12 C 144.63 140.08 145.25 141.00 146.20 141.19 C 147.15 141.38 148.08 140.76 148.27 139.81 L 148.47 138.81 C 148.66 137.86 148.04 136.93 147.08 136.74 C 146.13 136.55 145.20 137.17 145.02 138.13 Z M 144.82 139.11 L 144.61 140.13 C 144.42 141.08 145.03 142.01 145.98 142.20 C 146.93 142.40 147.86 141.79 148.06 140.83 L 148.27 139.82 C 148.46 138.87 147.85 137.94 146.90 137.74 C 145.94 137.55 145.01 138.16 144.82 139.11 Z M 144.61 140.12 L 144.40 141.12 C 144.20 142.07 144.81 143.00 145.76 143.20 C 146.71 143.40 147.65 142.79 147.85 141.84 L 148.06 140.84 C 148.26 139.89 147.65 138.96 146.70 138.76 C 145.75 138.56 144.81 139.17 144.61 140.12 Z M 144.40 141.11 L 144.19 142.07 C 143.99 143.02 144.59 143.96 145.54 144.17 C 146.49 144.38 147.43 143.77 147.64 142.82 L 147.85 141.85 C 148.05 140.90 147.45 139.96 146.50 139.76 C 145.55 139.55 144.61 140.16 144.40 141.11 Z M 144.19 142.06 L 143.99 142.98 C 143.77 143.93 144.37 144.88 145.32 145.09 C 146.27 145.30 147.22 144.71 147.43 143.75 L 147.64 142.83 C 147.85 141.88 147.25 140.94 146.30 140.73 C 145.35 140.51 144.41 141.11 144.19 142.06 Z M 143.99 142.97 L 143.77 143.93 C 143.54 144.88 144.13 145.83 145.08 146.05 C 146.03 146.27 146.98 145.68 147.20 144.73 L 147.43 143.77 C 147.65 142.82 147.06 141.87 146.11 141.65 C 145.16 141.43 144.21 142.02 143.99 142.97 Z M 143.77 143.90 L 143.54 144.84 C 143.30 145.78 143.87 146.74 144.82 146.98 C 145.77 147.22 146.72 146.64 146.96 145.70 L 147.19 144.76 C 147.43 143.81 146.86 142.86 145.91 142.62 C 144.97 142.38 144.01 142.96 143.77 143.90 Z M 143.54 144.81 L 143.28 145.77 C 143.03 146.71 143.59 147.68 144.53 147.93 C 145.47 148.19 146.44 147.63 146.69 146.69 L 146.95 145.73 C 147.21 144.79 146.65 143.82 145.71 143.56 C 144.77 143.31 143.80 143.86 143.54 144.81 Z M 143.29 145.74 L 143.00 146.73 C 142.73 147.67 143.27 148.65 144.21 148.92 C 145.15 149.19 146.13 148.65 146.40 147.71 L 146.69 146.72 C 146.96 145.78 146.42 144.80 145.48 144.53 C 144.54 144.26 143.56 144.80 143.29 145.74 Z M 143.01 146.70 L 142.72 147.64 C 142.44 148.57 142.96 149.56 143.90 149.85 C 144.83 150.13 145.82 149.61 146.10 148.68 L 146.39 147.74 C 146.68 146.81 146.15 145.82 145.22 145.53 C 144.29 145.25 143.30 145.77 143.01 146.70 Z M 142.73 147.62 L 142.42 148.59 C 142.12 149.52 142.63 150.52 143.56 150.81 C 144.49 151.11 145.48 150.60 145.78 149.67 L 146.10 148.70 C 146.39 147.77 145.88 146.77 144.95 146.48 C 144.03 146.18 143.03 146.69 142.73 147.62 Z M 142.43 148.57 L 142.10 149.54 C 141.78 150.47 142.28 151.47 143.21 151.78 C 144.13 152.09 145.13 151.60 145.45 150.67 L 145.77 149.70 C 146.09 148.77 145.59 147.77 144.67 147.46 C 143.74 147.15 142.74 147.64 142.43 148.57 Z M 142.11 149.51 L 141.77 150.45 C 141.44 151.37 141.92 152.38 142.84 152.71 C 143.76 153.04 144.77 152.56 145.10 151.64 L 145.44 150.70 C 145.76 149.78 145.29 148.77 144.37 148.44 C 143.45 148.11 142.43 148.59 142.11 149.51 Z M 141.79 150.40 L 141.29 151.67 C 140.94 152.58 141.39 153.61 142.30 153.96 C 143.21 154.31 144.23 153.86 144.59 152.95 L 145.08 151.69 C 145.44 150.78 144.99 149.75 144.08 149.40 C 143.17 149.04 142.14 149.49 141.79 150.40 Z M 141.33 151.58 L 140.88 152.59 C 140.47 153.48 140.87 154.53 141.76 154.93 C 142.65 155.33 143.69 154.94 144.10 154.05 L 144.55 153.04 C 144.95 152.15 144.56 151.10 143.67 150.70 C 142.78 150.30 141.73 150.69 141.33 151.58 Z M 141.14 152.18 L 140.93 152.43 C 140.29 153.17 140.38 154.28 141.13 154.92 C 141.87 155.55 142.99 155.46 143.62 154.72 L 143.83 154.47 C 144.46 153.72 144.37 152.61 143.63 151.97 C 142.89 151.34 141.77 151.43 141.14 152.18 Z M 144.01 153.86 L 144.11 153.25 C 144.27 152.30 143.63 151.39 142.67 151.23 C 141.71 151.06 140.80 151.71 140.64 152.67 L 140.54 153.28 C 140.38 154.24 141.02 155.15 141.98 155.31 C 142.94 155.47 143.85 154.82 144.01 153.86 Z M 144.05 153.47 L 144.40 152.34 C 144.68 151.42 144.16 150.44 143.24 150.16 C 142.31 149.87 141.34 150.39 141.05 151.31 L 140.70 152.45 C 140.42 153.37 140.94 154.35 141.86 154.63 C 142.79 154.92 143.76 154.40 144.05 153.47 Z M 144.34 152.47 L 144.80 151.32 C 145.15 150.43 144.72 149.42 143.83 149.06 C 142.94 148.71 141.93 149.14 141.57 150.03 L 141.11 151.18 C 140.75 152.07 141.19 153.09 142.08 153.44 C 142.97 153.80 143.98 153.36 144.34 152.47 Z M 144.73 151.45 L 145.17 150.57 C 145.59 149.72 145.25 148.68 144.39 148.25 C 143.54 147.83 142.50 148.17 142.08 149.03 L 141.64 149.90 C 141.21 150.76 141.56 151.79 142.41 152.22 C 143.27 152.65 144.30 152.30 144.73 151.45 Z M 145.11 150.65 L 145.60 149.80 C 146.07 148.98 145.79 147.93 144.96 147.46 C 144.14 146.99 143.09 147.27 142.62 148.09 L 142.13 148.94 C 141.66 149.77 141.94 150.82 142.77 151.29 C 143.59 151.76 144.64 151.48 145.11 150.65 Z M 145.56 149.84 L 146.10 148.98 C 146.59 148.18 146.34 147.12 145.54 146.63 C 144.74 146.13 143.69 146.38 143.19 147.19 L 142.66 148.05 C 142.16 148.85 142.41 149.91 143.21 150.40 C 144.02 150.90 145.07 150.65 145.56 149.84 Z M 146.08 148.98 L 146.60 148.15 C 147.10 147.36 146.86 146.31 146.07 145.81 C 145.27 145.31 144.22 145.55 143.72 146.35 L 143.20 147.18 C 142.70 147.97 142.95 149.02 143.74 149.52 C 144.54 150.02 145.58 149.78 146.08 148.98 Z M 146.60 148.15 L 147.12 147.33 C 147.61 146.53 147.37 145.49 146.58 144.99 C 145.78 144.50 144.74 144.74 144.24 145.53 L 143.73 146.35 C 143.23 147.15 143.47 148.19 144.26 148.69 C 145.06 149.18 146.10 148.94 146.60 148.15 Z M 147.11 147.33 L 147.65 146.47 C 148.14 145.68 147.90 144.64 147.11 144.14 C 146.32 143.65 145.28 143.89 144.78 144.68 L 144.25 145.53 C 143.75 146.32 143.99 147.37 144.78 147.86 C 145.57 148.36 146.62 148.12 147.11 147.33 Z M 147.64 146.48 L 148.19 145.60 C 148.69 144.81 148.45 143.77 147.66 143.27 C 146.88 142.78 145.83 143.01 145.34 143.80 L 144.79 144.68 C 144.29 145.46 144.52 146.51 145.31 147.00 C 146.10 147.50 147.14 147.26 147.64 146.48 Z M 148.19 145.61 L 148.74 144.74 C 149.24 143.95 149.01 142.91 148.22 142.41 C 147.44 141.91 146.40 142.14 145.90 142.93 L 145.34 143.80 C 144.84 144.58 145.07 145.62 145.86 146.12 C 146.64 146.62 147.69 146.39 148.19 145.61 Z M 148.73 144.74 L 149.27 143.90 C 149.78 143.12 149.55 142.08 148.77 141.58 C 147.99 141.07 146.95 141.30 146.44 142.08 L 145.90 142.92 C 145.40 143.70 145.63 144.74 146.41 145.25 C 147.19 145.75 148.23 145.52 148.73 144.74 Z M 149.27 143.91 L 149.81 143.07 C 150.32 142.29 150.10 141.25 149.32 140.74 C 148.54 140.24 147.50 140.46 147.00 141.23 L 146.45 142.07 C 145.94 142.85 146.16 143.89 146.94 144.40 C 147.72 144.90 148.76 144.68 149.27 143.91 Z M 149.81 143.07 L 150.36 142.24 C 150.87 141.46 150.65 140.42 149.88 139.91 C 149.10 139.40 148.06 139.62 147.55 140.39 L 147.00 141.23 C 146.49 142.00 146.71 143.04 147.48 143.55 C 148.26 144.06 149.30 143.85 149.81 143.07 Z M 150.35 142.24 L 150.90 141.41 C 151.42 140.64 151.20 139.60 150.43 139.08 C 149.66 138.57 148.62 138.78 148.11 139.56 L 147.56 140.39 C 147.05 141.16 147.26 142.20 148.03 142.71 C 148.80 143.22 149.84 143.01 150.35 142.24 Z M 150.90 141.41 L 151.45 140.58 C 151.97 139.81 151.76 138.77 150.99 138.26 C 150.22 137.74 149.18 137.95 148.67 138.72 L 148.11 139.55 C 147.60 140.32 147.81 141.36 148.58 141.87 C 149.34 142.39 150.39 142.18 150.90 141.41 Z M 151.45 140.59 L 152.01 139.76 C 152.52 138.99 152.32 137.95 151.56 137.44 C 150.79 136.92 149.75 137.12 149.23 137.89 L 148.67 138.71 C 148.16 139.48 148.36 140.52 149.12 141.04 C 149.89 141.56 150.93 141.35 151.45 140.59 Z M 152.00 139.77 L 152.56 138.95 C 153.09 138.18 152.89 137.14 152.13 136.62 C 151.36 136.10 150.32 136.29 149.80 137.05 L 149.24 137.88 C 148.72 138.64 148.91 139.68 149.67 140.21 C 150.44 140.73 151.48 140.53 152.00 139.77 Z M 152.56 138.96 L 153.13 138.13 C 153.66 137.38 153.47 136.33 152.71 135.81 C 151.95 135.28 150.91 135.46 150.38 136.22 L 149.81 137.04 C 149.28 137.80 149.47 138.85 150.23 139.37 C 150.99 139.90 152.03 139.71 152.56 138.96 Z M 153.12 138.15 L 153.70 137.33 C 154.24 136.57 154.06 135.53 153.31 134.99 C 152.55 134.46 151.51 134.64 150.97 135.39 L 150.39 136.21 C 149.85 136.96 150.03 138.01 150.79 138.54 C 151.54 139.08 152.58 138.90 153.12 138.15 Z M 153.69 137.34 L 154.29 136.51 C 154.83 135.76 154.67 134.72 153.92 134.18 C 153.17 133.63 152.13 133.80 151.59 134.55 L 150.98 135.37 C 150.44 136.12 150.61 137.17 151.35 137.71 C 152.10 138.25 153.15 138.09 153.69 137.34 Z M 154.28 136.53 L 154.89 135.71 C 155.44 134.97 155.28 133.92 154.54 133.37 C 153.80 132.82 152.76 132.97 152.21 133.71 L 151.60 134.53 C 151.05 135.27 151.20 136.32 151.94 136.87 C 152.68 137.42 153.73 137.27 154.28 136.53 Z M 154.87 135.73 L 155.48 134.93 C 156.04 134.20 155.90 133.16 155.17 132.59 C 154.44 132.03 153.39 132.17 152.83 132.90 L 152.22 133.70 C 151.66 134.43 151.80 135.48 152.53 136.04 C 153.26 136.60 154.31 136.46 154.87 135.73 Z M 155.46 134.96 L 156.06 134.20 C 156.64 133.47 156.51 132.42 155.79 131.85 C 155.07 131.28 154.02 131.40 153.45 132.12 L 152.85 132.88 C 152.27 133.61 152.40 134.65 153.12 135.23 C 153.84 135.80 154.89 135.68 155.46 134.96 Z M 156.04 134.22 L 156.70 133.42 C 157.29 132.71 157.19 131.66 156.48 131.07 C 155.77 130.49 154.72 130.59 154.13 131.30 L 153.47 132.10 C 152.88 132.81 152.98 133.86 153.69 134.45 C 154.40 135.03 155.46 134.93 156.04 134.22 Z M 156.68 133.45 L 157.36 132.68 C 157.96 131.98 157.88 130.92 157.18 130.32 C 156.48 129.71 155.43 129.79 154.82 130.49 L 154.15 131.26 C 153.55 131.96 153.62 133.02 154.32 133.63 C 155.02 134.23 156.08 134.15 156.68 133.45 Z M 157.34 132.71 L 157.99 131.98 C 158.62 131.29 158.56 130.23 157.87 129.61 C 157.18 128.98 156.12 129.04 155.50 129.73 L 154.84 130.46 C 154.22 131.15 154.27 132.21 154.96 132.83 C 155.65 133.45 156.72 133.40 157.34 132.71 Z M 157.98 132.00 L 158.62 131.31 C 159.26 130.63 159.22 129.56 158.54 128.93 C 157.86 128.29 156.79 128.33 156.16 129.01 L 155.51 129.70 C 154.88 130.38 154.91 131.45 155.60 132.09 C 156.28 132.72 157.34 132.69 157.98 132.00 Z M 158.61 131.34 L 159.29 130.63 C 159.94 129.95 159.92 128.88 159.25 128.23 C 158.57 127.58 157.50 127.60 156.85 128.28 L 156.17 128.99 C 155.52 129.66 155.54 130.73 156.22 131.38 C 156.89 132.03 157.96 132.01 158.61 131.34 Z M 159.27 130.66 L 159.97 129.97 C 160.64 129.30 160.64 128.23 159.98 127.56 C 159.32 126.89 158.24 126.89 157.57 127.55 L 156.87 128.25 C 156.21 128.91 156.20 129.99 156.87 130.65 C 157.53 131.32 158.61 131.32 159.27 130.66 Z M 159.94 130.01 L 160.67 129.33 C 161.36 128.68 161.40 127.60 160.75 126.91 C 160.11 126.22 159.03 126.18 158.33 126.83 L 157.60 127.51 C 156.91 128.15 156.88 129.24 157.52 129.93 C 158.17 130.62 159.25 130.65 159.94 130.01 Z M 160.63 129.37 L 161.40 128.70 C 162.12 128.08 162.19 126.99 161.57 126.28 C 160.95 125.56 159.86 125.48 159.14 126.11 L 158.37 126.78 C 157.66 127.40 157.58 128.49 158.20 129.20 C 158.83 129.92 159.92 130.00 160.63 129.37 Z M 161.35 128.76 L 162.14 128.13 C 162.89 127.53 163.01 126.44 162.42 125.69 C 161.82 124.95 160.73 124.82 159.98 125.42 L 159.19 126.05 C 158.44 126.65 158.32 127.74 158.92 128.49 C 159.52 129.23 160.61 129.36 161.35 128.76 Z M 162.07 128.20 L 162.90 127.62 C 163.69 127.06 163.88 125.97 163.32 125.18 C 162.77 124.40 161.68 124.21 160.89 124.76 L 160.06 125.35 C 159.27 125.90 159.08 126.99 159.64 127.78 C 160.19 128.57 161.28 128.76 162.07 128.20 Z M 162.78 127.71 L 163.64 127.21 C 164.48 126.72 164.76 125.64 164.27 124.80 C 163.78 123.96 162.70 123.68 161.86 124.17 L 161.01 124.67 C 160.17 125.16 159.89 126.24 160.38 127.08 C 160.87 127.91 161.94 128.20 162.78 127.71 Z M 163.44 127.32 L 164.42 126.91 C 165.32 126.53 165.74 125.49 165.36 124.58 C 164.98 123.68 163.94 123.26 163.04 123.64 L 162.06 124.06 C 161.16 124.44 160.74 125.48 161.12 126.38 C 161.50 127.28 162.54 127.70 163.44 127.32 Z M 164.10 127.03 L 165.13 126.81 C 166.10 126.60 166.72 125.65 166.51 124.69 C 166.31 123.72 165.36 123.10 164.39 123.31 L 163.36 123.52 C 162.39 123.73 161.77 124.68 161.98 125.65 C 162.18 126.61 163.13 127.23 164.10 127.03 Z M 164.63 126.86 L 165.55 126.93 C 166.55 127.00 167.42 126.26 167.49 125.26 C 167.56 124.26 166.82 123.40 165.82 123.32 L 164.90 123.25 C 163.90 123.18 163.03 123.93 162.96 124.92 C 162.89 125.92 163.63 126.79 164.63 126.86 Z M 164.82 126.73 L 165.57 127.13 C 166.46 127.61 167.56 127.28 168.04 126.39 C 168.52 125.50 168.18 124.40 167.30 123.92 L 166.55 123.52 C 165.66 123.04 164.56 123.38 164.08 124.26 C 163.60 125.15 163.94 126.26 164.82 126.73 Z M 164.99 126.65 L 165.55 127.37 C 166.17 128.17 167.32 128.31 168.12 127.69 C 168.91 127.07 169.06 125.92 168.44 125.12 L 167.88 124.40 C 167.26 123.60 166.11 123.46 165.31 124.08 C 164.51 124.70 164.37 125.85 164.99 126.65 Z M 165.32 127.01 L 165.76 127.97 C 166.19 128.89 167.28 129.29 168.20 128.87 C 169.12 128.45 169.52 127.36 169.10 126.43 L 168.66 125.48 C 168.24 124.56 167.15 124.15 166.22 124.58 C 165.30 125.00 164.90 126.09 165.32 127.01 Z M 165.70 127.82 L 166.06 128.82 C 166.40 129.78 167.46 130.27 168.41 129.93 C 169.37 129.58 169.87 128.53 169.52 127.57 L 169.16 126.58 C 168.82 125.62 167.77 125.13 166.81 125.47 C 165.85 125.81 165.36 126.87 165.70 127.82 Z M 166.04 128.78 L 166.35 129.70 C 166.67 130.67 167.72 131.19 168.68 130.87 C 169.65 130.54 170.17 129.50 169.84 128.54 L 169.54 127.61 C 169.21 126.65 168.17 126.13 167.21 126.45 C 166.24 126.77 165.72 127.82 166.04 128.78 Z M 166.34 129.68 L 166.65 130.64 C 166.96 131.61 168.00 132.14 168.97 131.83 C 169.94 131.52 170.47 130.49 170.16 129.52 L 169.85 128.56 C 169.54 127.59 168.50 127.06 167.54 127.37 C 166.57 127.68 166.03 128.71 166.34 129.68 Z M 166.65 130.63 L 166.96 131.61 C 167.26 132.58 168.29 133.13 169.26 132.82 C 170.23 132.52 170.77 131.48 170.47 130.51 L 170.16 129.53 C 169.86 128.56 168.83 128.02 167.86 128.32 C 166.88 128.63 166.34 129.66 166.65 130.63 Z M 166.95 131.61 L 167.26 132.58 C 167.56 133.55 168.59 134.10 169.56 133.80 C 170.53 133.49 171.08 132.46 170.77 131.49 L 170.47 130.52 C 170.17 129.55 169.14 129.00 168.17 129.31 C 167.20 129.61 166.65 130.64 166.95 131.61 Z M 167.26 132.60 L 167.57 133.55 C 167.88 134.52 168.91 135.05 169.88 134.74 C 170.85 134.44 171.38 133.40 171.07 132.43 L 170.77 131.48 C 170.46 130.51 169.42 129.98 168.46 130.28 C 167.49 130.59 166.95 131.63 167.26 132.60 Z M 167.58 133.59 L 167.91 134.54 C 168.24 135.49 169.28 136.01 170.24 135.68 C 171.20 135.35 171.71 134.30 171.38 133.34 L 171.06 132.40 C 170.73 131.44 169.68 130.93 168.72 131.26 C 167.76 131.58 167.25 132.63 167.58 133.59 Z M 167.93 134.60 L 168.29 135.53 C 168.65 136.47 169.71 136.94 170.66 136.58 C 171.61 136.22 172.08 135.16 171.72 134.21 L 171.36 133.28 C 171.00 132.34 169.93 131.86 168.99 132.23 C 168.04 132.59 167.57 133.65 167.93 134.60 Z M 168.33 135.61 L 168.74 136.53 C 169.15 137.45 170.23 137.87 171.15 137.46 C 172.07 137.06 172.49 135.98 172.08 135.05 L 171.68 134.13 C 171.27 133.21 170.19 132.79 169.26 133.20 C 168.34 133.60 167.92 134.68 168.33 135.61 Z M 168.79 136.62 L 169.25 137.52 C 169.71 138.42 170.81 138.77 171.70 138.32 C 172.60 137.86 172.95 136.76 172.49 135.87 L 172.03 134.96 C 171.57 134.07 170.48 133.71 169.58 134.17 C 168.69 134.63 168.33 135.73 168.79 136.62 Z M 169.31 137.61 L 169.82 138.48 C 170.33 139.34 171.44 139.62 172.30 139.12 C 173.16 138.61 173.45 137.50 172.94 136.64 L 172.43 135.78 C 171.92 134.92 170.82 134.63 169.96 135.14 C 169.09 135.64 168.81 136.75 169.31 137.61 Z M 169.89 138.56 L 170.44 139.38 C 171.00 140.20 172.11 140.42 172.94 139.86 C 173.76 139.31 173.97 138.19 173.42 137.37 L 172.87 136.55 C 172.31 135.73 171.20 135.51 170.38 136.07 C 169.55 136.62 169.34 137.74 169.89 138.56 Z M 170.53 139.47 L 171.14 140.25 C 171.74 141.03 172.86 141.17 173.64 140.56 C 174.41 139.96 174.55 138.84 173.95 138.07 L 173.33 137.28 C 172.73 136.50 171.61 136.36 170.84 136.97 C 170.06 137.57 169.92 138.69 170.53 139.47 Z M 171.24 140.34 L 171.91 141.08 C 172.57 141.80 173.68 141.85 174.39 141.20 C 175.11 140.54 175.17 139.43 174.51 138.72 L 173.84 137.98 C 173.19 137.26 172.08 137.21 171.36 137.86 C 170.64 138.51 170.59 139.62 171.24 140.34 Z M 172.03 141.16 L 172.76 141.84 C 173.45 142.49 174.55 142.45 175.20 141.76 C 175.85 141.06 175.82 139.96 175.12 139.31 L 174.40 138.63 C 173.70 137.98 172.60 138.02 171.95 138.72 C 171.30 139.41 171.33 140.51 172.03 141.16 Z M 172.88 141.91 L 173.66 142.53 C 174.40 143.11 175.47 142.99 176.05 142.25 C 176.64 141.51 176.51 140.44 175.78 139.86 L 175.00 139.24 C 174.26 138.66 173.19 138.78 172.60 139.52 C 172.02 140.25 172.14 141.33 172.88 141.91 Z M 173.78 142.58 L 174.54 143.09 C 175.31 143.61 176.35 143.41 176.87 142.64 C 177.39 141.88 177.18 140.84 176.42 140.32 L 175.66 139.81 C 174.89 139.29 173.85 139.49 173.33 140.26 C 172.82 141.02 173.02 142.06 173.78 142.58 Z M 174.66 143.13 L 175.49 143.61 C 176.28 144.06 177.28 143.79 177.73 143.01 C 178.19 142.22 177.92 141.22 177.13 140.77 L 176.30 140.29 C 175.52 139.83 174.51 140.10 174.06 140.89 C 173.61 141.67 173.88 142.67 174.66 143.13 Z M 175.60 143.63 L 176.51 144.08 C 177.31 144.48 178.27 144.15 178.67 143.35 C 179.06 142.56 178.74 141.59 177.94 141.20 L 177.03 140.75 C 176.23 140.35 175.27 140.68 174.87 141.47 C 174.48 142.27 174.80 143.23 175.60 143.63 Z M 176.61 144.09 L 177.62 144.52 C 178.42 144.86 179.35 144.49 179.69 143.69 C 180.03 142.89 179.65 141.96 178.85 141.62 L 177.84 141.19 C 177.04 140.85 176.12 141.22 175.78 142.02 C 175.44 142.82 175.81 143.75 176.61 144.09 Z M 177.69 144.52 L 178.56 144.85 C 179.36 145.15 180.26 144.74 180.56 143.94 C 180.86 143.14 180.45 142.25 179.65 141.95 L 178.78 141.62 C 177.98 141.32 177.09 141.73 176.79 142.53 C 176.49 143.33 176.89 144.22 177.69 144.52 Z M 178.61 144.84 L 179.53 145.16 C 180.32 145.44 181.19 145.01 181.47 144.21 C 181.75 143.42 181.32 142.55 180.52 142.27 L 179.61 141.95 C 178.81 141.68 177.94 142.10 177.66 142.90 C 177.39 143.70 177.81 144.57 178.61 144.84 Z M 179.56 145.15 L 180.52 145.46 C 181.31 145.72 182.16 145.28 182.42 144.49 C 182.68 143.70 182.24 142.85 181.45 142.59 L 180.49 142.28 C 179.70 142.02 178.85 142.46 178.59 143.25 C 178.33 144.04 178.77 144.89 179.56 145.15 Z M 180.54 145.45 L 181.53 145.75 C 182.32 146.00 183.15 145.56 183.39 144.77 C 183.64 143.98 183.20 143.15 182.41 142.91 L 181.42 142.60 C 180.64 142.36 179.80 142.80 179.56 143.58 C 179.32 144.37 179.76 145.20 180.54 145.45 Z M 181.55 145.74 L 182.55 146.04 C 183.33 146.28 184.15 145.84 184.38 145.06 C 184.62 144.28 184.18 143.46 183.40 143.23 L 182.40 142.92 C 181.62 142.69 180.80 143.13 180.56 143.91 C 180.33 144.68 180.77 145.50 181.55 145.74 Z M 182.56 146.03 L 182.85 146.12 C 183.62 146.35 184.43 145.91 184.66 145.14 C 184.89 144.37 184.46 143.56 183.68 143.33 L 183.39 143.24 C 182.62 143.01 181.81 143.44 181.58 144.21 C 181.35 144.99 181.79 145.80 182.56 146.03 Z"
      fill="black"
      fill-rule="nonzero" /><path d="M 141.23 148.03 L 141.23 148.99 C 141.23 149.85 141.93 150.54 142.78 150.54 C 143.64 150.54 144.34 149.85 144.34 148.99 L 144.34 148.03 C 144.34 147.17 143.64 146.47 142.78 146.47 C 141.93 146.47 141.23 147.17 141.23 148.03 Z M 141.17 148.99 L 141.17 149.97 C 141.17 150.86 141.89 151.58 142.78 151.58 C 143.68 151.58 144.40 150.86 144.40 149.97 L 144.40 148.99 C 144.40 148.10 143.68 147.38 142.78 147.38 C 141.89 147.38 141.17 148.10 141.17 148.99 Z M 141.11 149.97 L 141.11 150.98 C 141.11 151.91 141.86 152.65 142.78 152.65 C 143.71 152.65 144.46 151.91 144.46 150.98 L 144.46 149.97 C 144.46 149.05 143.71 148.30 142.78 148.30 C 141.86 148.30 141.11 149.05 141.11 149.97 Z M 141.05 150.98 L 141.05 152.03 C 141.05 152.98 141.83 153.76 142.78 153.76 C 143.74 153.76 144.51 152.98 144.51 152.03 L 144.51 150.98 C 144.51 150.03 143.74 149.25 142.78 149.25 C 141.83 149.25 141.05 150.03 141.05 150.98 Z M 141.03 152.02 L 141.02 153.03 C 141.02 154.00 141.81 154.79 142.78 154.79 C 143.75 154.79 144.54 154.01 144.54 153.03 L 144.54 152.03 C 144.55 151.06 143.76 150.27 142.79 150.27 C 141.82 150.26 141.03 151.05 141.03 152.02 Z M 141.02 153.01 L 141.01 154.03 C 140.99 155.01 141.78 155.80 142.75 155.82 C 143.72 155.83 144.52 155.05 144.53 154.07 L 144.55 153.05 C 144.56 152.08 143.78 151.28 142.80 151.27 C 141.83 151.25 141.03 152.03 141.02 153.01 Z M 141.00 154.00 L 140.97 155.01 C 140.94 155.99 141.71 156.80 142.69 156.83 C 143.66 156.86 144.48 156.09 144.51 155.12 L 144.54 154.10 C 144.57 153.13 143.80 152.31 142.82 152.28 C 141.85 152.25 141.03 153.02 141.00 154.00 Z M 140.97 154.96 L 140.91 155.93 C 140.85 156.91 141.60 157.75 142.58 157.80 C 143.56 157.86 144.40 157.12 144.46 156.14 L 144.51 155.17 C 144.57 154.19 143.82 153.35 142.84 153.29 C 141.87 153.23 141.03 153.98 140.97 154.96 Z M 140.91 155.85 L 140.81 156.87 C 140.71 157.85 141.42 158.72 142.39 158.82 C 143.37 158.92 144.25 158.21 144.35 157.24 L 144.45 156.22 C 144.55 155.24 143.84 154.36 142.87 154.26 C 141.89 154.16 141.01 154.87 140.91 155.85 Z M 140.82 156.78 L 140.67 157.75 C 140.51 158.72 141.18 159.63 142.15 159.79 C 143.12 159.94 144.03 159.27 144.18 158.30 L 144.34 157.33 C 144.49 156.35 143.82 155.44 142.85 155.29 C 141.88 155.14 140.97 155.81 140.82 156.78 Z M 140.68 157.67 L 140.48 158.63 C 140.29 159.59 140.91 160.53 141.87 160.73 C 142.84 160.93 143.78 160.31 143.98 159.34 L 144.17 158.38 C 144.37 157.42 143.75 156.48 142.78 156.28 C 141.82 156.08 140.88 156.71 140.68 157.67 Z M 140.50 158.57 L 140.27 159.53 C 140.04 160.49 140.62 161.45 141.58 161.68 C 142.54 161.91 143.50 161.32 143.73 160.36 L 143.96 159.40 C 144.19 158.44 143.60 157.48 142.65 157.25 C 141.69 157.02 140.73 157.61 140.50 158.57 Z M 140.27 159.49 L 140.04 160.39 C 139.79 161.35 140.35 162.32 141.31 162.57 C 142.26 162.82 143.24 162.25 143.49 161.30 L 143.72 160.40 C 143.97 159.45 143.41 158.47 142.45 158.22 C 141.50 157.97 140.52 158.54 140.27 159.49 Z M 140.04 160.36 L 139.78 161.31 C 139.51 162.26 140.07 163.24 141.02 163.51 C 141.96 163.77 142.95 163.22 143.22 162.27 L 143.48 161.33 C 143.75 160.38 143.19 159.39 142.24 159.13 C 141.29 158.86 140.31 159.42 140.04 160.36 Z M 139.78 161.29 L 139.49 162.27 C 139.22 163.21 139.76 164.21 140.70 164.49 C 141.65 164.77 142.64 164.22 142.92 163.28 L 143.21 162.30 C 143.49 161.35 142.95 160.36 142.00 160.08 C 141.06 159.80 140.06 160.34 139.78 161.29 Z M 139.50 162.25 L 139.19 163.27 C 138.90 164.22 139.43 165.21 140.37 165.50 C 141.31 165.79 142.31 165.26 142.60 164.32 L 142.91 163.30 C 143.20 162.36 142.67 161.36 141.73 161.07 C 140.79 160.78 139.79 161.31 139.50 162.25 Z M 139.19 163.26 L 138.90 164.16 C 138.61 165.10 139.13 166.11 140.07 166.40 C 141.01 166.70 142.01 166.18 142.31 165.24 L 142.59 164.34 C 142.89 163.40 142.37 162.39 141.43 162.09 C 140.49 161.80 139.49 162.32 139.19 163.26 Z M 138.91 164.15 L 138.61 165.07 C 138.30 166.01 138.81 167.01 139.75 167.32 C 140.69 167.62 141.70 167.11 142.00 166.18 L 142.30 165.26 C 142.61 164.32 142.10 163.31 141.16 163.00 C 140.22 162.70 139.21 163.21 138.91 164.15 Z M 138.61 165.05 L 138.30 166.00 C 137.98 166.93 138.48 167.94 139.42 168.26 C 140.35 168.57 141.37 168.07 141.68 167.13 L 142.00 166.19 C 142.31 165.25 141.81 164.24 140.87 163.93 C 139.94 163.61 138.93 164.12 138.61 165.05 Z M 138.30 165.98 L 137.96 166.95 C 137.64 167.88 138.14 168.90 139.07 169.22 C 140.00 169.55 141.02 169.05 141.34 168.12 L 141.68 167.15 C 142.00 166.22 141.50 165.20 140.57 164.88 C 139.64 164.56 138.62 165.05 138.30 165.98 Z M 137.97 166.94 L 137.61 167.93 C 137.28 168.86 137.77 169.88 138.70 170.22 C 139.62 170.55 140.65 170.06 140.98 169.13 L 141.33 168.14 C 141.67 167.21 141.18 166.19 140.25 165.85 C 139.32 165.52 138.30 166.01 137.97 166.94 Z M 137.62 167.92 L 137.29 168.82 C 136.95 169.75 137.42 170.77 138.35 171.11 C 139.27 171.45 140.30 170.98 140.64 170.05 L 140.97 169.15 C 141.31 168.22 140.84 167.20 139.91 166.86 C 138.99 166.52 137.96 166.99 137.62 167.92 Z M 137.29 168.81 L 136.95 169.72 C 136.60 170.64 137.07 171.67 137.99 172.02 C 138.92 172.37 139.95 171.90 140.29 170.98 L 140.64 170.07 C 140.98 169.14 140.52 168.11 139.59 167.77 C 138.67 167.42 137.64 167.89 137.29 168.81 Z M 136.96 169.70 L 136.60 170.63 C 136.24 171.55 136.70 172.58 137.62 172.94 C 138.54 173.29 139.58 172.83 139.93 171.91 L 140.29 170.99 C 140.64 170.07 140.18 169.03 139.26 168.68 C 138.34 168.32 137.31 168.78 136.96 169.70 Z M 136.60 170.62 L 136.23 171.56 C 135.87 172.48 136.32 173.51 137.24 173.88 C 138.16 174.24 139.20 173.79 139.56 172.87 L 139.93 171.93 C 140.29 171.01 139.84 169.97 138.92 169.61 C 138.00 169.25 136.96 169.70 136.60 170.62 Z M 136.24 171.55 L 135.85 172.50 C 135.49 173.42 135.93 174.46 136.85 174.83 C 137.76 175.19 138.80 174.75 139.17 173.84 L 139.55 172.88 C 139.92 171.96 139.48 170.92 138.56 170.56 C 137.64 170.19 136.60 170.63 136.24 171.55 Z M 135.86 172.49 L 135.47 173.45 C 135.09 174.36 135.53 175.41 136.44 175.78 C 137.36 176.15 138.40 175.72 138.77 174.80 L 139.16 173.85 C 139.54 172.93 139.10 171.89 138.19 171.52 C 137.27 171.14 136.23 171.58 135.86 172.49 Z M 135.47 173.44 L 135.10 174.33 C 134.72 175.24 135.15 176.28 136.07 176.66 C 136.98 177.04 138.02 176.61 138.40 175.70 L 138.77 174.81 C 139.15 173.90 138.72 172.86 137.80 172.48 C 136.89 172.10 135.85 172.53 135.47 173.44 Z M 135.11 174.32 L 134.73 175.21 C 134.34 176.12 134.77 177.17 135.68 177.55 C 136.58 177.94 137.63 177.51 138.02 176.60 L 138.40 175.71 C 138.78 174.80 138.35 173.75 137.45 173.37 C 136.54 172.98 135.49 173.41 135.11 174.32 Z M 134.73 175.20 L 134.34 176.11 C 133.95 177.02 134.37 178.06 135.28 178.45 C 136.18 178.84 137.23 178.43 137.62 177.52 L 138.01 176.61 C 138.40 175.71 137.98 174.66 137.08 174.27 C 136.17 173.88 135.12 174.30 134.73 175.20 Z M 134.35 176.10 L 133.94 177.02 C 133.55 177.92 133.96 178.97 134.86 179.37 C 135.76 179.77 136.82 179.35 137.21 178.45 L 137.62 177.53 C 138.01 176.63 137.60 175.58 136.70 175.18 C 135.80 174.79 134.74 175.20 134.35 176.10 Z M 133.95 177.01 L 133.53 177.94 C 133.13 178.84 133.53 179.90 134.43 180.30 C 135.33 180.70 136.39 180.30 136.79 179.40 L 137.21 178.46 C 137.61 177.56 137.20 176.51 136.31 176.11 C 135.41 175.71 134.35 176.11 133.95 177.01 Z M 133.54 177.93 L 133.11 178.88 C 132.70 179.78 133.09 180.83 133.99 181.24 C 134.89 181.65 135.94 181.25 136.35 180.36 L 136.78 179.41 C 137.19 178.51 136.80 177.46 135.90 177.05 C 135.00 176.64 133.95 177.04 133.54 177.93 Z M 133.11 178.87 L 132.69 179.78 C 132.28 180.67 132.66 181.73 133.56 182.15 C 134.45 182.56 135.51 182.17 135.92 181.28 L 136.34 180.37 C 136.76 179.48 136.37 178.42 135.48 178.00 C 134.59 177.59 133.53 177.98 133.11 178.87 Z M 132.70 179.77 L 132.27 180.67 C 131.85 181.56 132.23 182.62 133.12 183.04 C 134.01 183.46 135.07 183.08 135.49 182.19 L 135.92 181.29 C 136.34 180.40 135.96 179.34 135.07 178.92 C 134.18 178.50 133.12 178.88 132.70 179.77 Z M 132.28 180.66 L 131.84 181.56 C 131.42 182.45 131.79 183.51 132.68 183.94 C 133.56 184.36 134.63 183.99 135.05 183.10 L 135.49 182.20 C 135.91 181.31 135.54 180.25 134.65 179.82 C 133.76 179.40 132.70 179.77 132.28 180.66 Z M 131.85 181.56 L 131.41 182.46 C 130.98 183.35 131.34 184.41 132.23 184.84 C 133.11 185.27 134.18 184.90 134.61 184.02 L 135.05 183.11 C 135.48 182.23 135.11 181.16 134.23 180.73 C 133.34 180.30 132.28 180.67 131.85 181.56 Z M 131.41 182.46 L 130.96 183.36 C 130.53 184.24 130.89 185.31 131.77 185.74 C 132.65 186.18 133.72 185.81 134.15 184.93 L 134.60 184.03 C 135.04 183.15 134.67 182.08 133.79 181.65 C 132.91 181.21 131.85 181.57 131.41 182.46 Z M 130.97 183.35 L 130.52 184.25 C 130.08 185.13 130.44 186.20 131.32 186.63 C 132.19 187.07 133.26 186.72 133.70 185.84 L 134.15 184.94 C 134.59 184.06 134.23 183.00 133.35 182.56 C 132.48 182.12 131.41 182.47 130.97 183.35 Z M 130.53 184.24 L 130.08 185.13 C 129.63 186.01 129.98 187.07 130.86 187.52 C 131.73 187.96 132.80 187.61 133.25 186.73 L 133.70 185.85 C 134.14 184.97 133.79 183.90 132.91 183.46 C 132.04 183.02 130.97 183.37 130.53 184.24 Z M 130.08 185.12 L 129.61 186.04 C 129.17 186.91 129.51 187.98 130.38 188.43 C 131.26 188.87 132.32 188.53 132.77 187.66 L 133.24 186.74 C 133.69 185.87 133.34 184.80 132.47 184.35 C 131.60 183.91 130.53 184.25 130.08 185.12 Z M 129.62 186.03 L 129.15 186.94 C 128.70 187.81 129.03 188.88 129.90 189.33 C 130.77 189.78 131.84 189.44 132.29 188.57 L 132.77 187.66 C 133.22 186.79 132.88 185.72 132.01 185.27 C 131.14 184.82 130.07 185.16 129.62 186.03 Z M 129.15 186.93 L 128.68 187.83 C 128.23 188.70 128.56 189.77 129.43 190.22 C 130.30 190.67 131.37 190.34 131.82 189.47 L 132.29 188.58 C 132.74 187.71 132.41 186.64 131.54 186.19 C 130.68 185.73 129.61 186.07 129.15 186.93 Z M 128.69 187.82 L 128.22 188.71 C 127.76 189.57 128.09 190.64 128.96 191.10 C 129.82 191.55 130.89 191.22 131.35 190.36 L 131.82 189.48 C 132.27 188.61 131.94 187.54 131.08 187.09 C 130.21 186.63 129.14 186.96 128.69 187.82 Z M 128.23 188.70 L 127.76 189.57 C 127.30 190.43 127.63 191.50 128.49 191.96 C 129.35 192.42 130.42 192.09 130.88 191.23 L 131.35 190.36 C 131.80 189.50 131.48 188.43 130.62 187.97 C 129.75 187.51 128.68 187.84 128.23 188.70 Z M 127.77 189.57 L 127.31 190.43 C 126.85 191.29 127.17 192.36 128.03 192.82 C 128.89 193.28 129.96 192.95 130.42 192.09 L 130.88 191.23 C 131.34 190.37 131.01 189.31 130.15 188.85 C 129.29 188.39 128.23 188.71 127.77 189.57 Z M 127.31 190.43 L 126.84 191.30 C 126.38 192.16 126.71 193.22 127.57 193.68 C 128.42 194.14 129.49 193.82 129.95 192.96 L 130.42 192.10 C 130.88 191.24 130.55 190.17 129.70 189.71 C 128.84 189.25 127.77 189.57 127.31 190.43 Z M 126.85 191.30 L 126.36 192.20 C 125.90 193.06 126.23 194.12 127.08 194.58 C 127.94 195.04 129.01 194.72 129.47 193.86 L 129.95 192.96 C 130.41 192.10 130.09 191.04 129.23 190.58 C 128.37 190.12 127.31 190.44 126.85 191.30 Z M 126.37 192.20 L 125.89 193.09 C 125.43 193.95 125.75 195.02 126.61 195.47 C 127.46 195.93 128.53 195.61 128.99 194.75 L 129.47 193.86 C 129.92 193.01 129.60 191.94 128.75 191.48 C 127.89 191.02 126.82 191.34 126.37 192.20 Z M 125.89 193.10 L 125.42 193.98 C 124.96 194.84 125.28 195.90 126.13 196.36 C 126.99 196.82 128.05 196.49 128.51 195.64 L 128.98 194.75 C 129.44 193.90 129.12 192.83 128.27 192.38 C 127.41 191.92 126.35 192.24 125.89 193.10 Z M 125.42 193.98 L 124.95 194.86 C 124.49 195.71 124.81 196.78 125.67 197.23 C 126.52 197.69 127.58 197.37 128.04 196.51 L 128.51 195.64 C 128.96 194.78 128.64 193.72 127.79 193.26 C 126.94 192.81 125.87 193.13 125.42 193.98 Z M 124.95 194.86 L 124.49 195.73 C 124.03 196.58 124.36 197.64 125.21 198.10 C 126.06 198.55 127.12 198.23 127.57 197.38 L 128.04 196.51 C 128.49 195.66 128.17 194.60 127.32 194.14 C 126.47 193.69 125.41 194.01 124.95 194.86 Z M 124.49 195.73 L 124.03 196.60 C 123.58 197.45 123.90 198.51 124.75 198.96 C 125.60 199.41 126.66 199.09 127.11 198.24 L 127.57 197.37 C 128.03 196.52 127.70 195.47 126.85 195.01 C 126.00 194.56 124.94 194.88 124.49 195.73 Z M 124.03 196.60 L 123.54 197.52 C 123.09 198.37 123.42 199.43 124.27 199.88 C 125.12 200.33 126.17 200.01 126.62 199.16 L 127.11 198.24 C 127.56 197.39 127.24 196.33 126.39 195.88 C 125.54 195.43 124.48 195.75 124.03 196.60 Z M 123.55 197.53 L 123.07 198.43 C 122.62 199.28 122.94 200.33 123.79 200.78 C 124.64 201.23 125.69 200.91 126.14 200.06 L 126.62 199.15 C 127.07 198.30 126.74 197.25 125.89 196.80 C 125.05 196.35 123.99 196.68 123.55 197.53 Z M 123.07 198.44 L 122.60 199.33 C 122.16 200.17 122.48 201.22 123.33 201.67 C 124.17 202.11 125.22 201.79 125.67 200.94 L 126.14 200.05 C 126.58 199.21 126.26 198.16 125.41 197.71 C 124.56 197.27 123.52 197.59 123.07 198.44 Z M 122.60 199.33 L 122.15 200.20 C 121.70 201.05 122.03 202.09 122.87 202.54 C 123.72 202.98 124.76 202.66 125.21 201.81 L 125.67 200.94 C 126.11 200.09 125.78 199.05 124.94 198.60 C 124.09 198.16 123.05 198.49 122.60 199.33 Z M 122.15 200.21 L 121.70 201.06 C 121.26 201.91 121.59 202.95 122.43 203.39 C 123.27 203.83 124.32 203.50 124.76 202.66 L 125.20 201.81 C 125.65 200.96 125.32 199.92 124.48 199.48 C 123.63 199.04 122.59 199.37 122.15 200.21 Z M 121.71 201.07 L 121.24 201.97 C 120.80 202.81 121.13 203.85 121.97 204.29 C 122.81 204.72 123.85 204.40 124.28 203.56 L 124.75 202.66 C 125.19 201.81 124.87 200.78 124.02 200.34 C 123.18 199.90 122.14 200.23 121.71 201.07 Z M 121.24 201.97 L 120.75 202.91 C 120.32 203.75 120.64 204.79 121.48 205.22 C 122.32 205.66 123.36 205.33 123.79 204.49 L 124.28 203.55 C 124.72 202.71 124.39 201.68 123.55 201.24 C 122.71 200.81 121.68 201.13 121.24 201.97 Z M 120.76 202.92 L 120.29 203.82 C 119.86 204.66 120.18 205.69 121.02 206.12 C 121.86 206.56 122.88 206.23 123.32 205.39 L 123.79 204.49 C 124.22 203.65 123.89 202.62 123.06 202.19 C 122.22 201.76 121.19 202.08 120.76 202.92 Z M 120.30 203.83 L 119.85 204.70 C 119.41 205.53 119.74 206.56 120.57 206.99 C 121.41 207.42 122.43 207.09 122.86 206.26 L 123.31 205.39 C 123.74 204.56 123.42 203.53 122.58 203.10 C 121.75 202.67 120.73 203.00 120.30 203.83 Z M 119.85 204.70 L 119.42 205.53 C 118.99 206.36 119.32 207.38 120.15 207.81 C 120.98 208.24 122.00 207.91 122.43 207.08 L 122.86 206.25 C 123.29 205.43 122.96 204.40 122.13 203.98 C 121.30 203.55 120.28 203.87 119.85 204.70 Z M 119.43 205.54 L 118.98 206.42 C 118.55 207.24 118.87 208.26 119.70 208.68 C 120.52 209.11 121.54 208.79 121.97 207.96 L 122.42 207.08 C 122.85 206.26 122.52 205.24 121.70 204.81 C 120.87 204.39 119.86 204.71 119.43 205.54 Z M 118.98 206.43 L 118.53 207.32 C 118.11 208.14 118.43 209.15 119.26 209.57 C 120.08 209.99 121.09 209.66 121.51 208.84 L 121.96 207.95 C 122.38 207.13 122.05 206.12 121.23 205.70 C 120.41 205.28 119.40 205.60 118.98 206.43 Z M 118.53 207.34 L 118.09 208.22 C 117.69 209.05 118.03 210.04 118.85 210.45 C 119.67 210.85 120.67 210.51 121.07 209.69 L 121.51 208.81 C 121.91 207.99 121.57 206.99 120.75 206.59 C 119.93 206.18 118.93 206.52 118.53 207.34 Z M 118.09 208.26 L 117.67 209.16 C 117.29 209.99 117.65 210.97 118.47 211.35 C 119.30 211.73 120.28 211.38 120.66 210.55 L 121.08 209.65 C 121.46 208.82 121.10 207.84 120.28 207.46 C 119.45 207.08 118.47 207.44 118.09 208.26 Z M 117.66 209.22 L 117.19 210.33 C 116.83 211.17 117.22 212.13 118.06 212.48 C 118.89 212.83 119.85 212.44 120.20 211.61 L 120.68 210.49 C 121.03 209.66 120.64 208.70 119.81 208.35 C 118.97 207.99 118.01 208.38 117.66 209.22 Z M 117.16 210.44 L 116.76 211.59 C 116.47 212.44 116.92 213.36 117.77 213.66 C 118.62 213.95 119.54 213.50 119.83 212.65 L 120.23 211.50 C 120.52 210.65 120.07 209.73 119.22 209.44 C 118.38 209.15 117.45 209.60 117.16 210.44 Z M 116.70 211.98 L 116.64 212.70 C 116.56 213.58 117.21 214.36 118.10 214.43 C 118.98 214.51 119.76 213.86 119.84 212.97 L 119.90 212.26 C 119.98 211.38 119.32 210.60 118.44 210.52 C 117.55 210.44 116.77 211.10 116.70 211.98 Z M 118.16 214.42 L 118.50 214.44 C 119.38 214.48 120.12 213.80 120.16 212.93 C 120.21 212.05 119.53 211.31 118.66 211.27 L 118.31 211.25 C 117.44 211.21 116.69 211.88 116.65 212.76 C 116.61 213.63 117.28 214.38 118.16 214.42 Z M 119.50 214.11 L 120.03 213.72 C 120.73 213.22 120.88 212.24 120.37 211.54 C 119.87 210.85 118.89 210.69 118.19 211.20 L 117.66 211.59 C 116.96 212.10 116.81 213.07 117.32 213.77 C 117.82 214.47 118.80 214.62 119.50 214.11 Z M 120.15 213.58 L 120.87 212.92 C 121.49 212.35 121.53 211.38 120.95 210.76 C 120.38 210.14 119.41 210.10 118.79 210.68 L 118.08 211.34 C 117.45 211.91 117.42 212.88 117.99 213.50 C 118.56 214.12 119.53 214.16 120.15 213.58 Z M 120.90 212.85 L 121.74 212.00 C 122.32 211.41 122.32 210.46 121.73 209.88 C 121.14 209.30 120.19 209.30 119.61 209.89 L 118.76 210.74 C 118.18 211.33 118.19 212.28 118.78 212.86 C 119.36 213.45 120.31 213.44 120.90 212.85 Z M 121.74 211.96 L 122.65 211.00 C 123.21 210.41 123.19 209.48 122.60 208.92 C 122.01 208.37 121.08 208.39 120.53 208.97 L 119.61 209.93 C 119.05 210.52 119.07 211.45 119.66 212.01 C 120.25 212.57 121.18 212.55 121.74 211.96 Z M 122.64 210.98 L 122.93 210.67 C 123.48 210.09 123.46 209.17 122.88 208.62 C 122.30 208.07 121.38 208.10 120.83 208.68 L 120.54 208.99 C 119.99 209.57 120.01 210.49 120.59 211.04 C 121.17 211.59 122.09 211.56 122.64 210.98 Z"
      fill="black"
      fill-rule="nonzero" /><path d="M 151.96 158.00 L 152.14 158.89 C 152.31 159.74 153.14 160.29 153.99 160.12 C 154.84 159.95 155.39 159.12 155.22 158.27 L 155.04 157.38 C 154.87 156.52 154.04 155.97 153.19 156.14 C 152.34 156.31 151.79 157.14 151.96 158.00 Z M 152.10 158.90 L 152.29 159.82 C 152.47 160.70 153.32 161.26 154.20 161.08 C 155.07 160.90 155.63 160.04 155.45 159.17 L 155.26 158.25 C 155.08 157.38 154.23 156.82 153.35 157.00 C 152.48 157.18 151.92 158.03 152.10 158.90 Z M 152.25 159.85 L 152.46 160.82 C 152.66 161.71 153.54 162.28 154.43 162.09 C 155.32 161.89 155.89 161.01 155.69 160.12 L 155.48 159.15 C 155.29 158.26 154.41 157.69 153.52 157.88 C 152.63 158.08 152.06 158.96 152.25 159.85 Z M 152.43 160.85 L 152.67 161.90 C 152.88 162.81 153.79 163.38 154.70 163.17 C 155.61 162.96 156.18 162.06 155.97 161.14 L 155.73 160.09 C 155.52 159.18 154.61 158.61 153.70 158.82 C 152.79 159.03 152.22 159.94 152.43 160.85 Z M 152.65 161.93 L 152.89 162.94 C 153.12 163.86 154.05 164.43 154.97 164.21 C 155.90 163.98 156.47 163.05 156.24 162.12 L 156.00 161.12 C 155.77 160.19 154.84 159.62 153.91 159.85 C 152.99 160.07 152.42 161.01 152.65 161.93 Z M 152.88 162.96 L 153.12 163.90 C 153.36 164.83 154.30 165.40 155.23 165.16 C 156.16 164.93 156.73 163.98 156.49 163.05 L 156.25 162.10 C 156.02 161.17 155.07 160.61 154.14 160.84 C 153.21 161.08 152.64 162.03 152.88 162.96 Z M 153.11 163.92 L 153.37 164.90 C 153.61 165.83 154.57 166.39 155.50 166.15 C 156.44 165.91 157.00 164.95 156.75 164.02 L 156.50 163.04 C 156.25 162.10 155.30 161.54 154.37 161.78 C 153.43 162.03 152.87 162.98 153.11 163.92 Z M 153.36 164.91 L 153.63 165.90 C 153.87 166.84 154.84 167.40 155.77 167.15 C 156.71 166.91 157.27 165.94 157.02 165.00 L 156.76 164.01 C 156.51 163.07 155.55 162.51 154.61 162.76 C 153.67 163.01 153.11 163.97 153.36 164.91 Z M 153.62 165.91 L 153.88 166.90 C 154.14 167.85 155.10 168.40 156.05 168.15 C 156.99 167.90 157.55 166.93 157.30 165.99 L 157.03 165.00 C 156.78 164.06 155.81 163.50 154.87 163.75 C 153.93 164.00 153.37 164.97 153.62 165.91 Z M 153.88 166.91 L 154.13 167.87 C 154.39 168.82 155.36 169.38 156.31 169.13 C 157.26 168.87 157.82 167.90 157.56 166.95 L 157.30 165.99 C 157.05 165.04 156.08 164.48 155.13 164.73 C 154.18 164.99 153.62 165.96 153.88 166.91 Z M 154.13 167.87 L 154.40 168.89 C 154.66 169.85 155.63 170.41 156.58 170.16 C 157.54 169.90 158.10 168.92 157.85 167.97 L 157.57 166.95 C 157.32 166.00 156.34 165.43 155.39 165.69 C 154.44 165.94 153.87 166.92 154.13 167.87 Z M 154.40 168.90 L 154.67 169.90 C 154.92 170.86 155.90 171.42 156.86 171.16 C 157.81 170.91 158.38 169.93 158.12 168.97 L 157.85 167.97 C 157.59 167.02 156.61 166.45 155.66 166.71 C 154.71 166.96 154.14 167.94 154.40 168.90 Z M 154.67 169.91 L 154.93 170.87 C 155.19 171.82 156.17 172.39 157.13 172.13 C 158.08 171.86 158.64 170.88 158.38 169.93 L 158.12 168.97 C 157.86 168.01 156.88 167.45 155.92 167.71 C 154.97 167.97 154.41 168.96 154.67 169.91 Z M 154.93 170.88 L 155.19 171.81 C 155.46 172.77 156.45 173.32 157.40 173.05 C 158.36 172.78 158.91 171.79 158.64 170.84 L 158.38 169.91 C 158.12 168.96 157.12 168.40 156.17 168.67 C 155.22 168.94 154.66 169.93 154.93 170.88 Z M 155.19 171.83 L 155.46 172.74 C 155.74 173.70 156.74 174.24 157.69 173.96 C 158.64 173.68 159.19 172.69 158.91 171.73 L 158.64 170.82 C 158.36 169.87 157.36 169.32 156.41 169.60 C 155.46 169.88 154.91 170.88 155.19 171.83 Z M 155.46 172.77 L 155.74 173.69 C 156.04 174.64 157.04 175.17 158.00 174.88 C 158.95 174.59 159.48 173.58 159.19 172.63 L 158.91 171.71 C 158.61 170.76 157.61 170.22 156.65 170.51 C 155.70 170.81 155.17 171.82 155.46 172.77 Z M 155.75 173.71 L 156.05 174.64 C 156.35 175.59 157.37 176.11 158.32 175.80 C 159.27 175.50 159.79 174.48 159.48 173.53 L 159.18 172.60 C 158.88 171.65 157.86 171.13 156.91 171.44 C 155.96 171.74 155.44 172.76 155.75 173.71 Z M 156.05 174.66 L 156.37 175.60 C 156.68 176.55 157.71 177.06 158.66 176.74 C 159.60 176.42 160.11 175.40 159.80 174.45 L 159.48 173.51 C 159.16 172.56 158.14 172.05 157.19 172.37 C 156.24 172.69 155.73 173.71 156.05 174.66 Z M 156.37 175.62 L 156.70 176.57 C 157.03 177.52 158.06 178.02 159.01 177.69 C 159.95 177.36 160.45 176.33 160.12 175.39 L 159.79 174.43 C 159.46 173.49 158.43 172.99 157.49 173.31 C 156.54 173.64 156.04 174.67 156.37 175.62 Z M 156.70 176.59 L 157.05 177.56 C 157.39 178.51 158.43 179.00 159.37 178.66 C 160.31 178.32 160.81 177.28 160.47 176.34 L 160.12 175.37 C 159.78 174.42 158.74 173.93 157.80 174.27 C 156.86 174.61 156.37 175.65 156.70 176.59 Z M 157.05 177.58 L 157.39 178.50 C 157.74 179.45 158.78 179.93 159.73 179.59 C 160.67 179.24 161.15 178.20 160.81 177.25 L 160.47 176.33 C 160.12 175.38 159.08 174.90 158.13 175.25 C 157.19 175.59 156.71 176.63 157.05 177.58 Z M 157.40 178.52 L 157.74 179.44 C 158.09 180.38 159.14 180.86 160.08 180.50 C 161.02 180.15 161.50 179.10 161.15 178.16 L 160.80 177.24 C 160.45 176.30 159.40 175.82 158.46 176.17 C 157.52 176.53 157.04 177.58 157.40 178.52 Z M 157.74 179.45 L 158.10 180.38 C 158.46 181.32 159.51 181.79 160.45 181.43 C 161.39 181.07 161.86 180.02 161.50 179.08 L 161.15 178.15 C 160.79 177.21 159.73 176.74 158.79 177.10 C 157.85 177.46 157.38 178.51 157.74 179.45 Z M 158.10 180.39 L 158.47 181.33 C 158.84 182.27 159.89 182.74 160.83 182.37 C 161.77 182.00 162.23 180.95 161.87 180.01 L 161.50 179.07 C 161.13 178.13 160.08 177.66 159.14 178.03 C 158.20 178.40 157.73 179.46 158.10 180.39 Z M 158.47 181.35 L 158.85 182.29 C 159.22 183.23 160.29 183.69 161.22 183.31 C 162.16 182.94 162.62 181.88 162.24 180.94 L 161.86 179.99 C 161.49 179.06 160.43 178.60 159.49 178.97 C 158.55 179.35 158.10 180.41 158.47 181.35 Z M 158.85 182.31 L 159.24 183.25 C 159.62 184.18 160.69 184.63 161.62 184.25 C 162.56 183.87 163.00 182.80 162.62 181.87 L 162.24 180.93 C 161.86 179.99 160.79 179.54 159.85 179.92 C 158.92 180.31 158.47 181.37 158.85 182.31 Z M 159.24 183.26 L 159.63 184.18 C 160.02 185.12 161.09 185.56 162.02 185.17 C 162.95 184.78 163.39 183.70 163.00 182.77 L 162.62 181.85 C 162.23 180.92 161.16 180.48 160.22 180.87 C 159.29 181.26 158.85 182.33 159.24 183.26 Z M 159.63 184.20 L 160.03 185.12 C 160.43 186.05 161.50 186.48 162.43 186.08 C 163.36 185.68 163.79 184.60 163.39 183.67 L 163.00 182.75 C 162.60 181.82 161.52 181.39 160.59 181.79 C 159.66 182.19 159.23 183.27 159.63 184.20 Z M 160.03 185.14 L 160.44 186.05 C 160.85 186.98 161.94 187.39 162.86 186.98 C 163.79 186.57 164.20 185.49 163.79 184.56 L 163.38 183.65 C 162.97 182.72 161.89 182.31 160.96 182.72 C 160.04 183.13 159.62 184.21 160.03 185.14 Z M 160.45 186.08 L 160.87 186.99 C 161.30 187.91 162.39 188.31 163.31 187.88 C 164.23 187.46 164.63 186.37 164.20 185.45 L 163.78 184.54 C 163.36 183.62 162.27 183.22 161.35 183.64 C 160.43 184.07 160.03 185.16 160.45 186.08 Z M 160.88 187.02 L 161.32 187.92 C 161.76 188.83 162.85 189.21 163.77 188.77 C 164.68 188.33 165.07 187.24 164.62 186.32 L 164.19 185.42 C 163.75 184.51 162.65 184.12 161.74 184.56 C 160.83 185.00 160.44 186.10 160.88 187.02 Z M 161.33 187.95 L 161.78 188.84 C 162.24 189.75 163.34 190.11 164.25 189.66 C 165.16 189.20 165.52 188.10 165.06 187.19 L 164.61 186.29 C 164.15 185.39 163.05 185.02 162.14 185.48 C 161.24 185.94 160.87 187.04 161.33 187.95 Z M 161.80 188.88 L 162.27 189.76 C 162.74 190.66 163.85 191.00 164.75 190.53 C 165.65 190.06 165.99 188.94 165.52 188.05 L 165.05 187.16 C 164.57 186.26 163.46 185.92 162.56 186.39 C 161.67 186.87 161.32 187.98 161.80 188.88 Z M 162.29 189.80 L 162.77 190.67 C 163.26 191.56 164.38 191.88 165.27 191.39 C 166.16 190.90 166.48 189.78 165.99 188.89 L 165.50 188.01 C 165.01 187.13 163.89 186.81 163.00 187.30 C 162.11 187.79 161.79 188.91 162.29 189.80 Z M 162.79 190.71 L 163.29 191.57 C 163.80 192.45 164.93 192.75 165.81 192.24 C 166.69 191.72 166.98 190.60 166.47 189.72 L 165.97 188.86 C 165.46 187.98 164.33 187.68 163.45 188.19 C 162.58 188.70 162.28 189.83 162.79 190.71 Z M 163.31 191.61 L 163.83 192.46 C 164.36 193.32 165.50 193.60 166.36 193.07 C 167.23 192.54 167.50 191.40 166.97 190.54 L 166.45 189.69 C 165.92 188.82 164.79 188.55 163.92 189.08 C 163.06 189.61 162.78 190.74 163.31 191.61 Z M 163.85 192.49 L 164.39 193.33 C 164.94 194.18 166.08 194.43 166.94 193.88 C 167.79 193.33 168.04 192.19 167.49 191.33 L 166.95 190.50 C 166.40 189.65 165.26 189.40 164.41 189.95 C 163.55 190.50 163.30 191.64 163.85 192.49 Z M 164.42 193.36 L 164.97 194.18 C 165.54 195.03 166.69 195.25 167.53 194.68 C 168.37 194.11 168.59 192.96 168.02 192.12 L 167.46 191.30 C 166.89 190.46 165.75 190.24 164.91 190.81 C 164.07 191.38 163.85 192.52 164.42 193.36 Z M 165.00 194.22 L 165.57 195.03 C 166.16 195.85 167.31 196.05 168.14 195.46 C 168.97 194.87 169.16 193.72 168.57 192.89 L 167.99 192.08 C 167.41 191.26 166.26 191.06 165.43 191.65 C 164.60 192.24 164.41 193.39 165.00 194.22 Z M 165.60 195.06 L 166.19 195.86 C 166.80 196.67 167.95 196.84 168.77 196.23 C 169.58 195.62 169.75 194.47 169.14 193.65 L 168.54 192.86 C 167.94 192.04 166.78 191.88 165.97 192.48 C 165.16 193.09 164.99 194.25 165.60 195.06 Z M 166.22 195.89 L 166.83 196.68 C 167.46 197.48 168.61 197.62 169.41 196.99 C 170.21 196.37 170.36 195.21 169.73 194.41 L 169.11 193.62 C 168.49 192.82 167.33 192.68 166.53 193.31 C 165.73 193.93 165.59 195.09 166.22 195.89 Z M 166.86 196.71 L 167.50 197.49 C 168.14 198.28 169.30 198.40 170.08 197.75 C 170.87 197.11 170.99 195.95 170.35 195.17 L 169.71 194.38 C 169.06 193.60 167.91 193.48 167.12 194.12 C 166.33 194.76 166.21 195.92 166.86 196.71 Z M 167.52 197.52 L 168.18 198.29 C 168.83 199.07 169.99 199.16 170.77 198.50 C 171.54 197.85 171.64 196.69 170.98 195.91 L 170.32 195.14 C 169.67 194.37 168.51 194.27 167.73 194.93 C 166.96 195.58 166.86 196.74 167.52 197.52 Z M 168.20 198.32 L 168.87 199.08 C 169.54 199.84 170.71 199.91 171.47 199.24 C 172.23 198.57 172.30 197.41 171.63 196.65 L 170.96 195.89 C 170.28 195.13 169.12 195.05 168.36 195.73 C 167.60 196.40 167.53 197.56 168.20 198.32 Z M 168.90 199.11 L 169.59 199.86 C 170.28 200.60 171.44 200.65 172.18 199.96 C 172.93 199.28 172.98 198.12 172.29 197.37 L 171.60 196.62 C 170.91 195.88 169.75 195.83 169.01 196.51 C 168.26 197.20 168.21 198.36 168.90 199.11 Z M 169.62 199.89 L 170.32 200.61 C 171.02 201.34 172.18 201.36 172.91 200.66 C 173.64 199.96 173.66 198.80 172.96 198.07 L 172.26 197.34 C 171.56 196.61 170.40 196.59 169.67 197.29 C 168.94 198.00 168.92 199.16 169.62 199.89 Z M 170.35 200.65 L 171.06 201.34 C 171.78 202.05 172.94 202.04 173.65 201.32 C 174.36 200.60 174.36 199.44 173.63 198.73 L 172.93 198.03 C 172.21 197.32 171.04 197.33 170.33 198.05 C 169.62 198.78 169.63 199.94 170.35 200.65 Z M 171.10 201.38 L 171.81 202.04 C 172.55 202.73 173.71 202.68 174.40 201.94 C 175.09 201.20 175.05 200.04 174.30 199.35 L 173.59 198.69 C 172.85 198.01 171.69 198.05 171.01 198.79 C 170.32 199.53 170.36 200.69 171.10 201.38 Z M 171.86 202.08 L 172.65 202.76 C 173.42 203.42 174.57 203.33 175.23 202.57 C 175.89 201.80 175.80 200.65 175.04 199.99 L 174.25 199.31 C 173.49 198.65 172.33 198.74 171.67 199.50 C 171.01 200.27 171.10 201.42 171.86 202.08 Z M 172.71 202.81 L 173.52 203.44 C 174.31 204.07 175.46 203.93 176.08 203.14 C 176.71 202.35 176.57 201.20 175.78 200.57 L 174.98 199.94 C 174.19 199.31 173.04 199.45 172.41 200.24 C 171.79 201.03 171.92 202.18 172.71 202.81 Z M 173.58 203.49 L 174.39 204.07 C 175.21 204.66 176.35 204.47 176.94 203.65 C 177.52 202.84 177.34 201.70 176.52 201.11 L 175.71 200.53 C 174.89 199.94 173.76 200.13 173.17 200.94 C 172.58 201.76 172.77 202.90 173.58 203.49 Z M 174.46 204.11 L 175.28 204.65 C 176.12 205.19 177.25 204.96 177.80 204.11 C 178.35 203.27 178.11 202.14 177.27 201.60 L 176.45 201.06 C 175.61 200.51 174.48 200.75 173.93 201.59 C 173.38 202.44 173.62 203.56 174.46 204.11 Z M 175.35 204.69 L 176.18 205.18 C 177.05 205.69 178.16 205.40 178.67 204.53 C 179.18 203.67 178.89 202.55 178.03 202.04 L 177.19 201.55 C 176.33 201.05 175.22 201.33 174.71 202.20 C 174.20 203.06 174.49 204.18 175.35 204.69 Z M 176.26 205.21 L 177.13 205.68 C 178.02 206.15 179.12 205.81 179.58 204.92 C 180.05 204.04 179.71 202.94 178.83 202.47 L 177.95 202.01 C 177.07 201.54 175.97 201.88 175.50 202.76 C 175.03 203.65 175.37 204.75 176.26 205.21 Z M 177.21 205.71 L 178.11 206.14 C 179.01 206.56 180.09 206.18 180.52 205.28 C 180.95 204.37 180.56 203.29 179.66 202.87 L 178.76 202.44 C 177.85 202.01 176.77 202.40 176.35 203.30 C 175.92 204.20 176.30 205.28 177.21 205.71 Z M 178.18 206.17 L 179.11 206.55 C 180.03 206.94 181.09 206.51 181.47 205.59 C 181.86 204.67 181.43 203.61 180.51 203.22 L 179.59 202.84 C 178.67 202.45 177.61 202.88 177.22 203.80 C 176.83 204.72 177.27 205.78 178.18 206.17 Z M 179.18 206.58 L 180.12 206.93 C 181.05 207.27 182.09 206.80 182.44 205.86 C 182.78 204.93 182.31 203.89 181.37 203.55 L 180.43 203.20 C 179.50 202.85 178.46 203.33 178.12 204.26 C 177.77 205.20 178.25 206.23 179.18 206.58 Z M 180.19 206.95 L 181.14 207.26 C 182.09 207.56 183.10 207.04 183.41 206.10 C 183.71 205.15 183.20 204.14 182.25 203.83 L 181.30 203.53 C 180.35 203.22 179.34 203.74 179.03 204.68 C 178.73 205.63 179.25 206.64 180.19 206.95 Z M 181.21 207.27 L 182.18 207.54 C 183.13 207.81 184.12 207.25 184.39 206.30 C 184.66 205.34 184.10 204.35 183.14 204.09 L 182.18 203.82 C 181.23 203.55 180.24 204.11 179.97 205.06 C 179.70 206.02 180.26 207.01 181.21 207.27 Z M 182.25 207.55 L 183.22 207.78 C 184.18 208.01 185.14 207.42 185.37 206.46 C 185.60 205.50 185.01 204.54 184.05 204.31 L 183.08 204.08 C 182.12 203.85 181.15 204.44 180.92 205.40 C 180.70 206.36 181.29 207.32 182.25 207.55 Z M 183.29 207.79 L 184.27 207.99 C 185.23 208.18 186.17 207.56 186.36 206.59 C 186.55 205.63 185.93 204.69 184.97 204.50 L 183.99 204.30 C 183.02 204.11 182.09 204.73 181.89 205.70 C 181.70 206.66 182.32 207.60 183.29 207.79 Z M 184.33 207.99 L 185.31 208.15 C 186.28 208.31 187.19 207.66 187.35 206.70 C 187.51 205.73 186.86 204.82 185.89 204.66 L 184.91 204.50 C 183.94 204.34 183.03 204.99 182.87 205.95 C 182.71 206.92 183.36 207.83 184.33 207.99 Z M 185.37 208.15 L 186.35 208.29 C 187.32 208.42 188.21 207.74 188.34 206.78 C 188.47 205.81 187.79 204.92 186.83 204.79 L 185.84 204.66 C 184.87 204.53 183.99 205.21 183.86 206.17 C 183.72 207.14 184.40 208.02 185.37 208.15 Z M 186.40 208.29 L 187.40 208.39 C 188.36 208.50 189.23 207.80 189.33 206.83 C 189.43 205.87 188.73 205.00 187.77 204.90 L 186.78 204.80 C 185.81 204.69 184.95 205.39 184.84 206.35 C 184.74 207.32 185.44 208.18 186.40 208.29 Z M 187.44 208.39 L 188.43 208.47 C 189.40 208.55 190.24 207.84 190.32 206.87 C 190.40 205.91 189.68 205.06 188.72 204.98 L 187.73 204.90 C 186.76 204.82 185.92 205.54 185.84 206.50 C 185.76 207.47 186.48 208.31 187.44 208.39 Z M 188.47 208.47 L 189.47 208.53 C 190.43 208.59 191.26 207.86 191.32 206.90 C 191.37 205.93 190.64 205.11 189.68 205.05 L 188.68 204.99 C 187.72 204.93 186.89 205.66 186.84 206.62 C 186.78 207.59 187.51 208.41 188.47 208.47 Z M 189.50 208.53 L 190.50 208.57 C 191.46 208.61 192.27 207.87 192.31 206.91 C 192.35 205.95 191.61 205.14 190.65 205.10 L 189.65 205.05 C 188.69 205.01 187.88 205.76 187.84 206.72 C 187.80 207.67 188.54 208.49 189.50 208.53 Z M 190.52 208.57 L 191.52 208.59 C 192.47 208.62 193.27 207.87 193.30 206.91 C 193.33 205.96 192.57 205.16 191.62 205.13 L 190.63 205.10 C 189.67 205.07 188.87 205.83 188.84 206.78 C 188.81 207.74 189.57 208.54 190.52 208.57 Z M 191.54 208.59 L 192.51 208.60 C 193.47 208.62 194.25 207.86 194.27 206.91 C 194.28 205.95 193.52 205.17 192.57 205.15 L 191.59 205.14 C 190.64 205.12 189.86 205.88 189.84 206.83 C 189.83 207.79 190.59 208.57 191.54 208.59 Z M 192.54 208.59 L 193.53 208.59 C 194.48 208.59 195.24 207.82 195.24 206.88 C 195.24 205.93 194.47 205.16 193.53 205.16 L 192.54 205.16 C 191.59 205.16 190.82 205.93 190.83 206.88 C 190.83 207.83 191.59 208.60 192.54 208.59 Z M 193.56 208.59 L 194.57 208.56 C 195.51 208.54 196.26 207.76 196.24 206.82 C 196.22 205.88 195.44 205.13 194.49 205.15 L 193.49 205.17 C 192.55 205.19 191.80 205.97 191.82 206.91 C 191.84 207.86 192.62 208.61 193.56 208.59 Z M 194.61 208.55 L 195.63 208.51 C 196.56 208.46 197.29 207.67 197.25 206.73 C 197.20 205.80 196.41 205.07 195.47 205.11 L 194.45 205.16 C 193.51 205.20 192.79 206.00 192.83 206.93 C 192.87 207.87 193.67 208.60 194.61 208.55 Z M 195.67 208.50 L 196.68 208.42 C 197.61 208.36 198.31 207.55 198.25 206.62 C 198.18 205.68 197.37 204.98 196.44 205.05 L 195.43 205.12 C 194.50 205.19 193.80 206.00 193.86 206.93 C 193.93 207.86 194.74 208.56 195.67 208.50 Z M 196.73 208.41 L 197.70 208.31 C 198.63 208.22 199.30 207.40 199.21 206.47 C 199.12 205.55 198.29 204.88 197.37 204.97 L 196.40 205.06 C 195.47 205.16 194.80 205.98 194.89 206.90 C 194.98 207.83 195.80 208.50 196.73 208.41 Z M 197.75 208.30 L 198.74 208.17 C 199.65 208.06 200.30 207.22 200.18 206.30 C 200.07 205.39 199.23 204.74 198.31 204.86 L 197.33 204.98 C 196.41 205.10 195.76 205.94 195.88 206.85 C 195.99 207.77 196.83 208.42 197.75 208.30 Z M 198.78 208.16 L 199.78 208.00 C 200.68 207.86 201.30 207.01 201.16 206.10 C 201.02 205.19 200.17 204.57 199.26 204.72 L 198.27 204.87 C 197.36 205.02 196.74 205.87 196.88 206.77 C 197.02 207.68 197.88 208.30 198.78 208.16 Z M 199.83 207.98 L 200.82 207.79 C 201.72 207.62 202.31 206.76 202.14 205.86 C 201.97 204.97 201.11 204.38 200.21 204.55 L 199.21 204.73 C 198.32 204.90 197.73 205.77 197.90 206.67 C 198.07 207.56 198.93 208.15 199.83 207.98 Z M 200.88 207.77 L 201.87 207.55 C 202.75 207.35 203.31 206.47 203.11 205.59 C 202.91 204.70 202.03 204.15 201.14 204.35 L 200.16 204.57 C 199.27 204.77 198.71 205.65 198.91 206.53 C 199.11 207.42 199.99 207.97 200.88 207.77 Z M 201.92 207.53 L 202.88 207.28 C 203.75 207.05 204.27 206.15 204.04 205.28 C 203.81 204.41 202.92 203.89 202.05 204.12 L 201.09 204.37 C 200.22 204.60 199.70 205.49 199.93 206.36 C 200.15 207.23 201.05 207.76 201.92 207.53 Z M 202.92 207.25 L 203.87 206.97 C 204.73 206.71 205.22 205.81 204.96 204.95 C 204.71 204.10 203.80 203.61 202.95 203.86 L 202.00 204.14 C 201.14 204.40 200.65 205.30 200.91 206.16 C 201.16 207.02 202.07 207.51 202.92 207.25 Z M 203.91 206.94 L 204.85 206.63 C 205.70 206.36 206.16 205.45 205.88 204.60 C 205.60 203.76 204.69 203.30 203.85 203.58 L 202.91 203.89 C 202.06 204.17 201.60 205.07 201.88 205.92 C 202.16 206.76 203.07 207.22 203.91 206.94 Z M 204.89 206.61 L 205.83 206.27 C 206.66 205.98 207.09 205.07 206.80 204.24 C 206.50 203.41 205.59 202.97 204.76 203.27 L 203.82 203.60 C 202.99 203.90 202.55 204.81 202.85 205.64 C 203.14 206.47 204.05 206.90 204.89 206.61 Z M 205.85 206.25 L 206.80 205.89 C 207.62 205.59 208.03 204.67 207.72 203.85 C 207.42 203.04 206.50 202.62 205.68 202.93 L 204.74 203.29 C 203.92 203.60 203.50 204.51 203.81 205.33 C 204.12 206.15 205.03 206.56 205.85 206.25 Z M 206.82 205.88 L 207.75 205.51 C 208.56 205.19 208.96 204.28 208.64 203.47 C 208.32 202.66 207.41 202.27 206.60 202.58 L 205.67 202.95 C 204.86 203.27 204.46 204.18 204.78 204.99 C 205.10 205.80 206.01 206.19 206.82 205.88 Z M 207.76 205.49 L 208.66 205.13 C 209.45 204.81 209.84 203.90 209.52 203.10 C 209.20 202.30 208.29 201.91 207.49 202.24 L 206.59 202.60 C 205.79 202.92 205.40 203.83 205.73 204.63 C 206.05 205.43 206.96 205.82 207.76 205.49 Z M 208.66 205.12 L 209.57 204.75 C 210.36 204.42 210.74 203.51 210.41 202.72 C 210.08 201.93 209.18 201.55 208.38 201.88 L 207.48 202.25 C 206.69 202.58 206.31 203.49 206.64 204.28 C 206.96 205.07 207.87 205.45 208.66 205.12 Z M 209.57 204.73 L 210.49 204.35 C 211.28 204.02 211.65 203.11 211.32 202.33 C 210.99 201.54 210.08 201.17 209.30 201.50 L 208.38 201.89 C 207.59 202.22 207.23 203.12 207.56 203.91 C 207.89 204.69 208.79 205.06 209.57 204.73 Z M 210.50 204.34 L 211.43 203.94 C 212.21 203.61 212.57 202.71 212.24 201.93 C 211.91 201.15 211.01 200.79 210.23 201.12 L 209.30 201.51 C 208.52 201.85 208.15 202.75 208.49 203.52 C 208.82 204.30 209.72 204.67 210.50 204.34 Z M 211.43 203.93 L 212.37 203.52 C 213.15 203.19 213.50 202.29 213.17 201.52 C 212.84 200.75 211.95 200.39 211.17 200.72 L 210.23 201.13 C 209.45 201.46 209.10 202.36 209.43 203.13 C 209.76 203.90 210.66 204.26 211.43 203.93 Z M 212.37 203.51 L 213.31 203.11 C 214.08 202.78 214.43 201.89 214.10 201.12 C 213.77 200.35 212.88 200.00 212.11 200.33 L 211.17 200.73 C 210.41 201.06 210.05 201.95 210.38 202.72 C 210.71 203.49 211.61 203.84 212.37 203.51 Z M 213.31 203.10 L 214.21 202.71 C 214.97 202.38 215.32 201.49 214.99 200.73 C 214.66 199.97 213.78 199.61 213.01 199.95 L 212.11 200.33 C 211.35 200.66 211.00 201.55 211.33 202.32 C 211.66 203.08 212.55 203.43 213.31 203.10 Z M 214.21 202.71 L 215.12 202.31 C 215.88 201.98 216.23 201.10 215.90 200.34 C 215.57 199.58 214.68 199.23 213.92 199.56 L 213.01 199.95 C 212.25 200.28 211.90 201.17 212.23 201.93 C 212.56 202.69 213.45 203.04 214.21 202.71 Z M 215.12 202.31 L 216.03 201.91 C 216.79 201.58 217.14 200.69 216.81 199.94 C 216.48 199.18 215.59 198.83 214.84 199.16 L 213.92 199.56 C 213.16 199.89 212.82 200.77 213.15 201.53 C 213.48 202.29 214.36 202.64 215.12 202.31 Z M 216.03 201.90 L 216.95 201.50 C 217.71 201.17 218.05 200.29 217.72 199.53 C 217.39 198.78 216.51 198.44 215.76 198.77 L 214.84 199.17 C 214.08 199.50 213.74 200.38 214.07 201.13 C 214.40 201.89 215.28 202.23 216.03 201.90 Z M 216.95 201.49 L 217.88 201.08 C 218.63 200.75 218.97 199.87 218.64 199.12 C 218.31 198.37 217.44 198.03 216.69 198.37 L 215.76 198.77 C 215.01 199.10 214.67 199.98 215.00 200.73 C 215.33 201.48 216.20 201.82 216.95 201.49 Z M 217.88 201.07 L 218.81 200.66 C 219.56 200.33 219.89 199.46 219.56 198.71 C 219.23 197.97 218.36 197.63 217.61 197.96 L 216.68 198.37 C 215.94 198.70 215.60 199.58 215.93 200.32 C 216.26 201.07 217.14 201.40 217.88 201.07 Z M 218.81 200.66 L 219.73 200.25 C 220.47 199.92 220.81 199.04 220.47 198.30 C 220.14 197.56 219.27 197.22 218.53 197.56 L 217.61 197.97 C 216.87 198.30 216.53 199.17 216.87 199.91 C 217.20 200.66 218.07 200.99 218.81 200.66 Z M 219.73 200.24 L 220.64 199.83 C 221.39 199.50 221.72 198.63 221.38 197.89 C 221.05 197.15 220.18 196.82 219.44 197.15 L 218.53 197.56 C 217.78 197.89 217.45 198.76 217.79 199.51 C 218.12 200.25 218.99 200.58 219.73 200.24 Z M 220.65 199.83 L 221.56 199.42 C 222.30 199.08 222.63 198.21 222.29 197.47 C 221.96 196.73 221.08 196.41 220.35 196.74 L 219.43 197.15 C 218.70 197.49 218.37 198.36 218.70 199.10 C 219.04 199.84 219.91 200.16 220.65 199.83 Z M 221.56 199.41 L 222.47 199.00 C 223.21 198.66 223.53 197.79 223.20 197.05 C 222.86 196.31 221.99 195.99 221.25 196.33 L 220.34 196.74 C 219.60 197.08 219.28 197.95 219.62 198.69 C 219.95 199.43 220.83 199.75 221.56 199.41 Z M 222.48 198.99 L 223.38 198.57 C 224.12 198.23 224.44 197.36 224.10 196.63 C 223.76 195.89 222.89 195.57 222.16 195.91 L 221.25 196.33 C 220.51 196.67 220.19 197.54 220.53 198.28 C 220.87 199.01 221.74 199.33 222.48 198.99 Z M 223.39 198.57 L 224.30 198.15 C 225.03 197.81 225.34 196.94 225.00 196.20 C 224.66 195.47 223.79 195.15 223.06 195.49 L 222.15 195.92 C 221.42 196.26 221.10 197.13 221.44 197.86 C 221.79 198.59 222.66 198.91 223.39 198.57 Z M 224.30 198.14 L 225.20 197.72 C 225.93 197.37 226.25 196.50 225.90 195.77 C 225.56 195.04 224.69 194.73 223.96 195.07 L 223.05 195.50 C 222.32 195.84 222.01 196.71 222.35 197.44 C 222.70 198.17 223.57 198.49 224.30 198.14 Z M 225.21 197.71 L 226.11 197.28 C 226.84 196.94 227.15 196.07 226.81 195.34 C 226.46 194.61 225.59 194.30 224.86 194.65 L 223.95 195.08 C 223.23 195.42 222.92 196.29 223.26 197.02 C 223.61 197.75 224.48 198.06 225.21 197.71 Z M 226.12 197.28 L 227.02 196.85 C 227.75 196.50 228.05 195.63 227.71 194.90 C 227.36 194.17 226.49 193.87 225.76 194.22 L 224.86 194.65 C 224.13 195.00 223.82 195.87 224.17 196.60 C 224.52 197.32 225.39 197.63 226.12 197.28 Z M 227.02 196.85 L 227.92 196.41 C 228.65 196.06 228.96 195.19 228.60 194.46 C 228.25 193.74 227.38 193.43 226.66 193.78 L 225.75 194.22 C 225.03 194.57 224.72 195.44 225.07 196.17 C 225.42 196.89 226.30 197.20 227.02 196.85 Z M 227.93 196.41 L 228.83 195.97 C 229.55 195.62 229.85 194.75 229.50 194.02 C 229.15 193.30 228.28 193.00 227.55 193.35 L 226.65 193.78 C 225.93 194.14 225.62 195.01 225.98 195.74 C 226.33 196.46 227.20 196.76 227.93 196.41 Z M 228.83 195.97 L 229.73 195.54 C 230.45 195.18 230.75 194.31 230.40 193.58 C 230.05 192.86 229.17 192.56 228.45 192.91 L 227.55 193.35 C 226.82 193.70 226.52 194.58 226.88 195.30 C 227.23 196.03 228.10 196.33 228.83 195.97 Z M 229.73 195.54 L 230.62 195.10 C 231.35 194.74 231.65 193.87 231.30 193.14 C 230.94 192.42 230.07 192.12 229.34 192.47 L 228.45 192.91 C 227.72 193.27 227.42 194.14 227.78 194.86 C 228.13 195.59 229.00 195.89 229.73 195.54 Z M 230.63 195.10 L 231.13 194.85 C 231.86 194.49 232.16 193.62 231.80 192.90 C 231.45 192.17 230.58 191.87 229.85 192.23 L 229.34 192.47 C 228.62 192.83 228.32 193.70 228.67 194.43 C 229.03 195.15 229.90 195.45 230.63 195.10 Z"
      fill="black"
      fill-rule="nonzero" /></svg>