<svg xmlns="http://www.w3.org/2000/svg" width="300" height="300" viewBox="0 0 300 300">
<path d="M 128.36 133.74 L 127.41 133.39 C 126.61 133.10 125.72 133.52 125.43 134.33 C 125.14 135.13 125.55 136.02 126.36 136.31 L 127.31 136.65 C 128.11 136.95 129.00 136.53 129.29 135.72 C 129.58 134.92 129.17 134.03 128.36 133.74 Z M 127.40 133.37 L 126.45 133.04 C 125.63 132.75 124.73 133.19 124.45 134.01 C 124.17 134.83 124.60 135.73 125.42 136.01 L 126.37 136.34 C 127.19 136.62 128.09 136.19 128.37 135.37 C 128.66 134.55 128.22 133.65 127.40 133.37 Z M 126.42 133.00 L 125.46 132.70 C 124.62 132.43 123.73 132.90 123.46 133.74 C 123.20 134.58 123.66 135.48 124.50 135.74 L 125.45 136.04 C 126.29 136.31 127.19 135.85 127.46 135.01 C 127.72 134.17 127.26 133.27 126.42 133.00 Z M 125.41 132.66 L 124.45 132.40 C 123.59 132.16 122.70 132.67 122.46 133.53 C 122.23 134.40 122.74 135.29 123.60 135.52 L 124.56 135.78 C 125.42 136.02 126.31 135.51 126.54 134.65 C 126.78 133.79 126.27 132.90 125.41 132.66 Z M 124.36 132.35 L 123.24 132.12 C 122.35 131.93 121.48 132.50 121.29 133.39 C 121.11 134.27 121.68 135.14 122.56 135.33 L 123.69 135.57 C 124.57 135.75 125.45 135.19 125.63 134.30 C 125.82 133.41 125.25 132.54 124.36 132.35 Z M 123.13 132.07 L 121.85 131.89 C 120.94 131.76 120.10 132.40 119.97 133.31 C 119.84 134.22 120.48 135.07 121.39 135.20 L 122.67 135.38 C 123.58 135.50 124.42 134.87 124.55 133.96 C 124.68 133.04 124.04 132.20 123.13 132.07 Z M 121.75 131.85 L 120.78 131.78 C 119.85 131.71 119.03 132.40 118.96 133.34 C 118.89 134.27 119.59 135.09 120.52 135.16 L 121.49 135.24 C 122.42 135.31 123.24 134.61 123.31 133.67 C 123.38 132.74 122.68 131.92 121.75 131.85 Z M 120.58 131.75 L 120.15 131.77 C 119.20 131.80 118.46 132.61 118.50 133.56 C 118.54 134.51 119.34 135.25 120.29 135.21 L 120.72 135.19 C 121.67 135.15 122.41 134.35 122.37 133.40 C 122.33 132.45 121.53 131.71 120.58 131.75 Z M 119.79 135.17 L 120.28 135.30 C 121.21 135.53 122.15 134.97 122.39 134.04 C 122.63 133.11 122.07 132.16 121.14 131.93 L 120.65 131.80 C 119.72 131.56 118.78 132.13 118.54 133.06 C 118.30 133.99 118.86 134.93 119.79 135.17 Z M 120.48 135.34 L 121.77 135.51 C 122.73 135.64 123.61 134.97 123.73 134.01 C 123.86 133.06 123.19 132.18 122.23 132.05 L 120.93 131.88 C 119.98 131.75 119.10 132.43 118.97 133.38 C 118.85 134.34 119.52 135.22 120.48 135.34 Z M 121.84 135.53 L 122.98 135.63 C 123.95 135.72 124.80 135.02 124.89 134.05 C 124.98 133.09 124.27 132.24 123.31 132.15 L 122.17 132.04 C 121.20 131.95 120.35 132.66 120.26 133.62 C 120.17 134.58 120.88 135.43 121.84 135.53 Z M 123.02 135.64 L 124.03 135.71 C 125.00 135.78 125.84 135.06 125.91 134.09 C 125.98 133.12 125.25 132.28 124.28 132.21 L 123.27 132.14 C 122.31 132.07 121.47 132.80 121.40 133.76 C 121.33 134.73 122.05 135.57 123.02 135.64 Z M 124.06 135.72 L 125.09 135.77 C 126.05 135.83 126.88 135.09 126.94 134.12 C 127.00 133.16 126.26 132.33 125.29 132.27 L 124.26 132.21 C 123.29 132.16 122.46 132.89 122.41 133.86 C 122.35 134.83 123.09 135.66 124.06 135.72 Z M 125.11 135.78 L 126.12 135.82 C 127.09 135.87 127.91 135.12 127.95 134.15 C 128.00 133.18 127.25 132.36 126.28 132.31 L 125.27 132.27 C 124.30 132.22 123.48 132.97 123.43 133.94 C 123.39 134.91 124.14 135.73 125.11 135.78 Z M 126.14 135.83 L 127.15 135.86 C 128.12 135.89 128.93 135.13 128.96 134.16 C 129.00 133.19 128.24 132.38 127.27 132.35 L 126.26 132.31 C 125.29 132.28 124.47 133.04 124.44 134.01 C 124.41 134.98 125.17 135.79 126.14 135.83 Z M 127.17 135.86 L 128.22 135.88 C 129.19 135.90 129.99 135.13 130.01 134.16 C 130.04 133.19 129.27 132.39 128.29 132.37 L 127.24 132.35 C 126.27 132.33 125.47 133.10 125.45 134.07 C 125.43 135.04 126.20 135.84 127.17 135.86 Z M 128.24 135.88 L 129.21 135.89 C 130.18 135.90 130.98 135.12 130.99 134.15 C 131.00 133.18 130.22 132.39 129.25 132.38 L 128.27 132.37 C 127.30 132.36 126.51 133.14 126.50 134.11 C 126.49 135.08 127.27 135.88 128.24 135.88 Z M 129.23 135.89 L 130.18 135.90 C 131.15 135.90 131.94 135.11 131.94 134.14 C 131.94 133.17 131.15 132.38 130.18 132.38 L 129.23 132.38 C 128.26 132.37 127.47 133.16 127.47 134.13 C 127.47 135.10 128.26 135.89 129.23 135.89 Z M 130.18 135.90 L 131.14 135.90 C 132.11 135.90 132.90 135.11 132.90 134.14 C 132.90 133.17 132.11 132.38 131.14 132.38 L 130.18 132.38 C 129.21 132.38 128.42 133.17 128.42 134.14 C 128.42 135.11 129.21 135.90 130.18 135.90 Z M 131.14 135.90 L 132.13 135.90 C 133.10 135.90 133.88 135.11 133.88 134.14 C 133.88 133.17 133.10 132.38 132.13 132.38 L 131.14 132.38 C 130.17 132.38 129.38 133.17 129.38 134.14 C 129.38 135.11 130.17 135.90 131.14 135.90 Z M 132.13 135.90 L 133.14 135.90 C 134.11 135.90 134.90 135.11 134.90 134.14 C 134.90 133.17 134.11 132.38 133.14 132.38 L 132.13 132.38 C 131.15 132.38 130.37 133.17 130.37 134.14 C 130.37 135.11 131.15 135.90 132.13 135.90 Z M 133.14 135.90 L 134.16 135.90 C 135.14 135.90 135.92 135.11 135.92 134.14 C 135.92 133.17 135.14 132.38 134.16 132.38 L 133.14 132.38 C 132.17 132.38 131.38 133.17 131.38 134.14 C 131.38 135.11 132.17 135.90 133.14 135.90 Z M 134.17 135.90 L 135.14 135.90 C 136.11 135.90 136.90 135.11 136.90 134.14 C 136.90 133.16 136.11 132.38 135.14 132.38 L 134.16 132.38 C 133.19 132.38 132.40 133.17 132.40 134.14 C 132.41 135.11 133.19 135.90 134.17 135.90 Z M 135.14 135.90 L 136.13 135.89 C 137.10 135.89 137.89 135.10 137.89 134.13 C 137.88 133.16 137.09 132.37 136.12 132.37 L 135.13 132.38 C 134.16 132.38 133.37 133.17 133.38 134.14 C 133.38 135.11 134.17 135.90 135.14 135.90 Z M 136.14 135.89 L 137.15 135.89 C 138.12 135.88 138.90 135.09 138.90 134.11 C 138.89 133.14 138.10 132.36 137.12 132.37 L 136.11 132.37 C 135.14 132.38 134.36 133.18 134.37 134.15 C 134.37 135.12 135.17 135.90 136.14 135.89 Z M 137.16 135.89 L 138.19 135.87 C 139.16 135.86 139.94 135.06 139.92 134.09 C 139.91 133.12 139.11 132.34 138.14 132.35 L 137.11 132.37 C 136.14 132.38 135.36 133.18 135.38 134.15 C 135.39 135.12 136.19 135.90 137.16 135.89 Z M 138.20 135.87 L 139.20 135.85 C 140.17 135.83 140.94 135.02 140.92 134.05 C 140.90 133.08 140.09 132.31 139.12 132.33 L 138.13 132.35 C 137.15 132.37 136.38 133.18 136.41 134.15 C 136.43 135.12 137.23 135.89 138.20 135.87 Z M 139.21 135.85 L 140.22 135.82 C 141.19 135.79 141.95 134.98 141.92 134.01 C 141.89 133.03 141.08 132.27 140.11 132.30 L 139.10 132.33 C 138.13 132.36 137.37 133.17 137.40 134.15 C 137.43 135.12 138.24 135.88 139.21 135.85 Z M 140.24 135.82 L 141.25 135.77 C 142.22 135.73 142.97 134.91 142.93 133.94 C 142.89 132.97 142.07 132.22 141.10 132.26 L 140.09 132.30 C 139.12 132.34 138.37 133.16 138.41 134.13 C 138.45 135.10 139.27 135.86 140.24 135.82 Z M 141.27 135.77 L 142.26 135.72 C 143.23 135.66 143.97 134.83 143.92 133.86 C 143.86 132.89 143.03 132.15 142.07 132.21 L 141.07 132.26 C 140.11 132.32 139.36 133.15 139.42 134.12 C 139.47 135.08 140.30 135.83 141.27 135.77 Z M 142.29 135.71 L 143.31 135.64 C 144.28 135.57 145.01 134.73 144.93 133.76 C 144.86 132.79 144.02 132.06 143.05 132.14 L 142.04 132.21 C 141.07 132.28 140.34 133.12 140.41 134.09 C 140.48 135.06 141.33 135.78 142.29 135.71 Z M 143.34 135.63 L 144.34 135.55 C 145.30 135.46 146.01 134.61 145.93 133.64 C 145.84 132.67 144.99 131.96 144.02 132.05 L 143.03 132.14 C 142.06 132.23 141.35 133.08 141.44 134.04 C 141.52 135.01 142.37 135.72 143.34 135.63 Z M 144.36 135.54 L 145.34 135.44 C 146.31 135.34 147.01 134.48 146.91 133.51 C 146.81 132.55 145.95 131.85 144.98 131.95 L 144.00 132.05 C 143.03 132.15 142.33 133.01 142.43 133.98 C 142.53 134.94 143.40 135.64 144.36 135.54 Z M 145.36 135.44 L 146.34 135.32 C 147.31 135.21 148.00 134.35 147.89 133.38 C 147.78 132.42 146.91 131.73 145.95 131.84 L 144.96 131.95 C 144.00 132.06 143.31 132.93 143.42 133.89 C 143.53 134.86 144.40 135.55 145.36 135.44 Z M 146.36 135.32 L 147.33 135.20 C 148.29 135.08 148.97 134.21 148.85 133.25 C 148.73 132.29 147.86 131.61 146.90 131.73 L 145.93 131.84 C 144.97 131.96 144.29 132.84 144.41 133.80 C 144.52 134.76 145.40 135.44 146.36 135.32 Z M 147.34 135.20 L 148.32 135.07 C 149.28 134.95 149.95 134.07 149.83 133.11 C 149.71 132.16 148.83 131.48 147.87 131.60 L 146.89 131.73 C 145.93 131.85 145.26 132.73 145.38 133.69 C 145.50 134.65 146.38 135.32 147.34 135.20 Z M 148.33 135.07 L 149.33 134.93 C 150.28 134.80 150.95 133.92 150.82 132.97 C 150.69 132.01 149.81 131.34 148.86 131.47 L 147.86 131.61 C 146.91 131.74 146.24 132.62 146.36 133.57 C 146.49 134.53 147.37 135.20 148.33 135.07 Z M 149.34 134.93 L 150.35 134.79 C 151.31 134.65 151.97 133.77 151.84 132.82 C 151.70 131.86 150.82 131.20 149.87 131.33 L 148.85 131.48 C 147.90 131.61 147.23 132.49 147.37 133.44 C 147.50 134.40 148.38 135.06 149.34 134.93 Z M 150.36 134.78 L 151.33 134.64 C 152.28 134.50 152.94 133.62 152.80 132.67 C 152.66 131.72 151.78 131.06 150.83 131.20 L 149.86 131.34 C 148.91 131.47 148.25 132.36 148.39 133.31 C 148.53 134.26 149.41 134.92 150.36 134.78 Z M 151.33 134.64 L 152.32 134.49 C 153.27 134.35 153.92 133.47 153.78 132.52 C 153.64 131.57 152.76 130.91 151.81 131.05 L 150.83 131.20 C 149.88 131.34 149.22 132.22 149.36 133.17 C 149.50 134.12 150.38 134.78 151.33 134.64 Z M 152.32 134.49 L 153.32 134.34 C 154.26 134.20 154.92 133.31 154.78 132.37 C 154.63 131.42 153.75 130.77 152.80 130.91 L 151.81 131.06 C 150.86 131.20 150.21 132.08 150.35 133.03 C 150.49 133.98 151.37 134.63 152.32 134.49 Z M 153.32 134.34 L 154.32 134.19 C 155.27 134.04 155.92 133.16 155.77 132.21 C 155.63 131.27 154.75 130.62 153.80 130.76 L 152.80 130.91 C 151.86 131.05 151.20 131.94 151.35 132.88 C 151.49 133.83 152.37 134.48 153.32 134.34 Z M 154.32 134.18 L 155.31 134.03 C 156.26 133.89 156.90 133.01 156.76 132.06 C 156.62 131.12 155.74 130.47 154.79 130.61 L 153.80 130.76 C 152.86 130.91 152.21 131.79 152.35 132.73 C 152.50 133.68 153.38 134.32 154.32 134.18 Z M 155.31 134.03 L 156.30 133.88 C 157.24 133.73 157.88 132.85 157.74 131.91 C 157.60 130.97 156.72 130.33 155.78 130.47 L 154.79 130.62 C 153.85 130.76 153.21 131.64 153.35 132.58 C 153.49 133.52 154.37 134.17 155.31 134.03 Z M 156.30 133.87 L 157.29 133.72 C 158.22 133.57 158.87 132.70 158.72 131.76 C 158.58 130.82 157.70 130.18 156.76 130.32 L 155.77 130.47 C 154.84 130.62 154.19 131.50 154.34 132.44 C 154.48 133.37 155.36 134.02 156.30 133.87 Z M 157.29 133.71 L 158.28 133.56 C 159.22 133.41 159.85 132.53 159.71 131.60 C 159.56 130.66 158.68 130.02 157.75 130.17 L 156.76 130.33 C 155.82 130.48 155.18 131.35 155.33 132.29 C 155.48 133.22 156.36 133.86 157.29 133.71 Z M 158.29 133.55 L 159.28 133.39 C 160.21 133.24 160.84 132.36 160.69 131.43 C 160.54 130.50 159.66 129.87 158.73 130.02 L 157.74 130.18 C 156.81 130.33 156.18 131.21 156.33 132.14 C 156.48 133.07 157.36 133.70 158.29 133.55 Z M 159.29 133.38 L 160.26 133.22 C 161.18 133.06 161.81 132.19 161.65 131.26 C 161.50 130.33 160.62 129.71 159.69 129.86 L 158.72 130.02 C 157.80 130.18 157.17 131.06 157.33 131.98 C 157.48 132.91 158.36 133.54 159.29 133.38 Z M 160.26 133.21 L 161.24 133.05 C 162.16 132.89 162.78 132.01 162.63 131.09 C 162.47 130.16 161.59 129.54 160.67 129.70 L 159.69 129.87 C 158.77 130.03 158.15 130.90 158.30 131.83 C 158.46 132.75 159.34 133.37 160.26 133.21 Z M 161.24 133.04 L 162.23 132.87 C 163.15 132.71 163.77 131.83 163.61 130.91 C 163.45 129.99 162.58 129.38 161.66 129.54 L 160.67 129.71 C 159.75 129.87 159.13 130.74 159.29 131.66 C 159.45 132.58 160.32 133.20 161.24 133.04 Z M 162.23 132.86 L 163.23 132.69 C 164.15 132.53 164.76 131.66 164.60 130.74 C 164.44 129.83 163.57 129.21 162.66 129.37 L 161.66 129.54 C 160.74 129.70 160.12 130.57 160.28 131.49 C 160.44 132.41 161.31 133.02 162.23 132.86 Z M 163.23 132.68 L 164.23 132.51 C 165.14 132.36 165.76 131.49 165.60 130.57 C 165.45 129.66 164.58 129.05 163.66 129.20 L 162.66 129.38 C 161.75 129.53 161.13 130.40 161.29 131.31 C 161.44 132.23 162.31 132.84 163.23 132.68 Z M 164.23 132.51 L 165.23 132.34 C 166.14 132.18 166.76 131.32 166.60 130.41 C 166.45 129.50 165.58 128.88 164.67 129.04 L 163.67 129.21 C 162.76 129.36 162.14 130.23 162.30 131.14 C 162.45 132.05 163.32 132.66 164.23 132.51 Z M 165.23 132.33 L 166.23 132.16 C 167.14 132.01 167.75 131.15 167.59 130.24 C 167.44 129.34 166.58 128.72 165.68 128.88 L 164.68 129.05 C 163.77 129.20 163.16 130.06 163.31 130.96 C 163.47 131.87 164.32 132.48 165.23 132.33 Z M 166.23 132.15 L 167.21 131.99 C 168.11 131.84 168.72 130.98 168.57 130.08 C 168.41 129.18 167.56 128.57 166.66 128.72 L 165.68 128.88 C 164.78 129.04 164.17 129.89 164.32 130.79 C 164.47 131.70 165.33 132.30 166.23 132.15 Z M 167.21 131.98 L 168.16 131.82 C 169.05 131.67 169.66 130.82 169.51 129.92 C 169.36 129.02 168.51 128.42 167.61 128.57 L 166.66 128.73 C 165.76 128.88 165.15 129.73 165.31 130.63 C 165.46 131.53 166.31 132.13 167.21 131.98 Z M 168.16 131.81 L 169.21 131.63 C 170.11 131.48 170.71 130.63 170.55 129.74 C 170.40 128.85 169.56 128.24 168.66 128.40 L 167.61 128.58 C 166.71 128.73 166.11 129.58 166.26 130.47 C 166.42 131.36 167.26 131.96 168.16 131.81 Z M 169.21 131.62 L 170.22 131.45 C 171.11 131.30 171.70 130.45 171.55 129.56 C 171.40 128.67 170.55 128.08 169.66 128.23 L 168.66 128.41 C 167.77 128.56 167.17 129.40 167.33 130.29 C 167.48 131.18 168.33 131.78 169.21 131.62 Z M 170.22 131.44 L 171.18 131.27 C 172.07 131.11 172.65 130.27 172.50 129.39 C 172.34 128.51 171.50 127.92 170.62 128.07 L 169.66 128.24 C 168.78 128.40 168.19 129.24 168.34 130.12 C 168.50 131.01 169.34 131.59 170.22 131.44 Z M 171.19 131.26 L 172.11 131.09 C 172.99 130.93 173.57 130.09 173.41 129.21 C 173.25 128.34 172.41 127.76 171.53 127.92 L 170.61 128.08 C 169.73 128.24 169.15 129.08 169.31 129.96 C 169.47 130.84 170.31 131.42 171.19 131.26 Z M 172.12 131.08 L 173.06 130.90 C 173.93 130.74 174.50 129.90 174.33 129.03 C 174.17 128.16 173.33 127.58 172.46 127.75 L 171.52 127.93 C 170.65 128.09 170.08 128.93 170.24 129.80 C 170.41 130.67 171.25 131.24 172.12 131.08 Z M 173.07 130.89 L 174.01 130.70 C 174.88 130.53 175.44 129.69 175.27 128.83 C 175.09 127.96 174.25 127.40 173.39 127.58 L 172.45 127.76 C 171.58 127.93 171.02 128.77 171.20 129.64 C 171.37 130.50 172.21 131.06 173.07 130.89 Z M 174.03 130.69 L 175.02 130.48 C 175.88 130.30 176.42 129.46 176.24 128.60 C 176.06 127.75 175.23 127.20 174.37 127.38 L 173.38 127.59 C 172.52 127.77 171.97 128.61 172.15 129.46 C 172.33 130.32 173.17 130.87 174.03 130.69 Z M 175.03 130.47 L 176.05 130.24 C 176.90 130.05 177.44 129.22 177.25 128.37 C 177.07 127.52 176.23 126.98 175.38 127.17 L 174.36 127.39 C 173.51 127.58 172.97 128.42 173.16 129.27 C 173.35 130.12 174.18 130.65 175.03 130.47 Z M 176.07 130.23 L 177.00 130.01 C 177.84 129.82 178.37 128.97 178.17 128.13 C 177.98 127.29 177.14 126.77 176.30 126.97 L 175.36 127.18 C 174.52 127.38 174.00 128.22 174.19 129.06 C 174.39 129.90 175.23 130.42 176.07 130.23 Z M 177.04 129.99 L 178.01 129.74 C 178.84 129.53 179.34 128.68 179.13 127.85 C 178.92 127.02 178.07 126.52 177.24 126.73 L 176.26 126.98 C 175.43 127.20 174.93 128.04 175.14 128.88 C 175.36 129.71 176.21 130.21 177.04 129.99 Z M 178.06 129.72 L 179.05 129.43 C 179.87 129.19 180.33 128.33 180.09 127.51 C 179.85 126.69 178.99 126.22 178.17 126.46 L 177.18 126.75 C 176.37 127.00 175.90 127.86 176.14 128.68 C 176.38 129.50 177.24 129.96 178.06 129.72 Z M 179.12 129.40 L 180.09 129.06 C 180.89 128.78 181.31 127.90 181.03 127.10 C 180.75 126.30 179.87 125.87 179.07 126.16 L 178.10 126.50 C 177.30 126.78 176.88 127.65 177.16 128.46 C 177.44 129.26 178.32 129.68 179.12 129.40 Z M 180.18 129.01 L 181.12 128.61 C 181.89 128.28 182.25 127.38 181.92 126.60 C 181.59 125.83 180.69 125.47 179.91 125.80 L 178.97 126.20 C 178.20 126.54 177.84 127.43 178.17 128.21 C 178.50 128.98 179.40 129.34 180.18 129.01 Z M 181.21 128.55 L 182.11 128.08 C 182.85 127.70 183.14 126.79 182.76 126.04 C 182.38 125.30 181.46 125.01 180.72 125.39 L 179.82 125.86 C 179.08 126.24 178.79 127.16 179.17 127.90 C 179.56 128.64 180.47 128.93 181.21 128.55 Z M 182.18 128.03 L 183.04 127.52 C 183.75 127.10 183.98 126.18 183.56 125.47 C 183.14 124.76 182.22 124.52 181.51 124.94 L 180.65 125.45 C 179.94 125.87 179.71 126.79 180.13 127.50 C 180.55 128.21 181.47 128.45 182.18 128.03 Z M 183.08 127.48 L 183.91 126.94 C 184.59 126.50 184.79 125.58 184.35 124.89 C 183.90 124.21 182.99 124.01 182.30 124.45 L 181.47 124.99 C 180.78 125.43 180.59 126.35 181.03 127.03 C 181.47 127.72 182.39 127.92 183.08 127.48 Z M 183.92 126.91 L 184.74 126.36 C 185.41 125.91 185.58 125.00 185.13 124.33 C 184.68 123.66 183.77 123.48 183.10 123.93 L 182.29 124.48 C 181.62 124.93 181.44 125.84 181.89 126.51 C 182.34 127.18 183.25 127.36 183.92 126.91 Z"
      fill="black"
      fill-rule="nonzero" /><path d="M 153.49 94.65 L 153.21 95.55 C 152.95 96.36 153.41 97.22 154.22 97.48 C 155.03 97.73 155.89 97.28 156.14 96.47 L 156.42 95.57 C 156.68 94.76 156.22 93.90 155.41 93.64 C 154.60 93.39 153.74 93.84 153.49 94.65 Z M 153.18 95.57 L 152.91 96.48 C 152.67 97.31 153.14 98.17 153.97 98.41 C 154.79 98.66 155.66 98.18 155.90 97.36 L 156.17 96.45 C 156.41 95.62 155.94 94.76 155.12 94.52 C 154.29 94.27 153.43 94.74 153.18 95.57 Z M 152.89 96.52 L 152.64 97.47 C 152.42 98.31 152.92 99.17 153.76 99.39 C 154.60 99.61 155.46 99.11 155.68 98.27 L 155.93 97.32 C 156.15 96.48 155.65 95.62 154.81 95.40 C 153.96 95.18 153.11 95.68 152.89 96.52 Z M 152.60 97.53 L 152.39 98.53 C 152.20 99.39 152.75 100.24 153.61 100.42 C 154.47 100.61 155.31 100.06 155.50 99.21 L 155.71 98.21 C 155.90 97.35 155.36 96.50 154.50 96.31 C 153.64 96.13 152.79 96.67 152.60 97.53 Z M 152.36 98.61 L 152.18 99.68 C 152.04 100.55 152.63 101.38 153.51 101.52 C 154.39 101.67 155.21 101.07 155.36 100.20 L 155.53 99.13 C 155.67 98.25 155.08 97.42 154.20 97.28 C 153.33 97.14 152.50 97.73 152.36 98.61 Z M 152.16 99.76 L 152.05 100.73 C 151.95 101.62 152.59 102.42 153.48 102.52 C 154.37 102.62 155.17 101.98 155.27 101.09 L 155.38 100.12 C 155.48 99.23 154.84 98.42 153.95 98.32 C 153.06 98.22 152.26 98.87 152.16 99.76 Z M 152.03 100.79 L 151.96 101.77 C 151.90 102.67 152.57 103.45 153.47 103.52 C 154.37 103.58 155.15 102.91 155.22 102.01 L 155.29 101.03 C 155.35 100.13 154.68 99.35 153.78 99.28 C 152.88 99.22 152.10 99.89 152.03 100.79 Z M 151.95 101.82 L 151.91 102.83 C 151.86 103.73 152.57 104.50 153.47 104.54 C 154.38 104.58 155.14 103.88 155.18 102.98 L 155.23 101.96 C 155.27 101.06 154.57 100.29 153.66 100.25 C 152.76 100.21 151.99 100.91 151.95 101.82 Z M 151.90 102.87 L 151.87 103.89 C 151.85 104.80 152.57 105.56 153.48 105.58 C 154.39 105.60 155.15 104.88 155.17 103.97 L 155.19 102.94 C 155.21 102.03 154.49 101.28 153.58 101.26 C 152.67 101.23 151.92 101.96 151.90 102.87 Z M 151.86 103.92 L 151.86 104.94 C 151.85 105.86 152.59 106.60 153.50 106.61 C 154.42 106.62 155.16 105.88 155.17 104.96 L 155.18 103.94 C 155.18 103.03 154.45 102.28 153.53 102.27 C 152.62 102.27 151.87 103.00 151.86 103.92 Z M 151.85 104.96 L 151.85 105.96 C 151.86 106.88 152.60 107.63 153.52 107.62 C 154.44 107.62 155.19 106.87 155.18 105.95 L 155.18 104.95 C 155.17 104.03 154.43 103.28 153.51 103.29 C 152.59 103.29 151.84 104.04 151.85 104.96 Z M 151.84 105.98 L 151.86 106.99 C 151.87 107.91 152.62 108.66 153.55 108.65 C 154.47 108.64 155.21 107.88 155.20 106.96 L 155.19 105.94 C 155.18 105.02 154.42 104.28 153.50 104.29 C 152.58 104.30 151.83 105.05 151.84 105.98 Z M 151.85 107.00 L 151.87 108.02 C 151.88 108.95 152.65 109.69 153.57 109.67 C 154.50 109.66 155.24 108.89 155.22 107.97 L 155.20 106.95 C 155.19 106.02 154.43 105.28 153.50 105.30 C 152.58 105.31 151.84 106.07 151.85 107.00 Z M 151.86 108.03 L 151.89 109.03 C 151.91 109.95 152.68 110.69 153.61 110.67 C 154.54 110.64 155.27 109.87 155.25 108.95 L 155.22 107.95 C 155.20 107.03 154.43 106.29 153.50 106.31 C 152.58 106.34 151.84 107.11 151.86 108.03 Z M 151.89 109.04 L 151.92 110.02 C 151.95 110.95 152.73 111.68 153.66 111.65 C 154.59 111.62 155.31 110.84 155.28 109.91 L 155.25 108.93 C 155.22 108.00 154.44 107.27 153.51 107.30 C 152.58 107.34 151.85 108.11 151.89 109.04 Z M 151.92 110.04 L 151.96 111.02 C 152.00 111.95 152.79 112.67 153.72 112.63 C 154.65 112.59 155.37 111.80 155.33 110.87 L 155.29 109.89 C 155.24 108.96 154.46 108.24 153.53 108.28 C 152.59 108.32 151.87 109.11 151.92 110.04 Z M 151.96 111.04 L 152.01 112.04 C 152.07 112.97 152.87 113.68 153.80 113.63 C 154.73 113.57 155.44 112.78 155.39 111.84 L 155.33 110.85 C 155.28 109.92 154.48 109.20 153.55 109.26 C 152.62 109.31 151.90 110.11 151.96 111.04 Z M 152.01 112.06 L 152.08 113.00 C 152.14 113.94 152.95 114.64 153.88 114.57 C 154.82 114.51 155.52 113.70 155.45 112.77 L 155.39 111.82 C 155.32 110.89 154.52 110.19 153.58 110.25 C 152.65 110.32 151.95 111.12 152.01 112.06 Z M 152.08 113.02 L 152.15 113.96 C 152.23 114.89 153.04 115.59 153.98 115.52 C 154.91 115.44 155.60 114.63 155.53 113.69 L 155.46 112.75 C 155.38 111.82 154.57 111.12 153.63 111.20 C 152.70 111.27 152.00 112.09 152.08 113.02 Z M 152.15 113.97 L 152.23 114.94 C 152.32 115.88 153.14 116.57 154.07 116.49 C 155.01 116.41 155.70 115.58 155.62 114.65 L 155.53 113.68 C 155.45 112.75 154.63 112.06 153.69 112.14 C 152.76 112.22 152.07 113.04 152.15 113.97 Z M 152.23 114.95 L 152.33 115.95 C 152.41 116.88 153.24 117.57 154.17 117.48 C 155.11 117.40 155.79 116.57 155.71 115.64 L 155.62 114.64 C 155.53 113.71 154.70 113.02 153.77 113.10 C 152.84 113.19 152.15 114.02 152.23 114.95 Z M 152.32 115.95 L 152.42 116.97 C 152.51 117.91 153.34 118.60 154.27 118.51 C 155.21 118.42 155.90 117.59 155.81 116.65 L 155.71 115.63 C 155.62 114.70 154.79 114.01 153.86 114.10 C 152.92 114.19 152.24 115.02 152.32 115.95 Z M 152.42 116.98 L 152.52 118.02 C 152.61 118.96 153.44 119.65 154.38 119.56 C 155.31 119.47 156.00 118.64 155.91 117.70 L 155.81 116.65 C 155.72 115.72 154.89 115.03 153.95 115.12 C 153.02 115.21 152.33 116.04 152.42 116.98 Z M 152.52 118.02 L 152.62 119.06 C 152.70 120.00 153.54 120.69 154.47 120.60 C 155.41 120.51 156.10 119.68 156.01 118.74 L 155.91 117.70 C 155.82 116.76 154.99 116.08 154.05 116.17 C 153.12 116.25 152.43 117.09 152.52 118.02 Z M 152.61 119.06 L 152.70 120.00 C 152.79 120.93 153.62 121.62 154.56 121.54 C 155.50 121.45 156.19 120.62 156.10 119.68 L 156.01 118.74 C 155.92 117.81 155.09 117.12 154.15 117.20 C 153.22 117.29 152.53 118.12 152.61 119.06 Z M 152.70 119.99 L 152.79 120.95 C 152.87 121.89 153.70 122.58 154.64 122.49 C 155.58 122.41 156.27 121.58 156.19 120.64 L 156.10 119.68 C 156.01 118.75 155.18 118.05 154.24 118.14 C 153.31 118.22 152.61 119.06 152.70 119.99 Z M 152.79 120.95 L 152.87 121.92 C 152.96 122.86 153.79 123.55 154.73 123.47 C 155.67 123.39 156.36 122.56 156.27 121.62 L 156.19 120.64 C 156.10 119.70 155.27 119.01 154.33 119.09 C 153.40 119.18 152.70 120.01 152.79 120.95 Z M 152.87 121.92 L 152.96 122.91 C 153.04 123.85 153.87 124.55 154.81 124.46 C 155.75 124.38 156.45 123.55 156.36 122.61 L 156.28 121.62 C 156.19 120.68 155.36 119.98 154.42 120.07 C 153.48 120.15 152.79 120.98 152.87 121.92 Z M 152.96 122.91 L 153.05 123.92 C 153.13 124.86 153.95 125.56 154.89 125.48 C 155.83 125.40 156.53 124.57 156.45 123.63 L 156.36 122.62 C 156.28 121.68 155.46 120.98 154.51 121.06 C 153.57 121.14 152.88 121.97 152.96 122.91 Z M 153.04 123.92 L 153.13 124.95 C 153.21 125.89 154.04 126.59 154.98 126.51 C 155.92 126.43 156.62 125.61 156.54 124.67 L 156.45 123.63 C 156.37 122.69 155.55 121.99 154.60 122.07 C 153.66 122.15 152.97 122.98 153.04 123.92 Z M 153.13 124.95 L 153.22 126.00 C 153.30 126.95 154.12 127.65 155.06 127.57 C 156.01 127.49 156.71 126.66 156.63 125.72 L 156.54 124.67 C 156.46 123.73 155.64 123.03 154.69 123.10 C 153.75 123.18 153.05 124.01 153.13 124.95 Z M 153.22 126.00 L 153.30 127.01 C 153.37 127.95 154.20 128.65 155.14 128.58 C 156.08 128.50 156.79 127.67 156.71 126.73 L 156.63 125.73 C 156.55 124.78 155.73 124.08 154.78 124.16 C 153.84 124.23 153.14 125.06 153.22 126.00 Z M 153.30 127.01 L 153.38 127.99 C 153.45 128.93 154.28 129.63 155.22 129.56 C 156.16 129.48 156.86 128.66 156.79 127.72 L 156.71 126.74 C 156.64 125.79 155.81 125.09 154.87 125.16 C 153.93 125.24 153.22 126.06 153.30 127.01 Z M 153.38 127.99 L 153.45 128.98 C 153.53 129.92 154.35 130.63 155.29 130.55 C 156.23 130.48 156.94 129.66 156.87 128.72 L 156.79 127.72 C 156.72 126.78 155.89 126.07 154.95 126.15 C 154.01 126.22 153.30 127.04 153.38 127.99 Z M 153.45 128.98 L 153.53 129.98 C 153.60 130.92 154.42 131.63 155.36 131.56 C 156.31 131.49 157.01 130.66 156.94 129.72 L 156.87 128.72 C 156.79 127.78 155.97 127.07 155.03 127.14 C 154.09 127.21 153.38 128.03 153.45 128.98 Z M 153.53 129.97 L 153.60 130.98 C 153.67 131.92 154.49 132.63 155.43 132.56 C 156.37 132.50 157.08 131.68 157.01 130.73 L 156.94 129.73 C 156.87 128.78 156.05 128.07 155.11 128.14 C 154.17 128.21 153.46 129.03 153.53 129.97 Z M 153.60 130.97 L 153.67 131.98 C 153.74 132.93 154.55 133.64 155.50 133.57 C 156.44 133.51 157.15 132.69 157.08 131.75 L 157.01 130.74 C 156.95 129.80 156.13 129.08 155.19 129.15 C 154.25 129.22 153.54 130.03 153.60 130.97 Z M 153.67 131.98 L 153.74 132.98 C 153.80 133.93 154.61 134.64 155.56 134.58 C 156.50 134.52 157.21 133.70 157.15 132.76 L 157.08 131.75 C 157.02 130.81 156.21 130.10 155.27 130.16 C 154.32 130.22 153.61 131.03 153.67 131.98 Z M 153.74 132.98 L 153.80 133.98 C 153.86 134.92 154.67 135.64 155.61 135.58 C 156.55 135.52 157.27 134.71 157.21 133.77 L 157.15 132.77 C 157.09 131.82 156.28 131.11 155.34 131.16 C 154.40 131.22 153.68 132.03 153.74 132.98 Z M 153.80 133.97 L 153.85 134.97 C 153.91 135.91 154.72 136.64 155.66 136.58 C 156.60 136.53 157.32 135.72 157.27 134.78 L 157.21 133.78 C 157.16 132.83 156.35 132.11 155.41 132.16 C 154.46 132.22 153.74 133.03 153.80 133.97 Z M 153.85 134.96 L 153.91 135.99 C 153.96 136.93 154.76 137.65 155.70 137.61 C 156.65 137.56 157.37 136.75 157.32 135.81 L 157.27 134.79 C 157.22 133.84 156.42 133.12 155.47 133.17 C 154.53 133.22 153.81 134.02 153.85 134.96 Z M 153.91 135.98 L 153.96 136.99 C 154.00 137.93 154.80 138.66 155.74 138.62 C 156.69 138.57 157.41 137.77 157.37 136.83 L 157.32 135.82 C 157.28 134.87 156.48 134.15 155.53 134.19 C 154.59 134.24 153.86 135.04 153.91 135.98 Z M 153.96 136.98 L 154.00 137.99 C 154.04 138.93 154.84 139.66 155.78 139.62 C 156.72 139.58 157.45 138.79 157.41 137.84 L 157.37 136.84 C 157.33 135.90 156.53 135.17 155.59 135.21 C 154.65 135.25 153.92 136.04 153.96 136.98 Z M 154.00 137.98 L 154.04 138.98 C 154.08 139.92 154.87 140.65 155.81 140.62 C 156.75 140.58 157.49 139.79 157.45 138.85 L 157.41 137.85 C 157.37 136.91 156.58 136.17 155.64 136.21 C 154.70 136.25 153.96 137.04 154.00 137.98 Z M 154.04 138.97 L 154.07 139.96 C 154.11 140.90 154.90 141.64 155.84 141.61 C 156.78 141.58 157.51 140.79 157.48 139.85 L 157.45 138.85 C 157.42 137.91 156.63 137.18 155.69 137.21 C 154.74 137.24 154.01 138.03 154.04 138.97 Z M 154.08 139.96 L 154.11 140.95 C 154.14 141.89 154.92 142.62 155.86 142.59 C 156.80 142.57 157.54 141.78 157.51 140.84 L 157.48 139.85 C 157.45 138.91 156.67 138.17 155.73 138.20 C 154.78 138.23 154.05 139.02 154.08 139.96 Z M 154.11 140.94 L 154.14 141.92 C 154.16 142.86 154.95 143.60 155.89 143.58 C 156.82 143.55 157.57 142.77 157.54 141.83 L 157.51 140.84 C 157.48 139.90 156.70 139.16 155.76 139.19 C 154.82 139.22 154.08 140.00 154.11 140.94 Z M 154.14 141.92 L 154.16 142.91 C 154.19 143.84 154.97 144.59 155.91 144.56 C 156.85 144.54 157.59 143.76 157.56 142.82 L 157.54 141.83 C 157.51 140.89 156.73 140.15 155.79 140.18 C 154.85 140.20 154.11 140.98 154.14 141.92 Z M 154.16 142.90 L 154.19 143.90 C 154.21 144.84 154.99 145.59 155.93 145.56 C 156.86 145.54 157.61 144.76 157.58 143.82 L 157.56 142.82 C 157.54 141.88 156.76 141.14 155.82 141.16 C 154.88 141.19 154.14 141.96 154.16 142.90 Z M 154.19 143.90 L 154.21 144.90 C 154.23 145.84 155.01 146.58 155.94 146.56 C 156.88 146.54 157.62 145.77 157.60 144.83 L 157.58 143.83 C 157.56 142.89 156.79 142.15 155.85 142.17 C 154.91 142.19 154.17 142.96 154.19 143.90 Z M 154.21 144.90 L 154.23 145.90 C 154.25 146.84 155.03 147.58 155.96 147.56 C 156.90 147.54 157.64 146.77 157.62 145.84 L 157.60 144.83 C 157.58 143.90 156.81 143.16 155.87 143.17 C 154.94 143.19 154.20 143.96 154.21 144.90 Z M 154.24 145.90 L 154.25 146.90 C 154.27 147.83 155.04 148.58 155.97 148.56 C 156.91 148.54 157.65 147.77 157.64 146.84 L 157.62 145.84 C 157.60 144.91 156.83 144.16 155.90 144.18 C 154.96 144.19 154.22 144.96 154.24 145.90 Z M 154.26 146.89 L 154.27 147.89 C 154.29 148.83 155.05 149.57 155.99 149.56 C 156.92 149.54 157.66 148.78 157.65 147.84 L 157.63 146.84 C 157.62 145.91 156.85 145.17 155.92 145.18 C 154.99 145.20 154.24 145.96 154.26 146.89 Z M 154.27 147.89 L 154.29 148.89 C 154.30 149.82 155.06 150.56 156.00 150.55 C 156.93 150.54 157.67 149.78 157.66 148.85 L 157.64 147.85 C 157.63 146.92 156.87 146.17 155.94 146.18 C 155.01 146.20 154.26 146.96 154.27 147.89 Z M 154.29 148.89 L 154.30 149.88 C 154.31 150.81 155.07 151.56 156.00 151.55 C 156.93 151.54 157.68 150.77 157.67 149.85 L 157.66 148.85 C 157.65 147.92 156.88 147.17 155.95 147.19 C 155.03 147.20 154.28 147.96 154.29 148.89 Z M 154.30 149.88 L 154.31 150.88 C 154.32 151.81 155.08 152.55 156.01 152.54 C 156.94 152.53 157.68 151.78 157.67 150.85 L 157.66 149.85 C 157.66 148.92 156.90 148.18 155.97 148.18 C 155.04 148.19 154.30 148.95 154.30 149.88 Z M 154.32 150.88 L 154.32 151.89 C 154.33 152.82 155.09 153.56 156.01 153.55 C 156.94 153.55 157.68 152.79 157.68 151.87 L 157.67 150.85 C 157.66 149.93 156.91 149.18 155.98 149.19 C 155.06 149.19 154.31 149.95 154.32 150.88 Z M 154.33 151.89 L 154.33 152.90 C 154.34 153.82 155.09 154.57 156.01 154.56 C 156.94 154.56 157.68 153.81 157.68 152.88 L 157.67 151.87 C 157.67 150.95 156.92 150.20 155.99 150.21 C 155.07 150.21 154.32 150.96 154.33 151.89 Z M 154.34 152.90 L 154.34 153.90 C 154.34 154.83 155.09 155.57 156.02 155.57 C 156.94 155.56 157.68 154.81 157.68 153.89 L 157.67 152.89 C 157.67 151.96 156.92 151.22 156.00 151.22 C 155.08 151.23 154.33 151.98 154.34 152.90 Z M 154.34 153.90 L 154.35 154.91 C 154.35 155.82 155.10 156.57 156.02 156.57 C 156.93 156.56 157.68 155.82 157.68 154.90 L 157.67 153.90 C 157.67 152.98 156.92 152.23 156.01 152.23 C 155.09 152.24 154.34 152.98 154.34 153.90 Z M 154.35 154.90 L 154.35 155.90 C 154.35 156.82 155.10 157.56 156.01 157.56 C 156.93 157.56 157.67 156.81 157.67 155.90 L 157.67 154.90 C 157.67 153.98 156.93 153.24 156.01 153.24 C 155.09 153.24 154.35 153.99 154.35 154.90 Z M 154.36 155.90 L 154.36 156.89 C 154.36 157.81 155.10 158.55 156.01 158.55 C 156.93 158.55 157.67 157.80 157.67 156.89 L 157.67 155.90 C 157.67 154.98 156.93 154.24 156.01 154.24 C 155.10 154.24 154.36 154.99 154.36 155.90 Z M 154.36 156.89 L 154.36 157.87 C 154.36 158.79 155.10 159.52 156.01 159.52 C 156.93 159.52 157.67 158.78 157.67 157.87 L 157.67 156.89 C 157.67 155.98 156.93 155.24 156.01 155.24 C 155.10 155.24 154.36 155.98 154.36 156.89 Z M 154.37 157.87 L 154.37 158.88 C 154.37 159.79 155.10 160.52 156.01 160.52 C 156.92 160.52 157.66 159.79 157.66 158.88 L 157.66 157.87 C 157.66 156.96 156.92 156.22 156.01 156.22 C 155.10 156.22 154.37 156.96 154.37 157.87 Z M 154.37 158.88 L 154.37 159.90 C 154.37 160.81 155.11 161.55 156.01 161.55 C 156.92 161.55 157.66 160.81 157.66 159.90 L 157.66 158.88 C 157.66 157.97 156.92 157.23 156.01 157.23 C 155.11 157.23 154.37 157.97 154.37 158.88 Z M 154.37 159.90 L 154.37 160.92 C 154.37 161.83 155.11 162.56 156.01 162.56 C 156.92 162.56 157.65 161.83 157.65 160.92 L 157.65 159.90 C 157.65 159.00 156.92 158.26 156.01 158.26 C 155.11 158.26 154.37 159.00 154.37 159.90 Z M 154.38 160.92 L 154.38 161.93 C 154.38 162.83 155.11 163.56 156.01 163.56 C 156.92 163.56 157.65 162.83 157.65 161.93 L 157.65 160.92 C 157.65 160.02 156.92 159.28 156.01 159.28 C 155.11 159.28 154.38 160.02 154.38 160.92 Z M 154.38 161.93 L 154.38 162.92 C 154.38 163.82 155.11 164.55 156.01 164.55 C 156.91 164.55 157.65 163.82 157.65 162.92 L 157.65 161.93 C 157.65 161.02 156.91 160.29 156.01 160.29 C 155.11 160.29 154.38 161.02 154.38 161.93 Z M 154.39 162.92 L 154.39 163.91 C 154.39 164.81 155.11 165.54 156.01 165.54 C 156.91 165.54 157.64 164.81 157.64 163.91 L 157.64 162.92 C 157.64 162.02 156.91 161.30 156.01 161.30 C 155.11 161.30 154.39 162.02 154.39 162.92 Z M 154.39 163.91 L 154.39 164.89 C 154.39 165.78 155.12 166.51 156.01 166.51 C 156.91 166.51 157.64 165.78 157.64 164.89 L 157.64 163.91 C 157.64 163.01 156.91 162.29 156.01 162.29 C 155.12 162.29 154.39 163.01 154.39 163.91 Z M 154.39 164.89 L 154.39 165.86 C 154.39 166.76 155.12 167.48 156.01 167.48 C 156.91 167.48 157.63 166.76 157.63 165.86 L 157.63 164.89 C 157.63 163.99 156.91 163.27 156.01 163.27 C 155.12 163.27 154.39 163.99 154.39 164.89 Z M 154.40 165.86 L 154.40 166.88 C 154.40 167.77 155.12 168.49 156.01 168.49 C 156.90 168.49 157.63 167.77 157.63 166.88 L 157.63 165.86 C 157.63 164.97 156.90 164.25 156.01 164.25 C 155.12 164.25 154.40 164.97 154.40 165.86 Z M 154.41 166.88 L 154.41 167.89 C 154.41 168.77 155.13 169.49 156.02 169.49 C 156.90 169.49 157.62 168.77 157.62 167.89 L 157.62 166.88 C 157.62 165.99 156.90 165.27 156.01 165.27 C 155.12 165.27 154.41 165.99 154.41 166.88 Z M 154.41 167.89 L 154.41 168.89 C 154.42 169.77 155.13 170.49 156.02 170.49 C 156.90 170.49 157.62 169.77 157.62 168.88 L 157.62 167.88 C 157.61 167.00 156.90 166.28 156.01 166.29 C 155.13 166.29 154.41 167.00 154.41 167.89 Z M 154.42 168.89 L 154.42 169.89 C 154.43 170.77 155.14 171.48 156.02 171.48 C 156.90 171.47 157.62 170.76 157.61 169.88 L 157.61 168.88 C 157.61 168.00 156.89 167.29 156.01 167.29 C 155.13 167.29 154.42 168.01 154.42 168.89 Z M 154.43 169.89 L 154.43 170.88 C 154.44 171.76 155.15 172.47 156.03 172.46 C 156.91 172.46 157.62 171.74 157.61 170.87 L 157.61 169.87 C 157.60 169.00 156.89 168.29 156.01 168.29 C 155.13 168.30 154.43 169.01 154.43 169.89 Z M 154.44 170.88 L 154.45 171.88 C 154.45 172.75 155.17 173.45 156.04 173.45 C 156.91 173.44 157.62 172.73 157.61 171.85 L 157.61 170.86 C 157.60 169.99 156.89 169.29 156.01 169.29 C 155.14 169.30 154.44 170.01 154.44 170.88 Z M 154.45 171.88 L 154.46 172.89 C 154.47 173.76 155.18 174.46 156.05 174.45 C 156.92 174.45 157.62 173.73 157.61 172.86 L 157.61 171.85 C 157.60 170.98 156.89 170.28 156.02 170.29 C 155.14 170.30 154.45 171.01 154.45 171.88 Z M 154.47 172.90 L 154.48 173.95 C 154.49 174.82 155.21 175.51 156.07 175.50 C 156.94 175.49 157.63 174.78 157.62 173.91 L 157.61 172.86 C 157.60 171.99 156.89 171.30 156.02 171.31 C 155.15 171.32 154.46 172.03 154.47 172.90 Z M 154.49 173.96 L 154.51 175.00 C 154.52 175.86 155.23 176.55 156.09 176.54 C 156.96 176.52 157.64 175.81 157.63 174.95 L 157.61 173.91 C 157.60 173.04 156.89 172.36 156.03 172.37 C 155.16 172.38 154.48 173.09 154.49 173.96 Z M 154.51 175.01 L 154.54 176.03 C 154.55 176.89 155.26 177.57 156.12 177.56 C 156.98 177.54 157.66 176.83 157.64 175.97 L 157.62 174.94 C 157.61 174.09 156.90 173.40 156.04 173.42 C 155.18 173.44 154.50 174.15 154.51 175.01 Z M 154.54 176.04 L 154.57 177.04 C 154.59 177.89 155.30 178.57 156.16 178.55 C 157.01 178.52 157.69 177.81 157.66 176.96 L 157.64 175.96 C 157.62 175.11 156.90 174.43 156.05 174.45 C 155.20 174.48 154.52 175.19 154.54 176.04 Z M 154.58 177.05 L 154.61 178.01 C 154.64 178.86 155.35 179.53 156.20 179.50 C 157.05 179.47 157.72 178.76 157.69 177.91 L 157.66 176.95 C 157.63 176.10 156.92 175.43 156.07 175.46 C 155.22 175.49 154.55 176.20 154.58 177.05 Z M 154.62 178.02 L 154.65 178.93 C 154.69 179.78 155.40 180.44 156.25 180.40 C 157.09 180.37 157.75 179.66 157.72 178.81 L 157.68 177.90 C 157.65 177.05 156.93 176.39 156.09 176.43 C 155.24 176.46 154.58 177.17 154.62 178.02 Z M 154.66 178.95 L 154.72 180.06 C 154.76 180.90 155.48 181.55 156.32 181.50 C 157.16 181.46 157.81 180.74 157.77 179.90 L 157.71 178.79 C 157.67 177.95 156.95 177.30 156.11 177.35 C 155.26 177.39 154.62 178.11 154.66 178.95 Z M 154.72 180.08 L 154.79 181.13 C 154.85 181.97 155.57 182.61 156.41 182.55 C 157.25 182.50 157.89 181.77 157.83 180.93 L 157.76 179.88 C 157.71 179.04 156.98 178.40 156.14 178.46 C 155.30 178.51 154.67 179.24 154.72 180.08 Z M 154.80 181.16 L 154.88 182.14 C 154.95 182.98 155.68 183.60 156.52 183.53 C 157.36 183.46 157.98 182.73 157.91 181.89 L 157.83 180.91 C 157.76 180.07 157.02 179.45 156.19 179.52 C 155.35 179.59 154.73 180.32 154.80 181.16 Z M 154.89 182.17 L 154.98 183.10 C 155.06 183.93 155.81 184.54 156.64 184.45 C 157.47 184.37 158.08 183.63 158.00 182.79 L 157.90 181.86 C 157.82 181.03 157.08 180.42 156.24 180.51 C 155.41 180.59 154.80 181.33 154.89 182.17 Z M 154.98 183.12 L 155.09 184.02 C 155.19 184.85 155.94 185.44 156.77 185.34 C 157.60 185.25 158.19 184.50 158.10 183.67 L 157.99 182.77 C 157.89 181.94 157.14 181.34 156.31 181.44 C 155.48 181.54 154.89 182.29 154.98 183.12 Z M 155.09 184.04 L 155.23 185.06 C 155.34 185.89 156.10 186.47 156.93 186.36 C 157.76 186.24 158.34 185.48 158.23 184.66 L 158.09 183.64 C 157.98 182.81 157.22 182.23 156.39 182.34 C 155.56 182.45 154.98 183.22 155.09 184.04 Z M 155.23 185.08 L 155.38 186.07 C 155.51 186.90 156.28 187.47 157.10 187.35 C 157.93 187.22 158.50 186.45 158.37 185.63 L 158.23 184.63 C 158.10 183.81 157.33 183.24 156.51 183.36 C 155.68 183.49 155.11 184.26 155.23 185.08 Z M 155.39 186.09 L 155.54 187.07 C 155.67 187.89 156.45 188.45 157.27 188.32 C 158.10 188.19 158.66 187.41 158.53 186.59 L 158.37 185.61 C 158.24 184.79 157.46 184.22 156.64 184.36 C 155.81 184.49 155.25 185.26 155.39 186.09 Z M 155.54 187.07 L 155.70 188.04 C 155.84 188.87 156.62 189.42 157.44 189.29 C 158.27 189.15 158.82 188.37 158.69 187.55 L 158.53 186.58 C 158.39 185.76 157.61 185.20 156.79 185.33 C 155.96 185.47 155.41 186.25 155.54 187.07 Z M 155.70 188.04 L 155.71 188.10 C 155.85 188.92 156.63 189.48 157.45 189.34 C 158.28 189.20 158.83 188.42 158.70 187.60 L 158.69 187.55 C 158.55 186.72 157.77 186.17 156.95 186.30 C 156.12 186.44 155.57 187.22 155.70 188.04 Z"
      fill="black"
      fill-rule="nonzero" /></svg>