<svg xmlns="http://www.w3.org/2000/svg" width="300" height="300" viewBox="0 0 300 300">
<path d="M 131.58 96.49 L 130.47 96.18 C 129.62 95.94 128.74 96.42 128.50 97.27 C 128.26 98.11 128.75 98.99 129.59 99.23 L 130.71 99.55 C 131.55 99.79 132.43 99.30 132.67 98.46 C 132.91 97.61 132.42 96.74 131.58 96.49 Z M 130.24 96.11 L 129.25 95.98 C 128.37 95.86 127.56 96.48 127.44 97.36 C 127.33 98.24 127.94 99.04 128.82 99.16 L 129.82 99.30 C 130.70 99.41 131.50 98.80 131.62 97.92 C 131.74 97.04 131.12 96.23 130.24 96.11 Z M 128.56 96.02 L 127.80 96.25 C 126.94 96.52 126.46 97.43 126.73 98.28 C 126.99 99.14 127.90 99.62 128.76 99.36 L 129.51 99.12 C 130.37 98.86 130.85 97.95 130.59 97.09 C 130.32 96.24 129.41 95.76 128.56 96.02 Z M 126.89 96.94 L 126.47 97.62 C 126.00 98.38 126.23 99.39 127.00 99.86 C 127.76 100.34 128.77 100.11 129.24 99.34 L 129.66 98.67 C 130.14 97.90 129.91 96.89 129.14 96.42 C 128.37 95.94 127.37 96.18 126.89 96.94 Z M 126.25 98.20 L 126.08 99.19 C 125.92 100.08 126.52 100.92 127.41 101.08 C 128.29 101.23 129.14 100.64 129.30 99.75 L 129.47 98.76 C 129.62 97.87 129.03 97.02 128.14 96.87 C 127.25 96.71 126.40 97.31 126.25 98.20 Z M 126.05 99.47 L 126.05 100.59 C 126.05 101.49 126.78 102.22 127.68 102.22 C 128.59 102.23 129.32 101.50 129.32 100.59 L 129.32 99.47 C 129.32 98.57 128.59 97.83 127.69 97.83 C 126.78 97.83 126.05 98.56 126.05 99.47 Z M 126.06 100.74 L 126.16 101.82 C 126.24 102.72 127.03 103.38 127.93 103.29 C 128.83 103.21 129.49 102.42 129.41 101.52 L 129.31 100.44 C 129.23 99.54 128.43 98.88 127.54 98.96 C 126.64 99.05 125.97 99.84 126.06 100.74 Z M 126.18 101.95 L 126.35 102.94 C 126.51 103.83 127.35 104.42 128.24 104.27 C 129.12 104.11 129.72 103.27 129.56 102.38 L 129.39 101.39 C 129.23 100.50 128.39 99.91 127.50 100.06 C 126.62 100.22 126.02 101.06 126.18 101.95 Z M 126.39 103.08 L 126.64 104.01 C 126.87 104.88 127.76 105.39 128.62 105.16 C 129.49 104.93 130.01 104.04 129.77 103.18 L 129.53 102.24 C 129.29 101.38 128.40 100.86 127.54 101.09 C 126.67 101.32 126.16 102.21 126.39 103.08 Z M 126.68 104.14 L 127.02 105.06 C 127.32 105.90 128.25 106.33 129.09 106.03 C 129.93 105.72 130.36 104.80 130.06 103.96 L 129.73 103.04 C 129.42 102.20 128.49 101.77 127.65 102.07 C 126.82 102.38 126.38 103.30 126.68 104.14 Z M 127.07 105.17 L 127.48 106.08 C 127.85 106.88 128.80 107.24 129.61 106.88 C 130.42 106.51 130.78 105.56 130.41 104.75 L 130.00 103.84 C 129.63 103.03 128.68 102.67 127.87 103.04 C 127.06 103.41 126.70 104.36 127.07 105.17 Z M 127.54 106.16 L 128.01 107.05 C 128.42 107.83 129.39 108.12 130.17 107.71 C 130.95 107.29 131.24 106.32 130.83 105.54 L 130.36 104.66 C 129.94 103.88 128.97 103.59 128.19 104.00 C 127.41 104.42 127.12 105.39 127.54 106.16 Z M 128.06 107.11 L 128.57 107.97 C 129.02 108.72 130.00 108.97 130.75 108.52 C 131.50 108.06 131.75 107.09 131.29 106.34 L 130.78 105.48 C 130.33 104.73 129.35 104.48 128.60 104.93 C 127.85 105.39 127.61 106.36 128.06 107.11 Z M 128.62 108.02 L 129.17 108.85 C 129.65 109.57 130.62 109.77 131.35 109.29 C 132.07 108.81 132.27 107.84 131.79 107.11 L 131.25 106.29 C 130.77 105.56 129.79 105.36 129.07 105.84 C 128.34 106.32 128.14 107.30 128.62 108.02 Z M 129.22 108.90 L 129.82 109.71 C 130.33 110.40 131.30 110.55 132.00 110.04 C 132.69 109.53 132.84 108.55 132.33 107.86 L 131.74 107.05 C 131.22 106.36 130.25 106.21 129.55 106.72 C 128.86 107.23 128.71 108.21 129.22 108.90 Z M 129.88 109.77 L 130.53 110.55 C 131.07 111.21 132.05 111.30 132.70 110.76 C 133.36 110.21 133.45 109.24 132.91 108.58 L 132.26 107.80 C 131.72 107.14 130.75 107.05 130.09 107.59 C 129.43 108.14 129.34 109.11 129.88 109.77 Z M 130.60 110.61 L 131.28 111.34 C 131.86 111.96 132.83 111.99 133.45 111.41 C 134.06 110.83 134.09 109.86 133.52 109.25 L 132.84 108.52 C 132.26 107.90 131.29 107.87 130.67 108.45 C 130.06 109.03 130.02 110.00 130.60 110.61 Z M 131.37 111.40 L 132.10 112.09 C 132.71 112.66 133.67 112.62 134.24 112.01 C 134.81 111.40 134.78 110.44 134.17 109.87 L 133.43 109.18 C 132.82 108.61 131.86 108.65 131.29 109.26 C 130.72 109.87 130.75 110.83 131.37 111.40 Z M 132.20 112.15 L 132.98 112.77 C 133.63 113.29 134.58 113.18 135.09 112.53 C 135.61 111.89 135.50 110.94 134.85 110.43 L 134.07 109.80 C 133.42 109.29 132.48 109.39 131.96 110.04 C 131.44 110.69 131.55 111.63 132.20 112.15 Z M 133.10 112.84 L 133.94 113.39 C 134.62 113.85 135.55 113.66 136.00 112.97 C 136.45 112.29 136.26 111.36 135.58 110.91 L 134.74 110.36 C 134.05 109.91 133.13 110.10 132.68 110.78 C 132.23 111.47 132.41 112.39 133.10 112.84 Z M 134.06 113.45 L 134.94 113.93 C 135.66 114.31 136.56 114.04 136.94 113.32 C 137.32 112.60 137.05 111.71 136.33 111.32 L 135.45 110.85 C 134.73 110.47 133.84 110.74 133.46 111.46 C 133.07 112.18 133.34 113.07 134.06 113.45 Z M 135.07 113.97 L 135.99 114.36 C 136.73 114.68 137.59 114.33 137.90 113.58 C 138.22 112.84 137.87 111.98 137.13 111.67 L 136.21 111.28 C 135.47 110.96 134.61 111.31 134.29 112.05 C 133.98 112.80 134.33 113.66 135.07 113.97 Z M 136.11 114.39 L 137.05 114.70 C 137.81 114.95 138.63 114.53 138.88 113.77 C 139.12 113.00 138.71 112.19 137.94 111.94 L 137.01 111.63 C 136.24 111.39 135.42 111.80 135.18 112.57 C 134.93 113.33 135.35 114.15 136.11 114.39 Z M 137.16 114.72 L 138.12 114.95 C 138.89 115.13 139.67 114.65 139.85 113.88 C 140.04 113.10 139.56 112.32 138.78 112.14 L 137.83 111.91 C 137.05 111.73 136.27 112.21 136.09 112.99 C 135.91 113.76 136.39 114.54 137.16 114.72 Z M 138.22 114.96 L 139.21 115.12 C 139.99 115.25 140.73 114.72 140.85 113.93 C 140.98 113.15 140.45 112.41 139.66 112.28 L 138.68 112.12 C 137.90 112.00 137.16 112.53 137.03 113.31 C 136.90 114.10 137.44 114.84 138.22 114.96 Z M 139.29 115.13 L 140.32 115.23 C 141.10 115.31 141.80 114.74 141.88 113.95 C 141.96 113.16 141.39 112.46 140.60 112.38 L 139.58 112.28 C 138.79 112.20 138.09 112.77 138.01 113.56 C 137.93 114.35 138.51 115.05 139.29 115.13 Z M 140.38 115.23 L 141.35 115.29 C 142.14 115.33 142.81 114.73 142.86 113.94 C 142.90 113.15 142.30 112.48 141.51 112.44 L 140.54 112.38 C 139.75 112.34 139.08 112.94 139.03 113.73 C 138.99 114.51 139.59 115.19 140.38 115.23 Z M 141.39 115.29 L 142.39 115.31 C 143.18 115.33 143.83 114.71 143.85 113.93 C 143.87 113.14 143.25 112.48 142.47 112.46 L 141.47 112.43 C 140.68 112.41 140.03 113.04 140.00 113.82 C 139.98 114.61 140.61 115.27 141.39 115.29 Z M 142.42 115.31 L 143.43 115.32 C 144.22 115.33 144.86 114.70 144.87 113.91 C 144.87 113.12 144.24 112.48 143.45 112.47 L 142.44 112.46 C 141.65 112.45 141.01 113.09 141.00 113.88 C 140.99 114.66 141.63 115.31 142.42 115.31 Z M 143.44 115.32 L 144.24 115.32 C 145.03 115.32 145.66 114.69 145.67 113.90 C 145.67 113.11 145.03 112.47 144.24 112.47 L 143.44 112.47 C 142.66 112.47 142.02 113.11 142.02 113.89 C 142.02 114.68 142.65 115.32 143.44 115.32 Z"
      fill="black"
      fill-rule="nonzero" /><path d="M 160.80 91.36 L 160.32 92.10 C 159.85 92.81 160.05 93.77 160.77 94.24 C 161.49 94.71 162.45 94.50 162.91 93.79 L 163.40 93.05 C 163.86 92.33 163.66 91.37 162.94 90.90 C 162.23 90.44 161.27 90.64 160.80 91.36 Z M 160.31 92.08 L 159.79 92.87 C 159.32 93.59 159.52 94.55 160.24 95.03 C 160.96 95.51 161.92 95.31 162.40 94.59 L 162.92 93.80 C 163.39 93.08 163.20 92.11 162.48 91.64 C 161.76 91.16 160.79 91.36 160.31 92.08 Z M 159.79 92.85 L 159.20 93.72 C 158.71 94.44 158.90 95.42 159.62 95.91 C 160.34 96.39 161.32 96.20 161.81 95.49 L 162.40 94.61 C 162.89 93.89 162.70 92.91 161.98 92.42 C 161.26 91.94 160.28 92.13 159.79 92.85 Z M 159.20 93.70 L 158.61 94.56 C 158.11 95.27 158.29 96.26 159.01 96.76 C 159.73 97.26 160.72 97.08 161.21 96.36 L 161.80 95.51 C 162.30 94.79 162.12 93.80 161.41 93.30 C 160.69 92.81 159.70 92.98 159.20 93.70 Z M 158.62 94.54 L 158.12 95.24 C 157.62 95.96 157.79 96.95 158.51 97.45 C 159.22 97.96 160.21 97.78 160.71 97.07 L 161.21 96.37 C 161.71 95.66 161.54 94.67 160.83 94.16 C 160.11 93.66 159.12 93.83 158.62 94.54 Z M 158.13 95.24 L 157.59 96.00 C 157.08 96.71 157.25 97.70 157.96 98.20 C 158.67 98.71 159.66 98.55 160.16 97.83 L 160.71 97.07 C 161.21 96.36 161.05 95.38 160.34 94.87 C 159.63 94.36 158.64 94.53 158.13 95.24 Z M 157.60 96.00 L 157.01 96.81 C 156.50 97.52 156.66 98.51 157.37 99.02 C 158.08 99.52 159.06 99.36 159.57 98.65 L 160.16 97.84 C 160.67 97.13 160.51 96.14 159.80 95.63 C 159.09 95.13 158.10 95.29 157.60 96.00 Z M 157.01 96.81 L 156.38 97.68 C 155.87 98.39 156.03 99.37 156.74 99.88 C 157.44 100.39 158.43 100.23 158.94 99.53 L 159.57 98.66 C 160.08 97.95 159.92 96.97 159.21 96.46 C 158.51 95.95 157.52 96.11 157.01 96.81 Z M 156.39 97.68 L 155.72 98.61 C 155.21 99.31 155.36 100.29 156.07 100.80 C 156.77 101.31 157.76 101.16 158.26 100.45 L 158.93 99.53 C 159.44 98.83 159.29 97.84 158.58 97.33 C 157.88 96.82 156.90 96.98 156.39 97.68 Z M 155.72 98.61 L 155.11 99.45 C 154.60 100.15 154.75 101.13 155.46 101.64 C 156.16 102.15 157.14 102.00 157.65 101.30 L 158.26 100.45 C 158.77 99.75 158.61 98.77 157.91 98.26 C 157.21 97.75 156.23 97.91 155.72 98.61 Z M 155.11 99.45 L 154.53 100.25 C 154.02 100.95 154.18 101.93 154.88 102.44 C 155.58 102.95 156.55 102.79 157.06 102.09 L 157.64 101.29 C 158.15 100.59 158.00 99.62 157.30 99.11 C 156.60 98.60 155.62 98.75 155.11 99.45 Z M 154.54 100.25 L 153.94 101.07 C 153.44 101.77 153.59 102.74 154.28 103.25 C 154.98 103.76 155.96 103.60 156.46 102.91 L 157.06 102.09 C 157.56 101.39 157.41 100.42 156.71 99.91 C 156.02 99.41 155.04 99.56 154.54 100.25 Z M 153.95 101.07 L 153.35 101.90 C 152.84 102.59 152.99 103.56 153.68 104.07 C 154.38 104.57 155.35 104.42 155.86 103.73 L 156.46 102.90 C 156.96 102.21 156.81 101.24 156.12 100.73 C 155.43 100.23 154.45 100.38 153.95 101.07 Z M 153.35 101.90 L 152.75 102.72 C 152.24 103.41 152.39 104.38 153.08 104.89 C 153.77 105.39 154.74 105.24 155.25 104.55 L 155.85 103.73 C 156.35 103.04 156.20 102.07 155.51 101.56 C 154.82 101.06 153.86 101.21 153.35 101.90 Z M 152.75 102.73 L 152.16 103.54 C 151.65 104.23 151.80 105.19 152.49 105.70 C 153.18 106.20 154.14 106.05 154.64 105.36 L 155.24 104.55 C 155.75 103.86 155.60 102.90 154.91 102.39 C 154.22 101.89 153.26 102.04 152.75 102.73 Z M 152.16 103.54 L 151.58 104.34 C 151.07 105.02 151.22 105.99 151.90 106.49 C 152.59 106.99 153.55 106.84 154.05 106.16 L 154.64 105.36 C 155.14 104.68 154.99 103.72 154.31 103.21 C 153.63 102.71 152.66 102.86 152.16 103.54 Z M 151.58 104.34 L 150.95 105.19 C 150.45 105.87 150.60 106.83 151.28 107.33 C 151.96 107.83 152.92 107.69 153.42 107.01 L 154.04 106.16 C 154.55 105.48 154.40 104.52 153.72 104.02 C 153.04 103.52 152.08 103.66 151.58 104.34 Z M 150.96 105.19 L 150.29 106.11 C 149.79 106.78 149.93 107.73 150.60 108.23 C 151.28 108.74 152.23 108.59 152.73 107.92 L 153.41 107.01 C 153.91 106.33 153.77 105.38 153.09 104.88 C 152.42 104.38 151.46 104.52 150.96 105.19 Z M 150.30 106.11 L 149.66 106.97 C 149.16 107.64 149.30 108.58 149.97 109.08 C 150.64 109.58 151.58 109.44 152.08 108.77 L 152.72 107.92 C 153.22 107.25 153.08 106.30 152.41 105.80 C 151.74 105.30 150.80 105.44 150.30 106.11 Z M 149.67 106.97 L 149.07 107.77 C 148.57 108.44 148.70 109.38 149.37 109.88 C 150.03 110.38 150.97 110.24 151.47 109.58 L 152.07 108.77 C 152.57 108.11 152.44 107.17 151.77 106.67 C 151.11 106.17 150.17 106.31 149.67 106.97 Z M 149.08 107.78 L 148.51 108.52 C 148.02 109.18 148.15 110.12 148.81 110.61 C 149.47 111.11 150.40 110.98 150.90 110.32 L 151.46 109.57 C 151.96 108.91 151.83 107.98 151.17 107.48 C 150.51 106.99 149.57 107.12 149.08 107.78 Z M 148.52 108.52 L 148.01 109.21 C 147.51 109.86 147.64 110.79 148.29 111.29 C 148.94 111.78 149.88 111.65 150.37 111.00 L 150.89 110.32 C 151.38 109.66 151.26 108.73 150.60 108.24 C 149.95 107.74 149.02 107.87 148.52 108.52 Z M 148.02 109.21 L 147.43 109.98 C 146.93 110.62 147.06 111.55 147.70 112.04 C 148.35 112.54 149.28 112.42 149.77 111.77 L 150.36 111.00 C 150.86 110.35 150.73 109.43 150.09 108.93 C 149.44 108.44 148.51 108.56 148.02 109.21 Z M 147.44 109.97 L 146.84 110.75 C 146.34 111.39 146.45 112.31 147.09 112.81 C 147.73 113.31 148.65 113.19 149.15 112.55 L 149.76 111.77 C 150.25 111.13 150.14 110.21 149.50 109.71 C 148.86 109.22 147.94 109.33 147.44 109.97 Z M 146.85 110.74 L 146.26 111.48 C 145.76 112.11 145.86 113.03 146.49 113.53 C 147.12 114.03 148.04 113.93 148.54 113.30 L 149.13 112.56 C 149.64 111.93 149.53 111.01 148.90 110.51 C 148.28 110.01 147.36 110.11 146.85 110.74 Z M 146.28 111.47 L 145.65 112.23 C 145.14 112.85 145.23 113.77 145.85 114.27 C 146.47 114.78 147.38 114.70 147.89 114.08 L 148.52 113.31 C 149.03 112.70 148.94 111.78 148.32 111.27 C 147.71 110.76 146.79 110.85 146.28 111.47 Z M 145.67 112.22 L 145.04 112.96 C 144.53 113.57 144.61 114.48 145.22 115.00 C 145.82 115.51 146.74 115.44 147.25 114.83 L 147.88 114.09 C 148.39 113.48 148.31 112.57 147.71 112.05 C 147.10 111.54 146.18 111.61 145.67 112.22 Z M 145.06 112.95 L 144.45 113.66 C 143.93 114.26 143.99 115.17 144.59 115.69 C 145.20 116.21 146.11 116.14 146.63 115.54 L 147.24 114.83 C 147.76 114.23 147.69 113.32 147.09 112.80 C 146.49 112.28 145.58 112.35 145.06 112.95 Z M 144.46 113.65 L 143.80 114.39 C 143.27 114.99 143.33 115.90 143.92 116.43 C 144.52 116.95 145.43 116.90 145.96 116.30 L 146.62 115.55 C 147.14 114.96 147.09 114.05 146.49 113.52 C 145.89 112.99 144.98 113.05 144.46 113.65 Z M 143.81 114.38 L 143.12 115.15 C 142.58 115.74 142.63 116.64 143.22 117.18 C 143.80 117.71 144.71 117.67 145.25 117.08 L 145.94 116.31 C 146.48 115.72 146.43 114.81 145.84 114.28 C 145.26 113.75 144.35 113.79 143.81 114.38 Z M 143.13 115.13 L 142.41 115.90 C 141.87 116.48 141.90 117.39 142.48 117.93 C 143.06 118.47 143.97 118.44 144.51 117.87 L 145.23 117.09 C 145.77 116.52 145.74 115.61 145.16 115.07 C 144.58 114.52 143.68 114.55 143.13 115.13 Z M 142.43 115.88 L 141.70 116.64 C 141.15 117.21 141.16 118.12 141.73 118.67 C 142.29 119.22 143.20 119.21 143.75 118.64 L 144.49 117.88 C 145.04 117.32 145.03 116.41 144.46 115.86 C 143.89 115.30 142.98 115.32 142.43 115.88 Z M 141.72 116.62 L 140.98 117.35 C 140.42 117.90 140.41 118.81 140.97 119.37 C 141.52 119.93 142.43 119.94 142.99 119.39 L 143.73 118.66 C 144.29 118.11 144.30 117.20 143.75 116.63 C 143.19 116.07 142.28 116.06 141.72 116.62 Z M 141.01 117.32 L 140.27 118.02 C 139.69 118.56 139.66 119.47 140.20 120.04 C 140.75 120.62 141.65 120.65 142.23 120.11 L 142.97 119.41 C 143.54 118.87 143.57 117.96 143.03 117.39 C 142.49 116.81 141.58 116.78 141.01 117.32 Z M 140.29 118.00 L 139.55 118.67 C 138.96 119.19 138.91 120.10 139.44 120.68 C 139.96 121.27 140.87 121.32 141.46 120.79 L 142.20 120.13 C 142.79 119.60 142.84 118.70 142.31 118.11 C 141.78 117.52 140.88 117.47 140.29 118.00 Z M 139.58 118.64 L 138.83 119.28 C 138.23 119.79 138.16 120.69 138.67 121.29 C 139.18 121.89 140.08 121.96 140.68 121.45 L 141.43 120.82 C 142.03 120.31 142.10 119.40 141.59 118.80 C 141.08 118.20 140.18 118.13 139.58 118.64 Z M 138.86 119.26 L 138.11 119.86 C 137.50 120.36 137.40 121.25 137.90 121.87 C 138.40 122.48 139.29 122.58 139.91 122.08 L 140.65 121.48 C 141.27 120.98 141.36 120.08 140.87 119.47 C 140.37 118.86 139.47 118.76 138.86 119.26 Z M 138.15 119.84 L 137.30 120.48 C 136.67 120.96 136.55 121.85 137.03 122.48 C 137.51 123.10 138.40 123.23 139.03 122.75 L 139.87 122.10 C 140.50 121.63 140.62 120.73 140.14 120.11 C 139.67 119.48 138.77 119.36 138.15 119.84 Z M 137.34 120.45 L 136.49 121.05 C 135.85 121.51 135.70 122.40 136.15 123.04 C 136.61 123.68 137.50 123.83 138.14 123.38 L 138.99 122.78 C 139.63 122.32 139.78 121.43 139.33 120.79 C 138.87 120.15 137.98 120.00 137.34 120.45 Z M 136.54 121.02 L 135.70 121.57 C 135.04 122.00 134.85 122.88 135.28 123.54 C 135.71 124.20 136.59 124.39 137.25 123.96 L 138.09 123.41 C 138.75 122.98 138.94 122.10 138.51 121.44 C 138.08 120.78 137.20 120.59 136.54 121.02 Z M 135.75 121.53 L 134.93 122.02 C 134.25 122.42 134.02 123.29 134.42 123.97 C 134.82 124.65 135.70 124.87 136.37 124.47 L 137.20 123.99 C 137.88 123.59 138.10 122.72 137.70 122.04 C 137.31 121.36 136.43 121.13 135.75 121.53 Z M 135.00 121.98 L 134.15 122.42 C 133.45 122.78 133.17 123.64 133.53 124.34 C 133.89 125.04 134.75 125.31 135.45 124.95 L 136.30 124.51 C 137.00 124.15 137.28 123.29 136.92 122.59 C 136.56 121.89 135.70 121.62 135.00 121.98 Z M 134.24 122.38 L 133.28 122.79 C 132.55 123.10 132.22 123.93 132.53 124.66 C 132.84 125.38 133.68 125.72 134.40 125.41 L 135.36 125.00 C 136.08 124.69 136.42 123.85 136.11 123.12 C 135.80 122.40 134.96 122.07 134.24 122.38 Z M 133.38 122.75 L 132.44 123.07 C 131.69 123.32 131.30 124.14 131.55 124.88 C 131.81 125.62 132.62 126.02 133.36 125.77 L 134.30 125.44 C 135.05 125.19 135.44 124.38 135.19 123.63 C 134.93 122.89 134.12 122.49 133.38 122.75 Z M 132.53 123.04 L 131.60 123.29 C 130.84 123.49 130.39 124.27 130.59 125.04 C 130.80 125.80 131.58 126.25 132.34 126.04 L 133.27 125.79 C 134.03 125.59 134.48 124.81 134.28 124.05 C 134.07 123.29 133.29 122.84 132.53 123.04 Z M 131.68 123.27 L 130.73 123.47 C 129.96 123.63 129.46 124.38 129.62 125.15 C 129.78 125.92 130.54 126.42 131.31 126.26 L 132.26 126.06 C 133.03 125.90 133.53 125.15 133.37 124.38 C 133.21 123.61 132.45 123.11 131.68 123.27 Z M 130.79 123.46 L 129.81 123.61 C 129.03 123.74 128.50 124.47 128.63 125.24 C 128.75 126.02 129.48 126.55 130.26 126.43 L 131.24 126.27 C 132.02 126.15 132.55 125.42 132.43 124.64 C 132.30 123.86 131.57 123.33 130.79 123.46 Z M 129.86 123.60 L 128.87 123.73 C 128.09 123.82 127.53 124.54 127.63 125.32 C 127.72 126.10 128.44 126.66 129.22 126.56 L 130.21 126.44 C 130.99 126.34 131.55 125.63 131.45 124.85 C 131.36 124.06 130.64 123.51 129.86 123.60 Z M 128.90 123.72 L 127.90 123.82 C 127.11 123.90 126.54 124.60 126.62 125.39 C 126.70 126.17 127.40 126.74 128.18 126.66 L 129.19 126.56 C 129.97 126.49 130.54 125.79 130.47 125.00 C 130.39 124.22 129.69 123.64 128.90 123.72 Z M 127.92 123.82 L 126.90 123.90 C 126.11 123.97 125.53 124.67 125.60 125.45 C 125.67 126.24 126.36 126.83 127.15 126.76 L 128.16 126.67 C 128.95 126.60 129.54 125.91 129.47 125.12 C 129.40 124.33 128.71 123.75 127.92 123.82 Z M 126.92 123.90 L 125.91 123.97 C 125.11 124.03 124.52 124.72 124.58 125.51 C 124.64 126.30 125.33 126.90 126.12 126.84 L 127.13 126.76 C 127.92 126.71 128.52 126.02 128.46 125.22 C 128.40 124.43 127.71 123.84 126.92 123.90 Z M 125.93 123.97 L 124.93 124.03 C 124.14 124.07 123.53 124.76 123.58 125.55 C 123.63 126.35 124.31 126.95 125.11 126.90 L 126.10 126.85 C 126.89 126.80 127.50 126.12 127.45 125.32 C 127.40 124.52 126.72 123.92 125.93 123.97 Z M 124.96 124.02 L 123.98 124.06 C 123.18 124.09 122.56 124.77 122.59 125.57 C 122.63 126.37 123.30 126.99 124.10 126.95 L 125.08 126.91 C 125.88 126.88 126.50 126.20 126.47 125.40 C 126.43 124.60 125.76 123.98 124.96 124.02 Z M 124.00 124.05 L 123.00 124.07 C 122.20 124.09 121.56 124.76 121.58 125.57 C 121.60 126.37 122.27 127.01 123.07 126.99 L 124.07 126.96 C 124.88 126.94 125.52 126.28 125.50 125.47 C 125.48 124.67 124.81 124.03 124.00 124.05 Z M 123.02 124.06 L 122.03 124.08 C 121.22 124.09 120.57 124.76 120.58 125.57 C 120.60 126.38 121.26 127.03 122.07 127.01 L 123.06 127.00 C 123.87 126.99 124.52 126.32 124.50 125.51 C 124.49 124.70 123.83 124.05 123.02 124.06 Z M 122.03 124.07 L 121.03 124.08 C 120.21 124.10 119.56 124.77 119.58 125.59 C 119.59 126.40 120.26 127.05 121.08 127.04 L 122.08 127.02 C 122.89 127.01 123.54 126.34 123.53 125.52 C 123.52 124.70 122.84 124.05 122.03 124.07 Z M 121.01 124.07 L 120.03 124.10 C 119.21 124.12 118.56 124.81 118.58 125.64 C 118.61 126.46 119.30 127.11 120.13 127.09 L 121.10 127.06 C 121.93 127.03 122.58 126.34 122.55 125.52 C 122.52 124.69 121.83 124.04 121.01 124.07 Z M 119.98 124.07 L 118.98 124.14 C 118.14 124.19 117.51 124.92 117.56 125.76 C 117.62 126.59 118.34 127.23 119.18 127.18 L 120.18 127.11 C 121.02 127.06 121.66 126.33 121.60 125.49 C 121.55 124.65 120.82 124.02 119.98 124.07 Z M 118.90 124.12 L 117.89 124.24 C 117.04 124.34 116.43 125.11 116.53 125.96 C 116.63 126.81 117.41 127.42 118.26 127.32 L 119.27 127.19 C 120.12 127.09 120.72 126.32 120.62 125.47 C 120.52 124.62 119.75 124.02 118.90 124.12 Z M 117.75 124.23 L 116.60 124.47 C 115.74 124.65 115.19 125.48 115.37 126.34 C 115.55 127.19 116.38 127.74 117.24 127.56 L 118.39 127.32 C 119.24 127.15 119.79 126.31 119.62 125.46 C 119.44 124.61 118.60 124.06 117.75 124.23 Z M 116.36 124.50 L 115.32 124.89 C 114.48 125.19 114.05 126.12 114.35 126.95 C 114.66 127.79 115.58 128.22 116.42 127.91 L 117.47 127.53 C 118.30 127.23 118.74 126.30 118.43 125.46 C 118.13 124.63 117.20 124.20 116.36 124.50 Z M 114.74 125.20 L 114.22 125.69 C 113.55 126.32 113.52 127.36 114.15 128.02 C 114.77 128.68 115.82 128.71 116.48 128.09 L 117.00 127.60 C 117.66 126.97 117.69 125.93 117.07 125.27 C 116.44 124.61 115.40 124.58 114.74 125.20 Z M 113.81 127.55 L 114.05 128.11 C 114.41 128.96 115.40 129.35 116.25 128.98 C 117.10 128.62 117.49 127.63 117.12 126.78 L 116.88 126.23 C 116.52 125.38 115.53 124.99 114.69 125.35 C 113.84 125.72 113.45 126.70 113.81 127.55 Z M 114.65 128.84 L 115.48 129.40 C 116.25 129.92 117.30 129.72 117.82 128.95 C 118.33 128.17 118.13 127.13 117.36 126.61 L 116.53 126.05 C 115.75 125.53 114.71 125.73 114.19 126.51 C 113.67 127.28 113.87 128.32 114.65 128.84 Z M 115.76 129.57 L 116.92 130.05 C 117.78 130.41 118.77 130.01 119.13 129.14 C 119.50 128.28 119.09 127.29 118.23 126.93 L 117.07 126.44 C 116.21 126.08 115.22 126.49 114.86 127.35 C 114.50 128.21 114.90 129.21 115.76 129.57 Z M 117.10 130.12 L 118.01 130.38 C 118.91 130.65 119.85 130.13 120.11 129.23 C 120.38 128.33 119.86 127.38 118.96 127.12 L 118.05 126.86 C 117.15 126.60 116.20 127.12 115.94 128.02 C 115.68 128.92 116.20 129.86 117.10 130.12 Z M 118.14 130.42 L 119.09 130.61 C 120.01 130.80 120.91 130.20 121.10 129.29 C 121.28 128.37 120.69 127.47 119.77 127.28 L 118.82 127.09 C 117.90 126.90 117.01 127.50 116.82 128.42 C 116.63 129.34 117.23 130.23 118.14 130.42 Z M 119.20 130.63 L 120.20 130.77 C 121.14 130.90 121.99 130.25 122.12 129.31 C 122.25 128.38 121.60 127.53 120.67 127.40 L 119.66 127.26 C 118.73 127.14 117.87 127.79 117.75 128.72 C 117.62 129.65 118.27 130.50 119.20 130.63 Z M 120.28 130.78 L 121.35 130.87 C 122.28 130.96 123.11 130.27 123.20 129.33 C 123.28 128.40 122.59 127.57 121.66 127.49 L 120.59 127.39 C 119.65 127.31 118.83 128.00 118.74 128.93 C 118.66 129.87 119.35 130.69 120.28 130.78 Z M 121.40 130.88 L 122.40 130.94 C 123.34 131.00 124.15 130.29 124.20 129.35 C 124.26 128.41 123.55 127.61 122.61 127.55 L 121.61 127.48 C 120.67 127.42 119.86 128.14 119.80 129.07 C 119.75 130.01 120.46 130.82 121.40 130.88 Z M 122.43 130.94 L 123.46 130.99 C 124.40 131.03 125.19 130.31 125.24 129.37 C 125.28 128.43 124.55 127.63 123.61 127.59 L 122.58 127.54 C 121.64 127.50 120.85 128.23 120.81 129.17 C 120.76 130.11 121.49 130.90 122.43 130.94 Z M 123.48 130.99 L 124.50 131.02 C 125.44 131.05 126.23 130.32 126.26 129.38 C 126.29 128.44 125.55 127.65 124.61 127.62 L 123.59 127.59 C 122.65 127.56 121.87 128.30 121.84 129.24 C 121.81 130.18 122.54 130.96 123.48 130.99 Z M 124.52 131.03 L 125.49 131.05 C 126.43 131.07 127.21 130.32 127.23 129.38 C 127.26 128.45 126.51 127.67 125.57 127.64 L 124.60 127.62 C 123.66 127.60 122.88 128.35 122.86 129.29 C 122.84 130.22 123.58 131.00 124.52 131.03 Z M 125.51 131.05 L 126.55 131.06 C 127.49 131.08 128.26 130.33 128.28 129.39 C 128.29 128.45 127.54 127.68 126.60 127.66 L 125.56 127.64 C 124.62 127.63 123.85 128.38 123.83 129.32 C 123.82 130.26 124.57 131.03 125.51 131.05 Z M 126.56 131.06 L 127.59 131.07 C 128.53 131.08 129.30 130.33 129.31 129.39 C 129.32 128.45 128.56 127.68 127.63 127.67 L 126.59 127.66 C 125.65 127.65 124.89 128.41 124.88 129.35 C 124.87 130.29 125.62 131.05 126.56 131.06 Z M 127.60 131.07 L 128.56 131.07 C 129.49 131.08 130.26 130.32 130.26 129.38 C 130.26 128.44 129.51 127.68 128.57 127.67 L 127.62 127.67 C 126.68 127.67 125.91 128.43 125.91 129.37 C 125.91 130.30 126.67 131.07 127.60 131.07 Z M 128.56 131.07 L 129.49 131.07 C 130.43 131.07 131.19 130.31 131.19 129.38 C 131.19 128.44 130.43 127.68 129.49 127.68 L 128.56 127.68 C 127.62 127.68 126.86 128.44 126.86 129.37 C 126.86 130.31 127.62 131.07 128.56 131.07 Z M 129.50 131.07 L 130.47 131.07 C 131.41 131.07 132.16 130.30 132.16 129.36 C 132.16 128.43 131.39 127.67 130.46 127.67 L 129.49 127.68 C 128.55 127.68 127.79 128.44 127.79 129.38 C 127.80 130.32 128.56 131.08 129.50 131.07 Z M 130.50 131.07 L 131.49 131.05 C 132.43 131.03 133.17 130.25 133.16 129.32 C 133.14 128.38 132.36 127.64 131.43 127.66 L 130.43 127.68 C 129.49 127.69 128.75 128.47 128.77 129.41 C 128.79 130.34 129.56 131.09 130.50 131.07 Z M 131.54 131.04 L 132.57 130.99 C 133.51 130.94 134.23 130.15 134.18 129.21 C 134.13 128.28 133.34 127.56 132.40 127.61 L 131.38 127.66 C 130.44 127.71 129.72 128.50 129.77 129.44 C 129.81 130.37 130.61 131.09 131.54 131.04 Z M 132.64 130.99 L 133.63 130.90 C 134.56 130.82 135.25 130.00 135.16 129.06 C 135.08 128.13 134.26 127.45 133.33 127.53 L 132.34 127.61 C 131.41 127.70 130.72 128.52 130.80 129.45 C 130.88 130.38 131.71 131.07 132.64 130.99 Z M 133.68 130.89 L 134.68 130.77 C 135.60 130.66 136.26 129.81 136.15 128.89 C 136.04 127.96 135.19 127.30 134.27 127.41 L 133.27 127.54 C 132.35 127.65 131.69 128.49 131.80 129.42 C 131.91 130.34 132.76 131.00 133.68 130.89 Z M 134.72 130.76 L 135.72 130.61 C 136.64 130.47 137.28 129.61 137.14 128.69 C 137.00 127.77 136.14 127.13 135.22 127.27 L 134.22 127.42 C 133.30 127.56 132.66 128.42 132.80 129.34 C 132.94 130.27 133.80 130.90 134.72 130.76 Z M 135.77 130.60 L 136.76 130.42 C 137.67 130.26 138.28 129.38 138.12 128.47 C 137.96 127.55 137.08 126.94 136.17 127.10 L 135.18 127.28 C 134.26 127.44 133.65 128.32 133.81 129.23 C 133.97 130.15 134.85 130.76 135.77 130.60 Z M 136.80 130.41 L 137.78 130.21 C 138.69 130.03 139.28 129.14 139.10 128.23 C 138.91 127.32 138.03 126.73 137.12 126.92 L 136.13 127.11 C 135.22 127.30 134.63 128.19 134.81 129.10 C 135.00 130.01 135.89 130.60 136.80 130.41 Z M 137.82 130.20 L 138.79 129.98 C 139.70 129.77 140.26 128.88 140.06 127.97 C 139.85 127.07 138.95 126.50 138.05 126.71 L 137.08 126.93 C 136.17 127.13 135.61 128.03 135.81 128.93 C 136.02 129.84 136.92 130.40 137.82 130.20 Z M 138.83 129.97 L 139.79 129.73 C 140.69 129.50 141.23 128.59 141.01 127.70 C 140.79 126.80 139.88 126.25 138.98 126.48 L 138.02 126.72 C 137.12 126.94 136.57 127.85 136.80 128.75 C 137.02 129.65 137.93 130.19 138.83 129.97 Z M 139.82 129.71 L 140.78 129.45 C 141.67 129.21 142.19 128.29 141.95 127.40 C 141.71 126.51 140.79 125.99 139.90 126.23 L 138.95 126.49 C 138.06 126.73 137.53 127.65 137.78 128.54 C 138.02 129.43 138.93 129.95 139.82 129.71 Z M 140.81 129.44 L 141.76 129.16 C 142.64 128.91 143.15 127.98 142.89 127.10 C 142.64 126.22 141.71 125.71 140.83 125.97 L 139.88 126.24 C 139.00 126.50 138.49 127.42 138.74 128.31 C 139.00 129.19 139.92 129.70 140.81 129.44 Z M 141.78 129.15 L 142.74 128.86 C 143.62 128.59 144.11 127.66 143.84 126.79 C 143.57 125.91 142.65 125.42 141.77 125.69 L 140.81 125.98 C 139.94 126.25 139.44 127.17 139.71 128.05 C 139.98 128.93 140.91 129.42 141.78 129.15 Z M 142.75 128.85 L 143.72 128.54 C 144.59 128.27 145.07 127.34 144.80 126.47 C 144.52 125.60 143.59 125.11 142.72 125.39 L 141.76 125.70 C 140.88 125.97 140.40 126.90 140.68 127.77 C 140.95 128.64 141.88 129.12 142.75 128.85 Z M 143.73 128.53 L 144.67 128.23 C 145.54 127.95 146.01 127.02 145.73 126.15 C 145.45 125.29 144.52 124.81 143.66 125.09 L 142.71 125.40 C 141.85 125.68 141.37 126.61 141.65 127.47 C 141.93 128.34 142.86 128.81 143.73 128.53 Z M 144.68 128.22 L 145.63 127.90 C 146.49 127.61 146.96 126.68 146.67 125.82 C 146.39 124.96 145.46 124.50 144.60 124.79 L 143.65 125.10 C 142.79 125.39 142.32 126.32 142.61 127.18 C 142.90 128.04 143.82 128.50 144.68 128.22 Z M 145.65 127.89 L 146.59 127.56 C 147.45 127.27 147.90 126.34 147.61 125.49 C 147.32 124.63 146.39 124.18 145.53 124.47 L 144.58 124.80 C 143.73 125.09 143.28 126.02 143.57 126.87 C 143.86 127.73 144.79 128.18 145.65 127.89 Z M 146.61 127.55 L 147.55 127.21 C 148.40 126.91 148.84 125.98 148.54 125.14 C 148.24 124.29 147.31 123.85 146.46 124.15 L 145.52 124.48 C 144.67 124.79 144.23 125.72 144.53 126.56 C 144.83 127.41 145.76 127.85 146.61 127.55 Z M 147.57 127.20 L 148.51 126.85 C 149.35 126.54 149.78 125.61 149.47 124.77 C 149.16 123.93 148.23 123.51 147.39 123.81 L 146.45 124.16 C 145.61 124.47 145.18 125.40 145.49 126.24 C 145.80 127.08 146.73 127.51 147.57 127.20 Z M 148.52 126.84 L 149.46 126.48 C 150.29 126.17 150.70 125.23 150.39 124.40 C 150.07 123.57 149.14 123.15 148.31 123.47 L 147.37 123.83 C 146.54 124.15 146.12 125.08 146.44 125.91 C 146.76 126.74 147.69 127.16 148.52 126.84 Z M 149.47 126.47 L 150.40 126.10 C 151.22 125.78 151.63 124.85 151.30 124.02 C 150.98 123.20 150.05 122.79 149.22 123.12 L 148.29 123.49 C 147.47 123.81 147.06 124.74 147.39 125.57 C 147.71 126.39 148.64 126.80 149.47 126.47 Z M 150.41 126.09 L 151.32 125.72 C 152.14 125.39 152.53 124.46 152.20 123.64 C 151.87 122.83 150.94 122.43 150.12 122.76 L 149.21 123.13 C 148.39 123.46 148.00 124.39 148.33 125.21 C 148.66 126.03 149.59 126.42 150.41 126.09 Z M 151.33 125.71 L 152.24 125.34 C 153.05 125.00 153.43 124.07 153.10 123.26 C 152.76 122.45 151.84 122.07 151.03 122.40 L 150.12 122.77 C 149.31 123.11 148.92 124.04 149.25 124.85 C 149.59 125.66 150.52 126.05 151.33 125.71 Z M 152.24 125.33 L 153.16 124.95 C 153.96 124.61 154.35 123.69 154.01 122.88 C 153.68 122.07 152.75 121.69 151.95 122.03 L 151.02 122.41 C 150.22 122.74 149.84 123.67 150.17 124.47 C 150.51 125.28 151.43 125.66 152.24 125.33 Z M 153.15 124.94 L 154.10 124.55 C 154.90 124.21 155.28 123.29 154.95 122.49 C 154.62 121.69 153.70 121.31 152.90 121.64 L 151.95 122.03 C 151.15 122.37 150.77 123.28 151.10 124.09 C 151.43 124.89 152.35 125.27 153.15 124.94 Z M 154.09 124.54 L 155.03 124.16 C 155.83 123.83 156.21 122.92 155.88 122.12 C 155.55 121.32 154.64 120.94 153.84 121.26 L 152.91 121.65 C 152.11 121.97 151.73 122.89 152.05 123.69 C 152.38 124.49 153.29 124.87 154.09 124.54 Z M 155.02 124.15 L 155.96 123.77 C 156.75 123.45 157.14 122.54 156.81 121.74 C 156.49 120.95 155.58 120.56 154.78 120.89 L 153.85 121.27 C 153.05 121.59 152.67 122.50 152.99 123.30 C 153.32 124.09 154.23 124.48 155.02 124.15 Z M 155.96 123.76 L 156.89 123.38 C 157.68 123.05 158.06 122.15 157.74 121.36 C 157.41 120.57 156.51 120.19 155.72 120.51 L 154.78 120.90 C 153.99 121.22 153.62 122.13 153.94 122.92 C 154.26 123.71 155.17 124.09 155.96 123.76 Z M 156.90 123.37 L 157.81 122.99 C 158.60 122.66 158.97 121.76 158.64 120.97 C 158.31 120.19 157.41 119.82 156.63 120.14 L 155.71 120.52 C 154.93 120.85 154.56 121.75 154.89 122.54 C 155.21 123.32 156.11 123.69 156.90 123.37 Z M 157.82 122.97 L 158.64 122.63 C 159.41 122.29 159.77 121.39 159.44 120.61 C 159.11 119.84 158.21 119.48 157.43 119.81 L 156.62 120.16 C 155.84 120.49 155.48 121.39 155.81 122.17 C 156.14 122.95 157.04 123.31 157.82 122.97 Z M 158.64 122.61 L 159.44 122.27 C 160.21 121.93 160.56 121.03 160.23 120.26 C 159.89 119.49 158.99 119.13 158.22 119.47 L 157.42 119.82 C 156.65 120.16 156.30 121.06 156.64 121.83 C 156.97 122.60 157.87 122.95 158.64 122.61 Z M 159.44 122.26 L 160.30 121.88 C 161.07 121.54 161.42 120.65 161.08 119.88 C 160.75 119.11 159.85 118.76 159.08 119.10 L 158.22 119.48 C 157.45 119.82 157.10 120.71 157.44 121.48 C 157.78 122.25 158.67 122.60 159.44 122.26 Z M 160.29 121.88 L 161.29 121.45 C 162.06 121.11 162.41 120.22 162.08 119.46 C 161.74 118.69 160.85 118.34 160.09 118.67 L 159.09 119.10 C 158.33 119.44 157.98 120.33 158.31 121.09 C 158.64 121.86 159.53 122.21 160.29 121.88 Z M 161.28 121.44 L 162.36 120.98 C 163.12 120.66 163.48 119.77 163.15 119.01 C 162.83 118.24 161.94 117.89 161.18 118.21 L 160.10 118.67 C 159.34 119.00 158.98 119.88 159.31 120.65 C 159.63 121.41 160.51 121.77 161.28 121.44 Z M 162.35 120.98 L 163.19 120.63 C 163.96 120.31 164.31 119.43 163.99 118.66 C 163.67 117.90 162.79 117.54 162.03 117.86 L 161.19 118.22 C 160.43 118.54 160.07 119.42 160.39 120.18 C 160.71 120.94 161.59 121.30 162.35 120.98 Z M 163.18 120.63 L 164.09 120.25 C 164.86 119.93 165.22 119.06 164.90 118.30 C 164.59 117.53 163.71 117.17 162.95 117.49 L 162.04 117.86 C 161.28 118.18 160.91 119.06 161.23 119.82 C 161.55 120.58 162.42 120.94 163.18 120.63 Z M 164.09 120.25 L 165.04 119.86 C 165.80 119.55 166.17 118.67 165.85 117.91 C 165.54 117.15 164.67 116.79 163.91 117.10 L 162.96 117.49 C 162.19 117.80 161.83 118.67 162.14 119.43 C 162.45 120.20 163.32 120.56 164.09 120.25 Z M 165.03 119.86 L 166.01 119.46 C 166.77 119.15 167.14 118.29 166.83 117.53 C 166.52 116.76 165.66 116.40 164.89 116.70 L 163.92 117.10 C 163.16 117.41 162.79 118.27 163.10 119.03 C 163.40 119.80 164.27 120.16 165.03 119.86 Z M 166.00 119.46 L 166.98 119.07 C 167.74 118.77 168.11 117.91 167.81 117.15 C 167.50 116.39 166.64 116.01 165.88 116.32 L 164.90 116.70 C 164.14 117.01 163.77 117.87 164.07 118.63 C 164.38 119.39 165.24 119.76 166.00 119.46 Z M 166.97 119.07 L 167.92 118.70 C 168.68 118.40 169.06 117.55 168.76 116.79 C 168.46 116.02 167.61 115.65 166.84 115.94 L 165.89 116.32 C 165.13 116.61 164.75 117.47 165.05 118.23 C 165.35 118.99 166.20 119.37 166.97 119.07 Z M 167.91 118.70 L 168.82 118.35 C 169.58 118.06 169.97 117.21 169.68 116.45 C 169.39 115.69 168.54 115.31 167.77 115.60 L 166.86 115.94 C 166.10 116.23 165.71 117.09 166.00 117.85 C 166.29 118.61 167.15 118.99 167.91 118.70 Z M 168.80 118.35 L 169.90 117.95 C 170.67 117.67 171.06 116.83 170.78 116.07 C 170.50 115.30 169.65 114.91 168.89 115.19 L 167.79 115.59 C 167.03 115.87 166.64 116.72 166.92 117.48 C 167.20 118.24 168.04 118.63 168.80 118.35 Z M 169.88 117.95 L 170.89 117.60 C 171.65 117.33 172.05 116.50 171.78 115.73 C 171.52 114.97 170.68 114.57 169.92 114.84 L 168.91 115.19 C 168.15 115.46 167.75 116.29 168.02 117.05 C 168.29 117.82 169.12 118.22 169.88 117.95 Z M 170.87 117.59 L 171.80 117.28 C 172.56 117.02 172.97 116.20 172.72 115.44 C 172.46 114.68 171.64 114.27 170.88 114.53 L 169.94 114.84 C 169.18 115.10 168.77 115.92 169.03 116.68 C 169.28 117.44 170.11 117.85 170.87 117.59 Z M 171.79 117.28 L 172.67 116.99 C 173.43 116.74 173.84 115.93 173.60 115.17 C 173.35 114.41 172.54 114.00 171.78 114.24 L 170.89 114.53 C 170.14 114.78 169.72 115.59 169.97 116.35 C 170.21 117.11 171.03 117.52 171.79 117.28 Z M 172.66 116.98 L 173.51 116.71 C 174.27 116.47 174.69 115.67 174.45 114.91 C 174.21 114.16 173.40 113.74 172.64 113.98 L 171.79 114.25 C 171.03 114.49 170.62 115.29 170.85 116.05 C 171.09 116.81 171.90 117.22 172.66 116.98 Z M 173.51 116.71 L 173.91 116.58 C 174.66 116.35 175.08 115.54 174.84 114.79 C 174.60 114.04 173.80 113.62 173.05 113.86 L 172.65 113.98 C 171.89 114.22 171.48 115.02 171.71 115.77 C 171.95 116.53 172.75 116.95 173.51 116.71 Z"
      fill="black"
      fill-rule="nonzero" /><path d="M 116.32 145.08 L 115.29 145.36 C 114.47 145.58 113.98 146.42 114.20 147.25 C 114.42 148.07 115.27 148.56 116.09 148.34 L 117.12 148.07 C 117.95 147.85 118.44 147.00 118.22 146.17 C 118.00 145.35 117.15 144.86 116.32 145.08 Z M 115.29 145.36 L 114.27 145.63 C 113.44 145.86 112.95 146.70 113.18 147.53 C 113.40 148.35 114.25 148.84 115.07 148.62 L 116.09 148.34 C 116.92 148.12 117.41 147.27 117.18 146.45 C 116.96 145.62 116.11 145.13 115.29 145.36 Z M 114.26 145.63 L 113.25 145.91 C 112.43 146.13 111.95 146.99 112.17 147.81 C 112.40 148.63 113.25 149.12 114.07 148.89 L 115.08 148.62 C 115.90 148.39 116.39 147.54 116.16 146.72 C 115.94 145.89 115.08 145.41 114.26 145.63 Z M 113.25 145.91 L 112.26 146.19 C 111.44 146.42 110.96 147.27 111.19 148.09 C 111.42 148.91 112.27 149.39 113.10 149.16 L 114.08 148.89 C 114.90 148.66 115.38 147.81 115.15 146.98 C 114.92 146.16 114.07 145.68 113.25 145.91 Z M 112.25 146.19 L 111.30 146.46 C 110.48 146.70 110.01 147.55 110.25 148.38 C 110.48 149.20 111.34 149.67 112.16 149.43 L 113.11 149.16 C 113.93 148.93 114.40 148.07 114.17 147.25 C 113.93 146.43 113.07 145.95 112.25 146.19 Z M 111.29 146.47 L 110.38 146.74 C 109.56 146.98 109.10 147.84 109.34 148.66 C 109.59 149.48 110.45 149.95 111.27 149.70 L 112.18 149.43 C 112.99 149.19 113.46 148.32 113.21 147.51 C 112.97 146.69 112.11 146.22 111.29 146.47 Z M 110.36 146.74 L 109.50 147.01 C 108.69 147.27 108.24 148.14 108.49 148.95 C 108.75 149.77 109.61 150.22 110.43 149.96 L 111.29 149.69 C 112.10 149.44 112.56 148.57 112.30 147.76 C 112.05 146.94 111.18 146.49 110.36 146.74 Z M 109.46 147.02 L 108.13 147.47 C 107.32 147.75 106.88 148.63 107.16 149.45 C 107.44 150.26 108.32 150.69 109.14 150.42 L 110.47 149.96 C 111.28 149.68 111.72 148.80 111.44 147.99 C 111.16 147.17 110.28 146.74 109.46 147.02 Z M 108.05 147.48 L 106.89 147.94 C 106.08 148.27 105.69 149.19 106.01 150.00 C 106.34 150.80 107.26 151.20 108.06 150.87 L 109.22 150.41 C 110.03 150.08 110.42 149.16 110.10 148.36 C 109.77 147.55 108.85 147.16 108.05 147.48 Z M 106.70 148.01 L 105.97 148.41 C 105.20 148.84 104.92 149.81 105.34 150.58 C 105.77 151.36 106.74 151.64 107.52 151.21 L 108.25 150.81 C 109.02 150.38 109.31 149.41 108.88 148.63 C 108.45 147.86 107.48 147.58 106.70 148.01 Z M 105.35 148.98 L 105.17 149.29 C 104.71 150.06 104.96 151.06 105.73 151.52 C 106.50 151.98 107.49 151.73 107.95 150.96 L 108.14 150.64 C 108.60 149.87 108.35 148.88 107.58 148.42 C 106.81 147.96 105.81 148.21 105.35 148.98 Z M 105.79 151.57 L 106.13 151.75 C 106.93 152.18 107.93 151.87 108.35 151.07 C 108.77 150.27 108.46 149.27 107.66 148.85 L 107.32 148.67 C 106.52 148.25 105.53 148.56 105.11 149.36 C 104.69 150.16 104.99 151.15 105.79 151.57 Z M 106.70 151.94 L 107.46 152.03 C 108.37 152.14 109.19 151.49 109.30 150.59 C 109.40 149.68 108.76 148.86 107.85 148.75 L 107.09 148.66 C 106.19 148.56 105.37 149.20 105.26 150.11 C 105.15 151.01 105.80 151.83 106.70 151.94 Z M 107.66 152.05 L 108.77 152.06 C 109.69 152.06 110.44 151.31 110.44 150.40 C 110.44 149.48 109.69 148.73 108.78 148.73 L 107.66 148.73 C 106.74 148.73 106.00 149.47 106.00 150.39 C 106.00 151.31 106.74 152.05 107.66 152.05 Z M 108.88 152.06 L 110.29 151.97 C 111.21 151.91 111.91 151.12 111.85 150.20 C 111.79 149.28 111.00 148.58 110.08 148.64 L 108.67 148.73 C 107.75 148.78 107.05 149.58 107.11 150.50 C 107.17 151.42 107.96 152.12 108.88 152.06 Z M 110.36 151.97 L 111.60 151.84 C 112.52 151.75 113.19 150.92 113.09 150.00 C 112.99 149.07 112.16 148.40 111.24 148.50 L 110.01 148.63 C 109.09 148.73 108.42 149.56 108.51 150.48 C 108.61 151.40 109.44 152.07 110.36 151.97 Z M 111.64 151.84 L 112.62 151.71 C 113.54 151.59 114.19 150.75 114.07 149.82 C 113.95 148.90 113.11 148.25 112.18 148.38 L 111.20 148.50 C 110.28 148.63 109.63 149.47 109.75 150.39 C 109.87 151.31 110.72 151.96 111.64 151.84 Z M 112.65 151.71 L 113.67 151.56 C 114.59 151.42 115.22 150.57 115.09 149.65 C 114.95 148.73 114.10 148.09 113.18 148.23 L 112.16 148.38 C 111.24 148.51 110.60 149.37 110.74 150.29 C 110.87 151.21 111.73 151.85 112.65 151.71 Z M 113.69 151.56 L 114.73 151.39 C 115.64 151.24 116.27 150.38 116.12 149.46 C 115.97 148.54 115.11 147.92 114.19 148.06 L 113.16 148.23 C 112.24 148.38 111.61 149.24 111.76 150.16 C 111.91 151.08 112.77 151.70 113.69 151.56 Z M 114.74 151.39 L 115.77 151.21 C 116.69 151.06 117.31 150.19 117.15 149.27 C 117.00 148.35 116.13 147.73 115.21 147.89 L 114.18 148.07 C 113.26 148.22 112.64 149.09 112.80 150.01 C 112.95 150.93 113.82 151.55 114.74 151.39 Z M 115.79 151.21 L 116.80 151.03 C 117.72 150.87 118.33 149.99 118.16 149.08 C 118.00 148.16 117.13 147.55 116.21 147.71 L 115.20 147.89 C 114.28 148.05 113.67 148.93 113.83 149.85 C 113.99 150.76 114.87 151.37 115.79 151.21 Z M 116.81 151.03 L 117.78 150.85 C 118.70 150.69 119.30 149.81 119.13 148.89 C 118.97 147.97 118.09 147.37 117.17 147.53 L 116.20 147.71 C 115.28 147.88 114.68 148.76 114.84 149.68 C 115.01 150.59 115.89 151.20 116.81 151.03 Z M 117.78 150.85 L 118.70 150.68 C 119.61 150.51 120.22 149.63 120.05 148.71 C 119.87 147.80 118.99 147.19 118.08 147.36 L 117.16 147.53 C 116.25 147.71 115.64 148.59 115.81 149.50 C 115.99 150.42 116.87 151.02 117.78 150.85 Z M 118.70 150.68 L 119.83 150.47 C 120.75 150.30 121.35 149.41 121.18 148.50 C 121.00 147.58 120.12 146.98 119.21 147.15 L 118.07 147.36 C 117.16 147.54 116.55 148.42 116.73 149.34 C 116.90 150.25 117.78 150.86 118.70 150.68 Z M 119.83 150.47 L 120.94 150.26 C 121.85 150.09 122.45 149.20 122.28 148.29 C 122.11 147.37 121.22 146.77 120.31 146.94 L 119.20 147.15 C 118.29 147.33 117.68 148.21 117.86 149.13 C 118.03 150.04 118.92 150.64 119.83 150.47 Z M 120.94 150.26 L 121.91 150.07 C 122.83 149.90 123.43 149.01 123.25 148.09 C 123.08 147.18 122.19 146.58 121.27 146.75 L 120.30 146.94 C 119.39 147.12 118.79 148.00 118.96 148.92 C 119.14 149.84 120.02 150.44 120.94 150.26 Z M 121.92 150.07 L 122.81 149.90 C 123.72 149.72 124.32 148.83 124.14 147.91 C 123.96 147.00 123.07 146.40 122.16 146.58 L 121.27 146.76 C 120.35 146.94 119.76 147.82 119.94 148.74 C 120.12 149.65 121.00 150.25 121.92 150.07 Z M 122.81 149.90 L 123.65 149.73 C 124.57 149.55 125.16 148.66 124.98 147.74 C 124.79 146.83 123.90 146.23 122.99 146.42 L 122.15 146.58 C 121.24 146.77 120.64 147.66 120.82 148.57 C 121.01 149.49 121.90 150.08 122.81 149.90 Z M 123.66 149.73 L 124.56 149.54 C 125.47 149.36 126.06 148.47 125.88 147.55 C 125.69 146.64 124.80 146.05 123.89 146.23 L 122.98 146.42 C 122.07 146.60 121.48 147.49 121.66 148.41 C 121.85 149.32 122.74 149.91 123.66 149.73 Z M 124.56 149.54 L 125.52 149.34 C 126.44 149.16 127.03 148.26 126.84 147.35 C 126.65 146.44 125.75 145.85 124.84 146.04 L 123.88 146.23 C 122.97 146.42 122.38 147.32 122.57 148.23 C 122.76 149.14 123.65 149.73 124.56 149.54 Z M 125.53 149.34 L 126.50 149.14 C 127.42 148.95 128.00 148.06 127.81 147.14 C 127.62 146.23 126.73 145.64 125.82 145.83 L 124.84 146.04 C 123.93 146.23 123.34 147.12 123.53 148.03 C 123.72 148.95 124.61 149.53 125.53 149.34 Z M 126.50 149.14 L 127.49 148.94 C 128.41 148.75 128.99 147.85 128.81 146.94 C 128.62 146.03 127.72 145.44 126.81 145.63 L 125.82 145.83 C 124.90 146.02 124.32 146.92 124.50 147.83 C 124.69 148.74 125.59 149.33 126.50 149.14 Z M 127.49 148.94 L 128.49 148.73 C 129.40 148.55 129.99 147.65 129.81 146.74 C 129.62 145.83 128.73 145.24 127.81 145.42 L 126.81 145.63 C 125.90 145.81 125.31 146.71 125.50 147.62 C 125.68 148.53 126.58 149.12 127.49 148.94 Z M 128.48 148.73 L 129.43 148.55 C 130.34 148.36 130.94 147.47 130.75 146.56 C 130.57 145.64 129.68 145.05 128.76 145.23 L 127.82 145.42 C 126.90 145.61 126.31 146.50 126.50 147.41 C 126.68 148.33 127.57 148.92 128.48 148.73 Z M 129.42 148.55 L 130.38 148.36 C 131.30 148.17 131.90 147.29 131.71 146.37 C 131.53 145.45 130.64 144.86 129.73 145.04 L 128.77 145.23 C 127.85 145.41 127.26 146.30 127.44 147.22 C 127.62 148.13 128.51 148.73 129.42 148.55 Z M 130.38 148.36 L 131.36 148.16 C 132.28 147.98 132.88 147.10 132.70 146.18 C 132.52 145.26 131.63 144.67 130.71 144.85 L 129.73 145.04 C 128.81 145.22 128.22 146.11 128.40 147.02 C 128.58 147.94 129.47 148.54 130.38 148.36 Z M 131.36 148.16 L 132.37 147.97 C 133.29 147.79 133.88 146.90 133.71 145.98 C 133.53 145.07 132.64 144.47 131.72 144.65 L 130.72 144.85 C 129.80 145.02 129.20 145.91 129.38 146.83 C 129.56 147.75 130.45 148.34 131.36 148.16 Z M 132.37 147.97 L 133.38 147.77 C 134.30 147.59 134.90 146.70 134.72 145.79 C 134.54 144.87 133.65 144.27 132.74 144.45 L 131.72 144.65 C 130.81 144.83 130.21 145.72 130.39 146.63 C 130.56 147.55 131.45 148.15 132.37 147.97 Z M 133.39 147.77 L 134.37 147.58 C 135.28 147.40 135.88 146.51 135.70 145.60 C 135.52 144.68 134.64 144.08 133.72 144.26 L 132.74 144.45 C 131.82 144.63 131.22 145.52 131.40 146.44 C 131.58 147.35 132.47 147.95 133.39 147.77 Z M 134.37 147.58 L 135.36 147.38 C 136.28 147.20 136.88 146.31 136.70 145.40 C 136.51 144.48 135.63 143.88 134.71 144.06 L 133.72 144.26 C 132.80 144.44 132.20 145.33 132.38 146.25 C 132.56 147.16 133.45 147.76 134.37 147.58 Z M 135.37 147.38 L 136.36 147.18 C 137.28 147.00 137.87 146.11 137.69 145.19 C 137.50 144.28 136.61 143.68 135.70 143.87 L 134.70 144.07 C 133.79 144.25 133.19 145.14 133.38 146.06 C 133.56 146.97 134.45 147.57 135.37 147.38 Z M 136.37 147.18 L 137.35 146.98 C 138.26 146.80 138.85 145.90 138.67 144.99 C 138.48 144.07 137.59 143.48 136.67 143.67 L 135.69 143.87 C 134.77 144.05 134.18 144.95 134.37 145.86 C 134.56 146.78 135.45 147.37 136.37 147.18 Z M 137.36 146.98 L 138.31 146.78 C 139.23 146.59 139.81 145.69 139.62 144.78 C 139.43 143.86 138.53 143.28 137.62 143.47 L 136.66 143.67 C 135.75 143.86 135.16 144.76 135.35 145.67 C 135.54 146.59 136.44 147.17 137.36 146.98 Z M 138.33 146.78 L 139.34 146.56 C 140.25 146.36 140.83 145.46 140.63 144.55 C 140.44 143.63 139.54 143.05 138.62 143.25 L 137.61 143.47 C 136.70 143.67 136.12 144.57 136.31 145.48 C 136.51 146.40 137.41 146.98 138.33 146.78 Z M 139.35 146.55 L 140.34 146.33 C 141.25 146.13 141.82 145.23 141.62 144.31 C 141.41 143.40 140.51 142.83 139.60 143.03 L 138.61 143.25 C 137.70 143.46 137.13 144.36 137.33 145.27 C 137.54 146.18 138.44 146.76 139.35 146.55 Z M 140.35 146.33 L 141.31 146.11 C 142.22 145.90 142.79 145.00 142.58 144.09 C 142.37 143.18 141.47 142.61 140.56 142.82 L 139.59 143.04 C 138.68 143.24 138.11 144.15 138.32 145.06 C 138.53 145.97 139.44 146.54 140.35 146.33 Z M 141.31 146.11 L 142.27 145.89 C 143.18 145.68 143.74 144.77 143.53 143.86 C 143.32 142.95 142.41 142.39 141.51 142.60 L 140.55 142.82 C 139.64 143.03 139.08 143.94 139.29 144.84 C 139.50 145.75 140.41 146.32 141.31 146.11 Z M 142.27 145.89 L 143.22 145.66 C 144.13 145.45 144.70 144.55 144.48 143.64 C 144.27 142.73 143.37 142.17 142.46 142.38 L 141.51 142.60 C 140.60 142.81 140.03 143.72 140.24 144.62 C 140.45 145.53 141.36 146.10 142.27 145.89 Z M 143.22 145.66 L 144.19 145.44 C 145.10 145.23 145.66 144.32 145.45 143.42 C 145.24 142.51 144.34 141.94 143.43 142.15 L 142.46 142.38 C 141.55 142.59 140.99 143.49 141.20 144.40 C 141.41 145.31 142.31 145.87 143.22 145.66 Z M 144.19 145.44 L 145.16 145.21 C 146.07 145.00 146.63 144.10 146.42 143.19 C 146.21 142.28 145.31 141.72 144.40 141.93 L 143.43 142.16 C 142.52 142.37 141.96 143.27 142.17 144.18 C 142.38 145.08 143.28 145.65 144.19 145.44 Z M 145.16 145.21 L 146.14 144.98 C 147.05 144.77 147.61 143.87 147.40 142.96 C 147.18 142.05 146.28 141.49 145.37 141.70 L 144.40 141.93 C 143.49 142.14 142.93 143.05 143.14 143.95 C 143.35 144.86 144.26 145.42 145.16 145.21 Z M 146.14 144.98 L 147.12 144.75 C 148.03 144.53 148.59 143.63 148.37 142.72 C 148.16 141.82 147.25 141.26 146.35 141.47 L 145.37 141.71 C 144.46 141.92 143.90 142.83 144.12 143.73 C 144.33 144.64 145.24 145.19 146.14 144.98 Z M 147.13 144.74 L 148.10 144.51 C 149.00 144.29 149.56 143.38 149.34 142.48 C 149.12 141.58 148.21 141.02 147.31 141.24 L 146.34 141.48 C 145.44 141.70 144.88 142.61 145.10 143.51 C 145.32 144.41 146.23 144.96 147.13 144.74 Z M 148.11 144.50 L 149.07 144.26 C 149.97 144.04 150.51 143.13 150.29 142.23 C 150.07 141.33 149.16 140.79 148.26 141.01 L 147.30 141.25 C 146.40 141.47 145.85 142.38 146.08 143.28 C 146.30 144.18 147.21 144.73 148.11 144.50 Z M 149.08 144.26 L 150.04 144.01 C 150.94 143.78 151.48 142.87 151.25 141.98 C 151.02 141.08 150.11 140.54 149.21 140.77 L 148.25 141.02 C 147.35 141.25 146.81 142.16 147.04 143.05 C 147.27 143.95 148.18 144.49 149.08 144.26 Z M 150.05 144.00 L 151.02 143.75 C 151.91 143.52 152.44 142.60 152.21 141.71 C 151.97 140.82 151.06 140.29 150.17 140.52 L 149.20 140.78 C 148.31 141.01 147.78 141.92 148.01 142.82 C 148.25 143.71 149.16 144.24 150.05 144.00 Z M 151.03 143.74 L 152.01 143.48 C 152.89 143.24 153.42 142.32 153.18 141.44 C 152.94 140.55 152.03 140.03 151.14 140.27 L 150.16 140.53 C 149.27 140.77 148.75 141.68 148.99 142.57 C 149.23 143.46 150.14 143.98 151.03 143.74 Z M 152.02 143.47 L 152.98 143.20 C 153.86 142.96 154.38 142.04 154.13 141.16 C 153.89 140.28 152.97 139.76 152.09 140.01 L 151.13 140.27 C 150.24 140.52 149.73 141.43 149.97 142.32 C 150.22 143.20 151.14 143.72 152.02 143.47 Z M 152.99 143.19 L 153.95 142.92 C 154.83 142.67 155.33 141.75 155.08 140.88 C 154.83 140.00 153.92 139.49 153.04 139.74 L 152.08 140.01 C 151.20 140.26 150.69 141.18 150.95 142.06 C 151.20 142.94 152.11 143.45 152.99 143.19 Z M 153.95 142.91 L 154.92 142.63 C 155.79 142.38 156.29 141.46 156.04 140.59 C 155.78 139.71 154.87 139.21 153.99 139.47 L 153.03 139.75 C 152.16 140.00 151.65 140.92 151.91 141.79 C 152.16 142.67 153.08 143.17 153.95 142.91 Z M 154.92 142.63 L 155.88 142.34 C 156.76 142.08 157.25 141.17 156.99 140.30 C 156.74 139.43 155.82 138.93 154.95 139.19 L 153.99 139.47 C 153.12 139.73 152.62 140.65 152.88 141.52 C 153.14 142.39 154.05 142.88 154.92 142.63 Z M 155.89 142.34 L 156.85 142.05 C 157.72 141.79 158.21 140.87 157.95 140.01 C 157.69 139.14 156.78 138.65 155.91 138.91 L 154.95 139.19 C 154.08 139.45 153.59 140.37 153.85 141.24 C 154.11 142.10 155.02 142.60 155.89 142.34 Z M 156.85 142.04 L 157.80 141.75 C 158.67 141.49 159.16 140.58 158.90 139.72 C 158.64 138.85 157.72 138.37 156.86 138.63 L 155.91 138.91 C 155.05 139.17 154.56 140.08 154.82 140.95 C 155.08 141.81 155.99 142.30 156.85 142.04 Z M 157.80 141.75 L 158.75 141.46 C 159.61 141.20 160.09 140.29 159.83 139.43 C 159.57 138.57 158.66 138.09 157.80 138.35 L 156.86 138.63 C 156.00 138.89 155.51 139.80 155.77 140.66 C 156.03 141.52 156.94 142.01 157.80 141.75 Z M 158.74 141.46 L 159.69 141.17 C 160.55 140.91 161.03 140.01 160.77 139.15 C 160.51 138.29 159.61 137.81 158.75 138.07 L 157.80 138.35 C 156.95 138.61 156.46 139.52 156.72 140.38 C 156.98 141.23 157.89 141.72 158.74 141.46 Z M 159.69 141.17 L 160.65 140.88 C 161.50 140.62 161.98 139.72 161.73 138.86 C 161.47 138.01 160.57 137.52 159.71 137.78 L 158.75 138.07 C 157.90 138.33 157.41 139.23 157.67 140.09 C 157.93 140.94 158.83 141.42 159.69 141.17 Z M 160.64 140.87 L 161.62 140.58 C 162.47 140.32 162.95 139.42 162.70 138.57 C 162.44 137.72 161.54 137.24 160.69 137.49 L 159.71 137.79 C 158.86 138.04 158.38 138.94 158.64 139.79 C 158.89 140.65 159.79 141.13 160.64 140.87 Z M 161.61 140.57 L 162.59 140.28 C 163.44 140.03 163.92 139.13 163.67 138.28 C 163.41 137.44 162.52 136.95 161.67 137.21 L 160.69 137.50 C 159.84 137.75 159.36 138.65 159.61 139.50 C 159.87 140.35 160.76 140.83 161.61 140.57 Z M 162.58 140.28 L 163.55 139.99 C 164.40 139.74 164.88 138.85 164.63 138.00 C 164.38 137.15 163.49 136.67 162.64 136.92 L 161.67 137.21 C 160.82 137.46 160.34 138.35 160.59 139.20 C 160.85 140.05 161.74 140.53 162.58 140.28 Z M 163.55 139.98 L 164.53 139.69 C 165.37 139.44 165.85 138.55 165.60 137.71 C 165.35 136.87 164.46 136.39 163.62 136.64 L 162.64 136.93 C 161.80 137.18 161.32 138.07 161.57 138.91 C 161.82 139.76 162.71 140.24 163.55 139.98 Z M 164.53 139.69 L 165.50 139.40 C 166.34 139.14 166.81 138.26 166.56 137.42 C 166.31 136.58 165.42 136.10 164.58 136.35 L 163.61 136.65 C 162.77 136.90 162.30 137.78 162.55 138.62 C 162.80 139.46 163.69 139.94 164.53 139.69 Z M 165.50 139.39 L 166.45 139.10 C 167.29 138.84 167.76 137.96 167.50 137.12 C 167.25 136.29 166.36 135.82 165.53 136.07 L 164.58 136.36 C 163.74 136.62 163.27 137.50 163.53 138.34 C 163.78 139.17 164.66 139.64 165.50 139.39 Z M 166.46 139.09 L 167.39 138.80 C 168.22 138.54 168.69 137.66 168.43 136.83 C 168.17 135.99 167.28 135.53 166.45 135.79 L 165.52 136.08 C 164.69 136.34 164.22 137.22 164.48 138.05 C 164.74 138.89 165.63 139.35 166.46 139.09 Z M 167.40 138.79 L 168.41 138.46 C 169.24 138.20 169.69 137.32 169.42 136.49 C 169.16 135.67 168.28 135.21 167.45 135.48 L 166.44 135.80 C 165.62 136.07 165.16 136.95 165.43 137.77 C 165.69 138.60 166.58 139.05 167.40 138.79 Z M 168.42 138.45 L 169.38 138.14 C 170.20 137.87 170.65 136.98 170.38 136.16 C 170.11 135.35 169.23 134.90 168.41 135.17 L 167.44 135.49 C 166.62 135.76 166.18 136.64 166.45 137.46 C 166.72 138.28 167.60 138.72 168.42 138.45 Z M 169.39 138.13 L 170.32 137.81 C 171.13 137.54 171.57 136.66 171.30 135.85 C 171.03 135.04 170.15 134.60 169.33 134.87 L 168.40 135.18 C 167.59 135.45 167.15 136.33 167.42 137.15 C 167.69 137.96 168.57 138.40 169.39 138.13 Z M 170.32 137.81 L 171.23 137.50 C 172.04 137.23 172.47 136.35 172.20 135.54 C 171.93 134.74 171.05 134.30 170.25 134.57 L 169.34 134.88 C 168.53 135.15 168.09 136.02 168.36 136.83 C 168.63 137.64 169.51 138.08 170.32 137.81 Z M 171.22 137.49 L 172.16 137.18 C 172.97 136.91 173.40 136.04 173.13 135.24 C 172.86 134.43 171.99 134.00 171.19 134.27 L 170.25 134.58 C 169.45 134.85 169.01 135.72 169.28 136.52 C 169.55 137.33 170.42 137.76 171.22 137.49 Z M 172.15 137.18 L 173.12 136.86 C 173.93 136.59 174.36 135.73 174.10 134.92 C 173.83 134.12 172.97 133.69 172.16 133.95 L 171.19 134.27 C 170.39 134.54 169.96 135.40 170.22 136.20 C 170.49 137.01 171.35 137.44 172.15 137.18 Z M 173.12 136.85 L 174.08 136.53 C 174.87 136.27 175.31 135.41 175.04 134.61 C 174.78 133.81 173.92 133.38 173.12 133.64 L 172.17 133.96 C 171.37 134.22 170.94 135.08 171.20 135.88 C 171.46 136.68 172.32 137.11 173.12 136.85 Z M 174.08 136.52 L 175.01 136.21 C 175.81 135.94 176.23 135.09 175.97 134.30 C 175.70 133.50 174.85 133.08 174.05 133.34 L 173.12 133.65 C 172.33 133.92 171.90 134.77 172.16 135.57 C 172.43 136.36 173.29 136.79 174.08 136.52 Z M 175.02 136.20 L 175.93 135.89 C 176.71 135.62 177.13 134.76 176.86 133.98 C 176.59 133.19 175.74 132.77 174.95 133.04 L 174.05 133.35 C 173.26 133.62 172.84 134.48 173.11 135.26 C 173.38 136.05 174.23 136.47 175.02 136.20 Z M 175.94 135.88 L 176.82 135.56 C 177.60 135.29 178.01 134.43 177.73 133.65 C 177.46 132.88 176.60 132.47 175.82 132.74 L 174.94 133.05 C 174.16 133.33 173.75 134.19 174.03 134.96 C 174.31 135.74 175.16 136.15 175.94 135.88 Z M 176.84 135.55 L 177.73 135.22 C 178.50 134.94 178.90 134.08 178.61 133.31 C 178.33 132.54 177.47 132.14 176.70 132.43 L 175.80 132.76 C 175.03 133.04 174.64 133.90 174.92 134.67 C 175.21 135.44 176.06 135.84 176.84 135.55 Z M 177.75 135.21 L 178.69 134.84 C 179.45 134.55 179.83 133.69 179.54 132.93 C 179.24 132.17 178.39 131.79 177.62 132.08 L 176.68 132.44 C 175.92 132.74 175.54 133.59 175.83 134.36 C 176.12 135.12 176.98 135.50 177.75 135.21 Z M 178.70 134.83 L 179.73 134.42 C 180.48 134.12 180.85 133.26 180.55 132.50 C 180.25 131.75 179.39 131.38 178.63 131.68 L 177.61 132.09 C 176.85 132.40 176.48 133.25 176.79 134.01 C 177.09 134.77 177.95 135.13 178.70 134.83 Z M 179.74 134.41 L 180.63 134.04 C 181.38 133.73 181.73 132.87 181.42 132.13 C 181.11 131.38 180.26 131.02 179.51 131.33 L 178.62 131.69 C 177.87 132.00 177.51 132.86 177.82 133.61 C 178.13 134.36 178.99 134.72 179.74 134.41 Z M 180.64 134.03 L 181.55 133.64 C 182.30 133.33 182.64 132.47 182.33 131.73 C 182.01 130.98 181.15 130.64 180.41 130.95 L 179.49 131.34 C 178.75 131.65 178.40 132.51 178.72 133.26 C 179.04 134.00 179.89 134.35 180.64 134.03 Z M 181.57 133.63 L 182.50 133.22 C 183.24 132.90 183.58 132.04 183.26 131.30 C 182.93 130.56 182.07 130.23 181.33 130.55 L 180.40 130.96 C 179.66 131.28 179.32 132.15 179.64 132.88 C 179.97 133.62 180.83 133.96 181.57 133.63 Z M 182.52 133.21 L 183.46 132.78 C 184.19 132.45 184.52 131.59 184.18 130.86 C 183.85 130.13 182.99 129.80 182.26 130.13 L 181.32 130.56 C 180.59 130.89 180.26 131.76 180.60 132.49 C 180.93 133.22 181.79 133.54 182.52 133.21 Z M 183.48 132.77 L 184.40 132.33 C 185.12 131.99 185.43 131.13 185.09 130.40 C 184.75 129.68 183.88 129.37 183.16 129.71 L 182.24 130.15 C 181.52 130.49 181.21 131.36 181.55 132.08 C 181.89 132.80 182.76 133.11 183.48 132.77 Z M 184.43 132.32 L 185.34 131.86 C 186.06 131.50 186.34 130.63 185.99 129.92 C 185.63 129.20 184.76 128.91 184.05 129.27 L 183.13 129.73 C 182.42 130.09 182.13 130.96 182.49 131.67 C 182.84 132.39 183.71 132.67 184.43 132.32 Z M 185.37 131.83 L 186.32 131.33 C 187.02 130.95 187.28 130.08 186.90 129.38 C 186.53 128.68 185.65 128.41 184.95 128.79 L 184.01 129.29 C 183.31 129.67 183.05 130.54 183.42 131.25 C 183.80 131.95 184.67 132.21 185.37 131.83 Z M 186.35 131.31 L 187.22 130.81 C 187.91 130.42 188.15 129.54 187.76 128.85 C 187.37 128.16 186.49 127.92 185.80 128.31 L 184.92 128.81 C 184.23 129.20 183.99 130.08 184.39 130.77 C 184.78 131.46 185.66 131.70 186.35 131.31 Z M 187.25 130.79 L 188.08 130.29 C 188.76 129.89 188.98 129.01 188.58 128.33 C 188.17 127.65 187.29 127.43 186.61 127.83 L 185.78 128.33 C 185.10 128.73 184.88 129.61 185.28 130.29 C 185.69 130.97 186.57 131.20 187.25 130.79 Z M 188.09 130.28 L 188.90 129.79 C 189.57 129.37 189.78 128.49 189.37 127.82 C 188.96 127.15 188.08 126.94 187.41 127.35 L 186.60 127.84 C 185.93 128.26 185.72 129.14 186.13 129.81 C 186.54 130.48 187.42 130.69 188.09 130.28 Z M 188.90 129.78 L 189.31 129.53 C 189.98 129.11 190.18 128.23 189.77 127.56 C 189.35 126.90 188.48 126.69 187.81 127.10 L 187.40 127.36 C 186.73 127.77 186.53 128.65 186.94 129.32 C 187.36 129.99 188.24 130.19 188.90 129.78 Z"
      fill="black"
      fill-rule="nonzero" /><path d="M 147.72 83.21 L 147.72 84.29 C 147.72 85.15 148.41 85.84 149.27 85.84 C 150.12 85.84 150.82 85.15 150.82 84.29 L 150.82 83.21 C 150.82 82.35 150.12 81.66 149.27 81.66 C 148.41 81.66 147.72 82.35 147.72 83.21 Z M 147.71 84.29 L 147.71 85.37 C 147.71 86.23 148.41 86.93 149.27 86.93 C 150.13 86.93 150.82 86.23 150.82 85.37 L 150.82 84.29 C 150.82 83.43 150.13 82.74 149.27 82.74 C 148.41 82.74 147.71 83.43 147.71 84.29 Z M 147.70 85.37 L 147.70 86.42 C 147.70 87.28 148.40 87.98 149.27 87.98 C 150.13 87.98 150.83 87.28 150.83 86.42 L 150.83 85.37 C 150.83 84.50 150.13 83.80 149.27 83.80 C 148.40 83.80 147.70 84.50 147.70 85.37 Z M 147.69 86.42 L 147.69 87.42 C 147.69 88.29 148.40 89.00 149.27 89.00 C 150.14 89.00 150.84 88.29 150.84 87.42 L 150.84 86.42 C 150.84 85.55 150.14 84.84 149.27 84.84 C 148.40 84.84 147.69 85.55 147.69 86.42 Z M 147.69 87.42 L 147.69 88.37 C 147.69 89.25 148.39 89.95 149.27 89.95 C 150.14 89.95 150.85 89.25 150.85 88.37 L 150.85 87.42 C 150.85 86.55 150.14 85.84 149.27 85.84 C 148.39 85.84 147.69 86.55 147.69 87.42 Z M 147.68 88.37 L 147.68 89.26 C 147.68 90.13 148.39 90.84 149.27 90.84 C 150.14 90.84 150.85 90.13 150.85 89.26 L 150.85 88.37 C 150.85 87.50 150.14 86.79 149.27 86.79 C 148.39 86.79 147.68 87.50 147.68 88.37 Z M 147.67 89.26 L 147.67 90.31 C 147.67 91.20 148.39 91.91 149.27 91.91 C 150.15 91.91 150.86 91.20 150.86 90.31 L 150.86 89.26 C 150.86 88.37 150.15 87.66 149.27 87.66 C 148.38 87.66 147.67 88.38 147.67 89.26 Z M 147.66 90.32 L 147.66 91.36 C 147.66 92.25 148.39 92.96 149.28 92.96 C 150.17 92.96 150.88 92.23 150.88 91.34 L 150.88 90.31 C 150.87 89.42 150.15 88.70 149.26 88.70 C 148.37 88.71 147.65 89.43 147.66 90.32 Z M 147.65 91.37 L 147.66 92.32 C 147.67 93.22 148.41 93.94 149.31 93.92 C 150.20 93.91 150.92 93.18 150.91 92.28 L 150.89 91.33 C 150.88 90.43 150.14 89.72 149.25 89.73 C 148.35 89.74 147.64 90.48 147.65 91.37 Z M 147.65 92.35 L 147.68 93.28 C 147.70 94.18 148.46 94.89 149.36 94.86 C 150.26 94.84 150.97 94.09 150.94 93.18 L 150.92 92.25 C 150.89 91.35 150.14 90.64 149.24 90.67 C 148.33 90.69 147.62 91.45 147.65 92.35 Z M 147.67 93.31 L 147.71 94.22 C 147.75 95.13 148.52 95.84 149.43 95.79 C 150.34 95.75 151.04 94.98 151.00 94.07 L 150.96 93.15 C 150.91 92.24 150.14 91.54 149.23 91.59 C 148.32 91.63 147.62 92.40 147.67 93.31 Z M 147.70 94.25 L 147.76 95.17 C 147.81 96.08 148.60 96.78 149.51 96.72 C 150.43 96.66 151.12 95.88 151.06 94.96 L 151.01 94.05 C 150.95 93.13 150.16 92.44 149.25 92.49 C 148.34 92.55 147.64 93.34 147.70 94.25 Z M 147.75 95.18 L 147.82 96.16 C 147.88 97.08 148.68 97.77 149.60 97.70 C 150.51 97.64 151.20 96.84 151.14 95.92 L 151.07 94.95 C 151.01 94.03 150.21 93.34 149.29 93.41 C 148.38 93.47 147.69 94.27 147.75 95.18 Z M 147.81 96.17 L 147.89 97.20 C 147.96 98.12 148.76 98.81 149.68 98.74 C 150.60 98.67 151.29 97.87 151.23 96.95 L 151.15 95.92 C 151.08 94.99 150.28 94.30 149.35 94.37 C 148.43 94.44 147.74 95.25 147.81 96.17 Z M 147.88 97.20 L 147.96 98.28 C 148.03 99.21 148.84 99.90 149.77 99.83 C 150.69 99.76 151.39 98.96 151.32 98.03 L 151.23 96.95 C 151.16 96.02 150.36 95.33 149.43 95.40 C 148.50 95.47 147.81 96.27 147.88 97.20 Z M 147.95 98.28 L 148.03 99.25 C 148.09 100.18 148.90 100.88 149.83 100.81 C 150.76 100.74 151.46 99.93 151.39 99.00 L 151.32 98.03 C 151.26 97.10 150.45 96.40 149.52 96.47 C 148.58 96.54 147.89 97.35 147.95 98.28 Z M 148.02 99.24 L 148.08 100.18 C 148.15 101.11 148.96 101.81 149.89 101.75 C 150.83 101.68 151.53 100.87 151.47 99.94 L 151.40 99.01 C 151.34 98.07 150.53 97.37 149.59 97.43 C 148.66 97.50 147.95 98.31 148.02 99.24 Z M 148.08 100.17 L 148.14 101.14 C 148.21 102.07 149.02 102.78 149.95 102.72 C 150.89 102.66 151.60 101.85 151.54 100.91 L 151.47 99.94 C 151.41 99.01 150.60 98.30 149.66 98.36 C 148.72 98.42 148.02 99.23 148.08 100.17 Z M 148.14 101.13 L 148.20 102.13 C 148.26 103.08 149.07 103.79 150.01 103.73 C 150.95 103.67 151.67 102.86 151.61 101.92 L 151.54 100.92 C 151.49 99.98 150.67 99.26 149.73 99.32 C 148.79 99.38 148.08 100.19 148.14 101.13 Z M 148.19 102.13 L 148.25 103.17 C 148.31 104.11 149.12 104.83 150.06 104.78 C 151.01 104.72 151.73 103.91 151.67 102.97 L 151.61 101.93 C 151.56 100.98 150.75 100.26 149.80 100.32 C 148.86 100.37 148.14 101.18 148.19 102.13 Z M 148.25 103.16 L 148.30 104.24 C 148.35 105.19 149.17 105.92 150.11 105.87 C 151.06 105.82 151.79 105.01 151.74 104.06 L 151.68 102.98 C 151.63 102.03 150.82 101.30 149.87 101.35 C 148.92 101.40 148.20 102.21 148.25 103.16 Z M 148.30 104.23 L 148.35 105.23 C 148.39 106.18 149.20 106.91 150.15 106.86 C 151.11 106.82 151.84 106.01 151.79 105.06 L 151.74 104.06 C 151.70 103.11 150.89 102.38 149.94 102.43 C 148.99 102.47 148.25 103.28 148.30 104.23 Z M 148.34 105.22 L 148.38 106.18 C 148.43 107.14 149.24 107.88 150.19 107.84 C 151.15 107.79 151.88 106.98 151.84 106.03 L 151.80 105.06 C 151.76 104.11 150.95 103.37 149.99 103.41 C 149.04 103.46 148.30 104.26 148.34 105.22 Z M 148.38 106.18 L 148.42 107.16 C 148.46 108.12 149.27 108.87 150.23 108.83 C 151.18 108.79 151.93 107.98 151.89 107.02 L 151.85 106.04 C 151.81 105.08 151.00 104.33 150.04 104.37 C 149.08 104.41 148.34 105.22 148.38 106.18 Z M 148.42 107.16 L 148.45 108.16 C 148.49 109.12 149.30 109.87 150.26 109.83 C 151.22 109.80 151.97 108.99 151.93 108.03 L 151.89 107.03 C 151.86 106.07 151.05 105.32 150.09 105.36 C 149.13 105.39 148.38 106.20 148.42 107.16 Z M 148.45 108.16 L 148.48 109.17 C 148.52 110.14 149.33 110.89 150.29 110.85 C 151.25 110.82 152.00 110.01 151.97 109.05 L 151.93 108.04 C 151.90 107.07 151.09 106.32 150.13 106.35 C 149.17 106.39 148.42 107.19 148.45 108.16 Z M 148.48 109.17 L 148.51 110.19 C 148.54 111.16 149.35 111.91 150.32 111.88 C 151.28 111.85 152.04 111.04 152.01 110.08 L 151.97 109.06 C 151.94 108.09 151.14 107.33 150.17 107.36 C 149.21 107.40 148.45 108.20 148.48 109.17 Z M 148.51 110.19 L 148.54 111.21 C 148.57 112.18 149.37 112.94 150.34 112.92 C 151.31 112.89 152.07 112.08 152.04 111.11 L 152.01 110.08 C 151.98 109.12 151.18 108.36 150.21 108.38 C 149.24 108.41 148.48 109.22 148.51 110.19 Z M 148.53 111.21 L 148.56 112.22 C 148.59 113.19 149.39 113.95 150.36 113.93 C 151.33 113.90 152.10 113.09 152.07 112.12 L 152.05 111.12 C 152.02 110.15 151.21 109.38 150.24 109.41 C 149.27 109.43 148.51 110.24 148.53 111.21 Z M 148.56 112.21 L 148.58 113.20 C 148.61 114.17 149.41 114.94 150.38 114.92 C 151.36 114.90 152.13 114.09 152.10 113.12 L 152.08 112.13 C 152.05 111.16 151.25 110.39 150.27 110.41 C 149.30 110.43 148.53 111.24 148.56 112.21 Z M 148.58 113.20 L 148.60 114.19 C 148.62 115.16 149.43 115.93 150.40 115.91 C 151.38 115.89 152.15 115.08 152.13 114.11 L 152.10 113.12 C 152.08 112.15 151.28 111.38 150.30 111.40 C 149.33 111.42 148.56 112.23 148.58 113.20 Z M 148.60 114.18 L 148.62 115.18 C 148.64 116.15 149.44 116.93 150.42 116.91 C 151.39 116.89 152.17 116.08 152.15 115.11 L 152.13 114.12 C 152.11 113.14 151.30 112.37 150.33 112.38 C 149.35 112.40 148.58 113.21 148.60 114.18 Z M 148.61 115.17 L 148.63 116.17 C 148.65 117.15 149.45 117.92 150.43 117.91 C 151.41 117.89 152.19 117.09 152.17 116.11 L 152.15 115.11 C 152.13 114.14 151.33 113.36 150.35 113.37 C 149.38 113.39 148.60 114.20 148.61 115.17 Z M 148.63 116.17 L 148.64 117.17 C 148.66 118.15 149.46 118.93 150.44 118.91 C 151.42 118.90 152.20 118.10 152.19 117.12 L 152.17 116.11 C 152.16 115.14 151.35 114.35 150.37 114.37 C 149.40 114.38 148.61 115.19 148.63 116.17 Z M 148.64 117.16 L 148.65 118.18 C 148.66 119.16 149.47 119.94 150.45 119.93 C 151.43 119.92 152.21 119.11 152.20 118.13 L 152.19 117.12 C 152.18 116.14 151.37 115.36 150.39 115.37 C 149.41 115.38 148.63 116.18 148.64 117.16 Z M 148.65 118.17 L 148.66 119.19 C 148.67 120.17 149.47 120.96 150.45 120.95 C 151.43 120.94 152.22 120.13 152.21 119.15 L 152.20 118.14 C 152.19 117.16 151.39 116.37 150.41 116.38 C 149.43 116.39 148.64 117.19 148.65 118.17 Z M 148.66 119.18 L 148.66 120.16 C 148.67 121.14 149.47 121.93 150.46 121.92 C 151.44 121.92 152.23 121.12 152.22 120.13 L 152.22 119.16 C 152.21 118.17 151.41 117.38 150.42 117.39 C 149.44 117.40 148.65 118.20 148.66 119.18 Z M 148.66 120.16 L 148.67 121.14 C 148.67 122.12 149.48 122.92 150.46 122.91 C 151.44 122.90 152.23 122.10 152.23 121.12 L 152.22 120.14 C 152.22 119.15 151.42 118.36 150.43 118.37 C 149.45 118.37 148.66 119.17 148.66 120.16 Z M 148.67 121.14 L 148.67 122.13 C 148.68 123.11 149.48 123.91 150.46 123.90 C 151.44 123.90 152.24 123.10 152.23 122.12 L 152.23 121.12 C 152.22 120.14 151.42 119.35 150.44 119.35 C 149.46 119.36 148.67 120.15 148.67 121.14 Z M 148.67 122.13 L 148.68 123.13 C 148.68 124.11 149.48 124.91 150.46 124.91 C 151.44 124.90 152.24 124.10 152.23 123.12 L 152.23 122.12 C 152.23 121.14 151.43 120.34 150.45 120.34 C 149.47 120.35 148.67 121.15 148.67 122.13 Z M 148.67 123.13 L 148.68 124.13 C 148.68 125.12 149.48 125.91 150.46 125.91 C 151.44 125.91 152.24 125.11 152.24 124.13 L 152.24 123.12 C 152.23 122.14 151.44 121.34 150.45 121.35 C 149.47 121.35 148.67 122.14 148.67 123.13 Z M 148.68 124.13 L 148.68 125.15 C 148.68 126.13 149.47 126.93 150.46 126.93 C 151.44 126.92 152.24 126.13 152.24 125.14 L 152.24 124.13 C 152.24 123.15 151.44 122.35 150.46 122.35 C 149.47 122.35 148.68 123.15 148.68 124.13 Z M 148.68 125.14 L 148.68 126.16 C 148.68 127.14 149.47 127.94 150.46 127.94 C 151.44 127.94 152.24 127.14 152.24 126.16 L 152.24 125.14 C 152.24 124.16 151.44 123.36 150.46 123.36 C 149.47 123.36 148.68 124.16 148.68 125.14 Z M 148.68 126.16 L 148.68 127.17 C 148.68 128.16 149.47 128.96 150.46 128.96 C 151.44 128.96 152.24 128.16 152.24 127.17 L 152.24 126.16 C 152.24 125.18 151.44 124.38 150.46 124.38 C 149.47 124.38 148.68 125.18 148.68 126.16 Z M 148.68 127.17 L 148.68 128.18 C 148.68 129.16 149.47 129.96 150.46 129.96 C 151.44 129.96 152.24 129.16 152.24 128.18 L 152.24 127.17 C 152.24 126.19 151.44 125.39 150.46 125.39 C 149.47 125.39 148.68 126.19 148.68 127.17 Z M 148.67 128.18 L 148.67 129.18 C 148.67 130.16 149.47 130.96 150.46 130.96 C 151.44 130.96 152.24 130.16 152.24 129.18 L 152.24 128.18 C 152.24 127.19 151.44 126.39 150.46 126.39 C 149.47 126.39 148.67 127.19 148.67 128.18 Z M 148.67 129.18 L 148.67 130.18 C 148.67 131.17 149.47 131.96 150.46 131.96 C 151.44 131.96 152.24 131.17 152.24 130.18 L 152.24 129.18 C 152.24 128.19 151.44 127.39 150.46 127.39 C 149.47 127.39 148.67 128.19 148.67 129.18 Z M 148.67 130.18 L 148.67 131.18 C 148.67 132.17 149.47 132.97 150.46 132.97 C 151.44 132.97 152.24 132.17 152.24 131.18 L 152.24 130.18 C 152.24 129.20 151.44 128.40 150.46 128.40 C 149.47 128.40 148.67 129.20 148.67 130.18 Z M 148.67 131.18 L 148.67 132.18 C 148.67 133.17 149.47 133.97 150.46 133.97 C 151.44 133.97 152.24 133.17 152.24 132.18 L 152.24 131.18 C 152.24 130.20 151.44 129.40 150.46 129.40 C 149.47 129.40 148.67 130.20 148.67 131.18 Z M 148.67 132.18 L 148.67 133.18 C 148.67 134.17 149.47 134.97 150.46 134.97 C 151.44 134.97 152.24 134.17 152.24 133.18 L 152.24 132.18 C 152.24 131.20 151.44 130.40 150.46 130.40 C 149.47 130.40 148.67 131.20 148.67 132.18 Z M 148.67 133.18 L 148.67 134.18 C 148.67 135.17 149.47 135.97 150.46 135.97 C 151.44 135.97 152.24 135.17 152.24 134.18 L 152.24 133.18 C 152.24 132.20 151.44 131.40 150.46 131.40 C 149.47 131.40 148.67 132.20 148.67 133.18 Z M 148.67 134.18 L 148.67 135.18 C 148.67 136.17 149.47 136.97 150.46 136.97 C 151.44 136.97 152.24 136.17 152.24 135.18 L 152.24 134.18 C 152.24 133.19 151.44 132.39 150.46 132.39 C 149.47 132.39 148.67 133.19 148.67 134.18 Z M 148.67 135.18 L 148.67 136.19 C 148.67 137.18 149.47 137.98 150.46 137.98 C 151.44 137.98 152.24 137.18 152.24 136.19 L 152.24 135.18 C 152.25 134.19 151.45 133.39 150.46 133.39 C 149.47 133.39 148.67 134.19 148.67 135.18 Z M 148.67 136.19 L 148.67 137.20 C 148.67 138.18 149.46 138.99 150.45 138.99 C 151.44 138.99 152.24 138.19 152.24 137.21 L 152.24 136.20 C 152.25 135.21 151.45 134.41 150.46 134.41 C 149.47 134.40 148.67 135.20 148.67 136.19 Z M 148.67 137.19 L 148.66 138.20 C 148.66 139.18 149.45 139.99 150.44 139.99 C 151.43 140.00 152.23 139.20 152.24 138.22 L 152.24 137.21 C 152.25 136.22 151.45 135.42 150.46 135.41 C 149.48 135.41 148.67 136.20 148.67 137.19 Z M 148.66 138.19 L 148.65 139.19 C 148.64 140.17 149.43 140.98 150.42 140.99 C 151.41 141.00 152.21 140.21 152.22 139.22 L 152.23 138.22 C 152.24 137.24 151.45 136.43 150.47 136.42 C 149.48 136.41 148.67 137.20 148.66 138.19 Z M 148.65 139.18 L 148.64 140.17 C 148.62 141.16 149.41 141.97 150.39 141.99 C 151.38 142.00 152.19 141.22 152.21 140.23 L 152.22 139.23 C 152.24 138.25 151.45 137.44 150.47 137.42 C 149.48 137.41 148.67 138.19 148.65 139.18 Z M 148.64 140.16 L 148.62 141.15 C 148.59 142.14 149.37 142.95 150.36 142.98 C 151.34 143.00 152.16 142.22 152.18 141.24 L 152.21 140.24 C 152.23 139.26 151.45 138.44 150.47 138.42 C 149.48 138.39 148.66 139.17 148.64 140.16 Z M 148.62 141.14 L 148.58 142.12 C 148.55 143.11 149.32 143.93 150.31 143.96 C 151.29 144.00 152.12 143.22 152.15 142.24 L 152.18 141.25 C 152.21 140.27 151.44 139.44 150.46 139.41 C 149.47 139.38 148.65 140.15 148.62 141.14 Z M 148.59 142.10 L 148.54 143.09 C 148.50 144.08 149.26 144.91 150.25 144.95 C 151.23 144.99 152.06 144.23 152.11 143.25 L 152.15 142.26 C 152.19 141.27 151.43 140.44 150.44 140.40 C 149.46 140.36 148.63 141.12 148.59 142.10 Z M 148.55 143.08 L 148.49 144.07 C 148.44 145.05 149.19 145.89 150.18 145.94 C 151.16 146.00 152.00 145.24 152.05 144.26 L 152.10 143.27 C 152.16 142.28 151.40 141.44 150.42 141.39 C 149.44 141.34 148.60 142.09 148.55 143.08 Z M 148.50 144.05 L 148.43 145.05 C 148.37 146.03 149.12 146.87 150.10 146.93 C 151.08 146.99 151.92 146.25 151.99 145.27 L 152.05 144.28 C 152.11 143.30 151.36 142.45 150.38 142.39 C 149.40 142.33 148.56 143.07 148.50 144.05 Z M 148.44 145.03 L 148.37 146.02 C 148.30 147.00 149.04 147.85 150.02 147.92 C 150.99 147.99 151.84 147.25 151.91 146.27 L 151.98 145.28 C 152.05 144.30 151.31 143.45 150.33 143.38 C 149.36 143.32 148.51 144.05 148.44 145.03 Z M 148.37 146.01 L 148.29 147.01 C 148.22 147.98 148.95 148.84 149.93 148.91 C 150.91 148.99 151.76 148.25 151.83 147.28 L 151.91 146.28 C 151.98 145.31 151.25 144.45 150.28 144.38 C 149.30 144.30 148.45 145.04 148.37 146.01 Z M 148.30 147.00 L 148.22 148.00 C 148.14 148.97 148.87 149.83 149.84 149.90 C 150.82 149.98 151.67 149.26 151.75 148.28 L 151.83 147.28 C 151.91 146.31 151.18 145.45 150.21 145.38 C 149.23 145.30 148.38 146.02 148.30 147.00 Z M 148.22 147.99 L 148.14 148.99 C 148.05 149.97 148.78 150.82 149.75 150.90 C 150.73 150.99 151.58 150.26 151.66 149.29 L 151.75 148.29 C 151.83 147.31 151.10 146.46 150.13 146.38 C 149.16 146.29 148.30 147.02 148.22 147.99 Z M 148.14 148.99 L 148.05 150.00 C 147.97 150.97 148.69 151.83 149.66 151.91 C 150.64 151.99 151.49 151.27 151.57 150.30 L 151.66 149.29 C 151.74 148.32 151.02 147.46 150.05 147.38 C 149.08 147.30 148.22 148.02 148.14 148.99 Z M 148.06 150.00 L 147.97 151.01 C 147.89 151.99 148.61 152.84 149.58 152.92 C 150.55 153.00 151.41 152.28 151.49 151.31 L 151.57 150.30 C 151.66 149.33 150.93 148.47 149.96 148.39 C 148.99 148.31 148.14 149.03 148.06 150.00 Z M 147.97 151.02 L 147.89 152.03 C 147.80 153.00 148.53 153.86 149.50 153.94 C 150.47 154.02 151.32 153.30 151.40 152.33 L 151.49 151.31 C 151.57 150.34 150.85 149.49 149.88 149.41 C 148.91 149.32 148.05 150.05 147.97 151.02 Z M 147.89 152.03 L 147.80 153.05 C 147.72 154.02 148.44 154.87 149.41 154.95 C 150.38 155.04 151.23 154.31 151.31 153.35 L 151.40 152.33 C 151.48 151.36 150.76 150.51 149.79 150.43 C 148.82 150.34 147.97 151.07 147.89 152.03 Z M 147.80 153.05 L 147.72 154.07 C 147.64 155.04 148.36 155.89 149.33 155.97 C 150.30 156.05 151.15 155.33 151.23 154.36 L 151.31 153.34 C 151.39 152.38 150.67 151.53 149.70 151.45 C 148.74 151.37 147.88 152.09 147.80 153.05 Z M 147.72 154.07 L 147.64 155.07 C 147.56 156.04 148.28 156.89 149.25 156.97 C 150.21 157.05 151.06 156.33 151.14 155.36 L 151.23 154.36 C 151.31 153.39 150.59 152.54 149.62 152.46 C 148.65 152.38 147.80 153.10 147.72 154.07 Z M 147.64 155.07 L 147.56 156.06 C 147.48 157.03 148.20 157.88 149.17 157.96 C 150.13 158.04 150.98 157.32 151.06 156.35 L 151.14 155.36 C 151.22 154.39 150.50 153.55 149.54 153.47 C 148.57 153.39 147.72 154.11 147.64 155.07 Z M 147.56 156.06 L 147.48 157.03 C 147.40 158.00 148.12 158.84 149.09 158.92 C 150.05 159.00 150.90 158.29 150.98 157.32 L 151.06 156.35 C 151.14 155.38 150.42 154.54 149.45 154.46 C 148.49 154.38 147.64 155.10 147.56 156.06 Z M 147.48 157.03 L 147.40 157.99 C 147.32 158.95 148.04 159.80 149.01 159.88 C 149.97 159.96 150.82 159.24 150.90 158.27 L 150.98 157.32 C 151.06 156.36 150.34 155.51 149.37 155.43 C 148.41 155.35 147.56 156.07 147.48 157.03 Z M 147.41 157.99 L 147.32 159.05 C 147.24 160.01 147.96 160.85 148.92 160.93 C 149.88 161.01 150.73 160.30 150.81 159.33 L 150.89 158.27 C 150.97 157.31 150.26 156.47 149.29 156.39 C 148.33 156.31 147.49 157.02 147.41 157.99 Z M 147.32 159.05 L 147.24 160.07 C 147.16 161.03 147.88 161.88 148.84 161.96 C 149.80 162.03 150.64 161.32 150.72 160.36 L 150.80 159.33 C 150.88 158.37 150.17 157.53 149.21 157.45 C 148.25 157.37 147.40 158.09 147.32 159.05 Z M 147.24 160.08 L 147.16 161.08 C 147.08 162.03 147.80 162.87 148.76 162.95 C 149.71 163.03 150.55 162.32 150.63 161.36 L 150.71 160.36 C 150.79 159.40 150.08 158.56 149.12 158.48 C 148.16 158.40 147.32 159.12 147.24 160.08 Z M 147.17 161.08 L 147.09 162.06 C 147.01 163.02 147.72 163.85 148.68 163.93 C 149.64 164.01 150.47 163.29 150.55 162.34 L 150.63 161.36 C 150.71 160.40 149.99 159.56 149.04 159.49 C 148.08 159.41 147.24 160.12 147.17 161.08 Z M 147.09 162.06 L 147.02 163.03 C 146.94 163.99 147.65 164.82 148.61 164.90 C 149.56 164.97 150.40 164.26 150.47 163.30 L 150.55 162.33 C 150.62 161.38 149.91 160.55 148.95 160.47 C 148.00 160.40 147.17 161.11 147.09 162.06 Z M 147.02 163.04 L 146.95 164.00 C 146.87 164.95 147.59 165.78 148.54 165.85 C 149.49 165.92 150.32 165.21 150.39 164.26 L 150.47 163.30 C 150.54 162.35 149.83 161.52 148.87 161.44 C 147.92 161.37 147.09 162.09 147.02 163.04 Z M 146.95 164.00 L 146.88 164.98 C 146.81 165.93 147.52 166.76 148.47 166.82 C 149.43 166.89 150.25 166.18 150.32 165.23 L 150.39 164.25 C 150.46 163.30 149.75 162.48 148.80 162.41 C 147.84 162.34 147.02 163.05 146.95 164.00 Z M 146.88 164.99 L 146.81 165.99 C 146.75 166.93 147.46 167.76 148.41 167.82 C 149.36 167.89 150.18 167.17 150.25 166.22 L 150.32 165.22 C 150.38 164.27 149.67 163.45 148.72 163.39 C 147.77 163.32 146.95 164.04 146.88 164.99 Z M 146.82 165.99 L 146.75 166.99 C 146.69 167.94 147.40 168.76 148.35 168.82 C 149.30 168.88 150.12 168.17 150.18 167.22 L 150.25 166.22 C 150.31 165.27 149.59 164.45 148.64 164.39 C 147.70 164.33 146.88 165.04 146.82 165.99 Z M 146.75 167.00 L 146.69 168.00 C 146.63 168.94 147.35 169.76 148.29 169.82 C 149.24 169.88 150.05 169.16 150.11 168.21 L 150.18 167.21 C 150.24 166.27 149.52 165.45 148.57 165.39 C 147.63 165.33 146.81 166.05 146.75 167.00 Z M 146.69 168.00 L 146.63 169.00 C 146.58 169.95 147.30 170.76 148.24 170.82 C 149.18 170.87 150.00 170.15 150.05 169.21 L 150.11 168.21 C 150.17 167.26 149.45 166.45 148.50 166.40 C 147.56 166.34 146.75 167.06 146.69 168.00 Z M 146.64 169.01 L 146.58 170.01 C 146.53 170.95 147.25 171.75 148.19 171.81 C 149.13 171.86 149.94 171.14 149.99 170.20 L 150.05 169.20 C 150.10 168.26 149.38 167.45 148.44 167.40 C 147.50 167.35 146.69 168.07 146.64 169.01 Z M 146.58 170.01 L 146.53 171.00 C 146.48 171.94 147.20 172.75 148.14 172.80 C 149.08 172.85 149.89 172.12 149.94 171.18 L 149.99 170.19 C 150.04 169.25 149.32 168.45 148.38 168.40 C 147.44 168.35 146.63 169.07 146.58 170.01 Z M 146.53 171.01 L 146.48 172.03 C 146.43 172.97 147.15 173.77 148.09 173.82 C 149.03 173.87 149.83 173.14 149.88 172.20 L 149.93 171.18 C 149.98 170.24 149.26 169.44 148.32 169.39 C 147.38 169.34 146.58 170.07 146.53 171.01 Z M 146.48 172.04 L 146.43 173.06 C 146.39 173.99 147.11 174.79 148.05 174.84 C 148.99 174.88 149.79 174.16 149.83 173.22 L 149.88 172.20 C 149.92 171.26 149.20 170.46 148.26 170.42 C 147.32 170.38 146.53 171.10 146.48 172.04 Z M 146.44 173.06 L 146.39 174.07 C 146.35 175.01 147.07 175.80 148.01 175.84 C 148.95 175.89 149.74 175.16 149.78 174.22 L 149.83 173.21 C 149.87 172.28 149.14 171.48 148.21 171.44 C 147.27 171.40 146.48 172.13 146.44 173.06 Z M 146.39 174.08 L 146.35 175.07 C 146.31 176.01 147.04 176.80 147.97 176.84 C 148.91 176.88 149.70 176.15 149.74 175.21 L 149.78 174.22 C 149.82 173.28 149.09 172.49 148.16 172.45 C 147.22 172.41 146.43 173.14 146.39 174.08 Z M 146.35 175.08 L 146.32 176.06 C 146.28 177.00 147.01 177.78 147.94 177.82 C 148.88 177.86 149.66 177.13 149.70 176.19 L 149.74 175.21 C 149.77 174.27 149.05 173.49 148.11 173.45 C 147.18 173.42 146.39 174.14 146.35 175.08 Z M 146.32 176.07 L 146.28 177.03 C 146.25 177.97 146.98 178.75 147.91 178.78 C 148.84 178.82 149.63 178.09 149.66 177.16 L 149.70 176.19 C 149.73 175.25 149.00 174.47 148.07 174.44 C 147.13 174.40 146.35 175.13 146.32 176.07 Z M 146.29 177.04 L 146.25 178.07 C 146.22 179.00 146.95 179.78 147.88 179.81 C 148.81 179.84 149.59 179.11 149.62 178.18 L 149.66 177.15 C 149.69 176.22 148.96 175.44 148.03 175.41 C 147.10 175.38 146.32 176.11 146.29 177.04 Z M 146.26 178.08 L 146.23 179.11 C 146.20 180.03 146.93 180.81 147.86 180.84 C 148.78 180.86 149.56 180.14 149.59 179.21 L 149.62 178.18 C 149.64 177.25 148.92 176.48 147.99 176.45 C 147.06 176.42 146.29 177.15 146.26 178.08 Z M 146.24 179.11 L 146.21 180.12 C 146.18 181.04 146.91 181.81 147.83 181.84 C 148.76 181.86 149.52 181.14 149.55 180.21 L 149.58 179.20 C 149.60 178.28 148.88 177.51 147.95 177.49 C 147.03 177.46 146.26 178.19 146.24 179.11 Z M 146.22 180.12 L 146.19 181.11 C 146.17 182.03 146.89 182.80 147.81 182.82 C 148.73 182.84 149.49 182.12 149.52 181.20 L 149.54 180.21 C 149.57 179.29 148.84 178.53 147.92 178.50 C 147.00 178.48 146.24 179.21 146.22 180.12 Z M 146.20 181.11 L 146.17 182.08 C 146.15 183.00 146.87 183.76 147.79 183.78 C 148.70 183.80 149.46 183.08 149.49 182.17 L 149.51 181.20 C 149.53 180.28 148.81 179.52 147.90 179.50 C 146.98 179.48 146.22 180.20 146.20 181.11 Z M 146.18 182.08 L 146.16 183.03 C 146.13 183.94 146.85 184.70 147.76 184.72 C 148.67 184.74 149.43 184.03 149.45 183.12 L 149.48 182.16 C 149.50 181.25 148.78 180.50 147.87 180.48 C 146.96 180.45 146.20 181.17 146.18 182.08 Z M 146.17 183.03 L 146.14 183.98 C 146.12 184.89 146.83 185.64 147.74 185.66 C 148.65 185.68 149.40 184.97 149.42 184.06 L 149.44 183.12 C 149.47 182.21 148.75 181.46 147.85 181.43 C 146.94 181.41 146.19 182.13 146.17 183.03 Z M 146.15 183.98 L 146.13 184.94 C 146.11 185.84 146.82 186.58 147.72 186.61 C 148.62 186.63 149.37 185.91 149.39 185.01 L 149.41 184.06 C 149.43 183.16 148.72 182.41 147.82 182.39 C 146.92 182.37 146.17 183.08 146.15 183.98 Z M 146.14 184.94 L 146.12 185.92 C 146.10 186.81 146.81 187.55 147.70 187.57 C 148.60 187.59 149.34 186.88 149.36 185.99 L 149.38 185.01 C 149.40 184.12 148.69 183.37 147.79 183.35 C 146.90 183.34 146.16 184.05 146.14 184.94 Z M 146.13 185.92 L 146.11 186.94 C 146.09 187.83 146.80 188.57 147.69 188.58 C 148.58 188.60 149.31 187.89 149.33 187.00 L 149.35 185.98 C 149.37 185.09 148.66 184.36 147.77 184.34 C 146.88 184.32 146.14 185.03 146.13 185.92 Z M 146.12 186.95 L 146.10 188.03 C 146.09 188.92 146.80 189.65 147.68 189.66 C 148.57 189.67 149.29 188.96 149.31 188.08 L 149.32 186.99 C 149.33 186.11 148.63 185.38 147.74 185.37 C 146.86 185.36 146.13 186.06 146.12 186.95 Z M 146.11 188.04 L 146.10 189.05 C 146.09 189.93 146.80 190.65 147.68 190.66 C 148.56 190.67 149.28 189.96 149.29 189.08 L 149.30 188.07 C 149.31 187.19 148.60 186.47 147.72 186.46 C 146.84 186.45 146.12 187.16 146.11 188.04 Z M 146.11 189.06 L 146.10 190.07 C 146.10 190.95 146.80 191.66 147.68 191.67 C 148.55 191.67 149.27 190.97 149.27 190.09 L 149.28 189.08 C 149.29 188.20 148.58 187.49 147.70 187.48 C 146.83 187.47 146.11 188.18 146.11 189.06 Z M 146.11 190.08 L 146.11 191.12 C 146.10 191.99 146.81 192.70 147.68 192.70 C 148.55 192.70 149.26 192.00 149.26 191.13 L 149.27 190.09 C 149.27 189.22 148.57 188.51 147.69 188.50 C 146.82 188.50 146.11 189.20 146.11 190.08 Z M 146.11 191.12 L 146.11 192.16 C 146.11 193.02 146.81 193.73 147.68 193.73 C 148.54 193.73 149.25 193.03 149.25 192.16 L 149.25 191.13 C 149.26 190.26 148.55 189.55 147.69 189.55 C 146.82 189.55 146.12 190.25 146.11 191.12 Z M 146.12 192.16 L 146.12 193.17 C 146.12 194.04 146.81 194.74 147.68 194.74 C 148.54 194.74 149.24 194.04 149.24 193.18 L 149.24 192.16 C 149.24 191.30 148.55 190.60 147.68 190.60 C 146.82 190.60 146.12 191.30 146.12 192.16 Z M 146.13 193.17 L 146.12 194.14 C 146.12 195.00 146.82 195.70 147.68 195.70 C 148.54 195.70 149.23 195.00 149.23 194.15 L 149.23 193.18 C 149.23 192.32 148.54 191.62 147.68 191.62 C 146.82 191.62 146.13 192.32 146.13 193.17 Z M 146.13 194.14 L 146.13 195.15 C 146.13 196.01 146.83 196.70 147.68 196.70 C 148.53 196.70 149.23 196.01 149.23 195.15 L 149.23 194.14 C 149.23 193.29 148.53 192.60 147.68 192.60 C 146.83 192.60 146.13 193.29 146.13 194.14 Z M 146.14 195.15 L 146.14 196.29 C 146.14 197.14 146.83 197.83 147.68 197.83 C 148.53 197.83 149.21 197.14 149.21 196.29 L 149.21 195.15 C 149.21 194.30 148.53 193.62 147.68 193.62 C 146.83 193.62 146.14 194.30 146.14 195.15 Z M 146.16 196.29 L 146.16 197.31 C 146.16 198.15 146.84 198.83 147.68 198.83 C 148.52 198.83 149.20 198.15 149.20 197.31 L 149.20 196.29 C 149.20 195.45 148.52 194.77 147.68 194.77 C 146.84 194.77 146.16 195.45 146.16 196.29 Z M 146.17 197.31 L 146.17 198.24 C 146.17 199.07 146.85 199.75 147.68 199.75 C 148.51 199.75 149.19 199.07 149.19 198.24 L 149.19 197.31 C 149.19 196.47 148.51 195.80 147.68 195.80 C 146.85 195.80 146.17 196.47 146.17 197.31 Z M 146.18 198.24 L 146.18 199.12 C 146.18 199.95 146.85 200.62 147.68 200.62 C 148.51 200.62 149.18 199.95 149.18 199.12 L 149.18 198.24 C 149.18 197.41 148.51 196.74 147.68 196.74 C 146.85 196.74 146.18 197.41 146.18 198.24 Z M 146.19 199.12 L 146.19 199.36 C 146.19 200.18 146.86 200.85 147.68 200.85 C 148.50 200.85 149.17 200.18 149.17 199.36 L 149.17 199.12 C 149.17 198.30 148.50 197.63 147.68 197.63 C 146.86 197.63 146.19 198.30 146.19 199.12 Z"
      fill="black"
      fill-rule="nonzero" /></svg>