<svg xmlns="http://www.w3.org/2000/svg" width="300" height="300" viewBox="0 0 300 300">
<path d="M 154.08 75.61 L 154.05 76.46 C 154.01 77.31 154.68 78.03 155.53 78.06 C 156.38 78.09 157.09 77.43 157.12 76.58 L 157.15 75.72 C 157.19 74.87 156.52 74.16 155.67 74.13 C 154.83 74.10 154.11 74.76 154.08 75.61 Z M 154.03 76.47 L 154.00 77.38 C 153.97 78.24 154.65 78.96 155.50 78.98 C 156.36 79.01 157.08 78.34 157.11 77.48 L 157.14 76.57 C 157.16 75.72 156.49 75.00 155.64 74.97 C 154.78 74.94 154.06 75.61 154.03 76.47 Z M 153.99 77.39 L 153.96 78.42 C 153.94 79.28 154.62 80.00 155.49 80.02 C 156.35 80.04 157.07 79.36 157.09 78.50 L 157.12 77.47 C 157.14 76.61 156.46 75.89 155.59 75.87 C 154.73 75.85 154.01 76.53 153.99 77.39 Z M 153.95 78.43 L 153.93 79.62 C 153.91 80.49 154.61 81.21 155.48 81.22 C 156.35 81.24 157.07 80.54 157.09 79.67 L 157.11 78.48 C 157.12 77.61 156.43 76.89 155.55 76.88 C 154.68 76.86 153.96 77.56 153.95 78.43 Z M 153.92 79.63 L 153.91 80.59 C 153.90 81.47 154.61 82.19 155.48 82.20 C 156.36 82.20 157.07 81.50 157.08 80.63 L 157.09 79.66 C 157.10 78.79 156.40 78.07 155.52 78.06 C 154.65 78.05 153.93 78.75 153.92 79.63 Z M 153.91 80.60 L 153.91 81.61 C 153.90 82.49 154.61 83.20 155.48 83.21 C 156.36 83.21 157.07 82.51 157.08 81.63 L 157.08 80.62 C 157.09 79.74 156.38 79.03 155.51 79.02 C 154.63 79.02 153.92 79.72 153.91 80.60 Z M 153.91 81.62 L 153.90 82.67 C 153.90 83.54 154.61 84.25 155.48 84.26 C 156.36 84.26 157.07 83.55 157.07 82.68 L 157.08 81.63 C 157.08 80.75 156.37 80.04 155.50 80.04 C 154.62 80.03 153.91 80.74 153.91 81.62 Z M 153.90 82.67 L 153.90 83.71 C 153.90 84.59 154.61 85.30 155.48 85.30 C 156.36 85.30 157.07 84.60 157.07 83.72 L 157.07 82.67 C 157.07 81.80 156.37 81.09 155.49 81.09 C 154.61 81.08 153.90 81.79 153.90 82.67 Z M 153.90 83.72 L 153.90 84.72 C 153.90 85.60 154.61 86.31 155.48 86.31 C 156.36 86.31 157.07 85.60 157.07 84.73 L 157.07 83.72 C 157.07 82.84 156.36 82.13 155.49 82.13 C 154.61 82.13 153.90 82.84 153.90 83.72 Z M 153.90 84.72 L 153.90 85.68 C 153.90 86.55 154.61 87.26 155.48 87.26 C 156.36 87.26 157.07 86.55 157.07 85.68 L 157.07 84.73 C 157.07 83.85 156.36 83.14 155.48 83.14 C 154.61 83.14 153.90 83.85 153.90 84.72 Z M 153.90 85.68 L 153.90 86.86 C 153.90 87.73 154.61 88.44 155.48 88.44 C 156.36 88.44 157.07 87.73 157.07 86.86 L 157.07 85.68 C 157.07 84.80 156.36 84.10 155.48 84.10 C 154.61 84.10 153.90 84.80 153.90 85.68 Z M 153.91 86.86 L 153.91 87.87 C 153.91 88.74 154.61 89.44 155.48 89.44 C 156.36 89.44 157.06 88.74 157.06 87.87 L 157.06 86.86 C 157.06 85.99 156.36 85.28 155.48 85.28 C 154.61 85.28 153.91 85.99 153.91 86.86 Z M 153.91 87.87 L 153.91 88.78 C 153.91 89.65 154.62 90.35 155.48 90.35 C 156.35 90.35 157.06 89.65 157.06 88.78 L 157.06 87.87 C 157.06 87.00 156.35 86.30 155.48 86.30 C 154.62 86.30 153.91 87.00 153.91 87.87 Z M 153.92 88.78 L 153.92 89.66 C 153.92 90.53 154.62 91.23 155.48 91.23 C 156.35 91.23 157.05 90.53 157.05 89.66 L 157.05 88.78 C 157.05 87.92 156.35 87.22 155.48 87.22 C 154.62 87.22 153.92 87.92 153.92 88.78 Z M 153.92 89.66 L 153.92 90.63 C 153.92 91.49 154.62 92.19 155.48 92.19 C 156.35 92.19 157.04 91.49 157.04 90.63 L 157.04 89.66 C 157.04 88.80 156.35 88.10 155.48 88.10 C 154.62 88.10 153.92 88.80 153.92 89.66 Z M 153.93 90.63 L 153.93 91.62 C 153.93 92.48 154.63 93.18 155.48 93.18 C 156.34 93.18 157.04 92.48 157.04 91.62 L 157.04 90.63 C 157.04 89.77 156.34 89.07 155.48 89.07 C 154.63 89.07 153.93 89.77 153.93 90.63 Z M 153.93 91.62 L 153.93 92.64 C 153.93 93.50 154.63 94.19 155.48 94.19 C 156.34 94.19 157.04 93.50 157.04 92.64 L 157.04 91.62 C 157.04 90.77 156.34 90.07 155.48 90.07 C 154.63 90.07 153.93 90.77 153.93 91.62 Z M 153.94 92.64 L 153.94 93.66 C 153.94 94.52 154.63 95.21 155.48 95.21 C 156.34 95.21 157.03 94.52 157.03 93.66 L 157.03 92.64 C 157.03 91.78 156.34 91.09 155.48 91.09 C 154.63 91.09 153.94 91.78 153.94 92.64 Z M 153.94 93.66 L 153.94 94.65 C 153.94 95.51 154.63 96.20 155.48 96.20 C 156.34 96.20 157.03 95.51 157.03 94.65 L 157.03 93.66 C 157.03 92.81 156.34 92.12 155.48 92.12 C 154.63 92.12 153.94 92.81 153.94 93.66 Z M 153.94 94.65 L 153.94 95.66 C 153.94 96.51 154.63 97.20 155.48 97.20 C 156.33 97.20 157.02 96.51 157.02 95.66 L 157.02 94.65 C 157.02 93.80 156.33 93.11 155.48 93.11 C 154.63 93.11 153.94 93.80 153.94 94.65 Z M 153.95 95.66 L 153.95 96.66 C 153.95 97.51 154.64 98.19 155.48 98.19 C 156.33 98.19 157.02 97.51 157.02 96.66 L 157.02 95.66 C 157.02 94.81 156.33 94.12 155.48 94.12 C 154.64 94.12 153.95 94.81 153.95 95.66 Z M 153.95 96.66 L 153.95 97.66 C 153.95 98.51 154.64 99.19 155.48 99.19 C 156.33 99.19 157.02 98.51 157.02 97.66 L 157.02 96.66 C 157.02 95.81 156.33 95.13 155.48 95.13 C 154.64 95.13 153.95 95.81 153.95 96.66 Z M 153.96 97.66 L 153.96 98.66 C 153.96 99.50 154.64 100.18 155.48 100.18 C 156.33 100.18 157.01 99.50 157.01 98.66 L 157.01 97.66 C 157.01 96.82 156.33 96.13 155.48 96.13 C 154.64 96.13 153.96 96.82 153.96 97.66 Z M 153.96 98.66 L 153.96 99.65 C 153.96 100.50 154.64 101.18 155.48 101.18 C 156.33 101.18 157.01 100.50 157.01 99.65 L 157.01 98.66 C 157.01 97.82 156.33 97.13 155.48 97.13 C 154.64 97.13 153.96 97.82 153.96 98.66 Z M 153.97 99.65 L 153.97 100.66 C 153.97 101.50 154.65 102.18 155.48 102.18 C 156.32 102.18 157.00 101.50 157.00 100.66 L 157.00 99.65 C 157.00 98.82 156.32 98.14 155.48 98.14 C 154.65 98.14 153.97 98.82 153.97 99.65 Z M 153.97 100.66 L 153.97 101.67 C 153.97 102.51 154.65 103.18 155.48 103.18 C 156.32 103.18 157.00 102.51 157.00 101.67 L 157.00 100.66 C 157.00 99.82 156.32 99.14 155.48 99.14 C 154.65 99.14 153.97 99.82 153.97 100.66 Z M 153.98 101.67 L 153.98 102.69 C 153.98 103.53 154.65 104.20 155.48 104.20 C 156.32 104.20 156.99 103.53 156.99 102.69 L 156.99 101.67 C 156.99 100.84 156.32 100.16 155.48 100.16 C 154.65 100.16 153.98 100.84 153.98 101.67 Z M 153.98 102.69 L 153.98 103.71 C 153.98 104.54 154.65 105.21 155.48 105.21 C 156.31 105.21 156.99 104.54 156.99 103.71 L 156.99 102.69 C 156.99 101.86 156.31 101.19 155.48 101.19 C 154.65 101.19 153.98 101.86 153.98 102.69 Z M 153.99 103.71 L 153.99 104.69 C 153.99 105.52 154.66 106.19 155.48 106.19 C 156.31 106.19 156.98 105.52 156.98 104.69 L 156.98 103.71 C 156.98 102.88 156.31 102.21 155.48 102.21 C 154.66 102.21 153.99 102.88 153.99 103.71 Z M 153.99 104.69 L 153.99 105.66 C 153.99 106.48 154.66 107.15 155.48 107.15 C 156.31 107.15 156.98 106.48 156.98 105.66 L 156.98 104.69 C 156.98 103.87 156.31 103.20 155.48 103.20 C 154.66 103.20 153.99 103.87 153.99 104.69 Z M 154.00 105.66 L 154.00 106.63 C 154.00 107.45 154.66 108.12 155.48 108.12 C 156.31 108.12 156.97 107.45 156.97 106.63 L 156.97 105.66 C 156.97 104.84 156.31 104.17 155.48 104.17 C 154.66 104.17 154.00 104.84 154.00 105.66 Z M 154.00 106.63 L 154.00 107.60 C 154.00 108.42 154.67 109.09 155.48 109.09 C 156.30 109.09 156.97 108.42 156.97 107.60 L 156.97 106.63 C 156.97 105.81 156.30 105.15 155.48 105.15 C 154.67 105.15 154.00 105.81 154.00 106.63 Z M 154.01 107.60 L 154.01 108.63 C 154.01 109.45 154.67 110.11 155.48 110.11 C 156.30 110.11 156.96 109.45 156.96 108.63 L 156.96 107.60 C 156.96 106.79 156.30 106.13 155.48 106.13 C 154.67 106.13 154.01 106.79 154.01 107.60 Z M 154.01 108.63 L 154.01 109.65 C 154.01 110.46 154.67 111.12 155.48 111.12 C 156.30 111.12 156.96 110.46 156.96 109.65 L 156.95 108.63 C 156.95 107.82 156.30 107.16 155.48 107.16 C 154.67 107.16 154.01 107.82 154.01 108.63 Z M 154.02 109.65 L 154.02 110.66 C 154.02 111.47 154.68 112.13 155.49 112.13 C 156.30 112.13 156.95 111.47 156.95 110.66 L 156.95 109.64 C 156.95 108.83 156.29 108.18 155.48 108.18 C 154.67 108.18 154.02 108.84 154.02 109.65 Z M 154.02 110.67 L 154.03 111.70 C 154.03 112.51 154.69 113.16 155.50 113.16 C 156.30 113.15 156.95 112.50 156.95 111.69 L 156.95 110.66 C 156.94 109.85 156.29 109.20 155.48 109.20 C 154.67 109.20 154.02 109.86 154.02 110.67 Z M 154.03 111.71 L 154.04 112.71 C 154.05 113.51 154.71 114.16 155.51 114.15 C 156.31 114.15 156.96 113.49 156.95 112.69 L 156.95 111.68 C 156.94 110.88 156.28 110.23 155.48 110.24 C 154.67 110.24 154.03 110.90 154.03 111.71 Z M 154.05 112.72 L 154.06 113.74 C 154.08 114.54 154.74 115.18 155.54 115.17 C 156.34 115.15 156.98 114.49 156.97 113.69 L 156.95 112.67 C 156.94 111.87 156.28 111.23 155.48 111.25 C 154.67 111.26 154.03 111.92 154.05 112.72 Z M 154.07 113.75 L 154.10 114.82 C 154.12 115.62 154.78 116.25 155.58 116.23 C 156.38 116.20 157.01 115.54 156.99 114.74 L 156.96 113.68 C 156.94 112.88 156.27 112.25 155.48 112.27 C 154.68 112.29 154.05 112.96 154.07 113.75 Z M 154.10 114.83 L 154.14 115.80 C 154.17 116.59 154.84 117.21 155.63 117.18 C 156.42 117.16 157.04 116.49 157.02 115.69 L 156.98 114.73 C 156.95 113.93 156.28 113.31 155.49 113.34 C 154.70 113.37 154.08 114.04 154.10 114.83 Z M 154.15 115.81 L 154.18 116.72 C 154.22 117.51 154.89 118.13 155.68 118.09 C 156.47 118.06 157.08 117.39 157.05 116.60 L 157.01 115.69 C 156.97 114.90 156.31 114.28 155.52 114.32 C 154.73 114.35 154.11 115.02 154.15 115.81 Z"
      fill="black"
      fill-rule="nonzero" /><path d="M 158.04 102.91 L 157.93 101.76 C 157.86 100.93 157.13 100.33 156.30 100.40 C 155.47 100.48 154.86 101.21 154.94 102.04 L 155.05 103.19 C 155.12 104.01 155.85 104.62 156.68 104.55 C 157.51 104.47 158.12 103.74 158.04 102.91 Z M 157.94 101.78 L 157.86 100.66 C 157.79 99.83 157.07 99.21 156.24 99.27 C 155.40 99.33 154.78 100.06 154.84 100.89 L 154.93 102.02 C 154.99 102.85 155.72 103.47 156.55 103.41 C 157.39 103.34 158.01 102.62 157.94 101.78 Z M 157.87 100.71 L 157.82 99.64 C 157.79 98.80 157.08 98.15 156.24 98.19 C 155.40 98.23 154.75 98.93 154.79 99.77 L 154.83 100.84 C 154.87 101.68 155.58 102.33 156.42 102.29 C 157.26 102.26 157.91 101.55 157.87 100.71 Z M 157.83 99.72 L 157.84 98.73 C 157.85 97.89 157.18 97.20 156.33 97.19 C 155.49 97.18 154.80 97.86 154.79 98.70 L 154.78 99.69 C 154.77 100.53 155.44 101.23 156.29 101.23 C 157.13 101.24 157.82 100.57 157.83 99.72 Z M 157.84 98.87 L 157.93 97.99 C 158.02 97.14 157.40 96.39 156.56 96.30 C 155.71 96.22 154.96 96.83 154.88 97.68 L 154.79 98.56 C 154.70 99.41 155.32 100.16 156.16 100.24 C 157.01 100.33 157.76 99.71 157.84 98.87 Z M 157.90 98.20 L 158.09 97.45 C 158.29 96.62 157.79 95.79 156.96 95.58 C 156.13 95.38 155.30 95.88 155.09 96.71 L 154.91 97.46 C 154.70 98.29 155.20 99.13 156.03 99.33 C 156.86 99.54 157.70 99.03 157.90 98.20 Z M 157.94 97.84 L 158.38 97.06 C 158.80 96.31 158.53 95.37 157.78 94.95 C 157.04 94.53 156.09 94.80 155.68 95.54 L 155.24 96.32 C 154.82 97.07 155.09 98.01 155.83 98.43 C 156.58 98.85 157.52 98.58 157.94 97.84 Z M 158.02 97.48 L 158.69 96.93 C 159.34 96.38 159.42 95.40 158.88 94.75 C 158.33 94.09 157.35 94.01 156.70 94.56 L 156.03 95.12 C 155.38 95.67 155.29 96.64 155.84 97.29 C 156.39 97.95 157.37 98.03 158.02 97.48 Z M 158.32 97.15 L 159.19 96.76 C 159.97 96.42 160.32 95.50 159.98 94.72 C 159.63 93.94 158.72 93.59 157.94 93.94 L 157.06 94.33 C 156.28 94.68 155.93 95.59 156.28 96.37 C 156.63 97.15 157.54 97.50 158.32 97.15 Z M 158.98 96.84 L 160.05 96.54 C 160.87 96.32 161.36 95.47 161.13 94.65 C 160.90 93.82 160.05 93.34 159.23 93.57 L 158.16 93.86 C 157.34 94.09 156.85 94.94 157.08 95.76 C 157.30 96.58 158.15 97.07 158.98 96.84 Z M 159.97 96.56 L 161.01 96.33 C 161.84 96.15 162.36 95.33 162.18 94.50 C 162.00 93.67 161.18 93.14 160.35 93.33 L 159.31 93.55 C 158.48 93.73 157.96 94.55 158.14 95.38 C 158.32 96.21 159.14 96.74 159.97 96.56 Z M 160.98 96.33 L 161.93 96.13 C 162.76 95.96 163.29 95.16 163.12 94.33 C 162.96 93.50 162.15 92.97 161.32 93.14 L 160.37 93.33 C 159.54 93.50 159.01 94.31 159.18 95.14 C 159.35 95.96 160.16 96.50 160.98 96.33 Z M 161.92 96.12 L 162.92 95.93 C 163.74 95.77 164.28 94.97 164.11 94.15 C 163.95 93.32 163.15 92.79 162.33 92.95 L 161.33 93.15 C 160.51 93.31 159.98 94.11 160.14 94.93 C 160.30 95.75 161.10 96.29 161.92 96.12 Z M 162.91 95.92 L 163.93 95.72 C 164.75 95.56 165.28 94.77 165.13 93.96 C 164.97 93.14 164.18 92.61 163.36 92.76 L 162.34 92.96 C 161.52 93.12 160.99 93.91 161.15 94.72 C 161.30 95.54 162.09 96.07 162.91 95.92 Z M 163.93 95.71 L 164.95 95.52 C 165.76 95.36 166.29 94.58 166.14 93.77 C 165.98 92.96 165.20 92.43 164.39 92.58 L 163.37 92.77 C 162.56 92.93 162.02 93.71 162.18 94.52 C 162.33 95.33 163.11 95.86 163.93 95.71 Z M 164.94 95.51 L 165.94 95.32 C 166.74 95.16 167.27 94.39 167.12 93.58 C 166.96 92.78 166.19 92.25 165.38 92.40 L 164.39 92.59 C 163.59 92.74 163.06 93.52 163.21 94.33 C 163.36 95.13 164.14 95.66 164.94 95.51 Z M 165.94 95.31 L 166.94 95.11 C 167.74 94.96 168.26 94.19 168.10 93.39 C 167.95 92.59 167.18 92.07 166.38 92.22 L 165.38 92.41 C 164.58 92.57 164.06 93.34 164.21 94.14 C 164.37 94.94 165.14 95.46 165.94 95.31 Z M 166.94 95.10 L 168.04 94.89 C 168.83 94.73 169.35 93.96 169.19 93.17 C 169.03 92.38 168.26 91.86 167.47 92.02 L 166.38 92.23 C 165.58 92.39 165.07 93.16 165.22 93.95 C 165.38 94.74 166.15 95.26 166.94 95.10 Z M 168.04 94.88 L 169.05 94.67 C 169.84 94.51 170.34 93.75 170.18 92.96 C 170.03 92.17 169.26 91.66 168.47 91.82 L 167.46 92.03 C 166.68 92.19 166.17 92.95 166.33 93.74 C 166.49 94.53 167.26 95.04 168.04 94.88 Z M 169.05 94.66 L 169.99 94.47 C 170.78 94.31 171.28 93.54 171.12 92.76 C 170.95 91.98 170.19 91.48 169.41 91.64 L 168.47 91.83 C 167.69 91.99 167.18 92.76 167.34 93.54 C 167.51 94.32 168.27 94.82 169.05 94.66 Z M 170.00 94.46 L 170.90 94.27 C 171.67 94.10 172.17 93.34 172.01 92.57 C 171.84 91.79 171.08 91.29 170.31 91.46 L 169.41 91.65 C 168.63 91.81 168.13 92.57 168.30 93.35 C 168.46 94.12 169.22 94.62 170.00 94.46 Z M 170.90 94.26 L 171.52 94.13 C 172.30 93.96 172.79 93.21 172.62 92.43 C 172.46 91.66 171.70 91.17 170.93 91.33 L 170.31 91.47 C 169.53 91.63 169.04 92.39 169.20 93.16 C 169.37 93.93 170.13 94.42 170.90 94.26 Z"
      fill="black"
      fill-rule="nonzero" /><path d="M 140.55 91.60 L 140.27 92.46 C 140.01 93.25 140.44 94.11 141.24 94.37 C 142.03 94.63 142.89 94.20 143.15 93.40 L 143.43 92.54 C 143.69 91.75 143.26 90.89 142.46 90.63 C 141.67 90.37 140.81 90.80 140.55 91.60 Z M 140.25 92.50 L 139.98 93.40 C 139.75 94.20 140.21 95.05 141.01 95.29 C 141.82 95.53 142.67 95.06 142.90 94.26 L 143.17 93.36 C 143.41 92.55 142.95 91.71 142.14 91.47 C 141.33 91.23 140.49 91.69 140.25 92.50 Z M 139.96 93.47 L 139.72 94.45 C 139.53 95.27 140.04 96.10 140.86 96.29 C 141.68 96.49 142.50 95.98 142.70 95.16 L 142.93 94.18 C 143.13 93.36 142.62 92.54 141.80 92.34 C 140.98 92.15 140.15 92.65 139.96 93.47 Z M 139.70 94.55 L 139.51 95.65 C 139.37 96.49 139.94 97.28 140.77 97.42 C 141.61 97.56 142.40 96.99 142.54 96.16 L 142.72 95.06 C 142.86 94.22 142.30 93.43 141.46 93.29 C 140.63 93.15 139.84 93.72 139.70 94.55 Z M 139.50 95.74 L 139.40 96.66 C 139.31 97.51 139.92 98.26 140.77 98.35 C 141.61 98.44 142.37 97.83 142.46 96.99 L 142.56 96.07 C 142.64 95.22 142.03 94.46 141.19 94.37 C 140.34 94.29 139.59 94.90 139.50 95.74 Z M 139.39 96.73 L 139.34 97.65 C 139.28 98.50 139.93 99.23 140.77 99.28 C 141.62 99.33 142.35 98.69 142.41 97.84 L 142.46 96.92 C 142.52 96.07 141.87 95.34 141.03 95.29 C 140.18 95.24 139.45 95.88 139.39 96.73 Z M 139.33 97.70 L 139.30 98.68 C 139.27 99.53 139.94 100.24 140.79 100.26 C 141.64 100.29 142.35 99.62 142.38 98.78 L 142.41 97.79 C 142.44 96.95 141.77 96.24 140.92 96.21 C 140.07 96.18 139.36 96.85 139.33 97.70 Z M 139.30 98.71 L 139.29 99.74 C 139.29 100.59 139.97 101.29 140.82 101.29 C 141.67 101.30 142.36 100.61 142.37 99.76 L 142.38 98.74 C 142.38 97.89 141.70 97.19 140.85 97.19 C 140.00 97.18 139.31 97.87 139.30 98.71 Z M 139.29 99.77 L 139.31 100.84 C 139.32 101.69 140.02 102.37 140.87 102.36 C 141.72 102.34 142.39 101.65 142.38 100.80 L 142.37 99.73 C 142.36 98.88 141.66 98.20 140.81 98.22 C 139.96 98.23 139.28 98.92 139.29 99.77 Z M 139.31 100.86 L 139.34 101.95 C 139.36 102.80 140.07 103.47 140.92 103.44 C 141.77 103.42 142.44 102.71 142.42 101.86 L 142.38 100.77 C 142.36 99.92 141.65 99.26 140.80 99.28 C 139.95 99.30 139.28 100.01 139.31 100.86 Z M 139.34 101.97 L 139.39 103.02 C 139.42 103.86 140.14 104.52 140.99 104.49 C 141.83 104.45 142.49 103.74 142.46 102.89 L 142.41 101.84 C 142.38 100.99 141.66 100.34 140.81 100.37 C 139.97 100.41 139.31 101.12 139.34 101.97 Z M 139.39 103.03 L 139.45 104.06 C 139.49 104.91 140.21 105.56 141.06 105.51 C 141.90 105.47 142.55 104.75 142.50 103.90 L 142.45 102.87 C 142.41 102.03 141.69 101.38 140.84 101.42 C 140.00 101.47 139.35 102.19 139.39 103.03 Z M 139.45 104.07 L 139.51 105.10 C 139.56 105.94 140.29 106.58 141.13 106.53 C 141.97 106.48 142.61 105.76 142.56 104.92 L 142.50 103.89 C 142.45 103.05 141.73 102.41 140.88 102.46 C 140.04 102.51 139.40 103.23 139.45 104.07 Z M 139.52 105.11 L 139.59 106.12 C 139.64 106.96 140.36 107.59 141.20 107.54 C 142.04 107.48 142.67 106.76 142.62 105.92 L 142.55 104.91 C 142.50 104.07 141.78 103.44 140.94 103.49 C 140.10 103.55 139.47 104.27 139.52 105.11 Z M 139.59 106.12 L 139.66 107.11 C 139.72 107.95 140.44 108.58 141.27 108.52 C 142.11 108.46 142.74 107.74 142.68 106.91 L 142.61 105.92 C 142.56 105.08 141.83 104.45 141.00 104.51 C 140.17 104.57 139.54 105.29 139.59 106.12 Z M 139.67 107.12 L 139.73 108.08 C 139.79 108.91 140.51 109.53 141.34 109.48 C 142.17 109.42 142.80 108.70 142.74 107.87 L 142.67 106.91 C 142.62 106.08 141.90 105.45 141.07 105.51 C 140.24 105.56 139.61 106.28 139.67 107.12 Z M 139.74 108.07 L 139.80 109.02 C 139.86 109.85 140.57 110.48 141.40 110.42 C 142.23 110.37 142.85 109.65 142.80 108.82 L 142.73 107.87 C 142.68 107.05 141.96 106.42 141.14 106.48 C 140.31 106.53 139.68 107.25 139.74 108.07 Z M 139.81 109.02 L 139.87 110.01 C 139.92 110.83 140.63 111.46 141.46 111.41 C 142.28 111.36 142.91 110.65 142.85 109.82 L 142.79 108.83 C 142.74 108.01 142.03 107.38 141.21 107.43 C 140.38 107.48 139.76 108.19 139.81 109.02 Z M 139.88 110.00 L 139.93 110.97 C 139.98 111.79 140.68 112.41 141.50 112.37 C 142.32 112.32 142.95 111.62 142.90 110.80 L 142.85 109.83 C 142.80 109.01 142.10 108.39 141.28 108.43 C 140.46 108.48 139.83 109.18 139.88 110.00 Z M 139.94 110.95 L 139.99 111.92 C 140.03 112.73 140.72 113.36 141.54 113.32 C 142.35 113.28 142.98 112.59 142.94 111.78 L 142.89 110.81 C 142.85 110.00 142.16 109.37 141.35 109.41 C 140.53 109.45 139.90 110.14 139.94 110.95 Z M 140.00 111.91 L 140.04 112.89 C 140.07 113.70 140.75 114.33 141.56 114.30 C 142.37 114.27 143.00 113.59 142.97 112.78 L 142.93 111.79 C 142.90 110.98 142.22 110.35 141.41 110.38 C 140.60 110.41 139.97 111.10 140.00 111.91 Z M 140.04 112.88 L 140.08 113.91 C 140.10 114.71 140.77 115.35 141.58 115.32 C 142.39 115.30 143.02 114.63 142.99 113.82 L 142.96 112.79 C 142.94 111.98 142.27 111.35 141.46 111.37 C 140.65 111.40 140.02 112.07 140.04 112.88 Z M 140.08 113.90 L 140.10 114.92 C 140.12 115.72 140.79 116.36 141.59 116.34 C 142.39 116.32 143.03 115.66 143.01 114.86 L 142.99 113.83 C 142.97 113.03 142.31 112.39 141.50 112.41 C 140.70 112.43 140.07 113.09 140.08 113.90 Z M 140.11 114.91 L 140.12 115.88 C 140.13 116.68 140.79 117.32 141.59 117.31 C 142.39 117.30 143.03 116.64 143.02 115.84 L 143.01 114.87 C 142.99 114.07 142.34 113.43 141.54 113.44 C 140.74 113.45 140.10 114.11 140.11 114.91 Z M 140.13 115.87 L 140.13 116.88 C 140.13 117.68 140.79 118.32 141.58 118.32 C 142.38 118.31 143.03 117.66 143.02 116.87 L 143.02 115.86 C 143.01 115.06 142.36 114.41 141.56 114.42 C 140.76 114.42 140.12 115.07 140.13 115.87 Z M 140.13 116.87 L 140.13 117.90 C 140.13 118.69 140.77 119.34 141.57 119.34 C 142.36 119.35 143.01 118.70 143.01 117.91 L 143.02 116.88 C 143.02 116.08 142.38 115.43 141.58 115.43 C 140.78 115.43 140.14 116.07 140.13 116.87 Z M 140.13 117.88 L 140.12 118.91 C 140.11 119.71 140.74 120.36 141.54 120.37 C 142.33 120.38 142.98 119.75 143.00 118.95 L 143.01 117.92 C 143.02 117.13 142.39 116.47 141.59 116.46 C 140.80 116.45 140.14 117.09 140.13 117.88 Z M 140.12 118.89 L 140.09 119.91 C 140.07 120.70 140.70 121.36 141.49 121.38 C 142.28 121.41 142.94 120.78 142.97 119.99 L 142.99 118.97 C 143.01 118.18 142.39 117.52 141.60 117.50 C 140.80 117.47 140.14 118.10 140.12 118.89 Z M 140.10 119.89 L 140.06 120.87 C 140.02 121.66 140.64 122.33 141.43 122.37 C 142.22 122.40 142.89 121.79 142.92 120.99 L 142.96 120.01 C 143.00 119.22 142.38 118.55 141.59 118.52 C 140.80 118.48 140.13 119.10 140.10 119.89 Z M 140.06 120.84 L 139.99 121.89 C 139.94 122.68 140.54 123.35 141.33 123.40 C 142.12 123.45 142.80 122.85 142.85 122.07 L 142.92 121.02 C 142.97 120.23 142.37 119.55 141.58 119.50 C 140.79 119.46 140.11 120.05 140.06 120.84 Z M 140.00 121.85 L 139.90 122.92 C 139.84 123.71 140.42 124.40 141.20 124.47 C 141.99 124.54 142.68 123.96 142.75 123.17 L 142.85 122.10 C 142.91 121.31 142.33 120.62 141.55 120.55 C 140.76 120.48 140.07 121.07 140.00 121.85 Z M 139.91 122.89 L 139.80 123.90 C 139.71 124.69 140.28 125.39 141.06 125.48 C 141.85 125.57 142.55 125.00 142.64 124.22 L 142.75 123.21 C 142.84 122.42 142.27 121.71 141.49 121.63 C 140.70 121.54 139.99 122.11 139.91 122.89 Z M 139.80 123.88 L 139.68 124.84 C 139.57 125.62 140.13 126.34 140.91 126.44 C 141.69 126.54 142.41 125.99 142.51 125.21 L 142.63 124.24 C 142.73 123.46 142.18 122.75 141.40 122.64 C 140.62 122.54 139.90 123.09 139.80 123.88 Z M 139.68 124.82 L 139.55 125.76 C 139.43 126.54 139.97 127.26 140.75 127.37 C 141.53 127.49 142.26 126.94 142.37 126.16 L 142.50 125.23 C 142.62 124.45 142.08 123.73 141.30 123.61 C 140.52 123.50 139.79 124.04 139.68 124.82 Z M 139.55 125.75 L 139.41 126.66 C 139.29 127.44 139.82 128.17 140.60 128.29 C 141.38 128.41 142.11 127.87 142.23 127.09 L 142.37 126.18 C 142.49 125.40 141.95 124.67 141.17 124.55 C 140.39 124.43 139.67 124.97 139.55 125.75 Z M 139.41 126.66 L 139.39 126.78 C 139.27 127.55 139.81 128.28 140.58 128.40 C 141.36 128.52 142.09 127.99 142.21 127.21 L 142.23 127.10 C 142.35 126.32 141.81 125.59 141.03 125.47 C 140.26 125.35 139.53 125.88 139.41 126.66 Z"
      fill="black"
      fill-rule="nonzero" /><path d="M 128.59 134.71 L 127.62 134.37 C 126.84 134.10 125.98 134.51 125.71 135.29 C 125.44 136.08 125.86 136.93 126.64 137.20 L 127.61 137.54 C 128.39 137.81 129.25 137.40 129.52 136.61 C 129.79 135.83 129.37 134.98 128.59 134.71 Z M 127.63 134.36 L 126.68 134.02 C 125.89 133.75 125.03 134.16 124.75 134.95 C 124.47 135.73 124.89 136.60 125.67 136.87 L 126.63 137.21 C 127.41 137.49 128.28 137.07 128.55 136.29 C 128.83 135.50 128.42 134.64 127.63 134.36 Z M 126.69 134.02 L 125.77 133.68 C 124.98 133.40 124.11 133.80 123.82 134.59 C 123.53 135.38 123.94 136.25 124.73 136.54 L 125.65 136.88 C 126.44 137.16 127.32 136.76 127.60 135.97 C 127.89 135.18 127.48 134.31 126.69 134.02 Z M 125.80 133.68 L 124.76 133.27 C 123.97 132.97 123.08 133.36 122.77 134.15 C 122.47 134.94 122.86 135.83 123.65 136.14 L 124.69 136.54 C 125.49 136.85 126.38 136.46 126.68 135.67 C 126.99 134.88 126.60 133.99 125.80 133.68 Z M 124.93 133.32 L 123.96 132.81 C 123.19 132.41 122.25 132.71 121.84 133.47 C 121.44 134.24 121.74 135.19 122.51 135.59 L 123.48 136.10 C 124.25 136.50 125.19 136.20 125.59 135.43 C 126.00 134.67 125.70 133.72 124.93 133.32 Z M 124.62 133.39 L 124.29 132.81 C 123.84 132.04 122.86 131.78 122.09 132.22 C 121.32 132.67 121.06 133.65 121.51 134.42 L 121.84 135.00 C 122.29 135.77 123.27 136.03 124.04 135.59 C 124.81 135.15 125.07 134.16 124.62 133.39 Z M 124.25 134.52 L 124.61 133.98 C 125.11 133.23 124.91 132.22 124.17 131.72 C 123.42 131.22 122.41 131.42 121.90 132.17 L 121.54 132.71 C 121.04 133.45 121.24 134.47 121.99 134.97 C 122.74 135.47 123.75 135.27 124.25 134.52 Z M 124.20 134.41 L 125.02 133.84 C 125.76 133.31 125.94 132.29 125.42 131.55 C 124.90 130.81 123.88 130.63 123.14 131.15 L 122.31 131.73 C 121.57 132.25 121.40 133.28 121.92 134.02 C 122.44 134.76 123.46 134.94 124.20 134.41 Z M 124.83 133.96 L 125.95 133.39 C 126.76 132.97 127.08 131.98 126.66 131.17 C 126.25 130.36 125.25 130.04 124.44 130.45 L 123.33 131.03 C 122.52 131.44 122.20 132.44 122.61 133.25 C 123.03 134.06 124.02 134.38 124.83 133.96 Z M 125.85 133.44 L 126.74 133.06 C 127.58 132.70 127.96 131.72 127.60 130.88 C 127.24 130.04 126.26 129.66 125.42 130.02 L 124.54 130.40 C 123.70 130.77 123.32 131.74 123.68 132.58 C 124.04 133.42 125.01 133.80 125.85 133.44 Z M 126.68 133.08 L 127.56 132.74 C 128.41 132.41 128.83 131.45 128.50 130.59 C 128.17 129.74 127.21 129.32 126.36 129.66 L 125.48 130.00 C 124.63 130.33 124.21 131.29 124.54 132.14 C 124.87 132.99 125.83 133.41 126.68 133.08 Z M 127.53 132.75 L 128.46 132.41 C 129.32 132.09 129.76 131.14 129.44 130.28 C 129.13 129.43 128.18 128.99 127.32 129.30 L 126.39 129.64 C 125.53 129.96 125.09 130.91 125.41 131.77 C 125.72 132.62 126.67 133.06 127.53 132.75 Z M 128.45 132.41 L 129.44 132.06 C 130.30 131.75 130.74 130.80 130.44 129.94 C 130.13 129.08 129.18 128.63 128.32 128.94 L 127.33 129.30 C 126.47 129.61 126.02 130.55 126.33 131.41 C 126.64 132.27 127.59 132.72 128.45 132.41 Z M 129.44 132.06 L 130.47 131.68 C 131.33 131.37 131.77 130.43 131.46 129.57 C 131.15 128.71 130.21 128.26 129.35 128.57 L 128.32 128.94 C 127.46 129.25 127.01 130.20 127.32 131.06 C 127.63 131.92 128.58 132.37 129.44 132.06 Z M 130.48 131.68 L 131.42 131.33 C 132.27 131.02 132.71 130.07 132.40 129.21 C 132.08 128.35 131.13 127.92 130.27 128.23 L 129.34 128.58 C 128.48 128.89 128.04 129.84 128.36 130.70 C 128.67 131.56 129.62 132.00 130.48 131.68 Z M 131.43 131.33 L 132.39 130.97 C 133.24 130.65 133.68 129.70 133.36 128.84 C 133.03 127.99 132.08 127.55 131.23 127.87 L 130.26 128.23 C 129.41 128.55 128.98 129.51 129.30 130.36 C 129.62 131.22 130.57 131.65 131.43 131.33 Z M 132.39 130.97 L 133.35 130.61 C 134.21 130.28 134.64 129.33 134.32 128.47 C 133.99 127.62 133.04 127.19 132.18 127.51 L 131.22 127.88 C 130.37 128.20 129.93 129.15 130.26 130.01 C 130.58 130.86 131.54 131.29 132.39 130.97 Z M 133.36 130.61 L 134.30 130.25 C 135.16 129.92 135.59 128.97 135.26 128.11 C 134.94 127.26 133.98 126.83 133.13 127.15 L 132.18 127.51 C 131.33 127.84 130.90 128.79 131.22 129.65 C 131.55 130.50 132.50 130.93 133.36 130.61 Z M 134.30 130.25 L 135.21 129.91 C 136.07 129.58 136.50 128.63 136.17 127.77 C 135.85 126.91 134.89 126.48 134.04 126.81 L 133.13 127.15 C 132.27 127.47 131.84 128.43 132.17 129.29 C 132.49 130.14 133.45 130.57 134.30 130.25 Z M 135.20 129.91 L 136.19 129.54 C 137.04 129.22 137.48 128.26 137.16 127.41 C 136.84 126.55 135.88 126.12 135.03 126.44 L 134.04 126.80 C 133.19 127.13 132.75 128.08 133.07 128.94 C 133.39 129.80 134.35 130.23 135.20 129.91 Z M 136.18 129.54 L 137.19 129.17 C 138.05 128.85 138.48 127.90 138.17 127.04 C 137.85 126.18 136.90 125.74 136.04 126.06 L 135.03 126.43 C 134.17 126.75 133.73 127.71 134.05 128.56 C 134.37 129.42 135.32 129.86 136.18 129.54 Z M 137.19 129.17 L 138.11 128.83 C 138.97 128.51 139.41 127.56 139.09 126.70 C 138.78 125.84 137.82 125.40 136.96 125.72 L 136.04 126.06 C 135.18 126.38 134.74 127.33 135.06 128.19 C 135.37 129.05 136.33 129.49 137.19 129.17 Z M 138.12 128.83 L 138.99 128.50 C 139.85 128.18 140.28 127.22 139.96 126.37 C 139.64 125.51 138.69 125.07 137.83 125.39 L 136.96 125.72 C 136.10 126.04 135.66 127.00 135.99 127.86 C 136.31 128.71 137.26 129.15 138.12 128.83 Z M 139.01 128.50 L 139.87 128.16 C 140.73 127.83 141.15 126.87 140.83 126.02 C 140.50 125.16 139.54 124.74 138.68 125.07 L 137.81 125.40 C 136.96 125.73 136.53 126.69 136.86 127.54 C 137.19 128.40 138.15 128.82 139.01 128.50 Z M 139.89 128.15 L 140.83 127.78 C 141.68 127.44 142.09 126.47 141.75 125.62 C 141.41 124.77 140.45 124.36 139.60 124.70 L 138.66 125.07 C 137.81 125.41 137.40 126.38 137.74 127.23 C 138.08 128.08 139.04 128.49 139.89 128.15 Z M 140.85 127.77 L 141.77 127.39 C 142.62 127.04 143.02 126.07 142.67 125.22 C 142.32 124.38 141.35 123.98 140.50 124.32 L 139.58 124.71 C 138.73 125.05 138.33 126.02 138.68 126.87 C 139.03 127.72 140.00 128.12 140.85 127.77 Z M 141.78 127.38 L 142.69 127.00 C 143.54 126.64 143.93 125.67 143.58 124.83 C 143.23 123.99 142.25 123.59 141.41 123.94 L 140.49 124.33 C 139.65 124.68 139.25 125.65 139.61 126.50 C 139.96 127.34 140.94 127.74 141.78 127.38 Z M 142.70 127.00 L 143.61 126.61 C 144.45 126.25 144.85 125.28 144.49 124.44 C 144.14 123.60 143.16 123.20 142.32 123.56 L 141.41 123.95 C 140.57 124.30 140.17 125.27 140.53 126.12 C 140.88 126.96 141.86 127.35 142.70 127.00 Z M 143.61 126.61 L 144.53 126.22 C 145.37 125.86 145.76 124.89 145.41 124.05 C 145.05 123.21 144.08 122.82 143.24 123.17 L 142.32 123.56 C 141.48 123.92 141.09 124.89 141.44 125.73 C 141.80 126.57 142.77 126.96 143.61 126.61 Z M 144.52 126.22 L 145.45 125.83 C 146.29 125.48 146.68 124.51 146.33 123.67 C 145.97 122.83 145.01 122.43 144.17 122.79 L 143.24 123.18 C 142.40 123.53 142.01 124.50 142.36 125.34 C 142.72 126.18 143.68 126.57 144.52 126.22 Z M 145.44 125.83 L 146.37 125.44 C 147.21 125.09 147.60 124.13 147.25 123.29 C 146.90 122.45 145.94 122.05 145.10 122.40 L 144.17 122.79 C 143.33 123.14 142.93 124.11 143.28 124.95 C 143.64 125.79 144.60 126.18 145.44 125.83 Z M 146.36 125.44 L 147.28 125.06 C 148.12 124.71 148.51 123.75 148.17 122.91 C 147.82 122.07 146.86 121.68 146.02 122.02 L 145.10 122.40 C 144.26 122.75 143.87 123.71 144.21 124.55 C 144.56 125.39 145.52 125.79 146.36 125.44 Z M 147.28 125.06 L 148.19 124.68 C 149.03 124.33 149.43 123.37 149.08 122.54 C 148.73 121.70 147.77 121.30 146.94 121.65 L 146.02 122.03 C 145.18 122.37 144.78 123.33 145.13 124.17 C 145.48 125.01 146.44 125.41 147.28 125.06 Z M 148.20 124.67 L 149.12 124.29 C 149.95 123.94 150.35 122.98 150.00 122.14 C 149.65 121.31 148.69 120.92 147.86 121.27 L 146.93 121.65 C 146.10 122.00 145.70 122.96 146.05 123.80 C 146.40 124.63 147.36 125.02 148.20 124.67 Z M 149.13 124.28 L 150.06 123.88 C 150.89 123.52 151.28 122.56 150.92 121.73 C 150.57 120.91 149.61 120.52 148.78 120.88 L 147.85 121.28 C 147.02 121.63 146.63 122.59 146.99 123.42 C 147.34 124.25 148.30 124.63 149.13 124.28 Z M 150.08 123.87 L 150.98 123.47 C 151.80 123.11 152.17 122.15 151.81 121.32 C 151.45 120.50 150.49 120.13 149.67 120.49 L 148.77 120.89 C 147.94 121.25 147.57 122.21 147.93 123.03 C 148.29 123.86 149.25 124.23 150.08 123.87 Z M 150.99 123.46 L 151.89 123.06 C 152.71 122.69 153.08 121.73 152.71 120.91 C 152.34 120.09 151.38 119.73 150.57 120.09 L 149.66 120.50 C 148.84 120.87 148.48 121.83 148.84 122.64 C 149.21 123.46 150.17 123.83 150.99 123.46 Z M 151.89 123.05 L 152.81 122.64 C 153.62 122.28 153.99 121.32 153.62 120.50 C 153.26 119.69 152.30 119.32 151.48 119.69 L 150.57 120.10 C 149.75 120.46 149.39 121.42 149.75 122.24 C 150.12 123.05 151.07 123.42 151.89 123.05 Z M 152.79 122.64 L 153.73 122.23 C 154.54 121.87 154.91 120.92 154.55 120.10 C 154.19 119.29 153.24 118.92 152.43 119.28 L 151.49 119.69 C 150.68 120.05 150.31 121.00 150.67 121.81 C 151.03 122.63 151.98 123.00 152.79 122.64 Z M 153.71 122.23 L 154.61 121.85 C 155.43 121.50 155.81 120.55 155.46 119.74 C 155.11 118.92 154.16 118.54 153.35 118.89 L 152.44 119.28 C 151.63 119.62 151.25 120.57 151.60 121.39 C 151.95 122.20 152.89 122.58 153.71 122.23 Z M 154.59 121.85 L 155.50 121.47 C 156.32 121.13 156.71 120.19 156.37 119.37 C 156.03 118.56 155.09 118.17 154.27 118.51 L 153.36 118.89 C 152.55 119.23 152.16 120.17 152.50 120.98 C 152.84 121.80 153.78 122.19 154.59 121.85 Z M 155.49 121.47 L 156.42 121.09 C 157.23 120.75 157.62 119.82 157.29 119.00 C 156.95 118.19 156.02 117.80 155.20 118.13 L 154.28 118.51 C 153.46 118.85 153.07 119.78 153.41 120.60 C 153.74 121.41 154.68 121.80 155.49 121.47 Z M 156.41 121.08 L 157.36 120.70 C 158.17 120.36 158.56 119.43 158.23 118.62 C 157.90 117.81 156.97 117.42 156.15 117.75 L 155.21 118.14 C 154.39 118.47 154.00 119.40 154.34 120.21 C 154.67 121.03 155.60 121.42 156.41 121.08 Z M 157.36 120.69 L 158.30 120.30 C 159.11 119.97 159.50 119.04 159.17 118.23 C 158.83 117.42 157.90 117.03 157.09 117.37 L 156.15 117.76 C 155.34 118.09 154.95 119.02 155.29 119.83 C 155.62 120.64 156.55 121.03 157.36 120.69 Z M 158.31 120.29 L 159.24 119.91 C 160.05 119.57 160.43 118.64 160.09 117.84 C 159.76 117.03 158.83 116.65 158.03 116.99 L 157.09 117.37 C 156.28 117.71 155.90 118.64 156.24 119.44 C 156.57 120.25 157.50 120.63 158.31 120.29 Z M 159.24 119.90 L 160.18 119.51 C 160.98 119.17 161.36 118.25 161.02 117.44 C 160.69 116.64 159.76 116.26 158.96 116.60 L 158.02 116.99 C 157.22 117.33 156.84 118.25 157.18 119.05 C 157.52 119.86 158.44 120.24 159.24 119.90 Z M 160.18 119.50 L 161.10 119.11 C 161.90 118.78 162.28 117.86 161.94 117.06 C 161.60 116.26 160.68 115.88 159.88 116.22 L 158.96 116.60 C 158.16 116.94 157.79 117.86 158.12 118.66 C 158.46 119.46 159.38 119.84 160.18 119.50 Z M 161.10 119.11 L 161.99 118.73 C 162.79 118.40 163.17 117.48 162.83 116.69 C 162.50 115.89 161.58 115.51 160.79 115.85 L 159.89 116.22 C 159.09 116.56 158.72 117.47 159.05 118.27 C 159.38 119.07 160.30 119.44 161.10 119.11 Z M 161.99 118.73 L 162.97 118.32 C 163.76 117.99 164.14 117.08 163.81 116.29 C 163.48 115.49 162.57 115.11 161.77 115.44 L 160.79 115.85 C 160.00 116.18 159.62 117.09 159.95 117.89 C 160.28 118.68 161.19 119.06 161.99 118.73 Z M 162.96 118.32 L 163.90 117.93 C 164.69 117.60 165.07 116.70 164.75 115.90 C 164.42 115.11 163.51 114.74 162.72 115.06 L 161.78 115.45 C 160.99 115.78 160.61 116.68 160.94 117.47 C 161.26 118.27 162.17 118.64 162.96 118.32 Z M 163.90 117.92 L 164.80 117.55 C 165.59 117.23 165.97 116.33 165.64 115.54 C 165.32 114.75 164.42 114.37 163.63 114.70 L 162.72 115.07 C 161.94 115.39 161.56 116.29 161.88 117.08 C 162.21 117.87 163.11 118.25 163.90 117.92 Z M 164.80 117.55 L 165.67 117.19 C 166.46 116.87 166.83 115.97 166.51 115.18 C 166.19 114.40 165.29 114.02 164.50 114.34 L 163.63 114.70 C 162.84 115.03 162.47 115.92 162.79 116.71 C 163.12 117.49 164.01 117.87 164.80 117.55 Z M 165.67 117.18 L 166.63 116.78 C 167.41 116.46 167.78 115.57 167.46 114.79 C 167.14 114.01 166.24 113.63 165.46 113.96 L 164.50 114.35 C 163.72 114.67 163.35 115.57 163.67 116.35 C 163.99 117.13 164.89 117.50 165.67 117.18 Z M 166.62 116.78 L 167.56 116.40 C 168.33 116.08 168.70 115.19 168.39 114.41 C 168.07 113.63 167.18 113.26 166.40 113.58 L 165.47 113.96 C 164.69 114.28 164.32 115.17 164.64 115.95 C 164.96 116.72 165.85 117.10 166.62 116.78 Z M 167.54 116.39 L 168.45 116.03 C 169.22 115.72 169.60 114.83 169.28 114.06 C 168.97 113.28 168.09 112.91 167.32 113.22 L 166.41 113.59 C 165.64 113.90 165.26 114.78 165.57 115.55 C 165.89 116.33 166.77 116.70 167.54 116.39 Z M 168.43 116.03 L 169.34 115.67 C 170.11 115.37 170.49 114.50 170.19 113.72 C 169.89 112.95 169.02 112.57 168.24 112.87 L 167.34 113.22 C 166.56 113.52 166.18 114.40 166.48 115.17 C 166.78 115.94 167.65 116.33 168.43 116.03 Z M 169.31 115.67 L 170.23 115.33 C 171.00 115.05 171.40 114.19 171.12 113.41 C 170.83 112.64 169.97 112.24 169.19 112.53 L 168.27 112.87 C 167.50 113.15 167.10 114.01 167.39 114.79 C 167.67 115.56 168.53 115.96 169.31 115.67 Z M 170.19 115.34 L 171.14 115.02 C 171.91 114.75 172.33 113.91 172.07 113.13 C 171.80 112.35 170.96 111.94 170.18 112.20 L 169.23 112.52 C 168.46 112.79 168.04 113.63 168.30 114.41 C 168.57 115.19 169.41 115.60 170.19 115.34 Z M 171.09 115.02 L 172.05 114.73 C 172.84 114.49 173.27 113.66 173.03 112.88 C 172.79 112.10 171.97 111.66 171.18 111.90 L 170.22 112.19 C 169.44 112.44 169.00 113.26 169.24 114.04 C 169.48 114.83 170.31 115.26 171.09 115.02 Z M 172.02 114.73 L 172.95 114.47 C 173.73 114.25 174.19 113.44 173.97 112.65 C 173.75 111.87 172.94 111.41 172.16 111.63 L 171.22 111.89 C 170.44 112.11 169.98 112.93 170.20 113.71 C 170.42 114.49 171.23 114.95 172.02 114.73 Z M 172.93 114.47 L 173.90 114.21 C 174.68 114.01 175.15 113.21 174.95 112.42 C 174.74 111.64 173.94 111.17 173.15 111.38 L 172.18 111.63 C 171.40 111.84 170.93 112.64 171.14 113.42 C 171.34 114.21 172.14 114.68 172.93 114.47 Z M 173.89 114.21 L 174.88 113.96 C 175.66 113.76 176.14 112.97 175.94 112.19 C 175.74 111.40 174.95 110.93 174.16 111.13 L 173.17 111.38 C 172.39 111.58 171.91 112.37 172.11 113.15 C 172.31 113.94 173.10 114.41 173.89 114.21 Z M 174.88 113.96 L 175.28 113.85 C 176.06 113.66 176.54 112.87 176.34 112.09 C 176.15 111.31 175.36 110.83 174.58 111.03 L 174.17 111.13 C 173.39 111.33 172.91 112.12 173.11 112.90 C 173.31 113.68 174.10 114.15 174.88 113.96 Z"
      fill="black"
      fill-rule="nonzero" /><path d="M 152.95 117.59 L 152.15 118.00 C 151.42 118.38 151.12 119.28 151.50 120.01 C 151.87 120.75 152.77 121.04 153.51 120.66 L 154.31 120.26 C 155.05 119.88 155.34 118.98 154.96 118.25 C 154.59 117.51 153.69 117.22 152.95 117.59 Z M 152.09 118.03 L 151.28 118.49 C 150.56 118.90 150.31 119.81 150.71 120.53 C 151.12 121.24 152.03 121.50 152.75 121.09 L 153.56 120.63 C 154.28 120.23 154.53 119.32 154.13 118.60 C 153.72 117.88 152.81 117.63 152.09 118.03 Z M 151.18 118.55 L 150.36 119.11 C 149.67 119.57 149.49 120.49 149.95 121.18 C 150.41 121.86 151.33 122.05 152.02 121.59 L 152.85 121.03 C 153.53 120.57 153.72 119.65 153.26 118.96 C 152.80 118.27 151.87 118.09 151.18 118.55 Z M 150.24 119.19 L 149.38 119.89 C 148.75 120.42 148.65 121.36 149.18 122.00 C 149.70 122.63 150.64 122.73 151.28 122.20 L 152.14 121.50 C 152.77 120.98 152.87 120.04 152.34 119.40 C 151.82 118.76 150.88 118.67 150.24 119.19 Z M 149.28 119.98 L 148.58 120.67 C 147.99 121.25 147.99 122.20 148.57 122.79 C 149.15 123.38 150.10 123.38 150.68 122.80 L 151.38 122.11 C 151.97 121.53 151.98 120.59 151.40 120.00 C 150.82 119.41 149.87 119.40 149.28 119.98 Z M 148.51 120.73 L 147.88 121.44 C 147.32 122.06 147.37 123.01 147.99 123.57 C 148.61 124.12 149.56 124.07 150.12 123.45 L 150.75 122.74 C 151.31 122.12 151.26 121.17 150.64 120.62 C 150.02 120.06 149.07 120.11 148.51 120.73 Z M 147.83 121.49 L 147.19 122.26 C 146.66 122.91 146.75 123.86 147.40 124.40 C 148.04 124.93 149.00 124.83 149.53 124.19 L 150.17 123.41 C 150.70 122.76 150.60 121.81 149.96 121.28 C 149.31 120.75 148.36 120.84 147.83 121.49 Z M 147.15 122.30 L 146.52 123.12 C 146.01 123.79 146.13 124.74 146.80 125.26 C 147.47 125.77 148.42 125.64 148.94 124.98 L 149.57 124.15 C 150.08 123.49 149.95 122.53 149.29 122.02 C 148.62 121.50 147.66 121.63 147.15 122.30 Z M 146.49 123.15 L 145.87 123.99 C 145.38 124.68 145.53 125.64 146.21 126.13 C 146.90 126.63 147.86 126.48 148.35 125.79 L 148.97 124.95 C 149.46 124.26 149.31 123.31 148.63 122.81 C 147.94 122.31 146.98 122.46 146.49 123.15 Z M 145.85 124.01 L 145.26 124.86 C 144.77 125.56 144.95 126.52 145.65 127.01 C 146.35 127.49 147.31 127.32 147.79 126.62 L 148.38 125.77 C 148.87 125.07 148.69 124.11 147.99 123.63 C 147.29 123.14 146.33 123.31 145.85 124.01 Z M 145.24 124.88 L 144.62 125.80 C 144.15 126.51 144.34 127.47 145.05 127.95 C 145.77 128.42 146.73 128.23 147.20 127.52 L 147.82 126.60 C 148.29 125.89 148.10 124.92 147.39 124.45 C 146.67 123.98 145.71 124.17 145.24 124.88 Z M 144.61 125.82 L 144.01 126.75 C 143.55 127.47 143.76 128.43 144.48 128.89 C 145.20 129.36 146.16 129.15 146.63 128.42 L 147.22 127.50 C 147.68 126.78 147.47 125.81 146.75 125.35 C 146.03 124.89 145.07 125.10 144.61 125.82 Z M 144.00 126.77 L 143.45 127.64 C 143.00 128.37 143.22 129.33 143.95 129.79 C 144.68 130.24 145.64 130.02 146.10 129.28 L 146.64 128.41 C 147.10 127.68 146.87 126.72 146.14 126.26 C 145.41 125.81 144.45 126.04 144.00 126.77 Z M 143.44 127.66 L 142.94 128.48 C 142.50 129.22 142.73 130.18 143.47 130.62 C 144.21 131.07 145.17 130.83 145.61 130.09 L 146.11 129.27 C 146.56 128.53 146.32 127.57 145.58 127.13 C 144.84 126.68 143.89 126.92 143.44 127.66 Z M 142.93 128.49 L 142.48 129.25 C 142.04 129.99 142.28 130.95 143.03 131.39 C 143.77 131.83 144.73 131.59 145.17 130.85 L 145.62 130.09 C 146.06 129.34 145.82 128.38 145.08 127.94 C 144.34 127.50 143.38 127.74 142.93 128.49 Z M 142.48 129.25 L 141.97 130.10 C 141.53 130.84 141.78 131.80 142.52 132.24 C 143.27 132.69 144.23 132.44 144.67 131.70 L 145.17 130.85 C 145.61 130.10 145.37 129.14 144.62 128.70 C 143.88 128.26 142.92 128.50 142.48 129.25 Z M 141.98 130.09 L 141.44 130.98 C 141.00 131.73 141.24 132.69 141.98 133.13 C 142.72 133.58 143.69 133.34 144.13 132.59 L 144.67 131.70 C 145.11 130.96 144.87 130.00 144.13 129.55 C 143.38 129.11 142.42 129.35 141.98 130.09 Z M 141.45 130.97 L 140.95 131.78 C 140.50 132.52 140.73 133.49 141.47 133.94 C 142.21 134.40 143.17 134.16 143.63 133.42 L 144.13 132.61 C 144.58 131.87 144.35 130.90 143.61 130.45 C 142.87 130.00 141.90 130.23 141.45 130.97 Z M 140.96 131.76 L 140.46 132.55 C 140.00 133.29 140.22 134.26 140.95 134.72 C 141.68 135.19 142.66 134.97 143.12 134.23 L 143.62 133.44 C 144.08 132.71 143.86 131.74 143.13 131.27 C 142.39 130.81 141.42 131.03 140.96 131.76 Z M 140.47 132.53 L 139.95 133.33 C 139.47 134.06 139.68 135.03 140.41 135.51 C 141.13 135.98 142.11 135.78 142.59 135.05 L 143.11 134.25 C 143.58 133.53 143.38 132.55 142.65 132.07 C 141.92 131.60 140.95 131.80 140.47 132.53 Z M 139.96 133.31 L 139.41 134.14 C 138.92 134.86 139.12 135.84 139.84 136.32 C 140.56 136.81 141.54 136.61 142.03 135.89 L 142.58 135.07 C 143.06 134.34 142.87 133.36 142.14 132.88 C 141.42 132.40 140.44 132.59 139.96 133.31 Z M 139.41 134.13 L 138.83 134.98 C 138.34 135.70 138.53 136.68 139.25 137.17 C 139.98 137.66 140.96 137.47 141.45 136.75 L 142.02 135.90 C 142.51 135.18 142.32 134.20 141.60 133.71 C 140.88 133.22 139.90 133.41 139.41 134.13 Z M 138.83 134.97 L 138.26 135.82 C 137.77 136.54 137.96 137.52 138.68 138.01 C 139.40 138.50 140.38 138.32 140.87 137.60 L 141.45 136.75 C 141.94 136.03 141.75 135.05 141.03 134.56 C 140.31 134.07 139.33 134.25 138.83 134.97 Z M 138.26 135.82 L 137.70 136.64 C 137.21 137.36 137.39 138.34 138.12 138.84 C 138.84 139.33 139.82 139.14 140.31 138.42 L 140.88 137.60 C 141.37 136.87 141.18 135.89 140.46 135.40 C 139.74 134.91 138.75 135.09 138.26 135.82 Z M 137.70 136.64 L 137.13 137.47 C 136.64 138.19 136.82 139.18 137.55 139.67 C 138.27 140.16 139.25 139.98 139.75 139.25 L 140.32 138.42 C 140.81 137.70 140.62 136.71 139.90 136.22 C 139.18 135.73 138.19 135.91 137.70 136.64 Z M 137.13 137.47 L 136.56 138.30 C 136.07 139.02 136.25 140.01 136.97 140.50 C 137.70 140.99 138.68 140.81 139.18 140.09 L 139.75 139.26 C 140.24 138.53 140.06 137.55 139.33 137.05 C 138.61 136.56 137.63 136.74 137.13 137.47 Z M 136.56 138.29 L 135.99 139.12 C 135.50 139.84 135.68 140.83 136.40 141.33 C 137.12 141.83 138.11 141.64 138.61 140.92 L 139.18 140.09 C 139.67 139.37 139.49 138.38 138.77 137.89 C 138.05 137.39 137.06 137.57 136.56 138.29 Z M 135.99 139.12 L 135.42 139.94 C 134.93 140.66 135.11 141.65 135.83 142.15 C 136.55 142.65 137.54 142.47 138.04 141.75 L 138.60 140.93 C 139.10 140.20 138.92 139.22 138.20 138.72 C 137.48 138.22 136.49 138.40 135.99 139.12 Z M 135.43 139.94 L 134.86 140.75 C 134.36 141.47 134.53 142.46 135.25 142.97 C 135.97 143.47 136.96 143.29 137.47 142.57 L 138.03 141.75 C 138.54 141.03 138.36 140.04 137.64 139.54 C 136.92 139.04 135.93 139.22 135.43 139.94 Z M 134.86 140.75 L 134.29 141.57 C 133.78 142.29 133.96 143.28 134.68 143.78 C 135.40 144.28 136.39 144.11 136.89 143.39 L 137.46 142.57 C 137.97 141.85 137.79 140.86 137.07 140.36 C 136.35 139.85 135.36 140.03 134.86 140.75 Z M 134.29 141.56 L 133.72 142.37 C 133.21 143.09 133.39 144.08 134.11 144.59 C 134.82 145.09 135.82 144.92 136.32 144.20 L 136.89 143.39 C 137.40 142.68 137.22 141.68 136.51 141.18 C 135.79 140.67 134.79 140.84 134.29 141.56 Z M 133.72 142.36 L 133.15 143.18 C 132.64 143.89 132.80 144.88 133.52 145.39 C 134.23 145.90 135.23 145.74 135.74 145.02 L 136.32 144.21 C 136.83 143.50 136.66 142.50 135.94 141.99 C 135.23 141.48 134.23 141.65 133.72 142.36 Z M 133.16 143.16 L 132.57 143.97 C 132.05 144.68 132.20 145.68 132.92 146.20 C 133.63 146.71 134.62 146.56 135.14 145.85 L 135.73 145.04 C 136.25 144.32 136.09 143.33 135.38 142.81 C 134.67 142.30 133.67 142.45 133.16 143.16 Z M 132.58 143.96 L 131.97 144.76 C 131.45 145.47 131.59 146.46 132.29 146.99 C 132.99 147.52 133.99 147.38 134.52 146.67 L 135.12 145.87 C 135.65 145.16 135.51 144.17 134.81 143.64 C 134.10 143.11 133.11 143.25 132.58 143.96 Z M 131.99 144.74 L 131.37 145.53 C 130.83 146.22 130.96 147.22 131.65 147.76 C 132.35 148.30 133.35 148.18 133.89 147.49 L 134.50 146.70 C 135.04 146.00 134.92 145.00 134.22 144.46 C 133.53 143.92 132.53 144.05 131.99 144.74 Z M 131.39 145.51 L 130.76 146.29 C 130.21 146.98 130.32 147.98 131.01 148.53 C 131.69 149.08 132.69 148.97 133.24 148.29 L 133.87 147.50 C 134.42 146.82 134.31 145.82 133.63 145.27 C 132.94 144.72 131.94 144.83 131.39 145.51 Z M 130.77 146.28 L 130.14 147.05 C 129.58 147.73 129.68 148.73 130.35 149.29 C 131.03 149.85 132.03 149.75 132.59 149.07 L 133.23 148.30 C 133.79 147.62 133.69 146.62 133.01 146.06 C 132.34 145.50 131.33 145.60 130.77 146.28 Z M 130.15 147.04 L 129.51 147.80 C 128.94 148.48 129.03 149.48 129.70 150.04 C 130.38 150.61 131.38 150.52 131.94 149.85 L 132.58 149.08 C 133.15 148.41 133.06 147.41 132.39 146.84 C 131.72 146.28 130.71 146.37 130.15 147.04 Z M 129.51 147.80 L 128.86 148.56 C 128.29 149.23 128.37 150.24 129.04 150.81 C 129.71 151.37 130.71 151.29 131.28 150.62 L 131.94 149.85 C 132.50 149.19 132.42 148.18 131.75 147.61 C 131.08 147.04 130.08 147.13 129.51 147.80 Z M 128.87 148.56 L 128.21 149.32 C 127.64 149.98 127.72 150.99 128.38 151.56 C 129.05 152.13 130.05 152.05 130.62 151.39 L 131.27 150.63 C 131.85 149.96 131.77 148.96 131.11 148.39 C 130.44 147.82 129.44 147.89 128.87 148.56 Z M 128.22 149.31 L 127.57 150.07 C 126.99 150.73 127.06 151.73 127.72 152.30 C 128.38 152.88 129.39 152.81 129.96 152.15 L 130.61 151.39 C 131.19 150.73 131.12 149.73 130.46 149.16 C 129.80 148.58 128.80 148.65 128.22 149.31 Z M 127.58 150.06 L 126.92 150.80 C 126.34 151.46 126.41 152.46 127.06 153.04 C 127.72 153.61 128.72 153.55 129.30 152.89 L 129.95 152.15 C 130.53 151.50 130.47 150.50 129.81 149.92 C 129.15 149.34 128.15 149.40 127.58 150.06 Z M 126.93 150.80 L 126.27 151.54 C 125.69 152.19 125.75 153.19 126.40 153.77 C 127.05 154.35 128.05 154.29 128.63 153.64 L 129.29 152.90 C 129.87 152.25 129.81 151.25 129.16 150.67 C 128.51 150.09 127.51 150.15 126.93 150.80 Z M 126.27 151.54 L 125.61 152.28 C 125.03 152.93 125.09 153.93 125.73 154.51 C 126.38 155.09 127.38 155.03 127.96 154.38 L 128.62 153.64 C 129.20 152.99 129.15 152.00 128.50 151.42 C 127.85 150.84 126.85 150.89 126.27 151.54 Z M 125.61 152.28 L 124.94 153.03 C 124.36 153.68 124.42 154.68 125.07 155.25 C 125.72 155.83 126.71 155.78 127.29 155.13 L 127.96 154.38 C 128.54 153.73 128.48 152.74 127.83 152.16 C 127.19 151.58 126.19 151.64 125.61 152.28 Z M 124.94 153.04 L 124.30 153.76 C 123.72 154.41 123.78 155.40 124.43 155.98 C 125.08 156.56 126.07 156.50 126.65 155.85 L 127.29 155.12 C 127.87 154.48 127.81 153.48 127.16 152.91 C 126.51 152.33 125.52 152.39 124.94 153.04 Z M 124.30 153.77 L 123.70 154.45 C 123.12 155.10 123.18 156.09 123.83 156.67 C 124.48 157.24 125.47 157.18 126.04 156.53 L 126.65 155.84 C 127.22 155.19 127.16 154.20 126.51 153.63 C 125.86 153.06 124.87 153.12 124.30 153.77 Z M 123.70 154.45 L 123.06 155.17 C 122.49 155.82 122.55 156.81 123.20 157.38 C 123.84 157.95 124.83 157.89 125.40 157.25 L 126.04 156.53 C 126.61 155.88 126.55 154.89 125.91 154.32 C 125.26 153.75 124.27 153.81 123.70 154.45 Z M 123.07 155.17 L 122.38 155.94 C 121.81 156.59 121.86 157.57 122.51 158.14 C 123.15 158.72 124.13 158.66 124.71 158.02 L 125.40 157.25 C 125.97 156.61 125.91 155.62 125.27 155.05 C 124.63 154.47 123.64 154.53 123.07 155.17 Z M 122.39 155.94 L 121.63 156.78 C 121.06 157.41 121.10 158.40 121.74 158.97 C 122.38 159.55 123.36 159.50 123.94 158.86 L 124.70 158.03 C 125.27 157.39 125.22 156.41 124.59 155.83 C 123.95 155.25 122.97 155.30 122.39 155.94 Z M 121.64 156.77 L 121.03 157.43 C 120.45 158.06 120.49 159.05 121.12 159.63 C 121.76 160.21 122.74 160.16 123.32 159.53 L 123.93 158.87 C 124.51 158.24 124.46 157.26 123.83 156.68 C 123.20 156.10 122.22 156.14 121.64 156.77 Z M 121.04 157.43 L 120.39 158.13 C 119.81 158.76 119.85 159.74 120.47 160.32 C 121.10 160.90 122.08 160.86 122.66 160.24 L 123.31 159.54 C 123.89 158.91 123.85 157.93 123.23 157.35 C 122.60 156.77 121.62 156.80 121.04 157.43 Z M 120.40 158.13 L 119.71 158.86 C 119.13 159.48 119.16 160.46 119.79 161.04 C 120.41 161.62 121.39 161.59 121.97 160.97 L 122.65 160.24 C 123.24 159.61 123.20 158.64 122.58 158.05 C 121.96 157.47 120.98 157.51 120.40 158.13 Z M 119.72 158.86 L 119.01 159.61 C 118.43 160.23 118.46 161.21 119.08 161.79 C 119.70 162.37 120.68 162.34 121.26 161.72 L 121.97 160.97 C 122.55 160.35 122.52 159.37 121.90 158.79 C 121.28 158.21 120.30 158.24 119.72 158.86 Z M 119.02 159.61 L 118.30 160.38 C 117.71 161.00 117.74 161.97 118.36 162.55 C 118.98 163.13 119.95 163.11 120.54 162.49 L 121.26 161.72 C 121.84 161.10 121.81 160.13 121.19 159.54 C 120.57 158.96 119.60 158.99 119.02 159.61 Z M 118.30 160.38 L 117.59 161.13 C 117.01 161.75 117.04 162.72 117.65 163.30 C 118.27 163.88 119.24 163.85 119.82 163.24 L 120.53 162.49 C 121.12 161.87 121.09 160.90 120.47 160.31 C 119.85 159.73 118.88 159.76 118.30 160.38 Z"
      fill="black"
      fill-rule="nonzero" /><path d="M 154.85 127.27 L 154.73 125.88 C 154.66 125.07 153.95 124.46 153.13 124.53 C 152.31 124.60 151.71 125.31 151.77 126.13 L 151.89 127.51 C 151.96 128.33 152.67 128.94 153.49 128.87 C 154.31 128.80 154.91 128.08 154.85 127.27 Z M 154.78 125.83 L 154.69 125.06 C 154.59 124.21 153.82 123.61 152.98 123.71 C 152.14 123.81 151.54 124.57 151.64 125.41 L 151.73 126.19 C 151.83 127.03 152.59 127.63 153.43 127.53 C 154.27 127.43 154.88 126.67 154.78 125.83 Z M 151.61 124.98 L 151.57 125.25 C 151.43 126.11 152.01 126.92 152.87 127.05 C 153.72 127.19 154.53 126.61 154.67 125.76 L 154.71 125.49 C 154.85 124.63 154.27 123.82 153.41 123.68 C 152.56 123.55 151.75 124.13 151.61 124.98 Z M 151.53 125.48 L 151.52 126.53 C 151.51 127.41 152.21 128.13 153.08 128.14 C 153.96 128.15 154.68 127.45 154.69 126.58 L 154.70 125.52 C 154.72 124.65 154.02 123.93 153.14 123.92 C 152.26 123.91 151.54 124.61 151.53 125.48 Z M 151.51 126.55 L 151.51 127.96 C 151.51 128.84 152.22 129.55 153.10 129.55 C 153.98 129.56 154.70 128.84 154.70 127.96 L 154.70 126.56 C 154.70 125.67 153.99 124.96 153.11 124.96 C 152.22 124.96 151.51 125.67 151.51 126.55 Z M 151.50 127.96 L 151.50 128.95 C 151.50 129.84 152.22 130.55 153.10 130.55 C 153.99 130.55 154.70 129.84 154.70 128.95 L 154.70 127.96 C 154.70 127.07 153.99 126.36 153.10 126.36 C 152.22 126.36 151.50 127.07 151.50 127.96 Z M 151.50 128.95 L 151.50 129.98 C 151.50 130.87 152.22 131.58 153.10 131.58 C 153.99 131.58 154.70 130.87 154.70 129.98 L 154.70 128.95 C 154.70 128.07 153.99 127.35 153.10 127.35 C 152.22 127.35 151.50 128.07 151.50 128.95 Z M 151.50 129.98 L 151.50 131.00 C 151.50 131.89 152.22 132.61 153.10 132.61 C 153.99 132.61 154.70 131.89 154.70 131.00 L 154.70 129.98 C 154.70 129.10 153.99 128.38 153.10 128.38 C 152.22 128.38 151.50 129.10 151.50 129.98 Z M 151.50 131.00 L 151.50 131.98 C 151.50 132.87 152.22 133.59 153.10 133.59 C 153.99 133.59 154.71 132.87 154.71 131.98 L 154.71 131.00 C 154.71 130.12 153.99 129.40 153.10 129.40 C 152.22 129.40 151.50 130.12 151.50 131.00 Z M 151.50 131.98 L 151.50 133.04 C 151.50 133.93 152.22 134.64 153.10 134.64 C 153.99 134.64 154.70 133.93 154.70 133.04 L 154.70 131.98 C 154.70 131.10 153.99 130.38 153.10 130.38 C 152.22 130.38 151.50 131.10 151.50 131.98 Z M 151.51 133.04 L 151.51 134.06 C 151.51 134.94 152.22 135.66 153.10 135.66 C 153.99 135.66 154.70 134.94 154.70 134.06 L 154.70 133.04 C 154.70 132.16 153.99 131.45 153.10 131.45 C 152.22 131.45 151.51 132.16 151.51 133.04 Z M 151.51 134.06 L 151.51 135.01 C 151.51 135.89 152.22 136.61 153.10 136.61 C 153.98 136.61 154.70 135.89 154.70 135.01 L 154.70 134.06 C 154.70 133.18 153.98 132.46 153.10 132.46 C 152.22 132.46 151.51 133.18 151.51 134.06 Z M 151.51 135.01 L 151.51 135.96 C 151.51 136.83 152.22 137.55 153.10 137.55 C 153.98 137.55 154.69 136.83 154.69 135.96 L 154.69 135.01 C 154.69 134.13 153.98 133.42 153.10 133.42 C 152.22 133.42 151.51 134.13 151.51 135.01 Z M 151.52 135.96 L 151.52 136.92 C 151.52 137.79 152.23 138.50 153.10 138.50 C 153.98 138.50 154.69 137.79 154.69 136.92 L 154.69 135.96 C 154.69 135.08 153.98 134.37 153.10 134.37 C 152.23 134.37 151.52 135.08 151.52 135.96 Z M 151.52 136.92 L 151.52 137.91 C 151.52 138.78 152.23 139.49 153.10 139.49 C 153.98 139.49 154.69 138.78 154.69 137.91 L 154.69 136.92 C 154.69 136.04 153.98 135.33 153.10 135.33 C 152.23 135.33 151.52 136.04 151.52 136.92 Z M 151.52 137.91 L 151.52 138.94 C 151.52 139.81 152.23 140.52 153.10 140.52 C 153.98 140.52 154.68 139.81 154.68 138.94 L 154.68 137.91 C 154.68 137.04 153.98 136.33 153.10 136.33 C 152.23 136.33 151.52 137.04 151.52 137.91 Z M 151.53 138.94 L 151.53 139.95 C 151.53 140.82 152.23 141.53 153.10 141.53 C 153.97 141.53 154.68 140.82 154.68 139.95 L 154.68 138.94 C 154.68 138.07 153.97 137.36 153.10 137.36 C 152.23 137.36 151.53 138.07 151.53 138.94 Z M 151.53 139.95 L 151.53 140.95 C 151.53 141.82 152.23 142.52 153.10 142.52 C 153.97 142.52 154.68 141.82 154.68 140.95 L 154.68 139.95 C 154.68 139.08 153.97 138.38 153.10 138.38 C 152.23 138.38 151.53 139.08 151.53 139.95 Z M 151.53 140.95 L 151.53 141.96 C 151.53 142.83 152.23 143.53 153.10 143.53 C 153.97 143.53 154.68 142.83 154.68 141.96 L 154.68 140.95 C 154.68 140.08 153.97 139.37 153.10 139.37 C 152.23 139.37 151.53 140.08 151.53 140.95 Z M 151.52 141.96 L 151.52 142.97 C 151.52 143.84 152.23 144.54 153.10 144.54 C 153.98 144.54 154.68 143.84 154.68 142.97 L 154.68 141.96 C 154.68 141.08 153.98 140.38 153.10 140.38 C 152.23 140.38 151.52 141.08 151.52 141.96 Z M 151.52 142.97 L 151.52 143.97 C 151.52 144.85 152.23 145.55 153.10 145.55 C 153.98 145.55 154.68 144.85 154.68 143.97 L 154.68 142.97 C 154.68 142.09 153.98 141.39 153.10 141.39 C 152.23 141.39 151.52 142.09 151.52 142.97 Z M 151.52 143.97 L 151.52 144.98 C 151.52 145.85 152.23 146.56 153.10 146.56 C 153.98 146.56 154.68 145.85 154.68 144.98 L 154.68 143.97 C 154.68 143.10 153.98 142.39 153.10 142.39 C 152.23 142.39 151.52 143.10 151.52 143.97 Z M 151.52 144.98 L 151.52 145.97 C 151.52 146.84 152.23 147.55 153.10 147.55 C 153.98 147.55 154.68 146.84 154.68 145.97 L 154.68 144.98 C 154.68 144.10 153.98 143.39 153.10 143.39 C 152.23 143.39 151.52 144.10 151.52 144.98 Z M 151.52 145.97 L 151.52 146.97 C 151.52 147.84 152.23 148.55 153.10 148.55 C 153.98 148.55 154.69 147.84 154.69 146.97 L 154.69 145.97 C 154.69 145.10 153.98 144.39 153.10 144.39 C 152.23 144.39 151.52 145.10 151.52 145.97 Z M 151.52 146.97 L 151.52 147.96 C 151.52 148.83 152.23 149.54 153.10 149.54 C 153.98 149.54 154.68 148.83 154.68 147.96 L 154.68 146.97 C 154.68 146.09 153.98 145.39 153.10 145.39 C 152.23 145.39 151.52 146.09 151.52 146.97 Z M 151.52 147.96 L 151.52 148.95 C 151.52 149.82 152.23 150.53 153.10 150.53 C 153.98 150.53 154.68 149.82 154.68 148.95 L 154.68 147.96 C 154.68 147.08 153.98 146.38 153.10 146.38 C 152.23 146.38 151.52 147.08 151.52 147.96 Z M 151.53 148.95 L 151.53 149.95 C 151.53 150.82 152.23 151.53 153.10 151.53 C 153.97 151.53 154.68 150.82 154.68 149.95 L 154.68 148.95 C 154.68 148.08 153.97 147.37 153.10 147.37 C 152.23 147.37 151.53 148.08 151.53 148.95 Z M 151.53 149.95 L 151.53 150.96 C 151.53 151.83 152.23 152.54 153.10 152.54 C 153.97 152.54 154.68 151.83 154.68 150.96 L 154.68 149.95 C 154.68 149.08 153.97 148.38 153.10 148.38 C 152.23 148.38 151.53 149.08 151.53 149.95 Z M 151.53 150.96 L 151.53 151.96 C 151.53 152.82 152.24 153.53 153.10 153.53 C 153.97 153.53 154.67 152.82 154.67 151.96 L 154.67 150.96 C 154.67 150.09 153.97 149.39 153.10 149.39 C 152.24 149.39 151.53 150.09 151.53 150.96 Z M 151.54 151.96 L 151.54 152.95 C 151.54 153.82 152.24 154.52 153.10 154.52 C 153.97 154.52 154.67 153.82 154.67 152.95 L 154.67 151.96 C 154.67 151.09 153.97 150.39 153.10 150.39 C 152.24 150.39 151.54 151.09 151.54 151.96 Z M 151.54 152.95 L 151.54 153.95 C 151.54 154.82 152.24 155.52 153.10 155.52 C 153.97 155.52 154.67 154.82 154.67 153.95 L 154.67 152.95 C 154.67 152.09 153.97 151.39 153.10 151.39 C 152.24 151.39 151.54 152.09 151.54 152.95 Z M 151.54 153.95 L 151.54 154.96 C 151.54 155.82 152.24 156.52 153.10 156.52 C 153.97 156.52 154.66 155.82 154.66 154.96 L 154.66 153.95 C 154.66 153.09 153.97 152.39 153.10 152.39 C 152.24 152.39 151.54 153.09 151.54 153.95 Z M 151.55 154.96 L 151.55 155.96 C 151.55 156.82 152.24 157.52 153.10 157.52 C 153.96 157.52 154.66 156.82 154.66 155.96 L 154.66 154.96 C 154.66 154.10 153.96 153.40 153.10 153.40 C 152.24 153.40 151.55 154.10 151.55 154.96 Z M 151.55 155.96 L 151.55 156.97 C 151.55 157.82 152.25 158.52 153.10 158.52 C 153.96 158.52 154.66 157.82 154.66 156.97 L 154.66 155.96 C 154.66 155.11 153.96 154.41 153.10 154.41 C 152.25 154.41 151.55 155.11 151.55 155.96 Z M 151.55 156.97 L 151.55 157.97 C 151.55 158.82 152.25 159.52 153.10 159.52 C 153.96 159.52 154.65 158.82 154.65 157.97 L 154.65 156.97 C 154.65 156.11 153.96 155.42 153.10 155.42 C 152.25 155.42 151.55 156.11 151.55 156.97 Z M 151.56 157.97 L 151.56 158.97 C 151.56 159.82 152.25 160.51 153.10 160.51 C 153.96 160.51 154.65 159.82 154.65 158.97 L 154.65 157.97 C 154.65 157.11 153.96 156.42 153.10 156.42 C 152.25 156.42 151.56 157.11 151.56 157.97 Z M 151.56 158.97 L 151.56 159.92 C 151.56 160.77 152.25 161.46 153.10 161.46 C 153.95 161.46 154.64 160.77 154.64 159.92 L 154.64 158.97 C 154.64 158.12 153.95 157.43 153.10 157.43 C 152.25 157.43 151.56 158.12 151.56 158.97 Z M 151.57 159.92 L 151.57 160.84 C 151.57 161.68 152.25 162.37 153.10 162.37 C 153.95 162.37 154.64 161.68 154.64 160.84 L 154.64 159.92 C 154.64 159.07 153.95 158.39 153.10 158.39 C 152.25 158.39 151.57 159.07 151.57 159.92 Z M 151.57 160.84 L 151.57 161.79 C 151.57 162.64 152.26 163.32 153.10 163.32 C 153.95 163.32 154.63 162.64 154.63 161.79 L 154.63 160.84 C 154.63 159.99 153.95 159.31 153.10 159.31 C 152.26 159.31 151.57 159.99 151.57 160.84 Z M 151.58 161.79 L 151.58 162.81 C 151.58 163.66 152.26 164.34 153.10 164.34 C 153.95 164.34 154.63 163.66 154.63 162.81 L 154.63 161.79 C 154.63 160.95 153.95 160.26 153.10 160.26 C 152.26 160.26 151.58 160.95 151.58 161.79 Z M 151.58 162.81 L 151.58 163.94 C 151.58 164.78 152.26 165.46 153.10 165.46 C 153.94 165.46 154.63 164.78 154.63 163.94 L 154.63 162.81 C 154.63 161.97 153.94 161.29 153.10 161.29 C 152.26 161.29 151.58 161.97 151.58 162.81 Z M 151.59 163.94 L 151.59 164.91 C 151.59 165.75 152.26 166.42 153.10 166.42 C 153.94 166.43 154.62 165.75 154.62 164.91 L 154.62 163.94 C 154.62 163.10 153.94 162.42 153.10 162.42 C 152.26 162.42 151.59 163.10 151.59 163.94 Z M 151.59 164.91 L 151.59 165.89 C 151.59 166.72 152.27 167.40 153.10 167.40 C 153.94 167.40 154.62 166.73 154.62 165.89 L 154.62 164.91 C 154.62 164.07 153.94 163.39 153.10 163.39 C 152.27 163.39 151.59 164.07 151.59 164.91 Z M 151.59 165.89 L 151.59 166.91 C 151.59 167.74 152.27 168.42 153.10 168.42 C 153.93 168.42 154.61 167.74 154.61 166.91 L 154.61 165.89 C 154.61 165.06 153.94 164.38 153.10 164.38 C 152.27 164.38 151.59 165.05 151.59 165.89 Z M 151.60 166.90 L 151.59 167.94 C 151.59 168.77 152.26 169.45 153.09 169.45 C 153.92 169.45 154.60 168.78 154.60 167.95 L 154.61 166.91 C 154.61 166.08 153.94 165.41 153.11 165.40 C 152.27 165.40 151.60 166.07 151.60 166.90 Z M 151.60 167.94 L 151.59 168.97 C 151.59 169.79 152.26 170.47 153.08 170.47 C 153.91 170.48 154.59 169.81 154.59 168.98 L 154.60 167.95 C 154.60 167.12 153.93 166.45 153.11 166.44 C 152.28 166.44 151.60 167.11 151.60 167.94 Z M 151.60 168.96 L 151.59 169.96 C 151.58 170.79 152.25 171.46 153.07 171.47 C 153.90 171.48 154.57 170.81 154.58 169.99 L 154.59 168.99 C 154.59 168.16 153.93 167.48 153.10 167.48 C 152.28 167.47 151.60 168.14 151.60 168.96 Z M 151.60 169.96 L 151.58 171.02 C 151.57 171.84 152.23 172.52 153.05 172.53 C 153.88 172.54 154.55 171.88 154.56 171.06 L 154.57 169.99 C 154.58 169.17 153.92 168.50 153.10 168.49 C 152.28 168.48 151.61 169.13 151.60 169.96 Z M 151.59 171.02 L 151.57 172.07 C 151.56 172.89 152.21 173.56 153.03 173.57 C 153.85 173.59 154.52 172.94 154.53 172.12 L 154.55 171.06 C 154.57 170.25 153.91 169.57 153.10 169.56 C 152.28 169.55 151.60 170.20 151.59 171.02 Z M 151.58 172.06 L 151.56 173.07 C 151.55 173.88 152.19 174.55 153.00 174.57 C 153.81 174.58 154.49 173.94 154.50 173.13 L 154.52 172.13 C 154.54 171.31 153.90 170.64 153.08 170.62 C 152.27 170.61 151.60 171.25 151.58 172.06 Z M 151.57 173.06 L 151.55 174.03 C 151.53 174.83 152.17 175.50 152.97 175.52 C 153.78 175.54 154.45 174.90 154.47 174.10 L 154.49 173.13 C 154.51 172.33 153.88 171.66 153.07 171.64 C 152.26 171.62 151.59 172.26 151.57 173.06 Z M 151.56 174.02 L 151.53 174.97 C 151.51 175.77 152.15 176.43 152.95 176.46 C 153.75 176.48 154.42 175.84 154.44 175.04 L 154.46 174.10 C 154.48 173.30 153.85 172.63 153.05 172.61 C 152.25 172.59 151.58 173.22 151.56 174.02 Z M 151.54 174.96 L 151.53 175.51 C 151.51 176.30 152.13 176.97 152.93 176.99 C 153.73 177.01 154.39 176.38 154.41 175.58 L 154.43 175.04 C 154.45 174.25 153.82 173.58 153.02 173.56 C 152.23 173.54 151.56 174.17 151.54 174.96 Z"
      fill="black"
      fill-rule="nonzero" /><path d="M 174.16 138.48 L 173.33 139.09 C 172.66 139.59 172.52 140.54 173.02 141.22 C 173.52 141.89 174.47 142.02 175.15 141.52 L 175.97 140.91 C 176.64 140.41 176.78 139.46 176.28 138.79 C 175.78 138.12 174.83 137.98 174.16 138.48 Z M 173.28 139.10 L 172.49 139.73 C 171.82 140.26 171.71 141.23 172.24 141.89 C 172.76 142.56 173.73 142.67 174.40 142.15 L 175.19 141.52 C 175.86 140.99 175.98 140.02 175.45 139.35 C 174.92 138.69 173.95 138.57 173.28 139.10 Z M 172.40 139.77 L 171.67 140.42 C 171.02 141.00 170.97 141.99 171.54 142.63 C 172.11 143.28 173.10 143.34 173.75 142.76 L 174.48 142.11 C 175.13 141.53 175.19 140.54 174.61 139.90 C 174.04 139.25 173.05 139.19 172.40 139.77 Z M 171.55 140.51 L 170.90 141.21 C 170.30 141.85 170.34 142.85 170.98 143.45 C 171.62 144.04 172.62 144.01 173.22 143.37 L 173.87 142.67 C 174.47 142.03 174.43 141.03 173.79 140.43 C 173.15 139.84 172.15 139.87 171.55 140.51 Z M 170.78 141.33 L 170.22 142.08 C 169.69 142.78 169.84 143.79 170.55 144.32 C 171.26 144.84 172.26 144.70 172.79 143.99 L 173.34 143.24 C 173.87 142.54 173.73 141.53 173.02 141.00 C 172.31 140.48 171.31 140.62 170.78 141.33 Z M 170.14 142.18 L 169.62 143.00 C 169.15 143.75 169.38 144.75 170.13 145.22 C 170.88 145.69 171.88 145.47 172.35 144.71 L 172.87 143.89 C 173.34 143.14 173.11 142.14 172.36 141.67 C 171.61 141.20 170.61 141.43 170.14 142.18 Z M 169.58 143.05 L 169.06 143.98 C 168.61 144.75 168.88 145.74 169.66 146.18 C 170.43 146.63 171.42 146.36 171.86 145.58 L 172.39 144.66 C 172.83 143.89 172.56 142.90 171.79 142.45 C 171.01 142.01 170.03 142.28 169.58 143.05 Z M 169.04 143.98 L 168.54 144.87 C 168.11 145.65 168.38 146.64 169.16 147.08 C 169.95 147.52 170.94 147.24 171.38 146.46 L 171.88 145.57 C 172.31 144.79 172.04 143.80 171.26 143.36 C 170.47 142.92 169.48 143.20 169.04 143.98 Z M 168.54 144.87 L 168.05 145.74 C 167.61 146.52 167.89 147.51 168.67 147.95 C 169.45 148.40 170.45 148.12 170.89 147.34 L 171.38 146.47 C 171.82 145.68 171.54 144.69 170.76 144.25 C 169.98 143.81 168.98 144.08 168.54 144.87 Z M 168.05 145.74 L 167.54 146.63 C 167.10 147.42 167.38 148.41 168.16 148.86 C 168.95 149.30 169.94 149.02 170.39 148.23 L 170.89 147.34 C 171.33 146.55 171.05 145.56 170.27 145.12 C 169.48 144.67 168.49 144.95 168.05 145.74 Z M 167.54 146.64 L 167.04 147.53 C 166.60 148.32 166.88 149.32 167.67 149.76 C 168.46 150.20 169.45 149.91 169.89 149.13 L 170.39 148.23 C 170.83 147.44 170.55 146.45 169.76 146.01 C 168.97 145.57 167.98 145.85 167.54 146.64 Z M 167.03 147.54 L 166.56 148.40 C 166.12 149.19 166.41 150.19 167.20 150.63 C 168.00 151.06 168.99 150.77 169.43 149.98 L 169.90 149.12 C 170.33 148.33 170.05 147.33 169.25 146.89 C 168.46 146.46 167.46 146.75 167.03 147.54 Z M 166.55 148.42 L 166.04 149.36 C 165.61 150.16 165.91 151.15 166.71 151.58 C 167.51 152.01 168.50 151.71 168.93 150.91 L 169.44 149.96 C 169.86 149.17 169.56 148.17 168.76 147.75 C 167.97 147.32 166.97 147.62 166.55 148.42 Z M 166.03 149.38 L 165.57 150.27 C 165.15 151.07 165.46 152.06 166.26 152.48 C 167.06 152.90 168.05 152.59 168.47 151.78 L 168.94 150.90 C 169.36 150.09 169.05 149.10 168.24 148.68 C 167.44 148.26 166.45 148.57 166.03 149.38 Z M 165.57 150.27 L 165.12 151.12 C 164.71 151.93 165.02 152.92 165.82 153.33 C 166.63 153.75 167.61 153.44 168.03 152.63 L 168.47 151.78 C 168.89 150.98 168.58 149.99 167.77 149.57 C 166.97 149.15 165.98 149.47 165.57 150.27 Z M 165.13 151.12 L 164.68 151.97 C 164.26 152.77 164.57 153.76 165.37 154.18 C 166.17 154.60 167.16 154.29 167.58 153.49 L 168.03 152.64 C 168.45 151.84 168.14 150.85 167.34 150.43 C 166.54 150.01 165.55 150.32 165.13 151.12 Z M 164.69 151.95 L 164.24 152.78 C 163.81 153.58 164.11 154.58 164.91 155.00 C 165.71 155.43 166.71 155.13 167.13 154.33 L 167.58 153.50 C 168.01 152.70 167.70 151.71 166.91 151.28 C 166.11 150.86 165.11 151.16 164.69 151.95 Z M 164.25 152.77 L 163.78 153.63 C 163.34 154.43 163.64 155.42 164.43 155.86 C 165.23 156.29 166.23 156.00 166.66 155.20 L 167.13 154.35 C 167.56 153.55 167.27 152.55 166.47 152.12 C 165.68 151.68 164.68 151.98 164.25 152.77 Z M 163.78 153.62 L 163.29 154.51 C 162.85 155.30 163.14 156.30 163.93 156.74 C 164.73 157.18 165.73 156.89 166.17 156.10 L 166.66 155.21 C 167.10 154.42 166.81 153.42 166.01 152.98 C 165.22 152.54 164.22 152.83 163.78 153.62 Z M 163.29 154.50 L 162.78 155.43 C 162.33 156.22 162.62 157.22 163.41 157.66 C 164.21 158.11 165.21 157.82 165.65 157.03 L 166.17 156.11 C 166.61 155.31 166.32 154.31 165.53 153.87 C 164.74 153.42 163.73 153.71 163.29 154.50 Z M 162.77 155.42 L 162.31 156.26 C 161.86 157.05 162.15 158.05 162.94 158.50 C 163.73 158.94 164.74 158.66 165.18 157.87 L 165.65 157.03 C 166.10 156.24 165.81 155.23 165.02 154.79 C 164.22 154.34 163.22 154.63 162.77 155.42 Z M 162.31 156.25 L 161.83 157.10 C 161.38 157.89 161.67 158.90 162.46 159.35 C 163.26 159.79 164.26 159.51 164.71 158.71 L 165.19 157.87 C 165.63 157.08 165.35 156.07 164.56 155.62 C 163.76 155.17 162.75 155.46 162.31 156.25 Z M 161.83 157.09 L 161.34 157.96 C 160.89 158.76 161.17 159.77 161.97 160.22 C 162.76 160.67 163.77 160.39 164.22 159.59 L 164.71 158.72 C 165.16 157.92 164.88 156.91 164.09 156.46 C 163.29 156.01 162.28 156.30 161.83 157.09 Z M 161.34 157.96 L 160.83 158.85 C 160.38 159.65 160.66 160.66 161.45 161.11 C 162.25 161.57 163.26 161.29 163.71 160.49 L 164.22 159.60 C 164.67 158.80 164.40 157.79 163.60 157.33 C 162.80 156.88 161.79 157.16 161.34 157.96 Z M 160.83 158.85 L 160.31 159.76 C 159.85 160.56 160.13 161.57 160.92 162.03 C 161.72 162.48 162.74 162.21 163.19 161.41 L 163.71 160.50 C 164.17 159.70 163.89 158.68 163.10 158.23 C 162.30 157.77 161.28 158.05 160.83 158.85 Z M 160.31 159.76 L 159.84 160.58 C 159.38 161.37 159.65 162.39 160.45 162.85 C 161.24 163.31 162.26 163.03 162.72 162.24 L 163.19 161.42 C 163.65 160.62 163.37 159.60 162.58 159.14 C 161.78 158.69 160.77 158.96 160.31 159.76 Z M 159.84 160.57 L 159.35 161.41 C 158.89 162.21 159.16 163.22 159.96 163.68 C 160.75 164.14 161.77 163.87 162.23 163.08 L 162.71 162.24 C 163.18 161.45 162.90 160.43 162.11 159.97 C 161.32 159.51 160.30 159.78 159.84 160.57 Z M 159.35 161.41 L 158.85 162.27 C 158.39 163.06 158.66 164.08 159.45 164.54 C 160.24 165.00 161.26 164.73 161.72 163.94 L 162.23 163.08 C 162.69 162.29 162.42 161.27 161.63 160.81 C 160.84 160.35 159.82 160.61 159.35 161.41 Z M 158.86 162.26 L 158.34 163.14 C 157.88 163.93 158.14 164.95 158.93 165.41 C 159.72 165.88 160.74 165.61 161.21 164.82 L 161.72 163.95 C 162.19 163.15 161.92 162.14 161.13 161.67 C 160.34 161.21 159.32 161.47 158.86 162.26 Z M 158.34 163.13 L 157.81 164.03 C 157.34 164.82 157.60 165.84 158.39 166.31 C 159.18 166.78 160.20 166.51 160.67 165.73 L 161.20 164.83 C 161.67 164.04 161.41 163.02 160.62 162.55 C 159.83 162.08 158.81 162.34 158.34 163.13 Z M 157.82 164.03 L 157.29 164.90 C 156.82 165.69 157.08 166.71 157.87 167.18 C 158.65 167.65 159.67 167.39 160.14 166.60 L 160.67 165.73 C 161.14 164.94 160.88 163.92 160.09 163.45 C 159.31 162.98 158.29 163.24 157.82 164.03 Z M 157.30 164.90 L 156.79 165.75 C 156.31 166.53 156.57 167.55 157.35 168.02 C 158.14 168.50 159.16 168.24 159.63 167.46 L 160.14 166.61 C 160.61 165.82 160.36 164.80 159.57 164.33 C 158.79 163.86 157.77 164.11 157.30 164.90 Z M 156.79 165.74 L 156.27 166.60 C 155.80 167.38 156.05 168.40 156.83 168.88 C 157.62 169.35 158.64 169.10 159.11 168.32 L 159.63 167.46 C 160.10 166.68 159.85 165.66 159.07 165.18 C 158.28 164.71 157.26 164.96 156.79 165.74 Z M 156.27 166.60 L 155.75 167.46 C 155.27 168.24 155.52 169.26 156.30 169.74 C 157.09 170.21 158.11 169.97 158.58 169.18 L 159.11 168.32 C 159.58 167.54 159.33 166.52 158.55 166.04 C 157.77 165.57 156.75 165.81 156.27 166.60 Z M 155.75 167.46 L 155.22 168.32 C 154.75 169.10 154.99 170.12 155.78 170.60 C 156.56 171.07 157.58 170.83 158.05 170.05 L 158.58 169.18 C 159.06 168.40 158.81 167.38 158.03 166.91 C 157.25 166.43 156.23 166.68 155.75 167.46 Z M 155.23 168.32 L 154.70 169.17 C 154.22 169.95 154.47 170.97 155.25 171.45 C 156.03 171.93 157.05 171.68 157.53 170.90 L 158.05 170.05 C 158.53 169.27 158.28 168.25 157.50 167.77 C 156.72 167.29 155.71 167.54 155.23 168.32 Z M 154.70 169.17 L 154.18 170.03 C 153.70 170.81 153.94 171.83 154.72 172.31 C 155.50 172.78 156.52 172.54 157.00 171.76 L 157.52 170.91 C 158.00 170.13 157.76 169.11 156.98 168.63 C 156.20 168.15 155.18 168.39 154.70 169.17 Z M 154.18 170.03 L 153.65 170.89 C 153.17 171.67 153.41 172.69 154.19 173.17 C 154.96 173.64 155.98 173.40 156.46 172.63 L 156.99 171.77 C 157.47 170.99 157.23 169.97 156.46 169.49 C 155.68 169.01 154.66 169.25 154.18 170.03 Z M 153.65 170.89 L 153.12 171.74 C 152.64 172.51 152.88 173.53 153.65 174.01 C 154.43 174.49 155.44 174.26 155.93 173.48 L 156.46 172.63 C 156.94 171.86 156.70 170.84 155.93 170.36 C 155.15 169.88 154.13 170.11 153.65 170.89 Z M 153.13 171.73 L 152.60 172.57 C 152.11 173.34 152.35 174.36 153.12 174.85 C 153.89 175.33 154.90 175.10 155.39 174.33 L 155.92 173.49 C 156.40 172.72 156.17 171.70 155.40 171.22 C 154.63 170.73 153.61 170.96 153.13 171.73 Z M 152.61 172.57 L 152.07 173.40 C 151.58 174.17 151.81 175.19 152.58 175.67 C 153.34 176.16 154.36 175.94 154.85 175.17 L 155.38 174.34 C 155.87 173.57 155.65 172.55 154.88 172.06 C 154.11 171.58 153.10 171.80 152.61 172.57 Z M 152.08 173.39 L 151.54 174.22 C 151.05 174.98 151.27 176.00 152.03 176.50 C 152.79 176.99 153.80 176.77 154.30 176.01 L 154.84 175.18 C 155.33 174.42 155.12 173.40 154.36 172.91 C 153.59 172.41 152.58 172.63 152.08 173.39 Z M 151.55 174.21 L 151.01 175.04 C 150.51 175.79 150.71 176.81 151.47 177.31 C 152.22 177.81 153.24 177.61 153.74 176.85 L 154.29 176.02 C 154.79 175.27 154.58 174.25 153.83 173.75 C 153.07 173.25 152.05 173.46 151.55 174.21 Z M 151.02 175.03 L 150.46 175.85 C 149.96 176.60 150.15 177.62 150.90 178.12 C 151.65 178.63 152.67 178.43 153.18 177.68 L 153.73 176.86 C 154.24 176.11 154.04 175.09 153.29 174.59 C 152.54 174.08 151.52 174.28 151.02 175.03 Z M 150.47 175.84 L 149.91 176.66 C 149.39 177.40 149.58 178.42 150.33 178.93 C 151.07 179.45 152.09 179.26 152.60 178.52 L 153.16 177.69 C 153.68 176.95 153.49 175.93 152.75 175.42 C 152.00 174.91 150.98 175.10 150.47 175.84 Z M 149.92 176.65 L 149.34 177.47 C 148.82 178.21 149.00 179.23 149.74 179.74 C 150.48 180.26 151.50 180.08 152.01 179.34 L 152.59 178.53 C 153.11 177.79 152.93 176.77 152.19 176.25 C 151.45 175.73 150.44 175.91 149.92 176.65 Z M 149.35 177.46 L 148.77 178.28 C 148.25 179.01 148.42 180.03 149.15 180.55 C 149.88 181.07 150.90 180.90 151.42 180.17 L 152.00 179.35 C 152.53 178.62 152.36 177.61 151.62 177.08 C 150.89 176.56 149.88 176.73 149.35 177.46 Z M 148.78 178.27 L 148.19 179.08 C 147.66 179.81 147.82 180.83 148.54 181.35 C 149.27 181.88 150.29 181.72 150.82 181.00 L 151.41 180.18 C 151.94 179.46 151.78 178.44 151.05 177.91 C 150.32 177.38 149.31 177.54 148.78 178.27 Z M 148.20 179.07 L 147.60 179.88 C 147.07 180.60 147.22 181.61 147.94 182.15 C 148.66 182.68 149.68 182.53 150.21 181.81 L 150.81 181.00 C 151.34 180.28 151.19 179.27 150.47 178.74 C 149.75 178.20 148.73 178.35 148.20 179.07 Z M 147.61 179.87 L 147.02 180.66 C 146.48 181.38 146.62 182.39 147.34 182.93 C 148.05 183.47 149.06 183.32 149.60 182.61 L 150.20 181.82 C 150.74 181.10 150.59 180.09 149.88 179.55 C 149.17 179.01 148.15 179.16 147.61 179.87 Z M 147.03 180.65 L 146.42 181.44 C 145.88 182.15 146.01 183.16 146.72 183.70 C 147.43 184.25 148.44 184.11 148.98 183.41 L 149.59 182.62 C 150.13 181.91 150.00 180.90 149.29 180.36 C 148.59 179.81 147.57 179.95 147.03 180.65 Z M 146.44 181.43 L 145.82 182.22 C 145.27 182.92 145.39 183.93 146.09 184.48 C 146.79 185.02 147.80 184.90 148.35 184.20 L 148.97 183.42 C 149.52 182.72 149.40 181.71 148.70 181.16 C 148.00 180.61 146.99 180.73 146.44 181.43 Z M 145.84 182.21 L 145.21 182.99 C 144.65 183.68 144.76 184.69 145.45 185.24 C 146.14 185.80 147.15 185.69 147.71 185.00 L 148.34 184.22 C 148.89 183.52 148.78 182.51 148.09 181.96 C 147.40 181.40 146.39 181.51 145.84 182.21 Z M 145.22 182.98 L 144.58 183.75 C 144.02 184.44 144.12 185.44 144.80 186.01 C 145.48 186.57 146.49 186.47 147.05 185.79 L 147.69 185.01 C 148.26 184.33 148.16 183.32 147.48 182.76 C 146.79 182.19 145.78 182.29 145.22 182.98 Z M 144.60 183.74 L 143.95 184.51 C 143.38 185.18 143.47 186.19 144.14 186.76 C 144.82 187.32 145.82 187.24 146.39 186.57 L 147.04 185.80 C 147.61 185.13 147.52 184.12 146.85 183.55 C 146.17 182.98 145.17 183.07 144.60 183.74 Z M 143.97 184.49 L 143.32 185.24 C 142.74 185.91 142.82 186.91 143.48 187.49 C 144.14 188.06 145.15 187.99 145.72 187.33 L 146.37 186.58 C 146.95 185.91 146.88 184.91 146.21 184.33 C 145.55 183.76 144.54 183.83 143.97 184.49 Z M 143.34 185.23 L 142.67 185.98 C 142.09 186.63 142.15 187.63 142.80 188.22 C 143.46 188.80 144.46 188.74 145.04 188.09 L 145.71 187.34 C 146.29 186.69 146.23 185.68 145.58 185.10 C 144.92 184.52 143.92 184.58 143.34 185.23 Z M 142.69 185.96 L 142.02 186.70 C 141.43 187.35 141.47 188.35 142.12 188.94 C 142.76 189.53 143.76 189.48 144.35 188.84 L 145.03 188.10 C 145.62 187.45 145.57 186.45 144.93 185.86 C 144.28 185.27 143.28 185.32 142.69 185.96 Z M 142.03 186.69 L 141.35 187.42 C 140.75 188.06 140.78 189.06 141.42 189.65 C 142.05 190.25 143.05 190.22 143.65 189.58 L 144.33 188.85 C 144.93 188.21 144.90 187.22 144.26 186.62 C 143.63 186.02 142.63 186.06 142.03 186.69 Z M 141.36 187.41 L 140.67 188.13 C 140.06 188.76 140.08 189.75 140.71 190.36 C 141.33 190.96 142.33 190.94 142.93 190.32 L 143.63 189.59 C 144.23 188.97 144.21 187.97 143.59 187.37 C 142.96 186.77 141.97 186.79 141.36 187.41 Z M 140.69 188.12 L 139.98 188.83 C 139.37 189.45 139.37 190.44 139.99 191.05 C 140.60 191.66 141.60 191.65 142.21 191.04 L 142.91 190.33 C 143.52 189.72 143.52 188.72 142.90 188.11 C 142.29 187.50 141.30 187.51 140.69 188.12 Z M 140.00 188.82 L 139.30 189.51 C 138.68 190.11 138.67 191.10 139.28 191.72 C 139.88 192.33 140.87 192.34 141.48 191.74 L 142.19 191.05 C 142.80 190.45 142.81 189.46 142.21 188.84 C 141.60 188.23 140.62 188.22 140.00 188.82 Z M 139.32 189.50 L 138.60 190.18 C 137.98 190.77 137.96 191.76 138.55 192.38 C 139.15 193.00 140.13 193.02 140.75 192.43 L 141.47 191.75 C 142.09 191.15 142.11 190.17 141.52 189.55 C 140.92 188.93 139.94 188.90 139.32 189.50 Z M 138.62 190.17 L 137.89 190.85 C 137.27 191.43 137.24 192.42 137.82 193.04 C 138.40 193.67 139.39 193.70 140.01 193.12 L 140.74 192.44 C 141.36 191.85 141.40 190.87 140.81 190.25 C 140.23 189.62 139.25 189.59 138.62 190.17 Z M 137.91 190.84 L 137.17 191.52 C 136.54 192.09 136.50 193.07 137.08 193.70 C 137.65 194.33 138.63 194.37 139.26 193.80 L 140.00 193.12 C 140.63 192.55 140.67 191.57 140.09 190.94 C 139.52 190.31 138.54 190.27 137.91 190.84 Z M 137.19 191.51 L 136.43 192.19 C 135.80 192.76 135.75 193.73 136.32 194.37 C 136.89 195.00 137.86 195.05 138.49 194.48 L 139.24 193.80 C 139.88 193.23 139.93 192.26 139.36 191.63 C 138.79 191.00 137.82 190.94 137.19 191.51 Z M 136.44 192.19 L 135.68 192.87 C 135.04 193.43 134.99 194.40 135.55 195.03 C 136.11 195.67 137.08 195.73 137.71 195.16 L 138.48 194.48 C 139.11 193.92 139.17 192.95 138.61 192.32 C 138.05 191.68 137.08 191.63 136.44 192.19 Z M 135.69 192.87 L 134.93 193.53 C 134.29 194.09 134.23 195.05 134.79 195.69 C 135.34 196.32 136.31 196.39 136.94 195.83 L 137.70 195.17 C 138.34 194.61 138.40 193.64 137.85 193.01 C 137.29 192.37 136.32 192.31 135.69 192.87 Z M 134.94 193.53 L 134.17 194.19 C 133.53 194.74 133.46 195.71 134.02 196.34 C 134.57 196.98 135.53 197.05 136.17 196.50 L 136.93 195.83 C 137.57 195.28 137.64 194.32 137.09 193.68 C 136.54 193.05 135.58 192.98 134.94 193.53 Z M 134.18 194.19 L 133.41 194.85 C 132.77 195.39 132.69 196.35 133.24 196.99 C 133.78 197.63 134.74 197.71 135.38 197.16 L 136.16 196.50 C 136.80 195.96 136.87 195.00 136.33 194.36 C 135.78 193.72 134.82 193.64 134.18 194.19 Z M 133.42 194.84 L 132.65 195.49 C 132.00 196.03 131.92 196.99 132.46 197.63 C 132.99 198.27 133.95 198.36 134.59 197.82 L 135.37 197.17 C 136.01 196.63 136.10 195.67 135.56 195.03 C 135.02 194.39 134.06 194.30 133.42 194.84 Z M 132.66 195.48 L 131.89 196.12 C 131.24 196.65 131.15 197.60 131.68 198.25 C 132.21 198.89 133.16 198.99 133.81 198.46 L 134.58 197.82 C 135.23 197.29 135.32 196.34 134.79 195.69 C 134.26 195.05 133.31 194.95 132.66 195.48 Z M 131.90 196.11 L 131.14 196.73 C 130.49 197.25 130.38 198.20 130.90 198.85 C 131.42 199.50 132.37 199.60 133.02 199.08 L 133.79 198.47 C 134.44 197.95 134.55 197.00 134.02 196.34 C 133.50 195.69 132.55 195.59 131.90 196.11 Z M 131.16 196.72 L 130.37 197.32 C 129.72 197.83 129.60 198.78 130.11 199.44 C 130.62 200.09 131.57 200.21 132.22 199.70 L 133.01 199.09 C 133.66 198.58 133.78 197.63 133.27 196.98 C 132.76 196.32 131.81 196.20 131.16 196.72 Z M 130.40 197.31 L 129.55 197.95 C 128.89 198.45 128.76 199.39 129.26 200.05 C 129.76 200.71 130.70 200.84 131.36 200.35 L 132.20 199.71 C 132.86 199.21 133.00 198.27 132.50 197.61 C 132.00 196.95 131.06 196.81 130.40 197.31 Z M 129.57 197.94 L 128.75 198.54 C 128.08 199.02 127.93 199.96 128.42 200.63 C 128.91 201.30 129.84 201.45 130.51 200.96 L 131.34 200.36 C 132.01 199.87 132.15 198.93 131.67 198.26 C 131.18 197.60 130.24 197.45 129.57 197.94 Z M 128.77 198.53 L 127.95 199.10 C 127.28 199.58 127.12 200.51 127.60 201.19 C 128.07 201.86 129.01 202.02 129.68 201.54 L 130.49 200.97 C 131.17 200.49 131.33 199.56 130.85 198.89 C 130.37 198.21 129.44 198.05 128.77 198.53 Z M 127.97 199.10 L 127.17 199.65 C 126.49 200.12 126.32 201.04 126.79 201.72 C 127.26 202.40 128.18 202.57 128.86 202.10 L 129.66 201.55 C 130.34 201.08 130.51 200.15 130.04 199.48 C 129.58 198.80 128.65 198.63 127.97 199.10 Z M 127.18 199.64 L 126.39 200.18 C 125.71 200.64 125.53 201.57 125.99 202.25 C 126.45 202.93 127.37 203.10 128.05 202.64 L 128.85 202.11 C 129.53 201.65 129.71 200.72 129.25 200.04 C 128.79 199.36 127.86 199.18 127.18 199.64 Z M 126.40 200.18 L 125.58 200.72 C 124.90 201.18 124.71 202.10 125.17 202.78 C 125.62 203.46 126.54 203.65 127.23 203.19 L 128.04 202.65 C 128.72 202.19 128.91 201.27 128.45 200.59 C 128.00 199.91 127.08 199.72 126.40 200.18 Z M 125.59 200.72 L 124.74 201.28 C 124.06 201.73 123.87 202.65 124.32 203.33 C 124.77 204.02 125.69 204.20 126.37 203.75 L 127.22 203.19 C 127.90 202.74 128.09 201.83 127.64 201.14 C 127.19 200.46 126.27 200.27 125.59 200.72 Z M 124.75 201.28 L 123.90 201.83 C 123.22 202.27 123.03 203.19 123.47 203.87 C 123.92 204.56 124.84 204.75 125.52 204.31 L 126.36 203.76 C 127.05 203.31 127.24 202.39 126.79 201.71 C 126.35 201.03 125.43 200.83 124.75 201.28 Z M 123.91 201.83 L 123.07 202.37 C 122.39 202.81 122.19 203.72 122.63 204.41 C 123.08 205.09 123.99 205.29 124.67 204.85 L 125.51 204.31 C 126.20 203.87 126.39 202.95 125.95 202.27 C 125.51 201.58 124.60 201.38 123.91 201.83 Z M 123.08 202.36 L 122.25 202.90 C 121.56 203.33 121.36 204.24 121.80 204.93 C 122.23 205.62 123.15 205.82 123.83 205.38 L 124.67 204.85 C 125.35 204.41 125.55 203.50 125.12 202.82 C 124.68 202.13 123.77 201.93 123.08 202.36 Z M 122.26 202.89 L 121.42 203.42 C 120.73 203.85 120.53 204.76 120.96 205.45 C 121.39 206.14 122.30 206.34 122.99 205.91 L 123.83 205.39 C 124.51 204.95 124.72 204.04 124.29 203.35 C 123.85 202.67 122.94 202.46 122.26 202.89 Z M 121.43 203.41 L 120.56 203.95 C 119.87 204.38 119.66 205.29 120.09 205.98 C 120.52 206.67 121.43 206.88 122.12 206.45 L 122.98 205.91 C 123.67 205.48 123.89 204.58 123.46 203.89 C 123.03 203.20 122.12 202.99 121.43 203.41 Z M 120.57 203.95 L 119.71 204.48 C 119.02 204.91 118.80 205.81 119.23 206.50 C 119.65 207.20 120.56 207.41 121.25 206.99 L 122.11 206.46 C 122.80 206.03 123.02 205.12 122.59 204.43 C 122.17 203.74 121.26 203.52 120.57 203.95 Z M 119.71 204.48 L 118.86 205.00 C 118.17 205.42 117.95 206.33 118.37 207.02 C 118.80 207.72 119.70 207.93 120.40 207.51 L 121.25 206.99 C 121.94 206.56 122.16 205.66 121.74 204.97 C 121.31 204.27 120.41 204.05 119.71 204.48 Z M 118.86 205.00 L 118.02 205.51 C 117.32 205.94 117.11 206.84 117.53 207.54 C 117.95 208.23 118.86 208.45 119.55 208.03 L 120.39 207.51 C 121.09 207.09 121.31 206.18 120.88 205.49 C 120.46 204.80 119.56 204.58 118.86 205.00 Z M 118.02 205.51 L 117.18 206.02 C 116.49 206.45 116.27 207.35 116.69 208.04 C 117.11 208.74 118.02 208.96 118.71 208.53 L 119.55 208.03 C 120.24 207.60 120.46 206.70 120.04 206.00 C 119.62 205.31 118.71 205.09 118.02 205.51 Z M 117.18 206.02 L 116.32 206.55 C 115.62 206.97 115.40 207.88 115.83 208.57 C 116.25 209.27 117.15 209.48 117.85 209.06 L 118.71 208.53 C 119.41 208.11 119.63 207.21 119.20 206.51 C 118.78 205.82 117.88 205.60 117.18 206.02 Z M 116.32 206.55 L 115.46 207.08 C 114.77 207.50 114.55 208.40 114.97 209.10 C 115.39 209.79 116.30 210.01 116.99 209.59 L 117.85 209.06 C 118.54 208.64 118.76 207.73 118.34 207.04 C 117.91 206.35 117.01 206.13 116.32 206.55 Z M 115.46 207.08 L 114.61 207.60 C 113.91 208.02 113.70 208.93 114.12 209.62 C 114.54 210.31 115.45 210.53 116.14 210.11 L 116.99 209.59 C 117.69 209.16 117.90 208.26 117.48 207.56 C 117.06 206.87 116.15 206.65 115.46 207.08 Z M 114.61 207.60 L 113.76 208.12 C 113.07 208.54 112.85 209.45 113.27 210.14 C 113.70 210.83 114.60 211.05 115.30 210.62 L 116.14 210.11 C 116.84 209.68 117.05 208.78 116.63 208.08 C 116.20 207.39 115.30 207.17 114.61 207.60 Z M 113.76 208.12 L 113.04 208.55 C 112.35 208.98 112.13 209.88 112.56 210.58 C 112.98 211.27 113.89 211.49 114.58 211.06 L 115.30 210.62 C 115.99 210.20 116.21 209.29 115.78 208.60 C 115.36 207.91 114.45 207.69 113.76 208.12 Z"
      fill="black"
      fill-rule="nonzero" /></svg>