<svg xmlns="http://www.w3.org/2000/svg" width="300" height="300" viewBox="0 0 300 300">
<path d="M 153.30 92.36 L 153.06 93.34 C 152.86 94.18 153.37 95.03 154.22 95.23 C 155.06 95.43 155.91 94.92 156.11 94.08 L 156.35 93.10 C 156.55 92.26 156.03 91.41 155.19 91.21 C 154.35 91.00 153.50 91.52 153.30 92.36 Z M 153.02 93.39 L 152.82 94.38 C 152.65 95.24 153.21 96.09 154.08 96.26 C 154.95 96.43 155.79 95.87 155.96 95.00 L 156.16 94.02 C 156.33 93.15 155.77 92.31 154.90 92.14 C 154.03 91.96 153.19 92.53 153.02 93.39 Z M 152.77 94.51 L 152.66 95.49 C 152.56 96.39 153.20 97.20 154.10 97.30 C 155.00 97.40 155.81 96.75 155.91 95.86 L 156.02 94.87 C 156.12 93.97 155.47 93.16 154.57 93.06 C 153.68 92.96 152.87 93.61 152.77 94.51 Z M 152.63 95.69 L 152.63 96.64 C 152.64 97.56 153.39 98.29 154.30 98.28 C 155.22 98.28 155.95 97.53 155.95 96.61 L 155.94 95.66 C 155.93 94.75 155.18 94.01 154.27 94.02 C 153.35 94.03 152.62 94.77 152.63 95.69 Z M 152.64 96.81 L 152.74 97.77 C 152.84 98.68 153.66 99.34 154.58 99.24 C 155.49 99.14 156.15 98.32 156.05 97.41 L 155.94 96.45 C 155.84 95.53 155.02 94.88 154.11 94.98 C 153.20 95.08 152.54 95.90 152.64 96.81 Z M 152.75 97.87 L 152.93 98.87 C 153.08 99.78 153.94 100.39 154.84 100.23 C 155.75 100.08 156.36 99.22 156.20 98.32 L 156.03 97.31 C 155.88 96.41 155.02 95.80 154.12 95.95 C 153.21 96.10 152.60 96.96 152.75 97.87 Z M 152.93 98.91 L 153.12 99.92 C 153.30 100.82 154.17 101.42 155.07 101.24 C 155.98 101.07 156.57 100.20 156.39 99.29 L 156.20 98.28 C 156.03 97.38 155.15 96.79 154.25 96.96 C 153.35 97.13 152.76 98.01 152.93 98.91 Z M 153.12 99.92 L 153.30 100.84 C 153.47 101.75 154.34 102.34 155.25 102.17 C 156.15 102.00 156.74 101.13 156.57 100.22 L 156.40 99.30 C 156.22 98.39 155.35 97.80 154.45 97.97 C 153.54 98.14 152.95 99.01 153.12 99.92 Z M 153.29 100.83 L 153.47 101.80 C 153.64 102.71 154.51 103.31 155.41 103.14 C 156.32 102.98 156.92 102.11 156.75 101.20 L 156.57 100.23 C 156.41 99.33 155.54 98.73 154.63 98.89 C 153.73 99.06 153.13 99.93 153.29 100.83 Z M 153.47 101.79 L 153.65 102.81 C 153.81 103.71 154.67 104.32 155.58 104.16 C 156.49 104.00 157.09 103.14 156.94 102.23 L 156.76 101.21 C 156.60 100.31 155.73 99.70 154.82 99.86 C 153.92 100.02 153.31 100.88 153.47 101.79 Z M 153.64 102.79 L 153.82 103.84 C 153.97 104.75 154.83 105.37 155.74 105.22 C 156.65 105.07 157.26 104.21 157.11 103.30 L 156.94 102.25 C 156.79 101.33 155.93 100.72 155.02 100.87 C 154.11 101.02 153.49 101.88 153.64 102.79 Z M 153.81 103.82 L 153.95 104.74 C 154.09 105.65 154.95 106.28 155.86 106.14 C 156.77 106.00 157.40 105.14 157.26 104.23 L 157.12 103.31 C 156.98 102.40 156.12 101.78 155.21 101.92 C 154.30 102.06 153.67 102.91 153.81 103.82 Z M 153.95 104.73 L 154.09 105.68 C 154.22 106.59 155.07 107.22 155.99 107.09 C 156.90 106.96 157.53 106.11 157.40 105.19 L 157.26 104.24 C 157.13 103.33 156.28 102.70 155.36 102.83 C 154.45 102.96 153.82 103.81 153.95 104.73 Z M 154.09 105.67 L 154.22 106.65 C 154.35 107.57 155.20 108.21 156.11 108.08 C 157.03 107.95 157.67 107.10 157.54 106.19 L 157.40 105.20 C 157.28 104.29 156.43 103.65 155.51 103.78 C 154.60 103.90 153.96 104.75 154.09 105.67 Z M 154.22 106.64 L 154.36 107.67 C 154.48 108.59 155.33 109.23 156.24 109.11 C 157.16 108.98 157.81 108.14 157.68 107.22 L 157.54 106.19 C 157.42 105.28 156.58 104.63 155.66 104.76 C 154.74 104.88 154.10 105.73 154.22 106.64 Z M 154.36 107.66 L 154.50 108.74 C 154.62 109.65 155.46 110.30 156.38 110.18 C 157.30 110.06 157.95 109.22 157.82 108.30 L 157.68 107.23 C 157.56 106.31 156.72 105.66 155.80 105.78 C 154.88 105.90 154.24 106.75 154.36 107.66 Z M 154.50 108.73 L 154.62 109.66 C 154.74 110.58 155.58 111.23 156.50 111.11 C 157.42 110.99 158.07 110.15 157.95 109.23 L 157.83 108.30 C 157.71 107.38 156.86 106.73 155.95 106.85 C 155.03 106.97 154.38 107.81 154.50 108.73 Z M 154.62 109.66 L 154.74 110.61 C 154.86 111.53 155.70 112.18 156.62 112.06 C 157.54 111.94 158.19 111.10 158.07 110.18 L 157.95 109.23 C 157.83 108.31 156.99 107.66 156.07 107.78 C 155.15 107.90 154.50 108.74 154.62 109.66 Z M 154.74 110.60 L 154.86 111.58 C 154.98 112.50 155.82 113.16 156.74 113.04 C 157.66 112.92 158.31 112.08 158.19 111.16 L 158.07 110.18 C 157.95 109.26 157.12 108.61 156.20 108.73 C 155.28 108.84 154.62 109.68 154.74 110.60 Z M 154.86 111.58 L 154.98 112.59 C 155.10 113.51 155.94 114.16 156.86 114.05 C 157.78 113.94 158.43 113.10 158.32 112.18 L 158.20 111.17 C 158.08 110.25 157.24 109.59 156.32 109.71 C 155.40 109.82 154.75 110.66 154.86 111.58 Z M 154.98 112.58 L 155.11 113.61 C 155.22 114.53 156.05 115.19 156.97 115.08 C 157.89 114.97 158.55 114.13 158.44 113.21 L 158.32 112.18 C 158.21 111.26 157.37 110.60 156.45 110.71 C 155.53 110.82 154.87 111.66 154.98 112.58 Z M 155.10 113.60 L 155.23 114.65 C 155.33 115.58 156.16 116.24 157.09 116.13 C 158.01 116.03 158.67 115.19 158.56 114.27 L 158.44 113.22 C 158.34 112.30 157.51 111.64 156.58 111.74 C 155.66 111.85 155.00 112.68 155.10 113.60 Z M 155.22 114.65 L 155.33 115.61 C 155.43 116.54 156.26 117.20 157.18 117.10 C 158.11 117.00 158.77 116.17 158.67 115.25 L 158.57 114.28 C 158.46 113.36 157.63 112.69 156.71 112.79 C 155.79 112.89 155.12 113.72 155.22 114.65 Z M 155.33 115.61 L 155.43 116.56 C 155.53 117.49 156.35 118.16 157.28 118.06 C 158.20 117.96 158.87 117.13 158.77 116.21 L 158.67 115.25 C 158.58 114.33 157.75 113.66 156.82 113.76 C 155.90 113.85 155.23 114.68 155.33 115.61 Z M 155.43 116.56 L 155.53 117.53 C 155.62 118.45 156.44 119.13 157.37 119.03 C 158.29 118.94 158.97 118.12 158.87 117.19 L 158.77 116.22 C 158.68 115.29 157.86 114.62 156.93 114.71 C 156.01 114.81 155.33 115.63 155.43 116.56 Z M 155.52 117.52 L 155.62 118.51 C 155.71 119.44 156.53 120.11 157.46 120.02 C 158.38 119.94 159.06 119.11 158.97 118.19 L 158.87 117.20 C 158.79 116.27 157.96 115.60 157.04 115.69 C 156.11 115.77 155.44 116.60 155.52 117.52 Z M 155.62 118.50 L 155.71 119.51 C 155.80 120.44 156.62 121.12 157.54 121.03 C 158.47 120.95 159.15 120.13 159.06 119.20 L 158.97 118.20 C 158.89 117.27 158.07 116.59 157.14 116.67 C 156.22 116.76 155.53 117.58 155.62 118.50 Z M 155.71 119.50 L 155.80 120.53 C 155.88 121.46 156.70 122.14 157.62 122.06 C 158.55 121.98 159.24 121.16 159.15 120.24 L 159.06 119.21 C 158.98 118.29 158.17 117.60 157.24 117.68 C 156.31 117.76 155.63 118.58 155.71 119.50 Z M 155.80 120.53 L 155.89 121.57 C 155.96 122.50 156.78 123.19 157.70 123.11 C 158.63 123.03 159.32 122.22 159.24 121.29 L 159.16 120.25 C 159.08 119.32 158.26 118.63 157.34 118.71 C 156.41 118.78 155.72 119.60 155.80 120.53 Z M 155.89 121.57 L 155.96 122.53 C 156.04 123.46 156.85 124.15 157.77 124.08 C 158.70 124.01 159.39 123.20 159.32 122.27 L 159.24 121.30 C 159.17 120.37 158.36 119.68 157.43 119.75 C 156.50 119.83 155.81 120.64 155.89 121.57 Z M 155.96 122.53 L 156.03 123.49 C 156.10 124.42 156.91 125.11 157.84 125.04 C 158.77 124.97 159.46 124.17 159.39 123.24 L 159.32 122.27 C 159.25 121.35 158.44 120.65 157.51 120.72 C 156.59 120.79 155.89 121.60 155.96 122.53 Z M 156.03 123.48 L 156.10 124.46 C 156.17 125.39 156.98 126.09 157.90 126.02 C 158.83 125.96 159.53 125.15 159.46 124.22 L 159.39 123.24 C 159.33 122.32 158.52 121.62 157.59 121.68 C 156.67 121.75 155.97 122.56 156.03 123.48 Z M 156.10 124.46 L 156.17 125.45 C 156.23 126.38 157.04 127.08 157.96 127.02 C 158.89 126.95 159.59 126.15 159.53 125.22 L 159.46 124.23 C 159.40 123.30 158.60 122.60 157.67 122.66 C 156.74 122.73 156.04 123.53 156.10 124.46 Z M 156.17 125.44 L 156.23 126.45 C 156.29 127.38 157.09 128.08 158.02 128.02 C 158.95 127.96 159.65 127.16 159.60 126.23 L 159.53 125.23 C 159.47 124.30 158.67 123.60 157.74 123.65 C 156.82 123.71 156.11 124.51 156.17 125.44 Z M 156.23 126.44 L 156.29 127.46 C 156.35 128.39 157.15 129.10 158.07 129.04 C 159.00 128.99 159.71 128.19 159.66 127.26 L 159.60 126.24 C 159.54 125.31 158.74 124.60 157.81 124.66 C 156.89 124.71 156.18 125.51 156.23 126.44 Z M 156.29 127.45 L 156.35 128.48 C 156.40 129.41 157.20 130.12 158.12 130.07 C 159.05 130.02 159.76 129.22 159.71 128.29 L 159.66 127.27 C 159.61 126.34 158.81 125.63 157.88 125.68 C 156.95 125.73 156.24 126.52 156.29 127.45 Z M 156.35 128.47 L 156.40 129.51 C 156.45 130.44 157.24 131.15 158.17 131.11 C 159.10 131.06 159.81 130.27 159.77 129.34 L 159.71 128.30 C 159.67 127.37 158.88 126.66 157.95 126.70 C 157.02 126.75 156.30 127.54 156.35 128.47 Z M 156.40 129.50 L 156.45 130.48 C 156.49 131.41 157.28 132.13 158.21 132.09 C 159.14 132.05 159.86 131.26 159.81 130.33 L 159.77 129.35 C 159.72 128.42 158.94 127.70 158.01 127.74 C 157.08 127.78 156.36 128.57 156.40 129.50 Z M 156.45 130.48 L 156.49 131.46 C 156.53 132.39 157.31 133.12 158.24 133.08 C 159.17 133.04 159.90 132.25 159.86 131.32 L 159.81 130.33 C 159.77 129.40 158.99 128.68 158.06 128.72 C 157.13 128.76 156.41 129.55 156.45 130.48 Z M 156.49 131.46 L 156.52 132.45 C 156.56 133.38 157.34 134.11 158.28 134.07 C 159.21 134.03 159.93 133.25 159.90 132.32 L 159.86 131.33 C 159.82 130.40 159.04 129.67 158.11 129.71 C 157.17 129.74 156.45 130.53 156.49 131.46 Z M 156.52 132.44 L 156.56 133.44 C 156.59 134.37 157.37 135.10 158.31 135.07 C 159.24 135.04 159.97 134.25 159.93 133.32 L 159.90 132.32 C 159.86 131.39 159.08 130.66 158.15 130.70 C 157.22 130.73 156.49 131.51 156.52 132.44 Z M 156.56 133.44 L 156.59 134.44 C 156.62 135.37 157.40 136.10 158.33 136.07 C 159.27 136.04 160.00 135.26 159.97 134.33 L 159.93 133.33 C 159.90 132.39 159.12 131.66 158.19 131.69 C 157.26 131.72 156.53 132.50 156.56 133.44 Z M 156.59 134.44 L 156.62 135.44 C 156.65 136.38 157.43 137.11 158.36 137.08 C 159.29 137.05 160.03 136.27 160.00 135.34 L 159.97 134.33 C 159.94 133.40 159.16 132.67 158.23 132.69 C 157.29 132.72 156.56 133.50 156.59 134.44 Z M 156.62 135.44 L 156.64 136.45 C 156.67 137.38 157.45 138.12 158.38 138.09 C 159.32 138.07 160.05 137.29 160.03 136.36 L 160.00 135.35 C 159.97 134.41 159.20 133.67 158.26 133.70 C 157.33 133.73 156.59 134.50 156.62 135.44 Z M 156.64 136.44 L 156.67 137.46 C 156.69 138.39 157.47 139.13 158.40 139.11 C 159.34 139.08 160.08 138.31 160.05 137.37 L 160.03 136.36 C 160.01 135.42 159.23 134.69 158.29 134.71 C 157.36 134.73 156.62 135.51 156.64 136.44 Z M 156.67 137.45 L 156.69 138.46 C 156.71 139.39 157.49 140.13 158.42 140.11 C 159.36 140.09 160.10 139.32 160.08 138.38 L 160.06 137.38 C 160.03 136.44 159.26 135.70 158.32 135.72 C 157.39 135.74 156.65 136.52 156.67 137.45 Z M 156.69 138.45 L 156.71 139.45 C 156.73 140.39 157.51 141.13 158.44 141.11 C 159.38 141.09 160.12 140.32 160.10 139.38 L 160.08 138.38 C 160.06 137.45 159.29 136.70 158.35 136.72 C 157.41 136.74 156.67 137.52 156.69 138.45 Z M 156.71 139.45 L 156.73 140.45 C 156.75 141.38 157.52 142.13 158.46 142.11 C 159.40 142.09 160.14 141.32 160.12 140.38 L 160.10 139.38 C 160.09 138.44 159.31 137.70 158.37 137.72 C 157.44 137.74 156.69 138.51 156.71 139.45 Z M 156.73 140.44 L 156.74 141.44 C 156.76 142.38 157.54 143.13 158.47 143.11 C 159.41 143.09 160.16 142.32 160.14 141.38 L 160.12 140.38 C 160.11 139.44 159.33 138.70 158.40 138.71 C 157.46 138.73 156.71 139.50 156.73 140.44 Z M 156.74 141.44 L 156.76 142.44 C 156.77 143.38 157.55 144.13 158.49 144.11 C 159.43 144.10 160.17 143.32 160.16 142.39 L 160.14 141.39 C 160.13 140.45 159.36 139.70 158.42 139.71 C 157.48 139.73 156.73 140.50 156.74 141.44 Z M 156.76 142.44 L 156.77 143.44 C 156.78 144.38 157.56 145.13 158.50 145.12 C 159.44 145.10 160.19 144.33 160.18 143.39 L 160.16 142.39 C 160.15 141.45 159.38 140.70 158.44 140.71 C 157.50 140.72 156.74 141.50 156.76 142.44 Z M 156.77 143.43 L 156.78 144.44 C 156.79 145.38 157.57 146.13 158.51 146.12 C 159.45 146.11 160.20 145.34 160.19 144.39 L 160.18 143.39 C 160.17 142.45 159.39 141.70 158.45 141.71 C 157.51 141.72 156.76 142.49 156.77 143.43 Z M 156.78 144.43 L 156.79 145.44 C 156.80 146.38 157.57 147.13 158.51 147.12 C 159.46 147.11 160.21 146.34 160.20 145.40 L 160.19 144.40 C 160.18 143.46 159.41 142.70 158.47 142.71 C 157.53 142.72 156.77 143.49 156.78 144.43 Z M 156.79 145.43 L 156.80 146.43 C 156.81 147.38 157.58 148.13 158.52 148.13 C 159.46 148.12 160.22 147.35 160.21 146.41 L 160.20 145.40 C 160.19 144.46 159.42 143.70 158.48 143.71 C 157.54 143.72 156.78 144.49 156.79 145.43 Z M 156.80 146.43 L 156.80 147.42 C 156.81 148.36 157.58 149.12 158.52 149.11 C 159.47 149.11 160.23 148.34 160.22 147.39 L 160.21 146.41 C 160.21 145.46 159.44 144.71 158.49 144.71 C 157.55 144.72 156.79 145.49 156.80 146.43 Z M 156.80 147.41 L 156.81 148.40 C 156.81 149.35 157.58 150.11 158.53 150.10 C 159.47 150.10 160.23 149.33 160.23 148.38 L 160.22 147.40 C 160.22 146.45 159.45 145.69 158.50 145.70 C 157.56 145.70 156.80 146.47 156.80 147.41 Z M 156.81 148.40 L 156.81 149.39 C 156.81 150.33 157.58 151.10 158.53 151.09 C 159.47 151.09 160.24 150.32 160.23 149.37 L 160.23 148.39 C 160.22 147.44 159.46 146.68 158.51 146.68 C 157.56 146.68 156.80 147.45 156.81 148.40 Z M 156.81 149.39 L 156.81 150.38 C 156.81 151.32 157.58 152.09 158.53 152.09 C 159.47 152.08 160.24 151.31 160.24 150.37 L 160.23 149.38 C 160.23 148.43 159.46 147.66 158.52 147.67 C 157.57 147.67 156.80 148.44 156.81 149.39 Z M 156.81 150.38 L 156.81 151.37 C 156.81 152.32 157.58 153.09 158.53 153.08 C 159.48 153.08 160.24 152.31 160.24 151.37 L 160.24 150.37 C 160.24 149.42 159.47 148.66 158.52 148.66 C 157.57 148.66 156.81 149.43 156.81 150.38 Z M 156.81 151.37 L 156.81 152.37 C 156.81 153.32 157.58 154.09 158.53 154.09 C 159.48 154.09 160.24 153.32 160.24 152.37 L 160.24 151.37 C 160.24 150.42 159.47 149.65 158.52 149.65 C 157.58 149.65 156.81 150.42 156.81 151.37 Z M 156.81 152.37 L 156.81 153.38 C 156.81 154.33 157.58 155.10 158.53 155.10 C 159.48 155.10 160.25 154.33 160.25 153.38 L 160.24 152.37 C 160.24 151.42 159.47 150.65 158.53 150.65 C 157.58 150.65 156.81 151.42 156.81 152.37 Z M 156.81 153.38 L 156.81 154.40 C 156.81 155.35 157.58 156.12 158.53 156.12 C 159.48 156.12 160.25 155.35 160.25 154.40 L 160.25 153.38 C 160.25 152.43 159.48 151.66 158.53 151.66 C 157.58 151.66 156.81 152.43 156.81 153.38 Z M 156.81 154.40 L 156.81 155.42 C 156.81 156.37 157.58 157.14 158.53 157.14 C 159.48 157.14 160.25 156.37 160.25 155.42 L 160.25 154.40 C 160.25 153.45 159.48 152.68 158.53 152.68 C 157.58 152.68 156.81 153.45 156.81 154.40 Z M 156.80 155.42 L 156.80 156.43 C 156.80 157.38 157.58 158.15 158.53 158.15 C 159.48 158.15 160.25 157.38 160.25 156.43 L 160.25 155.42 C 160.25 154.47 159.48 153.70 158.53 153.70 C 157.58 153.70 156.80 154.47 156.80 155.42 Z M 156.80 156.43 L 156.80 157.44 C 156.80 158.39 157.57 159.16 158.53 159.16 C 159.48 159.16 160.25 158.39 160.25 157.44 L 160.25 156.43 C 160.25 155.47 159.48 154.70 158.53 154.70 C 157.57 154.70 156.80 155.47 156.80 156.43 Z M 156.80 157.44 L 156.80 158.45 C 156.80 159.41 157.57 160.18 158.53 160.18 C 159.48 160.18 160.25 159.41 160.25 158.45 L 160.25 157.44 C 160.25 156.49 159.48 155.71 158.53 155.71 C 157.57 155.71 156.80 156.49 156.80 157.44 Z M 156.80 158.45 L 156.80 159.47 C 156.80 160.42 157.57 161.19 158.53 161.19 C 159.48 161.19 160.26 160.42 160.26 159.47 L 160.26 158.45 C 160.26 157.50 159.48 156.73 158.53 156.73 C 157.57 156.73 156.80 157.50 156.80 158.45 Z M 156.80 159.47 L 156.80 160.48 C 156.80 161.43 157.57 162.21 158.53 162.21 C 159.48 162.21 160.26 161.43 160.26 160.48 L 160.26 159.47 C 160.26 158.51 159.48 157.74 158.53 157.74 C 157.57 157.74 156.80 158.51 156.80 159.47 Z M 156.80 160.48 L 156.80 161.48 C 156.80 162.43 157.57 163.21 158.53 163.21 C 159.48 163.21 160.26 162.43 160.26 161.48 L 160.26 160.48 C 160.26 159.52 159.48 158.75 158.53 158.75 C 157.57 158.75 156.80 159.52 156.80 160.48 Z M 156.79 161.48 L 156.79 162.47 C 156.79 163.43 157.57 164.20 158.53 164.20 C 159.48 164.20 160.26 163.43 160.26 162.47 L 160.26 161.48 C 160.26 160.52 159.48 159.75 158.53 159.75 C 157.57 159.75 156.79 160.52 156.79 161.48 Z M 156.79 162.47 L 156.79 163.45 C 156.79 164.41 157.57 165.18 158.53 165.18 C 159.48 165.18 160.26 164.41 160.26 163.45 L 160.26 162.47 C 160.26 161.51 159.48 160.74 158.53 160.74 C 157.57 160.74 156.79 161.51 156.79 162.47 Z M 156.79 163.45 L 156.79 164.44 C 156.79 165.40 157.57 166.17 158.53 166.17 C 159.49 166.17 160.26 165.40 160.26 164.44 L 160.26 163.45 C 160.26 162.49 159.49 161.71 158.53 161.71 C 157.57 161.71 156.79 162.49 156.79 163.45 Z M 156.79 164.44 L 156.79 165.49 C 156.79 166.45 157.57 167.23 158.53 167.23 C 159.49 167.23 160.26 166.45 160.26 165.50 L 160.26 164.44 C 160.26 163.48 159.49 162.70 158.53 162.70 C 157.57 162.70 156.79 163.48 156.79 164.44 Z M 156.79 165.49 L 156.79 166.53 C 156.78 167.49 157.56 168.27 158.52 168.27 C 159.48 168.27 160.26 167.49 160.26 166.53 L 160.27 165.50 C 160.27 164.54 159.49 163.76 158.53 163.76 C 157.57 163.75 156.79 164.53 156.79 165.49 Z M 156.78 166.52 L 156.78 167.54 C 156.78 168.50 157.55 169.28 158.51 169.28 C 159.48 169.29 160.26 168.51 160.26 167.55 L 160.27 166.54 C 160.27 165.57 159.49 164.79 158.53 164.79 C 157.57 164.78 156.79 165.56 156.78 166.52 Z M 156.78 167.53 L 156.77 168.53 C 156.76 169.49 157.54 170.28 158.50 170.28 C 159.46 170.29 160.25 169.52 160.26 168.55 L 160.26 167.56 C 160.27 166.59 159.50 165.81 158.53 165.80 C 157.57 165.80 156.79 166.57 156.78 167.53 Z M 156.77 168.52 L 156.76 169.50 C 156.75 170.47 157.52 171.26 158.48 171.27 C 159.44 171.28 160.23 170.51 160.25 169.55 L 160.26 168.56 C 160.27 167.60 159.50 166.81 158.53 166.80 C 157.57 166.79 156.78 167.56 156.77 168.52 Z M 156.76 169.49 L 156.74 170.46 C 156.72 171.43 157.49 172.22 158.45 172.24 C 159.42 172.26 160.21 171.49 160.23 170.53 L 160.25 169.56 C 160.26 168.59 159.50 167.80 158.53 167.78 C 157.57 167.76 156.77 168.53 156.76 169.49 Z M 156.74 170.45 L 156.72 171.41 C 156.69 172.38 157.45 173.18 158.42 173.20 C 159.38 173.22 160.18 172.46 160.21 171.50 L 160.23 170.54 C 160.25 169.57 159.49 168.77 158.53 168.75 C 157.56 168.72 156.76 169.49 156.74 170.45 Z M 156.71 171.40 L 156.68 172.37 C 156.65 173.33 157.41 174.14 158.37 174.17 C 159.34 174.21 160.15 173.45 160.18 172.48 L 160.21 171.51 C 160.24 170.55 159.48 169.74 158.52 169.71 C 157.55 169.68 156.75 170.43 156.71 171.40 Z M 156.68 172.35 L 156.64 173.38 C 156.60 174.34 157.35 175.16 158.31 175.20 C 159.28 175.24 160.09 174.49 160.13 173.52 L 160.18 172.50 C 160.22 171.53 159.47 170.72 158.50 170.68 C 157.54 170.64 156.72 171.39 156.68 172.35 Z M 156.64 173.36 L 156.59 174.38 C 156.54 175.34 157.28 176.17 158.25 176.22 C 159.21 176.27 160.03 175.52 160.08 174.56 L 160.14 173.54 C 160.18 172.57 159.44 171.75 158.48 171.70 C 157.51 171.65 156.69 172.40 156.64 173.36 Z M 156.59 174.36 L 156.53 175.37 C 156.47 176.34 157.20 177.17 158.17 177.23 C 159.14 177.28 159.97 176.55 160.02 175.58 L 160.08 174.57 C 160.14 173.61 159.41 172.78 158.44 172.72 C 157.47 172.66 156.64 173.40 156.59 174.36 Z M 156.53 175.36 L 156.46 176.36 C 156.39 177.32 157.12 178.16 158.09 178.22 C 159.06 178.29 159.89 177.56 159.96 176.59 L 160.02 175.59 C 160.09 174.63 159.36 173.79 158.39 173.73 C 157.43 173.66 156.59 174.39 156.53 175.36 Z M 156.46 176.34 L 156.38 177.33 C 156.31 178.30 157.03 179.14 158.00 179.21 C 158.97 179.29 159.81 178.56 159.88 177.60 L 159.96 176.61 C 160.03 175.64 159.31 174.80 158.34 174.72 C 157.37 174.65 156.53 175.38 156.46 176.34 Z M 156.38 177.32 L 156.30 178.30 C 156.22 179.26 156.94 180.11 157.91 180.19 C 158.87 180.27 159.72 179.55 159.80 178.59 L 159.88 177.61 C 159.96 176.64 159.24 175.79 158.28 175.71 C 157.31 175.63 156.46 176.35 156.38 177.32 Z M 156.30 178.28 L 156.21 179.25 C 156.13 180.22 156.84 181.07 157.81 181.16 C 158.78 181.24 159.63 180.53 159.72 179.56 L 159.80 178.60 C 159.89 177.63 159.18 176.78 158.21 176.69 C 157.24 176.60 156.39 177.32 156.30 178.28 Z M 156.21 179.24 L 156.12 180.27 C 156.02 181.23 156.73 182.09 157.70 182.18 C 158.67 182.28 159.53 181.57 159.62 180.60 L 159.72 179.58 C 159.81 178.61 159.10 177.75 158.13 177.66 C 157.17 177.56 156.31 178.27 156.21 179.24 Z M 156.12 180.25 L 156.01 181.28 C 155.91 182.25 156.62 183.11 157.58 183.21 C 158.55 183.31 159.42 182.60 159.51 181.64 L 159.62 180.61 C 159.72 179.65 159.01 178.78 158.05 178.68 C 157.08 178.58 156.21 179.29 156.12 180.25 Z M 156.01 181.27 L 155.90 182.28 C 155.80 183.24 156.50 184.11 157.47 184.22 C 158.43 184.32 159.30 183.62 159.41 182.65 L 159.51 181.65 C 159.62 180.68 158.92 179.81 157.95 179.71 C 156.98 179.60 156.12 180.30 156.01 181.27 Z M 155.90 182.27 L 155.79 183.26 C 155.68 184.23 156.38 185.10 157.35 185.21 C 158.31 185.32 159.19 184.62 159.29 183.66 L 159.41 182.66 C 159.52 181.69 158.82 180.82 157.85 180.71 C 156.88 180.60 156.01 181.30 155.90 182.27 Z M 155.79 183.25 L 155.68 184.23 C 155.56 185.20 156.26 186.08 157.22 186.19 C 158.19 186.30 159.07 185.61 159.18 184.64 L 159.29 183.66 C 159.41 182.70 158.71 181.82 157.75 181.71 C 156.78 181.59 155.90 182.29 155.79 183.25 Z M 155.68 184.23 L 155.56 185.19 C 155.44 186.16 156.13 187.04 157.10 187.16 C 158.07 187.27 158.95 186.58 159.06 185.62 L 159.18 184.65 C 159.30 183.68 158.61 182.80 157.64 182.69 C 156.67 182.57 155.79 183.26 155.68 184.23 Z M 155.56 185.19 L 155.44 186.15 C 155.32 187.12 156.01 188.00 156.98 188.12 C 157.95 188.24 158.83 187.55 158.95 186.58 L 159.07 185.62 C 159.18 184.65 158.50 183.77 157.53 183.65 C 156.56 183.53 155.68 184.22 155.56 185.19 Z M 155.44 186.15 L 155.31 187.19 C 155.19 188.15 155.88 189.04 156.85 189.16 C 157.81 189.28 158.70 188.59 158.82 187.62 L 158.95 186.58 C 159.07 185.61 158.38 184.73 157.41 184.61 C 156.44 184.49 155.56 185.18 155.44 186.15 Z M 155.31 187.18 L 155.18 188.20 C 155.06 189.17 155.75 190.06 156.72 190.18 C 157.68 190.30 158.57 189.62 158.69 188.65 L 158.82 187.62 C 158.94 186.66 158.25 185.77 157.29 185.65 C 156.32 185.53 155.43 186.21 155.31 187.18 Z M 155.18 188.20 L 155.05 189.21 C 154.93 190.18 155.62 191.06 156.59 191.19 C 157.56 191.31 158.45 190.62 158.57 189.65 L 158.69 188.65 C 158.82 187.68 158.13 186.79 157.16 186.67 C 156.19 186.55 155.30 187.23 155.18 188.20 Z M 155.05 189.21 L 154.93 190.19 C 154.81 191.16 155.50 192.05 156.47 192.17 C 157.44 192.29 158.33 191.60 158.45 190.63 L 158.57 189.65 C 158.69 188.68 158.00 187.79 157.03 187.67 C 156.06 187.55 155.17 188.24 155.05 189.21 Z M 154.93 190.20 L 154.81 191.16 C 154.69 192.13 155.38 193.02 156.35 193.14 C 157.33 193.25 158.21 192.56 158.33 191.59 L 158.45 190.63 C 158.57 189.65 157.88 188.77 156.90 188.65 C 155.93 188.53 155.05 189.22 154.93 190.20 Z M 154.81 191.16 L 154.69 192.11 C 154.58 193.08 155.27 193.96 156.25 194.08 C 157.22 194.20 158.11 193.50 158.22 192.53 L 158.33 191.58 C 158.45 190.61 157.75 189.73 156.78 189.61 C 155.81 189.50 154.92 190.19 154.81 191.16 Z M 154.69 192.12 L 154.58 193.07 C 154.47 194.05 155.17 194.93 156.15 195.04 C 157.12 195.15 158.00 194.45 158.11 193.47 L 158.22 192.52 C 158.33 191.54 157.63 190.66 156.66 190.55 C 155.68 190.44 154.80 191.14 154.69 192.12 Z M 154.58 193.08 L 154.48 194.03 C 154.37 195.01 155.08 195.89 156.06 195.99 C 157.03 196.10 157.91 195.39 158.02 194.41 L 158.12 193.46 C 158.22 192.49 157.52 191.61 156.54 191.50 C 155.56 191.40 154.69 192.11 154.58 193.08 Z M 154.48 194.04 L 154.38 195.00 C 154.28 195.98 154.99 196.86 155.97 196.95 C 156.95 197.05 157.82 196.34 157.92 195.36 L 158.02 194.40 C 158.12 193.42 157.40 192.55 156.43 192.45 C 155.45 192.35 154.57 193.07 154.48 194.04 Z M 154.38 195.02 L 154.28 196.00 C 154.19 196.98 154.91 197.85 155.89 197.94 C 156.87 198.04 157.74 197.32 157.83 196.34 L 157.92 195.35 C 158.02 194.37 157.30 193.50 156.32 193.41 C 155.34 193.32 154.47 194.04 154.38 195.02 Z M 154.28 196.01 L 154.19 197.05 C 154.10 198.03 154.83 198.89 155.81 198.98 C 156.79 199.07 157.65 198.34 157.74 197.36 L 157.83 196.33 C 157.92 195.35 157.19 194.48 156.21 194.40 C 155.23 194.31 154.37 195.03 154.28 196.01 Z M 154.19 197.06 L 154.10 198.14 C 154.02 199.12 154.75 199.98 155.73 200.06 C 156.71 200.14 157.57 199.41 157.65 198.43 L 157.74 197.35 C 157.82 196.37 157.09 195.51 156.11 195.42 C 155.13 195.34 154.27 196.07 154.19 197.06 Z M 154.10 198.15 L 154.02 199.14 C 153.94 200.13 154.68 200.98 155.66 201.06 C 156.64 201.14 157.50 200.40 157.58 199.42 L 157.66 198.42 C 157.73 197.44 157.00 196.58 156.01 196.50 C 155.03 196.43 154.17 197.16 154.10 198.15 Z M 154.02 199.15 L 153.94 200.18 C 153.87 201.17 154.61 202.02 155.59 202.09 C 156.58 202.16 157.43 201.43 157.50 200.44 L 157.58 199.41 C 157.65 198.43 156.91 197.57 155.93 197.50 C 154.95 197.43 154.09 198.17 154.02 199.15 Z M 153.94 200.19 L 153.87 201.23 C 153.80 202.22 154.54 203.07 155.53 203.14 C 156.51 203.21 157.37 202.46 157.43 201.48 L 157.50 200.43 C 157.57 199.45 156.83 198.60 155.85 198.53 C 154.86 198.46 154.01 199.20 153.94 200.19 Z M 153.87 201.24 L 153.80 202.28 C 153.74 203.26 154.48 204.11 155.47 204.17 C 156.45 204.24 157.30 203.49 157.37 202.51 L 157.43 201.47 C 157.50 200.49 156.75 199.64 155.77 199.57 C 154.78 199.51 153.93 200.26 153.87 201.24 Z M 153.80 202.28 L 153.74 203.29 C 153.68 204.28 154.43 205.12 155.42 205.18 C 156.40 205.24 157.25 204.49 157.31 203.50 L 157.37 202.50 C 157.43 201.51 156.68 200.67 155.69 200.61 C 154.71 200.55 153.86 201.30 153.80 202.28 Z M 153.74 203.30 L 153.69 204.26 C 153.63 205.24 154.39 206.08 155.38 206.14 C 156.36 206.19 157.20 205.43 157.26 204.45 L 157.31 203.49 C 157.36 202.51 156.61 201.67 155.62 201.61 C 154.64 201.56 153.79 202.31 153.74 203.30 Z M 153.69 204.27 L 153.64 205.38 C 153.59 206.36 154.35 207.20 155.34 207.25 C 156.33 207.29 157.16 206.53 157.21 205.54 L 157.26 204.43 C 157.30 203.45 156.54 202.61 155.55 202.57 C 154.57 202.52 153.73 203.28 153.69 204.27 Z M 153.64 205.40 L 153.59 206.88 C 153.55 207.86 154.33 208.69 155.31 208.72 C 156.30 208.75 157.13 207.98 157.16 207.00 L 157.21 205.52 C 157.24 204.53 156.47 203.71 155.48 203.67 C 154.49 203.64 153.67 204.42 153.64 205.40 Z M 153.59 206.90 L 153.57 207.80 C 153.55 208.78 154.33 209.60 155.32 209.62 C 156.30 209.64 157.12 208.85 157.14 207.87 L 157.16 206.97 C 157.18 205.99 156.39 205.17 155.41 205.15 C 154.42 205.13 153.61 205.91 153.59 206.90 Z M 153.57 207.81 L 153.57 207.97 C 153.55 208.96 154.34 209.77 155.32 209.78 C 156.31 209.80 157.12 209.01 157.14 208.03 L 157.14 207.86 C 157.15 206.87 156.37 206.06 155.38 206.05 C 154.40 206.03 153.58 206.82 153.57 207.81 Z M 157.13 208.00 L 157.13 207.51 C 157.13 206.53 156.33 205.74 155.35 205.74 C 154.37 205.74 153.58 206.53 153.58 207.51 L 153.58 208.00 C 153.58 208.98 154.37 209.77 155.35 209.77 C 156.33 209.77 157.13 208.98 157.13 208.00 Z M 157.11 207.51 L 157.11 206.57 C 157.11 205.60 156.32 204.81 155.35 204.81 C 154.38 204.81 153.60 205.60 153.60 206.57 L 153.60 207.51 C 153.60 208.48 154.38 209.27 155.35 209.27 C 156.32 209.27 157.11 208.48 157.11 207.51 Z M 157.09 206.57 L 157.09 205.33 C 157.09 204.37 156.31 203.59 155.35 203.59 C 154.39 203.59 153.62 204.37 153.62 205.33 L 153.62 206.57 C 153.62 207.53 154.39 208.30 155.35 208.30 C 156.31 208.30 157.09 207.53 157.09 206.57 Z M 157.07 205.33 L 157.07 203.99 C 157.07 203.04 156.30 202.27 155.35 202.27 C 154.40 202.27 153.64 203.04 153.64 203.99 L 153.64 205.33 C 153.64 206.27 154.40 207.04 155.35 207.04 C 156.30 207.04 157.07 206.27 157.07 205.33 Z M 157.04 203.99 L 157.04 202.92 C 157.04 201.98 156.28 201.23 155.35 201.23 C 154.42 201.23 153.66 201.98 153.66 202.92 L 153.66 203.99 C 153.66 204.92 154.42 205.68 155.35 205.68 C 156.28 205.68 157.04 204.92 157.04 203.99 Z M 157.01 202.92 L 157.01 201.87 C 157.01 200.95 156.27 200.21 155.35 200.21 C 154.44 200.21 153.70 200.95 153.70 201.87 L 153.70 202.92 C 153.70 203.83 154.44 204.57 155.35 204.57 C 156.27 204.57 157.01 203.83 157.01 202.92 Z M 156.98 201.87 L 156.98 200.85 C 156.98 199.96 156.25 199.23 155.35 199.23 C 154.46 199.23 153.73 199.96 153.73 200.85 L 153.73 201.87 C 153.73 202.76 154.46 203.49 155.35 203.49 C 156.25 203.49 156.98 202.76 156.98 201.87 Z M 156.94 200.85 L 156.94 199.89 C 156.94 199.02 156.23 198.30 155.35 198.30 C 154.47 198.30 153.76 199.02 153.76 199.89 L 153.76 200.85 C 153.76 201.73 154.47 202.44 155.35 202.44 C 156.23 202.44 156.94 201.73 156.94 200.85 Z M 156.91 199.89 L 156.91 198.98 C 156.91 198.12 156.21 197.42 155.35 197.42 C 154.49 197.42 153.79 198.12 153.79 198.98 L 153.79 199.89 C 153.79 200.75 154.49 201.45 155.35 201.45 C 156.21 201.45 156.91 200.75 156.91 199.89 Z M 156.88 198.98 L 156.88 197.87 C 156.88 197.02 156.20 196.34 155.35 196.34 C 154.51 196.34 153.82 197.02 153.82 197.87 L 153.82 198.98 C 153.82 199.83 154.51 200.51 155.35 200.51 C 156.20 200.51 156.88 199.83 156.88 198.98 Z M 156.86 197.87 L 156.86 196.87 C 156.86 196.04 156.19 195.36 155.35 195.36 C 154.52 195.36 153.84 196.04 153.84 196.87 L 153.84 197.87 C 153.84 198.70 154.52 199.38 155.35 199.38 C 156.19 199.38 156.86 198.70 156.86 197.87 Z M 156.84 196.87 L 156.84 195.95 C 156.84 195.13 156.17 194.46 155.35 194.46 C 154.53 194.46 153.86 195.13 153.86 195.95 L 153.86 196.87 C 153.86 197.70 154.53 198.36 155.35 198.36 C 156.17 198.36 156.84 197.70 156.84 196.87 Z M 156.82 195.95 L 156.82 195.01 C 156.82 194.20 156.16 193.54 155.35 193.54 C 154.54 193.54 153.88 194.20 153.88 195.01 L 153.88 195.95 C 153.88 196.76 154.54 197.42 155.35 197.42 C 156.16 197.42 156.82 196.76 156.82 195.95 Z M 156.81 195.00 L 156.81 194.01 C 156.80 193.21 156.15 192.56 155.34 192.56 C 154.54 192.56 153.89 193.22 153.89 194.03 L 153.89 195.01 C 153.90 195.82 154.55 196.47 155.36 196.47 C 156.16 196.46 156.81 195.81 156.81 195.00 Z M 156.80 194.00 L 156.79 192.99 C 156.77 192.19 156.11 191.55 155.31 191.56 C 154.51 191.58 153.87 192.24 153.88 193.04 L 153.90 194.04 C 153.91 194.84 154.57 195.48 155.37 195.47 C 156.17 195.46 156.81 194.80 156.80 194.00 Z M 156.78 192.97 L 156.75 191.95 C 156.72 191.16 156.05 190.53 155.26 190.56 C 154.46 190.58 153.83 191.25 153.86 192.05 L 153.89 193.06 C 153.91 193.86 154.58 194.48 155.38 194.46 C 156.18 194.43 156.80 193.77 156.78 192.97 Z M 156.74 191.93 L 156.69 190.94 C 156.65 190.15 155.97 189.54 155.18 189.58 C 154.38 189.62 153.77 190.30 153.81 191.09 L 153.86 192.07 C 153.90 192.87 154.58 193.48 155.38 193.44 C 156.17 193.40 156.78 192.72 156.74 191.93 Z M 156.68 190.92 L 156.61 189.92 C 156.56 189.13 155.87 188.53 155.08 188.58 C 154.29 188.64 153.69 189.32 153.75 190.11 L 153.82 191.11 C 153.87 191.91 154.56 192.50 155.35 192.45 C 156.14 192.39 156.74 191.71 156.68 190.92 Z M 156.61 189.90 L 156.53 188.89 C 156.46 188.10 155.77 187.52 154.98 187.58 C 154.19 187.65 153.61 188.34 153.67 189.13 L 153.75 190.13 C 153.82 190.92 154.51 191.51 155.30 191.44 C 156.09 191.38 156.67 190.69 156.61 189.90 Z M 156.52 188.87 L 156.43 187.89 C 156.36 187.10 155.66 186.53 154.87 186.60 C 154.09 186.67 153.51 187.37 153.58 188.16 L 153.67 189.14 C 153.75 189.93 154.45 190.51 155.23 190.43 C 156.02 190.36 156.60 189.66 156.52 188.87 Z M 156.43 187.87 L 156.32 186.90 C 156.24 186.11 155.54 185.54 154.75 185.63 C 153.97 185.71 153.40 186.41 153.48 187.20 L 153.59 188.17 C 153.67 188.96 154.37 189.53 155.16 189.44 C 155.94 189.36 156.51 188.66 156.43 187.87 Z M 156.32 186.88 L 156.20 185.89 C 156.11 185.10 155.40 184.54 154.62 184.64 C 153.84 184.73 153.28 185.44 153.37 186.22 L 153.49 187.21 C 153.58 188.00 154.29 188.56 155.07 188.46 C 155.85 188.37 156.41 187.66 156.32 186.88 Z M 156.20 185.87 L 156.07 184.85 C 155.97 184.07 155.25 183.52 154.47 183.62 C 153.69 183.72 153.14 184.43 153.24 185.22 L 153.37 186.24 C 153.47 187.02 154.19 187.57 154.97 187.47 C 155.75 187.37 156.30 186.65 156.20 185.87 Z M 156.06 184.83 L 155.93 183.87 C 155.82 183.09 155.09 182.55 154.31 182.66 C 153.53 182.77 152.99 183.49 153.10 184.27 L 153.24 185.23 C 153.35 186.01 154.08 186.55 154.86 186.44 C 155.63 186.33 156.18 185.61 156.06 184.83 Z M 155.92 183.85 L 155.78 182.87 C 155.66 182.09 154.93 181.56 154.15 181.68 C 153.37 181.79 152.84 182.52 152.96 183.30 L 153.11 184.28 C 153.22 185.06 153.95 185.60 154.73 185.48 C 155.51 185.36 156.04 184.63 155.92 183.85 Z M 155.77 182.86 L 155.62 181.86 C 155.49 181.09 154.76 180.56 153.99 180.68 C 153.21 180.80 152.68 181.53 152.80 182.31 L 152.96 183.31 C 153.08 184.08 153.81 184.62 154.59 184.49 C 155.37 184.37 155.90 183.64 155.77 182.86 Z M 155.62 181.86 L 155.45 180.85 C 155.33 180.07 154.60 179.55 153.82 179.67 C 153.04 179.80 152.51 180.53 152.64 181.30 L 152.80 182.31 C 152.93 183.09 153.66 183.62 154.43 183.49 C 155.21 183.37 155.74 182.64 155.62 181.86 Z M 155.45 180.85 L 155.44 180.74 C 155.31 179.96 154.58 179.44 153.80 179.56 C 153.03 179.69 152.50 180.42 152.62 181.20 L 152.64 181.30 C 152.77 182.08 153.50 182.61 154.27 182.48 C 155.05 182.36 155.58 181.63 155.45 180.85 Z"
      fill="black"
      fill-rule="nonzero" /><path d="M 116.53 134.23 L 117.48 134.51 C 118.34 134.77 119.24 134.28 119.49 133.43 C 119.74 132.57 119.26 131.67 118.40 131.42 L 117.45 131.14 C 116.59 130.88 115.69 131.37 115.44 132.22 C 115.19 133.08 115.67 133.97 116.53 134.23 Z M 117.47 134.52 L 118.43 134.81 C 119.29 135.07 120.19 134.58 120.45 133.72 C 120.71 132.87 120.22 131.96 119.37 131.70 L 118.41 131.41 C 117.56 131.16 116.65 131.64 116.39 132.50 C 116.13 133.35 116.62 134.26 117.47 134.52 Z M 118.41 134.81 L 119.37 135.11 C 120.23 135.38 121.14 134.90 121.41 134.04 C 121.68 133.18 121.20 132.27 120.34 132.00 L 119.38 131.70 C 118.53 131.43 117.61 131.91 117.34 132.77 C 117.08 133.63 117.55 134.54 118.41 134.81 Z M 119.34 135.11 L 120.30 135.42 C 121.16 135.70 122.08 135.24 122.36 134.38 C 122.64 133.52 122.18 132.60 121.32 132.32 L 120.36 132.00 C 119.51 131.72 118.58 132.19 118.30 133.04 C 118.02 133.90 118.48 134.83 119.34 135.11 Z M 120.27 135.42 L 121.22 135.75 C 122.07 136.05 123.01 135.60 123.31 134.74 C 123.61 133.89 123.16 132.95 122.30 132.65 L 121.35 132.32 C 120.49 132.02 119.56 132.47 119.26 133.33 C 118.96 134.18 119.41 135.12 120.27 135.42 Z M 121.18 135.74 L 122.13 136.09 C 122.98 136.41 123.92 135.98 124.24 135.13 C 124.56 134.27 124.12 133.33 123.27 133.01 L 122.33 132.66 C 121.48 132.34 120.54 132.78 120.22 133.63 C 119.90 134.48 120.33 135.42 121.18 135.74 Z M 122.09 136.08 L 123.01 136.45 C 123.86 136.79 124.82 136.38 125.15 135.53 C 125.49 134.69 125.08 133.73 124.24 133.39 L 123.31 133.02 C 122.47 132.68 121.51 133.09 121.17 133.94 C 120.83 134.78 121.24 135.74 122.09 136.08 Z M 122.97 136.44 L 123.88 136.83 C 124.71 137.19 125.69 136.81 126.05 135.97 C 126.41 135.13 126.02 134.16 125.19 133.80 L 124.28 133.41 C 123.44 133.04 122.47 133.43 122.11 134.27 C 121.75 135.10 122.13 136.07 122.97 136.44 Z M 123.81 136.80 L 124.70 137.23 C 125.53 137.63 126.52 137.28 126.91 136.46 C 127.31 135.64 126.96 134.65 126.14 134.25 L 125.25 133.83 C 124.43 133.43 123.44 133.77 123.04 134.60 C 122.65 135.42 122.99 136.41 123.81 136.80 Z M 124.61 137.19 L 125.48 137.67 C 126.28 138.12 127.28 137.84 127.73 137.04 C 128.18 136.24 127.90 135.23 127.10 134.79 L 126.23 134.30 C 125.44 133.85 124.43 134.14 123.98 134.93 C 123.53 135.73 123.82 136.74 124.61 137.19 Z M 125.36 137.61 L 126.21 138.17 C 126.97 138.68 128.00 138.48 128.51 137.72 C 129.02 136.96 128.82 135.93 128.06 135.42 L 127.21 134.85 C 126.45 134.34 125.42 134.54 124.91 135.30 C 124.40 136.07 124.60 137.10 125.36 137.61 Z M 126.08 138.08 L 126.87 138.72 C 127.58 139.30 128.63 139.19 129.21 138.48 C 129.78 137.77 129.68 136.72 128.96 136.14 L 128.18 135.51 C 127.46 134.93 126.42 135.04 125.84 135.75 C 125.26 136.46 125.37 137.51 126.08 138.08 Z M 126.75 138.62 L 127.48 139.33 C 128.13 139.98 129.19 139.97 129.83 139.31 C 130.47 138.66 130.46 137.61 129.81 136.97 L 129.08 136.25 C 128.43 135.61 127.38 135.61 126.73 136.27 C 126.09 136.92 126.10 137.97 126.75 138.62 Z M 127.35 139.20 L 127.99 139.98 C 128.56 140.69 129.61 140.80 130.32 140.22 C 131.04 139.64 131.15 138.60 130.57 137.88 L 129.94 137.10 C 129.36 136.39 128.31 136.28 127.60 136.86 C 126.89 137.44 126.78 138.48 127.35 139.20 Z M 127.85 139.79 L 128.35 140.61 C 128.82 141.40 129.84 141.65 130.63 141.18 C 131.42 140.71 131.67 139.69 131.20 138.90 L 130.70 138.07 C 130.23 137.29 129.21 137.03 128.42 137.50 C 127.63 137.98 127.38 139.00 127.85 139.79 Z M 128.22 140.35 L 128.56 141.23 C 128.88 142.09 129.84 142.52 130.70 142.20 C 131.56 141.87 131.99 140.91 131.67 140.05 L 131.33 139.17 C 131.00 138.31 130.04 137.88 129.18 138.20 C 128.33 138.53 127.89 139.49 128.22 140.35 Z M 128.48 140.96 L 128.66 141.90 C 128.83 142.80 129.70 143.39 130.60 143.22 C 131.50 143.04 132.09 142.17 131.92 141.27 L 131.74 140.33 C 131.57 139.43 130.70 138.84 129.80 139.01 C 128.90 139.18 128.31 140.05 128.48 140.96 Z M 128.63 141.67 L 128.69 142.69 C 128.74 143.61 129.52 144.31 130.44 144.26 C 131.35 144.21 132.05 143.42 132.00 142.51 L 131.95 141.49 C 131.90 140.58 131.12 139.88 130.20 139.93 C 129.28 139.98 128.58 140.76 128.63 141.67 Z M 128.69 142.55 L 128.65 143.61 C 128.63 144.52 129.35 145.29 130.26 145.32 C 131.18 145.35 131.94 144.63 131.97 143.71 L 132.00 142.65 C 132.03 141.73 131.31 140.97 130.40 140.94 C 129.48 140.91 128.72 141.63 128.69 142.55 Z M 128.66 143.53 L 128.58 144.52 C 128.51 145.43 129.19 146.23 130.10 146.31 C 131.01 146.38 131.81 145.70 131.89 144.79 L 131.97 143.79 C 132.04 142.88 131.36 142.08 130.45 142.01 C 129.53 141.93 128.73 142.61 128.66 143.53 Z M 128.59 144.45 L 128.47 145.48 C 128.36 146.38 129.00 147.21 129.91 147.32 C 130.82 147.43 131.64 146.78 131.75 145.88 L 131.88 144.85 C 131.99 143.95 131.34 143.12 130.43 143.01 C 129.53 142.90 128.70 143.55 128.59 144.45 Z M 128.48 145.41 L 128.31 146.41 C 128.16 147.31 128.77 148.16 129.67 148.31 C 130.57 148.46 131.42 147.86 131.57 146.96 L 131.74 145.95 C 131.89 145.05 131.28 144.20 130.38 144.05 C 129.48 143.90 128.63 144.51 128.48 145.41 Z M 128.33 146.33 L 128.12 147.28 C 127.93 148.17 128.49 149.05 129.38 149.25 C 130.27 149.44 131.15 148.88 131.34 147.99 L 131.55 147.04 C 131.75 146.15 131.19 145.27 130.30 145.07 C 129.41 144.88 128.53 145.44 128.33 146.33 Z M 128.15 147.17 L 127.85 148.18 C 127.59 149.05 128.09 149.97 128.96 150.23 C 129.83 150.49 130.75 149.99 131.01 149.12 L 131.31 148.10 C 131.57 147.23 131.07 146.32 130.20 146.06 C 129.33 145.80 128.41 146.29 128.15 147.17 Z M 127.90 148.05 L 127.54 148.99 C 127.20 149.83 127.62 150.78 128.46 151.11 C 129.31 151.44 130.26 151.03 130.59 150.18 L 130.96 149.25 C 131.29 148.41 130.87 147.45 130.03 147.12 C 129.19 146.79 128.23 147.21 127.90 148.05 Z M 127.59 148.88 L 127.17 149.74 C 126.78 150.56 127.13 151.54 127.95 151.93 C 128.76 152.32 129.74 151.97 130.13 151.15 L 130.54 150.29 C 130.93 149.47 130.58 148.50 129.77 148.11 C 128.95 147.72 127.98 148.06 127.59 148.88 Z M 127.21 149.68 L 126.76 150.53 C 126.34 151.32 126.64 152.31 127.43 152.73 C 128.23 153.16 129.22 152.86 129.64 152.06 L 130.09 151.22 C 130.52 150.42 130.21 149.43 129.42 149.01 C 128.62 148.59 127.64 148.89 127.21 149.68 Z M 126.78 150.50 L 126.30 151.37 C 125.86 152.15 126.14 153.14 126.93 153.58 C 127.71 154.02 128.70 153.74 129.14 152.95 L 129.62 152.09 C 130.06 151.30 129.78 150.31 128.99 149.87 C 128.21 149.44 127.22 149.72 126.78 150.50 Z M 126.31 151.35 L 125.81 152.23 C 125.37 153.01 125.64 154.00 126.42 154.44 C 127.20 154.88 128.19 154.61 128.63 153.84 L 129.13 152.96 C 129.57 152.18 129.30 151.19 128.52 150.75 C 127.74 150.30 126.75 150.58 126.31 151.35 Z M 125.82 152.22 L 125.32 153.10 C 124.87 153.87 125.14 154.86 125.91 155.31 C 126.68 155.75 127.67 155.49 128.12 154.71 L 128.62 153.84 C 129.07 153.06 128.80 152.08 128.03 151.63 C 127.25 151.18 126.26 151.45 125.82 152.22 Z M 125.32 153.10 L 124.82 153.98 C 124.37 154.76 124.64 155.74 125.41 156.18 C 126.18 156.63 127.17 156.36 127.61 155.59 L 128.11 154.71 C 128.56 153.94 128.29 152.95 127.52 152.51 C 126.75 152.07 125.76 152.33 125.32 153.10 Z M 124.82 153.99 L 124.32 154.86 C 123.88 155.63 124.15 156.61 124.92 157.05 C 125.69 157.49 126.67 157.23 127.11 156.46 L 127.61 155.58 C 128.05 154.81 127.78 153.83 127.01 153.39 C 126.24 152.95 125.26 153.22 124.82 153.99 Z M 124.33 154.87 L 123.83 155.73 C 123.40 156.50 123.66 157.47 124.43 157.91 C 125.19 158.35 126.17 158.08 126.61 157.32 L 127.10 156.45 C 127.54 155.69 127.27 154.71 126.51 154.27 C 125.74 153.84 124.76 154.10 124.33 154.87 Z M 123.84 155.73 L 123.36 156.57 C 122.92 157.34 123.18 158.31 123.94 158.75 C 124.70 159.18 125.67 158.92 126.11 158.16 L 126.60 157.32 C 127.04 156.56 126.77 155.58 126.01 155.15 C 125.25 154.71 124.28 154.97 123.84 155.73 Z M 123.37 156.57 L 122.91 157.36 C 122.48 158.11 122.73 159.08 123.49 159.52 C 124.25 159.95 125.21 159.70 125.65 158.94 L 126.10 158.16 C 126.54 157.40 126.28 156.44 125.53 156.00 C 124.77 155.56 123.80 155.82 123.37 156.57 Z M 122.92 157.37 L 122.45 158.19 C 122.02 158.95 122.28 159.91 123.03 160.34 C 123.79 160.77 124.75 160.51 125.18 159.75 L 125.65 158.93 C 126.08 158.17 125.82 157.21 125.06 156.78 C 124.31 156.35 123.35 156.61 122.92 157.37 Z M 122.44 158.22 L 121.94 159.13 C 121.52 159.89 121.80 160.84 122.55 161.26 C 123.31 161.67 124.26 161.40 124.68 160.64 L 125.18 159.73 C 125.60 158.97 125.32 158.02 124.57 157.60 C 123.81 157.19 122.86 157.46 122.44 158.22 Z M 121.93 159.16 L 121.42 160.13 C 121.02 160.89 121.31 161.83 122.07 162.23 C 122.83 162.63 123.77 162.34 124.17 161.58 L 124.68 160.61 C 125.08 159.86 124.79 158.92 124.04 158.51 C 123.28 158.11 122.34 158.40 121.93 159.16 Z M 121.42 160.16 L 120.97 161.02 C 120.59 161.79 120.89 162.72 121.65 163.10 C 122.42 163.49 123.35 163.19 123.73 162.42 L 124.17 161.55 C 124.56 160.79 124.26 159.86 123.49 159.48 C 122.73 159.09 121.80 159.39 121.42 160.16 Z M 120.97 161.06 L 120.52 161.98 C 120.15 162.75 120.48 163.67 121.24 164.04 C 122.01 164.40 122.93 164.08 123.30 163.32 L 123.74 162.39 C 124.11 161.63 123.79 160.71 123.02 160.34 C 122.26 159.97 121.34 160.29 120.97 161.06 Z M 120.51 162.02 L 120.09 162.97 C 119.74 163.74 120.09 164.65 120.86 164.99 C 121.63 165.34 122.54 165.00 122.88 164.22 L 123.31 163.28 C 123.65 162.50 123.31 161.60 122.54 161.25 C 121.76 160.90 120.86 161.25 120.51 162.02 Z M 120.07 163.03 L 119.69 163.97 C 119.37 164.75 119.75 165.64 120.53 165.95 C 121.31 166.27 122.20 165.89 122.52 165.11 L 122.90 164.17 C 123.21 163.39 122.84 162.50 122.06 162.18 C 121.28 161.87 120.39 162.24 120.07 163.03 Z M 119.67 164.04 L 119.35 164.98 C 119.08 165.77 119.50 166.63 120.29 166.90 C 121.08 167.18 121.94 166.76 122.22 165.96 L 122.54 165.03 C 122.81 164.24 122.39 163.38 121.60 163.10 C 120.81 162.83 119.94 163.25 119.67 164.04 Z M 119.33 165.09 L 119.05 166.16 C 118.84 166.96 119.32 167.78 120.13 167.99 C 120.93 168.20 121.75 167.72 121.96 166.91 L 122.24 165.85 C 122.45 165.05 121.96 164.22 121.16 164.02 C 120.36 163.81 119.54 164.29 119.33 165.09 Z M 119.04 166.28 L 118.87 167.27 C 118.73 168.08 119.27 168.85 120.08 168.99 C 120.89 169.13 121.66 168.59 121.80 167.78 L 121.97 166.79 C 122.11 165.98 121.57 165.21 120.76 165.07 C 119.95 164.93 119.18 165.47 119.04 166.28 Z M 118.87 167.37 L 118.77 168.31 C 118.68 169.11 119.26 169.84 120.07 169.93 C 120.87 170.02 121.60 169.43 121.69 168.63 L 121.79 167.69 C 121.88 166.88 121.30 166.15 120.49 166.07 C 119.69 165.98 118.96 166.56 118.87 167.37 Z M 118.78 168.36 L 118.71 169.22 C 118.65 170.02 119.25 170.71 120.05 170.78 C 120.85 170.84 121.55 170.24 121.61 169.44 L 121.68 168.58 C 121.74 167.78 121.14 167.08 120.34 167.02 C 119.54 166.96 118.84 167.56 118.78 168.36 Z"
      fill="black"
      fill-rule="nonzero" /><path d="M 191.44 129.83 L 191.03 130.84 C 190.70 131.66 191.09 132.60 191.91 132.93 C 192.73 133.26 193.67 132.86 194.00 132.04 L 194.41 131.03 C 194.74 130.21 194.34 129.28 193.52 128.95 C 192.70 128.62 191.77 129.01 191.44 129.83 Z M 191.03 130.85 L 190.63 131.84 C 190.30 132.66 190.69 133.60 191.51 133.93 C 192.34 134.26 193.27 133.86 193.60 133.04 L 194.00 132.04 C 194.33 131.22 193.93 130.29 193.11 129.96 C 192.29 129.63 191.36 130.02 191.03 130.85 Z M 190.62 131.85 L 190.23 132.82 C 189.91 133.64 190.31 134.58 191.13 134.90 C 191.95 135.23 192.89 134.83 193.22 134.01 L 193.60 133.04 C 193.93 132.21 193.53 131.28 192.71 130.95 C 191.88 130.62 190.95 131.02 190.62 131.85 Z M 190.23 132.82 L 189.86 133.76 C 189.54 134.58 189.94 135.51 190.77 135.84 C 191.59 136.17 192.53 135.76 192.85 134.93 L 193.22 134.00 C 193.55 133.18 193.14 132.24 192.31 131.92 C 191.49 131.59 190.56 132.00 190.23 132.82 Z M 189.86 133.77 L 189.52 134.64 C 189.20 135.47 189.61 136.40 190.44 136.73 C 191.27 137.05 192.20 136.63 192.52 135.80 L 192.86 134.92 C 193.18 134.10 192.77 133.16 191.94 132.84 C 191.11 132.52 190.18 132.94 189.86 133.77 Z M 189.51 134.66 L 189.20 135.47 C 188.89 136.30 189.31 137.23 190.15 137.55 C 190.98 137.86 191.91 137.44 192.22 136.60 L 192.53 135.79 C 192.84 134.96 192.42 134.03 191.58 133.72 C 190.75 133.40 189.82 133.83 189.51 134.66 Z M 189.19 135.50 L 188.82 136.54 C 188.52 137.38 188.96 138.31 189.80 138.60 C 190.64 138.90 191.56 138.47 191.86 137.63 L 192.23 136.58 C 192.53 135.74 192.10 134.82 191.25 134.52 C 190.41 134.22 189.49 134.66 189.19 135.50 Z M 188.80 136.58 L 188.48 137.55 C 188.20 138.40 188.67 139.32 189.52 139.59 C 190.37 139.87 191.29 139.41 191.57 138.56 L 191.88 137.59 C 192.16 136.74 191.70 135.82 190.84 135.54 C 189.99 135.26 189.08 135.73 188.80 136.58 Z M 188.46 137.59 L 188.20 138.49 C 187.94 139.35 188.44 140.26 189.30 140.51 C 190.16 140.77 191.07 140.27 191.32 139.41 L 191.59 138.51 C 191.84 137.65 191.35 136.74 190.48 136.49 C 189.62 136.24 188.72 136.73 188.46 137.59 Z M 188.18 138.53 L 187.94 139.42 C 187.71 140.29 188.23 141.19 189.11 141.42 C 189.98 141.65 190.87 141.13 191.10 140.26 L 191.34 139.37 C 191.57 138.50 191.05 137.60 190.18 137.37 C 189.31 137.14 188.41 137.66 188.18 138.53 Z M 187.93 139.45 L 187.70 140.36 C 187.49 141.25 188.03 142.14 188.91 142.35 C 189.79 142.57 190.68 142.03 190.90 141.15 L 191.12 140.23 C 191.34 139.35 190.80 138.46 189.91 138.24 C 189.03 138.03 188.14 138.57 187.93 139.45 Z M 187.69 140.39 L 187.47 141.35 C 187.27 142.24 187.82 143.12 188.71 143.32 C 189.60 143.53 190.49 142.97 190.69 142.08 L 190.91 141.12 C 191.11 140.23 190.56 139.35 189.67 139.15 C 188.78 138.94 187.89 139.50 187.69 140.39 Z M 187.46 141.37 L 187.24 142.36 C 187.05 143.26 187.62 144.14 188.52 144.33 C 189.42 144.52 190.30 143.95 190.49 143.06 L 190.70 142.06 C 190.90 141.17 190.32 140.28 189.43 140.09 C 188.53 139.90 187.65 140.47 187.46 141.37 Z M 187.23 142.38 L 187.03 143.40 C 186.85 144.30 187.43 145.18 188.34 145.36 C 189.24 145.54 190.12 144.95 190.30 144.05 L 190.50 143.04 C 190.68 142.13 190.10 141.25 189.19 141.07 C 188.29 140.89 187.41 141.48 187.23 142.38 Z M 187.02 143.42 L 186.83 144.40 C 186.66 145.32 187.27 146.19 188.18 146.36 C 189.09 146.53 189.96 145.93 190.13 145.02 L 190.31 144.03 C 190.48 143.12 189.88 142.24 188.97 142.07 C 188.06 141.90 187.18 142.51 187.02 143.42 Z M 186.82 144.42 L 186.65 145.40 C 186.50 146.32 187.11 147.19 188.03 147.35 C 188.94 147.50 189.82 146.89 189.97 145.97 L 190.14 145.00 C 190.30 144.08 189.69 143.21 188.77 143.05 C 187.85 142.89 186.98 143.51 186.82 144.42 Z M 186.64 145.41 L 186.48 146.40 C 186.33 147.32 186.96 148.19 187.88 148.34 C 188.81 148.49 189.68 147.86 189.83 146.94 L 189.99 145.96 C 190.14 145.03 189.51 144.16 188.59 144.01 C 187.66 143.86 186.79 144.49 186.64 145.41 Z M 186.47 146.41 L 186.32 147.40 C 186.18 148.33 186.81 149.20 187.74 149.34 C 188.67 149.49 189.54 148.85 189.68 147.92 L 189.84 146.93 C 189.98 146.00 189.34 145.13 188.41 144.99 C 187.49 144.84 186.62 145.48 186.47 146.41 Z M 186.31 147.41 L 186.16 148.40 C 186.02 149.34 186.67 150.21 187.60 150.35 C 188.53 150.49 189.40 149.84 189.54 148.91 L 189.69 147.92 C 189.83 146.98 189.19 146.11 188.25 145.97 C 187.32 145.83 186.45 146.48 186.31 147.41 Z M 186.15 148.41 L 186.01 149.38 C 185.88 150.31 186.53 151.19 187.46 151.32 C 188.40 151.46 189.27 150.81 189.41 149.87 L 189.55 148.91 C 189.69 147.97 189.04 147.10 188.10 146.96 C 187.16 146.82 186.29 147.47 186.15 148.41 Z M 186.01 149.39 L 185.87 150.37 C 185.74 151.31 186.39 152.18 187.33 152.31 C 188.28 152.45 189.15 151.79 189.28 150.85 L 189.42 149.86 C 189.55 148.92 188.89 148.05 187.95 147.92 C 187.01 147.79 186.14 148.44 186.01 149.39 Z M 185.86 150.38 L 185.73 151.38 C 185.60 152.33 186.27 153.20 187.21 153.32 C 188.16 153.45 189.03 152.78 189.15 151.83 L 189.29 150.84 C 189.41 149.89 188.74 149.02 187.80 148.90 C 186.85 148.77 185.98 149.44 185.86 150.38 Z M 185.72 151.40 L 185.60 152.41 C 185.48 153.36 186.16 154.23 187.11 154.34 C 188.06 154.46 188.92 153.78 189.04 152.83 L 189.16 151.82 C 189.28 150.87 188.60 150.00 187.65 149.89 C 186.70 149.77 185.83 150.45 185.72 151.40 Z M 185.59 152.43 L 185.48 153.43 C 185.37 154.39 186.06 155.25 187.02 155.35 C 187.98 155.45 188.83 154.76 188.94 153.81 L 189.05 152.81 C 189.15 151.86 188.46 151.00 187.51 150.89 C 186.55 150.79 185.69 151.48 185.59 152.43 Z M 185.47 153.45 L 185.37 154.44 C 185.28 155.40 185.98 156.26 186.94 156.35 C 187.90 156.44 188.75 155.74 188.85 154.78 L 188.95 153.79 C 189.04 152.83 188.34 151.98 187.38 151.88 C 186.42 151.79 185.57 152.49 185.47 153.45 Z M 185.37 154.46 L 185.28 155.46 C 185.20 156.42 185.91 157.27 186.87 157.36 C 187.83 157.44 188.68 156.73 188.77 155.77 L 188.85 154.77 C 188.94 153.80 188.23 152.96 187.26 152.87 C 186.30 152.79 185.45 153.50 185.37 154.46 Z M 185.28 155.47 L 185.20 156.47 C 185.12 157.44 185.84 158.29 186.81 158.36 C 187.77 158.44 188.62 157.72 188.69 156.75 L 188.77 155.75 C 188.85 154.79 188.13 153.94 187.16 153.86 C 186.20 153.79 185.35 154.51 185.28 155.47 Z M 185.19 156.49 L 185.12 157.48 C 185.05 158.45 185.78 159.30 186.75 159.37 C 187.71 159.44 188.56 158.71 188.63 157.74 L 188.70 156.74 C 188.77 155.77 188.04 154.93 187.07 154.86 C 186.10 154.79 185.26 155.52 185.19 156.49 Z M 185.11 157.49 L 185.05 158.50 C 184.98 159.47 185.72 160.31 186.69 160.38 C 187.66 160.44 188.50 159.70 188.56 158.73 L 188.63 157.73 C 188.70 156.76 187.96 155.92 186.99 155.85 C 186.02 155.79 185.18 156.52 185.11 157.49 Z M 185.04 158.51 L 184.98 159.51 C 184.92 160.48 185.66 161.32 186.64 161.38 C 187.61 161.44 188.45 160.70 188.51 159.72 L 188.57 158.72 C 188.63 157.75 187.89 156.91 186.91 156.85 C 185.94 156.79 185.10 157.54 185.04 158.51 Z M 184.98 159.52 L 184.92 160.52 C 184.87 161.50 185.62 162.33 186.60 162.38 C 187.58 162.43 188.41 161.68 188.46 160.71 L 188.51 159.71 C 188.56 158.73 187.81 157.90 186.84 157.85 C 185.86 157.80 185.03 158.55 184.98 159.52 Z M 184.92 160.54 L 184.88 161.53 C 184.83 162.51 185.59 163.34 186.57 163.38 C 187.55 163.43 188.38 162.67 188.42 161.69 L 188.46 160.69 C 188.51 159.71 187.75 158.89 186.77 158.84 C 185.79 158.80 184.96 159.56 184.92 160.54 Z M 184.87 161.55 L 184.84 162.55 C 184.81 163.53 185.58 164.35 186.56 164.38 C 187.54 164.41 188.36 163.64 188.39 162.66 L 188.43 161.67 C 188.46 160.69 187.69 159.87 186.71 159.83 C 185.73 159.80 184.91 160.57 184.87 161.55 Z M 184.84 162.57 L 184.81 163.56 C 184.79 164.54 185.57 165.36 186.55 165.38 C 187.54 165.40 188.35 164.62 188.37 163.64 L 188.40 162.64 C 188.42 161.66 187.64 160.85 186.66 160.83 C 185.67 160.80 184.86 161.58 184.84 162.57 Z M 184.81 163.58 L 184.80 164.57 C 184.79 165.56 185.57 166.37 186.56 166.38 C 187.54 166.39 188.35 165.60 188.36 164.62 L 188.38 163.62 C 188.39 162.64 187.60 161.83 186.62 161.82 C 185.63 161.81 184.83 162.59 184.81 163.58 Z M 184.80 164.59 L 184.79 165.59 C 184.79 166.57 185.58 167.37 186.56 167.38 C 187.55 167.38 188.35 166.59 188.36 165.61 L 188.36 164.61 C 188.37 163.62 187.58 162.82 186.59 162.81 C 185.61 162.81 184.81 163.60 184.80 164.59 Z M 184.79 165.59 L 184.79 166.60 C 184.79 167.58 185.58 168.38 186.57 168.38 C 187.55 168.38 188.35 167.59 188.36 166.60 L 188.36 165.60 C 188.36 164.61 187.56 163.81 186.58 163.81 C 185.59 163.81 184.79 164.61 184.79 165.59 Z M 184.79 166.60 L 184.79 167.62 C 184.79 168.60 185.59 169.40 186.57 169.40 C 187.56 169.40 188.36 168.60 188.36 167.62 L 188.36 166.60 C 188.36 165.61 187.56 164.81 186.57 164.81 C 185.59 164.81 184.79 165.61 184.79 166.60 Z M 184.79 167.62 L 184.79 168.67 C 184.79 169.66 185.59 170.46 186.58 170.45 C 187.56 170.45 188.36 169.65 188.36 168.66 L 188.36 167.61 C 188.36 166.63 187.56 165.83 186.57 165.83 C 185.58 165.83 184.79 166.63 184.79 167.62 Z M 184.79 168.69 L 184.80 169.72 C 184.81 170.71 185.62 171.50 186.60 171.49 C 187.59 171.48 188.38 170.67 188.37 169.68 L 188.36 168.65 C 188.35 167.66 187.54 166.87 186.56 166.88 C 185.57 166.89 184.78 167.70 184.79 168.69 Z M 184.80 169.75 L 184.83 170.74 C 184.85 171.73 185.67 172.51 186.66 172.48 C 187.64 172.46 188.42 171.64 188.40 170.65 L 188.37 169.65 C 188.35 168.67 187.53 167.89 186.54 167.92 C 185.55 167.94 184.77 168.76 184.80 169.75 Z M 184.83 170.79 L 184.88 171.73 C 184.93 172.72 185.77 173.47 186.75 173.42 C 187.74 173.37 188.49 172.53 188.44 171.55 L 188.40 170.61 C 188.34 169.62 187.51 168.86 186.52 168.91 C 185.54 168.96 184.78 169.80 184.83 170.79 Z M 184.88 171.80 L 184.97 172.77 C 185.06 173.76 185.93 174.48 186.92 174.39 C 187.90 174.29 188.62 173.42 188.53 172.44 L 188.44 171.47 C 188.35 170.49 187.48 169.77 186.49 169.86 C 185.51 169.95 184.79 170.82 184.88 171.80 Z M 185.00 172.92 L 185.16 173.87 C 185.34 174.84 186.26 175.48 187.23 175.31 C 188.20 175.14 188.85 174.21 188.67 173.24 L 188.50 172.30 C 188.33 171.33 187.41 170.68 186.44 170.85 C 185.47 171.03 184.82 171.95 185.00 172.92 Z M 185.22 174.09 L 185.51 175.01 C 185.81 175.94 186.81 176.46 187.74 176.17 C 188.68 175.87 189.20 174.87 188.90 173.94 L 188.62 173.02 C 188.32 172.08 187.32 171.56 186.38 171.86 C 185.45 172.15 184.93 173.15 185.22 174.09 Z M 185.61 175.25 L 186.07 176.18 C 186.50 177.06 187.56 177.43 188.44 177.00 C 189.32 176.57 189.69 175.51 189.26 174.63 L 188.80 173.69 C 188.37 172.81 187.31 172.45 186.43 172.87 C 185.55 173.30 185.18 174.37 185.61 175.25 Z M 186.18 176.37 L 186.71 177.20 C 187.24 178.02 188.34 178.25 189.16 177.72 C 189.98 177.19 190.22 176.09 189.69 175.27 L 189.15 174.44 C 188.62 173.62 187.52 173.39 186.70 173.92 C 185.88 174.45 185.64 175.55 186.18 176.37 Z M 186.80 177.31 L 187.42 178.11 C 188.01 178.89 189.12 179.03 189.90 178.44 C 190.67 177.84 190.81 176.73 190.22 175.96 L 189.60 175.15 C 189.00 174.38 187.89 174.24 187.12 174.83 C 186.35 175.43 186.20 176.54 186.80 177.31 Z M 187.49 178.20 L 188.18 178.98 C 188.82 179.72 189.94 179.79 190.67 179.15 C 191.40 178.51 191.48 177.39 190.83 176.66 L 190.14 175.88 C 189.50 175.14 188.39 175.07 187.66 175.71 C 186.93 176.35 186.85 177.46 187.49 178.20 Z M 188.25 179.06 L 188.98 179.79 C 189.66 180.48 190.77 180.49 191.46 179.81 C 192.15 179.13 192.16 178.02 191.48 177.32 L 190.76 176.59 C 190.08 175.90 188.97 175.89 188.28 176.57 C 187.58 177.25 187.57 178.36 188.25 179.06 Z M 189.06 179.86 L 189.77 180.50 C 190.49 181.15 191.60 181.09 192.25 180.37 C 192.89 179.65 192.83 178.54 192.11 177.89 L 191.40 177.25 C 190.68 176.61 189.57 176.66 188.92 177.38 C 188.28 178.10 188.34 179.21 189.06 179.86 Z M 189.90 180.59 L 190.81 181.27 C 191.58 181.84 192.67 181.69 193.25 180.91 C 193.82 180.14 193.66 179.05 192.89 178.48 L 191.98 177.80 C 191.21 177.23 190.12 177.39 189.55 178.16 C 188.97 178.93 189.13 180.02 189.90 180.59 Z M 191.00 181.37 L 191.87 181.86 C 192.70 182.33 193.75 182.04 194.22 181.22 C 194.68 180.39 194.40 179.34 193.57 178.87 L 192.70 178.38 C 191.87 177.91 190.82 178.20 190.35 179.03 C 189.89 179.85 190.18 180.90 191.00 181.37 Z M 192.07 181.94 L 192.91 182.29 C 193.78 182.65 194.77 182.24 195.13 181.37 C 195.49 180.51 195.08 179.51 194.22 179.15 L 193.37 178.80 C 192.51 178.44 191.51 178.85 191.15 179.72 C 190.79 180.58 191.20 181.57 192.07 181.94 Z M 193.06 182.32 L 193.93 182.59 C 194.81 182.87 195.75 182.38 196.03 181.50 C 196.31 180.62 195.82 179.68 194.94 179.40 L 194.07 179.12 C 193.19 178.84 192.25 179.33 191.97 180.21 C 191.69 181.10 192.18 182.04 193.06 182.32 Z M 194.03 182.60 L 194.96 182.84 C 195.85 183.06 196.75 182.52 196.97 181.64 C 197.20 180.75 196.66 179.85 195.77 179.62 L 194.84 179.39 C 193.95 179.16 193.05 179.70 192.83 180.59 C 192.60 181.48 193.14 182.38 194.03 182.60 Z M 195.05 182.84 L 196.04 183.03 C 196.93 183.21 197.79 182.63 197.97 181.74 C 198.14 180.85 197.56 179.99 196.67 179.81 L 195.68 179.62 C 194.79 179.45 193.93 180.03 193.76 180.92 C 193.58 181.81 194.16 182.67 195.05 182.84 Z M 196.12 183.03 L 197.16 183.18 C 198.05 183.31 198.88 182.70 199.00 181.81 C 199.13 180.92 198.52 180.10 197.63 179.97 L 196.59 179.82 C 195.70 179.69 194.88 180.30 194.75 181.19 C 194.62 182.08 195.23 182.90 196.12 183.03 Z M 197.22 183.17 L 198.18 183.28 C 199.06 183.37 199.86 182.73 199.95 181.85 C 200.05 180.97 199.41 180.17 198.52 180.08 L 197.57 179.98 C 196.69 179.88 195.89 180.52 195.80 181.40 C 195.70 182.29 196.34 183.08 197.22 183.17 Z M 198.23 183.27 L 199.22 183.35 C 200.10 183.42 200.87 182.76 200.94 181.88 C 201.01 181.01 200.35 180.24 199.48 180.17 L 198.48 180.09 C 197.60 180.02 196.83 180.67 196.76 181.55 C 196.69 182.43 197.35 183.20 198.23 183.27 Z M 199.26 183.33 L 200.28 183.39 C 201.15 183.44 201.89 182.78 201.94 181.91 C 201.99 181.04 201.33 180.29 200.46 180.24 L 199.44 180.18 C 198.57 180.13 197.82 180.80 197.77 181.67 C 197.72 182.54 198.39 183.28 199.26 183.33 Z M 200.31 183.38 L 201.33 183.42 C 202.19 183.45 202.92 182.78 202.95 181.92 C 202.98 181.05 202.31 180.33 201.45 180.29 L 200.43 180.25 C 199.57 180.22 198.84 180.89 198.81 181.76 C 198.77 182.62 199.45 183.34 200.31 183.38 Z M 201.36 183.40 L 202.34 183.42 C 203.20 183.44 203.90 182.76 203.92 181.91 C 203.94 181.05 203.26 180.35 202.41 180.33 L 201.42 180.31 C 200.57 180.29 199.86 180.97 199.84 181.82 C 199.82 182.68 200.50 183.38 201.36 183.40 Z M 202.37 183.41 L 203.36 183.41 C 204.21 183.41 204.90 182.72 204.90 181.88 C 204.90 181.03 204.21 180.35 203.37 180.35 L 202.38 180.34 C 201.53 180.34 200.84 181.03 200.84 181.88 C 200.84 182.72 201.53 183.41 202.37 183.41 Z M 203.40 183.39 L 204.40 183.37 C 205.24 183.35 205.90 182.66 205.88 181.82 C 205.86 180.98 205.17 180.32 204.33 180.34 L 203.33 180.36 C 202.49 180.38 201.83 181.08 201.85 181.91 C 201.87 182.75 202.56 183.41 203.40 183.39 Z M 204.44 183.35 L 205.46 183.30 C 206.29 183.26 206.93 182.55 206.88 181.73 C 206.84 180.90 206.14 180.26 205.31 180.30 L 204.29 180.35 C 203.46 180.40 202.83 181.10 202.87 181.93 C 202.91 182.76 203.61 183.39 204.44 183.35 Z M 205.50 183.29 L 206.44 183.21 C 207.26 183.15 207.87 182.43 207.81 181.61 C 207.75 180.79 207.03 180.18 206.21 180.24 L 205.27 180.32 C 204.45 180.38 203.84 181.10 203.90 181.92 C 203.96 182.74 204.68 183.35 205.50 183.29 Z M 206.48 183.20 L 207.45 183.09 C 208.26 183.01 208.85 182.28 208.77 181.47 C 208.68 180.66 207.95 180.07 207.14 180.16 L 206.17 180.26 C 205.36 180.35 204.77 181.07 204.86 181.89 C 204.94 182.70 205.67 183.28 206.48 183.20 Z M 207.50 183.08 L 208.49 182.94 C 209.30 182.83 209.86 182.09 209.75 181.29 C 209.64 180.48 208.90 179.92 208.09 180.03 L 207.10 180.17 C 206.29 180.28 205.73 181.02 205.84 181.83 C 205.95 182.63 206.69 183.19 207.50 183.08 Z M 208.54 182.92 L 209.57 182.75 C 210.36 182.61 210.89 181.86 210.76 181.07 C 210.62 180.27 209.87 179.74 209.08 179.88 L 208.05 180.05 C 207.26 180.19 206.72 180.94 206.86 181.73 C 206.99 182.53 207.75 183.06 208.54 182.92 Z M 209.61 182.73 L 210.60 182.53 C 211.38 182.37 211.88 181.60 211.72 180.82 C 211.56 180.04 210.80 179.53 210.01 179.69 L 209.03 179.89 C 208.25 180.05 207.74 180.82 207.90 181.60 C 208.06 182.39 208.83 182.89 209.61 182.73 Z M 210.64 182.52 L 211.57 182.30 C 212.35 182.11 212.83 181.34 212.65 180.56 C 212.46 179.78 211.69 179.30 210.91 179.49 L 209.97 179.71 C 209.20 179.89 208.72 180.67 208.90 181.44 C 209.08 182.22 209.86 182.70 210.64 182.52 Z M 211.61 182.28 L 212.56 182.03 C 213.33 181.83 213.79 181.04 213.59 180.27 C 213.39 179.51 212.60 179.05 211.83 179.25 L 210.87 179.50 C 210.11 179.70 209.65 180.49 209.85 181.26 C 210.05 182.03 210.84 182.49 211.61 182.28 Z M 212.59 182.02 L 213.56 181.74 C 214.33 181.52 214.77 180.73 214.55 179.96 C 214.33 179.20 213.53 178.76 212.77 178.98 L 211.80 179.26 C 211.04 179.48 210.59 180.27 210.81 181.04 C 211.03 181.80 211.83 182.24 212.59 182.02 Z M 213.59 181.73 L 214.58 181.43 C 215.34 181.19 215.76 180.39 215.52 179.63 C 215.29 178.87 214.49 178.45 213.73 178.68 L 212.74 178.99 C 211.99 179.23 211.56 180.03 211.80 180.79 C 212.03 181.54 212.84 181.97 213.59 181.73 Z M 214.60 181.41 L 215.58 181.09 C 216.34 180.84 216.74 180.03 216.49 179.28 C 216.24 178.53 215.43 178.12 214.68 178.37 L 213.70 178.70 C 212.95 178.94 212.55 179.76 212.79 180.51 C 213.04 181.26 213.85 181.66 214.60 181.41 Z M 215.61 181.08 L 216.53 180.76 C 217.28 180.49 217.67 179.68 217.41 178.93 C 217.15 178.19 216.33 177.79 215.59 178.06 L 214.66 178.38 C 213.92 178.64 213.52 179.46 213.78 180.20 C 214.05 180.95 214.86 181.34 215.61 181.08 Z M 216.55 180.75 L 217.48 180.41 C 218.22 180.14 218.61 179.32 218.34 178.58 C 218.07 177.83 217.25 177.45 216.50 177.72 L 215.57 178.06 C 214.83 178.33 214.45 179.15 214.72 179.90 C 214.99 180.64 215.81 181.02 216.55 180.75 Z M 217.50 180.40 L 218.43 180.05 C 219.17 179.77 219.55 178.95 219.27 178.21 C 218.99 177.47 218.17 177.10 217.43 177.38 L 216.49 177.73 C 215.75 178.01 215.38 178.83 215.66 179.57 C 215.93 180.31 216.76 180.68 217.50 180.40 Z M 218.44 180.05 L 219.39 179.68 C 220.12 179.40 220.49 178.58 220.21 177.84 C 219.92 177.10 219.10 176.74 218.36 177.02 L 217.42 177.38 C 216.68 177.66 216.32 178.49 216.60 179.22 C 216.88 179.96 217.71 180.33 218.44 180.05 Z M 219.39 179.68 L 220.33 179.31 C 221.07 179.03 221.43 178.20 221.15 177.47 C 220.86 176.73 220.04 176.37 219.30 176.66 L 218.36 177.02 C 217.62 177.31 217.26 178.13 217.54 178.87 C 217.83 179.60 218.66 179.97 219.39 179.68 Z M 220.34 179.31 L 220.83 179.12 C 221.56 178.84 221.92 178.01 221.64 177.28 C 221.35 176.54 220.52 176.18 219.79 176.47 L 219.30 176.66 C 218.57 176.94 218.20 177.77 218.49 178.50 C 218.78 179.24 219.60 179.60 220.34 179.31 Z"
      fill="black"
      fill-rule="nonzero" /></svg>