<svg xmlns="http://www.w3.org/2000/svg" width="300" height="300" viewBox="0 0 300 300">
<path d="M 108.17 118.10 L 109.00 118.66 C 109.72 119.15 110.69 118.96 111.18 118.24 C 111.66 117.53 111.47 116.55 110.75 116.07 L 109.93 115.51 C 109.21 115.03 108.24 115.22 107.75 115.93 C 107.27 116.65 107.46 117.62 108.17 118.10 Z M 109.00 118.67 L 109.83 119.23 C 110.55 119.72 111.52 119.53 112.01 118.81 C 112.50 118.09 112.31 117.11 111.59 116.62 L 110.76 116.06 C 110.04 115.58 109.06 115.77 108.57 116.49 C 108.09 117.21 108.28 118.18 109.00 118.67 Z M 109.82 119.24 L 110.65 119.80 C 111.37 120.29 112.36 120.10 112.85 119.37 C 113.34 118.65 113.15 117.67 112.42 117.18 L 111.59 116.62 C 110.87 116.13 109.89 116.32 109.40 117.04 C 108.91 117.77 109.10 118.75 109.82 119.24 Z M 110.65 119.80 L 111.47 120.36 C 112.20 120.86 113.19 120.67 113.68 119.94 C 114.17 119.21 113.98 118.22 113.26 117.73 L 112.43 117.17 C 111.70 116.68 110.71 116.87 110.22 117.60 C 109.73 118.32 109.92 119.31 110.65 119.80 Z M 111.47 120.37 L 112.30 120.93 C 113.03 121.43 114.02 121.23 114.52 120.50 C 115.01 119.77 114.82 118.78 114.09 118.28 L 113.26 117.72 C 112.53 117.23 111.53 117.42 111.04 118.15 C 110.54 118.88 110.74 119.88 111.47 120.37 Z M 112.29 120.94 L 113.04 121.45 C 113.78 121.94 114.78 121.75 115.28 121.01 C 115.77 120.28 115.58 119.28 114.84 118.78 L 114.09 118.27 C 113.36 117.78 112.36 117.97 111.86 118.71 C 111.36 119.44 111.56 120.44 112.29 120.94 Z"
      fill="black"
      fill-rule="nonzero" /><path d="M 116.06 147.46 L 115.95 148.45 C 115.85 149.26 116.43 149.98 117.23 150.08 C 118.03 150.17 118.76 149.60 118.85 148.80 L 118.97 147.80 C 119.07 147.00 118.49 146.27 117.69 146.18 C 116.88 146.08 116.16 146.66 116.06 147.46 Z M 115.94 148.45 L 115.82 149.45 C 115.72 150.25 116.30 150.99 117.11 151.08 C 117.92 151.18 118.65 150.60 118.75 149.79 L 118.86 148.80 C 118.96 147.99 118.38 147.26 117.57 147.16 C 116.76 147.07 116.03 147.64 115.94 148.45 Z M 115.81 149.44 L 115.69 150.44 C 115.60 151.25 116.18 151.99 116.99 152.09 C 117.81 152.18 118.54 151.60 118.64 150.78 L 118.76 149.79 C 118.85 148.98 118.27 148.24 117.46 148.14 C 116.64 148.05 115.90 148.63 115.81 149.44 Z M 115.68 150.44 L 115.56 151.43 C 115.47 152.25 116.05 152.99 116.87 153.09 C 117.69 153.19 118.44 152.60 118.53 151.78 L 118.65 150.79 C 118.75 149.97 118.16 149.22 117.34 149.13 C 116.52 149.03 115.78 149.62 115.68 150.44 Z M 115.56 151.43 L 115.49 151.95 C 115.40 152.78 115.99 153.52 116.81 153.62 C 117.64 153.72 118.38 153.13 118.48 152.30 L 118.54 151.78 C 118.64 150.96 118.05 150.21 117.22 150.11 C 116.40 150.01 115.65 150.60 115.56 151.43 Z"
      fill="black"
      fill-rule="nonzero" /><path d="M 111.14 200.71 L 110.34 201.03 C 109.55 201.33 109.16 202.22 109.47 203.00 C 109.77 203.79 110.66 204.18 111.44 203.87 L 112.25 203.56 C 113.03 203.25 113.42 202.37 113.12 201.58 C 112.81 200.80 111.93 200.41 111.14 200.71 Z M 110.31 201.03 L 109.47 201.37 C 108.68 201.69 108.31 202.59 108.63 203.37 C 108.95 204.16 109.84 204.53 110.63 204.21 L 111.47 203.87 C 112.25 203.55 112.63 202.65 112.31 201.87 C 111.99 201.08 111.09 200.71 110.31 201.03 Z M 109.42 201.39 L 108.50 201.79 C 107.73 202.14 107.38 203.05 107.72 203.83 C 108.07 204.61 108.98 204.95 109.76 204.61 L 110.67 204.20 C 111.45 203.85 111.80 202.94 111.45 202.17 C 111.11 201.39 110.20 201.04 109.42 201.39 Z M 108.45 201.81 L 107.42 202.31 C 106.65 202.69 106.34 203.62 106.71 204.39 C 107.09 205.15 108.02 205.47 108.78 205.09 L 109.81 204.59 C 110.58 204.22 110.90 203.29 110.52 202.52 C 110.14 201.75 109.22 201.43 108.45 201.81 Z M 107.37 202.33 L 106.48 202.81 C 105.72 203.21 105.43 204.15 105.83 204.91 C 106.24 205.67 107.18 205.96 107.94 205.55 L 108.83 205.08 C 109.59 204.68 109.88 203.73 109.48 202.97 C 109.07 202.22 108.13 201.93 107.37 202.33 Z M 106.44 202.81 L 105.59 203.29 C 104.84 203.71 104.57 204.67 104.99 205.42 C 105.42 206.17 106.37 206.44 107.12 206.02 L 107.97 205.55 C 108.73 205.12 108.99 204.17 108.57 203.42 C 108.15 202.66 107.20 202.39 106.44 202.81 Z M 105.57 203.30 L 104.69 203.81 C 103.93 204.24 103.68 205.21 104.12 205.96 C 104.55 206.71 105.51 206.96 106.26 206.53 L 107.15 206.02 C 107.90 205.58 108.15 204.62 107.72 203.87 C 107.28 203.11 106.32 202.86 105.57 203.30 Z M 104.66 203.81 L 103.77 204.35 C 103.02 204.80 102.77 205.77 103.22 206.52 C 103.67 207.27 104.64 207.51 105.39 207.06 L 106.29 206.52 C 107.04 206.08 107.28 205.10 106.83 204.36 C 106.38 203.61 105.41 203.36 104.66 203.81 Z M 103.75 204.35 L 102.86 204.90 C 102.11 205.36 101.88 206.34 102.34 207.08 C 102.80 207.83 103.78 208.06 104.53 207.60 L 105.41 207.06 C 106.16 206.60 106.39 205.62 105.93 204.87 C 105.47 204.12 104.49 203.89 103.75 204.35 Z M 102.84 204.90 L 101.99 205.44 C 101.24 205.91 101.02 206.90 101.49 207.64 C 101.97 208.39 102.95 208.61 103.70 208.14 L 104.55 207.60 C 105.29 207.13 105.52 206.14 105.04 205.40 C 104.57 204.65 103.59 204.43 102.84 204.90 Z M 101.97 205.44 L 101.10 206.01 C 100.36 206.49 100.15 207.49 100.64 208.23 C 101.12 208.97 102.12 209.18 102.86 208.70 L 103.72 208.13 C 104.46 207.65 104.67 206.65 104.19 205.91 C 103.70 205.17 102.71 204.96 101.97 205.44 Z M 101.08 206.02 L 100.20 206.61 C 99.46 207.11 99.26 208.12 99.76 208.85 C 100.26 209.59 101.27 209.78 102.01 209.28 L 102.89 208.69 C 103.62 208.19 103.82 207.18 103.32 206.45 C 102.82 205.71 101.81 205.52 101.08 206.02 Z M 100.16 206.62 L 99.35 207.20 C 98.62 207.71 98.45 208.73 98.96 209.46 C 99.48 210.19 100.49 210.37 101.23 209.85 L 102.04 209.27 C 102.77 208.76 102.94 207.74 102.43 207.01 C 101.91 206.28 100.90 206.10 100.16 206.62 Z M 99.32 207.21 L 98.55 207.78 C 97.82 208.31 97.67 209.34 98.21 210.06 C 98.74 210.79 99.76 210.94 100.49 210.40 L 101.26 209.84 C 101.98 209.30 102.14 208.28 101.60 207.55 C 101.07 206.83 100.04 206.67 99.32 207.21 Z M 98.52 207.79 L 97.76 208.37 C 97.04 208.92 96.91 209.95 97.46 210.67 C 98.02 211.39 99.05 211.53 99.76 210.97 L 100.52 210.39 C 101.24 209.84 101.37 208.81 100.82 208.09 C 100.27 207.37 99.24 207.24 98.52 207.79 Z M 97.74 208.38 L 96.91 209.03 C 96.20 209.60 96.08 210.64 96.65 211.35 C 97.22 212.07 98.26 212.19 98.97 211.62 L 99.79 210.96 C 100.51 210.40 100.62 209.36 100.06 208.64 C 99.49 207.93 98.45 207.81 97.74 208.38 Z M 96.89 209.04 L 95.90 209.85 C 95.19 210.43 95.09 211.48 95.67 212.19 C 96.25 212.90 97.30 213.00 98.01 212.42 L 98.99 211.61 C 99.71 211.03 99.81 209.98 99.23 209.27 C 98.64 208.56 97.60 208.46 96.89 209.04 Z M 95.87 209.86 L 95.00 210.60 C 94.29 211.20 94.20 212.26 94.80 212.96 C 95.40 213.67 96.46 213.75 97.16 213.15 L 98.04 212.41 C 98.75 211.81 98.83 210.75 98.23 210.05 C 97.64 209.34 96.58 209.26 95.87 209.86 Z M 94.95 210.62 L 94.30 211.21 C 93.61 211.83 93.55 212.90 94.17 213.59 C 94.80 214.28 95.86 214.34 96.55 213.72 L 97.21 213.13 C 97.90 212.51 97.96 211.44 97.33 210.75 C 96.71 210.06 95.64 210.00 94.95 210.62 Z M 94.17 211.33 L 93.85 211.68 C 93.23 212.38 93.28 213.45 93.98 214.07 C 94.68 214.70 95.75 214.64 96.38 213.95 L 96.69 213.60 C 97.32 212.90 97.26 211.83 96.56 211.20 C 95.86 210.58 94.79 210.63 94.17 211.33 Z M 95.76 214.39 L 96.17 214.22 C 97.04 213.86 97.46 212.87 97.10 212.00 C 96.75 211.13 95.76 210.71 94.89 211.07 L 94.47 211.24 C 93.60 211.59 93.18 212.58 93.54 213.46 C 93.89 214.33 94.89 214.74 95.76 214.39 Z M 96.47 214.06 L 97.56 213.33 C 98.34 212.81 98.55 211.76 98.03 210.97 C 97.51 210.19 96.45 209.98 95.67 210.50 L 94.58 211.23 C 93.80 211.75 93.59 212.81 94.11 213.59 C 94.63 214.37 95.69 214.58 96.47 214.06 Z M 97.62 213.29 L 98.54 212.62 C 99.29 212.07 99.46 211.00 98.90 210.25 C 98.35 209.49 97.29 209.32 96.53 209.88 L 95.61 210.54 C 94.85 211.10 94.69 212.16 95.24 212.92 C 95.80 213.68 96.86 213.85 97.62 213.29 Z M 98.56 212.60 L 99.37 211.98 C 100.12 211.41 100.26 210.35 99.69 209.60 C 99.12 208.85 98.05 208.71 97.30 209.28 L 96.50 209.90 C 95.75 210.47 95.61 211.54 96.18 212.28 C 96.75 213.03 97.82 213.17 98.56 212.60 Z M 99.39 211.97 L 100.20 211.33 C 100.94 210.75 101.07 209.68 100.49 208.94 C 99.91 208.20 98.84 208.07 98.10 208.66 L 97.29 209.29 C 96.55 209.87 96.42 210.94 97.00 211.68 C 97.58 212.42 98.65 212.55 99.39 211.97 Z M 100.22 211.32 L 101.00 210.69 C 101.74 210.11 101.85 209.03 101.27 208.30 C 100.68 207.57 99.61 207.45 98.87 208.04 L 98.09 208.66 C 97.35 209.25 97.24 210.32 97.82 211.06 C 98.41 211.79 99.48 211.91 100.22 211.32 Z M 101.01 210.69 L 101.79 210.05 C 102.52 209.46 102.64 208.39 102.04 207.66 C 101.45 206.93 100.38 206.81 99.65 207.41 L 98.87 208.04 C 98.14 208.63 98.02 209.71 98.62 210.44 C 99.21 211.17 100.28 211.28 101.01 210.69 Z M 101.80 210.04 L 102.62 209.37 C 103.35 208.77 103.45 207.70 102.86 206.98 C 102.26 206.25 101.19 206.15 100.47 206.74 L 99.65 207.41 C 98.92 208.01 98.81 209.08 99.41 209.80 C 100.00 210.53 101.07 210.64 101.80 210.04 Z M 102.63 209.36 L 103.37 208.74 C 104.09 208.14 104.19 207.07 103.60 206.35 C 103.00 205.63 101.93 205.53 101.21 206.13 L 100.46 206.75 C 99.74 207.35 99.64 208.42 100.24 209.14 C 100.84 209.86 101.91 209.96 102.63 209.36 Z M 103.38 208.73 L 104.09 208.13 C 104.81 207.53 104.91 206.46 104.31 205.75 C 103.70 205.03 102.64 204.94 101.92 205.54 L 101.20 206.14 C 100.49 206.74 100.39 207.81 100.99 208.52 C 101.59 209.24 102.66 209.33 103.38 208.73 Z M 104.10 208.13 L 104.84 207.50 C 105.55 206.90 105.64 205.83 105.04 205.12 C 104.44 204.41 103.37 204.32 102.66 204.92 L 101.92 205.54 C 101.20 206.14 101.11 207.21 101.71 207.92 C 102.32 208.64 103.38 208.73 104.10 208.13 Z M 104.84 207.50 L 105.60 206.85 C 106.31 206.25 106.40 205.19 105.80 204.47 C 105.19 203.76 104.13 203.67 103.42 204.28 L 102.66 204.92 C 101.95 205.52 101.86 206.59 102.46 207.30 C 103.06 208.01 104.13 208.10 104.84 207.50 Z M 105.60 206.85 L 106.37 206.19 C 107.08 205.59 107.17 204.53 106.56 203.82 C 105.96 203.11 104.90 203.02 104.19 203.63 L 103.42 204.28 C 102.71 204.88 102.62 205.95 103.22 206.66 C 103.83 207.37 104.89 207.45 105.60 206.85 Z M 106.37 206.19 L 107.14 205.54 C 107.84 204.94 107.93 203.88 107.33 203.17 C 106.73 202.46 105.66 202.38 104.96 202.98 L 104.19 203.63 C 103.48 204.23 103.40 205.29 104.00 206.00 C 104.60 206.71 105.66 206.79 106.37 206.19 Z M 107.13 205.54 L 107.89 204.90 C 108.59 204.31 108.68 203.24 108.08 202.54 C 107.48 201.83 106.42 201.74 105.72 202.34 L 104.96 202.98 C 104.25 203.58 104.16 204.64 104.76 205.34 C 105.36 206.05 106.42 206.14 107.13 205.54 Z M 107.87 204.91 L 108.64 204.27 C 109.35 203.68 109.45 202.62 108.86 201.91 C 108.27 201.20 107.21 201.10 106.50 201.69 L 105.73 202.33 C 105.01 202.92 104.92 203.98 105.51 204.69 C 106.10 205.41 107.16 205.50 107.87 204.91 Z M 108.62 204.29 L 109.41 203.65 C 110.13 203.07 110.24 202.01 109.66 201.29 C 109.08 200.57 108.02 200.46 107.30 201.04 L 106.51 201.68 C 105.79 202.26 105.68 203.32 106.26 204.04 C 106.85 204.76 107.90 204.87 108.62 204.29 Z M 109.39 203.66 L 110.15 203.07 C 110.88 202.50 111.01 201.45 110.44 200.72 C 109.87 199.99 108.82 199.86 108.09 200.43 L 107.33 201.02 C 106.60 201.59 106.47 202.65 107.04 203.38 C 107.61 204.10 108.66 204.23 109.39 203.66 Z M 110.13 203.08 L 110.91 202.49 C 111.64 201.93 111.79 200.88 111.23 200.15 C 110.67 199.41 109.62 199.27 108.89 199.83 L 108.11 200.42 C 107.37 200.98 107.23 202.03 107.79 202.76 C 108.34 203.50 109.39 203.64 110.13 203.08 Z M 110.90 202.50 L 111.71 201.89 C 112.45 201.34 112.60 200.29 112.05 199.55 C 111.49 198.82 110.45 198.66 109.71 199.22 L 108.90 199.82 C 108.16 200.37 108.01 201.42 108.56 202.16 C 109.11 202.90 110.16 203.05 110.90 202.50 Z M 111.70 201.89 L 112.54 201.27 C 113.28 200.72 113.44 199.68 112.89 198.94 C 112.34 198.20 111.30 198.04 110.56 198.59 L 109.72 199.21 C 108.98 199.76 108.82 200.81 109.37 201.55 C 109.92 202.29 110.96 202.44 111.70 201.89 Z M 112.54 201.27 L 113.33 200.68 C 114.07 200.13 114.23 199.09 113.68 198.35 C 113.13 197.61 112.09 197.46 111.35 198.01 L 110.56 198.59 C 109.82 199.14 109.66 200.18 110.21 200.92 C 110.76 201.66 111.80 201.82 112.54 201.27 Z M 113.33 200.68 L 114.14 200.08 C 114.88 199.54 115.03 198.50 114.49 197.76 C 113.94 197.02 112.90 196.86 112.17 197.41 L 111.36 198.01 C 110.62 198.55 110.46 199.59 111.01 200.33 C 111.55 201.07 112.59 201.22 113.33 200.68 Z M 114.13 200.08 L 114.95 199.48 C 115.69 198.94 115.84 197.90 115.30 197.17 C 114.76 196.43 113.72 196.27 112.99 196.81 L 112.17 197.41 C 111.43 197.95 111.28 198.99 111.82 199.73 C 112.36 200.46 113.40 200.62 114.13 200.08 Z M 114.94 199.48 L 115.75 198.89 C 116.49 198.35 116.65 197.32 116.11 196.58 C 115.57 195.85 114.54 195.68 113.80 196.22 L 112.99 196.81 C 112.26 197.35 112.09 198.38 112.63 199.12 C 113.17 199.86 114.20 200.02 114.94 199.48 Z M 115.74 198.89 L 116.56 198.30 C 117.30 197.76 117.47 196.73 116.93 196.00 C 116.40 195.26 115.37 195.09 114.63 195.63 L 113.81 196.22 C 113.07 196.75 112.91 197.78 113.44 198.52 C 113.97 199.26 115.00 199.43 115.74 198.89 Z M 116.55 198.30 L 117.37 197.72 C 118.11 197.19 118.28 196.16 117.75 195.42 C 117.23 194.69 116.20 194.51 115.46 195.04 L 114.64 195.62 C 113.91 196.15 113.73 197.18 114.26 197.92 C 114.79 198.65 115.81 198.83 116.55 198.30 Z M 117.36 197.72 L 118.17 197.15 C 118.91 196.63 119.09 195.61 118.57 194.87 C 118.05 194.13 117.02 193.95 116.28 194.47 L 115.47 195.04 C 114.73 195.56 114.55 196.58 115.07 197.32 C 115.59 198.06 116.62 198.24 117.36 197.72 Z M 118.15 197.16 L 118.97 196.59 C 119.71 196.08 119.90 195.06 119.38 194.32 C 118.87 193.58 117.85 193.39 117.11 193.90 L 116.30 194.47 C 115.55 194.98 115.37 195.99 115.88 196.74 C 116.39 197.48 117.41 197.67 118.15 197.16 Z M 118.95 196.60 L 119.77 196.04 C 120.52 195.54 120.71 194.53 120.21 193.78 C 119.70 193.04 118.69 192.84 117.95 193.34 L 117.13 193.90 C 116.38 194.40 116.19 195.42 116.69 196.16 C 117.19 196.91 118.21 197.10 118.95 196.60 Z M 119.76 196.05 L 120.59 195.49 C 121.33 195.00 121.54 193.99 121.04 193.24 C 120.55 192.50 119.54 192.29 118.79 192.79 L 117.96 193.34 C 117.22 193.84 117.01 194.84 117.51 195.59 C 118.00 196.34 119.01 196.54 119.76 196.05 Z M 120.57 195.49 L 121.41 194.95 C 122.16 194.46 122.37 193.46 121.88 192.71 C 121.40 191.96 120.40 191.75 119.65 192.24 L 118.81 192.79 C 118.06 193.28 117.85 194.28 118.34 195.02 C 118.83 195.77 119.83 195.98 120.57 195.49 Z M 121.40 194.95 L 122.25 194.40 C 123.00 193.92 123.21 192.93 122.73 192.18 C 122.25 191.43 121.26 191.22 120.51 191.70 L 119.66 192.24 C 118.91 192.72 118.70 193.71 119.18 194.46 C 119.66 195.21 120.65 195.43 121.40 194.95 Z M 122.23 194.40 L 123.08 193.87 C 123.83 193.39 124.05 192.40 123.58 191.66 C 123.11 190.91 122.12 190.69 121.37 191.16 L 120.52 191.70 C 119.77 192.17 119.55 193.16 120.02 193.91 C 120.50 194.66 121.49 194.88 122.23 194.40 Z M 123.07 193.87 L 123.92 193.34 C 124.67 192.87 124.89 191.88 124.42 191.14 C 123.96 190.39 122.97 190.16 122.22 190.63 L 121.38 191.16 C 120.63 191.63 120.40 192.61 120.87 193.36 C 121.34 194.11 122.32 194.33 123.07 193.87 Z M 123.91 193.33 L 124.76 192.80 C 125.50 192.34 125.73 191.36 125.26 190.61 C 124.80 189.87 123.82 189.64 123.08 190.11 L 122.23 190.64 C 121.48 191.10 121.26 192.08 121.72 192.83 C 122.19 193.57 123.17 193.80 123.91 193.33 Z M 124.76 192.79 L 125.61 192.26 C 126.35 191.80 126.57 190.82 126.10 190.08 C 125.64 189.34 124.66 189.12 123.92 189.58 L 123.08 190.11 C 122.34 190.58 122.11 191.56 122.58 192.30 C 123.04 193.03 124.02 193.26 124.76 192.79 Z M 125.61 192.25 L 126.45 191.72 C 127.18 191.25 127.40 190.28 126.93 189.54 C 126.47 188.81 125.49 188.59 124.76 189.06 L 123.92 189.59 C 123.19 190.06 122.97 191.03 123.44 191.77 C 123.90 192.50 124.88 192.72 125.61 192.25 Z M 126.45 191.71 L 127.28 191.17 C 128.01 190.70 128.22 189.74 127.76 189.01 C 127.29 188.28 126.32 188.07 125.60 188.54 L 124.76 189.07 C 124.03 189.54 123.82 190.50 124.29 191.23 C 124.75 191.96 125.72 192.17 126.45 191.71 Z M 127.28 191.16 L 128.12 190.63 C 128.84 190.17 129.06 189.20 128.59 188.48 C 128.13 187.76 127.17 187.54 126.45 188.00 L 125.60 188.54 C 124.88 189.00 124.67 189.96 125.13 190.69 C 125.59 191.41 126.55 191.63 127.28 191.16 Z M 128.10 190.62 L 128.96 190.09 C 129.68 189.64 129.90 188.68 129.45 187.96 C 128.99 187.24 128.04 187.02 127.32 187.47 L 126.46 188.01 C 125.74 188.46 125.52 189.41 125.97 190.14 C 126.43 190.86 127.38 191.08 128.10 190.62 Z M 128.94 190.09 L 129.78 189.58 C 130.50 189.13 130.73 188.19 130.29 187.46 C 129.85 186.74 128.90 186.51 128.18 186.95 L 127.34 187.47 C 126.61 187.91 126.38 188.86 126.83 189.58 C 127.27 190.30 128.21 190.53 128.94 190.09 Z M 129.76 189.58 L 130.60 189.08 C 131.32 188.65 131.56 187.71 131.13 186.99 C 130.70 186.26 129.76 186.02 129.04 186.45 L 128.20 186.95 C 127.47 187.38 127.24 188.32 127.67 189.05 C 128.10 189.77 129.04 190.01 129.76 189.58 Z M 130.58 189.08 L 131.44 188.58 C 132.16 188.15 132.41 187.22 131.98 186.50 C 131.56 185.77 130.63 185.53 129.91 185.95 L 129.05 186.46 C 128.33 186.88 128.08 187.81 128.51 188.53 C 128.93 189.26 129.86 189.50 130.58 189.08 Z M 131.43 188.57 L 132.31 188.06 C 133.03 187.64 133.28 186.72 132.86 186.00 C 132.44 185.27 131.51 185.03 130.79 185.45 L 129.91 185.96 C 129.19 186.38 128.95 187.30 129.37 188.02 C 129.79 188.75 130.71 188.99 131.43 188.57 Z M 132.31 188.05 L 133.20 187.53 C 133.92 187.12 134.16 186.20 133.74 185.48 C 133.33 184.76 132.41 184.52 131.69 184.94 L 130.80 185.46 C 130.08 185.87 129.84 186.79 130.25 187.51 C 130.67 188.23 131.59 188.47 132.31 188.05 Z M 133.20 187.53 L 134.06 187.02 C 134.78 186.60 135.02 185.69 134.60 184.97 C 134.18 184.26 133.27 184.02 132.55 184.44 L 131.69 184.95 C 130.98 185.36 130.74 186.28 131.15 186.99 C 131.57 187.70 132.49 187.94 133.20 187.53 Z M 134.06 187.01 L 134.94 186.50 C 135.65 186.09 135.88 185.18 135.47 184.47 C 135.05 183.76 134.14 183.52 133.43 183.93 L 132.56 184.44 C 131.85 184.86 131.61 185.77 132.02 186.48 C 132.44 187.19 133.35 187.43 134.06 187.01 Z M 134.93 186.50 L 135.80 185.99 C 136.51 185.58 136.75 184.67 136.34 183.97 C 135.93 183.26 135.02 183.02 134.31 183.43 L 133.44 183.94 C 132.73 184.35 132.49 185.25 132.90 185.96 C 133.31 186.67 134.22 186.91 134.93 186.50 Z M 135.79 185.99 L 136.65 185.50 C 137.36 185.09 137.60 184.19 137.20 183.48 C 136.79 182.78 135.89 182.53 135.19 182.94 L 134.32 183.43 C 133.62 183.83 133.37 184.74 133.78 185.44 C 134.18 186.15 135.08 186.40 135.79 185.99 Z M 136.64 185.50 L 137.52 185.01 C 138.23 184.61 138.49 183.71 138.09 183.01 C 137.69 182.30 136.80 182.04 136.09 182.44 L 135.20 182.93 C 134.49 183.33 134.24 184.23 134.64 184.93 C 135.03 185.64 135.93 185.90 136.64 185.50 Z M 137.50 185.01 L 138.41 184.52 C 139.12 184.13 139.38 183.25 139.00 182.54 C 138.61 181.82 137.72 181.56 137.01 181.95 L 136.11 182.43 C 135.40 182.82 135.13 183.71 135.52 184.42 C 135.90 185.13 136.79 185.39 137.50 185.01 Z M 138.39 184.52 L 139.27 184.06 C 139.98 183.69 140.26 182.80 139.88 182.09 C 139.51 181.38 138.62 181.10 137.91 181.48 L 137.03 181.94 C 136.32 182.32 136.04 183.20 136.42 183.91 C 136.79 184.62 137.68 184.90 138.39 184.52 Z M 139.25 184.06 L 140.12 183.62 C 140.83 183.25 141.11 182.38 140.75 181.66 C 140.38 180.95 139.51 180.67 138.79 181.03 L 137.93 181.48 C 137.21 181.84 136.93 182.72 137.30 183.43 C 137.66 184.15 138.54 184.43 139.25 184.06 Z M 140.10 183.62 L 140.98 183.18 C 141.70 182.82 141.98 181.95 141.63 181.24 C 141.27 180.52 140.40 180.23 139.68 180.59 L 138.81 181.03 C 138.09 181.39 137.80 182.26 138.16 182.98 C 138.52 183.69 139.39 183.98 140.10 183.62 Z M 140.97 183.18 L 141.88 182.73 C 142.60 182.38 142.89 181.51 142.54 180.80 C 142.19 180.08 141.32 179.79 140.61 180.14 L 139.69 180.59 C 138.98 180.94 138.69 181.81 139.04 182.52 C 139.39 183.24 140.26 183.53 140.97 183.18 Z M 141.88 182.73 L 142.78 182.29 C 143.49 181.94 143.79 181.08 143.44 180.36 C 143.09 179.65 142.23 179.35 141.52 179.70 L 140.61 180.14 C 139.90 180.49 139.60 181.35 139.95 182.07 C 140.30 182.78 141.16 183.08 141.88 182.73 Z M 142.78 182.29 L 143.66 181.85 C 144.38 181.51 144.67 180.65 144.32 179.93 C 143.98 179.22 143.12 178.93 142.41 179.27 L 141.52 179.71 C 140.81 180.05 140.51 180.91 140.86 181.62 C 141.21 182.34 142.06 182.63 142.78 182.29 Z M 143.67 181.85 L 144.57 181.41 C 145.28 181.06 145.57 180.20 145.22 179.49 C 144.87 178.78 144.02 178.49 143.31 178.84 L 142.40 179.28 C 141.69 179.63 141.40 180.48 141.75 181.19 C 142.10 181.90 142.96 182.20 143.67 181.85 Z M 144.57 181.40 L 145.49 180.95 C 146.19 180.60 146.48 179.74 146.13 179.03 C 145.78 178.33 144.93 178.04 144.22 178.39 L 143.30 178.84 C 142.59 179.19 142.30 180.05 142.65 180.75 C 143.00 181.46 143.86 181.75 144.57 181.40 Z M 145.49 180.95 L 146.38 180.50 C 147.09 180.15 147.37 179.29 147.02 178.59 C 146.67 177.88 145.81 177.59 145.11 177.95 L 144.22 178.39 C 143.51 178.74 143.22 179.60 143.57 180.30 C 143.93 181.01 144.78 181.30 145.49 180.95 Z M 146.38 180.50 L 147.25 180.07 C 147.95 179.72 148.24 178.86 147.88 178.15 C 147.53 177.45 146.68 177.16 145.97 177.52 L 145.11 177.95 C 144.40 178.30 144.11 179.16 144.47 179.86 C 144.82 180.57 145.68 180.85 146.38 180.50 Z M 147.25 180.07 L 148.15 179.61 C 148.86 179.26 149.14 178.41 148.79 177.70 C 148.44 177.00 147.58 176.71 146.88 177.06 L 145.97 177.52 C 145.27 177.87 144.98 178.73 145.33 179.43 C 145.69 180.13 146.54 180.42 147.25 180.07 Z M 148.15 179.61 L 149.05 179.17 C 149.75 178.82 150.04 177.96 149.68 177.25 C 149.33 176.55 148.47 176.27 147.77 176.62 L 146.88 177.06 C 146.17 177.42 145.89 178.27 146.24 178.98 C 146.59 179.68 147.45 179.97 148.15 179.61 Z M 149.05 179.17 L 149.93 178.72 C 150.63 178.37 150.92 177.52 150.57 176.81 C 150.22 176.11 149.36 175.82 148.66 176.18 L 147.77 176.62 C 147.07 176.97 146.78 177.83 147.13 178.53 C 147.49 179.23 148.34 179.52 149.05 179.17 Z M 149.93 178.72 L 150.30 178.54 C 151.01 178.19 151.29 177.33 150.94 176.63 C 150.59 175.92 149.73 175.64 149.03 175.99 L 148.66 176.18 C 147.95 176.53 147.67 177.38 148.02 178.09 C 148.37 178.79 149.23 179.08 149.93 178.72 Z"
      fill="black"
      fill-rule="nonzero" /><path d="M 177.64 96.59 L 176.64 96.55 C 175.77 96.52 175.04 97.19 175.01 98.05 C 174.98 98.92 175.65 99.65 176.52 99.68 L 177.52 99.72 C 178.38 99.75 179.11 99.08 179.14 98.21 C 179.18 97.35 178.50 96.62 177.64 96.59 Z M 176.63 96.55 L 175.63 96.51 C 174.76 96.49 174.04 97.17 174.01 98.03 C 173.98 98.90 174.66 99.63 175.53 99.65 L 176.53 99.69 C 177.40 99.71 178.12 99.03 178.15 98.16 C 178.17 97.30 177.49 96.57 176.63 96.55 Z M 175.60 96.51 L 174.60 96.49 C 173.74 96.48 173.02 97.17 173.00 98.04 C 172.99 98.91 173.68 99.63 174.55 99.64 L 175.55 99.66 C 176.42 99.67 177.14 98.98 177.15 98.11 C 177.17 97.24 176.47 96.52 175.60 96.51 Z M 174.56 96.49 L 173.59 96.50 C 172.71 96.51 172.01 97.22 172.02 98.09 C 172.03 98.96 172.74 99.66 173.61 99.65 L 174.59 99.64 C 175.46 99.64 176.16 98.92 176.15 98.05 C 176.15 97.18 175.44 96.48 174.56 96.49 Z M 173.46 96.50 L 172.49 96.58 C 171.63 96.66 170.98 97.42 171.05 98.29 C 171.13 99.16 171.89 99.81 172.76 99.73 L 173.73 99.65 C 174.60 99.58 175.25 98.81 175.17 97.94 C 175.10 97.07 174.33 96.43 173.46 96.50 Z M 172.26 96.62 L 171.29 96.85 C 170.44 97.05 169.92 97.90 170.12 98.75 C 170.32 99.60 171.17 100.13 172.02 99.93 L 172.99 99.70 C 173.84 99.50 174.37 98.64 174.17 97.79 C 173.97 96.94 173.11 96.42 172.26 96.62 Z M 171.00 96.95 L 170.08 97.37 C 169.29 97.73 168.94 98.67 169.30 99.46 C 169.66 100.26 170.60 100.61 171.40 100.25 L 172.31 99.83 C 173.11 99.46 173.46 98.53 173.10 97.73 C 172.73 96.94 171.79 96.58 171.00 96.95 Z M 169.85 97.50 L 169.07 98.03 C 168.34 98.53 168.16 99.51 168.65 100.23 C 169.14 100.96 170.13 101.14 170.85 100.65 L 171.63 100.11 C 172.35 99.62 172.54 98.64 172.05 97.91 C 171.55 97.19 170.57 97.01 169.85 97.50 Z M 168.93 98.14 L 168.16 98.79 C 167.50 99.36 167.42 100.36 167.99 101.03 C 168.56 101.69 169.56 101.77 170.22 101.20 L 170.99 100.54 C 171.65 99.97 171.73 98.97 171.16 98.31 C 170.59 97.65 169.59 97.57 168.93 98.14 Z M 168.08 98.87 L 167.34 99.61 C 166.72 100.22 166.72 101.22 167.34 101.84 C 167.95 102.46 168.95 102.47 169.57 101.85 L 170.31 101.12 C 170.93 100.50 170.93 99.50 170.32 98.88 C 169.70 98.26 168.70 98.26 168.08 98.87 Z M 167.29 99.66 L 166.59 100.43 C 166.00 101.08 166.05 102.08 166.70 102.66 C 167.35 103.25 168.35 103.20 168.93 102.56 L 169.63 101.79 C 170.22 101.14 170.17 100.14 169.52 99.56 C 168.87 98.97 167.87 99.02 167.29 99.66 Z M 166.56 100.47 L 165.93 101.22 C 165.37 101.88 165.45 102.88 166.12 103.44 C 166.79 104.00 167.78 103.92 168.34 103.25 L 168.97 102.51 C 169.53 101.84 169.45 100.85 168.78 100.29 C 168.11 99.72 167.12 99.81 166.56 100.47 Z M 165.90 101.26 L 165.31 102.02 C 164.77 102.70 164.89 103.69 165.57 104.23 C 166.26 104.76 167.24 104.64 167.78 103.96 L 168.37 103.20 C 168.91 102.52 168.79 101.53 168.11 101.00 C 167.43 100.46 166.44 100.58 165.90 101.26 Z M 165.28 102.07 L 164.70 102.87 C 164.19 103.57 164.34 104.55 165.04 105.05 C 165.74 105.56 166.72 105.41 167.22 104.71 L 167.81 103.91 C 168.31 103.21 168.16 102.24 167.46 101.73 C 166.76 101.22 165.79 101.38 165.28 102.07 Z M 164.67 102.92 L 164.09 103.79 C 163.61 104.50 163.79 105.46 164.50 105.94 C 165.21 106.43 166.18 106.24 166.66 105.53 L 167.25 104.66 C 167.73 103.95 167.54 102.99 166.83 102.51 C 166.12 102.03 165.16 102.21 164.67 102.92 Z M 164.07 103.83 L 163.53 104.68 C 163.07 105.39 163.28 106.35 164.00 106.81 C 164.71 107.27 165.67 107.06 166.13 106.34 L 166.67 105.49 C 167.13 104.77 166.92 103.82 166.21 103.36 C 165.49 102.90 164.53 103.11 164.07 103.83 Z M 163.52 104.71 L 162.99 105.57 C 162.55 106.29 162.78 107.24 163.50 107.68 C 164.22 108.12 165.17 107.89 165.61 107.17 L 166.14 106.31 C 166.58 105.59 166.35 104.64 165.63 104.20 C 164.91 103.76 163.96 103.99 163.52 104.71 Z M 162.99 105.60 L 162.47 106.49 C 162.04 107.21 162.28 108.14 163.01 108.57 C 163.73 109.00 164.67 108.75 165.09 108.03 L 165.61 107.14 C 166.04 106.42 165.80 105.48 165.07 105.06 C 164.35 104.63 163.41 104.87 162.99 105.60 Z M 162.46 106.51 L 161.96 107.40 C 161.55 108.13 161.80 109.05 162.53 109.46 C 163.26 109.88 164.18 109.62 164.59 108.89 L 165.10 108.00 C 165.51 107.27 165.25 106.35 164.52 105.94 C 163.80 105.53 162.87 105.79 162.46 106.51 Z M 161.96 107.43 L 161.49 108.30 C 161.09 109.03 161.36 109.94 162.09 110.34 C 162.82 110.73 163.73 110.46 164.13 109.73 L 164.60 108.86 C 164.99 108.13 164.72 107.22 163.99 106.83 C 163.26 106.43 162.35 106.70 161.96 107.43 Z M 161.48 108.34 L 161.00 109.27 C 160.63 110.00 160.92 110.90 161.65 111.27 C 162.38 111.65 163.28 111.36 163.65 110.63 L 164.13 109.69 C 164.51 108.96 164.22 108.06 163.49 107.69 C 162.75 107.31 161.86 107.60 161.48 108.34 Z M 161.00 109.31 L 160.54 110.26 C 160.19 111.00 160.50 111.88 161.23 112.23 C 161.97 112.58 162.85 112.27 163.20 111.54 L 163.66 110.58 C 164.01 109.85 163.70 108.97 162.97 108.62 C 162.23 108.26 161.35 108.57 161.00 109.31 Z M 160.54 110.30 L 160.14 111.19 C 159.81 111.93 160.14 112.79 160.87 113.12 C 161.61 113.45 162.47 113.13 162.80 112.39 L 163.20 111.50 C 163.53 110.76 163.21 109.90 162.47 109.57 C 161.74 109.24 160.87 109.57 160.54 110.30 Z M 160.15 111.22 L 159.78 112.08 C 159.46 112.81 159.80 113.66 160.53 113.97 C 161.26 114.29 162.11 113.95 162.43 113.22 L 162.79 112.36 C 163.11 111.63 162.77 110.78 162.04 110.47 C 161.31 110.15 160.46 110.49 160.15 111.22 Z M 159.78 112.09 L 159.59 112.55 C 159.28 113.27 159.62 114.11 160.35 114.42 C 161.08 114.73 161.92 114.39 162.23 113.66 L 162.42 113.21 C 162.73 112.48 162.39 111.64 161.66 111.33 C 160.93 111.03 160.09 111.36 159.78 112.09 Z"
      fill="black"
      fill-rule="nonzero" /><path d="M 142.77 129.28 L 141.63 129.48 C 140.77 129.64 140.20 130.46 140.36 131.31 C 140.51 132.17 141.33 132.74 142.19 132.59 L 143.33 132.38 C 144.19 132.23 144.76 131.41 144.60 130.55 C 144.45 129.69 143.63 129.12 142.77 129.28 Z M 141.42 129.53 L 140.48 129.84 C 139.65 130.12 139.20 131.01 139.47 131.84 C 139.74 132.66 140.63 133.12 141.46 132.84 L 142.40 132.53 C 143.23 132.26 143.68 131.37 143.41 130.54 C 143.14 129.71 142.25 129.26 141.42 129.53 Z M 139.89 130.19 L 139.32 130.72 C 138.69 131.32 138.66 132.32 139.25 132.96 C 139.85 133.59 140.85 133.62 141.49 133.02 L 142.05 132.49 C 142.68 131.90 142.72 130.90 142.12 130.26 C 141.52 129.63 140.52 129.60 139.89 130.19 Z M 138.83 131.85 L 138.81 132.68 C 138.80 133.56 139.49 134.27 140.36 134.29 C 141.24 134.30 141.95 133.61 141.97 132.74 L 141.98 131.90 C 142.00 131.03 141.30 130.31 140.43 130.30 C 139.56 130.28 138.84 130.98 138.83 131.85 Z M 139.06 133.55 L 139.62 134.45 C 140.09 135.19 141.06 135.41 141.80 134.94 C 142.54 134.48 142.76 133.50 142.29 132.76 L 141.73 131.87 C 141.26 131.13 140.29 130.91 139.55 131.37 C 138.81 131.84 138.59 132.82 139.06 133.55 Z M 140.04 134.89 L 140.88 135.49 C 141.58 136.00 142.57 135.83 143.08 135.12 C 143.58 134.42 143.42 133.43 142.71 132.92 L 141.88 132.32 C 141.17 131.82 140.18 131.98 139.67 132.69 C 139.17 133.40 139.33 134.38 140.04 134.89 Z M 141.20 135.66 L 142.09 136.03 C 142.90 136.35 143.81 135.97 144.14 135.17 C 144.47 134.36 144.09 133.44 143.28 133.12 L 142.39 132.75 C 141.58 132.42 140.67 132.81 140.34 133.61 C 140.01 134.41 140.40 135.33 141.20 135.66 Z M 142.29 136.08 L 143.29 136.35 C 144.12 136.57 144.98 136.07 145.20 135.24 C 145.42 134.40 144.92 133.55 144.09 133.32 L 143.09 133.06 C 142.25 132.84 141.40 133.33 141.18 134.17 C 140.95 135.01 141.45 135.86 142.29 136.08 Z M 143.41 136.37 L 144.44 136.56 C 145.29 136.71 146.10 136.15 146.25 135.30 C 146.41 134.45 145.84 133.64 145.00 133.49 L 143.96 133.30 C 143.12 133.15 142.31 133.71 142.15 134.56 C 142.00 135.41 142.56 136.22 143.41 136.37 Z M 144.53 136.56 L 145.55 136.69 C 146.40 136.79 147.17 136.19 147.28 135.34 C 147.39 134.50 146.79 133.72 145.94 133.62 L 144.91 133.49 C 144.07 133.38 143.29 133.98 143.19 134.83 C 143.08 135.68 143.68 136.45 144.53 136.56 Z M 145.62 136.67 L 146.61 136.76 C 147.45 136.83 148.19 136.20 148.26 135.36 C 148.33 134.52 147.71 133.78 146.87 133.71 L 145.87 133.63 C 145.03 133.56 144.29 134.18 144.22 135.02 C 144.15 135.87 144.78 136.60 145.62 136.67 Z M 146.67 136.74 L 147.64 136.79 C 148.48 136.83 149.18 136.19 149.22 135.35 C 149.26 134.52 148.62 133.82 147.79 133.78 L 146.81 133.73 C 145.98 133.69 145.27 134.33 145.23 135.16 C 145.19 135.99 145.83 136.70 146.67 136.74 Z M 147.68 136.77 L 148.68 136.79 C 149.50 136.81 150.18 136.16 150.20 135.34 C 150.22 134.52 149.57 133.84 148.75 133.82 L 147.75 133.80 C 146.93 133.77 146.25 134.42 146.23 135.24 C 146.21 136.07 146.86 136.75 147.68 136.77 Z M 148.69 136.78 L 149.66 136.79 C 150.48 136.80 151.14 136.15 151.15 135.34 C 151.16 134.53 150.51 133.86 149.70 133.85 L 148.73 133.84 C 147.92 133.82 147.25 134.47 147.24 135.29 C 147.23 136.10 147.88 136.77 148.69 136.78 Z M 149.67 136.78 L 150.67 136.79 C 151.48 136.79 152.14 136.14 152.14 135.34 C 152.15 134.53 151.50 133.87 150.69 133.86 L 149.69 133.86 C 148.89 133.85 148.23 134.50 148.22 135.31 C 148.22 136.12 148.87 136.77 149.67 136.78 Z M 150.68 136.78 L 151.69 136.78 C 152.49 136.78 153.14 136.13 153.15 135.33 C 153.15 134.53 152.50 133.88 151.70 133.88 L 150.68 133.88 C 149.88 133.87 149.23 134.52 149.23 135.32 C 149.23 136.12 149.88 136.77 150.68 136.78 Z M 151.70 136.77 L 152.71 136.77 C 153.51 136.77 154.15 136.12 154.15 135.33 C 154.15 134.53 153.51 133.89 152.71 133.89 L 151.70 133.89 C 150.90 133.89 150.26 134.53 150.26 135.33 C 150.26 136.12 150.90 136.77 151.70 136.77 Z M 152.71 136.76 L 153.72 136.76 C 154.51 136.76 155.15 136.12 155.15 135.33 C 155.15 134.54 154.51 133.89 153.72 133.89 L 152.71 133.89 C 151.92 133.89 151.28 134.54 151.28 135.33 C 151.28 136.12 151.92 136.76 152.71 136.76 Z M 153.72 136.76 L 154.72 136.76 C 155.51 136.76 156.15 136.12 156.15 135.33 C 156.15 134.54 155.51 133.90 154.72 133.90 L 153.72 133.90 C 152.93 133.90 152.29 134.54 152.29 135.33 C 152.29 136.12 152.93 136.76 153.72 136.76 Z M 154.72 136.76 L 155.72 136.76 C 156.51 136.76 157.15 136.12 157.15 135.33 C 157.15 134.54 156.51 133.90 155.72 133.90 L 154.72 133.90 C 153.93 133.90 153.29 134.54 153.29 135.33 C 153.29 136.12 153.93 136.76 154.72 136.76 Z M 155.72 136.75 L 156.68 136.75 C 157.46 136.75 158.10 136.12 158.10 135.33 C 158.10 134.54 157.46 133.90 156.68 133.90 L 155.72 133.90 C 154.93 133.90 154.29 134.54 154.29 135.33 C 154.29 136.12 154.93 136.75 155.72 136.75 Z"
      fill="black"
      fill-rule="nonzero" /><path d="M 175.42 116.84 L 174.33 116.87 C 173.47 116.89 172.80 117.61 172.82 118.47 C 172.84 119.33 173.56 120.00 174.42 119.98 L 175.50 119.95 C 176.36 119.93 177.04 119.21 177.02 118.35 C 176.99 117.49 176.28 116.82 175.42 116.84 Z M 174.31 116.86 L 173.25 116.91 C 172.38 116.95 171.71 117.68 171.75 118.54 C 171.79 119.41 172.52 120.08 173.39 120.04 L 174.45 119.99 C 175.31 119.95 175.98 119.22 175.94 118.35 C 175.90 117.49 175.17 116.82 174.31 116.86 Z M 173.19 116.90 L 172.17 116.98 C 171.30 117.06 170.66 117.82 170.73 118.69 C 170.80 119.55 171.56 120.20 172.43 120.13 L 173.45 120.04 C 174.31 119.97 174.96 119.21 174.89 118.34 C 174.82 117.47 174.05 116.83 173.19 116.90 Z M 172.07 116.99 L 171.13 117.12 C 170.26 117.25 169.66 118.06 169.79 118.93 C 169.91 119.79 170.72 120.39 171.59 120.27 L 172.53 120.13 C 173.40 120.00 174.00 119.19 173.87 118.33 C 173.75 117.46 172.94 116.86 172.07 116.99 Z M 170.97 117.14 L 170.12 117.36 C 169.26 117.57 168.74 118.44 168.95 119.29 C 169.17 120.15 170.03 120.67 170.89 120.46 L 171.74 120.25 C 172.60 120.03 173.12 119.16 172.91 118.31 C 172.70 117.45 171.83 116.93 170.97 117.14 Z M 169.87 117.44 L 168.90 117.86 C 168.08 118.21 167.71 119.15 168.06 119.96 C 168.42 120.78 169.36 121.15 170.17 120.80 L 171.14 120.38 C 171.96 120.03 172.33 119.08 171.98 118.27 C 171.62 117.46 170.68 117.08 169.87 117.44 Z M 168.61 118.01 L 167.81 118.58 C 167.08 119.09 166.91 120.09 167.42 120.81 C 167.93 121.54 168.93 121.71 169.65 121.20 L 170.46 120.64 C 171.18 120.13 171.36 119.13 170.85 118.41 C 170.34 117.68 169.34 117.50 168.61 118.01 Z M 167.59 118.76 L 166.91 119.44 C 166.29 120.07 166.29 121.09 166.92 121.72 C 167.55 122.34 168.57 122.34 169.19 121.71 L 169.87 121.02 C 170.50 120.39 170.49 119.38 169.86 118.75 C 169.23 118.13 168.22 118.13 167.59 118.76 Z M 166.78 119.60 L 166.18 120.38 C 165.64 121.09 165.77 122.10 166.48 122.64 C 167.18 123.18 168.19 123.04 168.73 122.34 L 169.33 121.55 C 169.87 120.85 169.73 119.84 169.03 119.30 C 168.32 118.76 167.31 118.90 166.78 119.60 Z M 166.09 120.51 L 165.55 121.36 C 165.08 122.11 165.31 123.10 166.06 123.58 C 166.81 124.05 167.80 123.82 168.27 123.07 L 168.81 122.22 C 169.28 121.47 169.06 120.47 168.31 120.00 C 167.56 119.53 166.57 119.75 166.09 120.51 Z M 165.49 121.48 L 165.02 122.39 C 164.62 123.17 164.93 124.14 165.71 124.55 C 166.50 124.95 167.47 124.64 167.87 123.85 L 168.34 122.95 C 168.74 122.16 168.43 121.20 167.65 120.79 C 166.86 120.39 165.89 120.70 165.49 121.48 Z M 164.96 122.52 L 164.59 123.44 C 164.26 124.26 164.66 125.19 165.48 125.52 C 166.30 125.85 167.23 125.46 167.56 124.64 L 167.93 123.72 C 168.26 122.90 167.87 121.97 167.05 121.63 C 166.23 121.30 165.29 121.70 164.96 122.52 Z M 164.54 123.62 L 164.27 124.61 C 164.03 125.46 164.53 126.34 165.38 126.57 C 166.23 126.80 167.11 126.30 167.34 125.45 L 167.62 124.46 C 167.85 123.61 167.35 122.73 166.50 122.50 C 165.65 122.27 164.77 122.77 164.54 123.62 Z M 164.23 124.89 L 164.14 125.90 C 164.06 126.77 164.70 127.54 165.57 127.61 C 166.44 127.69 167.21 127.05 167.29 126.18 L 167.38 125.17 C 167.46 124.30 166.82 123.53 165.95 123.46 C 165.08 123.38 164.31 124.02 164.23 124.89 Z M 164.18 126.32 L 164.35 127.26 C 164.51 128.11 165.32 128.67 166.17 128.51 C 167.02 128.36 167.58 127.54 167.43 126.69 L 167.25 125.75 C 167.10 124.91 166.28 124.34 165.43 124.50 C 164.58 124.66 164.02 125.47 164.18 126.32 Z M 164.54 127.73 L 164.98 128.51 C 165.40 129.25 166.34 129.51 167.08 129.09 C 167.83 128.67 168.09 127.73 167.67 126.99 L 167.24 126.21 C 166.82 125.47 165.87 125.21 165.13 125.63 C 164.38 126.05 164.12 126.99 164.54 127.73 Z M 165.26 128.84 L 165.87 129.43 C 166.47 130.02 167.44 130.00 168.03 129.40 C 168.62 128.79 168.60 127.82 167.99 127.24 L 167.39 126.65 C 166.78 126.06 165.81 126.08 165.22 126.68 C 164.64 127.29 164.65 128.26 165.26 128.84 Z M 166.14 129.62 L 166.97 130.13 C 167.68 130.56 168.61 130.34 169.04 129.63 C 169.48 128.91 169.25 127.99 168.54 127.55 L 167.72 127.05 C 167.01 126.61 166.08 126.83 165.64 127.55 C 165.21 128.26 165.43 129.19 166.14 129.62 Z M 167.21 130.23 L 168.25 130.63 C 169.02 130.93 169.88 130.55 170.18 129.79 C 170.48 129.02 170.10 128.15 169.33 127.85 L 168.30 127.45 C 167.53 127.15 166.67 127.53 166.37 128.30 C 166.07 129.06 166.45 129.93 167.21 130.23 Z M 168.44 130.68 L 169.52 130.94 C 170.31 131.13 171.11 130.65 171.30 129.85 C 171.49 129.06 171.01 128.27 170.22 128.07 L 169.14 127.81 C 168.35 127.62 167.55 128.10 167.36 128.89 C 167.17 129.69 167.65 130.48 168.44 130.68 Z M 169.65 130.95 L 170.56 131.09 C 171.36 131.21 172.11 130.66 172.23 129.86 C 172.35 129.06 171.80 128.31 171.00 128.19 L 170.09 128.06 C 169.29 127.94 168.54 128.49 168.42 129.29 C 168.30 130.09 168.85 130.83 169.65 130.95 Z M 170.65 131.09 L 171.63 131.18 C 172.43 131.25 173.13 130.65 173.20 129.85 C 173.27 129.05 172.68 128.34 171.88 128.27 L 170.90 128.19 C 170.10 128.12 169.39 128.72 169.33 129.52 C 169.26 130.32 169.85 131.03 170.65 131.09 Z M 171.71 131.18 L 172.72 131.21 C 173.53 131.23 174.19 130.60 174.22 129.80 C 174.24 129.00 173.61 128.33 172.81 128.31 L 171.79 128.28 C 170.99 128.25 170.32 128.88 170.30 129.68 C 170.28 130.48 170.91 131.15 171.71 131.18 Z M 172.80 131.20 L 173.84 131.18 C 174.64 131.16 175.27 130.50 175.26 129.70 C 175.24 128.90 174.58 128.27 173.78 128.29 L 172.73 128.31 C 171.94 128.33 171.30 128.99 171.32 129.79 C 171.34 130.59 172.00 131.22 172.80 131.20 Z M 173.92 131.17 L 174.97 131.09 C 175.76 131.03 176.35 130.34 176.30 129.54 C 176.24 128.75 175.55 128.16 174.75 128.22 L 173.70 128.30 C 172.91 128.36 172.32 129.05 172.38 129.84 C 172.44 130.63 173.13 131.23 173.92 131.17 Z M 175.04 131.07 L 176.08 130.94 C 176.86 130.84 177.42 130.12 177.32 129.34 C 177.21 128.55 176.50 128.00 175.71 128.10 L 174.68 128.23 C 173.89 128.33 173.34 129.05 173.44 129.84 C 173.54 130.62 174.26 131.18 175.04 131.07 Z M 176.16 130.92 L 177.16 130.74 C 177.93 130.60 178.45 129.85 178.30 129.07 C 178.16 128.30 177.41 127.78 176.64 127.93 L 175.64 128.11 C 174.86 128.26 174.35 129.00 174.49 129.78 C 174.63 130.55 175.38 131.07 176.16 130.92 Z M 177.22 130.73 L 178.20 130.50 C 178.97 130.32 179.45 129.55 179.27 128.78 C 179.09 128.01 178.32 127.53 177.55 127.71 L 176.57 127.94 C 175.80 128.12 175.33 128.89 175.51 129.66 C 175.69 130.43 176.45 130.90 177.22 130.73 Z M 178.25 130.48 L 179.22 130.22 C 179.98 130.01 180.42 129.22 180.22 128.46 C 180.01 127.70 179.22 127.25 178.46 127.46 L 177.50 127.73 C 176.74 127.94 176.29 128.72 176.50 129.48 C 176.71 130.24 177.49 130.69 178.25 130.48 Z M 179.26 130.21 L 180.21 129.92 C 180.96 129.68 181.38 128.89 181.15 128.13 C 180.92 127.38 180.12 126.95 179.37 127.19 L 178.42 127.48 C 177.67 127.71 177.24 128.51 177.47 129.26 C 177.70 130.01 178.50 130.44 179.26 130.21 Z M 180.23 129.91 L 181.17 129.60 C 181.92 129.35 182.33 128.55 182.08 127.80 C 181.84 127.05 181.03 126.64 180.28 126.89 L 179.34 127.19 C 178.59 127.44 178.19 128.25 178.43 128.99 C 178.68 129.74 179.48 130.15 180.23 129.91 Z M 181.19 129.59 L 182.12 129.28 C 182.87 129.02 183.27 128.21 183.01 127.47 C 182.76 126.72 181.95 126.32 181.21 126.57 L 180.27 126.89 C 179.52 127.14 179.12 127.95 179.38 128.70 C 179.63 129.45 180.44 129.85 181.19 129.59 Z"
      fill="black"
      fill-rule="nonzero" /><path d="M 199.46 112.67 L 198.65 113.24 C 197.97 113.72 197.81 114.66 198.29 115.34 C 198.77 116.02 199.71 116.18 200.39 115.70 L 201.20 115.13 C 201.88 114.65 202.04 113.71 201.56 113.03 C 201.08 112.35 200.14 112.19 199.46 112.67 Z M 198.61 113.25 L 197.81 113.84 C 197.14 114.34 197.00 115.29 197.49 115.97 C 197.99 116.64 198.94 116.78 199.62 116.29 L 200.42 115.69 C 201.10 115.19 201.24 114.24 200.74 113.57 C 200.24 112.89 199.29 112.75 198.61 113.25 Z M 197.75 113.88 L 196.97 114.51 C 196.31 115.04 196.21 116.01 196.75 116.66 C 197.28 117.32 198.25 117.42 198.90 116.89 L 199.68 116.25 C 200.34 115.72 200.44 114.76 199.90 114.10 C 199.37 113.44 198.41 113.34 197.75 113.88 Z M 196.90 114.57 L 196.19 115.22 C 195.56 115.79 195.52 116.77 196.10 117.39 C 196.67 118.01 197.64 118.05 198.27 117.48 L 198.98 116.83 C 199.60 116.25 199.64 115.28 199.07 114.66 C 198.49 114.03 197.52 113.99 196.90 114.57 Z M 196.13 115.28 L 195.45 115.98 C 194.87 116.59 194.88 117.56 195.49 118.14 C 196.09 118.73 197.06 118.72 197.65 118.11 L 198.33 117.41 C 198.91 116.81 198.90 115.84 198.29 115.25 C 197.69 114.66 196.72 114.68 196.13 115.28 Z M 195.42 116.04 L 194.74 116.79 C 194.18 117.42 194.24 118.38 194.86 118.94 C 195.49 119.50 196.45 119.44 197.01 118.82 L 197.68 118.06 C 198.24 117.43 198.19 116.47 197.56 115.91 C 196.94 115.36 195.98 115.41 195.42 116.04 Z M 194.72 116.83 L 194.07 117.59 C 193.54 118.23 193.61 119.18 194.25 119.72 C 194.88 120.26 195.84 120.18 196.38 119.55 L 197.02 118.78 C 197.56 118.15 197.48 117.19 196.85 116.66 C 196.21 116.12 195.26 116.19 194.72 116.83 Z M 194.07 117.61 L 193.52 118.27 C 192.99 118.91 193.08 119.86 193.72 120.39 C 194.36 120.92 195.31 120.82 195.84 120.19 L 196.38 119.52 C 196.91 118.88 196.82 117.94 196.18 117.41 C 195.54 116.88 194.59 116.97 194.07 117.61 Z M 193.52 118.29 L 192.93 119.02 C 192.42 119.66 192.52 120.60 193.16 121.12 C 193.80 121.63 194.74 121.53 195.26 120.89 L 195.84 120.17 C 196.36 119.52 196.26 118.58 195.62 118.07 C 194.97 117.55 194.03 117.65 193.52 118.29 Z M 192.93 119.03 L 192.29 119.84 C 191.79 120.48 191.90 121.42 192.54 121.93 C 193.19 122.44 194.12 122.32 194.63 121.68 L 195.26 120.87 C 195.77 120.23 195.66 119.29 195.02 118.79 C 194.37 118.28 193.44 118.39 192.93 119.03 Z M 192.29 119.85 L 191.59 120.76 C 191.09 121.41 191.21 122.34 191.86 122.84 C 192.50 123.34 193.43 123.22 193.93 122.57 L 194.63 121.66 C 195.13 121.02 195.01 120.09 194.37 119.59 C 193.72 119.09 192.79 119.21 192.29 119.85 Z M 191.59 120.77 L 190.96 121.60 C 190.47 122.25 190.59 123.17 191.24 123.67 C 191.89 124.16 192.81 124.03 193.31 123.38 L 193.93 122.56 C 194.43 121.91 194.30 120.99 193.65 120.49 C 193.01 120.00 192.08 120.13 191.59 120.77 Z M 190.96 121.61 L 190.38 122.38 C 189.89 123.03 190.02 123.95 190.67 124.44 C 191.32 124.93 192.24 124.80 192.73 124.15 L 193.31 123.37 C 193.79 122.73 193.66 121.81 193.02 121.32 C 192.37 120.83 191.45 120.96 190.96 121.61 Z M 190.38 122.39 L 189.78 123.20 C 189.29 123.85 189.43 124.77 190.08 125.25 C 190.72 125.73 191.64 125.60 192.12 124.95 L 192.73 124.14 C 193.21 123.49 193.07 122.58 192.43 122.09 C 191.78 121.61 190.86 121.75 190.38 122.39 Z M 189.78 123.21 L 189.16 124.05 C 188.68 124.69 188.82 125.61 189.47 126.08 C 190.12 126.56 191.03 126.42 191.51 125.77 L 192.12 124.94 C 192.60 124.29 192.46 123.38 191.81 122.90 C 191.16 122.43 190.25 122.57 189.78 123.21 Z M 189.16 124.05 L 188.55 124.89 C 188.08 125.54 188.22 126.45 188.87 126.92 C 189.52 127.39 190.42 127.25 190.90 126.60 L 191.51 125.77 C 191.98 125.12 191.84 124.21 191.19 123.74 C 190.54 123.26 189.63 123.41 189.16 124.05 Z M 188.55 124.90 L 187.95 125.73 C 187.49 126.38 187.63 127.28 188.28 127.75 C 188.93 128.21 189.83 128.07 190.30 127.42 L 190.90 126.59 C 191.36 125.95 191.22 125.04 190.57 124.57 C 189.92 124.11 189.02 124.25 188.55 124.90 Z M 187.95 125.74 L 187.38 126.55 C 186.92 127.19 187.07 128.09 187.72 128.55 C 188.37 129.02 189.27 128.86 189.73 128.21 L 190.30 127.41 C 190.76 126.76 190.61 125.86 189.96 125.40 C 189.31 124.94 188.41 125.09 187.95 125.74 Z M 187.38 126.56 L 186.74 127.47 C 186.29 128.12 186.45 129.02 187.10 129.47 C 187.75 129.92 188.65 129.76 189.10 129.11 L 189.73 128.20 C 190.19 127.55 190.03 126.66 189.38 126.20 C 188.73 125.75 187.83 125.91 187.38 126.56 Z M 186.74 127.48 L 186.15 128.34 C 185.70 129.00 185.87 129.89 186.52 130.34 C 187.18 130.78 188.07 130.62 188.52 129.96 L 189.10 129.10 C 189.55 128.45 189.38 127.55 188.73 127.11 C 188.08 126.66 187.18 126.83 186.74 127.48 Z M 186.14 128.35 L 185.59 129.17 C 185.15 129.83 185.32 130.72 185.98 131.16 C 186.64 131.60 187.53 131.43 187.97 130.77 L 188.52 129.95 C 188.96 129.29 188.79 128.40 188.13 127.96 C 187.47 127.52 186.58 127.70 186.14 128.35 Z M 185.59 129.18 L 185.06 129.98 C 184.62 130.63 184.80 131.52 185.46 131.96 C 186.12 132.40 187.01 132.22 187.44 131.56 L 187.97 130.76 C 188.41 130.11 188.23 129.22 187.57 128.78 C 186.91 128.34 186.02 128.52 185.59 129.18 Z M 185.06 129.98 L 184.55 130.76 C 184.11 131.42 184.30 132.30 184.96 132.74 C 185.61 133.17 186.50 132.99 186.93 132.33 L 187.44 131.55 C 187.88 130.89 187.70 130.01 187.04 129.57 C 186.38 129.14 185.49 129.32 185.06 129.98 Z M 184.55 130.76 L 184.32 131.11 C 183.89 131.76 184.07 132.65 184.73 133.08 C 185.39 133.51 186.27 133.33 186.71 132.67 L 186.93 132.33 C 187.36 131.67 187.18 130.79 186.52 130.35 C 185.86 129.92 184.98 130.10 184.55 130.76 Z"
      fill="black"
      fill-rule="nonzero" /><path d="M 158.12 149.16 L 157.10 149.26 C 156.26 149.34 155.65 150.08 155.73 150.92 C 155.81 151.76 156.55 152.37 157.39 152.29 L 158.41 152.19 C 159.25 152.11 159.86 151.36 159.78 150.53 C 159.70 149.69 158.95 149.08 158.12 149.16 Z M 157.08 149.25 L 156.07 149.36 C 155.23 149.45 154.62 150.20 154.71 151.04 C 154.80 151.88 155.55 152.49 156.39 152.40 L 157.41 152.29 C 158.25 152.20 158.85 151.45 158.76 150.61 C 158.67 149.77 157.92 149.16 157.08 149.25 Z M 156.04 149.36 L 155.04 149.49 C 154.20 149.60 153.60 150.36 153.71 151.21 C 153.82 152.05 154.59 152.64 155.43 152.53 L 156.43 152.40 C 157.27 152.30 157.86 151.53 157.75 150.69 C 157.64 149.85 156.88 149.25 156.04 149.36 Z M 154.99 149.49 L 154.01 149.65 C 153.17 149.78 152.60 150.57 152.73 151.41 C 152.87 152.25 153.66 152.82 154.50 152.69 L 155.48 152.53 C 156.32 152.40 156.89 151.60 156.75 150.76 C 156.62 149.93 155.83 149.35 154.99 149.49 Z M 153.94 149.65 L 152.98 149.85 C 152.15 150.02 151.61 150.84 151.78 151.68 C 151.96 152.51 152.77 153.05 153.61 152.88 L 154.56 152.68 C 155.40 152.51 155.94 151.69 155.77 150.85 C 155.59 150.02 154.77 149.48 153.94 149.65 Z M 152.88 149.86 L 151.73 150.18 C 150.90 150.41 150.41 151.27 150.64 152.10 C 150.87 152.92 151.72 153.41 152.55 153.18 L 153.71 152.86 C 154.54 152.64 155.03 151.78 154.80 150.95 C 154.57 150.12 153.71 149.64 152.88 149.86 Z M 151.60 150.21 L 150.40 150.64 C 149.59 150.94 149.17 151.85 149.46 152.66 C 149.76 153.48 150.67 153.90 151.48 153.60 L 152.68 153.16 C 153.50 152.86 153.92 151.96 153.62 151.14 C 153.32 150.33 152.42 149.91 151.60 150.21 Z M 150.24 150.69 L 149.35 151.13 C 148.56 151.51 148.23 152.47 148.62 153.26 C 149.00 154.05 149.96 154.37 150.75 153.99 L 151.64 153.55 C 152.43 153.17 152.76 152.21 152.37 151.42 C 151.99 150.63 151.03 150.30 150.24 150.69 Z M 149.03 151.31 L 148.59 151.66 C 147.90 152.22 147.80 153.24 148.36 153.93 C 148.92 154.62 149.94 154.73 150.63 154.16 L 151.07 153.81 C 151.76 153.25 151.86 152.23 151.30 151.54 C 150.74 150.85 149.72 150.74 149.03 151.31 Z M 148.53 154.12 L 148.79 154.36 C 149.46 154.96 150.49 154.91 151.09 154.24 C 151.69 153.57 151.63 152.54 150.97 151.94 L 150.70 151.70 C 150.03 151.10 149.00 151.16 148.40 151.83 C 147.80 152.49 147.86 153.52 148.53 154.12 Z M 149.89 154.78 L 150.92 154.77 C 151.82 154.77 152.54 154.03 152.54 153.13 C 152.53 152.23 151.79 151.51 150.89 151.52 L 149.87 151.53 C 148.97 151.53 148.25 152.27 148.25 153.17 C 148.26 154.07 148.99 154.79 149.89 154.78 Z M 151.16 154.76 L 152.47 154.55 C 153.36 154.41 153.97 153.58 153.83 152.69 C 153.69 151.80 152.86 151.19 151.97 151.33 L 150.66 151.53 C 149.77 151.67 149.16 152.51 149.30 153.40 C 149.44 154.29 150.27 154.89 151.16 154.76 Z M 152.60 154.52 L 153.49 154.31 C 154.36 154.10 154.90 153.22 154.69 152.34 C 154.47 151.47 153.59 150.93 152.72 151.14 L 151.83 151.36 C 150.96 151.57 150.42 152.45 150.63 153.32 C 150.85 154.20 151.73 154.74 152.60 154.52 Z M 153.57 154.29 L 154.48 154.02 C 155.34 153.76 155.83 152.85 155.58 151.99 C 155.32 151.13 154.41 150.64 153.55 150.89 L 152.64 151.16 C 151.78 151.42 151.28 152.33 151.54 153.19 C 151.80 154.05 152.70 154.54 153.57 154.29 Z M 154.53 154.00 L 155.49 153.68 C 156.35 153.39 156.80 152.46 156.52 151.61 C 156.23 150.76 155.31 150.30 154.45 150.59 L 153.49 150.91 C 152.64 151.20 152.18 152.12 152.47 152.97 C 152.76 153.83 153.68 154.29 154.53 154.00 Z M 155.53 153.66 L 156.55 153.29 C 157.39 152.99 157.83 152.05 157.52 151.21 C 157.22 150.36 156.29 149.93 155.44 150.23 L 154.42 150.60 C 153.57 150.91 153.14 151.84 153.44 152.69 C 153.75 153.53 154.68 153.97 155.53 153.66 Z M 156.56 153.29 L 157.55 152.92 C 158.39 152.61 158.82 151.67 158.50 150.83 C 158.19 149.98 157.25 149.56 156.41 149.87 L 155.42 150.24 C 154.58 150.55 154.15 151.49 154.47 152.33 C 154.78 153.17 155.72 153.60 156.56 153.29 Z M 157.55 152.92 L 158.51 152.55 C 159.35 152.24 159.77 151.30 159.46 150.46 C 159.14 149.62 158.20 149.20 157.36 149.51 L 156.40 149.87 C 155.56 150.19 155.14 151.13 155.46 151.97 C 155.78 152.81 156.71 153.23 157.55 152.92 Z M 158.51 152.55 L 159.48 152.18 C 160.32 151.86 160.74 150.92 160.42 150.08 C 160.10 149.25 159.17 148.83 158.33 149.15 L 157.36 149.52 C 156.52 149.84 156.10 150.77 156.42 151.61 C 156.74 152.45 157.68 152.87 158.51 152.55 Z M 159.49 152.18 L 160.45 151.81 C 161.28 151.49 161.70 150.55 161.38 149.72 C 161.06 148.88 160.12 148.46 159.29 148.78 L 158.33 149.15 C 157.49 149.47 157.07 150.41 157.39 151.24 C 157.71 152.08 158.65 152.50 159.49 152.18 Z M 160.45 151.81 L 161.37 151.46 C 162.20 151.14 162.62 150.20 162.30 149.36 C 161.98 148.53 161.04 148.11 160.21 148.43 L 159.28 148.78 C 158.45 149.10 158.03 150.04 158.35 150.88 C 158.67 151.71 159.61 152.13 160.45 151.81 Z M 161.37 151.46 L 162.26 151.11 C 163.10 150.79 163.52 149.86 163.20 149.02 C 162.88 148.18 161.94 147.77 161.11 148.09 L 160.21 148.43 C 159.37 148.75 158.95 149.69 159.27 150.52 C 159.59 151.36 160.53 151.78 161.37 151.46 Z M 162.26 151.11 L 163.31 150.71 C 164.15 150.39 164.57 149.46 164.25 148.62 C 163.93 147.79 163.00 147.37 162.16 147.69 L 161.11 148.09 C 160.27 148.40 159.85 149.34 160.17 150.17 C 160.49 151.01 161.42 151.43 162.26 151.11 Z M 163.31 150.71 L 164.24 150.36 C 165.08 150.05 165.50 149.11 165.19 148.28 C 164.87 147.44 163.94 147.02 163.10 147.33 L 162.17 147.69 C 161.33 148.00 160.91 148.93 161.22 149.77 C 161.54 150.60 162.47 151.03 163.31 150.71 Z M 164.23 150.36 L 165.10 150.04 C 165.93 149.73 166.36 148.81 166.05 147.97 C 165.74 147.13 164.82 146.70 163.98 147.01 L 163.11 147.33 C 162.28 147.64 161.85 148.57 162.16 149.41 C 162.47 150.24 163.39 150.67 164.23 150.36 Z M 165.09 150.04 L 165.95 149.73 C 166.79 149.43 167.22 148.50 166.92 147.67 C 166.61 146.83 165.69 146.40 164.85 146.70 L 163.99 147.01 C 163.15 147.31 162.72 148.24 163.02 149.08 C 163.32 149.91 164.25 150.35 165.09 150.04 Z M 165.94 149.73 L 166.87 149.40 C 167.71 149.11 168.15 148.18 167.85 147.34 C 167.55 146.51 166.63 146.07 165.79 146.37 L 164.86 146.70 C 164.02 147.00 163.58 147.92 163.88 148.76 C 164.18 149.60 165.10 150.03 165.94 149.73 Z M 166.87 149.40 L 167.81 149.07 C 168.65 148.77 169.09 147.85 168.79 147.01 C 168.50 146.17 167.57 145.73 166.74 146.03 L 165.79 146.37 C 164.95 146.66 164.51 147.58 164.81 148.42 C 165.11 149.26 166.03 149.70 166.87 149.40 Z M 167.82 149.07 L 168.77 148.73 C 169.61 148.43 170.04 147.50 169.74 146.67 C 169.44 145.83 168.52 145.39 167.68 145.69 L 166.73 146.03 C 165.89 146.33 165.46 147.26 165.76 148.09 C 166.06 148.93 166.98 149.37 167.82 149.07 Z M 168.78 148.72 L 169.72 148.38 C 170.56 148.07 170.99 147.14 170.68 146.31 C 170.37 145.47 169.45 145.05 168.61 145.35 L 167.67 145.70 C 166.84 146.00 166.41 146.93 166.71 147.76 C 167.02 148.60 167.94 149.03 168.78 148.72 Z M 169.73 148.37 L 170.67 148.02 C 171.50 147.71 171.92 146.78 171.61 145.95 C 171.30 145.11 170.37 144.69 169.54 145.01 L 168.60 145.36 C 167.77 145.67 167.35 146.60 167.66 147.43 C 167.97 148.26 168.90 148.68 169.73 148.37 Z M 170.68 148.02 L 171.61 147.66 C 172.44 147.34 172.86 146.41 172.54 145.58 C 172.23 144.75 171.30 144.34 170.47 144.65 L 169.53 145.01 C 168.70 145.33 168.28 146.26 168.60 147.09 C 168.92 147.92 169.85 148.33 170.68 148.02 Z M 171.62 147.66 L 172.55 147.30 C 173.38 146.98 173.79 146.05 173.48 145.22 C 173.16 144.39 172.23 143.98 171.40 144.30 L 170.46 144.66 C 169.63 144.97 169.22 145.90 169.54 146.73 C 169.86 147.56 170.79 147.98 171.62 147.66 Z M 172.55 147.30 L 173.49 146.94 C 174.32 146.62 174.73 145.69 174.41 144.86 C 174.10 144.03 173.17 143.62 172.34 143.94 L 171.40 144.30 C 170.57 144.62 170.15 145.55 170.47 146.37 C 170.79 147.20 171.72 147.62 172.55 147.30 Z M 173.49 146.94 L 174.43 146.58 C 175.25 146.26 175.67 145.33 175.35 144.50 C 175.03 143.67 174.11 143.26 173.28 143.58 L 172.34 143.94 C 171.51 144.25 171.10 145.18 171.41 146.01 C 171.73 146.84 172.66 147.25 173.49 146.94 Z M 174.42 146.58 L 175.35 146.23 C 176.18 145.91 176.60 144.98 176.29 144.15 C 175.97 143.33 175.04 142.91 174.21 143.22 L 173.28 143.58 C 172.45 143.89 172.04 144.82 172.35 145.65 C 172.66 146.48 173.59 146.89 174.42 146.58 Z M 175.35 146.23 L 176.24 145.89 C 177.07 145.58 177.49 144.66 177.18 143.83 C 176.87 143.00 175.95 142.57 175.12 142.89 L 174.22 143.22 C 173.39 143.53 172.97 144.46 173.28 145.29 C 173.59 146.12 174.52 146.54 175.35 146.23 Z M 176.23 145.89 L 177.07 145.59 C 177.90 145.28 178.33 144.36 178.02 143.53 C 177.72 142.70 176.80 142.27 175.97 142.58 L 175.13 142.88 C 174.30 143.19 173.87 144.11 174.17 144.94 C 174.48 145.77 175.40 146.20 176.23 145.89 Z M 177.05 145.59 L 177.94 145.28 C 178.78 144.98 179.22 144.07 178.92 143.23 C 178.62 142.40 177.71 141.96 176.87 142.26 L 175.98 142.57 C 175.15 142.87 174.71 143.78 175.01 144.62 C 175.30 145.45 176.22 145.89 177.05 145.59 Z M 177.92 145.28 L 178.92 144.95 C 179.76 144.66 180.21 143.75 179.92 142.91 C 179.63 142.07 178.72 141.62 177.89 141.91 L 176.89 142.25 C 176.05 142.53 175.60 143.45 175.89 144.28 C 176.18 145.12 177.09 145.57 177.92 145.28 Z M 178.90 144.95 L 179.97 144.60 C 180.81 144.32 181.27 143.42 180.99 142.58 C 180.72 141.74 179.81 141.28 178.97 141.55 L 177.90 141.91 C 177.06 142.18 176.60 143.09 176.88 143.93 C 177.16 144.77 178.06 145.23 178.90 144.95 Z M 179.96 144.60 L 180.84 144.32 C 181.69 144.05 182.15 143.15 181.88 142.31 C 181.61 141.46 180.71 141.00 179.87 141.27 L 178.98 141.55 C 178.14 141.82 177.67 142.72 177.94 143.56 C 178.21 144.41 179.11 144.87 179.96 144.60 Z M 180.83 144.32 L 181.78 144.03 C 182.63 143.76 183.10 142.86 182.83 142.02 C 182.57 141.18 181.67 140.71 180.83 140.97 L 179.88 141.27 C 179.03 141.53 178.56 142.43 178.83 143.27 C 179.09 144.12 179.99 144.59 180.83 144.32 Z M 181.77 144.03 L 182.76 143.73 C 183.61 143.47 184.08 142.57 183.82 141.73 C 183.56 140.88 182.67 140.41 181.82 140.66 L 180.84 140.97 C 179.99 141.23 179.52 142.12 179.77 142.97 C 180.03 143.81 180.93 144.29 181.77 144.03 Z M 182.75 143.73 L 183.75 143.43 C 184.60 143.17 185.08 142.28 184.82 141.43 C 184.57 140.59 183.68 140.11 182.83 140.36 L 181.83 140.66 C 180.98 140.92 180.50 141.81 180.76 142.66 C 181.01 143.50 181.91 143.98 182.75 143.73 Z M 183.74 143.43 L 184.73 143.14 C 185.58 142.89 186.06 142.00 185.81 141.15 C 185.56 140.31 184.67 139.82 183.82 140.07 L 182.84 140.36 C 181.99 140.61 181.50 141.50 181.75 142.35 C 182.00 143.20 182.89 143.68 183.74 143.43 Z M 184.72 143.14 L 185.73 142.85 C 186.58 142.61 187.07 141.72 186.82 140.87 C 186.58 140.02 185.69 139.53 184.84 139.78 L 183.83 140.07 C 182.98 140.31 182.49 141.20 182.74 142.05 C 182.98 142.90 183.87 143.39 184.72 143.14 Z M 185.71 142.86 L 186.79 142.56 C 187.64 142.33 188.14 141.45 187.91 140.59 C 187.67 139.74 186.79 139.24 185.94 139.47 L 184.86 139.77 C 184.01 140.01 183.51 140.89 183.74 141.74 C 183.98 142.59 184.86 143.09 185.71 142.86 Z M 186.76 142.57 L 187.77 142.31 C 188.63 142.09 189.15 141.22 188.92 140.36 C 188.70 139.50 187.83 138.99 186.97 139.21 L 185.97 139.47 C 185.11 139.69 184.59 140.56 184.81 141.42 C 185.03 142.27 185.91 142.79 186.76 142.57 Z M 187.73 142.32 L 188.68 142.10 C 189.54 141.90 190.08 141.04 189.88 140.18 C 189.68 139.32 188.82 138.78 187.96 138.98 L 187.01 139.20 C 186.15 139.40 185.61 140.26 185.81 141.12 C 186.01 141.98 186.87 142.52 187.73 142.32 Z M 188.63 142.11 L 189.51 141.94 C 190.38 141.77 190.95 140.93 190.78 140.06 C 190.61 139.19 189.76 138.62 188.89 138.79 L 188.01 138.97 C 187.14 139.14 186.57 139.98 186.74 140.85 C 186.91 141.72 187.76 142.29 188.63 142.11 Z M 189.43 141.96 L 190.49 141.81 C 191.37 141.68 191.98 140.87 191.86 139.99 C 191.73 139.11 190.92 138.50 190.04 138.62 L 188.97 138.77 C 188.10 138.90 187.48 139.71 187.61 140.59 C 187.74 141.47 188.55 142.08 189.43 141.96 Z M 190.32 141.83 L 191.49 141.79 C 192.39 141.77 193.09 141.02 193.06 140.13 C 193.03 139.23 192.28 138.53 191.39 138.56 L 190.21 138.60 C 189.32 138.63 188.62 139.37 188.65 140.27 C 188.68 141.16 189.42 141.86 190.32 141.83 Z M 191.01 141.75 L 191.79 141.96 C 192.65 142.20 193.55 141.69 193.79 140.82 C 194.03 139.96 193.52 139.06 192.65 138.82 L 191.88 138.61 C 191.01 138.37 190.11 138.88 189.87 139.74 C 189.63 140.61 190.14 141.51 191.01 141.75 Z M 190.69 140.99 L 190.90 141.52 C 191.23 142.36 192.19 142.78 193.03 142.45 C 193.87 142.11 194.29 141.16 193.95 140.32 L 193.75 139.79 C 193.41 138.95 192.46 138.53 191.62 138.86 C 190.77 139.20 190.36 140.15 190.69 140.99 Z M 190.91 140.28 L 190.57 141.07 C 190.22 141.91 190.61 142.88 191.45 143.24 C 192.29 143.59 193.26 143.19 193.61 142.35 L 193.95 141.56 C 194.30 140.72 193.91 139.75 193.07 139.40 C 192.23 139.04 191.26 139.44 190.91 140.28 Z M 190.77 140.71 L 190.06 141.65 C 189.51 142.38 189.65 143.42 190.38 143.98 C 191.11 144.53 192.15 144.38 192.71 143.65 L 193.42 142.71 C 193.97 141.98 193.82 140.94 193.09 140.39 C 192.36 139.84 191.32 139.98 190.77 140.71 Z M 190.18 141.51 L 189.41 142.31 C 188.78 142.98 188.80 144.03 189.47 144.67 C 190.14 145.30 191.19 145.27 191.82 144.61 L 192.59 143.80 C 193.22 143.13 193.20 142.08 192.53 141.45 C 191.86 140.81 190.81 140.84 190.18 141.51 Z M 189.49 142.23 L 188.76 142.90 C 188.08 143.53 188.03 144.58 188.66 145.26 C 189.28 145.94 190.34 145.98 191.02 145.36 L 191.75 144.69 C 192.42 144.06 192.47 143.01 191.84 142.33 C 191.22 141.65 190.16 141.61 189.49 142.23 Z M 188.81 142.85 L 188.04 143.50 C 187.33 144.09 187.24 145.14 187.83 145.85 C 188.42 146.56 189.48 146.65 190.19 146.06 L 190.96 145.41 C 191.67 144.82 191.76 143.77 191.17 143.06 C 190.58 142.35 189.52 142.26 188.81 142.85 Z M 188.09 143.46 L 187.29 144.08 C 186.56 144.65 186.43 145.70 186.99 146.43 C 187.56 147.16 188.61 147.29 189.34 146.72 L 190.14 146.10 C 190.87 145.53 191.00 144.48 190.43 143.75 C 189.87 143.02 188.81 142.89 188.09 143.46 Z M 187.32 144.05 L 186.49 144.66 C 185.75 145.21 185.60 146.26 186.15 147.01 C 186.70 147.75 187.75 147.91 188.49 147.36 L 189.31 146.75 C 190.06 146.20 190.21 145.15 189.66 144.40 C 189.11 143.66 188.06 143.50 187.32 144.05 Z M 186.52 144.64 L 185.68 145.24 C 184.93 145.78 184.75 146.82 185.29 147.58 C 185.83 148.33 186.88 148.51 187.63 147.97 L 188.47 147.37 C 189.22 146.84 189.39 145.79 188.86 145.04 C 188.32 144.28 187.27 144.11 186.52 144.64 Z M 185.70 145.22 L 184.88 145.79 C 184.12 146.32 183.92 147.36 184.45 148.13 C 184.98 148.89 186.02 149.08 186.78 148.55 L 187.61 147.98 C 188.37 147.46 188.56 146.41 188.04 145.65 C 187.51 144.89 186.47 144.70 185.70 145.22 Z M 184.90 145.78 L 184.09 146.33 C 183.32 146.84 183.11 147.89 183.63 148.66 C 184.15 149.42 185.19 149.63 185.96 149.11 L 186.77 148.57 C 187.54 148.05 187.74 147.01 187.22 146.24 C 186.71 145.47 185.66 145.26 184.90 145.78 Z M 184.10 146.32 L 183.26 146.87 C 182.48 147.38 182.27 148.42 182.78 149.20 C 183.29 149.97 184.33 150.19 185.11 149.67 L 185.95 149.12 C 186.72 148.61 186.94 147.57 186.43 146.79 C 185.91 146.02 184.87 145.81 184.10 146.32 Z M 183.26 146.87 L 182.41 147.43 C 181.63 147.93 181.41 148.98 181.92 149.75 C 182.43 150.53 183.47 150.75 184.25 150.24 L 185.10 149.68 C 185.88 149.17 186.10 148.13 185.59 147.35 C 185.08 146.57 184.04 146.36 183.26 146.87 Z M 182.40 147.43 L 181.57 147.98 C 180.80 148.49 180.59 149.53 181.10 150.31 C 181.62 151.08 182.66 151.29 183.44 150.78 L 184.26 150.23 C 185.03 149.72 185.24 148.68 184.73 147.90 C 184.21 147.13 183.17 146.92 182.40 147.43 Z M 181.55 147.99 L 180.76 148.54 C 179.99 149.07 179.80 150.12 180.33 150.88 C 180.85 151.65 181.90 151.84 182.67 151.31 L 183.46 150.76 C 184.23 150.24 184.42 149.19 183.89 148.42 C 183.36 147.66 182.31 147.46 181.55 147.99 Z M 180.72 148.57 L 179.90 149.17 C 179.15 149.71 178.99 150.77 179.54 151.52 C 180.08 152.27 181.14 152.43 181.89 151.88 L 182.71 151.28 C 183.46 150.73 183.62 149.68 183.07 148.93 C 182.52 148.18 181.47 148.02 180.72 148.57 Z M 179.86 149.19 L 179.07 149.81 C 178.34 150.38 178.20 151.43 178.77 152.17 C 179.34 152.90 180.40 153.04 181.14 152.47 L 181.93 151.85 C 182.66 151.28 182.79 150.23 182.22 149.49 C 181.65 148.76 180.60 148.62 179.86 149.19 Z M 179.04 149.83 L 178.27 150.45 C 177.55 151.04 177.45 152.10 178.03 152.82 C 178.62 153.54 179.68 153.65 180.40 153.07 L 181.17 152.44 C 181.89 151.85 182.00 150.79 181.41 150.07 C 180.82 149.35 179.76 149.24 179.04 149.83 Z M 178.25 150.48 L 177.48 151.13 C 176.77 151.74 176.69 152.80 177.29 153.51 C 177.89 154.21 178.95 154.30 179.66 153.70 L 180.43 153.04 C 181.14 152.44 181.22 151.38 180.62 150.67 C 180.02 149.96 178.95 149.88 178.25 150.48 Z M 177.43 151.18 L 176.69 151.86 C 176.01 152.49 175.96 153.55 176.59 154.24 C 177.22 154.92 178.29 154.96 178.97 154.33 L 179.71 153.65 C 180.39 153.02 180.44 151.96 179.81 151.27 C 179.18 150.59 178.11 150.55 177.43 151.18 Z M 176.61 151.94 L 175.93 152.66 C 175.29 153.33 175.32 154.40 176.00 155.04 C 176.67 155.67 177.73 155.64 178.37 154.97 L 179.05 154.25 C 179.69 153.58 179.66 152.51 178.98 151.88 C 178.31 151.24 177.25 151.27 176.61 151.94 Z M 175.83 152.78 L 175.28 153.48 C 174.71 154.21 174.84 155.27 175.57 155.84 C 176.30 156.41 177.35 156.28 177.92 155.55 L 178.47 154.85 C 179.04 154.12 178.91 153.06 178.18 152.49 C 177.45 151.92 176.40 152.05 175.83 152.78 Z M 175.18 153.63 L 174.71 154.39 C 174.22 155.17 174.45 156.21 175.24 156.70 C 176.02 157.19 177.06 156.95 177.55 156.16 L 178.02 155.41 C 178.51 154.62 178.27 153.59 177.49 153.10 C 176.70 152.61 175.67 152.85 175.18 153.63 Z M 174.63 154.53 L 174.18 155.43 C 173.76 156.26 174.10 157.26 174.93 157.68 C 175.75 158.09 176.76 157.76 177.17 156.93 L 177.62 156.02 C 178.04 155.20 177.70 154.19 176.88 153.78 C 176.05 153.36 175.04 153.70 174.63 154.53 Z M 174.13 155.54 L 173.68 156.63 C 173.32 157.49 173.73 158.47 174.58 158.82 C 175.43 159.17 176.41 158.77 176.76 157.92 L 177.22 156.82 C 177.57 155.97 177.17 154.99 176.31 154.64 C 175.46 154.28 174.48 154.69 174.13 155.54 Z M 173.65 156.69 L 173.33 157.58 C 173.01 158.44 173.45 159.40 174.31 159.72 C 175.18 160.04 176.14 159.60 176.46 158.74 L 176.78 157.86 C 177.10 156.99 176.66 156.03 175.80 155.71 C 174.94 155.39 173.98 155.83 173.65 156.69 Z M 173.32 157.60 L 172.98 158.56 C 172.68 159.43 173.13 160.38 174.00 160.69 C 174.87 160.99 175.82 160.54 176.13 159.67 L 176.46 158.71 C 176.77 157.84 176.31 156.89 175.45 156.59 C 174.58 156.28 173.63 156.74 173.32 157.60 Z M 172.98 158.58 L 172.64 159.57 C 172.34 160.44 172.81 161.38 173.68 161.68 C 174.54 161.98 175.49 161.52 175.79 160.65 L 176.13 159.66 C 176.43 158.79 175.96 157.84 175.09 157.54 C 174.22 157.24 173.28 157.71 172.98 158.58 Z M 172.64 159.57 L 172.31 160.56 C 172.01 161.43 172.48 162.37 173.34 162.66 C 174.21 162.96 175.16 162.50 175.45 161.63 L 175.79 160.64 C 176.08 159.78 175.62 158.83 174.75 158.54 C 173.88 158.24 172.94 158.70 172.64 159.57 Z M 172.31 160.55 L 171.99 161.48 C 171.69 162.35 172.15 163.29 173.01 163.59 C 173.88 163.89 174.83 163.43 175.13 162.57 L 175.45 161.63 C 175.75 160.77 175.29 159.82 174.42 159.52 C 173.56 159.22 172.61 159.68 172.31 160.55 Z M 172.00 161.46 L 171.62 162.51 C 171.31 163.37 171.75 164.32 172.61 164.63 C 173.47 164.95 174.42 164.50 174.73 163.64 L 175.11 162.59 C 175.43 161.73 174.98 160.78 174.12 160.47 C 173.26 160.15 172.31 160.60 172.00 161.46 Z M 171.64 162.47 L 171.25 163.47 C 170.91 164.31 171.33 165.27 172.18 165.61 C 173.03 165.94 173.99 165.53 174.32 164.68 L 174.71 163.68 C 175.05 162.83 174.63 161.87 173.78 161.54 C 172.93 161.20 171.97 161.62 171.64 162.47 Z M 171.27 163.42 L 170.90 164.28 C 170.54 165.12 170.92 166.09 171.76 166.45 C 172.59 166.81 173.56 166.42 173.92 165.59 L 174.30 164.73 C 174.66 163.89 174.27 162.92 173.44 162.56 C 172.60 162.20 171.63 162.58 171.27 163.42 Z M 170.92 164.23 L 170.55 165.02 C 170.16 165.84 170.51 166.82 171.33 167.21 C 172.15 167.60 173.13 167.25 173.52 166.43 L 173.90 165.64 C 174.28 164.82 173.93 163.84 173.11 163.45 C 172.29 163.06 171.31 163.41 170.92 164.23 Z M 170.58 164.99 L 170.01 166.11 C 169.61 166.92 169.93 167.90 170.74 168.31 C 171.55 168.71 172.53 168.39 172.94 167.58 L 173.50 166.45 C 173.90 165.65 173.58 164.66 172.77 164.26 C 171.96 163.86 170.98 164.18 170.58 164.99 Z M 169.94 166.33 L 169.66 167.17 C 169.37 168.02 169.83 168.94 170.67 169.22 C 171.52 169.51 172.44 169.05 172.72 168.20 L 173.01 167.36 C 173.29 166.52 172.84 165.60 171.99 165.31 C 171.14 165.03 170.23 165.48 169.94 166.33 Z M 170.55 169.16 L 170.90 169.31 C 171.71 169.66 172.65 169.29 173.00 168.48 C 173.36 167.67 172.99 166.72 172.18 166.37 L 171.83 166.22 C 171.02 165.87 170.08 166.24 169.72 167.05 C 169.37 167.86 169.74 168.80 170.55 169.16 Z M 172.14 169.30 L 172.93 168.97 C 173.74 168.64 174.12 167.71 173.78 166.90 C 173.45 166.10 172.52 165.72 171.72 166.05 L 170.93 166.38 C 170.12 166.71 169.74 167.64 170.08 168.45 C 170.41 169.25 171.34 169.63 172.14 169.30 Z M 173.07 168.88 L 174.14 168.30 C 174.89 167.89 175.17 166.94 174.76 166.19 C 174.35 165.43 173.40 165.15 172.65 165.56 L 171.58 166.14 C 170.82 166.55 170.54 167.50 170.95 168.26 C 171.37 169.01 172.31 169.29 173.07 168.88 Z M 174.15 168.27 L 175.18 167.69 C 175.93 167.27 176.19 166.33 175.77 165.59 C 175.35 164.85 174.41 164.58 173.67 165.00 L 172.64 165.59 C 171.89 166.00 171.63 166.95 172.05 167.69 C 172.47 168.43 173.41 168.69 174.15 168.27 Z M 175.17 167.69 L 176.04 167.21 C 176.79 166.80 177.06 165.87 176.65 165.13 C 176.25 164.38 175.31 164.11 174.57 164.52 L 173.69 165.00 C 172.95 165.41 172.67 166.34 173.08 167.08 C 173.49 167.83 174.42 168.10 175.17 167.69 Z M 176.02 167.22 L 176.91 166.76 C 177.66 166.36 177.95 165.44 177.55 164.69 C 177.16 163.94 176.23 163.65 175.48 164.04 L 174.59 164.51 C 173.84 164.90 173.55 165.83 173.95 166.58 C 174.34 167.33 175.27 167.62 176.02 167.22 Z M 176.88 166.77 L 177.77 166.33 C 178.53 165.95 178.84 165.03 178.46 164.27 C 178.08 163.51 177.16 163.20 176.41 163.58 L 175.51 164.03 C 174.75 164.40 174.44 165.32 174.82 166.08 C 175.20 166.84 176.12 167.15 176.88 166.77 Z M 177.73 166.34 L 178.64 165.92 C 179.41 165.57 179.75 164.66 179.39 163.89 C 179.03 163.12 178.12 162.79 177.36 163.14 L 176.44 163.56 C 175.68 163.92 175.34 164.83 175.70 165.60 C 176.05 166.37 176.96 166.70 177.73 166.34 Z M 178.60 165.94 L 179.54 165.54 C 180.32 165.20 180.68 164.30 180.35 163.52 C 180.01 162.75 179.11 162.39 178.34 162.72 L 177.40 163.12 C 176.62 163.46 176.26 164.36 176.59 165.14 C 176.93 165.91 177.83 166.27 178.60 165.94 Z M 179.51 165.55 L 180.45 165.17 C 181.23 164.86 181.61 163.97 181.30 163.18 C 180.98 162.40 180.09 162.02 179.31 162.33 L 178.37 162.71 C 177.59 163.02 177.21 163.91 177.52 164.70 C 177.84 165.48 178.73 165.86 179.51 165.55 Z M 180.42 165.18 L 181.35 164.83 C 182.13 164.53 182.53 163.64 182.23 162.85 C 181.93 162.06 181.04 161.67 180.25 161.97 L 179.33 162.32 C 178.54 162.63 178.15 163.51 178.45 164.30 C 178.75 165.09 179.64 165.48 180.42 165.18 Z M 181.33 164.83 L 182.25 164.49 C 183.05 164.20 183.45 163.31 183.15 162.52 C 182.86 161.73 181.98 161.33 181.19 161.62 L 180.27 161.97 C 179.47 162.26 179.07 163.14 179.37 163.93 C 179.66 164.72 180.54 165.13 181.33 164.83 Z M 182.24 164.50 L 183.20 164.15 C 184.00 163.86 184.41 162.99 184.12 162.19 C 183.84 161.40 182.96 160.98 182.17 161.27 L 181.20 161.62 C 180.41 161.90 180.00 162.78 180.28 163.57 C 180.57 164.37 181.44 164.78 182.24 164.50 Z M 183.16 164.16 L 184.11 163.85 C 184.91 163.59 185.35 162.72 185.08 161.92 C 184.82 161.11 183.95 160.68 183.15 160.94 L 182.20 161.26 C 181.40 161.52 180.96 162.39 181.23 163.19 C 181.50 163.99 182.36 164.43 183.16 164.16 Z M 184.04 163.87 L 184.99 163.61 C 185.80 163.38 186.27 162.53 186.04 161.71 C 185.81 160.90 184.96 160.42 184.15 160.66 L 183.21 160.92 C 182.39 161.15 181.92 162.00 182.15 162.82 C 182.38 163.63 183.23 164.10 184.04 163.87 Z M 184.89 163.64 L 185.95 163.41 C 186.78 163.24 187.31 162.42 187.14 161.59 C 186.96 160.75 186.14 160.22 185.31 160.40 L 184.25 160.62 C 183.42 160.80 182.89 161.62 183.06 162.45 C 183.24 163.28 184.06 163.81 184.89 163.64 Z M 185.74 163.45 L 186.80 163.38 C 187.65 163.32 188.30 162.58 188.24 161.72 C 188.18 160.87 187.44 160.22 186.58 160.28 L 185.52 160.36 C 184.67 160.42 184.02 161.16 184.08 162.01 C 184.14 162.87 184.88 163.51 185.74 163.45 Z M 186.30 163.35 L 187.16 163.57 C 188.00 163.78 188.86 163.27 189.07 162.43 C 189.28 161.60 188.77 160.74 187.93 160.53 L 187.08 160.31 C 186.24 160.10 185.38 160.61 185.17 161.45 C 184.96 162.29 185.47 163.14 186.30 163.35 Z M 186.39 163.13 L 186.86 163.63 C 187.46 164.27 188.46 164.31 189.10 163.71 C 189.73 163.12 189.77 162.12 189.17 161.48 L 188.70 160.97 C 188.11 160.33 187.11 160.30 186.47 160.89 C 185.83 161.49 185.80 162.49 186.39 163.13 Z M 186.48 162.95 L 186.67 163.67 C 186.89 164.52 187.75 165.03 188.60 164.81 C 189.45 164.59 189.96 163.73 189.74 162.88 L 189.56 162.16 C 189.34 161.31 188.47 160.80 187.62 161.02 C 186.77 161.24 186.26 162.10 186.48 162.95 Z M 186.61 163.25 L 186.59 164.22 C 186.58 165.10 187.28 165.83 188.16 165.84 C 189.04 165.86 189.77 165.16 189.78 164.28 L 189.80 163.30 C 189.81 162.42 189.11 161.69 188.23 161.68 C 187.35 161.66 186.63 162.37 186.61 163.25 Z M 186.61 163.98 L 186.40 165.22 C 186.26 166.09 186.84 166.91 187.71 167.06 C 188.59 167.21 189.41 166.62 189.56 165.75 L 189.77 164.52 C 189.91 163.64 189.32 162.82 188.45 162.67 C 187.58 162.53 186.76 163.11 186.61 163.98 Z M 186.43 165.09 L 186.13 166.25 C 185.92 167.10 186.44 167.98 187.29 168.19 C 188.15 168.41 189.03 167.89 189.24 167.03 L 189.54 165.87 C 189.75 165.02 189.23 164.14 188.37 163.93 C 187.51 163.71 186.64 164.23 186.43 165.09 Z M 186.15 166.18 L 185.87 167.12 C 185.62 167.98 186.10 168.87 186.95 169.12 C 187.80 169.37 188.70 168.89 188.95 168.04 L 189.23 167.09 C 189.48 166.24 188.99 165.35 188.14 165.10 C 187.29 164.85 186.40 165.33 186.15 166.18 Z M 185.88 167.09 L 185.56 168.08 C 185.29 168.92 185.76 169.83 186.60 170.10 C 187.45 170.37 188.35 169.90 188.62 169.06 L 188.94 168.07 C 189.21 167.22 188.74 166.32 187.90 166.05 C 187.05 165.78 186.15 166.25 185.88 167.09 Z M 185.57 168.05 L 185.23 169.06 C 184.95 169.90 185.40 170.81 186.24 171.09 C 187.08 171.38 187.99 170.92 188.28 170.08 L 188.62 169.08 C 188.90 168.24 188.45 167.33 187.61 167.04 C 186.77 166.76 185.86 167.21 185.57 168.05 Z M 185.24 169.04 L 184.89 170.04 C 184.60 170.88 185.04 171.79 185.88 172.08 C 186.72 172.38 187.63 171.93 187.93 171.09 L 188.27 170.10 C 188.56 169.26 188.12 168.35 187.28 168.05 C 186.45 167.76 185.53 168.21 185.24 169.04 Z M 184.89 170.03 L 184.55 170.99 C 184.26 171.82 184.70 172.74 185.53 173.04 C 186.37 173.34 187.29 172.90 187.58 172.06 L 187.92 171.10 C 188.22 170.27 187.78 169.35 186.95 169.05 C 186.11 168.76 185.19 169.19 184.89 170.03 Z M 184.56 170.99 L 184.24 171.88 C 183.94 172.71 184.37 173.63 185.21 173.93 C 186.05 174.23 186.96 173.79 187.26 172.96 L 187.58 172.06 C 187.88 171.23 187.44 170.31 186.61 170.01 C 185.77 169.71 184.85 170.15 184.56 170.99 Z M 184.23 171.89 L 183.86 172.95 C 183.57 173.79 184.01 174.70 184.84 175.00 C 185.68 175.29 186.60 174.85 186.89 174.02 L 187.27 172.95 C 187.56 172.11 187.12 171.20 186.28 170.90 C 185.45 170.61 184.53 171.05 184.23 171.89 Z M 183.85 172.97 L 183.48 174.07 C 183.20 174.91 183.65 175.82 184.49 176.11 C 185.33 176.39 186.24 175.94 186.52 175.10 L 186.90 174.00 C 187.18 173.16 186.73 172.24 185.89 171.96 C 185.05 171.68 184.14 172.13 183.85 172.97 Z M 183.47 174.10 L 183.18 175.01 C 182.91 175.85 183.38 176.76 184.22 177.03 C 185.07 177.30 185.97 176.83 186.24 175.99 L 186.53 175.08 C 186.80 174.23 186.34 173.33 185.49 173.06 C 184.65 172.79 183.74 173.25 183.47 174.10 Z M 183.17 175.04 L 182.94 175.83 C 182.68 176.68 183.16 177.57 184.01 177.83 C 184.86 178.08 185.76 177.60 186.01 176.75 L 186.25 175.96 C 186.50 175.11 186.02 174.21 185.17 173.96 C 184.32 173.70 183.43 174.19 183.17 175.04 Z M 182.93 175.85 L 182.69 176.68 C 182.45 177.53 182.95 178.42 183.80 178.66 C 184.65 178.90 185.54 178.41 185.78 177.56 L 186.02 176.73 C 186.26 175.87 185.76 174.99 184.91 174.74 C 184.06 174.50 183.17 175.00 182.93 175.85 Z M 182.69 176.70 L 182.43 177.65 C 182.20 178.51 182.70 179.39 183.55 179.62 C 184.41 179.86 185.29 179.36 185.52 178.50 L 185.79 177.54 C 186.02 176.69 185.52 175.81 184.66 175.57 C 183.81 175.34 182.93 175.84 182.69 176.70 Z M 182.43 177.66 L 182.17 178.62 C 181.94 179.48 182.44 180.36 183.30 180.59 C 184.15 180.82 185.03 180.32 185.26 179.46 L 185.52 178.50 C 185.75 177.64 185.25 176.76 184.39 176.53 C 183.54 176.30 182.66 176.80 182.43 177.66 Z M 182.17 178.62 L 181.91 179.59 C 181.67 180.44 182.17 181.32 183.03 181.56 C 183.88 181.79 184.76 181.29 184.99 180.43 L 185.26 179.47 C 185.49 178.61 184.99 177.73 184.14 177.50 C 183.29 177.26 182.40 177.77 182.17 178.62 Z M 181.91 179.58 L 181.64 180.53 C 181.40 181.38 181.90 182.26 182.75 182.50 C 183.60 182.74 184.48 182.25 184.72 181.40 L 184.99 180.44 C 185.23 179.59 184.73 178.71 183.88 178.47 C 183.03 178.23 182.15 178.73 181.91 179.58 Z M 181.64 180.53 L 181.37 181.49 C 181.13 182.35 181.63 183.23 182.48 183.47 C 183.33 183.71 184.21 183.21 184.45 182.36 L 184.72 181.39 C 184.96 180.54 184.46 179.66 183.61 179.42 C 182.76 179.18 181.88 179.68 181.64 180.53 Z M 181.37 181.51 L 181.10 182.48 C 180.87 183.33 181.37 184.21 182.22 184.45 C 183.08 184.68 183.95 184.18 184.19 183.32 L 184.45 182.35 C 184.69 181.50 184.18 180.62 183.33 180.39 C 182.48 180.15 181.60 180.66 181.37 181.51 Z M 181.10 182.50 L 180.85 183.46 C 180.63 184.32 181.14 185.19 182.00 185.41 C 182.85 185.63 183.72 185.12 183.94 184.26 L 184.19 183.30 C 184.41 182.45 183.90 181.58 183.05 181.36 C 182.19 181.14 181.32 181.65 181.10 182.50 Z M 180.85 183.48 L 180.61 184.45 C 180.40 185.30 180.92 186.17 181.77 186.38 C 182.63 186.59 183.49 186.07 183.71 185.21 L 183.95 184.25 C 184.16 183.39 183.64 182.53 182.78 182.31 C 181.92 182.10 181.06 182.62 180.85 183.48 Z M 180.61 184.46 L 180.37 185.44 C 180.17 186.29 180.69 187.15 181.55 187.36 C 182.41 187.56 183.27 187.04 183.47 186.18 L 183.71 185.20 C 183.91 184.35 183.38 183.49 182.53 183.28 C 181.67 183.07 180.81 183.60 180.61 184.46 Z M 180.37 185.44 L 180.14 186.42 C 179.94 187.28 180.47 188.14 181.33 188.34 C 182.18 188.54 183.04 188.01 183.24 187.15 L 183.47 186.17 C 183.67 185.32 183.14 184.46 182.29 184.26 C 181.43 184.06 180.57 184.59 180.37 185.44 Z M 180.14 186.43 L 179.91 187.40 C 179.71 188.26 180.25 189.11 181.10 189.31 C 181.96 189.51 182.81 188.98 183.01 188.12 L 183.24 187.15 C 183.44 186.29 182.91 185.44 182.05 185.24 C 181.20 185.04 180.34 185.57 180.14 186.43 Z M 179.92 187.40 L 179.69 188.38 C 179.49 189.23 180.02 190.09 180.88 190.29 C 181.73 190.49 182.59 189.96 182.79 189.10 L 183.01 188.12 C 183.21 187.27 182.68 186.41 181.83 186.21 C 180.97 186.01 180.11 186.55 179.92 187.40 Z M 179.69 188.38 L 179.46 189.35 C 179.26 190.20 179.79 191.06 180.65 191.26 C 181.50 191.46 182.36 190.93 182.56 190.07 L 182.78 189.10 C 182.98 188.25 182.45 187.39 181.60 187.19 C 180.74 186.99 179.89 187.52 179.69 188.38 Z M 179.46 189.35 L 179.24 190.31 C 179.03 191.17 179.56 192.02 180.42 192.22 C 181.27 192.42 182.13 191.89 182.33 191.04 L 182.55 190.07 C 182.76 189.22 182.23 188.37 181.37 188.16 C 180.52 187.96 179.66 188.49 179.46 189.35 Z M 179.24 190.32 L 179.01 191.28 C 178.81 192.14 179.35 192.99 180.20 193.19 C 181.05 193.39 181.91 192.86 182.10 192.00 L 182.33 191.03 C 182.53 190.18 181.99 189.33 181.14 189.13 C 180.29 188.93 179.43 189.46 179.24 190.32 Z M 179.01 191.30 L 178.79 192.28 C 178.60 193.14 179.14 193.98 180.00 194.17 C 180.85 194.36 181.70 193.82 181.89 192.97 L 182.11 191.99 C 182.30 191.13 181.76 190.28 180.90 190.09 C 180.05 189.91 179.20 190.44 179.01 191.30 Z M 178.79 192.30 L 178.59 193.24 C 178.42 194.09 178.97 194.93 179.82 195.11 C 180.68 195.29 181.52 194.74 181.70 193.88 L 181.89 192.95 C 182.07 192.09 181.52 191.25 180.66 191.07 C 179.80 190.90 178.97 191.45 178.79 192.30 Z M 178.59 193.26 L 178.41 194.17 C 178.25 195.03 178.81 195.86 179.67 196.03 C 180.52 196.19 181.36 195.63 181.52 194.77 L 181.70 193.86 C 181.87 193.00 181.31 192.17 180.45 192.00 C 179.59 191.84 178.76 192.40 178.59 193.26 Z M 178.41 194.18 L 178.23 195.15 C 178.07 196.01 178.64 196.84 179.50 197.00 C 180.35 197.16 181.18 196.59 181.34 195.73 L 181.52 194.76 C 181.68 193.90 181.12 193.08 180.26 192.92 C 179.40 192.75 178.57 193.32 178.41 194.18 Z M 178.23 195.16 L 178.04 196.21 C 177.88 197.07 178.45 197.89 179.31 198.05 C 180.16 198.21 180.99 197.64 181.15 196.78 L 181.34 195.73 C 181.50 194.87 180.93 194.05 180.07 193.89 C 179.22 193.73 178.39 194.30 178.23 195.16 Z M 178.04 196.21 L 177.85 197.22 C 177.69 198.08 178.26 198.91 179.12 199.06 C 179.97 199.22 180.80 198.66 180.96 197.80 L 181.15 196.78 C 181.30 195.93 180.74 195.10 179.88 194.94 C 179.02 194.78 178.20 195.35 178.04 196.21 Z M 177.85 197.22 L 177.67 198.18 C 177.51 199.04 178.08 199.86 178.93 200.02 C 179.79 200.18 180.62 199.62 180.78 198.76 L 180.96 197.80 C 181.12 196.94 180.55 196.12 179.69 195.96 C 178.84 195.80 178.01 196.36 177.85 197.22 Z M 177.67 198.18 L 177.49 199.18 C 177.33 200.04 177.89 200.86 178.75 201.02 C 179.61 201.18 180.43 200.62 180.59 199.76 L 180.77 198.76 C 180.93 197.91 180.37 197.08 179.51 196.92 C 178.66 196.76 177.83 197.33 177.67 198.18 Z M 177.49 199.19 L 177.30 200.20 C 177.14 201.05 177.71 201.87 178.57 202.03 C 179.42 202.19 180.25 201.62 180.40 200.77 L 180.59 199.76 C 180.75 198.90 180.18 198.08 179.32 197.92 C 178.47 197.76 177.65 198.33 177.49 199.19 Z M 177.30 200.20 L 177.12 201.20 C 176.97 202.06 177.54 202.88 178.39 203.03 C 179.25 203.19 180.07 202.62 180.22 201.76 L 180.40 200.76 C 180.56 199.90 179.99 199.09 179.13 198.93 C 178.28 198.78 177.46 199.35 177.30 200.20 Z M 177.12 201.21 L 176.95 202.22 C 176.80 203.08 177.37 203.89 178.23 204.04 C 179.08 204.19 179.90 203.62 180.05 202.76 L 180.22 201.75 C 180.37 200.90 179.80 200.08 178.94 199.93 C 178.09 199.78 177.27 200.36 177.12 201.21 Z M 176.95 202.24 L 176.78 203.26 C 176.64 204.11 177.21 204.92 178.07 205.07 C 178.92 205.21 179.73 204.63 179.87 203.77 L 180.04 202.75 C 180.19 201.90 179.61 201.09 178.75 200.94 C 177.90 200.80 177.09 201.38 176.95 202.24 Z M 176.78 203.27 L 176.62 204.26 C 176.49 205.11 177.07 205.91 177.92 206.05 C 178.78 206.19 179.58 205.60 179.71 204.75 L 179.87 203.76 C 180.01 202.91 179.43 202.11 178.57 201.97 C 177.72 201.84 176.92 202.42 176.78 203.27 Z M 176.63 204.27 L 176.48 205.23 C 176.35 206.08 176.93 206.88 177.78 207.01 C 178.63 207.14 179.43 206.56 179.56 205.71 L 179.71 204.74 C 179.84 203.89 179.26 203.10 178.41 202.96 C 177.56 202.83 176.76 203.42 176.63 204.27 Z M 176.48 205.24 L 176.34 206.19 C 176.21 207.04 176.80 207.83 177.64 207.96 C 178.49 208.09 179.29 207.50 179.41 206.66 L 179.56 205.70 C 179.68 204.85 179.10 204.06 178.25 203.93 C 177.40 203.80 176.61 204.39 176.48 205.24 Z M 176.35 206.19 L 176.17 207.33 C 176.04 208.17 176.62 208.96 177.47 209.09 C 178.31 209.22 179.10 208.64 179.23 207.79 L 179.41 206.66 C 179.54 205.81 178.96 205.02 178.11 204.89 C 177.27 204.76 176.48 205.34 176.35 206.19 Z M 176.19 207.27 L 175.98 208.38 C 175.82 209.21 176.36 210.02 177.20 210.18 C 178.03 210.34 178.84 209.80 179.00 208.96 L 179.21 207.85 C 179.37 207.02 178.83 206.21 177.99 206.05 C 177.16 205.89 176.35 206.43 176.19 207.27 Z M 176.03 208.21 L 175.74 209.11 C 175.48 209.91 175.93 210.77 176.73 211.03 C 177.54 211.29 178.40 210.85 178.66 210.04 L 178.94 209.14 C 179.20 208.33 178.76 207.47 177.95 207.22 C 177.15 206.96 176.29 207.40 176.03 208.21 Z M 175.97 208.68 L 175.55 209.26 C 175.06 209.94 175.21 210.89 175.89 211.39 C 176.57 211.88 177.52 211.72 178.01 211.04 L 178.43 210.46 C 178.92 209.78 178.77 208.84 178.09 208.34 C 177.41 207.85 176.46 208.00 175.97 208.68 Z M 176.55 208.67 L 175.76 208.80 C 174.94 208.92 174.39 209.69 174.51 210.51 C 174.64 211.33 175.41 211.89 176.23 211.76 L 177.01 211.64 C 177.83 211.51 178.39 210.74 178.26 209.92 C 178.13 209.10 177.37 208.55 176.55 208.67 Z M 176.54 208.91 L 175.58 208.53 C 174.82 208.23 173.97 208.60 173.67 209.35 C 173.37 210.10 173.74 210.96 174.49 211.26 L 175.45 211.64 C 176.20 211.94 177.06 211.58 177.36 210.82 C 177.66 210.07 177.29 209.21 176.54 208.91 Z M 175.74 208.63 L 175.10 208.28 C 174.41 207.89 173.53 208.14 173.14 208.84 C 172.75 209.54 173.00 210.42 173.70 210.81 L 174.33 211.16 C 175.03 211.55 175.91 211.30 176.30 210.60 C 176.69 209.90 176.43 209.02 175.74 208.63 Z"
      fill="black"
      fill-rule="nonzero" /><path d="M 134.48 186.12 L 135.31 185.61 C 136.04 185.16 136.26 184.20 135.81 183.47 C 135.35 182.74 134.40 182.52 133.67 182.97 L 132.84 183.49 C 132.11 183.94 131.88 184.90 132.34 185.62 C 132.79 186.35 133.75 186.58 134.48 186.12 Z M 135.29 185.64 L 136.14 185.14 C 136.89 184.70 137.13 183.73 136.69 182.98 C 136.24 182.23 135.27 181.99 134.53 182.43 L 133.68 182.93 C 132.93 183.38 132.69 184.35 133.13 185.09 C 133.58 185.84 134.55 186.09 135.29 185.64 Z M 136.10 185.19 L 136.97 184.72 C 137.74 184.29 138.03 183.32 137.61 182.55 C 137.18 181.77 136.21 181.49 135.44 181.91 L 134.57 182.38 C 133.79 182.81 133.51 183.78 133.93 184.55 C 134.35 185.33 135.32 185.61 136.10 185.19 Z M 136.90 184.78 L 137.81 184.34 C 138.62 183.96 138.96 182.99 138.58 182.18 C 138.19 181.38 137.22 181.03 136.42 181.42 L 135.51 181.85 C 134.70 182.23 134.35 183.20 134.74 184.01 C 135.12 184.82 136.09 185.16 136.90 184.78 Z M 137.71 184.41 L 138.67 184.03 C 139.52 183.70 139.93 182.75 139.60 181.90 C 139.27 181.06 138.32 180.64 137.47 180.97 L 136.51 181.35 C 135.67 181.68 135.25 182.64 135.58 183.48 C 135.91 184.33 136.87 184.74 137.71 184.41 Z M 138.56 184.09 L 139.53 183.79 C 140.41 183.52 140.90 182.60 140.63 181.72 C 140.37 180.84 139.44 180.35 138.56 180.62 L 137.59 180.92 C 136.71 181.19 136.22 182.11 136.49 182.99 C 136.75 183.86 137.68 184.36 138.56 184.09 Z M 139.44 183.82 L 140.44 183.58 C 141.33 183.37 141.88 182.47 141.67 181.58 C 141.45 180.68 140.56 180.13 139.66 180.35 L 138.66 180.59 C 137.77 180.80 137.22 181.70 137.43 182.59 C 137.64 183.49 138.54 184.04 139.44 183.82 Z M 140.37 183.60 L 141.38 183.40 C 142.29 183.23 142.88 182.35 142.70 181.45 C 142.53 180.55 141.65 179.96 140.75 180.13 L 139.74 180.33 C 138.83 180.50 138.24 181.38 138.42 182.28 C 138.59 183.18 139.47 183.78 140.37 183.60 Z M 141.33 183.42 L 142.33 183.25 C 143.24 183.11 143.85 182.25 143.71 181.34 C 143.56 180.43 142.70 179.81 141.79 179.96 L 140.80 180.12 C 139.89 180.27 139.27 181.13 139.42 182.04 C 139.57 182.95 140.42 183.56 141.33 183.42 Z M 142.30 183.26 L 143.25 183.12 C 144.16 182.99 144.79 182.14 144.66 181.23 C 144.53 180.31 143.68 179.68 142.76 179.81 L 141.82 179.95 C 140.90 180.08 140.27 180.93 140.40 181.85 C 140.54 182.76 141.38 183.39 142.30 183.26 Z M 143.24 183.13 L 144.26 182.98 C 145.18 182.85 145.81 182.01 145.68 181.09 C 145.55 180.17 144.71 179.54 143.79 179.66 L 142.77 179.81 C 141.85 179.94 141.22 180.79 141.35 181.70 C 141.48 182.62 142.32 183.26 143.24 183.13 Z M 144.27 182.98 L 145.31 182.83 C 146.22 182.70 146.86 181.84 146.72 180.93 C 146.59 180.01 145.73 179.38 144.82 179.51 L 143.78 179.66 C 142.86 179.80 142.23 180.65 142.37 181.57 C 142.50 182.48 143.35 183.12 144.27 182.98 Z M 145.32 182.83 L 146.27 182.68 C 147.19 182.54 147.82 181.68 147.68 180.77 C 147.53 179.85 146.68 179.22 145.76 179.37 L 144.80 179.51 C 143.89 179.66 143.26 180.51 143.40 181.43 C 143.55 182.35 144.40 182.97 145.32 182.83 Z M 146.29 182.68 L 147.22 182.53 C 148.13 182.38 148.75 181.51 148.60 180.60 C 148.45 179.68 147.58 179.06 146.67 179.21 L 145.74 179.37 C 144.83 179.52 144.21 180.38 144.36 181.30 C 144.51 182.21 145.38 182.83 146.29 182.68 Z M 147.23 182.52 L 148.15 182.36 C 149.07 182.20 149.68 181.33 149.52 180.42 C 149.36 179.51 148.49 178.89 147.57 179.05 L 146.65 179.22 C 145.74 179.38 145.13 180.25 145.29 181.16 C 145.45 182.07 146.32 182.68 147.23 182.52 Z M 148.16 182.36 L 149.11 182.19 C 150.02 182.02 150.62 181.15 150.46 180.24 C 150.29 179.32 149.42 178.72 148.50 178.89 L 147.56 179.06 C 146.65 179.22 146.05 180.10 146.21 181.01 C 146.38 181.92 147.25 182.53 148.16 182.36 Z M 149.11 182.19 L 150.09 182.00 C 151.00 181.84 151.61 180.96 151.44 180.05 C 151.27 179.14 150.39 178.54 149.48 178.70 L 148.50 178.89 C 147.59 179.06 146.99 179.93 147.16 180.84 C 147.33 181.75 148.20 182.36 149.11 182.19 Z M 150.09 182.00 L 151.11 181.82 C 152.02 181.65 152.62 180.77 152.46 179.86 C 152.29 178.95 151.41 178.35 150.50 178.52 L 149.48 178.71 C 148.57 178.87 147.97 179.75 148.14 180.66 C 148.31 181.57 149.18 182.17 150.09 182.00 Z M 151.10 181.82 L 152.10 181.64 C 153.02 181.47 153.62 180.60 153.46 179.69 C 153.29 178.78 152.42 178.17 151.51 178.34 L 150.51 178.52 C 149.60 178.68 148.99 179.55 149.16 180.46 C 149.32 181.38 150.19 181.98 151.10 181.82 Z M 152.10 181.64 L 153.02 181.48 C 153.93 181.32 154.54 180.45 154.38 179.54 C 154.22 178.62 153.35 178.01 152.44 178.17 L 151.52 178.34 C 150.61 178.50 150.00 179.36 150.16 180.28 C 150.32 181.19 151.18 181.80 152.10 181.64 Z M 153.02 181.47 L 153.97 181.31 C 154.89 181.15 155.50 180.29 155.34 179.38 C 155.18 178.46 154.32 177.85 153.41 178.01 L 152.45 178.17 C 151.54 178.33 150.92 179.20 151.08 180.11 C 151.24 181.02 152.10 181.63 153.02 181.47 Z M 153.97 181.31 L 154.97 181.14 C 155.88 180.98 156.49 180.12 156.34 179.21 C 156.18 178.30 155.32 177.68 154.40 177.84 L 153.41 178.01 C 152.50 178.17 151.89 179.03 152.04 179.94 C 152.20 180.85 153.06 181.46 153.97 181.31 Z M 154.97 181.14 L 156.01 180.96 C 156.92 180.80 157.53 179.94 157.37 179.03 C 157.22 178.12 156.35 177.51 155.44 177.66 L 154.40 177.84 C 153.49 178.00 152.88 178.86 153.04 179.77 C 153.19 180.68 154.06 181.29 154.97 181.14 Z M 156.01 180.96 L 157.02 180.78 C 157.93 180.63 158.54 179.76 158.38 178.85 C 158.22 177.94 157.36 177.33 156.45 177.49 L 155.44 177.67 C 154.53 177.82 153.92 178.69 154.08 179.60 C 154.24 180.50 155.10 181.11 156.01 180.96 Z M 157.02 180.78 L 157.96 180.62 C 158.87 180.46 159.48 179.59 159.32 178.69 C 159.16 177.78 158.30 177.17 157.39 177.33 L 156.45 177.49 C 155.54 177.65 154.93 178.52 155.09 179.42 C 155.25 180.33 156.11 180.94 157.02 180.78 Z M 157.96 180.61 L 158.94 180.44 C 159.84 180.28 160.45 179.42 160.29 178.51 C 160.13 177.61 159.27 177.00 158.36 177.16 L 157.39 177.33 C 156.48 177.49 155.88 178.35 156.04 179.26 C 156.20 180.17 157.06 180.77 157.96 180.61 Z M 158.94 180.44 L 159.93 180.27 C 160.83 180.11 161.44 179.24 161.28 178.34 C 161.12 177.44 160.26 176.83 159.35 176.99 L 158.36 177.16 C 157.45 177.32 156.85 178.19 157.01 179.09 C 157.17 180.00 158.03 180.60 158.94 180.44 Z M 159.93 180.26 L 160.94 180.09 C 161.84 179.93 162.44 179.06 162.28 178.16 C 162.12 177.26 161.26 176.66 160.36 176.81 L 159.35 176.99 C 158.45 177.15 157.84 178.01 158.00 178.92 C 158.16 179.82 159.02 180.42 159.93 180.26 Z M 160.94 180.08 L 161.96 179.90 C 162.86 179.74 163.46 178.88 163.30 177.98 C 163.14 177.08 162.28 176.48 161.38 176.64 L 160.36 176.82 C 159.46 176.98 158.86 177.84 159.02 178.74 C 159.17 179.64 160.03 180.24 160.94 180.08 Z M 161.95 179.90 L 162.95 179.73 C 163.85 179.57 164.45 178.71 164.29 177.81 C 164.13 176.91 163.27 176.31 162.37 176.47 L 161.38 176.64 C 160.48 176.80 159.88 177.66 160.04 178.56 C 160.20 179.46 161.05 180.06 161.95 179.90 Z M 162.95 179.72 L 163.91 179.55 C 164.81 179.40 165.41 178.54 165.26 177.64 C 165.10 176.74 164.24 176.14 163.34 176.30 L 162.37 176.47 C 161.48 176.63 160.87 177.48 161.03 178.38 C 161.19 179.28 162.05 179.88 162.95 179.72 Z M 163.91 179.55 L 164.89 179.38 C 165.78 179.22 166.38 178.37 166.23 177.47 C 166.07 176.57 165.22 175.97 164.32 176.13 L 163.34 176.30 C 162.45 176.46 161.85 177.31 162.00 178.21 C 162.16 179.11 163.02 179.71 163.91 179.55 Z M 164.89 179.38 L 165.87 179.21 C 166.76 179.05 167.36 178.20 167.21 177.30 C 167.05 176.40 166.20 175.80 165.30 175.96 L 164.32 176.13 C 163.42 176.29 162.82 177.14 162.98 178.04 C 163.14 178.94 163.99 179.54 164.89 179.38 Z M 165.87 179.20 L 166.86 179.03 C 167.75 178.87 168.35 178.02 168.19 177.13 C 168.04 176.23 167.19 175.63 166.29 175.79 L 165.30 175.96 C 164.41 176.12 163.81 176.97 163.96 177.87 C 164.12 178.76 164.97 179.36 165.87 179.20 Z M 166.86 179.03 L 167.86 178.85 C 168.75 178.69 169.35 177.84 169.19 176.95 C 169.04 176.06 168.19 175.46 167.29 175.62 L 166.29 175.79 C 165.40 175.95 164.80 176.80 164.96 177.69 C 165.12 178.59 165.97 179.18 166.86 179.03 Z M 167.86 178.85 L 168.86 178.67 C 169.75 178.51 170.34 177.66 170.19 176.77 C 170.03 175.88 169.18 175.29 168.29 175.44 L 167.29 175.62 C 166.40 175.78 165.81 176.63 165.96 177.52 C 166.12 178.41 166.97 179.00 167.86 178.85 Z M 168.86 178.67 L 169.83 178.50 C 170.72 178.34 171.31 177.49 171.15 176.60 C 170.99 175.71 170.14 175.12 169.25 175.27 L 168.29 175.45 C 167.40 175.60 166.80 176.45 166.96 177.34 C 167.12 178.23 167.97 178.83 168.86 178.67 Z M 169.83 178.49 L 170.80 178.32 C 171.69 178.16 172.28 177.31 172.12 176.42 C 171.96 175.54 171.12 174.95 170.23 175.10 L 169.25 175.28 C 168.36 175.44 167.77 176.28 167.93 177.17 C 168.09 178.06 168.94 178.65 169.83 178.49 Z M 170.80 178.31 L 171.79 178.14 C 172.67 177.98 173.26 177.13 173.10 176.25 C 172.95 175.36 172.10 174.77 171.21 174.93 L 170.23 175.11 C 169.34 175.27 168.75 176.11 168.91 177.00 C 169.07 177.88 169.92 178.47 170.80 178.31 Z M 171.79 178.14 L 172.78 177.96 C 173.66 177.80 174.25 176.95 174.09 176.07 C 173.93 175.19 173.09 174.60 172.20 174.76 L 171.21 174.93 C 170.33 175.09 169.74 175.94 169.90 176.82 C 170.06 177.71 170.90 178.29 171.79 178.14 Z M 172.78 177.95 L 173.77 177.78 C 174.65 177.62 175.24 176.77 175.08 175.89 C 174.92 175.01 174.08 174.42 173.20 174.58 L 172.20 174.76 C 171.32 174.92 170.73 175.76 170.89 176.64 C 171.05 177.53 171.90 178.11 172.78 177.95 Z M 173.77 177.77 L 174.77 177.59 C 175.65 177.43 176.24 176.59 176.08 175.71 C 175.92 174.83 175.08 174.25 174.20 174.40 L 173.20 174.58 C 172.32 174.74 171.73 175.58 171.89 176.47 C 172.05 177.35 172.89 177.93 173.77 177.77 Z M 174.77 177.59 L 175.76 177.41 C 176.64 177.25 177.22 176.41 177.06 175.53 C 176.91 174.66 176.07 174.07 175.19 174.23 L 174.20 174.41 C 173.32 174.57 172.73 175.41 172.89 176.29 C 173.05 177.16 173.89 177.75 174.77 177.59 Z M 175.76 177.41 L 176.75 177.23 C 177.62 177.07 178.21 176.23 178.05 175.36 C 177.89 174.48 177.05 173.90 176.18 174.06 L 175.19 174.23 C 174.31 174.39 173.73 175.23 173.89 176.11 C 174.04 176.98 174.88 177.57 175.76 177.41 Z M 176.74 177.23 L 177.73 177.05 C 178.61 176.89 179.19 176.06 179.03 175.18 C 178.87 174.31 178.04 173.73 177.16 173.88 L 176.18 174.06 C 175.30 174.22 174.72 175.05 174.88 175.93 C 175.03 176.80 175.87 177.38 176.74 177.23 Z M 177.73 177.05 L 178.71 176.87 C 179.59 176.71 180.17 175.88 180.01 175.01 C 179.86 174.14 179.02 173.56 178.15 173.71 L 177.17 173.89 C 176.29 174.04 175.71 174.87 175.87 175.75 C 176.02 176.62 176.86 177.20 177.73 177.05 Z M 178.71 176.87 L 179.70 176.69 C 180.57 176.54 181.15 175.71 180.99 174.84 C 180.84 173.97 180.01 173.39 179.14 173.54 L 178.15 173.71 C 177.28 173.87 176.70 174.70 176.86 175.57 C 177.01 176.44 177.84 177.02 178.71 176.87 Z M 179.69 176.69 L 180.67 176.52 C 181.54 176.37 182.12 175.54 181.97 174.67 C 181.82 173.80 180.99 173.22 180.12 173.37 L 179.14 173.54 C 178.27 173.70 177.69 174.52 177.84 175.39 C 178.00 176.26 178.82 176.84 179.69 176.69 Z M 180.67 176.51 L 181.65 176.34 C 182.52 176.19 183.10 175.37 182.95 174.50 C 182.80 173.64 181.97 173.06 181.11 173.21 L 180.13 173.38 C 179.26 173.52 178.68 174.35 178.83 175.22 C 178.98 176.08 179.80 176.66 180.67 176.51 Z M 181.65 176.34 L 182.65 176.17 C 183.52 176.02 184.10 175.20 183.95 174.34 C 183.80 173.47 182.98 172.89 182.12 173.04 L 181.11 173.21 C 180.25 173.36 179.67 174.18 179.81 175.04 C 179.96 175.91 180.78 176.49 181.65 176.34 Z M 182.65 176.16 L 183.65 176.00 C 184.52 175.85 185.10 175.03 184.95 174.17 C 184.81 173.31 183.99 172.73 183.13 172.87 L 182.12 173.04 C 181.26 173.19 180.68 174.00 180.83 174.87 C 180.97 175.73 181.79 176.31 182.65 176.16 Z M 183.65 175.99 L 184.65 175.82 C 185.51 175.68 186.09 174.87 185.94 174.01 C 185.80 173.15 184.98 172.57 184.12 172.71 L 183.13 172.88 C 182.27 173.02 181.69 173.84 181.83 174.70 C 181.98 175.56 182.79 176.14 183.65 175.99 Z M 184.65 175.82 L 185.63 175.65 C 186.49 175.51 187.07 174.70 186.92 173.84 C 186.78 172.98 185.97 172.41 185.11 172.55 L 184.13 172.72 C 183.27 172.86 182.69 173.67 182.83 174.53 C 182.98 175.38 183.79 175.96 184.65 175.82 Z M 185.63 175.65 L 186.61 175.48 C 187.46 175.34 188.04 174.53 187.90 173.68 C 187.75 172.82 186.94 172.25 186.09 172.39 L 185.11 172.55 C 184.26 172.70 183.68 173.51 183.83 174.36 C 183.97 175.22 184.78 175.79 185.63 175.65 Z M 186.61 175.48 L 187.57 175.32 C 188.42 175.17 189.00 174.36 188.85 173.51 C 188.71 172.66 187.90 172.09 187.05 172.23 L 186.09 172.40 C 185.24 172.54 184.66 173.35 184.81 174.20 C 184.95 175.05 185.76 175.62 186.61 175.48 Z M 187.58 175.31 L 188.56 175.14 C 189.41 174.99 189.97 174.19 189.83 173.34 C 189.68 172.49 188.88 171.92 188.03 172.07 L 187.05 172.24 C 186.20 172.38 185.63 173.19 185.78 174.04 C 185.92 174.89 186.73 175.46 187.58 175.31 Z M 188.56 175.13 L 189.56 174.96 C 190.40 174.81 190.97 174.01 190.82 173.16 C 190.67 172.32 189.87 171.75 189.02 171.90 L 188.03 172.08 C 187.18 172.22 186.62 173.03 186.76 173.87 C 186.91 174.72 187.72 175.28 188.56 175.13 Z M 189.56 174.95 L 190.55 174.78 C 191.39 174.63 191.95 173.83 191.80 172.99 C 191.65 172.15 190.85 171.58 190.01 171.73 L 189.02 171.91 C 188.18 172.06 187.62 172.86 187.77 173.70 C 187.92 174.54 188.72 175.10 189.56 174.95 Z M 190.55 174.77 L 191.53 174.60 C 192.36 174.45 192.92 173.65 192.77 172.81 C 192.62 171.97 191.82 171.42 190.99 171.57 L 190.01 171.74 C 189.17 171.89 188.61 172.69 188.76 173.53 C 188.91 174.36 189.71 174.92 190.55 174.77 Z M 191.53 174.59 L 192.50 174.42 C 193.33 174.27 193.89 173.47 193.74 172.64 C 193.59 171.80 192.79 171.25 191.96 171.40 L 190.99 171.57 C 190.15 171.72 189.60 172.52 189.75 173.35 C 189.89 174.19 190.69 174.74 191.53 174.59 Z M 192.50 174.41 L 193.48 174.24 C 194.31 174.09 194.86 173.29 194.71 172.46 C 194.56 171.63 193.77 171.08 192.94 171.23 L 191.96 171.40 C 191.13 171.55 190.58 172.35 190.73 173.18 C 190.88 174.01 191.67 174.56 192.50 174.41 Z M 193.47 174.23 L 194.47 174.05 C 195.30 173.91 195.85 173.12 195.70 172.29 C 195.55 171.46 194.76 170.91 193.94 171.06 L 192.94 171.24 C 192.11 171.38 191.56 172.17 191.71 173.00 C 191.86 173.83 192.65 174.38 193.47 174.23 Z M 194.47 174.05 L 195.49 173.87 C 196.31 173.72 196.86 172.94 196.72 172.11 C 196.57 171.29 195.79 170.74 194.96 170.88 L 193.94 171.06 C 193.12 171.21 192.57 172.00 192.71 172.82 C 192.86 173.64 193.64 174.19 194.47 174.05 Z M 195.49 173.86 L 196.50 173.68 C 197.32 173.54 197.87 172.76 197.73 171.94 C 197.58 171.12 196.80 170.57 195.98 170.71 L 194.97 170.89 C 194.15 171.03 193.60 171.81 193.74 172.63 C 193.88 173.46 194.67 174.00 195.49 173.86 Z M 196.50 173.68 L 197.50 173.50 C 198.31 173.36 198.86 172.59 198.72 171.77 C 198.58 170.95 197.80 170.41 196.98 170.55 L 195.99 170.72 C 195.17 170.86 194.62 171.64 194.76 172.45 C 194.90 173.27 195.68 173.82 196.50 173.68 Z M 197.49 173.50 L 198.46 173.33 C 199.28 173.19 199.82 172.42 199.69 171.61 C 199.55 170.80 198.77 170.25 197.96 170.39 L 196.99 170.55 C 196.18 170.69 195.63 171.46 195.77 172.28 C 195.91 173.09 196.68 173.64 197.49 173.50 Z M 198.46 173.33 L 199.39 173.17 C 200.20 173.03 200.75 172.27 200.62 171.46 C 200.48 170.65 199.71 170.10 198.90 170.24 L 197.97 170.39 C 197.16 170.53 196.61 171.30 196.75 172.11 C 196.88 172.92 197.65 173.46 198.46 173.33 Z M 199.39 173.16 L 200.40 173.00 C 201.21 172.86 201.76 172.10 201.63 171.30 C 201.49 170.49 200.73 169.94 199.93 170.08 L 198.91 170.24 C 198.10 170.37 197.56 171.14 197.69 171.94 C 197.82 172.75 198.58 173.30 199.39 173.16 Z M 200.40 172.99 L 201.44 172.83 C 202.24 172.70 202.79 171.94 202.66 171.14 C 202.53 170.34 201.78 169.79 200.97 169.92 L 199.93 170.08 C 199.13 170.21 198.58 170.96 198.71 171.77 C 198.84 172.57 199.59 173.12 200.40 172.99 Z M 201.43 172.82 L 202.41 172.67 C 203.21 172.55 203.76 171.80 203.64 171.00 C 203.52 170.20 202.77 169.65 201.97 169.77 L 200.98 169.92 C 200.18 170.04 199.63 170.79 199.76 171.59 C 199.88 172.39 200.63 172.94 201.43 172.82 Z M 202.40 172.66 L 203.35 172.52 C 204.15 172.40 204.70 171.66 204.58 170.87 C 204.46 170.07 203.72 169.52 202.93 169.64 L 201.98 169.78 C 201.18 169.89 200.63 170.64 200.75 171.43 C 200.87 172.23 201.61 172.78 202.40 172.66 Z M 203.34 172.52 L 204.27 172.39 C 205.06 172.27 205.61 171.54 205.50 170.74 C 205.39 169.95 204.65 169.40 203.86 169.51 L 202.93 169.64 C 202.14 169.75 201.59 170.49 201.70 171.28 C 201.81 172.08 202.55 172.63 203.34 172.52 Z M 204.26 172.38 L 205.26 172.24 C 206.06 172.14 206.61 171.41 206.50 170.62 C 206.39 169.82 205.67 169.27 204.87 169.38 L 203.87 169.51 C 203.08 169.62 202.52 170.35 202.63 171.14 C 202.74 171.93 203.47 172.49 204.26 172.38 Z M 205.26 172.24 L 206.26 172.11 C 207.05 172.01 207.61 171.28 207.50 170.49 C 207.40 169.70 206.67 169.14 205.88 169.25 L 204.88 169.38 C 204.09 169.48 203.53 170.21 203.64 171.00 C 203.74 171.79 204.47 172.35 205.26 172.24 Z M 206.26 172.11 L 207.25 171.98 C 208.04 171.88 208.59 171.16 208.49 170.37 C 208.39 169.58 207.67 169.02 206.88 169.12 L 205.89 169.25 C 205.10 169.35 204.54 170.07 204.64 170.86 C 204.74 171.65 205.47 172.21 206.26 172.11 Z M 207.25 171.98 L 208.22 171.85 C 209.01 171.75 209.56 171.03 209.46 170.24 C 209.36 169.45 208.64 168.89 207.85 169.00 L 206.88 169.12 C 206.09 169.22 205.53 169.95 205.63 170.74 C 205.74 171.52 206.46 172.08 207.25 171.98 Z M 208.22 171.85 L 209.22 171.72 C 210.01 171.62 210.56 170.89 210.46 170.11 C 210.36 169.32 209.63 168.76 208.84 168.87 L 207.85 169.00 C 207.06 169.10 206.50 169.82 206.61 170.61 C 206.71 171.40 207.43 171.96 208.22 171.85 Z M 209.22 171.72 L 210.22 171.59 C 211.01 171.48 211.57 170.76 211.46 169.97 C 211.35 169.18 210.63 168.62 209.84 168.73 L 208.84 168.86 C 208.05 168.97 207.50 169.70 207.60 170.49 C 207.71 171.28 208.43 171.83 209.22 171.72 Z M 210.23 171.59 L 211.21 171.46 C 212.00 171.35 212.56 170.62 212.45 169.83 C 212.34 169.04 211.61 168.48 210.82 168.59 L 209.83 168.73 C 209.04 168.83 208.49 169.56 208.60 170.35 C 208.71 171.15 209.43 171.70 210.23 171.59 Z M 211.21 171.46 L 212.19 171.33 C 212.98 171.22 213.54 170.49 213.43 169.69 C 213.32 168.90 212.59 168.34 211.79 168.45 L 210.82 168.59 C 210.02 168.70 209.47 169.43 209.58 170.22 C 209.69 171.02 210.42 171.57 211.21 171.46 Z M 212.19 171.33 L 212.44 171.29 C 213.23 171.19 213.79 170.45 213.68 169.66 C 213.57 168.86 212.83 168.31 212.04 168.42 L 211.79 168.45 C 211.00 168.56 210.44 169.29 210.55 170.09 C 210.66 170.88 211.40 171.44 212.19 171.33 Z"
      fill="black"
      fill-rule="nonzero" /></svg>