<svg xmlns="http://www.w3.org/2000/svg" width="300" height="300" viewBox="0 0 300 300">
<path d="M 118.58 124.76 L 117.44 124.13 C 116.64 123.69 115.64 123.98 115.20 124.78 C 114.76 125.57 115.05 126.58 115.84 127.02 L 116.99 127.64 C 117.78 128.08 118.79 127.79 119.23 127.00 C 119.66 126.20 119.37 125.20 118.58 124.76 Z M 117.21 124.02 L 116.42 123.73 C 115.56 123.42 114.61 123.86 114.30 124.72 C 113.99 125.57 114.43 126.52 115.29 126.83 L 116.07 127.12 C 116.93 127.43 117.88 126.99 118.19 126.14 C 118.50 125.28 118.06 124.33 117.21 124.02 Z M 114.35 124.61 L 114.21 124.92 C 113.84 125.75 114.22 126.72 115.05 127.09 C 115.88 127.46 116.85 127.09 117.22 126.25 L 117.35 125.95 C 117.72 125.12 117.35 124.15 116.52 123.78 C 115.69 123.41 114.72 123.78 114.35 124.61 Z M 114.27 126.35 L 114.70 127.15 C 115.12 127.95 116.11 128.25 116.90 127.83 C 117.70 127.41 118.00 126.42 117.58 125.63 L 117.16 124.82 C 116.74 124.03 115.75 123.72 114.95 124.14 C 114.16 124.56 113.85 125.55 114.27 126.35 Z M 114.84 127.34 L 115.69 128.51 C 116.22 129.23 117.23 129.38 117.95 128.86 C 118.67 128.33 118.83 127.32 118.30 126.60 L 117.44 125.43 C 116.92 124.71 115.91 124.56 115.19 125.09 C 114.47 125.61 114.31 126.62 114.84 127.34 Z M 115.76 128.57 L 116.35 129.29 C 116.91 129.97 117.91 130.07 118.59 129.51 C 119.28 128.95 119.38 127.95 118.82 127.26 L 118.23 126.54 C 117.67 125.86 116.67 125.76 115.98 126.32 C 115.30 126.88 115.20 127.88 115.76 128.57 Z M 116.39 129.30 L 117.04 130.06 C 117.60 130.72 118.60 130.80 119.26 130.23 C 119.92 129.67 120.00 128.67 119.43 128.01 L 118.78 127.25 C 118.22 126.59 117.22 126.51 116.56 127.08 C 115.90 127.64 115.82 128.64 116.39 129.30 Z M 117.07 130.06 L 117.75 130.84 C 118.32 131.49 119.30 131.55 119.95 130.98 C 120.59 130.42 120.65 129.44 120.09 128.79 L 119.40 128.01 C 118.84 127.37 117.86 127.30 117.21 127.87 C 116.57 128.44 116.50 129.42 117.07 130.06 Z M 117.78 130.84 L 118.47 131.61 C 119.03 132.24 120.00 132.30 120.63 131.73 C 121.26 131.17 121.32 130.20 120.75 129.57 L 120.06 128.80 C 119.50 128.17 118.53 128.11 117.90 128.67 C 117.27 129.24 117.21 130.20 117.78 130.84 Z M 118.48 131.60 L 119.15 132.34 C 119.70 132.96 120.66 133.02 121.28 132.46 C 121.90 131.90 121.96 130.95 121.40 130.33 L 120.74 129.58 C 120.18 128.96 119.23 128.91 118.60 129.46 C 117.98 130.02 117.93 130.97 118.48 131.60 Z M 119.16 132.32 L 119.89 133.15 C 120.44 133.76 121.38 133.82 121.99 133.27 C 122.61 132.73 122.67 131.79 122.12 131.17 L 121.39 130.34 C 120.84 129.73 119.90 129.67 119.28 130.22 C 118.67 130.76 118.61 131.71 119.16 132.32 Z M 119.90 133.13 L 120.57 133.90 C 121.11 134.51 122.04 134.57 122.65 134.04 C 123.27 133.50 123.33 132.57 122.79 131.96 L 122.11 131.19 C 121.58 130.57 120.65 130.51 120.03 131.05 C 119.42 131.59 119.36 132.52 119.90 133.13 Z M 120.58 133.88 L 121.21 134.61 C 121.74 135.22 122.66 135.28 123.27 134.75 C 123.88 134.23 123.94 133.31 123.41 132.70 L 122.78 131.97 C 122.25 131.37 121.33 131.30 120.73 131.83 C 120.12 132.36 120.05 133.28 120.58 133.88 Z M 121.22 134.60 L 121.83 135.30 C 122.35 135.90 123.26 135.97 123.86 135.45 C 124.46 134.93 124.53 134.02 124.01 133.42 L 123.40 132.71 C 122.88 132.11 121.97 132.05 121.37 132.57 C 120.77 133.09 120.70 134.00 121.22 134.60 Z M 121.84 135.29 L 121.99 135.47 C 122.51 136.07 123.41 136.13 124.01 135.62 C 124.60 135.10 124.67 134.20 124.15 133.60 L 124.00 133.42 C 123.49 132.83 122.58 132.76 121.99 133.28 C 121.39 133.79 121.32 134.69 121.84 135.29 Z"
      fill="black"
      fill-rule="nonzero" /><path d="M 112.59 153.74 L 111.37 154.22 C 110.58 154.52 110.19 155.42 110.50 156.21 C 110.81 157.00 111.70 157.39 112.49 157.08 L 113.71 156.60 C 114.50 156.30 114.89 155.40 114.58 154.61 C 114.27 153.82 113.38 153.43 112.59 153.74 Z M 111.19 154.29 L 110.40 154.73 C 109.65 155.13 109.38 156.07 109.78 156.82 C 110.19 157.57 111.13 157.84 111.88 157.43 L 112.67 157.00 C 113.42 156.60 113.69 155.66 113.29 154.91 C 112.88 154.16 111.94 153.89 111.19 154.29 Z M 109.60 156.18 L 109.62 156.52 C 109.68 157.37 110.41 158.01 111.26 157.96 C 112.11 157.90 112.76 157.17 112.70 156.31 L 112.68 155.98 C 112.62 155.13 111.89 154.48 111.04 154.54 C 110.19 154.60 109.54 155.33 109.60 156.18 Z M 110.70 157.88 L 111.51 158.14 C 112.32 158.39 113.19 157.94 113.44 157.13 C 113.69 156.32 113.24 155.45 112.43 155.20 L 111.62 154.95 C 110.81 154.70 109.95 155.15 109.69 155.96 C 109.44 156.77 109.89 157.63 110.70 157.88 Z M 111.72 158.18 L 113.07 158.40 C 113.90 158.54 114.69 157.98 114.83 157.14 C 114.97 156.31 114.40 155.53 113.57 155.39 L 112.22 155.16 C 111.39 155.02 110.60 155.59 110.47 156.42 C 110.33 157.25 110.89 158.04 111.72 158.18 Z M 113.11 158.39 L 114.06 158.53 C 114.89 158.65 115.66 158.07 115.77 157.24 C 115.89 156.42 115.32 155.65 114.49 155.53 L 113.54 155.40 C 112.71 155.28 111.94 155.85 111.82 156.68 C 111.71 157.51 112.28 158.27 113.11 158.39 Z M 114.07 158.51 L 115.03 158.64 C 115.85 158.76 116.60 158.18 116.72 157.37 C 116.83 156.55 116.26 155.79 115.44 155.68 L 114.48 155.55 C 113.66 155.44 112.91 156.01 112.79 156.83 C 112.68 157.64 113.25 158.40 114.07 158.51 Z M 115.04 158.62 L 116.05 158.76 C 116.85 158.87 117.60 158.30 117.71 157.49 C 117.81 156.69 117.25 155.94 116.44 155.83 L 115.43 155.70 C 114.62 155.59 113.88 156.16 113.77 156.97 C 113.66 157.77 114.23 158.52 115.04 158.62 Z M 116.05 158.74 L 117.09 158.88 C 117.89 158.99 118.62 158.42 118.73 157.63 C 118.83 156.83 118.27 156.10 117.47 155.99 L 116.43 155.85 C 115.64 155.75 114.90 156.31 114.80 157.11 C 114.69 157.90 115.25 158.64 116.05 158.74 Z M 117.09 158.86 L 117.99 158.98 C 118.78 159.08 119.50 158.53 119.61 157.74 C 119.71 156.95 119.15 156.23 118.37 156.13 L 117.47 156.01 C 116.68 155.90 115.96 156.46 115.85 157.25 C 115.75 158.04 116.31 158.76 117.09 158.86 Z"
      fill="black"
      fill-rule="nonzero" /><path d="M 109.96 192.20 L 109.08 192.52 C 108.27 192.82 107.86 193.72 108.16 194.54 C 108.46 195.35 109.36 195.76 110.17 195.46 L 111.05 195.14 C 111.86 194.84 112.28 193.94 111.98 193.13 C 111.68 192.31 110.77 191.90 109.96 192.20 Z M 109.03 192.52 L 108.13 192.88 C 107.32 193.21 106.92 194.14 107.25 194.95 C 107.58 195.77 108.50 196.16 109.32 195.83 L 110.22 195.47 C 111.04 195.14 111.43 194.21 111.10 193.40 C 110.78 192.58 109.85 192.19 109.03 192.52 Z M 108.05 192.89 L 107.09 193.33 C 106.29 193.71 105.93 194.67 106.31 195.48 C 106.68 196.29 107.64 196.64 108.45 196.26 L 109.40 195.82 C 110.21 195.44 110.56 194.49 110.19 193.68 C 109.81 192.87 108.85 192.52 108.05 192.89 Z M 106.99 193.37 L 105.91 193.96 C 105.12 194.39 104.83 195.38 105.26 196.17 C 105.70 196.96 106.69 197.25 107.48 196.82 L 108.56 196.23 C 109.35 195.80 109.64 194.81 109.20 194.02 C 108.77 193.23 107.78 192.94 106.99 193.37 Z M 105.80 194.02 L 104.80 194.68 C 104.04 195.17 103.83 196.19 104.33 196.94 C 104.82 197.70 105.84 197.91 106.59 197.41 L 107.59 196.76 C 108.35 196.26 108.56 195.25 108.06 194.49 C 107.57 193.74 106.55 193.52 105.80 194.02 Z M 104.56 194.86 L 103.99 195.40 C 103.34 196.03 103.31 197.07 103.94 197.72 C 104.56 198.38 105.60 198.40 106.25 197.78 L 106.83 197.23 C 107.48 196.61 107.51 195.57 106.88 194.91 C 106.26 194.26 105.22 194.23 104.56 194.86 Z M 103.65 197.30 L 103.78 197.59 C 104.18 198.40 105.16 198.74 105.97 198.35 C 106.79 197.96 107.13 196.97 106.74 196.16 L 106.60 195.88 C 106.20 195.06 105.22 194.72 104.41 195.11 C 103.59 195.51 103.25 196.49 103.65 197.30 Z M 105.28 198.51 L 106.09 198.50 C 106.99 198.49 107.72 197.74 107.70 196.84 C 107.69 195.93 106.95 195.21 106.04 195.22 L 105.24 195.23 C 104.33 195.25 103.61 195.99 103.62 196.90 C 103.63 197.80 104.38 198.53 105.28 198.51 Z M 106.41 198.46 L 107.65 198.20 C 108.53 198.00 109.10 197.13 108.91 196.25 C 108.71 195.36 107.84 194.80 106.96 194.99 L 105.72 195.26 C 104.83 195.45 104.27 196.32 104.46 197.21 C 104.65 198.09 105.53 198.66 106.41 198.46 Z M 107.81 198.15 L 108.92 197.79 C 109.78 197.51 110.25 196.58 109.97 195.72 C 109.69 194.86 108.77 194.39 107.91 194.67 L 106.79 195.04 C 105.93 195.32 105.47 196.24 105.75 197.10 C 106.03 197.96 106.95 198.43 107.81 198.15 Z M 109.03 197.74 L 109.87 197.40 C 110.71 197.07 111.11 196.12 110.78 195.28 C 110.44 194.44 109.49 194.04 108.65 194.37 L 107.81 194.72 C 106.97 195.05 106.56 196.00 106.90 196.84 C 107.24 197.68 108.19 198.08 109.03 197.74 Z M 109.94 197.37 L 110.81 196.97 C 111.63 196.60 111.99 195.63 111.62 194.81 C 111.24 194.00 110.28 193.64 109.46 194.01 L 108.59 194.41 C 107.77 194.78 107.41 195.75 107.78 196.56 C 108.16 197.38 109.12 197.74 109.94 197.37 Z M 110.86 196.94 L 111.77 196.49 C 112.57 196.08 112.89 195.11 112.49 194.31 C 112.09 193.51 111.12 193.19 110.32 193.59 L 109.41 194.04 C 108.61 194.44 108.29 195.41 108.69 196.21 C 109.09 197.02 110.06 197.34 110.86 196.94 Z M 111.81 196.46 L 112.74 195.96 C 113.53 195.54 113.82 194.56 113.40 193.77 C 112.98 192.99 112.00 192.69 111.22 193.11 L 110.28 193.61 C 109.49 194.03 109.20 195.01 109.62 195.80 C 110.04 196.58 111.02 196.88 111.81 196.46 Z M 112.77 195.94 L 113.74 195.39 C 114.51 194.96 114.78 193.98 114.35 193.20 C 113.91 192.43 112.93 192.15 112.16 192.59 L 111.19 193.13 C 110.42 193.57 110.14 194.55 110.58 195.32 C 111.01 196.10 112.00 196.37 112.77 195.94 Z M 113.75 195.37 L 114.55 194.91 C 115.31 194.47 115.57 193.49 115.13 192.72 C 114.68 191.96 113.70 191.70 112.94 192.14 L 112.14 192.61 C 111.38 193.05 111.12 194.03 111.56 194.79 C 112.01 195.56 112.99 195.82 113.75 195.37 Z M 114.56 194.90 L 115.37 194.41 C 116.13 193.96 116.38 192.98 115.93 192.23 C 115.48 191.47 114.50 191.23 113.74 191.67 L 112.93 192.16 C 112.17 192.61 111.93 193.59 112.37 194.34 C 112.82 195.10 113.80 195.34 114.56 194.90 Z M 115.38 194.39 L 116.22 193.89 C 116.96 193.43 117.20 192.46 116.75 191.71 C 116.29 190.97 115.32 190.73 114.57 191.18 L 113.74 191.69 C 112.99 192.14 112.75 193.12 113.21 193.86 C 113.66 194.61 114.63 194.85 115.38 194.39 Z M 116.22 193.87 L 117.08 193.34 C 117.81 192.88 118.04 191.92 117.58 191.18 C 117.13 190.44 116.16 190.21 115.42 190.67 L 114.57 191.20 C 113.83 191.66 113.60 192.62 114.06 193.36 C 114.51 194.10 115.48 194.33 116.22 193.87 Z M 117.08 193.33 L 117.95 192.78 C 118.68 192.32 118.90 191.35 118.44 190.62 C 117.98 189.89 117.02 189.67 116.29 190.13 L 115.41 190.68 C 114.68 191.14 114.47 192.11 114.93 192.84 C 115.39 193.57 116.35 193.79 117.08 193.33 Z M 117.96 192.76 L 118.84 192.20 C 119.57 191.73 119.78 190.77 119.31 190.05 C 118.85 189.33 117.89 189.12 117.17 189.58 L 116.28 190.15 C 115.56 190.61 115.35 191.57 115.81 192.29 C 116.27 193.02 117.23 193.23 117.96 192.76 Z M 118.85 192.18 L 119.74 191.60 C 120.46 191.14 120.66 190.18 120.20 189.47 C 119.73 188.75 118.78 188.55 118.06 189.01 L 117.17 189.59 C 116.45 190.06 116.25 191.01 116.71 191.73 C 117.18 192.44 118.13 192.65 118.85 192.18 Z M 119.75 191.59 L 120.60 191.02 C 121.31 190.56 121.51 189.61 121.04 188.90 C 120.58 188.19 119.63 188.00 118.92 188.46 L 118.06 189.02 C 117.35 189.49 117.16 190.44 117.62 191.15 C 118.09 191.86 119.04 192.05 119.75 191.59 Z M 120.60 191.01 L 121.46 190.44 C 122.16 189.97 122.35 189.03 121.89 188.33 C 121.42 187.63 120.48 187.44 119.78 187.90 L 118.92 188.47 C 118.22 188.94 118.03 189.88 118.49 190.59 C 118.96 191.29 119.90 191.48 120.60 191.01 Z M 121.46 190.43 L 122.32 189.85 C 123.01 189.38 123.20 188.45 122.73 187.75 C 122.27 187.06 121.33 186.88 120.63 187.34 L 119.78 187.92 C 119.08 188.38 118.90 189.32 119.37 190.01 C 119.83 190.71 120.77 190.89 121.46 190.43 Z M 122.32 189.84 L 123.17 189.26 C 123.85 188.80 124.03 187.86 123.56 187.18 C 123.10 186.49 122.17 186.31 121.48 186.78 L 120.64 187.35 C 119.95 187.82 119.77 188.75 120.24 189.44 C 120.70 190.12 121.63 190.30 122.32 189.84 Z M 123.16 189.25 L 123.99 188.68 C 124.67 188.22 124.84 187.29 124.38 186.61 C 123.91 185.93 122.99 185.76 122.31 186.23 L 121.48 186.79 C 120.80 187.26 120.63 188.19 121.09 188.86 C 121.56 189.54 122.49 189.71 123.16 189.25 Z M 123.99 188.67 L 124.79 188.12 C 125.46 187.65 125.63 186.73 125.17 186.06 C 124.70 185.39 123.78 185.22 123.11 185.69 L 122.31 186.24 C 121.64 186.70 121.47 187.63 121.93 188.30 C 122.40 188.97 123.32 189.13 123.99 188.67 Z M 124.79 188.10 L 125.56 187.57 C 126.22 187.10 126.38 186.19 125.92 185.52 C 125.45 184.86 124.54 184.70 123.87 185.16 L 123.11 185.70 C 122.44 186.16 122.28 187.08 122.75 187.74 C 123.21 188.41 124.13 188.57 124.79 188.10 Z M 125.56 187.55 L 126.43 186.93 C 127.09 186.47 127.24 185.56 126.77 184.90 C 126.31 184.25 125.40 184.09 124.74 184.56 L 123.87 185.18 C 123.22 185.64 123.06 186.55 123.53 187.21 C 123.99 187.86 124.90 188.02 125.56 187.55 Z M 126.43 186.92 L 127.30 186.30 C 127.95 185.83 128.10 184.92 127.63 184.27 C 127.16 183.62 126.25 183.48 125.60 183.94 L 124.74 184.57 C 124.09 185.04 123.94 185.94 124.41 186.60 C 124.88 187.25 125.78 187.39 126.43 186.92 Z M 127.31 186.29 L 128.12 185.69 C 128.77 185.22 128.91 184.32 128.44 183.67 C 127.96 183.03 127.06 182.89 126.41 183.36 L 125.60 183.95 C 124.95 184.43 124.81 185.33 125.29 185.97 C 125.76 186.62 126.66 186.76 127.31 186.29 Z M 128.12 185.68 L 128.90 185.11 C 129.54 184.63 129.68 183.73 129.20 183.09 C 128.73 182.45 127.83 182.32 127.19 182.79 L 126.41 183.37 C 125.77 183.84 125.64 184.74 126.11 185.38 C 126.58 186.02 127.49 186.16 128.12 185.68 Z M 128.90 185.10 L 129.66 184.54 C 130.29 184.06 130.42 183.17 129.95 182.53 C 129.47 181.90 128.58 181.76 127.94 182.24 L 127.19 182.80 C 126.55 183.27 126.42 184.17 126.90 184.81 C 127.37 185.44 128.27 185.57 128.90 185.10 Z M 129.66 184.53 L 130.39 183.98 C 131.03 183.50 131.15 182.61 130.68 181.98 C 130.21 181.35 129.31 181.22 128.68 181.69 L 127.94 182.24 C 127.31 182.72 127.18 183.61 127.65 184.24 C 128.13 184.88 129.02 185.00 129.66 184.53 Z"
      fill="black"
      fill-rule="nonzero" /><path d="M 157.09 100.27 L 156.28 100.98 C 155.63 101.55 155.56 102.55 156.13 103.21 C 156.71 103.87 157.71 103.93 158.37 103.36 L 159.17 102.65 C 159.83 102.08 159.90 101.08 159.32 100.42 C 158.75 99.76 157.75 99.70 157.09 100.27 Z M 156.10 101.15 L 155.47 101.91 C 154.91 102.58 155.01 103.58 155.68 104.14 C 156.35 104.70 157.36 104.61 157.92 103.94 L 158.54 103.18 C 159.11 102.51 159.01 101.51 158.34 100.95 C 157.66 100.39 156.66 100.48 156.10 101.15 Z M 155.18 102.43 L 154.91 103.27 C 154.64 104.10 155.09 105.00 155.93 105.27 C 156.76 105.54 157.66 105.09 157.93 104.25 L 158.21 103.42 C 158.48 102.58 158.02 101.68 157.19 101.41 C 156.35 101.14 155.46 101.59 155.18 102.43 Z M 154.86 103.97 L 154.98 104.80 C 155.09 105.66 155.89 106.27 156.75 106.15 C 157.61 106.03 158.21 105.24 158.09 104.38 L 157.98 103.55 C 157.86 102.69 157.07 102.08 156.21 102.20 C 155.35 102.32 154.74 103.11 154.86 103.97 Z M 155.11 105.16 L 155.47 106.08 C 155.79 106.87 156.69 107.26 157.48 106.94 C 158.27 106.62 158.65 105.73 158.34 104.94 L 157.97 104.02 C 157.65 103.23 156.75 102.84 155.96 103.16 C 155.17 103.48 154.79 104.37 155.11 105.16 Z M 155.58 106.22 L 156.11 107.23 C 156.51 107.96 157.42 108.24 158.15 107.84 C 158.89 107.45 159.17 106.54 158.77 105.80 L 158.23 104.80 C 157.84 104.06 156.93 103.79 156.19 104.18 C 155.46 104.57 155.18 105.49 155.58 106.22 Z M 156.16 107.26 L 156.66 108.12 C 157.07 108.83 157.97 109.08 158.69 108.67 C 159.40 108.26 159.64 107.35 159.23 106.64 L 158.73 105.77 C 158.32 105.06 157.41 104.82 156.70 105.23 C 155.99 105.64 155.75 106.55 156.16 107.26 Z M 156.67 108.13 L 157.17 108.97 C 157.58 109.67 158.48 109.91 159.19 109.50 C 159.89 109.09 160.12 108.18 159.71 107.48 L 159.21 106.64 C 158.80 105.94 157.90 105.70 157.20 106.11 C 156.50 106.53 156.26 107.43 156.67 108.13 Z M 157.18 108.97 L 157.70 109.84 C 158.11 110.54 159.01 110.77 159.70 110.35 C 160.40 109.94 160.63 109.04 160.21 108.35 L 159.70 107.48 C 159.28 106.79 158.39 106.56 157.69 106.97 C 157.00 107.38 156.77 108.28 157.18 108.97 Z M 157.71 109.84 L 158.24 110.73 C 158.65 111.41 159.54 111.64 160.23 111.23 C 160.92 110.81 161.14 109.92 160.73 109.23 L 160.20 108.35 C 159.79 107.66 158.90 107.44 158.21 107.85 C 157.52 108.26 157.30 109.15 157.71 109.84 Z M 158.24 110.72 L 158.61 111.33 C 159.02 112.02 159.91 112.24 160.59 111.83 C 161.28 111.42 161.50 110.53 161.09 109.85 L 160.72 109.24 C 160.31 108.55 159.43 108.33 158.74 108.74 C 158.06 109.15 157.83 110.04 158.24 110.72 Z"
      fill="black"
      fill-rule="nonzero" /><path d="M 152.34 117.69 L 151.41 117.92 C 150.58 118.12 150.07 118.96 150.28 119.79 C 150.48 120.61 151.32 121.12 152.14 120.92 L 153.07 120.69 C 153.90 120.48 154.41 119.65 154.20 118.82 C 154.00 117.99 153.17 117.49 152.34 117.69 Z M 151.35 117.91 L 150.41 118.17 C 149.58 118.41 149.09 119.27 149.33 120.10 C 149.56 120.94 150.42 121.42 151.26 121.19 L 152.20 120.93 C 153.03 120.69 153.52 119.83 153.29 118.99 C 153.05 118.16 152.19 117.68 151.35 117.91 Z M 150.31 118.18 L 149.35 118.51 C 148.52 118.80 148.08 119.70 148.37 120.53 C 148.65 121.37 149.56 121.81 150.39 121.52 L 151.35 121.18 C 152.19 120.90 152.63 119.99 152.34 119.16 C 152.05 118.33 151.14 117.89 150.31 118.18 Z M 149.22 118.54 L 148.17 119.00 C 147.35 119.36 146.99 120.31 147.35 121.13 C 147.70 121.94 148.66 122.31 149.47 121.95 L 150.52 121.49 C 151.33 121.13 151.70 120.18 151.34 119.36 C 150.98 118.55 150.03 118.18 149.22 118.54 Z M 148.02 119.07 L 146.97 119.66 C 146.19 120.10 145.91 121.09 146.35 121.87 C 146.79 122.65 147.78 122.92 148.56 122.48 L 149.61 121.89 C 150.39 121.45 150.67 120.46 150.23 119.68 C 149.79 118.90 148.80 118.63 148.02 119.07 Z M 146.76 119.80 L 146.01 120.39 C 145.31 120.94 145.18 121.96 145.74 122.66 C 146.29 123.37 147.31 123.49 148.02 122.94 L 148.77 122.35 C 149.47 121.79 149.59 120.77 149.04 120.07 C 148.49 119.36 147.47 119.24 146.76 119.80 Z M 145.50 121.06 L 145.31 121.55 C 144.97 122.38 145.38 123.33 146.21 123.66 C 147.04 124.00 147.99 123.59 148.32 122.76 L 148.52 122.27 C 148.86 121.43 148.45 120.49 147.62 120.15 C 146.79 119.82 145.84 120.22 145.50 121.06 Z M 146.02 123.57 L 146.60 123.89 C 147.38 124.33 148.37 124.05 148.81 123.27 C 149.25 122.49 148.97 121.50 148.19 121.06 L 147.61 120.73 C 146.83 120.30 145.84 120.58 145.40 121.36 C 144.96 122.14 145.24 123.13 146.02 123.57 Z M 147.20 124.09 L 148.36 124.22 C 149.25 124.33 150.06 123.69 150.16 122.80 C 150.27 121.91 149.63 121.11 148.74 121.00 L 147.58 120.87 C 146.69 120.76 145.89 121.40 145.78 122.29 C 145.68 123.18 146.31 123.98 147.20 124.09 Z M 148.54 124.23 L 149.73 124.24 C 150.62 124.25 151.36 123.53 151.36 122.64 C 151.37 121.74 150.65 121.01 149.76 121.00 L 148.56 120.99 C 147.67 120.98 146.94 121.70 146.93 122.60 C 146.92 123.49 147.64 124.22 148.54 124.23 Z M 149.82 124.24 L 150.81 124.20 C 151.70 124.16 152.39 123.40 152.35 122.51 C 152.31 121.61 151.56 120.92 150.66 120.96 L 149.67 121.01 C 148.78 121.04 148.09 121.80 148.13 122.69 C 148.17 123.59 148.92 124.28 149.82 124.24 Z M 150.88 124.19 L 151.89 124.10 C 152.78 124.02 153.44 123.23 153.36 122.34 C 153.28 121.45 152.49 120.79 151.60 120.87 L 150.59 120.97 C 149.70 121.05 149.04 121.83 149.12 122.72 C 149.20 123.62 149.99 124.27 150.88 124.19 Z M 151.97 124.09 L 152.97 123.96 C 153.86 123.83 154.48 123.01 154.35 122.13 C 154.23 121.24 153.41 120.62 152.53 120.74 L 151.52 120.88 C 150.63 121.01 150.01 121.82 150.14 122.71 C 150.26 123.60 151.08 124.22 151.97 124.09 Z M 153.06 123.94 L 154.04 123.75 C 154.92 123.58 155.50 122.73 155.33 121.85 C 155.16 120.97 154.31 120.40 153.43 120.57 L 152.44 120.76 C 151.56 120.93 150.99 121.78 151.16 122.66 C 151.33 123.54 152.18 124.11 153.06 123.94 Z M 154.14 123.73 L 155.12 123.48 C 155.99 123.26 156.51 122.37 156.29 121.51 C 156.07 120.64 155.18 120.11 154.32 120.34 L 153.33 120.59 C 152.47 120.81 151.94 121.69 152.16 122.56 C 152.39 123.43 153.27 123.95 154.14 123.73 Z M 155.20 123.46 L 156.15 123.16 C 157.00 122.90 157.48 121.99 157.22 121.13 C 156.95 120.28 156.04 119.80 155.19 120.06 L 154.24 120.36 C 153.38 120.62 152.90 121.53 153.17 122.39 C 153.43 123.24 154.34 123.72 155.20 123.46 Z M 156.21 123.14 L 157.14 122.82 C 157.99 122.52 158.43 121.59 158.13 120.74 C 157.83 119.90 156.91 119.45 156.06 119.75 L 155.13 120.08 C 154.28 120.38 153.84 121.31 154.14 122.15 C 154.43 123.00 155.36 123.44 156.21 123.14 Z M 157.18 122.80 L 158.11 122.45 C 158.95 122.13 159.37 121.19 159.05 120.35 C 158.73 119.51 157.79 119.09 156.95 119.41 L 156.02 119.76 C 155.18 120.08 154.76 121.02 155.08 121.86 C 155.40 122.70 156.34 123.12 157.18 122.80 Z M 158.13 122.44 L 159.06 122.07 C 159.90 121.74 160.31 120.80 159.98 119.96 C 159.65 119.13 158.71 118.72 157.87 119.05 L 156.93 119.42 C 156.10 119.75 155.69 120.69 156.02 121.53 C 156.35 122.36 157.29 122.77 158.13 122.44 Z M 159.08 122.07 L 160.01 121.70 C 160.85 121.36 161.25 120.41 160.92 119.58 C 160.58 118.74 159.63 118.34 158.80 118.67 L 157.86 119.05 C 157.03 119.38 156.62 120.33 156.96 121.17 C 157.29 122.00 158.24 122.41 159.08 122.07 Z M 160.02 121.70 L 160.94 121.32 C 161.78 120.98 162.18 120.03 161.84 119.20 C 161.50 118.36 160.55 117.96 159.72 118.30 L 158.79 118.67 C 157.96 119.01 157.55 119.96 157.89 120.80 C 158.23 121.63 159.18 122.03 160.02 121.70 Z M 160.94 121.33 L 161.86 120.96 C 162.70 120.62 163.10 119.67 162.77 118.83 C 162.43 117.99 161.48 117.59 160.64 117.92 L 159.72 118.29 C 158.88 118.63 158.48 119.58 158.81 120.42 C 159.15 121.26 160.10 121.66 160.94 121.33 Z M 161.85 120.96 L 162.83 120.58 C 163.67 120.24 164.08 119.29 163.74 118.45 C 163.41 117.61 162.46 117.20 161.62 117.53 L 160.65 117.92 C 159.81 118.25 159.40 119.20 159.73 120.04 C 160.06 120.88 161.01 121.29 161.85 120.96 Z M 162.82 120.58 L 163.76 120.21 C 164.60 119.88 165.02 118.93 164.69 118.09 C 164.36 117.25 163.41 116.83 162.56 117.16 L 161.62 117.53 C 160.78 117.86 160.36 118.81 160.70 119.65 C 161.03 120.50 161.98 120.91 162.82 120.58 Z M 163.76 120.22 L 164.66 119.86 C 165.51 119.53 165.93 118.58 165.60 117.73 C 165.26 116.89 164.31 116.47 163.46 116.80 L 162.56 117.16 C 161.72 117.49 161.30 118.44 161.63 119.29 C 161.96 120.13 162.92 120.55 163.76 120.22 Z M 164.67 119.87 L 165.53 119.53 C 166.38 119.19 166.79 118.23 166.46 117.39 C 166.12 116.54 165.16 116.12 164.32 116.46 L 163.46 116.80 C 162.61 117.14 162.20 118.09 162.53 118.94 C 162.87 119.79 163.82 120.20 164.67 119.87 Z M 165.54 119.53 L 166.39 119.19 C 167.24 118.85 167.65 117.88 167.31 117.04 C 166.96 116.19 166.00 115.77 165.15 116.12 L 164.31 116.46 C 163.46 116.80 163.05 117.76 163.39 118.61 C 163.73 119.46 164.69 119.87 165.54 119.53 Z M 166.40 119.20 L 167.30 118.83 C 168.15 118.48 168.56 117.51 168.21 116.66 C 167.86 115.80 166.89 115.40 166.04 115.74 L 165.14 116.11 C 164.29 116.46 163.88 117.43 164.23 118.28 C 164.58 119.13 165.55 119.54 166.40 119.20 Z M 167.31 118.83 L 168.33 118.41 C 169.18 118.06 169.59 117.08 169.24 116.23 C 168.88 115.37 167.90 114.96 167.05 115.32 L 166.03 115.74 C 165.18 116.09 164.77 117.07 165.12 117.92 C 165.48 118.78 166.45 119.19 167.31 118.83 Z M 168.33 118.42 L 169.44 117.96 C 170.30 117.60 170.71 116.62 170.35 115.76 C 170.00 114.90 169.01 114.49 168.15 114.85 L 167.04 115.31 C 166.18 115.66 165.78 116.65 166.13 117.51 C 166.49 118.37 167.48 118.78 168.33 118.42 Z M 169.43 117.98 L 170.56 117.52 C 171.43 117.17 171.85 116.18 171.50 115.31 C 171.15 114.44 170.16 114.02 169.29 114.38 L 168.16 114.83 C 167.29 115.18 166.87 116.17 167.22 117.04 C 167.57 117.91 168.56 118.33 169.43 117.98 Z M 170.52 117.55 L 171.53 117.18 C 172.41 116.85 172.86 115.86 172.53 114.98 C 172.20 114.09 171.22 113.64 170.33 113.97 L 169.33 114.35 C 168.44 114.68 167.99 115.66 168.32 116.55 C 168.65 117.43 169.64 117.88 170.52 117.55 Z M 171.41 117.23 L 172.12 117.02 C 173.04 116.76 173.57 115.81 173.31 114.89 C 173.04 113.98 172.09 113.45 171.18 113.71 L 170.46 113.92 C 169.54 114.18 169.01 115.13 169.28 116.05 C 169.54 116.96 170.49 117.49 171.41 117.23 Z M 170.84 116.89 L 171.10 117.03 C 171.95 117.48 172.99 117.16 173.44 116.32 C 173.89 115.48 173.57 114.44 172.73 113.99 L 172.46 113.84 C 171.62 113.40 170.58 113.71 170.13 114.56 C 169.68 115.40 170.00 116.44 170.84 116.89 Z M 170.58 114.43 L 170.00 115.14 C 169.41 115.88 169.52 116.96 170.26 117.56 C 171.00 118.16 172.08 118.04 172.68 117.30 L 173.25 116.59 C 173.85 115.85 173.74 114.77 173.00 114.17 C 172.26 113.57 171.18 113.69 170.58 114.43 Z M 170.07 115.08 L 169.21 116.04 C 168.58 116.75 168.64 117.83 169.34 118.46 C 170.04 119.09 171.13 119.03 171.76 118.32 L 172.62 117.36 C 173.25 116.66 173.19 115.58 172.48 114.94 C 171.78 114.31 170.70 114.37 170.07 115.08 Z M 169.12 116.17 L 168.53 116.97 C 167.97 117.72 168.13 118.78 168.88 119.34 C 169.63 119.89 170.69 119.74 171.25 118.99 L 171.84 118.19 C 172.40 117.44 172.24 116.38 171.49 115.82 C 170.74 115.27 169.68 115.42 169.12 116.17 Z M 168.47 117.10 L 167.95 117.94 C 167.46 118.72 167.71 119.75 168.49 120.24 C 169.27 120.72 170.30 120.48 170.78 119.70 L 171.31 118.86 C 171.79 118.07 171.55 117.04 170.77 116.56 C 169.99 116.07 168.96 116.32 168.47 117.10 Z M 167.91 118.06 L 167.44 118.95 C 167.02 119.75 167.33 120.75 168.13 121.17 C 168.94 121.59 169.93 121.28 170.35 120.48 L 170.82 119.58 C 171.24 118.78 170.93 117.79 170.13 117.37 C 169.33 116.94 168.33 117.25 167.91 118.06 Z M 167.43 119.04 L 167.03 119.91 C 166.65 120.73 167.01 121.69 167.82 122.06 C 168.64 122.43 169.60 122.07 169.97 121.26 L 170.37 120.39 C 170.74 119.57 170.38 118.61 169.57 118.24 C 168.76 117.87 167.80 118.23 167.43 119.04 Z M 167.02 119.99 L 166.65 120.88 C 166.32 121.70 166.72 122.63 167.53 122.96 C 168.35 123.29 169.28 122.90 169.61 122.08 L 169.98 121.19 C 170.31 120.37 169.92 119.44 169.10 119.11 C 168.28 118.78 167.35 119.17 167.02 119.99 Z M 166.65 120.94 L 166.31 121.89 C 166.01 122.71 166.43 123.61 167.25 123.91 C 168.07 124.21 168.97 123.79 169.27 122.97 L 169.61 122.02 C 169.91 121.21 169.49 120.30 168.67 120.00 C 167.86 119.71 166.95 120.13 166.65 120.94 Z M 166.31 121.94 L 165.98 122.95 C 165.71 123.76 166.16 124.64 166.97 124.91 C 167.78 125.18 168.66 124.74 168.93 123.92 L 169.26 122.92 C 169.53 122.10 169.09 121.23 168.27 120.96 C 167.46 120.69 166.58 121.13 166.31 121.94 Z M 165.99 122.99 L 165.71 123.93 C 165.46 124.74 165.92 125.59 166.73 125.84 C 167.54 126.09 168.39 125.63 168.64 124.82 L 168.92 123.88 C 169.17 123.07 168.71 122.22 167.90 121.97 C 167.09 121.72 166.24 122.18 165.99 122.99 Z M 165.71 123.96 L 165.45 124.92 C 165.22 125.72 165.69 126.56 166.50 126.79 C 167.30 127.01 168.14 126.54 168.36 125.74 L 168.63 124.78 C 168.86 123.98 168.39 123.14 167.58 122.92 C 166.78 122.69 165.94 123.16 165.71 123.96 Z M 165.46 124.95 L 165.20 125.93 C 165.00 126.73 165.48 127.55 166.28 127.76 C 167.08 127.96 167.89 127.48 168.10 126.68 L 168.35 125.70 C 168.56 124.90 168.08 124.09 167.28 123.88 C 166.48 123.67 165.66 124.15 165.46 124.95 Z M 165.21 125.97 L 164.98 126.96 C 164.79 127.76 165.28 128.55 166.08 128.74 C 166.87 128.93 167.67 128.43 167.86 127.64 L 168.09 126.65 C 168.28 125.85 167.78 125.06 166.99 124.87 C 166.20 124.68 165.40 125.17 165.21 125.97 Z M 164.99 127.00 L 164.78 127.99 C 164.61 128.78 165.11 129.56 165.90 129.72 C 166.70 129.89 167.47 129.39 167.64 128.60 L 167.85 127.60 C 168.02 126.81 167.51 126.04 166.72 125.87 C 165.93 125.70 165.15 126.21 164.99 127.00 Z M 164.78 128.02 L 164.59 129.01 C 164.45 129.80 164.96 130.56 165.75 130.71 C 166.54 130.86 167.30 130.34 167.45 129.55 L 167.63 128.56 C 167.78 127.77 167.26 127.02 166.48 126.87 C 165.69 126.72 164.93 127.24 164.78 128.02 Z M 164.60 129.04 L 164.43 130.03 C 164.29 130.81 164.82 131.56 165.61 131.69 C 166.40 131.83 167.14 131.30 167.28 130.51 L 167.44 129.53 C 167.58 128.74 167.05 127.99 166.26 127.86 C 165.48 127.73 164.73 128.25 164.60 129.04 Z M 164.43 130.04 L 164.28 131.03 C 164.15 131.81 164.69 132.55 165.47 132.67 C 166.25 132.80 166.99 132.26 167.12 131.48 L 167.27 130.49 C 167.40 129.71 166.86 128.97 166.08 128.85 C 165.29 128.72 164.56 129.26 164.43 130.04 Z M 164.28 131.04 L 164.13 132.02 C 164.01 132.80 164.55 133.53 165.33 133.65 C 166.11 133.77 166.84 133.23 166.96 132.45 L 167.11 131.47 C 167.23 130.69 166.69 129.96 165.91 129.84 C 165.13 129.72 164.40 130.25 164.28 131.04 Z M 164.14 132.02 L 164.13 132.07 C 164.01 132.85 164.55 133.58 165.33 133.70 C 166.10 133.81 166.83 133.28 166.95 132.50 L 166.96 132.45 C 167.07 131.67 166.54 130.94 165.76 130.82 C 164.98 130.70 164.25 131.24 164.14 132.02 Z"
      fill="black"
      fill-rule="nonzero" /><path d="M 153.08 134.06 L 151.74 134.31 C 150.89 134.47 150.34 135.28 150.49 136.13 C 150.65 136.97 151.47 137.53 152.31 137.37 L 153.65 137.13 C 154.50 136.97 155.06 136.15 154.90 135.31 C 154.74 134.46 153.93 133.90 153.08 134.06 Z M 151.77 134.30 L 150.61 134.49 C 149.76 134.63 149.18 135.44 149.32 136.29 C 149.46 137.14 150.27 137.72 151.12 137.58 L 152.28 137.39 C 153.14 137.25 153.71 136.44 153.57 135.59 C 153.43 134.73 152.62 134.15 151.77 134.30 Z M 150.72 134.47 L 149.93 134.54 C 149.06 134.62 148.43 135.39 148.51 136.26 C 148.59 137.12 149.36 137.76 150.23 137.68 L 151.02 137.60 C 151.88 137.52 152.52 136.75 152.44 135.89 C 152.36 135.02 151.59 134.38 150.72 134.47 Z M 150.87 134.74 L 150.64 134.61 C 149.88 134.17 148.92 134.43 148.48 135.19 C 148.05 135.94 148.31 136.91 149.06 137.34 L 149.29 137.48 C 150.04 137.91 151.01 137.65 151.45 136.90 C 151.88 136.14 151.62 135.18 150.87 134.74 Z M 150.75 137.26 L 151.39 136.81 C 152.09 136.31 152.26 135.33 151.76 134.63 C 151.26 133.92 150.29 133.75 149.58 134.25 L 148.95 134.70 C 148.24 135.20 148.07 136.17 148.57 136.88 C 149.07 137.59 150.05 137.75 150.75 137.26 Z M 151.22 136.88 L 152.39 136.25 C 153.14 135.84 153.42 134.90 153.01 134.15 C 152.60 133.41 151.66 133.13 150.91 133.54 L 149.75 134.17 C 149.00 134.58 148.72 135.52 149.13 136.27 C 149.54 137.02 150.47 137.29 151.22 136.88 Z M 152.38 136.23 L 153.32 135.72 C 154.06 135.32 154.33 134.39 153.92 133.65 C 153.52 132.92 152.60 132.64 151.86 133.05 L 150.92 133.56 C 150.19 133.96 149.91 134.88 150.32 135.62 C 150.72 136.36 151.64 136.63 152.38 136.23 Z M 153.32 135.69 L 154.18 135.21 C 154.91 134.80 155.17 133.89 154.76 133.16 C 154.35 132.44 153.44 132.18 152.71 132.59 L 151.85 133.07 C 151.13 133.48 150.87 134.39 151.28 135.12 C 151.68 135.84 152.60 136.10 153.32 135.69 Z M 154.18 135.19 L 155.05 134.70 C 155.76 134.29 156.01 133.39 155.61 132.68 C 155.20 131.96 154.30 131.71 153.59 132.12 L 152.72 132.61 C 152.01 133.01 151.76 133.92 152.16 134.63 C 152.56 135.34 153.47 135.59 154.18 135.19 Z M 155.04 134.68 L 155.93 134.18 C 156.63 133.78 156.88 132.89 156.48 132.19 C 156.09 131.49 155.20 131.24 154.49 131.63 L 153.60 132.13 C 152.90 132.53 152.65 133.42 153.05 134.12 C 153.44 134.83 154.33 135.08 155.04 134.68 Z M 155.91 134.17 L 156.78 133.69 C 157.49 133.31 157.74 132.42 157.35 131.72 C 156.97 131.02 156.09 130.77 155.39 131.15 L 154.51 131.64 C 153.81 132.02 153.56 132.90 153.94 133.60 C 154.33 134.31 155.21 134.56 155.91 134.17 Z M 156.77 133.69 L 157.66 133.21 C 158.36 132.84 158.63 131.96 158.25 131.26 C 157.87 130.56 156.99 130.30 156.29 130.67 L 155.40 131.15 C 154.70 131.53 154.44 132.41 154.82 133.11 C 155.19 133.81 156.07 134.07 156.77 133.69 Z M 157.64 133.22 L 158.54 132.75 C 159.24 132.38 159.51 131.51 159.14 130.81 C 158.77 130.11 157.90 129.83 157.20 130.20 L 156.31 130.67 C 155.61 131.04 155.34 131.91 155.70 132.61 C 156.07 133.31 156.94 133.58 157.64 133.22 Z M 158.52 132.75 L 159.39 132.31 C 160.10 131.95 160.38 131.09 160.02 130.38 C 159.66 129.68 158.80 129.40 158.10 129.75 L 157.22 130.20 C 156.52 130.56 156.23 131.42 156.59 132.12 C 156.95 132.83 157.81 133.11 158.52 132.75 Z M 159.37 132.31 L 160.31 131.86 C 161.02 131.51 161.31 130.65 160.96 129.95 C 160.62 129.24 159.76 128.94 159.05 129.29 L 158.12 129.75 C 157.41 130.09 157.12 130.95 157.46 131.66 C 157.81 132.37 158.67 132.66 159.37 132.31 Z M 160.29 131.86 L 161.19 131.44 C 161.91 131.10 162.21 130.25 161.87 129.54 C 161.54 128.82 160.69 128.52 159.97 128.86 L 159.07 129.28 C 158.36 129.62 158.05 130.47 158.39 131.18 C 158.73 131.90 159.58 132.20 160.29 131.86 Z M 161.18 131.44 L 162.07 131.03 C 162.78 130.70 163.09 129.85 162.76 129.14 C 162.43 128.42 161.59 128.11 160.87 128.44 L 159.98 128.85 C 159.27 129.18 158.96 130.03 159.29 130.74 C 159.62 131.46 160.47 131.77 161.18 131.44 Z M 162.06 131.03 L 162.56 130.80 C 163.28 130.47 163.59 129.63 163.26 128.91 C 162.93 128.20 162.09 127.88 161.37 128.21 L 160.87 128.44 C 160.16 128.77 159.85 129.61 160.17 130.33 C 160.50 131.05 161.35 131.36 162.06 131.03 Z"
      fill="black"
      fill-rule="nonzero" /><path d="M 153.53 141.32 L 152.26 141.89 C 151.48 142.23 151.12 143.15 151.47 143.93 C 151.82 144.71 152.73 145.06 153.51 144.72 L 154.79 144.15 C 155.57 143.81 155.92 142.89 155.58 142.11 C 155.23 141.33 154.32 140.97 153.53 141.32 Z M 152.26 141.88 L 151.16 142.36 C 150.37 142.70 150.01 143.62 150.36 144.41 C 150.70 145.19 151.62 145.55 152.41 145.21 L 153.51 144.73 C 154.30 144.38 154.65 143.47 154.31 142.68 C 153.97 141.89 153.05 141.53 152.26 141.88 Z M 151.18 142.34 L 150.43 142.65 C 149.63 142.98 149.26 143.90 149.59 144.70 C 149.92 145.49 150.83 145.87 151.63 145.54 L 152.38 145.23 C 153.18 144.90 153.56 143.98 153.23 143.19 C 152.90 142.39 151.98 142.01 151.18 142.34 Z M 150.67 142.57 L 150.44 142.63 C 149.60 142.82 149.08 143.67 149.28 144.51 C 149.48 145.35 150.32 145.87 151.16 145.67 L 151.39 145.62 C 152.23 145.42 152.75 144.58 152.55 143.74 C 152.36 142.90 151.51 142.37 150.67 142.57 Z M 151.64 145.46 L 152.14 145.14 C 152.87 144.68 153.08 143.71 152.62 142.99 C 152.15 142.27 151.19 142.05 150.47 142.52 L 149.97 142.84 C 149.24 143.30 149.03 144.26 149.49 144.99 C 149.96 145.71 150.92 145.92 151.64 145.46 Z M 152.10 145.15 L 153.15 144.51 C 153.88 144.07 154.11 143.12 153.67 142.40 C 153.23 141.67 152.28 141.44 151.56 141.88 L 150.51 142.51 C 149.78 142.95 149.55 143.90 149.99 144.63 C 150.43 145.35 151.38 145.59 152.10 145.15 Z M 153.18 144.48 L 154.31 143.75 C 155.02 143.29 155.23 142.35 154.77 141.64 C 154.32 140.93 153.37 140.73 152.67 141.18 L 151.53 141.91 C 150.82 142.37 150.62 143.31 151.07 144.02 C 151.53 144.73 152.47 144.93 153.18 144.48 Z M 154.34 143.71 L 155.18 143.13 C 155.86 142.66 156.03 141.72 155.56 141.04 C 155.09 140.35 154.15 140.18 153.47 140.65 L 152.63 141.22 C 151.95 141.70 151.78 142.64 152.25 143.32 C 152.72 144.01 153.66 144.18 154.34 143.71 Z M 155.20 143.10 L 156.03 142.49 C 156.69 142.01 156.84 141.08 156.36 140.41 C 155.88 139.75 154.95 139.60 154.28 140.08 L 153.45 140.68 C 152.78 141.17 152.63 142.10 153.11 142.77 C 153.60 143.43 154.53 143.58 155.20 143.10 Z M 156.04 142.46 L 156.86 141.85 C 157.50 141.36 157.63 140.44 157.14 139.79 C 156.65 139.14 155.73 139.01 155.08 139.50 L 154.27 140.11 C 153.62 140.60 153.49 141.53 153.98 142.17 C 154.47 142.82 155.39 142.95 156.04 142.46 Z M 156.86 141.82 L 157.64 141.21 C 158.27 140.72 158.39 139.81 157.89 139.17 C 157.40 138.54 156.48 138.43 155.85 138.92 L 155.07 139.53 C 154.44 140.02 154.33 140.94 154.82 141.57 C 155.32 142.20 156.23 142.32 156.86 141.82 Z M 157.65 141.19 L 158.44 140.55 C 159.06 140.05 159.16 139.14 158.65 138.52 C 158.15 137.90 157.25 137.81 156.63 138.31 L 155.84 138.95 C 155.22 139.45 155.12 140.36 155.62 140.98 C 156.12 141.59 157.03 141.69 157.65 141.19 Z M 158.46 140.53 L 159.27 139.84 C 159.88 139.33 159.96 138.43 159.45 137.82 C 158.94 137.21 158.03 137.14 157.43 137.65 L 156.61 138.33 C 156.01 138.84 155.93 139.74 156.44 140.35 C 156.95 140.96 157.85 141.03 158.46 140.53 Z M 159.29 139.82 L 160.03 139.18 C 160.63 138.66 160.69 137.75 160.17 137.16 C 159.65 136.56 158.75 136.50 158.15 137.02 L 157.41 137.66 C 156.81 138.18 156.75 139.09 157.27 139.68 C 157.79 140.28 158.69 140.34 159.29 139.82 Z M 160.04 139.16 L 160.74 138.54 C 161.33 138.01 161.38 137.11 160.85 136.52 C 160.33 135.93 159.43 135.88 158.84 136.41 L 158.14 137.03 C 157.55 137.56 157.50 138.46 158.02 139.05 C 158.55 139.64 159.45 139.69 160.04 139.16 Z M 160.74 138.53 L 161.07 138.24 C 161.65 137.71 161.70 136.81 161.17 136.23 C 160.65 135.64 159.75 135.59 159.16 136.12 L 158.83 136.41 C 158.25 136.94 158.20 137.84 158.73 138.43 C 159.25 139.01 160.16 139.06 160.74 138.53 Z"
      fill="black"
      fill-rule="nonzero" /><path d="M 151.30 116.35 L 150.68 117.07 C 150.13 117.70 150.20 118.65 150.83 119.20 C 151.45 119.74 152.41 119.68 152.95 119.05 L 153.58 118.33 C 154.13 117.70 154.06 116.74 153.43 116.20 C 152.80 115.65 151.85 115.72 151.30 116.35 Z M 150.60 117.15 L 150.01 117.93 C 149.51 118.59 149.64 119.55 150.31 120.05 C 150.98 120.56 151.93 120.42 152.44 119.75 L 153.03 118.97 C 153.53 118.30 153.40 117.35 152.73 116.85 C 152.06 116.34 151.11 116.48 150.60 117.15 Z M 149.90 118.08 L 149.39 118.98 C 148.97 119.71 149.23 120.64 149.96 121.06 C 150.69 121.48 151.62 121.22 152.04 120.49 L 152.55 119.60 C 152.97 118.86 152.72 117.93 151.98 117.51 C 151.25 117.09 150.32 117.35 149.90 118.08 Z M 149.28 119.18 L 148.94 120.06 C 148.63 120.85 149.03 121.74 149.82 122.05 C 150.61 122.36 151.50 121.96 151.80 121.17 L 152.15 120.29 C 152.45 119.50 152.06 118.61 151.27 118.30 C 150.48 117.99 149.59 118.39 149.28 119.18 Z M 148.88 120.23 L 148.64 121.13 C 148.43 121.96 148.92 122.80 149.74 123.02 C 150.57 123.24 151.41 122.74 151.63 121.92 L 151.87 121.01 C 152.08 120.18 151.59 119.34 150.76 119.13 C 149.94 118.91 149.10 119.40 148.88 120.23 Z M 148.61 121.25 L 148.43 122.24 C 148.28 123.08 148.84 123.89 149.68 124.04 C 150.52 124.19 151.33 123.64 151.48 122.79 L 151.66 121.80 C 151.81 120.96 151.25 120.15 150.41 120.00 C 149.57 119.85 148.76 120.41 148.61 121.25 Z M 148.41 122.32 L 148.28 123.38 C 148.17 124.23 148.77 125.01 149.63 125.12 C 150.48 125.22 151.26 124.62 151.37 123.77 L 151.50 122.71 C 151.61 121.86 151.00 121.08 150.15 120.97 C 149.30 120.86 148.52 121.47 148.41 122.32 Z M 148.27 123.43 L 148.17 124.51 C 148.09 125.37 148.73 126.13 149.59 126.20 C 150.45 126.28 151.21 125.64 151.28 124.78 L 151.38 123.71 C 151.45 122.85 150.82 122.09 149.96 122.02 C 149.10 121.94 148.34 122.57 148.27 123.43 Z M 148.16 124.55 L 148.10 125.58 C 148.04 126.45 148.70 127.19 149.56 127.25 C 150.42 127.30 151.17 126.65 151.23 125.78 L 151.29 124.75 C 151.35 123.88 150.69 123.14 149.83 123.08 C 148.96 123.03 148.22 123.68 148.16 124.55 Z M 148.09 125.61 L 148.04 126.65 C 148.00 127.51 148.67 128.25 149.54 128.29 C 150.41 128.33 151.14 127.66 151.18 126.79 L 151.23 125.76 C 151.27 124.89 150.60 124.15 149.73 124.11 C 148.86 124.07 148.13 124.74 148.09 125.61 Z M 148.04 126.67 L 148.00 127.67 C 147.98 128.54 148.66 129.27 149.53 129.30 C 150.40 129.33 151.13 128.64 151.16 127.77 L 151.19 126.77 C 151.22 125.90 150.53 125.17 149.66 125.14 C 148.79 125.11 148.06 125.80 148.04 126.67 Z M 148.00 127.69 L 147.98 128.64 C 147.96 129.51 148.65 130.24 149.52 130.26 C 150.40 130.28 151.12 129.58 151.14 128.71 L 151.16 127.76 C 151.18 126.88 150.49 126.16 149.62 126.14 C 148.74 126.12 148.02 126.81 148.00 127.69 Z M 147.97 128.65 L 147.96 129.69 C 147.94 130.56 148.64 131.28 149.52 131.30 C 150.40 131.31 151.12 130.61 151.13 129.73 L 151.15 128.70 C 151.16 127.82 150.46 127.10 149.58 127.09 C 148.71 127.07 147.99 127.77 147.97 128.65 Z M 147.95 129.70 L 147.94 130.73 C 147.94 131.61 148.64 132.33 149.52 132.34 C 150.40 132.34 151.12 131.64 151.13 130.76 L 151.13 129.72 C 151.14 128.85 150.44 128.13 149.56 128.12 C 148.68 128.11 147.96 128.82 147.95 129.70 Z M 147.94 130.74 L 147.94 131.70 C 147.93 132.58 148.65 133.29 149.53 133.30 C 150.41 133.30 151.12 132.59 151.13 131.71 L 151.13 130.75 C 151.13 129.87 150.42 129.15 149.54 129.15 C 148.66 129.15 147.94 129.86 147.94 130.74 Z M 147.93 131.70 L 147.93 132.63 C 147.93 133.51 148.65 134.23 149.53 134.23 C 150.41 134.23 151.13 133.52 151.13 132.63 L 151.13 131.70 C 151.13 130.82 150.42 130.10 149.53 130.10 C 148.65 130.10 147.93 130.82 147.93 131.70 Z M 147.93 132.63 L 147.93 133.61 C 147.93 134.49 148.65 135.21 149.53 135.21 C 150.42 135.21 151.13 134.49 151.13 133.61 L 151.13 132.63 C 151.13 131.75 150.42 131.03 149.53 131.03 C 148.65 131.03 147.93 131.75 147.93 132.63 Z M 147.92 133.61 L 147.92 134.60 C 147.92 135.49 148.64 136.21 149.53 136.21 C 150.42 136.21 151.14 135.49 151.14 134.60 L 151.14 133.61 C 151.14 132.72 150.42 132.00 149.53 132.00 C 148.64 132.00 147.92 132.72 147.92 133.61 Z M 147.92 134.60 L 147.92 135.62 C 147.92 136.51 148.64 137.23 149.53 137.23 C 150.42 137.23 151.14 136.51 151.14 135.62 L 151.14 134.60 C 151.14 133.71 150.42 132.99 149.53 132.99 C 148.64 132.99 147.92 133.71 147.92 134.60 Z M 147.92 135.62 L 147.92 136.61 C 147.92 137.50 148.64 138.23 149.53 138.23 C 150.42 138.23 151.15 137.50 151.15 136.61 L 151.15 135.62 C 151.15 134.73 150.42 134.00 149.53 134.00 C 148.64 134.00 147.92 134.73 147.92 135.62 Z M 147.91 136.61 L 147.91 137.59 C 147.91 138.49 148.64 139.21 149.53 139.21 C 150.43 139.21 151.15 138.49 151.15 137.59 L 151.15 136.61 C 151.15 135.72 150.43 134.99 149.53 134.99 C 148.64 134.99 147.91 135.72 147.91 136.61 Z M 147.91 137.59 L 147.91 138.60 C 147.91 139.49 148.63 140.22 149.53 140.22 C 150.43 140.22 151.16 139.49 151.16 138.60 L 151.16 137.59 C 151.16 136.70 150.43 135.97 149.53 135.97 C 148.63 135.97 147.91 136.70 147.91 137.59 Z M 147.90 138.60 L 147.90 139.63 C 147.90 140.53 148.63 141.26 149.53 141.26 C 150.43 141.26 151.16 140.53 151.16 139.63 L 151.16 138.60 C 151.16 137.70 150.43 136.97 149.53 136.97 C 148.63 136.97 147.90 137.70 147.90 138.60 Z M 147.90 139.63 L 147.90 140.60 C 147.90 141.50 148.63 142.23 149.53 142.23 C 150.43 142.23 151.16 141.50 151.16 140.60 L 151.16 139.63 C 151.16 138.73 150.43 138.00 149.53 138.00 C 148.63 138.00 147.90 138.73 147.90 139.63 Z M 147.90 140.60 L 147.90 141.58 C 147.90 142.48 148.63 143.21 149.53 143.21 C 150.43 143.21 151.16 142.48 151.16 141.58 L 151.16 140.60 C 151.16 139.69 150.43 138.96 149.53 138.96 C 148.63 138.96 147.90 139.69 147.90 140.60 Z M 147.90 141.58 L 147.90 142.58 C 147.90 143.49 148.63 144.22 149.53 144.22 C 150.43 144.22 151.16 143.49 151.16 142.58 L 151.16 141.58 C 151.16 140.67 150.43 139.94 149.53 139.94 C 148.63 139.94 147.90 140.67 147.90 141.58 Z M 147.90 142.58 L 147.90 143.62 C 147.90 144.52 148.63 145.25 149.53 145.25 C 150.43 145.25 151.17 144.52 151.17 143.62 L 151.17 142.58 C 151.17 141.68 150.43 140.95 149.53 140.95 C 148.63 140.95 147.90 141.68 147.90 142.58 Z M 147.89 143.62 L 147.89 144.62 C 147.89 145.53 148.63 146.26 149.53 146.26 C 150.44 146.26 151.17 145.53 151.17 144.62 L 151.17 143.62 C 151.17 142.72 150.44 141.98 149.53 141.98 C 148.63 141.98 147.89 142.72 147.89 143.62 Z M 147.89 144.62 L 147.89 145.62 C 147.89 146.53 148.62 147.26 149.53 147.26 C 150.44 147.26 151.17 146.53 151.17 145.62 L 151.17 144.62 C 151.17 143.71 150.44 142.98 149.53 142.98 C 148.62 142.98 147.89 143.71 147.89 144.62 Z M 147.88 145.62 L 147.88 146.63 C 147.88 147.54 148.62 148.28 149.53 148.28 C 150.44 148.28 151.18 147.54 151.18 146.63 L 151.18 145.62 C 151.18 144.71 150.44 143.97 149.53 143.97 C 148.62 143.97 147.88 144.71 147.88 145.62 Z M 147.88 146.63 L 147.88 147.64 C 147.88 148.55 148.62 149.29 149.53 149.29 C 150.44 149.29 151.18 148.55 151.18 147.64 L 151.18 146.63 C 151.18 145.72 150.44 144.98 149.53 144.98 C 148.62 144.98 147.88 145.72 147.88 146.63 Z M 147.87 147.64 L 147.87 148.64 C 147.87 149.56 148.62 150.30 149.53 150.30 C 150.45 150.30 151.19 149.56 151.19 148.64 L 151.19 147.64 C 151.19 146.72 150.45 145.98 149.53 145.98 C 148.62 145.98 147.87 146.72 147.87 147.64 Z M 147.87 148.64 L 147.87 149.66 C 147.87 150.57 148.61 151.32 149.53 151.32 C 150.45 151.32 151.19 150.58 151.19 149.66 L 151.19 148.64 C 151.19 147.72 150.45 146.98 149.53 146.98 C 148.61 146.98 147.87 147.72 147.87 148.64 Z M 147.86 149.65 L 147.86 150.65 C 147.86 151.57 148.60 152.32 149.52 152.33 C 150.44 152.33 151.19 151.58 151.20 150.66 L 151.20 149.66 C 151.20 148.74 150.46 147.99 149.54 147.99 C 148.61 147.99 147.87 148.73 147.86 149.65 Z M 147.85 150.65 L 147.85 151.64 C 147.84 152.56 148.59 153.32 149.51 153.32 C 150.43 153.33 151.19 152.58 151.20 151.66 L 151.20 150.67 C 151.21 149.74 150.46 148.99 149.54 148.98 C 148.61 148.98 147.86 149.72 147.85 150.65 Z M 147.84 151.63 L 147.83 152.61 C 147.82 153.54 148.56 154.30 149.49 154.31 C 150.42 154.32 151.18 153.58 151.19 152.65 L 151.20 151.67 C 151.21 150.74 150.47 149.98 149.54 149.97 C 148.61 149.96 147.85 150.70 147.84 151.63 Z M 147.82 152.60 L 147.81 153.60 C 147.79 154.53 148.53 155.30 149.46 155.32 C 150.39 155.34 151.16 154.60 151.18 153.66 L 151.19 152.67 C 151.21 151.73 150.47 150.97 149.54 150.95 C 148.61 150.93 147.84 151.67 147.82 152.60 Z M 147.80 153.59 L 147.77 154.59 C 147.75 155.52 148.49 156.30 149.42 156.32 C 150.35 156.35 151.13 155.61 151.15 154.68 L 151.18 153.68 C 151.21 152.74 150.47 151.97 149.54 151.94 C 148.60 151.92 147.82 152.65 147.80 153.59 Z M 147.77 154.57 L 147.73 155.57 C 147.70 156.51 148.44 157.30 149.37 157.33 C 150.31 157.36 151.09 156.63 151.13 155.69 L 151.16 154.69 C 151.19 153.75 150.46 152.97 149.52 152.94 C 148.58 152.90 147.80 153.64 147.77 154.57 Z M 147.73 155.56 L 147.69 156.56 C 147.65 157.50 148.38 158.29 149.32 158.33 C 150.26 158.37 151.05 157.64 151.09 156.70 L 151.13 155.70 C 151.17 154.76 150.44 153.97 149.50 153.93 C 148.56 153.89 147.77 154.62 147.73 155.56 Z M 147.68 156.55 L 147.63 157.54 C 147.59 158.49 148.32 159.29 149.26 159.33 C 150.20 159.38 151.00 158.65 151.05 157.71 L 151.10 156.71 C 151.14 155.77 150.41 154.97 149.47 154.92 C 148.53 154.88 147.73 155.61 147.68 156.55 Z M 147.63 157.53 L 147.57 158.53 C 147.52 159.47 148.25 160.28 149.19 160.33 C 150.14 160.38 150.95 159.66 151.00 158.71 L 151.05 157.72 C 151.10 156.77 150.38 155.97 149.43 155.91 C 148.49 155.86 147.68 156.59 147.63 157.53 Z M 147.57 158.52 L 147.51 159.52 C 147.46 160.47 148.18 161.28 149.13 161.33 C 150.08 161.39 150.89 160.67 150.94 159.72 L 151.00 158.72 C 151.06 157.77 150.34 156.96 149.39 156.90 C 148.44 156.85 147.63 157.57 147.57 158.52 Z M 147.51 159.51 L 147.44 160.52 C 147.39 161.47 148.11 162.28 149.06 162.34 C 150.01 162.40 150.83 161.68 150.89 160.73 L 150.95 159.72 C 151.01 158.77 150.28 157.95 149.33 157.90 C 148.38 157.84 147.56 158.56 147.51 159.51 Z M 147.44 160.51 L 147.38 161.51 C 147.32 162.47 148.05 163.29 149.00 163.35 C 149.95 163.40 150.77 162.68 150.83 161.73 L 150.89 160.73 C 150.95 159.77 150.23 158.95 149.27 158.89 C 148.32 158.83 147.50 159.56 147.44 160.51 Z M 147.37 161.51 L 147.31 162.50 C 147.25 163.46 147.98 164.29 148.94 164.34 C 149.89 164.40 150.72 163.68 150.78 162.72 L 150.84 161.73 C 150.90 160.77 150.17 159.95 149.21 159.89 C 148.26 159.83 147.43 160.55 147.37 161.51 Z M 147.31 162.50 L 147.24 163.50 C 147.18 164.46 147.91 165.29 148.87 165.35 C 149.83 165.41 150.66 164.68 150.72 163.72 L 150.78 162.72 C 150.84 161.76 150.11 160.94 149.16 160.88 C 148.20 160.81 147.37 161.54 147.31 162.50 Z M 147.24 163.49 L 147.17 164.49 C 147.10 165.46 147.83 166.29 148.79 166.35 C 149.76 166.42 150.59 165.69 150.65 164.73 L 150.72 163.73 C 150.79 162.77 150.06 161.93 149.10 161.87 C 148.14 161.80 147.30 162.53 147.24 163.49 Z M 147.17 164.48 L 147.09 165.48 C 147.02 166.45 147.75 167.29 148.71 167.36 C 149.67 167.43 150.51 166.70 150.58 165.74 L 150.66 164.74 C 150.73 163.78 150.00 162.94 149.04 162.87 C 148.08 162.80 147.24 163.52 147.17 164.48 Z M 147.09 165.47 L 147.01 166.46 C 146.93 167.43 147.65 168.27 148.62 168.35 C 149.59 168.43 150.43 167.70 150.51 166.74 L 150.59 165.75 C 150.66 164.79 149.94 163.94 148.98 163.86 C 148.01 163.79 147.17 164.51 147.09 165.47 Z M 147.01 166.45 L 146.92 167.44 C 146.84 168.41 147.56 169.26 148.53 169.34 C 149.50 169.42 150.35 168.71 150.43 167.74 L 150.51 166.75 C 150.59 165.78 149.87 164.93 148.91 164.85 C 147.94 164.77 147.09 165.48 147.01 166.45 Z M 146.92 167.44 L 146.84 168.43 C 146.75 169.40 147.47 170.26 148.44 170.34 C 149.40 170.43 150.26 169.71 150.34 168.74 L 150.43 167.74 C 150.51 166.78 149.80 165.92 148.83 165.84 C 147.86 165.75 147.01 166.47 146.92 167.44 Z M 146.83 168.43 L 146.74 169.44 C 146.66 170.41 147.37 171.26 148.34 171.35 C 149.31 171.44 150.17 170.72 150.26 169.75 L 150.35 168.74 C 150.43 167.77 149.71 166.92 148.74 166.83 C 147.77 166.74 146.92 167.46 146.83 168.43 Z M 146.74 169.44 L 146.65 170.46 C 146.57 171.43 147.28 172.29 148.26 172.37 C 149.23 172.46 150.08 171.74 150.17 170.77 L 150.26 169.75 C 150.35 168.78 149.63 167.92 148.65 167.83 C 147.68 167.75 146.83 168.47 146.74 169.44 Z M 146.65 170.46 L 146.56 171.48 C 146.48 172.45 147.20 173.31 148.17 173.40 C 149.14 173.48 150.00 172.76 150.08 171.79 L 150.17 170.76 C 150.26 169.79 149.54 168.93 148.56 168.85 C 147.59 168.77 146.73 169.49 146.65 170.46 Z M 146.56 171.48 L 146.47 172.49 C 146.39 173.47 147.11 174.32 148.09 174.41 C 149.06 174.49 149.92 173.77 150.00 172.79 L 150.09 171.78 C 150.17 170.81 149.45 169.95 148.47 169.87 C 147.50 169.79 146.64 170.51 146.56 171.48 Z M 146.47 172.49 L 146.39 173.48 C 146.31 174.45 147.03 175.31 148.01 175.39 C 148.98 175.47 149.84 174.75 149.92 173.77 L 150.00 172.79 C 150.09 171.81 149.36 170.96 148.38 170.87 C 147.41 170.79 146.55 171.52 146.47 172.49 Z M 146.38 173.48 L 146.30 174.47 C 146.22 175.44 146.95 176.30 147.93 176.38 C 148.91 176.46 149.77 175.73 149.84 174.75 L 149.92 173.77 C 150.00 172.79 149.28 171.93 148.30 171.85 C 147.32 171.77 146.46 172.50 146.38 173.48 Z M 146.30 174.47 L 146.22 175.53 C 146.14 176.50 146.87 177.36 147.85 177.44 C 148.83 177.52 149.69 176.78 149.77 175.80 L 149.85 174.75 C 149.93 173.77 149.19 172.91 148.21 172.84 C 147.23 172.76 146.38 173.49 146.30 174.47 Z M 146.21 175.53 L 146.14 176.52 C 146.06 177.50 146.80 178.36 147.78 178.44 C 148.76 178.51 149.62 177.78 149.69 176.80 L 149.77 175.80 C 149.84 174.82 149.11 173.96 148.13 173.89 C 147.15 173.81 146.29 174.55 146.21 175.53 Z M 146.13 176.52 L 146.06 177.47 C 145.98 178.45 146.72 179.31 147.70 179.39 C 148.69 179.46 149.55 178.73 149.62 177.74 L 149.70 176.80 C 149.77 175.81 149.04 174.95 148.05 174.88 C 147.07 174.80 146.21 175.54 146.13 176.52 Z M 146.06 177.46 L 145.98 178.39 C 145.91 179.38 146.64 180.24 147.63 180.32 C 148.61 180.39 149.48 179.66 149.55 178.67 L 149.63 177.75 C 149.70 176.76 148.97 175.90 147.98 175.82 C 147.00 175.74 146.13 176.48 146.06 177.46 Z M 145.98 178.39 L 145.91 179.33 C 145.83 180.32 146.57 181.18 147.56 181.26 C 148.54 181.33 149.41 180.60 149.48 179.61 L 149.56 178.67 C 149.64 177.68 148.90 176.82 147.91 176.74 C 146.92 176.66 146.06 177.40 145.98 178.39 Z M 145.90 179.33 L 145.83 180.33 C 145.75 181.32 146.50 182.18 147.49 182.25 C 148.48 182.33 149.34 181.58 149.42 180.59 L 149.49 179.60 C 149.56 178.61 148.82 177.75 147.83 177.67 C 146.84 177.60 145.97 178.34 145.90 179.33 Z M 145.82 180.34 L 145.75 181.44 C 145.68 182.43 146.43 183.29 147.43 183.36 C 148.42 183.42 149.28 182.67 149.35 181.68 L 149.42 180.58 C 149.49 179.58 148.74 178.72 147.74 178.66 C 146.75 178.59 145.89 179.34 145.82 180.34 Z M 145.75 181.45 L 145.69 182.36 C 145.63 183.35 146.39 184.21 147.39 184.27 C 148.38 184.33 149.24 183.57 149.30 182.57 L 149.35 181.66 C 149.41 180.67 148.65 179.81 147.66 179.75 C 146.66 179.69 145.80 180.45 145.75 181.45 Z M 145.69 182.37 L 145.64 183.34 C 145.59 184.33 146.35 185.18 147.35 185.24 C 148.34 185.29 149.20 184.52 149.25 183.53 L 149.30 182.56 C 149.35 181.56 148.59 180.71 147.59 180.66 C 146.59 180.61 145.74 181.37 145.69 182.37 Z M 145.64 183.35 L 145.59 184.37 C 145.54 185.36 146.32 186.21 147.31 186.26 C 148.31 186.30 149.16 185.53 149.20 184.53 L 149.25 183.51 C 149.30 182.52 148.52 181.67 147.53 181.63 C 146.53 181.58 145.68 182.35 145.64 183.35 Z M 145.59 184.38 L 145.55 185.43 C 145.51 186.43 146.29 187.27 147.29 187.31 C 148.29 187.34 149.13 186.57 149.16 185.57 L 149.20 184.52 C 149.24 183.52 148.46 182.68 147.47 182.64 C 146.47 182.60 145.63 183.38 145.59 184.38 Z M 145.55 185.44 L 145.52 186.52 C 145.49 187.52 146.27 188.35 147.27 188.38 C 148.27 188.41 149.10 187.63 149.13 186.63 L 149.16 185.55 C 149.19 184.55 148.41 183.72 147.41 183.69 C 146.41 183.66 145.58 184.45 145.55 185.44 Z M 145.52 186.55 L 145.50 187.85 C 145.49 188.85 146.28 189.67 147.28 189.69 C 148.28 189.70 149.10 188.90 149.12 187.90 L 149.13 186.60 C 149.15 185.60 148.35 184.78 147.35 184.77 C 146.35 184.75 145.53 185.55 145.52 186.55 Z M 145.50 187.94 L 145.54 189.09 C 145.57 190.09 146.40 190.87 147.40 190.84 C 148.40 190.81 149.18 189.97 149.15 188.97 L 149.11 187.82 C 149.08 186.82 148.25 186.04 147.25 186.07 C 146.25 186.10 145.47 186.94 145.50 187.94 Z M 145.56 189.29 L 145.68 190.16 C 145.83 191.15 146.75 191.84 147.73 191.69 C 148.72 191.55 149.40 190.63 149.26 189.64 L 149.13 188.77 C 148.99 187.78 148.07 187.10 147.08 187.24 C 146.09 187.39 145.41 188.31 145.56 189.29 Z M 145.92 190.82 L 146.19 191.28 C 146.69 192.14 147.80 192.42 148.66 191.92 C 149.52 191.41 149.80 190.30 149.30 189.44 L 149.03 188.99 C 148.52 188.13 147.41 187.84 146.56 188.35 C 145.70 188.85 145.41 189.96 145.92 190.82 Z M 148.31 192.06 L 148.89 191.87 C 149.83 191.55 150.33 190.54 150.02 189.60 C 149.70 188.66 148.69 188.15 147.75 188.47 L 147.17 188.66 C 146.23 188.98 145.73 189.99 146.04 190.93 C 146.36 191.87 147.37 192.37 148.31 192.06 Z M 149.63 191.35 L 150.37 190.54 C 151.02 189.81 150.97 188.69 150.24 188.04 C 149.51 187.38 148.40 187.44 147.74 188.17 L 147.01 188.98 C 146.35 189.71 146.41 190.83 147.14 191.48 C 147.86 192.13 148.98 192.08 149.63 191.35 Z M 150.48 190.36 L 151.19 189.35 C 151.75 188.56 151.57 187.48 150.78 186.92 C 150.00 186.36 148.91 186.55 148.35 187.33 L 147.63 188.34 C 147.08 189.13 147.26 190.22 148.05 190.77 C 148.83 191.33 149.92 191.15 150.48 190.36 Z M 151.20 189.28 L 151.76 188.42 C 152.28 187.63 152.06 186.57 151.27 186.05 C 150.48 185.54 149.42 185.76 148.90 186.55 L 148.34 187.41 C 147.82 188.20 148.05 189.26 148.84 189.77 C 149.63 190.29 150.69 190.07 151.20 189.28 Z M 151.75 188.37 L 152.28 187.51 C 152.77 186.72 152.53 185.69 151.75 185.21 C 150.96 184.72 149.93 184.96 149.44 185.75 L 148.91 186.60 C 148.43 187.39 148.67 188.42 149.45 188.90 C 150.23 189.39 151.26 189.15 151.75 188.37 Z M 152.26 187.47 L 152.77 186.63 C 153.23 185.85 152.98 184.85 152.21 184.39 C 151.43 183.92 150.43 184.17 149.97 184.95 L 149.46 185.79 C 149.00 186.56 149.25 187.56 150.03 188.03 C 150.80 188.49 151.80 188.24 152.26 187.47 Z M 152.74 186.59 L 153.24 185.74 C 153.69 184.98 153.44 184.00 152.68 183.56 C 151.92 183.11 150.94 183.37 150.49 184.13 L 149.99 184.98 C 149.55 185.74 149.80 186.72 150.56 187.16 C 151.32 187.61 152.30 187.35 152.74 186.59 Z M 153.22 185.72 L 153.72 184.86 C 154.15 184.11 153.90 183.16 153.15 182.72 C 152.40 182.29 151.45 182.54 151.01 183.29 L 150.51 184.15 C 150.08 184.89 150.33 185.85 151.08 186.29 C 151.83 186.72 152.79 186.47 153.22 185.72 Z M 153.69 184.85 L 154.19 183.99 C 154.62 183.26 154.37 182.32 153.63 181.89 C 152.90 181.47 151.96 181.72 151.53 182.45 L 151.04 183.30 C 150.61 184.04 150.86 184.98 151.60 185.40 C 152.33 185.83 153.27 185.58 153.69 184.85 Z M 154.16 183.98 L 154.67 183.12 C 155.09 182.40 154.85 181.47 154.13 181.05 C 153.41 180.63 152.49 180.88 152.06 181.60 L 151.56 182.46 C 151.14 183.18 151.38 184.10 152.10 184.52 C 152.82 184.94 153.74 184.70 154.16 183.98 Z M 154.65 183.11 L 155.14 182.28 C 155.56 181.58 155.32 180.66 154.61 180.24 C 153.91 179.83 152.99 180.06 152.58 180.77 L 152.09 181.60 C 151.67 182.31 151.90 183.22 152.61 183.64 C 153.32 184.06 154.23 183.82 154.65 183.11 Z M 155.13 182.28 L 155.64 181.42 C 156.05 180.72 155.82 179.81 155.12 179.40 C 154.42 178.98 153.51 179.21 153.10 179.91 L 152.59 180.77 C 152.17 181.47 152.40 182.38 153.10 182.80 C 153.80 183.21 154.71 182.98 155.13 182.28 Z M 155.63 181.41 L 156.15 180.53 C 156.56 179.84 156.33 178.94 155.64 178.53 C 154.94 178.12 154.04 178.35 153.63 179.04 L 153.11 179.92 C 152.70 180.62 152.92 181.51 153.62 181.93 C 154.32 182.34 155.21 182.11 155.63 181.41 Z M 156.14 180.53 L 156.66 179.65 C 157.06 178.96 156.83 178.07 156.14 177.66 C 155.45 177.25 154.56 177.48 154.15 178.18 L 153.64 179.05 C 153.23 179.74 153.46 180.63 154.15 181.04 C 154.84 181.45 155.73 181.22 156.14 180.53 Z M 156.65 179.64 L 157.15 178.79 C 157.55 178.11 157.32 177.22 156.63 176.82 C 155.94 176.41 155.05 176.65 154.65 177.34 L 154.16 178.18 C 153.75 178.87 153.98 179.76 154.67 180.16 C 155.36 180.56 156.25 180.33 156.65 179.64 Z M 157.14 178.79 L 157.65 177.93 C 158.05 177.24 157.81 176.36 157.13 175.96 C 156.44 175.56 155.56 175.79 155.16 176.48 L 154.66 177.34 C 154.26 178.03 154.49 178.91 155.17 179.31 C 155.86 179.71 156.74 179.48 157.14 178.79 Z M 157.64 177.93 L 158.15 177.06 C 158.55 176.37 158.32 175.50 157.64 175.09 C 156.96 174.69 156.08 174.92 155.68 175.61 L 155.16 176.48 C 154.76 177.16 154.99 178.04 155.68 178.44 C 156.36 178.84 157.24 178.61 157.64 177.93 Z M 158.14 177.06 L 158.66 176.19 C 159.06 175.51 158.84 174.64 158.16 174.23 C 157.48 173.83 156.60 174.06 156.20 174.74 L 155.68 175.60 C 155.28 176.28 155.51 177.16 156.19 177.56 C 156.87 177.97 157.74 177.74 158.14 177.06 Z M 158.65 176.20 L 159.16 175.35 C 159.56 174.67 159.34 173.80 158.67 173.39 C 157.99 172.99 157.11 173.21 156.71 173.88 L 156.20 174.73 C 155.80 175.41 156.02 176.28 156.69 176.69 C 157.37 177.09 158.25 176.87 158.65 176.20 Z M 159.16 175.35 L 159.67 174.50 C 160.08 173.82 159.86 172.94 159.19 172.54 C 158.51 172.13 157.63 172.35 157.23 173.02 L 156.71 173.88 C 156.30 174.56 156.52 175.43 157.20 175.84 C 157.87 176.25 158.75 176.03 159.16 175.35 Z M 159.67 174.50 L 160.19 173.64 C 160.60 172.96 160.39 172.08 159.71 171.68 C 159.04 171.27 158.16 171.48 157.75 172.16 L 157.23 173.02 C 156.82 173.70 157.04 174.57 157.71 174.98 C 158.38 175.39 159.26 175.17 159.67 174.50 Z M 160.19 173.64 L 160.67 172.84 C 161.08 172.17 160.87 171.30 160.19 170.89 C 159.52 170.48 158.64 170.69 158.23 171.37 L 157.75 172.16 C 157.35 172.83 157.56 173.71 158.23 174.12 C 158.91 174.52 159.78 174.31 160.19 173.64 Z"
      fill="black"
      fill-rule="nonzero" /><path d="M 174.51 148.11 L 173.74 148.70 C 173.05 149.23 172.92 150.21 173.45 150.89 C 173.98 151.58 174.96 151.71 175.64 151.18 L 176.41 150.59 C 177.10 150.07 177.23 149.08 176.70 148.40 C 176.17 147.71 175.19 147.59 174.51 148.11 Z M 173.70 148.71 L 172.93 149.32 C 172.25 149.87 172.14 150.87 172.69 151.55 C 173.24 152.24 174.23 152.34 174.92 151.80 L 175.68 151.18 C 176.37 150.63 176.47 149.63 175.93 148.95 C 175.38 148.27 174.38 148.16 173.70 148.71 Z M 172.86 149.35 L 172.10 150.02 C 171.43 150.60 171.37 151.62 171.95 152.29 C 172.54 152.96 173.55 153.02 174.22 152.44 L 174.98 151.77 C 175.65 151.18 175.72 150.17 175.13 149.50 C 174.55 148.83 173.53 148.77 172.86 149.35 Z M 172.02 150.07 L 171.30 150.78 C 170.66 151.41 170.65 152.44 171.28 153.08 C 171.91 153.72 172.94 153.72 173.58 153.09 L 174.30 152.39 C 174.94 151.76 174.95 150.73 174.32 150.09 C 173.69 149.45 172.66 149.44 172.02 150.07 Z M 171.23 150.84 L 170.57 151.56 C 169.97 152.23 170.02 153.26 170.68 153.87 C 171.35 154.48 172.39 154.43 172.99 153.76 L 173.65 153.04 C 174.26 152.37 174.21 151.33 173.54 150.73 C 172.87 150.12 171.84 150.17 171.23 150.84 Z M 170.52 151.61 L 169.88 152.38 C 169.30 153.08 169.40 154.11 170.09 154.69 C 170.79 155.27 171.82 155.18 172.40 154.48 L 173.04 153.71 C 173.62 153.01 173.53 151.98 172.83 151.40 C 172.14 150.82 171.10 150.91 170.52 151.61 Z M 169.84 152.42 L 169.22 153.23 C 168.66 153.95 168.79 154.98 169.51 155.54 C 170.23 156.09 171.26 155.96 171.81 155.25 L 172.44 154.44 C 173.00 153.72 172.87 152.69 172.15 152.13 C 171.43 151.58 170.40 151.71 169.84 152.42 Z M 169.19 153.26 L 168.60 154.07 C 168.06 154.80 168.22 155.83 168.95 156.37 C 169.69 156.91 170.72 156.75 171.25 156.02 L 171.84 155.21 C 172.38 154.48 172.22 153.45 171.49 152.91 C 170.76 152.37 169.72 152.53 169.19 153.26 Z M 168.57 154.10 L 168.03 154.88 C 167.51 155.62 167.69 156.65 168.44 157.17 C 169.18 157.69 170.21 157.51 170.73 156.76 L 171.28 155.99 C 171.80 155.24 171.62 154.21 170.87 153.69 C 170.12 153.17 169.10 153.35 168.57 154.10 Z M 168.01 154.90 L 167.47 155.71 C 166.97 156.47 167.17 157.49 167.93 158.00 C 168.68 158.50 169.71 158.30 170.21 157.54 L 170.75 156.74 C 171.26 155.98 171.05 154.96 170.30 154.45 C 169.54 153.94 168.52 154.15 168.01 154.90 Z M 167.46 155.74 L 166.91 156.59 C 166.42 157.35 166.64 158.37 167.41 158.87 C 168.17 159.36 169.19 159.13 169.68 158.37 L 170.23 157.52 C 170.72 156.75 170.50 155.73 169.73 155.24 C 168.97 154.75 167.95 154.97 167.46 155.74 Z M 166.90 156.61 L 166.33 157.53 C 165.85 158.30 166.09 159.32 166.86 159.79 C 167.63 160.27 168.65 160.04 169.13 159.26 L 169.70 158.35 C 170.18 157.57 169.94 156.56 169.16 156.08 C 168.39 155.60 167.38 155.84 166.90 156.61 Z M 166.32 157.54 L 165.80 158.41 C 165.33 159.19 165.58 160.20 166.36 160.67 C 167.13 161.14 168.14 160.89 168.61 160.11 L 169.14 159.25 C 169.61 158.47 169.36 157.46 168.58 156.99 C 167.80 156.52 166.79 156.77 166.32 157.54 Z M 165.80 158.42 L 165.27 159.31 C 164.81 160.09 165.06 161.09 165.84 161.56 C 166.62 162.02 167.63 161.76 168.09 160.98 L 168.62 160.10 C 169.08 159.32 168.82 158.31 168.04 157.85 C 167.27 157.39 166.26 157.64 165.80 158.42 Z M 165.27 159.32 L 164.75 160.21 C 164.29 160.99 164.55 161.99 165.33 162.45 C 166.11 162.91 167.11 162.64 167.56 161.87 L 168.09 160.97 C 168.54 160.20 168.28 159.19 167.51 158.74 C 166.73 158.28 165.73 158.54 165.27 159.32 Z M 164.75 160.22 L 164.24 161.09 C 163.79 161.87 164.05 162.87 164.83 163.32 C 165.61 163.77 166.61 163.51 167.06 162.73 L 167.56 161.86 C 168.01 161.08 167.75 160.09 166.97 159.63 C 166.20 159.18 165.20 159.45 164.75 160.22 Z M 164.25 161.10 L 163.77 161.92 C 163.33 162.69 163.59 163.68 164.37 164.13 C 165.14 164.58 166.13 164.32 166.58 163.54 L 167.05 162.72 C 167.50 161.95 167.24 160.95 166.46 160.51 C 165.69 160.06 164.69 160.32 164.25 161.10 Z M 163.79 161.93 L 163.25 162.86 C 162.81 163.63 163.07 164.61 163.84 165.05 C 164.61 165.49 165.59 165.23 166.03 164.46 L 166.57 163.53 C 167.01 162.76 166.75 161.78 165.98 161.34 C 165.21 160.90 164.23 161.16 163.79 161.93 Z M 163.28 162.87 L 162.77 163.74 C 162.34 164.49 162.59 165.45 163.35 165.89 C 164.10 166.33 165.06 166.07 165.50 165.32 L 166.00 164.45 C 166.44 163.70 166.18 162.73 165.43 162.30 C 164.68 161.86 163.71 162.12 163.28 162.87 Z M 162.81 163.74 L 162.33 164.56 C 161.89 165.29 162.13 166.24 162.87 166.67 C 163.60 167.11 164.55 166.86 164.98 166.13 L 165.46 165.32 C 165.90 164.58 165.66 163.64 164.92 163.20 C 164.19 162.77 163.24 163.01 162.81 163.74 Z M 162.36 164.55 L 161.87 165.37 C 161.43 166.08 161.65 167.01 162.36 167.45 C 163.08 167.88 164.01 167.66 164.44 166.95 L 164.94 166.13 C 165.38 165.42 165.16 164.49 164.44 164.05 C 163.73 163.62 162.80 163.84 162.36 164.55 Z M 161.90 165.36 L 161.39 166.15 C 160.95 166.85 161.16 167.77 161.85 168.21 C 162.55 168.65 163.47 168.44 163.91 167.75 L 164.41 166.95 C 164.85 166.26 164.65 165.34 163.95 164.90 C 163.26 164.46 162.34 164.66 161.90 165.36 Z M 161.41 166.15 L 160.87 166.98 C 160.43 167.66 160.62 168.57 161.31 169.02 C 161.99 169.46 162.90 169.27 163.35 168.59 L 163.89 167.76 C 164.33 167.07 164.14 166.16 163.45 165.71 C 162.77 165.27 161.86 165.46 161.41 166.15 Z M 160.89 166.98 L 160.33 167.83 C 159.88 168.50 160.07 169.41 160.74 169.85 C 161.41 170.30 162.32 170.11 162.76 169.44 L 163.33 168.59 C 163.77 167.91 163.59 167.01 162.91 166.56 C 162.24 166.12 161.34 166.30 160.89 166.98 Z M 160.34 167.83 L 159.76 168.70 C 159.32 169.36 159.50 170.26 160.17 170.71 C 160.83 171.15 161.73 170.97 162.17 170.30 L 162.75 169.44 C 163.19 168.77 163.01 167.87 162.35 167.43 C 161.68 166.99 160.78 167.17 160.34 167.83 Z M 159.77 168.70 L 159.71 168.79 C 159.27 169.45 159.45 170.35 160.11 170.79 C 160.77 171.23 161.66 171.05 162.11 170.39 L 162.17 170.30 C 162.61 169.64 162.43 168.74 161.77 168.30 C 161.11 167.86 160.21 168.04 159.77 168.70 Z"
      fill="black"
      fill-rule="nonzero" /><path d="M 157.96 162.26 L 158.44 163.14 C 158.84 163.90 159.79 164.18 160.54 163.77 C 161.29 163.36 161.57 162.42 161.16 161.66 L 160.69 160.78 C 160.28 160.03 159.33 159.75 158.58 160.16 C 157.83 160.57 157.55 161.51 157.96 162.26 Z M 158.42 163.19 L 158.91 164.06 C 159.34 164.82 160.31 165.09 161.08 164.66 C 161.84 164.22 162.11 163.25 161.68 162.49 L 161.18 161.62 C 160.75 160.86 159.78 160.59 159.01 161.02 C 158.25 161.46 157.98 162.42 158.42 163.19 Z M 158.91 164.13 L 159.44 164.98 C 159.91 165.74 160.91 165.98 161.68 165.51 C 162.44 165.03 162.67 164.03 162.20 163.27 L 161.68 162.42 C 161.20 161.65 160.20 161.42 159.44 161.89 C 158.67 162.37 158.44 163.37 158.91 164.13 Z M 159.46 165.08 L 160.03 165.89 C 160.56 166.64 161.59 166.82 162.34 166.29 C 163.09 165.76 163.27 164.73 162.75 163.98 L 162.18 163.17 C 161.65 162.42 160.61 162.24 159.86 162.76 C 159.11 163.29 158.93 164.33 159.46 165.08 Z M 160.09 165.99 L 160.67 166.71 C 161.26 167.43 162.31 167.54 163.03 166.96 C 163.75 166.37 163.86 165.32 163.28 164.60 L 162.69 163.87 C 162.11 163.15 161.05 163.05 160.33 163.63 C 159.61 164.21 159.50 165.27 160.09 165.99 Z M 160.74 166.79 L 161.40 167.50 C 162.02 168.18 163.08 168.22 163.77 167.59 C 164.45 166.96 164.49 165.90 163.86 165.22 L 163.21 164.52 C 162.58 163.84 161.52 163.79 160.84 164.42 C 160.16 165.05 160.11 166.11 160.74 166.79 Z M 161.46 167.56 L 162.19 168.27 C 162.85 168.91 163.91 168.90 164.56 168.23 C 165.20 167.57 165.19 166.51 164.52 165.86 L 163.79 165.16 C 163.13 164.51 162.07 164.53 161.42 165.19 C 160.78 165.86 160.79 166.92 161.46 167.56 Z M 162.24 168.32 L 163.05 169.04 C 163.75 169.66 164.81 169.60 165.42 168.90 C 166.04 168.21 165.97 167.15 165.28 166.54 L 164.47 165.81 C 163.78 165.20 162.72 165.26 162.10 165.95 C 161.49 166.64 161.55 167.70 162.24 168.32 Z M 163.09 169.07 L 163.86 169.71 C 164.56 170.31 165.62 170.21 166.22 169.51 C 166.81 168.80 166.72 167.74 166.01 167.15 L 165.24 166.51 C 164.54 165.91 163.48 166.01 162.89 166.72 C 162.29 167.42 162.38 168.48 163.09 169.07 Z M 163.88 169.73 L 164.68 170.37 C 165.40 170.95 166.45 170.84 167.03 170.12 C 167.61 169.40 167.49 168.35 166.78 167.77 L 165.98 167.13 C 165.26 166.55 164.21 166.66 163.63 167.38 C 163.05 168.10 163.16 169.15 163.88 169.73 Z M 164.70 170.39 L 165.51 171.02 C 166.24 171.59 167.29 171.46 167.86 170.73 C 168.42 170.00 168.29 168.95 167.57 168.39 L 166.75 167.75 C 166.03 167.19 164.98 167.32 164.41 168.04 C 163.84 168.77 163.97 169.82 164.70 170.39 Z M 165.53 171.03 L 166.34 171.64 C 167.07 172.20 168.12 172.06 168.67 171.32 C 169.23 170.59 169.09 169.54 168.35 168.99 L 167.55 168.38 C 166.82 167.82 165.77 167.96 165.21 168.70 C 164.66 169.43 164.80 170.48 165.53 171.03 Z M 166.35 171.65 L 167.12 172.22 C 167.86 172.77 168.91 172.62 169.45 171.88 C 170.00 171.14 169.85 170.10 169.11 169.55 L 168.34 168.98 C 167.60 168.43 166.56 168.58 166.01 169.32 C 165.46 170.06 165.62 171.10 166.35 171.65 Z M 167.14 172.23 L 168.03 172.87 C 168.77 173.41 169.81 173.24 170.34 172.50 C 170.88 171.76 170.71 170.72 169.97 170.18 L 169.09 169.54 C 168.35 169.01 167.31 169.17 166.77 169.91 C 166.23 170.66 166.40 171.69 167.14 172.23 Z M 168.05 172.88 L 168.88 173.46 C 169.62 173.98 170.65 173.80 171.18 173.06 C 171.70 172.31 171.52 171.28 170.78 170.76 L 169.95 170.18 C 169.20 169.65 168.17 169.83 167.65 170.58 C 167.12 171.32 167.30 172.35 168.05 172.88 Z M 168.90 173.46 L 169.69 174.00 C 170.44 174.51 171.46 174.32 171.97 173.57 C 172.48 172.82 172.29 171.80 171.54 171.29 L 170.75 170.75 C 170.01 170.24 168.98 170.43 168.47 171.18 C 167.96 171.93 168.15 172.95 168.90 173.46 Z M 169.71 174.01 L 170.49 174.53 C 171.24 175.03 172.26 174.82 172.76 174.07 C 173.26 173.32 173.05 172.31 172.30 171.81 L 171.52 171.29 C 170.77 170.79 169.76 170.99 169.26 171.74 C 168.76 172.49 168.96 173.51 169.71 174.01 Z M 170.51 174.53 L 171.30 175.04 C 172.05 175.54 173.06 175.32 173.55 174.57 C 174.04 173.82 173.83 172.82 173.08 172.33 L 172.29 171.81 C 171.53 171.32 170.53 171.53 170.04 172.28 C 169.55 173.03 169.76 174.03 170.51 174.53 Z M 171.32 175.05 L 172.14 175.57 C 172.90 176.05 173.89 175.83 174.38 175.08 C 174.86 174.33 174.64 173.33 173.88 172.85 L 173.06 172.32 C 172.31 171.84 171.31 172.06 170.83 172.81 C 170.35 173.57 170.57 174.57 171.32 175.05 Z M 172.17 175.58 L 173.03 176.11 C 173.78 176.58 174.77 176.35 175.24 175.60 C 175.71 174.84 175.48 173.85 174.72 173.38 L 173.86 172.85 C 173.11 172.38 172.12 172.61 171.65 173.36 C 171.18 174.12 171.41 175.11 172.17 175.58 Z M 173.05 176.12 L 173.96 176.66 C 174.71 177.12 175.70 176.87 176.15 176.11 C 176.61 175.36 176.36 174.38 175.60 173.92 L 174.70 173.38 C 173.94 172.92 172.96 173.17 172.50 173.92 C 172.05 174.68 172.29 175.66 173.05 176.12 Z M 173.98 176.67 L 174.83 177.16 C 175.59 177.60 176.56 177.34 177.00 176.58 C 177.44 175.82 177.18 174.85 176.42 174.41 L 175.58 173.92 C 174.82 173.47 173.85 173.73 173.40 174.49 C 172.96 175.25 173.22 176.23 173.98 176.67 Z M 174.85 177.16 L 175.72 177.65 C 176.48 178.08 177.45 177.81 177.88 177.05 C 178.30 176.29 178.03 175.32 177.27 174.89 L 176.40 174.40 C 175.64 173.98 174.68 174.25 174.25 175.01 C 173.82 175.77 174.09 176.73 174.85 177.16 Z M 175.74 177.65 L 176.63 178.14 C 177.39 178.55 178.35 178.27 178.77 177.51 C 179.18 176.75 178.90 175.79 178.14 175.38 L 177.25 174.89 C 176.49 174.48 175.54 174.76 175.12 175.52 C 174.70 176.28 174.98 177.24 175.74 177.65 Z M 176.65 178.14 L 177.55 178.61 C 178.31 179.02 179.25 178.73 179.66 177.96 C 180.06 177.20 179.77 176.26 179.01 175.85 L 178.12 175.38 C 177.36 174.97 176.41 175.26 176.01 176.02 C 175.60 176.79 175.89 177.73 176.65 178.14 Z M 177.57 178.61 L 178.47 179.08 C 179.23 179.47 180.17 179.17 180.56 178.41 C 180.95 177.65 180.66 176.71 179.89 176.32 L 178.99 175.85 C 178.23 175.46 177.29 175.76 176.90 176.52 C 176.51 177.28 176.80 178.22 177.57 178.61 Z M 178.49 179.08 L 179.39 179.53 C 180.16 179.92 181.08 179.61 181.47 178.85 C 181.85 178.08 181.54 177.16 180.78 176.77 L 179.87 176.32 C 179.11 175.94 178.18 176.24 177.80 177.00 C 177.42 177.77 177.73 178.69 178.49 179.08 Z M 179.41 179.53 L 180.31 179.97 C 181.07 180.34 181.99 180.03 182.36 179.27 C 182.73 178.50 182.42 177.59 181.66 177.21 L 180.76 176.77 C 180.00 176.40 179.08 176.72 178.71 177.48 C 178.34 178.24 178.65 179.16 179.41 179.53 Z M 180.33 179.97 L 181.22 180.39 C 181.98 180.76 182.89 180.43 183.25 179.67 C 183.61 178.92 183.29 178.01 182.53 177.64 L 181.64 177.22 C 180.88 176.85 179.97 177.18 179.61 177.93 C 179.25 178.69 179.57 179.60 180.33 179.97 Z M 181.23 180.39 L 182.13 180.81 C 182.88 181.16 183.78 180.83 184.14 180.08 C 184.49 179.32 184.17 178.42 183.41 178.06 L 182.52 177.65 C 181.76 177.29 180.86 177.62 180.50 178.38 C 180.15 179.13 180.48 180.03 181.23 180.39 Z M 182.14 180.80 L 183.05 181.22 C 183.80 181.57 184.70 181.24 185.04 180.48 C 185.39 179.73 185.06 178.83 184.31 178.49 L 183.40 178.07 C 182.64 177.72 181.75 178.05 181.40 178.81 C 181.05 179.56 181.38 180.46 182.14 180.80 Z M 183.06 181.22 L 183.97 181.63 C 184.73 181.97 185.61 181.63 185.95 180.88 C 186.29 180.12 185.95 179.24 185.20 178.90 L 184.29 178.49 C 183.54 178.15 182.65 178.49 182.31 179.24 C 181.97 179.99 182.31 180.88 183.06 181.22 Z M 183.99 181.62 L 184.90 182.03 C 185.65 182.36 186.53 182.02 186.86 181.27 C 187.19 180.51 186.85 179.64 186.10 179.31 L 185.19 178.90 C 184.44 178.57 183.56 178.91 183.23 179.66 C 182.90 180.42 183.24 181.29 183.99 181.62 Z M 184.92 182.02 L 185.84 182.42 C 186.59 182.74 187.46 182.39 187.78 181.64 C 188.10 180.90 187.75 180.03 187.00 179.70 L 186.08 179.31 C 185.34 178.99 184.47 179.33 184.14 180.08 C 183.82 180.83 184.17 181.70 184.92 182.02 Z M 185.85 182.42 L 186.78 182.80 C 187.53 183.12 188.39 182.76 188.70 182.01 C 189.01 181.27 188.66 180.41 187.91 180.09 L 186.99 179.71 C 186.24 179.39 185.38 179.75 185.07 180.49 C 184.75 181.24 185.11 182.10 185.85 182.42 Z M 186.79 182.80 L 187.72 183.18 C 188.47 183.48 189.32 183.12 189.63 182.37 C 189.93 181.63 189.57 180.77 188.82 180.47 L 187.89 180.09 C 187.15 179.79 186.29 180.15 185.99 180.90 C 185.69 181.65 186.05 182.50 186.79 182.80 Z M 187.74 183.18 L 188.67 183.54 C 189.42 183.84 190.26 183.47 190.56 182.72 C 190.85 181.97 190.48 181.13 189.74 180.84 L 188.80 180.47 C 188.06 180.18 187.21 180.54 186.92 181.29 C 186.62 182.04 186.99 182.88 187.74 183.18 Z M 188.69 183.54 L 189.63 183.90 C 190.37 184.18 191.21 183.80 191.49 183.06 C 191.77 182.31 191.40 181.47 190.65 181.19 L 189.72 180.84 C 188.97 180.55 188.13 180.93 187.85 181.68 C 187.57 182.43 187.94 183.26 188.69 183.54 Z M 189.65 183.90 L 190.59 184.24 C 191.34 184.51 192.16 184.13 192.44 183.38 C 192.71 182.63 192.32 181.80 191.57 181.53 L 190.63 181.19 C 189.88 180.92 189.05 181.30 188.78 182.05 C 188.51 182.80 188.90 183.63 189.65 183.90 Z M 190.60 184.24 L 191.55 184.58 C 192.30 184.84 193.12 184.44 193.38 183.69 C 193.65 182.94 193.25 182.12 192.50 181.86 L 191.56 181.53 C 190.81 181.27 189.99 181.66 189.72 182.41 C 189.46 183.16 189.85 183.98 190.60 184.24 Z M 191.56 184.58 L 192.51 184.90 C 193.26 185.15 194.07 184.75 194.33 184.00 C 194.59 183.25 194.18 182.44 193.43 182.18 L 192.49 181.86 C 191.74 181.60 190.92 182.00 190.67 182.75 C 190.41 183.51 190.81 184.32 191.56 184.58 Z M 192.52 184.90 L 193.46 185.22 C 194.21 185.47 195.02 185.06 195.27 184.31 C 195.53 183.56 195.12 182.75 194.37 182.50 L 193.43 182.18 C 192.68 181.93 191.86 182.33 191.61 183.08 C 191.36 183.84 191.77 184.65 192.52 184.90 Z M 193.46 185.21 L 194.41 185.53 C 195.16 185.78 195.97 185.37 196.22 184.63 C 196.47 183.88 196.07 183.07 195.32 182.82 L 194.37 182.50 C 193.62 182.25 192.81 182.66 192.56 183.41 C 192.31 184.15 192.71 184.96 193.46 185.21 Z M 194.41 185.53 L 195.36 185.84 C 196.11 186.09 196.92 185.69 197.17 184.94 C 197.42 184.19 197.01 183.38 196.26 183.13 L 195.32 182.82 C 194.57 182.57 193.76 182.97 193.51 183.72 C 193.26 184.47 193.66 185.28 194.41 185.53 Z M 195.36 185.84 L 196.31 186.16 C 197.06 186.41 197.87 186.01 198.12 185.26 C 198.36 184.51 197.96 183.70 197.21 183.45 L 196.26 183.14 C 195.52 182.89 194.71 183.29 194.46 184.04 C 194.21 184.79 194.61 185.59 195.36 185.84 Z M 196.31 186.16 L 197.26 186.48 C 198.01 186.72 198.81 186.32 199.06 185.57 C 199.31 184.83 198.91 184.02 198.16 183.77 L 197.21 183.45 C 196.46 183.20 195.66 183.61 195.41 184.35 C 195.16 185.10 195.56 185.91 196.31 186.16 Z M 197.26 186.47 L 197.90 186.69 C 198.64 186.94 199.45 186.53 199.70 185.79 C 199.95 185.04 199.54 184.23 198.80 183.98 L 198.16 183.77 C 197.41 183.52 196.61 183.92 196.36 184.67 C 196.11 185.42 196.51 186.23 197.26 186.47 Z"
      fill="black"
      fill-rule="nonzero" /></svg>