<svg xmlns="http://www.w3.org/2000/svg" width="300" height="300" viewBox="0 0 300 300">
<path d="M 119.82 100.92 L 119.03 101.57 C 118.37 102.12 118.27 103.11 118.83 103.78 C 119.38 104.44 120.37 104.54 121.03 103.98 L 121.82 103.33 C 122.49 102.78 122.58 101.79 122.03 101.12 C 121.48 100.46 120.49 100.36 119.82 100.92 Z M 118.95 101.64 L 118.22 102.33 C 117.59 102.93 117.57 103.93 118.17 104.55 C 118.77 105.18 119.76 105.21 120.39 104.61 L 121.12 103.92 C 121.75 103.32 121.77 102.32 121.17 101.69 C 120.57 101.06 119.58 101.04 118.95 101.64 Z M 118.07 102.50 L 117.46 103.27 C 116.93 103.95 117.05 104.94 117.74 105.48 C 118.42 106.02 119.41 105.89 119.95 105.21 L 120.55 104.44 C 121.08 103.75 120.96 102.76 120.28 102.23 C 119.59 101.69 118.60 101.81 118.07 102.50 Z M 117.28 103.57 L 116.87 104.43 C 116.50 105.22 116.84 106.16 117.63 106.53 C 118.41 106.90 119.35 106.56 119.73 105.78 L 120.13 104.91 C 120.50 104.12 120.17 103.18 119.38 102.81 C 118.59 102.44 117.65 102.78 117.28 103.57 Z M 116.77 104.74 L 116.54 105.69 C 116.34 106.54 116.87 107.39 117.71 107.59 C 118.56 107.79 119.41 107.26 119.61 106.42 L 119.83 105.47 C 120.03 104.62 119.51 103.77 118.66 103.57 C 117.82 103.37 116.97 103.90 116.77 104.74 Z M 116.51 105.90 L 116.41 106.91 C 116.32 107.77 116.95 108.54 117.81 108.62 C 118.67 108.71 119.44 108.08 119.53 107.22 L 119.63 106.21 C 119.72 105.35 119.09 104.58 118.23 104.50 C 117.37 104.41 116.60 105.04 116.51 105.90 Z M 116.41 107.01 L 116.38 108.04 C 116.35 108.90 117.02 109.62 117.88 109.65 C 118.75 109.68 119.47 109.00 119.50 108.14 L 119.53 107.12 C 119.56 106.26 118.89 105.53 118.02 105.50 C 117.16 105.48 116.44 106.15 116.41 107.01 Z M 116.39 108.07 L 116.38 109.07 C 116.37 109.93 117.05 110.63 117.91 110.64 C 118.76 110.65 119.46 109.96 119.47 109.11 L 119.49 108.11 C 119.50 107.25 118.81 106.55 117.95 106.54 C 117.10 106.53 116.40 107.21 116.39 108.07 Z M 116.39 109.11 L 116.40 110.10 C 116.42 110.94 117.11 111.62 117.96 111.61 C 118.80 111.60 119.48 110.91 119.47 110.06 L 119.46 109.07 C 119.45 108.22 118.75 107.55 117.91 107.56 C 117.06 107.57 116.38 108.26 116.39 109.11 Z M 116.42 110.15 L 116.47 111.15 C 116.52 111.98 117.23 112.63 118.06 112.59 C 118.90 112.54 119.54 111.83 119.50 111.00 L 119.45 110.00 C 119.41 109.17 118.70 108.52 117.86 108.57 C 117.03 108.61 116.38 109.32 116.42 110.15 Z M 116.50 111.22 L 116.59 112.18 C 116.67 113.01 117.40 113.61 118.23 113.53 C 119.05 113.45 119.65 112.71 119.57 111.89 L 119.48 110.93 C 119.40 110.11 118.66 109.50 117.84 109.58 C 117.02 109.66 116.42 110.40 116.50 111.22 Z M 116.61 112.25 L 116.74 113.14 C 116.86 113.95 117.61 114.51 118.42 114.40 C 119.23 114.28 119.80 113.52 119.68 112.71 L 119.55 111.82 C 119.43 111.01 118.68 110.45 117.87 110.57 C 117.06 110.69 116.49 111.44 116.61 112.25 Z M 116.76 113.20 L 116.94 114.14 C 117.09 114.94 117.86 115.47 118.66 115.32 C 119.46 115.17 119.98 114.40 119.84 113.60 L 119.66 112.66 C 119.51 111.86 118.74 111.33 117.94 111.48 C 117.14 111.63 116.61 112.40 116.76 113.20 Z M 116.96 114.19 L 117.18 115.21 C 117.36 116.00 118.14 116.50 118.93 116.32 C 119.72 116.14 120.22 115.36 120.04 114.57 L 119.82 113.55 C 119.64 112.76 118.86 112.27 118.07 112.44 C 117.28 112.62 116.78 113.40 116.96 114.19 Z M 117.20 115.25 L 117.48 116.35 C 117.68 117.13 118.47 117.60 119.25 117.41 C 120.02 117.21 120.50 116.42 120.30 115.64 L 120.02 114.54 C 119.83 113.76 119.04 113.28 118.26 113.48 C 117.48 113.68 117.01 114.47 117.20 115.25 Z M 117.49 116.37 L 117.74 117.30 C 117.95 118.07 118.75 118.53 119.52 118.32 C 120.29 118.11 120.75 117.31 120.54 116.54 L 120.29 115.62 C 120.08 114.85 119.28 114.39 118.51 114.60 C 117.74 114.81 117.28 115.60 117.49 116.37 Z M 117.75 117.31 L 118.02 118.28 C 118.24 119.05 119.04 119.49 119.80 119.28 C 120.57 119.06 121.02 118.27 120.80 117.50 L 120.53 116.53 C 120.32 115.76 119.52 115.32 118.75 115.53 C 117.98 115.75 117.54 116.54 117.75 117.31 Z M 118.03 118.28 L 118.31 119.27 C 118.53 120.04 119.32 120.48 120.09 120.26 C 120.85 120.05 121.30 119.25 121.08 118.49 L 120.80 117.50 C 120.58 116.73 119.78 116.29 119.02 116.50 C 118.26 116.72 117.81 117.52 118.03 118.28 Z M 118.31 119.27 L 118.59 120.26 C 118.81 121.02 119.60 121.47 120.36 121.25 C 121.12 121.04 121.57 120.24 121.35 119.48 L 121.08 118.49 C 120.86 117.73 120.07 117.28 119.31 117.50 C 118.54 117.71 118.10 118.50 118.31 119.27 Z M 118.59 120.25 L 118.86 121.21 C 119.06 121.98 119.85 122.42 120.61 122.22 C 121.38 122.01 121.83 121.22 121.62 120.46 L 121.35 119.49 C 121.15 118.73 120.36 118.28 119.60 118.49 C 118.83 118.70 118.38 119.48 118.59 120.25 Z M 118.85 121.19 L 119.11 122.19 C 119.31 122.95 120.09 123.41 120.85 123.22 C 121.61 123.02 122.07 122.24 121.88 121.48 L 121.62 120.48 C 121.42 119.71 120.64 119.25 119.88 119.45 C 119.12 119.65 118.66 120.43 118.85 121.19 Z M 119.10 122.16 L 119.35 123.20 C 119.53 123.97 120.30 124.44 121.07 124.26 C 121.83 124.08 122.31 123.31 122.13 122.55 L 121.88 121.51 C 121.70 120.74 120.93 120.26 120.17 120.44 C 119.40 120.62 118.92 121.39 119.10 122.16 Z M 119.34 123.17 L 119.56 124.16 C 119.72 124.93 120.48 125.42 121.25 125.25 C 122.02 125.08 122.51 124.33 122.34 123.56 L 122.13 122.57 C 121.97 121.80 121.21 121.31 120.44 121.48 C 119.67 121.65 119.18 122.40 119.34 123.17 Z M 119.55 124.13 L 119.74 125.07 C 119.89 125.85 120.64 126.35 121.42 126.19 C 122.19 126.04 122.69 125.29 122.54 124.52 L 122.35 123.58 C 122.19 122.80 121.44 122.30 120.67 122.46 C 119.90 122.61 119.40 123.36 119.55 124.13 Z M 119.74 125.06 L 119.91 125.98 C 120.06 126.75 120.80 127.26 121.58 127.11 C 122.35 126.97 122.86 126.22 122.71 125.45 L 122.54 124.53 C 122.39 123.76 121.64 123.25 120.87 123.40 C 120.10 123.54 119.59 124.29 119.74 125.06 Z M 119.91 125.98 L 119.95 126.20 C 120.10 126.97 120.84 127.48 121.62 127.34 C 122.39 127.19 122.90 126.45 122.75 125.67 L 122.71 125.45 C 122.57 124.68 121.82 124.17 121.05 124.31 C 120.28 124.46 119.77 125.20 119.91 125.98 Z"
      fill="black"
      fill-rule="nonzero" /><path d="M 114.66 131.63 L 113.69 131.42 C 112.89 131.24 112.10 131.75 111.92 132.55 C 111.75 133.36 112.26 134.15 113.06 134.32 L 114.03 134.53 C 114.83 134.71 115.62 134.20 115.80 133.39 C 115.97 132.59 115.46 131.80 114.66 131.63 Z M 113.69 131.40 L 112.72 131.20 C 111.91 131.02 111.11 131.54 110.94 132.34 C 110.76 133.15 111.28 133.95 112.09 134.12 L 113.06 134.33 C 113.87 134.51 114.67 133.99 114.84 133.18 C 115.02 132.38 114.50 131.58 113.69 131.40 Z M 112.72 131.18 L 111.72 130.97 C 110.91 130.80 110.11 131.32 109.94 132.14 C 109.76 132.95 110.28 133.75 111.10 133.93 L 112.09 134.14 C 112.91 134.31 113.71 133.79 113.88 132.97 C 114.05 132.16 113.53 131.36 112.72 131.18 Z M 111.72 130.96 L 110.75 130.77 C 109.93 130.60 109.13 131.13 108.96 131.95 C 108.79 132.77 109.32 133.57 110.14 133.74 L 111.11 133.94 C 111.93 134.11 112.73 133.58 112.90 132.76 C 113.07 131.94 112.54 131.13 111.72 130.96 Z M 110.73 130.75 L 109.75 130.57 C 108.93 130.41 108.13 130.95 107.97 131.78 C 107.81 132.60 108.35 133.40 109.18 133.56 L 110.16 133.75 C 110.98 133.91 111.78 133.37 111.94 132.54 C 112.10 131.71 111.56 130.91 110.73 130.75 Z M 109.72 130.55 L 108.72 130.39 C 107.89 130.24 107.10 130.81 106.96 131.64 C 106.82 132.47 107.38 133.26 108.21 133.40 L 109.21 133.57 C 110.04 133.71 110.83 133.15 110.98 132.32 C 111.12 131.49 110.55 130.70 109.72 130.55 Z M 108.68 130.37 L 107.70 130.24 C 106.86 130.12 106.08 130.71 105.96 131.55 C 105.85 132.39 106.44 133.17 107.28 133.29 L 108.26 133.42 C 109.10 133.54 109.88 132.95 109.99 132.11 C 110.11 131.26 109.52 130.49 108.68 130.37 Z M 107.65 130.22 L 106.68 130.12 C 105.83 130.03 105.06 130.65 104.97 131.50 C 104.89 132.35 105.51 133.12 106.36 133.20 L 107.33 133.30 C 108.18 133.39 108.94 132.77 109.03 131.92 C 109.12 131.07 108.50 130.30 107.65 130.22 Z M 106.63 130.10 L 105.64 130.02 C 104.77 129.96 104.02 130.61 103.96 131.47 C 103.89 132.33 104.54 133.09 105.41 133.15 L 106.40 133.22 C 107.27 133.29 108.02 132.64 108.08 131.77 C 108.15 130.91 107.50 130.16 106.63 130.10 Z M 105.60 130.01 L 104.56 129.96 C 103.68 129.91 102.94 130.59 102.90 131.46 C 102.86 132.34 103.53 133.08 104.41 133.12 L 105.45 133.17 C 106.32 133.21 107.06 132.53 107.10 131.66 C 107.14 130.79 106.47 130.05 105.60 130.01 Z M 104.53 129.94 L 103.19 129.90 C 102.31 129.87 101.57 130.56 101.54 131.44 C 101.52 132.32 102.21 133.06 103.09 133.09 L 104.43 133.13 C 105.31 133.16 106.05 132.47 106.08 131.59 C 106.11 130.71 105.42 129.97 104.53 129.94 Z M 103.28 129.89 L 102.27 129.80 C 101.39 129.72 100.60 130.38 100.53 131.26 C 100.45 132.14 101.10 132.93 101.98 133.00 L 103.00 133.10 C 103.88 133.17 104.66 132.52 104.74 131.64 C 104.82 130.75 104.17 129.97 103.28 129.89 Z M 103.17 130.17 L 102.93 129.97 C 102.25 129.39 101.23 129.47 100.65 130.15 C 100.08 130.84 100.16 131.86 100.84 132.43 L 101.08 132.64 C 101.76 133.21 102.78 133.13 103.36 132.45 C 103.94 131.77 103.86 130.75 103.17 130.17 Z M 102.71 132.59 L 103.19 132.31 C 103.95 131.85 104.21 130.86 103.75 130.09 C 103.29 129.32 102.30 129.07 101.53 129.53 L 101.06 129.81 C 100.29 130.27 100.04 131.26 100.50 132.03 C 100.95 132.79 101.95 133.05 102.71 132.59 Z M 102.95 132.42 L 103.90 132.04 C 104.73 131.72 105.14 130.78 104.81 129.95 C 104.49 129.12 103.55 128.72 102.72 129.04 L 101.77 129.42 C 100.94 129.75 100.53 130.68 100.86 131.51 C 101.19 132.34 102.12 132.74 102.95 132.42 Z M 103.85 132.05 L 105.14 131.60 C 105.97 131.30 106.41 130.39 106.12 129.55 C 105.82 128.72 104.90 128.28 104.07 128.57 L 102.78 129.03 C 101.94 129.33 101.51 130.24 101.80 131.08 C 102.10 131.91 103.01 132.35 103.85 132.05 Z M 105.13 131.59 L 106.22 131.21 C 107.05 130.92 107.49 130.01 107.20 129.18 C 106.91 128.34 106.00 127.90 105.16 128.20 L 104.08 128.58 C 103.24 128.87 102.81 129.78 103.10 130.61 C 103.39 131.45 104.30 131.89 105.13 131.59 Z M 106.23 131.21 L 107.15 130.88 C 107.98 130.59 108.41 129.68 108.12 128.85 C 107.82 128.02 106.91 127.58 106.08 127.87 L 105.16 128.20 C 104.33 128.50 103.90 129.41 104.19 130.24 C 104.48 131.07 105.40 131.50 106.23 131.21 Z M 107.15 130.88 L 108.10 130.54 C 108.93 130.24 109.36 129.33 109.06 128.50 C 108.77 127.67 107.85 127.24 107.02 127.54 L 106.08 127.88 C 105.25 128.17 104.82 129.09 105.11 129.91 C 105.41 130.74 106.32 131.18 107.15 130.88 Z M 108.10 130.54 L 109.06 130.19 C 109.89 129.89 110.32 128.98 110.02 128.15 C 109.72 127.33 108.81 126.90 107.98 127.20 L 107.02 127.54 C 106.20 127.84 105.77 128.75 106.06 129.58 C 106.36 130.41 107.27 130.83 108.10 130.54 Z M 109.06 130.19 L 110.03 129.84 C 110.85 129.54 111.28 128.63 110.98 127.80 C 110.68 126.98 109.77 126.55 108.95 126.85 L 107.98 127.20 C 107.16 127.50 106.73 128.41 107.03 129.23 C 107.33 130.06 108.24 130.49 109.06 130.19 Z M 110.03 129.84 L 110.98 129.49 C 111.80 129.19 112.23 128.28 111.93 127.46 C 111.63 126.63 110.72 126.21 109.89 126.51 L 108.94 126.85 C 108.12 127.15 107.69 128.06 107.99 128.89 C 108.29 129.71 109.21 130.14 110.03 129.84 Z M 110.98 129.49 L 111.95 129.14 C 112.77 128.84 113.20 127.92 112.90 127.10 C 112.60 126.28 111.69 125.85 110.86 126.15 L 109.89 126.51 C 109.07 126.81 108.65 127.72 108.95 128.54 C 109.25 129.37 110.16 129.79 110.98 129.49 Z M 111.95 129.14 L 112.92 128.78 C 113.75 128.48 114.17 127.57 113.87 126.75 C 113.57 125.92 112.66 125.50 111.84 125.80 L 110.86 126.15 C 110.04 126.45 109.62 127.37 109.92 128.19 C 110.22 129.01 111.13 129.44 111.95 129.14 Z M 112.92 128.78 L 113.87 128.44 C 114.69 128.14 115.12 127.23 114.82 126.41 C 114.52 125.58 113.61 125.15 112.78 125.45 L 111.84 125.80 C 111.01 126.10 110.59 127.01 110.89 127.83 C 111.19 128.66 112.10 129.08 112.92 128.78 Z M 113.86 128.44 L 114.79 128.11 C 115.62 127.82 116.05 126.91 115.75 126.08 C 115.45 125.25 114.54 124.82 113.72 125.12 L 112.79 125.45 C 111.96 125.75 111.53 126.66 111.83 127.48 C 112.13 128.31 113.04 128.74 113.86 128.44 Z M 114.78 128.12 L 115.70 127.79 C 116.53 127.50 116.96 126.59 116.67 125.76 C 116.38 124.94 115.47 124.50 114.64 124.79 L 113.73 125.11 C 112.90 125.41 112.46 126.31 112.75 127.14 C 113.04 127.97 113.95 128.41 114.78 128.12 Z M 115.69 127.80 L 116.60 127.49 C 117.43 127.20 117.87 126.30 117.59 125.46 C 117.30 124.63 116.40 124.19 115.57 124.47 L 114.65 124.79 C 113.82 125.07 113.38 125.98 113.66 126.81 C 113.95 127.64 114.85 128.08 115.69 127.80 Z M 116.59 127.49 L 117.47 127.20 C 118.31 126.92 118.76 126.02 118.48 125.18 C 118.20 124.35 117.30 123.90 116.47 124.17 L 115.58 124.47 C 114.75 124.75 114.29 125.65 114.57 126.48 C 114.85 127.32 115.75 127.77 116.59 127.49 Z M 117.46 127.20 L 118.36 126.91 C 119.20 126.64 119.66 125.74 119.39 124.91 C 119.12 124.07 118.22 123.61 117.38 123.88 L 116.48 124.17 C 115.64 124.44 115.18 125.33 115.45 126.17 C 115.72 127.01 116.62 127.47 117.46 127.20 Z M 118.35 126.92 L 119.28 126.63 C 120.12 126.37 120.59 125.47 120.33 124.63 C 120.06 123.79 119.17 123.32 118.32 123.58 L 117.40 123.87 C 116.55 124.13 116.08 125.03 116.35 125.87 C 116.61 126.71 117.51 127.18 118.35 126.92 Z M 119.26 126.64 L 120.23 126.35 C 121.07 126.09 121.55 125.20 121.30 124.35 C 121.04 123.51 120.15 123.03 119.30 123.28 L 118.34 123.57 C 117.49 123.83 117.01 124.72 117.27 125.57 C 117.52 126.41 118.42 126.89 119.26 126.64 Z M 120.22 126.35 L 121.23 126.05 C 122.08 125.80 122.56 124.91 122.31 124.07 C 122.07 123.22 121.18 122.73 120.33 122.98 L 119.31 123.28 C 118.46 123.53 117.98 124.42 118.23 125.26 C 118.48 126.11 119.37 126.60 120.22 126.35 Z M 121.22 126.06 L 122.25 125.76 C 123.10 125.52 123.59 124.63 123.35 123.78 C 123.11 122.93 122.22 122.44 121.37 122.68 L 120.34 122.97 C 119.48 123.22 118.99 124.11 119.24 124.96 C 119.48 125.81 120.37 126.30 121.22 126.06 Z M 122.24 125.77 L 123.18 125.50 C 124.03 125.27 124.53 124.38 124.29 123.53 C 124.05 122.67 123.17 122.17 122.31 122.41 L 121.37 122.68 C 120.52 122.91 120.02 123.80 120.26 124.65 C 120.50 125.51 121.39 126.01 122.24 125.77 Z M 123.17 125.51 L 124.14 125.24 C 125.00 125.01 125.50 124.12 125.27 123.27 C 125.03 122.41 124.15 121.91 123.29 122.14 L 122.32 122.41 C 121.46 122.64 120.96 123.53 121.20 124.38 C 121.43 125.24 122.32 125.75 123.17 125.51 Z M 124.14 125.25 L 125.12 124.98 C 125.98 124.75 126.49 123.87 126.26 123.01 C 126.03 122.15 125.15 121.64 124.29 121.87 L 123.30 122.14 C 122.44 122.37 121.93 123.25 122.16 124.11 C 122.39 124.97 123.28 125.48 124.14 125.25 Z M 125.12 124.99 L 126.11 124.72 C 126.97 124.50 127.49 123.62 127.26 122.75 C 127.03 121.89 126.15 121.38 125.29 121.60 L 124.29 121.87 C 123.43 122.09 122.92 122.97 123.15 123.84 C 123.37 124.70 124.26 125.21 125.12 124.99 Z M 126.10 124.73 L 127.08 124.48 C 127.95 124.26 128.47 123.37 128.25 122.51 C 128.03 121.64 127.14 121.12 126.28 121.35 L 125.30 121.60 C 124.43 121.82 123.91 122.70 124.13 123.57 C 124.35 124.43 125.24 124.95 126.10 124.73 Z M 127.07 124.48 L 128.04 124.24 C 128.90 124.03 129.43 123.15 129.21 122.28 C 129.00 121.41 128.12 120.88 127.25 121.10 L 126.29 121.34 C 125.42 121.56 124.89 122.44 125.11 123.30 C 125.33 124.17 126.21 124.70 127.07 124.48 Z M 128.02 124.25 L 129.03 124.01 C 129.90 123.80 130.44 122.92 130.23 122.05 C 130.02 121.18 129.14 120.64 128.27 120.85 L 127.26 121.09 C 126.39 121.30 125.86 122.18 126.07 123.05 C 126.28 123.92 127.15 124.46 128.02 124.25 Z M 129.02 124.01 L 130.14 123.76 C 131.01 123.56 131.56 122.68 131.36 121.81 C 131.16 120.93 130.28 120.39 129.41 120.59 L 128.29 120.84 C 127.41 121.04 126.87 121.92 127.07 122.79 C 127.27 123.67 128.14 124.22 129.02 124.01 Z M 130.12 123.77 L 131.16 123.54 C 132.04 123.35 132.60 122.48 132.41 121.60 C 132.22 120.72 131.35 120.16 130.47 120.35 L 129.43 120.58 C 128.55 120.77 127.99 121.64 128.18 122.52 C 128.37 123.40 129.24 123.96 130.12 123.77 Z M 131.14 123.55 L 132.11 123.36 C 133.00 123.18 133.57 122.31 133.39 121.43 C 133.21 120.54 132.35 119.96 131.46 120.14 L 130.49 120.34 C 129.61 120.52 129.03 121.38 129.21 122.27 C 129.39 123.16 130.25 123.73 131.14 123.55 Z M 132.09 123.37 L 132.98 123.20 C 133.88 123.03 134.47 122.17 134.30 121.28 C 134.13 120.39 133.27 119.80 132.38 119.97 L 131.49 120.13 C 130.59 120.30 130.00 121.16 130.17 122.05 C 130.34 122.94 131.20 123.53 132.09 123.37 Z M 132.96 123.21 L 133.78 123.07 C 134.67 122.92 135.28 122.07 135.13 121.17 C 134.98 120.27 134.12 119.67 133.22 119.82 L 132.41 119.96 C 131.51 120.11 130.90 120.96 131.06 121.86 C 131.21 122.76 132.06 123.36 132.96 123.21 Z M 133.72 123.10 L 135.03 122.92 C 135.94 122.81 136.58 121.97 136.46 121.06 C 136.35 120.15 135.51 119.50 134.60 119.62 L 133.28 119.79 C 132.37 119.91 131.73 120.75 131.85 121.66 C 131.97 122.57 132.80 123.21 133.72 123.10 Z M 134.77 122.96 L 135.73 122.99 C 136.66 123.01 137.44 122.27 137.46 121.34 C 137.48 120.41 136.75 119.63 135.81 119.61 L 134.85 119.58 C 133.92 119.56 133.15 120.30 133.12 121.23 C 133.10 122.17 133.84 122.94 134.77 122.96 Z M 134.77 122.68 L 135.22 123.01 C 135.99 123.57 137.06 123.40 137.61 122.63 C 138.17 121.86 138.00 120.79 137.23 120.24 L 136.78 119.91 C 136.01 119.36 134.94 119.53 134.39 120.29 C 133.83 121.06 134.00 122.13 134.77 122.68 Z M 134.52 121.38 L 134.42 122.06 C 134.29 123.00 134.94 123.88 135.89 124.01 C 136.83 124.15 137.71 123.49 137.84 122.55 L 137.94 121.87 C 138.07 120.92 137.41 120.05 136.47 119.92 C 135.52 119.78 134.65 120.44 134.52 121.38 Z M 134.62 121.46 L 134.08 122.41 C 133.61 123.25 133.91 124.31 134.75 124.78 C 135.58 125.24 136.64 124.95 137.11 124.11 L 137.64 123.15 C 138.11 122.31 137.81 121.26 136.98 120.79 C 136.14 120.32 135.08 120.62 134.62 121.46 Z M 134.19 122.23 L 133.48 123.20 C 132.91 123.98 133.08 125.07 133.86 125.63 C 134.64 126.20 135.73 126.03 136.29 125.25 L 137.00 124.29 C 137.57 123.51 137.40 122.42 136.62 121.86 C 135.84 121.29 134.76 121.46 134.19 122.23 Z M 133.53 123.13 L 132.97 123.83 C 132.36 124.58 132.48 125.67 133.23 126.28 C 133.98 126.89 135.08 126.77 135.69 126.02 L 136.25 125.32 C 136.85 124.57 136.74 123.47 135.98 122.87 C 135.23 122.26 134.13 122.38 133.53 123.13 Z M 133.00 123.79 L 132.37 124.53 C 131.75 125.26 131.84 126.37 132.58 126.99 C 133.31 127.61 134.42 127.52 135.04 126.78 L 135.66 126.05 C 136.29 125.31 136.20 124.21 135.46 123.59 C 134.72 122.96 133.62 123.05 133.00 123.79 Z M 132.39 124.50 L 131.71 125.28 C 131.08 126.01 131.15 127.11 131.88 127.75 C 132.61 128.38 133.71 128.31 134.35 127.58 L 135.03 126.81 C 135.66 126.08 135.59 124.97 134.86 124.34 C 134.13 123.70 133.02 123.78 132.39 124.50 Z M 131.72 125.27 L 131.00 126.08 C 130.36 126.80 130.42 127.91 131.15 128.55 C 131.87 129.19 132.98 129.13 133.62 128.40 L 134.34 127.59 C 134.98 126.87 134.92 125.76 134.19 125.12 C 133.47 124.48 132.36 124.54 131.72 125.27 Z M 131.00 126.07 L 130.27 126.89 C 129.63 127.61 129.69 128.72 130.41 129.37 C 131.14 130.01 132.25 129.95 132.89 129.23 L 133.62 128.41 C 134.26 127.69 134.20 126.58 133.48 125.93 C 132.76 125.29 131.65 125.35 131.00 126.07 Z M 130.27 126.89 L 129.58 127.67 C 128.93 128.39 129.00 129.50 129.72 130.15 C 130.45 130.79 131.56 130.73 132.20 130.00 L 132.89 129.23 C 133.54 128.50 133.47 127.39 132.75 126.75 C 132.03 126.10 130.92 126.17 130.27 126.89 Z M 129.58 127.67 L 128.88 128.45 C 128.24 129.17 128.30 130.28 129.03 130.93 C 129.75 131.57 130.86 131.51 131.51 130.78 L 132.20 130.00 C 132.85 129.28 132.78 128.17 132.06 127.52 C 131.33 126.88 130.22 126.94 129.58 127.67 Z M 128.88 128.45 L 128.20 129.22 C 127.55 129.94 127.61 131.05 128.34 131.70 C 129.07 132.35 130.18 132.28 130.82 131.55 L 131.51 130.79 C 132.15 130.06 132.09 128.95 131.36 128.30 C 130.64 127.66 129.53 127.72 128.88 128.45 Z M 128.19 129.21 L 127.54 129.96 C 126.89 130.68 126.95 131.79 127.68 132.44 C 128.41 133.09 129.52 133.02 130.17 132.30 L 130.82 131.56 C 131.47 130.83 131.41 129.72 130.68 129.07 C 129.95 128.42 128.84 128.49 128.19 129.21 Z M 127.53 129.95 L 126.92 130.65 C 126.27 131.37 126.33 132.49 127.06 133.14 C 127.79 133.78 128.90 133.72 129.55 132.99 L 130.17 132.30 C 130.81 131.57 130.75 130.46 130.02 129.81 C 129.30 129.16 128.18 129.23 127.53 129.95 Z M 126.92 130.65 L 126.20 131.45 C 125.55 132.18 125.61 133.29 126.34 133.94 C 127.07 134.59 128.18 134.53 128.83 133.80 L 129.55 132.99 C 130.20 132.27 130.13 131.15 129.41 130.50 C 128.68 129.85 127.56 129.92 126.92 130.65 Z M 126.20 131.45 L 125.49 132.24 C 124.84 132.97 124.91 134.08 125.63 134.73 C 126.36 135.38 127.48 135.32 128.13 134.59 L 128.83 133.80 C 129.48 133.07 129.42 131.96 128.69 131.31 C 127.96 130.66 126.85 130.72 126.20 131.45 Z M 125.49 132.24 L 124.86 132.95 C 124.21 133.67 124.27 134.79 125.00 135.44 C 125.73 136.09 126.84 136.03 127.49 135.30 L 128.13 134.59 C 128.78 133.87 128.71 132.75 127.99 132.10 C 127.26 131.45 126.14 131.51 125.49 132.24 Z M 124.86 132.95 L 124.26 133.61 C 123.61 134.34 123.67 135.46 124.40 136.11 C 125.13 136.76 126.24 136.70 126.89 135.97 L 127.49 135.30 C 128.14 134.58 128.08 133.46 127.35 132.81 C 126.63 132.16 125.51 132.22 124.86 132.95 Z M 124.26 133.61 L 123.63 134.32 C 122.98 135.04 123.04 136.16 123.76 136.81 C 124.49 137.46 125.61 137.40 126.26 136.68 L 126.89 135.97 C 127.54 135.25 127.48 134.13 126.76 133.48 C 126.03 132.82 124.91 132.88 124.26 133.61 Z M 123.63 134.32 L 122.97 135.05 C 122.32 135.78 122.38 136.89 123.11 137.54 C 123.83 138.20 124.95 138.14 125.60 137.41 L 126.26 136.68 C 126.91 135.95 126.85 134.83 126.12 134.18 C 125.40 133.53 124.28 133.59 123.63 134.32 Z M 122.97 135.05 L 122.30 135.80 C 121.65 136.53 121.71 137.65 122.44 138.30 C 123.17 138.95 124.28 138.89 124.93 138.16 L 125.61 137.41 C 126.26 136.68 126.19 135.56 125.47 134.91 C 124.74 134.26 123.62 134.32 122.97 135.05 Z M 122.29 135.81 L 121.61 136.58 C 120.96 137.31 121.03 138.43 121.76 139.07 C 122.49 139.72 123.61 139.66 124.26 138.92 L 124.94 138.15 C 125.59 137.42 125.52 136.31 124.79 135.66 C 124.06 135.01 122.94 135.08 122.29 135.81 Z M 121.61 136.58 L 120.95 137.33 C 120.30 138.06 120.37 139.18 121.11 139.83 C 121.84 140.47 122.96 140.40 123.60 139.67 L 124.26 138.92 C 124.91 138.19 124.83 137.07 124.10 136.42 C 123.37 135.78 122.25 135.85 121.61 136.58 Z M 120.95 137.33 L 120.28 138.09 C 119.64 138.83 119.71 139.94 120.44 140.59 C 121.18 141.23 122.30 141.16 122.94 140.42 L 123.61 139.67 C 124.25 138.93 124.18 137.81 123.44 137.17 C 122.71 136.52 121.59 136.60 120.95 137.33 Z M 120.28 138.09 L 119.62 138.85 C 118.97 139.58 119.05 140.70 119.78 141.34 C 120.51 141.99 121.63 141.92 122.28 141.18 L 122.94 140.42 C 123.58 139.69 123.51 138.57 122.78 137.93 C 122.04 137.28 120.92 137.36 120.28 138.09 Z M 119.62 138.84 L 118.96 139.59 C 118.31 140.33 118.38 141.44 119.11 142.09 C 119.85 142.74 120.97 142.67 121.61 141.93 L 122.27 141.18 C 122.92 140.45 122.85 139.33 122.12 138.69 C 121.39 138.04 120.27 138.11 119.62 138.84 Z M 118.96 139.59 L 118.29 140.35 C 117.64 141.08 117.71 142.20 118.44 142.84 C 119.17 143.49 120.29 143.43 120.94 142.69 L 121.61 141.94 C 122.26 141.21 122.19 140.09 121.46 139.44 C 120.73 138.79 119.61 138.86 118.96 139.59 Z M 118.29 140.35 L 117.63 141.09 C 116.98 141.82 117.05 142.94 117.78 143.59 C 118.51 144.24 119.63 144.17 120.28 143.44 L 120.94 142.69 C 121.59 141.96 121.52 140.84 120.79 140.19 C 120.05 139.55 118.94 139.62 118.29 140.35 Z M 117.62 141.10 L 116.97 141.84 C 116.33 142.58 116.40 143.70 117.14 144.34 C 117.88 144.99 118.99 144.91 119.64 144.17 L 120.29 143.43 C 120.93 142.69 120.86 141.57 120.12 140.93 C 119.38 140.29 118.27 140.36 117.62 141.10 Z M 116.96 141.86 L 116.32 142.61 C 115.68 143.35 115.77 144.47 116.51 145.11 C 117.25 145.74 118.37 145.65 119.01 144.91 L 119.65 144.16 C 120.28 143.42 120.20 142.30 119.45 141.66 C 118.71 141.03 117.60 141.12 116.96 141.86 Z M 116.31 142.62 L 115.67 143.38 C 115.04 144.13 115.13 145.25 115.88 145.88 C 116.63 146.51 117.75 146.41 118.37 145.66 L 119.02 144.90 C 119.64 144.15 119.55 143.04 118.80 142.41 C 118.05 141.78 116.94 141.87 116.31 142.62 Z M 115.67 143.39 L 115.02 144.16 C 114.39 144.90 114.49 146.02 115.24 146.65 C 115.99 147.28 117.10 147.18 117.73 146.43 L 118.38 145.66 C 119.00 144.91 118.91 143.80 118.16 143.17 C 117.41 142.54 116.29 142.64 115.67 143.39 Z M 115.03 144.15 L 114.37 144.92 C 113.74 145.66 113.83 146.78 114.58 147.41 C 115.32 148.04 116.44 147.95 117.07 147.20 L 117.72 146.44 C 118.36 145.69 118.26 144.58 117.52 143.94 C 116.77 143.31 115.66 143.40 115.03 144.15 Z M 114.39 144.90 L 113.74 145.65 C 113.10 146.39 113.18 147.51 113.91 148.15 C 114.65 148.79 115.77 148.71 116.41 147.97 L 117.06 147.22 C 117.70 146.48 117.62 145.37 116.88 144.73 C 116.14 144.09 115.03 144.16 114.39 144.90 Z M 113.75 145.64 L 113.09 146.39 C 112.44 147.12 112.51 148.24 113.25 148.88 C 113.98 149.53 115.09 149.46 115.74 148.73 L 116.40 147.98 C 117.04 147.25 116.97 146.13 116.24 145.49 C 115.51 144.84 114.39 144.91 113.75 145.64 Z M 113.09 146.39 L 112.43 147.14 C 111.78 147.87 111.85 148.99 112.58 149.63 C 113.32 150.28 114.43 150.21 115.08 149.48 L 115.74 148.72 C 116.38 147.99 116.31 146.88 115.58 146.23 C 114.85 145.59 113.73 145.66 113.09 146.39 Z M 112.42 147.15 L 111.76 147.91 C 111.12 148.65 111.20 149.76 111.93 150.40 C 112.67 151.04 113.78 150.96 114.42 150.23 L 115.08 149.47 C 115.72 148.73 115.64 147.62 114.91 146.98 C 114.18 146.34 113.06 146.42 112.42 147.15 Z M 111.75 147.93 L 111.10 148.69 C 110.47 149.43 110.56 150.54 111.30 151.17 C 112.04 151.80 113.15 151.71 113.78 150.97 L 114.43 150.21 C 115.06 149.47 114.97 148.36 114.23 147.73 C 113.49 147.10 112.38 147.19 111.75 147.93 Z M 111.09 148.70 L 110.45 149.47 C 109.83 150.21 109.92 151.32 110.67 151.95 C 111.41 152.57 112.52 152.47 113.15 151.73 L 113.79 150.96 C 114.41 150.21 114.32 149.11 113.57 148.48 C 112.83 147.86 111.72 147.95 111.09 148.70 Z M 110.44 149.48 L 109.80 150.25 C 109.19 151.00 109.29 152.10 110.04 152.72 C 110.78 153.34 111.89 153.24 112.51 152.49 L 113.15 151.72 C 113.77 150.97 113.67 149.86 112.92 149.25 C 112.17 148.63 111.06 148.73 110.44 149.48 Z M 109.80 150.26 L 109.17 151.02 C 108.55 151.77 108.66 152.88 109.41 153.49 C 110.16 154.11 111.26 154.00 111.88 153.25 L 112.51 152.49 C 113.13 151.74 113.02 150.63 112.27 150.02 C 111.52 149.40 110.42 149.51 109.80 150.26 Z M 109.17 151.03 L 108.54 151.79 C 107.93 152.54 108.04 153.65 108.79 154.26 C 109.53 154.87 110.64 154.76 111.25 154.02 L 111.88 153.25 C 112.49 152.50 112.38 151.40 111.64 150.79 C 110.89 150.17 109.78 150.28 109.17 151.03 Z M 108.54 151.80 L 107.92 152.57 C 107.31 153.31 107.42 154.41 108.16 155.03 C 108.91 155.64 110.01 155.53 110.62 154.78 L 111.25 154.01 C 111.86 153.26 111.75 152.16 111.00 151.55 C 110.25 150.94 109.15 151.05 108.54 151.80 Z M 107.92 152.57 L 107.28 153.35 C 106.68 154.10 106.79 155.20 107.53 155.80 C 108.28 156.41 109.38 156.30 109.99 155.55 L 110.62 154.77 C 111.23 154.03 111.12 152.93 110.37 152.32 C 109.62 151.71 108.52 151.83 107.92 152.57 Z M 107.28 153.36 L 106.64 154.15 C 106.04 154.89 106.16 155.99 106.90 156.59 C 107.65 157.20 108.74 157.08 109.35 156.34 L 109.99 155.55 C 110.59 154.80 110.48 153.70 109.73 153.10 C 108.98 152.50 107.89 152.61 107.28 153.36 Z M 106.65 154.15 L 106.01 154.95 C 105.41 155.69 105.52 156.78 106.27 157.38 C 107.01 157.98 108.11 157.87 108.71 157.12 L 109.35 156.33 C 109.95 155.58 109.83 154.49 109.08 153.89 C 108.34 153.29 107.25 153.41 106.65 154.15 Z M 106.01 154.95 L 105.37 155.74 C 104.77 156.48 104.89 157.57 105.64 158.17 C 106.38 158.77 107.47 158.65 108.07 157.91 L 108.70 157.12 C 109.30 156.37 109.19 155.29 108.44 154.69 C 107.70 154.09 106.61 154.21 106.01 154.95 Z M 105.38 155.74 L 104.76 156.51 C 104.16 157.25 104.27 158.34 105.01 158.94 C 105.75 159.53 106.84 159.42 107.43 158.68 L 108.06 157.91 C 108.66 157.17 108.54 156.08 107.80 155.48 C 107.06 154.89 105.98 155.00 105.38 155.74 Z M 104.76 156.51 L 104.15 157.26 C 103.55 157.99 103.66 159.07 104.40 159.68 C 105.13 160.28 106.21 160.17 106.81 159.43 L 107.43 158.68 C 108.03 157.95 107.92 156.87 107.18 156.27 C 106.45 155.67 105.36 155.77 104.76 156.51 Z M 104.16 157.26 L 103.55 158.00 C 102.95 158.72 103.06 159.80 103.79 160.40 C 104.51 161.01 105.59 160.90 106.19 160.17 L 106.80 159.43 C 107.40 158.70 107.30 157.63 106.57 157.02 C 105.84 156.42 104.76 156.53 104.16 157.26 Z M 103.56 158.00 L 102.94 158.75 C 102.35 159.47 102.45 160.55 103.18 161.14 C 103.90 161.74 104.97 161.64 105.57 160.91 L 106.19 160.17 C 106.79 159.44 106.68 158.37 105.96 157.77 C 105.23 157.17 104.16 157.28 103.56 158.00 Z M 102.95 158.76 L 102.29 159.56 C 101.70 160.28 101.81 161.35 102.53 161.94 C 103.26 162.53 104.33 162.43 104.92 161.70 L 105.57 160.90 C 106.16 160.18 106.06 159.11 105.33 158.52 C 104.61 157.93 103.54 158.03 102.95 158.76 Z M 102.29 159.57 L 101.67 160.35 C 101.08 161.08 101.20 162.14 101.92 162.72 C 102.65 163.31 103.71 163.19 104.29 162.47 L 104.92 161.69 C 105.51 160.96 105.39 159.90 104.66 159.31 C 103.94 158.73 102.88 158.85 102.29 159.57 Z M 101.67 160.36 L 101.06 161.12 C 100.49 161.84 100.61 162.90 101.33 163.48 C 102.06 164.06 103.12 163.94 103.69 163.21 L 104.29 162.45 C 104.87 161.73 104.75 160.67 104.03 160.09 C 103.30 159.52 102.24 159.64 101.67 160.36 Z M 101.07 161.12 L 100.44 161.92 C 99.87 162.64 99.99 163.69 100.71 164.27 C 101.43 164.84 102.49 164.72 103.06 164.00 L 103.69 163.20 C 104.26 162.48 104.14 161.43 103.42 160.85 C 102.70 160.28 101.64 160.40 101.07 161.12 Z M 100.45 161.92 L 99.80 162.73 C 99.23 163.45 99.35 164.50 100.07 165.07 C 100.79 165.64 101.84 165.52 102.41 164.80 L 103.05 163.99 C 103.63 163.27 103.51 162.22 102.79 161.65 C 102.07 161.08 101.02 161.20 100.45 161.92 Z M 99.81 162.73 L 99.17 163.53 C 98.59 164.25 98.71 165.29 99.42 165.87 C 100.14 166.44 101.18 166.32 101.76 165.61 L 102.40 164.80 C 102.97 164.09 102.86 163.04 102.14 162.47 C 101.43 161.90 100.38 162.01 99.81 162.73 Z M 99.18 163.53 L 98.38 164.51 C 97.81 165.22 97.91 166.25 98.62 166.83 C 99.32 167.40 100.36 167.30 100.94 166.59 L 101.74 165.61 C 102.31 164.91 102.21 163.87 101.50 163.30 C 100.80 162.72 99.76 162.83 99.18 163.53 Z M 98.43 164.49 L 97.63 165.42 C 97.04 166.10 97.12 167.13 97.80 167.71 C 98.48 168.30 99.51 168.22 100.09 167.54 L 100.89 166.61 C 101.48 165.93 101.40 164.91 100.72 164.32 C 100.04 163.73 99.01 163.81 98.43 164.49 Z M 97.73 165.35 L 97.09 165.98 C 96.47 166.61 96.47 167.63 97.09 168.25 C 97.72 168.88 98.73 168.88 99.36 168.25 L 99.99 167.62 C 100.62 166.99 100.62 165.97 99.99 165.35 C 99.37 164.72 98.35 164.72 97.73 165.35 Z M 97.56 165.69 L 97.14 165.89 C 96.35 166.26 96.01 167.19 96.38 167.98 C 96.75 168.77 97.69 169.11 98.48 168.74 L 98.90 168.54 C 99.68 168.17 100.02 167.23 99.65 166.45 C 99.28 165.66 98.34 165.32 97.56 165.69 Z M 99.33 167.21 L 99.29 166.54 C 99.24 165.70 98.51 165.06 97.67 165.12 C 96.83 165.17 96.19 165.90 96.24 166.74 L 96.29 167.41 C 96.34 168.25 97.07 168.89 97.91 168.84 C 98.75 168.78 99.39 168.05 99.33 167.21 Z M 99.19 166.98 L 99.49 165.70 C 99.67 164.92 99.19 164.13 98.40 163.95 C 97.62 163.76 96.83 164.25 96.65 165.03 L 96.35 166.31 C 96.16 167.09 96.65 167.88 97.43 168.06 C 98.22 168.25 99.00 167.76 99.19 166.98 Z"
      fill="black"
      fill-rule="nonzero" /><path d="M 114.09 147.80 L 114.83 148.51 C 115.43 149.09 116.39 149.07 116.97 148.46 C 117.55 147.86 117.53 146.90 116.93 146.32 L 116.18 145.61 C 115.58 145.03 114.62 145.05 114.04 145.66 C 113.46 146.26 113.48 147.22 114.09 147.80 Z M 114.77 148.50 L 115.48 149.22 C 116.08 149.83 117.06 149.84 117.67 149.24 C 118.28 148.64 118.29 147.66 117.69 147.05 L 116.98 146.33 C 116.38 145.72 115.40 145.71 114.79 146.31 C 114.18 146.91 114.17 147.89 114.77 148.50 Z M 115.39 149.16 L 116.03 149.91 C 116.59 150.57 117.59 150.64 118.25 150.07 C 118.91 149.51 118.99 148.51 118.42 147.85 L 117.78 147.11 C 117.21 146.45 116.22 146.37 115.56 146.94 C 114.90 147.51 114.82 148.50 115.39 149.16 Z M 115.91 149.79 L 116.45 150.58 C 116.95 151.31 117.95 151.49 118.68 150.98 C 119.41 150.48 119.59 149.49 119.09 148.76 L 118.54 147.97 C 118.04 147.24 117.04 147.06 116.31 147.56 C 115.59 148.06 115.40 149.06 115.91 149.79 Z M 116.34 150.42 L 116.79 151.27 C 117.21 152.06 118.18 152.36 118.97 151.95 C 119.76 151.53 120.06 150.56 119.64 149.77 L 119.19 148.91 C 118.78 148.13 117.80 147.83 117.01 148.24 C 116.23 148.66 115.93 149.63 116.34 150.42 Z M 116.72 151.13 L 117.10 152.07 C 117.44 152.90 118.39 153.29 119.21 152.96 C 120.04 152.62 120.44 151.67 120.10 150.84 L 119.72 149.91 C 119.38 149.08 118.43 148.68 117.60 149.02 C 116.78 149.36 116.38 150.31 116.72 151.13 Z M 117.06 151.97 L 117.37 152.91 C 117.66 153.77 118.58 154.23 119.44 153.94 C 120.29 153.65 120.75 152.73 120.46 151.87 L 120.15 150.93 C 119.86 150.08 118.93 149.62 118.08 149.91 C 117.23 150.20 116.77 151.12 117.06 151.97 Z M 117.34 152.86 L 117.60 153.72 C 117.85 154.59 118.76 155.08 119.63 154.83 C 120.50 154.58 121.00 153.66 120.74 152.80 L 120.49 151.93 C 120.23 151.06 119.32 150.57 118.46 150.82 C 117.59 151.08 117.09 151.99 117.34 152.86 Z M 117.57 153.67 L 117.81 154.61 C 118.04 155.49 118.94 156.02 119.82 155.80 C 120.70 155.57 121.23 154.67 121.01 153.79 L 120.77 152.85 C 120.54 151.97 119.64 151.43 118.76 151.66 C 117.88 151.89 117.35 152.78 117.57 153.67 Z M 117.79 154.56 L 118.02 155.59 C 118.21 156.48 119.10 157.04 119.99 156.85 C 120.89 156.65 121.45 155.77 121.26 154.87 L 121.03 153.84 C 120.83 152.95 119.95 152.38 119.05 152.58 C 118.16 152.78 117.60 153.66 117.79 154.56 Z M 118.00 155.53 L 118.20 156.64 C 118.37 157.55 119.24 158.14 120.15 157.98 C 121.05 157.81 121.65 156.94 121.48 156.03 L 121.28 154.93 C 121.11 154.02 120.24 153.42 119.33 153.59 C 118.43 153.76 117.83 154.63 118.00 155.53 Z M 118.19 156.60 L 118.34 157.57 C 118.49 158.48 119.34 159.10 120.25 158.96 C 121.17 158.82 121.79 157.96 121.65 157.05 L 121.49 156.08 C 121.35 155.17 120.49 154.54 119.58 154.69 C 118.67 154.83 118.05 155.68 118.19 156.60 Z M 118.34 157.53 L 118.47 158.54 C 118.60 159.46 119.44 160.10 120.36 159.98 C 121.28 159.85 121.92 159.01 121.79 158.09 L 121.65 157.08 C 121.53 156.17 120.68 155.52 119.77 155.65 C 118.85 155.77 118.21 156.62 118.34 157.53 Z M 118.47 158.52 L 118.59 159.54 C 118.70 160.46 119.53 161.11 120.45 161.00 C 121.37 160.89 122.03 160.06 121.92 159.14 L 121.80 158.12 C 121.69 157.20 120.85 156.54 119.93 156.65 C 119.01 156.76 118.36 157.60 118.47 158.52 Z M 118.59 159.51 L 118.69 160.52 C 118.79 161.44 119.61 162.11 120.54 162.02 C 121.46 161.92 122.13 161.09 122.03 160.17 L 121.92 159.16 C 121.83 158.24 121.00 157.57 120.08 157.67 C 119.16 157.76 118.49 158.59 118.59 159.51 Z M 118.69 160.50 L 118.77 161.47 C 118.86 162.40 119.68 163.08 120.60 162.99 C 121.53 162.91 122.21 162.09 122.12 161.17 L 122.04 160.20 C 121.95 159.27 121.13 158.59 120.21 158.67 C 119.28 158.76 118.60 159.57 118.69 160.50 Z M 118.77 161.45 L 118.85 162.52 C 118.92 163.45 119.73 164.14 120.66 164.07 C 121.58 164.00 122.28 163.19 122.21 162.26 L 122.13 161.19 C 122.06 160.27 121.25 159.57 120.32 159.64 C 119.40 159.71 118.70 160.52 118.77 161.45 Z M 118.85 162.49 L 118.91 163.54 C 118.97 164.47 119.76 165.18 120.69 165.12 C 121.62 165.07 122.33 164.27 122.27 163.34 L 122.21 162.29 C 122.16 161.36 121.36 160.66 120.43 160.71 C 119.50 160.77 118.80 161.56 118.85 162.49 Z M 118.91 163.51 L 118.95 164.49 C 118.99 165.42 119.78 166.14 120.70 166.10 C 121.63 166.06 122.36 165.28 122.32 164.35 L 122.27 163.37 C 122.24 162.44 121.45 161.72 120.52 161.76 C 119.59 161.80 118.87 162.58 118.91 163.51 Z M 118.95 164.47 L 118.98 165.39 C 119.00 166.32 119.78 167.06 120.71 167.03 C 121.64 167.00 122.37 166.23 122.34 165.30 L 122.32 164.37 C 122.29 163.44 121.52 162.71 120.59 162.74 C 119.66 162.76 118.92 163.54 118.95 164.47 Z M 118.98 165.38 L 118.99 166.33 C 119.01 167.26 119.78 168.00 120.71 167.99 C 121.64 167.97 122.38 167.20 122.36 166.27 L 122.34 165.32 C 122.33 164.39 121.56 163.65 120.63 163.66 C 119.70 163.68 118.96 164.45 118.98 165.38 Z M 118.99 166.32 L 119.00 167.32 C 119.01 168.25 119.77 169.00 120.70 168.99 C 121.63 168.98 122.38 168.22 122.37 167.29 L 122.36 166.29 C 122.35 165.35 121.59 164.61 120.66 164.62 C 119.73 164.63 118.98 165.39 118.99 166.32 Z M 119.00 167.31 L 119.01 168.31 C 119.01 169.24 119.77 169.99 120.70 169.99 C 121.63 169.98 122.38 169.22 122.38 168.29 L 122.37 167.30 C 122.37 166.37 121.61 165.62 120.68 165.62 C 119.75 165.62 119.00 166.38 119.00 167.31 Z M 119.01 168.30 L 119.01 169.30 C 119.01 170.23 119.76 170.98 120.69 170.98 C 121.62 170.98 122.38 170.22 122.38 169.29 L 122.38 168.30 C 122.37 167.37 121.62 166.62 120.69 166.62 C 119.76 166.62 119.01 167.37 119.01 168.30 Z M 119.01 169.30 L 119.01 170.29 C 119.01 171.22 119.76 171.97 120.69 171.97 C 121.62 171.97 122.38 171.22 122.38 170.29 L 122.38 169.30 C 122.38 168.37 121.62 167.61 120.69 167.61 C 119.76 167.61 119.01 168.37 119.01 169.30 Z M 119.01 170.29 L 119.01 171.28 C 119.01 172.21 119.76 172.96 120.69 172.96 C 121.62 172.96 122.37 172.21 122.37 171.28 L 122.37 170.29 C 122.37 169.36 121.62 168.60 120.69 168.60 C 119.76 168.60 119.01 169.36 119.01 170.29 Z M 119.01 171.28 L 119.01 172.28 C 119.01 173.21 119.76 173.96 120.69 173.96 C 121.62 173.96 122.37 173.21 122.37 172.28 L 122.37 171.28 C 122.37 170.35 121.62 169.60 120.69 169.60 C 119.76 169.60 119.01 170.35 119.01 171.28 Z M 119.01 172.28 L 119.01 173.29 C 119.01 174.22 119.76 174.97 120.69 174.97 C 121.62 174.97 122.37 174.22 122.37 173.29 L 122.37 172.28 C 122.37 171.35 121.62 170.60 120.69 170.60 C 119.76 170.60 119.01 171.35 119.01 172.28 Z M 119.02 173.29 L 119.01 174.30 C 119.01 175.22 119.76 175.97 120.69 175.97 C 121.62 175.97 122.37 175.22 122.37 174.30 L 122.37 173.29 C 122.37 172.37 121.62 171.62 120.69 171.62 C 119.77 171.62 119.02 172.37 119.02 173.29 Z M 119.02 174.29 L 119.01 175.30 C 119.01 176.22 119.76 176.97 120.68 176.98 C 121.60 176.98 122.36 176.23 122.36 175.31 L 122.36 174.30 C 122.37 173.38 121.62 172.63 120.70 172.62 C 119.77 172.62 119.02 173.37 119.02 174.29 Z M 119.02 175.28 L 119.00 176.28 C 118.99 177.21 119.73 177.96 120.65 177.98 C 121.58 177.99 122.33 177.25 122.35 176.33 L 122.36 175.32 C 122.37 174.40 121.63 173.64 120.71 173.63 C 119.79 173.62 119.03 174.36 119.02 175.28 Z M 119.01 176.26 L 118.98 177.25 C 118.96 178.17 119.69 178.94 120.61 178.96 C 121.53 178.99 122.29 178.26 122.32 177.34 L 122.34 176.35 C 122.37 175.43 121.64 174.66 120.72 174.64 C 119.80 174.61 119.03 175.34 119.01 176.26 Z M 118.99 177.22 L 118.94 178.24 C 118.90 179.16 119.62 179.93 120.53 179.97 C 121.45 180.01 122.23 179.30 122.27 178.38 L 122.31 177.37 C 122.35 176.45 121.64 175.67 120.72 175.63 C 119.80 175.59 119.03 176.31 118.99 177.22 Z M 118.95 178.20 L 118.88 179.21 C 118.83 180.12 119.52 180.91 120.43 180.97 C 121.35 181.03 122.14 180.34 122.20 179.42 L 122.26 178.42 C 122.32 177.51 121.63 176.72 120.71 176.66 C 119.80 176.60 119.01 177.29 118.95 178.20 Z M 118.89 179.16 L 118.80 180.15 C 118.72 181.06 119.39 181.87 120.30 181.95 C 121.21 182.03 122.02 181.36 122.10 180.45 L 122.19 179.46 C 122.27 178.55 121.60 177.75 120.69 177.67 C 119.78 177.58 118.98 178.26 118.89 179.16 Z M 118.81 180.11 L 118.70 181.09 C 118.59 181.99 119.24 182.81 120.14 182.92 C 121.04 183.02 121.86 182.38 121.97 181.48 L 122.09 180.49 C 122.19 179.59 121.55 178.77 120.64 178.66 C 119.74 178.56 118.92 179.20 118.81 180.11 Z M 118.71 181.04 L 118.57 182.03 C 118.43 182.93 119.05 183.76 119.95 183.89 C 120.85 184.02 121.68 183.40 121.81 182.51 L 121.96 181.52 C 122.09 180.62 121.47 179.79 120.57 179.66 C 119.68 179.53 118.84 180.15 118.71 181.04 Z M 118.58 182.00 L 118.41 182.98 C 118.26 183.87 118.87 184.71 119.76 184.86 C 120.65 185.01 121.49 184.41 121.64 183.52 L 121.80 182.54 C 121.95 181.65 121.35 180.81 120.46 180.66 C 119.57 180.51 118.73 181.11 118.58 182.00 Z M 118.42 182.97 L 118.25 183.95 C 118.09 184.84 118.68 185.68 119.56 185.84 C 120.45 186.00 121.29 185.41 121.45 184.52 L 121.63 183.54 C 121.79 182.65 121.20 181.81 120.31 181.65 C 119.43 181.49 118.58 182.08 118.42 182.97 Z M 118.26 183.95 L 118.08 184.91 C 117.92 185.79 118.50 186.63 119.38 186.79 C 120.26 186.95 121.11 186.37 121.27 185.49 L 121.44 184.53 C 121.60 183.65 121.02 182.80 120.14 182.64 C 119.26 182.48 118.42 183.07 118.26 183.95 Z M 118.09 184.91 L 117.91 185.86 C 117.75 186.73 118.34 187.57 119.21 187.73 C 120.09 187.89 120.93 187.31 121.09 186.44 L 121.26 185.49 C 121.42 184.61 120.84 183.77 119.96 183.61 C 119.09 183.45 118.25 184.03 118.09 184.91 Z M 117.92 185.85 L 117.74 186.83 C 117.58 187.70 118.15 188.54 119.02 188.70 C 119.89 188.86 120.73 188.29 120.89 187.42 L 121.08 186.44 C 121.24 185.57 120.67 184.73 119.80 184.57 C 118.93 184.41 118.09 184.98 117.92 185.85 Z M 117.75 186.82 L 117.55 187.84 C 117.38 188.70 117.94 189.54 118.81 189.71 C 119.67 189.88 120.51 189.32 120.68 188.45 L 120.88 187.43 C 121.05 186.57 120.49 185.73 119.63 185.56 C 118.76 185.39 117.92 185.95 117.75 186.82 Z M 117.56 187.82 L 117.35 188.81 C 117.18 189.67 117.73 190.51 118.59 190.69 C 119.45 190.87 120.29 190.32 120.47 189.46 L 120.67 188.47 C 120.85 187.61 120.30 186.77 119.44 186.59 C 118.58 186.41 117.74 186.96 117.56 187.82 Z M 117.36 188.80 L 117.15 189.78 C 116.97 190.63 117.51 191.48 118.36 191.66 C 119.22 191.85 120.06 191.31 120.24 190.45 L 120.46 189.47 C 120.64 188.62 120.10 187.78 119.25 187.59 C 118.39 187.40 117.55 187.95 117.36 188.80 Z M 117.16 189.77 L 116.94 190.76 C 116.75 191.61 117.28 192.45 118.13 192.64 C 118.98 192.84 119.82 192.30 120.01 191.45 L 120.24 190.46 C 120.43 189.61 119.89 188.77 119.04 188.58 C 118.20 188.39 117.35 188.92 117.16 189.77 Z M 116.95 190.75 L 116.72 191.74 C 116.52 192.58 117.05 193.42 117.89 193.62 C 118.74 193.81 119.58 193.29 119.78 192.44 L 120.00 191.46 C 120.20 190.62 119.67 189.78 118.83 189.58 C 117.98 189.39 117.14 189.91 116.95 190.75 Z M 116.73 191.73 L 116.50 192.71 C 116.30 193.55 116.82 194.39 117.66 194.58 C 118.50 194.78 119.34 194.26 119.54 193.43 L 119.77 192.45 C 119.96 191.61 119.45 190.77 118.61 190.57 C 117.77 190.37 116.93 190.89 116.73 191.73 Z M 116.51 192.70 L 116.27 193.71 C 116.07 194.55 116.58 195.38 117.41 195.58 C 118.24 195.78 119.08 195.27 119.28 194.44 L 119.52 193.43 C 119.72 192.60 119.21 191.76 118.38 191.56 C 117.55 191.36 116.71 191.87 116.51 192.70 Z M 116.29 193.71 L 116.05 194.68 C 115.85 195.50 116.35 196.33 117.17 196.54 C 117.99 196.74 118.82 196.23 119.02 195.41 L 119.26 194.44 C 119.46 193.62 118.96 192.79 118.14 192.59 C 117.32 192.39 116.49 192.89 116.29 193.71 Z M 116.06 194.68 L 115.83 195.63 C 115.63 196.44 116.12 197.26 116.93 197.46 C 117.75 197.66 118.57 197.17 118.77 196.36 L 119.00 195.41 C 119.21 194.60 118.71 193.78 117.90 193.58 C 117.09 193.38 116.27 193.87 116.06 194.68 Z M 115.84 195.63 L 115.67 196.35 C 115.46 197.15 115.95 197.97 116.76 198.17 C 117.56 198.37 118.37 197.88 118.57 197.07 L 118.75 196.36 C 118.95 195.55 118.47 194.74 117.66 194.54 C 116.86 194.34 116.05 194.83 115.84 195.63 Z"
      fill="black"
      fill-rule="nonzero" /><path d="M 121.79 155.78 L 122.65 156.38 C 123.35 156.87 124.31 156.70 124.80 156.00 C 125.29 155.30 125.12 154.33 124.42 153.84 L 123.56 153.24 C 122.86 152.75 121.90 152.92 121.41 153.62 C 120.92 154.32 121.09 155.29 121.79 155.78 Z M 122.64 156.39 L 123.50 156.98 C 124.20 157.48 125.18 157.30 125.67 156.59 C 126.16 155.89 125.98 154.91 125.28 154.42 L 124.42 153.83 C 123.72 153.34 122.74 153.51 122.25 154.22 C 121.76 154.93 121.94 155.90 122.64 156.39 Z M 123.50 157.00 L 124.34 157.58 C 125.06 158.07 126.04 157.89 126.53 157.17 C 127.02 156.46 126.84 155.48 126.12 154.99 L 125.28 154.41 C 124.56 153.91 123.58 154.10 123.09 154.81 C 122.60 155.53 122.78 156.51 123.50 157.00 Z M 124.34 157.60 L 125.18 158.16 C 125.90 158.65 126.89 158.45 127.38 157.73 C 127.87 157.00 127.67 156.01 126.95 155.53 L 126.12 154.97 C 125.39 154.48 124.40 154.67 123.91 155.40 C 123.43 156.12 123.62 157.11 124.34 157.60 Z M 125.18 158.18 L 126.00 158.71 C 126.74 159.20 127.73 158.99 128.21 158.25 C 128.70 157.51 128.49 156.52 127.75 156.04 L 126.94 155.50 C 126.20 155.02 125.21 155.23 124.72 155.97 C 124.24 156.70 124.45 157.70 125.18 158.18 Z M 126.01 158.74 L 126.80 159.24 C 127.56 159.71 128.55 159.49 129.03 158.73 C 129.50 157.98 129.28 156.98 128.52 156.51 L 127.73 156.01 C 126.98 155.53 125.98 155.76 125.51 156.51 C 125.03 157.27 125.26 158.26 126.01 158.74 Z M 126.83 159.26 L 127.71 159.79 C 128.48 160.24 129.47 159.99 129.93 159.23 C 130.39 158.46 130.14 157.47 129.37 157.01 L 128.49 156.48 C 127.73 156.02 126.73 156.27 126.27 157.04 C 125.82 157.81 126.07 158.80 126.83 159.26 Z M 127.75 159.80 L 128.63 160.30 C 129.41 160.73 130.39 160.46 130.83 159.68 C 131.26 158.90 130.99 157.92 130.21 157.48 L 129.33 156.99 C 128.56 156.56 127.57 156.83 127.14 157.61 C 126.70 158.39 126.98 159.37 127.75 159.80 Z M 128.68 160.31 L 129.54 160.77 C 130.33 161.18 131.30 160.88 131.71 160.09 C 132.12 159.31 131.82 158.34 131.04 157.93 L 130.17 157.47 C 129.38 157.06 128.41 157.36 128.00 158.14 C 127.59 158.93 127.89 159.90 128.68 160.31 Z M 129.58 160.78 L 130.46 161.21 C 131.25 161.60 132.21 161.28 132.60 160.49 C 132.99 159.70 132.66 158.74 131.87 158.35 L 131.00 157.92 C 130.21 157.52 129.25 157.85 128.86 158.64 C 128.47 159.43 128.79 160.39 129.58 160.78 Z M 130.49 161.22 L 131.39 161.64 C 132.18 162.01 133.13 161.67 133.50 160.87 C 133.87 160.08 133.53 159.13 132.74 158.76 L 131.84 158.34 C 131.05 157.97 130.10 158.31 129.73 159.10 C 129.35 159.90 129.70 160.85 130.49 161.22 Z M 131.41 161.64 L 132.29 162.04 C 133.09 162.40 134.02 162.04 134.38 161.24 C 134.74 160.45 134.39 159.51 133.59 159.15 L 132.71 158.76 C 131.92 158.40 130.98 158.75 130.62 159.55 C 130.26 160.35 130.62 161.28 131.41 161.64 Z M 132.31 162.04 L 133.20 162.42 C 133.99 162.77 134.92 162.40 135.26 161.61 C 135.61 160.81 135.24 159.88 134.45 159.54 L 133.57 159.15 C 132.77 158.81 131.85 159.17 131.50 159.97 C 131.15 160.76 131.52 161.69 132.31 162.04 Z M 133.22 162.42 L 134.13 162.80 C 134.93 163.13 135.84 162.76 136.18 161.96 C 136.51 161.17 136.13 160.25 135.34 159.92 L 134.42 159.54 C 133.63 159.20 132.71 159.58 132.38 160.38 C 132.05 161.17 132.42 162.09 133.22 162.42 Z M 134.16 162.80 L 135.10 163.18 C 135.89 163.50 136.80 163.11 137.11 162.31 C 137.43 161.52 137.05 160.61 136.25 160.30 L 135.31 159.92 C 134.52 159.60 133.61 159.99 133.29 160.78 C 132.97 161.58 133.36 162.48 134.16 162.80 Z M 135.12 163.18 L 136.09 163.54 C 136.88 163.85 137.77 163.45 138.08 162.65 C 138.38 161.86 137.98 160.97 137.19 160.66 L 136.22 160.30 C 135.43 159.99 134.54 160.39 134.23 161.19 C 133.93 161.98 134.33 162.87 135.12 163.18 Z M 136.11 163.54 L 137.10 163.90 C 137.89 164.19 138.77 163.78 139.06 162.98 C 139.35 162.18 138.93 161.31 138.14 161.02 L 137.16 160.66 C 136.36 160.37 135.48 160.79 135.19 161.58 C 134.91 162.38 135.32 163.26 136.11 163.54 Z M 137.13 163.90 L 138.08 164.23 C 138.88 164.50 139.74 164.07 140.01 163.27 C 140.29 162.48 139.86 161.61 139.06 161.34 L 138.11 161.02 C 137.31 160.75 136.45 161.17 136.18 161.97 C 135.91 162.76 136.33 163.63 137.13 163.90 Z M 138.11 164.22 L 139.07 164.53 C 139.87 164.79 140.72 164.35 140.97 163.55 C 141.23 162.76 140.79 161.91 140.00 161.65 L 139.03 161.34 C 138.24 161.09 137.39 161.53 137.13 162.32 C 136.88 163.12 137.32 163.97 138.11 164.22 Z M 139.11 164.53 L 140.07 164.82 C 140.87 165.06 141.70 164.61 141.94 163.81 C 142.18 163.02 141.73 162.18 140.93 161.94 L 139.97 161.65 C 139.17 161.42 138.34 161.87 138.10 162.66 C 137.86 163.46 138.31 164.29 139.11 164.53 Z M 140.10 164.82 L 141.07 165.09 C 141.86 165.31 142.68 164.84 142.90 164.05 C 143.13 163.26 142.66 162.44 141.87 162.22 L 140.90 161.95 C 140.11 161.73 139.29 162.19 139.07 162.98 C 138.85 163.77 139.31 164.60 140.10 164.82 Z M 141.10 165.08 L 142.06 165.33 C 142.86 165.53 143.66 165.06 143.86 164.27 C 144.07 163.48 143.59 162.67 142.80 162.47 L 141.84 162.22 C 141.05 162.02 140.24 162.49 140.04 163.28 C 139.84 164.07 140.31 164.88 141.10 165.08 Z M 142.10 165.33 L 143.05 165.55 C 143.84 165.74 144.63 165.25 144.82 164.46 C 145.00 163.67 144.51 162.88 143.72 162.69 L 142.77 162.47 C 141.98 162.29 141.19 162.77 141.01 163.56 C 140.82 164.35 141.31 165.14 142.10 165.33 Z M 143.09 165.55 L 144.09 165.76 C 144.88 165.93 145.65 165.42 145.82 164.64 C 145.98 163.85 145.48 163.07 144.69 162.91 L 143.69 162.70 C 142.90 162.53 142.13 163.03 141.96 163.82 C 141.79 164.61 142.30 165.38 143.09 165.55 Z M 144.12 165.76 L 145.12 165.95 C 145.90 166.10 146.66 165.58 146.81 164.79 C 146.96 164.01 146.44 163.25 145.66 163.10 L 144.66 162.91 C 143.87 162.76 143.11 163.28 142.96 164.06 C 142.81 164.85 143.33 165.61 144.12 165.76 Z M 145.14 165.95 L 146.13 166.12 C 146.91 166.25 147.66 165.73 147.80 164.94 C 147.93 164.15 147.40 163.40 146.62 163.27 L 145.63 163.10 C 144.84 162.96 144.10 163.49 143.96 164.28 C 143.83 165.07 144.35 165.81 145.14 165.95 Z M 146.15 166.12 L 147.12 166.27 C 147.91 166.40 148.65 165.86 148.77 165.07 C 148.90 164.29 148.36 163.55 147.57 163.42 L 146.60 163.27 C 145.81 163.15 145.07 163.68 144.95 164.47 C 144.82 165.25 145.36 165.99 146.15 166.12 Z M 147.14 166.27 L 148.11 166.41 C 148.89 166.53 149.62 165.99 149.74 165.21 C 149.86 164.42 149.32 163.69 148.53 163.57 L 147.56 163.43 C 146.78 163.31 146.05 163.85 145.93 164.63 C 145.81 165.42 146.35 166.15 147.14 166.27 Z M 148.11 166.41 L 148.79 166.51 C 149.58 166.62 150.30 166.08 150.42 165.30 C 150.53 164.52 149.99 163.79 149.21 163.68 L 148.53 163.58 C 147.75 163.46 147.02 164.00 146.91 164.79 C 146.79 165.57 147.33 166.29 148.11 166.41 Z"
      fill="black"
      fill-rule="nonzero" /><path d="M 155.93 138.83 L 155.07 137.99 C 154.45 137.38 153.45 137.39 152.84 138.01 C 152.23 138.63 152.24 139.63 152.86 140.24 L 153.72 141.08 C 154.34 141.69 155.34 141.68 155.95 141.06 C 156.56 140.44 156.55 139.44 155.93 138.83 Z M 155.17 138.10 L 154.50 137.30 C 153.94 136.63 152.95 136.54 152.28 137.10 C 151.61 137.66 151.52 138.65 152.08 139.32 L 152.75 140.13 C 153.31 140.80 154.31 140.88 154.98 140.33 C 155.64 139.77 155.73 138.77 155.17 138.10 Z M 154.75 137.70 L 154.45 136.97 C 154.11 136.17 153.19 135.79 152.38 136.12 C 151.58 136.46 151.19 137.38 151.53 138.19 L 151.83 138.92 C 152.17 139.72 153.09 140.10 153.90 139.77 C 154.70 139.43 155.08 138.51 154.75 137.70 Z M 154.47 138.14 L 154.70 137.51 C 155.01 136.69 154.60 135.78 153.79 135.47 C 152.97 135.16 152.06 135.57 151.75 136.39 L 151.51 137.02 C 151.20 137.84 151.61 138.75 152.43 139.06 C 153.24 139.37 154.16 138.96 154.47 138.14 Z M 154.14 138.24 L 154.88 137.71 C 155.59 137.21 155.76 136.22 155.25 135.51 C 154.75 134.80 153.76 134.63 153.05 135.14 L 152.31 135.66 C 151.60 136.17 151.43 137.16 151.94 137.87 C 152.44 138.58 153.43 138.74 154.14 138.24 Z M 154.58 137.88 L 155.64 137.44 C 156.44 137.10 156.82 136.17 156.48 135.36 C 156.14 134.56 155.22 134.18 154.41 134.52 L 153.35 134.97 C 152.55 135.30 152.17 136.23 152.51 137.04 C 152.85 137.84 153.77 138.22 154.58 137.88 Z M 155.52 137.48 L 156.54 137.14 C 157.37 136.87 157.82 135.97 157.55 135.14 C 157.27 134.32 156.38 133.87 155.55 134.14 L 154.53 134.48 C 153.70 134.75 153.25 135.65 153.52 136.47 C 153.80 137.30 154.69 137.75 155.52 137.48 Z M 156.49 137.15 L 157.40 136.88 C 158.23 136.63 158.71 135.76 158.46 134.92 C 158.21 134.09 157.34 133.62 156.50 133.86 L 155.60 134.13 C 154.76 134.38 154.29 135.26 154.54 136.09 C 154.78 136.92 155.66 137.40 156.49 137.15 Z M 157.37 136.88 L 158.32 136.62 C 159.15 136.39 159.64 135.53 159.41 134.70 C 159.18 133.86 158.32 133.37 157.49 133.60 L 156.54 133.86 C 155.70 134.09 155.21 134.95 155.44 135.79 C 155.67 136.62 156.53 137.11 157.37 136.88 Z M 158.29 136.62 L 159.29 136.36 C 160.12 136.14 160.62 135.29 160.41 134.46 C 160.19 133.63 159.34 133.13 158.51 133.34 L 157.51 133.60 C 156.68 133.82 156.18 134.67 156.40 135.50 C 156.61 136.33 157.46 136.83 158.29 136.62 Z M 159.28 136.35 L 160.32 136.09 C 161.15 135.88 161.65 135.04 161.45 134.21 C 161.24 133.38 160.40 132.88 159.57 133.09 L 158.52 133.35 C 157.70 133.56 157.19 134.40 157.40 135.23 C 157.61 136.06 158.45 136.56 159.28 136.35 Z M 160.32 136.08 L 161.31 135.83 C 162.13 135.63 162.64 134.79 162.43 133.97 C 162.23 133.14 161.39 132.64 160.57 132.85 L 159.57 133.09 C 158.75 133.30 158.25 134.13 158.45 134.96 C 158.66 135.78 159.49 136.29 160.32 136.08 Z M 161.31 135.83 L 162.32 135.58 C 163.14 135.37 163.64 134.54 163.44 133.72 C 163.23 132.90 162.40 132.40 161.58 132.60 L 160.57 132.85 C 159.75 133.06 159.25 133.89 159.45 134.71 C 159.65 135.53 160.48 136.03 161.31 135.83 Z M 162.32 135.57 L 163.31 135.32 C 164.13 135.12 164.63 134.29 164.42 133.48 C 164.22 132.66 163.40 132.16 162.58 132.36 L 161.58 132.61 C 160.77 132.81 160.27 133.64 160.47 134.46 C 160.67 135.27 161.50 135.77 162.32 135.57 Z M 163.31 135.32 L 164.26 135.08 C 165.08 134.88 165.57 134.05 165.37 133.24 C 165.16 132.43 164.34 131.93 163.53 132.14 L 162.58 132.37 C 161.77 132.58 161.27 133.40 161.47 134.21 C 161.68 135.02 162.50 135.52 163.31 135.32 Z M 164.27 135.07 L 165.21 134.83 C 166.02 134.63 166.51 133.81 166.30 133.00 C 166.10 132.19 165.28 131.70 164.47 131.91 L 163.53 132.14 C 162.72 132.35 162.23 133.17 162.43 133.98 C 162.64 134.78 163.46 135.27 164.27 135.07 Z M 165.21 134.82 L 166.28 134.54 C 167.08 134.34 167.56 133.52 167.35 132.72 C 167.14 131.92 166.32 131.44 165.52 131.64 L 164.46 131.92 C 163.66 132.13 163.18 132.94 163.39 133.74 C 163.60 134.55 164.41 135.03 165.21 134.82 Z M 166.28 134.53 L 167.22 134.28 C 168.01 134.07 168.49 133.25 168.27 132.46 C 168.06 131.67 167.25 131.19 166.45 131.41 L 165.52 131.66 C 164.72 131.87 164.25 132.68 164.46 133.48 C 164.67 134.27 165.49 134.74 166.28 134.53 Z M 167.23 134.27 L 168.11 134.02 C 168.90 133.81 169.36 133.00 169.14 132.21 C 168.93 131.43 168.12 130.96 167.33 131.18 L 166.45 131.42 C 165.66 131.63 165.20 132.45 165.41 133.23 C 165.63 134.02 166.44 134.48 167.23 134.27 Z M 168.11 134.01 L 169.04 133.76 C 169.82 133.54 170.28 132.73 170.07 131.95 C 169.85 131.17 169.04 130.71 168.26 130.93 L 167.33 131.19 C 166.55 131.40 166.09 132.21 166.31 132.99 C 166.52 133.77 167.33 134.23 168.11 134.01 Z M 169.04 133.75 L 170.01 133.48 C 170.79 133.26 171.25 132.46 171.03 131.68 C 170.81 130.91 170.01 130.45 169.23 130.67 L 168.26 130.94 C 167.49 131.15 167.03 131.96 167.25 132.73 C 167.46 133.51 168.27 133.96 169.04 133.75 Z M 170.01 133.47 L 170.98 133.20 C 171.76 132.99 172.21 132.19 171.99 131.41 C 171.78 130.64 170.98 130.19 170.20 130.40 L 169.23 130.67 C 168.46 130.89 168.01 131.69 168.22 132.46 C 168.44 133.24 169.24 133.69 170.01 133.47 Z M 170.98 133.20 L 171.95 132.93 C 172.72 132.72 173.17 131.92 172.96 131.15 C 172.75 130.38 171.95 129.93 171.18 130.14 L 170.21 130.41 C 169.44 130.62 168.98 131.42 169.20 132.19 C 169.41 132.96 170.21 133.41 170.98 133.20 Z M 171.95 132.93 L 172.92 132.66 C 173.69 132.45 174.14 131.65 173.93 130.88 C 173.72 130.12 172.93 129.66 172.16 129.87 L 171.18 130.14 C 170.41 130.35 169.96 131.15 170.17 131.92 C 170.38 132.69 171.18 133.14 171.95 132.93 Z M 172.92 132.65 L 173.87 132.39 C 174.64 132.18 175.09 131.39 174.88 130.63 C 174.67 129.86 173.88 129.41 173.11 129.62 L 172.16 129.88 C 171.39 130.09 170.94 130.88 171.15 131.65 C 171.36 132.41 172.15 132.86 172.92 132.65 Z M 173.87 132.39 L 174.78 132.14 C 175.55 131.93 176.00 131.14 175.79 130.38 C 175.58 129.62 174.79 129.16 174.03 129.37 L 173.12 129.62 C 172.35 129.83 171.90 130.62 172.11 131.38 C 172.32 132.15 173.11 132.60 173.87 132.39 Z M 174.79 132.14 L 175.65 131.90 C 176.42 131.69 176.86 130.90 176.65 130.14 C 176.44 129.38 175.66 128.93 174.89 129.14 L 174.03 129.38 C 173.26 129.59 172.82 130.38 173.03 131.14 C 173.24 131.90 174.02 132.35 174.79 132.14 Z M 175.67 131.89 L 176.61 131.62 C 177.37 131.41 177.81 130.62 177.59 129.86 C 177.38 129.10 176.59 128.66 175.83 128.87 L 174.88 129.14 C 174.12 129.36 173.68 130.15 173.90 130.91 C 174.12 131.67 174.91 132.11 175.67 131.89 Z M 176.63 131.62 L 177.71 131.29 C 178.46 131.07 178.89 130.27 178.67 129.52 C 178.44 128.76 177.65 128.33 176.89 128.56 L 175.81 128.88 C 175.06 129.11 174.63 129.90 174.85 130.66 C 175.08 131.41 175.87 131.84 176.63 131.62 Z M 177.72 131.29 L 178.60 131.02 C 179.35 130.78 179.77 129.99 179.54 129.23 C 179.31 128.48 178.51 128.06 177.76 128.29 L 176.88 128.56 C 176.13 128.80 175.70 129.60 175.94 130.35 C 176.17 131.10 176.97 131.52 177.72 131.29 Z M 178.61 131.01 L 179.51 130.73 C 180.26 130.49 180.68 129.69 180.44 128.94 C 180.20 128.19 179.40 127.77 178.65 128.01 L 177.75 128.30 C 177.00 128.53 176.58 129.33 176.82 130.08 C 177.06 130.84 177.86 131.25 178.61 131.01 Z M 179.52 130.73 L 180.48 130.42 C 181.23 130.18 181.64 129.38 181.40 128.63 C 181.16 127.88 180.36 127.46 179.61 127.70 L 178.65 128.01 C 177.90 128.25 177.48 129.05 177.72 129.80 C 177.96 130.55 178.77 130.97 179.52 130.73 Z M 180.48 130.42 L 181.48 130.09 C 182.23 129.85 182.64 129.05 182.40 128.30 C 182.16 127.55 181.36 127.14 180.61 127.38 L 179.61 127.70 C 178.86 127.95 178.45 128.75 178.69 129.50 C 178.93 130.25 179.73 130.66 180.48 130.42 Z M 181.49 130.09 L 182.51 129.76 C 183.26 129.52 183.67 128.71 183.43 127.96 C 183.18 127.22 182.38 126.81 181.63 127.05 L 180.61 127.38 C 179.86 127.62 179.45 128.43 179.69 129.18 C 179.93 129.93 180.74 130.34 181.49 130.09 Z M 182.51 129.76 L 182.78 129.67 C 183.53 129.43 183.94 128.62 183.70 127.88 C 183.45 127.13 182.65 126.72 181.90 126.96 L 181.63 127.05 C 180.88 127.29 180.47 128.10 180.71 128.84 C 180.96 129.59 181.76 130.00 182.51 129.76 Z"
      fill="black"
      fill-rule="nonzero" /><path d="M 169.15 116.74 L 168.57 117.60 C 168.09 118.31 168.28 119.27 168.99 119.75 C 169.70 120.22 170.66 120.04 171.14 119.33 L 171.72 118.47 C 172.19 117.76 172.01 116.80 171.30 116.32 C 170.59 115.84 169.63 116.03 169.15 116.74 Z M 168.55 117.62 L 167.99 118.48 C 167.52 119.19 167.73 120.16 168.44 120.62 C 169.16 121.09 170.12 120.89 170.59 120.17 L 171.15 119.31 C 171.62 118.59 171.42 117.63 170.70 117.16 C 169.98 116.70 169.02 116.90 168.55 117.62 Z M 167.96 118.52 L 167.44 119.38 C 167.00 120.11 167.23 121.06 167.96 121.51 C 168.70 121.96 169.65 121.72 170.10 120.99 L 170.62 120.13 C 171.06 119.40 170.83 118.44 170.10 118.00 C 169.36 117.55 168.41 117.78 167.96 118.52 Z M 167.40 119.44 L 166.94 120.30 C 166.53 121.05 166.81 122.00 167.57 122.41 C 168.32 122.81 169.26 122.53 169.67 121.78 L 170.14 120.92 C 170.55 120.17 170.26 119.22 169.51 118.82 C 168.75 118.41 167.81 118.69 167.40 119.44 Z M 166.89 120.40 L 166.50 121.26 C 166.14 122.05 166.49 122.97 167.27 123.32 C 168.06 123.68 168.98 123.33 169.34 122.54 L 169.73 121.68 C 170.08 120.89 169.73 119.97 168.95 119.62 C 168.16 119.26 167.24 119.61 166.89 120.40 Z M 166.44 121.40 L 166.12 122.31 C 165.84 123.13 166.28 124.02 167.09 124.30 C 167.91 124.58 168.80 124.15 169.08 123.33 L 169.39 122.41 C 169.67 121.60 169.24 120.71 168.42 120.43 C 167.61 120.15 166.72 120.58 166.44 121.40 Z M 166.08 122.44 L 165.85 123.38 C 165.64 124.22 166.15 125.07 166.99 125.28 C 167.83 125.49 168.68 124.98 168.88 124.14 L 169.12 123.20 C 169.33 122.36 168.82 121.51 167.98 121.30 C 167.14 121.09 166.29 121.60 166.08 122.44 Z M 165.82 123.49 L 165.65 124.47 C 165.49 125.32 166.06 126.14 166.92 126.29 C 167.77 126.44 168.59 125.87 168.74 125.01 L 168.91 124.03 C 169.06 123.18 168.49 122.37 167.64 122.21 C 166.79 122.06 165.97 122.63 165.82 123.49 Z M 165.63 124.54 L 165.50 125.58 C 165.38 126.44 165.99 127.23 166.86 127.35 C 167.72 127.46 168.51 126.85 168.62 125.99 L 168.75 124.94 C 168.87 124.08 168.26 123.29 167.39 123.18 C 166.53 123.07 165.74 123.68 165.63 124.54 Z M 165.49 125.62 L 165.38 126.61 C 165.29 127.48 165.92 128.26 166.79 128.35 C 167.66 128.44 168.43 127.81 168.52 126.94 L 168.63 125.95 C 168.72 125.08 168.09 124.30 167.22 124.21 C 166.35 124.12 165.58 124.75 165.49 125.62 Z M 165.38 126.64 L 165.29 127.65 C 165.21 128.52 165.85 129.28 166.72 129.36 C 167.59 129.44 168.36 128.80 168.44 127.93 L 168.53 126.92 C 168.60 126.05 167.96 125.28 167.09 125.20 C 166.23 125.13 165.46 125.77 165.38 126.64 Z M 165.29 127.67 L 165.21 128.69 C 165.14 129.56 165.79 130.32 166.66 130.39 C 167.53 130.46 168.29 129.81 168.36 128.94 L 168.44 127.91 C 168.51 127.04 167.86 126.28 166.99 126.21 C 166.12 126.15 165.36 126.80 165.29 127.67 Z M 165.21 128.71 L 165.14 129.72 C 165.08 130.59 165.73 131.34 166.60 131.40 C 167.48 131.46 168.23 130.81 168.29 129.94 L 168.36 128.92 C 168.42 128.05 167.76 127.30 166.89 127.24 C 166.02 127.18 165.27 127.83 165.21 128.71 Z M 165.14 129.73 L 165.08 130.70 C 165.02 131.57 165.69 132.32 166.56 132.38 C 167.43 132.43 168.18 131.77 168.23 130.90 L 168.29 129.92 C 168.35 129.05 167.68 128.30 166.81 128.25 C 165.94 128.20 165.19 128.86 165.14 129.73 Z M 165.07 130.71 L 165.02 131.79 C 164.97 132.66 165.64 133.41 166.51 133.46 C 167.38 133.50 168.13 132.83 168.18 131.96 L 168.23 130.88 C 168.28 130.01 167.61 129.27 166.74 129.22 C 165.87 129.17 165.12 129.84 165.07 130.71 Z M 165.02 131.81 L 164.97 132.84 C 164.93 133.72 165.61 134.45 166.48 134.49 C 167.35 134.53 168.09 133.86 168.13 132.99 L 168.17 131.95 C 168.21 131.08 167.54 130.34 166.67 130.30 C 165.80 130.26 165.06 130.93 165.02 131.81 Z M 164.97 132.86 L 164.94 133.83 C 164.91 134.70 165.59 135.43 166.46 135.46 C 167.33 135.49 168.06 134.81 168.09 133.94 L 168.13 132.97 C 168.16 132.10 167.48 131.37 166.60 131.34 C 165.73 131.31 165.00 131.99 164.97 132.86 Z M 164.94 133.84 L 164.91 134.76 C 164.89 135.63 165.58 136.36 166.45 136.38 C 167.32 136.40 168.05 135.71 168.07 134.84 L 168.09 133.92 C 168.11 133.05 167.43 132.33 166.55 132.30 C 165.68 132.28 164.96 132.97 164.94 133.84 Z M 164.92 134.78 L 164.90 135.76 C 164.89 136.63 165.58 137.35 166.45 137.36 C 167.32 137.37 168.04 136.68 168.05 135.81 L 168.07 134.83 C 168.08 133.96 167.39 133.24 166.52 133.23 C 165.65 133.22 164.93 133.91 164.92 134.78 Z M 164.91 135.77 L 164.90 136.77 C 164.89 137.64 165.59 138.35 166.45 138.36 C 167.32 138.36 168.03 137.67 168.04 136.80 L 168.05 135.80 C 168.05 134.93 167.36 134.22 166.49 134.22 C 165.62 134.21 164.91 134.91 164.91 135.77 Z M 164.90 136.78 L 164.90 137.78 C 164.90 138.64 165.60 139.35 166.46 139.35 C 167.32 139.35 168.03 138.65 168.03 137.79 L 168.03 136.79 C 168.03 135.93 167.34 135.23 166.47 135.22 C 165.61 135.22 164.91 135.92 164.90 136.78 Z M 164.91 137.78 L 164.91 138.78 C 164.91 139.64 165.60 140.34 166.46 140.34 C 167.33 140.34 168.02 139.64 168.02 138.78 L 168.02 137.78 C 168.02 136.92 167.33 136.22 166.47 136.22 C 165.60 136.22 164.91 136.92 164.91 137.78 Z M 164.91 138.78 L 164.91 139.77 C 164.91 140.63 165.61 141.33 166.46 141.33 C 167.32 141.33 168.02 140.63 168.02 139.77 L 168.02 138.78 C 168.02 137.92 167.32 137.22 166.46 137.22 C 165.61 137.22 164.91 137.92 164.91 138.78 Z M 164.92 139.77 L 164.92 140.77 C 164.92 141.63 165.61 142.32 166.46 142.32 C 167.32 142.32 168.01 141.63 168.01 140.77 L 168.01 139.77 C 168.01 138.92 167.32 138.22 166.46 138.22 C 165.61 138.22 164.92 138.92 164.92 139.77 Z M 164.92 140.77 L 164.92 141.77 C 164.92 142.63 165.61 143.32 166.46 143.32 C 167.32 143.32 168.01 142.63 168.01 141.77 L 168.01 140.77 C 168.01 139.92 167.32 139.23 166.46 139.23 C 165.61 139.23 164.92 139.92 164.92 140.77 Z M 164.93 141.77 L 164.93 142.78 C 164.93 143.63 165.62 144.32 166.46 144.32 C 167.31 144.32 168.00 143.63 168.00 142.78 L 168.00 141.77 C 168.00 140.93 167.31 140.24 166.46 140.24 C 165.62 140.24 164.93 140.93 164.93 141.77 Z M 164.94 142.78 L 164.94 143.79 C 164.94 144.63 165.62 145.31 166.47 145.31 C 167.31 145.31 168.00 144.63 167.99 143.78 L 167.99 142.78 C 167.99 141.93 167.31 141.25 166.46 141.25 C 165.62 141.25 164.94 141.94 164.94 142.78 Z M 164.95 143.79 L 164.95 144.80 C 164.96 145.64 165.64 146.31 166.48 146.31 C 167.32 146.30 168.00 145.62 167.99 144.78 L 167.99 143.78 C 167.98 142.94 167.30 142.26 166.46 142.27 C 165.62 142.27 164.94 142.96 164.95 143.79 Z M 164.96 144.81 L 164.97 145.80 C 164.98 146.63 165.67 147.30 166.50 147.29 C 167.34 147.28 168.01 146.60 168.00 145.76 L 167.98 144.77 C 167.97 143.93 167.29 143.27 166.45 143.28 C 165.62 143.29 164.95 143.97 164.96 144.81 Z M 164.98 145.82 L 165.01 146.83 C 165.03 147.66 165.72 148.32 166.55 148.30 C 167.38 148.28 168.03 147.59 168.01 146.76 L 167.99 145.74 C 167.97 144.91 167.28 144.26 166.45 144.28 C 165.62 144.30 164.96 144.99 164.98 145.82 Z M 165.02 146.86 L 165.06 147.86 C 165.09 148.69 165.79 149.33 166.61 149.29 C 167.44 149.26 168.08 148.56 168.04 147.74 L 168.00 146.74 C 167.97 145.91 167.27 145.27 166.45 145.30 C 165.62 145.34 164.98 146.03 165.02 146.86 Z M 165.07 147.90 L 165.13 148.88 C 165.18 149.70 165.89 150.32 166.71 150.27 C 167.53 150.22 168.15 149.51 168.10 148.69 L 168.03 147.70 C 167.98 146.88 167.27 146.26 166.45 146.32 C 165.63 146.37 165.01 147.08 165.07 147.90 Z M 165.14 148.93 L 165.24 149.91 C 165.32 150.72 166.04 151.32 166.85 151.24 C 167.66 151.16 168.26 150.44 168.18 149.63 L 168.09 148.64 C 168.01 147.83 167.29 147.24 166.47 147.31 C 165.66 147.39 165.06 148.12 165.14 148.93 Z M 165.25 149.96 L 165.38 150.94 C 165.48 151.74 166.22 152.31 167.03 152.21 C 167.83 152.10 168.40 151.37 168.30 150.56 L 168.17 149.58 C 168.06 148.77 167.33 148.20 166.52 148.31 C 165.71 148.41 165.15 149.15 165.25 149.96 Z M 165.39 150.98 L 165.55 151.97 C 165.68 152.76 166.43 153.31 167.22 153.18 C 168.02 153.05 168.56 152.30 168.44 151.51 L 168.28 150.52 C 168.15 149.72 167.40 149.18 166.61 149.31 C 165.81 149.43 165.27 150.18 165.39 150.98 Z M 165.56 152.00 L 165.74 152.99 C 165.89 153.78 166.65 154.31 167.44 154.16 C 168.23 154.02 168.75 153.26 168.61 152.47 L 168.42 151.47 C 168.28 150.68 167.52 150.16 166.73 150.30 C 165.94 150.45 165.42 151.21 165.56 152.00 Z M 165.76 153.02 L 165.94 153.93 C 166.10 154.71 166.86 155.22 167.65 155.06 C 168.43 154.90 168.94 154.13 168.78 153.35 L 168.60 152.44 C 168.44 151.66 167.67 151.15 166.89 151.31 C 166.10 151.47 165.60 152.23 165.76 153.02 Z M 165.95 153.96 L 166.17 154.90 C 166.35 155.68 167.12 156.17 167.90 155.99 C 168.68 155.81 169.16 155.03 168.98 154.26 L 168.77 153.32 C 168.59 152.54 167.81 152.05 167.04 152.23 C 166.26 152.41 165.77 153.18 165.95 153.96 Z M 166.19 154.95 L 166.45 155.94 C 166.65 156.71 167.44 157.17 168.21 156.97 C 168.98 156.76 169.43 155.97 169.23 155.21 L 168.97 154.21 C 168.76 153.44 167.98 152.99 167.21 153.19 C 166.44 153.39 165.98 154.18 166.19 154.95 Z M 166.47 155.99 L 166.78 157.01 C 167.01 157.77 167.81 158.20 168.57 157.96 C 169.32 157.73 169.75 156.93 169.52 156.17 L 169.21 155.16 C 168.98 154.40 168.18 153.97 167.42 154.20 C 166.66 154.43 166.24 155.23 166.47 155.99 Z M 166.79 157.05 L 167.09 157.94 C 167.35 158.69 168.16 159.09 168.91 158.84 C 169.66 158.58 170.06 157.77 169.81 157.02 L 169.51 156.13 C 169.25 155.38 168.44 154.98 167.69 155.24 C 166.94 155.49 166.54 156.30 166.79 157.05 Z M 167.10 157.97 L 167.44 158.89 C 167.70 159.64 168.52 160.02 169.27 159.75 C 170.01 159.49 170.40 158.67 170.13 157.92 L 169.80 157.00 C 169.53 156.25 168.71 155.87 167.96 156.13 C 167.22 156.40 166.83 157.22 167.10 157.97 Z M 167.44 158.91 L 167.80 159.86 C 168.08 160.60 168.91 160.98 169.64 160.70 C 170.38 160.42 170.76 159.60 170.48 158.86 L 170.12 157.90 C 169.84 157.17 169.02 156.79 168.28 157.07 C 167.54 157.35 167.17 158.17 167.44 158.91 Z M 167.81 159.88 L 168.18 160.85 C 168.47 161.58 169.29 161.95 170.03 161.67 C 170.77 161.38 171.13 160.56 170.85 159.82 L 170.47 158.85 C 170.19 158.11 169.36 157.75 168.63 158.03 C 167.89 158.31 167.53 159.14 167.81 159.88 Z M 168.19 160.85 L 168.44 161.51 C 168.73 162.24 169.55 162.61 170.29 162.32 C 171.02 162.04 171.39 161.21 171.10 160.48 L 170.85 159.82 C 170.56 159.08 169.73 158.72 169.00 159.00 C 168.26 159.29 167.90 160.12 168.19 160.85 Z"
      fill="black"
      fill-rule="nonzero" /><path d="M 157.19 164.52 L 157.08 165.46 C 156.99 166.27 157.57 167.01 158.38 167.10 C 159.19 167.20 159.92 166.62 160.02 165.81 L 160.13 164.87 C 160.22 164.06 159.64 163.33 158.83 163.23 C 158.02 163.13 157.29 163.71 157.19 164.52 Z M 157.08 165.48 L 156.98 166.45 C 156.89 167.26 157.48 167.99 158.29 168.07 C 159.10 168.16 159.83 167.57 159.92 166.76 L 160.02 165.79 C 160.10 164.98 159.51 164.25 158.70 164.17 C 157.89 164.08 157.17 164.67 157.08 165.48 Z M 156.98 166.48 L 156.89 167.51 C 156.83 168.32 157.43 169.04 158.24 169.10 C 159.06 169.17 159.77 168.56 159.84 167.75 L 159.92 166.72 C 159.99 165.91 159.38 165.20 158.57 165.13 C 157.75 165.06 157.04 165.67 156.98 166.48 Z M 156.89 167.55 L 156.83 168.58 C 156.79 169.40 157.42 170.09 158.23 170.13 C 159.05 170.18 159.74 169.55 159.79 168.73 L 159.84 167.71 C 159.88 166.89 159.26 166.20 158.44 166.15 C 157.63 166.11 156.93 166.74 156.89 167.55 Z M 156.82 168.61 L 156.79 169.60 C 156.77 170.42 157.42 171.11 158.24 171.13 C 159.06 171.15 159.74 170.51 159.77 169.69 L 159.80 168.70 C 159.82 167.88 159.17 167.19 158.35 167.17 C 157.53 167.15 156.85 167.79 156.82 168.61 Z M 156.78 169.62 L 156.77 170.64 C 156.76 171.47 157.42 172.15 158.25 172.16 C 159.07 172.17 159.75 171.51 159.77 170.68 L 159.78 169.66 C 159.79 168.84 159.13 168.16 158.30 168.15 C 157.47 168.13 156.79 168.80 156.78 169.62 Z M 156.76 170.66 L 156.75 171.68 C 156.75 172.51 157.42 173.19 158.26 173.19 C 159.09 173.20 159.77 172.52 159.77 171.69 L 159.78 170.67 C 159.78 169.84 159.11 169.16 158.27 169.15 C 157.44 169.15 156.76 169.82 156.76 170.66 Z M 156.74 171.68 L 156.74 172.70 C 156.74 173.54 157.42 174.22 158.26 174.22 C 159.10 174.22 159.78 173.54 159.78 172.70 L 159.78 171.68 C 159.78 170.84 159.10 170.16 158.26 170.16 C 157.42 170.16 156.74 170.84 156.74 171.68 Z M 156.74 172.71 L 156.74 173.77 C 156.75 174.61 157.43 175.29 158.27 175.29 C 159.11 175.28 159.79 174.60 159.79 173.76 L 159.78 172.69 C 159.78 171.85 159.10 171.17 158.26 171.18 C 157.42 171.18 156.74 171.87 156.74 172.71 Z M 156.75 173.80 L 156.77 174.81 C 156.79 175.64 157.48 176.31 158.32 176.29 C 159.16 176.27 159.83 175.58 159.81 174.74 L 159.79 173.73 C 159.77 172.89 159.07 172.23 158.23 172.25 C 157.39 172.27 156.73 172.96 156.75 173.80 Z M 156.78 174.86 L 156.83 175.81 C 156.88 176.65 157.60 177.29 158.43 177.24 C 159.27 177.19 159.91 176.47 159.86 175.63 L 159.80 174.68 C 159.75 173.85 159.04 173.21 158.20 173.26 C 157.37 173.31 156.73 174.02 156.78 174.86 Z M 156.84 175.90 L 156.95 176.84 C 157.05 177.67 157.80 178.26 158.63 178.17 C 159.46 178.07 160.05 177.32 159.95 176.49 L 159.85 175.55 C 159.75 174.72 159.00 174.13 158.17 174.22 C 157.34 174.32 156.75 175.07 156.84 175.90 Z M 156.98 176.95 L 157.16 177.91 C 157.32 178.72 158.11 179.26 158.92 179.10 C 159.73 178.94 160.27 178.16 160.11 177.34 L 159.93 176.38 C 159.77 175.57 158.99 175.04 158.17 175.19 C 157.36 175.35 156.82 176.14 156.98 176.95 Z M 157.20 178.01 L 157.46 178.97 C 157.67 179.76 158.49 180.23 159.28 180.02 C 160.08 179.80 160.55 178.99 160.33 178.19 L 160.08 177.24 C 159.86 176.44 159.04 175.97 158.25 176.19 C 157.46 176.40 156.99 177.22 157.20 178.01 Z M 157.50 179.05 L 157.83 180.03 C 158.09 180.81 158.93 181.22 159.70 180.96 C 160.47 180.70 160.89 179.86 160.63 179.09 L 160.29 178.11 C 160.03 177.33 159.19 176.92 158.42 177.18 C 157.65 177.44 157.23 178.28 157.50 179.05 Z M 157.86 180.09 L 158.20 180.97 C 158.49 181.72 159.34 182.10 160.10 181.81 C 160.85 181.51 161.23 180.66 160.94 179.91 L 160.59 179.03 C 160.30 178.27 159.45 177.90 158.70 178.19 C 157.94 178.49 157.57 179.33 157.86 180.09 Z M 158.23 181.00 L 158.61 181.92 C 158.92 182.66 159.77 183.01 160.51 182.70 C 161.26 182.39 161.60 181.53 161.29 180.79 L 160.91 179.88 C 160.60 179.14 159.75 178.79 159.01 179.10 C 158.26 179.41 157.92 180.26 158.23 181.00 Z M 158.63 181.93 L 159.04 182.87 C 159.36 183.61 160.21 183.94 160.94 183.62 C 161.67 183.30 162.01 182.45 161.69 181.72 L 161.28 180.78 C 160.96 180.04 160.10 179.71 159.37 180.03 C 158.64 180.35 158.31 181.20 158.63 181.93 Z M 159.05 182.88 L 159.47 183.80 C 159.79 184.53 160.64 184.85 161.36 184.53 C 162.08 184.20 162.41 183.36 162.09 182.63 L 161.67 181.71 C 161.35 180.99 160.50 180.66 159.78 180.99 C 159.06 181.31 158.73 182.16 159.05 182.88 Z"
      fill="black"
      fill-rule="nonzero" /><path d="M 161.30 164.57 L 162.10 163.95 C 162.76 163.44 162.88 162.49 162.37 161.83 C 161.86 161.17 160.91 161.05 160.25 161.56 L 159.46 162.18 C 158.80 162.69 158.67 163.64 159.18 164.30 C 159.69 164.96 160.64 165.08 161.30 164.57 Z M 162.03 164.01 L 162.85 163.45 C 163.55 162.98 163.72 162.03 163.25 161.34 C 162.78 160.65 161.84 160.47 161.14 160.94 L 160.32 161.50 C 159.63 161.98 159.45 162.92 159.92 163.61 C 160.39 164.31 161.34 164.48 162.03 164.01 Z M 162.70 163.55 L 163.58 163.10 C 164.33 162.71 164.62 161.79 164.24 161.04 C 163.85 160.29 162.93 160.00 162.18 160.39 L 161.30 160.84 C 160.55 161.23 160.26 162.15 160.64 162.90 C 161.03 163.64 161.95 163.94 162.70 163.55 Z M 163.35 163.20 L 164.24 162.91 C 165.05 162.65 165.49 161.79 165.23 160.99 C 164.97 160.19 164.11 159.74 163.31 160.00 L 162.42 160.29 C 161.61 160.55 161.17 161.41 161.43 162.21 C 161.68 163.01 162.54 163.45 163.35 163.20 Z M 164.04 162.95 L 164.99 162.79 C 165.82 162.64 166.38 161.85 166.23 161.03 C 166.09 160.20 165.30 159.64 164.47 159.79 L 163.51 159.96 C 162.69 160.10 162.13 160.89 162.28 161.72 C 162.42 162.55 163.21 163.10 164.04 162.95 Z M 164.86 162.80 L 165.89 162.71 C 166.72 162.64 167.34 161.91 167.27 161.07 C 167.20 160.24 166.46 159.62 165.63 159.69 L 164.60 159.78 C 163.77 159.85 163.15 160.58 163.22 161.42 C 163.29 162.25 164.03 162.87 164.86 162.80 Z M 165.82 162.71 L 166.86 162.67 C 167.69 162.64 168.34 161.93 168.31 161.10 C 168.27 160.26 167.57 159.61 166.73 159.65 L 165.70 159.69 C 164.86 159.72 164.21 160.43 164.25 161.26 C 164.28 162.09 164.99 162.74 165.82 162.71 Z M 166.83 162.67 L 167.80 162.65 C 168.63 162.63 169.29 161.94 169.28 161.11 C 169.26 160.28 168.57 159.61 167.74 159.63 L 166.76 159.65 C 165.93 159.67 165.27 160.36 165.29 161.19 C 165.30 162.02 165.99 162.68 166.83 162.67 Z M 167.78 162.64 L 168.78 162.64 C 169.62 162.63 170.29 161.95 170.28 161.12 C 170.27 160.29 169.60 159.62 168.77 159.63 L 167.76 159.63 C 166.93 159.64 166.26 160.32 166.27 161.15 C 166.27 161.98 166.95 162.65 167.78 162.64 Z M 168.77 162.63 L 169.79 162.64 C 170.62 162.64 171.29 161.97 171.30 161.14 C 171.30 160.32 170.63 159.64 169.80 159.64 L 168.78 159.63 C 167.95 159.63 167.28 160.30 167.27 161.13 C 167.27 161.95 167.94 162.63 168.77 162.63 Z M 169.77 162.64 L 170.80 162.65 C 171.62 162.66 172.30 162.00 172.32 161.17 C 172.33 160.35 171.67 159.67 170.84 159.65 L 169.82 159.64 C 168.99 159.63 168.31 160.29 168.30 161.12 C 168.29 161.94 168.95 162.62 169.77 162.64 Z M 170.77 162.65 L 171.79 162.68 C 172.61 162.70 173.30 162.05 173.33 161.22 C 173.35 160.40 172.70 159.71 171.87 159.69 L 170.86 159.66 C 170.04 159.63 169.35 160.28 169.32 161.11 C 169.30 161.93 169.95 162.62 170.77 162.65 Z M 171.73 162.67 L 172.73 162.74 C 173.56 162.79 174.27 162.17 174.32 161.34 C 174.37 160.52 173.75 159.81 172.93 159.76 L 171.93 159.69 C 171.10 159.64 170.39 160.26 170.34 161.09 C 170.29 161.91 170.91 162.62 171.73 162.67 Z M 172.65 162.73 L 173.63 162.85 C 174.45 162.95 175.19 162.37 175.29 161.55 C 175.40 160.73 174.81 159.99 174.00 159.89 L 173.01 159.77 C 172.20 159.66 171.45 160.25 171.35 161.06 C 171.25 161.88 171.83 162.63 172.65 162.73 Z M 173.51 162.83 L 174.48 163.03 C 175.29 163.19 176.08 162.67 176.24 161.87 C 176.41 161.06 175.89 160.27 175.08 160.11 L 174.12 159.91 C 173.31 159.74 172.52 160.26 172.35 161.07 C 172.19 161.87 172.71 162.66 173.51 162.83 Z M 174.34 162.99 L 175.31 163.29 C 176.09 163.54 176.93 163.10 177.17 162.31 C 177.42 161.53 176.98 160.69 176.20 160.45 L 175.23 160.15 C 174.44 159.90 173.61 160.34 173.36 161.12 C 173.12 161.91 173.55 162.74 174.34 162.99 Z M 175.16 163.24 L 176.09 163.63 C 176.84 163.96 177.72 163.61 178.04 162.85 C 178.37 162.10 178.02 161.22 177.26 160.90 L 176.34 160.50 C 175.58 160.18 174.71 160.53 174.38 161.28 C 174.06 162.04 174.41 162.91 175.16 163.24 Z M 175.95 163.56 L 176.81 164.05 C 177.53 164.45 178.44 164.20 178.84 163.48 C 179.24 162.76 178.98 161.86 178.27 161.45 L 177.40 160.97 C 176.69 160.57 175.78 160.82 175.38 161.54 C 174.98 162.26 175.23 163.16 175.95 163.56 Z M 176.68 163.96 L 177.48 164.54 C 178.15 165.01 179.08 164.86 179.55 164.19 C 180.03 163.53 179.88 162.60 179.21 162.12 L 178.41 161.54 C 177.74 161.07 176.81 161.22 176.33 161.89 C 175.85 162.55 176.01 163.48 176.68 163.96 Z M 177.34 164.42 L 178.09 165.11 C 178.69 165.66 179.63 165.62 180.19 165.02 C 180.74 164.42 180.70 163.48 180.10 162.92 L 179.35 162.23 C 178.75 161.68 177.81 161.72 177.25 162.32 C 176.70 162.93 176.74 163.87 177.34 164.42 Z M 177.95 164.97 L 178.60 165.73 C 179.12 166.36 180.06 166.44 180.69 165.92 C 181.32 165.39 181.40 164.45 180.87 163.82 L 180.23 163.06 C 179.70 162.43 178.77 162.35 178.14 162.88 C 177.51 163.40 177.43 164.34 177.95 164.97 Z M 178.48 165.57 L 179.01 166.41 C 179.45 167.10 180.36 167.31 181.06 166.87 C 181.75 166.43 181.96 165.51 181.52 164.82 L 180.99 163.98 C 180.55 163.29 179.63 163.08 178.94 163.52 C 178.25 163.96 178.04 164.88 178.48 165.57 Z M 178.91 166.23 L 179.31 167.11 C 179.65 167.86 180.53 168.19 181.28 167.85 C 182.03 167.51 182.36 166.63 182.02 165.88 L 181.62 165.00 C 181.28 164.25 180.39 163.92 179.65 164.26 C 178.90 164.60 178.57 165.48 178.91 166.23 Z M 179.24 166.93 L 179.52 167.86 C 179.76 168.65 180.60 169.09 181.39 168.85 C 182.17 168.61 182.62 167.78 182.38 166.99 L 182.09 166.06 C 181.85 165.27 181.01 164.83 180.23 165.07 C 179.44 165.31 179.00 166.14 179.24 166.93 Z M 179.48 167.70 L 179.66 168.68 C 179.81 169.49 180.59 170.03 181.41 169.88 C 182.22 169.73 182.76 168.94 182.60 168.13 L 182.42 167.15 C 182.27 166.34 181.49 165.80 180.67 165.95 C 179.86 166.10 179.32 166.89 179.48 167.70 Z M 179.63 168.54 L 179.73 169.57 C 179.80 170.40 180.54 171.01 181.36 170.93 C 182.19 170.86 182.80 170.13 182.72 169.30 L 182.63 168.27 C 182.55 167.44 181.82 166.83 180.99 166.91 C 180.17 166.98 179.56 167.72 179.63 168.54 Z M 179.72 169.46 L 179.73 170.43 C 179.75 171.27 180.44 171.93 181.27 171.92 C 182.10 171.90 182.77 171.21 182.75 170.38 L 182.74 169.41 C 182.72 168.57 182.03 167.91 181.20 167.92 C 180.37 167.94 179.70 168.63 179.72 169.46 Z M 179.73 170.32 L 179.67 171.29 C 179.62 172.12 180.27 172.84 181.10 172.89 C 181.94 172.93 182.66 172.29 182.71 171.45 L 182.76 170.49 C 182.81 169.65 182.17 168.93 181.33 168.89 C 180.49 168.84 179.77 169.48 179.73 170.32 Z M 179.67 171.15 L 179.53 172.14 C 179.42 172.98 180.00 173.75 180.83 173.87 C 181.67 173.99 182.44 173.41 182.56 172.57 L 182.70 171.58 C 182.82 170.75 182.24 169.97 181.40 169.86 C 180.57 169.74 179.79 170.32 179.67 171.15 Z M 179.55 171.99 L 179.31 173.00 C 179.11 173.83 179.61 174.66 180.44 174.86 C 181.27 175.06 182.10 174.55 182.30 173.73 L 182.54 172.72 C 182.75 171.90 182.24 171.06 181.41 170.86 C 180.59 170.66 179.75 171.17 179.55 171.99 Z M 179.35 172.84 L 179.01 173.80 C 178.72 174.60 179.14 175.49 179.94 175.78 C 180.75 176.06 181.64 175.64 181.92 174.84 L 182.26 173.88 C 182.55 173.08 182.13 172.19 181.32 171.91 C 180.52 171.62 179.63 172.04 179.35 172.84 Z M 179.05 173.66 L 178.65 174.52 C 178.29 175.30 178.63 176.23 179.41 176.59 C 180.19 176.96 181.11 176.62 181.48 175.84 L 181.88 174.98 C 182.24 174.19 181.90 173.27 181.12 172.90 C 180.34 172.54 179.41 172.88 179.05 173.66 Z M 178.69 174.41 L 178.21 175.27 C 177.79 176.03 178.06 176.99 178.82 177.41 C 179.58 177.83 180.53 177.56 180.95 176.80 L 181.43 175.95 C 181.86 175.19 181.59 174.23 180.83 173.81 C 180.07 173.39 179.12 173.66 178.69 174.41 Z M 178.25 175.18 L 177.71 176.04 C 177.23 176.77 177.45 177.75 178.18 178.22 C 178.91 178.69 179.89 178.48 180.36 177.75 L 180.91 176.90 C 181.39 176.16 181.17 175.18 180.44 174.71 C 179.71 174.24 178.73 174.45 178.25 175.18 Z M 177.74 175.96 L 177.14 176.80 C 176.62 177.52 176.78 178.51 177.50 179.02 C 178.21 179.54 179.20 179.38 179.72 178.67 L 180.32 177.82 C 180.84 177.11 180.68 176.12 179.97 175.60 C 179.25 175.09 178.26 175.25 177.74 175.96 Z M 177.17 176.74 L 176.53 177.55 C 175.98 178.25 176.09 179.25 176.79 179.80 C 177.48 180.35 178.49 180.24 179.04 179.54 L 179.68 178.73 C 180.23 178.04 180.12 177.03 179.42 176.48 C 178.73 175.93 177.72 176.05 177.17 176.74 Z M 176.56 177.50 L 175.91 178.25 C 175.32 178.93 175.40 179.95 176.08 180.53 C 176.76 181.11 177.77 181.03 178.36 180.36 L 179.01 179.60 C 179.59 178.92 179.51 177.90 178.83 177.32 C 178.16 176.74 177.14 176.82 176.56 177.50 Z M 175.93 178.20 L 175.25 178.94 C 174.64 179.60 174.69 180.63 175.35 181.24 C 176.01 181.85 177.04 181.81 177.65 181.15 L 178.33 180.41 C 178.94 179.75 178.90 178.72 178.23 178.11 C 177.57 177.50 176.54 177.54 175.93 178.20 Z M 175.28 178.89 L 174.58 179.61 C 173.94 180.26 173.95 181.30 174.60 181.93 C 175.24 182.57 176.28 182.56 176.92 181.91 L 177.62 181.19 C 178.26 180.55 178.25 179.51 177.60 178.87 C 176.96 178.24 175.92 178.25 175.28 178.89 Z M 174.60 179.56 L 173.88 180.26 C 173.22 180.89 173.20 181.94 173.83 182.60 C 174.46 183.26 175.51 183.28 176.17 182.65 L 176.89 181.95 C 177.55 181.32 177.58 180.27 176.94 179.61 C 176.31 178.95 175.26 178.93 174.60 179.56 Z M 173.90 180.22 L 173.16 180.89 C 172.48 181.51 172.43 182.56 173.05 183.24 C 173.67 183.93 174.72 183.98 175.41 183.36 L 176.15 182.69 C 176.83 182.07 176.88 181.01 176.26 180.33 C 175.64 179.65 174.59 179.60 173.90 180.22 Z M 173.19 180.85 L 172.41 181.52 C 171.70 182.12 171.62 183.19 172.23 183.89 C 172.84 184.59 173.90 184.67 174.60 184.07 L 175.38 183.40 C 176.09 182.79 176.17 181.73 175.56 181.03 C 174.96 180.32 173.89 180.24 173.19 180.85 Z M 172.43 181.49 L 171.64 182.14 C 170.91 182.73 170.81 183.80 171.40 184.52 C 171.99 185.24 173.06 185.35 173.78 184.76 L 174.58 184.10 C 175.30 183.51 175.41 182.45 174.81 181.72 C 174.22 181.00 173.16 180.89 172.43 181.49 Z M 171.66 182.11 L 170.86 182.73 C 170.12 183.31 169.99 184.38 170.57 185.12 C 171.15 185.86 172.22 185.99 172.96 185.41 L 173.76 184.79 C 174.50 184.21 174.63 183.14 174.05 182.40 C 173.47 181.66 172.40 181.53 171.66 182.11 Z M 170.88 182.71 L 170.09 183.31 C 169.34 183.88 169.19 184.95 169.76 185.71 C 170.33 186.46 171.41 186.61 172.16 186.03 L 172.95 185.44 C 173.70 184.86 173.85 183.79 173.27 183.04 C 172.70 182.28 171.63 182.14 170.88 182.71 Z M 170.10 183.29 L 169.33 183.86 C 168.56 184.43 168.40 185.50 168.97 186.27 C 169.53 187.03 170.61 187.19 171.38 186.63 L 172.15 186.05 C 172.91 185.49 173.07 184.41 172.51 183.65 C 171.94 182.88 170.86 182.72 170.10 183.29 Z M 169.33 183.84 L 168.51 184.44 C 167.74 185.00 167.57 186.08 168.13 186.86 C 168.70 187.63 169.78 187.80 170.55 187.24 L 171.37 186.64 C 172.14 186.08 172.31 185.00 171.75 184.23 C 171.19 183.45 170.11 183.28 169.33 183.84 Z M 168.53 184.43 L 167.68 185.03 C 166.90 185.58 166.72 186.66 167.27 187.44 C 167.83 188.23 168.91 188.41 169.69 187.85 L 170.54 187.25 C 171.32 186.70 171.50 185.61 170.95 184.83 C 170.39 184.05 169.31 183.87 168.53 184.43 Z M 167.71 185.01 L 166.88 185.57 C 166.09 186.11 165.88 187.19 166.42 187.98 C 166.96 188.77 168.04 188.98 168.84 188.44 L 169.66 187.88 C 170.46 187.34 170.66 186.25 170.12 185.46 C 169.58 184.67 168.50 184.46 167.71 185.01 Z M 166.92 185.54 L 166.10 186.06 C 165.30 186.58 165.06 187.65 165.58 188.46 C 166.09 189.27 167.17 189.51 167.98 188.99 L 168.80 188.47 C 169.61 187.95 169.84 186.88 169.32 186.07 C 168.81 185.26 167.73 185.02 166.92 185.54 Z M 166.16 186.02 L 165.30 186.53 C 164.47 187.01 164.19 188.08 164.67 188.91 C 165.16 189.74 166.23 190.02 167.06 189.54 L 167.92 189.03 C 168.75 188.54 169.03 187.48 168.55 186.65 C 168.06 185.82 166.99 185.54 166.16 186.02 Z M 165.38 186.47 L 164.14 187.11 C 163.28 187.55 162.94 188.60 163.38 189.46 C 163.82 190.32 164.87 190.67 165.73 190.23 L 166.97 189.59 C 167.84 189.15 168.18 188.10 167.74 187.24 C 167.30 186.37 166.24 186.03 165.38 186.47 Z M 164.26 187.04 L 163.38 187.40 C 162.48 187.77 162.05 188.81 162.42 189.71 C 162.79 190.61 163.82 191.04 164.72 190.66 L 165.61 190.30 C 166.51 189.92 166.94 188.89 166.57 187.99 C 166.20 187.09 165.16 186.66 164.26 187.04 Z M 164.33 187.28 L 164.12 187.25 C 163.16 187.10 162.25 187.76 162.09 188.72 C 161.94 189.69 162.60 190.60 163.57 190.75 L 163.77 190.79 C 164.74 190.94 165.65 190.28 165.80 189.31 C 165.96 188.34 165.29 187.43 164.33 187.28 Z M 164.93 190.41 L 165.50 189.97 C 166.28 189.37 166.43 188.26 165.83 187.48 C 165.24 186.70 164.12 186.55 163.34 187.15 L 162.77 187.59 C 161.99 188.19 161.84 189.30 162.44 190.08 C 163.03 190.86 164.15 191.01 164.93 190.41 Z M 165.36 190.07 L 166.44 189.40 C 167.27 188.88 167.53 187.78 167.01 186.95 C 166.49 186.12 165.39 185.86 164.56 186.38 L 163.48 187.05 C 162.65 187.57 162.40 188.67 162.91 189.50 C 163.43 190.33 164.53 190.59 165.36 190.07 Z M 166.37 189.43 L 167.38 188.87 C 168.23 188.39 168.53 187.31 168.06 186.46 C 167.58 185.60 166.50 185.30 165.64 185.78 L 164.63 186.34 C 163.78 186.82 163.48 187.90 163.95 188.76 C 164.43 189.61 165.51 189.91 166.37 189.43 Z M 167.31 188.89 L 168.12 188.48 C 168.98 188.03 169.32 186.97 168.88 186.11 C 168.44 185.24 167.38 184.90 166.51 185.34 L 165.71 185.76 C 164.84 186.20 164.50 187.26 164.94 188.13 C 165.39 188.99 166.45 189.33 167.31 188.89 Z M 168.06 188.49 L 168.92 188.08 C 169.79 187.67 170.16 186.63 169.75 185.76 C 169.34 184.89 168.30 184.52 167.43 184.93 L 166.57 185.33 C 165.70 185.74 165.32 186.78 165.73 187.65 C 166.15 188.53 167.19 188.90 168.06 188.49 Z M 168.86 188.09 L 169.81 187.68 C 170.69 187.30 171.09 186.28 170.71 185.41 C 170.33 184.53 169.31 184.13 168.43 184.51 L 167.49 184.92 C 166.61 185.30 166.21 186.32 166.59 187.19 C 166.97 188.07 167.99 188.47 168.86 188.09 Z M 169.76 187.69 L 170.83 187.26 C 171.71 186.90 172.13 185.90 171.78 185.02 C 171.42 184.15 170.43 183.72 169.55 184.07 L 168.48 184.50 C 167.60 184.86 167.18 185.86 167.53 186.73 C 167.89 187.61 168.88 188.04 169.76 187.69 Z M 170.79 187.26 L 171.68 186.92 C 172.56 186.58 173.00 185.60 172.66 184.72 C 172.33 183.84 171.34 183.40 170.47 183.74 L 169.58 184.08 C 168.70 184.41 168.26 185.39 168.60 186.27 C 168.93 187.15 169.92 187.59 170.79 187.26 Z M 171.65 186.91 L 172.57 186.58 C 173.44 186.26 173.89 185.29 173.57 184.41 C 173.25 183.53 172.28 183.09 171.40 183.41 L 170.49 183.74 C 169.61 184.06 169.17 185.03 169.49 185.91 C 169.81 186.79 170.78 187.23 171.65 186.91 Z M 172.55 186.57 L 173.50 186.23 C 174.38 185.92 174.83 184.97 174.52 184.09 C 174.21 183.22 173.25 182.76 172.38 183.07 L 171.43 183.41 C 170.55 183.72 170.10 184.68 170.41 185.55 C 170.72 186.43 171.67 186.88 172.55 186.57 Z M 173.48 186.23 L 174.46 185.89 C 175.33 185.59 175.79 184.65 175.49 183.78 C 175.20 182.91 174.25 182.44 173.38 182.74 L 172.40 183.08 C 171.53 183.38 171.07 184.32 171.37 185.19 C 171.67 186.06 172.61 186.53 173.48 186.23 Z M 174.44 185.88 L 175.43 185.56 C 176.29 185.27 176.76 184.33 176.47 183.47 C 176.18 182.60 175.25 182.14 174.38 182.42 L 173.40 182.75 C 172.53 183.04 172.07 183.97 172.35 184.84 C 172.64 185.70 173.58 186.17 174.44 185.88 Z M 175.41 185.55 L 176.38 185.24 C 177.24 184.96 177.71 184.04 177.44 183.18 C 177.16 182.32 176.24 181.84 175.37 182.12 L 174.40 182.43 C 173.54 182.71 173.07 183.63 173.34 184.49 C 173.62 185.35 174.54 185.83 175.41 185.55 Z M 176.35 185.23 L 177.35 184.92 C 178.21 184.66 178.69 183.75 178.43 182.89 C 178.17 182.04 177.26 181.56 176.40 181.82 L 175.40 182.13 C 174.54 182.39 174.06 183.30 174.32 184.16 C 174.59 185.01 175.50 185.49 176.35 185.23 Z M 177.33 184.91 L 178.35 184.61 C 179.20 184.36 179.69 183.47 179.44 182.62 C 179.19 181.78 178.30 181.29 177.46 181.54 L 176.43 181.84 C 175.58 182.08 175.10 182.97 175.34 183.82 C 175.59 184.67 176.48 185.15 177.33 184.91 Z M 178.32 184.59 L 179.30 184.32 C 180.14 184.09 180.63 183.23 180.40 182.39 C 180.18 181.55 179.31 181.06 178.47 181.29 L 177.49 181.56 C 176.65 181.78 176.16 182.65 176.39 183.48 C 176.62 184.32 177.48 184.82 178.32 184.59 Z M 179.27 184.30 L 180.22 184.06 C 181.04 183.85 181.54 183.01 181.34 182.19 C 181.13 181.36 180.29 180.86 179.46 181.07 L 178.51 181.31 C 177.68 181.52 177.18 182.35 177.39 183.18 C 177.60 184.01 178.44 184.51 179.27 184.30 Z M 180.18 184.04 L 181.11 183.83 C 181.92 183.64 182.43 182.82 182.24 182.01 C 182.06 181.19 181.24 180.68 180.43 180.87 L 179.50 181.09 C 178.68 181.27 178.17 182.09 178.36 182.90 C 178.55 183.72 179.36 184.23 180.18 184.04 Z M 181.07 183.81 L 181.99 183.62 C 182.79 183.45 183.31 182.66 183.14 181.85 C 182.97 181.05 182.18 180.53 181.38 180.70 L 180.46 180.89 C 179.66 181.06 179.14 181.85 179.31 182.65 C 179.48 183.46 180.27 183.97 181.07 183.81 Z M 181.95 183.60 L 182.93 183.42 C 183.73 183.27 184.26 182.50 184.11 181.71 C 183.96 180.91 183.20 180.38 182.40 180.53 L 181.41 180.71 C 180.61 180.86 180.09 181.63 180.24 182.43 C 180.38 183.23 181.15 183.75 181.95 183.60 Z M 182.90 183.42 L 183.90 183.25 C 184.69 183.12 185.23 182.37 185.10 181.57 C 184.97 180.78 184.21 180.24 183.42 180.37 L 182.43 180.53 C 181.63 180.67 181.09 181.42 181.23 182.21 C 181.36 183.01 182.11 183.55 182.90 183.42 Z M 183.87 183.25 L 184.86 183.10 C 185.65 182.98 186.20 182.24 186.08 181.45 C 185.96 180.66 185.22 180.11 184.43 180.23 L 183.44 180.38 C 182.65 180.49 182.10 181.23 182.22 182.03 C 182.34 182.82 183.08 183.37 183.87 183.25 Z M 184.84 183.09 L 185.83 182.95 C 186.62 182.84 187.17 182.12 187.06 181.33 C 186.95 180.54 186.22 179.99 185.43 180.10 L 184.45 180.23 C 183.66 180.34 183.11 181.07 183.22 181.86 C 183.33 182.65 184.05 183.20 184.84 183.09 Z M 185.82 182.95 L 186.80 182.82 C 187.59 182.71 188.14 181.99 188.04 181.21 C 187.93 180.42 187.21 179.87 186.43 179.97 L 185.44 180.10 C 184.66 180.21 184.10 180.93 184.21 181.72 C 184.31 182.50 185.03 183.05 185.82 182.95 Z M 186.80 182.81 L 187.02 182.78 C 187.81 182.68 188.36 181.96 188.25 181.18 C 188.15 180.40 187.43 179.85 186.65 179.95 L 186.43 179.98 C 185.65 180.08 185.10 180.80 185.20 181.58 C 185.30 182.36 186.02 182.91 186.80 182.81 Z"
      fill="black"
      fill-rule="nonzero" /></svg>