<svg xmlns="http://www.w3.org/2000/svg" width="300" height="300" viewBox="0 0 300 300">
<path d="M 143.89 90.73 L 143.99 89.41 C 144.05 88.58 143.43 87.86 142.60 87.79 C 141.77 87.73 141.05 88.35 140.99 89.18 L 140.89 90.50 C 140.83 91.33 141.45 92.05 142.27 92.11 C 143.10 92.18 143.82 91.56 143.89 90.73 Z M 144.03 89.17 L 143.95 88.23 C 143.88 87.38 143.14 86.74 142.29 86.81 C 141.44 86.88 140.81 87.62 140.87 88.47 L 140.95 89.41 C 141.02 90.26 141.76 90.90 142.61 90.83 C 143.46 90.76 144.09 90.02 144.03 89.17 Z M 143.03 86.89 L 142.60 86.71 C 141.79 86.37 140.86 86.75 140.53 87.55 C 140.19 88.36 140.56 89.29 141.37 89.63 L 141.80 89.81 C 142.60 90.15 143.53 89.77 143.87 88.96 C 144.21 88.16 143.83 87.23 143.03 86.89 Z M 140.98 86.91 L 140.51 87.30 C 139.81 87.85 139.70 88.86 140.25 89.55 C 140.80 90.24 141.81 90.36 142.51 89.80 L 142.98 89.42 C 143.68 88.87 143.79 87.86 143.24 87.17 C 142.68 86.48 141.68 86.36 140.98 86.91 Z M 140.31 87.48 L 139.72 88.14 C 139.13 88.80 139.18 89.81 139.85 90.41 C 140.51 91.00 141.52 90.94 142.12 90.28 L 142.70 89.62 C 143.30 88.96 143.24 87.94 142.58 87.35 C 141.92 86.76 140.90 86.82 140.31 87.48 Z M 139.65 88.22 L 138.99 89.07 C 138.44 89.77 138.56 90.78 139.26 91.32 C 139.96 91.87 140.97 91.75 141.52 91.05 L 142.18 90.20 C 142.73 89.50 142.61 88.49 141.91 87.94 C 141.21 87.39 140.20 87.52 139.65 88.22 Z M 138.95 89.11 L 138.26 90.06 C 137.73 90.78 137.89 91.78 138.61 92.31 C 139.32 92.83 140.33 92.68 140.86 91.96 L 141.55 91.01 C 142.08 90.29 141.92 89.28 141.20 88.76 C 140.48 88.23 139.48 88.39 138.95 89.11 Z M 138.24 90.08 L 137.56 91.04 C 137.05 91.76 137.23 92.77 137.95 93.28 C 138.68 93.80 139.69 93.62 140.20 92.89 L 140.87 91.94 C 141.39 91.21 141.21 90.20 140.49 89.69 C 139.76 89.18 138.75 89.35 138.24 90.08 Z M 137.56 91.05 L 136.88 92.02 C 136.37 92.75 136.55 93.76 137.28 94.27 C 138.02 94.77 139.02 94.59 139.53 93.86 L 140.21 92.89 C 140.71 92.15 140.53 91.15 139.80 90.64 C 139.07 90.13 138.07 90.31 137.56 91.05 Z M 136.88 92.03 L 136.25 92.94 C 135.74 93.67 135.92 94.68 136.66 95.18 C 137.39 95.69 138.39 95.50 138.90 94.77 L 139.53 93.86 C 140.04 93.13 139.85 92.12 139.12 91.62 C 138.39 91.11 137.38 91.29 136.88 92.03 Z M 136.25 92.94 L 135.70 93.74 C 135.19 94.47 135.38 95.48 136.11 95.98 C 136.84 96.48 137.85 96.30 138.35 95.57 L 138.90 94.77 C 139.40 94.04 139.22 93.03 138.49 92.53 C 137.75 92.02 136.75 92.21 136.25 92.94 Z M 135.70 93.74 L 135.19 94.48 C 134.69 95.21 134.88 96.21 135.61 96.71 C 136.34 97.22 137.34 97.03 137.85 96.30 L 138.35 95.56 C 138.85 94.83 138.67 93.83 137.93 93.33 C 137.20 92.82 136.20 93.01 135.70 93.74 Z M 135.19 94.48 L 134.70 95.20 C 134.19 95.94 134.38 96.94 135.11 97.44 C 135.84 97.94 136.84 97.76 137.35 97.02 L 137.85 96.30 C 138.35 95.57 138.16 94.56 137.43 94.06 C 136.70 93.56 135.70 93.74 135.19 94.48 Z M 134.70 95.20 L 134.15 95.99 C 133.65 96.72 133.83 97.73 134.56 98.23 C 135.29 98.73 136.29 98.55 136.80 97.82 L 137.34 97.03 C 137.85 96.30 137.66 95.30 136.93 94.79 C 136.20 94.29 135.20 94.47 134.70 95.20 Z M 134.16 95.99 L 133.59 96.81 C 133.08 97.53 133.26 98.53 133.99 99.04 C 134.71 99.55 135.71 99.37 136.22 98.64 L 136.79 97.82 C 137.30 97.10 137.12 96.10 136.39 95.59 C 135.66 95.08 134.66 95.26 134.16 95.99 Z M 133.60 96.80 L 133.01 97.63 C 132.50 98.35 132.67 99.35 133.39 99.86 C 134.11 100.37 135.11 100.20 135.62 99.48 L 136.21 98.65 C 136.72 97.93 136.55 96.93 135.83 96.42 C 135.11 95.90 134.11 96.07 133.60 96.80 Z M 133.02 97.62 L 132.42 98.45 C 131.90 99.17 132.06 100.17 132.77 100.69 C 133.49 101.20 134.49 101.04 135.01 100.33 L 135.61 99.49 C 136.13 98.78 135.97 97.77 135.25 97.26 C 134.54 96.74 133.54 96.90 133.02 97.62 Z M 132.43 98.44 L 131.85 99.22 C 131.32 99.93 131.47 100.93 132.18 101.46 C 132.89 101.98 133.89 101.83 134.42 101.12 L 135.00 100.34 C 135.52 99.63 135.37 98.63 134.66 98.10 C 133.95 97.58 132.95 97.73 132.43 98.44 Z M 131.86 99.21 L 131.27 100.00 C 130.74 100.71 130.88 101.71 131.58 102.24 C 132.28 102.76 133.28 102.62 133.81 101.92 L 134.41 101.13 C 134.94 100.43 134.79 99.43 134.09 98.90 C 133.39 98.37 132.39 98.51 131.86 99.21 Z M 131.27 100.00 L 130.67 100.80 C 130.13 101.50 130.27 102.49 130.97 103.03 C 131.67 103.56 132.67 103.42 133.20 102.72 L 133.80 101.92 C 134.34 101.23 134.20 100.23 133.50 99.70 C 132.80 99.16 131.80 99.30 131.27 100.00 Z M 130.67 100.80 L 130.05 101.61 C 129.52 102.31 129.65 103.30 130.35 103.83 C 131.04 104.37 132.04 104.23 132.57 103.54 L 133.19 102.72 C 133.72 102.03 133.59 101.03 132.89 100.50 C 132.20 99.97 131.20 100.10 130.67 100.80 Z M 130.05 101.61 L 129.45 102.40 C 128.92 103.09 129.06 104.09 129.75 104.62 C 130.45 105.15 131.44 105.01 131.97 104.32 L 132.57 103.53 C 133.10 102.84 132.97 101.85 132.27 101.32 C 131.58 100.79 130.58 100.92 130.05 101.61 Z M 129.45 102.40 L 128.86 103.18 C 128.33 103.88 128.47 104.87 129.16 105.39 C 129.86 105.92 130.85 105.79 131.37 105.09 L 131.97 104.31 C 132.49 103.62 132.36 102.63 131.67 102.10 C 130.97 101.58 129.98 101.71 129.45 102.40 Z M 128.86 103.19 L 128.26 103.98 C 127.74 104.68 127.87 105.66 128.56 106.19 C 129.26 106.71 130.24 106.58 130.77 105.88 L 131.37 105.09 C 131.90 104.40 131.76 103.41 131.07 102.89 C 130.38 102.36 129.39 102.50 128.86 103.19 Z M 128.26 103.99 L 127.65 104.80 C 127.13 105.49 127.27 106.47 127.96 106.99 C 128.65 107.52 129.63 107.38 130.16 106.69 L 130.77 105.88 C 131.29 105.19 131.15 104.20 130.46 103.68 C 129.77 103.16 128.79 103.30 128.26 103.99 Z M 127.65 104.80 L 127.04 105.63 C 126.52 106.32 126.66 107.30 127.35 107.81 C 128.04 108.33 129.02 108.20 129.53 107.50 L 130.15 106.68 C 130.67 105.99 130.53 105.01 129.84 104.49 C 129.15 103.97 128.17 104.11 127.65 104.80 Z M 127.04 105.63 L 126.45 106.42 C 125.93 107.11 126.07 108.08 126.76 108.60 C 127.45 109.12 128.43 108.98 128.94 108.29 L 129.53 107.50 C 130.05 106.81 129.91 105.83 129.22 105.32 C 128.53 104.80 127.55 104.94 127.04 105.63 Z M 126.45 106.42 L 125.86 107.21 C 125.34 107.90 125.49 108.87 126.17 109.39 C 126.86 109.90 127.83 109.76 128.35 109.07 L 128.94 108.28 C 129.45 107.60 129.31 106.62 128.63 106.11 C 127.94 105.59 126.96 105.73 126.45 106.42 Z M 125.86 107.21 L 125.26 108.01 C 124.75 108.70 124.89 109.67 125.58 110.18 C 126.26 110.70 127.23 110.56 127.75 109.87 L 128.34 109.07 C 128.86 108.39 128.72 107.42 128.03 106.90 C 127.35 106.39 126.38 106.53 125.86 107.21 Z M 125.27 108.01 L 124.66 108.82 C 124.15 109.50 124.29 110.47 124.97 110.99 C 125.65 111.50 126.62 111.36 127.13 110.68 L 127.74 109.87 C 128.25 109.19 128.12 108.22 127.43 107.71 C 126.75 107.19 125.78 107.33 125.27 108.01 Z M 124.67 108.82 L 124.05 109.63 C 123.54 110.31 123.67 111.28 124.35 111.79 C 125.03 112.31 126.00 112.17 126.51 111.49 L 127.13 110.68 C 127.64 110.00 127.51 109.03 126.83 108.52 C 126.15 108.01 125.18 108.14 124.67 108.82 Z M 124.06 109.63 L 123.46 110.41 C 122.95 111.09 123.08 112.05 123.75 112.57 C 124.43 113.08 125.39 112.95 125.91 112.28 L 126.51 111.50 C 127.02 110.82 126.89 109.86 126.22 109.34 C 125.54 108.83 124.58 108.95 124.06 109.63 Z M 123.47 110.41 L 122.87 111.19 C 122.35 111.86 122.48 112.83 123.15 113.34 C 123.82 113.86 124.79 113.73 125.30 113.06 L 125.90 112.28 C 126.42 111.61 126.29 110.65 125.62 110.13 C 124.95 109.61 123.99 109.74 123.47 110.41 Z M 122.87 111.19 L 122.27 111.98 C 121.75 112.65 121.88 113.61 122.54 114.12 C 123.21 114.64 124.17 114.52 124.69 113.85 L 125.30 113.06 C 125.81 112.39 125.69 111.43 125.02 110.92 C 124.35 110.40 123.39 110.52 122.87 111.19 Z M 122.27 111.98 L 121.66 112.78 C 121.14 113.45 121.27 114.40 121.93 114.92 C 122.60 115.43 123.56 115.31 124.07 114.64 L 124.69 113.84 C 125.20 113.18 125.08 112.22 124.41 111.71 C 123.74 111.19 122.78 111.32 122.27 111.98 Z M 121.66 112.78 L 121.04 113.59 C 120.53 114.26 120.65 115.21 121.32 115.72 C 121.99 116.24 122.94 116.11 123.45 115.44 L 124.07 114.64 C 124.58 113.97 124.46 113.01 123.79 112.50 C 123.12 111.99 122.17 112.12 121.66 112.78 Z M 121.04 113.60 L 120.43 114.39 C 119.92 115.06 120.05 116.01 120.72 116.52 C 121.38 117.03 122.34 116.90 122.84 116.23 L 123.45 115.44 C 123.96 114.77 123.83 113.82 123.16 113.31 C 122.50 112.80 121.55 112.93 121.04 113.60 Z M 120.43 114.40 L 119.85 115.17 C 119.34 115.84 119.48 116.79 120.14 117.29 C 120.81 117.80 121.76 117.66 122.26 117.00 L 122.85 116.23 C 123.35 115.56 123.22 114.61 122.55 114.11 C 121.88 113.60 120.93 113.73 120.43 114.40 Z M 119.85 115.18 L 119.26 115.96 C 118.76 116.63 118.89 117.58 119.56 118.08 C 120.23 118.58 121.17 118.44 121.68 117.78 L 122.26 116.99 C 122.76 116.32 122.63 115.38 121.96 114.88 C 121.29 114.38 120.35 114.51 119.85 115.18 Z M 119.26 115.97 L 118.66 116.77 C 118.17 117.44 118.30 118.38 118.97 118.88 C 119.64 119.38 120.58 119.24 121.08 118.57 L 121.68 117.77 C 122.17 117.10 122.03 116.16 121.37 115.66 C 120.70 115.16 119.76 115.30 119.26 115.97 Z M 118.66 116.77 L 118.06 117.59 C 117.56 118.26 117.70 119.20 118.37 119.69 C 119.04 120.19 119.98 120.05 120.48 119.38 L 121.08 118.56 C 121.57 117.90 121.43 116.95 120.77 116.46 C 120.10 115.97 119.16 116.11 118.66 116.77 Z M 118.06 117.59 L 117.45 118.43 C 116.95 119.10 117.10 120.04 117.76 120.53 C 118.43 121.02 119.37 120.88 119.86 120.21 L 120.48 119.38 C 120.97 118.71 120.83 117.77 120.16 117.28 C 119.49 116.78 118.55 116.93 118.06 117.59 Z M 117.45 118.43 L 116.84 119.26 C 116.35 119.92 116.50 120.86 117.16 121.35 C 117.83 121.84 118.77 121.70 119.26 121.03 L 119.86 120.20 C 120.35 119.54 120.21 118.60 119.54 118.11 C 118.87 117.62 117.93 117.77 117.45 118.43 Z M 116.84 119.26 L 116.25 120.08 C 115.76 120.74 115.90 121.68 116.57 122.17 C 117.24 122.65 118.17 122.51 118.66 121.84 L 119.26 121.02 C 119.74 120.36 119.60 119.42 118.93 118.93 C 118.26 118.45 117.33 118.59 116.84 119.26 Z M 116.25 120.08 L 115.65 120.90 C 115.16 121.57 115.31 122.50 115.98 122.99 C 116.64 123.47 117.58 123.33 118.06 122.66 L 118.66 121.84 C 119.15 121.17 119.00 120.24 118.33 119.75 C 117.67 119.27 116.73 119.41 116.25 120.08 Z M 115.65 120.90 L 115.05 121.72 C 114.57 122.39 114.72 123.32 115.38 123.81 C 116.05 124.29 116.98 124.14 117.47 123.48 L 118.06 122.66 C 118.54 121.99 118.40 121.06 117.73 120.57 C 117.07 120.09 116.13 120.24 115.65 120.90 Z M 115.05 121.73 L 114.47 122.54 C 113.98 123.20 114.13 124.13 114.80 124.62 C 115.46 125.10 116.39 124.95 116.88 124.29 L 117.46 123.47 C 117.95 122.81 117.80 121.88 117.13 121.40 C 116.47 120.91 115.54 121.06 115.05 121.73 Z M 114.47 122.54 L 113.89 123.34 C 113.41 124.00 113.56 124.93 114.22 125.41 C 114.89 125.89 115.82 125.74 116.30 125.08 L 116.87 124.28 C 117.36 123.62 117.21 122.69 116.54 122.21 C 115.88 121.73 114.95 121.88 114.47 122.54 Z M 113.89 123.34 L 113.30 124.16 C 112.82 124.82 112.97 125.75 113.63 126.23 C 114.30 126.71 115.22 126.56 115.70 125.90 L 116.30 125.08 C 116.78 124.41 116.63 123.49 115.96 123.01 C 115.30 122.53 114.37 122.68 113.89 123.34 Z M 113.30 124.16 L 112.67 125.03 C 112.20 125.70 112.35 126.62 113.01 127.10 C 113.67 127.58 114.60 127.43 115.08 126.76 L 115.70 125.89 C 116.18 125.23 116.03 124.31 115.37 123.83 C 114.70 123.35 113.78 123.50 113.30 124.16 Z M 112.67 125.04 L 112.07 125.87 C 111.60 126.54 111.75 127.46 112.41 127.93 C 113.08 128.41 114.00 128.26 114.47 127.60 L 115.07 126.76 C 115.55 126.10 115.40 125.17 114.74 124.70 C 114.07 124.22 113.15 124.38 112.67 125.04 Z M 112.07 125.88 L 111.50 126.68 C 111.03 127.35 111.18 128.27 111.85 128.74 C 112.51 129.21 113.43 129.06 113.90 128.40 L 114.47 127.59 C 114.95 126.93 114.79 126.01 114.13 125.53 C 113.47 125.06 112.55 125.22 112.07 125.88 Z M 111.50 126.69 L 110.95 127.47 C 110.48 128.13 110.64 129.05 111.30 129.52 C 111.97 129.98 112.89 129.83 113.35 129.16 L 113.90 128.39 C 114.37 127.72 114.21 126.81 113.55 126.34 C 112.89 125.87 111.97 126.03 111.50 126.69 Z M 110.95 127.47 L 110.42 128.23 C 109.95 128.90 110.12 129.81 110.78 130.28 C 111.45 130.74 112.36 130.58 112.83 129.92 L 113.36 129.16 C 113.82 128.49 113.66 127.58 112.99 127.11 C 112.33 126.65 111.41 126.81 110.95 127.47 Z M 110.42 128.24 L 109.84 129.09 C 109.38 129.75 109.55 130.66 110.21 131.12 C 110.88 131.58 111.79 131.41 112.25 130.75 L 112.83 129.90 C 113.29 129.24 113.12 128.33 112.45 127.87 C 111.79 127.41 110.87 127.58 110.42 128.24 Z M 109.83 129.10 L 109.27 129.92 C 108.82 130.59 109.00 131.50 109.66 131.95 C 110.33 132.40 111.24 132.23 111.69 131.56 L 112.25 130.74 C 112.70 130.07 112.53 129.16 111.86 128.71 C 111.19 128.25 110.29 128.43 109.83 129.10 Z M 109.27 129.93 L 108.72 130.75 C 108.28 131.42 108.46 132.33 109.13 132.77 C 109.80 133.22 110.70 133.04 111.15 132.37 L 111.70 131.55 C 112.14 130.88 111.96 129.98 111.29 129.53 C 110.62 129.08 109.72 129.26 109.27 129.93 Z M 108.72 130.76 L 108.18 131.58 C 107.73 132.26 107.92 133.16 108.59 133.60 C 109.26 134.04 110.16 133.86 110.60 133.19 L 111.15 132.36 C 111.59 131.69 111.41 130.79 110.74 130.35 C 110.07 129.90 109.16 130.09 108.72 130.76 Z M 108.18 131.59 L 107.64 132.41 C 107.20 133.08 107.39 133.98 108.06 134.42 C 108.73 134.86 109.63 134.68 110.07 134.00 L 110.60 133.18 C 111.04 132.51 110.86 131.61 110.19 131.17 C 109.51 130.73 108.61 130.92 108.18 131.59 Z M 107.64 132.42 L 107.10 133.24 C 106.66 133.91 106.85 134.81 107.52 135.25 C 108.20 135.68 109.09 135.49 109.53 134.82 L 110.07 134.00 C 110.50 133.33 110.31 132.43 109.64 131.99 C 108.97 131.56 108.07 131.75 107.64 132.42 Z M 107.10 133.25 L 106.56 134.08 C 106.12 134.76 106.31 135.65 106.98 136.09 C 107.65 136.52 108.55 136.33 108.98 135.66 L 109.53 134.82 C 109.96 134.15 109.77 133.25 109.10 132.82 C 108.43 132.38 107.54 132.58 107.10 133.25 Z M 106.56 134.09 L 106.01 134.94 C 105.58 135.61 105.77 136.50 106.44 136.93 C 107.11 137.37 108.00 137.18 108.43 136.51 L 108.98 135.66 C 109.42 134.99 109.22 134.09 108.55 133.66 C 107.89 133.23 106.99 133.42 106.56 134.09 Z M 106.01 134.94 L 105.46 135.80 C 105.03 136.46 105.22 137.36 105.89 137.79 C 106.56 138.22 107.45 138.03 107.88 137.36 L 108.43 136.50 C 108.86 135.83 108.67 134.94 108.00 134.51 C 107.33 134.08 106.44 134.27 106.01 134.94 Z M 105.46 135.80 L 105.33 136.00 C 104.90 136.67 105.09 137.56 105.76 137.99 C 106.42 138.42 107.32 138.23 107.75 137.56 L 107.88 137.36 C 108.31 136.69 108.12 135.80 107.45 135.37 C 106.78 134.94 105.89 135.13 105.46 135.80 Z"
      fill="black"
      fill-rule="nonzero" /><path d="M 140.90 106.42 L 141.93 106.15 C 142.69 105.95 143.15 105.17 142.95 104.40 C 142.75 103.64 141.97 103.18 141.20 103.38 L 140.17 103.65 C 139.41 103.85 138.95 104.63 139.15 105.40 C 139.35 106.16 140.13 106.62 140.90 106.42 Z M 141.92 106.16 L 142.94 105.90 C 143.71 105.70 144.17 104.92 143.98 104.15 C 143.78 103.37 142.99 102.91 142.22 103.11 L 141.21 103.37 C 140.44 103.56 139.97 104.35 140.17 105.12 C 140.36 105.89 141.15 106.36 141.92 106.16 Z M 142.92 105.92 L 143.91 105.68 C 144.69 105.49 145.17 104.70 144.98 103.92 C 144.79 103.14 144.00 102.66 143.22 102.85 L 142.24 103.09 C 141.46 103.28 140.98 104.07 141.17 104.85 C 141.35 105.63 142.14 106.11 142.92 105.92 Z M 143.88 105.70 L 144.82 105.49 C 145.61 105.31 146.11 104.53 145.93 103.74 C 145.76 102.95 144.98 102.45 144.19 102.63 L 143.25 102.83 C 142.46 103.01 141.96 103.79 142.13 104.58 C 142.31 105.37 143.09 105.87 143.88 105.70 Z M 144.78 105.51 L 145.69 105.33 C 146.50 105.18 147.02 104.41 146.87 103.61 C 146.72 102.81 145.95 102.28 145.15 102.43 L 144.23 102.61 C 143.43 102.76 142.90 103.53 143.05 104.33 C 143.20 105.13 143.98 105.66 144.78 105.51 Z M 145.62 105.35 L 146.71 105.20 C 147.52 105.09 148.09 104.34 147.98 103.53 C 147.86 102.72 147.12 102.15 146.30 102.26 L 145.22 102.41 C 144.41 102.53 143.84 103.28 143.95 104.09 C 144.06 104.90 144.81 105.47 145.62 105.35 Z M 146.63 105.22 L 147.62 105.13 C 148.44 105.07 149.05 104.34 148.98 103.52 C 148.91 102.70 148.19 102.10 147.37 102.17 L 146.38 102.25 C 145.56 102.32 144.95 103.04 145.02 103.86 C 145.09 104.68 145.81 105.29 146.63 105.22 Z M 147.56 105.14 L 148.49 105.10 C 149.32 105.07 149.96 104.37 149.92 103.55 C 149.89 102.72 149.19 102.08 148.36 102.12 L 147.43 102.16 C 146.61 102.19 145.97 102.89 146.00 103.71 C 146.04 104.54 146.74 105.18 147.56 105.14 Z M 148.46 105.11 L 149.42 105.09 C 150.25 105.08 150.91 104.39 150.89 103.56 C 150.88 102.73 150.19 102.07 149.36 102.09 L 148.40 102.11 C 147.57 102.12 146.91 102.81 146.93 103.64 C 146.94 104.47 147.63 105.13 148.46 105.11 Z M 149.37 105.10 L 150.37 105.12 C 151.21 105.13 151.89 104.46 151.90 103.63 C 151.92 102.79 151.25 102.11 150.41 102.10 L 149.41 102.08 C 148.58 102.07 147.89 102.74 147.88 103.57 C 147.87 104.41 148.54 105.09 149.37 105.10 Z M 150.27 105.12 L 151.26 105.21 C 152.09 105.28 152.83 104.65 152.90 103.82 C 152.97 102.98 152.35 102.24 151.51 102.17 L 150.52 102.09 C 149.68 102.02 148.95 102.64 148.88 103.48 C 148.81 104.32 149.43 105.05 150.27 105.12 Z M 151.09 105.19 L 152.05 105.38 C 152.88 105.54 153.68 104.99 153.84 104.16 C 154.00 103.33 153.46 102.53 152.63 102.37 L 151.67 102.19 C 150.84 102.03 150.04 102.57 149.88 103.40 C 149.72 104.23 150.26 105.03 151.09 105.19 Z M 151.88 105.34 L 152.80 105.63 C 153.61 105.88 154.47 105.43 154.72 104.61 C 154.98 103.80 154.52 102.94 153.71 102.69 L 152.80 102.40 C 151.98 102.15 151.12 102.60 150.87 103.42 C 150.62 104.23 151.07 105.09 151.88 105.34 Z M 152.68 105.59 L 153.61 105.96 C 154.40 106.28 155.30 105.89 155.62 105.10 C 155.94 104.31 155.55 103.41 154.75 103.09 L 153.83 102.72 C 153.03 102.40 152.13 102.79 151.81 103.58 C 151.50 104.38 151.88 105.28 152.68 105.59 Z M 153.54 105.94 L 154.50 106.38 C 155.28 106.74 156.21 106.39 156.56 105.61 C 156.92 104.83 156.57 103.90 155.79 103.55 L 154.82 103.11 C 154.04 102.76 153.12 103.10 152.76 103.88 C 152.41 104.67 152.76 105.59 153.54 105.94 Z M 154.47 106.37 L 155.26 106.75 C 156.03 107.12 156.96 106.78 157.34 106.01 C 157.71 105.23 157.37 104.30 156.60 103.93 L 155.82 103.56 C 155.04 103.19 154.11 103.52 153.74 104.29 C 153.37 105.07 153.70 106.00 154.47 106.37 Z M 155.25 106.74 L 156.07 107.14 C 156.85 107.52 157.78 107.19 158.16 106.41 C 158.53 105.64 158.21 104.70 157.43 104.33 L 156.61 103.93 C 155.83 103.55 154.89 103.88 154.52 104.66 C 154.14 105.43 154.47 106.37 155.25 106.74 Z M 156.07 107.14 L 156.97 107.58 C 157.75 107.95 158.68 107.63 159.06 106.85 C 159.43 106.07 159.11 105.13 158.33 104.76 L 157.43 104.32 C 156.65 103.95 155.72 104.28 155.34 105.05 C 154.96 105.83 155.29 106.77 156.07 107.14 Z M 156.98 107.58 L 157.98 108.06 C 158.76 108.43 159.69 108.10 160.07 107.32 C 160.44 106.54 160.11 105.61 159.33 105.23 L 158.32 104.75 C 157.54 104.38 156.61 104.71 156.24 105.49 C 155.86 106.27 156.20 107.21 156.98 107.58 Z M 157.99 108.07 L 158.97 108.52 C 159.75 108.89 160.68 108.55 161.05 107.77 C 161.42 106.99 161.08 106.05 160.30 105.69 L 159.32 105.23 C 158.53 104.86 157.60 105.20 157.23 105.98 C 156.87 106.76 157.20 107.70 157.99 108.07 Z M 158.97 108.53 L 159.85 108.93 C 160.64 109.30 161.57 108.95 161.93 108.16 C 162.29 107.38 161.95 106.45 161.16 106.08 L 160.29 105.68 C 159.50 105.32 158.57 105.66 158.21 106.45 C 157.84 107.24 158.19 108.17 158.97 108.53 Z M 159.86 108.94 L 160.78 109.35 C 161.57 109.71 162.50 109.36 162.86 108.57 C 163.21 107.78 162.86 106.85 162.08 106.50 L 161.15 106.08 C 160.37 105.72 159.44 106.07 159.08 106.86 C 158.72 107.65 159.07 108.58 159.86 108.94 Z M 160.79 109.36 L 161.73 109.78 C 162.53 110.13 163.45 109.77 163.80 108.98 C 164.16 108.19 163.80 107.26 163.01 106.91 L 162.07 106.49 C 161.27 106.14 160.35 106.50 159.99 107.29 C 159.64 108.08 160.00 109.01 160.79 109.36 Z M 161.74 109.78 L 162.69 110.20 C 163.49 110.54 164.41 110.18 164.76 109.39 C 165.10 108.59 164.74 107.67 163.95 107.32 L 163.00 106.91 C 162.20 106.56 161.28 106.92 160.93 107.72 C 160.59 108.51 160.95 109.44 161.74 109.78 Z M 162.70 110.20 L 163.63 110.60 C 164.43 110.94 165.35 110.57 165.69 109.77 C 166.03 108.97 165.66 108.05 164.87 107.71 L 163.93 107.31 C 163.14 106.98 162.21 107.35 161.88 108.14 C 161.54 108.94 161.91 109.86 162.70 110.20 Z M 163.65 110.61 L 164.59 110.99 C 165.39 111.32 166.30 110.94 166.64 110.14 C 166.97 109.34 166.59 108.42 165.78 108.09 L 164.85 107.70 C 164.05 107.37 163.13 107.76 162.80 108.56 C 162.47 109.36 162.85 110.27 163.65 110.61 Z M 164.61 111.00 L 165.62 111.40 C 166.42 111.72 167.33 111.32 167.65 110.52 C 167.97 109.71 167.58 108.80 166.77 108.48 L 165.76 108.08 C 164.96 107.77 164.05 108.16 163.73 108.96 C 163.41 109.77 163.80 110.68 164.61 111.00 Z M 165.64 111.41 L 166.59 111.77 C 167.40 112.07 168.31 111.67 168.61 110.86 C 168.92 110.05 168.51 109.15 167.70 108.84 L 166.75 108.48 C 165.94 108.17 165.04 108.58 164.73 109.39 C 164.42 110.20 164.83 111.10 165.64 111.41 Z M 166.62 111.77 L 167.54 112.10 C 168.35 112.40 169.24 111.98 169.53 111.16 C 169.83 110.35 169.41 109.46 168.60 109.17 L 167.68 108.83 C 166.87 108.54 165.97 108.96 165.68 109.77 C 165.39 110.58 165.81 111.48 166.62 111.77 Z M 167.56 112.11 L 168.45 112.42 C 169.27 112.70 170.15 112.27 170.43 111.45 C 170.72 110.64 170.28 109.75 169.47 109.47 L 168.58 109.16 C 167.76 108.88 166.87 109.31 166.59 110.12 C 166.31 110.94 166.74 111.83 167.56 112.11 Z M 168.47 112.42 L 169.36 112.72 C 170.18 112.99 171.06 112.55 171.33 111.73 C 171.60 110.92 171.16 110.04 170.35 109.77 L 169.45 109.47 C 168.64 109.20 167.76 109.64 167.49 110.45 C 167.21 111.27 167.65 112.15 168.47 112.42 Z M 169.38 112.72 L 170.36 113.03 C 171.17 113.30 172.04 112.85 172.31 112.03 C 172.57 111.22 172.12 110.35 171.31 110.08 L 170.33 109.77 C 169.52 109.50 168.64 109.95 168.38 110.76 C 168.12 111.58 168.56 112.45 169.38 112.72 Z M 170.37 113.03 L 171.35 113.34 C 172.16 113.59 173.03 113.14 173.28 112.33 C 173.54 111.51 173.08 110.65 172.27 110.39 L 171.29 110.09 C 170.48 109.83 169.62 110.28 169.36 111.10 C 169.11 111.91 169.56 112.77 170.37 113.03 Z M 171.36 113.33 L 172.33 113.62 C 173.14 113.87 174.00 113.41 174.24 112.60 C 174.49 111.79 174.03 110.94 173.22 110.69 L 172.26 110.40 C 171.45 110.15 170.59 110.61 170.34 111.42 C 170.10 112.23 170.55 113.09 171.36 113.33 Z M 172.34 113.62 L 173.28 113.90 C 174.09 114.13 174.94 113.67 175.18 112.86 C 175.41 112.06 174.95 111.21 174.14 110.97 L 173.21 110.70 C 172.40 110.46 171.55 110.92 171.31 111.73 C 171.07 112.54 171.54 113.38 172.34 113.62 Z M 173.30 113.89 L 174.25 114.16 C 175.05 114.39 175.89 113.92 176.12 113.12 C 176.35 112.31 175.88 111.47 175.07 111.24 L 174.13 110.98 C 173.32 110.75 172.48 111.22 172.26 112.02 C 172.03 112.83 172.49 113.66 173.30 113.89 Z M 174.27 114.15 L 175.27 114.43 C 176.07 114.64 176.90 114.17 177.12 113.37 C 177.33 112.57 176.86 111.74 176.06 111.52 L 175.05 111.25 C 174.25 111.03 173.42 111.51 173.21 112.31 C 172.99 113.11 173.46 113.94 174.27 114.15 Z M 175.29 114.42 L 176.25 114.67 C 177.05 114.88 177.86 114.40 178.07 113.60 C 178.28 112.80 177.80 111.99 177.00 111.78 L 176.04 111.53 C 175.24 111.32 174.43 111.80 174.22 112.60 C 174.01 113.40 174.49 114.21 175.29 114.42 Z M 176.27 114.66 L 177.21 114.90 C 178.00 115.09 178.80 114.61 179.00 113.82 C 179.20 113.03 178.72 112.23 177.93 112.03 L 176.99 111.79 C 176.20 111.59 175.39 112.07 175.19 112.86 C 174.99 113.66 175.47 114.46 176.27 114.66 Z M 177.22 114.88 L 178.16 115.12 C 178.94 115.31 179.74 114.83 179.93 114.04 C 180.13 113.26 179.64 112.46 178.86 112.27 L 177.92 112.04 C 177.13 111.84 176.34 112.32 176.14 113.11 C 175.95 113.90 176.43 114.69 177.22 114.88 Z M 178.16 115.11 L 179.13 115.34 C 179.91 115.53 180.70 115.06 180.89 114.27 C 181.08 113.49 180.60 112.70 179.82 112.51 L 178.85 112.28 C 178.07 112.09 177.28 112.57 177.09 113.35 C 176.90 114.13 177.38 114.92 178.16 115.11 Z M 179.13 115.34 L 180.10 115.57 C 180.88 115.76 181.66 115.28 181.85 114.51 C 182.04 113.73 181.56 112.95 180.79 112.76 L 179.82 112.52 C 179.04 112.33 178.26 112.81 178.07 113.59 C 177.88 114.36 178.36 115.15 179.13 115.34 Z M 180.11 115.56 L 181.08 115.80 C 181.86 115.99 182.63 115.51 182.82 114.74 C 183.01 113.97 182.53 113.19 181.76 113.00 L 180.78 112.77 C 180.01 112.58 179.23 113.05 179.05 113.83 C 178.86 114.60 179.33 115.38 180.11 115.56 Z M 181.09 115.79 L 181.74 115.95 C 182.51 116.14 183.28 115.66 183.47 114.89 C 183.65 114.13 183.18 113.35 182.41 113.17 L 181.76 113.01 C 180.99 112.82 180.21 113.30 180.03 114.06 C 179.84 114.83 180.32 115.61 181.09 115.79 Z"
      fill="black"
      fill-rule="nonzero" /><path d="M 140.98 120.08 L 140.23 120.61 C 139.55 121.10 139.40 122.04 139.89 122.72 C 140.37 123.40 141.32 123.55 142.00 123.07 L 142.74 122.53 C 143.42 122.05 143.57 121.10 143.09 120.42 C 142.60 119.75 141.65 119.59 140.98 120.08 Z M 140.18 120.64 L 139.43 121.21 C 138.77 121.73 138.65 122.69 139.17 123.35 C 139.68 124.02 140.64 124.14 141.31 123.62 L 142.05 123.04 C 142.72 122.53 142.84 121.57 142.32 120.90 C 141.80 120.24 140.84 120.12 140.18 120.64 Z M 139.34 121.27 L 138.60 121.94 C 137.97 122.51 137.91 123.48 138.48 124.11 C 139.05 124.75 140.02 124.80 140.65 124.23 L 141.40 123.56 C 142.03 123.00 142.08 122.02 141.52 121.39 C 140.95 120.76 139.98 120.70 139.34 121.27 Z M 138.49 122.03 L 137.75 122.83 C 137.16 123.46 137.20 124.44 137.83 125.02 C 138.45 125.61 139.44 125.57 140.02 124.94 L 140.76 124.14 C 141.35 123.51 141.31 122.53 140.68 121.95 C 140.06 121.36 139.07 121.40 138.49 122.03 Z M 137.65 122.93 L 137.03 123.73 C 136.50 124.41 136.62 125.39 137.30 125.92 C 137.98 126.45 138.96 126.33 139.49 125.65 L 140.12 124.84 C 140.65 124.16 140.52 123.18 139.84 122.65 C 139.16 122.12 138.18 122.24 137.65 122.93 Z M 136.96 123.80 L 136.39 124.63 C 135.90 125.35 136.09 126.33 136.80 126.82 C 137.52 127.31 138.49 127.12 138.98 126.41 L 139.55 125.57 C 140.04 124.86 139.86 123.88 139.15 123.39 C 138.43 122.90 137.45 123.08 136.96 123.80 Z M 136.35 124.68 L 135.80 125.57 C 135.34 126.30 135.56 127.27 136.29 127.74 C 137.03 128.20 138.00 127.98 138.47 127.24 L 139.02 126.36 C 139.48 125.62 139.26 124.65 138.53 124.19 C 137.79 123.73 136.82 123.95 136.35 124.68 Z M 135.77 125.60 L 135.24 126.49 C 134.80 127.24 135.05 128.21 135.80 128.65 C 136.55 129.10 137.52 128.85 137.96 128.10 L 138.49 127.21 C 138.94 126.46 138.69 125.49 137.94 125.05 C 137.19 124.60 136.22 124.85 135.77 125.60 Z M 135.23 126.51 L 134.73 127.37 C 134.30 128.13 134.56 129.10 135.32 129.53 C 136.08 129.97 137.05 129.70 137.49 128.94 L 137.98 128.08 C 138.41 127.32 138.15 126.35 137.39 125.92 C 136.63 125.49 135.66 125.75 135.23 126.51 Z M 134.73 127.38 L 134.23 128.25 C 133.80 129.02 134.07 129.99 134.84 130.42 C 135.60 130.85 136.57 130.58 137.00 129.81 L 137.50 128.94 C 137.93 128.17 137.66 127.20 136.89 126.77 C 136.13 126.34 135.16 126.61 134.73 127.38 Z M 134.23 128.25 L 133.68 129.22 C 133.25 129.98 133.52 130.95 134.28 131.39 C 135.05 131.82 136.02 131.55 136.45 130.79 L 137.00 129.82 C 137.44 129.05 137.17 128.08 136.40 127.65 C 135.64 127.21 134.67 127.48 134.23 128.25 Z M 133.69 129.20 L 133.20 130.05 C 132.76 130.81 133.02 131.79 133.78 132.23 C 134.55 132.67 135.52 132.41 135.96 131.64 L 136.45 130.80 C 136.89 130.04 136.63 129.06 135.87 128.62 C 135.10 128.18 134.13 128.44 133.69 129.20 Z M 133.21 130.03 L 132.75 130.81 C 132.30 131.57 132.54 132.55 133.30 133.00 C 134.05 133.45 135.03 133.20 135.48 132.44 L 135.95 131.66 C 136.40 130.91 136.15 129.93 135.40 129.48 C 134.64 129.03 133.66 129.27 133.21 130.03 Z M 132.76 130.79 L 132.28 131.56 C 131.81 132.31 132.05 133.29 132.79 133.76 C 133.54 134.22 134.53 133.99 134.99 133.24 L 135.47 132.47 C 135.93 131.72 135.70 130.74 134.96 130.27 C 134.21 129.81 133.22 130.04 132.76 130.79 Z M 132.29 131.54 L 131.77 132.35 C 131.30 133.09 131.51 134.08 132.25 134.55 C 132.99 135.03 133.98 134.81 134.46 134.07 L 134.98 133.27 C 135.45 132.52 135.24 131.54 134.50 131.06 C 133.76 130.59 132.77 130.80 132.29 131.54 Z M 131.78 132.33 L 131.23 133.17 C 130.75 133.90 130.95 134.89 131.68 135.38 C 132.42 135.86 133.41 135.66 133.89 134.93 L 134.45 134.09 C 134.93 133.36 134.73 132.37 134.00 131.88 C 133.26 131.39 132.27 131.60 131.78 132.33 Z M 131.24 133.15 L 130.66 134.01 C 130.17 134.74 130.36 135.74 131.09 136.23 C 131.82 136.72 132.81 136.53 133.30 135.80 L 133.89 134.94 C 134.38 134.21 134.19 133.22 133.46 132.72 C 132.73 132.23 131.74 132.42 131.24 133.15 Z M 130.67 134.00 L 130.10 134.82 C 129.60 135.55 129.79 136.54 130.51 137.04 C 131.24 137.54 132.23 137.36 132.73 136.63 L 133.30 135.81 C 133.79 135.08 133.61 134.09 132.88 133.59 C 132.16 133.09 131.16 133.28 130.67 134.00 Z M 130.11 134.82 L 129.56 135.61 C 129.05 136.34 129.23 137.33 129.95 137.83 C 130.68 138.33 131.67 138.16 132.17 137.43 L 132.73 136.64 C 133.23 135.91 133.05 134.92 132.33 134.42 C 131.60 133.91 130.61 134.09 130.11 134.82 Z M 129.56 135.61 L 128.99 136.42 C 128.48 137.14 128.65 138.14 129.37 138.64 C 130.09 139.15 131.09 138.98 131.60 138.26 L 132.17 137.44 C 132.68 136.72 132.50 135.72 131.78 135.22 C 131.06 134.71 130.07 134.88 129.56 135.61 Z M 128.99 136.42 L 128.40 137.25 C 127.89 137.97 128.06 138.96 128.77 139.47 C 129.49 139.98 130.49 139.82 131.00 139.10 L 131.59 138.26 C 132.10 137.54 131.93 136.55 131.21 136.04 C 130.50 135.53 129.50 135.70 128.99 136.42 Z M 128.40 137.25 L 127.81 138.08 C 127.29 138.79 127.46 139.79 128.17 140.30 C 128.89 140.81 129.88 140.65 130.39 139.94 L 130.99 139.10 C 131.50 138.39 131.34 137.39 130.63 136.88 C 129.91 136.37 128.91 136.53 128.40 137.25 Z M 127.81 138.07 L 127.26 138.84 C 126.74 139.55 126.90 140.55 127.61 141.06 C 128.33 141.58 129.32 141.42 129.84 140.71 L 130.39 139.94 C 130.91 139.23 130.75 138.23 130.03 137.72 C 129.32 137.20 128.33 137.36 127.81 138.07 Z M 127.26 138.83 L 126.69 139.62 C 126.17 140.33 126.32 141.32 127.03 141.84 C 127.74 142.36 128.74 142.20 129.26 141.49 L 129.83 140.71 C 130.35 140.00 130.20 139.01 129.49 138.49 C 128.78 137.97 127.78 138.12 127.26 138.83 Z M 126.69 139.61 L 126.10 140.42 C 125.58 141.12 125.73 142.12 126.43 142.64 C 127.14 143.16 128.14 143.01 128.66 142.31 L 129.25 141.50 C 129.77 140.79 129.62 139.80 128.92 139.28 C 128.21 138.75 127.22 138.90 126.69 139.61 Z M 126.10 140.41 L 125.48 141.24 C 124.96 141.95 125.10 142.94 125.80 143.47 C 126.51 143.99 127.50 143.85 128.03 143.15 L 128.65 142.31 C 129.18 141.61 129.03 140.61 128.33 140.09 C 127.63 139.56 126.63 139.71 126.10 140.41 Z M 125.49 141.24 L 124.86 142.08 C 124.33 142.78 124.47 143.77 125.17 144.30 C 125.87 144.83 126.86 144.69 127.39 143.99 L 128.02 143.15 C 128.55 142.45 128.41 141.46 127.71 140.93 C 127.01 140.40 126.02 140.54 125.49 141.24 Z M 124.86 142.07 L 124.27 142.84 C 123.74 143.54 123.87 144.54 124.57 145.07 C 125.27 145.60 126.26 145.47 126.79 144.77 L 127.39 144.00 C 127.92 143.30 127.78 142.30 127.09 141.77 C 126.39 141.24 125.39 141.37 124.86 142.07 Z M 124.28 142.84 L 123.67 143.63 C 123.13 144.32 123.26 145.32 123.96 145.85 C 124.65 146.39 125.65 146.26 126.18 145.56 L 126.79 144.77 C 127.32 144.08 127.19 143.08 126.50 142.55 C 125.81 142.02 124.81 142.15 124.28 142.84 Z M 123.67 143.63 L 123.05 144.42 C 122.52 145.12 122.64 146.11 123.33 146.65 C 124.03 147.18 125.02 147.06 125.56 146.37 L 126.18 145.57 C 126.71 144.88 126.59 143.88 125.90 143.35 C 125.20 142.81 124.21 142.93 123.67 143.63 Z M 123.06 144.42 L 122.43 145.22 C 121.90 145.91 122.02 146.90 122.71 147.44 C 123.39 147.98 124.39 147.86 124.93 147.17 L 125.55 146.37 C 126.09 145.68 125.97 144.69 125.28 144.15 C 124.59 143.61 123.60 143.73 123.06 144.42 Z M 122.44 145.22 L 121.81 146.01 C 121.27 146.70 121.39 147.69 122.08 148.23 C 122.76 148.77 123.76 148.65 124.30 147.97 L 124.92 147.17 C 125.46 146.49 125.34 145.49 124.66 144.95 C 123.97 144.41 122.98 144.53 122.44 145.22 Z M 121.82 146.01 L 121.19 146.80 C 120.64 147.49 120.76 148.48 121.44 149.02 C 122.12 149.56 123.12 149.45 123.66 148.77 L 124.29 147.97 C 124.83 147.29 124.72 146.30 124.04 145.75 C 123.35 145.21 122.36 145.33 121.82 146.01 Z M 121.19 146.80 L 120.56 147.59 C 120.01 148.27 120.12 149.26 120.80 149.81 C 121.48 150.35 122.48 150.24 123.02 149.56 L 123.65 148.77 C 124.20 148.09 124.09 147.10 123.41 146.55 C 122.73 146.01 121.74 146.12 121.19 146.80 Z M 120.56 147.59 L 119.93 148.37 C 119.39 149.05 119.49 150.04 120.17 150.58 C 120.85 151.13 121.84 151.02 122.38 150.35 L 123.01 149.57 C 123.56 148.89 123.45 147.90 122.78 147.35 C 122.10 146.81 121.11 146.91 120.56 147.59 Z M 119.94 148.37 L 119.31 149.14 C 118.76 149.81 118.87 150.80 119.54 151.35 C 120.21 151.90 121.20 151.79 121.75 151.12 L 122.38 150.35 C 122.93 149.68 122.82 148.69 122.15 148.14 C 121.48 147.59 120.49 147.69 119.94 148.37 Z M 119.32 149.14 L 118.69 149.90 C 118.14 150.57 118.24 151.56 118.91 152.11 C 119.58 152.66 120.57 152.56 121.12 151.89 L 121.75 151.12 C 122.29 150.45 122.20 149.46 121.53 148.92 C 120.86 148.37 119.87 148.47 119.32 149.14 Z M 118.70 149.90 L 118.07 150.66 C 117.52 151.33 117.61 152.31 118.28 152.86 C 118.95 153.41 119.94 153.32 120.49 152.65 L 121.11 151.89 C 121.66 151.22 121.57 150.24 120.90 149.69 C 120.23 149.14 119.25 149.23 118.70 149.90 Z M 118.07 150.66 L 117.44 151.42 C 116.89 152.09 116.98 153.07 117.64 153.63 C 118.31 154.18 119.29 154.09 119.84 153.42 L 120.48 152.65 C 121.03 151.99 120.94 151.00 120.28 150.45 C 119.61 149.90 118.63 149.99 118.07 150.66 Z M 117.44 151.42 L 116.80 152.19 C 116.25 152.85 116.34 153.84 117.00 154.39 C 117.66 154.94 118.65 154.85 119.20 154.19 L 119.84 153.42 C 120.39 152.76 120.30 151.78 119.64 151.23 C 118.98 150.67 117.99 150.76 117.44 151.42 Z M 116.81 152.19 L 116.16 152.96 C 115.61 153.62 115.70 154.60 116.36 155.15 C 117.02 155.71 118.00 155.62 118.55 154.96 L 119.19 154.19 C 119.75 153.53 119.66 152.55 119.00 152.00 C 118.34 151.45 117.36 151.53 116.81 152.19 Z M 116.17 152.96 L 115.52 153.73 C 114.97 154.39 115.06 155.37 115.72 155.92 C 116.38 156.47 117.36 156.38 117.91 155.72 L 118.55 154.96 C 119.10 154.30 119.01 153.32 118.35 152.77 C 117.70 152.22 116.72 152.31 116.17 152.96 Z M 115.53 153.74 L 114.89 154.50 C 114.34 155.16 114.43 156.14 115.08 156.69 C 115.74 157.23 116.72 157.15 117.27 156.49 L 117.91 155.72 C 118.45 155.06 118.37 154.09 117.71 153.54 C 117.05 152.99 116.07 153.08 115.53 153.74 Z M 114.89 154.51 L 114.24 155.29 C 113.70 155.94 113.79 156.92 114.45 157.46 C 115.10 158.01 116.08 157.92 116.62 157.26 L 117.27 156.48 C 117.81 155.83 117.72 154.85 117.06 154.31 C 116.41 153.76 115.43 153.85 114.89 154.51 Z M 114.24 155.29 L 113.60 156.08 C 113.06 156.74 113.15 157.71 113.81 158.25 C 114.46 158.79 115.43 158.70 115.98 158.04 L 116.62 157.25 C 117.16 156.59 117.07 155.62 116.41 155.08 C 115.76 154.54 114.78 154.64 114.24 155.29 Z M 113.60 156.09 L 112.96 156.87 C 112.42 157.53 112.52 158.49 113.17 159.03 C 113.83 159.57 114.80 159.47 115.33 158.81 L 115.98 158.03 C 116.51 157.37 116.42 156.41 115.76 155.87 C 115.10 155.33 114.13 155.43 113.60 156.09 Z M 112.96 156.87 L 112.33 157.65 C 111.79 158.31 111.89 159.27 112.55 159.81 C 113.20 160.34 114.17 160.24 114.70 159.58 L 115.33 158.81 C 115.87 158.15 115.77 157.19 115.11 156.65 C 114.46 156.12 113.49 156.22 112.96 156.87 Z M 112.33 157.66 L 111.71 158.43 C 111.18 159.08 111.28 160.04 111.93 160.57 C 112.59 161.10 113.55 161.00 114.08 160.35 L 114.70 159.58 C 115.23 158.92 115.13 157.96 114.47 157.43 C 113.82 156.90 112.86 157.00 112.33 157.66 Z M 111.71 158.43 L 111.10 159.19 C 110.57 159.84 110.67 160.80 111.33 161.33 C 111.98 161.86 112.94 161.75 113.47 161.10 L 114.08 160.34 C 114.61 159.69 114.50 158.73 113.85 158.20 C 113.19 157.67 112.23 157.78 111.71 158.43 Z M 111.10 159.20 L 110.45 160.01 C 109.92 160.66 110.03 161.62 110.68 162.14 C 111.33 162.67 112.29 162.56 112.81 161.91 L 113.47 161.09 C 113.99 160.44 113.88 159.48 113.23 158.96 C 112.58 158.44 111.62 158.54 111.10 159.20 Z M 110.45 160.02 L 109.81 160.82 C 109.29 161.47 109.40 162.42 110.05 162.94 C 110.70 163.46 111.65 163.35 112.17 162.70 L 112.81 161.90 C 113.33 161.25 113.22 160.30 112.57 159.78 C 111.92 159.26 110.97 159.36 110.45 160.02 Z M 109.81 160.82 L 109.19 161.61 C 108.67 162.26 108.78 163.20 109.44 163.72 C 110.09 164.24 111.04 164.13 111.55 163.48 L 112.17 162.69 C 112.69 162.04 112.58 161.10 111.93 160.58 C 111.28 160.06 110.33 160.17 109.81 160.82 Z M 109.19 161.61 L 108.59 162.38 C 108.08 163.03 108.19 163.97 108.84 164.49 C 109.49 165.00 110.43 164.89 110.95 164.24 L 111.55 163.47 C 112.06 162.82 111.95 161.88 111.30 161.36 C 110.65 160.85 109.71 160.96 109.19 161.61 Z M 108.59 162.38 L 108.00 163.14 C 107.49 163.79 107.60 164.73 108.25 165.24 C 108.90 165.75 109.84 165.64 110.35 164.99 L 110.94 164.23 C 111.45 163.58 111.34 162.64 110.69 162.13 C 110.04 161.62 109.10 161.73 108.59 162.38 Z M 108.00 163.15 L 107.36 163.97 C 106.86 164.62 106.97 165.55 107.62 166.06 C 108.27 166.56 109.21 166.45 109.71 165.80 L 110.35 164.98 C 110.85 164.33 110.74 163.40 110.09 162.89 C 109.44 162.39 108.50 162.50 108.00 163.15 Z M 107.36 163.97 L 106.74 164.77 C 106.24 165.42 106.36 166.35 107.01 166.85 C 107.65 167.36 108.59 167.24 109.09 166.59 L 109.71 165.79 C 110.21 165.15 110.09 164.21 109.45 163.71 C 108.80 163.21 107.87 163.33 107.36 163.97 Z M 106.75 164.78 L 106.14 165.56 C 105.64 166.20 105.76 167.13 106.41 167.63 C 107.05 168.13 107.98 168.01 108.48 167.37 L 109.08 166.59 C 109.58 165.94 109.47 165.01 108.82 164.51 C 108.18 164.01 107.25 164.13 106.75 164.78 Z M 106.15 165.56 L 105.55 166.33 C 105.06 166.97 105.17 167.89 105.81 168.39 C 106.45 168.89 107.38 168.77 107.88 168.13 L 108.47 167.37 C 108.97 166.72 108.86 165.80 108.21 165.30 C 107.57 164.80 106.65 164.92 106.15 165.56 Z M 105.56 166.32 L 104.93 167.14 C 104.43 167.77 104.54 168.70 105.17 169.20 C 105.81 169.69 106.73 169.58 107.23 168.95 L 107.87 168.13 C 108.37 167.50 108.26 166.57 107.62 166.08 C 106.98 165.58 106.06 165.69 105.56 166.32 Z M 104.95 167.12 L 104.29 167.92 C 103.78 168.54 103.87 169.46 104.50 169.97 C 105.12 170.48 106.04 170.39 106.55 169.77 L 107.21 168.97 C 107.72 168.34 107.63 167.42 107.00 166.91 C 106.38 166.40 105.46 166.49 104.95 167.12 Z M 104.34 167.87 L 103.68 168.60 C 103.14 169.20 103.19 170.12 103.78 170.66 C 104.38 171.20 105.30 171.15 105.84 170.55 L 106.50 169.82 C 107.04 169.22 107.00 168.30 106.40 167.76 C 105.80 167.22 104.88 167.27 104.34 167.87 Z M 103.76 168.52 L 103.08 169.17 C 102.49 169.72 102.47 170.64 103.02 171.22 C 103.57 171.80 104.49 171.83 105.07 171.28 L 105.75 170.63 C 106.34 170.08 106.36 169.16 105.81 168.58 C 105.26 168.00 104.35 167.97 103.76 168.52 Z M 103.21 169.07 L 102.40 169.67 C 101.76 170.14 101.63 171.04 102.10 171.69 C 102.58 172.33 103.48 172.46 104.12 171.99 L 104.93 171.39 C 105.57 170.91 105.71 170.01 105.23 169.37 C 104.76 168.73 103.85 168.59 103.21 169.07 Z M 102.55 169.58 L 101.68 170.07 C 100.99 170.47 100.75 171.35 101.14 172.04 C 101.54 172.73 102.42 172.97 103.11 172.57 L 103.98 172.08 C 104.67 171.68 104.91 170.80 104.51 170.11 C 104.12 169.42 103.24 169.18 102.55 169.58 Z M 101.78 170.02 L 100.89 170.44 C 100.17 170.78 99.87 171.64 100.21 172.36 C 100.55 173.07 101.40 173.38 102.12 173.04 L 103.01 172.62 C 103.73 172.28 104.03 171.43 103.69 170.71 C 103.35 169.99 102.50 169.68 101.78 170.02 Z M 100.93 170.43 L 100.40 170.66 C 99.68 170.98 99.35 171.82 99.67 172.55 C 99.99 173.27 100.83 173.60 101.56 173.29 L 102.08 173.06 C 102.81 172.74 103.14 171.89 102.82 171.17 C 102.50 170.44 101.65 170.11 100.93 170.43 Z"
      fill="black"
      fill-rule="nonzero" /><path d="M 134.57 138.91 L 135.51 139.17 C 136.31 139.39 137.15 138.92 137.38 138.11 C 137.60 137.30 137.13 136.46 136.32 136.24 L 135.39 135.98 C 134.58 135.76 133.74 136.23 133.52 137.04 C 133.29 137.85 133.76 138.68 134.57 138.91 Z M 135.47 139.16 L 136.41 139.45 C 137.22 139.69 138.07 139.24 138.31 138.44 C 138.56 137.63 138.11 136.79 137.30 136.54 L 136.36 136.25 C 135.55 136.01 134.70 136.46 134.46 137.26 C 134.21 138.06 134.67 138.91 135.47 139.16 Z M 136.34 139.42 L 137.32 139.77 C 138.11 140.06 138.98 139.65 139.26 138.86 C 139.54 138.07 139.13 137.20 138.34 136.91 L 137.37 136.56 C 136.58 136.28 135.71 136.69 135.43 137.48 C 135.14 138.27 135.55 139.14 136.34 139.42 Z M 137.24 139.74 L 138.01 140.07 C 138.79 140.40 139.68 140.04 140.01 139.27 C 140.34 138.50 139.98 137.60 139.20 137.28 L 138.43 136.94 C 137.65 136.62 136.76 136.98 136.43 137.75 C 136.10 138.52 136.46 139.41 137.24 139.74 Z M 137.95 140.04 L 138.75 140.43 C 139.50 140.80 140.41 140.48 140.78 139.72 C 141.14 138.97 140.83 138.06 140.07 137.69 L 139.27 137.30 C 138.52 136.94 137.61 137.26 137.24 138.01 C 136.87 138.77 137.19 139.68 137.95 140.04 Z M 138.69 140.40 L 139.58 140.88 C 140.32 141.27 141.24 140.99 141.64 140.25 C 142.03 139.51 141.75 138.59 141.01 138.19 L 140.13 137.72 C 139.38 137.32 138.46 137.60 138.07 138.34 C 137.67 139.08 137.95 140.01 138.69 140.40 Z M 139.53 140.85 L 140.54 141.44 C 141.27 141.86 142.20 141.60 142.62 140.88 C 143.04 140.15 142.79 139.21 142.06 138.79 L 141.05 138.21 C 140.33 137.79 139.39 138.04 138.97 138.77 C 138.55 139.50 138.80 140.43 139.53 140.85 Z M 140.51 141.42 L 141.43 141.97 C 142.15 142.41 143.09 142.18 143.52 141.46 C 143.96 140.73 143.73 139.80 143.01 139.36 L 142.09 138.81 C 141.37 138.37 140.43 138.60 139.99 139.33 C 139.56 140.05 139.79 140.99 140.51 141.42 Z M 141.41 141.97 L 142.26 142.50 C 142.98 142.95 143.92 142.72 144.37 142.00 C 144.82 141.28 144.60 140.34 143.88 139.89 L 143.03 139.36 C 142.30 138.91 141.36 139.14 140.91 139.86 C 140.46 140.58 140.69 141.53 141.41 141.97 Z M 142.24 142.50 L 143.12 143.06 C 143.85 143.51 144.80 143.30 145.26 142.58 C 145.71 141.85 145.50 140.90 144.77 140.44 L 143.89 139.89 C 143.17 139.43 142.22 139.65 141.76 140.37 C 141.30 141.09 141.52 142.05 142.24 142.50 Z M 143.11 143.06 L 144.00 143.63 C 144.72 144.09 145.68 143.88 146.15 143.16 C 146.61 142.43 146.40 141.47 145.67 141.01 L 144.79 140.44 C 144.06 139.98 143.10 140.19 142.64 140.91 C 142.18 141.64 142.39 142.60 143.11 143.06 Z M 143.99 143.63 L 144.85 144.19 C 145.57 144.66 146.54 144.45 147.01 143.73 C 147.48 143.00 147.27 142.03 146.55 141.56 L 145.69 141.01 C 144.96 140.54 143.99 140.74 143.52 141.47 C 143.05 142.19 143.26 143.16 143.99 143.63 Z M 144.84 144.19 L 145.65 144.72 C 146.38 145.20 147.35 145.00 147.83 144.27 C 148.30 143.54 148.10 142.57 147.37 142.09 L 146.56 141.56 C 145.83 141.08 144.86 141.29 144.38 142.02 C 143.91 142.74 144.11 143.72 144.84 144.19 Z M 145.64 144.73 L 146.50 145.30 C 147.23 145.78 148.21 145.58 148.69 144.85 C 149.17 144.12 148.97 143.14 148.24 142.66 L 147.38 142.09 C 146.65 141.61 145.67 141.81 145.19 142.53 C 144.71 143.26 144.91 144.24 145.64 144.73 Z M 146.49 145.30 L 147.38 145.89 C 148.10 146.38 149.09 146.18 149.58 145.45 C 150.06 144.72 149.87 143.74 149.14 143.25 L 148.25 142.66 C 147.52 142.17 146.54 142.37 146.05 143.10 C 145.56 143.82 145.76 144.81 146.49 145.30 Z M 147.38 145.89 L 148.17 146.42 C 148.90 146.91 149.88 146.71 150.37 145.98 C 150.86 145.25 150.66 144.27 149.93 143.78 L 149.14 143.25 C 148.41 142.76 147.42 142.96 146.94 143.69 C 146.45 144.42 146.65 145.40 147.38 145.89 Z M 148.18 146.43 L 148.95 146.94 C 149.68 147.42 150.67 147.21 151.15 146.48 C 151.63 145.74 151.43 144.76 150.69 144.27 L 149.92 143.77 C 149.19 143.29 148.20 143.49 147.72 144.23 C 147.24 144.96 147.44 145.95 148.18 146.43 Z M 148.97 146.95 L 149.77 147.46 C 150.52 147.93 151.50 147.71 151.97 146.97 C 152.44 146.23 152.22 145.24 151.48 144.77 L 150.68 144.26 C 149.93 143.79 148.95 144.01 148.48 144.75 C 148.00 145.50 148.22 146.48 148.97 146.95 Z M 149.79 147.48 L 150.55 147.94 C 151.30 148.40 152.28 148.17 152.74 147.41 C 153.20 146.66 152.97 145.68 152.22 145.22 L 151.46 144.75 C 150.71 144.29 149.72 144.53 149.26 145.28 C 148.80 146.03 149.04 147.02 149.79 147.48 Z M 150.57 147.96 L 151.39 148.44 C 152.15 148.89 153.13 148.64 153.58 147.88 C 154.03 147.12 153.78 146.14 153.02 145.69 L 152.20 145.20 C 151.44 144.75 150.46 145.00 150.01 145.76 C 149.56 146.52 149.81 147.50 150.57 147.96 Z M 151.41 148.46 L 152.29 148.96 C 153.06 149.40 154.04 149.14 154.48 148.37 C 154.92 147.60 154.65 146.62 153.88 146.18 L 153.00 145.68 C 152.24 145.24 151.26 145.50 150.82 146.27 C 150.38 147.04 150.64 148.02 151.41 148.46 Z M 152.31 148.98 L 153.23 149.49 C 154.01 149.92 154.99 149.64 155.42 148.86 C 155.85 148.09 155.56 147.11 154.79 146.68 L 153.86 146.17 C 153.09 145.74 152.11 146.02 151.68 146.80 C 151.25 147.57 151.53 148.55 152.31 148.98 Z M 153.26 149.50 L 154.22 150.02 C 155.00 150.43 155.98 150.14 156.39 149.35 C 156.81 148.57 156.51 147.60 155.73 147.18 L 154.77 146.67 C 153.98 146.25 153.01 146.55 152.59 147.33 C 152.18 148.11 152.47 149.09 153.26 149.50 Z M 154.24 150.03 L 155.19 150.52 C 155.98 150.92 156.95 150.61 157.36 149.81 C 157.76 149.02 157.45 148.05 156.65 147.65 L 155.71 147.17 C 154.91 146.76 153.95 147.07 153.54 147.87 C 153.14 148.66 153.45 149.63 154.24 150.03 Z M 155.21 150.53 L 156.16 150.99 C 156.96 151.39 157.93 151.06 158.32 150.26 C 158.71 149.46 158.38 148.50 157.58 148.10 L 156.63 147.64 C 155.83 147.25 154.87 147.58 154.48 148.37 C 154.09 149.17 154.42 150.14 155.21 150.53 Z M 156.19 151.00 L 157.12 151.45 C 157.93 151.83 158.89 151.48 159.27 150.68 C 159.64 149.87 159.30 148.91 158.50 148.53 L 157.56 148.09 C 156.76 147.71 155.80 148.06 155.42 148.86 C 155.04 149.67 155.38 150.63 156.19 151.00 Z M 157.15 151.46 L 158.05 151.87 C 158.86 152.23 159.81 151.87 160.18 151.06 C 160.55 150.25 160.19 149.30 159.38 148.93 L 158.47 148.52 C 157.66 148.16 156.71 148.52 156.34 149.33 C 155.98 150.14 156.34 151.09 157.15 151.46 Z M 158.08 151.88 L 158.93 152.25 C 159.74 152.60 160.69 152.22 161.04 151.40 C 161.40 150.59 161.02 149.64 160.20 149.29 L 159.35 148.92 C 158.53 148.57 157.59 148.94 157.23 149.76 C 156.88 150.58 157.26 151.53 158.08 151.88 Z M 158.96 152.26 L 159.91 152.64 C 160.73 152.97 161.67 152.58 162.00 151.75 C 162.34 150.93 161.94 149.99 161.11 149.66 L 160.17 149.27 C 159.34 148.94 158.41 149.34 158.07 150.16 C 157.74 150.99 158.14 151.93 158.96 152.26 Z M 159.95 152.66 L 160.95 153.02 C 161.79 153.33 162.71 152.90 163.02 152.07 C 163.32 151.24 162.90 150.32 162.06 150.01 L 161.06 149.64 C 160.23 149.33 159.31 149.76 159.00 150.59 C 158.70 151.43 159.12 152.35 159.95 152.66 Z M 161.00 153.04 L 161.91 153.34 C 162.75 153.62 163.66 153.16 163.94 152.33 C 164.22 151.49 163.76 150.58 162.92 150.30 L 162.02 150.00 C 161.18 149.72 160.27 150.17 159.99 151.01 C 159.71 151.85 160.16 152.76 161.00 153.04 Z M 161.94 153.34 L 162.81 153.61 C 163.65 153.88 164.55 153.41 164.81 152.56 C 165.07 151.72 164.60 150.83 163.76 150.56 L 162.89 150.29 C 162.05 150.03 161.15 150.50 160.89 151.34 C 160.63 152.19 161.10 153.08 161.94 153.34 Z M 162.82 153.61 L 163.75 153.90 C 164.60 154.15 165.48 153.68 165.74 152.84 C 166.00 152.00 165.53 151.11 164.68 150.85 L 163.75 150.57 C 162.91 150.31 162.02 150.78 161.76 151.62 C 161.51 152.46 161.98 153.35 162.82 153.61 Z M 163.77 153.89 L 164.73 154.18 C 165.57 154.43 166.46 153.96 166.71 153.12 C 166.96 152.28 166.48 151.39 165.64 151.14 L 164.67 150.85 C 163.83 150.60 162.95 151.08 162.70 151.92 C 162.45 152.76 162.93 153.64 163.77 153.89 Z M 164.76 154.18 L 165.73 154.46 C 166.57 154.69 167.44 154.20 167.68 153.36 C 167.91 152.52 167.42 151.65 166.58 151.41 L 165.61 151.14 C 164.77 150.91 163.90 151.40 163.67 152.24 C 163.43 153.08 163.92 153.95 164.76 154.18 Z M 165.77 154.46 L 166.74 154.70 C 167.58 154.92 168.44 154.40 168.65 153.56 C 168.86 152.72 168.35 151.86 167.51 151.65 L 166.54 151.41 C 165.69 151.20 164.84 151.71 164.63 152.55 C 164.42 153.40 164.93 154.25 165.77 154.46 Z M 166.80 154.71 L 167.79 154.92 C 168.63 155.10 169.47 154.56 169.64 153.71 C 169.82 152.86 169.28 152.03 168.43 151.85 L 167.45 151.64 C 166.60 151.46 165.77 152.01 165.59 152.85 C 165.41 153.70 165.95 154.53 166.80 154.71 Z M 167.85 154.92 L 168.82 155.09 C 169.67 155.24 170.48 154.67 170.62 153.82 C 170.77 152.97 170.20 152.16 169.35 152.01 L 168.37 151.85 C 167.52 151.70 166.72 152.27 166.57 153.12 C 166.43 153.97 167.00 154.78 167.85 154.92 Z M 168.87 155.09 L 169.86 155.23 C 170.70 155.34 171.49 154.75 171.60 153.90 C 171.72 153.05 171.13 152.26 170.28 152.15 L 169.30 152.01 C 168.45 151.90 167.66 152.49 167.55 153.34 C 167.43 154.19 168.02 154.98 168.87 155.09 Z M 169.90 155.22 L 170.89 155.33 C 171.74 155.42 172.50 154.81 172.59 153.96 C 172.68 153.11 172.07 152.35 171.22 152.26 L 170.23 152.15 C 169.38 152.06 168.62 152.67 168.53 153.52 C 168.44 154.37 169.05 155.13 169.90 155.22 Z M 170.92 155.32 L 171.92 155.41 C 172.77 155.48 173.51 154.86 173.58 154.01 C 173.66 153.17 173.03 152.43 172.19 152.35 L 171.19 152.27 C 170.34 152.19 169.60 152.82 169.53 153.66 C 169.45 154.51 170.08 155.25 170.92 155.32 Z M 171.95 155.40 L 172.95 155.47 C 173.79 155.53 174.52 154.90 174.58 154.06 C 174.64 153.22 174.00 152.49 173.16 152.43 L 172.16 152.36 C 171.32 152.30 170.59 152.93 170.53 153.77 C 170.47 154.62 171.11 155.34 171.95 155.40 Z M 172.97 155.46 L 173.87 155.52 C 174.71 155.56 175.42 154.92 175.47 154.09 C 175.52 153.25 174.88 152.54 174.04 152.49 L 173.14 152.44 C 172.31 152.39 171.59 153.03 171.54 153.86 C 171.49 154.70 172.13 155.42 172.97 155.46 Z M 173.89 155.51 L 174.82 155.55 C 175.65 155.58 176.36 154.94 176.39 154.11 C 176.43 153.28 175.78 152.57 174.95 152.54 L 174.02 152.50 C 173.19 152.46 172.49 153.11 172.45 153.94 C 172.42 154.77 173.06 155.47 173.89 155.51 Z M 174.84 155.54 L 175.87 155.57 C 176.70 155.60 177.39 154.95 177.41 154.12 C 177.44 153.29 176.79 152.60 175.96 152.58 L 174.93 152.55 C 174.11 152.52 173.41 153.17 173.39 154.00 C 173.37 154.83 174.02 155.52 174.84 155.54 Z M 175.89 155.56 L 177.00 155.58 C 177.82 155.60 178.50 154.94 178.51 154.12 C 178.53 153.30 177.87 152.62 177.05 152.60 L 175.94 152.58 C 175.12 152.57 174.44 153.22 174.43 154.05 C 174.41 154.87 175.07 155.55 175.89 155.56 Z M 177.01 155.58 L 177.91 155.59 C 178.73 155.59 179.40 154.94 179.41 154.12 C 179.42 153.30 178.76 152.63 177.94 152.62 L 177.04 152.61 C 176.22 152.60 175.55 153.26 175.54 154.08 C 175.53 154.90 176.19 155.57 177.01 155.58 Z M 177.93 155.58 L 178.90 155.58 C 179.72 155.58 180.38 154.92 180.38 154.11 C 180.38 153.29 179.72 152.63 178.91 152.63 L 177.93 152.62 C 177.12 152.62 176.45 153.28 176.45 154.10 C 176.45 154.92 177.11 155.58 177.93 155.58 Z M 178.91 155.58 L 179.94 155.57 C 180.75 155.57 181.41 154.90 181.40 154.09 C 181.40 153.28 180.73 152.62 179.92 152.63 L 178.90 152.63 C 178.08 152.64 177.43 153.30 177.43 154.11 C 177.44 154.93 178.10 155.58 178.91 155.58 Z M 179.95 155.56 L 181.00 155.55 C 181.81 155.54 182.46 154.87 182.45 154.06 C 182.44 153.25 181.77 152.60 180.96 152.62 L 179.91 152.63 C 179.10 152.64 178.45 153.31 178.46 154.12 C 178.47 154.93 179.14 155.58 179.95 155.56 Z M 181.02 155.54 L 182.08 155.52 C 182.89 155.49 183.52 154.82 183.50 154.02 C 183.48 153.21 182.81 152.57 182.00 152.59 L 180.94 152.62 C 180.14 152.64 179.50 153.31 179.52 154.12 C 179.54 154.93 180.21 155.56 181.02 155.54 Z M 182.10 155.51 L 183.13 155.47 C 183.93 155.44 184.56 154.76 184.53 153.96 C 184.49 153.15 183.82 152.53 183.01 152.56 L 181.98 152.60 C 181.18 152.63 180.55 153.31 180.59 154.11 C 180.62 154.91 181.29 155.54 182.10 155.51 Z M 183.14 155.46 L 184.15 155.41 C 184.95 155.37 185.57 154.69 185.53 153.89 C 185.49 153.09 184.81 152.47 184.01 152.52 L 183.00 152.57 C 182.20 152.61 181.58 153.29 181.62 154.09 C 181.66 154.89 182.34 155.50 183.14 155.46 Z M 184.17 155.41 L 185.17 155.35 C 185.96 155.30 186.57 154.62 186.52 153.82 C 186.47 153.02 185.79 152.41 184.99 152.46 L 183.99 152.52 C 183.20 152.57 182.59 153.25 182.64 154.05 C 182.69 154.85 183.37 155.45 184.17 155.41 Z M 185.18 155.34 L 186.17 155.28 C 186.96 155.22 187.56 154.54 187.51 153.74 C 187.45 152.95 186.77 152.35 185.97 152.40 L 184.98 152.47 C 184.19 152.52 183.59 153.21 183.64 154.00 C 183.70 154.79 184.38 155.39 185.18 155.34 Z M 186.17 155.27 L 187.16 155.20 C 187.95 155.14 188.54 154.46 188.49 153.67 C 188.43 152.88 187.74 152.28 186.95 152.34 L 185.97 152.41 C 185.18 152.46 184.58 153.15 184.64 153.94 C 184.69 154.73 185.38 155.33 186.17 155.27 Z M 187.16 155.19 L 187.87 155.14 C 188.66 155.09 189.25 154.40 189.19 153.61 C 189.13 152.83 188.45 152.23 187.66 152.29 L 186.95 152.34 C 186.16 152.40 185.57 153.08 185.63 153.87 C 185.69 154.66 186.37 155.25 187.16 155.19 Z"
      fill="black"
      fill-rule="nonzero" /><path d="M 121.81 168.09 L 121.78 169.12 C 121.76 169.96 122.42 170.66 123.26 170.68 C 124.10 170.71 124.81 170.05 124.83 169.21 L 124.86 168.18 C 124.89 167.34 124.22 166.64 123.38 166.61 C 122.54 166.59 121.84 167.25 121.81 168.09 Z M 121.78 169.15 L 121.78 170.16 C 121.77 171.00 122.45 171.69 123.29 171.70 C 124.13 171.70 124.82 171.03 124.82 170.19 L 124.83 169.17 C 124.84 168.33 124.16 167.64 123.32 167.64 C 122.48 167.63 121.79 168.31 121.78 169.15 Z M 121.78 170.23 L 121.81 171.22 C 121.85 172.06 122.56 172.72 123.40 172.69 C 124.24 172.66 124.89 171.95 124.86 171.11 L 124.82 170.12 C 124.79 169.27 124.08 168.62 123.24 168.65 C 122.40 168.68 121.74 169.39 121.78 170.23 Z M 121.82 171.33 L 121.93 172.30 C 122.02 173.13 122.78 173.74 123.62 173.64 C 124.45 173.55 125.05 172.79 124.96 171.96 L 124.85 170.99 C 124.76 170.16 124.00 169.56 123.17 169.65 C 122.33 169.74 121.73 170.50 121.82 171.33 Z M 121.96 172.44 L 122.16 173.41 C 122.33 174.23 123.14 174.76 123.96 174.58 C 124.78 174.41 125.31 173.60 125.14 172.78 L 124.94 171.81 C 124.76 170.99 123.96 170.46 123.13 170.64 C 122.31 170.81 121.78 171.62 121.96 172.44 Z M 122.19 173.53 L 122.47 174.47 C 122.71 175.28 123.56 175.73 124.37 175.49 C 125.17 175.25 125.63 174.40 125.39 173.60 L 125.11 172.66 C 124.86 171.85 124.02 171.39 123.21 171.64 C 122.41 171.88 121.95 172.72 122.19 173.53 Z M 122.50 174.56 L 122.85 175.50 C 123.14 176.29 124.01 176.70 124.80 176.41 C 125.59 176.12 125.99 175.25 125.70 174.46 L 125.36 173.51 C 125.07 172.73 124.20 172.32 123.41 172.61 C 122.62 172.90 122.22 173.77 122.50 174.56 Z M 122.87 175.55 L 123.25 176.47 C 123.56 177.25 124.44 177.62 125.22 177.31 C 126.00 176.99 126.37 176.11 126.05 175.34 L 125.68 174.41 C 125.37 173.64 124.48 173.26 123.71 173.58 C 122.93 173.89 122.56 174.78 122.87 175.55 Z M 123.26 176.50 L 123.64 177.39 C 123.97 178.16 124.86 178.52 125.63 178.19 C 126.39 177.86 126.75 176.97 126.42 176.20 L 126.04 175.31 C 125.71 174.54 124.82 174.19 124.06 174.52 C 123.29 174.84 122.93 175.73 123.26 176.50 Z M 123.66 177.42 L 124.07 178.33 C 124.41 179.09 125.30 179.43 126.06 179.09 C 126.82 178.74 127.16 177.85 126.82 177.10 L 126.41 176.18 C 126.06 175.42 125.17 175.09 124.42 175.43 C 123.66 175.77 123.32 176.66 123.66 177.42 Z M 124.09 178.35 L 124.53 179.28 C 124.88 180.03 125.77 180.35 126.52 180.00 C 127.27 179.64 127.59 178.75 127.24 178.00 L 126.80 177.07 C 126.45 176.32 125.55 176.00 124.80 176.36 C 124.06 176.71 123.73 177.60 124.09 178.35 Z M 124.54 179.30 L 125.00 180.22 C 125.37 180.96 126.26 181.26 127.00 180.90 C 127.74 180.53 128.04 179.64 127.68 178.90 L 127.22 177.98 C 126.85 177.24 125.96 176.94 125.22 177.30 C 124.48 177.67 124.18 178.56 124.54 179.30 Z M 125.02 180.25 L 125.49 181.14 C 125.87 181.87 126.76 182.16 127.49 181.78 C 128.22 181.40 128.50 180.50 128.12 179.77 L 127.66 178.87 C 127.28 178.15 126.38 177.86 125.65 178.24 C 124.92 178.62 124.64 179.52 125.02 180.25 Z M 125.51 181.17 L 125.99 182.05 C 126.38 182.77 127.28 183.03 128.00 182.64 C 128.71 182.25 128.98 181.36 128.59 180.64 L 128.11 179.75 C 127.71 179.04 126.82 178.77 126.10 179.16 C 125.38 179.55 125.12 180.45 125.51 181.17 Z M 126.01 182.07 L 126.50 182.94 C 126.90 183.64 127.80 183.89 128.51 183.49 C 129.21 183.09 129.46 182.19 129.06 181.49 L 128.57 180.62 C 128.17 179.91 127.27 179.67 126.56 180.07 C 125.86 180.47 125.61 181.37 126.01 182.07 Z M 126.52 182.96 L 127.02 183.80 C 127.44 184.50 128.33 184.73 129.03 184.31 C 129.72 183.90 129.95 183.01 129.54 182.31 L 129.04 181.47 C 128.63 180.77 127.73 180.54 127.03 180.95 C 126.34 181.37 126.11 182.26 126.52 182.96 Z M 127.05 183.83 L 127.59 184.69 C 128.01 185.38 128.91 185.58 129.59 185.16 C 130.28 184.73 130.48 183.84 130.06 183.15 L 129.52 182.29 C 129.09 181.60 128.19 181.40 127.51 181.82 C 126.83 182.25 126.62 183.15 127.05 183.83 Z M 127.62 184.73 L 128.17 185.56 C 128.62 186.22 129.52 186.40 130.18 185.96 C 130.85 185.51 131.03 184.61 130.58 183.95 L 130.03 183.12 C 129.58 182.45 128.68 182.28 128.02 182.72 C 127.35 183.17 127.17 184.07 127.62 184.73 Z M 128.22 185.60 L 128.80 186.40 C 129.27 187.04 130.17 187.18 130.81 186.71 C 131.46 186.24 131.59 185.34 131.12 184.70 L 130.54 183.90 C 130.07 183.26 129.17 183.12 128.53 183.59 C 127.88 184.06 127.75 184.96 128.22 185.60 Z M 128.85 186.45 L 129.47 187.22 C 129.97 187.83 130.87 187.93 131.49 187.43 C 132.10 186.93 132.20 186.02 131.70 185.41 L 131.07 184.64 C 130.57 184.03 129.67 183.94 129.06 184.44 C 128.44 184.94 128.35 185.84 128.85 186.45 Z M 129.52 187.27 L 130.18 188.01 C 130.71 188.59 131.62 188.64 132.20 188.11 C 132.79 187.58 132.84 186.68 132.31 186.09 L 131.65 185.36 C 131.12 184.77 130.21 184.72 129.62 185.25 C 129.04 185.78 128.99 186.69 129.52 187.27 Z M 130.22 188.04 L 130.92 188.76 C 131.47 189.33 132.37 189.34 132.94 188.79 C 133.50 188.24 133.52 187.33 132.97 186.77 L 132.27 186.05 C 131.72 185.48 130.81 185.47 130.25 186.02 C 129.68 186.57 129.67 187.48 130.22 188.04 Z M 130.94 188.78 L 131.66 189.49 C 132.23 190.04 133.13 190.03 133.68 189.46 C 134.23 188.90 134.22 188.00 133.66 187.45 L 132.94 186.74 C 132.38 186.19 131.47 186.20 130.92 186.76 C 130.37 187.33 130.38 188.23 130.94 188.78 Z M 131.68 189.50 L 132.27 190.07 C 132.84 190.61 133.74 190.59 134.29 190.02 C 134.83 189.46 134.81 188.55 134.25 188.01 L 133.65 187.44 C 133.08 186.89 132.18 186.91 131.63 187.48 C 131.09 188.05 131.11 188.95 131.68 189.50 Z"
      fill="black"
      fill-rule="nonzero" /><path d="M 127.50 173.62 L 126.71 172.93 C 126.09 172.38 125.14 172.44 124.59 173.07 C 124.05 173.69 124.11 174.64 124.73 175.18 L 125.52 175.88 C 126.15 176.42 127.09 176.36 127.64 175.74 C 128.19 175.12 128.12 174.17 127.50 173.62 Z M 126.72 172.94 L 125.95 172.24 C 125.33 171.69 124.38 171.74 123.83 172.36 C 123.28 172.98 123.33 173.92 123.94 174.48 L 124.72 175.17 C 125.34 175.73 126.28 175.67 126.84 175.06 C 127.39 174.44 127.34 173.49 126.72 172.94 Z M 125.97 172.27 L 125.23 171.57 C 124.62 171.00 123.67 171.03 123.11 171.64 C 122.54 172.24 122.57 173.19 123.18 173.76 L 123.92 174.45 C 124.52 175.02 125.47 174.99 126.04 174.39 C 126.61 173.78 126.58 172.83 125.97 172.27 Z M 125.27 171.61 L 124.57 170.91 C 123.99 170.32 123.04 170.32 122.45 170.91 C 121.86 171.49 121.86 172.44 122.45 173.03 L 123.14 173.72 C 123.72 174.31 124.67 174.31 125.26 173.73 C 125.85 173.14 125.85 172.19 125.27 171.61 Z M 124.63 170.97 L 124.00 170.27 C 123.45 169.65 122.50 169.60 121.88 170.16 C 121.26 170.71 121.21 171.66 121.77 172.28 L 122.39 172.97 C 122.95 173.59 123.90 173.64 124.51 173.08 C 125.13 172.53 125.18 171.58 124.63 170.97 Z M 124.08 170.36 L 123.39 169.46 C 122.89 168.80 121.95 168.68 121.29 169.18 C 120.63 169.68 120.50 170.62 121.00 171.28 L 121.69 172.18 C 122.19 172.84 123.13 172.97 123.79 172.47 C 124.45 171.97 124.58 171.02 124.08 170.36 Z M 123.50 169.63 L 122.95 168.66 C 122.54 167.94 121.62 167.69 120.90 168.10 C 120.18 168.51 119.93 169.43 120.34 170.15 L 120.89 171.12 C 121.30 171.84 122.22 172.09 122.94 171.68 C 123.66 171.27 123.92 170.35 123.50 169.63 Z M 123.08 168.94 L 122.79 168.05 C 122.54 167.26 121.69 166.83 120.90 167.08 C 120.11 167.33 119.67 168.18 119.93 168.97 L 120.21 169.86 C 120.46 170.65 121.31 171.09 122.10 170.84 C 122.90 170.58 123.33 169.74 123.08 168.94 Z M 122.87 168.58 L 122.90 167.82 C 122.94 166.98 122.29 166.28 121.46 166.24 C 120.63 166.21 119.92 166.85 119.89 167.68 L 119.85 168.45 C 119.82 169.28 120.46 169.98 121.29 170.02 C 122.13 170.06 122.83 169.41 122.87 168.58 Z M 122.64 168.61 L 123.11 167.92 C 123.58 167.24 123.41 166.30 122.72 165.82 C 122.03 165.35 121.09 165.53 120.62 166.21 L 120.15 166.89 C 119.68 167.58 119.85 168.52 120.54 168.99 C 121.23 169.47 122.17 169.29 122.64 168.61 Z M 122.63 168.37 L 123.47 167.88 C 124.19 167.46 124.42 166.53 124.00 165.81 C 123.58 165.09 122.65 164.85 121.93 165.27 L 121.10 165.77 C 120.38 166.19 120.14 167.12 120.56 167.84 C 120.98 168.56 121.91 168.80 122.63 168.37 Z M 123.16 168.02 L 124.24 167.67 C 125.03 167.41 125.47 166.56 125.21 165.76 C 124.95 164.97 124.10 164.53 123.30 164.79 L 122.23 165.14 C 121.44 165.39 121.00 166.25 121.26 167.04 C 121.51 167.84 122.37 168.28 123.16 168.02 Z M 124.09 167.71 L 125.04 167.51 C 125.86 167.33 126.38 166.53 126.21 165.71 C 126.03 164.89 125.23 164.37 124.41 164.54 L 123.45 164.75 C 122.63 164.92 122.11 165.73 122.29 166.55 C 122.46 167.37 123.27 167.89 124.09 167.71 Z M 124.96 167.52 L 125.91 167.38 C 126.74 167.25 127.30 166.48 127.18 165.65 C 127.05 164.82 126.28 164.25 125.45 164.38 L 124.50 164.53 C 123.67 164.65 123.10 165.43 123.23 166.25 C 123.35 167.08 124.13 167.65 124.96 167.52 Z M 125.84 167.39 L 126.84 167.28 C 127.68 167.19 128.28 166.44 128.19 165.61 C 128.10 164.78 127.35 164.17 126.52 164.26 L 125.52 164.37 C 124.68 164.46 124.08 165.21 124.17 166.04 C 124.26 166.88 125.01 167.48 125.84 167.39 Z M 126.80 167.29 L 127.85 167.20 C 128.68 167.14 129.31 166.41 129.25 165.58 C 129.18 164.74 128.45 164.11 127.62 164.18 L 126.56 164.26 C 125.73 164.32 125.10 165.05 125.17 165.89 C 125.23 166.72 125.96 167.35 126.80 167.29 Z M 127.82 167.21 L 128.79 167.15 C 129.63 167.10 130.27 166.39 130.22 165.55 C 130.18 164.71 129.46 164.07 128.62 164.12 L 127.65 164.17 C 126.81 164.22 126.17 164.94 126.22 165.78 C 126.26 166.61 126.98 167.25 127.82 167.21 Z M 128.77 167.15 L 129.72 167.11 C 130.56 167.07 131.21 166.37 131.17 165.53 C 131.13 164.69 130.43 164.04 129.59 164.08 L 128.64 164.12 C 127.80 164.15 127.15 164.86 127.19 165.70 C 127.23 166.54 127.94 167.19 128.77 167.15 Z M 129.70 167.11 L 130.69 167.08 C 131.53 167.05 132.18 166.35 132.16 165.51 C 132.13 164.67 131.43 164.02 130.59 164.04 L 129.60 164.08 C 128.77 164.10 128.11 164.81 128.14 165.64 C 128.16 166.48 128.87 167.14 129.70 167.11 Z M 130.67 167.08 L 131.70 167.05 C 132.54 167.03 133.20 166.34 133.18 165.50 C 133.16 164.66 132.46 164.00 131.62 164.02 L 130.60 164.04 C 129.76 164.06 129.10 164.76 129.12 165.60 C 129.14 166.44 129.84 167.10 130.67 167.08 Z M 131.69 167.06 L 132.75 167.04 C 133.59 167.02 134.26 166.33 134.24 165.49 C 134.23 164.65 133.54 163.99 132.70 164.00 L 131.63 164.02 C 130.80 164.03 130.13 164.72 130.14 165.56 C 130.16 166.40 130.85 167.07 131.69 167.06 Z M 132.74 167.04 L 133.75 167.03 C 134.59 167.02 135.26 166.33 135.25 165.49 C 135.25 164.65 134.56 163.98 133.72 163.99 L 132.71 164.00 C 131.87 164.01 131.19 164.70 131.20 165.54 C 131.21 166.37 131.90 167.05 132.74 167.04 Z M 133.75 167.02 L 134.73 167.02 C 135.57 167.01 136.24 166.33 136.23 165.49 C 136.23 164.65 135.54 163.98 134.71 163.98 L 133.73 163.99 C 132.89 163.99 132.21 164.68 132.22 165.52 C 132.22 166.36 132.91 167.03 133.75 167.02 Z M 134.72 167.02 L 135.72 167.01 C 136.56 167.01 137.24 166.33 137.23 165.49 C 137.23 164.65 136.55 163.98 135.71 163.98 L 134.71 163.98 C 133.87 163.98 133.20 164.67 133.20 165.50 C 133.20 166.34 133.88 167.02 134.72 167.02 Z M 135.71 167.01 L 136.73 167.01 C 137.56 167.01 138.24 166.34 138.24 165.50 C 138.24 164.66 137.57 163.98 136.73 163.98 L 135.72 163.98 C 134.88 163.98 134.20 164.66 134.20 165.50 C 134.20 166.33 134.88 167.01 135.71 167.01 Z M 136.72 167.01 L 137.74 167.02 C 138.57 167.02 139.26 166.35 139.26 165.51 C 139.26 164.67 138.59 163.99 137.75 163.99 L 136.73 163.98 C 135.90 163.98 135.22 164.65 135.21 165.49 C 135.21 166.33 135.88 167.01 136.72 167.01 Z M 137.73 167.02 L 138.75 167.03 C 139.58 167.03 140.27 166.36 140.27 165.52 C 140.28 164.69 139.61 164.00 138.77 163.99 L 137.76 163.99 C 136.92 163.98 136.24 164.65 136.23 165.49 C 136.22 166.33 136.89 167.01 137.73 167.02 Z M 138.74 167.02 L 139.76 167.04 C 140.60 167.05 141.28 166.38 141.30 165.54 C 141.31 164.71 140.64 164.02 139.80 164.01 L 138.78 164.00 C 137.94 163.99 137.25 164.65 137.24 165.49 C 137.23 166.33 137.90 167.01 138.74 167.02 Z M 139.75 167.03 L 140.77 167.06 C 141.60 167.07 142.29 166.41 142.31 165.58 C 142.33 164.74 141.67 164.05 140.83 164.03 L 139.81 164.01 C 138.98 163.99 138.29 164.66 138.27 165.49 C 138.25 166.33 138.91 167.02 139.75 167.03 Z M 140.75 167.05 L 141.75 167.09 C 142.58 167.12 143.28 166.47 143.31 165.63 C 143.34 164.80 142.69 164.10 141.86 164.07 L 140.85 164.04 C 140.02 164.01 139.32 164.66 139.29 165.49 C 139.26 166.32 139.91 167.02 140.75 167.05 Z M 141.72 167.08 L 142.71 167.14 C 143.54 167.19 144.26 166.55 144.30 165.72 C 144.35 164.89 143.71 164.18 142.88 164.13 L 141.89 164.07 C 141.06 164.03 140.35 164.67 140.30 165.50 C 140.25 166.33 140.89 167.04 141.72 167.08 Z M 142.67 167.13 L 143.65 167.21 C 144.48 167.28 145.21 166.67 145.28 165.84 C 145.34 165.01 144.73 164.28 143.90 164.22 L 142.92 164.14 C 142.09 164.07 141.37 164.68 141.30 165.51 C 141.23 166.34 141.85 167.07 142.67 167.13 Z M 143.61 167.21 L 144.58 167.32 C 145.40 167.41 146.14 166.82 146.24 166.00 C 146.34 165.18 145.74 164.43 144.92 164.34 L 143.95 164.22 C 143.13 164.13 142.38 164.72 142.29 165.54 C 142.19 166.37 142.78 167.11 143.61 167.21 Z M 144.52 167.31 L 145.52 167.46 C 146.34 167.59 147.10 167.03 147.23 166.21 C 147.36 165.39 146.80 164.63 145.98 164.50 L 144.98 164.35 C 144.16 164.22 143.39 164.78 143.27 165.60 C 143.14 166.42 143.70 167.18 144.52 167.31 Z M 145.46 167.45 L 146.45 167.64 C 147.26 167.80 148.05 167.27 148.20 166.46 C 148.36 165.65 147.83 164.87 147.02 164.71 L 146.03 164.51 C 145.22 164.36 144.44 164.89 144.28 165.70 C 144.12 166.51 144.65 167.29 145.46 167.45 Z M 146.40 167.63 L 147.37 167.86 C 148.17 168.04 148.97 167.54 149.16 166.74 C 149.35 165.94 148.85 165.14 148.05 164.95 L 147.08 164.72 C 146.27 164.53 145.47 165.03 145.28 165.84 C 145.10 166.64 145.59 167.44 146.40 167.63 Z M 147.32 167.84 L 148.28 168.10 C 149.07 168.31 149.89 167.85 150.11 167.05 C 150.32 166.26 149.85 165.44 149.06 165.23 L 148.10 164.97 C 147.31 164.75 146.49 165.22 146.27 166.01 C 146.06 166.81 146.53 167.62 147.32 167.84 Z M 148.23 168.08 L 149.18 168.37 C 149.97 168.61 150.80 168.17 151.04 167.39 C 151.28 166.60 150.84 165.77 150.05 165.53 L 149.11 165.24 C 148.32 165.00 147.49 165.44 147.25 166.23 C 147.01 167.01 147.45 167.84 148.23 168.08 Z M 149.14 168.36 L 150.11 168.69 C 150.89 168.95 151.73 168.54 151.99 167.77 C 152.26 166.99 151.84 166.15 151.07 165.88 L 150.10 165.55 C 149.32 165.29 148.48 165.70 148.22 166.47 C 147.95 167.25 148.36 168.09 149.14 168.36 Z M 150.07 168.67 L 151.04 169.04 C 151.81 169.33 152.66 168.95 152.95 168.18 C 153.24 167.42 152.86 166.57 152.09 166.28 L 151.12 165.90 C 150.35 165.61 149.50 166.00 149.21 166.76 C 148.92 167.52 149.30 168.38 150.07 168.67 Z M 150.99 169.02 L 151.93 169.42 C 152.68 169.74 153.55 169.39 153.87 168.64 C 154.19 167.89 153.84 167.02 153.09 166.70 L 152.15 166.30 C 151.40 165.98 150.53 166.33 150.21 167.08 C 149.89 167.83 150.24 168.70 150.99 169.02 Z M 151.87 169.39 L 152.76 169.82 C 153.50 170.17 154.38 169.86 154.73 169.13 C 155.08 168.39 154.78 167.51 154.04 167.16 L 153.15 166.73 C 152.42 166.38 151.54 166.69 151.18 167.42 C 150.83 168.15 151.14 169.03 151.87 169.39 Z M 152.69 169.78 L 153.52 170.23 C 154.24 170.63 155.13 170.37 155.52 169.66 C 155.91 168.94 155.65 168.05 154.94 167.66 L 154.11 167.20 C 153.40 166.81 152.51 167.07 152.12 167.78 C 151.72 168.49 151.98 169.39 152.69 169.78 Z M 153.43 170.18 L 154.29 170.73 C 154.97 171.17 155.88 170.98 156.32 170.29 C 156.76 169.61 156.56 168.70 155.88 168.26 L 155.03 167.71 C 154.35 167.27 153.44 167.47 153.00 168.15 C 152.56 168.83 152.75 169.74 153.43 170.18 Z M 154.17 170.65 L 155.00 171.30 C 155.63 171.80 156.55 171.69 157.06 171.06 C 157.56 170.42 157.45 169.50 156.82 169.00 L 155.99 168.35 C 155.36 167.84 154.44 167.95 153.93 168.59 C 153.43 169.22 153.54 170.14 154.17 170.65 Z M 154.87 171.19 L 155.58 171.88 C 156.15 172.45 157.08 172.45 157.65 171.87 C 158.22 171.30 158.21 170.37 157.64 169.80 L 156.94 169.11 C 156.36 168.54 155.43 168.54 154.86 169.12 C 154.30 169.69 154.30 170.62 154.87 171.19 Z M 155.46 171.75 L 156.05 172.49 C 156.55 173.12 157.47 173.23 158.10 172.73 C 158.74 172.23 158.84 171.31 158.34 170.67 L 157.75 169.93 C 157.25 169.30 156.33 169.19 155.70 169.69 C 155.06 170.20 154.96 171.12 155.46 171.75 Z M 155.94 172.34 L 156.43 173.15 C 156.85 173.85 157.75 174.07 158.44 173.65 C 159.13 173.23 159.35 172.34 158.94 171.64 L 158.45 170.83 C 158.03 170.14 157.13 169.91 156.44 170.33 C 155.75 170.75 155.52 171.64 155.94 172.34 Z M 156.35 172.99 L 156.74 173.89 C 157.07 174.62 157.93 174.96 158.67 174.63 C 159.41 174.31 159.74 173.45 159.42 172.71 L 159.02 171.81 C 158.70 171.07 157.83 170.73 157.10 171.06 C 156.36 171.39 156.02 172.25 156.35 172.99 Z M 156.68 173.73 L 156.98 174.68 C 157.21 175.45 158.03 175.88 158.80 175.64 C 159.57 175.41 160.01 174.59 159.77 173.82 L 159.48 172.87 C 159.24 172.09 158.42 171.66 157.65 171.90 C 156.88 172.14 156.45 172.95 156.68 173.73 Z M 156.94 174.54 L 157.14 175.54 C 157.30 176.33 158.07 176.84 158.86 176.68 C 159.66 176.52 160.17 175.75 160.01 174.96 L 159.81 173.96 C 159.65 173.17 158.87 172.65 158.08 172.81 C 157.29 172.97 156.78 173.74 156.94 174.54 Z M 157.12 175.42 L 157.24 176.40 C 157.33 177.20 158.06 177.77 158.86 177.68 C 159.67 177.58 160.24 176.85 160.14 176.05 L 160.03 175.07 C 159.93 174.27 159.20 173.70 158.40 173.79 C 157.60 173.89 157.03 174.62 157.12 175.42 Z M 157.23 176.28 L 157.27 177.26 C 157.30 178.07 157.98 178.70 158.79 178.67 C 159.59 178.64 160.22 177.96 160.19 177.15 L 160.15 176.17 C 160.12 175.36 159.44 174.73 158.63 174.76 C 157.83 174.79 157.20 175.47 157.23 176.28 Z M 157.26 177.13 L 157.21 178.13 C 157.17 178.94 157.79 179.63 158.60 179.67 C 159.41 179.72 160.10 179.09 160.14 178.29 L 160.19 177.28 C 160.24 176.47 159.62 175.78 158.81 175.74 C 158.00 175.70 157.31 176.32 157.26 177.13 Z M 157.23 177.98 L 157.06 178.99 C 156.94 179.79 157.48 180.54 158.28 180.67 C 159.09 180.80 159.84 180.25 159.97 179.45 L 160.13 178.44 C 160.25 177.64 159.71 176.88 158.91 176.76 C 158.11 176.63 157.35 177.18 157.23 177.98 Z M 157.10 178.82 L 156.84 179.76 C 156.62 180.54 157.08 181.36 157.86 181.57 C 158.64 181.79 159.45 181.33 159.67 180.55 L 159.93 179.61 C 160.15 178.83 159.69 178.02 158.91 177.80 C 158.13 177.58 157.32 178.04 157.10 178.82 Z M 156.88 179.61 L 156.53 180.50 C 156.23 181.26 156.61 182.12 157.36 182.41 C 158.12 182.71 158.98 182.34 159.28 181.58 L 159.63 180.70 C 159.93 179.94 159.55 179.08 158.80 178.78 C 158.04 178.48 157.18 178.86 156.88 179.61 Z M 156.58 180.38 L 156.14 181.26 C 155.77 181.99 156.07 182.88 156.80 183.25 C 157.53 183.61 158.42 183.32 158.79 182.59 L 159.23 181.71 C 159.59 180.97 159.30 180.09 158.57 179.72 C 157.84 179.35 156.95 179.65 156.58 180.38 Z M 156.19 181.16 L 155.66 182.04 C 155.24 182.74 155.47 183.65 156.17 184.08 C 156.87 184.50 157.78 184.27 158.21 183.57 L 158.73 182.69 C 159.16 181.99 158.93 181.07 158.23 180.65 C 157.52 180.23 156.61 180.46 156.19 181.16 Z M 155.71 181.96 L 155.10 182.83 C 154.64 183.51 154.80 184.44 155.48 184.90 C 156.15 185.37 157.08 185.20 157.55 184.53 L 158.16 183.65 C 158.63 182.98 158.46 182.05 157.78 181.58 C 157.11 181.11 156.18 181.28 155.71 181.96 Z M 155.15 182.77 L 154.51 183.59 C 154.01 184.24 154.13 185.18 154.78 185.68 C 155.43 186.19 156.37 186.07 156.87 185.41 L 157.51 184.59 C 158.01 183.94 157.89 183.00 157.24 182.50 C 156.59 182.00 155.65 182.12 155.15 182.77 Z M 154.55 183.54 L 153.87 184.34 C 153.34 184.97 153.43 185.92 154.06 186.45 C 154.69 186.98 155.64 186.90 156.17 186.26 L 156.84 185.46 C 157.37 184.83 157.29 183.88 156.66 183.35 C 156.02 182.82 155.08 182.90 154.55 183.54 Z M 153.90 184.30 L 153.22 185.06 C 152.66 185.68 152.71 186.63 153.33 187.19 C 153.95 187.74 154.90 187.69 155.45 187.07 L 156.14 186.30 C 156.70 185.69 156.64 184.73 156.03 184.18 C 155.41 183.63 154.46 183.68 153.90 184.30 Z M 153.24 185.03 L 152.56 185.75 C 151.99 186.35 152.01 187.31 152.62 187.88 C 153.22 188.45 154.18 188.43 154.75 187.82 L 155.43 187.10 C 156.00 186.50 155.98 185.54 155.37 184.97 C 154.77 184.40 153.81 184.43 153.24 185.03 Z M 152.58 185.72 L 151.93 186.37 C 151.34 186.96 151.35 187.92 151.94 188.51 C 152.53 189.10 153.49 189.10 154.08 188.51 L 154.73 187.85 C 155.32 187.26 155.32 186.30 154.72 185.71 C 154.13 185.12 153.17 185.13 152.58 185.72 Z M 151.96 186.34 L 151.16 187.10 C 150.55 187.68 150.53 188.64 151.11 189.25 C 151.69 189.85 152.65 189.88 153.26 189.30 L 154.05 188.54 C 154.66 187.96 154.68 187.00 154.11 186.39 C 153.53 185.78 152.57 185.76 151.96 186.34 Z M 151.19 187.06 L 150.45 187.73 C 149.82 188.29 149.76 189.25 150.32 189.88 C 150.88 190.51 151.85 190.56 152.48 190.00 L 153.22 189.34 C 153.85 188.78 153.91 187.81 153.35 187.18 C 152.79 186.56 151.82 186.50 151.19 187.06 Z M 150.48 187.69 L 149.76 188.29 C 149.12 188.84 149.03 189.80 149.57 190.45 C 150.12 191.09 151.08 191.18 151.73 190.64 L 152.44 190.04 C 153.09 189.49 153.17 188.53 152.63 187.88 C 152.09 187.24 151.13 187.15 150.48 187.69 Z M 149.78 188.27 L 149.05 188.86 C 148.39 189.39 148.29 190.36 148.82 191.02 C 149.35 191.68 150.31 191.78 150.97 191.25 L 151.71 190.66 C 152.37 190.13 152.47 189.16 151.94 188.50 C 151.41 187.84 150.44 187.74 149.78 188.27 Z M 149.07 188.84 L 148.28 189.45 C 147.61 189.98 147.49 190.94 148.02 191.61 C 148.54 192.28 149.51 192.40 150.18 191.88 L 150.96 191.27 C 151.63 190.74 151.75 189.78 151.22 189.11 C 150.70 188.44 149.73 188.32 149.07 188.84 Z M 148.31 189.43 L 147.50 190.04 C 146.81 190.55 146.67 191.51 147.18 192.20 C 147.70 192.88 148.66 193.02 149.35 192.51 L 150.15 191.90 C 150.84 191.39 150.98 190.43 150.47 189.74 C 149.96 189.06 148.99 188.92 148.31 189.43 Z M 147.53 190.00 L 146.71 190.58 C 146.01 191.07 145.84 192.04 146.33 192.74 C 146.82 193.44 147.79 193.61 148.49 193.12 L 149.31 192.54 C 150.01 192.05 150.18 191.08 149.69 190.38 C 149.20 189.68 148.23 189.51 147.53 190.00 Z M 146.76 190.54 L 145.90 191.09 C 145.18 191.55 144.97 192.52 145.43 193.24 C 145.90 193.96 146.86 194.17 147.58 193.71 L 148.44 193.16 C 149.16 192.69 149.37 191.73 148.91 191.01 C 148.44 190.29 147.48 190.08 146.76 190.54 Z M 145.95 191.05 L 145.08 191.56 C 144.34 192.00 144.09 192.96 144.53 193.70 C 144.97 194.44 145.93 194.69 146.67 194.25 L 147.53 193.74 C 148.28 193.31 148.52 192.35 148.09 191.60 C 147.65 190.86 146.69 190.62 145.95 191.05 Z M 145.11 191.54 L 144.25 192.02 C 143.49 192.44 143.22 193.40 143.64 194.15 C 144.07 194.91 145.02 195.18 145.78 194.76 L 146.64 194.28 C 147.40 193.86 147.67 192.90 147.25 192.14 C 146.83 191.39 145.87 191.12 145.11 191.54 Z M 144.26 192.01 L 143.39 192.48 C 142.62 192.90 142.34 193.86 142.76 194.62 C 143.17 195.39 144.13 195.67 144.90 195.25 L 145.77 194.77 C 146.53 194.36 146.81 193.40 146.40 192.63 C 145.98 191.87 145.02 191.59 144.26 192.01 Z M 143.39 192.48 L 142.50 192.96 C 141.73 193.37 141.45 194.33 141.86 195.10 C 142.28 195.87 143.24 196.16 144.01 195.74 L 144.90 195.26 C 145.66 194.84 145.95 193.88 145.53 193.11 C 145.11 192.34 144.15 192.06 143.39 192.48 Z M 142.51 192.95 L 141.62 193.42 C 140.85 193.83 140.56 194.79 140.97 195.57 C 141.38 196.34 142.35 196.63 143.12 196.22 L 144.00 195.75 C 144.78 195.34 145.07 194.37 144.66 193.60 C 144.24 192.83 143.28 192.53 142.51 192.95 Z M 141.64 193.40 L 140.79 193.84 C 140.00 194.25 139.70 195.21 140.10 196.00 C 140.51 196.78 141.47 197.08 142.26 196.68 L 143.11 196.24 C 143.89 195.83 144.19 194.87 143.79 194.08 C 143.38 193.30 142.42 193.00 141.64 193.40 Z M 140.81 193.83 L 140.09 194.19 C 139.29 194.58 138.97 195.54 139.36 196.33 C 139.76 197.13 140.72 197.45 141.51 197.05 L 142.23 196.69 C 143.03 196.30 143.35 195.34 142.96 194.55 C 142.56 193.76 141.60 193.43 140.81 193.83 Z M 140.12 194.16 L 139.31 194.54 C 138.51 194.92 138.16 195.87 138.54 196.68 C 138.91 197.48 139.87 197.83 140.67 197.45 L 141.48 197.08 C 142.28 196.70 142.63 195.74 142.25 194.94 C 141.88 194.13 140.92 193.79 140.12 194.16 Z M 139.34 194.52 L 138.37 194.95 C 137.56 195.30 137.18 196.26 137.54 197.07 C 137.90 197.89 138.85 198.26 139.67 197.90 L 140.64 197.47 C 141.45 197.12 141.83 196.17 141.47 195.35 C 141.11 194.53 140.16 194.16 139.34 194.52 Z M 138.40 194.93 L 137.24 195.41 C 136.42 195.75 136.03 196.70 136.37 197.52 C 136.71 198.35 137.66 198.74 138.49 198.40 L 139.64 197.92 C 140.46 197.58 140.85 196.63 140.51 195.80 C 140.17 194.98 139.22 194.59 138.40 194.93 Z M 137.26 195.40 L 136.43 195.73 C 135.60 196.06 135.19 197.01 135.52 197.84 C 135.86 198.67 136.80 199.08 137.64 198.74 L 138.47 198.41 C 139.30 198.08 139.71 197.13 139.37 196.30 C 139.04 195.47 138.09 195.06 137.26 195.40 Z M 136.44 195.72 L 135.53 196.08 C 134.69 196.40 134.27 197.35 134.60 198.19 C 134.93 199.03 135.87 199.44 136.71 199.11 L 137.63 198.76 C 138.46 198.43 138.88 197.48 138.55 196.64 C 138.22 195.80 137.28 195.39 136.44 195.72 Z M 135.54 196.06 L 134.57 196.43 C 133.73 196.75 133.30 197.70 133.62 198.54 C 133.95 199.39 134.89 199.81 135.74 199.49 L 136.70 199.12 C 137.55 198.80 137.97 197.86 137.65 197.01 C 137.33 196.17 136.38 195.74 135.54 196.06 Z M 134.59 196.42 L 133.59 196.79 C 132.74 197.10 132.31 198.05 132.62 198.90 C 132.94 199.75 133.88 200.18 134.73 199.87 L 135.72 199.50 C 136.57 199.19 137.01 198.24 136.70 197.39 C 136.38 196.54 135.44 196.11 134.59 196.42 Z M 133.61 196.77 L 132.62 197.13 C 131.76 197.43 131.31 198.37 131.61 199.23 C 131.92 200.09 132.86 200.54 133.72 200.24 L 134.72 199.88 C 135.57 199.58 136.02 198.63 135.72 197.78 C 135.41 196.92 134.47 196.47 133.61 196.77 Z M 132.64 197.11 L 131.67 197.44 C 130.80 197.73 130.34 198.67 130.63 199.54 C 130.93 200.41 131.87 200.87 132.73 200.58 L 133.70 200.25 C 134.57 199.96 135.03 199.02 134.74 198.15 C 134.45 197.28 133.51 196.82 132.64 197.11 Z M 131.70 197.42 L 130.65 197.75 C 129.78 198.03 129.29 198.96 129.57 199.84 C 129.84 200.71 130.78 201.20 131.65 200.92 L 132.70 200.59 C 133.58 200.32 134.06 199.38 133.79 198.51 C 133.51 197.63 132.58 197.15 131.70 197.42 Z M 130.71 197.73 L 129.28 198.13 C 128.39 198.37 127.87 199.29 128.12 200.18 C 128.36 201.07 129.28 201.59 130.17 201.34 L 131.60 200.95 C 132.49 200.70 133.01 199.78 132.76 198.89 C 132.51 198.00 131.60 197.48 130.71 197.73 Z M 129.34 198.11 L 128.24 198.37 C 127.34 198.58 126.78 199.47 126.99 200.37 C 127.20 201.27 128.10 201.83 129.00 201.62 L 130.10 201.36 C 131.00 201.15 131.56 200.25 131.35 199.35 C 131.14 198.45 130.24 197.90 129.34 198.11 Z M 128.31 198.35 L 127.60 198.48 C 126.69 198.65 126.09 199.53 126.27 200.44 C 126.44 201.35 127.31 201.94 128.22 201.77 L 128.93 201.64 C 129.84 201.47 130.44 200.59 130.26 199.68 C 130.09 198.77 129.22 198.17 128.31 198.35 Z M 127.81 198.45 L 127.60 198.46 C 126.67 198.52 125.97 199.31 126.02 200.24 C 126.08 201.16 126.87 201.87 127.80 201.81 L 128.01 201.80 C 128.94 201.75 129.64 200.95 129.59 200.03 C 129.53 199.10 128.74 198.40 127.81 198.45 Z M 128.13 201.76 L 128.76 201.60 C 129.66 201.36 130.19 200.44 129.95 199.54 C 129.72 198.64 128.80 198.11 127.90 198.35 L 127.27 198.51 C 126.37 198.75 125.84 199.67 126.07 200.57 C 126.31 201.47 127.23 202.00 128.13 201.76 Z M 128.71 201.61 L 130.02 201.30 C 130.93 201.10 131.49 200.19 131.28 199.29 C 131.07 198.39 130.17 197.82 129.26 198.03 L 127.95 198.33 C 127.05 198.54 126.48 199.45 126.69 200.35 C 126.90 201.25 127.80 201.82 128.71 201.61 Z M 130.01 201.31 L 131.13 201.05 C 132.03 200.85 132.60 199.95 132.40 199.05 C 132.19 198.14 131.29 197.57 130.39 197.78 L 129.27 198.03 C 128.37 198.23 127.80 199.13 128.01 200.04 C 128.21 200.94 129.11 201.51 130.01 201.31 Z M 131.13 201.05 L 132.12 200.83 C 133.03 200.62 133.59 199.73 133.39 198.82 C 133.19 197.92 132.29 197.35 131.39 197.56 L 130.39 197.78 C 129.49 197.98 128.92 198.88 129.12 199.78 C 129.32 200.69 130.22 201.26 131.13 201.05 Z M 132.12 200.82 L 133.13 200.60 C 134.03 200.39 134.59 199.50 134.39 198.59 C 134.18 197.69 133.29 197.13 132.39 197.33 L 131.38 197.56 C 130.48 197.76 129.92 198.66 130.12 199.56 C 130.33 200.46 131.22 201.03 132.12 200.82 Z M 133.13 200.59 L 134.10 200.37 C 135.00 200.16 135.56 199.27 135.36 198.37 C 135.15 197.47 134.25 196.91 133.35 197.11 L 132.38 197.34 C 131.48 197.54 130.92 198.44 131.13 199.34 C 131.33 200.24 132.23 200.80 133.13 200.59 Z M 134.11 200.36 L 135.10 200.13 C 136.00 199.92 136.55 199.02 136.34 198.12 C 136.13 197.23 135.23 196.67 134.33 196.88 L 133.34 197.12 C 132.45 197.33 131.89 198.23 132.10 199.13 C 132.32 200.02 133.21 200.58 134.11 200.36 Z M 135.12 200.12 L 136.14 199.87 C 137.03 199.64 137.58 198.74 137.36 197.85 C 137.13 196.96 136.23 196.42 135.34 196.64 L 134.32 196.89 C 133.43 197.11 132.88 198.02 133.11 198.91 C 133.33 199.80 134.23 200.34 135.12 200.12 Z M 136.16 199.85 L 137.10 199.61 C 137.98 199.38 138.51 198.47 138.28 197.59 C 138.05 196.71 137.15 196.18 136.26 196.41 L 135.33 196.65 C 134.44 196.88 133.91 197.79 134.14 198.67 C 134.37 199.55 135.28 200.08 136.16 199.85 Z M 137.12 199.59 L 138.01 199.35 C 138.88 199.11 139.40 198.20 139.16 197.33 C 138.92 196.45 138.01 195.94 137.14 196.18 L 136.24 196.42 C 135.37 196.66 134.85 197.57 135.10 198.44 C 135.34 199.32 136.24 199.83 137.12 199.59 Z M 138.03 199.33 L 138.97 199.06 C 139.84 198.81 140.34 197.90 140.09 197.04 C 139.84 196.17 138.94 195.67 138.07 195.92 L 137.12 196.19 C 136.25 196.44 135.75 197.35 136.00 198.21 C 136.25 199.08 137.16 199.58 138.03 199.33 Z M 138.98 199.05 L 139.94 198.77 C 140.80 198.51 141.30 197.61 141.04 196.74 C 140.78 195.88 139.88 195.39 139.02 195.64 L 138.06 195.93 C 137.20 196.18 136.71 197.09 136.96 197.95 C 137.22 198.81 138.12 199.31 138.98 199.05 Z M 139.94 198.76 L 140.91 198.47 C 141.77 198.21 142.25 197.31 142.00 196.45 C 141.74 195.60 140.84 195.11 139.98 195.36 L 139.01 195.65 C 138.16 195.91 137.67 196.81 137.93 197.67 C 138.18 198.53 139.09 199.02 139.94 198.76 Z M 140.90 198.46 L 141.85 198.18 C 142.71 197.93 143.19 197.03 142.94 196.18 C 142.68 195.32 141.79 194.83 140.93 195.09 L 139.98 195.37 C 139.13 195.63 138.64 196.52 138.90 197.38 C 139.15 198.23 140.05 198.72 140.90 198.46 Z M 141.85 198.17 L 142.80 197.89 C 143.65 197.63 144.13 196.74 143.88 195.89 C 143.63 195.04 142.73 194.56 141.88 194.81 L 140.93 195.10 C 140.08 195.35 139.60 196.25 139.86 197.10 C 140.11 197.94 141.00 198.43 141.85 198.17 Z M 142.81 197.87 L 143.78 197.58 C 144.62 197.32 145.09 196.42 144.83 195.58 C 144.57 194.74 143.68 194.27 142.84 194.53 L 141.87 194.83 C 141.03 195.09 140.56 195.98 140.82 196.82 C 141.08 197.66 141.97 198.14 142.81 197.87 Z M 143.80 197.56 L 144.75 197.25 C 145.59 196.98 146.04 196.09 145.77 195.25 C 145.50 194.42 144.61 193.96 143.77 194.23 L 142.82 194.54 C 141.98 194.81 141.53 195.71 141.80 196.54 C 142.07 197.38 142.96 197.83 143.80 197.56 Z M 144.77 197.23 L 145.71 196.91 C 146.54 196.63 146.97 195.73 146.69 194.91 C 146.41 194.08 145.51 193.65 144.69 193.93 L 143.75 194.25 C 142.93 194.53 142.49 195.43 142.77 196.25 C 143.05 197.08 143.95 197.52 144.77 197.23 Z M 145.73 196.89 L 146.67 196.56 C 147.49 196.26 147.91 195.37 147.62 194.55 C 147.33 193.74 146.43 193.31 145.61 193.61 L 144.67 193.95 C 143.86 194.24 143.43 195.14 143.73 195.95 C 144.02 196.76 144.92 197.19 145.73 196.89 Z M 146.69 196.54 L 147.64 196.19 C 148.44 195.89 148.85 194.99 148.55 194.18 C 148.25 193.38 147.35 192.97 146.55 193.27 L 145.60 193.62 C 144.79 193.92 144.38 194.82 144.69 195.63 C 144.99 196.43 145.88 196.84 146.69 196.54 Z M 147.65 196.17 L 148.57 195.82 C 149.37 195.51 149.77 194.61 149.46 193.82 C 149.16 193.02 148.26 192.62 147.46 192.93 L 146.54 193.28 C 145.74 193.59 145.34 194.48 145.65 195.28 C 145.95 196.08 146.85 196.48 147.65 196.17 Z M 148.58 195.80 L 149.51 195.44 C 150.30 195.13 150.69 194.24 150.38 193.45 C 150.07 192.66 149.18 192.26 148.39 192.57 L 147.46 192.94 C 146.67 193.25 146.28 194.14 146.59 194.93 C 146.90 195.72 147.79 196.11 148.58 195.80 Z M 149.51 195.43 L 150.44 195.06 C 151.23 194.75 151.61 193.86 151.30 193.08 C 151.00 192.29 150.11 191.91 149.32 192.22 L 148.39 192.58 C 147.60 192.89 147.22 193.78 147.52 194.57 C 147.83 195.35 148.72 195.74 149.51 195.43 Z M 150.44 195.05 L 151.36 194.69 C 152.14 194.39 152.53 193.50 152.22 192.72 C 151.91 191.94 151.03 191.55 150.25 191.86 L 149.33 192.22 C 148.54 192.53 148.16 193.41 148.47 194.19 C 148.77 194.98 149.66 195.36 150.44 195.05 Z M 151.35 194.69 L 152.26 194.33 C 153.04 194.03 153.42 193.15 153.12 192.38 C 152.82 191.60 151.94 191.21 151.16 191.52 L 150.26 191.87 C 149.48 192.17 149.09 193.05 149.40 193.83 C 149.70 194.60 150.58 194.99 151.35 194.69 Z M 152.25 194.33 L 153.18 193.97 C 153.95 193.67 154.34 192.80 154.04 192.02 C 153.74 191.25 152.87 190.86 152.09 191.16 L 151.17 191.52 C 150.39 191.82 150.01 192.69 150.31 193.47 C 150.61 194.24 151.48 194.63 152.25 194.33 Z M 153.17 193.96 L 154.13 193.59 C 154.90 193.30 155.29 192.43 154.99 191.66 C 154.69 190.89 153.83 190.50 153.05 190.80 L 152.10 191.17 C 151.32 191.47 150.94 192.33 151.24 193.11 C 151.54 193.88 152.40 194.26 153.17 193.96 Z M 154.13 193.59 L 155.07 193.23 C 155.83 192.93 156.22 192.07 155.92 191.30 C 155.62 190.53 154.76 190.15 153.99 190.44 L 153.06 190.81 C 152.29 191.10 151.91 191.97 152.20 192.73 C 152.50 193.50 153.36 193.88 154.13 193.59 Z M 155.06 193.22 L 155.98 192.87 C 156.75 192.57 157.13 191.71 156.84 190.95 C 156.54 190.18 155.68 189.80 154.92 190.10 L 154.00 190.45 C 153.23 190.74 152.85 191.60 153.14 192.37 C 153.44 193.13 154.30 193.52 155.06 193.22 Z M 155.98 192.86 L 156.92 192.50 C 157.68 192.21 158.07 191.36 157.78 190.60 C 157.49 189.83 156.63 189.45 155.87 189.74 L 154.93 190.10 C 154.16 190.39 153.78 191.24 154.07 192.01 C 154.36 192.77 155.21 193.15 155.98 192.86 Z M 156.91 192.50 L 157.86 192.15 C 158.62 191.86 159.01 191.01 158.73 190.25 C 158.44 189.49 157.59 189.10 156.83 189.39 L 155.88 189.74 C 155.12 190.03 154.73 190.88 155.01 191.64 C 155.30 192.40 156.15 192.79 156.91 192.50 Z M 157.85 192.15 L 158.79 191.80 C 159.56 191.53 159.95 190.69 159.67 189.92 C 159.40 189.16 158.56 188.77 157.79 189.04 L 156.85 189.39 C 156.08 189.66 155.69 190.51 155.97 191.27 C 156.24 192.03 157.08 192.42 157.85 192.15 Z M 158.78 191.80 L 159.72 191.47 C 160.48 191.21 160.88 190.37 160.61 189.61 C 160.34 188.85 159.51 188.45 158.75 188.72 L 157.81 189.04 C 157.05 189.31 156.65 190.15 156.92 190.91 C 157.18 191.67 158.02 192.07 158.78 191.80 Z M 159.70 191.47 L 160.64 191.15 C 161.40 190.89 161.81 190.06 161.55 189.30 C 161.29 188.54 160.46 188.13 159.70 188.39 L 158.76 188.72 C 158.00 188.98 157.59 189.81 157.85 190.57 C 158.11 191.33 158.94 191.73 159.70 191.47 Z M 160.63 191.15 L 161.58 190.83 C 162.34 190.57 162.75 189.75 162.49 188.99 C 162.24 188.23 161.42 187.82 160.66 188.08 L 159.71 188.40 C 158.95 188.65 158.54 189.48 158.79 190.24 C 159.05 191.00 159.87 191.40 160.63 191.15 Z M 161.58 190.83 L 162.54 190.51 C 163.30 190.25 163.70 189.43 163.45 188.68 C 163.20 187.92 162.38 187.51 161.62 187.76 L 160.66 188.08 C 159.90 188.33 159.49 189.15 159.75 189.91 C 160.00 190.67 160.82 191.08 161.58 190.83 Z M 162.54 190.50 L 163.46 190.20 C 164.21 189.94 164.62 189.13 164.37 188.37 C 164.12 187.61 163.30 187.21 162.54 187.46 L 161.62 187.76 C 160.87 188.02 160.46 188.83 160.71 189.59 C 160.96 190.35 161.78 190.75 162.54 190.50 Z M 163.45 190.19 L 164.39 189.88 C 165.15 189.63 165.56 188.82 165.31 188.06 C 165.06 187.31 164.24 186.90 163.48 187.15 L 162.55 187.46 C 161.79 187.71 161.38 188.53 161.63 189.28 C 161.88 190.04 162.70 190.44 163.45 190.19 Z M 164.39 189.88 L 165.34 189.56 C 166.10 189.32 166.51 188.50 166.26 187.75 C 166.01 186.99 165.20 186.59 164.44 186.83 L 163.49 187.15 C 162.73 187.40 162.32 188.21 162.57 188.97 C 162.82 189.72 163.64 190.13 164.39 189.88 Z M 165.34 189.56 L 166.31 189.25 C 167.06 189.00 167.47 188.19 167.23 187.44 C 166.98 186.68 166.17 186.27 165.42 186.52 L 164.45 186.84 C 163.69 187.08 163.28 187.89 163.53 188.65 C 163.78 189.40 164.59 189.81 165.34 189.56 Z M 166.30 189.24 L 167.26 188.93 C 168.02 188.69 168.43 187.88 168.19 187.13 C 167.94 186.38 167.13 185.97 166.38 186.21 L 165.42 186.52 C 164.67 186.76 164.26 187.57 164.50 188.32 C 164.74 189.08 165.55 189.49 166.30 189.24 Z M 167.26 188.93 L 168.20 188.63 C 168.96 188.39 169.37 187.59 169.13 186.83 C 168.89 186.08 168.08 185.67 167.33 185.91 L 166.39 186.21 C 165.63 186.45 165.22 187.26 165.46 188.01 C 165.70 188.76 166.51 189.18 167.26 188.93 Z M 168.20 188.63 L 169.15 188.33 C 169.91 188.09 170.32 187.29 170.08 186.53 C 169.84 185.78 169.04 185.37 168.29 185.60 L 167.34 185.91 C 166.58 186.15 166.17 186.95 166.41 187.70 C 166.64 188.45 167.45 188.87 168.20 188.63 Z M 169.15 188.33 L 170.11 188.03 C 170.86 187.79 171.28 186.99 171.04 186.23 C 170.80 185.48 170.00 185.06 169.25 185.30 L 168.29 185.60 C 167.54 185.84 167.12 186.64 167.36 187.40 C 167.60 188.15 168.40 188.57 169.15 188.33 Z M 170.11 188.03 L 171.07 187.72 C 171.82 187.49 172.24 186.69 172.00 185.93 C 171.76 185.18 170.96 184.76 170.21 185.00 L 169.25 185.30 C 168.50 185.54 168.08 186.34 168.32 187.09 C 168.55 187.84 169.36 188.26 170.11 188.03 Z M 171.07 187.72 L 171.39 187.62 C 172.14 187.38 172.56 186.58 172.32 185.83 C 172.09 185.08 171.29 184.66 170.53 184.90 L 170.21 185.00 C 169.46 185.24 169.04 186.04 169.28 186.79 C 169.52 187.54 170.32 187.96 171.07 187.72 Z"
      fill="black"
      fill-rule="nonzero" /></svg>