<svg xmlns="http://www.w3.org/2000/svg" width="300" height="300" viewBox="0 0 300 300">
<path d="M 147.96 119.09 L 147.90 118.05 C 147.84 117.16 147.07 116.49 146.19 116.55 C 145.30 116.61 144.63 117.37 144.68 118.26 L 144.75 119.29 C 144.81 120.18 145.57 120.85 146.46 120.79 C 147.35 120.74 148.02 119.97 147.96 119.09 Z M 147.91 118.24 L 147.96 117.25 C 148.01 116.36 147.33 115.60 146.43 115.55 C 145.54 115.50 144.78 116.18 144.73 117.07 L 144.67 118.07 C 144.62 118.96 145.31 119.72 146.20 119.77 C 147.09 119.82 147.86 119.14 147.91 118.24 Z M 147.89 117.67 L 148.19 116.76 C 148.47 115.91 148.00 114.99 147.15 114.71 C 146.29 114.43 145.37 114.90 145.09 115.75 L 144.80 116.66 C 144.52 117.51 144.98 118.43 145.84 118.71 C 146.69 118.99 147.61 118.52 147.89 117.67 Z M 147.94 117.24 L 148.46 116.55 C 149.01 115.84 148.87 114.81 148.15 114.27 C 147.44 113.72 146.41 113.86 145.87 114.58 L 145.34 115.27 C 144.80 115.98 144.94 117.01 145.65 117.55 C 146.37 118.10 147.39 117.96 147.94 117.24 Z M 148.19 116.83 L 148.94 116.22 C 149.64 115.65 149.74 114.63 149.17 113.93 C 148.61 113.23 147.58 113.13 146.88 113.70 L 146.14 114.30 C 145.44 114.87 145.34 115.90 145.90 116.59 C 146.47 117.29 147.50 117.40 148.19 116.83 Z M 148.74 116.35 L 149.66 115.81 C 150.43 115.35 150.68 114.35 150.23 113.58 C 149.77 112.81 148.77 112.56 148.00 113.02 L 147.08 113.56 C 146.31 114.02 146.06 115.02 146.52 115.79 C 146.97 116.56 147.97 116.81 148.74 116.35 Z M 149.54 115.87 L 150.50 115.40 C 151.31 115.01 151.64 114.04 151.25 113.23 C 150.86 112.43 149.89 112.10 149.09 112.49 L 148.12 112.96 C 147.32 113.35 146.98 114.32 147.38 115.12 C 147.77 115.92 148.73 116.26 149.54 115.87 Z M 150.43 115.42 L 151.33 115.03 C 152.15 114.68 152.52 113.74 152.17 112.92 C 151.82 112.11 150.88 111.73 150.06 112.08 L 149.16 112.47 C 148.35 112.82 147.97 113.76 148.32 114.58 C 148.67 115.39 149.61 115.77 150.43 115.42 Z M 151.28 115.04 L 152.22 114.67 C 153.04 114.35 153.44 113.43 153.12 112.61 C 152.80 111.79 151.88 111.38 151.06 111.70 L 150.12 112.07 C 149.30 112.39 148.90 113.32 149.22 114.13 C 149.54 114.95 150.46 115.36 151.28 115.04 Z M 152.17 114.67 L 153.13 114.32 C 153.95 114.03 154.37 113.12 154.08 112.30 C 153.78 111.48 152.87 111.06 152.05 111.36 L 151.10 111.70 C 150.28 112.00 149.86 112.91 150.15 113.73 C 150.45 114.54 151.36 114.97 152.17 114.67 Z M 153.10 114.32 L 154.05 113.99 C 154.87 113.71 155.30 112.83 155.03 112.01 C 154.75 111.19 153.86 110.76 153.04 111.04 L 152.09 111.36 C 151.27 111.64 150.83 112.53 151.11 113.35 C 151.39 114.16 152.28 114.60 153.10 114.32 Z M 154.03 113.98 L 155.01 113.66 C 155.83 113.40 156.27 112.52 156.00 111.71 C 155.74 110.90 154.87 110.46 154.05 110.72 L 153.07 111.04 C 152.26 111.31 151.81 112.18 152.08 112.99 C 152.34 113.81 153.21 114.25 154.03 113.98 Z M 154.99 113.65 L 155.96 113.35 C 156.76 113.10 157.21 112.24 156.96 111.44 C 156.71 110.63 155.85 110.18 155.05 110.43 L 154.08 110.73 C 153.27 110.98 152.82 111.84 153.08 112.65 C 153.33 113.45 154.18 113.90 154.99 113.65 Z M 155.93 113.34 L 156.88 113.06 C 157.68 112.82 158.13 111.98 157.90 111.18 C 157.66 110.38 156.82 109.92 156.02 110.16 L 155.07 110.44 C 154.27 110.68 153.82 111.52 154.05 112.32 C 154.29 113.12 155.13 113.58 155.93 113.34 Z M 156.86 113.04 L 157.79 112.78 C 158.58 112.55 159.04 111.73 158.81 110.94 C 158.59 110.14 157.76 109.68 156.97 109.91 L 156.04 110.17 C 155.25 110.40 154.79 111.22 155.02 112.02 C 155.24 112.81 156.07 113.27 156.86 113.04 Z M 157.77 112.77 L 158.72 112.51 C 159.51 112.30 159.97 111.48 159.76 110.70 C 159.54 109.91 158.73 109.45 157.95 109.66 L 156.99 109.92 C 156.21 110.13 155.74 110.94 155.96 111.73 C 156.17 112.52 156.98 112.98 157.77 112.77 Z M 158.70 112.50 L 159.66 112.26 C 160.44 112.06 160.91 111.26 160.71 110.47 C 160.51 109.69 159.71 109.22 158.92 109.42 L 157.97 109.67 C 157.18 109.87 156.71 110.67 156.91 111.45 C 157.12 112.23 157.91 112.71 158.70 112.50 Z M 159.63 112.25 L 160.60 112.02 C 161.38 111.83 161.86 111.05 161.67 110.26 C 161.48 109.48 160.70 109.00 159.91 109.19 L 158.95 109.42 C 158.17 109.61 157.69 110.40 157.88 111.18 C 158.06 111.96 158.85 112.44 159.63 112.25 Z M 160.57 112.02 L 161.56 111.79 C 162.34 111.62 162.83 110.85 162.66 110.07 C 162.48 109.29 161.71 108.80 160.93 108.97 L 159.94 109.20 C 159.16 109.37 158.67 110.14 158.85 110.92 C 159.02 111.70 159.79 112.19 160.57 112.02 Z M 161.54 111.79 L 162.50 111.59 C 163.28 111.43 163.77 110.67 163.61 109.89 C 163.45 109.11 162.69 108.61 161.91 108.78 L 160.95 108.97 C 160.18 109.14 159.68 109.90 159.84 110.68 C 160.00 111.45 160.76 111.95 161.54 111.79 Z M 162.48 111.59 L 163.45 111.40 C 164.23 111.25 164.74 110.49 164.58 109.72 C 164.43 108.94 163.68 108.43 162.90 108.59 L 161.93 108.78 C 161.15 108.93 160.64 109.68 160.80 110.46 C 160.95 111.24 161.70 111.74 162.48 111.59 Z M 163.44 111.40 L 164.43 111.21 C 165.21 111.07 165.72 110.32 165.57 109.54 C 165.43 108.76 164.68 108.25 163.90 108.40 L 162.91 108.59 C 162.13 108.73 161.62 109.48 161.77 110.26 C 161.91 111.04 162.66 111.55 163.44 111.40 Z M 164.42 111.21 L 165.43 111.03 C 166.20 110.89 166.72 110.14 166.57 109.36 C 166.43 108.59 165.69 108.07 164.91 108.22 L 163.91 108.40 C 163.13 108.54 162.62 109.29 162.76 110.06 C 162.90 110.84 163.65 111.35 164.42 111.21 Z M 165.42 111.03 L 165.93 110.93 C 166.70 110.79 167.22 110.05 167.07 109.28 C 166.93 108.50 166.19 107.99 165.42 108.13 L 164.91 108.22 C 164.14 108.36 163.62 109.10 163.76 109.88 C 163.91 110.65 164.65 111.17 165.42 111.03 Z"
      fill="black"
      fill-rule="nonzero" /><path d="M 153.60 102.47 L 153.31 103.46 C 153.06 104.28 153.53 105.15 154.35 105.39 C 155.17 105.64 156.04 105.17 156.28 104.35 L 156.57 103.36 C 156.82 102.54 156.35 101.67 155.53 101.43 C 154.71 101.18 153.84 101.65 153.60 102.47 Z M 153.28 103.47 L 153.00 104.45 C 152.76 105.29 153.25 106.16 154.09 106.40 C 154.92 106.64 155.79 106.15 156.03 105.31 L 156.31 104.33 C 156.55 103.50 156.06 102.63 155.22 102.39 C 154.39 102.15 153.52 102.64 153.28 103.47 Z M 152.97 104.49 L 152.72 105.45 C 152.51 106.31 153.02 107.18 153.88 107.39 C 154.73 107.61 155.60 107.09 155.82 106.24 L 156.06 105.28 C 156.28 104.42 155.76 103.55 154.91 103.34 C 154.05 103.12 153.19 103.64 152.97 104.49 Z M 152.69 105.52 L 152.49 106.45 C 152.31 107.33 152.87 108.19 153.74 108.37 C 154.62 108.55 155.48 107.99 155.66 107.12 L 155.86 106.18 C 156.04 105.30 155.48 104.44 154.60 104.26 C 153.73 104.08 152.87 104.64 152.69 105.52 Z M 152.47 106.55 L 152.32 107.55 C 152.19 108.44 152.81 109.27 153.70 109.40 C 154.58 109.53 155.41 108.91 155.54 108.02 L 155.69 107.02 C 155.81 106.13 155.20 105.30 154.31 105.17 C 153.42 105.05 152.60 105.66 152.47 106.55 Z M 152.32 107.65 L 152.23 108.63 C 152.15 109.52 152.81 110.31 153.71 110.39 C 154.60 110.46 155.38 109.80 155.46 108.91 L 155.54 107.93 C 155.62 107.04 154.96 106.25 154.07 106.17 C 153.18 106.10 152.39 106.76 152.32 107.65 Z M 152.24 108.70 L 152.19 109.69 C 152.15 110.58 152.84 111.33 153.73 111.37 C 154.62 111.41 155.37 110.72 155.41 109.83 L 155.45 108.84 C 155.49 107.95 154.80 107.20 153.91 107.16 C 153.03 107.12 152.27 107.81 152.24 108.70 Z M 152.20 109.73 L 152.18 110.71 C 152.16 111.60 152.86 112.33 153.75 112.35 C 154.63 112.37 155.36 111.66 155.38 110.78 L 155.40 109.79 C 155.42 108.91 154.72 108.18 153.83 108.16 C 152.95 108.14 152.22 108.85 152.20 109.73 Z M 152.19 110.73 L 152.18 111.69 C 152.17 112.57 152.88 113.29 153.75 113.30 C 154.63 113.31 155.35 112.60 155.36 111.73 L 155.37 110.76 C 155.38 109.88 154.68 109.17 153.80 109.16 C 152.92 109.15 152.20 109.85 152.19 110.73 Z M 152.19 111.70 L 152.19 112.70 C 152.18 113.57 152.89 114.28 153.76 114.28 C 154.63 114.28 155.34 113.58 155.34 112.71 L 155.35 111.72 C 155.35 110.84 154.65 110.14 153.78 110.13 C 152.91 110.13 152.20 110.83 152.19 111.70 Z M 152.20 112.70 L 152.20 113.73 C 152.20 114.59 152.90 115.30 153.76 115.30 C 154.63 115.30 155.33 114.60 155.33 113.73 L 155.33 112.71 C 155.33 111.84 154.63 111.14 153.77 111.14 C 152.90 111.14 152.20 111.84 152.20 112.70 Z M 152.21 113.73 L 152.21 114.75 C 152.21 115.61 152.91 116.31 153.76 116.31 C 154.62 116.31 155.32 115.61 155.32 114.75 L 155.32 113.73 C 155.32 112.88 154.62 112.18 153.76 112.18 C 152.91 112.18 152.21 112.88 152.21 113.73 Z M 152.23 114.75 L 152.23 115.74 C 152.23 116.58 152.92 117.27 153.76 117.27 C 154.61 117.27 155.30 116.58 155.30 115.74 L 155.30 114.75 C 155.30 113.90 154.61 113.22 153.76 113.22 C 152.92 113.22 152.23 113.90 152.23 114.75 Z M 152.24 115.74 L 152.24 116.74 C 152.24 117.58 152.92 118.26 153.76 118.26 C 154.61 118.26 155.29 117.58 155.29 116.74 L 155.29 115.74 C 155.29 114.89 154.61 114.21 153.76 114.21 C 152.92 114.21 152.24 114.89 152.24 115.74 Z M 152.26 116.74 L 152.26 117.75 C 152.26 118.58 152.93 119.26 153.76 119.26 C 154.60 119.26 155.27 118.58 155.27 117.75 L 155.27 116.74 C 155.27 115.90 154.60 115.23 153.76 115.23 C 152.93 115.23 152.26 115.90 152.26 116.74 Z M 152.27 117.75 L 152.27 118.77 C 152.27 119.59 152.94 120.26 153.76 120.26 C 154.59 120.26 155.26 119.59 155.26 118.77 L 155.26 117.75 C 155.26 116.92 154.59 116.25 153.76 116.25 C 152.94 116.25 152.27 116.92 152.27 117.75 Z M 152.28 118.77 L 152.28 119.79 C 152.28 120.61 152.95 121.27 153.77 121.27 C 154.58 121.27 155.25 120.61 155.25 119.79 L 155.25 118.77 C 155.25 117.95 154.58 117.28 153.76 117.28 C 152.94 117.29 152.28 117.95 152.28 118.77 Z M 152.29 119.80 L 152.30 120.81 C 152.30 121.63 152.97 122.28 153.78 122.28 C 154.59 122.27 155.25 121.61 155.24 120.80 L 155.24 119.78 C 155.23 118.97 154.57 118.32 153.76 118.32 C 152.95 118.32 152.29 118.99 152.29 119.80 Z M 152.31 120.83 L 152.33 121.83 C 152.34 122.63 153.00 123.28 153.81 123.27 C 154.61 123.26 155.26 122.59 155.25 121.79 L 155.23 120.79 C 155.22 119.98 154.56 119.33 153.75 119.35 C 152.94 119.36 152.30 120.02 152.31 120.83 Z M 152.34 121.85 L 152.37 122.83 C 152.39 123.63 153.06 124.26 153.86 124.23 C 154.66 124.21 155.29 123.54 155.26 122.74 L 155.23 121.76 C 155.21 120.96 154.54 120.34 153.74 120.36 C 152.94 120.38 152.31 121.05 152.34 121.85 Z M 152.38 122.86 L 152.43 123.86 C 152.47 124.66 153.14 125.27 153.94 125.23 C 154.73 125.19 155.34 124.51 155.30 123.72 L 155.25 122.71 C 155.21 121.92 154.54 121.31 153.74 121.35 C 152.95 121.39 152.34 122.06 152.38 122.86 Z M 152.43 123.89 L 152.51 124.91 C 152.56 125.70 153.25 126.29 154.04 126.23 C 154.83 126.18 155.43 125.49 155.37 124.70 L 155.30 123.69 C 155.24 122.90 154.55 122.30 153.76 122.36 C 152.97 122.42 152.38 123.10 152.43 123.89 Z M 152.51 124.93 L 152.60 125.92 C 152.67 126.71 153.37 127.29 154.15 127.22 C 154.94 127.15 155.52 126.45 155.45 125.66 L 155.36 124.67 C 155.29 123.89 154.60 123.31 153.81 123.38 C 153.02 123.45 152.44 124.14 152.51 124.93 Z M 152.61 125.93 L 152.70 126.91 C 152.78 127.69 153.48 128.26 154.27 128.18 C 155.05 128.11 155.62 127.41 155.55 126.62 L 155.45 125.65 C 155.37 124.86 154.67 124.29 153.88 124.37 C 153.10 124.45 152.53 125.15 152.61 125.93 Z M 152.71 126.91 L 152.74 127.27 C 152.82 128.06 153.52 128.63 154.31 128.54 C 155.09 128.46 155.66 127.76 155.58 126.98 L 155.54 126.62 C 155.46 125.83 154.76 125.26 153.98 125.35 C 153.19 125.43 152.62 126.13 152.71 126.91 Z"
      fill="black"
      fill-rule="nonzero" /><path d="M 119.30 143.33 L 118.33 143.12 C 117.49 142.94 116.66 143.48 116.48 144.32 C 116.30 145.17 116.84 146.00 117.69 146.17 L 118.65 146.38 C 119.49 146.56 120.32 146.02 120.50 145.18 C 120.68 144.33 120.14 143.51 119.30 143.33 Z M 118.37 143.13 L 117.41 142.90 C 116.57 142.70 115.72 143.21 115.52 144.06 C 115.32 144.90 115.84 145.74 116.68 145.94 L 117.65 146.17 C 118.49 146.37 119.33 145.85 119.53 145.01 C 119.73 144.17 119.21 143.33 118.37 143.13 Z M 117.48 142.91 L 116.51 142.63 C 115.68 142.39 114.80 142.87 114.56 143.70 C 114.32 144.53 114.80 145.40 115.63 145.64 L 116.61 145.93 C 117.44 146.17 118.31 145.69 118.55 144.85 C 118.79 144.02 118.31 143.15 117.48 142.91 Z M 116.63 142.65 L 115.50 142.22 C 114.68 141.92 113.76 142.33 113.45 143.16 C 113.14 143.98 113.56 144.90 114.38 145.21 L 115.51 145.63 C 116.34 145.94 117.25 145.52 117.56 144.69 C 117.87 143.87 117.45 142.95 116.63 142.65 Z M 115.74 142.29 L 114.81 141.76 C 114.02 141.32 113.02 141.60 112.58 142.38 C 112.13 143.17 112.41 144.17 113.20 144.61 L 114.14 145.14 C 114.93 145.59 115.93 145.31 116.37 144.52 C 116.81 143.73 116.53 142.73 115.74 142.29 Z M 115.51 142.41 L 115.23 141.88 C 114.80 141.05 113.79 140.72 112.96 141.15 C 112.13 141.58 111.80 142.60 112.23 143.43 L 112.50 143.96 C 112.93 144.79 113.95 145.12 114.78 144.69 C 115.61 144.26 115.93 143.24 115.51 142.41 Z M 114.88 143.93 L 115.32 143.54 C 116.03 142.90 116.08 141.81 115.45 141.11 C 114.81 140.40 113.72 140.34 113.01 140.98 L 112.58 141.37 C 111.87 142.01 111.81 143.10 112.45 143.81 C 113.09 144.51 114.18 144.57 114.88 143.93 Z M 114.82 143.86 L 115.73 143.49 C 116.62 143.13 117.05 142.12 116.69 141.24 C 116.33 140.35 115.32 139.92 114.43 140.28 L 113.52 140.65 C 112.63 141.01 112.20 142.02 112.56 142.91 C 112.92 143.80 113.93 144.22 114.82 143.86 Z M 115.57 143.56 L 116.79 143.21 C 117.71 142.93 118.24 141.97 117.97 141.04 C 117.70 140.12 116.73 139.59 115.81 139.86 L 114.59 140.21 C 113.67 140.48 113.14 141.45 113.41 142.38 C 113.68 143.30 114.65 143.83 115.57 143.56 Z M 116.74 143.23 L 117.84 142.94 C 118.78 142.70 119.34 141.74 119.09 140.80 C 118.85 139.87 117.89 139.31 116.96 139.55 L 115.86 139.84 C 114.92 140.08 114.36 141.04 114.60 141.97 C 114.85 142.91 115.80 143.47 116.74 143.23 Z M 117.82 142.95 L 118.82 142.70 C 119.76 142.46 120.33 141.51 120.10 140.57 C 119.86 139.63 118.91 139.06 117.97 139.29 L 116.97 139.54 C 116.03 139.78 115.46 140.73 115.70 141.67 C 115.93 142.61 116.88 143.18 117.82 142.95 Z M 118.81 142.70 L 119.80 142.46 C 120.75 142.24 121.33 141.29 121.10 140.35 C 120.87 139.40 119.92 138.82 118.98 139.05 L 117.98 139.29 C 117.04 139.52 116.46 140.47 116.69 141.41 C 116.92 142.35 117.86 142.93 118.81 142.70 Z M 119.79 142.47 L 120.76 142.24 C 121.71 142.02 122.30 141.07 122.08 140.13 C 121.86 139.19 120.91 138.60 119.97 138.82 L 118.99 139.05 C 118.05 139.27 117.46 140.21 117.68 141.16 C 117.90 142.10 118.85 142.69 119.79 142.47 Z M 120.75 142.24 L 121.67 142.03 C 122.62 141.82 123.21 140.88 123.00 139.93 C 122.79 138.99 121.85 138.39 120.90 138.61 L 119.98 138.82 C 119.03 139.03 118.44 139.97 118.65 140.92 C 118.87 141.86 119.81 142.46 120.75 142.24 Z M 121.66 142.04 L 122.72 141.81 C 123.67 141.60 124.27 140.66 124.06 139.71 C 123.85 138.77 122.92 138.17 121.97 138.37 L 120.91 138.60 C 119.96 138.81 119.36 139.75 119.57 140.70 C 119.78 141.64 120.71 142.24 121.66 142.04 Z M 122.71 141.81 L 123.69 141.60 C 124.64 141.39 125.25 140.46 125.04 139.51 C 124.84 138.56 123.91 137.96 122.96 138.16 L 121.98 138.37 C 121.03 138.58 120.42 139.51 120.63 140.46 C 120.83 141.41 121.76 142.01 122.71 141.81 Z M 123.70 141.60 L 124.63 141.39 C 125.58 141.19 126.18 140.25 125.97 139.31 C 125.77 138.36 124.83 137.76 123.88 137.96 L 122.95 138.16 C 122.00 138.37 121.40 139.30 121.61 140.25 C 121.81 141.20 122.75 141.80 123.70 141.60 Z M 124.65 141.39 L 125.57 141.18 C 126.51 140.97 127.10 140.03 126.89 139.08 C 126.68 138.13 125.73 137.54 124.79 137.76 L 123.87 137.96 C 122.92 138.18 122.33 139.12 122.54 140.07 C 122.76 141.01 123.70 141.61 124.65 141.39 Z M 125.59 141.18 L 126.52 140.95 C 127.46 140.73 128.05 139.78 127.82 138.84 C 127.59 137.89 126.65 137.31 125.70 137.54 L 124.77 137.76 C 123.82 137.99 123.24 138.94 123.47 139.88 C 123.70 140.82 124.64 141.40 125.59 141.18 Z M 126.53 140.95 L 127.49 140.71 C 128.44 140.48 129.01 139.53 128.78 138.59 C 128.55 137.65 127.60 137.07 126.66 137.30 L 125.69 137.54 C 124.75 137.77 124.18 138.72 124.41 139.66 C 124.64 140.61 125.59 141.18 126.53 140.95 Z M 127.49 140.71 L 128.49 140.47 C 129.43 140.24 130.01 139.29 129.78 138.35 C 129.55 137.40 128.60 136.83 127.66 137.06 L 126.66 137.30 C 125.72 137.53 125.14 138.48 125.37 139.43 C 125.60 140.37 126.55 140.94 127.49 140.71 Z M 128.48 140.47 L 129.47 140.24 C 130.41 140.01 130.99 139.07 130.77 138.12 C 130.54 137.18 129.60 136.60 128.66 136.82 L 127.67 137.06 C 126.72 137.28 126.14 138.23 126.37 139.17 C 126.59 140.11 127.54 140.69 128.48 140.47 Z M 129.46 140.24 L 130.42 140.02 C 131.36 139.80 131.95 138.86 131.73 137.91 C 131.51 136.97 130.57 136.38 129.63 136.60 L 128.67 136.82 C 127.72 137.04 127.13 137.98 127.35 138.92 C 127.57 139.87 128.51 140.46 129.46 140.24 Z M 130.41 140.02 L 131.40 139.79 C 132.34 139.57 132.93 138.63 132.71 137.69 C 132.50 136.75 131.56 136.16 130.61 136.37 L 129.63 136.60 C 128.69 136.81 128.10 137.75 128.31 138.70 C 128.53 139.64 129.47 140.23 130.41 140.02 Z M 131.40 139.79 L 132.39 139.56 C 133.33 139.34 133.92 138.40 133.70 137.46 C 133.48 136.51 132.54 135.93 131.60 136.15 L 130.61 136.38 C 129.67 136.59 129.08 137.54 129.30 138.48 C 129.52 139.42 130.46 140.01 131.40 139.79 Z M 132.40 139.56 L 133.39 139.32 C 134.33 139.09 134.90 138.15 134.68 137.21 C 134.45 136.27 133.51 135.69 132.57 135.91 L 131.58 136.15 C 130.64 136.38 130.06 137.32 130.29 138.26 C 130.52 139.20 131.46 139.78 132.40 139.56 Z M 133.40 139.31 L 134.38 139.07 C 135.32 138.83 135.89 137.88 135.65 136.95 C 135.42 136.01 134.47 135.44 133.53 135.67 L 132.55 135.92 C 131.62 136.15 131.05 137.10 131.28 138.04 C 131.51 138.98 132.46 139.55 133.40 139.31 Z M 134.39 139.06 L 135.36 138.81 C 136.30 138.57 136.86 137.62 136.62 136.68 C 136.37 135.75 135.42 135.19 134.49 135.43 L 133.52 135.68 C 132.58 135.92 132.02 136.87 132.26 137.81 C 132.50 138.74 133.46 139.31 134.39 139.06 Z M 135.37 138.81 L 136.33 138.56 C 137.26 138.31 137.82 137.36 137.57 136.42 C 137.33 135.49 136.37 134.93 135.44 135.18 L 134.48 135.43 C 133.55 135.68 132.99 136.63 133.23 137.57 C 133.48 138.50 134.44 139.06 135.37 138.81 Z M 136.33 138.55 L 137.29 138.30 C 138.22 138.05 138.78 137.09 138.53 136.16 C 138.28 135.23 137.33 134.68 136.39 134.93 L 135.44 135.18 C 134.50 135.43 133.95 136.39 134.20 137.32 C 134.45 138.25 135.40 138.80 136.33 138.55 Z M 137.29 138.30 L 138.25 138.04 C 139.18 137.79 139.74 136.84 139.49 135.91 C 139.24 134.98 138.28 134.42 137.35 134.67 L 136.39 134.93 C 135.46 135.18 134.91 136.13 135.16 137.06 C 135.41 137.99 136.36 138.55 137.29 138.30 Z M 138.25 138.04 L 139.22 137.78 C 140.15 137.53 140.70 136.57 140.45 135.65 C 140.20 134.72 139.24 134.17 138.31 134.42 L 137.35 134.68 C 136.42 134.93 135.87 135.88 136.12 136.81 C 136.37 137.74 137.33 138.29 138.25 138.04 Z M 139.22 137.77 L 140.19 137.51 C 141.11 137.26 141.66 136.31 141.41 135.38 C 141.16 134.45 140.20 133.91 139.28 134.16 L 138.31 134.42 C 137.38 134.67 136.84 135.63 137.09 136.55 C 137.34 137.48 138.30 138.03 139.22 137.77 Z M 140.19 137.51 L 141.17 137.24 C 142.09 136.98 142.63 136.03 142.38 135.11 C 142.12 134.18 141.17 133.64 140.24 133.89 L 139.27 134.16 C 138.35 134.42 137.81 135.37 138.06 136.30 C 138.32 137.22 139.27 137.76 140.19 137.51 Z M 141.17 137.23 L 142.12 136.97 C 143.04 136.71 143.58 135.75 143.32 134.83 C 143.06 133.91 142.11 133.37 141.19 133.63 L 140.24 133.90 C 139.32 134.16 138.78 135.11 139.04 136.04 C 139.30 136.96 140.25 137.49 141.17 137.23 Z M 142.13 136.96 L 143.08 136.69 C 144.00 136.43 144.53 135.47 144.27 134.55 C 144.01 133.64 143.06 133.10 142.14 133.37 L 141.18 133.64 C 140.26 133.90 139.73 134.86 139.99 135.77 C 140.25 136.69 141.21 137.22 142.13 136.96 Z M 143.09 136.68 L 144.05 136.41 C 144.97 136.15 145.50 135.19 145.23 134.27 C 144.97 133.36 144.02 132.83 143.10 133.09 L 142.14 133.37 C 141.22 133.63 140.69 134.59 140.95 135.50 C 141.22 136.42 142.17 136.95 143.09 136.68 Z M 144.05 136.40 L 145.02 136.13 C 145.94 135.86 146.46 134.91 146.20 134.00 C 145.94 133.08 144.99 132.56 144.07 132.82 L 143.10 133.10 C 142.19 133.36 141.66 134.31 141.92 135.22 C 142.18 136.14 143.14 136.67 144.05 136.40 Z M 145.02 136.12 L 145.98 135.85 C 146.89 135.59 147.42 134.64 147.16 133.73 C 146.90 132.82 145.95 132.29 145.04 132.55 L 144.08 132.82 C 143.17 133.08 142.64 134.03 142.90 134.94 C 143.16 135.85 144.11 136.38 145.02 136.12 Z M 145.97 135.84 L 146.93 135.57 C 147.84 135.31 148.37 134.37 148.11 133.46 C 147.85 132.55 146.91 132.02 146.00 132.28 L 145.04 132.55 C 144.13 132.81 143.61 133.76 143.86 134.66 C 144.12 135.57 145.07 136.10 145.97 135.84 Z M 146.93 135.56 L 147.89 135.29 C 148.80 135.04 149.33 134.10 149.07 133.19 C 148.81 132.29 147.87 131.76 146.97 132.01 L 146.00 132.29 C 145.10 132.54 144.57 133.48 144.83 134.39 C 145.08 135.29 146.02 135.82 146.93 135.56 Z M 147.89 135.29 L 148.86 135.01 C 149.76 134.76 150.28 133.82 150.03 132.92 C 149.78 132.02 148.84 131.50 147.94 131.75 L 146.97 132.02 C 146.07 132.27 145.54 133.21 145.80 134.11 C 146.05 135.01 146.99 135.54 147.89 135.29 Z M 148.85 135.01 L 149.81 134.74 C 150.71 134.49 151.23 133.55 150.98 132.66 C 150.73 131.76 149.79 131.23 148.90 131.49 L 147.94 131.76 C 147.04 132.01 146.52 132.94 146.77 133.84 C 147.02 134.74 147.96 135.26 148.85 135.01 Z M 149.81 134.73 L 150.75 134.47 C 151.64 134.21 152.16 133.29 151.91 132.39 C 151.66 131.50 150.73 130.98 149.84 131.23 L 148.90 131.49 C 148.00 131.75 147.48 132.67 147.73 133.57 C 147.99 134.46 148.92 134.98 149.81 134.73 Z M 150.75 134.46 L 151.70 134.19 C 152.59 133.94 153.11 133.01 152.86 132.12 C 152.60 131.23 151.68 130.72 150.79 130.97 L 149.84 131.24 C 148.95 131.49 148.43 132.41 148.68 133.30 C 148.93 134.19 149.86 134.71 150.75 134.46 Z M 151.70 134.18 L 152.67 133.91 C 153.55 133.65 154.07 132.73 153.81 131.85 C 153.56 130.96 152.64 130.45 151.76 130.70 L 150.79 130.98 C 149.90 131.23 149.39 132.15 149.64 133.04 C 149.89 133.92 150.82 134.43 151.70 134.18 Z M 152.67 133.90 L 153.66 133.61 C 154.54 133.36 155.05 132.44 154.80 131.56 C 154.54 130.68 153.63 130.17 152.74 130.42 L 151.75 130.71 C 150.87 130.96 150.36 131.88 150.62 132.76 C 150.87 133.64 151.79 134.15 152.67 133.90 Z M 153.66 133.60 L 154.62 133.32 C 155.50 133.07 156.00 132.15 155.75 131.28 C 155.49 130.40 154.58 129.90 153.70 130.15 L 152.74 130.43 C 151.87 130.69 151.36 131.60 151.62 132.48 C 151.87 133.36 152.79 133.86 153.66 133.60 Z M 154.63 133.32 L 155.59 133.03 C 156.46 132.78 156.96 131.86 156.71 130.99 C 156.45 130.12 155.54 129.62 154.67 129.88 L 153.70 130.16 C 152.83 130.42 152.33 131.33 152.59 132.20 C 152.84 133.07 153.75 133.57 154.63 133.32 Z M 155.59 133.02 L 156.56 132.74 C 157.43 132.48 157.93 131.57 157.67 130.71 C 157.42 129.84 156.51 129.34 155.64 129.60 L 154.67 129.89 C 153.80 130.14 153.31 131.05 153.56 131.92 C 153.82 132.78 154.73 133.28 155.59 133.02 Z M 156.56 132.73 L 157.53 132.45 C 158.39 132.19 158.88 131.29 158.63 130.42 C 158.37 129.56 157.47 129.07 156.60 129.32 L 155.64 129.61 C 154.78 129.86 154.29 130.77 154.54 131.63 C 154.80 132.49 155.70 132.98 156.56 132.73 Z M 157.52 132.44 L 158.47 132.16 C 159.32 131.91 159.82 131.01 159.56 130.15 C 159.31 129.29 158.41 128.80 157.55 129.05 L 156.61 129.33 C 155.75 129.58 155.26 130.48 155.51 131.34 C 155.76 132.20 156.66 132.69 157.52 132.44 Z M 158.46 132.15 L 159.47 131.86 C 160.33 131.61 160.82 130.71 160.57 129.86 C 160.32 129.00 159.42 128.51 158.57 128.76 L 157.55 129.06 C 156.70 129.31 156.21 130.21 156.46 131.06 C 156.71 131.91 157.61 132.40 158.46 132.15 Z M 159.47 131.85 L 160.44 131.57 C 161.29 131.32 161.78 130.43 161.53 129.58 C 161.29 128.73 160.40 128.24 159.55 128.49 L 158.57 128.77 C 157.72 129.02 157.23 129.91 157.48 130.76 C 157.73 131.61 158.62 132.10 159.47 131.85 Z M 160.44 131.56 L 161.38 131.28 C 162.23 131.04 162.72 130.16 162.47 129.31 C 162.23 128.46 161.35 127.98 160.50 128.22 L 159.55 128.49 C 158.71 128.74 158.22 129.62 158.46 130.47 C 158.71 131.31 159.59 131.80 160.44 131.56 Z M 161.38 131.28 L 162.30 131.01 C 163.14 130.77 163.63 129.89 163.39 129.05 C 163.15 128.21 162.27 127.72 161.43 127.96 L 160.51 128.23 C 159.66 128.47 159.18 129.35 159.42 130.19 C 159.66 131.03 160.54 131.52 161.38 131.28 Z M 162.30 131.00 L 163.26 130.73 C 164.09 130.50 164.58 129.63 164.34 128.79 C 164.11 127.95 163.24 127.46 162.40 127.70 L 161.44 127.97 C 160.60 128.21 160.11 129.08 160.35 129.92 C 160.59 130.75 161.46 131.24 162.30 131.00 Z M 163.25 130.73 L 164.22 130.45 C 165.06 130.22 165.54 129.35 165.31 128.52 C 165.07 127.69 164.21 127.20 163.38 127.44 L 162.40 127.71 C 161.57 127.94 161.08 128.81 161.32 129.64 C 161.55 130.47 162.42 130.96 163.25 130.73 Z M 164.22 130.44 L 165.18 130.18 C 166.01 129.94 166.49 129.09 166.26 128.26 C 166.03 127.43 165.17 126.95 164.34 127.18 L 163.38 127.44 C 162.55 127.68 162.07 128.53 162.30 129.36 C 162.53 130.19 163.39 130.67 164.22 130.44 Z M 165.18 130.17 L 166.12 129.90 C 166.95 129.67 167.43 128.82 167.20 128.00 C 166.97 127.17 166.12 126.69 165.29 126.92 L 164.34 127.19 C 163.52 127.42 163.04 128.27 163.27 129.09 C 163.50 129.92 164.35 130.40 165.18 130.17 Z M 166.12 129.89 L 167.10 129.62 C 167.91 129.39 168.39 128.54 168.16 127.72 C 167.93 126.90 167.08 126.43 166.27 126.66 L 165.29 126.93 C 164.48 127.16 164.00 128.01 164.23 128.83 C 164.46 129.64 165.31 130.12 166.12 129.89 Z M 167.09 129.61 L 168.07 129.33 C 168.89 129.10 169.36 128.26 169.13 127.45 C 168.90 126.64 168.06 126.16 167.25 126.39 L 166.27 126.67 C 165.46 126.90 164.98 127.74 165.21 128.55 C 165.44 129.36 166.28 129.84 167.09 129.61 Z M 168.07 129.33 L 169.03 129.06 C 169.84 128.83 170.31 128.00 170.08 127.19 C 169.86 126.38 169.02 125.91 168.21 126.13 L 167.25 126.40 C 166.45 126.62 165.97 127.46 166.20 128.27 C 166.42 129.08 167.26 129.55 168.07 129.33 Z M 169.02 129.05 L 169.96 128.80 C 170.76 128.58 171.24 127.75 171.02 126.95 C 170.80 126.14 169.97 125.67 169.17 125.88 L 168.23 126.14 C 167.42 126.36 166.95 127.19 167.17 127.99 C 167.38 128.79 168.21 129.27 169.02 129.05 Z M 169.94 128.79 L 170.94 128.53 C 171.74 128.32 172.22 127.50 172.01 126.70 C 171.80 125.90 170.98 125.42 170.18 125.63 L 169.18 125.89 C 168.38 126.10 167.90 126.92 168.11 127.72 C 168.32 128.52 169.14 129.00 169.94 128.79 Z M 170.92 128.53 L 171.91 128.28 C 172.70 128.08 173.19 127.27 172.99 126.47 C 172.79 125.67 171.98 125.19 171.18 125.39 L 170.20 125.64 C 169.40 125.84 168.92 126.65 169.12 127.44 C 169.32 128.24 170.13 128.73 170.92 128.53 Z M 171.90 128.27 L 172.85 128.03 C 173.64 127.83 174.12 127.03 173.93 126.24 C 173.73 125.45 172.92 124.96 172.13 125.16 L 171.18 125.40 C 170.39 125.60 169.91 126.40 170.11 127.19 C 170.30 127.99 171.11 128.47 171.90 128.27 Z M 172.85 128.02 L 173.75 127.79 C 174.54 127.59 175.02 126.79 174.82 126.00 C 174.61 125.22 173.81 124.74 173.03 124.94 L 172.13 125.17 C 171.34 125.37 170.86 126.17 171.06 126.96 C 171.27 127.75 172.07 128.22 172.85 128.02 Z M 173.76 127.78 L 174.64 127.56 C 175.42 127.35 175.89 126.56 175.69 125.77 C 175.49 124.99 174.69 124.52 173.90 124.72 L 173.02 124.95 C 172.24 125.15 171.77 125.95 171.97 126.73 C 172.18 127.52 172.97 127.99 173.76 127.78 Z M 174.63 127.55 L 175.58 127.31 C 176.36 127.11 176.83 126.32 176.63 125.54 C 176.44 124.76 175.65 124.29 174.87 124.49 L 173.91 124.73 C 173.13 124.93 172.66 125.72 172.86 126.50 C 173.06 127.28 173.85 127.75 174.63 127.55 Z M 175.56 127.31 L 176.65 127.05 C 177.43 126.86 177.91 126.08 177.73 125.30 C 177.54 124.52 176.76 124.04 175.98 124.23 L 174.88 124.49 C 174.11 124.68 173.63 125.46 173.81 126.24 C 174.00 127.02 174.78 127.49 175.56 127.31 Z M 176.64 127.04 L 177.52 126.84 C 178.30 126.67 178.79 125.89 178.61 125.11 C 178.43 124.34 177.66 123.85 176.88 124.03 L 176.00 124.23 C 175.22 124.40 174.73 125.18 174.91 125.96 C 175.08 126.73 175.86 127.22 176.64 127.04 Z M 177.51 126.84 L 178.43 126.64 C 179.21 126.47 179.70 125.70 179.53 124.92 C 179.36 124.15 178.59 123.65 177.81 123.82 L 176.89 124.03 C 176.11 124.20 175.62 124.97 175.79 125.74 C 175.96 126.52 176.73 127.01 177.51 126.84 Z M 178.42 126.64 L 179.41 126.43 C 180.19 126.26 180.68 125.50 180.51 124.72 C 180.35 123.94 179.58 123.45 178.80 123.61 L 177.82 123.83 C 177.04 123.99 176.55 124.76 176.72 125.53 C 176.88 126.31 177.65 126.81 178.42 126.64 Z M 179.40 126.43 L 180.43 126.21 C 181.21 126.04 181.70 125.28 181.54 124.51 C 181.38 123.73 180.61 123.23 179.84 123.40 L 178.81 123.62 C 178.03 123.78 177.54 124.54 177.70 125.32 C 177.87 126.09 178.63 126.59 179.40 126.43 Z M 180.43 126.21 L 181.48 125.99 C 182.26 125.82 182.76 125.06 182.59 124.29 C 182.43 123.51 181.67 123.02 180.90 123.18 L 179.84 123.40 C 179.07 123.56 178.57 124.32 178.73 125.10 C 178.89 125.87 179.65 126.37 180.43 126.21 Z M 181.48 125.98 L 181.97 125.88 C 182.75 125.72 183.24 124.96 183.08 124.19 C 182.92 123.41 182.16 122.92 181.38 123.08 L 180.90 123.18 C 180.12 123.34 179.63 124.10 179.79 124.88 C 179.95 125.65 180.71 126.15 181.48 125.98 Z"
      fill="black"
      fill-rule="nonzero" /><path d="M 153.17 135.06 L 153.17 136.06 C 153.17 136.90 153.85 137.58 154.69 137.58 C 155.53 137.58 156.21 136.90 156.21 136.06 L 156.21 135.06 C 156.21 134.22 155.53 133.54 154.69 133.54 C 153.85 133.54 153.17 134.22 153.17 135.06 Z M 153.14 136.06 L 153.14 137.06 C 153.14 137.91 153.84 138.60 154.69 138.60 C 155.54 138.60 156.24 137.91 156.24 137.06 L 156.24 136.06 C 156.24 135.20 155.54 134.51 154.69 134.51 C 153.84 134.51 153.14 135.20 153.14 136.06 Z M 153.12 137.06 L 153.12 138.06 C 153.12 138.93 153.82 139.63 154.69 139.63 C 155.56 139.63 156.26 138.93 156.26 138.06 L 156.26 137.06 C 156.26 136.19 155.56 135.48 154.69 135.48 C 153.82 135.48 153.12 136.19 153.12 137.06 Z M 153.10 138.06 L 153.10 138.99 C 153.10 139.87 153.81 140.58 154.69 140.58 C 155.57 140.58 156.28 139.87 156.28 138.99 L 156.28 138.06 C 156.28 137.18 155.57 136.47 154.69 136.47 C 153.81 136.47 153.10 137.18 153.10 138.06 Z M 153.09 138.99 L 153.09 139.93 C 153.09 140.81 153.81 141.53 154.69 141.53 C 155.57 141.53 156.29 140.81 156.29 139.93 L 156.29 138.99 C 156.29 138.10 155.57 137.39 154.69 137.39 C 153.81 137.39 153.09 138.10 153.09 138.99 Z M 153.09 139.93 L 153.09 140.96 C 153.09 141.84 153.80 142.56 154.69 142.56 C 155.58 142.56 156.30 141.84 156.30 140.96 L 156.30 139.93 C 156.30 139.04 155.58 138.33 154.69 138.33 C 153.80 138.33 153.09 139.04 153.09 139.93 Z M 153.08 140.96 L 153.08 142.05 C 153.08 142.94 153.80 143.66 154.69 143.66 C 155.58 143.66 156.30 142.94 156.30 142.05 L 156.30 140.96 C 156.30 140.07 155.58 139.35 154.69 139.35 C 153.80 139.35 153.08 140.07 153.08 140.96 Z M 153.08 142.05 L 153.08 143.03 C 153.08 143.92 153.80 144.65 154.69 144.65 C 155.58 144.65 156.31 143.92 156.31 143.03 L 156.31 142.05 C 156.31 141.16 155.58 140.44 154.69 140.44 C 153.80 140.44 153.08 141.16 153.08 142.05 Z M 153.07 143.03 L 153.07 144.06 C 153.07 144.95 153.80 145.68 154.69 145.68 C 155.58 145.68 156.31 144.95 156.31 144.06 L 156.31 143.03 C 156.31 142.14 155.58 141.42 154.69 141.42 C 153.80 141.42 153.07 142.14 153.07 143.03 Z M 153.07 144.06 L 153.07 145.09 C 153.07 145.98 153.80 146.71 154.69 146.71 C 155.58 146.71 156.31 145.98 156.31 145.09 L 156.31 144.06 C 156.31 143.17 155.58 142.44 154.69 142.44 C 153.80 142.44 153.07 143.17 153.07 144.06 Z M 153.07 145.09 L 153.07 146.09 C 153.07 146.98 153.80 147.71 154.69 147.71 C 155.59 147.71 156.31 146.98 156.31 146.09 L 156.31 145.09 C 156.31 144.20 155.59 143.47 154.69 143.47 C 153.80 143.47 153.07 144.20 153.07 145.09 Z M 153.07 146.09 L 153.07 147.14 C 153.07 148.03 153.79 148.76 154.69 148.76 C 155.59 148.76 156.31 148.03 156.31 147.14 L 156.31 146.09 C 156.31 145.19 155.59 144.46 154.69 144.46 C 153.79 144.46 153.07 145.19 153.07 146.09 Z M 153.07 147.14 L 153.07 148.18 C 153.07 149.07 153.79 149.80 154.69 149.80 C 155.59 149.80 156.31 149.07 156.31 148.18 L 156.31 147.14 C 156.31 146.24 155.59 145.51 154.69 145.51 C 153.79 145.51 153.07 146.24 153.07 147.14 Z M 153.06 148.18 L 153.06 149.14 C 153.06 150.04 153.79 150.77 154.69 150.77 C 155.59 150.77 156.32 150.04 156.32 149.14 L 156.32 148.18 C 156.32 147.28 155.59 146.55 154.69 146.55 C 153.79 146.55 153.06 147.28 153.06 148.18 Z M 153.06 149.14 L 153.06 150.07 C 153.06 150.97 153.79 151.70 154.69 151.70 C 155.59 151.70 156.32 150.97 156.32 150.07 L 156.32 149.14 C 156.32 148.24 155.59 147.51 154.69 147.51 C 153.79 147.51 153.06 148.24 153.06 149.14 Z M 153.06 150.07 L 153.06 151.04 C 153.06 151.94 153.79 152.67 154.69 152.67 C 155.59 152.67 156.32 151.94 156.32 151.04 L 156.32 150.07 C 156.32 149.17 155.59 148.44 154.69 148.44 C 153.79 148.44 153.06 149.17 153.06 150.07 Z M 153.06 151.04 L 153.06 152.03 C 153.06 152.93 153.78 153.67 154.68 153.67 C 155.58 153.67 156.31 152.94 156.32 152.04 L 156.32 151.05 C 156.32 150.15 155.60 149.42 154.70 149.41 C 153.80 149.41 153.06 150.14 153.06 151.04 Z M 153.06 152.03 L 153.05 153.04 C 153.04 153.94 153.77 154.67 154.67 154.68 C 155.57 154.69 156.30 153.96 156.31 153.06 L 156.32 152.05 C 156.32 151.15 155.60 150.42 154.70 150.41 C 153.80 150.40 153.07 151.13 153.06 152.03 Z M 153.05 153.02 L 153.03 154.03 C 153.02 154.93 153.74 155.67 154.64 155.69 C 155.54 155.70 156.28 154.98 156.29 154.08 L 156.31 153.08 C 156.32 152.18 155.61 151.43 154.71 151.42 C 153.81 151.41 153.06 152.12 153.05 153.02 Z M 153.03 154.01 L 153.01 155.00 C 152.98 155.90 153.69 156.65 154.59 156.67 C 155.49 156.70 156.24 155.99 156.26 155.09 L 156.29 154.10 C 156.31 153.20 155.61 152.46 154.71 152.43 C 153.81 152.41 153.06 153.11 153.03 154.01 Z M 153.01 154.97 L 152.97 155.97 C 152.93 156.87 153.62 157.63 154.52 157.67 C 155.42 157.71 156.17 157.01 156.21 156.12 L 156.26 155.12 C 156.30 154.22 155.60 153.46 154.71 153.42 C 153.81 153.38 153.05 154.08 153.01 154.97 Z M 152.97 155.94 L 152.90 156.95 C 152.85 157.84 153.52 158.61 154.42 158.67 C 155.31 158.73 156.09 158.05 156.14 157.16 L 156.21 156.15 C 156.27 155.26 155.59 154.48 154.70 154.42 C 153.80 154.37 153.03 155.04 152.97 155.94 Z M 152.91 156.91 L 152.82 157.89 C 152.74 158.78 153.40 159.57 154.29 159.65 C 155.18 159.73 155.97 159.07 156.05 158.18 L 156.14 157.20 C 156.22 156.31 155.56 155.52 154.67 155.44 C 153.78 155.36 152.99 156.02 152.91 156.91 Z M 152.83 157.86 L 152.72 158.83 C 152.62 159.72 153.26 160.52 154.15 160.62 C 155.04 160.72 155.84 160.08 155.94 159.19 L 156.04 158.21 C 156.14 157.33 155.50 156.53 154.62 156.43 C 153.73 156.33 152.93 156.97 152.83 157.86 Z M 152.72 158.81 L 152.60 159.80 C 152.49 160.69 153.12 161.49 154.00 161.60 C 154.89 161.71 155.70 161.09 155.81 160.20 L 155.93 159.21 C 156.04 158.32 155.41 157.52 154.53 157.41 C 153.64 157.30 152.83 157.92 152.72 158.81 Z M 152.61 159.79 L 152.47 160.81 C 152.36 161.69 152.98 162.50 153.86 162.62 C 154.75 162.73 155.56 162.11 155.67 161.23 L 155.80 160.21 C 155.92 159.33 155.29 158.52 154.41 158.40 C 153.53 158.29 152.72 158.91 152.61 159.79 Z M 152.48 160.81 L 152.35 161.82 C 152.23 162.70 152.86 163.51 153.74 163.62 C 154.62 163.74 155.42 163.11 155.54 162.23 L 155.67 161.22 C 155.78 160.34 155.16 159.54 154.28 159.42 C 153.40 159.31 152.59 159.93 152.48 160.81 Z M 152.35 161.83 L 152.22 162.83 C 152.11 163.71 152.73 164.52 153.61 164.63 C 154.49 164.74 155.29 164.12 155.41 163.24 L 155.53 162.23 C 155.64 161.35 155.02 160.55 154.14 160.44 C 153.26 160.33 152.46 160.95 152.35 161.83 Z M 152.23 162.83 L 152.10 163.84 C 151.99 164.71 152.61 165.52 153.49 165.63 C 154.36 165.74 155.16 165.12 155.27 164.24 L 155.40 163.24 C 155.51 162.36 154.89 161.56 154.02 161.45 C 153.14 161.34 152.34 161.96 152.23 162.83 Z M 152.11 163.83 L 151.98 164.81 C 151.86 165.69 152.48 166.49 153.35 166.60 C 154.23 166.72 155.03 166.10 155.14 165.23 L 155.27 164.24 C 155.38 163.37 154.77 162.57 153.89 162.46 C 153.02 162.34 152.22 162.96 152.11 163.83 Z M 151.98 164.81 L 151.85 165.82 C 151.73 166.69 152.34 167.49 153.21 167.61 C 154.08 167.73 154.88 167.12 155.00 166.25 L 155.14 165.23 C 155.25 164.36 154.64 163.56 153.77 163.44 C 152.90 163.33 152.10 163.94 151.98 164.81 Z M 151.85 165.81 L 151.71 166.83 C 151.58 167.69 152.18 168.50 153.05 168.62 C 153.91 168.75 154.72 168.15 154.84 167.28 L 154.99 166.26 C 155.11 165.39 154.51 164.59 153.65 164.47 C 152.78 164.34 151.98 164.94 151.85 165.81 Z M 151.72 166.82 L 151.57 167.79 C 151.44 168.65 152.03 169.45 152.89 169.59 C 153.75 169.72 154.56 169.12 154.69 168.26 L 154.83 167.29 C 154.96 166.43 154.37 165.63 153.51 165.50 C 152.65 165.37 151.85 165.96 151.72 166.82 Z M 151.58 167.78 L 151.43 168.72 C 151.29 169.57 151.88 170.38 152.74 170.51 C 153.59 170.65 154.40 170.06 154.53 169.21 L 154.68 168.27 C 154.81 167.41 154.23 166.61 153.37 166.48 C 152.52 166.34 151.71 166.93 151.58 167.78 Z M 151.44 168.71 L 151.29 169.65 C 151.15 170.50 151.73 171.30 152.58 171.44 C 153.43 171.57 154.23 171.00 154.37 170.14 L 154.52 169.21 C 154.66 168.36 154.08 167.56 153.23 167.42 C 152.38 167.28 151.57 167.86 151.44 168.71 Z M 151.30 169.65 L 151.14 170.60 C 151.01 171.45 151.58 172.25 152.43 172.38 C 153.28 172.52 154.07 171.94 154.21 171.09 L 154.36 170.14 C 154.50 169.30 153.92 168.50 153.08 168.36 C 152.23 168.23 151.43 168.80 151.30 169.65 Z M 151.15 170.61 L 150.99 171.62 C 150.86 172.46 151.43 173.25 152.28 173.39 C 153.12 173.52 153.91 172.94 154.04 172.10 L 154.20 171.09 C 154.33 170.24 153.76 169.45 152.92 169.32 C 152.07 169.19 151.28 169.77 151.15 170.61 Z M 151.00 171.63 L 150.84 172.66 C 150.72 173.50 151.29 174.28 152.13 174.41 C 152.97 174.54 153.75 173.96 153.88 173.12 L 154.04 172.09 C 154.16 171.25 153.59 170.47 152.75 170.34 C 151.91 170.22 151.12 170.79 151.00 171.63 Z M 150.85 172.67 L 150.71 173.66 C 150.59 174.49 151.17 175.27 152.00 175.39 C 152.84 175.51 153.61 174.93 153.73 174.09 L 153.88 173.11 C 154.00 172.27 153.42 171.50 152.58 171.38 C 151.74 171.26 150.97 171.84 150.85 172.67 Z M 150.71 173.67 L 150.57 174.68 C 150.46 175.52 151.04 176.28 151.87 176.40 C 152.71 176.51 153.47 175.93 153.59 175.10 L 153.73 174.08 C 153.84 173.25 153.26 172.48 152.43 172.37 C 151.59 172.25 150.83 172.84 150.71 173.67 Z M 150.58 174.70 L 150.45 175.71 C 150.34 176.54 150.93 177.30 151.75 177.40 C 152.58 177.51 153.34 176.93 153.45 176.10 L 153.58 175.09 C 153.69 174.26 153.10 173.50 152.27 173.39 C 151.45 173.28 150.69 173.87 150.58 174.70 Z M 150.45 175.72 L 150.34 176.71 C 150.24 177.54 150.83 178.29 151.65 178.38 C 152.48 178.48 153.23 177.89 153.33 177.07 L 153.44 176.08 C 153.54 175.26 152.95 174.51 152.13 174.41 C 151.30 174.31 150.55 174.90 150.45 175.72 Z M 150.35 176.73 L 150.23 177.80 C 150.15 178.62 150.74 179.36 151.56 179.44 C 152.38 179.53 153.12 178.93 153.20 178.12 L 153.32 177.05 C 153.40 176.23 152.81 175.49 151.99 175.41 C 151.17 175.32 150.43 175.91 150.35 176.73 Z M 150.25 177.82 L 150.16 178.81 C 150.08 179.63 150.68 180.34 151.49 180.42 C 152.30 180.49 153.02 179.90 153.10 179.08 L 153.19 178.09 C 153.26 177.28 152.67 176.56 151.85 176.49 C 151.04 176.41 150.32 177.01 150.25 177.82 Z M 150.17 178.83 L 150.09 179.77 C 150.03 180.57 150.62 181.28 151.43 181.35 C 152.23 181.41 152.94 180.82 153.00 180.01 L 153.08 179.07 C 153.15 178.27 152.55 177.56 151.75 177.49 C 150.94 177.43 150.24 178.02 150.17 178.83 Z M 150.10 179.78 L 150.07 180.19 C 150.01 180.99 150.60 181.69 151.40 181.75 C 152.20 181.82 152.90 181.22 152.96 180.42 L 152.99 180.01 C 153.06 179.21 152.46 178.51 151.66 178.45 C 150.87 178.38 150.17 178.98 150.10 179.78 Z"
      fill="black"
      fill-rule="nonzero" /><path d="M 153.49 157.24 L 154.40 156.82 C 155.17 156.46 155.51 155.54 155.15 154.76 C 154.79 153.98 153.87 153.64 153.09 154.01 L 152.19 154.42 C 151.41 154.78 151.07 155.71 151.43 156.49 C 151.79 157.26 152.71 157.60 153.49 157.24 Z M 154.39 156.83 L 155.29 156.42 C 156.08 156.06 156.42 155.14 156.07 154.36 C 155.71 153.58 154.79 153.23 154.01 153.59 L 153.10 154.00 C 152.32 154.36 151.97 155.28 152.33 156.06 C 152.68 156.84 153.61 157.18 154.39 156.83 Z M 155.27 156.42 L 156.19 156.02 C 156.98 155.68 157.33 154.76 156.99 153.98 C 156.65 153.19 155.73 152.83 154.94 153.18 L 154.03 153.58 C 153.24 153.92 152.89 154.84 153.23 155.62 C 153.57 156.41 154.49 156.77 155.27 156.42 Z M 156.16 156.03 L 157.09 155.65 C 157.88 155.32 158.26 154.41 157.93 153.62 C 157.60 152.83 156.69 152.45 155.90 152.78 L 154.97 153.17 C 154.18 153.49 153.80 154.40 154.13 155.19 C 154.46 155.99 155.37 156.36 156.16 156.03 Z M 157.05 155.66 L 157.88 155.34 C 158.68 155.03 159.08 154.13 158.77 153.34 C 158.46 152.54 157.57 152.15 156.77 152.45 L 155.94 152.77 C 155.14 153.08 154.75 153.98 155.05 154.77 C 155.36 155.57 156.26 155.96 157.05 155.66 Z M 157.85 155.33 L 158.71 155.02 C 159.50 154.73 159.91 153.85 159.62 153.06 C 159.33 152.27 158.45 151.86 157.66 152.15 L 156.80 152.46 C 156.01 152.75 155.60 153.63 155.89 154.42 C 156.18 155.21 157.06 155.62 157.85 155.33 Z M 158.68 155.01 L 159.60 154.68 C 160.39 154.41 160.80 153.55 160.53 152.76 C 160.25 151.97 159.39 151.56 158.60 151.83 L 157.68 152.16 C 156.90 152.43 156.48 153.30 156.76 154.08 C 157.03 154.87 157.90 155.28 158.68 155.01 Z M 159.59 154.67 L 160.60 154.32 C 161.38 154.05 161.79 153.20 161.53 152.42 C 161.26 151.65 160.41 151.23 159.63 151.50 L 158.62 151.85 C 157.84 152.12 157.42 152.97 157.69 153.75 C 157.96 154.52 158.81 154.94 159.59 154.67 Z M 160.60 154.31 L 161.66 153.94 C 162.43 153.67 162.84 152.83 162.57 152.06 C 162.31 151.29 161.47 150.88 160.70 151.15 L 159.64 151.52 C 158.86 151.78 158.46 152.62 158.72 153.39 C 158.99 154.16 159.83 154.57 160.60 154.31 Z M 161.66 153.93 L 162.49 153.64 C 163.26 153.37 163.66 152.54 163.40 151.78 C 163.13 151.01 162.30 150.61 161.53 150.87 L 160.70 151.16 C 159.94 151.43 159.53 152.26 159.80 153.02 C 160.06 153.79 160.89 154.19 161.66 153.93 Z M 162.49 153.63 L 163.38 153.32 C 164.14 153.06 164.54 152.23 164.28 151.47 C 164.01 150.70 163.18 150.30 162.42 150.57 L 161.53 150.88 C 160.77 151.14 160.37 151.97 160.64 152.74 C 160.90 153.50 161.73 153.90 162.49 153.63 Z M 163.38 153.32 L 164.31 152.99 C 165.07 152.73 165.47 151.90 165.21 151.14 C 164.94 150.38 164.11 149.98 163.35 150.25 L 162.42 150.57 C 161.66 150.84 161.26 151.67 161.53 152.43 C 161.79 153.18 162.62 153.58 163.38 153.32 Z M 164.31 152.99 L 165.28 152.65 C 166.03 152.38 166.43 151.56 166.17 150.80 C 165.90 150.05 165.08 149.65 164.32 149.91 L 163.35 150.25 C 162.60 150.52 162.20 151.34 162.47 152.10 C 162.73 152.85 163.56 153.25 164.31 152.99 Z M 165.28 152.64 L 166.27 152.29 C 167.02 152.03 167.42 151.21 167.16 150.45 C 166.89 149.70 166.07 149.31 165.32 149.57 L 164.32 149.92 C 163.57 150.18 163.18 151.01 163.44 151.76 C 163.70 152.51 164.53 152.91 165.28 152.64 Z M 166.27 152.29 L 167.28 151.93 C 168.03 151.67 168.42 150.85 168.16 150.10 C 167.90 149.35 167.08 148.96 166.33 149.22 L 165.32 149.58 C 164.57 149.84 164.18 150.66 164.44 151.41 C 164.70 152.16 165.52 152.55 166.27 152.29 Z M 167.28 151.93 L 168.13 151.63 C 168.88 151.37 169.27 150.55 169.01 149.80 C 168.74 149.06 167.93 148.66 167.18 148.93 L 166.33 149.22 C 165.58 149.49 165.19 150.31 165.45 151.05 C 165.72 151.80 166.53 152.19 167.28 151.93 Z"
      fill="black"
      fill-rule="nonzero" /><path d="M 135.55 150.44 L 135.00 151.22 C 134.50 151.93 134.68 152.91 135.39 153.41 C 136.10 153.90 137.07 153.73 137.57 153.02 L 138.12 152.23 C 138.61 151.52 138.44 150.55 137.73 150.05 C 137.02 149.55 136.04 149.73 135.55 150.44 Z M 134.95 151.21 L 134.39 152.02 C 133.89 152.75 134.08 153.76 134.81 154.27 C 135.55 154.77 136.56 154.58 137.06 153.85 L 137.62 153.04 C 138.12 152.30 137.93 151.29 137.20 150.79 C 136.46 150.28 135.45 150.47 134.95 151.21 Z M 134.34 152.01 L 133.77 152.87 C 133.26 153.64 133.47 154.67 134.24 155.18 C 135.00 155.69 136.04 155.48 136.55 154.71 L 137.12 153.85 C 137.63 153.09 137.42 152.05 136.65 151.54 C 135.88 151.03 134.85 151.24 134.34 152.01 Z M 133.72 152.88 L 133.18 153.73 C 132.67 154.53 132.90 155.58 133.70 156.08 C 134.49 156.59 135.54 156.35 136.05 155.56 L 136.59 154.70 C 137.10 153.91 136.86 152.86 136.07 152.35 C 135.28 151.85 134.23 152.08 133.72 152.88 Z M 133.15 153.75 L 132.62 154.61 C 132.13 155.41 132.38 156.47 133.18 156.97 C 133.99 157.46 135.04 157.21 135.54 156.41 L 136.07 155.55 C 136.57 154.74 136.32 153.69 135.51 153.19 C 134.71 152.69 133.65 152.94 133.15 153.75 Z M 132.62 154.62 L 132.09 155.49 C 131.60 156.30 131.85 157.35 132.66 157.84 C 133.47 158.33 134.52 158.08 135.02 157.27 L 135.55 156.40 C 136.04 155.59 135.78 154.54 134.97 154.04 C 134.16 153.55 133.11 153.81 132.62 154.62 Z M 132.09 155.49 L 131.57 156.33 C 131.08 157.14 131.33 158.20 132.14 158.69 C 132.95 159.18 134.01 158.93 134.50 158.12 L 135.02 157.27 C 135.51 156.46 135.25 155.41 134.45 154.91 C 133.64 154.42 132.58 154.68 132.09 155.49 Z M 131.58 156.32 L 131.04 157.19 C 130.54 157.99 130.79 159.05 131.59 159.55 C 132.40 160.05 133.45 159.80 133.95 159.00 L 134.49 158.13 C 134.99 157.33 134.75 156.27 133.94 155.77 C 133.14 155.27 132.08 155.52 131.58 156.32 Z M 131.05 157.17 L 130.52 158.01 C 130.01 158.80 130.25 159.86 131.04 160.37 C 131.84 160.88 132.90 160.65 133.41 159.85 L 133.94 159.01 C 134.45 158.21 134.22 157.15 133.42 156.65 C 132.62 156.14 131.56 156.37 131.05 157.17 Z M 130.53 157.99 L 130.00 158.82 C 129.48 159.61 129.71 160.67 130.50 161.18 C 131.29 161.70 132.35 161.47 132.87 160.68 L 133.40 159.86 C 133.92 159.07 133.69 158.01 132.90 157.49 C 132.11 156.98 131.04 157.20 130.53 157.99 Z M 130.00 158.81 L 129.47 159.62 C 128.95 160.41 129.17 161.47 129.96 161.99 C 130.75 162.51 131.81 162.29 132.33 161.50 L 132.86 160.69 C 133.38 159.90 133.16 158.84 132.37 158.32 C 131.58 157.80 130.52 158.02 130.00 158.81 Z M 129.47 159.61 L 128.95 160.41 C 128.43 161.19 128.64 162.25 129.43 162.77 C 130.21 163.30 131.27 163.08 131.79 162.30 L 132.32 161.50 C 132.84 160.72 132.63 159.66 131.84 159.14 C 131.06 158.61 130.00 158.83 129.47 159.61 Z M 128.95 160.40 L 128.40 161.23 C 127.87 162.01 128.08 163.07 128.86 163.59 C 129.65 164.12 130.71 163.91 131.23 163.13 L 131.79 162.30 C 132.31 161.52 132.11 160.46 131.32 159.93 C 130.54 159.41 129.48 159.62 128.95 160.40 Z M 128.41 161.22 L 127.82 162.08 C 127.29 162.86 127.49 163.92 128.27 164.45 C 129.05 164.98 130.11 164.78 130.64 164.00 L 131.22 163.14 C 131.75 162.36 131.55 161.30 130.78 160.77 C 130.00 160.24 128.94 160.44 128.41 161.22 Z M 127.83 162.07 L 127.26 162.90 C 126.72 163.67 126.91 164.73 127.69 165.27 C 128.46 165.80 129.52 165.61 130.05 164.84 L 130.63 164.01 C 131.16 163.24 130.97 162.18 130.20 161.64 C 129.42 161.11 128.36 161.30 127.83 162.07 Z M 127.26 162.89 L 126.71 163.69 C 126.17 164.45 126.36 165.51 127.12 166.05 C 127.89 166.59 128.95 166.40 129.49 165.64 L 130.04 164.85 C 130.58 164.08 130.40 163.02 129.63 162.48 C 128.86 161.94 127.80 162.13 127.26 162.89 Z M 126.72 163.68 L 126.14 164.49 C 125.60 165.26 125.78 166.31 126.54 166.86 C 127.30 167.40 128.36 167.22 128.90 166.45 L 129.48 165.64 C 130.02 164.88 129.84 163.82 129.08 163.28 C 128.32 162.74 127.26 162.92 126.72 163.68 Z M 126.15 164.49 L 125.55 165.32 C 125.01 166.08 125.18 167.14 125.94 167.68 C 126.70 168.22 127.76 168.05 128.30 167.29 L 128.90 166.46 C 129.44 165.70 129.26 164.64 128.51 164.10 C 127.75 163.56 126.69 163.73 126.15 164.49 Z M 125.56 165.32 L 124.95 166.16 C 124.40 166.92 124.57 167.97 125.33 168.52 C 126.08 169.06 127.14 168.89 127.68 168.14 L 128.29 167.29 C 128.84 166.54 128.67 165.48 127.91 164.94 C 127.16 164.39 126.10 164.56 125.56 165.32 Z M 124.96 166.16 L 124.39 166.94 C 123.84 167.69 124.01 168.75 124.76 169.29 C 125.51 169.84 126.56 169.67 127.11 168.92 L 127.68 168.14 C 128.22 167.39 128.05 166.34 127.30 165.79 C 126.55 165.24 125.50 165.41 124.96 166.16 Z M 124.40 166.94 L 123.82 167.74 C 123.27 168.48 123.43 169.53 124.18 170.08 C 124.93 170.62 125.98 170.46 126.52 169.71 L 127.10 168.92 C 127.65 168.17 127.48 167.12 126.74 166.58 C 125.99 166.03 124.94 166.20 124.40 166.94 Z M 123.82 167.73 L 123.23 168.54 C 122.68 169.28 122.84 170.33 123.59 170.88 C 124.33 171.42 125.38 171.26 125.92 170.52 L 126.52 169.71 C 127.06 168.97 126.90 167.92 126.16 167.38 C 125.42 166.83 124.37 166.99 123.82 167.73 Z M 123.24 168.54 L 122.63 169.36 C 122.09 170.10 122.24 171.14 122.98 171.69 C 123.72 172.24 124.76 172.08 125.31 171.34 L 125.92 170.52 C 126.46 169.78 126.31 168.74 125.57 168.19 C 124.83 167.64 123.79 167.80 123.24 168.54 Z M 122.64 169.36 L 122.02 170.19 C 121.47 170.92 121.63 171.96 122.36 172.51 C 123.10 173.06 124.14 172.91 124.69 172.17 L 125.30 171.34 C 125.85 170.60 125.70 169.56 124.96 169.02 C 124.23 168.47 123.19 168.62 122.64 169.36 Z M 122.03 170.19 L 121.43 170.99 C 120.88 171.72 121.03 172.76 121.76 173.30 C 122.49 173.85 123.53 173.70 124.08 172.97 L 124.68 172.17 C 125.23 171.44 125.08 170.40 124.35 169.86 C 123.61 169.31 122.58 169.46 122.03 170.19 Z M 121.44 170.99 L 120.83 171.79 C 120.28 172.52 120.43 173.55 121.16 174.10 C 121.88 174.65 122.92 174.50 123.46 173.78 L 124.07 172.97 C 124.62 172.24 124.47 171.21 123.75 170.66 C 123.02 170.12 121.99 170.26 121.44 170.99 Z M 120.84 171.79 L 120.23 172.60 C 119.68 173.32 119.82 174.35 120.55 174.90 C 121.27 175.45 122.30 175.31 122.85 174.58 L 123.46 173.78 C 124.00 173.05 123.86 172.02 123.14 171.48 C 122.42 170.93 121.39 171.07 120.84 171.79 Z M 120.24 172.60 L 119.63 173.40 C 119.08 174.11 119.22 175.14 119.94 175.69 C 120.66 176.24 121.68 176.10 122.23 175.38 L 122.84 174.58 C 123.39 173.86 123.25 172.84 122.53 172.29 C 121.81 171.74 120.78 171.88 120.24 172.60 Z M 119.64 173.40 L 119.04 174.18 C 118.49 174.89 118.62 175.92 119.34 176.46 C 120.05 177.01 121.08 176.88 121.62 176.16 L 122.22 175.38 C 122.77 174.67 122.64 173.64 121.92 173.09 C 121.21 172.55 120.18 172.68 119.64 173.40 Z M 119.05 174.18 L 118.41 175.00 C 117.86 175.71 117.99 176.73 118.70 177.28 C 119.41 177.82 120.43 177.69 120.98 176.98 L 121.61 176.16 C 122.16 175.45 122.03 174.43 121.32 173.89 C 120.61 173.34 119.59 173.47 119.05 174.18 Z M 118.42 175.00 L 117.79 175.81 C 117.24 176.51 117.37 177.53 118.07 178.08 C 118.78 178.62 119.79 178.50 120.34 177.79 L 120.97 176.99 C 121.52 176.28 121.39 175.27 120.69 174.72 C 119.98 174.17 118.97 174.30 118.42 175.00 Z M 117.80 175.81 L 117.18 176.59 C 116.64 177.29 116.76 178.30 117.45 178.85 C 118.15 179.40 119.16 179.28 119.71 178.58 L 120.33 177.80 C 120.88 177.10 120.76 176.09 120.06 175.54 C 119.36 174.99 118.35 175.11 117.80 175.81 Z M 117.20 176.59 L 116.59 177.35 C 116.04 178.04 116.15 179.05 116.84 179.60 C 117.53 180.15 118.54 180.04 119.09 179.34 L 119.70 178.58 C 120.25 177.89 120.13 176.88 119.44 176.33 C 118.75 175.78 117.75 175.90 117.20 176.59 Z M 116.60 177.35 L 116.00 178.09 C 115.45 178.78 115.56 179.78 116.24 180.33 C 116.93 180.88 117.93 180.77 118.48 180.09 L 119.08 179.35 C 119.63 178.66 119.52 177.66 118.84 177.11 C 118.16 176.56 117.15 176.66 116.60 177.35 Z M 116.02 178.09 L 115.42 178.82 C 114.87 179.49 114.97 180.49 115.64 181.05 C 116.32 181.60 117.32 181.50 117.87 180.82 L 118.47 180.09 C 119.02 179.42 118.92 178.42 118.24 177.87 C 117.57 177.31 116.57 177.41 116.02 178.09 Z M 115.43 178.81 L 114.83 179.55 C 114.27 180.22 114.36 181.21 115.03 181.76 C 115.70 182.32 116.70 182.23 117.25 181.56 L 117.86 180.82 C 118.41 180.16 118.32 179.16 117.65 178.61 C 116.98 178.05 115.99 178.14 115.43 178.81 Z M 114.84 179.54 L 114.21 180.30 C 113.65 180.96 113.74 181.95 114.40 182.50 C 115.06 183.06 116.05 182.98 116.61 182.31 L 117.24 181.56 C 117.80 180.90 117.71 179.91 117.05 179.35 C 116.38 178.80 115.40 178.88 114.84 179.54 Z M 114.22 180.30 L 113.54 181.09 C 112.99 181.75 113.07 182.73 113.72 183.29 C 114.38 183.85 115.36 183.77 115.92 183.11 L 116.59 182.31 C 117.15 181.66 117.07 180.67 116.41 180.12 C 115.76 179.56 114.77 179.64 114.22 180.30 Z M 113.55 181.09 L 112.86 181.90 C 112.30 182.55 112.38 183.53 113.03 184.09 C 113.68 184.64 114.66 184.57 115.22 183.92 L 115.91 183.11 C 116.46 182.46 116.39 181.48 115.74 180.92 C 115.09 180.37 114.11 180.44 113.55 181.09 Z M 112.87 181.90 L 112.24 182.64 C 111.68 183.28 111.75 184.26 112.39 184.81 C 113.04 185.37 114.01 185.30 114.57 184.65 L 115.21 183.92 C 115.76 183.27 115.69 182.30 115.05 181.74 C 114.40 181.19 113.43 181.26 112.87 181.90 Z M 112.25 182.63 L 111.58 183.39 C 111.02 184.03 111.09 185.00 111.72 185.56 C 112.36 186.12 113.33 186.06 113.89 185.42 L 114.56 184.66 C 115.12 184.02 115.05 183.05 114.41 182.49 C 113.78 181.93 112.81 182.00 112.25 182.63 Z M 111.60 183.39 L 110.91 184.15 C 110.35 184.78 110.40 185.75 111.03 186.31 C 111.66 186.87 112.62 186.82 113.19 186.19 L 113.87 185.43 C 114.44 184.80 114.39 183.83 113.76 183.27 C 113.13 182.71 112.16 182.76 111.60 183.39 Z M 110.93 184.14 L 110.24 184.89 C 109.66 185.51 109.70 186.47 110.32 187.04 C 110.93 187.61 111.90 187.58 112.47 186.96 L 113.17 186.21 C 113.74 185.59 113.70 184.63 113.08 184.06 C 112.47 183.49 111.50 183.52 110.93 184.14 Z M 110.26 184.87 L 109.57 185.59 C 108.98 186.19 109.00 187.15 109.60 187.73 C 110.20 188.32 111.16 188.30 111.74 187.70 L 112.44 186.98 C 113.02 186.38 113.01 185.42 112.41 184.84 C 111.80 184.25 110.84 184.27 110.26 184.87 Z M 109.60 185.56 L 108.87 186.28 C 108.28 186.86 108.26 187.81 108.84 188.41 C 109.42 189.01 110.38 189.02 110.98 188.44 L 111.71 187.72 C 112.30 187.14 112.32 186.19 111.74 185.59 C 111.16 185.00 110.20 184.98 109.60 185.56 Z M 108.92 186.25 L 108.13 186.96 C 107.51 187.52 107.47 188.46 108.02 189.08 C 108.57 189.69 109.52 189.74 110.13 189.18 L 110.93 188.47 C 111.54 187.91 111.59 186.97 111.04 186.35 C 110.48 185.74 109.53 185.69 108.92 186.25 Z M 108.18 186.94 L 107.40 187.59 C 106.77 188.11 106.69 189.05 107.22 189.68 C 107.75 190.31 108.68 190.39 109.31 189.86 L 110.09 189.21 C 110.71 188.68 110.79 187.75 110.27 187.12 C 109.74 186.49 108.80 186.41 108.18 186.94 Z M 107.44 187.57 L 106.68 188.17 C 106.05 188.68 105.94 189.60 106.44 190.24 C 106.95 190.88 107.87 190.98 108.51 190.48 L 109.27 189.88 C 109.91 189.37 110.02 188.45 109.51 187.81 C 109.01 187.17 108.08 187.06 107.44 187.57 Z M 106.71 188.16 L 105.96 188.74 C 105.32 189.23 105.20 190.14 105.68 190.78 C 106.17 191.42 107.09 191.55 107.73 191.06 L 108.48 190.49 C 109.12 190.00 109.25 189.08 108.76 188.44 C 108.27 187.80 107.35 187.68 106.71 188.16 Z M 105.97 188.74 L 105.53 189.07 C 104.89 189.55 104.76 190.46 105.25 191.10 C 105.73 191.74 106.63 191.87 107.27 191.39 L 107.72 191.06 C 108.36 190.58 108.49 189.67 108.00 189.03 C 107.52 188.39 106.61 188.26 105.97 188.74 Z"
      fill="black"
      fill-rule="nonzero" /><path d="M 127.68 170.54 L 128.61 170.81 C 129.43 171.04 130.28 170.57 130.51 169.75 C 130.74 168.93 130.27 168.08 129.45 167.85 L 128.52 167.58 C 127.70 167.35 126.85 167.83 126.62 168.64 C 126.39 169.46 126.86 170.31 127.68 170.54 Z M 128.57 170.80 L 129.51 171.09 C 130.32 171.35 131.19 170.90 131.44 170.09 C 131.70 169.28 131.25 168.41 130.43 168.15 L 129.50 167.86 C 128.68 167.60 127.82 168.05 127.56 168.87 C 127.31 169.68 127.76 170.54 128.57 170.80 Z M 129.43 171.07 L 130.38 171.43 C 131.18 171.72 132.07 171.32 132.37 170.52 C 132.67 169.72 132.26 168.83 131.46 168.53 L 130.51 168.18 C 129.71 167.88 128.82 168.29 128.53 169.08 C 128.23 169.88 128.63 170.77 129.43 171.07 Z M 130.28 171.39 L 131.21 171.81 C 131.99 172.17 132.91 171.82 133.27 171.05 C 133.62 170.27 133.28 169.35 132.50 168.99 L 131.57 168.57 C 130.79 168.21 129.87 168.56 129.51 169.34 C 129.16 170.12 129.50 171.04 130.28 171.39 Z M 131.12 171.78 L 132.01 172.26 C 132.77 172.67 133.72 172.38 134.13 171.62 C 134.53 170.86 134.25 169.91 133.49 169.50 L 132.59 169.02 C 131.83 168.62 130.88 168.90 130.48 169.67 C 130.07 170.43 130.36 171.37 131.12 171.78 Z M 131.94 172.24 L 132.82 172.76 C 133.57 173.21 134.54 172.96 134.99 172.21 C 135.43 171.45 135.18 170.48 134.43 170.04 L 133.55 169.52 C 132.80 169.07 131.83 169.32 131.39 170.07 C 130.94 170.83 131.19 171.80 131.94 172.24 Z M 132.77 172.75 L 133.61 173.28 C 134.36 173.75 135.35 173.53 135.82 172.78 C 136.29 172.04 136.06 171.05 135.32 170.58 L 134.48 170.05 C 133.73 169.58 132.74 169.80 132.27 170.55 C 131.80 171.29 132.02 172.28 132.77 172.75 Z M 133.58 173.28 L 134.44 173.84 C 135.19 174.33 136.19 174.12 136.67 173.37 C 137.16 172.63 136.95 171.63 136.21 171.14 L 135.35 170.58 C 134.60 170.09 133.60 170.30 133.11 171.05 C 132.63 171.79 132.83 172.79 133.58 173.28 Z M 134.42 173.84 L 135.26 174.41 C 136.01 174.91 137.02 174.71 137.52 173.96 C 138.02 173.21 137.82 172.20 137.07 171.70 L 136.23 171.14 C 135.48 170.64 134.47 170.84 133.97 171.59 C 133.47 172.33 133.67 173.34 134.42 173.84 Z M 135.24 174.41 L 136.04 174.95 C 136.79 175.46 137.81 175.27 138.32 174.52 C 138.83 173.78 138.64 172.76 137.89 172.25 L 137.09 171.70 C 136.34 171.19 135.32 171.39 134.81 172.13 C 134.30 172.88 134.50 173.90 135.24 174.41 Z M 136.03 174.96 L 136.82 175.50 C 137.57 176.02 138.59 175.83 139.11 175.08 C 139.63 174.33 139.44 173.31 138.69 172.79 L 137.90 172.24 C 137.16 171.73 136.13 171.91 135.61 172.66 C 135.09 173.41 135.28 174.44 136.03 174.96 Z M 136.81 175.51 L 137.61 176.06 C 138.36 176.59 139.39 176.40 139.92 175.65 C 140.44 174.90 140.25 173.86 139.50 173.34 L 138.70 172.78 C 137.95 172.26 136.92 172.45 136.39 173.20 C 135.87 173.95 136.05 174.98 136.81 175.51 Z M 137.60 176.07 L 138.42 176.64 C 139.18 177.17 140.22 176.99 140.75 176.23 C 141.27 175.47 141.09 174.43 140.33 173.91 L 139.51 173.33 C 138.75 172.80 137.71 172.99 137.18 173.75 C 136.66 174.50 136.84 175.54 137.60 176.07 Z M 138.41 176.65 L 139.26 177.25 C 140.02 177.78 141.07 177.59 141.60 176.83 C 142.13 176.07 141.95 175.02 141.19 174.49 L 140.34 173.90 C 139.58 173.37 138.53 173.55 138.00 174.31 C 137.47 175.07 137.65 176.12 138.41 176.65 Z M 139.26 177.25 L 140.05 177.81 C 140.82 178.34 141.87 178.15 142.40 177.39 C 142.94 176.62 142.75 175.57 141.99 175.04 L 141.19 174.48 C 140.43 173.95 139.37 174.14 138.84 174.90 C 138.31 175.67 138.49 176.72 139.26 177.25 Z M 140.05 177.81 L 140.87 178.38 C 141.63 178.92 142.69 178.73 143.22 177.97 C 143.76 177.20 143.58 176.14 142.81 175.61 L 141.99 175.04 C 141.23 174.50 140.17 174.69 139.63 175.45 C 139.10 176.22 139.28 177.27 140.05 177.81 Z M 140.86 178.38 L 141.69 178.97 C 142.45 179.51 143.51 179.33 144.06 178.56 C 144.60 177.80 144.41 176.74 143.65 176.19 L 142.82 175.61 C 142.05 175.07 140.99 175.25 140.45 176.02 C 139.91 176.78 140.09 177.84 140.86 178.38 Z M 141.68 178.97 L 142.49 179.55 C 143.26 180.10 144.32 179.92 144.87 179.16 C 145.42 178.39 145.24 177.33 144.48 176.78 L 143.66 176.20 C 142.90 175.65 141.83 175.82 141.28 176.59 C 140.74 177.36 140.91 178.42 141.68 178.97 Z M 142.48 179.55 L 143.28 180.13 C 144.04 180.68 145.11 180.51 145.66 179.75 C 146.22 178.98 146.05 177.92 145.28 177.36 L 144.49 176.78 C 143.73 176.23 142.66 176.40 142.10 177.16 C 141.55 177.93 141.72 179.00 142.48 179.55 Z M 143.27 180.13 L 144.07 180.71 C 144.83 181.27 145.91 181.11 146.47 180.34 C 147.03 179.58 146.86 178.51 146.10 177.95 L 145.29 177.36 C 144.53 176.80 143.46 176.97 142.90 177.73 C 142.34 178.49 142.50 179.57 143.27 180.13 Z M 144.06 180.72 L 144.88 181.32 C 145.65 181.88 146.73 181.72 147.29 180.95 C 147.85 180.19 147.69 179.11 146.92 178.55 L 146.10 177.95 C 145.34 177.38 144.26 177.55 143.70 178.31 C 143.14 179.08 143.30 180.15 144.06 180.72 Z M 144.88 181.32 L 145.69 181.91 C 146.45 182.48 147.53 182.31 148.10 181.55 C 148.66 180.78 148.50 179.70 147.73 179.14 L 146.92 178.54 C 146.16 177.98 145.08 178.15 144.51 178.91 C 143.95 179.68 144.11 180.76 144.88 181.32 Z M 145.69 181.92 L 146.48 182.50 C 147.25 183.07 148.33 182.90 148.90 182.13 C 149.46 181.36 149.29 180.27 148.52 179.71 L 147.73 179.13 C 146.96 178.57 145.88 178.73 145.31 179.50 C 144.75 180.27 144.91 181.36 145.69 181.92 Z M 146.48 182.51 L 147.29 183.10 C 148.06 183.66 149.15 183.49 149.71 182.72 C 150.28 181.94 150.11 180.86 149.33 180.29 L 148.52 179.70 C 147.75 179.14 146.66 179.31 146.10 180.08 C 145.53 180.86 145.70 181.94 146.48 182.51 Z M 147.29 183.11 L 148.11 183.70 C 148.89 184.26 149.98 184.09 150.54 183.31 C 151.11 182.53 150.93 181.45 150.15 180.88 L 149.33 180.29 C 148.55 179.72 147.46 179.90 146.90 180.68 C 146.34 181.45 146.51 182.54 147.29 183.11 Z M 148.12 183.71 L 148.93 184.30 C 149.72 184.86 150.81 184.68 151.37 183.90 C 151.93 183.11 151.75 182.02 150.97 181.46 L 150.15 180.87 C 149.37 180.31 148.28 180.49 147.72 181.27 C 147.16 182.06 147.33 183.15 148.12 183.71 Z M 148.94 184.30 L 149.73 184.87 C 150.51 185.42 151.61 185.24 152.17 184.45 C 152.73 183.67 152.54 182.57 151.75 182.01 L 150.96 181.45 C 150.18 180.89 149.08 181.08 148.52 181.86 C 147.96 182.65 148.15 183.74 148.94 184.30 Z M 149.73 184.87 L 150.54 185.44 C 151.33 186.00 152.43 185.80 152.98 185.01 C 153.54 184.22 153.35 183.13 152.55 182.57 L 151.75 182.00 C 150.95 181.45 149.86 181.64 149.31 182.43 C 148.75 183.23 148.94 184.32 149.73 184.87 Z M 150.55 185.45 L 151.38 186.02 C 152.18 186.58 153.27 186.37 153.82 185.58 C 154.37 184.78 154.17 183.68 153.37 183.13 L 152.54 182.56 C 151.75 182.01 150.65 182.21 150.10 183.01 C 149.55 183.81 149.75 184.90 150.55 185.45 Z M 151.39 186.04 L 152.25 186.62 C 153.06 187.16 154.15 186.95 154.70 186.15 C 155.24 185.34 155.03 184.25 154.23 183.70 L 153.36 183.12 C 152.56 182.57 151.46 182.79 150.92 183.59 C 150.37 184.40 150.59 185.49 151.39 186.04 Z M 152.27 186.63 L 153.08 187.17 C 153.90 187.71 154.99 187.49 155.53 186.68 C 156.07 185.86 155.84 184.77 155.03 184.23 L 154.21 183.69 C 153.40 183.15 152.31 183.37 151.77 184.19 C 151.23 185.00 151.45 186.09 152.27 186.63 Z M 153.10 187.18 L 153.93 187.72 C 154.75 188.25 155.84 188.02 156.37 187.20 C 156.90 186.38 156.67 185.29 155.85 184.76 L 155.02 184.22 C 154.20 183.69 153.10 183.92 152.57 184.74 C 152.05 185.56 152.28 186.66 153.10 187.18 Z M 153.95 187.74 L 154.80 188.27 C 155.62 188.79 156.72 188.55 157.24 187.72 C 157.76 186.89 157.51 185.80 156.68 185.28 L 155.83 184.74 C 155.01 184.22 153.91 184.47 153.39 185.30 C 152.87 186.12 153.12 187.22 153.95 187.74 Z M 154.82 188.29 L 155.68 188.82 C 156.52 189.33 157.61 189.06 158.12 188.23 C 158.63 187.40 158.36 186.31 157.53 185.80 L 156.66 185.27 C 155.83 184.76 154.74 185.02 154.23 185.85 C 153.72 186.69 153.98 187.78 154.82 188.29 Z M 155.71 188.83 L 156.58 189.35 C 157.42 189.84 158.51 189.56 159.00 188.72 C 159.50 187.88 159.22 186.79 158.38 186.30 L 157.51 185.78 C 156.67 185.28 155.58 185.56 155.08 186.41 C 154.58 187.25 154.86 188.33 155.71 188.83 Z M 156.60 189.36 L 157.48 189.86 C 158.33 190.34 159.41 190.04 159.89 189.19 C 160.37 188.34 160.08 187.26 159.22 186.77 L 158.35 186.28 C 157.50 185.80 156.42 186.10 155.94 186.95 C 155.45 187.80 155.75 188.88 156.60 189.36 Z M 157.50 189.87 L 158.37 190.35 C 159.23 190.82 160.31 190.50 160.78 189.64 C 161.25 188.78 160.93 187.71 160.07 187.24 L 159.20 186.76 C 158.34 186.29 157.26 186.61 156.79 187.46 C 156.32 188.32 156.64 189.40 157.50 189.87 Z M 158.39 190.36 L 159.27 190.83 C 160.14 191.29 161.21 190.96 161.67 190.09 C 162.13 189.22 161.80 188.15 160.93 187.69 L 160.05 187.22 C 159.19 186.77 158.11 187.10 157.65 187.96 C 157.20 188.83 157.52 189.90 158.39 190.36 Z M 159.28 190.84 L 160.17 191.30 C 161.04 191.75 162.11 191.41 162.56 190.54 C 163.02 189.66 162.68 188.59 161.81 188.14 L 160.92 187.68 C 160.05 187.23 158.98 187.57 158.52 188.44 C 158.07 189.31 158.41 190.38 159.28 190.84 Z M 160.18 191.30 L 161.08 191.76 C 161.95 192.21 163.02 191.86 163.47 190.99 C 163.92 190.11 163.57 189.04 162.70 188.59 L 161.80 188.14 C 160.92 187.69 159.85 188.04 159.41 188.91 C 158.96 189.78 159.31 190.86 160.18 191.30 Z M 161.09 191.76 L 161.95 192.20 C 162.83 192.65 163.90 192.30 164.34 191.42 C 164.79 190.54 164.43 189.47 163.56 189.03 L 162.69 188.59 C 161.81 188.15 160.74 188.50 160.30 189.38 C 159.86 190.25 160.21 191.32 161.09 191.76 Z M 161.96 192.21 L 162.84 192.64 C 163.72 193.08 164.78 192.73 165.22 191.85 C 165.66 190.97 165.30 189.90 164.43 189.47 L 163.55 189.03 C 162.67 188.59 161.61 188.94 161.17 189.82 C 160.73 190.70 161.08 191.77 161.96 192.21 Z M 162.85 192.65 L 163.74 193.09 C 164.62 193.52 165.69 193.15 166.12 192.27 C 166.55 191.39 166.19 190.33 165.31 189.90 L 164.41 189.46 C 163.53 189.03 162.47 189.39 162.04 190.27 C 161.61 191.15 161.97 192.22 162.85 192.65 Z M 163.76 193.09 L 164.67 193.53 C 165.56 193.95 166.62 193.58 167.04 192.69 C 167.46 191.81 167.09 190.75 166.20 190.32 L 165.29 189.89 C 164.40 189.47 163.34 189.84 162.92 190.73 C 162.50 191.61 162.88 192.67 163.76 193.09 Z M 164.69 193.54 L 165.63 193.97 C 166.52 194.38 167.57 193.99 167.98 193.10 C 168.39 192.21 168.00 191.15 167.11 190.74 L 166.18 190.32 C 165.29 189.91 164.23 190.29 163.82 191.18 C 163.41 192.07 163.80 193.13 164.69 193.54 Z M 165.65 193.98 L 166.57 194.38 C 167.47 194.78 168.52 194.38 168.91 193.48 C 169.31 192.58 168.90 191.54 168.01 191.14 L 167.09 190.73 C 166.19 190.34 165.14 190.74 164.75 191.64 C 164.35 192.54 164.76 193.58 165.65 193.98 Z M 166.60 194.39 L 167.50 194.78 C 168.40 195.16 169.44 194.74 169.83 193.84 C 170.21 192.94 169.79 191.90 168.89 191.51 L 167.98 191.13 C 167.08 190.75 166.04 191.17 165.66 192.07 C 165.28 192.97 165.70 194.01 166.60 194.39 Z M 167.53 194.79 L 168.45 195.16 C 169.35 195.53 170.39 195.10 170.76 194.19 C 171.12 193.28 170.69 192.25 169.78 191.88 L 168.86 191.51 C 167.96 191.14 166.92 191.57 166.56 192.48 C 166.19 193.38 166.62 194.42 167.53 194.79 Z M 168.47 195.17 L 169.40 195.54 C 170.31 195.89 171.34 195.45 171.70 194.54 C 172.05 193.63 171.61 192.60 170.70 192.24 L 169.76 191.88 C 168.85 191.52 167.83 191.97 167.47 192.87 C 167.11 193.78 167.56 194.81 168.47 195.17 Z M 169.42 195.54 L 170.37 195.90 C 171.28 196.25 172.30 195.79 172.65 194.88 C 172.99 193.97 172.54 192.95 171.62 192.60 L 170.68 192.24 C 169.77 191.89 168.75 192.35 168.40 193.26 C 168.05 194.17 168.51 195.19 169.42 195.54 Z M 170.38 195.90 L 171.34 196.26 C 172.25 196.59 173.27 196.13 173.60 195.21 C 173.94 194.30 173.47 193.28 172.56 192.95 L 171.61 192.59 C 170.69 192.26 169.68 192.72 169.34 193.64 C 169.00 194.55 169.47 195.57 170.38 195.90 Z M 171.35 196.26 L 172.29 196.60 C 173.21 196.93 174.22 196.45 174.55 195.53 C 174.88 194.62 174.40 193.61 173.48 193.28 L 172.54 192.94 C 171.63 192.61 170.62 193.09 170.29 194.01 C 169.96 194.92 170.44 195.93 171.35 196.26 Z M 172.31 196.60 L 173.25 196.93 C 174.17 197.25 175.17 196.76 175.49 195.84 C 175.81 194.93 175.32 193.93 174.41 193.61 L 173.47 193.28 C 172.55 192.96 171.55 193.44 171.23 194.36 C 170.91 195.28 171.39 196.28 172.31 196.60 Z M 173.27 196.93 L 174.21 197.25 C 175.13 197.56 176.13 197.06 176.44 196.15 C 176.75 195.23 176.25 194.23 175.34 193.92 L 174.39 193.61 C 173.47 193.30 172.48 193.79 172.17 194.71 C 171.86 195.62 172.35 196.62 173.27 196.93 Z M 174.23 197.25 L 175.19 197.56 C 176.10 197.86 177.09 197.35 177.39 196.44 C 177.69 195.52 177.18 194.53 176.27 194.23 L 175.32 193.92 C 174.40 193.62 173.41 194.13 173.11 195.04 C 172.81 195.96 173.32 196.95 174.23 197.25 Z M 175.21 197.56 L 176.16 197.86 C 177.08 198.14 178.06 197.63 178.35 196.71 C 178.63 195.79 178.12 194.82 177.20 194.53 L 176.25 194.23 C 175.33 193.94 174.35 194.46 174.06 195.37 C 173.78 196.29 174.29 197.27 175.21 197.56 Z M 176.19 197.86 L 177.15 198.15 C 178.07 198.42 179.04 197.90 179.31 196.98 C 179.59 196.06 179.07 195.09 178.15 194.82 L 177.18 194.53 C 176.26 194.25 175.29 194.78 175.02 195.70 C 174.74 196.62 175.27 197.58 176.19 197.86 Z M 177.17 198.15 L 178.12 198.42 C 179.04 198.68 180.00 198.15 180.26 197.23 C 180.52 196.31 179.99 195.35 179.07 195.09 L 178.12 194.82 C 177.20 194.55 176.24 195.09 175.98 196.01 C 175.72 196.93 176.25 197.89 177.17 198.15 Z M 178.14 198.42 L 179.09 198.68 C 180.01 198.93 180.96 198.39 181.21 197.47 C 181.46 196.55 180.92 195.60 180.00 195.35 L 179.05 195.09 C 178.13 194.84 177.18 195.38 176.93 196.30 C 176.68 197.22 177.22 198.17 178.14 198.42 Z M 179.11 198.68 L 180.07 198.93 C 180.98 199.18 181.93 198.63 182.17 197.71 C 182.41 196.79 181.87 195.85 180.95 195.60 L 179.99 195.35 C 179.07 195.11 178.13 195.65 177.88 196.57 C 177.64 197.49 178.19 198.43 179.11 198.68 Z M 180.08 198.93 L 181.05 199.18 C 181.96 199.42 182.90 198.86 183.14 197.95 C 183.37 197.03 182.82 196.10 181.91 195.86 L 180.94 195.61 C 180.02 195.37 179.08 195.92 178.85 196.84 C 178.61 197.76 179.16 198.69 180.08 198.93 Z M 181.05 199.17 L 182.03 199.42 C 182.95 199.66 183.88 199.10 184.11 198.19 C 184.34 197.27 183.79 196.35 182.88 196.11 L 181.90 195.86 C 180.98 195.63 180.05 196.18 179.82 197.10 C 179.59 198.01 180.14 198.94 181.05 199.17 Z M 182.04 199.42 L 183.03 199.67 C 183.94 199.90 184.86 199.35 185.09 198.44 C 185.32 197.52 184.77 196.60 183.86 196.37 L 182.87 196.12 C 181.96 195.89 181.04 196.44 180.80 197.35 C 180.57 198.26 181.13 199.19 182.04 199.42 Z M 183.03 199.66 L 184.02 199.91 C 184.93 200.14 185.85 199.59 186.08 198.68 C 186.31 197.78 185.76 196.86 184.85 196.63 L 183.86 196.38 C 182.95 196.15 182.03 196.70 181.80 197.60 C 181.57 198.51 182.12 199.43 183.03 199.66 Z M 184.03 199.90 L 185.02 200.15 C 185.93 200.38 186.84 199.83 187.07 198.93 C 187.30 198.03 186.75 197.11 185.85 196.89 L 184.85 196.63 C 183.95 196.41 183.03 196.96 182.80 197.86 C 182.58 198.76 183.12 199.68 184.03 199.90 Z M 185.03 200.15 L 186.03 200.39 C 186.92 200.61 187.83 200.07 188.06 199.17 C 188.28 198.27 187.73 197.36 186.83 197.14 L 185.84 196.89 C 184.94 196.67 184.03 197.22 183.81 198.12 C 183.59 199.02 184.14 199.92 185.03 200.15 Z M 186.04 200.39 L 187.02 200.62 C 187.91 200.84 188.81 200.29 189.03 199.39 C 189.24 198.50 188.69 197.60 187.80 197.38 L 186.82 197.15 C 185.92 196.93 185.02 197.48 184.81 198.38 C 184.59 199.27 185.14 200.17 186.04 200.39 Z M 187.04 200.62 L 188.00 200.84 C 188.89 201.04 189.78 200.49 189.98 199.59 C 190.19 198.70 189.63 197.81 188.74 197.61 L 187.78 197.39 C 186.89 197.18 186.00 197.74 185.79 198.63 C 185.59 199.52 186.15 200.41 187.04 200.62 Z M 188.02 200.83 L 188.95 201.03 C 189.84 201.23 190.71 200.66 190.91 199.77 C 191.10 198.89 190.54 198.01 189.65 197.82 L 188.72 197.61 C 187.83 197.42 186.95 197.98 186.76 198.87 C 186.57 199.76 187.13 200.64 188.02 200.83 Z M 188.98 201.03 L 190.01 201.23 C 190.90 201.41 191.76 200.83 191.93 199.95 C 192.11 199.06 191.53 198.20 190.65 198.02 L 189.62 197.82 C 188.73 197.64 187.87 198.22 187.69 199.11 C 187.52 199.99 188.09 200.85 188.98 201.03 Z M 190.04 201.23 L 191.07 201.41 C 191.95 201.57 192.79 200.98 192.95 200.09 C 193.11 199.21 192.52 198.37 191.64 198.21 L 190.61 198.03 C 189.73 197.87 188.88 198.46 188.73 199.34 C 188.57 200.23 189.16 201.07 190.04 201.23 Z M 191.10 201.40 L 192.08 201.56 C 192.96 201.70 193.79 201.10 193.93 200.22 C 194.07 199.34 193.47 198.51 192.59 198.37 L 191.60 198.22 C 190.72 198.08 189.90 198.68 189.76 199.56 C 189.62 200.44 190.22 201.26 191.10 201.40 Z M 192.11 201.55 L 193.07 201.69 C 193.94 201.82 194.75 201.21 194.88 200.33 C 195.00 199.46 194.40 198.64 193.52 198.52 L 192.56 198.38 C 191.69 198.26 190.88 198.86 190.75 199.74 C 190.63 200.62 191.23 201.43 192.11 201.55 Z M 193.08 201.68 L 194.02 201.81 C 194.89 201.92 195.69 201.31 195.81 200.44 C 195.92 199.57 195.31 198.77 194.44 198.65 L 193.50 198.53 C 192.63 198.41 191.83 199.03 191.72 199.90 C 191.60 200.77 192.21 201.57 193.08 201.68 Z M 194.03 201.79 L 195.01 201.92 C 195.87 202.03 196.66 201.41 196.77 200.55 C 196.88 199.68 196.26 198.89 195.40 198.78 L 194.43 198.66 C 193.56 198.55 192.77 199.17 192.66 200.03 C 192.56 200.90 193.17 201.69 194.03 201.79 Z M 195.02 201.91 L 196.00 202.02 C 196.86 202.13 197.64 201.51 197.74 200.65 C 197.85 199.79 197.23 199.01 196.37 198.91 L 195.39 198.80 C 194.53 198.69 193.75 199.31 193.65 200.17 C 193.55 201.02 194.16 201.80 195.02 201.91 Z M 196.02 202.01 L 197.01 202.12 C 197.86 202.22 198.63 201.60 198.72 200.75 C 198.82 199.89 198.20 199.13 197.35 199.03 L 196.36 198.92 C 195.51 198.83 194.74 199.44 194.65 200.30 C 194.55 201.15 195.17 201.92 196.02 202.01 Z M 197.02 202.11 L 198.02 202.21 C 198.87 202.30 199.62 201.68 199.71 200.83 C 199.79 199.98 199.18 199.23 198.33 199.14 L 197.33 199.04 C 196.49 198.96 195.73 199.58 195.65 200.42 C 195.56 201.27 196.18 202.03 197.02 202.11 Z M 198.04 202.20 L 199.05 202.29 C 199.89 202.36 200.63 201.74 200.71 200.90 C 200.78 200.06 200.16 199.32 199.32 199.24 L 198.31 199.15 C 197.47 199.08 196.73 199.70 196.65 200.54 C 196.58 201.38 197.20 202.12 198.04 202.20 Z M 199.07 202.28 L 200.04 202.35 C 200.88 202.42 201.61 201.79 201.67 200.96 C 201.73 200.12 201.11 199.39 200.27 199.33 L 199.30 199.25 C 198.46 199.19 197.73 199.82 197.67 200.65 C 197.61 201.49 198.23 202.22 199.07 202.28 Z M 200.06 202.35 L 201.04 202.41 C 201.88 202.46 202.59 201.83 202.65 201.00 C 202.70 200.17 202.07 199.45 201.24 199.40 L 200.25 199.34 C 199.42 199.28 198.70 199.91 198.65 200.74 C 198.60 201.57 199.23 202.29 200.06 202.35 Z M 201.06 202.40 L 202.06 202.45 C 202.89 202.50 203.59 201.86 203.64 201.04 C 203.68 200.21 203.05 199.50 202.22 199.46 L 201.22 199.41 C 200.39 199.36 199.69 200.00 199.64 200.82 C 199.60 201.65 200.24 202.36 201.06 202.40 Z M 202.08 202.45 L 203.09 202.49 C 203.91 202.52 204.61 201.88 204.64 201.06 C 204.68 200.24 204.04 199.55 203.22 199.51 L 202.20 199.47 C 201.38 199.43 200.69 200.07 200.65 200.89 C 200.62 201.72 201.26 202.41 202.08 202.45 Z M 203.11 202.48 L 204.13 202.51 C 204.95 202.54 205.63 201.90 205.66 201.08 C 205.68 200.26 205.04 199.58 204.22 199.55 L 203.20 199.52 C 202.38 199.49 201.70 200.14 201.67 200.95 C 201.65 201.77 202.29 202.45 203.11 202.48 Z M 204.14 202.51 L 205.11 202.53 C 205.93 202.54 206.60 201.90 206.62 201.08 C 206.64 200.27 205.99 199.60 205.18 199.58 L 204.21 199.56 C 203.39 199.54 202.72 200.19 202.70 201.00 C 202.68 201.81 203.33 202.49 204.14 202.51 Z M 205.13 202.52 L 206.11 202.54 C 206.92 202.55 207.58 201.90 207.59 201.09 C 207.61 200.27 206.96 199.61 206.14 199.60 L 205.17 199.58 C 204.35 199.57 203.69 200.22 203.68 201.03 C 203.67 201.84 204.31 202.51 205.13 202.52 Z M 206.11 202.53 L 207.11 202.54 C 207.92 202.54 208.58 201.89 208.58 201.08 C 208.59 200.27 207.94 199.61 207.13 199.61 L 206.14 199.60 C 205.33 199.60 204.67 200.25 204.66 201.06 C 204.65 201.86 205.31 202.52 206.11 202.53 Z M 207.11 202.53 L 208.12 202.54 C 208.93 202.54 209.59 201.89 209.59 201.08 C 209.59 200.27 208.94 199.62 208.13 199.62 L 207.12 199.61 C 206.32 199.61 205.66 200.26 205.66 201.07 C 205.66 201.88 206.31 202.53 207.11 202.53 Z M 208.13 202.53 L 209.16 202.53 C 209.96 202.53 210.61 201.88 210.61 201.08 C 210.61 200.27 209.96 199.62 209.16 199.62 L 208.13 199.62 C 207.33 199.62 206.67 200.27 206.67 201.08 C 206.67 201.88 207.32 202.53 208.13 202.53 Z M 209.16 202.53 L 210.16 202.53 C 210.96 202.53 211.61 201.88 211.61 201.08 C 211.61 200.28 210.96 199.62 210.16 199.62 L 209.16 199.62 C 208.36 199.62 207.71 200.28 207.71 201.08 C 207.71 201.88 208.36 202.53 209.16 202.53 Z M 210.16 202.53 L 211.14 202.53 C 211.94 202.53 212.59 201.88 212.59 201.08 C 212.59 200.28 211.94 199.63 211.14 199.63 L 210.16 199.63 C 209.36 199.63 208.71 200.28 208.71 201.08 C 208.71 201.88 209.36 202.53 210.16 202.53 Z M 211.14 202.53 L 212.13 202.53 C 212.94 202.53 213.58 201.88 213.58 201.08 C 213.58 200.28 212.94 199.63 212.13 199.63 L 211.14 199.63 C 210.34 199.63 209.69 200.28 209.69 201.08 C 209.69 201.88 210.34 202.53 211.14 202.53 Z M 212.13 202.53 L 213.14 202.53 C 213.94 202.53 214.59 201.88 214.59 201.08 C 214.59 200.28 213.94 199.63 213.14 199.63 L 212.13 199.63 C 211.33 199.63 210.68 200.28 210.68 201.08 C 210.68 201.88 211.33 202.53 212.13 202.53 Z M 213.14 202.53 L 214.15 202.53 C 214.96 202.53 215.60 201.88 215.60 201.08 C 215.60 200.28 214.96 199.63 214.15 199.63 L 213.14 199.63 C 212.34 199.63 211.69 200.28 211.69 201.08 C 211.69 201.88 212.34 202.53 213.14 202.53 Z M 214.15 202.53 L 215.17 202.53 C 215.97 202.53 216.62 201.88 216.62 201.08 C 216.62 200.28 215.97 199.63 215.17 199.63 L 214.15 199.63 C 213.35 199.63 212.70 200.28 212.70 201.08 C 212.70 201.88 213.35 202.53 214.15 202.53 Z M 215.17 202.53 L 215.41 202.53 C 216.21 202.53 216.86 201.88 216.86 201.08 C 216.86 200.28 216.21 199.63 215.41 199.63 L 215.17 199.63 C 214.37 199.63 213.72 200.28 213.72 201.08 C 213.72 201.88 214.37 202.53 215.17 202.53 Z"
      fill="black"
      fill-rule="nonzero" /></svg>