<svg xmlns="http://www.w3.org/2000/svg" width="300" height="300" viewBox="0 0 300 300">
<path d="M 118.24 133.00 L 117.13 132.32 C 116.35 131.84 115.34 132.08 114.87 132.86 C 114.39 133.63 114.64 134.64 115.41 135.12 L 116.52 135.80 C 117.30 136.28 118.31 136.04 118.79 135.26 C 119.26 134.49 119.02 133.48 118.24 133.00 Z M 117.18 132.34 L 116.22 131.70 C 115.46 131.19 114.43 131.40 113.93 132.16 C 113.42 132.92 113.63 133.94 114.39 134.45 L 115.35 135.09 C 116.11 135.60 117.14 135.39 117.64 134.63 C 118.15 133.87 117.94 132.85 117.18 132.34 Z M 116.37 131.80 L 115.70 131.24 C 115.00 130.65 113.95 130.74 113.36 131.44 C 112.77 132.14 112.86 133.19 113.56 133.78 L 114.23 134.34 C 114.93 134.93 115.98 134.84 116.57 134.14 C 117.16 133.44 117.07 132.39 116.37 131.80 Z M 116.14 131.79 L 115.91 131.33 C 115.52 130.50 114.52 130.14 113.69 130.54 C 112.86 130.94 112.51 131.93 112.91 132.76 L 113.13 133.23 C 113.52 134.06 114.52 134.41 115.35 134.01 C 116.18 133.62 116.53 132.62 116.14 131.79 Z M 115.40 133.39 L 115.90 133.01 C 116.64 132.47 116.80 131.43 116.26 130.69 C 115.71 129.95 114.67 129.79 113.93 130.33 L 113.42 130.70 C 112.68 131.25 112.52 132.29 113.07 133.03 C 113.62 133.77 114.66 133.93 115.40 133.39 Z M 115.24 133.29 L 116.33 133.08 C 117.22 132.90 117.80 132.02 117.62 131.13 C 117.44 130.23 116.57 129.65 115.67 129.83 L 114.59 130.05 C 113.69 130.23 113.11 131.10 113.29 132.00 C 113.47 132.90 114.35 133.48 115.24 133.29 Z M 116.20 133.09 L 117.42 132.93 C 118.32 132.82 118.96 132.00 118.85 131.10 C 118.73 130.20 117.91 129.56 117.01 129.67 L 115.80 129.82 C 114.90 129.94 114.26 130.76 114.37 131.66 C 114.48 132.56 115.30 133.20 116.20 133.09 Z M 117.43 132.92 L 118.40 132.79 C 119.29 132.68 119.92 131.86 119.81 130.97 C 119.69 130.08 118.87 129.45 117.98 129.56 L 117.01 129.69 C 116.12 129.81 115.49 130.62 115.60 131.51 C 115.72 132.40 116.53 133.03 117.43 132.92 Z M 118.42 132.77 L 119.40 132.63 C 120.28 132.51 120.89 131.70 120.77 130.82 C 120.64 129.93 119.83 129.32 118.95 129.45 L 117.97 129.58 C 117.09 129.71 116.47 130.52 116.60 131.40 C 116.72 132.28 117.54 132.90 118.42 132.77 Z M 119.41 132.61 L 120.41 132.46 C 121.28 132.33 121.87 131.52 121.74 130.65 C 121.61 129.78 120.80 129.18 119.93 129.31 L 118.93 129.47 C 118.06 129.60 117.46 130.41 117.60 131.28 C 117.73 132.15 118.54 132.75 119.41 132.61 Z M 120.42 132.44 L 121.41 132.28 C 122.26 132.14 122.85 131.33 122.71 130.48 C 122.57 129.62 121.76 129.03 120.90 129.17 L 119.91 129.33 C 119.06 129.47 118.47 130.28 118.61 131.14 C 118.75 132.00 119.56 132.58 120.42 132.44 Z M 121.42 132.27 L 122.36 132.10 C 123.21 131.96 123.79 131.15 123.64 130.30 C 123.49 129.45 122.69 128.88 121.84 129.03 L 120.89 129.19 C 120.04 129.33 119.47 130.14 119.61 130.99 C 119.76 131.84 120.57 132.41 121.42 132.27 Z M 122.38 132.09 L 123.35 131.91 C 124.19 131.76 124.75 130.96 124.60 130.11 C 124.45 129.27 123.64 128.71 122.80 128.86 L 121.82 129.04 C 120.98 129.19 120.42 130.00 120.57 130.84 C 120.73 131.68 121.53 132.24 122.38 132.09 Z M 123.36 131.90 L 124.37 131.71 C 125.20 131.55 125.75 130.75 125.59 129.91 C 125.43 129.08 124.63 128.53 123.80 128.69 L 122.79 128.88 C 121.96 129.04 121.41 129.84 121.57 130.68 C 121.72 131.51 122.53 132.06 123.36 131.90 Z M 124.38 131.70 L 125.41 131.49 C 126.23 131.33 126.77 130.53 126.61 129.70 C 126.44 128.87 125.64 128.33 124.81 128.50 L 123.78 128.70 C 122.96 128.87 122.42 129.67 122.58 130.50 C 122.75 131.32 123.55 131.86 124.38 131.70 Z M 125.42 131.48 L 126.33 131.29 C 127.15 131.12 127.68 130.32 127.51 129.50 C 127.34 128.68 126.54 128.15 125.72 128.32 L 124.80 128.51 C 123.98 128.68 123.46 129.48 123.63 130.30 C 123.79 131.12 124.60 131.65 125.42 131.48 Z M 126.34 131.28 L 127.28 131.08 C 128.09 130.90 128.61 130.10 128.43 129.29 C 128.26 128.48 127.46 127.96 126.65 128.13 L 125.71 128.33 C 124.90 128.51 124.38 129.31 124.55 130.12 C 124.73 130.93 125.53 131.45 126.34 131.28 Z M 127.29 131.06 L 128.26 130.85 C 129.06 130.67 129.57 129.87 129.39 129.06 C 129.21 128.26 128.41 127.75 127.60 127.93 L 126.64 128.15 C 125.83 128.33 125.32 129.12 125.50 129.93 C 125.68 130.74 126.48 131.24 127.29 131.06 Z M 128.26 130.83 L 129.27 130.60 C 130.07 130.42 130.57 129.62 130.38 128.82 C 130.19 128.02 129.40 127.52 128.60 127.71 L 127.59 127.94 C 126.80 128.13 126.30 128.92 126.48 129.72 C 126.67 130.52 127.47 131.02 128.26 130.83 Z M 129.28 130.59 L 130.33 130.34 C 131.12 130.15 131.61 129.35 131.42 128.56 C 131.23 127.77 130.43 127.28 129.64 127.47 L 128.59 127.72 C 127.80 127.91 127.31 128.71 127.50 129.50 C 127.69 130.29 128.49 130.78 129.28 130.59 Z M 130.33 130.33 L 131.32 130.08 C 132.10 129.89 132.58 129.10 132.39 128.31 C 132.20 127.52 131.40 127.04 130.62 127.24 L 129.63 127.48 C 128.85 127.67 128.37 128.47 128.56 129.26 C 128.75 130.04 129.55 130.52 130.33 130.33 Z M 131.33 130.08 L 132.33 129.82 C 133.11 129.62 133.58 128.83 133.38 128.05 C 133.18 127.27 132.39 126.79 131.61 126.99 L 130.61 127.25 C 129.83 127.44 129.35 128.24 129.55 129.02 C 129.75 129.80 130.54 130.27 131.33 130.08 Z M 132.33 129.81 L 133.33 129.55 C 134.11 129.35 134.57 128.55 134.37 127.78 C 134.17 127.00 133.37 126.54 132.60 126.74 L 131.60 127.00 C 130.82 127.20 130.36 128.00 130.56 128.78 C 130.76 129.55 131.56 130.02 132.33 129.81 Z M 133.34 129.54 L 134.32 129.28 C 135.09 129.07 135.55 128.27 135.34 127.50 C 135.13 126.73 134.33 126.27 133.56 126.48 L 132.58 126.75 C 131.81 126.96 131.36 127.75 131.57 128.52 C 131.78 129.30 132.57 129.75 133.34 129.54 Z M 134.33 129.27 L 135.27 129.00 C 136.04 128.78 136.48 127.99 136.26 127.22 C 136.05 126.46 135.25 126.01 134.48 126.23 L 133.55 126.49 C 132.78 126.71 132.34 127.51 132.56 128.27 C 132.77 129.04 133.57 129.48 134.33 129.27 Z M 135.29 128.99 L 136.24 128.70 C 137.00 128.48 137.44 127.68 137.21 126.92 C 136.98 126.16 136.18 125.73 135.42 125.95 L 134.47 126.24 C 133.71 126.47 133.27 127.27 133.50 128.03 C 133.73 128.79 134.53 129.22 135.29 128.99 Z M 136.27 128.69 L 137.31 128.36 C 138.07 128.12 138.48 127.31 138.24 126.56 C 138.00 125.80 137.19 125.39 136.44 125.63 L 135.40 125.96 C 134.64 126.21 134.23 127.01 134.47 127.77 C 134.71 128.52 135.52 128.93 136.27 128.69 Z M 137.34 128.35 L 138.28 128.02 C 139.03 127.77 139.43 126.95 139.17 126.21 C 138.92 125.46 138.10 125.06 137.36 125.32 L 136.41 125.64 C 135.66 125.90 135.27 126.71 135.52 127.46 C 135.78 128.21 136.59 128.60 137.34 128.35 Z M 138.30 128.01 L 139.19 127.70 C 139.93 127.43 140.31 126.61 140.05 125.87 C 139.78 125.13 138.96 124.74 138.22 125.01 L 137.34 125.33 C 136.60 125.59 136.21 126.41 136.48 127.15 C 136.74 127.90 137.56 128.28 138.30 128.01 Z M 139.20 127.69 L 139.97 127.41 C 140.71 127.13 141.09 126.31 140.82 125.57 C 140.54 124.84 139.72 124.46 138.98 124.73 L 138.21 125.02 C 137.47 125.29 137.09 126.11 137.36 126.85 C 137.64 127.59 138.46 127.96 139.20 127.69 Z"
      fill="black"
      fill-rule="nonzero" /><path d="M 128.39 127.12 L 127.58 127.73 C 126.91 128.23 126.78 129.17 127.28 129.83 C 127.78 130.49 128.72 130.63 129.38 130.13 L 130.19 129.52 C 130.86 129.02 130.99 128.08 130.49 127.41 C 129.99 126.75 129.05 126.62 128.39 127.12 Z M 127.49 127.78 L 126.73 128.44 C 126.10 128.98 126.03 129.94 126.58 130.57 C 127.12 131.20 128.08 131.27 128.71 130.73 L 129.47 130.07 C 130.10 129.53 130.17 128.57 129.62 127.94 C 129.08 127.31 128.12 127.24 127.49 127.78 Z M 126.57 128.57 L 125.93 129.31 C 125.37 129.95 125.43 130.91 126.07 131.47 C 126.70 132.02 127.67 131.96 128.22 131.33 L 128.87 130.59 C 129.43 129.95 129.36 128.99 128.73 128.43 C 128.09 127.88 127.13 127.94 126.57 128.57 Z M 125.74 129.55 L 125.26 130.38 C 124.83 131.12 125.08 132.06 125.82 132.49 C 126.55 132.92 127.50 132.67 127.92 131.93 L 128.41 131.09 C 128.84 130.36 128.59 129.41 127.85 128.99 C 127.11 128.56 126.17 128.81 125.74 129.55 Z M 125.14 130.61 L 124.79 131.54 C 124.48 132.34 124.89 133.24 125.69 133.54 C 126.50 133.84 127.39 133.44 127.69 132.63 L 128.04 131.70 C 128.35 130.90 127.94 130.00 127.14 129.70 C 126.33 129.40 125.44 129.81 125.14 130.61 Z M 124.72 131.71 L 124.47 132.71 C 124.27 133.55 124.78 134.40 125.62 134.60 C 126.46 134.81 127.31 134.30 127.52 133.46 L 127.76 132.46 C 127.97 131.62 127.46 130.77 126.62 130.57 C 125.78 130.36 124.93 130.87 124.72 131.71 Z M 124.44 132.82 L 124.29 133.70 C 124.15 134.56 124.73 135.37 125.58 135.52 C 126.44 135.66 127.25 135.08 127.40 134.23 L 127.55 133.35 C 127.69 132.49 127.12 131.67 126.26 131.53 C 125.40 131.38 124.59 131.96 124.44 132.82 Z M 124.28 133.79 L 124.17 134.70 C 124.08 135.56 124.70 136.34 125.57 136.44 C 126.43 136.54 127.22 135.92 127.31 135.05 L 127.42 134.14 C 127.51 133.27 126.89 132.49 126.02 132.39 C 125.16 132.30 124.37 132.92 124.28 133.79 Z M 124.16 134.76 L 124.09 135.79 C 124.04 136.66 124.69 137.41 125.57 137.47 C 126.44 137.53 127.19 136.87 127.25 136.00 L 127.32 134.98 C 127.38 134.11 126.72 133.35 125.85 133.29 C 124.98 133.23 124.22 133.89 124.16 134.76 Z M 124.09 135.83 L 124.05 137.00 C 124.01 137.88 124.70 138.61 125.57 138.65 C 126.44 138.68 127.18 138.00 127.21 137.12 L 127.26 135.95 C 127.29 135.08 126.61 134.34 125.73 134.31 C 124.86 134.28 124.12 134.96 124.09 135.83 Z M 124.04 137.03 L 124.02 137.93 C 124.01 138.81 124.70 139.53 125.58 139.55 C 126.45 139.57 127.18 138.87 127.20 138.00 L 127.22 137.10 C 127.23 136.22 126.54 135.49 125.66 135.47 C 124.79 135.46 124.06 136.15 124.04 137.03 Z M 124.02 137.94 L 124.01 138.92 C 124.00 139.79 124.70 140.51 125.58 140.53 C 126.45 140.54 127.17 139.83 127.19 138.96 L 127.20 137.98 C 127.21 137.11 126.51 136.39 125.63 136.38 C 124.75 136.37 124.03 137.07 124.02 137.94 Z M 124.01 138.93 L 124.00 139.95 C 124.00 140.82 124.70 141.54 125.58 141.55 C 126.46 141.55 127.17 140.85 127.18 139.97 L 127.19 138.95 C 127.19 138.07 126.49 137.36 125.61 137.35 C 124.73 137.34 124.02 138.05 124.01 138.93 Z M 124.00 139.95 L 124.00 141.00 C 124.00 141.88 124.71 142.59 125.58 142.59 C 126.46 142.60 127.17 141.89 127.18 141.01 L 127.18 139.96 C 127.18 139.09 126.47 138.37 125.60 138.37 C 124.72 138.37 124.00 139.08 124.00 139.95 Z M 124.00 141.00 L 124.00 142.05 C 124.00 142.93 124.71 143.64 125.59 143.64 C 126.46 143.64 127.18 142.93 127.18 142.05 L 127.18 141.01 C 127.18 140.13 126.47 139.42 125.59 139.41 C 124.71 139.41 124.00 140.12 124.00 141.00 Z M 124.00 142.05 L 124.00 143.05 C 124.00 143.93 124.71 144.64 125.59 144.64 C 126.46 144.64 127.18 143.93 127.18 143.05 L 127.18 142.05 C 127.18 141.17 126.46 140.46 125.59 140.46 C 124.71 140.46 124.00 141.17 124.00 142.05 Z M 124.00 143.05 L 124.00 144.01 C 124.00 144.89 124.71 145.60 125.59 145.60 C 126.47 145.60 127.18 144.88 127.18 144.01 L 127.18 143.05 C 127.18 142.18 126.46 141.46 125.59 141.46 C 124.71 141.46 124.00 142.18 124.00 143.05 Z M 124.00 144.01 L 124.00 144.96 C 124.00 145.84 124.71 146.55 125.59 146.55 C 126.47 146.54 127.18 145.83 127.18 144.95 L 127.18 144.00 C 127.18 143.13 126.46 142.42 125.58 142.42 C 124.71 142.42 124.00 143.13 124.00 144.01 Z M 124.00 144.96 L 124.00 145.93 C 124.00 146.81 124.72 147.52 125.60 147.51 C 126.47 147.51 127.18 146.80 127.18 145.92 L 127.18 144.95 C 127.17 144.07 126.46 143.36 125.58 143.37 C 124.71 143.37 124.00 144.08 124.00 144.96 Z M 124.00 145.93 L 124.01 146.94 C 124.01 147.82 124.73 148.52 125.60 148.52 C 126.48 148.52 127.19 147.80 127.18 146.92 L 127.18 145.92 C 127.18 145.04 126.46 144.33 125.58 144.33 C 124.71 144.34 124.00 145.05 124.00 145.93 Z M 124.01 146.94 L 124.01 148.01 C 124.02 148.89 124.74 149.60 125.61 149.59 C 126.49 149.58 127.20 148.87 127.19 147.99 L 127.18 146.92 C 127.18 146.04 126.46 145.34 125.58 145.34 C 124.71 145.35 124.00 146.07 124.01 146.94 Z M 124.02 148.02 L 124.03 149.05 C 124.03 149.93 124.75 150.63 125.63 150.62 C 126.51 150.61 127.21 149.90 127.20 149.02 L 127.19 147.99 C 127.18 147.11 126.47 146.40 125.59 146.41 C 124.71 146.42 124.01 147.14 124.02 148.02 Z M 124.03 149.05 L 124.04 150.02 C 124.05 150.90 124.77 151.60 125.64 151.59 C 126.52 151.58 127.22 150.86 127.21 149.99 L 127.20 149.02 C 127.19 148.14 126.47 147.44 125.60 147.45 C 124.72 147.46 124.02 148.18 124.03 149.05 Z M 124.04 150.02 L 124.05 151.03 C 124.06 151.91 124.78 152.61 125.66 152.60 C 126.53 152.59 127.23 151.87 127.22 150.99 L 127.21 149.99 C 127.20 149.11 126.48 148.41 125.60 148.42 C 124.73 148.43 124.03 149.15 124.04 150.02 Z M 124.05 151.03 L 124.07 152.06 C 124.08 152.94 124.80 153.64 125.67 153.63 C 126.54 153.61 127.24 152.90 127.23 152.02 L 127.22 150.99 C 127.21 150.12 126.49 149.42 125.62 149.43 C 124.74 149.44 124.04 150.16 124.05 151.03 Z M 124.07 152.06 L 124.08 153.10 C 124.09 153.97 124.81 154.67 125.68 154.66 C 126.56 154.65 127.26 153.93 127.24 153.06 L 127.23 152.02 C 127.22 151.15 126.50 150.45 125.63 150.46 C 124.76 150.47 124.06 151.19 124.07 152.06 Z M 124.08 153.10 L 124.10 154.12 C 124.11 154.99 124.82 155.69 125.70 155.68 C 126.57 155.67 127.27 154.96 127.26 154.08 L 127.24 153.06 C 127.23 152.18 126.52 151.49 125.64 151.50 C 124.77 151.51 124.07 152.22 124.08 153.10 Z M 124.10 154.12 L 124.11 155.12 C 124.12 155.99 124.83 156.69 125.71 156.68 C 126.58 156.67 127.28 155.96 127.27 155.08 L 127.25 154.08 C 127.24 153.21 126.53 152.51 125.66 152.52 C 124.79 152.53 124.09 153.25 124.10 154.12 Z M 124.11 155.12 L 124.12 156.09 C 124.13 156.96 124.84 157.66 125.71 157.65 C 126.58 157.64 127.28 156.92 127.27 156.05 L 127.26 155.09 C 127.26 154.22 126.54 153.52 125.67 153.53 C 124.80 153.53 124.10 154.25 124.11 155.12 Z M 124.13 156.08 L 124.13 157.10 C 124.14 157.97 124.85 158.67 125.72 158.66 C 126.59 158.65 127.29 157.94 127.28 157.08 L 127.27 156.06 C 127.26 155.19 126.55 154.49 125.68 154.50 C 124.82 154.51 124.12 155.21 124.13 156.08 Z M 124.14 157.10 L 124.15 158.07 C 124.15 158.94 124.86 159.63 125.72 159.63 C 126.59 159.62 127.28 158.92 127.28 158.05 L 127.27 157.08 C 127.27 156.21 126.56 155.52 125.70 155.52 C 124.83 155.53 124.14 156.23 124.14 157.10 Z M 124.15 158.07 L 124.16 159.02 C 124.16 159.88 124.86 160.58 125.72 160.58 C 126.58 160.57 127.28 159.87 127.27 159.01 L 127.27 158.06 C 127.27 157.20 126.57 156.50 125.71 156.50 C 124.85 156.51 124.15 157.21 124.15 158.07 Z M 124.16 159.02 L 124.17 159.98 C 124.17 160.84 124.86 161.53 125.72 161.53 C 126.58 161.53 127.27 160.83 127.27 159.98 L 127.27 159.01 C 127.26 158.16 126.57 157.47 125.71 157.47 C 124.86 157.47 124.16 158.17 124.16 159.02 Z M 124.17 159.98 L 124.17 160.97 C 124.18 161.82 124.87 162.51 125.72 162.51 C 126.57 162.51 127.26 161.82 127.26 160.97 L 127.26 159.98 C 127.26 159.12 126.57 158.43 125.72 158.44 C 124.86 158.44 124.17 159.13 124.17 159.98 Z M 124.18 160.97 L 124.18 162.01 C 124.18 162.86 124.87 163.55 125.72 163.55 C 126.57 163.55 127.26 162.86 127.26 162.01 L 127.26 160.97 C 127.25 160.12 126.57 159.43 125.72 159.43 C 124.87 159.43 124.18 160.12 124.18 160.97 Z M 124.19 162.01 L 124.19 163.04 C 124.19 163.89 124.87 164.57 125.72 164.57 C 126.56 164.57 127.25 163.89 127.25 163.04 L 127.25 162.01 C 127.25 161.17 126.56 160.48 125.72 160.48 C 124.87 160.48 124.19 161.17 124.19 162.01 Z M 124.20 163.04 L 124.20 164.03 C 124.20 164.87 124.88 165.55 125.72 165.55 C 126.56 165.55 127.24 164.87 127.24 164.03 L 127.24 163.04 C 127.24 162.20 126.56 161.52 125.72 161.52 C 124.88 161.52 124.20 162.20 124.20 163.04 Z M 124.20 164.03 L 124.20 165.06 C 124.20 165.89 124.88 166.57 125.72 166.57 C 126.56 166.57 127.24 165.89 127.24 165.06 L 127.24 164.03 C 127.24 163.19 126.56 162.51 125.72 162.51 C 124.88 162.51 124.20 163.19 124.20 164.03 Z M 124.21 165.06 L 124.21 166.10 C 124.21 166.94 124.88 167.61 125.72 167.61 C 126.55 167.61 127.23 166.94 127.23 166.10 L 127.23 165.06 C 127.23 164.22 126.55 163.55 125.72 163.55 C 124.88 163.55 124.21 164.22 124.21 165.06 Z M 124.21 166.10 L 124.21 167.15 C 124.21 167.98 124.89 168.65 125.72 168.65 C 126.55 168.65 127.22 167.98 127.22 167.15 L 127.22 166.10 C 127.22 165.27 126.55 164.60 125.72 164.60 C 124.89 164.60 124.21 165.27 124.21 166.10 Z M 124.22 167.15 L 124.22 168.18 C 124.22 169.00 124.89 169.67 125.72 169.67 C 126.55 169.67 127.22 169.00 127.22 168.18 L 127.22 167.15 C 127.22 166.32 126.55 165.65 125.72 165.65 C 124.89 165.65 124.22 166.32 124.22 167.15 Z M 124.23 168.18 L 124.23 169.17 C 124.23 169.99 124.89 170.66 125.72 170.66 C 126.54 170.66 127.21 169.99 127.21 169.17 L 127.21 168.18 C 127.21 167.35 126.54 166.68 125.72 166.68 C 124.89 166.68 124.23 167.35 124.23 168.18 Z M 124.23 169.17 L 124.23 170.11 C 124.23 170.93 124.90 171.60 125.72 171.60 C 126.54 171.60 127.21 170.93 127.21 170.11 L 127.21 169.17 C 127.21 168.35 126.54 167.68 125.72 167.68 C 124.90 167.68 124.23 168.35 124.23 169.17 Z M 124.24 170.11 L 124.24 171.21 C 124.24 172.03 124.90 172.69 125.72 172.69 C 126.54 172.69 127.20 172.03 127.20 171.21 L 127.20 170.11 C 127.20 169.29 126.54 168.63 125.72 168.63 C 124.90 168.63 124.24 169.29 124.24 170.11 Z M 124.25 171.21 L 124.25 172.36 C 124.25 173.17 124.91 173.83 125.72 173.83 C 126.53 173.83 127.19 173.17 127.19 172.36 L 127.19 171.21 C 127.19 170.40 126.53 169.74 125.72 169.74 C 124.91 169.74 124.25 170.40 124.25 171.21 Z M 124.26 172.36 L 124.26 173.38 C 124.26 174.18 124.91 174.83 125.72 174.83 C 126.52 174.83 127.18 174.18 127.18 173.38 L 127.18 172.36 C 127.18 171.55 126.52 170.90 125.72 170.90 C 124.91 170.90 124.26 171.55 124.26 172.36 Z M 124.27 173.38 L 124.27 174.30 C 124.27 175.11 124.92 175.75 125.72 175.75 C 126.52 175.75 127.17 175.11 127.17 174.30 L 127.17 173.38 C 127.17 172.57 126.52 171.93 125.72 171.93 C 124.92 171.93 124.27 172.57 124.27 173.38 Z M 124.28 174.30 L 124.28 175.18 C 124.28 175.97 124.92 176.62 125.72 176.62 C 126.51 176.62 127.16 175.97 127.16 175.18 L 127.16 174.30 C 127.16 173.51 126.51 172.87 125.72 172.87 C 124.92 172.87 124.28 173.51 124.28 174.30 Z M 124.29 175.18 L 124.29 175.81 C 124.29 176.60 124.93 177.24 125.72 177.24 C 126.51 177.24 127.15 176.60 127.15 175.81 L 127.15 175.18 C 127.15 174.39 126.51 173.75 125.72 173.75 C 124.93 173.75 124.29 174.39 124.29 175.18 Z"
      fill="black"
      fill-rule="nonzero" /><path d="M 109.74 187.49 L 109.02 186.80 C 108.38 186.20 107.38 186.23 106.77 186.86 C 106.17 187.50 106.20 188.50 106.83 189.10 L 107.56 189.79 C 108.20 190.39 109.20 190.37 109.80 189.73 C 110.41 189.10 110.38 188.09 109.74 187.49 Z M 109.02 186.78 L 108.29 186.09 C 107.65 185.48 106.63 185.52 106.02 186.17 C 105.41 186.81 105.45 187.83 106.09 188.44 L 106.82 189.13 C 107.47 189.73 108.49 189.70 109.10 189.05 C 109.71 188.40 109.67 187.38 109.02 186.78 Z M 108.30 186.06 L 107.56 185.39 C 106.89 184.78 105.86 184.82 105.25 185.49 C 104.64 186.16 104.69 187.19 105.36 187.80 L 106.09 188.47 C 106.76 189.08 107.79 189.03 108.40 188.37 C 109.01 187.70 108.96 186.67 108.30 186.06 Z M 107.56 185.35 L 106.74 184.62 C 106.05 184.01 105.00 184.08 104.39 184.77 C 103.78 185.46 103.85 186.50 104.54 187.11 L 105.36 187.84 C 106.05 188.44 107.10 188.38 107.70 187.69 C 108.31 187.00 108.24 185.95 107.56 185.35 Z M 106.80 184.63 L 105.95 183.83 C 105.27 183.19 104.19 183.22 103.55 183.90 C 102.90 184.59 102.94 185.66 103.62 186.31 L 104.47 187.11 C 105.15 187.75 106.23 187.72 106.87 187.03 C 107.52 186.35 107.49 185.27 106.80 184.63 Z M 106.27 184.14 L 105.82 183.43 C 105.31 182.61 104.23 182.37 103.41 182.88 C 102.59 183.39 102.35 184.47 102.86 185.29 L 103.31 186.00 C 103.82 186.82 104.90 187.06 105.72 186.55 C 106.53 186.03 106.78 184.95 106.27 184.14 Z M 106.03 184.92 L 106.20 184.41 C 106.51 183.48 106.01 182.47 105.07 182.16 C 104.14 181.85 103.13 182.35 102.82 183.28 L 102.65 183.79 C 102.34 184.73 102.84 185.74 103.78 186.05 C 104.71 186.36 105.72 185.86 106.03 184.92 Z M 105.45 185.38 L 106.07 185.00 C 106.91 184.48 107.18 183.38 106.66 182.53 C 106.14 181.69 105.04 181.42 104.20 181.94 L 103.57 182.32 C 102.73 182.83 102.46 183.94 102.98 184.78 C 103.50 185.63 104.60 185.89 105.45 185.38 Z M 105.75 185.15 L 106.74 184.79 C 107.67 184.44 108.15 183.41 107.81 182.48 C 107.46 181.55 106.43 181.07 105.50 181.42 L 104.51 181.78 C 103.58 182.13 103.10 183.16 103.45 184.09 C 103.79 185.02 104.82 185.49 105.75 185.15 Z M 106.65 184.82 L 107.94 184.42 C 108.88 184.13 109.42 183.13 109.12 182.18 C 108.83 181.23 107.83 180.70 106.88 180.99 L 105.59 181.39 C 104.64 181.68 104.11 182.68 104.40 183.63 C 104.70 184.58 105.70 185.11 106.65 184.82 Z M 107.93 184.42 L 108.96 184.11 C 109.91 183.82 110.44 182.81 110.15 181.86 C 109.86 180.92 108.85 180.38 107.90 180.67 L 106.88 180.99 C 105.93 181.28 105.40 182.29 105.69 183.23 C 105.98 184.18 106.99 184.71 107.93 184.42 Z M 108.97 184.10 L 109.94 183.80 C 110.89 183.50 111.41 182.49 111.11 181.55 C 110.82 180.60 109.81 180.08 108.86 180.37 L 107.89 180.68 C 106.94 180.98 106.42 181.99 106.72 182.93 C 107.02 183.88 108.02 184.40 108.97 184.10 Z M 109.95 183.79 L 110.95 183.47 C 111.89 183.17 112.41 182.16 112.11 181.22 C 111.80 180.27 110.79 179.76 109.85 180.06 L 108.85 180.38 C 107.91 180.68 107.39 181.69 107.70 182.63 C 108.00 183.58 109.01 184.09 109.95 183.79 Z M 110.96 183.47 L 111.95 183.14 C 112.89 182.83 113.40 181.82 113.09 180.88 C 112.78 179.94 111.77 179.43 110.83 179.74 L 109.84 180.06 C 108.90 180.37 108.39 181.38 108.70 182.32 C 109.01 183.26 110.02 183.77 110.96 183.47 Z M 111.96 183.14 L 112.91 182.82 C 113.85 182.50 114.35 181.49 114.04 180.56 C 113.73 179.62 112.72 179.11 111.78 179.43 L 110.82 179.74 C 109.89 180.06 109.38 181.07 109.70 182.01 C 110.01 182.94 111.02 183.45 111.96 183.14 Z M 112.92 182.81 L 113.81 182.51 C 114.74 182.19 115.24 181.18 114.92 180.24 C 114.61 179.31 113.59 178.81 112.66 179.13 L 111.77 179.43 C 110.84 179.75 110.34 180.76 110.66 181.70 C 110.97 182.63 111.99 183.13 112.92 182.81 Z M 113.82 182.50 L 114.90 182.12 C 115.83 181.79 116.32 180.78 115.99 179.85 C 115.67 178.93 114.65 178.44 113.72 178.76 L 112.65 179.14 C 111.72 179.47 111.23 180.48 111.55 181.41 C 111.88 182.33 112.89 182.82 113.82 182.50 Z M 114.91 182.10 L 115.91 181.74 C 116.83 181.41 117.30 180.39 116.97 179.48 C 116.64 178.56 115.62 178.09 114.71 178.42 L 113.71 178.78 C 112.79 179.11 112.32 180.13 112.65 181.04 C 112.98 181.96 114.00 182.43 114.91 182.10 Z M 115.92 181.72 L 116.79 181.40 C 117.70 181.06 118.16 180.05 117.82 179.14 C 117.49 178.24 116.48 177.78 115.57 178.11 L 114.70 178.44 C 113.79 178.77 113.33 179.78 113.67 180.69 C 114.00 181.60 115.01 182.06 115.92 181.72 Z M 116.79 181.38 L 117.60 181.08 C 118.50 180.75 118.96 179.74 118.62 178.84 C 118.29 177.94 117.29 177.49 116.39 177.82 L 115.57 178.13 C 114.67 178.46 114.22 179.46 114.55 180.36 C 114.89 181.26 115.89 181.72 116.79 181.38 Z M 117.59 181.07 L 118.47 180.75 C 119.36 180.43 119.82 179.43 119.50 178.54 C 119.17 177.64 118.18 177.18 117.29 177.51 L 116.40 177.83 C 115.51 178.16 115.05 179.15 115.37 180.04 C 115.70 180.94 116.69 181.40 117.59 181.07 Z M 118.45 180.74 L 119.38 180.41 C 120.27 180.09 120.74 179.11 120.42 178.22 C 120.10 177.33 119.12 176.87 118.23 177.18 L 117.30 177.52 C 116.41 177.84 115.94 178.82 116.26 179.71 C 116.58 180.60 117.56 181.06 118.45 180.74 Z M 119.38 180.40 L 120.33 180.06 C 121.22 179.74 121.68 178.77 121.36 177.88 C 121.04 177.00 120.07 176.54 119.18 176.85 L 118.23 177.20 C 117.34 177.51 116.88 178.49 117.20 179.37 C 117.52 180.26 118.49 180.72 119.38 180.40 Z M 120.34 180.04 L 121.30 179.69 C 122.18 179.37 122.63 178.40 122.31 177.52 C 121.99 176.65 121.02 176.20 120.14 176.52 L 119.18 176.87 C 118.30 177.19 117.85 178.16 118.17 179.04 C 118.49 179.91 119.46 180.36 120.34 180.04 Z M 121.31 179.67 L 122.21 179.33 C 123.08 179.01 123.52 178.04 123.19 177.17 C 122.86 176.30 121.89 175.87 121.03 176.19 L 120.13 176.53 C 119.26 176.86 118.82 177.83 119.15 178.70 C 119.48 179.56 120.44 180.00 121.31 179.67 Z M 122.22 179.32 L 123.14 178.96 C 124.00 178.63 124.43 177.67 124.10 176.81 C 123.76 175.95 122.80 175.52 121.94 175.85 L 121.02 176.21 C 120.16 176.54 119.73 177.51 120.06 178.36 C 120.40 179.22 121.36 179.65 122.22 179.32 Z M 123.15 178.95 L 124.09 178.58 C 124.94 178.24 125.36 177.28 125.03 176.43 C 124.69 175.58 123.73 175.16 122.88 175.50 L 121.93 175.87 C 121.08 176.20 120.66 177.16 121.00 178.01 C 121.33 178.87 122.30 179.28 123.15 178.95 Z M 124.09 178.56 L 125.06 178.18 C 125.90 177.84 126.31 176.89 125.98 176.04 C 125.64 175.20 124.69 174.79 123.84 175.12 L 122.88 175.51 C 122.03 175.85 121.62 176.80 121.96 177.64 C 122.29 178.49 123.25 178.90 124.09 178.56 Z M 125.06 178.17 L 125.97 177.80 C 126.81 177.46 127.21 176.51 126.87 175.68 C 126.54 174.84 125.59 174.44 124.75 174.77 L 123.84 175.14 C 123.01 175.47 122.60 176.42 122.94 177.26 C 123.27 178.10 124.22 178.50 125.06 178.17 Z M 125.97 177.79 L 126.90 177.41 C 127.73 177.07 128.12 176.13 127.79 175.30 C 127.45 174.47 126.51 174.07 125.68 174.41 L 124.75 174.79 C 123.92 175.12 123.52 176.07 123.86 176.89 C 124.20 177.72 125.14 178.12 125.97 177.79 Z M 126.90 177.40 L 127.83 177.01 C 128.65 176.68 129.05 175.74 128.71 174.92 C 128.37 174.10 127.43 173.70 126.61 174.04 L 125.68 174.42 C 124.86 174.76 124.46 175.70 124.80 176.52 C 125.14 177.34 126.08 177.73 126.90 177.40 Z M 127.83 177.00 L 128.77 176.61 C 129.58 176.28 129.97 175.34 129.63 174.53 C 129.29 173.72 128.36 173.33 127.54 173.67 L 126.61 174.05 C 125.80 174.39 125.41 175.32 125.75 176.14 C 126.09 176.95 127.02 177.34 127.83 177.00 Z M 128.77 176.60 L 129.70 176.21 C 130.50 175.87 130.88 174.94 130.54 174.14 C 130.20 173.33 129.28 172.95 128.47 173.29 L 127.54 173.68 C 126.74 174.02 126.36 174.95 126.70 175.75 C 127.04 176.56 127.96 176.94 128.77 176.60 Z M 129.70 176.19 L 130.62 175.80 C 131.42 175.46 131.79 174.54 131.45 173.74 C 131.11 172.94 130.19 172.57 129.39 172.91 L 128.47 173.30 C 127.67 173.65 127.30 174.57 127.64 175.37 C 127.98 176.16 128.90 176.53 129.70 176.19 Z M 130.62 175.79 L 131.54 175.39 C 132.33 175.05 132.69 174.13 132.35 173.34 C 132.01 172.55 131.09 172.19 130.30 172.53 L 129.39 172.93 C 128.60 173.27 128.23 174.18 128.57 174.98 C 128.92 175.77 129.83 176.13 130.62 175.79 Z M 131.54 175.38 L 132.45 174.98 C 133.23 174.64 133.59 173.73 133.25 172.94 C 132.91 172.16 132.00 171.80 131.21 172.15 L 130.30 172.54 C 129.52 172.89 129.16 173.80 129.50 174.58 C 129.84 175.36 130.76 175.72 131.54 175.38 Z M 132.45 174.97 L 133.36 174.56 C 134.14 174.22 134.49 173.32 134.15 172.54 C 133.81 171.76 132.90 171.41 132.12 171.76 L 131.21 172.16 C 130.44 172.50 130.09 173.41 130.43 174.18 C 130.77 174.96 131.68 175.31 132.45 174.97 Z M 133.37 174.55 L 134.27 174.15 C 135.04 173.81 135.38 172.90 135.04 172.13 C 134.70 171.37 133.79 171.02 133.03 171.36 L 132.12 171.77 C 131.35 172.11 131.01 173.01 131.35 173.78 C 131.70 174.55 132.60 174.90 133.37 174.55 Z M 134.27 174.14 L 135.18 173.72 C 135.94 173.38 136.28 172.48 135.94 171.72 C 135.59 170.96 134.69 170.62 133.93 170.96 L 133.02 171.38 C 132.26 171.72 131.92 172.62 132.27 173.38 C 132.61 174.14 133.51 174.48 134.27 174.14 Z M 135.19 173.71 L 136.10 173.29 C 136.85 172.94 137.18 172.05 136.83 171.29 C 136.48 170.54 135.59 170.21 134.83 170.56 L 133.92 170.98 C 133.17 171.33 132.84 172.22 133.19 172.98 C 133.54 173.73 134.43 174.06 135.19 173.71 Z M 136.11 173.28 L 137.02 172.84 C 137.77 172.49 138.09 171.59 137.73 170.85 C 137.38 170.10 136.49 169.78 135.74 170.14 L 134.83 170.57 C 134.08 170.92 133.76 171.82 134.11 172.56 C 134.47 173.31 135.36 173.63 136.11 173.28 Z M 137.03 172.83 L 137.93 172.39 C 138.67 172.03 138.98 171.14 138.62 170.40 C 138.26 169.66 137.36 169.35 136.63 169.71 L 135.73 170.15 C 134.99 170.51 134.68 171.40 135.04 172.14 C 135.40 172.88 136.29 173.19 137.03 172.83 Z M 137.94 172.37 L 138.83 171.93 C 139.57 171.56 139.86 170.67 139.49 169.94 C 139.13 169.21 138.24 168.91 137.51 169.28 L 136.61 169.73 C 135.88 170.09 135.59 170.98 135.95 171.72 C 136.32 172.45 137.21 172.74 137.94 172.37 Z M 138.84 171.91 L 139.74 171.46 C 140.46 171.08 140.74 170.20 140.37 169.47 C 140.00 168.75 139.11 168.46 138.39 168.84 L 137.50 169.29 C 136.77 169.67 136.49 170.55 136.86 171.28 C 137.23 172.00 138.12 172.29 138.84 171.91 Z M 139.74 171.44 L 140.63 170.98 C 141.35 170.60 141.62 169.71 141.25 169.00 C 140.87 168.28 139.98 168.01 139.27 168.38 L 138.38 168.85 C 137.66 169.23 137.39 170.11 137.76 170.83 C 138.14 171.54 139.03 171.82 139.74 171.44 Z M 140.64 170.96 L 141.52 170.49 C 142.23 170.11 142.50 169.22 142.12 168.51 C 141.74 167.80 140.85 167.54 140.14 167.92 L 139.26 168.39 C 138.55 168.78 138.28 169.66 138.66 170.37 C 139.05 171.08 139.93 171.35 140.64 170.96 Z M 141.53 170.48 L 142.41 169.99 C 143.12 169.61 143.37 168.72 142.99 168.02 C 142.60 167.32 141.72 167.06 141.02 167.45 L 140.13 167.93 C 139.43 168.32 139.17 169.20 139.56 169.90 C 139.94 170.61 140.83 170.86 141.53 170.48 Z M 142.42 169.98 L 143.30 169.49 C 144.00 169.10 144.24 168.22 143.85 167.52 C 143.46 166.82 142.58 166.57 141.88 166.97 L 141.01 167.46 C 140.31 167.85 140.06 168.73 140.45 169.43 C 140.84 170.12 141.73 170.37 142.42 169.98 Z M 143.31 169.48 L 144.18 168.98 C 144.87 168.58 145.10 167.70 144.71 167.01 C 144.31 166.32 143.43 166.08 142.74 166.48 L 141.87 166.98 C 141.18 167.37 140.94 168.26 141.34 168.95 C 141.74 169.64 142.62 169.88 143.31 169.48 Z M 144.19 168.97 L 145.04 168.46 C 145.73 168.06 145.95 167.18 145.55 166.49 C 145.15 165.81 144.26 165.58 143.58 165.99 L 142.73 166.49 C 142.04 166.89 141.81 167.78 142.22 168.46 C 142.62 169.14 143.50 169.37 144.19 168.97 Z M 145.05 168.45 L 145.91 167.93 C 146.58 167.52 146.80 166.64 146.39 165.96 C 145.98 165.29 145.10 165.07 144.42 165.48 L 143.57 166.00 C 142.89 166.41 142.67 167.29 143.08 167.97 C 143.49 168.65 144.38 168.86 145.05 168.45 Z M 145.92 167.92 L 146.77 167.39 C 147.44 166.98 147.65 166.09 147.23 165.42 C 146.81 164.75 145.93 164.55 145.26 164.96 L 144.41 165.49 C 143.74 165.91 143.53 166.79 143.95 167.47 C 144.37 168.14 145.25 168.34 145.92 167.92 Z M 146.78 167.38 L 147.62 166.84 C 148.29 166.42 148.48 165.53 148.06 164.87 C 147.63 164.21 146.75 164.01 146.08 164.44 L 145.24 164.98 C 144.58 165.40 144.38 166.29 144.81 166.95 C 145.23 167.61 146.12 167.81 146.78 167.38 Z M 147.64 166.83 L 148.47 166.29 C 149.13 165.85 149.31 164.97 148.88 164.31 C 148.45 163.65 147.56 163.47 146.90 163.90 L 146.07 164.45 C 145.41 164.88 145.23 165.77 145.66 166.43 C 146.09 167.08 146.98 167.27 147.64 166.83 Z M 148.48 166.28 L 149.31 165.72 C 149.97 165.28 150.14 164.39 149.70 163.74 C 149.26 163.08 148.37 162.91 147.72 163.35 L 146.89 163.91 C 146.24 164.35 146.06 165.24 146.50 165.89 C 146.94 166.54 147.83 166.72 148.48 166.28 Z M 149.32 165.71 L 150.14 165.14 C 150.79 164.70 150.95 163.81 150.51 163.16 C 150.06 162.51 149.17 162.35 148.53 162.80 L 147.71 163.36 C 147.06 163.81 146.90 164.69 147.34 165.34 C 147.79 165.99 148.68 166.15 149.32 165.71 Z M 150.15 165.14 L 150.97 164.56 C 151.61 164.11 151.77 163.22 151.32 162.58 C 150.87 161.93 149.98 161.78 149.33 162.23 L 148.52 162.80 C 147.87 163.25 147.72 164.14 148.17 164.79 C 148.62 165.43 149.51 165.59 150.15 165.14 Z M 150.98 164.56 L 151.79 163.98 C 152.44 163.53 152.59 162.64 152.13 161.99 C 151.68 161.35 150.79 161.20 150.15 161.65 L 149.33 162.23 C 148.69 162.69 148.53 163.58 148.99 164.22 C 149.44 164.86 150.33 165.01 150.98 164.56 Z M 151.80 163.98 L 152.62 163.39 C 153.26 162.94 153.41 162.05 152.95 161.41 C 152.49 160.77 151.60 160.62 150.96 161.07 L 150.14 161.66 C 149.50 162.11 149.35 163.00 149.81 163.64 C 150.27 164.29 151.16 164.43 151.80 163.98 Z M 152.62 163.39 L 152.87 163.21 C 153.51 162.75 153.66 161.86 153.20 161.22 C 152.75 160.58 151.86 160.43 151.22 160.89 L 150.96 161.07 C 150.32 161.53 150.17 162.42 150.63 163.06 C 151.09 163.70 151.98 163.85 152.62 163.39 Z"
      fill="black"
      fill-rule="nonzero" /><path d="M 157.62 118.46 L 157.65 119.36 C 157.69 120.23 158.42 120.91 159.29 120.88 C 160.16 120.84 160.83 120.11 160.80 119.24 L 160.76 118.33 C 160.73 117.46 160.00 116.79 159.13 116.82 C 158.26 116.86 157.58 117.59 157.62 118.46 Z M 157.61 119.38 L 157.65 120.32 C 157.69 121.21 158.45 121.90 159.34 121.86 C 160.23 121.82 160.92 121.07 160.88 120.18 L 160.84 119.23 C 160.80 118.34 160.04 117.65 159.15 117.69 C 158.26 117.73 157.57 118.48 157.61 119.38 Z M 157.61 120.34 L 157.67 121.37 C 157.72 122.28 158.50 122.98 159.42 122.93 C 160.33 122.88 161.03 122.10 160.98 121.19 L 160.92 120.16 C 160.87 119.24 160.09 118.54 159.18 118.60 C 158.26 118.65 157.56 119.43 157.61 120.34 Z M 157.63 121.39 L 157.71 122.49 C 157.77 123.42 158.58 124.13 159.51 124.06 C 160.45 124.00 161.15 123.19 161.09 122.26 L 161.01 121.16 C 160.95 120.23 160.14 119.52 159.21 119.59 C 158.28 119.65 157.57 120.46 157.63 121.39 Z M 157.69 122.51 L 157.76 123.45 C 157.84 124.40 158.66 125.10 159.61 125.03 C 160.55 124.96 161.26 124.13 161.18 123.19 L 161.11 122.24 C 161.03 121.29 160.21 120.59 159.27 120.66 C 158.32 120.74 157.62 121.56 157.69 122.51 Z M 157.76 123.46 L 157.84 124.47 C 157.92 125.41 158.75 126.11 159.70 126.04 C 160.65 125.96 161.35 125.13 161.27 124.18 L 161.19 123.18 C 161.11 122.23 160.28 121.53 159.33 121.61 C 158.38 121.69 157.68 122.52 157.76 123.46 Z M 157.84 124.47 L 157.93 125.50 C 158.01 126.45 158.84 127.15 159.79 127.07 C 160.74 126.99 161.44 126.15 161.36 125.20 L 161.27 124.18 C 161.19 123.23 160.36 122.52 159.41 122.60 C 158.46 122.69 157.76 123.52 157.84 124.47 Z M 157.92 125.50 L 158.01 126.52 C 158.09 127.47 158.93 128.18 159.88 128.10 C 160.83 128.02 161.54 127.18 161.46 126.23 L 161.37 125.20 C 161.29 124.25 160.45 123.55 159.50 123.63 C 158.55 123.71 157.84 124.54 157.92 125.50 Z M 158.00 126.52 L 158.08 127.52 C 158.16 128.48 159.00 129.19 159.96 129.11 C 160.91 129.03 161.62 128.19 161.54 127.24 L 161.46 126.23 C 161.38 125.28 160.54 124.57 159.59 124.65 C 158.63 124.72 157.92 125.56 158.00 126.52 Z M 158.08 127.51 L 158.16 128.55 C 158.23 129.51 159.07 130.22 160.03 130.15 C 160.98 130.08 161.70 129.24 161.63 128.29 L 161.55 127.25 C 161.47 126.29 160.64 125.57 159.68 125.64 C 158.72 125.72 158.01 126.55 158.08 127.51 Z M 158.16 128.54 L 158.23 129.53 C 158.29 130.49 159.13 131.22 160.08 131.15 C 161.04 131.08 161.77 130.25 161.70 129.29 L 161.63 128.30 C 161.56 127.34 160.73 126.61 159.77 126.68 C 158.81 126.75 158.09 127.58 158.16 128.54 Z M 158.22 129.52 L 158.29 130.50 C 158.35 131.46 159.18 132.19 160.14 132.13 C 161.10 132.07 161.83 131.24 161.77 130.28 L 161.70 129.30 C 161.64 128.34 160.81 127.61 159.85 127.67 C 158.89 127.73 158.16 128.56 158.22 129.52 Z M 158.28 130.49 L 158.34 131.47 C 158.40 132.43 159.23 133.17 160.19 133.11 C 161.15 133.05 161.88 132.22 161.83 131.26 L 161.77 130.28 C 161.71 129.32 160.88 128.59 159.92 128.65 C 158.96 128.70 158.23 129.53 158.28 130.49 Z M 158.34 131.46 L 158.39 132.42 C 158.45 133.39 159.28 134.12 160.24 134.07 C 161.20 134.01 161.94 133.19 161.88 132.22 L 161.83 131.26 C 161.77 130.30 160.95 129.57 159.98 129.62 C 159.02 129.68 158.28 130.50 158.34 131.46 Z M 158.39 132.42 L 158.44 133.36 C 158.50 134.33 159.32 135.07 160.29 135.01 C 161.25 134.96 161.99 134.14 161.94 133.17 L 161.89 132.23 C 161.83 131.26 161.01 130.52 160.04 130.58 C 159.08 130.63 158.34 131.45 158.39 132.42 Z M 158.44 133.36 L 158.49 134.33 C 158.54 135.30 159.37 136.04 160.33 135.99 C 161.30 135.94 162.04 135.12 161.99 134.15 L 161.94 133.18 C 161.89 132.21 161.07 131.47 160.10 131.52 C 159.14 131.57 158.39 132.39 158.44 133.36 Z M 158.49 134.33 L 158.54 135.34 C 158.58 136.30 159.40 137.05 160.37 137.01 C 161.34 136.96 162.08 136.14 162.04 135.17 L 161.99 134.16 C 161.94 133.19 161.12 132.45 160.16 132.49 C 159.19 132.54 158.45 133.36 158.49 134.33 Z M 158.54 135.33 L 158.58 136.38 C 158.62 137.35 159.44 138.10 160.41 138.06 C 161.37 138.02 162.12 137.20 162.08 136.23 L 162.04 135.18 C 162.00 134.22 161.18 133.46 160.22 133.50 C 159.25 133.55 158.50 134.36 158.54 135.33 Z M 158.58 136.37 L 158.62 137.40 C 158.65 138.37 159.47 139.12 160.43 139.09 C 161.40 139.05 162.16 138.24 162.12 137.27 L 162.09 136.24 C 162.05 135.27 161.24 134.52 160.27 134.55 C 159.30 134.59 158.54 135.40 158.58 136.37 Z M 158.62 137.39 L 158.65 138.35 C 158.68 139.32 159.49 140.08 160.46 140.05 C 161.42 140.02 162.18 139.21 162.15 138.24 L 162.12 137.28 C 162.09 136.31 161.28 135.55 160.32 135.58 C 159.35 135.61 158.59 136.42 158.62 137.39 Z M 158.65 138.35 L 158.67 139.33 C 158.70 140.30 159.50 141.07 160.47 141.04 C 161.44 141.02 162.21 140.21 162.18 139.24 L 162.15 138.25 C 162.13 137.28 161.32 136.52 160.35 136.54 C 159.38 136.57 158.62 137.38 158.65 138.35 Z M 158.67 139.33 L 158.69 140.33 C 158.72 141.30 159.52 142.07 160.49 142.05 C 161.46 142.03 162.23 141.22 162.20 140.25 L 162.18 139.25 C 162.16 138.28 161.36 137.51 160.39 137.53 C 159.42 137.55 158.65 138.36 158.67 139.33 Z M 158.69 140.33 L 158.71 141.34 C 158.73 142.31 159.53 143.09 160.50 143.07 C 161.47 143.05 162.24 142.25 162.22 141.28 L 162.21 140.26 C 162.19 139.29 161.39 138.52 160.42 138.54 C 159.45 138.56 158.68 139.36 158.69 140.33 Z M 158.71 141.34 L 158.73 142.36 C 158.74 143.33 159.54 144.11 160.51 144.10 C 161.48 144.08 162.25 143.28 162.24 142.31 L 162.22 141.29 C 162.21 140.32 161.41 139.54 160.44 139.56 C 159.47 139.57 158.70 140.37 158.71 141.34 Z M 158.73 142.36 L 158.74 143.36 C 158.75 144.34 159.54 145.11 160.51 145.10 C 161.48 145.09 162.26 144.30 162.25 143.33 L 162.24 142.32 C 162.23 141.35 161.43 140.57 160.46 140.58 C 159.49 140.59 158.72 141.39 158.73 142.36 Z M 158.74 143.36 L 158.74 144.34 C 158.75 145.31 159.54 146.09 160.52 146.09 C 161.49 146.08 162.27 145.29 162.26 144.32 L 162.25 143.33 C 162.25 142.36 161.45 141.58 160.48 141.59 C 159.51 141.59 158.73 142.39 158.74 143.36 Z M 158.74 144.34 L 158.75 145.33 C 158.75 146.30 159.54 147.08 160.52 147.08 C 161.49 147.07 162.27 146.28 162.27 145.31 L 162.26 144.32 C 162.26 143.35 161.46 142.56 160.49 142.57 C 159.52 142.57 158.74 143.37 158.74 144.34 Z M 158.75 145.32 L 158.75 146.32 C 158.75 147.29 159.54 148.07 160.51 148.07 C 161.49 148.07 162.27 147.28 162.27 146.31 L 162.27 145.31 C 162.26 144.34 161.47 143.55 160.50 143.56 C 159.53 143.56 158.74 144.35 158.75 145.32 Z M 158.75 146.31 L 158.75 147.32 C 158.75 148.29 159.54 149.08 160.51 149.08 C 161.49 149.08 162.27 148.29 162.27 147.31 L 162.27 146.31 C 162.27 145.34 161.48 144.55 160.51 144.55 C 159.53 144.55 158.75 145.34 158.75 146.31 Z M 158.75 147.32 L 158.75 148.33 C 158.75 149.31 159.54 150.10 160.51 150.10 C 161.49 150.09 162.27 149.31 162.27 148.33 L 162.27 147.32 C 162.27 146.34 161.48 145.55 160.51 145.55 C 159.54 145.55 158.75 146.34 158.75 147.32 Z M 158.75 148.33 L 158.75 149.34 C 158.75 150.32 159.54 151.11 160.51 151.11 C 161.49 151.11 162.28 150.32 162.28 149.34 L 162.28 148.33 C 162.28 147.36 161.49 146.57 160.51 146.57 C 159.54 146.57 158.75 147.36 158.75 148.33 Z M 158.75 149.34 L 158.75 150.31 C 158.75 151.29 159.54 152.08 160.51 152.08 C 161.49 152.08 162.28 151.29 162.28 150.31 L 162.28 149.34 C 162.28 148.37 161.49 147.58 160.51 147.58 C 159.54 147.58 158.75 148.37 158.75 149.34 Z M 158.75 150.31 L 158.75 151.30 C 158.75 152.27 159.54 153.07 160.51 153.07 C 161.49 153.07 162.28 152.27 162.28 151.30 L 162.28 150.31 C 162.28 149.34 161.49 148.55 160.51 148.55 C 159.54 148.55 158.75 149.34 158.75 150.31 Z M 158.74 151.30 L 158.74 152.30 C 158.74 153.27 159.54 154.06 160.51 154.06 C 161.49 154.06 162.28 153.27 162.28 152.30 L 162.28 151.30 C 162.28 150.32 161.49 149.53 160.51 149.53 C 159.54 149.53 158.74 150.32 158.74 151.30 Z M 158.74 152.30 L 158.74 153.30 C 158.74 154.28 159.54 155.07 160.51 155.07 C 161.49 155.07 162.28 154.28 162.28 153.30 L 162.28 152.30 C 162.28 151.32 161.49 150.53 160.51 150.53 C 159.54 150.53 158.74 151.32 158.74 152.30 Z M 158.74 153.30 L 158.74 154.32 C 158.74 155.30 159.53 156.09 160.51 156.09 C 161.49 156.09 162.28 155.30 162.28 154.32 L 162.28 153.30 C 162.28 152.33 161.49 151.53 160.51 151.53 C 159.53 151.53 158.74 152.33 158.74 153.30 Z M 158.74 154.32 L 158.74 155.34 C 158.74 156.32 159.53 157.11 160.51 157.11 C 161.49 157.11 162.28 156.32 162.28 155.34 L 162.28 154.32 C 162.28 153.34 161.49 152.55 160.51 152.55 C 159.53 152.55 158.74 153.34 158.74 154.32 Z M 158.74 155.34 L 158.74 156.35 C 158.74 157.33 159.53 158.12 160.51 158.12 C 161.49 158.12 162.28 157.33 162.28 156.35 L 162.28 155.34 C 162.28 154.36 161.49 153.57 160.51 153.57 C 159.53 153.57 158.74 154.36 158.74 155.34 Z M 158.74 156.35 L 158.74 157.34 C 158.74 158.32 159.53 159.11 160.51 159.11 C 161.49 159.11 162.28 158.32 162.28 157.34 L 162.28 156.35 C 162.28 155.37 161.49 154.58 160.51 154.58 C 159.53 154.57 158.74 155.37 158.74 156.35 Z M 158.74 157.34 L 158.74 158.34 C 158.74 159.31 159.53 160.11 160.51 160.11 C 161.49 160.11 162.28 159.32 162.28 158.34 L 162.28 157.34 C 162.28 156.36 161.49 155.57 160.51 155.57 C 159.53 155.57 158.74 156.36 158.74 157.34 Z M 158.74 158.33 L 158.74 159.33 C 158.73 160.31 159.53 161.11 160.51 161.11 C 161.48 161.11 162.28 160.32 162.28 159.34 L 162.28 158.34 C 162.29 157.36 161.49 156.57 160.51 156.56 C 159.53 156.56 158.74 157.35 158.74 158.33 Z M 158.73 159.33 L 158.73 160.33 C 158.73 161.31 159.52 162.11 160.50 162.11 C 161.48 162.12 162.28 161.33 162.28 160.35 L 162.28 159.34 C 162.29 158.36 161.49 157.57 160.51 157.56 C 159.53 157.56 158.74 158.35 158.73 159.33 Z M 158.73 160.33 L 158.73 161.34 C 158.72 162.32 159.51 163.11 160.49 163.12 C 161.47 163.12 162.27 162.33 162.27 161.35 L 162.28 160.35 C 162.28 159.37 161.49 158.57 160.51 158.57 C 159.53 158.56 158.74 159.35 158.73 160.33 Z M 158.73 161.33 L 158.72 162.34 C 158.71 163.32 159.50 164.12 160.48 164.13 C 161.46 164.13 162.26 163.34 162.27 162.36 L 162.27 161.36 C 162.28 160.38 161.49 159.58 160.51 159.57 C 159.53 159.56 158.73 160.35 158.73 161.33 Z M 158.72 162.33 L 158.71 163.34 C 158.70 164.32 159.48 165.13 160.47 165.13 C 161.45 165.14 162.25 164.36 162.26 163.38 L 162.27 162.37 C 162.28 161.39 161.49 160.59 160.51 160.58 C 159.53 160.57 158.73 161.35 158.72 162.33 Z M 158.71 163.34 L 158.69 164.34 C 158.68 165.33 159.47 166.13 160.45 166.14 C 161.43 166.16 162.23 165.37 162.25 164.39 L 162.26 163.38 C 162.27 162.40 161.49 161.60 160.51 161.58 C 159.53 161.57 158.72 162.36 158.71 163.34 Z M 158.69 164.34 L 158.68 165.34 C 158.66 166.32 159.44 167.13 160.42 167.15 C 161.40 167.17 162.21 166.39 162.23 165.40 L 162.25 164.40 C 162.26 163.42 161.48 162.61 160.50 162.59 C 159.52 162.58 158.71 163.36 158.69 164.34 Z M 158.68 165.34 L 158.65 166.34 C 158.63 167.32 159.41 168.13 160.39 168.15 C 161.37 168.17 162.18 167.40 162.21 166.42 L 162.23 165.41 C 162.25 164.43 161.47 163.62 160.49 163.60 C 159.51 163.58 158.70 164.35 158.68 165.34 Z M 158.65 166.33 L 158.63 167.33 C 158.60 168.31 159.37 169.12 160.35 169.15 C 161.33 169.18 162.15 168.41 162.18 167.43 L 162.21 166.43 C 162.23 165.45 161.46 164.63 160.48 164.60 C 159.50 164.57 158.68 165.35 158.65 166.33 Z M 158.63 167.32 L 158.59 168.31 C 158.56 169.29 159.33 170.11 160.31 170.15 C 161.29 170.18 162.11 169.41 162.14 168.43 L 162.18 167.44 C 162.21 166.46 161.44 165.63 160.46 165.60 C 159.48 165.57 158.66 166.34 158.63 167.32 Z M 158.59 168.30 L 158.55 169.28 C 158.51 170.26 159.27 171.09 160.25 171.13 C 161.23 171.17 162.06 170.41 162.10 169.43 L 162.14 168.44 C 162.18 167.46 161.42 166.64 160.44 166.59 C 159.46 166.55 158.63 167.32 158.59 168.30 Z M 158.55 169.27 L 158.50 170.27 C 158.45 171.25 159.21 172.08 160.19 172.13 C 161.17 172.18 162.00 171.43 162.05 170.45 L 162.10 169.45 C 162.15 168.47 161.40 167.63 160.42 167.58 C 159.44 167.53 158.60 168.29 158.55 169.27 Z M 158.50 170.25 L 158.44 171.26 C 158.39 172.24 159.13 173.08 160.11 173.14 C 161.09 173.19 161.93 172.45 161.99 171.47 L 162.05 170.46 C 162.11 169.48 161.36 168.64 160.38 168.59 C 159.40 168.53 158.56 169.27 158.50 170.25 Z M 158.45 171.24 L 158.38 172.24 C 158.31 173.22 159.05 174.07 160.03 174.13 C 161.01 174.20 161.86 173.46 161.92 172.48 L 161.99 171.48 C 162.06 170.50 161.32 169.66 160.34 169.59 C 159.36 169.52 158.51 170.26 158.45 171.24 Z M 158.38 172.23 L 158.30 173.22 C 158.23 174.20 158.96 175.05 159.94 175.13 C 160.92 175.20 161.77 174.47 161.85 173.49 L 161.92 172.49 C 161.99 171.52 161.26 170.66 160.28 170.59 C 159.31 170.52 158.45 171.25 158.38 172.23 Z M 158.31 173.21 L 158.22 174.20 C 158.14 175.18 158.87 176.04 159.85 176.12 C 160.82 176.20 161.68 175.47 161.76 174.49 L 161.84 173.50 C 161.93 172.52 161.20 171.67 160.22 171.59 C 159.24 171.51 158.39 172.23 158.31 173.21 Z M 158.23 174.19 L 158.14 175.18 C 158.05 176.16 158.77 177.02 159.75 177.11 C 160.72 177.19 161.58 176.47 161.67 175.50 L 161.76 174.51 C 161.85 173.53 161.13 172.67 160.15 172.58 C 159.18 172.49 158.31 173.21 158.23 174.19 Z M 158.14 175.17 L 158.04 176.16 C 157.95 177.14 158.66 178.00 159.64 178.10 C 160.61 178.19 161.48 177.48 161.58 176.50 L 161.67 175.51 C 161.76 174.53 161.05 173.67 160.07 173.57 C 159.10 173.48 158.23 174.19 158.14 175.17 Z M 158.04 176.15 L 157.94 177.19 C 157.84 178.16 158.55 179.03 159.52 179.13 C 160.50 179.23 161.37 178.52 161.47 177.54 L 161.57 176.51 C 161.67 175.54 160.96 174.67 159.99 174.57 C 159.01 174.47 158.14 175.18 158.04 176.15 Z M 157.94 177.18 L 157.83 178.21 C 157.73 179.18 158.43 180.06 159.41 180.16 C 160.38 180.26 161.25 179.56 161.36 178.58 L 161.47 177.55 C 161.57 176.58 160.86 175.71 159.89 175.60 C 158.92 175.50 158.04 176.20 157.94 177.18 Z M 157.83 178.20 L 157.72 179.22 C 157.61 180.20 158.32 181.07 159.29 181.18 C 160.26 181.28 161.14 180.58 161.24 179.61 L 161.36 178.59 C 161.46 177.62 160.76 176.74 159.79 176.64 C 158.82 176.53 157.94 177.23 157.83 178.20 Z M 157.72 179.22 L 157.61 180.22 C 157.50 181.19 158.20 182.07 159.17 182.18 C 160.14 182.29 161.02 181.59 161.13 180.62 L 161.24 179.61 C 161.35 178.64 160.65 177.77 159.68 177.66 C 158.71 177.55 157.83 178.25 157.72 179.22 Z M 157.61 180.22 L 157.50 181.19 C 157.39 182.16 158.09 183.04 159.06 183.15 C 160.03 183.26 160.91 182.56 161.02 181.59 L 161.13 180.62 C 161.24 179.65 160.54 178.77 159.57 178.66 C 158.60 178.55 157.72 179.25 157.61 180.22 Z M 157.50 181.19 L 157.39 182.13 C 157.28 183.10 157.98 183.98 158.95 184.09 C 159.92 184.20 160.80 183.51 160.91 182.54 L 161.02 181.59 C 161.13 180.62 160.43 179.75 159.46 179.64 C 158.49 179.53 157.61 180.22 157.50 181.19 Z M 157.39 182.14 L 157.28 183.16 C 157.17 184.13 157.87 185.00 158.84 185.11 C 159.81 185.22 160.68 184.52 160.79 183.56 L 160.91 182.53 C 161.02 181.56 160.32 180.69 159.35 180.58 C 158.38 180.47 157.50 181.17 157.39 182.14 Z M 157.28 183.16 L 157.16 184.23 C 157.05 185.20 157.75 186.07 158.72 186.18 C 159.69 186.29 160.56 185.59 160.67 184.63 L 160.79 183.55 C 160.90 182.58 160.20 181.71 159.23 181.60 C 158.26 181.49 157.39 182.19 157.28 183.16 Z M 157.16 184.23 L 157.05 185.25 C 156.94 186.21 157.64 187.09 158.61 187.19 C 159.57 187.30 160.45 186.61 160.55 185.64 L 160.67 184.62 C 160.78 183.66 160.08 182.78 159.11 182.68 C 158.14 182.57 157.27 183.26 157.16 184.23 Z M 157.05 185.25 L 156.94 186.21 C 156.83 187.18 157.53 188.05 158.50 188.16 C 159.46 188.26 160.33 187.57 160.44 186.60 L 160.55 185.64 C 160.66 184.67 159.96 183.80 159.00 183.69 C 158.03 183.58 157.16 184.28 157.05 185.25 Z M 156.94 186.21 L 156.84 187.12 C 156.73 188.09 157.42 188.96 158.39 189.07 C 159.35 189.18 160.23 188.49 160.34 187.52 L 160.44 186.60 C 160.55 185.64 159.86 184.77 158.89 184.66 C 157.93 184.55 157.06 185.24 156.94 186.21 Z M 156.84 187.12 L 156.73 188.08 C 156.62 189.04 157.31 189.92 158.27 190.03 C 159.23 190.14 160.11 189.45 160.22 188.49 L 160.33 187.53 C 160.45 186.57 159.76 185.69 158.79 185.58 C 157.83 185.47 156.96 186.16 156.84 187.12 Z M 156.73 188.07 L 156.61 189.11 C 156.49 190.07 157.18 190.94 158.14 191.06 C 159.10 191.18 159.97 190.49 160.09 189.53 L 160.22 188.50 C 160.33 187.54 159.65 186.66 158.69 186.54 C 157.72 186.43 156.85 187.11 156.73 188.07 Z M 156.61 189.10 L 156.49 190.10 C 156.37 191.06 157.05 191.93 158.01 192.05 C 158.97 192.17 159.85 191.49 159.96 190.53 L 160.09 189.53 C 160.21 188.57 159.52 187.70 158.56 187.58 C 157.60 187.46 156.73 188.14 156.61 189.10 Z M 156.49 190.10 L 156.37 191.06 C 156.26 192.02 156.94 192.89 157.90 193.01 C 158.85 193.13 159.73 192.45 159.84 191.49 L 159.96 190.53 C 160.08 189.57 159.40 188.70 158.44 188.58 C 157.48 188.46 156.61 189.14 156.49 190.10 Z M 156.38 191.07 L 156.26 192.01 C 156.15 192.97 156.83 193.84 157.79 193.95 C 158.74 194.07 159.61 193.38 159.73 192.43 L 159.84 191.48 C 159.96 190.53 159.27 189.66 158.32 189.55 C 157.36 189.43 156.49 190.11 156.38 191.07 Z M 156.27 192.02 L 156.16 192.98 C 156.05 193.93 156.74 194.80 157.69 194.90 C 158.65 195.01 159.51 194.33 159.62 193.37 L 159.72 192.42 C 159.83 191.46 159.15 190.60 158.19 190.49 C 157.24 190.38 156.38 191.07 156.27 192.02 Z M 156.16 193.00 L 156.06 193.96 C 155.96 194.91 156.65 195.77 157.61 195.87 C 158.56 195.97 159.41 195.27 159.51 194.32 L 159.61 193.35 C 159.71 192.40 159.02 191.55 158.07 191.45 C 157.11 191.35 156.26 192.04 156.16 193.00 Z M 156.06 193.98 L 155.97 194.99 C 155.88 195.94 156.59 196.78 157.54 196.87 C 158.49 196.96 159.33 196.26 159.42 195.31 L 159.51 194.30 C 159.60 193.35 158.90 192.51 157.94 192.42 C 156.99 192.33 156.15 193.03 156.06 193.98 Z M 155.97 195.01 L 155.89 196.07 C 155.82 197.02 156.53 197.85 157.48 197.93 C 158.43 198.00 159.26 197.29 159.33 196.34 L 159.41 195.28 C 159.49 194.33 158.78 193.50 157.83 193.43 C 156.88 193.35 156.05 194.06 155.97 195.01 Z M 155.89 196.10 L 155.83 197.12 C 155.77 198.07 156.49 198.88 157.44 198.94 C 158.39 199.00 159.21 198.28 159.27 197.33 L 159.33 196.31 C 159.39 195.37 158.67 194.55 157.72 194.49 C 156.77 194.43 155.95 195.15 155.89 196.10 Z M 155.83 197.16 L 155.79 198.20 C 155.76 199.15 156.50 199.95 157.45 199.98 C 158.40 200.02 159.19 199.28 159.23 198.33 L 159.27 197.29 C 159.30 196.34 158.56 195.54 157.61 195.51 C 156.66 195.47 155.86 196.21 155.83 197.16 Z M 155.79 198.27 L 155.80 199.29 C 155.80 200.24 156.57 201.01 157.52 201.00 C 158.47 201.00 159.23 200.23 159.23 199.28 L 159.23 198.26 C 159.22 197.31 158.45 196.54 157.50 196.55 C 156.56 196.55 155.79 197.32 155.79 198.27 Z M 155.80 199.40 L 155.86 200.36 C 155.92 201.30 156.74 202.02 157.68 201.96 C 158.63 201.90 159.35 201.08 159.29 200.14 L 159.22 199.18 C 159.16 198.23 158.35 197.52 157.40 197.58 C 156.46 197.64 155.74 198.45 155.80 199.40 Z M 155.89 200.53 L 156.06 201.56 C 156.22 202.49 157.10 203.11 158.03 202.96 C 158.96 202.80 159.59 201.92 159.43 200.99 L 159.26 199.96 C 159.10 199.03 158.22 198.41 157.29 198.56 C 156.36 198.72 155.73 199.60 155.89 200.53 Z M 156.14 201.79 L 156.45 202.77 C 156.74 203.66 157.69 204.15 158.58 203.86 C 159.47 203.58 159.96 202.63 159.67 201.74 L 159.36 200.76 C 159.07 199.87 158.12 199.38 157.23 199.66 C 156.34 199.95 155.85 200.90 156.14 201.79 Z M 156.55 202.96 L 156.95 203.81 C 157.34 204.65 158.33 205.01 159.16 204.62 C 160.00 204.23 160.36 203.24 159.97 202.41 L 159.57 201.55 C 159.19 200.72 158.19 200.35 157.36 200.74 C 156.52 201.13 156.16 202.12 156.55 202.96 Z M 157.01 203.89 L 157.34 204.51 C 157.77 205.31 158.77 205.61 159.57 205.17 C 160.38 204.74 160.67 203.74 160.24 202.94 L 159.91 202.33 C 159.48 201.53 158.48 201.23 157.68 201.66 C 156.88 202.09 156.58 203.09 157.01 203.89 Z"
      fill="black"
      fill-rule="nonzero" /><path d="M 162.74 121.30 L 163.48 120.74 C 164.13 120.24 164.26 119.30 163.76 118.65 C 163.26 117.99 162.32 117.87 161.67 118.37 L 160.93 118.93 C 160.27 119.43 160.15 120.36 160.65 121.02 C 161.15 121.67 162.08 121.80 162.74 121.30 Z M 163.45 120.77 L 164.22 120.21 C 164.89 119.73 165.04 118.79 164.55 118.12 C 164.06 117.45 163.13 117.30 162.46 117.78 L 161.69 118.34 C 161.02 118.83 160.87 119.76 161.36 120.43 C 161.84 121.10 162.78 121.25 163.45 120.77 Z M 164.16 120.26 L 164.99 119.71 C 165.68 119.26 165.87 118.32 165.42 117.63 C 164.96 116.93 164.03 116.74 163.33 117.20 L 162.51 117.74 C 161.81 118.20 161.62 119.13 162.08 119.83 C 162.53 120.52 163.47 120.71 164.16 120.26 Z M 164.91 119.77 L 165.82 119.24 C 166.55 118.83 166.80 117.90 166.38 117.18 C 165.97 116.45 165.04 116.20 164.32 116.62 L 163.41 117.14 C 162.68 117.56 162.43 118.48 162.85 119.21 C 163.26 119.93 164.19 120.18 164.91 119.77 Z M 165.74 119.30 L 166.69 118.83 C 167.44 118.47 167.76 117.56 167.39 116.80 C 167.02 116.05 166.11 115.73 165.36 116.10 L 164.40 116.57 C 163.65 116.93 163.34 117.84 163.70 118.60 C 164.07 119.35 164.98 119.67 165.74 119.30 Z M 166.61 118.87 L 167.48 118.51 C 168.25 118.18 168.62 117.29 168.29 116.52 C 167.97 115.74 167.08 115.38 166.30 115.70 L 165.44 116.06 C 164.66 116.39 164.30 117.28 164.62 118.06 C 164.94 118.83 165.84 119.20 166.61 118.87 Z M 167.42 118.53 L 168.35 118.19 C 169.14 117.89 169.54 117.02 169.24 116.23 C 168.95 115.44 168.07 115.04 167.28 115.33 L 166.36 115.68 C 165.57 115.97 165.17 116.85 165.46 117.64 C 165.76 118.42 166.64 118.82 167.42 118.53 Z M 168.30 118.20 L 169.27 117.88 C 170.07 117.61 170.49 116.74 170.22 115.95 C 169.95 115.15 169.09 114.72 168.29 114.99 L 167.33 115.32 C 166.53 115.59 166.11 116.45 166.37 117.25 C 166.64 118.04 167.51 118.47 168.30 118.20 Z M 169.23 117.89 L 170.22 117.58 C 171.02 117.33 171.47 116.48 171.22 115.68 C 170.97 114.87 170.12 114.42 169.32 114.67 L 168.33 114.98 C 167.53 115.23 167.08 116.08 167.33 116.88 C 167.58 117.69 168.43 118.14 169.23 117.89 Z M 170.19 117.59 L 171.18 117.30 C 171.99 117.07 172.46 116.23 172.22 115.42 C 171.99 114.61 171.15 114.14 170.34 114.38 L 169.35 114.66 C 168.54 114.90 168.07 115.74 168.31 116.55 C 168.54 117.36 169.38 117.82 170.19 117.59 Z M 171.16 117.31 L 172.15 117.04 C 172.97 116.82 173.44 115.98 173.22 115.17 C 173.00 114.36 172.17 113.88 171.36 114.10 L 170.36 114.37 C 169.55 114.59 169.07 115.43 169.29 116.24 C 169.51 117.05 170.35 117.53 171.16 117.31 Z M 172.13 117.04 L 173.17 116.78 C 173.98 116.57 174.47 115.74 174.27 114.93 C 174.06 114.11 173.23 113.62 172.41 113.83 L 171.38 114.10 C 170.56 114.30 170.07 115.13 170.28 115.95 C 170.49 116.76 171.32 117.25 172.13 117.04 Z M 173.15 116.78 L 174.15 116.54 C 174.97 116.35 175.47 115.52 175.28 114.71 C 175.08 113.89 174.26 113.39 173.44 113.59 L 172.44 113.83 C 171.62 114.02 171.12 114.84 171.31 115.66 C 171.51 116.48 172.33 116.98 173.15 116.78 Z M 174.13 116.55 L 175.11 116.33 C 175.92 116.14 176.44 115.33 176.26 114.51 C 176.07 113.70 175.26 113.18 174.44 113.36 L 173.47 113.58 C 172.65 113.76 172.13 114.58 172.32 115.39 C 172.50 116.21 173.31 116.73 174.13 116.55 Z M 175.08 116.33 L 176.03 116.14 C 176.85 115.97 177.38 115.17 177.21 114.34 C 177.04 113.52 176.24 113.00 175.42 113.16 L 174.47 113.36 C 173.65 113.53 173.12 114.33 173.29 115.15 C 173.46 115.97 174.26 116.50 175.08 116.33 Z M 176.00 116.14 L 176.93 115.97 C 177.75 115.81 178.30 115.02 178.14 114.20 C 177.99 113.38 177.20 112.83 176.37 112.99 L 175.45 113.16 C 174.62 113.31 174.08 114.11 174.24 114.93 C 174.39 115.75 175.18 116.29 176.00 116.14 Z M 176.90 115.97 L 177.91 115.80 C 178.74 115.66 179.29 114.88 179.15 114.06 C 179.02 113.23 178.24 112.68 177.41 112.81 L 176.40 112.98 C 175.58 113.12 175.02 113.90 175.16 114.73 C 175.30 115.55 176.08 116.11 176.90 115.97 Z M 177.88 115.80 L 178.94 115.65 C 179.77 115.53 180.34 114.76 180.22 113.94 C 180.10 113.11 179.34 112.54 178.51 112.66 L 177.45 112.81 C 176.62 112.93 176.05 113.70 176.16 114.52 C 176.28 115.35 177.05 115.92 177.88 115.80 Z M 178.91 115.65 L 179.92 115.53 C 180.75 115.43 181.34 114.68 181.24 113.85 C 181.14 113.02 180.39 112.43 179.56 112.53 L 178.54 112.65 C 177.72 112.75 177.13 113.51 177.23 114.34 C 177.33 115.16 178.08 115.75 178.91 115.65 Z M 179.89 115.53 L 180.84 115.44 C 181.67 115.36 182.28 114.63 182.20 113.80 C 182.12 112.96 181.39 112.36 180.56 112.44 L 179.60 112.53 C 178.77 112.61 178.16 113.35 178.24 114.18 C 178.32 115.01 179.06 115.61 179.89 115.53 Z M 180.80 115.44 L 181.69 115.38 C 182.52 115.33 183.15 114.61 183.10 113.78 C 183.04 112.94 182.32 112.32 181.49 112.37 L 180.60 112.43 C 179.77 112.49 179.14 113.21 179.20 114.04 C 179.25 114.87 179.97 115.50 180.80 115.44 Z M 181.61 115.39 L 182.81 115.37 C 183.64 115.36 184.31 114.68 184.30 113.85 C 184.29 113.01 183.60 112.35 182.77 112.36 L 181.57 112.37 C 180.74 112.38 180.07 113.06 180.08 113.90 C 180.09 114.73 180.78 115.40 181.61 115.39 Z M 182.49 115.34 L 183.43 115.53 C 184.24 115.70 185.04 115.17 185.21 114.36 C 185.37 113.54 184.85 112.74 184.03 112.58 L 183.09 112.39 C 182.27 112.22 181.48 112.75 181.31 113.56 C 181.14 114.38 181.67 115.18 182.49 115.34 Z M 182.67 115.13 L 183.22 115.67 C 183.81 116.26 184.76 116.25 185.35 115.66 C 185.94 115.07 185.93 114.11 185.34 113.53 L 184.79 112.98 C 184.20 112.40 183.24 112.40 182.66 112.99 C 182.07 113.59 182.08 114.54 182.67 115.13 Z M 182.78 114.82 L 182.89 115.53 C 183.01 116.35 183.78 116.92 184.60 116.80 C 185.43 116.68 186.00 115.91 185.88 115.09 L 185.77 114.38 C 185.65 113.55 184.88 112.98 184.06 113.11 C 183.23 113.23 182.66 113.99 182.78 114.82 Z M 182.89 115.07 L 182.74 115.98 C 182.61 116.81 183.17 117.58 183.99 117.72 C 184.82 117.85 185.59 117.29 185.73 116.47 L 185.88 115.55 C 186.01 114.72 185.45 113.95 184.62 113.82 C 183.80 113.68 183.02 114.24 182.89 115.07 Z M 182.81 115.72 L 182.44 116.78 C 182.16 117.56 182.57 118.43 183.36 118.70 C 184.15 118.98 185.01 118.57 185.29 117.78 L 185.66 116.73 C 185.94 115.94 185.52 115.08 184.74 114.80 C 183.95 114.52 183.09 114.93 182.81 115.72 Z M 182.51 116.60 L 181.97 117.68 C 181.60 118.42 181.90 119.33 182.64 119.71 C 183.39 120.08 184.30 119.78 184.68 119.03 L 185.22 117.96 C 185.59 117.21 185.29 116.30 184.54 115.92 C 183.80 115.55 182.89 115.85 182.51 116.60 Z M 182.04 117.56 L 181.55 118.34 C 181.11 119.05 181.32 119.99 182.04 120.43 C 182.75 120.87 183.68 120.65 184.12 119.94 L 184.61 119.15 C 185.05 118.44 184.83 117.51 184.12 117.07 C 183.41 116.63 182.48 116.84 182.04 117.56 Z M 181.59 118.27 L 181.04 119.06 C 180.55 119.74 180.72 120.69 181.40 121.17 C 182.09 121.65 183.04 121.49 183.52 120.81 L 184.08 120.02 C 184.56 119.33 184.40 118.38 183.71 117.90 C 183.02 117.42 182.08 117.58 181.59 118.27 Z M 181.08 119.00 L 180.46 119.79 C 179.95 120.46 180.07 121.41 180.74 121.93 C 181.40 122.44 182.36 122.32 182.87 121.65 L 183.48 120.86 C 184.00 120.20 183.87 119.24 183.21 118.73 C 182.54 118.21 181.59 118.34 181.08 119.00 Z M 180.49 119.76 L 179.84 120.55 C 179.30 121.20 179.40 122.16 180.05 122.70 C 180.70 123.23 181.66 123.14 182.19 122.49 L 182.84 121.69 C 183.38 121.04 183.28 120.08 182.63 119.55 C 181.98 119.01 181.02 119.11 180.49 119.76 Z M 179.85 120.53 L 179.17 121.33 C 178.62 121.97 178.70 122.94 179.34 123.48 C 179.98 124.03 180.94 123.95 181.49 123.31 L 182.17 122.51 C 182.72 121.87 182.64 120.91 182.00 120.36 C 181.36 119.81 180.40 119.89 179.85 120.53 Z M 179.17 121.32 L 178.50 122.10 C 177.94 122.74 178.01 123.70 178.65 124.26 C 179.29 124.81 180.25 124.74 180.81 124.10 L 181.48 123.32 C 182.03 122.69 181.97 121.72 181.33 121.17 C 180.69 120.61 179.73 120.68 179.17 121.32 Z M 178.50 122.10 L 177.83 122.86 C 177.28 123.49 177.34 124.46 177.98 125.02 C 178.62 125.57 179.58 125.51 180.14 124.87 L 180.80 124.11 C 181.36 123.47 181.29 122.51 180.66 121.95 C 180.02 121.39 179.05 121.46 178.50 122.10 Z M 177.83 122.85 L 177.17 123.61 C 176.61 124.25 176.67 125.22 177.31 125.78 C 177.94 126.33 178.91 126.27 179.47 125.63 L 180.14 124.87 C 180.70 124.24 180.63 123.27 180.00 122.71 C 179.36 122.15 178.39 122.22 177.83 122.85 Z M 177.17 123.61 L 176.50 124.37 C 175.94 125.01 176.00 125.97 176.64 126.53 C 177.28 127.09 178.24 127.03 178.80 126.39 L 179.47 125.64 C 180.03 125.00 179.97 124.03 179.33 123.47 C 178.69 122.91 177.73 122.98 177.17 123.61 Z M 176.50 124.37 L 175.84 125.12 C 175.28 125.75 175.34 126.72 175.98 127.28 C 176.62 127.84 177.59 127.78 178.15 127.15 L 178.80 126.40 C 179.36 125.76 179.30 124.79 178.67 124.23 C 178.03 123.67 177.06 123.73 176.50 124.37 Z M 175.84 125.12 L 175.19 125.85 C 174.63 126.49 174.69 127.46 175.33 128.02 C 175.97 128.58 176.94 128.52 177.50 127.88 L 178.15 127.15 C 178.71 126.51 178.64 125.54 178.01 124.98 C 177.37 124.42 176.40 124.48 175.84 125.12 Z M 175.19 125.86 L 174.51 126.63 C 173.95 127.27 174.01 128.24 174.65 128.80 C 175.29 129.36 176.26 129.30 176.82 128.66 L 177.50 127.88 C 178.06 127.24 178.00 126.27 177.36 125.71 C 176.72 125.15 175.75 125.22 175.19 125.86 Z M 174.50 126.64 L 173.81 127.44 C 173.26 128.08 173.33 129.05 173.97 129.61 C 174.62 130.16 175.59 130.09 176.14 129.45 L 176.83 128.65 C 177.38 128.01 177.31 127.04 176.67 126.48 C 176.02 125.93 175.05 126.00 174.50 126.64 Z M 173.80 127.46 L 173.14 128.24 C 172.60 128.89 172.69 129.86 173.34 130.40 C 173.99 130.95 174.96 130.86 175.51 130.21 L 176.16 129.43 C 176.70 128.78 176.61 127.81 175.96 127.26 C 175.31 126.72 174.34 126.81 173.80 127.46 Z M 173.12 128.27 L 172.51 129.05 C 171.99 129.71 172.10 130.68 172.77 131.20 C 173.43 131.73 174.40 131.61 174.92 130.95 L 175.53 130.18 C 176.06 129.51 175.94 128.54 175.28 128.02 C 174.61 127.49 173.64 127.61 173.12 128.27 Z M 172.47 129.09 L 171.92 129.86 C 171.42 130.55 171.57 131.51 172.26 132.01 C 172.94 132.50 173.90 132.35 174.40 131.67 L 174.96 130.90 C 175.46 130.21 175.31 129.25 174.62 128.75 C 173.93 128.26 172.97 128.41 172.47 129.09 Z M 171.87 129.93 L 171.31 130.80 C 170.85 131.52 171.05 132.47 171.77 132.93 C 172.48 133.39 173.43 133.18 173.89 132.47 L 174.45 131.60 C 174.91 130.88 174.71 129.93 173.99 129.47 C 173.28 129.01 172.33 129.22 171.87 129.93 Z M 171.23 130.92 L 170.69 131.96 C 170.29 132.71 170.58 133.64 171.34 134.04 C 172.09 134.43 173.02 134.14 173.42 133.39 L 173.96 132.35 C 174.36 131.60 174.07 130.67 173.31 130.27 C 172.56 129.88 171.63 130.17 171.23 130.92 Z M 170.59 132.17 L 170.26 133.13 C 169.98 133.94 170.41 134.82 171.21 135.10 C 172.02 135.38 172.91 134.95 173.19 134.14 L 173.52 133.18 C 173.80 132.37 173.37 131.49 172.56 131.21 C 171.75 130.93 170.87 131.36 170.59 132.17 Z M 170.17 133.53 L 170.11 134.36 C 170.06 135.22 170.71 135.96 171.57 136.01 C 172.43 136.07 173.17 135.42 173.22 134.56 L 173.28 133.73 C 173.33 132.88 172.68 132.13 171.82 132.08 C 170.96 132.02 170.22 132.67 170.17 133.53 Z M 170.25 135.13 L 170.56 135.79 C 170.94 136.57 171.87 136.90 172.65 136.53 C 173.43 136.16 173.77 135.22 173.39 134.44 L 173.08 133.79 C 172.71 133.00 171.78 132.67 170.99 133.04 C 170.21 133.42 169.88 134.35 170.25 135.13 Z M 171.12 136.44 L 171.83 136.89 C 172.56 137.36 173.53 137.15 174.00 136.42 C 174.48 135.69 174.27 134.72 173.54 134.24 L 172.84 133.79 C 172.10 133.32 171.13 133.53 170.66 134.26 C 170.18 134.99 170.39 135.96 171.12 136.44 Z M 172.24 137.09 L 173.24 137.38 C 174.08 137.63 174.96 137.15 175.20 136.31 C 175.45 135.46 174.97 134.58 174.13 134.34 L 173.13 134.05 C 172.29 133.80 171.41 134.28 171.16 135.12 C 170.91 135.96 171.40 136.84 172.24 137.09 Z M 173.42 137.43 L 174.62 137.63 C 175.49 137.77 176.31 137.18 176.45 136.31 C 176.60 135.44 176.01 134.62 175.14 134.48 L 173.94 134.29 C 173.07 134.14 172.25 134.73 172.11 135.60 C 171.96 136.47 172.55 137.29 173.42 137.43 Z M 174.68 137.65 L 175.67 137.77 C 176.55 137.88 177.35 137.25 177.46 136.37 C 177.56 135.50 176.94 134.69 176.06 134.59 L 175.08 134.46 C 174.20 134.35 173.40 134.98 173.29 135.86 C 173.18 136.74 173.80 137.54 174.68 137.65 Z M 175.66 137.77 L 176.67 137.90 C 177.56 138.01 178.36 137.39 178.47 136.51 C 178.58 135.63 177.96 134.82 177.08 134.71 L 176.07 134.58 C 175.18 134.47 174.38 135.09 174.27 135.97 C 174.16 136.86 174.78 137.66 175.66 137.77 Z M 176.62 137.90 L 177.63 138.06 C 178.51 138.20 179.34 137.60 179.48 136.71 C 179.62 135.83 179.02 135.01 178.13 134.87 L 177.13 134.71 C 176.24 134.57 175.42 135.17 175.28 136.05 C 175.14 136.94 175.74 137.76 176.62 137.90 Z M 177.53 138.05 L 178.51 138.26 C 179.38 138.45 180.25 137.90 180.44 137.02 C 180.63 136.15 180.08 135.28 179.20 135.09 L 178.23 134.88 C 177.35 134.69 176.49 135.24 176.30 136.12 C 176.10 136.99 176.66 137.86 177.53 138.05 Z M 178.35 138.23 L 179.28 138.53 C 180.14 138.81 181.06 138.34 181.33 137.48 C 181.61 136.63 181.15 135.71 180.29 135.43 L 179.36 135.13 C 178.50 134.85 177.58 135.32 177.31 136.17 C 177.03 137.03 177.49 137.95 178.35 138.23 Z M 179.06 138.44 L 179.95 138.89 C 180.75 139.29 181.73 138.96 182.14 138.16 C 182.54 137.35 182.21 136.37 181.41 135.97 L 180.52 135.52 C 179.71 135.12 178.73 135.44 178.33 136.25 C 177.92 137.06 178.25 138.04 179.06 138.44 Z M 179.68 138.72 L 180.44 139.31 C 181.15 139.86 182.18 139.73 182.73 139.02 C 183.28 138.31 183.15 137.28 182.44 136.73 L 181.68 136.14 C 180.97 135.58 179.94 135.71 179.39 136.42 C 178.83 137.14 178.96 138.16 179.68 138.72 Z M 180.17 139.05 L 180.79 139.81 C 181.36 140.51 182.39 140.61 183.09 140.04 C 183.79 139.47 183.89 138.44 183.32 137.74 L 182.70 136.98 C 182.13 136.28 181.10 136.18 180.40 136.75 C 179.71 137.32 179.60 138.35 180.17 139.05 Z M 180.59 139.50 L 181.05 140.43 C 181.45 141.24 182.43 141.57 183.24 141.18 C 184.05 140.78 184.38 139.80 183.98 138.99 L 183.53 138.05 C 183.13 137.24 182.15 136.91 181.34 137.31 C 180.53 137.70 180.19 138.69 180.59 139.50 Z M 180.94 140.15 L 181.20 141.07 C 181.45 141.94 182.35 142.44 183.22 142.20 C 184.09 141.95 184.59 141.05 184.35 140.18 L 184.09 139.26 C 183.84 138.39 182.94 137.89 182.07 138.13 C 181.20 138.38 180.70 139.28 180.94 140.15 Z M 181.16 140.88 L 181.32 141.88 C 181.46 142.77 182.29 143.38 183.18 143.24 C 184.07 143.10 184.68 142.26 184.54 141.37 L 184.39 140.37 C 184.25 139.48 183.41 138.87 182.52 139.01 C 181.63 139.15 181.02 139.99 181.16 140.88 Z M 181.30 141.73 L 181.37 142.77 C 181.43 143.67 182.21 144.35 183.11 144.29 C 184.01 144.23 184.69 143.46 184.63 142.56 L 184.56 141.52 C 184.50 140.62 183.72 139.94 182.82 140.00 C 181.93 140.06 181.25 140.83 181.30 141.73 Z M 181.37 142.65 L 181.37 143.68 C 181.36 144.58 182.08 145.31 182.98 145.32 C 183.88 145.33 184.61 144.60 184.62 143.70 L 184.63 142.68 C 184.63 141.78 183.91 141.04 183.01 141.04 C 182.11 141.03 181.38 141.76 181.37 142.65 Z M 181.37 143.58 L 181.30 144.54 C 181.24 145.44 181.91 146.22 182.80 146.28 C 183.70 146.35 184.48 145.67 184.54 144.78 L 184.61 143.81 C 184.68 142.92 184.01 142.14 183.11 142.07 C 182.22 142.01 181.44 142.68 181.37 143.58 Z M 181.33 144.42 L 181.16 145.53 C 181.02 146.41 181.63 147.24 182.51 147.37 C 183.39 147.50 184.21 146.90 184.35 146.02 L 184.52 144.90 C 184.65 144.02 184.04 143.20 183.16 143.07 C 182.28 142.93 181.46 143.54 181.33 144.42 Z M 181.21 145.39 L 180.96 146.37 C 180.75 147.22 181.26 148.09 182.11 148.30 C 182.97 148.52 183.83 148.00 184.05 147.15 L 184.29 146.16 C 184.51 145.31 183.99 144.45 183.14 144.23 C 182.29 144.02 181.43 144.53 181.21 145.39 Z M 181.02 146.24 L 180.71 147.12 C 180.42 147.94 180.85 148.83 181.67 149.12 C 182.49 149.41 183.38 148.98 183.67 148.16 L 183.98 147.28 C 184.27 146.47 183.84 145.57 183.03 145.28 C 182.21 144.99 181.31 145.42 181.02 146.24 Z M 180.77 147.03 L 180.41 147.86 C 180.07 148.65 180.43 149.56 181.22 149.90 C 182.00 150.24 182.91 149.88 183.25 149.09 L 183.61 148.26 C 183.95 147.47 183.59 146.56 182.81 146.22 C 182.02 145.88 181.11 146.24 180.77 147.03 Z M 180.45 147.81 L 180.03 148.69 C 179.66 149.45 179.98 150.36 180.74 150.73 C 181.50 151.10 182.42 150.78 182.79 150.02 L 183.21 149.14 C 183.58 148.38 183.26 147.47 182.50 147.10 C 181.73 146.73 180.82 147.05 180.45 147.81 Z M 180.06 148.65 L 179.60 149.54 C 179.22 150.28 179.51 151.20 180.25 151.58 C 181.00 151.97 181.92 151.68 182.30 150.93 L 182.76 150.05 C 183.14 149.31 182.85 148.39 182.11 148.00 C 181.36 147.62 180.44 147.91 180.06 148.65 Z M 179.63 149.51 L 179.14 150.41 C 178.74 151.14 179.01 152.06 179.75 152.45 C 180.48 152.85 181.39 152.58 181.79 151.85 L 182.28 150.96 C 182.68 150.22 182.40 149.31 181.67 148.91 C 180.94 148.51 180.02 148.78 179.63 149.51 Z M 179.16 150.40 L 178.67 151.28 C 178.26 152.00 178.52 152.91 179.24 153.32 C 179.97 153.72 180.88 153.46 181.28 152.74 L 181.78 151.86 C 182.18 151.14 181.92 150.22 181.20 149.82 C 180.48 149.41 179.56 149.67 179.16 150.40 Z M 178.68 151.27 L 178.19 152.12 C 177.79 152.84 178.04 153.75 178.75 154.16 C 179.47 154.56 180.38 154.31 180.78 153.60 L 181.27 152.74 C 181.68 152.03 181.43 151.12 180.71 150.71 C 180.00 150.30 179.09 150.55 178.68 151.27 Z M 178.21 152.12 L 177.70 152.98 C 177.29 153.69 177.53 154.60 178.24 155.01 C 178.95 155.42 179.85 155.18 180.26 154.47 L 180.77 153.61 C 181.18 152.90 180.94 151.99 180.23 151.58 C 179.53 151.17 178.62 151.41 178.21 152.12 Z M 177.72 152.97 L 177.20 153.84 C 176.78 154.54 177.01 155.45 177.71 155.86 C 178.41 156.28 179.31 156.05 179.73 155.35 L 180.25 154.48 C 180.66 153.78 180.44 152.88 179.74 152.46 C 179.04 152.05 178.14 152.27 177.72 152.97 Z M 177.22 153.83 L 176.69 154.69 C 176.27 155.38 176.48 156.28 177.17 156.70 C 177.86 157.13 178.76 156.91 179.18 156.22 L 179.71 155.37 C 180.13 154.68 179.92 153.78 179.23 153.35 C 178.54 152.93 177.64 153.14 177.22 153.83 Z M 176.70 154.68 L 176.17 155.52 C 175.75 156.20 175.95 157.10 176.63 157.53 C 177.31 157.96 178.21 157.75 178.64 157.07 L 179.17 156.23 C 179.60 155.55 179.39 154.65 178.71 154.22 C 178.03 153.80 177.13 154.00 176.70 154.68 Z M 176.18 155.52 L 175.65 156.36 C 175.22 157.04 175.42 157.94 176.09 158.37 C 176.77 158.80 177.66 158.60 178.09 157.92 L 178.63 157.08 C 179.06 156.40 178.86 155.50 178.18 155.08 C 177.51 154.65 176.61 154.84 176.18 155.52 Z M 175.65 156.37 L 175.11 157.22 C 174.69 157.89 174.88 158.78 175.56 159.21 C 176.23 159.64 177.12 159.44 177.55 158.76 L 178.09 157.92 C 178.51 157.24 178.31 156.35 177.64 155.92 C 176.97 155.50 176.08 155.70 175.65 156.37 Z M 175.10 157.23 L 174.57 158.08 C 174.15 158.76 174.35 159.65 175.03 160.08 C 175.71 160.50 176.60 160.29 177.02 159.61 L 177.56 158.76 C 177.98 158.08 177.77 157.19 177.10 156.76 C 176.42 156.34 175.53 156.55 175.10 157.23 Z M 174.54 158.08 L 174.01 158.94 C 173.58 159.64 173.80 160.55 174.50 160.97 C 175.20 161.40 176.11 161.18 176.53 160.48 L 177.06 159.62 C 177.48 158.92 177.26 158.01 176.57 157.59 C 175.87 157.16 174.96 157.38 174.54 158.08 Z M 173.96 158.93 L 173.45 159.79 C 173.02 160.51 173.25 161.45 173.97 161.88 C 174.69 162.31 175.63 162.08 176.06 161.36 L 176.58 160.49 C 177.01 159.77 176.77 158.84 176.05 158.41 C 175.33 157.97 174.39 158.21 173.96 158.93 Z M 173.40 159.78 L 172.90 160.64 C 172.46 161.38 172.71 162.34 173.46 162.78 C 174.20 163.22 175.16 162.97 175.60 162.22 L 176.11 161.37 C 176.54 160.62 176.29 159.66 175.55 159.22 C 174.80 158.78 173.84 159.03 173.40 159.78 Z M 172.86 160.63 L 172.36 161.49 C 171.92 162.26 172.18 163.24 172.95 163.68 C 173.72 164.12 174.70 163.86 175.14 163.10 L 175.64 162.23 C 176.08 161.47 175.82 160.49 175.05 160.04 C 174.29 159.60 173.31 159.86 172.86 160.63 Z M 172.35 161.49 L 171.85 162.37 C 171.40 163.15 171.67 164.13 172.45 164.58 C 173.22 165.02 174.21 164.75 174.66 163.97 L 175.16 163.09 C 175.60 162.32 175.33 161.33 174.55 160.89 C 173.78 160.44 172.79 160.71 172.35 161.49 Z M 171.85 162.38 L 171.36 163.25 C 170.92 164.02 171.19 165.01 171.97 165.45 C 172.74 165.88 173.73 165.61 174.16 164.83 L 174.66 163.97 C 175.09 163.19 174.82 162.21 174.04 161.77 C 173.27 161.33 172.28 161.60 171.85 162.38 Z M 171.36 163.25 L 170.87 164.11 C 170.44 164.89 170.71 165.87 171.49 166.31 C 172.26 166.74 173.24 166.47 173.68 165.69 L 174.16 164.83 C 174.60 164.05 174.32 163.07 173.55 162.64 C 172.77 162.20 171.79 162.48 171.36 163.25 Z M 170.87 164.12 L 170.62 164.57 C 170.19 165.35 170.46 166.33 171.24 166.76 C 172.01 167.19 172.99 166.92 173.42 166.14 L 173.68 165.69 C 174.11 164.91 173.84 163.93 173.06 163.50 C 172.29 163.07 171.31 163.34 170.87 164.12 Z"
      fill="black"
      fill-rule="nonzero" /></svg>