<svg xmlns="http://www.w3.org/2000/svg" width="300" height="300" viewBox="0 0 300 300">
<path d="M 195.15 183.54 L 194.27 183.86 C 193.42 184.16 192.98 185.10 193.29 185.94 C 193.59 186.78 194.53 187.22 195.37 186.92 L 196.25 186.60 C 197.10 186.29 197.54 185.36 197.23 184.52 C 196.93 183.67 195.99 183.24 195.15 183.54 Z M 194.28 183.84 L 193.36 184.16 C 192.51 184.45 192.05 185.39 192.35 186.24 C 192.65 187.10 193.58 187.55 194.43 187.25 L 195.35 186.94 C 196.21 186.64 196.66 185.71 196.37 184.85 C 196.07 184.00 195.14 183.54 194.28 183.84 Z M 193.40 184.13 L 192.40 184.45 C 191.53 184.73 191.05 185.66 191.33 186.52 C 191.60 187.39 192.53 187.87 193.40 187.60 L 194.40 187.28 C 195.27 187.00 195.75 186.07 195.47 185.21 C 195.20 184.34 194.27 183.86 193.40 184.13 Z M 192.44 184.43 L 191.51 184.70 C 190.63 184.95 190.12 185.87 190.37 186.75 C 190.62 187.63 191.54 188.14 192.42 187.89 L 193.36 187.62 C 194.24 187.37 194.75 186.45 194.49 185.57 C 194.24 184.69 193.32 184.18 192.44 184.43 Z M 191.55 184.68 L 190.62 184.92 C 189.73 185.15 189.20 186.06 189.43 186.95 C 189.66 187.84 190.57 188.37 191.45 188.14 L 192.38 187.90 C 193.27 187.67 193.80 186.77 193.57 185.88 C 193.34 184.99 192.44 184.45 191.55 184.68 Z M 190.67 184.91 L 189.68 185.14 C 188.79 185.34 188.23 186.23 188.43 187.13 C 188.64 188.02 189.53 188.58 190.43 188.38 L 191.41 188.15 C 192.31 187.95 192.87 187.06 192.66 186.16 C 192.46 185.26 191.56 184.71 190.67 184.91 Z M 189.73 185.12 L 188.70 185.33 C 187.80 185.50 187.21 186.38 187.39 187.28 C 187.57 188.18 188.44 188.77 189.35 188.59 L 190.38 188.39 C 191.28 188.21 191.87 187.34 191.69 186.43 C 191.51 185.53 190.63 184.95 189.73 185.12 Z M 188.76 185.32 L 187.73 185.48 C 186.82 185.63 186.21 186.49 186.36 187.40 C 186.51 188.30 187.36 188.92 188.27 188.77 L 189.29 188.60 C 190.20 188.46 190.82 187.60 190.67 186.69 C 190.52 185.78 189.66 185.17 188.76 185.32 Z M 187.79 185.47 L 186.82 185.60 C 185.91 185.72 185.27 186.56 185.38 187.47 C 185.50 188.38 186.34 189.02 187.25 188.91 L 188.22 188.78 C 189.13 188.66 189.77 187.82 189.65 186.91 C 189.53 186.00 188.70 185.36 187.79 185.47 Z M 186.87 185.60 L 185.88 185.70 C 184.97 185.79 184.30 186.61 184.39 187.53 C 184.49 188.44 185.31 189.11 186.22 189.01 L 187.21 188.91 C 188.12 188.82 188.79 188.00 188.69 187.08 C 188.60 186.17 187.78 185.50 186.87 185.60 Z M 185.92 185.69 L 184.92 185.77 C 184.00 185.84 183.31 186.65 183.39 187.56 C 183.46 188.48 184.26 189.17 185.18 189.09 L 186.18 189.02 C 187.10 188.94 187.79 188.14 187.71 187.22 C 187.64 186.31 186.84 185.62 185.92 185.69 Z M 184.95 185.77 L 183.93 185.83 C 183.01 185.88 182.31 186.67 182.36 187.59 C 182.41 188.51 183.20 189.21 184.12 189.16 L 185.14 189.10 C 186.06 189.04 186.76 188.26 186.71 187.34 C 186.66 186.42 185.87 185.72 184.95 185.77 Z M 183.96 185.83 L 182.92 185.87 C 182.00 185.91 181.29 186.68 181.33 187.60 C 181.36 188.52 182.14 189.24 183.06 189.20 L 184.09 189.16 C 185.01 189.12 185.73 188.35 185.69 187.43 C 185.65 186.51 184.88 185.79 183.96 185.83 Z M 182.95 185.87 L 181.91 185.89 C 180.99 185.92 180.26 186.68 180.29 187.60 C 180.31 188.52 181.07 189.25 181.99 189.23 L 183.03 189.20 C 183.95 189.18 184.68 188.41 184.66 187.49 C 184.63 186.57 183.87 185.84 182.95 185.87 Z M 181.93 185.89 L 180.90 185.91 C 179.98 185.92 179.24 186.68 179.26 187.60 C 179.27 188.52 180.03 189.26 180.95 189.24 L 181.98 189.23 C 182.90 189.21 183.63 188.46 183.62 187.54 C 183.61 186.62 182.85 185.88 181.93 185.89 Z M 180.91 185.91 L 179.91 185.91 C 178.99 185.92 178.25 186.67 178.25 187.59 C 178.26 188.51 179.01 189.26 179.93 189.25 L 180.93 189.24 C 181.86 189.24 182.60 188.48 182.59 187.56 C 182.59 186.64 181.83 185.90 180.91 185.91 Z M 179.92 185.91 L 178.96 185.92 C 178.04 185.92 177.30 186.67 177.30 187.59 C 177.30 188.51 178.05 189.25 178.97 189.25 L 179.93 189.25 C 180.85 189.25 181.59 188.50 181.59 187.58 C 181.59 186.66 180.84 185.91 179.92 185.91 Z M 178.97 185.92 L 177.95 185.91 C 177.03 185.91 176.28 186.66 176.28 187.58 C 176.28 188.50 177.03 189.25 177.95 189.25 L 178.96 189.25 C 179.89 189.25 180.63 188.50 180.63 187.58 C 180.63 186.66 179.89 185.92 178.97 185.92 Z M 177.96 185.91 L 176.91 185.91 C 175.99 185.91 175.24 186.65 175.24 187.57 C 175.23 188.49 175.98 189.24 176.90 189.25 L 177.94 189.25 C 178.86 189.26 179.61 188.51 179.62 187.59 C 179.62 186.67 178.88 185.92 177.96 185.91 Z M 176.94 185.91 L 175.96 185.89 C 175.04 185.87 174.28 186.61 174.26 187.53 C 174.24 188.45 174.97 189.21 175.90 189.23 L 176.87 189.25 C 177.79 189.26 178.56 188.53 178.57 187.61 C 178.59 186.69 177.86 185.93 176.94 185.91 Z M 176.00 185.89 L 175.06 185.85 C 174.14 185.81 173.36 186.52 173.32 187.44 C 173.28 188.37 173.99 189.14 174.91 189.19 L 175.85 189.23 C 176.78 189.27 177.56 188.55 177.60 187.63 C 177.64 186.71 176.92 185.93 176.00 185.89 Z M 175.12 185.85 L 174.17 185.78 C 173.26 185.71 172.45 186.39 172.38 187.31 C 172.31 188.23 173.00 189.04 173.91 189.11 L 174.86 189.18 C 175.77 189.25 176.58 188.57 176.65 187.65 C 176.72 186.73 176.03 185.93 175.12 185.85 Z M 174.24 185.79 L 173.29 185.67 C 172.37 185.56 171.54 186.22 171.43 187.13 C 171.32 188.05 171.97 188.88 172.89 188.99 L 173.85 189.10 C 174.76 189.21 175.59 188.56 175.70 187.64 C 175.81 186.73 175.16 185.90 174.24 185.79 Z M 173.36 185.68 L 172.38 185.52 C 171.47 185.36 170.61 185.98 170.45 186.89 C 170.30 187.80 170.92 188.66 171.83 188.81 L 172.81 188.98 C 173.72 189.13 174.58 188.51 174.73 187.61 C 174.89 186.70 174.27 185.83 173.36 185.68 Z M 172.46 185.53 L 171.43 185.31 C 170.53 185.11 169.64 185.68 169.45 186.58 C 169.25 187.48 169.82 188.37 170.72 188.57 L 171.74 188.80 C 172.64 188.99 173.54 188.42 173.73 187.52 C 173.93 186.62 173.36 185.73 172.46 185.53 Z M 171.51 185.33 L 170.54 185.06 C 169.65 184.82 168.73 185.35 168.49 186.24 C 168.25 187.13 168.78 188.05 169.67 188.29 L 170.64 188.55 C 171.53 188.79 172.45 188.27 172.69 187.37 C 172.93 186.48 172.40 185.57 171.51 185.33 Z M 170.60 185.08 L 169.63 184.78 C 168.75 184.51 167.81 185.00 167.54 185.88 C 167.26 186.76 167.76 187.70 168.64 187.97 L 169.61 188.27 C 170.49 188.55 171.42 188.05 171.70 187.17 C 171.97 186.29 171.48 185.35 170.60 185.08 Z M 169.67 184.80 L 168.71 184.47 C 167.83 184.17 166.89 184.63 166.59 185.51 C 166.29 186.38 166.75 187.33 167.63 187.63 L 168.59 187.96 C 169.47 188.26 170.42 187.79 170.71 186.92 C 171.01 186.04 170.55 185.10 169.67 184.80 Z M 168.75 184.48 L 167.81 184.13 C 166.94 183.81 165.98 184.26 165.66 185.12 C 165.34 185.99 165.79 186.95 166.65 187.27 L 167.59 187.61 C 168.45 187.93 169.41 187.49 169.73 186.63 C 170.05 185.76 169.61 184.80 168.75 184.48 Z M 167.84 184.15 L 166.89 183.77 C 166.04 183.43 165.06 183.85 164.73 184.71 C 164.39 185.57 164.81 186.54 165.67 186.88 L 166.62 187.26 C 167.48 187.59 168.45 187.17 168.78 186.31 C 169.12 185.46 168.70 184.49 167.84 184.15 Z M 166.93 183.79 L 165.96 183.38 C 165.11 183.02 164.13 183.41 163.77 184.26 C 163.41 185.11 163.81 186.09 164.66 186.45 L 165.63 186.86 C 166.48 187.22 167.46 186.83 167.82 185.98 C 168.18 185.13 167.78 184.15 166.93 183.79 Z M 166.01 183.40 L 165.12 182.98 C 164.28 182.60 163.28 182.96 162.90 183.80 C 162.51 184.64 162.88 185.63 163.71 186.02 L 164.61 186.43 C 165.44 186.82 166.44 186.45 166.82 185.61 C 167.21 184.78 166.85 183.78 166.01 183.40 Z M 165.17 183.01 L 164.34 182.59 C 163.51 182.17 162.51 182.50 162.09 183.32 C 161.67 184.14 162.00 185.15 162.82 185.57 L 163.66 185.99 C 164.48 186.41 165.49 186.08 165.90 185.26 C 166.32 184.43 165.99 183.43 165.17 183.01 Z M 164.40 182.62 L 163.53 182.13 C 162.73 181.68 161.71 181.97 161.26 182.77 C 160.80 183.58 161.09 184.59 161.89 185.05 L 162.76 185.53 C 163.57 185.98 164.58 185.70 165.04 184.89 C 165.49 184.09 165.20 183.07 164.40 182.62 Z M 163.60 182.17 L 162.75 181.64 C 161.96 181.15 160.93 181.39 160.45 182.17 C 159.96 182.96 160.20 183.99 160.98 184.48 L 161.83 185.01 C 162.61 185.49 163.64 185.26 164.13 184.47 C 164.62 183.69 164.38 182.66 163.60 182.17 Z M 162.81 181.69 L 162.00 181.12 C 161.24 180.60 160.20 180.79 159.68 181.54 C 159.15 182.30 159.34 183.34 160.10 183.87 L 160.91 184.43 C 161.67 184.96 162.71 184.77 163.24 184.01 C 163.76 183.25 163.57 182.21 162.81 181.69 Z M 162.07 181.17 L 161.29 180.58 C 160.56 180.02 159.51 180.15 158.95 180.89 C 158.39 181.62 158.53 182.67 159.26 183.23 L 160.03 183.82 C 160.77 184.38 161.81 184.24 162.38 183.51 C 162.94 182.78 162.80 181.73 162.07 181.17 Z M 161.36 180.63 L 160.62 180.00 C 159.92 179.40 158.86 179.48 158.26 180.18 C 157.66 180.88 157.74 181.93 158.45 182.53 L 159.19 183.17 C 159.89 183.77 160.94 183.69 161.54 182.99 C 162.14 182.29 162.06 181.23 161.36 180.63 Z M 160.70 180.07 L 159.98 179.37 C 159.32 178.72 158.26 178.73 157.62 179.39 C 156.97 180.05 156.99 181.11 157.65 181.75 L 158.36 182.46 C 159.02 183.10 160.08 183.09 160.72 182.43 C 161.37 181.77 161.36 180.72 160.70 180.07 Z M 160.06 179.46 L 159.39 178.69 C 158.78 178.00 157.73 177.94 157.04 178.55 C 156.34 179.16 156.28 180.21 156.89 180.90 L 157.56 181.67 C 158.17 182.36 159.23 182.42 159.92 181.81 C 160.61 181.20 160.67 180.15 160.06 179.46 Z M 159.47 178.79 L 158.87 178.01 C 158.31 177.28 157.27 177.14 156.53 177.69 C 155.80 178.25 155.66 179.30 156.22 180.03 L 156.81 180.81 C 157.37 181.54 158.42 181.68 159.15 181.12 C 159.88 180.57 160.03 179.52 159.47 178.79 Z M 158.94 178.10 L 158.38 177.26 C 157.87 176.49 156.84 176.28 156.07 176.79 C 155.30 177.30 155.09 178.34 155.60 179.11 L 156.16 179.94 C 156.67 180.71 157.70 180.92 158.47 180.41 C 159.24 179.90 159.45 178.87 158.94 178.10 Z M 158.44 177.36 L 157.93 176.47 C 157.48 175.67 156.46 175.39 155.66 175.85 C 154.86 176.30 154.58 177.32 155.04 178.12 L 155.54 179.01 C 156.00 179.81 157.02 180.09 157.82 179.63 C 158.62 179.18 158.90 178.16 158.44 177.36 Z M 157.99 176.57 L 157.54 175.65 C 157.14 174.82 156.15 174.47 155.32 174.87 C 154.49 175.27 154.14 176.27 154.54 177.10 L 154.98 178.02 C 155.38 178.85 156.38 179.20 157.21 178.80 C 158.04 178.40 158.39 177.40 157.99 176.57 Z M 157.59 175.75 L 157.20 174.80 C 156.86 173.95 155.89 173.53 155.03 173.88 C 154.18 174.23 153.77 175.20 154.11 176.05 L 154.49 177.00 C 154.84 177.85 155.81 178.26 156.66 177.92 C 157.52 177.57 157.93 176.60 157.59 175.75 Z M 157.24 174.88 L 156.91 173.94 C 156.61 173.07 155.66 172.60 154.79 172.90 C 153.92 173.20 153.45 174.15 153.75 175.03 L 154.08 175.97 C 154.38 176.84 155.33 177.30 156.20 177.00 C 157.07 176.70 157.54 175.75 157.24 174.88 Z M 156.93 174.00 L 156.65 173.08 C 156.39 172.20 155.46 171.69 154.58 171.96 C 153.69 172.22 153.19 173.15 153.46 174.04 L 153.73 174.96 C 154.00 175.84 154.93 176.34 155.81 176.08 C 156.69 175.82 157.19 174.89 156.93 174.00 Z M 156.67 173.13 L 156.41 172.16 C 156.18 171.27 155.26 170.73 154.37 170.97 C 153.48 171.20 152.95 172.12 153.18 173.01 L 153.44 173.98 C 153.68 174.87 154.59 175.41 155.48 175.17 C 156.37 174.94 156.90 174.02 156.67 173.13 Z M 156.43 172.21 L 156.21 171.25 C 156.01 170.35 155.11 169.79 154.21 169.99 C 153.31 170.19 152.75 171.09 152.95 171.99 L 153.17 172.95 C 153.37 173.85 154.27 174.41 155.17 174.21 C 156.06 174.01 156.63 173.11 156.43 172.21 Z M 156.22 171.31 L 156.04 170.33 C 155.87 169.43 155.00 168.83 154.09 169.00 C 153.18 169.17 152.59 170.04 152.76 170.95 L 152.94 171.93 C 153.11 172.83 153.98 173.43 154.89 173.26 C 155.79 173.09 156.39 172.22 156.22 171.31 Z M 156.05 170.39 L 155.90 169.40 C 155.76 168.49 154.91 167.87 153.99 168.01 C 153.08 168.15 152.46 169.00 152.60 169.91 L 152.75 170.89 C 152.89 171.81 153.74 172.43 154.65 172.29 C 155.56 172.15 156.19 171.30 156.05 170.39 Z M 155.90 169.45 L 155.78 168.45 C 155.66 167.54 154.83 166.89 153.91 167.00 C 153.00 167.12 152.35 167.95 152.47 168.87 L 152.59 169.87 C 152.71 170.78 153.54 171.43 154.46 171.31 C 155.37 171.20 156.02 170.36 155.90 169.45 Z M 155.78 168.49 L 155.68 167.48 C 155.58 166.56 154.76 165.90 153.84 165.99 C 152.93 166.09 152.26 166.91 152.36 167.83 L 152.46 168.83 C 152.56 169.75 153.38 170.42 154.29 170.32 C 155.21 170.22 155.88 169.40 155.78 168.49 Z M 155.68 167.51 L 155.60 166.52 C 155.52 165.60 154.71 164.92 153.79 164.99 C 152.87 165.07 152.19 165.88 152.27 166.80 L 152.35 167.79 C 152.43 168.71 153.24 169.39 154.16 169.32 C 155.08 169.24 155.76 168.43 155.68 167.51 Z M 155.60 166.55 L 155.53 165.52 C 155.47 164.60 154.68 163.91 153.76 163.97 C 152.84 164.03 152.14 164.82 152.20 165.74 L 152.27 166.77 C 152.33 167.69 153.12 168.38 154.04 168.32 C 154.96 168.26 155.66 167.47 155.60 166.55 Z M 155.53 165.55 L 155.49 164.56 C 155.44 163.64 154.66 162.93 153.74 162.97 C 152.82 163.01 152.11 163.79 152.15 164.72 L 152.20 165.71 C 152.24 166.63 153.02 167.34 153.94 167.30 C 154.86 167.26 155.58 166.47 155.53 165.55 Z M 155.49 164.59 L 155.46 163.61 C 155.43 162.69 154.66 161.97 153.74 161.99 C 152.82 162.02 152.09 162.79 152.12 163.71 L 152.15 164.69 C 152.18 165.61 152.95 166.33 153.87 166.31 C 154.79 166.28 155.52 165.51 155.49 164.59 Z M 155.46 163.63 L 155.44 162.70 C 155.43 161.78 154.67 161.05 153.75 161.06 C 152.82 161.08 152.09 161.84 152.10 162.76 L 152.12 163.69 C 152.14 164.61 152.90 165.35 153.82 165.33 C 154.74 165.32 155.47 164.56 155.46 163.63 Z M 155.44 162.72 L 155.44 161.76 C 155.43 160.84 154.68 160.10 153.75 160.11 C 152.83 160.11 152.09 160.87 152.10 161.79 L 152.10 162.74 C 152.11 163.67 152.86 164.41 153.79 164.40 C 154.71 164.39 155.45 163.64 155.44 162.72 Z M 155.44 161.77 L 155.43 160.74 C 155.43 159.82 154.68 159.07 153.76 159.07 C 152.84 159.08 152.09 159.83 152.10 160.75 L 152.10 161.78 C 152.10 162.70 152.85 163.45 153.77 163.44 C 154.69 163.44 155.44 162.69 155.44 161.77 Z M 155.43 160.74 L 155.43 159.69 C 155.43 158.77 154.69 158.02 153.76 158.02 C 152.84 158.02 152.10 158.77 152.10 159.69 L 152.10 160.74 C 152.10 161.67 152.84 162.41 153.76 162.41 C 154.69 162.41 155.43 161.67 155.43 160.74 Z M 155.43 159.69 L 155.43 158.71 C 155.43 157.79 154.69 157.04 153.76 157.04 C 152.84 157.04 152.10 157.79 152.10 158.71 L 152.10 159.69 C 152.10 160.61 152.84 161.36 153.76 161.36 C 154.69 161.36 155.43 160.61 155.43 159.69 Z M 155.43 158.71 L 155.43 157.69 C 155.43 156.76 154.69 156.02 153.76 156.02 C 152.84 156.02 152.10 156.76 152.10 157.69 L 152.10 158.71 C 152.10 159.63 152.84 160.38 153.76 160.38 C 154.69 160.38 155.43 159.63 155.43 158.71 Z M 155.43 157.69 L 155.43 156.66 C 155.43 155.74 154.69 154.99 153.76 154.99 C 152.84 154.99 152.10 155.74 152.10 156.66 L 152.10 157.69 C 152.10 158.61 152.84 159.35 153.76 159.35 C 154.69 159.35 155.43 158.61 155.43 157.69 Z M 155.43 156.66 L 155.43 155.67 C 155.43 154.74 154.69 154.00 153.76 154.00 C 152.84 154.00 152.10 154.74 152.10 155.67 L 152.10 156.66 C 152.10 157.58 152.84 158.33 153.76 158.33 C 154.69 158.33 155.43 157.58 155.43 156.66 Z M 155.43 155.67 L 155.43 154.58 C 155.43 153.66 154.69 152.91 153.76 152.91 C 152.84 152.91 152.10 153.66 152.10 154.58 L 152.10 155.67 C 152.10 156.59 152.84 157.34 153.76 157.34 C 154.69 157.34 155.43 156.59 155.43 155.67 Z M 155.43 154.58 L 155.43 153.57 C 155.43 152.65 154.69 151.90 153.76 151.90 C 152.84 151.90 152.10 152.65 152.10 153.57 L 152.10 154.58 C 152.10 155.50 152.84 156.25 153.76 156.25 C 154.69 156.25 155.43 155.50 155.43 154.58 Z M 155.43 153.57 L 155.43 152.61 C 155.43 151.69 154.69 150.94 153.76 150.94 C 152.84 150.94 152.10 151.69 152.10 152.61 L 152.10 153.57 C 152.10 154.49 152.84 155.24 153.76 155.24 C 154.69 155.24 155.43 154.49 155.43 153.57 Z M 155.43 152.61 L 155.43 151.66 C 155.43 150.74 154.69 149.99 153.76 149.99 C 152.84 149.99 152.09 150.74 152.09 151.66 L 152.09 152.61 C 152.09 153.53 152.84 154.28 153.76 154.28 C 154.69 154.28 155.43 153.53 155.43 152.61 Z M 155.43 151.66 L 155.43 150.66 C 155.43 149.73 154.69 148.99 153.76 148.99 C 152.84 148.99 152.09 149.73 152.09 150.66 L 152.09 151.66 C 152.09 152.58 152.84 153.33 153.76 153.33 C 154.69 153.33 155.43 152.58 155.43 151.66 Z M 155.43 150.66 L 155.43 149.66 C 155.43 148.74 154.69 147.99 153.76 147.99 C 152.84 147.99 152.09 148.74 152.09 149.66 L 152.09 150.66 C 152.09 151.58 152.84 152.33 153.76 152.33 C 154.69 152.33 155.43 151.58 155.43 150.66 Z M 155.43 149.66 L 155.43 148.67 C 155.43 147.74 154.69 147.00 153.76 147.00 C 152.84 147.00 152.09 147.74 152.09 148.67 L 152.09 149.66 C 152.09 150.58 152.84 151.33 153.76 151.33 C 154.69 151.33 155.43 150.58 155.43 149.66 Z M 155.43 148.67 L 155.44 147.66 C 155.44 146.74 154.69 145.99 153.77 145.99 C 152.85 145.99 152.10 146.73 152.10 147.66 L 152.09 148.66 C 152.09 149.59 152.84 150.33 153.76 150.34 C 154.68 150.34 155.43 149.59 155.43 148.67 Z M 155.44 147.69 L 155.46 146.69 C 155.48 145.76 154.74 145.00 153.82 144.98 C 152.90 144.96 152.14 145.70 152.12 146.62 L 152.10 147.63 C 152.08 148.55 152.81 149.31 153.73 149.33 C 154.66 149.35 155.42 148.62 155.44 147.69 Z M 155.46 146.75 L 155.52 145.76 C 155.57 144.84 154.87 144.05 153.95 143.99 C 153.03 143.93 152.23 144.64 152.18 145.56 L 152.12 146.55 C 152.06 147.47 152.76 148.27 153.69 148.32 C 154.61 148.38 155.40 147.67 155.46 146.75 Z M 155.51 145.87 L 155.63 144.88 C 155.75 143.96 155.09 143.12 154.18 143.01 C 153.26 142.90 152.42 143.55 152.31 144.47 L 152.19 145.45 C 152.07 146.37 152.72 147.21 153.64 147.32 C 154.56 147.44 155.39 146.78 155.51 145.87 Z M 155.62 145.00 L 155.81 144.02 C 155.99 143.11 155.40 142.22 154.49 142.05 C 153.58 141.87 152.69 142.46 152.51 143.37 L 152.32 144.35 C 152.14 145.26 152.74 146.14 153.65 146.32 C 154.56 146.50 155.44 145.91 155.62 145.00 Z M 155.80 144.11 L 156.04 143.15 C 156.27 142.24 155.73 141.33 154.82 141.10 C 153.92 140.87 153.00 141.41 152.77 142.31 L 152.53 143.28 C 152.30 144.18 152.84 145.10 153.75 145.33 C 154.65 145.56 155.57 145.01 155.80 144.11 Z M 156.03 143.20 L 156.31 142.25 C 156.57 141.35 156.06 140.41 155.16 140.15 C 154.26 139.89 153.33 140.40 153.06 141.30 L 152.78 142.26 C 152.52 143.15 153.04 144.09 153.93 144.35 C 154.83 144.61 155.77 144.10 156.03 143.20 Z M 156.30 142.28 L 156.60 141.34 C 156.88 140.44 156.38 139.49 155.49 139.21 C 154.60 138.93 153.65 139.43 153.37 140.32 L 153.07 141.27 C 152.79 142.16 153.29 143.11 154.18 143.39 C 155.07 143.67 156.02 143.17 156.30 142.28 Z M 156.59 141.36 L 156.91 140.41 C 157.20 139.52 156.72 138.56 155.83 138.27 C 154.95 137.97 153.99 138.45 153.69 139.34 L 153.38 140.29 C 153.08 141.18 153.56 142.14 154.45 142.44 C 155.34 142.73 156.30 142.25 156.59 141.36 Z M 156.90 140.43 L 157.23 139.48 C 157.54 138.59 157.07 137.63 156.19 137.32 C 155.30 137.01 154.34 137.48 154.03 138.36 L 153.70 139.32 C 153.39 140.20 153.86 141.17 154.74 141.48 C 155.63 141.78 156.59 141.32 156.90 140.43 Z M 157.23 139.49 L 157.57 138.55 C 157.88 137.66 157.43 136.69 156.55 136.38 C 155.67 136.06 154.70 136.52 154.38 137.40 L 154.04 138.35 C 153.72 139.23 154.18 140.20 155.06 140.51 C 155.94 140.83 156.91 140.37 157.23 139.49 Z M 157.56 138.56 L 157.91 137.62 C 158.24 136.74 157.79 135.77 156.91 135.44 C 156.04 135.11 155.06 135.56 154.73 136.44 L 154.38 137.38 C 154.06 138.26 154.51 139.23 155.38 139.56 C 156.26 139.89 157.24 139.44 157.56 138.56 Z M 157.91 137.63 L 158.26 136.71 C 158.60 135.83 158.16 134.85 157.28 134.52 C 156.41 134.18 155.43 134.62 155.09 135.50 L 154.74 136.42 C 154.41 137.30 154.84 138.28 155.72 138.61 C 156.59 138.95 157.57 138.51 157.91 137.63 Z M 158.26 136.72 L 158.62 135.78 C 158.97 134.91 158.54 133.93 157.67 133.58 C 156.80 133.24 155.81 133.67 155.47 134.54 L 155.10 135.48 C 154.76 136.35 155.19 137.34 156.06 137.68 C 156.93 138.02 157.91 137.59 158.26 136.72 Z M 158.62 135.80 L 159.00 134.86 C 159.34 133.99 158.92 133.01 158.06 132.66 C 157.19 132.31 156.20 132.73 155.85 133.59 L 155.47 134.53 C 155.13 135.40 155.55 136.38 156.41 136.73 C 157.28 137.08 158.27 136.66 158.62 135.80 Z M 158.99 134.87 L 159.37 133.96 C 159.72 133.09 159.31 132.10 158.44 131.75 C 157.58 131.39 156.59 131.80 156.23 132.67 L 155.86 133.58 C 155.50 134.45 155.91 135.44 156.78 135.79 C 157.64 136.15 158.63 135.74 158.99 134.87 Z M 159.36 133.97 L 159.74 133.06 C 160.11 132.19 159.70 131.20 158.84 130.84 C 157.97 130.48 156.98 130.88 156.62 131.75 L 156.24 132.66 C 155.87 133.52 156.28 134.51 157.14 134.88 C 158.01 135.24 159.00 134.83 159.36 133.97 Z M 159.73 133.08 L 160.13 132.16 C 160.50 131.31 160.11 130.31 159.25 129.94 C 158.39 129.56 157.40 129.96 157.02 130.82 L 156.63 131.73 C 156.25 132.59 156.65 133.58 157.51 133.96 C 158.36 134.33 159.36 133.93 159.73 133.08 Z M 160.11 132.21 L 160.53 131.30 C 160.93 130.45 160.56 129.45 159.72 129.05 C 158.87 128.65 157.86 129.02 157.46 129.87 L 157.04 130.77 C 156.65 131.62 157.01 132.63 157.86 133.02 C 158.71 133.42 159.72 133.05 160.11 132.21 Z M 160.50 131.36 L 160.96 130.48 C 161.39 129.65 161.07 128.63 160.24 128.20 C 159.40 127.77 158.38 128.09 157.95 128.92 L 157.50 129.81 C 157.07 130.64 157.39 131.66 158.22 132.09 C 159.05 132.52 160.07 132.19 160.50 131.36 Z M 160.92 130.56 L 161.42 129.71 C 161.89 128.90 161.62 127.86 160.81 127.39 C 160.01 126.92 158.97 127.19 158.50 127.99 L 158.00 128.84 C 157.52 129.65 157.79 130.69 158.60 131.16 C 159.41 131.63 160.44 131.36 160.92 130.56 Z M 161.35 129.80 L 161.92 128.97 C 162.45 128.20 162.25 127.15 161.48 126.62 C 160.71 126.09 159.65 126.29 159.13 127.06 L 158.56 127.89 C 158.03 128.67 158.23 129.72 159.00 130.25 C 159.77 130.77 160.83 130.57 161.35 129.80 Z M 161.84 129.09 L 162.48 128.30 C 163.07 127.57 162.96 126.51 162.23 125.92 C 161.51 125.33 160.44 125.44 159.85 126.16 L 159.21 126.95 C 158.62 127.68 158.73 128.74 159.46 129.33 C 160.18 129.92 161.25 129.81 161.84 129.09 Z M 162.38 128.41 L 163.08 127.69 C 163.73 127.02 163.72 125.95 163.05 125.30 C 162.38 124.65 161.31 124.66 160.66 125.33 L 159.95 126.05 C 159.30 126.72 159.32 127.79 159.98 128.44 C 160.65 129.09 161.72 129.08 162.38 128.41 Z M 162.99 127.78 L 163.74 127.12 C 164.45 126.50 164.52 125.43 163.90 124.73 C 163.28 124.02 162.21 123.95 161.51 124.57 L 160.75 125.24 C 160.05 125.85 159.98 126.92 160.60 127.63 C 161.21 128.33 162.28 128.40 162.99 127.78 Z M 163.66 127.19 L 164.44 126.59 C 165.19 126.02 165.33 124.96 164.76 124.21 C 164.19 123.47 163.13 123.33 162.38 123.90 L 161.60 124.50 C 160.85 125.07 160.71 126.13 161.28 126.87 C 161.85 127.62 162.91 127.76 163.66 127.19 Z M 164.35 126.65 L 165.20 126.09 C 165.98 125.57 166.19 124.52 165.67 123.74 C 165.16 122.96 164.10 122.75 163.32 123.27 L 162.47 123.83 C 161.69 124.35 161.48 125.40 162.00 126.18 C 162.52 126.96 163.57 127.17 164.35 126.65 Z M 165.07 126.17 L 165.95 125.69 C 166.77 125.25 167.07 124.22 166.63 123.40 C 166.18 122.57 165.16 122.27 164.33 122.71 L 163.46 123.19 C 162.63 123.63 162.33 124.66 162.77 125.48 C 163.22 126.31 164.25 126.61 165.07 126.17 Z M 165.76 125.78 L 166.67 125.42 C 167.54 125.08 167.97 124.10 167.63 123.23 C 167.28 122.36 166.30 121.93 165.43 122.27 L 164.52 122.63 C 163.65 122.97 163.22 123.95 163.57 124.82 C 163.91 125.69 164.89 126.12 165.76 125.78 Z M 166.44 125.49 L 167.40 125.27 C 168.30 125.05 168.87 124.15 168.66 123.24 C 168.45 122.33 167.54 121.76 166.63 121.97 L 165.67 122.20 C 164.76 122.41 164.19 123.32 164.40 124.23 C 164.62 125.14 165.53 125.70 166.44 125.49 Z M 167.16 125.30 L 168.15 125.22 C 169.08 125.14 169.77 124.32 169.69 123.39 C 169.61 122.46 168.79 121.77 167.86 121.85 L 166.86 121.94 C 165.93 122.02 165.25 122.84 165.33 123.77 C 165.41 124.70 166.23 125.39 167.16 125.30 Z M 167.93 125.22 L 168.94 125.27 C 169.87 125.31 170.66 124.59 170.70 123.65 C 170.74 122.72 170.02 121.93 169.09 121.89 L 168.08 121.84 C 167.15 121.80 166.36 122.52 166.32 123.46 C 166.28 124.39 167.00 125.18 167.93 125.22 Z M 168.72 125.24 L 169.71 125.42 C 170.63 125.58 171.51 124.96 171.67 124.04 C 171.83 123.12 171.21 122.25 170.29 122.09 L 169.30 121.91 C 168.38 121.75 167.51 122.37 167.35 123.29 C 167.18 124.21 167.80 125.08 168.72 125.24 Z M 169.51 125.37 L 170.47 125.66 C 171.36 125.93 172.30 125.43 172.58 124.54 C 172.85 123.65 172.35 122.70 171.45 122.43 L 170.50 122.14 C 169.60 121.86 168.66 122.37 168.38 123.26 C 168.11 124.15 168.61 125.10 169.51 125.37 Z M 170.28 125.60 L 171.20 125.99 C 172.05 126.36 173.05 125.97 173.42 125.12 C 173.80 124.26 173.40 123.26 172.55 122.89 L 171.63 122.49 C 170.78 122.12 169.78 122.51 169.41 123.37 C 169.04 124.23 169.43 125.22 170.28 125.60 Z M 171.04 125.91 L 171.90 126.40 C 172.72 126.86 173.75 126.58 174.21 125.77 C 174.67 124.95 174.38 123.92 173.57 123.46 L 172.71 122.97 C 171.89 122.51 170.86 122.80 170.40 123.61 C 169.94 124.42 170.23 125.45 171.04 125.91 Z M 171.78 126.32 L 172.60 126.89 C 173.36 127.42 174.42 127.23 174.95 126.46 C 175.48 125.69 175.29 124.64 174.52 124.11 L 173.70 123.54 C 172.93 123.01 171.88 123.20 171.35 123.97 C 170.82 124.74 171.01 125.79 171.78 126.32 Z M 172.51 126.82 L 173.29 127.45 C 174.02 128.03 175.09 127.90 175.67 127.17 C 176.25 126.44 176.12 125.38 175.39 124.80 L 174.61 124.17 C 173.88 123.59 172.81 123.72 172.23 124.45 C 171.65 125.18 171.78 126.24 172.51 126.82 Z M 173.24 127.40 L 174.00 128.06 C 174.70 128.67 175.77 128.59 176.38 127.88 C 176.99 127.18 176.92 126.11 176.21 125.50 L 175.45 124.84 C 174.74 124.23 173.67 124.31 173.06 125.02 C 172.45 125.72 172.53 126.79 173.24 127.40 Z M 173.94 128.01 L 174.67 128.70 C 175.35 129.34 176.42 129.31 177.06 128.63 C 177.70 127.95 177.67 126.88 176.99 126.24 L 176.27 125.55 C 175.59 124.91 174.52 124.94 173.87 125.62 C 173.23 126.29 173.26 127.37 173.94 128.01 Z M 174.59 128.62 L 175.26 129.35 C 175.90 130.04 176.97 130.08 177.66 129.44 C 178.35 128.81 178.39 127.74 177.75 127.05 L 177.08 126.32 C 176.44 125.63 175.37 125.59 174.68 126.22 C 174.00 126.86 173.95 127.93 174.59 128.62 Z M 175.16 129.23 L 175.77 130.02 C 176.34 130.76 177.40 130.91 178.14 130.34 C 178.89 129.77 179.03 128.70 178.46 127.96 L 177.85 127.17 C 177.29 126.43 176.22 126.28 175.48 126.85 C 174.74 127.42 174.59 128.49 175.16 129.23 Z M 175.66 129.86 L 176.16 130.71 C 176.64 131.52 177.68 131.78 178.49 131.30 C 179.29 130.83 179.56 129.79 179.08 128.98 L 178.57 128.13 C 178.09 127.32 177.05 127.06 176.25 127.53 C 175.44 128.01 175.18 129.05 175.66 129.86 Z M 176.06 130.50 L 176.44 131.42 C 176.80 132.28 177.79 132.69 178.65 132.33 C 179.52 131.98 179.93 130.98 179.57 130.12 L 179.19 129.20 C 178.83 128.33 177.84 127.92 176.97 128.28 C 176.11 128.64 175.70 129.63 176.06 130.50 Z M 176.36 131.16 L 176.58 132.12 C 176.80 133.03 177.72 133.59 178.63 133.38 C 179.54 133.16 180.10 132.25 179.88 131.33 L 179.65 130.38 C 179.44 129.46 178.52 128.90 177.61 129.12 C 176.70 129.34 176.14 130.25 176.36 131.16 Z M 176.54 131.89 L 176.64 132.87 C 176.72 133.80 177.55 134.49 178.48 134.40 C 179.42 134.31 180.10 133.49 180.01 132.56 L 179.92 131.57 C 179.83 130.64 179.01 129.95 178.07 130.04 C 177.14 130.13 176.46 130.95 176.54 131.89 Z M 176.63 132.69 L 176.62 133.71 C 176.61 134.64 177.36 135.41 178.29 135.42 C 179.23 135.43 180.00 134.68 180.01 133.75 L 180.02 132.73 C 180.03 131.80 179.28 131.03 178.35 131.02 C 177.41 131.01 176.64 131.76 176.63 132.69 Z M 176.62 133.57 L 176.53 134.59 C 176.44 135.52 177.13 136.35 178.06 136.43 C 179.00 136.52 179.82 135.83 179.91 134.90 L 180.00 133.88 C 180.09 132.95 179.40 132.12 178.47 132.04 C 177.54 131.95 176.71 132.64 176.62 133.57 Z M 176.55 134.45 L 176.37 135.46 C 176.21 136.38 176.83 137.26 177.75 137.42 C 178.67 137.58 179.55 136.96 179.72 136.04 L 179.89 135.04 C 180.05 134.11 179.43 133.23 178.51 133.07 C 177.59 132.91 176.71 133.53 176.55 134.45 Z M 176.42 135.26 L 176.13 136.21 C 175.86 137.10 176.37 138.05 177.26 138.32 C 178.16 138.60 179.11 138.09 179.38 137.19 L 179.67 136.24 C 179.94 135.34 179.43 134.39 178.54 134.12 C 177.64 133.85 176.69 134.36 176.42 135.26 Z M 176.23 135.94 L 175.80 136.81 C 175.38 137.65 175.72 138.67 176.56 139.09 C 177.40 139.51 178.43 139.17 178.85 138.33 L 179.28 137.46 C 179.70 136.62 179.36 135.59 178.52 135.17 C 177.68 134.75 176.65 135.10 176.23 135.94 Z M 175.97 136.53 L 175.37 137.31 C 174.80 138.06 174.93 139.13 175.68 139.70 C 176.43 140.27 177.50 140.14 178.07 139.39 L 178.67 138.61 C 179.25 137.86 179.11 136.79 178.36 136.22 C 177.62 135.64 176.55 135.78 175.97 136.53 Z M 175.54 137.12 L 174.82 137.81 C 174.14 138.46 174.11 139.54 174.77 140.22 C 175.42 140.90 176.50 140.93 177.18 140.27 L 177.90 139.58 C 178.58 138.93 178.60 137.85 177.95 137.17 C 177.30 136.49 176.22 136.47 175.54 137.12 Z M 174.94 137.70 L 174.16 138.32 C 173.42 138.90 173.29 139.97 173.87 140.71 C 174.45 141.45 175.52 141.58 176.26 141.00 L 177.05 140.39 C 177.79 139.81 177.92 138.73 177.34 137.99 C 176.76 137.25 175.69 137.12 174.94 137.70 Z M 174.25 138.25 L 173.49 138.77 C 172.71 139.30 172.51 140.36 173.04 141.14 C 173.57 141.92 174.64 142.12 175.41 141.59 L 176.17 141.07 C 176.95 140.54 177.15 139.48 176.62 138.70 C 176.09 137.92 175.03 137.72 174.25 138.25 Z M 173.59 138.70 L 172.76 139.19 C 171.94 139.67 171.67 140.72 172.15 141.53 C 172.63 142.34 173.67 142.61 174.48 142.14 L 175.32 141.65 C 176.13 141.17 176.40 140.12 175.92 139.31 C 175.45 138.50 174.40 138.23 173.59 138.70 Z M 172.86 139.14 L 171.90 139.62 C 171.06 140.04 170.71 141.06 171.14 141.91 C 171.56 142.75 172.58 143.09 173.42 142.67 L 174.38 142.19 C 175.23 141.77 175.57 140.75 175.15 139.90 C 174.73 139.06 173.70 138.72 172.86 139.14 Z M 171.98 139.58 L 171.09 139.97 C 170.22 140.34 169.83 141.35 170.20 142.21 C 170.58 143.08 171.58 143.47 172.45 143.10 L 173.34 142.71 C 174.21 142.33 174.60 141.33 174.23 140.46 C 173.85 139.60 172.85 139.20 171.98 139.58 Z M 171.14 139.94 L 170.27 140.29 C 169.39 140.63 168.96 141.62 169.31 142.50 C 169.65 143.38 170.64 143.81 171.52 143.46 L 172.39 143.12 C 173.27 142.77 173.70 141.78 173.36 140.91 C 173.01 140.03 172.02 139.60 171.14 139.94 Z M 170.31 140.27 L 169.37 140.62 C 168.48 140.94 168.03 141.92 168.35 142.81 C 168.67 143.69 169.65 144.15 170.54 143.82 L 171.48 143.48 C 172.36 143.16 172.82 142.18 172.50 141.29 C 172.17 140.41 171.19 139.95 170.31 140.27 Z M 169.40 140.61 L 168.41 140.95 C 167.52 141.25 167.04 142.23 167.35 143.12 C 167.65 144.01 168.63 144.48 169.52 144.18 L 170.51 143.83 C 171.40 143.53 171.87 142.56 171.57 141.67 C 171.26 140.77 170.29 140.30 169.40 140.61 Z M 168.43 140.94 L 167.41 141.27 C 166.51 141.56 166.02 142.53 166.32 143.42 C 166.61 144.32 167.57 144.81 168.47 144.52 L 169.49 144.18 C 170.39 143.89 170.88 142.93 170.58 142.03 C 170.29 141.14 169.33 140.65 168.43 140.94 Z M 167.43 141.27 L 166.41 141.58 C 165.51 141.86 165.01 142.82 165.29 143.72 C 165.57 144.62 166.53 145.12 167.43 144.84 L 168.45 144.52 C 169.35 144.24 169.85 143.29 169.57 142.39 C 169.29 141.49 168.33 140.99 167.43 141.27 Z M 166.43 141.58 L 165.42 141.88 C 164.52 142.16 164.01 143.11 164.28 144.01 C 164.55 144.91 165.51 145.42 166.41 145.15 L 167.42 144.85 C 168.32 144.57 168.83 143.62 168.56 142.72 C 168.28 141.82 167.33 141.31 166.43 141.58 Z M 165.43 141.88 L 164.45 142.17 C 163.54 142.44 163.03 143.39 163.30 144.29 C 163.56 145.20 164.51 145.71 165.42 145.44 L 166.40 145.15 C 167.30 144.88 167.82 143.93 167.55 143.03 C 167.28 142.13 166.33 141.61 165.43 141.88 Z M 164.45 142.17 L 163.51 142.45 C 162.60 142.72 162.09 143.67 162.36 144.57 C 162.62 145.47 163.57 145.99 164.48 145.72 L 165.42 145.44 C 166.32 145.18 166.84 144.23 166.57 143.32 C 166.30 142.42 165.35 141.90 164.45 142.17 Z M 163.50 142.45 L 162.63 142.71 C 161.72 142.99 161.21 143.94 161.48 144.84 C 161.75 145.74 162.70 146.25 163.61 145.98 L 164.48 145.72 C 165.39 145.45 165.90 144.50 165.63 143.60 C 165.36 142.69 164.40 142.18 163.50 142.45 Z M 162.61 142.72 L 161.56 143.05 C 160.66 143.33 160.16 144.29 160.44 145.19 C 160.73 146.08 161.68 146.59 162.58 146.30 L 163.63 145.98 C 164.53 145.70 165.03 144.74 164.75 143.84 C 164.46 142.94 163.51 142.44 162.61 142.72 Z M 161.53 143.06 L 160.56 143.38 C 159.67 143.68 159.19 144.65 159.49 145.54 C 159.79 146.43 160.75 146.92 161.65 146.62 L 162.62 146.29 C 163.51 145.99 163.99 145.03 163.69 144.13 C 163.39 143.24 162.43 142.76 161.53 143.06 Z M 160.52 143.39 L 159.64 143.71 C 158.76 144.04 158.30 145.01 158.62 145.90 C 158.94 146.79 159.92 147.24 160.81 146.92 L 161.69 146.60 C 162.57 146.28 163.03 145.30 162.71 144.42 C 162.39 143.53 161.41 143.07 160.52 143.39 Z M 159.60 143.73 L 158.74 144.07 C 157.86 144.42 157.43 145.41 157.77 146.28 C 158.12 147.16 159.11 147.59 159.99 147.25 L 160.85 146.91 C 161.73 146.56 162.16 145.57 161.81 144.69 C 161.47 143.82 160.48 143.39 159.60 143.73 Z M 158.69 144.09 L 157.77 144.49 C 156.90 144.86 156.50 145.86 156.88 146.73 C 157.25 147.59 158.25 147.99 159.12 147.62 L 160.04 147.23 C 160.90 146.85 161.30 145.85 160.93 144.98 C 160.56 144.12 159.55 143.72 158.69 144.09 Z M 157.70 144.52 L 156.80 144.95 C 155.95 145.36 155.60 146.39 156.01 147.23 C 156.42 148.08 157.44 148.44 158.29 148.02 L 159.19 147.59 C 160.04 147.18 160.39 146.16 159.98 145.31 C 159.57 144.46 158.55 144.11 157.70 144.52 Z M 156.72 145.00 L 155.84 145.48 C 155.02 145.94 154.72 146.98 155.18 147.81 C 155.64 148.63 156.68 148.92 157.50 148.47 L 158.38 147.98 C 159.20 147.52 159.50 146.48 159.04 145.66 C 158.58 144.83 157.54 144.54 156.72 145.00 Z M 155.75 145.54 L 154.95 146.06 C 154.16 146.57 153.93 147.62 154.44 148.41 C 154.96 149.21 156.01 149.43 156.80 148.92 L 157.60 148.41 C 158.39 147.90 158.62 146.84 158.11 146.05 C 157.60 145.26 156.54 145.03 155.75 145.54 Z M 154.86 146.12 L 154.07 146.71 C 153.32 147.27 153.16 148.34 153.72 149.09 C 154.29 149.85 155.35 150.01 156.11 149.44 L 156.90 148.86 C 157.65 148.29 157.81 147.23 157.25 146.47 C 156.68 145.71 155.61 145.56 154.86 146.12 Z M 153.98 146.78 L 153.19 147.45 C 152.48 148.06 152.39 149.14 153.00 149.86 C 153.61 150.57 154.69 150.66 155.41 150.05 L 156.20 149.37 C 156.91 148.76 157.00 147.68 156.39 146.97 C 155.78 146.25 154.70 146.17 153.98 146.78 Z M 153.12 147.52 L 152.39 148.22 C 151.71 148.87 151.69 149.95 152.34 150.63 C 152.99 151.31 154.07 151.33 154.75 150.68 L 155.48 149.98 C 156.16 149.33 156.18 148.25 155.53 147.57 C 154.88 146.89 153.80 146.87 153.12 147.52 Z M 152.34 148.27 L 151.65 148.99 C 151.00 149.67 151.03 150.75 151.71 151.40 C 152.39 152.05 153.47 152.02 154.12 151.34 L 154.81 150.62 C 155.46 149.94 155.43 148.86 154.75 148.21 C 154.06 147.56 152.99 147.59 152.34 148.27 Z M 151.61 149.04 L 150.94 149.80 C 150.31 150.51 150.38 151.59 151.09 152.21 C 151.80 152.83 152.87 152.76 153.50 152.06 L 154.17 151.29 C 154.79 150.59 154.72 149.51 154.01 148.89 C 153.31 148.26 152.23 148.33 151.61 149.04 Z M 150.89 149.85 L 150.25 150.64 C 149.66 151.37 149.76 152.44 150.49 153.04 C 151.22 153.63 152.30 153.53 152.89 152.80 L 153.54 152.01 C 154.13 151.28 154.02 150.21 153.29 149.61 C 152.56 149.01 151.49 149.12 150.89 149.85 Z M 150.21 150.69 L 149.61 151.49 C 149.04 152.24 149.19 153.31 149.94 153.88 C 150.69 154.45 151.76 154.30 152.33 153.55 L 152.93 152.75 C 153.50 151.99 153.35 150.92 152.60 150.36 C 151.85 149.79 150.78 149.94 150.21 150.69 Z M 149.57 151.55 L 149.00 152.36 C 148.47 153.14 148.66 154.20 149.44 154.73 C 150.21 155.27 151.27 155.08 151.81 154.30 L 152.37 153.49 C 152.91 152.71 152.71 151.65 151.94 151.12 C 151.16 150.58 150.10 150.77 149.57 151.55 Z M 148.96 152.42 L 148.44 153.25 C 147.94 154.05 148.17 155.10 148.97 155.61 C 149.77 156.11 150.82 155.87 151.32 155.07 L 151.85 154.24 C 152.35 153.45 152.11 152.39 151.32 151.89 C 150.52 151.39 149.47 151.62 148.96 152.42 Z M 148.40 153.31 L 147.90 154.18 C 147.43 155.00 147.71 156.04 148.52 156.51 C 149.34 156.98 150.38 156.70 150.85 155.89 L 151.36 155.02 C 151.83 154.20 151.55 153.16 150.74 152.69 C 149.92 152.22 148.88 152.49 148.40 153.31 Z M 147.87 154.23 L 147.40 155.11 C 146.96 155.94 147.27 156.97 148.10 157.42 C 148.93 157.86 149.96 157.55 150.41 156.72 L 150.88 155.84 C 151.33 155.01 151.01 153.98 150.18 153.53 C 149.35 153.09 148.32 153.40 147.87 154.23 Z M 147.38 155.15 L 146.94 156.02 C 146.52 156.87 146.86 157.89 147.70 158.32 C 148.54 158.74 149.57 158.40 149.99 157.56 L 150.43 156.68 C 150.85 155.84 150.51 154.81 149.67 154.39 C 148.83 153.96 147.81 154.30 147.38 155.15 Z M 146.92 156.06 L 146.49 156.97 C 146.09 157.83 146.45 158.84 147.31 159.25 C 148.16 159.65 149.18 159.28 149.58 158.43 L 150.01 157.52 C 150.41 156.67 150.05 155.65 149.19 155.25 C 148.34 154.85 147.32 155.21 146.92 156.06 Z M 146.47 157.01 L 146.06 157.94 C 145.68 158.81 146.07 159.81 146.93 160.19 C 147.80 160.58 148.80 160.19 149.18 159.32 L 149.60 158.39 C 149.98 157.53 149.59 156.52 148.72 156.14 C 147.86 155.76 146.86 156.15 146.47 157.01 Z M 146.05 157.99 L 145.66 158.92 C 145.30 159.79 145.72 160.79 146.59 161.15 C 147.46 161.51 148.46 161.09 148.82 160.22 L 149.20 159.28 C 149.56 158.41 149.14 157.41 148.27 157.06 C 147.40 156.70 146.40 157.11 146.05 157.99 Z M 145.64 158.97 L 145.29 159.90 C 144.96 160.78 145.40 161.76 146.28 162.10 C 147.16 162.43 148.15 161.99 148.48 161.10 L 148.83 160.17 C 149.17 159.29 148.72 158.31 147.84 157.98 C 146.96 157.64 145.98 158.09 145.64 158.97 Z M 145.27 159.95 L 144.95 160.88 C 144.64 161.77 145.12 162.74 146.01 163.05 C 146.90 163.36 147.87 162.88 148.18 161.99 L 148.50 161.06 C 148.81 160.17 148.33 159.19 147.44 158.89 C 146.55 158.58 145.58 159.05 145.27 159.95 Z M 144.94 160.93 L 144.64 161.88 C 144.36 162.78 144.86 163.73 145.76 164.01 C 146.66 164.29 147.62 163.79 147.90 162.89 L 148.19 161.94 C 148.47 161.04 147.97 160.09 147.07 159.81 C 146.17 159.53 145.21 160.03 144.94 160.93 Z M 144.63 161.93 L 144.36 162.90 C 144.10 163.81 144.63 164.75 145.54 165.00 C 146.45 165.25 147.39 164.72 147.64 163.82 L 147.91 162.84 C 148.17 161.93 147.63 160.99 146.73 160.74 C 145.82 160.49 144.88 161.02 144.63 161.93 Z M 144.34 162.95 L 144.10 163.93 C 143.87 164.84 144.43 165.77 145.34 166.00 C 146.26 166.22 147.18 165.67 147.41 164.75 L 147.65 163.77 C 147.88 162.85 147.32 161.93 146.41 161.70 C 145.49 161.48 144.57 162.03 144.34 162.95 Z M 144.09 163.97 L 143.87 164.96 C 143.67 165.88 144.25 166.79 145.17 167.00 C 146.09 167.20 147.00 166.62 147.20 165.70 L 147.42 164.71 C 147.63 163.79 147.05 162.88 146.13 162.68 C 145.21 162.47 144.29 163.05 144.09 163.97 Z M 143.86 165.00 L 143.66 165.99 C 143.48 166.92 144.08 167.82 145.00 168.00 C 145.92 168.19 146.82 167.59 147.01 166.66 L 147.21 165.67 C 147.39 164.74 146.79 163.84 145.87 163.66 C 144.95 163.47 144.05 164.07 143.86 165.00 Z M 143.66 166.02 L 143.48 167.01 C 143.31 167.94 143.93 168.83 144.85 168.99 C 145.78 169.16 146.67 168.55 146.84 167.62 L 147.02 166.63 C 147.18 165.70 146.57 164.82 145.64 164.65 C 144.71 164.48 143.82 165.10 143.66 166.02 Z M 143.47 167.04 L 143.32 168.00 C 143.17 168.93 143.80 169.81 144.73 169.96 C 145.66 170.11 146.54 169.48 146.69 168.55 L 146.84 167.59 C 146.99 166.66 146.36 165.78 145.43 165.63 C 144.50 165.48 143.62 166.11 143.47 167.04 Z M 143.31 168.03 L 143.16 169.06 C 143.03 169.99 143.68 170.86 144.61 170.99 C 145.55 171.13 146.41 170.48 146.54 169.54 L 146.69 168.52 C 146.83 167.58 146.18 166.72 145.24 166.58 C 144.31 166.45 143.45 167.10 143.31 168.03 Z M 143.16 169.09 L 143.04 170.09 C 142.92 171.03 143.59 171.88 144.52 171.99 C 145.46 172.11 146.31 171.44 146.43 170.51 L 146.55 169.51 C 146.67 168.57 146.00 167.72 145.06 167.61 C 144.13 167.49 143.28 168.16 143.16 169.09 Z M 143.03 170.12 L 142.93 171.09 C 142.83 172.03 143.51 172.87 144.45 172.97 C 145.39 173.07 146.23 172.39 146.33 171.45 L 146.43 170.48 C 146.53 169.54 145.85 168.70 144.91 168.60 C 143.97 168.50 143.13 169.18 143.03 170.12 Z M 142.93 171.12 L 142.84 172.09 C 142.76 173.03 143.45 173.86 144.39 173.95 C 145.33 174.03 146.16 173.34 146.24 172.40 L 146.33 171.43 C 146.42 170.49 145.72 169.65 144.78 169.57 C 143.84 169.49 143.01 170.18 142.93 171.12 Z M 142.84 172.11 L 142.76 173.09 C 142.69 174.03 143.39 174.85 144.33 174.93 C 145.27 175.00 146.10 174.30 146.17 173.36 L 146.25 172.38 C 146.32 171.44 145.62 170.61 144.68 170.54 C 143.74 170.47 142.91 171.17 142.84 172.11 Z M 142.76 173.11 L 142.69 174.10 C 142.62 175.05 143.34 175.86 144.28 175.93 C 145.22 175.99 146.04 175.28 146.10 174.34 L 146.17 173.34 C 146.24 172.40 145.52 171.58 144.58 171.52 C 143.64 171.45 142.82 172.16 142.76 173.11 Z M 142.69 174.12 L 142.63 175.13 C 142.57 176.07 143.30 176.88 144.24 176.94 C 145.19 176.99 146.00 176.27 146.05 175.32 L 146.11 174.32 C 146.16 173.37 145.44 172.56 144.49 172.51 C 143.55 172.45 142.74 173.18 142.69 174.12 Z M 142.63 175.15 L 142.58 176.16 C 142.54 177.10 143.27 177.90 144.22 177.95 C 145.17 177.99 145.97 177.25 146.01 176.31 L 146.05 175.30 C 146.10 174.35 145.36 173.55 144.42 173.51 C 143.47 173.47 142.67 174.20 142.63 175.15 Z M 142.58 176.18 L 142.55 177.19 C 142.52 178.14 143.27 178.93 144.22 178.96 C 145.16 178.99 145.95 178.24 145.98 177.30 L 146.01 176.28 C 146.04 175.33 145.29 174.54 144.35 174.51 C 143.40 174.49 142.61 175.23 142.58 176.18 Z M 142.55 177.22 L 142.53 178.23 C 142.52 179.18 143.27 179.96 144.22 179.97 C 145.17 179.99 145.95 179.23 145.97 178.28 L 145.98 177.27 C 146.00 176.33 145.24 175.54 144.29 175.53 C 143.35 175.51 142.56 176.27 142.55 177.22 Z M 142.53 178.24 L 142.52 179.24 C 142.52 180.19 143.28 180.97 144.23 180.97 C 145.18 180.98 145.95 180.22 145.96 179.27 L 145.97 178.27 C 145.97 177.32 145.21 176.54 144.26 176.54 C 143.31 176.53 142.54 177.29 142.53 178.24 Z M 142.52 179.25 L 142.52 180.24 C 142.52 181.19 143.29 181.96 144.24 181.96 C 145.19 181.96 145.96 181.19 145.96 180.25 L 145.96 179.26 C 145.96 178.31 145.19 177.54 144.24 177.54 C 143.30 177.54 142.52 178.30 142.52 179.25 Z M 142.52 180.24 L 142.52 181.26 C 142.52 182.20 143.29 182.97 144.24 182.97 C 145.19 182.97 145.96 182.20 145.96 181.25 L 145.96 180.24 C 145.96 179.29 145.19 178.52 144.24 178.52 C 143.29 178.52 142.52 179.29 142.52 180.24 Z M 142.52 181.28 L 142.54 182.30 C 142.55 183.25 143.33 184.01 144.28 183.99 C 145.23 183.98 145.98 183.20 145.97 182.25 L 145.96 181.23 C 145.95 180.28 145.17 179.52 144.22 179.54 C 143.27 179.55 142.51 180.33 142.52 181.28 Z M 142.54 182.36 L 142.58 183.35 C 142.63 184.30 143.43 185.03 144.38 184.99 C 145.33 184.94 146.06 184.14 146.02 183.19 L 145.97 182.19 C 145.93 181.25 145.12 180.51 144.17 180.56 C 143.22 180.60 142.49 181.41 142.54 182.36 Z M 142.59 183.45 L 142.70 184.42 C 142.80 185.36 143.64 186.04 144.59 185.94 C 145.53 185.84 146.21 185.00 146.11 184.05 L 146.01 183.09 C 145.91 182.14 145.06 181.46 144.12 181.56 C 143.17 181.66 142.49 182.51 142.59 183.45 Z M 142.72 184.57 L 142.91 185.57 C 143.10 186.50 144.00 187.11 144.93 186.92 C 145.86 186.74 146.47 185.84 146.29 184.91 L 146.09 183.90 C 145.91 182.97 145.01 182.37 144.07 182.55 C 143.14 182.73 142.54 183.63 142.72 184.57 Z M 142.96 185.74 L 143.25 186.71 C 143.53 187.62 144.49 188.13 145.40 187.85 C 146.30 187.58 146.82 186.62 146.54 185.71 L 146.24 184.74 C 145.97 183.83 145.01 183.32 144.10 183.59 C 143.19 183.87 142.68 184.83 142.96 185.74 Z M 143.31 186.88 L 143.70 187.79 C 144.07 188.66 145.08 189.07 145.95 188.69 C 146.83 188.32 147.23 187.31 146.86 186.44 L 146.48 185.54 C 146.11 184.66 145.10 184.26 144.22 184.63 C 143.35 185.00 142.94 186.01 143.31 186.88 Z M 143.79 187.97 L 144.27 188.81 C 144.74 189.64 145.79 189.93 146.62 189.46 C 147.44 188.98 147.73 187.93 147.26 187.11 L 146.77 186.26 C 146.30 185.44 145.25 185.15 144.43 185.62 C 143.60 186.09 143.32 187.14 143.79 187.97 Z M 144.40 189.00 L 145.01 189.80 C 145.58 190.56 146.66 190.71 147.41 190.14 C 148.17 189.56 148.32 188.48 147.75 187.73 L 147.14 186.92 C 146.56 186.17 145.48 186.02 144.73 186.59 C 143.97 187.17 143.82 188.24 144.40 189.00 Z M 145.16 189.98 L 145.86 190.68 C 146.53 191.35 147.62 191.35 148.29 190.68 C 148.96 190.01 148.96 188.92 148.29 188.25 L 147.59 187.55 C 146.92 186.88 145.83 186.88 145.16 187.55 C 144.49 188.22 144.49 189.31 145.16 189.98 Z M 146.03 190.83 L 146.78 191.41 C 147.53 191.99 148.61 191.85 149.19 191.10 C 149.77 190.34 149.63 189.26 148.88 188.68 L 148.12 188.10 C 147.37 187.52 146.29 187.66 145.71 188.42 C 145.13 189.17 145.27 190.25 146.03 190.83 Z M 146.96 191.53 L 147.69 191.96 C 148.51 192.44 149.56 192.17 150.04 191.35 C 150.53 190.53 150.25 189.47 149.43 188.99 L 148.70 188.56 C 147.88 188.08 146.83 188.36 146.35 189.18 C 145.86 189.99 146.14 191.05 146.96 191.53 Z M 147.89 192.06 L 148.76 192.43 C 149.64 192.79 150.65 192.38 151.01 191.51 C 151.38 190.63 150.97 189.62 150.09 189.25 L 149.23 188.89 C 148.35 188.52 147.34 188.93 146.97 189.81 C 146.61 190.69 147.02 191.69 147.89 192.06 Z M 148.96 192.50 L 150.03 192.79 C 150.94 193.05 151.89 192.52 152.15 191.60 C 152.40 190.69 151.87 189.74 150.95 189.48 L 149.89 189.18 C 148.98 188.93 148.03 189.46 147.77 190.38 C 147.51 191.29 148.05 192.24 148.96 192.50 Z M 150.18 192.83 L 151.26 193.03 C 152.20 193.20 153.10 192.58 153.27 191.64 C 153.44 190.71 152.82 189.81 151.88 189.64 L 150.80 189.44 C 149.86 189.27 148.97 189.89 148.80 190.83 C 148.63 191.76 149.25 192.66 150.18 192.83 Z M 151.36 193.04 L 152.33 193.16 C 153.27 193.28 154.13 192.61 154.25 191.67 C 154.37 190.73 153.70 189.87 152.76 189.75 L 151.79 189.63 C 150.84 189.51 149.98 190.18 149.87 191.12 C 149.75 192.06 150.42 192.92 151.36 193.04 Z M 152.39 193.17 L 153.43 193.26 C 154.37 193.34 155.21 192.64 155.29 191.70 C 155.37 190.75 154.67 189.91 153.73 189.83 L 152.69 189.74 C 151.75 189.66 150.91 190.36 150.83 191.31 C 150.75 192.25 151.45 193.09 152.39 193.17 Z M 153.48 193.26 L 154.54 193.32 C 155.49 193.37 156.30 192.64 156.35 191.69 C 156.40 190.75 155.67 189.94 154.72 189.88 L 153.67 189.83 C 152.72 189.78 151.91 190.51 151.86 191.45 C 151.81 192.40 152.54 193.21 153.48 193.26 Z M 154.59 193.32 L 155.62 193.34 C 156.57 193.36 157.36 192.61 157.38 191.66 C 157.40 190.71 156.64 189.92 155.69 189.90 L 154.66 189.88 C 153.71 189.86 152.93 190.62 152.91 191.57 C 152.89 192.52 153.64 193.30 154.59 193.32 Z M 155.69 193.34 L 156.65 193.33 C 157.60 193.31 158.36 192.52 158.34 191.57 C 158.33 190.62 157.54 189.87 156.59 189.89 L 155.63 189.90 C 154.68 189.92 153.92 190.70 153.94 191.65 C 153.96 192.60 154.74 193.36 155.69 193.34 Z M 156.75 193.32 L 157.86 193.24 C 158.81 193.17 159.52 192.34 159.45 191.39 C 159.38 190.45 158.55 189.74 157.61 189.81 L 156.50 189.89 C 155.55 189.96 154.84 190.79 154.91 191.73 C 154.98 192.68 155.81 193.39 156.75 193.32 Z M 158.00 193.22 L 159.02 193.06 C 159.96 192.91 160.60 192.03 160.45 191.09 C 160.30 190.16 159.42 189.52 158.49 189.66 L 157.47 189.82 C 156.53 189.97 155.89 190.85 156.04 191.79 C 156.19 192.73 157.07 193.37 158.00 193.22 Z M 159.17 193.03 L 160.08 192.80 C 161.00 192.57 161.56 191.64 161.33 190.72 C 161.10 189.80 160.17 189.24 159.25 189.47 L 158.34 189.70 C 157.42 189.93 156.86 190.86 157.09 191.78 C 157.32 192.70 158.25 193.26 159.17 193.03 Z M 160.20 192.76 L 161.07 192.48 C 161.97 192.18 162.46 191.21 162.16 190.31 C 161.86 189.41 160.89 188.92 159.99 189.22 L 159.13 189.50 C 158.23 189.80 157.74 190.77 158.03 191.67 C 158.33 192.57 159.30 193.06 160.20 192.76 Z M 161.13 192.45 L 161.99 192.13 C 162.87 191.80 163.32 190.81 162.99 189.92 C 162.65 189.04 161.67 188.59 160.78 188.92 L 159.93 189.24 C 159.04 189.58 158.59 190.57 158.93 191.45 C 159.26 192.34 160.25 192.79 161.13 192.45 Z M 162.03 192.11 L 162.91 191.76 C 163.78 191.40 164.21 190.40 163.85 189.53 C 163.50 188.65 162.50 188.23 161.62 188.58 L 160.74 188.94 C 159.86 189.29 159.44 190.29 159.80 191.17 C 160.15 192.05 161.15 192.47 162.03 192.11 Z M 162.94 191.75 L 163.86 191.35 C 164.73 190.98 165.13 189.98 164.76 189.11 C 164.39 188.24 163.39 187.83 162.52 188.20 L 161.59 188.59 C 160.72 188.97 160.32 189.97 160.69 190.84 C 161.06 191.71 162.07 192.12 162.94 191.75 Z M 163.88 191.34 L 164.85 190.91 C 165.71 190.53 166.10 189.52 165.72 188.66 C 165.34 187.79 164.33 187.40 163.46 187.78 L 162.50 188.21 C 161.63 188.59 161.24 189.60 161.62 190.47 C 162.01 191.33 163.02 191.72 163.88 191.34 Z M 164.86 190.91 L 165.79 190.48 C 166.65 190.09 167.04 189.08 166.65 188.22 C 166.26 187.36 165.24 186.98 164.38 187.37 L 163.45 187.79 C 162.59 188.18 162.21 189.19 162.60 190.05 C 162.99 190.91 164.00 191.30 164.86 190.91 Z M 165.80 190.48 L 166.66 190.08 C 167.52 189.69 167.89 188.67 167.49 187.81 C 167.10 186.96 166.08 186.58 165.23 186.98 L 164.37 187.38 C 163.52 187.77 163.14 188.79 163.54 189.64 C 163.93 190.50 164.95 190.87 165.80 190.48 Z M 166.67 190.07 L 167.55 189.66 C 168.41 189.26 168.77 188.24 168.37 187.39 C 167.97 186.54 166.95 186.17 166.10 186.57 L 165.22 186.99 C 164.37 187.39 164.00 188.40 164.40 189.26 C 164.80 190.11 165.82 190.48 166.67 190.07 Z M 167.57 189.65 L 168.48 189.21 C 169.32 188.81 169.68 187.79 169.27 186.94 C 168.87 186.09 167.85 185.73 167.00 186.14 L 166.09 186.58 C 165.24 186.99 164.88 188.00 165.29 188.85 C 165.70 189.70 166.72 190.06 167.57 189.65 Z M 168.49 189.21 L 169.42 188.75 C 170.27 188.33 170.62 187.31 170.20 186.47 C 169.79 185.63 168.77 185.28 167.92 185.69 L 166.99 186.15 C 166.14 186.56 165.80 187.58 166.21 188.43 C 166.62 189.27 167.64 189.62 168.49 189.21 Z M 169.44 188.74 L 170.38 188.26 C 171.22 187.84 171.56 186.82 171.13 185.98 C 170.71 185.14 169.69 184.81 168.85 185.23 L 167.91 185.70 C 167.07 186.12 166.73 187.14 167.16 187.98 C 167.58 188.82 168.60 189.16 169.44 188.74 Z M 170.39 188.26 L 171.25 187.81 C 172.08 187.39 172.41 186.36 171.98 185.53 C 171.56 184.70 170.53 184.37 169.70 184.79 L 168.84 185.24 C 168.01 185.66 167.68 186.69 168.11 187.52 C 168.53 188.35 169.56 188.68 170.39 188.26 Z M 171.26 187.81 L 172.13 187.35 C 172.96 186.91 173.28 185.89 172.85 185.06 C 172.41 184.23 171.39 183.91 170.56 184.35 L 169.69 184.80 C 168.86 185.24 168.54 186.26 168.97 187.09 C 169.41 187.92 170.43 188.24 171.26 187.81 Z M 172.14 187.34 L 173.03 186.87 C 173.85 186.43 174.16 185.40 173.72 184.58 C 173.28 183.76 172.26 183.44 171.43 183.88 L 170.55 184.36 C 169.73 184.80 169.42 185.82 169.86 186.64 C 170.29 187.47 171.32 187.78 172.14 187.34 Z M 173.04 186.86 L 173.93 186.38 C 174.75 185.93 175.05 184.90 174.60 184.09 C 174.16 183.27 173.13 182.96 172.31 183.41 L 171.42 183.89 C 170.60 184.34 170.30 185.36 170.75 186.18 C 171.19 187.00 172.22 187.31 173.04 186.86 Z M 173.94 186.37 L 174.83 185.87 C 175.65 185.42 175.94 184.39 175.49 183.58 C 175.04 182.77 174.01 182.47 173.20 182.92 L 172.30 183.42 C 171.49 183.87 171.19 184.89 171.65 185.71 C 172.10 186.52 173.12 186.82 173.94 186.37 Z M 174.84 185.86 L 175.73 185.36 C 176.54 184.91 176.82 183.88 176.37 183.07 C 175.91 182.26 174.88 181.97 174.07 182.43 L 173.19 182.93 C 172.38 183.39 172.09 184.41 172.55 185.22 C 173.00 186.03 174.03 186.32 174.84 185.86 Z M 175.74 185.35 L 176.59 184.86 C 177.40 184.40 177.68 183.37 177.21 182.57 C 176.75 181.76 175.72 181.49 174.92 181.95 L 174.06 182.44 C 173.26 182.90 172.98 183.93 173.44 184.73 C 173.91 185.54 174.93 185.82 175.74 185.35 Z M 176.60 184.85 L 177.46 184.35 C 178.26 183.89 178.52 182.86 178.06 182.06 C 177.59 181.26 176.56 180.99 175.76 181.46 L 174.91 181.96 C 174.11 182.43 173.84 183.45 174.31 184.25 C 174.78 185.05 175.80 185.32 176.60 184.85 Z M 177.47 184.34 L 178.32 183.83 C 179.11 183.36 179.37 182.34 178.90 181.54 C 178.43 180.75 177.40 180.49 176.61 180.96 L 175.76 181.47 C 174.96 181.94 174.70 182.97 175.17 183.76 C 175.65 184.55 176.67 184.81 177.47 184.34 Z M 178.33 183.82 L 179.18 183.30 C 179.97 182.83 180.22 181.80 179.75 181.01 C 179.27 180.23 178.24 179.97 177.46 180.45 L 176.60 180.97 C 175.81 181.45 175.56 182.47 176.04 183.26 C 176.52 184.05 177.54 184.30 178.33 183.82 Z M 179.19 183.29 L 180.05 182.76 C 180.84 182.28 181.08 181.26 180.60 180.47 C 180.11 179.69 179.09 179.45 178.31 179.93 L 177.45 180.46 C 176.66 180.94 176.42 181.97 176.90 182.75 C 177.39 183.53 178.41 183.78 179.19 183.29 Z M 180.06 182.75 L 180.93 182.21 C 181.70 181.72 181.94 180.70 181.45 179.92 C 180.96 179.15 179.94 178.91 179.16 179.40 L 178.30 179.94 C 177.52 180.43 177.29 181.45 177.77 182.23 C 178.26 183.01 179.29 183.24 180.06 182.75 Z M 180.93 182.20 L 181.76 181.67 C 182.54 181.18 182.76 180.16 182.27 179.39 C 181.78 178.61 180.75 178.39 179.98 178.88 L 179.15 179.41 C 178.38 179.90 178.16 180.93 178.65 181.70 C 179.14 182.47 180.16 182.69 180.93 182.20 Z M 181.77 181.66 L 182.60 181.12 C 183.37 180.63 183.59 179.60 183.09 178.84 C 182.59 178.07 181.57 177.86 180.81 178.35 L 179.98 178.89 C 179.21 179.39 178.99 180.41 179.49 181.17 C 179.98 181.94 181.01 182.16 181.77 181.66 Z M 182.61 181.11 L 183.44 180.56 C 184.20 180.06 184.41 179.04 183.91 178.28 C 183.41 177.52 182.39 177.31 181.63 177.81 L 180.80 178.36 C 180.04 178.86 179.83 179.88 180.33 180.64 C 180.83 181.40 181.85 181.61 182.61 181.11 Z M 183.45 180.55 L 184.29 179.99 C 185.04 179.49 185.24 178.47 184.74 177.72 C 184.23 176.96 183.21 176.76 182.46 177.26 L 181.62 177.82 C 180.87 178.33 180.67 179.35 181.17 180.10 C 181.68 180.86 182.70 181.06 183.45 180.55 Z M 184.29 179.98 L 185.13 179.42 C 185.88 178.91 186.07 177.89 185.56 177.14 C 185.05 176.39 184.03 176.20 183.28 176.71 L 182.45 177.28 C 181.70 177.78 181.51 178.80 182.02 179.55 C 182.53 180.30 183.55 180.49 184.29 179.98 Z M 185.14 179.40 L 185.97 178.83 C 186.71 178.32 186.89 177.30 186.38 176.56 C 185.86 175.82 184.85 175.63 184.11 176.14 L 183.28 176.72 C 182.53 177.23 182.35 178.25 182.86 178.99 C 183.38 179.73 184.39 179.92 185.14 179.40 Z M 185.97 178.82 L 186.80 178.24 C 187.53 177.72 187.71 176.70 187.19 175.97 C 186.67 175.23 185.66 175.06 184.92 175.57 L 184.10 176.16 C 183.36 176.67 183.19 177.69 183.70 178.43 C 184.22 179.16 185.24 179.34 185.97 178.82 Z M 186.81 178.22 L 187.62 177.64 C 188.35 177.12 188.52 176.10 187.99 175.37 C 187.47 174.65 186.46 174.48 185.73 175.00 L 184.91 175.59 C 184.19 176.11 184.02 177.12 184.54 177.85 C 185.06 178.58 186.08 178.75 186.81 178.22 Z M 187.63 177.63 L 188.44 177.04 C 189.16 176.51 189.32 175.50 188.79 174.78 C 188.27 174.06 187.26 173.90 186.54 174.42 L 185.73 175.01 C 185.00 175.54 184.84 176.55 185.37 177.27 C 185.89 177.99 186.91 178.15 187.63 177.63 Z M 188.44 177.03 L 189.25 176.43 C 189.96 175.90 190.12 174.90 189.59 174.18 C 189.06 173.47 188.05 173.31 187.34 173.84 L 186.53 174.43 C 185.82 174.96 185.66 175.97 186.19 176.69 C 186.72 177.40 187.73 177.55 188.44 177.03 Z M 189.25 176.42 L 190.05 175.82 C 190.76 175.30 190.91 174.29 190.38 173.58 C 189.85 172.87 188.85 172.72 188.14 173.25 L 187.33 173.85 C 186.62 174.38 186.48 175.38 187.01 176.09 C 187.54 176.80 188.54 176.95 189.25 176.42 Z M 190.05 175.82 L 190.85 175.22 C 191.56 174.69 191.70 173.69 191.17 172.98 C 190.64 172.28 189.64 172.13 188.93 172.66 L 188.13 173.26 C 187.43 173.79 187.29 174.79 187.82 175.50 C 188.35 176.20 189.35 176.35 190.05 175.82 Z M 190.85 175.21 L 191.64 174.61 C 192.35 174.08 192.48 173.08 191.95 172.38 C 191.42 171.68 190.43 171.54 189.73 172.07 L 188.93 172.67 C 188.23 173.20 188.09 174.20 188.62 174.90 C 189.15 175.60 190.15 175.74 190.85 175.21 Z M 191.64 174.60 L 192.44 173.99 C 193.14 173.46 193.27 172.47 192.74 171.77 C 192.21 171.08 191.22 170.94 190.52 171.47 L 189.73 172.08 C 189.03 172.61 188.89 173.60 189.42 174.30 C 189.95 174.99 190.95 175.13 191.64 174.60 Z M 192.44 173.99 L 193.24 173.38 C 193.93 172.85 194.06 171.86 193.53 171.17 C 193.00 170.48 192.02 170.34 191.32 170.87 L 190.53 171.48 C 189.83 172.01 189.70 173.00 190.23 173.69 C 190.76 174.38 191.75 174.51 192.44 173.99 Z M 193.24 173.37 L 194.03 172.76 C 194.72 172.23 194.85 171.25 194.32 170.56 C 193.79 169.87 192.81 169.74 192.12 170.27 L 191.32 170.88 C 190.64 171.41 190.51 172.39 191.03 173.08 C 191.56 173.77 192.55 173.90 193.24 173.37 Z M 194.03 172.75 L 194.82 172.14 C 195.50 171.61 195.63 170.63 195.10 169.95 C 194.57 169.27 193.59 169.14 192.91 169.67 L 192.12 170.28 C 191.44 170.81 191.31 171.79 191.84 172.47 C 192.36 173.15 193.35 173.28 194.03 172.75 Z M 194.82 172.13 L 195.61 171.52 C 196.29 170.99 196.41 170.01 195.88 169.34 C 195.35 168.66 194.38 168.54 193.70 169.06 L 192.91 169.68 C 192.23 170.20 192.11 171.18 192.64 171.86 C 193.16 172.54 194.14 172.66 194.82 172.13 Z M 195.61 171.51 L 196.39 170.90 C 197.07 170.37 197.18 169.39 196.66 168.72 C 196.13 168.05 195.16 167.93 194.48 168.46 L 193.70 169.07 C 193.02 169.60 192.91 170.57 193.43 171.25 C 193.96 171.92 194.93 172.04 195.61 171.51 Z M 196.39 170.89 L 197.17 170.27 C 197.84 169.74 197.96 168.77 197.43 168.10 C 196.90 167.44 195.93 167.32 195.26 167.85 L 194.48 168.47 C 193.81 168.99 193.70 169.96 194.23 170.63 C 194.76 171.30 195.73 171.41 196.39 170.89 Z M 197.17 170.26 L 197.94 169.65 C 198.60 169.12 198.71 168.16 198.19 167.49 C 197.66 166.83 196.69 166.72 196.03 167.25 L 195.26 167.86 C 194.60 168.39 194.49 169.35 195.02 170.02 C 195.55 170.68 196.51 170.79 197.17 170.26 Z M 197.94 169.64 L 198.71 169.03 C 199.37 168.50 199.47 167.54 198.95 166.88 C 198.42 166.22 197.46 166.12 196.80 166.64 L 196.03 167.26 C 195.37 167.78 195.27 168.74 195.79 169.40 C 196.32 170.06 197.28 170.17 197.94 169.64 Z M 198.70 169.02 L 199.48 168.40 C 200.13 167.88 200.24 166.92 199.71 166.27 C 199.19 165.61 198.23 165.51 197.58 166.03 L 196.81 166.65 C 196.15 167.17 196.05 168.13 196.57 168.78 C 197.09 169.44 198.05 169.54 198.70 169.02 Z M 199.47 168.39 L 200.25 167.77 C 200.90 167.25 201.01 166.30 200.49 165.65 C 199.97 165.00 199.02 164.89 198.36 165.41 L 197.58 166.03 C 196.93 166.56 196.83 167.51 197.35 168.16 C 197.87 168.81 198.82 168.92 199.47 168.39 Z M 200.24 167.77 L 201.03 167.14 C 201.68 166.62 201.79 165.68 201.27 165.03 C 200.76 164.38 199.81 164.27 199.16 164.79 L 198.37 165.41 C 197.72 165.93 197.61 166.88 198.13 167.53 C 198.65 168.18 199.59 168.28 200.24 167.77 Z M 201.02 167.14 L 201.83 166.50 C 202.47 165.99 202.59 165.05 202.07 164.40 C 201.56 163.75 200.62 163.64 199.98 164.15 L 199.17 164.79 C 198.52 165.30 198.41 166.24 198.92 166.89 C 199.43 167.54 200.37 167.65 201.02 167.14 Z M 201.82 166.50 L 202.62 165.88 C 203.26 165.37 203.38 164.44 202.87 163.79 C 202.37 163.14 201.43 163.03 200.79 163.53 L 199.99 164.16 C 199.34 164.66 199.22 165.60 199.73 166.24 C 200.23 166.89 201.17 167.01 201.82 166.50 Z M 202.61 165.88 L 203.41 165.26 C 204.05 164.76 204.17 163.83 203.67 163.18 C 203.17 162.53 202.24 162.41 201.60 162.91 L 200.80 163.53 C 200.15 164.03 200.03 164.96 200.53 165.61 C 201.03 166.26 201.96 166.38 202.61 165.88 Z M 203.40 165.26 L 204.21 164.64 C 204.85 164.15 204.98 163.22 204.48 162.57 C 203.98 161.92 203.06 161.80 202.41 162.30 L 201.60 162.91 C 200.96 163.41 200.83 164.34 201.33 164.98 C 201.82 165.63 202.75 165.75 203.40 165.26 Z M 204.20 164.64 L 205.01 164.03 C 205.65 163.53 205.78 162.61 205.29 161.96 C 204.79 161.32 203.87 161.19 203.22 161.68 L 202.42 162.30 C 201.77 162.79 201.65 163.71 202.14 164.36 C 202.63 165.01 203.55 165.13 204.20 164.64 Z M 205.00 164.02 L 205.80 163.41 C 206.45 162.92 206.58 162.01 206.09 161.36 C 205.60 160.72 204.68 160.59 204.03 161.08 L 203.23 161.69 C 202.59 162.18 202.46 163.10 202.95 163.74 C 203.44 164.39 204.36 164.51 205.00 164.02 Z M 205.80 163.41 L 206.59 162.81 C 207.24 162.32 207.36 161.41 206.88 160.76 C 206.39 160.12 205.47 159.99 204.83 160.48 L 204.04 161.08 C 203.39 161.57 203.27 162.48 203.75 163.13 C 204.24 163.77 205.16 163.90 205.80 163.41 Z M 206.59 162.81 L 207.36 162.22 C 208.01 161.73 208.13 160.82 207.65 160.18 C 207.16 159.54 206.25 159.41 205.61 159.90 L 204.83 160.49 C 204.19 160.97 204.07 161.88 204.55 162.52 C 205.04 163.17 205.95 163.29 206.59 162.81 Z M 207.36 162.21 L 208.18 161.59 C 208.82 161.11 208.94 160.20 208.46 159.56 C 207.97 158.92 207.06 158.80 206.42 159.28 L 205.61 159.90 C 204.97 160.39 204.85 161.30 205.33 161.94 C 205.82 162.58 206.73 162.70 207.36 162.21 Z M 208.18 161.59 L 209.01 160.96 C 209.64 160.48 209.77 159.57 209.28 158.93 C 208.79 158.29 207.88 158.17 207.25 158.66 L 206.42 159.28 C 205.79 159.77 205.66 160.68 206.15 161.32 C 206.64 161.95 207.55 162.08 208.18 161.59 Z M 209.01 160.96 L 209.81 160.35 C 210.45 159.86 210.57 158.95 210.08 158.32 C 209.59 157.68 208.68 157.56 208.05 158.04 L 207.25 158.66 C 206.61 159.14 206.49 160.05 206.97 160.69 C 207.46 161.33 208.37 161.45 209.01 160.96 Z M 209.81 160.35 L 210.59 159.75 C 211.23 159.26 211.35 158.35 210.86 157.71 C 210.38 157.08 209.47 156.96 208.83 157.44 L 208.05 158.05 C 207.41 158.53 207.29 159.44 207.78 160.08 C 208.26 160.72 209.17 160.84 209.81 160.35 Z M 210.59 159.75 L 211.37 159.16 C 212.00 158.67 212.13 157.76 211.64 157.12 C 211.15 156.49 210.24 156.37 209.60 156.85 L 208.83 157.44 C 208.19 157.93 208.07 158.84 208.56 159.48 C 209.05 160.11 209.96 160.24 210.59 159.75 Z M 211.37 159.16 L 212.14 158.57 C 212.77 158.08 212.89 157.17 212.41 156.54 C 211.92 155.90 211.01 155.78 210.37 156.26 L 209.61 156.85 C 208.97 157.34 208.85 158.25 209.33 158.88 C 209.82 159.52 210.73 159.64 211.37 159.16 Z M 212.13 158.57 L 212.92 157.97 C 213.56 157.49 213.68 156.58 213.20 155.94 C 212.71 155.30 211.80 155.18 211.16 155.66 L 210.38 156.26 C 209.74 156.75 209.61 157.66 210.10 158.30 C 210.58 158.93 211.50 159.06 212.13 158.57 Z M 212.92 157.98 L 213.72 157.37 C 214.36 156.88 214.49 155.97 214.00 155.33 C 213.52 154.69 212.61 154.57 211.97 155.05 L 211.16 155.66 C 210.52 156.15 210.40 157.06 210.88 157.70 C 211.37 158.34 212.28 158.46 212.92 157.98 Z M 213.72 157.37 L 214.52 156.76 C 215.17 156.28 215.29 155.37 214.81 154.73 C 214.32 154.09 213.41 153.96 212.77 154.44 L 211.97 155.05 C 211.32 155.54 211.20 156.45 211.68 157.09 C 212.17 157.73 213.08 157.86 213.72 157.37 Z M 214.53 156.77 L 215.33 156.16 C 215.97 155.67 216.09 154.76 215.61 154.12 C 215.12 153.48 214.21 153.35 213.57 153.84 L 212.77 154.44 C 212.12 154.93 212.00 155.84 212.48 156.48 C 212.97 157.13 213.88 157.25 214.53 156.77 Z M 215.33 156.16 L 216.12 155.56 C 216.76 155.07 216.89 154.15 216.40 153.51 C 215.91 152.87 215.00 152.75 214.36 153.23 L 213.56 153.84 C 212.92 154.32 212.80 155.24 213.28 155.88 C 213.77 156.52 214.69 156.65 215.33 156.16 Z M 216.13 155.56 L 216.91 154.96 C 217.55 154.47 217.68 153.55 217.19 152.91 C 216.70 152.27 215.78 152.14 215.14 152.63 L 214.35 153.23 C 213.71 153.72 213.59 154.64 214.08 155.28 C 214.57 155.92 215.49 156.05 216.13 155.56 Z M 216.92 154.96 L 217.72 154.34 C 218.36 153.85 218.48 152.93 217.99 152.29 C 217.49 151.65 216.57 151.53 215.93 152.02 L 215.13 152.63 C 214.49 153.13 214.37 154.05 214.87 154.69 C 215.36 155.33 216.28 155.45 216.92 154.96 Z M 217.72 154.34 L 218.52 153.72 C 219.16 153.23 219.28 152.30 218.78 151.66 C 218.29 151.02 217.36 150.91 216.72 151.40 L 215.93 152.02 C 215.28 152.52 215.17 153.44 215.66 154.08 C 216.16 154.72 217.08 154.84 217.72 154.34 Z M 218.53 153.72 L 219.32 153.11 C 219.96 152.61 220.07 151.68 219.57 151.04 C 219.07 150.40 218.15 150.29 217.51 150.79 L 216.72 151.40 C 216.08 151.90 215.96 152.83 216.46 153.47 C 216.96 154.11 217.89 154.22 218.53 153.72 Z M 219.32 153.11 L 220.11 152.49 C 220.75 151.99 220.86 151.06 220.36 150.42 C 219.85 149.78 218.93 149.67 218.29 150.17 L 217.50 150.78 C 216.86 151.29 216.75 152.21 217.25 152.86 C 217.75 153.50 218.68 153.61 219.32 153.11 Z M 220.11 152.49 L 220.89 151.88 C 221.53 151.38 221.64 150.45 221.14 149.81 C 220.63 149.16 219.70 149.05 219.06 149.56 L 218.28 150.17 C 217.64 150.67 217.53 151.60 218.03 152.25 C 218.54 152.89 219.47 153.00 220.11 152.49 Z M 220.89 151.88 L 221.62 151.31 C 222.27 150.80 222.38 149.87 221.87 149.23 C 221.36 148.58 220.43 148.47 219.79 148.98 L 219.06 149.55 C 218.41 150.06 218.30 150.99 218.81 151.64 C 219.32 152.28 220.25 152.39 220.89 151.88 Z"
      fill="black"
      fill-rule="nonzero" /></svg>