<svg xmlns="http://www.w3.org/2000/svg" width="300" height="300" viewBox="0 0 300 300">
<path d="M 106.09 138.28 L 105.95 139.18 C 105.82 140.02 106.40 140.79 107.23 140.92 C 108.06 141.05 108.84 140.47 108.97 139.64 L 109.10 138.73 C 109.23 137.90 108.66 137.12 107.82 136.99 C 106.99 136.87 106.21 137.44 106.09 138.28 Z M 105.91 139.21 L 105.78 140.15 C 105.67 141.01 106.27 141.79 107.13 141.91 C 107.99 142.02 108.77 141.42 108.89 140.56 L 109.01 139.62 C 109.12 138.76 108.52 137.97 107.66 137.86 C 106.81 137.75 106.02 138.35 105.91 139.21 Z M 105.74 140.20 L 105.64 141.22 C 105.55 142.10 106.19 142.89 107.07 142.97 C 107.96 143.06 108.74 142.42 108.83 141.53 L 108.93 140.51 C 109.02 139.63 108.37 138.85 107.49 138.76 C 106.61 138.67 105.82 139.32 105.74 140.20 Z M 105.60 141.28 L 105.53 142.37 C 105.48 143.27 106.17 144.05 107.07 144.10 C 107.98 144.16 108.75 143.47 108.81 142.56 L 108.87 141.47 C 108.92 140.57 108.23 139.79 107.33 139.74 C 106.42 139.69 105.65 140.38 105.60 141.28 Z M 105.51 142.43 L 105.49 143.41 C 105.47 144.33 106.19 145.09 107.11 145.11 C 108.02 145.13 108.78 144.40 108.80 143.49 L 108.83 142.51 C 108.85 141.59 108.12 140.83 107.21 140.81 C 106.29 140.79 105.53 141.51 105.51 142.43 Z M 105.48 143.45 L 105.48 144.48 C 105.48 145.39 106.23 146.14 107.15 146.14 C 108.06 146.14 108.81 145.39 108.81 144.48 L 108.81 143.45 C 108.81 142.53 108.06 141.79 107.15 141.79 C 106.23 141.79 105.48 142.53 105.48 143.45 Z M 105.48 144.50 L 105.50 145.54 C 105.51 146.46 106.27 147.19 107.19 147.18 C 108.11 147.16 108.85 146.40 108.83 145.48 L 108.81 144.45 C 108.80 143.53 108.04 142.79 107.12 142.81 C 106.20 142.83 105.46 143.58 105.48 144.50 Z M 105.49 145.56 L 105.52 146.56 C 105.55 147.49 106.32 148.21 107.25 148.18 C 108.17 148.15 108.89 147.38 108.87 146.46 L 108.83 145.46 C 108.81 144.53 108.03 143.81 107.11 143.84 C 106.19 143.87 105.46 144.64 105.49 145.56 Z M 105.52 146.58 L 105.56 147.60 C 105.60 148.52 106.39 149.24 107.31 149.20 C 108.24 149.16 108.95 148.38 108.91 147.45 L 108.87 146.44 C 108.83 145.51 108.05 144.80 107.12 144.84 C 106.20 144.88 105.48 145.66 105.52 146.58 Z M 105.56 147.62 L 105.62 148.68 C 105.67 149.61 106.46 150.32 107.39 150.27 C 108.32 150.21 109.03 149.42 108.98 148.49 L 108.92 147.43 C 108.87 146.51 108.07 145.80 107.15 145.85 C 106.22 145.90 105.51 146.69 105.56 147.62 Z M 105.61 148.69 L 105.68 149.66 C 105.73 150.59 106.53 151.30 107.46 151.24 C 108.39 151.18 109.10 150.38 109.04 149.45 L 108.98 148.48 C 108.92 147.55 108.12 146.85 107.19 146.90 C 106.26 146.96 105.56 147.76 105.61 148.69 Z M 105.67 149.67 L 105.73 150.60 C 105.79 151.53 106.59 152.24 107.52 152.18 C 108.46 152.12 109.16 151.32 109.11 150.39 L 109.05 149.45 C 108.99 148.52 108.18 147.81 107.25 147.87 C 106.32 147.93 105.61 148.73 105.67 149.67 Z M 105.72 150.59 L 105.78 151.54 C 105.83 152.47 106.63 153.19 107.56 153.14 C 108.50 153.09 109.21 152.29 109.16 151.35 L 109.11 150.40 C 109.06 149.47 108.26 148.75 107.32 148.80 C 106.39 148.85 105.67 149.65 105.72 150.59 Z M 105.77 151.52 L 105.82 152.51 C 105.86 153.45 106.65 154.17 107.59 154.13 C 108.53 154.09 109.25 153.29 109.21 152.36 L 109.17 151.37 C 109.12 150.43 108.33 149.71 107.39 149.75 C 106.46 149.79 105.73 150.59 105.77 151.52 Z M 105.81 152.50 L 105.85 153.51 C 105.89 154.45 106.68 155.18 107.62 155.14 C 108.56 155.11 109.29 154.32 109.25 153.38 L 109.21 152.37 C 109.18 151.43 108.39 150.70 107.45 150.73 C 106.51 150.77 105.78 151.56 105.81 152.50 Z M 105.85 153.50 L 105.88 154.52 C 105.92 155.46 106.71 156.20 107.65 156.17 C 108.59 156.13 109.33 155.34 109.29 154.40 L 109.26 153.38 C 109.22 152.44 108.43 151.70 107.49 151.74 C 106.55 151.77 105.82 152.56 105.85 153.50 Z M 105.88 154.52 L 105.92 155.51 C 105.95 156.45 106.74 157.19 107.68 157.16 C 108.62 157.13 109.36 156.34 109.33 155.39 L 109.30 154.40 C 109.26 153.46 108.47 152.72 107.53 152.75 C 106.59 152.79 105.85 153.58 105.88 154.52 Z M 105.91 155.51 L 105.95 156.50 C 105.98 157.44 106.77 158.18 107.72 158.15 C 108.66 158.12 109.40 157.33 109.37 156.38 L 109.33 155.39 C 109.30 154.45 108.51 153.71 107.56 153.74 C 106.62 153.77 105.88 154.57 105.91 155.51 Z M 105.94 156.50 L 105.98 157.50 C 106.01 158.44 106.80 159.19 107.75 159.15 C 108.69 159.12 109.43 158.33 109.40 157.38 L 109.37 156.38 C 109.34 155.44 108.54 154.70 107.60 154.73 C 106.65 154.76 105.91 155.55 105.94 156.50 Z M 105.98 157.50 L 106.01 158.52 C 106.04 159.46 106.83 160.21 107.78 160.18 C 108.73 160.14 109.47 159.35 109.44 158.40 L 109.40 157.38 C 109.37 156.44 108.58 155.70 107.63 155.73 C 106.69 155.76 105.94 156.55 105.98 157.50 Z M 106.01 158.52 L 106.04 159.50 C 106.07 160.45 106.86 161.19 107.81 161.16 C 108.76 161.13 109.50 160.34 109.47 159.39 L 109.44 158.41 C 109.41 157.46 108.62 156.71 107.67 156.74 C 106.72 156.77 105.98 157.57 106.01 158.52 Z M 106.04 159.50 L 106.07 160.49 C 106.10 161.44 106.89 162.19 107.84 162.16 C 108.79 162.13 109.54 161.33 109.51 160.38 L 109.48 159.39 C 109.45 158.44 108.65 157.69 107.70 157.72 C 106.75 157.75 106.01 158.55 106.04 159.50 Z M 106.07 160.49 L 106.10 161.50 C 106.13 162.45 106.92 163.20 107.87 163.17 C 108.83 163.14 109.57 162.34 109.54 161.39 L 109.51 160.38 C 109.48 159.43 108.68 158.69 107.73 158.72 C 106.78 158.75 106.04 159.54 106.07 160.49 Z M 106.09 161.50 L 106.13 162.51 C 106.16 163.46 106.95 164.21 107.91 164.18 C 108.86 164.15 109.61 163.36 109.58 162.40 L 109.54 161.39 C 109.51 160.44 108.72 159.69 107.77 159.72 C 106.81 159.75 106.07 160.55 106.09 161.50 Z M 106.12 162.51 L 106.16 163.51 C 106.19 164.47 106.98 165.22 107.94 165.19 C 108.89 165.16 109.64 164.36 109.61 163.41 L 109.58 162.40 C 109.55 161.45 108.75 160.70 107.80 160.73 C 106.84 160.76 106.09 161.56 106.12 162.51 Z M 106.15 163.51 L 106.18 164.51 C 106.21 165.47 107.01 166.22 107.96 166.19 C 108.92 166.16 109.67 165.36 109.64 164.41 L 109.61 163.41 C 109.58 162.46 108.79 161.70 107.83 161.73 C 106.88 161.76 106.13 162.56 106.15 163.51 Z M 106.18 164.51 L 106.21 165.51 C 106.24 166.46 107.03 167.22 107.99 167.19 C 108.94 167.16 109.69 166.37 109.67 165.41 L 109.64 164.41 C 109.62 163.46 108.82 162.71 107.87 162.73 C 106.91 162.76 106.16 163.55 106.18 164.51 Z M 106.21 165.50 L 106.23 166.50 C 106.25 167.45 107.04 168.21 108.00 168.19 C 108.96 168.17 109.71 167.38 109.69 166.42 L 109.67 165.42 C 109.65 164.47 108.86 163.71 107.90 163.73 C 106.95 163.75 106.19 164.54 106.21 165.50 Z M 106.23 166.49 L 106.24 167.49 C 106.26 168.45 107.05 169.22 108.00 169.20 C 108.96 169.19 109.72 168.40 109.71 167.44 L 109.69 166.43 C 109.68 165.48 108.89 164.71 107.93 164.73 C 106.98 164.74 106.21 165.53 106.23 166.49 Z M 106.24 167.48 L 106.25 168.50 C 106.26 169.45 107.04 170.22 108.00 170.21 C 108.96 170.21 109.73 169.42 109.72 168.46 L 109.71 167.45 C 109.70 166.49 108.92 165.73 107.96 165.73 C 107.00 165.74 106.23 166.53 106.24 167.48 Z M 106.25 168.49 L 106.26 169.49 C 106.26 170.45 107.04 171.22 108.00 171.22 C 108.96 171.22 109.73 170.44 109.73 169.48 L 109.72 168.47 C 109.72 167.51 108.94 166.74 107.98 166.75 C 107.02 166.75 106.25 167.53 106.25 168.49 Z M 106.25 169.49 L 106.26 170.48 C 106.26 171.44 107.03 172.21 107.99 172.21 C 108.95 172.21 109.73 171.43 109.73 170.47 L 109.73 169.48 C 109.73 168.52 108.95 167.75 107.99 167.75 C 107.03 167.75 106.25 168.53 106.25 169.49 Z M 106.25 170.48 L 106.25 171.47 C 106.25 172.43 107.03 173.21 107.99 173.21 C 108.95 173.21 109.73 172.43 109.73 171.47 L 109.73 170.48 C 109.73 169.52 108.95 168.74 107.99 168.74 C 107.03 168.74 106.25 169.52 106.25 170.48 Z M 106.25 171.47 L 106.25 172.48 C 106.25 173.44 107.03 174.22 107.99 174.22 C 108.95 174.22 109.73 173.44 109.73 172.48 L 109.73 171.47 C 109.73 170.51 108.95 169.73 107.99 169.73 C 107.03 169.73 106.25 170.51 106.25 171.47 Z M 106.25 172.48 L 106.26 173.48 C 106.26 174.44 107.04 175.22 108.00 175.21 C 108.96 175.21 109.74 174.43 109.74 173.47 L 109.73 172.47 C 109.73 171.51 108.95 170.73 107.99 170.74 C 107.03 170.74 106.25 171.52 106.25 172.48 Z M 106.26 173.49 L 106.26 174.48 C 106.27 175.44 107.06 176.21 108.02 176.21 C 108.98 176.20 109.76 175.41 109.75 174.45 L 109.74 173.46 C 109.73 172.50 108.94 171.72 107.98 171.73 C 107.02 171.74 106.25 172.53 106.26 173.49 Z M 106.26 174.49 L 106.28 175.46 C 106.29 176.43 107.09 177.19 108.05 177.18 C 109.01 177.16 109.78 176.37 109.76 175.41 L 109.75 174.44 C 109.73 173.47 108.94 172.71 107.98 172.72 C 107.02 172.74 106.25 173.53 106.26 174.49 Z M 106.28 175.48 L 106.30 176.43 C 106.32 177.39 107.12 178.16 108.08 178.13 C 109.05 178.11 109.81 177.31 109.79 176.35 L 109.76 175.40 C 109.74 174.43 108.94 173.67 107.98 173.69 C 107.02 173.72 106.26 174.51 106.28 175.48 Z M 106.30 176.44 L 106.33 177.42 C 106.35 178.39 107.16 179.14 108.12 179.12 C 109.08 179.09 109.84 178.29 109.81 177.33 L 109.79 176.34 C 109.76 175.38 108.96 174.62 108.00 174.65 C 107.03 174.67 106.27 175.48 106.30 176.44 Z M 106.33 177.43 L 106.36 178.45 C 106.39 179.42 107.19 180.17 108.15 180.15 C 109.12 180.12 109.87 179.31 109.84 178.35 L 109.81 177.32 C 109.79 176.36 108.98 175.60 108.02 175.63 C 107.06 175.66 106.30 176.46 106.33 177.43 Z M 106.36 178.45 L 106.39 179.50 C 106.42 180.46 107.22 181.22 108.18 181.19 C 109.15 181.17 109.90 180.36 109.88 179.40 L 109.85 178.35 C 109.82 177.39 109.01 176.63 108.05 176.66 C 107.09 176.69 106.33 177.49 106.36 178.45 Z M 106.39 179.50 L 106.41 180.49 C 106.44 181.46 107.25 182.22 108.21 182.19 C 109.17 182.16 109.93 181.36 109.91 180.40 L 109.88 179.40 C 109.85 178.44 109.05 177.68 108.08 177.70 C 107.12 177.73 106.36 178.54 106.39 179.50 Z M 106.41 180.50 L 106.44 181.51 C 106.47 182.48 107.28 183.24 108.24 183.21 C 109.21 183.18 109.96 182.38 109.94 181.41 L 109.91 180.39 C 109.88 179.43 109.07 178.67 108.11 178.70 C 107.14 178.73 106.39 179.53 106.41 180.50 Z M 106.44 181.52 L 106.48 182.54 C 106.51 183.50 107.31 184.26 108.28 184.23 C 109.24 184.20 110.00 183.39 109.97 182.42 L 109.94 181.41 C 109.90 180.44 109.10 179.69 108.13 179.72 C 107.17 179.75 106.41 180.55 106.44 181.52 Z M 106.48 182.55 L 106.51 183.54 C 106.55 184.50 107.36 185.26 108.32 185.22 C 109.29 185.18 110.04 184.37 110.01 183.41 L 109.97 182.42 C 109.93 181.45 109.12 180.70 108.16 180.73 C 107.19 180.77 106.44 181.58 106.48 182.55 Z M 106.51 183.55 L 106.57 184.83 C 106.61 185.80 107.43 186.54 108.40 186.50 C 109.37 186.45 110.11 185.64 110.07 184.67 L 110.01 183.39 C 109.96 182.43 109.15 181.68 108.18 181.72 C 107.21 181.77 106.47 182.59 106.51 183.55 Z M 106.56 184.86 L 106.64 186.12 C 106.70 187.09 107.53 187.83 108.51 187.77 C 109.48 187.71 110.22 186.87 110.15 185.90 L 110.08 184.64 C 110.02 183.67 109.18 182.93 108.21 182.99 C 107.24 183.05 106.50 183.89 106.56 184.86 Z M 106.63 186.20 L 106.70 186.81 C 106.81 187.79 107.68 188.49 108.66 188.38 C 109.63 188.28 110.34 187.40 110.23 186.43 L 110.16 185.81 C 110.05 184.84 109.18 184.14 108.20 184.24 C 107.23 184.35 106.52 185.23 106.63 186.20 Z M 110.24 186.88 L 110.28 186.61 C 110.42 185.63 109.74 184.72 108.76 184.58 C 107.78 184.44 106.87 185.12 106.73 186.09 L 106.69 186.36 C 106.55 187.34 107.23 188.25 108.21 188.39 C 109.18 188.54 110.09 187.86 110.24 186.88 Z M 110.31 186.38 L 110.33 185.41 C 110.34 184.41 109.55 183.59 108.55 183.57 C 107.55 183.56 106.72 184.35 106.71 185.35 L 106.69 186.32 C 106.68 187.32 107.47 188.15 108.47 188.16 C 109.47 188.18 110.30 187.38 110.31 186.38 Z M 110.35 185.39 L 110.35 184.01 C 110.35 183.00 109.54 182.18 108.52 182.18 C 107.51 182.17 106.69 182.99 106.69 184.00 L 106.69 185.38 C 106.68 186.39 107.50 187.21 108.51 187.22 C 109.53 187.22 110.35 186.40 110.35 185.39 Z M 110.37 184.01 L 110.37 182.87 C 110.37 181.85 109.54 181.02 108.52 181.02 C 107.50 181.02 106.68 181.85 106.68 182.87 L 106.68 184.01 C 106.68 185.03 107.50 185.85 108.52 185.85 C 109.54 185.85 110.36 185.03 110.37 184.01 Z M 110.37 182.88 L 110.38 181.84 C 110.39 180.82 109.57 179.99 108.55 179.98 C 107.53 179.97 106.69 180.79 106.68 181.81 L 106.67 182.85 C 106.67 183.87 107.49 184.71 108.51 184.72 C 109.53 184.72 110.36 183.90 110.37 182.88 Z M 110.38 181.88 L 110.40 180.86 C 110.43 179.85 109.63 179.00 108.61 178.97 C 107.59 178.94 106.74 179.75 106.71 180.77 L 106.68 181.78 C 106.66 182.80 107.46 183.65 108.48 183.68 C 109.50 183.70 110.35 182.90 110.38 181.88 Z M 110.40 180.92 L 110.46 179.96 C 110.51 178.94 109.74 178.07 108.72 178.01 C 107.70 177.95 106.83 178.73 106.77 179.75 L 106.71 180.71 C 106.65 181.73 107.43 182.60 108.45 182.66 C 109.47 182.72 110.34 181.94 110.40 180.92 Z M 110.45 180.06 L 110.55 179.08 C 110.67 178.06 109.93 177.15 108.92 177.04 C 107.91 176.93 107.00 177.66 106.88 178.67 L 106.78 179.66 C 106.67 180.67 107.40 181.58 108.41 181.69 C 109.42 181.80 110.34 181.07 110.45 180.06 Z M 110.53 179.23 L 110.72 178.25 C 110.92 177.25 110.27 176.29 109.27 176.09 C 108.27 175.89 107.31 176.54 107.11 177.54 L 106.91 178.52 C 106.72 179.51 107.36 180.48 108.36 180.68 C 109.36 180.88 110.33 180.23 110.53 179.23 Z M 110.66 178.46 L 110.96 177.54 C 111.27 176.57 110.74 175.54 109.77 175.23 C 108.81 174.92 107.77 175.45 107.46 176.41 L 107.17 177.33 C 106.86 178.30 107.39 179.33 108.35 179.64 C 109.32 179.95 110.35 179.42 110.66 178.46 Z M 110.87 177.74 L 111.29 176.84 C 111.71 175.92 111.31 174.83 110.39 174.41 C 109.47 173.99 108.39 174.39 107.96 175.31 L 107.55 176.21 C 107.13 177.13 107.53 178.22 108.45 178.64 C 109.36 179.06 110.45 178.66 110.87 177.74 Z M 111.20 176.99 L 111.67 176.18 C 112.18 175.31 111.88 174.19 111.01 173.69 C 110.14 173.18 109.02 173.48 108.51 174.35 L 108.05 175.16 C 107.54 176.03 107.84 177.15 108.71 177.65 C 109.58 178.16 110.70 177.86 111.20 176.99 Z M 111.60 176.28 L 112.16 175.46 C 112.72 174.62 112.49 173.49 111.66 172.93 C 110.82 172.37 109.69 172.59 109.13 173.43 L 108.58 174.25 C 108.02 175.09 108.24 176.22 109.08 176.78 C 109.91 177.34 111.04 177.11 111.60 176.28 Z M 112.10 175.53 L 112.72 174.70 C 113.32 173.90 113.15 172.76 112.35 172.16 C 111.54 171.56 110.41 171.73 109.81 172.53 L 109.19 173.36 C 108.59 174.16 108.76 175.30 109.56 175.90 C 110.36 176.50 111.50 176.33 112.10 175.53 Z M 112.67 174.75 L 113.33 173.94 C 113.96 173.16 113.84 172.02 113.06 171.39 C 112.28 170.76 111.14 170.88 110.51 171.66 L 109.85 172.47 C 109.23 173.25 109.34 174.39 110.12 175.02 C 110.90 175.65 112.04 175.53 112.67 174.75 Z M 113.29 173.99 L 113.92 173.26 C 114.57 172.50 114.49 171.36 113.74 170.71 C 112.98 170.05 111.84 170.13 111.19 170.89 L 110.56 171.62 C 109.90 172.37 109.98 173.51 110.74 174.17 C 111.49 174.82 112.63 174.74 113.29 173.99 Z M 113.87 173.30 L 114.54 172.59 C 115.22 171.86 115.18 170.72 114.45 170.04 C 113.72 169.36 112.58 169.40 111.90 170.13 L 111.23 170.84 C 110.55 171.57 110.59 172.71 111.32 173.39 C 112.05 174.07 113.19 174.03 113.87 173.30 Z M 114.48 172.64 L 115.20 171.94 C 115.90 171.24 115.91 170.10 115.21 169.39 C 114.51 168.68 113.37 168.68 112.66 169.37 L 111.95 170.08 C 111.24 170.78 111.24 171.92 111.93 172.63 C 112.63 173.33 113.77 173.34 114.48 172.64 Z M 115.14 171.99 L 115.91 171.30 C 116.64 170.63 116.70 169.49 116.04 168.76 C 115.37 168.02 114.23 167.96 113.49 168.63 L 112.72 169.32 C 111.99 169.99 111.93 171.13 112.59 171.86 C 113.26 172.60 114.40 172.66 115.14 171.99 Z M 115.85 171.35 L 116.64 170.69 C 117.40 170.06 117.51 168.93 116.88 168.16 C 116.24 167.40 115.11 167.29 114.34 167.92 L 113.55 168.58 C 112.79 169.21 112.68 170.34 113.32 171.11 C 113.95 171.87 115.08 171.98 115.85 171.35 Z M 116.59 170.73 L 117.40 170.11 C 118.19 169.50 118.33 168.37 117.73 167.59 C 117.12 166.80 115.99 166.65 115.21 167.26 L 114.39 167.88 C 113.61 168.49 113.46 169.62 114.07 170.41 C 114.67 171.19 115.80 171.34 116.59 170.73 Z M 117.36 170.14 L 118.19 169.53 C 118.99 168.95 119.17 167.82 118.59 167.02 C 118.00 166.22 116.88 166.04 116.08 166.63 L 115.25 167.23 C 114.44 167.81 114.27 168.94 114.85 169.74 C 115.43 170.54 116.56 170.72 117.36 170.14 Z M 118.16 169.55 L 118.99 168.98 C 119.80 168.41 120.00 167.29 119.43 166.48 C 118.87 165.66 117.75 165.46 116.93 166.03 L 116.11 166.60 C 115.29 167.17 115.09 168.29 115.66 169.10 C 116.23 169.92 117.35 170.12 118.16 169.55 Z M 118.96 169.00 L 119.75 168.47 C 120.57 167.92 120.80 166.80 120.24 165.98 C 119.69 165.15 118.58 164.93 117.75 165.48 L 116.96 166.01 C 116.14 166.56 115.91 167.68 116.47 168.50 C 117.02 169.33 118.13 169.55 118.96 169.00 Z M 119.72 168.48 L 120.62 167.91 C 121.46 167.37 121.70 166.26 121.16 165.42 C 120.62 164.59 119.51 164.35 118.68 164.89 L 117.78 165.46 C 116.94 166.00 116.70 167.11 117.24 167.95 C 117.78 168.78 118.89 169.02 119.72 168.48 Z M 120.58 167.93 L 121.45 167.40 C 122.29 166.89 122.56 165.78 122.04 164.94 C 121.53 164.09 120.42 163.82 119.58 164.34 L 118.72 164.86 C 117.87 165.38 117.60 166.48 118.12 167.33 C 118.63 168.18 119.74 168.44 120.58 167.93 Z M 121.40 167.43 L 122.23 166.96 C 123.09 166.47 123.39 165.37 122.90 164.51 C 122.41 163.65 121.32 163.35 120.45 163.84 L 119.62 164.31 C 118.76 164.80 118.46 165.90 118.95 166.76 C 119.44 167.62 120.54 167.92 121.40 167.43 Z M 122.18 166.98 L 123.02 166.54 C 123.89 166.08 124.23 164.99 123.77 164.12 C 123.31 163.24 122.22 162.91 121.34 163.37 L 120.51 163.81 C 119.63 164.27 119.29 165.36 119.76 166.23 C 120.22 167.11 121.30 167.45 122.18 166.98 Z M 122.97 166.56 L 123.83 166.14 C 124.72 165.71 125.09 164.63 124.65 163.74 C 124.21 162.85 123.14 162.49 122.25 162.92 L 121.39 163.34 C 120.50 163.78 120.14 164.86 120.57 165.74 C 121.01 166.63 122.08 167.00 122.97 166.56 Z M 123.79 166.16 L 124.69 165.74 C 125.59 165.33 125.98 164.26 125.57 163.37 C 125.15 162.47 124.09 162.07 123.19 162.49 L 122.29 162.91 C 121.39 163.32 121.00 164.39 121.41 165.29 C 121.83 166.18 122.89 166.58 123.79 166.16 Z M 124.66 165.76 L 125.60 165.35 C 126.50 164.95 126.91 163.89 126.51 162.98 C 126.12 162.08 125.06 161.67 124.15 162.07 L 123.22 162.48 C 122.31 162.88 121.90 163.93 122.30 164.84 C 122.70 165.75 123.76 166.16 124.66 165.76 Z M 125.58 165.36 L 126.52 164.95 C 127.43 164.57 127.86 163.51 127.47 162.60 C 127.08 161.69 126.03 161.27 125.12 161.65 L 124.17 162.06 C 123.26 162.44 122.84 163.50 123.22 164.41 C 123.61 165.32 124.66 165.74 125.58 165.36 Z M 126.50 164.96 L 127.39 164.59 C 128.31 164.21 128.74 163.17 128.36 162.25 C 127.99 161.34 126.94 160.90 126.02 161.28 L 125.13 161.65 C 124.22 162.03 123.78 163.07 124.16 163.99 C 124.54 164.90 125.59 165.34 126.50 164.96 Z M 127.38 164.60 L 128.29 164.23 C 129.21 163.86 129.66 162.82 129.29 161.90 C 128.92 160.98 127.87 160.54 126.95 160.90 L 126.04 161.27 C 125.12 161.64 124.67 162.69 125.04 163.61 C 125.41 164.52 126.46 164.97 127.38 164.60 Z M 128.27 164.24 L 129.22 163.87 C 130.14 163.51 130.60 162.47 130.24 161.55 C 129.88 160.63 128.84 160.17 127.91 160.53 L 126.97 160.90 C 126.05 161.26 125.59 162.30 125.95 163.22 C 126.31 164.14 127.35 164.60 128.27 164.24 Z M 129.20 163.88 L 130.17 163.51 C 131.10 163.16 131.57 162.13 131.22 161.20 C 130.87 160.27 129.83 159.81 128.91 160.15 L 127.93 160.52 C 127.00 160.87 126.54 161.91 126.89 162.83 C 127.24 163.76 128.27 164.23 129.20 163.88 Z M 130.15 163.52 L 131.09 163.18 C 132.02 162.84 132.50 161.81 132.16 160.88 C 131.82 159.95 130.79 159.47 129.86 159.81 L 128.93 160.15 C 127.99 160.49 127.51 161.52 127.85 162.45 C 128.19 163.38 129.22 163.86 130.15 163.52 Z M 131.07 163.19 L 132.01 162.85 C 132.94 162.53 133.44 161.50 133.11 160.57 C 132.78 159.63 131.75 159.14 130.82 159.47 L 129.88 159.80 C 128.94 160.13 128.45 161.15 128.78 162.09 C 129.11 163.02 130.13 163.51 131.07 163.19 Z M 131.99 162.86 L 132.94 162.54 C 133.88 162.22 134.39 161.21 134.07 160.27 C 133.75 159.33 132.74 158.82 131.80 159.14 L 130.84 159.46 C 129.90 159.78 129.40 160.80 129.71 161.73 C 130.03 162.67 131.05 163.18 131.99 162.86 Z M 132.92 162.55 L 133.88 162.24 C 134.82 161.94 135.34 160.93 135.04 159.99 C 134.74 159.04 133.73 158.52 132.78 158.82 L 131.82 159.13 C 130.88 159.43 130.36 160.44 130.66 161.39 C 130.96 162.33 131.97 162.85 132.92 162.55 Z M 133.85 162.25 L 134.81 161.96 C 135.76 161.68 136.30 160.67 136.01 159.73 C 135.73 158.78 134.72 158.24 133.78 158.52 L 132.81 158.81 C 131.86 159.10 131.33 160.10 131.61 161.05 C 131.90 162.00 132.90 162.54 133.85 162.25 Z M 134.78 161.97 L 135.76 161.70 C 136.72 161.43 137.28 160.44 137.01 159.48 C 136.74 158.53 135.75 157.97 134.80 158.24 L 133.81 158.51 C 132.85 158.78 132.30 159.77 132.56 160.73 C 132.83 161.68 133.82 162.24 134.78 161.97 Z M 135.73 161.71 L 136.70 161.45 C 137.67 161.21 138.24 160.23 137.99 159.27 C 137.75 158.31 136.77 157.73 135.81 157.98 L 134.83 158.23 C 133.87 158.48 133.29 159.46 133.54 160.42 C 133.79 161.38 134.77 161.95 135.73 161.71 Z M 136.67 161.46 L 137.64 161.23 C 138.60 161.01 139.20 160.04 138.97 159.07 C 138.74 158.11 137.77 157.51 136.81 157.74 L 135.84 157.97 C 134.87 158.20 134.28 159.16 134.51 160.13 C 134.74 161.10 135.70 161.69 136.67 161.46 Z M 137.60 161.24 L 138.56 161.04 C 139.53 160.82 140.15 159.87 139.94 158.90 C 139.73 157.93 138.77 157.31 137.80 157.52 L 136.84 157.73 C 135.87 157.94 135.25 158.90 135.46 159.87 C 135.67 160.84 136.63 161.45 137.60 161.24 Z M 138.53 161.04 L 139.51 160.85 C 140.48 160.66 141.12 159.71 140.93 158.74 C 140.73 157.76 139.79 157.13 138.81 157.32 L 137.83 157.51 C 136.86 157.71 136.22 158.65 136.41 159.63 C 136.61 160.60 137.55 161.24 138.53 161.04 Z M 139.48 160.86 L 140.47 160.68 C 141.45 160.51 142.10 159.57 141.93 158.59 C 141.76 157.62 140.82 156.96 139.84 157.14 L 138.85 157.31 C 137.87 157.48 137.22 158.42 137.39 159.40 C 137.56 160.38 138.50 161.03 139.48 160.86 Z M 140.44 160.69 L 141.42 160.53 C 142.41 160.38 143.08 159.46 142.92 158.47 C 142.77 157.49 141.85 156.82 140.87 156.97 L 139.88 157.13 C 138.89 157.28 138.22 158.20 138.38 159.19 C 138.53 160.17 139.45 160.84 140.44 160.69 Z M 141.39 160.54 L 142.37 160.41 C 143.35 160.27 144.05 159.37 143.91 158.38 C 143.78 157.39 142.87 156.70 141.88 156.83 L 140.90 156.97 C 139.92 157.10 139.22 158.01 139.36 159.00 C 139.49 159.98 140.40 160.67 141.39 160.54 Z M 142.33 160.41 L 143.32 160.30 C 144.31 160.19 145.02 159.29 144.91 158.30 C 144.80 157.31 143.90 156.60 142.91 156.71 L 141.92 156.83 C 140.93 156.94 140.22 157.84 140.33 158.83 C 140.45 159.82 141.34 160.53 142.33 160.41 Z M 143.28 160.31 L 144.30 160.21 C 145.29 160.12 146.02 159.24 145.93 158.25 C 145.84 157.25 144.96 156.52 143.97 156.61 L 142.95 156.71 C 141.96 156.80 141.23 157.68 141.32 158.67 C 141.41 159.67 142.29 160.40 143.28 160.31 Z M 144.26 160.22 L 145.27 160.14 C 146.26 160.07 147.01 159.20 146.94 158.21 C 146.87 157.21 146.00 156.46 145.00 156.54 L 144.00 156.61 C 143.01 156.68 142.26 157.55 142.33 158.54 C 142.40 159.54 143.27 160.29 144.26 160.22 Z M 145.23 160.15 L 146.22 160.09 C 147.22 160.04 147.98 159.19 147.93 158.19 C 147.87 157.19 147.02 156.43 146.02 156.48 L 145.04 156.53 C 144.04 156.59 143.27 157.44 143.33 158.44 C 143.38 159.44 144.24 160.20 145.23 160.15 Z M 146.19 160.10 L 147.18 160.06 C 148.18 160.02 148.96 159.18 148.92 158.18 C 148.88 157.18 148.04 156.40 147.04 156.44 L 146.05 156.48 C 145.05 156.51 144.27 157.35 144.31 158.35 C 144.35 159.35 145.19 160.13 146.19 160.10 Z M 147.15 160.06 L 148.18 160.04 C 149.18 160.02 149.98 159.19 149.95 158.19 C 149.93 157.19 149.10 156.39 148.10 156.41 L 147.07 156.44 C 146.07 156.46 145.28 157.29 145.30 158.29 C 145.32 159.29 146.15 160.08 147.15 160.06 Z M 148.16 160.04 L 149.16 160.03 C 150.16 160.02 150.97 159.20 150.96 158.20 C 150.95 157.20 150.13 156.39 149.13 156.40 L 148.12 156.41 C 147.12 156.42 146.32 157.24 146.33 158.24 C 146.34 159.25 147.16 160.05 148.16 160.04 Z M 149.15 160.04 L 150.12 160.03 C 151.13 160.03 151.94 159.21 151.94 158.21 C 151.93 157.21 151.12 156.39 150.11 156.40 L 149.14 156.40 C 148.14 156.40 147.32 157.22 147.33 158.22 C 147.33 159.23 148.14 160.04 149.15 160.04 Z M 150.12 160.04 L 151.11 160.04 C 152.11 160.04 152.93 159.22 152.93 158.22 C 152.93 157.21 152.12 156.40 151.11 156.39 L 150.12 156.39 C 149.11 156.39 148.30 157.21 148.30 158.21 C 148.30 159.22 149.11 160.03 150.12 160.04 Z M 151.09 160.04 L 152.09 160.05 C 153.10 160.06 153.92 159.26 153.93 158.25 C 153.95 157.24 153.14 156.42 152.13 156.40 L 151.13 156.39 C 150.12 156.38 149.30 157.19 149.29 158.19 C 149.27 159.20 150.08 160.03 151.09 160.04 Z M 152.03 160.05 L 153.02 160.10 C 154.03 160.14 154.88 159.36 154.92 158.35 C 154.97 157.35 154.19 156.49 153.18 156.45 L 152.19 156.40 C 151.19 156.36 150.33 157.14 150.29 158.15 C 150.24 159.15 151.02 160.01 152.03 160.05 Z M 152.93 160.09 L 153.90 160.19 C 154.90 160.28 155.79 159.55 155.89 158.54 C 155.99 157.54 155.25 156.64 154.25 156.55 L 153.28 156.45 C 152.27 156.36 151.38 157.09 151.28 158.10 C 151.18 159.10 151.92 159.99 152.93 160.09 Z M 153.77 160.17 L 154.67 160.32 C 155.67 160.49 156.61 159.82 156.78 158.82 C 156.94 157.82 156.27 156.88 155.27 156.71 L 154.37 156.56 C 153.38 156.39 152.43 157.07 152.27 158.06 C 152.10 159.06 152.77 160.00 153.77 160.17 Z M 154.50 160.29 L 155.43 160.53 C 156.41 160.79 157.42 160.21 157.67 159.23 C 157.93 158.25 157.35 157.25 156.37 156.99 L 155.44 156.74 C 154.46 156.49 153.46 157.07 153.20 158.05 C 152.94 159.03 153.53 160.03 154.50 160.29 Z M 155.25 160.48 L 156.23 160.85 C 157.18 161.21 158.24 160.73 158.60 159.78 C 158.96 158.84 158.48 157.78 157.53 157.42 L 156.55 157.05 C 155.60 156.69 154.54 157.16 154.18 158.11 C 153.82 159.06 154.30 160.12 155.25 160.48 Z M 156.06 160.78 L 156.99 161.24 C 157.90 161.70 159.00 161.33 159.46 160.42 C 159.91 159.52 159.55 158.41 158.64 157.96 L 157.70 157.49 C 156.80 157.04 155.69 157.40 155.24 158.31 C 154.78 159.22 155.15 160.32 156.06 160.78 Z M 156.87 161.18 L 157.65 161.65 C 158.52 162.18 159.65 161.89 160.18 161.02 C 160.70 160.15 160.42 159.02 159.55 158.50 L 158.77 158.02 C 157.89 157.50 156.76 157.78 156.24 158.65 C 155.71 159.52 155.99 160.65 156.87 161.18 Z M 157.55 161.60 L 158.36 162.15 C 159.20 162.72 160.35 162.51 160.93 161.67 C 161.50 160.83 161.29 159.68 160.45 159.10 L 159.64 158.55 C 158.80 157.97 157.65 158.19 157.08 159.03 C 156.50 159.87 156.71 161.02 157.55 161.60 Z M 158.27 162.09 L 159.09 162.72 C 159.90 163.34 161.06 163.19 161.68 162.38 C 162.31 161.57 162.15 160.40 161.34 159.78 L 160.53 159.16 C 159.72 158.53 158.56 158.69 157.94 159.50 C 157.31 160.31 157.46 161.47 158.27 162.09 Z M 159.01 162.66 L 159.81 163.35 C 160.59 164.01 161.76 163.92 162.43 163.14 C 163.10 162.36 163.00 161.19 162.23 160.53 L 161.42 159.84 C 160.64 159.17 159.47 159.26 158.80 160.04 C 158.14 160.82 158.23 161.99 159.01 162.66 Z M 159.74 163.29 L 160.52 164.03 C 161.26 164.74 162.44 164.71 163.15 163.96 C 163.86 163.21 163.83 162.04 163.08 161.33 L 162.30 160.59 C 161.56 159.88 160.38 159.91 159.67 160.66 C 158.96 161.40 158.99 162.58 159.74 163.29 Z M 160.45 163.96 L 161.19 164.74 C 161.89 165.49 163.07 165.52 163.82 164.81 C 164.57 164.10 164.60 162.92 163.89 162.17 L 163.15 161.39 C 162.44 160.65 161.26 160.62 160.52 161.33 C 159.77 162.04 159.74 163.22 160.45 163.96 Z M 161.13 164.68 L 161.82 165.48 C 162.50 166.26 163.68 166.34 164.46 165.67 C 165.23 164.99 165.32 163.81 164.64 163.03 L 163.95 162.23 C 163.27 161.45 162.09 161.37 161.31 162.04 C 160.53 162.72 160.45 163.90 161.13 164.68 Z M 161.77 165.43 L 162.42 166.23 C 163.07 167.03 164.24 167.16 165.05 166.52 C 165.85 165.87 165.98 164.69 165.33 163.89 L 164.69 163.08 C 164.04 162.28 162.87 162.15 162.06 162.80 C 161.26 163.44 161.13 164.62 161.77 165.43 Z M 162.38 166.18 L 162.97 166.97 C 163.59 167.79 164.76 167.96 165.59 167.34 C 166.42 166.72 166.58 165.55 165.96 164.72 L 165.38 163.94 C 164.76 163.11 163.58 162.94 162.75 163.56 C 161.93 164.18 161.76 165.35 162.38 166.18 Z M 162.93 166.92 L 163.46 167.67 C 164.05 168.52 165.22 168.72 166.07 168.13 C 166.92 167.53 167.12 166.36 166.52 165.51 L 166.00 164.77 C 165.40 163.92 164.23 163.72 163.39 164.31 C 162.54 164.91 162.34 166.08 162.93 166.92 Z M 163.42 167.62 L 164.00 168.49 C 164.57 169.36 165.73 169.60 166.60 169.03 C 167.46 168.46 167.70 167.30 167.13 166.43 L 166.56 165.56 C 165.99 164.69 164.83 164.45 163.96 165.02 C 163.09 165.59 162.85 166.76 163.42 167.62 Z M 163.96 168.44 L 164.50 169.33 C 165.03 170.22 166.19 170.50 167.08 169.96 C 167.97 169.42 168.25 168.27 167.71 167.38 L 167.17 166.49 C 166.63 165.60 165.48 165.32 164.59 165.85 C 163.70 166.39 163.42 167.55 163.96 168.44 Z M 164.46 169.27 L 164.92 170.10 C 165.43 171.01 166.57 171.33 167.48 170.83 C 168.39 170.32 168.72 169.17 168.21 168.27 L 167.75 167.44 C 167.24 166.53 166.10 166.20 165.19 166.71 C 164.28 167.22 163.96 168.36 164.46 169.27 Z M 164.90 170.06 L 165.33 170.87 C 165.81 171.79 166.95 172.14 167.87 171.66 C 168.79 171.17 169.15 170.03 168.66 169.11 L 168.23 168.30 C 167.75 167.38 166.61 167.03 165.69 167.52 C 164.77 168.00 164.41 169.14 164.90 170.06 Z M 165.32 170.86 L 165.77 171.74 C 166.25 172.66 167.39 173.02 168.32 172.54 C 169.24 172.06 169.60 170.92 169.12 170.00 L 168.67 169.12 C 168.19 168.20 167.05 167.84 166.12 168.32 C 165.20 168.80 164.84 169.94 165.32 170.86 Z M 165.76 171.72 L 166.22 172.63 C 166.69 173.56 167.83 173.93 168.76 173.46 C 169.69 172.99 170.06 171.85 169.59 170.92 L 169.14 170.02 C 168.67 169.08 167.53 168.71 166.60 169.18 C 165.66 169.65 165.29 170.79 165.76 171.72 Z M 166.20 172.59 L 166.63 173.50 C 167.08 174.44 168.21 174.84 169.15 174.39 C 170.10 173.94 170.50 172.81 170.05 171.87 L 169.62 170.96 C 169.17 170.01 168.04 169.61 167.09 170.06 C 166.15 170.51 165.75 171.64 166.20 172.59 Z M 166.60 173.43 L 166.99 174.35 C 167.41 175.31 168.52 175.76 169.48 175.34 C 170.45 174.93 170.89 173.81 170.48 172.85 L 170.08 171.93 C 169.67 170.97 168.55 170.52 167.59 170.94 C 166.63 171.35 166.18 172.47 166.60 173.43 Z M 166.96 174.27 L 167.31 175.21 C 167.68 176.20 168.77 176.69 169.75 176.33 C 170.74 175.96 171.23 174.87 170.87 173.88 L 170.51 172.94 C 170.15 171.96 169.05 171.46 168.07 171.82 C 167.09 172.19 166.59 173.28 166.96 174.27 Z M 167.28 175.14 L 167.59 176.07 C 167.91 177.07 168.98 177.62 169.98 177.29 C 170.98 176.97 171.52 175.90 171.20 174.90 L 170.90 173.96 C 170.57 172.96 169.50 172.42 168.50 172.74 C 167.50 173.07 166.96 174.14 167.28 175.14 Z M 167.57 176.02 L 167.84 176.96 C 168.14 177.97 169.19 178.55 170.20 178.26 C 171.21 177.96 171.79 176.91 171.49 175.90 L 171.22 174.96 C 170.93 173.95 169.87 173.37 168.86 173.66 C 167.86 173.95 167.28 175.01 167.57 176.02 Z M 167.83 176.92 L 168.09 177.89 C 168.36 178.90 169.40 179.50 170.42 179.23 C 171.43 178.96 172.03 177.92 171.76 176.90 L 171.50 175.94 C 171.23 174.93 170.19 174.32 169.18 174.60 C 168.16 174.87 167.56 175.91 167.83 176.92 Z M 168.08 177.85 L 168.32 178.83 C 168.57 179.85 169.60 180.47 170.62 180.22 C 171.64 179.96 172.26 178.93 172.01 177.92 L 171.77 176.94 C 171.52 175.92 170.49 175.30 169.47 175.55 C 168.45 175.80 167.83 176.83 168.08 177.85 Z M 168.31 178.79 L 168.53 179.76 C 168.76 180.79 169.78 181.43 170.80 181.20 C 171.83 180.97 172.47 179.95 172.24 178.93 L 172.02 177.95 C 171.79 176.93 170.77 176.29 169.75 176.52 C 168.73 176.75 168.08 177.76 168.31 178.79 Z M 168.52 179.72 L 168.72 180.71 C 168.93 181.74 169.93 182.41 170.96 182.20 C 171.99 181.99 172.66 180.99 172.45 179.96 L 172.25 178.97 C 172.04 177.94 171.04 177.28 170.01 177.48 C 168.98 177.69 168.32 178.69 168.52 179.72 Z M 168.72 180.67 L 168.89 181.66 C 169.08 182.69 170.07 183.37 171.10 183.19 C 172.13 183.00 172.82 182.02 172.63 180.98 L 172.45 180.00 C 172.27 178.97 171.28 178.28 170.25 178.47 C 169.22 178.65 168.53 179.64 168.72 180.67 Z M 168.89 181.62 L 169.05 182.60 C 169.22 183.64 170.19 184.34 171.22 184.17 C 172.26 184.00 172.96 183.03 172.79 182.00 L 172.64 181.02 C 172.47 179.98 171.49 179.28 170.46 179.45 C 169.43 179.62 168.72 180.59 168.89 181.62 Z M 169.05 182.57 L 169.19 183.56 C 169.34 184.60 170.31 185.32 171.34 185.16 C 172.38 185.01 173.09 184.05 172.94 183.01 L 172.80 182.02 C 172.64 180.99 171.68 180.27 170.65 180.42 C 169.61 180.58 168.89 181.54 169.05 182.57 Z M 169.19 183.54 L 169.32 184.53 C 169.46 185.56 170.41 186.29 171.45 186.16 C 172.48 186.02 173.21 185.07 173.07 184.03 L 172.94 183.04 C 172.81 182.00 171.85 181.27 170.82 181.41 C 169.78 181.55 169.05 182.50 169.19 183.54 Z M 169.32 184.50 L 169.44 185.49 C 169.56 186.53 170.50 187.27 171.54 187.15 C 172.57 187.03 173.32 186.09 173.19 185.05 L 173.08 184.06 C 172.95 183.02 172.01 182.28 170.98 182.40 C 169.94 182.53 169.20 183.47 169.32 184.50 Z M 169.44 185.47 L 169.54 186.38 C 169.64 187.42 170.57 188.17 171.61 188.06 C 172.65 187.95 173.40 187.02 173.29 185.99 L 173.19 185.07 C 173.08 184.04 172.15 183.29 171.12 183.39 C 170.08 183.50 169.33 184.43 169.44 185.47 Z M 169.54 186.36 L 169.63 187.29 C 169.72 188.33 170.64 189.09 171.67 188.99 C 172.71 188.90 173.47 187.98 173.37 186.94 L 173.29 186.01 C 173.19 184.97 172.27 184.21 171.24 184.31 C 170.20 184.41 169.44 185.32 169.54 186.36 Z M 169.63 187.28 L 169.72 188.32 C 169.81 189.35 170.71 190.11 171.75 190.03 C 172.78 189.94 173.55 189.03 173.46 188.00 L 173.37 186.96 C 173.28 185.93 172.37 185.16 171.34 185.25 C 170.31 185.34 169.54 186.25 169.63 187.28 Z M 169.72 188.31 L 169.81 189.37 C 169.89 190.40 170.79 191.16 171.82 191.08 C 172.85 191.00 173.62 190.10 173.54 189.07 L 173.45 188.01 C 173.37 186.98 172.47 186.21 171.44 186.29 C 170.41 186.37 169.64 187.28 169.72 188.31 Z M 169.81 189.36 L 169.89 190.31 C 169.97 191.34 170.87 192.11 171.90 192.03 C 172.92 191.94 173.69 191.04 173.61 190.02 L 173.53 189.07 C 173.45 188.04 172.55 187.27 171.52 187.35 C 170.50 187.44 169.73 188.34 169.81 189.36 Z M 169.89 190.32 L 169.98 191.33 C 170.06 192.35 170.96 193.11 171.99 193.03 C 173.01 192.94 173.77 192.04 173.69 191.01 L 173.60 190.01 C 173.52 188.98 172.62 188.22 171.59 188.31 C 170.57 188.40 169.81 189.30 169.89 190.32 Z M 169.98 191.34 L 170.08 192.38 C 170.18 193.40 171.08 194.15 172.10 194.05 C 173.12 193.96 173.87 193.05 173.78 192.03 L 173.68 191.00 C 173.59 189.98 172.68 189.23 171.66 189.32 C 170.64 189.42 169.89 190.32 169.98 191.34 Z M 170.09 192.40 L 170.20 193.43 C 170.31 194.45 171.22 195.18 172.24 195.07 C 173.25 194.96 173.99 194.05 173.88 193.03 L 173.77 192.00 C 173.66 190.99 172.75 190.25 171.73 190.36 C 170.71 190.47 169.98 191.38 170.09 192.40 Z M 170.21 193.46 L 170.34 194.50 C 170.47 195.51 171.40 196.22 172.41 196.09 C 173.41 195.96 174.13 195.04 174.00 194.03 L 173.87 193.00 C 173.74 191.99 172.81 191.28 171.81 191.40 C 170.80 191.53 170.08 192.46 170.21 193.46 Z M 170.37 194.54 L 170.52 195.55 C 170.67 196.55 171.60 197.23 172.59 197.08 C 173.59 196.93 174.28 196.00 174.13 195.01 L 173.98 193.99 C 173.83 193.00 172.90 192.31 171.90 192.46 C 170.90 192.61 170.22 193.54 170.37 194.54 Z M 170.54 195.58 L 170.71 196.56 C 170.87 197.54 171.81 198.20 172.79 198.04 C 173.77 197.87 174.43 196.94 174.27 195.96 L 174.10 194.98 C 173.94 194.00 173.01 193.33 172.02 193.50 C 171.04 193.66 170.38 194.60 170.54 195.58 Z M 170.73 196.58 L 170.91 197.54 C 171.08 198.51 172.01 199.15 172.98 198.97 C 173.95 198.80 174.59 197.87 174.42 196.90 L 174.25 195.94 C 174.07 194.97 173.14 194.33 172.17 194.50 C 171.20 194.68 170.56 195.61 170.73 196.58 Z M 170.93 197.54 L 171.08 198.36 C 171.26 199.32 172.18 199.95 173.14 199.77 C 174.10 199.59 174.73 198.67 174.55 197.71 L 174.40 196.89 C 174.22 195.94 173.30 195.30 172.34 195.48 C 171.38 195.66 170.75 196.58 170.93 197.54 Z"
      fill="black"
      fill-rule="nonzero" /><path d="M 114.20 137.76 L 113.21 137.30 C 112.43 136.94 111.51 137.27 111.15 138.05 C 110.79 138.82 111.13 139.74 111.90 140.10 L 112.89 140.57 C 113.67 140.93 114.59 140.59 114.95 139.82 C 115.31 139.04 114.98 138.12 114.20 137.76 Z M 113.21 137.28 L 112.23 136.82 C 111.44 136.46 110.51 136.80 110.15 137.59 C 109.79 138.38 110.13 139.31 110.92 139.67 L 111.90 140.13 C 112.68 140.49 113.61 140.15 113.98 139.36 C 114.34 138.57 114.00 137.64 113.21 137.28 Z M 112.23 136.80 L 111.28 136.37 C 110.48 136.01 109.53 136.36 109.17 137.16 C 108.81 137.96 109.16 138.90 109.96 139.27 L 110.92 139.70 C 111.72 140.06 112.66 139.70 113.02 138.90 C 113.38 138.10 113.03 137.16 112.23 136.80 Z M 111.27 136.34 L 110.36 135.94 C 109.54 135.58 108.59 135.95 108.23 136.77 C 107.87 137.59 108.25 138.54 109.06 138.89 L 109.97 139.29 C 110.79 139.65 111.74 139.28 112.10 138.46 C 112.45 137.65 112.08 136.70 111.27 136.34 Z M 110.34 135.91 L 109.48 135.55 C 108.65 135.20 107.69 135.60 107.34 136.43 C 107.00 137.26 107.39 138.22 108.22 138.57 L 109.08 138.93 C 109.91 139.27 110.87 138.88 111.22 138.05 C 111.56 137.21 111.17 136.26 110.34 135.91 Z M 109.45 135.51 L 108.63 135.20 C 107.78 134.87 106.82 135.30 106.49 136.15 C 106.16 137.00 106.59 137.96 107.44 138.29 L 108.25 138.60 C 109.11 138.93 110.07 138.51 110.40 137.66 C 110.72 136.80 110.30 135.84 109.45 135.51 Z M 108.55 135.15 L 107.09 134.68 C 106.21 134.40 105.26 134.88 104.98 135.76 C 104.70 136.64 105.18 137.59 106.06 137.87 L 107.52 138.34 C 108.40 138.62 109.35 138.14 109.63 137.26 C 109.92 136.38 109.43 135.43 108.55 135.15 Z M 106.98 134.63 L 106.12 134.42 C 105.21 134.19 104.30 134.75 104.07 135.66 C 103.85 136.57 104.40 137.49 105.31 137.71 L 106.17 137.92 C 107.08 138.14 108.00 137.59 108.22 136.68 C 108.45 135.77 107.89 134.85 106.98 134.63 Z M 106.10 134.40 L 106.04 134.38 C 105.12 134.17 104.20 134.75 103.99 135.67 C 103.78 136.59 104.35 137.51 105.27 137.72 L 105.34 137.73 C 106.26 137.94 107.17 137.37 107.38 136.44 C 107.60 135.52 107.02 134.61 106.10 134.40 Z M 105.36 137.74 L 106.22 137.89 C 107.16 138.05 108.05 137.43 108.21 136.49 C 108.37 135.56 107.75 134.67 106.81 134.51 L 105.95 134.36 C 105.02 134.20 104.13 134.82 103.96 135.75 C 103.80 136.69 104.43 137.58 105.36 137.74 Z M 106.22 137.89 L 107.63 138.14 C 108.57 138.30 109.46 137.68 109.62 136.74 C 109.78 135.81 109.16 134.92 108.22 134.76 L 106.82 134.51 C 105.88 134.35 104.99 134.97 104.83 135.90 C 104.66 136.84 105.29 137.73 106.22 137.89 Z M 107.63 138.14 L 108.60 138.31 C 109.53 138.47 110.42 137.85 110.58 136.91 C 110.75 135.98 110.12 135.09 109.19 134.92 L 108.22 134.75 C 107.29 134.59 106.40 135.22 106.24 136.15 C 106.07 137.08 106.70 137.97 107.63 138.14 Z M 108.60 138.31 L 109.61 138.48 C 110.54 138.64 111.43 138.02 111.59 137.08 C 111.75 136.15 111.13 135.26 110.19 135.10 L 109.19 134.92 C 108.25 134.76 107.36 135.39 107.20 136.32 C 107.04 137.26 107.66 138.15 108.60 138.31 Z M 109.61 138.49 L 110.62 138.66 C 111.56 138.81 112.45 138.18 112.60 137.24 C 112.76 136.31 112.13 135.42 111.19 135.26 L 110.18 135.09 C 109.25 134.94 108.36 135.57 108.20 136.50 C 108.05 137.44 108.68 138.33 109.61 138.49 Z M 110.63 138.66 L 111.61 138.81 C 112.54 138.96 113.43 138.33 113.58 137.39 C 113.73 136.45 113.09 135.57 112.15 135.42 L 111.18 135.26 C 110.24 135.11 109.36 135.75 109.21 136.69 C 109.06 137.63 109.70 138.51 110.63 138.66 Z M 111.63 138.82 L 112.68 138.97 C 113.62 139.11 114.49 138.46 114.63 137.52 C 114.77 136.58 114.12 135.71 113.18 135.57 L 112.13 135.41 C 111.19 135.27 110.31 135.92 110.17 136.86 C 110.04 137.80 110.69 138.68 111.63 138.82 Z M 112.71 138.98 L 113.69 139.11 C 114.63 139.23 115.50 138.57 115.62 137.62 C 115.74 136.68 115.08 135.81 114.14 135.69 L 113.15 135.56 C 112.21 135.44 111.34 136.10 111.22 137.05 C 111.10 137.99 111.76 138.85 112.71 138.98 Z M 113.72 139.11 L 114.67 139.22 C 115.62 139.33 116.47 138.65 116.58 137.70 C 116.69 136.76 116.01 135.90 115.06 135.80 L 114.11 135.69 C 113.16 135.58 112.31 136.26 112.20 137.20 C 112.09 138.15 112.77 139.00 113.72 139.11 Z M 114.70 139.22 L 115.64 139.32 C 116.59 139.41 117.43 138.72 117.53 137.77 C 117.62 136.82 116.93 135.98 115.98 135.88 L 115.04 135.79 C 114.09 135.70 113.25 136.39 113.15 137.34 C 113.06 138.29 113.75 139.13 114.70 139.22 Z M 115.66 139.32 L 116.62 139.40 C 117.57 139.48 118.40 138.78 118.48 137.83 C 118.57 136.88 117.86 136.04 116.91 135.96 L 115.96 135.88 C 115.01 135.80 114.17 136.50 114.09 137.45 C 114.01 138.40 114.72 139.24 115.66 139.32 Z M 116.64 139.40 L 117.64 139.48 C 118.59 139.55 119.41 138.84 119.49 137.89 C 119.56 136.94 118.85 136.11 117.90 136.04 L 116.90 135.96 C 115.95 135.89 115.12 136.60 115.05 137.55 C 114.97 138.50 115.69 139.33 116.64 139.40 Z M 117.65 139.48 L 118.70 139.55 C 119.66 139.62 120.48 138.90 120.54 137.95 C 120.61 137.00 119.89 136.17 118.94 136.11 L 117.88 136.04 C 116.93 135.97 116.11 136.69 116.05 137.64 C 115.98 138.59 116.70 139.41 117.65 139.48 Z M 118.71 139.55 L 119.68 139.61 C 120.63 139.68 121.45 138.95 121.51 138.00 C 121.58 137.05 120.85 136.23 119.90 136.17 L 118.93 136.11 C 117.98 136.05 117.16 136.77 117.10 137.72 C 117.04 138.67 117.76 139.49 118.71 139.55 Z M 119.69 139.62 L 120.67 139.67 C 121.62 139.73 122.44 139.01 122.50 138.06 C 122.56 137.10 121.83 136.29 120.88 136.23 L 119.90 136.17 C 118.95 136.11 118.13 136.84 118.07 137.79 C 118.01 138.74 118.74 139.56 119.69 139.62 Z M 120.68 139.68 L 121.69 139.73 C 122.64 139.78 123.46 139.06 123.51 138.10 C 123.56 137.15 122.83 136.34 121.88 136.29 L 120.87 136.23 C 119.92 136.18 119.11 136.90 119.05 137.86 C 119.00 138.81 119.73 139.62 120.68 139.68 Z M 121.70 139.73 L 122.73 139.78 C 123.68 139.83 124.49 139.10 124.54 138.15 C 124.59 137.20 123.85 136.38 122.90 136.34 L 121.87 136.28 C 120.92 136.24 120.11 136.97 120.06 137.92 C 120.01 138.87 120.75 139.68 121.70 139.73 Z M 122.74 139.78 L 123.75 139.83 C 124.70 139.87 125.51 139.13 125.55 138.18 C 125.59 137.23 124.85 136.42 123.90 136.38 L 122.89 136.34 C 121.94 136.29 121.13 137.03 121.09 137.98 C 121.05 138.94 121.79 139.74 122.74 139.78 Z M 123.76 139.83 L 124.75 139.87 C 125.70 139.90 126.51 139.16 126.54 138.21 C 126.58 137.25 125.83 136.45 124.88 136.42 L 123.89 136.38 C 122.94 136.34 122.14 137.09 122.10 138.04 C 122.07 138.99 122.81 139.79 123.76 139.83 Z M 124.76 139.87 L 125.76 139.90 C 126.71 139.93 127.51 139.18 127.54 138.23 C 127.57 137.27 126.82 136.48 125.87 136.45 L 124.87 136.42 C 123.92 136.39 123.12 137.14 123.09 138.09 C 123.06 139.04 123.81 139.84 124.76 139.87 Z M 125.77 139.90 L 126.77 139.92 C 127.73 139.95 128.52 139.19 128.54 138.24 C 128.56 137.29 127.81 136.50 126.86 136.47 L 125.85 136.45 C 124.90 136.42 124.11 137.18 124.09 138.13 C 124.06 139.08 124.82 139.88 125.77 139.90 Z M 126.78 139.92 L 127.80 139.94 C 128.75 139.96 129.54 139.20 129.55 138.25 C 129.57 137.29 128.81 136.51 127.86 136.49 L 126.85 136.47 C 125.89 136.45 125.11 137.21 125.09 138.17 C 125.07 139.12 125.83 139.91 126.78 139.92 Z M 127.81 139.94 L 128.79 139.95 C 129.74 139.96 130.52 139.20 130.53 138.25 C 130.54 137.29 129.78 136.51 128.83 136.50 L 127.85 136.49 C 126.89 136.48 126.11 137.24 126.10 138.20 C 126.09 139.15 126.85 139.93 127.81 139.94 Z M 128.80 139.95 L 129.78 139.96 C 130.74 139.97 131.52 139.20 131.52 138.25 C 131.53 137.29 130.76 136.51 129.81 136.51 L 128.82 136.50 C 127.87 136.49 127.09 137.26 127.08 138.22 C 127.07 139.17 127.84 139.95 128.80 139.95 Z M 129.79 139.96 L 130.79 139.96 C 131.75 139.97 132.52 139.20 132.52 138.24 C 132.53 137.29 131.76 136.51 130.80 136.51 L 129.80 136.51 C 128.85 136.50 128.07 137.27 128.07 138.23 C 128.07 139.18 128.84 139.96 129.79 139.96 Z M 130.80 139.96 L 131.81 139.96 C 132.76 139.97 133.54 139.19 133.54 138.24 C 133.54 137.29 132.77 136.51 131.81 136.51 L 130.80 136.51 C 129.85 136.51 129.07 137.28 129.07 138.24 C 129.07 139.19 129.84 139.96 130.80 139.96 Z M 131.81 139.96 L 132.82 139.96 C 133.78 139.97 134.55 139.19 134.55 138.24 C 134.55 137.29 133.78 136.51 132.82 136.51 L 131.81 136.51 C 130.86 136.51 130.08 137.28 130.08 138.24 C 130.08 139.19 130.86 139.96 131.81 139.96 Z M 132.82 139.96 L 133.80 139.96 C 134.76 139.96 135.53 139.19 135.53 138.24 C 135.53 137.29 134.76 136.51 133.80 136.51 L 132.82 136.51 C 131.87 136.51 131.10 137.29 131.10 138.24 C 131.10 139.19 131.87 139.96 132.82 139.96 Z M 133.80 139.96 L 134.80 139.96 C 135.75 139.96 136.52 139.19 136.52 138.24 C 136.52 137.29 135.75 136.51 134.80 136.51 L 133.80 136.51 C 132.85 136.51 132.08 137.29 132.08 138.24 C 132.08 139.19 132.85 139.96 133.80 139.96 Z M 134.80 139.96 L 135.80 139.96 C 136.75 139.96 137.52 139.19 137.52 138.24 C 137.52 137.29 136.75 136.51 135.80 136.51 L 134.80 136.51 C 133.84 136.51 133.07 137.29 133.07 138.24 C 133.07 139.19 133.84 139.96 134.80 139.96 Z M 135.80 139.96 L 136.81 139.96 C 137.76 139.96 138.54 139.19 138.54 138.24 C 138.54 137.29 137.76 136.51 136.81 136.51 L 135.80 136.51 C 134.84 136.51 134.07 137.29 134.07 138.24 C 134.07 139.19 134.84 139.96 135.80 139.96 Z M 136.81 139.96 L 137.83 139.96 C 138.78 139.96 139.55 139.19 139.55 138.24 C 139.55 137.29 138.78 136.51 137.83 136.51 L 136.81 136.51 C 135.86 136.51 135.08 137.29 135.08 138.24 C 135.08 139.19 135.86 139.96 136.81 139.96 Z M 137.83 139.96 L 138.82 139.96 C 139.77 139.96 140.54 139.19 140.54 138.24 C 140.54 137.28 139.77 136.51 138.81 136.51 L 137.82 136.51 C 136.87 136.51 136.10 137.29 136.10 138.24 C 136.10 139.19 136.87 139.97 137.83 139.96 Z M 138.82 139.96 L 139.82 139.96 C 140.77 139.95 141.54 139.18 141.54 138.22 C 141.53 137.27 140.76 136.50 139.80 136.51 L 138.81 136.51 C 137.85 136.52 137.08 137.29 137.09 138.25 C 137.09 139.20 137.87 139.97 138.82 139.96 Z M 139.83 139.96 L 140.84 139.94 C 141.79 139.93 142.55 139.15 142.54 138.20 C 142.53 137.24 141.74 136.48 140.79 136.49 L 139.79 136.51 C 138.84 136.52 138.07 137.30 138.09 138.25 C 138.10 139.21 138.88 139.97 139.83 139.96 Z M 140.86 139.94 L 141.86 139.92 C 142.81 139.90 143.57 139.11 143.54 138.15 C 143.52 137.20 142.73 136.45 141.78 136.47 L 140.77 136.49 C 139.82 136.52 139.06 137.31 139.09 138.26 C 139.11 139.21 139.90 139.97 140.86 139.94 Z M 141.89 139.92 L 142.89 139.88 C 143.85 139.84 144.59 139.04 144.55 138.09 C 144.51 137.13 143.71 136.39 142.76 136.43 L 141.75 136.47 C 140.80 136.51 140.06 137.31 140.09 138.26 C 140.13 139.22 140.93 139.96 141.89 139.92 Z M 142.92 139.88 L 143.90 139.82 C 144.85 139.77 145.58 138.95 145.52 138.00 C 145.47 137.05 144.66 136.32 143.70 136.38 L 142.73 136.43 C 141.78 136.49 141.05 137.30 141.10 138.25 C 141.16 139.20 141.97 139.93 142.92 139.88 Z M 143.93 139.82 L 144.90 139.75 C 145.85 139.68 146.57 138.85 146.50 137.90 C 146.43 136.95 145.60 136.24 144.65 136.31 L 143.68 136.38 C 142.73 136.45 142.01 137.27 142.08 138.22 C 142.15 139.17 142.98 139.89 143.93 139.82 Z M 144.93 139.75 L 145.91 139.66 C 146.86 139.58 147.57 138.75 147.48 137.80 C 147.40 136.85 146.57 136.14 145.62 136.23 L 144.63 136.31 C 143.68 136.39 142.98 137.23 143.06 138.17 C 143.14 139.12 143.98 139.83 144.93 139.75 Z M 145.93 139.66 L 146.93 139.56 C 147.88 139.47 148.57 138.63 148.48 137.69 C 148.39 136.74 147.55 136.04 146.60 136.13 L 145.60 136.23 C 144.65 136.32 143.96 137.16 144.05 138.11 C 144.14 139.05 144.98 139.75 145.93 139.66 Z M 146.94 139.56 L 147.96 139.46 C 148.91 139.36 149.60 138.52 149.50 137.57 C 149.41 136.62 148.56 135.93 147.61 136.03 L 146.59 136.13 C 145.65 136.23 144.96 137.07 145.05 138.02 C 145.15 138.97 145.99 139.66 146.94 139.56 Z M 147.97 139.46 L 148.97 139.35 C 149.92 139.25 150.61 138.41 150.51 137.46 C 150.41 136.51 149.56 135.83 148.62 135.93 L 147.61 136.03 C 146.66 136.13 145.97 136.98 146.07 137.92 C 146.17 138.87 147.02 139.56 147.97 139.46 Z M 148.98 139.35 L 149.97 139.25 C 150.91 139.15 151.60 138.30 151.50 137.35 C 151.40 136.41 150.55 135.72 149.60 135.82 L 148.61 135.93 C 147.67 136.03 146.98 136.88 147.08 137.82 C 147.18 138.77 148.03 139.45 148.98 139.35 Z M 149.97 139.25 L 150.97 139.14 C 151.92 139.04 152.60 138.19 152.50 137.24 C 152.40 136.30 151.55 135.61 150.60 135.71 L 149.60 135.82 C 148.65 135.92 147.97 136.77 148.07 137.72 C 148.17 138.67 149.02 139.35 149.97 139.25 Z M 150.97 139.14 L 151.98 139.03 C 152.93 138.92 153.61 138.07 153.50 137.13 C 153.40 136.18 152.55 135.50 151.60 135.60 L 150.60 135.71 C 149.65 135.82 148.97 136.67 149.07 137.61 C 149.18 138.56 150.03 139.24 150.97 139.14 Z M 151.98 139.03 L 152.98 138.92 C 153.93 138.81 154.61 137.96 154.50 137.01 C 154.40 136.07 153.55 135.39 152.60 135.49 L 151.60 135.61 C 150.66 135.71 149.98 136.56 150.08 137.51 C 150.19 138.45 151.04 139.13 151.98 139.03 Z M 152.99 138.91 L 153.98 138.80 C 154.92 138.69 155.60 137.84 155.49 136.90 C 155.38 135.95 154.53 135.27 153.59 135.38 L 152.60 135.49 C 151.65 135.60 150.97 136.45 151.08 137.40 C 151.19 138.34 152.04 139.02 152.99 138.91 Z M 153.98 138.80 L 154.99 138.68 C 155.94 138.57 156.61 137.72 156.50 136.77 C 156.39 135.83 155.54 135.15 154.60 135.26 L 153.58 135.38 C 152.64 135.49 151.96 136.35 152.07 137.29 C 152.18 138.24 153.04 138.91 153.98 138.80 Z M 155.00 138.68 L 156.02 138.56 C 156.96 138.45 157.63 137.59 157.52 136.65 C 157.41 135.71 156.55 135.03 155.61 135.14 L 154.59 135.27 C 153.65 135.38 152.97 136.23 153.09 137.18 C 153.20 138.12 154.05 138.79 155.00 138.68 Z M 156.02 138.56 L 157.02 138.44 C 157.96 138.33 158.63 137.47 158.52 136.53 C 158.41 135.59 157.55 134.91 156.61 135.03 L 155.61 135.15 C 154.67 135.26 153.99 136.11 154.11 137.06 C 154.22 138.00 155.08 138.67 156.02 138.56 Z M 157.02 138.44 L 158.00 138.32 C 158.94 138.21 159.61 137.35 159.50 136.41 C 159.39 135.47 158.53 134.80 157.59 134.91 L 156.61 135.03 C 155.66 135.14 154.99 135.99 155.10 136.94 C 155.22 137.88 156.07 138.55 157.02 138.44 Z M 158.00 138.32 L 158.97 138.21 C 159.91 138.10 160.58 137.24 160.47 136.30 C 160.36 135.36 159.51 134.68 158.56 134.79 L 157.59 134.91 C 156.65 135.02 155.98 135.87 156.09 136.82 C 156.20 137.76 157.05 138.43 158.00 138.32 Z M 158.96 138.21 L 159.93 138.10 C 160.87 137.99 161.55 137.14 161.44 136.19 C 161.33 135.25 160.48 134.57 159.54 134.68 L 158.57 134.79 C 157.63 134.90 156.95 135.75 157.06 136.70 C 157.17 137.64 158.02 138.32 158.96 138.21 Z M 159.92 138.10 L 160.93 137.98 C 161.87 137.88 162.55 137.03 162.45 136.09 C 162.34 135.14 161.49 134.47 160.55 134.57 L 159.55 134.68 C 158.60 134.79 157.92 135.64 158.03 136.58 C 158.13 137.52 158.98 138.20 159.92 138.10 Z M 160.92 137.98 L 161.92 137.88 C 162.86 137.77 163.55 136.93 163.44 135.99 C 163.34 135.04 162.50 134.36 161.55 134.46 L 160.55 134.57 C 159.61 134.67 158.93 135.52 159.03 136.46 C 159.13 137.40 159.98 138.09 160.92 137.98 Z M 161.92 137.88 L 162.91 137.77 C 163.85 137.67 164.54 136.83 164.44 135.88 C 164.34 134.94 163.49 134.26 162.55 134.36 L 161.56 134.46 C 160.61 134.56 159.93 135.41 160.03 136.35 C 160.13 137.29 160.98 137.98 161.92 137.88 Z M 162.91 137.77 L 163.90 137.67 C 164.84 137.57 165.53 136.73 165.43 135.78 C 165.33 134.84 164.49 134.16 163.54 134.26 L 162.55 134.36 C 161.61 134.46 160.93 135.30 161.03 136.24 C 161.12 137.18 161.97 137.87 162.91 137.77 Z M 163.90 137.67 L 164.88 137.56 C 165.82 137.47 166.51 136.62 166.41 135.68 C 166.31 134.74 165.47 134.06 164.53 134.15 L 163.54 134.26 C 162.60 134.35 161.92 135.20 162.02 136.14 C 162.11 137.08 162.96 137.76 163.90 137.67 Z M 164.88 137.56 L 165.90 137.46 C 166.84 137.36 167.52 136.52 167.42 135.58 C 167.32 134.64 166.48 133.95 165.54 134.05 L 164.53 134.15 C 163.59 134.25 162.90 135.10 163.00 136.04 C 163.10 136.98 163.94 137.66 164.88 137.56 Z M 165.89 137.46 L 166.90 137.35 C 167.84 137.25 168.53 136.41 168.43 135.47 C 168.33 134.53 167.49 133.85 166.55 133.95 L 165.54 134.05 C 164.60 134.15 163.92 134.99 164.02 135.93 C 164.11 136.87 164.95 137.55 165.89 137.46 Z M 166.90 137.35 L 167.90 137.25 C 168.84 137.15 169.52 136.31 169.42 135.37 C 169.33 134.43 168.49 133.75 167.55 133.85 L 166.55 133.95 C 165.61 134.04 164.93 134.88 165.02 135.82 C 165.12 136.76 165.96 137.45 166.90 137.35 Z M 167.89 137.25 L 168.88 137.15 C 169.82 137.05 170.50 136.22 170.41 135.28 C 170.31 134.34 169.48 133.65 168.54 133.75 L 167.55 133.85 C 166.61 133.94 165.93 134.78 166.02 135.72 C 166.12 136.66 166.95 137.34 167.89 137.25 Z M 168.87 137.15 L 169.85 137.05 C 170.78 136.96 171.47 136.13 171.38 135.19 C 171.29 134.25 170.45 133.56 169.51 133.65 L 168.54 133.75 C 167.60 133.84 166.92 134.68 167.01 135.61 C 167.10 136.55 167.94 137.24 168.87 137.15 Z M 169.84 137.05 L 170.87 136.95 C 171.81 136.87 172.50 136.03 172.41 135.10 C 172.32 134.16 171.49 133.47 170.55 133.56 L 169.52 133.65 C 168.58 133.74 167.89 134.57 167.98 135.51 C 168.07 136.45 168.90 137.14 169.84 137.05 Z M 170.87 136.95 L 171.88 136.86 C 172.82 136.78 173.51 135.95 173.43 135.01 C 173.34 134.07 172.51 133.38 171.57 133.46 L 170.56 133.56 C 169.62 133.64 168.93 134.47 169.01 135.41 C 169.10 136.35 169.93 137.04 170.87 136.95 Z M 171.88 136.86 L 172.87 136.77 C 173.81 136.69 174.50 135.86 174.42 134.92 C 174.34 133.98 173.51 133.29 172.57 133.38 L 171.57 133.46 C 170.64 133.55 169.94 134.38 170.03 135.32 C 170.11 136.25 170.94 136.95 171.88 136.86 Z M 172.87 136.77 L 173.84 136.69 C 174.78 136.60 175.47 135.77 175.39 134.84 C 175.31 133.90 174.48 133.21 173.54 133.29 L 172.57 133.38 C 171.63 133.46 170.94 134.29 171.02 135.23 C 171.11 136.16 171.93 136.86 172.87 136.77 Z M 173.85 136.69 L 174.82 136.60 C 175.76 136.51 176.45 135.68 176.37 134.74 C 176.28 133.81 175.45 133.12 174.52 133.20 L 173.54 133.29 C 172.60 133.37 171.91 134.20 171.99 135.14 C 172.08 136.08 172.91 136.77 173.85 136.69 Z M 174.83 136.60 L 175.84 136.50 C 176.77 136.42 177.46 135.59 177.38 134.65 C 177.29 133.71 176.46 133.02 175.52 133.11 L 174.51 133.20 C 173.58 133.29 172.89 134.12 172.97 135.06 C 173.06 135.99 173.89 136.68 174.83 136.60 Z M 175.84 136.50 L 176.83 136.41 C 177.76 136.32 178.45 135.50 178.37 134.56 C 178.28 133.62 177.45 132.93 176.52 133.02 L 175.53 133.11 C 174.59 133.20 173.90 134.02 173.98 134.96 C 174.07 135.90 174.90 136.59 175.84 136.50 Z M 176.82 136.41 L 177.81 136.32 C 178.74 136.24 179.43 135.41 179.35 134.48 C 179.27 133.54 178.44 132.85 177.51 132.93 L 176.52 133.02 C 175.59 133.10 174.90 133.93 174.98 134.86 C 175.06 135.80 175.89 136.49 176.82 136.41 Z M 177.80 136.32 L 178.78 136.24 C 179.72 136.16 180.41 135.34 180.33 134.41 C 180.26 133.47 179.44 132.78 178.50 132.85 L 177.52 132.93 C 176.58 133.01 175.89 133.83 175.96 134.77 C 176.04 135.70 176.86 136.40 177.80 136.32 Z M 178.77 136.24 L 179.75 136.17 C 180.68 136.10 181.39 135.28 181.32 134.35 C 181.25 133.41 180.43 132.71 179.50 132.78 L 178.51 132.85 C 177.58 132.92 176.88 133.74 176.95 134.67 C 177.02 135.61 177.83 136.31 178.77 136.24 Z M 179.74 136.17 L 180.73 136.10 C 181.66 136.04 182.37 135.23 182.31 134.30 C 182.25 133.36 181.44 132.65 180.50 132.71 L 179.51 132.78 C 178.57 132.84 177.86 133.65 177.93 134.59 C 177.99 135.52 178.80 136.23 179.74 136.17 Z M 180.71 136.10 L 181.72 136.05 C 182.65 135.99 183.37 135.19 183.31 134.25 C 183.26 133.31 182.45 132.60 181.52 132.65 L 180.51 132.71 C 179.58 132.77 178.86 133.57 178.92 134.51 C 178.97 135.44 179.78 136.16 180.71 136.10 Z M 181.70 136.05 L 182.72 136.00 C 183.65 135.95 184.38 135.15 184.33 134.21 C 184.28 133.28 183.48 132.55 182.55 132.60 L 181.53 132.65 C 180.59 132.70 179.87 133.50 179.92 134.44 C 179.97 135.37 180.76 136.09 181.70 136.05 Z M 182.71 136.01 L 184.04 135.95 C 184.99 135.91 185.72 135.10 185.67 134.15 C 185.63 133.21 184.82 132.47 183.88 132.52 L 182.55 132.58 C 181.60 132.63 180.87 133.43 180.92 134.38 C 180.96 135.33 181.77 136.06 182.71 136.01 Z M 184.13 135.98 L 185.25 135.88 C 186.22 135.78 186.93 134.92 186.83 133.96 C 186.74 132.99 185.88 132.28 184.91 132.38 L 183.79 132.49 C 182.82 132.58 182.11 133.44 182.21 134.40 C 182.30 135.37 183.16 136.08 184.13 135.98 Z M 185.76 135.79 L 186.30 135.58 C 187.22 135.20 187.66 134.15 187.29 133.23 C 186.92 132.31 185.87 131.87 184.94 132.24 L 184.41 132.46 C 183.49 132.83 183.04 133.88 183.41 134.80 C 183.79 135.72 184.84 136.17 185.76 135.79 Z M 186.98 132.69 L 186.65 132.32 C 185.97 131.57 184.82 131.51 184.07 132.18 C 183.32 132.86 183.26 134.01 183.93 134.76 L 184.26 135.13 C 184.94 135.88 186.09 135.94 186.84 135.27 C 187.59 134.59 187.66 133.44 186.98 132.69 Z M 185.81 131.78 L 184.84 131.49 C 183.86 131.20 182.84 131.76 182.55 132.73 C 182.27 133.70 182.82 134.72 183.79 135.01 L 184.77 135.30 C 185.74 135.59 186.76 135.03 187.05 134.06 C 187.34 133.09 186.78 132.07 185.81 131.78 Z M 184.05 131.43 L 182.94 131.59 C 181.94 131.73 181.24 132.67 181.38 133.67 C 181.53 134.68 182.46 135.38 183.47 135.23 L 184.58 135.07 C 185.58 134.93 186.28 133.99 186.13 132.99 C 185.99 131.98 185.06 131.29 184.05 131.43 Z M 181.90 132.11 L 181.29 132.72 C 180.57 133.43 180.57 134.60 181.28 135.32 C 182.00 136.04 183.17 136.04 183.89 135.33 L 184.50 134.72 C 185.22 134.00 185.23 132.83 184.51 132.11 C 183.79 131.39 182.63 131.39 181.90 132.11 Z M 180.87 133.36 L 180.55 134.19 C 180.18 135.14 180.65 136.21 181.60 136.58 C 182.55 136.94 183.62 136.47 183.98 135.52 L 184.31 134.69 C 184.67 133.74 184.20 132.67 183.25 132.30 C 182.30 131.94 181.24 132.41 180.87 133.36 Z M 180.46 134.53 L 180.27 135.55 C 180.09 136.55 180.75 137.50 181.75 137.69 C 182.75 137.87 183.71 137.21 183.89 136.21 L 184.08 135.19 C 184.26 134.19 183.60 133.23 182.60 133.05 C 181.60 132.86 180.64 133.53 180.46 134.53 Z M 180.25 135.72 L 180.15 136.82 C 180.07 137.83 180.82 138.72 181.84 138.81 C 182.85 138.89 183.74 138.14 183.82 137.13 L 183.91 136.03 C 184.00 135.02 183.25 134.13 182.23 134.04 C 181.22 133.96 180.33 134.71 180.25 135.72 Z M 180.15 136.91 L 180.11 137.98 C 180.07 139.00 180.87 139.85 181.88 139.89 C 182.90 139.93 183.75 139.13 183.79 138.12 L 183.83 137.04 C 183.87 136.03 183.07 135.17 182.06 135.14 C 181.04 135.10 180.19 135.89 180.15 136.91 Z M 180.11 138.00 L 180.08 139.17 C 180.05 140.18 180.85 141.03 181.86 141.06 C 182.88 141.09 183.72 140.29 183.75 139.27 L 183.79 138.10 C 183.82 137.09 183.02 136.24 182.00 136.21 C 180.99 136.18 180.14 136.98 180.11 138.00 Z M 180.08 139.15 L 180.04 140.19 C 180.00 141.20 180.79 142.06 181.81 142.09 C 182.82 142.13 183.67 141.34 183.71 140.33 L 183.75 139.29 C 183.79 138.28 183.00 137.42 181.99 137.38 C 180.97 137.35 180.12 138.14 180.08 139.15 Z M 180.05 140.16 L 180.00 141.08 C 179.94 142.09 180.72 142.95 181.73 143.00 C 182.74 143.06 183.60 142.28 183.66 141.27 L 183.71 140.36 C 183.76 139.35 182.98 138.48 181.97 138.43 C 180.96 138.38 180.10 139.15 180.05 140.16 Z M 180.00 141.04 L 179.94 141.91 C 179.87 142.92 180.62 143.80 181.63 143.87 C 182.64 143.94 183.51 143.18 183.59 142.18 L 183.65 141.31 C 183.72 140.30 182.97 139.42 181.96 139.35 C 180.95 139.28 180.08 140.04 180.00 141.04 Z M 179.95 141.88 L 179.86 142.82 C 179.77 143.82 180.51 144.71 181.51 144.80 C 182.52 144.89 183.40 144.15 183.50 143.15 L 183.58 142.21 C 183.67 141.21 182.93 140.32 181.93 140.23 C 180.93 140.14 180.04 140.87 179.95 141.88 Z M 179.87 142.80 L 179.77 143.78 C 179.66 144.78 180.39 145.67 181.39 145.77 C 182.39 145.88 183.29 145.15 183.39 144.15 L 183.49 143.17 C 183.59 142.17 182.86 141.27 181.86 141.17 C 180.86 141.07 179.97 141.80 179.87 142.80 Z M 179.77 143.77 L 179.66 144.80 C 179.56 145.80 180.28 146.69 181.28 146.80 C 182.27 146.90 183.17 146.18 183.27 145.19 L 183.38 144.15 C 183.49 143.16 182.77 142.26 181.77 142.16 C 180.77 142.05 179.88 142.77 179.77 143.77 Z M 179.67 144.81 L 179.56 145.81 C 179.46 146.81 180.18 147.70 181.18 147.80 C 182.17 147.90 183.06 147.18 183.17 146.19 L 183.27 145.18 C 183.37 144.19 182.65 143.30 181.65 143.19 C 180.66 143.09 179.77 143.81 179.67 144.81 Z M 179.57 145.82 L 179.47 146.79 C 179.37 147.78 180.09 148.67 181.09 148.77 C 182.08 148.87 182.96 148.14 183.06 147.15 L 183.16 146.18 C 183.26 145.19 182.54 144.30 181.54 144.20 C 180.55 144.10 179.67 144.83 179.57 145.82 Z M 179.48 146.79 L 179.38 147.79 C 179.28 148.78 180.00 149.66 180.99 149.76 C 181.98 149.86 182.86 149.14 182.96 148.15 L 183.06 147.15 C 183.16 146.16 182.44 145.28 181.45 145.18 C 180.46 145.08 179.57 145.80 179.48 146.79 Z M 179.38 147.79 L 179.28 148.81 C 179.17 149.79 179.89 150.68 180.88 150.78 C 181.86 150.88 182.75 150.16 182.85 149.18 L 182.95 148.16 C 183.05 147.17 182.34 146.29 181.35 146.19 C 180.36 146.09 179.48 146.80 179.38 147.79 Z M 179.28 148.80 L 179.17 149.80 C 179.07 150.79 179.78 151.67 180.76 151.78 C 181.74 151.88 182.62 151.17 182.73 150.19 L 182.84 149.18 C 182.95 148.20 182.24 147.32 181.25 147.21 C 180.27 147.11 179.39 147.82 179.28 148.80 Z M 179.18 149.79 L 179.07 150.77 C 178.96 151.75 179.66 152.63 180.64 152.74 C 181.61 152.85 182.50 152.15 182.61 151.18 L 182.72 150.20 C 182.83 149.22 182.13 148.34 181.16 148.23 C 180.18 148.12 179.30 148.82 179.18 149.79 Z M 179.08 150.76 L 178.97 151.75 C 178.85 152.72 179.55 153.60 180.52 153.71 C 181.49 153.83 182.36 153.14 182.48 152.17 L 182.60 151.18 C 182.71 150.21 182.02 149.33 181.05 149.22 C 180.08 149.10 179.20 149.79 179.08 150.76 Z M 178.98 151.75 L 178.86 152.75 C 178.74 153.71 179.43 154.59 180.39 154.70 C 181.36 154.82 182.23 154.13 182.35 153.17 L 182.47 152.17 C 182.58 151.20 181.90 150.33 180.93 150.21 C 179.97 150.10 179.09 150.78 178.98 151.75 Z M 178.87 152.75 L 178.75 153.77 C 178.63 154.73 179.32 155.60 180.28 155.71 C 181.23 155.82 182.10 155.14 182.22 154.18 L 182.34 153.16 C 182.45 152.21 181.77 151.34 180.81 151.22 C 179.85 151.11 178.98 151.79 178.87 152.75 Z M 178.76 153.78 L 178.65 154.74 C 178.54 155.70 179.22 156.56 180.17 156.67 C 181.12 156.78 181.98 156.10 182.09 155.14 L 182.21 154.18 C 182.32 153.22 181.64 152.36 180.68 152.25 C 179.73 152.14 178.87 152.82 178.76 153.78 Z M 178.66 154.75 L 178.55 155.74 C 178.44 156.68 179.12 157.54 180.06 157.64 C 181.01 157.75 181.86 157.07 181.97 156.13 L 182.08 155.14 C 182.19 154.19 181.51 153.34 180.57 153.23 C 179.62 153.12 178.77 153.80 178.66 154.75 Z M 178.56 155.74 L 178.44 156.74 C 178.34 157.68 179.01 158.53 179.95 158.63 C 180.89 158.74 181.74 158.06 181.85 157.12 L 181.96 156.12 C 182.06 155.18 181.39 154.34 180.45 154.23 C 179.51 154.12 178.66 154.80 178.56 155.74 Z M 178.46 156.74 L 178.34 157.75 C 178.24 158.68 178.91 159.53 179.84 159.63 C 180.78 159.73 181.62 159.06 181.72 158.13 L 181.83 157.12 C 181.94 156.19 181.27 155.35 180.33 155.24 C 179.40 155.14 178.56 155.81 178.46 156.74 Z M 178.36 157.75 L 178.24 158.76 C 178.14 159.69 178.81 160.52 179.73 160.62 C 180.66 160.73 181.49 160.06 181.60 159.13 L 181.71 158.13 C 181.81 157.20 181.15 156.37 180.22 156.26 C 179.29 156.16 178.46 156.83 178.36 157.75 Z M 178.26 158.76 L 178.15 159.76 C 178.05 160.68 178.71 161.50 179.63 161.60 C 180.55 161.70 181.37 161.04 181.47 160.12 L 181.58 159.13 C 181.69 158.21 181.02 157.39 180.11 157.28 C 179.19 157.18 178.36 157.84 178.26 158.76 Z M 178.16 159.76 L 178.06 160.76 C 177.96 161.67 178.61 162.48 179.52 162.58 C 180.43 162.68 181.25 162.02 181.35 161.11 L 181.46 160.12 C 181.56 159.21 180.90 158.39 179.99 158.29 C 179.08 158.19 178.26 158.85 178.16 159.76 Z M 178.07 160.76 L 177.96 161.76 C 177.87 162.66 178.52 163.47 179.42 163.56 C 180.33 163.66 181.13 163.00 181.23 162.10 L 181.34 161.11 C 181.43 160.21 180.78 159.40 179.88 159.30 C 178.97 159.21 178.17 159.86 178.07 160.76 Z M 177.98 161.76 L 177.88 162.76 C 177.79 163.65 178.44 164.45 179.33 164.54 C 180.22 164.63 181.02 163.98 181.11 163.09 L 181.22 162.09 C 181.31 161.20 180.66 160.40 179.76 160.31 C 178.87 160.22 178.07 160.87 177.98 161.76 Z M 177.89 162.77 L 177.80 163.77 C 177.71 164.65 178.36 165.44 179.24 165.53 C 180.13 165.61 180.92 164.97 181.00 164.08 L 181.10 163.08 C 181.18 162.19 180.54 161.41 179.65 161.32 C 178.77 161.23 177.98 161.88 177.89 162.77 Z M 177.81 163.78 L 177.72 164.78 C 177.64 165.66 178.28 166.44 179.16 166.52 C 180.04 166.60 180.81 165.95 180.90 165.07 L 180.99 164.07 C 181.07 163.19 180.42 162.42 179.54 162.34 C 178.67 162.25 177.89 162.90 177.81 163.78 Z M 177.73 164.79 L 177.64 165.79 C 177.57 166.66 178.21 167.43 179.08 167.50 C 179.95 167.58 180.72 166.94 180.79 166.07 L 180.88 165.07 C 180.96 164.20 180.31 163.43 179.45 163.35 C 178.58 163.28 177.81 163.92 177.73 164.79 Z M 177.66 165.79 L 177.57 166.79 C 177.50 167.65 178.14 168.41 179.00 168.48 C 179.86 168.56 180.62 167.92 180.69 167.06 L 180.78 166.06 C 180.85 165.20 180.21 164.44 179.35 164.37 C 178.49 164.29 177.73 164.93 177.66 165.79 Z M 177.59 166.79 L 177.50 167.77 C 177.43 168.63 178.06 169.38 178.92 169.45 C 179.77 169.52 180.52 168.89 180.59 168.04 L 180.68 167.05 C 180.75 166.20 180.12 165.45 179.26 165.38 C 178.41 165.31 177.66 165.94 177.59 166.79 Z M 177.52 167.78 L 177.43 168.77 C 177.36 169.62 177.99 170.36 178.83 170.43 C 179.68 170.51 180.42 169.88 180.49 169.04 L 180.58 168.04 C 180.65 167.19 180.02 166.45 179.18 166.38 C 178.34 166.31 177.59 166.93 177.52 167.78 Z M 177.45 168.77 L 177.36 169.77 C 177.29 170.61 177.91 171.34 178.75 171.41 C 179.58 171.49 180.32 170.86 180.39 170.03 L 180.48 169.03 C 180.55 168.20 179.93 167.46 179.09 167.39 C 178.26 167.32 177.52 167.94 177.45 168.77 Z M 177.38 169.77 L 177.29 170.77 C 177.23 171.59 177.84 172.32 178.67 172.39 C 179.50 172.46 180.23 171.84 180.30 171.02 L 180.38 170.02 C 180.45 169.20 179.83 168.47 179.00 168.40 C 178.17 168.33 177.45 168.95 177.38 169.77 Z M 177.31 170.77 L 177.23 171.77 C 177.16 172.59 177.78 173.31 178.60 173.37 C 179.42 173.44 180.14 172.82 180.20 172.00 L 180.28 171.01 C 180.35 170.19 179.73 169.47 178.91 169.40 C 178.09 169.34 177.37 169.95 177.31 170.77 Z M 177.24 171.78 L 177.17 172.78 C 177.11 173.60 177.72 174.31 178.53 174.37 C 179.35 174.43 180.06 173.81 180.12 173.00 L 180.19 171.99 C 180.25 171.18 179.64 170.47 178.82 170.41 C 178.01 170.35 177.30 170.96 177.24 171.78 Z M 177.18 172.80 L 177.11 173.82 C 177.06 174.63 177.67 175.33 178.48 175.38 C 179.29 175.44 179.98 174.83 180.04 174.02 L 180.11 172.99 C 180.16 172.18 179.55 171.48 178.74 171.43 C 177.93 171.37 177.23 171.99 177.18 172.80 Z M 177.12 173.83 L 177.06 174.86 C 177.01 175.66 177.62 176.35 178.43 176.40 C 179.23 176.44 179.92 175.83 179.97 175.03 L 180.03 174.01 C 180.08 173.20 179.46 172.51 178.66 172.46 C 177.86 172.42 177.16 173.03 177.12 173.83 Z M 177.07 174.87 L 177.02 175.87 C 176.98 176.67 177.59 177.35 178.39 177.39 C 179.19 177.43 179.87 176.81 179.91 176.01 L 179.96 175.01 C 180.00 174.21 179.39 173.53 178.59 173.49 C 177.79 173.45 177.11 174.07 177.07 174.87 Z M 177.02 175.88 L 176.98 176.84 C 176.95 177.64 177.57 178.31 178.37 178.34 C 179.16 178.38 179.83 177.76 179.87 176.96 L 179.91 176.00 C 179.94 175.20 179.32 174.53 178.52 174.50 C 177.73 174.47 177.06 175.09 177.02 175.88 Z M 176.99 176.86 L 176.96 177.89 C 176.94 178.69 177.56 179.35 178.35 179.37 C 179.15 179.39 179.81 178.77 179.83 177.98 L 179.86 176.94 C 179.88 176.15 179.26 175.49 178.47 175.47 C 177.67 175.44 177.01 176.07 176.99 176.86 Z M 176.96 177.91 L 176.95 178.93 C 176.93 179.72 177.56 180.38 178.35 180.39 C 179.15 180.40 179.80 179.77 179.81 178.98 L 179.83 177.96 C 179.84 177.17 179.21 176.51 178.42 176.50 C 177.63 176.49 176.98 177.12 176.96 177.91 Z M 176.95 178.95 L 176.94 179.92 C 176.94 180.71 177.57 181.36 178.36 181.36 C 179.15 181.37 179.80 180.73 179.80 179.94 L 179.81 178.97 C 179.81 178.18 179.18 177.53 178.39 177.53 C 177.60 177.52 176.95 178.16 176.95 178.95 Z M 176.94 179.93 L 176.94 180.88 C 176.94 181.67 177.58 182.31 178.37 182.31 C 179.16 182.31 179.80 181.68 179.80 180.89 L 179.80 179.93 C 179.80 179.15 179.16 178.51 178.37 178.50 C 177.58 178.50 176.94 179.14 176.94 179.93 Z M 176.94 180.88 L 176.94 180.97 C 176.94 181.76 177.58 182.40 178.37 182.40 C 179.16 182.40 179.80 181.76 179.80 180.97 L 179.80 180.88 C 179.80 180.10 179.16 179.46 178.37 179.46 C 177.58 179.46 176.94 180.10 176.94 180.88 Z"
      fill="black"
      fill-rule="nonzero" /></svg>