<svg xmlns="http://www.w3.org/2000/svg" width="300" height="300" viewBox="0 0 300 300">
<path d="M 158.15 112.86 L 157.00 112.31 C 156.21 111.93 155.26 112.27 154.89 113.06 C 154.51 113.85 154.84 114.80 155.64 115.18 L 156.78 115.73 C 157.58 116.11 158.52 115.77 158.90 114.98 C 159.28 114.19 158.94 113.24 158.15 112.86 Z M 157.05 112.32 L 156.01 111.79 C 155.22 111.39 154.26 111.70 153.86 112.49 C 153.45 113.28 153.77 114.24 154.55 114.64 L 155.59 115.17 C 156.38 115.58 157.34 115.26 157.75 114.47 C 158.15 113.69 157.84 112.72 157.05 112.32 Z M 156.12 111.83 L 155.31 111.34 C 154.55 110.88 153.55 111.13 153.09 111.89 C 152.63 112.65 152.87 113.65 153.64 114.11 L 154.45 114.60 C 155.21 115.06 156.21 114.82 156.67 114.05 C 157.13 113.29 156.89 112.30 156.12 111.83 Z M 155.58 111.52 L 155.11 111.09 C 154.44 110.48 153.41 110.53 152.80 111.19 C 152.19 111.86 152.24 112.89 152.90 113.50 L 153.37 113.93 C 154.03 114.54 155.07 114.49 155.68 113.83 C 156.29 113.17 156.24 112.13 155.58 111.52 Z M 155.63 112.54 L 155.70 112.04 C 155.84 111.14 155.22 110.31 154.32 110.17 C 153.43 110.04 152.59 110.66 152.46 111.55 L 152.38 112.05 C 152.25 112.95 152.86 113.78 153.76 113.92 C 154.66 114.05 155.49 113.43 155.63 112.54 Z M 154.76 113.29 L 155.63 112.89 C 156.46 112.51 156.82 111.54 156.44 110.71 C 156.06 109.89 155.09 109.53 154.27 109.90 L 153.40 110.30 C 152.57 110.68 152.21 111.65 152.59 112.48 C 152.96 113.30 153.94 113.66 154.76 113.29 Z M 155.34 112.99 L 156.62 112.67 C 157.50 112.46 158.03 111.57 157.82 110.69 C 157.60 109.81 156.71 109.27 155.84 109.49 L 154.56 109.80 C 153.68 110.02 153.14 110.91 153.36 111.79 C 153.57 112.67 154.46 113.20 155.34 112.99 Z M 156.55 112.68 L 157.45 112.50 C 158.33 112.32 158.90 111.46 158.72 110.58 C 158.55 109.69 157.68 109.12 156.80 109.30 L 155.90 109.48 C 155.02 109.66 154.45 110.52 154.63 111.41 C 154.80 112.29 155.67 112.86 156.55 112.68 Z M 157.42 112.50 L 158.39 112.32 C 159.27 112.15 159.85 111.30 159.69 110.42 C 159.52 109.54 158.68 108.96 157.79 109.12 L 156.83 109.30 C 155.94 109.47 155.36 110.32 155.53 111.20 C 155.69 112.08 156.54 112.66 157.42 112.50 Z M 158.37 112.31 L 159.39 112.13 C 160.27 111.98 160.85 111.14 160.70 110.26 C 160.54 109.38 159.71 108.80 158.83 108.95 L 157.81 109.13 C 156.93 109.28 156.35 110.12 156.50 111.00 C 156.66 111.88 157.49 112.47 158.37 112.31 Z M 159.38 112.13 L 160.41 111.95 C 161.29 111.80 161.88 110.97 161.73 110.10 C 161.58 109.22 160.75 108.63 159.88 108.78 L 158.84 108.96 C 157.97 109.11 157.38 109.93 157.52 110.81 C 157.67 111.68 158.50 112.27 159.38 112.13 Z M 160.41 111.94 L 161.44 111.77 C 162.31 111.63 162.90 110.80 162.76 109.93 C 162.61 109.06 161.79 108.48 160.92 108.62 L 159.89 108.79 C 159.01 108.93 158.43 109.76 158.57 110.63 C 158.71 111.50 159.54 112.09 160.41 111.94 Z M 161.44 111.76 L 162.46 111.59 C 163.33 111.45 163.91 110.64 163.77 109.77 C 163.63 108.91 162.82 108.32 161.95 108.46 L 160.93 108.63 C 160.06 108.77 159.48 109.59 159.62 110.45 C 159.76 111.31 160.57 111.90 161.44 111.76 Z M 162.45 111.58 L 163.46 111.42 C 164.31 111.28 164.90 110.48 164.76 109.62 C 164.62 108.76 163.82 108.18 162.96 108.32 L 161.96 108.48 C 161.10 108.61 160.52 109.42 160.66 110.27 C 160.79 111.13 161.60 111.71 162.45 111.58 Z M 163.45 111.41 L 164.43 111.26 C 165.28 111.13 165.86 110.33 165.73 109.48 C 165.60 108.63 164.81 108.05 163.96 108.18 L 162.98 108.33 C 162.13 108.46 161.54 109.25 161.67 110.10 C 161.80 110.95 162.60 111.54 163.45 111.41 Z M 164.41 111.24 L 165.38 111.10 C 166.22 110.98 166.81 110.20 166.69 109.36 C 166.57 108.52 165.79 107.93 164.94 108.05 L 163.98 108.19 C 163.13 108.31 162.55 109.09 162.67 109.94 C 162.79 110.78 163.57 111.36 164.41 111.24 Z M 165.36 111.09 L 166.32 110.97 C 167.16 110.86 167.75 110.09 167.64 109.25 C 167.53 108.42 166.77 107.83 165.93 107.94 L 164.96 108.06 C 164.13 108.17 163.54 108.94 163.65 109.78 C 163.76 110.61 164.52 111.20 165.36 111.09 Z M 166.30 110.96 L 167.36 110.84 C 168.20 110.74 168.80 109.99 168.70 109.15 C 168.60 108.32 167.85 107.72 167.01 107.82 L 165.95 107.94 C 165.12 108.04 164.52 108.79 164.62 109.63 C 164.71 110.46 165.47 111.06 166.30 110.96 Z M 167.35 110.84 L 168.38 110.73 C 169.21 110.64 169.82 109.90 169.73 109.06 C 169.65 108.23 168.90 107.62 168.06 107.71 L 167.03 107.82 C 166.20 107.91 165.59 108.65 165.68 109.49 C 165.77 110.32 166.51 110.93 167.35 110.84 Z M 168.37 110.73 L 169.36 110.63 C 170.19 110.55 170.80 109.81 170.72 108.97 C 170.64 108.14 169.89 107.53 169.06 107.61 L 168.07 107.71 C 167.24 107.79 166.63 108.54 166.71 109.37 C 166.79 110.20 167.54 110.81 168.37 110.73 Z M 169.36 110.63 L 170.29 110.54 C 171.12 110.46 171.73 109.72 171.65 108.88 C 171.56 108.05 170.82 107.44 169.99 107.52 L 169.06 107.61 C 168.23 107.70 167.62 108.44 167.70 109.27 C 167.78 110.11 168.52 110.72 169.36 110.63 Z M 170.30 110.54 L 171.30 110.43 C 172.13 110.34 172.73 109.60 172.65 108.77 C 172.56 107.94 171.81 107.33 170.98 107.42 L 169.98 107.53 C 169.15 107.61 168.54 108.36 168.63 109.19 C 168.72 110.02 169.46 110.63 170.30 110.54 Z M 171.31 110.42 L 172.31 110.31 C 173.14 110.21 173.73 109.47 173.63 108.64 C 173.54 107.81 172.79 107.22 171.96 107.31 L 170.97 107.43 C 170.14 107.52 169.55 108.27 169.64 109.10 C 169.74 109.93 170.49 110.52 171.31 110.42 Z M 172.31 110.30 L 173.27 110.19 C 174.10 110.09 174.68 109.34 174.59 108.52 C 174.49 107.69 173.74 107.11 172.92 107.21 L 171.96 107.32 C 171.13 107.42 170.55 108.17 170.64 108.99 C 170.74 109.81 171.49 110.40 172.31 110.30 Z M 173.27 110.18 L 174.23 110.07 C 175.05 109.97 175.64 109.23 175.54 108.41 C 175.45 107.59 174.70 107.00 173.88 107.10 L 172.92 107.21 C 172.10 107.31 171.51 108.05 171.61 108.87 C 171.70 109.69 172.45 110.28 173.27 110.18 Z M 174.22 110.06 L 175.18 109.96 C 176.00 109.87 176.59 109.13 176.50 108.31 C 176.41 107.50 175.67 106.91 174.85 107.00 L 173.89 107.11 C 173.08 107.20 172.49 107.93 172.58 108.75 C 172.67 109.57 173.41 110.15 174.22 110.06 Z M 175.17 109.95 L 176.17 109.84 C 176.98 109.76 177.57 109.03 177.49 108.21 C 177.40 107.40 176.67 106.81 175.86 106.90 L 174.86 107.01 C 174.05 107.09 173.46 107.82 173.55 108.63 C 173.63 109.45 174.36 110.04 175.17 109.95 Z M 176.17 109.83 L 177.19 109.73 C 178.00 109.64 178.58 108.92 178.50 108.11 C 178.41 107.30 177.69 106.72 176.88 106.80 L 175.86 106.91 C 175.05 106.99 174.47 107.72 174.55 108.52 C 174.64 109.33 175.36 109.92 176.17 109.83 Z M 177.19 109.72 L 177.73 109.66 C 178.53 109.58 179.12 108.86 179.03 108.06 C 178.95 107.25 178.23 106.67 177.43 106.75 L 176.89 106.81 C 176.08 106.89 175.50 107.61 175.58 108.42 C 175.66 109.22 176.38 109.80 177.19 109.72 Z"
      fill="black"
      fill-rule="nonzero" /><path d="M 162.58 117.74 L 161.95 118.41 C 161.37 119.02 161.39 119.99 162.01 120.57 C 162.62 121.15 163.58 121.12 164.16 120.51 L 164.79 119.84 C 165.37 119.23 165.35 118.26 164.74 117.68 C 164.12 117.10 163.16 117.13 162.58 117.74 Z M 161.92 118.40 L 161.27 119.09 C 160.68 119.72 160.72 120.71 161.34 121.29 C 161.97 121.88 162.96 121.85 163.55 121.22 L 164.19 120.52 C 164.78 119.89 164.75 118.91 164.12 118.32 C 163.49 117.73 162.50 117.77 161.92 118.40 Z M 161.23 119.09 L 160.55 119.84 C 159.96 120.49 160.01 121.50 160.66 122.09 C 161.31 122.68 162.32 122.63 162.90 121.97 L 163.59 121.22 C 164.17 120.57 164.12 119.56 163.47 118.98 C 162.82 118.39 161.82 118.44 161.23 119.09 Z M 160.50 119.84 L 159.77 120.68 C 159.18 121.36 159.25 122.38 159.93 122.97 C 160.61 123.56 161.63 123.49 162.22 122.81 L 162.95 121.97 C 163.54 121.30 163.46 120.27 162.79 119.68 C 162.11 119.10 161.09 119.17 160.50 119.84 Z M 159.74 120.69 L 159.14 121.40 C 158.56 122.10 158.65 123.13 159.34 123.71 C 160.04 124.30 161.07 124.21 161.65 123.51 L 162.25 122.80 C 162.83 122.11 162.74 121.08 162.05 120.49 C 161.36 119.91 160.32 120.00 159.74 120.69 Z M 159.13 121.41 L 158.51 122.17 C 157.93 122.87 158.03 123.91 158.73 124.49 C 159.43 125.06 160.47 124.96 161.05 124.26 L 161.67 123.50 C 162.25 122.80 162.14 121.76 161.44 121.19 C 160.74 120.61 159.71 120.71 159.13 121.41 Z M 158.50 122.18 L 157.85 122.97 C 157.28 123.68 157.39 124.71 158.09 125.29 C 158.80 125.86 159.84 125.75 160.41 125.05 L 161.06 124.26 C 161.63 123.55 161.52 122.51 160.81 121.94 C 160.11 121.36 159.07 121.47 158.50 122.18 Z M 157.85 122.97 L 157.20 123.78 C 156.62 124.49 156.73 125.53 157.45 126.10 C 158.16 126.67 159.20 126.56 159.77 125.85 L 160.42 125.05 C 160.99 124.33 160.88 123.29 160.17 122.72 C 159.46 122.15 158.42 122.26 157.85 122.97 Z M 157.19 123.77 L 156.54 124.58 C 155.97 125.29 156.08 126.33 156.79 126.91 C 157.51 127.48 158.55 127.37 159.13 126.66 L 159.77 125.85 C 160.35 125.14 160.24 124.10 159.52 123.52 C 158.81 122.95 157.77 123.06 157.19 123.77 Z M 156.55 124.57 L 155.90 125.37 C 155.32 126.08 155.43 127.13 156.14 127.70 C 156.85 128.28 157.90 128.17 158.48 127.46 L 159.13 126.66 C 159.70 125.95 159.59 124.91 158.88 124.33 C 158.17 123.75 157.12 123.86 156.55 124.57 Z M 155.90 125.36 L 155.26 126.14 C 154.68 126.85 154.78 127.90 155.49 128.48 C 156.20 129.06 157.25 128.96 157.83 128.25 L 158.47 127.47 C 159.06 126.76 158.95 125.71 158.24 125.13 C 157.53 124.55 156.49 124.65 155.90 125.36 Z M 155.27 126.13 L 154.63 126.89 C 154.04 127.60 154.14 128.65 154.84 129.24 C 155.55 129.83 156.60 129.73 157.19 129.02 L 157.83 128.26 C 158.42 127.56 158.32 126.51 157.61 125.92 C 156.91 125.33 155.86 125.42 155.27 126.13 Z M 154.64 126.88 L 154.00 127.63 C 153.41 128.33 153.49 129.38 154.19 129.98 C 154.89 130.58 155.94 130.49 156.54 129.79 L 157.18 129.04 C 157.78 128.34 157.69 127.29 156.99 126.69 C 156.29 126.09 155.24 126.18 154.64 126.88 Z M 154.01 127.61 L 153.36 128.36 C 152.76 129.05 152.83 130.11 153.52 130.71 C 154.22 131.32 155.27 131.25 155.88 130.55 L 156.53 129.81 C 157.13 129.11 157.06 128.06 156.37 127.45 C 155.67 126.85 154.62 126.92 154.01 127.61 Z M 153.38 128.34 L 152.71 129.09 C 152.09 129.77 152.15 130.83 152.83 131.44 C 153.52 132.06 154.57 132.00 155.19 131.32 L 155.86 130.57 C 156.48 129.89 156.42 128.83 155.74 128.21 C 155.05 127.60 153.99 127.65 153.38 128.34 Z M 152.72 129.07 L 152.03 129.81 C 151.41 130.49 151.45 131.55 152.12 132.17 C 152.80 132.80 153.86 132.76 154.48 132.08 L 155.17 131.34 C 155.80 130.66 155.76 129.60 155.08 128.98 C 154.41 128.35 153.35 128.39 152.72 129.07 Z M 152.05 129.79 L 151.35 130.52 C 150.71 131.19 150.73 132.25 151.40 132.89 C 152.07 133.53 153.13 133.50 153.76 132.84 L 154.47 132.10 C 155.10 131.44 155.08 130.38 154.41 129.74 C 153.75 129.10 152.69 129.12 152.05 129.79 Z M 151.37 130.50 L 150.66 131.21 C 150.01 131.87 150.02 132.93 150.67 133.58 C 151.33 134.23 152.39 134.23 153.04 133.57 L 153.75 132.86 C 154.40 132.20 154.39 131.14 153.74 130.49 C 153.08 129.84 152.02 129.85 151.37 130.50 Z M 150.69 131.19 L 149.98 131.87 C 149.32 132.52 149.30 133.58 149.94 134.24 C 150.59 134.91 151.65 134.92 152.31 134.28 L 153.02 133.59 C 153.68 132.95 153.70 131.89 153.05 131.23 C 152.41 130.56 151.35 130.55 150.69 131.19 Z M 150.01 131.85 L 149.26 132.54 C 148.58 133.17 148.54 134.23 149.17 134.91 C 149.80 135.58 150.86 135.62 151.54 135.00 L 152.28 134.31 C 152.96 133.68 153.00 132.62 152.37 131.94 C 151.75 131.26 150.69 131.22 150.01 131.85 Z M 149.30 132.51 L 148.51 133.20 C 147.81 133.81 147.74 134.87 148.35 135.56 C 148.96 136.26 150.02 136.33 150.72 135.72 L 151.50 135.03 C 152.20 134.42 152.27 133.36 151.66 132.66 C 151.05 131.97 149.99 131.90 149.30 132.51 Z M 148.54 133.16 L 147.77 133.80 C 147.05 134.39 146.95 135.45 147.54 136.16 C 148.13 136.88 149.18 136.98 149.90 136.39 L 150.68 135.75 C 151.39 135.16 151.49 134.11 150.91 133.39 C 150.32 132.68 149.26 132.57 148.54 133.16 Z M 147.81 133.77 L 147.04 134.36 C 146.31 134.92 146.17 135.98 146.73 136.71 C 147.30 137.45 148.35 137.59 149.09 137.02 L 149.86 136.43 C 150.59 135.86 150.73 134.81 150.16 134.08 C 149.60 133.34 148.54 133.20 147.81 133.77 Z M 147.09 134.32 L 146.33 134.87 C 145.57 135.41 145.40 136.45 145.94 137.21 C 146.47 137.96 147.52 138.14 148.28 137.60 L 149.04 137.06 C 149.79 136.52 149.97 135.47 149.43 134.71 C 148.89 133.96 147.84 133.79 147.09 134.32 Z M 146.38 134.83 L 145.50 135.40 C 144.73 135.91 144.51 136.95 145.01 137.73 C 145.52 138.50 146.56 138.72 147.34 138.22 L 148.22 137.64 C 149.00 137.13 149.22 136.09 148.71 135.32 C 148.20 134.54 147.16 134.32 146.38 134.83 Z M 145.58 135.36 L 144.70 135.87 C 143.90 136.33 143.63 137.36 144.09 138.16 C 144.56 138.96 145.59 139.24 146.39 138.77 L 147.27 138.26 C 148.07 137.79 148.34 136.77 147.87 135.96 C 147.41 135.16 146.38 134.89 145.58 135.36 Z M 144.79 135.82 L 143.92 136.26 C 143.09 136.68 142.76 137.69 143.18 138.52 C 143.59 139.35 144.61 139.68 145.43 139.26 L 146.30 138.82 C 147.13 138.40 147.46 137.39 147.04 136.56 C 146.63 135.73 145.61 135.40 144.79 135.82 Z M 144.02 136.21 L 143.14 136.59 C 142.28 136.95 141.89 137.94 142.25 138.79 C 142.61 139.64 143.60 140.04 144.45 139.68 L 145.33 139.31 C 146.19 138.94 146.58 137.96 146.22 137.10 C 145.86 136.25 144.87 135.85 144.02 136.21 Z M 143.26 136.54 L 142.33 136.85 C 141.45 137.15 140.97 138.10 141.27 138.98 C 141.57 139.86 142.52 140.33 143.40 140.04 L 144.33 139.73 C 145.21 139.43 145.68 138.48 145.39 137.60 C 145.09 136.72 144.14 136.24 143.26 136.54 Z M 142.46 136.81 L 141.51 137.05 C 140.60 137.27 140.05 138.18 140.27 139.08 C 140.49 139.98 141.40 140.53 142.30 140.31 L 143.26 140.08 C 144.16 139.86 144.71 138.95 144.49 138.05 C 144.27 137.15 143.36 136.59 142.46 136.81 Z M 141.64 137.02 L 140.64 137.18 C 139.73 137.32 139.10 138.18 139.24 139.10 C 139.39 140.02 140.25 140.64 141.16 140.50 L 142.17 140.34 C 143.08 140.20 143.71 139.34 143.56 138.42 C 143.42 137.50 142.56 136.88 141.64 137.02 Z M 140.77 137.16 L 139.80 137.24 C 138.88 137.32 138.19 138.13 138.27 139.05 C 138.34 139.98 139.15 140.66 140.07 140.59 L 141.04 140.51 C 141.96 140.44 142.65 139.63 142.58 138.70 C 142.50 137.78 141.69 137.09 140.77 137.16 Z M 139.94 137.24 L 138.98 137.24 C 138.05 137.24 137.30 138.00 137.31 138.92 C 137.31 139.85 138.06 140.60 138.99 140.60 L 139.94 140.59 C 140.87 140.59 141.62 139.84 141.62 138.91 C 141.62 137.99 140.86 137.24 139.94 137.24 Z M 139.14 137.25 L 138.14 137.16 C 137.22 137.07 136.41 137.75 136.32 138.67 C 136.24 139.59 136.91 140.41 137.84 140.50 L 138.83 140.59 C 139.75 140.67 140.57 139.99 140.65 139.07 C 140.74 138.15 140.06 137.33 139.14 137.25 Z M 138.33 137.19 L 137.31 136.97 C 136.40 136.79 135.51 137.37 135.33 138.28 C 135.14 139.18 135.72 140.07 136.63 140.26 L 137.65 140.47 C 138.56 140.65 139.44 140.07 139.63 139.17 C 139.82 138.26 139.24 137.37 138.33 137.19 Z M 137.50 137.03 L 136.52 136.70 C 135.64 136.40 134.69 136.87 134.40 137.75 C 134.10 138.63 134.57 139.58 135.45 139.87 L 136.43 140.20 C 137.31 140.50 138.26 140.03 138.55 139.15 C 138.85 138.27 138.38 137.32 137.50 137.03 Z M 136.68 136.76 L 135.77 136.35 C 134.93 135.96 133.94 136.33 133.56 137.17 C 133.17 138.01 133.54 139.00 134.38 139.39 L 135.29 139.81 C 136.13 140.19 137.12 139.82 137.51 138.98 C 137.89 138.14 137.52 137.15 136.68 136.76 Z M 135.89 136.41 L 135.00 135.91 C 134.20 135.46 133.18 135.74 132.73 136.55 C 132.28 137.36 132.56 138.37 133.37 138.83 L 134.26 139.33 C 135.06 139.78 136.08 139.49 136.53 138.68 C 136.99 137.88 136.70 136.86 135.89 136.41 Z M 135.10 135.97 L 134.24 135.41 C 133.47 134.91 132.44 135.13 131.93 135.90 C 131.43 136.67 131.65 137.71 132.42 138.21 L 133.27 138.77 C 134.05 139.27 135.08 139.05 135.58 138.28 C 136.09 137.51 135.87 136.47 135.10 135.97 Z M 134.32 135.47 L 133.53 134.88 C 132.79 134.34 131.74 134.49 131.19 135.24 C 130.65 135.98 130.80 137.02 131.55 137.57 L 132.34 138.16 C 133.08 138.70 134.13 138.54 134.68 137.80 C 135.22 137.06 135.06 136.02 134.32 135.47 Z M 133.60 134.94 L 132.80 134.28 C 132.09 133.69 131.04 133.79 130.45 134.50 C 129.86 135.21 129.96 136.26 130.67 136.85 L 131.47 137.51 C 132.18 138.10 133.23 138.00 133.82 137.29 C 134.41 136.58 134.31 135.53 133.60 134.94 Z M 132.88 134.35 L 132.13 133.64 C 131.46 133.01 130.40 133.04 129.77 133.71 C 129.14 134.38 129.17 135.44 129.84 136.07 L 130.59 136.78 C 131.26 137.41 132.32 137.38 132.95 136.71 C 133.58 136.03 133.55 134.98 132.88 134.35 Z M 132.20 133.72 L 131.54 133.00 C 130.91 132.33 129.85 132.29 129.18 132.92 C 128.51 133.55 128.47 134.61 129.10 135.28 L 129.77 135.99 C 130.39 136.67 131.45 136.70 132.12 136.08 C 132.80 135.45 132.83 134.39 132.20 133.72 Z M 131.60 133.08 L 130.99 132.34 C 130.41 131.63 129.35 131.54 128.64 132.13 C 127.94 132.71 127.84 133.77 128.43 134.47 L 129.03 135.21 C 129.62 135.92 130.68 136.01 131.38 135.43 C 132.09 134.84 132.19 133.79 131.60 133.08 Z M 131.04 132.41 L 130.46 131.63 C 129.91 130.90 128.86 130.75 128.13 131.30 C 127.39 131.86 127.24 132.91 127.80 133.64 L 128.38 134.41 C 128.93 135.15 129.98 135.30 130.71 134.74 C 131.45 134.19 131.60 133.14 131.04 132.41 Z M 130.51 131.69 L 129.95 130.88 C 129.43 130.12 128.39 129.93 127.63 130.45 C 126.87 130.97 126.67 132.01 127.20 132.77 L 127.75 133.58 C 128.28 134.34 129.31 134.54 130.07 134.01 C 130.83 133.49 131.03 132.45 130.51 131.69 Z M 129.99 130.94 L 129.46 130.09 C 128.97 129.31 127.94 129.07 127.16 129.56 C 126.38 130.05 126.14 131.08 126.63 131.86 L 127.16 132.71 C 127.64 133.49 128.67 133.73 129.45 133.24 C 130.24 132.76 130.48 131.73 129.99 130.94 Z M 129.50 130.16 L 129.00 129.27 C 128.55 128.47 127.54 128.18 126.73 128.63 C 125.93 129.08 125.64 130.10 126.09 130.90 L 126.59 131.79 C 127.04 132.59 128.05 132.88 128.86 132.43 C 129.66 131.98 129.95 130.97 129.50 130.16 Z M 129.04 129.34 L 128.59 128.43 C 128.17 127.61 127.17 127.27 126.35 127.68 C 125.52 128.09 125.19 129.10 125.60 129.92 L 126.05 130.83 C 126.46 131.66 127.47 131.99 128.29 131.58 C 129.12 131.17 129.45 130.17 129.04 129.34 Z M 128.62 128.50 L 128.21 127.57 C 127.83 126.73 126.85 126.35 126.00 126.72 C 125.16 127.09 124.78 128.08 125.15 128.92 L 125.57 129.85 C 125.94 130.69 126.93 131.08 127.77 130.70 C 128.61 130.33 128.99 129.34 128.62 128.50 Z M 128.23 127.64 L 127.87 126.70 C 127.53 125.84 126.56 125.42 125.71 125.75 C 124.85 126.09 124.42 127.06 124.76 127.91 L 125.13 128.85 C 125.46 129.71 126.43 130.14 127.29 129.80 C 128.15 129.47 128.57 128.50 128.23 127.64 Z M 127.89 126.77 L 127.58 125.84 C 127.29 124.97 126.34 124.50 125.47 124.79 C 124.59 125.09 124.12 126.03 124.42 126.91 L 124.73 127.84 C 125.03 128.71 125.97 129.18 126.85 128.89 C 127.72 128.59 128.19 127.65 127.89 126.77 Z M 127.61 125.93 L 127.34 124.98 C 127.10 124.09 126.18 123.57 125.29 123.81 C 124.40 124.06 123.88 124.98 124.13 125.87 L 124.39 126.82 C 124.64 127.71 125.56 128.23 126.44 127.98 C 127.33 127.74 127.85 126.82 127.61 125.93 Z M 127.37 125.08 L 127.17 124.11 C 126.98 123.21 126.09 122.64 125.19 122.83 C 124.29 123.02 123.71 123.90 123.90 124.80 L 124.10 125.77 C 124.29 126.67 125.18 127.24 126.08 127.05 C 126.98 126.86 127.56 125.98 127.37 125.08 Z M 127.18 124.22 L 127.04 123.25 C 126.91 122.34 126.07 121.70 125.16 121.83 C 124.24 121.96 123.61 122.81 123.74 123.72 L 123.88 124.70 C 124.01 125.61 124.86 126.24 125.77 126.11 C 126.68 125.98 127.31 125.13 127.18 124.22 Z M 127.05 123.35 L 126.97 122.33 C 126.89 121.41 126.09 120.73 125.17 120.81 C 124.25 120.88 123.57 121.69 123.65 122.61 L 123.73 123.62 C 123.81 124.54 124.61 125.22 125.53 125.15 C 126.45 125.07 127.13 124.26 127.05 123.35 Z M 126.97 122.42 L 126.94 121.40 C 126.91 120.48 126.14 119.76 125.22 119.79 C 124.30 119.82 123.58 120.59 123.61 121.51 L 123.64 122.52 C 123.67 123.44 124.44 124.17 125.36 124.14 C 126.28 124.11 127.00 123.34 126.97 122.42 Z M 126.94 121.51 L 126.97 120.48 C 126.99 119.56 126.27 118.79 125.35 118.77 C 124.43 118.74 123.67 119.47 123.64 120.38 L 123.61 121.41 C 123.59 122.33 124.31 123.10 125.23 123.12 C 126.15 123.15 126.91 122.42 126.94 121.51 Z M 126.96 120.62 L 127.07 119.61 C 127.17 118.70 126.52 117.88 125.61 117.78 C 124.69 117.67 123.87 118.33 123.77 119.24 L 123.65 120.24 C 123.55 121.16 124.20 121.98 125.12 122.08 C 126.03 122.19 126.85 121.53 126.96 120.62 Z M 127.03 119.81 L 127.26 118.87 C 127.47 117.98 126.92 117.09 126.03 116.87 C 125.14 116.66 124.24 117.21 124.03 118.10 L 123.80 119.04 C 123.59 119.93 124.14 120.83 125.03 121.04 C 125.92 121.25 126.82 120.70 127.03 119.81 Z M 127.16 119.15 L 127.56 118.23 C 127.93 117.40 127.54 116.42 126.71 116.05 C 125.87 115.69 124.89 116.07 124.53 116.91 L 124.12 117.82 C 123.76 118.66 124.14 119.64 124.98 120.01 C 125.82 120.37 126.79 119.99 127.16 119.15 Z M 127.40 118.51 L 127.96 117.70 C 128.48 116.95 128.30 115.92 127.55 115.40 C 126.80 114.88 125.77 115.07 125.25 115.82 L 124.69 116.63 C 124.16 117.38 124.35 118.41 125.10 118.93 C 125.85 119.45 126.88 119.26 127.40 118.51 Z M 127.79 117.91 L 128.48 117.20 C 129.11 116.54 129.09 115.50 128.44 114.86 C 127.78 114.23 126.74 114.25 126.10 114.90 L 125.42 115.62 C 124.78 116.27 124.80 117.32 125.46 117.95 C 126.11 118.58 127.16 118.56 127.79 117.91 Z M 128.34 117.32 L 129.09 116.70 C 129.79 116.12 129.88 115.08 129.30 114.38 C 128.72 113.68 127.68 113.59 126.98 114.17 L 126.24 114.78 C 125.54 115.36 125.44 116.40 126.02 117.10 C 126.60 117.80 127.64 117.90 128.34 117.32 Z M 128.99 116.78 L 129.70 116.27 C 130.44 115.74 130.62 114.71 130.09 113.97 C 129.56 113.23 128.53 113.06 127.79 113.59 L 127.08 114.09 C 126.34 114.62 126.17 115.65 126.69 116.39 C 127.22 117.13 128.25 117.30 128.99 116.78 Z M 129.61 116.33 L 130.41 115.84 C 131.18 115.36 131.43 114.35 130.95 113.57 C 130.47 112.80 129.46 112.56 128.68 113.03 L 127.88 113.53 C 127.11 114.00 126.87 115.02 127.35 115.79 C 127.82 116.57 128.84 116.81 129.61 116.33 Z M 130.32 115.89 L 131.24 115.40 C 132.04 114.97 132.35 113.97 131.92 113.17 C 131.49 112.37 130.49 112.06 129.69 112.49 L 128.77 112.98 C 127.97 113.41 127.67 114.41 128.09 115.21 C 128.52 116.01 129.52 116.32 130.32 115.89 Z M 131.16 115.44 L 132.23 114.94 C 133.06 114.55 133.41 113.57 133.03 112.75 C 132.64 111.92 131.66 111.57 130.84 111.95 L 129.77 112.45 C 128.95 112.84 128.59 113.82 128.98 114.64 C 129.36 115.47 130.34 115.82 131.16 115.44 Z M 132.18 114.96 L 133.04 114.60 C 133.87 114.24 134.26 113.28 133.91 112.44 C 133.55 111.60 132.59 111.21 131.75 111.57 L 130.89 111.93 C 130.05 112.29 129.66 113.25 130.02 114.09 C 130.37 114.93 131.34 115.32 132.18 114.96 Z M 133.00 114.61 L 133.92 114.25 C 134.76 113.92 135.18 112.96 134.84 112.11 C 134.51 111.26 133.55 110.85 132.70 111.19 L 131.79 111.55 C 130.94 111.88 130.52 112.84 130.86 113.69 C 131.19 114.54 132.15 114.95 133.00 114.61 Z M 133.88 114.27 L 134.84 113.91 C 135.70 113.59 136.13 112.64 135.82 111.79 C 135.50 110.93 134.55 110.50 133.70 110.81 L 132.73 111.17 C 131.88 111.49 131.44 112.44 131.76 113.29 C 132.08 114.15 133.03 114.58 133.88 114.27 Z M 134.81 113.92 L 135.79 113.58 C 136.66 113.28 137.11 112.34 136.81 111.48 C 136.51 110.62 135.57 110.16 134.71 110.46 L 133.73 110.80 C 132.86 111.10 132.41 112.04 132.71 112.90 C 133.01 113.77 133.95 114.22 134.81 113.92 Z M 135.76 113.60 L 136.74 113.28 C 137.61 113.00 138.09 112.06 137.81 111.19 C 137.52 110.33 136.59 109.85 135.72 110.13 L 134.74 110.45 C 133.87 110.73 133.40 111.66 133.68 112.53 C 133.96 113.40 134.89 113.88 135.76 113.60 Z M 136.70 113.29 L 137.66 113.01 C 138.54 112.75 139.04 111.82 138.78 110.95 C 138.51 110.07 137.59 109.57 136.72 109.83 L 135.76 110.12 C 134.88 110.38 134.38 111.30 134.64 112.18 C 134.90 113.05 135.83 113.55 136.70 113.29 Z M 137.61 113.02 L 138.67 112.74 C 139.55 112.51 140.08 111.60 139.84 110.71 C 139.61 109.83 138.70 109.30 137.81 109.54 L 136.76 109.82 C 135.88 110.05 135.35 110.96 135.59 111.85 C 135.82 112.73 136.73 113.26 137.61 113.02 Z M 138.61 112.76 L 139.63 112.52 C 140.53 112.32 141.08 111.42 140.88 110.53 C 140.67 109.64 139.78 109.08 138.88 109.29 L 137.87 109.52 C 136.97 109.73 136.42 110.62 136.62 111.51 C 136.83 112.41 137.72 112.96 138.61 112.76 Z M 139.58 112.54 L 140.56 112.34 C 141.46 112.16 142.04 111.29 141.86 110.39 C 141.68 109.49 140.81 108.90 139.91 109.08 L 138.93 109.27 C 138.03 109.45 137.45 110.33 137.63 111.23 C 137.81 112.13 138.68 112.71 139.58 112.54 Z M 140.51 112.35 L 141.46 112.19 C 142.36 112.03 142.97 111.17 142.81 110.27 C 142.66 109.36 141.80 108.75 140.89 108.91 L 139.95 109.07 C 139.04 109.23 138.44 110.09 138.59 110.99 C 138.75 111.90 139.61 112.51 140.51 112.35 Z M 141.42 112.20 L 142.35 112.06 C 143.26 111.92 143.88 111.07 143.75 110.16 C 143.61 109.25 142.76 108.62 141.85 108.76 L 140.93 108.90 C 140.02 109.04 139.39 109.89 139.53 110.80 C 139.66 111.71 140.51 112.33 141.42 112.20 Z M 142.32 112.06 L 143.29 111.93 C 144.21 111.81 144.84 110.96 144.72 110.05 C 144.60 109.14 143.75 108.50 142.84 108.62 L 141.87 108.76 C 140.96 108.88 140.32 109.72 140.45 110.64 C 140.57 111.55 141.41 112.19 142.32 112.06 Z M 143.27 111.94 L 144.26 111.81 C 145.18 111.70 145.83 110.86 145.71 109.95 C 145.60 109.03 144.76 108.38 143.85 108.50 L 142.86 108.62 C 141.94 108.73 141.29 109.57 141.41 110.48 C 141.52 111.40 142.36 112.05 143.27 111.94 Z M 144.25 111.82 L 145.24 111.70 C 146.16 111.60 146.82 110.77 146.71 109.85 C 146.61 108.93 145.78 108.27 144.86 108.38 L 143.87 108.49 C 142.95 108.60 142.29 109.42 142.39 110.34 C 142.50 111.26 143.33 111.92 144.25 111.82 Z M 145.22 111.71 L 146.21 111.61 C 147.13 111.51 147.80 110.69 147.71 109.77 C 147.62 108.85 146.80 108.18 145.87 108.27 L 144.88 108.37 C 143.96 108.47 143.29 109.29 143.38 110.21 C 143.48 111.13 144.30 111.80 145.22 111.71 Z M 146.19 111.61 L 147.19 111.52 C 148.12 111.44 148.80 110.62 148.71 109.70 C 148.63 108.78 147.82 108.10 146.89 108.18 L 145.89 108.27 C 144.97 108.35 144.29 109.17 144.37 110.09 C 144.46 111.01 145.27 111.69 146.19 111.61 Z M 147.17 111.52 L 148.14 111.45 C 149.07 111.38 149.76 110.57 149.68 109.64 C 149.61 108.72 148.81 108.03 147.88 108.10 L 146.91 108.18 C 145.99 108.25 145.30 109.06 145.37 109.98 C 145.44 110.91 146.25 111.60 147.17 111.52 Z M 148.12 111.45 L 149.09 111.39 C 150.02 111.33 150.72 110.53 150.66 109.60 C 150.60 108.68 149.80 107.97 148.87 108.04 L 147.90 108.10 C 146.98 108.16 146.27 108.96 146.33 109.88 C 146.40 110.81 147.19 111.51 148.12 111.45 Z M 149.07 111.39 L 150.06 111.34 C 150.99 111.29 151.70 110.50 151.65 109.57 C 151.60 108.65 150.81 107.93 149.89 107.98 L 148.90 108.03 C 147.97 108.08 147.26 108.87 147.30 109.80 C 147.35 110.73 148.14 111.44 149.07 111.39 Z M 150.04 111.34 L 151.05 111.30 C 151.98 111.27 152.70 110.49 152.67 109.56 C 152.63 108.63 151.85 107.91 150.92 107.94 L 149.91 107.98 C 148.98 108.01 148.26 108.79 148.29 109.72 C 148.33 110.65 149.11 111.38 150.04 111.34 Z M 151.02 111.31 L 152.06 111.28 C 152.99 111.26 153.73 110.49 153.71 109.56 C 153.69 108.63 152.92 107.90 151.99 107.92 L 150.95 107.94 C 150.02 107.96 149.28 108.73 149.30 109.66 C 149.32 110.59 150.09 111.33 151.02 111.31 Z M 152.04 111.28 L 153.09 111.28 C 154.02 111.27 154.77 110.51 154.76 109.58 C 154.75 108.65 153.99 107.90 153.06 107.91 L 152.02 107.91 C 151.08 107.92 150.34 108.68 150.34 109.61 C 150.35 110.54 151.11 111.29 152.04 111.28 Z M 153.05 111.28 L 154.11 111.29 C 155.04 111.30 155.80 110.55 155.81 109.62 C 155.82 108.69 155.08 107.93 154.14 107.92 L 153.09 107.91 C 152.16 107.90 151.40 108.64 151.39 109.57 C 151.38 110.51 152.12 111.27 153.05 111.28 Z M 154.07 111.29 L 155.10 111.33 C 156.04 111.36 156.82 110.63 156.85 109.70 C 156.88 108.76 156.15 107.98 155.22 107.95 L 154.18 107.92 C 153.25 107.88 152.47 108.62 152.44 109.55 C 152.41 110.48 153.14 111.26 154.07 111.29 Z M 155.05 111.33 L 156.05 111.39 C 156.98 111.45 157.78 110.74 157.84 109.81 C 157.90 108.88 157.19 108.07 156.26 108.01 L 155.27 107.95 C 154.34 107.89 153.53 108.60 153.47 109.53 C 153.42 110.46 154.12 111.27 155.05 111.33 Z M 155.98 111.38 L 156.90 111.48 C 157.83 111.58 158.66 110.90 158.76 109.97 C 158.85 109.04 158.18 108.21 157.25 108.11 L 156.33 108.02 C 155.40 107.92 154.57 108.60 154.47 109.53 C 154.37 110.46 155.05 111.29 155.98 111.38 Z M 156.79 111.47 L 157.83 111.64 C 158.75 111.80 159.63 111.18 159.79 110.26 C 159.94 109.34 159.32 108.46 158.40 108.31 L 157.36 108.13 C 156.44 107.97 155.56 108.59 155.41 109.51 C 155.25 110.43 155.87 111.31 156.79 111.47 Z M 157.66 111.61 L 158.65 111.89 C 159.56 112.14 160.49 111.61 160.74 110.71 C 161.00 109.81 160.47 108.87 159.57 108.62 L 158.57 108.34 C 157.67 108.09 156.74 108.62 156.48 109.52 C 156.23 110.42 156.76 111.36 157.66 111.61 Z M 158.46 111.82 L 159.32 112.18 C 160.19 112.54 161.18 112.14 161.54 111.27 C 161.91 110.41 161.50 109.41 160.63 109.05 L 159.77 108.69 C 158.90 108.33 157.91 108.73 157.55 109.60 C 157.18 110.46 157.59 111.46 158.46 111.82 Z M 159.14 112.10 L 159.95 112.55 C 160.76 113.01 161.80 112.72 162.26 111.91 C 162.72 111.09 162.43 110.05 161.62 109.59 L 160.81 109.14 C 160.00 108.68 158.96 108.96 158.50 109.78 C 158.04 110.60 158.33 111.63 159.14 112.10 Z M 159.80 112.46 L 160.63 113.04 C 161.40 113.58 162.46 113.40 163.00 112.63 C 163.54 111.87 163.36 110.81 162.59 110.27 L 161.76 109.68 C 161.00 109.14 159.93 109.32 159.39 110.09 C 158.85 110.86 159.03 111.92 159.80 112.46 Z M 160.47 112.92 L 161.23 113.60 C 161.92 114.23 163.00 114.17 163.63 113.47 C 164.26 112.77 164.20 111.69 163.50 111.07 L 162.75 110.39 C 162.05 109.76 160.97 109.82 160.34 110.52 C 159.72 111.22 159.77 112.29 160.47 112.92 Z M 161.05 113.41 L 161.67 114.17 C 162.26 114.90 163.34 115.01 164.07 114.41 C 164.79 113.81 164.90 112.74 164.30 112.01 L 163.68 111.25 C 163.08 110.53 162.01 110.42 161.28 111.01 C 160.56 111.61 160.45 112.68 161.05 113.41 Z M 161.47 113.88 L 161.93 114.76 C 162.36 115.59 163.39 115.92 164.23 115.48 C 165.06 115.05 165.39 114.02 164.95 113.18 L 164.50 112.31 C 164.06 111.47 163.04 111.15 162.20 111.58 C 161.37 112.02 161.04 113.04 161.47 113.88 Z M 161.80 114.43 L 162.07 115.39 C 162.32 116.29 163.26 116.82 164.17 116.57 C 165.08 116.32 165.60 115.38 165.35 114.47 L 165.08 113.51 C 164.83 112.60 163.89 112.08 162.98 112.33 C 162.08 112.58 161.55 113.52 161.80 114.43 Z M 162.02 115.14 L 162.15 116.13 C 162.26 117.07 163.12 117.73 164.05 117.61 C 164.98 117.49 165.64 116.64 165.53 115.70 L 165.40 114.71 C 165.28 113.78 164.43 113.12 163.50 113.24 C 162.56 113.36 161.90 114.21 162.02 115.14 Z M 162.13 115.99 L 162.18 116.96 C 162.21 117.90 163.01 118.63 163.95 118.59 C 164.89 118.55 165.62 117.76 165.58 116.82 L 165.54 115.85 C 165.50 114.91 164.70 114.18 163.76 114.22 C 162.83 114.26 162.10 115.05 162.13 115.99 Z M 162.18 116.83 L 162.15 117.80 C 162.11 118.73 162.85 119.52 163.78 119.55 C 164.72 119.59 165.51 118.85 165.54 117.91 L 165.57 116.95 C 165.61 116.01 164.87 115.23 163.93 115.20 C 163.00 115.16 162.21 115.90 162.18 116.83 Z M 162.17 117.61 L 162.03 118.61 C 161.89 119.53 162.53 120.39 163.46 120.52 C 164.38 120.66 165.24 120.02 165.37 119.09 L 165.52 118.10 C 165.65 117.17 165.01 116.32 164.09 116.18 C 163.16 116.05 162.30 116.69 162.17 117.61 Z M 162.07 118.40 L 161.81 119.38 C 161.56 120.28 162.09 121.20 162.99 121.45 C 163.89 121.69 164.81 121.17 165.06 120.27 L 165.33 119.29 C 165.57 118.40 165.04 117.47 164.14 117.22 C 163.25 116.98 162.32 117.51 162.07 118.40 Z M 161.87 119.22 L 161.54 120.06 C 161.21 120.93 161.64 121.90 162.50 122.23 C 163.37 122.57 164.34 122.13 164.67 121.27 L 165.00 120.43 C 165.33 119.56 164.90 118.59 164.04 118.26 C 163.17 117.93 162.20 118.36 161.87 119.22 Z M 161.59 119.97 L 161.18 120.86 C 160.80 121.69 161.16 122.68 162.00 123.07 C 162.84 123.46 163.83 123.09 164.21 122.25 L 164.62 121.37 C 165.01 120.53 164.64 119.54 163.81 119.15 C 162.97 118.77 161.98 119.13 161.59 119.97 Z M 161.22 120.79 L 160.74 121.73 C 160.32 122.54 160.64 123.54 161.46 123.96 C 162.27 124.38 163.27 124.06 163.69 123.25 L 164.17 122.32 C 164.59 121.50 164.27 120.50 163.46 120.08 C 162.64 119.66 161.64 119.98 161.22 120.79 Z M 160.77 121.69 L 160.24 122.66 C 159.80 123.46 160.09 124.46 160.89 124.90 C 161.68 125.34 162.69 125.05 163.13 124.25 L 163.66 123.28 C 164.10 122.49 163.81 121.48 163.01 121.04 C 162.22 120.60 161.21 120.89 160.77 121.69 Z M 160.26 122.65 L 159.75 123.53 C 159.30 124.32 159.58 125.32 160.36 125.77 C 161.15 126.22 162.15 125.94 162.60 125.16 L 163.10 124.27 C 163.55 123.48 163.28 122.48 162.49 122.04 C 161.71 121.59 160.71 121.86 160.26 122.65 Z M 159.77 123.53 L 159.25 124.42 C 158.80 125.20 159.06 126.19 159.84 126.64 C 160.61 127.10 161.61 126.83 162.06 126.06 L 162.58 125.16 C 163.03 124.39 162.77 123.39 161.99 122.94 C 161.22 122.49 160.22 122.75 159.77 123.53 Z M 159.27 124.42 L 158.75 125.31 C 158.30 126.07 158.55 127.06 159.32 127.51 C 160.08 127.96 161.07 127.71 161.52 126.94 L 162.04 126.06 C 162.49 125.29 162.24 124.30 161.47 123.85 C 160.71 123.40 159.72 123.66 159.27 124.42 Z M 158.76 125.31 L 158.26 126.16 C 157.81 126.91 158.06 127.89 158.82 128.34 C 159.58 128.79 160.56 128.54 161.01 127.78 L 161.51 126.94 C 161.96 126.18 161.71 125.20 160.95 124.75 C 160.19 124.30 159.21 124.55 158.76 125.31 Z M 158.27 126.16 L 157.79 126.98 C 157.34 127.73 157.59 128.70 158.35 129.15 C 159.10 129.59 160.07 129.34 160.51 128.59 L 161.00 127.77 C 161.44 127.02 161.19 126.05 160.44 125.61 C 159.69 125.16 158.72 125.41 158.27 126.16 Z M 157.80 127.00 L 157.29 127.87 C 156.86 128.61 157.11 129.57 157.85 130.01 C 158.60 130.44 159.56 130.19 159.99 129.44 L 160.50 128.58 C 160.94 127.83 160.69 126.87 159.94 126.44 C 159.20 126.00 158.24 126.25 157.80 127.00 Z M 157.31 127.88 L 156.83 128.71 C 156.40 129.45 156.66 130.39 157.39 130.82 C 158.13 131.25 159.08 130.99 159.50 130.25 L 159.98 129.43 C 160.41 128.69 160.15 127.75 159.42 127.32 C 158.68 126.89 157.73 127.15 157.31 127.88 Z M 156.84 128.73 L 156.36 129.58 C 155.94 130.31 156.19 131.23 156.92 131.65 C 157.65 132.07 158.58 131.82 159.00 131.09 L 159.49 130.24 C 159.90 129.51 159.65 128.58 158.92 128.16 C 158.19 127.74 157.26 128.00 156.84 128.73 Z M 156.37 129.59 L 155.87 130.47 C 155.46 131.19 155.71 132.11 156.43 132.52 C 157.15 132.93 158.07 132.68 158.48 131.96 L 158.98 131.07 C 159.40 130.35 159.14 129.44 158.42 129.03 C 157.70 128.62 156.79 128.87 156.37 129.59 Z M 155.88 130.48 L 155.43 131.27 C 155.03 131.99 155.28 132.90 155.99 133.30 C 156.71 133.71 157.62 133.46 158.02 132.74 L 158.47 131.95 C 158.88 131.23 158.63 130.33 157.91 129.92 C 157.20 129.51 156.29 129.76 155.88 130.48 Z M 155.44 131.28 L 154.95 132.13 C 154.55 132.85 154.80 133.75 155.52 134.15 C 156.23 134.55 157.13 134.30 157.54 133.59 L 158.02 132.74 C 158.42 132.02 158.17 131.12 157.45 130.72 C 156.74 130.32 155.84 130.57 155.44 131.28 Z M 154.96 132.14 L 154.46 133.04 C 154.06 133.75 154.32 134.65 155.03 135.05 C 155.74 135.44 156.64 135.19 157.03 134.48 L 157.53 133.58 C 157.93 132.87 157.67 131.97 156.96 131.57 C 156.25 131.18 155.35 131.43 154.96 132.14 Z M 154.46 133.05 L 153.95 133.97 C 153.56 134.68 153.82 135.58 154.53 135.97 C 155.24 136.36 156.13 136.10 156.52 135.39 L 157.03 134.46 C 157.42 133.75 157.16 132.86 156.45 132.47 C 155.74 132.08 154.85 132.34 154.46 133.05 Z M 153.95 133.99 L 153.45 134.92 C 153.07 135.63 153.33 136.51 154.04 136.90 C 154.75 137.28 155.64 137.02 156.02 136.31 L 156.52 135.37 C 156.91 134.66 156.64 133.78 155.93 133.40 C 155.22 133.01 154.34 133.28 153.95 133.99 Z M 153.45 134.93 L 152.98 135.83 C 152.60 136.54 152.87 137.42 153.58 137.79 C 154.29 138.17 155.17 137.90 155.55 137.19 L 156.02 136.29 C 156.39 135.58 156.12 134.70 155.41 134.33 C 154.70 133.95 153.82 134.22 153.45 134.93 Z M 152.98 135.84 L 152.51 136.74 C 152.15 137.45 152.42 138.32 153.13 138.69 C 153.84 139.05 154.72 138.78 155.09 138.07 L 155.55 137.17 C 155.91 136.46 155.64 135.59 154.93 135.22 C 154.22 134.86 153.34 135.13 152.98 135.84 Z M 152.51 136.75 L 152.06 137.64 C 151.70 138.35 151.98 139.21 152.69 139.58 C 153.40 139.94 154.27 139.65 154.63 138.95 L 155.08 138.06 C 155.45 137.35 155.16 136.48 154.45 136.12 C 153.74 135.75 152.88 136.04 152.51 136.75 Z M 152.06 137.64 L 151.62 138.53 C 151.26 139.24 151.54 140.10 152.25 140.46 C 152.96 140.82 153.82 140.53 154.18 139.82 L 154.63 138.94 C 154.99 138.23 154.70 137.37 153.99 137.01 C 153.28 136.65 152.42 136.94 152.06 137.64 Z M 151.62 138.54 L 151.18 139.42 C 150.82 140.13 151.11 140.99 151.81 141.34 C 152.52 141.70 153.38 141.41 153.73 140.71 L 154.18 139.82 C 154.53 139.11 154.25 138.25 153.54 137.90 C 152.83 137.55 151.97 137.83 151.62 138.54 Z M 151.18 139.43 L 151.03 139.72 C 150.68 140.42 150.97 141.28 151.67 141.63 C 152.38 141.98 153.23 141.70 153.59 140.99 L 153.73 140.70 C 154.08 140.00 153.80 139.14 153.09 138.79 C 152.39 138.44 151.53 138.72 151.18 139.43 Z"
      fill="black"
      fill-rule="nonzero" /><path d="M 147.87 137.51 L 146.88 137.38 C 146.04 137.27 145.27 137.87 145.16 138.71 C 145.05 139.55 145.65 140.32 146.49 140.43 L 147.48 140.56 C 148.33 140.66 149.09 140.07 149.20 139.23 C 149.31 138.39 148.72 137.62 147.87 137.51 Z M 146.86 137.37 L 145.87 137.26 C 145.02 137.16 144.25 137.77 144.16 138.62 C 144.06 139.46 144.67 140.23 145.52 140.33 L 146.51 140.44 C 147.36 140.54 148.12 139.93 148.22 139.08 C 148.32 138.23 147.71 137.47 146.86 137.37 Z M 145.83 137.24 L 144.83 137.16 C 143.98 137.08 143.22 137.72 143.15 138.57 C 143.08 139.43 143.71 140.18 144.56 140.25 L 145.56 140.34 C 146.41 140.41 147.16 139.78 147.24 138.93 C 147.31 138.07 146.68 137.32 145.83 137.24 Z M 144.75 137.15 L 143.72 137.11 C 142.86 137.08 142.14 137.75 142.11 138.61 C 142.08 139.47 142.75 140.20 143.61 140.23 L 144.64 140.26 C 145.50 140.29 146.22 139.62 146.25 138.76 C 146.29 137.90 145.61 137.18 144.75 137.15 Z M 143.53 137.11 L 142.54 137.20 C 141.68 137.27 141.04 138.03 141.11 138.89 C 141.19 139.74 141.94 140.38 142.80 140.31 L 143.80 140.22 C 144.66 140.15 145.29 139.40 145.22 138.54 C 145.15 137.68 144.39 137.04 143.53 137.11 Z M 142.20 137.26 L 141.29 137.55 C 140.47 137.81 140.01 138.68 140.27 139.50 C 140.52 140.33 141.40 140.79 142.22 140.53 L 143.13 140.24 C 143.96 139.99 144.42 139.11 144.16 138.29 C 143.90 137.47 143.03 137.01 142.20 137.26 Z M 140.88 137.74 L 140.10 138.27 C 139.38 138.75 139.19 139.72 139.68 140.44 C 140.16 141.15 141.13 141.34 141.85 140.86 L 142.63 140.34 C 143.35 139.86 143.54 138.88 143.05 138.17 C 142.57 137.45 141.60 137.26 140.88 137.74 Z M 139.82 138.50 L 139.15 139.23 C 138.56 139.86 138.59 140.86 139.23 141.45 C 139.86 142.04 140.86 142.00 141.45 141.36 L 142.13 140.63 C 142.71 140.00 142.68 139.00 142.04 138.41 C 141.41 137.82 140.41 137.86 139.82 138.50 Z M 138.99 139.42 L 138.40 140.29 C 137.91 141.01 138.11 141.99 138.83 142.48 C 139.55 142.96 140.53 142.77 141.01 142.05 L 141.60 141.17 C 142.09 140.45 141.90 139.47 141.18 138.99 C 140.45 138.50 139.47 138.69 138.99 139.42 Z M 138.32 140.42 L 137.85 141.30 C 137.43 142.06 137.72 143.02 138.49 143.44 C 139.26 143.85 140.22 143.56 140.63 142.79 L 141.10 141.92 C 141.51 141.15 141.22 140.19 140.46 139.78 C 139.69 139.36 138.73 139.65 138.32 140.42 Z M 137.79 141.39 L 137.38 142.30 C 137.01 143.10 137.37 144.04 138.16 144.41 C 138.96 144.77 139.90 144.42 140.26 143.62 L 140.68 142.70 C 141.04 141.90 140.69 140.96 139.89 140.60 C 139.10 140.24 138.16 140.59 137.79 141.39 Z M 137.34 142.37 L 136.97 143.30 C 136.64 144.12 137.04 145.04 137.86 145.37 C 138.67 145.70 139.60 145.30 139.93 144.48 L 140.30 143.55 C 140.62 142.74 140.23 141.81 139.41 141.48 C 138.59 141.16 137.67 141.56 137.34 142.37 Z M 136.95 143.35 L 136.60 144.29 C 136.30 145.12 136.73 146.04 137.56 146.34 C 138.39 146.64 139.30 146.21 139.61 145.38 L 139.95 144.44 C 140.25 143.61 139.82 142.69 138.99 142.39 C 138.16 142.09 137.25 142.52 136.95 143.35 Z M 136.59 144.33 L 136.27 145.27 C 135.99 146.11 136.44 147.02 137.28 147.30 C 138.12 147.58 139.02 147.13 139.30 146.29 L 139.62 145.35 C 139.90 144.51 139.45 143.60 138.61 143.32 C 137.78 143.04 136.87 143.49 136.59 144.33 Z M 136.26 145.30 L 135.96 146.25 C 135.69 147.09 136.16 147.99 137.00 148.26 C 137.85 148.53 138.75 148.06 139.02 147.21 L 139.32 146.27 C 139.59 145.42 139.12 144.52 138.27 144.25 C 137.43 143.99 136.52 144.45 136.26 145.30 Z M 135.95 146.26 L 135.66 147.21 C 135.40 148.06 135.88 148.96 136.73 149.22 C 137.58 149.48 138.48 149.00 138.74 148.15 L 139.03 147.20 C 139.29 146.35 138.81 145.45 137.96 145.19 C 137.11 144.93 136.21 145.41 135.95 146.26 Z M 135.65 147.21 L 135.37 148.17 C 135.11 149.02 135.59 149.92 136.45 150.18 C 137.30 150.44 138.20 149.95 138.46 149.10 L 138.75 148.14 C 139.00 147.29 138.52 146.39 137.66 146.13 C 136.81 145.88 135.91 146.36 135.65 147.21 Z M 135.36 148.16 L 135.07 149.13 C 134.81 149.98 135.29 150.89 136.15 151.15 C 137.00 151.41 137.91 150.92 138.17 150.07 L 138.46 149.11 C 138.72 148.25 138.24 147.35 137.38 147.09 C 136.53 146.83 135.62 147.31 135.36 148.16 Z M 135.07 149.11 L 134.77 150.06 C 134.50 150.92 134.97 151.83 135.83 152.10 C 136.68 152.37 137.59 151.90 137.86 151.04 L 138.17 150.09 C 138.44 149.23 137.96 148.32 137.11 148.05 C 136.25 147.78 135.34 148.25 135.07 149.11 Z M 134.77 150.04 L 134.46 150.98 C 134.18 151.83 134.65 152.75 135.50 153.03 C 136.35 153.32 137.27 152.85 137.55 152.00 L 137.86 151.06 C 138.14 150.21 137.68 149.29 136.83 149.01 C 135.97 148.73 135.05 149.19 134.77 150.04 Z M 134.46 150.97 L 134.15 151.92 C 133.86 152.77 134.32 153.69 135.17 153.98 C 136.03 154.27 136.95 153.81 137.24 152.95 L 137.55 152.01 C 137.84 151.15 137.38 150.23 136.53 149.94 C 135.67 149.66 134.75 150.12 134.46 150.97 Z M 134.14 151.92 L 133.82 152.89 C 133.54 153.74 134.00 154.67 134.86 154.95 C 135.71 155.24 136.64 154.77 136.92 153.92 L 137.24 152.95 C 137.52 152.09 137.06 151.17 136.20 150.88 C 135.35 150.60 134.42 151.07 134.14 151.92 Z M 133.81 152.92 L 133.51 153.90 C 133.24 154.76 133.72 155.68 134.58 155.94 C 135.45 156.21 136.36 155.73 136.63 154.87 L 136.93 153.89 C 137.20 153.02 136.72 152.11 135.85 151.84 C 134.99 151.57 134.08 152.06 133.81 152.92 Z M 133.48 154.01 L 133.24 155.00 C 133.04 155.88 133.58 156.76 134.46 156.96 C 135.34 157.17 136.22 156.62 136.43 155.75 L 136.66 154.76 C 136.86 153.88 136.32 153.00 135.44 152.79 C 134.56 152.59 133.68 153.13 133.48 154.01 Z M 133.21 155.22 L 133.12 156.19 C 133.03 157.09 133.69 157.88 134.59 157.97 C 135.49 158.05 136.29 157.39 136.37 156.49 L 136.46 155.52 C 136.55 154.62 135.89 153.83 134.99 153.74 C 134.09 153.66 133.29 154.32 133.21 155.22 Z M 133.13 156.56 L 133.27 157.55 C 133.39 158.45 134.22 159.07 135.11 158.94 C 136.00 158.82 136.63 157.99 136.50 157.10 L 136.36 156.11 C 136.24 155.22 135.41 154.60 134.52 154.72 C 133.63 154.85 133.00 155.67 133.13 156.56 Z M 133.41 158.02 L 133.83 158.92 C 134.22 159.73 135.19 160.08 136.00 159.70 C 136.81 159.32 137.16 158.35 136.78 157.53 L 136.36 156.63 C 135.97 155.82 135.00 155.47 134.19 155.85 C 133.38 156.24 133.03 157.21 133.41 158.02 Z M 134.16 159.37 L 134.85 160.06 C 135.48 160.69 136.50 160.70 137.14 160.06 C 137.77 159.43 137.78 158.41 137.14 157.77 L 136.46 157.08 C 135.82 156.45 134.80 156.44 134.16 157.08 C 133.53 157.71 133.53 158.74 134.16 159.37 Z M 135.30 160.38 L 136.06 160.74 C 136.86 161.12 137.83 160.78 138.21 159.97 C 138.60 159.16 138.25 158.20 137.45 157.82 L 136.69 157.46 C 135.88 157.07 134.92 157.41 134.53 158.22 C 134.15 159.03 134.49 159.99 135.30 160.38 Z M 136.45 160.86 L 137.29 161.02 C 138.17 161.19 139.01 160.62 139.18 159.74 C 139.35 158.86 138.77 158.02 137.90 157.85 L 137.06 157.69 C 136.18 157.52 135.33 158.10 135.16 158.97 C 135.00 159.85 135.57 160.70 136.45 160.86 Z M 137.54 161.05 L 138.55 161.08 C 139.44 161.11 140.19 160.41 140.22 159.52 C 140.25 158.62 139.54 157.88 138.65 157.85 L 137.64 157.82 C 136.75 157.79 136.00 158.49 135.97 159.39 C 135.95 160.28 136.65 161.03 137.54 161.05 Z M 138.70 161.08 L 139.89 161.01 C 140.78 160.96 141.46 160.19 141.41 159.30 C 141.36 158.41 140.59 157.73 139.70 157.78 L 138.50 157.85 C 137.61 157.90 136.93 158.67 136.98 159.56 C 137.04 160.46 137.80 161.14 138.70 161.08 Z M 139.96 161.01 L 140.97 160.91 C 141.86 160.82 142.51 160.02 142.42 159.13 C 142.33 158.24 141.53 157.59 140.64 157.68 L 139.63 157.78 C 138.74 157.87 138.09 158.67 138.18 159.56 C 138.27 160.45 139.07 161.10 139.96 161.01 Z M 140.99 160.91 L 141.94 160.79 C 142.83 160.69 143.47 159.88 143.37 158.99 C 143.26 158.10 142.45 157.46 141.56 157.57 L 140.61 157.68 C 139.72 157.79 139.09 158.59 139.19 159.48 C 139.30 160.37 140.10 161.01 140.99 160.91 Z M 141.95 160.79 L 142.95 160.67 C 143.84 160.56 144.48 159.75 144.37 158.86 C 144.26 157.97 143.44 157.33 142.55 157.44 L 141.55 157.57 C 140.66 157.68 140.03 158.49 140.14 159.38 C 140.25 160.27 141.06 160.91 141.95 160.79 Z M 142.95 160.67 L 143.98 160.55 C 144.87 160.44 145.51 159.62 145.40 158.73 C 145.29 157.84 144.47 157.20 143.58 157.31 L 142.55 157.44 C 141.66 157.55 141.03 158.37 141.14 159.26 C 141.25 160.15 142.06 160.78 142.95 160.67 Z M 143.97 160.55 L 145.01 160.43 C 145.90 160.32 146.54 159.51 146.44 158.62 C 146.33 157.72 145.52 157.08 144.63 157.19 L 143.59 157.31 C 142.70 157.42 142.06 158.23 142.16 159.12 C 142.27 160.01 143.08 160.65 143.97 160.55 Z M 144.99 160.43 L 146.01 160.32 C 146.91 160.23 147.56 159.43 147.46 158.53 C 147.37 157.63 146.57 156.98 145.67 157.08 L 144.65 157.19 C 143.75 157.28 143.10 158.08 143.19 158.98 C 143.29 159.88 144.09 160.53 144.99 160.43 Z M 145.98 160.33 L 147.06 160.24 C 147.96 160.16 148.63 159.37 148.55 158.47 C 148.47 157.57 147.68 156.90 146.78 156.98 L 145.70 157.07 C 144.80 157.15 144.14 157.94 144.21 158.84 C 144.29 159.74 145.08 160.41 145.98 160.33 Z M 147.00 160.24 L 148.11 160.19 C 149.02 160.14 149.71 159.37 149.66 158.47 C 149.62 157.57 148.85 156.87 147.95 156.92 L 146.84 156.97 C 145.93 157.02 145.24 157.79 145.29 158.69 C 145.33 159.60 146.10 160.29 147.00 160.24 Z M 148.03 160.19 L 149.07 160.19 C 149.98 160.19 150.71 159.45 150.71 158.55 C 150.71 157.64 149.97 156.91 149.07 156.91 L 148.02 156.91 C 147.12 156.91 146.39 157.65 146.39 158.56 C 146.39 159.46 147.13 160.20 148.03 160.19 Z M 148.97 160.19 L 149.94 160.25 C 150.84 160.31 151.62 159.62 151.68 158.71 C 151.74 157.81 151.05 157.03 150.14 156.97 L 149.17 156.91 C 148.27 156.85 147.49 157.54 147.43 158.45 C 147.37 159.35 148.06 160.13 148.97 160.19 Z M 149.79 160.24 L 150.69 160.37 C 151.59 160.51 152.42 159.89 152.56 158.99 C 152.70 158.09 152.08 157.25 151.18 157.12 L 150.28 156.98 C 149.39 156.85 148.55 157.47 148.41 158.36 C 148.27 159.26 148.89 160.10 149.79 160.24 Z M 150.50 160.34 L 151.37 160.58 C 152.25 160.82 153.16 160.30 153.40 159.42 C 153.64 158.54 153.12 157.64 152.24 157.39 L 151.37 157.16 C 150.49 156.91 149.58 157.43 149.34 158.31 C 149.10 159.19 149.62 160.10 150.50 160.34 Z M 151.12 160.49 L 152.06 160.91 C 152.89 161.29 153.87 160.92 154.24 160.09 C 154.62 159.26 154.25 158.28 153.42 157.90 L 152.49 157.48 C 151.66 157.10 150.68 157.47 150.30 158.30 C 149.92 159.14 150.29 160.12 151.12 160.49 Z M 151.81 160.78 L 152.63 161.33 C 153.39 161.84 154.42 161.64 154.93 160.88 C 155.44 160.12 155.24 159.09 154.48 158.58 L 153.66 158.03 C 152.90 157.52 151.87 157.72 151.36 158.48 C 150.85 159.24 151.05 160.27 151.81 160.78 Z M 152.44 161.19 L 153.17 161.84 C 153.85 162.46 154.90 162.41 155.51 161.73 C 156.13 161.05 156.08 160.00 155.40 159.38 L 154.67 158.72 C 153.99 158.11 152.94 158.16 152.32 158.84 C 151.71 159.52 151.76 160.57 152.44 161.19 Z M 153.03 161.71 L 153.69 162.46 C 154.29 163.15 155.34 163.22 156.04 162.61 C 156.73 162.00 156.79 160.95 156.19 160.26 L 155.53 159.51 C 154.93 158.82 153.87 158.76 153.18 159.36 C 152.49 159.97 152.43 161.02 153.03 161.71 Z M 153.59 162.34 L 154.19 163.16 C 154.73 163.90 155.78 164.06 156.52 163.52 C 157.26 162.97 157.42 161.93 156.88 161.19 L 156.28 160.37 C 155.74 159.63 154.69 159.47 153.95 160.01 C 153.21 160.56 153.05 161.60 153.59 162.34 Z M 154.12 163.06 L 154.66 163.92 C 155.15 164.70 156.18 164.94 156.96 164.45 C 157.74 163.96 157.98 162.93 157.49 162.14 L 156.95 161.29 C 156.46 160.51 155.43 160.27 154.65 160.76 C 153.87 161.25 153.63 162.28 154.12 163.06 Z M 154.60 163.83 L 155.08 164.71 C 155.52 165.52 156.54 165.82 157.35 165.38 C 158.16 164.94 158.46 163.92 158.02 163.11 L 157.54 162.23 C 157.10 161.42 156.09 161.12 155.27 161.56 C 154.46 162.00 154.16 163.02 154.60 163.83 Z M 155.04 164.62 L 155.46 165.51 C 155.85 166.35 156.85 166.71 157.69 166.31 C 158.52 165.91 158.88 164.92 158.48 164.08 L 158.06 163.19 C 157.67 162.36 156.67 162.00 155.83 162.40 C 155.00 162.79 154.64 163.79 155.04 164.62 Z M 155.42 165.43 L 155.80 166.37 C 156.15 167.22 157.13 167.63 157.98 167.29 C 158.84 166.94 159.25 165.96 158.90 165.10 L 158.52 164.16 C 158.17 163.31 157.19 162.90 156.34 163.25 C 155.48 163.60 155.07 164.57 155.42 165.43 Z M 155.77 166.28 L 156.09 167.22 C 156.39 168.09 157.35 168.55 158.22 168.25 C 159.10 167.95 159.56 166.99 159.26 166.12 L 158.94 165.19 C 158.63 164.31 157.68 163.85 156.80 164.15 C 155.93 164.45 155.47 165.41 155.77 166.28 Z M 156.07 167.14 L 156.35 168.09 C 156.61 168.98 157.54 169.49 158.43 169.23 C 159.32 168.96 159.83 168.03 159.56 167.14 L 159.28 166.19 C 159.02 165.30 158.09 164.80 157.20 165.06 C 156.31 165.32 155.80 166.25 156.07 167.14 Z M 156.33 168.03 L 156.56 168.95 C 156.79 169.85 157.71 170.39 158.61 170.16 C 159.51 169.93 160.05 169.02 159.82 168.12 L 159.58 167.20 C 159.35 166.30 158.44 165.76 157.54 165.99 C 156.64 166.22 156.10 167.13 156.33 168.03 Z M 156.55 168.91 L 156.75 169.80 C 156.96 170.71 157.86 171.28 158.76 171.08 C 159.67 170.87 160.24 169.97 160.03 169.06 L 159.83 168.17 C 159.63 167.26 158.73 166.69 157.82 166.89 C 156.91 167.10 156.34 168.00 156.55 168.91 Z M 156.74 169.76 L 156.93 170.72 C 157.11 171.63 157.99 172.23 158.91 172.05 C 159.82 171.87 160.42 170.98 160.24 170.07 L 160.05 169.11 C 159.87 168.20 158.98 167.60 158.07 167.78 C 157.15 167.96 156.56 168.84 156.74 169.76 Z M 156.91 170.67 L 157.09 171.71 C 157.24 172.63 158.11 173.25 159.03 173.10 C 159.95 172.94 160.58 172.07 160.42 171.15 L 160.25 170.11 C 160.09 169.19 159.22 168.57 158.30 168.73 C 157.38 168.88 156.76 169.75 156.91 170.67 Z M 157.08 171.67 L 157.23 172.75 C 157.36 173.68 158.22 174.32 159.14 174.19 C 160.07 174.06 160.72 173.20 160.59 172.28 L 160.43 171.20 C 160.30 170.27 159.45 169.62 158.52 169.75 C 157.59 169.88 156.95 170.74 157.08 171.67 Z M 157.22 172.72 L 157.34 173.70 C 157.45 174.63 158.30 175.29 159.23 175.18 C 160.16 175.07 160.82 174.22 160.71 173.29 L 160.59 172.31 C 160.48 171.38 159.64 170.72 158.71 170.83 C 157.77 170.94 157.11 171.79 157.22 172.72 Z M 157.34 173.67 L 157.44 174.69 C 157.54 175.62 158.37 176.30 159.31 176.20 C 160.24 176.10 160.92 175.27 160.82 174.34 L 160.71 173.32 C 160.62 172.39 159.78 171.71 158.85 171.80 C 157.92 171.90 157.24 172.74 157.34 173.67 Z M 157.44 174.66 L 157.53 175.69 C 157.61 176.63 158.44 177.32 159.38 177.23 C 160.31 177.15 161.00 176.32 160.92 175.38 L 160.82 174.36 C 160.74 173.42 159.91 172.73 158.98 172.82 C 158.04 172.90 157.35 173.73 157.44 174.66 Z M 157.53 175.67 L 157.60 176.68 C 157.68 177.61 158.49 178.31 159.43 178.24 C 160.37 178.17 161.07 177.35 161.00 176.42 L 160.92 175.41 C 160.85 174.47 160.03 173.77 159.09 173.84 C 158.16 173.91 157.45 174.73 157.53 175.67 Z M 157.60 176.65 L 157.66 177.61 C 157.72 178.55 158.53 179.27 159.47 179.21 C 160.41 179.15 161.12 178.34 161.06 177.40 L 161.00 176.44 C 160.94 175.50 160.13 174.79 159.19 174.85 C 158.26 174.90 157.54 175.71 157.60 176.65 Z M 157.66 177.58 L 157.71 178.70 C 157.75 179.64 158.55 180.37 159.49 180.33 C 160.43 180.29 161.16 179.49 161.12 178.55 L 161.07 177.43 C 161.02 176.49 160.23 175.76 159.28 175.80 C 158.34 175.85 157.61 176.64 157.66 177.58 Z M 157.70 178.67 L 157.73 179.70 C 157.75 180.65 158.54 181.39 159.48 181.37 C 160.42 181.35 161.17 180.56 161.15 179.62 L 161.12 178.58 C 161.10 177.64 160.31 176.89 159.37 176.92 C 158.43 176.94 157.68 177.73 157.70 178.67 Z M 157.73 179.67 L 157.73 180.63 C 157.74 181.57 158.51 182.34 159.45 182.33 C 160.40 182.32 161.16 181.55 161.15 180.61 L 161.15 179.65 C 161.14 178.71 160.37 177.94 159.43 177.95 C 158.48 177.96 157.72 178.73 157.73 179.67 Z M 157.73 180.60 L 157.72 181.51 C 157.71 182.45 158.47 183.23 159.42 183.24 C 160.36 183.25 161.14 182.49 161.15 181.54 L 161.16 180.64 C 161.17 179.69 160.41 178.91 159.46 178.91 C 158.51 178.90 157.74 179.66 157.73 180.60 Z M 157.72 181.48 L 157.69 182.45 C 157.67 183.40 158.42 184.19 159.37 184.21 C 160.32 184.23 161.10 183.48 161.13 182.53 L 161.15 181.57 C 161.17 180.62 160.42 179.83 159.48 179.81 C 158.53 179.78 157.74 180.53 157.72 181.48 Z M 157.69 182.39 L 157.63 183.37 C 157.58 184.32 158.30 185.13 159.25 185.19 C 160.20 185.24 161.01 184.52 161.07 183.57 L 161.13 182.59 C 161.18 181.65 160.46 180.83 159.51 180.77 C 158.56 180.72 157.75 181.44 157.69 182.39 Z M 157.64 183.26 L 157.52 184.25 C 157.40 185.19 158.07 186.05 159.02 186.17 C 159.96 186.29 160.83 185.62 160.94 184.67 L 161.06 183.68 C 161.18 182.74 160.51 181.88 159.56 181.76 C 158.62 181.64 157.76 182.31 157.64 183.26 Z M 157.54 184.10 L 157.33 185.10 C 157.13 186.03 157.73 186.95 158.66 187.15 C 159.60 187.34 160.51 186.75 160.71 185.81 L 160.92 184.82 C 161.12 183.88 160.52 182.96 159.59 182.77 C 158.65 182.57 157.74 183.17 157.54 184.10 Z M 157.36 184.95 L 157.08 185.86 C 156.81 186.78 157.32 187.75 158.24 188.03 C 159.16 188.30 160.12 187.79 160.40 186.87 L 160.68 185.96 C 160.96 185.04 160.44 184.08 159.52 183.80 C 158.61 183.52 157.64 184.04 157.36 184.95 Z M 157.12 185.74 L 156.76 186.66 C 156.41 187.56 156.85 188.56 157.75 188.91 C 158.64 189.26 159.65 188.82 160.00 187.93 L 160.36 187.00 C 160.71 186.11 160.27 185.10 159.38 184.75 C 158.48 184.40 157.47 184.84 157.12 185.74 Z M 156.81 186.54 L 156.37 187.46 C 155.95 188.33 156.32 189.37 157.18 189.79 C 158.05 190.20 159.09 189.84 159.51 188.97 L 159.95 188.05 C 160.37 187.18 160.00 186.14 159.14 185.72 C 158.27 185.31 157.23 185.67 156.81 186.54 Z M 156.43 187.34 L 155.91 188.24 C 155.42 189.07 155.71 190.14 156.54 190.62 C 157.38 191.11 158.44 190.83 158.93 189.99 L 159.45 189.09 C 159.93 188.26 159.65 187.19 158.82 186.70 C 157.98 186.22 156.91 186.50 156.43 187.34 Z M 155.98 188.12 L 155.41 188.94 C 154.86 189.74 155.05 190.83 155.85 191.38 C 156.65 191.93 157.74 191.73 158.29 190.94 L 158.86 190.11 C 159.41 189.31 159.21 188.22 158.41 187.67 C 157.62 187.12 156.53 187.32 155.98 188.12 Z M 155.48 188.83 L 154.85 189.61 C 154.24 190.37 154.36 191.47 155.11 192.08 C 155.87 192.69 156.97 192.58 157.58 191.82 L 158.21 191.04 C 158.82 190.29 158.71 189.18 157.95 188.57 C 157.20 187.96 156.09 188.08 155.48 188.83 Z M 154.93 189.52 L 154.25 190.25 C 153.58 190.96 153.62 192.07 154.33 192.74 C 155.04 193.40 156.16 193.36 156.82 192.65 L 157.50 191.92 C 158.17 191.21 158.13 190.09 157.42 189.43 C 156.71 188.77 155.59 188.80 154.93 189.52 Z M 154.33 190.16 L 153.60 190.84 C 152.88 191.51 152.85 192.63 153.51 193.34 C 154.18 194.05 155.30 194.09 156.01 193.42 L 156.74 192.74 C 157.45 192.07 157.49 190.95 156.82 190.24 C 156.16 189.53 155.04 189.49 154.33 190.16 Z M 153.68 190.76 L 152.89 191.41 C 152.13 192.03 152.02 193.15 152.64 193.90 C 153.26 194.66 154.38 194.77 155.13 194.15 L 155.93 193.50 C 156.68 192.88 156.79 191.77 156.17 191.01 C 155.55 190.25 154.44 190.14 153.68 190.76 Z M 152.98 191.34 L 152.14 191.94 C 151.34 192.51 151.16 193.62 151.73 194.42 C 152.30 195.21 153.41 195.40 154.20 194.82 L 155.05 194.22 C 155.84 193.65 156.02 192.54 155.45 191.75 C 154.88 190.95 153.78 190.77 152.98 191.34 Z M 152.23 191.88 L 151.37 192.42 C 150.54 192.94 150.29 194.03 150.81 194.86 C 151.33 195.69 152.43 195.95 153.26 195.42 L 154.11 194.89 C 154.94 194.37 155.20 193.27 154.67 192.44 C 154.15 191.61 153.06 191.36 152.23 191.88 Z M 151.46 192.36 L 150.61 192.83 C 149.75 193.30 149.43 194.38 149.90 195.24 C 150.38 196.10 151.46 196.42 152.32 195.95 L 153.17 195.48 C 154.03 195.01 154.35 193.93 153.87 193.07 C 153.40 192.21 152.32 191.89 151.46 192.36 Z M 150.71 192.77 L 149.81 193.19 C 148.92 193.61 148.54 194.67 148.96 195.56 C 149.37 196.45 150.43 196.83 151.32 196.42 L 152.22 196.00 C 153.11 195.58 153.49 194.52 153.07 193.63 C 152.66 192.74 151.60 192.36 150.71 192.77 Z M 149.93 193.14 L 148.96 193.51 C 148.04 193.86 147.58 194.89 147.93 195.81 C 148.29 196.73 149.31 197.19 150.23 196.84 L 151.20 196.47 C 152.12 196.12 152.58 195.09 152.23 194.17 C 151.88 193.25 150.85 192.79 149.93 193.14 Z M 149.10 193.47 L 148.16 193.74 C 147.21 194.02 146.67 195.01 146.95 195.95 C 147.22 196.89 148.21 197.44 149.15 197.16 L 150.10 196.88 C 151.04 196.61 151.58 195.62 151.31 194.68 C 151.03 193.73 150.04 193.19 149.10 193.47 Z M 148.29 193.71 L 147.36 193.90 C 146.40 194.10 145.78 195.05 145.98 196.01 C 146.18 196.97 147.13 197.59 148.09 197.39 L 149.02 197.19 C 149.98 196.99 150.60 196.05 150.40 195.09 C 150.20 194.12 149.25 193.51 148.29 193.71 Z M 147.49 193.88 L 146.54 194.01 C 145.56 194.14 144.88 195.04 145.01 196.01 C 145.14 196.98 146.04 197.67 147.01 197.54 L 147.96 197.41 C 148.94 197.28 149.62 196.38 149.49 195.41 C 149.36 194.43 148.46 193.75 147.49 193.88 Z M 146.64 194.00 L 145.67 194.07 C 144.69 194.14 143.95 194.99 144.02 195.97 C 144.09 196.95 144.95 197.69 145.92 197.62 L 146.90 197.55 C 147.88 197.48 148.62 196.62 148.55 195.65 C 148.48 194.67 147.62 193.93 146.64 194.00 Z M 145.75 194.07 L 144.72 194.10 C 143.74 194.12 142.97 194.94 142.99 195.92 C 143.02 196.90 143.84 197.67 144.82 197.65 L 145.84 197.62 C 146.82 197.59 147.60 196.78 147.57 195.80 C 147.54 194.82 146.73 194.04 145.75 194.07 Z M 144.77 194.10 L 143.80 194.10 C 142.82 194.09 142.02 194.89 142.02 195.87 C 142.02 196.85 142.81 197.64 143.79 197.64 L 144.77 197.65 C 145.75 197.65 146.54 196.85 146.54 195.87 C 146.55 194.90 145.75 194.10 144.77 194.10 Z M 143.85 194.10 L 142.90 194.07 C 141.92 194.04 141.10 194.80 141.07 195.78 C 141.04 196.76 141.80 197.57 142.78 197.61 L 143.74 197.64 C 144.71 197.67 145.53 196.91 145.56 195.93 C 145.60 194.95 144.83 194.13 143.85 194.10 Z M 142.99 194.08 L 141.99 193.99 C 141.01 193.91 140.16 194.64 140.08 195.61 C 140.00 196.58 140.72 197.43 141.69 197.52 L 142.69 197.60 C 143.67 197.68 144.52 196.96 144.60 195.98 C 144.68 195.01 143.96 194.16 142.99 194.08 Z M 142.10 194.01 L 141.06 193.86 C 140.10 193.71 139.20 194.38 139.06 195.34 C 138.91 196.30 139.58 197.20 140.54 197.34 L 141.58 197.50 C 142.54 197.64 143.44 196.98 143.58 196.02 C 143.73 195.05 143.06 194.16 142.10 194.01 Z M 141.19 193.88 L 140.21 193.66 C 139.26 193.44 138.32 194.04 138.10 194.98 C 137.89 195.93 138.48 196.87 139.43 197.09 L 140.41 197.31 C 141.36 197.53 142.30 196.94 142.51 195.99 C 142.73 195.04 142.14 194.10 141.19 193.88 Z M 140.33 193.70 L 139.41 193.42 C 138.48 193.13 137.50 193.65 137.22 194.58 C 136.93 195.51 137.46 196.49 138.38 196.77 L 139.31 197.05 C 140.23 197.34 141.21 196.81 141.50 195.89 C 141.78 194.96 141.26 193.98 140.33 193.70 Z M 139.51 193.46 L 138.58 193.10 C 137.68 192.76 136.67 193.22 136.33 194.12 C 135.98 195.03 136.44 196.04 137.34 196.38 L 138.28 196.73 C 139.18 197.07 140.19 196.62 140.53 195.71 C 140.88 194.81 140.42 193.80 139.51 193.46 Z M 138.68 193.15 L 137.75 192.73 C 136.87 192.33 135.84 192.72 135.44 193.60 C 135.04 194.48 135.44 195.52 136.32 195.92 L 137.25 196.34 C 138.12 196.73 139.16 196.34 139.56 195.46 C 139.95 194.58 139.56 193.55 138.68 193.15 Z M 137.85 192.78 L 136.93 192.30 C 136.08 191.85 135.02 192.17 134.57 193.02 C 134.12 193.88 134.45 194.93 135.30 195.38 L 136.22 195.87 C 137.07 196.31 138.13 195.99 138.58 195.14 C 139.03 194.28 138.70 193.23 137.85 192.78 Z M 137.02 192.35 L 136.12 191.80 C 135.30 191.30 134.23 191.56 133.73 192.39 C 133.23 193.21 133.49 194.28 134.31 194.77 L 135.21 195.32 C 136.03 195.82 137.10 195.56 137.60 194.74 C 138.10 193.92 137.84 192.85 137.02 192.35 Z M 136.19 191.86 L 135.33 191.27 C 134.54 190.72 133.46 190.92 132.92 191.71 C 132.38 192.50 132.58 193.58 133.37 194.12 L 134.23 194.72 C 135.02 195.26 136.10 195.06 136.64 194.27 C 137.18 193.48 136.98 192.40 136.19 191.86 Z M 135.39 191.32 L 134.57 190.70 C 133.81 190.12 132.73 190.27 132.16 191.03 C 131.58 191.78 131.73 192.87 132.48 193.44 L 133.30 194.06 C 134.06 194.64 135.14 194.49 135.72 193.74 C 136.29 192.98 136.15 191.90 135.39 191.32 Z M 134.63 190.75 L 133.87 190.13 C 133.14 189.52 132.06 189.62 131.46 190.35 C 130.85 191.07 130.95 192.15 131.68 192.76 L 132.43 193.39 C 133.16 193.99 134.24 193.90 134.85 193.17 C 135.45 192.44 135.35 191.36 134.63 190.75 Z M 133.92 190.18 L 133.25 189.57 C 132.55 188.94 131.47 188.99 130.84 189.69 C 130.20 190.38 130.26 191.46 130.95 192.10 L 131.63 192.71 C 132.33 193.34 133.41 193.29 134.04 192.59 C 134.67 191.89 134.62 190.81 133.92 190.18 Z M 133.31 189.64 L 132.53 188.86 C 131.87 188.20 130.80 188.19 130.14 188.85 C 129.47 189.51 129.47 190.58 130.13 191.25 L 130.90 192.03 C 131.56 192.69 132.63 192.70 133.29 192.04 C 133.96 191.38 133.96 190.30 133.31 189.64 Z M 132.60 188.96 L 131.95 188.20 C 131.34 187.50 130.28 187.42 129.58 188.03 C 128.88 188.63 128.80 189.69 129.41 190.40 L 130.06 191.15 C 130.66 191.85 131.72 191.93 132.43 191.32 C 133.13 190.72 133.21 189.66 132.60 188.96 Z M 132.01 188.30 L 131.45 187.55 C 130.89 186.82 129.85 186.67 129.12 187.22 C 128.38 187.78 128.23 188.82 128.79 189.56 L 129.35 190.30 C 129.90 191.03 130.94 191.18 131.68 190.63 C 132.41 190.07 132.56 189.03 132.01 188.30 Z M 131.48 187.63 L 130.95 186.85 C 130.44 186.09 129.42 185.89 128.66 186.41 C 127.91 186.92 127.71 187.94 128.22 188.70 L 128.75 189.48 C 129.26 190.23 130.29 190.43 131.04 189.92 C 131.80 189.41 131.99 188.38 131.48 187.63 Z M 130.98 186.91 L 130.46 186.07 C 129.99 185.30 128.98 185.06 128.21 185.54 C 127.44 186.01 127.20 187.03 127.67 187.80 L 128.19 188.64 C 128.67 189.41 129.68 189.64 130.45 189.17 C 131.22 188.69 131.46 187.68 130.98 186.91 Z M 130.49 186.14 L 130.00 185.26 C 129.56 184.47 128.57 184.19 127.78 184.63 C 127.00 185.06 126.71 186.06 127.15 186.85 L 127.64 187.73 C 128.08 188.52 129.08 188.80 129.86 188.36 C 130.65 187.92 130.93 186.93 130.49 186.14 Z M 130.04 185.33 L 129.59 184.42 C 129.19 183.62 128.22 183.29 127.41 183.68 C 126.61 184.08 126.27 185.05 126.67 185.86 L 127.12 186.77 C 127.52 187.57 128.49 187.91 129.30 187.51 C 130.10 187.11 130.43 186.14 130.04 185.33 Z M 129.62 184.50 L 129.23 183.61 C 128.88 182.79 127.93 182.41 127.11 182.76 C 126.29 183.11 125.91 184.06 126.26 184.89 L 126.64 185.78 C 127.00 186.60 127.95 186.98 128.77 186.63 C 129.59 186.27 129.97 185.32 129.62 184.50 Z M 129.25 183.68 L 128.90 182.75 C 128.58 181.92 127.65 181.50 126.82 181.81 C 125.99 182.13 125.57 183.06 125.89 183.89 L 126.24 184.82 C 126.56 185.65 127.48 186.07 128.32 185.75 C 129.15 185.44 129.57 184.51 129.25 183.68 Z M 128.91 182.80 L 128.58 181.84 C 128.29 181.00 127.38 180.55 126.55 180.84 C 125.71 181.12 125.26 182.03 125.55 182.87 L 125.88 183.84 C 126.16 184.67 127.07 185.12 127.91 184.83 C 128.75 184.55 129.20 183.64 128.91 182.80 Z M 128.59 181.88 L 128.28 180.91 C 128.02 180.07 127.13 179.60 126.29 179.87 C 125.44 180.13 124.98 181.02 125.24 181.86 L 125.54 182.83 C 125.80 183.67 126.70 184.14 127.54 183.87 C 128.38 183.61 128.85 182.72 128.59 181.88 Z M 128.29 180.95 L 128.01 179.99 C 127.77 179.14 126.89 178.66 126.05 178.90 C 125.20 179.14 124.72 180.02 124.96 180.86 L 125.24 181.83 C 125.48 182.67 126.36 183.16 127.20 182.91 C 128.04 182.67 128.53 181.79 128.29 180.95 Z M 128.02 180.03 L 127.77 179.06 C 127.55 178.21 126.69 177.70 125.85 177.91 C 125.00 178.13 124.49 178.99 124.70 179.84 L 124.95 180.81 C 125.17 181.66 126.03 182.17 126.88 181.96 C 127.72 181.74 128.23 180.88 128.02 180.03 Z M 127.77 179.12 L 127.57 178.14 C 127.38 177.29 126.55 176.75 125.70 176.93 C 124.85 177.11 124.31 177.95 124.49 178.80 L 124.70 179.78 C 124.88 180.63 125.72 181.17 126.57 180.99 C 127.42 180.80 127.96 179.97 127.77 179.12 Z M 127.57 178.22 L 127.41 177.21 C 127.27 176.36 126.46 175.78 125.61 175.92 C 124.75 176.06 124.17 176.86 124.32 177.72 L 124.48 178.72 C 124.62 179.58 125.43 180.16 126.28 180.02 C 127.13 179.88 127.71 179.07 127.57 178.22 Z M 127.41 177.28 L 127.29 176.28 C 127.20 175.43 126.42 174.81 125.57 174.91 C 124.71 175.01 124.10 175.79 124.20 176.64 L 124.31 177.64 C 124.41 178.50 125.18 179.11 126.04 179.01 C 126.90 178.91 127.51 178.14 127.41 177.28 Z M 127.29 176.34 L 127.22 175.36 C 127.15 174.50 126.41 173.86 125.55 173.93 C 124.70 173.99 124.06 174.74 124.12 175.59 L 124.20 176.58 C 124.26 177.43 125.01 178.07 125.86 178.01 C 126.72 177.94 127.36 177.20 127.29 176.34 Z M 127.21 175.40 L 127.17 174.44 C 127.13 173.59 126.41 172.93 125.55 172.97 C 124.70 173.01 124.04 173.73 124.08 174.58 L 124.13 175.55 C 124.17 176.40 124.89 177.06 125.74 177.02 C 126.59 176.98 127.25 176.26 127.21 175.40 Z M 127.16 174.48 L 127.14 173.58 C 127.12 172.73 126.42 172.06 125.57 172.08 C 124.72 172.09 124.05 172.80 124.07 173.65 L 124.09 174.55 C 124.11 175.40 124.81 176.07 125.66 176.05 C 126.51 176.03 127.18 175.33 127.16 174.48 Z M 127.14 173.62 L 127.14 172.67 C 127.14 171.83 126.46 171.14 125.61 171.14 C 124.77 171.13 124.08 171.82 124.08 172.66 L 124.07 173.61 C 124.07 174.45 124.75 175.14 125.60 175.15 C 126.45 175.15 127.13 174.47 127.14 173.62 Z M 127.13 172.72 L 127.17 171.68 C 127.20 170.84 126.54 170.13 125.69 170.10 C 124.85 170.07 124.15 170.73 124.12 171.58 L 124.08 172.62 C 124.05 173.46 124.71 174.17 125.56 174.19 C 126.40 174.22 127.11 173.56 127.13 172.72 Z M 127.16 171.72 L 127.23 170.61 C 127.28 169.77 126.64 169.05 125.80 169.00 C 124.97 168.94 124.24 169.58 124.19 170.42 L 124.13 171.54 C 124.07 172.37 124.71 173.09 125.55 173.15 C 126.39 173.20 127.11 172.56 127.16 171.72 Z M 127.22 170.64 L 127.30 169.65 C 127.37 168.82 126.75 168.09 125.92 168.02 C 125.08 167.95 124.35 168.57 124.28 169.40 L 124.20 170.39 C 124.13 171.22 124.75 171.95 125.59 172.02 C 126.42 172.09 127.15 171.47 127.22 170.64 Z M 127.29 169.68 L 127.40 168.65 C 127.49 167.82 126.89 167.08 126.06 166.99 C 125.23 166.91 124.49 167.51 124.40 168.34 L 124.29 169.37 C 124.20 170.20 124.81 170.94 125.64 171.03 C 126.47 171.12 127.21 170.51 127.29 169.68 Z M 127.39 168.69 L 127.53 167.65 C 127.64 166.83 127.06 166.07 126.23 165.97 C 125.41 165.86 124.65 166.44 124.54 167.26 L 124.41 168.30 C 124.30 169.12 124.88 169.88 125.70 169.99 C 126.53 170.10 127.28 169.51 127.39 168.69 Z M 127.52 167.71 L 127.68 166.71 C 127.82 165.89 127.27 165.12 126.45 164.98 C 125.63 164.85 124.86 165.40 124.72 166.21 L 124.56 167.21 C 124.42 168.03 124.97 168.80 125.79 168.94 C 126.61 169.07 127.38 168.52 127.52 167.71 Z M 127.66 166.78 L 127.86 165.87 C 128.04 165.07 127.53 164.27 126.72 164.09 C 125.92 163.92 125.12 164.43 124.94 165.23 L 124.74 166.14 C 124.57 166.95 125.08 167.75 125.88 167.92 C 126.69 168.10 127.49 167.59 127.66 166.78 Z M 127.82 166.00 L 128.17 164.89 C 128.42 164.10 127.98 163.27 127.20 163.02 C 126.41 162.78 125.58 163.21 125.33 164.00 L 124.98 165.11 C 124.74 165.89 125.17 166.73 125.96 166.97 C 126.74 167.22 127.58 166.78 127.82 166.00 Z M 128.10 165.05 L 128.51 164.14 C 128.84 163.40 128.51 162.52 127.77 162.19 C 127.03 161.85 126.15 162.18 125.82 162.93 L 125.41 163.84 C 125.07 164.58 125.40 165.45 126.14 165.79 C 126.89 166.12 127.76 165.79 128.10 165.05 Z M 128.42 164.28 L 128.88 163.50 C 129.29 162.80 129.06 161.90 128.36 161.49 C 127.67 161.08 126.77 161.32 126.36 162.01 L 125.90 162.79 C 125.49 163.49 125.72 164.39 126.42 164.80 C 127.12 165.21 128.01 164.97 128.42 164.28 Z M 128.82 163.58 L 129.32 162.85 C 129.77 162.19 129.61 161.28 128.94 160.83 C 128.28 160.37 127.38 160.54 126.92 161.20 L 126.42 161.93 C 125.97 162.59 126.14 163.50 126.80 163.95 C 127.46 164.41 128.36 164.24 128.82 163.58 Z M 129.26 162.92 L 129.82 162.20 C 130.32 161.57 130.21 160.66 129.58 160.17 C 128.95 159.67 128.04 159.78 127.55 160.41 L 126.98 161.13 C 126.49 161.76 126.60 162.67 127.23 163.17 C 127.86 163.66 128.77 163.55 129.26 162.92 Z M 129.72 162.31 L 130.41 161.60 C 130.96 161.03 130.95 160.11 130.38 159.56 C 129.80 159.01 128.89 159.02 128.34 159.59 L 127.65 160.30 C 127.09 160.88 127.11 161.79 127.68 162.34 C 128.26 162.90 129.17 162.88 129.72 162.31 Z M 130.27 161.72 L 131.14 161.02 C 131.76 160.52 131.86 159.62 131.37 159.00 C 130.87 158.38 129.96 158.28 129.34 158.78 L 128.47 159.47 C 127.85 159.97 127.75 160.88 128.25 161.50 C 128.75 162.12 129.65 162.22 130.27 161.72 Z M 131.02 161.11 L 131.84 160.58 C 132.50 160.16 132.70 159.27 132.27 158.60 C 131.85 157.93 130.96 157.74 130.29 158.16 L 129.47 158.69 C 128.80 159.12 128.61 160.00 129.03 160.67 C 129.46 161.34 130.35 161.53 131.02 161.11 Z M 131.75 160.63 L 132.64 160.15 C 133.33 159.77 133.59 158.90 133.21 158.20 C 132.83 157.51 131.96 157.25 131.27 157.63 L 130.38 158.11 C 129.68 158.49 129.43 159.36 129.80 160.06 C 130.18 160.75 131.05 161.01 131.75 160.63 Z M 132.57 160.18 L 133.51 159.74 C 134.22 159.40 134.53 158.54 134.19 157.83 C 133.85 157.11 132.99 156.81 132.28 157.15 L 131.34 157.60 C 130.62 157.93 130.32 158.79 130.66 159.50 C 131.00 160.22 131.85 160.52 132.57 160.18 Z M 133.44 159.76 L 134.39 159.37 C 135.12 159.07 135.46 158.23 135.16 157.50 C 134.86 156.77 134.02 156.42 133.29 156.73 L 132.34 157.12 C 131.61 157.42 131.27 158.26 131.57 158.99 C 131.87 159.72 132.71 160.07 133.44 159.76 Z M 134.32 159.40 L 135.25 159.07 C 135.99 158.80 136.38 157.99 136.12 157.24 C 135.85 156.50 135.04 156.11 134.29 156.37 L 133.36 156.70 C 132.62 156.97 132.23 157.78 132.49 158.53 C 132.76 159.27 133.57 159.66 134.32 159.40 Z M 135.15 159.10 L 136.23 158.80 C 136.99 158.58 137.43 157.80 137.22 157.04 C 137.01 156.28 136.22 155.83 135.46 156.04 L 134.39 156.34 C 133.63 156.56 133.18 157.34 133.39 158.10 C 133.61 158.86 134.39 159.31 135.15 159.10 Z M 136.12 158.82 L 137.10 158.62 C 137.87 158.47 138.37 157.72 138.22 156.94 C 138.06 156.17 137.31 155.67 136.54 155.82 L 135.56 156.02 C 134.79 156.18 134.29 156.93 134.44 157.70 C 134.60 158.47 135.35 158.97 136.12 158.82 Z M 137.03 158.64 L 137.94 158.50 C 138.72 158.39 139.26 157.67 139.15 156.89 C 139.04 156.11 138.31 155.57 137.53 155.68 L 136.62 155.81 C 135.84 155.93 135.30 156.65 135.41 157.43 C 135.52 158.21 136.25 158.75 137.03 158.64 Z M 137.91 158.51 L 138.46 158.44 C 139.24 158.34 139.80 157.63 139.70 156.85 C 139.61 156.07 138.89 155.51 138.11 155.61 L 137.57 155.68 C 136.78 155.77 136.23 156.48 136.32 157.26 C 136.42 158.05 137.13 158.60 137.91 158.51 Z"
      fill="black"
      fill-rule="nonzero" /></svg>