<svg xmlns="http://www.w3.org/2000/svg" width="300" height="300" viewBox="0 0 300 300">
<path d="M 172.55 103.76 L 171.94 104.55 C 171.39 105.28 171.53 106.32 172.26 106.88 C 172.99 107.44 174.03 107.30 174.59 106.57 L 175.20 105.78 C 175.76 105.05 175.62 104.00 174.89 103.45 C 174.15 102.89 173.11 103.03 172.55 103.76 Z M 171.92 104.55 L 171.32 105.34 C 170.76 106.08 170.91 107.14 171.66 107.70 C 172.40 108.26 173.46 108.11 174.02 107.37 L 174.61 106.57 C 175.17 105.83 175.03 104.77 174.28 104.21 C 173.54 103.65 172.48 103.80 171.92 104.55 Z M 171.29 105.35 L 170.70 106.16 C 170.15 106.92 170.32 107.98 171.08 108.54 C 171.83 109.09 172.90 108.93 173.46 108.17 L 174.04 107.36 C 174.60 106.60 174.43 105.53 173.67 104.98 C 172.91 104.42 171.85 104.59 171.29 105.35 Z M 170.67 106.18 L 170.09 107.00 C 169.55 107.78 169.74 108.85 170.52 109.40 C 171.30 109.94 172.38 109.75 172.92 108.97 L 173.49 108.15 C 174.04 107.37 173.85 106.29 173.07 105.75 C 172.29 105.20 171.21 105.40 170.67 106.18 Z M 170.05 107.03 L 169.50 107.87 C 168.97 108.68 169.20 109.75 170.00 110.28 C 170.80 110.81 171.88 110.58 172.41 109.78 L 172.96 108.94 C 173.49 108.13 173.27 107.05 172.46 106.53 C 171.66 106.00 170.58 106.22 170.05 107.03 Z M 169.45 107.91 L 168.98 108.67 C 168.48 109.50 168.74 110.59 169.57 111.09 C 170.40 111.60 171.49 111.34 171.99 110.51 L 172.46 109.74 C 172.97 108.91 172.70 107.83 171.87 107.32 C 171.04 106.81 169.96 107.08 169.45 107.91 Z M 168.94 108.70 L 168.48 109.49 C 167.99 110.35 168.29 111.44 169.14 111.93 C 170.00 112.42 171.09 112.13 171.58 111.27 L 172.04 110.48 C 172.53 109.62 172.24 108.53 171.38 108.04 C 170.52 107.55 169.43 107.84 168.94 108.70 Z M 168.44 109.51 L 167.98 110.35 C 167.50 111.23 167.83 112.33 168.71 112.81 C 169.59 113.29 170.69 112.97 171.17 112.09 L 171.63 111.25 C 172.11 110.37 171.78 109.27 170.90 108.79 C 170.02 108.31 168.92 108.63 168.44 109.51 Z M 167.95 110.37 L 167.48 111.27 C 167.00 112.17 167.35 113.28 168.25 113.75 C 169.15 114.22 170.26 113.87 170.74 112.97 L 171.21 112.07 C 171.68 111.17 171.33 110.06 170.43 109.59 C 169.53 109.12 168.42 109.47 167.95 110.37 Z M 167.44 111.27 L 166.95 112.24 C 166.48 113.16 166.85 114.29 167.76 114.75 C 168.68 115.22 169.81 114.85 170.27 113.94 L 170.77 112.97 C 171.24 112.05 170.87 110.92 169.95 110.46 C 169.03 109.99 167.91 110.35 167.44 111.27 Z M 166.92 112.24 L 166.43 113.22 C 165.97 114.15 166.34 115.29 167.28 115.75 C 168.21 116.22 169.34 115.84 169.81 114.91 L 170.30 113.94 C 170.77 113.00 170.39 111.87 169.46 111.40 C 168.53 110.94 167.39 111.31 166.92 112.24 Z M 166.42 113.22 L 166.04 113.98 C 165.58 114.92 165.96 116.06 166.90 116.53 C 167.83 116.99 168.97 116.61 169.44 115.67 L 169.82 114.91 C 170.29 113.97 169.91 112.83 168.97 112.37 C 168.03 111.90 166.89 112.28 166.42 113.22 Z M 166.04 113.98 L 165.64 114.78 C 165.18 115.72 165.56 116.86 166.50 117.33 C 167.44 117.80 168.58 117.41 169.04 116.47 L 169.44 115.67 C 169.91 114.73 169.53 113.59 168.59 113.13 C 167.65 112.66 166.51 113.04 166.04 113.98 Z M 165.64 114.79 L 165.22 115.63 C 164.76 116.57 165.14 117.71 166.08 118.17 C 167.02 118.64 168.16 118.26 168.63 117.32 L 169.04 116.47 C 169.51 115.53 169.13 114.39 168.19 113.93 C 167.25 113.46 166.11 113.85 165.64 114.79 Z M 165.22 115.63 L 164.79 116.51 C 164.32 117.45 164.71 118.59 165.65 119.05 C 166.59 119.52 167.72 119.14 168.19 118.20 L 168.63 117.32 C 169.09 116.38 168.71 115.24 167.77 114.77 C 166.83 114.31 165.69 114.69 165.22 115.63 Z M 164.79 116.51 L 164.33 117.43 C 163.87 118.37 164.25 119.51 165.19 119.97 C 166.13 120.44 167.27 120.05 167.74 119.11 L 168.19 118.20 C 168.66 117.26 168.27 116.12 167.33 115.65 C 166.39 115.19 165.25 115.57 164.79 116.51 Z M 164.33 117.43 L 163.86 118.38 C 163.39 119.32 163.78 120.46 164.72 120.92 C 165.66 121.39 166.80 121.01 167.26 120.07 L 167.74 119.12 C 168.20 118.18 167.82 117.04 166.88 116.57 C 165.94 116.10 164.80 116.49 164.33 117.43 Z M 163.86 118.38 L 163.37 119.36 C 162.90 120.30 163.29 121.44 164.23 121.91 C 165.16 122.38 166.31 121.99 166.77 121.05 L 167.26 120.07 C 167.73 119.13 167.35 117.99 166.41 117.52 C 165.47 117.05 164.33 117.44 163.86 118.38 Z M 163.37 119.36 L 162.86 120.38 C 162.40 121.32 162.78 122.46 163.72 122.93 C 164.66 123.39 165.80 123.01 166.26 122.07 L 166.77 121.06 C 167.24 120.12 166.86 118.98 165.92 118.51 C 164.98 118.04 163.84 118.42 163.37 119.36 Z M 162.86 120.38 L 162.43 121.24 C 161.96 122.18 162.34 123.32 163.28 123.79 C 164.22 124.26 165.36 123.88 165.83 122.95 L 166.26 122.08 C 166.73 121.14 166.35 120.00 165.41 119.53 C 164.48 119.06 163.33 119.44 162.86 120.38 Z M 162.43 121.24 L 162.02 122.06 C 161.55 123.00 161.93 124.14 162.87 124.61 C 163.81 125.08 164.95 124.70 165.42 123.76 L 165.83 122.95 C 166.30 122.01 165.92 120.87 164.98 120.40 C 164.04 119.93 162.90 120.30 162.43 121.24 Z M 162.02 122.06 L 161.60 122.89 C 161.13 123.83 161.51 124.97 162.45 125.44 C 163.39 125.91 164.53 125.54 165.00 124.60 L 165.42 123.76 C 165.89 122.83 165.51 121.68 164.57 121.21 C 163.64 120.74 162.49 121.12 162.02 122.06 Z M 161.60 122.89 L 161.17 123.74 C 160.70 124.68 161.08 125.82 162.02 126.29 C 162.95 126.77 164.10 126.39 164.57 125.45 L 165.00 124.60 C 165.47 123.66 165.09 122.52 164.16 122.05 C 163.22 121.57 162.08 121.95 161.60 122.89 Z M 161.18 123.74 L 160.74 124.61 C 160.26 125.54 160.64 126.69 161.58 127.16 C 162.52 127.63 163.66 127.26 164.13 126.32 L 164.57 125.45 C 165.04 124.51 164.67 123.37 163.73 122.90 C 162.79 122.42 161.65 122.80 161.18 123.74 Z M 160.74 124.61 L 160.29 125.49 C 159.82 126.43 160.19 127.57 161.13 128.05 C 162.07 128.52 163.21 128.14 163.68 127.21 L 164.13 126.32 C 164.60 125.38 164.23 124.24 163.29 123.77 C 162.36 123.29 161.21 123.67 160.74 124.61 Z M 160.29 125.49 L 159.83 126.39 C 159.36 127.33 159.73 128.47 160.67 128.95 C 161.61 129.42 162.75 129.05 163.23 128.11 L 163.68 127.21 C 164.16 126.27 163.78 125.13 162.85 124.65 C 161.91 124.18 160.76 124.55 160.29 125.49 Z M 159.83 126.39 L 159.37 127.31 C 158.89 128.25 159.27 129.39 160.20 129.87 C 161.14 130.34 162.28 129.97 162.76 129.03 L 163.23 128.11 C 163.70 127.18 163.33 126.03 162.39 125.56 C 161.45 125.08 160.31 125.46 159.83 126.39 Z M 159.37 127.31 L 158.89 128.25 C 158.41 129.19 158.79 130.33 159.73 130.81 C 160.66 131.28 161.81 130.91 162.28 129.97 L 162.76 129.03 C 163.23 128.10 162.86 126.95 161.92 126.48 C 160.99 126.00 159.84 126.38 159.37 127.31 Z M 158.89 128.25 L 158.40 129.21 C 157.93 130.14 158.30 131.29 159.24 131.76 C 160.17 132.24 161.32 131.87 161.80 130.93 L 162.28 129.97 C 162.76 129.04 162.38 127.89 161.45 127.42 C 160.51 126.94 159.37 127.31 158.89 128.25 Z M 158.40 129.21 L 157.91 130.18 C 157.43 131.12 157.81 132.26 158.74 132.74 C 159.68 133.21 160.82 132.84 161.30 131.90 L 161.80 130.93 C 162.27 129.99 161.90 128.85 160.96 128.37 C 160.03 127.90 158.88 128.27 158.40 129.21 Z M 157.91 130.18 L 157.45 131.07 C 156.98 132.01 157.35 133.15 158.29 133.63 C 159.22 134.11 160.37 133.73 160.84 132.80 L 161.30 131.91 C 161.78 130.97 161.40 129.82 160.47 129.35 C 159.53 128.87 158.39 129.24 157.91 130.18 Z M 157.46 131.07 L 157.03 131.90 C 156.56 132.84 156.93 133.98 157.86 134.46 C 158.80 134.94 159.94 134.57 160.42 133.63 L 160.84 132.80 C 161.32 131.86 160.95 130.72 160.01 130.24 C 159.08 129.76 157.93 130.14 157.46 131.07 Z M 157.03 131.90 L 156.60 132.74 C 156.13 133.68 156.50 134.83 157.43 135.30 C 158.37 135.78 159.51 135.41 159.99 134.47 L 160.42 133.63 C 160.90 132.69 160.53 131.55 159.59 131.07 C 158.66 130.59 157.51 130.97 157.03 131.90 Z M 156.60 132.74 L 156.17 133.60 C 155.69 134.53 156.06 135.68 157.00 136.16 C 157.93 136.63 159.08 136.26 159.55 135.33 L 159.99 134.47 C 160.47 133.54 160.10 132.39 159.16 131.92 C 158.23 131.44 157.08 131.81 156.60 132.74 Z M 156.17 133.59 L 155.73 134.46 C 155.25 135.39 155.62 136.54 156.55 137.02 C 157.49 137.50 158.63 137.13 159.11 136.19 L 159.55 135.33 C 160.03 134.39 159.66 133.25 158.73 132.77 C 157.79 132.29 156.65 132.66 156.17 133.59 Z M 155.73 134.46 L 155.28 135.33 C 154.80 136.27 155.17 137.41 156.10 137.89 C 157.03 138.37 158.18 138.00 158.66 137.07 L 159.11 136.19 C 159.59 135.26 159.22 134.11 158.29 133.63 C 157.35 133.15 156.21 133.52 155.73 134.46 Z M 155.28 135.33 L 154.82 136.21 C 154.34 137.15 154.71 138.29 155.64 138.77 C 156.58 139.26 157.72 138.89 158.20 137.96 L 158.66 137.07 C 159.14 136.14 158.77 134.99 157.84 134.51 C 156.91 134.03 155.76 134.40 155.28 135.33 Z M 154.82 136.21 L 154.36 137.11 C 153.88 138.04 154.25 139.19 155.18 139.67 C 156.11 140.15 157.26 139.78 157.74 138.85 L 158.20 137.96 C 158.68 137.03 158.32 135.88 157.39 135.40 C 156.45 134.91 155.31 135.28 154.82 136.21 Z M 154.36 137.10 L 153.90 138.01 C 153.41 138.94 153.77 140.09 154.71 140.57 C 155.64 141.05 156.79 140.69 157.27 139.76 L 157.74 138.85 C 158.22 137.92 157.86 136.78 156.93 136.29 C 156.00 135.81 154.85 136.17 154.36 137.10 Z M 153.90 138.00 L 153.42 138.91 C 152.94 139.85 153.30 140.99 154.23 141.48 C 155.16 141.96 156.31 141.60 156.79 140.67 L 157.27 139.76 C 157.75 138.83 157.39 137.68 156.46 137.20 C 155.53 136.71 154.38 137.07 153.90 138.00 Z M 153.42 138.91 L 152.94 139.83 C 152.45 140.76 152.81 141.91 153.74 142.40 C 154.67 142.88 155.82 142.53 156.31 141.60 L 156.79 140.68 C 157.28 139.75 156.92 138.60 155.99 138.11 C 155.06 137.62 153.91 137.98 153.42 138.91 Z M 152.94 139.83 L 152.46 140.76 C 151.97 141.68 152.32 142.83 153.25 143.32 C 154.18 143.81 155.33 143.46 155.82 142.53 L 156.31 141.60 C 156.80 140.67 156.44 139.52 155.51 139.03 C 154.58 138.54 153.43 138.90 152.94 139.83 Z M 152.46 140.75 L 151.96 141.69 C 151.47 142.61 151.83 143.76 152.75 144.26 C 153.68 144.75 154.83 144.39 155.32 143.46 L 155.82 142.53 C 156.31 141.60 155.95 140.45 155.03 139.96 C 154.10 139.47 152.95 139.82 152.46 140.75 Z M 151.96 141.68 L 151.47 142.62 C 150.97 143.55 151.32 144.70 152.25 145.19 C 153.18 145.68 154.33 145.33 154.82 144.40 L 155.32 143.47 C 155.81 142.54 155.46 141.39 154.53 140.90 C 153.61 140.41 152.46 140.76 151.96 141.68 Z M 151.47 142.62 L 151.02 143.46 C 150.52 144.39 150.87 145.54 151.79 146.03 C 152.72 146.53 153.87 146.18 154.37 145.25 L 154.82 144.41 C 155.31 143.48 154.97 142.33 154.04 141.84 C 153.12 141.34 151.96 141.69 151.47 142.62 Z M 151.02 143.46 L 150.56 144.31 C 150.06 145.23 150.41 146.38 151.33 146.88 C 152.26 147.38 153.41 147.03 153.91 146.11 L 154.36 145.26 C 154.86 144.33 154.52 143.18 153.59 142.68 C 152.67 142.19 151.52 142.53 151.02 143.46 Z M 150.56 144.30 L 150.10 145.16 C 149.60 146.08 149.95 147.23 150.87 147.73 C 151.79 148.23 152.94 147.89 153.44 146.97 L 153.90 146.11 C 154.40 145.19 154.06 144.04 153.14 143.54 C 152.22 143.04 151.06 143.38 150.56 144.30 Z M 150.10 145.15 L 149.64 146.01 C 149.13 146.93 149.47 148.09 150.40 148.59 C 151.32 149.09 152.47 148.75 152.97 147.83 L 153.44 146.97 C 153.94 146.05 153.60 144.89 152.68 144.39 C 151.76 143.89 150.61 144.23 150.10 145.15 Z M 149.64 146.01 L 149.17 146.87 C 148.66 147.79 149.00 148.94 149.92 149.45 C 150.84 149.95 151.99 149.61 152.50 148.70 L 152.97 147.83 C 153.47 146.91 153.14 145.76 152.22 145.25 C 151.30 144.75 150.14 145.09 149.64 146.01 Z M 149.17 146.87 L 148.69 147.73 C 148.18 148.65 148.52 149.81 149.44 150.31 C 150.35 150.82 151.51 150.48 152.02 149.57 L 152.49 148.70 C 153.00 147.78 152.67 146.63 151.75 146.12 C 150.83 145.61 149.67 145.95 149.17 146.87 Z M 148.69 147.73 L 148.21 148.60 C 147.70 149.52 148.03 150.67 148.95 151.18 C 149.87 151.69 151.02 151.36 151.53 150.44 L 152.01 149.57 C 152.52 148.65 152.19 147.50 151.27 146.99 C 150.36 146.48 149.20 146.81 148.69 147.73 Z M 148.21 148.60 L 147.72 149.47 C 147.21 150.39 147.54 151.54 148.46 152.05 C 149.37 152.56 150.53 152.24 151.04 151.32 L 151.53 150.45 C 152.04 149.53 151.71 148.38 150.79 147.86 C 149.88 147.35 148.72 147.68 148.21 148.60 Z M 147.73 149.47 L 147.23 150.34 C 146.72 151.26 147.04 152.41 147.96 152.93 C 148.87 153.44 150.03 153.12 150.54 152.20 L 151.03 151.33 C 151.55 150.41 151.22 149.26 150.31 148.74 C 149.40 148.23 148.24 148.55 147.73 149.47 Z M 147.24 150.34 L 146.74 151.22 C 146.22 152.13 146.54 153.29 147.45 153.80 C 148.37 154.32 149.52 154.00 150.04 153.09 L 150.54 152.21 C 151.05 151.30 150.73 150.14 149.82 149.62 C 148.91 149.11 147.75 149.43 147.24 150.34 Z M 146.74 151.22 L 146.24 152.10 C 145.72 153.01 146.04 154.17 146.95 154.69 C 147.86 155.20 149.01 154.89 149.53 153.98 L 150.04 153.09 C 150.55 152.18 150.24 151.03 149.33 150.51 C 148.42 149.99 147.26 150.31 146.74 151.22 Z M 146.24 152.09 L 145.73 152.98 C 145.21 153.89 145.52 155.05 146.43 155.57 C 147.34 156.09 148.50 155.78 149.02 154.87 L 149.53 153.98 C 150.05 153.07 149.74 151.92 148.83 151.39 C 147.92 150.87 146.76 151.19 146.24 152.09 Z M 145.73 152.98 L 145.22 153.86 C 144.70 154.77 145.01 155.93 145.91 156.45 C 146.82 156.98 147.98 156.67 148.50 155.76 L 149.02 154.87 C 149.54 153.97 149.23 152.81 148.32 152.28 C 147.42 151.76 146.26 152.07 145.73 152.98 Z M 145.22 153.86 L 144.70 154.75 C 144.18 155.65 144.48 156.82 145.39 157.34 C 146.29 157.87 147.45 157.56 147.98 156.66 L 148.50 155.77 C 149.03 154.86 148.72 153.70 147.82 153.18 C 146.91 152.65 145.75 152.96 145.22 153.86 Z M 144.71 154.75 L 144.18 155.64 C 143.65 156.54 143.96 157.70 144.86 158.23 C 145.76 158.76 146.92 158.46 147.45 157.56 L 147.98 156.66 C 148.51 155.76 148.20 154.60 147.30 154.07 C 146.40 153.54 145.24 153.84 144.71 154.75 Z M 144.19 155.63 L 143.68 156.49 C 143.15 157.39 143.45 158.55 144.35 159.08 C 145.25 159.61 146.41 159.32 146.94 158.42 L 147.45 157.56 C 147.98 156.66 147.68 155.50 146.78 154.97 C 145.88 154.44 144.72 154.73 144.19 155.63 Z M 143.69 156.48 L 143.18 157.33 C 142.64 158.23 142.94 159.39 143.84 159.93 C 144.73 160.46 145.90 160.17 146.43 159.27 L 146.94 158.42 C 147.47 157.52 147.18 156.36 146.28 155.82 C 145.38 155.29 144.22 155.58 143.69 156.48 Z M 143.18 157.32 L 142.67 158.17 C 142.13 159.07 142.42 160.23 143.32 160.77 C 144.22 161.31 145.38 161.02 145.92 160.12 L 146.43 159.27 C 146.97 158.38 146.68 157.22 145.78 156.68 C 144.89 156.14 143.72 156.43 143.18 157.32 Z M 142.68 158.17 L 142.16 159.02 C 141.62 159.91 141.91 161.08 142.80 161.62 C 143.69 162.16 144.86 161.87 145.40 160.98 L 145.91 160.13 C 146.46 159.24 146.17 158.07 145.28 157.53 C 144.38 156.99 143.22 157.27 142.68 158.17 Z M 142.17 159.01 L 141.65 159.87 C 141.10 160.76 141.38 161.92 142.28 162.47 C 143.17 163.01 144.33 162.73 144.88 161.84 L 145.40 160.98 C 145.94 160.09 145.66 158.93 144.77 158.38 C 143.87 157.84 142.71 158.12 142.17 159.01 Z M 141.65 159.86 L 141.13 160.71 C 140.58 161.60 140.86 162.77 141.75 163.31 C 142.64 163.86 143.80 163.58 144.35 162.69 L 144.87 161.84 C 145.42 160.95 145.14 159.79 144.25 159.24 C 143.36 158.69 142.20 158.97 141.65 159.86 Z M 141.13 160.71 L 140.60 161.56 C 140.05 162.44 140.33 163.61 141.22 164.16 C 142.10 164.71 143.27 164.44 143.82 163.55 L 144.35 162.70 C 144.90 161.81 144.62 160.64 143.73 160.09 C 142.85 159.54 141.68 159.82 141.13 160.71 Z M 140.61 161.55 L 140.08 162.40 C 139.52 163.29 139.79 164.45 140.68 165.01 C 141.57 165.56 142.73 165.29 143.28 164.40 L 143.82 163.55 C 144.37 162.67 144.10 161.50 143.21 160.95 C 142.33 160.40 141.16 160.67 140.61 161.55 Z M 140.08 162.40 L 139.55 163.25 C 138.99 164.13 139.26 165.30 140.14 165.85 C 141.02 166.41 142.19 166.14 142.75 165.26 L 143.28 164.41 C 143.84 163.53 143.57 162.36 142.69 161.80 C 141.80 161.25 140.64 161.51 140.08 162.40 Z M 139.55 163.24 L 139.01 164.09 C 138.45 164.97 138.72 166.14 139.60 166.70 C 140.48 167.26 141.65 166.99 142.20 166.11 L 142.74 165.26 C 143.30 164.38 143.04 163.22 142.16 162.66 C 141.28 162.10 140.11 162.36 139.55 163.24 Z M 139.02 164.08 L 138.48 164.93 C 137.91 165.81 138.17 166.98 139.05 167.54 C 139.93 168.10 141.10 167.84 141.66 166.96 L 142.20 166.12 C 142.76 165.24 142.50 164.07 141.63 163.51 C 140.75 162.95 139.58 163.21 139.02 164.08 Z M 138.48 164.93 L 137.94 165.77 C 137.37 166.65 137.62 167.82 138.50 168.38 C 139.38 168.95 140.55 168.69 141.11 167.82 L 141.66 166.97 C 142.22 166.09 141.97 164.92 141.09 164.36 C 140.21 163.80 139.04 164.05 138.48 164.93 Z M 137.94 165.77 L 137.39 166.61 C 136.82 167.48 137.07 168.65 137.95 169.22 C 138.82 169.79 139.99 169.54 140.56 168.67 L 141.11 167.82 C 141.67 166.95 141.43 165.78 140.55 165.21 C 139.68 164.64 138.51 164.89 137.94 165.77 Z M 137.40 166.60 L 136.85 167.45 C 136.28 168.32 136.52 169.49 137.39 170.06 C 138.26 170.63 139.43 170.38 140.00 169.51 L 140.56 168.67 C 141.13 167.80 140.88 166.63 140.01 166.06 C 139.14 165.49 137.97 165.73 137.40 166.60 Z M 136.85 167.44 L 136.30 168.28 C 135.72 169.15 135.96 170.32 136.83 170.89 C 137.70 171.47 138.87 171.23 139.45 170.36 L 140.00 169.52 C 140.57 168.65 140.33 167.48 139.46 166.90 C 138.59 166.33 137.42 166.57 136.85 167.44 Z M 136.30 168.27 L 135.75 169.11 C 135.17 169.98 135.40 171.15 136.27 171.73 C 137.14 172.30 138.31 172.07 138.89 171.20 L 139.44 170.36 C 140.02 169.50 139.78 168.32 138.92 167.75 C 138.05 167.17 136.88 167.41 136.30 168.27 Z M 135.75 169.10 L 135.19 169.94 C 134.61 170.80 134.84 171.98 135.71 172.56 C 136.57 173.14 137.74 172.91 138.32 172.04 L 138.88 171.20 C 139.46 170.34 139.23 169.17 138.37 168.59 C 137.50 168.01 136.33 168.24 135.75 169.10 Z M 135.19 169.93 L 134.63 170.77 C 134.05 171.63 134.27 172.80 135.14 173.38 C 136.00 173.97 137.17 173.74 137.76 172.88 L 138.32 172.05 C 138.90 171.18 138.67 170.01 137.81 169.43 C 136.95 168.84 135.78 169.07 135.19 169.93 Z M 134.63 170.76 L 134.07 171.59 C 133.48 172.45 133.71 173.62 134.57 174.21 C 135.43 174.80 136.60 174.57 137.19 173.71 L 137.75 172.88 C 138.34 172.02 138.12 170.85 137.25 170.26 C 136.39 169.68 135.22 169.90 134.63 170.76 Z M 134.07 171.59 L 133.51 172.41 C 132.92 173.27 133.14 174.44 133.99 175.03 C 134.85 175.62 136.03 175.40 136.62 174.55 L 137.18 173.72 C 137.77 172.86 137.55 171.69 136.69 171.10 C 135.84 170.51 134.66 170.73 134.07 171.59 Z M 133.51 172.41 L 132.94 173.23 C 132.35 174.09 132.56 175.26 133.42 175.85 C 134.28 176.45 135.45 176.23 136.04 175.38 L 136.61 174.55 C 137.20 173.69 136.99 172.52 136.13 171.93 C 135.28 171.34 134.10 171.55 133.51 172.41 Z M 132.94 173.23 L 132.37 174.05 C 131.78 174.90 131.99 176.08 132.84 176.67 C 133.70 177.27 134.87 177.06 135.47 176.20 L 136.04 175.38 C 136.63 174.53 136.42 173.35 135.57 172.76 C 134.71 172.16 133.54 172.37 132.94 173.23 Z M 132.38 174.04 L 131.80 174.86 C 131.20 175.72 131.41 176.89 132.26 177.49 C 133.12 178.09 134.29 177.88 134.89 177.03 L 135.46 176.21 C 136.06 175.35 135.85 174.18 135.00 173.58 C 134.15 172.98 132.97 173.19 132.38 174.04 Z M 131.80 174.86 L 131.23 175.68 C 130.63 176.53 130.83 177.70 131.68 178.30 C 132.54 178.90 133.71 178.70 134.31 177.85 L 134.89 177.03 C 135.49 176.18 135.28 175.00 134.43 174.40 C 133.58 173.81 132.40 174.01 131.80 174.86 Z M 131.23 175.67 L 130.65 176.49 C 130.05 177.34 130.25 178.51 131.10 179.12 C 131.95 179.72 133.13 179.52 133.73 178.67 L 134.31 177.85 C 134.91 177.00 134.71 175.83 133.86 175.22 C 133.01 174.62 131.83 174.82 131.23 175.67 Z M 130.66 176.48 L 130.08 177.30 C 129.47 178.15 129.67 179.32 130.52 179.93 C 131.37 180.53 132.54 180.33 133.15 179.48 L 133.73 178.67 C 134.33 177.82 134.13 176.65 133.29 176.04 C 132.44 175.44 131.26 175.64 130.66 176.48 Z M 130.08 177.29 L 129.50 178.11 C 128.89 178.95 129.09 180.13 129.93 180.74 C 130.78 181.34 131.96 181.15 132.56 180.30 L 133.14 179.49 C 133.75 178.64 133.56 177.46 132.71 176.86 C 131.86 176.25 130.69 176.45 130.08 177.29 Z M 129.50 178.10 L 128.92 178.91 C 128.31 179.76 128.50 180.93 129.35 181.54 C 130.19 182.15 131.37 181.96 131.98 181.11 L 132.56 180.30 C 133.17 179.46 132.98 178.28 132.13 177.67 C 131.29 177.07 130.11 177.26 129.50 178.10 Z M 128.92 178.91 L 128.34 179.72 C 127.73 180.56 127.92 181.74 128.76 182.35 C 129.61 182.96 130.78 182.77 131.39 181.92 L 131.98 181.12 C 132.59 180.27 132.40 179.09 131.55 178.49 C 130.71 177.88 129.53 178.07 128.92 178.91 Z M 128.34 179.71 L 127.76 180.52 C 127.14 181.36 127.33 182.54 128.17 183.15 C 129.02 183.76 130.19 183.58 130.80 182.73 L 131.39 181.93 C 132.00 181.08 131.81 179.91 130.97 179.30 C 130.13 178.69 128.95 178.87 128.34 179.71 Z M 127.76 180.52 L 127.17 181.32 C 126.56 182.17 126.74 183.34 127.58 183.96 C 128.43 184.57 129.60 184.38 130.22 183.54 L 130.80 182.74 C 131.42 181.90 131.23 180.72 130.39 180.10 C 129.55 179.49 128.37 179.68 127.76 180.52 Z M 127.17 181.32 L 126.59 182.13 C 125.97 182.97 126.15 184.14 126.99 184.76 C 127.83 185.37 129.01 185.19 129.63 184.35 L 130.21 183.54 C 130.83 182.70 130.64 181.53 129.80 180.91 C 128.96 180.30 127.79 180.48 127.17 181.32 Z M 126.59 182.12 L 125.97 182.97 C 125.36 183.80 125.54 184.98 126.38 185.60 C 127.22 186.21 128.39 186.03 129.01 185.19 L 129.62 184.35 C 130.24 183.51 130.06 182.33 129.22 181.72 C 128.38 181.10 127.20 181.29 126.59 182.12 Z M 125.97 182.96 L 125.35 183.81 C 124.74 184.64 124.92 185.82 125.76 186.44 C 126.59 187.05 127.77 186.87 128.39 186.04 L 129.00 185.19 C 129.62 184.36 129.44 183.18 128.60 182.56 C 127.77 181.95 126.59 182.13 125.97 182.96 Z M 125.36 183.81 L 124.74 184.65 C 124.12 185.48 124.30 186.66 125.14 187.27 C 125.97 187.89 127.15 187.71 127.76 186.88 L 128.38 186.04 C 129.00 185.20 128.82 184.02 127.98 183.41 C 127.15 182.79 125.97 182.97 125.36 183.81 Z M 124.74 184.65 L 124.12 185.48 C 123.51 186.32 123.68 187.49 124.52 188.11 C 125.35 188.72 126.53 188.55 127.14 187.71 L 127.76 186.88 C 128.38 186.04 128.20 184.87 127.37 184.25 C 126.53 183.64 125.36 183.81 124.74 184.65 Z M 124.13 185.48 L 123.51 186.31 C 122.89 187.15 123.07 188.32 123.90 188.94 C 124.73 189.55 125.91 189.38 126.52 188.55 L 127.14 187.71 C 127.76 186.88 127.58 185.71 126.75 185.09 C 125.92 184.48 124.74 184.65 124.13 185.48 Z M 123.51 186.31 L 122.90 187.14 C 122.28 187.97 122.46 189.14 123.29 189.76 C 124.12 190.38 125.29 190.20 125.91 189.37 L 126.52 188.55 C 127.14 187.71 126.96 186.54 126.13 185.93 C 125.30 185.31 124.13 185.48 123.51 186.31 Z M 122.90 187.14 L 122.29 187.96 C 121.68 188.79 121.85 189.96 122.68 190.58 C 123.51 191.19 124.68 191.02 125.30 190.19 L 125.91 189.37 C 126.52 188.54 126.35 187.37 125.52 186.75 C 124.69 186.14 123.52 186.31 122.90 187.14 Z M 122.30 187.96 L 121.69 188.77 C 121.08 189.60 121.25 190.77 122.08 191.39 C 122.90 192.00 124.07 191.83 124.69 191.00 L 125.29 190.19 C 125.91 189.36 125.74 188.19 124.91 187.58 C 124.08 186.96 122.91 187.13 122.30 187.96 Z M 121.69 188.78 L 121.10 189.58 C 120.48 190.41 120.65 191.58 121.48 192.19 C 122.30 192.81 123.47 192.63 124.09 191.81 L 124.69 191.00 C 125.30 190.18 125.13 189.01 124.30 188.39 C 123.48 187.78 122.31 187.95 121.69 188.78 Z M 121.10 189.58 L 120.50 190.38 C 119.89 191.20 120.06 192.37 120.89 192.99 C 121.71 193.60 122.88 193.43 123.49 192.60 L 124.09 191.81 C 124.70 190.98 124.53 189.81 123.70 189.20 C 122.88 188.58 121.71 188.76 121.10 189.58 Z M 120.51 190.38 L 119.92 191.16 C 119.31 191.99 119.48 193.16 120.30 193.77 C 121.13 194.38 122.29 194.21 122.91 193.39 L 123.49 192.60 C 124.11 191.78 123.94 190.61 123.11 190.00 C 122.29 189.38 121.12 189.55 120.51 190.38 Z M 119.92 191.17 L 119.34 191.94 C 118.73 192.77 118.90 193.93 119.73 194.54 C 120.55 195.16 121.71 194.99 122.33 194.16 L 122.91 193.39 C 123.52 192.56 123.35 191.40 122.52 190.79 C 121.70 190.17 120.54 190.34 119.92 191.17 Z M 119.35 191.94 L 118.78 192.71 C 118.16 193.53 118.33 194.69 119.16 195.31 C 119.98 195.92 121.14 195.75 121.76 194.93 L 122.33 194.16 C 122.94 193.34 122.77 192.17 121.95 191.56 C 121.12 190.95 119.96 191.12 119.35 191.94 Z M 118.78 192.71 L 118.22 193.46 C 117.61 194.28 117.78 195.44 118.60 196.06 C 119.42 196.67 120.58 196.50 121.20 195.68 L 121.76 194.92 C 122.37 194.10 122.20 192.94 121.37 192.33 C 120.55 191.72 119.39 191.89 118.78 192.71 Z M 118.22 193.46 L 117.67 194.20 C 117.06 195.02 117.23 196.18 118.05 196.79 C 118.87 197.40 120.04 197.23 120.65 196.41 L 121.20 195.67 C 121.81 194.85 121.63 193.69 120.81 193.08 C 119.99 192.47 118.83 192.64 118.22 193.46 Z M 117.67 194.20 L 117.04 195.05 C 116.43 195.88 116.60 197.03 117.42 197.64 C 118.25 198.25 119.40 198.08 120.01 197.26 L 120.64 196.41 C 121.25 195.59 121.08 194.43 120.26 193.82 C 119.44 193.21 118.28 193.38 117.67 194.20 Z M 117.04 195.06 L 116.39 195.94 C 115.79 196.76 115.96 197.91 116.78 198.52 C 117.60 199.13 118.76 198.95 119.36 198.13 L 120.01 197.26 C 120.62 196.44 120.45 195.28 119.63 194.67 C 118.81 194.07 117.65 194.24 117.04 195.06 Z M 116.40 195.94 L 115.76 196.80 C 115.16 197.62 115.33 198.77 116.15 199.38 C 116.97 199.98 118.12 199.80 118.73 198.99 L 119.36 198.13 C 119.96 197.31 119.79 196.16 118.97 195.55 C 118.15 194.95 117.00 195.12 116.40 195.94 Z M 115.76 196.81 L 115.15 197.65 C 114.55 198.46 114.72 199.62 115.54 200.22 C 116.36 200.82 117.51 200.64 118.11 199.82 L 118.73 198.98 C 119.33 198.16 119.15 197.01 118.33 196.41 C 117.51 195.81 116.36 195.99 115.76 196.81 Z M 115.15 197.65 L 114.55 198.48 C 113.95 199.30 114.13 200.44 114.95 201.04 C 115.77 201.64 116.91 201.46 117.51 200.64 L 118.11 199.81 C 118.71 198.99 118.53 197.85 117.71 197.25 C 116.89 196.66 115.74 196.84 115.15 197.65 Z M 114.54 198.49 L 113.96 199.30 C 113.37 200.12 113.55 201.26 114.37 201.85 C 115.19 202.45 116.33 202.26 116.92 201.44 L 117.51 200.63 C 118.10 199.81 117.92 198.67 117.10 198.08 C 116.28 197.49 115.14 197.67 114.54 198.49 Z M 113.96 199.31 L 113.38 200.11 C 112.79 200.93 112.98 202.07 113.80 202.66 C 114.62 203.24 115.76 203.06 116.35 202.24 L 116.92 201.43 C 117.51 200.62 117.32 199.48 116.50 198.89 C 115.68 198.30 114.54 198.49 113.96 199.31 Z M 113.38 200.12 L 112.82 200.91 C 112.24 201.73 112.43 202.87 113.25 203.45 C 114.07 204.03 115.21 203.84 115.79 203.02 L 116.35 202.23 C 116.93 201.41 116.74 200.27 115.92 199.69 C 115.10 199.11 113.96 199.30 113.38 200.12 Z M 112.82 200.92 L 112.27 201.71 C 111.69 202.53 111.89 203.66 112.71 204.24 C 113.53 204.81 114.67 204.61 115.24 203.79 L 115.79 203.01 C 116.37 202.19 116.17 201.05 115.35 200.48 C 114.52 199.90 113.39 200.10 112.82 200.92 Z M 112.26 201.72 L 111.73 202.50 C 111.16 203.32 111.36 204.45 112.19 205.02 C 113.01 205.59 114.14 205.38 114.71 204.56 L 115.25 203.78 C 115.81 202.96 115.61 201.83 114.78 201.26 C 113.96 200.69 112.83 200.90 112.26 201.72 Z M 111.72 202.51 L 111.20 203.29 C 110.63 204.11 110.85 205.24 111.67 205.80 C 112.50 206.36 113.62 206.15 114.18 205.32 L 114.71 204.55 C 115.27 203.72 115.06 202.60 114.23 202.03 C 113.41 201.47 112.28 201.69 111.72 202.51 Z M 111.19 203.30 L 110.67 204.07 C 110.12 204.90 110.34 206.02 111.17 206.58 C 112.00 207.13 113.12 206.91 113.67 206.08 L 114.19 205.31 C 114.74 204.48 114.52 203.36 113.69 202.80 C 112.87 202.25 111.74 202.47 111.19 203.30 Z M 110.67 204.09 L 110.13 204.91 C 109.59 205.74 109.82 206.85 110.65 207.40 C 111.48 207.94 112.59 207.71 113.14 206.88 L 113.68 206.06 C 114.22 205.23 113.99 204.12 113.16 203.57 C 112.33 203.03 111.21 203.26 110.67 204.09 Z M 110.13 204.92 L 109.57 205.79 C 109.03 206.62 109.27 207.73 110.11 208.27 C 110.94 208.80 112.05 208.56 112.59 207.73 L 113.14 206.87 C 113.68 206.03 113.44 204.92 112.61 204.39 C 111.77 203.85 110.66 204.09 110.13 204.92 Z M 109.57 205.81 L 109.02 206.67 C 108.49 207.50 108.74 208.61 109.58 209.14 C 110.41 209.66 111.51 209.41 112.04 208.58 L 112.59 207.71 C 113.12 206.88 112.87 205.78 112.03 205.25 C 111.20 204.72 110.09 204.97 109.57 205.81 Z M 109.02 206.69 L 108.48 207.55 C 107.96 208.39 108.22 209.48 109.06 210.00 C 109.89 210.52 110.99 210.26 111.51 209.43 L 112.04 208.56 C 112.56 207.73 112.31 206.63 111.47 206.11 C 110.63 205.59 109.54 205.85 109.02 206.69 Z M 108.48 207.57 L 107.95 208.43 C 107.44 209.27 107.71 210.36 108.55 210.87 C 109.38 211.38 110.47 211.11 110.98 210.28 L 111.51 209.41 C 112.02 208.58 111.76 207.48 110.92 206.97 C 110.08 206.46 108.99 206.73 108.48 207.57 Z M 107.95 208.44 L 107.44 209.31 C 106.93 210.14 107.21 211.23 108.04 211.73 C 108.88 212.23 109.97 211.96 110.47 211.12 L 110.99 210.26 C 111.49 209.42 111.22 208.34 110.38 207.84 C 109.54 207.33 108.45 207.61 107.95 208.44 Z M 107.44 209.32 L 106.93 210.18 C 106.43 211.02 106.71 212.10 107.55 212.59 C 108.39 213.09 109.47 212.81 109.96 211.97 L 110.47 211.11 C 110.96 210.27 110.69 209.19 109.85 208.70 C 109.01 208.20 107.93 208.48 107.44 209.32 Z M 106.93 210.19 L 106.43 211.05 C 105.94 211.89 106.23 212.96 107.07 213.45 C 107.90 213.94 108.98 213.65 109.47 212.81 L 109.96 211.96 C 110.45 211.12 110.17 210.04 109.33 209.56 C 108.49 209.07 107.41 209.35 106.93 210.19 Z M 106.43 211.06 L 105.94 211.91 C 105.46 212.75 105.75 213.82 106.59 214.30 C 107.43 214.78 108.50 214.49 108.98 213.65 L 109.47 212.80 C 109.95 211.96 109.66 210.89 108.82 210.41 C 107.98 209.93 106.91 210.22 106.43 211.06 Z M 105.94 211.92 L 105.46 212.77 C 104.99 213.61 105.28 214.68 106.12 215.15 C 106.96 215.62 108.02 215.33 108.49 214.49 L 108.98 213.64 C 109.45 212.80 109.16 211.74 108.32 211.27 C 107.48 210.79 106.42 211.09 105.94 211.92 Z M 105.46 212.78 L 104.99 213.63 C 104.52 214.47 104.82 215.53 105.66 215.99 C 106.49 216.46 107.55 216.16 108.02 215.33 L 108.49 214.48 C 108.96 213.64 108.66 212.59 107.83 212.12 C 106.99 211.65 105.93 211.95 105.46 212.78 Z M 104.99 213.64 L 104.50 214.52 C 104.04 215.36 104.34 216.41 105.18 216.88 C 106.01 217.34 107.07 217.04 107.53 216.20 L 108.02 215.32 C 108.48 214.48 108.18 213.43 107.34 212.96 C 106.51 212.50 105.45 212.80 104.99 213.64 Z M 104.50 214.53 L 104.00 215.44 C 103.54 216.28 103.85 217.33 104.68 217.79 C 105.52 218.25 106.57 217.94 107.03 217.10 L 107.53 216.19 C 107.99 215.35 107.68 214.30 106.85 213.85 C 106.01 213.39 104.96 213.69 104.50 214.53 Z M 104.00 215.45 L 103.51 216.36 C 103.05 217.19 103.36 218.24 104.20 218.69 C 105.04 219.15 106.08 218.84 106.54 218.00 L 107.03 217.10 C 107.49 216.26 107.18 215.21 106.34 214.76 C 105.50 214.30 104.45 214.61 104.00 215.45 Z M 103.51 216.36 L 103.02 217.26 C 102.57 218.10 102.88 219.14 103.72 219.59 C 104.56 220.04 105.60 219.73 106.05 218.89 L 106.54 218.00 C 106.99 217.16 106.68 216.12 105.84 215.66 C 105.00 215.21 103.96 215.53 103.51 216.36 Z M 103.02 217.26 L 102.55 218.15 C 102.10 218.99 102.41 220.03 103.25 220.48 C 104.08 220.93 105.13 220.62 105.58 219.78 L 106.05 218.89 C 106.50 218.05 106.19 217.01 105.35 216.56 C 104.52 216.11 103.47 216.43 103.02 217.26 Z M 102.55 218.16 L 102.08 219.04 C 101.63 219.88 101.95 220.91 102.78 221.36 C 103.62 221.81 104.66 221.49 105.10 220.66 L 105.57 219.78 C 106.02 218.94 105.71 217.90 104.87 217.45 C 104.03 217.01 103.00 217.32 102.55 218.16 Z M 102.08 219.04 L 101.61 219.92 C 101.17 220.75 101.48 221.79 102.32 222.23 C 103.15 222.68 104.19 222.36 104.63 221.53 L 105.10 220.65 C 105.55 219.82 105.23 218.78 104.40 218.34 C 103.56 217.89 102.52 218.21 102.08 219.04 Z M 101.62 219.92 L 101.16 220.78 C 100.71 221.61 101.03 222.65 101.86 223.09 C 102.69 223.54 103.73 223.22 104.17 222.39 L 104.63 221.53 C 105.08 220.69 104.76 219.66 103.93 219.21 C 103.10 218.77 102.06 219.08 101.62 219.92 Z M 101.16 220.78 L 100.70 221.63 C 100.26 222.47 100.57 223.50 101.40 223.94 C 102.23 224.39 103.27 224.07 103.71 223.24 L 104.17 222.39 C 104.61 221.56 104.30 220.53 103.47 220.08 C 102.64 219.64 101.60 219.95 101.16 220.78 Z M 100.71 221.63 L 100.25 222.48 C 99.81 223.31 100.12 224.34 100.95 224.78 C 101.78 225.23 102.81 224.92 103.25 224.09 L 103.71 223.24 C 104.15 222.42 103.84 221.38 103.01 220.94 C 102.18 220.49 101.15 220.81 100.71 221.63 Z M 100.26 222.47 L 99.78 223.35 C 99.34 224.18 99.65 225.21 100.47 225.66 C 101.30 226.10 102.33 225.79 102.78 224.97 L 103.25 224.09 C 103.70 223.26 103.39 222.23 102.56 221.79 C 101.74 221.34 100.70 221.65 100.26 222.47 Z M 99.79 223.35 L 99.30 224.25 C 98.85 225.07 99.15 226.11 99.98 226.55 C 100.80 227.00 101.84 226.70 102.28 225.87 L 102.77 224.97 C 103.22 224.15 102.92 223.12 102.09 222.67 C 101.27 222.22 100.24 222.52 99.79 223.35 Z M 99.30 224.25 L 98.81 225.14 C 98.36 225.96 98.66 226.99 99.49 227.44 C 100.31 227.89 101.34 227.59 101.79 226.77 L 102.28 225.88 C 102.73 225.05 102.43 224.02 101.61 223.57 C 100.78 223.12 99.75 223.42 99.30 224.25 Z M 98.81 225.13 L 98.33 226.01 C 97.87 226.84 98.17 227.87 99.00 228.32 C 99.82 228.78 100.85 228.48 101.31 227.65 L 101.79 226.77 C 102.25 225.95 101.95 224.91 101.12 224.46 C 100.30 224.01 99.27 224.31 98.81 225.13 Z M 98.33 226.01 L 97.84 226.88 C 97.39 227.71 97.69 228.74 98.51 229.20 C 99.33 229.65 100.37 229.35 100.82 228.53 L 101.31 227.66 C 101.76 226.83 101.46 225.80 100.64 225.34 C 99.82 224.89 98.78 225.19 98.33 226.01 Z M 97.85 226.88 L 97.36 227.75 C 96.91 228.57 97.20 229.61 98.03 230.06 C 98.85 230.52 99.88 230.22 100.34 229.40 L 100.82 228.53 C 101.28 227.71 100.98 226.68 100.16 226.22 C 99.34 225.76 98.30 226.06 97.85 226.88 Z M 97.36 227.75 L 96.88 228.61 C 96.43 229.43 96.72 230.47 97.54 230.93 C 98.37 231.38 99.40 231.09 99.86 230.27 L 100.34 229.40 C 100.80 228.58 100.50 227.55 99.68 227.09 C 98.86 226.63 97.82 226.92 97.36 227.75 Z M 96.88 228.61 L 96.40 229.47 C 95.95 230.29 96.24 231.33 97.06 231.78 C 97.88 232.24 98.92 231.95 99.38 231.13 L 99.86 230.27 C 100.32 229.45 100.02 228.41 99.20 227.95 C 98.38 227.49 97.34 227.79 96.88 228.61 Z M 96.40 229.47 L 95.93 230.32 C 95.47 231.14 95.76 232.18 96.58 232.64 C 97.40 233.10 98.44 232.81 98.90 231.99 L 99.38 231.13 C 99.84 230.31 99.55 229.27 98.72 228.81 C 97.90 228.35 96.86 228.64 96.40 229.47 Z M 95.93 230.32 L 95.66 230.80 C 95.20 231.63 95.49 232.66 96.31 233.12 C 97.13 233.58 98.17 233.29 98.63 232.47 L 98.90 231.99 C 99.36 231.16 99.07 230.13 98.25 229.67 C 97.42 229.21 96.39 229.50 95.93 230.32 Z"
      fill="black"
      fill-rule="nonzero" /></svg>