<svg xmlns="http://www.w3.org/2000/svg" width="300" height="300" viewBox="0 0 300 300">
<path d="M 140.07 99.37 L 140.40 100.19 C 140.71 100.96 141.58 101.33 142.35 101.02 C 143.11 100.72 143.48 99.85 143.18 99.08 L 142.85 98.26 C 142.54 97.49 141.67 97.12 140.91 97.43 C 140.14 97.74 139.77 98.60 140.07 99.37 Z M 140.34 100.15 L 140.65 101.04 C 140.93 101.84 141.81 102.26 142.61 101.98 C 143.42 101.70 143.84 100.82 143.56 100.02 L 143.25 99.13 C 142.96 98.32 142.08 97.90 141.28 98.18 C 140.48 98.47 140.05 99.35 140.34 100.15 Z M 140.57 100.94 L 140.85 101.96 C 141.08 102.81 141.95 103.31 142.80 103.08 C 143.64 102.85 144.14 101.98 143.91 101.13 L 143.64 100.11 C 143.41 99.26 142.53 98.76 141.69 98.99 C 140.84 99.22 140.34 100.10 140.57 100.94 Z M 140.78 101.85 L 140.98 102.91 C 141.15 103.79 142.00 104.37 142.89 104.20 C 143.77 104.03 144.35 103.18 144.18 102.29 L 143.98 101.24 C 143.81 100.36 142.96 99.78 142.07 99.95 C 141.19 100.12 140.61 100.97 140.78 101.85 Z M 140.95 102.82 L 141.08 103.77 C 141.20 104.67 142.03 105.30 142.93 105.18 C 143.83 105.06 144.46 104.23 144.34 103.33 L 144.21 102.38 C 144.09 101.48 143.26 100.85 142.36 100.97 C 141.46 101.09 140.83 101.92 140.95 102.82 Z M 141.07 103.72 L 141.18 104.74 C 141.27 105.64 142.07 106.30 142.98 106.21 C 143.88 106.11 144.54 105.31 144.45 104.40 L 144.35 103.39 C 144.25 102.49 143.45 101.83 142.54 101.92 C 141.64 102.01 140.98 102.82 141.07 103.72 Z M 141.17 104.70 L 141.25 105.73 C 141.32 106.64 142.11 107.32 143.02 107.25 C 143.92 107.18 144.60 106.39 144.53 105.48 L 144.45 104.44 C 144.38 103.54 143.59 102.86 142.69 102.93 C 141.78 103.00 141.10 103.79 141.17 104.70 Z M 141.25 105.70 L 141.31 106.73 C 141.36 107.64 142.14 108.33 143.05 108.28 C 143.95 108.23 144.65 107.45 144.60 106.54 L 144.54 105.51 C 144.48 104.61 143.71 103.91 142.80 103.97 C 141.89 104.02 141.20 104.80 141.25 105.70 Z M 141.31 106.70 L 141.35 107.73 C 141.39 108.64 142.16 109.35 143.07 109.31 C 143.98 109.27 144.68 108.50 144.64 107.59 L 144.60 106.56 C 144.56 105.65 143.79 104.95 142.88 104.99 C 141.97 105.03 141.27 105.80 141.31 106.70 Z M 141.35 107.71 L 141.38 108.79 C 141.41 109.70 142.16 110.42 143.07 110.39 C 143.98 110.36 144.70 109.60 144.67 108.69 L 144.64 107.62 C 144.62 106.71 143.86 105.99 142.95 106.02 C 142.04 106.04 141.32 106.80 141.35 107.71 Z M 141.38 108.77 L 141.39 109.77 C 141.41 110.68 142.16 111.40 143.07 111.39 C 143.98 111.37 144.71 110.62 144.69 109.71 L 144.68 108.72 C 144.66 107.80 143.91 107.08 143.00 107.09 C 142.09 107.11 141.36 107.86 141.38 108.77 Z M 141.39 109.75 L 141.40 110.70 C 141.41 111.61 142.15 112.34 143.06 112.34 C 143.97 112.33 144.70 111.59 144.70 110.68 L 144.69 109.73 C 144.69 108.82 143.94 108.09 143.03 108.09 C 142.12 108.10 141.39 108.84 141.39 109.75 Z M 141.40 110.69 L 141.40 111.62 C 141.40 112.53 142.14 113.27 143.05 113.27 C 143.96 113.27 144.70 112.53 144.70 111.62 L 144.70 110.69 C 144.70 109.77 143.96 109.04 143.05 109.04 C 142.14 109.04 141.40 109.78 141.40 110.69 Z M 141.40 111.62 L 141.40 112.60 C 141.40 113.51 142.14 114.25 143.05 114.25 C 143.96 114.25 144.70 113.51 144.70 112.60 L 144.70 111.62 C 144.70 110.71 143.96 109.97 143.05 109.97 C 142.14 109.97 141.40 110.71 141.40 111.62 Z M 141.40 112.60 L 141.40 113.59 C 141.40 114.51 142.14 115.24 143.05 115.24 C 143.96 115.24 144.70 114.51 144.70 113.59 L 144.70 112.60 C 144.70 111.69 143.96 110.95 143.05 110.95 C 142.14 110.95 141.40 111.69 141.40 112.60 Z M 141.40 113.59 L 141.40 114.60 C 141.40 115.51 142.14 116.25 143.05 116.25 C 143.96 116.25 144.70 115.51 144.70 114.60 L 144.70 113.59 C 144.70 112.68 143.96 111.95 143.05 111.95 C 142.14 111.95 141.40 112.68 141.40 113.59 Z M 141.40 114.60 L 141.40 115.62 C 141.40 116.53 142.14 117.27 143.05 117.27 C 143.96 117.27 144.70 116.53 144.70 115.62 L 144.70 114.60 C 144.70 113.69 143.96 112.95 143.05 112.95 C 142.14 112.95 141.40 113.69 141.40 114.60 Z M 141.40 115.62 L 141.40 116.60 C 141.40 117.51 142.14 118.25 143.05 118.25 C 143.96 118.25 144.70 117.51 144.70 116.60 L 144.70 115.62 C 144.70 114.71 143.96 113.97 143.05 113.97 C 142.14 113.97 141.40 114.71 141.40 115.62 Z M 141.40 116.60 L 141.40 117.59 C 141.40 118.51 142.14 119.24 143.05 119.24 C 143.96 119.24 144.70 118.51 144.70 117.59 L 144.70 116.60 C 144.70 115.69 143.96 114.95 143.05 114.95 C 142.14 114.95 141.40 115.69 141.40 116.60 Z M 141.40 117.59 L 141.40 118.60 C 141.40 119.51 142.14 120.25 143.05 120.25 C 143.96 120.25 144.70 119.51 144.70 118.60 L 144.70 117.59 C 144.70 116.68 143.96 115.95 143.05 115.95 C 142.14 115.95 141.40 116.68 141.40 117.59 Z M 141.40 118.60 L 141.40 119.62 C 141.40 120.53 142.14 121.27 143.05 121.27 C 143.96 121.27 144.70 120.53 144.70 119.62 L 144.70 118.60 C 144.70 117.69 143.96 116.95 143.05 116.95 C 142.14 116.95 141.40 117.69 141.40 118.60 Z M 141.40 119.62 L 141.40 120.60 C 141.40 121.51 142.14 122.25 143.05 122.25 C 143.96 122.25 144.70 121.52 144.70 120.61 L 144.70 119.62 C 144.70 118.71 143.96 117.97 143.05 117.97 C 142.14 117.97 141.40 118.71 141.40 119.62 Z M 141.40 120.60 L 141.40 121.59 C 141.40 122.50 142.14 123.24 143.04 123.24 C 143.95 123.24 144.69 122.51 144.69 121.60 L 144.70 120.61 C 144.70 119.70 143.96 118.96 143.05 118.96 C 142.14 118.96 141.40 119.69 141.40 120.60 Z M 141.40 121.59 L 141.40 122.59 C 141.39 123.50 142.13 124.24 143.04 124.24 C 143.94 124.25 144.68 123.51 144.69 122.60 L 144.69 121.60 C 144.70 120.69 143.96 119.95 143.05 119.95 C 142.15 119.95 141.41 120.68 141.40 121.59 Z M 141.40 122.58 L 141.39 123.59 C 141.38 124.50 142.11 125.24 143.02 125.25 C 143.93 125.26 144.67 124.53 144.68 123.62 L 144.69 122.61 C 144.69 121.70 143.97 120.96 143.06 120.95 C 142.15 120.94 141.41 121.67 141.40 122.58 Z M 141.39 123.58 L 141.38 124.59 C 141.36 125.50 142.09 126.25 142.99 126.26 C 143.90 126.27 144.65 125.55 144.66 124.64 L 144.68 123.63 C 144.69 122.73 143.97 121.98 143.06 121.97 C 142.15 121.95 141.40 122.68 141.39 123.58 Z M 141.38 124.58 L 141.36 125.58 C 141.34 126.49 142.05 127.24 142.96 127.26 C 143.87 127.28 144.62 126.56 144.64 125.66 L 144.66 124.66 C 144.68 123.75 143.96 123.00 143.06 122.98 C 142.15 122.96 141.40 123.68 141.38 124.58 Z M 141.36 125.57 L 141.33 126.57 C 141.30 127.48 142.00 128.23 142.91 128.26 C 143.81 128.29 144.57 127.59 144.60 126.68 L 144.63 125.68 C 144.66 124.77 143.95 124.01 143.05 123.98 C 142.15 123.95 141.39 124.66 141.36 125.57 Z M 141.33 126.55 L 141.28 127.55 C 141.24 128.45 141.94 129.22 142.84 129.26 C 143.74 129.30 144.51 128.61 144.55 127.70 L 144.60 126.70 C 144.64 125.80 143.94 125.04 143.04 124.99 C 142.14 124.95 141.37 125.65 141.33 126.55 Z M 141.29 127.52 L 141.22 128.51 C 141.17 129.41 141.85 130.19 142.75 130.25 C 143.65 130.30 144.43 129.62 144.48 128.72 L 144.55 127.73 C 144.60 126.83 143.92 126.06 143.02 126.00 C 142.12 125.94 141.34 126.62 141.29 127.52 Z M 141.23 128.48 L 141.14 129.48 C 141.07 130.38 141.73 131.17 142.63 131.25 C 143.53 131.32 144.32 130.66 144.39 129.76 L 144.48 128.75 C 144.55 127.86 143.89 127.07 142.99 126.99 C 142.09 126.92 141.30 127.58 141.23 128.48 Z M 141.15 129.46 L 141.05 130.45 C 140.96 131.35 141.61 132.14 142.51 132.23 C 143.40 132.32 144.20 131.67 144.29 130.78 L 144.39 129.78 C 144.48 128.89 143.82 128.09 142.93 128.00 C 142.04 127.91 141.24 128.57 141.15 129.46 Z M 141.06 130.44 L 140.95 131.43 C 140.85 132.32 141.50 133.12 142.39 133.22 C 143.28 133.31 144.08 132.67 144.17 131.78 L 144.28 130.79 C 144.38 129.90 143.74 129.10 142.84 129.00 C 141.95 128.90 141.15 129.55 141.06 130.44 Z M 140.95 131.43 L 140.84 132.42 C 140.75 133.30 141.39 134.10 142.27 134.20 C 143.16 134.30 143.96 133.66 144.06 132.77 L 144.17 131.78 C 144.27 130.89 143.63 130.09 142.74 129.99 C 141.85 129.90 141.05 130.54 140.95 131.43 Z M 140.85 132.42 L 140.75 133.38 C 140.65 134.26 141.30 135.06 142.18 135.15 C 143.07 135.25 143.86 134.60 143.96 133.72 L 144.06 132.76 C 144.15 131.88 143.51 131.08 142.62 130.99 C 141.73 130.89 140.94 131.54 140.85 132.42 Z M 140.75 133.39 L 140.66 134.33 C 140.57 135.21 141.21 136.00 142.10 136.09 C 142.98 136.18 143.77 135.53 143.86 134.65 L 143.95 133.71 C 144.04 132.82 143.40 132.03 142.51 131.95 C 141.63 131.86 140.84 132.50 140.75 133.39 Z M 140.66 134.34 L 140.57 135.31 C 140.48 136.19 141.13 136.97 142.01 137.06 C 142.89 137.14 143.68 136.50 143.76 135.62 L 143.85 134.64 C 143.94 133.76 143.29 132.98 142.41 132.89 C 141.53 132.81 140.75 133.45 140.66 134.34 Z M 140.57 135.31 L 140.48 136.33 C 140.39 137.21 141.04 137.99 141.91 138.07 C 142.79 138.16 143.57 137.51 143.66 136.63 L 143.76 135.62 C 143.84 134.74 143.20 133.96 142.32 133.87 C 141.44 133.79 140.66 134.43 140.57 135.31 Z M 140.48 136.33 L 140.38 137.40 C 140.29 138.28 140.93 139.06 141.81 139.14 C 142.68 139.23 143.46 138.59 143.55 137.71 L 143.65 136.64 C 143.74 135.76 143.10 134.98 142.22 134.89 C 141.35 134.81 140.57 135.45 140.48 136.33 Z M 140.38 137.40 L 140.28 138.39 C 140.19 139.26 140.83 140.04 141.70 140.13 C 142.58 140.22 143.36 139.58 143.44 138.71 L 143.54 137.71 C 143.63 136.84 142.99 136.06 142.12 135.97 C 141.25 135.89 140.47 136.52 140.38 137.40 Z M 140.29 138.40 L 140.19 139.40 C 140.11 140.27 140.75 141.04 141.62 141.13 C 142.49 141.21 143.26 140.57 143.34 139.70 L 143.44 138.70 C 143.52 137.83 142.88 137.05 142.01 136.97 C 141.14 136.89 140.37 137.53 140.29 138.40 Z M 140.19 139.42 L 140.11 140.44 C 140.04 141.31 140.69 142.07 141.56 142.15 C 142.43 142.22 143.19 141.57 143.26 140.70 L 143.34 139.68 C 143.41 138.81 142.76 138.05 141.89 137.98 C 141.03 137.91 140.26 138.56 140.19 139.42 Z M 140.11 140.48 L 140.06 141.50 C 140.01 142.37 140.67 143.11 141.54 143.16 C 142.40 143.21 143.15 142.55 143.20 141.68 L 143.25 140.66 C 143.30 139.79 142.64 139.05 141.77 139.00 C 140.91 138.95 140.16 139.61 140.11 140.48 Z M 140.06 141.55 L 140.04 142.55 C 140.02 143.41 140.70 144.13 141.57 144.15 C 142.43 144.17 143.15 143.48 143.17 142.62 L 143.19 141.62 C 143.21 140.76 142.53 140.04 141.66 140.02 C 140.79 140.00 140.08 140.69 140.06 141.55 Z M 140.04 142.63 L 140.07 143.63 C 140.10 144.49 140.82 145.17 141.68 145.14 C 142.54 145.12 143.22 144.40 143.19 143.54 L 143.16 142.54 C 143.14 141.68 142.42 141.00 141.56 141.02 C 140.70 141.05 140.02 141.77 140.04 142.63 Z M 140.09 143.73 L 140.19 144.78 C 140.27 145.63 141.02 146.26 141.88 146.18 C 142.73 146.10 143.35 145.34 143.27 144.49 L 143.18 143.44 C 143.10 142.59 142.34 141.96 141.49 142.04 C 140.64 142.12 140.01 142.88 140.09 143.73 Z M 140.21 144.87 L 140.37 145.86 C 140.50 146.70 141.28 147.27 142.12 147.14 C 142.96 147.01 143.53 146.23 143.40 145.39 L 143.25 144.40 C 143.12 143.56 142.33 142.98 141.50 143.11 C 140.66 143.24 140.08 144.03 140.21 144.87 Z M 140.39 145.93 L 140.59 146.88 C 140.75 147.71 141.56 148.24 142.38 148.07 C 143.20 147.91 143.74 147.10 143.57 146.28 L 143.38 145.32 C 143.21 144.50 142.41 143.97 141.58 144.13 C 140.76 144.30 140.23 145.10 140.39 145.93 Z M 140.61 146.92 L 140.82 147.85 C 141.01 148.66 141.82 149.17 142.64 148.98 C 143.45 148.79 143.95 147.98 143.76 147.17 L 143.55 146.24 C 143.36 145.43 142.55 144.92 141.74 145.11 C 140.93 145.30 140.42 146.11 140.61 146.92 Z M 140.84 147.86 L 140.93 148.25 C 141.13 149.05 141.94 149.55 142.74 149.35 C 143.54 149.16 144.04 148.35 143.84 147.54 L 143.75 147.16 C 143.56 146.35 142.75 145.86 141.94 146.05 C 141.14 146.25 140.64 147.06 140.84 147.86 Z"
      fill="black"
      fill-rule="nonzero" /><path d="M 139.08 105.66 L 137.73 105.66 C 136.84 105.66 136.11 106.38 136.11 107.28 C 136.10 108.17 136.83 108.90 137.73 108.90 L 139.08 108.90 C 139.97 108.91 140.70 108.18 140.70 107.29 C 140.70 106.39 139.98 105.66 139.08 105.66 Z M 137.79 105.64 L 137.33 105.62 C 136.42 105.59 135.66 106.29 135.63 107.20 C 135.59 108.10 136.29 108.86 137.20 108.90 L 137.66 108.92 C 138.57 108.95 139.33 108.25 139.36 107.34 C 139.40 106.44 138.70 105.68 137.79 105.64 Z M 137.35 108.90 L 137.90 108.87 C 138.81 108.83 139.50 108.05 139.45 107.14 C 139.41 106.24 138.63 105.54 137.72 105.59 L 137.18 105.62 C 136.27 105.67 135.57 106.44 135.62 107.35 C 135.67 108.26 136.44 108.95 137.35 108.90 Z M 137.88 108.87 L 138.95 108.83 C 139.86 108.79 140.56 108.02 140.52 107.11 C 140.48 106.20 139.71 105.50 138.81 105.54 L 137.74 105.59 C 136.83 105.63 136.13 106.40 136.17 107.30 C 136.21 108.21 136.98 108.91 137.88 108.87 Z M 138.97 108.83 L 140.29 108.76 C 141.20 108.71 141.89 107.93 141.84 107.03 C 141.80 106.12 141.02 105.42 140.12 105.47 L 138.79 105.54 C 137.89 105.59 137.19 106.37 137.24 107.27 C 137.29 108.18 138.06 108.87 138.97 108.83 Z M 140.32 108.75 L 141.35 108.67 C 142.25 108.61 142.93 107.83 142.87 106.93 C 142.81 106.03 142.02 105.35 141.12 105.41 L 140.09 105.48 C 139.19 105.54 138.51 106.33 138.57 107.23 C 138.63 108.13 139.42 108.81 140.32 108.75 Z M 141.38 108.66 L 142.37 108.57 C 143.26 108.49 143.92 107.70 143.84 106.81 C 143.76 105.92 142.97 105.26 142.08 105.34 L 141.09 105.42 C 140.20 105.50 139.54 106.29 139.62 107.19 C 139.70 108.08 140.49 108.74 141.38 108.66 Z M 142.39 108.56 L 143.38 108.45 C 144.27 108.36 144.91 107.56 144.81 106.68 C 144.72 105.79 143.92 105.15 143.04 105.25 L 142.05 105.35 C 141.17 105.45 140.53 106.24 140.62 107.13 C 140.72 108.01 141.51 108.65 142.39 108.56 Z M 143.41 108.43 L 144.41 108.31 C 145.29 108.20 145.91 107.40 145.80 106.52 C 145.69 105.64 144.89 105.02 144.01 105.14 L 143.01 105.26 C 142.13 105.37 141.51 106.17 141.62 107.05 C 141.74 107.92 142.54 108.54 143.41 108.43 Z M 144.44 108.29 L 145.40 108.15 C 146.27 108.03 146.87 107.22 146.74 106.36 C 146.62 105.49 145.81 104.89 144.95 105.01 L 143.99 105.15 C 143.12 105.28 142.52 106.08 142.64 106.95 C 142.77 107.81 143.57 108.42 144.44 108.29 Z M 145.42 108.13 L 146.38 107.98 C 147.24 107.84 147.83 107.04 147.69 106.18 C 147.55 105.32 146.74 104.74 145.89 104.88 L 144.92 105.03 C 144.07 105.17 143.48 105.97 143.62 106.83 C 143.76 107.69 144.56 108.27 145.42 108.13 Z M 146.40 107.97 L 147.39 107.79 C 148.24 107.65 148.81 106.84 148.66 105.99 C 148.51 105.14 147.70 104.57 146.86 104.72 L 145.87 104.89 C 145.02 105.04 144.45 105.85 144.60 106.69 C 144.75 107.54 145.55 108.11 146.40 107.97 Z M 147.40 107.78 L 148.41 107.59 C 149.25 107.44 149.81 106.63 149.65 105.79 C 149.50 104.95 148.69 104.40 147.85 104.55 L 146.84 104.74 C 146.00 104.89 145.45 105.70 145.60 106.54 C 145.76 107.38 146.56 107.93 147.40 107.78 Z M 148.42 107.58 L 149.43 107.38 C 150.27 107.22 150.81 106.41 150.65 105.58 C 150.49 104.75 149.68 104.21 148.85 104.37 L 147.84 104.57 C 147.00 104.73 146.46 105.53 146.62 106.36 C 146.79 107.20 147.59 107.74 148.42 107.58 Z M 149.44 107.37 L 150.41 107.17 C 151.24 107.00 151.77 106.20 151.60 105.38 C 151.44 104.55 150.63 104.02 149.81 104.19 L 148.84 104.38 C 148.02 104.55 147.48 105.35 147.65 106.18 C 147.82 107.00 148.62 107.53 149.44 107.37 Z M 150.42 107.16 L 151.40 106.95 C 152.22 106.78 152.74 105.98 152.57 105.16 C 152.40 104.35 151.60 103.82 150.78 103.99 L 149.80 104.20 C 148.99 104.37 148.46 105.17 148.63 105.99 C 148.80 106.80 149.60 107.33 150.42 107.16 Z M 151.41 106.94 L 152.39 106.73 C 153.20 106.55 153.72 105.76 153.54 104.95 C 153.37 104.14 152.57 103.62 151.76 103.80 L 150.78 104.01 C 149.97 104.18 149.45 104.98 149.63 105.79 C 149.80 106.60 150.60 107.11 151.41 106.94 Z M 152.39 106.72 L 153.38 106.50 C 154.18 106.33 154.69 105.53 154.51 104.73 C 154.34 103.93 153.54 103.42 152.74 103.59 L 151.76 103.81 C 150.96 103.98 150.45 104.78 150.62 105.58 C 150.80 106.38 151.59 106.89 152.39 106.72 Z M 153.38 106.49 L 154.37 106.27 C 155.16 106.09 155.66 105.31 155.49 104.51 C 155.31 103.71 154.52 103.21 153.73 103.39 L 152.74 103.60 C 151.94 103.78 151.44 104.57 151.62 105.37 C 151.79 106.16 152.58 106.67 153.38 106.49 Z M 154.37 106.26 L 155.36 106.04 C 156.16 105.86 156.65 105.07 156.48 104.28 C 156.30 103.49 155.51 102.99 154.72 103.17 L 153.72 103.40 C 152.93 103.57 152.43 104.36 152.61 105.15 C 152.79 105.94 153.58 106.44 154.37 106.26 Z M 155.37 106.03 L 156.35 105.81 C 157.14 105.63 157.63 104.84 157.45 104.06 C 157.27 103.27 156.49 102.78 155.70 102.96 L 154.72 103.18 C 153.93 103.36 153.44 104.14 153.62 104.93 C 153.80 105.72 154.58 106.21 155.37 106.03 Z M 156.35 105.80 L 157.32 105.57 C 158.10 105.39 158.59 104.61 158.41 103.83 C 158.23 103.05 157.45 102.56 156.67 102.74 L 155.70 102.97 C 154.92 103.15 154.43 103.93 154.61 104.71 C 154.79 105.49 155.57 105.98 156.35 105.80 Z M 157.33 105.56 L 158.28 105.34 C 159.05 105.16 159.54 104.38 159.35 103.60 C 159.17 102.83 158.39 102.34 157.62 102.53 L 156.66 102.75 C 155.89 102.93 155.41 103.71 155.59 104.49 C 155.77 105.26 156.55 105.75 157.33 105.56 Z M 158.28 105.33 L 159.26 105.10 C 160.03 104.91 160.50 104.14 160.32 103.37 C 160.13 102.59 159.36 102.12 158.59 102.30 L 157.61 102.53 C 156.84 102.72 156.36 103.50 156.55 104.27 C 156.73 105.04 157.51 105.52 158.28 105.33 Z M 159.26 105.09 L 160.24 104.85 C 161.01 104.67 161.48 103.89 161.30 103.12 C 161.11 102.35 160.33 101.88 159.56 102.07 L 158.58 102.31 C 157.81 102.49 157.34 103.27 157.53 104.04 C 157.71 104.81 158.49 105.28 159.26 105.09 Z M 160.25 104.85 L 161.21 104.61 C 161.98 104.42 162.45 103.65 162.26 102.88 C 162.07 102.11 161.30 101.64 160.53 101.83 L 159.56 102.07 C 158.79 102.26 158.32 103.04 158.51 103.80 C 158.70 104.57 159.48 105.04 160.25 104.85 Z M 161.22 104.61 L 162.18 104.37 C 162.94 104.18 163.41 103.40 163.22 102.64 C 163.03 101.87 162.25 101.41 161.49 101.60 L 160.53 101.84 C 159.76 102.03 159.29 102.80 159.48 103.57 C 159.68 104.33 160.45 104.80 161.22 104.61 Z M 162.18 104.37 L 162.97 104.17 C 163.74 103.98 164.20 103.20 164.01 102.44 C 163.82 101.67 163.05 101.21 162.28 101.40 L 161.49 101.60 C 160.72 101.79 160.26 102.56 160.45 103.33 C 160.64 104.09 161.41 104.56 162.18 104.37 Z"
      fill="black"
      fill-rule="nonzero" /><path d="M 146.23 115.83 L 144.94 116.16 C 144.11 116.37 143.61 117.22 143.82 118.06 C 144.03 118.89 144.88 119.39 145.72 119.18 L 147.01 118.85 C 147.84 118.63 148.34 117.78 148.13 116.95 C 147.92 116.11 147.07 115.61 146.23 115.83 Z M 144.93 116.15 L 143.75 116.46 C 142.91 116.68 142.41 117.54 142.63 118.38 C 142.85 119.22 143.71 119.72 144.55 119.50 L 145.73 119.19 C 146.57 118.96 147.07 118.10 146.85 117.27 C 146.63 116.43 145.77 115.93 144.93 116.15 Z M 143.71 116.46 L 142.76 116.73 C 141.92 116.97 141.43 117.85 141.67 118.69 C 141.91 119.53 142.79 120.02 143.63 119.78 L 144.58 119.50 C 145.42 119.26 145.91 118.39 145.67 117.55 C 145.43 116.71 144.55 116.22 143.71 116.46 Z M 142.67 116.75 L 142.05 116.96 C 141.22 117.25 140.77 118.16 141.06 118.99 C 141.35 119.82 142.26 120.27 143.09 119.98 L 143.71 119.76 C 144.55 119.47 144.99 118.57 144.70 117.73 C 144.41 116.90 143.50 116.46 142.67 116.75 Z M 141.17 117.69 L 141.07 117.88 C 140.64 118.65 140.92 119.63 141.69 120.06 C 142.47 120.48 143.44 120.20 143.87 119.43 L 143.97 119.25 C 144.40 118.47 144.12 117.50 143.35 117.07 C 142.57 116.64 141.60 116.92 141.17 117.69 Z M 142.50 120.26 L 143.46 120.24 C 144.35 120.22 145.05 119.49 145.03 118.60 C 145.01 117.71 144.28 117.01 143.39 117.03 L 142.43 117.05 C 141.55 117.07 140.85 117.80 140.86 118.69 C 140.88 119.57 141.62 120.28 142.50 120.26 Z M 143.67 120.22 L 144.89 120.03 C 145.76 119.90 146.36 119.08 146.23 118.21 C 146.10 117.33 145.28 116.73 144.41 116.86 L 143.19 117.05 C 142.31 117.18 141.71 118.00 141.84 118.87 C 141.98 119.75 142.79 120.35 143.67 120.22 Z M 145.01 120.00 L 145.88 119.80 C 146.73 119.60 147.27 118.74 147.07 117.88 C 146.87 117.03 146.01 116.49 145.15 116.69 L 144.28 116.90 C 143.43 117.10 142.89 117.95 143.09 118.81 C 143.29 119.67 144.15 120.20 145.01 120.00 Z M 145.95 119.77 L 146.87 119.50 C 147.71 119.26 148.20 118.39 147.96 117.55 C 147.72 116.71 146.84 116.22 146.00 116.46 L 145.08 116.72 C 144.24 116.97 143.75 117.84 143.99 118.68 C 144.23 119.52 145.11 120.01 145.95 119.77 Z M 146.92 119.48 L 147.94 119.15 C 148.77 118.89 149.22 118.00 148.96 117.17 C 148.69 116.35 147.81 115.89 146.98 116.16 L 145.95 116.49 C 145.13 116.75 144.67 117.64 144.94 118.46 C 145.20 119.29 146.09 119.75 146.92 119.48 Z M 147.96 119.13 L 148.96 118.80 C 149.78 118.52 150.22 117.63 149.95 116.82 C 149.67 116.00 148.78 115.56 147.97 115.84 L 146.96 116.17 C 146.14 116.45 145.70 117.33 145.98 118.15 C 146.25 118.97 147.14 119.41 147.96 119.13 Z M 148.97 118.78 L 149.82 118.49 C 150.63 118.22 151.07 117.33 150.79 116.52 C 150.52 115.71 149.63 115.28 148.82 115.55 L 147.96 115.85 C 147.15 116.12 146.72 117.00 147.00 117.82 C 147.27 118.63 148.15 119.06 148.97 118.78 Z M 149.82 118.48 L 150.74 118.17 C 151.55 117.90 151.98 117.02 151.70 116.21 C 151.42 115.40 150.55 114.97 149.74 115.25 L 148.82 115.56 C 148.02 115.84 147.59 116.72 147.86 117.52 C 148.14 118.33 149.01 118.76 149.82 118.48 Z M 150.73 118.16 L 151.70 117.84 C 152.50 117.56 152.93 116.69 152.66 115.89 C 152.38 115.08 151.51 114.66 150.71 114.93 L 149.74 115.26 C 148.94 115.53 148.51 116.40 148.78 117.21 C 149.06 118.01 149.93 118.44 150.73 118.16 Z M 151.69 117.83 L 152.69 117.49 C 153.49 117.22 153.92 116.36 153.65 115.56 C 153.38 114.76 152.51 114.33 151.71 114.60 L 150.71 114.93 C 149.91 115.20 149.49 116.07 149.75 116.87 C 150.02 117.67 150.89 118.10 151.69 117.83 Z M 152.68 117.49 L 153.70 117.15 C 154.49 116.88 154.93 116.02 154.66 115.23 C 154.40 114.43 153.54 114.00 152.74 114.27 L 151.72 114.60 C 150.92 114.87 150.49 115.73 150.76 116.53 C 151.02 117.32 151.88 117.75 152.68 117.49 Z M 153.69 117.14 L 154.69 116.82 C 155.48 116.56 155.92 115.70 155.66 114.91 C 155.40 114.12 154.55 113.68 153.75 113.94 L 152.75 114.27 C 151.96 114.53 151.52 115.38 151.78 116.18 C 152.04 116.97 152.89 117.40 153.69 117.14 Z M 154.68 116.81 L 155.66 116.50 C 156.45 116.25 156.88 115.40 156.63 114.61 C 156.38 113.82 155.53 113.39 154.74 113.64 L 153.77 113.95 C 152.98 114.20 152.54 115.05 152.79 115.84 C 153.04 116.63 153.89 117.06 154.68 116.81 Z M 155.64 116.49 L 156.61 116.19 C 157.40 115.95 157.84 115.11 157.60 114.33 C 157.35 113.54 156.52 113.10 155.73 113.34 L 154.76 113.64 C 153.97 113.89 153.53 114.72 153.78 115.51 C 154.02 116.30 154.86 116.74 155.64 116.49 Z M 156.60 116.18 L 157.56 115.89 C 158.35 115.66 158.79 114.84 158.56 114.05 C 158.32 113.27 157.50 112.83 156.71 113.06 L 155.75 113.35 C 154.97 113.58 154.52 114.41 154.76 115.19 C 154.99 115.97 155.82 116.42 156.60 116.18 Z M 157.55 115.89 L 158.50 115.61 C 159.28 115.39 159.73 114.58 159.50 113.80 C 159.28 113.02 158.47 112.57 157.69 112.79 L 156.73 113.07 C 155.95 113.29 155.50 114.10 155.73 114.88 C 155.95 115.66 156.77 116.11 157.55 115.89 Z M 158.48 115.61 L 159.42 115.35 C 160.19 115.14 160.65 114.33 160.44 113.56 C 160.22 112.78 159.42 112.33 158.65 112.54 L 157.71 112.80 C 156.93 113.01 156.47 113.81 156.69 114.59 C 156.90 115.37 157.70 115.82 158.48 115.61 Z M 159.40 115.35 L 160.34 115.10 C 161.12 114.90 161.58 114.11 161.38 113.33 C 161.18 112.56 160.39 112.10 159.62 112.30 L 158.67 112.54 C 157.89 112.74 157.43 113.53 157.63 114.31 C 157.83 115.08 158.62 115.55 159.40 115.35 Z M 160.32 115.10 L 161.33 114.86 C 162.10 114.67 162.58 113.89 162.39 113.11 C 162.20 112.34 161.42 111.87 160.65 112.05 L 159.64 112.30 C 158.87 112.48 158.39 113.26 158.58 114.04 C 158.77 114.81 159.55 115.29 160.32 115.10 Z M 161.31 114.86 L 162.29 114.63 C 163.07 114.46 163.55 113.69 163.38 112.91 C 163.20 112.14 162.43 111.65 161.65 111.83 L 160.67 112.05 C 159.89 112.23 159.41 113.00 159.58 113.77 C 159.76 114.55 160.53 115.03 161.31 114.86 Z M 162.27 114.63 L 163.25 114.42 C 164.02 114.26 164.51 113.49 164.35 112.72 C 164.18 111.94 163.42 111.45 162.64 111.62 L 161.67 111.83 C 160.90 111.99 160.40 112.76 160.57 113.53 C 160.74 114.31 161.50 114.80 162.27 114.63 Z M 163.23 114.42 L 164.19 114.22 C 164.97 114.06 165.47 113.31 165.31 112.53 C 165.15 111.76 164.39 111.26 163.61 111.42 L 162.65 111.62 C 161.88 111.78 161.38 112.54 161.54 113.31 C 161.70 114.08 162.46 114.58 163.23 114.42 Z M 164.19 114.22 L 165.14 114.03 C 165.91 113.87 166.41 113.12 166.26 112.35 C 166.10 111.58 165.35 111.08 164.58 111.23 L 163.62 111.42 C 162.85 111.58 162.35 112.33 162.50 113.10 C 162.66 113.88 163.41 114.38 164.19 114.22 Z M 165.14 114.03 L 165.42 113.97 C 166.19 113.82 166.69 113.07 166.54 112.29 C 166.39 111.52 165.63 111.02 164.86 111.18 L 164.58 111.23 C 163.81 111.39 163.31 112.14 163.46 112.91 C 163.62 113.68 164.37 114.18 165.14 114.03 Z"
      fill="black"
      fill-rule="nonzero" /><path d="M 150.39 126.52 L 149.48 126.64 C 148.64 126.75 148.04 127.52 148.15 128.36 C 148.26 129.21 149.03 129.81 149.87 129.70 L 150.78 129.58 C 151.63 129.47 152.23 128.70 152.12 127.86 C 152.01 127.01 151.24 126.42 150.39 126.52 Z M 149.46 126.63 L 148.51 126.76 C 147.65 126.88 147.06 127.67 147.18 128.52 C 147.30 129.37 148.09 129.96 148.94 129.84 L 149.89 129.71 C 150.75 129.59 151.34 128.80 151.22 127.95 C 151.10 127.10 150.31 126.51 149.46 126.63 Z M 148.47 126.75 L 147.43 126.93 C 146.58 127.07 146.00 127.88 146.14 128.73 C 146.28 129.59 147.09 130.17 147.95 130.02 L 148.98 129.85 C 149.84 129.71 150.41 128.90 150.27 128.05 C 150.13 127.19 149.32 126.61 148.47 126.75 Z M 147.38 126.92 L 146.18 127.16 C 145.32 127.33 144.76 128.16 144.93 129.02 C 145.10 129.88 145.93 130.44 146.79 130.27 L 148.00 130.03 C 148.86 129.86 149.41 129.03 149.24 128.17 C 149.07 127.31 148.24 126.75 147.38 126.92 Z M 146.13 127.16 L 144.87 127.44 C 144.01 127.64 143.48 128.50 143.67 129.35 C 143.87 130.21 144.72 130.75 145.58 130.55 L 146.84 130.27 C 147.70 130.07 148.23 129.22 148.04 128.36 C 147.84 127.50 146.99 126.96 146.13 127.16 Z M 144.81 127.45 L 143.89 127.70 C 143.04 127.93 142.53 128.81 142.76 129.67 C 143.00 130.52 143.88 131.03 144.73 130.80 L 145.65 130.55 C 146.50 130.32 147.01 129.44 146.78 128.58 C 146.54 127.72 145.66 127.22 144.81 127.45 Z M 143.52 127.84 L 143.29 127.97 C 142.51 128.41 142.24 129.39 142.68 130.17 C 143.11 130.95 144.10 131.22 144.87 130.78 L 145.11 130.65 C 145.88 130.22 146.16 129.23 145.72 128.46 C 145.28 127.68 144.30 127.40 143.52 127.84 Z M 144.17 130.99 L 144.74 130.96 C 145.63 130.91 146.31 130.15 146.26 129.26 C 146.21 128.37 145.45 127.69 144.56 127.73 L 143.99 127.77 C 143.10 127.81 142.42 128.58 142.47 129.47 C 142.52 130.36 143.28 131.04 144.17 130.99 Z M 144.91 130.94 L 146.06 130.75 C 146.93 130.60 147.53 129.78 147.38 128.90 C 147.24 128.02 146.41 127.43 145.54 127.57 L 144.39 127.76 C 143.51 127.90 142.92 128.73 143.06 129.61 C 143.20 130.48 144.03 131.08 144.91 130.94 Z M 146.15 130.73 L 147.56 130.41 C 148.42 130.21 148.97 129.36 148.77 128.49 C 148.58 127.63 147.72 127.08 146.86 127.28 L 145.44 127.59 C 144.58 127.79 144.03 128.64 144.23 129.51 C 144.42 130.37 145.28 130.92 146.15 130.73 Z M 147.63 130.38 L 148.55 130.13 C 149.40 129.90 149.90 129.02 149.67 128.17 C 149.44 127.32 148.56 126.82 147.71 127.05 L 146.79 127.30 C 145.94 127.53 145.43 128.41 145.67 129.26 C 145.90 130.11 146.78 130.62 147.63 130.38 Z M 148.59 130.11 L 149.54 129.82 C 150.38 129.57 150.85 128.68 150.60 127.84 C 150.34 127.00 149.45 126.53 148.61 126.78 L 147.67 127.07 C 146.83 127.33 146.35 128.22 146.61 129.05 C 146.86 129.89 147.75 130.37 148.59 130.11 Z M 149.57 129.80 L 150.54 129.48 C 151.36 129.21 151.81 128.31 151.54 127.49 C 151.26 126.66 150.37 126.21 149.54 126.48 L 148.58 126.80 C 147.75 127.08 147.30 127.97 147.58 128.80 C 147.85 129.63 148.75 130.08 149.57 129.80 Z M 150.56 129.46 L 151.53 129.12 C 152.35 128.83 152.77 127.93 152.48 127.12 C 152.19 126.30 151.30 125.87 150.48 126.16 L 149.51 126.50 C 148.70 126.79 148.27 127.69 148.56 128.51 C 148.85 129.32 149.75 129.75 150.56 129.46 Z M 151.55 129.10 L 152.51 128.74 C 153.31 128.44 153.72 127.54 153.42 126.73 C 153.12 125.93 152.22 125.52 151.41 125.82 L 150.46 126.18 C 149.65 126.48 149.24 127.38 149.54 128.19 C 149.85 128.99 150.75 129.40 151.55 129.10 Z M 152.53 128.73 L 153.48 128.35 C 154.28 128.04 154.67 127.14 154.36 126.34 C 154.04 125.54 153.14 125.15 152.35 125.47 L 151.39 125.84 C 150.60 126.15 150.20 127.05 150.52 127.85 C 150.83 128.65 151.73 129.04 152.53 128.73 Z M 153.50 128.33 L 154.44 127.95 C 155.23 127.62 155.61 126.73 155.28 125.94 C 154.96 125.15 154.07 124.78 153.28 125.10 L 152.33 125.48 C 151.55 125.80 151.17 126.70 151.49 127.49 C 151.81 128.28 152.71 128.65 153.50 128.33 Z M 154.45 127.93 L 155.38 127.54 C 156.15 127.21 156.52 126.32 156.19 125.54 C 155.87 124.76 154.97 124.40 154.19 124.73 L 153.27 125.11 C 152.49 125.44 152.13 126.34 152.45 127.11 C 152.78 127.89 153.67 128.25 154.45 127.93 Z M 155.38 127.52 L 156.29 127.14 C 157.06 126.81 157.42 125.92 157.09 125.15 C 156.76 124.38 155.87 124.02 155.10 124.35 L 154.19 124.74 C 153.42 125.07 153.07 125.96 153.39 126.73 C 153.72 127.50 154.61 127.85 155.38 127.52 Z M 156.29 127.12 L 157.19 126.74 C 157.95 126.41 158.30 125.53 157.98 124.76 C 157.65 124.00 156.77 123.65 156.00 123.98 L 155.10 124.36 C 154.34 124.69 153.99 125.57 154.32 126.34 C 154.64 127.10 155.53 127.45 156.29 127.12 Z M 157.18 126.73 L 158.07 126.35 C 158.83 126.02 159.18 125.15 158.86 124.39 C 158.54 123.64 157.66 123.28 156.90 123.61 L 156.01 123.99 C 155.26 124.31 154.90 125.18 155.23 125.94 C 155.55 126.70 156.43 127.05 157.18 126.73 Z M 158.06 126.34 L 158.91 125.99 C 159.66 125.67 160.02 124.80 159.70 124.05 C 159.38 123.29 158.51 122.94 157.76 123.26 L 156.91 123.61 C 156.16 123.93 155.81 124.80 156.12 125.55 C 156.44 126.30 157.31 126.66 158.06 126.34 Z M 158.90 125.98 L 159.76 125.62 C 160.52 125.31 160.87 124.45 160.56 123.69 C 160.25 122.94 159.38 122.59 158.63 122.90 L 157.77 123.26 C 157.02 123.57 156.66 124.44 156.97 125.19 C 157.28 125.94 158.15 126.30 158.90 125.98 Z M 159.76 125.62 L 160.66 125.25 C 161.41 124.94 161.76 124.08 161.45 123.33 C 161.14 122.58 160.28 122.22 159.53 122.53 L 158.64 122.90 C 157.89 123.21 157.53 124.07 157.84 124.82 C 158.15 125.57 159.01 125.93 159.76 125.62 Z M 160.65 125.24 L 161.59 124.85 C 162.34 124.55 162.70 123.69 162.39 122.94 C 162.08 122.20 161.23 121.84 160.48 122.15 L 159.54 122.54 C 158.79 122.85 158.43 123.70 158.74 124.45 C 159.05 125.19 159.91 125.55 160.65 125.24 Z M 161.59 124.85 L 162.59 124.44 C 163.34 124.13 163.69 123.28 163.39 122.53 C 163.08 121.79 162.23 121.44 161.48 121.74 L 160.48 122.16 C 159.74 122.46 159.38 123.31 159.69 124.06 C 160.00 124.80 160.85 125.16 161.59 124.85 Z M 162.59 124.43 L 163.60 124.01 C 164.34 123.71 164.69 122.86 164.38 122.12 C 164.07 121.38 163.23 121.03 162.49 121.33 L 161.48 121.75 C 160.74 122.06 160.39 122.90 160.70 123.64 C 161.01 124.38 161.85 124.74 162.59 124.43 Z M 163.60 124.01 L 164.55 123.61 C 165.29 123.31 165.63 122.46 165.33 121.72 C 165.02 120.98 164.17 120.63 163.43 120.94 L 162.48 121.34 C 161.75 121.64 161.40 122.49 161.71 123.23 C 162.01 123.97 162.86 124.32 163.60 124.01 Z M 164.55 123.61 L 165.52 123.20 C 166.26 122.89 166.60 122.05 166.30 121.31 C 165.99 120.58 165.14 120.23 164.41 120.54 L 163.43 120.95 C 162.70 121.25 162.35 122.10 162.66 122.83 C 162.97 123.57 163.81 123.92 164.55 123.61 Z M 165.52 123.20 L 166.50 122.79 C 167.23 122.48 167.58 121.64 167.27 120.90 C 166.96 120.17 166.12 119.83 165.38 120.13 L 164.41 120.54 C 163.67 120.85 163.33 121.69 163.64 122.43 C 163.94 123.16 164.79 123.51 165.52 123.20 Z M 166.50 122.79 L 167.45 122.39 C 168.18 122.08 168.53 121.24 168.22 120.50 C 167.91 119.77 167.07 119.43 166.34 119.74 L 165.38 120.14 C 164.65 120.44 164.31 121.29 164.61 122.02 C 164.92 122.75 165.77 123.09 166.50 122.79 Z M 167.45 122.38 L 168.36 122.00 C 169.09 121.69 169.43 120.85 169.12 120.12 C 168.81 119.39 167.97 119.05 167.24 119.36 L 166.34 119.74 C 165.61 120.05 165.26 120.89 165.57 121.62 C 165.88 122.35 166.72 122.69 167.45 122.38 Z M 168.36 122.00 L 169.20 121.64 C 169.92 121.34 170.26 120.50 169.96 119.77 C 169.65 119.04 168.81 118.70 168.08 119.01 L 167.24 119.36 C 166.52 119.67 166.17 120.51 166.48 121.24 C 166.79 121.96 167.63 122.30 168.36 122.00 Z M 169.20 121.64 L 170.24 121.20 C 170.96 120.89 171.30 120.05 170.99 119.33 C 170.69 118.60 169.85 118.26 169.12 118.57 L 168.08 119.01 C 167.36 119.32 167.02 120.15 167.32 120.88 C 167.63 121.61 168.47 121.95 169.20 121.64 Z M 170.24 121.20 L 171.28 120.76 C 172.00 120.45 172.34 119.61 172.03 118.88 C 171.73 118.16 170.89 117.82 170.16 118.13 L 169.12 118.57 C 168.39 118.88 168.06 119.72 168.36 120.44 C 168.67 121.17 169.51 121.51 170.24 121.20 Z M 171.28 120.75 L 172.13 120.39 C 172.86 120.08 173.20 119.24 172.89 118.52 C 172.58 117.79 171.74 117.46 171.01 117.76 L 170.16 118.13 C 169.44 118.44 169.10 119.28 169.41 120.00 C 169.72 120.73 170.56 121.06 171.28 120.75 Z M 172.14 120.39 L 172.88 120.07 C 173.61 119.76 173.94 118.92 173.63 118.20 C 173.32 117.47 172.48 117.14 171.76 117.45 L 171.01 117.77 C 170.29 118.08 169.95 118.91 170.26 119.64 C 170.57 120.36 171.41 120.70 172.14 120.39 Z M 172.88 120.07 L 173.11 119.97 C 173.84 119.66 174.17 118.82 173.86 118.10 C 173.55 117.37 172.71 117.04 171.99 117.35 L 171.76 117.45 C 171.04 117.76 170.70 118.60 171.01 119.32 C 171.32 120.04 172.16 120.38 172.88 120.07 Z"
      fill="black"
      fill-rule="nonzero" /><path d="M 116.64 149.54 L 115.72 149.94 C 114.95 150.27 114.59 151.17 114.93 151.95 C 115.27 152.72 116.16 153.08 116.94 152.74 L 117.86 152.34 C 118.63 152.00 118.99 151.10 118.65 150.33 C 118.32 149.56 117.42 149.20 116.64 149.54 Z M 115.71 149.93 L 114.79 150.34 C 114.02 150.68 113.67 151.58 114.01 152.36 C 114.35 153.14 115.25 153.49 116.03 153.15 L 116.95 152.74 C 117.72 152.40 118.08 151.50 117.74 150.72 C 117.39 149.95 116.49 149.59 115.71 149.93 Z M 114.78 150.34 L 113.87 150.75 C 113.09 151.10 112.75 152.01 113.09 152.78 C 113.44 153.56 114.36 153.91 115.13 153.56 L 116.04 153.15 C 116.82 152.80 117.17 151.89 116.82 151.11 C 116.47 150.33 115.56 149.99 114.78 150.34 Z M 113.85 150.75 L 112.94 151.17 C 112.17 151.53 111.83 152.45 112.20 153.23 C 112.56 154.00 113.48 154.34 114.25 153.98 L 115.15 153.56 C 115.93 153.19 116.26 152.27 115.90 151.50 C 115.54 150.72 114.62 150.39 113.85 150.75 Z M 112.92 151.18 L 111.99 151.63 C 111.21 152.01 110.89 152.94 111.27 153.71 C 111.65 154.48 112.58 154.80 113.35 154.42 L 114.28 153.97 C 115.05 153.59 115.37 152.66 115.00 151.89 C 114.62 151.12 113.69 150.80 112.92 151.18 Z M 111.95 151.64 L 111.03 152.11 C 110.26 152.51 109.96 153.45 110.36 154.22 C 110.76 154.99 111.70 155.29 112.47 154.89 L 113.39 154.41 C 114.15 154.02 114.45 153.08 114.06 152.31 C 113.66 151.54 112.72 151.24 111.95 151.64 Z M 110.99 152.13 L 110.11 152.61 C 109.35 153.03 109.08 153.99 109.50 154.75 C 109.92 155.51 110.87 155.78 111.63 155.36 L 112.51 154.88 C 113.27 154.46 113.54 153.50 113.12 152.74 C 112.70 151.98 111.75 151.71 110.99 152.13 Z M 110.06 152.64 L 109.24 153.13 C 108.49 153.58 108.25 154.55 108.70 155.29 C 109.15 156.04 110.12 156.28 110.87 155.83 L 111.69 155.34 C 112.43 154.89 112.67 153.92 112.22 153.17 C 111.78 152.43 110.81 152.19 110.06 152.64 Z M 109.15 153.17 L 108.14 153.86 C 107.41 154.36 107.23 155.35 107.73 156.08 C 108.22 156.80 109.21 156.99 109.94 156.49 L 110.96 155.79 C 111.68 155.29 111.86 154.30 111.37 153.58 C 110.87 152.85 109.88 152.67 109.15 153.17 Z M 107.90 154.04 L 107.19 154.74 C 106.56 155.37 106.56 156.39 107.19 157.02 C 107.82 157.65 108.85 157.65 109.48 157.02 L 110.18 156.32 C 110.81 155.69 110.81 154.66 110.18 154.04 C 109.55 153.41 108.53 153.41 107.90 154.04 Z M 106.75 156.28 L 106.86 156.73 C 107.08 157.60 107.97 158.13 108.85 157.91 C 109.72 157.69 110.25 156.80 110.03 155.93 L 109.92 155.48 C 109.70 154.61 108.81 154.08 107.93 154.30 C 107.06 154.52 106.53 155.41 106.75 156.28 Z M 108.09 157.94 L 108.75 158.08 C 109.63 158.28 110.51 157.71 110.71 156.83 C 110.91 155.94 110.34 155.06 109.46 154.86 L 108.80 154.72 C 107.91 154.52 107.03 155.08 106.84 155.97 C 106.64 156.86 107.20 157.74 108.09 157.94 Z M 109.10 158.13 L 110.12 158.12 C 111.04 158.12 111.78 157.38 111.78 156.47 C 111.78 155.55 111.04 154.81 110.12 154.81 L 109.10 154.82 C 108.19 154.82 107.44 155.56 107.45 156.47 C 107.45 157.39 108.19 158.13 109.10 158.13 Z M 110.30 158.12 L 111.55 157.99 C 112.46 157.90 113.13 157.08 113.03 156.17 C 112.94 155.25 112.12 154.59 111.21 154.69 L 109.95 154.82 C 109.04 154.91 108.37 155.73 108.47 156.64 C 108.57 157.56 109.38 158.22 110.30 158.12 Z M 111.67 157.98 L 112.81 157.78 C 113.71 157.62 114.32 156.75 114.16 155.85 C 114.00 154.94 113.13 154.33 112.23 154.50 L 111.09 154.70 C 110.18 154.86 109.58 155.72 109.74 156.63 C 109.90 157.54 110.76 158.14 111.67 157.98 Z M 112.89 157.76 L 113.90 157.53 C 114.80 157.33 115.36 156.43 115.15 155.53 C 114.95 154.64 114.05 154.07 113.15 154.28 L 112.14 154.51 C 111.25 154.72 110.68 155.61 110.89 156.51 C 111.10 157.41 111.99 157.97 112.89 157.76 Z M 113.95 157.52 L 114.95 157.25 C 115.84 157.02 116.37 156.10 116.13 155.21 C 115.90 154.32 114.98 153.79 114.09 154.03 L 113.10 154.29 C 112.21 154.53 111.68 155.44 111.91 156.33 C 112.15 157.23 113.06 157.76 113.95 157.52 Z M 114.99 157.24 L 115.95 156.96 C 116.83 156.70 117.34 155.78 117.08 154.89 C 116.83 154.01 115.90 153.50 115.01 153.76 L 114.05 154.04 C 113.17 154.30 112.66 155.23 112.92 156.11 C 113.18 156.99 114.10 157.50 114.99 157.24 Z M 115.98 156.95 L 116.88 156.67 C 117.76 156.40 118.26 155.47 117.98 154.59 C 117.71 153.71 116.78 153.21 115.90 153.49 L 114.99 153.77 C 114.11 154.04 113.62 154.97 113.89 155.85 C 114.16 156.73 115.10 157.23 115.98 156.95 Z M 116.90 156.67 L 117.89 156.35 C 118.77 156.07 119.25 155.13 118.97 154.26 C 118.69 153.38 117.75 152.89 116.88 153.17 L 115.88 153.49 C 115.01 153.77 114.52 154.71 114.80 155.59 C 115.08 156.46 116.02 156.95 116.90 156.67 Z M 117.90 156.35 L 118.87 156.03 C 119.74 155.75 120.22 154.81 119.94 153.93 C 119.65 153.06 118.71 152.58 117.83 152.86 L 116.87 153.18 C 115.99 153.46 115.51 154.40 115.80 155.28 C 116.08 156.16 117.02 156.63 117.90 156.35 Z M 118.88 156.03 L 119.79 155.73 C 120.66 155.44 121.13 154.49 120.84 153.62 C 120.55 152.75 119.61 152.27 118.74 152.56 L 117.82 152.87 C 116.95 153.16 116.48 154.10 116.77 154.97 C 117.06 155.85 118.00 156.32 118.88 156.03 Z M 119.79 155.73 L 120.70 155.42 C 121.57 155.13 122.04 154.18 121.75 153.31 C 121.45 152.44 120.51 151.97 119.63 152.26 L 118.73 152.57 C 117.86 152.86 117.39 153.81 117.68 154.68 C 117.98 155.55 118.92 156.02 119.79 155.73 Z M 120.70 155.42 L 121.62 155.11 C 122.49 154.81 122.95 153.86 122.66 152.99 C 122.36 152.12 121.41 151.66 120.54 151.95 L 119.63 152.26 C 118.76 152.56 118.29 153.51 118.59 154.38 C 118.89 155.25 119.83 155.72 120.70 155.42 Z M 121.62 155.11 L 122.56 154.78 C 123.43 154.48 123.89 153.54 123.60 152.67 C 123.30 151.80 122.35 151.33 121.48 151.63 L 120.54 151.95 C 119.67 152.25 119.20 153.20 119.50 154.07 C 119.80 154.94 120.75 155.40 121.62 155.11 Z M 122.56 154.78 L 123.52 154.45 C 124.39 154.15 124.85 153.20 124.55 152.33 C 124.25 151.46 123.30 151.00 122.43 151.30 L 121.47 151.63 C 120.60 151.93 120.14 152.88 120.45 153.75 C 120.75 154.62 121.70 155.08 122.56 154.78 Z M 123.53 154.45 L 124.49 154.11 C 125.36 153.81 125.82 152.86 125.52 151.99 C 125.21 151.12 124.26 150.66 123.39 150.97 L 122.43 151.30 C 121.56 151.61 121.10 152.56 121.41 153.42 C 121.71 154.29 122.66 154.75 123.53 154.45 Z M 124.50 154.11 L 125.43 153.78 C 126.30 153.47 126.76 152.52 126.45 151.66 C 126.15 150.79 125.19 150.33 124.33 150.64 L 123.39 150.97 C 122.52 151.27 122.07 152.22 122.37 153.09 C 122.68 153.96 123.63 154.41 124.50 154.11 Z M 125.43 153.78 L 126.37 153.45 C 127.24 153.14 127.69 152.19 127.39 151.33 C 127.08 150.46 126.13 150.00 125.26 150.31 L 124.33 150.64 C 123.46 150.94 123.00 151.89 123.31 152.76 C 123.62 153.63 124.57 154.08 125.43 153.78 Z M 126.36 153.45 L 127.31 153.12 C 128.18 152.82 128.63 151.87 128.33 151.00 C 128.03 150.13 127.08 149.68 126.21 149.98 L 125.27 150.31 C 124.40 150.61 123.94 151.56 124.24 152.43 C 124.55 153.30 125.50 153.75 126.36 153.45 Z M 127.30 153.12 L 128.26 152.79 C 129.13 152.50 129.59 151.55 129.29 150.68 C 128.99 149.81 128.05 149.35 127.18 149.65 L 126.22 149.98 C 125.35 150.27 124.89 151.22 125.19 152.09 C 125.48 152.96 126.43 153.42 127.30 153.12 Z M 128.25 152.80 L 129.17 152.49 C 130.04 152.19 130.51 151.25 130.22 150.38 C 129.93 149.51 128.99 149.04 128.11 149.33 L 127.19 149.64 C 126.32 149.94 125.85 150.88 126.14 151.75 C 126.44 152.62 127.38 153.09 128.25 152.80 Z M 129.17 152.49 L 130.11 152.18 C 130.98 151.89 131.45 150.95 131.16 150.08 C 130.87 149.20 129.93 148.73 129.06 149.02 L 128.12 149.33 C 127.25 149.62 126.78 150.56 127.07 151.43 C 127.36 152.30 128.30 152.78 129.17 152.49 Z M 130.10 152.18 L 131.06 151.86 C 131.93 151.57 132.40 150.64 132.12 149.76 C 131.83 148.89 130.89 148.42 130.02 148.71 L 129.07 149.02 C 128.20 149.31 127.72 150.25 128.01 151.12 C 128.29 151.99 129.23 152.46 130.10 152.18 Z M 131.06 151.86 L 132.03 151.54 C 132.90 151.25 133.37 150.31 133.08 149.44 C 132.80 148.57 131.86 148.10 130.99 148.39 L 130.02 148.71 C 129.15 149.00 128.68 149.93 128.97 150.80 C 129.25 151.67 130.19 152.15 131.06 151.86 Z M 132.03 151.54 L 132.99 151.22 C 133.85 150.93 134.32 149.99 134.03 149.12 C 133.74 148.25 132.80 147.78 131.94 148.07 L 130.98 148.39 C 130.12 148.68 129.65 149.62 129.94 150.49 C 130.23 151.36 131.17 151.83 132.03 151.54 Z M 132.99 151.21 L 133.94 150.89 C 134.80 150.60 135.27 149.66 134.97 148.79 C 134.68 147.93 133.74 147.46 132.87 147.76 L 131.93 148.08 C 131.06 148.37 130.60 149.31 130.89 150.18 C 131.19 151.04 132.13 151.51 132.99 151.21 Z M 133.95 150.89 L 134.89 150.56 C 135.76 150.26 136.22 149.32 135.92 148.46 C 135.62 147.59 134.68 147.13 133.81 147.43 L 132.87 147.76 C 132.00 148.06 131.54 149.00 131.84 149.87 C 132.14 150.73 133.08 151.19 133.95 150.89 Z M 134.90 150.55 L 135.85 150.22 C 136.71 149.92 137.16 148.97 136.86 148.11 C 136.55 147.25 135.61 146.80 134.75 147.10 L 133.80 147.44 C 132.94 147.74 132.49 148.69 132.79 149.55 C 133.10 150.41 134.04 150.86 134.90 150.55 Z M 135.86 150.21 L 136.80 149.87 C 137.66 149.56 138.10 148.62 137.79 147.76 C 137.48 146.90 136.53 146.46 135.68 146.77 L 134.74 147.11 C 133.88 147.42 133.44 148.37 133.75 149.22 C 134.06 150.08 135.00 150.53 135.86 150.21 Z M 136.81 149.87 L 137.75 149.52 C 138.60 149.20 139.04 148.25 138.72 147.40 C 138.40 146.55 137.46 146.11 136.60 146.43 L 135.67 146.78 C 134.81 147.09 134.38 148.04 134.70 148.89 C 135.01 149.75 135.96 150.18 136.81 149.87 Z M 137.76 149.51 L 138.69 149.16 C 139.54 148.84 139.97 147.89 139.65 147.04 C 139.33 146.19 138.38 145.76 137.53 146.08 L 136.60 146.43 C 135.75 146.76 135.32 147.70 135.64 148.55 C 135.96 149.40 136.91 149.83 137.76 149.51 Z M 138.69 149.15 L 139.63 148.80 C 140.47 148.47 140.90 147.53 140.58 146.68 C 140.25 145.83 139.31 145.41 138.46 145.73 L 137.53 146.09 C 136.68 146.41 136.25 147.36 136.58 148.20 C 136.90 149.05 137.85 149.48 138.69 149.15 Z M 139.63 148.79 L 140.56 148.43 C 141.41 148.11 141.83 147.17 141.51 146.32 C 141.19 145.48 140.24 145.06 139.40 145.38 L 138.46 145.74 C 137.62 146.06 137.19 147.00 137.52 147.85 C 137.84 148.69 138.78 149.12 139.63 148.79 Z M 140.56 148.43 L 141.48 148.08 C 142.32 147.76 142.74 146.82 142.42 145.98 C 142.10 145.14 141.16 144.71 140.32 145.03 L 139.40 145.38 C 138.56 145.70 138.13 146.64 138.45 147.49 C 138.78 148.33 139.72 148.75 140.56 148.43 Z M 141.47 148.08 L 142.39 147.73 C 143.23 147.41 143.65 146.47 143.34 145.63 C 143.02 144.79 142.08 144.37 141.24 144.69 L 140.32 145.04 C 139.48 145.35 139.05 146.29 139.37 147.13 C 139.69 147.98 140.63 148.40 141.47 148.08 Z M 142.39 147.73 L 143.32 147.38 C 144.16 147.06 144.58 146.12 144.26 145.28 C 143.95 144.44 143.01 144.02 142.17 144.34 L 141.24 144.69 C 140.40 145.01 139.98 145.95 140.29 146.79 C 140.61 147.62 141.55 148.05 142.39 147.73 Z M 143.32 147.37 L 144.27 147.01 C 145.10 146.69 145.53 145.76 145.21 144.92 C 144.89 144.09 143.96 143.67 143.12 143.98 L 142.17 144.34 C 141.33 144.66 140.91 145.60 141.23 146.43 C 141.55 147.27 142.48 147.69 143.32 147.37 Z M 144.27 147.01 L 145.23 146.64 C 146.06 146.32 146.48 145.39 146.16 144.56 C 145.84 143.72 144.91 143.31 144.08 143.62 L 143.12 143.99 C 142.29 144.31 141.87 145.24 142.19 146.07 C 142.50 146.91 143.44 147.32 144.27 147.01 Z M 145.23 146.63 L 146.17 146.27 C 147.00 145.96 147.41 145.02 147.09 144.20 C 146.77 143.37 145.84 142.95 145.01 143.27 L 144.08 143.63 C 143.25 143.95 142.83 144.88 143.15 145.71 C 143.47 146.54 144.40 146.95 145.23 146.63 Z M 146.17 146.27 L 147.11 145.90 C 147.94 145.58 148.35 144.65 148.03 143.83 C 147.71 143.00 146.78 142.59 145.96 142.91 L 145.01 143.28 C 144.19 143.60 143.77 144.52 144.09 145.35 C 144.41 146.18 145.34 146.59 146.17 146.27 Z M 147.11 145.90 L 148.05 145.53 C 148.88 145.21 149.28 144.28 148.96 143.46 C 148.64 142.64 147.72 142.23 146.90 142.55 L 145.95 142.92 C 145.13 143.24 144.73 144.16 145.05 144.99 C 145.37 145.81 146.29 146.22 147.11 145.90 Z M 148.05 145.52 L 148.98 145.16 C 149.80 144.84 150.20 143.92 149.88 143.10 C 149.56 142.28 148.64 141.88 147.82 142.20 L 146.89 142.56 C 146.08 142.88 145.67 143.80 145.99 144.62 C 146.31 145.44 147.24 145.84 148.05 145.52 Z M 148.98 145.15 L 149.91 144.79 C 150.73 144.47 151.13 143.55 150.81 142.73 C 150.49 141.92 149.57 141.52 148.75 141.84 L 147.82 142.20 C 147.01 142.52 146.61 143.44 146.93 144.26 C 147.25 145.07 148.17 145.47 148.98 145.15 Z M 149.91 144.78 L 150.87 144.40 C 151.68 144.08 152.08 143.16 151.76 142.35 C 151.44 141.54 150.52 141.14 149.71 141.47 L 148.75 141.84 C 147.94 142.17 147.54 143.08 147.87 143.89 C 148.19 144.70 149.10 145.10 149.91 144.78 Z M 150.87 144.39 L 151.80 144.02 C 152.61 143.70 153.00 142.78 152.68 141.98 C 152.35 141.17 151.44 140.78 150.63 141.10 L 149.71 141.47 C 148.90 141.80 148.51 142.71 148.83 143.52 C 149.15 144.32 150.07 144.71 150.87 144.39 Z M 151.81 144.01 L 152.72 143.64 C 153.52 143.32 153.90 142.40 153.58 141.60 C 153.25 140.80 152.34 140.42 151.54 140.74 L 150.63 141.11 C 149.83 141.44 149.44 142.35 149.77 143.15 C 150.09 143.95 151.01 144.33 151.81 144.01 Z M 152.72 143.63 L 153.62 143.26 C 154.42 142.93 154.79 142.02 154.47 141.23 C 154.14 140.43 153.23 140.05 152.43 140.38 L 151.53 140.75 C 150.74 141.08 150.36 141.99 150.69 142.78 C 151.02 143.58 151.93 143.96 152.72 143.63 Z M 153.63 143.25 L 154.55 142.86 C 155.34 142.53 155.71 141.62 155.38 140.83 C 155.05 140.04 154.14 139.67 153.35 140.00 L 152.43 140.39 C 151.64 140.72 151.27 141.63 151.60 142.42 C 151.93 143.21 152.84 143.58 153.63 143.25 Z M 154.55 142.85 L 155.48 142.46 C 156.26 142.13 156.63 141.22 156.29 140.44 C 155.96 139.65 155.05 139.29 154.27 139.62 L 153.35 140.01 C 152.56 140.35 152.20 141.25 152.53 142.04 C 152.86 142.82 153.77 143.18 154.55 142.85 Z M 155.48 142.45 L 156.40 142.06 C 157.18 141.73 157.54 140.82 157.20 140.05 C 156.87 139.27 155.97 138.90 155.19 139.24 L 154.27 139.63 C 153.49 139.96 153.13 140.86 153.46 141.64 C 153.80 142.42 154.70 142.78 155.48 142.45 Z M 156.39 142.05 L 157.31 141.66 C 158.08 141.33 158.44 140.43 158.11 139.66 C 157.78 138.88 156.89 138.52 156.11 138.85 L 155.20 139.24 C 154.42 139.57 154.06 140.47 154.39 141.25 C 154.72 142.02 155.62 142.38 156.39 142.05 Z M 157.30 141.65 L 158.23 141.26 C 159.00 140.93 159.36 140.04 159.04 139.27 C 158.71 138.50 157.82 138.14 157.05 138.47 L 156.12 138.86 C 155.35 139.19 154.99 140.08 155.31 140.85 C 155.64 141.62 156.53 141.98 157.30 141.65 Z M 158.22 141.26 L 159.16 140.86 C 159.93 140.54 160.29 139.66 159.96 138.89 C 159.64 138.12 158.76 137.76 157.99 138.08 L 157.05 138.47 C 156.29 138.79 155.92 139.68 156.25 140.45 C 156.57 141.22 157.46 141.58 158.22 141.26 Z M 159.15 140.86 L 160.08 140.47 C 160.84 140.15 161.20 139.27 160.88 138.50 C 160.56 137.74 159.68 137.38 158.91 137.70 L 157.99 138.09 C 157.23 138.41 156.87 139.29 157.19 140.05 C 157.51 140.82 158.39 141.18 159.15 140.86 Z M 160.08 140.46 L 160.99 140.08 C 161.75 139.76 162.10 138.88 161.78 138.12 C 161.46 137.36 160.58 137.00 159.82 137.32 L 158.91 137.71 C 158.15 138.03 157.80 138.91 158.12 139.67 C 158.44 140.43 159.32 140.78 160.08 140.46 Z M 160.99 140.07 L 161.91 139.67 C 162.67 139.35 163.02 138.47 162.69 137.72 C 162.37 136.96 161.50 136.61 160.74 136.94 L 159.82 137.33 C 159.06 137.66 158.71 138.53 159.04 139.29 C 159.36 140.04 160.23 140.39 160.99 140.07 Z M 161.91 139.66 L 162.85 139.26 C 163.60 138.93 163.94 138.06 163.62 137.31 C 163.29 136.56 162.42 136.22 161.67 136.54 L 160.74 136.95 C 159.99 137.27 159.64 138.14 159.97 138.89 C 160.29 139.64 161.17 139.99 161.91 139.66 Z M 162.85 139.25 L 163.77 138.85 C 164.51 138.53 164.85 137.66 164.53 136.91 C 164.20 136.17 163.34 135.83 162.59 136.15 L 161.67 136.55 C 160.93 136.87 160.59 137.74 160.91 138.49 C 161.23 139.23 162.10 139.57 162.85 139.25 Z M 163.76 138.85 L 164.66 138.46 C 165.40 138.14 165.74 137.28 165.42 136.53 C 165.10 135.79 164.24 135.45 163.50 135.77 L 162.60 136.15 C 161.85 136.47 161.51 137.34 161.83 138.08 C 162.15 138.82 163.01 139.17 163.76 138.85 Z M 164.65 138.46 L 165.47 138.11 C 166.21 137.79 166.56 136.94 166.25 136.20 C 165.93 135.45 165.08 135.11 164.33 135.42 L 163.51 135.77 C 162.77 136.08 162.42 136.94 162.73 137.68 C 163.05 138.42 163.90 138.77 164.65 138.46 Z M 165.46 138.11 L 166.26 137.77 C 167.00 137.47 167.35 136.61 167.04 135.87 C 166.74 135.13 165.89 134.78 165.15 135.09 L 164.34 135.42 C 163.60 135.73 163.25 136.58 163.56 137.32 C 163.87 138.06 164.72 138.41 165.46 138.11 Z M 166.26 137.77 L 167.13 137.41 C 167.87 137.10 168.22 136.25 167.91 135.52 C 167.61 134.78 166.76 134.43 166.02 134.73 L 165.15 135.09 C 164.41 135.40 164.06 136.25 164.36 136.99 C 164.67 137.72 165.52 138.08 166.26 137.77 Z M 167.13 137.40 L 168.13 136.99 C 168.86 136.68 169.21 135.83 168.90 135.10 C 168.59 134.36 167.75 134.01 167.01 134.32 L 166.02 134.74 C 165.28 135.05 164.94 135.89 165.24 136.63 C 165.55 137.36 166.40 137.71 167.13 137.40 Z M 168.13 136.98 L 169.20 136.52 C 169.93 136.21 170.27 135.37 169.96 134.64 C 169.65 133.91 168.81 133.56 168.08 133.87 L 167.01 134.33 C 166.28 134.64 165.93 135.48 166.25 136.22 C 166.56 136.95 167.40 137.29 168.13 136.98 Z M 169.21 136.52 L 169.98 136.19 C 170.71 135.87 171.05 135.03 170.74 134.30 C 170.42 133.57 169.58 133.23 168.85 133.55 L 168.07 133.88 C 167.34 134.19 167.01 135.04 167.32 135.77 C 167.63 136.50 168.48 136.83 169.21 136.52 Z M 169.99 136.18 L 170.83 135.82 C 171.56 135.50 171.89 134.66 171.58 133.93 C 171.26 133.20 170.42 132.87 169.69 133.18 L 168.85 133.55 C 168.12 133.86 167.78 134.71 168.10 135.44 C 168.41 136.16 169.26 136.50 169.99 136.18 Z M 170.83 135.82 L 171.73 135.43 C 172.45 135.11 172.78 134.27 172.47 133.54 C 172.15 132.81 171.31 132.48 170.58 132.80 L 169.69 133.19 C 168.96 133.50 168.63 134.35 168.94 135.07 C 169.26 135.80 170.10 136.13 170.83 135.82 Z M 171.73 135.43 L 172.67 135.02 C 173.39 134.70 173.72 133.86 173.41 133.13 C 173.09 132.40 172.24 132.07 171.52 132.39 L 170.58 132.80 C 169.86 133.12 169.52 133.96 169.84 134.69 C 170.16 135.41 171.00 135.74 171.73 135.43 Z M 172.67 135.01 L 173.64 134.59 C 174.36 134.27 174.69 133.43 174.38 132.70 C 174.06 131.98 173.22 131.65 172.49 131.97 L 171.52 132.39 C 170.79 132.71 170.46 133.55 170.78 134.28 C 171.10 135.00 171.94 135.33 172.67 135.01 Z M 173.64 134.59 L 174.63 134.15 C 175.36 133.83 175.69 132.99 175.37 132.27 C 175.05 131.54 174.21 131.21 173.49 131.53 L 172.49 131.97 C 171.77 132.28 171.44 133.13 171.75 133.85 C 172.07 134.58 172.92 134.90 173.64 134.59 Z M 174.63 134.15 L 175.64 133.71 C 176.37 133.39 176.69 132.55 176.38 131.83 C 176.06 131.10 175.22 130.77 174.49 131.09 L 173.49 131.53 C 172.76 131.85 172.43 132.69 172.75 133.42 C 173.07 134.14 173.91 134.47 174.63 134.15 Z M 175.64 133.71 L 175.90 133.59 C 176.62 133.28 176.95 132.43 176.64 131.71 C 176.32 130.99 175.48 130.66 174.75 130.98 L 174.49 131.09 C 173.77 131.41 173.44 132.25 173.76 132.97 C 174.08 133.70 174.92 134.02 175.64 133.71 Z"
      fill="black"
      fill-rule="nonzero" /><path d="M 145.69 140.14 L 145.09 140.95 C 144.60 141.61 144.74 142.54 145.40 143.03 C 146.07 143.52 146.99 143.37 147.48 142.71 L 148.08 141.90 C 148.57 141.24 148.43 140.31 147.77 139.82 C 147.10 139.33 146.18 139.48 145.69 140.14 Z M 145.08 140.97 L 144.49 141.79 C 144.01 142.46 144.17 143.38 144.84 143.86 C 145.50 144.34 146.43 144.18 146.91 143.52 L 147.49 142.70 C 147.97 142.03 147.82 141.10 147.15 140.62 C 146.48 140.15 145.55 140.30 145.08 140.97 Z M 144.47 141.82 L 143.91 142.65 C 143.45 143.33 143.63 144.25 144.31 144.71 C 145.00 145.17 145.92 144.99 146.38 144.31 L 146.93 143.48 C 147.39 142.80 147.21 141.88 146.53 141.42 C 145.85 140.96 144.92 141.14 144.47 141.82 Z M 143.87 142.70 L 143.38 143.51 C 142.95 144.21 143.17 145.13 143.87 145.56 C 144.57 145.99 145.49 145.77 145.92 145.06 L 146.41 144.26 C 146.84 143.55 146.62 142.64 145.92 142.21 C 145.22 141.78 144.30 142.00 143.87 142.70 Z M 143.33 143.58 L 142.92 144.35 C 142.52 145.08 142.80 145.98 143.52 146.38 C 144.25 146.77 145.16 146.50 145.55 145.77 L 145.96 145.00 C 146.36 144.27 146.08 143.36 145.36 142.97 C 144.63 142.58 143.72 142.85 143.33 143.58 Z M 142.87 144.43 L 142.47 145.28 C 142.13 146.03 142.45 146.92 143.21 147.27 C 143.96 147.62 144.86 147.29 145.20 146.54 L 145.60 145.69 C 145.95 144.94 145.62 144.04 144.86 143.70 C 144.11 143.35 143.22 143.68 142.87 144.43 Z M 142.43 145.35 L 142.05 146.33 C 141.74 147.10 142.12 147.98 142.90 148.29 C 143.68 148.59 144.56 148.21 144.86 147.44 L 145.25 146.46 C 145.55 145.69 145.17 144.81 144.39 144.50 C 143.62 144.19 142.74 144.58 142.43 145.35 Z M 142.02 146.39 L 141.64 147.48 C 141.37 148.28 141.79 149.15 142.59 149.42 C 143.39 149.69 144.25 149.26 144.52 148.47 L 144.90 147.37 C 145.17 146.58 144.74 145.71 143.95 145.44 C 143.15 145.17 142.29 145.59 142.02 146.39 Z M 141.62 147.52 L 141.35 148.38 C 141.10 149.19 141.55 150.05 142.36 150.30 C 143.17 150.55 144.03 150.10 144.28 149.29 L 144.55 148.43 C 144.80 147.62 144.34 146.76 143.54 146.51 C 142.73 146.26 141.87 146.71 141.62 147.52 Z M 141.33 148.41 L 141.06 149.34 C 140.83 150.16 141.30 151.01 142.12 151.25 C 142.94 151.49 143.79 151.01 144.03 150.19 L 144.30 149.26 C 144.54 148.44 144.06 147.59 143.25 147.35 C 142.43 147.11 141.57 147.59 141.33 148.41 Z M 141.05 149.36 L 140.78 150.34 C 140.55 151.17 141.04 152.02 141.87 152.25 C 142.70 152.47 143.56 151.98 143.78 151.15 L 144.05 150.17 C 144.27 149.34 143.78 148.49 142.96 148.26 C 142.13 148.04 141.27 148.53 141.05 149.36 Z M 140.76 150.36 L 140.50 151.37 C 140.29 152.21 140.79 153.06 141.63 153.28 C 142.47 153.49 143.33 152.99 143.54 152.15 L 143.80 151.13 C 144.01 150.30 143.51 149.44 142.67 149.23 C 141.83 149.01 140.98 149.52 140.76 150.36 Z M 140.49 151.39 L 140.24 152.41 C 140.04 153.26 140.56 154.11 141.41 154.32 C 142.26 154.52 143.11 154.00 143.31 153.15 L 143.56 152.13 C 143.76 151.28 143.24 150.43 142.39 150.22 C 141.54 150.02 140.69 150.54 140.49 151.39 Z M 140.23 152.43 L 140.00 153.44 C 139.81 154.30 140.35 155.15 141.20 155.34 C 142.06 155.53 142.91 154.99 143.10 154.14 L 143.33 153.13 C 143.52 152.27 142.98 151.42 142.12 151.23 C 141.27 151.04 140.42 151.58 140.23 152.43 Z M 139.98 153.47 L 139.76 154.57 C 139.58 155.43 140.14 156.28 141.01 156.45 C 141.87 156.63 142.72 156.07 142.89 155.21 L 143.12 154.11 C 143.29 153.25 142.74 152.40 141.87 152.22 C 141.01 152.05 140.16 152.61 139.98 153.47 Z M 139.75 154.60 L 139.55 155.67 C 139.39 156.55 139.96 157.38 140.84 157.55 C 141.71 157.71 142.55 157.13 142.71 156.26 L 142.91 155.18 C 143.07 154.31 142.49 153.47 141.62 153.31 C 140.74 153.15 139.91 153.72 139.75 154.60 Z M 139.53 155.70 L 139.37 156.72 C 139.22 157.60 139.81 158.43 140.70 158.58 C 141.58 158.72 142.41 158.13 142.55 157.25 L 142.72 156.23 C 142.87 155.35 142.27 154.52 141.39 154.37 C 140.51 154.22 139.68 154.82 139.53 155.70 Z M 139.35 156.75 L 139.21 157.70 C 139.08 158.59 139.69 159.42 140.58 159.55 C 141.46 159.68 142.29 159.07 142.42 158.18 L 142.57 157.22 C 142.70 156.34 142.09 155.51 141.20 155.38 C 140.31 155.25 139.49 155.86 139.35 156.75 Z M 139.20 157.73 L 139.08 158.62 C 138.96 159.51 139.59 160.33 140.48 160.45 C 141.37 160.57 142.19 159.95 142.31 159.05 L 142.43 158.16 C 142.55 157.27 141.93 156.45 141.03 156.33 C 140.14 156.21 139.32 156.83 139.20 157.73 Z M 139.07 158.64 L 138.96 159.57 C 138.85 160.47 139.49 161.28 140.39 161.39 C 141.29 161.50 142.10 160.86 142.21 159.96 L 142.32 159.03 C 142.43 158.13 141.79 157.32 140.89 157.21 C 139.99 157.10 139.18 157.74 139.07 158.64 Z M 138.95 159.59 L 138.83 160.66 C 138.74 161.57 139.39 162.38 140.29 162.47 C 141.20 162.57 142.01 161.92 142.11 161.01 L 142.22 159.94 C 142.32 159.04 141.66 158.22 140.76 158.13 C 139.86 158.03 139.04 158.68 138.95 159.59 Z M 138.82 160.69 L 138.73 161.66 C 138.65 162.57 139.32 163.37 140.23 163.46 C 141.13 163.54 141.94 162.87 142.02 161.97 L 142.11 160.99 C 142.20 160.08 141.53 159.28 140.62 159.19 C 139.71 159.11 138.91 159.78 138.82 160.69 Z M 138.73 161.68 L 138.65 162.60 C 138.58 163.52 139.26 164.32 140.17 164.39 C 141.08 164.47 141.88 163.79 141.96 162.87 L 142.03 161.95 C 142.11 161.04 141.43 160.24 140.51 160.16 C 139.60 160.09 138.80 160.77 138.73 161.68 Z M 138.64 162.61 L 138.57 163.56 C 138.50 164.47 139.19 165.27 140.10 165.34 C 141.02 165.41 141.82 164.73 141.89 163.81 L 141.96 162.87 C 142.03 161.95 141.35 161.15 140.43 161.08 C 139.51 161.01 138.71 161.69 138.64 162.61 Z M 138.56 163.56 L 138.49 164.55 C 138.42 165.47 139.11 166.27 140.03 166.34 C 140.95 166.41 141.75 165.72 141.82 164.80 L 141.90 163.81 C 141.97 162.89 141.28 162.09 140.36 162.02 C 139.44 161.95 138.63 162.64 138.56 163.56 Z M 138.48 164.55 L 138.41 165.55 C 138.34 166.47 139.03 167.28 139.96 167.35 C 140.88 167.42 141.69 166.72 141.75 165.80 L 141.83 164.80 C 141.90 163.87 141.20 163.07 140.28 163.00 C 139.36 162.93 138.55 163.62 138.48 164.55 Z M 138.40 165.55 L 138.33 166.57 C 138.26 167.50 138.96 168.30 139.88 168.37 C 140.81 168.44 141.62 167.74 141.69 166.81 L 141.76 165.80 C 141.83 164.87 141.13 164.06 140.20 163.99 C 139.28 163.93 138.47 164.62 138.40 165.55 Z M 138.32 166.57 L 138.25 167.54 C 138.18 168.47 138.88 169.28 139.82 169.35 C 140.75 169.41 141.56 168.71 141.62 167.78 L 141.69 166.81 C 141.76 165.88 141.06 165.07 140.13 165.00 C 139.20 164.94 138.39 165.64 138.32 166.57 Z M 138.24 167.54 L 138.18 168.53 C 138.11 169.46 138.82 170.27 139.75 170.34 C 140.69 170.40 141.50 169.69 141.56 168.76 L 141.63 167.77 C 141.69 166.84 140.99 166.03 140.05 165.97 C 139.12 165.90 138.31 166.61 138.24 167.54 Z M 138.17 168.54 L 138.11 169.55 C 138.05 170.49 138.76 171.29 139.70 171.35 C 140.64 171.41 141.45 170.70 141.51 169.76 L 141.57 168.75 C 141.63 167.81 140.91 167.00 139.98 166.94 C 139.04 166.89 138.23 167.60 138.17 168.54 Z M 138.10 169.56 L 138.05 170.59 C 138.00 171.53 138.72 172.34 139.66 172.39 C 140.61 172.44 141.41 171.71 141.46 170.77 L 141.51 169.74 C 141.56 168.80 140.84 168.00 139.90 167.95 C 138.96 167.90 138.15 168.62 138.10 169.56 Z M 138.04 170.61 L 138.00 171.61 C 137.96 172.56 138.69 173.36 139.64 173.40 C 140.58 173.44 141.38 172.71 141.42 171.76 L 141.47 170.75 C 141.51 169.81 140.77 169.01 139.83 168.97 C 138.88 168.93 138.08 169.66 138.04 170.61 Z M 137.99 171.63 L 137.96 172.64 C 137.93 173.59 138.67 174.38 139.61 174.42 C 140.56 174.45 141.36 173.71 141.39 172.76 L 141.43 171.75 C 141.46 170.80 140.72 170.00 139.77 169.97 C 138.82 169.94 138.03 170.68 137.99 171.63 Z M 137.95 172.65 L 137.93 173.65 C 137.90 174.61 138.65 175.40 139.60 175.42 C 140.55 175.45 141.34 174.70 141.37 173.75 L 141.40 172.75 C 141.42 171.80 140.67 171.00 139.72 170.98 C 138.77 170.95 137.98 171.70 137.95 172.65 Z M 137.92 173.67 L 137.90 174.66 C 137.88 175.61 138.64 176.40 139.59 176.42 C 140.55 176.44 141.34 175.68 141.35 174.73 L 141.37 173.74 C 141.39 172.78 140.63 171.99 139.68 171.98 C 138.73 171.96 137.94 172.71 137.92 173.67 Z M 137.90 174.67 L 137.89 175.72 C 137.87 176.67 138.64 177.45 139.60 177.47 C 140.55 177.48 141.34 176.71 141.35 175.76 L 141.36 174.71 C 141.37 173.76 140.60 172.98 139.65 172.96 C 138.69 172.95 137.91 173.72 137.90 174.67 Z M 137.88 175.73 L 137.88 176.72 C 137.87 177.68 138.64 178.46 139.60 178.47 C 140.56 178.47 141.34 177.70 141.35 176.74 L 141.35 175.74 C 141.36 174.79 140.58 174.01 139.62 174.00 C 138.67 174.00 137.89 174.77 137.88 175.73 Z M 137.87 176.73 L 137.87 177.69 C 137.87 178.66 138.65 179.44 139.61 179.44 C 140.57 179.44 141.35 178.66 141.35 177.70 L 141.35 176.73 C 141.35 175.77 140.57 174.99 139.61 174.99 C 138.65 174.99 137.87 175.77 137.87 176.73 Z M 137.87 177.70 L 137.87 178.62 C 137.87 179.59 138.65 180.37 139.61 180.37 C 140.57 180.37 141.35 179.59 141.35 178.62 L 141.35 177.70 C 141.35 176.73 140.57 175.95 139.61 175.95 C 138.65 175.95 137.87 176.73 137.87 177.70 Z M 137.86 178.62 L 137.86 179.55 C 137.86 180.52 138.64 181.30 139.61 181.30 C 140.57 181.30 141.36 180.52 141.36 179.55 L 141.36 178.62 C 141.36 177.66 140.57 176.87 139.61 176.87 C 138.64 176.87 137.86 177.66 137.86 178.62 Z M 137.86 179.55 L 137.86 180.55 C 137.86 181.52 138.64 182.31 139.61 182.31 C 140.58 182.31 141.36 181.52 141.36 180.55 L 141.36 179.55 C 141.36 178.59 140.58 177.80 139.61 177.80 C 138.64 177.80 137.86 178.59 137.86 179.55 Z M 137.85 180.55 L 137.85 181.67 C 137.85 182.64 138.64 183.42 139.61 183.42 C 140.58 183.42 141.36 182.64 141.36 181.67 L 141.36 180.55 C 141.36 179.59 140.58 178.80 139.61 178.80 C 138.64 178.80 137.85 179.59 137.85 180.55 Z M 137.85 181.67 L 137.85 182.61 C 137.85 183.58 138.64 184.36 139.61 184.36 C 140.58 184.36 141.37 183.57 141.37 182.60 L 141.37 181.67 C 141.37 180.70 140.58 179.91 139.61 179.91 C 138.64 179.91 137.85 180.70 137.85 181.67 Z M 137.85 182.62 L 137.85 183.60 C 137.86 184.57 138.66 185.35 139.63 185.35 C 140.60 185.34 141.39 184.55 141.38 183.57 L 141.37 182.59 C 141.37 181.62 140.57 180.83 139.60 180.84 C 138.62 180.85 137.84 181.64 137.85 182.62 Z M 137.85 183.62 L 137.87 184.64 C 137.89 185.62 138.69 186.39 139.67 186.37 C 140.64 186.36 141.42 185.55 141.40 184.58 L 141.38 183.55 C 141.36 182.58 140.56 181.80 139.58 181.82 C 138.61 181.84 137.83 182.64 137.85 183.62 Z M 137.87 184.67 L 137.90 185.71 C 137.94 186.69 138.76 187.45 139.74 187.42 C 140.71 187.38 141.48 186.56 141.44 185.58 L 141.40 184.55 C 141.37 183.57 140.55 182.80 139.57 182.84 C 138.60 182.87 137.83 183.69 137.87 184.67 Z M 137.90 185.75 L 137.96 186.78 C 138.02 187.76 138.86 188.50 139.84 188.45 C 140.82 188.39 141.56 187.55 141.51 186.57 L 141.44 185.54 C 141.38 184.56 140.54 183.82 139.57 183.88 C 138.59 183.93 137.84 184.77 137.90 185.75 Z M 137.97 186.84 L 138.07 187.93 C 138.16 188.91 139.03 189.62 140.00 189.53 C 140.98 189.44 141.70 188.57 141.61 187.60 L 141.50 186.51 C 141.41 185.53 140.55 184.81 139.57 184.91 C 138.59 185.00 137.87 185.86 137.97 186.84 Z M 138.07 188.00 L 138.22 189.05 C 138.35 190.02 139.25 190.70 140.22 190.57 C 141.19 190.44 141.87 189.54 141.74 188.57 L 141.60 187.52 C 141.47 186.55 140.57 185.87 139.60 186.00 C 138.62 186.13 137.94 187.03 138.07 188.00 Z M 138.23 189.13 L 138.41 190.11 C 138.59 191.08 139.52 191.72 140.49 191.54 C 141.45 191.36 142.09 190.43 141.91 189.46 L 141.73 188.48 C 141.55 187.51 140.62 186.88 139.65 187.06 C 138.69 187.24 138.05 188.17 138.23 189.13 Z M 138.43 190.22 L 138.66 191.12 C 138.89 192.08 139.86 192.66 140.82 192.42 C 141.77 192.19 142.35 191.22 142.12 190.27 L 141.89 189.36 C 141.65 188.40 140.69 187.82 139.73 188.06 C 138.78 188.29 138.20 189.26 138.43 190.22 Z M 138.69 191.26 L 139.00 192.19 C 139.31 193.12 140.32 193.63 141.26 193.32 C 142.19 193.01 142.70 192.00 142.39 191.06 L 142.08 190.13 C 141.77 189.20 140.76 188.69 139.83 189.00 C 138.89 189.31 138.38 190.32 138.69 191.26 Z M 139.09 192.39 L 139.55 193.36 C 139.97 194.25 141.04 194.63 141.93 194.20 C 142.82 193.78 143.19 192.71 142.77 191.83 L 142.31 190.86 C 141.88 189.97 140.82 189.59 139.93 190.01 C 139.04 190.44 138.66 191.50 139.09 192.39 Z M 139.74 193.67 L 140.32 194.44 C 140.91 195.22 142.03 195.38 142.82 194.78 C 143.60 194.19 143.76 193.07 143.16 192.28 L 142.58 191.52 C 141.99 190.73 140.87 190.58 140.08 191.17 C 139.30 191.77 139.14 192.89 139.74 193.67 Z M 140.67 194.79 L 141.39 195.33 C 142.19 195.91 143.30 195.75 143.89 194.96 C 144.48 194.16 144.31 193.05 143.52 192.46 L 142.80 191.92 C 142.01 191.34 140.89 191.50 140.30 192.30 C 139.72 193.09 139.88 194.21 140.67 194.79 Z M 141.93 195.60 L 142.85 195.88 C 143.79 196.18 144.79 195.65 145.09 194.71 C 145.38 193.77 144.85 192.77 143.91 192.48 L 142.99 192.19 C 142.05 191.89 141.05 192.42 140.75 193.36 C 140.46 194.30 140.98 195.30 141.93 195.60 Z M 143.39 195.97 L 144.39 195.96 C 145.38 195.95 146.17 195.15 146.17 194.16 C 146.16 193.18 145.35 192.38 144.37 192.39 L 143.37 192.40 C 142.38 192.40 141.59 193.21 141.60 194.19 C 141.60 195.18 142.41 195.97 143.39 195.97 Z M 144.91 195.88 L 145.88 195.58 C 146.83 195.28 147.35 194.28 147.06 193.34 C 146.77 192.40 145.77 191.88 144.83 192.17 L 143.85 192.47 C 142.91 192.76 142.38 193.76 142.68 194.70 C 142.97 195.64 143.97 196.17 144.91 195.88 Z M 146.32 195.37 L 147.06 194.89 C 147.89 194.36 148.13 193.25 147.59 192.43 C 147.06 191.60 145.95 191.36 145.13 191.90 L 144.39 192.37 C 143.56 192.91 143.32 194.01 143.86 194.84 C 144.39 195.67 145.50 195.90 146.32 195.37 Z M 147.34 194.66 L 148.02 194.00 C 148.72 193.31 148.73 192.18 148.04 191.48 C 147.35 190.78 146.23 190.77 145.52 191.46 L 144.85 192.12 C 144.15 192.81 144.13 193.94 144.82 194.64 C 145.51 195.34 146.64 195.35 147.34 194.66 Z M 148.18 193.82 L 148.82 192.98 C 149.43 192.21 149.29 191.09 148.51 190.49 C 147.73 189.89 146.62 190.03 146.02 190.80 L 145.37 191.64 C 144.77 192.41 144.91 193.53 145.68 194.13 C 146.46 194.73 147.57 194.59 148.18 193.82 Z M 148.90 192.87 L 149.50 191.97 C 150.04 191.15 149.81 190.05 148.99 189.51 C 148.18 188.97 147.08 189.19 146.54 190.01 L 145.94 190.92 C 145.40 191.73 145.62 192.83 146.44 193.37 C 147.26 193.91 148.36 193.69 148.90 192.87 Z M 149.53 191.91 L 150.03 191.08 C 150.53 190.24 150.27 189.16 149.43 188.65 C 148.60 188.15 147.51 188.41 147.00 189.25 L 146.50 190.07 C 146.00 190.91 146.27 192.00 147.10 192.50 C 147.94 193.01 149.02 192.74 149.53 191.91 Z M 150.05 191.04 L 150.54 190.16 C 151.03 189.31 150.73 188.24 149.89 187.76 C 149.04 187.28 147.97 187.57 147.49 188.42 L 146.99 189.29 C 146.51 190.14 146.80 191.21 147.65 191.69 C 148.49 192.17 149.56 191.88 150.05 191.04 Z M 150.56 190.12 L 151.04 189.22 C 151.50 188.37 151.19 187.30 150.34 186.84 C 149.49 186.38 148.42 186.70 147.96 187.55 L 147.47 188.46 C 147.01 189.31 147.33 190.37 148.18 190.83 C 149.03 191.29 150.10 190.97 150.56 190.12 Z M 151.05 189.18 L 151.52 188.28 C 151.96 187.42 151.63 186.37 150.77 185.93 C 149.91 185.49 148.86 185.82 148.42 186.68 L 147.95 187.59 C 147.51 188.44 147.85 189.49 148.70 189.93 C 149.56 190.38 150.61 190.04 151.05 189.18 Z M 151.53 188.24 L 151.96 187.36 C 152.38 186.50 152.03 185.46 151.17 185.04 C 150.31 184.62 149.27 184.97 148.85 185.83 L 148.42 186.71 C 147.99 187.57 148.35 188.61 149.21 189.03 C 150.06 189.45 151.10 189.10 151.53 188.24 Z M 151.96 187.33 L 152.36 186.47 C 152.77 185.61 152.40 184.59 151.54 184.19 C 150.68 183.78 149.66 184.15 149.25 185.01 L 148.85 185.86 C 148.45 186.72 148.82 187.75 149.67 188.15 C 150.53 188.55 151.56 188.18 151.96 187.33 Z M 152.36 186.44 L 152.75 185.56 C 153.13 184.71 152.75 183.70 151.90 183.32 C 151.04 182.93 150.04 183.32 149.65 184.17 L 149.26 185.04 C 148.87 185.90 149.26 186.90 150.11 187.29 C 150.97 187.67 151.97 187.29 152.36 186.44 Z M 152.74 185.54 L 153.14 184.62 C 153.51 183.77 153.11 182.78 152.26 182.41 C 151.41 182.04 150.42 182.44 150.05 183.29 L 149.66 184.20 C 149.29 185.05 149.68 186.04 150.53 186.41 C 151.38 186.78 152.37 186.39 152.74 185.54 Z M 153.13 184.60 L 153.54 183.62 C 153.89 182.77 153.50 181.80 152.65 181.44 C 151.81 181.09 150.83 181.48 150.48 182.33 L 150.06 183.31 C 149.71 184.16 150.11 185.13 150.95 185.49 C 151.80 185.84 152.77 185.44 153.13 184.60 Z M 153.53 183.60 L 153.92 182.66 C 154.26 181.82 153.87 180.85 153.03 180.51 C 152.19 180.16 151.22 180.56 150.88 181.40 L 150.49 182.35 C 150.14 183.19 150.54 184.15 151.38 184.49 C 152.22 184.84 153.18 184.44 153.53 183.60 Z M 153.91 182.64 L 154.28 181.74 C 154.62 180.90 154.22 179.95 153.39 179.61 C 152.55 179.27 151.60 179.67 151.26 180.50 L 150.89 181.41 C 150.55 182.25 150.95 183.20 151.78 183.54 C 152.62 183.88 153.57 183.48 153.91 182.64 Z M 154.27 181.73 L 154.65 180.79 C 154.99 179.96 154.59 179.01 153.76 178.68 C 152.93 178.34 151.99 178.74 151.65 179.57 L 151.27 180.51 C 150.93 181.34 151.33 182.28 152.16 182.62 C 152.99 182.96 153.93 182.56 154.27 181.73 Z M 154.64 180.78 L 155.03 179.82 C 155.37 179.00 154.97 178.06 154.15 177.73 C 153.32 177.40 152.39 177.79 152.05 178.61 L 151.66 179.57 C 151.33 180.39 151.72 181.33 152.55 181.67 C 153.37 182.00 154.31 181.60 154.64 180.78 Z M 155.02 179.82 L 155.41 178.87 C 155.74 178.05 155.35 177.12 154.53 176.79 C 153.71 176.46 152.78 176.85 152.45 177.66 L 152.06 178.62 C 151.73 179.43 152.12 180.36 152.94 180.70 C 153.76 181.03 154.69 180.64 155.02 179.82 Z M 155.40 178.87 L 155.77 177.94 C 156.11 177.13 155.72 176.21 154.91 175.87 C 154.10 175.54 153.17 175.93 152.84 176.74 L 152.46 177.67 C 152.13 178.48 152.52 179.40 153.33 179.73 C 154.14 180.06 155.06 179.68 155.40 178.87 Z M 155.76 177.94 L 156.15 177.00 C 156.48 176.20 156.10 175.28 155.30 174.95 C 154.50 174.62 153.58 175.00 153.24 175.80 L 152.86 176.74 C 152.52 177.54 152.91 178.46 153.71 178.79 C 154.51 179.12 155.43 178.74 155.76 177.94 Z M 156.13 177.01 L 156.55 176.01 C 156.88 175.22 156.51 174.31 155.72 173.98 C 154.93 173.64 154.01 174.02 153.68 174.81 L 153.26 175.80 C 152.93 176.59 153.30 177.50 154.09 177.84 C 154.89 178.17 155.80 177.80 156.13 177.01 Z M 156.53 176.02 L 156.92 175.09 C 157.26 174.31 156.90 173.41 156.12 173.07 C 155.34 172.74 154.44 173.10 154.10 173.88 L 153.70 174.80 C 153.37 175.58 153.73 176.49 154.51 176.82 C 155.29 177.16 156.19 176.80 156.53 176.02 Z M 156.90 175.09 L 157.29 174.21 C 157.63 173.44 157.28 172.54 156.51 172.21 C 155.75 171.87 154.85 172.22 154.51 172.99 L 154.12 173.87 C 153.79 174.64 154.14 175.53 154.90 175.87 C 155.67 176.21 156.56 175.86 156.90 175.09 Z M 157.27 174.21 L 157.66 173.35 C 158.00 172.59 157.66 171.71 156.90 171.37 C 156.15 171.03 155.26 171.36 154.92 172.12 L 154.54 172.98 C 154.20 173.74 154.53 174.62 155.29 174.96 C 156.04 175.30 156.93 174.96 157.27 174.21 Z M 157.63 173.35 L 158.03 172.48 C 158.37 171.74 158.05 170.86 157.31 170.52 C 156.56 170.18 155.69 170.51 155.34 171.25 L 154.95 172.11 C 154.61 172.86 154.93 173.74 155.67 174.08 C 156.42 174.42 157.29 174.09 157.63 173.35 Z M 158.02 172.49 L 158.44 171.59 C 158.78 170.86 158.47 169.99 157.73 169.64 C 157.00 169.30 156.13 169.61 155.78 170.35 L 155.36 171.24 C 155.02 171.98 155.33 172.85 156.07 173.19 C 156.80 173.54 157.67 173.22 158.02 172.49 Z M 158.43 171.60 L 158.86 170.70 C 159.21 169.97 158.90 169.10 158.17 168.75 C 157.44 168.40 156.57 168.71 156.23 169.44 L 155.79 170.34 C 155.45 171.07 155.75 171.94 156.48 172.29 C 157.21 172.63 158.08 172.33 158.43 171.60 Z M 158.85 170.70 L 159.29 169.80 C 159.64 169.08 159.34 168.21 158.62 167.86 C 157.90 167.51 157.03 167.81 156.68 168.53 L 156.24 169.43 C 155.89 170.15 156.19 171.02 156.91 171.37 C 157.63 171.72 158.50 171.42 158.85 170.70 Z M 159.28 169.80 L 159.72 168.90 C 160.08 168.19 159.78 167.32 159.07 166.97 C 158.36 166.61 157.49 166.90 157.14 167.62 L 156.69 168.52 C 156.34 169.23 156.63 170.10 157.34 170.45 C 158.06 170.81 158.92 170.52 159.28 169.80 Z M 159.71 168.91 L 160.16 168.01 C 160.52 167.30 160.24 166.44 159.53 166.08 C 158.82 165.72 157.96 166.01 157.60 166.72 L 157.15 167.61 C 156.79 168.32 157.07 169.18 157.78 169.54 C 158.49 169.90 159.35 169.61 159.71 168.91 Z M 160.16 168.02 L 160.62 167.12 C 160.98 166.41 160.70 165.55 160.00 165.19 C 159.30 164.83 158.43 165.10 158.07 165.81 L 157.61 166.71 C 157.25 167.41 157.52 168.28 158.23 168.64 C 158.93 169.00 159.79 168.72 160.16 168.02 Z M 160.61 167.12 L 161.08 166.23 C 161.44 165.53 161.17 164.67 160.47 164.30 C 159.77 163.94 158.91 164.21 158.54 164.91 L 158.08 165.80 C 157.71 166.50 157.98 167.36 158.68 167.73 C 159.39 168.09 160.25 167.82 160.61 167.12 Z M 161.07 166.24 L 161.54 165.36 C 161.90 164.66 161.64 163.79 160.94 163.43 C 160.24 163.06 159.38 163.33 159.01 164.03 L 158.54 164.91 C 158.18 165.60 158.45 166.47 159.14 166.84 C 159.84 167.20 160.71 166.93 161.07 166.24 Z M 161.53 165.36 L 162.00 164.48 C 162.37 163.79 162.10 162.92 161.40 162.55 C 160.71 162.19 159.84 162.45 159.47 163.15 L 159.01 164.02 C 158.64 164.72 158.91 165.58 159.60 165.95 C 160.30 166.32 161.16 166.06 161.53 165.36 Z M 161.99 164.48 L 162.30 163.91 C 162.67 163.22 162.40 162.35 161.71 161.98 C 161.01 161.61 160.15 161.88 159.78 162.57 L 159.48 163.15 C 159.11 163.84 159.37 164.71 160.07 165.07 C 160.76 165.44 161.63 165.18 161.99 164.48 Z"
      fill="black"
      fill-rule="nonzero" /><path d="M 174.81 146.74 L 174.11 147.37 C 173.47 147.95 173.42 148.94 174.00 149.58 C 174.58 150.22 175.57 150.27 176.21 149.69 L 176.91 149.05 C 177.55 148.47 177.59 147.49 177.02 146.85 C 176.44 146.21 175.45 146.16 174.81 146.74 Z M 174.08 147.37 L 173.37 148.04 C 172.73 148.63 172.70 149.64 173.30 150.27 C 173.90 150.91 174.90 150.94 175.53 150.34 L 176.24 149.68 C 176.88 149.09 176.91 148.08 176.31 147.45 C 175.71 146.81 174.71 146.78 174.08 147.37 Z M 173.32 148.06 L 172.60 148.78 C 171.97 149.40 171.97 150.42 172.60 151.04 C 173.22 151.67 174.24 151.67 174.86 151.04 L 175.58 150.32 C 176.21 149.70 176.21 148.68 175.58 148.06 C 174.96 147.43 173.95 147.43 173.32 148.06 Z M 172.54 148.81 L 171.82 149.59 C 171.22 150.25 171.26 151.28 171.92 151.88 C 172.57 152.49 173.60 152.45 174.20 151.79 L 174.92 151.01 C 175.53 150.35 175.49 149.33 174.83 148.72 C 174.17 148.11 173.15 148.16 172.54 148.81 Z M 171.77 149.63 L 171.13 150.39 C 170.54 151.08 170.63 152.11 171.31 152.69 C 172.00 153.27 173.03 153.19 173.61 152.51 L 174.25 151.75 C 174.84 151.06 174.76 150.03 174.07 149.45 C 173.38 148.87 172.36 148.95 171.77 149.63 Z M 171.09 150.42 L 170.45 151.22 C 169.88 151.92 170.00 152.95 170.70 153.52 C 171.40 154.09 172.43 153.98 173.00 153.27 L 173.64 152.47 C 174.21 151.77 174.10 150.74 173.39 150.17 C 172.69 149.61 171.66 149.72 171.09 150.42 Z M 170.42 151.24 L 169.80 152.05 C 169.25 152.77 169.38 153.80 170.10 154.36 C 170.82 154.91 171.85 154.78 172.40 154.06 L 173.03 153.25 C 173.58 152.53 173.45 151.50 172.73 150.95 C 172.01 150.39 170.98 150.53 170.42 151.24 Z M 169.78 152.07 L 169.19 152.86 C 168.65 153.59 168.80 154.62 169.53 155.17 C 170.26 155.71 171.29 155.56 171.84 154.83 L 172.42 154.04 C 172.97 153.31 172.82 152.28 172.08 151.73 C 171.35 151.19 170.32 151.34 169.78 152.07 Z M 169.17 152.88 L 168.57 153.72 C 168.03 154.46 168.20 155.50 168.94 156.03 C 169.68 156.56 170.72 156.39 171.25 155.65 L 171.86 154.81 C 172.39 154.07 172.22 153.04 171.48 152.50 C 170.74 151.97 169.71 152.14 169.17 152.88 Z M 168.55 153.74 L 167.98 154.57 C 167.45 155.31 167.64 156.34 168.38 156.87 C 169.13 157.39 170.16 157.21 170.69 156.46 L 171.26 155.64 C 171.79 154.89 171.60 153.86 170.85 153.33 C 170.11 152.81 169.08 152.99 168.55 153.74 Z M 167.97 154.57 L 167.42 155.37 C 166.90 156.12 167.09 157.15 167.85 157.67 C 168.60 158.19 169.63 158.00 170.15 157.25 L 170.69 156.45 C 171.21 155.70 171.02 154.67 170.27 154.15 C 169.52 153.63 168.49 153.82 167.97 154.57 Z M 167.42 155.37 L 166.87 156.17 C 166.35 156.92 166.54 157.95 167.29 158.47 C 168.04 158.99 169.07 158.80 169.59 158.05 L 170.14 157.25 C 170.66 156.50 170.47 155.47 169.72 154.95 C 168.97 154.43 167.94 154.62 167.42 155.37 Z M 166.88 156.16 L 166.34 156.93 C 165.81 157.67 165.99 158.70 166.74 159.23 C 167.49 159.75 168.52 159.57 169.04 158.83 L 169.58 158.06 C 170.11 157.31 169.93 156.28 169.18 155.76 C 168.43 155.23 167.40 155.41 166.88 156.16 Z M 166.35 156.92 L 165.78 157.71 C 165.25 158.45 165.42 159.48 166.16 160.01 C 166.90 160.54 167.93 160.37 168.46 159.64 L 169.03 158.84 C 169.56 158.10 169.39 157.07 168.65 156.54 C 167.91 156.01 166.88 156.18 166.35 156.92 Z M 165.80 157.70 L 165.19 158.52 C 164.65 159.25 164.81 160.28 165.54 160.82 C 166.27 161.36 167.30 161.20 167.84 160.47 L 168.44 159.65 C 168.98 158.92 168.82 157.89 168.09 157.35 C 167.36 156.81 166.33 156.97 165.80 157.70 Z M 165.21 158.51 L 164.57 159.35 C 164.02 160.07 164.17 161.10 164.89 161.64 C 165.61 162.19 166.64 162.05 167.18 161.33 L 167.82 160.48 C 168.37 159.76 168.22 158.74 167.50 158.19 C 166.78 157.64 165.75 157.79 165.21 158.51 Z M 164.59 159.34 L 163.99 160.11 C 163.43 160.82 163.56 161.85 164.27 162.40 C 164.98 162.95 166.01 162.83 166.56 162.12 L 167.16 161.34 C 167.72 160.63 167.59 159.60 166.88 159.05 C 166.17 158.50 165.14 158.63 164.59 159.34 Z M 164.01 160.10 L 163.38 160.88 C 162.83 161.58 162.94 162.60 163.64 163.16 C 164.34 163.72 165.36 163.60 165.92 162.90 L 166.54 162.12 C 167.09 161.42 166.98 160.41 166.28 159.85 C 165.58 159.29 164.56 159.41 164.01 160.10 Z M 163.40 160.88 L 162.77 161.66 C 162.21 162.35 162.31 163.36 163.00 163.92 C 163.69 164.48 164.70 164.38 165.26 163.69 L 165.90 162.91 C 166.46 162.22 166.35 161.21 165.66 160.65 C 164.98 160.09 163.97 160.19 163.40 160.88 Z M 162.79 161.66 L 162.14 162.43 C 161.58 163.11 161.67 164.12 162.35 164.68 C 163.03 165.24 164.03 165.15 164.59 164.47 L 165.24 163.69 C 165.80 163.02 165.71 162.01 165.03 161.45 C 164.35 160.89 163.35 160.98 162.79 161.66 Z M 162.16 162.43 L 161.50 163.21 C 160.94 163.88 161.02 164.87 161.69 165.44 C 162.35 166.00 163.35 165.92 163.92 165.25 L 164.57 164.47 C 165.14 163.81 165.05 162.81 164.39 162.25 C 163.72 161.68 162.72 161.76 162.16 162.43 Z M 161.53 163.21 L 160.86 163.98 C 160.29 164.64 160.36 165.62 161.02 166.19 C 161.67 166.75 162.66 166.68 163.22 166.03 L 163.89 165.25 C 164.46 164.60 164.38 163.61 163.73 163.05 C 163.08 162.48 162.09 162.56 161.53 163.21 Z M 160.88 163.98 L 160.21 164.73 C 159.65 165.37 159.70 166.34 160.34 166.91 C 160.98 167.48 161.95 167.42 162.52 166.79 L 163.19 166.04 C 163.76 165.40 163.70 164.42 163.07 163.85 C 162.43 163.29 161.45 163.34 160.88 163.98 Z M 160.25 164.72 L 159.58 165.44 C 159.01 166.06 159.04 167.02 159.66 167.60 C 160.28 168.17 161.24 168.14 161.82 167.52 L 162.49 166.80 C 163.06 166.18 163.02 165.21 162.41 164.64 C 161.79 164.07 160.82 164.10 160.25 164.72 Z M 159.62 165.43 L 158.94 166.12 C 158.36 166.72 158.37 167.67 158.96 168.25 C 159.56 168.84 160.51 168.83 161.09 168.23 L 161.77 167.53 C 162.36 166.94 162.35 165.99 161.75 165.40 C 161.16 164.82 160.20 164.83 159.62 165.43 Z M 158.99 166.09 L 158.24 166.81 C 157.64 167.38 157.62 168.32 158.18 168.92 C 158.75 169.51 159.69 169.54 160.29 168.97 L 161.04 168.26 C 161.64 167.69 161.66 166.75 161.10 166.15 C 160.53 165.55 159.59 165.53 158.99 166.09 Z M 158.31 166.77 L 157.54 167.42 C 156.92 167.95 156.85 168.88 157.38 169.50 C 157.91 170.12 158.84 170.19 159.46 169.66 L 160.22 169.01 C 160.84 168.48 160.92 167.55 160.39 166.93 C 159.86 166.31 158.93 166.24 158.31 166.77 Z M 157.64 167.36 L 156.85 167.94 C 156.20 168.42 156.06 169.33 156.54 169.98 C 157.01 170.63 157.93 170.77 158.58 170.30 L 159.36 169.72 C 160.01 169.24 160.15 168.33 159.68 167.68 C 159.20 167.03 158.29 166.89 157.64 167.36 Z M 156.96 167.88 L 156.13 168.39 C 155.45 168.80 155.23 169.69 155.64 170.37 C 156.06 171.05 156.94 171.27 157.63 170.86 L 158.46 170.36 C 159.14 169.94 159.36 169.05 158.95 168.37 C 158.54 167.69 157.65 167.47 156.96 167.88 Z M 156.26 168.33 L 155.36 168.76 C 154.65 169.10 154.35 169.96 154.69 170.68 C 155.03 171.39 155.89 171.69 156.61 171.35 L 157.50 170.92 C 158.22 170.57 158.52 169.71 158.17 169.00 C 157.83 168.28 156.97 167.98 156.26 168.33 Z M 155.45 168.72 L 154.53 169.09 C 153.79 169.38 153.43 170.22 153.73 170.95 C 154.02 171.69 154.85 172.05 155.59 171.75 L 156.51 171.39 C 157.25 171.09 157.61 170.26 157.32 169.52 C 157.02 168.79 156.19 168.43 155.45 168.72 Z M 154.58 169.07 L 153.64 169.41 C 152.89 169.67 152.50 170.48 152.76 171.23 C 153.02 171.97 153.84 172.36 154.58 172.10 L 155.53 171.77 C 156.27 171.51 156.67 170.70 156.41 169.95 C 156.14 169.21 155.33 168.81 154.58 169.07 Z M 153.66 169.40 L 153.18 169.56 C 152.43 169.81 152.03 170.62 152.28 171.37 C 152.53 172.11 153.34 172.52 154.08 172.27 L 154.56 172.11 C 155.31 171.86 155.71 171.05 155.46 170.30 C 155.21 169.56 154.40 169.15 153.66 169.40 Z"
      fill="black"
      fill-rule="nonzero" /><path d="M 154.50 163.01 L 154.99 163.74 C 155.45 164.43 156.38 164.62 157.06 164.16 C 157.75 163.70 157.94 162.77 157.48 162.09 L 156.99 161.36 C 156.54 160.67 155.61 160.48 154.92 160.94 C 154.23 161.40 154.05 162.32 154.50 163.01 Z M 154.96 163.75 L 155.48 164.53 C 155.94 165.23 156.88 165.43 157.59 164.96 C 158.29 164.50 158.48 163.56 158.02 162.85 L 157.51 162.08 C 157.04 161.37 156.10 161.18 155.40 161.64 C 154.70 162.11 154.50 163.05 154.96 163.75 Z M 155.45 164.53 L 156.01 165.41 C 156.47 166.12 157.43 166.33 158.15 165.87 C 158.87 165.40 159.08 164.44 158.61 163.72 L 158.05 162.85 C 157.58 162.13 156.62 161.93 155.91 162.39 C 155.19 162.86 154.98 163.82 155.45 164.53 Z M 155.98 165.41 L 156.59 166.37 C 157.06 167.11 158.03 167.33 158.77 166.86 C 159.50 166.39 159.72 165.42 159.25 164.68 L 158.64 163.72 C 158.18 162.98 157.20 162.77 156.47 163.23 C 155.73 163.70 155.51 164.67 155.98 165.41 Z M 156.57 166.37 L 157.08 167.20 C 157.55 167.94 158.53 168.17 159.28 167.70 C 160.03 167.24 160.26 166.26 159.79 165.51 L 159.27 164.68 C 158.81 163.94 157.83 163.71 157.08 164.17 C 156.33 164.64 156.10 165.62 156.57 166.37 Z M 157.07 167.19 L 157.61 168.07 C 158.08 168.83 159.07 169.06 159.82 168.59 C 160.57 168.13 160.81 167.14 160.34 166.39 L 159.80 165.51 C 159.34 164.76 158.35 164.52 157.59 164.99 C 156.84 165.45 156.61 166.44 157.07 167.19 Z M 157.60 168.07 L 158.15 168.97 C 158.62 169.72 159.61 169.96 160.37 169.50 C 161.13 169.03 161.37 168.04 160.90 167.28 L 160.35 166.39 C 159.89 165.63 158.89 165.39 158.14 165.86 C 157.38 166.32 157.14 167.31 157.60 168.07 Z M 158.14 168.97 L 158.67 169.84 C 159.14 170.60 160.14 170.85 160.90 170.38 C 161.67 169.91 161.91 168.91 161.44 168.15 L 160.91 167.28 C 160.44 166.51 159.45 166.27 158.68 166.74 C 157.92 167.20 157.67 168.20 158.14 168.97 Z M 158.66 169.84 L 159.16 170.66 C 159.63 171.43 160.63 171.67 161.40 171.20 C 162.17 170.74 162.42 169.73 161.95 168.96 L 161.45 168.15 C 160.98 167.38 159.98 167.13 159.21 167.60 C 158.44 168.07 158.20 169.07 158.66 169.84 Z M 159.15 170.66 L 159.75 171.64 C 160.21 172.41 161.22 172.66 161.99 172.19 C 162.77 171.72 163.02 170.71 162.55 169.94 L 161.95 168.96 C 161.49 168.19 160.48 167.94 159.71 168.41 C 158.93 168.88 158.68 169.89 159.15 170.66 Z M 159.74 171.64 L 160.27 172.51 C 160.74 173.29 161.75 173.54 162.53 173.07 C 163.30 172.60 163.55 171.59 163.08 170.81 L 162.55 169.94 C 162.08 169.16 161.07 168.91 160.30 169.38 C 159.52 169.85 159.27 170.86 159.74 171.64 Z M 160.27 172.52 L 160.75 173.30 C 161.22 174.08 162.23 174.32 163.01 173.85 C 163.78 173.38 164.03 172.37 163.56 171.59 L 163.08 170.81 C 162.61 170.03 161.60 169.79 160.82 170.26 C 160.05 170.73 159.80 171.74 160.27 172.52 Z M 160.75 173.31 L 161.22 174.07 C 161.70 174.85 162.71 175.09 163.49 174.61 C 164.26 174.13 164.50 173.12 164.02 172.34 L 163.55 171.58 C 163.08 170.81 162.06 170.57 161.29 171.04 C 160.51 171.52 160.27 172.54 160.75 173.31 Z M 161.22 174.08 L 161.74 174.91 C 162.22 175.68 163.24 175.91 164.01 175.43 C 164.79 174.95 165.02 173.93 164.54 173.16 L 164.02 172.33 C 163.54 171.56 162.52 171.33 161.75 171.81 C 160.97 172.29 160.74 173.31 161.22 174.08 Z M 161.75 174.92 L 162.28 175.76 C 162.78 176.53 163.80 176.76 164.57 176.27 C 165.34 175.77 165.56 174.75 165.07 173.98 L 164.53 173.14 C 164.04 172.37 163.02 172.15 162.25 172.64 C 161.48 173.13 161.25 174.15 161.75 174.92 Z M 162.29 175.78 L 162.85 176.64 C 163.35 177.40 164.38 177.62 165.14 177.12 C 165.91 176.62 166.12 175.59 165.62 174.83 L 165.06 173.97 C 164.56 173.20 163.54 172.99 162.77 173.49 C 162.01 173.99 161.79 175.01 162.29 175.78 Z M 162.86 176.65 L 163.41 177.47 C 163.92 178.23 164.94 178.43 165.70 177.92 C 166.46 177.41 166.67 176.38 166.16 175.62 L 165.61 174.81 C 165.10 174.05 164.08 173.85 163.32 174.36 C 162.56 174.86 162.35 175.89 162.86 176.65 Z M 163.42 177.48 L 163.97 178.29 C 164.49 179.04 165.52 179.23 166.27 178.72 C 167.03 178.20 167.22 177.17 166.70 176.41 L 166.15 175.61 C 165.63 174.85 164.60 174.66 163.84 175.18 C 163.09 175.70 162.90 176.73 163.42 177.48 Z M 163.98 178.31 L 164.56 179.13 C 165.09 179.88 166.12 180.05 166.87 179.53 C 167.62 179.00 167.80 177.97 167.27 177.22 L 166.69 176.39 C 166.16 175.65 165.13 175.47 164.38 176.00 C 163.63 176.52 163.45 177.56 163.98 178.31 Z M 164.57 179.15 L 165.19 179.99 C 165.72 180.73 166.76 180.90 167.50 180.36 C 168.24 179.82 168.41 178.79 167.87 178.05 L 167.26 177.20 C 166.72 176.46 165.69 176.29 164.94 176.83 C 164.20 177.37 164.04 178.40 164.57 179.15 Z M 165.20 180.01 L 165.78 180.79 C 166.33 181.53 167.37 181.68 168.10 181.13 C 168.84 180.59 168.99 179.55 168.44 178.82 L 167.86 178.03 C 167.31 177.30 166.28 177.14 165.54 177.69 C 164.81 178.24 164.65 179.27 165.20 180.01 Z M 165.80 180.81 L 166.41 181.61 C 166.96 182.33 168.00 182.47 168.73 181.91 C 169.46 181.35 169.59 180.31 169.04 179.59 L 168.43 178.80 C 167.87 178.07 166.83 177.93 166.10 178.49 C 165.38 179.05 165.24 180.09 165.80 180.81 Z M 166.43 181.63 L 167.06 182.42 C 167.63 183.14 168.67 183.25 169.39 182.68 C 170.10 182.11 170.22 181.07 169.65 180.35 L 169.02 179.56 C 168.44 178.85 167.40 178.73 166.69 179.30 C 165.97 179.87 165.86 180.92 166.43 181.63 Z M 167.08 182.45 L 167.73 183.23 C 168.32 183.93 169.37 184.02 170.07 183.43 C 170.77 182.84 170.86 181.80 170.27 181.10 L 169.62 180.32 C 169.03 179.62 167.99 179.53 167.29 180.12 C 166.59 180.71 166.50 181.75 167.08 182.45 Z M 167.77 183.26 L 168.44 184.02 C 169.04 184.70 170.09 184.76 170.77 184.15 C 171.46 183.54 171.52 182.50 170.91 181.81 L 170.24 181.06 C 169.63 180.38 168.59 180.32 167.90 180.93 C 167.22 181.53 167.16 182.58 167.77 183.26 Z M 168.47 184.05 L 169.16 184.78 C 169.78 185.44 170.83 185.47 171.49 184.85 C 172.16 184.22 172.19 183.17 171.56 182.51 L 170.88 181.78 C 170.25 181.12 169.20 181.09 168.54 181.71 C 167.88 182.34 167.85 183.38 168.47 184.05 Z M 169.19 184.80 L 169.89 185.51 C 170.53 186.16 171.58 186.16 172.22 185.52 C 172.87 184.88 172.87 183.84 172.23 183.19 L 171.53 182.48 C 170.89 181.84 169.85 181.83 169.20 182.47 C 168.55 183.11 168.55 184.16 169.19 184.80 Z M 169.92 185.53 L 170.64 186.23 C 171.29 186.86 172.33 186.84 172.96 186.19 C 173.59 185.53 173.58 184.49 172.92 183.86 L 172.20 183.17 C 171.55 182.54 170.51 182.55 169.88 183.21 C 169.25 183.86 169.27 184.90 169.92 185.53 Z M 170.66 186.24 L 171.38 186.92 C 172.05 187.54 173.09 187.50 173.70 186.84 C 174.32 186.17 174.29 185.13 173.62 184.52 L 172.90 183.84 C 172.23 183.22 171.20 183.26 170.58 183.92 C 169.96 184.59 170.00 185.63 170.66 186.24 Z M 171.41 186.94 L 172.14 187.60 C 172.82 188.20 173.85 188.15 174.46 187.47 C 175.06 186.80 175.01 185.77 174.33 185.16 L 173.60 184.50 C 172.93 183.90 171.89 183.95 171.29 184.62 C 170.68 185.30 170.74 186.33 171.41 186.94 Z M 172.17 187.62 L 172.93 188.27 C 173.61 188.86 174.65 188.78 175.23 188.10 C 175.82 187.41 175.75 186.38 175.06 185.79 L 174.31 185.14 C 173.62 184.55 172.59 184.63 172.00 185.31 C 171.41 186.00 171.49 187.03 172.17 187.62 Z M 172.96 188.29 L 173.74 188.93 C 174.44 189.50 175.47 189.40 176.04 188.70 C 176.61 188.01 176.51 186.98 175.81 186.41 L 175.03 185.77 C 174.33 185.20 173.31 185.30 172.74 186.00 C 172.17 186.69 172.27 187.72 172.96 188.29 Z M 173.78 188.95 L 174.57 189.57 C 175.28 190.12 176.30 189.99 176.85 189.28 C 177.40 188.57 177.27 187.55 176.56 187.00 L 175.77 186.39 C 175.06 185.84 174.04 185.97 173.49 186.67 C 172.94 187.38 173.07 188.40 173.78 188.95 Z M 174.61 189.59 L 175.41 190.17 C 176.13 190.70 177.14 190.55 177.67 189.82 C 178.20 189.10 178.04 188.09 177.32 187.56 L 176.53 186.98 C 175.80 186.45 174.79 186.61 174.26 187.33 C 173.73 188.05 173.89 189.06 174.61 189.59 Z M 175.44 190.19 L 176.26 190.76 C 176.99 191.27 178.00 191.09 178.50 190.36 C 179.01 189.62 178.83 188.62 178.10 188.11 L 177.28 187.54 C 176.55 187.03 175.55 187.22 175.04 187.95 C 174.53 188.68 174.71 189.68 175.44 190.19 Z M 176.30 190.78 L 177.14 191.33 C 177.88 191.82 178.87 191.62 179.36 190.87 C 179.85 190.13 179.65 189.14 178.91 188.65 L 178.07 188.09 C 177.32 187.61 176.33 187.81 175.84 188.55 C 175.35 189.29 175.56 190.29 176.30 190.78 Z M 177.17 191.34 L 178.03 191.89 C 178.78 192.36 179.77 192.13 180.24 191.38 C 180.71 190.63 180.48 189.65 179.74 189.18 L 178.87 188.64 C 178.12 188.17 177.14 188.39 176.67 189.14 C 176.20 189.89 176.42 190.88 177.17 191.34 Z M 178.07 191.90 L 178.92 192.41 C 179.68 192.86 180.66 192.62 181.11 191.86 C 181.56 191.11 181.31 190.13 180.56 189.68 L 179.70 189.17 C 178.95 188.71 177.97 188.96 177.52 189.71 C 177.07 190.47 177.31 191.45 178.07 191.90 Z M 178.95 192.42 L 179.82 192.92 C 180.58 193.35 181.55 193.09 181.99 192.33 C 182.42 191.57 182.16 190.60 181.40 190.17 L 180.53 189.67 C 179.77 189.23 178.80 189.50 178.37 190.26 C 177.93 191.02 178.19 191.99 178.95 192.42 Z M 179.85 192.93 L 180.73 193.41 C 181.49 193.83 182.45 193.55 182.87 192.78 C 183.29 192.02 183.01 191.06 182.25 190.64 L 181.37 190.16 C 180.60 189.74 179.65 190.02 179.23 190.78 C 178.81 191.55 179.09 192.51 179.85 192.93 Z M 180.76 193.42 L 181.64 193.88 C 182.41 194.29 183.36 193.99 183.77 193.22 C 184.17 192.45 183.87 191.51 183.11 191.10 L 182.22 190.64 C 181.45 190.23 180.50 190.53 180.10 191.29 C 179.70 192.06 179.99 193.01 180.76 193.42 Z M 181.67 193.89 L 182.56 194.34 C 183.33 194.72 184.27 194.41 184.66 193.64 C 185.05 192.87 184.74 191.93 183.97 191.54 L 183.08 191.10 C 182.31 190.71 181.37 191.02 180.98 191.79 C 180.59 192.56 180.90 193.50 181.67 193.89 Z M 182.59 194.34 L 183.48 194.77 C 184.25 195.15 185.18 194.82 185.56 194.05 C 185.93 193.28 185.61 192.35 184.84 191.97 L 183.94 191.54 C 183.17 191.17 182.24 191.49 181.87 192.26 C 181.49 193.03 181.81 193.96 182.59 194.34 Z M 183.50 194.77 L 184.40 195.19 C 185.17 195.56 186.09 195.23 186.45 194.45 C 186.82 193.68 186.48 192.76 185.71 192.40 L 184.82 191.98 C 184.04 191.61 183.12 191.94 182.76 192.71 C 182.40 193.49 182.73 194.41 183.50 194.77 Z M 184.41 195.19 L 185.32 195.61 C 186.08 195.97 187.00 195.63 187.35 194.86 C 187.71 194.09 187.38 193.18 186.61 192.82 L 185.70 192.40 C 184.93 192.05 184.02 192.38 183.66 193.15 C 183.30 193.92 183.64 194.83 184.41 195.19 Z M 185.32 195.60 L 186.24 196.02 C 187.01 196.38 187.91 196.04 188.27 195.28 C 188.62 194.51 188.28 193.60 187.52 193.25 L 186.60 192.83 C 185.83 192.48 184.93 192.81 184.57 193.58 C 184.22 194.34 184.56 195.25 185.32 195.60 Z M 186.24 196.02 L 187.17 196.44 C 187.93 196.79 188.83 196.46 189.18 195.70 C 189.53 194.94 189.20 194.04 188.44 193.69 L 187.52 193.26 C 186.76 192.91 185.85 193.24 185.50 194.00 C 185.15 194.76 185.48 195.66 186.24 196.02 Z M 187.17 196.44 L 188.10 196.86 C 188.86 197.21 189.75 196.88 190.10 196.13 C 190.45 195.37 190.12 194.47 189.37 194.13 L 188.44 193.70 C 187.68 193.35 186.78 193.68 186.44 194.43 C 186.09 195.19 186.42 196.09 187.17 196.44 Z M 188.11 196.86 L 189.04 197.28 C 189.79 197.62 190.68 197.29 191.02 196.54 C 191.37 195.78 191.03 194.89 190.28 194.55 L 189.36 194.13 C 188.60 193.79 187.71 194.12 187.37 194.87 C 187.03 195.63 187.36 196.52 188.11 196.86 Z M 189.06 197.28 L 189.96 197.68 C 190.72 198.02 191.60 197.68 191.93 196.92 C 192.26 196.17 191.92 195.29 191.17 194.95 L 190.26 194.55 C 189.51 194.22 188.63 194.56 188.30 195.31 C 187.96 196.07 188.30 196.95 189.06 197.28 Z M 189.99 197.68 L 190.87 198.06 C 191.62 198.37 192.49 198.02 192.81 197.27 C 193.13 196.51 192.78 195.64 192.02 195.32 L 191.15 194.95 C 190.39 194.63 189.52 194.99 189.20 195.74 C 188.88 196.50 189.24 197.37 189.99 197.68 Z M 190.91 198.06 L 191.89 198.45 C 192.65 198.75 193.50 198.37 193.80 197.62 C 194.10 196.86 193.73 196.00 192.97 195.71 L 191.99 195.32 C 191.23 195.02 190.37 195.39 190.08 196.15 C 189.78 196.91 190.15 197.76 190.91 198.06 Z M 191.93 198.45 L 192.87 198.80 C 193.63 199.07 194.47 198.68 194.75 197.92 C 195.02 197.16 194.63 196.32 193.87 196.04 L 192.93 195.70 C 192.17 195.42 191.33 195.82 191.05 196.58 C 190.78 197.34 191.17 198.18 191.93 198.45 Z M 192.90 198.80 L 193.82 199.11 C 194.59 199.37 195.41 198.96 195.67 198.20 C 195.93 197.44 195.52 196.62 194.76 196.36 L 193.84 196.04 C 193.08 195.78 192.25 196.19 191.99 196.95 C 191.74 197.71 192.14 198.54 192.90 198.80 Z M 193.85 199.11 L 194.77 199.41 C 195.53 199.66 196.34 199.24 196.59 198.48 C 196.84 197.72 196.42 196.91 195.66 196.66 L 194.74 196.36 C 193.98 196.11 193.17 196.53 192.92 197.29 C 192.67 198.05 193.09 198.86 193.85 199.11 Z M 194.78 199.40 L 195.72 199.70 C 196.48 199.95 197.28 199.53 197.53 198.77 C 197.77 198.01 197.35 197.20 196.59 196.96 L 195.65 196.66 C 194.89 196.42 194.08 196.84 193.84 197.60 C 193.60 198.35 194.02 199.16 194.78 199.40 Z M 195.73 199.70 L 196.68 200.00 C 197.44 200.24 198.24 199.82 198.48 199.06 C 198.71 198.30 198.29 197.50 197.54 197.26 L 196.58 196.96 C 195.83 196.73 195.02 197.15 194.78 197.91 C 194.55 198.66 194.97 199.47 195.73 199.70 Z M 196.69 200.00 L 197.65 200.29 C 198.41 200.52 199.21 200.10 199.44 199.34 C 199.67 198.59 199.24 197.79 198.49 197.56 L 197.53 197.26 C 196.77 197.03 195.97 197.46 195.74 198.21 C 195.51 198.97 195.93 199.77 196.69 200.00 Z M 197.66 200.29 L 198.63 200.58 C 199.39 200.80 200.18 200.37 200.41 199.62 C 200.63 198.86 200.20 198.07 199.44 197.84 L 198.48 197.56 C 197.72 197.33 196.93 197.76 196.70 198.52 C 196.48 199.27 196.91 200.07 197.66 200.29 Z M 198.64 200.58 L 199.60 200.86 C 200.36 201.08 201.15 200.64 201.37 199.89 C 201.59 199.13 201.15 198.34 200.39 198.12 L 199.43 197.84 C 198.68 197.62 197.89 198.06 197.67 198.82 C 197.45 199.57 197.88 200.36 198.64 200.58 Z M 199.61 200.86 L 200.57 201.13 C 201.33 201.35 202.12 200.91 202.33 200.15 C 202.55 199.39 202.11 198.60 201.35 198.39 L 200.39 198.12 C 199.63 197.90 198.84 198.34 198.63 199.10 C 198.41 199.86 198.85 200.65 199.61 200.86 Z M 200.58 201.13 L 201.54 201.40 C 202.30 201.61 203.09 201.17 203.30 200.41 C 203.51 199.65 203.06 198.87 202.31 198.66 L 201.34 198.39 C 200.59 198.18 199.80 198.62 199.59 199.38 C 199.38 200.14 199.82 200.92 200.58 201.13 Z M 201.54 201.40 L 202.47 201.66 C 203.22 201.87 204.01 201.42 204.22 200.66 C 204.43 199.90 203.98 199.12 203.22 198.91 L 202.30 198.66 C 201.54 198.45 200.76 198.89 200.55 199.65 C 200.34 200.41 200.79 201.19 201.54 201.40 Z"
      fill="black"
      fill-rule="nonzero" /></svg>