<svg xmlns="http://www.w3.org/2000/svg" width="300" height="300" viewBox="0 0 300 300">
<path d="M 116.23 117.73 L 116.23 118.80 C 116.23 119.65 116.92 120.35 117.78 120.35 C 118.64 120.35 119.34 119.65 119.34 118.80 L 119.34 117.73 C 119.34 116.87 118.64 116.18 117.78 116.18 C 116.92 116.18 116.23 116.87 116.23 117.73 Z M 116.20 118.80 L 116.20 119.84 C 116.20 120.71 116.91 121.42 117.78 121.42 C 118.65 121.42 119.36 120.71 119.36 119.84 L 119.36 118.80 C 119.36 117.92 118.65 117.22 117.78 117.22 C 116.91 117.22 116.20 117.92 116.20 118.80 Z M 116.18 119.84 L 116.18 120.85 C 116.18 121.74 116.89 122.46 117.78 122.46 C 118.67 122.46 119.39 121.74 119.39 120.85 L 119.39 119.84 C 119.39 118.95 118.67 118.24 117.78 118.24 C 116.89 118.24 116.18 118.95 116.18 119.84 Z M 116.15 120.85 L 116.15 121.81 C 116.15 122.71 116.88 123.44 117.78 123.44 C 118.68 123.44 119.41 122.71 119.41 121.81 L 119.41 120.85 C 119.41 119.95 118.68 119.22 117.78 119.22 C 116.88 119.22 116.15 119.95 116.15 120.85 Z M 116.13 121.81 L 116.13 122.77 C 116.13 123.68 116.87 124.42 117.78 124.42 C 118.69 124.42 119.43 123.68 119.43 122.77 L 119.43 121.81 C 119.43 120.89 118.69 120.16 117.78 120.16 C 116.87 120.16 116.13 120.89 116.13 121.81 Z M 116.12 122.77 L 116.12 123.82 C 116.12 124.74 116.87 125.48 117.78 125.48 C 118.70 125.48 119.44 124.74 119.44 123.82 L 119.44 122.77 C 119.44 121.85 118.70 121.11 117.78 121.11 C 116.87 121.11 116.12 121.85 116.12 122.77 Z M 116.13 123.82 L 116.13 124.80 C 116.13 125.71 116.87 126.45 117.78 126.45 C 118.69 126.45 119.43 125.71 119.43 124.80 L 119.43 123.82 C 119.43 122.91 118.69 122.17 117.78 122.17 C 116.87 122.17 116.13 122.91 116.13 123.82 Z M 116.13 124.80 L 116.13 125.75 C 116.13 126.66 116.87 127.39 117.78 127.39 C 118.69 127.39 119.43 126.66 119.43 125.75 L 119.43 124.80 C 119.43 123.89 118.69 123.15 117.78 123.15 C 116.87 123.15 116.13 123.89 116.13 124.80 Z M 116.14 125.75 L 116.14 126.70 C 116.14 127.60 116.87 128.34 117.78 128.34 C 118.69 128.34 119.42 127.60 119.42 126.70 L 119.42 125.75 C 119.42 124.84 118.69 124.10 117.78 124.10 C 116.87 124.10 116.14 124.84 116.14 125.75 Z M 116.14 126.70 L 116.14 127.68 C 116.14 128.58 116.88 129.31 117.78 129.31 C 118.69 129.31 119.42 128.58 119.42 127.68 L 119.42 126.70 C 119.42 125.79 118.69 125.06 117.78 125.06 C 116.88 125.06 116.14 125.79 116.14 126.70 Z M 116.15 127.68 L 116.15 128.69 C 116.15 129.59 116.88 130.33 117.78 130.33 C 118.68 130.33 119.42 129.59 119.42 128.69 L 119.42 127.68 C 119.42 126.77 118.68 126.04 117.78 126.04 C 116.88 126.04 116.15 126.77 116.15 127.68 Z M 116.15 128.69 L 116.15 129.73 C 116.15 130.63 116.88 131.37 117.78 131.37 C 118.68 131.37 119.41 130.63 119.41 129.73 L 119.41 128.69 C 119.41 127.79 118.68 127.06 117.78 127.06 C 116.88 127.06 116.15 127.79 116.15 128.69 Z M 116.15 129.73 L 116.15 130.69 C 116.15 131.59 116.88 132.32 117.78 132.32 C 118.68 132.32 119.41 131.59 119.41 130.69 L 119.41 129.73 C 119.41 128.83 118.68 128.10 117.78 128.10 C 116.88 128.10 116.15 128.83 116.15 129.73 Z M 116.15 130.68 L 116.15 131.66 C 116.14 132.56 116.86 133.30 117.76 133.30 C 118.66 133.31 119.39 132.59 119.40 131.69 L 119.41 130.70 C 119.41 129.80 118.69 129.07 117.79 129.06 C 116.89 129.06 116.16 129.78 116.15 130.68 Z M 116.15 131.65 L 116.13 132.66 C 116.11 133.55 116.83 134.29 117.73 134.31 C 118.62 134.33 119.36 133.61 119.38 132.72 L 119.40 131.70 C 119.41 130.81 118.70 130.07 117.80 130.05 C 116.91 130.03 116.17 130.75 116.15 131.65 Z M 116.13 132.63 L 116.10 133.67 C 116.07 134.57 116.77 135.32 117.66 135.35 C 118.56 135.38 119.31 134.68 119.34 133.78 L 119.38 132.74 C 119.41 131.85 118.71 131.10 117.81 131.07 C 116.92 131.04 116.16 131.74 116.13 132.63 Z M 116.10 133.64 L 116.05 134.61 C 116.01 135.50 116.69 136.27 117.58 136.31 C 118.48 136.36 119.24 135.67 119.29 134.78 L 119.34 133.81 C 119.38 132.92 118.70 132.16 117.80 132.11 C 116.91 132.06 116.15 132.75 116.10 133.64 Z M 116.06 134.58 L 115.99 135.56 C 115.93 136.46 116.60 137.23 117.49 137.29 C 118.38 137.35 119.15 136.68 119.21 135.79 L 119.28 134.81 C 119.34 133.92 118.67 133.15 117.78 133.08 C 116.89 133.02 116.12 133.69 116.06 134.58 Z M 115.99 135.54 L 115.91 136.54 C 115.83 137.43 116.49 138.21 117.38 138.28 C 118.27 138.36 119.05 137.70 119.12 136.81 L 119.21 135.81 C 119.28 134.92 118.62 134.14 117.74 134.07 C 116.85 133.99 116.07 134.65 115.99 135.54 Z M 115.91 136.52 L 115.81 137.54 C 115.73 138.42 116.38 139.21 117.26 139.30 C 118.15 139.38 118.93 138.74 119.02 137.85 L 119.12 136.83 C 119.20 135.95 118.56 135.16 117.67 135.07 C 116.79 134.99 116.00 135.64 115.91 136.52 Z M 115.82 137.52 L 115.71 138.53 C 115.61 139.41 116.25 140.21 117.13 140.30 C 118.02 140.40 118.81 139.76 118.91 138.88 L 119.02 137.87 C 119.11 136.99 118.47 136.19 117.59 136.10 C 116.71 136.00 115.92 136.64 115.82 137.52 Z M 115.72 138.52 L 115.60 139.49 C 115.50 140.37 116.12 141.16 117.00 141.27 C 117.88 141.37 118.68 140.74 118.79 139.86 L 118.90 138.89 C 119.00 138.01 118.38 137.22 117.50 137.11 C 116.62 137.01 115.82 137.64 115.72 138.52 Z M 115.61 139.47 L 115.48 140.45 C 115.37 141.33 115.99 142.13 116.87 142.24 C 117.74 142.35 118.54 141.73 118.66 140.86 L 118.78 139.88 C 118.89 139.00 118.27 138.20 117.39 138.09 C 116.52 137.98 115.72 138.60 115.61 139.47 Z M 115.49 140.45 L 115.35 141.44 C 115.24 142.31 115.85 143.12 116.72 143.23 C 117.60 143.35 118.40 142.74 118.52 141.86 L 118.65 140.87 C 118.77 139.99 118.15 139.19 117.28 139.07 C 116.41 138.96 115.60 139.57 115.49 140.45 Z M 115.36 141.43 L 115.22 142.44 C 115.10 143.31 115.71 144.12 116.58 144.24 C 117.45 144.36 118.25 143.75 118.37 142.88 L 118.51 141.87 C 118.63 141.00 118.03 140.19 117.15 140.07 C 116.28 139.95 115.48 140.56 115.36 141.43 Z M 115.22 142.44 L 115.08 143.44 C 114.96 144.31 115.56 145.11 116.43 145.24 C 117.30 145.36 118.10 144.76 118.23 143.89 L 118.37 142.88 C 118.49 142.02 117.89 141.21 117.02 141.09 C 116.15 140.96 115.35 141.57 115.22 142.44 Z M 115.08 143.44 L 114.94 144.42 C 114.82 145.28 115.42 146.09 116.28 146.21 C 117.15 146.34 117.95 145.74 118.08 144.87 L 118.22 143.89 C 118.35 143.03 117.75 142.22 116.88 142.10 C 116.01 141.97 115.21 142.57 115.08 143.44 Z M 114.95 144.41 L 114.80 145.40 C 114.67 146.27 115.27 147.07 116.14 147.20 C 117.00 147.32 117.80 146.73 117.93 145.86 L 118.07 144.87 C 118.20 144.01 117.61 143.21 116.74 143.08 C 115.88 142.95 115.07 143.55 114.95 144.41 Z M 114.81 145.40 L 114.66 146.39 C 114.53 147.25 115.12 148.06 115.99 148.18 C 116.85 148.31 117.65 147.72 117.78 146.86 L 117.92 145.86 C 118.05 145.00 117.46 144.20 116.60 144.07 C 115.74 143.94 114.93 144.54 114.81 145.40 Z M 114.66 146.39 L 114.51 147.39 C 114.38 148.25 114.98 149.05 115.83 149.18 C 116.69 149.31 117.49 148.71 117.62 147.86 L 117.77 146.86 C 117.90 146.00 117.31 145.20 116.45 145.07 C 115.59 144.94 114.79 145.53 114.66 146.39 Z M 114.52 147.39 L 114.37 148.38 C 114.24 149.24 114.83 150.04 115.68 150.17 C 116.54 150.30 117.34 149.71 117.47 148.85 L 117.62 147.86 C 117.75 147.00 117.16 146.20 116.30 146.07 C 115.45 145.94 114.65 146.53 114.52 147.39 Z M 114.37 148.38 L 114.22 149.35 C 114.09 150.21 114.68 151.01 115.53 151.14 C 116.39 151.27 117.18 150.68 117.31 149.83 L 117.46 148.85 C 117.59 148.00 117.01 147.20 116.15 147.07 C 115.30 146.94 114.50 147.53 114.37 148.38 Z M 114.23 149.35 L 114.08 150.33 C 113.95 151.18 114.53 151.98 115.38 152.11 C 116.23 152.24 117.03 151.65 117.16 150.80 L 117.31 149.83 C 117.44 148.98 116.86 148.18 116.00 148.05 C 115.15 147.92 114.36 148.50 114.23 149.35 Z M 114.08 150.33 L 113.93 151.31 C 113.80 152.16 114.38 152.95 115.23 153.08 C 116.08 153.21 116.87 152.63 117.00 151.78 L 117.16 150.80 C 117.29 149.95 116.70 149.16 115.86 149.03 C 115.01 148.90 114.21 149.48 114.08 150.33 Z M 113.94 151.31 L 113.78 152.30 C 113.65 153.15 114.23 153.94 115.08 154.07 C 115.92 154.20 116.71 153.62 116.85 152.78 L 117.00 151.78 C 117.13 150.94 116.55 150.15 115.71 150.02 C 114.86 149.88 114.07 150.46 113.94 151.31 Z M 113.79 152.30 L 113.63 153.31 C 113.50 154.15 114.08 154.94 114.92 155.08 C 115.76 155.21 116.55 154.63 116.68 153.79 L 116.84 152.78 C 116.97 151.93 116.40 151.14 115.55 151.01 C 114.71 150.88 113.92 151.46 113.79 152.30 Z M 113.64 153.31 L 113.48 154.30 C 113.35 155.14 113.92 155.93 114.76 156.06 C 115.60 156.20 116.39 155.62 116.52 154.78 L 116.68 153.79 C 116.81 152.95 116.24 152.16 115.40 152.03 C 114.56 151.90 113.77 152.47 113.64 153.31 Z M 113.48 154.30 L 113.33 155.30 C 113.20 156.14 113.77 156.92 114.61 157.05 C 115.44 157.19 116.23 156.61 116.36 155.78 L 116.52 154.78 C 116.65 153.94 116.08 153.16 115.24 153.03 C 114.40 152.89 113.62 153.47 113.48 154.30 Z M 113.33 155.30 L 113.17 156.30 C 113.04 157.13 113.61 157.92 114.45 158.05 C 115.28 158.18 116.07 157.61 116.20 156.78 L 116.36 155.78 C 116.49 154.94 115.92 154.16 115.08 154.02 C 114.25 153.89 113.46 154.46 113.33 155.30 Z M 113.18 156.30 L 113.02 157.29 C 112.89 158.13 113.45 158.91 114.29 159.04 C 115.12 159.17 115.90 158.61 116.03 157.77 L 116.19 156.78 C 116.33 155.94 115.76 155.16 114.93 155.03 C 114.09 154.90 113.31 155.46 113.18 156.30 Z M 113.02 157.29 L 112.87 158.28 C 112.73 159.11 113.30 159.89 114.13 160.02 C 114.96 160.15 115.74 159.59 115.87 158.76 L 116.03 157.77 C 116.16 156.94 115.60 156.16 114.77 156.03 C 113.94 155.90 113.16 156.46 113.02 157.29 Z M 112.87 158.28 L 112.72 159.25 C 112.58 160.08 113.15 160.86 113.97 160.99 C 114.80 161.12 115.58 160.56 115.71 159.73 L 115.87 158.76 C 116.00 157.93 115.44 157.15 114.61 157.02 C 113.78 156.89 113.00 157.45 112.87 158.28 Z M 112.72 159.25 L 112.55 160.28 C 112.42 161.11 112.98 161.88 113.81 162.02 C 114.63 162.15 115.41 161.59 115.54 160.76 L 115.71 159.73 C 115.84 158.91 115.28 158.13 114.45 158.00 C 113.63 157.86 112.85 158.43 112.72 159.25 Z M 112.56 160.28 L 112.40 161.28 C 112.26 162.10 112.82 162.88 113.64 163.01 C 114.46 163.15 115.24 162.59 115.37 161.77 L 115.54 160.76 C 115.67 159.94 115.11 159.17 114.29 159.03 C 113.47 158.90 112.69 159.46 112.56 160.28 Z M 112.40 161.28 L 112.24 162.26 C 112.10 163.08 112.66 163.85 113.48 163.99 C 114.30 164.12 115.07 163.57 115.21 162.75 L 115.37 161.77 C 115.50 160.95 114.95 160.18 114.13 160.04 C 113.31 159.90 112.54 160.46 112.40 161.28 Z M 112.24 162.25 L 112.08 163.21 C 111.94 164.03 112.49 164.80 113.31 164.94 C 114.12 165.08 114.90 164.53 115.04 163.72 L 115.20 162.75 C 115.34 161.94 114.79 161.16 113.97 161.02 C 113.16 160.89 112.38 161.44 112.24 162.25 Z M 112.09 163.21 L 111.92 164.16 C 111.78 164.97 112.32 165.75 113.13 165.89 C 113.95 166.03 114.72 165.49 114.87 164.67 L 115.03 163.72 C 115.17 162.91 114.63 162.13 113.82 161.99 C 113.00 161.85 112.23 162.39 112.09 163.21 Z M 111.93 164.15 L 111.74 165.15 C 111.60 165.96 112.13 166.74 112.95 166.89 C 113.76 167.03 114.53 166.50 114.68 165.68 L 114.86 164.68 C 115.01 163.87 114.47 163.10 113.66 162.95 C 112.85 162.80 112.07 163.34 111.93 164.15 Z M 111.75 165.15 L 111.56 166.14 C 111.41 166.95 111.95 167.73 112.75 167.88 C 113.56 168.03 114.34 167.49 114.49 166.69 L 114.67 165.69 C 114.82 164.88 114.29 164.11 113.48 163.96 C 112.68 163.81 111.90 164.34 111.75 165.15 Z M 111.57 166.14 L 111.38 167.12 C 111.23 167.93 111.76 168.70 112.56 168.85 C 113.37 169.01 114.15 168.48 114.30 167.67 L 114.48 166.69 C 114.64 165.88 114.11 165.11 113.30 164.96 C 112.50 164.80 111.72 165.33 111.57 166.14 Z M 111.39 167.12 L 111.20 168.09 C 111.05 168.89 111.58 169.67 112.38 169.82 C 113.18 169.97 113.96 169.45 114.11 168.64 L 114.29 167.67 C 114.45 166.87 113.92 166.10 113.12 165.94 C 112.31 165.79 111.54 166.32 111.39 167.12 Z M 111.21 168.09 L 111.02 169.07 C 110.87 169.87 111.40 170.64 112.20 170.79 C 113.00 170.94 113.77 170.41 113.92 169.61 L 114.10 168.64 C 114.26 167.84 113.73 167.07 112.93 166.92 C 112.13 166.77 111.36 167.29 111.21 168.09 Z M 111.03 169.07 L 110.84 170.08 C 110.69 170.88 111.21 171.65 112.01 171.80 C 112.81 171.95 113.58 171.42 113.73 170.62 L 113.92 169.61 C 114.07 168.81 113.54 168.04 112.74 167.89 C 111.94 167.74 111.18 168.27 111.03 169.07 Z M 110.84 170.08 L 110.65 171.07 C 110.50 171.87 111.03 172.64 111.82 172.79 C 112.62 172.94 113.39 172.41 113.54 171.62 L 113.72 170.62 C 113.87 169.83 113.35 169.06 112.55 168.91 C 111.76 168.76 110.99 169.28 110.84 170.08 Z M 110.66 171.07 L 110.47 172.04 C 110.32 172.83 110.84 173.60 111.63 173.75 C 112.43 173.91 113.19 173.39 113.35 172.59 L 113.53 171.62 C 113.69 170.83 113.17 170.06 112.37 169.91 C 111.58 169.75 110.81 170.27 110.66 171.07 Z M 110.48 172.03 L 110.29 172.98 C 110.13 173.77 110.64 174.54 111.44 174.70 C 112.23 174.86 112.99 174.34 113.15 173.55 L 113.34 172.60 C 113.50 171.81 112.99 171.04 112.19 170.88 C 111.40 170.73 110.63 171.24 110.48 172.03 Z M 110.29 172.97 L 110.08 173.97 C 109.92 174.76 110.42 175.53 111.21 175.70 C 112.00 175.86 112.77 175.36 112.94 174.57 L 113.15 173.57 C 113.31 172.78 112.81 172.01 112.02 171.84 C 111.23 171.68 110.46 172.18 110.29 172.97 Z M 110.09 173.96 L 109.87 174.96 C 109.70 175.74 110.19 176.52 110.98 176.69 C 111.76 176.86 112.54 176.36 112.71 175.58 L 112.93 174.58 C 113.10 173.80 112.61 173.02 111.82 172.85 C 111.04 172.68 110.26 173.17 110.09 173.96 Z M 109.88 174.95 L 109.66 175.92 C 109.48 176.70 109.97 177.48 110.75 177.65 C 111.53 177.83 112.31 177.34 112.48 176.56 L 112.70 175.59 C 112.88 174.81 112.39 174.03 111.61 173.86 C 110.83 173.68 110.05 174.17 109.88 174.95 Z M 109.66 175.91 L 109.44 176.85 C 109.26 177.63 109.75 178.41 110.53 178.59 C 111.30 178.77 112.08 178.28 112.26 177.51 L 112.48 176.57 C 112.66 175.79 112.17 175.01 111.40 174.83 C 110.62 174.65 109.84 175.14 109.66 175.91 Z M 109.45 176.85 L 109.22 177.84 C 109.04 178.61 109.52 179.39 110.30 179.57 C 111.07 179.75 111.85 179.27 112.03 178.49 L 112.26 177.51 C 112.44 176.73 111.96 175.95 111.18 175.77 C 110.40 175.59 109.63 176.08 109.45 176.85 Z M 109.22 177.84 L 108.99 178.82 C 108.81 179.59 109.29 180.37 110.07 180.55 C 110.84 180.73 111.62 180.25 111.80 179.47 L 112.03 178.49 C 112.21 177.72 111.73 176.94 110.95 176.76 C 110.18 176.58 109.40 177.06 109.22 177.84 Z M 109.00 178.81 L 108.77 179.77 C 108.58 180.54 109.06 181.32 109.83 181.50 C 110.61 181.69 111.38 181.21 111.57 180.44 L 111.79 179.48 C 111.98 178.70 111.50 177.93 110.73 177.75 C 109.96 177.56 109.18 178.04 109.00 178.81 Z M 108.77 179.76 L 108.54 180.71 C 108.35 181.48 108.82 182.26 109.59 182.45 C 110.36 182.63 111.14 182.16 111.33 181.39 L 111.56 180.45 C 111.75 179.68 111.28 178.90 110.51 178.71 C 109.74 178.52 108.96 178.99 108.77 179.76 Z M 108.55 180.69 L 108.31 181.60 C 108.11 182.37 108.57 183.15 109.34 183.35 C 110.10 183.55 110.89 183.09 111.08 182.32 L 111.32 181.41 C 111.52 180.64 111.06 179.86 110.29 179.66 C 109.53 179.46 108.74 179.92 108.55 180.69 Z M 108.32 181.57 L 108.05 182.50 C 107.83 183.27 108.27 184.06 109.03 184.28 C 109.80 184.49 110.59 184.05 110.81 183.29 L 111.07 182.36 C 111.29 181.60 110.85 180.80 110.09 180.59 C 109.33 180.37 108.54 180.81 108.32 181.57 Z M 108.07 182.46 L 107.75 183.43 C 107.51 184.18 107.92 184.99 108.67 185.24 C 109.42 185.48 110.23 185.07 110.47 184.32 L 110.79 183.34 C 111.03 182.59 110.62 181.78 109.87 181.54 C 109.12 181.29 108.31 181.70 108.07 182.46 Z M 107.77 183.38 L 107.40 184.36 C 107.13 185.10 107.50 185.93 108.24 186.20 C 108.98 186.48 109.81 186.10 110.08 185.36 L 110.45 184.37 C 110.73 183.63 110.35 182.81 109.61 182.53 C 108.87 182.26 108.05 182.64 107.77 183.38 Z M 107.43 184.31 L 107.03 185.24 C 106.73 185.96 107.07 186.80 107.80 187.11 C 108.52 187.41 109.36 187.07 109.67 186.35 L 110.06 185.42 C 110.37 184.69 110.03 183.85 109.30 183.55 C 108.57 183.24 107.73 183.58 107.43 184.31 Z M 107.06 185.17 L 106.62 186.10 C 106.28 186.81 106.58 187.67 107.29 188.01 C 108.00 188.35 108.85 188.05 109.19 187.34 L 109.64 186.41 C 109.98 185.70 109.68 184.84 108.97 184.50 C 108.26 184.16 107.40 184.46 107.06 185.17 Z M 106.66 186.03 L 106.17 186.91 C 105.78 187.60 106.03 188.47 106.72 188.85 C 107.41 189.24 108.28 188.99 108.66 188.30 L 109.15 187.41 C 109.54 186.72 109.29 185.85 108.60 185.47 C 107.91 185.09 107.04 185.34 106.66 186.03 Z M 106.23 186.82 L 105.69 187.62 C 105.26 188.28 105.44 189.16 106.09 189.60 C 106.75 190.03 107.64 189.85 108.07 189.20 L 108.60 188.39 C 109.04 187.74 108.86 186.85 108.20 186.42 C 107.55 185.98 106.66 186.16 106.23 186.82 Z M 105.79 187.49 L 105.14 188.26 C 104.63 188.86 104.71 189.76 105.31 190.27 C 105.91 190.78 106.81 190.70 107.32 190.10 L 107.97 189.33 C 108.48 188.73 108.40 187.83 107.80 187.32 C 107.20 186.81 106.30 186.89 105.79 187.49 Z M 105.30 188.10 L 104.56 188.74 C 103.97 189.25 103.90 190.15 104.42 190.75 C 104.94 191.34 105.84 191.41 106.43 190.89 L 107.16 190.26 C 107.76 189.74 107.82 188.84 107.31 188.25 C 106.79 187.65 105.89 187.59 105.30 188.10 Z M 104.75 188.60 L 103.92 189.11 C 103.25 189.52 103.04 190.40 103.45 191.07 C 103.87 191.74 104.75 191.95 105.42 191.54 L 106.25 191.03 C 106.92 190.61 107.12 189.74 106.71 189.07 C 106.30 188.40 105.42 188.19 104.75 188.60 Z M 104.10 189.02 L 103.16 189.43 C 102.44 189.74 102.11 190.58 102.42 191.30 C 102.73 192.02 103.57 192.35 104.30 192.04 L 105.24 191.63 C 105.96 191.32 106.29 190.48 105.97 189.76 C 105.66 189.03 104.82 188.70 104.10 189.02 Z M 103.28 189.38 L 102.48 189.64 C 101.73 189.89 101.32 190.70 101.57 191.44 C 101.82 192.19 102.62 192.60 103.37 192.35 L 104.17 192.09 C 104.92 191.84 105.33 191.04 105.08 190.29 C 104.84 189.54 104.03 189.13 103.28 189.38 Z M 102.53 189.62 L 101.65 189.88 C 100.89 190.09 100.45 190.89 100.67 191.64 C 100.88 192.40 101.68 192.84 102.43 192.63 L 103.32 192.37 C 104.08 192.15 104.51 191.36 104.30 190.61 C 104.08 189.85 103.29 189.41 102.53 189.62 Z M 101.66 189.87 L 100.70 190.14 C 99.94 190.35 99.49 191.14 99.70 191.90 C 99.92 192.66 100.71 193.11 101.47 192.90 L 102.42 192.63 C 103.19 192.42 103.63 191.63 103.42 190.87 C 103.21 190.11 102.42 189.66 101.66 189.87 Z M 100.67 190.15 L 99.64 190.45 C 98.89 190.68 98.45 191.48 98.68 192.24 C 98.91 192.99 99.71 193.43 100.46 193.20 L 101.49 192.89 C 102.25 192.67 102.68 191.87 102.46 191.11 C 102.23 190.35 101.43 189.92 100.67 190.15 Z M 99.59 190.47 L 98.50 190.84 C 97.75 191.10 97.35 191.91 97.60 192.66 C 97.86 193.41 98.68 193.81 99.43 193.56 L 100.52 193.18 C 101.27 192.93 101.67 192.11 101.41 191.36 C 101.16 190.61 100.34 190.21 99.59 190.47 Z M 98.43 190.86 L 97.48 191.23 C 96.74 191.53 96.38 192.36 96.67 193.10 C 96.96 193.84 97.80 194.20 98.54 193.91 L 99.49 193.54 C 100.23 193.25 100.59 192.41 100.30 191.67 C 100.01 190.93 99.17 190.57 98.43 190.86 Z M 97.44 191.25 L 96.48 191.66 C 95.75 191.98 95.42 192.83 95.73 193.56 C 96.05 194.30 96.90 194.63 97.64 194.31 L 98.59 193.90 C 99.32 193.58 99.66 192.73 99.34 192.00 C 99.02 191.26 98.17 190.93 97.44 191.25 Z M 96.45 191.67 L 95.50 192.11 C 94.77 192.45 94.45 193.31 94.79 194.04 C 95.13 194.77 95.99 195.08 96.72 194.75 L 97.67 194.31 C 98.40 193.97 98.72 193.10 98.38 192.38 C 98.04 191.65 97.18 191.33 96.45 191.67 Z M 95.47 192.11 L 94.54 192.56 C 93.81 192.91 93.51 193.79 93.86 194.51 C 94.21 195.24 95.08 195.54 95.81 195.19 L 96.74 194.74 C 97.47 194.39 97.77 193.52 97.42 192.79 C 97.07 192.07 96.20 191.76 95.47 192.11 Z M 94.52 192.56 L 93.63 193.00 C 92.90 193.36 92.61 194.24 92.97 194.97 C 93.33 195.70 94.21 196.00 94.93 195.64 L 95.83 195.19 C 96.55 194.83 96.85 193.95 96.49 193.23 C 96.13 192.50 95.25 192.20 94.52 192.56 Z M 93.62 193.00 L 92.79 193.42 C 92.06 193.78 91.76 194.66 92.13 195.39 C 92.49 196.12 93.38 196.42 94.11 196.06 L 94.94 195.64 C 95.67 195.28 95.96 194.39 95.60 193.66 C 95.24 192.93 94.35 192.64 93.62 193.00 Z M 92.79 193.40 L 91.83 193.88 C 91.09 194.24 90.79 195.13 91.15 195.86 C 91.51 196.60 92.40 196.90 93.13 196.54 L 94.10 196.07 C 94.84 195.71 95.14 194.82 94.78 194.08 C 94.42 193.35 93.53 193.04 92.79 193.40 Z M 91.85 193.86 L 90.86 194.32 C 90.12 194.67 89.80 195.56 90.15 196.31 C 90.50 197.05 91.39 197.37 92.14 197.02 L 93.12 196.56 C 93.86 196.21 94.19 195.32 93.83 194.57 C 93.48 193.83 92.59 193.51 91.85 193.86 Z M 90.89 194.29 L 90.02 194.68 C 89.26 195.01 88.91 195.90 89.25 196.66 C 89.58 197.42 90.47 197.77 91.24 197.43 L 92.11 197.05 C 92.87 196.71 93.22 195.82 92.88 195.06 C 92.54 194.30 91.65 193.96 90.89 194.29 Z M 90.05 194.65 L 89.23 194.98 C 88.45 195.30 88.08 196.19 88.39 196.97 C 88.71 197.74 89.60 198.12 90.38 197.80 L 91.20 197.46 C 91.98 197.15 92.35 196.26 92.04 195.48 C 91.72 194.70 90.83 194.33 90.05 194.65 Z M 89.26 194.96 L 88.39 195.29 C 87.60 195.59 87.20 196.47 87.50 197.27 C 87.80 198.06 88.69 198.46 89.48 198.16 L 90.35 197.83 C 91.14 197.53 91.54 196.64 91.24 195.85 C 90.94 195.05 90.05 194.66 89.26 194.96 Z M 88.42 195.25 L 87.47 195.59 C 86.66 195.87 86.23 196.76 86.52 197.57 C 86.81 198.38 87.70 198.81 88.51 198.52 L 89.45 198.19 C 90.26 197.90 90.69 197.02 90.40 196.20 C 90.12 195.39 89.23 194.97 88.42 195.25 Z M 87.51 195.55 L 86.54 195.86 C 85.70 196.12 85.25 197.02 85.51 197.85 C 85.78 198.68 86.67 199.14 87.50 198.87 L 88.47 198.56 C 89.30 198.29 89.76 197.40 89.50 196.57 C 89.23 195.74 88.34 195.28 87.51 195.55 Z M 86.58 195.82 L 85.62 196.09 C 84.76 196.33 84.27 197.22 84.51 198.07 C 84.75 198.93 85.64 199.43 86.49 199.18 L 87.46 198.91 C 88.31 198.67 88.81 197.78 88.57 196.93 C 88.33 196.07 87.44 195.58 86.58 195.82 Z M 85.69 196.04 L 84.47 196.31 C 83.59 196.51 83.03 197.39 83.23 198.28 C 83.43 199.16 84.31 199.71 85.20 199.51 L 86.42 199.24 C 87.30 199.04 87.86 198.16 87.66 197.28 C 87.46 196.39 86.58 195.84 85.69 196.04 Z M 84.61 196.24 L 83.49 196.39 C 82.57 196.51 81.92 197.36 82.04 198.28 C 82.17 199.21 83.01 199.86 83.94 199.73 L 85.06 199.59 C 85.98 199.46 86.63 198.62 86.51 197.69 C 86.38 196.77 85.54 196.12 84.61 196.24 Z M 84.42 196.48 L 84.16 196.36 C 83.28 195.97 82.25 196.36 81.86 197.24 C 81.47 198.11 81.87 199.14 82.74 199.53 L 83.01 199.65 C 83.89 200.04 84.91 199.64 85.30 198.77 C 85.69 197.89 85.30 196.87 84.42 196.48 Z M 84.33 199.47 L 84.78 199.21 C 85.62 198.73 85.91 197.65 85.43 196.81 C 84.94 195.96 83.87 195.67 83.02 196.16 L 82.57 196.42 C 81.73 196.90 81.44 197.98 81.92 198.82 C 82.41 199.66 83.48 199.95 84.33 199.47 Z M 84.60 199.30 L 85.50 198.91 C 86.40 198.52 86.81 197.49 86.42 196.59 C 86.04 195.70 85.00 195.29 84.10 195.68 L 83.20 196.07 C 82.31 196.45 81.90 197.49 82.28 198.38 C 82.67 199.28 83.71 199.69 84.60 199.30 Z M 85.46 198.93 L 86.71 198.43 C 87.62 198.06 88.05 197.04 87.69 196.13 C 87.32 195.23 86.30 194.79 85.39 195.15 L 84.15 195.66 C 83.24 196.02 82.80 197.05 83.17 197.95 C 83.53 198.86 84.56 199.29 85.46 198.93 Z M 86.71 198.43 L 87.85 197.97 C 88.76 197.61 89.20 196.58 88.83 195.68 C 88.47 194.77 87.44 194.33 86.54 194.69 L 85.40 195.15 C 84.49 195.51 84.05 196.54 84.41 197.45 C 84.77 198.35 85.80 198.79 86.71 198.43 Z M 87.86 197.97 L 88.80 197.59 C 89.71 197.22 90.14 196.20 89.78 195.29 C 89.41 194.39 88.39 193.95 87.48 194.31 L 86.53 194.70 C 85.63 195.06 85.19 196.09 85.56 196.99 C 85.92 197.90 86.95 198.34 87.86 197.97 Z M 88.81 197.59 L 89.78 197.19 C 90.68 196.83 91.11 195.80 90.75 194.89 C 90.38 193.99 89.35 193.56 88.45 193.92 L 87.48 194.32 C 86.57 194.68 86.14 195.71 86.51 196.62 C 86.87 197.52 87.90 197.95 88.81 197.59 Z M 89.78 197.19 L 90.74 196.80 C 91.65 196.43 92.08 195.40 91.71 194.49 C 91.34 193.59 90.31 193.16 89.41 193.53 L 88.44 193.93 C 87.54 194.29 87.11 195.33 87.48 196.23 C 87.85 197.13 88.88 197.56 89.78 197.19 Z M 90.75 196.79 L 91.68 196.41 C 92.58 196.04 93.01 195.01 92.64 194.11 C 92.26 193.21 91.23 192.78 90.33 193.15 L 89.40 193.53 C 88.50 193.90 88.07 194.94 88.44 195.84 C 88.82 196.74 89.85 197.17 90.75 196.79 Z M 91.69 196.41 L 92.55 196.04 C 93.45 195.67 93.88 194.64 93.50 193.74 C 93.13 192.84 92.09 192.41 91.20 192.79 L 90.33 193.15 C 89.43 193.53 89.00 194.56 89.38 195.46 C 89.75 196.36 90.79 196.78 91.69 196.41 Z M 92.56 196.04 L 93.59 195.60 C 94.49 195.22 94.90 194.19 94.52 193.29 C 94.14 192.40 93.11 191.98 92.22 192.36 L 91.19 192.79 C 90.29 193.17 89.87 194.21 90.25 195.10 C 90.63 196.00 91.67 196.42 92.56 196.04 Z M 93.60 195.59 L 94.60 195.16 C 95.49 194.77 95.90 193.74 95.52 192.85 C 95.13 191.96 94.09 191.55 93.20 191.93 L 92.20 192.37 C 91.31 192.75 90.90 193.79 91.29 194.68 C 91.68 195.57 92.71 195.98 93.60 195.59 Z M 94.61 195.15 L 95.47 194.77 C 96.35 194.38 96.75 193.35 96.36 192.46 C 95.97 191.57 94.94 191.17 94.05 191.56 L 93.20 191.94 C 92.31 192.33 91.91 193.37 92.30 194.25 C 92.69 195.14 93.73 195.54 94.61 195.15 Z M 95.47 194.77 L 96.24 194.42 C 97.12 194.03 97.52 193.00 97.13 192.12 C 96.74 191.23 95.70 190.84 94.82 191.23 L 94.05 191.57 C 93.17 191.96 92.77 193.00 93.16 193.88 C 93.55 194.76 94.59 195.16 95.47 194.77 Z M 96.23 194.42 L 97.12 194.03 C 98.00 193.64 98.40 192.61 98.01 191.73 C 97.62 190.85 96.59 190.45 95.71 190.84 L 94.83 191.23 C 93.95 191.62 93.55 192.65 93.93 193.53 C 94.32 194.41 95.35 194.81 96.23 194.42 Z M 97.12 194.02 L 98.03 193.62 C 98.90 193.23 99.30 192.20 98.91 191.33 C 98.52 190.45 97.49 190.06 96.62 190.45 L 95.71 190.85 C 94.83 191.24 94.44 192.27 94.83 193.14 C 95.22 194.02 96.24 194.41 97.12 194.02 Z M 98.05 193.60 L 98.96 193.18 C 99.83 192.78 100.20 191.75 99.80 190.88 C 99.40 190.02 98.37 189.64 97.50 190.04 L 96.59 190.46 C 95.73 190.87 95.35 191.89 95.75 192.76 C 96.15 193.63 97.18 194.00 98.05 193.60 Z M 99.00 193.15 L 99.88 192.71 C 100.74 192.29 101.08 191.26 100.66 190.41 C 100.24 189.55 99.21 189.21 98.35 189.63 L 97.47 190.07 C 96.61 190.49 96.27 191.52 96.69 192.37 C 97.11 193.23 98.14 193.58 99.00 193.15 Z M 99.91 192.69 L 100.80 192.23 C 101.64 191.79 101.96 190.75 101.52 189.91 C 101.08 189.08 100.05 188.75 99.21 189.19 L 98.32 189.65 C 97.48 190.09 97.16 191.13 97.60 191.97 C 98.04 192.80 99.07 193.13 99.91 192.69 Z M 100.81 192.21 L 101.70 191.73 C 102.53 191.28 102.84 190.25 102.39 189.42 C 101.95 188.59 100.91 188.28 100.08 188.73 L 99.19 189.21 C 98.36 189.65 98.05 190.69 98.50 191.52 C 98.95 192.35 99.98 192.66 100.81 192.21 Z M 101.70 191.72 L 102.58 191.24 C 103.41 190.79 103.71 189.76 103.26 188.94 C 102.81 188.11 101.78 187.81 100.96 188.26 L 100.08 188.74 C 99.25 189.19 98.95 190.22 99.40 191.04 C 99.85 191.87 100.88 192.17 101.70 191.72 Z M 102.58 191.23 L 103.45 190.75 C 104.27 190.31 104.57 189.28 104.12 188.46 C 103.67 187.64 102.65 187.34 101.83 187.79 L 100.96 188.27 C 100.14 188.72 99.84 189.74 100.29 190.56 C 100.74 191.38 101.77 191.68 102.58 191.23 Z M 103.46 190.74 L 104.33 190.25 C 105.14 189.80 105.43 188.78 104.98 187.97 C 104.53 187.16 103.51 186.87 102.70 187.32 L 101.82 187.81 C 101.01 188.26 100.72 189.28 101.17 190.09 C 101.62 190.90 102.65 191.19 103.46 190.74 Z M 104.34 190.24 L 105.22 189.73 C 106.02 189.28 106.30 188.26 105.84 187.46 C 105.39 186.66 104.37 186.38 103.57 186.84 L 102.69 187.34 C 101.89 187.79 101.61 188.81 102.06 189.61 C 102.52 190.41 103.54 190.69 104.34 190.24 Z M 105.23 189.72 L 106.08 189.22 C 106.87 188.75 107.14 187.73 106.67 186.94 C 106.21 186.15 105.19 185.89 104.40 186.35 L 103.55 186.85 C 102.76 187.32 102.50 188.33 102.96 189.13 C 103.43 189.92 104.44 190.18 105.23 189.72 Z M 106.09 189.20 L 106.95 188.68 C 107.73 188.22 107.98 187.20 107.52 186.42 C 107.05 185.64 106.04 185.39 105.25 185.86 L 104.40 186.37 C 103.62 186.84 103.36 187.85 103.83 188.63 C 104.30 189.41 105.31 189.67 106.09 189.20 Z M 106.95 188.67 L 107.81 188.15 C 108.59 187.68 108.84 186.67 108.37 185.90 C 107.90 185.12 106.89 184.88 106.12 185.35 L 105.25 185.87 C 104.48 186.34 104.23 187.35 104.70 188.12 C 105.17 188.89 106.18 189.14 106.95 188.67 Z M 107.81 188.14 L 108.66 187.62 C 109.42 187.16 109.67 186.15 109.20 185.39 C 108.73 184.62 107.73 184.38 106.96 184.84 L 106.12 185.36 C 105.35 185.82 105.11 186.83 105.58 187.59 C 106.04 188.36 107.04 188.60 107.81 188.14 Z M 108.65 187.61 L 109.49 187.10 C 110.25 186.64 110.49 185.64 110.02 184.88 C 109.56 184.12 108.57 183.88 107.80 184.34 L 106.97 184.85 C 106.21 185.32 105.97 186.31 106.43 187.07 C 106.89 187.84 107.89 188.08 108.65 187.61 Z M 109.48 187.09 L 110.33 186.57 C 111.09 186.11 111.33 185.12 110.86 184.36 C 110.40 183.61 109.41 183.37 108.66 183.84 L 107.81 184.36 C 107.05 184.82 106.82 185.81 107.28 186.56 C 107.74 187.32 108.73 187.55 109.48 187.09 Z M 110.33 186.56 L 111.21 186.01 C 111.96 185.55 112.19 184.57 111.73 183.82 C 111.27 183.08 110.29 182.84 109.54 183.31 L 108.66 183.85 C 107.91 184.31 107.68 185.29 108.14 186.04 C 108.60 186.78 109.58 187.02 110.33 186.56 Z M 111.21 186.00 L 112.05 185.48 C 112.79 185.02 113.02 184.04 112.56 183.30 C 112.10 182.56 111.12 182.34 110.38 182.80 L 109.54 183.32 C 108.80 183.78 108.58 184.75 109.04 185.49 C 109.50 186.23 110.47 186.46 111.21 186.00 Z M 112.05 185.47 L 112.90 184.93 C 113.63 184.47 113.86 183.51 113.40 182.77 C 112.94 182.04 111.97 181.82 111.24 182.28 L 110.39 182.81 C 109.65 183.27 109.43 184.23 109.89 184.97 C 110.35 185.70 111.31 185.92 112.05 185.47 Z M 112.89 184.92 L 113.75 184.39 C 114.48 183.93 114.70 182.97 114.24 182.24 C 113.79 181.51 112.83 181.29 112.10 181.75 L 111.24 182.29 C 110.51 182.74 110.29 183.70 110.75 184.43 C 111.21 185.16 112.17 185.38 112.89 184.92 Z M 113.75 184.38 L 114.60 183.84 C 115.32 183.39 115.54 182.44 115.08 181.71 C 114.63 180.99 113.67 180.77 112.95 181.23 L 112.10 181.76 C 111.38 182.21 111.16 183.17 111.62 183.89 C 112.07 184.61 113.02 184.83 113.75 184.38 Z M 114.59 183.83 L 115.44 183.30 C 116.16 182.85 116.38 181.90 115.93 181.18 C 115.48 180.46 114.53 180.25 113.81 180.70 L 112.96 181.23 C 112.24 181.68 112.02 182.63 112.47 183.35 C 112.92 184.07 113.87 184.28 114.59 183.83 Z M 115.44 183.29 L 116.28 182.76 C 116.99 182.31 117.21 181.37 116.76 180.65 C 116.31 179.94 115.37 179.73 114.65 180.18 L 113.81 180.71 C 113.10 181.16 112.89 182.10 113.34 182.81 C 113.79 183.52 114.73 183.74 115.44 183.29 Z M 116.28 182.75 L 117.12 182.21 C 117.83 181.76 118.03 180.82 117.58 180.12 C 117.13 179.41 116.19 179.21 115.49 179.66 L 114.65 180.19 C 113.95 180.64 113.74 181.58 114.19 182.28 C 114.64 182.99 115.58 183.20 116.28 182.75 Z M 117.13 182.20 L 117.97 181.65 C 118.66 181.19 118.86 180.26 118.41 179.56 C 117.95 178.87 117.02 178.67 116.32 179.12 L 115.48 179.67 C 114.78 180.13 114.59 181.06 115.04 181.76 C 115.50 182.45 116.43 182.65 117.13 182.20 Z M 117.98 181.63 L 118.78 181.10 C 119.47 180.64 119.65 179.71 119.19 179.02 C 118.73 178.33 117.80 178.15 117.12 178.61 L 116.31 179.14 C 115.63 179.60 115.44 180.53 115.90 181.22 C 116.36 181.91 117.29 182.09 117.98 181.63 Z M 118.79 181.08 L 119.60 180.53 C 120.28 180.06 120.46 179.14 119.99 178.46 C 119.53 177.78 118.60 177.60 117.92 178.06 L 117.11 178.62 C 116.43 179.08 116.25 180.01 116.71 180.69 C 117.18 181.37 118.10 181.55 118.79 181.08 Z M 119.61 180.52 L 120.44 179.94 C 121.11 179.48 121.28 178.55 120.81 177.88 C 120.35 177.21 119.42 177.04 118.75 177.50 L 117.92 178.08 C 117.25 178.54 117.08 179.47 117.54 180.14 C 118.01 180.81 118.93 180.98 119.61 180.52 Z M 120.44 179.93 L 121.28 179.34 C 121.95 178.87 122.11 177.95 121.65 177.28 C 121.18 176.62 120.26 176.45 119.59 176.92 L 118.75 177.51 C 118.08 177.98 117.92 178.90 118.38 179.57 C 118.85 180.23 119.77 180.40 120.44 179.93 Z M 121.28 179.33 L 122.09 178.76 C 122.75 178.30 122.91 177.38 122.44 176.72 C 121.98 176.05 121.06 175.90 120.40 176.36 L 119.59 176.93 C 118.93 177.40 118.77 178.31 119.24 178.98 C 119.71 179.64 120.62 179.80 121.28 179.33 Z M 122.09 178.75 L 122.89 178.18 C 123.55 177.72 123.71 176.80 123.24 176.14 C 122.77 175.49 121.86 175.33 121.20 175.80 L 120.40 176.37 C 119.74 176.84 119.58 177.75 120.05 178.41 C 120.52 179.07 121.43 179.22 122.09 178.75 Z M 122.90 178.18 L 123.71 177.59 C 124.36 177.12 124.51 176.21 124.04 175.56 C 123.57 174.90 122.66 174.75 122.01 175.22 L 121.20 175.81 C 120.54 176.28 120.39 177.19 120.86 177.84 C 121.33 178.50 122.24 178.64 122.90 178.18 Z M 123.71 177.58 L 124.54 176.99 C 125.19 176.51 125.33 175.61 124.86 174.96 C 124.39 174.31 123.48 174.16 122.83 174.64 L 122.01 175.23 C 121.36 175.70 121.21 176.61 121.68 177.26 C 122.16 177.91 123.06 178.05 123.71 177.58 Z M 124.54 176.98 L 125.36 176.38 C 126.00 175.90 126.14 175.00 125.67 174.35 C 125.19 173.71 124.29 173.57 123.64 174.04 L 122.83 174.64 C 122.18 175.12 122.04 176.02 122.52 176.67 C 122.99 177.31 123.90 177.45 124.54 176.98 Z M 125.36 176.37 L 126.15 175.78 C 126.79 175.30 126.93 174.40 126.45 173.76 C 125.98 173.12 125.07 172.99 124.43 173.46 L 123.64 174.05 C 123.00 174.53 122.87 175.43 123.34 176.07 C 123.82 176.71 124.72 176.84 125.36 176.37 Z M 126.16 175.77 L 126.96 175.17 C 127.59 174.69 127.72 173.79 127.24 173.16 C 126.76 172.52 125.86 172.39 125.22 172.87 L 124.43 173.47 C 123.79 173.95 123.66 174.85 124.14 175.49 C 124.62 176.12 125.52 176.25 126.16 175.77 Z M 126.96 175.17 L 127.76 174.56 C 128.39 174.08 128.51 173.17 128.03 172.54 C 127.55 171.91 126.65 171.79 126.02 172.27 L 125.22 172.88 C 124.59 173.36 124.46 174.26 124.95 174.89 C 125.43 175.52 126.33 175.65 126.96 175.17 Z M 127.76 174.55 L 128.56 173.94 C 129.19 173.45 129.31 172.55 128.83 171.92 C 128.34 171.30 127.44 171.18 126.82 171.66 L 126.01 172.28 C 125.39 172.76 125.27 173.66 125.75 174.29 C 126.23 174.92 127.13 175.03 127.76 174.55 Z M 128.57 173.93 L 129.35 173.32 C 129.98 172.83 130.09 171.93 129.61 171.31 C 129.12 170.69 128.22 170.57 127.60 171.06 L 126.81 171.67 C 126.19 172.15 126.07 173.05 126.56 173.68 C 127.04 174.30 127.94 174.41 128.57 173.93 Z M 129.36 173.31 L 130.13 172.71 C 130.75 172.22 130.86 171.32 130.38 170.70 C 129.89 170.08 128.99 169.97 128.37 170.46 L 127.60 171.06 C 126.97 171.55 126.86 172.45 127.35 173.07 C 127.84 173.69 128.74 173.80 129.36 173.31 Z M 130.13 172.71 L 130.91 172.09 C 131.53 171.60 131.64 170.70 131.15 170.08 C 130.66 169.46 129.76 169.36 129.14 169.85 L 128.36 170.46 C 127.74 170.95 127.64 171.85 128.13 172.47 C 128.62 173.09 129.51 173.19 130.13 172.71 Z M 130.91 172.09 L 131.70 171.46 C 132.32 170.97 132.42 170.08 131.93 169.46 C 131.44 168.84 130.54 168.74 129.92 169.23 L 129.14 169.85 C 128.52 170.34 128.42 171.24 128.91 171.86 C 129.40 172.48 130.30 172.58 130.91 172.09 Z M 131.70 171.46 L 132.50 170.82 C 133.12 170.33 133.22 169.43 132.72 168.82 C 132.23 168.20 131.33 168.10 130.72 168.59 L 129.92 169.23 C 129.31 169.72 129.20 170.62 129.70 171.24 C 130.19 171.85 131.09 171.95 131.70 171.46 Z M 132.50 170.82 L 133.28 170.19 C 133.90 169.70 134.00 168.80 133.50 168.19 C 133.01 167.57 132.11 167.48 131.50 167.97 L 130.72 168.60 C 130.10 169.09 130.00 169.99 130.50 170.60 C 130.99 171.22 131.89 171.31 132.50 170.82 Z M 133.29 170.19 L 134.05 169.57 C 134.66 169.08 134.76 168.18 134.27 167.57 C 133.77 166.96 132.87 166.86 132.26 167.35 L 131.49 167.97 C 130.88 168.47 130.79 169.36 131.28 169.98 C 131.77 170.59 132.67 170.69 133.29 170.19 Z M 134.05 169.57 L 134.83 168.95 C 135.44 168.45 135.53 167.55 135.04 166.94 C 134.54 166.33 133.65 166.23 133.03 166.73 L 132.26 167.36 C 131.65 167.85 131.55 168.75 132.05 169.36 C 132.54 169.97 133.44 170.07 134.05 169.57 Z M 134.83 168.95 L 135.61 168.31 C 136.22 167.82 136.32 166.92 135.82 166.31 C 135.32 165.69 134.43 165.60 133.81 166.10 L 133.03 166.73 C 132.42 167.23 132.33 168.12 132.82 168.74 C 133.32 169.35 134.22 169.44 134.83 168.95 Z M 135.61 168.31 L 136.40 167.67 C 137.01 167.17 137.10 166.28 136.61 165.67 C 136.11 165.05 135.21 164.96 134.60 165.46 L 133.81 166.10 C 133.20 166.59 133.11 167.49 133.61 168.10 C 134.10 168.71 135.00 168.81 135.61 168.31 Z M 136.40 167.67 L 137.07 167.13 C 137.68 166.63 137.77 165.73 137.28 165.12 C 136.78 164.51 135.88 164.42 135.27 164.91 L 134.60 165.46 C 133.99 165.95 133.90 166.85 134.39 167.46 C 134.89 168.07 135.79 168.17 136.40 167.67 Z"
      fill="black"
      fill-rule="nonzero" /><path d="M 140.36 115.92 L 140.31 116.90 C 140.25 117.80 140.94 118.57 141.84 118.62 C 142.73 118.68 143.51 117.99 143.56 117.09 L 143.62 116.11 C 143.67 115.21 142.98 114.44 142.09 114.39 C 141.19 114.33 140.42 115.02 140.36 115.92 Z M 140.30 117.05 L 140.33 118.03 C 140.36 118.93 141.11 119.64 142.01 119.61 C 142.92 119.58 143.63 118.83 143.60 117.93 L 143.57 116.95 C 143.54 116.04 142.78 115.34 141.88 115.36 C 140.98 115.39 140.27 116.15 140.30 117.05 Z M 140.36 118.32 L 140.57 119.29 C 140.76 120.18 141.63 120.74 142.52 120.55 C 143.40 120.36 143.97 119.49 143.78 118.60 L 143.57 117.63 C 143.38 116.75 142.50 116.18 141.62 116.37 C 140.73 116.57 140.17 117.44 140.36 118.32 Z M 140.70 119.66 L 141.13 120.55 C 141.53 121.37 142.51 121.70 143.32 121.31 C 144.14 120.91 144.48 119.93 144.08 119.11 L 143.65 118.23 C 143.25 117.41 142.27 117.07 141.45 117.47 C 140.64 117.87 140.30 118.85 140.70 119.66 Z M 141.31 120.82 L 141.89 121.57 C 142.44 122.29 143.46 122.42 144.17 121.88 C 144.88 121.33 145.02 120.32 144.47 119.60 L 143.89 118.85 C 143.35 118.13 142.33 118.00 141.62 118.54 C 140.91 119.09 140.77 120.11 141.31 120.82 Z M 142.04 121.70 L 142.75 122.43 C 143.36 123.06 144.37 123.08 145.00 122.46 C 145.64 121.85 145.65 120.84 145.03 120.21 L 144.32 119.48 C 143.71 118.85 142.70 118.83 142.07 119.45 C 141.44 120.06 141.42 121.07 142.04 121.70 Z M 142.85 122.49 L 143.63 123.18 C 144.28 123.76 145.27 123.70 145.85 123.05 C 146.42 122.40 146.36 121.41 145.71 120.84 L 144.93 120.14 C 144.28 119.57 143.29 119.63 142.72 120.28 C 142.14 120.93 142.21 121.92 142.85 122.49 Z M 143.70 123.20 L 144.49 123.85 C 145.15 124.38 146.12 124.28 146.66 123.62 C 147.19 122.96 147.09 121.99 146.43 121.46 L 145.64 120.81 C 144.98 120.28 144.01 120.38 143.48 121.04 C 142.94 121.70 143.04 122.67 143.70 123.20 Z M 144.54 123.85 L 145.40 124.52 C 146.06 125.03 147.01 124.91 147.52 124.25 C 148.03 123.59 147.91 122.64 147.25 122.12 L 146.39 121.46 C 145.73 120.94 144.78 121.06 144.27 121.72 C 143.76 122.38 143.88 123.33 144.54 123.85 Z M 145.44 124.52 L 146.26 125.12 C 146.92 125.61 147.85 125.47 148.34 124.81 C 148.83 124.15 148.69 123.22 148.03 122.73 L 147.21 122.12 C 146.55 121.63 145.62 121.77 145.13 122.43 C 144.64 123.09 144.78 124.03 145.44 124.52 Z M 146.31 125.13 L 147.09 125.68 C 147.76 126.14 148.67 125.97 149.14 125.31 C 149.60 124.64 149.43 123.73 148.77 123.26 L 147.98 122.72 C 147.32 122.26 146.40 122.42 145.94 123.09 C 145.47 123.75 145.64 124.67 146.31 125.13 Z M 147.15 125.69 L 147.93 126.19 C 148.61 126.63 149.50 126.43 149.93 125.76 C 150.37 125.09 150.17 124.19 149.50 123.76 L 148.71 123.25 C 148.04 122.82 147.15 123.02 146.71 123.69 C 146.28 124.36 146.48 125.26 147.15 125.69 Z M 147.99 126.21 L 148.85 126.72 C 149.54 127.13 150.42 126.90 150.82 126.22 C 151.22 125.54 151.00 124.66 150.31 124.25 L 149.45 123.74 C 148.76 123.34 147.88 123.56 147.48 124.25 C 147.08 124.93 147.30 125.81 147.99 126.21 Z M 148.89 126.74 L 149.77 127.22 C 150.46 127.61 151.33 127.35 151.71 126.66 C 152.09 125.97 151.84 125.10 151.15 124.72 L 150.27 124.23 C 149.58 123.85 148.71 124.10 148.33 124.80 C 147.95 125.49 148.20 126.36 148.89 126.74 Z M 149.79 127.23 L 150.67 127.70 C 151.37 128.07 152.23 127.80 152.60 127.10 C 152.97 126.40 152.70 125.54 152.00 125.17 L 151.13 124.71 C 150.43 124.34 149.56 124.61 149.20 125.30 C 148.83 126.00 149.09 126.86 149.79 127.23 Z M 150.68 127.70 L 150.99 127.86 C 151.69 128.23 152.55 127.95 152.91 127.26 C 153.28 126.56 153.01 125.70 152.31 125.33 L 152.00 125.17 C 151.30 124.81 150.44 125.08 150.07 125.77 C 149.71 126.47 149.98 127.33 150.68 127.70 Z"
      fill="black"
      fill-rule="nonzero" /><path d="M 163.22 109.05 L 162.82 109.94 C 162.48 110.71 162.83 111.61 163.59 111.95 C 164.36 112.29 165.26 111.95 165.60 111.18 L 166.00 110.28 C 166.34 109.51 166.00 108.61 165.23 108.27 C 164.46 107.93 163.56 108.28 163.22 109.05 Z M 162.78 109.95 L 162.39 110.86 C 162.06 111.65 162.43 112.57 163.22 112.90 C 164.01 113.24 164.93 112.87 165.26 112.08 L 165.65 111.17 C 165.98 110.38 165.61 109.46 164.82 109.13 C 164.03 108.79 163.12 109.16 162.78 109.95 Z M 162.34 110.90 L 161.98 111.83 C 161.66 112.65 162.07 113.57 162.90 113.89 C 163.72 114.21 164.64 113.80 164.96 112.98 L 165.32 112.04 C 165.63 111.22 165.22 110.30 164.40 109.98 C 163.58 109.67 162.66 110.08 162.34 110.90 Z M 161.92 111.89 L 161.60 112.86 C 161.32 113.72 161.79 114.64 162.64 114.92 C 163.50 115.20 164.42 114.74 164.70 113.88 L 165.02 112.91 C 165.30 112.06 164.83 111.14 163.98 110.85 C 163.12 110.57 162.20 111.04 161.92 111.89 Z M 161.55 112.95 L 161.29 113.93 C 161.06 114.82 161.58 115.72 162.47 115.96 C 163.35 116.19 164.26 115.66 164.49 114.78 L 164.75 113.79 C 164.99 112.91 164.46 112.00 163.57 111.77 C 162.69 111.54 161.78 112.06 161.55 112.95 Z M 161.26 114.01 L 161.05 115.01 C 160.86 115.92 161.44 116.80 162.34 116.99 C 163.24 117.18 164.13 116.60 164.32 115.70 L 164.53 114.70 C 164.72 113.79 164.14 112.91 163.23 112.72 C 162.33 112.53 161.45 113.11 161.26 114.01 Z M 161.03 115.07 L 160.85 116.07 C 160.70 116.99 161.31 117.86 162.23 118.01 C 163.14 118.17 164.01 117.55 164.17 116.64 L 164.34 115.64 C 164.49 114.72 163.88 113.85 162.97 113.70 C 162.05 113.54 161.18 114.16 161.03 115.07 Z M 160.84 116.11 L 160.70 117.10 C 160.56 118.02 161.20 118.88 162.13 119.01 C 163.05 119.14 163.91 118.50 164.04 117.58 L 164.18 116.60 C 164.32 115.68 163.68 114.82 162.75 114.68 C 161.83 114.55 160.97 115.19 160.84 116.11 Z M 160.68 117.12 L 160.56 118.09 C 160.43 119.02 161.09 119.87 162.02 119.99 C 162.95 120.12 163.80 119.46 163.93 118.53 L 164.05 117.56 C 164.17 116.63 163.52 115.78 162.59 115.65 C 161.66 115.53 160.81 116.19 160.68 117.12 Z M 160.55 118.10 L 160.42 119.12 C 160.30 120.05 160.97 120.90 161.90 121.02 C 162.84 121.14 163.69 120.47 163.81 119.54 L 163.93 118.52 C 164.05 117.59 163.39 116.73 162.45 116.62 C 161.52 116.50 160.67 117.16 160.55 118.10 Z M 160.41 119.12 L 160.30 120.10 C 160.18 121.03 160.85 121.89 161.79 122.00 C 162.73 122.11 163.58 121.45 163.69 120.51 L 163.81 119.53 C 163.93 118.59 163.26 117.74 162.32 117.63 C 161.38 117.51 160.53 118.18 160.41 119.12 Z M 160.29 120.10 L 160.18 121.07 C 160.06 122.01 160.73 122.86 161.68 122.98 C 162.62 123.09 163.47 122.42 163.58 121.47 L 163.70 120.51 C 163.81 119.56 163.14 118.71 162.20 118.60 C 161.26 118.48 160.40 119.16 160.29 120.10 Z M 160.17 121.06 L 160.05 122.03 C 159.94 122.97 160.61 123.83 161.56 123.95 C 162.50 124.06 163.36 123.39 163.47 122.44 L 163.59 121.48 C 163.70 120.53 163.03 119.68 162.09 119.56 C 161.14 119.45 160.28 120.12 160.17 121.06 Z M 160.05 122.03 L 159.93 122.99 C 159.81 123.93 160.49 124.79 161.43 124.91 C 162.38 125.03 163.24 124.36 163.36 123.41 L 163.48 122.45 C 163.59 121.50 162.92 120.64 161.97 120.52 C 161.03 120.41 160.17 121.08 160.05 122.03 Z M 159.93 122.98 L 159.80 123.97 C 159.68 124.92 160.35 125.79 161.30 125.91 C 162.25 126.03 163.12 125.36 163.24 124.41 L 163.36 123.42 C 163.48 122.47 162.81 121.60 161.86 121.48 C 160.91 121.36 160.05 122.03 159.93 122.98 Z M 159.80 123.97 L 159.67 124.98 C 159.54 125.93 160.21 126.80 161.16 126.93 C 162.11 127.05 162.98 126.39 163.10 125.44 L 163.24 124.42 C 163.36 123.47 162.69 122.60 161.75 122.47 C 160.80 122.35 159.92 123.02 159.80 123.97 Z M 159.66 124.97 L 159.52 125.98 C 159.39 126.94 160.06 127.81 161.01 127.94 C 161.96 128.07 162.84 127.41 162.97 126.46 L 163.11 125.45 C 163.24 124.49 162.57 123.62 161.62 123.49 C 160.67 123.36 159.79 124.02 159.66 124.97 Z M 159.52 125.97 L 159.38 126.94 C 159.25 127.89 159.91 128.77 160.86 128.91 C 161.81 129.05 162.70 128.39 162.83 127.43 L 162.97 126.47 C 163.11 125.52 162.45 124.63 161.49 124.50 C 160.54 124.36 159.66 125.02 159.52 125.97 Z M 159.38 126.93 L 159.23 127.90 C 159.09 128.86 159.75 129.75 160.70 129.89 C 161.66 130.03 162.54 129.38 162.69 128.42 L 162.83 127.45 C 162.98 126.49 162.32 125.60 161.37 125.46 C 160.41 125.32 159.52 125.97 159.38 126.93 Z M 159.23 127.89 L 159.08 128.89 C 158.93 129.84 159.58 130.74 160.53 130.89 C 161.49 131.04 162.38 130.38 162.53 129.43 L 162.69 128.44 C 162.84 127.48 162.19 126.59 161.23 126.44 C 160.28 126.29 159.38 126.94 159.23 127.89 Z M 159.08 128.87 L 158.91 129.89 C 158.75 130.84 159.39 131.74 160.35 131.90 C 161.31 132.06 162.21 131.41 162.37 130.46 L 162.53 129.44 C 162.69 128.49 162.05 127.59 161.09 127.43 C 160.14 127.27 159.23 127.92 159.08 128.87 Z M 158.91 129.87 L 158.74 130.83 C 158.57 131.79 159.21 132.70 160.17 132.86 C 161.13 133.03 162.03 132.39 162.20 131.43 L 162.37 130.47 C 162.53 129.52 161.89 128.61 160.94 128.44 C 159.98 128.28 159.07 128.92 158.91 129.87 Z M 158.74 130.82 L 158.57 131.78 C 158.40 132.73 159.03 133.65 159.99 133.82 C 160.94 133.99 161.86 133.36 162.03 132.40 L 162.20 131.44 C 162.37 130.49 161.74 129.57 160.78 129.40 C 159.83 129.23 158.91 129.86 158.74 130.82 Z M 158.57 131.77 L 158.39 132.75 C 158.21 133.70 158.84 134.62 159.80 134.80 C 160.75 134.98 161.67 134.34 161.85 133.39 L 162.03 132.41 C 162.21 131.45 161.57 130.53 160.62 130.36 C 159.66 130.18 158.74 130.81 158.57 131.77 Z M 158.39 132.74 L 158.20 133.74 C 158.02 134.70 158.65 135.62 159.60 135.80 C 160.56 135.98 161.48 135.35 161.66 134.39 L 161.85 133.39 C 162.03 132.44 161.40 131.52 160.44 131.34 C 159.49 131.16 158.57 131.78 158.39 132.74 Z M 158.20 133.74 L 158.00 134.76 C 157.82 135.72 158.44 136.64 159.40 136.82 C 160.36 137.01 161.28 136.38 161.47 135.42 L 161.66 134.40 C 161.84 133.44 161.22 132.52 160.26 132.34 C 159.30 132.15 158.38 132.78 158.20 133.74 Z M 158.00 134.76 L 157.81 135.73 C 157.63 136.68 158.25 137.61 159.21 137.79 C 160.17 137.98 161.10 137.35 161.28 136.39 L 161.47 135.42 C 161.65 134.47 161.02 133.54 160.07 133.36 C 159.11 133.17 158.18 133.80 158.00 134.76 Z M 157.81 135.72 L 157.62 136.69 C 157.44 137.65 158.06 138.58 159.02 138.76 C 159.98 138.95 160.91 138.32 161.09 137.37 L 161.28 136.40 C 161.47 135.44 160.84 134.51 159.88 134.32 C 158.93 134.14 158.00 134.76 157.81 135.72 Z M 157.62 136.68 L 157.43 137.66 C 157.24 138.62 157.86 139.55 158.82 139.74 C 159.78 139.93 160.71 139.31 160.90 138.35 L 161.09 137.37 C 161.28 136.41 160.66 135.48 159.70 135.29 C 158.74 135.10 157.81 135.72 157.62 136.68 Z M 157.43 137.65 L 157.23 138.64 C 157.03 139.60 157.65 140.54 158.61 140.73 C 159.57 140.93 160.50 140.31 160.70 139.35 L 160.90 138.36 C 161.09 137.40 160.47 136.47 159.52 136.27 C 158.56 136.08 157.62 136.70 157.43 137.65 Z M 157.23 138.63 L 157.02 139.63 C 156.82 140.58 157.43 141.52 158.39 141.72 C 159.34 141.93 160.28 141.31 160.49 140.36 L 160.70 139.36 C 160.90 138.40 160.28 137.46 159.33 137.26 C 158.37 137.06 157.43 137.67 157.23 138.63 Z M 157.02 139.61 L 156.80 140.60 C 156.60 141.55 157.20 142.50 158.16 142.71 C 159.12 142.92 160.06 142.31 160.27 141.35 L 160.48 140.37 C 160.69 139.41 160.09 138.47 159.13 138.26 C 158.17 138.05 157.23 138.66 157.02 139.61 Z M 156.81 140.58 L 156.59 141.55 C 156.37 142.50 156.97 143.45 157.93 143.67 C 158.88 143.89 159.83 143.29 160.05 142.33 L 160.27 141.37 C 160.48 140.41 159.88 139.46 158.93 139.24 C 157.97 139.03 157.02 139.63 156.81 140.58 Z M 156.59 141.54 L 156.36 142.50 C 156.14 143.46 156.73 144.41 157.69 144.64 C 158.64 144.86 159.60 144.27 159.82 143.31 L 160.05 142.34 C 160.27 141.39 159.68 140.44 158.72 140.21 C 157.77 139.99 156.81 140.58 156.59 141.54 Z M 156.37 142.49 L 156.13 143.47 C 155.91 144.42 156.49 145.38 157.45 145.61 C 158.40 145.83 159.36 145.25 159.58 144.29 L 159.82 143.32 C 160.05 142.37 159.46 141.41 158.51 141.18 C 157.55 140.95 156.59 141.54 156.37 142.49 Z M 156.14 143.46 L 155.90 144.43 C 155.66 145.39 156.25 146.35 157.20 146.58 C 158.15 146.81 159.11 146.23 159.34 145.28 L 159.58 144.30 C 159.82 143.35 159.23 142.39 158.28 142.16 C 157.33 141.92 156.37 142.51 156.14 143.46 Z M 155.90 144.43 L 155.65 145.41 C 155.42 146.36 156.00 147.33 156.95 147.56 C 157.90 147.80 158.86 147.22 159.10 146.27 L 159.34 145.28 C 159.58 144.33 159.00 143.37 158.05 143.13 C 157.10 142.90 156.13 143.48 155.90 144.43 Z M 155.66 145.41 L 155.42 146.36 C 155.18 147.31 155.76 148.27 156.71 148.51 C 157.66 148.75 158.62 148.17 158.86 147.22 L 159.10 146.27 C 159.34 145.32 158.76 144.36 157.81 144.12 C 156.86 143.88 155.89 144.46 155.66 145.41 Z M 155.42 146.35 L 155.18 147.30 C 154.94 148.25 155.51 149.22 156.46 149.46 C 157.41 149.70 158.38 149.12 158.62 148.17 L 158.86 147.23 C 159.10 146.28 158.53 145.31 157.57 145.07 C 156.62 144.83 155.66 145.40 155.42 146.35 Z M 155.18 147.29 L 154.93 148.25 C 154.69 149.20 155.26 150.17 156.21 150.41 C 157.15 150.66 158.12 150.09 158.37 149.14 L 158.62 148.18 C 158.86 147.23 158.29 146.26 157.34 146.02 C 156.39 145.77 155.42 146.34 155.18 147.29 Z M 154.93 148.24 L 154.68 149.21 C 154.43 150.16 154.99 151.13 155.94 151.38 C 156.89 151.63 157.86 151.06 158.11 150.12 L 158.37 149.15 C 158.62 148.20 158.05 147.23 157.11 146.98 C 156.16 146.73 155.19 147.29 154.93 148.24 Z M 154.68 149.20 L 154.41 150.18 C 154.16 151.12 154.71 152.10 155.66 152.35 C 156.61 152.61 157.58 152.06 157.84 151.11 L 158.11 150.13 C 158.36 149.18 157.81 148.21 156.86 147.95 C 155.92 147.69 154.94 148.25 154.68 149.20 Z M 154.42 150.16 L 154.14 151.15 C 153.87 152.10 154.42 153.08 155.36 153.34 C 156.31 153.61 157.29 153.06 157.55 152.12 L 157.83 151.12 C 158.10 150.18 157.55 149.20 156.61 148.93 C 155.66 148.67 154.68 149.22 154.42 150.16 Z M 154.14 151.14 L 153.86 152.10 C 153.59 153.04 154.13 154.03 155.07 154.30 C 156.01 154.58 156.99 154.04 157.27 153.10 L 157.55 152.13 C 157.82 151.19 157.28 150.21 156.34 149.93 C 155.40 149.66 154.42 150.20 154.14 151.14 Z M 153.87 152.09 L 153.58 153.05 C 153.29 153.99 153.83 154.98 154.76 155.26 C 155.70 155.55 156.69 155.01 156.97 154.08 L 157.26 153.11 C 157.54 152.17 157.01 151.18 156.08 150.90 C 155.14 150.62 154.15 151.15 153.87 152.09 Z M 153.58 153.04 L 153.28 154.01 C 153.00 154.95 153.52 155.94 154.46 156.23 C 155.39 156.51 156.38 155.99 156.67 155.05 L 156.97 154.09 C 157.26 153.15 156.73 152.16 155.80 151.87 C 154.86 151.58 153.87 152.11 153.58 153.04 Z M 153.29 154.00 L 152.99 154.97 C 152.69 155.90 153.21 156.89 154.15 157.19 C 155.08 157.48 156.07 156.96 156.37 156.02 L 156.67 155.06 C 156.96 154.13 156.44 153.13 155.51 152.84 C 154.57 152.55 153.58 153.07 153.29 154.00 Z M 152.99 154.96 L 152.69 155.91 C 152.39 156.85 152.91 157.84 153.84 158.14 C 154.77 158.43 155.76 157.92 156.06 156.98 L 156.36 156.03 C 156.66 155.10 156.14 154.10 155.21 153.81 C 154.28 153.51 153.28 154.03 152.99 154.96 Z M 152.69 155.91 L 152.39 156.85 C 152.09 157.78 152.60 158.78 153.53 159.07 C 154.46 159.37 155.46 158.86 155.76 157.93 L 156.06 156.99 C 156.35 156.06 155.84 155.06 154.91 154.77 C 153.98 154.47 152.99 154.98 152.69 155.91 Z M 152.39 156.85 L 152.08 157.81 C 151.78 158.74 152.29 159.73 153.22 160.03 C 154.15 160.33 155.15 159.82 155.44 158.89 L 155.75 157.93 C 156.05 157.00 155.54 156.01 154.61 155.71 C 153.68 155.41 152.69 155.92 152.39 156.85 Z M 152.08 157.81 L 151.77 158.78 C 151.47 159.71 151.98 160.70 152.90 161.00 C 153.83 161.30 154.83 160.80 155.13 159.87 L 155.44 158.89 C 155.74 157.97 155.23 156.97 154.31 156.67 C 153.38 156.37 152.38 156.88 152.08 157.81 Z M 151.77 158.78 L 151.46 159.73 C 151.16 160.66 151.66 161.65 152.59 161.95 C 153.52 162.26 154.51 161.75 154.81 160.82 L 155.12 159.87 C 155.43 158.94 154.92 157.95 153.99 157.65 C 153.07 157.34 152.07 157.85 151.77 158.78 Z M 151.46 159.73 L 151.15 160.67 C 150.85 161.59 151.35 162.59 152.27 162.89 C 153.20 163.20 154.19 162.69 154.50 161.77 L 154.81 160.83 C 155.12 159.91 154.61 158.91 153.69 158.60 C 152.76 158.30 151.77 158.80 151.46 159.73 Z M 151.16 160.66 L 150.84 161.59 C 150.53 162.51 151.03 163.51 151.95 163.82 C 152.88 164.13 153.87 163.63 154.18 162.71 L 154.50 161.78 C 154.80 160.85 154.31 159.86 153.39 159.55 C 152.46 159.24 151.46 159.74 151.16 160.66 Z M 150.85 161.58 L 150.53 162.51 C 150.22 163.43 150.71 164.43 151.63 164.74 C 152.55 165.06 153.55 164.57 153.86 163.65 L 154.18 162.72 C 154.49 161.80 154.00 160.80 153.08 160.48 C 152.16 160.17 151.16 160.66 150.85 161.58 Z M 150.54 162.50 L 150.21 163.44 C 149.89 164.35 150.38 165.36 151.29 165.67 C 152.21 165.99 153.21 165.51 153.53 164.59 L 153.86 163.66 C 154.18 162.74 153.69 161.74 152.77 161.42 C 151.86 161.10 150.86 161.58 150.54 162.50 Z M 150.22 163.43 L 149.89 164.37 C 149.56 165.28 150.04 166.29 150.95 166.61 C 151.87 166.93 152.87 166.45 153.19 165.54 L 153.52 164.60 C 153.85 163.69 153.37 162.69 152.46 162.36 C 151.54 162.04 150.54 162.52 150.22 163.43 Z M 149.89 164.36 L 149.55 165.31 C 149.23 166.22 149.70 167.22 150.61 167.54 C 151.52 167.87 152.52 167.40 152.85 166.49 L 153.18 165.55 C 153.51 164.64 153.04 163.64 152.13 163.31 C 151.22 162.98 150.22 163.45 149.89 164.36 Z M 149.56 165.30 L 149.22 166.24 C 148.89 167.15 149.35 168.15 150.26 168.48 C 151.17 168.81 152.17 168.34 152.50 167.44 L 152.84 166.49 C 153.17 165.59 152.70 164.59 151.80 164.26 C 150.89 163.93 149.89 164.40 149.56 165.30 Z M 149.22 166.24 L 148.88 167.18 C 148.54 168.08 149.01 169.09 149.91 169.42 C 150.81 169.75 151.81 169.28 152.15 168.38 L 152.49 167.44 C 152.82 166.54 152.36 165.54 151.46 165.21 C 150.55 164.87 149.55 165.34 149.22 166.24 Z M 148.88 167.18 L 148.53 168.12 C 148.20 169.02 148.66 170.02 149.56 170.35 C 150.46 170.68 151.46 170.22 151.79 169.32 L 152.14 168.38 C 152.47 167.48 152.01 166.48 151.11 166.15 C 150.21 165.82 149.21 166.28 148.88 167.18 Z M 148.54 168.12 L 148.18 169.07 C 147.85 169.97 148.31 170.97 149.21 171.30 C 150.10 171.63 151.10 171.18 151.43 170.28 L 151.79 169.33 C 152.12 168.43 151.67 167.43 150.77 167.10 C 149.87 166.76 148.87 167.22 148.54 168.12 Z M 148.19 169.07 L 147.83 170.02 C 147.50 170.91 147.95 171.91 148.85 172.24 C 149.74 172.58 150.74 172.12 151.07 171.23 L 151.43 170.28 C 151.76 169.39 151.31 168.39 150.42 168.06 C 149.52 167.72 148.53 168.17 148.19 169.07 Z M 147.84 170.01 L 147.48 170.95 C 147.15 171.84 147.59 172.84 148.48 173.17 C 149.37 173.51 150.37 173.07 150.71 172.18 L 151.07 171.24 C 151.40 170.35 150.96 169.35 150.07 169.01 C 149.18 168.67 148.18 169.12 147.84 170.01 Z M 147.49 170.94 L 147.13 171.87 C 146.79 172.75 147.23 173.75 148.12 174.09 C 149.00 174.44 150.00 174.00 150.34 173.11 L 150.70 172.18 C 151.04 171.30 150.60 170.30 149.72 169.96 C 148.83 169.61 147.84 170.05 147.49 170.94 Z M 147.14 171.86 L 146.78 172.77 C 146.43 173.65 146.86 174.65 147.74 175.00 C 148.62 175.35 149.62 174.92 149.97 174.04 L 150.33 173.12 C 150.68 172.24 150.25 171.24 149.37 170.89 C 148.49 170.55 147.49 170.98 147.14 171.86 Z M 146.79 172.76 L 146.41 173.69 C 146.05 174.57 146.47 175.57 147.35 175.92 C 148.22 176.28 149.22 175.86 149.58 174.98 L 149.96 174.05 C 150.32 173.17 149.90 172.18 149.02 171.82 C 148.15 171.46 147.15 171.88 146.79 172.76 Z M 146.42 173.68 L 146.02 174.63 C 145.66 175.50 146.06 176.50 146.93 176.86 C 147.80 177.23 148.80 176.82 149.16 175.95 L 149.56 175.00 C 149.93 174.13 149.52 173.13 148.65 172.77 C 147.79 172.40 146.79 172.81 146.42 173.68 Z M 146.03 174.62 L 145.63 175.55 C 145.26 176.41 145.65 177.41 146.51 177.78 C 147.37 178.15 148.37 177.76 148.74 176.90 L 149.15 175.97 C 149.52 175.11 149.13 174.11 148.27 173.74 C 147.41 173.36 146.41 173.76 146.03 174.62 Z M 145.64 175.54 L 145.24 176.45 C 144.86 177.30 145.24 178.30 146.10 178.68 C 146.95 179.06 147.95 178.67 148.33 177.82 L 148.73 176.91 C 149.11 176.06 148.73 175.06 147.88 174.68 C 147.02 174.30 146.02 174.69 145.64 175.54 Z M 145.25 176.43 L 144.85 177.31 C 144.46 178.16 144.84 179.16 145.68 179.54 C 146.53 179.93 147.53 179.56 147.91 178.71 L 148.31 177.83 C 148.70 176.99 148.33 175.99 147.48 175.60 C 146.64 175.22 145.64 175.59 145.25 176.43 Z M 144.86 177.30 L 144.46 178.16 C 144.07 179.00 144.43 180.00 145.27 180.39 C 146.11 180.78 147.10 180.42 147.50 179.58 L 147.90 178.72 C 148.29 177.88 147.93 176.89 147.09 176.50 C 146.25 176.10 145.26 176.46 144.86 177.30 Z M 144.48 178.15 L 144.07 179.01 C 143.67 179.84 144.02 180.83 144.85 181.23 C 145.68 181.63 146.67 181.28 147.07 180.45 L 147.48 179.59 C 147.88 178.76 147.53 177.77 146.70 177.37 C 145.87 176.97 144.87 177.32 144.48 178.15 Z M 144.08 178.99 L 143.66 179.85 C 143.25 180.67 143.59 181.67 144.41 182.07 C 145.24 182.48 146.23 182.14 146.64 181.32 L 147.06 180.46 C 147.46 179.64 147.13 178.64 146.30 178.24 C 145.48 177.83 144.49 178.17 144.08 178.99 Z M 143.67 179.84 L 143.23 180.72 C 142.82 181.53 143.14 182.52 143.96 182.94 C 144.77 183.35 145.76 183.02 146.18 182.21 L 146.62 181.33 C 147.03 180.52 146.71 179.52 145.89 179.11 C 145.08 178.70 144.09 179.02 143.67 179.84 Z M 143.24 180.70 L 142.76 181.63 C 142.34 182.44 142.66 183.43 143.46 183.85 C 144.27 184.27 145.26 183.96 145.68 183.15 L 146.16 182.22 C 146.58 181.41 146.27 180.42 145.46 180.00 C 144.65 179.58 143.66 179.90 143.24 180.70 Z M 142.77 181.62 L 142.27 182.57 C 141.85 183.37 142.15 184.36 142.95 184.78 C 143.75 185.20 144.74 184.90 145.17 184.10 L 145.67 183.16 C 146.09 182.36 145.79 181.37 144.99 180.95 C 144.19 180.52 143.20 180.83 142.77 181.62 Z M 142.29 182.56 L 141.81 183.44 C 141.38 184.23 141.68 185.22 142.47 185.65 C 143.26 186.08 144.25 185.78 144.68 184.99 L 145.15 184.11 C 145.58 183.32 145.29 182.33 144.50 181.90 C 143.71 181.47 142.72 181.77 142.29 182.56 Z M 141.83 183.42 L 141.32 184.32 C 140.88 185.10 141.16 186.09 141.94 186.53 C 142.72 186.97 143.71 186.69 144.15 185.91 L 144.66 185.01 C 145.10 184.23 144.82 183.24 144.04 182.80 C 143.26 182.36 142.27 182.64 141.83 183.42 Z M 141.34 184.29 L 140.82 185.19 C 140.36 185.96 140.62 186.95 141.39 187.40 C 142.15 187.86 143.14 187.60 143.60 186.83 L 144.13 185.94 C 144.58 185.17 144.33 184.18 143.56 183.72 C 142.79 183.27 141.80 183.53 141.34 184.29 Z M 140.85 185.15 L 140.30 186.02 C 139.83 186.77 140.05 187.76 140.80 188.24 C 141.55 188.71 142.55 188.49 143.02 187.74 L 143.57 186.87 C 144.04 186.12 143.82 185.13 143.07 184.65 C 142.31 184.18 141.32 184.40 140.85 185.15 Z M 140.34 185.97 L 139.79 186.77 C 139.28 187.50 139.47 188.49 140.20 189.00 C 140.92 189.50 141.92 189.32 142.42 188.59 L 142.98 187.79 C 143.48 187.06 143.30 186.06 142.57 185.56 C 141.84 185.06 140.85 185.24 140.34 185.97 Z M 139.86 186.69 L 139.20 187.52 C 138.66 188.21 138.77 189.21 139.47 189.76 C 140.16 190.30 141.16 190.18 141.70 189.49 L 142.36 188.67 C 142.90 187.98 142.79 186.98 142.10 186.43 C 141.40 185.88 140.40 186.00 139.86 186.69 Z M 139.34 187.39 L 138.42 188.30 C 137.81 188.92 137.81 189.92 138.43 190.54 C 139.04 191.15 140.04 191.15 140.66 190.53 L 141.57 189.62 C 142.19 189.00 142.19 188.00 141.57 187.39 C 140.95 186.77 139.95 186.77 139.34 187.39 Z M 138.66 188.13 L 137.83 188.70 C 137.12 189.19 136.94 190.16 137.43 190.87 C 137.91 191.58 138.88 191.76 139.59 191.27 L 140.42 190.70 C 141.13 190.22 141.31 189.25 140.83 188.54 C 140.34 187.83 139.37 187.65 138.66 188.13 Z M 138.29 188.51 L 137.60 188.71 C 136.79 188.94 136.32 189.80 136.55 190.61 C 136.79 191.43 137.64 191.90 138.46 191.66 L 139.14 191.46 C 139.96 191.23 140.43 190.38 140.19 189.56 C 139.95 188.74 139.10 188.27 138.29 188.51 Z M 138.71 188.83 L 138.16 188.55 C 137.41 188.18 136.50 188.48 136.12 189.23 C 135.75 189.97 136.05 190.88 136.80 191.26 L 137.35 191.54 C 138.10 191.91 139.01 191.61 139.38 190.86 C 139.76 190.12 139.46 189.21 138.71 188.83 Z M 138.89 189.44 L 138.61 188.59 C 138.35 187.81 137.51 187.39 136.73 187.64 C 135.95 187.90 135.53 188.74 135.79 189.52 L 136.07 190.37 C 136.32 191.15 137.16 191.57 137.94 191.32 C 138.72 191.06 139.14 190.22 138.89 189.44 Z M 138.65 189.03 L 138.63 187.79 C 138.62 186.99 137.96 186.35 137.16 186.36 C 136.36 186.37 135.72 187.03 135.73 187.83 L 135.74 189.07 C 135.75 189.88 136.41 190.52 137.22 190.51 C 138.02 190.50 138.66 189.84 138.65 189.03 Z M 138.61 187.95 L 138.70 187.06 C 138.78 186.28 138.20 185.57 137.41 185.49 C 136.62 185.41 135.92 185.99 135.84 186.78 L 135.75 187.67 C 135.67 188.46 136.25 189.16 137.04 189.24 C 137.82 189.32 138.53 188.74 138.61 187.95 Z M 138.68 187.16 L 138.84 186.23 C 138.97 185.45 138.45 184.71 137.67 184.58 C 136.89 184.45 136.15 184.97 136.01 185.75 L 135.86 186.68 C 135.72 187.46 136.25 188.20 137.03 188.33 C 137.81 188.46 138.55 187.94 138.68 187.16 Z M 138.82 186.32 L 139.05 185.34 C 139.23 184.57 138.76 183.80 137.99 183.62 C 137.22 183.43 136.45 183.91 136.27 184.68 L 136.03 185.67 C 135.85 186.43 136.33 187.20 137.10 187.39 C 137.87 187.57 138.64 187.09 138.82 186.32 Z M 139.03 185.42 L 139.34 184.38 C 139.57 183.62 139.14 182.83 138.38 182.60 C 137.63 182.37 136.83 182.80 136.60 183.56 L 136.29 184.60 C 136.06 185.35 136.49 186.15 137.25 186.37 C 138.00 186.60 138.80 186.17 139.03 185.42 Z M 139.31 184.46 L 139.67 183.46 C 139.94 182.72 139.56 181.90 138.82 181.63 C 138.08 181.36 137.27 181.74 137.00 182.48 L 136.63 183.48 C 136.36 184.22 136.74 185.04 137.48 185.31 C 138.22 185.58 139.04 185.20 139.31 184.46 Z M 139.65 183.52 L 140.02 182.63 C 140.33 181.90 139.98 181.07 139.26 180.76 C 138.53 180.46 137.70 180.80 137.39 181.53 L 137.02 182.42 C 136.72 183.15 137.06 183.98 137.79 184.29 C 138.51 184.59 139.35 184.25 139.65 183.52 Z M 140.00 182.67 L 140.42 181.77 C 140.75 181.05 140.43 180.21 139.72 179.88 C 139.00 179.55 138.16 179.86 137.83 180.58 L 137.41 181.48 C 137.08 182.20 137.40 183.05 138.11 183.37 C 138.83 183.70 139.67 183.39 140.00 182.67 Z M 140.40 181.81 L 140.85 180.89 C 141.20 180.19 140.91 179.33 140.21 178.98 C 139.50 178.63 138.65 178.92 138.30 179.63 L 137.85 180.54 C 137.50 181.25 137.79 182.10 138.49 182.45 C 139.20 182.80 140.05 182.51 140.40 181.81 Z M 140.84 180.93 L 141.31 180.02 C 141.68 179.32 141.41 178.46 140.72 178.09 C 140.02 177.73 139.16 178.00 138.79 178.69 L 138.31 179.60 C 137.95 180.29 138.22 181.16 138.91 181.52 C 139.61 181.89 140.47 181.62 140.84 180.93 Z M 141.30 180.05 L 141.79 179.16 C 142.17 178.47 141.92 177.60 141.24 177.22 C 140.55 176.84 139.68 177.09 139.30 177.78 L 138.81 178.67 C 138.42 179.35 138.67 180.22 139.36 180.60 C 140.05 180.98 140.92 180.73 141.30 180.05 Z M 141.78 179.18 L 142.31 178.27 C 142.70 177.59 142.47 176.72 141.79 176.32 C 141.11 175.93 140.23 176.16 139.84 176.84 L 139.31 177.75 C 138.92 178.43 139.15 179.31 139.83 179.70 C 140.51 180.09 141.38 179.86 141.78 179.18 Z M 142.29 178.29 L 142.83 177.40 C 143.24 176.72 143.03 175.85 142.35 175.44 C 141.68 175.03 140.80 175.25 140.39 175.92 L 139.85 176.82 C 139.44 177.49 139.66 178.37 140.33 178.78 C 141.01 179.18 141.89 178.97 142.29 178.29 Z M 142.82 177.42 L 143.36 176.56 C 143.78 175.90 143.58 175.02 142.92 174.60 C 142.25 174.18 141.37 174.37 140.95 175.04 L 140.41 175.90 C 139.99 176.56 140.19 177.45 140.85 177.87 C 141.52 178.29 142.40 178.09 142.82 177.42 Z M 143.35 176.59 L 143.89 175.77 C 144.32 175.11 144.14 174.23 143.49 173.79 C 142.83 173.36 141.94 173.54 141.51 174.19 L 140.97 175.02 C 140.53 175.67 140.71 176.56 141.37 176.99 C 142.03 177.43 142.91 177.25 143.35 176.59 Z M 143.87 175.79 L 144.41 175.01 C 144.86 174.36 144.70 173.47 144.05 173.03 C 143.40 172.58 142.51 172.74 142.07 173.39 L 141.52 174.17 C 141.08 174.82 141.24 175.71 141.89 176.15 C 142.53 176.60 143.42 176.44 143.87 175.79 Z M 144.39 175.04 L 144.98 174.24 C 145.44 173.60 145.30 172.70 144.66 172.24 C 144.03 171.78 143.13 171.92 142.67 172.56 L 142.08 173.36 C 141.62 174.00 141.76 174.89 142.40 175.35 C 143.04 175.82 143.93 175.68 144.39 175.04 Z M 144.96 174.27 L 145.61 173.43 C 146.09 172.80 145.97 171.90 145.35 171.42 C 144.72 170.94 143.82 171.06 143.34 171.68 L 142.69 172.52 C 142.21 173.15 142.32 174.05 142.95 174.53 C 143.58 175.01 144.48 174.90 144.96 174.27 Z M 145.58 173.47 L 146.22 172.69 C 146.73 172.08 146.64 171.17 146.03 170.67 C 145.42 170.16 144.51 170.25 144.01 170.86 L 143.36 171.64 C 142.86 172.25 142.95 173.16 143.56 173.66 C 144.17 174.17 145.07 174.08 145.58 173.47 Z M 146.19 172.73 L 146.83 172.01 C 147.36 171.42 147.30 170.51 146.71 169.98 C 146.12 169.45 145.21 169.51 144.68 170.10 L 144.04 170.82 C 143.51 171.42 143.56 172.32 144.16 172.85 C 144.75 173.38 145.66 173.33 146.19 172.73 Z M 146.79 172.06 L 147.44 171.39 C 147.99 170.81 147.97 169.90 147.40 169.35 C 146.83 168.80 145.91 168.81 145.36 169.39 L 144.72 170.06 C 144.16 170.63 144.18 171.54 144.75 172.10 C 145.33 172.65 146.24 172.63 146.79 172.06 Z M 147.39 171.45 L 148.13 170.75 C 148.72 170.20 148.75 169.29 148.20 168.70 C 147.66 168.12 146.74 168.08 146.15 168.63 L 145.41 169.33 C 144.82 169.88 144.79 170.79 145.34 171.38 C 145.89 171.96 146.80 171.99 147.39 171.45 Z M 148.05 170.83 L 148.83 170.22 C 149.46 169.72 149.56 168.80 149.06 168.17 C 148.56 167.54 147.65 167.43 147.01 167.93 L 146.24 168.55 C 145.61 169.05 145.50 169.96 146.00 170.60 C 146.50 171.23 147.42 171.33 148.05 170.83 Z M 148.70 170.32 L 149.53 169.79 C 150.22 169.36 150.43 168.46 149.99 167.77 C 149.56 167.09 148.66 166.88 147.97 167.31 L 147.14 167.83 C 146.45 168.27 146.25 169.17 146.68 169.86 C 147.11 170.54 148.02 170.75 148.70 170.32 Z M 149.38 169.89 L 150.27 169.47 C 151.01 169.13 151.33 168.25 150.99 167.51 C 150.64 166.77 149.77 166.45 149.03 166.79 L 148.13 167.21 C 147.39 167.56 147.07 168.44 147.41 169.18 C 147.76 169.92 148.64 170.24 149.38 169.89 Z M 150.12 169.55 L 151.06 169.24 C 151.84 168.98 152.26 168.14 152.01 167.36 C 151.75 166.58 150.90 166.15 150.12 166.41 L 149.18 166.72 C 148.40 166.98 147.98 167.82 148.23 168.60 C 148.49 169.38 149.33 169.81 150.12 169.55 Z M 150.93 169.29 L 151.91 169.07 C 152.72 168.88 153.23 168.07 153.04 167.26 C 152.86 166.45 152.05 165.94 151.24 166.13 L 150.25 166.36 C 149.44 166.54 148.93 167.35 149.12 168.16 C 149.31 168.97 150.11 169.48 150.93 169.29 Z M 151.80 169.11 L 152.80 168.96 C 153.63 168.83 154.21 168.06 154.08 167.22 C 153.96 166.39 153.18 165.82 152.35 165.94 L 151.35 166.09 C 150.52 166.22 149.94 166.99 150.07 167.82 C 150.19 168.66 150.97 169.23 151.80 169.11 Z M 152.70 168.98 L 153.68 168.90 C 154.53 168.84 155.16 168.09 155.09 167.25 C 155.02 166.40 154.28 165.77 153.43 165.84 L 152.45 165.91 C 151.61 165.98 150.97 166.72 151.04 167.57 C 151.11 168.42 151.85 169.05 152.70 168.98 Z M 153.56 168.92 L 154.51 168.92 C 155.36 168.92 156.06 168.22 156.06 167.36 C 156.05 166.50 155.36 165.81 154.50 165.81 L 153.55 165.82 C 152.69 165.82 152.00 166.52 152.00 167.37 C 152.01 168.23 152.70 168.93 153.56 168.92 Z M 154.34 168.93 L 155.29 169.02 C 156.15 169.11 156.92 168.49 157.01 167.63 C 157.10 166.77 156.48 166.00 155.62 165.91 L 154.66 165.81 C 153.80 165.72 153.03 166.34 152.94 167.21 C 152.85 168.07 153.48 168.84 154.34 168.93 Z M 155.10 169.01 L 156.09 169.23 C 156.95 169.43 157.79 168.90 157.99 168.05 C 158.18 167.20 157.65 166.35 156.80 166.15 L 155.81 165.93 C 154.96 165.73 154.11 166.26 153.91 167.11 C 153.72 167.96 154.25 168.81 155.10 169.01 Z M 155.92 169.20 L 156.92 169.55 C 157.75 169.84 158.66 169.41 158.95 168.58 C 159.24 167.75 158.81 166.84 157.98 166.55 L 156.98 166.19 C 156.15 165.90 155.24 166.33 154.95 167.16 C 154.65 167.99 155.09 168.90 155.92 169.20 Z M 156.79 169.51 L 157.66 169.90 C 158.46 170.27 159.41 169.91 159.78 169.10 C 160.14 168.30 159.79 167.35 158.98 166.98 L 158.11 166.59 C 157.30 166.22 156.35 166.58 155.99 167.39 C 155.62 168.20 155.98 169.14 156.79 169.51 Z M 157.58 169.87 L 158.47 170.34 C 159.26 170.75 160.24 170.44 160.65 169.65 C 161.06 168.86 160.75 167.89 159.96 167.48 L 159.06 167.01 C 158.27 166.60 157.30 166.91 156.89 167.70 C 156.48 168.49 156.79 169.46 157.58 169.87 Z M 158.41 170.31 L 159.31 170.83 C 160.09 171.27 161.08 171.00 161.52 170.23 C 161.97 169.45 161.70 168.46 160.92 168.02 L 160.02 167.50 C 159.24 167.06 158.25 167.33 157.81 168.11 C 157.37 168.88 157.64 169.87 158.41 170.31 Z M 159.27 170.81 L 160.14 171.35 C 160.91 171.82 161.91 171.58 162.38 170.81 C 162.85 170.05 162.61 169.05 161.85 168.58 L 160.97 168.04 C 160.20 167.57 159.20 167.81 158.73 168.57 C 158.26 169.34 158.50 170.34 159.27 170.81 Z M 160.10 171.33 L 160.93 171.87 C 161.69 172.37 162.70 172.15 163.20 171.40 C 163.69 170.64 163.48 169.63 162.72 169.14 L 161.89 168.59 C 161.13 168.10 160.12 168.31 159.63 169.07 C 159.13 169.83 159.35 170.84 160.10 171.33 Z M 160.90 171.85 L 161.79 172.47 C 162.53 172.98 163.55 172.79 164.06 172.05 C 164.58 171.30 164.39 170.28 163.64 169.77 L 162.76 169.16 C 162.01 168.64 160.99 168.83 160.48 169.58 C 159.96 170.32 160.15 171.34 160.90 171.85 Z M 161.75 172.44 L 162.57 173.04 C 163.30 173.57 164.33 173.41 164.86 172.68 C 165.40 171.95 165.23 170.92 164.50 170.39 L 163.68 169.79 C 162.95 169.26 161.92 169.42 161.39 170.15 C 160.86 170.89 161.02 171.91 161.75 172.44 Z M 162.54 173.02 L 163.31 173.61 C 164.04 174.16 165.07 174.01 165.62 173.29 C 166.16 172.57 166.02 171.54 165.30 170.99 L 164.53 170.41 C 163.81 169.86 162.78 170.00 162.23 170.72 C 161.68 171.44 161.82 172.47 162.54 173.02 Z M 163.30 173.60 L 164.05 174.18 C 164.76 174.74 165.80 174.61 166.36 173.90 C 166.91 173.18 166.79 172.15 166.07 171.59 L 165.32 171.00 C 164.60 170.45 163.57 170.57 163.01 171.29 C 162.45 172.00 162.58 173.04 163.30 173.60 Z M 164.04 174.18 L 164.79 174.77 C 165.50 175.33 166.54 175.21 167.10 174.49 C 167.66 173.78 167.54 172.75 166.83 172.18 L 166.08 171.60 C 165.37 171.03 164.33 171.16 163.77 171.87 C 163.21 172.58 163.33 173.62 164.04 174.18 Z M 164.79 174.77 L 165.54 175.36 C 166.25 175.92 167.29 175.80 167.85 175.09 C 168.41 174.37 168.29 173.34 167.58 172.78 L 166.83 172.18 C 166.11 171.62 165.08 171.74 164.52 172.46 C 163.95 173.17 164.08 174.21 164.79 174.77 Z M 165.54 175.36 L 166.31 175.97 C 167.02 176.53 168.06 176.41 168.62 175.70 C 169.19 174.98 169.06 173.95 168.35 173.39 L 167.58 172.78 C 166.86 172.21 165.83 172.33 165.27 173.05 C 164.70 173.76 164.82 174.80 165.54 175.36 Z M 166.31 175.97 L 167.11 176.60 C 167.82 177.16 168.85 177.04 169.42 176.33 C 169.98 175.62 169.86 174.58 169.15 174.02 L 168.35 173.39 C 167.64 172.82 166.60 172.94 166.04 173.66 C 165.48 174.37 165.60 175.40 166.31 175.97 Z M 167.10 176.60 L 167.92 177.25 C 168.64 177.82 169.67 177.70 170.24 176.99 C 170.80 176.28 170.69 175.24 169.98 174.67 L 169.15 174.02 C 168.44 173.45 167.41 173.57 166.84 174.28 C 166.27 175.00 166.39 176.03 167.10 176.60 Z M 167.92 177.25 L 168.69 177.86 C 169.40 178.43 170.44 178.32 171.00 177.61 C 171.57 176.90 171.46 175.86 170.75 175.29 L 169.98 174.68 C 169.27 174.11 168.23 174.22 167.66 174.93 C 167.10 175.64 167.21 176.68 167.92 177.25 Z M 168.69 177.86 L 169.44 178.47 C 170.15 179.04 171.19 178.92 171.76 178.22 C 172.33 177.51 172.21 176.47 171.50 175.90 L 170.75 175.30 C 170.04 174.73 169.00 174.84 168.43 175.55 C 167.87 176.26 167.98 177.29 168.69 177.86 Z M 169.44 178.47 L 170.22 179.09 C 170.93 179.66 171.96 179.54 172.53 178.83 C 173.10 178.13 172.98 177.09 172.27 176.52 L 171.50 175.90 C 170.79 175.33 169.76 175.45 169.19 176.16 C 168.62 176.86 168.74 177.90 169.44 178.47 Z M 170.22 179.09 L 171.01 179.72 C 171.72 180.29 172.75 180.17 173.32 179.46 C 173.89 178.75 173.77 177.72 173.06 177.15 L 172.27 176.52 C 171.56 175.96 170.53 176.07 169.96 176.78 C 169.40 177.49 169.51 178.52 170.22 179.09 Z M 171.02 179.72 L 171.83 180.36 C 172.54 180.93 173.57 180.81 174.13 180.10 C 174.70 179.38 174.58 178.35 173.86 177.79 L 173.06 177.15 C 172.34 176.59 171.31 176.71 170.75 177.42 C 170.19 178.13 170.31 179.16 171.02 179.72 Z M 171.84 180.37 L 172.64 181.00 C 173.35 181.56 174.38 181.43 174.94 180.72 C 175.50 180.00 175.37 178.97 174.66 178.41 L 173.86 177.78 C 173.14 177.23 172.11 177.35 171.55 178.07 C 171.00 178.78 171.12 179.81 171.84 180.37 Z M 172.65 181.00 L 173.42 181.59 C 174.13 182.15 175.16 182.01 175.71 181.30 C 176.27 180.58 176.13 179.55 175.42 179.00 L 174.65 178.41 C 173.93 177.86 172.91 177.99 172.35 178.71 C 171.80 179.42 171.93 180.45 172.65 181.00 Z M 173.43 181.60 L 174.21 182.19 C 174.93 182.74 175.95 182.60 176.50 181.88 C 177.05 181.16 176.91 180.13 176.19 179.59 L 175.41 178.99 C 174.69 178.45 173.66 178.59 173.11 179.31 C 172.57 180.02 172.71 181.05 173.43 181.60 Z M 174.22 182.20 L 175.01 182.79 C 175.74 183.34 176.76 183.19 177.30 182.47 C 177.84 181.74 177.70 180.72 176.97 180.18 L 176.18 179.58 C 175.45 179.04 174.43 179.19 173.89 179.91 C 173.35 180.63 173.49 181.66 174.22 182.20 Z M 175.02 182.80 L 175.84 183.40 C 176.56 183.94 177.59 183.78 178.12 183.06 C 178.66 182.33 178.50 181.31 177.78 180.77 L 176.96 180.17 C 176.24 179.64 175.22 179.79 174.68 180.52 C 174.14 181.24 174.30 182.26 175.02 182.80 Z M 175.85 183.41 L 176.68 184.01 C 177.41 184.54 178.43 184.38 178.96 183.65 C 179.49 182.92 179.33 181.90 178.60 181.37 L 177.77 180.77 C 177.04 180.24 176.02 180.40 175.49 181.13 C 174.96 181.86 175.12 182.88 175.85 183.41 Z M 176.69 184.02 L 177.53 184.62 C 178.26 185.14 179.28 184.97 179.80 184.24 C 180.32 183.51 180.16 182.49 179.42 181.97 L 178.59 181.37 C 177.86 180.84 176.84 181.01 176.31 181.74 C 175.79 182.48 175.96 183.49 176.69 184.02 Z M 177.54 184.62 L 178.36 185.20 C 179.09 185.72 180.11 185.54 180.62 184.81 C 181.14 184.07 180.97 183.06 180.23 182.54 L 179.41 181.96 C 178.68 181.44 177.66 181.62 177.14 182.35 C 176.63 183.09 176.80 184.10 177.54 184.62 Z M 178.37 185.20 L 179.20 185.78 C 179.93 186.29 180.95 186.11 181.46 185.38 C 181.97 184.64 181.79 183.63 181.05 183.11 L 180.22 182.54 C 179.49 182.02 178.47 182.21 177.96 182.94 C 177.45 183.68 177.63 184.69 178.37 185.20 Z M 179.21 185.79 L 180.04 186.36 C 180.78 186.86 181.79 186.68 182.30 185.94 C 182.80 185.20 182.62 184.19 181.88 183.68 L 181.04 183.11 C 180.30 182.60 179.29 182.79 178.79 183.53 C 178.28 184.27 178.47 185.28 179.21 185.79 Z M 180.05 186.36 L 180.89 186.92 C 181.63 187.43 182.63 187.23 183.13 186.49 C 183.64 185.75 183.44 184.74 182.70 184.24 L 181.87 183.68 C 181.12 183.18 180.12 183.37 179.62 184.11 C 179.12 184.85 179.31 185.86 180.05 186.36 Z M 180.90 186.93 L 181.72 187.48 C 182.47 187.97 183.47 187.77 183.97 187.03 C 184.46 186.29 184.26 185.28 183.52 184.79 L 182.69 184.24 C 181.94 183.74 180.94 183.94 180.45 184.69 C 179.95 185.43 180.15 186.43 180.90 186.93 Z M 181.73 187.48 L 182.55 188.02 C 183.30 188.51 184.30 188.30 184.79 187.55 C 185.28 186.81 185.07 185.81 184.32 185.32 L 183.50 184.78 C 182.76 184.29 181.76 184.50 181.27 185.25 C 180.78 185.99 180.99 187.00 181.73 187.48 Z M 182.56 188.02 L 183.45 188.59 C 184.20 189.07 185.20 188.86 185.68 188.11 C 186.16 187.36 185.94 186.36 185.19 185.88 L 184.31 185.31 C 183.56 184.83 182.56 185.05 182.08 185.80 C 181.60 186.55 181.82 187.54 182.56 188.02 Z M 183.46 188.60 L 184.33 189.14 C 185.08 189.62 186.08 189.39 186.55 188.64 C 187.02 187.89 186.80 186.90 186.05 186.42 L 185.18 185.88 C 184.43 185.40 183.43 185.63 182.96 186.38 C 182.49 187.13 182.71 188.12 183.46 188.60 Z M 184.35 189.15 L 185.20 189.68 C 185.95 190.14 186.94 189.91 187.41 189.15 C 187.87 188.40 187.64 187.41 186.88 186.94 L 186.03 186.42 C 185.28 185.95 184.29 186.19 183.82 186.94 C 183.36 187.69 183.59 188.68 184.35 189.15 Z M 185.21 189.68 L 186.05 190.19 C 186.81 190.65 187.79 190.40 188.25 189.65 C 188.71 188.89 188.47 187.91 187.71 187.45 L 186.87 186.94 C 186.11 186.48 185.13 186.72 184.67 187.48 C 184.21 188.24 184.46 189.22 185.21 189.68 Z M 186.07 190.19 L 186.90 190.68 C 187.66 191.13 188.64 190.88 189.09 190.12 C 189.54 189.36 189.29 188.38 188.53 187.94 L 187.70 187.44 C 186.94 186.99 185.96 187.25 185.51 188.00 C 185.06 188.76 185.31 189.74 186.07 190.19 Z M 186.92 190.69 L 187.76 191.18 C 188.52 191.62 189.50 191.36 189.94 190.60 C 190.38 189.84 190.12 188.86 189.36 188.42 L 188.51 187.93 C 187.75 187.49 186.78 187.75 186.34 188.51 C 185.89 189.27 186.15 190.25 186.92 190.69 Z M 187.78 191.18 L 188.67 191.69 C 189.43 192.12 190.40 191.85 190.83 191.09 C 191.26 190.32 191.00 189.35 190.23 188.92 L 189.34 188.42 C 188.58 187.99 187.61 188.26 187.18 189.02 C 186.75 189.78 187.02 190.75 187.78 191.18 Z M 188.69 191.69 L 189.58 192.17 C 190.34 192.59 191.30 192.31 191.72 191.55 C 192.14 190.78 191.86 189.82 191.10 189.40 L 190.21 188.92 C 189.44 188.50 188.48 188.78 188.07 189.55 C 187.65 190.31 187.93 191.27 188.69 191.69 Z M 189.61 192.18 L 190.49 192.64 C 191.26 193.05 192.21 192.75 192.61 191.98 C 193.02 191.22 192.72 190.27 191.95 189.86 L 191.07 189.40 C 190.30 188.99 189.35 189.29 188.95 190.06 C 188.54 190.83 188.84 191.78 189.61 192.18 Z M 190.52 192.65 L 191.40 193.09 C 192.18 193.48 193.12 193.17 193.50 192.39 C 193.89 191.62 193.57 190.68 192.80 190.29 L 191.92 189.85 C 191.15 189.47 190.21 189.78 189.82 190.55 C 189.43 191.33 189.75 192.27 190.52 192.65 Z M 191.44 193.10 L 192.32 193.52 C 193.10 193.89 194.03 193.55 194.40 192.77 C 194.76 192.00 194.43 191.07 193.65 190.70 L 192.77 190.28 C 191.99 189.92 191.06 190.25 190.69 191.03 C 190.33 191.81 190.66 192.74 191.44 193.10 Z M 192.36 193.53 L 193.30 193.94 C 194.08 194.28 195.00 193.92 195.34 193.14 C 195.68 192.36 195.33 191.44 194.54 191.10 L 193.61 190.69 C 192.82 190.35 191.91 190.70 191.57 191.49 C 191.22 192.27 191.58 193.19 192.36 193.53 Z M 193.34 193.95 L 194.27 194.33 C 195.06 194.65 195.96 194.27 196.28 193.48 C 196.60 192.69 196.22 191.79 195.43 191.47 L 194.50 191.09 C 193.71 190.77 192.81 191.15 192.49 191.94 C 192.17 192.73 192.55 193.63 193.34 193.95 Z M 194.31 194.33 L 195.25 194.68 C 196.04 194.98 196.93 194.58 197.22 193.79 C 197.52 193.00 197.12 192.11 196.33 191.81 L 195.39 191.46 C 194.60 191.16 193.72 191.57 193.42 192.36 C 193.12 193.15 193.52 194.04 194.31 194.33 Z M 195.29 194.69 L 196.22 195.02 C 197.02 195.29 197.88 194.87 198.16 194.08 C 198.44 193.28 198.02 192.41 197.22 192.13 L 196.29 191.81 C 195.49 191.53 194.63 191.95 194.35 192.75 C 194.07 193.54 194.49 194.41 195.29 194.69 Z M 196.25 195.02 L 197.19 195.32 C 197.99 195.58 198.84 195.14 199.10 194.35 C 199.36 193.55 198.92 192.69 198.13 192.43 L 197.19 192.13 C 196.39 191.87 195.54 192.31 195.28 193.11 C 195.02 193.91 195.46 194.76 196.25 195.02 Z M 197.23 195.32 L 198.19 195.61 C 198.99 195.85 199.83 195.40 200.07 194.60 C 200.30 193.80 199.85 192.96 199.05 192.72 L 198.09 192.43 C 197.29 192.19 196.45 192.65 196.21 193.45 C 195.97 194.24 196.43 195.08 197.23 195.32 Z M 198.23 195.61 L 199.19 195.87 C 199.99 196.09 200.81 195.62 201.03 194.82 C 201.25 194.02 200.78 193.20 199.98 192.98 L 199.01 192.72 C 198.21 192.50 197.39 192.97 197.17 193.77 C 196.96 194.57 197.43 195.40 198.23 195.61 Z M 199.23 195.88 L 200.20 196.11 C 201.00 196.30 201.81 195.81 202.00 195.01 C 202.20 194.21 201.70 193.41 200.90 193.21 L 199.94 192.98 C 199.14 192.79 198.33 193.28 198.14 194.08 C 197.94 194.88 198.43 195.68 199.23 195.88 Z M 200.25 196.11 L 201.23 196.32 C 202.03 196.48 202.81 195.97 202.98 195.17 C 203.15 194.37 202.64 193.58 201.83 193.42 L 200.86 193.21 C 200.06 193.05 199.27 193.56 199.10 194.36 C 198.94 195.16 199.45 195.95 200.25 196.11 Z M 201.28 196.32 L 202.25 196.49 C 203.06 196.63 203.82 196.09 203.96 195.29 C 204.10 194.49 203.56 193.73 202.76 193.59 L 201.78 193.42 C 200.98 193.28 200.22 193.81 200.08 194.61 C 199.94 195.42 200.48 196.18 201.28 196.32 Z M 202.30 196.49 L 203.27 196.62 C 204.07 196.74 204.81 196.18 204.92 195.38 C 205.04 194.57 204.48 193.83 203.68 193.72 L 202.71 193.59 C 201.91 193.47 201.17 194.03 201.06 194.83 C 200.94 195.63 201.50 196.38 202.30 196.49 Z M 203.31 196.62 L 204.29 196.73 C 205.09 196.82 205.81 196.24 205.90 195.44 C 205.99 194.64 205.41 193.92 204.61 193.83 L 203.63 193.72 C 202.83 193.63 202.11 194.21 202.02 195.01 C 201.93 195.81 202.51 196.53 203.31 196.62 Z M 204.33 196.73 L 205.32 196.82 C 206.12 196.89 206.83 196.29 206.90 195.49 C 206.97 194.69 206.37 193.99 205.57 193.92 L 204.58 193.83 C 203.78 193.76 203.07 194.35 203.00 195.16 C 202.93 195.96 203.53 196.66 204.33 196.73 Z M 205.35 196.81 L 206.37 196.88 C 207.17 196.94 207.86 196.33 207.91 195.53 C 207.97 194.74 207.36 194.05 206.56 193.99 L 205.55 193.92 C 204.75 193.87 204.06 194.47 204.00 195.27 C 203.95 196.07 204.55 196.76 205.35 196.81 Z M 206.39 196.88 L 207.41 196.93 C 208.21 196.98 208.89 196.36 208.93 195.57 C 208.97 194.77 208.36 194.09 207.57 194.05 L 206.54 194.00 C 205.75 193.95 205.07 194.56 205.03 195.36 C 204.98 196.16 205.59 196.84 206.39 196.88 Z M 207.43 196.93 L 208.43 196.97 C 209.22 197.01 209.89 196.39 209.93 195.60 C 209.96 194.80 209.34 194.13 208.55 194.10 L 207.55 194.05 C 206.76 194.02 206.09 194.64 206.05 195.43 C 206.02 196.22 206.63 196.90 207.43 196.93 Z M 208.44 196.97 L 209.45 197.00 C 210.24 197.03 210.91 196.41 210.93 195.62 C 210.96 194.82 210.34 194.16 209.55 194.13 L 208.54 194.10 C 207.74 194.07 207.08 194.69 207.05 195.49 C 207.02 196.28 207.65 196.94 208.44 196.97 Z M 209.46 197.00 L 210.47 197.03 C 211.26 197.05 211.92 196.43 211.94 195.63 C 211.96 194.84 211.34 194.18 210.55 194.16 L 209.54 194.13 C 208.74 194.11 208.08 194.74 208.06 195.53 C 208.04 196.32 208.67 196.98 209.46 197.00 Z M 210.48 197.03 L 211.48 197.05 C 212.27 197.06 212.92 196.44 212.94 195.65 C 212.96 194.85 212.33 194.20 211.54 194.18 L 210.54 194.16 C 209.75 194.15 209.09 194.78 209.08 195.57 C 209.06 196.36 209.69 197.01 210.48 197.03 Z M 211.49 197.05 L 212.47 197.06 C 213.26 197.07 213.91 196.44 213.92 195.65 C 213.93 194.86 213.30 194.21 212.51 194.20 L 211.53 194.19 C 210.74 194.17 210.09 194.80 210.08 195.59 C 210.07 196.38 210.70 197.03 211.49 197.05 Z M 212.48 197.06 L 213.51 197.07 C 214.30 197.08 214.95 196.45 214.96 195.66 C 214.97 194.87 214.33 194.22 213.54 194.21 L 212.51 194.20 C 211.72 194.19 211.07 194.83 211.06 195.62 C 211.06 196.40 211.69 197.05 212.48 197.06 Z M 213.52 197.07 L 214.53 197.08 C 215.32 197.08 215.97 196.45 215.97 195.66 C 215.98 194.87 215.34 194.23 214.55 194.22 L 213.54 194.21 C 212.75 194.21 212.11 194.84 212.10 195.63 C 212.10 196.42 212.73 197.06 213.52 197.07 Z M 214.54 197.08 L 215.53 197.08 C 216.32 197.08 216.96 196.45 216.96 195.66 C 216.97 194.87 216.33 194.23 215.54 194.22 L 214.55 194.22 C 213.76 194.22 213.12 194.86 213.11 195.64 C 213.11 196.43 213.75 197.07 214.54 197.08 Z M 215.53 197.08 L 216.51 197.08 C 217.30 197.08 217.94 196.44 217.94 195.65 C 217.94 194.87 217.31 194.23 216.52 194.23 L 215.54 194.22 C 214.75 194.22 214.11 194.86 214.11 195.65 C 214.11 196.44 214.74 197.08 215.53 197.08 Z M 216.51 197.08 L 217.40 197.08 C 218.19 197.08 218.82 196.44 218.82 195.65 C 218.82 194.86 218.19 194.23 217.40 194.23 L 216.52 194.23 C 215.73 194.23 215.09 194.86 215.09 195.65 C 215.09 196.44 215.73 197.08 216.51 197.08 Z"
      fill="black"
      fill-rule="nonzero" /></svg>