<svg xmlns="http://www.w3.org/2000/svg" width="300" height="300" viewBox="0 0 300 300">
<path d="M 127.84 133.20 L 126.86 133.20 C 125.98 133.20 125.26 133.92 125.26 134.80 C 125.26 135.68 125.98 136.40 126.86 136.40 L 127.84 136.40 C 128.72 136.40 129.43 135.68 129.43 134.80 C 129.43 133.92 128.72 133.20 127.84 133.20 Z M 126.86 133.20 L 125.87 133.20 C 124.99 133.20 124.27 133.92 124.27 134.80 C 124.27 135.68 124.99 136.40 125.87 136.40 L 126.86 136.40 C 127.74 136.40 128.46 135.68 128.46 134.80 C 128.46 133.92 127.74 133.20 126.86 133.20 Z M 125.87 133.20 L 124.85 133.20 C 123.97 133.20 123.25 133.92 123.25 134.80 C 123.25 135.68 123.97 136.40 124.85 136.40 L 125.87 136.40 C 126.75 136.40 127.47 135.68 127.47 134.80 C 127.47 133.92 126.75 133.20 125.87 133.20 Z M 124.85 133.19 L 123.52 133.19 C 122.63 133.19 121.91 133.91 121.91 134.80 C 121.91 135.69 122.63 136.41 123.52 136.41 L 124.85 136.41 C 125.74 136.41 126.46 135.69 126.46 134.80 C 126.46 133.91 125.74 133.19 124.85 133.19 Z M 123.52 133.16 L 122.46 133.16 C 121.56 133.16 120.83 133.90 120.83 134.80 C 120.83 135.70 121.56 136.43 122.46 136.43 L 123.52 136.43 C 124.43 136.43 125.16 135.70 125.16 134.80 C 125.16 133.90 124.43 133.16 123.52 133.16 Z M 122.46 133.14 L 122.33 133.14 C 121.42 133.14 120.67 133.88 120.67 134.80 C 120.67 135.71 121.41 136.46 122.33 136.46 L 122.46 136.46 C 123.38 136.46 124.12 135.72 124.12 134.80 C 124.12 133.88 123.38 133.14 122.46 133.14 Z M 122.35 136.47 L 123.04 136.46 C 123.96 136.46 124.70 135.70 124.70 134.78 C 124.69 133.86 123.93 133.12 123.01 133.12 L 122.32 133.13 C 121.40 133.14 120.65 133.89 120.66 134.81 C 120.67 135.73 121.42 136.48 122.35 136.47 Z M 123.06 136.46 L 124.29 136.44 C 125.21 136.42 125.95 135.66 125.93 134.73 C 125.91 133.81 125.15 133.08 124.22 133.10 L 122.99 133.12 C 122.07 133.14 121.34 133.90 121.36 134.83 C 121.37 135.75 122.14 136.48 123.06 136.46 Z M 124.32 136.44 L 125.66 136.39 C 126.59 136.36 127.31 135.58 127.27 134.66 C 127.24 133.74 126.47 133.02 125.54 133.05 L 124.20 133.10 C 123.27 133.13 122.55 133.91 122.59 134.83 C 122.62 135.75 123.40 136.47 124.32 136.44 Z M 125.69 136.39 L 126.69 136.34 C 127.62 136.29 128.32 135.50 128.28 134.58 C 128.23 133.66 127.44 132.95 126.52 133.00 L 125.52 133.05 C 124.60 133.10 123.89 133.88 123.93 134.81 C 123.98 135.73 124.77 136.44 125.69 136.39 Z M 126.71 136.34 L 127.74 136.27 C 128.66 136.22 129.36 135.42 129.30 134.50 C 129.24 133.58 128.45 132.88 127.53 132.94 L 126.51 133.00 C 125.58 133.06 124.88 133.85 124.94 134.77 C 125.00 135.69 125.79 136.39 126.71 136.34 Z M 127.75 136.27 L 128.77 136.20 C 129.69 136.13 130.38 135.34 130.32 134.42 C 130.26 133.50 129.46 132.80 128.54 132.87 L 127.52 132.94 C 126.60 133.00 125.90 133.80 125.97 134.72 C 126.03 135.64 126.83 136.34 127.75 136.27 Z M 128.78 136.20 L 129.77 136.12 C 130.69 136.05 131.38 135.25 131.31 134.33 C 131.23 133.41 130.43 132.72 129.51 132.79 L 128.52 132.87 C 127.61 132.94 126.92 133.74 126.99 134.66 C 127.06 135.58 127.87 136.27 128.78 136.20 Z M 129.78 136.12 L 130.79 136.03 C 131.71 135.95 132.39 135.14 132.31 134.23 C 132.23 133.31 131.42 132.63 130.50 132.71 L 129.50 132.79 C 128.58 132.87 127.90 133.68 127.98 134.60 C 128.06 135.52 128.87 136.20 129.78 136.12 Z M 130.80 136.03 L 131.87 135.93 C 132.79 135.84 133.46 135.02 133.37 134.11 C 133.28 133.19 132.47 132.52 131.56 132.61 L 130.49 132.71 C 129.57 132.80 128.90 133.61 128.99 134.53 C 129.08 135.44 129.89 136.12 130.80 136.03 Z M 131.90 135.92 L 132.88 135.81 C 133.79 135.71 134.45 134.89 134.35 133.98 C 134.25 133.06 133.43 132.41 132.52 132.51 L 131.53 132.61 C 130.62 132.72 129.96 133.54 130.06 134.45 C 130.16 135.36 130.98 136.02 131.90 135.92 Z M 132.91 135.81 L 133.84 135.69 C 134.75 135.57 135.39 134.74 135.28 133.83 C 135.16 132.92 134.33 132.28 133.42 132.39 L 132.49 132.51 C 131.58 132.63 130.94 133.46 131.05 134.37 C 131.17 135.28 132.00 135.92 132.91 135.81 Z M 133.87 135.68 L 134.81 135.54 C 135.71 135.41 136.34 134.57 136.21 133.66 C 136.07 132.76 135.23 132.13 134.33 132.26 L 133.39 132.40 C 132.48 132.53 131.86 133.37 131.99 134.28 C 132.12 135.19 132.96 135.81 133.87 135.68 Z M 134.83 135.54 L 135.81 135.38 C 136.72 135.23 137.33 134.38 137.18 133.48 C 137.03 132.57 136.18 131.96 135.28 132.11 L 134.30 132.27 C 133.40 132.42 132.79 133.27 132.93 134.17 C 133.08 135.07 133.93 135.68 134.83 135.54 Z M 135.83 135.37 L 136.82 135.20 C 137.72 135.04 138.32 134.18 138.16 133.28 C 138.00 132.38 137.15 131.78 136.25 131.94 L 135.26 132.11 C 134.36 132.27 133.76 133.13 133.92 134.03 C 134.08 134.93 134.93 135.53 135.83 135.37 Z M 136.83 135.20 L 137.82 135.02 C 138.72 134.85 139.31 133.99 139.15 133.10 C 138.99 132.20 138.13 131.60 137.23 131.77 L 136.24 131.94 C 135.34 132.11 134.74 132.97 134.91 133.86 C 135.07 134.76 135.93 135.36 136.83 135.20 Z M 137.82 135.01 L 138.80 134.83 C 139.70 134.67 140.29 133.81 140.13 132.92 C 139.97 132.02 139.11 131.43 138.21 131.59 L 137.23 131.77 C 136.33 131.93 135.74 132.79 135.90 133.68 C 136.06 134.58 136.92 135.18 137.82 135.01 Z M 138.80 134.83 L 139.79 134.65 C 140.68 134.49 141.28 133.64 141.11 132.74 C 140.95 131.85 140.10 131.25 139.20 131.41 L 138.22 131.59 C 137.32 131.75 136.73 132.61 136.89 133.50 C 137.05 134.40 137.91 134.99 138.80 134.83 Z M 139.79 134.65 L 140.77 134.47 C 141.67 134.31 142.26 133.46 142.10 132.56 C 141.94 131.67 141.08 131.08 140.19 131.24 L 139.20 131.42 C 138.31 131.58 137.72 132.43 137.88 133.33 C 138.04 134.22 138.89 134.81 139.79 134.65 Z M 140.77 134.47 L 141.76 134.29 C 142.65 134.13 143.24 133.28 143.08 132.39 C 142.92 131.49 142.06 130.90 141.17 131.06 L 140.19 131.24 C 139.30 131.40 138.70 132.26 138.87 133.15 C 139.03 134.04 139.88 134.63 140.77 134.47 Z M 141.76 134.29 L 142.75 134.11 C 143.64 133.94 144.23 133.09 144.07 132.20 C 143.91 131.31 143.05 130.72 142.16 130.88 L 141.17 131.07 C 140.28 131.23 139.69 132.08 139.85 132.97 C 140.02 133.86 140.87 134.45 141.76 134.29 Z M 142.76 134.10 L 143.74 133.92 C 144.63 133.75 145.22 132.90 145.05 132.01 C 144.88 131.12 144.03 130.54 143.14 130.70 L 142.16 130.89 C 141.27 131.06 140.69 131.91 140.85 132.80 C 141.02 133.68 141.87 134.27 142.76 134.10 Z M 143.76 133.91 L 144.73 133.72 C 145.61 133.55 146.19 132.69 146.02 131.81 C 145.84 130.92 144.99 130.35 144.11 130.52 L 143.13 130.71 C 142.25 130.88 141.67 131.74 141.84 132.62 C 142.02 133.51 142.87 134.08 143.76 133.91 Z M 144.75 133.71 L 145.72 133.51 C 146.60 133.33 147.17 132.47 146.98 131.59 C 146.80 130.71 145.94 130.15 145.06 130.33 L 144.09 130.53 C 143.21 130.71 142.64 131.57 142.83 132.45 C 143.01 133.33 143.87 133.89 144.75 133.71 Z M 145.74 133.50 L 146.72 133.29 C 147.59 133.10 148.15 132.23 147.95 131.36 C 147.76 130.48 146.90 129.93 146.02 130.12 L 145.05 130.34 C 144.17 130.53 143.62 131.39 143.81 132.27 C 144.00 133.14 144.86 133.69 145.74 133.50 Z M 146.73 133.28 L 147.71 133.05 C 148.58 132.85 149.12 131.99 148.92 131.12 C 148.72 130.25 147.85 129.70 146.98 129.91 L 146.01 130.13 C 145.14 130.33 144.60 131.20 144.80 132.07 C 145.00 132.94 145.87 133.48 146.73 133.28 Z M 147.72 133.05 L 148.69 132.81 C 149.56 132.60 150.09 131.73 149.88 130.87 C 149.67 130.00 148.80 129.47 147.93 129.68 L 146.96 129.91 C 146.10 130.12 145.57 131.00 145.78 131.86 C 145.99 132.72 146.86 133.26 147.72 133.05 Z M 148.71 132.80 L 149.67 132.56 C 150.53 132.34 151.05 131.47 150.83 130.61 C 150.61 129.75 149.74 129.23 148.88 129.45 L 147.92 129.69 C 147.06 129.91 146.54 130.78 146.76 131.64 C 146.97 132.50 147.85 133.02 148.71 132.80 Z M 149.67 132.55 L 150.63 132.30 C 151.49 132.08 152.00 131.21 151.78 130.36 C 151.56 129.50 150.69 128.99 149.84 129.21 L 148.87 129.45 C 148.02 129.67 147.50 130.55 147.72 131.40 C 147.94 132.26 148.82 132.77 149.67 132.55 Z M 150.63 132.30 L 151.60 132.05 C 152.45 131.83 152.97 130.97 152.75 130.11 C 152.53 129.26 151.67 128.75 150.82 128.96 L 149.84 129.21 C 148.99 129.43 148.47 130.29 148.69 131.15 C 148.91 132.00 149.77 132.52 150.63 132.30 Z M 151.58 132.05 L 152.57 131.81 C 153.42 131.60 153.94 130.74 153.73 129.89 C 153.53 129.04 152.67 128.52 151.82 128.73 L 150.83 128.97 C 149.98 129.17 149.46 130.03 149.67 130.88 C 149.87 131.73 150.73 132.26 151.58 132.05 Z M 152.55 131.81 L 153.53 131.58 C 154.38 131.38 154.91 130.53 154.72 129.68 C 154.52 128.83 153.67 128.30 152.82 128.50 L 151.84 128.73 C 150.98 128.92 150.46 129.77 150.65 130.62 C 150.85 131.47 151.70 132.00 152.55 131.81 Z M 153.52 131.57 L 154.51 131.35 C 155.35 131.16 155.89 130.32 155.70 129.47 C 155.51 128.62 154.66 128.09 153.81 128.28 L 152.83 128.50 C 151.98 128.69 151.45 129.54 151.64 130.38 C 151.83 131.23 152.67 131.77 153.52 131.57 Z M 154.51 131.35 L 155.47 131.13 C 156.32 130.94 156.85 130.10 156.66 129.25 C 156.47 128.41 155.63 127.88 154.78 128.07 L 153.82 128.29 C 152.97 128.48 152.44 129.32 152.63 130.16 C 152.82 131.01 153.66 131.54 154.51 131.35 Z M 155.48 131.12 L 156.47 130.89 C 157.31 130.70 157.84 129.86 157.64 129.02 C 157.45 128.18 156.61 127.65 155.77 127.85 L 154.78 128.08 C 153.94 128.27 153.41 129.11 153.61 129.95 C 153.80 130.79 154.64 131.31 155.48 131.12 Z M 156.48 130.88 L 157.47 130.64 C 158.31 130.44 158.82 129.60 158.62 128.76 C 158.42 127.93 157.58 127.42 156.74 127.62 L 155.75 127.86 C 154.92 128.06 154.41 128.90 154.61 129.73 C 154.81 130.57 155.65 131.08 156.48 130.88 Z M 157.49 130.63 L 158.44 130.39 C 159.27 130.18 159.77 129.34 159.56 128.51 C 159.36 127.68 158.51 127.18 157.69 127.39 L 156.73 127.63 C 155.90 127.84 155.40 128.68 155.61 129.51 C 155.82 130.34 156.66 130.84 157.49 130.63 Z M 158.45 130.38 L 159.34 130.15 C 160.17 129.94 160.66 129.10 160.45 128.27 C 160.24 127.45 159.39 126.95 158.57 127.17 L 157.68 127.40 C 156.85 127.61 156.36 128.45 156.57 129.28 C 156.78 130.10 157.63 130.60 158.45 130.38 Z M 159.35 130.14 L 160.17 129.93 C 160.99 129.71 161.47 128.87 161.26 128.05 C 161.04 127.23 160.20 126.74 159.38 126.96 L 158.57 127.18 C 157.75 127.39 157.26 128.23 157.47 129.05 C 157.69 129.87 158.53 130.36 159.35 130.14 Z M 160.17 129.92 L 161.07 129.68 C 161.89 129.46 162.37 128.62 162.15 127.81 C 161.94 126.99 161.10 126.51 160.28 126.73 L 159.38 126.97 C 158.57 127.18 158.08 128.02 158.30 128.84 C 158.51 129.65 159.35 130.14 160.17 129.92 Z M 161.07 129.67 L 162.14 129.39 C 162.95 129.17 163.44 128.34 163.22 127.53 C 163.00 126.71 162.17 126.23 161.36 126.45 L 160.29 126.73 C 159.47 126.95 158.99 127.78 159.21 128.59 C 159.42 129.41 160.26 129.89 161.07 129.67 Z M 162.14 129.38 L 163.20 129.10 C 164.01 128.89 164.50 128.06 164.28 127.25 C 164.07 126.44 163.24 125.96 162.43 126.17 L 161.36 126.45 C 160.55 126.66 160.07 127.49 160.28 128.30 C 160.50 129.11 161.33 129.60 162.14 129.38 Z M 163.20 129.10 L 164.13 128.86 C 164.94 128.64 165.42 127.82 165.21 127.01 C 165.00 126.20 164.17 125.72 163.36 125.93 L 162.43 126.17 C 161.63 126.38 161.14 127.21 161.35 128.02 C 161.57 128.83 162.39 129.31 163.20 129.10 Z M 164.13 128.85 L 165.12 128.59 C 165.93 128.38 166.41 127.56 166.20 126.75 C 165.99 125.94 165.16 125.46 164.36 125.67 L 163.36 125.93 C 162.56 126.14 162.08 126.97 162.29 127.78 C 162.50 128.58 163.32 129.06 164.13 128.85 Z M 165.12 128.59 L 166.14 128.32 C 166.95 128.11 167.43 127.28 167.21 126.48 C 167.00 125.68 166.18 125.20 165.38 125.41 L 164.36 125.68 C 163.55 125.89 163.07 126.71 163.28 127.52 C 163.50 128.32 164.32 128.80 165.12 128.59 Z M 166.14 128.31 L 167.15 128.05 C 167.96 127.83 168.43 127.01 168.22 126.21 C 168.01 125.41 167.19 124.93 166.38 125.14 L 165.37 125.41 C 164.57 125.62 164.09 126.45 164.31 127.25 C 164.52 128.05 165.34 128.53 166.14 128.31 Z M 167.16 128.04 L 168.12 127.78 C 168.92 127.57 169.40 126.74 169.18 125.95 C 168.97 125.15 168.14 124.67 167.34 124.89 L 166.38 125.15 C 165.58 125.36 165.11 126.19 165.32 126.98 C 165.54 127.78 166.36 128.26 167.16 128.04 Z M 168.13 127.77 L 169.36 127.43 C 170.15 127.21 170.62 126.39 170.40 125.60 C 170.18 124.80 169.36 124.34 168.56 124.56 L 167.34 124.90 C 166.54 125.12 166.08 125.94 166.30 126.73 C 166.52 127.53 167.34 127.99 168.13 127.77 Z M 169.41 127.41 L 170.63 127.02 C 171.41 126.77 171.84 125.94 171.60 125.16 C 171.35 124.38 170.52 123.95 169.74 124.20 L 168.51 124.59 C 167.73 124.83 167.30 125.66 167.55 126.44 C 167.80 127.22 168.63 127.65 169.41 127.41 Z M 170.93 126.86 L 171.44 126.56 C 172.13 126.15 172.36 125.25 171.95 124.56 C 171.53 123.86 170.63 123.64 169.94 124.05 L 169.44 124.35 C 168.74 124.76 168.51 125.66 168.93 126.36 C 169.34 127.05 170.24 127.28 170.93 126.86 Z M 171.42 124.05 L 171.11 123.87 C 170.41 123.47 169.53 123.71 169.12 124.40 C 168.72 125.09 168.96 125.98 169.65 126.38 L 169.96 126.56 C 170.65 126.96 171.54 126.73 171.94 126.04 C 172.34 125.34 172.11 124.46 171.42 124.05 Z M 170.57 123.70 L 169.95 123.61 C 169.16 123.50 168.43 124.06 168.32 124.85 C 168.21 125.64 168.77 126.36 169.56 126.47 L 170.18 126.56 C 170.97 126.66 171.70 126.11 171.81 125.32 C 171.91 124.53 171.36 123.80 170.57 123.70 Z M 169.85 123.61 L 168.95 123.54 C 168.16 123.49 167.47 124.09 167.42 124.88 C 167.36 125.67 167.96 126.36 168.75 126.41 L 169.65 126.48 C 170.44 126.53 171.13 125.93 171.19 125.14 C 171.24 124.35 170.64 123.66 169.85 123.61 Z M 168.91 123.55 L 167.81 123.50 C 167.01 123.47 166.35 124.09 166.32 124.88 C 166.28 125.67 166.90 126.34 167.69 126.37 L 168.80 126.41 C 169.59 126.44 170.25 125.83 170.29 125.04 C 170.32 124.24 169.70 123.58 168.91 123.55 Z M 167.79 123.50 L 166.55 123.47 C 165.76 123.45 165.10 124.08 165.08 124.87 C 165.06 125.66 165.68 126.31 166.47 126.33 L 167.71 126.37 C 168.50 126.39 169.16 125.76 169.18 124.97 C 169.20 124.18 168.58 123.53 167.79 123.50 Z M 166.54 123.48 L 165.23 123.45 C 164.44 123.44 163.79 124.06 163.77 124.85 C 163.76 125.64 164.38 126.29 165.17 126.31 L 166.48 126.33 C 167.27 126.35 167.92 125.72 167.94 124.93 C 167.95 124.14 167.33 123.49 166.54 123.48 Z M 165.23 123.45 L 165.17 123.45 C 164.38 123.44 163.73 124.06 163.72 124.85 C 163.70 125.64 164.33 126.29 165.12 126.30 L 165.17 126.30 C 165.96 126.32 166.61 125.69 166.62 124.90 C 166.64 124.12 166.01 123.47 165.23 123.45 Z"
      fill="black"
      fill-rule="nonzero" /><path d="M 140.70 127.44 L 140.21 128.29 C 139.80 129.00 140.04 129.91 140.75 130.33 C 141.47 130.74 142.38 130.49 142.79 129.78 L 143.28 128.93 C 143.69 128.22 143.45 127.31 142.74 126.89 C 142.02 126.48 141.11 126.73 140.70 127.44 Z M 140.18 128.32 L 139.70 129.18 C 139.31 129.91 139.58 130.83 140.30 131.22 C 141.03 131.62 141.95 131.35 142.34 130.62 L 142.82 129.76 C 143.22 129.03 142.95 128.11 142.22 127.72 C 141.49 127.32 140.58 127.59 140.18 128.32 Z M 139.66 129.24 L 139.22 130.15 C 138.86 130.90 139.17 131.81 139.92 132.17 C 140.68 132.54 141.58 132.22 141.95 131.47 L 142.39 130.57 C 142.75 129.81 142.44 128.91 141.69 128.54 C 140.93 128.17 140.03 128.49 139.66 129.24 Z M 139.17 130.24 L 138.79 131.18 C 138.47 131.96 138.85 132.86 139.63 133.17 C 140.41 133.49 141.31 133.11 141.62 132.33 L 142.00 131.38 C 142.32 130.60 141.94 129.71 141.16 129.39 C 140.38 129.07 139.48 129.45 139.17 130.24 Z M 138.74 131.28 L 138.43 132.23 C 138.16 133.04 138.61 133.91 139.42 134.18 C 140.23 134.44 141.10 134.00 141.36 133.19 L 141.67 132.23 C 141.93 131.42 141.49 130.55 140.68 130.29 C 139.87 130.02 139.00 130.47 138.74 131.28 Z M 138.40 132.30 L 138.13 133.28 C 137.90 134.11 138.39 134.96 139.21 135.19 C 140.04 135.41 140.90 134.93 141.12 134.10 L 141.39 133.12 C 141.62 132.29 141.13 131.44 140.30 131.21 C 139.48 130.99 138.62 131.47 138.40 132.30 Z M 138.11 133.32 L 137.87 134.29 C 137.66 135.13 138.18 135.97 139.01 136.18 C 139.85 136.39 140.70 135.87 140.90 135.03 L 141.14 134.06 C 141.35 133.22 140.83 132.38 140.00 132.17 C 139.16 131.97 138.31 132.48 138.11 133.32 Z M 137.86 134.30 L 137.63 135.27 C 137.43 136.11 137.95 136.96 138.80 137.16 C 139.64 137.36 140.49 136.84 140.69 135.99 L 140.92 135.02 C 141.12 134.18 140.59 133.33 139.75 133.13 C 138.90 132.93 138.06 133.45 137.86 134.30 Z M 137.62 135.26 L 137.38 136.25 C 137.18 137.10 137.70 137.95 138.55 138.15 C 139.40 138.36 140.25 137.83 140.46 136.99 L 140.69 136.00 C 140.90 135.15 140.38 134.30 139.53 134.09 C 138.68 133.89 137.82 134.41 137.62 135.26 Z M 137.38 136.24 L 137.15 137.20 C 136.94 138.05 137.47 138.91 138.32 139.12 C 139.17 139.32 140.03 138.80 140.23 137.94 L 140.46 136.99 C 140.67 136.14 140.15 135.28 139.29 135.07 C 138.44 134.87 137.58 135.39 137.38 136.24 Z M 137.14 137.21 L 136.91 138.16 C 136.71 139.02 137.24 139.88 138.10 140.08 C 138.95 140.28 139.81 139.75 140.01 138.90 L 140.24 137.94 C 140.44 137.08 139.91 136.22 139.06 136.02 C 138.20 135.82 137.34 136.35 137.14 137.21 Z M 136.90 138.17 L 136.69 139.11 C 136.49 139.97 137.03 140.83 137.89 141.02 C 138.76 141.22 139.61 140.68 139.81 139.82 L 140.02 138.89 C 140.22 138.03 139.68 137.17 138.82 136.97 C 137.96 136.77 137.10 137.31 136.90 138.17 Z M 136.68 139.11 L 136.47 140.06 C 136.28 140.93 136.82 141.79 137.69 141.98 C 138.55 142.18 139.41 141.63 139.60 140.77 L 139.82 139.81 C 140.01 138.95 139.47 138.09 138.60 137.89 C 137.74 137.70 136.88 138.25 136.68 139.11 Z M 136.46 140.06 L 136.24 141.05 C 136.05 141.92 136.59 142.78 137.46 142.98 C 138.33 143.17 139.19 142.63 139.39 141.76 L 139.61 140.77 C 139.80 139.90 139.26 139.04 138.39 138.84 C 137.52 138.65 136.66 139.19 136.46 140.06 Z M 136.24 141.04 L 136.00 142.07 C 135.80 142.94 136.35 143.81 137.22 144.01 C 138.09 144.21 138.96 143.66 139.16 142.79 L 139.39 141.77 C 139.59 140.90 139.05 140.03 138.18 139.83 C 137.31 139.63 136.44 140.17 136.24 141.04 Z M 136.00 142.06 L 135.78 142.98 C 135.58 143.85 136.11 144.73 136.99 144.93 C 137.86 145.14 138.73 144.60 138.94 143.73 L 139.16 142.81 C 139.37 141.93 138.83 141.06 137.95 140.85 C 137.08 140.65 136.21 141.19 136.00 142.06 Z M 135.78 142.97 L 135.55 143.92 C 135.33 144.79 135.87 145.67 136.74 145.89 C 137.61 146.10 138.49 145.57 138.71 144.69 L 138.94 143.74 C 139.15 142.87 138.62 141.99 137.75 141.78 C 136.88 141.56 136.00 142.10 135.78 142.97 Z M 135.55 143.91 L 135.30 144.89 C 135.08 145.76 135.61 146.65 136.48 146.87 C 137.35 147.09 138.24 146.56 138.46 145.68 L 138.71 144.71 C 138.93 143.83 138.40 142.95 137.53 142.73 C 136.65 142.51 135.77 143.04 135.55 143.91 Z M 135.30 144.88 L 135.04 145.88 C 134.81 146.76 135.34 147.65 136.21 147.87 C 137.08 148.10 137.97 147.58 138.20 146.70 L 138.46 145.70 C 138.69 144.82 138.16 143.93 137.29 143.70 C 136.42 143.48 135.53 144.00 135.30 144.88 Z M 135.04 145.87 L 134.78 146.83 C 134.55 147.70 135.07 148.60 135.95 148.83 C 136.82 149.06 137.72 148.54 137.95 147.67 L 138.20 146.71 C 138.43 145.84 137.91 144.94 137.04 144.71 C 136.17 144.48 135.27 145.00 135.04 145.87 Z M 134.78 146.82 L 134.53 147.76 C 134.29 148.63 134.81 149.53 135.68 149.77 C 136.55 150.01 137.46 149.49 137.69 148.62 L 137.95 147.68 C 138.19 146.81 137.67 145.91 136.80 145.67 C 135.92 145.43 135.02 145.95 134.78 146.82 Z M 134.53 147.74 L 134.26 148.70 C 134.02 149.58 134.53 150.48 135.40 150.73 C 136.27 150.97 137.18 150.46 137.43 149.59 L 137.69 148.63 C 137.94 147.76 137.43 146.85 136.55 146.60 C 135.68 146.36 134.77 146.87 134.53 147.74 Z M 134.26 148.69 L 133.98 149.66 C 133.73 150.54 134.23 151.45 135.11 151.70 C 135.98 151.95 136.89 151.45 137.14 150.58 L 137.42 149.60 C 137.68 148.73 137.17 147.81 136.30 147.56 C 135.43 147.31 134.51 147.81 134.26 148.69 Z M 133.98 149.65 L 133.69 150.64 C 133.43 151.51 133.92 152.43 134.79 152.69 C 135.67 152.95 136.59 152.46 136.85 151.58 L 137.14 150.59 C 137.40 149.72 136.91 148.80 136.03 148.54 C 135.16 148.28 134.24 148.78 133.98 149.65 Z M 133.69 150.63 L 133.40 151.57 C 133.13 152.44 133.62 153.36 134.49 153.63 C 135.36 153.90 136.28 153.41 136.55 152.54 L 136.84 151.60 C 137.11 150.73 136.62 149.80 135.75 149.54 C 134.88 149.27 133.96 149.75 133.69 150.63 Z M 133.40 151.55 L 133.10 152.48 C 132.83 153.35 133.31 154.28 134.18 154.56 C 135.05 154.84 135.98 154.36 136.25 153.49 L 136.55 152.56 C 136.83 151.69 136.35 150.76 135.48 150.48 C 134.61 150.20 133.68 150.69 133.40 151.55 Z M 133.11 152.47 L 132.80 153.42 C 132.52 154.28 132.99 155.22 133.86 155.50 C 134.73 155.78 135.66 155.31 135.94 154.44 L 136.25 153.50 C 136.53 152.63 136.06 151.70 135.19 151.41 C 134.32 151.13 133.39 151.60 133.11 152.47 Z M 132.80 153.40 L 132.48 154.36 C 132.19 155.23 132.66 156.17 133.53 156.46 C 134.40 156.74 135.33 156.28 135.62 155.41 L 135.94 154.45 C 136.23 153.58 135.76 152.65 134.89 152.36 C 134.03 152.07 133.09 152.54 132.80 153.40 Z M 132.48 154.35 L 132.15 155.32 C 131.86 156.19 132.32 157.13 133.19 157.42 C 134.06 157.72 135.00 157.25 135.29 156.39 L 135.62 155.42 C 135.92 154.55 135.45 153.61 134.58 153.32 C 133.72 153.02 132.78 153.49 132.48 154.35 Z M 132.15 155.31 L 131.82 156.27 C 131.53 157.14 131.99 158.08 132.85 158.38 C 133.72 158.68 134.66 158.22 134.96 157.35 L 135.29 156.40 C 135.59 155.53 135.13 154.59 134.26 154.29 C 133.40 153.99 132.45 154.45 132.15 155.31 Z M 131.83 156.27 L 131.51 157.18 C 131.21 158.04 131.66 158.99 132.53 159.29 C 133.39 159.59 134.34 159.14 134.64 158.27 L 134.96 157.36 C 135.26 156.50 134.80 155.55 133.94 155.25 C 133.07 154.95 132.13 155.40 131.83 156.27 Z M 131.51 157.17 L 131.18 158.09 C 130.88 158.96 131.33 159.91 132.20 160.21 C 133.06 160.52 134.01 160.06 134.31 159.20 L 134.64 158.28 C 134.95 157.41 134.49 156.46 133.63 156.16 C 132.76 155.85 131.81 156.31 131.51 157.17 Z M 131.18 158.09 L 130.85 159.02 C 130.54 159.89 130.99 160.84 131.86 161.15 C 132.72 161.46 133.67 161.01 133.98 160.14 L 134.31 159.21 C 134.62 158.34 134.17 157.39 133.31 157.08 C 132.44 156.77 131.49 157.22 131.18 158.09 Z M 130.85 159.02 L 130.51 159.97 C 130.20 160.83 130.64 161.79 131.51 162.10 C 132.37 162.41 133.32 161.96 133.63 161.10 L 133.98 160.15 C 134.29 159.29 133.84 158.33 132.98 158.02 C 132.12 157.71 131.16 158.16 130.85 159.02 Z M 130.51 159.96 L 130.15 160.93 C 129.84 161.80 130.28 162.75 131.15 163.07 C 132.01 163.38 132.96 162.94 133.28 162.08 L 133.63 161.11 C 133.95 160.24 133.50 159.29 132.64 158.97 C 131.78 158.66 130.82 159.10 130.51 159.96 Z M 130.16 160.93 L 129.80 161.89 C 129.48 162.75 129.92 163.71 130.78 164.03 C 131.64 164.35 132.60 163.91 132.92 163.05 L 133.28 162.08 C 133.59 161.22 133.15 160.26 132.29 159.94 C 131.43 159.63 130.47 160.07 130.16 160.93 Z M 129.80 161.89 L 129.45 162.82 C 129.13 163.68 129.57 164.64 130.43 164.96 C 131.29 165.29 132.24 164.85 132.57 163.99 L 132.92 163.05 C 133.24 162.19 132.80 161.23 131.94 160.91 C 131.08 160.59 130.12 161.03 129.80 161.89 Z M 129.45 162.82 L 129.10 163.76 C 128.77 164.62 129.20 165.58 130.06 165.91 C 130.92 166.23 131.88 165.80 132.21 164.94 L 132.56 164.00 C 132.89 163.14 132.46 162.18 131.60 161.85 C 130.74 161.53 129.78 161.96 129.45 162.82 Z M 129.10 163.75 L 128.74 164.70 C 128.41 165.56 128.84 166.52 129.69 166.85 C 130.55 167.18 131.51 166.75 131.84 165.89 L 132.20 164.95 C 132.53 164.09 132.10 163.13 131.25 162.80 C 130.39 162.47 129.43 162.90 129.10 163.75 Z M 128.74 164.69 L 128.37 165.63 C 128.04 166.49 128.46 167.45 129.32 167.78 C 130.17 168.12 131.14 167.69 131.47 166.84 L 131.84 165.90 C 132.17 165.04 131.75 164.08 130.89 163.75 C 130.04 163.41 129.07 163.84 128.74 164.69 Z M 128.38 165.62 L 128.01 166.55 C 127.67 167.40 128.09 168.37 128.94 168.71 C 129.80 169.04 130.76 168.63 131.10 167.77 L 131.47 166.85 C 131.80 165.99 131.39 165.03 130.53 164.69 C 129.68 164.35 128.72 164.77 128.38 165.62 Z M 128.02 166.54 L 127.65 167.45 C 127.31 168.30 127.72 169.27 128.57 169.61 C 129.42 169.95 130.39 169.54 130.73 168.69 L 131.10 167.78 C 131.44 166.93 131.03 165.96 130.18 165.62 C 129.33 165.28 128.36 165.69 128.02 166.54 Z M 127.66 167.44 L 127.25 168.41 C 126.90 169.26 127.31 170.23 128.16 170.58 C 129.01 170.93 129.98 170.52 130.32 169.68 L 130.73 168.70 C 131.07 167.85 130.67 166.88 129.82 166.53 C 128.97 166.18 128.00 166.59 127.66 167.44 Z M 127.26 168.40 L 126.86 169.35 C 126.51 170.20 126.91 171.17 127.75 171.53 C 128.60 171.88 129.57 171.48 129.92 170.64 L 130.32 169.69 C 130.67 168.84 130.27 167.87 129.43 167.51 C 128.58 167.16 127.61 167.56 127.26 168.40 Z M 126.86 169.35 L 126.47 170.27 C 126.11 171.12 126.51 172.09 127.35 172.45 C 128.19 172.80 129.17 172.41 129.52 171.57 L 129.92 170.64 C 130.27 169.80 129.88 168.83 129.04 168.47 C 128.20 168.11 127.22 168.51 126.86 169.35 Z M 126.48 170.27 L 126.09 171.17 C 125.73 172.01 126.12 172.99 126.96 173.35 C 127.80 173.71 128.78 173.32 129.14 172.48 L 129.52 171.57 C 129.88 170.73 129.49 169.76 128.65 169.40 C 127.81 169.04 126.84 169.43 126.48 170.27 Z M 126.09 171.17 L 125.71 172.06 C 125.35 172.90 125.74 173.87 126.58 174.23 C 127.42 174.59 128.39 174.20 128.75 173.36 L 129.13 172.48 C 129.49 171.64 129.10 170.66 128.26 170.30 C 127.42 169.94 126.45 170.33 126.09 171.17 Z M 125.71 172.06 L 125.33 172.96 C 124.97 173.80 125.36 174.77 126.20 175.13 C 127.04 175.48 128.01 175.10 128.37 174.26 L 128.75 173.36 C 129.11 172.52 128.72 171.55 127.88 171.19 C 127.04 170.83 126.07 171.22 125.71 172.06 Z M 125.33 172.96 L 124.92 173.92 C 124.57 174.76 124.96 175.73 125.80 176.08 C 126.64 176.44 127.61 176.05 127.96 175.21 L 128.37 174.25 C 128.73 173.41 128.33 172.44 127.49 172.09 C 126.65 171.73 125.69 172.12 125.33 172.96 Z M 124.93 173.92 L 124.53 174.86 C 124.18 175.70 124.57 176.67 125.41 177.02 C 126.25 177.37 127.21 176.98 127.57 176.14 L 127.96 175.20 C 128.31 174.36 127.92 173.40 127.08 173.04 C 126.25 172.69 125.28 173.08 124.93 173.92 Z M 124.53 174.87 L 124.15 175.79 C 123.80 176.62 124.19 177.59 125.03 177.94 C 125.86 178.29 126.83 177.89 127.18 177.06 L 127.56 176.14 C 127.91 175.30 127.52 174.34 126.68 173.99 C 125.85 173.64 124.88 174.03 124.53 174.87 Z M 124.15 175.79 L 123.77 176.69 C 123.43 177.52 123.82 178.48 124.65 178.83 C 125.49 179.18 126.45 178.79 126.80 177.95 L 127.17 177.05 C 127.52 176.22 127.13 175.26 126.29 174.91 C 125.46 174.56 124.50 174.95 124.15 175.79 Z M 123.78 176.69 L 123.40 177.58 C 123.06 178.42 123.45 179.37 124.28 179.72 C 125.12 180.07 126.07 179.68 126.42 178.84 L 126.80 177.95 C 127.14 177.12 126.75 176.16 125.92 175.81 C 125.08 175.46 124.13 175.86 123.78 176.69 Z M 123.41 177.58 L 123.00 178.57 C 122.65 179.40 123.04 180.35 123.87 180.70 C 124.71 181.05 125.66 180.65 126.01 179.82 L 126.42 178.84 C 126.76 178.01 126.37 177.06 125.54 176.71 C 124.71 176.36 123.76 176.75 123.41 177.58 Z M 123.00 178.57 L 122.61 179.51 C 122.26 180.34 122.65 181.29 123.48 181.64 C 124.31 181.98 125.26 181.59 125.61 180.77 L 126.00 179.82 C 126.35 178.99 125.96 178.04 125.13 177.70 C 124.30 177.35 123.35 177.74 123.00 178.57 Z M 122.61 179.52 L 122.24 180.43 C 121.89 181.25 122.28 182.20 123.11 182.54 C 123.93 182.89 124.88 182.50 125.22 181.67 L 125.60 180.76 C 125.95 179.94 125.56 178.99 124.73 178.65 C 123.91 178.30 122.96 178.69 122.61 179.52 Z M 122.24 180.43 L 121.88 181.30 C 121.54 182.13 121.93 183.07 122.75 183.41 C 123.58 183.75 124.52 183.36 124.86 182.53 L 125.22 181.67 C 125.56 180.84 125.17 179.90 124.35 179.56 C 123.52 179.22 122.58 179.61 122.24 180.43 Z M 121.88 181.31 L 121.51 182.22 C 121.18 183.04 121.57 183.98 122.39 184.31 C 123.21 184.65 124.15 184.25 124.49 183.43 L 124.86 182.53 C 125.19 181.71 124.80 180.77 123.98 180.43 C 123.16 180.10 122.22 180.49 121.88 181.31 Z M 121.52 182.24 L 121.15 183.15 C 120.83 183.97 121.23 184.90 122.05 185.22 C 122.87 185.55 123.80 185.15 124.12 184.33 L 124.48 183.41 C 124.81 182.59 124.41 181.67 123.59 181.34 C 122.77 181.02 121.84 181.42 121.52 182.24 Z M 121.15 183.18 L 120.81 184.11 C 120.50 184.93 120.92 185.84 121.74 186.15 C 122.56 186.45 123.48 186.03 123.78 185.21 L 124.13 184.29 C 124.43 183.47 124.01 182.56 123.19 182.25 C 122.37 181.95 121.46 182.36 121.15 183.18 Z M 120.80 184.15 L 120.47 185.12 C 120.19 185.94 120.63 186.84 121.46 187.12 C 122.28 187.40 123.18 186.96 123.46 186.13 L 123.79 185.17 C 124.07 184.34 123.63 183.45 122.80 183.17 C 121.98 182.89 121.08 183.33 120.80 184.15 Z M 120.47 185.17 L 120.12 186.31 C 119.88 187.14 120.35 188.01 121.17 188.26 C 122.00 188.51 122.88 188.04 123.13 187.21 L 123.47 186.08 C 123.72 185.25 123.25 184.37 122.42 184.12 C 121.59 183.87 120.72 184.34 120.47 185.17 Z M 120.11 186.41 L 119.85 187.53 C 119.66 188.37 120.19 189.21 121.03 189.40 C 121.87 189.59 122.70 189.06 122.89 188.22 L 123.14 187.10 C 123.33 186.26 122.81 185.43 121.97 185.24 C 121.13 185.05 120.30 185.57 120.11 186.41 Z M 119.83 187.78 L 119.77 188.68 C 119.72 189.53 120.37 190.27 121.22 190.32 C 122.07 190.37 122.81 189.73 122.86 188.87 L 122.92 187.97 C 122.97 187.12 122.32 186.39 121.47 186.33 C 120.62 186.28 119.88 186.93 119.83 187.78 Z M 119.97 189.51 L 120.25 190.03 C 120.65 190.77 121.58 191.05 122.32 190.65 C 123.07 190.25 123.35 189.32 122.95 188.57 L 122.66 188.05 C 122.26 187.31 121.33 187.03 120.59 187.43 C 119.84 187.83 119.56 188.76 119.97 189.51 Z M 121.71 190.80 L 122.49 190.75 C 123.32 190.69 123.94 189.96 123.88 189.13 C 123.82 188.30 123.10 187.68 122.27 187.74 L 121.49 187.80 C 120.66 187.86 120.03 188.58 120.09 189.41 C 120.15 190.24 120.88 190.87 121.71 190.80 Z M 123.05 190.56 L 124.07 190.04 C 124.80 189.66 125.09 188.77 124.72 188.05 C 124.35 187.32 123.46 187.03 122.73 187.41 L 121.71 187.93 C 120.98 188.30 120.69 189.19 121.06 189.91 C 121.43 190.64 122.32 190.93 123.05 190.56 Z M 124.23 189.91 L 125.13 189.29 C 125.79 188.83 125.96 187.92 125.50 187.26 C 125.04 186.60 124.14 186.44 123.48 186.90 L 122.57 187.53 C 121.91 187.99 121.75 188.89 122.21 189.55 C 122.67 190.21 123.57 190.37 124.23 189.91 Z M 125.22 189.20 L 125.98 188.58 C 126.59 188.07 126.68 187.17 126.17 186.55 C 125.67 185.94 124.76 185.85 124.15 186.36 L 123.39 186.98 C 122.78 187.49 122.69 188.39 123.19 189.01 C 123.70 189.62 124.61 189.71 125.22 189.20 Z M 126.04 188.51 L 126.77 187.84 C 127.35 187.30 127.38 186.39 126.83 185.81 C 126.29 185.23 125.39 185.20 124.81 185.74 L 124.08 186.42 C 123.51 186.96 123.47 187.87 124.02 188.45 C 124.56 189.03 125.46 189.06 126.04 188.51 Z M 126.80 187.79 L 127.51 187.08 C 128.06 186.52 128.06 185.61 127.50 185.06 C 126.94 184.50 126.03 184.51 125.48 185.07 L 124.77 185.79 C 124.22 186.35 124.22 187.25 124.78 187.81 C 125.35 188.36 126.25 188.35 126.80 187.79 Z M 127.53 187.06 L 128.19 186.35 C 128.73 185.78 128.71 184.88 128.14 184.34 C 127.57 183.80 126.67 183.82 126.12 184.39 L 125.46 185.09 C 124.92 185.67 124.94 186.57 125.51 187.11 C 126.08 187.65 126.99 187.63 127.53 187.06 Z M 128.20 186.34 L 128.89 185.60 C 129.42 185.03 129.39 184.13 128.81 183.59 C 128.23 183.06 127.33 183.09 126.80 183.67 L 126.11 184.41 C 125.58 184.98 125.61 185.88 126.19 186.42 C 126.77 186.95 127.67 186.92 128.20 186.34 Z M 128.89 185.60 L 129.59 184.84 C 130.12 184.26 130.08 183.36 129.50 182.82 C 128.92 182.29 128.01 182.33 127.48 182.92 L 126.79 183.68 C 126.26 184.26 126.30 185.16 126.88 185.69 C 127.46 186.22 128.36 186.18 128.89 185.60 Z M 129.59 184.84 L 129.95 184.44 C 130.48 183.86 130.43 182.96 129.85 182.43 C 129.27 181.90 128.37 181.94 127.84 182.52 L 127.48 182.92 C 126.95 183.50 126.99 184.40 127.58 184.93 C 128.16 185.46 129.06 185.42 129.59 184.84 Z"
      fill="black"
      fill-rule="nonzero" /><path d="M 152.30 131.37 L 152.00 132.21 C 151.71 133.02 152.13 133.91 152.94 134.19 C 153.75 134.48 154.63 134.06 154.92 133.26 L 155.22 132.41 C 155.51 131.61 155.09 130.72 154.29 130.43 C 153.48 130.14 152.59 130.56 152.30 131.37 Z M 151.97 132.24 L 151.67 133.15 C 151.40 133.97 151.85 134.86 152.68 135.13 C 153.50 135.41 154.39 134.96 154.66 134.13 L 154.96 133.22 C 155.23 132.40 154.78 131.51 153.95 131.24 C 153.13 130.97 152.24 131.42 151.97 132.24 Z M 151.63 133.21 L 151.34 134.24 C 151.11 135.09 151.60 135.97 152.45 136.20 C 153.30 136.44 154.19 135.94 154.42 135.09 L 154.71 134.07 C 154.94 133.22 154.44 132.33 153.59 132.10 C 152.74 131.86 151.86 132.36 151.63 133.21 Z M 151.30 134.31 L 151.07 135.32 C 150.88 136.19 151.43 137.06 152.30 137.25 C 153.17 137.45 154.04 136.90 154.23 136.03 L 154.46 135.02 C 154.66 134.15 154.11 133.28 153.24 133.08 C 152.36 132.89 151.50 133.43 151.30 134.31 Z M 151.05 135.37 L 150.87 136.32 C 150.70 137.21 151.28 138.06 152.17 138.23 C 153.06 138.40 153.91 137.81 154.08 136.93 L 154.26 135.98 C 154.43 135.09 153.84 134.24 152.96 134.07 C 152.07 133.90 151.21 134.48 151.05 135.37 Z M 150.85 136.35 L 150.68 137.36 C 150.53 138.25 151.14 139.10 152.03 139.25 C 152.93 139.40 153.78 138.80 153.93 137.90 L 154.10 136.90 C 154.25 136.00 153.64 135.15 152.75 135.00 C 151.85 134.85 151.00 135.45 150.85 136.35 Z M 150.66 137.38 L 150.51 138.40 C 150.37 139.31 150.99 140.16 151.90 140.30 C 152.81 140.44 153.65 139.81 153.79 138.91 L 153.95 137.88 C 154.09 136.97 153.46 136.12 152.56 135.98 C 151.65 135.85 150.80 136.47 150.66 137.38 Z M 150.49 138.42 L 150.34 139.43 C 150.21 140.35 150.85 141.20 151.76 141.33 C 152.68 141.46 153.53 140.82 153.66 139.91 L 153.81 138.89 C 153.94 137.98 153.30 137.13 152.39 137.00 C 151.47 136.86 150.62 137.50 150.49 138.42 Z M 150.33 139.44 L 150.19 140.46 C 150.06 141.39 150.71 142.24 151.63 142.37 C 152.55 142.49 153.41 141.85 153.53 140.93 L 153.67 139.90 C 153.80 138.98 153.16 138.13 152.23 138.00 C 151.31 137.87 150.46 138.52 150.33 139.44 Z M 150.18 140.47 L 150.05 141.47 C 149.92 142.40 150.57 143.25 151.50 143.38 C 152.43 143.50 153.28 142.85 153.41 141.92 L 153.54 140.92 C 153.67 139.99 153.02 139.14 152.09 139.01 C 151.16 138.89 150.30 139.54 150.18 140.47 Z M 150.04 141.48 L 149.91 142.45 C 149.79 143.38 150.45 144.24 151.38 144.36 C 152.32 144.48 153.17 143.82 153.29 142.89 L 153.42 141.91 C 153.54 140.98 152.88 140.13 151.95 140.01 C 151.01 139.88 150.16 140.54 150.04 141.48 Z M 149.90 142.46 L 149.78 143.43 C 149.67 144.37 150.33 145.22 151.27 145.34 C 152.21 145.46 153.06 144.79 153.18 143.85 L 153.30 142.88 C 153.42 141.94 152.75 141.09 151.81 140.97 C 150.87 140.85 150.02 141.52 149.90 142.46 Z M 149.77 143.44 L 149.66 144.41 C 149.55 145.36 150.22 146.21 151.16 146.32 C 152.10 146.44 152.96 145.76 153.07 144.82 L 153.19 143.84 C 153.30 142.90 152.63 142.05 151.68 141.93 C 150.74 141.82 149.89 142.49 149.77 143.44 Z M 149.65 144.42 L 149.54 145.36 C 149.43 146.30 150.11 147.16 151.06 147.27 C 152.01 147.38 152.86 146.70 152.97 145.75 L 153.08 144.81 C 153.19 143.87 152.51 143.01 151.56 142.90 C 150.62 142.79 149.76 143.47 149.65 144.42 Z M 149.53 145.36 L 149.42 146.33 C 149.31 147.28 150.00 148.14 150.95 148.25 C 151.90 148.36 152.76 147.67 152.87 146.72 L 152.98 145.75 C 153.09 144.80 152.40 143.94 151.45 143.83 C 150.50 143.72 149.64 144.41 149.53 145.36 Z M 149.42 146.33 L 149.30 147.33 C 149.19 148.28 149.87 149.14 150.83 149.25 C 151.78 149.36 152.65 148.68 152.76 147.73 L 152.87 146.73 C 152.98 145.77 152.30 144.91 151.35 144.80 C 150.39 144.69 149.53 145.37 149.42 146.33 Z M 149.29 147.32 L 149.17 148.35 C 149.06 149.31 149.74 150.18 150.70 150.29 C 151.66 150.41 152.53 149.72 152.64 148.76 L 152.76 147.73 C 152.88 146.78 152.19 145.91 151.24 145.79 C 150.28 145.68 149.41 146.36 149.29 147.32 Z M 149.17 148.34 L 149.04 149.36 C 148.92 150.32 149.60 151.20 150.56 151.32 C 151.52 151.44 152.40 150.76 152.52 149.80 L 152.65 148.77 C 152.77 147.81 152.08 146.94 151.12 146.82 C 150.16 146.70 149.29 147.38 149.17 148.34 Z M 149.03 149.35 L 148.91 150.30 C 148.78 151.27 149.46 152.15 150.43 152.28 C 151.39 152.40 152.27 151.72 152.40 150.76 L 152.52 149.81 C 152.65 148.84 151.97 147.96 151.01 147.84 C 150.04 147.71 149.16 148.39 149.03 149.35 Z M 148.91 150.30 L 148.78 151.27 C 148.65 152.24 149.32 153.12 150.29 153.25 C 151.26 153.38 152.14 152.70 152.27 151.74 L 152.40 150.77 C 152.53 149.80 151.85 148.91 150.89 148.78 C 149.92 148.65 149.03 149.33 148.91 150.30 Z M 148.77 151.27 L 148.64 152.26 C 148.51 153.23 149.19 154.12 150.16 154.25 C 151.12 154.38 152.01 153.70 152.14 152.73 L 152.28 151.74 C 152.41 150.77 151.73 149.88 150.76 149.75 C 149.79 149.62 148.90 150.30 148.77 151.27 Z M 148.63 152.26 L 148.50 153.27 C 148.37 154.25 149.05 155.14 150.02 155.27 C 150.99 155.40 151.89 154.71 152.02 153.74 L 152.15 152.73 C 152.28 151.76 151.60 150.87 150.62 150.74 C 149.65 150.61 148.76 151.29 148.63 152.26 Z M 148.49 153.28 L 148.36 154.31 C 148.23 155.28 148.92 156.18 149.90 156.30 C 150.87 156.43 151.76 155.74 151.89 154.76 L 152.02 153.74 C 152.15 152.76 151.46 151.87 150.48 151.74 C 149.51 151.62 148.62 152.30 148.49 153.28 Z M 148.35 154.32 L 148.23 155.31 C 148.11 156.29 148.80 157.18 149.78 157.30 C 150.76 157.42 151.65 156.73 151.77 155.75 L 151.89 154.76 C 152.02 153.78 151.32 152.89 150.34 152.77 C 149.37 152.64 148.47 153.34 148.35 154.32 Z M 148.22 155.32 L 148.11 156.29 C 147.99 157.28 148.69 158.17 149.67 158.28 C 150.65 158.40 151.54 157.70 151.66 156.72 L 151.78 155.74 C 151.89 154.76 151.19 153.87 150.21 153.75 C 149.23 153.63 148.34 154.33 148.22 155.32 Z M 148.10 156.30 L 147.99 157.29 C 147.87 158.27 148.58 159.16 149.56 159.28 C 150.54 159.39 151.43 158.69 151.55 157.70 L 151.66 156.71 C 151.78 155.73 151.08 154.84 150.09 154.73 C 149.11 154.61 148.22 155.32 148.10 156.30 Z M 147.98 157.29 L 147.87 158.29 C 147.75 159.27 148.46 160.17 149.45 160.28 C 150.43 160.39 151.33 159.69 151.44 158.70 L 151.55 157.70 C 151.67 156.72 150.96 155.82 149.97 155.71 C 148.99 155.60 148.10 156.30 147.98 157.29 Z M 147.86 158.29 L 147.75 159.29 C 147.63 160.28 148.34 161.17 149.33 161.29 C 150.32 161.40 151.21 160.69 151.33 159.70 L 151.44 158.70 C 151.56 157.71 150.85 156.82 149.86 156.70 C 148.87 156.59 147.98 157.30 147.86 158.29 Z M 147.74 159.29 L 147.63 160.29 C 147.51 161.29 148.22 162.18 149.21 162.30 C 150.20 162.41 151.10 161.71 151.21 160.71 L 151.33 159.71 C 151.45 158.72 150.74 157.82 149.75 157.70 C 148.76 157.59 147.86 158.30 147.74 159.29 Z M 147.62 160.29 L 147.50 161.28 C 147.38 162.27 148.09 163.17 149.08 163.29 C 150.08 163.41 150.98 162.70 151.10 161.71 L 151.22 160.72 C 151.34 159.73 150.63 158.83 149.63 158.71 C 148.64 158.59 147.74 159.30 147.62 160.29 Z M 147.50 161.27 L 147.38 162.25 C 147.26 163.25 147.97 164.15 148.96 164.27 C 149.95 164.39 150.86 163.69 150.98 162.69 L 151.10 161.71 C 151.22 160.72 150.51 159.82 149.52 159.70 C 148.53 159.57 147.62 160.28 147.50 161.27 Z M 147.38 162.25 L 147.26 163.24 C 147.14 164.23 147.84 165.14 148.84 165.26 C 149.83 165.38 150.74 164.67 150.86 163.68 L 150.98 162.69 C 151.10 161.70 150.40 160.80 149.40 160.67 C 148.41 160.55 147.50 161.26 147.38 162.25 Z M 147.26 163.24 L 147.14 164.23 C 147.02 165.23 147.73 166.13 148.72 166.25 C 149.72 166.37 150.62 165.66 150.74 164.67 L 150.86 163.68 C 150.98 162.68 150.27 161.78 149.28 161.65 C 148.28 161.53 147.38 162.24 147.26 163.24 Z M 147.13 164.24 L 147.02 165.23 C 146.90 166.23 147.61 167.14 148.61 167.25 C 149.61 167.37 150.51 166.66 150.63 165.66 L 150.75 164.66 C 150.86 163.66 150.15 162.76 149.15 162.64 C 148.15 162.52 147.25 163.24 147.13 164.24 Z M 147.01 165.24 L 146.90 166.25 C 146.79 167.25 147.51 168.15 148.51 168.26 C 149.51 168.38 150.41 167.66 150.52 166.66 L 150.63 165.65 C 150.75 164.65 150.03 163.75 149.03 163.64 C 148.03 163.52 147.13 164.24 147.01 165.24 Z M 146.90 166.26 L 146.79 167.28 C 146.69 168.28 147.41 169.18 148.41 169.29 C 149.42 169.39 150.31 168.66 150.42 167.66 L 150.52 166.64 C 150.63 165.64 149.90 164.75 148.90 164.64 C 147.90 164.54 147.00 165.26 146.90 166.26 Z M 146.79 167.30 L 146.69 168.32 C 146.59 169.32 147.33 170.21 148.33 170.31 C 149.33 170.41 150.22 169.67 150.32 168.67 L 150.42 167.65 C 150.52 166.64 149.78 165.75 148.78 165.66 C 147.78 165.56 146.89 166.29 146.79 167.30 Z M 146.69 168.33 L 146.59 169.35 C 146.50 170.36 147.25 171.25 148.25 171.34 C 149.26 171.43 150.14 170.68 150.23 169.68 L 150.32 168.66 C 150.41 167.65 149.67 166.76 148.67 166.67 C 147.66 166.58 146.78 167.33 146.69 168.33 Z M 146.59 169.37 L 146.51 170.38 C 146.43 171.39 147.17 172.27 148.18 172.35 C 149.19 172.44 150.07 171.69 150.15 170.68 L 150.24 169.67 C 150.32 168.66 149.57 167.78 148.56 167.69 C 147.56 167.61 146.67 168.36 146.59 169.37 Z M 146.51 170.39 L 146.43 171.39 C 146.35 172.40 147.11 173.28 148.12 173.35 C 149.13 173.43 150.00 172.67 150.08 171.66 L 150.16 170.67 C 150.23 169.66 149.48 168.78 148.47 168.71 C 147.46 168.63 146.58 169.39 146.51 170.39 Z M 146.43 171.40 L 146.36 172.37 C 146.29 173.38 147.06 174.26 148.07 174.32 C 149.07 174.39 149.95 173.63 150.02 172.62 L 150.08 171.65 C 150.15 170.64 149.39 169.77 148.38 169.70 C 147.37 169.63 146.50 170.39 146.43 171.40 Z M 146.36 172.39 L 146.30 173.36 C 146.24 174.37 147.01 175.23 148.02 175.30 C 149.03 175.36 149.90 174.59 149.96 173.58 L 150.02 172.61 C 150.08 171.60 149.31 170.73 148.30 170.67 C 147.29 170.61 146.42 171.38 146.36 172.39 Z M 146.30 173.37 L 146.25 174.46 C 146.19 175.47 146.97 176.34 147.98 176.39 C 148.99 176.44 149.86 175.66 149.91 174.65 L 149.96 173.56 C 150.01 172.55 149.24 171.69 148.22 171.63 C 147.21 171.58 146.35 172.36 146.30 173.37 Z M 146.25 174.48 L 146.20 175.52 C 146.16 176.53 146.95 177.38 147.96 177.42 C 148.97 177.46 149.82 176.68 149.86 175.67 L 149.91 174.63 C 149.95 173.62 149.16 172.77 148.15 172.73 C 147.14 172.69 146.29 173.47 146.25 174.48 Z M 146.20 175.53 L 146.17 176.52 C 146.14 177.53 146.93 178.37 147.94 178.40 C 148.95 178.44 149.80 177.64 149.83 176.63 L 149.86 175.65 C 149.89 174.64 149.10 173.79 148.09 173.76 C 147.08 173.73 146.24 174.52 146.20 175.53 Z M 146.17 176.53 L 146.15 177.48 C 146.13 178.49 146.93 179.32 147.94 179.35 C 148.95 179.37 149.78 178.57 149.81 177.56 L 149.83 176.62 C 149.85 175.61 149.06 174.77 148.05 174.75 C 147.04 174.72 146.20 175.52 146.17 176.53 Z M 146.15 177.49 L 146.14 178.41 C 146.12 179.42 146.92 180.25 147.93 180.26 C 148.94 180.28 149.77 179.48 149.79 178.47 L 149.81 177.55 C 149.82 176.54 149.02 175.71 148.01 175.69 C 147.00 175.68 146.17 176.48 146.15 177.49 Z M 146.14 178.42 L 146.13 179.39 C 146.12 180.40 146.93 181.22 147.94 181.23 C 148.95 181.24 149.77 180.43 149.78 179.42 L 149.79 178.45 C 149.80 177.45 148.99 176.62 147.98 176.61 C 146.97 176.60 146.15 177.41 146.14 178.42 Z M 146.13 179.42 L 146.14 180.38 C 146.14 181.39 146.97 182.20 147.97 182.19 C 148.98 182.19 149.79 181.37 149.78 180.36 L 149.78 179.39 C 149.77 178.39 148.95 177.58 147.94 177.58 C 146.94 177.59 146.13 178.41 146.13 179.42 Z M 146.14 180.42 L 146.17 181.41 C 146.20 182.41 147.04 183.20 148.04 183.18 C 149.05 183.15 149.84 182.31 149.81 181.30 L 149.78 180.32 C 149.75 179.31 148.91 178.52 147.91 178.55 C 146.90 178.58 146.11 179.42 146.14 180.42 Z M 146.17 181.46 L 146.23 182.49 C 146.29 183.49 147.15 184.26 148.15 184.20 C 149.15 184.15 149.92 183.29 149.86 182.28 L 149.81 181.25 C 149.75 180.25 148.89 179.48 147.89 179.54 C 146.88 179.60 146.12 180.46 146.17 181.46 Z M 146.24 182.54 L 146.33 183.57 C 146.42 184.57 147.30 185.31 148.30 185.22 C 149.29 185.13 150.03 184.25 149.95 183.25 L 149.86 182.23 C 149.77 181.23 148.89 180.49 147.89 180.58 C 146.89 180.67 146.15 181.55 146.24 182.54 Z M 146.34 183.63 L 146.46 184.61 C 146.58 185.60 147.48 186.31 148.47 186.19 C 149.47 186.07 150.17 185.17 150.05 184.17 L 149.94 183.19 C 149.82 182.20 148.91 181.49 147.92 181.61 C 146.93 181.73 146.22 182.64 146.34 183.63 Z M 146.47 184.69 L 146.64 185.69 C 146.81 186.67 147.74 187.34 148.72 187.17 C 149.70 187.01 150.37 186.08 150.20 185.09 L 150.04 184.09 C 149.87 183.11 148.94 182.44 147.96 182.61 C 146.98 182.77 146.31 183.70 146.47 184.69 Z M 146.67 185.79 L 146.89 186.79 C 147.12 187.76 148.08 188.36 149.05 188.14 C 150.02 187.92 150.63 186.95 150.41 185.98 L 150.18 184.99 C 149.96 184.02 148.99 183.41 148.02 183.63 C 147.05 183.86 146.45 184.82 146.67 185.79 Z M 146.94 186.92 L 147.24 187.89 C 147.53 188.83 148.54 189.36 149.49 189.07 C 150.43 188.77 150.96 187.76 150.67 186.82 L 150.37 185.85 C 150.07 184.90 149.06 184.38 148.12 184.67 C 147.17 184.97 146.64 185.97 146.94 186.92 Z M 147.30 188.05 L 147.69 188.96 C 148.08 189.87 149.13 190.29 150.04 189.91 C 150.95 189.52 151.37 188.46 150.99 187.55 L 150.60 186.65 C 150.21 185.74 149.16 185.31 148.25 185.70 C 147.34 186.09 146.92 187.14 147.30 188.05 Z M 147.80 189.16 L 148.31 190.03 C 148.81 190.88 149.91 191.16 150.76 190.66 C 151.60 190.16 151.89 189.06 151.38 188.22 L 150.87 187.35 C 150.37 186.50 149.28 186.22 148.43 186.72 C 147.58 187.22 147.30 188.32 147.80 189.16 Z M 148.47 190.23 L 149.09 191.00 C 149.70 191.76 150.82 191.88 151.58 191.27 C 152.34 190.66 152.46 189.54 151.85 188.78 L 151.23 188.01 C 150.62 187.25 149.50 187.13 148.74 187.74 C 147.98 188.36 147.86 189.47 148.47 190.23 Z M 149.28 191.18 L 150.00 191.85 C 150.71 192.51 151.82 192.46 152.48 191.75 C 153.14 191.04 153.10 189.92 152.38 189.27 L 151.66 188.60 C 150.95 187.94 149.83 187.99 149.18 188.70 C 148.52 189.41 148.56 190.53 149.28 191.18 Z M 150.21 192.00 L 151.03 192.56 C 151.82 193.10 152.91 192.90 153.45 192.10 C 154.00 191.30 153.79 190.22 152.99 189.67 L 152.17 189.11 C 151.38 188.57 150.29 188.78 149.75 189.57 C 149.20 190.37 149.41 191.46 150.21 192.00 Z M 151.25 192.67 L 152.16 193.12 C 153.02 193.54 154.06 193.19 154.48 192.33 C 154.90 191.47 154.55 190.43 153.69 190.01 L 152.77 189.56 C 151.91 189.14 150.87 189.49 150.45 190.35 C 150.03 191.21 150.39 192.25 151.25 192.67 Z M 152.37 193.19 L 153.31 193.51 C 154.21 193.82 155.19 193.33 155.49 192.43 C 155.80 191.53 155.32 190.56 154.41 190.25 L 153.47 189.93 C 152.57 189.63 151.60 190.11 151.29 191.01 C 150.99 191.91 151.47 192.89 152.37 193.19 Z M 153.49 193.55 L 154.46 193.77 C 155.38 193.98 156.29 193.40 156.50 192.48 C 156.71 191.56 156.14 190.65 155.22 190.44 L 154.24 190.22 C 153.32 190.01 152.41 190.58 152.20 191.50 C 151.99 192.42 152.56 193.34 153.49 193.55 Z M 154.59 193.78 L 155.60 193.93 C 156.52 194.07 157.39 193.43 157.52 192.50 C 157.66 191.57 157.02 190.71 156.09 190.57 L 155.08 190.43 C 154.16 190.29 153.30 190.93 153.16 191.86 C 153.02 192.78 153.66 193.64 154.59 193.78 Z M 155.70 193.93 L 156.71 194.02 C 157.64 194.10 158.46 193.42 158.54 192.49 C 158.62 191.57 157.94 190.75 157.01 190.67 L 155.99 190.58 C 155.07 190.49 154.25 191.18 154.17 192.10 C 154.09 193.03 154.77 193.85 155.70 193.93 Z M 156.78 194.01 L 157.79 194.06 C 158.71 194.10 159.49 193.39 159.53 192.47 C 159.58 191.55 158.87 190.77 157.95 190.72 L 156.94 190.68 C 156.02 190.63 155.24 191.34 155.20 192.26 C 155.15 193.18 155.86 193.97 156.78 194.01 Z M 157.83 194.05 L 158.80 194.07 C 159.71 194.09 160.47 193.36 160.49 192.45 C 160.51 191.53 159.79 190.78 158.87 190.76 L 157.90 190.74 C 156.99 190.72 156.23 191.44 156.21 192.36 C 156.19 193.27 156.92 194.03 157.83 194.05 Z M 158.83 194.05 L 159.89 194.05 C 160.80 194.06 161.53 193.33 161.54 192.42 C 161.54 191.52 160.81 190.78 159.91 190.78 L 158.84 190.77 C 157.94 190.77 157.20 191.50 157.20 192.41 C 157.19 193.31 157.92 194.05 158.83 194.05 Z M 159.94 194.03 L 160.94 194.01 C 161.84 193.99 162.54 193.25 162.52 192.36 C 162.50 191.46 161.76 190.76 160.87 190.78 L 159.86 190.80 C 158.97 190.82 158.26 191.56 158.28 192.45 C 158.30 193.35 159.04 194.05 159.94 194.03 Z M 161.01 193.98 L 161.98 193.92 C 162.86 193.87 163.53 193.11 163.47 192.23 C 163.42 191.35 162.66 190.69 161.78 190.74 L 160.81 190.80 C 159.93 190.86 159.26 191.61 159.32 192.49 C 159.37 193.37 160.13 194.04 161.01 193.98 Z M 162.06 193.89 L 163.02 193.79 C 163.88 193.69 164.50 192.91 164.40 192.05 C 164.30 191.18 163.53 190.56 162.66 190.66 L 161.70 190.77 C 160.84 190.87 160.22 191.65 160.32 192.51 C 160.41 193.37 161.19 193.99 162.06 193.89 Z M 163.10 193.75 L 164.06 193.59 C 164.90 193.44 165.47 192.64 165.33 191.80 C 165.18 190.95 164.38 190.39 163.54 190.53 L 162.58 190.69 C 161.73 190.84 161.16 191.64 161.31 192.49 C 161.45 193.33 162.26 193.90 163.10 193.75 Z M 164.14 193.56 L 165.04 193.35 C 165.86 193.16 166.38 192.34 166.19 191.51 C 166.01 190.69 165.18 190.17 164.36 190.36 L 163.46 190.56 C 162.63 190.75 162.11 191.57 162.30 192.40 C 162.49 193.23 163.31 193.75 164.14 193.56 Z M 165.10 193.33 L 166.02 193.07 C 166.84 192.85 167.32 192.01 167.09 191.20 C 166.87 190.39 166.03 189.91 165.22 190.13 L 164.29 190.38 C 163.48 190.61 163.00 191.44 163.22 192.26 C 163.45 193.07 164.29 193.55 165.10 193.33 Z M 166.07 193.05 L 167.02 192.75 C 167.82 192.50 168.27 191.65 168.02 190.86 C 167.77 190.06 166.92 189.61 166.12 189.86 L 165.17 190.16 C 164.37 190.40 163.93 191.25 164.17 192.05 C 164.42 192.85 165.27 193.30 166.07 193.05 Z M 167.06 192.73 L 168.04 192.39 C 168.83 192.13 169.25 191.27 168.98 190.48 C 168.71 189.70 167.85 189.28 167.07 189.55 L 166.09 189.88 C 165.30 190.15 164.88 191.01 165.15 191.79 C 165.42 192.58 166.27 193.00 167.06 192.73 Z M 168.07 192.37 L 169.07 192.01 C 169.85 191.72 170.25 190.86 169.96 190.09 C 169.68 189.31 168.82 188.91 168.05 189.20 L 167.04 189.57 C 166.26 189.85 165.87 190.71 166.15 191.48 C 166.43 192.26 167.29 192.66 168.07 192.37 Z M 169.09 191.99 L 170.00 191.64 C 170.77 191.35 171.15 190.49 170.86 189.72 C 170.56 188.95 169.70 188.57 168.94 188.87 L 168.03 189.21 C 167.26 189.51 166.88 190.37 167.17 191.13 C 167.47 191.90 168.33 192.28 169.09 191.99 Z M 170.01 191.63 L 170.90 191.28 C 171.65 190.98 172.03 190.12 171.72 189.36 C 171.42 188.60 170.56 188.23 169.80 188.53 L 168.92 188.88 C 168.16 189.18 167.79 190.04 168.09 190.80 C 168.40 191.56 169.26 191.93 170.01 191.63 Z M 170.91 191.27 L 171.81 190.90 C 172.56 190.59 172.92 189.73 172.61 188.98 C 172.30 188.23 171.44 187.87 170.69 188.17 L 169.79 188.54 C 169.04 188.85 168.68 189.71 168.99 190.46 C 169.30 191.21 170.15 191.57 170.91 191.27 Z M 171.82 190.89 L 172.74 190.50 C 173.48 190.18 173.83 189.33 173.52 188.58 C 173.21 187.83 172.35 187.48 171.60 187.80 L 170.68 188.19 C 169.94 188.50 169.59 189.36 169.90 190.10 C 170.21 190.85 171.07 191.20 171.82 190.89 Z M 172.75 190.49 L 173.69 190.08 C 174.43 189.76 174.77 188.90 174.45 188.16 C 174.13 187.42 173.27 187.08 172.53 187.40 L 171.59 187.81 C 170.85 188.13 170.51 188.99 170.83 189.73 C 171.15 190.47 172.01 190.81 172.75 190.49 Z M 173.70 190.07 L 174.66 189.64 C 175.39 189.32 175.72 188.46 175.40 187.73 C 175.08 187.00 174.22 186.67 173.49 186.99 L 172.52 187.41 C 171.79 187.74 171.46 188.60 171.78 189.33 C 172.11 190.06 172.96 190.39 173.70 190.07 Z M 174.67 189.63 L 175.62 189.20 C 176.35 188.87 176.68 188.02 176.35 187.29 C 176.02 186.56 175.16 186.24 174.44 186.57 L 173.48 187.00 C 172.75 187.33 172.43 188.18 172.76 188.91 C 173.08 189.64 173.94 189.96 174.67 189.63 Z M 175.63 189.19 L 176.52 188.79 C 177.24 188.45 177.56 187.60 177.23 186.88 C 176.90 186.15 176.04 185.84 175.32 186.17 L 174.43 186.58 C 173.71 186.91 173.39 187.76 173.72 188.49 C 174.05 189.21 174.91 189.53 175.63 189.19 Z M 176.53 188.78 L 177.43 188.36 C 178.15 188.02 178.46 187.16 178.12 186.45 C 177.78 185.73 176.93 185.42 176.21 185.75 L 175.31 186.17 C 174.59 186.51 174.28 187.37 174.62 188.09 C 174.95 188.81 175.81 189.12 176.53 188.78 Z M 177.44 188.35 L 178.34 187.92 C 179.06 187.58 179.36 186.72 179.02 186.00 C 178.68 185.29 177.82 184.98 177.10 185.33 L 176.20 185.76 C 175.48 186.10 175.18 186.96 175.52 187.68 C 175.86 188.39 176.72 188.69 177.44 188.35 Z M 178.35 187.91 L 179.26 187.47 C 179.97 187.12 180.27 186.26 179.92 185.55 C 179.57 184.84 178.71 184.54 178.00 184.89 L 177.09 185.33 C 176.38 185.68 176.09 186.54 176.44 187.25 C 176.78 187.96 177.64 188.26 178.35 187.91 Z M 179.27 187.46 L 180.18 187.01 C 180.88 186.65 181.17 185.79 180.82 185.09 C 180.46 184.38 179.60 184.09 178.90 184.45 L 177.99 184.90 C 177.28 185.25 177.00 186.11 177.35 186.82 C 177.71 187.53 178.57 187.81 179.27 187.46 Z M 180.19 187.00 L 181.09 186.54 C 181.79 186.18 182.07 185.32 181.71 184.61 C 181.35 183.91 180.49 183.63 179.78 183.99 L 178.89 184.45 C 178.18 184.81 177.91 185.68 178.27 186.38 C 178.63 187.08 179.49 187.36 180.19 187.00 Z M 181.10 186.53 L 181.99 186.06 C 182.68 185.69 182.95 184.83 182.58 184.13 C 182.22 183.44 181.35 183.17 180.66 183.54 L 179.77 184.00 C 179.07 184.37 178.81 185.23 179.17 185.93 C 179.54 186.63 180.40 186.90 181.10 186.53 Z M 182.00 186.05 L 182.90 185.56 C 183.59 185.19 183.85 184.32 183.47 183.63 C 183.10 182.94 182.23 182.68 181.54 183.06 L 180.64 183.55 C 179.95 183.92 179.69 184.79 180.07 185.48 C 180.44 186.17 181.31 186.43 182.00 186.05 Z M 182.92 185.55 L 183.80 185.06 C 184.49 184.67 184.73 183.80 184.35 183.12 C 183.97 182.43 183.10 182.19 182.41 182.57 L 181.52 183.07 C 180.84 183.45 180.59 184.32 180.98 185.01 C 181.36 185.69 182.23 185.94 182.92 185.55 Z M 183.82 185.05 L 184.69 184.55 C 185.37 184.15 185.61 183.28 185.21 182.60 C 184.82 181.92 183.95 181.68 183.27 182.08 L 182.39 182.58 C 181.71 182.97 181.48 183.84 181.87 184.53 C 182.26 185.21 183.14 185.44 183.82 185.05 Z M 184.70 184.54 L 185.56 184.03 C 186.24 183.63 186.46 182.75 186.06 182.08 C 185.66 181.40 184.78 181.18 184.11 181.58 L 183.25 182.09 C 182.57 182.49 182.35 183.36 182.75 184.04 C 183.15 184.72 184.03 184.94 184.70 184.54 Z M 185.58 184.02 L 186.42 183.51 C 187.09 183.10 187.31 182.22 186.90 181.55 C 186.49 180.88 185.61 180.66 184.94 181.07 L 184.09 181.59 C 183.42 182.00 183.21 182.87 183.62 183.55 C 184.03 184.22 184.90 184.43 185.58 184.02 Z M 186.44 183.50 L 187.27 182.98 C 187.94 182.56 188.14 181.68 187.73 181.01 C 187.31 180.34 186.43 180.14 185.76 180.56 L 184.93 181.08 C 184.26 181.50 184.05 182.38 184.47 183.04 C 184.89 183.71 185.77 183.91 186.44 183.50 Z M 187.28 182.97 L 188.11 182.44 C 188.78 182.01 188.97 181.13 188.55 180.47 C 188.12 179.81 187.24 179.61 186.58 180.04 L 185.75 180.57 C 185.09 180.99 184.89 181.87 185.32 182.53 C 185.74 183.20 186.62 183.39 187.28 182.97 Z M 188.13 182.43 L 188.96 181.89 C 189.62 181.45 189.81 180.57 189.38 179.91 C 188.95 179.25 188.06 179.07 187.40 179.50 L 186.57 180.04 C 185.91 180.47 185.72 181.36 186.15 182.02 C 186.58 182.68 187.47 182.86 188.13 182.43 Z M 188.97 181.88 L 189.80 181.32 C 190.46 180.89 190.64 180.00 190.20 179.35 C 189.77 178.69 188.88 178.52 188.23 178.95 L 187.39 179.50 C 186.74 179.94 186.56 180.83 187.00 181.48 C 187.43 182.14 188.32 182.31 188.97 181.88 Z M 189.81 181.32 L 190.64 180.76 C 191.29 180.32 191.47 179.43 191.02 178.78 C 190.58 178.13 189.70 177.96 189.05 178.40 L 188.22 178.96 C 187.56 179.40 187.39 180.28 187.83 180.94 C 188.27 181.59 189.16 181.76 189.81 181.32 Z M 190.65 180.75 L 191.47 180.19 C 192.12 179.75 192.29 178.86 191.85 178.21 C 191.40 177.56 190.51 177.39 189.86 177.84 L 189.04 178.40 C 188.39 178.85 188.22 179.73 188.67 180.38 C 189.11 181.03 190.00 181.20 190.65 180.75 Z M 191.48 180.19 L 192.30 179.62 C 192.95 179.17 193.11 178.28 192.66 177.64 C 192.22 176.99 191.33 176.83 190.68 177.27 L 189.86 177.84 C 189.21 178.29 189.05 179.18 189.50 179.82 C 189.94 180.47 190.83 180.63 191.48 180.19 Z M 192.31 179.62 L 193.13 179.04 C 193.77 178.60 193.93 177.71 193.48 177.06 C 193.03 176.41 192.15 176.25 191.50 176.70 L 190.68 177.27 C 190.03 177.72 189.87 178.61 190.32 179.26 C 190.77 179.90 191.66 180.06 192.31 179.62 Z M 193.13 179.04 L 193.95 178.47 C 194.59 178.02 194.75 177.13 194.30 176.49 C 193.85 175.84 192.96 175.68 192.32 176.13 L 191.50 176.71 C 190.85 177.16 190.69 178.04 191.14 178.69 C 191.59 179.34 192.48 179.49 193.13 179.04 Z M 193.95 178.47 L 194.00 178.43 C 194.65 177.98 194.81 177.09 194.36 176.45 C 193.91 175.80 193.02 175.65 192.37 176.10 L 192.32 176.13 C 191.67 176.58 191.51 177.47 191.96 178.12 C 192.41 178.76 193.30 178.92 193.95 178.47 Z"
      fill="black"
      fill-rule="nonzero" /></svg>