<svg xmlns="http://www.w3.org/2000/svg" width="300" height="300" viewBox="0 0 300 300">
<path d="M 156.98 149.18 L 157.98 149.15 C 158.84 149.13 159.51 148.41 159.49 147.56 C 159.46 146.70 158.75 146.03 157.89 146.06 L 156.90 146.08 C 156.04 146.11 155.37 146.82 155.39 147.68 C 155.42 148.53 156.13 149.20 156.98 149.18 Z M 157.84 149.16 L 158.83 149.22 C 159.69 149.27 160.43 148.62 160.48 147.76 C 160.53 146.90 159.88 146.16 159.02 146.11 L 158.03 146.05 C 157.18 146.00 156.44 146.65 156.38 147.51 C 156.33 148.37 156.98 149.10 157.84 149.16 Z M 158.55 149.18 L 159.52 149.42 C 160.36 149.63 161.21 149.12 161.42 148.28 C 161.63 147.44 161.11 146.59 160.27 146.38 L 159.30 146.14 C 158.46 145.94 157.62 146.45 157.41 147.29 C 157.20 148.13 157.71 148.98 158.55 149.18 Z M 159.19 149.31 L 160.01 149.72 C 160.79 150.11 161.73 149.79 162.12 149.02 C 162.51 148.24 162.20 147.29 161.42 146.90 L 160.60 146.49 C 159.82 146.10 158.88 146.42 158.49 147.20 C 158.10 147.98 158.41 148.92 159.19 149.31 Z M 159.76 149.58 L 160.54 150.17 C 161.24 150.70 162.24 150.55 162.77 149.85 C 163.29 149.15 163.15 148.15 162.45 147.62 L 161.67 147.03 C 160.96 146.51 159.97 146.65 159.44 147.35 C 158.91 148.06 159.05 149.06 159.76 149.58 Z M 160.35 150.03 L 161.09 150.77 C 161.72 151.40 162.74 151.41 163.37 150.78 C 164.00 150.15 164.00 149.13 163.37 148.50 L 162.63 147.76 C 162.00 147.13 160.98 147.13 160.35 147.75 C 159.72 148.38 159.72 149.40 160.35 150.03 Z M 160.96 150.65 L 161.62 151.48 C 162.17 152.18 163.20 152.30 163.90 151.74 C 164.60 151.19 164.72 150.17 164.17 149.46 L 163.51 148.63 C 162.95 147.93 161.93 147.81 161.22 148.36 C 160.52 148.92 160.40 149.94 160.96 150.65 Z M 161.52 151.37 L 162.08 152.22 C 162.58 152.97 163.59 153.19 164.35 152.69 C 165.10 152.20 165.31 151.18 164.82 150.43 L 164.26 149.58 C 163.76 148.82 162.75 148.61 162.00 149.10 C 161.24 149.60 161.03 150.61 161.52 151.37 Z M 162.01 152.12 L 162.51 153.01 C 162.94 153.81 163.94 154.10 164.74 153.66 C 165.53 153.22 165.82 152.22 165.38 151.43 L 164.89 150.53 C 164.45 149.74 163.45 149.45 162.66 149.89 C 161.87 150.32 161.58 151.32 162.01 152.12 Z M 162.45 152.90 L 162.86 153.81 C 163.23 154.64 164.21 155.00 165.04 154.63 C 165.87 154.25 166.23 153.27 165.86 152.44 L 165.44 151.54 C 165.07 150.71 164.09 150.35 163.26 150.72 C 162.44 151.10 162.07 152.08 162.45 152.90 Z M 162.80 153.67 L 163.12 154.60 C 163.43 155.46 164.37 155.91 165.23 155.61 C 166.09 155.31 166.54 154.36 166.24 153.50 L 165.91 152.58 C 165.61 151.72 164.67 151.26 163.81 151.57 C 162.95 151.87 162.49 152.81 162.80 153.67 Z M 163.07 154.42 L 163.30 155.40 C 163.50 156.28 164.39 156.84 165.28 156.63 C 166.17 156.43 166.72 155.54 166.52 154.65 L 166.29 153.68 C 166.09 152.79 165.20 152.23 164.31 152.44 C 163.42 152.65 162.86 153.53 163.07 154.42 Z M 163.27 155.21 L 163.38 156.18 C 163.49 157.08 164.31 157.73 165.21 157.63 C 166.12 157.52 166.77 156.70 166.66 155.79 L 166.55 154.83 C 166.44 153.92 165.62 153.27 164.71 153.38 C 163.81 153.49 163.16 154.31 163.27 155.21 Z M 163.37 156.04 L 163.40 157.05 C 163.43 157.96 164.20 158.67 165.11 158.64 C 166.02 158.61 166.73 157.85 166.70 156.94 L 166.67 155.93 C 166.64 155.02 165.88 154.30 164.97 154.33 C 164.05 154.36 163.34 155.13 163.37 156.04 Z M 163.41 156.96 L 163.39 157.84 C 163.38 158.75 164.10 159.50 165.01 159.52 C 165.92 159.53 166.67 158.81 166.69 157.90 L 166.70 157.02 C 166.72 156.11 165.99 155.36 165.08 155.34 C 164.17 155.33 163.42 156.05 163.41 156.96 Z M 163.40 157.75 L 163.33 158.67 C 163.27 159.58 163.94 160.37 164.85 160.43 C 165.75 160.50 166.54 159.82 166.61 158.92 L 166.68 157.99 C 166.74 157.09 166.06 156.30 165.16 156.23 C 164.25 156.17 163.47 156.84 163.40 157.75 Z M 163.35 158.55 L 163.20 159.55 C 163.07 160.44 163.68 161.27 164.58 161.41 C 165.47 161.54 166.30 160.93 166.44 160.03 L 166.59 159.04 C 166.72 158.14 166.11 157.31 165.21 157.18 C 164.32 157.04 163.49 157.66 163.35 158.55 Z M 163.24 159.40 L 162.97 160.48 C 162.76 161.35 163.30 162.23 164.17 162.45 C 165.05 162.66 165.93 162.12 166.14 161.25 L 166.41 160.18 C 166.62 159.30 166.08 158.42 165.21 158.20 C 164.33 157.99 163.45 158.53 163.24 159.40 Z M 163.02 160.34 L 162.68 161.34 C 162.39 162.19 162.85 163.11 163.70 163.40 C 164.55 163.69 165.47 163.23 165.76 162.39 L 166.10 161.38 C 166.39 160.53 165.93 159.61 165.08 159.32 C 164.23 159.04 163.31 159.49 163.02 160.34 Z M 162.73 161.24 L 162.35 162.16 C 162.01 162.98 162.40 163.93 163.22 164.27 C 164.04 164.61 164.99 164.22 165.33 163.40 L 165.71 162.48 C 166.05 161.66 165.66 160.71 164.84 160.37 C 164.02 160.03 163.07 160.42 162.73 161.24 Z M 162.39 162.10 L 161.95 163.03 C 161.57 163.83 161.92 164.78 162.72 165.16 C 163.52 165.54 164.47 165.20 164.85 164.39 L 165.29 163.46 C 165.67 162.66 165.33 161.71 164.52 161.33 C 163.72 160.95 162.77 161.29 162.39 162.10 Z M 161.98 162.98 L 161.51 163.90 C 161.10 164.68 161.41 165.64 162.19 166.05 C 162.98 166.45 163.94 166.14 164.34 165.36 L 164.82 164.44 C 165.22 163.66 164.91 162.70 164.13 162.29 C 163.35 161.89 162.39 162.20 161.98 162.98 Z M 161.54 163.86 L 161.05 164.75 C 160.62 165.52 160.90 166.48 161.67 166.91 C 162.43 167.33 163.40 167.05 163.82 166.29 L 164.31 165.40 C 164.74 164.63 164.46 163.67 163.69 163.24 C 162.93 162.82 161.96 163.10 161.54 163.86 Z M 161.07 164.73 L 160.59 165.56 C 160.15 166.31 160.40 167.28 161.15 167.72 C 161.90 168.15 162.87 167.90 163.31 167.15 L 163.79 166.31 C 164.23 165.56 163.98 164.60 163.23 164.16 C 162.48 163.72 161.51 163.98 161.07 164.73 Z M 160.62 165.54 L 160.04 166.47 C 159.59 167.21 159.82 168.17 160.56 168.62 C 161.29 169.07 162.25 168.84 162.70 168.11 L 163.28 167.17 C 163.73 166.44 163.50 165.48 162.76 165.03 C 162.03 164.57 161.07 164.80 160.62 165.54 Z M 160.08 166.45 L 159.51 167.32 C 159.05 168.03 159.25 168.99 159.97 169.46 C 160.68 169.92 161.64 169.72 162.10 169.00 L 162.67 168.13 C 163.13 167.42 162.93 166.46 162.21 166.00 C 161.50 165.53 160.54 165.73 160.08 166.45 Z M 159.55 167.30 L 159.00 168.09 C 158.53 168.79 158.70 169.74 159.40 170.22 C 160.09 170.69 161.04 170.52 161.52 169.82 L 162.07 169.02 C 162.54 168.33 162.36 167.38 161.67 166.90 C 160.97 166.43 160.02 166.60 159.55 167.30 Z M 159.03 168.08 L 158.49 168.83 C 158.01 169.51 158.16 170.45 158.84 170.94 C 159.52 171.42 160.46 171.27 160.95 170.59 L 161.49 169.84 C 161.97 169.16 161.82 168.22 161.14 167.73 C 160.46 167.25 159.52 167.40 159.03 168.08 Z M 158.52 168.83 L 157.96 169.58 C 157.47 170.24 157.61 171.18 158.28 171.67 C 158.94 172.16 159.87 172.02 160.36 171.35 L 160.92 170.60 C 161.41 169.94 161.27 169.00 160.61 168.51 C 159.94 168.02 159.01 168.16 158.52 168.83 Z M 157.98 169.58 L 157.39 170.35 C 156.90 171.01 157.03 171.94 157.69 172.43 C 158.34 172.92 159.27 172.79 159.76 172.14 L 160.35 171.36 C 160.84 170.71 160.71 169.78 160.05 169.28 C 159.40 168.79 158.47 168.92 157.98 169.58 Z M 157.41 170.35 L 156.80 171.14 C 156.31 171.78 156.43 172.71 157.07 173.20 C 157.72 173.70 158.64 173.58 159.14 172.93 L 159.74 172.14 C 160.24 171.50 160.12 170.57 159.47 170.08 C 158.83 169.58 157.90 169.70 157.41 170.35 Z M 156.82 171.13 L 156.19 171.93 C 155.69 172.56 155.80 173.49 156.44 173.99 C 157.07 174.49 157.99 174.37 158.49 173.74 L 159.12 172.94 C 159.62 172.30 159.51 171.38 158.88 170.88 C 158.24 170.38 157.32 170.49 156.82 171.13 Z M 156.21 171.92 L 155.56 172.72 C 155.06 173.35 155.16 174.27 155.78 174.77 C 156.41 175.28 157.33 175.18 157.83 174.55 L 158.48 173.75 C 158.98 173.12 158.88 172.20 158.26 171.70 C 157.63 171.19 156.71 171.29 156.21 171.92 Z M 155.58 172.72 L 154.96 173.47 C 154.45 174.09 154.54 175.00 155.16 175.51 C 155.78 176.02 156.69 175.93 157.20 175.31 L 157.82 174.56 C 158.33 173.94 158.24 173.02 157.62 172.52 C 157.00 172.01 156.08 172.10 155.58 172.72 Z M 154.97 173.46 L 154.33 174.22 C 153.82 174.83 153.90 175.75 154.52 176.26 C 155.13 176.77 156.04 176.69 156.55 176.08 L 157.19 175.32 C 157.70 174.70 157.62 173.79 157.01 173.28 C 156.39 172.77 155.48 172.85 154.97 173.46 Z M 154.35 174.21 L 153.70 174.98 C 153.18 175.59 153.25 176.50 153.86 177.01 C 154.47 177.53 155.38 177.45 155.89 176.85 L 156.54 176.08 C 157.06 175.48 156.98 174.57 156.38 174.05 C 155.77 173.53 154.86 173.61 154.35 174.21 Z M 153.71 174.98 L 153.04 175.75 C 152.52 176.35 152.59 177.25 153.19 177.77 C 153.79 178.29 154.70 178.22 155.22 177.62 L 155.88 176.85 C 156.40 176.25 156.33 175.34 155.73 174.83 C 155.13 174.31 154.22 174.37 153.71 174.98 Z M 153.05 175.74 L 152.39 176.50 C 151.87 177.10 151.93 178.00 152.53 178.52 C 153.12 179.04 154.03 178.98 154.55 178.39 L 155.21 177.63 C 155.73 177.03 155.67 176.12 155.07 175.60 C 154.47 175.08 153.57 175.15 153.05 175.74 Z M 152.39 176.50 L 151.74 177.24 C 151.22 177.83 151.28 178.74 151.87 179.26 C 152.47 179.78 153.37 179.72 153.89 179.13 L 154.54 178.39 C 155.06 177.80 155.00 176.89 154.41 176.37 C 153.82 175.85 152.91 175.91 152.39 176.50 Z M 151.75 177.24 L 151.09 177.98 C 150.56 178.57 150.62 179.48 151.21 180.00 C 151.80 180.52 152.70 180.47 153.23 179.88 L 153.89 179.13 C 154.41 178.54 154.35 177.64 153.76 177.11 C 153.17 176.59 152.27 176.65 151.75 177.24 Z M 151.09 177.98 L 150.42 178.73 C 149.90 179.32 149.95 180.22 150.54 180.75 C 151.13 181.27 152.03 181.22 152.56 180.63 L 153.22 179.88 C 153.75 179.29 153.69 178.39 153.11 177.86 C 152.52 177.34 151.61 177.39 151.09 177.98 Z M 150.42 178.73 L 149.75 179.48 C 149.23 180.07 149.28 180.97 149.86 181.50 C 150.45 182.02 151.35 181.97 151.88 181.39 L 152.55 180.63 C 153.08 180.04 153.03 179.14 152.44 178.62 C 151.85 178.09 150.95 178.14 150.42 178.73 Z M 149.75 179.48 L 149.08 180.23 C 148.56 180.82 148.61 181.72 149.19 182.25 C 149.78 182.77 150.68 182.72 151.21 182.14 L 151.88 181.39 C 152.40 180.80 152.35 179.90 151.76 179.37 C 151.18 178.85 150.28 178.90 149.75 179.48 Z M 149.08 180.23 L 148.42 180.97 C 147.89 181.56 147.94 182.46 148.53 182.99 C 149.12 183.51 150.02 183.46 150.54 182.88 L 151.20 182.14 C 151.73 181.55 151.68 180.65 151.09 180.12 C 150.51 179.60 149.61 179.65 149.08 180.23 Z M 148.42 180.97 L 147.75 181.72 C 147.23 182.30 147.28 183.21 147.86 183.73 C 148.45 184.26 149.35 184.21 149.87 183.62 L 150.54 182.88 C 151.07 182.29 151.02 181.39 150.43 180.86 C 149.84 180.34 148.94 180.39 148.42 180.97 Z M 147.75 181.72 L 147.08 182.47 C 146.56 183.05 146.61 183.95 147.19 184.48 C 147.78 185.00 148.68 184.95 149.21 184.37 L 149.87 183.62 C 150.40 183.03 150.35 182.13 149.76 181.61 C 149.18 181.08 148.28 181.13 147.75 181.72 Z M 147.08 182.47 L 146.41 183.21 C 145.89 183.80 145.94 184.70 146.52 185.23 C 147.11 185.75 148.01 185.70 148.53 185.12 L 149.21 184.37 C 149.73 183.78 149.68 182.88 149.10 182.36 C 148.51 181.83 147.61 181.88 147.08 182.47 Z M 146.41 183.21 L 145.96 183.72 C 145.43 184.31 145.48 185.21 146.07 185.73 C 146.65 186.26 147.55 186.21 148.08 185.62 L 148.53 185.12 C 149.06 184.53 149.01 183.63 148.42 183.10 C 147.84 182.58 146.94 182.63 146.41 183.21 Z"
      fill="black"
      fill-rule="nonzero" /></svg>