<svg xmlns="http://www.w3.org/2000/svg" width="300" height="300" viewBox="0 0 300 300">
<path d="M 143.36 139.40 L 142.24 138.71 C 141.49 138.25 140.52 138.48 140.06 139.23 C 139.59 139.97 139.82 140.95 140.57 141.41 L 141.68 142.10 C 142.43 142.56 143.41 142.33 143.87 141.59 C 144.33 140.84 144.10 139.86 143.36 139.40 Z M 142.29 138.72 L 141.34 138.08 C 140.59 137.59 139.59 137.80 139.10 138.54 C 138.61 139.28 138.81 140.28 139.56 140.77 L 140.52 141.41 C 141.26 141.90 142.26 141.69 142.75 140.95 C 143.24 140.21 143.04 139.21 142.29 138.72 Z M 141.47 138.15 L 140.83 137.63 C 140.12 137.07 139.09 137.18 138.53 137.88 C 137.96 138.59 138.07 139.62 138.77 140.19 L 139.42 140.71 C 140.12 141.27 141.16 141.16 141.72 140.46 C 142.29 139.75 142.18 138.72 141.47 138.15 Z M 141.37 138.35 L 141.22 137.95 C 140.91 137.09 139.96 136.63 139.10 136.94 C 138.24 137.25 137.79 138.20 138.09 139.07 L 138.24 139.47 C 138.55 140.33 139.50 140.78 140.36 140.47 C 141.22 140.17 141.67 139.22 141.37 138.35 Z M 139.89 140.17 L 140.68 140.06 C 141.60 139.93 142.24 139.08 142.12 138.17 C 141.99 137.25 141.14 136.61 140.22 136.73 L 139.43 136.84 C 138.51 136.97 137.87 137.82 138.00 138.74 C 138.12 139.66 138.97 140.30 139.89 140.17 Z M 140.15 140.06 L 141.42 140.29 C 142.34 140.45 143.22 139.84 143.38 138.92 C 143.55 138.00 142.93 137.12 142.01 136.96 L 140.75 136.73 C 139.83 136.57 138.95 137.18 138.79 138.10 C 138.62 139.02 139.23 139.90 140.15 140.06 Z M 141.19 140.24 L 142.09 140.53 C 142.99 140.82 143.95 140.33 144.24 139.44 C 144.53 138.54 144.03 137.58 143.14 137.30 L 142.24 137.00 C 141.35 136.72 140.39 137.21 140.10 138.10 C 139.81 138.99 140.30 139.95 141.19 140.24 Z M 141.94 140.48 L 142.85 140.87 C 143.72 141.24 144.72 140.84 145.09 139.98 C 145.47 139.11 145.07 138.11 144.20 137.74 L 143.29 137.35 C 142.43 136.97 141.42 137.37 141.05 138.24 C 140.68 139.11 141.08 140.11 141.94 140.48 Z M 142.73 140.82 L 143.65 141.30 C 144.49 141.74 145.52 141.42 145.96 140.58 C 146.40 139.75 146.08 138.71 145.24 138.27 L 144.32 137.79 C 143.49 137.35 142.45 137.67 142.01 138.51 C 141.57 139.35 141.89 140.38 142.73 140.82 Z M 143.56 141.26 L 144.41 141.77 C 145.22 142.26 146.28 142.00 146.77 141.19 C 147.26 140.38 147.00 139.33 146.19 138.83 L 145.34 138.32 C 144.52 137.83 143.47 138.09 142.98 138.90 C 142.49 139.71 142.75 140.77 143.56 141.26 Z M 144.34 141.73 L 145.14 142.27 C 145.93 142.80 147.00 142.59 147.53 141.80 C 148.06 141.02 147.85 139.95 147.06 139.42 L 146.26 138.88 C 145.47 138.35 144.40 138.56 143.87 139.34 C 143.34 140.13 143.55 141.20 144.34 141.73 Z M 145.08 142.23 L 145.89 142.83 C 146.66 143.39 147.73 143.23 148.30 142.46 C 148.86 141.70 148.70 140.62 147.93 140.05 L 147.13 139.46 C 146.36 138.89 145.28 139.06 144.72 139.82 C 144.15 140.59 144.32 141.67 145.08 142.23 Z M 145.83 142.78 L 146.64 143.43 C 147.38 144.03 148.46 143.91 149.06 143.17 C 149.66 142.43 149.54 141.34 148.80 140.74 L 147.99 140.10 C 147.25 139.50 146.17 139.62 145.57 140.36 C 144.97 141.10 145.09 142.19 145.83 142.78 Z M 146.58 143.39 L 147.35 144.06 C 148.07 144.69 149.16 144.62 149.79 143.90 C 150.41 143.18 150.34 142.09 149.62 141.46 L 148.86 140.79 C 148.14 140.16 147.05 140.23 146.42 140.95 C 145.79 141.67 145.86 142.76 146.58 143.39 Z M 147.29 144.01 L 148.01 144.70 C 148.70 145.35 149.80 145.33 150.46 144.64 C 151.12 143.94 151.09 142.85 150.40 142.19 L 149.68 141.51 C 148.99 140.85 147.89 140.88 147.23 141.57 C 146.57 142.26 146.60 143.35 147.29 144.01 Z M 147.95 144.64 L 148.65 145.36 C 149.31 146.05 150.40 146.08 151.09 145.42 C 151.78 144.75 151.81 143.66 151.15 142.97 L 150.45 142.24 C 149.79 141.55 148.70 141.53 148.01 142.19 C 147.31 142.85 147.29 143.95 147.95 144.64 Z M 148.58 145.30 L 149.24 146.06 C 149.87 146.78 150.96 146.86 151.69 146.24 C 152.41 145.61 152.49 144.52 151.87 143.79 L 151.21 143.03 C 150.58 142.31 149.49 142.23 148.76 142.85 C 148.04 143.48 147.96 144.57 148.58 145.30 Z M 149.18 145.98 L 149.79 146.78 C 150.38 147.54 151.47 147.69 152.23 147.10 C 152.99 146.52 153.13 145.43 152.55 144.67 L 151.93 143.87 C 151.35 143.11 150.26 142.97 149.50 143.55 C 148.74 144.13 148.59 145.22 149.18 145.98 Z M 149.73 146.70 L 150.27 147.51 C 150.81 148.30 151.89 148.51 152.69 147.98 C 153.48 147.44 153.69 146.36 153.16 145.57 L 152.61 144.76 C 152.07 143.96 150.99 143.75 150.20 144.29 C 149.40 144.82 149.19 145.90 149.73 146.70 Z M 150.22 147.42 L 150.71 148.26 C 151.20 149.09 152.27 149.37 153.09 148.88 C 153.92 148.39 154.20 147.33 153.71 146.50 L 153.21 145.66 C 152.73 144.83 151.66 144.55 150.83 145.04 C 150.01 145.52 149.73 146.59 150.22 147.42 Z M 150.66 148.17 L 151.11 149.06 C 151.55 149.91 152.60 150.25 153.45 149.82 C 154.31 149.38 154.65 148.34 154.21 147.48 L 153.76 146.59 C 153.33 145.74 152.28 145.40 151.42 145.83 C 150.57 146.27 150.23 147.32 150.66 148.17 Z M 151.07 148.97 L 151.48 149.90 C 151.86 150.78 152.89 151.18 153.77 150.80 C 154.65 150.41 155.05 149.39 154.66 148.51 L 154.26 147.57 C 153.87 146.69 152.85 146.29 151.97 146.68 C 151.09 147.06 150.69 148.09 151.07 148.97 Z M 151.44 149.81 L 151.80 150.78 C 152.14 151.68 153.14 152.14 154.04 151.80 C 154.94 151.47 155.40 150.46 155.06 149.56 L 154.70 148.59 C 154.37 147.69 153.36 147.24 152.46 147.57 C 151.56 147.91 151.11 148.91 151.44 149.81 Z M 151.77 150.70 L 152.09 151.68 C 152.38 152.59 153.35 153.10 154.27 152.81 C 155.18 152.52 155.69 151.54 155.40 150.63 L 155.09 149.65 C 154.80 148.73 153.82 148.22 152.91 148.51 C 151.99 148.80 151.48 149.78 151.77 150.70 Z M 152.07 151.60 L 152.33 152.60 C 152.58 153.53 153.54 154.08 154.46 153.83 C 155.39 153.58 155.94 152.62 155.69 151.70 L 155.42 150.70 C 155.17 149.78 154.22 149.23 153.29 149.48 C 152.37 149.73 151.82 150.68 152.07 151.60 Z M 152.32 152.53 L 152.54 153.52 C 152.76 154.45 153.68 155.04 154.62 154.83 C 155.55 154.62 156.14 153.69 155.93 152.75 L 155.70 151.77 C 155.49 150.83 154.56 150.25 153.63 150.46 C 152.69 150.67 152.11 151.60 152.32 152.53 Z M 152.53 153.45 L 152.71 154.40 C 152.88 155.34 153.79 155.97 154.73 155.79 C 155.67 155.62 156.29 154.71 156.11 153.77 L 155.94 152.82 C 155.76 151.88 154.86 151.26 153.92 151.43 C 152.98 151.61 152.36 152.51 152.53 153.45 Z M 152.70 154.33 L 152.84 155.31 C 152.97 156.26 153.84 156.91 154.79 156.78 C 155.73 156.65 156.39 155.78 156.26 154.83 L 156.12 153.85 C 155.99 152.90 155.12 152.25 154.17 152.38 C 153.23 152.51 152.57 153.38 152.70 154.33 Z M 152.84 155.22 L 152.93 156.25 C 153.01 157.19 153.85 157.89 154.79 157.81 C 155.73 157.72 156.43 156.89 156.35 155.95 L 156.26 154.92 C 156.17 153.98 155.34 153.28 154.40 153.36 C 153.45 153.45 152.76 154.28 152.84 155.22 Z M 152.94 156.17 L 152.98 157.14 C 153.02 158.08 153.81 158.81 154.75 158.77 C 155.69 158.73 156.42 157.94 156.38 157.00 L 156.34 156.03 C 156.30 155.09 155.51 154.36 154.57 154.40 C 153.63 154.44 152.90 155.23 152.94 156.17 Z M 153.00 157.09 L 153.01 158.05 C 153.02 158.98 153.78 159.73 154.71 159.72 C 155.64 159.71 156.38 158.95 156.37 158.02 L 156.36 157.05 C 156.35 156.12 155.59 155.38 154.66 155.39 C 153.73 155.40 152.99 156.16 153.00 157.09 Z M 153.02 158.03 L 153.02 158.99 C 153.02 159.91 153.77 160.66 154.69 160.66 C 155.61 160.66 156.36 159.91 156.36 158.99 L 156.36 158.03 C 156.36 157.11 155.61 156.37 154.69 156.37 C 153.77 156.37 153.02 157.11 153.02 158.03 Z M 153.04 158.99 L 153.03 159.95 C 153.03 160.87 153.77 161.61 154.68 161.61 C 155.60 161.62 156.34 160.88 156.34 159.97 L 156.34 159.00 C 156.35 158.08 155.61 157.34 154.70 157.34 C 153.78 157.33 153.04 158.07 153.04 158.99 Z M 153.05 159.94 L 153.03 160.94 C 153.02 161.85 153.75 162.59 154.66 162.61 C 155.56 162.62 156.31 161.89 156.32 160.98 L 156.33 159.98 C 156.34 159.07 155.61 158.33 154.71 158.32 C 153.80 158.31 153.06 159.03 153.05 159.94 Z M 153.05 160.92 L 153.02 161.95 C 153.00 162.85 153.71 163.60 154.61 163.62 C 155.51 163.65 156.25 162.94 156.28 162.04 L 156.30 161.01 C 156.33 160.11 155.62 159.36 154.72 159.34 C 153.82 159.31 153.07 160.02 153.05 160.92 Z M 153.04 161.93 L 152.99 162.94 C 152.95 163.83 153.64 164.58 154.54 164.62 C 155.43 164.66 156.18 163.97 156.22 163.08 L 156.26 162.07 C 156.30 161.17 155.61 160.42 154.72 160.38 C 153.83 160.34 153.07 161.03 153.04 161.93 Z M 153.01 162.90 L 152.94 163.87 C 152.88 164.75 153.55 165.52 154.43 165.58 C 155.32 165.63 156.08 164.97 156.14 164.08 L 156.20 163.12 C 156.26 162.23 155.59 161.47 154.71 161.41 C 153.83 161.35 153.07 162.02 153.01 162.90 Z M 152.96 163.82 L 152.86 164.80 C 152.78 165.68 153.41 166.45 154.29 166.54 C 155.16 166.63 155.93 165.99 156.02 165.12 L 156.12 164.13 C 156.21 163.26 155.57 162.49 154.70 162.40 C 153.83 162.31 153.05 162.95 152.96 163.82 Z M 152.89 164.74 L 152.75 165.74 C 152.62 166.60 153.22 167.40 154.08 167.52 C 154.94 167.64 155.74 167.04 155.86 166.18 L 156.00 165.18 C 156.12 164.32 155.52 163.53 154.66 163.40 C 153.80 163.28 153.01 163.88 152.89 164.74 Z M 152.77 165.67 L 152.58 166.69 C 152.42 167.54 152.97 168.35 153.82 168.51 C 154.67 168.67 155.48 168.11 155.64 167.27 L 155.83 166.25 C 155.99 165.41 155.44 164.59 154.59 164.43 C 153.75 164.27 152.93 164.83 152.77 165.67 Z M 152.61 166.62 L 152.38 167.56 C 152.18 168.39 152.69 169.22 153.52 169.42 C 154.35 169.62 155.18 169.11 155.38 168.28 L 155.61 167.34 C 155.81 166.51 155.30 165.68 154.47 165.48 C 153.64 165.28 152.81 165.79 152.61 166.62 Z M 152.41 167.50 L 152.14 168.44 C 151.91 169.25 152.38 170.10 153.19 170.33 C 154.00 170.57 154.85 170.10 155.09 169.28 L 155.36 168.34 C 155.59 167.53 155.12 166.68 154.31 166.45 C 153.49 166.21 152.64 166.68 152.41 167.50 Z M 152.17 168.39 L 151.86 169.34 C 151.60 170.14 152.03 170.99 152.83 171.25 C 153.63 171.51 154.49 171.08 154.75 170.28 L 155.06 169.33 C 155.32 168.53 154.88 167.67 154.08 167.41 C 153.29 167.15 152.43 167.59 152.17 168.39 Z M 151.88 169.30 L 151.54 170.26 C 151.26 171.04 151.67 171.91 152.45 172.19 C 153.24 172.47 154.10 172.06 154.38 171.28 L 154.72 170.32 C 155.00 169.53 154.60 168.67 153.81 168.39 C 153.03 168.11 152.16 168.52 151.88 169.30 Z M 151.56 170.23 L 151.19 171.20 C 150.90 171.97 151.28 172.83 152.05 173.13 C 152.83 173.43 153.69 173.04 153.99 172.27 L 154.36 171.30 C 154.65 170.53 154.27 169.67 153.50 169.37 C 152.72 169.07 151.86 169.46 151.56 170.23 Z M 151.21 171.18 L 150.84 172.10 C 150.53 172.86 150.90 173.73 151.66 174.03 C 152.42 174.34 153.29 173.97 153.60 173.21 L 153.97 172.29 C 154.27 171.53 153.91 170.66 153.15 170.36 C 152.39 170.05 151.52 170.42 151.21 171.18 Z M 150.86 172.08 L 150.47 172.99 C 150.16 173.74 150.51 174.61 151.26 174.92 C 152.02 175.24 152.88 174.89 153.20 174.14 L 153.58 173.23 C 153.90 172.48 153.54 171.61 152.79 171.29 C 152.04 170.98 151.17 171.33 150.86 172.08 Z M 150.49 172.98 L 150.09 173.89 C 149.77 174.63 150.11 175.50 150.85 175.82 C 151.59 176.15 152.46 175.81 152.78 175.06 L 153.18 174.15 C 153.51 173.41 153.17 172.54 152.42 172.22 C 151.68 171.89 150.81 172.23 150.49 172.98 Z M 150.11 173.87 L 149.69 174.79 C 149.36 175.53 149.69 176.39 150.42 176.72 C 151.16 177.05 152.02 176.73 152.36 175.99 L 152.77 175.07 C 153.10 174.34 152.77 173.47 152.04 173.14 C 151.30 172.81 150.44 173.14 150.11 173.87 Z M 149.71 174.78 L 149.28 175.70 C 148.94 176.43 149.26 177.29 149.99 177.63 C 150.71 177.97 151.58 177.65 151.91 176.92 L 152.34 176.00 C 152.68 175.28 152.36 174.41 151.64 174.07 C 150.91 173.74 150.05 174.05 149.71 174.78 Z M 149.29 175.69 L 148.86 176.61 C 148.51 177.33 148.82 178.19 149.54 178.53 C 150.26 178.88 151.12 178.57 151.46 177.85 L 151.90 176.93 C 152.24 176.21 151.94 175.35 151.22 175.01 C 150.50 174.66 149.64 174.97 149.29 175.69 Z M 148.87 176.60 L 148.43 177.49 C 148.08 178.20 148.38 179.07 149.09 179.42 C 149.80 179.77 150.67 179.47 151.02 178.75 L 151.45 177.86 C 151.80 177.15 151.51 176.28 150.79 175.93 C 150.08 175.59 149.22 175.88 148.87 176.60 Z M 148.44 177.48 L 147.99 178.37 C 147.63 179.08 147.92 179.95 148.63 180.30 C 149.34 180.66 150.20 180.37 150.56 179.66 L 151.01 178.77 C 151.36 178.06 151.08 177.19 150.37 176.84 C 149.66 176.48 148.79 176.77 148.44 177.48 Z M 148.00 178.36 L 147.54 179.25 C 147.18 179.96 147.45 180.82 148.16 181.18 C 148.86 181.55 149.73 181.27 150.09 180.57 L 150.55 179.67 C 150.91 178.97 150.64 178.10 149.93 177.74 C 149.23 177.38 148.36 177.66 148.00 178.36 Z M 147.55 179.24 L 147.08 180.13 C 146.71 180.83 146.98 181.69 147.68 182.06 C 148.38 182.43 149.24 182.16 149.61 181.47 L 150.08 180.58 C 150.45 179.88 150.18 179.01 149.48 178.64 C 148.78 178.27 147.92 178.54 147.55 179.24 Z M 147.09 180.11 L 146.61 180.99 C 146.23 181.69 146.49 182.55 147.18 182.93 C 147.88 183.31 148.75 183.05 149.12 182.36 L 149.60 181.48 C 149.98 180.79 149.72 179.92 149.03 179.54 C 148.34 179.16 147.47 179.42 147.09 180.11 Z M 146.62 180.98 L 146.13 181.85 C 145.75 182.54 145.99 183.41 146.68 183.80 C 147.37 184.18 148.24 183.94 148.62 183.25 L 149.11 182.37 C 149.50 181.69 149.25 180.82 148.57 180.43 C 147.88 180.04 147.01 180.29 146.62 180.98 Z M 146.14 181.84 L 145.64 182.71 C 145.24 183.39 145.48 184.27 146.16 184.66 C 146.84 185.05 147.72 184.82 148.11 184.14 L 148.61 183.26 C 149.01 182.58 148.77 181.71 148.09 181.31 C 147.41 180.92 146.53 181.16 146.14 181.84 Z M 145.65 182.70 L 145.14 183.56 C 144.74 184.24 144.96 185.11 145.64 185.51 C 146.32 185.91 147.19 185.69 147.59 185.01 L 148.10 184.15 C 148.50 183.47 148.28 182.59 147.60 182.19 C 146.92 181.79 146.05 182.02 145.65 182.70 Z M 145.14 183.55 L 144.63 184.41 C 144.22 185.08 144.44 185.96 145.12 186.36 C 145.79 186.77 146.67 186.55 147.08 185.88 L 147.59 185.02 C 147.99 184.34 147.77 183.47 147.10 183.06 C 146.42 182.66 145.55 182.88 145.14 183.55 Z M 144.63 184.40 L 144.12 185.25 C 143.71 185.93 143.92 186.80 144.60 187.21 C 145.27 187.62 146.15 187.41 146.56 186.73 L 147.07 185.88 C 147.48 185.21 147.27 184.33 146.59 183.92 C 145.92 183.51 145.04 183.73 144.63 184.40 Z M 144.12 185.25 L 143.60 186.10 C 143.19 186.77 143.40 187.65 144.08 188.06 C 144.75 188.47 145.62 188.26 146.04 187.58 L 146.55 186.74 C 146.96 186.06 146.75 185.19 146.08 184.78 C 145.41 184.37 144.53 184.58 144.12 185.25 Z M 143.60 186.10 L 143.55 186.18 C 143.14 186.85 143.35 187.73 144.03 188.14 C 144.70 188.55 145.57 188.34 145.98 187.67 L 146.03 187.58 C 146.44 186.91 146.23 186.04 145.56 185.62 C 144.89 185.21 144.01 185.43 143.60 186.10 Z"
      fill="black"
      fill-rule="nonzero" /></svg>