<svg xmlns="http://www.w3.org/2000/svg" width="300" height="300" viewBox="0 0 300 300">
<path d="M 145.04 123.95 L 145.82 124.64 C 146.48 125.23 147.49 125.16 148.07 124.51 C 148.65 123.85 148.59 122.84 147.93 122.26 L 147.14 121.57 C 146.49 120.99 145.48 121.05 144.90 121.71 C 144.32 122.37 144.38 123.37 145.04 123.95 Z M 145.79 124.65 L 146.55 125.34 C 147.22 125.94 148.24 125.89 148.83 125.23 C 149.43 124.57 149.38 123.55 148.72 122.95 L 147.96 122.26 C 147.30 121.66 146.28 121.71 145.68 122.37 C 145.08 123.03 145.13 124.05 145.79 124.65 Z M 146.51 125.33 L 147.23 126.02 C 147.88 126.64 148.92 126.62 149.54 125.96 C 150.17 125.31 150.14 124.27 149.49 123.65 L 148.77 122.96 C 148.12 122.33 147.08 122.36 146.45 123.01 C 145.83 123.67 145.85 124.70 146.51 125.33 Z M 147.16 125.98 L 147.82 126.67 C 148.45 127.33 149.50 127.35 150.17 126.71 C 150.83 126.08 150.85 125.02 150.21 124.36 L 149.56 123.68 C 148.92 123.02 147.87 123.00 147.21 123.63 C 146.54 124.27 146.52 125.32 147.16 125.98 Z M 147.73 126.59 L 148.38 127.37 C 148.98 128.08 150.04 128.18 150.75 127.58 C 151.46 126.99 151.55 125.93 150.96 125.22 L 150.30 124.44 C 149.70 123.73 148.65 123.63 147.94 124.23 C 147.23 124.82 147.13 125.88 147.73 126.59 Z M 148.29 127.26 L 148.86 128.08 C 149.39 128.84 150.44 129.02 151.20 128.49 C 151.96 127.96 152.15 126.91 151.62 126.15 L 151.05 125.33 C 150.52 124.57 149.47 124.39 148.71 124.92 C 147.95 125.45 147.76 126.50 148.29 127.26 Z M 148.78 127.95 L 149.27 128.80 C 149.73 129.60 150.76 129.88 151.56 129.42 C 152.37 128.95 152.65 127.92 152.18 127.12 L 151.70 126.28 C 151.23 125.47 150.21 125.19 149.40 125.66 C 148.60 126.12 148.32 127.15 148.78 127.95 Z M 149.21 128.68 L 149.62 129.56 C 150.02 130.40 151.03 130.75 151.87 130.35 C 152.71 129.95 153.06 128.95 152.66 128.11 L 152.24 127.23 C 151.85 126.40 150.84 126.04 150.00 126.44 C 149.16 126.84 148.81 127.84 149.21 128.68 Z M 149.58 129.46 L 149.94 130.35 C 150.28 131.21 151.26 131.63 152.12 131.29 C 152.98 130.94 153.41 129.96 153.06 129.10 L 152.71 128.21 C 152.36 127.35 151.38 126.93 150.52 127.27 C 149.66 127.62 149.24 128.59 149.58 129.46 Z M 149.90 130.24 L 150.21 131.19 C 150.49 132.07 151.44 132.56 152.33 132.27 C 153.21 131.98 153.69 131.03 153.41 130.15 L 153.10 129.20 C 152.81 128.32 151.86 127.84 150.98 128.12 C 150.10 128.41 149.61 129.36 149.90 130.24 Z M 150.18 131.08 L 150.43 132.09 C 150.66 132.99 151.57 133.53 152.47 133.30 C 153.37 133.08 153.92 132.16 153.69 131.26 L 153.44 130.26 C 153.21 129.36 152.30 128.81 151.40 129.04 C 150.49 129.27 149.95 130.18 150.18 131.08 Z M 150.41 131.98 L 150.58 132.94 C 150.75 133.85 151.63 134.46 152.54 134.29 C 153.45 134.12 154.06 133.24 153.89 132.33 L 153.71 131.37 C 153.54 130.46 152.67 129.85 151.76 130.02 C 150.84 130.19 150.24 131.07 150.41 131.98 Z M 150.57 132.85 L 150.69 133.77 C 150.80 134.69 151.64 135.34 152.56 135.22 C 153.48 135.11 154.13 134.27 154.02 133.35 L 153.90 132.42 C 153.78 131.50 152.94 130.85 152.02 130.97 C 151.11 131.09 150.45 131.93 150.57 132.85 Z M 150.68 133.70 L 150.76 134.67 C 150.84 135.59 151.65 136.28 152.57 136.20 C 153.49 136.13 154.18 135.32 154.10 134.40 L 154.02 133.42 C 153.95 132.50 153.14 131.81 152.22 131.89 C 151.29 131.97 150.61 132.78 150.68 133.70 Z M 150.76 134.62 L 150.81 135.65 C 150.86 136.57 151.64 137.29 152.56 137.24 C 153.49 137.20 154.20 136.41 154.15 135.49 L 154.10 134.46 C 154.06 133.53 153.28 132.82 152.35 132.87 C 151.43 132.91 150.72 133.69 150.76 134.62 Z M 150.82 135.61 L 150.84 136.71 C 150.86 137.63 151.62 138.36 152.55 138.34 C 153.47 138.32 154.20 137.56 154.18 136.64 L 154.15 135.53 C 154.13 134.61 153.37 133.88 152.45 133.91 C 151.53 133.93 150.80 134.69 150.82 135.61 Z M 150.85 136.68 L 150.85 137.69 C 150.86 138.61 151.60 139.35 152.52 139.34 C 153.44 139.34 154.18 138.59 154.17 137.67 L 154.17 136.67 C 154.17 135.75 153.42 135.01 152.50 135.01 C 151.58 135.02 150.84 135.76 150.85 136.68 Z M 150.86 137.66 L 150.85 138.69 C 150.83 139.60 151.56 140.35 152.47 140.37 C 153.39 140.38 154.14 139.65 154.15 138.74 L 154.16 137.70 C 154.18 136.79 153.45 136.04 152.54 136.03 C 151.62 136.02 150.87 136.75 150.86 137.66 Z M 150.86 138.65 L 150.82 139.69 C 150.78 140.59 151.49 141.35 152.40 141.39 C 153.30 141.42 154.07 140.71 154.10 139.81 L 154.14 138.78 C 154.17 137.87 153.46 137.11 152.56 137.07 C 151.65 137.04 150.89 137.75 150.86 138.65 Z M 150.83 139.64 L 150.76 140.64 C 150.70 141.54 151.39 142.32 152.28 142.38 C 153.18 142.44 153.96 141.76 154.02 140.86 L 154.09 139.85 C 154.15 138.95 153.47 138.18 152.57 138.12 C 151.67 138.06 150.89 138.74 150.83 139.64 Z M 150.78 140.58 L 150.68 141.52 C 150.59 142.41 151.23 143.21 152.12 143.30 C 153.02 143.40 153.81 142.75 153.91 141.86 L 154.01 140.92 C 154.10 140.03 153.45 139.23 152.56 139.13 C 151.67 139.04 150.87 139.69 150.78 140.58 Z M 150.71 141.43 L 150.53 142.48 C 150.39 143.36 150.98 144.19 151.86 144.33 C 152.73 144.48 153.56 143.89 153.71 143.01 L 153.88 141.95 C 154.03 141.08 153.43 140.25 152.56 140.10 C 151.68 139.96 150.85 140.55 150.71 141.43 Z M 150.57 142.37 L 150.33 143.37 C 150.13 144.22 150.65 145.08 151.50 145.29 C 152.36 145.49 153.22 144.97 153.42 144.12 L 153.66 143.12 C 153.87 142.27 153.35 141.41 152.49 141.20 C 151.64 140.99 150.78 141.52 150.57 142.37 Z M 150.38 143.27 L 150.09 144.19 C 149.84 145.01 150.30 145.89 151.12 146.15 C 151.95 146.41 152.83 145.95 153.09 145.12 L 153.38 144.21 C 153.64 143.38 153.17 142.50 152.35 142.24 C 151.52 141.98 150.64 142.45 150.38 143.27 Z M 150.14 144.13 L 149.82 145.01 C 149.53 145.81 149.94 146.70 150.75 146.99 C 151.55 147.28 152.44 146.86 152.73 146.06 L 153.05 145.18 C 153.34 144.38 152.92 143.49 152.12 143.20 C 151.31 142.91 150.43 143.32 150.14 144.13 Z M 149.84 144.99 L 149.50 145.90 C 149.20 146.69 149.59 147.57 150.38 147.87 C 151.17 148.18 152.06 147.78 152.36 146.99 L 152.71 146.08 C 153.01 145.29 152.61 144.40 151.82 144.10 C 151.03 143.80 150.14 144.20 149.84 144.99 Z M 149.52 145.88 L 149.15 146.81 C 148.84 147.59 149.22 148.48 150.00 148.78 C 150.78 149.09 151.67 148.71 151.97 147.93 L 152.34 147.00 C 152.65 146.22 152.27 145.34 151.49 145.03 C 150.71 144.72 149.82 145.10 149.52 145.88 Z M 149.17 146.79 L 148.78 147.72 C 148.46 148.49 148.82 149.37 149.59 149.69 C 150.36 150.01 151.24 149.65 151.56 148.88 L 151.95 147.95 C 152.27 147.18 151.91 146.30 151.14 145.98 C 150.37 145.66 149.49 146.02 149.17 146.79 Z M 148.81 147.69 L 148.40 148.61 C 148.06 149.36 148.40 150.25 149.15 150.58 C 149.90 150.92 150.78 150.59 151.12 149.83 L 151.53 148.91 C 151.87 148.16 151.54 147.28 150.78 146.94 C 150.03 146.60 149.15 146.94 148.81 147.69 Z M 148.43 148.57 L 147.99 149.47 C 147.63 150.21 147.93 151.09 148.67 151.45 C 149.40 151.81 150.29 151.51 150.65 150.78 L 151.09 149.87 C 151.45 149.14 151.15 148.25 150.41 147.89 C 149.68 147.53 148.79 147.83 148.43 148.57 Z M 148.02 149.44 L 147.55 150.32 C 147.17 151.04 147.44 151.93 148.16 152.31 C 148.88 152.69 149.77 152.41 150.15 151.69 L 150.62 150.81 C 151.00 150.09 150.72 149.20 150.01 148.82 C 149.29 148.44 148.40 148.72 148.02 149.44 Z M 147.58 150.29 L 147.09 151.16 C 146.69 151.86 146.94 152.75 147.64 153.15 C 148.35 153.54 149.24 153.30 149.64 152.59 L 150.13 151.72 C 150.52 151.02 150.27 150.13 149.57 149.73 C 148.86 149.34 147.97 149.58 147.58 150.29 Z M 147.11 151.14 L 146.60 152.00 C 146.19 152.69 146.42 153.58 147.12 153.99 C 147.81 154.39 148.70 154.16 149.10 153.47 L 149.61 152.61 C 150.02 151.92 149.79 151.03 149.10 150.62 C 148.41 150.22 147.52 150.44 147.11 151.14 Z M 146.62 151.98 L 146.10 152.83 C 145.69 153.51 145.90 154.40 146.58 154.81 C 147.26 155.23 148.15 155.02 148.57 154.34 L 149.09 153.49 C 149.50 152.81 149.29 151.92 148.61 151.50 C 147.93 151.09 147.04 151.30 146.62 151.98 Z M 146.12 152.81 L 145.58 153.65 C 145.16 154.32 145.36 155.21 146.03 155.64 C 146.70 156.07 147.59 155.87 148.02 155.20 L 148.55 154.35 C 148.98 153.68 148.78 152.79 148.11 152.36 C 147.44 151.94 146.55 152.14 146.12 152.81 Z M 145.60 153.63 L 145.05 154.47 C 144.61 155.13 144.80 156.02 145.46 156.46 C 146.12 156.90 147.01 156.71 147.45 156.05 L 148.00 155.21 C 148.43 154.55 148.25 153.66 147.59 153.23 C 146.93 152.79 146.04 152.97 145.60 153.63 Z M 145.07 154.45 L 144.50 155.28 C 144.05 155.94 144.22 156.83 144.87 157.27 C 145.52 157.72 146.41 157.55 146.86 156.90 L 147.43 156.07 C 147.87 155.42 147.71 154.53 147.06 154.08 C 146.40 153.64 145.51 153.80 145.07 154.45 Z M 144.52 155.27 L 143.94 156.08 C 143.48 156.72 143.63 157.61 144.27 158.07 C 144.92 158.53 145.81 158.37 146.26 157.73 L 146.84 156.92 C 147.30 156.28 147.15 155.39 146.51 154.93 C 145.86 154.47 144.97 154.62 144.52 155.27 Z M 143.95 156.06 L 143.36 156.87 C 142.89 157.51 143.03 158.40 143.67 158.86 C 144.31 159.33 145.20 159.19 145.66 158.55 L 146.25 157.75 C 146.72 157.11 146.58 156.22 145.94 155.75 C 145.31 155.29 144.41 155.43 143.95 156.06 Z M 143.37 156.86 L 142.77 157.67 C 142.30 158.30 142.43 159.19 143.06 159.66 C 143.69 160.13 144.59 160.00 145.06 159.37 L 145.66 158.56 C 146.13 157.93 145.99 157.04 145.36 156.57 C 144.73 156.10 143.84 156.23 143.37 156.86 Z M 142.77 157.66 L 142.31 158.29 C 141.83 158.92 141.96 159.81 142.59 160.28 C 143.22 160.75 144.11 160.63 144.59 160.00 L 145.05 159.37 C 145.53 158.74 145.40 157.85 144.77 157.38 C 144.14 156.90 143.25 157.03 142.77 157.66 Z"
      fill="black"
      fill-rule="nonzero" /></svg>