<svg xmlns="http://www.w3.org/2000/svg" width="300" height="300" viewBox="0 0 300 300">
<path d="M 138.67 134.56 L 138.21 133.53 C 137.86 132.73 136.93 132.37 136.14 132.72 C 135.34 133.07 134.98 134.00 135.33 134.80 L 135.79 135.83 C 136.14 136.63 137.07 136.99 137.86 136.64 C 138.66 136.29 139.02 135.36 138.67 134.56 Z M 138.32 133.84 L 138.13 132.91 C 137.96 132.05 137.12 131.50 136.26 131.68 C 135.40 131.85 134.85 132.69 135.03 133.55 L 135.22 134.48 C 135.40 135.34 136.23 135.89 137.09 135.71 C 137.95 135.54 138.50 134.70 138.32 133.84 Z M 138.05 133.84 L 138.34 133.15 C 138.68 132.34 138.30 131.41 137.48 131.07 C 136.67 130.73 135.74 131.11 135.40 131.92 L 135.11 132.62 C 134.77 133.43 135.15 134.36 135.97 134.70 C 136.78 135.04 137.71 134.66 138.05 133.84 Z M 137.72 133.90 L 138.41 133.47 C 139.16 133.00 139.39 132.02 138.93 131.26 C 138.46 130.51 137.47 130.28 136.72 130.74 L 136.02 131.17 C 135.27 131.64 135.04 132.63 135.51 133.38 C 135.97 134.14 136.96 134.37 137.72 133.90 Z M 138.01 133.66 L 139.02 133.37 C 139.88 133.12 140.38 132.23 140.13 131.37 C 139.88 130.51 138.99 130.01 138.13 130.26 L 137.12 130.55 C 136.26 130.80 135.76 131.70 136.01 132.56 C 136.26 133.41 137.15 133.91 138.01 133.66 Z M 138.81 133.43 L 140.02 133.25 C 140.91 133.12 141.52 132.29 141.39 131.40 C 141.26 130.51 140.43 129.89 139.54 130.03 L 138.34 130.20 C 137.45 130.34 136.83 131.16 136.96 132.05 C 137.10 132.94 137.92 133.56 138.81 133.43 Z M 139.90 133.27 L 140.90 133.19 C 141.80 133.12 142.48 132.34 142.41 131.43 C 142.34 130.53 141.55 129.86 140.65 129.93 L 139.65 130.00 C 138.75 130.07 138.08 130.86 138.14 131.76 C 138.21 132.67 139.00 133.34 139.90 133.27 Z M 140.81 133.20 L 141.84 133.18 C 142.75 133.16 143.46 132.40 143.44 131.49 C 143.42 130.59 142.66 129.87 141.76 129.89 L 140.73 129.92 C 139.82 129.94 139.11 130.69 139.13 131.60 C 139.15 132.51 139.91 133.23 140.81 133.20 Z M 141.75 133.18 L 142.77 133.21 C 143.68 133.24 144.44 132.52 144.46 131.61 C 144.49 130.70 143.77 129.94 142.86 129.92 L 141.84 129.89 C 140.93 129.86 140.17 130.58 140.15 131.49 C 140.12 132.40 140.84 133.16 141.75 133.18 Z M 142.67 133.21 L 143.65 133.30 C 144.56 133.38 145.36 132.71 145.44 131.80 C 145.52 130.89 144.85 130.08 143.94 130.00 L 142.96 129.92 C 142.05 129.84 141.25 130.51 141.17 131.42 C 141.09 132.33 141.76 133.13 142.67 133.21 Z M 143.51 133.29 L 144.56 133.46 C 145.46 133.62 146.32 133.01 146.47 132.10 C 146.62 131.20 146.01 130.34 145.11 130.19 L 144.07 130.01 C 143.16 129.86 142.31 130.47 142.15 131.37 C 142.00 132.28 142.61 133.13 143.51 133.29 Z M 144.39 133.43 L 145.38 133.71 C 146.26 133.95 147.18 133.43 147.43 132.55 C 147.68 131.66 147.16 130.75 146.27 130.50 L 145.28 130.22 C 144.39 129.98 143.48 130.50 143.23 131.38 C 142.98 132.27 143.50 133.18 144.39 133.43 Z M 145.20 133.65 L 146.09 134.01 C 146.94 134.36 147.92 133.94 148.26 133.09 C 148.61 132.24 148.20 131.26 147.34 130.92 L 146.45 130.56 C 145.60 130.21 144.62 130.62 144.28 131.48 C 143.93 132.33 144.34 133.30 145.20 133.65 Z M 145.91 133.93 L 146.73 134.38 C 147.55 134.82 148.56 134.52 149.00 133.71 C 149.45 132.90 149.15 131.88 148.33 131.44 L 147.51 130.99 C 146.70 130.55 145.69 130.85 145.24 131.66 C 144.80 132.48 145.10 133.49 145.91 133.93 Z M 146.57 134.28 L 147.38 134.85 C 148.13 135.39 149.18 135.21 149.72 134.45 C 150.25 133.70 150.07 132.65 149.32 132.12 L 148.50 131.54 C 147.75 131.01 146.70 131.18 146.17 131.94 C 145.63 132.70 145.81 133.74 146.57 134.28 Z M 147.20 134.71 L 147.92 135.39 C 148.60 136.02 149.66 135.99 150.29 135.31 C 150.93 134.64 150.90 133.58 150.22 132.94 L 149.50 132.26 C 148.82 131.63 147.76 131.66 147.12 132.33 C 146.49 133.01 146.52 134.07 147.20 134.71 Z M 147.74 135.20 L 148.36 135.99 C 148.93 136.73 149.99 136.86 150.72 136.28 C 151.46 135.71 151.59 134.66 151.02 133.92 L 150.40 133.13 C 149.82 132.40 148.77 132.27 148.04 132.84 C 147.30 133.41 147.17 134.47 147.74 135.20 Z M 148.22 135.79 L 148.67 136.58 C 149.13 137.39 150.15 137.67 150.96 137.22 C 151.77 136.76 152.06 135.73 151.60 134.92 L 151.16 134.13 C 150.70 133.32 149.67 133.04 148.86 133.49 C 148.05 133.95 147.77 134.98 148.22 135.79 Z M 148.58 136.39 L 148.94 137.27 C 149.29 138.13 150.27 138.55 151.13 138.19 C 151.99 137.84 152.41 136.86 152.06 136.00 L 151.70 135.11 C 151.34 134.25 150.36 133.84 149.50 134.19 C 148.64 134.54 148.23 135.53 148.58 136.39 Z M 148.88 137.10 L 149.17 138.10 C 149.42 138.99 150.36 139.50 151.25 139.25 C 152.14 138.99 152.66 138.06 152.40 137.17 L 152.12 136.17 C 151.86 135.28 150.93 134.76 150.03 135.02 C 149.14 135.28 148.62 136.21 148.88 137.10 Z M 149.13 137.95 L 149.34 139.02 C 149.52 139.94 150.40 140.53 151.32 140.35 C 152.23 140.17 152.82 139.29 152.64 138.38 L 152.43 137.31 C 152.26 136.40 151.37 135.80 150.46 135.98 C 149.55 136.16 148.96 137.04 149.13 137.95 Z M 149.33 138.92 L 149.46 139.90 C 149.58 140.82 150.42 141.47 151.34 141.35 C 152.26 141.23 152.91 140.39 152.79 139.47 L 152.66 138.48 C 152.54 137.57 151.70 136.92 150.78 137.04 C 149.86 137.16 149.21 138.00 149.33 138.92 Z M 149.45 139.82 L 149.54 140.84 C 149.61 141.76 150.42 142.45 151.34 142.38 C 152.26 142.30 152.95 141.50 152.87 140.57 L 152.79 139.55 C 152.71 138.63 151.91 137.94 150.99 138.02 C 150.07 138.09 149.38 138.90 149.45 139.82 Z M 149.54 140.77 L 149.57 141.79 C 149.60 142.71 150.38 143.43 151.30 143.40 C 152.22 143.37 152.94 142.60 152.91 141.67 L 152.87 140.65 C 152.84 139.73 152.07 139.01 151.15 139.04 C 150.23 139.07 149.51 139.85 149.54 140.77 Z M 149.58 141.71 L 149.56 142.70 C 149.55 143.61 150.29 144.37 151.20 144.38 C 152.12 144.39 152.88 143.66 152.89 142.74 L 152.90 141.75 C 152.91 140.84 152.18 140.08 151.26 140.07 C 150.34 140.06 149.59 140.79 149.58 141.71 Z M 149.58 142.60 L 149.50 143.63 C 149.44 144.54 150.12 145.33 151.03 145.40 C 151.94 145.46 152.73 144.78 152.80 143.87 L 152.87 142.84 C 152.94 141.93 152.26 141.14 151.35 141.07 C 150.44 141.00 149.64 141.69 149.58 142.60 Z M 149.53 143.50 L 149.38 144.51 C 149.24 145.40 149.86 146.24 150.76 146.37 C 151.65 146.51 152.49 145.89 152.62 144.99 L 152.77 143.99 C 152.91 143.09 152.29 142.26 151.39 142.13 C 150.50 141.99 149.66 142.61 149.53 143.50 Z M 149.42 144.38 L 149.20 145.32 C 148.99 146.20 149.54 147.07 150.41 147.27 C 151.28 147.48 152.15 146.94 152.36 146.06 L 152.58 145.12 C 152.79 144.25 152.24 143.38 151.37 143.17 C 150.50 142.97 149.62 143.51 149.42 144.38 Z M 149.25 145.21 L 148.96 146.13 C 148.69 146.98 149.16 147.88 150.01 148.15 C 150.86 148.41 151.76 147.94 152.02 147.10 L 152.31 146.17 C 152.58 145.33 152.11 144.43 151.26 144.16 C 150.41 143.90 149.51 144.37 149.25 145.21 Z M 149.00 146.05 L 148.67 146.94 C 148.36 147.76 148.78 148.68 149.60 148.99 C 150.42 149.30 151.34 148.88 151.65 148.06 L 151.98 147.17 C 152.29 146.35 151.87 145.43 151.05 145.12 C 150.23 144.81 149.31 145.23 149.00 146.05 Z M 148.71 146.88 L 148.33 147.77 C 147.98 148.57 148.36 149.50 149.16 149.84 C 149.97 150.18 150.89 149.81 151.23 149.01 L 151.61 148.11 C 151.96 147.31 151.58 146.38 150.78 146.04 C 149.97 145.70 149.05 146.07 148.71 146.88 Z M 148.36 147.73 L 147.93 148.64 C 147.56 149.43 147.90 150.36 148.69 150.73 C 149.47 151.09 150.41 150.75 150.77 149.97 L 151.20 149.05 C 151.57 148.27 151.23 147.33 150.44 146.97 C 149.66 146.60 148.73 146.94 148.36 147.73 Z M 147.96 148.61 L 147.49 149.55 C 147.10 150.32 147.41 151.25 148.18 151.64 C 148.95 152.02 149.88 151.72 150.27 150.95 L 150.74 150.01 C 151.13 149.24 150.82 148.30 150.05 147.92 C 149.28 147.53 148.35 147.84 147.96 148.61 Z M 147.51 149.52 L 147.06 150.38 C 146.66 151.13 146.95 152.07 147.70 152.47 C 148.45 152.87 149.39 152.58 149.79 151.83 L 150.24 150.97 C 150.64 150.22 150.36 149.28 149.60 148.88 C 148.85 148.48 147.91 148.77 147.51 149.52 Z M 147.08 150.36 L 146.62 151.20 C 146.20 151.94 146.47 152.87 147.21 153.28 C 147.95 153.70 148.89 153.43 149.30 152.69 L 149.76 151.85 C 150.18 151.11 149.91 150.17 149.17 149.76 C 148.43 149.35 147.49 149.62 147.08 150.36 Z M 146.64 151.18 L 146.14 152.04 C 145.72 152.77 145.97 153.70 146.69 154.12 C 147.42 154.54 148.35 154.30 148.78 153.57 L 149.27 152.71 C 149.70 151.98 149.45 151.05 148.72 150.63 C 147.99 150.21 147.06 150.45 146.64 151.18 Z M 146.16 152.02 L 145.63 152.91 C 145.20 153.62 145.43 154.55 146.15 154.98 C 146.86 155.41 147.79 155.18 148.22 154.46 L 148.75 153.58 C 149.18 152.87 148.95 151.94 148.24 151.51 C 147.52 151.08 146.59 151.31 146.16 152.02 Z M 145.66 152.89 L 145.09 153.79 C 144.65 154.50 144.87 155.42 145.57 155.86 C 146.27 156.30 147.20 156.09 147.64 155.38 L 148.20 154.48 C 148.64 153.78 148.43 152.85 147.72 152.41 C 147.02 151.97 146.09 152.19 145.66 152.89 Z M 145.11 153.78 L 144.60 154.57 C 144.16 155.26 144.35 156.18 145.05 156.63 C 145.74 157.08 146.66 156.88 147.11 156.18 L 147.62 155.40 C 148.06 154.70 147.86 153.78 147.17 153.34 C 146.48 152.89 145.56 153.09 145.11 153.78 Z M 144.62 154.56 L 144.09 155.36 C 143.63 156.05 143.82 156.97 144.51 157.42 C 145.19 157.87 146.11 157.68 146.56 157.00 L 147.09 156.19 C 147.54 155.51 147.36 154.59 146.67 154.14 C 145.99 153.69 145.07 153.88 144.62 154.56 Z M 144.10 155.36 L 143.55 156.18 C 143.09 156.86 143.27 157.77 143.95 158.23 C 144.62 158.68 145.54 158.50 145.99 157.83 L 146.55 157.00 C 147.00 156.33 146.82 155.41 146.15 154.96 C 145.47 154.50 144.55 154.68 144.10 155.36 Z M 143.56 156.18 L 142.98 157.02 C 142.53 157.69 142.70 158.60 143.37 159.06 C 144.04 159.51 144.95 159.34 145.41 158.67 L 145.98 157.83 C 146.44 157.16 146.27 156.25 145.60 155.79 C 144.93 155.33 144.01 155.51 143.56 156.18 Z M 142.99 157.02 L 142.40 157.88 C 141.94 158.54 142.11 159.45 142.77 159.91 C 143.44 160.37 144.35 160.20 144.80 159.53 L 145.40 158.67 C 145.86 158.01 145.69 157.10 145.02 156.64 C 144.36 156.18 143.45 156.35 142.99 157.02 Z M 142.41 157.88 L 141.82 158.73 C 141.36 159.39 141.53 160.29 142.19 160.75 C 142.85 161.21 143.75 161.04 144.21 160.38 L 144.80 159.53 C 145.25 158.87 145.09 157.97 144.43 157.51 C 143.77 157.05 142.86 157.22 142.41 157.88 Z M 141.83 158.73 L 141.26 159.53 C 140.81 160.19 140.97 161.09 141.63 161.55 C 142.28 162.01 143.19 161.84 143.64 161.19 L 144.20 160.38 C 144.66 159.72 144.50 158.82 143.84 158.37 C 143.19 157.91 142.28 158.07 141.83 158.73 Z M 141.27 159.53 L 140.70 160.35 C 140.24 161.00 140.40 161.90 141.05 162.36 C 141.71 162.82 142.61 162.66 143.06 162.01 L 143.64 161.19 C 144.09 160.54 143.94 159.64 143.28 159.18 C 142.63 158.72 141.73 158.88 141.27 159.53 Z M 140.70 160.35 L 140.12 161.17 C 139.66 161.82 139.82 162.72 140.47 163.18 C 141.12 163.64 142.02 163.48 142.48 162.83 L 143.06 162.01 C 143.52 161.36 143.36 160.46 142.71 160.00 C 142.06 159.54 141.16 159.70 140.70 160.35 Z M 140.13 161.17 L 139.54 161.99 C 139.08 162.64 139.23 163.53 139.88 163.99 C 140.53 164.45 141.42 164.30 141.88 163.66 L 142.47 162.83 C 142.93 162.19 142.78 161.29 142.13 160.83 C 141.49 160.37 140.59 160.52 140.13 161.17 Z M 139.55 161.98 L 138.96 162.80 C 138.50 163.45 138.64 164.34 139.28 164.80 C 139.93 165.27 140.82 165.12 141.29 164.48 L 141.88 163.66 C 142.34 163.02 142.19 162.12 141.55 161.66 C 140.91 161.20 140.02 161.34 139.55 161.98 Z M 138.97 162.80 L 138.38 163.61 C 137.91 164.25 138.05 165.14 138.68 165.61 C 139.32 166.07 140.22 165.94 140.68 165.30 L 141.28 164.49 C 141.74 163.85 141.60 162.96 140.97 162.49 C 140.33 162.02 139.44 162.16 138.97 162.80 Z M 138.38 163.60 L 137.78 164.42 C 137.31 165.05 137.44 165.94 138.07 166.41 C 138.70 166.89 139.60 166.75 140.07 166.12 L 140.67 165.31 C 141.14 164.67 141.01 163.78 140.38 163.31 C 139.75 162.84 138.85 162.97 138.38 163.60 Z M 137.78 164.41 L 137.18 165.21 C 136.70 165.84 136.83 166.74 137.45 167.21 C 138.08 167.69 138.98 167.56 139.45 166.93 L 140.06 166.13 C 140.54 165.50 140.41 164.61 139.78 164.13 C 139.15 163.66 138.26 163.78 137.78 164.41 Z M 137.18 165.21 L 136.57 166.00 C 136.10 166.63 136.22 167.52 136.84 168.00 C 137.47 168.48 138.36 168.36 138.84 167.73 L 139.45 166.94 C 139.93 166.31 139.81 165.42 139.18 164.94 C 138.55 164.46 137.66 164.58 137.18 165.21 Z M 136.58 166.00 L 135.97 166.78 C 135.49 167.41 135.61 168.30 136.23 168.78 C 136.85 169.27 137.75 169.15 138.23 168.53 L 138.84 167.74 C 139.32 167.11 139.20 166.22 138.58 165.74 C 137.95 165.26 137.06 165.37 136.58 166.00 Z M 135.97 166.78 L 135.37 167.56 C 134.88 168.19 135.00 169.08 135.62 169.56 C 136.24 170.05 137.14 169.93 137.62 169.31 L 138.23 168.53 C 138.71 167.91 138.60 167.01 137.97 166.53 C 137.35 166.05 136.46 166.16 135.97 166.78 Z M 135.37 167.56 L 134.78 168.32 C 134.30 168.94 134.41 169.84 135.03 170.32 C 135.65 170.80 136.55 170.69 137.03 170.07 L 137.62 169.31 C 138.10 168.69 137.99 167.80 137.37 167.31 C 136.75 166.83 135.85 166.94 135.37 167.56 Z"
      fill="black"
      fill-rule="nonzero" /></svg>