<svg xmlns="http://www.w3.org/2000/svg" width="300" height="300" viewBox="0 0 300 300">
<path d="M 154.48 128.98 L 155.44 128.46 C 156.17 128.06 156.44 127.14 156.04 126.41 C 155.65 125.68 154.73 125.41 154.00 125.81 L 153.04 126.33 C 152.31 126.73 152.04 127.64 152.44 128.38 C 152.84 129.11 153.75 129.37 154.48 128.98 Z M 155.26 128.57 L 156.19 128.22 C 156.98 127.92 157.38 127.03 157.09 126.24 C 156.79 125.45 155.90 125.05 155.11 125.35 L 154.18 125.70 C 153.39 126.00 152.99 126.88 153.29 127.68 C 153.59 128.47 154.47 128.87 155.26 128.57 Z M 155.68 128.34 L 156.54 128.33 C 157.40 128.31 158.09 127.60 158.07 126.74 C 158.06 125.88 157.35 125.19 156.48 125.21 L 155.62 125.22 C 154.76 125.24 154.07 125.95 154.09 126.81 C 154.10 127.67 154.82 128.36 155.68 128.34 Z M 155.78 128.17 L 156.46 128.53 C 157.23 128.94 158.19 128.64 158.60 127.86 C 159.00 127.09 158.70 126.13 157.93 125.72 L 157.25 125.36 C 156.47 124.96 155.51 125.26 155.11 126.03 C 154.70 126.81 155.00 127.77 155.78 128.17 Z M 155.95 128.14 L 156.53 128.86 C 157.09 129.55 158.10 129.66 158.79 129.10 C 159.48 128.54 159.58 127.53 159.03 126.84 L 158.44 126.11 C 157.88 125.43 156.87 125.32 156.18 125.88 C 155.49 126.44 155.39 127.45 155.95 128.14 Z M 156.28 128.48 L 156.75 129.59 C 157.10 130.41 158.05 130.80 158.88 130.45 C 159.71 130.10 160.09 129.15 159.74 128.32 L 159.28 127.22 C 158.93 126.39 157.97 126.00 157.15 126.35 C 156.32 126.70 155.93 127.66 156.28 128.48 Z M 156.65 129.33 L 156.89 130.32 C 157.10 131.20 157.98 131.75 158.86 131.54 C 159.74 131.33 160.29 130.44 160.08 129.56 L 159.84 128.57 C 159.63 127.69 158.75 127.15 157.87 127.36 C 156.99 127.57 156.44 128.45 156.65 129.33 Z M 156.86 130.18 L 156.99 131.11 C 157.12 132.01 157.96 132.63 158.85 132.50 C 159.75 132.37 160.37 131.54 160.24 130.64 L 160.11 129.71 C 159.98 128.81 159.14 128.19 158.25 128.32 C 157.35 128.45 156.73 129.28 156.86 130.18 Z M 156.98 131.01 L 157.06 132.02 C 157.14 132.92 157.93 133.60 158.83 133.52 C 159.74 133.45 160.41 132.66 160.34 131.75 L 160.26 130.74 C 160.18 129.84 159.39 129.17 158.48 129.24 C 157.58 129.31 156.91 130.11 156.98 131.01 Z M 157.06 131.93 L 157.08 132.98 C 157.11 133.88 157.86 134.60 158.77 134.58 C 159.68 134.55 160.40 133.80 160.37 132.89 L 160.35 131.84 C 160.32 130.93 159.57 130.22 158.66 130.24 C 157.75 130.26 157.03 131.02 157.06 131.93 Z M 157.08 132.89 L 157.05 133.94 C 157.03 134.85 157.75 135.61 158.66 135.63 C 159.57 135.66 160.32 134.94 160.35 134.03 L 160.37 132.98 C 160.40 132.07 159.68 131.31 158.77 131.29 C 157.86 131.26 157.11 131.98 157.08 132.89 Z M 157.06 133.85 L 156.97 134.88 C 156.90 135.79 157.58 136.59 158.48 136.66 C 159.39 136.73 160.19 136.06 160.26 135.15 L 160.34 134.12 C 160.42 133.21 159.74 132.42 158.83 132.34 C 157.93 132.27 157.13 132.95 157.06 133.85 Z M 156.99 134.78 L 156.82 135.89 C 156.69 136.79 157.31 137.63 158.21 137.76 C 159.11 137.89 159.95 137.27 160.08 136.37 L 160.25 135.26 C 160.38 134.36 159.76 133.52 158.86 133.39 C 157.96 133.25 157.12 133.88 156.99 134.78 Z M 156.85 135.77 L 156.61 136.83 C 156.42 137.72 156.98 138.60 157.87 138.79 C 158.76 138.99 159.63 138.43 159.83 137.54 L 160.06 136.48 C 160.26 135.59 159.69 134.72 158.81 134.52 C 157.92 134.33 157.04 134.89 156.85 135.77 Z M 156.64 136.73 L 156.36 137.70 C 156.11 138.58 156.61 139.48 157.48 139.74 C 158.35 139.99 159.26 139.49 159.52 138.62 L 159.80 137.64 C 160.05 136.77 159.55 135.86 158.68 135.61 C 157.81 135.36 156.90 135.86 156.64 136.73 Z M 156.40 137.62 L 156.08 138.51 C 155.78 139.36 156.23 140.29 157.08 140.59 C 157.94 140.89 158.87 140.45 159.17 139.59 L 159.48 138.70 C 159.78 137.85 159.34 136.92 158.48 136.62 C 157.63 136.32 156.70 136.76 156.40 137.62 Z M 156.11 138.44 L 155.79 139.24 C 155.45 140.08 155.85 141.03 156.68 141.37 C 157.52 141.71 158.47 141.31 158.81 140.47 L 159.14 139.66 C 159.48 138.83 159.08 137.88 158.24 137.54 C 157.41 137.20 156.45 137.60 156.11 138.44 Z M 155.82 139.19 L 155.39 140.14 C 155.02 140.95 155.38 141.91 156.19 142.28 C 157.01 142.66 157.97 142.30 158.34 141.48 L 158.77 140.53 C 159.15 139.72 158.79 138.75 157.97 138.38 C 157.16 138.01 156.19 138.37 155.82 139.19 Z M 155.44 140.08 L 154.98 140.98 C 154.58 141.77 154.89 142.74 155.68 143.14 C 156.47 143.54 157.43 143.23 157.84 142.44 L 158.29 141.54 C 158.70 140.75 158.38 139.78 157.59 139.38 C 156.80 138.98 155.84 139.29 155.44 140.08 Z M 155.02 140.94 L 154.56 141.77 C 154.14 142.54 154.41 143.50 155.17 143.92 C 155.94 144.35 156.90 144.07 157.33 143.31 L 157.79 142.48 C 158.22 141.71 157.94 140.75 157.18 140.33 C 156.41 139.90 155.45 140.18 155.02 140.94 Z M 154.60 141.75 L 154.12 142.57 C 153.68 143.31 153.93 144.27 154.68 144.70 C 155.42 145.14 156.38 144.89 156.81 144.15 L 157.29 143.33 C 157.73 142.59 157.48 141.63 156.73 141.19 C 155.99 140.76 155.03 141.01 154.60 141.75 Z M 154.14 142.56 L 153.64 143.39 C 153.21 144.12 153.44 145.07 154.18 145.51 C 154.91 145.95 155.86 145.71 156.30 144.98 L 156.79 144.15 C 157.23 143.42 156.99 142.47 156.26 142.03 C 155.53 141.59 154.58 141.83 154.14 142.56 Z M 153.66 143.38 L 153.14 144.23 C 152.70 144.96 152.93 145.90 153.65 146.34 C 154.37 146.78 155.31 146.56 155.75 145.84 L 156.28 144.99 C 156.72 144.27 156.49 143.32 155.77 142.88 C 155.05 142.44 154.11 142.66 153.66 143.38 Z M 153.16 144.23 L 152.61 145.10 C 152.17 145.81 152.38 146.74 153.09 147.19 C 153.80 147.64 154.74 147.43 155.19 146.72 L 155.73 145.84 C 156.18 145.13 155.97 144.20 155.26 143.75 C 154.55 143.30 153.61 143.52 153.16 144.23 Z M 152.64 145.09 L 152.10 145.91 C 151.65 146.61 151.85 147.55 152.54 148.00 C 153.24 148.45 154.18 148.25 154.63 147.55 L 155.16 146.73 C 155.62 146.03 155.42 145.09 154.72 144.64 C 154.02 144.19 153.09 144.39 152.64 145.09 Z M 152.12 145.90 L 151.58 146.71 C 151.12 147.40 151.31 148.33 151.99 148.79 C 152.68 149.25 153.61 149.06 154.07 148.37 L 154.61 147.56 C 155.07 146.88 154.88 145.95 154.19 145.49 C 153.51 145.03 152.58 145.22 152.12 145.90 Z M 151.60 146.70 L 151.03 147.53 C 150.57 148.20 150.74 149.13 151.41 149.59 C 152.09 150.06 153.01 149.89 153.48 149.21 L 154.05 148.39 C 154.51 147.71 154.34 146.79 153.66 146.32 C 152.99 145.86 152.06 146.03 151.60 146.70 Z M 151.05 147.52 L 150.45 148.36 C 149.98 149.02 150.14 149.94 150.80 150.42 C 151.47 150.89 152.39 150.73 152.86 150.07 L 153.46 149.22 C 153.93 148.56 153.77 147.64 153.11 147.17 C 152.44 146.70 151.52 146.85 151.05 147.52 Z M 150.47 148.35 L 149.88 149.16 C 149.40 149.81 149.54 150.73 150.19 151.21 C 150.85 151.68 151.76 151.54 152.24 150.89 L 152.84 150.08 C 153.32 149.43 153.17 148.51 152.52 148.03 C 151.87 147.55 150.95 147.69 150.47 148.35 Z M 149.90 149.14 L 149.30 149.94 C 148.81 150.58 148.94 151.49 149.58 151.98 C 150.22 152.47 151.14 152.34 151.62 151.70 L 152.22 150.90 C 152.71 150.26 152.58 149.35 151.94 148.86 C 151.30 148.38 150.38 148.50 149.90 149.14 Z M 149.32 149.92 L 148.70 150.72 C 148.20 151.35 148.32 152.26 148.95 152.75 C 149.58 153.25 150.49 153.14 150.99 152.50 L 151.61 151.71 C 152.10 151.08 151.99 150.17 151.35 149.67 C 150.72 149.18 149.81 149.29 149.32 149.92 Z M 148.72 150.70 L 148.08 151.49 C 147.58 152.11 147.68 153.02 148.30 153.52 C 148.92 154.02 149.83 153.93 150.33 153.30 L 150.97 152.52 C 151.47 151.90 151.37 150.99 150.75 150.48 C 150.13 149.98 149.22 150.08 148.72 150.70 Z M 148.10 151.47 L 147.46 152.25 C 146.95 152.86 147.03 153.77 147.64 154.28 C 148.25 154.79 149.16 154.70 149.67 154.09 L 150.31 153.32 C 150.82 152.71 150.74 151.80 150.13 151.29 C 149.52 150.78 148.61 150.86 148.10 151.47 Z M 147.48 152.23 L 146.82 152.99 C 146.30 153.59 146.36 154.50 146.96 155.02 C 147.56 155.54 148.47 155.47 148.99 154.87 L 149.65 154.11 C 150.17 153.51 150.10 152.60 149.50 152.09 C 148.90 151.57 148.00 151.63 147.48 152.23 Z M 146.83 152.98 L 146.17 153.72 C 145.64 154.31 145.69 155.22 146.28 155.75 C 146.87 156.27 147.77 156.22 148.30 155.63 L 148.97 154.89 C 149.50 154.30 149.45 153.39 148.86 152.87 C 148.27 152.34 147.36 152.39 146.83 152.98 Z M 146.18 153.71 L 145.51 154.44 C 144.97 155.02 145.01 155.93 145.59 156.46 C 146.17 157.00 147.08 156.96 147.61 156.38 L 148.29 155.65 C 148.82 155.07 148.78 154.16 148.20 153.63 C 147.62 153.09 146.72 153.13 146.18 153.71 Z M 145.52 154.43 L 144.84 155.15 C 144.30 155.72 144.32 156.63 144.90 157.17 C 145.47 157.71 146.37 157.69 146.92 157.11 L 147.60 156.39 C 148.14 155.82 148.11 154.91 147.54 154.37 C 146.97 153.83 146.06 153.86 145.52 154.43 Z M 144.85 155.14 L 144.16 155.86 C 143.61 156.43 143.63 157.33 144.19 157.88 C 144.76 158.42 145.66 158.41 146.21 157.84 L 146.90 157.12 C 147.45 156.56 147.43 155.65 146.87 155.11 C 146.30 154.56 145.40 154.58 144.85 155.14 Z M 144.17 155.85 L 143.47 156.57 C 142.92 157.13 142.92 158.03 143.49 158.58 C 144.05 159.13 144.95 159.13 145.50 158.56 L 146.20 157.85 C 146.75 157.29 146.74 156.38 146.18 155.83 C 145.62 155.28 144.72 155.29 144.17 155.85 Z M 143.47 156.56 L 142.77 157.27 C 142.21 157.83 142.22 158.73 142.78 159.29 C 143.34 159.84 144.24 159.84 144.79 159.28 L 145.50 158.57 C 146.05 158.01 146.05 157.11 145.49 156.55 C 144.93 156.00 144.03 156.00 143.47 156.56 Z M 142.77 157.27 L 142.07 157.98 C 141.51 158.53 141.51 159.44 142.07 159.99 C 142.62 160.55 143.53 160.55 144.08 159.99 L 144.79 159.28 C 145.35 158.72 145.34 157.82 144.79 157.27 C 144.23 156.71 143.33 156.71 142.77 157.27 Z M 142.07 157.98 L 141.78 158.27 C 141.22 158.82 141.22 159.72 141.78 160.28 C 142.33 160.84 143.24 160.84 143.79 160.28 L 144.08 159.99 C 144.64 159.43 144.64 158.53 144.08 157.98 C 143.53 157.42 142.62 157.42 142.07 157.98 Z"
      fill="black"
      fill-rule="nonzero" /></svg>