<svg xmlns="http://www.w3.org/2000/svg" width="300" height="300" viewBox="0 0 300 300">
<path d="M 139.09 104.17 L 138.71 102.99 C 138.45 102.18 137.59 101.74 136.78 101.99 C 135.97 102.25 135.53 103.12 135.78 103.93 L 136.16 105.10 C 136.42 105.91 137.28 106.36 138.09 106.10 C 138.90 105.84 139.35 104.98 139.09 104.17 Z M 138.61 102.66 L 138.15 101.88 C 137.72 101.13 136.75 100.88 136.00 101.32 C 135.25 101.76 134.99 102.72 135.43 103.47 L 135.89 104.25 C 136.33 105.01 137.29 105.26 138.04 104.82 C 138.80 104.38 139.05 103.42 138.61 102.66 Z M 136.91 101.08 L 136.37 101.04 C 135.49 100.97 134.72 101.63 134.65 102.52 C 134.58 103.40 135.25 104.18 136.14 104.24 L 136.67 104.28 C 137.56 104.35 138.33 103.68 138.40 102.80 C 138.46 101.91 137.80 101.14 136.91 101.08 Z M 135.15 101.45 L 134.58 101.98 C 133.93 102.59 133.89 103.61 134.50 104.27 C 135.11 104.93 136.13 104.96 136.79 104.35 L 137.36 103.83 C 138.01 103.22 138.05 102.19 137.44 101.54 C 136.83 100.88 135.81 100.84 135.15 101.45 Z M 134.36 102.24 L 133.72 103.15 C 133.21 103.88 133.39 104.89 134.12 105.41 C 134.85 105.92 135.86 105.74 136.38 105.01 L 137.01 104.10 C 137.53 103.36 137.35 102.35 136.61 101.84 C 135.88 101.33 134.87 101.51 134.36 102.24 Z M 133.65 103.26 L 133.00 104.37 C 132.55 105.15 132.81 106.14 133.58 106.59 C 134.36 107.04 135.35 106.78 135.80 106.01 L 136.45 104.89 C 136.90 104.12 136.64 103.13 135.86 102.68 C 135.09 102.23 134.10 102.49 133.65 103.26 Z M 132.98 104.42 L 132.50 105.31 C 132.07 106.10 132.37 107.08 133.15 107.50 C 133.94 107.93 134.92 107.63 135.34 106.85 L 135.82 105.96 C 136.25 105.17 135.95 104.19 135.17 103.77 C 134.38 103.34 133.40 103.64 132.98 104.42 Z M 132.49 105.34 L 132.02 106.26 C 131.61 107.05 131.92 108.02 132.71 108.42 C 133.50 108.83 134.47 108.52 134.87 107.73 L 135.35 106.82 C 135.75 106.03 135.45 105.06 134.66 104.65 C 133.87 104.25 132.90 104.55 132.49 105.34 Z M 132.02 106.27 L 131.56 107.18 C 131.16 107.97 131.48 108.93 132.26 109.33 C 133.05 109.73 134.01 109.41 134.41 108.63 L 134.87 107.72 C 135.27 106.93 134.96 105.97 134.17 105.57 C 133.38 105.17 132.42 105.49 132.02 106.27 Z M 131.56 107.19 L 131.12 108.07 C 130.73 108.85 131.05 109.81 131.83 110.20 C 132.62 110.60 133.57 110.28 133.97 109.49 L 134.41 108.62 C 134.80 107.83 134.49 106.88 133.70 106.48 C 132.92 106.09 131.96 106.41 131.56 107.19 Z M 131.14 108.06 L 130.67 108.97 C 130.28 109.75 130.59 110.70 131.36 111.10 C 132.14 111.50 133.10 111.19 133.49 110.41 L 133.96 109.50 C 134.35 108.72 134.04 107.77 133.26 107.37 C 132.49 106.97 131.53 107.28 131.14 108.06 Z M 130.69 108.96 L 130.20 109.90 C 129.80 110.67 130.10 111.62 130.87 112.02 C 131.64 112.42 132.59 112.13 132.99 111.36 L 133.48 110.42 C 133.88 109.65 133.58 108.70 132.81 108.30 C 132.04 107.90 131.09 108.19 130.69 108.96 Z M 130.21 109.90 L 129.76 110.76 C 129.36 111.52 129.65 112.46 130.41 112.87 C 131.17 113.27 132.11 112.98 132.52 112.22 L 132.97 111.36 C 133.38 110.60 133.08 109.65 132.32 109.25 C 131.56 108.85 130.62 109.14 130.21 109.90 Z M 129.77 110.76 L 129.34 111.58 C 128.94 112.34 129.23 113.27 129.98 113.67 C 130.74 114.07 131.68 113.78 132.08 113.03 L 132.51 112.21 C 132.91 111.46 132.62 110.52 131.86 110.12 C 131.11 109.72 130.17 110.01 129.77 110.76 Z M 129.34 111.60 L 128.89 112.47 C 128.50 113.22 128.79 114.15 129.55 114.54 C 130.30 114.93 131.23 114.64 131.62 113.88 L 132.07 113.01 C 132.46 112.26 132.17 111.33 131.42 110.94 C 130.66 110.55 129.73 110.84 129.34 111.60 Z M 128.89 112.49 L 128.44 113.38 C 128.06 114.13 128.36 115.05 129.11 115.43 C 129.87 115.81 130.79 115.51 131.17 114.76 L 131.62 113.87 C 132.00 113.11 131.70 112.19 130.95 111.81 C 130.19 111.43 129.27 111.73 128.89 112.49 Z M 128.44 113.39 L 128.00 114.29 C 127.62 115.04 127.93 115.95 128.68 116.33 C 129.44 116.70 130.35 116.39 130.72 115.64 L 131.17 114.74 C 131.54 113.99 131.23 113.08 130.48 112.70 C 129.73 112.33 128.82 112.64 128.44 113.39 Z M 128.00 114.30 L 127.56 115.20 C 127.19 115.95 127.51 116.85 128.26 117.22 C 129.01 117.59 129.91 117.28 130.28 116.52 L 130.72 115.63 C 131.09 114.88 130.78 113.97 130.02 113.60 C 129.27 113.24 128.37 113.55 128.00 114.30 Z M 127.57 115.21 L 127.13 116.10 C 126.77 116.85 127.08 117.75 127.83 118.11 C 128.58 118.47 129.48 118.16 129.84 117.41 L 130.28 116.51 C 130.64 115.77 130.32 114.87 129.58 114.51 C 128.83 114.14 127.93 114.46 127.57 115.21 Z M 127.14 116.11 L 126.70 117.02 C 126.35 117.76 126.66 118.65 127.41 119.01 C 128.15 119.37 129.04 119.05 129.40 118.31 L 129.84 117.41 C 130.19 116.66 129.88 115.77 129.13 115.41 C 128.39 115.05 127.50 115.37 127.14 116.11 Z M 126.71 117.02 L 126.28 117.93 C 125.92 118.67 126.24 119.56 126.98 119.91 C 127.72 120.27 128.61 119.95 128.96 119.21 L 129.40 118.30 C 129.75 117.56 129.44 116.68 128.70 116.32 C 127.95 115.97 127.07 116.28 126.71 117.02 Z M 126.28 117.93 L 125.85 118.84 C 125.50 119.58 125.81 120.46 126.55 120.81 C 127.28 121.17 128.17 120.85 128.52 120.12 L 128.95 119.21 C 129.31 118.47 128.99 117.59 128.26 117.24 C 127.52 116.88 126.64 117.20 126.28 117.93 Z M 125.86 118.85 L 125.43 119.75 C 125.08 120.49 125.39 121.36 126.12 121.71 C 126.86 122.06 127.73 121.75 128.08 121.02 L 128.51 120.11 C 128.86 119.38 128.55 118.50 127.82 118.15 C 127.08 117.80 126.21 118.11 125.86 118.85 Z M 125.43 119.76 L 125.01 120.66 C 124.66 121.39 124.98 122.26 125.71 122.60 C 126.44 122.95 127.31 122.64 127.66 121.90 L 128.08 121.01 C 128.42 120.28 128.11 119.40 127.38 119.06 C 126.65 118.72 125.78 119.03 125.43 119.76 Z M 125.01 120.67 L 124.63 121.49 C 124.29 122.22 124.61 123.09 125.34 123.43 C 126.07 123.77 126.93 123.45 127.27 122.72 L 127.65 121.89 C 127.99 121.16 127.68 120.30 126.95 119.96 C 126.22 119.62 125.35 119.94 125.01 120.67 Z M 124.63 121.51 L 124.24 122.36 C 123.91 123.09 124.24 123.95 124.97 124.28 C 125.70 124.61 126.56 124.29 126.89 123.56 L 127.27 122.70 C 127.60 121.97 127.28 121.11 126.55 120.78 C 125.82 120.45 124.96 120.78 124.63 121.51 Z M 124.24 122.38 L 123.83 123.32 C 123.51 124.05 123.85 124.91 124.58 125.23 C 125.31 125.54 126.16 125.21 126.48 124.48 L 126.89 123.53 C 127.21 122.80 126.88 121.95 126.14 121.63 C 125.41 121.31 124.56 121.65 124.24 122.38 Z M 123.83 123.34 L 123.40 124.37 C 123.09 125.11 123.44 125.95 124.17 126.26 C 124.91 126.56 125.75 126.22 126.06 125.48 L 126.49 124.45 C 126.79 123.72 126.45 122.88 125.71 122.57 C 124.98 122.26 124.13 122.61 123.83 123.34 Z M 123.39 124.39 L 123.03 125.29 C 122.73 126.03 123.08 126.87 123.82 127.17 C 124.56 127.46 125.40 127.11 125.69 126.37 L 126.06 125.47 C 126.36 124.73 126.00 123.89 125.27 123.59 C 124.53 123.29 123.69 123.65 123.39 124.39 Z M 123.02 125.31 L 122.65 126.27 C 122.36 127.01 122.72 127.84 123.46 128.13 C 124.20 128.42 125.03 128.06 125.32 127.32 L 125.70 126.36 C 125.99 125.62 125.62 124.78 124.88 124.50 C 124.14 124.21 123.31 124.57 123.02 125.31 Z M 122.64 126.29 L 122.28 127.27 C 122.00 128.01 122.38 128.84 123.12 129.11 C 123.86 129.39 124.69 129.02 124.96 128.27 L 125.33 127.30 C 125.61 126.56 125.23 125.73 124.49 125.45 C 123.74 125.17 122.92 125.55 122.64 126.29 Z M 122.27 127.30 L 121.94 128.24 C 121.67 128.99 122.07 129.81 122.81 130.07 C 123.56 130.33 124.38 129.94 124.64 129.20 L 124.97 128.25 C 125.23 127.50 124.84 126.68 124.10 126.42 C 123.35 126.16 122.53 126.55 122.27 127.30 Z M 121.92 128.28 L 121.61 129.25 C 121.37 130.01 121.79 130.81 122.54 131.05 C 123.30 131.29 124.10 130.88 124.34 130.12 L 124.65 129.16 C 124.89 128.40 124.48 127.60 123.72 127.35 C 122.97 127.11 122.16 127.53 121.92 128.28 Z M 121.58 129.31 L 121.29 130.38 C 121.08 131.15 121.54 131.95 122.31 132.16 C 123.08 132.36 123.88 131.91 124.09 131.13 L 124.38 130.06 C 124.58 129.29 124.13 128.50 123.36 128.29 C 122.58 128.08 121.79 128.54 121.58 129.31 Z M 121.25 130.44 L 121.04 131.39 C 120.87 132.18 121.37 132.97 122.17 133.14 C 122.96 133.32 123.75 132.81 123.92 132.02 L 124.13 131.07 C 124.30 130.28 123.80 129.49 123.00 129.32 C 122.21 129.14 121.42 129.65 121.25 130.44 Z M 121.01 131.43 L 120.85 132.31 C 120.70 133.13 121.23 133.91 122.05 134.06 C 122.86 134.21 123.64 133.67 123.79 132.86 L 123.95 131.98 C 124.10 131.16 123.57 130.38 122.75 130.23 C 121.94 130.08 121.16 130.62 121.01 131.43 Z M 120.83 132.32 L 120.79 132.55 C 120.64 133.38 121.20 134.16 122.02 134.31 C 122.84 134.45 123.63 133.90 123.77 133.07 L 123.81 132.84 C 123.95 132.02 123.40 131.24 122.58 131.09 C 121.76 130.95 120.97 131.50 120.83 132.32 Z"
      fill="black"
      fill-rule="nonzero" /><path d="M 131.19 115.60 L 130.33 115.26 C 129.52 114.94 128.60 115.34 128.28 116.16 C 127.97 116.97 128.37 117.89 129.18 118.21 L 130.04 118.54 C 130.85 118.86 131.77 118.46 132.08 117.65 C 132.40 116.84 132.00 115.92 131.19 115.60 Z M 130.35 115.26 L 129.45 114.90 C 128.64 114.57 127.71 114.97 127.39 115.79 C 127.06 116.60 127.46 117.53 128.27 117.86 L 129.16 118.21 C 129.98 118.54 130.91 118.14 131.23 117.33 C 131.56 116.51 131.16 115.58 130.35 115.26 Z M 129.47 114.90 L 128.51 114.50 C 127.69 114.16 126.76 114.55 126.42 115.37 C 126.08 116.19 126.47 117.12 127.29 117.46 L 128.25 117.86 C 129.07 118.20 130.01 117.81 130.34 116.99 C 130.68 116.17 130.29 115.23 129.47 114.90 Z M 128.54 114.50 L 127.47 114.03 C 126.65 113.68 125.70 114.06 125.34 114.88 C 124.99 115.70 125.37 116.65 126.19 117.00 L 127.26 117.46 C 128.08 117.82 129.03 117.44 129.38 116.62 C 129.74 115.80 129.36 114.85 128.54 114.50 Z M 127.53 114.04 L 126.43 113.52 C 125.62 113.13 124.64 113.48 124.26 114.30 C 123.87 115.11 124.22 116.08 125.03 116.47 L 126.13 116.99 C 126.94 117.38 127.92 117.03 128.30 116.22 C 128.69 115.40 128.34 114.43 127.53 114.04 Z M 126.60 113.59 L 125.73 113.05 C 124.95 112.57 123.93 112.82 123.45 113.59 C 122.97 114.37 123.22 115.39 123.99 115.87 L 124.86 116.41 C 125.64 116.88 126.66 116.64 127.14 115.86 C 127.62 115.09 127.38 114.07 126.60 113.59 Z M 126.18 113.43 L 125.79 112.92 C 125.22 112.20 124.16 112.07 123.44 112.64 C 122.71 113.20 122.58 114.26 123.15 114.99 L 123.54 115.49 C 124.11 116.22 125.16 116.35 125.89 115.78 C 126.62 115.21 126.75 114.16 126.18 113.43 Z M 125.91 114.82 L 126.17 114.39 C 126.65 113.59 126.40 112.56 125.60 112.08 C 124.80 111.60 123.77 111.85 123.29 112.65 L 123.03 113.09 C 122.55 113.88 122.80 114.91 123.60 115.39 C 124.39 115.88 125.43 115.62 125.91 114.82 Z M 125.44 115.03 L 126.26 114.65 C 127.09 114.26 127.46 113.26 127.06 112.43 C 126.67 111.59 125.68 111.22 124.84 111.62 L 124.02 112.00 C 123.18 112.39 122.82 113.39 123.21 114.23 C 123.60 115.06 124.60 115.43 125.44 115.03 Z M 126.01 114.74 L 127.19 114.40 C 128.07 114.14 128.58 113.21 128.32 112.33 C 128.06 111.44 127.14 110.93 126.25 111.19 L 125.08 111.53 C 124.19 111.79 123.69 112.72 123.94 113.60 C 124.20 114.49 125.13 115.00 126.01 114.74 Z M 127.11 114.41 L 128.27 114.13 C 129.16 113.92 129.71 113.02 129.50 112.12 C 129.28 111.23 128.38 110.68 127.49 110.90 L 126.33 111.18 C 125.43 111.39 124.88 112.29 125.10 113.18 C 125.31 114.08 126.21 114.63 127.11 114.41 Z M 128.25 114.14 L 129.17 113.92 C 130.07 113.72 130.63 112.83 130.42 111.93 C 130.22 111.04 129.33 110.48 128.43 110.68 L 127.51 110.89 C 126.61 111.10 126.05 111.99 126.26 112.88 C 126.46 113.78 127.35 114.34 128.25 114.14 Z M 129.16 113.93 L 130.11 113.72 C 131.01 113.52 131.58 112.63 131.38 111.73 C 131.18 110.83 130.29 110.27 129.39 110.47 L 128.44 110.68 C 127.54 110.88 126.98 111.77 127.18 112.66 C 127.38 113.56 128.27 114.13 129.16 113.93 Z M 130.11 113.72 L 131.09 113.50 C 131.99 113.31 132.56 112.42 132.36 111.52 C 132.16 110.62 131.27 110.05 130.37 110.25 L 129.39 110.46 C 128.50 110.66 127.93 111.55 128.12 112.45 C 128.32 113.35 129.21 113.92 130.11 113.72 Z M 131.09 113.51 L 132.10 113.28 C 133.00 113.09 133.57 112.20 133.37 111.30 C 133.18 110.40 132.29 109.83 131.39 110.02 L 130.37 110.25 C 129.47 110.44 128.90 111.33 129.10 112.23 C 129.30 113.13 130.19 113.70 131.09 113.51 Z M 132.11 113.28 L 133.14 113.05 C 134.04 112.85 134.61 111.96 134.41 111.06 C 134.21 110.16 133.32 109.59 132.42 109.79 L 131.38 110.02 C 130.48 110.22 129.91 111.12 130.11 112.02 C 130.31 112.92 131.21 113.48 132.11 113.28 Z M 133.15 113.06 L 134.09 112.84 C 134.99 112.64 135.56 111.74 135.35 110.84 C 135.15 109.94 134.25 109.38 133.35 109.58 L 132.41 109.79 C 131.51 110.00 130.94 110.89 131.15 111.79 C 131.35 112.69 132.25 113.26 133.15 113.06 Z M 134.09 112.85 L 135.06 112.62 C 135.96 112.42 136.53 111.52 136.32 110.62 C 136.11 109.71 135.22 109.15 134.31 109.36 L 133.35 109.58 C 132.44 109.78 131.88 110.68 132.09 111.58 C 132.29 112.49 133.19 113.05 134.09 112.85 Z M 135.06 112.63 L 136.05 112.40 C 136.95 112.19 137.51 111.29 137.30 110.39 C 137.10 109.48 136.19 108.92 135.29 109.13 L 134.31 109.35 C 133.41 109.56 132.84 110.46 133.05 111.37 C 133.26 112.27 134.16 112.84 135.06 112.63 Z M 136.05 112.40 L 137.04 112.17 C 137.94 111.96 138.51 111.06 138.30 110.15 C 138.09 109.25 137.18 108.68 136.28 108.90 L 135.29 109.12 C 134.38 109.33 133.82 110.24 134.03 111.14 C 134.24 112.05 135.14 112.61 136.05 112.40 Z M 137.04 112.18 L 138.03 111.95 C 138.94 111.73 139.50 110.83 139.29 109.92 C 139.08 109.01 138.17 108.45 137.27 108.66 L 136.28 108.89 C 135.37 109.10 134.80 110.01 135.02 110.92 C 135.23 111.82 136.13 112.39 137.04 112.18 Z M 138.03 111.95 L 139.02 111.72 C 139.93 111.51 140.49 110.60 140.28 109.69 C 140.07 108.78 139.16 108.22 138.25 108.43 L 137.26 108.66 C 136.36 108.87 135.79 109.78 136.00 110.69 C 136.21 111.60 137.12 112.16 138.03 111.95 Z M 139.02 111.72 L 140.03 111.49 C 140.94 111.27 141.51 110.36 141.29 109.45 C 141.08 108.54 140.17 107.98 139.26 108.19 L 138.25 108.42 C 137.34 108.64 136.77 109.55 136.98 110.46 C 137.20 111.37 138.11 111.93 139.02 111.72 Z M 140.03 111.49 L 141.03 111.25 C 141.94 111.04 142.51 110.13 142.29 109.22 C 142.08 108.30 141.17 107.74 140.25 107.95 L 139.26 108.19 C 138.35 108.40 137.78 109.31 137.99 110.22 C 138.21 111.14 139.12 111.70 140.03 111.49 Z M 141.04 111.26 L 142.02 111.02 C 142.93 110.81 143.49 109.89 143.28 108.98 C 143.06 108.06 142.14 107.50 141.23 107.72 L 140.25 107.95 C 139.34 108.17 138.77 109.08 138.99 110.00 C 139.21 110.91 140.12 111.47 141.04 111.26 Z M 142.02 111.03 L 142.99 110.79 C 143.90 110.57 144.46 109.65 144.24 108.74 C 144.02 107.82 143.10 107.26 142.18 107.48 L 141.22 107.71 C 140.31 107.94 139.75 108.86 139.97 109.77 C 140.19 110.69 141.11 111.25 142.02 111.03 Z M 143.00 110.79 L 143.94 110.56 C 144.85 110.33 145.41 109.41 145.18 108.49 C 144.96 107.58 144.03 107.02 143.12 107.25 L 142.17 107.48 C 141.26 107.71 140.70 108.63 140.93 109.55 C 141.16 110.46 142.08 111.02 143.00 110.79 Z M 143.95 110.56 L 144.90 110.32 C 145.81 110.08 146.36 109.15 146.13 108.24 C 145.89 107.32 144.96 106.77 144.05 107.00 L 143.10 107.25 C 142.19 107.48 141.64 108.41 141.87 109.33 C 142.11 110.24 143.04 110.79 143.95 110.56 Z M 144.91 110.32 L 145.92 110.05 C 146.83 109.81 147.38 108.87 147.13 107.95 C 146.89 107.04 145.95 106.49 145.04 106.74 L 144.03 107.00 C 143.12 107.25 142.57 108.19 142.82 109.10 C 143.06 110.02 144.00 110.56 144.91 110.32 Z M 145.93 110.05 L 146.91 109.78 C 147.82 109.53 148.36 108.59 148.11 107.67 C 147.86 106.76 146.92 106.22 146.00 106.47 L 145.02 106.74 C 144.11 106.99 143.57 107.93 143.82 108.85 C 144.07 109.76 145.01 110.30 145.93 110.05 Z M 146.92 109.78 L 147.88 109.52 C 148.79 109.26 149.33 108.31 149.08 107.40 C 148.82 106.48 147.87 105.95 146.96 106.20 L 146.00 106.47 C 145.08 106.72 144.54 107.67 144.80 108.59 C 145.05 109.50 146.00 110.04 146.92 109.78 Z M 147.88 109.52 L 148.82 109.26 C 149.74 109.00 150.28 108.05 150.02 107.13 C 149.77 106.21 148.81 105.68 147.90 105.93 L 146.95 106.20 C 146.04 106.45 145.50 107.40 145.76 108.32 C 146.01 109.24 146.96 109.78 147.88 109.52 Z M 148.82 109.26 L 149.75 109.01 C 150.67 108.75 151.21 107.80 150.95 106.88 C 150.70 105.96 149.75 105.42 148.83 105.67 L 147.90 105.93 C 146.98 106.18 146.44 107.14 146.69 108.06 C 146.95 108.98 147.90 109.52 148.82 109.26 Z M 149.74 109.01 L 150.74 108.74 C 151.67 108.49 152.22 107.54 151.97 106.61 C 151.71 105.69 150.76 105.14 149.84 105.39 L 148.83 105.66 C 147.91 105.91 147.36 106.87 147.61 107.79 C 147.86 108.72 148.82 109.27 149.74 109.01 Z M 150.74 108.75 L 151.73 108.49 C 152.66 108.24 153.21 107.28 152.96 106.35 C 152.72 105.42 151.76 104.87 150.83 105.12 L 149.84 105.38 C 148.91 105.63 148.36 106.59 148.60 107.52 C 148.85 108.45 149.81 109.00 150.74 108.75 Z M 151.73 108.50 L 152.70 108.24 C 153.63 107.99 154.19 107.03 153.94 106.09 C 153.69 105.16 152.73 104.60 151.79 104.85 L 150.83 105.11 C 149.89 105.36 149.33 106.32 149.58 107.25 C 149.83 108.19 150.79 108.75 151.73 108.50 Z M 152.70 108.25 L 153.64 108.00 C 154.58 107.74 155.14 106.78 154.89 105.83 C 154.64 104.89 153.67 104.34 152.73 104.59 L 151.79 104.84 C 150.85 105.09 150.29 106.06 150.54 107.00 C 150.79 107.94 151.76 108.50 152.70 108.25 Z M 153.66 108.00 L 154.67 107.72 C 155.62 107.46 156.17 106.49 155.91 105.54 C 155.65 104.60 154.68 104.04 153.73 104.30 L 152.72 104.58 C 151.77 104.84 151.22 105.82 151.48 106.76 C 151.74 107.71 152.71 108.26 153.66 108.00 Z M 154.67 107.74 L 155.97 107.38 C 156.92 107.12 157.49 106.14 157.23 105.19 C 156.97 104.24 155.99 103.68 155.04 103.94 L 153.73 104.29 C 152.78 104.55 152.22 105.53 152.48 106.48 C 152.74 107.43 153.72 108.00 154.67 107.74 Z M 155.85 107.43 L 156.80 107.24 C 157.77 107.04 158.41 106.10 158.21 105.12 C 158.02 104.15 157.07 103.51 156.10 103.71 L 155.15 103.89 C 154.18 104.09 153.54 105.04 153.74 106.01 C 153.93 106.99 154.88 107.62 155.85 107.43 Z M 155.86 107.19 L 156.21 107.31 C 157.15 107.63 158.19 107.12 158.51 106.18 C 158.83 105.23 158.33 104.20 157.38 103.87 L 157.03 103.76 C 156.08 103.43 155.05 103.94 154.73 104.89 C 154.41 105.83 154.91 106.86 155.86 107.19 Z M 155.31 104.54 L 154.94 105.05 C 154.36 105.87 154.56 107.01 155.38 107.59 C 156.20 108.17 157.33 107.97 157.91 107.15 L 158.28 106.64 C 158.86 105.82 158.66 104.69 157.84 104.11 C 157.02 103.52 155.89 103.72 155.31 104.54 Z M 155.14 104.82 L 154.33 105.63 C 153.62 106.34 153.62 107.50 154.33 108.20 C 155.04 108.91 156.19 108.91 156.90 108.20 L 157.72 107.39 C 158.43 106.68 158.43 105.52 157.71 104.81 C 157.00 104.10 155.85 104.11 155.14 104.82 Z M 154.29 105.67 L 153.41 106.61 C 152.73 107.34 152.76 108.49 153.49 109.18 C 154.23 109.86 155.38 109.83 156.06 109.10 L 156.94 108.16 C 157.63 107.43 157.59 106.28 156.86 105.59 C 156.13 104.90 154.98 104.94 154.29 105.67 Z M 153.31 106.73 L 152.69 107.52 C 152.07 108.30 152.20 109.44 152.99 110.07 C 153.78 110.69 154.92 110.55 155.54 109.77 L 156.16 108.98 C 156.79 108.19 156.65 107.05 155.86 106.43 C 155.08 105.80 153.93 105.94 153.31 106.73 Z M 152.61 107.63 L 152.05 108.45 C 151.49 109.28 151.71 110.41 152.54 110.97 C 153.37 111.53 154.50 111.31 155.06 110.48 L 155.62 109.65 C 156.18 108.83 155.96 107.70 155.13 107.14 C 154.30 106.58 153.17 106.80 152.61 107.63 Z M 152.00 108.55 L 151.49 109.41 C 150.99 110.27 151.28 111.38 152.14 111.89 C 153.00 112.39 154.11 112.10 154.61 111.24 L 155.12 110.38 C 155.62 109.52 155.33 108.41 154.47 107.91 C 153.61 107.40 152.50 107.69 152.00 108.55 Z M 151.45 109.50 L 150.99 110.38 C 150.54 111.27 150.88 112.36 151.77 112.81 C 152.65 113.27 153.74 112.92 154.20 112.04 L 154.65 111.16 C 155.11 110.27 154.77 109.18 153.88 108.73 C 153.00 108.27 151.91 108.61 151.45 109.50 Z M 150.96 110.46 L 150.55 111.36 C 150.13 112.26 150.52 113.33 151.42 113.75 C 152.32 114.16 153.39 113.77 153.81 112.87 L 154.22 111.97 C 154.64 111.07 154.25 110.00 153.35 109.58 C 152.45 109.17 151.38 109.56 150.96 110.46 Z M 150.53 111.43 L 150.14 112.35 C 149.77 113.26 150.20 114.31 151.11 114.69 C 152.02 115.07 153.07 114.63 153.44 113.72 L 153.83 112.80 C 154.20 111.89 153.77 110.84 152.86 110.47 C 151.95 110.09 150.90 110.52 150.53 111.43 Z M 150.13 112.42 L 149.78 113.35 C 149.44 114.27 149.90 115.30 150.82 115.64 C 151.74 115.98 152.76 115.52 153.11 114.60 L 153.46 113.66 C 153.80 112.74 153.33 111.72 152.42 111.37 C 151.50 111.03 150.47 111.50 150.13 112.42 Z M 149.77 113.41 L 149.46 114.34 C 149.14 115.27 149.64 116.27 150.56 116.58 C 151.49 116.89 152.49 116.40 152.80 115.47 L 153.12 114.54 C 153.43 113.62 152.93 112.61 152.01 112.30 C 151.08 111.99 150.08 112.49 149.77 113.41 Z M 149.45 114.39 L 149.19 115.26 C 148.90 116.18 149.42 117.16 150.35 117.45 C 151.27 117.73 152.25 117.21 152.54 116.29 L 152.80 115.42 C 153.09 114.50 152.57 113.52 151.65 113.23 C 150.72 112.95 149.74 113.47 149.45 114.39 Z M 149.19 115.30 L 148.93 116.21 C 148.67 117.13 149.21 118.09 150.14 118.35 C 151.06 118.61 152.02 118.08 152.28 117.15 L 152.54 116.24 C 152.80 115.32 152.26 114.36 151.33 114.10 C 150.41 113.84 149.45 114.38 149.19 115.30 Z M 148.94 116.25 L 148.69 117.23 C 148.45 118.15 149.00 119.09 149.93 119.33 C 150.85 119.57 151.79 119.01 152.02 118.09 L 152.28 117.11 C 152.51 116.19 151.96 115.25 151.04 115.01 C 150.11 114.77 149.18 115.33 148.94 116.25 Z M 148.69 117.26 L 148.44 118.34 C 148.22 119.26 148.79 120.18 149.70 120.40 C 150.62 120.61 151.54 120.05 151.76 119.13 L 152.02 118.06 C 152.24 117.14 151.67 116.22 150.75 116.00 C 149.83 115.78 148.91 116.35 148.69 117.26 Z M 148.45 118.36 L 148.22 119.36 C 148.02 120.28 148.59 121.18 149.51 121.39 C 150.42 121.59 151.32 121.02 151.53 120.10 L 151.75 119.10 C 151.96 118.19 151.38 117.29 150.47 117.08 C 149.56 116.88 148.65 117.45 148.45 118.36 Z M 148.24 119.38 L 148.03 120.36 C 147.83 121.26 148.41 122.15 149.31 122.35 C 150.22 122.54 151.11 121.97 151.31 121.06 L 151.52 120.08 C 151.71 119.18 151.13 118.29 150.23 118.09 C 149.32 117.90 148.43 118.48 148.24 119.38 Z M 148.04 120.37 L 147.83 121.38 C 147.64 122.27 148.22 123.15 149.12 123.34 C 150.01 123.53 150.89 122.95 151.08 122.06 L 151.29 121.05 C 151.48 120.15 150.90 119.27 150.01 119.08 C 149.11 118.90 148.23 119.47 148.04 120.37 Z M 147.85 121.39 L 147.64 122.40 C 147.46 123.29 148.03 124.16 148.92 124.34 C 149.81 124.52 150.68 123.95 150.86 123.06 L 151.07 122.05 C 151.25 121.16 150.68 120.29 149.79 120.11 C 148.90 119.92 148.03 120.50 147.85 121.39 Z M 147.65 122.41 L 147.45 123.40 C 147.27 124.29 147.84 125.14 148.73 125.32 C 149.61 125.50 150.46 124.93 150.64 124.05 L 150.84 123.05 C 151.02 122.17 150.45 121.31 149.57 121.14 C 148.69 120.96 147.83 121.53 147.65 122.41 Z M 147.47 123.41 L 147.28 124.36 C 147.10 125.23 147.67 126.08 148.54 126.25 C 149.41 126.43 150.26 125.86 150.44 124.99 L 150.63 124.04 C 150.80 123.17 150.24 122.32 149.36 122.15 C 148.49 121.97 147.64 122.54 147.47 123.41 Z M 147.30 124.36 L 147.10 125.36 C 146.93 126.22 147.48 127.06 148.34 127.23 C 149.21 127.41 150.04 126.85 150.22 125.99 L 150.42 124.99 C 150.59 124.13 150.03 123.29 149.17 123.12 C 148.31 122.94 147.47 123.50 147.30 124.36 Z M 147.13 125.36 L 146.93 126.32 C 146.76 127.17 147.31 127.99 148.15 128.16 C 149.00 128.34 149.82 127.79 149.99 126.94 L 150.19 125.99 C 150.36 125.14 149.81 124.31 148.97 124.14 C 148.12 123.97 147.30 124.52 147.13 125.36 Z M 146.96 126.32 L 146.77 127.25 C 146.59 128.08 147.13 128.90 147.96 129.07 C 148.79 129.24 149.60 128.71 149.77 127.88 L 149.97 126.95 C 150.14 126.12 149.61 125.30 148.78 125.13 C 147.95 124.96 147.13 125.49 146.96 126.32 Z M 146.80 127.25 L 146.59 128.20 C 146.41 129.02 146.93 129.82 147.74 129.99 C 148.56 130.17 149.36 129.65 149.54 128.84 L 149.74 127.89 C 149.92 127.07 149.40 126.27 148.59 126.09 C 147.77 125.92 146.97 126.44 146.80 127.25 Z M 146.62 128.20 L 146.39 129.21 C 146.21 130.01 146.71 130.80 147.51 130.98 C 148.30 131.16 149.10 130.66 149.28 129.86 L 149.51 128.85 C 149.68 128.05 149.18 127.26 148.39 127.08 C 147.59 126.90 146.80 127.40 146.62 128.20 Z M 146.41 129.21 L 146.20 130.10 C 146.02 130.88 146.51 131.67 147.29 131.85 C 148.08 132.03 148.86 131.54 149.05 130.76 L 149.26 129.87 C 149.44 129.08 148.95 128.30 148.17 128.12 C 147.38 127.93 146.60 128.42 146.41 129.21 Z M 146.21 130.09 L 146.00 130.99 C 145.81 131.77 146.29 132.56 147.07 132.74 C 147.85 132.93 148.64 132.45 148.82 131.67 L 149.04 130.77 C 149.23 129.99 148.74 129.20 147.96 129.01 C 147.18 128.83 146.40 129.31 146.21 130.09 Z M 146.00 130.99 L 145.77 131.94 C 145.58 132.72 146.06 133.50 146.84 133.69 C 147.61 133.88 148.40 133.40 148.59 132.63 L 148.82 131.67 C 149.01 130.90 148.53 130.11 147.75 129.92 C 146.97 129.73 146.19 130.21 146.00 130.99 Z M 145.78 131.94 L 145.53 132.93 C 145.34 133.70 145.81 134.48 146.59 134.68 C 147.36 134.87 148.14 134.39 148.34 133.62 L 148.58 132.63 C 148.77 131.85 148.30 131.07 147.52 130.88 C 146.75 130.69 145.97 131.16 145.78 131.94 Z M 145.54 132.93 L 145.28 133.95 C 145.09 134.72 145.56 135.50 146.33 135.69 C 147.11 135.88 147.89 135.41 148.08 134.64 L 148.33 133.62 C 148.52 132.85 148.05 132.07 147.28 131.88 C 146.51 131.69 145.73 132.16 145.54 132.93 Z M 145.29 133.94 L 145.03 134.98 C 144.84 135.75 145.31 136.53 146.08 136.72 C 146.84 136.91 147.62 136.44 147.81 135.68 L 148.07 134.64 C 148.26 133.87 147.80 133.09 147.03 132.90 C 146.26 132.71 145.48 133.18 145.29 133.94 Z M 145.03 134.98 L 144.84 135.78 C 144.65 136.54 145.11 137.32 145.88 137.51 C 146.64 137.70 147.42 137.23 147.61 136.47 L 147.81 135.67 C 148.00 134.91 147.54 134.13 146.77 133.94 C 146.00 133.75 145.23 134.22 145.03 134.98 Z"
      fill="black"
      fill-rule="nonzero" /><path d="M 126.25 143.67 L 125.27 143.67 C 124.39 143.67 123.68 144.38 123.68 145.25 C 123.68 146.12 124.39 146.83 125.27 146.83 L 126.25 146.83 C 127.12 146.83 127.83 146.12 127.83 145.25 C 127.83 144.38 127.12 143.67 126.25 143.67 Z M 125.27 143.67 L 124.28 143.67 C 123.40 143.67 122.70 144.37 122.70 145.25 C 122.70 146.13 123.40 146.83 124.28 146.83 L 125.27 146.83 C 126.14 146.83 126.85 146.13 126.85 145.25 C 126.85 144.37 126.14 143.67 125.27 143.67 Z M 124.28 143.66 L 123.28 143.66 C 122.40 143.66 121.69 144.37 121.69 145.25 C 121.69 146.13 122.40 146.84 123.28 146.84 L 124.28 146.84 C 125.16 146.84 125.87 146.13 125.87 145.25 C 125.87 144.37 125.16 143.66 124.28 143.66 Z M 123.28 143.66 L 122.26 143.66 C 121.38 143.66 120.67 144.37 120.67 145.25 C 120.67 146.13 121.38 146.84 122.26 146.84 L 123.28 146.84 C 124.16 146.84 124.87 146.13 124.87 145.25 C 124.87 144.37 124.16 143.66 123.28 143.66 Z M 122.26 143.66 L 121.27 143.66 C 120.40 143.66 119.68 144.37 119.68 145.25 C 119.68 146.13 120.40 146.84 121.27 146.84 L 122.26 146.84 C 123.14 146.84 123.85 146.13 123.85 145.25 C 123.85 144.37 123.14 143.66 122.26 143.66 Z M 121.27 143.65 L 120.29 143.66 C 119.41 143.66 118.69 144.38 118.70 145.26 C 118.70 146.14 119.42 146.85 120.30 146.85 L 121.28 146.85 C 122.16 146.85 122.87 146.13 122.87 145.25 C 122.87 144.36 122.15 143.65 121.27 143.65 Z M 120.28 143.65 L 119.28 143.66 C 118.40 143.66 117.68 144.39 117.69 145.28 C 117.70 146.16 118.42 146.88 119.31 146.87 L 120.31 146.86 C 121.20 146.85 121.91 146.12 121.90 145.24 C 121.89 144.35 121.17 143.64 120.28 143.65 Z M 119.27 143.65 L 118.25 143.67 C 117.36 143.69 116.65 144.42 116.67 145.31 C 116.68 146.20 117.42 146.91 118.31 146.89 L 119.33 146.88 C 120.22 146.86 120.93 146.12 120.91 145.23 C 120.89 144.34 120.16 143.63 119.27 143.65 Z M 118.23 143.66 L 117.20 143.69 C 116.30 143.72 115.60 144.47 115.63 145.37 C 115.66 146.26 116.41 146.96 117.30 146.93 L 118.33 146.90 C 119.23 146.87 119.93 146.12 119.90 145.23 C 119.87 144.33 119.12 143.63 118.23 143.66 Z M 117.17 143.68 L 116.12 143.73 C 115.22 143.77 114.52 144.54 114.57 145.44 C 114.61 146.34 115.37 147.04 116.28 147.00 L 117.33 146.95 C 118.23 146.90 118.93 146.14 118.88 145.24 C 118.84 144.34 118.07 143.64 117.17 143.68 Z M 116.10 143.71 L 115.06 143.78 C 114.15 143.83 113.45 144.61 113.50 145.52 C 113.56 146.44 114.34 147.13 115.25 147.08 L 116.30 147.02 C 117.21 146.96 117.90 146.18 117.85 145.27 C 117.80 144.35 117.01 143.66 116.10 143.71 Z M 115.04 143.76 L 114.03 143.82 C 113.11 143.89 112.41 144.68 112.47 145.61 C 112.54 146.53 113.33 147.22 114.25 147.16 L 115.27 147.10 C 116.19 147.03 116.89 146.24 116.82 145.32 C 116.76 144.39 115.97 143.70 115.04 143.76 Z M 114.03 143.81 L 113.07 143.87 C 112.14 143.94 111.43 144.74 111.50 145.68 C 111.56 146.61 112.37 147.31 113.30 147.25 L 114.26 147.18 C 115.19 147.12 115.90 146.31 115.83 145.38 C 115.77 144.44 114.96 143.74 114.03 143.81 Z M 113.07 143.85 L 111.96 143.93 C 111.02 143.99 110.31 144.80 110.37 145.74 C 110.43 146.69 111.24 147.40 112.19 147.34 L 113.30 147.27 C 114.24 147.21 114.95 146.39 114.89 145.45 C 114.83 144.51 114.02 143.79 113.07 143.85 Z M 112.02 143.91 L 110.75 143.95 C 109.80 143.98 109.05 144.77 109.08 145.73 C 109.11 146.68 109.91 147.43 110.86 147.40 L 112.13 147.36 C 113.08 147.33 113.83 146.53 113.80 145.58 C 113.77 144.63 112.97 143.88 112.02 143.91 Z M 111.28 144.00 L 110.83 143.88 C 109.91 143.61 108.95 144.15 108.69 145.07 C 108.43 146.00 108.96 146.95 109.88 147.21 L 110.34 147.34 C 111.26 147.60 112.22 147.07 112.48 146.14 C 112.74 145.22 112.20 144.26 111.28 144.00 Z M 111.32 146.99 L 111.71 146.73 C 112.51 146.20 112.73 145.12 112.19 144.32 C 111.66 143.52 110.58 143.30 109.78 143.84 L 109.39 144.10 C 108.59 144.63 108.38 145.71 108.91 146.51 C 109.44 147.31 110.52 147.52 111.32 146.99 Z M 111.43 146.88 L 112.31 146.50 C 113.19 146.13 113.60 145.10 113.22 144.22 C 112.85 143.34 111.82 142.93 110.94 143.31 L 110.06 143.69 C 109.18 144.07 108.77 145.09 109.15 145.97 C 109.53 146.85 110.55 147.26 111.43 146.88 Z M 112.27 146.51 L 113.47 146.03 C 114.36 145.68 114.79 144.67 114.43 143.78 C 114.07 142.89 113.06 142.46 112.18 142.82 L 110.98 143.30 C 110.09 143.66 109.66 144.67 110.02 145.55 C 110.38 146.44 111.39 146.87 112.27 146.51 Z M 113.49 146.02 L 114.58 145.56 C 115.47 145.20 115.88 144.18 115.51 143.30 C 115.15 142.42 114.13 142.01 113.25 142.37 L 112.16 142.83 C 111.28 143.20 110.86 144.21 111.23 145.09 C 111.60 145.97 112.61 146.39 113.49 146.02 Z M 114.61 145.55 L 115.55 145.14 C 116.42 144.76 116.82 143.74 116.44 142.87 C 116.05 141.99 115.04 141.59 114.16 141.98 L 113.23 142.39 C 112.35 142.77 111.95 143.79 112.34 144.66 C 112.72 145.54 113.74 145.93 114.61 145.55 Z M 115.56 145.13 L 116.50 144.71 C 117.37 144.32 117.75 143.30 117.36 142.43 C 116.97 141.56 115.95 141.17 115.08 141.56 L 114.15 141.99 C 113.28 142.38 112.89 143.40 113.28 144.27 C 113.67 145.13 114.69 145.52 115.56 145.13 Z M 116.50 144.71 L 117.42 144.29 C 118.28 143.90 118.67 142.88 118.28 142.01 C 117.88 141.14 116.86 140.76 115.99 141.15 L 115.08 141.57 C 114.21 141.96 113.83 142.98 114.22 143.85 C 114.62 144.72 115.64 145.10 116.50 144.71 Z M 117.41 144.29 L 118.29 143.90 C 119.16 143.51 119.54 142.49 119.15 141.62 C 118.76 140.75 117.74 140.37 116.88 140.76 L 116.00 141.15 C 115.13 141.54 114.75 142.56 115.14 143.43 C 115.53 144.30 116.55 144.68 117.41 144.29 Z M 118.27 143.90 L 119.24 143.48 C 120.11 143.10 120.51 142.08 120.13 141.21 C 119.75 140.34 118.73 139.95 117.86 140.33 L 116.89 140.75 C 116.02 141.13 115.63 142.15 116.01 143.02 C 116.39 143.89 117.40 144.28 118.27 143.90 Z M 119.22 143.48 L 120.17 143.08 C 121.04 142.71 121.45 141.70 121.08 140.83 C 120.71 139.96 119.70 139.55 118.83 139.92 L 117.88 140.32 C 117.01 140.69 116.60 141.70 116.97 142.57 C 117.34 143.45 118.35 143.85 119.22 143.48 Z M 120.16 143.09 L 121.05 142.72 C 121.93 142.35 122.34 141.35 121.98 140.47 C 121.61 139.60 120.61 139.18 119.73 139.55 L 118.84 139.92 C 117.97 140.28 117.55 141.28 117.91 142.16 C 118.28 143.04 119.28 143.45 120.16 143.09 Z M 121.05 142.71 L 121.91 142.35 C 122.79 141.99 123.20 140.99 122.84 140.11 C 122.48 139.24 121.47 138.82 120.60 139.19 L 119.73 139.55 C 118.86 139.91 118.44 140.91 118.81 141.79 C 119.17 142.66 120.18 143.08 121.05 142.71 Z M 121.92 142.35 L 122.82 141.97 C 123.69 141.60 124.10 140.60 123.73 139.72 C 123.36 138.85 122.35 138.44 121.48 138.81 L 120.59 139.19 C 119.72 139.56 119.31 140.57 119.68 141.44 C 120.05 142.31 121.05 142.72 121.92 142.35 Z M 122.82 141.97 L 123.73 141.58 C 124.60 141.21 125.01 140.20 124.63 139.33 C 124.26 138.46 123.25 138.06 122.38 138.43 L 121.48 138.82 C 120.61 139.19 120.20 140.20 120.57 141.07 C 120.95 141.94 121.95 142.34 122.82 141.97 Z M 123.73 141.58 L 124.65 141.19 C 125.52 140.82 125.93 139.82 125.56 138.94 C 125.20 138.07 124.19 137.67 123.32 138.03 L 122.39 138.43 C 121.52 138.80 121.11 139.80 121.48 140.67 C 121.85 141.54 122.85 141.95 123.73 141.58 Z M 124.64 141.20 L 125.58 140.81 C 126.45 140.45 126.87 139.45 126.51 138.57 C 126.15 137.70 125.15 137.28 124.27 137.64 L 123.33 138.03 C 122.46 138.39 122.04 139.39 122.40 140.26 C 122.76 141.14 123.76 141.56 124.64 141.20 Z M 125.56 140.82 L 126.46 140.46 C 127.34 140.11 127.77 139.11 127.42 138.23 C 127.07 137.35 126.07 136.92 125.19 137.27 L 124.29 137.63 C 123.41 137.98 122.98 138.98 123.33 139.86 C 123.68 140.74 124.68 141.17 125.56 140.82 Z M 126.44 140.47 L 127.37 140.11 C 128.25 139.77 128.69 138.77 128.35 137.89 C 128.01 137.01 127.02 136.57 126.14 136.91 L 125.21 137.27 C 124.33 137.61 123.89 138.60 124.23 139.48 C 124.57 140.37 125.56 140.81 126.44 140.47 Z M 127.36 140.11 L 128.31 139.75 C 129.19 139.42 129.64 138.43 129.31 137.55 C 128.98 136.66 127.99 136.21 127.10 136.55 L 126.15 136.91 C 125.26 137.24 124.82 138.23 125.15 139.11 C 125.48 140.00 126.47 140.45 127.36 140.11 Z M 128.30 139.76 L 129.26 139.40 C 130.15 139.07 130.60 138.09 130.28 137.20 C 129.95 136.31 128.96 135.86 128.08 136.19 L 127.11 136.54 C 126.22 136.87 125.77 137.86 126.10 138.74 C 126.43 139.63 127.41 140.09 128.30 139.76 Z M 129.25 139.41 L 130.18 139.07 C 131.07 138.74 131.53 137.76 131.21 136.87 C 130.88 135.98 129.90 135.52 129.01 135.85 L 128.08 136.18 C 127.19 136.51 126.74 137.49 127.06 138.38 C 127.38 139.27 128.36 139.73 129.25 139.41 Z M 130.18 139.07 L 131.12 138.73 C 132.01 138.41 132.47 137.43 132.15 136.54 C 131.83 135.65 130.85 135.19 129.96 135.51 L 129.02 135.84 C 128.13 136.16 127.67 137.15 127.99 138.04 C 128.31 138.93 129.29 139.39 130.18 139.07 Z M 131.11 138.73 L 132.06 138.40 C 132.95 138.08 133.42 137.10 133.10 136.21 C 132.78 135.32 131.80 134.85 130.91 135.17 L 129.96 135.51 C 129.07 135.82 128.61 136.80 128.92 137.70 C 129.24 138.59 130.22 139.05 131.11 138.73 Z M 132.06 138.40 L 133.01 138.06 C 133.90 137.74 134.37 136.76 134.05 135.87 C 133.73 134.98 132.75 134.51 131.86 134.83 L 130.91 135.17 C 130.02 135.48 129.55 136.46 129.87 137.36 C 130.19 138.25 131.17 138.71 132.06 138.40 Z M 133.01 138.06 L 133.95 137.72 C 134.84 137.41 135.31 136.43 134.99 135.54 C 134.68 134.64 133.70 134.18 132.80 134.50 L 131.86 134.83 C 130.97 135.15 130.50 136.13 130.82 137.02 C 131.14 137.91 132.12 138.38 133.01 138.06 Z M 133.95 137.72 L 134.89 137.39 C 135.78 137.07 136.25 136.09 135.93 135.20 C 135.61 134.31 134.63 133.84 133.74 134.16 L 132.80 134.50 C 131.91 134.81 131.45 135.79 131.76 136.69 C 132.08 137.58 133.06 138.04 133.95 137.72 Z M 134.90 137.39 L 135.84 137.05 C 136.73 136.73 137.19 135.75 136.87 134.86 C 136.55 133.97 135.57 133.50 134.68 133.82 L 133.74 134.16 C 132.85 134.48 132.39 135.46 132.71 136.35 C 133.03 137.24 134.01 137.71 134.90 137.39 Z M 135.85 137.05 L 136.79 136.70 C 137.68 136.38 138.13 135.40 137.81 134.51 C 137.49 133.62 136.50 133.16 135.61 133.48 L 134.67 133.83 C 133.78 134.15 133.33 135.13 133.65 136.02 C 133.97 136.91 134.96 137.37 135.85 137.05 Z M 136.80 136.70 L 137.73 136.35 C 138.61 136.03 139.07 135.04 138.74 134.15 C 138.41 133.27 137.42 132.81 136.54 133.14 L 135.60 133.49 C 134.72 133.82 134.26 134.80 134.59 135.69 C 134.92 136.58 135.91 137.03 136.80 136.70 Z M 137.73 136.35 L 138.66 136.00 C 139.54 135.67 139.99 134.68 139.66 133.80 C 139.33 132.91 138.34 132.46 137.45 132.80 L 136.53 133.14 C 135.64 133.48 135.19 134.47 135.53 135.35 C 135.86 136.24 136.85 136.69 137.73 136.35 Z M 138.66 136.00 L 139.59 135.65 C 140.48 135.32 140.92 134.33 140.59 133.44 C 140.25 132.56 139.26 132.11 138.38 132.45 L 137.45 132.80 C 136.56 133.13 136.12 134.12 136.45 135.01 C 136.79 135.89 137.78 136.34 138.66 136.00 Z M 139.59 135.65 L 140.53 135.30 C 141.42 134.96 141.87 133.97 141.53 133.09 C 141.20 132.20 140.21 131.76 139.32 132.09 L 138.38 132.44 C 137.49 132.78 137.05 133.77 137.38 134.65 C 137.71 135.54 138.70 135.99 139.59 135.65 Z M 140.53 135.30 L 141.48 134.94 C 142.37 134.61 142.82 133.63 142.49 132.74 C 142.16 131.85 141.17 131.40 140.28 131.73 L 139.33 132.09 C 138.44 132.42 137.99 133.40 138.32 134.29 C 138.65 135.18 139.64 135.63 140.53 135.30 Z M 141.47 134.95 L 142.43 134.60 C 143.32 134.27 143.78 133.29 143.45 132.40 C 143.13 131.51 142.14 131.05 141.25 131.38 L 140.29 131.73 C 139.40 132.05 138.95 133.04 139.27 133.93 C 139.60 134.82 140.58 135.27 141.47 134.95 Z M 142.42 134.60 L 143.38 134.25 C 144.28 133.93 144.74 132.95 144.41 132.06 C 144.09 131.16 143.11 130.70 142.22 131.03 L 141.26 131.37 C 140.36 131.70 139.90 132.68 140.23 133.57 C 140.55 134.46 141.53 134.92 142.42 134.60 Z M 143.38 134.26 L 144.33 133.91 C 145.22 133.59 145.69 132.61 145.36 131.72 C 145.04 130.82 144.06 130.36 143.17 130.68 L 142.22 131.02 C 141.33 131.35 140.86 132.33 141.19 133.22 C 141.51 134.11 142.49 134.58 143.38 134.26 Z M 144.33 133.91 L 145.25 133.58 C 146.15 133.26 146.61 132.27 146.28 131.38 C 145.96 130.49 144.98 130.03 144.08 130.35 L 143.16 130.68 C 142.27 131.01 141.81 131.99 142.13 132.88 C 142.46 133.77 143.44 134.24 144.33 133.91 Z M 145.26 133.58 L 146.21 133.23 C 147.10 132.90 147.56 131.92 147.24 131.02 C 146.91 130.13 145.92 129.68 145.03 130.00 L 144.08 130.35 C 143.19 130.68 142.73 131.67 143.06 132.56 C 143.38 133.45 144.37 133.91 145.26 133.58 Z M 146.22 133.23 L 147.19 132.87 C 148.08 132.53 148.54 131.54 148.21 130.65 C 147.88 129.76 146.89 129.31 146.00 129.64 L 145.02 130.00 C 144.13 130.34 143.68 131.33 144.01 132.22 C 144.34 133.11 145.33 133.56 146.22 133.23 Z M 147.19 132.87 L 148.12 132.52 C 149.01 132.19 149.46 131.20 149.13 130.31 C 148.80 129.42 147.81 128.97 146.92 129.30 L 146.00 129.64 C 145.11 129.97 144.65 130.96 144.98 131.85 C 145.31 132.74 146.30 133.20 147.19 132.87 Z M 148.11 132.53 L 149.01 132.20 C 149.90 131.88 150.36 130.89 150.03 129.99 C 149.71 129.10 148.72 128.64 147.83 128.97 L 146.93 129.29 C 146.04 129.62 145.58 130.61 145.90 131.50 C 146.23 132.39 147.22 132.85 148.11 132.53 Z M 148.99 132.21 L 149.93 131.88 C 150.82 131.57 151.30 130.58 150.98 129.69 C 150.67 128.79 149.69 128.32 148.79 128.63 L 147.85 128.96 C 146.95 129.27 146.48 130.26 146.79 131.15 C 147.11 132.05 148.09 132.52 148.99 132.21 Z M 149.91 131.89 L 150.86 131.56 C 151.77 131.26 152.25 130.28 151.95 129.38 C 151.64 128.48 150.67 128.00 149.77 128.30 L 148.81 128.62 C 147.91 128.93 147.42 129.90 147.72 130.80 C 148.03 131.71 149.00 132.19 149.91 131.89 Z M 150.86 131.57 L 151.80 131.26 C 152.70 130.96 153.19 129.98 152.89 129.08 C 152.59 128.18 151.62 127.69 150.72 127.98 L 149.77 128.30 C 148.87 128.59 148.38 129.57 148.68 130.47 C 148.98 131.38 149.95 131.87 150.86 131.57 Z M 151.80 131.26 L 152.72 130.95 C 153.62 130.65 154.11 129.68 153.81 128.77 C 153.51 127.87 152.53 127.38 151.63 127.68 L 150.71 127.98 C 149.81 128.28 149.32 129.26 149.62 130.16 C 149.92 131.07 150.90 131.56 151.80 131.26 Z M 152.73 130.95 L 153.61 130.65 C 154.51 130.35 155.00 129.37 154.69 128.47 C 154.39 127.56 153.41 127.08 152.51 127.38 L 151.62 127.68 C 150.72 127.99 150.24 128.97 150.54 129.87 C 150.84 130.77 151.82 131.26 152.73 130.95 Z M 153.61 130.65 L 154.53 130.34 C 155.44 130.03 155.92 129.05 155.61 128.15 C 155.30 127.25 154.32 126.77 153.42 127.07 L 152.50 127.38 C 151.60 127.69 151.12 128.67 151.42 129.57 C 151.73 130.48 152.71 130.96 153.61 130.65 Z M 154.53 130.34 L 155.53 130.00 C 156.43 129.70 156.92 128.72 156.61 127.82 C 156.31 126.91 155.33 126.43 154.42 126.73 L 153.43 127.07 C 152.52 127.38 152.04 128.36 152.34 129.26 C 152.65 130.16 153.63 130.65 154.53 130.34 Z M 155.52 130.01 L 156.49 129.69 C 157.40 129.38 157.89 128.41 157.58 127.50 C 157.28 126.60 156.30 126.11 155.40 126.41 L 154.43 126.73 C 153.53 127.03 153.04 128.01 153.34 128.91 C 153.64 129.82 154.62 130.31 155.52 130.01 Z M 156.48 129.69 L 157.43 129.38 C 158.34 129.08 158.83 128.11 158.54 127.20 C 158.24 126.29 157.26 125.80 156.36 126.09 L 155.41 126.40 C 154.50 126.70 154.00 127.68 154.30 128.58 C 154.60 129.49 155.57 129.99 156.48 129.69 Z M 157.42 129.39 L 158.40 129.08 C 159.31 128.78 159.82 127.81 159.52 126.90 C 159.23 125.99 158.26 125.48 157.35 125.77 L 156.37 126.09 C 155.45 126.38 154.95 127.35 155.24 128.26 C 155.53 129.18 156.51 129.68 157.42 129.39 Z M 158.38 129.08 L 159.36 128.78 C 160.28 128.50 160.79 127.53 160.51 126.61 C 160.23 125.70 159.26 125.18 158.34 125.46 L 157.36 125.76 C 156.45 126.05 155.93 127.02 156.21 127.94 C 156.50 128.85 157.47 129.37 158.38 129.08 Z M 159.34 128.79 L 160.32 128.51 C 161.24 128.24 161.77 127.27 161.50 126.35 C 161.23 125.42 160.26 124.90 159.34 125.17 L 158.36 125.45 C 157.44 125.72 156.91 126.69 157.18 127.61 C 157.45 128.53 158.42 129.06 159.34 128.79 Z M 160.27 128.53 L 161.64 128.17 C 162.57 127.93 163.13 126.97 162.89 126.04 C 162.64 125.10 161.69 124.54 160.75 124.79 L 159.39 125.14 C 158.45 125.39 157.89 126.34 158.13 127.28 C 158.38 128.21 159.33 128.77 160.27 128.53 Z M 161.48 128.22 L 162.39 128.08 C 163.35 127.92 164.01 127.01 163.85 126.05 C 163.69 125.08 162.79 124.43 161.82 124.59 L 160.91 124.73 C 159.95 124.89 159.29 125.80 159.45 126.76 C 159.61 127.73 160.51 128.38 161.48 128.22 Z M 161.05 127.77 L 161.26 127.92 C 162.05 128.51 163.17 128.34 163.75 127.55 C 164.34 126.76 164.17 125.64 163.38 125.06 L 163.16 124.90 C 162.37 124.31 161.26 124.48 160.67 125.27 C 160.09 126.07 160.26 127.18 161.05 127.77 Z M 161.09 125.19 L 160.55 125.71 C 159.83 126.39 159.81 127.52 160.49 128.23 C 161.17 128.95 162.30 128.98 163.02 128.30 L 163.55 127.79 C 164.27 127.10 164.30 125.97 163.62 125.26 C 162.94 124.54 161.80 124.51 161.09 125.19 Z M 160.66 125.61 L 159.67 126.41 C 158.90 127.03 158.78 128.16 159.41 128.93 C 160.03 129.69 161.15 129.81 161.92 129.19 L 162.91 128.39 C 163.68 127.77 163.79 126.64 163.17 125.88 C 162.55 125.11 161.42 124.99 160.66 125.61 Z M 159.60 126.47 L 158.74 127.24 C 158.01 127.90 157.95 129.03 158.61 129.76 C 159.26 130.50 160.39 130.56 161.13 129.90 L 161.99 129.13 C 162.72 128.47 162.79 127.34 162.13 126.61 C 161.47 125.87 160.34 125.81 159.60 126.47 Z M 158.67 127.32 L 157.96 128.03 C 157.27 128.73 157.27 129.86 157.98 130.56 C 158.68 131.25 159.81 131.24 160.50 130.54 L 161.21 129.82 C 161.90 129.12 161.89 127.99 161.19 127.30 C 160.49 126.61 159.36 126.62 158.67 127.32 Z M 157.91 128.09 L 157.23 128.85 C 156.57 129.58 156.63 130.70 157.36 131.36 C 158.09 132.02 159.21 131.96 159.87 131.23 L 160.55 130.48 C 161.21 129.75 161.15 128.62 160.42 127.96 C 159.69 127.31 158.57 127.36 157.91 128.09 Z M 157.19 128.90 L 156.54 129.67 C 155.91 130.42 156.01 131.54 156.76 132.17 C 157.52 132.80 158.64 132.70 159.27 131.95 L 159.91 131.18 C 160.54 130.43 160.44 129.31 159.69 128.68 C 158.94 128.05 157.82 128.15 157.19 128.90 Z M 156.51 129.71 L 155.92 130.47 C 155.31 131.24 155.45 132.35 156.22 132.96 C 156.99 133.56 158.10 133.43 158.70 132.66 L 159.30 131.90 C 159.90 131.13 159.77 130.02 159.00 129.41 C 158.23 128.81 157.12 128.94 156.51 129.71 Z M 155.89 130.52 L 155.33 131.28 C 154.76 132.07 154.93 133.17 155.71 133.74 C 156.50 134.32 157.60 134.15 158.18 133.36 L 158.73 132.61 C 159.31 131.82 159.14 130.72 158.35 130.14 C 157.57 129.57 156.46 129.74 155.89 130.52 Z M 155.31 131.34 L 154.76 132.14 C 154.22 132.94 154.43 134.03 155.23 134.57 C 156.03 135.11 157.12 134.90 157.66 134.10 L 158.21 133.30 C 158.75 132.50 158.54 131.41 157.74 130.87 C 156.94 130.33 155.85 130.54 155.31 131.34 Z M 154.74 132.19 L 154.19 133.08 C 153.67 133.89 153.92 134.97 154.73 135.48 C 155.55 135.99 156.62 135.74 157.13 134.93 L 157.69 134.05 C 158.20 133.23 157.95 132.16 157.14 131.65 C 156.33 131.14 155.25 131.38 154.74 132.19 Z M 154.17 133.12 L 153.64 134.02 C 153.15 134.84 153.43 135.91 154.25 136.39 C 155.07 136.88 156.13 136.61 156.62 135.78 L 157.15 134.88 C 157.64 134.06 157.36 133.00 156.54 132.51 C 155.72 132.03 154.66 132.30 154.17 133.12 Z M 153.63 134.05 L 153.15 134.90 C 152.68 135.72 152.97 136.77 153.80 137.24 C 154.62 137.71 155.67 137.42 156.14 136.60 L 156.62 135.75 C 157.09 134.93 156.81 133.88 155.98 133.41 C 155.15 132.94 154.10 133.23 153.63 134.05 Z M 153.15 134.92 L 152.66 135.81 C 152.20 136.64 152.50 137.68 153.33 138.14 C 154.15 138.59 155.19 138.30 155.65 137.47 L 156.14 136.58 C 156.60 135.75 156.30 134.71 155.48 134.25 C 154.65 133.79 153.61 134.09 153.15 134.92 Z M 152.66 135.83 L 152.16 136.74 C 151.72 137.56 152.02 138.60 152.85 139.05 C 153.67 139.49 154.70 139.19 155.15 138.36 L 155.65 137.45 C 156.10 136.63 155.79 135.60 154.97 135.15 C 154.14 134.70 153.11 135.00 152.66 135.83 Z M 152.17 136.75 L 151.69 137.65 C 151.25 138.48 151.55 139.50 152.38 139.94 C 153.20 140.38 154.22 140.07 154.66 139.25 L 155.15 138.35 C 155.59 137.53 155.28 136.50 154.46 136.06 C 153.63 135.62 152.61 135.93 152.17 136.75 Z M 151.69 137.67 L 151.23 138.54 C 150.79 139.36 151.10 140.38 151.92 140.81 C 152.74 141.25 153.76 140.94 154.19 140.12 L 154.66 139.24 C 155.09 138.42 154.78 137.40 153.96 136.97 C 153.14 136.54 152.13 136.85 151.69 137.67 Z M 151.24 138.56 L 150.72 139.54 C 150.29 140.35 150.61 141.36 151.42 141.78 C 152.23 142.21 153.23 141.90 153.66 141.09 L 154.18 140.10 C 154.61 139.29 154.29 138.29 153.48 137.86 C 152.67 137.43 151.67 137.75 151.24 138.56 Z M 150.74 139.56 L 150.27 140.47 C 149.85 141.27 150.16 142.26 150.96 142.67 C 151.76 143.09 152.75 142.78 153.17 141.98 L 153.64 141.07 C 154.06 140.27 153.75 139.28 152.95 138.86 C 152.14 138.45 151.16 138.76 150.74 139.56 Z M 150.29 140.49 L 149.85 141.35 C 149.44 142.14 149.76 143.11 150.55 143.51 C 151.34 143.91 152.31 143.60 152.71 142.81 L 153.15 141.96 C 153.55 141.16 153.24 140.20 152.45 139.79 C 151.66 139.39 150.69 139.70 150.29 140.49 Z M 149.87 141.37 L 149.46 142.19 C 149.06 142.97 149.38 143.92 150.16 144.31 C 150.94 144.70 151.90 144.39 152.29 143.61 L 152.70 142.79 C 153.09 142.00 152.77 141.05 151.99 140.66 C 151.21 140.27 150.26 140.59 149.87 141.37 Z M 149.47 142.21 L 149.07 143.04 C 148.69 143.81 149.01 144.75 149.79 145.12 C 150.56 145.50 151.49 145.18 151.87 144.41 L 152.27 143.58 C 152.65 142.81 152.33 141.87 151.55 141.50 C 150.78 141.12 149.85 141.44 149.47 142.21 Z M 149.08 143.06 L 148.68 143.90 C 148.31 144.67 148.63 145.59 149.40 145.96 C 150.17 146.32 151.09 146.00 151.46 145.23 L 151.86 144.39 C 152.23 143.62 151.90 142.70 151.14 142.33 C 150.37 141.96 149.45 142.29 149.08 143.06 Z M 148.69 143.91 L 148.27 144.80 C 147.91 145.56 148.23 146.47 148.99 146.83 C 149.75 147.19 150.66 146.87 151.02 146.11 L 151.44 145.22 C 151.80 144.46 151.48 143.55 150.72 143.19 C 149.96 142.83 149.05 143.15 148.69 143.91 Z M 148.28 144.80 L 147.82 145.76 C 147.47 146.51 147.78 147.41 148.53 147.77 C 149.28 148.13 150.18 147.81 150.54 147.06 L 151.00 146.10 C 151.36 145.35 151.04 144.45 150.29 144.09 C 149.54 143.73 148.64 144.05 148.28 144.80 Z M 147.84 145.76 L 147.40 146.67 C 147.04 147.42 147.35 148.31 148.09 148.67 C 148.83 149.03 149.72 148.72 150.08 147.98 L 150.53 147.06 C 150.88 146.32 150.58 145.43 149.83 145.07 C 149.09 144.71 148.20 145.02 147.84 145.76 Z M 147.41 146.67 L 147.00 147.50 C 146.64 148.24 146.95 149.13 147.68 149.49 C 148.42 149.85 149.30 149.54 149.66 148.81 L 150.07 147.98 C 150.43 147.24 150.13 146.36 149.39 146.00 C 148.66 145.64 147.77 145.94 147.41 146.67 Z M 147.01 147.50 L 146.58 148.38 C 146.22 149.11 146.52 149.99 147.25 150.35 C 147.98 150.71 148.86 150.41 149.22 149.69 L 149.65 148.81 C 150.01 148.08 149.71 147.20 148.99 146.84 C 148.26 146.48 147.38 146.78 147.01 147.50 Z M 146.59 148.38 L 146.14 149.30 C 145.78 150.02 146.07 150.90 146.79 151.26 C 147.52 151.62 148.39 151.32 148.75 150.60 L 149.21 149.69 C 149.57 148.96 149.27 148.08 148.55 147.73 C 147.83 147.37 146.95 147.66 146.59 148.38 Z M 146.15 149.30 L 145.68 150.24 C 145.32 150.96 145.61 151.83 146.33 152.19 C 147.05 152.55 147.92 152.25 148.28 151.54 L 148.75 150.60 C 149.10 149.88 148.81 149.01 148.09 148.65 C 147.38 148.29 146.50 148.58 146.15 149.30 Z M 145.69 150.24 L 145.21 151.19 C 144.85 151.91 145.14 152.77 145.86 153.13 C 146.57 153.49 147.44 153.20 147.79 152.49 L 148.27 151.53 C 148.62 150.82 148.34 149.95 147.62 149.60 C 146.91 149.24 146.04 149.53 145.69 150.24 Z M 145.21 151.20 L 145.07 151.49 C 144.72 152.20 145.00 153.06 145.71 153.42 C 146.42 153.77 147.29 153.48 147.64 152.77 L 147.79 152.48 C 148.14 151.77 147.85 150.91 147.14 150.55 C 146.43 150.20 145.57 150.49 145.21 151.20 Z"
      fill="black"
      fill-rule="nonzero" /><path d="M 136.30 136.17 L 136.33 137.18 C 136.36 137.99 137.04 138.62 137.84 138.59 C 138.65 138.56 139.28 137.89 139.25 137.08 L 139.22 136.07 C 139.19 135.27 138.51 134.63 137.71 134.66 C 136.90 134.69 136.27 135.37 136.30 136.17 Z M 136.33 137.19 L 136.38 138.20 C 136.41 139.00 137.09 139.63 137.90 139.59 C 138.71 139.56 139.33 138.88 139.29 138.07 L 139.25 137.07 C 139.22 136.26 138.53 135.64 137.73 135.67 C 136.92 135.71 136.30 136.39 136.33 137.19 Z M 136.38 138.22 L 136.44 139.22 C 136.49 140.02 137.18 140.64 137.99 140.59 C 138.79 140.54 139.40 139.85 139.35 139.04 L 139.29 138.05 C 139.24 137.24 138.55 136.63 137.75 136.68 C 136.94 136.73 136.33 137.42 136.38 138.22 Z M 136.44 139.26 L 136.53 140.24 C 136.60 141.04 137.31 141.64 138.11 141.57 C 138.92 141.50 139.51 140.79 139.44 139.98 L 139.35 139.00 C 139.28 138.20 138.57 137.60 137.77 137.68 C 136.97 137.75 136.37 138.46 136.44 139.26 Z M 136.53 140.29 L 136.65 141.25 C 136.75 142.05 137.48 142.62 138.28 142.53 C 139.08 142.43 139.65 141.70 139.55 140.90 L 139.44 139.94 C 139.34 139.13 138.61 138.56 137.81 138.66 C 137.01 138.76 136.44 139.49 136.53 140.29 Z M 136.65 141.28 L 136.79 142.25 C 136.91 143.05 137.65 143.61 138.45 143.49 C 139.25 143.38 139.81 142.64 139.69 141.83 L 139.55 140.87 C 139.44 140.07 138.69 139.51 137.89 139.62 C 137.09 139.74 136.54 140.48 136.65 141.28 Z M 136.79 142.26 L 136.94 143.26 C 137.06 144.06 137.81 144.61 138.61 144.49 C 139.41 144.37 139.97 143.62 139.84 142.82 L 139.69 141.82 C 139.57 141.02 138.82 140.47 138.02 140.59 C 137.22 140.71 136.67 141.46 136.79 142.26 Z M 136.94 143.25 L 137.09 144.27 C 137.20 145.07 137.95 145.63 138.75 145.51 C 139.56 145.40 140.11 144.65 140.00 143.84 L 139.85 142.83 C 139.73 142.02 138.98 141.47 138.18 141.58 C 137.38 141.70 136.82 142.45 136.94 143.25 Z M 137.09 144.25 L 137.20 145.10 C 137.30 145.90 138.04 146.47 138.85 146.36 C 139.65 146.26 140.22 145.52 140.11 144.72 L 140.00 143.86 C 139.89 143.06 139.15 142.50 138.35 142.60 C 137.54 142.71 136.98 143.45 137.09 144.25 Z M 137.20 145.08 L 137.31 145.99 C 137.40 146.79 138.12 147.36 138.93 147.27 C 139.73 147.18 140.30 146.45 140.21 145.65 L 140.11 144.74 C 140.01 143.94 139.29 143.36 138.49 143.46 C 137.68 143.55 137.11 144.27 137.20 145.08 Z M 137.31 145.96 L 137.41 146.94 C 137.49 147.74 138.20 148.32 139.00 148.25 C 139.80 148.17 140.38 147.46 140.30 146.66 L 140.21 145.68 C 140.13 144.88 139.42 144.29 138.62 144.37 C 137.82 144.45 137.23 145.16 137.31 145.96 Z M 137.41 146.91 L 137.50 147.98 C 137.56 148.78 138.26 149.37 139.05 149.31 C 139.85 149.25 140.45 148.55 140.38 147.75 L 140.30 146.68 C 140.23 145.89 139.54 145.29 138.74 145.36 C 137.94 145.42 137.35 146.12 137.41 146.91 Z M 137.50 147.96 L 137.57 149.13 C 137.62 149.92 138.31 150.53 139.10 150.48 C 139.89 150.43 140.50 149.75 140.45 148.95 L 140.38 147.78 C 140.33 146.99 139.65 146.38 138.85 146.43 C 138.06 146.48 137.45 147.16 137.50 147.96 Z M 137.58 149.11 L 137.62 150.01 C 137.66 150.80 138.33 151.41 139.12 151.37 C 139.91 151.34 140.53 150.66 140.49 149.87 L 140.45 148.97 C 140.41 148.18 139.74 147.57 138.94 147.61 C 138.15 147.64 137.54 148.32 137.58 149.11 Z M 137.62 149.99 L 137.66 150.92 C 137.69 151.72 138.35 152.33 139.14 152.30 C 139.93 152.27 140.55 151.61 140.52 150.82 L 140.49 149.88 C 140.46 149.09 139.79 148.47 139.00 148.50 C 138.21 148.53 137.59 149.20 137.62 149.99 Z M 137.66 150.91 L 137.69 151.89 C 137.71 152.68 138.37 153.30 139.16 153.28 C 139.95 153.25 140.58 152.59 140.55 151.80 L 140.52 150.83 C 140.50 150.04 139.84 149.41 139.05 149.44 C 138.25 149.46 137.63 150.12 137.66 150.91 Z M 137.69 151.88 L 137.71 152.89 C 137.73 153.68 138.39 154.31 139.18 154.29 C 139.97 154.27 140.60 153.61 140.58 152.82 L 140.55 151.81 C 140.53 151.02 139.87 150.40 139.08 150.41 C 138.29 150.43 137.67 151.09 137.69 151.88 Z M 137.71 152.89 L 137.74 153.92 C 137.75 154.71 138.41 155.34 139.20 155.32 C 139.99 155.31 140.61 154.65 140.60 153.86 L 140.57 152.83 C 140.56 152.04 139.90 151.41 139.11 151.43 C 138.32 151.44 137.70 152.10 137.71 152.89 Z M 137.74 153.92 L 137.76 154.98 C 137.77 155.76 138.42 156.39 139.21 156.38 C 140.00 156.36 140.63 155.71 140.61 154.92 L 140.59 153.87 C 140.58 153.08 139.93 152.45 139.14 152.46 C 138.35 152.48 137.72 153.13 137.74 153.92 Z M 137.76 154.97 L 137.78 156.04 C 137.79 156.83 138.44 157.46 139.23 157.44 C 140.02 157.43 140.64 156.78 140.63 155.99 L 140.61 154.92 C 140.60 154.14 139.95 153.51 139.16 153.52 C 138.37 153.54 137.75 154.19 137.76 154.97 Z M 137.78 156.04 L 137.79 156.52 C 137.80 157.31 138.45 157.93 139.24 157.92 C 140.02 157.91 140.65 157.26 140.64 156.47 L 140.63 155.99 C 140.62 155.20 139.97 154.58 139.18 154.59 C 138.39 154.60 137.77 155.25 137.78 156.04 Z"
      fill="black"
      fill-rule="nonzero" /><path d="M 119.98 166.79 L 119.00 166.48 C 118.18 166.21 117.31 166.66 117.04 167.47 C 116.78 168.29 117.23 169.16 118.04 169.43 L 119.02 169.74 C 119.84 170.01 120.71 169.56 120.98 168.75 C 121.24 167.93 120.79 167.06 119.98 166.79 Z M 119.00 166.46 L 118.02 166.15 C 117.20 165.89 116.32 166.34 116.06 167.16 C 115.80 167.98 116.25 168.86 117.07 169.13 L 118.04 169.44 C 118.87 169.70 119.75 169.25 120.01 168.43 C 120.27 167.61 119.82 166.73 119.00 166.46 Z M 118.02 166.14 L 117.06 165.84 C 116.23 165.58 115.34 166.04 115.08 166.87 C 114.82 167.70 115.29 168.58 116.11 168.84 L 117.08 169.14 C 117.90 169.40 118.79 168.94 119.05 168.11 C 119.31 167.28 118.85 166.40 118.02 166.14 Z M 117.04 165.82 L 116.10 165.54 C 115.27 165.28 114.38 165.76 114.13 166.59 C 113.87 167.43 114.35 168.31 115.18 168.57 L 116.13 168.85 C 116.96 169.11 117.85 168.63 118.10 167.80 C 118.35 166.96 117.88 166.08 117.04 165.82 Z M 116.08 165.52 L 115.16 165.25 C 114.31 165.01 113.43 165.50 113.19 166.34 C 112.94 167.19 113.43 168.07 114.28 168.32 L 115.20 168.58 C 116.05 168.83 116.93 168.34 117.18 167.49 C 117.42 166.65 116.93 165.76 116.08 165.52 Z M 115.14 165.23 L 113.75 164.85 C 112.89 164.62 112.00 165.12 111.77 165.98 C 111.54 166.84 112.04 167.73 112.90 167.96 L 114.29 168.34 C 115.15 168.58 116.04 168.07 116.28 167.21 C 116.51 166.35 116.00 165.46 115.14 165.23 Z M 113.82 164.84 L 112.87 164.54 C 112.00 164.27 111.08 164.76 110.81 165.62 C 110.54 166.49 111.03 167.41 111.89 167.68 L 112.84 167.97 C 113.70 168.24 114.62 167.76 114.89 166.90 C 115.16 166.03 114.68 165.11 113.82 164.84 Z M 113.71 165.11 L 113.56 164.90 C 113.01 164.17 111.96 164.02 111.22 164.58 C 110.49 165.13 110.34 166.18 110.89 166.91 L 111.05 167.12 C 111.60 167.85 112.65 168.00 113.39 167.44 C 114.12 166.89 114.27 165.84 113.71 165.11 Z M 112.51 167.57 L 113.01 167.48 C 113.93 167.33 114.55 166.46 114.39 165.54 C 114.24 164.63 113.37 164.01 112.45 164.16 L 111.95 164.25 C 111.03 164.40 110.41 165.27 110.57 166.19 C 110.72 167.11 111.59 167.72 112.51 167.57 Z M 112.83 167.50 L 113.75 167.45 C 114.68 167.39 115.38 166.60 115.33 165.67 C 115.27 164.74 114.48 164.04 113.55 164.09 L 112.63 164.14 C 111.71 164.20 111.00 164.99 111.05 165.92 C 111.11 166.85 111.90 167.56 112.83 167.50 Z M 113.71 167.45 L 114.89 167.41 C 115.82 167.38 116.54 166.60 116.51 165.67 C 116.48 164.74 115.70 164.02 114.77 164.05 L 113.59 164.09 C 112.66 164.12 111.94 164.90 111.97 165.83 C 112.00 166.76 112.78 167.48 113.71 167.45 Z M 114.89 167.41 L 116.19 167.36 C 117.11 167.33 117.84 166.55 117.81 165.62 C 117.78 164.70 117.00 163.97 116.07 164.00 L 114.77 164.05 C 113.84 164.08 113.12 164.86 113.15 165.79 C 113.18 166.72 113.96 167.44 114.89 167.41 Z M 116.21 167.36 L 117.39 167.30 C 118.32 167.25 119.03 166.46 118.98 165.54 C 118.94 164.61 118.15 163.90 117.22 163.95 L 116.04 164.01 C 115.11 164.05 114.40 164.84 114.45 165.77 C 114.50 166.70 115.29 167.41 116.21 167.36 Z M 117.43 167.29 L 118.51 167.21 C 119.43 167.14 120.12 166.34 120.05 165.42 C 119.99 164.50 119.18 163.81 118.26 163.88 L 117.19 163.96 C 116.26 164.02 115.57 164.82 115.64 165.74 C 115.71 166.67 116.51 167.36 117.43 167.29 Z M 118.54 167.20 L 119.55 167.11 C 120.47 167.02 121.14 166.21 121.06 165.30 C 120.97 164.38 120.16 163.71 119.25 163.79 L 118.23 163.89 C 117.32 163.97 116.64 164.78 116.73 165.70 C 116.81 166.61 117.62 167.28 118.54 167.20 Z M 119.58 167.10 L 120.52 166.99 C 121.43 166.89 122.09 166.08 121.99 165.17 C 121.89 164.26 121.07 163.60 120.16 163.70 L 119.22 163.80 C 118.31 163.90 117.65 164.72 117.75 165.63 C 117.85 166.54 118.67 167.20 119.58 167.10 Z M 120.55 166.98 L 121.42 166.87 C 122.32 166.76 122.96 165.94 122.85 165.03 C 122.73 164.13 121.91 163.49 121.01 163.60 L 120.14 163.71 C 119.24 163.83 118.60 164.65 118.71 165.55 C 118.82 166.45 119.64 167.09 120.55 166.98 Z M 121.44 166.86 L 122.51 166.71 C 123.41 166.58 124.03 165.76 123.91 164.86 C 123.78 163.97 122.95 163.34 122.06 163.47 L 120.98 163.62 C 120.09 163.74 119.47 164.57 119.59 165.47 C 119.72 166.36 120.54 166.99 121.44 166.86 Z M 122.54 166.69 L 123.53 166.54 C 124.42 166.40 125.02 165.57 124.88 164.68 C 124.75 163.79 123.91 163.19 123.03 163.33 L 122.03 163.48 C 121.15 163.62 120.54 164.45 120.68 165.34 C 120.82 166.23 121.65 166.83 122.54 166.69 Z M 123.55 166.52 L 124.47 166.37 C 125.35 166.22 125.94 165.39 125.79 164.51 C 125.64 163.63 124.81 163.04 123.93 163.19 L 123.01 163.34 C 122.13 163.49 121.54 164.32 121.69 165.20 C 121.84 166.08 122.67 166.67 123.55 166.52 Z M 124.48 166.35 L 125.41 166.19 C 126.28 166.04 126.87 165.21 126.71 164.34 C 126.56 163.47 125.73 162.89 124.86 163.04 L 123.93 163.20 C 123.06 163.35 122.47 164.18 122.62 165.05 C 122.78 165.92 123.60 166.51 124.48 166.35 Z M 125.41 166.18 L 126.39 166.01 C 127.25 165.86 127.83 165.03 127.68 164.17 C 127.53 163.30 126.70 162.72 125.84 162.88 L 124.86 163.05 C 124.00 163.20 123.42 164.02 123.57 164.89 C 123.72 165.75 124.55 166.33 125.41 166.18 Z M 126.39 166.00 L 127.38 165.82 C 128.24 165.67 128.81 164.85 128.66 163.99 C 128.50 163.13 127.68 162.55 126.82 162.71 L 125.83 162.89 C 124.97 163.04 124.40 163.86 124.55 164.72 C 124.71 165.58 125.53 166.15 126.39 166.00 Z M 127.39 165.81 L 128.37 165.63 C 129.22 165.47 129.78 164.65 129.62 163.80 C 129.47 162.94 128.65 162.38 127.79 162.54 L 126.81 162.72 C 125.96 162.88 125.40 163.70 125.55 164.55 C 125.71 165.41 126.53 165.97 127.39 165.81 Z M 128.38 165.61 L 129.33 165.43 C 130.18 165.27 130.73 164.45 130.57 163.60 C 130.40 162.75 129.59 162.20 128.74 162.37 L 127.78 162.55 C 126.94 162.71 126.38 163.53 126.55 164.38 C 126.71 165.23 127.53 165.78 128.38 165.61 Z M 129.34 165.42 L 130.32 165.22 C 131.16 165.05 131.71 164.24 131.54 163.40 C 131.37 162.56 130.56 162.01 129.72 162.18 L 128.73 162.38 C 127.89 162.55 127.35 163.36 127.52 164.20 C 127.69 165.04 128.50 165.58 129.34 165.42 Z M 130.33 165.21 L 131.34 165.00 C 132.18 164.83 132.71 164.02 132.54 163.18 C 132.37 162.35 131.56 161.82 130.73 161.99 L 129.71 162.19 C 128.88 162.37 128.34 163.18 128.51 164.01 C 128.68 164.84 129.50 165.38 130.33 165.21 Z M 131.35 164.99 L 132.33 164.78 C 133.16 164.61 133.69 163.80 133.51 162.97 C 133.34 162.15 132.53 161.62 131.71 161.79 L 130.72 162.00 C 129.90 162.17 129.37 162.98 129.54 163.81 C 129.71 164.63 130.52 165.16 131.35 164.99 Z M 132.33 164.77 L 133.33 164.56 C 134.15 164.39 134.67 163.58 134.50 162.76 C 134.32 161.94 133.52 161.42 132.70 161.59 L 131.71 161.80 C 130.89 161.98 130.36 162.78 130.54 163.60 C 130.71 164.42 131.52 164.94 132.33 164.77 Z M 133.33 164.55 L 134.31 164.34 C 135.12 164.17 135.64 163.36 135.46 162.55 C 135.29 161.74 134.49 161.22 133.67 161.39 L 132.70 161.60 C 131.88 161.78 131.37 162.58 131.54 163.39 C 131.71 164.20 132.51 164.72 133.33 164.55 Z M 134.31 164.33 L 135.24 164.13 C 136.05 163.95 136.56 163.16 136.39 162.35 C 136.21 161.54 135.42 161.03 134.61 161.20 L 133.67 161.40 C 132.87 161.58 132.35 162.37 132.53 163.18 C 132.70 163.99 133.50 164.50 134.31 164.33 Z M 135.24 164.12 L 136.14 163.92 C 136.94 163.75 137.45 162.95 137.27 162.15 C 137.09 161.35 136.30 160.84 135.50 161.02 L 134.60 161.21 C 133.80 161.39 133.29 162.18 133.47 162.98 C 133.65 163.79 134.44 164.29 135.24 164.12 Z M 136.15 163.91 L 137.09 163.70 C 137.88 163.51 138.38 162.72 138.20 161.93 C 138.02 161.13 137.22 160.63 136.43 160.81 L 135.49 161.03 C 134.69 161.21 134.20 162.00 134.38 162.80 C 134.56 163.59 135.35 164.09 136.15 163.91 Z M 137.10 163.68 L 138.15 163.43 C 138.94 163.24 139.42 162.44 139.23 161.66 C 139.04 160.87 138.25 160.38 137.46 160.57 L 136.41 160.83 C 135.62 161.02 135.14 161.81 135.33 162.60 C 135.52 163.39 136.31 163.87 137.10 163.68 Z M 138.16 163.42 L 139.13 163.17 C 139.91 162.97 140.38 162.18 140.18 161.40 C 139.99 160.61 139.19 160.14 138.41 160.34 L 137.44 160.58 C 136.66 160.78 136.19 161.58 136.39 162.36 C 136.59 163.14 137.38 163.62 138.16 163.42 Z M 139.14 163.17 L 140.06 162.92 C 140.83 162.72 141.30 161.92 141.09 161.14 C 140.89 160.37 140.09 159.90 139.31 160.11 L 138.40 160.35 C 137.62 160.55 137.15 161.35 137.36 162.13 C 137.56 162.91 138.36 163.37 139.14 163.17 Z M 140.07 162.92 L 141.04 162.65 C 141.81 162.44 142.27 161.64 142.06 160.87 C 141.85 160.10 141.05 159.64 140.28 159.85 L 139.30 160.11 C 138.53 160.32 138.07 161.12 138.28 161.90 C 138.49 162.67 139.29 163.13 140.07 162.92 Z M 141.05 162.65 L 142.05 162.37 C 142.82 162.15 143.27 161.35 143.06 160.58 C 142.84 159.81 142.04 159.36 141.27 159.58 L 140.27 159.86 C 139.50 160.07 139.05 160.87 139.26 161.64 C 139.48 162.41 140.28 162.86 141.05 162.65 Z M 142.06 162.36 L 143.07 162.07 C 143.84 161.85 144.28 161.05 144.06 160.28 C 143.84 159.51 143.04 159.07 142.27 159.29 L 141.26 159.58 C 140.49 159.80 140.05 160.60 140.27 161.37 C 140.49 162.14 141.29 162.58 142.06 162.36 Z M 143.08 162.06 L 144.08 161.77 C 144.85 161.54 145.28 160.73 145.05 159.97 C 144.83 159.21 144.02 158.77 143.26 159.00 L 142.26 159.30 C 141.49 159.52 141.06 160.33 141.29 161.09 C 141.51 161.86 142.32 162.29 143.08 162.06 Z M 144.10 161.77 L 145.09 161.46 C 145.85 161.23 146.28 160.41 146.05 159.65 C 145.81 158.89 145.00 158.46 144.24 158.69 L 143.24 159.00 C 142.48 159.23 142.05 160.04 142.29 160.81 C 142.52 161.57 143.33 162.00 144.10 161.77 Z M 145.11 161.47 L 146.07 161.16 C 146.84 160.92 147.26 160.10 147.02 159.33 C 146.77 158.56 145.95 158.13 145.18 158.38 L 144.22 158.68 C 143.45 158.93 143.03 159.75 143.27 160.52 C 143.52 161.29 144.34 161.71 145.11 161.47 Z M 146.08 161.17 L 147.02 160.86 C 147.79 160.61 148.22 159.78 147.97 159.01 C 147.71 158.24 146.88 157.81 146.11 158.06 L 145.17 158.37 C 144.40 158.62 143.97 159.45 144.23 160.23 C 144.48 161.00 145.31 161.42 146.08 161.17 Z M 147.03 160.87 L 147.96 160.57 C 148.74 160.31 149.16 159.47 148.90 158.69 C 148.64 157.91 147.80 157.49 147.03 157.75 L 146.10 158.06 C 145.32 158.31 144.90 159.15 145.16 159.93 C 145.41 160.71 146.25 161.13 147.03 160.87 Z M 147.96 160.58 L 148.81 160.29 C 149.60 160.03 150.02 159.19 149.76 158.40 C 149.50 157.62 148.65 157.20 147.87 157.46 L 147.02 157.74 C 146.24 158.00 145.81 158.85 146.07 159.63 C 146.33 160.41 147.18 160.84 147.96 160.58 Z"
      fill="black"
      fill-rule="nonzero" /><path d="M 124.09 143.98 L 123.00 144.01 C 122.15 144.03 121.48 144.74 121.50 145.59 C 121.52 146.44 122.23 147.11 123.08 147.08 L 124.17 147.05 C 125.02 147.03 125.69 146.32 125.67 145.47 C 125.65 144.62 124.94 143.95 124.09 143.98 Z M 122.96 143.98 L 121.89 144.03 C 121.03 144.08 120.36 144.81 120.41 145.68 C 120.45 146.54 121.18 147.21 122.05 147.16 L 123.12 147.11 C 123.98 147.07 124.65 146.33 124.60 145.47 C 124.56 144.60 123.82 143.94 122.96 143.98 Z M 121.81 144.01 L 120.80 144.11 C 119.92 144.20 119.28 144.98 119.37 145.86 C 119.45 146.73 120.23 147.37 121.11 147.28 L 122.13 147.18 C 123.00 147.10 123.64 146.32 123.56 145.44 C 123.47 144.56 122.69 143.92 121.81 144.01 Z M 120.66 144.10 L 119.72 144.28 C 118.84 144.44 118.26 145.28 118.42 146.16 C 118.58 147.04 119.43 147.63 120.31 147.46 L 121.25 147.29 C 122.13 147.13 122.71 146.29 122.55 145.41 C 122.39 144.53 121.54 143.94 120.66 144.10 Z M 119.51 144.30 L 118.68 144.57 C 117.81 144.84 117.33 145.77 117.61 146.64 C 117.88 147.51 118.81 147.98 119.68 147.71 L 120.52 147.44 C 121.38 147.16 121.86 146.24 121.58 145.37 C 121.31 144.50 120.38 144.02 119.51 144.30 Z M 118.36 144.68 L 117.50 145.16 C 116.70 145.62 116.42 146.63 116.87 147.44 C 117.32 148.24 118.34 148.53 119.14 148.07 L 120.00 147.59 C 120.80 147.14 121.08 146.12 120.63 145.32 C 120.18 144.51 119.16 144.23 118.36 144.68 Z M 117.18 145.38 L 116.47 146.04 C 115.78 146.68 115.74 147.74 116.37 148.42 C 117.01 149.11 118.07 149.15 118.75 148.52 L 119.47 147.85 C 120.15 147.22 120.19 146.16 119.56 145.47 C 118.93 144.79 117.86 144.75 117.18 145.38 Z M 116.25 146.27 L 115.66 147.06 C 115.10 147.81 115.26 148.87 116.01 149.43 C 116.77 149.99 117.83 149.83 118.39 149.08 L 118.97 148.29 C 119.53 147.54 119.37 146.48 118.62 145.92 C 117.87 145.36 116.81 145.51 116.25 146.27 Z M 115.54 147.22 L 115.04 148.09 C 114.57 148.91 114.85 149.96 115.67 150.43 C 116.49 150.90 117.54 150.62 118.01 149.80 L 118.51 148.92 C 118.98 148.10 118.70 147.05 117.88 146.58 C 117.06 146.11 116.01 146.40 115.54 147.22 Z M 114.98 148.18 L 114.56 149.03 C 114.13 149.88 114.47 150.91 115.32 151.34 C 116.18 151.76 117.21 151.42 117.64 150.57 L 118.06 149.72 C 118.49 148.87 118.14 147.83 117.29 147.41 C 116.44 146.98 115.41 147.32 114.98 148.18 Z M 114.52 149.08 L 114.13 149.94 C 113.73 150.81 114.11 151.84 114.98 152.24 C 115.85 152.63 116.87 152.25 117.27 151.38 L 117.67 150.52 C 118.07 149.65 117.68 148.62 116.82 148.23 C 115.95 147.83 114.92 148.21 114.52 149.08 Z M 114.10 149.99 L 113.72 150.90 C 113.35 151.79 113.76 152.81 114.65 153.18 C 115.53 153.55 116.55 153.13 116.92 152.24 L 117.30 151.33 C 117.67 150.45 117.26 149.43 116.37 149.06 C 115.49 148.69 114.47 149.11 114.10 149.99 Z M 113.69 150.95 L 113.32 151.92 C 112.98 152.82 113.43 153.83 114.33 154.17 C 115.23 154.51 116.23 154.06 116.58 153.16 L 116.95 152.20 C 117.29 151.30 116.84 150.29 115.94 149.94 C 115.04 149.60 114.03 150.05 113.69 150.95 Z M 113.30 151.96 L 112.94 152.98 C 112.62 153.89 113.10 154.89 114.01 155.21 C 114.93 155.53 115.93 155.05 116.25 154.14 L 116.60 153.12 C 116.92 152.21 116.44 151.21 115.53 150.89 C 114.61 150.57 113.61 151.05 113.30 151.96 Z M 112.92 153.02 L 112.61 153.98 C 112.31 154.90 112.82 155.89 113.74 156.19 C 114.66 156.49 115.66 155.98 115.95 155.06 L 116.26 154.10 C 116.56 153.18 116.06 152.19 115.13 151.89 C 114.21 151.59 113.22 152.10 112.92 153.02 Z M 112.60 154.01 L 112.30 154.99 C 112.01 155.92 112.54 156.91 113.47 157.19 C 114.40 157.48 115.38 156.95 115.67 156.02 L 115.97 155.03 C 116.25 154.10 115.73 153.12 114.80 152.83 C 113.86 152.55 112.88 153.07 112.60 154.01 Z M 112.28 155.02 L 112.00 156.00 C 111.73 156.94 112.27 157.92 113.20 158.19 C 114.14 158.47 115.12 157.92 115.39 156.99 L 115.68 156.00 C 115.95 155.06 115.41 154.08 114.47 153.81 C 113.53 153.54 112.55 154.08 112.28 155.02 Z M 111.99 156.02 L 111.72 156.99 C 111.46 157.93 112.01 158.91 112.95 159.17 C 113.90 159.43 114.88 158.88 115.14 157.93 L 115.40 156.97 C 115.67 156.02 115.11 155.05 114.17 154.79 C 113.23 154.53 112.25 155.08 111.99 156.02 Z M 111.71 157.00 L 111.47 157.91 C 111.21 158.86 111.78 159.84 112.73 160.09 C 113.68 160.34 114.65 159.78 114.90 158.83 L 115.15 157.92 C 115.40 156.97 114.84 155.99 113.89 155.74 C 112.94 155.49 111.96 156.05 111.71 157.00 Z M 111.46 157.93 L 111.19 158.99 C 110.94 159.94 111.52 160.91 112.47 161.16 C 113.42 161.40 114.40 160.83 114.64 159.87 L 114.91 158.82 C 115.16 157.86 114.58 156.89 113.63 156.65 C 112.67 156.40 111.70 156.98 111.46 157.93 Z M 111.18 159.01 L 110.94 160.00 C 110.70 160.96 111.29 161.92 112.25 162.16 C 113.20 162.39 114.17 161.81 114.41 160.85 L 114.65 159.85 C 114.88 158.90 114.30 157.93 113.34 157.70 C 112.38 157.46 111.41 158.05 111.18 159.01 Z M 110.93 160.02 L 110.71 160.95 C 110.49 161.91 111.09 162.87 112.05 163.09 C 113.01 163.32 113.97 162.72 114.20 161.76 L 114.41 160.83 C 114.64 159.87 114.04 158.90 113.08 158.68 C 112.11 158.46 111.15 159.05 110.93 160.02 Z M 110.70 160.96 L 110.50 161.87 C 110.29 162.83 110.90 163.79 111.86 164.01 C 112.83 164.22 113.79 163.61 114.00 162.65 L 114.20 161.74 C 114.42 160.77 113.81 159.82 112.84 159.60 C 111.88 159.39 110.92 159.99 110.70 160.96 Z M 110.50 161.88 L 110.29 162.81 C 110.08 163.78 110.70 164.74 111.67 164.95 C 112.64 165.16 113.60 164.54 113.81 163.57 L 114.01 162.64 C 114.22 161.67 113.60 160.71 112.63 160.50 C 111.66 160.29 110.71 160.91 110.50 161.88 Z M 110.29 162.82 L 110.09 163.78 C 109.88 164.75 110.50 165.71 111.47 165.91 C 112.44 166.12 113.40 165.50 113.61 164.53 L 113.81 163.57 C 114.02 162.59 113.40 161.64 112.42 161.43 C 111.45 161.23 110.50 161.85 110.29 162.82 Z M 110.08 163.78 L 109.87 164.77 C 109.67 165.75 110.29 166.70 111.26 166.91 C 112.24 167.11 113.20 166.49 113.40 165.52 L 113.61 164.53 C 113.81 163.55 113.19 162.60 112.22 162.39 C 111.24 162.19 110.29 162.81 110.08 163.78 Z M 109.87 164.77 L 109.66 165.78 C 109.45 166.76 110.07 167.72 111.05 167.92 C 112.02 168.13 112.98 167.51 113.19 166.53 L 113.40 165.52 C 113.61 164.54 112.99 163.58 112.01 163.38 C 111.04 163.17 110.08 163.79 109.87 164.77 Z M 109.65 165.78 L 109.44 166.75 C 109.24 167.73 109.86 168.69 110.84 168.90 C 111.81 169.11 112.77 168.49 112.98 167.51 L 113.19 166.54 C 113.40 165.56 112.78 164.60 111.80 164.39 C 110.82 164.18 109.86 164.80 109.65 165.78 Z M 109.44 166.75 L 109.23 167.74 C 109.02 168.72 109.65 169.68 110.62 169.89 C 111.60 170.10 112.57 169.47 112.77 168.50 L 112.98 167.51 C 113.19 166.53 112.57 165.57 111.59 165.36 C 110.61 165.15 109.65 165.78 109.44 166.75 Z M 109.23 167.74 L 109.02 168.73 C 108.81 169.71 109.44 170.67 110.42 170.88 C 111.40 171.08 112.36 170.46 112.57 169.48 L 112.78 168.49 C 112.98 167.51 112.36 166.55 111.38 166.34 C 110.40 166.14 109.43 166.76 109.23 167.74 Z M 109.02 168.74 L 108.82 169.72 C 108.62 170.70 109.25 171.66 110.23 171.86 C 111.22 172.06 112.18 171.42 112.38 170.44 L 112.58 169.46 C 112.78 168.48 112.14 167.52 111.16 167.32 C 110.18 167.12 109.22 167.76 109.02 168.74 Z M 108.81 169.73 L 108.62 170.73 C 108.43 171.72 109.07 172.67 110.06 172.86 C 111.04 173.05 112.00 172.41 112.19 171.42 L 112.38 170.42 C 112.57 169.44 111.93 168.48 110.94 168.29 C 109.96 168.10 109.00 168.75 108.81 169.73 Z M 108.61 170.75 L 108.43 171.74 C 108.25 172.73 108.90 173.68 109.89 173.86 C 110.88 174.04 111.83 173.39 112.01 172.40 L 112.19 171.41 C 112.38 170.42 111.72 169.47 110.73 169.29 C 109.74 169.10 108.79 169.76 108.61 170.75 Z M 108.43 171.75 L 108.25 172.73 C 108.08 173.72 108.74 174.66 109.73 174.84 C 110.72 175.02 111.67 174.35 111.84 173.36 L 112.02 172.39 C 112.19 171.39 111.53 170.45 110.54 170.27 C 109.55 170.10 108.60 170.76 108.43 171.75 Z M 108.25 172.73 L 108.08 173.70 C 107.91 174.70 108.57 175.64 109.57 175.81 C 110.56 175.98 111.51 175.32 111.68 174.33 L 111.85 173.36 C 112.02 172.36 111.35 171.42 110.36 171.25 C 109.37 171.07 108.42 171.74 108.25 172.73 Z M 108.08 173.70 L 107.91 174.69 C 107.74 175.68 108.40 176.63 109.40 176.80 C 110.39 176.97 111.34 176.31 111.51 175.31 L 111.68 174.32 C 111.85 173.33 111.18 172.38 110.19 172.21 C 109.20 172.04 108.25 172.71 108.08 173.70 Z M 107.91 174.69 L 107.74 175.68 C 107.57 176.68 108.24 177.62 109.23 177.79 C 110.23 177.96 111.17 177.29 111.34 176.30 L 111.51 175.31 C 111.68 174.31 111.01 173.37 110.02 173.20 C 109.02 173.03 108.08 173.70 107.91 174.69 Z M 107.73 175.69 L 107.57 176.67 C 107.40 177.67 108.08 178.62 109.07 178.78 C 110.07 178.95 111.01 178.28 111.18 177.28 L 111.35 176.29 C 111.51 175.29 110.84 174.35 109.84 174.18 C 108.85 174.02 107.90 174.69 107.73 175.69 Z M 107.57 176.68 L 107.41 177.66 C 107.25 178.66 107.93 179.60 108.92 179.76 C 109.92 179.93 110.86 179.25 111.03 178.25 L 111.18 177.27 C 111.35 176.27 110.67 175.33 109.67 175.17 C 108.67 175.00 107.73 175.68 107.57 176.68 Z M 107.40 177.68 L 107.25 178.68 C 107.09 179.68 107.78 180.62 108.78 180.77 C 109.78 180.93 110.72 180.24 110.87 179.24 L 111.03 178.24 C 111.18 177.23 110.50 176.30 109.50 176.14 C 108.50 175.99 107.56 176.67 107.40 177.68 Z M 107.25 178.69 L 107.10 179.69 C 106.95 180.70 107.65 181.63 108.65 181.78 C 109.65 181.92 110.58 181.23 110.73 180.23 L 110.88 179.23 C 111.03 178.23 110.33 177.29 109.33 177.15 C 108.33 177.00 107.39 177.69 107.25 178.69 Z M 107.10 179.71 L 106.96 180.69 C 106.82 181.69 107.52 182.62 108.52 182.76 C 109.53 182.90 110.46 182.20 110.60 181.20 L 110.73 180.21 C 110.87 179.21 110.17 178.28 109.17 178.14 C 108.16 178.00 107.24 178.70 107.10 179.71 Z M 106.96 180.70 L 106.83 181.68 C 106.69 182.69 107.40 183.61 108.41 183.75 C 109.42 183.88 110.34 183.17 110.47 182.16 L 110.60 181.18 C 110.73 180.17 110.03 179.25 109.02 179.12 C 108.01 178.99 107.09 179.69 106.96 180.70 Z M 106.82 181.70 L 106.70 182.72 C 106.57 183.73 107.29 184.64 108.30 184.77 C 109.30 184.89 110.22 184.18 110.35 183.17 L 110.47 182.15 C 110.60 181.14 109.88 180.22 108.88 180.10 C 107.87 179.97 106.95 180.69 106.82 181.70 Z M 106.69 182.73 L 106.58 183.73 C 106.46 184.74 107.18 185.65 108.19 185.77 C 109.20 185.88 110.12 185.16 110.23 184.15 L 110.35 183.16 C 110.47 182.15 109.74 181.23 108.73 181.12 C 107.72 181.00 106.81 181.72 106.69 182.73 Z M 106.58 183.74 L 106.47 184.71 C 106.36 185.72 107.09 186.63 108.10 186.74 C 109.11 186.84 110.02 186.11 110.13 185.10 L 110.24 184.14 C 110.35 183.13 109.62 182.22 108.60 182.11 C 107.59 182.00 106.69 182.73 106.58 183.74 Z M 106.47 184.72 L 106.37 185.72 C 106.27 186.73 107.01 187.64 108.02 187.74 C 109.03 187.84 109.93 187.10 110.03 186.09 L 110.13 185.09 C 110.24 184.08 109.50 183.17 108.48 183.07 C 107.47 182.97 106.57 183.71 106.47 184.72 Z M 106.37 185.74 L 106.28 186.73 C 106.18 187.74 106.93 188.64 107.94 188.73 C 108.95 188.83 109.85 188.08 109.94 187.07 L 110.04 186.07 C 110.13 185.06 109.38 184.17 108.37 184.07 C 107.36 183.98 106.46 184.72 106.37 185.74 Z M 106.28 186.74 L 106.19 187.72 C 106.10 188.74 106.85 189.63 107.86 189.72 C 108.88 189.81 109.77 189.06 109.86 188.04 L 109.95 187.06 C 110.03 186.05 109.28 185.15 108.27 185.07 C 107.26 184.98 106.36 185.73 106.28 186.74 Z M 106.19 187.73 L 106.11 188.66 C 106.02 189.68 106.78 190.57 107.79 190.65 C 108.80 190.74 109.70 189.99 109.78 188.97 L 109.86 188.04 C 109.95 187.03 109.19 186.13 108.18 186.05 C 107.17 185.96 106.27 186.72 106.19 187.73 Z M 106.11 188.69 L 106.04 189.62 C 105.97 190.64 106.73 191.52 107.74 191.59 C 108.76 191.67 109.64 190.90 109.71 189.89 L 109.78 188.95 C 109.86 187.94 109.09 187.06 108.08 186.98 C 107.06 186.91 106.18 187.67 106.11 188.69 Z M 106.04 189.67 L 105.99 190.68 C 105.94 191.70 106.73 192.56 107.74 192.61 C 108.76 192.66 109.62 191.87 109.67 190.86 L 109.72 189.84 C 109.76 188.83 108.98 187.96 107.96 187.92 C 106.95 187.87 106.09 188.65 106.04 189.67 Z M 105.99 190.74 L 105.97 191.84 C 105.96 192.85 106.77 193.69 107.79 193.70 C 108.81 193.71 109.64 192.90 109.66 191.88 L 109.67 190.79 C 109.68 189.78 108.87 188.94 107.85 188.93 C 106.84 188.91 106.00 189.73 105.99 190.74 Z M 105.98 191.91 L 106.00 192.86 C 106.03 193.88 106.87 194.68 107.89 194.65 C 108.90 194.63 109.71 193.78 109.68 192.77 L 109.66 191.81 C 109.63 190.80 108.78 189.99 107.77 190.02 C 106.75 190.05 105.95 190.89 105.98 191.91 Z M 106.01 192.97 L 106.09 193.97 C 106.18 194.98 107.07 195.73 108.08 195.64 C 109.10 195.56 109.85 194.67 109.76 193.65 L 109.67 192.65 C 109.59 191.64 108.70 190.89 107.68 190.98 C 106.67 191.07 105.92 191.96 106.01 192.97 Z M 106.11 194.13 L 106.29 195.14 C 106.47 196.14 107.42 196.80 108.42 196.63 C 109.42 196.45 110.09 195.50 109.92 194.50 L 109.74 193.49 C 109.56 192.49 108.61 191.82 107.60 192.00 C 106.60 192.18 105.94 193.13 106.11 194.13 Z M 106.35 195.36 L 106.65 196.34 C 106.95 197.31 107.98 197.85 108.95 197.55 C 109.92 197.25 110.46 196.22 110.16 195.25 L 109.86 194.27 C 109.56 193.30 108.53 192.76 107.56 193.06 C 106.59 193.36 106.05 194.39 106.35 195.36 Z M 106.76 196.61 L 107.19 197.47 C 107.64 198.38 108.74 198.76 109.65 198.31 C 110.56 197.86 110.93 196.75 110.48 195.84 L 110.05 194.98 C 109.60 194.07 108.50 193.69 107.59 194.14 C 106.68 194.59 106.31 195.70 106.76 196.61 Z M 107.34 197.73 L 107.89 198.50 C 108.48 199.32 109.63 199.51 110.45 198.92 C 111.28 198.33 111.47 197.18 110.88 196.36 L 110.33 195.59 C 109.74 194.76 108.59 194.57 107.76 195.16 C 106.94 195.75 106.75 196.90 107.34 197.73 Z M 108.06 198.69 L 108.73 199.40 C 109.43 200.13 110.59 200.16 111.33 199.46 C 112.06 198.76 112.09 197.60 111.38 196.86 L 110.71 196.16 C 110.01 195.42 108.85 195.40 108.11 196.10 C 107.38 196.80 107.35 197.96 108.06 198.69 Z M 108.89 199.55 L 109.68 200.19 C 110.46 200.84 111.62 200.73 112.26 199.94 C 112.90 199.16 112.79 198.00 112.01 197.36 L 111.22 196.71 C 110.44 196.07 109.28 196.18 108.64 196.97 C 108.00 197.75 108.11 198.90 108.89 199.55 Z M 109.82 200.30 L 110.71 200.89 C 111.55 201.46 112.69 201.23 113.26 200.39 C 113.82 199.54 113.59 198.40 112.75 197.84 L 111.86 197.25 C 111.02 196.69 109.88 196.92 109.32 197.76 C 108.75 198.60 108.98 199.74 109.82 200.30 Z M 110.83 200.97 L 111.66 201.43 C 112.54 201.93 113.66 201.61 114.15 200.73 C 114.65 199.85 114.34 198.73 113.45 198.23 L 112.63 197.77 C 111.74 197.27 110.63 197.59 110.13 198.47 C 109.63 199.35 109.95 200.47 110.83 200.97 Z M 111.75 201.48 L 112.56 201.87 C 113.47 202.32 114.57 201.94 115.01 201.03 C 115.46 200.12 115.08 199.02 114.17 198.58 L 113.36 198.18 C 112.45 197.74 111.35 198.12 110.91 199.03 C 110.46 199.94 110.84 201.03 111.75 201.48 Z M 112.63 201.91 L 113.50 202.28 C 114.43 202.69 115.51 202.26 115.91 201.33 C 116.31 200.40 115.89 199.32 114.96 198.92 L 114.09 198.55 C 113.17 198.14 112.09 198.57 111.68 199.50 C 111.28 200.43 111.71 201.50 112.63 201.91 Z M 113.56 202.31 L 114.48 202.67 C 115.43 203.04 116.49 202.57 116.86 201.63 C 117.23 200.69 116.76 199.63 115.82 199.26 L 114.90 198.90 C 113.95 198.53 112.89 198.99 112.52 199.93 C 112.15 200.88 112.62 201.94 113.56 202.31 Z M 114.53 202.69 L 115.51 203.04 C 116.47 203.38 117.52 202.89 117.86 201.93 C 118.20 200.98 117.70 199.93 116.75 199.59 L 115.77 199.24 C 114.82 198.90 113.77 199.39 113.43 200.34 C 113.08 201.30 113.58 202.35 114.53 202.69 Z M 115.55 203.05 L 116.59 203.40 C 117.55 203.72 118.59 203.21 118.91 202.25 C 119.23 201.29 118.72 200.25 117.76 199.93 L 116.71 199.58 C 115.75 199.26 114.72 199.78 114.40 200.73 C 114.07 201.69 114.59 202.73 115.55 203.05 Z M 116.62 203.41 L 117.68 203.75 C 118.65 204.05 119.68 203.52 119.98 202.56 C 120.29 201.59 119.76 200.56 118.79 200.26 L 117.73 199.92 C 116.77 199.61 115.74 200.15 115.43 201.11 C 115.12 202.07 115.66 203.10 116.62 203.41 Z M 117.70 203.75 L 118.69 204.06 C 119.66 204.36 120.68 203.81 120.98 202.85 C 121.28 201.88 120.74 200.85 119.77 200.56 L 118.77 200.25 C 117.81 199.95 116.78 200.50 116.49 201.46 C 116.19 202.43 116.73 203.46 117.70 203.75 Z M 118.71 204.06 L 119.72 204.37 C 120.69 204.66 121.71 204.11 122.00 203.14 C 122.29 202.17 121.74 201.15 120.77 200.86 L 119.76 200.55 C 118.79 200.26 117.77 200.81 117.48 201.78 C 117.19 202.75 117.74 203.77 118.71 204.06 Z M 119.73 204.37 L 120.75 204.67 C 121.72 204.95 122.74 204.40 123.02 203.43 C 123.31 202.46 122.75 201.44 121.78 201.15 L 120.76 200.85 C 119.79 200.57 118.77 201.13 118.49 202.10 C 118.21 203.07 118.76 204.08 119.73 204.37 Z M 120.76 204.67 L 121.76 204.96 C 122.73 205.24 123.75 204.68 124.03 203.71 C 124.31 202.73 123.75 201.72 122.78 201.44 L 121.77 201.15 C 120.80 200.87 119.79 201.43 119.51 202.40 C 119.23 203.38 119.79 204.39 120.76 204.67 Z M 121.77 204.96 L 122.74 205.24 C 123.71 205.51 124.72 204.95 125.00 203.97 C 125.27 203.00 124.71 201.99 123.74 201.71 L 122.77 201.44 C 121.80 201.16 120.78 201.73 120.51 202.70 C 120.23 203.67 120.80 204.69 121.77 204.96 Z M 122.74 205.24 L 123.65 205.49 C 124.62 205.76 125.63 205.20 125.91 204.22 C 126.18 203.25 125.61 202.24 124.64 201.97 L 123.73 201.71 C 122.76 201.44 121.75 202.01 121.47 202.98 C 121.20 203.95 121.77 204.96 122.74 205.24 Z M 123.66 205.49 L 124.49 205.72 C 125.46 205.99 126.47 205.42 126.74 204.45 C 127.01 203.47 126.44 202.47 125.47 202.20 L 124.63 201.96 C 123.66 201.69 122.65 202.26 122.38 203.24 C 122.11 204.21 122.68 205.22 123.66 205.49 Z M 124.49 205.73 L 125.70 206.06 C 126.67 206.32 127.68 205.75 127.95 204.77 C 128.21 203.80 127.64 202.79 126.66 202.52 L 125.46 202.19 C 124.49 201.93 123.48 202.50 123.21 203.48 C 122.94 204.45 123.52 205.46 124.49 205.73 Z M 125.70 206.06 L 126.74 206.34 C 127.72 206.60 128.72 206.02 128.99 205.04 C 129.25 204.07 128.67 203.06 127.69 202.80 L 126.66 202.52 C 125.68 202.26 124.68 202.84 124.41 203.81 C 124.15 204.79 124.73 205.79 125.70 206.06 Z M 126.75 206.34 L 127.62 206.57 C 128.60 206.82 129.60 206.24 129.86 205.26 C 130.12 204.28 129.53 203.28 128.55 203.03 L 127.68 202.80 C 126.70 202.54 125.70 203.13 125.45 204.10 C 125.19 205.08 125.78 206.08 126.75 206.34 Z M 127.64 206.57 L 128.42 206.77 C 129.40 207.02 130.40 206.43 130.65 205.45 C 130.90 204.47 130.30 203.47 129.32 203.22 L 128.54 203.02 C 127.56 202.77 126.56 203.36 126.31 204.34 C 126.06 205.32 126.66 206.32 127.64 206.57 Z M 128.43 206.77 L 129.32 206.99 C 130.30 207.24 131.30 206.64 131.54 205.66 C 131.78 204.68 131.19 203.68 130.21 203.44 L 129.31 203.22 C 128.33 202.98 127.34 203.57 127.09 204.55 C 126.85 205.54 127.45 206.53 128.43 206.77 Z M 129.33 207.00 L 130.29 207.23 C 131.27 207.47 132.26 206.86 132.50 205.88 C 132.74 204.90 132.14 203.91 131.15 203.67 L 130.19 203.44 C 129.21 203.20 128.22 203.80 127.98 204.79 C 127.75 205.77 128.35 206.76 129.33 207.00 Z M 130.30 207.23 L 131.29 207.46 C 132.27 207.70 133.26 207.08 133.49 206.10 C 133.72 205.12 133.11 204.13 132.13 203.90 L 131.14 203.67 C 130.16 203.44 129.17 204.05 128.94 205.03 C 128.71 206.02 129.32 207.00 130.30 207.23 Z M 131.30 207.47 L 132.29 207.69 C 133.28 207.92 134.26 207.30 134.49 206.31 C 134.71 205.33 134.09 204.35 133.11 204.12 L 132.12 203.90 C 131.13 203.67 130.15 204.29 129.92 205.27 C 129.70 206.26 130.32 207.24 131.30 207.47 Z M 132.31 207.70 L 133.27 207.91 C 134.26 208.12 135.24 207.50 135.45 206.51 C 135.67 205.52 135.05 204.55 134.06 204.33 L 133.09 204.12 C 132.11 203.90 131.13 204.53 130.91 205.51 C 130.70 206.50 131.32 207.48 132.31 207.70 Z M 133.29 207.91 L 134.28 208.12 C 135.27 208.32 136.24 207.69 136.44 206.70 C 136.65 205.71 136.01 204.74 135.02 204.53 L 134.04 204.33 C 133.05 204.12 132.08 204.76 131.87 205.75 C 131.67 206.74 132.30 207.71 133.29 207.91 Z M 134.30 208.12 L 135.29 208.32 C 136.29 208.51 137.25 207.86 137.44 206.87 C 137.63 205.87 136.98 204.91 135.99 204.72 L 135.00 204.53 C 134.01 204.33 133.04 204.98 132.85 205.98 C 132.66 206.97 133.31 207.93 134.30 208.12 Z M 135.32 208.32 L 136.31 208.50 C 137.31 208.67 138.26 208.01 138.43 207.01 C 138.61 206.01 137.95 205.06 136.95 204.89 L 135.96 204.71 C 134.97 204.54 134.02 205.20 133.84 206.20 C 133.66 207.19 134.33 208.14 135.32 208.32 Z M 136.34 208.50 L 137.32 208.66 C 138.32 208.82 139.26 208.14 139.42 207.14 C 139.58 206.14 138.90 205.20 137.91 205.04 L 136.92 204.88 C 135.92 204.72 134.98 205.40 134.82 206.40 C 134.66 207.40 135.34 208.34 136.34 208.50 Z M 137.34 208.66 L 138.33 208.81 C 139.33 208.96 140.27 208.27 140.42 207.27 C 140.57 206.27 139.87 205.33 138.87 205.18 L 137.89 205.04 C 136.88 204.89 135.95 205.58 135.80 206.58 C 135.65 207.58 136.34 208.51 137.34 208.66 Z M 138.34 208.81 L 139.34 208.95 C 140.34 209.10 141.27 208.40 141.41 207.40 C 141.56 206.40 140.86 205.47 139.86 205.32 L 138.86 205.18 C 137.86 205.04 136.93 205.74 136.79 206.74 C 136.64 207.74 137.34 208.67 138.34 208.81 Z M 139.34 208.96 L 140.31 209.09 C 141.31 209.23 142.24 208.53 142.38 207.53 C 142.52 206.52 141.82 205.60 140.82 205.46 L 139.85 205.32 C 138.85 205.18 137.92 205.88 137.78 206.88 C 137.64 207.89 138.34 208.82 139.34 208.96 Z M 140.31 209.10 L 141.29 209.23 C 142.29 209.37 143.22 208.67 143.36 207.66 C 143.50 206.65 142.80 205.73 141.79 205.59 L 140.82 205.45 C 139.81 205.31 138.88 206.02 138.74 207.02 C 138.61 208.03 139.31 208.96 140.31 209.10 Z M 141.29 209.23 L 142.29 209.37 C 143.30 209.51 144.22 208.80 144.36 207.79 C 144.50 206.78 143.79 205.85 142.78 205.72 L 141.79 205.58 C 140.78 205.45 139.85 206.15 139.71 207.16 C 139.58 208.17 140.29 209.10 141.29 209.23 Z M 142.29 209.37 L 143.32 209.51 C 144.33 209.64 145.25 208.93 145.39 207.92 C 145.52 206.91 144.81 205.98 143.80 205.85 L 142.78 205.71 C 141.77 205.58 140.84 206.29 140.71 207.30 C 140.57 208.31 141.28 209.24 142.29 209.37 Z M 143.32 209.51 L 144.33 209.64 C 145.34 209.77 146.26 209.05 146.39 208.04 C 146.52 207.03 145.81 206.10 144.79 205.97 L 143.79 205.84 C 142.78 205.72 141.85 206.43 141.72 207.44 C 141.60 208.46 142.31 209.38 143.32 209.51 Z M 144.34 209.64 L 145.35 209.76 C 146.36 209.88 147.28 209.16 147.40 208.15 C 147.53 207.14 146.81 206.22 145.79 206.09 L 144.78 205.97 C 143.77 205.85 142.85 206.57 142.73 207.58 C 142.61 208.60 143.33 209.52 144.34 209.64 Z M 145.37 209.76 L 146.37 209.87 C 147.38 209.99 148.30 209.26 148.41 208.24 C 148.52 207.23 147.79 206.32 146.78 206.20 L 145.78 206.09 C 144.76 205.98 143.85 206.71 143.74 207.72 C 143.62 208.74 144.35 209.65 145.37 209.76 Z M 146.39 209.87 L 147.37 209.97 C 148.38 210.07 149.29 209.33 149.38 208.31 C 149.48 207.30 148.74 206.40 147.73 206.30 L 146.75 206.20 C 145.74 206.10 144.84 206.84 144.74 207.86 C 144.64 208.87 145.38 209.78 146.39 209.87 Z M 147.40 209.97 L 148.43 210.05 C 149.45 210.13 150.34 209.38 150.42 208.36 C 150.50 207.35 149.74 206.46 148.72 206.38 L 147.69 206.30 C 146.68 206.22 145.79 206.97 145.71 207.99 C 145.63 209.00 146.39 209.89 147.40 209.97 Z M 148.47 210.05 L 149.49 210.11 C 150.50 210.17 151.37 209.40 151.43 208.38 C 151.49 207.36 150.71 206.49 149.70 206.43 L 148.69 206.38 C 147.67 206.32 146.80 207.09 146.74 208.11 C 146.68 209.12 147.46 210.00 148.47 210.05 Z M 149.52 210.11 L 150.49 210.15 C 151.51 210.19 152.37 209.40 152.41 208.38 C 152.44 207.37 151.65 206.51 150.64 206.47 L 149.66 206.43 C 148.65 206.39 147.79 207.19 147.75 208.20 C 147.71 209.22 148.50 210.07 149.52 210.11 Z M 150.52 210.15 L 151.49 210.17 C 152.50 210.20 153.35 209.39 153.37 208.38 C 153.39 207.36 152.59 206.52 151.57 206.49 L 150.61 206.47 C 149.59 206.45 148.75 207.25 148.73 208.27 C 148.70 209.28 149.51 210.13 150.52 210.15 Z M 151.51 210.18 L 152.51 210.19 C 153.52 210.20 154.36 209.39 154.37 208.37 C 154.39 207.35 153.57 206.52 152.55 206.50 L 151.55 206.49 C 150.54 206.48 149.70 207.29 149.69 208.31 C 149.67 209.33 150.49 210.16 151.51 210.18 Z M 152.52 210.20 L 153.52 210.20 C 154.54 210.21 155.37 209.38 155.38 208.36 C 155.38 207.34 154.56 206.51 153.54 206.50 L 152.54 206.50 C 151.52 206.49 150.69 207.32 150.68 208.34 C 150.68 209.36 151.50 210.19 152.52 210.20 Z M 153.53 210.21 L 154.53 210.21 C 155.55 210.21 156.38 209.38 156.38 208.36 C 156.39 207.33 155.56 206.50 154.53 206.50 L 153.53 206.50 C 152.51 206.50 151.68 207.33 151.68 208.35 C 151.67 209.37 152.50 210.21 153.53 210.21 Z M 154.53 210.21 L 155.53 210.21 C 156.55 210.21 157.39 209.38 157.39 208.35 C 157.39 207.33 156.55 206.49 155.53 206.49 L 154.53 206.49 C 153.50 206.49 152.67 207.33 152.67 208.35 C 152.67 209.38 153.50 210.21 154.53 210.21 Z M 155.53 210.22 L 156.52 210.22 C 157.55 210.22 158.39 209.38 158.39 208.35 C 158.39 207.32 157.55 206.49 156.52 206.49 L 155.53 206.49 C 154.49 206.49 153.66 207.32 153.66 208.35 C 153.66 209.38 154.49 210.22 155.53 210.22 Z M 156.52 210.23 L 157.52 210.23 C 158.56 210.23 159.40 209.39 159.40 208.35 C 159.40 207.32 158.56 206.48 157.52 206.48 L 156.52 206.48 C 155.49 206.48 154.65 207.32 154.65 208.35 C 154.65 209.39 155.49 210.23 156.52 210.23 Z M 157.52 210.23 L 158.53 210.23 C 159.56 210.23 160.40 209.39 160.40 208.35 C 160.40 207.32 159.56 206.48 158.53 206.48 L 157.52 206.48 C 156.49 206.48 155.65 207.32 155.65 208.35 C 155.65 209.39 156.49 210.23 157.52 210.23 Z M 158.53 210.23 L 159.52 210.23 C 160.56 210.23 161.40 209.38 161.39 208.34 C 161.39 207.30 160.55 206.46 159.51 206.47 L 158.52 206.47 C 157.48 206.48 156.64 207.32 156.64 208.36 C 156.65 209.40 157.49 210.24 158.53 210.23 Z M 159.55 210.23 L 160.55 210.21 C 161.59 210.19 162.41 209.34 162.39 208.30 C 162.38 207.26 161.52 206.43 160.48 206.45 L 159.48 206.47 C 158.44 206.49 157.61 207.34 157.63 208.38 C 157.65 209.42 158.51 210.25 159.55 210.23 Z M 160.60 210.21 L 161.60 210.17 C 162.64 210.12 163.45 209.24 163.40 208.20 C 163.36 207.17 162.48 206.36 161.44 206.41 L 160.43 206.45 C 159.39 206.50 158.59 207.37 158.63 208.41 C 158.68 209.45 159.56 210.26 160.60 210.21 Z M 161.67 210.17 L 162.65 210.09 C 163.69 210.01 164.46 209.10 164.38 208.06 C 164.30 207.02 163.39 206.25 162.36 206.33 L 161.37 206.41 C 160.34 206.49 159.56 207.40 159.64 208.44 C 159.73 209.47 160.63 210.25 161.67 210.17 Z M 162.72 210.08 L 163.70 209.97 C 164.73 209.85 165.47 208.91 165.35 207.88 C 165.23 206.84 164.30 206.10 163.26 206.22 L 162.29 206.34 C 161.25 206.46 160.51 207.39 160.63 208.43 C 160.75 209.46 161.69 210.20 162.72 210.08 Z M 163.76 209.96 L 164.75 209.81 C 165.78 209.66 166.49 208.70 166.34 207.66 C 166.18 206.63 165.22 205.93 164.19 206.08 L 163.20 206.23 C 162.17 206.39 161.46 207.35 161.61 208.38 C 161.77 209.41 162.73 210.12 163.76 209.96 Z M 164.81 209.80 L 165.83 209.62 C 166.85 209.43 167.53 208.44 167.34 207.42 C 167.15 206.39 166.17 205.71 165.14 205.90 L 164.13 206.09 C 163.10 206.28 162.43 207.26 162.61 208.29 C 162.80 209.31 163.79 209.99 164.81 209.80 Z M 165.88 209.61 L 166.87 209.39 C 167.89 209.18 168.54 208.17 168.32 207.15 C 168.10 206.13 167.10 205.48 166.08 205.70 L 165.09 205.91 C 164.07 206.13 163.42 207.14 163.64 208.15 C 163.86 209.17 164.86 209.82 165.88 209.61 Z M 166.91 209.38 L 167.90 209.15 C 168.92 208.90 169.54 207.88 169.30 206.87 C 169.05 205.86 168.03 205.23 167.02 205.48 L 166.03 205.71 C 165.02 205.96 164.39 206.98 164.64 207.99 C 164.88 209.00 165.90 209.63 166.91 209.38 Z M 167.94 209.14 L 168.92 208.88 C 169.93 208.61 170.53 207.57 170.26 206.57 C 169.99 205.56 168.96 204.96 167.95 205.23 L 166.98 205.49 C 165.97 205.75 165.37 206.79 165.64 207.80 C 165.90 208.80 166.94 209.40 167.94 209.14 Z M 168.96 208.86 L 169.90 208.59 C 170.90 208.30 171.48 207.25 171.18 206.25 C 170.89 205.25 169.84 204.67 168.84 204.97 L 167.90 205.24 C 166.90 205.53 166.33 206.58 166.62 207.58 C 166.91 208.58 167.96 209.16 168.96 208.86 Z M 169.95 208.57 L 170.95 208.25 C 171.94 207.93 172.49 206.87 172.17 205.88 C 171.85 204.89 170.78 204.34 169.79 204.66 L 168.80 204.98 C 167.80 205.30 167.26 206.36 167.58 207.36 C 167.90 208.35 168.96 208.89 169.95 208.57 Z M 171.00 208.24 L 171.95 207.90 C 172.93 207.55 173.45 206.47 173.10 205.49 C 172.75 204.51 171.68 204.00 170.69 204.34 L 169.74 204.68 C 168.76 205.03 168.24 206.10 168.59 207.09 C 168.94 208.07 170.02 208.58 171.00 208.24 Z M 172.00 207.88 L 172.90 207.53 C 173.87 207.16 174.36 206.07 173.99 205.10 C 173.61 204.13 172.52 203.64 171.55 204.01 L 170.65 204.36 C 169.67 204.73 169.19 205.82 169.56 206.80 C 169.93 207.77 171.03 208.25 172.00 207.88 Z M 172.94 207.52 L 173.85 207.15 C 174.81 206.75 175.27 205.65 174.87 204.69 C 174.48 203.72 173.38 203.26 172.41 203.66 L 171.51 204.03 C 170.55 204.42 170.09 205.53 170.48 206.49 C 170.88 207.45 171.98 207.91 172.94 207.52 Z M 173.88 207.13 L 174.81 206.73 C 175.76 206.32 176.20 205.21 175.79 204.25 C 175.37 203.30 174.26 202.86 173.31 203.27 L 172.38 203.67 C 171.42 204.09 170.98 205.20 171.40 206.15 C 171.81 207.11 172.92 207.55 173.88 207.13 Z M 174.83 206.72 L 175.74 206.31 C 176.69 205.89 177.11 204.77 176.69 203.82 C 176.26 202.87 175.14 202.44 174.19 202.87 L 173.28 203.28 C 172.33 203.71 171.91 204.83 172.34 205.78 C 172.76 206.73 173.88 207.15 174.83 206.72 Z M 175.76 206.31 L 176.64 205.90 C 177.58 205.46 178.00 204.34 177.56 203.39 C 177.12 202.45 176.00 202.03 175.05 202.47 L 174.17 202.88 C 173.23 203.32 172.81 204.44 173.25 205.39 C 173.69 206.33 174.81 206.74 175.76 206.31 Z M 176.66 205.89 L 177.49 205.50 C 178.43 205.05 178.83 203.92 178.38 202.98 C 177.93 202.04 176.81 201.64 175.86 202.08 L 175.03 202.48 C 174.09 202.93 173.69 204.06 174.14 205.00 C 174.59 205.94 175.72 206.34 176.66 205.89 Z M 177.54 205.47 L 178.40 205.03 C 179.33 204.56 179.70 203.42 179.23 202.49 C 178.75 201.56 177.61 201.19 176.68 201.66 L 175.82 202.11 C 174.89 202.58 174.52 203.72 174.99 204.65 C 175.47 205.58 176.61 205.95 177.54 205.47 Z M 178.47 205.00 L 179.41 204.47 C 180.32 203.96 180.64 202.81 180.13 201.90 C 179.62 200.99 178.47 200.66 177.56 201.17 L 176.62 201.70 C 175.71 202.21 175.38 203.36 175.89 204.27 C 176.40 205.18 177.56 205.51 178.47 205.00 Z M 179.47 204.44 L 180.29 203.94 C 181.18 203.39 181.46 202.23 180.91 201.33 C 180.37 200.44 179.20 200.16 178.31 200.71 L 177.49 201.21 C 176.60 201.75 176.32 202.92 176.87 203.81 C 177.41 204.70 178.58 204.98 179.47 204.44 Z M 180.34 203.90 L 181.13 203.38 C 182.00 202.80 182.24 201.63 181.67 200.76 C 181.09 199.89 179.92 199.65 179.05 200.22 L 178.26 200.74 C 177.38 201.32 177.14 202.49 177.72 203.36 C 178.29 204.24 179.47 204.48 180.34 203.90 Z M 181.19 203.34 L 182.01 202.76 C 182.86 202.15 183.06 200.97 182.45 200.12 C 181.84 199.27 180.66 199.07 179.81 199.68 L 178.99 200.26 C 178.14 200.87 177.94 202.05 178.55 202.90 C 179.15 203.75 180.33 203.95 181.19 203.34 Z M 182.07 202.71 L 182.90 202.07 C 183.72 201.43 183.87 200.25 183.24 199.42 C 182.60 198.59 181.41 198.44 180.58 199.08 L 179.75 199.72 C 178.92 200.36 178.77 201.55 179.41 202.37 C 180.05 203.20 181.24 203.35 182.07 202.71 Z M 182.96 202.02 L 183.78 201.32 C 184.58 200.65 184.68 199.45 184.00 198.66 C 183.33 197.86 182.13 197.76 181.34 198.44 L 180.52 199.13 C 179.72 199.81 179.62 201.00 180.30 201.80 C 180.97 202.60 182.16 202.69 182.96 202.02 Z M 183.86 201.26 L 184.62 200.54 C 185.39 199.82 185.42 198.62 184.71 197.86 C 183.99 197.10 182.80 197.06 182.04 197.78 L 181.27 198.50 C 180.51 199.21 180.47 200.41 181.18 201.17 C 181.90 201.93 183.09 201.97 183.86 201.26 Z M 184.70 200.46 L 185.42 199.70 C 186.14 198.95 186.11 197.75 185.35 197.03 C 184.60 196.31 183.40 196.34 182.68 197.10 L 181.96 197.85 C 181.24 198.61 181.27 199.80 182.03 200.52 C 182.78 201.24 183.98 201.21 184.70 200.46 Z M 185.50 199.61 L 186.15 198.83 C 186.82 198.03 186.71 196.84 185.91 196.17 C 185.11 195.50 183.93 195.61 183.26 196.41 L 182.60 197.19 C 181.94 197.99 182.04 199.18 182.84 199.85 C 183.64 200.51 184.83 200.41 185.50 199.61 Z M 186.24 198.71 L 186.80 197.91 C 187.41 197.07 187.21 195.89 186.36 195.29 C 185.51 194.69 184.34 194.89 183.74 195.73 L 183.17 196.53 C 182.57 197.38 182.77 198.55 183.61 199.15 C 184.46 199.76 185.64 199.56 186.24 198.71 Z M 186.90 197.76 L 187.36 196.96 C 187.87 196.06 187.56 194.91 186.66 194.39 C 185.76 193.88 184.61 194.19 184.09 195.09 L 183.64 195.89 C 183.12 196.79 183.44 197.94 184.34 198.45 C 185.24 198.97 186.39 198.66 186.90 197.76 Z M 187.47 196.71 L 187.86 195.70 C 188.24 194.74 187.77 193.65 186.81 193.27 C 185.84 192.90 184.76 193.37 184.38 194.33 L 183.98 195.34 C 183.61 196.30 184.08 197.39 185.04 197.77 C 186.00 198.15 187.09 197.67 187.47 196.71 Z M 187.95 195.33 L 188.13 194.34 C 188.30 193.33 187.62 192.37 186.61 192.19 C 185.60 192.01 184.64 192.69 184.46 193.70 L 184.29 194.70 C 184.12 195.71 184.79 196.67 185.80 196.85 C 186.82 197.02 187.78 196.35 187.95 195.33 Z M 188.14 193.89 L 188.07 192.94 C 188.00 191.93 187.11 191.16 186.10 191.24 C 185.08 191.31 184.32 192.19 184.39 193.21 L 184.45 194.15 C 184.53 195.17 185.41 195.93 186.43 195.86 C 187.44 195.79 188.21 194.91 188.14 193.89 Z M 187.95 192.46 L 187.64 191.60 C 187.31 190.64 186.26 190.15 185.31 190.49 C 184.36 190.82 183.86 191.87 184.20 192.82 L 184.50 193.69 C 184.84 194.64 185.89 195.14 186.84 194.80 C 187.79 194.46 188.29 193.41 187.95 192.46 Z M 187.41 191.21 L 186.95 190.52 C 186.40 189.70 185.29 189.48 184.46 190.03 C 183.64 190.58 183.42 191.69 183.97 192.52 L 184.43 193.21 C 184.98 194.03 186.09 194.25 186.92 193.70 C 187.74 193.15 187.96 192.04 187.41 191.21 Z M 186.72 190.31 L 186.09 189.65 C 185.41 188.96 184.31 188.94 183.61 189.61 C 182.92 190.28 182.90 191.39 183.57 192.08 L 184.20 192.73 C 184.88 193.43 185.98 193.45 186.67 192.78 C 187.37 192.11 187.39 191.00 186.72 190.31 Z M 185.89 189.54 L 185.10 188.90 C 184.37 188.32 183.30 188.43 182.71 189.16 C 182.12 189.89 182.24 190.96 182.97 191.55 L 183.76 192.19 C 184.49 192.78 185.56 192.66 186.15 191.93 C 186.74 191.20 186.62 190.13 185.89 189.54 Z M 184.96 188.86 L 184.01 188.22 C 183.26 187.70 182.23 187.90 181.72 188.65 C 181.21 189.40 181.40 190.43 182.15 190.94 L 183.10 191.59 C 183.86 192.10 184.88 191.91 185.40 191.16 C 185.91 190.40 185.71 189.38 184.96 188.86 Z M 183.93 188.21 L 183.06 187.67 C 182.31 187.20 181.31 187.43 180.85 188.18 C 180.38 188.94 180.61 189.93 181.36 190.40 L 182.23 190.94 C 182.99 191.41 183.98 191.18 184.45 190.43 C 184.92 189.67 184.69 188.68 183.93 188.21 Z M 183.02 187.68 L 182.22 187.21 C 181.47 186.76 180.51 187.01 180.06 187.76 C 179.62 188.51 179.86 189.48 180.61 189.92 L 181.40 190.39 C 182.15 190.84 183.12 190.59 183.57 189.84 C 184.01 189.09 183.76 188.12 183.02 187.68 Z M 182.19 187.22 L 181.35 186.73 C 180.61 186.31 179.66 186.56 179.23 187.31 C 178.80 188.05 179.06 189.00 179.80 189.43 L 180.64 189.91 C 181.39 190.34 182.34 190.08 182.77 189.34 C 183.19 188.60 182.94 187.64 182.19 187.22 Z M 181.33 186.75 L 180.45 186.25 C 179.71 185.84 178.78 186.10 178.36 186.84 C 177.95 187.58 178.21 188.51 178.95 188.92 L 179.83 189.42 C 180.57 189.83 181.50 189.57 181.91 188.83 C 182.33 188.09 182.07 187.16 181.33 186.75 Z M 180.43 186.27 L 179.52 185.77 C 178.79 185.36 177.87 185.63 177.47 186.36 C 177.07 187.09 177.33 188.01 178.06 188.41 L 178.97 188.91 C 179.70 189.31 180.62 189.05 181.02 188.32 C 181.42 187.59 181.16 186.67 180.43 186.27 Z M 179.50 185.78 L 178.57 185.28 C 177.85 184.88 176.95 185.15 176.56 185.87 C 176.17 186.59 176.43 187.49 177.15 187.88 L 178.08 188.39 C 178.80 188.78 179.70 188.52 180.09 187.80 C 180.49 187.08 180.22 186.18 179.50 185.78 Z M 178.56 185.30 L 177.62 184.79 C 176.91 184.40 176.02 184.66 175.64 185.37 C 175.25 186.08 175.51 186.97 176.22 187.35 L 177.16 187.86 C 177.87 188.25 178.76 187.99 179.15 187.28 C 179.53 186.57 179.27 185.68 178.56 185.30 Z M 177.61 184.80 L 177.47 184.72 C 176.77 184.34 175.89 184.60 175.51 185.31 C 175.13 186.01 175.39 186.89 176.09 187.27 L 176.23 187.34 C 176.93 187.72 177.81 187.46 178.19 186.76 C 178.57 186.06 178.31 185.18 177.61 184.80 Z"
      fill="black"
      fill-rule="nonzero" /></svg>