<svg xmlns="http://www.w3.org/2000/svg" width="300" height="300" viewBox="0 0 300 300">
<path d="M 133.56 108.38 L 133.59 109.44 C 133.61 110.30 134.32 110.97 135.17 110.95 C 136.03 110.93 136.70 110.22 136.68 109.37 L 136.66 108.30 C 136.64 107.45 135.93 106.77 135.08 106.79 C 134.22 106.81 133.54 107.52 133.56 108.38 Z M 133.56 109.44 L 133.59 110.49 C 133.61 111.36 134.33 112.05 135.20 112.03 C 136.07 112.01 136.75 111.29 136.73 110.42 L 136.71 109.37 C 136.69 108.50 135.97 107.81 135.10 107.83 C 134.23 107.85 133.54 108.57 133.56 109.44 Z M 133.56 110.49 L 133.59 111.51 C 133.61 112.40 134.34 113.09 135.22 113.07 C 136.11 113.05 136.80 112.32 136.78 111.44 L 136.76 110.41 C 136.74 109.53 136.00 108.83 135.12 108.86 C 134.24 108.88 133.54 109.61 133.56 110.49 Z M 133.56 111.52 L 133.59 112.50 C 133.61 113.39 134.36 114.10 135.25 114.08 C 136.15 114.06 136.86 113.31 136.83 112.41 L 136.81 111.43 C 136.79 110.54 136.04 109.83 135.14 109.85 C 134.25 109.88 133.54 110.62 133.56 111.52 Z M 133.56 112.50 L 133.59 113.42 C 133.61 114.33 134.37 115.05 135.28 115.03 C 136.19 115.00 136.91 114.25 136.88 113.34 L 136.86 112.41 C 136.83 111.50 136.08 110.78 135.17 110.81 C 134.26 110.83 133.54 111.59 133.56 112.50 Z M 133.57 113.43 L 133.60 114.47 C 133.63 115.38 134.40 116.11 135.31 116.08 C 136.23 116.05 136.96 115.29 136.93 114.37 L 136.90 113.33 C 136.87 112.41 136.11 111.69 135.19 111.72 C 134.27 111.74 133.54 112.51 133.57 113.43 Z M 133.60 114.47 L 133.63 115.50 C 133.66 116.43 134.43 117.15 135.35 117.12 C 136.27 117.09 137.00 116.32 136.97 115.40 L 136.93 114.36 C 136.90 113.44 136.13 112.72 135.21 112.75 C 134.29 112.78 133.57 113.55 133.60 114.47 Z M 133.63 115.51 L 133.66 116.47 C 133.70 117.40 134.47 118.12 135.39 118.08 C 136.31 118.05 137.03 117.28 137.00 116.36 L 136.97 115.39 C 136.93 114.47 136.16 113.75 135.24 113.78 C 134.32 113.82 133.60 114.59 133.63 115.51 Z M 133.66 116.48 L 133.70 117.42 C 133.73 118.34 134.50 119.06 135.42 119.02 C 136.34 118.99 137.06 118.22 137.03 117.30 L 137.00 116.36 C 136.97 115.44 136.19 114.72 135.27 114.75 C 134.35 114.78 133.63 115.56 133.66 116.48 Z M 133.70 117.41 L 133.73 118.36 C 133.76 119.28 134.54 120.00 135.46 119.97 C 136.38 119.94 137.10 119.17 137.07 118.25 L 137.03 117.30 C 137.00 116.38 136.23 115.66 135.31 115.69 C 134.39 115.72 133.67 116.49 133.70 117.41 Z M 133.73 118.36 L 133.76 119.33 C 133.79 120.25 134.56 120.98 135.48 120.95 C 136.40 120.92 137.13 120.15 137.10 119.23 L 137.07 118.25 C 137.04 117.33 136.26 116.61 135.34 116.64 C 134.42 116.67 133.70 117.44 133.73 118.36 Z M 133.76 119.33 L 133.79 120.33 C 133.82 121.25 134.58 121.98 135.50 121.95 C 136.43 121.92 137.15 121.16 137.12 120.24 L 137.10 119.23 C 137.07 118.31 136.30 117.59 135.38 117.61 C 134.46 117.64 133.74 118.41 133.76 119.33 Z M 133.79 120.32 L 133.81 121.35 C 133.83 122.27 134.60 123.00 135.52 122.98 C 136.44 122.96 137.17 122.20 137.15 121.28 L 137.12 120.25 C 137.10 119.33 136.34 118.60 135.42 118.62 C 134.50 118.64 133.77 119.40 133.79 120.32 Z M 133.81 121.34 L 133.83 122.32 C 133.84 123.24 134.60 123.98 135.52 123.96 C 136.44 123.95 137.17 123.19 137.16 122.27 L 137.15 121.29 C 137.13 120.37 136.38 119.64 135.46 119.65 C 134.54 119.66 133.80 120.42 133.81 121.34 Z M 133.83 122.31 L 133.84 123.28 C 133.84 124.20 134.60 124.94 135.52 124.93 C 136.44 124.92 137.18 124.17 137.17 123.25 L 137.16 122.28 C 137.15 121.36 136.40 120.62 135.48 120.63 C 134.56 120.64 133.82 121.39 133.83 122.31 Z M 133.84 123.27 L 133.84 124.27 C 133.85 125.19 134.59 125.93 135.51 125.93 C 136.43 125.92 137.18 125.18 137.17 124.26 L 137.17 123.26 C 137.16 122.34 136.42 121.60 135.50 121.60 C 134.58 121.60 133.83 122.35 133.84 123.27 Z M 133.84 124.26 L 133.84 125.29 C 133.84 126.21 134.59 126.95 135.51 126.95 C 136.43 126.95 137.17 126.21 137.17 125.29 L 137.17 124.26 C 137.17 123.34 136.42 122.60 135.50 122.60 C 134.59 122.60 133.84 123.35 133.84 124.26 Z M 133.84 125.29 L 133.84 126.33 C 133.84 127.25 134.59 127.99 135.51 127.99 C 136.43 127.99 137.17 127.25 137.17 126.33 L 137.17 125.29 C 137.17 124.37 136.43 123.62 135.51 123.62 C 134.59 123.63 133.84 124.37 133.84 125.29 Z M 133.85 126.33 L 133.85 127.29 C 133.84 128.21 134.59 128.95 135.51 128.95 C 136.43 128.95 137.17 128.21 137.17 127.29 L 137.17 126.33 C 137.17 125.41 136.43 124.66 135.51 124.66 C 134.59 124.66 133.85 125.41 133.85 126.33 Z M 133.85 127.29 L 133.84 128.27 C 133.84 129.19 134.59 129.94 135.50 129.94 C 136.42 129.94 137.17 129.20 137.17 128.28 L 137.17 127.29 C 137.17 126.38 136.43 125.63 135.51 125.63 C 134.59 125.63 133.85 126.37 133.85 127.29 Z M 133.85 128.27 L 133.84 129.28 C 133.84 130.19 134.58 130.94 135.50 130.94 C 136.41 130.95 137.16 130.21 137.16 129.29 L 137.17 128.28 C 137.17 127.37 136.43 126.62 135.51 126.62 C 134.60 126.61 133.85 127.35 133.85 128.27 Z M 133.84 129.27 L 133.84 130.29 C 133.83 131.21 134.57 131.96 135.49 131.96 C 136.40 131.97 137.15 131.23 137.16 130.31 L 137.16 129.29 C 137.17 128.38 136.43 127.63 135.51 127.62 C 134.60 127.62 133.85 128.36 133.84 129.27 Z M 133.84 130.29 L 133.83 131.32 C 133.82 132.23 134.55 132.98 135.47 132.99 C 136.38 133.00 137.13 132.27 137.14 131.35 L 137.15 130.32 C 137.16 129.41 136.43 128.66 135.51 128.65 C 134.60 128.64 133.85 129.37 133.84 130.29 Z M 133.83 131.31 L 133.81 132.29 C 133.80 133.21 134.53 133.96 135.44 133.97 C 136.36 133.99 137.11 133.26 137.13 132.34 L 137.14 131.36 C 137.16 130.44 136.43 129.69 135.51 129.68 C 134.60 129.66 133.84 130.39 133.83 131.31 Z M 133.82 132.28 L 133.79 133.27 C 133.77 134.19 134.50 134.94 135.41 134.96 C 136.32 134.98 137.08 134.26 137.10 133.35 L 137.12 132.35 C 137.14 131.44 136.42 130.68 135.51 130.66 C 134.59 130.64 133.84 131.37 133.82 132.28 Z M 133.80 133.26 L 133.76 134.26 C 133.73 135.17 134.45 135.93 135.36 135.96 C 136.27 135.99 137.04 135.27 137.07 134.36 L 137.10 133.36 C 137.13 132.45 136.41 131.69 135.50 131.66 C 134.59 131.63 133.83 132.34 133.80 133.26 Z M 133.77 134.24 L 133.72 135.24 C 133.68 136.15 134.39 136.92 135.30 136.96 C 136.21 137.00 136.98 136.30 137.02 135.39 L 137.06 134.38 C 137.10 133.47 136.40 132.70 135.49 132.66 C 134.58 132.62 133.81 133.33 133.77 134.24 Z M 133.73 135.22 L 133.67 136.23 C 133.61 137.14 134.31 137.92 135.22 137.97 C 136.12 138.02 136.90 137.33 136.96 136.42 L 137.02 135.41 C 137.07 134.50 136.38 133.72 135.47 133.67 C 134.56 133.62 133.78 134.31 133.73 135.22 Z M 133.67 136.20 L 133.60 137.19 C 133.53 138.10 134.21 138.89 135.12 138.96 C 136.02 139.03 136.81 138.35 136.88 137.44 L 136.95 136.45 C 137.02 135.54 136.34 134.75 135.43 134.68 C 134.53 134.62 133.74 135.30 133.67 136.20 Z M 133.60 137.17 L 133.51 138.15 C 133.43 139.06 134.10 139.85 135.00 139.94 C 135.90 140.02 136.70 139.35 136.78 138.45 L 136.87 137.47 C 136.96 136.56 136.29 135.76 135.39 135.68 C 134.48 135.60 133.68 136.27 133.60 137.17 Z M 133.52 138.13 L 133.41 139.12 C 133.32 140.02 133.97 140.83 134.87 140.92 C 135.78 141.01 136.58 140.36 136.68 139.46 L 136.78 138.47 C 136.87 137.57 136.22 136.76 135.32 136.67 C 134.42 136.58 133.61 137.23 133.52 138.13 Z M 133.42 139.10 L 133.30 140.09 C 133.20 140.99 133.84 141.80 134.74 141.91 C 135.64 142.01 136.45 141.37 136.55 140.47 L 136.67 139.48 C 136.78 138.58 136.13 137.77 135.24 137.66 C 134.34 137.56 133.53 138.20 133.42 139.10 Z M 133.31 140.08 L 133.18 141.08 C 133.07 141.97 133.70 142.79 134.60 142.91 C 135.49 143.02 136.31 142.39 136.42 141.49 L 136.55 140.49 C 136.66 139.60 136.03 138.78 135.14 138.66 C 134.24 138.55 133.42 139.18 133.31 140.08 Z M 133.19 141.07 L 133.05 142.08 C 132.93 142.97 133.55 143.79 134.44 143.91 C 135.34 144.03 136.16 143.41 136.28 142.52 L 136.42 141.51 C 136.54 140.61 135.91 139.79 135.02 139.67 C 134.13 139.55 133.31 140.17 133.19 141.07 Z M 133.05 142.07 L 132.91 143.08 C 132.78 143.97 133.40 144.79 134.29 144.92 C 135.18 145.05 136.00 144.43 136.13 143.54 L 136.27 142.53 C 136.40 141.64 135.78 140.81 134.89 140.69 C 134.01 140.56 133.18 141.18 133.05 142.07 Z M 132.92 143.07 L 132.76 144.08 C 132.63 144.97 133.24 145.79 134.13 145.93 C 135.01 146.06 135.84 145.45 135.97 144.56 L 136.12 143.55 C 136.26 142.67 135.65 141.84 134.76 141.71 C 133.87 141.57 133.05 142.18 132.92 143.07 Z M 132.77 144.07 L 132.61 145.08 C 132.47 145.96 133.08 146.79 133.96 146.92 C 134.84 147.06 135.67 146.46 135.81 145.58 L 135.96 144.57 C 136.10 143.69 135.50 142.86 134.62 142.73 C 133.74 142.59 132.91 143.19 132.77 144.07 Z M 132.62 145.07 L 132.46 146.05 C 132.31 146.93 132.91 147.76 133.79 147.90 C 134.67 148.05 135.50 147.45 135.64 146.57 L 135.80 145.59 C 135.94 144.71 135.35 143.88 134.47 143.73 C 133.59 143.59 132.76 144.19 132.62 145.07 Z M 132.46 146.04 L 132.30 147.00 C 132.15 147.87 132.74 148.70 133.61 148.85 C 134.49 149.00 135.32 148.41 135.47 147.54 L 135.63 146.58 C 135.78 145.71 135.19 144.87 134.32 144.72 C 133.44 144.57 132.61 145.16 132.46 146.04 Z M 132.31 146.98 L 132.13 147.98 C 131.97 148.85 132.55 149.68 133.42 149.84 C 134.30 149.99 135.13 149.41 135.29 148.54 L 135.46 147.55 C 135.62 146.68 135.04 145.84 134.17 145.69 C 133.30 145.53 132.46 146.11 132.31 146.98 Z M 132.14 147.97 L 131.94 149.01 C 131.78 149.88 132.35 150.71 133.22 150.87 C 134.08 151.04 134.92 150.46 135.08 149.60 L 135.28 148.55 C 135.44 147.69 134.87 146.85 134.00 146.69 C 133.13 146.53 132.30 147.10 132.14 147.97 Z M 131.95 149.00 L 131.76 150.00 C 131.59 150.86 132.16 151.69 133.02 151.86 C 133.88 152.03 134.72 151.46 134.88 150.60 L 135.07 149.60 C 135.24 148.74 134.67 147.91 133.81 147.74 C 132.95 147.58 132.12 148.14 131.95 149.00 Z M 131.76 150.00 L 131.58 150.95 C 131.41 151.81 131.97 152.64 132.83 152.81 C 133.69 152.97 134.52 152.41 134.69 151.55 L 134.87 150.60 C 135.04 149.74 134.48 148.91 133.62 148.74 C 132.76 148.58 131.93 149.14 131.76 150.00 Z M 131.59 150.95 L 131.41 151.87 C 131.24 152.73 131.80 153.56 132.66 153.72 C 133.51 153.88 134.34 153.32 134.51 152.47 L 134.68 151.55 C 134.85 150.69 134.29 149.87 133.43 149.70 C 132.58 149.54 131.75 150.10 131.59 150.95 Z M 131.41 151.89 L 131.24 152.82 C 131.08 153.68 131.65 154.49 132.50 154.65 C 133.35 154.81 134.17 154.25 134.33 153.39 L 134.50 152.46 C 134.66 151.60 134.09 150.79 133.24 150.63 C 132.39 150.47 131.57 151.03 131.41 151.89 Z M 131.24 152.85 L 131.08 153.80 C 130.94 154.65 131.51 155.45 132.36 155.60 C 133.21 155.74 134.02 155.17 134.16 154.32 L 134.32 153.37 C 134.47 152.52 133.89 151.71 133.04 151.57 C 132.19 151.43 131.39 152.00 131.24 152.85 Z M 131.09 153.84 L 130.95 154.81 C 130.83 155.66 131.42 156.44 132.26 156.56 C 133.11 156.69 133.90 156.10 134.02 155.25 L 134.16 154.28 C 134.28 153.43 133.69 152.64 132.84 152.52 C 131.99 152.40 131.21 152.99 131.09 153.84 Z M 130.95 154.86 L 130.84 155.87 C 130.74 156.72 131.35 157.49 132.20 157.58 C 133.05 157.67 133.81 157.06 133.91 156.21 L 134.02 155.20 C 134.11 154.35 133.50 153.58 132.65 153.49 C 131.81 153.40 131.04 154.01 130.95 154.86 Z M 130.84 155.93 L 130.76 156.95 C 130.70 157.80 131.33 158.54 132.18 158.60 C 133.03 158.67 133.76 158.03 133.83 157.18 L 133.91 156.16 C 133.97 155.31 133.34 154.57 132.49 154.51 C 131.64 154.45 130.90 155.08 130.84 155.93 Z M 130.77 157.00 L 130.72 157.93 C 130.68 158.77 131.33 159.49 132.18 159.53 C 133.02 159.57 133.74 158.92 133.78 158.07 L 133.82 157.14 C 133.86 156.30 133.21 155.58 132.37 155.54 C 131.52 155.50 130.81 156.15 130.77 157.00 Z M 130.73 157.96 L 130.70 158.94 C 130.68 159.78 131.34 160.48 132.18 160.50 C 133.02 160.53 133.72 159.86 133.75 159.02 L 133.77 158.04 C 133.80 157.20 133.13 156.50 132.29 156.48 C 131.45 156.45 130.75 157.12 130.73 157.96 Z M 130.71 158.96 L 130.69 159.97 C 130.68 160.81 131.35 161.50 132.19 161.51 C 133.02 161.52 133.71 160.85 133.73 160.02 L 133.74 159.00 C 133.75 158.16 133.08 157.47 132.25 157.46 C 131.41 157.45 130.72 158.12 130.71 158.96 Z M 130.70 159.98 L 130.69 161.02 C 130.69 161.86 131.36 162.54 132.19 162.54 C 133.03 162.55 133.71 161.87 133.71 161.04 L 133.72 160.00 C 133.72 159.17 133.05 158.49 132.22 158.48 C 131.38 158.48 130.70 159.15 130.70 159.98 Z M 130.70 161.03 L 130.70 162.08 C 130.70 162.91 131.37 163.59 132.20 163.59 C 133.03 163.59 133.70 162.92 133.70 162.09 L 133.71 161.03 C 133.71 160.20 133.03 159.53 132.20 159.53 C 131.37 159.53 130.70 160.20 130.70 161.03 Z M 130.70 162.08 L 130.70 162.32 C 130.70 163.14 131.37 163.81 132.20 163.81 C 133.03 163.81 133.70 163.14 133.70 162.32 L 133.70 162.08 C 133.70 161.26 133.03 160.58 132.20 160.58 C 131.37 160.58 130.70 161.26 130.70 162.08 Z"
      fill="black"
      fill-rule="nonzero" /><path d="M 136.34 102.52 L 135.69 101.66 C 135.18 100.98 134.22 100.85 133.54 101.36 C 132.86 101.87 132.73 102.83 133.24 103.50 L 133.89 104.37 C 134.40 105.04 135.36 105.18 136.03 104.67 C 136.71 104.16 136.85 103.20 136.34 102.52 Z M 135.68 101.65 L 135.03 100.80 C 134.52 100.13 133.55 100.00 132.88 100.52 C 132.20 101.03 132.08 102.00 132.59 102.67 L 133.24 103.52 C 133.76 104.19 134.72 104.32 135.40 103.80 C 136.07 103.28 136.20 102.32 135.68 101.65 Z M 135.02 100.77 L 134.38 99.97 C 133.84 99.30 132.87 99.20 132.21 99.73 C 131.54 100.26 131.43 101.23 131.96 101.90 L 132.61 102.70 C 133.14 103.37 134.11 103.47 134.78 102.94 C 135.44 102.41 135.55 101.44 135.02 100.77 Z M 134.35 99.93 L 133.71 99.18 C 133.16 98.53 132.18 98.46 131.53 99.01 C 130.88 99.57 130.80 100.54 131.36 101.19 L 131.99 101.94 C 132.55 102.59 133.53 102.66 134.18 102.11 C 134.83 101.55 134.90 100.58 134.35 99.93 Z M 133.66 99.12 L 133.04 98.46 C 132.45 97.84 131.47 97.81 130.84 98.39 C 130.22 98.98 130.19 99.97 130.78 100.59 L 131.40 101.25 C 131.99 101.88 132.98 101.91 133.60 101.32 C 134.22 100.73 134.25 99.75 133.66 99.12 Z M 132.95 98.35 L 132.04 97.55 C 131.39 96.97 130.40 97.03 129.83 97.68 C 129.26 98.33 129.31 99.32 129.96 99.89 L 130.87 100.70 C 131.52 101.27 132.51 101.21 133.08 100.56 C 133.65 99.92 133.59 98.93 132.95 98.35 Z M 131.92 97.42 L 130.92 96.70 C 130.20 96.19 129.20 96.36 128.69 97.08 C 128.18 97.80 128.35 98.80 129.07 99.31 L 130.08 100.02 C 130.80 100.53 131.79 100.36 132.30 99.64 C 132.81 98.92 132.64 97.93 131.92 97.42 Z M 130.91 96.65 L 130.35 96.27 C 129.60 95.77 128.58 95.97 128.08 96.72 C 127.57 97.47 127.77 98.48 128.52 98.99 L 129.08 99.36 C 129.83 99.87 130.84 99.67 131.35 98.92 C 131.86 98.17 131.66 97.15 130.91 96.65 Z M 130.02 99.19 L 130.24 99.11 C 131.10 98.79 131.54 97.83 131.22 96.97 C 130.90 96.11 129.94 95.67 129.08 95.99 L 128.86 96.07 C 128.00 96.39 127.56 97.35 127.88 98.21 C 128.20 99.07 129.16 99.51 130.02 99.19 Z M 129.40 99.20 L 130.48 99.37 C 131.39 99.52 132.25 98.90 132.39 97.98 C 132.54 97.07 131.92 96.21 131.00 96.07 L 129.92 95.90 C 129.01 95.75 128.15 96.37 128.01 97.29 C 127.86 98.20 128.48 99.06 129.40 99.20 Z M 130.46 99.37 L 131.68 99.58 C 132.59 99.74 133.46 99.12 133.62 98.21 C 133.77 97.30 133.16 96.43 132.24 96.28 L 131.02 96.07 C 130.11 95.91 129.24 96.53 129.09 97.44 C 128.93 98.35 129.54 99.22 130.46 99.37 Z M 131.72 99.59 L 132.65 99.73 C 133.56 99.86 134.41 99.23 134.55 98.31 C 134.68 97.39 134.05 96.54 133.13 96.40 L 132.21 96.27 C 131.29 96.13 130.44 96.77 130.30 97.69 C 130.17 98.60 130.80 99.45 131.72 99.59 Z M 132.68 99.73 L 133.67 99.85 C 134.59 99.97 135.43 99.31 135.54 98.39 C 135.65 97.47 135.00 96.64 134.08 96.52 L 133.10 96.40 C 132.18 96.29 131.34 96.94 131.22 97.86 C 131.11 98.78 131.76 99.62 132.68 99.73 Z M 133.71 99.86 L 134.75 99.96 C 135.67 100.05 136.50 99.38 136.59 98.46 C 136.68 97.54 136.01 96.72 135.09 96.62 L 134.04 96.52 C 133.12 96.43 132.30 97.10 132.21 98.02 C 132.11 98.94 132.79 99.76 133.71 99.86 Z M 134.79 99.96 L 135.81 100.04 C 136.73 100.11 137.54 99.42 137.61 98.50 C 137.68 97.58 136.99 96.77 136.07 96.70 L 135.05 96.62 C 134.13 96.55 133.32 97.24 133.25 98.16 C 133.18 99.09 133.87 99.89 134.79 99.96 Z M 135.84 100.04 L 136.73 100.10 C 137.65 100.15 138.44 99.44 138.50 98.52 C 138.55 97.60 137.84 96.80 136.92 96.75 L 136.03 96.70 C 135.11 96.65 134.32 97.35 134.26 98.28 C 134.21 99.20 134.92 99.99 135.84 100.04 Z M 136.75 100.10 L 137.69 100.14 C 138.61 100.18 139.39 99.46 139.43 98.53 C 139.47 97.61 138.75 96.83 137.83 96.79 L 136.89 96.75 C 135.97 96.71 135.19 97.43 135.15 98.35 C 135.11 99.28 135.83 100.06 136.75 100.10 Z M 137.71 100.14 L 138.70 100.17 C 139.63 100.19 140.40 99.47 140.43 98.54 C 140.46 97.62 139.73 96.85 138.80 96.82 L 137.81 96.79 C 136.88 96.76 136.11 97.49 136.08 98.41 C 136.06 99.34 136.78 100.11 137.71 100.14 Z M 138.72 100.17 L 139.79 100.19 C 140.71 100.21 141.48 99.47 141.50 98.55 C 141.51 97.62 140.78 96.86 139.86 96.84 L 138.79 96.82 C 137.86 96.80 137.10 97.53 137.08 98.46 C 137.06 99.38 137.80 100.15 138.72 100.17 Z M 139.80 100.19 L 140.95 100.20 C 141.88 100.21 142.64 99.47 142.65 98.55 C 142.66 97.63 141.92 96.87 141.00 96.86 L 139.84 96.84 C 138.92 96.83 138.16 97.57 138.15 98.49 C 138.14 99.42 138.88 100.18 139.80 100.19 Z M 140.96 100.20 L 141.92 100.21 C 142.84 100.22 143.60 99.47 143.61 98.55 C 143.61 97.63 142.87 96.87 141.95 96.86 L 140.99 96.85 C 140.06 96.85 139.31 97.59 139.30 98.51 C 139.29 99.44 140.04 100.20 140.96 100.20 Z M 141.93 100.21 L 142.92 100.21 C 143.85 100.22 144.60 99.47 144.60 98.54 C 144.60 97.62 143.86 96.87 142.93 96.86 L 141.94 96.86 C 141.01 96.86 140.26 97.61 140.26 98.53 C 140.25 99.46 141.00 100.21 141.93 100.21 Z M 142.93 100.22 L 143.95 100.21 C 144.88 100.21 145.63 99.45 145.62 98.53 C 145.62 97.60 144.86 96.85 143.94 96.86 L 142.92 96.86 C 141.99 96.87 141.24 97.62 141.25 98.55 C 141.25 99.47 142.01 100.22 142.93 100.22 Z M 143.97 100.21 L 145.00 100.20 C 145.93 100.18 146.67 99.42 146.65 98.50 C 146.64 97.57 145.88 96.83 144.95 96.84 L 143.92 96.86 C 143.00 96.87 142.26 97.63 142.27 98.56 C 142.28 99.48 143.04 100.23 143.97 100.21 Z M 145.02 100.20 L 146.05 100.17 C 146.97 100.15 147.70 99.38 147.68 98.45 C 147.66 97.52 146.88 96.79 145.96 96.81 L 144.93 96.84 C 144.01 96.87 143.27 97.64 143.30 98.56 C 143.32 99.49 144.09 100.22 145.02 100.20 Z M 146.07 100.17 L 147.08 100.13 C 148.00 100.09 148.72 99.31 148.68 98.38 C 148.65 97.46 147.86 96.73 146.94 96.77 L 145.93 96.81 C 145.01 96.85 144.29 97.64 144.32 98.56 C 144.36 99.49 145.14 100.21 146.07 100.17 Z M 147.11 100.13 L 148.09 100.07 C 149.01 100.01 149.72 99.22 149.66 98.29 C 149.61 97.36 148.81 96.66 147.88 96.71 L 146.90 96.77 C 145.98 96.83 145.27 97.63 145.33 98.55 C 145.38 99.48 146.18 100.19 147.11 100.13 Z M 148.13 100.07 L 149.26 99.97 C 150.19 99.89 150.87 99.07 150.79 98.15 C 150.71 97.22 149.90 96.54 148.97 96.62 L 147.84 96.72 C 146.91 96.80 146.23 97.61 146.31 98.54 C 146.39 99.46 147.20 100.15 148.13 100.07 Z M 149.31 99.97 L 150.37 99.84 C 151.29 99.74 151.96 98.90 151.85 97.97 C 151.74 97.05 150.90 96.39 149.98 96.50 L 148.92 96.62 C 148.00 96.73 147.33 97.56 147.44 98.49 C 147.55 99.41 148.39 100.08 149.31 99.97 Z M 150.42 99.84 L 151.41 99.70 C 152.33 99.56 152.97 98.71 152.84 97.78 C 152.70 96.86 151.85 96.22 150.93 96.36 L 149.93 96.50 C 149.01 96.63 148.37 97.49 148.50 98.41 C 148.64 99.33 149.49 99.97 150.42 99.84 Z M 151.45 99.69 L 152.39 99.53 C 153.31 99.37 153.93 98.50 153.77 97.58 C 153.61 96.66 152.74 96.04 151.82 96.20 L 150.88 96.36 C 149.96 96.52 149.34 97.39 149.50 98.31 C 149.66 99.23 150.53 99.85 151.45 99.69 Z M 152.43 99.53 L 153.31 99.36 C 154.23 99.18 154.83 98.29 154.65 97.37 C 154.47 96.46 153.59 95.86 152.67 96.03 L 151.78 96.20 C 150.87 96.38 150.26 97.27 150.44 98.19 C 150.62 99.10 151.51 99.71 152.43 99.53 Z M 153.34 99.35 L 154.27 99.16 C 155.19 98.96 155.77 98.06 155.58 97.15 C 155.39 96.23 154.49 95.64 153.57 95.84 L 152.64 96.04 C 151.72 96.23 151.14 97.13 151.33 98.05 C 151.52 98.96 152.42 99.55 153.34 99.35 Z M 154.30 99.16 L 155.29 98.93 C 156.20 98.72 156.77 97.80 156.56 96.89 C 156.35 95.97 155.44 95.40 154.52 95.61 L 153.54 95.84 C 152.62 96.05 152.05 96.97 152.26 97.88 C 152.47 98.80 153.39 99.37 154.30 99.16 Z M 155.33 98.93 L 156.28 98.68 C 157.20 98.45 157.75 97.52 157.51 96.60 C 157.28 95.69 156.35 95.14 155.44 95.37 L 154.48 95.62 C 153.57 95.85 153.02 96.78 153.25 97.69 C 153.48 98.61 154.41 99.16 155.33 98.93 Z M 156.33 98.68 L 157.27 98.41 C 158.18 98.15 158.71 97.20 158.46 96.29 C 158.20 95.38 157.25 94.85 156.34 95.11 L 155.39 95.38 C 154.48 95.63 153.95 96.58 154.21 97.49 C 154.47 98.40 155.41 98.93 156.33 98.68 Z M 157.32 98.40 L 158.27 98.10 C 159.18 97.82 159.69 96.86 159.41 95.95 C 159.12 95.04 158.16 94.53 157.25 94.82 L 156.29 95.12 C 155.39 95.40 154.88 96.36 155.16 97.27 C 155.44 98.18 156.41 98.69 157.32 98.40 Z M 158.31 98.11 L 159.51 97.71 C 160.42 97.40 160.91 96.42 160.60 95.51 C 160.30 94.60 159.31 94.11 158.40 94.41 L 157.21 94.81 C 156.30 95.12 155.81 96.11 156.11 97.01 C 156.42 97.92 157.41 98.41 158.31 98.11 Z M 159.49 97.74 L 160.61 97.38 C 161.54 97.09 162.05 96.10 161.76 95.17 C 161.46 94.24 160.47 93.73 159.54 94.02 L 158.42 94.38 C 157.49 94.67 156.98 95.67 157.28 96.59 C 157.57 97.52 158.56 98.04 159.49 97.74 Z M 160.44 97.46 L 161.30 97.28 C 162.27 97.07 162.89 96.13 162.69 95.16 C 162.48 94.19 161.54 93.57 160.57 93.77 L 159.71 93.95 C 158.74 94.15 158.12 95.10 158.32 96.07 C 158.53 97.04 159.47 97.66 160.44 97.46 Z M 160.40 97.26 L 160.85 97.40 C 161.81 97.69 162.82 97.16 163.12 96.20 C 163.41 95.24 162.88 94.23 161.92 93.93 L 161.47 93.79 C 160.51 93.50 159.50 94.03 159.20 94.99 C 158.91 95.95 159.44 96.96 160.40 97.26 Z M 159.59 95.33 L 159.47 95.98 C 159.28 96.97 159.93 97.93 160.92 98.11 C 161.91 98.30 162.87 97.65 163.05 96.66 L 163.18 96.00 C 163.37 95.01 162.71 94.06 161.73 93.87 C 160.74 93.69 159.78 94.34 159.59 95.33 Z M 159.64 95.49 L 159.11 96.51 C 158.65 97.41 159.01 98.50 159.90 98.97 C 160.80 99.43 161.90 99.07 162.36 98.18 L 162.88 97.16 C 163.34 96.26 162.99 95.16 162.10 94.70 C 161.20 94.24 160.10 94.59 159.64 95.49 Z M 159.10 96.54 L 158.57 97.62 C 158.13 98.52 158.50 99.61 159.40 100.06 C 160.31 100.50 161.40 100.13 161.84 99.23 L 162.37 98.15 C 162.82 97.24 162.44 96.15 161.54 95.71 C 160.64 95.26 159.54 95.64 159.10 96.54 Z M 158.50 97.78 L 158.15 98.70 C 157.80 99.64 158.27 100.69 159.21 101.05 C 160.15 101.40 161.21 100.93 161.56 99.99 L 161.91 99.07 C 162.27 98.13 161.79 97.07 160.85 96.72 C 159.91 96.36 158.86 96.83 158.50 97.78 Z M 158.11 98.83 L 157.83 99.78 C 157.55 100.74 158.10 101.76 159.06 102.04 C 160.03 102.32 161.04 101.77 161.32 100.81 L 161.60 99.86 C 161.89 98.89 161.34 97.88 160.37 97.60 C 159.41 97.31 158.40 97.86 158.11 98.83 Z M 157.81 99.87 L 157.58 100.86 C 157.34 101.83 157.95 102.81 158.92 103.05 C 159.90 103.28 160.88 102.67 161.11 101.70 L 161.35 100.71 C 161.58 99.74 160.97 98.76 160.00 98.53 C 159.02 98.29 158.04 98.90 157.81 99.87 Z M 157.56 100.92 L 157.38 101.85 C 157.18 102.83 157.81 103.79 158.80 103.99 C 159.78 104.19 160.74 103.55 160.94 102.57 L 161.12 101.64 C 161.32 100.65 160.69 99.70 159.70 99.50 C 158.72 99.30 157.76 99.93 157.56 100.92 Z M 157.37 101.89 L 157.21 102.76 C 157.04 103.74 157.69 104.69 158.68 104.86 C 159.66 105.04 160.61 104.39 160.78 103.40 L 160.94 102.53 C 161.12 101.54 160.46 100.60 159.48 100.42 C 158.49 100.24 157.55 100.90 157.37 101.89 Z M 157.21 102.79 L 157.06 103.73 C 156.90 104.71 157.58 105.64 158.56 105.80 C 159.55 105.96 160.48 105.28 160.64 104.30 L 160.79 103.36 C 160.95 102.38 160.27 101.45 159.28 101.29 C 158.30 101.13 157.37 101.80 157.21 102.79 Z M 157.06 103.76 L 156.91 104.78 C 156.77 105.77 157.46 106.68 158.45 106.82 C 159.45 106.96 160.36 106.27 160.50 105.28 L 160.64 104.26 C 160.78 103.27 160.09 102.36 159.10 102.22 C 158.11 102.08 157.20 102.77 157.06 103.76 Z M 156.91 104.81 L 156.77 105.94 C 156.65 106.93 157.35 107.84 158.34 107.96 C 159.34 108.08 160.24 107.38 160.36 106.39 L 160.50 105.25 C 160.62 104.26 159.92 103.36 158.93 103.24 C 157.94 103.11 157.03 103.82 156.91 104.81 Z M 156.77 105.97 L 156.66 107.00 C 156.55 107.99 157.26 108.88 158.25 108.99 C 159.25 109.10 160.14 108.39 160.25 107.39 L 160.36 106.36 C 160.47 105.37 159.76 104.48 158.77 104.37 C 157.77 104.26 156.88 104.97 156.77 105.97 Z M 156.66 107.01 L 156.55 108.02 C 156.45 109.01 157.17 109.90 158.17 110.00 C 159.16 110.10 160.04 109.38 160.15 108.39 L 160.25 107.38 C 160.35 106.39 159.63 105.50 158.64 105.40 C 157.64 105.30 156.76 106.02 156.66 107.01 Z M 156.55 108.03 L 156.45 109.07 C 156.36 110.06 157.09 110.94 158.08 111.04 C 159.07 111.13 159.95 110.41 160.05 109.41 L 160.15 108.37 C 160.24 107.38 159.51 106.50 158.52 106.41 C 157.53 106.31 156.65 107.04 156.55 108.03 Z M 156.45 109.08 L 156.36 110.12 C 156.27 111.12 157.00 111.99 158.00 112.08 C 158.99 112.17 159.86 111.44 159.95 110.45 L 160.05 109.40 C 160.14 108.41 159.40 107.54 158.41 107.45 C 157.42 107.36 156.54 108.09 156.45 109.08 Z M 156.36 110.13 L 156.28 111.15 C 156.19 112.14 156.93 113.01 157.92 113.10 C 158.91 113.18 159.78 112.45 159.87 111.45 L 159.95 110.44 C 160.04 109.44 159.30 108.57 158.31 108.49 C 157.32 108.41 156.44 109.14 156.36 110.13 Z M 156.28 111.16 L 156.20 112.12 C 156.12 113.11 156.86 113.98 157.85 114.06 C 158.84 114.14 159.71 113.40 159.79 112.41 L 159.87 111.44 C 159.94 110.45 159.20 109.59 158.21 109.51 C 157.22 109.43 156.35 110.17 156.28 111.16 Z M 156.20 112.13 L 156.13 113.18 C 156.05 114.17 156.80 115.03 157.79 115.10 C 158.78 115.18 159.64 114.43 159.71 113.44 L 159.79 112.39 C 159.86 111.40 159.12 110.54 158.12 110.47 C 157.13 110.40 156.27 111.14 156.20 112.13 Z M 156.13 113.20 L 156.06 114.35 C 156.00 115.33 156.75 116.18 157.73 116.25 C 158.72 116.31 159.57 115.56 159.64 114.57 L 159.71 113.42 C 159.77 112.44 159.02 111.59 158.03 111.52 C 157.04 111.46 156.19 112.21 156.13 113.20 Z M 156.07 114.37 L 156.01 115.35 C 155.96 116.33 156.72 117.17 157.70 117.22 C 158.69 117.27 159.53 116.52 159.58 115.53 L 159.63 114.55 C 159.68 113.57 158.92 112.73 157.94 112.68 C 156.96 112.63 156.12 113.38 156.07 114.37 Z M 156.02 115.36 L 155.98 116.24 C 155.94 117.22 156.70 118.05 157.68 118.09 C 158.66 118.13 159.49 117.37 159.53 116.39 L 159.57 115.52 C 159.61 114.54 158.85 113.71 157.87 113.67 C 156.89 113.62 156.06 114.38 156.02 115.36 Z M 155.99 116.25 L 155.96 117.12 C 155.92 118.10 156.68 118.92 157.65 118.96 C 158.63 119.00 159.45 118.24 159.49 117.26 L 159.52 116.39 C 159.56 115.41 158.80 114.59 157.83 114.55 C 156.85 114.51 156.03 115.27 155.99 116.25 Z M 155.96 117.12 L 155.92 118.11 C 155.88 119.08 156.64 119.90 157.61 119.94 C 158.58 119.98 159.40 119.22 159.44 118.25 L 159.48 117.26 C 159.52 116.29 158.77 115.47 157.79 115.43 C 156.82 115.39 156.00 116.15 155.96 117.12 Z M 155.93 118.10 L 155.88 119.09 C 155.84 120.07 156.59 120.89 157.56 120.93 C 158.53 120.97 159.35 120.22 159.40 119.25 L 159.44 118.26 C 159.48 117.29 158.73 116.47 157.76 116.42 C 156.79 116.38 155.97 117.13 155.93 118.10 Z M 155.89 119.08 L 155.83 120.10 C 155.78 121.06 156.53 121.89 157.50 121.94 C 158.46 121.99 159.29 121.24 159.34 120.28 L 159.39 119.26 C 159.44 118.30 158.70 117.47 157.73 117.42 C 156.76 117.37 155.94 118.12 155.89 119.08 Z M 155.84 120.08 L 155.78 121.06 C 155.72 122.02 156.46 122.85 157.42 122.91 C 158.39 122.97 159.22 122.23 159.28 121.27 L 159.33 120.29 C 159.39 119.33 158.66 118.50 157.69 118.44 C 156.72 118.38 155.90 119.12 155.84 120.08 Z M 155.79 121.05 L 155.72 122.04 C 155.66 123.00 156.39 123.83 157.35 123.90 C 158.31 123.96 159.14 123.23 159.21 122.27 L 159.27 121.28 C 159.33 120.31 158.60 119.48 157.64 119.42 C 156.68 119.36 155.85 120.09 155.79 121.05 Z M 155.73 122.03 L 155.66 123.04 C 155.59 124.00 156.31 124.83 157.27 124.90 C 158.23 124.97 159.06 124.24 159.13 123.28 L 159.20 122.27 C 159.27 121.31 158.54 120.48 157.58 120.42 C 156.62 120.35 155.79 121.07 155.73 122.03 Z M 155.66 123.04 L 155.59 124.06 C 155.52 125.01 156.24 125.84 157.20 125.91 C 158.16 125.98 158.99 125.26 159.05 124.30 L 159.13 123.29 C 159.19 122.33 158.47 121.50 157.51 121.43 C 156.56 121.36 155.73 122.09 155.66 123.04 Z M 155.60 124.06 L 155.53 125.04 C 155.46 125.99 156.18 126.82 157.13 126.89 C 158.09 126.95 158.91 126.23 158.98 125.28 L 159.05 124.30 C 159.12 123.34 158.40 122.52 157.44 122.45 C 156.49 122.38 155.66 123.10 155.60 124.06 Z M 155.53 125.03 L 155.46 126.03 C 155.39 126.98 156.11 127.80 157.06 127.87 C 158.01 127.94 158.83 127.23 158.90 126.28 L 158.98 125.28 C 159.04 124.33 158.33 123.51 157.38 123.44 C 156.43 123.37 155.60 124.08 155.53 125.03 Z M 155.46 126.02 L 155.39 127.03 C 155.32 127.98 156.03 128.80 156.97 128.87 C 157.92 128.95 158.75 128.24 158.82 127.29 L 158.90 126.28 C 158.97 125.33 158.26 124.51 157.31 124.43 C 156.36 124.36 155.54 125.07 155.46 126.02 Z M 155.39 127.02 L 155.31 128.02 C 155.23 128.97 155.94 129.80 156.88 129.87 C 157.83 129.95 158.65 129.25 158.73 128.30 L 158.81 127.30 C 158.89 126.35 158.19 125.53 157.25 125.45 C 156.30 125.37 155.47 126.07 155.39 127.02 Z M 155.32 128.01 L 155.23 129.00 C 155.15 129.94 155.84 130.77 156.78 130.85 C 157.72 130.93 158.55 130.24 158.64 129.30 L 158.72 128.31 C 158.81 127.37 158.11 126.54 157.17 126.46 C 156.23 126.38 155.40 127.07 155.32 128.01 Z M 155.24 128.99 L 155.15 129.99 C 155.06 130.92 155.75 131.75 156.69 131.84 C 157.62 131.93 158.45 131.24 158.53 130.30 L 158.63 129.31 C 158.71 128.37 158.03 127.54 157.09 127.46 C 156.16 127.37 155.33 128.06 155.24 128.99 Z M 155.16 129.99 L 155.06 130.99 C 154.97 131.92 155.66 132.74 156.59 132.83 C 157.52 132.92 158.34 132.24 158.43 131.31 L 158.53 130.31 C 158.61 129.38 157.93 128.55 157.00 128.46 C 156.07 128.37 155.25 129.06 155.16 129.99 Z M 155.07 130.99 L 154.97 131.99 C 154.89 132.91 155.56 133.74 156.49 133.82 C 157.41 133.91 158.24 133.24 158.32 132.31 L 158.42 131.31 C 158.51 130.39 157.83 129.56 156.91 129.47 C 155.98 129.39 155.16 130.06 155.07 130.99 Z M 154.98 131.99 L 154.89 132.97 C 154.80 133.89 155.47 134.71 156.39 134.80 C 157.31 134.89 158.13 134.22 158.22 133.30 L 158.32 132.31 C 158.41 131.39 157.73 130.57 156.81 130.48 C 155.89 130.39 155.07 131.07 154.98 131.99 Z M 154.90 132.97 L 154.80 133.96 C 154.71 134.88 155.38 135.69 156.29 135.78 C 157.21 135.87 158.02 135.21 158.11 134.29 L 158.21 133.30 C 158.30 132.38 157.63 131.57 156.72 131.48 C 155.80 131.39 154.99 132.06 154.90 132.97 Z M 154.81 133.96 L 154.71 134.96 C 154.61 135.87 155.27 136.68 156.18 136.77 C 157.09 136.87 157.91 136.20 158.00 135.29 L 158.10 134.29 C 158.20 133.38 157.53 132.57 156.62 132.48 C 155.71 132.38 154.90 133.05 154.81 133.96 Z M 154.72 134.95 L 154.61 135.96 C 154.51 136.86 155.16 137.67 156.07 137.77 C 156.97 137.87 157.79 137.21 157.88 136.31 L 157.99 135.30 C 158.09 134.40 157.43 133.58 156.53 133.49 C 155.62 133.39 154.81 134.04 154.72 134.95 Z M 154.62 135.95 L 154.50 136.96 C 154.40 137.86 155.05 138.67 155.95 138.77 C 156.85 138.87 157.66 138.22 157.76 137.33 L 157.87 136.32 C 157.97 135.42 157.33 134.61 156.43 134.51 C 155.53 134.40 154.72 135.05 154.62 135.95 Z M 154.51 136.96 L 154.40 137.96 C 154.29 138.86 154.93 139.67 155.83 139.77 C 156.72 139.87 157.53 139.23 157.63 138.34 L 157.75 137.33 C 157.85 136.44 157.21 135.63 156.32 135.53 C 155.43 135.42 154.62 136.06 154.51 136.96 Z M 154.41 137.96 L 154.29 138.96 C 154.19 139.84 154.82 140.65 155.71 140.75 C 156.60 140.86 157.40 140.22 157.50 139.34 L 157.62 138.34 C 157.73 137.45 157.09 136.65 156.20 136.55 C 155.32 136.44 154.51 137.08 154.41 137.96 Z M 154.30 138.96 L 154.19 139.92 C 154.08 140.81 154.71 141.60 155.60 141.71 C 156.48 141.81 157.28 141.18 157.38 140.30 L 157.49 139.33 C 157.60 138.45 156.97 137.65 156.09 137.55 C 155.20 137.45 154.40 138.08 154.30 138.96 Z M 154.20 139.93 L 154.08 140.97 C 153.98 141.85 154.60 142.64 155.48 142.74 C 156.36 142.85 157.15 142.22 157.25 141.34 L 157.37 140.29 C 157.47 139.42 156.84 138.63 155.97 138.52 C 155.09 138.42 154.30 139.05 154.20 139.93 Z M 154.09 140.98 L 153.97 141.99 C 153.88 142.86 154.50 143.65 155.37 143.74 C 156.25 143.84 157.03 143.21 157.13 142.34 L 157.24 141.33 C 157.34 140.46 156.71 139.68 155.84 139.58 C 154.97 139.48 154.18 140.11 154.09 140.98 Z M 153.98 142.00 L 153.88 142.97 C 153.79 143.83 154.42 144.61 155.28 144.70 C 156.15 144.79 156.92 144.17 157.01 143.30 L 157.12 142.33 C 157.21 141.47 156.58 140.69 155.72 140.60 C 154.85 140.51 154.08 141.14 153.98 142.00 Z M 153.89 142.98 L 153.80 143.94 C 153.71 144.80 154.34 145.56 155.20 145.65 C 156.06 145.73 156.82 145.11 156.91 144.25 L 157.00 143.29 C 157.09 142.43 156.46 141.66 155.60 141.58 C 154.74 141.49 153.98 142.12 153.89 142.98 Z M 153.81 143.95 L 153.71 144.97 C 153.63 145.82 154.26 146.58 155.11 146.66 C 155.96 146.74 156.72 146.11 156.80 145.26 L 156.90 144.24 C 156.98 143.38 156.35 142.63 155.50 142.55 C 154.64 142.47 153.89 143.09 153.81 143.95 Z M 153.72 144.97 L 153.63 145.96 C 153.55 146.80 154.17 147.55 155.02 147.63 C 155.87 147.71 156.62 147.09 156.70 146.24 L 156.79 145.25 C 156.87 144.41 156.25 143.66 155.40 143.58 C 154.55 143.50 153.80 144.12 153.72 144.97 Z M 153.64 145.95 L 153.55 146.92 C 153.46 147.76 154.08 148.50 154.91 148.59 C 155.75 148.67 156.50 148.06 156.59 147.22 L 156.68 146.25 C 156.77 145.41 156.16 144.66 155.32 144.58 C 154.48 144.50 153.73 145.11 153.64 145.95 Z M 153.56 146.90 L 153.46 147.83 C 153.36 148.66 153.96 149.41 154.80 149.50 C 155.63 149.59 156.38 148.99 156.47 148.16 L 156.57 147.24 C 156.67 146.41 156.07 145.66 155.23 145.56 C 154.40 145.47 153.65 146.07 153.56 146.90 Z M 153.47 147.82 L 153.36 148.78 C 153.26 149.61 153.85 150.35 154.68 150.45 C 155.50 150.54 156.25 149.95 156.35 149.13 L 156.46 148.17 C 156.55 147.34 155.96 146.59 155.14 146.50 C 154.31 146.40 153.56 146.99 153.47 147.82 Z M 153.37 148.79 L 153.25 149.83 C 153.16 150.65 153.75 151.39 154.57 151.48 C 155.39 151.57 156.13 150.98 156.22 150.16 L 156.34 149.12 C 156.43 148.30 155.84 147.56 155.02 147.47 C 154.20 147.38 153.46 147.97 153.37 148.79 Z M 153.25 149.85 L 153.15 150.84 C 153.06 151.67 153.66 152.40 154.48 152.48 C 155.31 152.57 156.04 151.97 156.12 151.15 L 156.22 150.15 C 156.31 149.33 155.71 148.59 154.89 148.51 C 154.06 148.43 153.33 149.03 153.25 149.85 Z M 153.13 150.85 L 153.03 151.82 C 152.96 152.66 153.57 153.40 154.40 153.48 C 155.23 153.55 155.97 152.94 156.05 152.11 L 156.14 151.14 C 156.22 150.30 155.61 149.56 154.78 149.49 C 153.94 149.41 153.20 150.02 153.13 150.85 Z M 153.01 151.82 L 152.91 152.84 C 152.83 153.69 153.46 154.44 154.31 154.52 C 155.16 154.60 155.91 153.97 155.99 153.12 L 156.08 152.11 C 156.16 151.26 155.53 150.51 154.69 150.43 C 153.84 150.35 153.08 150.97 153.01 151.82 Z M 152.88 152.83 L 152.79 153.86 C 152.70 154.73 153.34 155.49 154.20 155.58 C 155.07 155.66 155.83 155.02 155.92 154.16 L 156.01 153.13 C 156.10 152.27 155.46 151.50 154.60 151.42 C 153.73 151.33 152.97 151.97 152.88 152.83 Z M 152.77 153.85 L 152.66 154.87 C 152.57 155.75 153.21 156.53 154.08 156.62 C 154.96 156.71 155.74 156.07 155.83 155.20 L 155.94 154.17 C 156.03 153.30 155.39 152.51 154.51 152.43 C 153.64 152.34 152.85 152.97 152.77 153.85 Z M 152.66 154.86 L 152.55 155.88 C 152.45 156.76 153.08 157.54 153.96 157.64 C 154.83 157.74 155.62 157.11 155.72 156.23 L 155.83 155.21 C 155.93 154.34 155.30 153.55 154.42 153.45 C 153.55 153.35 152.76 153.98 152.66 154.86 Z M 152.57 155.87 L 152.45 156.86 C 152.34 157.73 152.96 158.52 153.83 158.62 C 154.69 158.72 155.48 158.11 155.58 157.24 L 155.70 156.25 C 155.80 155.38 155.19 154.59 154.32 154.49 C 153.45 154.39 152.67 155.00 152.57 155.87 Z M 152.46 156.86 L 152.34 157.83 C 152.23 158.69 152.84 159.47 153.70 159.58 C 154.55 159.69 155.33 159.08 155.44 158.22 L 155.56 157.25 C 155.67 156.39 155.06 155.61 154.21 155.50 C 153.35 155.39 152.57 156.00 152.46 156.86 Z M 152.36 157.83 L 152.23 158.80 C 152.12 159.65 152.72 160.42 153.57 160.53 C 154.42 160.64 155.19 160.04 155.30 159.19 L 155.42 158.23 C 155.53 157.38 154.93 156.60 154.09 156.50 C 153.24 156.39 152.47 156.98 152.36 157.83 Z"
      fill="black"
      fill-rule="nonzero" /><path d="M 145.02 128.21 L 143.96 127.47 C 143.24 126.96 142.26 127.14 141.75 127.85 C 141.25 128.57 141.42 129.55 142.14 130.06 L 143.20 130.80 C 143.91 131.31 144.90 131.13 145.40 130.42 C 145.91 129.70 145.73 128.72 145.02 128.21 Z M 143.99 127.48 L 143.00 126.76 C 142.29 126.24 141.30 126.40 140.78 127.11 C 140.26 127.82 140.42 128.82 141.13 129.33 L 142.11 130.05 C 142.82 130.57 143.82 130.41 144.34 129.70 C 144.85 128.99 144.70 127.99 143.99 127.48 Z M 143.06 126.79 L 142.22 126.13 C 141.53 125.59 140.53 125.71 139.98 126.40 C 139.43 127.09 139.55 128.10 140.24 128.65 L 141.07 129.30 C 141.77 129.85 142.77 129.73 143.32 129.04 C 143.87 128.34 143.75 127.34 143.06 126.79 Z M 142.33 126.22 L 141.73 125.65 C 141.08 125.04 140.07 125.08 139.46 125.72 C 138.85 126.37 138.88 127.39 139.53 128.00 L 140.13 128.56 C 140.78 129.17 141.80 129.14 142.41 128.49 C 143.01 127.84 142.98 126.83 142.33 126.22 Z M 141.98 125.93 L 141.67 125.47 C 141.18 124.73 140.18 124.52 139.43 125.01 C 138.69 125.51 138.48 126.51 138.98 127.25 L 139.28 127.71 C 139.77 128.46 140.78 128.66 141.52 128.17 C 142.27 127.68 142.47 126.68 141.98 125.93 Z M 141.75 127.13 L 141.98 126.70 C 142.41 125.92 142.12 124.93 141.33 124.51 C 140.55 124.08 139.57 124.37 139.14 125.16 L 138.90 125.59 C 138.48 126.37 138.77 127.36 139.55 127.78 C 140.34 128.21 141.32 127.92 141.75 127.13 Z M 140.96 127.49 L 141.86 127.26 C 142.72 127.04 143.24 126.17 143.03 125.31 C 142.81 124.44 141.93 123.92 141.07 124.14 L 140.17 124.37 C 139.30 124.58 138.78 125.46 139.00 126.32 C 139.22 127.19 140.09 127.71 140.96 127.49 Z M 141.66 127.29 L 143.00 127.13 C 143.88 127.02 144.51 126.22 144.40 125.34 C 144.29 124.46 143.49 123.83 142.61 123.94 L 141.27 124.11 C 140.39 124.21 139.76 125.01 139.87 125.89 C 139.98 126.77 140.78 127.40 141.66 127.29 Z M 143.02 127.12 L 144.02 126.98 C 144.89 126.86 145.51 126.06 145.39 125.19 C 145.27 124.31 144.47 123.70 143.59 123.82 L 142.59 123.95 C 141.72 124.07 141.11 124.88 141.22 125.75 C 141.34 126.62 142.14 127.23 143.02 127.12 Z M 144.05 126.96 L 145.04 126.81 C 145.90 126.67 146.49 125.86 146.35 125.00 C 146.22 124.14 145.41 123.55 144.55 123.68 L 143.56 123.84 C 142.70 123.98 142.11 124.79 142.25 125.65 C 142.38 126.51 143.19 127.10 144.05 126.96 Z M 145.06 126.78 L 146.07 126.61 C 146.92 126.46 147.49 125.65 147.34 124.80 C 147.19 123.95 146.38 123.38 145.53 123.53 L 144.52 123.71 C 143.67 123.86 143.11 124.67 143.25 125.52 C 143.40 126.37 144.21 126.93 145.06 126.78 Z M 146.09 126.59 L 147.10 126.39 C 147.94 126.23 148.49 125.42 148.33 124.58 C 148.17 123.75 147.36 123.20 146.52 123.36 L 145.51 123.55 C 144.67 123.71 144.12 124.52 144.28 125.36 C 144.45 126.20 145.26 126.75 146.09 126.59 Z M 147.12 126.37 L 148.10 126.17 C 148.93 126.00 149.46 125.19 149.29 124.37 C 149.12 123.54 148.31 123.01 147.48 123.18 L 146.50 123.38 C 145.68 123.55 145.14 124.36 145.31 125.18 C 145.48 126.01 146.29 126.54 147.12 126.37 Z M 148.11 126.15 L 149.15 125.93 C 149.96 125.75 150.48 124.94 150.30 124.12 C 150.12 123.31 149.31 122.79 148.50 122.97 L 147.47 123.20 C 146.65 123.37 146.13 124.18 146.31 125.00 C 146.49 125.81 147.30 126.33 148.11 126.15 Z M 149.16 125.91 L 150.17 125.67 C 150.98 125.49 151.48 124.68 151.29 123.88 C 151.11 123.07 150.30 122.57 149.49 122.75 L 148.48 122.99 C 147.68 123.17 147.18 123.98 147.36 124.79 C 147.55 125.59 148.35 126.09 149.16 125.91 Z M 150.18 125.66 L 151.14 125.43 C 151.93 125.24 152.43 124.44 152.24 123.64 C 152.05 122.84 151.25 122.35 150.45 122.54 L 149.49 122.77 C 148.69 122.96 148.20 123.76 148.39 124.56 C 148.58 125.35 149.38 125.85 150.18 125.66 Z M 151.13 125.41 L 152.06 125.19 C 152.85 125.00 153.34 124.21 153.15 123.42 C 152.96 122.64 152.17 122.15 151.39 122.34 L 150.46 122.56 C 149.67 122.74 149.18 123.54 149.37 124.32 C 149.55 125.11 150.34 125.60 151.13 125.41 Z M 152.05 125.18 L 152.99 124.97 C 153.77 124.79 154.26 124.01 154.08 123.22 C 153.90 122.44 153.12 121.95 152.34 122.13 L 151.40 122.35 C 150.62 122.53 150.13 123.31 150.31 124.09 C 150.49 124.87 151.27 125.36 152.05 125.18 Z M 152.96 124.96 L 153.97 124.75 C 154.75 124.58 155.25 123.81 155.08 123.03 C 154.91 122.25 154.14 121.75 153.36 121.92 L 152.36 122.14 C 151.58 122.30 151.08 123.07 151.25 123.85 C 151.42 124.63 152.18 125.13 152.96 124.96 Z M 153.95 124.74 L 154.94 124.55 C 155.72 124.39 156.23 123.64 156.07 122.86 C 155.92 122.08 155.16 121.57 154.38 121.72 L 153.39 121.92 C 152.61 122.08 152.10 122.83 152.26 123.61 C 152.41 124.39 153.17 124.90 153.95 124.74 Z M 154.92 124.55 L 155.89 124.37 C 156.67 124.23 157.18 123.48 157.04 122.70 C 156.90 121.92 156.15 121.41 155.38 121.55 L 154.40 121.73 C 153.63 121.87 153.11 122.61 153.25 123.39 C 153.39 124.17 154.14 124.69 154.92 124.55 Z M 155.86 124.37 L 156.82 124.21 C 157.60 124.08 158.13 123.35 158.00 122.57 C 157.87 121.79 157.14 121.26 156.36 121.39 L 155.40 121.55 C 154.62 121.68 154.09 122.41 154.22 123.19 C 154.35 123.97 155.09 124.50 155.86 124.37 Z M 156.80 124.21 L 157.82 124.07 C 158.60 123.95 159.14 123.23 159.03 122.45 C 158.91 121.67 158.19 121.13 157.41 121.24 L 156.39 121.39 C 155.61 121.50 155.07 122.23 155.18 123.01 C 155.29 123.79 156.02 124.33 156.80 124.21 Z M 157.80 124.07 L 158.79 123.94 C 159.57 123.84 160.12 123.12 160.02 122.34 C 159.92 121.56 159.20 121.01 158.42 121.11 L 157.43 121.24 C 156.65 121.34 156.10 122.05 156.20 122.84 C 156.30 123.62 157.02 124.17 157.80 124.07 Z M 158.77 123.94 L 159.74 123.83 C 160.52 123.73 161.08 123.02 160.99 122.24 C 160.89 121.46 160.18 120.90 159.40 121.00 L 158.44 121.11 C 157.65 121.20 157.09 121.91 157.19 122.69 C 157.28 123.48 157.99 124.03 158.77 123.94 Z M 159.73 123.83 L 160.15 123.78 C 160.93 123.69 161.49 122.98 161.40 122.20 C 161.31 121.42 160.60 120.86 159.82 120.95 L 159.41 121.00 C 158.63 121.09 158.06 121.79 158.15 122.57 C 158.25 123.36 158.95 123.92 159.73 123.83 Z"
      fill="black"
      fill-rule="nonzero" /><path d="M 143.22 134.41 L 142.22 134.22 C 141.35 134.05 140.51 134.62 140.34 135.49 C 140.17 136.36 140.74 137.20 141.61 137.37 L 142.61 137.57 C 143.48 137.73 144.32 137.17 144.49 136.30 C 144.66 135.42 144.09 134.58 143.22 134.41 Z M 142.24 134.21 L 141.25 134.01 C 140.37 133.83 139.52 134.39 139.34 135.27 C 139.16 136.15 139.73 137.00 140.60 137.18 L 141.59 137.38 C 142.47 137.56 143.33 137.00 143.50 136.12 C 143.68 135.24 143.11 134.38 142.24 134.21 Z M 141.28 134.00 L 140.32 133.78 C 139.44 133.59 138.56 134.14 138.37 135.03 C 138.17 135.91 138.73 136.78 139.61 136.98 L 140.57 137.19 C 141.45 137.39 142.33 136.83 142.52 135.95 C 142.72 135.07 142.16 134.19 141.28 134.00 Z M 140.38 133.78 L 139.22 133.48 C 138.34 133.25 137.43 133.78 137.20 134.66 C 136.97 135.55 137.50 136.45 138.39 136.68 L 139.55 136.98 C 140.43 137.21 141.33 136.68 141.56 135.80 C 141.79 134.91 141.26 134.01 140.38 133.78 Z M 139.39 133.52 L 138.39 133.14 C 137.53 132.81 136.56 133.25 136.24 134.11 C 135.91 134.97 136.35 135.94 137.21 136.26 L 138.21 136.64 C 139.08 136.96 140.04 136.53 140.36 135.67 C 140.69 134.81 140.25 133.84 139.39 133.52 Z M 139.26 133.87 L 139.04 133.48 C 138.58 132.68 137.55 132.40 136.75 132.86 C 135.94 133.32 135.66 134.35 136.12 135.15 L 136.34 135.53 C 136.80 136.34 137.83 136.62 138.63 136.16 C 139.44 135.70 139.72 134.67 139.26 133.87 Z M 138.32 135.83 L 139.06 135.47 C 139.90 135.06 140.25 134.05 139.84 133.21 C 139.43 132.38 138.42 132.03 137.58 132.44 L 136.84 132.81 C 136.01 133.21 135.66 134.22 136.07 135.06 C 136.48 135.89 137.48 136.24 138.32 135.83 Z M 138.74 135.58 L 139.98 135.26 C 140.87 135.03 141.42 134.12 141.19 133.22 C 140.96 132.33 140.05 131.78 139.15 132.01 L 137.91 132.33 C 137.01 132.56 136.47 133.47 136.70 134.37 C 136.93 135.27 137.84 135.81 138.74 135.58 Z M 139.90 135.26 L 140.85 135.06 C 141.75 134.88 142.33 134.00 142.14 133.11 C 141.96 132.21 141.08 131.63 140.19 131.82 L 139.23 132.01 C 138.33 132.20 137.75 133.08 137.94 133.97 C 138.12 134.87 139.00 135.45 139.90 135.26 Z M 140.81 135.04 L 141.79 134.86 C 142.68 134.70 143.26 133.85 143.10 132.97 C 142.94 132.09 142.09 131.50 141.21 131.66 L 140.23 131.84 C 139.34 132.00 138.76 132.85 138.92 133.73 C 139.08 134.62 139.93 135.20 140.81 135.04 Z M 141.76 134.83 L 142.77 134.66 C 143.64 134.52 144.23 133.69 144.08 132.83 C 143.94 131.96 143.11 131.37 142.25 131.52 L 141.23 131.69 C 140.37 131.84 139.78 132.66 139.93 133.53 C 140.07 134.39 140.90 134.98 141.76 134.83 Z M 142.76 134.64 L 143.73 134.48 C 144.59 134.34 145.17 133.54 145.03 132.69 C 144.89 131.83 144.09 131.25 143.24 131.39 L 142.26 131.54 C 141.41 131.68 140.83 132.49 140.96 133.34 C 141.10 134.19 141.90 134.78 142.76 134.64 Z M 143.72 134.46 L 144.71 134.31 C 145.56 134.18 146.13 133.39 146.00 132.55 C 145.87 131.70 145.08 131.12 144.24 131.25 L 143.25 131.41 C 142.41 131.54 141.83 132.33 141.96 133.17 C 142.09 134.01 142.88 134.59 143.72 134.46 Z M 144.70 134.29 L 145.70 134.15 C 146.53 134.03 147.11 133.25 146.99 132.42 C 146.86 131.58 146.09 131.00 145.25 131.13 L 144.26 131.27 C 143.42 131.39 142.84 132.17 142.97 133.00 C 143.09 133.84 143.86 134.41 144.70 134.29 Z M 145.68 134.13 L 146.63 134.00 C 147.46 133.89 148.04 133.13 147.92 132.30 C 147.81 131.48 147.05 130.90 146.23 131.01 L 145.27 131.14 C 144.45 131.26 143.87 132.02 143.98 132.84 C 144.09 133.67 144.85 134.24 145.68 134.13 Z M 146.61 133.99 L 147.54 133.87 C 148.36 133.77 148.94 133.03 148.84 132.21 C 148.74 131.40 148.00 130.81 147.18 130.91 L 146.25 131.03 C 145.43 131.12 144.85 131.87 144.95 132.69 C 145.05 133.50 145.79 134.09 146.61 133.99 Z M 147.50 133.86 L 148.49 133.77 C 149.30 133.69 149.89 132.97 149.82 132.16 C 149.74 131.35 149.02 130.75 148.21 130.83 L 147.22 130.92 C 146.41 131.00 145.81 131.72 145.89 132.53 C 145.97 133.35 146.69 133.94 147.50 133.86 Z M 148.44 133.76 L 149.53 133.68 C 150.33 133.63 150.94 132.94 150.89 132.13 C 150.84 131.33 150.14 130.72 149.34 130.77 L 148.25 130.84 C 147.45 130.89 146.84 131.59 146.89 132.39 C 146.94 133.20 147.64 133.81 148.44 133.76 Z M 149.49 133.68 L 150.43 133.64 C 151.23 133.61 151.85 132.93 151.82 132.13 C 151.79 131.33 151.11 130.71 150.31 130.74 L 149.38 130.78 C 148.58 130.81 147.95 131.48 147.99 132.28 C 148.02 133.08 148.69 133.71 149.49 133.68 Z M 150.40 133.63 L 151.36 133.61 C 152.16 133.59 152.79 132.93 152.77 132.14 C 152.75 131.34 152.09 130.71 151.30 130.73 L 150.34 130.75 C 149.54 130.77 148.91 131.43 148.93 132.22 C 148.94 133.02 149.60 133.65 150.40 133.63 Z M 151.35 133.61 L 152.36 133.60 C 153.15 133.59 153.79 132.94 153.78 132.14 C 153.77 131.35 153.12 130.71 152.32 130.72 L 151.31 130.73 C 150.52 130.74 149.88 131.39 149.89 132.19 C 149.90 132.98 150.55 133.62 151.35 133.61 Z M 152.35 133.59 L 153.39 133.59 C 154.18 133.58 154.82 132.94 154.82 132.15 C 154.82 131.36 154.17 130.72 153.38 130.72 L 152.33 130.72 C 151.54 130.73 150.90 131.37 150.91 132.16 C 150.91 132.96 151.55 133.59 152.35 133.59 Z M 153.39 133.58 L 154.45 133.58 C 155.24 133.58 155.88 132.94 155.88 132.15 C 155.88 131.36 155.24 130.72 154.45 130.72 L 153.38 130.73 C 152.60 130.73 151.96 131.37 151.96 132.15 C 151.96 132.94 152.60 133.58 153.39 133.58 Z M 154.45 133.58 L 154.56 133.58 C 155.35 133.58 155.98 132.94 155.98 132.15 C 155.98 131.37 155.35 130.73 154.56 130.73 L 154.45 130.73 C 153.66 130.73 153.02 131.37 153.02 132.15 C 153.02 132.94 153.66 133.58 154.45 133.58 Z"
      fill="black"
      fill-rule="nonzero" /><path d="M 145.77 142.57 L 144.91 143.02 C 144.16 143.42 143.88 144.35 144.27 145.10 C 144.67 145.85 145.60 146.13 146.35 145.74 L 147.21 145.29 C 147.96 144.89 148.24 143.96 147.85 143.21 C 147.45 142.46 146.52 142.17 145.77 142.57 Z M 144.86 143.04 L 144.01 143.53 C 143.27 143.95 143.01 144.90 143.44 145.64 C 143.86 146.38 144.81 146.63 145.55 146.21 L 146.40 145.72 C 147.14 145.30 147.40 144.35 146.97 143.61 C 146.55 142.87 145.61 142.61 144.86 143.04 Z M 143.92 143.57 L 143.07 144.13 C 142.36 144.60 142.16 145.57 142.63 146.28 C 143.11 147.00 144.07 147.20 144.79 146.73 L 145.64 146.17 C 146.35 145.69 146.55 144.73 146.08 144.01 C 145.60 143.29 144.64 143.10 143.92 143.57 Z M 142.96 144.20 L 142.21 144.79 C 141.53 145.32 141.41 146.31 141.95 146.99 C 142.48 147.67 143.46 147.79 144.15 147.25 L 144.90 146.66 C 145.58 146.13 145.70 145.14 145.16 144.46 C 144.63 143.78 143.64 143.66 142.96 144.20 Z M 142.11 144.86 L 141.46 145.45 C 140.82 146.04 140.78 147.04 141.37 147.69 C 141.96 148.33 142.96 148.37 143.60 147.78 L 144.25 147.18 C 144.89 146.59 144.93 145.59 144.34 144.95 C 143.75 144.30 142.75 144.26 142.11 144.86 Z M 141.37 145.51 L 140.72 146.20 C 140.11 146.84 140.13 147.86 140.77 148.46 C 141.41 149.07 142.43 149.05 143.04 148.41 L 143.69 147.72 C 144.30 147.08 144.27 146.06 143.63 145.45 C 142.99 144.85 141.98 144.87 141.37 145.51 Z M 140.64 146.26 L 139.97 147.06 C 139.39 147.74 139.47 148.76 140.15 149.34 C 140.84 149.91 141.86 149.83 142.43 149.15 L 143.11 148.35 C 143.69 147.67 143.60 146.65 142.92 146.07 C 142.24 145.49 141.22 145.58 140.64 146.26 Z M 139.90 147.11 L 139.20 148.03 C 138.65 148.74 138.78 149.77 139.50 150.32 C 140.21 150.87 141.24 150.74 141.79 150.02 L 142.50 149.10 C 143.05 148.38 142.91 147.36 142.20 146.81 C 141.48 146.25 140.45 146.39 139.90 147.11 Z M 139.15 148.06 L 138.60 148.84 C 138.07 149.58 138.24 150.61 138.98 151.14 C 139.72 151.67 140.75 151.50 141.28 150.76 L 141.83 149.98 C 142.36 149.24 142.19 148.21 141.45 147.68 C 140.71 147.15 139.68 147.32 139.15 148.06 Z M 138.57 148.86 L 138.03 149.65 C 137.51 150.41 137.71 151.44 138.46 151.96 C 139.22 152.47 140.25 152.28 140.77 151.52 L 141.31 150.73 C 141.82 149.98 141.63 148.95 140.87 148.43 C 140.11 147.91 139.08 148.11 138.57 148.86 Z M 138.00 149.68 L 137.46 150.51 C 136.95 151.28 137.17 152.31 137.94 152.82 C 138.71 153.32 139.74 153.11 140.24 152.34 L 140.79 151.50 C 141.29 150.73 141.08 149.70 140.31 149.19 C 139.54 148.69 138.51 148.91 138.00 149.68 Z M 137.43 150.53 L 136.89 151.40 C 136.39 152.18 136.63 153.22 137.41 153.71 C 138.19 154.20 139.23 153.97 139.72 153.18 L 140.27 152.32 C 140.76 151.53 140.52 150.50 139.74 150.01 C 138.96 149.52 137.93 149.75 137.43 150.53 Z M 136.87 151.42 L 136.33 152.31 C 135.84 153.10 136.10 154.14 136.89 154.62 C 137.69 155.10 138.72 154.85 139.20 154.05 L 139.74 153.16 C 140.22 152.37 139.97 151.34 139.18 150.86 C 138.38 150.37 137.35 150.63 136.87 151.42 Z M 136.31 152.33 L 135.78 153.23 C 135.31 154.03 135.58 155.07 136.39 155.54 C 137.19 156.01 138.23 155.74 138.70 154.93 L 139.22 154.03 C 139.69 153.23 139.42 152.19 138.62 151.72 C 137.81 151.25 136.78 151.52 136.31 152.33 Z M 135.76 153.25 L 135.24 154.18 C 134.78 154.99 135.07 156.03 135.89 156.49 C 136.71 156.94 137.74 156.65 138.20 155.84 L 138.72 154.91 C 139.18 154.09 138.89 153.06 138.07 152.60 C 137.25 152.14 136.22 152.43 135.76 153.25 Z M 135.22 154.20 L 134.70 155.18 C 134.25 156.01 134.56 157.04 135.39 157.48 C 136.22 157.93 137.25 157.62 137.70 156.79 L 138.22 155.81 C 138.66 154.98 138.35 153.95 137.53 153.51 C 136.70 153.06 135.67 153.37 135.22 154.20 Z M 134.68 155.20 L 134.19 156.15 C 133.76 156.99 134.09 158.01 134.92 158.45 C 135.76 158.88 136.79 158.55 137.22 157.71 L 137.71 156.77 C 138.14 155.93 137.82 154.90 136.98 154.47 C 136.14 154.04 135.11 154.36 134.68 155.20 Z M 134.18 156.17 L 133.72 157.08 C 133.30 157.92 133.64 158.95 134.49 159.37 C 135.33 159.79 136.36 159.45 136.78 158.61 L 137.23 157.70 C 137.66 156.85 137.31 155.83 136.47 155.40 C 135.63 154.98 134.60 155.32 134.18 156.17 Z M 133.71 157.09 L 133.29 157.95 C 132.88 158.80 133.23 159.83 134.08 160.24 C 134.93 160.66 135.95 160.31 136.37 159.46 L 136.79 158.59 C 137.20 157.74 136.85 156.72 136.00 156.30 C 135.15 155.89 134.13 156.24 133.71 157.09 Z M 133.28 157.96 L 132.90 158.77 C 132.49 159.62 132.85 160.65 133.70 161.06 C 134.56 161.47 135.58 161.11 135.99 160.25 L 136.38 159.45 C 136.79 158.59 136.43 157.57 135.57 157.16 C 134.72 156.75 133.69 157.11 133.28 157.96 Z M 132.89 158.77 L 132.46 159.66 C 132.06 160.52 132.42 161.55 133.28 161.96 C 134.13 162.37 135.16 162.00 135.57 161.15 L 136.00 160.25 C 136.41 159.39 136.04 158.37 135.18 157.96 C 134.33 157.55 133.30 157.91 132.89 158.77 Z M 132.46 159.66 L 132.00 160.63 C 131.59 161.48 131.95 162.51 132.81 162.92 C 133.67 163.33 134.70 162.97 135.11 162.11 L 135.57 161.15 C 135.98 160.29 135.62 159.26 134.76 158.85 C 133.90 158.44 132.87 158.80 132.46 159.66 Z M 132.00 160.62 L 131.58 161.49 C 131.17 162.35 131.53 163.38 132.39 163.80 C 133.25 164.21 134.28 163.85 134.69 162.99 L 135.11 162.12 C 135.52 161.26 135.16 160.23 134.30 159.81 C 133.44 159.40 132.41 159.76 132.00 160.62 Z M 131.58 161.49 L 131.18 162.31 C 130.77 163.17 131.12 164.21 131.98 164.62 C 132.84 165.04 133.87 164.68 134.29 163.82 L 134.69 162.99 C 135.11 162.14 134.75 161.10 133.89 160.69 C 133.03 160.27 132.00 160.63 131.58 161.49 Z M 131.18 162.31 L 130.77 163.14 C 130.35 164.00 130.71 165.04 131.57 165.46 C 132.42 165.88 133.46 165.52 133.88 164.66 L 134.29 163.83 C 134.71 162.97 134.35 161.94 133.50 161.52 C 132.64 161.10 131.60 161.45 131.18 162.31 Z M 130.78 163.13 L 130.35 164.00 C 129.92 164.86 130.27 165.89 131.13 166.32 C 131.98 166.74 133.02 166.39 133.45 165.54 L 133.88 164.67 C 134.30 163.82 133.95 162.78 133.10 162.35 C 132.24 161.93 131.20 162.28 130.78 163.13 Z M 130.35 163.99 L 129.90 164.89 C 129.47 165.74 129.81 166.78 130.67 167.21 C 131.52 167.64 132.56 167.30 132.99 166.44 L 133.44 165.55 C 133.87 164.69 133.53 163.65 132.68 163.22 C 131.82 162.79 130.78 163.14 130.35 163.99 Z M 129.90 164.87 L 129.43 165.80 C 128.99 166.66 129.33 167.70 130.18 168.13 C 131.04 168.57 132.08 168.23 132.52 167.38 L 132.99 166.45 C 133.43 165.60 133.09 164.56 132.24 164.12 C 131.38 163.68 130.34 164.02 129.90 164.87 Z M 129.43 165.79 L 128.97 166.69 C 128.53 167.54 128.86 168.59 129.71 169.03 C 130.56 169.47 131.61 169.14 132.05 168.29 L 132.51 167.39 C 132.95 166.54 132.62 165.49 131.77 165.05 C 130.92 164.61 129.87 164.94 129.43 165.79 Z M 128.97 166.68 L 128.51 167.56 C 128.06 168.41 128.38 169.46 129.23 169.91 C 130.08 170.35 131.13 170.03 131.58 169.18 L 132.04 168.30 C 132.49 167.45 132.16 166.40 131.32 165.95 C 130.47 165.51 129.42 165.83 128.97 166.68 Z M 128.51 167.55 L 128.03 168.45 C 127.58 169.29 127.90 170.34 128.75 170.80 C 129.59 171.25 130.64 170.93 131.10 170.08 L 131.57 169.19 C 132.02 168.35 131.71 167.29 130.86 166.84 C 130.01 166.39 128.96 166.71 128.51 167.55 Z M 128.04 168.43 L 127.56 169.32 C 127.10 170.16 127.41 171.22 128.25 171.68 C 129.10 172.13 130.15 171.82 130.61 170.98 L 131.09 170.09 C 131.55 169.25 131.24 168.19 130.39 167.74 C 129.55 167.28 128.50 167.59 128.04 168.43 Z M 127.56 169.31 L 127.08 170.19 C 126.61 171.03 126.92 172.09 127.76 172.55 C 128.60 173.02 129.65 172.71 130.12 171.87 L 130.61 170.99 C 131.07 170.15 130.76 169.09 129.92 168.63 C 129.08 168.16 128.03 168.47 127.56 169.31 Z M 127.08 170.18 L 126.59 171.06 C 126.11 171.90 126.41 172.96 127.25 173.43 C 128.09 173.90 129.15 173.60 129.62 172.76 L 130.11 171.88 C 130.58 171.04 130.29 169.98 129.45 169.51 C 128.61 169.04 127.55 169.34 127.08 170.18 Z M 126.59 171.05 L 126.10 171.91 C 125.62 172.75 125.91 173.81 126.74 174.29 C 127.58 174.76 128.64 174.47 129.12 173.64 L 129.61 172.77 C 130.09 171.94 129.80 170.88 128.96 170.40 C 128.13 169.93 127.07 170.22 126.59 171.05 Z M 126.10 171.91 L 125.61 172.76 C 125.13 173.59 125.41 174.66 126.24 175.14 C 127.07 175.62 128.14 175.33 128.62 174.50 L 129.11 173.65 C 129.59 172.82 129.31 171.75 128.48 171.27 C 127.65 170.79 126.58 171.07 126.10 171.91 Z M 125.61 172.75 L 125.11 173.61 C 124.63 174.44 124.91 175.50 125.74 175.99 C 126.57 176.47 127.63 176.19 128.11 175.36 L 128.61 174.51 C 129.10 173.68 128.82 172.61 127.99 172.13 C 127.16 171.65 126.10 171.93 125.61 172.75 Z M 125.12 173.60 L 124.61 174.46 C 124.12 175.29 124.40 176.35 125.23 176.84 C 126.05 177.33 127.12 177.05 127.61 176.23 L 128.11 175.37 C 128.60 174.54 128.32 173.48 127.50 172.99 C 126.67 172.50 125.60 172.78 125.12 173.60 Z M 124.62 174.45 L 124.10 175.31 C 123.61 176.14 123.88 177.20 124.71 177.70 C 125.53 178.19 126.60 177.92 127.09 177.09 L 127.60 176.23 C 128.09 175.41 127.82 174.34 127.00 173.85 C 126.17 173.36 125.11 173.63 124.62 174.45 Z M 124.11 175.30 L 123.59 176.16 C 123.09 176.98 123.35 178.05 124.18 178.55 C 125.00 179.05 126.07 178.78 126.56 177.96 L 127.08 177.10 C 127.58 176.28 127.32 175.21 126.50 174.72 C 125.68 174.22 124.61 174.48 124.11 175.30 Z M 123.60 176.15 L 123.07 177.00 C 122.57 177.82 122.82 178.89 123.63 179.39 C 124.45 179.90 125.52 179.65 126.03 178.83 L 126.55 177.98 C 127.06 177.16 126.81 176.09 125.99 175.58 C 125.17 175.08 124.10 175.33 123.60 176.15 Z M 123.08 176.99 L 122.55 177.84 C 122.03 178.65 122.27 179.72 123.09 180.23 C 123.90 180.74 124.97 180.50 125.48 179.69 L 126.02 178.84 C 126.53 178.03 126.29 176.96 125.48 176.45 C 124.66 175.94 123.59 176.18 123.08 176.99 Z M 122.55 177.83 L 122.01 178.67 C 121.50 179.47 121.73 180.55 122.54 181.06 C 123.34 181.58 124.41 181.35 124.93 180.54 L 125.47 179.70 C 125.99 178.89 125.76 177.82 124.95 177.30 C 124.14 176.79 123.07 177.02 122.55 177.83 Z M 122.02 178.66 L 121.48 179.50 C 120.95 180.30 121.18 181.37 121.98 181.89 C 122.79 182.42 123.86 182.19 124.38 181.39 L 124.93 180.55 C 125.45 179.75 125.22 178.67 124.42 178.15 C 123.61 177.63 122.54 177.86 122.02 178.66 Z M 121.48 179.50 L 120.93 180.33 C 120.41 181.13 120.64 182.20 121.44 182.73 C 122.24 183.25 123.31 183.02 123.83 182.22 L 124.38 181.39 C 124.90 180.59 124.67 179.52 123.87 178.99 C 123.07 178.47 122.00 178.70 121.48 179.50 Z M 120.94 180.33 L 120.39 181.17 C 119.86 181.97 120.09 183.04 120.88 183.56 C 121.68 184.09 122.75 183.86 123.28 183.07 L 123.83 182.22 C 124.35 181.43 124.13 180.36 123.33 179.83 C 122.53 179.31 121.46 179.53 120.94 180.33 Z M 120.39 181.17 L 119.84 182.01 C 119.31 182.80 119.53 183.87 120.33 184.40 C 121.12 184.92 122.19 184.70 122.72 183.91 L 123.27 183.07 C 123.80 182.28 123.58 181.21 122.78 180.68 C 121.99 180.16 120.92 180.37 120.39 181.17 Z M 119.85 182.00 L 119.29 182.83 C 118.76 183.62 118.97 184.68 119.76 185.22 C 120.55 185.75 121.62 185.54 122.15 184.75 L 122.71 183.92 C 123.24 183.13 123.03 182.06 122.24 181.53 C 121.45 181.00 120.38 181.21 119.85 182.00 Z M 119.31 182.81 L 118.74 183.63 C 118.20 184.41 118.40 185.48 119.18 186.02 C 119.97 186.56 121.04 186.36 121.57 185.58 L 122.14 184.76 C 122.68 183.98 122.48 182.91 121.70 182.37 C 120.91 181.83 119.84 182.03 119.31 182.81 Z M 118.76 183.61 L 118.18 184.43 C 117.63 185.20 117.81 186.27 118.58 186.82 C 119.36 187.37 120.43 187.19 120.98 186.41 L 121.56 185.60 C 122.11 184.82 121.92 183.75 121.15 183.20 C 120.38 182.66 119.31 182.84 118.76 183.61 Z M 118.19 184.42 L 117.61 185.22 C 117.05 185.99 117.22 187.06 117.98 187.61 C 118.75 188.17 119.82 188.00 120.37 187.23 L 120.96 186.43 C 121.52 185.66 121.35 184.59 120.58 184.04 C 119.82 183.48 118.75 183.65 118.19 184.42 Z M 117.62 185.22 L 117.03 186.02 C 116.47 186.78 116.63 187.85 117.39 188.40 C 118.15 188.96 119.21 188.80 119.77 188.04 L 120.36 187.24 C 120.92 186.48 120.76 185.41 120.00 184.86 C 119.24 184.30 118.18 184.46 117.62 185.22 Z M 117.03 186.02 L 116.44 186.83 C 115.88 187.58 116.04 188.65 116.80 189.21 C 117.55 189.76 118.62 189.60 119.17 188.85 L 119.77 188.04 C 120.32 187.28 120.16 186.22 119.41 185.66 C 118.65 185.11 117.59 185.27 117.03 186.02 Z M 116.44 186.84 L 115.91 187.56 C 115.36 188.31 115.52 189.37 116.27 189.93 C 117.03 190.48 118.09 190.32 118.64 189.56 L 119.17 188.84 C 119.73 188.08 119.56 187.02 118.81 186.47 C 118.05 185.92 116.99 186.08 116.44 186.84 Z M 115.91 187.56 L 115.37 188.31 C 114.82 189.07 114.98 190.12 115.73 190.67 C 116.49 191.22 117.54 191.06 118.09 190.30 L 118.64 189.56 C 119.19 188.80 119.03 187.75 118.27 187.20 C 117.52 186.65 116.46 186.81 115.91 187.56 Z M 115.37 188.31 L 114.79 189.11 C 114.24 189.86 114.40 190.92 115.15 191.47 C 115.90 192.02 116.95 191.85 117.50 191.10 L 118.09 190.30 C 118.64 189.55 118.47 188.50 117.72 187.95 C 116.97 187.40 115.92 187.56 115.37 188.31 Z M 114.79 189.11 L 114.15 189.98 C 113.60 190.73 113.76 191.78 114.50 192.33 C 115.25 192.88 116.30 192.72 116.85 191.98 L 117.50 191.10 C 118.05 190.36 117.89 189.31 117.14 188.76 C 116.40 188.21 115.34 188.36 114.79 189.11 Z M 114.16 189.98 L 113.44 190.94 C 112.89 191.68 113.04 192.73 113.78 193.28 C 114.52 193.84 115.57 193.68 116.12 192.94 L 116.84 191.98 C 117.39 191.24 117.24 190.19 116.50 189.64 C 115.76 189.09 114.71 189.24 114.16 189.98 Z M 113.45 190.95 L 112.69 191.96 C 112.13 192.70 112.28 193.74 113.02 194.30 C 113.76 194.85 114.80 194.70 115.35 193.96 L 116.12 192.94 C 116.67 192.21 116.52 191.16 115.78 190.61 C 115.04 190.06 114.00 190.21 113.45 190.95 Z M 112.69 191.97 L 111.98 192.93 C 111.43 193.67 111.59 194.71 112.32 195.25 C 113.06 195.80 114.09 195.64 114.64 194.91 L 115.35 193.95 C 115.90 193.21 115.74 192.18 115.01 191.63 C 114.27 191.08 113.23 191.24 112.69 191.97 Z M 111.97 192.96 L 111.41 193.73 C 110.88 194.47 111.05 195.51 111.79 196.04 C 112.53 196.57 113.56 196.40 114.09 195.66 L 114.65 194.88 C 115.18 194.14 115.01 193.11 114.27 192.58 C 113.53 192.05 112.50 192.22 111.97 192.96 Z M 111.37 193.81 L 111.06 194.29 C 110.57 195.05 110.79 196.07 111.55 196.56 C 112.31 197.05 113.33 196.83 113.82 196.07 L 114.13 195.59 C 114.62 194.82 114.40 193.81 113.64 193.32 C 112.88 192.83 111.86 193.05 111.37 193.81 Z M 112.45 196.78 L 112.59 196.78 C 113.48 196.78 114.19 196.05 114.19 195.16 C 114.18 194.27 113.45 193.56 112.56 193.57 L 112.43 193.57 C 111.54 193.58 110.83 194.30 110.83 195.19 C 110.84 196.08 111.57 196.79 112.45 196.78 Z M 113.65 196.28 L 114.35 195.60 C 114.96 195.01 114.98 194.04 114.39 193.42 C 113.80 192.81 112.82 192.80 112.21 193.39 L 111.51 194.07 C 110.89 194.66 110.88 195.64 111.47 196.25 C 112.06 196.86 113.04 196.87 113.65 196.28 Z M 114.35 195.51 L 115.28 194.53 C 115.84 193.94 115.82 193.01 115.23 192.45 C 114.64 191.89 113.71 191.91 113.15 192.50 L 112.22 193.48 C 111.66 194.07 111.68 195.00 112.27 195.56 C 112.86 196.12 113.79 196.10 114.35 195.51 Z M 115.27 194.48 L 116.02 193.67 C 116.56 193.09 116.52 192.18 115.94 191.64 C 115.36 191.11 114.46 191.14 113.92 191.72 L 113.16 192.54 C 112.63 193.12 112.66 194.03 113.24 194.56 C 113.82 195.10 114.73 195.07 115.27 194.48 Z M 116.03 193.65 L 116.70 192.91 C 117.23 192.33 117.19 191.42 116.60 190.89 C 116.02 190.36 115.12 190.41 114.59 190.99 L 113.91 191.74 C 113.38 192.32 113.43 193.22 114.01 193.75 C 114.60 194.28 115.50 194.24 116.03 193.65 Z M 116.71 192.90 L 117.34 192.20 C 117.86 191.61 117.81 190.71 117.22 190.18 C 116.64 189.66 115.74 189.71 115.21 190.30 L 114.58 191.00 C 114.06 191.59 114.11 192.49 114.69 193.01 C 115.28 193.54 116.18 193.49 116.71 192.90 Z M 117.34 192.19 L 117.66 191.84 C 118.18 191.25 118.13 190.35 117.54 189.83 C 116.95 189.30 116.05 189.35 115.53 189.94 L 115.21 190.30 C 114.69 190.89 114.74 191.79 115.33 192.31 C 115.92 192.83 116.82 192.78 117.34 192.19 Z"
      fill="black"
      fill-rule="nonzero" /><path d="M 144.11 160.84 L 143.58 161.59 C 143.05 162.32 143.22 163.33 143.95 163.85 C 144.68 164.38 145.69 164.21 146.21 163.48 L 146.75 162.73 C 147.27 162.00 147.10 160.99 146.37 160.47 C 145.65 159.95 144.63 160.12 144.11 160.84 Z M 143.52 161.58 L 142.98 162.36 C 142.45 163.12 142.64 164.16 143.40 164.69 C 144.16 165.22 145.20 165.03 145.72 164.27 L 146.26 163.49 C 146.79 162.73 146.60 161.69 145.85 161.16 C 145.09 160.64 144.05 160.83 143.52 161.58 Z M 142.91 162.37 L 142.36 163.20 C 141.84 164.00 142.06 165.07 142.86 165.59 C 143.65 166.11 144.72 165.89 145.24 165.09 L 145.79 164.26 C 146.31 163.47 146.09 162.40 145.30 161.88 C 144.50 161.35 143.43 161.57 142.91 162.37 Z M 142.29 163.23 L 141.73 164.14 C 141.22 164.98 141.49 166.07 142.33 166.58 C 143.16 167.09 144.26 166.82 144.77 165.99 L 145.32 165.07 C 145.83 164.23 145.56 163.14 144.73 162.63 C 143.89 162.12 142.80 162.39 142.29 163.23 Z M 141.67 164.18 L 141.16 165.08 C 140.68 165.95 140.99 167.06 141.86 167.55 C 142.74 168.03 143.84 167.72 144.33 166.85 L 144.83 165.95 C 145.32 165.07 145.01 163.97 144.13 163.48 C 143.26 162.99 142.15 163.31 141.67 164.18 Z M 141.13 165.12 L 140.67 166.00 C 140.20 166.89 140.55 168.00 141.45 168.46 C 142.34 168.93 143.45 168.58 143.91 167.68 L 144.37 166.81 C 144.83 165.91 144.48 164.81 143.59 164.34 C 142.69 163.88 141.59 164.23 141.13 165.12 Z M 140.65 166.03 L 140.20 166.95 C 139.75 167.86 140.12 168.95 141.03 169.40 C 141.94 169.85 143.03 169.47 143.48 168.57 L 143.93 167.65 C 144.38 166.74 144.01 165.65 143.10 165.20 C 142.19 164.75 141.09 165.13 140.65 166.03 Z M 140.18 166.98 L 139.74 167.91 C 139.31 168.83 139.70 169.92 140.62 170.35 C 141.54 170.78 142.63 170.39 143.06 169.47 L 143.50 168.54 C 143.93 167.62 143.53 166.53 142.62 166.10 C 141.70 165.67 140.61 166.06 140.18 166.98 Z M 139.72 167.94 L 139.31 168.86 C 138.89 169.79 139.30 170.87 140.23 171.29 C 141.15 171.71 142.24 171.30 142.66 170.37 L 143.07 169.45 C 143.49 168.52 143.08 167.43 142.15 167.02 C 141.23 166.60 140.14 167.01 139.72 167.94 Z M 139.29 168.88 L 138.91 169.78 C 138.50 170.71 138.93 171.80 139.86 172.20 C 140.80 172.60 141.88 172.18 142.28 171.24 L 142.67 170.35 C 143.08 169.41 142.65 168.33 141.71 167.93 C 140.78 167.52 139.70 167.95 139.29 168.88 Z M 138.89 169.81 L 138.47 170.82 C 138.08 171.76 138.53 172.84 139.47 173.23 C 140.41 173.61 141.49 173.17 141.88 172.23 L 142.30 171.22 C 142.69 170.28 142.24 169.20 141.30 168.81 C 140.36 168.42 139.28 168.87 138.89 169.81 Z M 138.46 170.85 L 138.09 171.80 C 137.71 172.75 138.18 173.82 139.13 174.19 C 140.08 174.56 141.15 174.10 141.52 173.15 L 141.89 172.20 C 142.27 171.25 141.80 170.18 140.85 169.81 C 139.90 169.43 138.83 169.90 138.46 170.85 Z M 138.07 171.83 L 137.73 172.74 C 137.38 173.69 137.86 174.76 138.82 175.11 C 139.77 175.47 140.84 174.98 141.19 174.03 L 141.53 173.12 C 141.89 172.16 141.40 171.10 140.45 170.74 C 139.49 170.39 138.43 170.87 138.07 171.83 Z M 137.72 172.77 L 137.41 173.66 C 137.07 174.62 137.57 175.67 138.53 176.01 C 139.49 176.36 140.55 175.85 140.89 174.89 L 141.20 174.00 C 141.54 173.04 141.04 171.98 140.08 171.64 C 139.12 171.30 138.06 171.81 137.72 172.77 Z M 137.40 173.68 L 137.09 174.59 C 136.76 175.55 137.28 176.60 138.25 176.93 C 139.21 177.26 140.26 176.74 140.59 175.78 L 140.90 174.87 C 141.23 173.90 140.71 172.85 139.74 172.53 C 138.78 172.20 137.73 172.71 137.40 173.68 Z M 137.08 174.61 L 136.78 175.56 C 136.46 176.53 136.99 177.57 137.96 177.88 C 138.93 178.20 139.97 177.67 140.29 176.70 L 140.60 175.75 C 140.91 174.78 140.38 173.74 139.41 173.43 C 138.44 173.11 137.40 173.64 137.08 174.61 Z M 136.77 175.58 L 136.47 176.54 C 136.17 177.52 136.72 178.55 137.69 178.85 C 138.67 179.15 139.70 178.60 140.00 177.63 L 140.30 176.67 C 140.60 175.70 140.05 174.66 139.08 174.36 C 138.10 174.06 137.07 174.61 136.77 175.58 Z M 136.46 176.58 L 136.19 177.54 C 135.91 178.52 136.47 179.55 137.45 179.83 C 138.44 180.11 139.46 179.54 139.74 178.56 L 140.01 177.59 C 140.29 176.61 139.73 175.59 138.75 175.31 C 137.76 175.03 136.74 175.60 136.46 176.58 Z M 136.17 177.59 L 135.92 178.56 C 135.66 179.55 136.26 180.56 137.24 180.81 C 138.23 181.07 139.24 180.48 139.50 179.49 L 139.75 178.51 C 140.01 177.53 139.41 176.52 138.43 176.26 C 137.44 176.01 136.43 176.60 136.17 177.59 Z M 135.91 178.61 L 135.68 179.58 C 135.45 180.57 136.07 181.57 137.07 181.80 C 138.06 182.03 139.05 181.41 139.28 180.41 L 139.51 179.44 C 139.74 178.45 139.12 177.45 138.12 177.22 C 137.13 176.99 136.14 177.61 135.91 178.61 Z M 135.67 179.63 L 135.48 180.61 C 135.27 181.61 135.92 182.58 136.92 182.79 C 137.92 182.99 138.90 182.34 139.10 181.34 L 139.30 180.36 C 139.50 179.36 138.85 178.39 137.85 178.18 C 136.85 177.98 135.88 178.63 135.67 179.63 Z M 135.47 180.66 L 135.30 181.64 C 135.12 182.65 135.80 183.61 136.80 183.78 C 137.81 183.95 138.76 183.28 138.94 182.28 L 139.11 181.29 C 139.28 180.28 138.61 179.33 137.60 179.15 C 136.60 178.98 135.64 179.65 135.47 180.66 Z M 135.29 181.69 L 135.14 182.69 C 135.00 183.70 135.70 184.63 136.71 184.78 C 137.72 184.93 138.65 184.23 138.80 183.22 L 138.94 182.22 C 139.09 181.22 138.39 180.28 137.38 180.13 C 136.37 179.98 135.43 180.68 135.29 181.69 Z M 135.14 182.74 L 135.02 183.73 C 134.90 184.74 135.63 185.66 136.64 185.78 C 137.65 185.90 138.57 185.17 138.69 184.16 L 138.81 183.17 C 138.93 182.15 138.20 181.24 137.19 181.12 C 136.17 181.00 135.26 181.72 135.14 182.74 Z M 135.02 183.77 L 134.92 184.77 C 134.83 185.78 135.58 186.68 136.59 186.78 C 137.61 186.87 138.51 186.12 138.60 185.11 L 138.70 184.11 C 138.79 183.10 138.04 182.20 137.02 182.10 C 136.01 182.01 135.11 182.76 135.02 183.77 Z M 134.92 184.81 L 134.85 185.81 C 134.78 186.82 135.55 187.71 136.57 187.78 C 137.58 187.85 138.47 187.08 138.54 186.06 L 138.61 185.07 C 138.68 184.05 137.91 183.17 136.89 183.09 C 135.87 183.02 134.99 183.79 134.92 184.81 Z M 134.85 185.84 L 134.80 186.84 C 134.75 187.86 135.53 188.73 136.55 188.78 C 137.57 188.83 138.44 188.05 138.49 187.03 L 138.54 186.03 C 138.59 185.01 137.81 184.14 136.79 184.09 C 135.77 184.04 134.90 184.82 134.85 185.84 Z M 134.80 186.87 L 134.76 187.87 C 134.72 188.90 135.52 189.75 136.54 189.79 C 137.56 189.82 138.42 189.03 138.46 188.00 L 138.49 187.00 C 138.53 185.98 137.73 185.12 136.71 185.09 C 135.69 185.05 134.83 185.85 134.80 186.87 Z M 134.76 187.90 L 134.74 188.92 C 134.72 189.94 135.53 190.78 136.55 190.81 C 137.57 190.83 138.41 190.02 138.43 189.00 L 138.46 187.98 C 138.48 186.96 137.67 186.11 136.65 186.09 C 135.63 186.07 134.78 186.88 134.76 187.90 Z M 134.74 188.94 L 134.73 189.95 C 134.72 190.98 135.54 191.81 136.56 191.82 C 137.58 191.83 138.42 191.01 138.43 189.99 L 138.43 188.97 C 138.44 187.95 137.62 187.12 136.60 187.11 C 135.58 187.10 134.75 187.92 134.74 188.94 Z M 134.73 189.98 L 134.73 190.98 C 134.74 192.00 135.57 192.82 136.59 192.82 C 137.61 192.81 138.44 191.98 138.43 190.96 L 138.43 189.96 C 138.42 188.94 137.59 188.12 136.57 188.12 C 135.55 188.13 134.72 188.96 134.73 189.98 Z M 134.73 191.00 L 134.75 191.98 C 134.77 193.01 135.62 193.82 136.64 193.80 C 137.66 193.78 138.47 192.93 138.45 191.91 L 138.43 190.93 C 138.41 189.91 137.57 189.10 136.55 189.12 C 135.53 189.14 134.71 189.98 134.73 191.00 Z M 134.75 192.01 L 134.79 193.02 C 134.83 194.04 135.68 194.83 136.70 194.80 C 137.72 194.76 138.52 193.91 138.48 192.89 L 138.45 191.88 C 138.41 190.86 137.56 190.07 136.54 190.10 C 135.52 190.14 134.72 190.99 134.75 192.01 Z M 134.79 193.07 L 134.86 194.07 C 134.92 195.09 135.80 195.86 136.82 195.79 C 137.84 195.73 138.61 194.85 138.55 193.83 L 138.48 192.83 C 138.42 191.81 137.54 191.04 136.52 191.11 C 135.50 191.17 134.73 192.05 134.79 193.07 Z M 134.86 194.15 L 134.97 195.13 C 135.08 196.15 135.99 196.88 137.01 196.77 C 138.02 196.66 138.76 195.75 138.65 194.73 L 138.54 193.75 C 138.43 192.73 137.51 192.00 136.50 192.11 C 135.48 192.22 134.75 193.14 134.86 194.15 Z M 134.99 195.25 L 135.16 196.23 C 135.33 197.23 136.29 197.91 137.29 197.73 C 138.30 197.56 138.97 196.60 138.80 195.60 L 138.63 194.62 C 138.45 193.61 137.50 192.94 136.49 193.11 C 135.49 193.29 134.81 194.24 134.99 195.25 Z M 135.19 196.36 L 135.43 197.34 C 135.68 198.33 136.68 198.93 137.67 198.68 C 138.66 198.43 139.26 197.43 139.01 196.44 L 138.77 195.46 C 138.52 194.47 137.52 193.87 136.53 194.12 C 135.54 194.37 134.94 195.37 135.19 196.36 Z M 135.47 197.47 L 135.79 198.43 C 136.11 199.40 137.16 199.93 138.12 199.60 C 139.09 199.28 139.62 198.24 139.29 197.27 L 138.97 196.30 C 138.65 195.34 137.61 194.81 136.64 195.13 C 135.67 195.46 135.15 196.50 135.47 197.47 Z M 135.83 198.55 L 136.22 199.49 C 136.61 200.43 137.68 200.88 138.63 200.50 C 139.57 200.11 140.02 199.03 139.63 198.09 L 139.25 197.15 C 138.86 196.21 137.79 195.76 136.84 196.14 C 135.90 196.53 135.45 197.61 135.83 198.55 Z M 136.27 199.60 L 136.71 200.49 C 137.15 201.41 138.26 201.78 139.17 201.34 C 140.09 200.89 140.47 199.78 140.02 198.87 L 139.58 197.98 C 139.14 197.06 138.03 196.69 137.12 197.13 C 136.20 197.58 135.82 198.69 136.27 199.60 Z M 136.77 200.61 L 137.28 201.47 C 137.79 202.35 138.92 202.65 139.80 202.14 C 140.68 201.63 140.97 200.50 140.46 199.62 L 139.96 198.75 C 139.44 197.87 138.31 197.57 137.44 198.09 C 136.56 198.60 136.26 199.73 136.77 200.61 Z M 137.36 201.60 L 137.95 202.45 C 138.53 203.28 139.67 203.49 140.51 202.91 C 141.34 202.32 141.55 201.18 140.97 200.34 L 140.38 199.50 C 139.80 198.66 138.65 198.46 137.82 199.04 C 136.98 199.62 136.78 200.76 137.36 201.60 Z M 138.04 202.56 L 138.66 203.32 C 139.31 204.11 140.47 204.22 141.25 203.58 C 142.04 202.93 142.15 201.77 141.50 200.99 L 140.88 200.23 C 140.23 199.44 139.07 199.33 138.29 199.97 C 137.51 200.62 137.39 201.78 138.04 202.56 Z M 138.75 203.42 L 139.41 204.12 C 140.11 204.85 141.27 204.88 142.01 204.19 C 142.74 203.49 142.77 202.33 142.08 201.59 L 141.42 200.89 C 140.72 200.16 139.56 200.13 138.82 200.82 C 138.08 201.52 138.05 202.68 138.75 203.42 Z M 139.49 204.19 L 140.21 204.87 C 140.95 205.56 142.11 205.52 142.81 204.79 C 143.50 204.05 143.46 202.89 142.72 202.19 L 142.00 201.51 C 141.26 200.82 140.10 200.86 139.41 201.60 C 138.71 202.34 138.75 203.50 139.49 204.19 Z M 140.30 204.94 L 141.07 205.58 C 141.85 206.22 143.00 206.12 143.65 205.34 C 144.29 204.56 144.18 203.40 143.41 202.76 L 142.64 202.12 C 141.86 201.48 140.70 201.58 140.06 202.36 C 139.41 203.14 139.52 204.30 140.30 204.94 Z M 141.16 205.65 L 141.97 206.24 C 142.79 206.83 143.93 206.64 144.53 205.83 C 145.12 205.01 144.94 203.86 144.12 203.27 L 143.31 202.69 C 142.49 202.09 141.35 202.28 140.75 203.10 C 140.16 203.91 140.35 205.06 141.16 205.65 Z M 142.08 206.30 L 142.93 206.83 C 143.78 207.36 144.91 207.10 145.44 206.24 C 145.97 205.39 145.71 204.26 144.86 203.73 L 144.01 203.20 C 143.15 202.67 142.03 202.93 141.49 203.79 C 140.96 204.65 141.22 205.77 142.08 206.30 Z M 143.03 206.89 L 143.91 207.36 C 144.80 207.83 145.91 207.49 146.38 206.60 C 146.85 205.71 146.51 204.61 145.62 204.13 L 144.75 203.67 C 143.86 203.19 142.75 203.53 142.28 204.42 C 141.81 205.31 142.14 206.42 143.03 206.89 Z M 144.01 207.40 L 144.92 207.82 C 145.84 208.24 146.92 207.83 147.34 206.92 C 147.76 206.00 147.35 204.92 146.43 204.50 L 145.52 204.09 C 144.61 203.67 143.53 204.07 143.11 204.99 C 142.69 205.91 143.09 206.99 144.01 207.40 Z M 145.01 207.86 L 145.96 208.23 C 146.89 208.59 147.95 208.13 148.32 207.19 C 148.68 206.26 148.22 205.20 147.28 204.83 L 146.34 204.46 C 145.41 204.10 144.35 204.56 143.98 205.50 C 143.62 206.43 144.08 207.49 145.01 207.86 Z M 146.04 208.25 L 146.97 208.57 C 147.93 208.89 148.96 208.38 149.28 207.42 C 149.60 206.47 149.09 205.44 148.13 205.12 L 147.20 204.80 C 146.25 204.48 145.21 205.00 144.89 205.95 C 144.57 206.90 145.09 207.93 146.04 208.25 Z M 147.06 208.59 L 148.02 208.86 C 148.98 209.14 149.99 208.57 150.26 207.61 C 150.53 206.64 149.97 205.63 149.00 205.36 L 148.05 205.09 C 147.08 204.82 146.07 205.38 145.80 206.35 C 145.53 207.32 146.09 208.32 147.06 208.59 Z M 148.11 208.89 L 149.09 209.11 C 150.07 209.33 151.04 208.72 151.27 207.74 C 151.49 206.76 150.87 205.78 149.89 205.56 L 148.91 205.34 C 147.93 205.12 146.96 205.73 146.74 206.71 C 146.51 207.69 147.13 208.66 148.11 208.89 Z M 149.18 209.13 L 150.16 209.29 C 151.15 209.46 152.09 208.80 152.26 207.81 C 152.43 206.82 151.77 205.88 150.78 205.71 L 149.80 205.54 C 148.81 205.37 147.87 206.04 147.70 207.03 C 147.53 208.02 148.20 208.96 149.18 209.13 Z M 150.25 209.31 L 151.20 209.42 C 152.20 209.55 153.11 208.84 153.23 207.84 C 153.35 206.85 152.64 205.94 151.65 205.82 L 150.69 205.70 C 149.70 205.58 148.79 206.28 148.67 207.28 C 148.55 208.28 149.25 209.18 150.25 209.31 Z M 151.27 209.43 L 152.26 209.51 C 153.26 209.60 154.14 208.85 154.22 207.86 C 154.31 206.86 153.57 205.98 152.57 205.89 L 151.58 205.81 C 150.58 205.73 149.70 206.47 149.61 207.47 C 149.53 208.47 150.27 209.35 151.27 209.43 Z M 152.31 209.52 L 153.34 209.57 C 154.35 209.63 155.20 208.86 155.26 207.86 C 155.31 206.86 154.54 206.00 153.54 205.94 L 152.51 205.89 C 151.51 205.83 150.65 206.60 150.60 207.60 C 150.54 208.61 151.31 209.46 152.31 209.52 Z M 153.38 209.57 L 154.40 209.61 C 155.40 209.64 156.24 208.85 156.28 207.85 C 156.31 206.85 155.52 206.01 154.52 205.98 L 153.50 205.94 C 152.50 205.91 151.66 206.70 151.63 207.70 C 151.59 208.70 152.38 209.54 153.38 209.57 Z M 154.43 209.61 L 155.41 209.62 C 156.42 209.64 157.24 208.84 157.26 207.84 C 157.27 206.84 156.48 206.01 155.47 205.99 L 154.49 205.98 C 153.49 205.96 152.66 206.76 152.65 207.76 C 152.63 208.76 153.43 209.59 154.43 209.61 Z M 155.44 209.62 L 156.45 209.62 C 157.45 209.62 158.26 208.81 158.26 207.81 C 158.26 206.81 157.45 205.99 156.45 205.99 L 155.44 205.99 C 154.44 205.99 153.63 206.80 153.63 207.81 C 153.63 208.81 154.44 209.62 155.44 209.62 Z M 156.48 209.62 L 157.49 209.61 C 158.49 209.59 159.29 208.77 159.28 207.76 C 159.26 206.76 158.44 205.96 157.43 205.98 L 156.42 205.99 C 155.42 206.01 154.62 206.84 154.63 207.84 C 154.65 208.84 155.47 209.64 156.48 209.62 Z M 157.53 209.61 L 158.54 209.57 C 159.54 209.54 160.33 208.70 160.29 207.70 C 160.26 206.69 159.42 205.91 158.42 205.94 L 157.40 205.98 C 156.40 206.01 155.62 206.85 155.65 207.85 C 155.68 208.86 156.52 209.64 157.53 209.61 Z M 158.58 209.57 L 159.58 209.51 C 160.58 209.46 161.34 208.60 161.29 207.60 C 161.23 206.60 160.38 205.83 159.38 205.89 L 158.38 205.95 C 157.38 206.00 156.61 206.86 156.67 207.86 C 156.72 208.86 157.58 209.63 158.58 209.57 Z M 159.63 209.51 L 160.63 209.42 C 161.62 209.34 162.36 208.46 162.28 207.46 C 162.19 206.46 161.31 205.72 160.31 205.81 L 159.32 205.90 C 158.32 205.98 157.58 206.86 157.67 207.86 C 157.76 208.86 158.64 209.60 159.63 209.51 Z M 160.70 209.41 L 161.69 209.29 C 162.68 209.16 163.38 208.25 163.25 207.26 C 163.13 206.27 162.22 205.56 161.22 205.69 L 160.24 205.82 C 159.24 205.94 158.54 206.85 158.67 207.85 C 158.80 208.84 159.71 209.54 160.70 209.41 Z M 161.78 209.27 L 162.76 209.10 C 163.75 208.92 164.40 207.98 164.23 206.99 C 164.05 206.01 163.11 205.35 162.12 205.53 L 161.13 205.71 C 160.15 205.88 159.49 206.82 159.67 207.81 C 159.85 208.80 160.79 209.45 161.78 209.27 Z M 162.86 209.08 L 163.82 208.85 C 164.79 208.61 165.39 207.64 165.16 206.66 C 164.93 205.69 163.95 205.09 162.98 205.32 L 162.02 205.55 C 161.05 205.78 160.45 206.76 160.68 207.73 C 160.91 208.71 161.89 209.31 162.86 209.08 Z M 163.91 208.82 L 164.84 208.55 C 165.80 208.26 166.35 207.26 166.07 206.30 C 165.78 205.34 164.78 204.79 163.82 205.07 L 162.89 205.35 C 161.93 205.63 161.38 206.64 161.66 207.60 C 161.94 208.56 162.95 209.10 163.91 208.82 Z M 164.91 208.52 L 165.85 208.20 C 166.80 207.88 167.31 206.85 166.98 205.90 C 166.66 204.96 165.63 204.45 164.69 204.77 L 163.75 205.09 C 162.80 205.42 162.29 206.45 162.62 207.39 C 162.94 208.34 163.97 208.85 164.91 208.52 Z M 165.91 208.18 L 166.86 207.83 C 167.79 207.48 168.26 206.43 167.91 205.49 C 167.56 204.56 166.52 204.09 165.58 204.44 L 164.63 204.79 C 163.70 205.15 163.22 206.19 163.57 207.13 C 163.93 208.06 164.97 208.54 165.91 208.18 Z M 166.89 207.81 L 167.85 207.43 C 168.78 207.06 169.23 206.00 168.86 205.07 C 168.48 204.15 167.43 203.70 166.50 204.07 L 165.54 204.45 C 164.62 204.82 164.17 205.88 164.54 206.81 C 164.91 207.73 165.96 208.18 166.89 207.81 Z M 167.87 207.42 L 168.80 207.03 C 169.72 206.65 170.16 205.59 169.77 204.67 C 169.39 203.74 168.33 203.31 167.41 203.69 L 166.48 204.08 C 165.56 204.46 165.12 205.52 165.51 206.44 C 165.89 207.37 166.95 207.80 167.87 207.42 Z M 168.82 207.02 L 169.73 206.63 C 170.65 206.23 171.07 205.17 170.68 204.25 C 170.28 203.34 169.22 202.91 168.30 203.31 L 167.39 203.70 C 166.47 204.10 166.05 205.16 166.44 206.08 C 166.84 206.99 167.90 207.42 168.82 207.02 Z M 169.75 206.62 L 170.67 206.21 C 171.58 205.81 171.99 204.74 171.59 203.83 C 171.18 202.91 170.11 202.50 169.20 202.91 L 168.28 203.32 C 167.37 203.72 166.96 204.79 167.37 205.70 C 167.77 206.61 168.84 207.02 169.75 206.62 Z M 170.69 206.20 L 171.60 205.78 C 172.51 205.37 172.91 204.29 172.49 203.39 C 172.07 202.48 171.00 202.08 170.09 202.50 L 169.18 202.92 C 168.27 203.34 167.88 204.41 168.29 205.31 C 168.71 206.22 169.78 206.62 170.69 206.20 Z M 171.63 205.77 L 172.53 205.34 C 173.43 204.91 173.81 203.83 173.38 202.93 C 172.96 202.03 171.88 201.65 170.98 202.08 L 170.07 202.51 C 169.17 202.94 168.79 204.02 169.22 204.92 C 169.65 205.82 170.73 206.20 171.63 205.77 Z M 172.56 205.33 L 173.47 204.87 C 174.36 204.43 174.72 203.35 174.28 202.46 C 173.84 201.56 172.76 201.20 171.86 201.64 L 170.95 202.09 C 170.06 202.53 169.70 203.62 170.14 204.51 C 170.58 205.40 171.66 205.77 172.56 205.33 Z M 173.49 204.86 L 174.40 204.39 C 175.28 203.94 175.63 202.85 175.17 201.97 C 174.71 201.08 173.63 200.73 172.74 201.19 L 171.84 201.66 C 170.95 202.11 170.61 203.20 171.06 204.08 C 171.52 204.97 172.61 205.32 173.49 204.86 Z M 174.42 204.38 L 175.31 203.90 C 176.18 203.43 176.51 202.34 176.04 201.46 C 175.57 200.59 174.48 200.26 173.60 200.73 L 172.72 201.20 C 171.84 201.67 171.51 202.77 171.98 203.64 C 172.45 204.52 173.54 204.85 174.42 204.38 Z M 175.33 203.89 L 176.20 203.41 C 177.07 202.92 177.38 201.82 176.89 200.96 C 176.41 200.09 175.31 199.78 174.45 200.26 L 173.58 200.74 C 172.71 201.23 172.40 202.32 172.88 203.19 C 173.37 204.06 174.46 204.37 175.33 203.89 Z M 176.22 203.39 L 177.07 202.90 C 177.93 202.40 178.22 201.30 177.73 200.44 C 177.23 199.58 176.13 199.29 175.27 199.79 L 174.42 200.28 C 173.56 200.77 173.27 201.87 173.76 202.73 C 174.26 203.59 175.36 203.89 176.22 203.39 Z M 177.09 202.88 L 177.95 202.37 C 178.81 201.86 179.08 200.75 178.57 199.90 C 178.06 199.05 176.95 198.77 176.10 199.29 L 175.24 199.80 C 174.39 200.31 174.12 201.42 174.63 202.27 C 175.14 203.12 176.24 203.40 177.09 202.88 Z M 177.98 202.35 L 178.83 201.82 C 179.67 201.29 179.93 200.19 179.41 199.34 C 178.88 198.50 177.78 198.24 176.93 198.77 L 176.08 199.30 C 175.24 199.83 174.98 200.93 175.50 201.78 C 176.03 202.62 177.14 202.88 177.98 202.35 Z M 178.85 201.80 L 179.69 201.27 C 180.53 200.73 180.77 199.62 180.23 198.79 C 179.70 197.95 178.59 197.71 177.75 198.24 L 176.91 198.78 C 176.08 199.32 175.84 200.43 176.37 201.26 C 176.91 202.10 178.02 202.34 178.85 201.80 Z M 179.71 201.25 L 180.54 200.71 C 181.36 200.17 181.59 199.05 181.05 198.23 C 180.51 197.40 179.39 197.17 178.57 197.71 L 177.74 198.26 C 176.91 198.80 176.68 199.91 177.22 200.74 C 177.77 201.57 178.88 201.80 179.71 201.25 Z M 180.55 200.70 L 181.37 200.15 C 182.19 199.60 182.41 198.49 181.86 197.67 C 181.31 196.84 180.20 196.62 179.38 197.17 L 178.56 197.72 C 177.73 198.27 177.51 199.38 178.06 200.21 C 178.61 201.03 179.72 201.25 180.55 200.70 Z M 181.38 200.14 L 182.18 199.60 C 182.99 199.05 183.21 197.93 182.65 197.12 C 182.10 196.30 180.98 196.08 180.16 196.64 L 179.37 197.18 C 178.55 197.74 178.34 198.85 178.89 199.67 C 179.45 200.48 180.56 200.70 181.38 200.14 Z M 182.20 199.58 L 182.99 199.03 C 183.80 198.46 184.00 197.34 183.43 196.53 C 182.86 195.73 181.75 195.53 180.94 196.10 L 180.14 196.66 C 179.33 197.22 179.14 198.34 179.71 199.15 C 180.27 199.96 181.39 200.15 182.20 199.58 Z M 183.03 199.00 L 183.83 198.41 C 184.62 197.82 184.79 196.70 184.20 195.91 C 183.62 195.11 182.50 194.95 181.70 195.53 L 180.90 196.13 C 180.11 196.71 179.94 197.83 180.53 198.62 C 181.12 199.42 182.24 199.59 183.03 199.00 Z M 183.87 198.37 L 184.68 197.73 C 185.45 197.12 185.58 196.00 184.97 195.23 C 184.36 194.45 183.23 194.32 182.46 194.94 L 181.66 195.57 C 180.88 196.18 180.75 197.31 181.37 198.08 C 181.98 198.85 183.10 198.98 183.87 198.37 Z M 184.73 197.69 L 185.53 197.01 C 186.27 196.36 186.36 195.24 185.72 194.49 C 185.08 193.74 183.95 193.66 183.20 194.30 L 182.41 194.98 C 181.66 195.62 181.57 196.75 182.21 197.50 C 182.86 198.24 183.98 198.33 184.73 197.69 Z M 185.58 196.96 L 186.33 196.26 C 187.05 195.59 187.09 194.46 186.42 193.74 C 185.75 193.02 184.62 192.98 183.90 193.65 L 183.15 194.35 C 182.43 195.02 182.39 196.15 183.06 196.87 C 183.73 197.59 184.86 197.63 185.58 196.96 Z M 186.38 196.21 L 187.11 195.47 C 187.80 194.77 187.80 193.65 187.10 192.95 C 186.40 192.26 185.27 192.26 184.58 192.96 L 183.85 193.70 C 183.16 194.40 183.16 195.52 183.86 196.22 C 184.56 196.91 185.68 196.91 186.38 196.21 Z M 187.16 195.42 L 187.85 194.66 C 188.51 193.94 188.46 192.81 187.74 192.15 C 187.01 191.49 185.89 191.54 185.22 192.26 L 184.53 193.02 C 183.87 193.74 183.92 194.87 184.64 195.53 C 185.37 196.19 186.49 196.14 187.16 195.42 Z M 187.90 194.60 L 188.53 193.85 C 189.16 193.09 189.06 191.97 188.31 191.34 C 187.56 190.71 186.44 190.81 185.81 191.56 L 185.17 192.32 C 184.54 193.07 184.64 194.20 185.39 194.83 C 186.15 195.46 187.27 195.36 187.90 194.60 Z M 188.59 193.77 L 189.15 193.03 C 189.73 192.24 189.58 191.13 188.79 190.54 C 188.00 189.95 186.89 190.11 186.30 190.90 L 185.75 191.64 C 185.16 192.43 185.32 193.54 186.10 194.13 C 186.89 194.72 188.00 194.56 188.59 193.77 Z M 189.22 192.91 L 189.81 191.97 C 190.34 191.15 190.09 190.05 189.26 189.53 C 188.43 189.01 187.34 189.26 186.81 190.08 L 186.23 191.02 C 185.70 191.85 185.95 192.94 186.78 193.46 C 187.61 193.99 188.70 193.74 189.22 192.91 Z M 189.91 191.79 L 190.34 190.89 C 190.76 190.01 190.39 188.95 189.51 188.53 C 188.63 188.11 187.58 188.48 187.15 189.36 L 186.72 190.26 C 186.30 191.14 186.67 192.20 187.55 192.62 C 188.43 193.04 189.49 192.67 189.91 191.79 Z M 190.42 190.67 L 190.71 189.77 C 191.01 188.84 190.51 187.85 189.58 187.55 C 188.66 187.25 187.67 187.76 187.36 188.68 L 187.07 189.58 C 186.77 190.51 187.28 191.50 188.20 191.80 C 189.13 192.10 190.12 191.59 190.42 190.67 Z M 190.77 189.54 L 190.93 188.62 C 191.10 187.67 190.47 186.75 189.52 186.58 C 188.56 186.41 187.65 187.04 187.48 188.00 L 187.31 188.91 C 187.14 189.87 187.77 190.78 188.73 190.95 C 189.68 191.12 190.59 190.49 190.77 189.54 Z M 190.95 188.40 L 190.99 187.54 C 191.04 186.58 190.30 185.76 189.34 185.71 C 188.38 185.66 187.56 186.40 187.51 187.36 L 187.46 188.22 C 187.41 189.18 188.15 190.00 189.12 190.05 C 190.08 190.10 190.90 189.36 190.95 188.40 Z M 190.97 187.28 L 190.88 186.37 C 190.79 185.42 189.94 184.72 188.99 184.82 C 188.04 184.91 187.34 185.76 187.44 186.71 L 187.53 187.62 C 187.62 188.57 188.47 189.27 189.42 189.17 C 190.37 189.08 191.07 188.23 190.97 187.28 Z M 190.82 186.08 L 190.55 185.12 C 190.29 184.20 189.34 183.67 188.43 183.92 C 187.51 184.18 186.98 185.13 187.23 186.04 L 187.50 187.00 C 187.76 187.92 188.71 188.45 189.62 188.20 C 190.54 187.94 191.07 187.00 190.82 186.08 Z M 190.43 184.84 L 189.94 183.82 C 189.53 182.96 188.51 182.60 187.66 183.01 C 186.81 183.42 186.45 184.44 186.86 185.29 L 187.35 186.32 C 187.76 187.17 188.78 187.53 189.63 187.12 C 190.48 186.71 190.84 185.69 190.43 184.84 Z M 189.81 183.61 L 189.23 182.74 C 188.71 181.97 187.66 181.76 186.88 182.27 C 186.11 182.79 185.89 183.84 186.41 184.62 L 186.99 185.49 C 187.51 186.27 188.56 186.48 189.34 185.96 C 190.11 185.44 190.33 184.39 189.81 183.61 Z M 189.13 182.64 L 188.51 181.87 C 187.94 181.15 186.88 181.03 186.16 181.60 C 185.44 182.18 185.32 183.23 185.90 183.95 L 186.51 184.72 C 187.09 185.44 188.14 185.56 188.86 184.99 C 189.58 184.41 189.70 183.36 189.13 182.64 Z M 188.44 181.82 L 187.75 181.04 C 187.14 180.36 186.10 180.29 185.42 180.90 C 184.74 181.50 184.68 182.54 185.28 183.22 L 185.97 184.00 C 186.57 184.68 187.62 184.75 188.30 184.14 C 188.98 183.54 189.04 182.50 188.44 181.82 Z M 187.69 181.01 L 186.96 180.24 C 186.35 179.59 185.32 179.56 184.67 180.18 C 184.02 180.80 183.99 181.83 184.61 182.48 L 185.33 183.25 C 185.95 183.90 186.98 183.93 187.63 183.31 C 188.28 182.69 188.31 181.66 187.69 181.01 Z M 186.92 180.23 L 186.19 179.49 C 185.57 178.86 184.56 178.86 183.93 179.48 C 183.30 180.10 183.29 181.11 183.91 181.74 L 184.64 182.48 C 185.27 183.11 186.28 183.12 186.91 182.50 C 187.54 181.88 187.55 180.86 186.92 180.23 Z M 186.17 179.50 L 185.47 178.80 C 184.85 178.19 183.85 178.19 183.24 178.81 C 182.62 179.42 182.62 180.42 183.24 181.04 L 183.94 181.73 C 184.56 182.35 185.55 182.35 186.17 181.73 C 186.79 181.11 186.78 180.12 186.17 179.50 Z M 185.46 178.83 L 184.76 178.12 C 184.16 177.51 183.17 177.51 182.56 178.11 C 181.95 178.72 181.95 179.70 182.55 180.31 L 183.25 181.01 C 183.85 181.62 184.84 181.63 185.45 181.02 C 186.06 180.42 186.06 179.44 185.46 178.83 Z M 184.77 178.17 L 183.92 177.27 C 183.34 176.66 182.38 176.63 181.76 177.20 C 181.15 177.78 181.12 178.75 181.70 179.36 L 182.54 180.26 C 183.12 180.88 184.09 180.91 184.70 180.33 C 185.32 179.75 185.35 178.79 184.77 178.17 Z M 183.94 177.34 L 183.28 176.58 C 182.74 175.96 181.80 175.90 181.17 176.44 C 180.55 176.98 180.49 177.92 181.03 178.55 L 181.68 179.30 C 182.22 179.92 183.17 179.99 183.79 179.44 C 184.41 178.90 184.48 177.96 183.94 177.34 Z M 183.29 176.64 L 182.76 175.99 C 182.25 175.36 181.33 175.26 180.70 175.77 C 180.07 176.28 179.98 177.20 180.48 177.83 L 181.02 178.49 C 181.53 179.11 182.45 179.21 183.08 178.70 C 183.70 178.19 183.80 177.27 183.29 176.64 Z M 182.75 176.02 L 182.41 175.59 C 181.92 174.96 181.02 174.85 180.40 175.34 C 179.77 175.83 179.66 176.73 180.15 177.36 L 180.49 177.79 C 180.98 178.42 181.88 178.53 182.51 178.04 C 183.13 177.55 183.24 176.65 182.75 176.02 Z"
      fill="black"
      fill-rule="nonzero" /></svg>