<svg xmlns="http://www.w3.org/2000/svg" width="300" height="300" viewBox="0 0 300 300">
<path d="M 122.54 116.24 L 121.56 116.24 C 120.73 116.24 120.06 116.91 120.06 117.73 C 120.06 118.56 120.73 119.23 121.56 119.23 L 122.54 119.23 C 123.37 119.23 124.04 118.56 124.04 117.73 C 124.04 116.91 123.37 116.24 122.54 116.24 Z M 121.56 116.23 L 120.56 116.23 C 119.73 116.23 119.06 116.90 119.06 117.73 C 119.06 118.56 119.73 119.24 120.56 119.24 L 121.56 119.24 C 122.39 119.24 123.06 118.56 123.06 117.73 C 123.06 116.90 122.39 116.23 121.56 116.23 Z M 120.56 116.22 L 119.55 116.22 C 118.71 116.22 118.03 116.90 118.03 117.73 C 118.03 118.57 118.71 119.25 119.55 119.25 L 120.56 119.25 C 121.40 119.25 122.07 118.57 122.07 117.73 C 122.07 116.90 121.40 116.22 120.56 116.22 Z M 119.55 116.20 L 118.58 116.20 C 117.73 116.20 117.05 116.89 117.05 117.73 C 117.05 118.58 117.73 119.26 118.58 119.26 L 119.55 119.26 C 120.39 119.26 121.08 118.58 121.08 117.73 C 121.08 116.89 120.39 116.20 119.55 116.20 Z M 118.58 116.18 L 117.58 116.18 C 116.72 116.18 116.03 116.87 116.03 117.73 C 116.03 118.59 116.72 119.29 117.58 119.29 L 118.58 119.29 C 119.44 119.29 120.13 118.59 120.13 117.73 C 120.13 116.87 119.44 116.18 118.58 116.18 Z M 117.58 116.15 L 116.56 116.15 C 115.69 116.15 114.98 116.86 114.98 117.73 C 114.98 118.61 115.69 119.32 116.56 119.32 L 117.58 119.32 C 118.46 119.32 119.17 118.61 119.17 117.73 C 119.17 116.86 118.46 116.15 117.58 116.15 Z M 116.56 116.12 L 115.29 116.12 C 114.40 116.12 113.67 116.84 113.68 117.74 C 113.68 118.63 114.40 119.35 115.29 119.35 L 116.56 119.35 C 117.46 119.35 118.18 118.62 118.18 117.73 C 118.18 116.84 117.45 116.12 116.56 116.12 Z M 115.25 116.09 L 114.14 116.12 C 113.23 116.15 112.51 116.90 112.54 117.81 C 112.56 118.71 113.32 119.43 114.22 119.41 L 115.33 119.38 C 116.24 119.35 116.96 118.60 116.93 117.69 C 116.91 116.78 116.15 116.07 115.25 116.09 Z M 113.38 116.30 L 113.21 116.39 C 112.40 116.83 112.10 117.84 112.54 118.65 C 112.98 119.46 113.99 119.76 114.80 119.32 L 114.97 119.23 C 115.78 118.79 116.08 117.78 115.64 116.97 C 115.20 116.16 114.19 115.86 113.38 116.30 Z M 113.68 119.51 L 114.22 119.62 C 115.13 119.80 116.01 119.21 116.20 118.30 C 116.38 117.39 115.79 116.50 114.88 116.32 L 114.34 116.21 C 113.43 116.03 112.54 116.62 112.36 117.53 C 112.17 118.44 112.76 119.32 113.68 119.51 Z M 114.33 119.64 L 115.30 119.77 C 116.22 119.89 117.07 119.24 117.20 118.32 C 117.32 117.39 116.67 116.54 115.74 116.42 L 114.77 116.29 C 113.85 116.17 113.00 116.82 112.87 117.75 C 112.75 118.67 113.40 119.52 114.33 119.64 Z M 115.35 119.78 L 116.62 119.91 C 117.55 120.01 118.38 119.33 118.48 118.40 C 118.57 117.46 117.89 116.63 116.96 116.54 L 115.69 116.41 C 114.76 116.31 113.93 116.99 113.83 117.92 C 113.74 118.86 114.42 119.69 115.35 119.78 Z M 116.66 119.92 L 117.97 120.02 C 118.91 120.09 119.73 119.39 119.80 118.46 C 119.87 117.52 119.17 116.70 118.23 116.63 L 116.92 116.53 C 115.98 116.46 115.17 117.16 115.09 118.09 C 115.02 119.03 115.72 119.85 116.66 119.92 Z M 118.01 120.03 L 119.04 120.09 C 119.98 120.14 120.78 119.42 120.84 118.48 C 120.89 117.54 120.17 116.73 119.23 116.68 L 118.20 116.62 C 117.26 116.57 116.45 117.29 116.40 118.23 C 116.35 119.17 117.07 119.98 118.01 120.03 Z M 119.06 120.09 L 120.10 120.13 C 121.04 120.17 121.84 119.44 121.88 118.50 C 121.92 117.56 121.19 116.76 120.24 116.72 L 119.21 116.68 C 118.26 116.64 117.47 117.37 117.43 118.31 C 117.39 119.25 118.12 120.05 119.06 120.09 Z M 120.12 120.14 L 121.14 120.17 C 122.09 120.20 122.88 119.46 122.91 118.52 C 122.94 117.57 122.20 116.78 121.25 116.75 L 120.23 116.72 C 119.28 116.69 118.49 117.43 118.46 118.37 C 118.43 119.32 119.17 120.11 120.12 120.14 Z M 121.16 120.17 L 122.15 120.19 C 123.09 120.22 123.88 119.47 123.90 118.52 C 123.92 117.58 123.18 116.80 122.23 116.77 L 121.24 116.75 C 120.29 116.73 119.51 117.48 119.49 118.42 C 119.46 119.37 120.21 120.15 121.16 120.17 Z M 122.16 120.20 L 123.10 120.21 C 124.05 120.23 124.83 119.48 124.84 118.53 C 124.86 117.58 124.11 116.80 123.16 116.79 L 122.22 116.77 C 121.27 116.76 120.49 117.51 120.48 118.45 C 120.46 119.40 121.21 120.18 122.16 120.20 Z M 123.11 120.21 L 124.17 120.23 C 125.11 120.24 125.89 119.48 125.90 118.54 C 125.91 117.59 125.16 116.81 124.21 116.80 L 123.15 116.79 C 122.21 116.77 121.43 117.53 121.42 118.48 C 121.41 119.43 122.16 120.20 123.11 120.21 Z M 124.18 120.23 L 125.23 120.24 C 126.17 120.24 126.95 119.48 126.96 118.54 C 126.96 117.59 126.20 116.82 125.25 116.81 L 124.20 116.80 C 123.26 116.79 122.48 117.55 122.47 118.50 C 122.47 119.45 123.23 120.22 124.18 120.23 Z M 125.23 120.24 L 126.20 120.24 C 127.15 120.25 127.92 119.48 127.93 118.53 C 127.93 117.59 127.16 116.81 126.22 116.81 L 125.25 116.81 C 124.30 116.80 123.53 117.57 123.53 118.52 C 123.52 119.46 124.29 120.23 125.23 120.24 Z M 126.21 120.24 L 127.14 120.24 C 128.08 120.24 128.85 119.48 128.85 118.53 C 128.85 117.58 128.09 116.81 127.14 116.81 L 126.21 116.81 C 125.26 116.81 124.50 117.58 124.49 118.52 C 124.49 119.47 125.26 120.24 126.21 120.24 Z M 127.14 120.24 L 128.08 120.24 C 129.03 120.24 129.80 119.48 129.80 118.53 C 129.80 117.58 129.03 116.81 128.08 116.81 L 127.14 116.81 C 126.19 116.81 125.42 117.58 125.42 118.53 C 125.42 119.47 126.19 120.24 127.14 120.24 Z M 128.08 120.24 L 129.06 120.24 C 130.01 120.24 130.78 119.48 130.78 118.53 C 130.78 117.58 130.01 116.81 129.06 116.81 L 128.08 116.81 C 127.13 116.81 126.36 117.58 126.36 118.53 C 126.36 119.48 127.13 120.24 128.08 120.24 Z M 129.06 120.24 L 130.06 120.24 C 131.01 120.24 131.78 119.48 131.78 118.53 C 131.78 117.58 131.01 116.81 130.06 116.81 L 129.06 116.81 C 128.11 116.81 127.35 117.58 127.35 118.53 C 127.35 119.48 128.11 120.24 129.06 120.24 Z M 130.06 120.25 L 131.08 120.25 C 132.03 120.25 132.80 119.48 132.80 118.53 C 132.80 117.58 132.03 116.81 131.08 116.81 L 130.06 116.81 C 129.11 116.81 128.35 117.58 128.35 118.53 C 128.35 119.48 129.11 120.25 130.06 120.25 Z M 131.08 120.25 L 132.09 120.25 C 133.03 120.25 133.80 119.48 133.80 118.53 C 133.80 117.58 133.03 116.81 132.08 116.81 L 131.08 116.81 C 130.13 116.81 129.36 117.58 129.36 118.53 C 129.36 119.48 130.13 120.25 131.08 120.25 Z M 132.09 120.25 L 133.09 120.24 C 134.03 120.24 134.80 119.46 134.80 118.51 C 134.79 117.56 134.02 116.80 133.07 116.80 L 132.08 116.81 C 131.13 116.81 130.36 117.59 130.37 118.54 C 130.37 119.48 131.14 120.25 132.09 120.25 Z M 133.11 120.24 L 134.11 120.22 C 135.06 120.20 135.81 119.42 135.80 118.47 C 135.78 117.52 135.00 116.77 134.05 116.79 L 133.04 116.80 C 132.10 116.82 131.34 117.60 131.36 118.55 C 131.38 119.50 132.16 120.26 133.11 120.24 Z M 134.15 120.22 L 135.16 120.18 C 136.10 120.14 136.84 119.34 136.80 118.39 C 136.76 117.44 135.96 116.71 135.02 116.75 L 134.01 116.79 C 133.06 116.82 132.32 117.63 132.36 118.57 C 132.40 119.52 133.20 120.26 134.15 120.22 Z M 135.21 120.18 L 136.21 120.10 C 137.16 120.04 137.87 119.21 137.80 118.27 C 137.74 117.32 136.91 116.61 135.97 116.68 L 134.96 116.75 C 134.02 116.82 133.30 117.64 133.37 118.59 C 133.44 119.53 134.26 120.24 135.21 120.18 Z M 136.27 120.10 L 137.26 120.00 C 138.20 119.90 138.89 119.05 138.79 118.11 C 138.69 117.16 137.84 116.48 136.90 116.58 L 135.91 116.68 C 134.97 116.78 134.28 117.63 134.38 118.57 C 134.48 119.51 135.32 120.20 136.27 120.10 Z M 137.30 119.99 L 138.29 119.86 C 139.23 119.74 139.90 118.88 139.78 117.94 C 139.65 116.99 138.79 116.33 137.85 116.45 L 136.86 116.58 C 135.92 116.70 135.25 117.57 135.38 118.51 C 135.50 119.45 136.36 120.11 137.30 119.99 Z M 138.32 119.86 L 139.31 119.71 C 140.25 119.57 140.90 118.70 140.76 117.76 C 140.63 116.82 139.75 116.17 138.81 116.31 L 137.82 116.46 C 136.88 116.60 136.23 117.47 136.37 118.41 C 136.51 119.35 137.38 120.00 138.32 119.86 Z M 139.33 119.71 L 140.32 119.56 C 141.25 119.41 141.90 118.53 141.75 117.60 C 141.61 116.66 140.73 116.01 139.79 116.16 L 138.80 116.31 C 137.86 116.46 137.22 117.34 137.36 118.28 C 137.51 119.21 138.39 119.86 139.33 119.71 Z M 140.32 119.56 L 141.29 119.40 C 142.22 119.26 142.87 118.38 142.72 117.44 C 142.57 116.50 141.69 115.86 140.75 116.01 L 139.79 116.16 C 138.85 116.31 138.21 117.19 138.36 118.12 C 138.50 119.06 139.38 119.70 140.32 119.56 Z M 141.29 119.40 L 142.27 119.25 C 143.20 119.10 143.84 118.22 143.69 117.28 C 143.54 116.35 142.66 115.71 141.73 115.86 L 140.75 116.01 C 139.81 116.16 139.18 117.04 139.32 117.98 C 139.47 118.91 140.35 119.55 141.29 119.40 Z M 142.27 119.25 L 143.26 119.08 C 144.20 118.93 144.83 118.05 144.68 117.11 C 144.52 116.18 143.64 115.54 142.71 115.70 L 141.72 115.86 C 140.78 116.01 140.15 116.89 140.30 117.83 C 140.45 118.76 141.34 119.40 142.27 119.25 Z M 143.27 119.08 L 144.28 118.91 C 145.21 118.75 145.84 117.87 145.68 116.93 C 145.52 116.00 144.64 115.37 143.70 115.53 L 142.70 115.70 C 141.76 115.86 141.13 116.74 141.29 117.68 C 141.45 118.61 142.34 119.24 143.27 119.08 Z M 144.29 118.91 L 145.28 118.73 C 146.21 118.57 146.83 117.68 146.67 116.74 C 146.50 115.81 145.61 115.19 144.68 115.35 L 143.69 115.53 C 142.76 115.70 142.13 116.59 142.30 117.52 C 142.47 118.45 143.36 119.07 144.29 118.91 Z M 145.29 118.73 L 146.28 118.55 C 147.21 118.37 147.83 117.48 147.65 116.55 C 147.48 115.61 146.58 115.00 145.65 115.17 L 144.67 115.36 C 143.73 115.53 143.12 116.43 143.29 117.36 C 143.47 118.29 144.36 118.90 145.29 118.73 Z M 146.30 118.54 L 147.29 118.35 C 148.22 118.17 148.82 117.27 148.64 116.34 C 148.46 115.41 147.56 114.80 146.63 114.98 L 145.64 115.18 C 144.71 115.36 144.10 116.26 144.28 117.19 C 144.47 118.12 145.37 118.72 146.30 118.54 Z M 147.30 118.34 L 148.29 118.14 C 149.21 117.95 149.81 117.04 149.62 116.12 C 149.43 115.19 148.52 114.59 147.60 114.78 L 146.61 114.99 C 145.69 115.18 145.09 116.08 145.28 117.01 C 145.47 117.94 146.38 118.53 147.30 118.34 Z M 148.31 118.14 L 149.27 117.93 C 150.20 117.72 150.78 116.81 150.58 115.89 C 150.38 114.96 149.47 114.38 148.54 114.58 L 147.58 114.79 C 146.65 114.99 146.07 115.90 146.27 116.83 C 146.47 117.75 147.38 118.34 148.31 118.14 Z M 149.29 117.92 L 150.29 117.69 C 151.21 117.48 151.78 116.56 151.57 115.64 C 151.36 114.72 150.44 114.14 149.52 114.36 L 148.52 114.58 C 147.60 114.80 147.03 115.72 147.24 116.64 C 147.45 117.56 148.37 118.13 149.29 117.92 Z M 150.31 117.68 L 151.28 117.45 C 152.20 117.22 152.76 116.30 152.54 115.38 C 152.31 114.46 151.39 113.90 150.47 114.13 L 149.50 114.36 C 148.58 114.59 148.02 115.51 148.24 116.43 C 148.47 117.34 149.39 117.91 150.31 117.68 Z M 151.29 117.44 L 152.25 117.20 C 153.17 116.97 153.72 116.04 153.49 115.12 C 153.26 114.21 152.33 113.66 151.41 113.89 L 150.45 114.13 C 149.54 114.36 148.99 115.29 149.22 116.21 C 149.45 117.12 150.38 117.67 151.29 117.44 Z M 152.27 117.19 L 153.22 116.94 C 154.13 116.70 154.68 115.77 154.44 114.86 C 154.20 113.95 153.27 113.40 152.36 113.64 L 151.40 113.89 C 150.49 114.13 149.95 115.06 150.18 115.97 C 150.42 116.88 151.35 117.43 152.27 117.19 Z M 153.23 116.94 L 154.18 116.68 C 155.09 116.44 155.63 115.51 155.39 114.60 C 155.15 113.69 154.21 113.15 153.31 113.39 L 152.35 113.65 C 151.44 113.89 150.90 114.82 151.15 115.73 C 151.39 116.64 152.32 117.18 153.23 116.94 Z M 154.18 116.68 L 155.14 116.43 C 156.05 116.18 156.58 115.25 156.34 114.34 C 156.10 113.43 155.16 112.90 154.26 113.14 L 153.30 113.40 C 152.40 113.64 151.86 114.57 152.10 115.48 C 152.34 116.39 153.28 116.93 154.18 116.68 Z M 155.14 116.42 L 156.11 116.16 C 157.01 115.92 157.55 114.99 157.30 114.08 C 157.06 113.17 156.13 112.64 155.22 112.88 L 154.26 113.14 C 153.35 113.39 152.81 114.32 153.06 115.22 C 153.30 116.13 154.24 116.67 155.14 116.42 Z M 156.11 116.16 L 157.08 115.90 C 157.99 115.65 158.52 114.72 158.28 113.82 C 158.03 112.91 157.10 112.38 156.20 112.62 L 155.22 112.88 C 154.32 113.13 153.78 114.06 154.03 114.96 C 154.27 115.87 155.20 116.40 156.11 116.16 Z M 157.08 115.89 L 158.06 115.63 C 158.96 115.39 159.50 114.46 159.25 113.55 C 159.01 112.65 158.08 112.12 157.18 112.36 L 156.20 112.62 C 155.30 112.87 154.76 113.80 155.00 114.70 C 155.25 115.60 156.18 116.14 157.08 115.89 Z M 158.06 115.63 L 159.02 115.37 C 159.92 115.13 160.46 114.20 160.21 113.30 C 159.97 112.40 159.05 111.86 158.14 112.10 L 157.18 112.36 C 156.28 112.60 155.74 113.53 155.99 114.43 C 156.23 115.33 157.15 115.87 158.06 115.63 Z M 159.02 115.37 L 159.99 115.11 C 160.89 114.86 161.42 113.94 161.18 113.04 C 160.94 112.14 160.01 111.61 159.11 111.85 L 158.14 112.11 C 157.24 112.35 156.71 113.27 156.95 114.17 C 157.19 115.07 158.12 115.61 159.02 115.37 Z M 159.99 115.10 L 160.96 114.84 C 161.85 114.59 162.38 113.67 162.14 112.77 C 161.90 111.88 160.97 111.35 160.07 111.59 L 159.11 111.85 C 158.21 112.10 157.68 113.02 157.92 113.92 C 158.17 114.82 159.09 115.34 159.99 115.10 Z M 160.96 114.83 L 161.93 114.57 C 162.82 114.32 163.35 113.39 163.10 112.50 C 162.85 111.61 161.93 111.08 161.03 111.33 L 160.07 111.60 C 159.17 111.84 158.65 112.77 158.90 113.66 C 159.14 114.56 160.07 115.08 160.96 114.83 Z M 161.94 114.56 L 162.91 114.28 C 163.80 114.03 164.31 113.11 164.06 112.21 C 163.81 111.32 162.88 110.81 161.99 111.06 L 161.02 111.34 C 160.13 111.59 159.62 112.51 159.87 113.40 C 160.12 114.30 161.05 114.81 161.94 114.56 Z M 162.92 114.28 L 163.89 113.99 C 164.77 113.74 165.28 112.81 165.02 111.92 C 164.77 111.04 163.84 110.53 162.95 110.78 L 161.98 111.07 C 161.09 111.33 160.59 112.25 160.84 113.14 C 161.10 114.03 162.03 114.54 162.92 114.28 Z M 163.90 113.99 L 164.86 113.70 C 165.74 113.44 166.24 112.51 165.98 111.63 C 165.71 110.74 164.79 110.24 163.90 110.50 L 162.94 110.79 C 162.06 111.06 161.56 111.98 161.82 112.87 C 162.08 113.75 163.01 114.25 163.90 113.99 Z M 164.87 113.69 L 165.82 113.40 C 166.70 113.14 167.19 112.21 166.92 111.33 C 166.65 110.45 165.73 109.95 164.85 110.22 L 163.90 110.51 C 163.02 110.78 162.52 111.71 162.79 112.59 C 163.06 113.47 163.99 113.96 164.87 113.69 Z M 165.82 113.40 L 166.76 113.11 C 167.64 112.83 168.13 111.90 167.86 111.03 C 167.58 110.15 166.66 109.66 165.78 109.94 L 164.84 110.23 C 163.97 110.50 163.48 111.43 163.75 112.30 C 164.02 113.18 164.95 113.67 165.82 113.40 Z M 166.77 113.10 L 167.72 112.80 C 168.59 112.52 169.07 111.60 168.80 110.73 C 168.53 109.85 167.60 109.37 166.73 109.64 L 165.78 109.94 C 164.90 110.22 164.42 111.15 164.69 112.02 C 164.97 112.89 165.90 113.37 166.77 113.10 Z M 167.72 112.79 L 168.67 112.49 C 169.54 112.21 170.01 111.29 169.74 110.42 C 169.46 109.55 168.54 109.08 167.67 109.35 L 166.72 109.65 C 165.86 109.93 165.38 110.85 165.65 111.72 C 165.93 112.59 166.86 113.07 167.72 112.79 Z M 168.67 112.48 L 169.62 112.18 C 170.48 111.90 170.96 110.98 170.68 110.12 C 170.40 109.25 169.48 108.78 168.62 109.05 L 167.67 109.36 C 166.81 109.64 166.33 110.56 166.61 111.42 C 166.88 112.28 167.81 112.76 168.67 112.48 Z M 169.62 112.17 L 170.58 111.86 C 171.43 111.59 171.91 110.67 171.63 109.81 C 171.35 108.95 170.43 108.48 169.57 108.75 L 168.62 109.06 C 167.76 109.34 167.29 110.26 167.56 111.12 C 167.84 111.98 168.76 112.45 169.62 112.17 Z M 170.58 111.86 L 171.50 111.56 C 172.36 111.28 172.83 110.36 172.55 109.51 C 172.27 108.65 171.36 108.18 170.50 108.46 L 169.57 108.76 C 168.72 109.04 168.25 109.95 168.53 110.81 C 168.80 111.66 169.72 112.13 170.58 111.86 Z M 171.50 111.55 L 172.41 111.25 C 173.27 110.98 173.73 110.06 173.46 109.21 C 173.18 108.36 172.27 107.90 171.42 108.17 L 170.50 108.47 C 169.65 108.74 169.19 109.66 169.46 110.51 C 169.74 111.36 170.65 111.83 171.50 111.55 Z M 172.41 111.25 L 173.35 110.94 C 174.20 110.67 174.66 109.76 174.39 108.91 C 174.11 108.06 173.20 107.60 172.35 107.87 L 171.42 108.18 C 170.57 108.45 170.10 109.36 170.38 110.21 C 170.66 111.06 171.57 111.52 172.41 111.25 Z M 173.35 110.94 L 174.32 110.62 C 175.16 110.34 175.62 109.43 175.34 108.59 C 175.07 107.75 174.16 107.29 173.32 107.56 L 172.35 107.88 C 171.51 108.16 171.05 109.07 171.32 109.91 C 171.60 110.75 172.51 111.21 173.35 110.94 Z M 174.32 110.61 L 175.32 110.28 C 176.16 110.00 176.61 109.10 176.34 108.26 C 176.06 107.42 175.15 106.96 174.31 107.24 L 173.31 107.57 C 172.47 107.85 172.02 108.75 172.30 109.59 C 172.57 110.43 173.48 110.89 174.32 110.61 Z M 175.32 110.27 L 176.30 109.95 C 177.13 109.67 177.58 108.76 177.30 107.93 C 177.02 107.09 176.12 106.64 175.29 106.92 L 174.31 107.25 C 173.48 107.53 173.03 108.43 173.30 109.27 C 173.58 110.10 174.49 110.55 175.32 110.27 Z M 176.30 109.94 L 177.28 109.61 C 178.10 109.32 178.55 108.42 178.26 107.59 C 177.98 106.76 177.08 106.32 176.25 106.60 L 175.28 106.93 C 174.45 107.22 174.01 108.12 174.29 108.95 C 174.57 109.78 175.47 110.22 176.30 109.94 Z M 177.29 109.59 L 178.26 109.25 C 179.08 108.96 179.51 108.05 179.22 107.23 C 178.93 106.41 178.02 105.98 177.20 106.27 L 176.23 106.61 C 175.41 106.91 174.98 107.81 175.27 108.63 C 175.56 109.45 176.47 109.88 177.29 109.59 Z M 178.28 109.23 L 179.22 108.88 C 180.04 108.58 180.45 107.67 180.15 106.86 C 179.84 106.04 178.94 105.63 178.12 105.93 L 177.18 106.29 C 176.37 106.59 175.95 107.50 176.26 108.31 C 176.56 109.12 177.47 109.54 178.28 109.23 Z M 179.26 108.86 L 180.16 108.50 C 180.96 108.18 181.35 107.27 181.03 106.46 C 180.71 105.66 179.79 105.27 178.99 105.59 L 178.09 105.95 C 177.29 106.28 176.90 107.19 177.22 107.99 C 177.54 108.79 178.45 109.18 179.26 108.86 Z M 180.20 108.47 L 181.14 108.06 C 181.92 107.71 182.28 106.79 181.93 106.00 C 181.58 105.22 180.67 104.86 179.88 105.21 L 178.94 105.62 C 178.16 105.97 177.80 106.89 178.15 107.68 C 178.50 108.46 179.42 108.82 180.20 108.47 Z M 181.19 108.02 L 182.14 107.55 C 182.90 107.17 183.21 106.24 182.83 105.48 C 182.46 104.72 181.53 104.40 180.77 104.78 L 179.82 105.25 C 179.06 105.63 178.75 106.56 179.13 107.32 C 179.50 108.08 180.43 108.39 181.19 108.02 Z M 182.18 107.51 L 183.05 107.03 C 183.79 106.63 184.06 105.70 183.66 104.96 C 183.25 104.22 182.33 103.95 181.59 104.35 L 180.72 104.83 C 179.98 105.23 179.71 106.16 180.11 106.90 C 180.52 107.64 181.44 107.91 182.18 107.51 Z M 183.08 107.00 L 183.90 106.52 C 184.62 106.10 184.86 105.18 184.44 104.46 C 184.02 103.74 183.10 103.49 182.37 103.91 L 181.56 104.39 C 180.84 104.81 180.59 105.73 181.01 106.45 C 181.43 107.17 182.36 107.42 183.08 107.00 Z M 183.90 106.50 L 184.43 106.18 C 185.14 105.76 185.37 104.84 184.95 104.13 C 184.52 103.42 183.60 103.19 182.89 103.62 L 182.37 103.93 C 181.66 104.36 181.43 105.28 181.85 105.98 C 182.28 106.69 183.19 106.92 183.90 106.50 Z"
      fill="black"
      fill-rule="nonzero" /><path d="M 149.99 110.96 L 149.89 111.94 C 149.81 112.78 150.42 113.54 151.26 113.62 C 152.10 113.71 152.85 113.10 152.94 112.25 L 153.04 111.27 C 153.12 110.43 152.51 109.68 151.67 109.60 C 150.83 109.51 150.08 110.12 149.99 110.96 Z M 149.87 111.95 L 149.77 112.94 C 149.69 113.79 150.32 114.55 151.17 114.64 C 152.03 114.72 152.79 114.09 152.87 113.23 L 152.96 112.25 C 153.05 111.39 152.42 110.63 151.56 110.55 C 150.71 110.47 149.95 111.10 149.87 111.95 Z M 149.75 112.96 L 149.66 113.96 C 149.59 114.83 150.24 115.59 151.11 115.66 C 151.99 115.73 152.75 115.08 152.82 114.21 L 152.90 113.21 C 152.97 112.34 152.32 111.58 151.45 111.51 C 150.58 111.44 149.82 112.09 149.75 112.96 Z M 149.64 113.99 L 149.58 115.01 C 149.52 115.90 150.20 116.66 151.09 116.71 C 151.97 116.76 152.73 116.09 152.79 115.20 L 152.85 114.18 C 152.90 113.30 152.22 112.54 151.34 112.48 C 150.45 112.43 149.69 113.11 149.64 113.99 Z M 149.56 115.05 L 149.52 116.07 C 149.49 116.97 150.19 117.72 151.09 117.75 C 151.98 117.79 152.73 117.09 152.77 116.19 L 152.80 115.16 C 152.84 114.27 152.13 113.52 151.24 113.48 C 150.34 113.45 149.59 114.15 149.56 115.05 Z M 149.51 116.10 L 149.49 117.13 C 149.48 118.03 150.20 118.77 151.10 118.79 C 152.00 118.80 152.74 118.09 152.76 117.18 L 152.78 116.16 C 152.79 115.26 152.07 114.52 151.17 114.50 C 150.27 114.48 149.53 115.20 149.51 116.10 Z M 149.49 117.14 L 149.48 118.14 C 149.47 119.05 150.20 119.79 151.11 119.79 C 152.02 119.80 152.75 119.07 152.76 118.16 L 152.77 117.17 C 152.77 116.26 152.04 115.52 151.14 115.51 C 150.23 115.51 149.49 116.24 149.49 117.14 Z M 149.47 118.15 L 149.47 119.11 C 149.47 120.02 150.21 120.76 151.12 120.76 C 152.03 120.76 152.77 120.02 152.77 119.11 L 152.77 118.15 C 152.77 117.24 152.03 116.50 151.12 116.50 C 150.21 116.50 149.47 117.24 149.47 118.15 Z M 149.46 119.11 L 149.46 120.14 C 149.46 121.05 150.20 121.79 151.12 121.79 C 152.03 121.79 152.77 121.05 152.77 120.14 L 152.77 119.11 C 152.77 118.20 152.03 117.46 151.12 117.46 C 150.20 117.46 149.46 118.20 149.46 119.11 Z M 149.46 120.14 L 149.46 121.12 C 149.46 122.03 150.20 122.77 151.12 122.77 C 152.03 122.77 152.78 122.03 152.78 121.12 L 152.78 120.14 C 152.78 119.22 152.03 118.48 151.12 118.48 C 150.20 118.48 149.46 119.22 149.46 120.14 Z M 149.46 121.12 L 149.46 122.10 C 149.46 123.02 150.20 123.76 151.12 123.76 C 152.04 123.76 152.78 123.02 152.78 122.10 L 152.78 121.12 C 152.78 120.20 152.04 119.45 151.12 119.45 C 150.20 119.45 149.46 120.20 149.46 121.12 Z M 149.45 122.10 L 149.45 123.06 C 149.45 123.98 150.20 124.73 151.12 124.73 C 152.04 124.73 152.78 123.98 152.78 123.06 L 152.78 122.10 C 152.78 121.18 152.04 120.43 151.12 120.43 C 150.20 120.44 149.45 121.18 149.45 122.10 Z M 149.45 123.07 L 149.46 124.05 C 149.46 124.97 150.21 125.72 151.13 125.71 C 152.05 125.71 152.80 124.96 152.79 124.04 L 152.79 123.05 C 152.78 122.13 152.03 121.39 151.11 121.39 C 150.19 121.40 149.45 122.15 149.45 123.07 Z M 149.45 124.07 L 149.47 125.08 C 149.48 126.01 150.23 126.75 151.16 126.73 C 152.08 126.72 152.82 125.96 152.81 125.04 L 152.79 124.02 C 152.78 123.10 152.02 122.36 151.10 122.37 C 150.18 122.39 149.44 123.14 149.45 124.07 Z M 149.46 125.11 L 149.49 126.15 C 149.51 127.07 150.28 127.80 151.21 127.78 C 152.13 127.75 152.86 126.98 152.84 126.06 L 152.81 125.02 C 152.79 124.09 152.02 123.37 151.09 123.39 C 150.17 123.41 149.44 124.18 149.46 125.11 Z M 149.49 126.17 L 149.53 127.14 C 149.57 128.07 150.35 128.79 151.27 128.75 C 152.20 128.71 152.92 127.93 152.88 127.00 L 152.84 126.03 C 152.80 125.11 152.02 124.39 151.09 124.43 C 150.17 124.47 149.45 125.25 149.49 126.17 Z M 149.53 127.16 L 149.58 128.15 C 149.63 129.07 150.42 129.78 151.35 129.73 C 152.27 129.69 152.98 128.89 152.93 127.97 L 152.88 126.98 C 152.83 126.06 152.04 125.35 151.11 125.40 C 150.19 125.45 149.48 126.24 149.53 127.16 Z M 149.58 128.16 L 149.64 129.16 C 149.69 130.09 150.49 130.80 151.42 130.74 C 152.34 130.69 153.05 129.89 152.99 128.96 L 152.93 127.96 C 152.88 127.03 152.08 126.32 151.15 126.38 C 150.23 126.44 149.52 127.23 149.58 128.16 Z M 149.64 129.17 L 149.70 130.20 C 149.76 131.13 150.56 131.83 151.49 131.78 C 152.41 131.72 153.12 130.92 153.06 129.99 L 153.00 128.96 C 152.94 128.03 152.14 127.32 151.21 127.38 C 150.28 127.44 149.58 128.24 149.64 129.17 Z M 149.70 130.20 L 149.76 131.16 C 149.82 132.09 150.62 132.79 151.54 132.74 C 152.47 132.68 153.18 131.88 153.12 130.95 L 153.06 129.99 C 153.01 129.06 152.21 128.35 151.28 128.41 C 150.35 128.47 149.64 129.27 149.70 130.20 Z M 149.75 131.16 L 149.81 132.14 C 149.87 133.07 150.67 133.78 151.60 133.72 C 152.53 133.67 153.24 132.87 153.19 131.93 L 153.13 130.95 C 153.07 130.02 152.27 129.31 151.34 129.37 C 150.41 129.42 149.70 130.22 149.75 131.16 Z M 149.81 132.13 L 149.87 133.14 C 149.92 134.07 150.73 134.78 151.66 134.73 C 152.59 134.67 153.30 133.87 153.25 132.94 L 153.19 131.94 C 153.13 131.00 152.33 130.29 151.40 130.35 C 150.47 130.40 149.76 131.20 149.81 132.13 Z M 149.87 133.14 L 149.93 134.16 C 149.98 135.10 150.78 135.81 151.72 135.76 C 152.65 135.70 153.36 134.90 153.31 133.97 L 153.25 132.94 C 153.20 132.01 152.40 131.29 151.46 131.35 C 150.53 131.40 149.81 132.20 149.87 133.14 Z M 149.92 134.16 L 149.98 135.17 C 150.03 136.10 150.83 136.82 151.77 136.77 C 152.71 136.71 153.42 135.91 153.37 134.98 L 153.31 133.97 C 153.26 133.04 152.46 132.32 151.52 132.37 C 150.59 132.42 149.87 133.23 149.92 134.16 Z M 149.98 135.17 L 150.03 136.14 C 150.08 137.08 150.88 137.80 151.82 137.75 C 152.76 137.70 153.48 136.89 153.43 135.96 L 153.37 134.98 C 153.32 134.04 152.52 133.32 151.58 133.38 C 150.64 133.43 149.93 134.23 149.98 135.17 Z M 150.03 136.14 L 150.08 137.13 C 150.13 138.07 150.93 138.79 151.87 138.74 C 152.81 138.69 153.53 137.89 153.48 136.96 L 153.43 135.96 C 153.38 135.02 152.58 134.30 151.64 134.35 C 150.70 134.40 149.98 135.20 150.03 136.14 Z M 150.08 137.13 L 150.13 138.13 C 150.17 139.07 150.97 139.80 151.91 139.75 C 152.85 139.71 153.58 138.91 153.53 137.97 L 153.48 136.96 C 153.44 136.02 152.64 135.30 151.70 135.34 C 150.76 135.39 150.03 136.19 150.08 137.13 Z M 150.12 138.13 L 150.17 139.15 C 150.21 140.09 151.01 140.82 151.95 140.78 C 152.89 140.73 153.62 139.94 153.58 139.00 L 153.53 137.98 C 153.49 137.03 152.70 136.31 151.75 136.35 C 150.81 136.39 150.08 137.19 150.12 138.13 Z M 150.17 139.14 L 150.21 140.13 C 150.24 141.08 151.04 141.81 151.98 141.78 C 152.92 141.74 153.66 140.94 153.62 140.00 L 153.58 139.00 C 153.54 138.06 152.75 137.33 151.81 137.36 C 150.87 137.40 150.13 138.20 150.17 139.14 Z M 150.20 140.13 L 150.24 141.11 C 150.27 142.05 151.06 142.79 152.00 142.76 C 152.95 142.73 153.69 141.94 153.65 141.00 L 153.62 140.01 C 153.59 139.07 152.80 138.33 151.86 138.36 C 150.91 138.39 150.17 139.18 150.20 140.13 Z M 150.24 141.10 L 150.26 142.10 C 150.29 143.04 151.08 143.79 152.02 143.76 C 152.97 143.73 153.71 142.95 153.68 142.00 L 153.66 141.01 C 153.63 140.06 152.84 139.32 151.90 139.34 C 150.95 139.37 150.21 140.16 150.24 141.10 Z M 150.26 142.09 L 150.28 143.09 C 150.31 144.04 151.09 144.79 152.04 144.77 C 152.98 144.74 153.73 143.96 153.71 143.01 L 153.69 142.01 C 153.66 141.06 152.88 140.31 151.93 140.34 C 150.99 140.36 150.24 141.14 150.26 142.09 Z M 150.28 143.08 L 150.30 144.10 C 150.32 145.05 151.10 145.80 152.05 145.78 C 152.99 145.77 153.75 144.98 153.73 144.04 L 153.71 143.02 C 153.69 142.08 152.91 141.32 151.97 141.34 C 151.02 141.36 150.27 142.14 150.28 143.08 Z M 150.30 144.09 L 150.31 145.09 C 150.32 146.03 151.10 146.79 152.05 146.78 C 153.00 146.77 153.76 145.99 153.74 145.04 L 153.73 144.05 C 153.72 143.10 152.94 142.34 151.99 142.35 C 151.05 142.36 150.29 143.14 150.30 144.09 Z M 150.31 145.08 L 150.32 146.05 C 150.33 147.00 151.10 147.76 152.05 147.76 C 153.00 147.75 153.76 146.97 153.75 146.02 L 153.74 145.05 C 153.74 144.10 152.96 143.34 152.01 143.35 C 151.07 143.36 150.30 144.13 150.31 145.08 Z M 150.32 146.05 L 150.32 147.03 C 150.33 147.98 151.10 148.75 152.05 148.74 C 153.00 148.74 153.76 147.96 153.76 147.02 L 153.75 146.03 C 153.75 145.08 152.98 144.32 152.03 144.32 C 151.08 144.33 150.31 145.10 150.32 146.05 Z M 150.32 147.03 L 150.33 148.03 C 150.33 148.98 151.10 149.74 152.05 149.74 C 153.00 149.74 153.76 148.97 153.76 148.02 L 153.76 147.02 C 153.76 146.07 152.99 145.30 152.04 145.31 C 151.09 145.31 150.32 146.08 150.32 147.03 Z M 150.33 148.03 L 150.33 149.04 C 150.33 149.99 151.10 150.76 152.05 150.76 C 153.00 150.76 153.76 149.99 153.76 149.04 L 153.76 148.02 C 153.76 147.07 152.99 146.30 152.04 146.31 C 151.09 146.31 150.32 147.08 150.33 148.03 Z M 150.33 149.04 L 150.33 150.08 C 150.33 151.03 151.10 151.80 152.05 151.80 C 152.99 151.80 153.76 151.03 153.76 150.08 L 153.76 149.04 C 153.76 148.09 152.99 147.32 152.04 147.32 C 151.09 147.32 150.33 148.09 150.33 149.04 Z M 150.32 150.08 L 150.32 151.08 C 150.32 152.03 151.09 152.80 152.04 152.80 C 152.99 152.80 153.76 152.03 153.76 151.08 L 153.76 150.08 C 153.76 149.13 152.99 148.36 152.04 148.36 C 151.09 148.36 150.32 149.13 150.32 150.08 Z M 150.32 151.08 L 150.32 152.09 C 150.32 153.04 151.09 153.81 152.04 153.81 C 153.00 153.81 153.77 153.04 153.77 152.09 L 153.77 151.08 C 153.77 150.13 153.00 149.36 152.04 149.36 C 151.09 149.36 150.32 150.13 150.32 151.08 Z M 150.32 152.09 L 150.32 153.10 C 150.32 154.05 151.09 154.82 152.04 154.82 C 153.00 154.82 153.77 154.05 153.77 153.10 L 153.77 152.09 C 153.77 151.13 153.00 150.36 152.04 150.36 C 151.09 150.36 150.32 151.13 150.32 152.09 Z M 150.32 153.10 L 150.32 154.11 C 150.32 155.06 151.09 155.83 152.04 155.83 C 153.00 155.83 153.77 155.06 153.77 154.11 L 153.77 153.10 C 153.77 152.15 153.00 151.37 152.04 151.37 C 151.09 151.37 150.32 152.15 150.32 153.10 Z M 150.32 154.11 L 150.32 155.10 C 150.32 156.05 151.09 156.83 152.04 156.83 C 153.00 156.83 153.77 156.05 153.77 155.10 L 153.77 154.11 C 153.77 153.15 153.00 152.38 152.04 152.38 C 151.09 152.38 150.32 153.15 150.32 154.11 Z M 150.32 155.10 L 150.32 156.09 C 150.32 157.04 151.09 157.81 152.04 157.81 C 153.00 157.81 153.77 157.04 153.77 156.09 L 153.77 155.10 C 153.77 154.15 153.00 153.37 152.04 153.37 C 151.09 153.37 150.32 154.15 150.32 155.10 Z M 150.32 156.09 L 150.32 157.13 C 150.32 158.08 151.09 158.85 152.04 158.85 C 153.00 158.85 153.77 158.08 153.77 157.13 L 153.77 156.09 C 153.77 155.13 153.00 154.36 152.05 154.36 C 151.09 154.36 150.32 155.13 150.32 156.09 Z M 150.31 157.12 L 150.31 158.14 C 150.31 159.09 151.09 159.87 152.04 159.87 C 153.00 159.87 153.77 159.10 153.77 158.14 L 153.77 157.13 C 153.78 156.17 153.00 155.40 152.05 155.40 C 151.09 155.40 150.32 156.17 150.31 157.12 Z M 150.31 158.13 L 150.31 159.13 C 150.31 160.08 151.08 160.86 152.03 160.86 C 152.99 160.87 153.77 160.09 153.77 159.14 L 153.78 158.15 C 153.78 157.19 153.01 156.41 152.05 156.41 C 151.09 156.40 150.31 157.18 150.31 158.13 Z M 150.31 159.12 L 150.30 160.10 C 150.29 161.06 151.07 161.84 152.02 161.85 C 152.98 161.85 153.76 161.08 153.77 160.12 L 153.77 159.14 C 153.78 158.19 153.01 157.40 152.05 157.40 C 151.09 157.39 150.31 158.17 150.31 159.12 Z M 150.30 160.10 L 150.29 161.07 C 150.28 162.03 151.05 162.81 152.01 162.82 C 152.97 162.83 153.75 162.06 153.76 161.10 L 153.77 160.13 C 153.78 159.17 153.01 158.39 152.05 158.38 C 151.09 158.37 150.31 159.14 150.30 160.10 Z M 150.29 161.06 L 150.27 162.05 C 150.26 163.01 151.03 163.80 151.98 163.82 C 152.94 163.83 153.73 163.06 153.75 162.11 L 153.76 161.11 C 153.78 160.15 153.01 159.36 152.05 159.35 C 151.09 159.33 150.30 160.10 150.29 161.06 Z M 150.27 162.04 L 150.25 163.04 C 150.23 164.00 150.99 164.80 151.95 164.82 C 152.91 164.84 153.71 164.08 153.73 163.12 L 153.75 162.12 C 153.77 161.16 153.01 160.36 152.05 160.34 C 151.09 160.32 150.29 161.08 150.27 162.04 Z M 150.25 163.02 L 150.22 164.02 C 150.19 164.98 150.94 165.79 151.90 165.82 C 152.86 165.85 153.66 165.09 153.69 164.13 L 153.73 163.13 C 153.76 162.17 153.00 161.37 152.04 161.34 C 151.08 161.31 150.28 162.06 150.25 163.02 Z M 150.22 164.00 L 150.17 165.00 C 150.13 165.96 150.87 166.77 151.83 166.82 C 152.79 166.86 153.61 166.12 153.65 165.16 L 153.69 164.16 C 153.74 163.20 153.00 162.38 152.03 162.34 C 151.07 162.30 150.26 163.04 150.22 164.00 Z M 150.17 164.97 L 150.11 165.97 C 150.05 166.93 150.78 167.76 151.74 167.81 C 152.70 167.87 153.53 167.14 153.59 166.18 L 153.65 165.18 C 153.71 164.22 152.98 163.40 152.02 163.34 C 151.06 163.28 150.23 164.01 150.17 164.97 Z M 150.11 165.94 L 150.03 166.94 C 149.96 167.90 150.67 168.74 151.63 168.82 C 152.59 168.90 153.43 168.18 153.51 167.22 L 153.59 166.21 C 153.66 165.26 152.95 164.42 151.99 164.34 C 151.03 164.26 150.19 164.98 150.11 165.94 Z M 150.04 166.91 L 149.94 167.92 C 149.84 168.88 150.54 169.73 151.50 169.82 C 152.46 169.92 153.31 169.22 153.40 168.26 L 153.50 167.25 C 153.60 166.29 152.90 165.44 151.94 165.35 C 150.98 165.26 150.13 165.96 150.04 166.91 Z M 149.94 167.90 L 149.83 168.90 C 149.72 169.85 150.41 170.71 151.36 170.82 C 152.32 170.93 153.18 170.24 153.29 169.29 L 153.40 168.28 C 153.51 167.33 152.82 166.47 151.86 166.36 C 150.91 166.25 150.05 166.94 149.94 167.90 Z M 149.83 168.88 L 149.71 169.87 C 149.59 170.82 150.27 171.69 151.22 171.81 C 152.18 171.93 153.05 171.25 153.16 170.30 L 153.29 169.30 C 153.40 168.35 152.72 167.48 151.77 167.36 C 150.82 167.25 149.95 167.93 149.83 168.88 Z M 149.71 169.86 L 149.58 170.83 C 149.46 171.79 150.13 172.66 151.08 172.78 C 152.04 172.91 152.91 172.24 153.03 171.28 L 153.16 170.31 C 153.29 169.36 152.61 168.48 151.66 168.36 C 150.71 168.23 149.84 168.90 149.71 169.86 Z M 149.59 170.83 L 149.45 171.83 C 149.32 172.78 149.99 173.66 150.94 173.79 C 151.89 173.92 152.77 173.25 152.90 172.30 L 153.03 171.29 C 153.16 170.34 152.49 169.46 151.54 169.34 C 150.59 169.21 149.71 169.87 149.59 170.83 Z M 149.45 171.83 L 149.31 172.85 C 149.18 173.80 149.84 174.68 150.79 174.81 C 151.74 174.94 152.62 174.27 152.75 173.32 L 152.89 172.30 C 153.03 171.35 152.36 170.47 151.41 170.34 C 150.46 170.21 149.58 170.88 149.45 171.83 Z M 149.31 172.84 L 149.17 173.84 C 149.04 174.79 149.70 175.67 150.65 175.80 C 151.60 175.94 152.47 175.28 152.61 174.33 L 152.75 173.33 C 152.89 172.38 152.22 171.50 151.28 171.37 C 150.33 171.23 149.45 171.89 149.31 172.84 Z M 149.17 173.83 L 149.03 174.81 C 148.89 175.75 149.55 176.63 150.50 176.77 C 151.45 176.91 152.33 176.25 152.47 175.30 L 152.61 174.33 C 152.75 173.38 152.09 172.50 151.14 172.36 C 150.19 172.23 149.31 172.88 149.17 173.83 Z M 149.03 174.80 L 148.89 175.75 C 148.75 176.69 149.40 177.58 150.35 177.72 C 151.30 177.86 152.18 177.21 152.32 176.26 L 152.46 175.31 C 152.60 174.36 151.95 173.48 151.00 173.34 C 150.06 173.20 149.17 173.85 149.03 174.80 Z M 148.89 175.74 L 148.74 176.74 C 148.60 177.69 149.25 178.57 150.19 178.71 C 151.14 178.86 152.02 178.21 152.17 177.26 L 152.32 176.27 C 152.46 175.32 151.81 174.44 150.87 174.29 C 149.92 174.15 149.04 174.80 148.89 175.74 Z M 148.74 176.74 L 148.59 177.72 C 148.44 178.67 149.09 179.55 150.03 179.70 C 150.98 179.85 151.86 179.20 152.01 178.26 L 152.16 177.27 C 152.31 176.32 151.67 175.44 150.72 175.29 C 149.78 175.14 148.89 175.79 148.74 176.74 Z M 148.59 177.72 L 148.44 178.70 C 148.29 179.64 148.93 180.53 149.88 180.68 C 150.82 180.83 151.70 180.18 151.85 179.24 L 152.01 178.26 C 152.16 177.32 151.51 176.43 150.57 176.28 C 149.63 176.14 148.74 176.78 148.59 177.72 Z M 148.44 178.70 L 148.29 179.68 C 148.14 180.62 148.78 181.51 149.72 181.65 C 150.66 181.80 151.55 181.16 151.70 180.22 L 151.85 179.24 C 152.00 178.30 151.36 177.41 150.41 177.27 C 149.47 177.12 148.59 177.76 148.44 178.70 Z M 148.29 179.68 L 148.14 180.65 C 147.99 181.59 148.63 182.47 149.57 182.62 C 150.51 182.77 151.40 182.12 151.54 181.18 L 151.69 180.22 C 151.84 179.28 151.20 178.39 150.26 178.25 C 149.32 178.10 148.43 178.74 148.29 179.68 Z M 148.14 180.65 L 147.99 181.62 C 147.84 182.56 148.49 183.44 149.42 183.59 C 150.36 183.73 151.24 183.09 151.39 182.15 L 151.54 181.18 C 151.69 180.24 151.04 179.36 150.10 179.22 C 149.17 179.07 148.29 179.71 148.14 180.65 Z M 147.99 181.62 L 147.84 182.60 C 147.69 183.54 148.33 184.42 149.27 184.57 C 150.20 184.71 151.08 184.08 151.23 183.14 L 151.39 182.15 C 151.53 181.22 150.89 180.34 149.96 180.19 C 149.02 180.04 148.14 180.68 147.99 181.62 Z M 147.84 182.59 L 147.68 183.60 C 147.53 184.53 148.16 185.41 149.09 185.56 C 150.03 185.72 150.91 185.08 151.06 184.15 L 151.23 183.15 C 151.38 182.21 150.74 181.33 149.81 181.18 C 148.88 181.03 147.99 181.66 147.84 182.59 Z M 147.68 183.58 L 147.51 184.60 C 147.35 185.53 147.98 186.42 148.91 186.58 C 149.84 186.74 150.72 186.11 150.88 185.18 L 151.06 184.16 C 151.22 183.23 150.59 182.34 149.66 182.18 C 148.73 182.03 147.84 182.65 147.68 183.58 Z M 147.51 184.60 L 147.34 185.62 C 147.18 186.55 147.80 187.43 148.73 187.59 C 149.66 187.75 150.54 187.13 150.70 186.20 L 150.88 185.18 C 151.04 184.25 150.42 183.37 149.49 183.21 C 148.56 183.05 147.67 183.67 147.51 184.60 Z M 147.34 185.66 L 147.19 186.67 C 147.05 187.60 147.69 188.47 148.62 188.61 C 149.55 188.75 150.42 188.10 150.55 187.17 L 150.70 186.16 C 150.84 185.23 150.20 184.36 149.27 184.22 C 148.34 184.09 147.47 184.73 147.34 185.66 Z M 147.18 186.77 L 147.09 187.76 C 147.00 188.70 147.69 189.52 148.62 189.61 C 149.55 189.70 150.38 189.01 150.47 188.08 L 150.56 187.08 C 150.65 186.15 149.96 185.32 149.03 185.23 C 148.09 185.15 147.27 185.83 147.18 186.77 Z M 147.08 187.92 L 147.08 188.87 C 147.08 189.81 147.84 190.57 148.77 190.57 C 149.71 190.57 150.47 189.82 150.47 188.88 L 150.47 187.92 C 150.47 186.99 149.72 186.23 148.78 186.23 C 147.84 186.22 147.09 186.98 147.08 187.92 Z M 147.11 189.11 L 147.24 190.09 C 147.37 191.01 148.22 191.65 149.14 191.52 C 150.07 191.40 150.71 190.54 150.58 189.62 L 150.44 188.64 C 150.32 187.72 149.46 187.08 148.54 187.21 C 147.62 187.34 146.98 188.19 147.11 189.11 Z M 147.31 190.34 L 147.60 191.30 C 147.87 192.18 148.80 192.68 149.68 192.41 C 150.57 192.15 151.07 191.22 150.80 190.33 L 150.51 189.37 C 150.25 188.49 149.31 187.99 148.43 188.25 C 147.55 188.52 147.04 189.45 147.31 190.34 Z M 147.68 191.47 L 148.07 192.38 C 148.44 193.22 149.41 193.60 150.25 193.24 C 151.09 192.88 151.48 191.90 151.11 191.06 L 150.72 190.15 C 150.36 189.32 149.38 188.93 148.54 189.29 C 147.70 189.66 147.32 190.63 147.68 191.47 Z M 148.13 192.47 L 148.59 193.35 C 149.00 194.16 149.99 194.47 150.80 194.06 C 151.60 193.65 151.92 192.66 151.50 191.85 L 151.05 190.97 C 150.64 190.16 149.65 189.85 148.84 190.26 C 148.04 190.68 147.72 191.67 148.13 192.47 Z M 148.61 193.37 L 148.76 193.65 C 149.18 194.44 150.17 194.74 150.96 194.31 C 151.76 193.89 152.06 192.90 151.63 192.10 L 151.48 191.83 C 151.06 191.03 150.07 190.74 149.27 191.16 C 148.48 191.59 148.18 192.58 148.61 193.37 Z"
      fill="black"
      fill-rule="nonzero" /><path d="M 156.24 143.01 L 155.50 143.69 C 154.84 144.29 154.80 145.32 155.41 145.97 C 156.01 146.63 157.03 146.67 157.69 146.06 L 158.43 145.38 C 159.09 144.77 159.13 143.75 158.52 143.10 C 157.92 142.44 156.90 142.40 156.24 143.01 Z M 155.34 143.80 L 154.70 144.55 C 154.10 145.24 154.18 146.28 154.87 146.88 C 155.57 147.47 156.61 147.40 157.21 146.70 L 157.85 145.95 C 158.44 145.26 158.37 144.22 157.67 143.62 C 156.98 143.03 155.94 143.11 155.34 143.80 Z M 154.44 144.86 L 154.00 145.73 C 153.57 146.57 153.90 147.58 154.73 148.01 C 155.57 148.43 156.59 148.10 157.01 147.27 L 157.46 146.39 C 157.88 145.56 157.55 144.54 156.72 144.12 C 155.89 143.69 154.87 144.02 154.44 144.86 Z M 153.81 146.19 L 153.66 147.06 C 153.49 148.00 154.10 148.89 155.04 149.06 C 155.97 149.23 156.86 148.61 157.03 147.68 L 157.19 146.81 C 157.36 145.88 156.74 144.98 155.81 144.81 C 154.88 144.64 153.99 145.26 153.81 146.19 Z M 153.62 147.45 L 153.66 148.39 C 153.70 149.34 154.51 150.08 155.46 150.04 C 156.41 150.00 157.15 149.20 157.11 148.25 L 157.07 147.30 C 157.03 146.35 156.22 145.61 155.27 145.65 C 154.32 145.69 153.58 146.49 153.62 147.45 Z M 153.69 148.68 L 153.91 149.70 C 154.11 150.63 155.03 151.23 155.96 151.03 C 156.90 150.83 157.49 149.91 157.29 148.98 L 157.08 147.96 C 156.88 147.03 155.96 146.43 155.02 146.63 C 154.09 146.83 153.50 147.75 153.69 148.68 Z M 153.97 149.93 L 154.35 150.98 C 154.68 151.88 155.67 152.34 156.57 152.02 C 157.47 151.69 157.94 150.70 157.61 149.80 L 157.23 148.75 C 156.91 147.85 155.91 147.38 155.01 147.71 C 154.11 148.03 153.65 149.03 153.97 149.93 Z M 154.42 151.15 L 154.82 151.97 C 155.24 152.83 156.28 153.19 157.14 152.77 C 158.00 152.35 158.36 151.31 157.94 150.45 L 157.54 149.63 C 157.12 148.77 156.09 148.41 155.22 148.83 C 154.36 149.25 154.00 150.28 154.42 151.15 Z M 154.88 152.08 L 155.36 152.90 C 155.84 153.73 156.91 154.01 157.73 153.52 C 158.56 153.04 158.84 151.98 158.36 151.15 L 157.88 150.33 C 157.39 149.50 156.33 149.22 155.50 149.71 C 154.68 150.19 154.40 151.25 154.88 152.08 Z M 155.42 152.99 L 155.97 153.82 C 156.50 154.61 157.58 154.83 158.38 154.29 C 159.17 153.76 159.39 152.68 158.85 151.88 L 158.30 151.06 C 157.77 150.26 156.69 150.05 155.89 150.58 C 155.10 151.12 154.88 152.20 155.42 152.99 Z M 156.02 153.89 L 156.64 154.72 C 157.22 155.49 158.30 155.65 159.07 155.08 C 159.84 154.51 160.00 153.42 159.43 152.65 L 158.80 151.81 C 158.23 151.05 157.14 150.89 156.38 151.46 C 155.61 152.03 155.45 153.12 156.02 153.89 Z M 156.68 154.78 L 157.37 155.63 C 157.97 156.38 159.06 156.50 159.81 155.90 C 160.56 155.29 160.68 154.20 160.08 153.46 L 159.39 152.60 C 158.79 151.85 157.69 151.74 156.95 152.34 C 156.20 152.94 156.08 154.03 156.68 154.78 Z M 157.40 155.67 L 158.06 156.44 C 158.68 157.17 159.78 157.26 160.51 156.64 C 161.24 156.02 161.32 154.93 160.70 154.20 L 160.04 153.42 C 159.42 152.69 158.33 152.60 157.60 153.22 C 156.87 153.84 156.78 154.94 157.40 155.67 Z M 158.09 156.47 L 158.77 157.24 C 159.41 157.95 160.50 158.02 161.21 157.39 C 161.93 156.75 162.00 155.66 161.36 154.94 L 160.68 154.17 C 160.04 153.46 158.95 153.39 158.24 154.02 C 157.52 154.66 157.46 155.75 158.09 156.47 Z M 158.80 157.26 L 159.49 158.02 C 160.14 158.72 161.23 158.77 161.93 158.12 C 162.63 157.48 162.68 156.39 162.04 155.69 L 161.34 154.92 C 160.69 154.22 159.60 154.18 158.90 154.82 C 158.20 155.46 158.15 156.56 158.80 157.26 Z M 159.52 158.04 L 160.21 158.77 C 160.87 159.46 161.96 159.49 162.65 158.84 C 163.34 158.18 163.37 157.09 162.71 156.40 L 162.01 155.67 C 161.36 154.98 160.27 154.95 159.58 155.60 C 158.89 156.26 158.86 157.35 159.52 158.04 Z M 160.24 158.79 L 160.92 159.48 C 161.58 160.16 162.67 160.17 163.34 159.51 C 164.02 158.85 164.03 157.76 163.37 157.08 L 162.69 156.39 C 162.03 155.71 160.94 155.70 160.26 156.36 C 159.58 157.02 159.57 158.11 160.24 158.79 Z M 160.94 159.50 L 161.63 160.19 C 162.30 160.85 163.39 160.84 164.05 160.17 C 164.72 159.50 164.71 158.42 164.04 157.75 L 163.35 157.07 C 162.68 156.40 161.59 156.41 160.93 157.08 C 160.26 157.75 160.27 158.84 160.94 159.50 Z M 161.66 160.20 L 162.45 160.95 C 163.13 161.60 164.21 161.57 164.86 160.89 C 165.51 160.21 165.48 159.13 164.80 158.48 L 164.01 157.73 C 163.33 157.09 162.25 157.11 161.60 157.80 C 160.95 158.48 160.98 159.56 161.66 160.20 Z M 162.49 160.97 L 163.23 161.64 C 163.92 162.27 164.99 162.22 165.62 161.52 C 166.25 160.83 166.19 159.76 165.50 159.13 L 164.76 158.46 C 164.07 157.84 163.00 157.89 162.37 158.58 C 161.74 159.28 161.80 160.35 162.49 160.97 Z M 163.27 161.66 L 163.99 162.28 C 164.69 162.89 165.75 162.81 166.36 162.11 C 166.96 161.40 166.88 160.34 166.18 159.74 L 165.46 159.12 C 164.76 158.51 163.70 158.59 163.09 159.29 C 162.49 159.99 162.57 161.06 163.27 161.66 Z M 164.02 162.29 L 164.74 162.89 C 165.45 163.48 166.50 163.38 167.09 162.67 C 167.68 161.96 167.58 160.91 166.87 160.32 L 166.15 159.72 C 165.44 159.14 164.39 159.23 163.80 159.94 C 163.21 160.65 163.31 161.71 164.02 162.29 Z M 164.76 162.90 L 165.53 163.51 C 166.24 164.09 167.29 163.97 167.86 163.26 C 168.43 162.54 168.32 161.50 167.61 160.93 L 166.84 160.31 C 166.13 159.74 165.09 159.85 164.51 160.57 C 163.94 161.28 164.05 162.32 164.76 162.90 Z M 165.55 163.52 L 166.34 164.14 C 167.06 164.70 168.09 164.57 168.66 163.85 C 169.22 163.14 169.09 162.10 168.37 161.54 L 167.58 160.92 C 166.87 160.36 165.83 160.48 165.27 161.20 C 164.71 161.92 164.83 162.96 165.55 163.52 Z M 166.36 164.14 L 167.16 164.75 C 167.88 165.30 168.91 165.16 169.46 164.44 C 170.01 163.72 169.87 162.69 169.15 162.14 L 168.35 161.53 C 167.63 160.98 166.60 161.12 166.05 161.84 C 165.50 162.56 165.64 163.59 166.36 164.14 Z M 167.18 164.76 L 167.99 165.36 C 168.71 165.90 169.74 165.74 170.28 165.02 C 170.81 164.30 170.66 163.27 169.94 162.74 L 169.13 162.14 C 168.41 161.60 167.38 161.75 166.85 162.47 C 166.31 163.20 166.46 164.22 167.18 164.76 Z M 168.01 165.36 L 168.83 165.96 C 169.56 166.48 170.58 166.32 171.10 165.59 C 171.63 164.86 171.46 163.85 170.73 163.32 L 169.91 162.73 C 169.19 162.20 168.17 162.37 167.65 163.10 C 167.12 163.82 167.29 164.84 168.01 165.36 Z M 168.86 165.96 L 169.68 166.54 C 170.42 167.05 171.42 166.87 171.93 166.14 C 172.44 165.41 172.26 164.40 171.53 163.89 L 170.71 163.31 C 169.98 162.80 168.97 162.98 168.46 163.71 C 167.95 164.45 168.13 165.45 168.86 165.96 Z M 169.71 166.55 L 170.54 167.10 C 171.28 167.60 172.27 167.40 172.77 166.66 C 173.26 165.93 173.07 164.93 172.33 164.43 L 171.50 163.88 C 170.77 163.38 169.77 163.58 169.27 164.32 C 168.78 165.06 168.98 166.05 169.71 166.55 Z M 170.57 167.11 L 171.41 167.65 C 172.15 168.12 173.14 167.91 173.61 167.17 C 174.09 166.42 173.87 165.43 173.13 164.96 L 172.30 164.42 C 171.56 163.95 170.57 164.16 170.09 164.90 C 169.61 165.65 169.83 166.64 170.57 167.11 Z M 171.44 167.66 L 172.28 168.17 C 173.03 168.63 174.01 168.39 174.46 167.65 C 174.92 166.90 174.69 165.92 173.94 165.46 L 173.10 164.95 C 172.35 164.49 171.37 164.73 170.91 165.47 C 170.46 166.22 170.69 167.20 171.44 167.66 Z M 172.31 168.18 L 173.16 168.68 C 173.92 169.12 174.88 168.86 175.32 168.11 C 175.76 167.36 175.51 166.39 174.76 165.95 L 173.90 165.45 C 173.15 165.01 172.19 165.27 171.75 166.02 C 171.31 166.77 171.56 167.74 172.31 168.18 Z M 173.19 168.68 L 174.06 169.17 C 174.82 169.59 175.77 169.33 176.20 168.57 C 176.62 167.82 176.35 166.86 175.60 166.44 L 174.73 165.95 C 173.97 165.52 173.02 165.79 172.59 166.55 C 172.17 167.30 172.44 168.26 173.19 168.68 Z M 174.09 169.17 L 174.98 169.65 C 175.74 170.06 176.68 169.78 177.09 169.03 C 177.50 168.27 177.22 167.33 176.46 166.92 L 175.57 166.43 C 174.82 166.03 173.87 166.31 173.46 167.06 C 173.05 167.82 173.33 168.76 174.09 169.17 Z M 175.00 169.65 L 175.89 170.12 C 176.65 170.52 177.58 170.23 177.98 169.48 C 178.38 168.72 178.09 167.78 177.33 167.39 L 176.44 166.92 C 175.69 166.52 174.75 166.81 174.35 167.57 C 173.96 168.32 174.25 169.26 175.00 169.65 Z M 175.91 170.12 L 176.79 170.57 C 177.55 170.96 178.47 170.67 178.86 169.91 C 179.25 169.16 178.95 168.23 178.20 167.84 L 177.31 167.39 C 176.56 167.00 175.63 167.30 175.24 168.05 C 174.86 168.81 175.15 169.73 175.91 170.12 Z M 176.81 170.57 L 177.71 171.02 C 178.46 171.40 179.38 171.09 179.76 170.34 C 180.13 169.59 179.83 168.67 179.07 168.29 L 178.18 167.84 C 177.42 167.46 176.51 167.77 176.13 168.52 C 175.75 169.28 176.06 170.20 176.81 170.57 Z M 177.73 171.02 L 178.63 171.46 C 179.39 171.83 180.29 171.52 180.66 170.76 C 181.03 170.01 180.71 169.10 179.96 168.73 L 179.05 168.29 C 178.30 167.93 177.39 168.24 177.03 168.99 C 176.66 169.75 176.97 170.65 177.73 171.02 Z M 178.65 171.46 L 179.56 171.89 C 180.32 172.25 181.22 171.93 181.57 171.17 C 181.93 170.42 181.60 169.52 180.85 169.16 L 179.94 168.73 C 179.19 168.38 178.29 168.70 177.93 169.45 C 177.58 170.21 177.90 171.11 178.65 171.46 Z M 179.58 171.89 L 180.50 172.31 C 181.25 172.66 182.14 172.32 182.49 171.57 C 182.83 170.82 182.50 169.93 181.75 169.58 L 180.83 169.16 C 180.08 168.82 179.19 169.15 178.84 169.90 C 178.50 170.66 178.83 171.55 179.58 171.89 Z M 180.52 172.31 L 181.44 172.72 C 182.19 173.05 183.07 172.71 183.41 171.95 C 183.74 171.20 183.40 170.32 182.64 169.99 L 181.73 169.58 C 180.97 169.25 180.09 169.59 179.76 170.34 C 179.43 171.10 179.77 171.98 180.52 172.31 Z M 181.46 172.72 L 182.38 173.11 C 183.13 173.43 184.00 173.08 184.32 172.32 C 184.64 171.57 184.29 170.70 183.54 170.38 L 182.62 169.99 C 181.87 169.67 181.00 170.02 180.68 170.77 C 180.36 171.52 180.71 172.40 181.46 172.72 Z M 182.40 173.11 L 183.32 173.48 C 184.07 173.79 184.93 173.43 185.24 172.68 C 185.55 171.93 185.19 171.07 184.44 170.76 L 183.52 170.38 C 182.77 170.07 181.91 170.43 181.60 171.18 C 181.29 171.94 181.65 172.80 182.40 173.11 Z M 183.34 173.48 L 184.26 173.85 C 185.01 174.15 185.86 173.78 186.16 173.02 C 186.46 172.27 186.09 171.42 185.34 171.12 L 184.42 170.76 C 183.66 170.46 182.81 170.83 182.51 171.58 C 182.22 172.33 182.58 173.19 183.34 173.48 Z M 184.28 173.85 L 185.20 174.20 C 185.96 174.49 186.80 174.11 187.09 173.36 C 187.38 172.60 187.00 171.76 186.24 171.47 L 185.32 171.12 C 184.57 170.83 183.72 171.21 183.43 171.96 C 183.15 172.72 183.53 173.56 184.28 173.85 Z M 185.22 174.20 L 186.16 174.55 C 186.91 174.82 187.75 174.44 188.02 173.69 C 188.30 172.93 187.92 172.10 187.16 171.82 L 186.23 171.47 C 185.47 171.20 184.64 171.58 184.36 172.33 C 184.08 173.09 184.47 173.92 185.22 174.20 Z M 186.17 174.55 L 187.12 174.88 C 187.87 175.15 188.70 174.76 188.97 174.01 C 189.24 173.26 188.85 172.43 188.10 172.16 L 187.15 171.82 C 186.40 171.55 185.57 171.94 185.30 172.69 C 185.03 173.45 185.42 174.28 186.17 174.55 Z M 187.13 174.88 L 188.10 175.22 C 188.85 175.48 189.67 175.09 189.93 174.33 C 190.20 173.58 189.80 172.76 189.05 172.50 L 188.08 172.16 C 187.33 171.90 186.51 172.30 186.25 173.05 C 185.99 173.80 186.38 174.62 187.13 174.88 Z M 188.11 175.22 L 189.08 175.55 C 189.83 175.81 190.65 175.41 190.90 174.66 C 191.16 173.90 190.76 173.09 190.01 172.83 L 189.04 172.50 C 188.29 172.24 187.47 172.64 187.21 173.39 C 186.96 174.15 187.36 174.96 188.11 175.22 Z M 189.09 175.55 L 190.05 175.87 C 190.81 176.12 191.62 175.72 191.87 174.97 C 192.12 174.21 191.71 173.40 190.96 173.15 L 190.00 172.83 C 189.25 172.58 188.43 172.98 188.18 173.74 C 187.93 174.49 188.34 175.30 189.09 175.55 Z M 190.07 175.88 L 191.01 176.18 C 191.76 176.43 192.57 176.01 192.81 175.26 C 193.06 174.51 192.65 173.70 191.89 173.46 L 190.95 173.15 C 190.20 172.91 189.39 173.32 189.15 174.07 C 188.90 174.82 189.31 175.63 190.07 175.88 Z M 191.02 176.18 L 191.95 176.47 C 192.70 176.71 193.51 176.29 193.74 175.54 C 193.98 174.78 193.56 173.98 192.81 173.74 L 191.88 173.45 C 191.13 173.22 190.32 173.64 190.09 174.39 C 189.85 175.14 190.27 175.95 191.02 176.18 Z M 191.97 176.48 L 192.98 176.78 C 193.73 177.01 194.53 176.58 194.76 175.83 C 194.98 175.07 194.56 174.27 193.80 174.05 L 192.79 173.74 C 192.03 173.51 191.24 173.94 191.01 174.70 C 190.78 175.45 191.21 176.25 191.97 176.48 Z M 192.99 176.78 L 193.95 177.06 C 194.70 177.28 195.49 176.85 195.71 176.09 C 195.93 175.33 195.50 174.54 194.74 174.32 L 193.79 174.04 C 193.03 173.82 192.24 174.26 192.02 175.02 C 191.80 175.77 192.23 176.57 192.99 176.78 Z M 193.96 177.06 L 194.88 177.32 C 195.64 177.54 196.42 177.10 196.64 176.34 C 196.85 175.58 196.41 174.79 195.65 174.58 L 194.73 174.32 C 193.97 174.10 193.19 174.55 192.97 175.30 C 192.76 176.06 193.20 176.85 193.96 177.06 Z M 194.88 177.32 L 195.32 177.45 C 196.07 177.66 196.86 177.22 197.07 176.46 C 197.29 175.70 196.84 174.91 196.09 174.70 L 195.65 174.58 C 194.89 174.37 194.11 174.81 193.89 175.57 C 193.68 176.33 194.12 177.11 194.88 177.32 Z"
      fill="black"
      fill-rule="nonzero" /></svg>