<svg xmlns="http://www.w3.org/2000/svg" width="300" height="300" viewBox="0 0 300 300">
<path d="M 135.25 117.11 L 134.23 117.11 C 133.37 117.11 132.68 117.80 132.68 118.66 C 132.68 119.51 133.37 120.21 134.23 120.21 L 135.24 120.21 C 136.10 120.21 136.79 119.52 136.79 118.66 C 136.80 117.81 136.10 117.11 135.25 117.11 Z M 134.24 117.09 L 133.23 117.09 C 132.37 117.08 131.66 117.77 131.66 118.63 C 131.65 119.50 132.34 120.20 133.20 120.21 L 134.21 120.22 C 135.08 120.23 135.78 119.54 135.79 118.67 C 135.80 117.81 135.11 117.10 134.24 117.09 Z M 133.26 117.07 L 132.27 117.05 C 131.40 117.02 130.67 117.71 130.65 118.58 C 130.63 119.45 131.32 120.17 132.19 120.20 L 133.18 120.22 C 134.05 120.25 134.77 119.56 134.79 118.69 C 134.82 117.82 134.13 117.10 133.26 117.07 Z M 132.31 117.03 L 131.31 116.98 C 130.43 116.93 129.69 117.61 129.64 118.48 C 129.59 119.36 130.27 120.11 131.14 120.16 L 132.14 120.21 C 133.02 120.26 133.77 119.58 133.82 118.71 C 133.86 117.83 133.19 117.08 132.31 117.03 Z M 131.38 116.97 L 130.36 116.87 C 129.48 116.78 128.69 117.43 128.60 118.31 C 128.51 119.20 129.16 119.99 130.05 120.07 L 131.07 120.17 C 131.96 120.26 132.74 119.61 132.83 118.73 C 132.92 117.84 132.27 117.05 131.38 116.97 Z M 130.48 116.86 L 129.50 116.69 C 128.61 116.54 127.77 117.14 127.62 118.03 C 127.47 118.92 128.06 119.76 128.95 119.91 L 129.93 120.08 C 130.82 120.23 131.66 119.63 131.81 118.74 C 131.96 117.85 131.37 117.01 130.48 116.86 Z M 129.66 116.71 L 128.73 116.45 C 127.85 116.21 126.94 116.73 126.70 117.61 C 126.46 118.49 126.97 119.40 127.86 119.64 L 128.79 119.90 C 129.67 120.14 130.58 119.62 130.82 118.74 C 131.06 117.86 130.55 116.95 129.66 116.71 Z M 128.99 116.53 L 127.99 116.07 C 127.16 115.69 126.16 116.06 125.78 116.89 C 125.40 117.73 125.76 118.72 126.60 119.11 L 127.60 119.56 C 128.44 119.95 129.43 119.58 129.81 118.74 C 130.19 117.91 129.83 116.92 128.99 116.53 Z M 128.47 116.40 L 127.81 115.74 C 127.15 115.09 126.09 115.10 125.44 115.75 C 124.79 116.41 124.80 117.47 125.46 118.12 L 126.12 118.78 C 126.78 119.43 127.84 119.42 128.49 118.77 C 129.14 118.11 129.13 117.05 128.47 116.40 Z M 128.29 116.69 L 128.17 115.88 C 128.04 114.97 127.18 114.33 126.27 114.47 C 125.35 114.60 124.72 115.46 124.85 116.37 L 124.97 117.18 C 125.11 118.09 125.96 118.73 126.88 118.59 C 127.79 118.46 128.43 117.60 128.29 116.69 Z M 128.08 116.73 L 128.37 115.96 C 128.70 115.10 128.27 114.13 127.41 113.80 C 126.54 113.47 125.57 113.90 125.24 114.76 L 124.95 115.53 C 124.62 116.39 125.05 117.36 125.91 117.69 C 126.78 118.02 127.75 117.59 128.08 116.73 Z M 128.18 116.32 L 128.75 115.49 C 129.28 114.73 129.09 113.69 128.33 113.16 C 127.57 112.63 126.53 112.83 126.00 113.59 L 125.43 114.41 C 124.90 115.17 125.09 116.22 125.85 116.74 C 126.61 117.27 127.66 117.08 128.18 116.32 Z M 128.60 115.68 L 129.38 114.84 C 130.01 114.17 129.98 113.11 129.30 112.48 C 128.63 111.85 127.57 111.89 126.94 112.56 L 126.16 113.40 C 125.53 114.07 125.56 115.13 126.23 115.76 C 126.91 116.39 127.97 116.35 128.60 115.68 Z M 129.25 114.97 L 130.10 114.23 C 130.80 113.63 130.88 112.57 130.27 111.88 C 129.67 111.18 128.62 111.10 127.92 111.70 L 127.07 112.44 C 126.37 113.04 126.29 114.09 126.90 114.79 C 127.50 115.49 128.55 115.57 129.25 114.97 Z M 130.00 114.31 L 130.83 113.70 C 131.58 113.15 131.74 112.11 131.19 111.37 C 130.65 110.63 129.61 110.46 128.86 111.01 L 128.03 111.62 C 127.28 112.17 127.12 113.21 127.67 113.95 C 128.21 114.69 129.25 114.85 130.00 114.31 Z M 130.75 113.75 L 131.62 113.19 C 132.39 112.69 132.61 111.66 132.11 110.89 C 131.61 110.12 130.58 109.90 129.81 110.40 L 128.95 110.96 C 128.17 111.46 127.95 112.48 128.45 113.26 C 128.95 114.03 129.98 114.25 130.75 113.75 Z M 131.55 113.23 L 132.41 112.72 C 133.20 112.26 133.47 111.24 133.00 110.45 C 132.54 109.66 131.53 109.40 130.73 109.86 L 129.88 110.36 C 129.09 110.82 128.82 111.84 129.28 112.63 C 129.74 113.42 130.76 113.69 131.55 113.23 Z M 132.36 112.75 L 133.18 112.31 C 133.98 111.87 134.28 110.87 133.85 110.06 C 133.41 109.26 132.41 108.96 131.60 109.39 L 130.79 109.83 C 129.98 110.27 129.68 111.27 130.12 112.08 C 130.55 112.88 131.55 113.18 132.36 112.75 Z M 133.13 112.33 L 134.11 111.83 C 134.93 111.42 135.26 110.43 134.85 109.62 C 134.44 108.80 133.45 108.47 132.63 108.88 L 131.65 109.37 C 130.83 109.78 130.50 110.77 130.91 111.59 C 131.32 112.41 132.32 112.74 133.13 112.33 Z M 134.06 111.86 L 134.97 111.44 C 135.80 111.06 136.16 110.08 135.78 109.25 C 135.40 108.42 134.42 108.06 133.60 108.44 L 132.69 108.86 C 131.86 109.24 131.49 110.22 131.88 111.04 C 132.26 111.87 133.23 112.24 134.06 111.86 Z M 134.92 111.46 L 135.78 111.09 C 136.62 110.74 137.01 109.78 136.66 108.94 C 136.31 108.10 135.34 107.71 134.50 108.06 L 133.65 108.42 C 132.81 108.77 132.41 109.74 132.77 110.58 C 133.12 111.42 134.09 111.81 134.92 111.46 Z M 135.74 111.11 L 136.63 110.76 C 137.48 110.42 137.89 109.47 137.56 108.62 C 137.23 107.78 136.27 107.36 135.43 107.70 L 134.54 108.05 C 133.69 108.38 133.28 109.34 133.61 110.18 C 133.94 111.03 134.90 111.44 135.74 111.11 Z M 136.60 110.77 L 137.53 110.42 C 138.39 110.10 138.82 109.16 138.50 108.31 C 138.19 107.46 137.24 107.02 136.39 107.34 L 135.46 107.69 C 134.61 108.00 134.17 108.95 134.49 109.80 C 134.80 110.65 135.75 111.08 136.60 110.77 Z M 137.50 110.43 L 138.45 110.11 C 139.30 109.81 139.76 108.88 139.46 108.02 C 139.17 107.16 138.24 106.71 137.38 107.00 L 136.43 107.33 C 135.57 107.62 135.12 108.56 135.41 109.41 C 135.71 110.27 136.64 110.73 137.50 110.43 Z M 138.40 110.12 L 139.36 109.82 C 140.22 109.55 140.71 108.63 140.43 107.76 C 140.16 106.90 139.24 106.42 138.38 106.69 L 137.42 106.99 C 136.56 107.26 136.08 108.18 136.35 109.04 C 136.62 109.91 137.54 110.39 138.40 110.12 Z M 139.32 109.83 L 140.28 109.56 C 141.15 109.31 141.66 108.41 141.41 107.54 C 141.16 106.66 140.26 106.16 139.38 106.40 L 138.42 106.68 C 137.55 106.92 137.04 107.83 137.29 108.70 C 137.54 109.57 138.44 110.08 139.32 109.83 Z M 140.24 109.57 L 141.21 109.32 C 142.09 109.09 142.61 108.19 142.39 107.32 C 142.16 106.44 141.26 105.92 140.39 106.14 L 139.42 106.40 C 138.54 106.62 138.02 107.52 138.24 108.39 C 138.47 109.27 139.37 109.80 140.24 109.57 Z M 141.19 109.32 L 142.16 109.09 C 143.04 108.88 143.58 107.99 143.36 107.11 C 143.15 106.23 142.27 105.69 141.39 105.90 L 140.41 106.14 C 139.53 106.35 138.99 107.24 139.21 108.12 C 139.42 109.00 140.31 109.54 141.19 109.32 Z M 142.13 109.09 L 143.11 108.87 C 143.99 108.67 144.54 107.79 144.34 106.91 C 144.14 106.03 143.26 105.48 142.38 105.68 L 141.41 105.90 C 140.53 106.10 139.97 106.98 140.17 107.86 C 140.37 108.74 141.25 109.29 142.13 109.09 Z M 143.08 108.88 L 144.06 108.67 C 144.95 108.48 145.51 107.61 145.32 106.73 C 145.14 105.84 144.27 105.28 143.38 105.46 L 142.40 105.67 C 141.52 105.86 140.95 106.73 141.14 107.61 C 141.33 108.50 142.20 109.07 143.08 108.88 Z M 144.04 108.67 L 145.01 108.48 C 145.89 108.31 146.47 107.45 146.30 106.56 C 146.12 105.67 145.26 105.09 144.37 105.27 L 143.40 105.46 C 142.52 105.63 141.94 106.50 142.11 107.38 C 142.29 108.27 143.15 108.85 144.04 108.67 Z M 144.98 108.49 L 145.88 108.33 C 146.77 108.17 147.37 107.32 147.21 106.43 C 147.05 105.54 146.20 104.94 145.31 105.10 L 144.40 105.26 C 143.51 105.42 142.92 106.27 143.08 107.16 C 143.24 108.05 144.09 108.65 144.98 108.49 Z M 145.84 108.33 L 146.80 108.19 C 147.70 108.06 148.31 107.23 148.18 106.33 C 148.05 105.44 147.22 104.82 146.32 104.95 L 145.36 105.10 C 144.46 105.23 143.84 106.06 143.98 106.96 C 144.11 107.85 144.94 108.47 145.84 108.33 Z M 146.74 108.20 L 147.81 108.08 C 148.71 107.98 149.35 107.17 149.25 106.27 C 149.15 105.37 148.34 104.73 147.45 104.83 L 146.38 104.95 C 145.48 105.05 144.84 105.86 144.94 106.75 C 145.04 107.65 145.85 108.30 146.74 108.20 Z M 147.75 108.09 L 148.74 108.01 C 149.65 107.94 150.32 107.15 150.25 106.25 C 150.18 105.35 149.40 104.68 148.50 104.75 L 147.50 104.82 C 146.60 104.89 145.93 105.68 146.00 106.58 C 146.06 107.48 146.85 108.15 147.75 108.09 Z M 148.70 108.01 L 149.68 107.97 C 150.58 107.92 151.27 107.16 151.23 106.25 C 151.19 105.35 150.42 104.65 149.52 104.70 L 148.54 104.74 C 147.64 104.79 146.94 105.55 146.99 106.46 C 147.03 107.36 147.80 108.05 148.70 108.01 Z M 149.63 107.97 L 150.65 107.95 C 151.55 107.93 152.27 107.18 152.25 106.28 C 152.23 105.37 151.49 104.66 150.58 104.67 L 149.56 104.70 C 148.66 104.71 147.94 105.46 147.96 106.36 C 147.98 107.27 148.73 107.98 149.63 107.97 Z M 150.60 107.95 L 151.64 107.95 C 152.54 107.96 153.28 107.24 153.28 106.33 C 153.29 105.43 152.57 104.69 151.66 104.68 L 150.63 104.68 C 149.73 104.67 148.99 105.39 148.98 106.30 C 148.97 107.20 149.70 107.94 150.60 107.95 Z M 151.58 107.95 L 152.61 108.00 C 153.51 108.03 154.27 107.33 154.31 106.43 C 154.35 105.53 153.65 104.77 152.75 104.73 L 151.72 104.69 C 150.82 104.65 150.05 105.35 150.02 106.25 C 149.98 107.15 150.68 107.91 151.58 107.95 Z M 152.54 107.99 L 153.58 108.08 C 154.48 108.16 155.28 107.49 155.35 106.60 C 155.43 105.70 154.77 104.90 153.87 104.83 L 152.82 104.73 C 151.92 104.66 151.13 105.32 151.05 106.22 C 150.97 107.12 151.64 107.91 152.54 107.99 Z M 153.47 108.07 L 154.48 108.22 C 155.37 108.36 156.20 107.75 156.34 106.86 C 156.48 105.97 155.87 105.13 154.98 105.00 L 153.98 104.84 C 153.09 104.70 152.25 105.31 152.11 106.20 C 151.97 107.09 152.58 107.93 153.47 108.07 Z M 154.33 108.19 L 155.27 108.43 C 156.15 108.66 157.04 108.13 157.26 107.25 C 157.48 106.38 156.95 105.49 156.08 105.27 L 155.13 105.03 C 154.26 104.80 153.37 105.33 153.14 106.21 C 152.92 107.08 153.45 107.97 154.33 108.19 Z M 155.08 108.37 L 155.97 108.72 C 156.82 109.05 157.76 108.63 158.09 107.79 C 158.42 106.95 158.00 106.00 157.16 105.67 L 156.27 105.33 C 155.43 105.00 154.48 105.42 154.15 106.26 C 153.83 107.10 154.24 108.05 155.08 108.37 Z M 155.76 108.62 L 156.60 109.10 C 157.39 109.55 158.39 109.27 158.83 108.49 C 159.28 107.70 159.00 106.70 158.22 106.26 L 157.37 105.78 C 156.59 105.33 155.59 105.60 155.15 106.39 C 154.70 107.17 154.97 108.17 155.76 108.62 Z M 156.39 108.95 L 157.16 109.57 C 157.86 110.14 158.89 110.02 159.46 109.32 C 160.02 108.61 159.91 107.58 159.20 107.02 L 158.43 106.40 C 157.73 105.84 156.70 105.95 156.13 106.65 C 155.57 107.36 155.68 108.39 156.39 108.95 Z M 156.96 109.39 L 157.63 110.13 C 158.24 110.80 159.27 110.86 159.94 110.25 C 160.62 109.64 160.67 108.61 160.06 107.94 L 159.40 107.20 C 158.79 106.52 157.75 106.47 157.08 107.08 C 156.41 107.68 156.36 108.72 156.96 109.39 Z M 157.47 109.92 L 158.01 110.77 C 158.50 111.54 159.51 111.76 160.28 111.27 C 161.04 110.78 161.26 109.77 160.78 109.01 L 160.23 108.15 C 159.74 107.39 158.73 107.16 157.96 107.65 C 157.20 108.14 156.98 109.15 157.47 109.92 Z M 157.89 110.54 L 158.28 111.46 C 158.64 112.30 159.61 112.68 160.44 112.32 C 161.27 111.97 161.66 111.00 161.30 110.17 L 160.90 109.24 C 160.54 108.41 159.58 108.02 158.75 108.38 C 157.91 108.74 157.53 109.71 157.89 110.54 Z M 158.21 111.26 L 158.48 112.24 C 158.73 113.11 159.64 113.62 160.51 113.37 C 161.39 113.13 161.90 112.22 161.65 111.35 L 161.38 110.37 C 161.13 109.50 160.22 108.99 159.35 109.23 C 158.47 109.48 157.96 110.39 158.21 111.26 Z M 158.44 112.09 L 158.63 113.09 C 158.79 113.99 159.65 114.58 160.55 114.42 C 161.44 114.25 162.03 113.40 161.87 112.50 L 161.69 111.49 C 161.52 110.60 160.67 110.01 159.77 110.17 C 158.87 110.33 158.28 111.19 158.44 112.09 Z M 158.61 112.99 L 158.72 113.98 C 158.83 114.89 159.65 115.54 160.55 115.43 C 161.46 115.33 162.11 114.51 162.01 113.60 L 161.89 112.61 C 161.79 111.70 160.97 111.05 160.06 111.15 C 159.15 111.26 158.50 112.08 158.61 112.99 Z M 158.71 113.91 L 158.79 114.90 C 158.85 115.81 159.65 116.50 160.56 116.43 C 161.47 116.36 162.16 115.57 162.09 114.66 L 162.02 113.67 C 161.95 112.76 161.16 112.07 160.24 112.14 C 159.33 112.21 158.65 113.00 158.71 113.91 Z M 158.78 114.85 L 158.82 115.91 C 158.86 116.83 159.63 117.54 160.55 117.50 C 161.47 117.46 162.18 116.69 162.14 115.77 L 162.09 114.71 C 162.06 113.79 161.28 113.08 160.37 113.12 C 159.45 113.16 158.74 113.93 158.78 114.85 Z M 158.82 115.84 L 158.82 116.83 C 158.82 117.75 159.56 118.49 160.48 118.49 C 161.40 118.49 162.14 117.75 162.14 116.83 L 162.14 115.84 C 162.14 114.92 161.40 114.18 160.48 114.18 C 159.56 114.18 158.82 114.92 158.82 115.84 Z M 158.82 116.75 L 158.77 117.69 C 158.73 118.61 159.43 119.39 160.35 119.44 C 161.27 119.48 162.05 118.77 162.10 117.86 L 162.14 116.91 C 162.19 115.99 161.48 115.21 160.56 115.17 C 159.65 115.12 158.86 115.83 158.82 116.75 Z M 158.78 117.60 L 158.68 118.55 C 158.58 119.46 159.25 120.28 160.16 120.38 C 161.08 120.47 161.90 119.81 161.99 118.89 L 162.09 117.95 C 162.19 117.03 161.52 116.21 160.61 116.12 C 159.69 116.02 158.87 116.69 158.78 117.60 Z M 158.69 118.46 L 158.53 119.42 C 158.39 120.33 159.01 121.18 159.92 121.33 C 160.83 121.48 161.69 120.86 161.83 119.95 L 161.99 118.98 C 162.13 118.07 161.51 117.22 160.60 117.07 C 159.69 116.92 158.83 117.55 158.69 118.46 Z M 158.55 119.32 L 158.33 120.31 C 158.14 121.21 158.71 122.10 159.61 122.30 C 160.51 122.50 161.40 121.92 161.60 121.02 L 161.82 120.04 C 162.01 119.14 161.44 118.25 160.54 118.05 C 159.64 117.85 158.75 118.42 158.55 119.32 Z M 158.36 120.21 L 158.07 121.22 C 157.82 122.11 158.34 123.03 159.23 123.28 C 160.12 123.53 161.05 123.01 161.30 122.12 L 161.58 121.12 C 161.83 120.23 161.31 119.30 160.42 119.05 C 159.53 118.80 158.60 119.32 158.36 120.21 Z M 158.10 121.13 L 157.79 122.04 C 157.50 122.92 157.97 123.87 158.85 124.16 C 159.73 124.45 160.68 123.98 160.97 123.10 L 161.28 122.20 C 161.57 121.32 161.10 120.37 160.22 120.08 C 159.34 119.78 158.39 120.26 158.10 121.13 Z M 157.81 121.98 L 157.47 122.91 C 157.14 123.77 157.58 124.74 158.45 125.07 C 159.32 125.39 160.28 124.95 160.61 124.08 L 160.95 123.16 C 161.28 122.29 160.84 121.32 159.97 121.00 C 159.10 120.67 158.14 121.11 157.81 121.98 Z M 157.48 122.87 L 157.10 123.82 C 156.75 124.68 157.17 125.66 158.03 126.00 C 158.90 126.34 159.87 125.93 160.22 125.06 L 160.60 124.12 C 160.94 123.26 160.52 122.28 159.66 121.94 C 158.80 121.59 157.82 122.01 157.48 122.87 Z M 157.10 123.80 L 156.71 124.76 C 156.35 125.62 156.76 126.60 157.62 126.96 C 158.48 127.31 159.46 126.90 159.81 126.05 L 160.21 125.08 C 160.57 124.22 160.16 123.24 159.30 122.89 C 158.44 122.53 157.46 122.94 157.10 123.80 Z M 156.71 124.75 L 156.32 125.67 C 155.96 126.53 156.37 127.52 157.23 127.87 C 158.08 128.23 159.07 127.83 159.43 126.97 L 159.81 126.05 C 160.17 125.19 159.77 124.21 158.91 123.85 C 158.05 123.49 157.07 123.90 156.71 124.75 Z M 156.33 125.66 L 155.93 126.58 C 155.57 127.44 155.97 128.43 156.82 128.79 C 157.68 129.16 158.67 128.76 159.04 127.90 L 159.43 126.98 C 159.79 126.12 159.39 125.13 158.54 124.77 C 157.68 124.40 156.69 124.80 156.33 125.66 Z M 155.94 126.56 L 155.53 127.48 C 155.16 128.33 155.54 129.33 156.40 129.70 C 157.25 130.08 158.25 129.69 158.62 128.84 L 159.03 127.92 C 159.40 127.07 159.02 126.07 158.17 125.70 C 157.31 125.32 156.32 125.71 155.94 126.56 Z M 155.55 127.45 L 155.12 128.36 C 154.73 129.21 155.10 130.21 155.95 130.60 C 156.79 131.00 157.80 130.63 158.19 129.78 L 158.61 128.87 C 159.00 128.02 158.64 127.02 157.79 126.63 C 156.94 126.23 155.94 126.60 155.55 127.45 Z M 155.14 128.32 L 154.69 129.22 C 154.28 130.06 154.62 131.07 155.46 131.49 C 156.30 131.90 157.31 131.56 157.73 130.72 L 158.17 129.82 C 158.59 128.98 158.24 127.97 157.41 127.55 C 156.57 127.14 155.55 127.48 155.14 128.32 Z M 154.71 129.18 L 154.25 130.06 C 153.81 130.89 154.12 131.91 154.95 132.35 C 155.78 132.79 156.80 132.47 157.24 131.65 L 157.71 130.76 C 158.15 129.94 157.83 128.91 157.00 128.47 C 156.18 128.03 155.15 128.35 154.71 129.18 Z M 154.27 130.02 L 153.78 130.89 C 153.32 131.71 153.60 132.74 154.42 133.20 C 155.24 133.66 156.27 133.37 156.73 132.56 L 157.22 131.69 C 157.68 130.87 157.39 129.84 156.58 129.38 C 155.76 128.92 154.73 129.21 154.27 130.02 Z M 153.80 130.85 L 153.28 131.71 C 152.80 132.51 153.07 133.56 153.87 134.04 C 154.68 134.52 155.72 134.26 156.20 133.45 L 156.71 132.59 C 157.19 131.79 156.93 130.75 156.12 130.27 C 155.32 129.78 154.28 130.05 153.80 130.85 Z M 153.30 131.67 L 152.77 132.52 C 152.27 133.32 152.51 134.36 153.30 134.87 C 154.10 135.37 155.15 135.13 155.65 134.33 L 156.18 133.48 C 156.68 132.69 156.44 131.64 155.65 131.14 C 154.85 130.64 153.80 130.88 153.30 131.67 Z M 152.79 132.49 L 152.23 133.33 C 151.72 134.11 151.93 135.17 152.72 135.69 C 153.50 136.21 154.56 135.99 155.07 135.20 L 155.63 134.36 C 156.15 133.58 155.93 132.52 155.14 132.01 C 154.36 131.49 153.30 131.70 152.79 132.49 Z M 152.25 133.30 L 151.68 134.13 C 151.15 134.91 151.34 135.97 152.12 136.50 C 152.90 137.03 153.96 136.84 154.49 136.06 L 155.06 135.23 C 155.59 134.46 155.39 133.39 154.62 132.86 C 153.84 132.33 152.78 132.53 152.25 133.30 Z M 151.70 134.11 L 151.12 134.92 C 150.57 135.69 150.75 136.75 151.52 137.30 C 152.28 137.85 153.35 137.67 153.90 136.90 L 154.47 136.08 C 155.02 135.32 154.84 134.25 154.07 133.71 C 153.31 133.16 152.24 133.34 151.70 134.11 Z M 151.13 134.90 L 150.54 135.70 C 149.99 136.46 150.15 137.52 150.91 138.08 C 151.67 138.64 152.74 138.48 153.30 137.72 L 153.88 136.92 C 154.44 136.16 154.28 135.09 153.52 134.53 C 152.76 133.98 151.69 134.14 151.13 134.90 Z M 150.56 135.68 L 149.94 136.49 C 149.37 137.25 149.52 138.32 150.27 138.89 C 151.03 139.46 152.10 139.31 152.67 138.55 L 153.28 137.74 C 153.85 136.98 153.70 135.91 152.95 135.34 C 152.20 134.77 151.13 134.92 150.56 135.68 Z M 149.95 136.47 L 149.33 137.27 C 148.75 138.02 148.89 139.09 149.64 139.67 C 150.38 140.25 151.46 140.11 152.04 139.37 L 152.66 138.57 C 153.23 137.83 153.10 136.75 152.35 136.17 C 151.61 135.59 150.53 135.73 149.95 136.47 Z M 149.35 137.25 L 148.73 138.03 C 148.14 138.77 148.26 139.85 149.00 140.44 C 149.74 141.02 150.82 140.90 151.41 140.16 L 152.03 139.39 C 152.61 138.65 152.49 137.57 151.75 136.98 C 151.01 136.39 149.94 136.51 149.35 137.25 Z M 148.74 138.01 L 148.12 138.77 C 147.52 139.50 147.63 140.58 148.37 141.18 C 149.10 141.78 150.18 141.67 150.78 140.94 L 151.40 140.18 C 151.99 139.44 151.89 138.36 151.15 137.77 C 150.42 137.17 149.34 137.28 148.74 138.01 Z M 148.13 138.75 L 147.47 139.54 C 146.87 140.27 146.96 141.35 147.69 141.96 C 148.42 142.57 149.50 142.47 150.11 141.74 L 150.77 140.95 C 151.38 140.22 151.28 139.14 150.55 138.53 C 149.82 137.93 148.74 138.03 148.13 138.75 Z M 147.49 139.52 L 146.83 140.29 C 146.21 141.01 146.29 142.10 147.01 142.72 C 147.74 143.33 148.82 143.25 149.44 142.53 L 150.10 141.76 C 150.71 141.04 150.63 139.95 149.91 139.34 C 149.19 138.72 148.10 138.80 147.49 139.52 Z M 146.84 140.27 L 146.19 141.02 C 145.56 141.73 145.63 142.82 146.34 143.44 C 147.05 144.07 148.14 144.01 148.77 143.29 L 149.42 142.55 C 150.05 141.84 149.98 140.75 149.27 140.12 C 148.56 139.49 147.47 139.56 146.84 140.27 Z M 146.20 140.99 L 145.56 141.70 C 144.91 142.41 144.96 143.50 145.67 144.14 C 146.37 144.78 147.46 144.73 148.10 144.03 L 148.75 143.32 C 149.39 142.61 149.34 141.52 148.64 140.88 C 147.94 140.24 146.85 140.29 146.20 140.99 Z M 145.58 141.68 L 144.93 142.36 C 144.27 143.05 144.30 144.14 144.99 144.80 C 145.68 145.46 146.77 145.43 147.43 144.74 L 148.08 144.05 C 148.74 143.36 148.71 142.27 148.02 141.61 C 147.33 140.96 146.24 140.98 145.58 141.68 Z M 144.96 142.33 L 144.28 143.01 C 143.60 143.68 143.60 144.78 144.28 145.45 C 144.95 146.13 146.05 146.13 146.72 145.45 L 147.40 144.77 C 148.08 144.10 148.08 143.00 147.40 142.33 C 146.72 141.65 145.63 141.65 144.96 142.33 Z M 144.31 142.98 L 143.56 143.68 C 142.87 144.34 142.84 145.43 143.50 146.13 C 144.16 146.82 145.25 146.85 145.95 146.19 L 146.69 145.48 C 147.38 144.83 147.41 143.73 146.75 143.04 C 146.10 142.35 145.00 142.32 144.31 142.98 Z M 143.59 143.65 L 142.81 144.36 C 142.10 145.01 142.04 146.10 142.69 146.81 C 143.33 147.52 144.42 147.57 145.13 146.93 L 145.92 146.22 C 146.63 145.58 146.68 144.48 146.04 143.77 C 145.40 143.06 144.30 143.01 143.59 143.65 Z M 142.84 144.33 L 142.08 144.99 C 141.35 145.61 141.27 146.71 141.89 147.43 C 142.52 148.16 143.61 148.24 144.34 147.62 L 145.10 146.96 C 145.83 146.34 145.91 145.24 145.28 144.52 C 144.66 143.79 143.56 143.71 142.84 144.33 Z M 142.13 144.94 L 141.32 145.59 C 140.57 146.19 140.44 147.28 141.04 148.03 C 141.64 148.78 142.73 148.90 143.48 148.31 L 144.29 147.66 C 145.04 147.06 145.16 145.97 144.57 145.22 C 143.97 144.47 142.88 144.35 142.13 144.94 Z M 141.39 145.53 L 140.56 146.12 C 139.77 146.68 139.59 147.76 140.14 148.54 C 140.70 149.33 141.79 149.51 142.57 148.96 L 143.40 148.37 C 144.19 147.81 144.37 146.73 143.82 145.94 C 143.26 145.16 142.18 144.97 141.39 145.53 Z M 140.68 146.04 L 139.85 146.53 C 139.02 147.02 138.74 148.09 139.23 148.92 C 139.72 149.74 140.79 150.02 141.61 149.53 L 142.45 149.04 C 143.28 148.55 143.55 147.48 143.06 146.66 C 142.58 145.83 141.51 145.55 140.68 146.04 Z M 140.07 146.41 L 138.87 146.90 C 137.97 147.27 137.54 148.28 137.90 149.18 C 138.26 150.07 139.28 150.50 140.18 150.14 L 141.38 149.65 C 142.28 149.29 142.71 148.27 142.35 147.38 C 141.99 146.48 140.97 146.05 140.07 146.41 Z M 139.05 146.84 L 138.02 147.12 C 137.09 147.38 136.54 148.34 136.80 149.27 C 137.06 150.20 138.02 150.75 138.95 150.49 L 139.99 150.21 C 140.92 149.95 141.46 148.99 141.21 148.06 C 140.95 147.12 139.99 146.58 139.05 146.84 Z M 137.56 147.32 L 137.19 147.55 C 136.36 148.06 136.11 149.14 136.62 149.97 C 137.14 150.79 138.22 151.04 139.04 150.53 L 139.41 150.29 C 140.23 149.78 140.49 148.70 139.97 147.88 C 139.46 147.06 138.38 146.81 137.56 147.32 Z M 137.03 150.42 L 137.53 150.81 C 138.29 151.41 139.39 151.28 139.99 150.52 C 140.59 149.75 140.46 148.65 139.70 148.05 L 139.20 147.66 C 138.44 147.06 137.33 147.19 136.73 147.95 C 136.13 148.72 136.26 149.82 137.03 150.42 Z M 137.73 150.96 L 138.76 151.55 C 139.60 152.03 140.68 151.74 141.16 150.90 C 141.65 150.06 141.36 148.98 140.52 148.50 L 139.49 147.91 C 138.65 147.42 137.57 147.71 137.09 148.55 C 136.60 149.40 136.89 150.47 137.73 150.96 Z M 138.61 151.45 L 139.49 152.08 C 140.28 152.65 141.38 152.47 141.95 151.68 C 142.52 150.89 142.34 149.79 141.55 149.23 L 140.67 148.59 C 139.88 148.03 138.78 148.21 138.21 149.00 C 137.64 149.79 137.82 150.89 138.61 151.45 Z M 139.29 151.92 L 139.92 152.52 C 140.61 153.20 141.73 153.18 142.40 152.48 C 143.08 151.78 143.06 150.67 142.37 149.99 L 141.74 149.39 C 141.05 148.71 139.93 148.73 139.26 149.43 C 138.58 150.13 138.60 151.24 139.29 151.92 Z M 139.79 152.38 L 140.40 153.12 C 141.02 153.86 142.13 153.96 142.88 153.34 C 143.62 152.72 143.73 151.61 143.10 150.86 L 142.49 150.13 C 141.87 149.38 140.76 149.28 140.01 149.90 C 139.27 150.53 139.17 151.64 139.79 152.38 Z M 140.33 153.02 L 140.97 153.91 C 141.54 154.70 142.64 154.88 143.43 154.31 C 144.22 153.74 144.39 152.64 143.82 151.85 L 143.18 150.96 C 142.61 150.17 141.51 149.99 140.72 150.56 C 139.93 151.13 139.76 152.23 140.33 153.02 Z M 140.94 153.86 L 141.57 154.80 C 142.11 155.61 143.20 155.82 144.01 155.28 C 144.82 154.74 145.03 153.64 144.49 152.84 L 143.86 151.90 C 143.32 151.10 142.22 150.88 141.42 151.42 C 140.61 151.97 140.40 153.06 140.94 153.86 Z M 141.56 154.78 L 142.09 155.60 C 142.62 156.41 143.71 156.64 144.52 156.11 C 145.34 155.58 145.57 154.49 145.04 153.68 L 144.50 152.86 C 143.97 152.05 142.88 151.82 142.07 152.35 C 141.26 152.88 141.03 153.97 141.56 154.78 Z M 142.09 155.59 L 142.65 156.46 C 143.17 157.28 144.26 157.51 145.07 156.99 C 145.89 156.47 146.12 155.38 145.60 154.57 L 145.04 153.69 C 144.52 152.88 143.43 152.64 142.62 153.16 C 141.80 153.69 141.56 154.77 142.09 155.59 Z M 142.64 156.45 L 143.21 157.34 C 143.73 158.16 144.81 158.41 145.63 157.89 C 146.45 157.37 146.69 156.29 146.17 155.47 L 145.61 154.58 C 145.09 153.76 144.00 153.52 143.19 154.03 C 142.37 154.55 142.13 155.63 142.64 156.45 Z M 143.21 157.34 L 143.76 158.22 C 144.27 159.03 145.35 159.28 146.17 158.77 C 146.99 158.26 147.24 157.18 146.72 156.36 L 146.17 155.48 C 145.66 154.66 144.58 154.41 143.76 154.92 C 142.94 155.44 142.69 156.52 143.21 157.34 Z M 143.76 158.21 L 144.28 159.04 C 144.79 159.86 145.86 160.11 146.68 159.60 C 147.50 159.09 147.75 158.02 147.24 157.20 L 146.73 156.36 C 146.22 155.54 145.14 155.29 144.32 155.80 C 143.50 156.31 143.25 157.39 143.76 158.21 Z M 144.28 159.04 L 144.82 159.91 C 145.32 160.73 146.40 160.98 147.22 160.47 C 148.03 159.97 148.29 158.90 147.78 158.08 L 147.24 157.20 C 146.74 156.39 145.66 156.13 144.84 156.64 C 144.03 157.15 143.77 158.22 144.28 159.04 Z M 144.84 159.90 L 145.44 160.87 C 145.94 161.68 147.00 161.93 147.81 161.42 C 148.62 160.92 148.87 159.86 148.36 159.05 L 147.76 158.08 C 147.26 157.28 146.20 157.03 145.39 157.53 C 144.58 158.03 144.34 159.09 144.84 159.90 Z M 145.49 160.89 L 146.02 161.70 C 146.53 162.48 147.58 162.70 148.36 162.19 C 149.14 161.67 149.36 160.62 148.85 159.84 L 148.32 159.03 C 147.81 158.25 146.76 158.03 145.97 158.54 C 145.19 159.06 144.97 160.11 145.49 160.89 Z M 146.09 161.76 L 146.61 162.47 C 147.16 163.21 148.20 163.37 148.94 162.82 C 149.68 162.28 149.84 161.24 149.30 160.50 L 148.78 159.78 C 148.23 159.04 147.19 158.88 146.45 159.43 C 145.71 159.97 145.55 161.01 146.09 161.76 Z M 146.71 162.54 L 147.29 163.22 C 147.88 163.91 148.91 163.99 149.60 163.40 C 150.29 162.81 150.37 161.78 149.78 161.09 L 149.20 160.42 C 148.61 159.73 147.58 159.65 146.89 160.24 C 146.20 160.82 146.12 161.86 146.71 162.54 Z M 147.39 163.29 L 148.06 163.97 C 148.68 164.61 149.70 164.61 150.33 163.99 C 150.97 163.37 150.98 162.35 150.36 161.72 L 149.68 161.03 C 149.06 160.40 148.04 160.39 147.41 161.01 C 146.77 161.63 146.76 162.65 147.39 163.29 Z M 148.13 164.00 L 148.87 164.69 C 149.51 165.28 150.51 165.25 151.10 164.61 C 151.70 163.97 151.66 162.97 151.02 162.37 L 150.28 161.69 C 149.65 161.09 148.65 161.13 148.05 161.77 C 147.46 162.41 147.49 163.41 148.13 164.00 Z M 148.92 164.69 L 149.69 165.38 C 150.33 165.95 151.31 165.89 151.88 165.25 C 152.45 164.60 152.39 163.62 151.75 163.06 L 150.97 162.37 C 150.33 161.80 149.35 161.86 148.78 162.50 C 148.21 163.14 148.27 164.12 148.92 164.69 Z M 149.71 165.37 L 150.11 165.72 C 150.75 166.27 151.72 166.21 152.27 165.57 C 152.83 164.93 152.76 163.97 152.12 163.41 L 151.72 163.06 C 151.09 162.51 150.12 162.57 149.57 163.21 C 149.01 163.85 149.08 164.82 149.71 165.37 Z"
      fill="black"
      fill-rule="nonzero" /><path d="M 148.64 186.33 L 147.87 186.96 C 147.18 187.52 147.07 188.54 147.63 189.23 C 148.20 189.93 149.21 190.03 149.91 189.47 L 150.68 188.84 C 151.38 188.27 151.48 187.26 150.92 186.56 C 150.36 185.87 149.34 185.77 148.64 186.33 Z M 147.86 186.95 L 147.09 187.58 C 146.39 188.15 146.28 189.17 146.85 189.87 C 147.42 190.57 148.44 190.67 149.14 190.11 L 149.91 189.47 C 150.61 188.91 150.71 187.89 150.15 187.19 C 149.58 186.49 148.56 186.39 147.86 186.95 Z M 147.08 187.58 L 146.52 188.04 C 145.82 188.61 145.71 189.63 146.28 190.33 C 146.85 191.03 147.88 191.14 148.58 190.57 L 149.14 190.11 C 149.84 189.54 149.95 188.51 149.38 187.82 C 148.81 187.12 147.78 187.01 147.08 187.58 Z"
      fill="black"
      fill-rule="nonzero" /></svg>