<svg xmlns="http://www.w3.org/2000/svg" width="300" height="300" viewBox="0 0 300 300">
<path d="M 134.72 115.04 L 133.31 114.81 C 132.41 114.66 131.56 115.27 131.41 116.17 C 131.26 117.07 131.87 117.92 132.77 118.07 L 134.18 118.31 C 135.08 118.46 135.93 117.85 136.08 116.95 C 136.23 116.05 135.62 115.19 134.72 115.04 Z M 133.37 114.80 L 132.27 114.58 C 131.36 114.40 130.48 114.99 130.30 115.89 C 130.12 116.80 130.71 117.68 131.61 117.86 L 132.71 118.08 C 133.62 118.26 134.50 117.67 134.68 116.77 C 134.86 115.86 134.27 114.98 133.37 114.80 Z M 132.57 114.66 L 132.09 114.46 C 131.22 114.12 130.24 114.54 129.90 115.40 C 129.55 116.26 129.97 117.25 130.83 117.59 L 131.31 117.78 C 132.18 118.13 133.16 117.71 133.50 116.85 C 133.85 115.98 133.43 115.00 132.57 114.66 Z M 132.17 117.57 L 132.45 117.44 C 133.30 117.04 133.67 116.03 133.27 115.19 C 132.88 114.34 131.87 113.97 131.02 114.36 L 130.75 114.49 C 129.90 114.88 129.53 115.89 129.92 116.74 C 130.32 117.59 131.33 117.96 132.17 117.57 Z M 131.95 117.58 L 132.68 117.49 C 133.61 117.37 134.27 116.52 134.15 115.59 C 134.04 114.66 133.19 114.00 132.25 114.12 L 131.52 114.21 C 130.59 114.33 129.93 115.18 130.05 116.11 C 130.17 117.04 131.02 117.70 131.95 117.58 Z M 132.61 117.50 L 133.67 117.41 C 134.60 117.34 135.30 116.52 135.22 115.58 C 135.15 114.65 134.33 113.95 133.39 114.03 L 132.33 114.11 C 131.40 114.19 130.70 115.01 130.78 115.94 C 130.85 116.88 131.67 117.58 132.61 117.50 Z M 133.65 117.42 L 134.91 117.33 C 135.85 117.26 136.55 116.44 136.49 115.51 C 136.42 114.57 135.61 113.87 134.67 113.93 L 133.41 114.02 C 132.47 114.09 131.77 114.90 131.84 115.84 C 131.90 116.78 132.72 117.48 133.65 117.42 Z M 134.92 117.32 L 136.24 117.22 C 137.18 117.15 137.88 116.33 137.80 115.39 C 137.73 114.46 136.91 113.76 135.98 113.83 L 134.66 113.94 C 133.72 114.01 133.02 114.83 133.10 115.76 C 133.17 116.70 133.99 117.40 134.92 117.32 Z M 136.27 117.22 L 137.31 117.12 C 138.24 117.03 138.92 116.20 138.83 115.26 C 138.74 114.33 137.91 113.65 136.98 113.74 L 135.95 113.84 C 135.01 113.93 134.33 114.76 134.42 115.69 C 134.51 116.62 135.34 117.31 136.27 117.22 Z M 137.34 117.11 L 138.34 116.99 C 139.27 116.88 139.94 116.04 139.83 115.12 C 139.72 114.19 138.88 113.52 137.96 113.63 L 136.95 113.74 C 136.02 113.85 135.36 114.69 135.46 115.62 C 135.57 116.55 136.41 117.21 137.34 117.11 Z M 138.37 116.98 L 139.36 116.85 C 140.28 116.73 140.93 115.88 140.81 114.95 C 140.68 114.03 139.83 113.38 138.91 113.51 L 137.93 113.64 C 137.00 113.76 136.35 114.61 136.48 115.53 C 136.60 116.46 137.45 117.11 138.37 116.98 Z M 139.39 116.84 L 140.36 116.69 C 141.28 116.55 141.91 115.70 141.77 114.78 C 141.63 113.86 140.77 113.23 139.85 113.37 L 138.88 113.51 C 137.96 113.65 137.33 114.51 137.47 115.43 C 137.61 116.35 138.47 116.98 139.39 116.84 Z M 140.38 116.68 L 141.35 116.52 C 142.26 116.37 142.88 115.50 142.73 114.59 C 142.57 113.67 141.70 113.06 140.79 113.21 L 139.82 113.38 C 138.91 113.53 138.30 114.40 138.45 115.31 C 138.61 116.22 139.47 116.84 140.38 116.68 Z M 141.38 116.51 L 142.36 116.33 C 143.27 116.16 143.87 115.29 143.70 114.38 C 143.54 113.47 142.66 112.87 141.76 113.04 L 140.77 113.22 C 139.86 113.39 139.26 114.26 139.43 115.17 C 139.60 116.08 140.47 116.68 141.38 116.51 Z M 142.38 116.32 L 143.42 116.11 C 144.32 115.93 144.91 115.06 144.73 114.15 C 144.55 113.25 143.68 112.66 142.77 112.84 L 141.73 113.05 C 140.83 113.23 140.25 114.11 140.43 115.01 C 140.60 115.91 141.48 116.50 142.38 116.32 Z M 143.44 116.10 L 144.47 115.89 C 145.36 115.70 145.94 114.82 145.75 113.92 C 145.56 113.02 144.68 112.45 143.78 112.64 L 142.76 112.85 C 141.86 113.04 141.29 113.92 141.47 114.82 C 141.66 115.72 142.54 116.29 143.44 116.10 Z M 144.48 115.88 L 145.48 115.66 C 146.37 115.46 146.93 114.58 146.74 113.69 C 146.54 112.80 145.66 112.23 144.77 112.43 L 143.77 112.65 C 142.88 112.84 142.32 113.72 142.51 114.62 C 142.71 115.51 143.59 116.07 144.48 115.88 Z M 145.49 115.65 L 146.44 115.43 C 147.32 115.23 147.88 114.35 147.68 113.46 C 147.48 112.58 146.60 112.02 145.71 112.22 L 144.76 112.44 C 143.87 112.64 143.32 113.52 143.52 114.41 C 143.72 115.29 144.60 115.85 145.49 115.65 Z M 146.44 115.42 L 147.33 115.22 C 148.21 115.01 148.76 114.13 148.55 113.25 C 148.35 112.37 147.47 111.82 146.59 112.03 L 145.70 112.23 C 144.82 112.44 144.27 113.32 144.48 114.20 C 144.68 115.08 145.56 115.63 146.44 115.42 Z M 147.33 115.21 L 148.32 114.97 C 149.20 114.77 149.74 113.89 149.53 113.01 C 149.33 112.14 148.45 111.59 147.57 111.80 L 146.58 112.04 C 145.71 112.25 145.16 113.12 145.37 114.00 C 145.58 114.87 146.46 115.42 147.33 115.21 Z M 148.33 114.96 L 149.28 114.73 C 150.14 114.52 150.68 113.64 150.46 112.77 C 150.25 111.91 149.38 111.37 148.51 111.59 L 147.57 111.82 C 146.70 112.03 146.17 112.90 146.38 113.77 C 146.59 114.64 147.47 115.17 148.33 114.96 Z M 149.29 114.71 L 150.21 114.48 C 151.07 114.26 151.59 113.39 151.37 112.53 C 151.15 111.67 150.28 111.15 149.42 111.37 L 148.50 111.60 C 147.64 111.82 147.12 112.69 147.34 113.55 C 147.56 114.41 148.43 114.93 149.29 114.71 Z M 150.22 114.46 L 151.19 114.21 C 152.04 113.98 152.55 113.11 152.33 112.27 C 152.10 111.42 151.23 110.91 150.38 111.13 L 149.41 111.39 C 148.56 111.61 148.05 112.48 148.28 113.33 C 148.50 114.18 149.37 114.68 150.22 114.46 Z M 151.20 114.19 L 152.16 113.94 C 153.00 113.71 153.50 112.84 153.27 112.00 C 153.05 111.16 152.18 110.66 151.34 110.88 L 150.38 111.14 C 149.53 111.37 149.04 112.24 149.26 113.08 C 149.49 113.92 150.36 114.42 151.20 114.19 Z M 152.16 113.93 L 153.14 113.66 C 153.98 113.43 154.47 112.56 154.24 111.73 C 154.01 110.89 153.14 110.40 152.31 110.63 L 151.33 110.89 C 150.49 111.12 150.00 111.99 150.23 112.83 C 150.46 113.66 151.33 114.16 152.16 113.93 Z M 153.14 113.65 L 154.15 113.37 C 154.98 113.14 155.47 112.28 155.24 111.44 C 155.00 110.61 154.14 110.12 153.31 110.35 L 152.30 110.63 C 151.47 110.87 150.98 111.73 151.21 112.56 C 151.44 113.40 152.31 113.88 153.14 113.65 Z M 154.15 113.37 L 155.14 113.09 C 155.97 112.85 156.46 111.99 156.22 111.16 C 155.99 110.33 155.12 109.85 154.29 110.08 L 153.30 110.36 C 152.47 110.60 151.99 111.46 152.22 112.29 C 152.46 113.12 153.32 113.60 154.15 113.37 Z M 155.15 113.08 L 156.09 112.81 C 156.91 112.57 157.39 111.71 157.15 110.88 C 156.91 110.06 156.05 109.58 155.23 109.82 L 154.29 110.09 C 153.46 110.32 152.99 111.19 153.22 112.01 C 153.46 112.84 154.32 113.32 155.15 113.08 Z M 156.09 112.80 L 157.00 112.53 C 157.82 112.29 158.28 111.43 158.04 110.61 C 157.80 109.79 156.94 109.32 156.12 109.56 L 155.22 109.83 C 154.40 110.07 153.93 110.93 154.17 111.75 C 154.41 112.57 155.27 113.04 156.09 112.80 Z M 157.01 112.52 L 157.86 112.25 C 158.68 112.01 159.13 111.15 158.89 110.34 C 158.64 109.53 157.78 109.07 156.97 109.32 L 156.11 109.58 C 155.30 109.83 154.85 110.68 155.09 111.49 C 155.34 112.31 156.20 112.76 157.01 112.52 Z M 157.88 112.24 L 158.75 111.96 C 159.55 111.70 159.99 110.85 159.74 110.05 C 159.49 109.25 158.63 108.81 157.83 109.06 L 156.96 109.34 C 156.16 109.59 155.72 110.45 155.97 111.25 C 156.22 112.05 157.08 112.49 157.88 112.24 Z M 158.76 111.94 L 159.74 111.62 C 160.53 111.36 160.96 110.51 160.70 109.72 C 160.44 108.93 159.59 108.50 158.80 108.76 L 157.82 109.08 C 157.03 109.34 156.60 110.19 156.86 110.98 C 157.12 111.77 157.97 112.20 158.76 111.94 Z M 159.75 111.60 L 160.85 111.23 C 161.63 110.97 162.05 110.13 161.79 109.34 C 161.53 108.56 160.68 108.14 159.90 108.41 L 158.80 108.77 C 158.02 109.04 157.60 109.88 157.86 110.66 C 158.12 111.44 158.97 111.86 159.75 111.60 Z M 160.85 111.22 L 161.72 110.93 C 162.49 110.67 162.91 109.82 162.64 109.05 C 162.38 108.27 161.54 107.86 160.77 108.12 L 159.90 108.42 C 159.12 108.68 158.71 109.52 158.97 110.30 C 159.23 111.07 160.08 111.49 160.85 111.22 Z M 161.72 110.92 L 162.66 110.60 C 163.44 110.33 163.85 109.49 163.58 108.72 C 163.32 107.95 162.48 107.54 161.70 107.80 L 160.76 108.13 C 159.99 108.39 159.58 109.23 159.84 110.00 C 160.11 110.78 160.95 111.19 161.72 110.92 Z M 162.67 110.59 L 163.66 110.25 C 164.42 109.98 164.83 109.14 164.56 108.37 C 164.30 107.61 163.46 107.20 162.69 107.47 L 161.70 107.81 C 160.93 108.08 160.52 108.92 160.79 109.69 C 161.06 110.45 161.90 110.86 162.67 110.59 Z M 163.66 110.24 L 164.67 109.89 C 165.43 109.62 165.83 108.78 165.56 108.01 C 165.29 107.25 164.45 106.85 163.69 107.12 L 162.68 107.47 C 161.92 107.74 161.52 108.58 161.79 109.35 C 162.06 110.11 162.90 110.51 163.66 110.24 Z M 164.67 109.88 L 165.66 109.52 C 166.42 109.25 166.82 108.41 166.54 107.65 C 166.27 106.89 165.43 106.49 164.67 106.77 L 163.68 107.13 C 162.92 107.40 162.52 108.24 162.80 109.00 C 163.07 109.76 163.91 110.16 164.67 109.88 Z M 165.67 109.52 L 166.62 109.16 C 167.38 108.88 167.76 108.04 167.48 107.29 C 167.20 106.53 166.36 106.14 165.60 106.43 L 164.66 106.78 C 163.90 107.06 163.51 107.90 163.80 108.65 C 164.08 109.41 164.92 109.80 165.67 109.52 Z M 166.63 109.15 L 167.53 108.81 C 168.28 108.52 168.66 107.67 168.37 106.92 C 168.08 106.17 167.24 105.80 166.49 106.09 L 165.59 106.44 C 164.84 106.73 164.46 107.57 164.75 108.32 C 165.04 109.07 165.88 109.44 166.63 109.15 Z M 167.56 108.79 L 168.72 108.32 C 169.46 108.01 169.81 107.16 169.51 106.42 C 169.20 105.68 168.35 105.33 167.61 105.63 L 166.46 106.11 C 165.72 106.41 165.36 107.26 165.67 108.00 C 165.97 108.74 166.82 109.10 167.56 108.79 Z M 168.75 108.29 L 169.72 107.86 C 170.45 107.54 170.78 106.68 170.45 105.95 C 170.13 105.22 169.27 104.90 168.54 105.22 L 167.58 105.65 C 166.85 105.98 166.52 106.83 166.85 107.56 C 167.17 108.29 168.02 108.62 168.75 108.29 Z M 169.76 107.84 L 170.59 107.44 C 171.30 107.09 171.60 106.23 171.26 105.52 C 170.92 104.80 170.06 104.50 169.34 104.85 L 168.51 105.25 C 167.79 105.59 167.49 106.45 167.84 107.17 C 168.18 107.88 169.04 108.18 169.76 107.84 Z M 170.61 107.42 L 171.36 107.04 C 172.07 106.68 172.35 105.82 171.99 105.11 C 171.63 104.41 170.77 104.13 170.07 104.48 L 169.31 104.87 C 168.61 105.22 168.33 106.09 168.69 106.79 C 169.05 107.50 169.91 107.78 170.61 107.42 Z M 171.37 107.03 L 171.75 106.83 C 172.45 106.47 172.72 105.60 172.36 104.91 C 172.00 104.21 171.14 103.93 170.44 104.30 L 170.06 104.49 C 169.36 104.86 169.08 105.72 169.45 106.42 C 169.81 107.12 170.67 107.39 171.37 107.03 Z"
      fill="black"
      fill-rule="nonzero" /><path d="M 113.36 143.09 L 113.64 143.95 C 113.91 144.78 114.80 145.24 115.63 144.97 C 116.46 144.70 116.92 143.81 116.65 142.98 L 116.38 142.12 C 116.11 141.29 115.22 140.83 114.39 141.10 C 113.55 141.36 113.10 142.26 113.36 143.09 Z M 113.64 143.95 L 113.93 144.84 C 114.20 145.67 115.09 146.13 115.92 145.86 C 116.75 145.59 117.21 144.70 116.94 143.87 L 116.65 142.98 C 116.39 142.14 115.49 141.69 114.66 141.96 C 113.83 142.23 113.37 143.12 113.64 143.95 Z M 113.93 144.85 L 114.24 145.80 C 114.51 146.63 115.40 147.08 116.24 146.81 C 117.07 146.54 117.52 145.65 117.25 144.81 L 116.94 143.86 C 116.67 143.03 115.78 142.58 114.94 142.85 C 114.11 143.12 113.66 144.01 113.93 144.85 Z M 114.24 145.80 L 114.58 146.85 C 114.86 147.68 115.76 148.13 116.59 147.86 C 117.42 147.58 117.87 146.68 117.60 145.85 L 117.25 144.81 C 116.98 143.98 116.08 143.52 115.25 143.80 C 114.42 144.07 113.97 144.97 114.24 145.80 Z M 114.58 146.85 L 114.90 147.79 C 115.18 148.62 116.07 149.07 116.91 148.79 C 117.74 148.52 118.19 147.62 117.91 146.79 L 117.60 145.85 C 117.32 145.02 116.42 144.57 115.59 144.84 C 114.76 145.12 114.31 146.02 114.58 146.85 Z M 114.90 147.79 L 115.20 148.69 C 115.47 149.52 116.37 149.97 117.20 149.69 C 118.04 149.41 118.49 148.51 118.21 147.68 L 117.91 146.79 C 117.63 145.95 116.73 145.50 115.90 145.78 C 115.07 146.06 114.62 146.96 114.90 147.79 Z M 115.19 148.68 L 115.50 149.63 C 115.78 150.46 116.68 150.91 117.51 150.64 C 118.35 150.36 118.80 149.46 118.52 148.63 L 118.21 147.69 C 117.94 146.85 117.04 146.40 116.20 146.67 C 115.37 146.95 114.92 147.85 115.19 148.68 Z M 115.50 149.62 L 115.82 150.59 C 116.09 151.43 116.98 151.89 117.82 151.62 C 118.66 151.35 119.11 150.45 118.84 149.61 L 118.53 148.64 C 118.26 147.80 117.36 147.34 116.52 147.61 C 115.69 147.88 115.23 148.78 115.50 149.62 Z M 115.81 150.58 L 116.12 151.58 C 116.38 152.42 117.28 152.88 118.12 152.62 C 118.96 152.36 119.42 151.46 119.16 150.62 L 118.85 149.63 C 118.59 148.79 117.69 148.32 116.85 148.58 C 116.01 148.85 115.55 149.74 115.81 150.58 Z M 116.11 151.56 L 116.42 152.56 C 116.67 153.41 117.56 153.88 118.40 153.63 C 119.24 153.38 119.72 152.49 119.47 151.65 L 119.17 150.64 C 118.92 149.80 118.03 149.32 117.18 149.57 C 116.34 149.83 115.86 150.71 116.11 151.56 Z M 116.41 152.54 L 116.70 153.58 C 116.94 154.42 117.82 154.92 118.67 154.68 C 119.52 154.44 120.01 153.56 119.77 152.71 L 119.48 151.67 C 119.24 150.82 118.36 150.33 117.51 150.57 C 116.66 150.81 116.17 151.69 116.41 152.54 Z M 116.70 153.55 L 116.97 154.59 C 117.20 155.45 118.07 155.95 118.92 155.73 C 119.77 155.50 120.28 154.63 120.05 153.78 L 119.78 152.73 C 119.55 151.88 118.68 151.38 117.83 151.60 C 116.98 151.83 116.47 152.70 116.70 153.55 Z M 116.97 154.57 L 117.22 155.58 C 117.43 156.44 118.30 156.96 119.15 156.74 C 120.01 156.53 120.53 155.67 120.31 154.81 L 120.06 153.80 C 119.85 152.95 118.98 152.43 118.13 152.64 C 117.27 152.85 116.75 153.72 116.97 154.57 Z M 117.22 155.57 L 117.45 156.54 C 117.65 157.39 118.51 157.92 119.36 157.72 C 120.22 157.52 120.75 156.66 120.55 155.80 L 120.32 154.83 C 120.11 153.98 119.25 153.45 118.40 153.65 C 117.54 153.85 117.01 154.71 117.22 155.57 Z M 117.44 156.52 L 117.65 157.44 C 117.84 158.30 118.70 158.83 119.55 158.64 C 120.41 158.45 120.95 157.59 120.76 156.74 L 120.55 155.82 C 120.35 154.96 119.50 154.42 118.64 154.62 C 117.79 154.81 117.25 155.66 117.44 156.52 Z M 117.65 157.43 L 117.83 158.28 C 118.02 159.14 118.87 159.68 119.73 159.50 C 120.59 159.31 121.13 158.46 120.94 157.60 L 120.76 156.75 C 120.57 155.89 119.72 155.35 118.86 155.53 C 118.01 155.72 117.46 156.57 117.65 157.43 Z M 117.84 158.27 L 118.07 159.40 C 118.25 160.25 119.09 160.80 119.95 160.62 C 120.81 160.44 121.36 159.60 121.18 158.74 L 120.94 157.62 C 120.76 156.76 119.92 156.21 119.06 156.39 C 118.21 156.57 117.66 157.41 117.84 158.27 Z M 118.08 159.38 L 118.28 160.39 C 118.45 161.24 119.28 161.79 120.14 161.62 C 120.99 161.45 121.55 160.62 121.38 159.76 L 121.17 158.76 C 121.00 157.90 120.17 157.35 119.31 157.52 C 118.46 157.69 117.91 158.53 118.08 159.38 Z M 118.28 160.37 L 118.46 161.28 C 118.62 162.14 119.45 162.70 120.30 162.53 C 121.15 162.37 121.71 161.54 121.55 160.69 L 121.37 159.78 C 121.21 158.92 120.38 158.37 119.53 158.53 C 118.68 158.70 118.12 159.52 118.28 160.37 Z M 118.47 161.27 L 118.63 162.14 C 118.78 162.99 119.60 163.55 120.45 163.39 C 121.30 163.23 121.86 162.42 121.70 161.57 L 121.54 160.70 C 121.38 159.85 120.57 159.29 119.72 159.45 C 118.87 159.61 118.31 160.42 118.47 161.27 Z M 118.63 162.13 L 118.79 163.03 C 118.95 163.88 119.76 164.44 120.60 164.29 C 121.45 164.13 122.01 163.32 121.86 162.48 L 121.70 161.58 C 121.54 160.73 120.73 160.17 119.89 160.32 C 119.04 160.47 118.48 161.28 118.63 162.13 Z M 118.80 163.02 L 118.96 163.96 C 119.11 164.81 119.92 165.37 120.76 165.22 C 121.60 165.08 122.17 164.27 122.02 163.43 L 121.85 162.49 C 121.71 161.64 120.90 161.08 120.06 161.23 C 119.22 161.37 118.65 162.18 118.80 163.02 Z M 118.97 163.96 L 119.15 165.00 C 119.29 165.85 120.09 166.41 120.93 166.27 C 121.77 166.12 122.34 165.32 122.19 164.48 L 122.01 163.44 C 121.87 162.59 121.07 162.03 120.23 162.17 C 119.39 162.32 118.83 163.12 118.97 163.96 Z M 119.16 165.00 L 119.33 166.00 C 119.47 166.84 120.26 167.41 121.10 167.26 C 121.94 167.12 122.50 166.33 122.36 165.49 L 122.19 164.49 C 122.05 163.65 121.25 163.09 120.42 163.23 C 119.58 163.37 119.01 164.16 119.16 165.00 Z M 119.33 166.00 L 119.49 166.95 C 119.63 167.78 120.43 168.34 121.26 168.20 C 122.09 168.06 122.65 167.27 122.51 166.44 L 122.35 165.49 C 122.21 164.66 121.42 164.10 120.59 164.24 C 119.75 164.38 119.19 165.17 119.33 166.00 Z M 119.50 166.95 L 119.67 167.95 C 119.82 168.78 120.61 169.34 121.44 169.20 C 122.27 169.05 122.82 168.26 122.68 167.43 L 122.51 166.43 C 122.36 165.60 121.57 165.05 120.74 165.19 C 119.91 165.33 119.36 166.12 119.50 166.95 Z M 119.68 167.96 L 119.86 168.98 C 120.01 169.81 120.80 170.36 121.63 170.21 C 122.45 170.06 123.00 169.27 122.85 168.45 L 122.67 167.42 C 122.52 166.60 121.73 166.05 120.91 166.20 C 120.08 166.35 119.53 167.13 119.68 167.96 Z M 119.87 169.00 L 120.06 170.02 C 120.22 170.84 121.01 171.38 121.83 171.22 C 122.65 171.07 123.19 170.28 123.04 169.46 L 122.85 168.44 C 122.69 167.62 121.90 167.08 121.08 167.23 C 120.26 167.38 119.72 168.17 119.87 169.00 Z M 120.08 170.03 L 120.29 171.08 C 120.45 171.89 121.24 172.42 122.06 172.26 C 122.87 172.09 123.40 171.30 123.24 170.48 L 123.03 169.44 C 122.86 168.62 122.07 168.10 121.25 168.26 C 120.44 168.42 119.91 169.22 120.08 170.03 Z M 120.30 171.10 L 120.53 172.14 C 120.71 172.95 121.51 173.45 122.31 173.28 C 123.12 173.10 123.63 172.30 123.45 171.49 L 123.22 170.46 C 123.04 169.65 122.24 169.14 121.44 169.32 C 120.63 169.50 120.12 170.30 120.30 171.10 Z M 120.55 172.18 L 120.80 173.16 C 121.00 173.95 121.80 174.43 122.60 174.23 C 123.39 174.03 123.87 173.23 123.67 172.44 L 123.43 171.46 C 123.23 170.66 122.42 170.18 121.63 170.38 C 120.84 170.58 120.36 171.38 120.55 172.18 Z M 120.82 173.20 L 121.09 174.12 C 121.32 174.90 122.13 175.35 122.91 175.13 C 123.69 174.90 124.14 174.09 123.91 173.31 L 123.65 172.39 C 123.42 171.61 122.61 171.16 121.83 171.38 C 121.05 171.61 120.60 172.42 120.82 173.20 Z M 121.12 174.18 L 121.42 175.05 C 121.68 175.81 122.50 176.22 123.27 175.96 C 124.03 175.70 124.44 174.87 124.18 174.11 L 123.88 173.25 C 123.62 172.48 122.79 172.08 122.03 172.34 C 121.27 172.60 120.86 173.42 121.12 174.18 Z M 121.46 175.13 L 121.85 176.10 C 122.15 176.84 123.00 177.19 123.74 176.89 C 124.48 176.59 124.83 175.74 124.53 175.00 L 124.14 174.04 C 123.84 173.30 122.99 172.94 122.25 173.24 C 121.51 173.54 121.15 174.39 121.46 175.13 Z M 121.89 176.17 L 122.32 177.07 C 122.66 177.79 123.52 178.10 124.24 177.76 C 124.96 177.42 125.26 176.56 124.92 175.84 L 124.49 174.93 C 124.15 174.21 123.29 173.91 122.57 174.25 C 121.86 174.59 121.55 175.45 121.89 176.17 Z M 122.35 177.12 L 122.80 177.98 C 123.16 178.68 124.03 178.96 124.73 178.59 C 125.43 178.23 125.71 177.36 125.34 176.66 L 124.89 175.79 C 124.53 175.09 123.66 174.82 122.96 175.18 C 122.25 175.55 121.98 176.41 122.35 177.12 Z M 122.81 178.00 L 123.14 178.60 C 123.51 179.30 124.38 179.56 125.07 179.18 C 125.77 178.81 126.03 177.94 125.65 177.25 L 125.33 176.64 C 124.95 175.95 124.09 175.69 123.39 176.06 C 122.70 176.44 122.44 177.30 122.81 178.00 Z"
      fill="black"
      fill-rule="nonzero" /><path d="M 116.04 142.84 L 114.62 142.63 C 113.73 142.50 112.90 143.11 112.76 144.00 C 112.63 144.90 113.25 145.73 114.14 145.86 L 115.56 146.07 C 116.45 146.20 117.28 145.59 117.41 144.70 C 117.54 143.80 116.93 142.97 116.04 142.84 Z M 114.65 142.62 L 113.45 142.42 C 112.55 142.27 111.70 142.88 111.55 143.77 C 111.40 144.67 112.01 145.52 112.91 145.67 L 114.11 145.87 C 115.00 146.02 115.85 145.41 116.00 144.52 C 116.15 143.62 115.55 142.77 114.65 142.62 Z M 113.56 142.43 L 112.79 142.25 C 111.90 142.04 111.00 142.59 110.79 143.48 C 110.58 144.38 111.14 145.27 112.03 145.48 L 112.80 145.66 C 113.69 145.87 114.59 145.32 114.80 144.42 C 115.01 143.53 114.45 142.64 113.56 142.43 Z M 113.74 142.84 L 113.62 142.69 C 113.05 141.96 112.00 141.82 111.27 142.39 C 110.54 142.95 110.40 144.01 110.97 144.74 L 111.08 144.89 C 111.65 145.62 112.70 145.76 113.44 145.19 C 114.17 144.62 114.30 143.57 113.74 142.84 Z M 112.61 145.37 L 113.24 145.25 C 114.15 145.07 114.75 144.19 114.58 143.28 C 114.40 142.36 113.52 141.76 112.60 141.94 L 111.98 142.06 C 111.06 142.23 110.46 143.11 110.64 144.03 C 110.81 144.94 111.69 145.54 112.61 145.37 Z M 113.06 145.28 L 114.18 145.19 C 115.12 145.11 115.81 144.29 115.74 143.36 C 115.66 142.42 114.84 141.73 113.90 141.81 L 112.78 141.90 C 111.85 141.98 111.15 142.80 111.23 143.73 C 111.31 144.67 112.13 145.36 113.06 145.28 Z M 114.15 145.20 L 115.46 145.13 C 116.40 145.07 117.12 144.26 117.06 143.32 C 117.00 142.38 116.20 141.66 115.25 141.72 L 113.94 141.79 C 113.00 141.85 112.28 142.66 112.34 143.60 C 112.39 144.54 113.20 145.26 114.15 145.20 Z M 115.46 145.13 L 116.65 145.06 C 117.59 145.00 118.31 144.19 118.25 143.24 C 118.20 142.30 117.38 141.58 116.44 141.64 L 115.25 141.71 C 114.31 141.77 113.59 142.58 113.64 143.52 C 113.70 144.47 114.51 145.19 115.46 145.13 Z M 116.67 145.06 L 117.69 144.99 C 118.64 144.92 119.35 144.10 119.28 143.15 C 119.21 142.20 118.39 141.49 117.44 141.56 L 116.42 141.64 C 115.47 141.71 114.76 142.53 114.83 143.47 C 114.90 144.42 115.72 145.13 116.67 145.06 Z M 117.72 144.99 L 118.66 144.90 C 119.61 144.82 120.30 143.99 120.22 143.04 C 120.14 142.10 119.30 141.40 118.36 141.48 L 117.42 141.56 C 116.47 141.65 115.77 142.48 115.86 143.43 C 115.94 144.37 116.77 145.07 117.72 144.99 Z M 118.69 144.90 L 119.61 144.80 C 120.56 144.70 121.24 143.86 121.14 142.92 C 121.04 141.97 120.20 141.29 119.25 141.39 L 118.33 141.48 C 117.39 141.58 116.70 142.43 116.80 143.37 C 116.90 144.31 117.74 145.00 118.69 144.90 Z M 119.64 144.80 L 120.57 144.69 C 121.51 144.58 122.19 143.72 122.07 142.78 C 121.96 141.84 121.11 141.16 120.16 141.28 L 119.23 141.39 C 118.29 141.50 117.61 142.35 117.73 143.30 C 117.84 144.24 118.69 144.91 119.64 144.80 Z M 120.59 144.69 L 121.56 144.56 C 122.50 144.44 123.17 143.58 123.04 142.64 C 122.92 141.69 122.06 141.03 121.12 141.15 L 120.14 141.28 C 119.20 141.40 118.54 142.26 118.66 143.21 C 118.78 144.15 119.65 144.81 120.59 144.69 Z M 121.57 144.56 L 122.59 144.42 C 123.53 144.29 124.19 143.42 124.06 142.48 C 123.93 141.54 123.06 140.88 122.12 141.01 L 121.10 141.15 C 120.16 141.28 119.50 142.15 119.63 143.09 C 119.76 144.03 120.63 144.69 121.57 144.56 Z M 122.60 144.42 L 123.63 144.27 C 124.57 144.14 125.23 143.26 125.09 142.32 C 124.96 141.38 124.09 140.73 123.15 140.86 L 122.11 141.01 C 121.17 141.15 120.51 142.02 120.65 142.96 C 120.78 143.90 121.66 144.56 122.60 144.42 Z M 123.64 144.27 L 124.59 144.13 C 125.53 143.99 126.18 143.12 126.04 142.18 C 125.90 141.24 125.03 140.59 124.08 140.73 L 123.14 140.86 C 122.20 141.00 121.55 141.88 121.69 142.82 C 121.82 143.76 122.70 144.41 123.64 144.27 Z M 124.59 144.13 L 125.56 143.99 C 126.50 143.85 127.15 142.97 127.01 142.03 C 126.87 141.09 125.99 140.44 125.05 140.58 L 124.08 140.73 C 123.14 140.87 122.49 141.74 122.63 142.68 C 122.77 143.63 123.65 144.27 124.59 144.13 Z M 125.57 143.99 L 126.57 143.83 C 127.51 143.69 128.15 142.81 128.01 141.87 C 127.87 140.93 126.99 140.28 126.05 140.43 L 125.05 140.58 C 124.11 140.72 123.46 141.60 123.60 142.54 C 123.75 143.48 124.63 144.13 125.57 143.99 Z M 126.57 143.83 L 127.60 143.67 C 128.54 143.53 129.18 142.65 129.04 141.71 C 128.89 140.77 128.01 140.12 127.07 140.27 L 126.04 140.43 C 125.10 140.57 124.46 141.45 124.60 142.40 C 124.75 143.34 125.63 143.98 126.57 143.83 Z M 127.60 143.67 L 128.58 143.52 C 129.52 143.37 130.16 142.49 130.01 141.55 C 129.86 140.61 128.98 139.97 128.04 140.12 L 127.06 140.27 C 126.12 140.42 125.48 141.30 125.63 142.24 C 125.78 143.18 126.66 143.82 127.60 143.67 Z M 128.58 143.52 L 129.54 143.36 C 130.48 143.21 131.12 142.33 130.97 141.39 C 130.82 140.45 129.93 139.81 128.99 139.96 L 128.03 140.12 C 127.09 140.27 126.45 141.15 126.61 142.09 C 126.76 143.03 127.64 143.67 128.58 143.52 Z M 129.55 143.36 L 130.54 143.20 C 131.47 143.04 132.11 142.15 131.95 141.21 C 131.79 140.27 130.90 139.64 129.97 139.80 L 128.98 139.96 C 128.05 140.12 127.41 141.01 127.57 141.95 C 127.73 142.89 128.62 143.52 129.55 143.36 Z M 130.55 143.20 L 131.55 143.02 C 132.49 142.86 133.11 141.96 132.95 141.02 C 132.78 140.09 131.89 139.46 130.95 139.62 L 129.95 139.80 C 129.01 139.97 128.39 140.86 128.55 141.80 C 128.72 142.73 129.61 143.36 130.55 143.20 Z M 131.57 143.02 L 132.58 142.83 C 133.52 142.66 134.14 141.76 133.96 140.82 C 133.79 139.88 132.89 139.26 131.95 139.44 L 130.94 139.63 C 130.00 139.80 129.38 140.70 129.55 141.64 C 129.73 142.57 130.63 143.19 131.57 143.02 Z M 132.60 142.83 L 133.57 142.64 C 134.50 142.45 135.11 141.54 134.92 140.61 C 134.74 139.68 133.83 139.07 132.90 139.25 L 131.93 139.44 C 131.00 139.63 130.39 140.53 130.58 141.47 C 130.76 142.40 131.67 143.01 132.60 142.83 Z M 133.58 142.63 L 134.54 142.43 C 135.47 142.24 136.07 141.33 135.88 140.40 C 135.68 139.46 134.77 138.86 133.84 139.06 L 132.88 139.25 C 131.95 139.45 131.35 140.36 131.54 141.29 C 131.74 142.23 132.65 142.83 133.58 142.63 Z M 134.55 142.43 L 135.52 142.22 C 136.45 142.02 137.04 141.11 136.84 140.17 C 136.64 139.24 135.72 138.65 134.79 138.85 L 133.82 139.06 C 132.89 139.26 132.30 140.18 132.50 141.11 C 132.70 142.04 133.62 142.63 134.55 142.43 Z M 135.53 142.22 L 136.51 142.00 C 137.44 141.80 138.03 140.88 137.82 139.95 C 137.62 139.02 136.70 138.43 135.77 138.64 L 134.78 138.85 C 133.85 139.06 133.27 139.98 133.47 140.91 C 133.68 141.84 134.60 142.43 135.53 142.22 Z M 136.52 142.00 L 137.52 141.78 C 138.45 141.57 139.03 140.65 138.82 139.72 C 138.62 138.79 137.69 138.20 136.76 138.41 L 135.76 138.64 C 134.83 138.85 134.25 139.77 134.46 140.70 C 134.67 141.63 135.59 142.21 136.52 142.00 Z M 137.52 141.78 L 138.52 141.55 C 139.45 141.34 140.03 140.42 139.82 139.49 C 139.61 138.56 138.69 137.98 137.76 138.19 L 136.76 138.41 C 135.83 138.62 135.25 139.55 135.46 140.48 C 135.67 141.40 136.59 141.99 137.52 141.78 Z M 138.52 141.55 L 139.48 141.34 C 140.41 141.12 140.99 140.20 140.78 139.27 C 140.57 138.34 139.64 137.76 138.71 137.97 L 137.75 138.19 C 136.83 138.40 136.24 139.32 136.45 140.25 C 136.67 141.18 137.59 141.76 138.52 141.55 Z M 139.48 141.33 L 140.45 141.11 C 141.38 140.90 141.96 139.97 141.75 139.04 C 141.53 138.12 140.61 137.54 139.68 137.75 L 138.71 137.97 C 137.78 138.18 137.20 139.11 137.41 140.04 C 137.63 140.97 138.55 141.55 139.48 141.33 Z M 140.46 141.11 L 141.43 140.88 C 142.36 140.67 142.94 139.74 142.72 138.81 C 142.51 137.88 141.58 137.31 140.65 137.52 L 139.67 137.75 C 138.75 137.97 138.17 138.89 138.38 139.82 C 138.60 140.75 139.53 141.33 140.46 141.11 Z M 141.44 140.88 L 142.42 140.65 C 143.35 140.43 143.92 139.50 143.70 138.57 C 143.48 137.64 142.55 137.07 141.62 137.29 L 140.64 137.52 C 139.72 137.75 139.14 138.68 139.36 139.60 C 139.58 140.53 140.51 141.10 141.44 140.88 Z M 142.43 140.65 L 143.42 140.40 C 144.34 140.18 144.91 139.24 144.68 138.32 C 144.46 137.39 143.52 136.83 142.60 137.05 L 141.61 137.29 C 140.69 137.52 140.12 138.45 140.35 139.38 C 140.57 140.30 141.51 140.87 142.43 140.65 Z M 143.43 140.40 L 144.40 140.16 C 145.32 139.92 145.88 138.99 145.65 138.06 C 145.42 137.14 144.48 136.58 143.56 136.81 L 142.58 137.06 C 141.66 137.29 141.10 138.23 141.33 139.15 C 141.57 140.07 142.50 140.63 143.43 140.40 Z M 144.41 140.15 L 145.37 139.90 C 146.29 139.66 146.85 138.72 146.61 137.80 C 146.37 136.88 145.42 136.32 144.50 136.56 L 143.54 136.81 C 142.62 137.05 142.07 138.00 142.31 138.92 C 142.55 139.84 143.49 140.39 144.41 140.15 Z M 145.38 139.90 L 146.34 139.64 C 147.26 139.40 147.81 138.45 147.56 137.53 C 147.31 136.61 146.37 136.06 145.45 136.31 L 144.49 136.57 C 143.57 136.81 143.02 137.76 143.27 138.68 C 143.52 139.60 144.46 140.15 145.38 139.90 Z M 146.35 139.64 L 147.31 139.38 C 148.23 139.12 148.77 138.17 148.52 137.25 C 148.26 136.34 147.32 135.80 146.40 136.05 L 145.44 136.31 C 144.52 136.57 143.98 137.52 144.23 138.43 C 144.48 139.35 145.43 139.89 146.35 139.64 Z M 147.32 139.37 L 148.29 139.10 C 149.20 138.84 149.74 137.89 149.48 136.97 C 149.22 136.06 148.27 135.52 147.35 135.78 L 146.39 136.05 C 145.47 136.31 144.94 137.26 145.20 138.18 C 145.45 139.10 146.41 139.63 147.32 139.37 Z M 148.30 139.10 L 149.27 138.82 C 150.18 138.56 150.71 137.60 150.45 136.68 C 150.19 135.77 149.23 135.24 148.32 135.50 L 147.34 135.78 C 146.43 136.05 145.90 137.00 146.16 137.92 C 146.43 138.83 147.38 139.36 148.30 139.10 Z M 149.28 138.82 L 150.23 138.54 C 151.15 138.27 151.67 137.31 151.40 136.40 C 151.14 135.48 150.18 134.96 149.27 135.23 L 148.31 135.51 C 147.40 135.77 146.87 136.73 147.14 137.64 C 147.40 138.56 148.36 139.08 149.28 138.82 Z M 150.24 138.54 L 151.17 138.26 C 152.09 137.99 152.61 137.03 152.34 136.12 C 152.07 135.20 151.11 134.68 150.19 134.95 L 149.26 135.23 C 148.35 135.50 147.83 136.46 148.10 137.37 C 148.37 138.28 149.33 138.81 150.24 138.54 Z M 151.18 138.26 L 152.12 137.97 C 153.04 137.70 153.55 136.74 153.28 135.83 C 153.01 134.92 152.05 134.40 151.13 134.67 L 150.19 134.95 C 149.28 135.23 148.76 136.19 149.03 137.10 C 149.31 138.01 150.27 138.53 151.18 138.26 Z M 152.13 137.97 L 153.08 137.68 C 153.99 137.41 154.51 136.44 154.23 135.53 C 153.96 134.62 152.99 134.11 152.08 134.38 L 151.13 134.67 C 150.22 134.95 149.70 135.91 149.98 136.82 C 150.26 137.73 151.22 138.25 152.13 137.97 Z M 153.09 137.68 L 154.05 137.38 C 154.96 137.10 155.47 136.14 155.19 135.23 C 154.92 134.32 153.95 133.81 153.04 134.09 L 152.08 134.38 C 151.17 134.66 150.66 135.63 150.93 136.54 C 151.21 137.45 152.18 137.96 153.09 137.68 Z M 154.06 137.38 L 155.03 137.08 C 155.94 136.80 156.45 135.83 156.17 134.92 C 155.88 134.01 154.92 133.51 154.01 133.79 L 153.04 134.09 C 152.13 134.37 151.62 135.34 151.90 136.25 C 152.18 137.16 153.15 137.67 154.06 137.38 Z M 155.04 137.08 L 156.02 136.77 C 156.92 136.49 157.43 135.52 157.14 134.61 C 156.86 133.70 155.89 133.20 154.98 133.48 L 154.00 133.79 C 153.10 134.07 152.59 135.04 152.88 135.95 C 153.16 136.86 154.13 137.36 155.04 137.08 Z M 156.02 136.77 L 156.95 136.47 C 157.85 136.19 158.36 135.22 158.07 134.31 C 157.78 133.40 156.81 132.90 155.90 133.19 L 154.98 133.48 C 154.07 133.77 153.57 134.74 153.86 135.65 C 154.14 136.56 155.11 137.06 156.02 136.77 Z M 156.95 136.47 L 157.89 136.17 C 158.79 135.88 159.29 134.91 159.00 134.01 C 158.71 133.10 157.74 132.60 156.83 132.89 L 155.90 133.19 C 154.99 133.48 154.49 134.45 154.78 135.36 C 155.08 136.26 156.05 136.76 156.95 136.47 Z M 157.89 136.17 L 158.84 135.87 C 159.74 135.57 160.24 134.60 159.94 133.70 C 159.65 132.79 158.68 132.29 157.77 132.59 L 156.83 132.89 C 155.92 133.19 155.43 134.16 155.72 135.06 C 156.01 135.97 156.99 136.46 157.89 136.17 Z M 158.84 135.86 L 159.79 135.55 C 160.70 135.26 161.19 134.28 160.89 133.38 C 160.60 132.47 159.62 131.98 158.72 132.28 L 157.77 132.59 C 156.86 132.88 156.37 133.86 156.67 134.76 C 156.96 135.67 157.94 136.16 158.84 135.86 Z M 159.80 135.55 L 160.76 135.23 C 161.66 134.94 162.15 133.96 161.85 133.06 C 161.55 132.15 160.58 131.66 159.68 131.96 L 158.72 132.28 C 157.81 132.58 157.32 133.55 157.62 134.45 C 157.92 135.36 158.89 135.85 159.80 135.55 Z M 160.76 135.23 L 161.73 134.91 C 162.63 134.61 163.12 133.63 162.82 132.73 C 162.52 131.83 161.54 131.34 160.64 131.64 L 159.67 131.96 C 158.77 132.26 158.28 133.24 158.58 134.14 C 158.88 135.04 159.86 135.53 160.76 135.23 Z M 161.73 134.91 L 162.70 134.58 C 163.60 134.28 164.09 133.30 163.78 132.40 C 163.48 131.50 162.50 131.02 161.60 131.32 L 160.64 131.64 C 159.74 131.95 159.25 132.92 159.55 133.82 C 159.86 134.72 160.83 135.21 161.73 134.91 Z M 162.70 134.58 L 163.64 134.26 C 164.54 133.96 165.02 132.98 164.72 132.08 C 164.41 131.18 163.44 130.70 162.54 131.00 L 161.60 131.32 C 160.70 131.62 160.22 132.60 160.52 133.50 C 160.82 134.40 161.80 134.89 162.70 134.58 Z M 163.64 134.26 L 164.58 133.94 C 165.48 133.64 165.97 132.66 165.66 131.76 C 165.35 130.86 164.37 130.38 163.48 130.68 L 162.53 131.00 C 161.63 131.31 161.15 132.29 161.46 133.19 C 161.76 134.09 162.74 134.57 163.64 134.26 Z M 164.59 133.94 L 165.53 133.62 C 166.43 133.31 166.91 132.33 166.61 131.43 C 166.30 130.53 165.32 130.05 164.42 130.36 L 163.47 130.68 C 162.57 130.99 162.09 131.97 162.40 132.87 C 162.71 133.77 163.69 134.25 164.59 133.94 Z M 165.53 133.62 L 166.48 133.29 C 167.38 132.98 167.86 132.01 167.55 131.11 C 167.25 130.21 166.27 129.73 165.37 130.04 L 164.42 130.36 C 163.52 130.67 163.04 131.65 163.35 132.55 C 163.66 133.45 164.63 133.93 165.53 133.62 Z M 166.48 133.29 L 167.44 132.97 C 168.33 132.66 168.81 131.68 168.51 130.78 C 168.20 129.88 167.22 129.40 166.32 129.71 L 165.37 130.04 C 164.47 130.34 163.99 131.32 164.30 132.22 C 164.61 133.12 165.58 133.60 166.48 133.29 Z M 167.43 132.97 L 168.39 132.64 C 169.29 132.33 169.76 131.36 169.46 130.46 C 169.15 129.56 168.17 129.08 167.27 129.39 L 166.32 129.71 C 165.42 130.02 164.94 131.00 165.25 131.89 C 165.56 132.79 166.54 133.27 167.43 132.97 Z M 168.38 132.64 L 169.33 132.32 C 170.23 132.01 170.71 131.03 170.41 130.14 C 170.10 129.24 169.13 128.76 168.23 129.06 L 167.28 129.39 C 166.38 129.69 165.90 130.67 166.20 131.57 C 166.51 132.47 167.48 132.95 168.38 132.64 Z M 169.33 132.32 L 170.28 132.00 C 171.18 131.69 171.66 130.72 171.35 129.82 C 171.05 128.92 170.07 128.44 169.17 128.74 L 168.23 129.06 C 167.33 129.37 166.85 130.34 167.15 131.24 C 167.46 132.14 168.43 132.62 169.33 132.32 Z M 170.28 132.00 L 171.22 131.68 C 172.12 131.38 172.60 130.40 172.30 129.50 C 171.99 128.60 171.02 128.12 170.12 128.42 L 169.18 128.74 C 168.28 129.04 167.79 130.02 168.10 130.92 C 168.40 131.82 169.38 132.30 170.28 132.00 Z M 171.22 131.68 L 172.16 131.36 C 173.06 131.06 173.55 130.08 173.24 129.18 C 172.94 128.28 171.96 127.80 171.06 128.10 L 170.12 128.42 C 169.22 128.73 168.74 129.70 169.04 130.60 C 169.34 131.50 170.32 131.98 171.22 131.68 Z M 172.16 131.36 L 173.11 131.04 C 174.01 130.74 174.49 129.76 174.19 128.86 C 173.88 127.96 172.91 127.48 172.01 127.78 L 171.06 128.10 C 170.16 128.41 169.68 129.38 169.99 130.28 C 170.29 131.18 171.27 131.66 172.16 131.36 Z M 173.11 131.04 L 174.06 130.72 C 174.96 130.41 175.44 129.44 175.13 128.54 C 174.83 127.64 173.85 127.16 172.95 127.46 L 172.01 127.78 C 171.11 128.09 170.63 129.07 170.93 129.96 C 171.24 130.86 172.21 131.35 173.11 131.04 Z M 174.06 130.72 L 175.01 130.39 C 175.91 130.09 176.39 129.11 176.08 128.21 C 175.77 127.31 174.80 126.83 173.90 127.14 L 172.95 127.46 C 172.05 127.77 171.57 128.75 171.88 129.65 C 172.18 130.54 173.16 131.02 174.06 130.72 Z M 175.01 130.39 L 175.97 130.06 C 176.86 129.75 177.34 128.78 177.03 127.88 C 176.72 126.98 175.75 126.50 174.85 126.81 L 173.89 127.14 C 173.00 127.45 172.52 128.43 172.83 129.33 C 173.14 130.22 174.12 130.70 175.01 130.39 Z M 175.97 130.06 L 176.95 129.72 C 177.84 129.41 178.32 128.43 178.00 127.54 C 177.69 126.64 176.71 126.17 175.82 126.48 L 174.84 126.82 C 173.95 127.13 173.47 128.11 173.78 129.00 C 174.10 129.90 175.07 130.37 175.97 130.06 Z M 176.95 129.72 L 177.93 129.38 C 178.82 129.07 179.29 128.09 178.98 127.19 C 178.67 126.29 177.69 125.82 176.79 126.14 L 175.81 126.48 C 174.92 126.79 174.45 127.77 174.76 128.67 C 175.07 129.56 176.05 130.04 176.95 129.72 Z M 177.93 129.38 L 178.90 129.04 C 179.79 128.72 180.26 127.74 179.95 126.85 C 179.63 125.95 178.65 125.48 177.76 125.80 L 176.79 126.14 C 175.89 126.45 175.42 127.43 175.74 128.33 C 176.05 129.22 177.03 129.69 177.93 129.38 Z M 178.90 129.04 L 179.86 128.70 C 180.75 128.38 181.22 127.40 180.91 126.51 C 180.59 125.61 179.61 125.14 178.71 125.46 L 177.76 125.80 C 176.86 126.11 176.39 127.09 176.71 127.99 C 177.02 128.88 178.00 129.35 178.90 129.04 Z M 179.86 128.70 L 180.80 128.37 C 181.69 128.05 182.16 127.07 181.85 126.18 C 181.53 125.28 180.55 124.81 179.65 125.13 L 178.71 125.46 C 177.82 125.77 177.35 126.76 177.66 127.65 C 177.98 128.55 178.96 129.02 179.86 128.70 Z M 180.80 128.37 L 181.71 128.05 C 182.61 127.73 183.08 126.75 182.76 125.85 C 182.45 124.96 181.47 124.49 180.57 124.80 L 179.65 125.13 C 178.76 125.44 178.29 126.42 178.60 127.32 C 178.92 128.21 179.90 128.68 180.80 128.37 Z M 181.71 128.05 L 182.59 127.74 C 183.49 127.43 183.96 126.44 183.65 125.55 C 183.34 124.65 182.35 124.18 181.46 124.49 L 180.57 124.80 C 179.68 125.12 179.20 126.10 179.52 126.99 C 179.83 127.89 180.81 128.36 181.71 128.05 Z M 182.59 127.74 L 183.62 127.38 C 184.51 127.07 184.99 126.09 184.68 125.20 C 184.37 124.30 183.39 123.82 182.49 124.13 L 181.46 124.49 C 180.57 124.80 180.09 125.78 180.40 126.68 C 180.71 127.58 181.69 128.05 182.59 127.74 Z M 183.61 127.39 L 184.62 127.04 C 185.52 126.73 186.00 125.75 185.69 124.85 C 185.38 123.96 184.40 123.48 183.50 123.79 L 182.50 124.13 C 181.60 124.44 181.12 125.42 181.43 126.32 C 181.74 127.22 182.71 127.69 183.61 127.39 Z M 184.62 127.04 L 185.58 126.71 C 186.48 126.40 186.96 125.43 186.65 124.53 C 186.34 123.63 185.36 123.15 184.47 123.46 L 183.51 123.79 C 182.61 124.09 182.13 125.07 182.44 125.97 C 182.74 126.87 183.72 127.35 184.62 127.04 Z M 185.58 126.71 L 186.50 126.40 C 187.39 126.09 187.87 125.11 187.56 124.21 C 187.26 123.32 186.28 122.84 185.38 123.15 L 184.47 123.46 C 183.57 123.77 183.09 124.74 183.40 125.64 C 183.70 126.54 184.68 127.02 185.58 126.71 Z M 186.50 126.40 L 187.38 126.09 C 188.27 125.78 188.75 124.81 188.44 123.91 C 188.13 123.01 187.15 122.54 186.26 122.84 L 185.38 123.15 C 184.48 123.46 184.01 124.43 184.32 125.33 C 184.62 126.23 185.60 126.70 186.50 126.40 Z M 187.38 126.09 L 188.26 125.78 C 189.15 125.47 189.62 124.49 189.31 123.60 C 189.00 122.70 188.02 122.23 187.12 122.54 L 186.25 122.85 C 185.35 123.16 184.88 124.14 185.20 125.04 C 185.51 125.93 186.49 126.40 187.38 126.09 Z M 188.27 125.78 L 189.20 125.44 C 190.10 125.13 190.56 124.14 190.24 123.25 C 189.92 122.36 188.94 121.89 188.05 122.21 L 187.11 122.55 C 186.22 122.87 185.75 123.85 186.07 124.74 C 186.39 125.63 187.37 126.10 188.27 125.78 Z M 189.21 125.44 L 190.13 125.11 C 191.02 124.79 191.49 123.81 191.16 122.92 C 190.84 122.02 189.86 121.56 188.97 121.88 L 188.05 122.21 C 187.15 122.53 186.69 123.52 187.01 124.41 C 187.33 125.30 188.32 125.76 189.21 125.44 Z M 190.13 125.11 L 191.06 124.78 C 191.95 124.46 192.41 123.48 192.09 122.59 C 191.77 121.69 190.79 121.23 189.90 121.55 L 188.97 121.88 C 188.08 122.20 187.62 123.18 187.93 124.07 C 188.25 124.97 189.24 125.43 190.13 125.11 Z M 191.04 124.78 L 192.00 124.45 C 192.89 124.14 193.36 123.16 193.05 122.26 C 192.73 121.37 191.75 120.90 190.86 121.21 L 189.91 121.55 C 189.02 121.86 188.55 122.84 188.86 123.73 C 189.17 124.63 190.15 125.10 191.04 124.78 Z M 191.98 124.45 L 192.96 124.12 C 193.85 123.82 194.33 122.84 194.03 121.95 C 193.72 121.05 192.75 120.57 191.85 120.88 L 190.88 121.21 C 189.98 121.51 189.50 122.49 189.80 123.38 C 190.11 124.28 191.08 124.76 191.98 124.45 Z M 192.94 124.13 L 193.92 123.81 C 194.82 123.51 195.31 122.54 195.02 121.64 C 194.72 120.74 193.75 120.25 192.86 120.55 L 191.87 120.87 C 190.97 121.16 190.48 122.13 190.78 123.03 C 191.07 123.93 192.04 124.42 192.94 124.13 Z M 193.90 123.81 L 194.90 123.50 C 195.80 123.22 196.30 122.25 196.02 121.35 C 195.74 120.45 194.77 119.95 193.87 120.23 L 192.87 120.54 C 191.97 120.83 191.47 121.79 191.75 122.69 C 192.04 123.59 193.00 124.10 193.90 123.81 Z M 194.87 123.51 L 195.86 123.21 C 196.76 122.94 197.28 121.99 197.01 121.08 C 196.74 120.17 195.78 119.66 194.87 119.93 L 193.89 120.22 C 192.99 120.49 192.47 121.45 192.74 122.35 C 193.01 123.26 193.97 123.78 194.87 123.51 Z M 195.83 123.22 L 196.76 122.96 C 197.67 122.70 198.21 121.76 197.95 120.85 C 197.70 119.94 196.75 119.40 195.84 119.66 L 194.90 119.92 C 193.99 120.18 193.46 121.12 193.71 122.03 C 193.97 122.94 194.92 123.48 195.83 123.22 Z M 196.72 122.97 L 197.70 122.72 C 198.62 122.49 199.18 121.56 198.94 120.64 C 198.71 119.72 197.78 119.17 196.86 119.40 L 195.88 119.65 C 194.96 119.88 194.41 120.81 194.64 121.73 C 194.87 122.65 195.80 123.20 196.72 122.97 Z M 197.59 122.75 L 198.83 122.53 C 199.76 122.35 200.38 121.46 200.21 120.53 C 200.04 119.59 199.14 118.98 198.21 119.15 L 196.97 119.37 C 196.04 119.54 195.42 120.44 195.59 121.37 C 195.76 122.30 196.66 122.92 197.59 122.75 Z M 198.45 122.56 L 199.34 122.59 C 200.29 122.63 201.09 121.88 201.13 120.93 C 201.16 119.98 200.42 119.18 199.47 119.15 L 198.58 119.11 C 197.63 119.08 196.83 119.82 196.79 120.77 C 196.76 121.72 197.50 122.52 198.45 122.56 Z M 198.36 122.25 L 198.85 122.62 C 199.61 123.19 200.69 123.05 201.27 122.29 C 201.85 121.52 201.70 120.44 200.94 119.86 L 200.45 119.49 C 199.69 118.91 198.61 119.06 198.03 119.82 C 197.45 120.58 197.60 121.67 198.36 122.25 Z M 198.17 121.51 L 198.28 122.18 C 198.43 123.13 199.32 123.78 200.27 123.63 C 201.22 123.48 201.87 122.60 201.72 121.65 L 201.61 120.97 C 201.46 120.02 200.57 119.37 199.62 119.52 C 198.67 119.67 198.03 120.56 198.17 121.51 Z M 198.27 121.64 L 198.11 122.63 C 197.96 123.59 198.61 124.48 199.57 124.63 C 200.52 124.78 201.42 124.13 201.57 123.18 L 201.73 122.19 C 201.88 121.24 201.23 120.34 200.27 120.19 C 199.32 120.04 198.42 120.69 198.27 121.64 Z M 198.14 122.44 L 197.79 123.73 C 197.54 124.66 198.09 125.63 199.03 125.89 C 199.96 126.15 200.93 125.59 201.19 124.66 L 201.54 123.37 C 201.80 122.43 201.24 121.46 200.31 121.21 C 199.37 120.95 198.40 121.50 198.14 122.44 Z M 197.80 123.67 L 197.52 124.58 C 197.24 125.51 197.76 126.50 198.70 126.78 C 199.63 127.07 200.62 126.54 200.90 125.61 L 201.18 124.71 C 201.46 123.78 200.94 122.79 200.01 122.50 C 199.07 122.22 198.09 122.74 197.80 123.67 Z M 197.53 124.56 L 197.24 125.47 C 196.94 126.40 197.46 127.39 198.39 127.69 C 199.32 127.98 200.32 127.47 200.61 126.54 L 200.90 125.63 C 201.20 124.70 200.68 123.70 199.75 123.41 C 198.82 123.11 197.82 123.63 197.53 124.56 Z M 197.24 125.46 L 196.93 126.42 C 196.63 127.35 197.14 128.34 198.07 128.65 C 199.00 128.95 200.00 128.44 200.30 127.51 L 200.61 126.55 C 200.91 125.62 200.40 124.62 199.47 124.32 C 198.54 124.02 197.54 124.53 197.24 125.46 Z M 196.93 126.41 L 196.60 127.39 C 196.30 128.32 196.80 129.33 197.73 129.63 C 198.66 129.94 199.66 129.44 199.97 128.51 L 200.30 127.52 C 200.60 126.59 200.10 125.59 199.17 125.28 C 198.24 124.97 197.24 125.48 196.93 126.41 Z M 196.60 127.39 L 196.27 128.38 C 195.96 129.31 196.46 130.32 197.39 130.63 C 198.32 130.94 199.32 130.44 199.63 129.51 L 199.97 128.52 C 200.28 127.59 199.78 126.58 198.85 126.27 C 197.92 125.96 196.92 126.46 196.60 127.39 Z M 196.27 128.38 L 195.93 129.37 C 195.62 130.30 196.12 131.30 197.05 131.62 C 197.97 131.94 198.98 131.44 199.30 130.51 L 199.63 129.52 C 199.95 128.59 199.45 127.58 198.52 127.27 C 197.59 126.95 196.58 127.45 196.27 128.38 Z M 195.93 129.36 L 195.60 130.34 C 195.28 131.26 195.78 132.27 196.71 132.59 C 197.64 132.91 198.65 132.41 198.96 131.48 L 199.30 130.51 C 199.61 129.58 199.12 128.57 198.19 128.26 C 197.26 127.94 196.25 128.43 195.93 129.36 Z M 195.60 130.33 L 195.28 131.28 C 194.96 132.21 195.45 133.22 196.38 133.54 C 197.31 133.86 198.32 133.37 198.64 132.44 L 198.96 131.49 C 199.28 130.56 198.79 129.55 197.86 129.23 C 196.93 128.91 195.92 129.41 195.60 130.33 Z M 195.28 131.28 L 194.96 132.22 C 194.64 133.15 195.13 134.16 196.06 134.48 C 196.99 134.80 198.00 134.30 198.32 133.37 L 198.64 132.44 C 198.96 131.51 198.46 130.50 197.53 130.18 C 196.60 129.86 195.59 130.36 195.28 131.28 Z M 194.95 132.23 L 194.64 133.16 C 194.32 134.09 194.82 135.10 195.75 135.41 C 196.68 135.73 197.69 135.23 198.00 134.30 L 198.32 133.37 C 198.63 132.44 198.14 131.43 197.21 131.12 C 196.28 130.80 195.27 131.30 194.95 132.23 Z M 194.63 133.17 L 194.32 134.11 C 194.01 135.04 194.51 136.04 195.44 136.36 C 196.37 136.67 197.38 136.17 197.69 135.24 L 198.00 134.30 C 198.32 133.37 197.81 132.36 196.88 132.05 C 195.95 131.74 194.95 132.24 194.63 133.17 Z M 194.32 134.12 L 194.00 135.07 C 193.70 136.00 194.20 137.01 195.14 137.31 C 196.07 137.62 197.07 137.11 197.38 136.18 L 197.69 135.23 C 198.00 134.29 197.49 133.29 196.56 132.98 C 195.63 132.68 194.62 133.18 194.32 134.12 Z M 194.00 135.08 L 193.67 136.09 C 193.37 137.03 193.89 138.03 194.82 138.33 C 195.76 138.63 196.76 138.11 197.06 137.18 L 197.38 136.17 C 197.68 135.23 197.17 134.23 196.23 133.93 C 195.30 133.63 194.30 134.15 194.00 135.08 Z M 193.67 136.10 L 193.35 137.12 C 193.06 138.05 193.58 139.05 194.51 139.34 C 195.45 139.64 196.45 139.12 196.74 138.18 L 197.06 137.17 C 197.35 136.23 196.84 135.24 195.90 134.94 C 194.96 134.65 193.97 135.17 193.67 136.10 Z M 193.35 137.12 L 193.04 138.12 C 192.75 139.06 193.28 140.05 194.21 140.34 C 195.15 140.63 196.15 140.11 196.44 139.17 L 196.74 138.17 C 197.03 137.24 196.51 136.24 195.57 135.95 C 194.63 135.66 193.64 136.19 193.35 137.12 Z M 193.04 138.13 L 192.75 139.08 C 192.46 140.02 192.99 141.01 193.93 141.30 C 194.87 141.58 195.86 141.05 196.15 140.11 L 196.44 139.16 C 196.72 138.22 196.19 137.23 195.26 136.94 C 194.32 136.66 193.33 137.19 193.04 138.13 Z M 192.75 139.09 L 192.48 139.98 C 192.20 140.92 192.73 141.91 193.67 142.19 C 194.61 142.47 195.60 141.94 195.88 141.00 L 196.15 140.11 C 196.43 139.17 195.90 138.18 194.96 137.89 C 194.02 137.61 193.03 138.15 192.75 139.09 Z M 192.48 139.98 L 192.20 140.94 C 191.92 141.88 192.46 142.87 193.40 143.15 C 194.34 143.42 195.33 142.89 195.60 141.94 L 195.89 140.99 C 196.16 140.05 195.62 139.06 194.68 138.78 C 193.74 138.51 192.76 139.04 192.48 139.98 Z M 192.20 140.95 L 191.89 142.02 C 191.62 142.96 192.16 143.94 193.11 144.21 C 194.05 144.48 195.03 143.94 195.30 143.00 L 195.61 141.93 C 195.88 140.99 195.33 140.01 194.39 139.74 C 193.45 139.47 192.47 140.01 192.20 140.95 Z M 191.89 142.04 L 191.63 142.96 C 191.37 143.90 191.92 144.88 192.87 145.14 C 193.81 145.40 194.79 144.85 195.05 143.90 L 195.30 142.98 C 195.56 142.04 195.01 141.06 194.07 140.80 C 193.12 140.54 192.15 141.09 191.89 142.04 Z M 191.63 142.97 L 191.40 143.82 C 191.15 144.77 191.71 145.74 192.66 145.99 C 193.60 146.24 194.57 145.68 194.82 144.74 L 195.05 143.89 C 195.30 142.94 194.74 141.97 193.80 141.72 C 192.85 141.47 191.88 142.03 191.63 142.97 Z M 191.40 143.84 L 191.16 144.76 C 190.92 145.71 191.48 146.67 192.43 146.92 C 193.37 147.16 194.34 146.59 194.58 145.65 L 194.82 144.72 C 195.07 143.78 194.50 142.81 193.56 142.57 C 192.61 142.32 191.65 142.89 191.40 143.84 Z M 191.16 144.76 L 190.91 145.73 C 190.67 146.68 191.24 147.64 192.18 147.88 C 193.13 148.13 194.09 147.56 194.33 146.62 L 194.58 145.65 C 194.83 144.70 194.26 143.74 193.31 143.50 C 192.37 143.25 191.41 143.82 191.16 144.76 Z M 190.92 145.72 L 190.66 146.70 C 190.41 147.64 190.97 148.60 191.92 148.85 C 192.86 149.10 193.82 148.54 194.07 147.60 L 194.33 146.62 C 194.58 145.68 194.01 144.72 193.07 144.47 C 192.13 144.22 191.17 144.78 190.92 145.72 Z M 190.67 146.68 L 190.40 147.65 C 190.14 148.58 190.69 149.55 191.63 149.81 C 192.57 150.07 193.54 149.52 193.80 148.59 L 194.06 147.62 C 194.32 146.68 193.77 145.71 192.84 145.45 C 191.90 145.19 190.93 145.74 190.67 146.68 Z M 190.41 147.63 L 190.13 148.59 C 189.86 149.52 190.40 150.50 191.33 150.77 C 192.27 151.03 193.24 150.50 193.51 149.56 L 193.79 148.60 C 194.06 147.67 193.52 146.69 192.58 146.42 C 191.65 146.16 190.68 146.69 190.41 147.63 Z M 190.13 148.59 L 189.86 149.55 C 189.59 150.48 190.12 151.45 191.06 151.72 C 191.99 151.99 192.96 151.45 193.23 150.52 L 193.51 149.56 C 193.78 148.63 193.24 147.66 192.31 147.39 C 191.38 147.12 190.40 147.66 190.13 148.59 Z M 189.85 149.56 L 189.59 150.53 C 189.32 151.46 189.87 152.43 190.80 152.69 C 191.74 152.95 192.70 152.40 192.96 151.47 L 193.23 150.51 C 193.49 149.57 192.95 148.60 192.02 148.34 C 191.08 148.08 190.11 148.63 189.85 149.56 Z M 189.58 150.55 L 189.32 151.52 C 189.08 152.45 189.63 153.41 190.57 153.66 C 191.50 153.91 192.46 153.35 192.71 152.42 L 192.97 151.45 C 193.22 150.51 192.66 149.55 191.72 149.31 C 190.79 149.06 189.83 149.61 189.58 150.55 Z M 189.32 151.53 L 189.07 152.50 C 188.83 153.44 189.40 154.39 190.33 154.63 C 191.27 154.87 192.22 154.31 192.46 153.37 L 192.71 152.40 C 192.95 151.47 192.39 150.51 191.45 150.27 C 190.52 150.03 189.56 150.60 189.32 151.53 Z M 189.08 152.51 L 188.83 153.47 C 188.59 154.41 189.16 155.36 190.09 155.59 C 191.03 155.83 191.98 155.27 192.21 154.33 L 192.46 153.37 C 192.70 152.43 192.13 151.48 191.20 151.25 C 190.26 151.01 189.31 151.57 189.08 152.51 Z M 188.84 153.47 L 188.59 154.42 C 188.35 155.36 188.91 156.31 189.84 156.55 C 190.77 156.79 191.72 156.22 191.96 155.29 L 192.21 154.34 C 192.45 153.40 191.89 152.45 190.96 152.22 C 190.02 151.98 189.08 152.54 188.84 153.47 Z M 188.60 154.42 L 188.35 155.38 C 188.10 156.31 188.66 157.26 189.59 157.50 C 190.52 157.74 191.47 157.19 191.71 156.26 L 191.96 155.30 C 192.20 154.37 191.64 153.42 190.71 153.18 C 189.79 152.94 188.84 153.49 188.60 154.42 Z M 188.35 155.38 L 188.09 156.36 C 187.85 157.28 188.40 158.23 189.33 158.48 C 190.25 158.72 191.20 158.17 191.44 157.24 L 191.70 156.26 C 191.94 155.34 191.39 154.39 190.47 154.14 C 189.54 153.90 188.59 154.45 188.35 155.38 Z M 188.10 156.36 L 187.88 157.18 C 187.63 158.10 188.18 159.05 189.10 159.29 C 190.03 159.54 190.97 158.99 191.22 158.07 L 191.44 157.24 C 191.68 156.32 191.13 155.38 190.21 155.13 C 189.29 154.89 188.34 155.43 188.10 156.36 Z M 187.88 157.18 L 187.66 158.03 C 187.41 158.95 187.96 159.90 188.88 160.14 C 189.79 160.39 190.74 159.84 190.98 158.92 L 191.21 158.07 C 191.46 157.15 190.91 156.21 189.99 155.96 C 189.07 155.71 188.13 156.26 187.88 157.18 Z M 187.66 158.03 L 187.40 159.00 C 187.16 159.91 187.70 160.86 188.62 161.10 C 189.53 161.35 190.48 160.80 190.72 159.89 L 190.98 158.92 C 191.23 158.01 190.68 157.06 189.77 156.82 C 188.85 156.57 187.91 157.12 187.66 158.03 Z M 187.41 159.00 L 187.10 160.13 C 186.86 161.04 187.40 161.98 188.31 162.23 C 189.23 162.47 190.17 161.93 190.41 161.02 L 190.72 159.89 C 190.96 158.97 190.42 158.03 189.51 157.79 C 188.59 157.54 187.65 158.08 187.41 159.00 Z M 187.11 160.13 L 186.84 161.14 C 186.59 162.05 187.13 162.99 188.04 163.23 C 188.96 163.48 189.89 162.94 190.14 162.03 L 190.41 161.01 C 190.65 160.10 190.11 159.17 189.20 158.92 C 188.29 158.68 187.35 159.22 187.11 160.13 Z M 186.84 161.14 L 186.59 162.09 C 186.34 163.00 186.88 163.94 187.79 164.18 C 188.70 164.42 189.63 163.88 189.88 162.98 L 190.13 162.03 C 190.38 161.12 189.84 160.18 188.93 159.94 C 188.02 159.69 187.09 160.23 186.84 161.14 Z M 186.59 162.09 L 186.32 163.09 C 186.08 164.00 186.62 164.93 187.52 165.17 C 188.43 165.42 189.36 164.88 189.60 163.97 L 189.87 162.98 C 190.11 162.07 189.58 161.14 188.67 160.89 C 187.77 160.65 186.84 161.19 186.59 162.09 Z M 186.33 163.09 L 186.06 164.11 C 185.81 165.01 186.35 165.94 187.25 166.18 C 188.15 166.43 189.08 165.89 189.32 164.99 L 189.60 163.97 C 189.84 163.07 189.31 162.14 188.40 161.90 C 187.50 161.66 186.57 162.19 186.33 163.09 Z M 186.06 164.11 L 185.79 165.11 C 185.55 166.01 186.08 166.93 186.98 167.18 C 187.87 167.42 188.80 166.89 189.05 165.99 L 189.32 164.99 C 189.56 164.09 189.03 163.16 188.13 162.92 C 187.23 162.68 186.31 163.21 186.06 164.11 Z M 185.80 165.11 L 185.53 166.06 C 185.29 166.96 185.82 167.88 186.71 168.13 C 187.61 168.37 188.53 167.85 188.78 166.95 L 189.04 165.99 C 189.28 165.10 188.76 164.17 187.86 163.93 C 186.97 163.68 186.04 164.21 185.80 165.11 Z M 185.54 166.06 L 185.26 167.08 C 185.02 167.97 185.54 168.89 186.43 169.14 C 187.32 169.38 188.24 168.86 188.48 167.97 L 188.77 166.95 C 189.01 166.06 188.49 165.14 187.60 164.90 C 186.71 164.65 185.79 165.17 185.54 166.06 Z M 185.29 167.07 L 184.97 168.20 C 184.72 169.08 185.22 169.99 186.10 170.24 C 186.98 170.49 187.89 169.98 188.14 169.10 L 188.46 167.98 C 188.71 167.10 188.20 166.19 187.33 165.94 C 186.45 165.69 185.54 166.20 185.29 167.07 Z M 185.00 168.18 L 184.71 169.15 C 184.45 170.00 184.93 170.91 185.79 171.17 C 186.65 171.43 187.55 170.95 187.81 170.09 L 188.10 169.12 C 188.36 168.27 187.88 167.36 187.02 167.10 C 186.17 166.84 185.26 167.32 185.00 168.18 Z M 184.75 169.11 L 184.47 169.95 C 184.19 170.79 184.64 171.69 185.47 171.97 C 186.31 172.25 187.21 171.80 187.49 170.97 L 187.77 170.12 C 188.05 169.29 187.60 168.39 186.76 168.11 C 185.93 167.83 185.03 168.28 184.75 169.11 Z M 184.52 169.90 L 184.22 170.68 C 183.91 171.49 184.32 172.39 185.12 172.70 C 185.93 173.01 186.83 172.60 187.14 171.80 L 187.44 171.02 C 187.75 170.21 187.34 169.31 186.53 169.00 C 185.73 168.69 184.82 169.10 184.52 169.90 Z M 184.28 170.61 L 183.85 171.56 C 183.51 172.33 183.85 173.24 184.63 173.59 C 185.40 173.93 186.31 173.59 186.66 172.81 L 187.08 171.87 C 187.43 171.09 187.08 170.18 186.31 169.83 C 185.53 169.49 184.62 169.84 184.28 170.61 Z M 183.91 171.50 L 183.46 172.38 C 183.08 173.13 183.37 174.04 184.12 174.42 C 184.87 174.80 185.78 174.50 186.16 173.75 L 186.61 172.87 C 186.99 172.12 186.69 171.21 185.94 170.83 C 185.20 170.45 184.29 170.75 183.91 171.50 Z M 183.50 172.35 L 183.03 173.20 C 182.64 173.93 182.91 174.84 183.63 175.23 C 184.36 175.63 185.26 175.36 185.66 174.63 L 186.12 173.78 C 186.52 173.06 186.25 172.15 185.52 171.75 C 184.80 171.36 183.89 171.63 183.50 172.35 Z"
      fill="black"
      fill-rule="nonzero" /><path d="M 153.18 108.44 L 152.31 108.99 C 151.57 109.45 151.34 110.44 151.81 111.19 C 152.27 111.93 153.26 112.16 154.01 111.69 L 154.88 111.15 C 155.62 110.68 155.85 109.70 155.38 108.95 C 154.92 108.20 153.93 107.98 153.18 108.44 Z M 152.15 109.07 L 151.37 109.69 C 150.67 110.25 150.55 111.27 151.11 111.97 C 151.67 112.67 152.69 112.79 153.40 112.23 L 154.17 111.61 C 154.88 111.05 154.99 110.03 154.43 109.33 C 153.87 108.62 152.85 108.51 152.15 109.07 Z M 151.07 109.95 L 150.48 110.72 C 149.93 111.44 150.06 112.48 150.79 113.04 C 151.52 113.59 152.56 113.46 153.11 112.73 L 153.70 111.97 C 154.25 111.24 154.12 110.20 153.39 109.64 C 152.66 109.09 151.62 109.23 151.07 109.95 Z M 150.23 111.13 L 149.95 111.88 C 149.62 112.74 150.06 113.71 150.92 114.04 C 151.79 114.36 152.75 113.93 153.08 113.06 L 153.36 112.31 C 153.69 111.45 153.25 110.48 152.39 110.16 C 151.52 109.83 150.56 110.27 150.23 111.13 Z M 149.86 112.19 L 149.71 113.09 C 149.55 114.00 150.16 114.87 151.08 115.03 C 151.99 115.18 152.86 114.57 153.02 113.65 L 153.17 112.75 C 153.33 111.84 152.71 110.97 151.80 110.81 C 150.88 110.66 150.01 111.27 149.86 112.19 Z M 149.68 113.27 L 149.61 114.34 C 149.55 115.27 150.26 116.07 151.19 116.13 C 152.12 116.19 152.92 115.48 152.98 114.55 L 153.04 113.48 C 153.10 112.55 152.40 111.75 151.47 111.69 C 150.54 111.63 149.74 112.34 149.68 113.27 Z M 149.60 114.42 L 149.58 115.60 C 149.56 116.53 150.30 117.31 151.24 117.32 C 152.17 117.34 152.94 116.60 152.96 115.66 L 152.99 114.48 C 153.00 113.55 152.26 112.77 151.33 112.76 C 150.39 112.74 149.62 113.48 149.60 114.42 Z M 149.58 115.62 L 149.57 116.57 C 149.56 117.50 150.31 118.27 151.25 118.28 C 152.18 118.29 152.95 117.54 152.96 116.60 L 152.97 115.65 C 152.98 114.71 152.22 113.95 151.29 113.94 C 150.35 113.93 149.58 114.68 149.58 115.62 Z M 149.56 116.58 L 149.56 117.59 C 149.56 118.52 150.31 119.29 151.25 119.29 C 152.19 119.30 152.95 118.54 152.95 117.60 L 152.96 116.59 C 152.96 115.65 152.21 114.89 151.27 114.89 C 150.33 114.88 149.57 115.64 149.56 116.58 Z M 149.56 117.59 L 149.56 118.63 C 149.56 119.57 150.32 120.33 151.26 120.33 C 152.19 120.33 152.96 119.57 152.96 118.63 L 152.96 117.59 C 152.96 116.66 152.20 115.89 151.26 115.89 C 150.32 115.89 149.56 116.65 149.56 117.59 Z M 149.56 118.64 L 149.56 119.67 C 149.56 120.61 150.33 121.37 151.27 121.37 C 152.21 121.36 152.96 120.60 152.96 119.66 L 152.96 118.63 C 152.95 117.69 152.19 116.93 151.25 116.93 C 150.31 116.93 149.55 117.70 149.56 118.64 Z M 149.56 119.68 L 149.57 120.68 C 149.57 121.62 150.34 122.38 151.28 122.37 C 152.22 122.37 152.98 121.60 152.97 120.66 L 152.96 119.65 C 152.96 118.71 152.19 117.96 151.25 117.96 C 150.31 117.97 149.55 118.74 149.56 119.68 Z M 149.56 120.69 L 149.58 121.74 C 149.59 122.68 150.36 123.44 151.30 123.42 C 152.24 123.41 153.00 122.64 152.99 121.70 L 152.97 120.65 C 152.96 119.71 152.19 118.95 151.25 118.97 C 150.31 118.98 149.55 119.75 149.56 120.69 Z M 149.58 121.75 L 149.60 122.82 C 149.62 123.76 150.40 124.51 151.34 124.49 C 152.28 124.47 153.03 123.69 153.01 122.75 L 152.99 121.69 C 152.97 120.74 152.19 120.00 151.25 120.02 C 150.31 120.03 149.56 120.81 149.58 121.75 Z M 149.60 122.84 L 149.63 123.83 C 149.66 124.77 150.44 125.51 151.38 125.48 C 152.32 125.45 153.06 124.66 153.04 123.72 L 153.01 122.73 C 152.98 121.79 152.19 121.05 151.25 121.08 C 150.31 121.11 149.57 121.89 149.60 122.84 Z M 149.63 123.85 L 149.67 124.79 C 149.71 125.73 150.50 126.46 151.44 126.42 C 152.38 126.38 153.11 125.59 153.07 124.65 L 153.04 123.70 C 153.00 122.76 152.20 122.03 151.26 122.07 C 150.32 122.11 149.59 122.90 149.63 123.85 Z M 149.67 124.81 L 149.72 125.74 C 149.77 126.68 150.57 127.41 151.51 127.35 C 152.45 127.30 153.18 126.50 153.12 125.56 L 153.07 124.63 C 153.02 123.69 152.22 122.97 151.28 123.02 C 150.34 123.07 149.62 123.87 149.67 124.81 Z M 149.72 125.77 L 149.79 126.72 C 149.85 127.66 150.66 128.37 151.60 128.31 C 152.54 128.25 153.25 127.44 153.19 126.50 L 153.12 125.54 C 153.06 124.60 152.25 123.89 151.31 123.95 C 150.37 124.01 149.66 124.83 149.72 125.77 Z M 149.79 126.74 L 149.86 127.72 C 149.93 128.66 150.75 129.36 151.69 129.29 C 152.63 129.22 153.33 128.40 153.26 127.46 L 153.18 126.48 C 153.11 125.54 152.29 124.84 151.36 124.91 C 150.42 124.99 149.71 125.80 149.79 126.74 Z M 149.86 127.74 L 149.95 128.74 C 150.03 129.67 150.86 130.37 151.79 130.29 C 152.73 130.21 153.42 129.38 153.34 128.45 L 153.26 127.45 C 153.18 126.51 152.35 125.81 151.42 125.89 C 150.48 125.97 149.78 126.80 149.86 127.74 Z M 149.95 128.75 L 150.05 129.77 C 150.13 130.70 150.96 131.39 151.90 131.31 C 152.84 131.22 153.52 130.39 153.44 129.45 L 153.34 128.43 C 153.26 127.50 152.43 126.81 151.49 126.90 C 150.55 126.98 149.86 127.81 149.95 128.75 Z M 150.05 129.78 L 150.15 130.78 C 150.24 131.72 151.07 132.40 152.01 132.31 C 152.94 132.22 153.63 131.39 153.53 130.45 L 153.44 129.44 C 153.34 128.51 152.51 127.82 151.58 127.92 C 150.64 128.01 149.96 128.84 150.05 129.78 Z M 150.15 130.79 L 150.25 131.77 C 150.34 132.70 151.18 133.38 152.11 133.29 C 153.05 133.19 153.73 132.36 153.63 131.42 L 153.53 130.45 C 153.44 129.51 152.60 128.83 151.67 128.92 C 150.73 129.02 150.05 129.85 150.15 130.79 Z M 150.25 131.77 L 150.35 132.76 C 150.44 133.69 151.28 134.37 152.21 134.28 C 153.15 134.18 153.83 133.35 153.73 132.41 L 153.63 131.42 C 153.54 130.49 152.70 129.81 151.77 129.90 C 150.83 130.00 150.15 130.83 150.25 131.77 Z M 150.35 132.76 L 150.45 133.76 C 150.54 134.69 151.38 135.37 152.31 135.28 C 153.25 135.19 153.93 134.35 153.83 133.42 L 153.73 132.41 C 153.64 131.48 152.80 130.80 151.87 130.89 C 150.93 130.99 150.25 131.82 150.35 132.76 Z M 150.45 133.75 L 150.55 134.77 C 150.64 135.70 151.47 136.38 152.41 136.29 C 153.34 136.20 154.03 135.37 153.93 134.43 L 153.83 133.42 C 153.74 132.49 152.91 131.80 151.98 131.90 C 151.04 131.99 150.36 132.82 150.45 133.75 Z M 150.55 134.76 L 150.64 135.76 C 150.73 136.69 151.56 137.38 152.49 137.29 C 153.43 137.21 154.11 136.38 154.03 135.44 L 153.93 134.44 C 153.85 133.51 153.02 132.82 152.08 132.91 C 151.15 132.99 150.46 133.82 150.55 134.76 Z M 150.64 135.75 L 150.73 136.74 C 150.81 137.68 151.64 138.37 152.57 138.29 C 153.50 138.20 154.20 137.38 154.11 136.45 L 154.03 135.45 C 153.94 134.52 153.12 133.83 152.19 133.91 C 151.25 133.99 150.56 134.81 150.64 135.75 Z M 150.73 136.73 L 150.81 137.73 C 150.89 138.66 151.71 139.36 152.64 139.28 C 153.58 139.21 154.27 138.39 154.19 137.45 L 154.11 136.46 C 154.04 135.52 153.22 134.83 152.28 134.90 C 151.35 134.98 150.65 135.80 150.73 136.73 Z M 150.81 137.72 L 150.89 138.72 C 150.96 139.65 151.78 140.35 152.71 140.28 C 153.64 140.21 154.34 139.39 154.27 138.46 L 154.19 137.46 C 154.12 136.53 153.31 135.83 152.37 135.90 C 151.44 135.97 150.74 136.79 150.81 137.72 Z M 150.89 138.71 L 150.96 139.71 C 151.03 140.64 151.84 141.35 152.77 141.28 C 153.70 141.21 154.41 140.40 154.34 139.47 L 154.27 138.47 C 154.20 137.54 153.39 136.83 152.46 136.90 C 151.53 136.97 150.82 137.78 150.89 138.71 Z M 150.96 139.70 L 151.03 140.69 C 151.09 141.63 151.89 142.33 152.83 142.27 C 153.76 142.21 154.47 141.40 154.40 140.47 L 154.34 139.48 C 154.28 138.55 153.47 137.84 152.54 137.90 C 151.61 137.96 150.90 138.77 150.96 139.70 Z M 151.03 140.69 L 151.09 141.67 C 151.15 142.61 151.95 143.31 152.88 143.26 C 153.81 143.20 154.52 142.40 154.46 141.47 L 154.40 140.48 C 154.35 139.55 153.54 138.84 152.61 138.90 C 151.68 138.95 150.97 139.76 151.03 140.69 Z M 151.09 141.67 L 151.15 142.66 C 151.20 143.59 152.00 144.30 152.93 144.25 C 153.86 144.19 154.57 143.40 154.52 142.47 L 154.46 141.47 C 154.41 140.54 153.61 139.83 152.68 139.89 C 151.75 139.94 151.04 140.74 151.09 141.67 Z M 151.15 142.65 L 151.20 143.65 C 151.25 144.58 152.05 145.30 152.98 145.25 C 153.91 145.20 154.62 144.40 154.57 143.47 L 154.52 142.47 C 154.47 141.54 153.67 140.83 152.74 140.88 C 151.81 140.93 151.10 141.72 151.15 142.65 Z M 151.20 143.65 L 151.26 144.66 C 151.31 145.59 152.10 146.30 153.03 146.25 C 153.96 146.21 154.67 145.41 154.62 144.48 L 154.57 143.47 C 154.52 142.54 153.73 141.83 152.80 141.88 C 151.87 141.93 151.16 142.72 151.20 143.65 Z M 151.26 144.66 L 151.31 145.67 C 151.36 146.60 152.15 147.31 153.08 147.27 C 154.00 147.22 154.72 146.43 154.67 145.50 L 154.62 144.49 C 154.57 143.56 153.78 142.84 152.85 142.89 C 151.93 142.94 151.21 143.73 151.26 144.66 Z M 151.31 145.67 L 151.36 146.69 C 151.41 147.61 152.20 148.33 153.13 148.28 C 154.05 148.24 154.77 147.45 154.72 146.52 L 154.67 145.50 C 154.62 144.58 153.83 143.86 152.91 143.91 C 151.98 143.95 151.27 144.74 151.31 145.67 Z M 151.37 146.69 L 151.42 147.70 C 151.46 148.63 152.25 149.34 153.18 149.30 C 154.10 149.25 154.82 148.46 154.77 147.53 L 154.72 146.52 C 154.67 145.59 153.88 144.88 152.96 144.93 C 152.03 144.97 151.32 145.76 151.37 146.69 Z M 151.42 147.70 L 151.47 148.71 C 151.52 149.63 152.30 150.35 153.23 150.30 C 154.15 150.25 154.87 149.46 154.82 148.54 L 154.77 147.53 C 154.72 146.61 153.93 145.90 153.01 145.94 C 152.08 145.99 151.37 146.78 151.42 147.70 Z M 151.47 148.71 L 151.52 149.70 C 151.57 150.62 152.36 151.33 153.28 151.28 C 154.21 151.23 154.92 150.45 154.87 149.52 L 154.82 148.54 C 154.77 147.61 153.98 146.90 153.06 146.95 C 152.13 147.00 151.42 147.79 151.47 148.71 Z M 151.53 149.70 L 151.58 150.68 C 151.63 151.60 152.41 152.31 153.34 152.26 C 154.26 152.21 154.97 151.43 154.92 150.50 L 154.87 149.52 C 154.82 148.60 154.03 147.89 153.11 147.94 C 152.18 147.99 151.48 148.78 151.53 149.70 Z M 151.58 150.69 L 151.64 151.74 C 151.69 152.66 152.48 153.36 153.40 153.31 C 154.32 153.26 155.02 152.47 154.97 151.55 L 154.91 150.50 C 154.86 149.58 154.08 148.88 153.16 148.93 C 152.23 148.98 151.53 149.76 151.58 150.69 Z M 151.64 151.74 L 151.70 152.75 C 151.75 153.67 152.54 154.37 153.46 154.32 C 154.37 154.27 155.08 153.48 155.03 152.56 L 154.97 151.55 C 154.92 150.63 154.13 149.93 153.21 149.98 C 152.29 150.03 151.59 150.82 151.64 151.74 Z M 151.70 152.75 L 151.75 153.72 C 151.80 154.64 152.59 155.35 153.51 155.29 C 154.42 155.24 155.13 154.46 155.08 153.54 L 155.02 152.57 C 154.97 151.65 154.19 150.94 153.27 150.99 C 152.35 151.04 151.65 151.83 151.70 152.75 Z M 151.76 153.72 L 151.81 154.67 C 151.85 155.59 152.63 156.29 153.55 156.25 C 154.47 156.20 155.17 155.42 155.12 154.50 L 155.08 153.55 C 155.03 152.63 154.25 151.93 153.33 151.97 C 152.41 152.02 151.71 152.80 151.76 153.72 Z M 151.81 154.66 L 151.86 155.67 C 151.90 156.58 152.67 157.29 153.59 157.25 C 154.50 157.21 155.21 156.43 155.17 155.52 L 155.12 154.51 C 155.08 153.60 154.30 152.89 153.39 152.93 C 152.48 152.97 151.77 153.75 151.81 154.66 Z M 151.86 155.66 L 151.90 156.68 C 151.93 157.59 152.70 158.30 153.61 158.27 C 154.52 158.23 155.23 157.46 155.20 156.55 L 155.16 155.53 C 155.13 154.62 154.36 153.91 153.45 153.95 C 152.54 153.98 151.83 154.75 151.86 155.66 Z M 151.91 156.67 L 151.94 157.67 C 151.97 158.57 152.72 159.29 153.63 159.26 C 154.54 159.23 155.25 158.47 155.22 157.56 L 155.19 156.56 C 155.16 155.66 154.41 154.94 153.50 154.97 C 152.59 155.00 151.88 155.76 151.91 156.67 Z M 151.94 157.65 L 151.97 158.62 C 151.99 159.53 152.74 160.24 153.64 160.22 C 154.55 160.20 155.26 159.45 155.24 158.55 L 155.22 157.57 C 155.20 156.67 154.45 155.95 153.54 155.98 C 152.64 156.00 151.92 156.75 151.94 157.65 Z M 151.97 158.61 L 151.99 159.56 C 152.00 160.46 152.75 161.18 153.65 161.17 C 154.55 161.15 155.26 160.41 155.25 159.51 L 155.23 158.56 C 155.22 157.66 154.48 156.94 153.58 156.95 C 152.68 156.97 151.96 157.71 151.97 158.61 Z M 152.00 159.55 L 152.01 160.50 C 152.02 161.40 152.75 162.12 153.65 162.11 C 154.54 162.10 155.26 161.37 155.25 160.47 L 155.24 159.52 C 155.23 158.62 154.50 157.90 153.60 157.91 C 152.71 157.92 151.99 158.66 152.00 159.55 Z M 152.01 160.50 L 152.02 161.48 C 152.03 162.38 152.76 163.09 153.65 163.09 C 154.54 163.08 155.26 162.35 155.25 161.46 L 155.25 160.47 C 155.24 159.58 154.51 158.86 153.62 158.87 C 152.72 158.88 152.01 159.61 152.01 160.50 Z M 152.03 161.49 L 152.04 162.54 C 152.05 163.43 152.78 164.14 153.67 164.13 C 154.55 164.12 155.27 163.40 155.26 162.51 L 155.25 161.45 C 155.24 160.56 154.51 159.85 153.62 159.86 C 152.73 159.87 152.02 160.60 152.03 161.49 Z M 152.05 162.55 L 152.06 163.53 C 152.08 164.42 152.80 165.13 153.69 165.11 C 154.57 165.10 155.28 164.37 155.27 163.49 L 155.25 162.50 C 155.24 161.62 154.51 160.91 153.62 160.92 C 152.74 160.94 152.03 161.66 152.05 162.55 Z M 152.07 163.55 L 152.09 164.51 C 152.11 165.39 152.84 166.09 153.72 166.07 C 154.61 166.05 155.30 165.32 155.28 164.44 L 155.26 163.47 C 155.24 162.59 154.51 161.90 153.63 161.92 C 152.75 161.94 152.05 162.67 152.07 163.55 Z M 152.10 164.53 L 152.14 165.54 C 152.17 166.42 152.91 167.10 153.78 167.07 C 154.66 167.03 155.34 166.30 155.31 165.42 L 155.27 164.42 C 155.24 163.54 154.50 162.86 153.63 162.89 C 152.75 162.92 152.07 163.66 152.10 164.53 Z M 152.15 165.57 L 152.21 166.60 C 152.26 167.47 153.00 168.14 153.87 168.09 C 154.74 168.04 155.41 167.29 155.36 166.42 L 155.30 165.39 C 155.25 164.52 154.51 163.86 153.64 163.91 C 152.77 163.96 152.10 164.70 152.15 165.57 Z M 152.22 166.64 L 152.30 167.67 C 152.37 168.54 153.13 169.18 154.00 169.11 C 154.86 169.04 155.50 168.28 155.43 167.42 L 155.35 166.38 C 155.28 165.52 154.52 164.88 153.65 164.95 C 152.79 165.02 152.15 165.78 152.22 166.64 Z M 152.32 167.72 L 152.44 168.75 C 152.53 169.60 153.31 170.22 154.16 170.12 C 155.02 170.02 155.63 169.25 155.54 168.39 L 155.42 167.37 C 155.32 166.51 154.55 165.90 153.69 166.00 C 152.83 166.09 152.22 166.87 152.32 167.72 Z M 152.46 168.80 L 152.61 169.80 C 152.73 170.65 153.52 171.23 154.36 171.10 C 155.21 170.98 155.79 170.19 155.67 169.34 L 155.52 168.34 C 155.39 167.49 154.60 166.91 153.76 167.04 C 152.91 167.16 152.33 167.95 152.46 168.80 Z M 152.63 169.84 L 152.80 170.82 C 152.95 171.66 153.75 172.21 154.58 172.07 C 155.41 171.92 155.97 171.12 155.82 170.29 L 155.64 169.30 C 155.50 168.47 154.70 167.92 153.87 168.06 C 153.04 168.21 152.48 169.01 152.63 169.84 Z M 152.82 170.85 L 153.02 171.82 C 153.18 172.65 153.98 173.18 154.80 173.02 C 155.62 172.85 156.15 172.06 155.99 171.23 L 155.80 170.26 C 155.64 169.44 154.84 168.91 154.02 169.07 C 153.19 169.23 152.66 170.03 152.82 170.85 Z M 153.03 171.84 L 153.24 172.81 C 153.41 173.62 154.21 174.14 155.02 173.96 C 155.83 173.79 156.35 173.00 156.18 172.18 L 155.97 171.22 C 155.80 170.41 155.00 169.89 154.19 170.06 C 153.38 170.23 152.86 171.03 153.03 171.84 Z M 153.25 172.81 L 153.37 173.35 C 153.54 174.15 154.33 174.66 155.14 174.49 C 155.94 174.31 156.45 173.52 156.28 172.72 L 156.16 172.18 C 155.99 171.38 155.20 170.87 154.39 171.04 C 153.59 171.21 153.08 172.00 153.25 172.81 Z"
      fill="black"
      fill-rule="nonzero" /><path d="M 127.06 145.32 L 127.67 146.05 C 128.22 146.69 129.20 146.77 129.85 146.22 C 130.49 145.67 130.57 144.70 130.02 144.05 L 129.41 143.32 C 128.86 142.68 127.88 142.60 127.23 143.15 C 126.58 143.70 126.50 144.67 127.06 145.32 Z M 127.72 146.12 L 128.39 146.83 C 128.98 147.45 129.97 147.47 130.59 146.88 C 131.21 146.29 131.24 145.30 130.65 144.68 L 129.97 143.97 C 129.38 143.35 128.40 143.33 127.77 143.92 C 127.15 144.51 127.13 145.50 127.72 146.12 Z M 128.50 146.95 L 129.29 147.62 C 129.95 148.19 130.94 148.11 131.50 147.45 C 132.07 146.79 131.99 145.80 131.33 145.24 L 130.54 144.56 C 129.88 144.00 128.89 144.07 128.33 144.73 C 127.76 145.39 127.84 146.38 128.50 146.95 Z M 129.44 147.73 L 130.26 148.28 C 130.98 148.77 131.96 148.57 132.44 147.85 C 132.92 147.13 132.73 146.16 132.01 145.68 L 131.18 145.13 C 130.46 144.64 129.49 144.84 129.01 145.56 C 128.53 146.28 128.72 147.25 129.44 147.73 Z M 130.38 148.33 L 131.26 148.82 C 132.00 149.23 132.94 148.96 133.36 148.22 C 133.77 147.47 133.51 146.53 132.76 146.12 L 131.89 145.63 C 131.14 145.22 130.20 145.49 129.79 146.23 C 129.37 146.98 129.64 147.92 130.38 148.33 Z M 131.33 148.82 L 132.25 149.28 C 133.00 149.65 133.91 149.35 134.28 148.60 C 134.66 147.85 134.35 146.94 133.60 146.57 L 132.68 146.11 C 131.93 145.74 131.02 146.05 130.65 146.79 C 130.28 147.54 130.59 148.45 131.33 148.82 Z M 132.30 149.27 L 133.22 149.70 C 133.96 150.05 134.84 149.73 135.19 148.98 C 135.54 148.24 135.22 147.36 134.48 147.01 L 133.56 146.58 C 132.82 146.23 131.93 146.55 131.58 147.30 C 131.24 148.04 131.56 148.92 132.30 149.27 Z M 133.23 149.68 L 134.18 150.12 C 134.91 150.46 135.78 150.14 136.12 149.41 C 136.46 148.68 136.14 147.81 135.41 147.47 L 134.46 147.03 C 133.73 146.69 132.86 147.01 132.52 147.74 C 132.18 148.47 132.50 149.34 133.23 149.68 Z M 134.18 150.11 L 135.10 150.54 C 135.83 150.88 136.69 150.57 137.03 149.85 C 137.37 149.12 137.06 148.26 136.34 147.92 L 135.41 147.49 C 134.69 147.15 133.83 147.46 133.49 148.18 C 133.15 148.90 133.46 149.77 134.18 150.11 Z M 135.10 150.53 L 135.98 150.95 C 136.70 151.29 137.56 150.98 137.90 150.27 C 138.24 149.55 137.93 148.69 137.22 148.35 L 136.34 147.93 C 135.62 147.59 134.76 147.90 134.42 148.61 C 134.08 149.33 134.38 150.19 135.10 150.53 Z M 135.98 150.94 L 136.74 151.30 C 137.46 151.64 138.31 151.34 138.65 150.63 C 138.99 149.92 138.69 149.06 137.98 148.72 L 137.21 148.36 C 136.50 148.02 135.65 148.32 135.31 149.03 C 134.97 149.74 135.27 150.60 135.98 150.94 Z"
      fill="black"
      fill-rule="nonzero" /><path d="M 131.67 161.38 L 130.27 161.38 C 129.39 161.38 128.68 162.09 128.68 162.98 C 128.68 163.86 129.39 164.57 130.27 164.57 L 131.67 164.57 C 132.55 164.57 133.27 163.86 133.27 162.98 C 133.27 162.10 132.55 161.38 131.67 161.38 Z M 130.28 161.37 L 129.06 161.36 C 128.17 161.36 127.45 162.08 127.45 162.96 C 127.44 163.85 128.16 164.57 129.04 164.58 L 130.27 164.58 C 131.15 164.59 131.87 163.87 131.88 162.98 C 131.88 162.10 131.17 161.37 130.28 161.37 Z M 129.08 161.35 L 128.22 161.34 C 127.33 161.32 126.59 162.03 126.57 162.93 C 126.56 163.82 127.27 164.56 128.16 164.57 L 129.02 164.59 C 129.92 164.60 130.65 163.89 130.67 163.00 C 130.68 162.11 129.97 161.37 129.08 161.35 Z M 128.34 161.34 L 128.02 161.31 C 127.13 161.22 126.33 161.88 126.25 162.77 C 126.16 163.66 126.82 164.46 127.71 164.54 L 128.04 164.57 C 128.93 164.66 129.72 164.00 129.81 163.11 C 129.89 162.22 129.24 161.42 128.34 161.34 Z M 128.14 164.53 L 128.55 164.46 C 129.43 164.31 130.03 163.47 129.88 162.58 C 129.73 161.69 128.89 161.10 128.00 161.25 L 127.59 161.32 C 126.70 161.47 126.11 162.31 126.26 163.20 C 126.41 164.08 127.25 164.68 128.14 164.53 Z M 128.50 164.47 L 129.55 164.32 C 130.44 164.20 131.06 163.37 130.93 162.48 C 130.81 161.59 129.98 160.97 129.09 161.10 L 128.05 161.24 C 127.16 161.37 126.54 162.19 126.66 163.08 C 126.79 163.97 127.61 164.59 128.50 164.47 Z M 129.61 164.31 L 131.08 164.04 C 131.97 163.88 132.55 163.04 132.39 162.15 C 132.23 161.27 131.39 160.68 130.50 160.84 L 129.03 161.11 C 128.15 161.27 127.56 162.11 127.72 163.00 C 127.88 163.88 128.73 164.47 129.61 164.31 Z M 131.16 164.02 L 132.15 163.79 C 133.02 163.58 133.57 162.71 133.36 161.84 C 133.16 160.97 132.29 160.43 131.42 160.63 L 130.43 160.86 C 129.55 161.07 129.01 161.94 129.22 162.81 C 129.42 163.68 130.29 164.22 131.16 164.02 Z M 132.20 163.76 L 133.15 163.51 C 134.01 163.28 134.52 162.40 134.29 161.54 C 134.06 160.68 133.18 160.17 132.32 160.40 L 131.37 160.66 C 130.51 160.89 130.00 161.77 130.23 162.63 C 130.46 163.48 131.34 163.99 132.20 163.76 Z M 133.19 163.48 L 134.16 163.19 C 135.01 162.95 135.49 162.06 135.24 161.22 C 135.00 160.38 134.11 159.89 133.27 160.14 L 132.29 160.43 C 131.45 160.67 130.96 161.56 131.21 162.40 C 131.46 163.25 132.34 163.73 133.19 163.48 Z M 134.19 163.17 L 135.17 162.86 C 136.00 162.60 136.46 161.72 136.20 160.89 C 135.94 160.06 135.06 159.60 134.23 159.86 L 133.25 160.16 C 132.41 160.42 131.95 161.31 132.21 162.14 C 132.47 162.97 133.36 163.43 134.19 163.17 Z M 135.19 162.84 L 136.16 162.53 C 136.98 162.26 137.43 161.37 137.16 160.55 C 136.89 159.73 136.01 159.29 135.19 159.56 L 134.21 159.88 C 133.39 160.14 132.95 161.03 133.22 161.85 C 133.48 162.67 134.37 163.11 135.19 162.84 Z M 136.17 162.51 L 137.11 162.19 C 137.92 161.91 138.36 161.03 138.08 160.22 C 137.81 159.41 136.93 158.98 136.12 159.26 L 135.18 159.58 C 134.37 159.85 133.93 160.73 134.21 161.54 C 134.48 162.35 135.36 162.78 136.17 162.51 Z M 137.12 162.17 L 138.07 161.84 C 138.87 161.56 139.30 160.68 139.02 159.89 C 138.74 159.09 137.87 158.66 137.07 158.94 L 136.11 159.27 C 135.31 159.55 134.89 160.42 135.17 161.22 C 135.45 162.02 136.32 162.45 137.12 162.17 Z M 138.08 161.82 L 139.01 161.49 C 139.80 161.21 140.21 160.34 139.93 159.55 C 139.65 158.76 138.78 158.35 137.99 158.63 L 137.06 158.96 C 136.27 159.24 135.86 160.11 136.14 160.90 C 136.42 161.69 137.29 162.10 138.08 161.82 Z M 139.02 161.47 L 139.93 161.14 C 140.70 160.85 141.11 159.99 140.82 159.21 C 140.54 158.43 139.67 158.03 138.89 158.31 L 137.98 158.65 C 137.20 158.93 136.80 159.80 137.09 160.57 C 137.37 161.35 138.24 161.75 139.02 161.47 Z M 139.93 161.12 L 140.85 160.77 C 141.62 160.49 142.00 159.63 141.72 158.86 C 141.43 158.09 140.57 157.70 139.80 157.99 L 138.89 158.33 C 138.12 158.62 137.73 159.48 138.02 160.25 C 138.30 161.02 139.16 161.41 139.93 161.12 Z M 140.85 160.76 L 141.79 160.39 C 142.55 160.10 142.93 159.25 142.64 158.49 C 142.35 157.73 141.49 157.35 140.73 157.64 L 139.79 158.01 C 139.03 158.30 138.66 159.15 138.95 159.91 C 139.24 160.67 140.09 161.05 140.85 160.76 Z M 141.80 160.38 L 142.75 160.00 C 143.50 159.71 143.87 158.86 143.58 158.11 C 143.28 157.36 142.44 156.99 141.69 157.29 L 140.73 157.66 C 139.98 157.96 139.61 158.80 139.90 159.55 C 140.20 160.30 141.05 160.67 141.80 160.38 Z M 142.76 159.99 L 143.61 159.65 C 144.35 159.36 144.72 158.51 144.42 157.77 C 144.12 157.02 143.28 156.66 142.53 156.96 L 141.68 157.30 C 140.94 157.59 140.57 158.44 140.87 159.18 C 141.17 159.93 142.01 160.29 142.76 159.99 Z M 143.61 159.65 L 144.50 159.29 C 145.24 158.99 145.60 158.15 145.30 157.41 C 145.00 156.66 144.16 156.30 143.42 156.60 L 142.53 156.96 C 141.79 157.26 141.43 158.10 141.73 158.85 C 142.03 159.59 142.87 159.95 143.61 159.65 Z M 144.50 159.28 L 145.42 158.91 C 146.16 158.61 146.52 157.77 146.22 157.03 C 145.92 156.29 145.07 155.94 144.34 156.24 L 143.42 156.61 C 142.68 156.91 142.32 157.75 142.62 158.49 C 142.92 159.23 143.76 159.58 144.50 159.28 Z M 145.42 158.91 L 146.37 158.52 C 147.10 158.22 147.46 157.38 147.16 156.64 C 146.85 155.91 146.01 155.55 145.28 155.85 L 144.34 156.24 C 143.60 156.54 143.25 157.38 143.55 158.12 C 143.85 158.85 144.69 159.21 145.42 158.91 Z M 146.37 158.52 L 147.33 158.12 C 148.06 157.82 148.41 156.98 148.11 156.25 C 147.81 155.51 146.97 155.16 146.24 155.46 L 145.28 155.86 C 144.54 156.16 144.19 157.00 144.49 157.73 C 144.80 158.47 145.63 158.82 146.37 158.52 Z M 147.33 158.12 L 148.30 157.72 C 149.03 157.42 149.38 156.58 149.08 155.85 C 148.78 155.12 147.94 154.77 147.21 155.07 L 146.24 155.47 C 145.51 155.77 145.16 156.61 145.46 157.34 C 145.76 158.07 146.60 158.42 147.33 158.12 Z M 148.30 157.71 L 149.02 157.42 C 149.75 157.12 150.09 156.28 149.79 155.55 C 149.49 154.82 148.66 154.48 147.93 154.78 L 147.21 155.07 C 146.48 155.37 146.14 156.21 146.44 156.94 C 146.74 157.67 147.57 158.01 148.30 157.71 Z"
      fill="black"
      fill-rule="nonzero" /><path d="M 175.11 141.40 L 174.07 141.37 C 173.18 141.34 172.44 142.04 172.42 142.92 C 172.39 143.81 173.09 144.55 173.97 144.57 L 175.02 144.60 C 175.90 144.63 176.64 143.93 176.67 143.05 C 176.69 142.16 176.00 141.42 175.11 141.40 Z M 174.06 141.36 L 173.03 141.34 C 172.15 141.31 171.41 142.01 171.39 142.90 C 171.36 143.79 172.06 144.52 172.95 144.55 L 173.98 144.57 C 174.86 144.60 175.60 143.90 175.62 143.01 C 175.65 142.13 174.95 141.39 174.06 141.36 Z M 173.02 141.34 L 172.03 141.32 C 171.14 141.30 170.41 142.00 170.39 142.89 C 170.37 143.78 171.08 144.51 171.96 144.53 L 172.96 144.55 C 173.85 144.57 174.58 143.86 174.60 142.98 C 174.62 142.09 173.91 141.35 173.02 141.34 Z M 172.01 141.31 L 171.07 141.31 C 170.18 141.30 169.45 142.01 169.44 142.90 C 169.43 143.79 170.15 144.51 171.03 144.52 L 171.98 144.53 C 172.87 144.54 173.59 143.83 173.60 142.94 C 173.61 142.05 172.90 141.32 172.01 141.31 Z M 171.03 141.31 L 169.96 141.32 C 169.08 141.33 168.36 142.05 168.37 142.94 C 168.38 143.83 169.11 144.54 170.00 144.53 L 171.07 144.52 C 171.96 144.51 172.67 143.78 172.66 142.90 C 172.65 142.01 171.92 141.30 171.03 141.31 Z M 169.88 141.32 L 168.86 141.39 C 167.98 141.45 167.31 142.21 167.37 143.10 C 167.42 143.98 168.19 144.65 169.08 144.60 L 170.09 144.53 C 170.97 144.47 171.64 143.71 171.59 142.82 C 171.53 141.93 170.76 141.26 169.88 141.32 Z M 168.70 141.41 L 167.77 141.57 C 166.90 141.71 166.31 142.55 166.46 143.42 C 166.61 144.30 167.44 144.88 168.31 144.73 L 169.24 144.58 C 170.12 144.43 170.70 143.60 170.56 142.72 C 170.41 141.85 169.58 141.26 168.70 141.41 Z M 167.53 141.63 L 166.64 141.93 C 165.80 142.21 165.35 143.12 165.63 143.96 C 165.91 144.80 166.82 145.25 167.66 144.97 L 168.55 144.67 C 169.39 144.39 169.84 143.48 169.56 142.64 C 169.28 141.80 168.37 141.35 167.53 141.63 Z M 166.41 142.04 L 165.55 142.49 C 164.77 142.90 164.47 143.86 164.88 144.64 C 165.29 145.42 166.26 145.72 167.04 145.31 L 167.90 144.86 C 168.68 144.45 168.98 143.48 168.57 142.70 C 168.15 141.92 167.19 141.62 166.41 142.04 Z M 165.39 142.60 L 164.56 143.18 C 163.84 143.67 163.66 144.66 164.16 145.38 C 164.66 146.10 165.64 146.28 166.36 145.78 L 167.20 145.20 C 167.92 144.70 168.09 143.72 167.60 143.00 C 167.10 142.28 166.11 142.10 165.39 142.60 Z M 164.47 143.25 L 163.72 143.86 C 163.05 144.41 162.94 145.40 163.49 146.07 C 164.04 146.75 165.03 146.85 165.70 146.31 L 166.45 145.70 C 167.13 145.16 167.23 144.16 166.68 143.49 C 166.14 142.81 165.15 142.71 164.47 143.25 Z M 163.68 143.91 L 163.02 144.50 C 162.37 145.07 162.32 146.06 162.89 146.70 C 163.46 147.35 164.45 147.41 165.09 146.83 L 165.75 146.25 C 166.39 145.68 166.45 144.69 165.88 144.05 C 165.31 143.40 164.32 143.34 163.68 143.91 Z M 162.98 144.55 L 162.28 145.22 C 161.67 145.81 161.65 146.79 162.24 147.41 C 162.84 148.03 163.82 148.05 164.44 147.45 L 165.13 146.78 C 165.75 146.19 165.77 145.21 165.17 144.59 C 164.58 143.97 163.60 143.95 162.98 144.55 Z M 162.25 145.27 L 161.49 146.06 C 160.91 146.67 160.92 147.64 161.54 148.23 C 162.15 148.82 163.12 148.80 163.71 148.19 L 164.47 147.40 C 165.06 146.79 165.04 145.82 164.43 145.23 C 163.81 144.64 162.84 144.66 162.25 145.27 Z M 161.47 146.10 L 160.74 146.91 C 160.17 147.53 160.22 148.50 160.84 149.07 C 161.47 149.63 162.44 149.58 163.00 148.96 L 163.74 148.15 C 164.30 147.52 164.25 146.56 163.63 145.99 C 163.00 145.42 162.04 145.47 161.47 146.10 Z M 160.72 146.94 L 160.10 147.65 C 159.55 148.28 159.62 149.24 160.25 149.79 C 160.89 150.34 161.84 150.27 162.39 149.64 L 163.01 148.93 C 163.56 148.30 163.50 147.34 162.86 146.79 C 162.23 146.24 161.27 146.31 160.72 146.94 Z M 160.10 147.67 L 159.45 148.44 C 158.91 149.07 158.99 150.02 159.63 150.56 C 160.26 151.10 161.21 151.02 161.75 150.38 L 162.40 149.62 C 162.94 148.98 162.86 148.03 162.22 147.50 C 161.59 146.96 160.64 147.04 160.10 147.67 Z M 159.45 148.46 L 158.79 149.25 C 158.26 149.89 158.35 150.83 158.99 151.36 C 159.63 151.89 160.57 151.80 161.10 151.16 L 161.76 150.36 C 162.28 149.73 162.19 148.78 161.56 148.26 C 160.92 147.73 159.98 147.82 159.45 148.46 Z M 158.79 149.27 L 158.13 150.08 C 157.62 150.71 157.71 151.65 158.35 152.17 C 158.99 152.68 159.93 152.59 160.44 151.95 L 161.10 151.14 C 161.62 150.50 161.52 149.57 160.88 149.05 C 160.24 148.53 159.31 148.63 158.79 149.27 Z M 158.13 150.09 L 157.50 150.89 C 156.99 151.53 157.09 152.46 157.73 152.97 C 158.37 153.48 159.30 153.37 159.81 152.73 L 160.44 151.93 C 160.95 151.29 160.85 150.37 160.21 149.86 C 159.57 149.35 158.64 149.45 158.13 150.09 Z M 157.49 150.91 L 156.85 151.74 C 156.35 152.37 156.46 153.30 157.10 153.80 C 157.74 154.29 158.66 154.18 159.16 153.54 L 159.81 152.72 C 160.31 152.08 160.19 151.16 159.55 150.66 C 158.92 150.16 157.99 150.27 157.49 150.91 Z M 156.85 151.75 L 156.21 152.59 C 155.72 153.23 155.84 154.14 156.48 154.63 C 157.12 155.12 158.03 155.00 158.52 154.36 L 159.16 153.53 C 159.65 152.89 159.53 151.97 158.89 151.48 C 158.25 150.99 157.34 151.11 156.85 151.75 Z M 156.21 152.60 L 155.60 153.41 C 155.12 154.05 155.24 154.96 155.88 155.44 C 156.52 155.92 157.43 155.79 157.92 155.15 L 158.52 154.35 C 159.00 153.71 158.88 152.80 158.24 152.32 C 157.60 151.83 156.69 151.96 156.21 152.60 Z M 155.60 153.42 L 155.02 154.20 C 154.54 154.84 154.68 155.74 155.32 156.22 C 155.95 156.70 156.86 156.56 157.33 155.92 L 157.92 155.14 C 158.39 154.50 158.26 153.60 157.62 153.12 C 156.98 152.65 156.07 152.78 155.60 153.42 Z M 155.02 154.21 L 154.45 154.98 C 153.98 155.62 154.12 156.52 154.76 156.99 C 155.40 157.46 156.30 157.32 156.77 156.68 L 157.33 155.91 C 157.80 155.27 157.67 154.38 157.03 153.91 C 156.39 153.44 155.49 153.57 155.02 154.21 Z M 154.46 154.98 L 154.07 155.52 C 153.60 156.15 153.74 157.05 154.37 157.51 C 155.01 157.98 155.90 157.84 156.37 157.21 L 156.76 156.67 C 157.23 156.04 157.09 155.14 156.46 154.68 C 155.82 154.21 154.93 154.35 154.46 154.98 Z"
      fill="black"
      fill-rule="nonzero" /><path d="M 161.00 162.95 L 161.61 163.77 C 162.10 164.45 163.05 164.60 163.73 164.10 C 164.41 163.61 164.56 162.66 164.06 161.98 L 163.46 161.15 C 162.96 160.48 162.01 160.33 161.33 160.82 C 160.66 161.32 160.51 162.27 161.00 162.95 Z M 161.61 163.80 L 162.21 164.61 C 162.73 165.28 163.69 165.42 164.37 164.91 C 165.05 164.39 165.18 163.43 164.67 162.75 L 164.06 161.95 C 163.55 161.27 162.58 161.14 161.91 161.65 C 161.23 162.16 161.09 163.12 161.61 163.80 Z M 162.23 164.66 L 162.85 165.42 C 163.39 166.09 164.37 166.20 165.04 165.66 C 165.71 165.12 165.81 164.14 165.27 163.47 L 164.65 162.70 C 164.11 162.04 163.13 161.93 162.47 162.47 C 161.80 163.01 161.69 163.99 162.23 164.66 Z M 162.89 165.49 L 163.54 166.22 C 164.11 166.86 165.11 166.92 165.75 166.34 C 166.40 165.76 166.45 164.77 165.88 164.13 L 165.23 163.40 C 164.65 162.76 163.66 162.70 163.02 163.28 C 162.37 163.86 162.31 164.85 162.89 165.49 Z M 163.60 166.29 L 164.28 166.97 C 164.90 167.58 165.90 167.58 166.51 166.96 C 167.12 166.34 167.12 165.34 166.50 164.73 L 165.82 164.05 C 165.20 163.44 164.20 163.44 163.59 164.06 C 162.98 164.68 162.98 165.68 163.60 166.29 Z M 164.34 167.03 L 165.08 167.69 C 165.73 168.27 166.73 168.21 167.31 167.56 C 167.89 166.91 167.83 165.91 167.18 165.33 L 166.44 164.67 C 165.79 164.09 164.79 164.15 164.21 164.80 C 163.63 165.45 163.69 166.45 164.34 167.03 Z M 165.12 167.73 L 165.94 168.40 C 166.61 168.96 167.61 168.86 168.17 168.19 C 168.72 167.51 168.63 166.51 167.95 165.96 L 167.14 165.29 C 166.46 164.73 165.47 164.83 164.91 165.50 C 164.35 166.18 164.45 167.18 165.12 167.73 Z M 165.97 168.43 L 166.66 168.97 C 167.35 169.51 168.35 169.39 168.89 168.70 C 169.43 168.01 169.31 167.01 168.62 166.47 L 167.92 165.93 C 167.23 165.39 166.24 165.51 165.70 166.20 C 165.16 166.89 165.28 167.89 165.97 168.43 Z M 166.69 168.99 L 167.45 169.56 C 168.15 170.08 169.15 169.94 169.67 169.24 C 170.19 168.54 170.05 167.54 169.35 167.02 L 168.59 166.45 C 167.89 165.93 166.89 166.07 166.37 166.78 C 165.84 167.48 165.99 168.47 166.69 168.99 Z M 167.48 169.58 L 168.31 170.17 C 169.03 170.68 170.02 170.51 170.52 169.79 C 171.03 169.08 170.86 168.09 170.14 167.58 L 169.31 166.99 C 168.60 166.49 167.61 166.66 167.10 167.37 C 166.60 168.09 166.77 169.08 167.48 169.58 Z M 168.35 170.20 L 169.26 170.80 C 169.99 171.29 170.97 171.09 171.46 170.36 C 171.94 169.63 171.74 168.65 171.02 168.16 L 170.11 167.56 C 169.38 167.07 168.39 167.27 167.91 168.00 C 167.42 168.73 167.62 169.71 168.35 170.20 Z M 169.29 170.82 L 170.20 171.39 C 170.94 171.85 171.92 171.63 172.38 170.89 C 172.85 170.15 172.62 169.17 171.88 168.70 L 170.98 168.14 C 170.24 167.67 169.26 167.90 168.79 168.64 C 168.33 169.38 168.55 170.36 169.29 170.82 Z M 170.23 171.41 L 171.11 171.93 C 171.86 172.38 172.83 172.13 173.28 171.38 C 173.73 170.63 173.48 169.66 172.73 169.21 L 171.85 168.69 C 171.10 168.24 170.13 168.49 169.68 169.24 C 169.23 169.99 169.48 170.96 170.23 171.41 Z M 171.14 171.94 L 172.04 172.45 C 172.80 172.89 173.76 172.62 174.19 171.86 C 174.62 171.11 174.36 170.14 173.60 169.71 L 172.70 169.20 C 171.94 168.77 170.98 169.03 170.55 169.79 C 170.12 170.55 170.38 171.51 171.14 171.94 Z M 172.07 172.47 L 172.97 172.95 C 173.73 173.37 174.69 173.09 175.10 172.33 C 175.52 171.56 175.24 170.61 174.47 170.19 L 173.57 169.70 C 172.81 169.29 171.86 169.57 171.44 170.33 C 171.03 171.10 171.31 172.05 172.07 172.47 Z M 173.00 172.96 L 173.87 173.42 C 174.64 173.82 175.58 173.52 175.98 172.75 C 176.38 171.98 176.08 171.03 175.31 170.64 L 174.44 170.18 C 173.68 169.78 172.73 170.08 172.33 170.85 C 171.93 171.62 172.23 172.56 173.00 172.96 Z M 173.90 173.43 L 174.78 173.86 C 175.55 174.24 176.49 173.92 176.87 173.15 C 177.25 172.37 176.93 171.44 176.16 171.06 L 175.28 170.62 C 174.51 170.24 173.57 170.56 173.19 171.34 C 172.81 172.11 173.13 173.05 173.90 173.43 Z M 174.83 173.87 L 175.84 174.33 C 176.62 174.68 177.54 174.33 177.89 173.55 C 178.24 172.77 177.90 171.86 177.12 171.50 L 176.11 171.05 C 175.33 170.69 174.41 171.04 174.06 171.82 C 173.70 172.60 174.05 173.51 174.83 173.87 Z M 175.90 174.33 L 176.82 174.70 C 177.60 175.02 178.50 174.65 178.81 173.86 C 179.13 173.08 178.75 172.19 177.97 171.87 L 177.05 171.50 C 176.27 171.18 175.38 171.56 175.06 172.34 C 174.74 173.12 175.12 174.01 175.90 174.33 Z M 176.88 174.71 L 177.75 175.02 C 178.54 175.31 179.40 174.90 179.69 174.11 C 179.97 173.33 179.56 172.46 178.78 172.18 L 177.91 171.86 C 177.12 171.58 176.26 171.99 175.97 172.77 C 175.69 173.56 176.10 174.43 176.88 174.71 Z M 177.80 175.02 L 178.68 175.31 C 179.47 175.56 180.31 175.13 180.57 174.35 C 180.82 173.56 180.39 172.72 179.60 172.46 L 178.72 172.18 C 177.94 171.92 177.10 172.35 176.84 173.14 C 176.59 173.92 177.02 174.77 177.80 175.02 Z M 178.73 175.31 L 179.67 175.58 C 180.45 175.81 181.27 175.37 181.51 174.58 C 181.74 173.80 181.29 172.97 180.50 172.74 L 179.56 172.47 C 178.78 172.23 177.96 172.68 177.72 173.47 C 177.49 174.25 177.94 175.07 178.73 175.31 Z M 179.71 175.58 L 180.67 175.84 C 181.46 176.05 182.26 175.58 182.47 174.80 C 182.68 174.01 182.21 173.21 181.43 173.00 L 180.46 172.74 C 179.68 172.54 178.88 173.00 178.67 173.79 C 178.46 174.57 178.92 175.37 179.71 175.58 Z M 180.71 175.84 L 181.71 176.07 C 182.49 176.26 183.27 175.78 183.46 174.99 C 183.65 174.21 183.16 173.43 182.38 173.24 L 181.39 173.00 C 180.61 172.82 179.82 173.30 179.64 174.08 C 179.45 174.87 179.93 175.65 180.71 175.84 Z M 181.75 176.07 L 182.71 176.28 C 183.49 176.44 184.26 175.94 184.43 175.16 C 184.59 174.38 184.09 173.61 183.31 173.45 L 182.34 173.24 C 181.56 173.08 180.80 173.58 180.63 174.36 C 180.46 175.14 180.96 175.91 181.75 176.07 Z M 182.75 176.28 L 183.73 176.46 C 184.51 176.60 185.26 176.09 185.40 175.31 C 185.55 174.52 185.03 173.77 184.25 173.63 L 183.28 173.45 C 182.49 173.30 181.74 173.82 181.60 174.60 C 181.45 175.38 181.97 176.13 182.75 176.28 Z M 183.76 176.46 L 184.76 176.62 C 185.54 176.74 186.27 176.21 186.40 175.43 C 186.53 174.65 185.99 173.91 185.21 173.79 L 184.22 173.63 C 183.43 173.50 182.70 174.03 182.57 174.82 C 182.45 175.60 182.98 176.33 183.76 176.46 Z M 184.79 176.62 L 185.80 176.75 C 186.58 176.86 187.30 176.31 187.41 175.53 C 187.51 174.74 186.96 174.03 186.18 173.92 L 185.17 173.78 C 184.39 173.68 183.67 174.23 183.57 175.01 C 183.46 175.79 184.01 176.51 184.79 176.62 Z M 185.84 176.76 L 186.83 176.86 C 187.61 176.95 188.32 176.38 188.40 175.60 C 188.49 174.81 187.92 174.11 187.14 174.03 L 186.14 173.92 C 185.36 173.83 184.66 174.40 184.57 175.18 C 184.49 175.97 185.05 176.67 185.84 176.76 Z M 186.86 176.87 L 187.85 176.95 C 188.64 177.02 189.33 176.44 189.40 175.66 C 189.47 174.87 188.89 174.18 188.10 174.11 L 187.11 174.02 C 186.32 173.95 185.63 174.53 185.56 175.32 C 185.49 176.10 186.07 176.80 186.86 176.87 Z M 187.87 176.95 L 188.87 177.03 C 189.66 177.09 190.34 176.50 190.40 175.71 C 190.46 174.93 189.87 174.24 189.08 174.18 L 188.08 174.11 C 187.30 174.05 186.61 174.64 186.55 175.43 C 186.50 176.21 187.09 176.90 187.87 176.95 Z M 188.88 177.03 L 189.88 177.10 C 190.67 177.15 191.35 176.56 191.40 175.77 C 191.45 174.99 190.86 174.31 190.07 174.25 L 189.07 174.18 C 188.29 174.13 187.61 174.72 187.55 175.51 C 187.50 176.30 188.09 176.98 188.88 177.03 Z"
      fill="black"
      fill-rule="nonzero" /></svg>