<svg xmlns="http://www.w3.org/2000/svg" width="300" height="300" viewBox="0 0 300 300">
<path d="M 111.52 122.43 L 110.49 121.59 C 109.79 121.03 108.78 121.14 108.22 121.83 C 107.65 122.52 107.76 123.54 108.45 124.10 L 109.49 124.94 C 110.18 125.50 111.20 125.40 111.76 124.70 C 112.32 124.01 112.21 123.00 111.52 122.43 Z M 110.29 121.43 L 109.67 121.07 C 108.89 120.61 107.88 120.88 107.43 121.65 C 106.97 122.43 107.24 123.44 108.02 123.89 L 108.64 124.26 C 109.42 124.71 110.43 124.45 110.88 123.67 C 111.34 122.89 111.07 121.89 110.29 121.43 Z M 107.21 122.70 L 107.26 123.05 C 107.38 123.95 108.21 124.58 109.11 124.46 C 110.01 124.34 110.64 123.51 110.52 122.61 L 110.47 122.26 C 110.35 121.36 109.52 120.73 108.62 120.85 C 107.72 120.97 107.09 121.80 107.21 122.70 Z M 107.48 123.66 L 107.99 124.53 C 108.45 125.31 109.45 125.57 110.23 125.12 C 111.01 124.66 111.27 123.65 110.81 122.87 L 110.30 122.00 C 109.84 121.22 108.84 120.96 108.06 121.42 C 107.28 121.88 107.02 122.88 107.48 123.66 Z M 108.05 124.62 L 108.86 125.81 C 109.37 126.55 110.38 126.74 111.12 126.24 C 111.87 125.73 112.06 124.72 111.56 123.97 L 110.75 122.79 C 110.24 122.04 109.23 121.85 108.48 122.35 C 107.74 122.86 107.55 123.87 108.05 124.62 Z M 108.89 125.83 L 109.45 126.61 C 109.97 127.34 110.98 127.50 111.70 126.98 C 112.43 126.47 112.60 125.46 112.08 124.73 L 111.52 123.95 C 111.00 123.23 110.00 123.06 109.27 123.58 C 108.54 124.09 108.37 125.10 108.89 125.83 Z M 109.48 126.61 L 110.08 127.43 C 110.60 128.15 111.60 128.30 112.31 127.78 C 113.02 127.26 113.18 126.26 112.66 125.55 L 112.05 124.73 C 111.53 124.02 110.54 123.86 109.82 124.38 C 109.11 124.90 108.96 125.90 109.48 126.61 Z M 110.10 127.43 L 110.72 128.27 C 111.24 128.97 112.22 129.11 112.92 128.60 C 113.62 128.08 113.77 127.09 113.25 126.39 L 112.63 125.55 C 112.11 124.85 111.13 124.71 110.43 125.23 C 109.73 125.74 109.58 126.73 110.10 127.43 Z M 110.74 128.26 L 111.35 129.08 C 111.87 129.77 112.84 129.91 113.53 129.40 C 114.22 128.88 114.36 127.90 113.85 127.22 L 113.23 126.40 C 112.72 125.71 111.74 125.57 111.05 126.08 C 110.36 126.60 110.22 127.57 110.74 128.26 Z M 111.37 129.07 L 111.95 129.85 C 112.46 130.53 113.43 130.66 114.11 130.15 C 114.79 129.64 114.92 128.68 114.41 128.00 L 113.83 127.22 C 113.32 126.55 112.35 126.41 111.67 126.92 C 110.99 127.43 110.86 128.40 111.37 129.07 Z M 111.97 129.84 L 112.66 130.75 C 113.17 131.42 114.12 131.55 114.79 131.05 C 115.45 130.54 115.59 129.59 115.08 128.93 L 114.39 128.01 C 113.89 127.34 112.94 127.21 112.27 127.71 C 111.60 128.22 111.47 129.17 111.97 129.84 Z M 112.68 130.73 L 113.29 131.55 C 113.78 132.21 114.72 132.34 115.38 131.85 C 116.04 131.35 116.17 130.42 115.68 129.76 L 115.07 128.94 C 114.57 128.29 113.64 128.15 112.98 128.64 C 112.32 129.14 112.18 130.07 112.68 130.73 Z M 113.30 131.52 L 113.85 132.27 C 114.33 132.93 115.24 133.07 115.90 132.59 C 116.55 132.11 116.69 131.19 116.22 130.54 L 115.67 129.79 C 115.19 129.13 114.27 128.99 113.62 129.47 C 112.96 129.95 112.82 130.87 113.30 131.52 Z M 113.85 132.24 L 114.37 132.98 C 114.83 133.63 115.73 133.79 116.38 133.33 C 117.04 132.87 117.19 131.97 116.73 131.32 L 116.21 130.58 C 115.76 129.92 114.86 129.77 114.20 130.22 C 113.55 130.68 113.39 131.58 113.85 132.24 Z M 114.36 132.94 L 114.92 133.78 C 115.36 134.44 116.25 134.62 116.91 134.18 C 117.56 133.74 117.74 132.85 117.30 132.19 L 116.74 131.35 C 116.31 130.69 115.42 130.52 114.76 130.95 C 114.10 131.39 113.92 132.28 114.36 132.94 Z M 114.91 133.76 L 115.44 134.60 C 115.87 135.26 116.75 135.46 117.42 135.03 C 118.08 134.61 118.28 133.73 117.85 133.06 L 117.32 132.22 C 116.89 131.55 116.01 131.36 115.34 131.78 C 114.68 132.21 114.48 133.09 114.91 133.76 Z M 115.44 134.58 L 115.96 135.42 C 116.38 136.09 117.26 136.30 117.93 135.88 C 118.60 135.46 118.80 134.58 118.38 133.92 L 117.86 133.07 C 117.44 132.41 116.56 132.20 115.89 132.62 C 115.23 133.03 115.02 133.91 115.44 134.58 Z M 115.96 135.42 L 116.04 135.55 C 116.45 136.22 117.33 136.43 118.00 136.01 C 118.67 135.60 118.88 134.72 118.46 134.05 L 118.38 133.92 C 117.97 133.25 117.09 133.04 116.42 133.46 C 115.75 133.87 115.55 134.75 115.96 135.42 Z"
      fill="black"
      fill-rule="nonzero" /><path d="M 105.94 149.17 L 106.14 150.05 C 106.34 150.89 107.17 151.41 108.01 151.22 C 108.85 151.02 109.38 150.19 109.18 149.35 L 108.98 148.47 C 108.79 147.63 107.95 147.11 107.11 147.30 C 106.27 147.49 105.75 148.33 105.94 149.17 Z M 106.17 150.15 L 106.44 151.06 C 106.69 151.89 107.57 152.35 108.40 152.10 C 109.22 151.85 109.69 150.97 109.44 150.15 L 109.16 149.24 C 108.91 148.41 108.04 147.95 107.21 148.20 C 106.38 148.45 105.91 149.33 106.17 150.15 Z M 106.50 151.23 L 106.93 152.20 C 107.27 153.00 108.20 153.36 108.99 153.01 C 109.79 152.66 110.15 151.74 109.80 150.94 L 109.38 149.97 C 109.03 149.18 108.10 148.82 107.31 149.16 C 106.51 149.51 106.15 150.44 106.50 151.23 Z M 107.01 152.37 L 107.55 153.27 C 107.99 154.01 108.95 154.26 109.70 153.81 C 110.44 153.37 110.69 152.41 110.24 151.66 L 109.71 150.77 C 109.27 150.02 108.31 149.78 107.56 150.22 C 106.82 150.67 106.57 151.63 107.01 152.37 Z M 107.63 153.37 L 108.18 154.15 C 108.68 154.85 109.65 155.02 110.35 154.52 C 111.05 154.02 111.22 153.05 110.72 152.35 L 110.16 151.57 C 109.67 150.86 108.70 150.70 108.00 151.20 C 107.29 151.69 107.13 152.66 107.63 153.37 Z M 108.24 154.19 L 108.86 155.00 C 109.38 155.67 110.34 155.80 111.01 155.28 C 111.69 154.76 111.81 153.80 111.29 153.13 L 110.67 152.32 C 110.15 151.64 109.19 151.52 108.52 152.04 C 107.84 152.55 107.72 153.52 108.24 154.19 Z M 108.89 155.01 L 109.54 155.82 C 110.07 156.48 111.02 156.59 111.67 156.06 C 112.33 155.54 112.44 154.59 111.91 153.93 L 111.26 153.12 C 110.74 152.46 109.79 152.36 109.13 152.88 C 108.48 153.40 108.37 154.35 108.89 155.01 Z M 109.56 155.81 L 110.19 156.61 C 110.71 157.26 111.65 157.37 112.29 156.85 C 112.94 156.34 113.05 155.40 112.54 154.75 L 111.90 153.95 C 111.39 153.30 110.45 153.19 109.80 153.71 C 109.15 154.22 109.04 155.16 109.56 155.81 Z M 110.19 156.57 L 110.82 157.42 C 111.31 158.07 112.24 158.20 112.89 157.71 C 113.54 157.21 113.67 156.29 113.18 155.64 L 112.54 154.79 C 112.05 154.14 111.13 154.01 110.48 154.50 C 109.82 154.99 109.69 155.92 110.19 156.57 Z M 110.80 157.36 L 111.40 158.23 C 111.87 158.89 112.78 159.05 113.44 158.59 C 114.10 158.13 114.27 157.22 113.81 156.55 L 113.20 155.69 C 112.74 155.03 111.83 154.86 111.17 155.33 C 110.50 155.79 110.34 156.70 110.80 157.36 Z M 111.39 158.18 L 111.92 159.01 C 112.36 159.68 113.26 159.87 113.93 159.44 C 114.60 159.00 114.79 158.10 114.36 157.43 L 113.82 156.60 C 113.39 155.93 112.49 155.74 111.82 156.17 C 111.14 156.61 110.95 157.51 111.39 158.18 Z M 111.91 158.97 L 112.41 159.77 C 112.82 160.45 113.71 160.66 114.39 160.25 C 115.06 159.83 115.28 158.94 114.86 158.27 L 114.37 157.46 C 113.95 156.79 113.06 156.58 112.39 156.99 C 111.71 157.41 111.50 158.29 111.91 158.97 Z M 112.41 159.76 L 112.72 160.27 C 113.13 160.95 114.01 161.17 114.68 160.76 C 115.36 160.36 115.58 159.48 115.17 158.80 L 114.86 158.28 C 114.45 157.61 113.57 157.39 112.90 157.80 C 112.22 158.20 112.00 159.08 112.41 159.76 Z"
      fill="black"
      fill-rule="nonzero" /><path d="M 102.93 197.65 L 101.74 197.28 C 100.87 197.00 99.94 197.49 99.67 198.36 C 99.39 199.23 99.88 200.15 100.75 200.43 L 101.94 200.80 C 102.81 201.07 103.74 200.59 104.01 199.72 C 104.28 198.85 103.80 197.92 102.93 197.65 Z M 101.78 197.27 L 100.67 196.89 C 99.80 196.59 98.85 197.06 98.56 197.93 C 98.26 198.80 98.72 199.75 99.59 200.05 L 100.70 200.43 C 101.57 200.73 102.52 200.26 102.82 199.39 C 103.12 198.52 102.65 197.57 101.78 197.27 Z M 100.78 196.91 L 99.84 196.53 C 98.98 196.17 97.99 196.58 97.64 197.44 C 97.28 198.30 97.69 199.29 98.55 199.64 L 99.49 200.03 C 100.35 200.39 101.34 199.98 101.69 199.12 C 102.05 198.25 101.64 197.27 100.78 196.91 Z M 100.06 196.62 L 99.38 196.22 C 98.57 195.74 97.52 196.01 97.05 196.82 C 96.57 197.64 96.84 198.68 97.66 199.16 L 98.34 199.55 C 99.15 200.03 100.19 199.76 100.67 198.95 C 101.14 198.14 100.87 197.09 100.06 196.62 Z M 99.93 196.71 L 99.56 196.18 C 99.02 195.40 97.95 195.21 97.17 195.75 C 96.39 196.29 96.20 197.36 96.74 198.14 L 97.11 198.67 C 97.65 199.45 98.72 199.64 99.50 199.10 C 100.28 198.56 100.47 197.48 99.93 196.71 Z M 99.74 197.83 L 100.04 197.11 C 100.42 196.24 100.01 195.23 99.13 194.85 C 98.26 194.48 97.25 194.89 96.87 195.76 L 96.57 196.48 C 96.19 197.36 96.60 198.37 97.47 198.74 C 98.35 199.12 99.36 198.71 99.74 197.83 Z M 99.55 197.77 L 100.42 197.06 C 101.15 196.45 101.26 195.37 100.65 194.63 C 100.05 193.90 98.96 193.79 98.22 194.40 L 97.36 195.11 C 96.63 195.71 96.52 196.80 97.13 197.53 C 97.73 198.27 98.82 198.37 99.55 197.77 Z M 100.24 197.18 L 101.14 196.61 C 101.95 196.10 102.18 195.04 101.68 194.23 C 101.17 193.43 100.10 193.19 99.30 193.70 L 98.40 194.27 C 97.60 194.78 97.36 195.85 97.87 196.65 C 98.37 197.45 99.44 197.69 100.24 197.18 Z M 101.08 196.64 L 101.92 196.16 C 102.75 195.68 103.03 194.63 102.55 193.81 C 102.08 192.99 101.03 192.71 100.20 193.18 L 99.36 193.67 C 98.54 194.14 98.26 195.19 98.73 196.02 C 99.21 196.84 100.26 197.12 101.08 196.64 Z M 101.89 196.17 L 102.77 195.69 C 103.60 195.23 103.90 194.19 103.44 193.36 C 102.99 192.53 101.95 192.23 101.12 192.68 L 100.24 193.17 C 99.41 193.62 99.11 194.67 99.56 195.50 C 100.02 196.33 101.06 196.63 101.89 196.17 Z M 102.76 195.69 L 103.67 195.19 C 104.50 194.74 104.80 193.70 104.35 192.87 C 103.90 192.04 102.86 191.74 102.03 192.19 L 101.12 192.68 C 100.29 193.14 99.99 194.18 100.44 195.00 C 100.89 195.83 101.93 196.14 102.76 195.69 Z M 103.67 195.18 L 104.35 194.81 C 105.18 194.35 105.47 193.31 105.02 192.49 C 104.56 191.67 103.52 191.37 102.70 191.82 L 102.02 192.20 C 101.20 192.66 100.90 193.69 101.36 194.52 C 101.81 195.34 102.85 195.64 103.67 195.18 Z M 104.36 194.80 L 105.10 194.39 C 105.92 193.93 106.21 192.89 105.75 192.07 C 105.29 191.25 104.25 190.96 103.43 191.42 L 102.69 191.83 C 101.87 192.29 101.58 193.33 102.04 194.15 C 102.50 194.97 103.54 195.26 104.36 194.80 Z M 105.10 194.38 L 105.93 193.91 C 106.75 193.45 107.04 192.42 106.58 191.60 C 106.12 190.78 105.08 190.49 104.27 190.95 L 103.43 191.42 C 102.62 191.88 102.33 192.92 102.79 193.74 C 103.25 194.55 104.28 194.84 105.10 194.38 Z M 105.93 193.91 L 106.90 193.36 C 107.71 192.90 108.00 191.87 107.54 191.06 C 107.08 190.24 106.05 189.95 105.23 190.41 L 104.27 190.96 C 103.45 191.42 103.17 192.45 103.63 193.26 C 104.09 194.08 105.12 194.37 105.93 193.91 Z M 106.89 193.36 L 108.02 192.72 C 108.83 192.26 109.12 191.24 108.66 190.42 C 108.21 189.61 107.18 189.32 106.36 189.78 L 105.24 190.42 C 104.42 190.88 104.14 191.90 104.59 192.72 C 105.05 193.53 106.08 193.82 106.89 193.36 Z M 108.02 192.72 L 108.84 192.26 C 109.65 191.80 109.94 190.78 109.48 189.97 C 109.02 189.16 108.00 188.87 107.19 189.32 L 106.37 189.79 C 105.56 190.24 105.27 191.27 105.73 192.08 C 106.18 192.89 107.21 193.17 108.02 192.72 Z M 108.83 192.25 L 109.68 191.78 C 110.49 191.33 110.77 190.30 110.32 189.50 C 109.87 188.69 108.84 188.40 108.04 188.85 L 107.19 189.33 C 106.39 189.78 106.10 190.80 106.55 191.61 C 107.00 192.42 108.03 192.71 108.83 192.25 Z M 109.67 191.78 L 110.56 191.28 C 111.37 190.83 111.65 189.81 111.20 189.00 C 110.75 188.20 109.73 187.91 108.93 188.36 L 108.04 188.86 C 107.24 189.31 106.95 190.33 107.40 191.13 C 107.85 191.94 108.87 192.23 109.67 191.78 Z M 110.56 191.27 L 111.47 190.76 C 112.27 190.32 112.56 189.30 112.11 188.50 C 111.66 187.69 110.65 187.41 109.84 187.86 L 108.93 188.37 C 108.13 188.82 107.84 189.83 108.29 190.63 C 108.74 191.44 109.75 191.72 110.56 191.27 Z M 111.47 190.76 L 112.39 190.24 C 113.19 189.80 113.48 188.79 113.03 187.99 C 112.58 187.18 111.57 186.90 110.77 187.35 L 109.85 187.86 C 109.05 188.31 108.76 189.32 109.21 190.12 C 109.65 190.92 110.67 191.21 111.47 190.76 Z M 112.39 190.24 L 113.30 189.73 C 114.10 189.29 114.38 188.28 113.94 187.48 C 113.49 186.68 112.49 186.39 111.69 186.84 L 110.77 187.35 C 109.97 187.79 109.69 188.80 110.13 189.60 C 110.58 190.40 111.59 190.69 112.39 190.24 Z M 113.30 189.73 L 114.19 189.23 C 114.98 188.79 115.27 187.78 114.83 186.99 C 114.38 186.19 113.38 185.90 112.58 186.35 L 111.69 186.84 C 110.90 187.29 110.61 188.29 111.05 189.09 C 111.50 189.88 112.50 190.17 113.30 189.73 Z M 114.18 189.23 L 115.03 188.75 C 115.83 188.31 116.11 187.31 115.67 186.52 C 115.23 185.72 114.23 185.44 113.44 185.88 L 112.59 186.35 C 111.79 186.79 111.51 187.79 111.95 188.59 C 112.39 189.38 113.39 189.67 114.18 189.23 Z M 115.03 188.75 L 115.99 188.21 C 116.78 187.77 117.07 186.78 116.63 185.99 C 116.19 185.20 115.20 184.91 114.41 185.35 L 113.44 185.89 C 112.65 186.33 112.37 187.32 112.81 188.11 C 113.24 188.90 114.24 189.18 115.03 188.75 Z M 115.98 188.19 L 117.00 187.63 C 117.78 187.20 118.07 186.22 117.63 185.44 C 117.20 184.66 116.22 184.37 115.44 184.80 L 114.42 185.37 C 113.64 185.80 113.36 186.78 113.79 187.56 C 114.22 188.34 115.20 188.63 115.98 188.19 Z M 116.99 187.61 L 117.91 187.10 C 118.68 186.68 118.96 185.71 118.53 184.94 C 118.11 184.17 117.14 183.89 116.37 184.32 L 115.45 184.82 C 114.68 185.25 114.40 186.22 114.83 186.99 C 115.25 187.75 116.22 188.03 116.99 187.61 Z M 117.90 187.08 L 118.73 186.62 C 119.49 186.20 119.77 185.25 119.35 184.49 C 118.93 183.73 117.98 183.46 117.22 183.88 L 116.38 184.34 C 115.62 184.76 115.35 185.71 115.77 186.47 C 116.19 187.22 117.14 187.50 117.90 187.08 Z M 118.72 186.60 L 119.50 186.17 C 120.25 185.75 120.52 184.81 120.10 184.07 C 119.69 183.32 118.75 183.05 118.01 183.47 L 117.23 183.90 C 116.48 184.31 116.21 185.25 116.63 186.00 C 117.04 186.74 117.98 187.01 118.72 186.60 Z M 119.50 186.14 L 120.24 185.73 C 120.97 185.32 121.23 184.39 120.82 183.66 C 120.41 182.93 119.49 182.67 118.76 183.08 L 118.01 183.49 C 117.28 183.90 117.02 184.82 117.43 185.56 C 117.84 186.29 118.76 186.55 119.50 186.14 Z M 120.23 185.71 L 121.07 185.24 C 121.79 184.83 122.04 183.92 121.64 183.20 C 121.23 182.47 120.31 182.22 119.59 182.63 L 118.76 183.10 C 118.04 183.50 117.78 184.42 118.19 185.14 C 118.60 185.86 119.51 186.11 120.23 185.71 Z M 121.07 185.22 L 121.94 184.72 C 122.65 184.31 122.90 183.41 122.49 182.69 C 122.08 181.98 121.18 181.74 120.46 182.14 L 119.59 182.64 C 118.88 183.05 118.63 183.96 119.04 184.67 C 119.45 185.38 120.36 185.63 121.07 185.22 Z M 121.95 184.70 L 122.81 184.20 C 123.51 183.79 123.75 182.89 123.34 182.19 C 122.93 181.48 122.02 181.25 121.32 181.66 L 120.46 182.16 C 119.76 182.57 119.52 183.47 119.93 184.18 C 120.34 184.88 121.24 185.12 121.95 184.70 Z M 122.81 184.18 L 123.67 183.67 C 124.36 183.26 124.59 182.36 124.17 181.67 C 123.76 180.98 122.86 180.75 122.17 181.16 L 121.32 181.67 C 120.62 182.09 120.40 182.99 120.81 183.68 C 121.22 184.37 122.12 184.60 122.81 184.18 Z M 123.68 183.66 L 124.52 183.14 C 125.21 182.72 125.42 181.82 125.00 181.14 C 124.58 180.46 123.69 180.24 123.01 180.66 L 122.16 181.18 C 121.48 181.60 121.26 182.49 121.68 183.18 C 122.10 183.86 122.99 184.07 123.68 183.66 Z M 124.53 183.12 L 125.38 182.59 C 126.05 182.16 126.26 181.27 125.83 180.60 C 125.41 179.93 124.52 179.72 123.84 180.15 L 123.00 180.68 C 122.32 181.10 122.12 181.99 122.55 182.67 C 122.97 183.34 123.86 183.54 124.53 183.12 Z M 125.39 182.58 L 126.23 182.03 C 126.90 181.60 127.09 180.71 126.66 180.05 C 126.23 179.38 125.34 179.19 124.67 179.62 L 123.83 180.16 C 123.16 180.59 122.97 181.48 123.40 182.15 C 123.83 182.81 124.72 183.01 125.39 182.58 Z M 126.24 182.03 L 127.07 181.48 C 127.74 181.04 127.92 180.15 127.49 179.49 C 127.05 178.83 126.16 178.64 125.50 179.08 L 124.66 179.63 C 124.00 180.06 123.82 180.95 124.25 181.61 C 124.69 182.28 125.57 182.46 126.24 182.03 Z M 127.08 181.47 L 127.91 180.92 C 128.57 180.48 128.75 179.59 128.31 178.93 C 127.88 178.28 126.99 178.10 126.33 178.53 L 125.50 179.09 C 124.84 179.52 124.66 180.41 125.09 181.07 C 125.53 181.73 126.42 181.91 127.08 181.47 Z M 127.91 180.91 L 128.63 180.44 C 129.28 180.00 129.46 179.11 129.02 178.46 C 128.59 177.80 127.70 177.62 127.04 178.06 L 126.33 178.54 C 125.67 178.97 125.50 179.86 125.93 180.52 C 126.37 181.17 127.26 181.35 127.91 180.91 Z"
      fill="black"
      fill-rule="nonzero" /><path d="M 144.53 114.56 L 144.17 115.40 C 143.80 116.27 144.21 117.26 145.07 117.63 C 145.93 117.99 146.93 117.59 147.30 116.73 L 147.65 115.88 C 148.02 115.02 147.62 114.02 146.75 113.66 C 145.89 113.29 144.89 113.69 144.53 114.56 Z M 144.13 115.48 L 143.80 116.38 C 143.48 117.27 143.94 118.25 144.83 118.57 C 145.71 118.89 146.69 118.43 147.01 117.54 L 147.34 116.65 C 147.66 115.76 147.20 114.78 146.31 114.46 C 145.43 114.14 144.45 114.60 144.13 115.48 Z M 143.75 116.53 L 143.49 117.53 C 143.25 118.45 143.80 119.39 144.72 119.62 C 145.64 119.86 146.57 119.31 146.81 118.39 L 147.07 117.39 C 147.31 116.48 146.75 115.54 145.84 115.30 C 144.92 115.07 143.99 115.62 143.75 116.53 Z M 143.45 117.72 L 143.30 118.76 C 143.16 119.70 143.81 120.57 144.75 120.71 C 145.69 120.84 146.57 120.19 146.70 119.25 L 146.85 118.21 C 146.99 117.27 146.34 116.40 145.40 116.26 C 144.45 116.12 143.58 116.78 143.45 117.72 Z M 143.28 118.90 L 143.22 119.85 C 143.17 120.80 143.89 121.62 144.84 121.67 C 145.79 121.73 146.61 121.00 146.66 120.05 L 146.72 119.10 C 146.77 118.16 146.05 117.34 145.10 117.28 C 144.15 117.23 143.33 117.95 143.28 118.90 Z M 143.22 119.94 L 143.22 120.95 C 143.21 121.90 143.98 122.68 144.93 122.68 C 145.88 122.69 146.65 121.92 146.66 120.97 L 146.66 119.96 C 146.67 119.01 145.90 118.24 144.95 118.23 C 144.00 118.23 143.23 118.99 143.22 119.94 Z M 143.22 121.02 L 143.25 122.05 C 143.28 123.00 144.08 123.75 145.03 123.72 C 145.98 123.69 146.72 122.89 146.69 121.94 L 146.66 120.91 C 146.62 119.96 145.83 119.21 144.88 119.24 C 143.93 119.27 143.19 120.07 143.22 121.02 Z M 143.26 122.10 L 143.32 123.13 C 143.38 124.08 144.19 124.80 145.14 124.74 C 146.08 124.69 146.81 123.87 146.75 122.93 L 146.69 121.89 C 146.63 120.95 145.82 120.23 144.87 120.28 C 143.92 120.34 143.20 121.15 143.26 122.10 Z M 143.33 123.17 L 143.41 124.21 C 143.48 125.15 144.31 125.85 145.25 125.78 C 146.20 125.70 146.90 124.88 146.83 123.93 L 146.74 122.89 C 146.67 121.95 145.84 121.25 144.90 121.32 C 143.95 121.40 143.25 122.22 143.33 123.17 Z M 143.42 124.23 L 143.52 125.28 C 143.61 126.21 144.44 126.90 145.38 126.81 C 146.32 126.72 147.00 125.89 146.91 124.95 L 146.81 123.91 C 146.73 122.97 145.89 122.28 144.96 122.37 C 144.02 122.46 143.33 123.30 143.42 124.23 Z M 143.53 125.29 L 143.64 126.29 C 143.74 127.22 144.57 127.89 145.50 127.79 C 146.43 127.69 147.11 126.86 147.01 125.93 L 146.90 124.93 C 146.80 124.00 145.97 123.33 145.04 123.43 C 144.11 123.53 143.43 124.36 143.53 125.29 Z M 143.65 126.30 L 143.76 127.26 C 143.87 128.18 144.70 128.85 145.62 128.74 C 146.54 128.64 147.21 127.80 147.10 126.88 L 146.99 125.92 C 146.89 125.00 146.06 124.33 145.13 124.44 C 144.21 124.54 143.55 125.37 143.65 126.30 Z M 143.77 127.26 L 143.88 128.20 C 143.98 129.12 144.81 129.77 145.73 129.67 C 146.64 129.57 147.30 128.74 147.20 127.82 L 147.09 126.88 C 146.99 125.97 146.16 125.31 145.24 125.41 C 144.33 125.51 143.67 126.34 143.77 127.26 Z M 143.89 128.19 L 143.99 129.14 C 144.09 130.05 144.91 130.70 145.82 130.61 C 146.73 130.51 147.39 129.69 147.29 128.78 L 147.18 127.83 C 147.09 126.92 146.27 126.27 145.36 126.36 C 144.45 126.46 143.79 127.28 143.89 128.19 Z M 144.01 129.13 L 144.11 130.09 C 144.20 130.99 145.01 131.65 145.91 131.55 C 146.81 131.46 147.47 130.65 147.37 129.75 L 147.27 128.79 C 147.18 127.89 146.37 127.23 145.47 127.33 C 144.57 127.42 143.92 128.23 144.01 129.13 Z M 144.13 130.09 L 144.23 131.08 C 144.32 131.97 145.12 132.62 146.01 132.53 C 146.91 132.43 147.55 131.64 147.46 130.74 L 147.36 129.75 C 147.27 128.86 146.47 128.21 145.57 128.30 C 144.68 128.40 144.03 129.20 144.13 130.09 Z M 144.24 131.08 L 144.36 132.12 C 144.45 133.00 145.24 133.64 146.12 133.55 C 147.01 133.46 147.65 132.66 147.56 131.78 L 147.44 130.74 C 147.35 129.86 146.56 129.22 145.68 129.31 C 144.79 129.40 144.15 130.20 144.24 131.08 Z M 144.37 132.12 L 144.48 133.14 C 144.58 134.01 145.37 134.64 146.24 134.55 C 147.12 134.45 147.75 133.66 147.65 132.79 L 147.54 131.78 C 147.44 130.90 146.66 130.27 145.78 130.37 C 144.91 130.46 144.28 131.25 144.37 132.12 Z M 144.50 133.14 L 144.61 134.13 C 144.71 135.00 145.49 135.62 146.36 135.52 C 147.23 135.42 147.85 134.64 147.75 133.77 L 147.63 132.78 C 147.53 131.92 146.75 131.29 145.89 131.39 C 145.02 131.49 144.40 132.28 144.50 133.14 Z M 144.63 134.14 L 144.75 135.15 C 144.85 136.01 145.63 136.62 146.49 136.52 C 147.35 136.41 147.96 135.63 147.85 134.78 L 147.73 133.77 C 147.63 132.91 146.85 132.30 145.99 132.40 C 145.14 132.51 144.53 133.28 144.63 134.14 Z M 144.77 135.16 L 144.90 136.17 C 145.01 137.02 145.78 137.62 146.63 137.51 C 147.48 137.40 148.08 136.63 147.97 135.78 L 147.84 134.77 C 147.73 133.92 146.95 133.32 146.11 133.43 C 145.26 133.54 144.66 134.32 144.77 135.16 Z M 144.91 136.19 L 145.05 137.18 C 145.17 138.01 145.94 138.60 146.78 138.48 C 147.62 138.37 148.20 137.60 148.09 136.76 L 147.95 135.77 C 147.83 134.93 147.06 134.34 146.22 134.46 C 145.38 134.58 144.80 135.35 144.91 136.19 Z M 145.07 137.19 L 145.22 138.21 C 145.35 139.04 146.12 139.61 146.95 139.48 C 147.78 139.36 148.35 138.58 148.22 137.76 L 148.07 136.74 C 147.94 135.91 147.17 135.34 146.34 135.47 C 145.52 135.59 144.95 136.36 145.07 137.19 Z M 145.24 138.23 L 145.42 139.26 C 145.55 140.07 146.32 140.63 147.14 140.49 C 147.95 140.35 148.51 139.58 148.37 138.77 L 148.20 137.74 C 148.07 136.92 147.29 136.37 146.48 136.50 C 145.66 136.64 145.11 137.41 145.24 138.23 Z M 145.44 139.27 L 145.61 140.25 C 145.76 141.06 146.52 141.59 147.33 141.45 C 148.13 141.30 148.67 140.54 148.52 139.73 L 148.35 138.75 C 148.21 137.95 147.44 137.41 146.63 137.56 C 145.83 137.70 145.29 138.47 145.44 139.27 Z M 145.63 140.26 L 145.81 141.21 C 145.96 142.00 146.72 142.52 147.52 142.38 C 148.31 142.23 148.83 141.46 148.68 140.67 L 148.50 139.72 C 148.35 138.93 147.59 138.41 146.80 138.56 C 146.01 138.71 145.48 139.47 145.63 140.26 Z M 145.83 141.21 L 146.00 142.08 C 146.15 142.87 146.91 143.38 147.69 143.23 C 148.47 143.08 148.98 142.32 148.83 141.54 L 148.66 140.67 C 148.51 139.88 147.76 139.37 146.97 139.52 C 146.19 139.67 145.68 140.43 145.83 141.21 Z"
      fill="black"
      fill-rule="nonzero" /><path d="M 145.90 133.51 L 146.49 132.73 C 147.02 132.03 146.89 131.04 146.19 130.51 C 145.49 129.98 144.50 130.11 143.97 130.81 L 143.37 131.59 C 142.84 132.29 142.98 133.28 143.68 133.81 C 144.37 134.34 145.37 134.21 145.90 133.51 Z M 146.47 132.78 L 147.09 132.02 C 147.65 131.34 147.55 130.33 146.87 129.77 C 146.19 129.21 145.18 129.31 144.62 129.99 L 144.00 130.75 C 143.43 131.44 143.53 132.44 144.22 133.00 C 144.90 133.56 145.90 133.47 146.47 132.78 Z M 147.02 132.12 L 147.71 131.40 C 148.33 130.76 148.30 129.74 147.66 129.12 C 147.02 128.51 146.00 128.53 145.38 129.17 L 144.69 129.89 C 144.08 130.54 144.10 131.56 144.74 132.17 C 145.39 132.79 146.41 132.76 147.02 132.12 Z M 147.59 131.53 L 148.38 130.87 C 149.06 130.29 149.15 129.26 148.57 128.58 C 148.00 127.89 146.97 127.80 146.29 128.38 L 145.50 129.04 C 144.81 129.62 144.73 130.65 145.30 131.33 C 145.88 132.02 146.91 132.11 147.59 131.53 Z M 148.22 130.98 L 149.05 130.44 C 149.80 129.95 150.01 128.94 149.52 128.19 C 149.03 127.44 148.02 127.23 147.27 127.72 L 146.44 128.27 C 145.69 128.76 145.48 129.76 145.98 130.51 C 146.47 131.26 147.47 131.47 148.22 130.98 Z M 148.92 130.50 L 149.82 130.02 C 150.60 129.60 150.89 128.63 150.47 127.84 C 150.06 127.06 149.09 126.77 148.30 127.19 L 147.41 127.66 C 146.62 128.08 146.33 129.05 146.75 129.84 C 147.16 130.62 148.14 130.91 148.92 130.50 Z M 149.72 130.04 L 150.65 129.62 C 151.44 129.26 151.79 128.32 151.43 127.52 C 151.07 126.72 150.13 126.37 149.33 126.73 L 148.40 127.16 C 147.60 127.52 147.25 128.46 147.62 129.26 C 147.98 130.06 148.92 130.41 149.72 130.04 Z M 150.58 129.63 L 151.50 129.26 C 152.30 128.93 152.68 128.02 152.36 127.21 C 152.03 126.41 151.12 126.03 150.32 126.35 L 149.40 126.72 C 148.59 127.05 148.21 127.97 148.53 128.77 C 148.86 129.57 149.78 129.96 150.58 129.63 Z M 151.45 129.25 L 152.40 128.90 C 153.20 128.59 153.60 127.70 153.30 126.90 C 153.00 126.10 152.11 125.70 151.31 126.00 L 150.36 126.36 C 149.56 126.66 149.15 127.55 149.46 128.35 C 149.76 129.15 150.65 129.56 151.45 129.25 Z M 152.37 128.88 L 153.32 128.54 C 154.11 128.26 154.52 127.38 154.24 126.59 C 153.95 125.79 153.07 125.38 152.28 125.67 L 151.34 126.01 C 150.54 126.30 150.13 127.17 150.42 127.96 C 150.70 128.76 151.58 129.17 152.37 128.88 Z M 153.29 128.53 L 154.21 128.21 C 155.00 127.94 155.41 127.08 155.14 126.29 C 154.86 125.51 154.01 125.09 153.22 125.37 L 152.30 125.68 C 151.52 125.96 151.10 126.82 151.38 127.60 C 151.65 128.39 152.51 128.80 153.29 128.53 Z M 154.20 128.19 L 155.13 127.87 C 155.90 127.60 156.32 126.76 156.05 125.98 C 155.78 125.21 154.94 124.80 154.17 125.06 L 153.23 125.38 C 152.46 125.65 152.05 126.49 152.31 127.27 C 152.58 128.04 153.42 128.46 154.20 128.19 Z M 155.13 127.85 L 156.03 127.54 C 156.80 127.27 157.20 126.44 156.94 125.67 C 156.67 124.91 155.84 124.50 155.07 124.77 L 154.17 125.08 C 153.40 125.35 153.00 126.18 153.26 126.95 C 153.53 127.71 154.36 128.12 155.13 127.85 Z M 156.03 127.53 L 156.96 127.20 C 157.72 126.94 158.12 126.11 157.85 125.35 C 157.59 124.59 156.76 124.19 156.00 124.45 L 155.07 124.78 C 154.31 125.04 153.91 125.88 154.18 126.63 C 154.44 127.39 155.27 127.79 156.03 127.53 Z M 156.96 127.19 L 157.92 126.86 C 158.67 126.59 159.07 125.76 158.80 125.01 C 158.53 124.25 157.71 123.86 156.95 124.12 L 156.00 124.46 C 155.24 124.73 154.85 125.56 155.11 126.31 C 155.38 127.06 156.21 127.46 156.96 127.19 Z M 157.92 126.85 L 158.89 126.50 C 159.64 126.24 160.03 125.41 159.77 124.66 C 159.50 123.91 158.68 123.52 157.93 123.79 L 156.95 124.13 C 156.21 124.40 155.81 125.22 156.08 125.97 C 156.34 126.72 157.17 127.11 157.92 126.85 Z M 158.89 126.50 L 159.27 126.36 C 160.02 126.10 160.41 125.28 160.14 124.53 C 159.88 123.78 159.06 123.39 158.31 123.66 L 157.93 123.79 C 157.18 124.06 156.79 124.88 157.06 125.62 C 157.32 126.37 158.14 126.76 158.89 126.50 Z"
      fill="black"
      fill-rule="nonzero" /><path d="M 133.91 156.47 L 134.89 156.14 C 135.75 155.85 136.22 154.92 135.93 154.06 C 135.64 153.20 134.71 152.73 133.85 153.02 L 132.87 153.35 C 132.01 153.63 131.54 154.57 131.83 155.43 C 132.12 156.29 133.05 156.76 133.91 156.47 Z M 134.90 156.15 L 135.87 155.82 C 136.73 155.53 137.20 154.59 136.91 153.73 C 136.62 152.86 135.68 152.40 134.82 152.69 L 133.84 153.02 C 132.98 153.31 132.51 154.24 132.81 155.11 C 133.10 155.97 134.03 156.44 134.90 156.15 Z M 135.88 155.82 L 136.84 155.50 C 137.70 155.20 138.17 154.26 137.87 153.39 C 137.58 152.53 136.63 152.06 135.77 152.36 L 134.81 152.69 C 133.94 152.98 133.48 153.92 133.77 154.79 C 134.07 155.65 135.01 156.12 135.88 155.82 Z M 136.85 155.50 L 137.79 155.17 C 138.66 154.87 139.11 153.92 138.81 153.05 C 138.51 152.19 137.56 151.73 136.70 152.03 L 135.76 152.36 C 134.89 152.66 134.43 153.61 134.73 154.47 C 135.03 155.34 135.98 155.80 136.85 155.50 Z M 137.80 155.17 L 138.72 154.84 C 139.59 154.53 140.04 153.58 139.73 152.71 C 139.42 151.84 138.46 151.39 137.59 151.70 L 136.68 152.03 C 135.81 152.34 135.36 153.29 135.67 154.16 C 135.98 155.03 136.94 155.48 137.80 155.17 Z M 138.74 154.84 L 139.66 154.50 C 140.52 154.18 140.97 153.22 140.64 152.35 C 140.32 151.48 139.36 151.04 138.49 151.36 L 137.57 151.71 C 136.71 152.03 136.27 152.99 136.59 153.86 C 136.91 154.72 137.87 155.16 138.74 154.84 Z M 139.68 154.49 L 140.64 154.12 C 141.50 153.79 141.93 152.82 141.59 151.95 C 141.26 151.09 140.29 150.67 139.43 151.00 L 138.47 151.37 C 137.61 151.71 137.18 152.68 137.52 153.54 C 137.85 154.40 138.82 154.83 139.68 154.49 Z M 140.66 154.11 L 141.59 153.73 C 142.45 153.39 142.86 152.41 142.51 151.55 C 142.16 150.70 141.19 150.29 140.33 150.63 L 139.40 151.01 C 138.55 151.36 138.14 152.33 138.48 153.19 C 138.83 154.05 139.81 154.46 140.66 154.11 Z M 141.61 153.72 L 142.52 153.34 C 143.37 152.98 143.77 152.00 143.41 151.15 C 143.05 150.30 142.06 149.90 141.21 150.26 L 140.31 150.64 C 139.46 151.00 139.06 151.99 139.42 152.84 C 139.78 153.69 140.76 154.08 141.61 153.72 Z M 142.54 153.33 L 143.44 152.93 C 144.28 152.56 144.66 151.58 144.29 150.73 C 143.92 149.89 142.94 149.50 142.09 149.88 L 141.19 150.27 C 140.35 150.64 139.97 151.63 140.34 152.47 C 140.71 153.32 141.69 153.70 142.54 153.33 Z M 143.45 152.93 L 144.35 152.52 C 145.18 152.14 145.56 151.15 145.18 150.31 C 144.79 149.47 143.81 149.10 142.97 149.48 L 142.07 149.89 C 141.23 150.27 140.86 151.26 141.24 152.09 C 141.62 152.93 142.61 153.31 143.45 152.93 Z M 144.36 152.51 L 145.25 152.10 C 146.08 151.71 146.44 150.72 146.05 149.88 C 145.66 149.05 144.67 148.69 143.84 149.08 L 142.95 149.49 C 142.12 149.88 141.76 150.87 142.15 151.70 C 142.54 152.54 143.53 152.90 144.36 152.51 Z M 145.26 152.08 L 146.16 151.65 C 146.98 151.26 147.33 150.27 146.94 149.44 C 146.54 148.61 145.55 148.26 144.72 148.66 L 143.83 149.09 C 143.00 149.49 142.65 150.48 143.05 151.30 C 143.44 152.13 144.44 152.48 145.26 152.08 Z M 146.17 151.64 L 147.07 151.20 C 147.89 150.79 148.23 149.80 147.82 148.98 C 147.42 148.16 146.43 147.82 145.61 148.23 L 144.71 148.67 C 143.89 149.08 143.55 150.07 143.96 150.89 C 144.36 151.71 145.35 152.04 146.17 151.64 Z M 147.09 151.18 L 147.99 150.72 C 148.80 150.31 149.13 149.32 148.72 148.51 C 148.30 147.69 147.31 147.37 146.50 147.78 L 145.59 148.24 C 144.78 148.65 144.46 149.65 144.87 150.46 C 145.28 151.27 146.28 151.60 147.09 151.18 Z M 148.01 150.71 L 148.91 150.24 C 149.71 149.82 150.02 148.82 149.60 148.02 C 149.18 147.22 148.18 146.91 147.38 147.33 L 146.48 147.80 C 145.68 148.22 145.37 149.21 145.79 150.02 C 146.21 150.82 147.20 151.13 148.01 150.71 Z M 148.92 150.22 L 149.79 149.75 C 150.58 149.32 150.88 148.33 150.45 147.54 C 150.02 146.74 149.03 146.45 148.23 146.87 L 147.37 147.34 C 146.57 147.77 146.27 148.76 146.70 149.56 C 147.13 150.35 148.12 150.65 148.92 150.22 Z M 149.80 149.74 L 150.67 149.26 C 151.45 148.82 151.74 147.83 151.30 147.05 C 150.87 146.26 149.88 145.98 149.09 146.41 L 148.22 146.89 C 147.44 147.33 147.15 148.32 147.59 149.10 C 148.02 149.89 149.01 150.17 149.80 149.74 Z M 150.68 149.24 L 151.55 148.75 C 152.32 148.31 152.60 147.32 152.16 146.54 C 151.72 145.77 150.73 145.49 149.95 145.93 L 149.08 146.43 C 148.30 146.87 148.03 147.85 148.47 148.63 C 148.91 149.41 149.90 149.68 150.68 149.24 Z M 151.55 148.73 L 152.43 148.23 C 153.19 147.79 153.46 146.80 153.01 146.03 C 152.57 145.26 151.59 145.00 150.82 145.44 L 149.94 145.95 C 149.17 146.39 148.91 147.38 149.35 148.15 C 149.80 148.91 150.78 149.18 151.55 148.73 Z M 152.43 148.22 L 153.31 147.70 C 154.07 147.26 154.32 146.28 153.88 145.51 C 153.43 144.75 152.45 144.50 151.69 144.94 L 150.81 145.46 C 150.05 145.90 149.79 146.88 150.24 147.65 C 150.69 148.41 151.67 148.66 152.43 148.22 Z M 153.31 147.69 L 154.17 147.18 C 154.92 146.73 155.17 145.76 154.72 145.00 C 154.27 144.25 153.30 144.00 152.54 144.45 L 151.69 144.96 C 150.93 145.40 150.68 146.38 151.13 147.13 C 151.58 147.89 152.55 148.14 153.31 147.69 Z M 154.17 147.16 L 155.03 146.65 C 155.77 146.20 156.01 145.23 155.56 144.48 C 155.12 143.74 154.15 143.50 153.40 143.95 L 152.54 144.46 C 151.80 144.91 151.55 145.88 152.00 146.63 C 152.45 147.37 153.42 147.61 154.17 147.16 Z M 155.03 146.63 L 155.88 146.11 C 156.62 145.66 156.86 144.70 156.41 143.96 C 155.96 143.22 155.00 142.99 154.26 143.44 L 153.40 143.96 C 152.66 144.41 152.43 145.37 152.88 146.11 C 153.32 146.85 154.29 147.08 155.03 146.63 Z M 155.88 146.10 L 156.74 145.57 C 157.47 145.12 157.70 144.17 157.25 143.44 C 156.80 142.71 155.84 142.48 155.11 142.93 L 154.26 143.45 C 153.53 143.90 153.30 144.86 153.75 145.59 C 154.20 146.32 155.15 146.55 155.88 146.10 Z M 156.74 145.56 L 157.59 145.03 C 158.31 144.58 158.53 143.63 158.08 142.91 C 157.63 142.19 156.68 141.97 155.96 142.41 L 155.11 142.94 C 154.39 143.39 154.17 144.34 154.62 145.06 C 155.07 145.79 156.01 146.01 156.74 145.56 Z M 157.59 145.02 L 158.45 144.47 C 159.17 144.02 159.38 143.08 158.94 142.37 C 158.49 141.65 157.54 141.44 156.83 141.88 L 155.96 142.43 C 155.25 142.88 155.03 143.82 155.48 144.53 C 155.93 145.25 156.87 145.46 157.59 145.02 Z M 158.45 144.46 L 159.35 143.89 C 160.06 143.44 160.27 142.50 159.82 141.80 C 159.37 141.09 158.43 140.88 157.73 141.33 L 156.83 141.90 C 156.13 142.35 155.92 143.28 156.36 143.99 C 156.81 144.69 157.75 144.90 158.45 144.46 Z M 159.35 143.87 L 160.22 143.31 C 160.92 142.87 161.12 141.94 160.67 141.24 C 160.23 140.54 159.30 140.34 158.60 140.79 L 157.73 141.34 C 157.03 141.79 156.83 142.72 157.28 143.42 C 157.72 144.12 158.65 144.32 159.35 143.87 Z M 160.22 143.30 L 161.06 142.76 C 161.75 142.31 161.94 141.39 161.50 140.70 C 161.05 140.01 160.13 139.81 159.44 140.26 L 158.60 140.80 C 157.91 141.25 157.72 142.17 158.16 142.86 C 158.61 143.55 159.53 143.74 160.22 143.30 Z M 161.06 142.74 L 161.85 142.22 C 162.53 141.78 162.72 140.86 162.28 140.18 C 161.83 139.50 160.92 139.31 160.24 139.75 L 159.44 140.27 C 158.76 140.72 158.57 141.63 159.02 142.31 C 159.46 142.99 160.37 143.19 161.06 142.74 Z M 161.85 142.21 L 162.66 141.67 C 163.33 141.23 163.52 140.32 163.07 139.65 C 162.63 138.98 161.72 138.79 161.05 139.23 L 160.24 139.77 C 159.57 140.21 159.38 141.12 159.82 141.79 C 160.27 142.47 161.17 142.65 161.85 142.21 Z M 162.66 141.66 L 163.55 141.07 C 164.22 140.62 164.40 139.72 163.95 139.05 C 163.51 138.39 162.61 138.21 161.94 138.65 L 161.05 139.25 C 160.38 139.69 160.20 140.59 160.65 141.26 C 161.09 141.93 161.99 142.11 162.66 141.66 Z M 163.55 141.06 L 164.37 140.50 C 165.03 140.06 165.21 139.16 164.76 138.50 C 164.31 137.84 163.42 137.66 162.76 138.11 L 161.94 138.66 C 161.28 139.11 161.10 140.01 161.55 140.67 C 161.99 141.33 162.89 141.50 163.55 141.06 Z M 164.37 140.49 L 165.15 139.97 C 165.80 139.52 165.97 138.63 165.53 137.97 C 165.08 137.32 164.19 137.15 163.53 137.59 L 162.76 138.12 C 162.10 138.57 161.93 139.46 162.38 140.11 C 162.82 140.77 163.72 140.94 164.37 140.49 Z M 165.14 139.96 L 165.55 139.68 C 166.20 139.24 166.37 138.35 165.93 137.70 C 165.48 137.05 164.59 136.88 163.94 137.32 L 163.54 137.60 C 162.88 138.04 162.72 138.93 163.16 139.58 C 163.60 140.24 164.49 140.40 165.14 139.96 Z"
      fill="black"
      fill-rule="nonzero" /><path d="M 148.95 149.78 L 148.74 150.65 C 148.53 151.49 149.04 152.33 149.87 152.53 C 150.71 152.73 151.55 152.22 151.75 151.39 L 151.96 150.51 C 152.17 149.68 151.66 148.84 150.83 148.64 C 149.99 148.43 149.15 148.94 148.95 149.78 Z M 148.68 150.69 L 148.49 151.59 C 148.30 152.45 148.85 153.30 149.71 153.49 C 150.57 153.67 151.42 153.12 151.60 152.26 L 151.80 151.36 C 151.99 150.50 151.44 149.65 150.58 149.46 C 149.72 149.28 148.87 149.83 148.68 150.69 Z M 148.43 151.67 L 148.28 152.63 C 148.13 153.52 148.74 154.36 149.63 154.51 C 150.52 154.65 151.36 154.04 151.51 153.15 L 151.66 152.19 C 151.81 151.30 151.20 150.46 150.31 150.31 C 149.42 150.17 148.58 150.78 148.43 151.67 Z M 148.22 152.74 L 148.13 153.79 C 148.04 154.71 148.72 155.53 149.64 155.61 C 150.56 155.70 151.38 155.02 151.46 154.10 L 151.56 153.05 C 151.65 152.12 150.97 151.31 150.05 151.22 C 149.12 151.14 148.31 151.82 148.22 152.74 Z M 148.08 153.91 L 148.06 155.04 C 148.04 155.99 148.80 156.77 149.75 156.78 C 150.69 156.80 151.48 156.04 151.49 155.10 L 151.51 153.97 C 151.53 153.02 150.77 152.24 149.82 152.23 C 148.88 152.21 148.10 152.97 148.08 153.91 Z M 148.04 155.15 L 148.08 156.12 C 148.13 157.08 148.94 157.82 149.90 157.78 C 150.86 157.74 151.60 156.92 151.56 155.97 L 151.51 154.99 C 151.47 154.03 150.66 153.29 149.70 153.33 C 148.74 153.37 148.00 154.19 148.04 155.15 Z M 148.08 156.19 L 148.17 157.22 C 148.25 158.18 149.09 158.89 150.05 158.81 C 151.01 158.73 151.73 157.88 151.65 156.92 L 151.56 155.90 C 151.48 154.94 150.63 154.22 149.67 154.30 C 148.71 154.39 148.00 155.23 148.08 156.19 Z M 148.17 157.27 L 148.28 158.31 C 148.39 159.27 149.26 159.96 150.22 159.85 C 151.18 159.74 151.88 158.88 151.77 157.91 L 151.65 156.87 C 151.54 155.91 150.67 155.22 149.71 155.33 C 148.75 155.44 148.06 156.30 148.17 157.27 Z M 148.28 158.34 L 148.42 159.38 C 148.55 160.34 149.43 161.02 150.40 160.89 C 151.36 160.76 152.04 159.87 151.91 158.91 L 151.77 157.88 C 151.64 156.91 150.75 156.24 149.79 156.37 C 148.83 156.50 148.15 157.38 148.28 158.34 Z M 148.41 159.40 L 148.56 160.39 C 148.70 161.36 149.60 162.03 150.57 161.88 C 151.54 161.74 152.20 160.84 152.06 159.87 L 151.91 158.88 C 151.77 157.92 150.87 157.25 149.90 157.39 C 148.94 157.54 148.27 158.44 148.41 159.40 Z M 148.56 160.41 L 148.70 161.33 C 148.85 162.30 149.76 162.96 150.73 162.81 C 151.70 162.66 152.36 161.75 152.21 160.78 L 152.06 159.86 C 151.91 158.89 151.00 158.23 150.04 158.38 C 149.07 158.53 148.40 159.44 148.56 160.41 Z M 148.70 161.33 L 148.88 162.50 C 149.03 163.47 149.95 164.13 150.92 163.98 C 151.89 163.83 152.55 162.91 152.40 161.94 L 152.21 160.78 C 152.06 159.80 151.15 159.14 150.18 159.30 C 149.20 159.45 148.54 160.36 148.70 161.33 Z M 148.88 162.50 L 149.04 163.55 C 149.19 164.52 150.11 165.19 151.08 165.04 C 152.06 164.88 152.72 163.97 152.57 163.00 L 152.40 161.94 C 152.25 160.97 151.34 160.30 150.36 160.46 C 149.39 160.61 148.72 161.52 148.88 162.50 Z M 149.04 163.54 L 149.18 164.46 C 149.33 165.43 150.24 166.10 151.21 165.95 C 152.19 165.81 152.86 164.89 152.71 163.92 L 152.57 163.00 C 152.42 162.03 151.51 161.36 150.53 161.51 C 149.56 161.65 148.89 162.57 149.04 163.54 Z M 149.17 164.44 L 149.29 165.29 C 149.44 166.27 150.34 166.94 151.32 166.80 C 152.30 166.66 152.98 165.75 152.84 164.77 L 152.72 163.93 C 152.58 162.95 151.67 162.27 150.69 162.41 C 149.71 162.56 149.03 163.47 149.17 164.44 Z M 149.29 165.27 L 149.41 166.20 C 149.54 167.18 150.45 167.87 151.43 167.74 C 152.41 167.61 153.10 166.71 152.97 165.72 L 152.85 164.79 C 152.71 163.81 151.81 163.12 150.83 163.25 C 149.85 163.38 149.16 164.29 149.29 165.27 Z M 149.41 166.18 L 149.53 167.17 C 149.65 168.15 150.55 168.85 151.53 168.73 C 152.52 168.61 153.22 167.71 153.10 166.72 L 152.98 165.74 C 152.85 164.76 151.96 164.06 150.97 164.18 C 149.98 164.30 149.28 165.20 149.41 166.18 Z M 149.52 167.15 L 149.64 168.15 C 149.76 169.14 150.65 169.85 151.64 169.74 C 152.63 169.62 153.33 168.73 153.22 167.74 L 153.10 166.74 C 152.99 165.75 152.09 165.04 151.11 165.16 C 150.12 165.27 149.41 166.17 149.52 167.15 Z M 149.64 168.15 L 149.75 169.15 C 149.86 170.14 150.75 170.86 151.74 170.75 C 152.73 170.64 153.45 169.74 153.34 168.75 L 153.22 167.74 C 153.11 166.75 152.22 166.04 151.23 166.15 C 150.24 166.26 149.52 167.16 149.64 168.15 Z M 149.74 169.15 L 149.85 170.14 C 149.96 171.13 150.86 171.85 151.85 171.74 C 152.84 171.63 153.56 170.74 153.45 169.74 L 153.34 168.76 C 153.23 167.76 152.34 167.05 151.35 167.15 C 150.35 167.26 149.64 168.16 149.74 169.15 Z M 149.85 170.14 L 149.96 171.13 C 150.07 172.13 150.96 172.85 151.96 172.74 C 152.95 172.63 153.67 171.74 153.56 170.74 L 153.45 169.75 C 153.34 168.75 152.45 168.03 151.46 168.14 C 150.46 168.25 149.74 169.14 149.85 170.14 Z M 149.96 171.13 L 150.06 172.13 C 150.17 173.13 151.07 173.85 152.06 173.74 C 153.06 173.63 153.78 172.74 153.67 171.74 L 153.56 170.74 C 153.45 169.75 152.56 169.03 151.56 169.14 C 150.57 169.24 149.85 170.14 149.96 171.13 Z M 150.06 172.13 L 150.17 173.13 C 150.28 174.13 151.18 174.85 152.17 174.74 C 153.17 174.63 153.89 173.73 153.78 172.73 L 153.67 171.74 C 153.57 170.74 152.67 170.02 151.67 170.13 C 150.67 170.24 149.95 171.14 150.06 172.13 Z M 150.17 173.13 L 150.27 174.12 C 150.38 175.12 151.28 175.84 152.28 175.73 C 153.28 175.62 154.00 174.72 153.89 173.73 L 153.79 172.74 C 153.68 171.74 152.78 171.02 151.78 171.12 C 150.78 171.23 150.06 172.13 150.17 173.13 Z M 150.27 174.11 L 150.37 175.10 C 150.48 176.10 151.37 176.83 152.37 176.73 C 153.37 176.62 154.10 175.73 154.00 174.73 L 153.90 173.73 C 153.79 172.73 152.90 172.01 151.90 172.11 C 150.89 172.21 150.17 173.11 150.27 174.11 Z M 150.37 175.09 L 150.46 176.09 C 150.56 177.09 151.45 177.83 152.45 177.73 C 153.46 177.64 154.19 176.75 154.10 175.74 L 154.00 174.74 C 153.91 173.74 153.02 173.00 152.01 173.10 C 151.01 173.19 150.27 174.08 150.37 175.09 Z M 150.46 176.07 L 150.54 176.99 C 150.62 177.99 151.51 178.74 152.51 178.65 C 153.52 178.57 154.26 177.69 154.18 176.68 L 154.10 175.76 C 154.02 174.76 153.13 174.01 152.13 174.10 C 151.12 174.18 150.38 175.07 150.46 176.07 Z M 150.54 176.97 L 150.61 177.92 C 150.68 178.93 151.56 179.68 152.57 179.61 C 153.57 179.53 154.33 178.65 154.25 177.65 L 154.18 176.70 C 154.11 175.69 153.23 174.94 152.22 175.01 C 151.21 175.09 150.46 175.96 150.54 176.97 Z M 150.60 177.90 L 150.67 178.91 C 150.74 179.92 151.61 180.68 152.62 180.62 C 153.63 180.55 154.39 179.68 154.32 178.67 L 154.26 177.66 C 154.19 176.65 153.32 175.89 152.31 175.96 C 151.30 176.02 150.54 176.90 150.60 177.90 Z M 150.67 178.90 L 150.73 179.99 C 150.79 181.00 151.66 181.77 152.67 181.71 C 153.68 181.65 154.45 180.78 154.39 179.77 L 154.33 178.68 C 154.27 177.67 153.40 176.90 152.39 176.96 C 151.38 177.02 150.61 177.89 150.67 178.90 Z M 150.73 179.98 L 150.78 180.96 C 150.84 181.97 151.70 182.75 152.72 182.69 C 153.73 182.64 154.50 181.77 154.45 180.76 L 154.39 179.78 C 154.34 178.77 153.47 177.99 152.46 178.05 C 151.45 178.10 150.67 178.97 150.73 179.98 Z M 150.78 180.95 L 150.83 181.94 C 150.88 182.96 151.75 183.74 152.76 183.69 C 153.77 183.63 154.55 182.77 154.50 181.76 L 154.45 180.77 C 154.40 179.75 153.54 178.97 152.52 179.03 C 151.51 179.08 150.73 179.94 150.78 180.95 Z M 150.83 181.94 L 150.88 182.96 C 150.92 183.97 151.79 184.76 152.80 184.71 C 153.82 184.66 154.60 183.80 154.55 182.78 L 154.50 181.76 C 154.46 180.75 153.59 179.96 152.58 180.01 C 151.56 180.06 150.78 180.92 150.83 181.94 Z M 150.87 182.95 L 150.92 183.98 C 150.96 184.99 151.82 185.78 152.84 185.74 C 153.86 185.69 154.65 184.83 154.60 183.81 L 154.56 182.79 C 154.51 181.77 153.65 180.98 152.63 181.03 C 151.61 181.07 150.83 181.93 150.87 182.95 Z M 150.91 183.97 L 150.96 184.98 C 151.00 186.00 151.86 186.79 152.88 186.75 C 153.90 186.71 154.69 185.85 154.65 184.83 L 154.61 183.82 C 154.56 182.80 153.70 182.01 152.68 182.05 C 151.66 182.09 150.87 182.95 150.91 183.97 Z M 150.95 184.98 L 150.99 186.01 C 151.03 187.03 151.89 187.82 152.91 187.79 C 153.93 187.75 154.73 186.89 154.69 185.87 L 154.65 184.83 C 154.61 183.81 153.75 183.02 152.73 183.06 C 151.71 183.10 150.92 183.96 150.95 184.98 Z M 150.99 186.00 L 151.03 187.02 C 151.06 188.05 151.92 188.84 152.94 188.81 C 153.96 188.77 154.76 187.92 154.73 186.90 L 154.69 185.87 C 154.66 184.85 153.80 184.05 152.78 184.09 C 151.76 184.12 150.96 184.98 150.99 186.00 Z M 151.03 187.02 L 151.06 188.01 C 151.09 189.03 151.94 189.83 152.96 189.80 C 153.98 189.77 154.79 188.92 154.76 187.90 L 154.73 186.91 C 154.70 185.89 153.84 185.08 152.82 185.11 C 151.80 185.14 151.00 185.99 151.03 187.02 Z M 151.06 188.00 L 151.08 188.97 C 151.10 190.00 151.95 190.80 152.97 190.78 C 154.00 190.75 154.80 189.91 154.78 188.89 L 154.76 187.91 C 154.73 186.89 153.88 186.08 152.86 186.10 C 151.84 186.13 151.03 186.98 151.06 188.00 Z M 151.08 188.96 L 151.10 189.94 C 151.12 190.96 151.96 191.77 152.98 191.75 C 154.00 191.73 154.82 190.89 154.80 189.87 L 154.78 188.90 C 154.76 187.87 153.92 187.06 152.90 187.08 C 151.87 187.10 151.06 187.94 151.08 188.96 Z M 151.10 189.91 L 151.10 191.06 C 151.11 192.09 151.94 192.91 152.97 192.90 C 153.99 192.90 154.81 192.06 154.81 191.04 L 154.80 189.89 C 154.79 188.87 153.96 188.04 152.94 188.05 C 151.91 188.06 151.09 188.89 151.10 189.91 Z M 151.10 190.98 L 151.06 192.09 C 151.02 193.11 151.82 193.97 152.84 194.01 C 153.86 194.05 154.72 193.26 154.76 192.23 L 154.80 191.13 C 154.84 190.10 154.05 189.24 153.03 189.20 C 152.01 189.16 151.14 189.96 151.10 190.98 Z M 151.08 191.89 L 150.94 192.84 C 150.79 193.85 151.48 194.80 152.50 194.95 C 153.51 195.10 154.45 194.40 154.60 193.39 L 154.74 192.43 C 154.89 191.42 154.20 190.48 153.18 190.33 C 152.17 190.18 151.23 190.88 151.08 191.89 Z M 151.05 192.41 L 150.77 193.12 C 150.38 194.07 150.83 195.15 151.78 195.54 C 152.73 195.92 153.81 195.47 154.19 194.52 L 154.48 193.82 C 154.87 192.87 154.42 191.79 153.47 191.40 C 152.52 191.01 151.44 191.47 151.05 192.41 Z M 151.45 192.29 L 150.75 192.76 C 149.91 193.33 149.68 194.47 150.25 195.32 C 150.82 196.17 151.97 196.39 152.81 195.82 L 153.51 195.35 C 154.36 194.79 154.58 193.64 154.01 192.79 C 153.44 191.95 152.30 191.72 151.45 192.29 Z M 151.79 192.46 L 150.82 192.45 C 149.80 192.45 148.98 193.27 148.98 194.28 C 148.98 195.30 149.79 196.12 150.81 196.12 L 151.78 196.12 C 152.79 196.13 153.61 195.31 153.62 194.29 C 153.62 193.28 152.80 192.46 151.79 192.46 Z M 151.25 192.53 L 150.17 192.26 C 149.20 192.02 148.21 192.61 147.97 193.59 C 147.73 194.56 148.33 195.54 149.30 195.78 L 150.38 196.05 C 151.35 196.29 152.33 195.70 152.57 194.72 C 152.81 193.75 152.22 192.77 151.25 192.53 Z M 150.30 192.35 L 149.38 192.04 C 148.45 191.72 147.45 192.22 147.14 193.15 C 146.83 194.07 147.32 195.08 148.25 195.39 L 149.17 195.70 C 150.10 196.01 151.10 195.51 151.41 194.59 C 151.72 193.66 151.23 192.66 150.30 192.35 Z M 149.47 192.14 L 148.54 191.76 C 147.67 191.40 146.68 191.81 146.32 192.68 C 145.96 193.54 146.37 194.54 147.24 194.90 L 148.17 195.28 C 149.03 195.64 150.03 195.23 150.38 194.36 C 150.74 193.49 150.33 192.50 149.47 192.14 Z M 148.63 191.88 L 147.71 191.41 C 146.91 191.01 145.93 191.33 145.53 192.13 C 145.12 192.93 145.44 193.91 146.24 194.32 L 147.16 194.78 C 147.96 195.19 148.94 194.86 149.34 194.06 C 149.75 193.26 149.43 192.28 148.63 191.88 Z M 147.80 191.53 L 146.95 191.01 C 146.21 190.56 145.24 190.79 144.79 191.53 C 144.34 192.26 144.57 193.23 145.31 193.68 L 146.16 194.20 C 146.90 194.66 147.86 194.42 148.31 193.69 C 148.77 192.95 148.54 191.98 147.80 191.53 Z M 147.01 191.10 L 146.20 190.53 C 145.51 190.04 144.56 190.20 144.07 190.89 C 143.58 191.57 143.75 192.53 144.43 193.01 L 145.24 193.59 C 145.93 194.08 146.88 193.91 147.37 193.23 C 147.86 192.54 147.70 191.59 147.01 191.10 Z M 146.23 190.59 L 145.44 189.98 C 144.79 189.47 143.85 189.59 143.35 190.24 C 142.84 190.89 142.96 191.82 143.61 192.33 L 144.40 192.95 C 145.05 193.45 145.99 193.33 146.49 192.68 C 147.00 192.03 146.88 191.10 146.23 190.59 Z M 145.44 190.03 L 144.65 189.39 C 144.03 188.88 143.11 188.98 142.61 189.60 C 142.10 190.22 142.20 191.14 142.82 191.64 L 143.61 192.28 C 144.23 192.79 145.14 192.69 145.65 192.07 C 146.16 191.45 146.06 190.53 145.44 190.03 Z"
      fill="black"
      fill-rule="nonzero" /><path d="M 136.76 169.56 L 135.99 170.05 C 135.24 170.53 135.03 171.52 135.50 172.27 C 135.98 173.02 136.98 173.24 137.72 172.76 L 138.49 172.27 C 139.24 171.79 139.46 170.80 138.98 170.05 C 138.50 169.30 137.51 169.08 136.76 169.56 Z M 135.90 170.08 L 135.14 170.63 C 134.40 171.16 134.24 172.18 134.77 172.92 C 135.30 173.65 136.33 173.82 137.06 173.28 L 137.82 172.73 C 138.56 172.20 138.72 171.18 138.19 170.44 C 137.66 169.71 136.63 169.54 135.90 170.08 Z M 134.98 170.71 L 134.23 171.38 C 133.55 172.00 133.49 173.06 134.11 173.75 C 134.73 174.43 135.79 174.49 136.48 173.87 L 137.22 173.20 C 137.91 172.58 137.96 171.52 137.34 170.83 C 136.73 170.15 135.67 170.09 134.98 170.71 Z M 134.05 171.52 L 133.33 172.37 C 132.72 173.09 132.80 174.17 133.52 174.78 C 134.24 175.39 135.32 175.30 135.94 174.58 L 136.66 173.73 C 137.27 173.01 137.18 171.93 136.46 171.32 C 135.74 170.71 134.66 170.80 134.05 171.52 Z M 133.19 172.52 L 132.67 173.31 C 132.14 174.11 132.36 175.18 133.15 175.71 C 133.94 176.23 135.02 176.02 135.54 175.22 L 136.07 174.43 C 136.60 173.64 136.38 172.56 135.59 172.04 C 134.79 171.51 133.72 171.73 133.19 172.52 Z M 132.61 173.42 L 132.12 174.28 C 131.66 175.11 131.95 176.16 132.78 176.62 C 133.61 177.09 134.66 176.80 135.12 175.97 L 135.61 175.11 C 136.07 174.28 135.78 173.23 134.95 172.77 C 134.12 172.30 133.07 172.60 132.61 173.42 Z M 132.09 174.36 L 131.63 175.28 C 131.21 176.13 131.55 177.15 132.40 177.58 C 133.25 178.00 134.28 177.65 134.70 176.81 L 135.16 175.89 C 135.58 175.04 135.23 174.01 134.39 173.59 C 133.54 173.17 132.51 173.51 132.09 174.36 Z M 131.61 175.34 L 131.18 176.29 C 130.79 177.15 131.17 178.16 132.03 178.55 C 132.88 178.94 133.89 178.56 134.28 177.70 L 134.72 176.75 C 135.11 175.89 134.73 174.88 133.87 174.49 C 133.01 174.10 132.00 174.48 131.61 175.34 Z M 131.17 176.33 L 130.77 177.28 C 130.40 178.14 130.80 179.13 131.66 179.50 C 132.53 179.87 133.52 179.47 133.89 178.61 L 134.29 177.66 C 134.66 176.80 134.26 175.80 133.40 175.43 C 132.54 175.07 131.54 175.47 131.17 176.33 Z M 130.77 177.31 L 130.39 178.24 C 130.04 179.10 130.45 180.09 131.31 180.44 C 132.18 180.79 133.16 180.37 133.51 179.51 L 133.89 178.58 C 134.24 177.72 133.83 176.73 132.97 176.38 C 132.10 176.03 131.12 176.44 130.77 177.31 Z M 130.40 178.27 L 130.00 179.30 C 129.66 180.15 130.08 181.12 130.93 181.45 C 131.79 181.79 132.75 181.37 133.09 180.52 L 133.49 179.48 C 133.83 178.63 133.41 177.67 132.56 177.33 C 131.70 176.99 130.74 177.41 130.40 178.27 Z M 130.02 179.33 L 129.66 180.29 C 129.35 181.13 129.77 182.07 130.61 182.38 C 131.45 182.70 132.38 182.28 132.70 181.44 L 133.06 180.48 C 133.38 179.64 132.95 178.71 132.11 178.39 C 131.28 178.07 130.34 178.50 130.02 179.33 Z M 129.69 180.33 L 129.36 181.24 C 129.07 182.06 129.50 182.97 130.33 183.26 C 131.15 183.56 132.06 183.13 132.35 182.30 L 132.67 181.40 C 132.97 180.57 132.54 179.67 131.71 179.37 C 130.89 179.08 129.98 179.51 129.69 180.33 Z M 129.39 181.28 L 129.10 182.16 C 128.83 182.97 129.27 183.85 130.08 184.12 C 130.89 184.39 131.76 183.95 132.03 183.14 L 132.33 182.26 C 132.59 181.45 132.16 180.57 131.35 180.30 C 130.54 180.03 129.66 180.47 129.39 181.28 Z M 129.12 182.21 L 128.84 183.12 C 128.59 183.92 129.04 184.76 129.84 185.01 C 130.64 185.25 131.49 184.81 131.73 184.01 L 132.01 183.10 C 132.26 182.30 131.81 181.45 131.01 181.21 C 130.21 180.96 129.36 181.41 129.12 182.21 Z M 128.85 183.15 L 128.58 184.11 C 128.35 184.90 128.81 185.73 129.61 185.95 C 130.40 186.18 131.22 185.72 131.45 184.93 L 131.72 183.97 C 131.95 183.18 131.49 182.35 130.69 182.13 C 129.90 181.90 129.08 182.36 128.85 183.15 Z M 128.59 184.14 L 128.33 185.10 C 128.12 185.89 128.59 186.70 129.37 186.91 C 130.16 187.12 130.97 186.65 131.18 185.87 L 131.44 184.90 C 131.65 184.11 131.18 183.30 130.39 183.09 C 129.61 182.88 128.80 183.35 128.59 184.14 Z M 128.34 185.12 L 128.09 186.10 C 127.89 186.88 128.36 187.67 129.14 187.87 C 129.93 188.07 130.72 187.60 130.92 186.82 L 131.17 185.85 C 131.37 185.07 130.90 184.27 130.12 184.07 C 129.34 183.87 128.54 184.34 128.34 185.12 Z M 128.10 186.11 L 127.89 186.97 C 127.69 187.74 128.16 188.53 128.94 188.72 C 129.71 188.92 130.50 188.45 130.69 187.67 L 130.91 186.81 C 131.10 186.03 130.63 185.25 129.86 185.06 C 129.08 184.86 128.30 185.33 128.10 186.11 Z"
      fill="black"
      fill-rule="nonzero" /><path d="M 156.18 160.91 L 156.63 161.82 C 157.03 162.60 157.98 162.92 158.77 162.52 C 159.56 162.13 159.87 161.17 159.48 160.38 L 159.02 159.48 C 158.63 158.70 157.67 158.38 156.89 158.78 C 156.10 159.17 155.78 160.13 156.18 160.91 Z M 156.62 161.85 L 157.08 162.74 C 157.49 163.53 158.47 163.84 159.26 163.43 C 160.06 163.02 160.37 162.04 159.95 161.25 L 159.49 160.35 C 159.08 159.56 158.10 159.25 157.31 159.66 C 156.51 160.07 156.20 161.05 156.62 161.85 Z M 157.07 162.79 L 157.56 163.66 C 158.00 164.46 159.00 164.75 159.79 164.31 C 160.59 163.87 160.88 162.86 160.44 162.07 L 159.96 161.20 C 159.52 160.40 158.52 160.11 157.72 160.55 C 156.92 160.99 156.63 161.99 157.07 162.79 Z M 157.57 163.73 L 158.08 164.57 C 158.56 165.36 159.58 165.62 160.37 165.14 C 161.16 164.66 161.42 163.63 160.94 162.84 L 160.43 162.00 C 159.95 161.21 158.92 160.96 158.13 161.43 C 157.34 161.91 157.09 162.94 157.57 163.73 Z M 158.12 164.65 L 158.67 165.46 C 159.18 166.23 160.23 166.43 161.00 165.92 C 161.77 165.40 161.97 164.35 161.45 163.58 L 160.90 162.77 C 160.38 162.00 159.34 161.80 158.57 162.32 C 157.80 162.83 157.60 163.88 158.12 164.65 Z M 158.72 165.53 L 159.31 166.32 C 159.86 167.06 160.91 167.21 161.65 166.66 C 162.39 166.10 162.55 165.05 161.99 164.31 L 161.40 163.52 C 160.85 162.78 159.80 162.63 159.06 163.18 C 158.31 163.73 158.16 164.78 158.72 165.53 Z M 159.36 166.37 L 160.00 167.15 C 160.58 167.87 161.63 167.97 162.35 167.39 C 163.06 166.81 163.17 165.75 162.58 165.04 L 161.94 164.26 C 161.36 163.54 160.31 163.44 159.59 164.02 C 158.88 164.61 158.77 165.66 159.36 166.37 Z M 160.04 167.20 L 160.72 167.96 C 161.33 168.65 162.38 168.72 163.06 168.11 C 163.75 167.50 163.82 166.45 163.21 165.77 L 162.54 165.00 C 161.93 164.31 160.88 164.24 160.19 164.85 C 159.50 165.46 159.44 166.51 160.04 167.20 Z M 160.77 167.99 L 161.47 168.73 C 162.09 169.39 163.13 169.43 163.79 168.80 C 164.45 168.18 164.48 167.14 163.86 166.48 L 163.16 165.74 C 162.54 165.08 161.50 165.05 160.84 165.67 C 160.18 166.29 160.15 167.33 160.77 167.99 Z M 161.52 168.75 L 162.25 169.47 C 162.88 170.10 163.90 170.10 164.53 169.47 C 165.16 168.83 165.16 167.81 164.53 167.18 L 163.81 166.46 C 163.17 165.83 162.15 165.83 161.52 166.47 C 160.89 167.10 160.89 168.12 161.52 168.75 Z M 162.30 169.50 L 163.03 170.17 C 163.68 170.77 164.69 170.73 165.28 170.08 C 165.88 169.43 165.84 168.43 165.20 167.83 L 164.47 167.16 C 163.82 166.56 162.81 166.60 162.22 167.24 C 161.62 167.89 161.66 168.90 162.30 169.50 Z M 163.11 170.20 L 163.88 170.85 C 164.54 171.41 165.53 171.32 166.09 170.66 C 166.64 170.00 166.56 169.01 165.90 168.45 L 165.12 167.80 C 164.46 167.24 163.47 167.33 162.92 167.99 C 162.36 168.65 162.44 169.64 163.11 170.20 Z M 163.98 170.89 L 164.82 171.50 C 165.51 172.00 166.47 171.85 166.97 171.17 C 167.47 170.49 167.32 169.53 166.63 169.03 L 165.79 168.41 C 165.11 167.91 164.15 168.06 163.65 168.74 C 163.15 169.43 163.30 170.39 163.98 170.89 Z M 164.96 171.55 L 165.80 172.05 C 166.51 172.47 167.43 172.24 167.85 171.53 C 168.27 170.82 168.04 169.90 167.33 169.48 L 166.50 168.98 C 165.79 168.55 164.87 168.79 164.44 169.50 C 164.02 170.21 164.25 171.13 164.96 171.55 Z M 165.96 172.10 L 166.82 172.48 C 167.56 172.82 168.42 172.49 168.76 171.75 C 169.09 171.02 168.76 170.15 168.02 169.82 L 167.17 169.43 C 166.43 169.10 165.56 169.42 165.23 170.16 C 164.90 170.90 165.22 171.76 165.96 172.10 Z M 166.99 172.53 L 167.94 172.83 C 168.70 173.07 169.51 172.64 169.75 171.88 C 169.99 171.12 169.56 170.31 168.80 170.07 L 167.86 169.77 C 167.10 169.53 166.28 169.96 166.05 170.72 C 165.81 171.48 166.23 172.29 166.99 172.53 Z M 168.06 172.85 L 169.03 173.07 C 169.81 173.24 170.57 172.76 170.75 171.98 C 170.92 171.21 170.43 170.44 169.66 170.27 L 168.68 170.05 C 167.91 169.87 167.14 170.36 166.97 171.14 C 166.80 171.91 167.28 172.68 168.06 172.85 Z M 169.09 173.07 L 170.05 173.25 C 170.82 173.39 171.57 172.87 171.71 172.09 C 171.85 171.32 171.33 170.57 170.56 170.43 L 169.60 170.26 C 168.82 170.12 168.08 170.64 167.94 171.41 C 167.80 172.19 168.31 172.93 169.09 173.07 Z"
      fill="black"
      fill-rule="nonzero" /><path d="M 167.98 136.33 L 166.68 136.04 C 165.84 135.86 165.02 136.39 164.84 137.23 C 164.65 138.07 165.19 138.89 166.02 139.08 L 167.33 139.36 C 168.16 139.54 168.99 139.01 169.17 138.17 C 169.35 137.33 168.82 136.51 167.98 136.33 Z M 166.93 136.11 L 166.17 135.81 C 165.37 135.49 164.46 135.88 164.15 136.68 C 163.83 137.48 164.22 138.39 165.02 138.71 L 165.78 139.01 C 166.58 139.33 167.48 138.94 167.80 138.14 C 168.12 137.34 167.73 136.43 166.93 136.11 Z M 166.91 138.11 L 167.10 137.81 C 167.57 137.08 167.36 136.11 166.63 135.65 C 165.91 135.18 164.94 135.39 164.47 136.11 L 164.28 136.41 C 163.81 137.14 164.02 138.10 164.75 138.57 C 165.47 139.04 166.44 138.83 166.91 138.11 Z M 166.29 138.44 L 167.15 138.15 C 167.97 137.87 168.41 136.98 168.13 136.17 C 167.86 135.35 166.97 134.91 166.15 135.18 L 165.28 135.48 C 164.46 135.76 164.02 136.65 164.30 137.46 C 164.58 138.28 165.47 138.72 166.29 138.44 Z M 167.02 138.19 L 168.26 137.89 C 169.10 137.69 169.62 136.84 169.42 136.00 C 169.21 135.16 168.37 134.64 167.53 134.85 L 166.28 135.14 C 165.44 135.35 164.93 136.19 165.13 137.03 C 165.33 137.88 166.18 138.39 167.02 138.19 Z M 168.22 137.90 L 169.26 137.68 C 170.10 137.49 170.64 136.66 170.46 135.81 C 170.27 134.97 169.44 134.43 168.59 134.61 L 167.56 134.84 C 166.71 135.02 166.18 135.85 166.36 136.70 C 166.54 137.55 167.38 138.08 168.22 137.90 Z M 169.25 137.68 L 170.16 137.49 C 171.01 137.31 171.55 136.47 171.37 135.63 C 171.19 134.78 170.35 134.24 169.51 134.42 L 168.60 134.61 C 167.75 134.79 167.21 135.62 167.39 136.47 C 167.57 137.32 168.40 137.86 169.25 137.68 Z M 170.17 137.49 L 171.12 137.28 C 171.97 137.10 172.50 136.26 172.32 135.41 C 172.14 134.56 171.30 134.03 170.45 134.21 L 169.50 134.42 C 168.65 134.60 168.11 135.44 168.30 136.29 C 168.48 137.13 169.32 137.67 170.17 137.49 Z M 171.13 137.28 L 172.16 137.05 C 173.00 136.86 173.53 136.01 173.34 135.17 C 173.15 134.32 172.31 133.79 171.46 133.98 L 170.44 134.21 C 169.59 134.40 169.06 135.25 169.25 136.09 C 169.44 136.94 170.28 137.47 171.13 137.28 Z M 172.17 137.05 L 173.24 136.79 C 174.09 136.59 174.61 135.74 174.41 134.89 C 174.21 134.05 173.36 133.52 172.51 133.73 L 171.44 133.98 C 170.60 134.18 170.07 135.03 170.28 135.88 C 170.48 136.73 171.33 137.25 172.17 137.05 Z M 173.26 136.79 L 174.22 136.55 C 175.06 136.34 175.58 135.48 175.36 134.63 C 175.15 133.79 174.29 133.27 173.45 133.49 L 172.49 133.73 C 171.65 133.94 171.13 134.80 171.35 135.64 C 171.56 136.49 172.42 137.00 173.26 136.79 Z M 174.23 136.55 L 175.23 136.29 C 176.07 136.07 176.58 135.21 176.36 134.36 C 176.14 133.52 175.28 133.01 174.43 133.23 L 173.44 133.49 C 172.59 133.71 172.08 134.57 172.30 135.42 C 172.52 136.26 173.38 136.77 174.23 136.55 Z M 175.24 136.29 L 176.24 136.03 C 177.09 135.80 177.59 134.93 177.37 134.08 C 177.14 133.24 176.27 132.73 175.42 132.96 L 174.42 133.23 C 173.57 133.45 173.07 134.32 173.29 135.17 C 173.52 136.02 174.39 136.52 175.24 136.29 Z M 176.25 136.03 L 177.24 135.76 C 178.09 135.53 178.59 134.65 178.35 133.80 C 178.12 132.96 177.25 132.46 176.40 132.69 L 175.41 132.96 C 174.57 133.19 174.07 134.06 174.30 134.91 C 174.53 135.76 175.40 136.26 176.25 136.03 Z M 177.25 135.76 L 178.18 135.50 C 179.03 135.26 179.53 134.38 179.29 133.53 C 179.06 132.69 178.18 132.19 177.33 132.42 L 176.39 132.69 C 175.54 132.92 175.04 133.80 175.28 134.65 C 175.52 135.50 176.40 136.00 177.25 135.76 Z M 178.19 135.50 L 179.17 135.23 C 180.02 134.98 180.51 134.10 180.27 133.25 C 180.03 132.40 179.14 131.90 178.29 132.15 L 177.32 132.42 C 176.47 132.66 175.97 133.55 176.22 134.40 C 176.46 135.25 177.34 135.74 178.19 135.50 Z M 179.18 135.23 L 180.15 134.94 C 181.00 134.69 181.49 133.80 181.24 132.95 C 180.99 132.10 180.10 131.61 179.24 131.86 L 178.28 132.14 C 177.43 132.39 176.94 133.29 177.19 134.14 C 177.44 134.99 178.33 135.48 179.18 135.23 Z M 180.17 134.95 L 181.08 134.67 C 181.93 134.41 182.41 133.51 182.15 132.65 C 181.89 131.80 180.99 131.32 180.14 131.58 L 179.23 131.86 C 178.37 132.12 177.89 133.02 178.15 133.87 C 178.41 134.72 179.31 135.21 180.17 134.95 Z M 181.10 134.67 L 182.01 134.38 C 182.87 134.11 183.34 133.20 183.07 132.35 C 182.80 131.49 181.89 131.02 181.04 131.29 L 180.12 131.58 C 179.27 131.85 178.80 132.76 179.06 133.61 C 179.33 134.46 180.24 134.94 181.10 134.67 Z M 182.03 134.38 L 183.01 134.06 C 183.87 133.79 184.33 132.87 184.06 132.01 C 183.78 131.16 182.86 130.69 182.01 130.97 L 181.02 131.29 C 180.17 131.57 179.70 132.48 179.98 133.34 C 180.26 134.19 181.18 134.66 182.03 134.38 Z M 183.03 134.09 L 184.18 133.71 C 185.04 133.42 185.52 132.49 185.23 131.62 C 184.95 130.75 184.01 130.28 183.14 130.57 L 181.99 130.94 C 181.12 131.23 180.65 132.16 180.94 133.03 C 181.22 133.90 182.16 134.37 183.03 134.09 Z M 184.17 133.76 L 185.31 133.40 C 186.20 133.12 186.70 132.17 186.42 131.27 C 186.14 130.38 185.18 129.88 184.29 130.16 L 183.15 130.52 C 182.26 130.80 181.76 131.75 182.04 132.65 C 182.32 133.54 183.27 134.04 184.17 133.76 Z M 185.25 133.46 L 186.22 133.20 C 187.15 132.95 187.70 131.99 187.45 131.06 C 187.20 130.13 186.24 129.58 185.31 129.83 L 184.34 130.10 C 183.41 130.35 182.86 131.31 183.11 132.24 C 183.36 133.17 184.32 133.72 185.25 133.46 Z M 186.03 133.29 L 186.68 133.19 C 187.66 133.05 188.34 132.14 188.19 131.16 C 188.05 130.18 187.14 129.51 186.16 129.65 L 185.50 129.75 C 184.53 129.89 183.85 130.80 183.99 131.78 C 184.14 132.76 185.05 133.43 186.03 133.29 Z M 184.82 132.30 L 184.99 132.61 C 185.48 133.50 186.59 133.82 187.47 133.34 C 188.36 132.85 188.68 131.74 188.20 130.85 L 188.03 130.54 C 187.54 129.66 186.43 129.33 185.54 129.82 C 184.66 130.30 184.33 131.42 184.82 132.30 Z M 185.11 130.61 L 184.48 131.44 C 183.86 132.26 184.02 133.43 184.84 134.05 C 185.66 134.67 186.83 134.50 187.45 133.69 L 188.08 132.86 C 188.70 132.04 188.53 130.87 187.72 130.25 C 186.90 129.63 185.73 129.79 185.11 130.61 Z M 184.47 131.42 L 183.77 132.33 C 183.14 133.16 183.30 134.34 184.13 134.97 C 184.96 135.60 186.14 135.44 186.77 134.61 L 187.46 133.70 C 188.09 132.87 187.93 131.69 187.11 131.06 C 186.28 130.43 185.10 130.59 184.47 131.42 Z M 183.64 132.51 L 183.20 133.25 C 182.67 134.16 182.98 135.32 183.88 135.85 C 184.78 136.38 185.94 136.08 186.47 135.17 L 186.91 134.43 C 187.44 133.53 187.13 132.37 186.23 131.84 C 185.33 131.31 184.17 131.61 183.64 132.51 Z M 183.11 133.42 L 182.72 134.28 C 182.28 135.23 182.69 136.36 183.65 136.80 C 184.60 137.24 185.72 136.82 186.16 135.87 L 186.56 135.01 C 187.00 134.06 186.58 132.93 185.63 132.49 C 184.68 132.05 183.55 132.47 183.11 133.42 Z M 182.66 134.40 L 182.27 135.43 C 181.90 136.42 182.40 137.51 183.38 137.88 C 184.36 138.25 185.46 137.76 185.83 136.78 L 186.22 135.74 C 186.59 134.76 186.09 133.67 185.11 133.29 C 184.13 132.92 183.03 133.42 182.66 134.40 Z M 182.24 135.51 L 181.89 136.57 C 181.56 137.57 182.10 138.65 183.10 138.98 C 184.10 139.31 185.18 138.76 185.51 137.77 L 185.86 136.70 C 186.19 135.70 185.65 134.63 184.65 134.30 C 183.65 133.97 182.57 134.51 182.24 135.51 Z M 181.88 136.61 L 181.59 137.54 C 181.28 138.55 181.84 139.61 182.85 139.93 C 183.86 140.24 184.93 139.67 185.24 138.66 L 185.52 137.73 C 185.83 136.72 185.27 135.66 184.26 135.35 C 183.26 135.03 182.19 135.60 181.88 136.61 Z M 181.58 137.56 L 181.29 138.55 C 180.99 139.56 181.56 140.63 182.58 140.93 C 183.59 141.23 184.65 140.65 184.95 139.64 L 185.25 138.64 C 185.55 137.63 184.97 136.57 183.96 136.27 C 182.94 135.97 181.88 136.55 181.58 137.56 Z M 181.28 138.57 L 180.99 139.58 C 180.69 140.60 181.28 141.66 182.30 141.95 C 183.31 142.24 184.38 141.66 184.67 140.64 L 184.96 139.62 C 185.25 138.61 184.66 137.55 183.65 137.25 C 182.63 136.96 181.57 137.55 181.28 138.57 Z M 180.98 139.59 L 180.70 140.59 C 180.41 141.61 181.01 142.67 182.03 142.96 C 183.05 143.24 184.11 142.65 184.39 141.63 L 184.67 140.63 C 184.96 139.61 184.37 138.55 183.35 138.26 C 182.33 137.98 181.27 138.57 180.98 139.59 Z M 180.69 140.60 L 180.43 141.55 C 180.15 142.57 180.75 143.63 181.77 143.91 C 182.80 144.19 183.85 143.59 184.14 142.57 L 184.40 141.62 C 184.68 140.60 184.08 139.54 183.06 139.26 C 182.03 138.98 180.98 139.58 180.69 140.60 Z M 180.43 141.55 L 180.15 142.58 C 179.87 143.60 180.47 144.66 181.50 144.94 C 182.52 145.22 183.58 144.62 183.86 143.59 L 184.14 142.56 C 184.42 141.54 183.82 140.48 182.79 140.20 C 181.77 139.92 180.71 140.52 180.43 141.55 Z M 180.14 142.58 L 179.85 143.67 C 179.57 144.70 180.18 145.76 181.21 146.03 C 182.24 146.31 183.29 145.70 183.57 144.68 L 183.87 143.58 C 184.14 142.56 183.53 141.50 182.51 141.22 C 181.48 140.95 180.42 141.55 180.14 142.58 Z M 179.85 143.68 L 179.60 144.61 C 179.33 145.64 179.94 146.69 180.97 146.97 C 182.00 147.24 183.05 146.63 183.33 145.60 L 183.57 144.67 C 183.85 143.64 183.24 142.58 182.21 142.31 C 181.18 142.04 180.12 142.65 179.85 143.68 Z M 179.60 144.61 L 179.38 145.45 C 179.10 146.48 179.72 147.54 180.75 147.81 C 181.78 148.08 182.83 147.47 183.11 146.44 L 183.33 145.60 C 183.60 144.57 182.99 143.51 181.96 143.24 C 180.93 142.97 179.87 143.58 179.60 144.61 Z M 179.38 145.45 L 179.14 146.32 C 178.87 147.35 179.49 148.40 180.52 148.68 C 181.55 148.95 182.60 148.34 182.88 147.31 L 183.11 146.44 C 183.38 145.41 182.77 144.35 181.74 144.08 C 180.71 143.80 179.65 144.42 179.38 145.45 Z M 179.14 146.31 L 178.89 147.25 C 178.62 148.28 179.23 149.34 180.26 149.62 C 181.29 149.89 182.35 149.28 182.62 148.25 L 182.88 147.31 C 183.15 146.28 182.54 145.22 181.51 144.95 C 180.48 144.67 179.42 145.28 179.14 146.31 Z M 178.89 147.25 L 178.63 148.22 C 178.35 149.25 178.96 150.31 179.99 150.59 C 181.02 150.87 182.08 150.26 182.36 149.23 L 182.62 148.26 C 182.90 147.22 182.29 146.16 181.26 145.89 C 180.23 145.61 179.17 146.22 178.89 147.25 Z M 178.63 148.22 L 178.36 149.22 C 178.08 150.25 178.69 151.31 179.72 151.59 C 180.75 151.87 181.81 151.26 182.09 150.23 L 182.36 149.23 C 182.64 148.20 182.03 147.14 181.00 146.86 C 179.97 146.58 178.91 147.19 178.63 148.22 Z M 178.36 149.22 L 178.10 150.15 C 177.82 151.18 178.43 152.24 179.46 152.53 C 180.49 152.81 181.55 152.20 181.83 151.17 L 182.09 150.24 C 182.37 149.21 181.76 148.14 180.73 147.86 C 179.70 147.58 178.64 148.19 178.36 149.22 Z M 178.10 150.15 L 177.84 151.10 C 177.56 152.13 178.17 153.19 179.20 153.48 C 180.23 153.76 181.29 153.15 181.57 152.12 L 181.83 151.17 C 182.12 150.14 181.51 149.08 180.48 148.80 C 179.45 148.51 178.39 149.12 178.10 150.15 Z M 177.84 151.09 L 177.57 152.07 C 177.29 153.10 177.89 154.16 178.92 154.45 C 179.95 154.73 181.02 154.13 181.30 153.10 L 181.57 152.13 C 181.86 151.10 181.25 150.03 180.22 149.75 C 179.19 149.46 178.13 150.06 177.84 151.09 Z M 177.57 152.07 L 177.30 153.07 C 177.01 154.10 177.61 155.16 178.64 155.45 C 179.67 155.74 180.74 155.13 181.03 154.10 L 181.30 153.10 C 181.59 152.07 180.99 151.01 179.96 150.72 C 178.93 150.43 177.86 151.04 177.57 152.07 Z M 177.30 153.06 L 177.04 153.99 C 176.75 155.02 177.35 156.09 178.38 156.38 C 179.41 156.66 180.48 156.06 180.77 155.03 L 181.03 154.11 C 181.31 153.08 180.71 152.01 179.68 151.72 C 178.65 151.43 177.58 152.03 177.30 153.06 Z M 177.04 153.99 L 176.77 154.93 C 176.48 155.96 177.08 157.03 178.11 157.32 C 179.14 157.61 180.21 157.01 180.50 155.98 L 180.77 155.04 C 181.06 154.01 180.46 152.94 179.43 152.65 C 178.40 152.36 177.33 152.96 177.04 153.99 Z M 176.77 154.92 L 176.50 155.89 C 176.21 156.92 176.80 157.99 177.83 158.28 C 178.86 158.58 179.93 157.98 180.22 156.95 L 180.50 155.98 C 180.79 154.96 180.20 153.89 179.17 153.59 C 178.14 153.30 177.07 153.90 176.77 154.92 Z M 176.50 155.88 L 176.21 156.87 C 175.92 157.90 176.51 158.97 177.54 159.27 C 178.56 159.57 179.64 158.98 179.93 157.95 L 180.22 156.96 C 180.52 155.93 179.93 154.86 178.90 154.56 C 177.87 154.26 176.80 154.86 176.50 155.88 Z M 176.22 156.86 L 175.94 157.82 C 175.63 158.85 176.22 159.93 177.25 160.23 C 178.27 160.53 179.35 159.94 179.65 158.92 L 179.93 157.96 C 180.23 156.93 179.65 155.85 178.62 155.55 C 177.59 155.25 176.52 155.84 176.22 156.86 Z M 175.94 157.82 L 175.66 158.74 C 175.36 159.77 175.94 160.85 176.96 161.15 C 177.99 161.46 179.07 160.87 179.37 159.85 L 179.65 158.92 C 179.95 157.90 179.37 156.82 178.35 156.51 C 177.32 156.21 176.24 156.79 175.94 157.82 Z M 175.66 158.74 L 175.38 159.68 C 175.07 160.71 175.65 161.79 176.67 162.10 C 177.70 162.41 178.78 161.83 179.09 160.80 L 179.37 159.85 C 179.68 158.83 179.10 157.75 178.07 157.44 C 177.05 157.13 175.97 157.71 175.66 158.74 Z M 175.38 159.68 L 175.09 160.65 C 174.78 161.67 175.35 162.76 176.38 163.06 C 177.40 163.37 178.48 162.80 178.79 161.77 L 179.08 160.80 C 179.39 159.78 178.82 158.70 177.79 158.39 C 176.77 158.08 175.69 158.66 175.38 159.68 Z M 175.09 160.65 L 174.79 161.64 C 174.48 162.66 175.05 163.74 176.08 164.05 C 177.10 164.36 178.18 163.79 178.49 162.76 L 178.79 161.77 C 179.10 160.75 178.52 159.67 177.50 159.36 C 176.48 159.05 175.40 159.63 175.09 160.65 Z M 174.79 161.64 L 174.49 162.61 C 174.18 163.64 174.76 164.72 175.78 165.03 C 176.81 165.34 177.89 164.76 178.20 163.74 L 178.49 162.76 C 178.80 161.74 178.22 160.66 177.20 160.35 C 176.18 160.04 175.09 160.62 174.79 161.64 Z M 174.49 162.61 L 174.20 163.57 C 173.89 164.59 174.47 165.67 175.49 165.98 C 176.52 166.29 177.60 165.71 177.91 164.69 L 178.20 163.73 C 178.51 162.71 177.93 161.63 176.90 161.32 C 175.88 161.01 174.80 161.59 174.49 162.61 Z M 174.20 163.57 L 173.91 164.53 C 173.60 165.55 174.18 166.63 175.20 166.94 C 176.22 167.25 177.30 166.68 177.61 165.65 L 177.91 164.69 C 178.22 163.67 177.64 162.59 176.62 162.28 C 175.59 161.97 174.51 162.55 174.20 163.57 Z M 173.91 164.53 L 173.62 165.49 C 173.31 166.51 173.88 167.59 174.90 167.91 C 175.93 168.22 177.01 167.64 177.32 166.62 L 177.61 165.66 C 177.92 164.64 177.35 163.55 176.33 163.24 C 175.31 162.93 174.23 163.51 173.91 164.53 Z M 173.62 165.49 L 173.32 166.44 C 173.01 167.46 173.58 168.55 174.60 168.86 C 175.62 169.18 176.70 168.61 177.02 167.59 L 177.32 166.63 C 177.63 165.61 177.06 164.52 176.04 164.21 C 175.02 163.89 173.94 164.46 173.62 165.49 Z M 173.33 166.43 L 173.03 167.39 C 172.71 168.41 173.28 169.49 174.29 169.81 C 175.31 170.13 176.40 169.56 176.72 168.55 L 177.02 167.59 C 177.34 166.57 176.77 165.49 175.75 165.17 C 174.73 164.85 173.65 165.42 173.33 166.43 Z M 173.03 167.38 L 172.72 168.34 C 172.40 169.36 172.96 170.45 173.97 170.77 C 174.99 171.10 176.08 170.54 176.40 169.52 L 176.71 168.56 C 177.04 167.54 176.48 166.45 175.46 166.13 C 174.45 165.80 173.36 166.36 173.03 167.38 Z M 172.73 168.33 L 172.42 169.29 C 172.09 170.30 172.64 171.39 173.65 171.72 C 174.67 172.05 175.76 171.50 176.09 170.49 L 176.40 169.53 C 176.73 168.52 176.18 167.43 175.16 167.10 C 174.15 166.77 173.06 167.32 172.73 168.33 Z M 172.42 169.28 L 172.11 170.22 C 171.77 171.23 172.32 172.33 173.33 172.66 C 174.34 173.00 175.44 172.45 175.77 171.44 L 176.09 170.49 C 176.42 169.48 175.87 168.39 174.86 168.05 C 173.85 167.72 172.76 168.27 172.42 169.28 Z M 172.11 170.21 L 171.80 171.15 C 171.46 172.16 172.00 173.26 173.01 173.60 C 174.02 173.94 175.11 173.39 175.45 172.38 L 175.77 171.45 C 176.11 170.44 175.57 169.34 174.56 169.00 C 173.55 168.66 172.45 169.20 172.11 170.21 Z M 171.80 171.15 L 171.48 172.09 C 171.14 173.09 171.67 174.19 172.68 174.53 C 173.69 174.88 174.79 174.34 175.13 173.33 L 175.45 172.39 C 175.79 171.38 175.25 170.29 174.25 169.94 C 173.24 169.60 172.14 170.14 171.80 171.15 Z M 171.48 172.08 L 171.16 173.02 C 170.81 174.03 171.35 175.13 172.35 175.47 C 173.36 175.82 174.45 175.29 174.80 174.28 L 175.13 173.34 C 175.47 172.33 174.94 171.23 173.93 170.89 C 172.93 170.54 171.83 171.07 171.48 172.08 Z M 171.16 173.02 L 170.83 173.96 C 170.48 174.97 171.01 176.06 172.01 176.41 C 173.02 176.77 174.11 176.24 174.46 175.23 L 174.79 174.29 C 175.14 173.28 174.62 172.19 173.61 171.84 C 172.61 171.49 171.51 172.02 171.16 173.02 Z M 170.84 173.96 L 170.50 174.90 C 170.15 175.90 170.67 177.00 171.67 177.35 C 172.67 177.71 173.77 177.19 174.12 176.19 L 174.46 175.24 C 174.81 174.24 174.29 173.14 173.29 172.79 C 172.29 172.43 171.19 172.96 170.84 173.96 Z M 170.51 174.89 L 170.17 175.83 C 169.81 176.83 170.32 177.93 171.32 178.29 C 172.32 178.65 173.42 178.13 173.78 177.14 L 174.12 176.20 C 174.48 175.20 173.96 174.10 172.97 173.74 C 171.97 173.38 170.87 173.89 170.51 174.89 Z M 170.18 175.82 L 169.83 176.75 C 169.46 177.75 169.97 178.85 170.96 179.22 C 171.95 179.58 173.06 179.08 173.42 178.08 L 173.77 177.15 C 174.14 176.16 173.63 175.06 172.64 174.69 C 171.64 174.32 170.54 174.83 170.18 175.82 Z M 169.84 176.74 L 169.48 177.69 C 169.10 178.68 169.60 179.78 170.59 180.16 C 171.58 180.53 172.68 180.03 173.05 179.05 L 173.41 178.10 C 173.79 177.11 173.29 176.01 172.30 175.63 C 171.32 175.26 170.21 175.75 169.84 176.74 Z M 169.49 177.68 L 169.12 178.62 C 168.74 179.60 169.23 180.71 170.21 181.09 C 171.19 181.47 172.30 180.98 172.68 180.00 L 173.05 179.06 C 173.43 178.08 172.94 176.97 171.96 176.59 C 170.97 176.21 169.87 176.70 169.49 177.68 Z M 169.13 178.61 L 168.76 179.54 C 168.38 180.52 168.85 181.62 169.83 182.01 C 170.81 182.40 171.92 181.92 172.30 180.94 L 172.67 180.01 C 173.06 179.03 172.58 177.93 171.60 177.54 C 170.62 177.15 169.52 177.63 169.13 178.61 Z M 168.77 179.53 L 168.40 180.45 C 168.01 181.42 168.48 182.53 169.45 182.92 C 170.43 183.32 171.53 182.84 171.92 181.87 L 172.30 180.95 C 172.69 179.98 172.22 178.87 171.24 178.48 C 170.27 178.09 169.16 178.56 168.77 179.53 Z M 168.41 180.44 L 168.04 181.35 C 167.64 182.32 168.10 183.43 169.07 183.83 C 170.04 184.22 171.15 183.76 171.55 182.79 L 171.92 181.88 C 172.31 180.91 171.85 179.80 170.88 179.41 C 169.91 179.01 168.80 179.47 168.41 180.44 Z M 168.04 181.35 L 167.65 182.29 C 167.25 183.26 167.71 184.36 168.68 184.76 C 169.64 185.16 170.75 184.70 171.15 183.74 L 171.54 182.79 C 171.94 181.83 171.48 180.72 170.51 180.32 C 169.55 179.92 168.44 180.38 168.04 181.35 Z M 167.66 182.29 L 167.27 183.22 C 166.87 184.18 167.32 185.28 168.28 185.69 C 169.24 186.09 170.34 185.64 170.74 184.68 L 171.14 183.74 C 171.54 182.78 171.09 181.68 170.13 181.28 C 169.17 180.87 168.06 181.33 167.66 182.29 Z M 167.28 183.21 L 166.89 184.13 C 166.48 185.09 166.92 186.19 167.88 186.60 C 168.83 187.00 169.94 186.56 170.34 185.60 L 170.73 184.69 C 171.14 183.73 170.70 182.63 169.74 182.22 C 168.79 181.81 167.69 182.26 167.28 183.21 Z M 166.90 184.12 L 166.51 185.03 C 166.10 185.98 166.53 187.08 167.48 187.49 C 168.43 187.90 169.53 187.46 169.94 186.52 L 170.33 185.61 C 170.74 184.67 170.31 183.56 169.36 183.15 C 168.41 182.74 167.31 183.18 166.90 184.12 Z M 166.52 185.02 L 166.12 185.92 C 165.70 186.86 166.13 187.96 167.07 188.38 C 168.01 188.79 169.11 188.37 169.53 187.43 L 169.93 186.53 C 170.34 185.58 169.92 184.48 168.98 184.07 C 168.03 183.65 166.93 184.08 166.52 185.02 Z M 166.13 185.91 L 165.72 186.83 C 165.30 187.77 165.71 188.86 166.64 189.29 C 167.58 189.71 168.68 189.29 169.10 188.36 L 169.52 187.44 C 169.94 186.50 169.52 185.40 168.59 184.98 C 167.65 184.56 166.56 184.97 166.13 185.91 Z M 165.73 186.82 L 165.31 187.73 C 164.89 188.66 165.29 189.75 166.22 190.18 C 167.14 190.61 168.24 190.20 168.67 189.28 L 169.08 188.37 C 169.51 187.44 169.11 186.35 168.18 185.92 C 167.25 185.49 166.16 185.90 165.73 186.82 Z M 165.33 187.72 L 164.91 188.62 C 164.47 189.54 164.87 190.63 165.79 191.07 C 166.71 191.50 167.80 191.10 168.23 190.18 L 168.65 189.28 C 169.08 188.37 168.69 187.27 167.77 186.84 C 166.85 186.41 165.76 186.81 165.33 187.72 Z M 164.92 188.62 L 164.49 189.51 C 164.06 190.42 164.44 191.51 165.35 191.95 C 166.26 192.38 167.35 191.99 167.79 191.08 L 168.22 190.19 C 168.65 189.28 168.27 188.19 167.36 187.75 C 166.44 187.32 165.35 187.71 164.92 188.62 Z M 164.51 189.50 L 164.08 190.37 C 163.65 191.27 164.02 192.36 164.92 192.80 C 165.83 193.24 166.91 192.86 167.35 191.96 L 167.77 191.09 C 168.21 190.19 167.84 189.10 166.93 188.66 C 166.03 188.22 164.95 188.60 164.51 189.50 Z M 164.10 190.36 L 163.67 191.23 C 163.23 192.12 163.59 193.20 164.48 193.65 C 165.37 194.09 166.46 193.73 166.90 192.84 L 167.33 191.97 C 167.78 191.08 167.42 190.00 166.52 189.55 C 165.63 189.11 164.55 189.47 164.10 190.36 Z M 163.69 191.21 L 163.24 192.09 C 162.78 192.97 163.13 194.05 164.01 194.50 C 164.89 194.96 165.97 194.62 166.42 193.74 L 166.88 192.86 C 167.33 191.98 166.99 190.90 166.11 190.44 C 165.23 189.99 164.15 190.33 163.69 191.21 Z M 163.27 192.06 L 162.78 192.96 C 162.31 193.82 162.63 194.90 163.49 195.37 C 164.36 195.84 165.44 195.52 165.91 194.66 L 166.39 193.76 C 166.86 192.90 166.54 191.82 165.68 191.35 C 164.82 190.88 163.74 191.20 163.27 192.06 Z M 162.81 192.93 L 162.29 193.84 C 161.80 194.69 162.09 195.77 162.94 196.25 C 163.79 196.74 164.87 196.45 165.35 195.60 L 165.88 194.69 C 166.36 193.84 166.07 192.76 165.22 192.28 C 164.38 191.79 163.30 192.08 162.81 192.93 Z M 162.32 193.81 L 161.79 194.68 C 161.29 195.51 161.56 196.59 162.39 197.09 C 163.21 197.59 164.29 197.33 164.80 196.50 L 165.32 195.63 C 165.82 194.80 165.56 193.72 164.73 193.22 C 163.90 192.72 162.82 192.98 162.32 193.81 Z M 161.83 194.65 L 161.27 195.52 C 160.75 196.33 160.99 197.41 161.80 197.92 C 162.62 198.44 163.69 198.20 164.21 197.39 L 164.76 196.52 C 165.28 195.71 165.04 194.64 164.23 194.12 C 163.42 193.60 162.34 193.84 161.83 194.65 Z M 161.31 195.49 L 160.74 196.33 C 160.20 197.13 160.41 198.20 161.20 198.74 C 162.00 199.27 163.07 199.06 163.61 198.27 L 164.18 197.42 C 164.71 196.63 164.50 195.55 163.71 195.02 C 162.92 194.49 161.84 194.70 161.31 195.49 Z M 160.77 196.30 L 160.20 197.10 C 159.65 197.87 159.82 198.95 160.59 199.50 C 161.36 200.05 162.44 199.88 162.99 199.11 L 163.57 198.30 C 164.12 197.53 163.94 196.46 163.17 195.91 C 162.40 195.35 161.33 195.53 160.77 196.30 Z M 160.25 197.06 L 159.65 197.83 C 159.07 198.58 159.21 199.65 159.95 200.23 C 160.70 200.80 161.77 200.67 162.34 199.92 L 162.94 199.15 C 163.52 198.40 163.38 197.33 162.64 196.76 C 161.89 196.18 160.82 196.32 160.25 197.06 Z M 159.73 197.77 L 158.99 198.62 C 158.38 199.32 158.45 200.38 159.15 200.99 C 159.84 201.60 160.90 201.53 161.51 200.83 L 162.26 199.98 C 162.87 199.29 162.80 198.23 162.10 197.62 C 161.40 197.00 160.34 197.07 159.73 197.77 Z M 159.14 198.52 L 158.40 199.20 C 157.73 199.82 157.69 200.85 158.30 201.52 C 158.92 202.19 159.96 202.23 160.62 201.62 L 161.37 200.94 C 162.03 200.32 162.08 199.28 161.46 198.61 C 160.85 197.95 159.81 197.90 159.14 198.52 Z M 158.63 199.07 L 157.87 199.57 C 157.12 200.05 156.92 201.05 157.41 201.79 C 157.89 202.54 158.89 202.74 159.63 202.25 L 160.39 201.75 C 161.14 201.27 161.34 200.27 160.85 199.53 C 160.37 198.78 159.37 198.58 158.63 199.07 Z M 158.20 199.44 L 157.36 199.75 C 156.54 200.05 156.13 200.96 156.43 201.77 C 156.73 202.59 157.64 203.00 158.46 202.70 L 159.30 202.39 C 160.11 202.08 160.53 201.17 160.22 200.36 C 159.92 199.55 159.01 199.13 158.20 199.44 Z M 157.72 199.69 L 156.75 199.81 C 155.91 199.92 155.31 200.69 155.41 201.53 C 155.52 202.38 156.29 202.98 157.13 202.87 L 158.10 202.75 C 158.94 202.65 159.54 201.88 159.44 201.03 C 159.33 200.19 158.56 199.59 157.72 199.69 Z M 156.99 199.83 L 155.99 199.80 C 155.15 199.77 154.46 200.43 154.43 201.26 C 154.40 202.10 155.06 202.79 155.89 202.82 L 156.89 202.85 C 157.73 202.88 158.43 202.23 158.45 201.39 C 158.48 200.56 157.83 199.86 156.99 199.83 Z M 156.09 199.84 L 155.11 199.74 C 154.30 199.65 153.57 200.24 153.48 201.06 C 153.40 201.87 153.99 202.60 154.80 202.68 L 155.78 202.78 C 156.60 202.87 157.33 202.28 157.41 201.47 C 157.50 200.65 156.90 199.92 156.09 199.84 Z"
      fill="black"
      fill-rule="nonzero" /><path d="M 161.60 154.10 L 162.21 154.96 C 162.71 155.67 163.70 155.84 164.42 155.33 C 165.13 154.83 165.30 153.84 164.79 153.13 L 164.18 152.27 C 163.68 151.56 162.69 151.39 161.98 151.90 C 161.26 152.40 161.09 153.39 161.60 154.10 Z M 162.17 154.98 L 162.77 155.83 C 163.29 156.56 164.31 156.73 165.04 156.21 C 165.77 155.69 165.95 154.68 165.43 153.94 L 164.83 153.10 C 164.31 152.37 163.29 152.19 162.56 152.71 C 161.82 153.24 161.65 154.25 162.17 154.98 Z M 162.74 155.85 L 163.32 156.68 C 163.86 157.43 164.90 157.60 165.65 157.07 C 166.40 156.53 166.58 155.49 166.04 154.74 L 165.46 153.92 C 164.93 153.16 163.88 152.99 163.13 153.52 C 162.38 154.06 162.20 155.10 162.74 155.85 Z M 163.29 156.70 L 163.85 157.49 C 164.40 158.26 165.47 158.44 166.24 157.89 C 167.01 157.34 167.19 156.27 166.64 155.50 L 166.08 154.71 C 165.53 153.94 164.46 153.76 163.69 154.31 C 162.92 154.86 162.74 155.93 163.29 156.70 Z M 163.82 157.52 L 164.37 158.29 C 164.94 159.08 166.03 159.26 166.82 158.70 C 167.61 158.13 167.79 157.04 167.23 156.25 L 166.67 155.47 C 166.11 154.69 165.01 154.50 164.22 155.07 C 163.44 155.63 163.25 156.73 163.82 157.52 Z M 164.36 158.31 L 164.95 159.14 C 165.53 159.93 166.64 160.11 167.43 159.54 C 168.23 158.97 168.41 157.86 167.84 157.06 L 167.24 156.23 C 166.67 155.44 165.56 155.26 164.76 155.83 C 163.97 156.40 163.79 157.51 164.36 158.31 Z M 164.95 159.14 L 165.53 159.94 C 166.10 160.74 167.22 160.91 168.02 160.34 C 168.81 159.76 168.99 158.65 168.42 157.85 L 167.84 157.05 C 167.26 156.26 166.15 156.08 165.35 156.65 C 164.55 157.23 164.37 158.35 164.95 159.14 Z M 165.52 159.94 L 166.10 160.74 C 166.68 161.54 167.80 161.71 168.60 161.13 C 169.40 160.55 169.57 159.43 168.99 158.63 L 168.42 157.84 C 167.84 157.04 166.72 156.86 165.92 157.44 C 165.12 158.02 164.94 159.14 165.52 159.94 Z M 166.09 160.74 L 166.67 161.54 C 167.25 162.34 168.38 162.52 169.18 161.94 C 169.98 161.35 170.16 160.23 169.58 159.43 L 169.00 158.63 C 168.42 157.83 167.29 157.65 166.49 158.23 C 165.69 158.81 165.51 159.94 166.09 160.74 Z M 166.67 161.54 L 167.20 162.28 C 167.79 163.09 168.91 163.27 169.72 162.68 C 170.52 162.10 170.70 160.97 170.12 160.17 L 169.58 159.43 C 169.00 158.62 167.87 158.44 167.07 159.03 C 166.26 159.61 166.08 160.73 166.67 161.54 Z M 167.20 162.28 L 167.76 163.06 C 168.34 163.87 169.47 164.05 170.28 163.47 C 171.09 162.89 171.27 161.76 170.69 160.95 L 170.13 160.17 C 169.54 159.36 168.41 159.18 167.61 159.76 C 166.80 160.34 166.61 161.47 167.20 162.28 Z M 167.75 163.06 L 168.34 163.88 C 168.92 164.70 170.05 164.89 170.87 164.30 C 171.68 163.72 171.87 162.59 171.29 161.78 L 170.70 160.95 C 170.12 160.14 168.99 159.95 168.17 160.53 C 167.36 161.12 167.17 162.25 167.75 163.06 Z M 168.33 163.88 L 168.95 164.75 C 169.53 165.57 170.66 165.76 171.48 165.19 C 172.30 164.61 172.49 163.48 171.91 162.66 L 171.30 161.79 C 170.72 160.97 169.59 160.77 168.77 161.35 C 167.95 161.93 167.76 163.06 168.33 163.88 Z M 168.94 164.74 L 169.53 165.59 C 170.10 166.41 171.24 166.61 172.06 166.04 C 172.88 165.46 173.09 164.33 172.51 163.51 L 171.92 162.66 C 171.35 161.84 170.21 161.64 169.39 162.21 C 168.57 162.79 168.37 163.92 168.94 164.74 Z M 169.52 165.58 L 170.06 166.37 C 170.64 167.20 171.77 167.40 172.60 166.83 C 173.42 166.26 173.63 165.13 173.06 164.30 L 172.52 163.52 C 171.95 162.69 170.81 162.48 169.99 163.05 C 169.16 163.62 168.95 164.76 169.52 165.58 Z M 170.06 166.36 L 170.61 167.18 C 171.18 168.01 172.32 168.22 173.15 167.65 C 173.98 167.08 174.19 165.95 173.62 165.12 L 173.07 164.31 C 172.50 163.47 171.36 163.26 170.53 163.83 C 169.70 164.40 169.49 165.53 170.06 166.36 Z M 170.61 167.17 L 171.17 168.01 C 171.74 168.84 172.88 169.06 173.71 168.49 C 174.54 167.92 174.76 166.79 174.19 165.95 L 173.63 165.12 C 173.06 164.29 171.93 164.07 171.09 164.64 C 170.26 165.20 170.04 166.34 170.61 167.17 Z M 171.17 168.00 L 171.74 168.85 C 172.31 169.69 173.45 169.91 174.28 169.35 C 175.12 168.78 175.34 167.64 174.77 166.81 L 174.20 165.96 C 173.63 165.12 172.50 164.90 171.66 165.46 C 170.82 166.03 170.60 167.17 171.17 168.00 Z M 171.74 168.85 L 172.32 169.72 C 172.88 170.56 174.02 170.78 174.86 170.22 C 175.70 169.65 175.92 168.51 175.36 167.67 L 174.78 166.81 C 174.21 165.97 173.08 165.75 172.24 166.31 C 171.40 166.88 171.17 168.01 171.74 168.85 Z M 172.32 169.72 L 172.87 170.54 C 173.44 171.39 174.58 171.61 175.42 171.05 C 176.26 170.48 176.48 169.34 175.92 168.50 L 175.36 167.67 C 174.80 166.83 173.66 166.61 172.82 167.17 C 171.98 167.74 171.75 168.88 172.32 169.72 Z M 172.87 170.54 L 173.42 171.36 C 173.98 172.20 175.12 172.42 175.96 171.86 C 176.80 171.30 177.03 170.16 176.46 169.32 L 175.92 168.50 C 175.36 167.66 174.22 167.44 173.38 168.00 C 172.53 168.56 172.31 169.70 172.87 170.54 Z M 173.41 171.35 L 173.96 172.18 C 174.52 173.02 175.66 173.25 176.51 172.68 C 177.35 172.12 177.58 170.98 177.01 170.14 L 176.47 169.32 C 175.90 168.48 174.76 168.25 173.92 168.81 C 173.08 169.37 172.85 170.51 173.41 171.35 Z M 173.96 172.17 L 174.51 173.01 C 175.08 173.85 176.21 174.08 177.06 173.52 C 177.90 172.96 178.13 171.82 177.57 170.97 L 177.01 170.14 C 176.45 169.30 175.31 169.07 174.47 169.63 C 173.63 170.19 173.40 171.33 173.96 172.17 Z M 174.51 173.00 L 175.07 173.85 C 175.63 174.69 176.77 174.92 177.61 174.36 C 178.46 173.80 178.69 172.66 178.13 171.82 L 177.57 170.98 C 177.01 170.13 175.87 169.90 175.03 170.46 C 174.18 171.02 173.95 172.16 174.51 173.00 Z M 175.07 173.84 L 175.63 174.70 C 176.19 175.54 177.33 175.77 178.18 175.22 C 179.02 174.66 179.25 173.52 178.69 172.67 L 178.13 171.82 C 177.57 170.97 176.43 170.74 175.59 171.30 C 174.74 171.86 174.51 173.00 175.07 173.84 Z M 175.63 174.69 L 176.19 175.54 C 176.74 176.38 177.88 176.62 178.73 176.06 C 179.57 175.50 179.81 174.36 179.25 173.52 L 178.70 172.68 C 178.14 171.83 177.00 171.60 176.16 172.15 C 175.31 172.71 175.08 173.85 175.63 174.69 Z M 176.19 175.53 L 176.72 176.35 C 177.28 177.20 178.41 177.43 179.26 176.88 C 180.11 176.32 180.34 175.18 179.79 174.34 L 179.25 173.52 C 178.70 172.67 177.56 172.44 176.71 172.99 C 175.87 173.55 175.63 174.69 176.19 175.53 Z M 176.72 176.35 L 177.26 177.18 C 177.82 178.02 178.95 178.26 179.80 177.70 C 180.65 177.15 180.88 176.01 180.33 175.17 L 179.79 174.34 C 179.23 173.49 178.10 173.26 177.25 173.81 C 176.40 174.37 176.17 175.50 176.72 176.35 Z M 177.26 177.17 L 177.81 178.01 C 178.36 178.86 179.50 179.09 180.35 178.54 C 181.19 177.99 181.43 176.85 180.88 176.00 L 180.33 175.17 C 179.78 174.32 178.64 174.08 177.79 174.64 C 176.95 175.19 176.71 176.33 177.26 177.17 Z M 177.81 178.01 L 178.36 178.85 C 178.92 179.70 180.05 179.94 180.90 179.38 C 181.74 178.83 181.98 177.69 181.43 176.85 L 180.88 176.00 C 180.32 175.16 179.19 174.92 178.34 175.47 C 177.50 176.03 177.26 177.16 177.81 178.01 Z M 178.36 178.85 L 178.92 179.70 C 179.47 180.55 180.61 180.78 181.45 180.23 C 182.30 179.68 182.53 178.54 181.98 177.70 L 181.43 176.85 C 180.87 176.00 179.74 175.76 178.89 176.32 C 178.05 176.87 177.81 178.00 178.36 178.85 Z M 178.92 179.70 L 179.48 180.55 C 180.03 181.40 181.16 181.64 182.01 181.08 C 182.86 180.53 183.09 179.40 182.54 178.55 L 181.98 177.70 C 181.43 176.85 180.29 176.61 179.45 177.17 C 178.60 177.72 178.37 178.85 178.92 179.70 Z M 179.48 180.55 L 180.03 181.39 C 180.58 182.24 181.72 182.47 182.56 181.92 C 183.40 181.36 183.64 180.23 183.09 179.39 L 182.54 178.55 C 181.98 177.71 180.85 177.47 180.01 178.02 C 179.16 178.58 178.93 179.71 179.48 180.55 Z M 180.03 181.39 L 180.58 182.22 C 181.13 183.07 182.26 183.30 183.11 182.75 C 183.95 182.19 184.18 181.06 183.63 180.22 L 183.08 179.39 C 182.53 178.55 181.40 178.31 180.56 178.86 C 179.71 179.42 179.48 180.55 180.03 181.39 Z M 180.58 182.22 L 181.13 183.06 C 181.69 183.90 182.82 184.13 183.66 183.58 C 184.50 183.02 184.73 181.89 184.18 181.05 L 183.63 180.22 C 183.07 179.38 181.94 179.15 181.10 179.70 C 180.26 180.26 180.03 181.38 180.58 182.22 Z M 181.14 183.06 L 181.69 183.89 C 182.24 184.73 183.37 184.96 184.21 184.41 C 185.05 183.85 185.28 182.72 184.72 181.89 L 184.17 181.05 C 183.62 180.21 182.49 179.99 181.65 180.54 C 180.81 181.09 180.58 182.22 181.14 183.06 Z M 181.70 183.90 L 182.25 184.73 C 182.81 185.57 183.93 185.79 184.77 185.24 C 185.60 184.68 185.83 183.55 185.27 182.72 L 184.72 181.89 C 184.16 181.05 183.04 180.82 182.20 181.38 C 181.37 181.93 181.14 183.06 181.70 183.90 Z M 182.26 184.73 L 182.81 185.57 C 183.37 186.40 184.50 186.62 185.33 186.06 C 186.16 185.51 186.38 184.38 185.83 183.55 L 185.27 182.72 C 184.71 181.89 183.59 181.66 182.75 182.22 C 181.92 182.78 181.70 183.90 182.26 184.73 Z M 182.82 185.57 L 183.38 186.40 C 183.94 187.23 185.06 187.45 185.89 186.89 C 186.72 186.33 186.94 185.21 186.38 184.38 L 185.82 183.55 C 185.26 182.72 184.14 182.50 183.31 183.06 C 182.48 183.62 182.26 184.74 182.82 185.57 Z M 183.39 186.40 L 183.96 187.24 C 184.52 188.06 185.64 188.28 186.46 187.72 C 187.29 187.16 187.50 186.04 186.94 185.21 L 186.37 184.38 C 185.81 183.55 184.69 183.34 183.87 183.90 C 183.04 184.46 182.83 185.58 183.39 186.40 Z M 183.96 187.24 L 184.53 188.08 C 185.10 188.90 186.22 189.11 187.04 188.55 C 187.86 187.98 188.07 186.86 187.51 186.04 L 186.93 185.21 C 186.37 184.39 185.25 184.18 184.43 184.74 C 183.61 185.30 183.40 186.42 183.96 187.24 Z M 184.54 188.08 L 185.11 188.91 C 185.68 189.73 186.79 189.93 187.61 189.37 C 188.43 188.81 188.63 187.69 188.07 186.87 L 187.50 186.04 C 186.94 185.22 185.82 185.02 185.00 185.58 C 184.18 186.14 183.98 187.26 184.54 188.08 Z M 185.12 188.91 L 185.69 189.73 C 186.25 190.55 187.37 190.75 188.18 190.19 C 189.00 189.62 189.20 188.51 188.64 187.70 L 188.06 186.87 C 187.50 186.06 186.39 185.86 185.57 186.42 C 184.76 186.98 184.56 188.10 185.12 188.91 Z M 185.70 189.73 L 186.27 190.55 C 186.83 191.36 187.94 191.56 188.75 191.00 C 189.56 190.44 189.76 189.32 189.20 188.51 L 188.63 187.70 C 188.07 186.89 186.95 186.69 186.14 187.25 C 185.33 187.81 185.13 188.92 185.70 189.73 Z M 186.27 190.55 L 186.84 191.37 C 187.40 192.17 188.51 192.37 189.32 191.81 C 190.12 191.24 190.32 190.13 189.76 189.33 L 189.19 188.52 C 188.63 187.71 187.52 187.51 186.71 188.07 C 185.91 188.64 185.71 189.75 186.27 190.55 Z M 186.84 191.36 L 187.41 192.17 C 187.97 192.97 189.07 193.17 189.88 192.61 C 190.68 192.05 190.88 190.94 190.32 190.13 L 189.76 189.33 C 189.19 188.53 188.09 188.33 187.28 188.89 C 186.48 189.45 186.28 190.56 186.84 191.36 Z M 187.41 192.17 L 187.99 192.99 C 188.55 193.80 189.65 193.99 190.45 193.43 C 191.26 192.87 191.45 191.77 190.89 190.97 L 190.31 190.14 C 189.75 189.34 188.65 189.14 187.85 189.70 C 187.05 190.26 186.85 191.36 187.41 192.17 Z M 188.00 192.99 L 188.57 193.82 C 189.13 194.61 190.23 194.81 191.03 194.25 C 191.83 193.69 192.02 192.59 191.46 191.79 L 190.88 190.97 C 190.33 190.17 189.23 189.98 188.43 190.54 C 187.63 191.09 187.44 192.19 188.00 192.99 Z M 188.58 193.81 L 189.16 194.63 C 189.72 195.42 190.81 195.61 191.60 195.06 C 192.40 194.50 192.59 193.40 192.03 192.61 L 191.45 191.79 C 190.89 191.00 189.80 190.81 189.01 191.37 C 188.21 191.93 188.02 193.02 188.58 193.81 Z M 189.17 194.63 L 189.74 195.44 C 190.30 196.23 191.39 196.42 192.18 195.86 C 192.97 195.30 193.16 194.21 192.60 193.42 L 192.02 192.61 C 191.46 191.82 190.37 191.63 189.58 192.19 C 188.79 192.75 188.61 193.84 189.17 194.63 Z M 189.75 195.45 L 190.33 196.25 C 190.89 197.04 191.98 197.22 192.76 196.66 C 193.55 196.10 193.73 195.01 193.17 194.22 L 192.59 193.42 C 192.03 192.63 190.94 192.45 190.15 193.01 C 189.37 193.57 189.19 194.66 189.75 195.45 Z M 190.34 196.26 L 190.93 197.06 C 191.49 197.84 192.58 198.01 193.35 197.45 C 194.13 196.89 194.30 195.80 193.74 195.02 L 193.15 194.22 C 192.59 193.44 191.50 193.27 190.73 193.83 C 189.95 194.40 189.78 195.48 190.34 196.26 Z M 190.94 197.07 L 191.54 197.88 C 192.10 198.65 193.19 198.82 193.96 198.25 C 194.73 197.69 194.89 196.60 194.32 195.83 L 193.73 195.02 C 193.16 194.25 192.08 194.08 191.31 194.65 C 190.54 195.22 190.37 196.30 190.94 197.07 Z M 191.55 197.89 L 192.17 198.72 C 192.74 199.48 193.82 199.64 194.58 199.07 C 195.34 198.50 195.50 197.42 194.93 196.66 L 194.31 195.83 C 193.74 195.06 192.66 194.91 191.90 195.48 C 191.14 196.05 190.98 197.13 191.55 197.89 Z M 192.19 198.73 L 192.81 199.55 C 193.38 200.30 194.46 200.45 195.21 199.87 C 195.97 199.30 196.11 198.22 195.54 197.47 L 194.92 196.65 C 194.34 195.89 193.27 195.75 192.51 196.32 C 191.76 196.90 191.61 197.97 192.19 198.73 Z M 192.83 199.55 L 193.45 200.36 C 194.03 201.10 195.10 201.24 195.85 200.66 C 196.59 200.08 196.73 199.01 196.15 198.27 L 195.52 197.46 C 194.95 196.72 193.87 196.58 193.13 197.16 C 192.38 197.74 192.25 198.81 192.83 199.55 Z M 193.47 200.37 L 194.09 201.15 C 194.67 201.89 195.74 202.01 196.48 201.43 C 197.21 200.84 197.34 199.77 196.75 199.04 L 196.13 198.26 C 195.55 197.52 194.48 197.40 193.74 197.98 C 193.01 198.56 192.88 199.63 193.47 200.37 Z M 194.11 201.16 L 194.72 201.92 C 195.31 202.64 196.38 202.75 197.10 202.16 C 197.83 201.57 197.94 200.51 197.35 199.78 L 196.73 199.03 C 196.14 198.30 195.08 198.19 194.35 198.78 C 193.63 199.37 193.52 200.44 194.11 201.16 Z M 194.74 201.93 L 195.34 202.65 C 195.94 203.36 197.00 203.46 197.71 202.86 C 198.43 202.26 198.52 201.20 197.93 200.49 L 197.33 199.77 C 196.73 199.05 195.67 198.96 194.95 199.56 C 194.24 200.15 194.14 201.22 194.74 201.93 Z M 195.37 202.66 L 196.08 203.48 C 196.68 204.18 197.74 204.26 198.44 203.65 C 199.14 203.04 199.21 201.98 198.61 201.29 L 197.90 200.47 C 197.29 199.77 196.23 199.69 195.54 200.30 C 194.84 200.91 194.76 201.97 195.37 202.66 Z M 196.11 203.50 L 196.81 204.27 C 197.43 204.95 198.48 205.00 199.16 204.38 C 199.84 203.76 199.89 202.71 199.27 202.03 L 198.57 201.26 C 197.96 200.58 196.90 200.53 196.22 201.15 C 195.54 201.77 195.49 202.82 196.11 203.50 Z M 196.85 204.29 L 197.53 205.01 C 198.16 205.67 199.21 205.69 199.87 205.06 C 200.53 204.43 200.55 203.38 199.92 202.72 L 199.23 202.01 C 198.60 201.35 197.56 201.32 196.90 201.95 C 196.24 202.59 196.21 203.63 196.85 204.29 Z M 197.57 205.03 L 198.26 205.71 C 198.90 206.35 199.94 206.34 200.58 205.69 C 201.21 205.05 201.21 204.01 200.56 203.37 L 199.88 202.70 C 199.23 202.06 198.19 202.07 197.56 202.71 C 196.92 203.36 196.93 204.40 197.57 205.03 Z M 198.30 205.73 L 198.99 206.38 C 199.65 206.99 200.68 206.95 201.29 206.29 C 201.91 205.64 201.87 204.60 201.21 203.99 L 200.52 203.35 C 199.86 202.73 198.83 202.77 198.22 203.43 C 197.60 204.09 197.64 205.12 198.30 205.73 Z M 199.03 206.40 L 199.78 207.06 C 200.45 207.65 201.47 207.58 202.06 206.90 C 202.65 206.23 202.59 205.21 201.91 204.62 L 201.17 203.97 C 200.49 203.38 199.47 203.44 198.88 204.12 C 198.29 204.79 198.36 205.81 199.03 206.40 Z M 199.82 207.08 L 200.60 207.72 C 201.28 208.28 202.30 208.19 202.86 207.50 C 203.43 206.81 203.33 205.80 202.65 205.24 L 201.87 204.60 C 201.18 204.03 200.17 204.13 199.60 204.81 C 199.04 205.50 199.14 206.51 199.82 207.08 Z M 200.64 207.74 L 201.43 208.35 C 202.12 208.90 203.13 208.77 203.67 208.08 C 204.21 207.38 204.09 206.38 203.39 205.83 L 202.60 205.22 C 201.91 204.67 200.90 204.80 200.36 205.49 C 199.82 206.19 199.94 207.19 200.64 207.74 Z M 201.46 208.37 L 202.26 208.96 C 202.97 209.48 203.96 209.34 204.48 208.63 C 205.01 207.93 204.86 206.93 204.16 206.41 L 203.36 205.82 C 202.65 205.30 201.66 205.44 201.14 206.15 C 200.61 206.85 200.76 207.84 201.46 208.37 Z M 202.30 208.97 L 203.10 209.54 C 203.81 210.05 204.80 209.88 205.30 209.17 C 205.81 208.46 205.64 207.48 204.93 206.97 L 204.12 206.40 C 203.41 205.90 202.43 206.06 201.92 206.77 C 201.42 207.48 201.59 208.47 202.30 208.97 Z M 203.13 209.55 L 203.96 210.12 C 204.68 210.61 205.65 210.42 206.14 209.71 C 206.63 208.99 206.44 208.02 205.73 207.53 L 204.90 206.97 C 204.19 206.48 203.21 206.66 202.72 207.38 C 202.24 208.09 202.42 209.07 203.13 209.55 Z M 203.99 210.13 L 204.83 210.68 C 205.55 211.15 206.52 210.94 206.99 210.22 C 207.46 209.50 207.26 208.54 206.54 208.07 L 205.70 207.52 C 204.98 207.05 204.01 207.25 203.54 207.97 C 203.07 208.69 203.27 209.66 203.99 210.13 Z M 204.86 210.69 L 205.71 211.22 C 206.44 211.67 207.40 211.44 207.85 210.72 C 208.30 209.99 208.08 209.03 207.35 208.58 L 206.50 208.05 C 205.77 207.60 204.82 207.83 204.37 208.55 C 203.91 209.28 204.14 210.24 204.86 210.69 Z M 205.75 211.23 L 206.61 211.73 C 207.35 212.16 208.29 211.92 208.72 211.18 C 209.15 210.45 208.91 209.50 208.17 209.07 L 207.31 208.57 C 206.58 208.14 205.63 208.38 205.20 209.12 C 204.77 209.85 205.02 210.80 205.75 211.23 Z M 206.65 211.75 L 207.52 212.23 C 208.27 212.64 209.20 212.37 209.61 211.62 C 210.02 210.88 209.75 209.95 209.00 209.54 L 208.13 209.06 C 207.39 208.65 206.46 208.92 206.05 209.66 C 205.64 210.41 205.91 211.34 206.65 211.75 Z M 207.57 212.24 L 208.44 212.69 C 209.19 213.08 210.11 212.78 210.50 212.03 C 210.88 211.28 210.59 210.36 209.84 209.97 L 208.96 209.52 C 208.21 209.14 207.29 209.43 206.90 210.18 C 206.52 210.93 206.81 211.86 207.57 212.24 Z M 208.47 212.70 L 209.37 213.13 C 210.12 213.50 211.03 213.18 211.40 212.42 C 211.77 211.67 211.45 210.76 210.69 210.39 L 209.80 209.96 C 209.04 209.59 208.13 209.91 207.77 210.67 C 207.40 211.43 207.72 212.34 208.47 212.70 Z M 209.40 213.14 L 210.31 213.56 C 211.07 213.91 211.97 213.57 212.32 212.81 C 212.67 212.05 212.33 211.14 211.57 210.80 L 210.66 210.38 C 209.90 210.03 209.00 210.37 208.65 211.13 C 208.30 211.89 208.63 212.79 209.40 213.14 Z M 210.34 213.57 L 211.27 213.97 C 212.03 214.30 212.92 213.95 213.26 213.19 C 213.59 212.42 213.24 211.53 212.47 211.19 L 211.54 210.79 C 210.78 210.46 209.88 210.81 209.55 211.57 C 209.22 212.34 209.57 213.23 210.34 213.57 Z M 211.29 213.97 L 212.21 214.36 C 212.98 214.68 213.87 214.32 214.19 213.55 C 214.51 212.78 214.14 211.90 213.37 211.58 L 212.45 211.19 C 211.68 210.87 210.80 211.23 210.48 212.00 C 210.16 212.77 210.52 213.65 211.29 213.97 Z M 212.23 214.36 L 213.13 214.72 C 213.90 215.03 214.78 214.66 215.09 213.89 C 215.40 213.12 215.03 212.24 214.25 211.93 L 213.36 211.57 C 212.59 211.26 211.71 211.64 211.40 212.41 C 211.09 213.18 211.46 214.05 212.23 214.36 Z M 213.15 214.73 L 214.06 215.09 C 214.84 215.39 215.71 215.01 216.01 214.24 C 216.31 213.47 215.93 212.60 215.16 212.29 L 214.24 211.93 C 213.47 211.63 212.60 212.01 212.30 212.78 C 212.00 213.55 212.38 214.42 213.15 214.73 Z M 214.08 215.09 L 215.01 215.44 C 215.78 215.74 216.65 215.35 216.94 214.58 C 217.24 213.81 216.85 212.95 216.08 212.65 L 215.15 212.29 C 214.38 212.00 213.51 212.38 213.22 213.15 C 212.92 213.93 213.31 214.79 214.08 215.09 Z M 215.02 215.44 L 215.98 215.80 C 216.75 216.09 217.61 215.71 217.90 214.93 C 218.19 214.16 217.80 213.30 217.03 213.01 L 216.07 212.65 C 215.30 212.36 214.44 212.75 214.15 213.52 C 213.86 214.29 214.25 215.15 215.02 215.44 Z M 215.99 215.80 L 216.95 216.16 C 217.72 216.45 218.58 216.06 218.86 215.29 C 219.15 214.52 218.76 213.66 217.99 213.38 L 217.02 213.02 C 216.26 212.73 215.40 213.12 215.11 213.89 C 214.83 214.66 215.22 215.52 215.99 215.80 Z M 216.96 216.16 L 217.87 216.50 C 218.64 216.79 219.49 216.39 219.78 215.62 C 220.06 214.86 219.67 214.00 218.90 213.72 L 217.99 213.38 C 217.22 213.09 216.36 213.49 216.08 214.25 C 215.80 215.02 216.19 215.88 216.96 216.16 Z M 217.88 216.50 L 218.81 216.84 C 219.57 217.13 220.43 216.73 220.71 215.96 C 220.99 215.20 220.60 214.35 219.83 214.06 L 218.90 213.72 C 218.13 213.44 217.28 213.83 217.00 214.60 C 216.71 215.36 217.11 216.22 217.88 216.50 Z M 218.81 216.84 L 219.75 217.19 C 220.52 217.47 221.37 217.08 221.65 216.31 C 221.93 215.54 221.54 214.69 220.77 214.41 L 219.83 214.06 C 219.06 213.78 218.21 214.17 217.93 214.94 C 217.65 215.71 218.04 216.56 218.81 216.84 Z M 219.75 217.19 L 220.70 217.53 C 221.46 217.81 222.31 217.42 222.59 216.65 C 222.88 215.89 222.48 215.04 221.72 214.76 L 220.77 214.41 C 220.00 214.13 219.15 214.52 218.87 215.29 C 218.59 216.06 218.98 216.90 219.75 217.19 Z M 220.70 217.53 L 221.65 217.88 C 222.42 218.16 223.26 217.77 223.54 217.00 C 223.82 216.24 223.43 215.39 222.67 215.11 L 221.71 214.76 C 220.95 214.48 220.10 214.87 219.82 215.64 C 219.54 216.40 219.93 217.25 220.70 217.53 Z M 221.65 217.88 L 222.18 218.07 C 222.95 218.35 223.79 217.96 224.07 217.19 C 224.35 216.43 223.96 215.58 223.19 215.30 L 222.67 215.11 C 221.90 214.83 221.05 215.22 220.78 215.99 C 220.50 216.75 220.89 217.60 221.65 217.88 Z"
      fill="black"
      fill-rule="nonzero" /></svg>