<svg xmlns="http://www.w3.org/2000/svg" width="300" height="300" viewBox="0 0 300 300">
<path d="M 144.98 116.64 L 144.80 117.56 C 144.64 118.39 145.18 119.20 146.01 119.36 C 146.84 119.53 147.65 118.99 147.81 118.15 L 147.99 117.24 C 148.16 116.40 147.62 115.60 146.78 115.44 C 145.95 115.27 145.15 115.81 144.98 116.64 Z M 144.76 117.58 L 144.59 118.54 C 144.44 119.39 145.01 120.21 145.86 120.36 C 146.72 120.51 147.54 119.94 147.69 119.09 L 147.86 118.13 C 148.01 117.28 147.44 116.46 146.58 116.31 C 145.73 116.16 144.91 116.73 144.76 117.58 Z M 144.54 118.58 L 144.39 119.60 C 144.26 120.48 144.88 121.30 145.76 121.43 C 146.64 121.56 147.46 120.95 147.59 120.06 L 147.74 119.04 C 147.86 118.16 147.25 117.34 146.37 117.21 C 145.49 117.08 144.67 117.70 144.54 118.58 Z M 144.35 119.66 L 144.24 120.70 C 144.15 121.61 144.81 122.42 145.71 122.52 C 146.62 122.61 147.43 121.95 147.52 121.04 L 147.63 120.00 C 147.73 119.09 147.07 118.28 146.16 118.19 C 145.25 118.10 144.44 118.76 144.35 119.66 Z M 144.22 120.76 L 144.15 121.75 C 144.09 122.67 144.78 123.47 145.70 123.53 C 146.62 123.59 147.41 122.90 147.48 121.98 L 147.54 120.99 C 147.61 120.07 146.92 119.28 146.00 119.21 C 145.08 119.15 144.28 119.84 144.22 120.76 Z M 144.14 121.79 L 144.09 122.81 C 144.05 123.73 144.76 124.52 145.68 124.56 C 146.60 124.61 147.39 123.90 147.43 122.98 L 147.48 121.95 C 147.53 121.03 146.82 120.24 145.90 120.20 C 144.97 120.15 144.19 120.87 144.14 121.79 Z M 144.09 122.83 L 144.05 123.85 C 144.02 124.77 144.74 125.55 145.66 125.59 C 146.59 125.62 147.37 124.90 147.40 123.97 L 147.44 122.96 C 147.47 122.03 146.75 121.25 145.83 121.22 C 144.90 121.19 144.12 121.91 144.09 122.83 Z M 144.05 123.86 L 144.02 124.83 C 143.99 125.76 144.71 126.54 145.64 126.56 C 146.57 126.59 147.34 125.87 147.37 124.94 L 147.40 123.97 C 147.43 123.04 146.71 122.26 145.78 122.23 C 144.85 122.20 144.08 122.93 144.05 123.86 Z M 144.01 124.83 L 143.98 125.88 C 143.94 126.81 144.67 127.59 145.60 127.62 C 146.53 127.66 147.31 126.93 147.34 126.00 L 147.38 124.94 C 147.41 124.01 146.68 123.23 145.75 123.20 C 144.82 123.17 144.04 123.90 144.01 124.83 Z M 143.97 125.88 L 143.93 126.86 C 143.90 127.79 144.62 128.58 145.55 128.61 C 146.48 128.65 147.27 127.93 147.31 126.99 L 147.34 126.01 C 147.38 125.08 146.66 124.29 145.72 124.26 C 144.79 124.22 144.01 124.94 143.97 125.88 Z M 143.93 126.85 L 143.89 127.82 C 143.84 128.75 144.57 129.54 145.50 129.58 C 146.43 129.62 147.22 128.90 147.26 127.97 L 147.31 127.01 C 147.35 126.07 146.63 125.28 145.70 125.24 C 144.76 125.20 143.97 125.92 143.93 126.85 Z M 143.88 127.81 L 143.83 128.77 C 143.79 129.70 144.50 130.50 145.44 130.55 C 146.37 130.60 147.17 129.88 147.22 128.95 L 147.27 127.98 C 147.32 127.05 146.60 126.25 145.66 126.20 C 144.73 126.15 143.93 126.87 143.88 127.81 Z M 143.83 128.76 L 143.78 129.71 C 143.72 130.65 144.44 131.45 145.37 131.51 C 146.31 131.56 147.11 130.85 147.16 129.91 L 147.22 128.96 C 147.27 128.02 146.56 127.22 145.62 127.16 C 144.69 127.11 143.88 127.83 143.83 128.76 Z M 143.77 129.71 L 143.71 130.70 C 143.66 131.64 144.37 132.45 145.31 132.50 C 146.24 132.56 147.05 131.85 147.11 130.91 L 147.17 129.91 C 147.22 128.98 146.51 128.17 145.57 128.11 C 144.64 128.06 143.83 128.77 143.77 129.71 Z M 143.71 130.70 L 143.65 131.73 C 143.59 132.67 144.30 133.48 145.24 133.54 C 146.18 133.59 146.99 132.88 147.05 131.94 L 147.11 130.91 C 147.17 129.97 146.46 129.16 145.52 129.10 C 144.58 129.05 143.77 129.76 143.71 130.70 Z M 143.64 131.73 L 143.58 132.76 C 143.52 133.70 144.24 134.51 145.18 134.57 C 146.12 134.63 146.93 133.91 146.99 132.97 L 147.05 131.94 C 147.11 131.00 146.39 130.19 145.45 130.13 C 144.51 130.07 143.70 130.79 143.64 131.73 Z M 143.58 132.76 L 143.52 133.73 C 143.46 134.67 144.17 135.49 145.12 135.54 C 146.06 135.60 146.87 134.89 146.93 133.94 L 146.99 132.97 C 147.05 132.03 146.33 131.21 145.39 131.16 C 144.44 131.10 143.63 131.82 143.58 132.76 Z M 143.51 133.73 L 143.45 134.72 C 143.39 135.66 144.11 136.48 145.05 136.54 C 145.99 136.60 146.81 135.88 146.87 134.94 L 146.93 133.95 C 146.99 133.00 146.28 132.19 145.33 132.13 C 144.39 132.07 143.57 132.78 143.51 133.73 Z M 143.45 134.71 L 143.38 135.72 C 143.31 136.66 144.02 137.48 144.97 137.55 C 145.91 137.61 146.73 136.90 146.80 135.95 L 146.87 134.95 C 146.94 134.00 146.22 133.18 145.28 133.12 C 144.33 133.05 143.51 133.76 143.45 134.71 Z M 143.38 135.70 L 143.30 136.72 C 143.22 137.67 143.93 138.50 144.88 138.57 C 145.82 138.64 146.65 137.94 146.72 136.99 L 146.80 135.97 C 146.88 135.02 146.17 134.20 145.22 134.12 C 144.28 134.05 143.45 134.75 143.38 135.70 Z M 143.29 136.71 L 143.21 137.69 C 143.12 138.63 143.82 139.47 144.77 139.55 C 145.72 139.64 146.55 138.94 146.64 137.99 L 146.72 137.01 C 146.81 136.06 146.11 135.23 145.16 135.14 C 144.21 135.06 143.38 135.76 143.29 136.71 Z M 143.21 137.67 L 143.11 138.65 C 143.02 139.60 143.71 140.44 144.66 140.53 C 145.61 140.62 146.45 139.93 146.54 138.98 L 146.64 138.01 C 146.73 137.06 146.04 136.22 145.09 136.12 C 144.14 136.03 143.30 136.73 143.21 137.67 Z M 143.11 138.64 L 143.01 139.63 C 142.91 140.58 143.60 141.43 144.55 141.52 C 145.50 141.62 146.34 140.93 146.44 139.99 L 146.54 138.99 C 146.64 138.05 145.95 137.20 145.00 137.10 C 144.06 137.00 143.21 137.69 143.11 138.64 Z M 143.01 139.63 L 142.90 140.63 C 142.80 141.58 143.49 142.43 144.44 142.53 C 145.38 142.63 146.23 141.95 146.33 141.00 L 146.44 139.99 C 146.54 139.04 145.86 138.19 144.91 138.09 C 143.96 137.99 143.11 138.68 143.01 139.63 Z M 142.90 140.63 L 142.79 141.65 C 142.69 142.60 143.38 143.45 144.32 143.56 C 145.27 143.66 146.12 142.97 146.23 142.02 L 146.34 141.00 C 146.44 140.05 145.75 139.20 144.80 139.10 C 143.85 139.00 143.00 139.68 142.90 140.63 Z M 142.79 141.66 L 142.69 142.63 C 142.59 143.58 143.27 144.43 144.22 144.53 C 145.17 144.64 146.02 143.95 146.12 143.00 L 146.23 142.02 C 146.33 141.07 145.64 140.22 144.69 140.12 C 143.74 140.02 142.89 140.71 142.79 141.66 Z M 142.68 142.64 L 142.58 143.62 C 142.48 144.57 143.17 145.42 144.12 145.52 C 145.07 145.62 145.92 144.93 146.02 143.98 L 146.12 143.00 C 146.22 142.05 145.53 141.19 144.58 141.10 C 143.63 141.00 142.78 141.69 142.68 142.64 Z M 142.58 143.62 L 142.48 144.62 C 142.38 145.57 143.07 146.42 144.02 146.52 C 144.97 146.62 145.82 145.93 145.92 144.98 L 146.02 143.98 C 146.12 143.03 145.43 142.18 144.48 142.08 C 143.53 141.98 142.68 142.67 142.58 143.62 Z M 142.48 144.62 L 142.37 145.63 C 142.27 146.58 142.97 147.43 143.92 147.53 C 144.87 147.62 145.72 146.93 145.82 145.98 L 145.92 144.98 C 146.02 144.03 145.33 143.18 144.38 143.08 C 143.42 142.98 142.57 143.67 142.48 144.62 Z M 142.37 145.63 L 142.27 146.63 C 142.17 147.59 142.86 148.44 143.81 148.53 C 144.77 148.63 145.62 147.94 145.71 146.99 L 145.82 145.98 C 145.92 145.03 145.22 144.18 144.27 144.08 C 143.32 143.98 142.47 144.67 142.37 145.63 Z M 142.27 146.63 L 142.16 147.63 C 142.07 148.59 142.76 149.44 143.71 149.53 C 144.66 149.63 145.51 148.94 145.61 147.99 L 145.72 146.99 C 145.81 146.04 145.12 145.18 144.17 145.09 C 143.22 144.99 142.37 145.68 142.27 146.63 Z M 142.16 147.63 L 142.06 148.63 C 141.96 149.58 142.65 150.43 143.61 150.53 C 144.56 150.63 145.41 149.94 145.51 148.99 L 145.61 147.99 C 145.71 147.04 145.02 146.18 144.07 146.09 C 143.11 145.99 142.26 146.68 142.16 147.63 Z M 142.06 148.63 L 141.96 149.62 C 141.86 150.57 142.55 151.43 143.50 151.53 C 144.45 151.63 145.30 150.94 145.40 149.99 L 145.51 148.99 C 145.61 148.04 144.92 147.18 143.97 147.08 C 143.02 146.98 142.16 147.67 142.06 148.63 Z M 141.96 149.62 L 141.85 150.61 C 141.75 151.56 142.43 152.42 143.39 152.52 C 144.34 152.62 145.19 151.94 145.30 150.98 L 145.40 149.99 C 145.51 149.04 144.82 148.18 143.87 148.08 C 142.92 147.98 142.06 148.66 141.96 149.62 Z M 141.85 150.60 L 141.74 151.59 C 141.63 152.54 142.32 153.40 143.27 153.51 C 144.22 153.62 145.08 152.93 145.18 151.98 L 145.30 150.99 C 145.40 150.04 144.72 149.18 143.77 149.07 C 142.82 148.97 141.96 149.65 141.85 150.60 Z M 141.74 151.58 L 141.62 152.57 C 141.51 153.52 142.19 154.38 143.14 154.49 C 144.09 154.60 144.96 153.92 145.07 152.97 L 145.18 151.99 C 145.30 151.04 144.61 150.18 143.66 150.06 C 142.71 149.95 141.85 150.63 141.74 151.58 Z M 141.62 152.56 L 141.50 153.54 C 141.39 154.49 142.06 155.36 143.01 155.47 C 143.96 155.59 144.83 154.91 144.95 153.96 L 145.07 152.98 C 145.18 152.03 144.51 151.17 143.56 151.05 C 142.61 150.93 141.74 151.61 141.62 152.56 Z M 141.50 153.54 L 141.38 154.52 C 141.26 155.47 141.94 156.34 142.89 156.46 C 143.84 156.58 144.70 155.90 144.82 154.95 L 144.95 153.97 C 145.06 153.02 144.39 152.15 143.44 152.03 C 142.49 151.91 141.62 152.59 141.50 153.54 Z M 141.38 154.52 L 141.26 155.51 C 141.14 156.46 141.81 157.33 142.76 157.45 C 143.71 157.57 144.58 156.90 144.70 155.95 L 144.82 154.95 C 144.94 154.00 144.27 153.14 143.32 153.02 C 142.37 152.90 141.50 153.57 141.38 154.52 Z M 141.26 155.51 L 141.13 156.52 C 141.01 157.47 141.68 158.33 142.63 158.45 C 143.58 158.57 144.45 157.90 144.57 156.95 L 144.70 155.95 C 144.82 155.00 144.14 154.13 143.19 154.01 C 142.24 153.89 141.38 154.56 141.26 155.51 Z M 141.13 156.52 L 141.00 157.53 C 140.88 158.48 141.56 159.35 142.51 159.47 C 143.46 159.59 144.32 158.91 144.44 157.96 L 144.57 156.95 C 144.69 156.00 144.01 155.13 143.06 155.01 C 142.11 154.90 141.25 155.57 141.13 156.52 Z M 141.00 157.54 L 140.88 158.55 C 140.76 159.50 141.44 160.37 142.39 160.48 C 143.34 160.60 144.20 159.92 144.32 158.98 L 144.44 157.96 C 144.56 157.01 143.88 156.14 142.93 156.03 C 141.98 155.91 141.12 156.59 141.00 157.54 Z M 140.88 158.56 L 140.76 159.57 C 140.64 160.52 141.32 161.39 142.27 161.50 C 143.22 161.61 144.08 160.94 144.19 159.99 L 144.32 158.97 C 144.43 158.02 143.75 157.16 142.80 157.05 C 141.85 156.93 140.99 157.61 140.88 158.56 Z M 140.76 159.58 L 140.64 160.58 C 140.53 161.53 141.21 162.39 142.16 162.50 C 143.10 162.61 143.96 161.93 144.08 160.98 L 144.19 159.98 C 144.30 159.03 143.63 158.17 142.68 158.06 C 141.73 157.95 140.87 158.63 140.76 159.58 Z M 140.64 160.59 L 140.53 161.56 C 140.42 162.51 141.10 163.36 142.05 163.47 C 143.00 163.58 143.86 162.90 143.96 161.95 L 144.08 160.98 C 144.18 160.03 143.50 159.17 142.55 159.06 C 141.61 158.96 140.75 159.64 140.64 160.59 Z M 140.53 161.56 L 140.42 162.54 C 140.32 163.49 141.00 164.34 141.95 164.45 C 142.90 164.55 143.75 163.87 143.86 162.92 L 143.96 161.94 C 144.07 161.00 143.38 160.14 142.44 160.04 C 141.49 159.93 140.63 160.62 140.53 161.56 Z M 140.42 162.55 L 140.31 163.62 C 140.21 164.56 140.90 165.41 141.84 165.51 C 142.79 165.61 143.64 164.93 143.74 163.98 L 143.85 162.91 C 143.95 161.97 143.27 161.12 142.32 161.02 C 141.37 160.92 140.52 161.60 140.42 162.55 Z M 140.31 163.63 L 140.21 164.63 C 140.12 165.58 140.81 166.42 141.75 166.52 C 142.70 166.61 143.55 165.92 143.64 164.97 L 143.74 163.97 C 143.83 163.02 143.14 162.18 142.20 162.08 C 141.25 161.99 140.41 162.68 140.31 163.63 Z M 140.21 164.64 L 140.12 165.60 C 140.03 166.55 140.73 167.39 141.68 167.47 C 142.62 167.56 143.46 166.87 143.55 165.92 L 143.64 164.96 C 143.73 164.02 143.03 163.18 142.09 163.09 C 141.14 163.00 140.30 163.70 140.21 164.64 Z M 140.12 165.61 L 140.04 166.54 C 139.96 167.49 140.66 168.32 141.61 168.40 C 142.55 168.49 143.38 167.79 143.47 166.84 L 143.55 165.91 C 143.63 164.97 142.93 164.13 141.98 164.05 C 141.04 163.97 140.21 164.67 140.12 165.61 Z M 140.05 166.56 L 139.97 167.50 C 139.90 168.44 140.60 169.27 141.54 169.34 C 142.48 169.42 143.31 168.72 143.39 167.77 L 143.46 166.83 C 143.54 165.89 142.83 165.06 141.89 164.98 C 140.95 164.91 140.12 165.61 140.05 166.56 Z M 139.98 167.52 L 139.91 168.47 C 139.84 169.41 140.55 170.23 141.49 170.30 C 142.43 170.36 143.25 169.66 143.31 168.72 L 143.38 167.76 C 143.45 166.82 142.74 166.00 141.80 165.93 C 140.86 165.87 140.04 166.58 139.98 167.52 Z M 139.91 168.49 L 139.85 169.49 C 139.79 170.42 140.51 171.23 141.45 171.29 C 142.38 171.34 143.19 170.63 143.25 169.69 L 143.31 168.70 C 143.37 167.76 142.65 166.95 141.71 166.90 C 140.78 166.84 139.97 167.55 139.91 168.49 Z M 139.86 169.50 L 139.80 170.56 C 139.76 171.50 140.48 172.29 141.41 172.34 C 142.35 172.39 143.14 171.67 143.19 170.73 L 143.24 169.67 C 143.29 168.74 142.57 167.94 141.63 167.90 C 140.70 167.85 139.90 168.57 139.86 169.50 Z M 139.81 170.58 L 139.77 171.59 C 139.73 172.52 140.46 173.30 141.39 173.34 C 142.32 173.38 143.11 172.65 143.14 171.72 L 143.18 170.72 C 143.22 169.78 142.50 169.00 141.56 168.96 C 140.63 168.92 139.85 169.65 139.81 170.58 Z M 139.77 171.60 L 139.74 172.61 C 139.72 173.54 140.45 174.32 141.38 174.35 C 142.31 174.37 143.08 173.64 143.11 172.71 L 143.14 171.70 C 143.17 170.77 142.43 170.00 141.51 169.97 C 140.58 169.94 139.80 170.68 139.77 171.60 Z M 139.75 172.64 L 139.73 173.66 C 139.72 174.59 140.45 175.35 141.38 175.37 C 142.31 175.38 143.07 174.65 143.09 173.72 L 143.10 172.69 C 143.12 171.76 142.38 171.00 141.45 170.99 C 140.53 170.97 139.76 171.71 139.75 172.64 Z M 139.74 173.69 L 139.74 174.71 C 139.74 175.63 140.49 176.38 141.41 176.38 C 142.33 176.38 143.08 175.63 143.08 174.71 L 143.08 173.69 C 143.08 172.77 142.33 172.02 141.41 172.02 C 140.48 172.02 139.74 172.77 139.74 173.69 Z M 139.74 174.75 L 139.77 175.73 C 139.79 176.65 140.55 177.37 141.47 177.35 C 142.39 177.33 143.12 176.57 143.10 175.65 L 143.08 174.67 C 143.05 173.75 142.29 173.02 141.37 173.04 C 140.45 173.06 139.72 173.83 139.74 174.75 Z M 139.78 175.79 L 139.85 177.01 C 139.91 177.92 140.69 178.61 141.61 178.56 C 142.52 178.50 143.21 177.72 143.16 176.80 L 143.08 175.59 C 143.03 174.67 142.24 173.98 141.33 174.04 C 140.42 174.09 139.72 174.88 139.78 175.79 Z M 139.89 177.15 L 140.05 178.25 C 140.19 179.14 141.03 179.75 141.92 179.62 C 142.81 179.48 143.43 178.65 143.29 177.75 L 143.13 176.66 C 142.99 175.76 142.15 175.15 141.26 175.28 C 140.36 175.42 139.75 176.26 139.89 177.15 Z M 140.16 178.57 L 140.45 179.36 C 140.77 180.20 141.70 180.62 142.54 180.31 C 143.38 179.99 143.80 179.06 143.49 178.22 L 143.19 177.43 C 142.88 176.59 141.94 176.17 141.10 176.48 C 140.27 176.79 139.84 177.73 140.16 178.57 Z M 140.95 180.02 L 141.47 180.46 C 142.15 181.02 143.16 180.93 143.72 180.25 C 144.29 179.57 144.19 178.56 143.51 178.00 L 142.99 177.56 C 142.31 177.00 141.30 177.09 140.74 177.77 C 140.18 178.45 140.27 179.46 140.95 180.02 Z M 142.68 180.78 L 143.50 180.69 C 144.36 180.58 144.98 179.81 144.88 178.95 C 144.78 178.09 144.00 177.47 143.14 177.57 L 142.31 177.67 C 141.45 177.77 140.84 178.55 140.94 179.41 C 141.04 180.27 141.82 180.88 142.68 180.78 Z M 144.21 180.38 L 145.13 179.72 C 145.82 179.23 145.98 178.28 145.49 177.59 C 145.00 176.90 144.04 176.74 143.35 177.23 L 142.43 177.88 C 141.74 178.37 141.58 179.33 142.07 180.02 C 142.56 180.71 143.52 180.87 144.21 180.38 Z M 145.40 179.43 L 146.03 178.66 C 146.56 178.03 146.47 177.08 145.83 176.55 C 145.20 176.02 144.25 176.11 143.72 176.75 L 143.08 177.52 C 142.55 178.16 142.64 179.10 143.28 179.63 C 143.92 180.16 144.87 180.07 145.40 179.43 Z M 146.13 178.49 L 146.63 177.69 C 147.07 176.99 146.85 176.08 146.16 175.65 C 145.46 175.21 144.55 175.43 144.12 176.12 L 143.62 176.92 C 143.19 177.62 143.40 178.53 144.09 178.96 C 144.79 179.40 145.70 179.18 146.13 178.49 Z M 146.67 177.59 L 147.15 176.69 C 147.52 175.97 147.25 175.08 146.53 174.71 C 145.82 174.33 144.93 174.61 144.55 175.32 L 144.08 176.22 C 143.70 176.94 143.98 177.83 144.69 178.20 C 145.41 178.58 146.30 178.30 146.67 177.59 Z M 147.16 176.63 L 147.62 175.66 C 147.96 174.94 147.65 174.07 146.93 173.73 C 146.21 173.39 145.34 173.70 145.00 174.42 L 144.54 175.38 C 144.20 176.10 144.51 176.97 145.23 177.31 C 145.95 177.65 146.81 177.35 147.16 176.63 Z M 147.61 175.64 L 147.92 174.95 C 148.25 174.23 147.94 173.38 147.22 173.05 C 146.50 172.72 145.65 173.04 145.32 173.76 L 145.00 174.44 C 144.68 175.16 144.99 176.01 145.71 176.34 C 146.43 176.67 147.28 176.36 147.61 175.64 Z"
      fill="black"
      fill-rule="nonzero" /><path d="M 147.38 150.81 L 148.16 150.14 C 148.82 149.58 148.90 148.58 148.33 147.92 C 147.77 147.26 146.78 147.19 146.12 147.75 L 145.33 148.42 C 144.67 148.98 144.59 149.98 145.16 150.64 C 145.72 151.30 146.72 151.38 147.38 150.81 Z M 148.13 150.18 L 148.92 149.54 C 149.60 148.99 149.70 148.00 149.16 147.32 C 148.61 146.64 147.62 146.53 146.94 147.08 L 146.15 147.72 C 145.47 148.26 145.36 149.26 145.91 149.94 C 146.46 150.62 147.45 150.72 148.13 150.18 Z M 148.84 149.60 L 149.65 149.04 C 150.36 148.53 150.53 147.54 150.03 146.83 C 149.52 146.11 148.53 145.94 147.82 146.45 L 147.01 147.02 C 146.30 147.52 146.13 148.51 146.64 149.23 C 147.14 149.94 148.13 150.11 148.84 149.60 Z M 149.51 149.12 L 150.36 148.65 C 151.12 148.21 151.39 147.25 150.96 146.48 C 150.52 145.72 149.56 145.45 148.79 145.88 L 147.95 146.36 C 147.19 146.79 146.92 147.76 147.35 148.52 C 147.78 149.29 148.75 149.55 149.51 149.12 Z M 150.18 148.73 L 151.09 148.35 C 151.90 148.02 152.28 147.09 151.95 146.28 C 151.61 145.48 150.69 145.09 149.88 145.43 L 148.97 145.80 C 148.16 146.14 147.78 147.06 148.11 147.87 C 148.45 148.68 149.37 149.06 150.18 148.73 Z M 150.94 148.39 L 151.89 148.10 C 152.72 147.85 153.19 146.97 152.94 146.14 C 152.68 145.31 151.81 144.85 150.98 145.10 L 150.03 145.39 C 149.20 145.64 148.73 146.52 148.98 147.35 C 149.23 148.18 150.11 148.64 150.94 148.39 Z M 151.80 148.12 L 152.79 147.88 C 153.62 147.68 154.14 146.83 153.94 146.00 C 153.73 145.16 152.89 144.64 152.05 144.85 L 151.07 145.08 C 150.23 145.29 149.71 146.13 149.91 146.97 C 150.12 147.81 150.96 148.32 151.80 148.12 Z M 152.75 147.88 L 153.70 147.67 C 154.54 147.48 155.07 146.66 154.88 145.82 C 154.70 144.98 153.87 144.46 153.03 144.64 L 152.08 144.85 C 151.25 145.03 150.72 145.86 150.90 146.70 C 151.09 147.53 151.92 148.06 152.75 147.88 Z M 153.69 147.66 L 154.65 147.46 C 155.48 147.28 156.01 146.46 155.83 145.63 C 155.65 144.80 154.84 144.27 154.01 144.44 L 153.05 144.65 C 152.22 144.83 151.69 145.64 151.86 146.47 C 152.04 147.30 152.86 147.84 153.69 147.66 Z M 154.63 147.45 L 155.62 147.24 C 156.45 147.07 156.98 146.26 156.81 145.44 C 156.64 144.61 155.83 144.08 155.01 144.25 L 154.02 144.45 C 153.19 144.62 152.66 145.43 152.83 146.26 C 153.00 147.08 153.81 147.62 154.63 147.45 Z M 155.61 147.23 L 156.63 147.03 C 157.45 146.86 157.98 146.07 157.82 145.25 C 157.66 144.43 156.86 143.89 156.04 144.06 L 155.02 144.26 C 154.20 144.43 153.67 145.22 153.83 146.04 C 154.00 146.86 154.79 147.40 155.61 147.23 Z M 156.62 147.02 L 157.61 146.83 C 158.42 146.67 158.95 145.88 158.79 145.06 C 158.64 144.25 157.85 143.72 157.03 143.88 L 156.05 144.07 C 155.23 144.23 154.70 145.02 154.86 145.83 C 155.02 146.64 155.81 147.18 156.62 147.02 Z M 157.59 146.81 L 158.58 146.63 C 159.39 146.48 159.92 145.70 159.77 144.89 C 159.62 144.08 158.84 143.55 158.03 143.70 L 157.05 143.89 C 156.24 144.04 155.70 144.82 155.86 145.62 C 156.01 146.43 156.79 146.97 157.59 146.81 Z M 158.57 146.62 L 159.56 146.45 C 160.36 146.30 160.90 145.54 160.75 144.73 C 160.61 143.93 159.85 143.39 159.04 143.54 L 158.05 143.71 C 157.25 143.85 156.71 144.62 156.85 145.42 C 157.00 146.23 157.76 146.76 158.57 146.62 Z M 159.53 146.44 L 160.52 146.28 C 161.32 146.15 161.86 145.40 161.73 144.60 C 161.60 143.80 160.85 143.26 160.05 143.39 L 159.07 143.54 C 158.27 143.67 157.73 144.43 157.85 145.22 C 157.98 146.02 158.74 146.57 159.53 146.44 Z M 160.49 146.27 L 161.49 146.13 C 162.28 146.01 162.83 145.28 162.72 144.48 C 162.61 143.69 161.87 143.14 161.07 143.25 L 160.08 143.39 C 159.28 143.51 158.73 144.24 158.84 145.04 C 158.96 145.83 159.69 146.38 160.49 146.27 Z M 161.46 146.12 L 162.45 146.00 C 163.24 145.91 163.81 145.18 163.71 144.39 C 163.61 143.60 162.89 143.03 162.10 143.13 L 161.11 143.25 C 160.31 143.35 159.75 144.07 159.84 144.86 C 159.94 145.66 160.66 146.22 161.46 146.12 Z M 162.42 146.00 L 163.41 145.90 C 164.20 145.82 164.77 145.11 164.69 144.32 C 164.61 143.53 163.91 142.95 163.12 143.03 L 162.13 143.13 C 161.34 143.21 160.76 143.92 160.84 144.71 C 160.92 145.50 161.63 146.08 162.42 146.00 Z M 163.38 145.90 L 164.37 145.82 C 165.16 145.75 165.74 145.06 165.68 144.27 C 165.62 143.48 164.93 142.89 164.14 142.96 L 163.15 143.04 C 162.36 143.10 161.77 143.79 161.83 144.58 C 161.90 145.37 162.59 145.96 163.38 145.90 Z M 164.34 145.81 L 165.33 145.75 C 166.12 145.70 166.71 145.02 166.66 144.23 C 166.62 143.45 165.94 142.85 165.15 142.90 L 164.16 142.96 C 163.37 143.01 162.78 143.69 162.83 144.48 C 162.88 145.26 163.55 145.86 164.34 145.81 Z M 165.31 145.75 L 166.30 145.70 C 167.09 145.66 167.70 144.99 167.66 144.21 C 167.62 143.42 166.95 142.81 166.16 142.85 L 165.17 142.90 C 164.38 142.94 163.77 143.61 163.81 144.39 C 163.85 145.18 164.52 145.79 165.31 145.75 Z M 166.29 145.70 L 167.29 145.66 C 168.08 145.63 168.69 144.97 168.66 144.18 C 168.63 143.39 167.97 142.78 167.18 142.81 L 166.18 142.85 C 165.39 142.88 164.78 143.54 164.81 144.33 C 164.84 145.12 165.50 145.73 166.29 145.70 Z M 167.28 145.66 L 168.29 145.63 C 169.08 145.60 169.70 144.94 169.67 144.15 C 169.64 143.37 168.98 142.75 168.20 142.78 L 167.19 142.81 C 166.40 142.84 165.78 143.50 165.81 144.28 C 165.84 145.07 166.50 145.69 167.28 145.66 Z M 168.29 145.63 L 168.63 145.62 C 169.41 145.59 170.03 144.93 170.01 144.15 C 169.98 143.36 169.32 142.74 168.54 142.77 L 168.20 142.78 C 167.41 142.80 166.79 143.46 166.82 144.25 C 166.85 145.04 167.50 145.65 168.29 145.63 Z"
      fill="black"
      fill-rule="nonzero" /><path d="M 98.40 187.39 L 97.18 187.01 C 96.34 186.76 95.45 187.23 95.20 188.07 C 94.94 188.91 95.41 189.80 96.25 190.05 L 97.47 190.43 C 98.31 190.68 99.20 190.21 99.46 189.37 C 99.71 188.53 99.24 187.64 98.40 187.39 Z M 97.74 187.25 L 97.21 186.83 C 96.50 186.27 95.47 186.38 94.91 187.09 C 94.34 187.79 94.46 188.83 95.17 189.39 L 95.70 189.81 C 96.40 190.38 97.43 190.26 98.00 189.56 C 98.56 188.85 98.45 187.82 97.74 187.25 Z M 97.35 189.31 L 97.69 188.98 C 98.36 188.34 98.38 187.28 97.73 186.61 C 97.09 185.95 96.03 185.93 95.37 186.57 L 95.02 186.91 C 94.36 187.55 94.34 188.61 94.98 189.27 C 95.63 189.94 96.69 189.96 97.35 189.31 Z M 97.19 189.34 L 97.97 189.01 C 98.83 188.65 99.24 187.65 98.87 186.79 C 98.51 185.92 97.51 185.52 96.65 185.89 L 95.87 186.21 C 95.00 186.58 94.60 187.58 94.97 188.44 C 95.33 189.30 96.33 189.71 97.19 189.34 Z M 97.82 189.09 L 98.95 188.74 C 99.85 188.45 100.36 187.49 100.07 186.58 C 99.79 185.68 98.83 185.17 97.92 185.46 L 96.79 185.81 C 95.89 186.09 95.38 187.06 95.67 187.96 C 95.95 188.87 96.92 189.37 97.82 189.09 Z M 98.88 188.78 L 100.21 188.42 C 101.14 188.17 101.69 187.22 101.44 186.29 C 101.19 185.36 100.24 184.81 99.31 185.06 L 97.98 185.42 C 97.06 185.67 96.51 186.62 96.76 187.55 C 97.00 188.47 97.96 189.02 98.88 188.78 Z M 100.18 188.44 L 101.16 188.20 C 102.10 187.97 102.67 187.02 102.43 186.08 C 102.20 185.14 101.25 184.57 100.32 184.80 L 99.34 185.04 C 98.40 185.28 97.83 186.22 98.06 187.16 C 98.29 188.10 99.24 188.67 100.18 188.44 Z M 101.14 188.21 L 102.16 187.97 C 103.10 187.74 103.68 186.80 103.46 185.85 C 103.23 184.91 102.29 184.33 101.34 184.55 L 100.33 184.79 C 99.39 185.02 98.80 185.96 99.03 186.90 C 99.25 187.85 100.20 188.43 101.14 188.21 Z M 102.14 187.97 L 103.16 187.74 C 104.11 187.52 104.70 186.58 104.48 185.63 C 104.27 184.68 103.32 184.09 102.37 184.31 L 101.36 184.54 C 100.41 184.76 99.82 185.71 100.03 186.65 C 100.25 187.60 101.20 188.19 102.14 187.97 Z M 103.16 187.75 L 104.15 187.52 C 105.10 187.31 105.70 186.36 105.49 185.41 C 105.27 184.46 104.33 183.87 103.38 184.08 L 102.38 184.30 C 101.43 184.52 100.83 185.46 101.05 186.41 C 101.26 187.36 102.21 187.96 103.16 187.75 Z M 104.15 187.53 L 105.09 187.32 C 106.04 187.11 106.64 186.17 106.43 185.21 C 106.22 184.26 105.28 183.65 104.32 183.87 L 103.38 184.07 C 102.43 184.28 101.83 185.23 102.04 186.18 C 102.25 187.14 103.19 187.74 104.15 187.53 Z M 105.08 187.33 L 106.08 187.11 C 107.04 186.90 107.64 185.95 107.43 184.99 C 107.22 184.04 106.28 183.43 105.32 183.64 L 104.32 183.86 C 103.37 184.07 102.76 185.02 102.97 185.97 C 103.18 186.93 104.13 187.54 105.08 187.33 Z M 106.08 187.11 L 107.18 186.87 C 108.14 186.66 108.75 185.72 108.54 184.76 C 108.33 183.80 107.39 183.19 106.43 183.40 L 105.32 183.64 C 104.36 183.85 103.76 184.79 103.96 185.75 C 104.17 186.71 105.12 187.32 106.08 187.11 Z M 107.18 186.88 L 108.12 186.68 C 109.08 186.47 109.70 185.53 109.49 184.56 C 109.29 183.60 108.34 182.99 107.38 183.19 L 106.44 183.39 C 105.47 183.60 104.86 184.54 105.06 185.50 C 105.27 186.47 106.21 187.08 107.18 186.88 Z M 108.10 186.68 L 108.96 186.51 C 109.92 186.31 110.55 185.37 110.35 184.41 C 110.16 183.44 109.22 182.82 108.25 183.01 L 107.40 183.19 C 106.43 183.38 105.81 184.32 106.00 185.29 C 106.20 186.25 107.14 186.88 108.10 186.68 Z M 108.94 186.52 L 109.84 186.35 C 110.81 186.16 111.44 185.23 111.26 184.26 C 111.07 183.29 110.14 182.65 109.17 182.83 L 108.27 183.00 C 107.30 183.19 106.67 184.12 106.85 185.09 C 107.03 186.06 107.97 186.70 108.94 186.52 Z M 109.82 186.35 L 110.78 186.18 C 111.75 186.01 112.40 185.08 112.23 184.10 C 112.05 183.13 111.12 182.48 110.15 182.66 L 109.19 182.83 C 108.22 183.00 107.57 183.93 107.74 184.90 C 107.91 185.88 108.84 186.52 109.82 186.35 Z M 110.77 186.19 L 111.76 186.01 C 112.74 185.85 113.39 184.92 113.23 183.95 C 113.06 182.97 112.13 182.31 111.16 182.48 L 110.16 182.65 C 109.18 182.82 108.53 183.75 108.70 184.72 C 108.86 185.70 109.79 186.35 110.77 186.19 Z M 111.76 186.02 L 112.76 185.85 C 113.74 185.68 114.40 184.75 114.23 183.78 C 114.07 182.80 113.14 182.14 112.16 182.31 L 111.16 182.48 C 110.18 182.64 109.52 183.57 109.69 184.55 C 109.86 185.53 110.78 186.18 111.76 186.02 Z M 112.77 185.85 L 113.71 185.69 C 114.69 185.52 115.35 184.59 115.18 183.61 C 115.01 182.63 114.08 181.98 113.10 182.14 L 112.16 182.31 C 111.18 182.47 110.52 183.40 110.69 184.38 C 110.86 185.36 111.79 186.02 112.77 185.85 Z M 113.71 185.69 L 114.70 185.52 C 115.68 185.35 116.33 184.42 116.16 183.44 C 115.99 182.46 115.06 181.80 114.08 181.97 L 113.10 182.14 C 112.12 182.31 111.46 183.24 111.63 184.22 C 111.80 185.20 112.74 185.86 113.71 185.69 Z M 114.70 185.52 L 115.72 185.34 C 116.70 185.17 117.35 184.23 117.18 183.25 C 117.01 182.27 116.07 181.62 115.09 181.79 L 114.08 181.97 C 113.10 182.14 112.44 183.08 112.62 184.06 C 112.79 185.04 113.72 185.69 114.70 185.52 Z M 115.73 185.34 L 116.72 185.16 C 117.70 184.99 118.35 184.05 118.17 183.07 C 117.99 182.09 117.06 181.44 116.08 181.61 L 115.09 181.79 C 114.11 181.97 113.46 182.91 113.63 183.89 C 113.81 184.87 114.75 185.52 115.73 185.34 Z M 116.72 185.16 L 117.66 184.99 C 118.64 184.81 119.29 183.87 119.11 182.89 C 118.94 181.91 118.00 181.26 117.01 181.44 L 116.07 181.61 C 115.09 181.79 114.44 182.73 114.62 183.71 C 114.80 184.69 115.74 185.34 116.72 185.16 Z M 117.66 185.00 L 118.63 184.82 C 119.61 184.64 120.27 183.70 120.09 182.72 C 119.91 181.73 118.97 181.08 117.99 181.26 L 117.01 181.44 C 116.03 181.61 115.38 182.56 115.56 183.54 C 115.74 184.52 116.68 185.17 117.66 185.00 Z M 118.63 184.82 L 119.63 184.65 C 120.62 184.47 121.27 183.53 121.10 182.54 C 120.92 181.56 119.98 180.90 119.00 181.08 L 117.99 181.26 C 117.01 181.43 116.35 182.37 116.52 183.36 C 116.70 184.34 117.64 185.00 118.63 184.82 Z M 119.62 184.65 L 120.66 184.47 C 121.65 184.30 122.32 183.36 122.15 182.37 C 121.98 181.39 121.04 180.72 120.05 180.89 L 119.01 181.07 C 118.02 181.24 117.36 182.18 117.53 183.17 C 117.70 184.16 118.64 184.82 119.62 184.65 Z M 120.65 184.47 L 121.58 184.32 C 122.57 184.16 123.24 183.22 123.07 182.23 C 122.91 181.24 121.97 180.57 120.98 180.74 L 120.06 180.89 C 119.07 181.05 118.40 181.99 118.56 182.98 C 118.73 183.97 119.66 184.64 120.65 184.47 Z M 121.57 184.32 L 122.52 184.17 C 123.51 184.01 124.19 183.08 124.03 182.09 C 123.87 181.10 122.94 180.42 121.95 180.58 L 120.99 180.73 C 120.00 180.89 119.33 181.82 119.48 182.82 C 119.64 183.81 120.57 184.48 121.57 184.32 Z M 122.51 184.17 L 123.50 184.02 C 124.49 183.87 125.17 182.94 125.02 181.95 C 124.86 180.95 123.94 180.27 122.94 180.43 L 121.96 180.58 C 120.96 180.73 120.28 181.66 120.44 182.65 C 120.59 183.65 121.52 184.33 122.51 184.17 Z M 123.49 184.02 L 124.51 183.87 C 125.50 183.72 126.19 182.79 126.04 181.80 C 125.89 180.81 124.96 180.12 123.97 180.27 L 122.95 180.43 C 121.96 180.57 121.27 181.50 121.42 182.49 C 121.57 183.49 122.50 184.17 123.49 184.02 Z M 124.50 183.87 L 125.55 183.72 C 126.55 183.57 127.23 182.65 127.09 181.66 C 126.94 180.66 126.02 179.97 125.03 180.12 L 123.98 180.27 C 122.98 180.42 122.30 181.34 122.44 182.33 C 122.58 183.33 123.51 184.02 124.50 183.87 Z M 125.54 183.72 L 126.50 183.58 C 127.49 183.44 128.18 182.52 128.04 181.53 C 127.90 180.53 126.98 179.84 125.99 179.98 L 125.03 180.12 C 124.04 180.26 123.35 181.18 123.49 182.17 C 123.63 183.17 124.55 183.86 125.54 183.72 Z M 126.49 183.59 L 127.44 183.45 C 128.44 183.32 129.13 182.40 128.99 181.40 C 128.86 180.41 127.94 179.71 126.94 179.85 L 125.99 179.98 C 125.00 180.12 124.30 181.04 124.44 182.03 C 124.58 183.03 125.50 183.72 126.49 183.59 Z M 127.44 183.45 L 128.41 183.32 C 129.41 183.19 130.11 182.27 129.97 181.27 C 129.83 180.28 128.92 179.58 127.92 179.71 L 126.95 179.85 C 125.95 179.98 125.25 180.90 125.39 181.90 C 125.53 182.89 126.44 183.59 127.44 183.45 Z M 128.41 183.32 L 129.41 183.19 C 130.40 183.05 131.10 182.14 130.97 181.14 C 130.83 180.14 129.92 179.44 128.92 179.58 L 127.92 179.71 C 126.93 179.85 126.23 180.77 126.36 181.76 C 126.50 182.76 127.41 183.46 128.41 183.32 Z M 129.41 183.19 L 130.43 183.05 C 131.43 182.92 132.12 182.00 131.99 181.00 C 131.86 180.01 130.94 179.31 129.94 179.44 L 128.92 179.58 C 127.92 179.71 127.23 180.63 127.36 181.63 C 127.49 182.62 128.41 183.32 129.41 183.19 Z M 130.43 183.05 L 131.47 182.91 C 132.47 182.78 133.17 181.86 133.04 180.86 C 132.90 179.87 131.99 179.17 130.99 179.30 L 129.94 179.44 C 128.95 179.57 128.25 180.49 128.38 181.49 C 128.51 182.48 129.43 183.18 130.43 183.05 Z M 131.47 182.91 L 132.46 182.78 C 133.46 182.65 134.16 181.73 134.03 180.73 C 133.89 179.73 132.98 179.03 131.98 179.17 L 130.99 179.30 C 129.99 179.43 129.29 180.35 129.43 181.35 C 129.56 182.34 130.48 183.05 131.47 182.91 Z M 132.46 182.78 L 133.45 182.65 C 134.45 182.51 135.15 181.60 135.02 180.60 C 134.88 179.60 133.96 178.90 132.97 179.03 L 131.98 179.17 C 130.98 179.30 130.28 180.22 130.41 181.22 C 130.55 182.21 131.47 182.91 132.46 182.78 Z M 133.45 182.65 L 134.45 182.52 C 135.45 182.38 136.15 181.46 136.01 180.46 C 135.88 179.47 134.96 178.76 133.96 178.90 L 132.97 179.03 C 131.97 179.17 131.27 180.08 131.40 181.08 C 131.53 182.08 132.45 182.78 133.45 182.65 Z M 134.45 182.52 L 135.45 182.38 C 136.45 182.25 137.15 181.33 137.02 180.33 C 136.88 179.33 135.96 178.63 134.97 178.76 L 133.96 178.90 C 132.96 179.03 132.26 179.95 132.40 180.95 C 132.53 181.95 133.45 182.65 134.45 182.52 Z M 135.45 182.38 L 136.45 182.25 C 137.45 182.12 138.15 181.20 138.02 180.20 C 137.89 179.20 136.97 178.49 135.97 178.63 L 134.97 178.76 C 133.96 178.89 133.26 179.81 133.40 180.81 C 133.53 181.82 134.45 182.52 135.45 182.38 Z M 136.45 182.25 L 137.44 182.12 C 138.44 181.99 139.15 181.07 139.01 180.06 C 138.88 179.06 137.96 178.36 136.96 178.49 L 135.97 178.63 C 134.96 178.76 134.26 179.68 134.39 180.68 C 134.53 181.68 135.45 182.39 136.45 182.25 Z M 137.44 182.12 L 138.43 181.99 C 139.43 181.86 140.14 180.94 140.01 179.93 C 139.87 178.93 138.95 178.23 137.95 178.36 L 136.96 178.49 C 135.96 178.62 135.25 179.55 135.39 180.55 C 135.52 181.55 136.44 182.25 137.44 182.12 Z M 138.43 181.99 L 139.45 181.86 C 140.46 181.72 141.16 180.80 141.03 179.80 C 140.90 178.80 139.98 178.09 138.97 178.22 L 137.95 178.36 C 136.95 178.49 136.24 179.41 136.38 180.41 C 136.51 181.42 137.43 182.12 138.43 181.99 Z M 139.45 181.86 L 140.46 181.73 C 141.46 181.59 142.17 180.67 142.03 179.67 C 141.90 178.67 140.98 177.96 139.98 178.09 L 138.97 178.22 C 137.97 178.35 137.26 179.27 137.40 180.28 C 137.53 181.28 138.45 181.99 139.45 181.86 Z M 140.45 181.73 L 141.44 181.60 C 142.45 181.47 143.16 180.55 143.03 179.54 C 142.90 178.54 141.98 177.83 140.97 177.96 L 139.98 178.09 C 138.98 178.22 138.27 179.14 138.40 180.14 C 138.53 181.15 139.45 181.86 140.45 181.73 Z M 141.44 181.60 L 142.42 181.48 C 143.43 181.35 144.14 180.43 144.01 179.42 C 143.88 178.42 142.97 177.71 141.96 177.83 L 140.98 177.96 C 139.97 178.09 139.26 179.01 139.39 180.01 C 139.52 181.02 140.44 181.73 141.44 181.60 Z M 142.42 181.48 L 143.39 181.36 C 144.40 181.23 145.11 180.31 144.99 179.31 C 144.86 178.30 143.95 177.59 142.94 177.71 L 141.96 177.83 C 140.96 177.96 140.24 178.88 140.37 179.88 C 140.49 180.89 141.41 181.60 142.42 181.48 Z M 143.39 181.36 L 144.36 181.24 C 145.37 181.12 146.08 180.20 145.96 179.19 C 145.84 178.19 144.92 177.47 143.92 177.59 L 142.94 177.71 C 141.94 177.83 141.22 178.75 141.34 179.76 C 141.47 180.76 142.38 181.48 143.39 181.36 Z M 144.35 181.24 L 145.34 181.12 C 146.35 181.00 147.07 180.09 146.95 179.08 C 146.83 178.07 145.92 177.35 144.91 177.47 L 143.92 177.59 C 142.91 177.71 142.19 178.62 142.31 179.63 C 142.43 180.64 143.35 181.36 144.35 181.24 Z M 145.34 181.12 L 146.33 181.01 C 147.34 180.89 148.06 179.98 147.95 178.97 C 147.83 177.96 146.92 177.24 145.91 177.36 L 144.92 177.47 C 143.91 177.59 143.19 178.50 143.30 179.51 C 143.42 180.52 144.33 181.24 145.34 181.12 Z M 146.33 181.01 L 147.32 180.90 C 148.33 180.78 149.06 179.87 148.94 178.86 C 148.83 177.85 147.92 177.13 146.91 177.24 L 145.91 177.36 C 144.91 177.47 144.18 178.38 144.30 179.39 C 144.41 180.40 145.32 181.12 146.33 181.01 Z M 147.32 180.90 L 148.32 180.78 C 149.33 180.67 150.05 179.76 149.93 178.75 C 149.82 177.74 148.91 177.02 147.90 177.13 L 146.91 177.24 C 145.90 177.36 145.17 178.27 145.29 179.28 C 145.41 180.29 146.32 181.01 147.32 180.90 Z M 148.32 180.78 L 149.31 180.67 C 150.32 180.55 151.04 179.64 150.93 178.63 C 150.81 177.62 149.90 176.90 148.89 177.02 L 147.90 177.13 C 146.89 177.25 146.17 178.16 146.28 179.17 C 146.40 180.17 147.31 180.90 148.32 180.78 Z M 149.32 180.67 L 150.31 180.55 C 151.32 180.43 152.04 179.52 151.92 178.51 C 151.80 177.50 150.89 176.78 149.88 176.90 L 148.89 177.02 C 147.88 177.13 147.16 178.05 147.28 179.06 C 147.40 180.06 148.31 180.79 149.32 180.67 Z M 150.32 180.55 L 151.31 180.43 C 152.32 180.31 153.03 179.39 152.91 178.39 C 152.79 177.38 151.88 176.66 150.87 176.78 L 149.88 176.90 C 148.87 177.02 148.15 177.94 148.27 178.94 C 148.39 179.95 149.31 180.67 150.32 180.55 Z M 151.31 180.43 L 152.31 180.31 C 153.31 180.18 154.03 179.27 153.90 178.26 C 153.78 177.25 152.86 176.54 151.86 176.66 L 150.86 176.78 C 149.86 176.91 149.14 177.82 149.26 178.83 C 149.39 179.84 150.31 180.55 151.31 180.43 Z M 152.31 180.31 L 153.30 180.18 C 154.31 180.06 155.02 179.14 154.90 178.13 C 154.77 177.13 153.85 176.41 152.85 176.54 L 151.85 176.66 C 150.85 176.79 150.13 177.70 150.26 178.71 C 150.38 179.72 151.30 180.43 152.31 180.31 Z M 153.30 180.18 L 154.29 180.06 C 155.30 179.93 156.02 179.02 155.89 178.01 C 155.76 177.00 154.85 176.29 153.84 176.41 L 152.85 176.54 C 151.84 176.66 151.12 177.58 151.25 178.59 C 151.38 179.59 152.29 180.31 153.30 180.18 Z M 154.29 180.06 L 155.28 179.94 C 156.29 179.81 157.01 178.89 156.88 177.89 C 156.76 176.88 155.84 176.16 154.83 176.29 L 153.84 176.41 C 152.83 176.54 152.12 177.45 152.24 178.46 C 152.37 179.47 153.29 180.18 154.29 180.06 Z M 155.28 179.94 L 156.27 179.82 C 157.28 179.69 158.00 178.78 157.88 177.77 C 157.75 176.76 156.84 176.04 155.83 176.17 L 154.84 176.29 C 153.83 176.41 153.11 177.33 153.23 178.34 C 153.36 179.34 154.27 180.06 155.28 179.94 Z M 156.27 179.82 L 157.26 179.70 C 158.27 179.58 158.99 178.66 158.87 177.66 C 158.75 176.65 157.83 175.93 156.83 176.05 L 155.83 176.17 C 154.83 176.29 154.11 177.20 154.23 178.21 C 154.35 179.22 155.26 179.94 156.27 179.82 Z M 157.26 179.70 L 158.25 179.58 C 159.26 179.47 159.98 178.56 159.86 177.55 C 159.75 176.54 158.84 175.82 157.83 175.93 L 156.83 176.05 C 155.83 176.16 155.10 177.08 155.22 178.08 C 155.34 179.09 156.25 179.82 157.26 179.70 Z M 158.24 179.58 L 159.24 179.47 C 160.25 179.36 160.97 178.45 160.86 177.44 C 160.75 176.43 159.84 175.71 158.83 175.82 L 157.83 175.93 C 156.83 176.04 156.10 176.95 156.21 177.96 C 156.32 178.97 157.23 179.70 158.24 179.58 Z M 159.23 179.47 L 160.22 179.37 C 161.23 179.26 161.96 178.35 161.85 177.34 C 161.75 176.33 160.84 175.60 159.83 175.71 L 158.83 175.82 C 157.83 175.93 157.10 176.84 157.20 177.84 C 157.31 178.85 158.22 179.58 159.23 179.47 Z M 160.22 179.37 L 161.21 179.26 C 162.22 179.16 162.96 178.25 162.85 177.24 C 162.74 176.23 161.84 175.50 160.83 175.61 L 159.83 175.71 C 158.83 175.82 158.09 176.72 158.20 177.73 C 158.30 178.74 159.21 179.47 160.22 179.37 Z M 161.21 179.26 L 162.20 179.16 C 163.21 179.06 163.95 178.16 163.84 177.15 C 163.74 176.14 162.84 175.40 161.83 175.50 L 160.84 175.61 C 159.83 175.71 159.09 176.61 159.19 177.62 C 159.29 178.63 160.20 179.37 161.21 179.26 Z M 162.19 179.16 L 163.18 179.07 C 164.19 178.97 164.93 178.07 164.83 177.06 C 164.73 176.05 163.83 175.31 162.82 175.41 L 161.84 175.50 C 160.83 175.60 160.09 176.50 160.18 177.51 C 160.28 178.52 161.18 179.26 162.19 179.16 Z M 163.18 179.07 L 164.16 178.98 C 165.17 178.88 165.91 177.98 165.82 176.97 C 165.72 175.96 164.82 175.22 163.81 175.31 L 162.83 175.41 C 161.82 175.50 161.08 176.40 161.17 177.41 C 161.27 178.42 162.16 179.16 163.18 179.07 Z M 164.16 178.98 L 165.14 178.88 C 166.15 178.79 166.90 177.89 166.80 176.88 C 166.71 175.87 165.81 175.13 164.80 175.22 L 163.82 175.31 C 162.80 175.41 162.06 176.30 162.15 177.31 C 162.25 178.33 163.14 179.07 164.16 178.98 Z M 165.14 178.88 L 166.13 178.79 C 167.14 178.70 167.89 177.81 167.80 176.79 C 167.70 175.78 166.81 175.04 165.80 175.13 L 164.80 175.22 C 163.79 175.31 163.05 176.21 163.14 177.22 C 163.23 178.23 164.13 178.98 165.14 178.88 Z M 166.13 178.79 L 167.13 178.70 C 168.14 178.61 168.89 177.72 168.79 176.70 C 168.70 175.69 167.81 174.95 166.80 175.04 L 165.80 175.13 C 164.78 175.22 164.04 176.12 164.13 177.13 C 164.22 178.14 165.12 178.89 166.13 178.79 Z M 167.13 178.70 L 168.14 178.61 C 169.15 178.52 169.90 177.62 169.80 176.61 C 169.71 175.60 168.82 174.85 167.80 174.95 L 166.79 175.04 C 165.78 175.13 165.04 176.03 165.13 177.04 C 165.22 178.05 166.12 178.80 167.13 178.70 Z M 168.14 178.61 L 169.16 178.52 C 170.17 178.42 170.92 177.52 170.82 176.51 C 170.73 175.50 169.83 174.76 168.82 174.85 L 167.80 174.95 C 166.79 175.04 166.05 175.94 166.14 176.95 C 166.23 177.96 167.13 178.71 168.14 178.61 Z M 169.16 178.52 L 170.18 178.42 C 171.19 178.32 171.94 177.43 171.84 176.41 C 171.74 175.40 170.85 174.66 169.83 174.75 L 168.82 174.85 C 167.80 174.95 167.06 175.84 167.16 176.86 C 167.25 177.87 168.15 178.61 169.16 178.52 Z M 170.18 178.42 L 171.20 178.32 C 172.21 178.23 172.96 177.33 172.86 176.31 C 172.76 175.30 171.86 174.56 170.85 174.66 L 169.83 174.75 C 168.82 174.85 168.08 175.75 168.17 176.76 C 168.27 177.77 169.17 178.52 170.18 178.42 Z M 171.20 178.33 L 172.21 178.23 C 173.23 178.13 173.97 177.23 173.88 176.22 C 173.78 175.21 172.88 174.46 171.87 174.56 L 170.85 174.65 C 169.84 174.75 169.10 175.65 169.19 176.66 C 169.29 177.68 170.19 178.42 171.20 178.33 Z M 172.21 178.23 L 173.21 178.14 C 174.22 178.05 174.97 177.15 174.88 176.13 C 174.78 175.12 173.88 174.37 172.87 174.46 L 171.87 174.56 C 170.86 174.65 170.11 175.55 170.20 176.56 C 170.30 177.58 171.19 178.33 172.21 178.23 Z M 173.20 178.14 L 174.18 178.06 C 175.19 177.97 175.94 177.07 175.85 176.05 C 175.76 175.04 174.87 174.29 173.85 174.38 L 172.88 174.46 C 171.86 174.55 171.11 175.45 171.20 176.46 C 171.29 177.48 172.18 178.23 173.20 178.14 Z M 174.17 178.06 L 175.11 177.98 C 176.13 177.90 176.89 177.00 176.80 175.99 C 176.72 174.97 175.83 174.21 174.81 174.30 L 173.86 174.37 C 172.84 174.46 172.09 175.35 172.17 176.37 C 172.26 177.39 173.15 178.14 174.17 178.06 Z M 175.10 177.98 L 176.18 177.90 C 177.20 177.82 177.97 176.94 177.89 175.92 C 177.81 174.90 176.92 174.14 175.91 174.21 L 174.82 174.29 C 173.80 174.37 173.04 175.26 173.12 176.28 C 173.19 177.30 174.08 178.06 175.10 177.98 Z M 176.17 177.90 L 177.20 177.83 C 178.22 177.76 178.99 176.88 178.92 175.86 C 178.85 174.84 177.97 174.07 176.95 174.14 L 175.92 174.21 C 174.90 174.28 174.13 175.16 174.20 176.18 C 174.27 177.20 175.15 177.97 176.17 177.90 Z M 177.20 177.83 L 178.19 177.77 C 179.21 177.70 179.98 176.82 179.92 175.80 C 179.85 174.78 178.97 174.01 177.95 174.07 L 176.96 174.14 C 175.94 174.20 175.16 175.08 175.23 176.10 C 175.29 177.13 176.18 177.90 177.20 177.83 Z M 178.19 177.77 L 179.15 177.71 C 180.17 177.65 180.94 176.77 180.88 175.74 C 180.81 174.72 179.93 173.95 178.91 174.01 L 177.95 174.07 C 176.93 174.14 176.16 175.02 176.22 176.04 C 176.28 177.06 177.16 177.84 178.19 177.77 Z M 179.15 177.71 L 180.08 177.65 C 181.11 177.59 181.88 176.70 181.81 175.68 C 181.75 174.66 180.87 173.88 179.84 173.95 L 178.91 174.01 C 177.89 174.08 177.11 174.96 177.18 175.98 C 177.24 177.00 178.13 177.78 179.15 177.71 Z M 180.09 177.65 L 181.10 177.58 C 182.13 177.51 182.90 176.62 182.82 175.60 C 182.75 174.58 181.86 173.81 180.84 173.88 L 179.83 173.95 C 178.81 174.02 178.04 174.91 178.11 175.93 C 178.18 176.95 179.07 177.72 180.09 177.65 Z M 181.11 177.58 L 182.13 177.50 C 183.15 177.43 183.92 176.53 183.84 175.51 C 183.76 174.49 182.87 173.72 181.85 173.80 L 180.83 173.88 C 179.81 173.96 179.04 174.85 179.12 175.87 C 179.20 176.89 180.09 177.66 181.11 177.58 Z M 182.13 177.50 L 183.13 177.42 C 184.15 177.34 184.92 176.45 184.84 175.43 C 184.76 174.41 183.86 173.64 182.84 173.72 L 181.84 173.80 C 180.82 173.88 180.06 174.78 180.14 175.80 C 180.22 176.82 181.11 177.58 182.13 177.50 Z M 183.13 177.42 L 184.11 177.35 C 185.13 177.27 185.90 176.37 185.82 175.35 C 185.74 174.33 184.84 173.57 183.82 173.65 L 182.84 173.72 C 181.82 173.80 181.06 174.70 181.14 175.72 C 181.22 176.74 182.11 177.51 183.13 177.42 Z M 184.11 177.35 L 185.08 177.27 C 186.10 177.20 186.87 176.30 186.79 175.28 C 186.71 174.26 185.82 173.49 184.80 173.57 L 183.83 173.65 C 182.80 173.72 182.04 174.62 182.12 175.64 C 182.19 176.66 183.08 177.43 184.11 177.35 Z M 185.07 177.27 L 186.11 177.20 C 187.13 177.13 187.90 176.24 187.83 175.22 C 187.75 174.19 186.86 173.42 185.84 173.50 L 184.81 173.57 C 183.79 173.65 183.02 174.53 183.09 175.56 C 183.16 176.58 184.05 177.35 185.07 177.27 Z M 186.11 177.20 L 187.12 177.13 C 188.14 177.06 188.91 176.17 188.84 175.15 C 188.76 174.13 187.88 173.36 186.86 173.43 L 185.85 173.50 C 184.82 173.57 184.05 174.46 184.12 175.48 C 184.20 176.50 185.08 177.27 186.11 177.20 Z M 187.12 177.13 L 188.10 177.06 C 189.13 176.98 189.89 176.09 189.82 175.07 C 189.75 174.05 188.86 173.28 187.84 173.36 L 186.85 173.43 C 185.83 173.50 185.06 174.39 185.14 175.41 C 185.21 176.43 186.10 177.20 187.12 177.13 Z M 188.11 177.05 L 189.07 176.98 C 190.09 176.90 190.85 176.01 190.78 174.99 C 190.70 173.97 189.80 173.20 188.78 173.28 L 187.83 173.36 C 186.81 173.44 186.04 174.33 186.12 175.35 C 186.20 176.37 187.09 177.13 188.11 177.05 Z M 189.09 176.98 L 190.14 176.88 C 191.15 176.79 191.91 175.90 191.82 174.88 C 191.73 173.86 190.83 173.11 189.81 173.20 L 188.76 173.29 C 187.75 173.38 186.99 174.28 187.08 175.29 C 187.17 176.31 188.07 177.07 189.09 176.98 Z M 190.15 176.88 L 191.16 176.78 C 192.18 176.68 192.92 175.78 192.83 174.77 C 192.73 173.75 191.83 173.01 190.81 173.10 L 189.80 173.20 C 188.78 173.30 188.04 174.20 188.13 175.22 C 188.23 176.23 189.13 176.98 190.15 176.88 Z M 191.17 176.78 L 192.14 176.68 C 193.16 176.58 193.90 175.67 193.79 174.66 C 193.69 173.65 192.79 172.91 191.78 173.01 L 190.80 173.11 C 189.79 173.21 189.05 174.11 189.15 175.13 C 189.26 176.14 190.16 176.88 191.17 176.78 Z M 192.14 176.67 L 193.08 176.58 C 194.09 176.48 194.83 175.58 194.73 174.57 C 194.63 173.56 193.73 172.82 192.72 172.92 L 191.78 173.01 C 190.77 173.12 190.03 174.02 190.13 175.03 C 190.23 176.04 191.13 176.78 192.14 176.67 Z M 193.08 176.58 L 194.03 176.48 C 195.04 176.39 195.78 175.49 195.68 174.48 C 195.58 173.47 194.69 172.74 193.68 172.83 L 192.72 172.93 C 191.72 173.03 190.98 173.92 191.08 174.93 C 191.17 175.94 192.07 176.67 193.08 176.58 Z M 194.05 176.47 L 195.02 176.37 C 196.02 176.27 196.75 175.37 196.64 174.37 C 196.54 173.36 195.64 172.64 194.64 172.74 L 193.67 172.84 C 192.66 172.95 191.94 173.85 192.04 174.85 C 192.15 175.85 193.05 176.58 194.05 176.47 Z M 195.05 176.36 L 196.08 176.24 C 197.08 176.11 197.79 175.21 197.67 174.21 C 197.55 173.21 196.64 172.50 195.64 172.62 L 194.61 172.75 C 193.61 172.87 192.90 173.78 193.02 174.78 C 193.14 175.77 194.05 176.48 195.05 176.36 Z M 196.12 176.22 L 197.06 176.09 C 198.05 175.95 198.74 175.03 198.60 174.04 C 198.46 173.05 197.54 172.36 196.55 172.50 L 195.61 172.64 C 194.62 172.78 193.93 173.70 194.07 174.69 C 194.21 175.67 195.13 176.36 196.12 176.22 Z M 197.08 176.08 L 198.04 175.93 C 199.02 175.77 199.69 174.85 199.54 173.87 C 199.39 172.89 198.46 172.21 197.48 172.37 L 196.53 172.52 C 195.54 172.67 194.87 173.59 195.02 174.57 C 195.18 175.56 196.10 176.23 197.08 176.08 Z M 198.05 175.91 L 199.06 175.75 C 200.03 175.59 200.69 174.67 200.53 173.69 C 200.37 172.71 199.45 172.05 198.47 172.21 L 197.47 172.38 C 196.49 172.54 195.83 173.46 195.99 174.44 C 196.15 175.41 197.07 176.08 198.05 175.91 Z M 199.06 175.74 L 200.10 175.56 C 201.07 175.40 201.72 174.48 201.55 173.51 C 201.39 172.54 200.47 171.89 199.50 172.05 L 198.47 172.23 C 197.50 172.39 196.84 173.31 197.01 174.28 C 197.17 175.25 198.09 175.90 199.06 175.74 Z M 200.10 175.55 L 200.76 175.44 C 201.73 175.28 202.38 174.36 202.21 173.39 C 202.05 172.43 201.13 171.78 200.16 171.94 L 199.50 172.06 C 198.53 172.22 197.89 173.14 198.05 174.11 C 198.22 175.07 199.13 175.72 200.10 175.55 Z"
      fill="black"
      fill-rule="nonzero" /></svg>