<svg xmlns="http://www.w3.org/2000/svg" width="300" height="300" viewBox="0 0 300 300">
<path d="M 143.66 122.42 L 143.42 123.45 C 143.23 124.28 143.75 125.11 144.59 125.30 C 145.42 125.49 146.25 124.97 146.44 124.13 L 146.68 123.10 C 146.86 122.27 146.34 121.44 145.51 121.25 C 144.67 121.06 143.85 121.58 143.66 122.42 Z M 143.37 123.45 L 143.15 124.47 C 142.96 125.33 143.51 126.18 144.37 126.37 C 145.23 126.56 146.08 126.01 146.27 125.15 L 146.49 124.13 C 146.68 123.27 146.13 122.42 145.27 122.23 C 144.41 122.04 143.56 122.59 143.37 123.45 Z M 143.10 124.48 L 142.90 125.46 C 142.72 126.35 143.29 127.22 144.18 127.40 C 145.07 127.58 145.94 127.01 146.12 126.12 L 146.32 125.13 C 146.50 124.24 145.93 123.37 145.04 123.19 C 144.14 123.01 143.28 123.59 143.10 124.48 Z M 142.84 125.50 L 142.68 126.43 C 142.52 127.35 143.13 128.23 144.05 128.39 C 144.98 128.55 145.85 127.94 146.01 127.02 L 146.18 126.08 C 146.34 125.16 145.72 124.28 144.80 124.12 C 143.88 123.96 143.00 124.58 142.84 125.50 Z M 142.63 126.50 L 142.50 127.49 C 142.38 128.44 143.04 129.31 143.99 129.43 C 144.94 129.55 145.81 128.89 145.93 127.94 L 146.06 126.95 C 146.19 126.00 145.52 125.13 144.57 125.01 C 143.62 124.88 142.75 125.55 142.63 126.50 Z M 142.48 127.58 L 142.40 128.60 C 142.33 129.56 143.05 130.39 144.01 130.47 C 144.97 130.54 145.80 129.82 145.88 128.86 L 145.95 127.84 C 146.03 126.89 145.31 126.05 144.35 125.98 C 143.39 125.90 142.55 126.62 142.48 127.58 Z M 142.40 128.68 L 142.37 129.65 C 142.34 130.61 143.10 131.41 144.06 131.44 C 145.02 131.47 145.83 130.71 145.85 129.75 L 145.88 128.78 C 145.91 127.82 145.15 127.01 144.19 126.99 C 143.23 126.96 142.42 127.72 142.40 128.68 Z M 142.37 129.69 L 142.36 130.65 C 142.36 131.62 143.14 132.40 144.10 132.41 C 145.06 132.41 145.85 131.63 145.85 130.67 L 145.86 129.70 C 145.86 128.74 145.08 127.96 144.12 127.95 C 143.15 127.95 142.37 128.73 142.37 129.69 Z M 142.36 130.66 L 142.36 131.61 C 142.36 132.58 143.15 133.36 144.11 133.36 C 145.07 133.36 145.86 132.57 145.85 131.61 L 145.85 130.66 C 145.85 129.70 145.07 128.92 144.11 128.92 C 143.14 128.92 142.36 129.70 142.36 130.66 Z M 142.36 131.62 L 142.37 132.61 C 142.37 133.57 143.16 134.35 144.13 134.34 C 145.09 134.34 145.87 133.55 145.86 132.59 L 145.85 131.60 C 145.85 130.63 145.06 129.86 144.10 129.86 C 143.13 129.87 142.36 130.66 142.36 131.62 Z M 142.37 132.62 L 142.38 133.65 C 142.40 134.61 143.19 135.38 144.16 135.37 C 145.12 135.35 145.89 134.56 145.88 133.59 L 145.86 132.57 C 145.85 131.60 145.05 130.83 144.09 130.85 C 143.12 130.87 142.35 131.66 142.37 132.62 Z M 142.38 133.67 L 142.42 134.70 C 142.44 135.67 143.25 136.42 144.21 136.40 C 145.18 136.37 145.94 135.56 145.91 134.60 L 145.88 133.57 C 145.85 132.60 145.04 131.85 144.08 131.88 C 143.11 131.90 142.36 132.71 142.38 133.67 Z M 142.42 134.73 L 142.46 135.70 C 142.50 136.66 143.32 137.41 144.28 137.37 C 145.25 137.33 145.99 136.51 145.95 135.55 L 145.91 134.57 C 145.87 133.61 145.05 132.86 144.09 132.90 C 143.12 132.94 142.37 133.76 142.42 134.73 Z M 142.46 135.71 L 142.51 136.71 C 142.56 137.68 143.39 138.42 144.35 138.36 C 145.31 138.31 146.05 137.49 146.00 136.53 L 145.95 135.53 C 145.90 134.57 145.08 133.83 144.11 133.88 C 143.15 133.93 142.41 134.75 142.46 135.71 Z M 142.51 136.72 L 142.57 137.74 C 142.63 138.70 143.46 139.44 144.42 139.38 C 145.38 139.32 146.12 138.49 146.06 137.53 L 146.00 136.52 C 145.95 135.55 145.12 134.82 144.15 134.87 C 143.19 134.93 142.46 135.76 142.51 136.72 Z M 142.57 137.74 L 142.63 138.76 C 142.69 139.72 143.52 140.46 144.49 140.40 C 145.45 140.34 146.18 139.51 146.13 138.55 L 146.06 137.53 C 146.00 136.56 145.17 135.83 144.21 135.89 C 143.25 135.95 142.51 136.78 142.57 137.74 Z M 142.63 138.76 L 142.69 139.74 C 142.75 140.70 143.58 141.44 144.55 141.38 C 145.51 141.32 146.24 140.49 146.19 139.52 L 146.13 138.55 C 146.07 137.58 145.24 136.85 144.27 136.91 C 143.31 136.97 142.58 137.80 142.63 138.76 Z M 142.69 139.74 L 142.75 140.73 C 142.81 141.69 143.64 142.42 144.61 142.37 C 145.57 142.31 146.30 141.48 146.25 140.51 L 146.19 139.53 C 146.13 138.56 145.30 137.83 144.33 137.89 C 143.37 137.94 142.64 138.77 142.69 139.74 Z M 142.75 140.72 L 142.81 141.73 C 142.87 142.69 143.70 143.42 144.66 143.37 C 145.63 143.31 146.36 142.48 146.31 141.52 L 146.25 140.52 C 146.19 139.55 145.36 138.82 144.40 138.87 C 143.43 138.93 142.70 139.76 142.75 140.72 Z M 142.81 141.72 L 142.87 142.74 C 142.93 143.71 143.76 144.44 144.72 144.39 C 145.69 144.33 146.42 143.50 146.37 142.54 L 146.31 141.52 C 146.25 140.55 145.42 139.82 144.46 139.88 C 143.49 139.93 142.76 140.76 142.81 141.72 Z M 142.87 142.74 L 142.93 143.73 C 142.99 144.69 143.81 145.43 144.78 145.37 C 145.74 145.32 146.48 144.49 146.42 143.53 L 146.37 142.54 C 146.31 141.57 145.48 140.84 144.52 140.89 C 143.55 140.95 142.82 141.78 142.87 142.74 Z M 142.93 143.73 L 142.99 144.71 C 143.04 145.68 143.87 146.41 144.83 146.36 C 145.80 146.31 146.53 145.48 146.48 144.51 L 146.42 143.53 C 146.37 142.56 145.54 141.83 144.58 141.88 C 143.61 141.94 142.88 142.76 142.93 143.73 Z M 142.99 144.71 L 143.04 145.71 C 143.10 146.67 143.92 147.41 144.89 147.36 C 145.85 147.30 146.59 146.48 146.53 145.51 L 146.48 144.52 C 146.42 143.55 145.60 142.81 144.63 142.87 C 143.67 142.92 142.93 143.75 142.99 144.71 Z M 143.04 145.71 L 143.10 146.72 C 143.15 147.68 143.98 148.42 144.94 148.37 C 145.91 148.32 146.64 147.49 146.59 146.53 L 146.53 145.52 C 146.48 144.55 145.66 143.81 144.69 143.87 C 143.73 143.92 142.99 144.74 143.04 145.71 Z M 143.10 146.72 L 143.15 147.74 C 143.21 148.70 144.03 149.44 145.00 149.39 C 145.96 149.33 146.70 148.51 146.65 147.54 L 146.59 146.53 C 146.54 145.56 145.71 144.82 144.75 144.88 C 143.78 144.93 143.04 145.75 143.10 146.72 Z M 143.15 147.74 L 143.21 148.72 C 143.26 149.68 144.08 150.42 145.05 150.37 C 146.01 150.31 146.75 149.49 146.70 148.53 L 146.65 147.55 C 146.59 146.58 145.77 145.84 144.81 145.89 C 143.84 145.95 143.10 146.77 143.15 147.74 Z M 143.21 148.71 L 143.26 149.70 C 143.31 150.66 144.13 151.40 145.10 151.35 C 146.06 151.30 146.80 150.48 146.75 149.52 L 146.70 148.53 C 146.65 147.56 145.83 146.82 144.86 146.87 C 143.90 146.93 143.16 147.75 143.21 148.71 Z M 143.26 149.70 L 143.31 150.69 C 143.36 151.66 144.18 152.40 145.14 152.35 C 146.11 152.30 146.85 151.48 146.80 150.52 L 146.75 149.52 C 146.70 148.56 145.88 147.81 144.92 147.86 C 143.95 147.91 143.21 148.73 143.26 149.70 Z M 143.31 150.69 L 143.36 151.69 C 143.40 152.66 144.22 153.40 145.18 153.36 C 146.15 153.31 146.89 152.50 146.85 151.53 L 146.80 150.52 C 146.76 149.56 145.94 148.81 144.97 148.86 C 144.01 148.90 143.27 149.72 143.31 150.69 Z M 143.36 151.69 L 143.40 152.71 C 143.44 153.67 144.25 154.42 145.22 154.38 C 146.18 154.34 146.93 153.52 146.89 152.56 L 146.85 151.54 C 146.81 150.58 145.99 149.83 145.03 149.87 C 144.07 149.91 143.32 150.72 143.36 151.69 Z M 143.40 152.70 L 143.44 153.68 C 143.47 154.64 144.28 155.39 145.24 155.36 C 146.21 155.32 146.96 154.52 146.92 153.55 L 146.89 152.57 C 146.85 151.61 146.05 150.85 145.08 150.89 C 144.12 150.92 143.37 151.73 143.40 152.70 Z M 143.44 153.67 L 143.47 154.66 C 143.50 155.63 144.31 156.38 145.27 156.35 C 146.23 156.32 146.99 155.52 146.96 154.55 L 146.92 153.56 C 146.89 152.60 146.09 151.84 145.13 151.87 C 144.16 151.90 143.41 152.71 143.44 153.67 Z M 143.47 154.66 L 143.50 155.66 C 143.53 156.62 144.33 157.38 145.29 157.35 C 146.25 157.33 147.01 156.52 146.98 155.56 L 146.95 154.56 C 146.93 153.60 146.12 152.84 145.16 152.87 C 144.20 152.89 143.44 153.70 143.47 154.66 Z M 143.50 155.66 L 143.53 156.66 C 143.55 157.63 144.35 158.39 145.31 158.36 C 146.28 158.33 147.03 157.53 147.01 156.57 L 146.98 155.56 C 146.96 154.60 146.16 153.84 145.19 153.87 C 144.23 153.89 143.47 154.69 143.50 155.66 Z M 143.53 156.66 L 143.55 157.67 C 143.58 158.64 144.38 159.40 145.34 159.37 C 146.30 159.35 147.06 158.55 147.03 157.59 L 147.01 156.57 C 146.98 155.61 146.18 154.85 145.22 154.88 C 144.26 154.90 143.50 155.70 143.53 156.66 Z M 143.55 157.67 L 143.58 158.66 C 143.60 159.62 144.40 160.38 145.36 160.36 C 146.32 160.33 147.08 159.54 147.06 158.58 L 147.03 157.59 C 147.01 156.63 146.21 155.87 145.25 155.89 C 144.29 155.92 143.53 156.71 143.55 157.67 Z M 143.58 158.66 L 143.60 159.65 C 143.63 160.61 144.42 161.37 145.38 161.34 C 146.34 161.32 147.10 160.52 147.08 159.56 L 147.05 158.58 C 147.03 157.62 146.24 156.86 145.28 156.88 C 144.32 156.91 143.56 157.70 143.58 158.66 Z M 143.61 159.64 L 143.63 160.64 C 143.65 161.60 144.45 162.35 145.40 162.33 C 146.36 162.31 147.12 161.52 147.10 160.56 L 147.08 159.57 C 147.05 158.61 146.26 157.85 145.30 157.87 C 144.34 157.89 143.59 158.69 143.61 159.64 Z M 143.63 160.63 L 143.65 161.63 C 143.67 162.59 144.46 163.35 145.42 163.33 C 146.37 163.31 147.13 162.52 147.12 161.57 L 147.10 160.56 C 147.08 159.61 146.29 158.85 145.33 158.87 C 144.37 158.89 143.61 159.68 143.63 160.63 Z M 143.65 161.63 L 143.67 162.64 C 143.69 163.60 144.47 164.36 145.43 164.35 C 146.38 164.33 147.15 163.54 147.13 162.59 L 147.11 161.57 C 147.10 160.62 146.31 159.86 145.36 159.87 C 144.40 159.89 143.64 160.67 143.65 161.63 Z M 143.67 162.64 L 143.69 163.66 C 143.70 164.61 144.48 165.37 145.43 165.36 C 146.39 165.35 147.15 164.57 147.14 163.61 L 147.13 162.59 C 147.12 161.64 146.33 160.88 145.38 160.89 C 144.43 160.90 143.66 161.68 143.67 162.64 Z M 143.69 163.65 L 143.70 164.66 C 143.70 165.62 144.48 166.38 145.44 166.37 C 146.39 166.37 147.15 165.59 147.15 164.64 L 147.14 163.62 C 147.13 162.67 146.35 161.90 145.40 161.91 C 144.45 161.92 143.68 162.70 143.69 163.65 Z M 143.70 164.66 L 143.71 165.68 C 143.71 166.63 144.48 167.39 145.43 167.39 C 146.39 167.38 147.15 166.61 147.15 165.66 L 147.14 164.64 C 147.14 163.69 146.36 162.92 145.41 162.93 C 144.46 162.93 143.70 163.71 143.70 164.66 Z M 143.71 165.67 L 143.71 166.68 C 143.71 167.63 144.48 168.40 145.43 168.40 C 146.38 168.39 147.15 167.62 147.15 166.67 L 147.14 165.66 C 147.14 164.71 146.37 163.95 145.42 163.95 C 144.47 163.95 143.71 164.72 143.71 165.67 Z M 143.71 166.68 L 143.72 167.67 C 143.72 168.62 144.48 169.39 145.43 169.39 C 146.38 169.39 147.15 168.62 147.14 167.67 L 147.14 166.68 C 147.14 165.73 146.37 164.96 145.43 164.96 C 144.48 164.96 143.71 165.73 143.71 166.68 Z M 143.72 167.67 L 143.72 168.64 C 143.72 169.58 144.49 170.35 145.43 170.35 C 146.38 170.35 147.14 169.58 147.14 168.64 L 147.14 167.67 C 147.14 166.73 146.38 165.96 145.43 165.96 C 144.48 165.96 143.72 166.73 143.72 167.67 Z M 143.72 168.64 L 143.72 169.70 C 143.72 170.64 144.49 171.41 145.43 171.41 C 146.37 171.41 147.14 170.64 147.14 169.70 L 147.14 168.64 C 147.14 167.69 146.37 166.93 145.43 166.93 C 144.49 166.93 143.72 167.69 143.72 168.64 Z M 143.73 169.70 L 143.73 170.73 C 143.73 171.67 144.49 172.43 145.43 172.43 C 146.37 172.43 147.13 171.67 147.13 170.73 L 147.13 169.70 C 147.13 168.76 146.37 168.00 145.43 168.00 C 144.49 168.00 143.73 168.76 143.73 169.70 Z M 143.74 170.73 L 143.74 171.72 C 143.74 172.66 144.49 173.42 145.43 173.42 C 146.37 173.42 147.12 172.66 147.12 171.72 L 147.12 170.73 C 147.12 169.79 146.37 169.03 145.43 169.03 C 144.49 169.03 143.74 169.79 143.74 170.73 Z M 143.74 171.72 L 143.74 172.68 C 143.74 173.62 144.50 174.37 145.43 174.37 C 146.36 174.37 147.12 173.62 147.12 172.68 L 147.12 171.72 C 147.12 170.79 146.36 170.03 145.43 170.03 C 144.50 170.03 143.74 170.79 143.74 171.72 Z M 143.75 172.68 L 143.75 173.64 C 143.75 174.57 144.50 175.32 145.43 175.32 C 146.36 175.32 147.11 174.57 147.11 173.64 L 147.11 172.68 C 147.11 171.75 146.36 171.00 145.43 171.00 C 144.50 171.00 143.75 171.75 143.75 172.68 Z M 143.76 173.64 L 143.76 174.67 C 143.76 175.60 144.51 176.34 145.43 176.34 C 146.36 176.34 147.10 175.60 147.10 174.67 L 147.10 173.64 C 147.10 172.71 146.36 171.96 145.43 171.96 C 144.51 171.96 143.76 172.71 143.76 173.64 Z M 143.76 174.67 L 143.76 175.68 C 143.76 176.60 144.51 177.35 145.43 177.35 C 146.35 177.35 147.10 176.60 147.10 175.68 L 147.10 174.67 C 147.10 173.75 146.35 173.00 145.43 173.00 C 144.51 173.00 143.76 173.75 143.76 174.67 Z M 143.77 175.68 L 143.77 176.67 C 143.77 177.59 144.51 178.33 145.43 178.33 C 146.35 178.33 147.09 177.59 147.09 176.67 L 147.09 175.68 C 147.09 174.77 146.35 174.02 145.43 174.02 C 144.51 174.02 143.77 174.77 143.77 175.68 Z M 143.78 176.67 L 143.78 177.64 C 143.78 178.55 144.52 179.29 145.43 179.29 C 146.34 179.29 147.08 178.55 147.08 177.64 L 147.08 176.67 C 147.08 175.76 146.34 175.02 145.43 175.02 C 144.52 175.02 143.78 175.76 143.78 176.67 Z M 143.79 177.64 L 143.79 178.59 C 143.79 179.49 144.52 180.23 145.43 180.23 C 146.34 180.23 147.07 179.49 147.07 178.59 L 147.07 177.64 C 147.07 176.73 146.34 176.00 145.43 176.00 C 144.52 176.00 143.79 176.73 143.79 177.64 Z M 143.80 178.59 L 143.80 179.55 C 143.80 180.45 144.53 181.17 145.43 181.17 C 146.33 181.17 147.06 180.45 147.06 179.55 L 147.06 178.59 C 147.06 177.69 146.33 176.96 145.43 176.96 C 144.53 176.96 143.80 177.69 143.80 178.59 Z M 143.81 179.55 L 143.81 180.54 C 143.81 181.43 144.54 182.16 145.43 182.16 C 146.32 182.16 147.05 181.43 147.05 180.54 L 147.05 179.55 C 147.05 178.65 146.32 177.93 145.43 177.93 C 144.54 177.93 143.81 178.65 143.81 179.55 Z M 143.82 180.54 L 143.82 181.60 C 143.82 182.48 144.54 183.20 145.43 183.20 C 146.32 183.20 147.04 182.48 147.04 181.60 L 147.04 180.54 C 147.04 179.65 146.32 178.93 145.43 178.93 C 144.54 178.93 143.82 179.65 143.82 180.54 Z M 143.84 181.60 L 143.84 182.61 C 143.84 183.49 144.55 184.21 145.43 184.21 C 146.31 184.21 147.03 183.49 147.03 182.61 L 147.03 181.60 C 147.03 180.71 146.31 180.00 145.43 180.00 C 144.55 180.00 143.84 180.71 143.84 181.60 Z M 143.85 182.61 L 143.85 183.62 C 143.85 184.50 144.56 185.21 145.43 185.21 C 146.31 185.21 147.01 184.50 147.01 183.62 L 147.01 182.61 C 147.01 181.74 146.31 181.03 145.43 181.03 C 144.56 181.03 143.85 181.74 143.85 182.61 Z M 143.86 183.62 L 143.86 184.65 C 143.86 185.52 144.56 186.23 145.43 186.23 C 146.30 186.23 147.00 185.52 147.00 184.65 L 147.00 183.62 C 147.00 182.75 146.30 182.05 145.43 182.05 C 144.56 182.05 143.86 182.75 143.86 183.62 Z M 143.87 184.65 L 143.87 185.67 C 143.87 186.54 144.57 187.24 145.43 187.24 C 146.29 187.24 146.99 186.54 146.99 185.67 L 146.99 184.65 C 146.99 183.79 146.29 183.09 145.43 183.09 C 144.57 183.09 143.87 183.79 143.87 184.65 Z M 143.88 185.67 L 143.88 186.65 C 143.88 187.51 144.57 188.21 145.43 188.21 C 146.29 188.21 146.98 187.51 146.98 186.65 L 146.98 185.67 C 146.98 184.82 146.29 184.12 145.43 184.12 C 144.57 184.12 143.88 184.82 143.88 185.67 Z M 143.89 186.65 L 143.89 187.72 C 143.89 188.57 144.58 189.26 145.43 189.26 C 146.28 189.26 146.97 188.57 146.97 187.72 L 146.97 186.65 C 146.97 185.80 146.28 185.11 145.43 185.11 C 144.58 185.11 143.89 185.80 143.89 186.65 Z M 143.91 187.72 L 143.91 188.77 C 143.91 189.61 144.59 190.29 145.43 190.29 C 146.27 190.29 146.95 189.61 146.95 188.77 L 146.95 187.72 C 146.95 186.88 146.27 186.20 145.43 186.20 C 144.59 186.20 143.91 186.88 143.91 187.72 Z M 143.93 188.77 L 143.93 189.73 C 143.93 190.56 144.60 191.23 145.43 191.23 C 146.26 191.23 146.93 190.56 146.93 189.73 L 146.93 188.77 C 146.93 187.94 146.26 187.27 145.43 187.27 C 144.60 187.27 143.93 187.94 143.93 188.77 Z M 143.96 189.73 L 143.96 190.65 C 143.96 191.47 144.62 192.13 145.43 192.13 C 146.24 192.13 146.90 191.47 146.90 190.65 L 146.90 189.73 C 146.90 188.92 146.24 188.26 145.43 188.26 C 144.62 188.26 143.96 188.92 143.96 189.73 Z M 143.97 190.65 L 143.97 190.89 C 143.97 191.70 144.62 192.35 145.43 192.35 C 146.24 192.35 146.89 191.70 146.89 190.89 L 146.89 190.65 C 146.89 189.85 146.24 189.20 145.43 189.20 C 144.62 189.20 143.97 189.85 143.97 190.65 Z"
      fill="black"
      fill-rule="nonzero" /><path d="M 148.94 158.51 L 149.93 158.47 C 150.83 158.43 151.52 157.67 151.48 156.78 C 151.44 155.89 150.69 155.19 149.79 155.23 L 148.80 155.27 C 147.91 155.31 147.21 156.07 147.25 156.96 C 147.29 157.86 148.04 158.55 148.94 158.51 Z M 149.92 158.48 L 150.92 158.44 C 151.82 158.41 152.52 157.65 152.49 156.75 C 152.45 155.85 151.70 155.15 150.80 155.18 L 149.80 155.22 C 148.90 155.26 148.20 156.01 148.23 156.91 C 148.27 157.81 149.03 158.51 149.92 158.48 Z M 150.91 158.45 L 151.91 158.42 C 152.82 158.39 153.53 157.64 153.50 156.74 C 153.48 155.83 152.72 155.12 151.82 155.15 L 150.81 155.17 C 149.91 155.20 149.20 155.95 149.22 156.86 C 149.25 157.76 150.00 158.47 150.91 158.45 Z M 151.89 158.41 L 152.86 158.39 C 153.75 158.38 154.47 157.64 154.46 156.74 C 154.44 155.84 153.70 155.13 152.80 155.14 L 151.84 155.16 C 150.94 155.17 150.23 155.91 150.24 156.81 C 150.26 157.71 151.00 158.42 151.89 158.41 Z M 152.84 158.36 L 153.83 158.35 C 154.71 158.34 155.41 157.63 155.41 156.75 C 155.40 155.87 154.68 155.17 153.81 155.17 L 152.82 155.18 C 151.94 155.18 151.24 155.90 151.24 156.78 C 151.25 157.66 151.96 158.36 152.84 158.36 Z M 153.82 158.31 L 154.85 158.31 C 155.71 158.31 156.40 157.61 156.40 156.76 C 156.40 155.90 155.70 155.21 154.84 155.21 L 153.82 155.21 C 152.96 155.21 152.26 155.91 152.27 156.76 C 152.27 157.62 152.96 158.31 153.82 158.31 Z M 154.85 158.28 L 155.83 158.28 C 156.67 158.28 157.35 157.60 157.35 156.76 C 157.35 155.92 156.67 155.24 155.83 155.24 L 154.85 155.24 C 154.01 155.24 153.32 155.92 153.32 156.76 C 153.32 157.60 154.01 158.28 154.85 158.28 Z M 155.83 158.26 L 156.81 158.26 C 157.64 158.26 158.31 157.59 158.31 156.76 C 158.31 155.93 157.64 155.26 156.81 155.26 L 155.83 155.26 C 155.00 155.26 154.33 155.93 154.33 156.76 C 154.33 157.59 155.00 158.26 155.83 158.26 Z M 156.81 158.24 L 157.82 158.24 C 158.64 158.24 159.31 157.58 159.31 156.76 C 159.31 155.94 158.64 155.28 157.82 155.28 L 156.81 155.28 C 155.99 155.28 155.33 155.94 155.33 156.76 C 155.33 157.58 155.99 158.24 156.81 158.24 Z M 157.82 158.23 L 158.86 158.23 C 159.67 158.23 160.33 157.57 160.33 156.76 C 160.33 155.95 159.67 155.29 158.86 155.29 L 157.82 155.29 C 157.01 155.29 156.36 155.95 156.36 156.76 C 156.36 157.57 157.01 158.23 157.82 158.23 Z M 158.86 158.21 L 159.85 158.21 C 160.66 158.21 161.31 157.56 161.31 156.76 C 161.31 155.96 160.66 155.31 159.85 155.31 L 158.86 155.31 C 158.06 155.31 157.41 155.96 157.41 156.76 C 157.41 157.56 158.06 158.21 158.86 158.21 Z M 159.85 158.21 L 160.85 158.21 C 161.65 158.21 162.30 157.56 162.30 156.76 C 162.30 155.96 161.65 155.31 160.85 155.31 L 159.85 155.31 C 159.06 155.31 158.41 155.96 158.41 156.76 C 158.41 157.56 159.06 158.21 159.85 158.21 Z M 160.85 158.20 L 161.86 158.20 C 162.65 158.20 163.29 157.55 163.29 156.76 C 163.29 155.97 162.65 155.32 161.86 155.32 L 160.85 155.32 C 160.06 155.32 159.41 155.97 159.41 156.76 C 159.41 157.55 160.06 158.20 160.85 158.20 Z M 161.86 158.19 L 162.87 158.19 C 163.66 158.19 164.30 157.55 164.30 156.76 C 164.30 155.97 163.66 155.33 162.87 155.33 L 161.86 155.33 C 161.07 155.33 160.43 155.97 160.43 156.76 C 160.43 157.55 161.07 158.19 161.86 158.19 Z M 162.87 158.19 L 163.02 158.19 C 163.81 158.19 164.45 157.55 164.45 156.76 C 164.45 155.97 163.81 155.33 163.02 155.33 L 162.87 155.33 C 162.08 155.33 161.44 155.97 161.44 156.76 C 161.44 157.55 162.08 158.19 162.87 158.19 Z"
      fill="black"
      fill-rule="nonzero" /><path d="M 96.83 195.32 L 95.46 195.15 C 94.55 195.03 93.71 195.68 93.60 196.59 C 93.48 197.50 94.13 198.34 95.04 198.46 L 96.40 198.63 C 97.32 198.75 98.15 198.10 98.27 197.19 C 98.39 196.27 97.74 195.44 96.83 195.32 Z M 95.62 195.11 L 94.88 194.95 C 93.95 194.75 93.03 195.34 92.82 196.27 C 92.62 197.20 93.21 198.12 94.14 198.33 L 94.88 198.49 C 95.81 198.69 96.73 198.10 96.94 197.17 C 97.14 196.24 96.55 195.32 95.62 195.11 Z M 95.26 198.25 L 95.51 198.14 C 96.40 197.72 96.79 196.66 96.37 195.77 C 95.96 194.88 94.90 194.50 94.01 194.91 L 93.76 195.03 C 92.87 195.44 92.49 196.50 92.90 197.39 C 93.31 198.28 94.37 198.67 95.26 198.25 Z M 94.96 198.33 L 95.85 198.23 C 96.84 198.12 97.56 197.23 97.45 196.23 C 97.34 195.23 96.45 194.51 95.45 194.62 L 94.56 194.72 C 93.57 194.83 92.85 195.73 92.95 196.72 C 93.06 197.72 93.96 198.44 94.96 198.33 Z M 95.78 198.27 L 97.14 198.17 C 98.16 198.10 98.93 197.21 98.85 196.19 C 98.78 195.17 97.89 194.41 96.87 194.48 L 95.51 194.58 C 94.50 194.66 93.73 195.54 93.80 196.56 C 93.88 197.58 94.77 198.35 95.78 198.27 Z M 97.13 198.20 L 98.29 198.12 C 99.32 198.05 100.10 197.16 100.03 196.13 C 99.97 195.10 99.07 194.31 98.04 194.38 L 96.88 194.46 C 95.85 194.53 95.07 195.42 95.14 196.45 C 95.21 197.48 96.10 198.26 97.13 198.20 Z M 98.29 198.13 L 99.28 198.06 C 100.31 197.99 101.10 197.10 101.03 196.06 C 100.96 195.03 100.07 194.24 99.03 194.31 L 98.04 194.38 C 97.01 194.44 96.22 195.34 96.29 196.37 C 96.36 197.41 97.25 198.20 98.29 198.13 Z M 99.28 198.06 L 100.30 198.00 C 101.34 197.93 102.13 197.03 102.06 195.99 C 101.99 194.96 101.09 194.17 100.05 194.24 L 99.03 194.31 C 97.99 194.38 97.21 195.27 97.28 196.31 C 97.35 197.35 98.24 198.13 99.28 198.06 Z M 100.31 198.00 L 101.34 197.93 C 102.38 197.86 103.16 196.96 103.09 195.92 C 103.02 194.88 102.12 194.10 101.08 194.17 L 100.05 194.24 C 99.01 194.31 98.23 195.21 98.30 196.25 C 98.37 197.28 99.27 198.07 100.31 198.00 Z M 101.34 197.93 L 102.35 197.86 C 103.39 197.78 104.17 196.88 104.10 195.84 C 104.03 194.80 103.12 194.02 102.09 194.10 L 101.08 194.17 C 100.04 194.24 99.25 195.14 99.33 196.18 C 99.40 197.22 100.30 198.00 101.34 197.93 Z M 102.36 197.86 L 103.35 197.78 C 104.39 197.71 105.17 196.80 105.09 195.76 C 105.02 194.72 104.11 193.94 103.07 194.02 L 102.08 194.09 C 101.04 194.17 100.26 195.08 100.34 196.12 C 100.41 197.16 101.32 197.94 102.36 197.86 Z M 103.37 197.79 L 104.43 197.70 C 105.47 197.61 106.24 196.70 106.16 195.66 C 106.07 194.62 105.16 193.85 104.12 193.93 L 103.06 194.02 C 102.02 194.10 101.24 195.02 101.33 196.06 C 101.41 197.10 102.33 197.87 103.37 197.79 Z M 104.44 197.70 L 105.44 197.61 C 106.48 197.52 107.25 196.60 107.15 195.56 C 107.06 194.52 106.14 193.75 105.10 193.84 L 104.11 193.93 C 103.06 194.02 102.29 194.94 102.39 195.98 C 102.48 197.02 103.40 197.79 104.44 197.70 Z M 105.45 197.62 L 106.41 197.52 C 107.45 197.43 108.22 196.50 108.12 195.46 C 108.02 194.41 107.09 193.65 106.05 193.75 L 105.09 193.84 C 104.05 193.94 103.28 194.86 103.38 195.91 C 103.48 196.95 104.40 197.71 105.45 197.62 Z M 106.42 197.53 L 107.37 197.43 C 108.42 197.33 109.18 196.40 109.08 195.35 C 108.97 194.31 108.04 193.55 107.00 193.65 L 106.04 193.75 C 105.00 193.85 104.23 194.78 104.34 195.82 C 104.44 196.87 105.37 197.63 106.42 197.53 Z M 107.38 197.43 L 108.33 197.34 C 109.37 197.23 110.13 196.29 110.02 195.25 C 109.92 194.20 108.98 193.44 107.94 193.55 L 106.99 193.65 C 105.95 193.76 105.19 194.69 105.29 195.74 C 105.40 196.78 106.34 197.54 107.38 197.43 Z M 108.33 197.34 L 109.28 197.24 C 110.33 197.13 111.09 196.19 110.98 195.14 C 110.87 194.10 109.93 193.34 108.88 193.45 L 107.93 193.55 C 106.88 193.66 106.13 194.60 106.24 195.64 C 106.35 196.69 107.28 197.45 108.33 197.34 Z M 109.29 197.24 L 110.27 197.13 C 111.32 197.02 112.08 196.08 111.96 195.03 C 111.85 193.99 110.91 193.23 109.86 193.34 L 108.88 193.45 C 107.83 193.56 107.07 194.50 107.19 195.55 C 107.30 196.59 108.24 197.35 109.29 197.24 Z M 110.28 197.14 L 111.29 197.02 C 112.34 196.91 113.10 195.97 112.98 194.92 C 112.86 193.87 111.92 193.11 110.87 193.23 L 109.86 193.34 C 108.81 193.45 108.05 194.40 108.17 195.45 C 108.28 196.49 109.23 197.25 110.28 197.14 Z M 111.29 197.03 L 112.34 196.91 C 113.39 196.79 114.14 195.85 114.02 194.80 C 113.91 193.75 112.96 192.99 111.91 193.11 L 110.87 193.22 C 109.82 193.34 109.06 194.29 109.18 195.34 C 109.30 196.39 110.24 197.14 111.29 197.03 Z M 112.34 196.91 L 113.32 196.80 C 114.37 196.68 115.12 195.73 115.00 194.68 C 114.88 193.63 113.93 192.87 112.88 192.99 L 111.91 193.11 C 110.86 193.23 110.10 194.18 110.22 195.23 C 110.34 196.28 111.29 197.03 112.34 196.91 Z M 113.32 196.80 L 114.27 196.69 C 115.32 196.57 116.08 195.62 115.96 194.57 C 115.83 193.52 114.88 192.76 113.83 192.88 L 112.88 192.99 C 111.83 193.12 111.07 194.07 111.20 195.12 C 111.32 196.17 112.27 196.92 113.32 196.80 Z M 114.27 196.69 L 115.25 196.58 C 116.30 196.46 117.05 195.51 116.93 194.45 C 116.81 193.40 115.86 192.65 114.81 192.77 L 113.83 192.88 C 112.78 193.00 112.03 193.96 112.15 195.01 C 112.27 196.06 113.22 196.81 114.27 196.69 Z M 115.25 196.58 L 116.25 196.46 C 117.30 196.34 118.06 195.39 117.93 194.34 C 117.81 193.29 116.86 192.53 115.81 192.65 L 114.81 192.77 C 113.76 192.89 113.00 193.84 113.12 194.89 C 113.24 195.95 114.19 196.70 115.25 196.58 Z M 116.24 196.47 L 117.27 196.35 C 118.33 196.23 119.08 195.28 118.96 194.23 C 118.84 193.17 117.89 192.42 116.84 192.54 L 115.81 192.65 C 114.76 192.77 114.00 193.72 114.12 194.78 C 114.24 195.83 115.19 196.59 116.24 196.47 Z M 117.27 196.35 L 118.32 196.23 C 119.37 196.12 120.13 195.17 120.01 194.11 C 119.90 193.06 118.95 192.30 117.89 192.42 L 116.84 192.53 C 115.79 192.65 115.03 193.60 115.15 194.65 C 115.26 195.71 116.21 196.47 117.27 196.35 Z M 118.31 196.24 L 119.23 196.14 C 120.29 196.02 121.05 195.07 120.94 194.02 C 120.82 192.96 119.87 192.20 118.82 192.32 L 117.90 192.42 C 116.84 192.53 116.08 193.48 116.19 194.53 C 116.31 195.59 117.26 196.35 118.31 196.24 Z M 119.23 196.14 L 120.18 196.04 C 121.23 195.92 122.00 194.97 121.88 193.92 C 121.77 192.86 120.82 192.10 119.77 192.21 L 118.82 192.31 C 117.76 192.43 117.00 193.38 117.11 194.43 C 117.23 195.49 118.18 196.25 119.23 196.14 Z M 120.18 196.04 L 121.15 195.93 C 122.20 195.82 122.97 194.87 122.85 193.81 C 122.74 192.76 121.79 191.99 120.74 192.11 L 119.77 192.21 C 118.71 192.33 117.95 193.27 118.06 194.33 C 118.17 195.39 119.12 196.15 120.18 196.04 Z M 121.15 195.93 L 122.15 195.82 C 123.20 195.71 123.97 194.76 123.85 193.70 C 123.74 192.65 122.79 191.88 121.73 192.00 L 120.73 192.11 C 119.68 192.22 118.91 193.17 119.03 194.23 C 119.14 195.28 120.09 196.05 121.15 195.93 Z M 122.15 195.82 L 123.18 195.71 C 124.24 195.59 125.00 194.64 124.88 193.58 C 124.76 192.53 123.81 191.76 122.75 191.88 L 121.73 192.00 C 120.67 192.11 119.91 193.07 120.03 194.12 C 120.14 195.18 121.10 195.94 122.15 195.82 Z M 123.18 195.71 L 124.24 195.59 C 125.30 195.47 126.06 194.51 125.94 193.46 C 125.81 192.40 124.86 191.64 123.80 191.76 L 122.75 191.88 C 121.69 192.00 120.93 192.96 121.05 194.02 C 121.17 195.07 122.13 195.83 123.18 195.71 Z M 124.25 195.59 L 125.27 195.47 C 126.33 195.34 127.08 194.38 126.96 193.33 C 126.83 192.27 125.87 191.51 124.81 191.64 L 123.79 191.76 C 122.74 191.89 121.98 192.85 122.11 193.90 C 122.23 194.96 123.19 195.72 124.25 195.59 Z M 125.28 195.47 L 126.23 195.35 C 127.29 195.22 128.04 194.26 127.91 193.20 C 127.78 192.15 126.82 191.39 125.76 191.52 L 124.81 191.64 C 123.75 191.77 123.00 192.73 123.13 193.79 C 123.26 194.85 124.22 195.60 125.28 195.47 Z M 126.24 195.35 L 127.21 195.23 C 128.27 195.10 129.02 194.13 128.89 193.07 C 128.75 192.02 127.79 191.27 126.73 191.40 L 125.76 191.52 C 124.70 191.66 123.95 192.62 124.08 193.68 C 124.22 194.73 125.18 195.48 126.24 195.35 Z M 127.22 195.23 L 128.21 195.10 C 129.26 194.97 130.01 194.00 129.88 192.95 C 129.74 191.89 128.78 191.14 127.72 191.27 L 126.73 191.40 C 125.67 191.53 124.92 192.50 125.06 193.56 C 125.19 194.62 126.16 195.36 127.22 195.23 Z M 128.21 195.10 L 129.21 194.98 C 130.27 194.84 131.02 193.87 130.88 192.81 C 130.74 191.76 129.78 191.01 128.72 191.15 L 127.72 191.27 C 126.66 191.41 125.91 192.38 126.05 193.43 C 126.18 194.49 127.15 195.24 128.21 195.10 Z M 129.21 194.98 L 130.22 194.85 C 131.28 194.71 132.03 193.74 131.89 192.68 C 131.75 191.62 130.78 190.88 129.73 191.01 L 128.72 191.14 C 127.66 191.28 126.91 192.25 127.05 193.31 C 127.19 194.37 128.15 195.11 129.21 194.98 Z M 130.22 194.85 L 131.24 194.72 C 132.29 194.58 133.04 193.61 132.90 192.55 C 132.77 191.49 131.80 190.75 130.74 190.88 L 129.73 191.01 C 128.67 191.15 127.92 192.12 128.06 193.18 C 128.19 194.24 129.16 194.98 130.22 194.85 Z M 131.23 194.72 L 132.25 194.59 C 133.31 194.45 134.05 193.48 133.92 192.42 C 133.78 191.36 132.82 190.62 131.76 190.75 L 130.74 190.88 C 129.68 191.02 128.94 191.99 129.07 193.04 C 129.21 194.10 130.18 194.85 131.23 194.72 Z M 132.25 194.59 L 133.25 194.46 C 134.31 194.33 135.06 193.36 134.92 192.30 C 134.79 191.24 133.82 190.49 132.76 190.62 L 131.76 190.75 C 130.70 190.89 129.95 191.85 130.08 192.91 C 130.22 193.97 131.19 194.72 132.25 194.59 Z M 133.25 194.46 L 134.25 194.33 C 135.31 194.20 136.06 193.23 135.92 192.17 C 135.79 191.12 134.82 190.36 133.76 190.50 L 132.77 190.62 C 131.71 190.76 130.96 191.72 131.09 192.78 C 131.22 193.84 132.19 194.59 133.25 194.46 Z M 134.25 194.34 L 135.24 194.21 C 136.30 194.08 137.05 193.11 136.92 192.05 C 136.79 190.99 135.82 190.24 134.76 190.37 L 133.76 190.50 C 132.70 190.63 131.95 191.60 132.09 192.66 C 132.22 193.72 133.19 194.47 134.25 194.34 Z M 135.24 194.21 L 136.23 194.09 C 137.29 193.95 138.05 192.98 137.91 191.92 C 137.78 190.86 136.81 190.11 135.75 190.25 L 134.76 190.37 C 133.70 190.51 132.95 191.47 133.08 192.53 C 133.21 193.59 134.18 194.34 135.24 194.21 Z M 136.24 194.09 L 137.23 193.96 C 138.29 193.83 139.04 192.86 138.90 191.80 C 138.77 190.74 137.80 189.99 136.74 190.12 L 135.75 190.25 C 134.69 190.38 133.94 191.35 134.07 192.41 C 134.21 193.47 135.18 194.22 136.24 194.09 Z M 137.23 193.96 L 138.22 193.83 C 139.28 193.70 140.03 192.73 139.89 191.67 C 139.75 190.60 138.78 189.86 137.72 189.99 L 136.73 190.12 C 135.67 190.26 134.93 191.23 135.06 192.29 C 135.20 193.35 136.17 194.10 137.23 193.96 Z M 138.22 193.83 L 139.21 193.70 C 140.27 193.56 141.02 192.59 140.88 191.53 C 140.74 190.47 139.76 189.72 138.70 189.86 L 137.72 189.99 C 136.66 190.13 135.91 191.11 136.05 192.17 C 136.19 193.23 137.16 193.97 138.22 193.83 Z M 139.22 193.70 L 140.20 193.57 C 141.26 193.42 142.01 192.45 141.86 191.39 C 141.72 190.33 140.74 189.59 139.68 189.73 L 138.70 189.86 C 137.64 190.01 136.89 190.98 137.04 192.04 C 137.18 193.10 138.16 193.85 139.22 193.70 Z M 140.21 193.57 L 141.20 193.43 C 142.26 193.28 143.00 192.30 142.85 191.24 C 142.70 190.18 141.72 189.44 140.66 189.59 L 139.67 189.73 C 138.62 189.88 137.88 190.86 138.02 191.92 C 138.17 192.98 139.15 193.72 140.21 193.57 Z M 141.21 193.43 L 142.20 193.29 C 143.26 193.13 143.99 192.15 143.84 191.09 C 143.69 190.03 142.70 189.30 141.64 189.45 L 140.66 189.59 C 139.60 189.75 138.86 190.73 139.01 191.79 C 139.17 192.85 140.15 193.58 141.21 193.43 Z M 142.20 193.29 L 143.19 193.14 C 144.25 192.98 144.98 192.00 144.83 190.94 C 144.67 189.88 143.68 189.15 142.63 189.30 L 141.64 189.45 C 140.58 189.61 139.85 190.59 140.00 191.65 C 140.16 192.71 141.14 193.44 142.20 193.29 Z M 143.20 193.14 L 144.19 192.99 C 145.25 192.83 145.97 191.84 145.81 190.78 C 145.65 189.72 144.67 189.00 143.61 189.16 L 142.62 189.31 C 141.56 189.47 140.83 190.45 140.99 191.51 C 141.15 192.57 142.14 193.30 143.20 193.14 Z M 144.19 192.99 L 145.18 192.84 C 146.24 192.67 146.97 191.68 146.80 190.62 C 146.64 189.56 145.65 188.84 144.59 189.00 L 143.60 189.16 C 142.54 189.32 141.82 190.31 141.98 191.37 C 142.14 192.43 143.14 193.15 144.19 192.99 Z M 145.19 192.84 L 146.18 192.68 C 147.23 192.51 147.96 191.52 147.79 190.46 C 147.62 189.40 146.63 188.68 145.57 188.85 L 144.58 189.00 C 143.53 189.17 142.80 190.16 142.97 191.22 C 143.14 192.28 144.13 193.00 145.19 192.84 Z M 146.18 192.68 L 147.17 192.52 C 148.23 192.35 148.95 191.35 148.78 190.30 C 148.61 189.24 147.61 188.52 146.56 188.69 L 145.57 188.85 C 144.51 189.02 143.79 190.01 143.96 191.07 C 144.13 192.13 145.12 192.85 146.18 192.68 Z M 147.18 192.52 L 148.16 192.36 C 149.22 192.19 149.94 191.19 149.77 190.13 C 149.59 189.07 148.60 188.36 147.54 188.53 L 146.55 188.69 C 145.49 188.86 144.78 189.86 144.95 190.92 C 145.12 191.97 146.12 192.69 147.18 192.52 Z M 148.17 192.36 L 149.15 192.20 C 150.21 192.02 150.92 191.02 150.75 189.96 C 150.58 188.91 149.58 188.19 148.52 188.37 L 147.53 188.53 C 146.48 188.70 145.76 189.70 145.93 190.76 C 146.11 191.82 147.11 192.53 148.17 192.36 Z M 149.15 192.20 L 150.14 192.03 C 151.20 191.86 151.91 190.86 151.74 189.80 C 151.56 188.74 150.56 188.02 149.50 188.20 L 148.52 188.36 C 147.46 188.54 146.74 189.54 146.92 190.60 C 147.09 191.66 148.10 192.37 149.15 192.20 Z M 150.14 192.04 L 151.12 191.87 C 152.18 191.69 152.90 190.69 152.72 189.63 C 152.54 188.57 151.54 187.86 150.48 188.03 L 149.50 188.20 C 148.44 188.38 147.72 189.38 147.90 190.44 C 148.08 191.50 149.08 192.21 150.14 192.04 Z M 151.13 191.87 L 152.11 191.71 C 153.17 191.53 153.89 190.53 153.71 189.46 C 153.53 188.40 152.53 187.69 151.47 187.87 L 150.48 188.03 C 149.42 188.21 148.71 189.21 148.88 190.27 C 149.06 191.33 150.06 192.05 151.13 191.87 Z M 152.11 191.71 L 153.10 191.54 C 154.16 191.37 154.88 190.36 154.70 189.30 C 154.52 188.24 153.52 187.52 152.45 187.70 L 151.47 187.86 C 150.41 188.04 149.69 189.05 149.87 190.11 C 150.04 191.17 151.05 191.89 152.11 191.71 Z M 153.10 191.55 L 154.08 191.38 C 155.15 191.20 155.86 190.20 155.69 189.14 C 155.51 188.07 154.51 187.36 153.44 187.53 L 152.46 187.70 C 151.39 187.87 150.67 188.88 150.85 189.94 C 151.03 191.00 152.03 191.72 153.10 191.55 Z M 154.08 191.38 L 155.07 191.22 C 156.13 191.05 156.85 190.04 156.68 188.98 C 156.50 187.91 155.50 187.19 154.44 187.37 L 153.45 187.53 C 152.38 187.71 151.66 188.71 151.84 189.77 C 152.01 190.84 153.02 191.56 154.08 191.38 Z M 155.07 191.22 L 156.06 191.06 C 157.12 190.89 157.85 189.88 157.67 188.82 C 157.50 187.75 156.50 187.03 155.43 187.20 L 154.44 187.37 C 153.37 187.54 152.65 188.54 152.82 189.61 C 153.00 190.67 154.00 191.40 155.07 191.22 Z M 156.05 191.06 L 157.04 190.91 C 158.11 190.73 158.84 189.73 158.66 188.66 C 158.49 187.60 157.49 186.87 156.42 187.04 L 155.43 187.20 C 154.37 187.37 153.64 188.38 153.81 189.44 C 153.98 190.51 154.99 191.24 156.05 191.06 Z M 157.04 190.91 L 158.03 190.75 C 159.10 190.58 159.83 189.58 159.66 188.51 C 159.49 187.44 158.49 186.72 157.42 186.88 L 156.43 187.04 C 155.36 187.21 154.63 188.21 154.80 189.28 C 154.97 190.35 155.97 191.08 157.04 190.91 Z M 158.03 190.75 L 159.02 190.60 C 160.09 190.43 160.82 189.43 160.65 188.36 C 160.48 187.29 159.48 186.56 158.41 186.73 L 157.42 186.88 C 156.35 187.05 155.62 188.05 155.79 189.12 C 155.96 190.19 156.96 190.92 158.03 190.75 Z M 159.02 190.60 L 160.01 190.45 C 161.08 190.28 161.81 189.28 161.64 188.21 C 161.48 187.14 160.47 186.40 159.40 186.57 L 158.41 186.72 C 157.34 186.89 156.61 187.89 156.78 188.96 C 156.94 190.03 157.95 190.77 159.02 190.60 Z M 160.00 190.45 L 160.99 190.29 C 162.06 190.13 162.80 189.13 162.63 188.05 C 162.47 186.98 161.46 186.25 160.39 186.42 L 159.40 186.57 C 158.33 186.73 157.60 187.74 157.76 188.81 C 157.93 189.88 158.93 190.61 160.00 190.45 Z M 160.99 190.30 L 161.98 190.14 C 163.05 189.98 163.79 188.97 163.62 187.90 C 163.45 186.83 162.45 186.10 161.38 186.26 L 160.39 186.41 C 159.32 186.58 158.59 187.58 158.75 188.65 C 158.92 189.73 159.92 190.46 160.99 190.30 Z M 161.98 190.15 L 162.96 189.99 C 164.04 189.83 164.77 188.82 164.61 187.75 C 164.44 186.68 163.43 185.94 162.36 186.11 L 161.38 186.26 C 160.31 186.43 159.57 187.43 159.74 188.50 C 159.90 189.58 160.91 190.31 161.98 190.15 Z M 162.96 189.99 L 163.95 189.84 C 165.02 189.68 165.76 188.67 165.59 187.60 C 165.42 186.52 164.42 185.79 163.34 185.95 L 162.36 186.11 C 161.29 186.27 160.55 187.28 160.72 188.35 C 160.88 189.43 161.89 190.16 162.96 189.99 Z M 163.95 189.84 L 164.93 189.69 C 166.00 189.52 166.74 188.52 166.57 187.44 C 166.40 186.37 165.40 185.63 164.32 185.80 L 163.34 185.95 C 162.27 186.12 161.53 187.13 161.70 188.20 C 161.87 189.28 162.87 190.01 163.95 189.84 Z M 164.93 189.69 L 165.91 189.54 C 166.99 189.37 167.72 188.36 167.55 187.29 C 167.39 186.21 166.38 185.48 165.30 185.64 L 164.32 185.80 C 163.25 185.97 162.51 186.97 162.68 188.05 C 162.85 189.13 163.86 189.86 164.93 189.69 Z M 165.91 189.54 L 166.89 189.39 C 167.97 189.22 168.71 188.21 168.54 187.13 C 168.37 186.05 167.36 185.32 166.28 185.49 L 165.30 185.64 C 164.22 185.81 163.49 186.82 163.66 187.90 C 163.83 188.97 164.84 189.71 165.91 189.54 Z M 166.90 189.39 L 167.88 189.23 C 168.96 189.06 169.69 188.05 169.52 186.97 C 169.35 185.90 168.34 185.16 167.26 185.33 L 166.28 185.49 C 165.20 185.66 164.47 186.67 164.64 187.74 C 164.81 188.82 165.82 189.56 166.90 189.39 Z M 167.88 189.23 L 168.87 189.08 C 169.95 188.91 170.68 187.89 170.51 186.82 C 170.34 185.74 169.33 185.00 168.25 185.17 L 167.26 185.33 C 166.18 185.50 165.45 186.51 165.62 187.59 C 165.79 188.67 166.80 189.41 167.88 189.23 Z M 168.87 189.08 L 169.86 188.92 C 170.94 188.75 171.68 187.74 171.51 186.66 C 171.34 185.58 170.32 184.84 169.24 185.01 L 168.25 185.17 C 167.17 185.34 166.43 186.36 166.60 187.44 C 166.78 188.52 167.79 189.25 168.87 189.08 Z M 169.87 188.92 L 170.87 188.76 C 171.95 188.59 172.68 187.58 172.51 186.50 C 172.34 185.42 171.32 184.68 170.24 184.85 L 169.24 185.01 C 168.16 185.18 167.43 186.20 167.60 187.28 C 167.77 188.36 168.78 189.10 169.87 188.92 Z M 170.87 188.77 L 171.88 188.60 C 172.96 188.43 173.70 187.41 173.52 186.33 C 173.35 185.25 172.34 184.52 171.25 184.69 L 170.24 184.85 C 169.16 185.02 168.43 186.04 168.60 187.12 C 168.77 188.20 169.79 188.94 170.87 188.77 Z M 171.88 188.61 L 172.90 188.44 C 173.98 188.27 174.71 187.25 174.54 186.17 C 174.37 185.09 173.35 184.35 172.27 184.52 L 171.25 184.69 C 170.17 184.86 169.43 185.88 169.61 186.96 C 169.78 188.04 170.80 188.78 171.88 188.61 Z M 172.90 188.44 L 173.91 188.28 C 175.00 188.11 175.73 187.09 175.56 186.01 C 175.38 184.92 174.37 184.19 173.28 184.36 L 172.27 184.52 C 171.19 184.70 170.45 185.72 170.62 186.80 C 170.80 187.88 171.81 188.62 172.90 188.44 Z M 173.91 188.28 L 174.92 188.12 C 176.01 187.95 176.74 186.93 176.57 185.84 C 176.40 184.76 175.38 184.02 174.29 184.20 L 173.28 184.36 C 172.20 184.53 171.46 185.55 171.64 186.64 C 171.81 187.72 172.83 188.46 173.91 188.28 Z M 174.92 188.12 L 175.92 187.96 C 177.00 187.79 177.74 186.77 177.57 185.68 C 177.40 184.60 176.38 183.86 175.29 184.04 L 174.29 184.20 C 173.21 184.37 172.47 185.39 172.65 186.47 C 172.82 187.56 173.84 188.30 174.92 188.12 Z M 175.92 187.96 L 176.90 187.81 C 177.99 187.63 178.72 186.61 178.55 185.53 C 178.38 184.44 177.36 183.70 176.27 183.88 L 175.29 184.03 C 174.21 184.21 173.47 185.23 173.64 186.31 C 173.82 187.40 174.84 188.14 175.92 187.96 Z M 176.90 187.81 L 177.86 187.66 C 178.94 187.48 179.68 186.46 179.51 185.38 C 179.33 184.29 178.31 183.55 177.23 183.72 L 176.27 183.88 C 175.19 184.05 174.45 185.07 174.62 186.16 C 174.79 187.24 175.81 187.98 176.90 187.81 Z M 177.85 187.66 L 178.78 187.51 C 179.87 187.34 180.61 186.32 180.43 185.23 C 180.26 184.14 179.24 183.40 178.15 183.57 L 177.23 183.72 C 176.14 183.90 175.40 184.92 175.57 186.00 C 175.75 187.09 176.77 187.83 177.85 187.66 Z M 178.78 187.51 L 179.87 187.34 C 180.96 187.17 181.70 186.14 181.53 185.06 C 181.36 183.97 180.34 183.23 179.25 183.40 L 178.15 183.57 C 177.07 183.75 176.33 184.77 176.50 185.85 C 176.67 186.94 177.69 187.68 178.78 187.51 Z M 179.87 187.34 L 180.93 187.17 C 182.01 187.00 182.76 185.98 182.59 184.89 C 182.42 183.80 181.40 183.06 180.31 183.23 L 179.25 183.40 C 178.16 183.57 177.42 184.59 177.59 185.68 C 177.76 186.77 178.78 187.51 179.87 187.34 Z M 180.92 187.17 L 181.93 187.02 C 183.02 186.85 183.77 185.83 183.60 184.74 C 183.43 183.65 182.41 182.90 181.32 183.07 L 180.31 183.23 C 179.22 183.40 178.48 184.42 178.64 185.51 C 178.81 186.60 179.83 187.34 180.92 187.17 Z M 181.93 187.02 L 182.90 186.87 C 183.99 186.70 184.73 185.69 184.57 184.59 C 184.40 183.50 183.38 182.76 182.29 182.92 L 181.32 183.07 C 180.23 183.24 179.48 184.26 179.65 185.35 C 179.82 186.44 180.84 187.19 181.93 187.02 Z M 182.89 186.87 L 183.82 186.73 C 184.91 186.57 185.66 185.55 185.50 184.46 C 185.34 183.37 184.32 182.62 183.23 182.78 L 182.30 182.92 C 181.20 183.09 180.45 184.10 180.62 185.20 C 180.78 186.29 181.80 187.04 182.89 186.87 Z M 183.82 186.74 L 184.72 186.60 C 185.81 186.44 186.56 185.43 186.40 184.33 C 186.24 183.24 185.23 182.49 184.13 182.65 L 183.23 182.78 C 182.14 182.94 181.39 183.96 181.55 185.05 C 181.71 186.14 182.72 186.90 183.82 186.74 Z M 184.71 186.60 L 185.72 186.46 C 186.81 186.30 187.57 185.29 187.41 184.20 C 187.26 183.10 186.24 182.34 185.15 182.50 L 184.14 182.64 C 183.05 182.80 182.29 183.82 182.44 184.91 C 182.60 186.00 183.62 186.76 184.71 186.60 Z M 185.71 186.46 L 186.74 186.32 C 187.84 186.17 188.60 185.16 188.45 184.06 C 188.30 182.97 187.29 182.20 186.20 182.36 L 185.16 182.50 C 184.06 182.65 183.30 183.66 183.45 184.75 C 183.60 185.85 184.61 186.61 185.71 186.46 Z M 186.73 186.32 L 187.74 186.18 C 188.83 186.04 189.60 185.03 189.45 183.94 C 189.31 182.84 188.30 182.08 187.21 182.22 L 186.21 182.35 C 185.11 182.50 184.34 183.51 184.49 184.60 C 184.63 185.69 185.64 186.46 186.73 186.32 Z M 187.72 186.19 L 188.69 186.06 C 189.79 185.92 190.56 184.92 190.42 183.83 C 190.28 182.73 189.28 181.96 188.19 182.10 L 187.22 182.22 C 186.12 182.36 185.35 183.36 185.49 184.45 C 185.63 185.55 186.63 186.32 187.72 186.19 Z M 188.68 186.06 L 189.62 185.95 C 190.71 185.82 191.49 184.82 191.36 183.73 C 191.23 182.63 190.23 181.85 189.14 181.98 L 188.20 182.10 C 187.11 182.23 186.33 183.22 186.46 184.32 C 186.59 185.41 187.59 186.19 188.68 186.06 Z M 189.60 185.95 L 190.62 185.83 C 191.72 185.71 192.51 184.72 192.38 183.63 C 192.26 182.53 191.27 181.74 190.17 181.87 L 189.15 181.98 C 188.06 182.11 187.27 183.10 187.40 184.19 C 187.52 185.29 188.51 186.07 189.60 185.95 Z M 190.61 185.83 L 191.66 185.72 C 192.75 185.60 193.55 184.62 193.43 183.53 C 193.32 182.44 192.34 181.64 191.24 181.76 L 190.19 181.87 C 189.10 181.99 188.30 182.97 188.42 184.06 C 188.53 185.15 189.51 185.95 190.61 185.83 Z M 191.65 185.72 L 192.65 185.62 C 193.74 185.51 194.53 184.54 194.43 183.45 C 194.32 182.35 193.35 181.56 192.25 181.66 L 191.26 181.76 C 190.16 181.87 189.37 182.84 189.48 183.94 C 189.58 185.03 190.56 185.82 191.65 185.72 Z M 192.64 185.61 L 193.58 185.52 C 194.66 185.42 195.46 184.46 195.36 183.37 C 195.26 182.28 194.29 181.48 193.20 181.58 L 192.26 181.67 C 191.18 181.77 190.38 182.74 190.48 183.83 C 190.58 184.92 191.55 185.72 192.64 185.61 Z M 193.57 185.52 L 194.51 185.43 C 195.60 185.33 196.40 184.37 196.30 183.29 C 196.20 182.20 195.24 181.40 194.15 181.50 L 193.21 181.59 C 192.13 181.68 191.32 182.64 191.42 183.73 C 191.52 184.82 192.48 185.62 193.57 185.52 Z M 194.48 185.43 L 195.46 185.35 C 196.54 185.27 197.35 184.32 197.27 183.24 C 197.18 182.16 196.24 181.35 195.16 181.43 L 194.18 181.51 C 193.10 181.59 192.29 182.53 192.37 183.62 C 192.45 184.70 193.40 185.51 194.48 185.43 Z M 195.38 185.34 L 196.35 185.31 C 197.43 185.27 198.27 184.37 198.23 183.29 C 198.19 182.21 197.29 181.37 196.21 181.41 L 195.24 181.44 C 194.16 181.48 193.32 182.38 193.36 183.46 C 193.39 184.54 194.30 185.38 195.38 185.34 Z M 196.23 185.30 L 197.25 185.33 C 198.33 185.36 199.22 184.51 199.25 183.44 C 199.28 182.37 198.43 181.48 197.36 181.45 L 196.33 181.42 C 195.26 181.39 194.37 182.23 194.34 183.31 C 194.31 184.38 195.15 185.27 196.23 185.30 Z M 197.14 185.31 L 198.06 185.39 C 199.12 185.48 200.06 184.70 200.15 183.64 C 200.25 182.58 199.46 181.64 198.40 181.55 L 197.48 181.46 C 196.42 181.37 195.48 182.15 195.38 183.22 C 195.29 184.28 196.08 185.22 197.14 185.31 Z M 197.99 185.37 L 198.95 185.49 C 200.00 185.63 200.96 184.89 201.10 183.83 C 201.23 182.78 200.49 181.82 199.44 181.69 L 198.47 181.57 C 197.42 181.43 196.46 182.17 196.33 183.22 C 196.19 184.28 196.94 185.24 197.99 185.37 Z M 198.91 185.48 L 199.92 185.63 C 200.96 185.79 201.93 185.07 202.09 184.03 C 202.25 182.99 201.54 182.02 200.49 181.86 L 199.48 181.71 C 198.44 181.55 197.47 182.26 197.31 183.30 C 197.15 184.34 197.87 185.32 198.91 185.48 Z M 199.90 185.62 L 200.93 185.79 C 201.97 185.96 202.94 185.26 203.12 184.23 C 203.29 183.20 202.59 182.22 201.56 182.05 L 200.52 181.88 C 199.49 181.70 198.51 182.40 198.34 183.43 C 198.17 184.47 198.86 185.44 199.90 185.62 Z M 200.93 185.78 L 201.47 185.87 C 202.50 186.05 203.47 185.36 203.65 184.33 C 203.82 183.30 203.13 182.33 202.10 182.15 L 201.56 182.06 C 200.54 181.88 199.56 182.57 199.39 183.60 C 199.21 184.63 199.90 185.60 200.93 185.78 Z"
      fill="black"
      fill-rule="nonzero" /></svg>