<svg xmlns="http://www.w3.org/2000/svg" width="300" height="300" viewBox="0 0 300 300">
<path d="M 135.36 126.14 L 136.35 125.97 C 137.19 125.83 137.76 125.04 137.62 124.20 C 137.48 123.35 136.68 122.79 135.84 122.93 L 134.86 123.09 C 134.02 123.23 133.45 124.02 133.59 124.87 C 133.73 125.71 134.52 126.28 135.36 126.14 Z M 136.29 125.99 L 137.28 125.86 C 138.13 125.75 138.73 124.97 138.62 124.12 C 138.51 123.27 137.73 122.67 136.88 122.78 L 135.89 122.91 C 135.04 123.02 134.44 123.80 134.55 124.65 C 134.66 125.50 135.44 126.10 136.29 125.99 Z M 137.17 125.88 L 138.17 125.82 C 139.02 125.77 139.68 125.04 139.63 124.18 C 139.58 123.32 138.85 122.66 137.99 122.71 L 136.99 122.76 C 136.13 122.81 135.47 123.55 135.52 124.41 C 135.57 125.27 136.31 125.93 137.17 125.88 Z M 138.00 125.83 L 139.00 125.88 C 139.86 125.92 140.60 125.25 140.64 124.39 C 140.68 123.52 140.02 122.79 139.15 122.75 L 138.15 122.70 C 137.29 122.66 136.55 123.32 136.51 124.19 C 136.47 125.05 137.14 125.79 138.00 125.83 Z M 138.82 125.86 L 139.74 126.02 C 140.60 126.16 141.41 125.58 141.55 124.73 C 141.69 123.87 141.12 123.06 140.26 122.92 L 139.33 122.76 C 138.48 122.62 137.67 123.20 137.52 124.05 C 137.38 124.91 137.96 125.72 138.82 125.86 Z M 139.60 125.99 L 140.54 126.24 C 141.38 126.46 142.25 125.96 142.47 125.11 C 142.69 124.27 142.18 123.41 141.34 123.19 L 140.40 122.94 C 139.56 122.72 138.70 123.22 138.47 124.07 C 138.25 124.91 138.76 125.77 139.60 125.99 Z M 140.44 126.21 L 141.40 126.54 C 142.23 126.81 143.13 126.37 143.40 125.54 C 143.68 124.71 143.23 123.82 142.41 123.54 L 141.44 123.22 C 140.62 122.94 139.72 123.38 139.44 124.21 C 139.17 125.04 139.61 125.94 140.44 126.21 Z M 141.34 126.52 L 142.32 126.90 C 143.14 127.21 144.06 126.80 144.37 125.99 C 144.69 125.17 144.28 124.25 143.46 123.94 L 142.47 123.56 C 141.66 123.24 140.74 123.65 140.43 124.47 C 140.11 125.28 140.52 126.20 141.34 126.52 Z M 142.29 126.88 L 143.15 127.24 C 143.96 127.58 144.89 127.19 145.22 126.38 C 145.56 125.57 145.17 124.64 144.36 124.31 L 143.50 123.95 C 142.69 123.61 141.76 124.00 141.42 124.81 C 141.09 125.62 141.47 126.55 142.29 126.88 Z M 143.13 127.23 L 143.97 127.60 C 144.78 127.95 145.71 127.58 146.06 126.77 C 146.41 125.96 146.04 125.03 145.23 124.68 L 144.39 124.31 C 143.58 123.97 142.64 124.34 142.30 125.14 C 141.95 125.95 142.32 126.89 143.13 127.23 Z M 143.95 127.59 L 144.83 127.99 C 145.63 128.35 146.57 127.99 146.93 127.19 C 147.29 126.38 146.93 125.44 146.13 125.08 L 145.25 124.69 C 144.45 124.33 143.51 124.68 143.15 125.49 C 142.79 126.29 143.15 127.23 143.95 127.59 Z M 144.81 127.98 L 145.73 128.41 C 146.53 128.78 147.48 128.43 147.85 127.63 C 148.22 126.83 147.87 125.89 147.08 125.52 L 146.15 125.09 C 145.35 124.72 144.40 125.06 144.03 125.86 C 143.66 126.66 144.01 127.61 144.81 127.98 Z M 145.72 128.40 L 146.70 128.87 C 147.50 129.25 148.45 128.91 148.83 128.12 C 149.21 127.32 148.87 126.37 148.07 125.99 L 147.09 125.52 C 146.30 125.14 145.34 125.48 144.96 126.28 C 144.58 127.07 144.92 128.02 145.72 128.40 Z M 146.69 128.87 L 147.66 129.34 C 148.46 129.73 149.41 129.40 149.80 128.60 C 150.19 127.81 149.86 126.85 149.06 126.47 L 148.09 125.99 C 147.29 125.61 146.34 125.94 145.95 126.73 C 145.56 127.52 145.89 128.48 146.69 128.87 Z M 147.65 129.34 L 148.55 129.79 C 149.35 130.18 150.31 129.85 150.70 129.06 C 151.09 128.27 150.77 127.31 149.97 126.92 L 149.07 126.47 C 148.28 126.08 147.32 126.40 146.93 127.19 C 146.53 127.99 146.86 128.95 147.65 129.34 Z M 148.54 129.78 L 149.47 130.25 C 150.26 130.65 151.22 130.33 151.62 129.53 C 152.02 128.74 151.70 127.78 150.91 127.38 L 149.98 126.92 C 149.19 126.52 148.23 126.84 147.83 127.63 C 147.43 128.42 147.75 129.39 148.54 129.78 Z M 149.46 130.25 L 150.38 130.72 C 151.18 131.12 152.14 130.81 152.55 130.02 C 152.95 129.23 152.63 128.26 151.84 127.86 L 150.92 127.38 C 150.12 126.98 149.16 127.29 148.75 128.09 C 148.35 128.88 148.67 129.84 149.46 130.25 Z M 150.37 130.72 L 151.29 131.19 C 152.08 131.60 153.05 131.29 153.46 130.50 C 153.86 129.71 153.55 128.74 152.76 128.33 L 151.85 127.86 C 151.06 127.45 150.09 127.76 149.68 128.55 C 149.28 129.34 149.59 130.31 150.37 130.72 Z M 151.28 131.18 L 152.15 131.65 C 152.94 132.06 153.91 131.76 154.33 130.97 C 154.74 130.18 154.44 129.21 153.65 128.79 L 152.78 128.33 C 151.99 127.92 151.01 128.22 150.60 129.01 C 150.18 129.80 150.49 130.77 151.28 131.18 Z M 152.14 131.64 L 152.96 132.08 C 153.75 132.51 154.73 132.21 155.15 131.42 C 155.57 130.64 155.27 129.66 154.49 129.24 L 153.67 128.80 C 152.88 128.37 151.90 128.67 151.48 129.46 C 151.06 130.24 151.35 131.22 152.14 131.64 Z M 152.94 132.08 L 153.96 132.64 C 154.74 133.07 155.72 132.79 156.16 132.01 C 156.59 131.23 156.31 130.24 155.53 129.81 L 154.51 129.24 C 153.73 128.81 152.74 129.09 152.31 129.88 C 151.88 130.66 152.16 131.64 152.94 132.08 Z M 153.91 132.62 L 154.85 133.18 C 155.62 133.63 156.62 133.38 157.08 132.61 C 157.54 131.83 157.28 130.84 156.51 130.38 L 155.57 129.83 C 154.80 129.37 153.80 129.62 153.34 130.40 C 152.89 131.17 153.14 132.17 153.91 132.62 Z M 154.78 133.14 L 155.59 133.67 C 156.34 134.17 157.36 133.96 157.85 133.21 C 158.35 132.45 158.14 131.44 157.38 130.95 L 156.58 130.42 C 155.82 129.92 154.81 130.13 154.32 130.88 C 153.82 131.63 154.03 132.65 154.78 133.14 Z M 155.49 133.61 L 156.19 134.14 C 156.91 134.69 157.94 134.55 158.49 133.83 C 159.04 133.12 158.90 132.09 158.18 131.54 L 157.48 131.01 C 156.76 130.46 155.73 130.60 155.18 131.32 C 154.64 132.04 154.77 133.06 155.49 133.61 Z M 156.06 134.04 L 156.76 134.70 C 157.42 135.32 158.47 135.28 159.09 134.62 C 159.71 133.95 159.67 132.91 159.01 132.29 L 158.31 131.64 C 157.64 131.02 156.60 131.05 155.98 131.72 C 155.36 132.38 155.40 133.42 156.06 134.04 Z M 156.58 134.52 L 157.28 135.41 C 157.85 136.13 158.89 136.25 159.61 135.69 C 160.33 135.12 160.46 134.08 159.89 133.36 L 159.19 132.47 C 158.62 131.75 157.58 131.62 156.86 132.19 C 156.14 132.76 156.01 133.80 156.58 134.52 Z M 157.04 135.04 L 157.40 135.89 C 157.76 136.74 158.75 137.14 159.60 136.78 C 160.45 136.42 160.85 135.43 160.49 134.58 L 160.13 133.73 C 159.77 132.88 158.78 132.48 157.93 132.84 C 157.08 133.20 156.68 134.19 157.04 135.04 Z M 157.27 135.00 L 157.17 135.73 C 157.04 136.65 157.68 137.51 158.61 137.64 C 159.53 137.77 160.39 137.12 160.52 136.20 L 160.62 135.47 C 160.75 134.55 160.11 133.69 159.18 133.56 C 158.26 133.43 157.40 134.07 157.27 135.00 Z M 157.72 134.69 L 157.09 135.25 C 156.39 135.87 156.32 136.94 156.94 137.65 C 157.56 138.35 158.64 138.41 159.34 137.79 L 159.97 137.24 C 160.67 136.61 160.74 135.54 160.11 134.84 C 159.49 134.14 158.42 134.07 157.72 134.69 Z M 157.62 134.93 L 156.58 135.31 C 155.70 135.64 155.26 136.62 155.58 137.50 C 155.91 138.38 156.89 138.83 157.77 138.50 L 158.81 138.11 C 159.69 137.79 160.14 136.81 159.81 135.93 C 159.48 135.05 158.50 134.60 157.62 134.93 Z M 156.84 135.24 L 155.81 135.45 C 154.89 135.63 154.30 136.53 154.49 137.46 C 154.67 138.38 155.57 138.97 156.50 138.78 L 157.52 138.58 C 158.44 138.39 159.04 137.49 158.85 136.57 C 158.66 135.64 157.76 135.05 156.84 135.24 Z M 155.94 135.42 L 155.01 135.54 C 154.08 135.66 153.42 136.52 153.54 137.45 C 153.66 138.39 154.51 139.04 155.45 138.92 L 156.37 138.80 C 157.31 138.68 157.96 137.83 157.84 136.90 C 157.72 135.96 156.87 135.30 155.94 135.42 Z M 155.09 135.54 L 154.09 135.62 C 153.15 135.70 152.46 136.52 152.54 137.46 C 152.61 138.40 153.44 139.09 154.38 139.02 L 155.37 138.93 C 156.31 138.85 157.01 138.03 156.93 137.09 C 156.85 136.15 156.03 135.46 155.09 135.54 Z M 154.15 135.62 L 153.09 135.67 C 152.15 135.72 151.43 136.52 151.47 137.46 C 151.52 138.40 152.32 139.12 153.26 139.07 L 154.32 139.02 C 155.26 138.97 155.98 138.17 155.94 137.23 C 155.89 136.29 155.09 135.57 154.15 135.62 Z M 153.12 135.67 L 152.05 135.70 C 151.11 135.73 150.37 136.52 150.40 137.46 C 150.43 138.40 151.22 139.14 152.16 139.11 L 153.23 139.07 C 154.17 139.04 154.91 138.26 154.88 137.32 C 154.85 136.38 154.06 135.64 153.12 135.67 Z M 152.07 135.70 L 151.09 135.72 C 150.15 135.74 149.40 136.52 149.42 137.46 C 149.44 138.40 150.22 139.15 151.16 139.13 L 152.14 139.11 C 153.08 139.09 153.82 138.31 153.80 137.37 C 153.79 136.43 153.01 135.69 152.07 135.70 Z M 151.10 135.72 L 150.10 135.74 C 149.16 135.75 148.41 136.52 148.42 137.46 C 148.43 138.40 149.20 139.15 150.14 139.14 L 151.14 139.13 C 152.08 139.12 152.83 138.34 152.82 137.41 C 152.81 136.47 152.04 135.71 151.10 135.72 Z M 150.11 135.74 L 149.10 135.74 C 148.16 135.75 147.41 136.51 147.41 137.45 C 147.42 138.39 148.18 139.15 149.12 139.14 L 150.13 139.14 C 151.07 139.13 151.83 138.37 151.82 137.43 C 151.82 136.49 151.05 135.73 150.11 135.74 Z M 149.11 135.75 L 148.10 135.75 C 147.16 135.75 146.40 136.51 146.40 137.45 C 146.40 138.39 147.17 139.14 148.10 139.14 L 149.11 139.14 C 150.05 139.14 150.81 138.38 150.81 137.44 C 150.81 136.50 150.05 135.74 149.11 135.75 Z M 148.10 135.75 L 147.09 135.75 C 146.15 135.75 145.39 136.51 145.39 137.45 C 145.39 138.38 146.15 139.14 147.09 139.14 L 148.10 139.14 C 149.04 139.14 149.79 138.38 149.79 137.44 C 149.79 136.51 149.04 135.75 148.10 135.75 Z M 147.09 135.75 L 146.05 135.75 C 145.11 135.75 144.35 136.50 144.35 137.44 C 144.35 138.37 145.10 139.13 146.04 139.13 L 147.08 139.14 C 148.02 139.14 148.78 138.38 148.78 137.45 C 148.78 136.52 148.03 135.76 147.09 135.75 Z M 146.07 135.76 L 145.05 135.74 C 144.11 135.73 143.35 136.47 143.33 137.40 C 143.32 138.33 144.06 139.10 144.99 139.11 L 146.02 139.13 C 146.95 139.14 147.71 138.40 147.73 137.47 C 147.74 136.54 147.00 135.77 146.07 135.76 Z M 145.09 135.75 L 144.09 135.71 C 143.17 135.67 142.38 136.39 142.34 137.32 C 142.31 138.24 143.03 139.03 143.95 139.06 L 144.95 139.10 C 145.88 139.14 146.66 138.42 146.70 137.50 C 146.74 136.57 146.02 135.79 145.09 135.75 Z M 144.16 135.72 L 143.19 135.64 C 142.27 135.56 141.46 136.25 141.39 137.17 C 141.31 138.09 142.00 138.90 142.92 138.98 L 143.89 139.05 C 144.81 139.13 145.62 138.44 145.69 137.52 C 145.77 136.60 145.08 135.79 144.16 135.72 Z M 143.29 135.65 L 142.31 135.52 C 141.40 135.39 140.56 136.03 140.43 136.94 C 140.31 137.86 140.94 138.70 141.86 138.82 L 142.83 138.96 C 143.74 139.08 144.58 138.45 144.71 137.54 C 144.84 136.62 144.20 135.78 143.29 135.65 Z M 142.43 135.55 L 141.41 135.33 C 140.51 135.14 139.63 135.71 139.44 136.60 C 139.24 137.49 139.81 138.37 140.71 138.57 L 141.73 138.79 C 142.63 138.98 143.51 138.42 143.70 137.52 C 143.90 136.63 143.33 135.75 142.43 135.55 Z M 141.54 135.38 L 140.57 135.08 C 139.71 134.82 138.79 135.30 138.52 136.17 C 138.26 137.03 138.74 137.95 139.61 138.22 L 140.57 138.52 C 141.44 138.78 142.35 138.30 142.62 137.43 C 142.89 136.57 142.40 135.65 141.54 135.38 Z M 140.71 135.15 L 139.82 134.78 C 138.99 134.44 138.04 134.83 137.70 135.66 C 137.35 136.48 137.75 137.43 138.57 137.78 L 139.47 138.15 C 140.29 138.49 141.24 138.10 141.59 137.28 C 141.93 136.45 141.54 135.50 140.71 135.15 Z M 139.97 134.87 L 139.14 134.42 C 138.36 133.99 137.38 134.28 136.96 135.05 C 136.53 135.83 136.82 136.81 137.60 137.23 L 138.43 137.69 C 139.20 138.11 140.18 137.83 140.61 137.05 C 141.03 136.27 140.75 135.30 139.97 134.87 Z M 139.30 134.55 L 138.50 133.96 C 137.79 133.44 136.80 133.59 136.28 134.30 C 135.77 135.00 135.92 135.99 136.63 136.51 L 137.43 137.10 C 138.14 137.62 139.13 137.47 139.64 136.76 C 140.16 136.05 140.01 135.06 139.30 134.55 Z M 138.68 134.16 L 138.00 133.45 C 137.41 132.83 136.42 132.81 135.80 133.41 C 135.19 134.01 135.17 134.99 135.76 135.61 L 136.44 136.31 C 137.04 136.93 138.02 136.95 138.64 136.35 C 139.26 135.76 139.28 134.77 138.68 134.16 Z M 138.17 133.71 L 137.64 132.87 C 137.18 132.16 136.24 131.95 135.53 132.40 C 134.82 132.86 134.61 133.80 135.06 134.51 L 135.60 135.35 C 136.05 136.06 136.99 136.27 137.70 135.82 C 138.41 135.37 138.62 134.42 138.17 133.71 Z M 137.75 133.15 L 137.39 132.23 C 137.10 131.45 136.23 131.07 135.45 131.37 C 134.68 131.66 134.29 132.53 134.59 133.31 L 134.95 134.23 C 135.25 135.00 136.11 135.39 136.89 135.09 C 137.66 134.79 138.05 133.92 137.75 133.15 Z M 137.44 132.45 L 137.23 131.49 C 137.06 130.68 136.27 130.18 135.47 130.35 C 134.67 130.52 134.16 131.31 134.33 132.11 L 134.54 133.08 C 134.72 133.88 135.51 134.39 136.31 134.22 C 137.11 134.04 137.62 133.25 137.44 132.45 Z M 137.24 131.65 L 137.14 130.63 C 137.05 129.82 136.33 129.24 135.52 129.32 C 134.72 129.41 134.13 130.13 134.22 130.93 L 134.32 131.95 C 134.41 132.76 135.13 133.34 135.94 133.26 C 136.74 133.17 137.33 132.45 137.24 131.65 Z M 137.13 130.75 L 137.11 129.73 C 137.09 128.93 136.43 128.29 135.63 128.31 C 134.83 128.32 134.19 128.99 134.20 129.79 L 134.22 130.81 C 134.24 131.61 134.90 132.25 135.70 132.23 C 136.51 132.22 137.14 131.55 137.13 130.75 Z M 137.09 129.84 L 137.15 128.82 C 137.19 128.02 136.58 127.35 135.79 127.30 C 135.00 127.26 134.32 127.87 134.27 128.66 L 134.22 129.68 C 134.18 130.48 134.78 131.15 135.58 131.20 C 136.37 131.24 137.05 130.63 137.09 129.84 Z M 137.13 128.92 L 137.26 127.88 C 137.36 127.10 136.81 126.38 136.02 126.28 C 135.24 126.18 134.52 126.74 134.42 127.52 L 134.29 128.56 C 134.19 129.34 134.75 130.06 135.53 130.16 C 136.32 130.26 137.03 129.70 137.13 128.92 Z M 137.25 127.97 L 137.43 127.00 C 137.58 126.22 137.07 125.48 136.29 125.33 C 135.52 125.18 134.77 125.69 134.62 126.47 L 134.44 127.44 C 134.29 128.21 134.80 128.96 135.58 129.11 C 136.35 129.25 137.10 128.74 137.25 127.97 Z M 137.42 127.05 L 137.63 126.12 C 137.80 125.36 137.32 124.59 136.56 124.41 C 135.79 124.24 135.02 124.72 134.85 125.49 L 134.63 126.42 C 134.46 127.18 134.94 127.95 135.71 128.12 C 136.48 128.30 137.24 127.82 137.42 127.05 Z M 137.62 126.14 L 137.69 125.87 C 137.87 125.11 137.40 124.34 136.63 124.15 C 135.87 123.97 135.10 124.44 134.92 125.21 L 134.85 125.47 C 134.67 126.24 135.14 127.01 135.91 127.19 C 136.67 127.38 137.44 126.90 137.62 126.14 Z"
      fill="black"
      fill-rule="nonzero" /></svg>