<svg xmlns="http://www.w3.org/2000/svg" width="300" height="300" viewBox="0 0 300 300">
<path d="M 140.97 157.63 L 140.00 157.36 C 139.17 157.12 138.30 157.60 138.06 158.43 C 137.83 159.26 138.31 160.13 139.14 160.37 L 140.10 160.65 C 140.94 160.89 141.80 160.40 142.04 159.57 C 142.28 158.74 141.80 157.87 140.97 157.63 Z M 140.01 157.36 L 139.05 157.08 C 138.22 156.83 137.35 157.31 137.10 158.14 C 136.86 158.97 137.34 159.84 138.17 160.09 L 139.13 160.37 C 139.96 160.61 140.83 160.14 141.08 159.30 C 141.32 158.47 140.84 157.60 140.01 157.36 Z M 139.07 157.08 L 138.11 156.79 C 137.28 156.54 136.40 157.01 136.15 157.84 C 135.90 158.67 136.37 159.54 137.20 159.79 L 138.15 160.08 C 138.98 160.34 139.86 159.87 140.11 159.04 C 140.36 158.21 139.89 157.33 139.07 157.08 Z M 138.13 156.80 L 137.18 156.49 C 136.36 156.23 135.47 156.68 135.21 157.51 C 134.94 158.33 135.40 159.22 136.22 159.48 L 137.17 159.79 C 138.00 160.05 138.88 159.60 139.15 158.77 C 139.41 157.95 138.96 157.06 138.13 156.80 Z M 137.22 156.50 L 136.21 156.15 C 135.39 155.87 134.50 156.31 134.21 157.13 C 133.93 157.95 134.36 158.84 135.18 159.12 L 136.19 159.47 C 137.01 159.75 137.90 159.32 138.19 158.50 C 138.47 157.68 138.03 156.79 137.22 156.50 Z M 136.27 156.18 L 135.07 155.71 C 134.26 155.39 133.35 155.79 133.03 156.60 C 132.72 157.41 133.12 158.32 133.92 158.63 L 135.12 159.10 C 135.93 159.42 136.84 159.02 137.16 158.21 C 137.48 157.40 137.08 156.49 136.27 156.18 Z M 135.20 155.76 L 134.24 155.29 C 133.46 154.90 132.52 155.21 132.13 155.99 C 131.74 156.77 132.06 157.71 132.84 158.10 L 133.79 158.58 C 134.57 158.96 135.52 158.65 135.90 157.87 C 136.29 157.10 135.98 156.15 135.20 155.76 Z M 134.57 155.50 L 134.03 155.04 C 133.38 154.47 132.38 154.54 131.81 155.20 C 131.25 155.86 131.32 156.85 131.97 157.42 L 132.51 157.88 C 133.17 158.45 134.16 158.38 134.73 157.72 C 135.30 157.06 135.22 156.07 134.57 155.50 Z M 134.55 156.53 L 134.64 156.08 C 134.81 155.23 134.25 154.40 133.40 154.23 C 132.55 154.06 131.72 154.62 131.55 155.47 L 131.46 155.92 C 131.29 156.78 131.85 157.60 132.70 157.77 C 133.55 157.94 134.38 157.39 134.55 156.53 Z M 133.84 157.16 L 134.60 156.75 C 135.36 156.33 135.65 155.38 135.24 154.62 C 134.82 153.85 133.87 153.57 133.11 153.98 L 132.35 154.39 C 131.59 154.80 131.30 155.76 131.71 156.52 C 132.12 157.28 133.08 157.57 133.84 157.16 Z M 134.30 156.87 L 135.46 156.52 C 136.29 156.28 136.77 155.41 136.52 154.58 C 136.28 153.75 135.41 153.27 134.58 153.52 L 133.41 153.86 C 132.58 154.10 132.11 154.97 132.35 155.80 C 132.59 156.64 133.47 157.11 134.30 156.87 Z M 135.35 156.55 L 136.48 156.31 C 137.32 156.12 137.86 155.29 137.68 154.45 C 137.50 153.60 136.66 153.07 135.82 153.25 L 134.69 153.49 C 133.84 153.67 133.31 154.51 133.49 155.35 C 133.67 156.20 134.50 156.73 135.35 156.55 Z M 136.42 156.32 L 137.41 156.15 C 138.26 156.00 138.83 155.19 138.68 154.34 C 138.53 153.49 137.72 152.92 136.87 153.06 L 135.88 153.24 C 135.03 153.39 134.46 154.20 134.61 155.05 C 134.76 155.90 135.57 156.47 136.42 156.32 Z M 137.35 156.15 L 138.34 156.01 C 139.20 155.89 139.79 155.10 139.67 154.25 C 139.55 153.39 138.76 152.80 137.91 152.92 L 136.92 153.06 C 136.06 153.18 135.47 153.97 135.59 154.82 C 135.71 155.68 136.50 156.27 137.35 156.15 Z M 138.29 156.02 L 139.28 155.91 C 140.14 155.82 140.76 155.05 140.67 154.19 C 140.57 153.33 139.80 152.71 138.94 152.80 L 137.95 152.91 C 137.10 153.01 136.48 153.78 136.57 154.64 C 136.66 155.50 137.44 156.11 138.29 156.02 Z M 139.24 155.92 L 140.21 155.84 C 141.07 155.76 141.71 155.01 141.64 154.15 C 141.57 153.29 140.81 152.65 139.95 152.72 L 138.98 152.80 C 138.12 152.87 137.48 153.63 137.55 154.49 C 137.63 155.35 138.38 155.99 139.24 155.92 Z M 140.18 155.84 L 141.13 155.78 C 142.00 155.73 142.65 154.99 142.60 154.13 C 142.55 153.26 141.81 152.61 140.94 152.66 L 139.99 152.72 C 139.13 152.77 138.47 153.51 138.52 154.37 C 138.57 155.23 139.32 155.89 140.18 155.84 Z M 141.10 155.78 L 142.09 155.74 C 142.95 155.70 143.62 154.98 143.58 154.11 C 143.55 153.25 142.82 152.58 141.96 152.62 L 140.97 152.66 C 140.11 152.69 139.44 153.42 139.48 154.29 C 139.51 155.15 140.24 155.82 141.10 155.78 Z M 142.07 155.74 L 143.09 155.71 C 143.95 155.69 144.63 154.97 144.61 154.11 C 144.59 153.25 143.87 152.56 143.00 152.59 L 141.98 152.62 C 141.12 152.64 140.44 153.36 140.46 154.22 C 140.48 155.08 141.20 155.76 142.07 155.74 Z M 143.07 155.71 L 144.13 155.70 C 144.99 155.68 145.68 154.97 145.66 154.11 C 145.65 153.24 144.94 152.56 144.08 152.57 L 143.02 152.59 C 142.16 152.60 141.47 153.31 141.48 154.18 C 141.50 155.04 142.21 155.73 143.07 155.71 Z M 144.11 155.70 L 145.12 155.69 C 145.99 155.68 146.68 154.98 146.68 154.11 C 146.67 153.25 145.96 152.55 145.10 152.56 L 144.09 152.57 C 143.23 152.58 142.53 153.28 142.54 154.15 C 142.54 155.01 143.25 155.70 144.11 155.70 Z M 145.10 155.69 L 146.13 155.70 C 147.00 155.70 147.70 155.00 147.70 154.14 C 147.71 153.27 147.01 152.57 146.15 152.56 L 145.12 152.56 C 144.25 152.56 143.55 153.25 143.55 154.12 C 143.54 154.98 144.24 155.69 145.10 155.69 Z M 146.10 155.70 L 147.12 155.72 C 147.99 155.74 148.70 155.06 148.72 154.19 C 148.74 153.33 148.06 152.61 147.19 152.59 L 146.18 152.56 C 145.31 152.54 144.59 153.23 144.57 154.09 C 144.55 154.96 145.24 155.68 146.10 155.70 Z M 147.08 155.72 L 148.06 155.77 C 148.93 155.81 149.66 155.15 149.71 154.28 C 149.75 153.42 149.08 152.68 148.22 152.64 L 147.24 152.59 C 146.37 152.54 145.63 153.21 145.59 154.08 C 145.55 154.94 146.21 155.68 147.08 155.72 Z M 148.00 155.77 L 149.04 155.86 C 149.91 155.94 150.67 155.30 150.75 154.44 C 150.83 153.57 150.19 152.81 149.32 152.73 L 148.28 152.64 C 147.42 152.56 146.65 153.19 146.57 154.06 C 146.49 154.93 147.13 155.69 148.00 155.77 Z M 148.92 155.86 L 150.01 156.05 C 150.87 156.19 151.69 155.61 151.84 154.74 C 151.98 153.88 151.40 153.06 150.54 152.92 L 149.45 152.73 C 148.58 152.59 147.76 153.17 147.62 154.03 C 147.47 154.90 148.05 155.72 148.92 155.86 Z M 149.79 156.01 L 150.71 156.30 C 151.55 156.57 152.46 156.11 152.73 155.26 C 152.99 154.41 152.53 153.51 151.68 153.24 L 150.76 152.95 C 149.91 152.68 149.01 153.15 148.74 153.99 C 148.47 154.84 148.94 155.74 149.79 156.01 Z M 150.37 156.17 L 151.11 156.61 C 151.89 157.06 152.88 156.80 153.34 156.03 C 153.79 155.26 153.53 154.26 152.76 153.81 L 152.02 153.37 C 151.25 152.92 150.25 153.18 149.80 153.95 C 149.34 154.72 149.60 155.72 150.37 156.17 Z M 150.67 156.26 L 151.31 157.03 C 151.89 157.73 152.93 157.82 153.63 157.25 C 154.32 156.67 154.42 155.63 153.84 154.93 L 153.20 154.16 C 152.62 153.46 151.58 153.37 150.89 153.94 C 150.19 154.52 150.09 155.56 150.67 156.26 Z M 150.97 156.41 L 151.22 157.35 C 151.46 158.24 152.37 158.77 153.26 158.53 C 154.14 158.30 154.67 157.39 154.44 156.50 L 154.18 155.55 C 153.95 154.67 153.04 154.14 152.15 154.38 C 151.26 154.61 150.73 155.52 150.97 156.41 Z M 151.21 156.49 L 150.97 157.38 C 150.73 158.28 151.26 159.20 152.15 159.44 C 153.05 159.68 153.97 159.15 154.21 158.25 L 154.45 157.36 C 154.69 156.47 154.16 155.54 153.26 155.30 C 152.37 155.06 151.45 155.59 151.21 156.49 Z M 151.34 156.68 L 150.79 157.28 C 150.16 157.98 150.21 159.04 150.90 159.67 C 151.60 160.30 152.66 160.25 153.29 159.56 L 153.84 158.95 C 154.47 158.26 154.42 157.20 153.73 156.57 C 153.04 155.94 151.97 155.99 151.34 156.68 Z M 151.12 157.00 L 150.31 157.53 C 149.52 158.04 149.30 159.09 149.81 159.87 C 150.32 160.66 151.37 160.88 152.15 160.37 L 152.96 159.84 C 153.75 159.33 153.97 158.28 153.46 157.50 C 152.95 156.72 151.90 156.50 151.12 157.00 Z M 150.50 157.42 L 149.48 157.91 C 148.64 158.31 148.28 159.31 148.68 160.16 C 149.08 161.00 150.09 161.36 150.93 160.96 L 151.95 160.48 C 152.79 160.08 153.15 159.07 152.76 158.23 C 152.36 157.38 151.35 157.02 150.50 157.42 Z M 149.58 157.86 L 148.59 158.26 C 147.73 158.60 147.30 159.59 147.65 160.45 C 148.00 161.32 148.98 161.75 149.85 161.40 L 150.84 161.00 C 151.70 160.66 152.13 159.67 151.78 158.81 C 151.43 157.94 150.45 157.52 149.58 157.86 Z M 148.64 158.24 L 147.74 158.57 C 146.86 158.89 146.41 159.86 146.73 160.73 C 147.05 161.61 148.02 162.07 148.90 161.75 L 149.80 161.42 C 150.68 161.10 151.13 160.13 150.81 159.25 C 150.49 158.37 149.52 157.92 148.64 158.24 Z M 147.78 158.55 L 146.83 158.87 C 145.95 159.17 145.47 160.13 145.77 161.01 C 146.07 161.90 147.03 162.38 147.91 162.08 L 148.86 161.76 C 149.74 161.46 150.22 160.50 149.92 159.62 C 149.62 158.73 148.67 158.25 147.78 158.55 Z M 146.87 158.86 L 145.89 159.16 C 145.00 159.44 144.50 160.39 144.78 161.28 C 145.06 162.17 146.00 162.67 146.90 162.39 L 147.87 162.09 C 148.77 161.81 149.27 160.86 148.99 159.97 C 148.71 159.08 147.76 158.58 146.87 158.86 Z M 145.93 159.15 L 144.93 159.44 C 144.03 159.70 143.51 160.63 143.77 161.53 C 144.03 162.43 144.96 162.95 145.86 162.69 L 146.86 162.40 C 147.76 162.15 148.28 161.21 148.02 160.31 C 147.76 159.41 146.83 158.89 145.93 159.15 Z M 144.96 159.43 L 143.96 159.70 C 143.05 159.93 142.52 160.86 142.75 161.76 C 142.99 162.67 143.92 163.20 144.82 162.97 L 145.83 162.70 C 146.73 162.46 147.27 161.54 147.03 160.63 C 146.79 159.73 145.87 159.19 144.96 159.43 Z M 143.99 159.69 L 142.99 159.93 C 142.08 160.15 141.52 161.06 141.74 161.97 C 141.96 162.88 142.88 163.44 143.78 163.22 L 144.79 162.97 C 145.69 162.75 146.25 161.84 146.03 160.93 C 145.81 160.03 144.90 159.47 143.99 159.69 Z M 143.02 159.92 L 142.03 160.14 C 141.12 160.34 140.54 161.25 140.74 162.16 C 140.94 163.07 141.85 163.64 142.76 163.44 L 143.75 163.22 C 144.66 163.02 145.24 162.12 145.03 161.21 C 144.83 160.30 143.93 159.72 143.02 159.92 Z M 142.06 160.14 L 141.09 160.33 C 140.17 160.52 139.58 161.41 139.77 162.32 C 139.95 163.23 140.84 163.83 141.75 163.64 L 142.72 163.45 C 143.64 163.26 144.23 162.38 144.05 161.46 C 143.86 160.55 142.98 159.96 142.06 160.14 Z M 141.12 160.33 L 140.18 160.50 C 139.26 160.66 138.65 161.54 138.82 162.45 C 138.98 163.37 139.86 163.98 140.78 163.82 L 141.72 163.65 C 142.63 163.48 143.24 162.61 143.08 161.69 C 142.91 160.77 142.04 160.16 141.12 160.33 Z M 140.22 160.50 L 139.20 160.65 C 138.29 160.80 137.66 161.66 137.80 162.57 C 137.95 163.49 138.81 164.12 139.72 163.98 L 140.74 163.82 C 141.65 163.67 142.28 162.81 142.14 161.90 C 142.00 160.98 141.14 160.35 140.22 160.50 Z M 139.26 160.66 L 138.24 160.78 C 137.32 160.89 136.67 161.73 136.79 162.65 C 136.90 163.56 137.73 164.21 138.65 164.10 L 139.67 163.97 C 140.58 163.86 141.24 163.03 141.12 162.11 C 141.01 161.19 140.17 160.54 139.26 160.66 Z M 138.31 160.79 L 137.33 160.86 C 136.42 160.94 135.73 161.74 135.81 162.65 C 135.88 163.56 136.68 164.25 137.59 164.17 L 138.58 164.10 C 139.49 164.02 140.17 163.22 140.10 162.31 C 140.03 161.39 139.23 160.71 138.31 160.79 Z M 137.42 160.87 L 136.46 160.90 C 135.55 160.92 134.83 161.68 134.85 162.59 C 134.88 163.50 135.64 164.22 136.55 164.19 L 137.51 164.17 C 138.42 164.14 139.13 163.39 139.11 162.48 C 139.09 161.57 138.33 160.85 137.42 160.87 Z M 136.56 160.91 L 135.55 160.87 C 134.64 160.84 133.89 161.54 133.85 162.44 C 133.82 163.34 134.52 164.10 135.42 164.14 L 136.44 164.18 C 137.34 164.21 138.10 163.51 138.13 162.61 C 138.17 161.71 137.47 160.95 136.56 160.91 Z M 135.73 160.91 L 134.70 160.75 C 133.82 160.62 132.99 161.22 132.86 162.10 C 132.72 162.98 133.33 163.80 134.20 163.94 L 135.24 164.10 C 136.12 164.23 136.94 163.63 137.07 162.75 C 137.21 161.87 136.61 161.05 135.73 160.91 Z M 135.04 160.88 L 134.14 160.52 C 133.33 160.19 132.41 160.59 132.09 161.40 C 131.76 162.21 132.16 163.14 132.97 163.46 L 133.86 163.82 C 134.68 164.14 135.60 163.74 135.92 162.93 C 136.24 162.12 135.85 161.20 135.04 160.88 Z M 134.63 160.86 L 133.96 160.23 C 133.34 159.64 132.36 159.66 131.76 160.28 C 131.17 160.91 131.20 161.89 131.82 162.48 L 132.48 163.12 C 133.10 163.71 134.09 163.68 134.68 163.06 C 135.27 162.44 135.25 161.45 134.63 160.86 Z M 134.30 160.77 L 133.99 160.02 C 133.67 159.24 132.77 158.88 131.99 159.20 C 131.21 159.53 130.84 160.42 131.17 161.21 L 131.48 161.95 C 131.81 162.73 132.70 163.10 133.48 162.77 C 134.26 162.44 134.63 161.55 134.30 160.77 Z M 134.07 160.39 L 133.94 159.50 C 133.82 158.68 133.05 158.11 132.22 158.24 C 131.40 158.36 130.83 159.13 130.96 159.95 L 131.09 160.84 C 131.21 161.66 131.98 162.23 132.81 162.11 C 133.63 161.98 134.20 161.21 134.07 160.39 Z M 133.93 159.71 L 133.92 158.69 C 133.91 157.87 133.23 157.21 132.41 157.22 C 131.59 157.24 130.93 157.91 130.95 158.73 L 130.96 159.75 C 130.97 160.57 131.65 161.23 132.47 161.21 C 133.29 161.20 133.95 160.53 133.93 159.71 Z M 133.90 158.80 L 133.96 157.69 C 134.01 156.89 133.39 156.19 132.58 156.15 C 131.78 156.10 131.08 156.71 131.04 157.52 L 130.97 158.62 C 130.92 159.43 131.54 160.13 132.35 160.17 C 133.15 160.22 133.85 159.60 133.90 158.80 Z M 133.93 157.74 L 134.04 156.62 C 134.11 155.83 133.52 155.13 132.73 155.06 C 131.93 154.99 131.23 155.57 131.16 156.37 L 131.06 157.48 C 130.99 158.27 131.57 158.97 132.37 159.05 C 133.16 159.12 133.86 158.53 133.93 157.74 Z"
      fill="black"
      fill-rule="nonzero" /></svg>