<svg xmlns="http://www.w3.org/2000/svg" width="300" height="300" viewBox="0 0 300 300">
<path d="M 150.14 115.88 L 149.95 114.79 C 149.80 113.94 149.00 113.38 148.15 113.52 C 147.31 113.67 146.74 114.47 146.89 115.32 L 147.07 116.41 C 147.22 117.26 148.02 117.82 148.87 117.68 C 149.71 117.53 150.28 116.73 150.14 115.88 Z M 149.96 114.99 L 149.91 113.98 C 149.88 113.13 149.16 112.47 148.31 112.51 C 147.46 112.54 146.80 113.26 146.83 114.11 L 146.88 115.12 C 146.91 115.97 147.63 116.63 148.48 116.59 C 149.33 116.56 149.99 115.84 149.96 114.99 Z M 149.84 114.49 L 150.09 113.66 C 150.33 112.85 149.88 112.00 149.07 111.75 C 148.26 111.51 147.40 111.97 147.16 112.78 L 146.91 113.60 C 146.66 114.41 147.12 115.27 147.93 115.51 C 148.74 115.76 149.60 115.30 149.84 114.49 Z M 149.65 114.34 L 150.25 113.80 C 150.87 113.23 150.92 112.26 150.35 111.64 C 149.78 111.02 148.81 110.98 148.19 111.55 L 147.59 112.09 C 146.97 112.66 146.93 113.63 147.50 114.25 C 148.07 114.87 149.03 114.91 149.65 114.34 Z M 149.77 114.10 L 150.66 113.76 C 151.44 113.45 151.84 112.57 151.54 111.79 C 151.24 111.00 150.35 110.61 149.57 110.91 L 148.68 111.25 C 147.89 111.55 147.50 112.43 147.80 113.22 C 148.10 114.00 148.98 114.40 149.77 114.10 Z M 150.36 113.84 L 151.45 113.66 C 152.28 113.52 152.85 112.73 152.71 111.90 C 152.57 111.07 151.79 110.51 150.96 110.65 L 149.86 110.83 C 149.03 110.96 148.47 111.75 148.61 112.58 C 148.74 113.41 149.53 113.97 150.36 113.84 Z M 151.28 113.68 L 152.35 113.62 C 153.19 113.58 153.84 112.86 153.80 112.02 C 153.76 111.18 153.04 110.53 152.20 110.57 L 151.13 110.63 C 150.28 110.67 149.64 111.39 149.68 112.23 C 149.72 113.07 150.44 113.72 151.28 113.68 Z M 152.23 113.62 L 153.22 113.66 C 154.06 113.68 154.77 113.02 154.79 112.17 C 154.82 111.33 154.16 110.62 153.31 110.60 L 152.32 110.57 C 151.48 110.54 150.77 111.20 150.75 112.05 C 150.72 112.89 151.38 113.60 152.23 113.62 Z M 153.08 113.65 L 154.08 113.77 C 154.92 113.87 155.68 113.27 155.78 112.43 C 155.88 111.59 155.29 110.83 154.44 110.72 L 153.45 110.60 C 152.61 110.50 151.84 111.10 151.74 111.94 C 151.64 112.78 152.24 113.55 153.08 113.65 Z M 153.92 113.75 L 154.90 113.97 C 155.73 114.16 156.56 113.64 156.74 112.81 C 156.93 111.99 156.41 111.16 155.59 110.97 L 154.60 110.75 C 153.77 110.56 152.95 111.08 152.76 111.91 C 152.57 112.73 153.09 113.56 153.92 113.75 Z M 154.72 113.92 L 155.67 114.26 C 156.47 114.55 157.36 114.13 157.64 113.33 C 157.93 112.53 157.51 111.65 156.71 111.36 L 155.77 111.02 C 154.97 110.73 154.08 111.15 153.79 111.95 C 153.51 112.75 153.92 113.63 154.72 113.92 Z M 155.48 114.19 L 156.37 114.65 C 157.13 115.04 158.06 114.74 158.46 113.98 C 158.85 113.21 158.55 112.28 157.79 111.89 L 156.90 111.43 C 156.14 111.04 155.21 111.34 154.81 112.10 C 154.42 112.86 154.72 113.80 155.48 114.19 Z M 156.19 114.55 L 157.01 115.12 C 157.72 115.61 158.69 115.43 159.18 114.72 C 159.67 114.01 159.50 113.04 158.79 112.55 L 157.96 111.98 C 157.25 111.49 156.28 111.67 155.79 112.38 C 155.30 113.09 155.48 114.06 156.19 114.55 Z M 156.85 115.00 L 157.59 115.67 C 158.23 116.25 159.23 116.20 159.81 115.56 C 160.39 114.91 160.34 113.92 159.70 113.34 L 158.95 112.67 C 158.31 112.09 157.31 112.14 156.73 112.78 C 156.15 113.43 156.20 114.42 156.85 115.00 Z M 157.44 115.53 L 158.08 116.29 C 158.65 116.96 159.65 117.04 160.31 116.47 C 160.98 115.91 161.06 114.91 160.50 114.25 L 159.85 113.48 C 159.28 112.82 158.29 112.73 157.62 113.30 C 156.95 113.86 156.87 114.86 157.44 115.53 Z M 157.95 116.13 L 158.48 116.95 C 158.95 117.69 159.94 117.91 160.68 117.43 C 161.42 116.96 161.63 115.97 161.16 115.23 L 160.63 114.41 C 160.16 113.67 159.17 113.45 158.43 113.93 C 157.69 114.40 157.48 115.39 157.95 116.13 Z M 158.37 116.78 L 158.80 117.68 C 159.18 118.48 160.14 118.81 160.94 118.43 C 161.74 118.05 162.08 117.09 161.69 116.29 L 161.27 115.40 C 160.88 114.60 159.92 114.26 159.13 114.64 C 158.33 115.03 157.99 115.99 158.37 116.78 Z M 158.72 117.51 L 159.05 118.46 C 159.34 119.30 160.26 119.75 161.10 119.46 C 161.95 119.17 162.39 118.25 162.10 117.40 L 161.77 116.45 C 161.48 115.61 160.56 115.16 159.72 115.46 C 158.87 115.75 158.43 116.67 158.72 117.51 Z M 158.99 118.30 L 159.22 119.29 C 159.42 120.17 160.30 120.71 161.18 120.51 C 162.05 120.30 162.60 119.43 162.39 118.55 L 162.16 117.56 C 161.96 116.69 161.08 116.14 160.20 116.35 C 159.33 116.55 158.78 117.43 158.99 118.30 Z M 159.18 119.14 L 159.32 120.17 C 159.44 121.06 160.26 121.69 161.16 121.58 C 162.06 121.46 162.69 120.63 162.57 119.73 L 162.43 118.71 C 162.31 117.81 161.49 117.18 160.59 117.30 C 159.69 117.42 159.06 118.24 159.18 119.14 Z M 159.29 120.01 L 159.34 121.05 C 159.37 121.96 160.14 122.67 161.05 122.63 C 161.96 122.60 162.67 121.83 162.63 120.92 L 162.59 119.88 C 162.55 118.97 161.79 118.27 160.88 118.30 C 159.97 118.34 159.26 119.10 159.29 120.01 Z M 159.33 120.90 L 159.27 121.92 C 159.23 122.83 159.93 123.61 160.84 123.66 C 161.76 123.71 162.54 123.00 162.59 122.09 L 162.64 121.07 C 162.69 120.16 161.98 119.38 161.07 119.33 C 160.15 119.28 159.37 119.99 159.33 120.90 Z M 159.28 121.75 L 159.14 122.72 C 159.00 123.63 159.63 124.48 160.54 124.61 C 161.45 124.75 162.30 124.12 162.44 123.21 L 162.58 122.25 C 162.72 121.34 162.09 120.49 161.18 120.35 C 160.27 120.21 159.42 120.84 159.28 121.75 Z M 159.17 122.53 L 158.91 123.46 C 158.67 124.36 159.20 125.28 160.09 125.52 C 160.99 125.76 161.91 125.23 162.15 124.34 L 162.40 123.40 C 162.65 122.51 162.12 121.59 161.22 121.35 C 160.33 121.10 159.41 121.63 159.17 122.53 Z M 158.99 123.23 L 158.57 124.19 C 158.20 125.04 158.59 126.03 159.45 126.40 C 160.30 126.77 161.29 126.38 161.66 125.53 L 162.08 124.57 C 162.45 123.72 162.05 122.72 161.20 122.36 C 160.35 121.99 159.36 122.38 158.99 123.23 Z M 158.68 123.98 L 158.16 124.82 C 157.67 125.61 157.92 126.65 158.72 127.14 C 159.52 127.63 160.56 127.38 161.04 126.58 L 161.56 125.74 C 162.05 124.95 161.80 123.90 161.00 123.42 C 160.20 122.93 159.16 123.18 158.68 123.98 Z M 158.26 124.66 L 157.68 125.42 C 157.10 126.16 157.24 127.22 157.98 127.80 C 158.72 128.37 159.79 128.23 160.36 127.49 L 160.94 126.74 C 161.52 125.99 161.38 124.93 160.64 124.36 C 159.90 123.78 158.83 123.92 158.26 124.66 Z M 157.75 125.32 L 157.11 126.04 C 156.48 126.74 156.54 127.81 157.24 128.44 C 157.94 129.07 159.01 129.01 159.64 128.31 L 160.28 127.59 C 160.91 126.89 160.85 125.81 160.15 125.19 C 159.45 124.56 158.38 124.62 157.75 125.32 Z M 157.20 125.94 L 156.49 126.62 C 155.81 127.26 155.78 128.34 156.43 129.02 C 157.08 129.70 158.15 129.73 158.83 129.08 L 159.54 128.41 C 160.23 127.76 160.25 126.68 159.61 126.00 C 158.96 125.32 157.88 125.29 157.20 125.94 Z M 156.62 126.50 L 155.83 127.11 C 155.08 127.68 154.94 128.75 155.51 129.50 C 156.09 130.24 157.16 130.39 157.90 129.81 L 158.70 129.20 C 159.45 128.63 159.59 127.56 159.01 126.81 C 158.44 126.07 157.37 125.92 156.62 126.50 Z M 156.00 126.99 L 155.12 127.51 C 154.31 127.99 154.04 129.04 154.52 129.85 C 155.00 130.66 156.05 130.92 156.86 130.45 L 157.73 129.93 C 158.54 129.45 158.81 128.40 158.33 127.59 C 157.85 126.78 156.81 126.51 156.00 126.99 Z M 155.29 127.43 L 154.39 127.83 C 153.53 128.22 153.15 129.23 153.54 130.09 C 153.93 130.95 154.94 131.33 155.80 130.94 L 156.70 130.53 C 157.55 130.14 157.93 129.13 157.54 128.27 C 157.16 127.42 156.14 127.04 155.29 127.43 Z M 154.53 127.78 L 153.57 128.11 C 152.68 128.42 152.22 129.40 152.53 130.29 C 152.84 131.17 153.81 131.64 154.70 131.33 L 155.66 130.99 C 156.55 130.68 157.02 129.71 156.70 128.82 C 156.39 127.93 155.42 127.46 154.53 127.78 Z M 153.70 128.07 L 152.72 128.33 C 151.81 128.57 151.27 129.50 151.51 130.41 C 151.74 131.32 152.68 131.87 153.59 131.63 L 154.57 131.37 C 155.48 131.13 156.03 130.20 155.79 129.29 C 155.55 128.38 154.62 127.83 153.70 128.07 Z M 152.86 128.30 L 151.84 128.48 C 150.91 128.64 150.29 129.52 150.45 130.45 C 150.61 131.38 151.50 132.00 152.42 131.83 L 153.45 131.66 C 154.37 131.49 154.99 130.61 154.83 129.69 C 154.67 128.76 153.79 128.14 152.86 128.30 Z M 152.04 128.46 L 151.00 128.52 C 150.06 128.57 149.35 129.37 149.40 130.31 C 149.45 131.24 150.25 131.96 151.18 131.91 L 152.22 131.85 C 153.16 131.80 153.87 131.00 153.82 130.06 C 153.77 129.13 152.97 128.41 152.04 128.46 Z M 151.31 128.54 L 150.35 128.42 C 149.42 128.29 148.58 128.95 148.45 129.87 C 148.33 130.79 148.98 131.64 149.91 131.76 L 150.87 131.89 C 151.79 132.01 152.64 131.36 152.76 130.43 C 152.88 129.51 152.23 128.66 151.31 128.54 Z M 150.78 128.54 L 149.92 128.18 C 149.06 127.82 148.08 128.22 147.72 129.08 C 147.36 129.93 147.76 130.92 148.62 131.27 L 149.48 131.64 C 150.33 131.99 151.31 131.59 151.67 130.74 C 152.03 129.88 151.63 128.90 150.78 128.54 Z M 150.34 128.46 L 149.63 127.86 C 148.93 127.27 147.88 127.36 147.29 128.06 C 146.70 128.76 146.79 129.80 147.49 130.40 L 148.19 131.00 C 148.89 131.59 149.94 131.50 150.53 130.80 C 151.13 130.10 151.04 129.05 150.34 128.46 Z M 149.88 128.16 L 149.29 127.37 C 148.76 126.64 147.74 126.48 147.01 127.01 C 146.28 127.54 146.12 128.57 146.65 129.29 L 147.24 130.09 C 147.77 130.82 148.79 130.98 149.52 130.45 C 150.25 129.91 150.41 128.89 149.88 128.16 Z M 149.42 127.62 L 148.96 126.69 C 148.57 125.89 147.61 125.56 146.81 125.95 C 146.01 126.34 145.68 127.31 146.07 128.10 L 146.53 129.04 C 146.92 129.83 147.88 130.16 148.68 129.77 C 149.48 129.38 149.81 128.42 149.42 127.62 Z M 149.02 126.91 L 148.70 125.93 C 148.43 125.10 147.54 124.65 146.71 124.92 C 145.88 125.19 145.43 126.08 145.70 126.91 L 146.02 127.89 C 146.29 128.72 147.18 129.17 148.01 128.90 C 148.84 128.63 149.29 127.74 149.02 126.91 Z M 148.72 126.11 L 148.52 125.15 C 148.35 124.31 147.53 123.77 146.69 123.94 C 145.85 124.12 145.31 124.94 145.48 125.77 L 145.68 126.73 C 145.85 127.57 146.67 128.11 147.51 127.94 C 148.35 127.77 148.89 126.95 148.72 126.11 Z M 148.51 125.29 L 148.39 124.30 C 148.30 123.47 147.54 122.87 146.71 122.97 C 145.88 123.06 145.28 123.82 145.38 124.65 L 145.49 125.64 C 145.59 126.47 146.34 127.06 147.18 126.97 C 148.01 126.87 148.60 126.12 148.51 125.29 Z M 148.37 124.39 L 148.31 123.38 C 148.27 122.56 147.57 121.93 146.75 121.98 C 145.93 122.02 145.30 122.72 145.35 123.54 L 145.40 124.55 C 145.45 125.37 146.15 126.00 146.97 125.96 C 147.79 125.91 148.41 125.21 148.37 124.39 Z M 148.29 123.44 L 148.27 122.43 C 148.26 121.63 147.59 120.99 146.79 121.00 C 145.98 121.01 145.34 121.68 145.36 122.48 L 145.37 123.49 C 145.39 124.29 146.05 124.93 146.86 124.92 C 147.66 124.91 148.30 124.24 148.29 123.44 Z M 148.26 122.46 L 148.26 121.48 C 148.27 120.68 147.62 120.03 146.82 120.02 C 146.03 120.02 145.38 120.66 145.37 121.46 L 145.37 122.45 C 145.36 123.25 146.01 123.90 146.81 123.90 C 147.61 123.91 148.26 123.26 148.26 122.46 Z M 148.26 121.50 L 148.28 120.49 C 148.29 119.70 147.66 119.04 146.86 119.03 C 146.07 119.01 145.41 119.65 145.40 120.44 L 145.38 121.44 C 145.36 122.24 146.00 122.89 146.79 122.91 C 147.59 122.92 148.24 122.29 148.26 121.50 Z M 148.27 120.51 L 148.30 119.49 C 148.32 118.70 147.70 118.04 146.90 118.02 C 146.11 118.00 145.45 118.62 145.43 119.42 L 145.40 120.43 C 145.38 121.22 146.01 121.88 146.80 121.90 C 147.59 121.92 148.25 121.30 148.27 120.51 Z M 148.29 119.50 L 148.31 118.84 C 148.34 118.05 147.72 117.39 146.93 117.36 C 146.14 117.34 145.48 117.96 145.46 118.75 L 145.44 119.41 C 145.41 120.20 146.03 120.86 146.82 120.88 C 147.61 120.91 148.27 120.29 148.29 119.50 Z"
      fill="black"
      fill-rule="nonzero" /></svg>