<svg xmlns="http://www.w3.org/2000/svg" width="300" height="300" viewBox="0 0 300 300">
<path d="M 141.04 140.79 L 141.81 140.22 C 142.49 139.73 142.64 138.78 142.14 138.10 C 141.65 137.42 140.70 137.27 140.02 137.77 L 139.24 138.33 C 138.56 138.83 138.42 139.78 138.91 140.46 C 139.41 141.14 140.36 141.28 141.04 140.79 Z M 141.72 140.29 L 142.55 139.77 C 143.26 139.33 143.48 138.39 143.03 137.68 C 142.59 136.96 141.65 136.74 140.94 137.19 L 140.11 137.70 C 139.40 138.15 139.18 139.08 139.62 139.80 C 140.07 140.51 141.01 140.73 141.72 140.29 Z M 142.36 139.87 L 143.29 139.46 C 144.06 139.12 144.41 138.22 144.07 137.45 C 143.73 136.68 142.83 136.34 142.06 136.68 L 141.13 137.09 C 140.36 137.43 140.01 138.33 140.35 139.09 C 140.69 139.86 141.59 140.21 142.36 139.87 Z M 143.04 139.54 L 144.01 139.30 C 144.83 139.10 145.32 138.27 145.12 137.46 C 144.92 136.64 144.09 136.15 143.28 136.35 L 142.31 136.59 C 141.49 136.79 141.00 137.62 141.20 138.43 C 141.40 139.25 142.23 139.75 143.04 139.54 Z M 143.80 139.34 L 144.78 139.24 C 145.62 139.15 146.22 138.40 146.14 137.57 C 146.05 136.73 145.30 136.13 144.47 136.21 L 143.49 136.31 C 142.65 136.40 142.04 137.15 142.13 137.98 C 142.22 138.82 142.96 139.42 143.80 139.34 Z M 144.62 139.24 L 145.65 139.24 C 146.49 139.24 147.17 138.56 147.17 137.72 C 147.17 136.88 146.49 136.20 145.65 136.20 L 144.62 136.20 C 143.78 136.21 143.10 136.89 143.10 137.73 C 143.10 138.56 143.79 139.24 144.62 139.24 Z M 145.52 139.24 L 146.54 139.32 C 147.38 139.40 148.11 138.78 148.18 137.94 C 148.26 137.10 147.64 136.37 146.80 136.30 L 145.78 136.21 C 144.94 136.14 144.21 136.76 144.14 137.59 C 144.06 138.43 144.68 139.17 145.52 139.24 Z M 146.42 139.31 L 147.43 139.48 C 148.26 139.62 149.04 139.06 149.18 138.24 C 149.32 137.41 148.77 136.63 147.94 136.49 L 146.93 136.31 C 146.10 136.17 145.31 136.73 145.17 137.56 C 145.03 138.38 145.59 139.17 146.42 139.31 Z M 147.30 139.45 L 148.30 139.72 C 149.11 139.94 149.95 139.45 150.16 138.64 C 150.38 137.83 149.90 137.00 149.08 136.78 L 148.08 136.51 C 147.27 136.30 146.43 136.78 146.22 137.59 C 146.00 138.40 146.48 139.24 147.30 139.45 Z M 148.16 139.68 L 149.09 140.02 C 149.88 140.32 150.75 139.91 151.05 139.13 C 151.34 138.34 150.94 137.46 150.15 137.17 L 149.22 136.82 C 148.44 136.53 147.56 136.93 147.27 137.72 C 146.97 138.51 147.37 139.39 148.16 139.68 Z M 148.96 139.97 L 149.82 140.38 C 150.58 140.75 151.49 140.43 151.86 139.67 C 152.22 138.91 151.90 138.00 151.14 137.63 L 150.28 137.22 C 149.52 136.86 148.61 137.18 148.24 137.94 C 147.88 138.70 148.20 139.61 148.96 139.97 Z M 149.71 140.33 L 150.57 140.83 C 151.30 141.26 152.23 141.01 152.66 140.28 C 153.08 139.55 152.84 138.61 152.11 138.18 L 151.25 137.69 C 150.52 137.26 149.58 137.51 149.16 138.24 C 148.73 138.97 148.98 139.91 149.71 140.33 Z M 150.46 140.77 L 151.28 141.35 C 151.98 141.83 152.94 141.66 153.43 140.96 C 153.91 140.26 153.74 139.30 153.04 138.82 L 152.22 138.24 C 151.52 137.76 150.56 137.93 150.07 138.63 C 149.59 139.32 149.76 140.28 150.46 140.77 Z M 151.17 141.27 L 151.94 141.91 C 152.59 142.46 153.57 142.37 154.12 141.71 C 154.67 141.05 154.58 140.08 153.92 139.53 L 153.15 138.89 C 152.50 138.34 151.52 138.43 150.97 139.09 C 150.42 139.75 150.51 140.73 151.17 141.27 Z M 151.82 141.82 L 152.52 142.52 C 153.13 143.13 154.12 143.13 154.73 142.52 C 155.34 141.91 155.34 140.93 154.73 140.32 L 154.03 139.62 C 153.42 139.01 152.43 139.00 151.82 139.61 C 151.21 140.22 151.21 141.21 151.82 141.82 Z M 152.41 142.42 L 153.04 143.19 C 153.59 143.86 154.58 143.96 155.25 143.41 C 155.93 142.86 156.03 141.87 155.48 141.19 L 154.84 140.42 C 154.29 139.75 153.30 139.65 152.63 140.20 C 151.96 140.75 151.86 141.74 152.41 142.42 Z M 152.93 143.07 L 153.48 143.90 C 153.96 144.63 154.95 144.83 155.68 144.35 C 156.41 143.86 156.62 142.88 156.13 142.14 L 155.58 141.31 C 155.10 140.58 154.11 140.38 153.38 140.86 C 152.65 141.35 152.45 142.33 152.93 143.07 Z M 153.38 143.77 L 153.85 144.66 C 154.26 145.44 155.23 145.74 156.02 145.33 C 156.80 144.92 157.11 143.95 156.69 143.16 L 156.23 142.27 C 155.82 141.49 154.84 141.19 154.06 141.60 C 153.27 142.01 152.97 142.98 153.38 143.77 Z M 153.77 144.52 L 154.15 145.44 C 154.49 146.27 155.43 146.67 156.26 146.33 C 157.09 145.99 157.48 145.05 157.15 144.22 L 156.77 143.30 C 156.43 142.47 155.49 142.07 154.66 142.41 C 153.83 142.75 153.44 143.69 153.77 144.52 Z M 154.09 145.31 L 154.39 146.27 C 154.65 147.13 155.56 147.61 156.42 147.34 C 157.28 147.08 157.77 146.16 157.50 145.30 L 157.20 144.35 C 156.94 143.49 156.03 143.01 155.16 143.27 C 154.30 143.54 153.82 144.45 154.09 145.31 Z M 154.34 146.14 L 154.56 147.12 C 154.76 148.01 155.63 148.57 156.52 148.37 C 157.40 148.17 157.96 147.29 157.76 146.41 L 157.54 145.43 C 157.35 144.54 156.47 143.99 155.59 144.18 C 154.70 144.38 154.14 145.26 154.34 146.14 Z M 154.53 147.00 L 154.67 147.99 C 154.80 148.89 155.63 149.52 156.54 149.39 C 157.44 149.26 158.07 148.42 157.94 147.52 L 157.80 146.53 C 157.67 145.63 156.83 145.00 155.93 145.13 C 155.02 145.26 154.40 146.10 154.53 147.00 Z M 154.64 147.84 L 154.70 148.82 C 154.74 149.74 155.53 150.44 156.44 150.39 C 157.36 150.34 158.06 149.56 158.01 148.64 L 157.96 147.66 C 157.91 146.75 157.13 146.04 156.21 146.09 C 155.30 146.14 154.59 146.93 154.64 147.84 Z M 154.69 148.63 L 154.63 149.62 C 154.57 150.54 155.27 151.33 156.19 151.39 C 157.11 151.44 157.90 150.74 157.96 149.82 L 158.02 148.83 C 158.08 147.91 157.38 147.12 156.46 147.07 C 155.54 147.01 154.74 147.71 154.69 148.63 Z M 154.65 149.39 L 154.45 150.40 C 154.27 151.31 154.86 152.19 155.76 152.37 C 156.67 152.55 157.56 151.96 157.74 151.05 L 157.94 150.05 C 158.12 149.14 157.53 148.26 156.62 148.08 C 155.71 147.89 154.83 148.48 154.65 149.39 Z M 154.50 150.17 L 154.20 151.05 C 153.89 151.93 154.36 152.89 155.24 153.20 C 156.12 153.50 157.08 153.03 157.38 152.16 L 157.69 151.28 C 157.99 150.40 157.52 149.44 156.64 149.13 C 155.76 148.83 154.81 149.30 154.50 150.17 Z M 154.27 150.87 L 153.85 151.74 C 153.45 152.58 153.80 153.59 154.64 153.99 C 155.48 154.40 156.49 154.04 156.90 153.20 L 157.31 152.34 C 157.72 151.50 157.36 150.49 156.52 150.08 C 155.68 149.68 154.67 150.03 154.27 150.87 Z M 153.93 151.59 L 153.40 152.45 C 152.91 153.25 153.16 154.29 153.96 154.78 C 154.75 155.27 155.80 155.02 156.29 154.22 L 156.82 153.36 C 157.31 152.56 157.06 151.52 156.26 151.03 C 155.46 150.54 154.42 150.79 153.93 151.59 Z M 153.49 152.32 L 152.84 153.17 C 152.28 153.92 152.43 154.98 153.18 155.55 C 153.93 156.11 154.99 155.96 155.56 155.21 L 156.20 154.35 C 156.76 153.61 156.61 152.54 155.86 151.98 C 155.11 151.42 154.05 151.57 153.49 152.32 Z M 152.93 153.06 L 152.28 153.80 C 151.65 154.50 151.72 155.57 152.42 156.20 C 153.12 156.82 154.19 156.76 154.82 156.05 L 155.47 155.32 C 156.10 154.62 156.03 153.54 155.33 152.92 C 154.63 152.29 153.55 152.36 152.93 153.06 Z M 152.36 153.71 L 151.67 154.38 C 151.00 155.04 150.98 156.12 151.64 156.79 C 152.30 157.46 153.38 157.47 154.05 156.82 L 154.74 156.14 C 155.41 155.49 155.42 154.41 154.76 153.74 C 154.11 153.06 153.03 153.05 152.36 153.71 Z M 151.75 154.30 L 151.00 154.95 C 150.28 155.56 150.20 156.64 150.81 157.35 C 151.42 158.07 152.50 158.15 153.21 157.54 L 153.97 156.89 C 154.68 156.28 154.76 155.20 154.15 154.49 C 153.54 153.78 152.46 153.69 151.75 154.30 Z M 151.08 154.88 L 150.26 155.50 C 149.51 156.06 149.36 157.13 149.92 157.88 C 150.49 158.64 151.56 158.79 152.31 158.22 L 153.13 157.61 C 153.88 157.04 154.03 155.97 153.47 155.22 C 152.90 154.47 151.83 154.32 151.08 154.88 Z M 150.35 155.43 L 149.47 156.01 C 148.69 156.53 148.47 157.59 148.99 158.37 C 149.51 159.16 150.56 159.38 151.35 158.86 L 152.23 158.28 C 153.01 157.77 153.23 156.71 152.71 155.92 C 152.19 155.13 151.14 154.91 150.35 155.43 Z M 149.56 155.95 L 148.70 156.45 C 147.88 156.92 147.60 157.97 148.07 158.78 C 148.54 159.60 149.58 159.88 150.40 159.41 L 151.26 158.91 C 152.08 158.44 152.36 157.40 151.89 156.58 C 151.42 155.76 150.38 155.48 149.56 155.95 Z M 148.78 156.40 L 147.90 156.85 C 147.06 157.27 146.72 158.30 147.15 159.14 C 147.57 159.99 148.60 160.32 149.44 159.90 L 150.32 159.46 C 151.16 159.03 151.50 158.00 151.08 157.16 C 150.65 156.32 149.62 155.98 148.78 156.40 Z M 147.98 156.81 L 147.07 157.21 C 146.21 157.59 145.82 158.60 146.20 159.47 C 146.58 160.33 147.60 160.72 148.46 160.34 L 149.37 159.94 C 150.23 159.55 150.62 158.54 150.24 157.68 C 149.86 156.81 148.85 156.42 147.98 156.81 Z M 147.15 157.18 L 146.21 157.54 C 145.32 157.88 144.89 158.88 145.23 159.76 C 145.57 160.64 146.57 161.08 147.45 160.74 L 148.39 160.37 C 149.27 160.03 149.71 159.04 149.36 158.15 C 149.02 157.27 148.03 156.83 147.15 157.18 Z M 146.28 157.51 L 145.31 157.84 C 144.42 158.14 143.93 159.12 144.24 160.02 C 144.54 160.91 145.52 161.39 146.41 161.09 L 147.38 160.76 C 148.27 160.46 148.76 159.49 148.45 158.59 C 148.15 157.69 147.17 157.21 146.28 157.51 Z M 145.38 157.82 L 144.40 158.10 C 143.49 158.37 142.97 159.33 143.24 160.24 C 143.50 161.15 144.46 161.67 145.37 161.40 L 146.35 161.11 C 147.26 160.85 147.78 159.89 147.51 158.98 C 147.24 158.07 146.29 157.55 145.38 157.82 Z M 144.46 158.09 L 143.56 158.32 C 142.64 158.55 142.08 159.48 142.31 160.40 C 142.54 161.32 143.48 161.88 144.40 161.65 L 145.30 161.42 C 146.22 161.19 146.78 160.25 146.55 159.33 C 146.32 158.41 145.38 157.86 144.46 158.09 Z M 143.62 158.30 L 142.69 158.50 C 141.76 158.70 141.17 159.61 141.37 160.54 C 141.57 161.47 142.48 162.06 143.41 161.86 L 144.34 161.66 C 145.26 161.46 145.86 160.55 145.66 159.62 C 145.46 158.69 144.55 158.10 143.62 158.30 Z M 142.75 158.49 L 141.79 158.66 C 140.86 158.82 140.24 159.72 140.40 160.65 C 140.57 161.58 141.46 162.20 142.39 162.04 L 143.35 161.87 C 144.28 161.70 144.91 160.81 144.74 159.88 C 144.57 158.95 143.68 158.32 142.75 158.49 Z M 141.85 158.65 L 140.86 158.79 C 139.92 158.93 139.27 159.80 139.40 160.73 C 139.54 161.67 140.41 162.32 141.34 162.19 L 142.34 162.05 C 143.27 161.91 143.93 161.04 143.79 160.11 C 143.66 159.17 142.79 158.52 141.85 158.65 Z M 140.91 158.79 L 139.87 158.90 C 138.93 159.01 138.26 159.85 138.36 160.80 C 138.47 161.74 139.31 162.42 140.26 162.31 L 141.29 162.20 C 142.23 162.09 142.91 161.24 142.81 160.30 C 142.70 159.36 141.85 158.68 140.91 158.79 Z M 139.92 158.90 L 138.84 158.99 C 137.89 159.07 137.19 159.89 137.27 160.84 C 137.35 161.78 138.18 162.48 139.12 162.41 L 140.21 162.32 C 141.15 162.24 141.85 161.41 141.77 160.46 C 141.70 159.52 140.87 158.82 139.92 158.90 Z M 138.88 158.99 L 137.85 159.05 C 136.91 159.10 136.18 159.91 136.24 160.86 C 136.29 161.80 137.10 162.52 138.05 162.47 L 139.08 162.41 C 140.02 162.35 140.74 161.54 140.69 160.60 C 140.63 159.65 139.82 158.93 138.88 158.99 Z M 137.89 159.05 L 136.85 159.08 C 135.90 159.11 135.17 159.91 135.20 160.85 C 135.23 161.79 136.02 162.53 136.96 162.50 L 138.01 162.47 C 138.95 162.43 139.69 161.64 139.66 160.70 C 139.63 159.75 138.84 159.01 137.89 159.05 Z M 136.90 159.08 L 135.85 159.09 C 134.90 159.10 134.14 159.87 134.15 160.81 C 134.15 161.75 134.92 162.51 135.87 162.51 L 136.92 162.50 C 137.86 162.49 138.62 161.72 138.62 160.78 C 138.61 159.84 137.84 159.08 136.90 159.08 Z M 135.90 159.09 L 134.86 159.07 C 133.92 159.04 133.14 159.78 133.11 160.73 C 133.09 161.67 133.83 162.45 134.77 162.48 L 135.81 162.50 C 136.75 162.53 137.54 161.78 137.56 160.84 C 137.59 159.90 136.84 159.12 135.90 159.09 Z M 134.93 159.07 L 133.92 159.01 C 132.99 158.94 132.17 159.65 132.11 160.59 C 132.05 161.53 132.76 162.34 133.70 162.40 L 134.71 162.47 C 135.64 162.53 136.46 161.82 136.52 160.88 C 136.58 159.94 135.87 159.13 134.93 159.07 Z M 134.01 159.02 L 133.06 158.91 C 132.12 158.80 131.28 159.47 131.17 160.40 C 131.06 161.33 131.73 162.17 132.66 162.28 L 133.62 162.39 C 134.55 162.50 135.39 161.83 135.50 160.90 C 135.61 159.97 134.94 159.12 134.01 159.02 Z M 133.16 158.92 L 132.28 158.76 C 131.36 158.60 130.48 159.21 130.31 160.13 C 130.14 161.05 130.76 161.94 131.68 162.10 L 132.56 162.26 C 133.48 162.43 134.36 161.82 134.53 160.90 C 134.70 159.97 134.09 159.09 133.16 158.92 Z M 132.45 158.81 L 131.34 158.49 C 130.45 158.23 129.51 158.74 129.25 159.63 C 128.98 160.53 129.50 161.47 130.39 161.73 L 131.51 162.05 C 132.40 162.32 133.34 161.80 133.60 160.91 C 133.86 160.01 133.35 159.08 132.45 158.81 Z M 131.57 158.59 L 130.61 158.15 C 129.78 157.76 128.78 158.12 128.40 158.96 C 128.01 159.80 128.37 160.79 129.21 161.18 L 130.16 161.62 C 131.00 162.01 131.99 161.65 132.38 160.81 C 132.77 159.98 132.41 158.98 131.57 158.59 Z M 130.85 158.30 L 130.06 157.76 C 129.31 157.24 128.28 157.43 127.76 158.18 C 127.24 158.94 127.43 159.96 128.18 160.48 L 128.97 161.03 C 129.72 161.54 130.75 161.35 131.27 160.60 C 131.79 159.85 131.60 158.82 130.85 158.30 Z M 130.27 157.95 L 129.62 157.32 C 128.98 156.69 127.94 156.70 127.31 157.35 C 126.68 157.99 126.69 159.03 127.33 159.66 L 127.98 160.29 C 128.62 160.92 129.66 160.91 130.29 160.26 C 130.92 159.62 130.91 158.58 130.27 157.95 Z M 129.78 157.53 L 129.25 156.81 C 128.72 156.09 127.70 155.94 126.99 156.47 C 126.27 157.00 126.12 158.01 126.65 158.73 L 127.18 159.45 C 127.71 160.17 128.72 160.32 129.44 159.79 C 130.16 159.26 130.31 158.25 129.78 157.53 Z M 129.35 157.02 L 128.91 156.19 C 128.49 155.41 127.53 155.12 126.75 155.53 C 125.97 155.95 125.68 156.92 126.09 157.69 L 126.54 158.52 C 126.95 159.30 127.92 159.60 128.70 159.18 C 129.48 158.76 129.77 157.80 129.35 157.02 Z M 128.98 156.39 L 128.64 155.48 C 128.34 154.67 127.43 154.25 126.61 154.55 C 125.80 154.86 125.38 155.77 125.69 156.58 L 126.02 157.49 C 126.33 158.31 127.24 158.72 128.05 158.42 C 128.87 158.11 129.28 157.21 128.98 156.39 Z M 128.67 155.66 L 128.43 154.67 C 128.23 153.84 127.38 153.33 126.55 153.53 C 125.72 153.74 125.21 154.58 125.41 155.42 L 125.65 156.40 C 125.86 157.24 126.70 157.75 127.53 157.54 C 128.37 157.34 128.88 156.49 128.67 155.66 Z M 128.44 154.82 L 128.28 153.76 C 128.16 152.92 127.38 152.34 126.55 152.46 C 125.71 152.59 125.13 153.37 125.25 154.20 L 125.40 155.27 C 125.52 156.10 126.30 156.69 127.14 156.56 C 127.98 156.44 128.56 155.66 128.44 154.82 Z M 128.28 153.88 L 128.21 152.87 C 128.15 152.04 127.42 151.41 126.59 151.47 C 125.75 151.52 125.12 152.25 125.18 153.08 L 125.25 154.09 C 125.31 154.93 126.04 155.55 126.87 155.50 C 127.71 155.44 128.34 154.71 128.28 153.88 Z M 128.20 152.97 L 128.19 151.94 C 128.18 151.11 127.50 150.45 126.67 150.45 C 125.85 150.46 125.18 151.14 125.19 151.97 L 125.19 152.99 C 125.20 153.82 125.88 154.49 126.71 154.48 C 127.54 154.47 128.20 153.79 128.20 152.97 Z M 128.17 152.03 L 128.23 151.01 C 128.27 150.19 127.64 149.49 126.82 149.45 C 126.00 149.40 125.30 150.03 125.26 150.85 L 125.20 151.88 C 125.16 152.70 125.79 153.40 126.61 153.44 C 127.43 153.48 128.13 152.85 128.17 152.03 Z M 128.20 151.11 L 128.32 150.11 C 128.42 149.30 127.84 148.57 127.04 148.47 C 126.23 148.38 125.50 148.95 125.40 149.76 L 125.28 150.76 C 125.18 151.56 125.76 152.29 126.57 152.39 C 127.37 152.49 128.10 151.91 128.20 151.11 Z M 128.29 150.22 L 128.48 149.28 C 128.63 148.49 128.12 147.73 127.33 147.57 C 126.54 147.41 125.78 147.92 125.62 148.71 L 125.43 149.65 C 125.28 150.44 125.79 151.21 126.58 151.36 C 127.36 151.52 128.13 151.01 128.29 150.22 Z M 128.43 149.42 L 128.74 148.40 C 128.98 147.64 128.55 146.83 127.78 146.60 C 127.02 146.36 126.21 146.79 125.98 147.55 L 125.67 148.57 C 125.43 149.34 125.86 150.14 126.62 150.38 C 127.39 150.61 128.19 150.18 128.43 149.42 Z M 128.68 148.54 L 129.08 147.61 C 129.39 146.88 129.05 146.04 128.32 145.72 C 127.59 145.41 126.75 145.75 126.43 146.48 L 126.04 147.41 C 125.72 148.14 126.06 148.99 126.80 149.30 C 127.53 149.61 128.37 149.27 128.68 148.54 Z M 129.03 147.72 L 129.48 146.86 C 129.85 146.16 129.58 145.29 128.88 144.92 C 128.18 144.55 127.31 144.82 126.94 145.52 L 126.49 146.38 C 126.12 147.08 126.39 147.95 127.09 148.32 C 127.79 148.69 128.66 148.42 129.03 147.72 Z M 129.44 146.91 L 129.92 146.09 C 130.32 145.41 130.09 144.54 129.41 144.14 C 128.73 143.74 127.86 143.97 127.46 144.65 L 126.98 145.47 C 126.58 146.15 126.81 147.02 127.49 147.42 C 128.17 147.82 129.04 147.59 129.44 146.91 Z M 129.91 146.10 L 129.98 145.98 C 130.39 145.31 130.17 144.43 129.49 144.03 C 128.82 143.62 127.94 143.84 127.54 144.52 L 127.47 144.64 C 127.06 145.31 127.28 146.19 127.96 146.59 C 128.63 147.00 129.51 146.78 129.91 146.10 Z"
      fill="black"
      fill-rule="nonzero" /></svg>