<svg xmlns="http://www.w3.org/2000/svg" width="300" height="300" viewBox="0 0 300 300">
<path d="M 154.11 152.76 L 154.74 153.45 C 155.31 154.06 156.26 154.10 156.88 153.53 C 157.49 152.97 157.53 152.01 156.97 151.40 L 156.33 150.71 C 155.77 150.10 154.81 150.06 154.20 150.62 C 153.58 151.19 153.54 152.14 154.11 152.76 Z M 154.66 153.36 L 155.25 154.11 C 155.76 154.77 156.72 154.89 157.38 154.38 C 158.04 153.86 158.16 152.90 157.64 152.24 L 157.05 151.49 C 156.54 150.83 155.58 150.71 154.92 151.22 C 154.26 151.74 154.14 152.69 154.66 153.36 Z M 155.11 153.92 L 155.60 154.81 C 156.02 155.55 156.95 155.81 157.68 155.40 C 158.42 154.99 158.69 154.05 158.27 153.32 L 157.78 152.43 C 157.37 151.69 156.44 151.43 155.70 151.84 C 154.96 152.25 154.70 153.19 155.11 153.92 Z M 155.48 154.55 L 155.81 155.55 C 156.08 156.35 156.96 156.79 157.76 156.51 C 158.57 156.24 159.00 155.37 158.73 154.56 L 158.40 153.57 C 158.13 152.77 157.25 152.33 156.45 152.60 C 155.64 152.87 155.21 153.75 155.48 154.55 Z M 155.74 155.32 L 155.90 156.26 C 156.05 157.11 156.86 157.67 157.70 157.53 C 158.55 157.38 159.12 156.57 158.97 155.73 L 158.80 154.79 C 158.66 153.94 157.85 153.38 157.00 153.52 C 156.16 153.67 155.59 154.48 155.74 155.32 Z M 155.87 156.10 L 155.93 157.11 C 155.99 157.98 156.74 158.63 157.61 158.58 C 158.47 158.52 159.13 157.77 159.07 156.90 L 159.01 155.89 C 158.95 155.02 158.20 154.37 157.33 154.42 C 156.46 154.48 155.81 155.23 155.87 156.10 Z M 155.91 156.96 L 155.88 158.00 C 155.86 158.88 156.55 159.61 157.43 159.64 C 158.31 159.66 159.04 158.97 159.07 158.09 L 159.09 157.05 C 159.12 156.17 158.43 155.44 157.55 155.41 C 156.67 155.39 155.94 156.08 155.91 156.96 Z M 155.88 157.85 L 155.75 158.87 C 155.65 159.75 156.27 160.56 157.16 160.66 C 158.04 160.77 158.84 160.14 158.95 159.26 L 159.07 158.24 C 159.18 157.36 158.55 156.55 157.67 156.45 C 156.78 156.34 155.98 156.97 155.88 157.85 Z M 155.77 158.70 L 155.53 159.70 C 155.33 160.58 155.88 161.45 156.75 161.65 C 157.63 161.86 158.50 161.31 158.70 160.44 L 158.94 159.43 C 159.14 158.56 158.59 157.68 157.72 157.48 C 156.84 157.28 155.97 157.82 155.77 158.70 Z M 155.58 159.50 L 155.22 160.48 C 154.90 161.33 155.33 162.27 156.18 162.59 C 157.03 162.90 157.98 162.47 158.29 161.62 L 158.66 160.64 C 158.97 159.79 158.54 158.85 157.69 158.53 C 156.84 158.22 155.90 158.65 155.58 159.50 Z M 155.30 160.28 L 154.83 161.16 C 154.41 161.97 154.72 162.96 155.52 163.39 C 156.33 163.81 157.33 163.50 157.75 162.70 L 158.21 161.82 C 158.64 161.01 158.33 160.02 157.52 159.59 C 156.72 159.17 155.72 159.48 155.30 160.28 Z M 154.92 160.99 L 154.38 161.79 C 153.86 162.55 154.06 163.58 154.82 164.09 C 155.57 164.61 156.60 164.41 157.12 163.66 L 157.66 162.86 C 158.18 162.11 157.98 161.07 157.22 160.56 C 156.47 160.04 155.44 160.24 154.92 160.99 Z M 154.46 161.67 L 153.85 162.41 C 153.27 163.12 153.37 164.17 154.08 164.75 C 154.79 165.34 155.84 165.24 156.43 164.52 L 157.04 163.78 C 157.62 163.07 157.52 162.02 156.81 161.44 C 156.10 160.85 155.05 160.95 154.46 161.67 Z M 153.93 162.31 L 153.22 163.05 C 152.58 163.72 152.61 164.78 153.28 165.42 C 153.95 166.06 155.01 166.03 155.65 165.36 L 156.35 164.62 C 156.99 163.95 156.96 162.89 156.29 162.25 C 155.62 161.62 154.56 161.64 153.93 162.31 Z M 153.31 162.96 L 152.56 163.64 C 151.87 164.26 151.82 165.32 152.44 166.01 C 153.06 166.69 154.12 166.75 154.81 166.13 L 155.56 165.45 C 156.24 164.83 156.30 163.77 155.68 163.08 C 155.06 162.40 154.00 162.34 153.31 162.96 Z M 152.67 163.54 L 151.88 164.14 C 151.14 164.70 150.99 165.75 151.55 166.49 C 152.11 167.23 153.17 167.38 153.91 166.82 L 154.70 166.23 C 155.44 165.67 155.58 164.61 155.02 163.87 C 154.46 163.13 153.41 162.98 152.67 163.54 Z M 152.01 164.04 L 151.18 164.55 C 150.39 165.04 150.14 166.07 150.62 166.87 C 151.11 167.66 152.15 167.91 152.94 167.43 L 153.77 166.92 C 154.57 166.43 154.82 165.39 154.33 164.60 C 153.85 163.80 152.81 163.55 152.01 164.04 Z M 151.34 164.46 L 150.43 164.89 C 149.59 165.29 149.22 166.29 149.62 167.14 C 150.02 167.98 151.02 168.34 151.87 167.95 L 152.78 167.52 C 153.62 167.12 153.99 166.11 153.59 165.27 C 153.19 164.43 152.19 164.06 151.34 164.46 Z M 150.60 164.82 L 149.66 165.15 C 148.77 165.45 148.31 166.42 148.61 167.30 C 148.92 168.18 149.88 168.64 150.76 168.34 L 151.70 168.01 C 152.58 167.71 153.05 166.75 152.74 165.87 C 152.44 164.98 151.48 164.52 150.60 164.82 Z M 149.81 165.10 L 148.84 165.34 C 147.94 165.56 147.38 166.47 147.60 167.38 C 147.83 168.29 148.74 168.84 149.65 168.62 L 150.61 168.38 C 151.52 168.16 152.07 167.25 151.85 166.34 C 151.63 165.44 150.71 164.88 149.81 165.10 Z M 148.98 165.31 L 148.01 165.47 C 147.09 165.62 146.46 166.48 146.61 167.40 C 146.75 168.32 147.62 168.95 148.54 168.80 L 149.51 168.65 C 150.43 168.50 151.06 167.63 150.91 166.71 C 150.76 165.79 149.90 165.16 148.98 165.31 Z M 148.17 165.45 L 147.19 165.51 C 146.26 165.57 145.56 166.37 145.61 167.30 C 145.67 168.23 146.47 168.94 147.40 168.88 L 148.38 168.82 C 149.31 168.76 150.01 167.96 149.96 167.03 C 149.90 166.10 149.10 165.40 148.17 165.45 Z M 147.43 165.52 L 146.44 165.44 C 145.52 165.36 144.71 166.05 144.63 166.98 C 144.56 167.91 145.25 168.72 146.17 168.79 L 147.16 168.87 C 148.09 168.95 148.90 168.26 148.98 167.33 C 149.05 166.40 148.36 165.59 147.43 165.52 Z M 146.74 165.49 L 145.75 165.23 C 144.85 164.99 143.93 165.52 143.69 166.42 C 143.45 167.31 143.99 168.24 144.88 168.48 L 145.88 168.74 C 146.77 168.98 147.70 168.45 147.93 167.55 C 148.17 166.65 147.64 165.73 146.74 165.49 Z M 146.04 165.34 L 145.19 164.93 C 144.36 164.53 143.35 164.89 142.95 165.72 C 142.56 166.56 142.91 167.56 143.74 167.96 L 144.59 168.36 C 145.43 168.76 146.43 168.41 146.83 167.57 C 147.23 166.74 146.87 165.74 146.04 165.34 Z M 145.42 165.07 L 144.63 164.52 C 143.87 164.00 142.83 164.18 142.30 164.94 C 141.78 165.70 141.96 166.74 142.72 167.26 L 143.51 167.82 C 144.27 168.34 145.31 168.16 145.84 167.40 C 146.36 166.64 146.18 165.60 145.42 165.07 Z M 144.82 164.69 L 144.10 164.00 C 143.43 163.36 142.38 163.38 141.75 164.05 C 141.11 164.71 141.13 165.76 141.80 166.40 L 142.52 167.09 C 143.19 167.73 144.24 167.71 144.87 167.04 C 145.51 166.38 145.49 165.33 144.82 164.69 Z M 144.27 164.20 L 143.64 163.37 C 143.09 162.64 142.05 162.49 141.32 163.04 C 140.59 163.59 140.45 164.63 141.00 165.36 L 141.62 166.19 C 142.17 166.92 143.21 167.07 143.94 166.52 C 144.67 165.97 144.82 164.93 144.27 164.20 Z M 143.78 163.61 L 143.31 162.70 C 142.89 161.89 141.90 161.58 141.09 161.99 C 140.28 162.41 139.97 163.40 140.39 164.21 L 140.86 165.12 C 141.28 165.93 142.27 166.24 143.08 165.82 C 143.88 165.40 144.20 164.41 143.78 163.61 Z M 143.39 162.94 L 143.09 162.03 C 142.81 161.18 141.89 160.71 141.03 161.00 C 140.18 161.28 139.72 162.20 140.00 163.05 L 140.30 163.96 C 140.59 164.82 141.51 165.28 142.36 165.00 C 143.21 164.72 143.67 163.80 143.39 162.94 Z M 143.13 162.27 L 142.96 161.30 C 142.81 160.42 141.98 159.84 141.10 159.99 C 140.23 160.14 139.64 160.97 139.80 161.85 L 139.97 162.82 C 140.12 163.69 140.95 164.27 141.82 164.12 C 142.69 163.97 143.28 163.14 143.13 162.27 Z M 142.96 161.53 L 142.93 160.53 C 142.91 159.65 142.19 158.96 141.31 158.98 C 140.44 159.00 139.75 159.73 139.77 160.60 L 139.80 161.61 C 139.82 162.48 140.54 163.17 141.42 163.15 C 142.29 163.13 142.98 162.41 142.96 161.53 Z M 142.90 160.76 L 143.03 159.75 C 143.14 158.89 142.53 158.11 141.68 158.00 C 140.83 157.89 140.04 158.50 139.94 159.35 L 139.81 160.37 C 139.70 161.22 140.30 162.00 141.16 162.11 C 142.01 162.22 142.79 161.62 142.90 160.76 Z M 142.96 159.98 L 143.24 159.00 C 143.48 158.18 143.01 157.33 142.20 157.09 C 141.38 156.86 140.53 157.32 140.29 158.14 L 140.01 159.12 C 139.77 159.93 140.24 160.79 141.05 161.03 C 141.87 161.26 142.72 160.79 142.96 159.98 Z M 143.15 159.20 L 143.54 158.34 C 143.88 157.58 143.54 156.68 142.78 156.34 C 142.01 155.99 141.11 156.33 140.77 157.09 L 140.38 157.94 C 140.04 158.71 140.38 159.61 141.14 159.95 C 141.91 160.30 142.81 159.96 143.15 159.20 Z M 143.45 158.48 L 143.94 157.65 C 144.36 156.93 144.12 156.01 143.40 155.59 C 142.68 155.17 141.76 155.41 141.34 156.13 L 140.86 156.96 C 140.44 157.67 140.68 158.59 141.39 159.01 C 142.11 159.43 143.03 159.19 143.45 158.48 Z M 143.86 157.74 L 144.43 156.92 C 144.90 156.24 144.73 155.32 144.06 154.85 C 143.39 154.38 142.46 154.55 141.99 155.22 L 141.42 156.04 C 140.95 156.71 141.12 157.64 141.79 158.10 C 142.46 158.57 143.39 158.41 143.86 157.74 Z M 144.37 156.97 L 145.00 156.16 C 145.50 155.52 145.38 154.60 144.74 154.10 C 144.11 153.60 143.18 153.72 142.68 154.36 L 142.05 155.17 C 141.55 155.80 141.67 156.73 142.31 157.23 C 142.95 157.72 143.87 157.61 144.37 156.97 Z M 144.95 156.19 L 145.62 155.39 C 146.14 154.77 146.06 153.86 145.44 153.34 C 144.83 152.83 143.91 152.91 143.40 153.53 L 142.73 154.33 C 142.21 154.95 142.30 155.86 142.91 156.37 C 143.53 156.89 144.44 156.80 144.95 156.19 Z M 145.60 155.39 L 146.12 154.78 C 146.64 154.18 146.57 153.28 145.97 152.76 C 145.37 152.24 144.46 152.31 143.94 152.91 L 143.42 153.52 C 142.90 154.13 142.97 155.03 143.58 155.55 C 144.18 156.06 145.08 155.99 145.60 155.39 Z"
      fill="black"
      fill-rule="nonzero" /></svg>