<svg xmlns="http://www.w3.org/2000/svg" width="300" height="300" viewBox="0 0 300 300">
<path d="M 152.06 133.55 L 153.07 133.71 C 153.91 133.85 154.71 133.27 154.84 132.43 C 154.98 131.58 154.40 130.79 153.56 130.65 L 152.55 130.49 C 151.71 130.36 150.91 130.93 150.78 131.78 C 150.64 132.62 151.22 133.42 152.06 133.55 Z M 153.04 133.70 L 154.03 133.88 C 154.87 134.03 155.68 133.48 155.83 132.64 C 155.98 131.80 155.42 130.99 154.58 130.84 L 153.59 130.66 C 152.75 130.51 151.95 131.07 151.79 131.91 C 151.64 132.75 152.20 133.55 153.04 133.70 Z M 153.97 133.86 L 154.94 134.08 C 155.77 134.27 156.60 133.75 156.78 132.92 C 156.97 132.09 156.45 131.26 155.62 131.08 L 154.65 130.86 C 153.82 130.67 152.99 131.19 152.80 132.02 C 152.62 132.85 153.14 133.68 153.97 133.86 Z M 154.84 134.05 L 155.78 134.33 C 156.60 134.57 157.45 134.11 157.69 133.29 C 157.93 132.48 157.47 131.63 156.65 131.38 L 155.71 131.11 C 154.90 130.87 154.05 131.33 153.81 132.15 C 153.57 132.96 154.03 133.81 154.84 134.05 Z M 155.66 134.29 L 156.54 134.63 C 157.33 134.94 158.22 134.55 158.53 133.76 C 158.84 132.97 158.45 132.08 157.66 131.77 L 156.78 131.43 C 155.99 131.12 155.10 131.51 154.79 132.30 C 154.48 133.09 154.87 133.98 155.66 134.29 Z M 156.43 134.59 L 157.28 135.01 C 158.04 135.38 158.97 135.07 159.34 134.30 C 159.72 133.54 159.40 132.62 158.64 132.24 L 157.78 131.82 C 157.02 131.45 156.10 131.76 155.72 132.53 C 155.35 133.29 155.66 134.21 156.43 134.59 Z M 157.19 134.96 L 158.05 135.46 C 158.79 135.88 159.73 135.62 160.16 134.89 C 160.58 134.15 160.32 133.20 159.59 132.78 L 158.73 132.28 C 157.99 131.86 157.04 132.12 156.62 132.86 C 156.20 133.59 156.45 134.54 157.19 134.96 Z M 157.99 135.42 L 158.87 135.99 C 159.59 136.44 160.55 136.23 161.01 135.51 C 161.47 134.79 161.25 133.83 160.53 133.37 L 159.65 132.81 C 158.92 132.35 157.97 132.56 157.51 133.29 C 157.05 134.01 157.26 134.97 157.99 135.42 Z M 158.83 135.97 L 159.69 136.54 C 160.41 137.02 161.37 136.83 161.85 136.12 C 162.33 135.40 162.14 134.44 161.42 133.96 L 160.57 133.39 C 159.85 132.91 158.89 133.10 158.41 133.81 C 157.93 134.53 158.12 135.49 158.83 135.97 Z M 159.67 136.54 L 160.48 137.10 C 161.19 137.59 162.16 137.41 162.66 136.71 C 163.15 136.00 162.97 135.02 162.26 134.53 L 161.45 133.97 C 160.74 133.48 159.76 133.65 159.27 134.36 C 158.78 135.07 158.96 136.05 159.67 136.54 Z M 160.45 137.09 L 161.28 137.68 C 161.99 138.19 162.97 138.03 163.47 137.33 C 163.98 136.62 163.82 135.64 163.11 135.13 L 162.29 134.54 C 161.58 134.03 160.60 134.19 160.09 134.90 C 159.59 135.60 159.75 136.59 160.45 137.09 Z M 161.25 137.67 L 162.07 138.29 C 162.77 138.81 163.76 138.67 164.28 137.97 C 164.80 137.27 164.66 136.28 163.96 135.76 L 163.14 135.15 C 162.45 134.62 161.46 134.76 160.93 135.46 C 160.41 136.16 160.55 137.15 161.25 137.67 Z M 162.03 138.27 L 162.82 138.89 C 163.51 139.44 164.51 139.32 165.05 138.63 C 165.59 137.95 165.48 136.95 164.79 136.40 L 164.00 135.78 C 163.31 135.23 162.32 135.35 161.77 136.04 C 161.23 136.73 161.34 137.72 162.03 138.27 Z M 162.77 138.87 L 163.55 139.53 C 164.23 140.10 165.23 140.02 165.80 139.35 C 166.37 138.67 166.29 137.67 165.62 137.10 L 164.84 136.43 C 164.17 135.86 163.16 135.94 162.59 136.62 C 162.02 137.29 162.10 138.29 162.77 138.87 Z M 163.49 139.48 L 164.28 140.23 C 164.93 140.83 165.94 140.80 166.55 140.15 C 167.16 139.51 167.13 138.49 166.48 137.88 L 165.69 137.14 C 165.04 136.53 164.02 136.57 163.42 137.21 C 162.81 137.86 162.84 138.88 163.49 139.48 Z M 164.20 140.16 L 164.89 140.90 C 165.50 141.56 166.52 141.59 167.17 140.98 C 167.83 140.38 167.87 139.35 167.26 138.70 L 166.56 137.95 C 165.96 137.30 164.93 137.26 164.28 137.87 C 163.63 138.48 163.59 139.50 164.20 140.16 Z M 164.79 140.80 L 165.38 141.55 C 165.93 142.26 166.95 142.39 167.66 141.84 C 168.37 141.28 168.50 140.26 167.94 139.55 L 167.36 138.80 C 166.80 138.09 165.78 137.96 165.07 138.52 C 164.36 139.07 164.24 140.09 164.79 140.80 Z M 165.27 141.41 L 165.74 142.18 C 166.22 142.95 167.23 143.19 168.00 142.71 C 168.76 142.24 169.00 141.23 168.53 140.46 L 168.05 139.69 C 167.58 138.92 166.57 138.68 165.80 139.16 C 165.03 139.64 164.79 140.65 165.27 141.41 Z M 165.62 141.96 L 166.05 142.98 C 166.40 143.81 167.37 144.21 168.21 143.85 C 169.04 143.50 169.43 142.53 169.08 141.69 L 168.65 140.68 C 168.30 139.84 167.33 139.45 166.49 139.80 C 165.65 140.16 165.26 141.13 165.62 141.96 Z M 165.93 142.62 L 166.10 143.61 C 166.26 144.51 167.11 145.11 168.01 144.96 C 168.91 144.80 169.52 143.95 169.36 143.05 L 169.19 142.06 C 169.04 141.16 168.18 140.55 167.28 140.71 C 166.38 140.86 165.78 141.71 165.93 142.62 Z M 166.10 143.04 L 165.94 143.94 C 165.79 144.84 166.39 145.70 167.30 145.86 C 168.20 146.01 169.06 145.41 169.21 144.50 L 169.37 143.61 C 169.53 142.71 168.92 141.85 168.02 141.69 C 167.11 141.54 166.25 142.14 166.10 143.04 Z M 166.21 143.27 L 165.75 143.93 C 165.22 144.69 165.41 145.72 166.16 146.25 C 166.92 146.78 167.95 146.59 168.48 145.84 L 168.94 145.17 C 169.47 144.42 169.29 143.38 168.53 142.86 C 167.78 142.33 166.74 142.51 166.21 143.27 Z M 166.17 143.51 L 165.46 144.00 C 164.70 144.53 164.51 145.56 165.03 146.32 C 165.56 147.08 166.60 147.27 167.35 146.75 L 168.06 146.26 C 168.82 145.73 169.01 144.69 168.49 143.94 C 167.96 143.18 166.93 142.99 166.17 143.51 Z M 165.79 143.83 L 164.85 144.20 C 163.99 144.54 163.57 145.51 163.91 146.37 C 164.25 147.22 165.22 147.64 166.08 147.30 L 167.02 146.92 C 167.88 146.58 168.29 145.61 167.95 144.76 C 167.61 143.90 166.64 143.49 165.79 143.83 Z M 165.07 144.13 L 163.93 144.40 C 163.04 144.62 162.49 145.52 162.70 146.41 C 162.91 147.31 163.82 147.86 164.71 147.65 L 165.85 147.37 C 166.75 147.16 167.30 146.26 167.08 145.36 C 166.87 144.47 165.97 143.91 165.07 144.13 Z M 164.08 144.38 L 163.03 144.53 C 162.12 144.67 161.49 145.52 161.63 146.43 C 161.76 147.34 162.61 147.97 163.52 147.83 L 164.57 147.67 C 165.48 147.54 166.11 146.69 165.97 145.78 C 165.83 144.87 164.99 144.24 164.08 144.38 Z M 163.12 144.52 L 162.11 144.62 C 161.20 144.70 160.52 145.52 160.61 146.43 C 160.70 147.35 161.51 148.02 162.43 147.94 L 163.43 147.84 C 164.35 147.75 165.02 146.94 164.94 146.02 C 164.85 145.11 164.03 144.43 163.12 144.52 Z M 162.18 144.61 L 161.14 144.67 C 160.23 144.72 159.52 145.51 159.57 146.43 C 159.62 147.34 160.41 148.05 161.33 148.00 L 162.36 147.94 C 163.28 147.89 163.98 147.10 163.93 146.18 C 163.88 145.27 163.10 144.56 162.18 144.61 Z M 161.20 144.67 L 160.17 144.69 C 159.25 144.71 158.52 145.48 158.54 146.39 C 158.57 147.31 159.33 148.04 160.25 148.02 L 161.27 148.00 C 162.19 147.98 162.92 147.21 162.90 146.30 C 162.88 145.38 162.12 144.65 161.20 144.67 Z M 160.22 144.69 L 159.23 144.69 C 158.31 144.68 157.56 145.42 157.55 146.34 C 157.55 147.26 158.29 148.01 159.21 148.01 L 160.20 148.02 C 161.12 148.03 161.87 147.29 161.87 146.37 C 161.88 145.45 161.14 144.70 160.22 144.69 Z M 159.28 144.69 L 158.26 144.65 C 157.34 144.62 156.57 145.34 156.54 146.25 C 156.50 147.17 157.22 147.94 158.14 147.97 L 159.16 148.01 C 160.07 148.04 160.84 147.33 160.88 146.41 C 160.91 145.49 160.19 144.72 159.28 144.69 Z M 158.33 144.67 L 157.22 144.58 C 156.31 144.50 155.52 145.18 155.44 146.09 C 155.37 147.00 156.05 147.80 156.96 147.87 L 158.07 147.96 C 158.98 148.03 159.77 147.35 159.84 146.44 C 159.92 145.53 159.24 144.74 158.33 144.67 Z M 157.33 144.60 L 156.35 144.46 C 155.46 144.32 154.62 144.94 154.49 145.83 C 154.35 146.73 154.97 147.57 155.87 147.70 L 156.85 147.85 C 157.74 147.98 158.58 147.36 158.71 146.47 C 158.85 145.57 158.23 144.74 157.33 144.60 Z M 156.50 144.50 L 155.61 144.28 C 154.74 144.06 153.86 144.60 153.64 145.47 C 153.43 146.34 153.96 147.23 154.83 147.44 L 155.72 147.66 C 156.59 147.87 157.48 147.34 157.69 146.47 C 157.90 145.59 157.37 144.71 156.50 144.50 Z M 155.78 144.35 L 154.92 144.03 C 154.08 143.72 153.15 144.15 152.84 144.98 C 152.54 145.82 152.96 146.75 153.80 147.05 L 154.66 147.37 C 155.50 147.68 156.43 147.25 156.74 146.42 C 157.05 145.58 156.62 144.65 155.78 144.35 Z M 155.09 144.12 L 154.20 143.66 C 153.41 143.26 152.45 143.57 152.05 144.35 C 151.65 145.14 151.96 146.10 152.74 146.50 L 153.63 146.96 C 154.41 147.36 155.37 147.05 155.78 146.27 C 156.18 145.49 155.87 144.53 155.09 144.12 Z M 154.34 143.78 L 153.51 143.22 C 152.79 142.74 151.81 142.93 151.33 143.66 C 150.85 144.38 151.04 145.35 151.76 145.83 L 152.60 146.39 C 153.32 146.87 154.29 146.68 154.77 145.95 C 155.25 145.23 155.06 144.26 154.34 143.78 Z M 153.62 143.33 L 152.85 142.70 C 152.19 142.16 151.21 142.25 150.67 142.91 C 150.13 143.57 150.22 144.55 150.88 145.09 L 151.65 145.72 C 152.31 146.26 153.29 146.17 153.83 145.51 C 154.37 144.85 154.28 143.88 153.62 143.33 Z M 152.94 142.81 L 152.22 142.10 C 151.62 141.51 150.66 141.51 150.06 142.11 C 149.47 142.71 149.48 143.67 150.07 144.26 L 150.80 144.98 C 151.39 145.57 152.36 145.56 152.95 144.97 C 153.54 144.37 153.54 143.41 152.94 142.81 Z M 152.31 142.23 L 151.67 141.46 C 151.15 140.82 150.20 140.72 149.56 141.24 C 148.92 141.77 148.83 142.71 149.35 143.35 L 149.98 144.13 C 150.51 144.77 151.45 144.86 152.09 144.34 C 152.73 143.82 152.83 142.87 152.31 142.23 Z M 151.76 141.62 L 151.24 140.79 C 150.81 140.10 149.90 139.89 149.21 140.32 C 148.52 140.75 148.31 141.66 148.74 142.35 L 149.26 143.18 C 149.69 143.87 150.60 144.08 151.29 143.65 C 151.98 143.22 152.19 142.31 151.76 141.62 Z M 151.32 140.99 L 150.93 140.09 C 150.61 139.35 149.75 139.01 149.02 139.33 C 148.28 139.65 147.94 140.51 148.26 141.25 L 148.66 142.15 C 148.98 142.88 149.83 143.22 150.57 142.90 C 151.30 142.58 151.64 141.72 151.32 140.99 Z M 150.98 140.27 L 150.71 139.32 C 150.49 138.55 149.69 138.11 148.92 138.33 C 148.16 138.55 147.72 139.35 147.94 140.11 L 148.21 141.06 C 148.43 141.83 149.23 142.27 149.99 142.05 C 150.76 141.83 151.20 141.03 150.98 140.27 Z M 150.73 139.43 L 150.53 138.45 C 150.38 137.67 149.62 137.17 148.85 137.32 C 148.07 137.48 147.56 138.23 147.72 139.01 L 147.92 139.99 C 148.07 140.77 148.83 141.28 149.60 141.12 C 150.38 140.97 150.88 140.21 150.73 139.43 Z M 150.54 138.50 L 150.41 137.74 C 150.28 136.96 149.55 136.44 148.77 136.56 C 147.99 136.69 147.47 137.43 147.59 138.21 L 147.72 138.96 C 147.84 139.74 148.58 140.27 149.36 140.14 C 150.14 140.01 150.66 139.27 150.54 138.50 Z"
      fill="black"
      fill-rule="nonzero" /></svg>