<svg xmlns="http://www.w3.org/2000/svg" width="300" height="300" viewBox="0 0 300 300">
<path d="M 143.88 138.13 L 144.45 137.28 C 144.90 136.60 144.72 135.68 144.04 135.23 C 143.37 134.78 142.45 134.96 142.00 135.64 L 141.43 136.49 C 140.97 137.17 141.15 138.09 141.83 138.54 C 142.51 138.99 143.43 138.81 143.88 138.13 Z M 144.39 137.36 L 145.01 136.56 C 145.51 135.92 145.39 134.99 144.75 134.49 C 144.10 133.99 143.17 134.11 142.67 134.75 L 142.06 135.55 C 141.56 136.20 141.67 137.13 142.32 137.62 C 142.97 138.12 143.89 138.01 144.39 137.36 Z M 144.87 136.73 L 145.57 136.06 C 146.16 135.49 146.18 134.55 145.61 133.96 C 145.04 133.37 144.11 133.35 143.52 133.92 L 142.81 134.59 C 142.22 135.16 142.21 136.10 142.77 136.69 C 143.34 137.28 144.28 137.29 144.87 136.73 Z M 145.30 136.26 L 146.12 135.77 C 146.83 135.35 147.06 134.44 146.64 133.74 C 146.22 133.03 145.31 132.80 144.61 133.22 L 143.78 133.71 C 143.08 134.13 142.85 135.04 143.27 135.74 C 143.68 136.45 144.60 136.68 145.30 136.26 Z M 145.82 135.91 L 146.76 135.61 C 147.54 135.36 147.97 134.53 147.72 133.75 C 147.47 132.97 146.64 132.53 145.86 132.78 L 144.92 133.08 C 144.13 133.33 143.70 134.16 143.95 134.95 C 144.20 135.73 145.04 136.16 145.82 135.91 Z M 146.53 135.67 L 147.53 135.52 C 148.34 135.40 148.90 134.64 148.78 133.83 C 148.66 133.02 147.90 132.46 147.09 132.58 L 146.09 132.73 C 145.27 132.85 144.71 133.60 144.84 134.42 C 144.96 135.23 145.71 135.79 146.53 135.67 Z M 147.37 135.53 L 148.38 135.49 C 149.20 135.46 149.84 134.76 149.81 133.94 C 149.77 133.12 149.08 132.48 148.26 132.52 L 147.25 132.56 C 146.43 132.60 145.79 133.29 145.82 134.11 C 145.86 134.93 146.55 135.57 147.37 135.53 Z M 148.27 135.49 L 149.25 135.53 C 150.07 135.56 150.76 134.92 150.79 134.09 C 150.82 133.27 150.18 132.58 149.36 132.55 L 148.37 132.52 C 147.55 132.49 146.86 133.13 146.83 133.95 C 146.80 134.77 147.44 135.47 148.27 135.49 Z M 149.09 135.52 L 150.05 135.66 C 150.86 135.78 151.62 135.21 151.74 134.39 C 151.86 133.58 151.29 132.82 150.47 132.70 L 149.52 132.56 C 148.70 132.44 147.94 133.01 147.82 133.83 C 147.70 134.64 148.27 135.40 149.09 135.52 Z M 149.84 135.62 L 150.80 135.90 C 151.60 136.13 152.43 135.68 152.66 134.88 C 152.89 134.09 152.44 133.26 151.65 133.02 L 150.68 132.74 C 149.89 132.51 149.05 132.96 148.82 133.76 C 148.59 134.55 149.04 135.38 149.84 135.62 Z M 150.60 135.83 L 151.52 136.25 C 152.28 136.60 153.17 136.27 153.51 135.51 C 153.86 134.76 153.53 133.87 152.77 133.52 L 151.85 133.10 C 151.10 132.75 150.20 133.08 149.86 133.84 C 149.51 134.59 149.84 135.48 150.60 135.83 Z M 151.37 136.18 L 152.23 136.69 C 152.94 137.12 153.87 136.89 154.30 136.18 C 154.73 135.47 154.50 134.54 153.78 134.11 L 152.93 133.60 C 152.21 133.17 151.29 133.40 150.86 134.11 C 150.43 134.82 150.66 135.75 151.37 136.18 Z M 152.12 136.63 L 152.96 137.23 C 153.63 137.72 154.58 137.57 155.07 136.89 C 155.56 136.22 155.40 135.27 154.73 134.78 L 153.89 134.18 C 153.22 133.69 152.27 133.84 151.78 134.52 C 151.29 135.19 151.44 136.14 152.12 136.63 Z M 152.86 137.17 L 153.64 137.82 C 154.28 138.36 155.24 138.28 155.78 137.64 C 156.32 137.00 156.24 136.04 155.60 135.50 L 154.82 134.85 C 154.18 134.31 153.22 134.39 152.68 135.03 C 152.14 135.67 152.22 136.63 152.86 137.17 Z M 153.55 137.74 L 154.25 138.44 C 154.84 139.03 155.81 139.03 156.40 138.43 C 156.99 137.83 156.99 136.87 156.39 136.28 L 155.69 135.58 C 155.09 134.99 154.13 134.99 153.54 135.59 C 152.95 136.19 152.95 137.15 153.55 137.74 Z M 154.13 138.31 L 154.75 139.09 C 155.27 139.75 156.23 139.85 156.89 139.33 C 157.55 138.80 157.66 137.84 157.13 137.18 L 156.51 136.40 C 155.99 135.75 155.02 135.64 154.37 136.17 C 153.71 136.69 153.60 137.65 154.13 138.31 Z M 154.60 138.88 L 155.06 139.71 C 155.48 140.45 156.41 140.72 157.15 140.31 C 157.89 139.89 158.16 138.96 157.74 138.22 L 157.28 137.38 C 156.87 136.64 155.93 136.38 155.19 136.79 C 154.45 137.21 154.19 138.14 154.60 138.88 Z M 154.95 139.46 L 155.27 140.42 C 155.55 141.22 156.42 141.65 157.23 141.38 C 158.03 141.10 158.46 140.23 158.19 139.42 L 157.86 138.47 C 157.59 137.66 156.71 137.23 155.91 137.51 C 155.10 137.78 154.67 138.66 154.95 139.46 Z M 155.20 140.20 L 155.39 141.18 C 155.54 142.02 156.35 142.58 157.19 142.43 C 158.03 142.27 158.59 141.46 158.43 140.62 L 158.25 139.64 C 158.10 138.80 157.29 138.24 156.45 138.39 C 155.61 138.55 155.05 139.36 155.20 140.20 Z M 155.35 141.02 L 155.43 142.04 C 155.50 142.90 156.25 143.54 157.11 143.47 C 157.97 143.41 158.61 142.65 158.55 141.79 L 158.47 140.78 C 158.40 139.92 157.65 139.28 156.79 139.34 C 155.93 139.41 155.28 140.16 155.35 141.02 Z M 155.41 141.89 L 155.40 142.93 C 155.38 143.80 156.08 144.52 156.95 144.53 C 157.82 144.55 158.54 143.85 158.55 142.98 L 158.57 141.94 C 158.58 141.07 157.88 140.35 157.01 140.34 C 156.14 140.32 155.42 141.02 155.41 141.89 Z M 155.39 142.77 L 155.27 143.77 C 155.17 144.64 155.79 145.44 156.67 145.54 C 157.54 145.64 158.33 145.02 158.43 144.15 L 158.55 143.14 C 158.66 142.27 158.03 141.48 157.16 141.37 C 156.29 141.27 155.49 141.90 155.39 142.77 Z M 155.30 143.56 L 155.05 144.52 C 154.83 145.37 155.34 146.25 156.20 146.47 C 157.06 146.69 157.93 146.18 158.16 145.32 L 158.41 144.36 C 158.63 143.50 158.11 142.63 157.26 142.41 C 156.40 142.18 155.52 142.70 155.30 143.56 Z M 155.15 144.21 L 154.70 145.15 C 154.31 145.95 154.64 146.92 155.44 147.31 C 156.24 147.70 157.21 147.36 157.60 146.56 L 158.05 145.63 C 158.44 144.82 158.11 143.86 157.31 143.47 C 156.51 143.08 155.54 143.41 155.15 144.21 Z M 154.88 144.85 L 154.28 145.61 C 153.72 146.31 153.84 147.33 154.54 147.88 C 155.24 148.44 156.26 148.32 156.81 147.62 L 157.42 146.86 C 157.97 146.16 157.85 145.14 157.15 144.59 C 156.45 144.03 155.44 144.15 154.88 144.85 Z M 154.47 145.40 L 153.75 146.03 C 153.08 146.62 153.02 147.65 153.61 148.32 C 154.20 148.99 155.23 149.06 155.90 148.47 L 156.62 147.83 C 157.29 147.24 157.36 146.21 156.76 145.54 C 156.17 144.87 155.14 144.80 154.47 145.40 Z M 153.91 145.90 L 153.11 146.45 C 152.37 146.96 152.18 147.98 152.69 148.72 C 153.20 149.46 154.21 149.65 154.95 149.14 L 155.75 148.59 C 156.49 148.08 156.68 147.07 156.17 146.32 C 155.66 145.58 154.65 145.40 153.91 145.90 Z M 153.24 146.37 L 152.37 146.85 C 151.58 147.28 151.30 148.28 151.73 149.06 C 152.17 149.85 153.16 150.14 153.95 149.70 L 154.82 149.23 C 155.61 148.79 155.89 147.80 155.46 147.01 C 155.02 146.22 154.03 145.93 153.24 146.37 Z M 152.51 146.78 L 151.58 147.18 C 150.75 147.54 150.38 148.50 150.73 149.33 C 151.09 150.16 152.06 150.54 152.88 150.18 L 153.81 149.77 C 154.64 149.42 155.02 148.45 154.66 147.63 C 154.30 146.80 153.34 146.42 152.51 146.78 Z M 151.72 147.12 L 150.78 147.43 C 149.92 147.72 149.45 148.64 149.74 149.50 C 150.02 150.36 150.94 150.83 151.80 150.54 L 152.75 150.23 C 153.60 149.95 154.07 149.03 153.79 148.17 C 153.51 147.31 152.58 146.84 151.72 147.12 Z M 150.91 147.40 L 150.00 147.61 C 149.12 147.82 148.58 148.71 148.79 149.59 C 149.00 150.47 149.89 151.01 150.76 150.80 L 151.67 150.58 C 152.55 150.37 153.09 149.49 152.88 148.61 C 152.67 147.73 151.79 147.19 150.91 147.40 Z M 150.12 147.59 L 149.15 147.75 C 148.26 147.90 147.66 148.74 147.80 149.63 C 147.95 150.53 148.80 151.13 149.69 150.98 L 150.65 150.82 C 151.54 150.67 152.15 149.83 152.00 148.94 C 151.85 148.05 151.01 147.44 150.12 147.59 Z M 149.24 147.74 L 148.21 147.85 C 147.31 147.95 146.66 148.75 146.75 149.65 C 146.85 150.55 147.66 151.20 148.56 151.11 L 149.60 150.99 C 150.50 150.90 151.15 150.09 151.05 149.19 C 150.95 148.29 150.14 147.64 149.24 147.74 Z M 148.28 147.84 L 147.21 147.91 C 146.31 147.97 145.62 148.75 145.68 149.65 C 145.74 150.56 146.52 151.24 147.42 151.18 L 148.49 151.11 C 149.39 151.05 150.08 150.27 150.02 149.37 C 149.96 148.47 149.18 147.78 148.28 147.84 Z M 147.27 147.91 L 146.24 147.94 C 145.34 147.97 144.63 148.72 144.66 149.63 C 144.68 150.53 145.44 151.24 146.34 151.21 L 147.37 151.18 C 148.27 151.16 148.98 150.40 148.95 149.50 C 148.93 148.59 148.17 147.88 147.27 147.91 Z M 146.31 147.94 L 145.27 147.93 C 144.37 147.92 143.63 148.65 143.62 149.55 C 143.61 150.45 144.33 151.19 145.24 151.20 L 146.28 151.21 C 147.18 151.22 147.92 150.50 147.93 149.59 C 147.94 148.69 147.21 147.95 146.31 147.94 Z M 145.36 147.94 L 144.35 147.87 C 143.45 147.81 142.67 148.50 142.61 149.40 C 142.55 150.30 143.24 151.07 144.14 151.13 L 145.15 151.20 C 146.05 151.25 146.83 150.57 146.88 149.67 C 146.94 148.77 146.26 147.99 145.36 147.94 Z M 144.47 147.89 L 143.53 147.75 C 142.63 147.63 141.81 148.25 141.69 149.15 C 141.56 150.04 142.18 150.86 143.08 150.99 L 144.02 151.12 C 144.91 151.24 145.73 150.62 145.86 149.73 C 145.98 148.83 145.36 148.01 144.47 147.89 Z M 143.72 147.80 L 142.73 147.54 C 141.86 147.31 140.97 147.82 140.74 148.69 C 140.51 149.56 141.03 150.45 141.89 150.68 L 142.88 150.94 C 143.75 151.17 144.64 150.66 144.87 149.79 C 145.10 148.92 144.59 148.03 143.72 147.80 Z M 143.01 147.65 L 142.13 147.23 C 141.32 146.85 140.36 147.19 139.98 147.99 C 139.59 148.80 139.93 149.76 140.74 150.14 L 141.62 150.56 C 142.42 150.95 143.38 150.61 143.77 149.80 C 144.15 149.00 143.81 148.04 143.01 147.65 Z M 142.41 147.43 L 141.65 146.84 C 140.96 146.30 139.95 146.43 139.41 147.12 C 138.87 147.82 139.00 148.82 139.70 149.36 L 140.45 149.95 C 141.15 150.49 142.15 150.36 142.69 149.67 C 143.23 148.97 143.11 147.97 142.41 147.43 Z M 141.86 147.06 L 141.20 146.31 C 140.62 145.65 139.62 145.59 138.97 146.16 C 138.31 146.74 138.25 147.74 138.83 148.40 L 139.49 149.15 C 140.07 149.80 141.07 149.86 141.72 149.29 C 142.38 148.71 142.44 147.71 141.86 147.06 Z M 141.31 146.48 L 140.79 145.70 C 140.31 144.98 139.34 144.79 138.62 145.27 C 137.90 145.75 137.71 146.72 138.19 147.44 L 138.72 148.22 C 139.20 148.94 140.17 149.13 140.89 148.65 C 141.60 148.17 141.79 147.20 141.31 146.48 Z M 140.85 145.84 L 140.38 144.95 C 139.97 144.20 139.04 143.92 138.28 144.32 C 137.53 144.73 137.25 145.67 137.65 146.42 L 138.13 147.30 C 138.53 148.05 139.47 148.34 140.22 147.93 C 140.97 147.53 141.26 146.59 140.85 145.84 Z M 140.42 145.09 L 140.02 144.14 C 139.69 143.36 138.79 143.00 138.01 143.33 C 137.23 143.66 136.87 144.56 137.20 145.34 L 137.61 146.29 C 137.94 147.06 138.84 147.42 139.62 147.09 C 140.39 146.76 140.75 145.86 140.42 145.09 Z M 140.05 144.27 L 139.73 143.29 C 139.48 142.50 138.63 142.06 137.83 142.31 C 137.04 142.57 136.60 143.42 136.86 144.22 L 137.17 145.20 C 137.43 145.99 138.28 146.43 139.07 146.18 C 139.87 145.92 140.30 145.07 140.05 144.27 Z M 139.75 143.44 L 139.54 142.44 C 139.37 141.64 138.57 141.12 137.77 141.29 C 136.96 141.47 136.45 142.26 136.62 143.07 L 136.83 144.07 C 137.01 144.87 137.80 145.39 138.61 145.21 C 139.41 145.04 139.93 144.25 139.75 143.44 Z M 139.55 142.58 L 139.42 141.58 C 139.33 140.77 138.59 140.20 137.78 140.29 C 136.97 140.39 136.39 141.13 136.49 141.94 L 136.61 142.93 C 136.71 143.74 137.45 144.32 138.26 144.22 C 139.07 144.12 139.64 143.39 139.55 142.58 Z M 139.42 141.68 L 139.36 140.69 C 139.32 139.88 138.63 139.27 137.82 139.31 C 137.02 139.35 136.40 140.04 136.45 140.85 L 136.50 141.84 C 136.55 142.64 137.23 143.26 138.04 143.22 C 138.84 143.17 139.46 142.48 139.42 141.68 Z M 139.35 140.75 L 139.33 139.76 C 139.32 138.96 138.67 138.33 137.87 138.34 C 137.07 138.35 136.44 139.00 136.45 139.80 L 136.46 140.79 C 136.47 141.58 137.13 142.22 137.93 142.21 C 138.72 142.20 139.36 141.54 139.35 140.75 Z M 139.32 139.78 L 139.32 139.30 C 139.32 138.51 138.68 137.87 137.89 137.87 C 137.10 137.87 136.46 138.51 136.46 139.30 L 136.46 139.78 C 136.46 140.57 137.10 141.21 137.89 141.21 C 138.68 141.21 139.32 140.57 139.32 139.78 Z"
      fill="black"
      fill-rule="nonzero" /></svg>