<svg xmlns="http://www.w3.org/2000/svg" width="300" height="300" viewBox="0 0 300 300">
<path d="M 140.37 146.33 L 141.13 145.77 C 141.80 145.28 141.95 144.34 141.46 143.67 C 140.97 143.00 140.03 142.85 139.35 143.34 L 138.59 143.90 C 137.92 144.39 137.77 145.33 138.26 146.01 C 138.75 146.68 139.69 146.83 140.37 146.33 Z M 141.04 145.84 L 141.86 145.32 C 142.57 144.88 142.78 143.95 142.34 143.25 C 141.90 142.54 140.97 142.33 140.27 142.77 L 139.45 143.28 C 138.74 143.72 138.53 144.65 138.97 145.36 C 139.41 146.06 140.34 146.28 141.04 145.84 Z M 141.68 145.42 L 142.62 145.00 C 143.38 144.65 143.71 143.76 143.37 143.01 C 143.03 142.25 142.14 141.91 141.38 142.25 L 140.45 142.67 C 139.69 143.01 139.35 143.90 139.69 144.66 C 140.03 145.42 140.93 145.76 141.68 145.42 Z M 142.39 145.08 L 143.36 144.82 C 144.17 144.61 144.64 143.78 144.43 142.97 C 144.21 142.17 143.39 141.69 142.58 141.91 L 141.61 142.17 C 140.81 142.38 140.33 143.21 140.54 144.01 C 140.76 144.82 141.58 145.29 142.39 145.08 Z M 143.17 144.86 L 144.13 144.74 C 144.96 144.63 145.54 143.87 145.43 143.04 C 145.33 142.21 144.56 141.63 143.74 141.74 L 142.77 141.86 C 141.94 141.97 141.36 142.73 141.47 143.56 C 141.58 144.39 142.34 144.97 143.17 144.86 Z M 143.99 144.76 L 145.01 144.72 C 145.85 144.68 146.51 143.98 146.47 143.14 C 146.44 142.30 145.73 141.64 144.89 141.68 L 143.87 141.72 C 143.03 141.75 142.38 142.46 142.41 143.30 C 142.45 144.14 143.15 144.79 143.99 144.76 Z M 144.90 144.72 L 145.93 144.76 C 146.78 144.79 147.49 144.13 147.52 143.29 C 147.55 142.45 146.89 141.74 146.04 141.71 L 145.01 141.67 C 144.17 141.64 143.46 142.30 143.43 143.14 C 143.39 143.98 144.05 144.69 144.90 144.72 Z M 145.83 144.76 L 146.84 144.87 C 147.69 144.96 148.44 144.35 148.53 143.50 C 148.62 142.66 148.01 141.90 147.17 141.81 L 146.15 141.71 C 145.31 141.62 144.55 142.23 144.46 143.07 C 144.37 143.92 144.98 144.67 145.83 144.76 Z M 146.72 144.86 L 147.78 145.05 C 148.62 145.21 149.42 144.65 149.58 143.81 C 149.73 142.98 149.18 142.17 148.34 142.02 L 147.28 141.82 C 146.44 141.67 145.64 142.22 145.48 143.06 C 145.33 143.90 145.89 144.71 146.72 144.86 Z M 147.64 145.03 L 148.62 145.30 C 149.44 145.53 150.30 145.05 150.53 144.22 C 150.76 143.40 150.27 142.54 149.45 142.31 L 148.47 142.04 C 147.65 141.81 146.79 142.29 146.56 143.12 C 146.33 143.94 146.82 144.80 147.64 145.03 Z M 148.46 145.26 L 149.36 145.61 C 150.16 145.92 151.07 145.53 151.38 144.73 C 151.69 143.92 151.30 143.02 150.50 142.71 L 149.60 142.36 C 148.80 142.04 147.90 142.44 147.58 143.24 C 147.27 144.04 147.66 144.94 148.46 145.26 Z M 149.20 145.54 L 150.04 145.98 C 150.81 146.38 151.75 146.09 152.15 145.33 C 152.56 144.56 152.26 143.62 151.50 143.22 L 150.66 142.77 C 149.89 142.37 148.95 142.67 148.55 143.43 C 148.15 144.20 148.44 145.14 149.20 145.54 Z M 149.87 145.89 L 150.73 146.49 C 151.44 146.98 152.42 146.81 152.92 146.10 C 153.41 145.38 153.24 144.41 152.53 143.91 L 151.67 143.31 C 150.96 142.82 149.98 142.99 149.48 143.70 C 148.99 144.41 149.16 145.39 149.87 145.89 Z M 150.55 146.35 L 151.29 147.04 C 151.93 147.63 152.93 147.60 153.52 146.96 C 154.12 146.32 154.08 145.33 153.44 144.73 L 152.71 144.04 C 152.07 143.45 151.07 143.49 150.48 144.12 C 149.88 144.76 149.92 145.76 150.55 146.35 Z M 151.12 146.86 L 151.71 147.62 C 152.24 148.31 153.24 148.43 153.93 147.90 C 154.62 147.36 154.75 146.36 154.21 145.67 L 153.62 144.91 C 153.08 144.22 152.09 144.10 151.40 144.63 C 150.70 145.17 150.58 146.17 151.12 146.86 Z M 151.54 147.36 L 151.97 148.22 C 152.36 149.01 153.32 149.33 154.11 148.93 C 154.89 148.54 155.21 147.58 154.81 146.79 L 154.38 145.93 C 153.98 145.14 153.03 144.83 152.24 145.22 C 151.46 145.62 151.14 146.57 151.54 147.36 Z M 151.85 147.92 L 152.10 148.86 C 152.32 149.71 153.20 150.22 154.05 150.00 C 154.90 149.77 155.41 148.90 155.19 148.05 L 154.94 147.10 C 154.71 146.25 153.84 145.74 152.98 145.96 C 152.13 146.19 151.62 147.06 151.85 147.92 Z M 152.05 148.59 L 152.13 149.59 C 152.21 150.47 152.98 151.13 153.86 151.05 C 154.75 150.97 155.40 150.20 155.32 149.32 L 155.24 148.32 C 155.16 147.44 154.39 146.78 153.51 146.86 C 152.62 146.93 151.97 147.71 152.05 148.59 Z M 152.12 149.39 L 152.08 150.40 C 152.05 151.28 152.74 152.03 153.63 152.06 C 154.51 152.10 155.26 151.41 155.29 150.52 L 155.33 149.52 C 155.37 148.63 154.68 147.88 153.79 147.85 C 152.90 147.81 152.16 148.51 152.12 149.39 Z M 152.10 150.21 L 151.95 151.19 C 151.81 152.07 152.41 152.89 153.29 153.03 C 154.17 153.16 155.00 152.56 155.13 151.68 L 155.28 150.70 C 155.42 149.82 154.81 149.00 153.93 148.86 C 153.05 148.73 152.23 149.33 152.10 150.21 Z M 152.00 150.95 L 151.70 151.90 C 151.43 152.75 151.90 153.66 152.75 153.93 C 153.60 154.20 154.51 153.73 154.78 152.88 L 155.08 151.92 C 155.35 151.07 154.88 150.17 154.03 149.90 C 153.18 149.63 152.27 150.10 152.00 150.95 Z M 151.82 151.60 L 151.33 152.48 C 150.89 153.26 151.17 154.25 151.95 154.69 C 152.73 155.12 153.72 154.84 154.16 154.06 L 154.65 153.18 C 155.08 152.40 154.81 151.41 154.03 150.98 C 153.25 150.54 152.26 150.82 151.82 151.60 Z M 151.53 152.19 L 150.90 152.90 C 150.30 153.57 150.36 154.60 151.03 155.19 C 151.70 155.79 152.72 155.73 153.32 155.06 L 153.95 154.35 C 154.55 153.68 154.49 152.66 153.82 152.06 C 153.15 151.47 152.13 151.53 151.53 152.19 Z M 151.11 152.71 L 150.33 153.32 C 149.62 153.88 149.50 154.90 150.06 155.60 C 150.61 156.30 151.63 156.42 152.33 155.87 L 153.11 155.26 C 153.82 154.70 153.94 153.68 153.38 152.98 C 152.83 152.28 151.81 152.15 151.11 152.71 Z M 150.52 153.19 L 149.63 153.71 C 148.85 154.16 148.59 155.15 149.04 155.92 C 149.49 156.70 150.48 156.96 151.26 156.51 L 152.14 156.00 C 152.92 155.55 153.18 154.56 152.73 153.78 C 152.28 153.01 151.29 152.74 150.52 153.19 Z M 149.80 153.62 L 148.85 154.03 C 148.02 154.38 147.64 155.34 148.00 156.16 C 148.35 156.98 149.30 157.36 150.13 157.01 L 151.08 156.60 C 151.91 156.25 152.29 155.29 151.93 154.47 C 151.58 153.65 150.63 153.27 149.80 153.62 Z M 149.01 153.97 L 148.02 154.28 C 147.17 154.54 146.69 155.45 146.95 156.30 C 147.21 157.16 148.12 157.64 148.98 157.37 L 149.97 157.07 C 150.82 156.81 151.30 155.90 151.04 155.04 C 150.77 154.19 149.87 153.71 149.01 153.97 Z M 148.17 154.24 L 147.17 154.45 C 146.30 154.63 145.74 155.49 145.92 156.36 C 146.10 157.24 146.96 157.80 147.84 157.62 L 148.83 157.41 C 149.71 157.23 150.27 156.37 150.08 155.49 C 149.90 154.62 149.04 154.06 148.17 154.24 Z M 147.31 154.43 L 146.34 154.55 C 145.45 154.66 144.82 155.46 144.93 156.35 C 145.04 157.24 145.85 157.87 146.73 157.76 L 147.71 157.64 C 148.59 157.53 149.22 156.72 149.11 155.83 C 149.00 154.95 148.19 154.32 147.31 154.43 Z M 146.47 154.54 L 145.46 154.58 C 144.57 154.62 143.88 155.37 143.92 156.26 C 143.95 157.15 144.70 157.84 145.59 157.81 L 146.60 157.76 C 147.49 157.73 148.18 156.98 148.15 156.09 C 148.11 155.20 147.36 154.50 146.47 154.54 Z M 145.66 154.60 L 144.62 154.51 C 143.74 154.44 142.96 155.10 142.89 155.98 C 142.82 156.86 143.48 157.63 144.36 157.70 L 145.40 157.79 C 146.28 157.86 147.05 157.21 147.12 156.32 C 147.19 155.44 146.54 154.67 145.66 154.60 Z M 144.95 154.59 L 144.04 154.32 C 143.21 154.06 142.32 154.53 142.06 155.36 C 141.81 156.20 142.28 157.09 143.11 157.34 L 144.02 157.62 C 144.86 157.88 145.75 157.41 146.00 156.57 C 146.26 155.74 145.79 154.85 144.95 154.59 Z M 144.47 154.55 L 143.72 154.02 C 143.01 153.53 142.04 153.70 141.54 154.41 C 141.05 155.12 141.22 156.09 141.93 156.59 L 142.68 157.11 C 143.39 157.61 144.37 157.44 144.86 156.73 C 145.36 156.02 145.18 155.04 144.47 154.55 Z M 144.05 154.37 L 143.47 153.61 C 142.95 152.93 141.99 152.80 141.31 153.32 C 140.63 153.84 140.50 154.80 141.02 155.48 L 141.60 156.24 C 142.12 156.91 143.08 157.04 143.76 156.53 C 144.44 156.01 144.57 155.05 144.05 154.37 Z M 143.62 153.91 L 143.19 152.98 C 142.84 152.23 141.94 151.90 141.18 152.25 C 140.43 152.60 140.10 153.49 140.45 154.25 L 140.87 155.18 C 141.22 155.93 142.12 156.26 142.88 155.91 C 143.63 155.56 143.97 154.67 143.62 153.91 Z M 143.24 153.22 L 142.97 152.22 C 142.75 151.43 141.93 150.97 141.14 151.19 C 140.35 151.40 139.89 152.22 140.11 153.01 L 140.39 154.01 C 140.61 154.80 141.42 155.26 142.21 155.04 C 143.00 154.83 143.46 154.01 143.24 153.22 Z M 142.98 152.40 L 142.84 151.42 C 142.73 150.62 141.99 150.06 141.19 150.18 C 140.39 150.29 139.83 151.04 139.95 151.83 L 140.09 152.82 C 140.21 153.62 140.95 154.17 141.75 154.06 C 142.55 153.94 143.10 153.20 142.98 152.40 Z M 142.84 151.54 L 142.78 150.55 C 142.74 149.75 142.06 149.14 141.26 149.18 C 140.46 149.23 139.85 149.91 139.89 150.71 L 139.95 151.71 C 140.00 152.50 140.68 153.11 141.48 153.07 C 142.28 153.02 142.89 152.34 142.84 151.54 Z M 142.77 150.61 L 142.76 149.61 C 142.76 148.82 142.11 148.19 141.31 148.19 C 140.52 148.20 139.89 148.85 139.90 149.64 L 139.91 150.64 C 139.91 151.43 140.56 152.07 141.35 152.06 C 142.15 152.05 142.78 151.41 142.77 150.61 Z M 142.76 149.63 L 142.76 149.48 C 142.76 148.70 142.12 148.06 141.33 148.06 C 140.54 148.06 139.90 148.70 139.90 149.48 L 139.90 149.63 C 139.90 150.42 140.54 151.05 141.33 151.05 C 142.12 151.05 142.76 150.42 142.76 149.63 Z"
      fill="black"
      fill-rule="nonzero" /></svg>