<svg xmlns="http://www.w3.org/2000/svg" width="300" height="300" viewBox="0 0 300 300">
<path d="M 143.20 117.34 L 141.88 116.99 C 141.00 116.76 140.10 117.28 139.87 118.16 C 139.64 119.04 140.17 119.94 141.05 120.17 L 142.37 120.51 C 143.24 120.74 144.14 120.22 144.37 119.34 C 144.60 118.46 144.08 117.57 143.20 117.34 Z M 141.94 117.00 L 140.84 116.67 C 139.97 116.41 139.05 116.90 138.79 117.77 C 138.52 118.64 139.02 119.56 139.89 119.83 L 140.99 120.16 C 141.86 120.42 142.78 119.92 143.04 119.05 C 143.30 118.18 142.81 117.26 141.94 117.00 Z M 141.05 116.74 L 140.40 116.44 C 139.57 116.06 138.59 116.43 138.21 117.26 C 137.83 118.10 138.20 119.08 139.03 119.46 L 139.68 119.75 C 140.51 120.14 141.49 119.77 141.87 118.94 C 142.25 118.10 141.89 117.12 141.05 116.74 Z M 141.37 118.05 L 141.39 117.80 C 141.45 116.88 140.75 116.10 139.83 116.04 C 138.92 115.98 138.13 116.68 138.07 117.60 L 138.06 117.85 C 138.00 118.77 138.70 119.55 139.62 119.61 C 140.53 119.66 141.32 118.97 141.37 118.05 Z M 140.23 119.28 L 140.93 119.06 C 141.80 118.79 142.29 117.86 142.01 116.98 C 141.74 116.11 140.81 115.62 139.93 115.90 L 139.23 116.12 C 138.36 116.39 137.87 117.32 138.15 118.20 C 138.42 119.07 139.35 119.56 140.23 119.28 Z M 140.73 119.11 L 141.93 118.88 C 142.83 118.72 143.43 117.85 143.26 116.95 C 143.09 116.06 142.23 115.46 141.33 115.63 L 140.13 115.85 C 139.23 116.02 138.64 116.88 138.80 117.78 C 138.97 118.68 139.83 119.27 140.73 119.11 Z M 141.92 118.88 L 143.24 118.65 C 144.14 118.49 144.74 117.64 144.58 116.74 C 144.42 115.84 143.57 115.24 142.67 115.40 L 141.35 115.63 C 140.45 115.79 139.85 116.64 140.01 117.54 C 140.16 118.44 141.02 119.04 141.92 118.88 Z M 143.26 118.64 L 144.21 118.45 C 145.10 118.28 145.69 117.43 145.52 116.54 C 145.35 115.65 144.49 115.06 143.60 115.23 L 142.65 115.41 C 141.76 115.58 141.17 116.44 141.34 117.33 C 141.51 118.22 142.37 118.81 143.26 118.64 Z M 144.23 118.44 L 145.21 118.24 C 146.09 118.06 146.66 117.20 146.48 116.32 C 146.31 115.44 145.45 114.87 144.57 115.05 L 143.58 115.25 C 142.70 115.43 142.13 116.29 142.31 117.17 C 142.49 118.05 143.35 118.61 144.23 118.44 Z M 145.23 118.22 L 146.23 118.01 C 147.10 117.82 147.65 116.97 147.47 116.10 C 147.28 115.23 146.43 114.67 145.56 114.86 L 144.56 115.07 C 143.69 115.25 143.13 116.11 143.32 116.98 C 143.50 117.85 144.36 118.40 145.23 118.22 Z M 146.24 117.99 L 147.24 117.77 C 148.10 117.58 148.64 116.73 148.45 115.87 C 148.26 115.01 147.41 114.46 146.55 114.65 L 145.55 114.87 C 144.69 115.06 144.14 115.91 144.33 116.78 C 144.52 117.64 145.38 118.18 146.24 117.99 Z M 147.24 117.75 L 148.22 117.53 C 149.08 117.33 149.61 116.49 149.41 115.63 C 149.22 114.78 148.37 114.25 147.52 114.44 L 146.54 114.67 C 145.69 114.86 145.16 115.71 145.35 116.56 C 145.54 117.41 146.39 117.95 147.24 117.75 Z M 148.23 117.51 L 149.21 117.28 C 150.05 117.08 150.57 116.24 150.37 115.40 C 150.17 114.56 149.33 114.03 148.49 114.23 L 147.51 114.46 C 146.67 114.66 146.15 115.50 146.35 116.35 C 146.54 117.19 147.39 117.71 148.23 117.51 Z M 149.21 117.27 L 150.17 117.03 C 151.00 116.83 151.51 116.00 151.31 115.16 C 151.11 114.33 150.27 113.82 149.44 114.02 L 148.48 114.25 C 147.65 114.45 147.14 115.29 147.34 116.12 C 147.54 116.95 148.38 117.47 149.21 117.27 Z M 150.17 117.02 L 151.11 116.79 C 151.94 116.59 152.44 115.75 152.24 114.93 C 152.04 114.11 151.21 113.60 150.38 113.80 L 149.44 114.04 C 148.62 114.24 148.11 115.07 148.31 115.89 C 148.51 116.71 149.35 117.22 150.17 117.02 Z M 151.11 116.77 L 152.06 116.54 C 152.88 116.34 153.38 115.52 153.18 114.70 C 152.98 113.89 152.16 113.39 151.34 113.59 L 150.39 113.82 C 149.57 114.02 149.07 114.84 149.27 115.66 C 149.47 116.47 150.30 116.97 151.11 116.77 Z M 152.06 116.52 L 153.04 116.29 C 153.85 116.09 154.34 115.28 154.15 114.47 C 153.95 113.66 153.14 113.17 152.33 113.36 L 151.35 113.60 C 150.54 113.80 150.05 114.61 150.24 115.42 C 150.44 116.22 151.25 116.72 152.06 116.52 Z M 153.03 116.27 L 154.04 116.03 C 154.84 115.84 155.33 115.04 155.14 114.24 C 154.95 113.44 154.15 112.95 153.35 113.14 L 152.34 113.38 C 151.54 113.57 151.05 114.37 151.24 115.17 C 151.43 115.97 152.23 116.46 153.03 116.27 Z M 154.03 116.03 L 155.01 115.80 C 155.81 115.61 156.30 114.82 156.12 114.03 C 155.94 113.23 155.14 112.73 154.35 112.92 L 153.36 113.15 C 152.57 113.33 152.07 114.12 152.25 114.92 C 152.44 115.71 153.23 116.21 154.03 116.03 Z M 155.00 115.79 L 156.02 115.56 C 156.81 115.39 157.31 114.60 157.13 113.81 C 156.95 113.01 156.16 112.52 155.37 112.70 L 154.36 112.92 C 153.56 113.10 153.07 113.89 153.25 114.68 C 153.42 115.47 154.21 115.97 155.00 115.79 Z M 156.01 115.56 L 157.02 115.34 C 157.81 115.16 158.31 114.38 158.14 113.59 C 157.96 112.80 157.18 112.30 156.39 112.48 L 155.38 112.70 C 154.59 112.87 154.09 113.65 154.26 114.44 C 154.44 115.23 155.22 115.73 156.01 115.56 Z M 157.01 115.33 L 158.00 115.12 C 158.79 114.95 159.29 114.18 159.12 113.39 C 158.95 112.61 158.18 112.10 157.39 112.27 L 156.40 112.48 C 155.62 112.65 155.11 113.42 155.28 114.21 C 155.45 115.00 156.22 115.50 157.01 115.33 Z M 157.99 115.12 L 158.93 114.92 C 159.72 114.76 160.22 113.99 160.06 113.21 C 159.90 112.43 159.13 111.92 158.35 112.08 L 157.41 112.28 C 156.62 112.44 156.12 113.20 156.28 113.99 C 156.44 114.77 157.20 115.28 157.99 115.12 Z M 158.92 114.92 L 159.92 114.72 C 160.70 114.57 161.21 113.81 161.06 113.03 C 160.90 112.25 160.15 111.74 159.36 111.89 L 158.36 112.09 C 157.58 112.24 157.07 113.00 157.22 113.78 C 157.38 114.56 158.14 115.07 158.92 114.92 Z M 159.90 114.72 L 160.99 114.52 C 161.78 114.38 162.29 113.63 162.15 112.85 C 162.01 112.07 161.26 111.55 160.48 111.69 L 159.38 111.89 C 158.60 112.03 158.08 112.78 158.23 113.56 C 158.37 114.35 159.12 114.86 159.90 114.72 Z M 160.97 114.52 L 161.95 114.36 C 162.73 114.23 163.26 113.49 163.13 112.71 C 163.00 111.93 162.26 111.40 161.48 111.53 L 160.50 111.69 C 159.72 111.82 159.19 112.56 159.32 113.34 C 159.45 114.13 160.19 114.65 160.97 114.52 Z M 161.93 114.36 L 162.83 114.22 C 163.61 114.10 164.15 113.37 164.03 112.59 C 163.91 111.81 163.18 111.27 162.40 111.39 L 161.50 111.53 C 160.71 111.65 160.18 112.38 160.30 113.16 C 160.42 113.95 161.15 114.48 161.93 114.36 Z M 162.82 114.22 L 163.50 114.12 C 164.28 114.00 164.82 113.28 164.70 112.50 C 164.59 111.72 163.86 111.18 163.08 111.29 L 162.40 111.40 C 161.62 111.51 161.09 112.24 161.20 113.02 C 161.32 113.80 162.05 114.33 162.82 114.22 Z"
      fill="black"
      fill-rule="nonzero" /><path d="M 146.14 123.76 L 145.18 123.98 C 144.35 124.18 143.83 125.01 144.02 125.84 C 144.21 126.68 145.05 127.20 145.88 127.00 L 146.84 126.78 C 147.67 126.59 148.19 125.76 148.00 124.93 C 147.81 124.09 146.98 123.57 146.14 123.76 Z M 145.07 123.99 L 144.13 124.28 C 143.30 124.54 142.83 125.42 143.09 126.25 C 143.34 127.07 144.22 127.54 145.05 127.28 L 145.99 126.99 C 146.82 126.74 147.29 125.86 147.03 125.03 C 146.78 124.20 145.90 123.74 145.07 123.99 Z M 143.91 124.35 L 142.99 124.78 C 142.20 125.15 141.86 126.10 142.23 126.89 C 142.60 127.69 143.55 128.03 144.34 127.65 L 145.26 127.22 C 146.06 126.85 146.40 125.90 146.03 125.11 C 145.65 124.32 144.71 123.97 143.91 124.35 Z M 142.75 124.90 L 142.00 125.43 C 141.27 125.93 141.09 126.93 141.60 127.65 C 142.10 128.38 143.10 128.56 143.83 128.06 L 144.58 127.53 C 145.31 127.03 145.49 126.03 144.98 125.30 C 144.48 124.58 143.48 124.40 142.75 124.90 Z M 141.84 125.55 L 141.13 126.19 C 140.47 126.79 140.42 127.80 141.02 128.46 C 141.61 129.12 142.63 129.17 143.28 128.57 L 143.99 127.93 C 144.65 127.33 144.70 126.32 144.10 125.66 C 143.51 125.01 142.49 124.96 141.84 125.55 Z M 141.03 126.29 L 140.33 127.05 C 139.73 127.70 139.76 128.71 140.42 129.32 C 141.07 129.92 142.08 129.88 142.69 129.23 L 143.38 128.47 C 143.99 127.82 143.95 126.81 143.30 126.20 C 142.65 125.60 141.63 125.64 141.03 126.29 Z M 140.27 127.11 L 139.57 127.96 C 139.00 128.65 139.10 129.66 139.79 130.22 C 140.47 130.79 141.49 130.69 142.05 130.01 L 142.75 129.16 C 143.31 128.47 143.22 127.46 142.53 126.90 C 141.84 126.33 140.83 126.43 140.27 127.11 Z M 139.53 128.00 L 138.91 128.81 C 138.37 129.51 138.50 130.52 139.21 131.06 C 139.91 131.61 140.92 131.47 141.46 130.77 L 142.08 129.96 C 142.63 129.26 142.49 128.25 141.79 127.71 C 141.09 127.17 140.08 127.30 139.53 128.00 Z M 138.89 128.84 L 138.28 129.66 C 137.76 130.38 137.91 131.39 138.63 131.91 C 139.34 132.44 140.35 132.29 140.87 131.57 L 141.48 130.74 C 142.01 130.03 141.86 129.02 141.14 128.49 C 140.43 127.97 139.42 128.12 138.89 128.84 Z M 138.27 129.69 L 137.68 130.52 C 137.16 131.24 137.33 132.24 138.06 132.76 C 138.78 133.27 139.79 133.10 140.30 132.38 L 140.89 131.55 C 141.40 130.83 141.24 129.82 140.51 129.31 C 139.79 128.79 138.78 128.96 138.27 129.69 Z M 137.67 130.53 L 137.11 131.33 C 136.61 132.06 136.79 133.07 137.52 133.57 C 138.25 134.08 139.25 133.90 139.76 133.16 L 140.31 132.36 C 140.82 131.63 140.64 130.63 139.91 130.13 C 139.18 129.62 138.17 129.80 137.67 130.53 Z M 137.10 131.35 L 136.53 132.19 C 136.03 132.92 136.23 133.92 136.96 134.42 C 137.69 134.92 138.69 134.73 139.19 133.99 L 139.76 133.15 C 140.26 132.42 140.07 131.42 139.34 130.92 C 138.60 130.42 137.60 130.61 137.10 131.35 Z M 136.53 132.20 L 135.96 133.05 C 135.47 133.78 135.67 134.78 136.41 135.27 C 137.14 135.76 138.14 135.56 138.63 134.83 L 139.19 133.98 C 139.69 133.24 139.49 132.25 138.75 131.76 C 138.02 131.27 137.02 131.47 136.53 132.20 Z M 135.96 133.06 L 135.43 133.86 C 134.95 134.60 135.15 135.59 135.89 136.08 C 136.62 136.56 137.61 136.36 138.10 135.62 L 138.63 134.82 C 139.12 134.08 138.91 133.09 138.18 132.61 C 137.44 132.12 136.45 132.32 135.96 133.06 Z M 135.44 133.87 L 134.91 134.68 C 134.42 135.41 134.63 136.40 135.36 136.88 C 136.09 137.36 137.08 137.16 137.56 136.42 L 138.09 135.62 C 138.58 134.88 138.37 133.90 137.64 133.41 C 136.91 132.93 135.92 133.14 135.44 133.87 Z M 134.91 134.68 L 134.39 135.47 C 133.90 136.20 134.11 137.19 134.84 137.67 C 135.57 138.15 136.55 137.95 137.03 137.22 L 137.56 136.42 C 138.04 135.69 137.84 134.71 137.11 134.23 C 136.38 133.74 135.39 133.95 134.91 134.68 Z M 134.39 135.48 L 133.84 136.30 C 133.36 137.03 133.57 138.01 134.29 138.49 C 135.02 138.97 136.00 138.77 136.48 138.04 L 137.03 137.22 C 137.51 136.49 137.31 135.51 136.58 135.03 C 135.85 134.55 134.87 134.75 134.39 135.48 Z M 133.85 136.31 L 133.29 137.17 C 132.81 137.90 133.02 138.87 133.74 139.35 C 134.47 139.82 135.45 139.62 135.92 138.89 L 136.48 138.04 C 136.96 137.31 136.75 136.33 136.02 135.86 C 135.30 135.38 134.32 135.59 133.85 136.31 Z M 133.29 137.18 L 132.73 138.04 C 132.26 138.77 132.47 139.74 133.20 140.21 C 133.93 140.68 134.90 140.47 135.37 139.74 L 135.92 138.88 C 136.39 138.15 136.18 137.18 135.45 136.71 C 134.72 136.24 133.75 136.45 133.29 137.18 Z M 132.73 138.06 L 132.21 138.88 C 131.75 139.61 131.97 140.57 132.69 141.03 C 133.42 141.49 134.39 141.28 134.85 140.55 L 135.37 139.73 C 135.83 139.00 135.61 138.03 134.89 137.57 C 134.16 137.11 133.19 137.33 132.73 138.06 Z M 132.21 138.89 L 131.69 139.73 C 131.23 140.45 131.45 141.41 132.17 141.87 C 132.90 142.33 133.86 142.11 134.32 141.38 L 134.84 140.54 C 135.30 139.82 135.08 138.86 134.36 138.40 C 133.63 137.94 132.67 138.16 132.21 138.89 Z M 131.69 139.73 L 131.15 140.58 C 130.69 141.30 130.91 142.26 131.63 142.72 C 132.35 143.17 133.31 142.96 133.76 142.24 L 134.31 141.38 C 134.76 140.66 134.55 139.70 133.83 139.25 C 133.11 138.79 132.15 139.00 131.69 139.73 Z M 131.16 140.58 L 130.61 141.44 C 130.15 142.16 130.35 143.11 131.07 143.57 C 131.78 144.03 132.74 143.82 133.20 143.11 L 133.75 142.24 C 134.21 141.53 134.01 140.58 133.29 140.12 C 132.58 139.66 131.62 139.86 131.16 140.58 Z M 130.62 141.43 L 130.07 142.28 C 129.60 142.99 129.80 143.94 130.51 144.40 C 131.21 144.86 132.16 144.67 132.63 143.96 L 133.18 143.12 C 133.65 142.41 133.45 141.46 132.74 140.99 C 132.04 140.53 131.09 140.73 130.62 141.43 Z M 130.08 142.27 L 129.52 143.12 C 129.05 143.82 129.24 144.77 129.94 145.23 C 130.64 145.70 131.59 145.51 132.05 144.81 L 132.62 143.96 C 133.08 143.26 132.89 142.32 132.19 141.85 C 131.49 141.38 130.54 141.57 130.08 142.27 Z M 129.52 143.12 L 128.97 143.95 C 128.50 144.65 128.69 145.59 129.38 146.06 C 130.08 146.52 131.02 146.34 131.49 145.64 L 132.05 144.81 C 132.51 144.11 132.32 143.17 131.63 142.70 C 130.93 142.24 129.99 142.42 129.52 143.12 Z M 128.97 143.96 L 128.43 144.77 C 127.97 145.46 128.15 146.40 128.84 146.86 C 129.54 147.33 130.48 147.14 130.94 146.45 L 131.48 145.64 C 131.94 144.94 131.76 144.01 131.07 143.54 C 130.37 143.08 129.44 143.27 128.97 143.96 Z M 128.43 144.78 L 127.90 145.58 C 127.44 146.27 127.63 147.20 128.32 147.66 C 129.01 148.12 129.95 147.93 130.41 147.24 L 130.94 146.44 C 131.39 145.75 131.21 144.82 130.52 144.36 C 129.82 143.90 128.89 144.09 128.43 144.78 Z M 127.90 145.59 L 127.38 146.38 C 126.93 147.07 127.12 148.00 127.81 148.45 C 128.50 148.90 129.43 148.71 129.88 148.02 L 130.40 147.23 C 130.86 146.54 130.67 145.61 129.98 145.16 C 129.28 144.70 128.36 144.90 127.90 145.59 Z M 127.38 146.39 L 126.85 147.22 C 126.40 147.91 126.59 148.83 127.28 149.28 C 127.97 149.72 128.89 149.53 129.34 148.84 L 129.88 148.01 C 130.33 147.32 130.13 146.40 129.44 145.95 C 128.75 145.51 127.83 145.70 127.38 146.39 Z M 126.85 147.23 L 126.27 148.13 C 125.83 148.81 126.03 149.73 126.72 150.17 C 127.40 150.61 128.32 150.42 128.76 149.73 L 129.34 148.83 C 129.78 148.14 129.58 147.23 128.89 146.78 C 128.21 146.34 127.29 146.54 126.85 147.23 Z M 126.27 148.13 L 125.73 148.98 C 125.30 149.67 125.50 150.58 126.18 151.02 C 126.87 151.45 127.78 151.25 128.22 150.57 L 128.76 149.72 C 129.20 149.03 129.00 148.12 128.31 147.68 C 127.62 147.25 126.71 147.45 126.27 148.13 Z M 125.74 148.99 L 125.19 149.84 C 124.76 150.53 124.96 151.43 125.65 151.87 C 126.33 152.30 127.24 152.10 127.67 151.42 L 128.22 150.56 C 128.65 149.88 128.45 148.97 127.76 148.53 C 127.08 148.10 126.17 148.30 125.74 148.99 Z M 125.20 149.85 L 124.64 150.73 C 124.21 151.41 124.41 152.31 125.10 152.74 C 125.78 153.18 126.69 152.97 127.12 152.29 L 127.67 151.41 C 128.10 150.73 127.90 149.82 127.21 149.39 C 126.53 148.96 125.63 149.16 125.20 149.85 Z M 124.64 150.73 L 124.10 151.60 C 123.67 152.28 123.88 153.18 124.56 153.61 C 125.24 154.04 126.14 153.83 126.57 153.15 L 127.12 152.28 C 127.54 151.60 127.34 150.70 126.65 150.27 C 125.97 149.84 125.07 150.05 124.64 150.73 Z M 124.10 151.61 L 123.58 152.44 C 123.16 153.12 123.37 154.02 124.05 154.44 C 124.73 154.86 125.63 154.66 126.05 153.97 L 126.57 153.14 C 126.99 152.46 126.78 151.57 126.10 151.14 C 125.42 150.72 124.52 150.93 124.10 151.61 Z M 123.58 152.45 L 123.02 153.37 C 122.60 154.05 122.81 154.94 123.49 155.36 C 124.17 155.78 125.07 155.57 125.49 154.89 L 126.05 153.97 C 126.47 153.28 126.26 152.39 125.58 151.97 C 124.89 151.55 124.00 151.77 123.58 152.45 Z M 123.02 153.38 L 122.47 154.28 C 122.06 154.96 122.28 155.85 122.96 156.26 C 123.64 156.68 124.53 156.46 124.94 155.78 L 125.49 154.87 C 125.90 154.19 125.68 153.31 125.00 152.89 C 124.32 152.48 123.43 152.70 123.02 153.38 Z M 122.47 154.29 L 121.98 155.11 C 121.57 155.79 121.80 156.68 122.48 157.08 C 123.16 157.49 124.04 157.27 124.45 156.59 L 124.94 155.77 C 125.34 155.09 125.12 154.20 124.44 153.80 C 123.76 153.39 122.88 153.61 122.47 154.29 Z M 121.98 155.12 L 121.52 155.90 C 121.12 156.58 121.35 157.45 122.03 157.86 C 122.71 158.26 123.58 158.03 123.99 157.35 L 124.45 156.58 C 124.85 155.90 124.62 155.02 123.94 154.62 C 123.26 154.22 122.39 154.44 121.98 155.12 Z M 121.53 155.90 L 121.45 156.03 C 121.05 156.71 121.27 157.59 121.95 157.99 C 122.63 158.39 123.50 158.16 123.90 157.49 L 123.98 157.35 C 124.38 156.67 124.16 155.80 123.48 155.40 C 122.80 155.00 121.93 155.22 121.53 155.90 Z"
      fill="black"
      fill-rule="nonzero" /><path d="M 108.56 141.48 L 108.02 142.30 C 107.55 143.01 107.74 143.96 108.45 144.44 C 109.16 144.91 110.11 144.72 110.59 144.01 L 111.13 143.19 C 111.60 142.49 111.41 141.53 110.70 141.06 C 109.99 140.58 109.03 140.78 108.56 141.48 Z M 107.95 142.39 L 107.46 143.25 C 107.04 144.00 107.31 144.94 108.06 145.37 C 108.80 145.79 109.75 145.52 110.17 144.77 L 110.66 143.92 C 111.08 143.17 110.82 142.22 110.07 141.80 C 109.32 141.37 108.37 141.64 107.95 142.39 Z M 107.36 143.44 L 106.99 144.40 C 106.67 145.20 107.07 146.11 107.88 146.43 C 108.68 146.74 109.59 146.34 109.91 145.53 L 110.28 144.58 C 110.59 143.77 110.19 142.86 109.39 142.55 C 108.58 142.24 107.67 142.63 107.36 143.44 Z M 106.90 144.64 L 106.71 145.55 C 106.53 146.41 107.08 147.24 107.93 147.42 C 108.79 147.60 109.62 147.05 109.80 146.20 L 109.99 145.29 C 110.17 144.43 109.62 143.60 108.77 143.42 C 107.92 143.24 107.08 143.79 106.90 144.64 Z M 106.68 145.75 L 106.60 146.72 C 106.53 147.60 107.18 148.36 108.05 148.43 C 108.93 148.50 109.69 147.85 109.76 146.97 L 109.84 146.00 C 109.91 145.13 109.25 144.37 108.38 144.30 C 107.51 144.23 106.74 144.88 106.68 145.75 Z M 106.59 146.87 L 106.60 147.90 C 106.61 148.78 107.34 149.49 108.22 149.47 C 109.10 149.46 109.80 148.74 109.79 147.86 L 109.77 146.83 C 109.76 145.95 109.04 145.24 108.16 145.26 C 107.28 145.27 106.57 145.99 106.59 146.87 Z M 106.60 148.02 L 106.69 149.08 C 106.77 149.96 107.54 150.61 108.42 150.53 C 109.31 150.46 109.96 149.68 109.88 148.80 L 109.79 147.74 C 109.71 146.86 108.94 146.21 108.06 146.29 C 107.18 146.36 106.52 147.14 106.60 148.02 Z M 106.70 149.16 L 106.83 150.11 C 106.95 150.99 107.76 151.60 108.64 151.48 C 109.52 151.35 110.13 150.54 110.01 149.67 L 109.88 148.72 C 109.75 147.84 108.94 147.23 108.06 147.35 C 107.19 147.47 106.57 148.28 106.70 149.16 Z M 106.84 150.17 L 107.01 151.14 C 107.17 152.01 108.01 152.59 108.88 152.44 C 109.75 152.28 110.33 151.44 110.18 150.57 L 110.00 149.60 C 109.84 148.73 109.01 148.15 108.13 148.31 C 107.26 148.46 106.68 149.30 106.84 150.17 Z M 107.02 151.19 L 107.23 152.18 C 107.42 153.05 108.27 153.60 109.14 153.42 C 110.01 153.23 110.56 152.38 110.38 151.51 L 110.17 150.52 C 109.98 149.65 109.13 149.09 108.26 149.28 C 107.39 149.47 106.83 150.32 107.02 151.19 Z M 107.24 152.21 L 107.48 153.22 C 107.68 154.09 108.55 154.63 109.42 154.42 C 110.28 154.22 110.82 153.35 110.61 152.48 L 110.37 151.47 C 110.17 150.60 109.30 150.07 108.43 150.27 C 107.57 150.48 107.03 151.35 107.24 152.21 Z M 107.48 153.25 L 107.70 154.13 C 107.92 155.00 108.80 155.52 109.66 155.30 C 110.53 155.09 111.05 154.21 110.83 153.35 L 110.61 152.46 C 110.39 151.59 109.51 151.07 108.65 151.29 C 107.79 151.50 107.26 152.38 107.48 153.25 Z M 107.70 154.14 L 107.93 155.00 C 108.15 155.87 109.03 156.39 109.89 156.16 C 110.76 155.94 111.28 155.06 111.05 154.20 L 110.83 153.33 C 110.61 152.47 109.73 151.95 108.86 152.18 C 108.00 152.40 107.48 153.28 107.70 154.14 Z M 107.93 155.01 L 108.17 155.92 C 108.39 156.78 109.27 157.30 110.13 157.07 C 111.00 156.85 111.51 155.97 111.29 155.10 L 111.05 154.19 C 110.83 153.33 109.95 152.81 109.08 153.04 C 108.22 153.26 107.70 154.14 107.93 155.01 Z M 108.16 155.91 L 108.42 156.90 C 108.64 157.76 109.52 158.28 110.38 158.06 C 111.25 157.83 111.77 156.95 111.54 156.09 L 111.29 155.11 C 111.07 154.25 110.19 153.73 109.32 153.95 C 108.46 154.17 107.94 155.05 108.16 155.91 Z M 108.41 156.89 L 108.68 157.96 C 108.90 158.82 109.78 159.35 110.64 159.13 C 111.51 158.91 112.03 158.04 111.81 157.17 L 111.55 156.10 C 111.33 155.24 110.45 154.71 109.59 154.93 C 108.72 155.15 108.20 156.02 108.41 156.89 Z M 108.68 157.95 L 108.95 159.05 C 109.16 159.92 110.03 160.45 110.90 160.24 C 111.76 160.03 112.30 159.16 112.09 158.29 L 111.82 157.19 C 111.61 156.32 110.74 155.79 109.87 156.00 C 109.00 156.21 108.47 157.08 108.68 157.95 Z M 108.95 159.04 L 109.18 160.02 C 109.38 160.88 110.25 161.42 111.12 161.22 C 111.98 161.01 112.52 160.15 112.32 159.28 L 112.09 158.31 C 111.88 157.44 111.02 156.90 110.15 157.10 C 109.28 157.31 108.75 158.18 108.95 159.04 Z M 109.18 160.01 L 109.41 161.02 C 109.61 161.89 110.47 162.43 111.34 162.23 C 112.21 162.03 112.75 161.17 112.55 160.30 L 112.32 159.29 C 112.12 158.42 111.25 157.88 110.39 158.08 C 109.52 158.28 108.98 159.14 109.18 160.01 Z M 109.41 161.02 L 109.64 162.05 C 109.84 162.91 110.70 163.46 111.57 163.26 C 112.43 163.07 112.98 162.21 112.78 161.34 L 112.55 160.31 C 112.35 159.44 111.49 158.90 110.63 159.09 C 109.76 159.29 109.22 160.15 109.41 161.02 Z M 109.65 162.04 L 109.87 163.07 C 110.07 163.93 110.92 164.48 111.79 164.28 C 112.65 164.09 113.20 163.23 113.01 162.37 L 112.78 161.34 C 112.59 160.48 111.73 159.93 110.86 160.13 C 110.00 160.32 109.45 161.18 109.65 162.04 Z M 109.87 163.06 L 110.09 164.05 C 110.28 164.92 111.14 165.47 112.00 165.27 C 112.87 165.08 113.41 164.23 113.22 163.36 L 113.01 162.37 C 112.82 161.51 111.96 160.96 111.10 161.15 C 110.23 161.34 109.68 162.20 109.87 163.06 Z M 110.09 164.05 L 110.30 164.98 C 110.49 165.85 111.34 166.40 112.20 166.21 C 113.07 166.02 113.62 165.17 113.43 164.30 L 113.22 163.37 C 113.03 162.50 112.18 161.96 111.32 162.14 C 110.45 162.33 109.91 163.19 110.09 164.05 Z M 110.30 164.98 L 110.50 165.89 C 110.68 166.75 111.53 167.30 112.40 167.11 C 113.26 166.93 113.81 166.08 113.62 165.21 L 113.42 164.30 C 113.24 163.44 112.39 162.89 111.52 163.08 C 110.66 163.27 110.11 164.12 110.30 164.98 Z M 110.50 165.89 L 110.76 167.05 C 110.94 167.91 111.79 168.46 112.64 168.28 C 113.50 168.09 114.05 167.25 113.86 166.39 L 113.61 165.22 C 113.43 164.36 112.58 163.81 111.72 164.00 C 110.87 164.18 110.32 165.03 110.50 165.89 Z M 110.77 167.05 L 110.98 168.04 C 111.16 168.89 112.00 169.43 112.85 169.25 C 113.70 169.07 114.24 168.23 114.06 167.38 L 113.85 166.39 C 113.67 165.54 112.83 165.00 111.98 165.18 C 111.13 165.36 110.59 166.20 110.77 167.05 Z M 110.99 168.03 L 111.18 168.92 C 111.36 169.76 112.19 170.30 113.04 170.12 C 113.88 169.94 114.42 169.11 114.24 168.27 L 114.05 167.38 C 113.87 166.54 113.04 166.00 112.19 166.18 C 111.35 166.36 110.81 167.19 110.99 168.03 Z M 111.19 168.92 L 111.38 169.78 C 111.56 170.62 112.38 171.15 113.22 170.97 C 114.06 170.79 114.59 169.97 114.41 169.13 L 114.23 168.27 C 114.05 167.43 113.22 166.90 112.38 167.08 C 111.55 167.26 111.01 168.08 111.19 168.92 Z M 111.39 169.78 L 111.59 170.70 C 111.77 171.53 112.59 172.06 113.42 171.88 C 114.25 171.70 114.78 170.87 114.60 170.04 L 114.40 169.13 C 114.22 168.30 113.40 167.77 112.57 167.95 C 111.74 168.13 111.21 168.95 111.39 169.78 Z M 111.60 170.70 L 111.81 171.68 C 111.99 172.51 112.81 173.03 113.64 172.85 C 114.47 172.66 114.99 171.84 114.81 171.02 L 114.59 170.04 C 114.41 169.21 113.59 168.69 112.76 168.87 C 111.94 169.06 111.41 169.87 111.60 170.70 Z M 111.82 171.68 L 112.05 172.69 C 112.23 173.51 113.05 174.03 113.87 173.84 C 114.69 173.65 115.21 172.84 115.03 172.01 L 114.80 171.01 C 114.61 170.19 113.80 169.67 112.97 169.86 C 112.15 170.04 111.63 170.86 111.82 171.68 Z M 112.05 172.69 L 112.28 173.68 C 112.47 174.50 113.29 175.01 114.11 174.82 C 114.93 174.63 115.44 173.82 115.25 173.00 L 115.02 172.01 C 114.83 171.19 114.01 170.68 113.19 170.87 C 112.37 171.06 111.86 171.87 112.05 172.69 Z M 112.29 173.69 L 112.53 174.69 C 112.73 175.50 113.54 176.00 114.36 175.81 C 115.17 175.61 115.67 174.79 115.48 173.98 L 115.24 172.99 C 115.04 172.17 114.22 171.67 113.41 171.87 C 112.60 172.06 112.10 172.88 112.29 173.69 Z M 112.55 174.72 L 112.82 175.73 C 113.03 176.54 113.85 177.02 114.65 176.81 C 115.46 176.60 115.94 175.77 115.73 174.97 L 115.46 173.95 C 115.25 173.15 114.42 172.67 113.62 172.88 C 112.82 173.09 112.34 173.91 112.55 174.72 Z M 112.85 175.81 L 113.15 176.75 C 113.40 177.53 114.24 177.97 115.03 177.71 C 115.81 177.46 116.24 176.62 115.99 175.84 L 115.69 174.90 C 115.44 174.11 114.60 173.68 113.82 173.93 C 113.03 174.18 112.60 175.02 112.85 175.81 Z M 113.21 176.86 L 113.57 177.74 C 113.89 178.49 114.75 178.85 115.51 178.54 C 116.26 178.22 116.62 177.35 116.30 176.60 L 115.94 175.72 C 115.62 174.97 114.76 174.61 114.00 174.93 C 113.25 175.24 112.89 176.11 113.21 176.86 Z M 113.66 177.89 L 114.13 178.72 C 114.52 179.43 115.42 179.68 116.13 179.29 C 116.83 178.89 117.08 177.99 116.69 177.29 L 116.22 176.45 C 115.82 175.74 114.93 175.49 114.22 175.89 C 113.51 176.29 113.26 177.18 113.66 177.89 Z M 114.22 178.85 L 114.79 179.65 C 115.26 180.31 116.17 180.46 116.83 180.00 C 117.48 179.53 117.63 178.62 117.17 177.96 L 116.59 177.16 C 116.13 176.50 115.22 176.35 114.56 176.82 C 113.90 177.29 113.75 178.20 114.22 178.85 Z M 114.86 179.73 L 115.50 180.51 C 116.01 181.12 116.93 181.21 117.54 180.70 C 118.16 180.19 118.25 179.28 117.74 178.66 L 117.10 177.89 C 116.59 177.27 115.67 177.18 115.06 177.69 C 114.44 178.20 114.35 179.12 114.86 179.73 Z M 115.54 180.54 L 116.22 181.30 C 116.75 181.90 117.66 181.95 118.26 181.42 C 118.85 180.89 118.90 179.98 118.37 179.39 L 117.70 178.63 C 117.17 178.03 116.26 177.98 115.66 178.51 C 115.07 179.04 115.02 179.95 115.54 180.54 Z M 116.23 181.31 L 116.32 181.40 C 116.85 181.99 117.76 182.04 118.35 181.50 C 118.93 180.97 118.98 180.06 118.45 179.48 L 118.36 179.38 C 117.83 178.79 116.92 178.75 116.33 179.28 C 115.75 179.81 115.70 180.72 116.23 181.31 Z"
      fill="black"
      fill-rule="nonzero" /><path d="M 109.31 151.34 L 108.30 151.34 C 107.42 151.34 106.71 152.05 106.71 152.93 C 106.71 153.80 107.42 154.51 108.30 154.51 L 109.32 154.51 C 110.19 154.51 110.90 153.80 110.90 152.92 C 110.90 152.05 110.19 151.34 109.31 151.34 Z M 108.29 151.33 L 107.28 151.34 C 106.40 151.35 105.70 152.06 105.70 152.94 C 105.71 153.82 106.42 154.52 107.30 154.52 L 108.31 154.51 C 109.19 154.51 109.89 153.79 109.89 152.91 C 109.88 152.04 109.17 151.33 108.29 151.33 Z M 107.26 151.34 L 106.27 151.35 C 105.39 151.37 104.69 152.09 104.70 152.97 C 104.72 153.85 105.44 154.55 106.32 154.54 L 107.31 154.52 C 108.19 154.51 108.90 153.78 108.88 152.90 C 108.87 152.02 108.14 151.32 107.26 151.34 Z M 106.24 151.34 L 105.15 151.38 C 104.26 151.41 103.57 152.15 103.60 153.03 C 103.63 153.92 104.37 154.61 105.25 154.58 L 106.35 154.55 C 107.23 154.52 107.92 153.78 107.90 152.89 C 107.87 152.01 107.13 151.32 106.24 151.34 Z M 105.10 151.36 L 103.78 151.45 C 102.89 151.50 102.21 152.27 102.26 153.17 C 102.32 154.06 103.09 154.74 103.98 154.68 L 105.30 154.60 C 106.19 154.54 106.87 153.77 106.82 152.88 C 106.76 151.99 105.99 151.31 105.10 151.36 Z M 103.60 151.44 L 102.99 151.54 C 102.09 151.70 101.49 152.55 101.65 153.45 C 101.80 154.35 102.66 154.95 103.55 154.80 L 104.16 154.69 C 105.06 154.53 105.66 153.68 105.51 152.78 C 105.35 151.88 104.50 151.28 103.60 151.44 Z M 102.85 154.79 L 103.18 154.88 C 104.08 155.11 104.99 154.58 105.23 153.69 C 105.46 152.79 104.93 151.88 104.04 151.64 L 103.70 151.55 C 102.81 151.32 101.89 151.85 101.66 152.74 C 101.42 153.64 101.95 154.55 102.85 154.79 Z M 103.48 154.94 L 104.45 155.01 C 105.37 155.09 106.18 154.40 106.26 153.47 C 106.33 152.55 105.64 151.74 104.72 151.66 L 103.75 151.58 C 102.82 151.51 102.01 152.20 101.93 153.13 C 101.86 154.05 102.55 154.86 103.48 154.94 Z M 104.51 155.03 L 105.91 155.09 C 106.84 155.13 107.63 154.41 107.67 153.47 C 107.71 152.54 106.99 151.75 106.05 151.71 L 104.66 151.65 C 103.72 151.61 102.93 152.33 102.89 153.26 C 102.85 154.20 103.58 154.99 104.51 155.03 Z M 105.94 155.10 L 107.03 155.12 C 107.97 155.15 108.75 154.40 108.77 153.47 C 108.79 152.53 108.05 151.75 107.11 151.73 L 106.02 151.70 C 105.08 151.68 104.31 152.42 104.28 153.36 C 104.26 154.29 105.00 155.07 105.94 155.10 Z M 107.05 155.13 L 108.06 155.14 C 109.00 155.15 109.77 154.40 109.78 153.46 C 109.79 152.52 109.04 151.75 108.10 151.74 L 107.09 151.72 C 106.15 151.71 105.38 152.46 105.37 153.40 C 105.36 154.34 106.11 155.11 107.05 155.13 Z M 108.08 155.14 L 109.10 155.14 C 110.05 155.15 110.81 154.39 110.81 153.44 C 110.81 152.50 110.05 151.74 109.11 151.74 L 108.09 151.73 C 107.14 151.73 106.38 152.49 106.38 153.43 C 106.38 154.37 107.14 155.14 108.08 155.14 Z M 109.12 155.15 L 110.14 155.14 C 111.08 155.13 111.84 154.36 111.83 153.42 C 111.83 152.48 111.06 151.72 110.11 151.73 L 109.10 151.74 C 108.15 151.74 107.40 152.51 107.40 153.45 C 107.41 154.40 108.18 155.15 109.12 155.15 Z M 110.16 155.14 L 111.14 155.12 C 112.08 155.11 112.83 154.33 112.82 153.38 C 112.80 152.44 112.02 151.69 111.08 151.71 L 110.10 151.73 C 109.15 151.74 108.40 152.52 108.42 153.46 C 108.44 154.41 109.21 155.16 110.16 155.14 Z M 111.16 155.12 L 112.21 155.09 C 113.16 155.06 113.90 154.27 113.87 153.33 C 113.84 152.38 113.05 151.64 112.10 151.67 L 111.05 151.71 C 110.11 151.74 109.37 152.53 109.40 153.47 C 109.43 154.41 110.22 155.15 111.16 155.12 Z M 112.25 155.09 L 113.27 155.04 C 114.21 154.99 114.94 154.19 114.89 153.24 C 114.85 152.30 114.04 151.57 113.10 151.62 L 112.07 151.67 C 111.13 151.72 110.40 152.52 110.45 153.47 C 110.50 154.41 111.30 155.14 112.25 155.09 Z M 113.31 155.04 L 114.28 154.97 C 115.23 154.90 115.94 154.07 115.87 153.13 C 115.79 152.19 114.97 151.48 114.03 151.55 L 113.06 151.62 C 112.11 151.69 111.40 152.51 111.47 153.46 C 111.55 154.40 112.37 155.11 113.31 155.04 Z M 114.33 154.96 L 115.28 154.87 C 116.22 154.77 116.91 153.93 116.81 152.99 C 116.72 152.04 115.87 151.36 114.93 151.45 L 113.98 151.55 C 113.04 151.65 112.35 152.49 112.45 153.43 C 112.55 154.37 113.39 155.06 114.33 154.96 Z M 115.33 154.86 L 116.27 154.74 C 117.21 154.62 117.87 153.76 117.75 152.82 C 117.63 151.88 116.76 151.21 115.82 151.33 L 114.88 151.46 C 113.94 151.58 113.28 152.44 113.40 153.38 C 113.52 154.32 114.39 154.99 115.33 154.86 Z M 116.31 154.74 L 117.26 154.59 C 118.19 154.44 118.84 153.57 118.69 152.63 C 118.55 151.69 117.67 151.05 116.73 151.19 L 115.78 151.34 C 114.84 151.48 114.20 152.36 114.35 153.30 C 114.49 154.24 115.37 154.88 116.31 154.74 Z M 117.29 154.59 L 118.26 154.42 C 119.20 154.25 119.83 153.36 119.66 152.43 C 119.50 151.49 118.61 150.86 117.67 151.03 L 116.70 151.20 C 115.76 151.36 115.14 152.25 115.30 153.19 C 115.46 154.12 116.35 154.75 117.29 154.59 Z M 118.29 154.41 L 119.29 154.22 C 120.23 154.05 120.84 153.15 120.67 152.21 C 120.49 151.28 119.59 150.66 118.66 150.84 L 117.65 151.03 C 116.72 151.21 116.10 152.11 116.28 153.04 C 116.45 153.97 117.35 154.59 118.29 154.41 Z M 119.31 154.22 L 120.34 154.02 C 121.27 153.83 121.88 152.93 121.69 151.99 C 121.51 151.06 120.60 150.45 119.67 150.64 L 118.64 150.84 C 117.71 151.03 117.10 151.93 117.29 152.87 C 117.47 153.80 118.38 154.41 119.31 154.22 Z M 120.35 154.02 L 121.28 153.83 C 122.21 153.64 122.82 152.73 122.63 151.80 C 122.44 150.86 121.53 150.26 120.60 150.45 L 119.66 150.64 C 118.73 150.83 118.13 151.74 118.32 152.67 C 118.50 153.60 119.41 154.21 120.35 154.02 Z M 121.29 153.83 L 122.25 153.63 C 123.18 153.43 123.78 152.52 123.59 151.59 C 123.39 150.65 122.48 150.06 121.55 150.25 L 120.59 150.45 C 119.66 150.64 119.06 151.56 119.25 152.49 C 119.45 153.42 120.36 154.02 121.29 153.83 Z M 122.26 153.63 L 123.25 153.42 C 124.18 153.22 124.77 152.30 124.57 151.37 C 124.37 150.44 123.46 149.84 122.52 150.04 L 121.54 150.25 C 120.61 150.45 120.01 151.37 120.21 152.30 C 120.41 153.23 121.33 153.82 122.26 153.63 Z M 123.26 153.41 L 124.26 153.19 C 125.19 152.99 125.78 152.07 125.57 151.14 C 125.37 150.20 124.45 149.62 123.52 149.82 L 122.51 150.04 C 121.58 150.25 120.99 151.17 121.20 152.10 C 121.40 153.03 122.32 153.62 123.26 153.41 Z M 124.27 153.19 L 125.28 152.96 C 126.21 152.75 126.79 151.82 126.58 150.89 C 126.37 149.96 125.44 149.38 124.51 149.59 L 123.50 149.82 C 122.57 150.03 121.99 150.96 122.20 151.89 C 122.41 152.82 123.34 153.40 124.27 153.19 Z M 125.29 152.96 L 126.24 152.74 C 127.17 152.52 127.75 151.59 127.53 150.66 C 127.31 149.73 126.38 149.15 125.45 149.37 L 124.50 149.60 C 123.57 149.81 123.00 150.74 123.22 151.67 C 123.43 152.60 124.36 153.18 125.29 152.96 Z M 126.25 152.73 L 127.21 152.50 C 128.14 152.28 128.71 151.35 128.48 150.42 C 128.26 149.49 127.32 148.92 126.40 149.14 L 125.44 149.37 C 124.51 149.60 123.94 150.53 124.17 151.46 C 124.39 152.39 125.32 152.96 126.25 152.73 Z M 127.22 152.50 L 128.19 152.26 C 129.11 152.03 129.68 151.09 129.45 150.17 C 129.22 149.24 128.28 148.68 127.35 148.91 L 126.39 149.15 C 125.46 149.38 124.89 150.31 125.12 151.24 C 125.35 152.17 126.29 152.73 127.22 152.50 Z M 128.20 152.26 L 129.17 152.01 C 130.10 151.78 130.66 150.83 130.42 149.91 C 130.19 148.98 129.25 148.42 128.32 148.66 L 127.34 148.91 C 126.42 149.14 125.86 150.08 126.09 151.01 C 126.33 151.94 127.27 152.50 128.20 152.26 Z M 129.18 152.01 L 130.17 151.75 C 131.10 151.51 131.65 150.57 131.41 149.64 C 131.17 148.72 130.23 148.16 129.30 148.40 L 128.31 148.66 C 127.39 148.90 126.83 149.85 127.07 150.77 C 127.31 151.70 128.26 152.25 129.18 152.01 Z M 130.18 151.75 L 131.15 151.49 C 132.07 151.25 132.62 150.30 132.38 149.38 C 132.13 148.45 131.18 147.90 130.26 148.15 L 129.30 148.40 C 128.37 148.65 127.82 149.60 128.07 150.52 C 128.31 151.45 129.26 152.00 130.18 151.75 Z M 131.16 151.49 L 132.11 151.24 C 133.03 150.99 133.58 150.04 133.33 149.11 C 133.08 148.19 132.13 147.64 131.20 147.89 L 130.25 148.15 C 129.33 148.40 128.78 149.35 129.03 150.27 C 129.28 151.20 130.23 151.74 131.16 151.49 Z M 132.11 151.24 L 133.07 150.97 C 133.99 150.72 134.54 149.77 134.29 148.85 C 134.03 147.92 133.08 147.38 132.16 147.63 L 131.20 147.89 C 130.28 148.14 129.73 149.10 129.98 150.02 C 130.24 150.94 131.19 151.49 132.11 151.24 Z M 133.07 150.97 L 134.04 150.71 C 134.96 150.45 135.51 149.50 135.25 148.58 C 135.00 147.65 134.05 147.11 133.12 147.37 L 132.15 147.63 C 131.23 147.89 130.69 148.84 130.94 149.76 C 131.20 150.69 132.15 151.23 133.07 150.97 Z M 134.04 150.71 L 135.02 150.44 C 135.94 150.18 136.48 149.23 136.23 148.31 C 135.97 147.38 135.02 146.84 134.09 147.10 L 133.12 147.36 C 132.20 147.62 131.66 148.57 131.91 149.50 C 132.17 150.42 133.12 150.96 134.04 150.71 Z M 135.02 150.44 L 136.00 150.17 C 136.92 149.91 137.46 148.96 137.21 148.03 C 136.95 147.11 136.00 146.57 135.07 146.82 L 134.09 147.09 C 133.17 147.35 132.63 148.31 132.88 149.23 C 133.14 150.15 134.09 150.70 135.02 150.44 Z M 136.00 150.17 L 136.95 149.91 C 137.87 149.65 138.42 148.70 138.16 147.77 C 137.91 146.85 136.95 146.31 136.03 146.56 L 135.07 146.82 C 134.15 147.08 133.61 148.03 133.86 148.96 C 134.12 149.88 135.07 150.42 136.00 150.17 Z M 136.95 149.91 L 137.89 149.65 C 138.82 149.39 139.36 148.44 139.11 147.51 C 138.85 146.59 137.89 146.04 136.97 146.30 L 136.03 146.56 C 135.10 146.81 134.56 147.77 134.81 148.70 C 135.07 149.62 136.02 150.16 136.95 149.91 Z M 137.89 149.65 L 138.85 149.39 C 139.77 149.13 140.31 148.17 140.06 147.25 C 139.80 146.32 138.84 145.78 137.92 146.04 L 136.97 146.30 C 136.04 146.55 135.50 147.51 135.76 148.44 C 136.01 149.36 136.97 149.91 137.89 149.65 Z M 138.85 149.39 L 139.81 149.12 C 140.74 148.86 141.28 147.90 141.02 146.98 C 140.76 146.05 139.80 145.51 138.88 145.77 L 137.92 146.04 C 136.99 146.29 136.45 147.25 136.71 148.18 C 136.96 149.10 137.92 149.64 138.85 149.39 Z M 139.82 149.12 L 140.79 148.84 C 141.71 148.58 142.25 147.62 141.99 146.70 C 141.73 145.77 140.77 145.23 139.85 145.49 L 138.87 145.77 C 137.95 146.03 137.41 146.99 137.67 147.92 C 137.93 148.84 138.89 149.38 139.82 149.12 Z M 140.80 148.84 L 141.78 148.56 C 142.71 148.30 143.24 147.33 142.98 146.41 C 142.72 145.48 141.75 144.95 140.83 145.21 L 139.84 145.49 C 138.91 145.76 138.38 146.72 138.64 147.65 C 138.91 148.57 139.87 149.11 140.80 148.84 Z M 141.79 148.56 L 142.76 148.28 C 143.68 148.01 144.21 147.04 143.94 146.12 C 143.67 145.20 142.71 144.66 141.78 144.93 L 140.82 145.21 C 139.89 145.48 139.36 146.45 139.63 147.37 C 139.90 148.30 140.87 148.83 141.79 148.56 Z M 142.76 148.28 L 143.71 148.00 C 144.64 147.72 145.16 146.75 144.89 145.83 C 144.62 144.91 143.65 144.38 142.73 144.65 L 141.77 144.93 C 140.85 145.21 140.32 146.18 140.60 147.10 C 140.87 148.02 141.84 148.55 142.76 148.28 Z M 143.72 148.00 L 144.68 147.71 C 145.60 147.43 146.13 146.46 145.85 145.54 C 145.57 144.61 144.60 144.09 143.68 144.37 L 142.72 144.66 C 141.80 144.93 141.27 145.90 141.55 146.83 C 141.83 147.75 142.80 148.27 143.72 148.00 Z M 144.69 147.71 L 145.65 147.41 C 146.57 147.13 147.09 146.16 146.81 145.24 C 146.53 144.31 145.56 143.79 144.63 144.08 L 143.67 144.37 C 142.75 144.65 142.23 145.62 142.51 146.55 C 142.79 147.47 143.77 147.99 144.69 147.71 Z M 145.66 147.41 L 146.62 147.11 C 147.54 146.83 148.06 145.85 147.77 144.93 C 147.49 144.01 146.51 143.49 145.59 143.78 L 144.63 144.08 C 143.71 144.36 143.19 145.34 143.48 146.26 C 143.76 147.18 144.74 147.70 145.66 147.41 Z M 146.63 147.11 L 147.59 146.81 C 148.51 146.52 149.02 145.54 148.73 144.62 C 148.44 143.70 147.46 143.19 146.54 143.48 L 145.58 143.78 C 144.66 144.07 144.15 145.05 144.44 145.97 C 144.73 146.89 145.71 147.40 146.63 147.11 Z M 147.59 146.81 L 148.55 146.51 C 149.46 146.22 149.97 145.23 149.68 144.32 C 149.39 143.40 148.41 142.89 147.49 143.18 L 146.54 143.48 C 145.62 143.77 145.11 144.75 145.40 145.67 C 145.69 146.59 146.67 147.10 147.59 146.81 Z M 148.55 146.51 L 149.53 146.19 C 150.45 145.90 150.95 144.91 150.66 144.00 C 150.36 143.08 149.38 142.57 148.46 142.87 L 147.48 143.18 C 146.57 143.48 146.06 144.46 146.36 145.38 C 146.65 146.30 147.63 146.80 148.55 146.51 Z M 149.53 146.19 L 150.50 145.88 C 151.41 145.58 151.92 144.60 151.62 143.68 C 151.32 142.76 150.34 142.26 149.42 142.56 L 148.45 142.87 C 147.54 143.17 147.03 144.15 147.33 145.07 C 147.63 145.99 148.61 146.49 149.53 146.19 Z M 150.50 145.88 L 151.45 145.57 C 152.37 145.27 152.87 144.28 152.57 143.36 C 152.27 142.45 151.29 141.95 150.37 142.25 L 149.41 142.56 C 148.50 142.86 148.00 143.84 148.30 144.76 C 148.60 145.68 149.58 146.18 150.50 145.88 Z M 151.46 145.57 L 152.40 145.26 C 153.32 144.96 153.82 143.97 153.52 143.05 C 153.22 142.13 152.23 141.63 151.31 141.93 L 150.37 142.24 C 149.45 142.55 148.95 143.53 149.25 144.45 C 149.55 145.37 150.54 145.87 151.46 145.57 Z M 152.40 145.26 L 153.34 144.95 C 154.26 144.65 154.76 143.66 154.46 142.74 C 154.15 141.82 153.17 141.33 152.25 141.63 L 151.31 141.93 C 150.39 142.24 149.89 143.22 150.19 144.14 C 150.50 145.06 151.48 145.56 152.40 145.26 Z M 153.34 144.95 L 154.27 144.64 C 155.19 144.34 155.69 143.36 155.39 142.44 C 155.09 141.52 154.10 141.02 153.18 141.32 L 152.25 141.63 C 151.33 141.93 150.83 142.91 151.13 143.83 C 151.43 144.75 152.42 145.25 153.34 144.95 Z M 154.27 144.65 L 155.22 144.34 C 156.14 144.04 156.64 143.05 156.34 142.13 C 156.04 141.21 155.06 140.71 154.14 141.01 L 153.19 141.32 C 152.27 141.62 151.76 142.60 152.06 143.52 C 152.36 144.44 153.35 144.95 154.27 144.65 Z M 155.22 144.34 L 156.18 144.03 C 157.10 143.73 157.60 142.74 157.30 141.82 C 157.01 140.90 156.02 140.40 155.10 140.70 L 154.14 141.01 C 153.22 141.30 152.72 142.29 153.01 143.21 C 153.31 144.13 154.30 144.64 155.22 144.34 Z M 156.17 144.03 L 157.13 143.72 C 158.05 143.43 158.56 142.44 158.26 141.52 C 157.96 140.60 156.98 140.09 156.06 140.39 L 155.10 140.70 C 154.18 140.99 153.67 141.98 153.97 142.90 C 154.27 143.82 155.25 144.33 156.17 144.03 Z M 157.13 143.72 L 158.08 143.42 C 159.00 143.12 159.51 142.14 159.21 141.21 C 158.92 140.29 157.93 139.79 157.01 140.08 L 156.06 140.39 C 155.14 140.68 154.63 141.67 154.92 142.59 C 155.22 143.51 156.21 144.02 157.13 143.72 Z M 158.08 143.42 L 159.03 143.11 C 159.95 142.82 160.46 141.83 160.16 140.91 C 159.87 139.99 158.88 139.48 157.96 139.78 L 157.01 140.08 C 156.09 140.38 155.58 141.36 155.88 142.28 C 156.17 143.21 157.16 143.71 158.08 143.42 Z M 159.03 143.12 L 159.97 142.81 C 160.89 142.52 161.40 141.53 161.11 140.61 C 160.81 139.68 159.82 139.18 158.90 139.47 L 157.96 139.78 C 157.03 140.07 156.53 141.06 156.82 141.98 C 157.12 142.90 158.11 143.41 159.03 143.12 Z M 159.97 142.81 L 160.93 142.50 C 161.85 142.21 162.36 141.22 162.06 140.30 C 161.77 139.38 160.78 138.87 159.86 139.17 L 158.90 139.47 C 157.98 139.77 157.47 140.76 157.77 141.68 C 158.06 142.60 159.05 143.11 159.97 142.81 Z M 160.93 142.50 L 161.90 142.19 C 162.82 141.90 163.32 140.91 163.03 139.99 C 162.73 139.06 161.74 138.56 160.82 138.85 L 159.86 139.16 C 158.93 139.46 158.43 140.45 158.72 141.37 C 159.02 142.29 160.01 142.80 160.93 142.50 Z M 161.89 142.20 L 162.85 141.89 C 163.78 141.59 164.28 140.60 163.99 139.68 C 163.69 138.76 162.70 138.25 161.78 138.55 L 160.82 138.85 C 159.90 139.15 159.39 140.14 159.69 141.06 C 159.98 141.98 160.97 142.49 161.89 142.20 Z M 162.85 141.89 L 163.80 141.59 C 164.73 141.29 165.24 140.31 164.94 139.38 C 164.65 138.46 163.66 137.95 162.74 138.24 L 161.79 138.54 C 160.86 138.84 160.35 139.82 160.64 140.75 C 160.94 141.67 161.92 142.18 162.85 141.89 Z M 163.79 141.59 L 164.74 141.29 C 165.67 141.01 166.18 140.02 165.89 139.09 C 165.61 138.17 164.62 137.65 163.70 137.94 L 162.75 138.24 C 161.82 138.53 161.31 139.51 161.59 140.44 C 161.88 141.36 162.87 141.88 163.79 141.59 Z M 164.73 141.30 L 165.67 141.01 C 166.60 140.73 167.12 139.75 166.84 138.82 C 166.56 137.89 165.58 137.37 164.65 137.65 L 163.71 137.94 C 162.78 138.22 162.26 139.20 162.54 140.13 C 162.82 141.06 163.80 141.58 164.73 141.30 Z M 165.66 141.02 L 166.63 140.73 C 167.56 140.45 168.09 139.48 167.82 138.54 C 167.54 137.61 166.56 137.08 165.63 137.36 L 164.66 137.65 C 163.73 137.92 163.20 138.90 163.48 139.83 C 163.75 140.76 164.73 141.29 165.66 141.02 Z M 166.61 140.73 L 167.60 140.45 C 168.53 140.18 169.07 139.21 168.80 138.28 C 168.53 137.35 167.56 136.81 166.63 137.07 L 165.65 137.35 C 164.71 137.62 164.17 138.59 164.44 139.53 C 164.71 140.46 165.68 141.00 166.61 140.73 Z M 167.58 140.46 L 168.55 140.19 C 169.49 139.93 170.04 138.96 169.78 138.02 C 169.52 137.09 168.55 136.54 167.61 136.80 L 166.64 137.07 C 165.71 137.33 165.16 138.30 165.42 139.23 C 165.68 140.17 166.65 140.72 167.58 140.46 Z M 168.54 140.19 L 169.50 139.93 C 170.44 139.68 171.00 138.71 170.74 137.78 C 170.49 136.84 169.53 136.28 168.59 136.54 L 167.63 136.79 C 166.69 137.05 166.13 138.01 166.39 138.95 C 166.64 139.89 167.60 140.44 168.54 140.19 Z M 169.49 139.93 L 170.44 139.68 C 171.38 139.44 171.94 138.48 171.70 137.54 C 171.45 136.60 170.49 136.04 169.55 136.28 L 168.60 136.53 C 167.66 136.78 167.10 137.74 167.35 138.68 C 167.59 139.62 168.55 140.18 169.49 139.93 Z M 170.43 139.69 L 171.37 139.45 C 172.32 139.21 172.88 138.25 172.64 137.31 C 172.40 136.37 171.44 135.80 170.50 136.04 L 169.56 136.28 C 168.62 136.52 168.05 137.48 168.29 138.42 C 168.53 139.36 169.49 139.93 170.43 139.69 Z M 171.36 139.45 L 172.35 139.20 C 173.29 138.97 173.86 138.01 173.63 137.07 C 173.39 136.13 172.44 135.56 171.50 135.79 L 170.51 136.04 C 169.57 136.27 169.00 137.23 169.23 138.17 C 169.47 139.11 170.42 139.68 171.36 139.45 Z M 172.34 139.20 L 173.31 138.97 C 174.25 138.74 174.83 137.79 174.60 136.85 C 174.37 135.91 173.43 135.33 172.48 135.55 L 171.51 135.79 C 170.57 136.02 169.99 136.97 170.22 137.91 C 170.44 138.85 171.39 139.43 172.34 139.20 Z M 173.30 138.97 L 174.26 138.74 C 175.21 138.52 175.79 137.58 175.57 136.64 C 175.35 135.69 174.41 135.11 173.47 135.33 L 172.50 135.55 C 171.55 135.77 170.97 136.72 171.19 137.66 C 171.41 138.60 172.35 139.19 173.30 138.97 Z M 174.25 138.74 L 175.22 138.53 C 176.16 138.31 176.75 137.38 176.54 136.43 C 176.33 135.49 175.40 134.90 174.45 135.11 L 173.48 135.33 C 172.54 135.54 171.95 136.47 172.16 137.42 C 172.37 138.36 173.30 138.95 174.25 138.74 Z M 175.20 138.53 L 176.17 138.32 C 177.12 138.12 177.72 137.19 177.52 136.24 C 177.32 135.30 176.39 134.70 175.44 134.90 L 174.47 135.11 C 173.52 135.31 172.92 136.24 173.12 137.18 C 173.33 138.13 174.25 138.73 175.20 138.53 Z M 176.15 138.32 L 177.17 138.12 C 178.12 137.93 178.73 137.00 178.54 136.06 C 178.35 135.11 177.43 134.50 176.48 134.69 L 175.46 134.90 C 174.51 135.09 173.90 136.01 174.09 136.96 C 174.28 137.90 175.21 138.51 176.15 138.32 Z M 177.16 138.12 L 178.19 137.93 C 179.14 137.74 179.76 136.83 179.58 135.88 C 179.40 134.93 178.48 134.31 177.53 134.49 L 176.50 134.69 C 175.55 134.87 174.93 135.78 175.11 136.73 C 175.29 137.68 176.21 138.30 177.16 138.12 Z M 178.17 137.93 L 179.18 137.75 C 180.13 137.58 180.76 136.67 180.59 135.71 C 180.42 134.76 179.51 134.13 178.56 134.30 L 177.55 134.48 C 176.60 134.66 175.96 135.57 176.14 136.52 C 176.31 137.47 177.22 138.10 178.17 137.93 Z M 179.16 137.75 L 180.13 137.59 C 181.09 137.42 181.73 136.52 181.57 135.56 C 181.40 134.61 180.50 133.97 179.54 134.13 L 178.57 134.30 C 177.62 134.46 176.98 135.37 177.14 136.32 C 177.30 137.27 178.21 137.92 179.16 137.75 Z M 180.12 137.59 L 181.03 137.44 C 181.99 137.29 182.64 136.39 182.48 135.43 C 182.33 134.48 181.43 133.83 180.47 133.98 L 179.56 134.13 C 178.60 134.28 177.95 135.18 178.11 136.14 C 178.26 137.09 179.16 137.74 180.12 137.59 Z M 181.01 137.45 L 182.03 137.30 C 182.98 137.15 183.65 136.26 183.50 135.30 C 183.36 134.34 182.47 133.68 181.51 133.82 L 180.49 133.98 C 179.53 134.12 178.87 135.01 179.02 135.97 C 179.16 136.93 180.05 137.59 181.01 137.45 Z M 181.99 137.30 L 182.98 137.17 C 183.94 137.05 184.62 136.17 184.49 135.20 C 184.37 134.24 183.48 133.56 182.52 133.69 L 181.54 133.82 C 180.58 133.94 179.90 134.83 180.02 135.79 C 180.15 136.75 181.03 137.43 181.99 137.30 Z M 182.94 137.18 L 183.89 137.08 C 184.86 136.98 185.56 136.11 185.46 135.14 C 185.35 134.18 184.49 133.48 183.52 133.58 L 182.56 133.68 C 181.60 133.78 180.90 134.65 181.00 135.62 C 181.10 136.58 181.97 137.28 182.94 137.18 Z M 183.85 137.08 L 184.84 137.01 C 185.80 136.93 186.53 136.08 186.45 135.11 C 186.37 134.14 185.52 133.41 184.55 133.49 L 183.56 133.57 C 182.59 133.65 181.87 134.50 181.95 135.47 C 182.03 136.44 182.88 137.16 183.85 137.08 Z M 184.79 137.01 L 185.79 136.95 C 186.76 136.90 187.50 136.06 187.45 135.09 C 187.39 134.12 186.56 133.37 185.58 133.43 L 184.59 133.49 C 183.62 133.54 182.88 134.38 182.93 135.35 C 182.99 136.32 183.82 137.07 184.79 137.01 Z M 185.74 136.96 L 186.77 136.93 C 187.75 136.89 188.51 136.08 188.48 135.10 C 188.45 134.12 187.63 133.36 186.65 133.39 L 185.63 133.43 C 184.65 133.46 183.89 134.27 183.92 135.25 C 183.95 136.23 184.77 136.99 185.74 136.96 Z M 186.72 136.93 L 187.74 136.93 C 188.72 136.93 189.51 136.13 189.51 135.15 C 189.51 134.17 188.71 133.38 187.73 133.38 L 186.71 133.39 C 185.73 133.39 184.94 134.18 184.94 135.16 C 184.94 136.14 185.74 136.93 186.72 136.93 Z M 187.67 136.93 L 188.65 136.97 C 189.63 137.01 190.45 136.24 190.49 135.26 C 190.53 134.28 189.77 133.46 188.79 133.42 L 187.81 133.38 C 186.83 133.34 186.00 134.11 185.96 135.09 C 185.93 136.07 186.69 136.89 187.67 136.93 Z M 188.53 136.97 L 189.62 137.08 C 190.60 137.19 191.47 136.48 191.58 135.50 C 191.69 134.52 190.98 133.65 190.00 133.54 L 188.91 133.42 C 187.93 133.32 187.05 134.02 186.95 135.00 C 186.84 135.98 187.55 136.86 188.53 136.97 Z M 189.34 137.04 L 190.33 137.31 C 191.29 137.57 192.28 137.01 192.54 136.05 C 192.80 135.10 192.23 134.11 191.27 133.85 L 190.28 133.58 C 189.32 133.32 188.34 133.88 188.08 134.84 C 187.82 135.80 188.38 136.78 189.34 137.04 Z M 189.81 137.09 L 190.55 137.58 C 191.39 138.13 192.51 137.90 193.06 137.06 C 193.61 136.23 193.37 135.11 192.54 134.56 L 191.80 134.07 C 190.96 133.52 189.84 133.75 189.29 134.59 C 188.74 135.42 188.97 136.55 189.81 137.09 Z M 189.98 137.01 L 190.42 137.75 C 190.94 138.61 192.06 138.90 192.93 138.38 C 193.79 137.86 194.07 136.74 193.56 135.87 L 193.11 135.13 C 192.59 134.26 191.47 133.98 190.61 134.50 C 189.74 135.02 189.46 136.14 189.98 137.01 Z M 190.18 137.18 L 190.37 138.12 C 190.57 139.12 191.54 139.77 192.55 139.57 C 193.55 139.37 194.19 138.39 193.99 137.39 L 193.80 136.44 C 193.60 135.44 192.62 134.80 191.62 135.00 C 190.62 135.20 189.97 136.18 190.18 137.18 Z M 190.31 137.78 L 190.32 138.83 C 190.33 139.87 191.18 140.69 192.22 140.68 C 193.25 140.67 194.08 139.82 194.06 138.79 L 194.05 137.73 C 194.04 136.70 193.19 135.87 192.16 135.88 C 191.12 135.90 190.29 136.75 190.31 137.78 Z M 190.31 138.62 L 190.21 139.66 C 190.10 140.70 190.86 141.63 191.90 141.73 C 192.94 141.83 193.87 141.07 193.97 140.03 L 194.08 139.00 C 194.18 137.96 193.42 137.03 192.38 136.93 C 191.34 136.82 190.41 137.58 190.31 138.62 Z M 190.22 139.51 L 190.05 140.48 C 189.86 141.51 190.55 142.50 191.59 142.68 C 192.62 142.87 193.61 142.18 193.79 141.14 L 193.96 140.18 C 194.15 139.15 193.46 138.16 192.42 137.97 C 191.39 137.79 190.40 138.48 190.22 139.51 Z M 190.06 140.38 L 189.84 141.33 C 189.60 142.35 190.24 143.38 191.26 143.62 C 192.28 143.86 193.31 143.22 193.55 142.20 L 193.77 141.24 C 194.01 140.22 193.38 139.20 192.35 138.96 C 191.33 138.72 190.30 139.35 190.06 140.38 Z M 189.85 141.28 L 189.59 142.29 C 189.32 143.30 189.93 144.35 190.95 144.61 C 191.97 144.88 193.01 144.27 193.28 143.25 L 193.54 142.25 C 193.81 141.23 193.20 140.19 192.18 139.92 C 191.16 139.65 190.11 140.26 189.85 141.28 Z M 189.59 142.28 L 189.36 143.15 C 189.09 144.17 189.70 145.21 190.72 145.48 C 191.74 145.75 192.78 145.14 193.05 144.12 L 193.28 143.25 C 193.55 142.23 192.94 141.19 191.92 140.92 C 190.90 140.65 189.85 141.26 189.59 142.28 Z M 189.36 143.15 L 189.12 144.07 C 188.85 145.09 189.46 146.14 190.48 146.40 C 191.50 146.67 192.54 146.06 192.81 145.04 L 193.05 144.12 C 193.32 143.10 192.71 142.05 191.69 141.78 C 190.67 141.52 189.62 142.13 189.36 143.15 Z M 189.11 144.07 L 188.85 145.06 C 188.59 146.08 189.20 147.13 190.22 147.39 C 191.24 147.66 192.28 147.05 192.55 146.03 L 192.81 145.04 C 193.08 144.02 192.47 142.98 191.45 142.71 C 190.43 142.44 189.38 143.05 189.11 144.07 Z M 188.85 145.06 L 188.58 146.11 C 188.30 147.13 188.91 148.18 189.93 148.45 C 190.96 148.72 192.00 148.11 192.27 147.09 L 192.55 146.04 C 192.82 145.01 192.21 143.97 191.19 143.70 C 190.17 143.43 189.13 144.03 188.85 145.06 Z M 188.58 146.11 L 188.31 147.10 C 188.03 148.12 188.64 149.17 189.66 149.45 C 190.68 149.72 191.73 149.12 192.00 148.10 L 192.27 147.10 C 192.55 146.08 191.94 145.03 190.92 144.75 C 189.90 144.48 188.85 145.09 188.58 146.11 Z M 188.31 147.10 L 188.04 148.09 C 187.77 149.11 188.37 150.16 189.39 150.43 C 190.41 150.71 191.46 150.10 191.74 149.08 L 192.00 148.10 C 192.28 147.08 191.67 146.03 190.65 145.75 C 189.63 145.48 188.58 146.08 188.31 147.10 Z M 188.04 148.09 L 187.78 149.08 C 187.50 150.10 188.11 151.15 189.13 151.42 C 190.15 151.70 191.20 151.09 191.47 150.07 L 191.74 149.08 C 192.01 148.06 191.41 147.01 190.39 146.74 C 189.37 146.46 188.32 147.07 188.04 148.09 Z M 187.78 149.08 L 187.52 150.06 C 187.24 151.08 187.85 152.13 188.87 152.40 C 189.89 152.67 190.94 152.06 191.21 151.04 L 191.47 150.07 C 191.74 149.05 191.14 148.00 190.12 147.73 C 189.09 147.46 188.05 148.06 187.78 149.08 Z M 187.51 150.07 L 187.27 151.00 C 187.00 152.03 187.62 153.07 188.64 153.34 C 189.66 153.60 190.71 152.99 190.97 151.97 L 191.22 151.03 C 191.48 150.01 190.87 148.97 189.85 148.70 C 188.82 148.43 187.78 149.05 187.51 150.07 Z M 187.27 151.02 L 187.00 152.07 C 186.75 153.09 187.37 154.13 188.39 154.39 C 189.42 154.64 190.46 154.02 190.71 153.00 L 190.98 151.95 C 191.23 150.93 190.61 149.89 189.59 149.63 C 188.56 149.37 187.52 150.00 187.27 151.02 Z M 187.00 152.08 L 186.76 153.10 C 186.51 154.12 187.14 155.15 188.17 155.40 C 189.19 155.65 190.22 155.02 190.47 153.99 L 190.72 152.98 C 190.96 151.96 190.33 150.92 189.31 150.68 C 188.28 150.43 187.25 151.06 187.00 152.08 Z M 186.76 153.10 L 186.53 154.04 C 186.29 155.06 186.92 156.09 187.95 156.34 C 188.97 156.58 190.00 155.95 190.25 154.93 L 190.47 153.99 C 190.72 152.96 190.08 151.93 189.06 151.69 C 188.03 151.44 187.00 152.08 186.76 153.10 Z M 186.54 154.03 L 186.32 154.92 C 186.07 155.94 186.69 156.97 187.72 157.22 C 188.74 157.47 189.77 156.85 190.02 155.83 L 190.24 154.94 C 190.49 153.92 189.87 152.88 188.84 152.63 C 187.82 152.38 186.79 153.01 186.54 154.03 Z M 186.33 154.89 L 186.08 155.85 C 185.81 156.87 186.42 157.91 187.44 158.18 C 188.45 158.44 189.49 157.83 189.76 156.82 L 190.01 155.85 C 190.28 154.84 189.67 153.79 188.65 153.53 C 187.64 153.26 186.60 153.87 186.33 154.89 Z M 186.09 155.83 L 185.82 156.79 C 185.54 157.80 186.13 158.85 187.15 159.13 C 188.16 159.41 189.21 158.82 189.49 157.81 L 189.75 156.84 C 190.03 155.83 189.44 154.78 188.43 154.50 C 187.41 154.22 186.37 154.82 186.09 155.83 Z M 185.83 156.78 L 185.56 157.73 C 185.27 158.74 185.85 159.79 186.86 160.08 C 187.87 160.36 188.92 159.78 189.21 158.77 L 189.48 157.82 C 189.77 156.81 189.18 155.76 188.17 155.47 C 187.16 155.19 186.11 155.77 185.83 156.78 Z M 185.56 157.73 L 185.29 158.68 C 185.00 159.69 185.58 160.73 186.59 161.02 C 187.60 161.31 188.65 160.73 188.93 159.72 L 189.20 158.77 C 189.49 157.77 188.91 156.72 187.90 156.43 C 186.90 156.14 185.85 156.72 185.56 157.73 Z M 185.29 158.69 L 185.02 159.64 C 184.74 160.64 185.32 161.69 186.33 161.97 C 187.34 162.25 188.38 161.67 188.66 160.66 L 188.93 159.71 C 189.22 158.71 188.63 157.66 187.62 157.38 C 186.62 157.09 185.57 157.68 185.29 158.69 Z M 185.02 159.64 L 184.75 160.61 C 184.48 161.62 185.06 162.66 186.07 162.94 C 187.08 163.21 188.12 162.63 188.39 161.62 L 188.66 160.65 C 188.94 159.65 188.35 158.61 187.35 158.33 C 186.34 158.05 185.30 158.64 185.02 159.64 Z M 184.76 160.62 L 184.49 161.61 C 184.21 162.61 184.81 163.65 185.81 163.92 C 186.82 164.19 187.85 163.60 188.13 162.60 L 188.39 161.61 C 188.67 160.61 188.07 159.57 187.07 159.30 C 186.07 159.02 185.03 159.62 184.76 160.62 Z M 184.49 161.62 L 184.23 162.57 C 183.97 163.58 184.56 164.61 185.57 164.87 C 186.57 165.14 187.60 164.55 187.87 163.54 L 188.12 162.59 C 188.39 161.58 187.80 160.55 186.79 160.28 C 185.79 160.02 184.76 160.61 184.49 161.62 Z M 184.24 162.58 L 183.98 163.55 C 183.72 164.55 184.32 165.58 185.32 165.84 C 186.32 166.10 187.35 165.51 187.61 164.50 L 187.87 163.54 C 188.13 162.53 187.53 161.51 186.53 161.24 C 185.53 160.98 184.50 161.58 184.24 162.58 Z M 183.99 163.55 L 183.73 164.52 C 183.47 165.52 184.07 166.55 185.07 166.81 C 186.06 167.07 187.09 166.47 187.35 165.47 L 187.61 164.50 C 187.87 163.50 187.27 162.48 186.27 162.22 C 185.27 161.95 184.25 162.55 183.99 163.55 Z M 183.74 164.52 L 183.48 165.50 C 183.22 166.50 183.81 167.52 184.81 167.78 C 185.80 168.04 186.82 167.45 187.09 166.45 L 187.34 165.48 C 187.61 164.48 187.01 163.46 186.02 163.20 C 185.02 162.93 184.00 163.53 183.74 164.52 Z M 183.49 165.50 L 183.23 166.48 C 182.96 167.47 183.55 168.49 184.54 168.75 C 185.53 169.02 186.55 168.43 186.82 167.43 L 187.08 166.46 C 187.34 165.46 186.75 164.44 185.76 164.18 C 184.77 163.92 183.75 164.50 183.49 165.50 Z M 183.24 166.47 L 182.97 167.44 C 182.71 168.42 183.29 169.44 184.28 169.71 C 185.26 169.97 186.28 169.39 186.55 168.40 L 186.81 167.44 C 187.08 166.45 186.49 165.44 185.51 165.17 C 184.52 164.90 183.50 165.48 183.24 166.47 Z M 182.98 167.43 L 182.72 168.38 C 182.45 169.36 183.03 170.37 184.01 170.64 C 184.99 170.92 186.00 170.34 186.28 169.36 L 186.54 168.41 C 186.81 167.43 186.23 166.41 185.25 166.14 C 184.27 165.87 183.25 166.45 182.98 167.43 Z M 182.73 168.37 L 182.46 169.33 C 182.19 170.31 182.75 171.32 183.73 171.60 C 184.70 171.87 185.72 171.30 185.99 170.33 L 186.26 169.37 C 186.54 168.39 185.97 167.38 185.00 167.10 C 184.02 166.83 183.01 167.39 182.73 168.37 Z M 182.47 169.33 L 182.20 170.29 C 181.92 171.25 182.48 172.26 183.45 172.54 C 184.42 172.82 185.43 172.26 185.71 171.29 L 185.98 170.33 C 186.26 169.36 185.70 168.35 184.73 168.07 C 183.76 167.80 182.75 168.36 182.47 169.33 Z M 182.21 170.29 L 181.94 171.25 C 181.66 172.21 182.22 173.22 183.18 173.49 C 184.15 173.76 185.15 173.21 185.43 172.24 L 185.70 171.28 C 185.97 170.32 185.41 169.32 184.45 169.04 C 183.49 168.77 182.48 169.33 182.21 170.29 Z M 181.94 171.26 L 181.68 172.20 C 181.41 173.15 181.97 174.15 182.93 174.42 C 183.89 174.69 184.89 174.13 185.16 173.17 L 185.42 172.23 C 185.69 171.27 185.13 170.28 184.17 170.01 C 183.21 169.74 182.21 170.30 181.94 171.26 Z M 181.69 172.21 L 181.44 173.13 C 181.18 174.08 181.74 175.07 182.69 175.33 C 183.65 175.59 184.63 175.03 184.89 174.08 L 185.15 173.16 C 185.41 172.20 184.85 171.22 183.89 170.95 C 182.94 170.69 181.95 171.25 181.69 172.21 Z M 181.45 173.14 L 181.19 174.10 C 180.93 175.05 181.49 176.03 182.44 176.28 C 183.39 176.54 184.37 175.98 184.62 175.03 L 184.88 174.07 C 185.14 173.12 184.58 172.14 183.63 171.88 C 182.68 171.63 181.70 172.19 181.45 173.14 Z M 181.20 174.11 L 180.92 175.12 C 180.67 176.07 181.23 177.04 182.17 177.29 C 183.12 177.54 184.09 176.98 184.34 176.04 L 184.61 175.02 C 184.87 174.08 184.31 173.11 183.36 172.85 C 182.42 172.60 181.45 173.16 181.20 174.11 Z M 180.93 175.13 L 180.67 176.12 C 180.42 177.06 180.97 178.02 181.91 178.27 C 182.85 178.53 183.81 177.97 184.06 177.03 L 184.33 176.04 C 184.58 175.10 184.02 174.14 183.09 173.89 C 182.15 173.63 181.19 174.19 180.93 175.13 Z M 180.69 176.11 L 180.41 177.10 C 180.15 178.03 180.69 178.99 181.62 179.25 C 182.55 179.51 183.51 178.97 183.77 178.04 L 184.05 177.05 C 184.31 176.12 183.76 175.16 182.84 174.90 C 181.91 174.64 180.94 175.18 180.69 176.11 Z M 180.43 177.06 L 180.13 178.03 C 179.85 178.95 180.36 179.92 181.27 180.20 C 182.19 180.49 183.16 179.97 183.44 179.06 L 183.75 178.08 C 184.03 177.17 183.52 176.20 182.60 175.91 C 181.69 175.63 180.72 176.14 180.43 177.06 Z M 180.17 177.96 L 179.84 178.88 C 179.51 179.77 179.97 180.76 180.87 181.08 C 181.76 181.41 182.75 180.94 183.07 180.05 L 183.41 179.13 C 183.73 178.24 183.27 177.25 182.37 176.93 C 181.48 176.60 180.49 177.06 180.17 177.96 Z M 179.91 178.75 L 179.47 179.69 C 179.08 180.55 179.46 181.56 180.31 181.95 C 181.17 182.34 182.18 181.97 182.57 181.11 L 183.00 180.17 C 183.40 179.32 183.02 178.31 182.17 177.91 C 181.31 177.52 180.30 177.90 179.91 178.75 Z M 179.58 179.54 L 179.06 180.42 C 178.59 181.22 178.85 182.25 179.64 182.72 C 180.44 183.20 181.47 182.93 181.94 182.14 L 182.47 181.26 C 182.94 180.46 182.68 179.43 181.88 178.96 C 181.08 178.49 180.06 178.75 179.58 179.54 Z M 179.16 180.32 L 178.61 181.10 C 178.08 181.84 178.25 182.87 178.99 183.40 C 179.73 183.92 180.76 183.75 181.28 183.01 L 181.84 182.24 C 182.37 181.50 182.20 180.47 181.46 179.94 C 180.72 179.41 179.69 179.59 179.16 180.32 Z M 178.66 181.07 L 178.28 181.57 C 177.73 182.28 177.87 183.29 178.57 183.84 C 179.28 184.38 180.30 184.25 180.84 183.54 L 181.23 183.05 C 181.77 182.34 181.64 181.32 180.93 180.78 C 180.23 180.23 179.21 180.36 178.66 181.07 Z"
      fill="black"
      fill-rule="nonzero" /><path d="M 143.97 146.14 L 143.12 146.63 C 142.37 147.08 142.11 148.04 142.55 148.80 C 143.00 149.55 143.96 149.80 144.72 149.36 L 145.57 148.86 C 146.32 148.42 146.57 147.45 146.13 146.70 C 145.69 145.95 144.72 145.69 143.97 146.14 Z M 143.06 146.67 L 142.23 147.20 C 141.50 147.68 141.28 148.66 141.76 149.39 C 142.23 150.13 143.21 150.34 143.95 149.86 L 144.78 149.33 C 145.51 148.85 145.72 147.87 145.25 147.14 C 144.78 146.40 143.80 146.19 143.06 146.67 Z M 142.12 147.28 L 141.33 147.88 C 140.64 148.42 140.51 149.41 141.04 150.11 C 141.58 150.80 142.57 150.93 143.27 150.40 L 144.06 149.79 C 144.75 149.26 144.88 148.26 144.34 147.57 C 143.81 146.87 142.81 146.74 142.12 147.28 Z M 141.18 148.01 L 140.46 148.73 C 139.83 149.34 139.82 150.35 140.44 150.97 C 141.05 151.60 142.06 151.61 142.68 150.99 L 143.41 150.27 C 144.04 149.66 144.05 148.65 143.43 148.03 C 142.82 147.40 141.81 147.39 141.18 148.01 Z M 140.31 148.88 L 139.74 149.61 C 139.20 150.31 139.32 151.31 140.02 151.85 C 140.71 152.39 141.71 152.27 142.25 151.57 L 142.83 150.84 C 143.37 150.14 143.24 149.14 142.55 148.60 C 141.85 148.06 140.85 148.18 140.31 148.88 Z M 139.64 149.74 L 139.12 150.57 C 138.65 151.32 138.88 152.30 139.63 152.77 C 140.38 153.24 141.37 153.02 141.84 152.27 L 142.35 151.44 C 142.82 150.70 142.60 149.71 141.85 149.24 C 141.10 148.77 140.11 148.99 139.64 149.74 Z M 139.06 150.67 L 138.58 151.56 C 138.17 152.35 138.47 153.32 139.26 153.74 C 140.04 154.15 141.02 153.85 141.43 153.06 L 141.90 152.17 C 142.32 151.38 142.01 150.41 141.23 149.99 C 140.44 149.58 139.47 149.88 139.06 150.67 Z M 138.54 151.64 L 138.11 152.59 C 137.73 153.40 138.09 154.36 138.90 154.73 C 139.71 155.10 140.67 154.74 141.04 153.93 L 141.48 152.99 C 141.85 152.17 141.49 151.22 140.68 150.84 C 139.87 150.47 138.91 150.83 138.54 151.64 Z M 138.08 152.64 L 137.69 153.56 C 137.35 154.39 137.75 155.34 138.57 155.68 C 139.40 156.02 140.35 155.63 140.69 154.80 L 141.07 153.88 C 141.42 153.05 141.02 152.10 140.19 151.76 C 139.37 151.42 138.42 151.81 138.08 152.64 Z M 137.68 153.60 L 137.36 154.43 C 137.04 155.27 137.46 156.21 138.30 156.53 C 139.13 156.85 140.07 156.43 140.39 155.59 L 140.71 154.76 C 141.03 153.92 140.61 152.99 139.77 152.66 C 138.94 152.34 138.00 152.76 137.68 153.60 Z M 137.34 154.47 L 137.04 155.33 C 136.74 156.18 137.18 157.11 138.03 157.41 C 138.87 157.71 139.80 157.27 140.10 156.42 L 140.41 155.55 C 140.71 154.71 140.27 153.78 139.42 153.48 C 138.57 153.18 137.64 153.62 137.34 154.47 Z M 137.02 155.37 L 136.72 156.30 C 136.44 157.15 136.91 158.07 137.76 158.35 C 138.62 158.63 139.53 158.16 139.81 157.31 L 140.12 156.38 C 140.39 155.53 139.93 154.61 139.07 154.33 C 138.22 154.05 137.30 154.52 137.02 155.37 Z M 136.71 156.33 L 136.41 157.34 C 136.15 158.20 136.63 159.10 137.50 159.36 C 138.36 159.62 139.26 159.14 139.52 158.28 L 139.82 157.27 C 140.08 156.41 139.60 155.50 138.74 155.24 C 137.88 154.98 136.97 155.47 136.71 156.33 Z M 136.40 157.37 L 136.09 158.47 C 135.85 159.34 136.35 160.23 137.22 160.48 C 138.08 160.72 138.98 160.21 139.22 159.35 L 139.53 158.24 C 139.77 157.38 139.27 156.48 138.40 156.24 C 137.54 156.00 136.64 156.50 136.40 157.37 Z M 136.08 158.50 L 135.82 159.48 C 135.59 160.35 136.11 161.24 136.98 161.47 C 137.85 161.70 138.74 161.18 138.97 160.31 L 139.23 159.32 C 139.46 158.45 138.94 157.56 138.07 157.34 C 137.20 157.11 136.31 157.63 136.08 158.50 Z M 135.82 159.50 L 135.58 160.44 C 135.36 161.32 135.89 162.20 136.76 162.42 C 137.63 162.64 138.52 162.11 138.74 161.24 L 138.98 160.29 C 139.19 159.42 138.67 158.53 137.79 158.32 C 136.92 158.10 136.04 158.63 135.82 159.50 Z M 135.58 160.46 L 135.34 161.44 C 135.13 162.32 135.67 163.20 136.54 163.41 C 137.41 163.62 138.29 163.08 138.50 162.21 L 138.74 161.22 C 138.95 160.35 138.42 159.47 137.54 159.26 C 136.67 159.05 135.79 159.58 135.58 160.46 Z M 135.34 161.46 L 135.10 162.46 C 134.90 163.34 135.44 164.21 136.32 164.42 C 137.19 164.62 138.07 164.08 138.27 163.20 L 138.51 162.19 C 138.71 161.32 138.17 160.44 137.29 160.24 C 136.41 160.04 135.54 160.58 135.34 161.46 Z M 135.10 162.48 L 134.87 163.49 C 134.68 164.37 135.23 165.24 136.11 165.44 C 136.98 165.63 137.85 165.08 138.05 164.20 L 138.28 163.19 C 138.47 162.31 137.92 161.44 137.04 161.24 C 136.17 161.05 135.30 161.60 135.10 162.48 Z M 134.87 163.51 L 134.65 164.51 C 134.46 165.39 135.02 166.26 135.90 166.44 C 136.78 166.63 137.65 166.07 137.84 165.20 L 138.05 164.19 C 138.24 163.31 137.68 162.45 136.80 162.26 C 135.92 162.07 135.06 162.63 134.87 163.51 Z M 134.65 164.53 L 134.45 165.51 C 134.27 166.39 134.84 167.25 135.72 167.43 C 136.60 167.61 137.46 167.04 137.64 166.16 L 137.84 165.18 C 138.02 164.30 137.45 163.44 136.57 163.26 C 135.69 163.08 134.83 163.65 134.65 164.53 Z M 134.45 165.52 L 134.26 166.46 C 134.09 167.34 134.67 168.20 135.55 168.37 C 136.43 168.54 137.29 167.97 137.46 167.08 L 137.64 166.14 C 137.81 165.26 137.24 164.41 136.35 164.24 C 135.47 164.07 134.62 164.64 134.45 165.52 Z M 134.27 166.49 L 134.05 167.69 C 133.89 168.57 134.48 169.41 135.36 169.57 C 136.24 169.73 137.08 169.14 137.24 168.26 L 137.46 167.06 C 137.61 166.18 137.03 165.34 136.15 165.18 C 135.27 165.02 134.42 165.61 134.27 166.49 Z M 134.06 167.72 L 133.88 168.82 C 133.74 169.70 134.34 170.52 135.22 170.66 C 136.10 170.80 136.92 170.20 137.06 169.33 L 137.23 168.23 C 137.37 167.35 136.77 166.53 135.90 166.39 C 135.02 166.25 134.20 166.85 134.06 167.72 Z M 133.89 168.87 L 133.76 169.87 C 133.64 170.74 134.26 171.55 135.13 171.66 C 136.00 171.78 136.80 171.16 136.92 170.29 L 137.05 169.28 C 137.17 168.41 136.55 167.61 135.68 167.49 C 134.81 167.38 134.01 167.99 133.89 168.87 Z M 133.76 169.92 L 133.67 170.84 C 133.58 171.71 134.22 172.49 135.09 172.58 C 135.95 172.66 136.73 172.03 136.82 171.16 L 136.91 170.24 C 137.00 169.37 136.36 168.60 135.50 168.51 C 134.63 168.42 133.85 169.05 133.76 169.92 Z M 133.68 170.90 L 133.63 171.75 C 133.57 172.61 134.23 173.36 135.09 173.41 C 135.96 173.47 136.70 172.81 136.76 171.95 L 136.81 171.10 C 136.86 170.24 136.21 169.49 135.34 169.44 C 134.48 169.38 133.73 170.04 133.68 170.90 Z M 133.64 171.83 L 133.63 172.82 C 133.62 173.68 134.30 174.38 135.16 174.39 C 136.02 174.40 136.72 173.72 136.73 172.86 L 136.74 171.86 C 136.75 171.01 136.07 170.30 135.21 170.29 C 134.35 170.28 133.65 170.97 133.64 171.83 Z M 133.65 172.98 L 133.75 174.10 C 133.83 174.95 134.57 175.57 135.41 175.49 C 136.26 175.42 136.88 174.67 136.81 173.83 L 136.71 172.70 C 136.63 171.86 135.89 171.24 135.04 171.31 C 134.20 171.39 133.58 172.13 133.65 172.98 Z M 133.83 174.40 L 134.10 175.29 C 134.34 176.09 135.18 176.54 135.98 176.30 C 136.78 176.06 137.23 175.22 136.99 174.42 L 136.73 173.53 C 136.49 172.73 135.65 172.28 134.85 172.52 C 134.05 172.76 133.59 173.60 133.83 174.40 Z M 134.37 175.77 L 134.84 176.38 C 135.35 177.03 136.28 177.15 136.93 176.65 C 137.58 176.15 137.70 175.21 137.20 174.56 L 136.72 173.94 C 136.22 173.29 135.28 173.17 134.63 173.67 C 133.98 174.18 133.86 175.11 134.37 175.77 Z M 135.47 176.83 L 136.24 177.14 C 137.00 177.45 137.85 177.08 138.16 176.33 C 138.46 175.58 138.09 174.72 137.34 174.42 L 136.57 174.11 C 135.82 173.80 134.96 174.17 134.66 174.92 C 134.35 175.68 134.72 176.53 135.47 176.83 Z M 136.90 177.23 L 137.89 177.15 C 138.69 177.09 139.29 176.40 139.23 175.60 C 139.17 174.80 138.47 174.20 137.67 174.26 L 136.68 174.33 C 135.88 174.39 135.28 175.09 135.34 175.89 C 135.40 176.69 136.10 177.29 136.90 177.23 Z M 138.31 177.04 L 139.38 176.62 C 140.12 176.33 140.48 175.49 140.19 174.75 C 139.90 174.02 139.06 173.65 138.32 173.95 L 137.25 174.37 C 136.52 174.66 136.15 175.50 136.45 176.23 C 136.74 176.97 137.57 177.33 138.31 177.04 Z M 139.59 176.50 L 140.34 176.05 C 141.02 175.65 141.23 174.77 140.83 174.09 C 140.42 173.42 139.54 173.20 138.87 173.61 L 138.12 174.06 C 137.44 174.47 137.22 175.34 137.63 176.02 C 138.04 176.69 138.91 176.91 139.59 176.50 Z M 140.44 175.99 L 141.22 175.42 C 141.86 174.96 142.00 174.07 141.54 173.43 C 141.08 172.79 140.19 172.65 139.55 173.11 L 138.77 173.67 C 138.13 174.13 137.98 175.02 138.44 175.66 C 138.90 176.30 139.80 176.45 140.44 175.99 Z M 141.28 175.38 L 142.08 174.73 C 142.70 174.24 142.80 173.34 142.31 172.73 C 141.81 172.11 140.92 172.01 140.30 172.51 L 139.49 173.15 C 138.88 173.64 138.78 174.54 139.27 175.16 C 139.76 175.77 140.66 175.87 141.28 175.38 Z M 142.12 174.71 L 142.94 174.01 C 143.54 173.50 143.61 172.60 143.10 172.00 C 142.59 171.40 141.69 171.33 141.09 171.84 L 140.27 172.53 C 139.67 173.04 139.60 173.94 140.11 174.54 C 140.61 175.14 141.51 175.22 142.12 174.71 Z M 142.95 174.00 L 143.59 173.45 C 144.18 172.93 144.24 172.03 143.73 171.44 C 143.21 170.84 142.31 170.78 141.72 171.29 L 141.08 171.85 C 140.49 172.36 140.42 173.26 140.94 173.86 C 141.45 174.45 142.36 174.52 142.95 174.00 Z"
      fill="black"
      fill-rule="nonzero" /><path d="M 159.54 141.27 L 159.21 142.18 C 158.92 143.01 159.35 143.92 160.18 144.22 C 161.01 144.52 161.92 144.08 162.22 143.25 L 162.54 142.35 C 162.84 141.52 162.41 140.60 161.58 140.31 C 160.75 140.01 159.83 140.44 159.54 141.27 Z M 159.19 142.20 L 158.87 143.13 C 158.59 143.97 159.04 144.89 159.88 145.17 C 160.73 145.46 161.64 145.01 161.93 144.16 L 162.25 143.24 C 162.53 142.39 162.08 141.48 161.24 141.19 C 160.39 140.90 159.48 141.35 159.19 142.20 Z M 158.84 143.16 L 158.54 144.14 C 158.28 145.00 158.76 145.91 159.62 146.18 C 160.48 146.44 161.39 145.96 161.66 145.10 L 161.96 144.13 C 162.23 143.27 161.74 142.35 160.88 142.09 C 160.02 141.82 159.11 142.30 158.84 143.16 Z M 158.51 144.19 L 158.25 145.15 C 158.02 146.03 158.54 146.93 159.42 147.17 C 160.30 147.40 161.20 146.88 161.44 146.00 L 161.69 145.04 C 161.93 144.16 161.41 143.26 160.53 143.03 C 159.65 142.79 158.75 143.31 158.51 144.19 Z M 158.23 145.21 L 158.03 146.08 C 157.83 146.98 158.39 147.86 159.28 148.07 C 160.17 148.27 161.06 147.71 161.26 146.82 L 161.46 145.94 C 161.67 145.05 161.11 144.16 160.21 143.96 C 159.32 143.76 158.43 144.32 158.23 145.21 Z M 158.01 146.14 L 157.83 147.07 C 157.65 147.98 158.25 148.85 159.15 149.03 C 160.06 149.20 160.93 148.61 161.10 147.70 L 161.29 146.76 C 161.46 145.86 160.87 144.98 159.96 144.81 C 159.06 144.64 158.18 145.23 158.01 146.14 Z M 157.81 147.12 L 157.65 148.14 C 157.50 149.06 158.13 149.92 159.04 150.06 C 159.96 150.21 160.82 149.58 160.96 148.67 L 161.12 147.65 C 161.27 146.74 160.65 145.88 159.73 145.73 C 158.81 145.59 157.95 146.21 157.81 147.12 Z M 157.63 148.19 L 157.49 149.29 C 157.37 150.22 158.02 151.06 158.94 151.18 C 159.87 151.30 160.72 150.65 160.84 149.73 L 160.98 148.62 C 161.10 147.70 160.45 146.85 159.52 146.73 C 158.60 146.61 157.75 147.26 157.63 148.19 Z M 157.48 149.33 L 157.37 150.35 C 157.27 151.28 157.95 152.11 158.88 152.21 C 159.81 152.31 160.64 151.63 160.74 150.70 L 160.85 149.69 C 160.95 148.76 160.27 147.92 159.34 147.82 C 158.41 147.72 157.57 148.40 157.48 149.33 Z M 157.36 150.37 L 157.27 151.37 C 157.19 152.30 157.88 153.13 158.82 153.21 C 159.75 153.29 160.58 152.60 160.66 151.67 L 160.75 150.68 C 160.83 149.74 160.14 148.91 159.20 148.83 C 158.27 148.75 157.44 149.44 157.36 150.37 Z M 157.27 151.38 L 157.19 152.40 C 157.12 153.34 157.82 154.16 158.76 154.23 C 159.69 154.31 160.51 153.60 160.59 152.67 L 160.66 151.65 C 160.74 150.71 160.04 149.89 159.10 149.82 C 158.16 149.74 157.34 150.45 157.27 151.38 Z M 157.18 152.42 L 157.11 153.44 C 157.05 154.38 157.76 155.20 158.70 155.27 C 159.64 155.33 160.45 154.62 160.52 153.68 L 160.59 152.65 C 160.66 151.71 159.95 150.90 159.01 150.83 C 158.06 150.77 157.25 151.48 157.18 152.42 Z M 157.11 153.45 L 157.04 154.47 C 156.98 155.41 157.70 156.22 158.64 156.28 C 159.59 156.34 160.40 155.63 160.46 154.68 L 160.52 153.67 C 160.58 152.73 159.87 151.91 158.92 151.85 C 157.98 151.79 157.17 152.51 157.11 153.45 Z M 157.04 154.47 L 156.98 155.45 C 156.92 156.39 157.64 157.21 158.59 157.26 C 159.53 157.32 160.35 156.60 160.40 155.66 L 160.46 154.68 C 160.52 153.73 159.80 152.92 158.86 152.86 C 157.91 152.81 157.10 153.53 157.04 154.47 Z M 156.98 155.45 L 156.92 156.51 C 156.86 157.46 157.58 158.27 158.53 158.33 C 159.47 158.38 160.29 157.66 160.34 156.72 L 160.41 155.65 C 160.46 154.71 159.74 153.90 158.79 153.84 C 157.85 153.78 157.04 154.50 156.98 155.45 Z M 156.92 156.51 L 156.85 157.54 C 156.80 158.49 157.52 159.30 158.47 159.36 C 159.41 159.42 160.23 158.69 160.28 157.75 L 160.34 156.72 C 160.40 155.77 159.68 154.96 158.73 154.90 C 157.79 154.84 156.97 155.56 156.92 156.51 Z M 156.85 157.54 L 156.79 158.52 C 156.73 159.47 157.46 160.28 158.40 160.34 C 159.35 160.40 160.16 159.68 160.22 158.73 L 160.28 157.75 C 160.34 156.80 159.62 155.99 158.67 155.93 C 157.73 155.87 156.91 156.59 156.85 157.54 Z M 156.79 158.52 L 156.73 159.47 C 156.67 160.42 157.39 161.24 158.34 161.30 C 159.28 161.36 160.10 160.64 160.16 159.69 L 160.22 158.74 C 160.28 157.79 159.56 156.97 158.62 156.91 C 157.67 156.85 156.85 157.57 156.79 158.52 Z M 156.73 159.47 L 156.67 160.42 C 156.60 161.37 157.32 162.19 158.27 162.25 C 159.22 162.32 160.03 161.60 160.10 160.65 L 160.16 159.70 C 160.23 158.75 159.51 157.93 158.56 157.87 C 157.61 157.81 156.79 158.52 156.73 159.47 Z M 156.67 160.42 L 156.60 161.37 C 156.53 162.32 157.25 163.14 158.19 163.20 C 159.14 163.27 159.96 162.56 160.03 161.61 L 160.10 160.66 C 160.16 159.71 159.45 158.89 158.50 158.82 C 157.56 158.76 156.73 159.47 156.67 160.42 Z M 156.60 161.37 L 156.53 162.34 C 156.46 163.28 157.17 164.10 158.12 164.17 C 159.07 164.24 159.89 163.53 159.96 162.58 L 160.03 161.61 C 160.10 160.67 159.39 159.84 158.44 159.78 C 157.49 159.71 156.67 160.42 156.60 161.37 Z M 156.53 162.34 L 156.46 163.33 C 156.39 164.27 157.10 165.10 158.05 165.16 C 159.00 165.23 159.82 164.52 159.89 163.58 L 159.96 162.58 C 160.03 161.64 159.31 160.82 158.37 160.75 C 157.42 160.68 156.60 161.39 156.53 162.34 Z M 156.46 163.33 L 156.39 164.35 C 156.33 165.29 157.04 166.11 157.98 166.18 C 158.93 166.24 159.75 165.53 159.81 164.59 L 159.88 163.57 C 159.95 162.63 159.24 161.81 158.29 161.74 C 157.35 161.67 156.53 162.39 156.46 163.33 Z M 156.39 164.36 L 156.32 165.40 C 156.26 166.34 156.98 167.16 157.92 167.22 C 158.87 167.28 159.68 166.56 159.74 165.62 L 159.81 164.58 C 159.87 163.64 159.16 162.82 158.21 162.76 C 157.27 162.69 156.45 163.41 156.39 164.36 Z M 156.32 165.40 L 156.26 166.41 C 156.21 167.35 156.93 168.16 157.87 168.22 C 158.81 168.28 159.63 167.56 159.68 166.61 L 159.74 165.61 C 159.80 164.67 159.08 163.86 158.14 163.80 C 157.19 163.74 156.38 164.46 156.32 165.40 Z M 156.27 166.41 L 156.21 167.41 C 156.16 168.36 156.88 169.16 157.82 169.22 C 158.76 169.27 159.57 168.55 159.63 167.60 L 159.68 166.60 C 159.73 165.66 159.01 164.85 158.07 164.80 C 157.13 164.75 156.32 165.47 156.27 166.41 Z M 156.21 167.42 L 156.16 168.42 C 156.11 169.37 156.83 170.17 157.77 170.22 C 158.71 170.27 159.52 169.55 159.57 168.61 L 159.62 167.60 C 159.67 166.66 158.95 165.85 158.01 165.80 C 157.07 165.75 156.26 166.47 156.21 167.42 Z M 156.16 168.42 L 156.10 169.43 C 156.05 170.37 156.77 171.18 157.72 171.23 C 158.66 171.28 159.46 170.56 159.51 169.62 L 159.57 168.61 C 159.62 167.67 158.90 166.86 157.96 166.81 C 157.01 166.76 156.21 167.48 156.16 168.42 Z M 156.11 169.43 L 156.05 170.43 C 156.00 171.36 156.72 172.17 157.66 172.22 C 158.60 172.28 159.40 171.56 159.45 170.62 L 159.51 169.62 C 159.56 168.68 158.84 167.87 157.90 167.82 C 156.96 167.77 156.16 168.49 156.11 169.43 Z M 156.05 170.42 L 155.99 171.42 C 155.94 172.36 156.65 173.17 157.59 173.22 C 158.53 173.28 159.33 172.57 159.39 171.63 L 159.45 170.62 C 159.51 169.69 158.79 168.88 157.86 168.82 C 156.92 168.77 156.11 169.48 156.05 170.42 Z M 156.00 171.42 L 155.93 172.45 C 155.87 173.38 156.58 174.19 157.51 174.25 C 158.45 174.31 159.25 173.61 159.32 172.67 L 159.38 171.64 C 159.44 170.70 158.74 169.90 157.80 169.83 C 156.87 169.77 156.06 170.48 156.00 171.42 Z M 155.94 172.45 L 155.87 173.46 C 155.81 174.39 156.51 175.19 157.44 175.26 C 158.37 175.32 159.17 174.62 159.24 173.69 L 159.31 172.68 C 159.37 171.75 158.67 170.94 157.74 170.88 C 156.81 170.81 156.00 171.51 155.94 172.45 Z M 155.88 173.46 L 155.81 174.45 C 155.75 175.37 156.45 176.18 157.37 176.24 C 158.30 176.30 159.10 175.60 159.16 174.68 L 159.23 173.69 C 159.29 172.76 158.59 171.96 157.67 171.89 C 156.74 171.83 155.94 172.53 155.88 173.46 Z M 155.82 174.45 L 155.75 175.43 C 155.69 176.35 156.39 177.15 157.32 177.20 C 158.24 177.26 159.03 176.56 159.09 175.64 L 159.16 174.67 C 159.22 173.75 158.52 172.95 157.59 172.89 C 156.67 172.83 155.87 173.53 155.82 174.45 Z M 155.76 175.44 L 155.70 176.42 C 155.65 177.33 156.35 178.12 157.27 178.17 C 158.19 178.23 158.98 177.52 159.03 176.61 L 159.09 175.63 C 159.14 174.71 158.44 173.92 157.52 173.87 C 156.60 173.82 155.81 174.52 155.76 175.44 Z M 155.71 176.43 L 155.66 177.46 C 155.62 178.38 156.33 179.16 157.24 179.20 C 158.15 179.24 158.93 178.54 158.97 177.62 L 159.02 176.59 C 159.07 175.67 158.36 174.90 157.45 174.85 C 156.53 174.81 155.76 175.52 155.71 176.43 Z M 155.67 177.48 L 155.63 178.49 C 155.60 179.40 156.30 180.17 157.21 180.20 C 158.12 180.24 158.89 179.53 158.93 178.62 L 158.97 177.61 C 159.00 176.70 158.29 175.93 157.38 175.90 C 156.47 175.86 155.71 176.57 155.67 177.48 Z M 155.64 178.50 L 155.61 179.49 C 155.58 180.40 156.29 181.15 157.19 181.18 C 158.09 181.21 158.85 180.51 158.88 179.60 L 158.92 178.61 C 158.95 177.71 158.24 176.95 157.33 176.92 C 156.43 176.89 155.67 177.60 155.64 178.50 Z M 155.62 179.50 L 155.59 180.47 C 155.56 181.36 156.27 182.11 157.17 182.14 C 158.06 182.17 158.81 181.46 158.84 180.57 L 158.87 179.60 C 158.90 178.70 158.19 177.95 157.30 177.92 C 156.40 177.89 155.65 178.60 155.62 179.50 Z M 155.60 180.47 L 155.57 181.48 C 155.54 182.37 156.24 183.12 157.14 183.15 C 158.03 183.17 158.77 182.47 158.80 181.58 L 158.83 180.56 C 158.86 179.67 158.16 178.93 157.26 178.90 C 156.37 178.87 155.63 179.57 155.60 180.47 Z M 155.58 181.48 L 155.55 182.51 C 155.53 183.40 156.22 184.13 157.11 184.16 C 157.99 184.19 158.73 183.49 158.75 182.61 L 158.79 181.58 C 158.81 180.69 158.12 179.96 157.23 179.93 C 156.35 179.90 155.61 180.60 155.58 181.48 Z M 155.57 182.51 L 155.54 183.51 C 155.52 184.39 156.21 185.12 157.08 185.14 C 157.96 185.17 158.69 184.48 158.71 183.60 L 158.74 182.60 C 158.76 181.73 158.07 181.00 157.20 180.97 C 156.32 180.95 155.59 181.64 155.57 182.51 Z M 155.56 183.52 L 155.53 184.49 C 155.51 185.35 156.20 186.07 157.07 186.09 C 157.93 186.11 158.65 185.43 158.67 184.56 L 158.70 183.59 C 158.72 182.73 158.03 182.01 157.16 181.99 C 156.30 181.97 155.58 182.65 155.56 183.52 Z M 155.55 184.50 L 155.53 185.50 C 155.52 186.36 156.20 187.07 157.06 187.08 C 157.92 187.10 158.63 186.41 158.64 185.55 L 158.66 184.55 C 158.67 183.69 157.99 182.98 157.13 182.97 C 156.27 182.95 155.56 183.64 155.55 184.50 Z M 155.55 185.51 L 155.54 186.55 C 155.53 187.39 156.21 188.09 157.06 188.10 C 157.91 188.11 158.61 187.42 158.61 186.57 L 158.62 185.54 C 158.63 184.69 157.95 184.00 157.10 183.99 C 156.25 183.98 155.56 184.66 155.55 185.51 Z M 155.56 186.55 L 155.55 187.54 C 155.55 188.38 156.23 189.07 157.07 189.07 C 157.91 189.07 158.59 188.40 158.59 187.56 L 158.60 186.57 C 158.60 185.73 157.92 185.04 157.08 185.04 C 156.24 185.04 155.56 185.71 155.56 186.55 Z M 155.57 187.55 L 155.57 188.50 C 155.57 189.33 156.24 190.00 157.07 190.00 C 157.90 190.00 158.58 189.33 158.58 188.50 L 158.58 187.55 C 158.58 186.72 157.90 186.05 157.07 186.05 C 156.24 186.05 155.57 186.72 155.57 187.55 Z M 155.58 188.51 L 155.59 189.47 C 155.60 190.29 156.27 190.95 157.09 190.94 C 157.91 190.94 158.57 190.26 158.57 189.44 L 158.56 188.49 C 158.55 187.67 157.88 187.00 157.06 187.01 C 156.24 187.02 155.58 187.69 155.58 188.51 Z M 155.61 189.54 L 155.66 190.50 C 155.71 191.32 156.41 191.94 157.23 191.89 C 158.04 191.84 158.66 191.14 158.61 190.32 L 158.55 189.37 C 158.50 188.55 157.80 187.93 156.99 187.98 C 156.18 188.03 155.56 188.73 155.61 189.54 Z M 155.69 190.64 L 155.85 191.66 C 155.98 192.45 156.73 193.00 157.53 192.87 C 158.33 192.74 158.87 191.99 158.74 191.19 L 158.58 190.18 C 158.45 189.38 157.70 188.84 156.91 188.97 C 156.11 189.10 155.57 189.85 155.69 190.64 Z M 155.90 191.81 L 156.16 192.76 C 156.38 193.53 157.17 193.99 157.95 193.77 C 158.72 193.56 159.17 192.76 158.96 191.99 L 158.70 191.04 C 158.48 190.27 157.69 189.81 156.91 190.03 C 156.14 190.24 155.69 191.04 155.90 191.81 Z M 156.20 192.87 L 156.52 193.75 C 156.80 194.50 157.62 194.88 158.37 194.61 C 159.12 194.34 159.51 193.51 159.24 192.76 L 158.92 191.88 C 158.65 191.13 157.82 190.74 157.07 191.02 C 156.32 191.29 155.93 192.12 156.20 192.87 Z M 156.55 193.81 L 156.94 194.73 C 157.24 195.47 158.09 195.81 158.82 195.51 C 159.56 195.20 159.90 194.36 159.60 193.62 L 159.21 192.70 C 158.90 191.96 158.06 191.62 157.33 191.92 C 156.59 192.23 156.25 193.07 156.55 193.81 Z M 156.96 194.77 L 157.39 195.72 C 157.72 196.45 158.57 196.77 159.29 196.44 C 160.01 196.12 160.33 195.27 160.01 194.54 L 159.58 193.59 C 159.25 192.86 158.40 192.54 157.68 192.87 C 156.95 193.20 156.63 194.05 156.96 194.77 Z M 157.40 195.74 L 157.86 196.71 C 158.19 197.43 159.04 197.74 159.76 197.40 C 160.47 197.07 160.78 196.22 160.45 195.50 L 159.99 194.53 C 159.66 193.81 158.81 193.50 158.09 193.84 C 157.38 194.17 157.07 195.02 157.40 195.74 Z M 157.86 196.71 L 157.90 196.79 C 158.23 197.50 159.08 197.81 159.80 197.47 C 160.51 197.14 160.82 196.29 160.48 195.57 L 160.44 195.50 C 160.11 194.78 159.26 194.48 158.54 194.81 C 157.83 195.15 157.52 196.00 157.86 196.71 Z"
      fill="black"
      fill-rule="nonzero" /></svg>