<svg xmlns="http://www.w3.org/2000/svg" width="300" height="300" viewBox="0 0 300 300">
<path d="M 129.56 112.34 L 128.17 112.33 C 127.31 112.33 126.61 113.02 126.61 113.88 C 126.60 114.75 127.30 115.45 128.16 115.45 L 129.55 115.46 C 130.41 115.46 131.11 114.76 131.11 113.90 C 131.12 113.04 130.42 112.34 129.56 112.34 Z M 128.22 112.32 L 127.07 112.27 C 126.20 112.24 125.47 112.92 125.43 113.79 C 125.40 114.66 126.08 115.39 126.95 115.42 L 128.11 115.47 C 128.98 115.50 129.71 114.82 129.74 113.95 C 129.77 113.08 129.09 112.35 128.22 112.32 Z M 127.27 112.28 L 126.58 112.16 C 125.71 112.02 124.89 112.61 124.75 113.47 C 124.60 114.34 125.19 115.16 126.06 115.31 L 126.75 115.42 C 127.62 115.56 128.44 114.98 128.58 114.11 C 128.73 113.24 128.14 112.42 127.27 112.28 Z M 127.92 113.55 L 127.89 113.35 C 127.79 112.47 127.00 111.84 126.12 111.93 C 125.24 112.03 124.60 112.83 124.70 113.71 L 124.73 113.91 C 124.82 114.79 125.62 115.43 126.50 115.33 C 127.38 115.23 128.01 114.44 127.92 113.55 Z M 127.04 114.96 L 127.60 114.67 C 128.39 114.26 128.70 113.29 128.29 112.50 C 127.88 111.71 126.91 111.40 126.12 111.81 L 125.56 112.10 C 124.77 112.51 124.46 113.48 124.87 114.27 C 125.28 115.06 126.25 115.37 127.04 114.96 Z M 127.42 114.75 L 128.44 114.37 C 129.28 114.06 129.70 113.14 129.40 112.31 C 129.09 111.47 128.16 111.04 127.33 111.35 L 126.30 111.73 C 125.47 112.04 125.04 112.96 125.35 113.80 C 125.66 114.63 126.58 115.06 127.42 114.75 Z M 128.39 114.39 L 129.77 113.93 C 130.62 113.65 131.07 112.74 130.79 111.90 C 130.51 111.05 129.60 110.60 128.76 110.88 L 127.38 111.33 C 126.54 111.61 126.08 112.53 126.36 113.37 C 126.64 114.21 127.55 114.67 128.39 114.39 Z M 129.76 113.93 L 130.78 113.60 C 131.62 113.33 132.08 112.42 131.81 111.57 C 131.53 110.73 130.62 110.27 129.78 110.54 L 128.77 110.87 C 127.92 111.15 127.46 112.06 127.74 112.90 C 128.01 113.75 128.92 114.21 129.76 113.93 Z M 130.78 113.60 L 131.63 113.32 C 132.48 113.05 132.94 112.14 132.66 111.29 C 132.39 110.45 131.48 109.99 130.63 110.26 L 129.78 110.54 C 128.93 110.82 128.47 111.73 128.75 112.57 C 129.03 113.42 129.93 113.88 130.78 113.60 Z M 131.63 113.32 L 132.53 113.03 C 133.38 112.75 133.84 111.84 133.56 111.00 C 133.29 110.16 132.38 109.69 131.53 109.97 L 130.63 110.26 C 129.79 110.54 129.33 111.45 129.60 112.29 C 129.88 113.14 130.79 113.60 131.63 113.32 Z M 132.53 113.03 L 133.47 112.72 C 134.32 112.44 134.78 111.54 134.50 110.69 C 134.23 109.85 133.32 109.39 132.47 109.66 L 131.53 109.97 C 130.69 110.25 130.23 111.15 130.51 112.00 C 130.78 112.84 131.69 113.30 132.53 113.03 Z M 133.47 112.72 L 134.45 112.40 C 135.29 112.13 135.75 111.22 135.48 110.37 C 135.20 109.53 134.30 109.07 133.45 109.35 L 132.48 109.66 C 131.63 109.94 131.17 110.85 131.45 111.69 C 131.72 112.53 132.63 113.00 133.47 112.72 Z M 134.45 112.40 L 135.45 112.07 C 136.30 111.80 136.76 110.89 136.48 110.05 C 136.21 109.20 135.30 108.74 134.46 109.02 L 133.45 109.35 C 132.61 109.62 132.15 110.53 132.42 111.37 C 132.70 112.22 133.60 112.68 134.45 112.40 Z M 135.45 112.07 L 136.49 111.74 C 137.33 111.46 137.79 110.55 137.52 109.71 C 137.24 108.87 136.33 108.41 135.49 108.68 L 134.46 109.02 C 133.61 109.29 133.15 110.20 133.43 111.04 C 133.70 111.89 134.61 112.35 135.45 112.07 Z M 136.49 111.74 L 137.54 111.39 C 138.38 111.12 138.84 110.21 138.57 109.37 C 138.29 108.53 137.39 108.06 136.54 108.34 L 135.49 108.68 C 134.65 108.96 134.19 109.86 134.46 110.71 C 134.74 111.55 135.64 112.01 136.49 111.74 Z M 137.53 111.39 L 138.57 111.06 C 139.42 110.78 139.88 109.88 139.60 109.03 C 139.33 108.19 138.43 107.73 137.58 108.00 L 136.54 108.34 C 135.70 108.61 135.24 109.52 135.51 110.36 C 135.79 111.21 136.69 111.67 137.53 111.39 Z M 138.57 111.05 L 139.61 110.72 C 140.45 110.44 140.92 109.54 140.64 108.70 C 140.37 107.86 139.47 107.39 138.62 107.67 L 137.58 108.00 C 136.74 108.28 136.28 109.18 136.55 110.02 C 136.83 110.87 137.73 111.33 138.57 111.05 Z M 139.61 110.72 L 140.64 110.38 C 141.48 110.11 141.94 109.21 141.67 108.37 C 141.40 107.53 140.49 107.06 139.65 107.34 L 138.63 107.67 C 137.78 107.94 137.32 108.84 137.59 109.68 C 137.87 110.53 138.77 110.99 139.61 110.72 Z M 140.63 110.38 L 141.64 110.06 C 142.48 109.79 142.94 108.89 142.67 108.05 C 142.40 107.21 141.50 106.74 140.65 107.02 L 139.65 107.34 C 138.81 107.61 138.35 108.51 138.62 109.35 C 138.89 110.19 139.79 110.65 140.63 110.38 Z M 141.63 110.06 L 142.59 109.75 C 143.43 109.48 143.90 108.58 143.63 107.74 C 143.36 106.90 142.46 106.44 141.62 106.71 L 140.66 107.02 C 139.82 107.29 139.35 108.19 139.62 109.03 C 139.89 109.87 140.79 110.33 141.63 110.06 Z M 142.59 109.75 L 143.50 109.46 C 144.34 109.20 144.80 108.30 144.53 107.46 C 144.27 106.62 143.37 106.15 142.53 106.42 L 141.62 106.71 C 140.78 106.98 140.32 107.87 140.58 108.72 C 140.85 109.56 141.75 110.02 142.59 109.75 Z M 143.49 109.46 L 144.33 109.20 C 145.17 108.93 145.64 108.04 145.37 107.20 C 145.11 106.36 144.21 105.89 143.37 106.16 L 142.53 106.42 C 141.69 106.69 141.23 107.58 141.49 108.42 C 141.76 109.26 142.65 109.73 143.49 109.46 Z M 144.33 109.20 L 145.18 108.93 C 146.02 108.67 146.49 107.78 146.23 106.94 C 145.96 106.10 145.07 105.63 144.23 105.89 L 143.38 106.16 C 142.54 106.42 142.07 107.31 142.33 108.15 C 142.59 108.99 143.49 109.46 144.33 109.20 Z M 145.17 108.93 L 146.27 108.60 C 147.11 108.34 147.58 107.45 147.33 106.61 C 147.07 105.77 146.18 105.30 145.34 105.56 L 144.24 105.89 C 143.40 106.15 142.93 107.04 143.18 107.88 C 143.44 108.72 144.33 109.19 145.17 108.93 Z M 146.26 108.60 L 147.19 108.32 C 148.03 108.07 148.51 107.19 148.26 106.35 C 148.01 105.51 147.13 105.03 146.29 105.28 L 145.35 105.56 C 144.52 105.81 144.04 106.69 144.29 107.53 C 144.54 108.37 145.42 108.85 146.26 108.60 Z M 147.19 108.31 L 148.05 108.06 C 148.89 107.82 149.37 106.94 149.12 106.10 C 148.88 105.26 148.00 104.78 147.16 105.03 L 146.30 105.28 C 145.46 105.53 144.98 106.40 145.23 107.24 C 145.47 108.08 146.35 108.56 147.19 108.31 Z M 148.05 108.06 L 148.93 107.80 C 149.77 107.55 150.25 106.68 150.00 105.84 C 149.76 105.01 148.88 104.53 148.05 104.77 L 147.16 105.03 C 146.33 105.28 145.85 106.15 146.10 106.99 C 146.34 107.82 147.22 108.30 148.05 108.06 Z M 148.94 107.79 L 149.81 107.53 C 150.64 107.28 151.11 106.41 150.86 105.58 C 150.61 104.75 149.74 104.27 148.91 104.52 L 148.04 104.78 C 147.21 105.03 146.74 105.90 146.99 106.74 C 147.23 107.57 148.11 108.04 148.94 107.79 Z M 149.81 107.53 L 150.69 107.26 C 151.52 107.01 151.99 106.13 151.74 105.30 C 151.49 104.47 150.61 104.01 149.78 104.26 L 148.90 104.53 C 148.07 104.78 147.60 105.66 147.85 106.48 C 148.11 107.31 148.98 107.78 149.81 107.53 Z M 150.70 107.26 L 151.65 106.96 C 152.47 106.71 152.94 105.83 152.68 105.01 C 152.42 104.18 151.55 103.72 150.72 103.97 L 149.78 104.26 C 148.95 104.52 148.49 105.39 148.74 106.22 C 149.00 107.05 149.87 107.51 150.70 107.26 Z M 151.65 106.96 L 152.64 106.65 C 153.47 106.39 153.92 105.52 153.67 104.69 C 153.41 103.87 152.53 103.41 151.71 103.66 L 150.72 103.97 C 149.89 104.23 149.43 105.11 149.69 105.93 C 149.95 106.76 150.83 107.22 151.65 106.96 Z M 152.65 106.65 L 153.66 106.32 C 154.48 106.06 154.94 105.19 154.68 104.36 C 154.42 103.54 153.54 103.09 152.72 103.35 L 151.70 103.67 C 150.88 103.93 150.43 104.81 150.69 105.63 C 150.95 106.45 151.82 106.91 152.65 106.65 Z M 153.67 106.32 L 154.69 105.99 C 155.51 105.73 155.96 104.85 155.70 104.03 C 155.44 103.21 154.56 102.76 153.74 103.02 L 152.72 103.35 C 151.90 103.61 151.44 104.49 151.71 105.31 C 151.97 106.13 152.85 106.58 153.67 106.32 Z M 154.69 105.99 L 155.67 105.67 C 156.49 105.41 156.94 104.53 156.68 103.71 C 156.41 102.90 155.53 102.45 154.72 102.71 L 153.74 103.03 C 152.92 103.29 152.47 104.17 152.74 104.99 C 153.00 105.80 153.88 106.25 154.69 105.99 Z M 155.68 105.66 L 156.64 105.35 C 157.46 105.08 157.90 104.21 157.64 103.40 C 157.37 102.58 156.50 102.14 155.68 102.40 L 154.72 102.72 C 153.90 102.98 153.46 103.86 153.72 104.67 C 153.99 105.48 154.86 105.93 155.68 105.66 Z M 156.64 105.34 L 157.60 105.03 C 158.41 104.76 158.85 103.89 158.59 103.08 C 158.32 102.27 157.45 101.83 156.64 102.10 L 155.68 102.41 C 154.87 102.67 154.43 103.55 154.70 104.36 C 154.96 105.17 155.83 105.61 156.64 105.34 Z M 157.60 105.02 L 158.54 104.72 C 159.35 104.45 159.79 103.58 159.52 102.78 C 159.26 101.97 158.39 101.53 157.59 101.79 L 156.64 102.10 C 155.83 102.37 155.39 103.23 155.66 104.04 C 155.92 104.85 156.79 105.29 157.60 105.02 Z M 158.54 104.71 L 159.47 104.41 C 160.27 104.15 160.71 103.28 160.45 102.48 C 160.19 101.67 159.33 101.23 158.52 101.49 L 157.59 101.80 C 156.79 102.06 156.35 102.92 156.61 103.73 C 156.87 104.53 157.73 104.97 158.54 104.71 Z M 159.46 104.40 L 160.39 104.11 C 161.19 103.85 161.63 102.99 161.37 102.19 C 161.11 101.38 160.25 100.94 159.45 101.20 L 158.53 101.50 C 157.73 101.76 157.29 102.62 157.54 103.42 C 157.80 104.22 158.66 104.66 159.46 104.40 Z M 160.38 104.10 L 161.29 103.81 C 162.09 103.55 162.53 102.70 162.28 101.90 C 162.02 101.10 161.17 100.66 160.37 100.92 L 159.46 101.21 C 158.66 101.46 158.22 102.32 158.47 103.11 C 158.72 103.91 159.58 104.36 160.38 104.10 Z M 161.29 103.80 L 162.20 103.51 C 163.00 103.26 163.44 102.41 163.19 101.62 C 162.94 100.82 162.09 100.38 161.29 100.63 L 160.37 100.92 C 159.58 101.17 159.14 102.02 159.39 102.82 C 159.64 103.61 160.49 104.06 161.29 103.80 Z M 162.20 103.51 L 163.13 103.21 C 163.92 102.96 164.36 102.11 164.11 101.32 C 163.86 100.53 163.01 100.09 162.22 100.34 L 161.29 100.64 C 160.50 100.89 160.06 101.74 160.31 102.53 C 160.56 103.32 161.41 103.76 162.20 103.51 Z M 163.13 103.20 L 164.09 102.90 C 164.88 102.64 165.31 101.80 165.06 101.01 C 164.80 100.23 163.96 99.79 163.17 100.04 L 162.22 100.35 C 161.43 100.60 161.00 101.45 161.25 102.23 C 161.50 103.02 162.35 103.45 163.13 103.20 Z M 164.09 102.89 L 165.09 102.56 C 165.87 102.31 166.30 101.47 166.04 100.69 C 165.79 99.90 164.95 99.48 164.16 99.73 L 163.17 100.05 C 162.39 100.31 161.96 101.15 162.21 101.93 C 162.47 102.71 163.31 103.14 164.09 102.89 Z M 165.09 102.55 L 166.07 102.23 C 166.85 101.97 167.27 101.13 167.01 100.35 C 166.76 99.58 165.92 99.16 165.14 99.41 L 164.16 99.74 C 163.38 100.00 162.96 100.84 163.22 101.61 C 163.48 102.39 164.31 102.81 165.09 102.55 Z M 166.08 102.22 L 166.96 101.92 C 167.73 101.66 168.15 100.82 167.89 100.05 C 167.63 99.28 166.79 98.86 166.02 99.12 L 165.13 99.42 C 164.36 99.68 163.95 100.52 164.21 101.29 C 164.47 102.07 165.31 102.48 166.08 102.22 Z M 166.96 101.92 L 167.88 101.60 C 168.65 101.34 169.06 100.50 168.79 99.73 C 168.53 98.97 167.69 98.56 166.92 98.82 L 166.01 99.13 C 165.24 99.39 164.83 100.23 165.10 101.00 C 165.36 101.77 166.20 102.18 166.96 101.92 Z M 167.88 101.60 L 168.82 101.27 C 169.59 101.01 169.99 100.17 169.73 99.41 C 169.46 98.64 168.63 98.24 167.86 98.50 L 166.92 98.82 C 166.16 99.09 165.75 99.92 166.01 100.69 C 166.28 101.46 167.11 101.86 167.88 101.60 Z M 168.82 101.27 L 169.78 100.93 C 170.54 100.67 170.95 99.83 170.68 99.07 C 170.42 98.31 169.58 97.91 168.82 98.17 L 167.86 98.51 C 167.10 98.77 166.69 99.60 166.96 100.37 C 167.23 101.13 168.06 101.53 168.82 101.27 Z M 169.78 100.93 L 170.76 100.59 C 171.52 100.32 171.92 99.49 171.65 98.73 C 171.38 97.97 170.55 97.57 169.79 97.84 L 168.82 98.18 C 168.06 98.44 167.66 99.27 167.93 100.03 C 168.19 100.79 169.02 101.19 169.78 100.93 Z M 170.76 100.58 L 171.74 100.23 C 172.50 99.97 172.90 99.14 172.63 98.38 C 172.36 97.63 171.54 97.23 170.78 97.50 L 169.79 97.84 C 169.04 98.11 168.64 98.94 168.91 99.69 C 169.17 100.45 170.00 100.85 170.76 100.58 Z M 171.74 100.23 L 172.63 99.92 C 173.39 99.65 173.78 98.82 173.52 98.07 C 173.25 97.32 172.43 96.92 171.67 97.19 L 170.78 97.50 C 170.03 97.77 169.63 98.59 169.90 99.34 C 170.16 100.10 170.99 100.49 171.74 100.23 Z"
      fill="black"
      fill-rule="nonzero" /><path d="M 151.19 102.64 L 150.68 103.43 C 150.23 104.12 150.43 105.04 151.12 105.49 C 151.81 105.94 152.74 105.74 153.19 105.05 L 153.70 104.26 C 154.14 103.56 153.95 102.64 153.25 102.19 C 152.56 101.74 151.63 101.94 151.19 102.64 Z M 150.62 103.42 L 150.11 104.25 C 149.66 104.98 149.88 105.93 150.60 106.38 C 151.33 106.83 152.28 106.60 152.73 105.88 L 153.24 105.05 C 153.69 104.33 153.47 103.37 152.75 102.92 C 152.02 102.48 151.07 102.70 150.62 103.42 Z M 150.04 104.27 L 149.52 105.17 C 149.08 105.94 149.34 106.91 150.10 107.35 C 150.86 107.79 151.84 107.53 152.28 106.76 L 152.80 105.86 C 153.24 105.10 152.98 104.12 152.21 103.68 C 151.45 103.24 150.48 103.51 150.04 104.27 Z M 149.46 105.21 L 149.00 106.08 C 148.58 106.87 148.88 107.86 149.68 108.28 C 150.48 108.70 151.46 108.39 151.88 107.60 L 152.34 106.73 C 152.76 105.93 152.45 104.95 151.66 104.53 C 150.86 104.11 149.87 104.41 149.46 105.21 Z M 148.96 106.11 L 148.54 106.97 C 148.14 107.78 148.48 108.77 149.29 109.17 C 150.11 109.57 151.09 109.24 151.50 108.42 L 151.92 107.56 C 152.32 106.75 151.98 105.76 151.17 105.36 C 150.35 104.96 149.36 105.29 148.96 106.11 Z M 148.52 106.98 L 148.09 107.89 C 147.70 108.72 148.05 109.71 148.88 110.10 C 149.71 110.49 150.69 110.14 151.08 109.31 L 151.51 108.40 C 151.91 107.58 151.55 106.59 150.73 106.20 C 149.90 105.81 148.91 106.16 148.52 106.98 Z M 148.08 107.90 L 147.64 108.85 C 147.25 109.68 147.61 110.67 148.44 111.06 C 149.28 111.45 150.27 111.09 150.65 110.26 L 151.10 109.31 C 151.48 108.47 151.12 107.48 150.29 107.09 C 149.46 106.71 148.47 107.07 148.08 107.90 Z M 147.63 108.84 L 147.18 109.80 C 146.79 110.64 147.15 111.63 147.99 112.03 C 148.83 112.42 149.82 112.06 150.21 111.22 L 150.66 110.26 C 151.05 109.42 150.69 108.43 149.85 108.04 C 149.02 107.65 148.02 108.01 147.63 108.84 Z M 147.18 109.79 L 146.74 110.72 C 146.34 111.56 146.70 112.56 147.54 112.96 C 148.37 113.35 149.37 113.00 149.77 112.16 L 150.21 111.23 C 150.61 110.39 150.25 109.39 149.42 109.00 C 148.58 108.60 147.58 108.96 147.18 109.79 Z M 146.74 110.71 L 146.30 111.63 C 145.89 112.47 146.24 113.47 147.08 113.88 C 147.91 114.28 148.92 113.93 149.32 113.10 L 149.77 112.17 C 150.17 111.34 149.82 110.33 148.99 109.93 C 148.15 109.53 147.15 109.88 146.74 110.71 Z M 146.30 111.62 L 145.86 112.52 C 145.45 113.35 145.79 114.36 146.62 114.77 C 147.45 115.18 148.46 114.84 148.87 114.01 L 149.32 113.11 C 149.73 112.28 149.38 111.27 148.55 110.86 C 147.72 110.45 146.71 110.79 146.30 111.62 Z M 145.86 112.50 L 145.43 113.36 C 145.01 114.19 145.34 115.20 146.17 115.62 C 147.00 116.04 148.02 115.71 148.43 114.88 L 148.87 114.02 C 149.29 113.19 148.95 112.18 148.13 111.76 C 147.30 111.34 146.28 111.67 145.86 112.50 Z M 145.44 113.34 L 144.97 114.23 C 144.54 115.06 144.86 116.08 145.68 116.51 C 146.51 116.94 147.53 116.62 147.96 115.79 L 148.43 114.90 C 148.86 114.07 148.54 113.05 147.71 112.62 C 146.89 112.19 145.87 112.51 145.44 113.34 Z M 144.98 114.21 L 144.51 115.09 C 144.07 115.90 144.37 116.93 145.19 117.37 C 146.00 117.81 147.03 117.51 147.47 116.69 L 147.95 115.82 C 148.39 115.00 148.09 113.98 147.27 113.53 C 146.45 113.09 145.43 113.39 144.98 114.21 Z M 144.52 115.07 L 144.04 115.92 C 143.59 116.73 143.88 117.76 144.69 118.21 C 145.50 118.67 146.53 118.38 146.98 117.56 L 147.46 116.71 C 147.92 115.90 147.63 114.87 146.81 114.42 C 146.00 113.96 144.97 114.25 144.52 115.07 Z M 144.05 115.90 L 143.56 116.76 C 143.10 117.57 143.38 118.60 144.18 119.07 C 144.99 119.53 146.02 119.25 146.48 118.44 L 146.98 117.58 C 147.44 116.77 147.16 115.74 146.35 115.28 C 145.54 114.81 144.51 115.09 144.05 115.90 Z M 143.56 116.76 L 143.10 117.56 C 142.63 118.37 142.91 119.40 143.71 119.86 C 144.52 120.33 145.55 120.06 146.02 119.25 L 146.48 118.45 C 146.95 117.64 146.67 116.61 145.87 116.14 C 145.06 115.68 144.03 115.95 143.56 116.76 Z M 143.10 117.55 L 142.62 118.38 C 142.15 119.18 142.42 120.22 143.22 120.69 C 144.03 121.16 145.06 120.89 145.53 120.08 L 146.01 119.26 C 146.48 118.45 146.21 117.42 145.41 116.95 C 144.60 116.48 143.57 116.75 143.10 117.55 Z M 142.62 118.37 L 142.11 119.24 C 141.64 120.04 141.90 121.07 142.70 121.55 C 143.51 122.02 144.54 121.76 145.01 120.95 L 145.53 120.09 C 146.00 119.29 145.74 118.25 144.93 117.78 C 144.13 117.30 143.10 117.57 142.62 118.37 Z M 142.12 119.23 L 141.57 120.13 C 141.09 120.93 141.35 121.97 142.15 122.45 C 142.95 122.93 143.99 122.67 144.47 121.87 L 145.01 120.96 C 145.49 120.16 145.23 119.13 144.43 118.65 C 143.63 118.17 142.59 118.43 142.12 119.23 Z M 141.58 120.12 L 141.04 121.00 C 140.56 121.80 140.81 122.83 141.61 123.32 C 142.41 123.80 143.44 123.55 143.93 122.75 L 144.46 121.88 C 144.95 121.08 144.69 120.04 143.90 119.56 C 143.10 119.07 142.06 119.33 141.58 120.12 Z M 141.05 120.99 L 140.56 121.79 C 140.07 122.58 140.31 123.62 141.11 124.11 C 141.90 124.60 142.94 124.36 143.43 123.56 L 143.92 122.76 C 144.41 121.97 144.17 120.93 143.37 120.44 C 142.58 119.95 141.54 120.20 141.05 120.99 Z M 140.56 121.78 L 140.05 122.61 C 139.55 123.40 139.79 124.44 140.58 124.93 C 141.38 125.43 142.42 125.19 142.91 124.40 L 143.43 123.57 C 143.92 122.78 143.68 121.74 142.89 121.25 C 142.10 120.75 141.06 120.99 140.56 121.78 Z M 140.05 122.60 L 139.51 123.45 C 139.02 124.24 139.25 125.28 140.04 125.78 C 140.83 126.28 141.87 126.04 142.37 125.25 L 142.90 124.40 C 143.40 123.62 143.17 122.57 142.38 122.08 C 141.59 121.58 140.55 121.81 140.05 122.60 Z M 139.52 123.44 L 138.96 124.32 C 138.46 125.10 138.69 126.15 139.47 126.65 C 140.26 127.15 141.30 126.92 141.80 126.14 L 142.36 125.26 C 142.86 124.48 142.64 123.43 141.85 122.93 C 141.07 122.43 140.02 122.66 139.52 123.44 Z M 138.96 124.31 L 138.38 125.21 C 137.88 125.99 138.10 127.03 138.88 127.54 C 139.66 128.05 140.71 127.83 141.21 127.04 L 141.80 126.15 C 142.30 125.36 142.08 124.32 141.30 123.81 C 140.52 123.30 139.47 123.53 138.96 124.31 Z M 138.39 125.20 L 137.87 125.99 C 137.36 126.76 137.58 127.81 138.36 128.32 C 139.14 128.83 140.18 128.62 140.69 127.84 L 141.21 127.05 C 141.72 126.27 141.50 125.23 140.72 124.71 C 139.95 124.20 138.90 124.42 138.39 125.20 Z M 137.88 125.98 L 137.35 126.77 C 136.83 127.55 137.05 128.60 137.82 129.11 C 138.60 129.63 139.65 129.41 140.16 128.64 L 140.69 127.84 C 141.20 127.07 140.99 126.02 140.21 125.51 C 139.44 124.99 138.39 125.20 137.88 125.98 Z M 137.35 126.77 L 136.81 127.58 C 136.29 128.36 136.50 129.40 137.27 129.92 C 138.05 130.44 139.09 130.23 139.61 129.46 L 140.16 128.64 C 140.67 127.87 140.47 126.82 139.69 126.31 C 138.92 125.79 137.87 126.00 137.35 126.77 Z M 136.81 127.58 L 136.25 128.41 C 135.73 129.18 135.93 130.23 136.71 130.75 C 137.48 131.27 138.52 131.07 139.05 130.29 L 139.61 129.46 C 140.13 128.69 139.92 127.64 139.15 127.12 C 138.38 126.60 137.33 126.81 136.81 127.58 Z M 136.26 128.40 L 135.68 129.26 C 135.15 130.03 135.35 131.07 136.12 131.60 C 136.89 132.12 137.94 131.92 138.46 131.15 L 139.04 130.30 C 139.56 129.53 139.37 128.48 138.60 127.96 C 137.83 127.44 136.78 127.64 136.26 128.40 Z M 135.68 129.25 L 135.08 130.13 C 134.56 130.89 134.75 131.94 135.52 132.47 C 136.29 132.99 137.33 132.80 137.86 132.03 L 138.46 131.16 C 138.98 130.39 138.79 129.34 138.02 128.82 C 137.25 128.29 136.21 128.49 135.68 129.25 Z M 135.09 130.12 L 134.51 130.96 C 133.98 131.73 134.17 132.77 134.94 133.30 C 135.70 133.83 136.75 133.64 137.28 132.87 L 137.86 132.03 C 138.38 131.27 138.19 130.22 137.43 129.69 C 136.66 129.16 135.61 129.36 135.09 130.12 Z M 134.51 130.96 L 133.95 131.76 C 133.42 132.52 133.61 133.57 134.38 134.10 C 135.14 134.63 136.19 134.44 136.72 133.68 L 137.27 132.87 C 137.80 132.11 137.61 131.06 136.85 130.53 C 136.09 130.00 135.04 130.19 134.51 130.96 Z M 133.96 131.75 L 133.39 132.57 C 132.86 133.33 133.05 134.38 133.81 134.91 C 134.57 135.44 135.62 135.25 136.15 134.49 L 136.71 133.68 C 137.25 132.92 137.06 131.87 136.30 131.34 C 135.54 130.81 134.49 130.99 133.96 131.75 Z M 133.39 132.56 L 132.82 133.38 C 132.28 134.14 132.47 135.19 133.23 135.72 C 133.98 136.26 135.03 136.08 135.57 135.32 L 136.14 134.50 C 136.68 133.74 136.49 132.69 135.74 132.16 C 134.98 131.62 133.93 131.80 133.39 132.56 Z M 132.82 133.38 L 132.24 134.20 C 131.70 134.96 131.88 136.01 132.64 136.55 C 133.39 137.08 134.44 136.90 134.98 136.15 L 135.56 135.32 C 136.10 134.57 135.92 133.52 135.16 132.98 C 134.41 132.44 133.36 132.62 132.82 133.38 Z M 132.24 134.20 L 131.65 135.02 C 131.11 135.78 131.29 136.83 132.04 137.37 C 132.79 137.91 133.84 137.73 134.38 136.98 L 134.97 136.15 C 135.51 135.40 135.34 134.35 134.58 133.81 C 133.83 133.27 132.78 133.45 132.24 134.20 Z M 131.66 135.02 L 131.06 135.84 C 130.52 136.59 130.69 137.64 131.44 138.18 C 132.19 138.73 133.24 138.56 133.78 137.81 L 134.38 136.98 C 134.92 136.23 134.75 135.18 134.00 134.64 C 133.25 134.10 132.20 134.27 131.66 135.02 Z M 131.07 135.84 L 130.47 136.65 C 129.93 137.40 130.09 138.45 130.84 138.99 C 131.58 139.54 132.63 139.38 133.18 138.63 L 133.78 137.81 C 134.32 137.07 134.16 136.02 133.41 135.47 C 132.66 134.92 131.61 135.09 131.07 135.84 Z M 130.48 136.65 L 129.88 137.46 C 129.33 138.20 129.48 139.25 130.23 139.80 C 130.97 140.35 132.02 140.19 132.57 139.45 L 133.17 138.64 C 133.72 137.89 133.56 136.84 132.82 136.29 C 132.08 135.74 131.03 135.90 130.48 136.65 Z M 129.88 137.45 L 129.28 138.26 C 128.73 139.00 128.88 140.05 129.62 140.60 C 130.36 141.15 131.41 141.00 131.96 140.26 L 132.56 139.46 C 133.12 138.71 132.96 137.67 132.22 137.11 C 131.48 136.56 130.44 136.71 129.88 137.45 Z M 129.29 138.26 L 128.68 139.05 C 128.13 139.79 128.28 140.84 129.02 141.40 C 129.75 141.95 130.80 141.80 131.36 141.06 L 131.96 140.27 C 132.51 139.53 132.36 138.48 131.63 137.92 C 130.89 137.37 129.84 137.52 129.29 138.26 Z M 128.69 139.05 L 128.09 139.85 C 127.53 140.58 127.68 141.63 128.41 142.19 C 129.15 142.74 130.19 142.60 130.75 141.86 L 131.35 141.07 C 131.91 140.33 131.76 139.28 131.03 138.73 C 130.29 138.17 129.25 138.32 128.69 139.05 Z M 128.09 139.85 L 127.49 140.64 C 126.93 141.37 127.07 142.42 127.81 142.98 C 128.54 143.53 129.59 143.39 130.15 142.66 L 130.75 141.86 C 131.31 141.13 131.16 140.08 130.43 139.53 C 129.69 138.97 128.65 139.11 128.09 139.85 Z M 127.49 140.64 L 126.89 141.43 C 126.33 142.16 126.47 143.21 127.21 143.77 C 127.94 144.32 128.99 144.18 129.54 143.45 L 130.14 142.66 C 130.70 141.92 130.56 140.88 129.83 140.32 C 129.09 139.76 128.05 139.90 127.49 140.64 Z M 126.89 141.43 L 126.29 142.22 C 125.73 142.95 125.87 144.00 126.61 144.56 C 127.34 145.11 128.38 144.97 128.94 144.24 L 129.54 143.45 C 130.10 142.71 129.96 141.67 129.22 141.11 C 128.49 140.56 127.45 140.70 126.89 141.43 Z M 126.29 142.22 L 125.68 143.02 C 125.13 143.76 125.27 144.80 126.00 145.36 C 126.74 145.91 127.78 145.77 128.34 145.03 L 128.94 144.23 C 129.50 143.50 129.35 142.46 128.62 141.90 C 127.89 141.35 126.84 141.49 126.29 142.22 Z M 125.68 143.03 L 125.08 143.83 C 124.52 144.56 124.67 145.60 125.40 146.16 C 126.13 146.71 127.18 146.56 127.73 145.83 L 128.33 145.03 C 128.89 144.30 128.74 143.26 128.01 142.70 C 127.28 142.15 126.24 142.29 125.68 143.03 Z M 125.08 143.83 L 124.47 144.63 C 123.92 145.36 124.06 146.40 124.80 146.95 C 125.53 147.51 126.57 147.36 127.12 146.63 L 127.73 145.83 C 128.28 145.10 128.14 144.06 127.41 143.51 C 126.67 142.95 125.63 143.10 125.08 143.83 Z M 124.48 144.63 L 123.87 145.43 C 123.32 146.16 123.46 147.20 124.19 147.75 C 124.92 148.30 125.96 148.16 126.51 147.43 L 127.12 146.63 C 127.67 145.90 127.53 144.86 126.80 144.31 C 126.07 143.76 125.03 143.90 124.48 144.63 Z M 123.87 145.43 L 123.27 146.22 C 122.71 146.95 122.85 147.99 123.58 148.54 C 124.31 149.10 125.35 148.96 125.90 148.23 L 126.51 147.43 C 127.06 146.70 126.92 145.67 126.19 145.11 C 125.47 144.56 124.43 144.70 123.87 145.43 Z M 123.27 146.22 L 122.67 147.01 C 122.11 147.74 122.25 148.78 122.97 149.33 C 123.70 149.89 124.74 149.75 125.29 149.02 L 125.90 148.23 C 126.46 147.51 126.32 146.47 125.59 145.91 C 124.87 145.36 123.83 145.49 123.27 146.22 Z M 122.67 147.01 L 122.07 147.79 C 121.51 148.52 121.64 149.55 122.37 150.11 C 123.09 150.67 124.13 150.53 124.68 149.81 L 125.29 149.03 C 125.85 148.30 125.71 147.27 124.99 146.71 C 124.27 146.15 123.23 146.28 122.67 147.01 Z M 122.07 147.79 L 121.45 148.59 C 120.89 149.31 121.02 150.35 121.74 150.91 C 122.46 151.47 123.49 151.34 124.05 150.62 L 124.68 149.82 C 125.24 149.10 125.11 148.06 124.39 147.50 C 123.67 146.94 122.63 147.07 122.07 147.79 Z M 121.45 148.59 L 120.82 149.39 C 120.26 150.11 120.38 151.14 121.10 151.70 C 121.82 152.27 122.85 152.14 123.41 151.43 L 124.05 150.62 C 124.61 149.91 124.48 148.87 123.77 148.31 C 123.05 147.75 122.02 147.87 121.45 148.59 Z M 120.83 149.39 L 120.20 150.18 C 119.64 150.90 119.76 151.93 120.47 152.49 C 121.18 153.06 122.21 152.94 122.78 152.23 L 123.41 151.43 C 123.97 150.72 123.85 149.68 123.14 149.12 C 122.43 148.56 121.39 148.68 120.83 149.39 Z M 120.20 150.18 L 119.58 150.97 C 119.01 151.68 119.13 152.71 119.84 153.27 C 120.55 153.84 121.58 153.72 122.15 153.01 L 122.77 152.23 C 123.34 151.52 123.22 150.49 122.51 149.92 C 121.80 149.35 120.77 149.47 120.20 150.18 Z M 119.58 150.96 L 118.96 151.74 C 118.40 152.45 118.51 153.48 119.22 154.04 C 119.92 154.61 120.95 154.50 121.52 153.79 L 122.14 153.01 C 122.71 152.31 122.59 151.28 121.89 150.71 C 121.18 150.14 120.15 150.26 119.58 150.96 Z M 118.97 151.74 L 118.35 152.50 C 117.78 153.21 117.90 154.24 118.60 154.81 C 119.30 155.37 120.33 155.26 120.90 154.56 L 121.52 153.79 C 122.08 153.09 121.97 152.06 121.27 151.49 C 120.56 150.92 119.53 151.04 118.97 151.74 Z M 118.35 152.50 L 117.75 153.26 C 117.18 153.96 117.29 154.99 117.99 155.56 C 118.69 156.12 119.72 156.01 120.29 155.31 L 120.90 154.56 C 121.46 153.85 121.35 152.83 120.65 152.26 C 119.95 151.69 118.92 151.80 118.35 152.50 Z M 117.75 153.26 L 117.10 154.07 C 116.53 154.77 116.64 155.79 117.34 156.36 C 118.04 156.93 119.07 156.82 119.63 156.12 L 120.28 155.31 C 120.85 154.61 120.74 153.58 120.04 153.02 C 119.34 152.45 118.31 152.56 117.75 153.26 Z M 117.10 154.07 L 116.45 154.87 C 115.88 155.57 115.99 156.60 116.69 157.16 C 117.39 157.73 118.41 157.62 118.98 156.92 L 119.63 156.11 C 120.19 155.42 120.09 154.39 119.39 153.83 C 118.69 153.26 117.67 153.37 117.10 154.07 Z M 116.45 154.88 L 115.81 155.67 C 115.25 156.36 115.35 157.38 116.05 157.95 C 116.74 158.51 117.77 158.41 118.33 157.71 L 118.97 156.92 C 119.54 156.22 119.43 155.20 118.73 154.64 C 118.04 154.07 117.02 154.18 116.45 154.88 Z M 115.81 155.67 L 115.18 156.44 C 114.62 157.13 114.73 158.15 115.42 158.72 C 116.11 159.28 117.13 159.18 117.70 158.48 L 118.33 157.71 C 118.89 157.02 118.79 156.00 118.09 155.43 C 117.40 154.87 116.38 154.97 115.81 155.67 Z M 115.19 156.44 L 114.57 157.20 C 114.01 157.89 114.11 158.91 114.80 159.47 C 115.49 160.04 116.51 159.93 117.08 159.24 L 117.69 158.48 C 118.26 157.79 118.15 156.78 117.46 156.21 C 116.77 155.65 115.75 155.75 115.19 156.44 Z M 114.58 157.20 L 113.97 157.94 C 113.41 158.62 113.51 159.64 114.20 160.20 C 114.89 160.77 115.90 160.67 116.47 159.98 L 117.07 159.24 C 117.63 158.55 117.53 157.54 116.85 156.97 C 116.16 156.41 115.14 156.51 114.58 157.20 Z M 113.98 157.93 L 113.37 158.68 C 112.80 159.36 112.90 160.37 113.59 160.94 C 114.27 161.50 115.28 161.41 115.85 160.72 L 116.46 159.98 C 117.02 159.29 116.93 158.28 116.24 157.72 C 115.56 157.15 114.54 157.25 113.98 157.93 Z M 113.37 158.67 L 112.76 159.42 C 112.19 160.10 112.29 161.11 112.97 161.68 C 113.65 162.24 114.66 162.15 115.23 161.47 L 115.84 160.72 C 116.41 160.04 116.31 159.03 115.63 158.46 C 114.95 157.90 113.94 157.99 113.37 158.67 Z M 112.76 159.42 L 112.15 160.16 C 111.58 160.84 111.67 161.85 112.35 162.41 C 113.03 162.98 114.04 162.89 114.60 162.21 L 115.22 161.47 C 115.79 160.79 115.70 159.78 115.02 159.21 C 114.34 158.65 113.33 158.74 112.76 159.42 Z M 112.15 160.16 L 111.52 160.91 C 110.96 161.59 111.05 162.59 111.72 163.16 C 112.40 163.72 113.41 163.63 113.97 162.96 L 114.60 162.21 C 115.17 161.53 115.08 160.52 114.40 159.96 C 113.72 159.39 112.72 159.48 112.15 160.16 Z M 111.53 160.91 L 110.88 161.68 C 110.31 162.36 110.40 163.36 111.07 163.93 C 111.75 164.49 112.75 164.40 113.32 163.73 L 113.97 162.96 C 114.53 162.28 114.44 161.28 113.77 160.71 C 113.10 160.15 112.09 160.24 111.53 160.91 Z M 110.88 161.69 L 110.20 162.50 C 109.64 163.17 109.72 164.17 110.40 164.73 C 111.07 165.30 112.07 165.21 112.63 164.54 L 113.31 163.73 C 113.88 163.06 113.79 162.06 113.12 161.49 C 112.45 160.93 111.45 161.02 110.88 161.69 Z M 110.21 162.50 L 109.53 163.29 C 108.97 163.96 109.06 164.96 109.73 165.53 C 110.39 166.09 111.39 166.00 111.96 165.33 L 112.63 164.54 C 113.19 163.87 113.11 162.87 112.44 162.31 C 111.77 161.74 110.77 161.83 110.21 162.50 Z M 109.54 163.29 L 108.87 164.09 C 108.30 164.75 108.39 165.75 109.05 166.31 C 109.72 166.88 110.71 166.80 111.28 166.13 L 111.95 165.34 C 112.52 164.67 112.43 163.67 111.77 163.11 C 111.10 162.54 110.10 162.63 109.54 163.29 Z M 108.88 164.08 L 108.19 164.89 C 107.62 165.55 107.70 166.54 108.36 167.11 C 109.02 167.68 110.02 167.60 110.58 166.94 L 111.27 166.14 C 111.84 165.47 111.76 164.48 111.10 163.91 C 110.44 163.34 109.44 163.42 108.88 164.08 Z M 108.20 164.88 L 107.51 165.67 C 106.94 166.32 107.01 167.31 107.66 167.89 C 108.32 168.46 109.31 168.39 109.88 167.73 L 110.57 166.95 C 111.14 166.29 111.07 165.30 110.42 164.73 C 109.77 164.15 108.77 164.22 108.20 164.88 Z M 107.53 165.65 L 106.85 166.41 C 106.27 167.05 106.33 168.04 106.97 168.62 C 107.62 169.20 108.61 169.15 109.19 168.50 L 109.87 167.75 C 110.44 167.10 110.39 166.11 109.75 165.53 C 109.10 164.95 108.11 165.01 107.53 165.65 Z M 106.87 166.39 L 106.22 167.09 C 105.63 167.72 105.67 168.71 106.30 169.30 C 106.93 169.89 107.93 169.85 108.52 169.22 L 109.17 168.52 C 109.76 167.89 109.72 166.90 109.09 166.31 C 108.46 165.72 107.46 165.75 106.87 166.39 Z M 106.26 167.06 L 105.62 167.70 C 105.02 168.31 105.02 169.30 105.64 169.91 C 106.25 170.52 107.24 170.51 107.85 169.89 L 108.48 169.25 C 109.09 168.64 109.08 167.65 108.47 167.04 C 107.85 166.43 106.86 166.44 106.26 167.06 Z M 105.71 167.63 L 104.65 168.56 C 104.01 169.12 103.95 170.11 104.51 170.75 C 105.08 171.39 106.06 171.46 106.71 170.89 L 107.76 169.96 C 108.41 169.40 108.47 168.41 107.90 167.77 C 107.34 167.13 106.35 167.06 105.71 167.63 Z M 104.93 168.38 L 104.08 168.86 C 103.34 169.27 103.08 170.21 103.49 170.95 C 103.91 171.69 104.84 171.96 105.58 171.54 L 106.43 171.07 C 107.17 170.65 107.44 169.71 107.02 168.97 C 106.61 168.23 105.67 167.97 104.93 168.38 Z M 104.96 168.68 L 104.32 168.63 C 103.49 168.56 102.75 169.19 102.68 170.02 C 102.61 170.86 103.24 171.60 104.08 171.67 L 104.71 171.72 C 105.55 171.79 106.28 171.16 106.35 170.32 C 106.42 169.49 105.79 168.75 104.96 168.68 Z M 105.43 169.27 L 105.06 168.75 C 104.57 168.08 103.63 167.92 102.95 168.40 C 102.28 168.89 102.12 169.83 102.60 170.51 L 102.97 171.02 C 103.46 171.70 104.40 171.86 105.07 171.37 C 105.75 170.89 105.91 169.95 105.43 169.27 Z M 105.28 169.28 L 105.08 168.45 C 104.88 167.65 104.08 167.16 103.28 167.35 C 102.48 167.55 101.99 168.35 102.18 169.16 L 102.38 169.98 C 102.57 170.78 103.38 171.27 104.18 171.08 C 104.98 170.89 105.47 170.08 105.28 169.28 Z M 105.10 168.70 L 105.03 167.64 C 104.97 166.83 104.27 166.22 103.46 166.27 C 102.64 166.33 102.03 167.03 102.08 167.85 L 102.16 168.90 C 102.21 169.72 102.92 170.33 103.73 170.28 C 104.54 170.22 105.16 169.52 105.10 168.70 Z M 105.02 167.80 L 105.06 166.61 C 105.10 165.80 104.47 165.12 103.66 165.09 C 102.86 165.06 102.18 165.69 102.14 166.49 L 102.10 167.69 C 102.07 168.49 102.69 169.17 103.50 169.20 C 104.31 169.24 104.98 168.61 105.02 167.80 Z M 105.04 166.73 L 105.18 165.62 C 105.28 164.83 104.71 164.10 103.92 164.01 C 103.12 163.91 102.40 164.47 102.30 165.27 L 102.17 166.38 C 102.07 167.17 102.63 167.89 103.43 167.99 C 104.22 168.09 104.94 167.52 105.04 166.73 Z M 105.16 165.72 L 105.34 164.74 C 105.49 163.96 104.98 163.20 104.20 163.05 C 103.42 162.90 102.66 163.41 102.51 164.20 L 102.32 165.17 C 102.17 165.96 102.69 166.71 103.47 166.86 C 104.25 167.01 105.01 166.50 105.16 165.72 Z M 105.33 164.81 L 105.56 163.84 C 105.75 163.06 105.27 162.29 104.50 162.10 C 103.73 161.91 102.95 162.39 102.76 163.16 L 102.53 164.13 C 102.34 164.90 102.81 165.68 103.59 165.87 C 104.36 166.06 105.14 165.58 105.33 164.81 Z M 105.55 163.89 L 105.82 162.92 C 106.03 162.16 105.59 161.36 104.82 161.15 C 104.05 160.94 103.26 161.38 103.05 162.15 L 102.78 163.11 C 102.56 163.88 103.01 164.67 103.77 164.88 C 104.54 165.10 105.33 164.65 105.55 163.89 Z M 105.81 162.95 L 106.10 161.99 C 106.33 161.23 105.90 160.43 105.14 160.20 C 104.38 159.97 103.58 160.40 103.35 161.16 L 103.06 162.12 C 102.83 162.88 103.25 163.68 104.01 163.91 C 104.77 164.14 105.58 163.71 105.81 162.95 Z M 106.09 162.00 L 106.32 161.29 C 106.56 160.53 106.14 159.73 105.38 159.49 C 104.62 159.25 103.82 159.67 103.58 160.43 L 103.36 161.14 C 103.12 161.90 103.54 162.70 104.29 162.94 C 105.05 163.18 105.86 162.76 106.09 162.00 Z"
      fill="black"
      fill-rule="nonzero" /><path d="M 140.70 118.56 L 140.98 119.46 C 141.21 120.25 142.04 120.69 142.83 120.45 C 143.61 120.22 144.05 119.39 143.82 118.60 L 143.54 117.70 C 143.31 116.92 142.48 116.47 141.69 116.71 C 140.91 116.95 140.47 117.78 140.70 118.56 Z M 140.92 119.43 L 141.17 120.37 C 141.40 121.18 142.24 121.66 143.05 121.44 C 143.87 121.22 144.35 120.38 144.13 119.56 L 143.87 118.63 C 143.65 117.81 142.81 117.33 141.99 117.56 C 141.18 117.78 140.70 118.62 140.92 119.43 Z M 141.11 120.30 L 141.33 121.29 C 141.51 122.14 142.35 122.68 143.20 122.50 C 144.05 122.31 144.59 121.47 144.41 120.62 L 144.19 119.63 C 144.00 118.78 143.16 118.24 142.31 118.42 C 141.46 118.61 140.92 119.45 141.11 120.30 Z M 141.27 121.20 L 141.42 122.25 C 141.55 123.13 142.38 123.74 143.26 123.61 C 144.14 123.48 144.75 122.65 144.62 121.77 L 144.47 120.72 C 144.33 119.84 143.51 119.23 142.63 119.36 C 141.74 119.49 141.13 120.31 141.27 121.20 Z M 141.39 122.15 L 141.47 123.12 C 141.55 124.02 142.35 124.69 143.25 124.61 C 144.15 124.54 144.82 123.74 144.74 122.84 L 144.66 121.87 C 144.58 120.97 143.78 120.30 142.88 120.38 C 141.98 120.45 141.31 121.25 141.39 122.15 Z M 141.47 123.06 L 141.51 124.07 C 141.56 124.98 142.32 125.68 143.23 125.64 C 144.14 125.59 144.84 124.83 144.79 123.92 L 144.75 122.90 C 144.71 122.00 143.94 121.30 143.03 121.34 C 142.12 121.38 141.42 122.15 141.47 123.06 Z M 141.51 124.03 L 141.53 125.06 C 141.55 125.96 142.30 126.69 143.21 126.67 C 144.12 126.65 144.84 125.90 144.82 124.99 L 144.80 123.96 C 144.78 123.05 144.03 122.33 143.12 122.35 C 142.21 122.37 141.49 123.12 141.51 124.03 Z M 141.53 125.03 L 141.53 126.04 C 141.54 126.95 142.28 127.68 143.19 127.68 C 144.10 127.67 144.84 126.93 144.83 126.02 L 144.82 125.01 C 144.82 124.10 144.08 123.37 143.17 123.37 C 142.26 123.38 141.52 124.12 141.53 125.03 Z M 141.53 126.03 L 141.53 127.05 C 141.53 127.97 142.27 128.71 143.18 128.71 C 144.09 128.71 144.83 127.97 144.83 127.05 L 144.83 126.03 C 144.83 125.11 144.09 124.38 143.18 124.38 C 142.27 124.38 141.53 125.12 141.53 126.03 Z M 141.53 127.05 L 141.53 128.08 C 141.53 128.99 142.27 129.73 143.18 129.73 C 144.09 129.73 144.83 128.99 144.83 128.08 L 144.83 127.05 C 144.83 126.14 144.09 125.40 143.18 125.40 C 142.27 125.40 141.53 126.14 141.53 127.05 Z M 141.53 128.08 L 141.53 129.06 C 141.53 129.97 142.27 130.71 143.18 130.71 C 144.09 130.71 144.84 129.97 144.84 129.06 L 144.84 128.08 C 144.84 127.16 144.09 126.42 143.18 126.42 C 142.27 126.42 141.53 127.16 141.53 128.08 Z M 141.53 129.06 L 141.53 130.03 C 141.53 130.94 142.27 131.68 143.18 131.68 C 144.10 131.68 144.84 130.94 144.84 130.03 L 144.84 129.06 C 144.84 128.14 144.10 127.40 143.18 127.40 C 142.27 127.40 141.53 128.14 141.53 129.06 Z M 141.53 130.03 L 141.53 130.99 C 141.53 131.90 142.27 132.64 143.18 132.64 C 144.10 132.64 144.84 131.90 144.84 130.99 L 144.84 130.03 C 144.84 129.11 144.10 128.37 143.18 128.37 C 142.27 128.37 141.53 129.11 141.53 130.03 Z M 141.52 130.99 L 141.52 131.95 C 141.52 132.87 142.27 133.61 143.18 133.61 C 144.10 133.61 144.84 132.87 144.84 131.95 L 144.84 130.99 C 144.84 130.07 144.10 129.33 143.18 129.33 C 142.27 129.33 141.52 130.07 141.52 130.99 Z M 141.52 131.95 L 141.52 132.95 C 141.52 133.86 142.27 134.61 143.18 134.61 C 144.10 134.61 144.84 133.86 144.84 132.95 L 144.84 131.95 C 144.84 131.04 144.10 130.30 143.18 130.30 C 142.27 130.30 141.52 131.04 141.52 131.95 Z M 141.52 132.95 L 141.52 133.98 C 141.52 134.89 142.27 135.63 143.18 135.63 C 144.10 135.63 144.84 134.89 144.84 133.98 L 144.84 132.95 C 144.84 132.03 144.10 131.29 143.18 131.29 C 142.27 131.29 141.52 132.03 141.52 132.95 Z M 141.52 133.98 L 141.52 135.00 C 141.52 135.91 142.27 136.66 143.18 136.66 C 144.10 136.66 144.84 135.91 144.84 135.00 L 144.84 133.98 C 144.84 133.06 144.10 132.32 143.18 132.32 C 142.27 132.32 141.52 133.06 141.52 133.98 Z M 141.52 135.00 L 141.52 135.96 C 141.52 136.87 142.27 137.62 143.18 137.62 C 144.10 137.62 144.84 136.87 144.84 135.96 L 144.84 135.00 C 144.84 134.08 144.10 133.34 143.18 133.34 C 142.27 133.34 141.52 134.08 141.52 135.00 Z M 141.52 135.96 L 141.52 136.94 C 141.52 137.86 142.27 138.60 143.18 138.60 C 144.10 138.60 144.84 137.86 144.84 136.94 L 144.84 135.96 C 144.84 135.04 144.10 134.30 143.18 134.30 C 142.27 134.30 141.52 135.04 141.52 135.96 Z M 141.52 136.94 L 141.52 137.95 C 141.52 138.86 142.26 139.61 143.18 139.61 C 144.10 139.61 144.84 138.86 144.84 137.95 L 144.84 136.94 C 144.84 136.02 144.10 135.28 143.18 135.28 C 142.26 135.28 141.52 136.02 141.52 136.94 Z M 141.52 137.95 L 141.52 138.98 C 141.52 139.90 142.26 140.64 143.18 140.64 C 144.10 140.64 144.84 139.90 144.84 138.98 L 144.84 137.95 C 144.84 137.03 144.10 136.29 143.18 136.29 C 142.26 136.29 141.52 137.03 141.52 137.95 Z M 141.52 138.98 L 141.52 140.00 C 141.52 140.92 142.26 141.66 143.18 141.66 C 144.10 141.66 144.84 140.92 144.84 140.00 L 144.84 138.98 C 144.84 138.07 144.10 137.32 143.18 137.32 C 142.26 137.32 141.52 138.07 141.52 138.98 Z M 141.52 140.00 L 141.52 141.00 C 141.52 141.91 142.26 142.66 143.18 142.66 C 144.10 142.66 144.84 141.91 144.84 141.00 L 144.84 140.00 C 144.84 139.09 144.10 138.34 143.18 138.34 C 142.26 138.34 141.52 139.09 141.52 140.00 Z M 141.52 141.00 L 141.52 142.00 C 141.52 142.92 142.26 143.66 143.18 143.66 C 144.10 143.66 144.84 142.92 144.84 142.00 L 144.84 141.00 C 144.84 140.08 144.10 139.34 143.18 139.34 C 142.26 139.34 141.52 140.08 141.52 141.00 Z M 141.52 142.00 L 141.52 143.01 C 141.52 143.93 142.26 144.67 143.18 144.67 C 144.10 144.67 144.84 143.93 144.84 143.01 L 144.84 142.00 C 144.84 141.09 144.10 140.34 143.18 140.34 C 142.26 140.34 141.52 141.09 141.52 142.00 Z M 141.52 143.01 L 141.52 144.02 C 141.52 144.93 142.26 145.68 143.18 145.68 C 144.10 145.68 144.84 144.93 144.84 144.02 L 144.84 143.01 C 144.84 142.10 144.10 141.35 143.18 141.35 C 142.26 141.35 141.52 142.10 141.52 143.01 Z M 141.52 144.02 L 141.52 145.02 C 141.52 145.94 142.26 146.68 143.18 146.68 C 144.10 146.68 144.84 145.94 144.84 145.02 L 144.84 144.02 C 144.84 143.10 144.10 142.36 143.18 142.36 C 142.26 142.36 141.52 143.10 141.52 144.02 Z M 141.52 145.02 L 141.52 146.04 C 141.52 146.95 142.26 147.70 143.18 147.70 C 144.10 147.70 144.84 146.95 144.84 146.04 L 144.84 145.02 C 144.84 144.10 144.10 143.36 143.18 143.36 C 142.26 143.36 141.52 144.10 141.52 145.02 Z M 141.52 146.04 L 141.52 147.04 C 141.52 147.96 142.27 148.70 143.18 148.70 C 144.10 148.70 144.84 147.96 144.84 147.04 L 144.84 146.04 C 144.84 145.12 144.10 144.38 143.18 144.38 C 142.27 144.38 141.52 145.12 141.52 146.04 Z M 141.52 147.04 L 141.52 148.03 C 141.52 148.95 142.27 149.69 143.18 149.69 C 144.10 149.69 144.84 148.95 144.84 148.03 L 144.84 147.04 C 144.84 146.12 144.10 145.38 143.18 145.38 C 142.27 145.38 141.52 146.12 141.52 147.04 Z M 141.52 148.03 L 141.52 149.02 C 141.52 149.94 142.27 150.68 143.18 150.68 C 144.10 150.68 144.84 149.94 144.84 149.02 L 144.84 148.03 C 144.84 147.12 144.10 146.37 143.18 146.37 C 142.27 146.37 141.52 147.12 141.52 148.03 Z M 141.52 149.02 L 141.52 150.01 C 141.52 150.93 142.27 151.67 143.18 151.67 C 144.10 151.67 144.84 150.93 144.84 150.01 L 144.84 149.02 C 144.84 148.11 144.10 147.36 143.18 147.36 C 142.27 147.36 141.52 148.11 141.52 149.02 Z M 141.52 150.01 L 141.52 151.01 C 141.52 151.92 142.27 152.66 143.18 152.66 C 144.10 152.66 144.84 151.92 144.84 151.01 L 144.84 150.01 C 144.84 149.10 144.10 148.35 143.18 148.35 C 142.27 148.35 141.52 149.10 141.52 150.01 Z M 141.53 151.00 L 141.52 152.00 C 141.52 152.92 142.26 153.66 143.18 153.66 C 144.09 153.66 144.83 152.92 144.83 152.01 L 144.84 151.01 C 144.84 150.09 144.10 149.35 143.18 149.35 C 142.27 149.35 141.53 150.09 141.53 151.00 Z M 141.52 152.00 L 141.52 153.00 C 141.52 153.91 142.25 154.66 143.17 154.66 C 144.08 154.66 144.83 153.93 144.83 153.01 L 144.83 152.01 C 144.84 151.10 144.10 150.35 143.19 150.35 C 142.27 150.35 141.53 151.08 141.52 152.00 Z M 141.52 152.99 L 141.51 154.00 C 141.51 154.91 142.24 155.66 143.16 155.66 C 144.07 155.67 144.81 154.94 144.82 154.02 L 144.83 153.02 C 144.84 152.11 144.10 151.36 143.19 151.35 C 142.27 151.35 141.53 152.08 141.52 152.99 Z M 141.52 153.99 L 141.50 155.00 C 141.49 155.91 142.22 156.66 143.14 156.67 C 144.05 156.68 144.80 155.95 144.81 155.04 L 144.82 154.03 C 144.83 153.12 144.10 152.37 143.19 152.36 C 142.27 152.35 141.53 153.08 141.52 153.99 Z M 141.51 154.99 L 141.49 156.00 C 141.47 156.91 142.20 157.66 143.11 157.68 C 144.02 157.69 144.77 156.97 144.79 156.06 L 144.81 155.04 C 144.82 154.13 144.09 153.38 143.18 153.37 C 142.27 153.35 141.52 154.08 141.51 154.99 Z M 141.49 156.00 L 141.47 157.01 C 141.45 157.92 142.18 158.67 143.09 158.69 C 144.00 158.70 144.75 157.98 144.77 157.07 L 144.79 156.06 C 144.81 155.15 144.08 154.40 143.17 154.38 C 142.26 154.36 141.51 155.09 141.49 156.00 Z M 141.47 157.00 L 141.45 158.00 C 141.44 158.91 142.16 159.67 143.07 159.68 C 143.98 159.70 144.73 158.98 144.75 158.07 L 144.77 157.07 C 144.78 156.16 144.06 155.41 143.15 155.39 C 142.24 155.37 141.49 156.09 141.47 157.00 Z M 141.46 158.01 L 141.44 159.00 C 141.42 159.91 142.14 160.66 143.05 160.67 C 143.96 160.69 144.71 159.97 144.73 159.06 L 144.74 158.07 C 144.76 157.16 144.04 156.41 143.13 156.39 C 142.22 156.38 141.47 157.10 141.46 158.01 Z M 141.44 159.00 L 141.42 160.00 C 141.41 160.90 142.14 161.65 143.04 161.66 C 143.95 161.68 144.70 160.95 144.71 160.04 L 144.72 159.05 C 144.74 158.14 144.01 157.40 143.11 157.39 C 142.20 157.37 141.45 158.10 141.44 159.00 Z M 141.43 160.00 L 141.42 161.02 C 141.41 161.93 142.14 162.67 143.04 162.68 C 143.95 162.69 144.69 161.96 144.70 161.06 L 144.71 160.04 C 144.72 159.13 143.99 158.39 143.08 158.38 C 142.18 158.37 141.44 159.10 141.43 160.00 Z M 141.42 161.03 L 141.42 162.04 C 141.41 162.94 142.14 163.68 143.04 163.68 C 143.95 163.69 144.68 162.96 144.69 162.05 L 144.69 161.05 C 144.70 160.15 143.97 159.41 143.07 159.40 C 142.16 159.40 141.43 160.13 141.42 161.03 Z M 141.42 162.04 L 141.42 163.03 C 141.41 163.94 142.14 164.67 143.05 164.67 C 143.95 164.67 144.68 163.94 144.68 163.04 L 144.69 162.05 C 144.69 161.15 143.96 160.41 143.06 160.41 C 142.15 160.41 141.42 161.14 141.42 162.04 Z M 141.42 163.04 L 141.42 164.02 C 141.42 164.92 142.15 165.65 143.05 165.65 C 143.95 165.65 144.68 164.92 144.68 164.02 L 144.68 163.04 C 144.68 162.14 143.95 161.41 143.05 161.41 C 142.15 161.41 141.42 162.14 141.42 163.04 Z M 141.42 164.02 L 141.42 165.02 C 141.42 165.92 142.15 166.64 143.05 166.64 C 143.95 166.64 144.68 165.92 144.68 165.02 L 144.68 164.02 C 144.68 163.12 143.95 162.39 143.05 162.39 C 142.15 162.39 141.42 163.12 141.42 164.02 Z M 141.43 165.02 L 141.43 166.02 C 141.43 166.92 142.15 167.64 143.05 167.64 C 143.94 167.64 144.67 166.92 144.67 166.02 L 144.67 165.02 C 144.67 164.12 143.94 163.40 143.05 163.40 C 142.15 163.40 141.43 164.12 141.43 165.02 Z M 141.43 166.02 L 141.43 167.02 C 141.43 167.91 142.16 168.64 143.05 168.64 C 143.94 168.64 144.67 167.91 144.67 167.02 L 144.67 166.02 C 144.67 165.13 143.94 164.40 143.05 164.40 C 142.16 164.40 141.43 165.13 141.43 166.02 Z M 141.44 167.02 L 141.44 168.02 C 141.44 168.91 142.16 169.63 143.05 169.63 C 143.94 169.63 144.66 168.91 144.66 168.02 L 144.66 167.02 C 144.66 166.13 143.94 165.41 143.05 165.41 C 142.16 165.41 141.44 166.13 141.44 167.02 Z M 141.44 168.02 L 141.44 169.02 C 141.44 169.90 142.16 170.62 143.05 170.62 C 143.94 170.62 144.66 169.90 144.66 169.02 L 144.66 168.02 C 144.66 167.13 143.94 166.41 143.05 166.41 C 142.16 166.41 141.44 167.13 141.44 168.02 Z M 141.45 169.02 L 141.45 170.06 C 141.45 170.95 142.17 171.66 143.05 171.66 C 143.93 171.66 144.65 170.95 144.65 170.06 L 144.65 169.02 C 144.65 168.13 143.93 167.42 143.05 167.42 C 142.17 167.42 141.45 168.13 141.45 169.02 Z M 141.46 170.06 L 141.46 171.09 C 141.46 171.97 142.17 172.69 143.05 172.69 C 143.93 172.69 144.64 171.97 144.64 171.09 L 144.64 170.06 C 144.64 169.18 143.93 168.47 143.05 168.47 C 142.17 168.47 141.46 169.18 141.46 170.06 Z M 141.46 171.09 L 141.46 172.09 C 141.46 172.97 142.17 173.68 143.05 173.68 C 143.93 173.68 144.64 172.97 144.64 172.09 L 144.64 171.09 C 144.64 170.22 143.93 169.51 143.05 169.51 C 142.17 169.51 141.46 170.22 141.46 171.09 Z M 141.47 172.09 L 141.47 173.03 C 141.47 173.90 142.18 174.61 143.05 174.61 C 143.92 174.61 144.63 173.90 144.63 173.03 L 144.63 172.09 C 144.63 171.22 143.92 170.51 143.05 170.51 C 142.18 170.51 141.47 171.22 141.47 172.09 Z M 141.48 173.03 L 141.48 174.04 C 141.48 174.91 142.18 175.62 143.05 175.62 C 143.92 175.61 144.62 174.91 144.62 174.04 L 144.62 173.03 C 144.62 172.16 143.92 171.46 143.05 171.46 C 142.18 171.46 141.48 172.16 141.48 173.03 Z M 141.49 174.05 L 141.49 175.04 C 141.50 175.90 142.21 176.60 143.07 176.59 C 143.93 176.59 144.63 175.88 144.62 175.02 L 144.61 174.03 C 144.61 173.17 143.90 172.47 143.04 172.48 C 142.17 172.49 141.48 173.19 141.49 174.05 Z M 141.50 175.07 L 141.53 176.04 C 141.55 176.90 142.26 177.58 143.12 177.56 C 143.98 177.54 144.66 176.82 144.64 175.97 L 144.61 174.99 C 144.59 174.13 143.88 173.45 143.02 173.47 C 142.16 173.49 141.48 174.21 141.50 175.07 Z M 141.54 176.08 L 141.58 177.08 C 141.62 177.94 142.35 178.60 143.20 178.56 C 144.05 178.52 144.71 177.79 144.67 176.94 L 144.63 175.93 C 144.59 175.08 143.86 174.42 143.01 174.46 C 142.16 174.50 141.50 175.22 141.54 176.08 Z M 141.60 177.15 L 141.69 178.17 C 141.76 179.02 142.51 179.64 143.35 179.57 C 144.20 179.50 144.82 178.75 144.75 177.90 L 144.66 176.88 C 144.59 176.03 143.84 175.41 142.99 175.48 C 142.15 175.55 141.52 176.30 141.60 177.15 Z M 141.71 178.31 L 141.90 179.32 C 142.04 180.15 142.84 180.70 143.67 180.55 C 144.50 180.40 145.06 179.61 144.91 178.78 L 144.72 177.77 C 144.57 176.94 143.78 176.38 142.95 176.53 C 142.12 176.68 141.56 177.48 141.71 178.31 Z M 141.97 179.56 L 142.29 180.47 C 142.57 181.26 143.44 181.67 144.23 181.39 C 145.03 181.11 145.44 180.24 145.16 179.45 L 144.83 178.54 C 144.55 177.75 143.68 177.33 142.89 177.61 C 142.10 177.90 141.69 178.76 141.97 179.56 Z M 142.49 180.83 L 143.02 181.59 C 143.50 182.27 144.44 182.44 145.13 181.96 C 145.81 181.48 145.98 180.54 145.50 179.86 L 144.96 179.09 C 144.48 178.41 143.54 178.24 142.86 178.72 C 142.17 179.20 142.01 180.14 142.49 180.83 Z M 143.34 181.90 L 144.09 182.49 C 144.75 183.00 145.69 182.89 146.20 182.24 C 146.71 181.58 146.59 180.64 145.94 180.13 L 145.18 179.54 C 144.53 179.03 143.59 179.15 143.08 179.80 C 142.57 180.45 142.69 181.40 143.34 181.90 Z M 144.34 182.64 L 145.24 183.09 C 145.97 183.46 146.86 183.17 147.23 182.44 C 147.61 181.71 147.31 180.82 146.58 180.45 L 145.69 179.99 C 144.96 179.62 144.06 179.91 143.69 180.64 C 143.32 181.37 143.61 182.27 144.34 182.64 Z M 145.37 183.13 L 146.33 183.52 C 147.09 183.82 147.94 183.46 148.24 182.70 C 148.54 181.95 148.18 181.10 147.43 180.79 L 146.46 180.41 C 145.71 180.10 144.85 180.47 144.55 181.22 C 144.25 181.98 144.61 182.83 145.37 183.13 Z"
      fill="black"
      fill-rule="nonzero" /><path d="M 148.93 139.25 L 149.30 140.09 C 149.64 140.86 150.53 141.21 151.31 140.87 C 152.08 140.53 152.43 139.63 152.09 138.86 L 151.72 138.02 C 151.38 137.25 150.48 136.90 149.71 137.24 C 148.94 137.58 148.59 138.48 148.93 139.25 Z M 149.27 140.13 L 149.67 141.00 C 150.03 141.79 150.96 142.13 151.75 141.77 C 152.54 141.41 152.88 140.47 152.52 139.68 L 152.12 138.82 C 151.76 138.03 150.82 137.68 150.03 138.05 C 149.25 138.41 148.90 139.34 149.27 140.13 Z M 149.65 141.07 L 150.11 142.00 C 150.51 142.79 151.49 143.12 152.28 142.72 C 153.08 142.32 153.41 141.34 153.01 140.54 L 152.54 139.62 C 152.14 138.82 151.17 138.49 150.37 138.90 C 149.57 139.30 149.25 140.27 149.65 141.07 Z M 150.11 142.07 L 150.62 143.00 C 151.06 143.80 152.07 144.09 152.87 143.65 C 153.67 143.21 153.96 142.20 153.52 141.40 L 153.01 140.47 C 152.57 139.67 151.56 139.38 150.76 139.82 C 149.96 140.26 149.66 141.27 150.11 142.07 Z M 150.63 143.05 L 151.12 143.88 C 151.59 144.68 152.62 144.94 153.42 144.47 C 154.21 144.00 154.48 142.97 154.00 142.17 L 153.51 141.34 C 153.04 140.54 152.01 140.28 151.21 140.75 C 150.42 141.23 150.15 142.26 150.63 143.05 Z M 151.13 143.91 L 151.66 144.77 C 152.15 145.56 153.19 145.81 153.98 145.32 C 154.77 144.83 155.02 143.79 154.53 143.00 L 153.99 142.14 C 153.50 141.35 152.46 141.10 151.67 141.59 C 150.88 142.08 150.64 143.12 151.13 143.91 Z M 151.67 144.80 L 152.23 145.67 C 152.73 146.45 153.78 146.68 154.56 146.18 C 155.35 145.67 155.58 144.63 155.07 143.84 L 154.52 142.97 C 154.01 142.19 152.97 141.96 152.18 142.46 C 151.39 142.96 151.16 144.01 151.67 144.80 Z M 152.23 145.68 L 152.79 146.54 C 153.31 147.33 154.36 147.54 155.14 147.03 C 155.93 146.52 156.15 145.46 155.63 144.68 L 155.07 143.82 C 154.56 143.04 153.50 142.82 152.72 143.33 C 151.93 143.85 151.72 144.90 152.23 145.68 Z M 152.79 146.56 L 153.36 147.41 C 153.89 148.19 154.94 148.40 155.73 147.88 C 156.51 147.36 156.72 146.30 156.20 145.52 L 155.63 144.67 C 155.11 143.88 154.05 143.67 153.27 144.19 C 152.48 144.72 152.27 145.77 152.79 146.56 Z M 153.37 147.42 L 153.94 148.26 C 154.47 149.04 155.53 149.25 156.31 148.72 C 157.09 148.19 157.29 147.13 156.76 146.35 L 156.19 145.51 C 155.67 144.73 154.60 144.52 153.82 145.05 C 153.04 145.58 152.84 146.64 153.37 147.42 Z M 153.95 148.28 L 154.51 149.09 C 155.04 149.87 156.11 150.06 156.88 149.52 C 157.66 148.99 157.86 147.92 157.32 147.15 L 156.76 146.33 C 156.22 145.56 155.16 145.36 154.38 145.90 C 153.60 146.44 153.41 147.50 153.95 148.28 Z M 154.51 149.10 L 155.08 149.90 C 155.62 150.68 156.69 150.86 157.46 150.32 C 158.24 149.77 158.42 148.70 157.88 147.93 L 157.31 147.13 C 156.77 146.36 155.70 146.17 154.93 146.72 C 154.15 147.26 153.97 148.33 154.51 149.10 Z M 155.09 149.92 L 155.66 150.72 C 156.22 151.49 157.29 151.66 158.06 151.11 C 158.82 150.56 159.00 149.49 158.45 148.72 L 157.87 147.92 C 157.31 147.15 156.24 146.97 155.48 147.53 C 154.71 148.08 154.53 149.15 155.09 149.92 Z M 155.67 150.73 L 156.23 151.49 C 156.79 152.26 157.87 152.42 158.63 151.86 C 159.39 151.30 159.56 150.23 159.00 149.46 L 158.44 148.70 C 157.88 147.94 156.80 147.78 156.04 148.34 C 155.28 148.90 155.11 149.97 155.67 150.73 Z M 156.24 151.51 L 156.82 152.29 C 157.39 153.05 158.47 153.20 159.22 152.63 C 159.98 152.06 160.14 150.99 159.57 150.23 L 158.99 149.45 C 158.42 148.69 157.34 148.54 156.58 149.10 C 155.83 149.67 155.67 150.75 156.24 151.51 Z M 156.83 152.30 L 157.44 153.10 C 158.01 153.85 159.09 154.00 159.84 153.42 C 160.60 152.85 160.75 151.77 160.17 151.01 L 159.56 150.22 C 158.99 149.46 157.91 149.31 157.15 149.89 C 156.40 150.46 156.25 151.54 156.83 152.30 Z M 157.44 153.11 L 158.08 153.93 C 158.66 154.68 159.74 154.82 160.49 154.23 C 161.24 153.65 161.38 152.57 160.80 151.82 L 160.16 151.00 C 159.58 150.25 158.50 150.11 157.75 150.69 C 157.00 151.28 156.86 152.36 157.44 153.11 Z M 158.08 153.94 L 158.72 154.75 C 159.31 155.50 160.39 155.63 161.14 155.04 C 161.89 154.45 162.02 153.37 161.43 152.62 L 160.79 151.81 C 160.20 151.06 159.12 150.93 158.37 151.52 C 157.62 152.11 157.49 153.19 158.08 153.94 Z M 158.73 154.76 L 159.32 155.50 C 159.92 156.25 161.00 156.37 161.74 155.78 C 162.49 155.18 162.61 154.10 162.02 153.36 L 161.42 152.61 C 160.83 151.87 159.75 151.75 159.00 152.34 C 158.26 152.94 158.14 154.02 158.73 154.76 Z M 159.33 155.51 L 159.94 156.27 C 160.54 157.01 161.62 157.12 162.36 156.53 C 163.10 155.93 163.22 154.84 162.62 154.10 L 162.01 153.35 C 161.41 152.61 160.33 152.49 159.59 153.09 C 158.85 153.69 158.73 154.77 159.33 155.51 Z M 159.95 156.28 L 160.58 157.05 C 161.19 157.78 162.27 157.89 163.01 157.29 C 163.74 156.69 163.85 155.60 163.24 154.87 L 162.61 154.09 C 162.01 153.36 160.92 153.25 160.19 153.85 C 159.45 154.46 159.35 155.54 159.95 156.28 Z M 160.59 157.06 L 161.24 157.84 C 161.85 158.58 162.94 158.68 163.67 158.07 C 164.40 157.46 164.50 156.37 163.89 155.64 L 163.24 154.86 C 162.63 154.13 161.54 154.03 160.81 154.63 C 160.08 155.24 159.98 156.33 160.59 157.06 Z M 161.25 157.85 L 161.93 158.65 C 162.54 159.38 163.63 159.47 164.35 158.86 C 165.08 158.25 165.17 157.16 164.56 156.43 L 163.88 155.63 C 163.27 154.91 162.18 154.82 161.46 155.43 C 160.73 156.04 160.64 157.13 161.25 157.85 Z M 161.93 158.66 L 162.58 159.42 C 163.20 160.14 164.29 160.23 165.01 159.61 C 165.73 158.99 165.82 157.91 165.20 157.18 L 164.55 156.42 C 163.93 155.70 162.85 155.62 162.12 156.24 C 161.40 156.85 161.32 157.94 161.93 158.66 Z M 162.59 159.43 L 163.22 160.16 C 163.85 160.88 164.93 160.95 165.65 160.33 C 166.37 159.71 166.45 158.62 165.82 157.91 L 165.19 157.18 C 164.57 156.46 163.48 156.38 162.76 157.00 C 162.05 157.62 161.97 158.71 162.59 159.43 Z M 163.23 160.17 L 163.88 160.91 C 164.51 161.62 165.59 161.69 166.31 161.06 C 167.02 160.44 167.09 159.35 166.47 158.64 L 165.82 157.90 C 165.19 157.18 164.10 157.11 163.39 157.74 C 162.68 158.37 162.61 159.45 163.23 160.17 Z M 163.89 160.91 L 164.55 161.66 C 165.18 162.37 166.27 162.43 166.98 161.80 C 167.69 161.17 167.75 160.09 167.12 159.38 L 166.46 158.63 C 165.83 157.92 164.74 157.86 164.03 158.49 C 163.32 159.12 163.26 160.20 163.89 160.91 Z M 164.56 161.67 L 165.24 162.42 C 165.87 163.13 166.96 163.19 167.66 162.55 C 168.37 161.92 168.43 160.83 167.79 160.13 L 167.12 159.37 C 166.48 158.67 165.39 158.61 164.69 159.24 C 163.98 159.87 163.92 160.96 164.56 161.67 Z M 165.24 162.43 L 165.93 163.19 C 166.57 163.89 167.66 163.95 168.36 163.31 C 169.06 162.67 169.12 161.59 168.48 160.88 L 167.79 160.12 C 167.15 159.42 166.06 159.37 165.36 160.00 C 164.66 160.64 164.60 161.73 165.24 162.43 Z M 165.94 163.20 L 166.63 163.95 C 167.27 164.65 168.36 164.70 169.06 164.06 C 169.76 163.42 169.81 162.33 169.17 161.63 L 168.47 160.88 C 167.83 160.18 166.75 160.13 166.05 160.77 C 165.35 161.41 165.30 162.50 165.94 163.20 Z M 166.64 163.96 L 167.30 164.67 C 167.95 165.37 169.03 165.41 169.73 164.77 C 170.42 164.12 170.46 163.04 169.82 162.34 L 169.16 161.63 C 168.51 160.93 167.43 160.89 166.73 161.54 C 166.04 162.18 166.00 163.26 166.64 163.96 Z M 167.31 164.68 L 167.99 165.40 C 168.63 166.09 169.72 166.12 170.41 165.48 C 171.10 164.83 171.13 163.75 170.48 163.06 L 169.81 162.34 C 169.16 161.65 168.08 161.61 167.39 162.26 C 166.70 162.91 166.67 163.99 167.31 164.68 Z M 168.00 165.41 L 168.68 166.13 C 169.33 166.81 170.42 166.84 171.10 166.19 C 171.78 165.54 171.81 164.45 171.16 163.77 L 170.47 163.05 C 169.82 162.37 168.74 162.34 168.06 162.99 C 167.37 163.64 167.35 164.72 168.00 165.41 Z M 168.70 166.14 L 169.40 166.86 C 170.05 167.53 171.13 167.55 171.81 166.90 C 172.48 166.24 172.50 165.16 171.85 164.48 L 171.15 163.76 C 170.49 163.08 169.41 163.07 168.73 163.72 C 168.06 164.38 168.04 165.46 168.70 166.14 Z M 169.41 166.87 L 170.12 167.59 C 170.78 168.26 171.86 168.26 172.53 167.60 C 173.20 166.94 173.20 165.86 172.54 165.19 L 171.83 164.47 C 171.17 163.80 170.09 163.80 169.42 164.46 C 168.75 165.12 168.75 166.20 169.41 166.87 Z M 170.14 167.60 L 170.86 168.32 C 171.53 168.98 172.61 168.97 173.27 168.30 C 173.93 167.63 173.92 166.56 173.25 165.90 L 172.53 165.18 C 171.86 164.52 170.78 164.53 170.12 165.19 C 169.46 165.86 169.47 166.94 170.14 167.60 Z M 170.88 168.33 L 171.60 169.03 C 172.28 169.68 173.35 169.66 174.00 168.98 C 174.65 168.31 174.63 167.24 173.96 166.58 L 173.24 165.89 C 172.56 165.23 171.49 165.25 170.84 165.93 C 170.18 166.60 170.20 167.68 170.88 168.33 Z M 171.62 169.04 L 172.33 169.71 C 173.01 170.35 174.09 170.32 174.73 169.64 C 175.37 168.95 175.34 167.88 174.65 167.24 L 173.94 166.57 C 173.26 165.93 172.19 165.96 171.55 166.65 C 170.91 167.33 170.94 168.40 171.62 169.04 Z M 172.35 169.72 L 173.07 170.39 C 173.76 171.02 174.83 170.97 175.46 170.28 C 176.09 169.60 176.05 168.53 175.36 167.90 L 174.64 167.23 C 173.95 166.60 172.88 166.64 172.25 167.33 C 171.62 168.02 171.66 169.09 172.35 169.72 Z M 173.09 170.40 L 173.83 171.06 C 174.52 171.68 175.59 171.62 176.21 170.93 C 176.83 170.24 176.78 169.17 176.08 168.55 L 175.34 167.89 C 174.65 167.26 173.58 167.32 172.96 168.01 C 172.34 168.71 172.40 169.77 173.09 170.40 Z M 173.85 171.07 L 174.60 171.73 C 175.30 172.34 176.36 172.27 176.97 171.57 C 177.59 170.87 177.52 169.81 176.82 169.20 L 176.07 168.54 C 175.37 167.92 174.30 167.99 173.69 168.69 C 173.08 169.39 173.15 170.46 173.85 171.07 Z M 174.61 171.74 L 175.38 172.39 C 176.08 173.00 177.14 172.92 177.75 172.21 C 178.35 171.51 178.27 170.45 177.57 169.85 L 176.80 169.19 C 176.10 168.58 175.04 168.66 174.43 169.37 C 173.83 170.07 173.91 171.13 174.61 171.74 Z M 175.40 172.40 L 176.18 173.06 C 176.88 173.65 177.94 173.56 178.54 172.86 C 179.13 172.15 179.04 171.09 178.33 170.49 L 177.55 169.84 C 176.84 169.24 175.79 169.33 175.19 170.04 C 174.60 170.75 174.69 171.81 175.40 172.40 Z M 176.19 173.07 L 176.98 173.72 C 177.70 174.31 178.75 174.21 179.34 173.49 C 179.93 172.78 179.82 171.73 179.11 171.14 L 178.32 170.49 C 177.61 169.90 176.55 170.00 175.96 170.71 C 175.38 171.42 175.48 172.48 176.19 173.07 Z M 177.00 173.73 L 177.79 174.37 C 178.50 174.95 179.55 174.84 180.13 174.12 C 180.71 173.40 180.60 172.35 179.89 171.77 L 179.10 171.13 C 178.38 170.55 177.33 170.66 176.75 171.38 C 176.17 172.10 176.28 173.15 177.00 173.73 Z M 177.80 174.37 L 178.60 175.01 C 179.32 175.58 180.37 175.46 180.94 174.74 C 181.51 174.02 181.39 172.97 180.67 172.40 L 179.87 171.77 C 179.15 171.20 178.11 171.32 177.54 172.03 C 176.96 172.75 177.08 173.80 177.80 174.37 Z M 178.62 175.01 L 179.42 175.64 C 180.14 176.20 181.18 176.07 181.75 175.35 C 182.31 174.63 182.18 173.59 181.46 173.03 L 180.66 172.40 C 179.94 171.84 178.89 171.96 178.33 172.68 C 177.77 173.41 177.90 174.45 178.62 175.01 Z M 179.44 175.64 L 180.24 176.26 C 180.96 176.82 182.00 176.68 182.56 175.96 C 183.11 175.23 182.98 174.19 182.25 173.64 L 181.45 173.02 C 180.72 172.47 179.69 172.60 179.13 173.33 C 178.57 174.05 178.71 175.09 179.44 175.64 Z M 180.26 176.27 L 181.06 176.87 C 181.78 177.42 182.82 177.27 183.36 176.54 C 183.91 175.82 183.76 174.78 183.04 174.24 L 182.24 173.63 C 181.51 173.09 180.48 173.23 179.93 173.96 C 179.38 174.69 179.53 175.72 180.26 176.27 Z M 181.07 176.87 L 181.86 177.46 C 182.59 178.00 183.62 177.84 184.16 177.11 C 184.70 176.38 184.54 175.36 183.81 174.82 L 183.02 174.23 C 182.29 173.69 181.26 173.85 180.73 174.58 C 180.19 175.31 180.34 176.33 181.07 176.87 Z M 181.88 177.46 L 182.66 178.03 C 183.39 178.56 184.41 178.39 184.94 177.66 C 185.47 176.93 185.31 175.90 184.58 175.37 L 183.80 174.81 C 183.06 174.28 182.04 174.45 181.51 175.18 C 180.98 175.91 181.15 176.93 181.88 177.46 Z M 182.68 178.03 L 183.52 178.63 C 184.26 179.15 185.28 178.97 185.80 178.24 C 186.32 177.50 186.14 176.49 185.40 175.97 L 184.56 175.37 C 183.82 174.85 182.80 175.02 182.28 175.76 C 181.77 176.50 181.94 177.51 182.68 178.03 Z M 183.55 178.64 L 184.42 179.23 C 185.16 179.74 186.17 179.55 186.67 178.81 C 187.18 178.07 186.99 177.06 186.25 176.56 L 185.38 175.96 C 184.64 175.45 183.63 175.64 183.12 176.38 C 182.62 177.12 182.81 178.13 183.55 178.64 Z M 184.44 179.24 L 185.29 179.81 C 186.03 180.30 187.04 180.10 187.53 179.35 C 188.03 178.61 187.82 177.61 187.08 177.11 L 186.23 176.55 C 185.48 176.05 184.48 176.26 183.99 177.00 C 183.49 177.74 183.70 178.75 184.44 179.24 Z M 185.32 179.81 L 186.15 180.35 C 186.90 180.83 187.90 180.61 188.37 179.86 C 188.85 179.11 188.64 178.12 187.89 177.64 L 187.05 177.10 C 186.30 176.62 185.31 176.84 184.83 177.59 C 184.35 178.34 184.57 179.33 185.32 179.81 Z M 186.18 180.36 L 187.00 180.87 C 187.75 181.33 188.74 181.10 189.21 180.35 C 189.67 179.59 189.44 178.60 188.69 178.14 L 187.86 177.63 C 187.11 177.17 186.12 177.40 185.66 178.15 C 185.19 178.91 185.42 179.89 186.18 180.36 Z M 187.03 180.88 L 187.85 181.36 C 188.60 181.81 189.58 181.56 190.03 180.80 C 190.48 180.04 190.23 179.06 189.47 178.62 L 188.66 178.13 C 187.90 177.68 186.92 177.93 186.47 178.69 C 186.02 179.45 186.27 180.43 187.03 180.88 Z M 187.88 181.37 L 188.71 181.84 C 189.48 182.28 190.45 182.01 190.88 181.25 C 191.31 180.49 191.05 179.52 190.28 179.08 L 189.45 178.61 C 188.68 178.17 187.71 178.44 187.28 179.20 C 186.85 179.97 187.11 180.94 187.88 181.37 Z M 188.75 181.85 L 189.64 182.34 C 190.40 182.75 191.36 182.47 191.78 181.70 C 192.19 180.93 191.91 179.98 191.14 179.56 L 190.25 179.08 C 189.49 178.66 188.53 178.94 188.11 179.71 C 187.70 180.48 187.98 181.44 188.75 181.85 Z M 189.67 182.34 L 190.56 182.80 C 191.33 183.20 192.28 182.90 192.68 182.13 C 193.07 181.36 192.77 180.41 192.00 180.01 L 191.11 179.55 C 190.34 179.16 189.39 179.46 189.00 180.23 C 188.60 181.00 188.90 181.94 189.67 182.34 Z M 190.60 182.81 L 191.49 183.25 C 192.27 183.62 193.20 183.30 193.58 182.53 C 193.96 181.76 193.64 180.83 192.86 180.45 L 191.97 180.01 C 191.20 179.63 190.26 179.95 189.88 180.72 C 189.51 181.50 189.83 182.43 190.60 182.81 Z M 191.53 183.25 L 192.43 183.67 C 193.21 184.03 194.13 183.69 194.48 182.91 C 194.84 182.14 194.51 181.22 193.73 180.86 L 192.83 180.44 C 192.05 180.08 191.13 180.42 190.78 181.20 C 190.42 181.97 190.75 182.89 191.53 183.25 Z M 192.46 183.67 L 193.37 184.07 C 194.15 184.41 195.05 184.05 195.40 183.28 C 195.74 182.50 195.38 181.59 194.60 181.25 L 193.70 180.86 C 192.92 180.52 192.01 180.87 191.67 181.65 C 191.33 182.43 191.69 183.33 192.46 183.67 Z M 193.40 184.07 L 194.32 184.45 C 195.10 184.77 195.99 184.40 196.31 183.62 C 196.63 182.84 196.26 181.94 195.48 181.62 L 194.57 181.25 C 193.79 180.93 192.90 181.30 192.57 182.08 C 192.25 182.86 192.62 183.75 193.40 184.07 Z M 194.35 184.45 L 195.27 184.81 C 196.05 185.11 196.93 184.72 197.23 183.94 C 197.54 183.15 197.15 182.27 196.36 181.97 L 195.44 181.62 C 194.66 181.31 193.78 181.71 193.48 182.49 C 193.18 183.27 193.57 184.15 194.35 184.45 Z M 195.31 184.82 L 196.24 185.15 C 197.02 185.43 197.89 185.02 198.17 184.23 C 198.45 183.44 198.04 182.58 197.26 182.30 L 196.32 181.96 C 195.54 181.68 194.67 182.09 194.39 182.88 C 194.11 183.67 194.52 184.53 195.31 184.82 Z M 196.28 185.16 L 197.22 185.47 C 198.02 185.72 198.87 185.29 199.13 184.50 C 199.39 183.71 198.95 182.86 198.16 182.60 L 197.21 182.29 C 196.42 182.03 195.57 182.46 195.31 183.25 C 195.05 184.05 195.49 184.90 196.28 185.16 Z M 197.27 185.47 L 198.23 185.76 C 199.03 185.99 199.86 185.54 200.10 184.74 C 200.33 183.95 199.88 183.11 199.08 182.88 L 198.12 182.59 C 197.32 182.36 196.49 182.81 196.25 183.61 C 196.02 184.40 196.47 185.24 197.27 185.47 Z M 198.28 185.76 L 199.27 186.02 C 200.07 186.23 200.89 185.76 201.10 184.96 C 201.31 184.16 200.83 183.34 200.03 183.13 L 199.04 182.87 C 198.24 182.66 197.42 183.14 197.21 183.94 C 197.00 184.74 197.48 185.55 198.28 185.76 Z M 199.31 186.03 L 200.26 186.25 C 201.06 186.43 201.87 185.93 202.05 185.13 C 202.24 184.33 201.73 183.53 200.93 183.34 L 199.98 183.12 C 199.18 182.94 198.38 183.44 198.20 184.24 C 198.01 185.04 198.51 185.84 199.31 186.03 Z M 200.30 186.25 L 201.25 186.44 C 202.05 186.61 202.84 186.08 203.00 185.28 C 203.16 184.47 202.64 183.69 201.83 183.53 L 200.89 183.34 C 200.09 183.17 199.30 183.70 199.14 184.50 C 198.98 185.31 199.50 186.09 200.30 186.25 Z M 201.29 186.45 L 202.25 186.62 C 203.06 186.76 203.83 186.22 203.97 185.41 C 204.11 184.60 203.57 183.83 202.76 183.69 L 201.80 183.52 C 200.99 183.38 200.22 183.92 200.08 184.73 C 199.94 185.54 200.48 186.31 201.29 186.45 Z M 202.29 186.62 L 203.27 186.77 C 204.08 186.89 204.84 186.33 204.96 185.52 C 205.08 184.71 204.52 183.95 203.71 183.83 L 202.72 183.69 C 201.91 183.57 201.16 184.12 201.04 184.93 C 200.92 185.75 201.48 186.50 202.29 186.62 Z M 203.31 186.77 L 204.32 186.90 C 205.13 187.00 205.87 186.42 205.97 185.61 C 206.07 184.80 205.50 184.06 204.69 183.96 L 203.68 183.83 C 202.87 183.73 202.13 184.31 202.02 185.12 C 201.92 185.93 202.50 186.67 203.31 186.77 Z M 204.35 186.90 L 205.38 187.00 C 206.20 187.09 206.92 186.50 207.01 185.69 C 207.09 184.87 206.50 184.15 205.69 184.06 L 204.65 183.96 C 203.84 183.87 203.12 184.46 203.03 185.28 C 202.95 186.09 203.54 186.81 204.35 186.90 Z M 205.41 187.00 L 206.44 187.09 C 207.25 187.16 207.97 186.55 208.03 185.74 C 208.10 184.93 207.50 184.21 206.68 184.15 L 205.66 184.06 C 204.84 184.00 204.13 184.60 204.06 185.41 C 204.00 186.22 204.60 186.94 205.41 187.00 Z M 206.47 187.09 L 207.44 187.15 C 208.25 187.21 208.95 186.59 209.00 185.78 C 209.06 184.96 208.44 184.26 207.63 184.21 L 206.66 184.15 C 205.84 184.09 205.14 184.71 205.09 185.52 C 205.04 186.34 205.65 187.04 206.47 187.09 Z M 207.46 187.16 L 208.44 187.21 C 209.25 187.25 209.95 186.62 209.99 185.81 C 210.03 184.99 209.41 184.30 208.59 184.26 L 207.61 184.21 C 206.79 184.16 206.10 184.79 206.06 185.61 C 206.02 186.42 206.64 187.11 207.46 187.16 Z M 208.46 187.21 L 209.45 187.25 C 210.27 187.28 210.96 186.64 210.99 185.83 C 211.02 185.01 210.39 184.33 209.57 184.29 L 208.57 184.25 C 207.76 184.22 207.07 184.86 207.04 185.67 C 207.01 186.49 207.64 187.18 208.46 187.21 Z M 209.47 187.25 L 210.47 187.28 C 211.29 187.30 211.97 186.66 212.00 185.85 C 212.02 185.03 211.38 184.35 210.56 184.32 L 209.56 184.29 C 208.74 184.27 208.06 184.91 208.03 185.73 C 208.01 186.54 208.65 187.22 209.47 187.25 Z M 210.48 187.28 L 211.50 187.31 C 212.31 187.33 212.99 186.68 213.01 185.86 C 213.03 185.05 212.38 184.37 211.57 184.35 L 210.55 184.32 C 209.74 184.30 209.06 184.95 209.04 185.77 C 209.02 186.58 209.66 187.26 210.48 187.28 Z M 211.50 187.31 L 212.52 187.33 C 213.34 187.34 214.01 186.69 214.03 185.88 C 214.05 185.06 213.40 184.38 212.58 184.37 L 211.56 184.35 C 210.74 184.33 210.07 184.98 210.05 185.80 C 210.03 186.61 210.68 187.29 211.50 187.31 Z M 212.52 187.33 L 213.40 187.34 C 214.22 187.36 214.89 186.71 214.91 185.89 C 214.92 185.07 214.27 184.40 213.46 184.38 L 212.58 184.37 C 211.76 184.35 211.08 185.00 211.07 185.82 C 211.05 186.64 211.70 187.31 212.52 187.33 Z"
      fill="black"
      fill-rule="nonzero" /></svg>