<svg xmlns="http://www.w3.org/2000/svg" width="300" height="300" viewBox="0 0 300 300">
<path d="M 125.32 113.28 L 124.24 113.28 C 123.39 113.28 122.70 113.97 122.70 114.82 C 122.70 115.67 123.39 116.36 124.24 116.36 L 125.32 116.36 C 126.17 116.36 126.86 115.67 126.86 114.82 C 126.86 113.97 126.17 113.29 125.32 113.28 Z M 124.24 113.27 L 123.18 113.26 C 122.32 113.26 121.62 113.95 121.61 114.81 C 121.61 115.67 122.31 116.37 123.17 116.38 L 124.23 116.38 C 125.09 116.38 125.79 115.69 125.80 114.83 C 125.80 113.97 125.10 113.27 124.24 113.27 Z M 123.19 113.24 L 122.15 113.23 C 121.28 113.23 120.57 113.92 120.56 114.79 C 120.55 115.66 121.25 116.38 122.12 116.38 L 123.16 116.39 C 124.03 116.40 124.74 115.70 124.75 114.83 C 124.75 113.96 124.06 113.25 123.19 113.24 Z M 122.17 113.22 L 121.18 113.20 C 120.30 113.18 119.58 113.88 119.56 114.76 C 119.54 115.64 120.24 116.37 121.12 116.38 L 122.11 116.40 C 122.99 116.42 123.71 115.72 123.73 114.84 C 123.75 113.96 123.05 113.23 122.17 113.22 Z M 121.21 113.18 L 120.29 113.15 C 119.40 113.12 118.65 113.82 118.62 114.71 C 118.59 115.60 119.29 116.34 120.18 116.37 L 121.10 116.40 C 121.99 116.43 122.74 115.73 122.76 114.84 C 122.79 113.95 122.10 113.21 121.21 113.18 Z M 120.33 113.13 L 119.17 113.06 C 118.27 113.01 117.50 113.69 117.44 114.59 C 117.39 115.49 118.08 116.27 118.98 116.32 L 120.14 116.39 C 121.04 116.44 121.81 115.76 121.87 114.86 C 121.92 113.96 121.23 113.18 120.33 113.13 Z M 119.28 113.04 L 118.01 112.89 C 117.10 112.78 116.28 113.42 116.16 114.33 C 116.05 115.24 116.70 116.07 117.61 116.18 L 118.87 116.34 C 119.78 116.45 120.61 115.80 120.72 114.89 C 120.83 113.99 120.19 113.16 119.28 113.04 Z M 118.38 112.94 L 117.79 112.73 C 116.91 112.42 115.95 112.88 115.63 113.76 C 115.32 114.63 115.78 115.60 116.65 115.91 L 117.24 116.12 C 118.12 116.44 119.09 115.98 119.40 115.10 C 119.71 114.22 119.25 113.26 118.38 112.94 Z M 118.47 115.50 L 118.69 115.26 C 119.33 114.58 119.30 113.49 118.61 112.85 C 117.93 112.20 116.84 112.23 116.20 112.92 L 115.98 113.15 C 115.33 113.84 115.36 114.92 116.05 115.57 C 116.74 116.22 117.82 116.18 118.47 115.50 Z M 117.92 115.75 L 118.78 115.50 C 119.69 115.23 120.22 114.28 119.95 113.36 C 119.69 112.45 118.73 111.92 117.82 112.19 L 116.96 112.44 C 116.05 112.70 115.52 113.66 115.79 114.57 C 116.05 115.48 117.01 116.01 117.92 115.75 Z M 118.64 115.54 L 119.94 115.28 C 120.88 115.09 121.49 114.18 121.30 113.24 C 121.11 112.30 120.20 111.69 119.26 111.88 L 117.96 112.14 C 117.02 112.33 116.41 113.25 116.60 114.18 C 116.79 115.12 117.70 115.73 118.64 115.54 Z M 119.90 115.30 L 121.02 115.10 C 121.97 114.94 122.61 114.04 122.44 113.09 C 122.28 112.14 121.38 111.51 120.43 111.67 L 119.30 111.86 C 118.36 112.03 117.72 112.93 117.88 113.88 C 118.05 114.82 118.95 115.46 119.90 115.30 Z M 121.00 115.11 L 122.01 114.95 C 122.96 114.80 123.61 113.90 123.45 112.95 C 123.30 112.00 122.41 111.35 121.45 111.50 L 120.45 111.66 C 119.50 111.81 118.85 112.71 119.00 113.66 C 119.15 114.61 120.05 115.26 121.00 115.11 Z M 121.99 114.95 L 123.02 114.80 C 123.97 114.65 124.63 113.76 124.48 112.81 C 124.34 111.85 123.44 111.20 122.49 111.34 L 121.47 111.50 C 120.51 111.64 119.86 112.53 120.00 113.49 C 120.15 114.44 121.04 115.10 121.99 114.95 Z M 123.00 114.80 L 124.01 114.66 C 124.96 114.52 125.63 113.63 125.49 112.67 C 125.35 111.71 124.46 111.05 123.50 111.19 L 122.50 111.34 C 121.54 111.48 120.88 112.36 121.02 113.32 C 121.16 114.28 122.05 114.94 123.00 114.80 Z M 124.00 114.66 L 124.95 114.53 C 125.91 114.39 126.58 113.51 126.44 112.55 C 126.31 111.59 125.42 110.92 124.46 111.05 L 123.51 111.19 C 122.55 111.32 121.88 112.21 122.02 113.17 C 122.15 114.13 123.04 114.79 124.00 114.66 Z M 124.94 114.53 L 126.01 114.39 C 126.97 114.26 127.65 113.37 127.52 112.41 C 127.39 111.45 126.51 110.78 125.54 110.91 L 124.47 111.05 C 123.51 111.18 122.84 112.06 122.97 113.02 C 123.10 113.98 123.98 114.66 124.94 114.53 Z M 126.00 114.39 L 127.00 114.26 C 127.97 114.14 128.65 113.26 128.52 112.29 C 128.40 111.33 127.52 110.65 126.55 110.77 L 125.55 110.90 C 124.59 111.03 123.91 111.91 124.03 112.87 C 124.16 113.83 125.04 114.51 126.00 114.39 Z M 127.00 114.26 L 127.94 114.14 C 128.91 114.02 129.59 113.14 129.47 112.18 C 129.35 111.21 128.47 110.53 127.50 110.65 L 126.56 110.77 C 125.59 110.89 124.91 111.77 125.03 112.74 C 125.16 113.70 126.04 114.38 127.00 114.26 Z M 127.95 114.14 L 128.88 114.02 C 129.85 113.90 130.53 113.02 130.40 112.05 C 130.28 111.09 129.40 110.41 128.43 110.53 L 127.50 110.65 C 126.53 110.78 125.85 111.66 125.98 112.62 C 126.10 113.59 126.98 114.27 127.95 114.14 Z M 128.89 114.02 L 129.85 113.90 C 130.82 113.77 131.50 112.89 131.37 111.92 C 131.24 110.96 130.36 110.28 129.39 110.41 L 128.43 110.53 C 127.46 110.66 126.79 111.54 126.91 112.51 C 127.04 113.47 127.92 114.15 128.89 114.02 Z M 129.85 113.90 L 130.84 113.77 C 131.81 113.64 132.49 112.75 132.36 111.79 C 132.23 110.83 131.35 110.15 130.38 110.27 L 129.39 110.40 C 128.43 110.53 127.75 111.42 127.88 112.38 C 128.00 113.35 128.89 114.02 129.85 113.90 Z M 130.84 113.77 L 131.85 113.64 C 132.81 113.51 133.49 112.63 133.37 111.66 C 133.24 110.70 132.36 110.02 131.40 110.14 L 130.39 110.27 C 129.42 110.40 128.74 111.28 128.87 112.25 C 128.99 113.21 129.87 113.89 130.84 113.77 Z M 131.84 113.64 L 132.85 113.52 C 133.81 113.40 134.50 112.52 134.38 111.55 C 134.26 110.59 133.38 109.90 132.42 110.02 L 131.41 110.14 C 130.44 110.26 129.75 111.14 129.87 112.10 C 129.99 113.07 130.87 113.76 131.84 113.64 Z M 132.83 113.52 L 133.83 113.40 C 134.80 113.29 135.49 112.42 135.38 111.45 C 135.27 110.48 134.39 109.79 133.43 109.90 L 132.43 110.02 C 131.46 110.13 130.77 111.00 130.88 111.97 C 130.99 112.94 131.87 113.63 132.83 113.52 Z M 133.83 113.40 L 134.82 113.29 C 135.79 113.18 136.49 112.31 136.38 111.34 C 136.27 110.37 135.40 109.68 134.43 109.79 L 133.43 109.90 C 132.46 110.01 131.77 110.88 131.88 111.85 C 131.99 112.82 132.86 113.51 133.83 113.40 Z M 134.83 113.29 L 135.82 113.18 C 136.78 113.07 137.48 112.19 137.37 111.22 C 137.26 110.26 136.38 109.56 135.41 109.67 L 134.42 109.79 C 133.45 109.90 132.76 110.77 132.87 111.74 C 132.98 112.71 133.86 113.40 134.83 113.29 Z M 135.83 113.18 L 136.82 113.06 C 137.79 112.94 138.47 112.06 138.36 111.09 C 138.24 110.12 137.36 109.43 136.39 109.55 L 135.40 109.67 C 134.43 109.79 133.74 110.67 133.86 111.64 C 133.98 112.61 134.86 113.30 135.83 113.18 Z M 136.83 113.05 L 137.82 112.92 C 138.79 112.80 139.47 111.91 139.34 110.94 C 139.22 109.98 138.33 109.30 137.36 109.42 L 136.37 109.55 C 135.41 109.68 134.73 110.57 134.85 111.53 C 134.98 112.50 135.87 113.18 136.83 113.05 Z M 137.83 112.92 L 138.82 112.79 C 139.79 112.65 140.46 111.76 140.33 110.80 C 140.20 109.83 139.31 109.16 138.34 109.29 L 137.35 109.43 C 136.39 109.56 135.71 110.45 135.85 111.41 C 135.98 112.38 136.87 113.06 137.83 112.92 Z M 138.83 112.79 L 139.82 112.65 C 140.78 112.51 141.46 111.62 141.32 110.65 C 141.19 109.69 140.29 109.02 139.33 109.15 L 138.34 109.29 C 137.37 109.43 136.70 110.32 136.83 111.28 C 136.97 112.25 137.86 112.92 138.83 112.79 Z M 139.82 112.65 L 140.80 112.51 C 141.77 112.37 142.44 111.48 142.31 110.52 C 142.17 109.55 141.28 108.88 140.31 109.01 L 139.33 109.15 C 138.36 109.29 137.69 110.18 137.82 111.14 C 137.96 112.11 138.85 112.78 139.82 112.65 Z M 140.80 112.51 L 141.79 112.37 C 142.76 112.24 143.43 111.35 143.30 110.38 C 143.16 109.41 142.27 108.74 141.30 108.88 L 140.32 109.01 C 139.35 109.15 138.68 110.04 138.81 111.00 C 138.95 111.97 139.84 112.64 140.80 112.51 Z M 141.79 112.37 L 142.78 112.24 C 143.75 112.10 144.42 111.21 144.29 110.24 C 144.16 109.28 143.26 108.60 142.30 108.74 L 141.31 108.87 C 140.34 109.01 139.66 109.90 139.80 110.87 C 139.93 111.83 140.82 112.51 141.79 112.37 Z M 142.78 112.24 L 143.78 112.10 C 144.74 111.97 145.42 111.07 145.29 110.11 C 145.15 109.14 144.26 108.47 143.29 108.60 L 142.30 108.74 C 141.33 108.87 140.66 109.76 140.79 110.73 C 140.92 111.69 141.82 112.37 142.78 112.24 Z M 143.78 112.10 L 144.76 111.96 C 145.73 111.83 146.40 110.94 146.27 109.97 C 146.14 109.01 145.25 108.33 144.28 108.46 L 143.29 108.60 C 142.33 108.73 141.65 109.62 141.79 110.59 C 141.92 111.56 142.81 112.23 143.78 112.10 Z M 144.77 111.96 L 145.75 111.82 C 146.72 111.69 147.39 110.80 147.26 109.83 C 147.12 108.87 146.23 108.19 145.26 108.33 L 144.28 108.47 C 143.31 108.60 142.64 109.49 142.78 110.46 C 142.91 111.42 143.80 112.09 144.77 111.96 Z M 145.76 111.82 L 146.75 111.68 C 147.71 111.54 148.38 110.65 148.24 109.68 C 148.11 108.72 147.21 108.05 146.25 108.19 L 145.26 108.33 C 144.30 108.47 143.63 109.36 143.76 110.32 C 143.90 111.29 144.80 111.96 145.76 111.82 Z M 146.76 111.67 L 147.75 111.53 C 148.72 111.38 149.38 110.49 149.24 109.53 C 149.09 108.56 148.20 107.90 147.24 108.04 L 146.24 108.19 C 145.28 108.33 144.61 109.23 144.76 110.19 C 144.90 111.15 145.80 111.82 146.76 111.67 Z M 147.77 111.52 L 148.72 111.37 C 149.68 111.22 150.34 110.33 150.19 109.37 C 150.04 108.41 149.14 107.75 148.18 107.90 L 147.23 108.05 C 146.27 108.20 145.61 109.10 145.76 110.05 C 145.91 111.01 146.81 111.67 147.77 111.52 Z M 148.73 111.37 L 149.70 111.21 C 150.66 111.06 151.31 110.16 151.16 109.20 C 151.00 108.24 150.10 107.59 149.14 107.75 L 148.17 107.90 C 147.22 108.06 146.56 108.96 146.72 109.92 C 146.87 110.87 147.77 111.52 148.73 111.37 Z M 149.71 111.21 L 150.70 111.05 C 151.66 110.89 152.30 109.99 152.14 109.03 C 151.99 108.07 151.08 107.43 150.13 107.59 L 149.14 107.75 C 148.18 107.91 147.53 108.81 147.69 109.77 C 147.85 110.72 148.75 111.37 149.71 111.21 Z M 150.70 111.04 L 151.73 110.87 C 152.68 110.71 153.32 109.81 153.16 108.85 C 153.00 107.90 152.10 107.26 151.14 107.42 L 150.12 107.59 C 149.17 107.75 148.52 108.65 148.69 109.61 C 148.85 110.56 149.75 111.20 150.70 111.04 Z M 151.73 110.87 L 152.70 110.70 C 153.66 110.54 154.30 109.64 154.14 108.69 C 153.98 107.73 153.07 107.09 152.12 107.25 L 151.14 107.42 C 150.19 107.58 149.55 108.48 149.71 109.44 C 149.87 110.39 150.77 111.03 151.73 110.87 Z M 152.71 110.70 L 153.69 110.53 C 154.64 110.37 155.28 109.47 155.12 108.52 C 154.95 107.57 154.05 106.93 153.10 107.09 L 152.12 107.26 C 151.17 107.42 150.53 108.32 150.69 109.27 C 150.85 110.22 151.76 110.86 152.71 110.70 Z M 153.69 110.53 L 154.69 110.35 C 155.63 110.19 156.27 109.29 156.11 108.34 C 155.94 107.39 155.04 106.76 154.09 106.92 L 153.10 107.10 C 152.15 107.26 151.52 108.16 151.68 109.11 C 151.84 110.05 152.75 110.69 153.69 110.53 Z M 154.69 110.35 L 155.69 110.17 C 156.63 110.01 157.26 109.11 157.10 108.16 C 156.93 107.22 156.03 106.59 155.09 106.75 L 154.09 106.93 C 153.15 107.09 152.52 107.99 152.68 108.94 C 152.85 109.88 153.75 110.51 154.69 110.35 Z M 155.69 110.17 L 156.68 109.99 C 157.62 109.82 158.25 108.92 158.08 107.98 C 157.91 107.04 157.01 106.42 156.07 106.58 L 155.08 106.76 C 154.14 106.93 153.51 107.83 153.68 108.77 C 153.85 109.71 154.75 110.34 155.69 110.17 Z M 156.69 109.98 L 157.68 109.80 C 158.62 109.63 159.24 108.73 159.07 107.80 C 158.90 106.86 158.00 106.24 157.06 106.41 L 156.07 106.59 C 155.13 106.76 154.51 107.66 154.68 108.60 C 154.85 109.53 155.75 110.16 156.69 109.98 Z M 157.69 109.80 L 158.67 109.61 C 159.60 109.44 160.22 108.54 160.04 107.61 C 159.87 106.67 158.97 106.06 158.04 106.23 L 157.06 106.42 C 156.12 106.59 155.51 107.49 155.68 108.42 C 155.85 109.36 156.75 109.97 157.69 109.80 Z M 158.67 109.61 L 159.65 109.42 C 160.58 109.24 161.19 108.34 161.01 107.41 C 160.83 106.48 159.93 105.87 159.00 106.05 L 158.03 106.24 C 157.10 106.42 156.49 107.32 156.67 108.25 C 156.85 109.18 157.74 109.79 158.67 109.61 Z M 159.66 109.41 L 160.63 109.22 C 161.56 109.04 162.16 108.14 161.98 107.21 C 161.80 106.29 160.90 105.69 159.97 105.87 L 159.00 106.06 C 158.07 106.24 157.47 107.14 157.65 108.07 C 157.83 108.99 158.73 109.60 159.66 109.41 Z M 160.64 109.21 L 161.61 109.02 C 162.53 108.83 163.13 107.93 162.94 107.01 C 162.75 106.09 161.86 105.49 160.93 105.68 L 159.97 105.88 C 159.04 106.06 158.45 106.96 158.63 107.88 C 158.82 108.80 159.72 109.40 160.64 109.21 Z M 161.61 109.01 L 162.59 108.81 C 163.50 108.62 164.09 107.73 163.91 106.81 C 163.72 105.89 162.82 105.30 161.91 105.49 L 160.93 105.69 C 160.01 105.88 159.42 106.77 159.61 107.69 C 159.80 108.61 160.69 109.20 161.61 109.01 Z M 162.58 108.80 L 163.56 108.60 C 164.48 108.42 165.07 107.53 164.88 106.61 C 164.69 105.70 163.80 105.11 162.89 105.30 L 161.91 105.50 C 161.00 105.68 160.41 106.57 160.59 107.49 C 160.78 108.40 161.67 108.99 162.58 108.80 Z M 163.56 108.60 L 164.55 108.40 C 165.46 108.22 166.04 107.33 165.86 106.42 C 165.68 105.51 164.79 104.92 163.88 105.10 L 162.90 105.30 C 161.99 105.48 161.40 106.37 161.58 107.28 C 161.76 108.19 162.65 108.78 163.56 108.60 Z M 164.53 108.39 L 165.52 108.20 C 166.43 108.02 167.02 107.15 166.84 106.24 C 166.67 105.33 165.79 104.74 164.88 104.92 L 163.90 105.11 C 162.99 105.29 162.40 106.16 162.57 107.07 C 162.75 107.98 163.63 108.57 164.53 108.39 Z M 165.51 108.19 L 166.49 108.01 C 167.40 107.84 167.99 106.97 167.82 106.07 C 167.65 105.16 166.78 104.57 165.88 104.74 L 164.89 104.92 C 163.99 105.09 163.40 105.96 163.57 106.87 C 163.74 107.77 164.61 108.36 165.51 108.19 Z M 166.49 108.00 L 167.47 107.82 C 168.37 107.65 168.96 106.79 168.80 105.89 C 168.63 104.99 167.77 104.40 166.87 104.56 L 165.88 104.75 C 164.98 104.91 164.39 105.78 164.56 106.68 C 164.72 107.58 165.59 108.17 166.49 108.00 Z M 167.47 107.81 L 168.46 107.63 C 169.35 107.46 169.94 106.60 169.77 105.71 C 169.61 104.81 168.75 104.22 167.85 104.39 L 166.87 104.57 C 165.97 104.74 165.38 105.60 165.55 106.49 C 165.72 107.39 166.58 107.98 167.47 107.81 Z M 168.46 107.62 L 169.44 107.43 C 170.33 107.26 170.92 106.41 170.75 105.52 C 170.58 104.63 169.72 104.04 168.83 104.21 L 167.85 104.40 C 166.96 104.57 166.37 105.42 166.54 106.31 C 166.71 107.20 167.57 107.79 168.46 107.62 Z M 169.45 107.42 L 170.45 107.23 C 171.33 107.05 171.90 106.19 171.73 105.31 C 171.56 104.43 170.70 103.85 169.81 104.03 L 168.82 104.22 C 167.94 104.40 167.36 105.25 167.53 106.14 C 167.71 107.02 168.57 107.60 169.45 107.42 Z M 170.45 107.21 L 171.44 107.01 C 172.32 106.84 172.89 105.98 172.71 105.10 C 172.53 104.23 171.67 103.66 170.80 103.84 L 169.81 104.04 C 168.93 104.21 168.36 105.07 168.54 105.95 C 168.72 106.82 169.57 107.39 170.45 107.21 Z M 171.44 107.00 L 172.42 106.80 C 173.29 106.62 173.86 105.77 173.68 104.90 C 173.50 104.03 172.65 103.47 171.77 103.65 L 170.79 103.85 C 169.92 104.03 169.36 104.88 169.54 105.75 C 169.72 106.62 170.57 107.18 171.44 107.00 Z M 172.42 106.79 L 173.39 106.59 C 174.25 106.41 174.81 105.57 174.63 104.70 C 174.46 103.84 173.61 103.28 172.74 103.46 L 171.78 103.66 C 170.91 103.83 170.35 104.68 170.53 105.55 C 170.71 106.41 171.55 106.97 172.42 106.79 Z M 173.38 106.58 L 174.28 106.40 C 175.14 106.23 175.70 105.39 175.53 104.52 C 175.35 103.66 174.51 103.11 173.65 103.28 L 172.75 103.47 C 171.89 103.64 171.33 104.48 171.51 105.34 C 171.68 106.20 172.52 106.76 173.38 106.58 Z M 174.27 106.39 L 175.12 106.23 C 175.98 106.06 176.54 105.22 176.37 104.37 C 176.20 103.51 175.37 102.95 174.51 103.12 L 173.66 103.29 C 172.80 103.46 172.24 104.29 172.41 105.15 C 172.58 106.01 173.42 106.56 174.27 106.39 Z M 175.11 106.22 L 176.01 106.05 C 176.86 105.88 177.42 105.06 177.26 104.20 C 177.10 103.35 176.27 102.79 175.42 102.96 L 174.52 103.13 C 173.67 103.29 173.11 104.12 173.27 104.97 C 173.43 105.82 174.26 106.38 175.11 106.22 Z M 176.00 106.04 L 176.99 105.86 C 177.84 105.70 178.40 104.88 178.24 104.03 C 178.08 103.18 177.27 102.62 176.42 102.78 L 175.43 102.96 C 174.58 103.12 174.02 103.94 174.18 104.79 C 174.33 105.64 175.15 106.20 176.00 106.04 Z M 176.98 105.85 L 178.09 105.65 C 178.94 105.50 179.50 104.69 179.35 103.85 C 179.20 103.00 178.39 102.44 177.55 102.59 L 176.43 102.79 C 175.58 102.94 175.02 103.74 175.17 104.59 C 175.32 105.44 176.13 106.00 176.98 105.85 Z M 178.08 105.65 L 179.19 105.46 C 180.03 105.31 180.60 104.51 180.45 103.67 C 180.30 102.82 179.50 102.26 178.66 102.40 L 177.56 102.59 C 176.71 102.74 176.15 103.54 176.29 104.38 C 176.44 105.23 177.24 105.79 178.08 105.65 Z M 179.18 105.45 L 180.15 105.29 C 180.99 105.15 181.56 104.35 181.42 103.51 C 181.28 102.67 180.48 102.10 179.64 102.24 L 178.67 102.41 C 177.83 102.55 177.26 103.34 177.40 104.18 C 177.54 105.02 178.34 105.59 179.18 105.45 Z M 180.15 105.28 L 181.17 105.11 C 182.01 104.98 182.58 104.19 182.44 103.35 C 182.30 102.51 181.51 101.94 180.67 102.08 L 179.65 102.25 C 178.81 102.39 178.24 103.18 178.38 104.01 C 178.52 104.85 179.31 105.42 180.15 105.28 Z M 181.16 105.11 L 182.21 104.94 C 183.05 104.81 183.62 104.02 183.48 103.19 C 183.35 102.35 182.57 101.78 181.73 101.92 L 180.68 102.08 C 179.85 102.22 179.28 103.00 179.41 103.84 C 179.54 104.67 180.33 105.24 181.16 105.11 Z M 182.20 104.94 L 183.25 104.78 C 184.08 104.65 184.65 103.87 184.53 103.04 C 184.40 102.20 183.62 101.63 182.78 101.76 L 181.74 101.92 C 180.91 102.05 180.34 102.83 180.46 103.66 C 180.59 104.50 181.37 105.07 182.20 104.94 Z M 183.24 104.77 L 184.25 104.62 C 185.08 104.50 185.66 103.73 185.53 102.90 C 185.41 102.07 184.64 101.49 183.81 101.61 L 182.80 101.76 C 181.96 101.89 181.39 102.66 181.51 103.49 C 181.63 104.32 182.41 104.90 183.24 104.77 Z M 184.24 104.62 L 185.19 104.49 C 186.02 104.37 186.60 103.61 186.48 102.78 C 186.37 101.95 185.60 101.37 184.77 101.49 L 183.82 101.62 C 182.99 101.73 182.41 102.50 182.53 103.33 C 182.64 104.16 183.41 104.74 184.24 104.62 Z M 185.17 104.48 L 186.13 104.36 C 186.96 104.26 187.55 103.51 187.44 102.68 C 187.34 101.85 186.59 101.27 185.76 101.37 L 184.79 101.49 C 183.97 101.59 183.38 102.35 183.48 103.18 C 183.59 104.00 184.34 104.59 185.17 104.48 Z M 186.10 104.36 L 187.37 104.23 C 188.19 104.15 188.79 103.41 188.71 102.59 C 188.62 101.77 187.89 101.17 187.07 101.25 L 185.80 101.38 C 184.98 101.46 184.38 102.19 184.46 103.02 C 184.54 103.84 185.27 104.44 186.10 104.36 Z M 187.31 104.21 L 188.32 104.15 C 189.14 104.10 189.76 103.40 189.70 102.58 C 189.65 101.77 188.95 101.15 188.14 101.20 L 187.13 101.27 C 186.31 101.32 185.69 102.02 185.74 102.83 C 185.79 103.65 186.50 104.27 187.31 104.21 Z M 188.27 104.14 L 189.11 104.11 C 189.92 104.09 190.55 103.42 190.53 102.62 C 190.51 101.81 189.84 101.17 189.03 101.20 L 188.19 101.22 C 187.39 101.24 186.75 101.91 186.77 102.71 C 186.79 103.52 187.46 104.16 188.27 104.14 Z M 189.08 104.10 L 189.75 104.09 C 190.55 104.09 191.19 103.44 191.19 102.65 C 191.19 101.85 190.54 101.21 189.74 101.21 L 189.07 101.21 C 188.27 101.22 187.63 101.86 187.63 102.66 C 187.63 103.46 188.28 104.10 189.08 104.10 Z"
      fill="black"
      fill-rule="nonzero" /><path d="M 166.47 105.49 L 165.29 104.93 C 164.52 104.56 163.60 104.88 163.23 105.65 C 162.86 106.42 163.19 107.34 163.96 107.71 L 165.14 108.28 C 165.91 108.65 166.83 108.32 167.19 107.55 C 167.56 106.78 167.24 105.86 166.47 105.49 Z M 165.06 104.76 L 164.26 104.53 C 163.40 104.29 162.50 104.79 162.26 105.66 C 162.02 106.52 162.52 107.42 163.39 107.66 L 164.18 107.88 C 165.05 108.13 165.94 107.62 166.19 106.76 C 166.43 105.89 165.92 105.00 165.06 104.76 Z M 162.22 105.59 L 162.12 105.92 C 161.83 106.80 162.32 107.75 163.21 108.03 C 164.10 108.31 165.04 107.82 165.32 106.93 L 165.43 106.61 C 165.71 105.72 165.22 104.77 164.33 104.49 C 163.45 104.21 162.50 104.70 162.22 105.59 Z M 162.19 107.19 L 162.57 107.95 C 162.99 108.80 164.01 109.14 164.86 108.72 C 165.71 108.30 166.05 107.27 165.63 106.43 L 165.25 105.66 C 164.83 104.82 163.81 104.47 162.96 104.89 C 162.11 105.31 161.77 106.34 162.19 107.19 Z M 162.62 108.08 L 163.30 109.21 C 163.79 110.03 164.85 110.29 165.67 109.80 C 166.49 109.31 166.75 108.25 166.26 107.43 L 165.58 106.30 C 165.09 105.48 164.02 105.21 163.21 105.71 C 162.39 106.20 162.13 107.26 162.62 108.08 Z M 163.28 109.21 L 163.86 110.18 C 164.35 111.00 165.42 111.27 166.24 110.78 C 167.07 110.29 167.34 109.22 166.85 108.40 L 166.28 107.43 C 165.78 106.60 164.72 106.33 163.89 106.82 C 163.06 107.31 162.79 108.38 163.28 109.21 Z M 163.84 110.15 L 164.32 111.01 C 164.80 111.85 165.87 112.14 166.71 111.66 C 167.55 111.18 167.84 110.11 167.36 109.27 L 166.87 108.42 C 166.39 107.58 165.32 107.29 164.49 107.77 C 163.65 108.25 163.36 109.32 163.84 110.15 Z M 164.31 110.99 L 164.80 111.88 C 165.27 112.73 166.34 113.04 167.19 112.57 C 168.04 112.10 168.34 111.03 167.87 110.18 L 167.38 109.29 C 166.91 108.44 165.84 108.13 164.99 108.60 C 164.14 109.07 163.84 110.14 164.31 110.99 Z M 164.78 111.86 L 165.27 112.78 C 165.73 113.63 166.80 113.96 167.66 113.50 C 168.51 113.04 168.84 111.97 168.38 111.12 L 167.89 110.20 C 167.43 109.35 166.37 109.02 165.51 109.48 C 164.65 109.94 164.33 111.01 164.78 111.86 Z M 165.25 112.75 L 165.72 113.66 C 166.16 114.53 167.23 114.87 168.10 114.42 C 168.97 113.98 169.31 112.91 168.86 112.05 L 168.40 111.14 C 167.95 110.27 166.89 109.93 166.02 110.37 C 165.15 110.82 164.81 111.89 165.25 112.75 Z M 165.70 113.63 L 166.15 114.55 C 166.58 115.43 167.64 115.79 168.52 115.36 C 169.40 114.93 169.76 113.87 169.33 112.99 L 168.88 112.07 C 168.45 111.20 167.39 110.83 166.51 111.26 C 165.63 111.69 165.27 112.75 165.70 113.63 Z M 166.12 114.51 L 166.56 115.46 C 166.97 116.35 168.02 116.74 168.92 116.33 C 169.81 115.92 170.20 114.87 169.79 113.98 L 169.36 113.03 C 168.95 112.14 167.89 111.75 167.00 112.16 C 166.11 112.57 165.71 113.62 166.12 114.51 Z M 166.54 115.42 L 166.93 116.34 C 167.32 117.24 168.37 117.66 169.27 117.27 C 170.18 116.88 170.60 115.83 170.21 114.92 L 169.81 114.01 C 169.42 113.11 168.37 112.69 167.47 113.08 C 166.56 113.47 166.15 114.52 166.54 115.42 Z M 166.91 116.31 L 167.28 117.20 C 167.65 118.12 168.70 118.56 169.61 118.18 C 170.53 117.81 170.96 116.77 170.59 115.85 L 170.22 114.95 C 169.85 114.04 168.81 113.60 167.89 113.97 C 166.98 114.35 166.54 115.39 166.91 116.31 Z M 167.26 117.18 L 167.62 118.09 C 167.98 119.01 169.02 119.46 169.94 119.10 C 170.87 118.74 171.32 117.70 170.96 116.77 L 170.61 115.87 C 170.24 114.95 169.20 114.49 168.28 114.86 C 167.36 115.22 166.90 116.26 167.26 117.18 Z M 167.61 118.07 L 167.95 118.96 C 168.31 119.89 169.35 120.36 170.27 120.00 C 171.20 119.64 171.66 118.60 171.31 117.68 L 170.97 116.79 C 170.61 115.86 169.57 115.40 168.64 115.75 C 167.72 116.11 167.25 117.15 167.61 118.07 Z M 167.95 118.95 L 168.28 119.86 C 168.63 120.79 169.67 121.26 170.60 120.91 C 171.53 120.56 172.00 119.52 171.65 118.59 L 171.31 117.69 C 170.96 116.76 169.93 116.29 169.00 116.64 C 168.07 116.99 167.60 118.02 167.95 118.95 Z M 168.28 119.84 L 168.62 120.77 C 168.96 121.71 170.00 122.19 170.93 121.84 C 171.86 121.50 172.34 120.47 172.00 119.54 L 171.66 118.60 C 171.32 117.67 170.28 117.19 169.35 117.53 C 168.42 117.87 167.94 118.91 168.28 119.84 Z M 168.61 120.75 L 168.95 121.72 C 169.29 122.65 170.31 123.14 171.25 122.81 C 172.19 122.48 172.68 121.45 172.35 120.51 L 172.01 119.55 C 171.67 118.62 170.65 118.13 169.71 118.46 C 168.77 118.79 168.28 119.82 168.61 120.75 Z M 168.95 121.70 L 169.28 122.69 C 169.60 123.63 170.63 124.13 171.57 123.81 C 172.51 123.49 173.01 122.47 172.69 121.53 L 172.35 120.54 C 172.03 119.59 171.01 119.09 170.07 119.41 C 169.13 119.73 168.63 120.75 168.95 121.70 Z M 169.28 122.67 L 169.58 123.59 C 169.89 124.54 170.90 125.05 171.85 124.75 C 172.79 124.44 173.31 123.42 173.00 122.48 L 172.70 121.55 C 172.39 120.60 171.38 120.09 170.43 120.40 C 169.48 120.70 168.97 121.72 169.28 122.67 Z M 169.57 123.57 L 169.85 124.49 C 170.15 125.44 171.16 125.97 172.11 125.67 C 173.06 125.38 173.59 124.37 173.30 123.42 L 173.01 122.50 C 172.72 121.55 171.70 121.01 170.75 121.31 C 169.80 121.61 169.27 122.62 169.57 123.57 Z M 169.84 124.47 L 170.12 125.41 C 170.41 126.37 171.41 126.91 172.37 126.63 C 173.33 126.35 173.87 125.34 173.59 124.38 L 173.31 123.44 C 173.02 122.48 172.02 121.93 171.06 122.22 C 170.10 122.50 169.56 123.51 169.84 124.47 Z M 170.11 125.39 L 170.39 126.36 C 170.66 127.32 171.66 127.88 172.62 127.61 C 173.59 127.34 174.15 126.34 173.87 125.37 L 173.60 124.40 C 173.33 123.44 172.33 122.88 171.36 123.15 C 170.40 123.42 169.84 124.43 170.11 125.39 Z M 170.38 126.34 L 170.64 127.34 C 170.90 128.30 171.90 128.88 172.87 128.62 C 173.84 128.36 174.41 127.36 174.15 126.40 L 173.88 125.40 C 173.63 124.43 172.63 123.85 171.66 124.11 C 170.69 124.37 170.12 125.37 170.38 126.34 Z M 170.63 127.31 L 170.89 128.33 C 171.14 129.30 172.13 129.89 173.10 129.65 C 174.08 129.40 174.67 128.41 174.42 127.43 L 174.16 126.42 C 173.92 125.44 172.93 124.85 171.95 125.10 C 170.98 125.35 170.39 126.34 170.63 127.31 Z M 170.88 128.31 L 171.10 129.22 C 171.34 130.20 172.32 130.81 173.30 130.57 C 174.28 130.34 174.88 129.35 174.65 128.37 L 174.43 127.46 C 174.19 126.48 173.21 125.87 172.23 126.11 C 171.25 126.34 170.65 127.33 170.88 128.31 Z M 171.09 129.20 L 171.31 130.14 C 171.53 131.13 172.51 131.74 173.50 131.52 C 174.48 131.29 175.10 130.31 174.87 129.33 L 174.66 128.39 C 174.43 127.41 173.45 126.79 172.47 127.02 C 171.48 127.24 170.87 128.22 171.09 129.20 Z M 171.30 130.13 L 171.51 131.09 C 171.73 132.08 172.70 132.70 173.69 132.49 C 174.68 132.27 175.31 131.29 175.09 130.31 L 174.88 129.34 C 174.66 128.36 173.69 127.73 172.70 127.95 C 171.71 128.16 171.09 129.14 171.30 130.13 Z M 171.51 131.07 L 171.71 132.06 C 171.92 133.05 172.89 133.68 173.89 133.48 C 174.88 133.27 175.51 132.29 175.30 131.30 L 175.10 130.32 C 174.89 129.33 173.91 128.69 172.92 128.90 C 171.93 129.11 171.30 130.08 171.51 131.07 Z M 171.71 132.05 L 171.91 133.06 C 172.11 134.05 173.08 134.69 174.08 134.49 C 175.07 134.29 175.72 133.32 175.51 132.32 L 175.31 131.32 C 175.11 130.32 174.14 129.68 173.14 129.88 C 172.15 130.08 171.51 131.05 171.71 132.05 Z M 171.91 133.05 L 172.11 134.08 C 172.31 135.08 173.27 135.72 174.27 135.53 C 175.27 135.33 175.92 134.36 175.72 133.37 L 175.52 132.33 C 175.32 131.34 174.35 130.69 173.36 130.88 C 172.36 131.08 171.71 132.05 171.91 133.05 Z M 172.10 134.07 L 172.30 135.07 C 172.49 136.07 173.46 136.72 174.46 136.53 C 175.46 136.34 176.11 135.37 175.92 134.37 L 175.73 133.37 C 175.54 132.37 174.57 131.72 173.57 131.91 C 172.57 132.10 171.91 133.07 172.10 134.07 Z M 172.29 135.06 L 172.47 136.03 C 172.66 137.03 173.63 137.69 174.63 137.50 C 175.63 137.31 176.29 136.35 176.11 135.34 L 175.92 134.38 C 175.74 133.37 174.77 132.71 173.77 132.90 C 172.76 133.09 172.10 134.06 172.29 135.06 Z M 172.47 136.02 L 172.65 137.00 C 172.83 138.00 173.80 138.67 174.80 138.49 C 175.81 138.30 176.47 137.34 176.29 136.33 L 176.11 135.35 C 175.93 134.35 174.96 133.68 173.96 133.86 C 172.95 134.05 172.29 135.01 172.47 136.02 Z M 172.64 136.99 L 172.82 137.98 C 173.00 138.99 173.96 139.66 174.97 139.48 C 175.98 139.30 176.65 138.34 176.47 137.33 L 176.29 136.34 C 176.11 135.33 175.15 134.66 174.14 134.84 C 173.14 135.02 172.46 135.98 172.64 136.99 Z M 172.81 137.97 L 172.99 138.97 C 173.16 139.98 174.12 140.66 175.13 140.48 C 176.14 140.31 176.82 139.35 176.65 138.34 L 176.47 137.34 C 176.30 136.33 175.34 135.65 174.33 135.83 C 173.32 136.00 172.64 136.96 172.81 137.97 Z M 172.98 138.96 L 173.15 139.95 C 173.31 140.97 174.27 141.65 175.28 141.49 C 176.30 141.32 176.98 140.36 176.82 139.35 L 176.65 138.35 C 176.48 137.34 175.53 136.65 174.51 136.82 C 173.50 136.99 172.81 137.94 172.98 138.96 Z M 173.14 139.94 L 173.30 140.94 C 173.46 141.95 174.41 142.65 175.43 142.48 C 176.44 142.32 177.14 141.37 176.98 140.35 L 176.82 139.36 C 176.66 138.34 175.71 137.65 174.69 137.81 C 173.67 137.97 172.98 138.92 173.14 139.94 Z M 173.29 140.92 L 173.44 141.92 C 173.59 142.94 174.54 143.64 175.56 143.49 C 176.58 143.33 177.28 142.38 177.13 141.36 L 176.98 140.37 C 176.83 139.35 175.88 138.65 174.86 138.80 C 173.84 138.95 173.14 139.90 173.29 140.92 Z M 173.44 141.90 L 173.58 142.91 C 173.72 143.93 174.67 144.64 175.69 144.50 C 176.71 144.35 177.42 143.41 177.28 142.39 L 177.14 141.38 C 176.99 140.36 176.05 139.65 175.03 139.79 C 174.00 139.93 173.29 140.88 173.44 141.90 Z M 173.57 142.89 L 173.71 143.89 C 173.84 144.92 174.78 145.64 175.81 145.50 C 176.83 145.37 177.55 144.43 177.42 143.40 L 177.28 142.40 C 177.15 141.38 176.21 140.66 175.18 140.79 C 174.16 140.93 173.44 141.87 173.57 142.89 Z M 173.70 143.88 L 173.82 144.87 C 173.95 145.90 174.89 146.63 175.91 146.50 C 176.94 146.37 177.67 145.43 177.54 144.41 L 177.42 143.42 C 177.29 142.39 176.36 141.66 175.33 141.79 C 174.30 141.91 173.57 142.85 173.70 143.88 Z M 173.82 144.86 L 173.93 145.84 C 174.05 146.87 174.99 147.61 176.02 147.49 C 177.05 147.37 177.78 146.44 177.66 145.41 L 177.55 144.42 C 177.43 143.39 176.50 142.65 175.47 142.77 C 174.44 142.89 173.70 143.83 173.82 144.86 Z M 173.93 145.83 L 174.04 146.82 C 174.15 147.85 175.08 148.59 176.11 148.48 C 177.14 148.37 177.89 147.44 177.78 146.41 L 177.67 145.42 C 177.55 144.39 176.63 143.65 175.59 143.76 C 174.56 143.87 173.82 144.80 173.93 145.83 Z M 174.03 146.80 L 174.14 147.79 C 174.24 148.82 175.17 149.58 176.20 149.47 C 177.23 149.36 177.99 148.44 177.88 147.40 L 177.78 146.42 C 177.67 145.39 176.75 144.63 175.71 144.74 C 174.68 144.85 173.93 145.77 174.03 146.80 Z M 174.13 147.78 L 174.23 148.76 C 174.33 149.80 175.25 150.56 176.28 150.46 C 177.32 150.36 178.08 149.44 177.98 148.40 L 177.88 147.42 C 177.78 146.38 176.86 145.62 175.83 145.72 C 174.79 145.82 174.03 146.74 174.13 147.78 Z M 174.22 148.75 L 174.31 149.74 C 174.41 150.78 175.33 151.55 176.36 151.45 C 177.40 151.36 178.17 150.44 178.07 149.40 L 177.98 148.41 C 177.89 147.37 176.97 146.61 175.93 146.70 C 174.89 146.80 174.13 147.72 174.22 148.75 Z M 174.31 149.73 L 174.39 150.72 C 174.48 151.76 175.40 152.54 176.44 152.45 C 177.48 152.36 178.25 151.45 178.16 150.41 L 178.08 149.41 C 177.99 148.37 177.07 147.60 176.03 147.69 C 174.99 147.78 174.22 148.69 174.31 149.73 Z M 174.39 150.71 L 174.47 151.71 C 174.55 152.75 175.46 153.53 176.50 153.45 C 177.54 153.37 178.32 152.46 178.24 151.41 L 178.16 150.42 C 178.08 149.38 177.17 148.60 176.13 148.68 C 175.09 148.76 174.31 149.67 174.39 150.71 Z M 174.46 151.70 L 174.54 152.69 C 174.61 153.74 175.52 154.52 176.56 154.45 C 177.60 154.37 178.39 153.47 178.32 152.42 L 178.24 151.43 C 178.17 150.38 177.26 149.60 176.22 149.67 C 175.18 149.75 174.39 150.65 174.46 151.70 Z M 174.53 152.68 L 174.60 153.68 C 174.66 154.73 175.57 155.52 176.61 155.45 C 177.66 155.39 178.45 154.48 178.38 153.44 L 178.32 152.44 C 178.25 151.39 177.35 150.60 176.30 150.67 C 175.26 150.73 174.47 151.63 174.53 152.68 Z M 174.59 153.67 L 174.65 154.67 C 174.71 155.72 175.61 156.52 176.65 156.46 C 177.70 156.40 178.50 155.50 178.44 154.46 L 178.39 153.45 C 178.33 152.40 177.43 151.60 176.38 151.66 C 175.34 151.72 174.53 152.62 174.59 153.67 Z M 174.65 154.66 L 174.70 155.66 C 174.75 156.71 175.64 157.52 176.69 157.47 C 177.74 157.42 178.55 156.52 178.50 155.47 L 178.45 154.47 C 178.40 153.42 177.50 152.61 176.45 152.66 C 175.40 152.71 174.60 153.61 174.65 154.66 Z M 174.69 155.65 L 174.73 156.65 C 174.78 157.70 175.66 158.51 176.72 158.47 C 177.77 158.43 178.58 157.54 178.54 156.49 L 178.50 155.49 C 178.46 154.44 177.57 153.62 176.52 153.66 C 175.47 153.71 174.65 154.59 174.69 155.65 Z M 174.73 156.63 L 174.77 157.64 C 174.80 158.69 175.68 159.51 176.74 159.48 C 177.79 159.44 178.61 158.56 178.58 157.51 L 178.54 156.50 C 178.51 155.45 177.62 154.63 176.57 154.66 C 175.52 154.70 174.70 155.58 174.73 156.63 Z M 174.76 157.62 L 174.79 158.63 C 174.82 159.68 175.70 160.51 176.75 160.48 C 177.81 160.45 178.64 159.57 178.61 158.52 L 178.58 157.52 C 178.55 156.46 177.67 155.63 176.62 155.66 C 175.56 155.69 174.73 156.57 174.76 157.62 Z M 174.79 158.62 L 174.81 159.62 C 174.84 160.67 175.71 161.51 176.76 161.48 C 177.82 161.46 178.65 160.59 178.63 159.53 L 178.61 158.53 C 178.58 157.48 177.71 156.64 176.66 156.66 C 175.60 156.69 174.77 157.56 174.79 158.62 Z M 174.81 159.61 L 174.83 160.61 C 174.85 161.66 175.72 162.50 176.77 162.49 C 177.83 162.47 178.67 161.60 178.65 160.54 L 178.63 159.54 C 178.61 158.49 177.74 157.65 176.69 157.66 C 175.63 157.68 174.79 158.55 174.81 159.61 Z M 174.83 160.60 L 174.84 161.60 C 174.85 162.65 175.72 163.50 176.78 163.48 C 177.84 163.47 178.68 162.60 178.67 161.54 L 178.65 160.55 C 178.64 159.49 177.77 158.65 176.71 158.66 C 175.66 158.68 174.81 159.54 174.83 160.60 Z M 174.84 161.59 L 174.85 162.59 C 174.86 163.65 175.73 164.49 176.78 164.48 C 177.84 164.47 178.69 163.61 178.68 162.55 L 178.67 161.55 C 178.66 160.49 177.79 159.64 176.73 159.66 C 175.68 159.67 174.83 160.53 174.84 161.59 Z M 174.85 162.58 L 174.85 163.61 C 174.86 164.66 175.73 165.51 176.79 165.51 C 177.84 165.50 178.70 164.63 178.69 163.58 L 178.68 162.55 C 178.67 161.50 177.81 160.64 176.75 160.65 C 175.69 160.66 174.84 161.52 174.85 162.58 Z M 174.85 163.60 L 174.86 164.62 C 174.86 165.68 175.73 166.53 176.79 166.52 C 177.85 166.52 178.70 165.65 178.69 164.59 L 178.69 163.58 C 178.68 162.52 177.82 161.67 176.76 161.67 C 175.70 161.68 174.85 162.54 174.85 163.60 Z M 174.86 164.61 L 174.86 165.62 C 174.86 166.68 175.73 167.54 176.79 167.53 C 177.85 167.53 178.70 166.67 178.70 165.61 L 178.70 164.60 C 178.69 163.54 177.83 162.68 176.77 162.69 C 175.71 162.69 174.85 163.55 174.86 164.61 Z M 174.86 165.62 L 174.86 166.62 C 174.86 167.68 175.73 168.54 176.79 168.53 C 177.85 168.53 178.71 167.67 178.70 166.61 L 178.70 165.61 C 178.70 164.55 177.84 163.69 176.78 163.69 C 175.71 163.69 174.86 164.56 174.86 165.62 Z M 174.86 166.61 L 174.86 167.61 C 174.86 168.67 175.72 169.53 176.79 169.53 C 177.85 169.52 178.71 168.66 178.71 167.60 L 178.70 166.61 C 178.70 165.55 177.84 164.69 176.78 164.69 C 175.72 164.69 174.86 165.55 174.86 166.61 Z M 174.86 167.60 L 174.86 168.58 C 174.86 169.65 175.72 170.51 176.78 170.51 C 177.85 170.51 178.71 169.65 178.71 168.58 L 178.71 167.60 C 178.71 166.54 177.85 165.68 176.78 165.68 C 175.72 165.68 174.86 166.54 174.86 167.60 Z M 174.86 168.58 L 174.86 169.57 C 174.86 170.64 175.72 171.50 176.78 171.50 C 177.85 171.50 178.71 170.64 178.71 169.57 L 178.71 168.58 C 178.71 167.52 177.85 166.66 176.78 166.66 C 175.72 166.66 174.86 167.52 174.86 168.58 Z M 174.86 169.57 L 174.86 170.59 C 174.86 171.65 175.72 172.52 176.78 172.52 C 177.85 172.52 178.71 171.66 178.71 170.59 L 178.71 169.57 C 178.71 168.51 177.85 167.65 176.78 167.65 C 175.72 167.65 174.86 168.51 174.86 169.57 Z M 174.85 170.59 L 174.85 171.59 C 174.85 172.66 175.71 173.52 176.78 173.53 C 177.84 173.53 178.71 172.67 178.71 171.60 L 178.71 170.59 C 178.71 169.53 177.85 168.66 176.79 168.66 C 175.72 168.66 174.86 169.52 174.85 170.59 Z M 174.85 171.59 L 174.85 172.59 C 174.84 173.65 175.70 174.52 176.76 174.53 C 177.83 174.53 178.70 173.67 178.70 172.61 L 178.71 171.61 C 178.72 170.54 177.86 169.67 176.79 169.67 C 175.73 169.66 174.86 170.52 174.85 171.59 Z M 174.84 172.58 L 174.83 173.57 C 174.82 174.63 175.68 175.51 176.74 175.52 C 177.81 175.53 178.68 174.68 178.69 173.61 L 178.70 172.62 C 178.72 171.55 177.86 170.68 176.80 170.67 C 175.73 170.65 174.86 171.51 174.84 172.58 Z M 174.83 173.56 L 174.81 174.54 C 174.80 175.61 175.65 176.49 176.71 176.51 C 177.78 176.53 178.66 175.68 178.68 174.61 L 178.69 173.62 C 178.71 172.56 177.86 171.68 176.80 171.66 C 175.73 171.64 174.85 172.49 174.83 173.56 Z M 174.81 174.53 L 174.79 175.52 C 174.76 176.58 175.60 177.47 176.67 177.50 C 177.74 177.52 178.63 176.68 178.65 175.61 L 178.68 174.63 C 178.71 173.56 177.86 172.67 176.80 172.65 C 175.73 172.62 174.84 173.46 174.81 174.53 Z M 174.79 175.50 L 174.75 176.54 C 174.71 177.61 175.55 178.51 176.62 178.54 C 177.68 178.58 178.58 177.75 178.62 176.68 L 178.65 175.63 C 178.69 174.57 177.86 173.67 176.79 173.63 C 175.72 173.60 174.83 174.43 174.79 175.50 Z M 174.75 176.52 L 174.70 177.57 C 174.65 178.64 175.48 179.54 176.55 179.59 C 177.61 179.64 178.52 178.82 178.57 177.75 L 178.62 176.70 C 178.67 175.63 177.84 174.73 176.77 174.68 C 175.71 174.63 174.80 175.46 174.75 176.52 Z M 174.70 177.55 L 174.64 178.58 C 174.58 179.64 175.40 180.56 176.46 180.62 C 177.53 180.68 178.45 179.87 178.51 178.80 L 178.57 177.77 C 178.63 176.70 177.81 175.79 176.75 175.73 C 175.68 175.67 174.76 176.48 174.70 177.55 Z M 174.64 178.55 L 174.57 179.55 C 174.50 180.62 175.30 181.54 176.37 181.62 C 177.44 181.69 178.36 180.89 178.44 179.82 L 178.51 178.82 C 178.58 177.76 177.78 176.83 176.71 176.76 C 175.65 176.68 174.72 177.48 174.64 178.55 Z M 174.58 179.52 L 174.49 180.49 C 174.40 181.55 175.20 182.49 176.26 182.58 C 177.33 182.67 178.27 181.88 178.36 180.81 L 178.44 179.85 C 178.53 178.78 177.73 177.85 176.67 177.76 C 175.60 177.67 174.67 178.46 174.58 179.52 Z M 174.50 180.45 L 174.40 181.37 C 174.30 182.43 175.07 183.38 176.14 183.49 C 177.20 183.60 178.15 182.82 178.26 181.76 L 178.35 180.84 C 178.46 179.78 177.68 178.83 176.62 178.72 C 175.55 178.61 174.60 179.39 174.50 180.45 Z M 174.41 181.33 L 174.28 182.35 C 174.15 183.42 174.91 184.38 175.97 184.51 C 177.04 184.64 178.00 183.89 178.13 182.82 L 178.26 181.80 C 178.39 180.74 177.63 179.77 176.57 179.64 C 175.50 179.51 174.54 180.27 174.41 181.33 Z M 174.29 182.30 L 174.14 183.29 C 173.99 184.35 174.72 185.34 175.78 185.49 C 176.84 185.65 177.82 184.92 177.98 183.86 L 178.13 182.87 C 178.28 181.81 177.55 180.83 176.49 180.67 C 175.43 180.51 174.45 181.24 174.29 182.30 Z M 174.15 183.24 L 173.98 184.20 C 173.80 185.25 174.51 186.26 175.56 186.44 C 176.62 186.63 177.62 185.92 177.81 184.87 L 177.97 183.91 C 178.16 182.85 177.45 181.85 176.39 181.66 C 175.34 181.48 174.33 182.19 174.15 183.24 Z M 173.99 184.15 L 173.80 185.11 C 173.59 186.16 174.28 187.18 175.33 187.39 C 176.38 187.60 177.40 186.92 177.61 185.87 L 177.80 184.91 C 178.01 183.86 177.32 182.84 176.27 182.63 C 175.22 182.42 174.20 183.10 173.99 184.15 Z M 173.81 185.07 L 173.59 186.06 C 173.36 187.11 174.03 188.14 175.08 188.37 C 176.12 188.60 177.16 187.93 177.39 186.89 L 177.60 185.90 C 177.83 184.86 177.17 183.82 176.12 183.59 C 175.07 183.36 174.04 184.03 173.81 185.07 Z M 173.60 186.03 L 173.37 187.00 C 173.13 188.05 173.78 189.09 174.82 189.33 C 175.87 189.58 176.91 188.93 177.15 187.88 L 177.38 186.91 C 177.62 185.87 176.97 184.83 175.93 184.58 C 174.89 184.34 173.84 184.99 173.60 186.03 Z M 173.38 186.97 L 173.13 187.97 C 172.87 189.01 173.51 190.06 174.55 190.32 C 175.59 190.58 176.64 189.95 176.90 188.90 L 177.15 187.91 C 177.41 186.87 176.77 185.82 175.73 185.56 C 174.69 185.30 173.64 185.93 173.38 186.97 Z M 173.14 187.93 L 172.87 188.92 C 172.59 189.96 173.21 191.02 174.24 191.30 C 175.28 191.58 176.34 190.97 176.62 189.94 L 176.89 188.94 C 177.17 187.91 176.56 186.84 175.52 186.56 C 174.49 186.28 173.42 186.89 173.14 187.93 Z M 172.89 188.88 L 172.60 189.85 C 172.30 190.87 172.88 191.95 173.91 192.26 C 174.94 192.56 176.02 191.98 176.32 190.95 L 176.61 189.98 C 176.91 188.95 176.33 187.87 175.30 187.57 C 174.27 187.26 173.19 187.85 172.89 188.88 Z M 172.62 189.79 L 172.31 190.70 C 171.98 191.72 172.53 192.82 173.55 193.16 C 174.56 193.49 175.66 192.94 176.00 191.92 L 176.30 191.01 C 176.64 189.99 176.09 188.89 175.07 188.55 C 174.05 188.22 172.96 188.77 172.62 189.79 Z M 172.35 190.60 L 171.93 191.68 C 171.54 192.68 172.03 193.80 173.03 194.19 C 174.03 194.58 175.15 194.09 175.54 193.09 L 175.97 192.02 C 176.36 191.02 175.86 189.90 174.87 189.51 C 173.87 189.11 172.74 189.61 172.35 190.60 Z M 172.02 191.48 L 171.51 192.44 C 171.01 193.39 171.37 194.56 172.32 195.06 C 173.27 195.56 174.44 195.20 174.94 194.25 L 175.45 193.29 C 175.95 192.35 175.59 191.17 174.64 190.67 C 173.70 190.17 172.52 190.53 172.02 191.48 Z M 171.76 192.08 L 171.16 192.77 C 170.47 193.59 170.56 194.81 171.38 195.51 C 172.19 196.21 173.41 196.11 174.11 195.30 L 174.70 194.61 C 175.40 193.79 175.30 192.57 174.49 191.87 C 173.68 191.18 172.45 191.27 171.76 192.08 Z M 171.75 192.32 L 171.04 192.68 C 170.09 193.17 169.72 194.34 170.21 195.29 C 170.70 196.24 171.87 196.62 172.82 196.12 L 173.53 195.76 C 174.48 195.27 174.85 194.10 174.36 193.15 C 173.87 192.20 172.70 191.82 171.75 192.32 Z M 171.89 192.47 L 171.08 192.49 C 170.01 192.51 169.16 193.39 169.19 194.46 C 169.21 195.53 170.09 196.37 171.16 196.35 L 171.97 196.33 C 173.04 196.31 173.88 195.43 173.86 194.36 C 173.84 193.30 172.96 192.45 171.89 192.47 Z M 171.63 192.57 L 170.71 192.31 C 169.69 192.03 168.63 192.63 168.35 193.65 C 168.06 194.67 168.66 195.73 169.69 196.02 L 170.60 196.27 C 171.63 196.55 172.69 195.96 172.97 194.93 C 173.25 193.91 172.65 192.85 171.63 192.57 Z M 170.98 192.42 L 169.99 191.98 C 169.03 191.54 167.90 191.98 167.47 192.94 C 167.03 193.90 167.46 195.03 168.43 195.46 L 169.42 195.91 C 170.38 196.34 171.51 195.91 171.94 194.95 C 172.38 193.98 171.95 192.85 170.98 192.42 Z M 170.10 192.05 L 169.10 191.51 C 168.18 191.02 167.03 191.37 166.54 192.29 C 166.04 193.21 166.39 194.36 167.31 194.86 L 168.32 195.39 C 169.24 195.89 170.39 195.54 170.88 194.61 C 171.37 193.69 171.03 192.54 170.10 192.05 Z M 169.13 191.57 L 168.23 191.06 C 167.34 190.56 166.21 190.87 165.70 191.76 C 165.19 192.64 165.50 193.78 166.39 194.28 L 167.29 194.80 C 168.18 195.30 169.31 194.99 169.82 194.10 C 170.33 193.21 170.02 192.08 169.13 191.57 Z M 168.23 191.13 L 167.34 190.61 C 166.49 190.10 165.39 190.38 164.88 191.23 C 164.38 192.08 164.66 193.18 165.51 193.69 L 166.39 194.21 C 167.24 194.72 168.34 194.44 168.85 193.59 C 169.36 192.74 169.08 191.64 168.23 191.13 Z M 167.33 190.68 L 166.48 190.15 C 165.67 189.65 164.60 189.90 164.10 190.71 C 163.60 191.52 163.85 192.59 164.66 193.09 L 165.51 193.62 C 166.33 194.12 167.39 193.87 167.89 193.06 C 168.40 192.24 168.15 191.18 167.33 190.68 Z M 166.47 190.22 L 165.67 189.70 C 164.90 189.21 163.87 189.43 163.37 190.21 C 162.87 190.98 163.10 192.01 163.87 192.51 L 164.67 193.02 C 165.45 193.52 166.48 193.29 166.97 192.52 C 167.47 191.74 167.25 190.71 166.47 190.22 Z M 165.67 189.76 L 164.80 189.18 C 164.06 188.68 163.06 188.88 162.56 189.62 C 162.06 190.36 162.26 191.37 163.00 191.86 L 163.87 192.45 C 164.62 192.95 165.62 192.75 166.12 192.01 C 166.61 191.27 166.41 190.26 165.67 189.76 Z M 164.81 189.23 L 163.99 188.65 C 163.28 188.15 162.29 188.32 161.79 189.03 C 161.29 189.74 161.46 190.73 162.17 191.23 L 162.99 191.81 C 163.70 192.32 164.69 192.15 165.19 191.43 C 165.69 190.72 165.52 189.73 164.81 189.23 Z M 164.00 188.70 L 163.23 188.13 C 162.55 187.62 161.58 187.77 161.07 188.45 C 160.56 189.14 160.71 190.11 161.39 190.61 L 162.16 191.18 C 162.85 191.69 163.81 191.55 164.32 190.86 C 164.83 190.18 164.69 189.21 164.00 188.70 Z M 163.24 188.17 L 162.48 187.59 C 161.82 187.08 160.87 187.20 160.36 187.87 C 159.85 188.53 159.97 189.48 160.63 189.99 L 161.39 190.57 C 162.05 191.08 163.00 190.96 163.51 190.30 C 164.02 189.63 163.90 188.68 163.24 188.17 Z M 162.49 187.62 L 161.73 187.02 C 161.08 186.50 160.14 186.61 159.63 187.26 C 159.11 187.91 159.22 188.85 159.87 189.36 L 160.63 189.97 C 161.28 190.48 162.22 190.37 162.73 189.72 C 163.25 189.07 163.14 188.13 162.49 187.62 Z M 161.74 187.04 L 160.96 186.41 C 160.33 185.89 159.39 185.98 158.87 186.62 C 158.35 187.25 158.45 188.19 159.08 188.71 L 159.86 189.34 C 160.50 189.86 161.43 189.77 161.95 189.13 C 162.47 188.49 162.37 187.56 161.74 187.04 Z M 160.97 186.43 L 160.18 185.76 C 159.56 185.24 158.63 185.32 158.10 185.94 C 157.58 186.57 157.66 187.50 158.28 188.02 L 159.07 188.69 C 159.70 189.21 160.63 189.13 161.15 188.51 C 161.68 187.88 161.59 186.95 160.97 186.43 Z M 160.19 185.79 L 159.45 185.14 C 158.83 184.61 157.91 184.67 157.38 185.29 C 156.85 185.90 156.91 186.82 157.53 187.35 L 158.27 188.00 C 158.88 188.53 159.81 188.46 160.34 187.85 C 160.87 187.24 160.80 186.32 160.19 185.79 Z M 159.46 185.16 L 158.72 184.50 C 158.12 183.97 157.20 184.02 156.66 184.62 C 156.13 185.22 156.18 186.14 156.78 186.68 L 157.51 187.33 C 158.11 187.87 159.04 187.82 159.57 187.22 C 160.11 186.62 160.06 185.70 159.46 185.16 Z M 158.73 184.52 L 158.00 183.84 C 157.41 183.30 156.49 183.33 155.95 183.92 C 155.40 184.51 155.44 185.43 156.03 185.97 L 156.77 186.66 C 157.36 187.20 158.27 187.16 158.82 186.57 C 159.36 185.98 159.32 185.07 158.73 184.52 Z M 158.01 183.86 L 157.27 183.15 C 156.69 182.60 155.78 182.62 155.22 183.20 C 154.67 183.78 154.69 184.69 155.27 185.24 L 156.01 185.95 C 156.59 186.50 157.50 186.48 158.06 185.90 C 158.61 185.33 158.58 184.41 158.01 183.86 Z M 157.28 183.17 L 156.59 182.49 C 156.02 181.93 155.11 181.94 154.56 182.51 C 154.00 183.07 154.00 183.98 154.57 184.54 L 155.26 185.22 C 155.82 185.78 156.73 185.77 157.29 185.21 C 157.85 184.64 157.85 183.73 157.28 183.17 Z M 156.60 182.51 L 155.92 181.81 C 155.36 181.25 154.45 181.24 153.89 181.80 C 153.32 182.35 153.32 183.26 153.87 183.83 L 154.55 184.52 C 155.11 185.09 156.02 185.10 156.59 184.54 C 157.15 183.98 157.16 183.08 156.60 182.51 Z M 155.93 181.83 L 155.24 181.11 C 154.69 180.53 153.78 180.52 153.21 181.06 C 152.64 181.61 152.62 182.52 153.17 183.09 L 153.86 183.81 C 154.41 184.38 155.32 184.40 155.89 183.86 C 156.46 183.31 156.48 182.40 155.93 181.83 Z M 155.25 181.12 L 154.54 180.37 C 154.00 179.79 153.09 179.76 152.52 180.30 C 151.94 180.84 151.91 181.75 152.45 182.32 L 153.16 183.08 C 153.70 183.65 154.61 183.68 155.18 183.14 C 155.76 182.60 155.79 181.70 155.25 181.12 Z M 154.55 180.38 L 153.86 179.63 C 153.33 179.05 152.42 179.01 151.84 179.55 C 151.26 180.08 151.22 180.99 151.76 181.57 L 152.44 182.31 C 152.98 182.89 153.88 182.93 154.46 182.40 C 155.05 181.86 155.08 180.96 154.55 180.38 Z M 153.87 179.64 L 153.20 178.91 C 152.67 178.32 151.77 178.28 151.19 178.81 C 150.60 179.34 150.56 180.24 151.09 180.83 L 151.75 181.56 C 152.28 182.14 153.19 182.19 153.77 181.66 C 154.35 181.13 154.40 180.23 153.87 179.64 Z M 153.21 178.92 L 152.54 178.16 C 152.02 177.58 151.11 177.52 150.53 178.05 C 149.94 178.57 149.88 179.48 150.41 180.06 L 151.08 180.82 C 151.60 181.40 152.51 181.46 153.09 180.93 C 153.68 180.41 153.74 179.51 153.21 178.92 Z M 152.55 178.18 L 151.88 177.41 C 151.37 176.82 150.46 176.76 149.87 177.28 C 149.28 177.80 149.22 178.70 149.73 179.29 L 150.40 180.05 C 150.92 180.65 151.82 180.71 152.41 180.19 C 153.01 179.67 153.07 178.77 152.55 178.18 Z M 151.89 177.43 L 151.24 176.66 C 150.73 176.06 149.83 175.99 149.23 176.50 C 148.63 177.01 148.56 177.91 149.07 178.51 L 149.72 179.28 C 150.24 179.88 151.14 179.95 151.73 179.44 C 152.33 178.93 152.41 178.03 151.89 177.43 Z M 151.25 176.68 L 150.60 175.89 C 150.10 175.29 149.20 175.20 148.60 175.71 C 147.99 176.21 147.91 177.11 148.41 177.71 L 149.06 178.50 C 149.56 179.10 150.46 179.19 151.07 178.68 C 151.67 178.18 151.76 177.28 151.25 176.68 Z M 150.61 175.91 L 149.98 175.12 C 149.49 174.51 148.59 174.41 147.98 174.91 C 147.36 175.40 147.27 176.30 147.76 176.91 L 148.40 177.70 C 148.89 178.31 149.79 178.41 150.40 177.91 C 151.01 177.42 151.11 176.52 150.61 175.91 Z M 149.99 175.13 L 149.37 174.35 C 148.88 173.74 147.98 173.63 147.37 174.12 C 146.75 174.61 146.65 175.51 147.14 176.12 L 147.76 176.90 C 148.24 177.52 149.14 177.62 149.76 177.13 C 150.37 176.65 150.48 175.75 149.99 175.13 Z M 149.38 174.36 L 148.77 173.58 C 148.28 172.96 147.38 172.85 146.77 173.34 C 146.15 173.82 146.04 174.72 146.52 175.34 L 147.13 176.12 C 147.62 176.74 148.51 176.84 149.13 176.36 C 149.75 175.87 149.86 174.98 149.38 174.36 Z M 148.77 173.58 L 148.27 172.95 C 147.79 172.33 146.90 172.22 146.27 172.70 C 145.65 173.18 145.54 174.08 146.03 174.70 L 146.52 175.33 C 147.00 175.96 147.90 176.07 148.52 175.58 C 149.14 175.10 149.25 174.20 148.77 173.58 Z"
      fill="black"
      fill-rule="nonzero" /><path d="M 135.78 139.66 L 135.68 140.63 C 135.58 141.50 136.22 142.29 137.09 142.38 C 137.97 142.47 138.75 141.84 138.84 140.96 L 138.94 139.99 C 139.03 139.12 138.40 138.34 137.53 138.24 C 136.65 138.15 135.87 138.79 135.78 139.66 Z M 135.67 140.65 L 135.58 141.63 C 135.50 142.51 136.15 143.29 137.02 143.37 C 137.90 143.45 138.68 142.80 138.76 141.92 L 138.85 140.94 C 138.93 140.06 138.28 139.29 137.40 139.21 C 136.53 139.13 135.75 139.77 135.67 140.65 Z M 135.57 141.67 L 135.51 142.68 C 135.45 143.56 136.12 144.32 137.00 144.38 C 137.88 144.44 138.64 143.77 138.70 142.89 L 138.76 141.88 C 138.82 141.00 138.16 140.24 137.27 140.18 C 136.39 140.12 135.63 140.79 135.57 141.67 Z M 135.50 142.74 L 135.47 143.77 C 135.44 144.65 136.14 145.39 137.02 145.42 C 137.91 145.44 138.65 144.75 138.67 143.86 L 138.70 142.83 C 138.73 141.95 138.03 141.21 137.15 141.18 C 136.27 141.15 135.53 141.85 135.50 142.74 Z M 135.47 143.83 L 135.48 144.85 C 135.49 145.73 136.22 146.44 137.10 146.43 C 137.99 146.42 138.70 145.70 138.69 144.81 L 138.68 143.80 C 138.67 142.91 137.94 142.20 137.05 142.21 C 136.17 142.22 135.46 142.95 135.47 143.83 Z M 135.48 144.91 L 135.54 145.93 C 135.58 146.82 136.34 147.50 137.22 147.45 C 138.11 147.40 138.78 146.65 138.74 145.76 L 138.68 144.74 C 138.64 143.86 137.88 143.18 137.00 143.23 C 136.11 143.27 135.44 144.03 135.48 144.91 Z M 135.54 146.01 L 135.64 147.00 C 135.73 147.88 136.51 148.53 137.39 148.44 C 138.27 148.35 138.92 147.57 138.83 146.69 L 138.73 145.69 C 138.64 144.81 137.86 144.17 136.98 144.25 C 136.10 144.34 135.45 145.13 135.54 146.01 Z M 135.65 147.09 L 135.80 148.05 C 135.94 148.92 136.75 149.52 137.63 149.39 C 138.50 149.25 139.10 148.43 138.97 147.56 L 138.82 146.60 C 138.68 145.73 137.86 145.13 136.99 145.26 C 136.12 145.40 135.52 146.22 135.65 147.09 Z M 135.83 148.16 L 136.06 149.16 C 136.26 150.02 137.12 150.55 137.97 150.35 C 138.83 150.15 139.36 149.30 139.17 148.44 L 138.94 147.44 C 138.74 146.59 137.88 146.05 137.02 146.25 C 136.17 146.45 135.63 147.31 135.83 148.16 Z M 136.12 149.29 L 136.42 150.22 C 136.69 151.05 137.58 151.50 138.41 151.23 C 139.24 150.96 139.69 150.07 139.42 149.24 L 139.11 148.31 C 138.84 147.48 137.95 147.03 137.12 147.30 C 136.30 147.57 135.85 148.47 136.12 149.29 Z M 136.49 150.35 L 136.88 151.25 C 137.22 152.05 138.14 152.41 138.93 152.07 C 139.72 151.73 140.08 150.81 139.74 150.02 L 139.35 149.11 C 139.01 148.32 138.09 147.96 137.30 148.30 C 136.51 148.64 136.15 149.56 136.49 150.35 Z M 136.95 151.36 L 137.41 152.24 C 137.81 152.99 138.75 153.28 139.50 152.88 C 140.26 152.48 140.54 151.55 140.14 150.79 L 139.67 149.91 C 139.27 149.16 138.34 148.87 137.59 149.27 C 136.83 149.67 136.55 150.61 136.95 151.36 Z M 137.48 152.33 L 138.02 153.19 C 138.47 153.90 139.41 154.12 140.13 153.67 C 140.84 153.23 141.06 152.28 140.61 151.57 L 140.07 150.71 C 139.62 149.99 138.68 149.78 137.97 150.22 C 137.25 150.67 137.04 151.61 137.48 152.33 Z M 138.10 153.27 L 138.70 154.09 C 139.20 154.76 140.14 154.90 140.81 154.41 C 141.48 153.91 141.63 152.97 141.13 152.30 L 140.53 151.48 C 140.04 150.81 139.09 150.67 138.42 151.16 C 137.75 151.66 137.61 152.60 138.10 153.27 Z M 138.80 154.18 L 139.45 154.91 C 140.00 155.53 140.94 155.59 141.56 155.04 C 142.17 154.49 142.23 153.55 141.68 152.94 L 141.03 152.20 C 140.49 151.59 139.55 151.53 138.93 152.08 C 138.31 152.63 138.26 153.57 138.80 154.18 Z M 139.59 155.02 L 140.36 155.72 C 140.97 156.26 141.90 156.20 142.44 155.60 C 142.98 154.99 142.93 154.06 142.32 153.52 L 141.55 152.83 C 140.94 152.28 140.01 152.34 139.47 152.94 C 138.93 153.55 138.98 154.48 139.59 155.02 Z M 140.49 155.80 L 141.30 156.38 C 141.96 156.85 142.87 156.70 143.33 156.04 C 143.80 155.39 143.65 154.48 143.00 154.01 L 142.19 153.43 C 141.54 152.96 140.63 153.11 140.16 153.77 C 139.69 154.42 139.84 155.33 140.49 155.80 Z M 141.39 156.42 L 142.21 156.93 C 142.89 157.35 143.77 157.14 144.19 156.47 C 144.62 155.80 144.41 154.91 143.73 154.49 L 142.91 153.97 C 142.24 153.55 141.35 153.76 140.93 154.43 C 140.51 155.11 140.71 156.00 141.39 156.42 Z M 142.24 156.93 L 142.45 157.06 C 143.12 157.46 144.00 157.25 144.41 156.57 C 144.81 155.89 144.59 155.02 143.92 154.61 L 143.71 154.48 C 143.03 154.08 142.16 154.30 141.75 154.97 C 141.34 155.65 141.56 156.53 142.24 156.93 Z"
      fill="black"
      fill-rule="nonzero" /><path d="M 141.96 140.67 L 141.60 139.62 C 141.33 138.83 140.48 138.41 139.69 138.68 C 138.91 138.94 138.49 139.80 138.76 140.58 L 139.11 141.63 C 139.38 142.42 140.23 142.84 141.02 142.57 C 141.81 142.30 142.23 141.45 141.96 140.67 Z M 141.66 139.79 L 141.45 138.80 C 141.27 137.98 140.47 137.46 139.66 137.63 C 138.84 137.81 138.32 138.61 138.49 139.42 L 138.70 140.41 C 138.87 141.23 139.68 141.75 140.49 141.58 C 141.31 141.40 141.83 140.60 141.66 139.79 Z M 141.48 139.26 L 141.56 138.40 C 141.65 137.56 141.04 136.82 140.21 136.74 C 139.38 136.65 138.63 137.26 138.55 138.09 L 138.46 138.96 C 138.38 139.79 138.99 140.54 139.82 140.62 C 140.65 140.70 141.39 140.09 141.48 139.26 Z M 141.30 139.12 L 141.77 138.45 C 142.25 137.76 142.09 136.82 141.40 136.33 C 140.72 135.85 139.77 136.01 139.29 136.70 L 138.82 137.37 C 138.33 138.05 138.50 139.00 139.18 139.49 C 139.87 139.97 140.81 139.81 141.30 139.12 Z M 141.36 138.85 L 142.16 138.33 C 142.86 137.87 143.06 136.93 142.61 136.23 C 142.15 135.52 141.21 135.32 140.50 135.78 L 139.70 136.30 C 139.00 136.76 138.80 137.70 139.25 138.40 C 139.71 139.11 140.65 139.31 141.36 138.85 Z M 141.88 138.47 L 142.91 138.07 C 143.70 137.76 144.08 136.88 143.78 136.10 C 143.47 135.32 142.59 134.93 141.81 135.24 L 140.78 135.64 C 140.00 135.95 139.61 136.83 139.92 137.61 C 140.22 138.39 141.10 138.78 141.88 138.47 Z M 142.77 138.12 L 143.80 137.83 C 144.61 137.61 145.09 136.77 144.86 135.96 C 144.64 135.15 143.80 134.68 142.99 134.90 L 141.95 135.19 C 141.15 135.41 140.67 136.25 140.90 137.06 C 141.12 137.87 141.96 138.34 142.77 138.12 Z M 143.72 137.85 L 144.71 137.64 C 145.53 137.46 146.06 136.65 145.88 135.83 C 145.70 135.01 144.90 134.49 144.07 134.66 L 143.08 134.88 C 142.25 135.05 141.73 135.86 141.91 136.68 C 142.08 137.51 142.89 138.03 143.72 137.85 Z M 144.65 137.65 L 145.65 137.48 C 146.48 137.34 147.04 136.55 146.90 135.73 C 146.75 134.90 145.97 134.34 145.14 134.48 L 144.14 134.65 C 143.31 134.79 142.75 135.58 142.89 136.41 C 143.03 137.23 143.82 137.79 144.65 137.65 Z M 145.60 137.49 L 146.57 137.36 C 147.40 137.25 147.99 136.48 147.88 135.65 C 147.76 134.81 147.00 134.23 146.16 134.34 L 145.19 134.47 C 144.36 134.58 143.78 135.35 143.89 136.18 C 144.00 137.02 144.77 137.60 145.60 137.49 Z M 146.52 137.36 L 147.54 137.26 C 148.38 137.17 148.99 136.43 148.90 135.59 C 148.82 134.75 148.07 134.14 147.23 134.23 L 146.21 134.34 C 145.38 134.42 144.77 135.17 144.85 136.01 C 144.94 136.84 145.69 137.45 146.52 137.36 Z M 147.49 137.26 L 148.49 137.20 C 149.33 137.14 149.97 136.42 149.91 135.58 C 149.86 134.74 149.13 134.10 148.29 134.16 L 147.29 134.22 C 146.45 134.28 145.81 135.01 145.87 135.85 C 145.92 136.68 146.65 137.32 147.49 137.26 Z M 148.43 137.20 L 149.40 137.18 C 150.24 137.16 150.90 136.46 150.88 135.62 C 150.86 134.77 150.16 134.11 149.32 134.13 L 148.35 134.15 C 147.51 134.17 146.85 134.87 146.87 135.72 C 146.89 136.56 147.59 137.22 148.43 137.20 Z M 149.34 137.18 L 150.32 137.20 C 151.16 137.21 151.86 136.54 151.87 135.69 C 151.88 134.85 151.21 134.15 150.37 134.14 L 149.38 134.13 C 148.54 134.11 147.84 134.79 147.83 135.63 C 147.82 136.47 148.49 137.17 149.34 137.18 Z M 150.22 137.20 L 151.23 137.28 C 152.08 137.35 152.82 136.72 152.89 135.88 C 152.96 135.03 152.33 134.29 151.49 134.22 L 150.47 134.14 C 149.62 134.07 148.88 134.70 148.81 135.54 C 148.75 136.39 149.37 137.13 150.22 137.20 Z M 151.01 137.26 L 151.98 137.48 C 152.81 137.67 153.64 137.15 153.83 136.32 C 154.02 135.49 153.51 134.66 152.68 134.47 L 151.71 134.25 C 150.88 134.06 150.05 134.57 149.86 135.40 C 149.67 136.24 150.18 137.06 151.01 137.26 Z M 151.62 137.36 L 152.47 137.79 C 153.23 138.18 154.17 137.88 154.56 137.11 C 154.95 136.35 154.64 135.42 153.88 135.03 L 153.03 134.59 C 152.27 134.20 151.34 134.51 150.95 135.27 C 150.56 136.03 150.86 136.97 151.62 137.36 Z M 152.08 137.52 L 152.72 138.15 C 153.34 138.75 154.32 138.74 154.93 138.12 C 155.53 137.51 155.52 136.52 154.90 135.92 L 154.27 135.29 C 153.65 134.69 152.66 134.70 152.06 135.32 C 151.46 135.93 151.47 136.92 152.08 137.52 Z M 152.46 137.83 L 152.95 138.66 C 153.39 139.41 154.35 139.66 155.10 139.22 C 155.85 138.77 156.09 137.81 155.65 137.07 L 155.16 136.23 C 154.72 135.49 153.76 135.24 153.01 135.68 C 152.27 136.12 152.02 137.08 152.46 137.83 Z M 152.80 138.36 L 153.14 139.38 C 153.41 140.21 154.30 140.66 155.13 140.39 C 155.96 140.11 156.41 139.22 156.14 138.39 L 155.80 137.37 C 155.53 136.54 154.64 136.09 153.81 136.36 C 152.98 136.64 152.53 137.53 152.80 138.36 Z M 153.07 139.14 L 153.23 140.11 C 153.36 140.97 154.18 141.56 155.04 141.43 C 155.91 141.29 156.50 140.47 156.36 139.61 L 156.21 138.64 C 156.07 137.77 155.26 137.18 154.39 137.32 C 153.52 137.46 152.93 138.27 153.07 139.14 Z M 153.20 139.92 L 153.23 140.81 C 153.27 141.69 154.01 142.38 154.90 142.34 C 155.78 142.31 156.46 141.56 156.43 140.68 L 156.39 139.79 C 156.35 138.91 155.61 138.23 154.73 138.26 C 153.85 138.30 153.16 139.04 153.20 139.92 Z M 153.23 140.65 L 153.17 141.60 C 153.11 142.49 153.78 143.25 154.67 143.30 C 155.55 143.36 156.32 142.69 156.37 141.80 L 156.43 140.85 C 156.49 139.96 155.82 139.20 154.93 139.14 C 154.05 139.09 153.28 139.76 153.23 140.65 Z M 153.18 141.44 L 153.01 142.45 C 152.86 143.33 153.46 144.16 154.34 144.31 C 155.22 144.46 156.05 143.86 156.20 142.98 L 156.36 141.97 C 156.51 141.09 155.92 140.25 155.04 140.11 C 154.16 139.96 153.32 140.56 153.18 141.44 Z M 153.03 142.29 L 152.74 143.35 C 152.51 144.22 153.02 145.11 153.89 145.35 C 154.75 145.58 155.65 145.07 155.88 144.21 L 156.17 143.14 C 156.41 142.27 155.89 141.38 155.03 141.15 C 154.16 140.91 153.27 141.42 153.03 142.29 Z M 152.78 143.20 L 152.40 144.22 C 152.08 145.07 152.51 146.01 153.35 146.33 C 154.20 146.65 155.14 146.22 155.46 145.38 L 155.84 144.36 C 156.16 143.51 155.73 142.57 154.89 142.25 C 154.04 141.93 153.10 142.36 152.78 143.20 Z M 152.43 144.11 L 152.02 144.99 C 151.64 145.81 152.00 146.79 152.82 147.18 C 153.65 147.56 154.62 147.20 155.01 146.38 L 155.42 145.50 C 155.80 144.67 155.45 143.69 154.62 143.31 C 153.80 142.93 152.82 143.28 152.43 144.11 Z M 152.05 144.90 L 151.58 145.79 C 151.15 146.60 151.45 147.61 152.26 148.04 C 153.07 148.47 154.07 148.16 154.50 147.35 L 154.98 146.46 C 155.41 145.66 155.10 144.65 154.30 144.22 C 153.49 143.79 152.49 144.10 152.05 144.90 Z M 151.60 145.72 L 151.08 146.61 C 150.61 147.40 150.87 148.43 151.67 148.90 C 152.46 149.36 153.48 149.10 153.95 148.31 L 154.48 147.42 C 154.95 146.63 154.68 145.61 153.89 145.14 C 153.10 144.67 152.07 144.93 151.60 145.72 Z M 151.10 146.55 L 150.55 147.42 C 150.05 148.20 150.27 149.24 151.05 149.74 C 151.84 150.24 152.88 150.01 153.38 149.23 L 153.93 148.37 C 154.43 147.58 154.21 146.54 153.42 146.04 C 152.64 145.54 151.60 145.77 151.10 146.55 Z M 150.57 147.37 L 149.99 148.21 C 149.47 148.98 149.66 150.03 150.43 150.56 C 151.21 151.09 152.26 150.89 152.79 150.12 L 153.36 149.28 C 153.89 148.51 153.69 147.46 152.92 146.93 C 152.15 146.40 151.09 146.60 150.57 147.37 Z M 150.01 148.17 L 149.43 148.96 C 148.88 149.73 149.06 150.79 149.82 151.34 C 150.58 151.89 151.65 151.72 152.20 150.95 L 152.77 150.16 C 153.32 149.40 153.15 148.33 152.39 147.78 C 151.62 147.23 150.56 147.40 150.01 148.17 Z M 149.45 148.92 L 148.80 149.78 C 148.23 150.54 148.38 151.61 149.13 152.18 C 149.89 152.76 150.96 152.61 151.53 151.85 L 152.18 150.99 C 152.75 150.24 152.61 149.16 151.85 148.59 C 151.10 148.02 150.02 148.17 149.45 148.92 Z M 148.82 149.74 L 148.14 150.59 C 147.55 151.34 147.67 152.42 148.42 153.01 C 149.16 153.61 150.24 153.48 150.84 152.74 L 151.51 151.89 C 152.11 151.15 151.98 150.06 151.24 149.47 C 150.50 148.88 149.41 149.00 148.82 149.74 Z M 148.17 150.55 L 147.51 151.33 C 146.90 152.06 146.99 153.15 147.72 153.77 C 148.45 154.38 149.55 154.29 150.16 153.56 L 150.81 152.78 C 151.43 152.05 151.34 150.96 150.60 150.34 C 149.87 149.73 148.78 149.82 148.17 150.55 Z M 147.54 151.29 L 146.90 152.00 C 146.26 152.72 146.33 153.82 147.05 154.46 C 147.76 155.10 148.86 155.03 149.50 154.31 L 150.14 153.60 C 150.78 152.88 150.71 151.78 149.99 151.14 C 149.27 150.50 148.17 150.57 147.54 151.29 Z M 146.92 151.97 L 146.30 152.64 C 145.64 153.34 145.68 154.45 146.38 155.11 C 147.09 155.77 148.19 155.73 148.85 155.02 L 149.48 154.35 C 150.14 153.64 150.10 152.54 149.39 151.88 C 148.69 151.22 147.58 151.26 146.92 151.97 Z M 146.32 152.60 L 145.66 153.28 C 144.98 153.98 144.99 155.09 145.69 155.77 C 146.38 156.44 147.49 156.43 148.17 155.73 L 148.83 155.06 C 149.51 154.36 149.49 153.25 148.80 152.57 C 148.11 151.89 146.99 151.91 146.32 152.60 Z M 145.67 153.25 L 144.93 153.98 C 144.24 154.67 144.23 155.79 144.92 156.48 C 145.60 157.17 146.72 157.18 147.41 156.50 L 148.15 155.76 C 148.85 155.08 148.85 153.96 148.17 153.27 C 147.48 152.58 146.37 152.57 145.67 153.25 Z M 144.95 153.96 L 144.22 154.66 C 143.51 155.34 143.48 156.46 144.16 157.16 C 144.83 157.87 145.95 157.90 146.66 157.22 L 147.39 156.52 C 148.10 155.85 148.13 154.72 147.45 154.02 C 146.78 153.31 145.66 153.28 144.95 153.96 Z M 144.23 154.64 L 143.51 155.31 C 142.79 155.98 142.75 157.10 143.42 157.82 C 144.09 158.54 145.21 158.58 145.93 157.91 L 146.65 157.24 C 147.37 156.57 147.41 155.45 146.74 154.73 C 146.07 154.01 144.94 153.97 144.23 154.64 Z M 143.51 155.30 L 142.81 155.94 C 142.09 156.60 142.04 157.73 142.70 158.46 C 143.37 159.18 144.50 159.23 145.22 158.57 L 145.92 157.92 C 146.65 157.26 146.70 156.13 146.03 155.41 C 145.37 154.68 144.24 154.63 143.51 155.30 Z M 142.81 155.93 L 142.03 156.64 C 141.30 157.31 141.25 158.44 141.91 159.17 C 142.58 159.90 143.71 159.95 144.44 159.29 L 145.22 158.58 C 145.95 157.91 146.01 156.78 145.34 156.05 C 144.68 155.32 143.54 155.27 142.81 155.93 Z M 142.04 156.63 L 141.28 157.31 C 140.54 157.97 140.48 159.11 141.14 159.84 C 141.80 160.58 142.93 160.64 143.67 159.98 L 144.43 159.30 C 145.17 158.64 145.23 157.51 144.57 156.77 C 143.91 156.03 142.78 155.97 142.04 156.63 Z M 141.30 157.29 L 140.56 157.93 C 139.81 158.58 139.73 159.71 140.38 160.46 C 141.03 161.21 142.16 161.29 142.91 160.64 L 143.65 160.00 C 144.39 159.36 144.48 158.22 143.83 157.47 C 143.18 156.73 142.05 156.64 141.30 157.29 Z M 140.60 157.90 L 139.83 158.52 C 139.07 159.15 138.95 160.28 139.58 161.05 C 140.21 161.82 141.34 161.93 142.11 161.30 L 142.87 160.68 C 143.64 160.05 143.75 158.92 143.13 158.15 C 142.50 157.38 141.37 157.27 140.60 157.90 Z M 139.84 158.52 L 138.86 159.31 C 138.09 159.94 137.97 161.07 138.60 161.84 C 139.22 162.61 140.35 162.73 141.12 162.10 L 142.11 161.31 C 142.88 160.68 142.99 159.55 142.37 158.78 C 141.74 158.01 140.61 157.89 139.84 158.52 Z M 138.49 159.72 L 138.11 160.30 C 137.56 161.13 137.79 162.25 138.62 162.79 C 139.45 163.34 140.56 163.11 141.11 162.28 L 141.49 161.70 C 142.04 160.87 141.81 159.75 140.98 159.21 C 140.15 158.66 139.04 158.89 138.49 159.72 Z M 138.57 162.76 L 138.94 163.02 C 139.75 163.60 140.87 163.41 141.45 162.60 C 142.02 161.79 141.83 160.67 141.02 160.09 L 140.65 159.83 C 139.84 159.25 138.72 159.44 138.14 160.25 C 137.57 161.06 137.76 162.18 138.57 162.76 Z M 139.71 163.33 L 140.54 163.46 C 141.52 163.61 142.43 162.94 142.59 161.96 C 142.74 160.98 142.07 160.06 141.09 159.91 L 140.26 159.78 C 139.28 159.63 138.36 160.30 138.21 161.28 C 138.06 162.26 138.73 163.18 139.71 163.33 Z M 140.72 163.48 L 141.93 163.54 C 142.92 163.58 143.76 162.82 143.80 161.83 C 143.85 160.85 143.09 160.00 142.10 159.96 L 140.90 159.90 C 139.91 159.85 139.07 160.61 139.02 161.60 C 138.97 162.59 139.74 163.43 140.72 163.48 Z M 141.98 163.53 L 143.29 163.55 C 144.27 163.57 145.09 162.78 145.10 161.80 C 145.12 160.81 144.33 160.00 143.34 159.98 L 142.04 159.96 C 141.06 159.94 140.24 160.73 140.23 161.72 C 140.21 162.70 141.00 163.52 141.98 163.53 Z M 143.30 163.54 L 144.24 163.55 C 145.22 163.56 146.02 162.77 146.03 161.79 C 146.04 160.81 145.25 160.01 144.27 160.00 L 143.33 159.99 C 142.35 159.98 141.55 160.77 141.54 161.75 C 141.53 162.73 142.32 163.53 143.30 163.54 Z M 144.25 163.53 L 145.24 163.54 C 146.21 163.54 147.00 162.76 147.00 161.79 C 147.01 160.82 146.23 160.03 145.26 160.02 L 144.27 160.02 C 143.30 160.01 142.51 160.80 142.50 161.77 C 142.49 162.74 143.28 163.53 144.25 163.53 Z M 145.24 163.52 L 146.26 163.52 C 147.22 163.53 148.00 162.75 148.00 161.79 C 148.01 160.83 147.23 160.05 146.27 160.05 L 145.25 160.04 C 144.29 160.04 143.51 160.82 143.51 161.78 C 143.50 162.74 144.28 163.52 145.24 163.52 Z M 146.26 163.50 L 147.30 163.51 C 148.25 163.51 149.02 162.74 149.02 161.79 C 149.02 160.84 148.25 160.07 147.30 160.07 L 146.27 160.06 C 145.32 160.06 144.55 160.83 144.55 161.78 C 144.55 162.73 145.31 163.50 146.26 163.50 Z M 147.30 163.49 L 148.33 163.49 C 149.27 163.49 150.03 162.73 150.03 161.79 C 150.03 160.85 149.27 160.09 148.33 160.08 L 147.30 160.08 C 146.36 160.08 145.60 160.85 145.60 161.79 C 145.60 162.72 146.36 163.49 147.30 163.49 Z M 148.33 163.47 L 149.38 163.47 C 150.31 163.47 151.06 162.71 151.06 161.79 C 151.06 160.86 150.31 160.11 149.38 160.11 L 148.33 160.11 C 147.40 160.11 146.65 160.86 146.65 161.79 C 146.65 162.71 147.40 163.47 148.33 163.47 Z M 149.38 163.44 L 150.49 163.44 C 151.40 163.44 152.14 162.70 152.14 161.78 C 152.14 160.87 151.40 160.13 150.49 160.13 L 149.38 160.13 C 148.47 160.14 147.73 160.88 147.73 161.79 C 147.73 162.70 148.47 163.44 149.38 163.44 Z M 150.50 163.40 L 151.56 163.40 C 152.45 163.39 153.17 162.67 153.17 161.77 C 153.16 160.88 152.44 160.16 151.54 160.16 L 150.48 160.17 C 149.59 160.17 148.87 160.90 148.87 161.79 C 148.88 162.69 149.60 163.41 150.50 163.40 Z M 151.57 163.36 L 152.56 163.35 C 153.44 163.34 154.14 162.63 154.13 161.75 C 154.12 160.88 153.40 160.18 152.53 160.19 L 151.53 160.20 C 150.66 160.21 149.96 160.92 149.97 161.80 C 149.98 162.67 150.69 163.37 151.57 163.36 Z M 152.58 163.32 L 153.51 163.30 C 154.37 163.28 155.04 162.57 155.03 161.72 C 155.01 160.86 154.30 160.19 153.45 160.20 L 152.52 160.22 C 151.66 160.24 150.98 160.95 151.00 161.80 C 151.02 162.66 151.73 163.33 152.58 163.32 Z M 153.53 163.26 L 154.40 163.23 C 155.23 163.20 155.89 162.50 155.86 161.66 C 155.83 160.83 155.12 160.18 154.29 160.21 L 153.42 160.24 C 152.59 160.27 151.94 160.97 151.97 161.81 C 152.00 162.64 152.70 163.29 153.53 163.26 Z M 154.44 163.20 L 155.54 163.13 C 156.36 163.08 156.98 162.37 156.93 161.56 C 156.88 160.74 156.17 160.11 155.35 160.17 L 154.25 160.24 C 153.43 160.29 152.81 160.99 152.86 161.81 C 152.91 162.63 153.62 163.25 154.44 163.20 Z M 155.59 163.11 L 156.58 163.01 C 157.39 162.93 157.98 162.22 157.90 161.41 C 157.82 160.60 157.10 160.01 156.29 160.09 L 155.30 160.19 C 154.50 160.27 153.91 160.99 153.99 161.79 C 154.07 162.60 154.78 163.19 155.59 163.11 Z M 156.62 162.99 L 157.55 162.87 C 158.35 162.77 158.91 162.04 158.81 161.24 C 158.70 160.45 157.97 159.89 157.18 159.99 L 156.25 160.11 C 155.45 160.22 154.89 160.95 155.00 161.74 C 155.10 162.53 155.83 163.09 156.62 162.99 Z M 157.59 162.85 L 158.52 162.71 C 159.30 162.58 159.84 161.85 159.72 161.07 C 159.60 160.28 158.87 159.75 158.08 159.87 L 157.15 160.01 C 156.36 160.13 155.83 160.87 155.95 161.65 C 156.07 162.43 156.80 162.97 157.59 162.85 Z M 158.54 162.70 L 159.51 162.53 C 160.29 162.40 160.81 161.66 160.68 160.88 C 160.55 160.10 159.81 159.58 159.03 159.71 L 158.06 159.88 C 157.28 160.01 156.76 160.75 156.89 161.53 C 157.02 162.30 157.76 162.83 158.54 162.70 Z M 159.52 162.53 L 160.51 162.35 C 161.29 162.21 161.81 161.47 161.67 160.69 C 161.53 159.92 160.79 159.40 160.01 159.54 L 159.02 159.72 C 158.24 159.85 157.73 160.60 157.87 161.37 C 158.01 162.15 158.75 162.67 159.52 162.53 Z M 160.52 162.35 L 161.52 162.16 C 162.30 162.02 162.81 161.28 162.67 160.50 C 162.52 159.73 161.78 159.21 161.01 159.36 L 160.01 159.54 C 159.23 159.68 158.72 160.43 158.86 161.20 C 159.00 161.98 159.75 162.49 160.52 162.35 Z M 161.52 162.16 L 161.70 162.13 C 162.47 161.99 162.98 161.24 162.84 160.47 C 162.70 159.69 161.95 159.18 161.18 159.33 L 161.00 159.36 C 160.23 159.50 159.72 160.25 159.86 161.02 C 160.01 161.79 160.75 162.30 161.52 162.16 Z"
      fill="black"
      fill-rule="nonzero" /></svg>