<svg xmlns="http://www.w3.org/2000/svg" width="300" height="300" viewBox="0 0 300 300">
<path d="M 151.58 96.33 L 150.76 96.75 C 149.97 97.15 149.66 98.11 150.06 98.90 C 150.46 99.69 151.43 100.01 152.22 99.60 L 153.04 99.19 C 153.83 98.78 154.14 97.82 153.74 97.03 C 153.34 96.24 152.37 95.93 151.58 96.33 Z M 150.69 96.76 L 149.86 97.23 C 149.08 97.67 148.80 98.66 149.24 99.44 C 149.69 100.22 150.68 100.50 151.46 100.06 L 152.29 99.59 C 153.07 99.15 153.35 98.16 152.91 97.38 C 152.47 96.59 151.47 96.32 150.69 96.76 Z M 149.74 97.27 L 148.90 97.84 C 148.14 98.34 147.94 99.37 148.44 100.13 C 148.95 100.88 149.97 101.08 150.73 100.58 L 151.58 100.01 C 152.33 99.51 152.54 98.48 152.03 97.72 C 151.52 96.97 150.50 96.77 149.74 97.27 Z M 148.76 97.92 L 147.91 98.61 C 147.19 99.19 147.09 100.25 147.67 100.96 C 148.25 101.67 149.31 101.78 150.02 101.20 L 150.87 100.50 C 151.58 99.92 151.69 98.87 151.11 98.15 C 150.52 97.44 149.47 97.33 148.76 97.92 Z M 147.80 98.70 L 147.10 99.38 C 146.43 100.02 146.41 101.08 147.05 101.74 C 147.70 102.41 148.76 102.43 149.42 101.79 L 150.13 101.11 C 150.79 100.47 150.81 99.41 150.17 98.74 C 149.53 98.08 148.47 98.06 147.80 98.70 Z M 147.05 99.44 L 146.34 100.19 C 145.71 100.86 145.74 101.91 146.41 102.54 C 147.08 103.17 148.14 103.14 148.77 102.47 L 149.47 101.72 C 150.10 101.05 150.07 100.00 149.40 99.37 C 148.73 98.74 147.68 98.77 147.05 99.44 Z M 146.31 100.23 L 145.62 101.01 C 145.02 101.69 145.08 102.74 145.76 103.35 C 146.45 103.96 147.50 103.89 148.10 103.21 L 148.79 102.43 C 149.40 101.75 149.34 100.70 148.65 100.09 C 147.97 99.48 146.92 99.55 146.31 100.23 Z M 145.61 101.03 L 144.96 101.80 C 144.36 102.49 144.44 103.53 145.13 104.12 C 145.82 104.72 146.86 104.64 147.46 103.95 L 148.11 103.18 C 148.71 102.49 148.63 101.45 147.94 100.86 C 147.25 100.26 146.21 100.34 145.61 101.03 Z M 144.96 101.80 L 144.32 102.55 C 143.73 103.24 143.81 104.27 144.49 104.86 C 145.18 105.45 146.22 105.38 146.81 104.69 L 147.45 103.94 C 148.04 103.25 147.96 102.22 147.27 101.63 C 146.59 101.04 145.55 101.12 144.96 101.80 Z M 144.35 102.55 L 143.61 103.38 C 143.02 104.05 143.09 105.08 143.76 105.67 C 144.43 106.26 145.45 106.20 146.05 105.52 L 146.78 104.69 C 147.37 104.02 147.31 103.00 146.63 102.40 C 145.96 101.81 144.94 101.88 144.35 102.55 Z M 143.65 103.38 L 142.99 104.11 C 142.40 104.76 142.45 105.77 143.10 106.36 C 143.75 106.95 144.76 106.90 145.35 106.25 L 146.01 105.52 C 146.60 104.87 146.55 103.86 145.90 103.27 C 145.25 102.68 144.24 102.73 143.65 103.38 Z M 143.02 104.11 L 142.40 104.79 C 141.81 105.43 141.85 106.42 142.49 107.01 C 143.13 107.59 144.12 107.55 144.71 106.91 L 145.33 106.24 C 145.91 105.60 145.87 104.61 145.23 104.02 C 144.60 103.44 143.60 103.48 143.02 104.11 Z M 142.41 104.81 L 141.78 105.49 C 141.20 106.12 141.24 107.10 141.87 107.68 C 142.50 108.26 143.48 108.22 144.06 107.59 L 144.69 106.90 C 145.27 106.27 145.23 105.29 144.60 104.71 C 143.97 104.13 142.99 104.18 142.41 104.81 Z M 141.79 105.50 L 141.13 106.23 C 140.55 106.85 140.60 107.82 141.22 108.39 C 141.85 108.97 142.82 108.92 143.39 108.30 L 144.05 107.58 C 144.62 106.95 144.58 105.98 143.96 105.41 C 143.33 104.84 142.36 104.88 141.79 105.50 Z M 141.14 106.22 L 140.45 106.96 C 139.88 107.58 139.92 108.55 140.53 109.12 C 141.15 109.69 142.11 109.66 142.69 109.04 L 143.37 108.30 C 143.95 107.68 143.91 106.72 143.29 106.15 C 142.68 105.57 141.71 105.61 141.14 106.22 Z M 140.48 106.96 L 139.76 107.70 C 139.18 108.31 139.20 109.27 139.81 109.84 C 140.41 110.42 141.37 110.40 141.95 109.80 L 142.66 109.05 C 143.24 108.44 143.22 107.49 142.62 106.91 C 142.01 106.33 141.05 106.35 140.48 106.96 Z M 139.79 107.69 L 139.10 108.38 C 138.52 108.97 138.52 109.92 139.11 110.51 C 139.70 111.09 140.65 111.09 141.24 110.50 L 141.92 109.81 C 142.51 109.22 142.50 108.27 141.91 107.68 C 141.33 107.10 140.37 107.10 139.79 107.69 Z M 139.12 108.37 L 138.42 109.06 C 137.82 109.64 137.81 110.59 138.39 111.18 C 138.97 111.77 139.92 111.78 140.51 111.20 L 141.22 110.51 C 141.81 109.93 141.82 108.98 141.24 108.39 C 140.66 107.80 139.71 107.79 139.12 108.37 Z M 138.43 109.06 L 137.70 109.76 C 137.11 110.33 137.09 111.27 137.66 111.86 C 138.23 112.46 139.17 112.48 139.77 111.91 L 140.50 111.20 C 141.09 110.63 141.11 109.69 140.54 109.10 C 139.97 108.51 139.02 108.49 138.43 109.06 Z M 137.71 109.76 L 136.97 110.47 C 136.38 111.03 136.36 111.97 136.92 112.56 C 137.49 113.15 138.42 113.18 139.02 112.61 L 139.76 111.90 C 140.35 111.34 140.37 110.40 139.80 109.81 C 139.24 109.22 138.30 109.20 137.71 109.76 Z M 136.98 110.47 L 136.27 111.15 C 135.68 111.71 135.66 112.64 136.22 113.23 C 136.78 113.82 137.71 113.84 138.30 113.28 L 139.01 112.61 C 139.60 112.04 139.62 111.11 139.06 110.52 C 138.50 109.93 137.56 109.91 136.98 110.47 Z M 136.27 111.15 L 135.55 111.84 C 134.96 112.40 134.94 113.33 135.50 113.91 C 136.06 114.50 136.99 114.52 137.57 113.96 L 138.30 113.28 C 138.88 112.72 138.91 111.79 138.35 111.20 C 137.79 110.62 136.86 110.59 136.27 111.15 Z M 135.56 111.84 L 134.83 112.54 C 134.24 113.09 134.22 114.02 134.77 114.60 C 135.33 115.19 136.25 115.21 136.83 114.66 L 137.57 113.96 C 138.15 113.41 138.18 112.48 137.62 111.90 C 137.07 111.31 136.14 111.29 135.56 111.84 Z M 134.83 112.54 L 134.09 113.24 C 133.51 113.79 133.48 114.71 134.03 115.29 C 134.58 115.88 135.50 115.90 136.08 115.35 L 136.83 114.66 C 137.41 114.11 137.44 113.19 136.89 112.60 C 136.34 112.02 135.42 111.99 134.83 112.54 Z M 134.10 113.24 L 133.37 113.91 C 132.79 114.46 132.76 115.38 133.30 115.96 C 133.85 116.55 134.76 116.58 135.35 116.03 L 136.07 115.35 C 136.66 114.81 136.69 113.89 136.15 113.31 C 135.60 112.72 134.69 112.69 134.10 113.24 Z M 133.38 113.91 L 132.65 114.59 C 132.06 115.13 132.03 116.05 132.57 116.63 C 133.11 117.22 134.02 117.25 134.61 116.71 L 135.34 116.03 C 135.92 115.49 135.96 114.58 135.42 113.99 C 134.88 113.41 133.97 113.37 133.38 113.91 Z M 132.65 114.59 L 131.92 115.27 C 131.33 115.81 131.29 116.72 131.83 117.30 C 132.37 117.89 133.28 117.93 133.86 117.39 L 134.60 116.71 C 135.18 116.17 135.22 115.26 134.68 114.68 C 134.15 114.09 133.24 114.06 132.65 114.59 Z M 131.92 115.27 L 131.18 115.95 C 130.60 116.49 130.56 117.39 131.09 117.98 C 131.63 118.56 132.54 118.60 133.12 118.06 L 133.86 117.39 C 134.44 116.85 134.48 115.94 133.95 115.36 C 133.41 114.78 132.50 114.74 131.92 115.27 Z M 131.18 115.95 L 130.44 116.63 C 129.86 117.17 129.82 118.07 130.35 118.65 C 130.89 119.24 131.79 119.28 132.37 118.74 L 133.12 118.06 C 133.70 117.53 133.74 116.62 133.20 116.04 C 132.67 115.46 131.77 115.42 131.18 115.95 Z M 130.45 116.63 L 129.70 117.31 C 129.12 117.84 129.08 118.75 129.61 119.33 C 130.14 119.91 131.05 119.95 131.63 119.42 L 132.37 118.74 C 132.95 118.21 133.00 117.31 132.46 116.72 C 131.93 116.14 131.03 116.10 130.45 116.63 Z M 129.71 117.31 L 128.97 117.98 C 128.38 118.51 128.34 119.41 128.87 120.00 C 129.39 120.58 130.30 120.63 130.88 120.10 L 131.62 119.42 C 132.21 118.90 132.25 117.99 131.72 117.41 C 131.20 116.82 130.29 116.78 129.71 117.31 Z M 128.97 117.97 L 128.23 118.64 C 127.64 119.16 127.59 120.06 128.12 120.65 C 128.64 121.24 129.54 121.29 130.13 120.76 L 130.87 120.10 C 131.46 119.58 131.51 118.68 130.99 118.09 C 130.46 117.50 129.56 117.45 128.97 117.97 Z M 128.24 118.63 L 127.49 119.29 C 126.90 119.81 126.84 120.71 127.36 121.30 C 127.88 121.89 128.78 121.95 129.37 121.43 L 130.12 120.77 C 130.71 120.25 130.77 119.35 130.25 118.76 C 129.74 118.17 128.83 118.11 128.24 118.63 Z M 127.50 119.28 L 126.74 119.93 C 126.14 120.45 126.07 121.35 126.59 121.94 C 127.10 122.54 128.00 122.61 128.60 122.10 L 129.36 121.44 C 129.96 120.93 130.02 120.03 129.51 119.43 C 129.00 118.83 128.10 118.76 127.50 119.28 Z M 126.75 119.93 L 125.98 120.57 C 125.38 121.08 125.31 121.98 125.82 122.58 C 126.32 123.18 127.22 123.26 127.82 122.75 L 128.59 122.10 C 129.19 121.59 129.26 120.69 128.76 120.09 C 128.25 119.49 127.35 119.42 126.75 119.93 Z M 125.99 120.57 L 125.23 121.20 C 124.62 121.71 124.54 122.61 125.05 123.21 C 125.55 123.82 126.45 123.90 127.06 123.39 L 127.82 122.75 C 128.42 122.25 128.50 121.35 128.00 120.74 C 127.49 120.14 126.59 120.06 125.99 120.57 Z M 125.23 121.20 L 124.67 121.67 C 124.07 122.17 123.99 123.07 124.49 123.67 C 125.00 124.28 125.89 124.36 126.50 123.86 L 127.05 123.39 C 127.66 122.89 127.74 121.99 127.24 121.38 C 126.73 120.78 125.83 120.70 125.23 121.20 Z"
      fill="black"
      fill-rule="nonzero" /><path d="M 106.78 134.38 L 107.78 134.22 C 108.64 134.09 109.23 133.28 109.09 132.41 C 108.96 131.55 108.14 130.96 107.28 131.09 L 106.29 131.25 C 105.42 131.39 104.83 132.20 104.97 133.06 C 105.11 133.93 105.92 134.52 106.78 134.38 Z M 107.78 134.22 L 108.77 134.07 C 109.63 133.93 110.22 133.12 110.08 132.25 C 109.95 131.39 109.13 130.80 108.27 130.93 L 107.28 131.09 C 106.41 131.23 105.82 132.04 105.96 132.91 C 106.10 133.77 106.91 134.36 107.78 134.22 Z M 108.77 134.06 L 109.76 133.91 C 110.62 133.77 111.21 132.95 111.07 132.09 C 110.93 131.22 110.12 130.64 109.25 130.78 L 108.26 130.94 C 107.40 131.08 106.81 131.89 106.95 132.75 C 107.09 133.62 107.91 134.20 108.77 134.06 Z M 109.76 133.90 L 110.75 133.74 C 111.61 133.60 112.20 132.78 112.05 131.92 C 111.91 131.06 111.10 130.47 110.23 130.61 L 109.25 130.78 C 108.38 130.92 107.80 131.74 107.94 132.60 C 108.08 133.46 108.90 134.05 109.76 133.90 Z M 110.76 133.74 L 111.74 133.57 C 112.60 133.43 113.18 132.61 113.03 131.75 C 112.89 130.88 112.07 130.30 111.21 130.45 L 110.23 130.62 C 109.36 130.76 108.78 131.58 108.93 132.44 C 109.08 133.31 109.89 133.89 110.76 133.74 Z M 111.74 133.56 L 112.69 133.39 C 113.55 133.24 114.12 132.43 113.97 131.57 C 113.82 130.72 113.00 130.14 112.15 130.29 L 111.20 130.46 C 110.34 130.61 109.77 131.43 109.92 132.28 C 110.07 133.14 110.89 133.71 111.74 133.56 Z M 112.70 133.37 L 113.65 133.20 C 114.49 133.04 115.04 132.23 114.89 131.39 C 114.74 130.55 113.93 129.99 113.09 130.15 L 112.14 130.32 C 111.30 130.47 110.74 131.28 110.89 132.12 C 111.05 132.96 111.85 133.52 112.70 133.37 Z M 113.65 133.17 L 114.62 132.99 C 115.44 132.83 115.99 132.03 115.83 131.20 C 115.67 130.38 114.87 129.83 114.05 129.99 L 113.08 130.17 C 112.26 130.33 111.71 131.13 111.87 131.96 C 112.03 132.78 112.82 133.33 113.65 133.17 Z M 114.62 132.96 L 115.62 132.76 C 116.43 132.60 116.96 131.81 116.80 131.00 C 116.64 130.19 115.85 129.66 115.03 129.82 L 114.04 130.02 C 113.23 130.18 112.70 130.97 112.86 131.78 C 113.02 132.59 113.81 133.12 114.62 132.96 Z M 115.62 132.74 L 116.65 132.52 C 117.45 132.36 117.96 131.58 117.80 130.78 C 117.64 129.98 116.86 129.47 116.06 129.63 L 115.03 129.85 C 114.23 130.01 113.72 130.79 113.88 131.59 C 114.04 132.39 114.82 132.90 115.62 132.74 Z M 116.66 132.50 L 117.66 132.29 C 118.45 132.12 118.95 131.35 118.78 130.56 C 118.62 129.78 117.84 129.27 117.06 129.44 L 116.05 129.65 C 115.27 129.82 114.76 130.60 114.93 131.38 C 115.10 132.17 115.87 132.67 116.66 132.50 Z M 117.67 132.28 L 118.67 132.06 C 119.45 131.89 119.95 131.12 119.78 130.34 C 119.60 129.56 118.83 129.06 118.05 129.23 L 117.05 129.45 C 116.27 129.62 115.77 130.39 115.94 131.18 C 116.12 131.96 116.89 132.45 117.67 132.28 Z M 118.67 132.06 L 119.68 131.83 C 120.46 131.66 120.95 130.89 120.78 130.11 C 120.61 129.33 119.83 128.84 119.05 129.01 L 118.05 129.24 C 117.27 129.41 116.78 130.18 116.95 130.96 C 117.12 131.74 117.90 132.23 118.67 132.06 Z M 119.69 131.83 L 120.69 131.60 C 121.46 131.42 121.95 130.65 121.77 129.88 C 121.60 129.10 120.82 128.61 120.05 128.79 L 119.05 129.02 C 118.27 129.19 117.79 129.96 117.96 130.74 C 118.14 131.52 118.91 132.00 119.69 131.83 Z M 120.69 131.59 L 121.66 131.37 C 122.43 131.19 122.91 130.42 122.73 129.65 C 122.56 128.88 121.79 128.40 121.01 128.57 L 120.05 128.80 C 119.27 128.97 118.79 129.74 118.97 130.52 C 119.15 131.29 119.92 131.77 120.69 131.59 Z M 121.66 131.37 L 122.58 131.15 C 123.35 130.98 123.83 130.21 123.65 129.44 C 123.47 128.67 122.70 128.19 121.93 128.37 L 121.01 128.58 C 120.24 128.76 119.76 129.53 119.94 130.30 C 120.12 131.07 120.89 131.55 121.66 131.37 Z M 122.58 131.15 L 123.65 130.90 C 124.42 130.72 124.90 129.95 124.72 129.18 C 124.54 128.41 123.77 127.94 123.00 128.12 L 121.93 128.37 C 121.16 128.55 120.68 129.32 120.86 130.09 C 121.04 130.85 121.81 131.33 122.58 131.15 Z M 123.66 130.90 L 124.67 130.65 C 125.44 130.47 125.91 129.70 125.73 128.93 C 125.54 128.16 124.77 127.69 124.01 127.88 L 122.99 128.12 C 122.23 128.30 121.75 129.07 121.94 129.84 C 122.12 130.61 122.89 131.08 123.66 130.90 Z M 124.68 130.65 L 125.62 130.42 C 126.39 130.23 126.85 129.45 126.66 128.69 C 126.47 127.92 125.70 127.46 124.93 127.65 L 124.00 127.88 C 123.23 128.07 122.77 128.84 122.96 129.61 C 123.15 130.37 123.92 130.84 124.68 130.65 Z M 125.64 130.41 L 126.53 130.18 C 127.29 129.98 127.75 129.20 127.55 128.44 C 127.35 127.68 126.57 127.22 125.81 127.42 L 124.92 127.65 C 124.16 127.85 123.70 128.63 123.90 129.39 C 124.10 130.15 124.88 130.61 125.64 130.41 Z M 126.55 130.17 L 127.46 129.92 C 128.22 129.71 128.67 128.93 128.46 128.17 C 128.25 127.41 127.46 126.96 126.71 127.17 L 125.79 127.42 C 125.03 127.63 124.59 128.42 124.80 129.18 C 125.01 129.94 125.79 130.38 126.55 130.17 Z M 127.48 129.92 L 128.44 129.64 C 129.20 129.42 129.63 128.63 129.41 127.87 C 129.19 127.12 128.40 126.68 127.65 126.90 L 126.69 127.18 C 125.93 127.40 125.50 128.19 125.72 128.94 C 125.93 129.70 126.73 130.13 127.48 129.92 Z M 128.45 129.63 L 129.41 129.34 C 130.17 129.12 130.59 128.32 130.37 127.57 C 130.14 126.82 129.34 126.39 128.59 126.62 L 127.63 126.90 C 126.88 127.13 126.45 127.93 126.68 128.68 C 126.90 129.43 127.70 129.86 128.45 129.63 Z M 129.42 129.34 L 130.38 129.05 C 131.13 128.82 131.55 128.02 131.32 127.27 C 131.09 126.51 130.29 126.09 129.54 126.32 L 128.58 126.62 C 127.83 126.85 127.41 127.65 127.64 128.40 C 127.87 129.15 128.67 129.57 129.42 129.34 Z M 130.38 129.05 L 130.90 128.88 C 131.66 128.65 132.08 127.85 131.84 127.10 C 131.61 126.35 130.81 125.93 130.06 126.16 L 129.54 126.32 C 128.78 126.56 128.36 127.36 128.60 128.11 C 128.83 128.86 129.63 129.28 130.38 129.05 Z"
      fill="black"
      fill-rule="nonzero" /><path d="M 161.26 106.16 L 160.78 107.05 C 160.38 107.80 160.67 108.74 161.42 109.14 C 162.18 109.55 163.12 109.26 163.52 108.51 L 164.00 107.62 C 164.40 106.86 164.11 105.92 163.36 105.52 C 162.60 105.12 161.66 105.40 161.26 106.16 Z M 160.76 107.05 L 160.29 107.94 C 159.89 108.71 160.18 109.66 160.95 110.07 C 161.72 110.47 162.68 110.17 163.08 109.40 L 163.55 108.51 C 163.95 107.74 163.65 106.79 162.88 106.38 C 162.11 105.98 161.16 106.28 160.76 107.05 Z M 160.25 107.95 L 159.81 108.84 C 159.41 109.63 159.73 110.59 160.52 110.99 C 161.31 111.39 162.27 111.07 162.67 110.28 L 163.12 109.39 C 163.51 108.60 163.19 107.64 162.40 107.24 C 161.61 106.84 160.65 107.16 160.25 107.95 Z M 159.76 108.87 L 159.34 109.76 C 158.96 110.57 159.31 111.54 160.12 111.93 C 160.93 112.31 161.90 111.96 162.29 111.15 L 162.71 110.26 C 163.09 109.44 162.74 108.47 161.93 108.09 C 161.12 107.71 160.15 108.05 159.76 108.87 Z M 159.32 109.81 L 158.92 110.71 C 158.57 111.54 158.95 112.50 159.78 112.86 C 160.60 113.22 161.57 112.84 161.92 112.01 L 162.32 111.10 C 162.67 110.27 162.29 109.31 161.46 108.95 C 160.63 108.60 159.67 108.98 159.32 109.81 Z M 158.92 110.76 L 158.56 111.68 C 158.23 112.51 158.63 113.45 159.47 113.78 C 160.30 114.11 161.24 113.70 161.57 112.87 L 161.93 111.95 C 162.26 111.12 161.85 110.18 161.02 109.85 C 160.19 109.53 159.25 109.93 158.92 110.76 Z M 158.56 111.72 L 158.22 112.66 C 157.91 113.49 158.34 114.40 159.16 114.71 C 159.99 115.02 160.91 114.59 161.22 113.76 L 161.56 112.83 C 161.87 112.00 161.44 111.08 160.61 110.77 C 159.79 110.47 158.87 110.89 158.56 111.72 Z M 158.23 112.69 L 157.89 113.65 C 157.60 114.47 158.03 115.37 158.86 115.66 C 159.68 115.95 160.58 115.52 160.87 114.70 L 161.21 113.73 C 161.50 112.91 161.06 112.01 160.24 111.72 C 159.42 111.43 158.52 111.86 158.23 112.69 Z M 157.90 113.66 L 157.59 114.58 C 157.31 115.39 157.74 116.28 158.56 116.56 C 159.37 116.84 160.26 116.41 160.54 115.59 L 160.86 114.68 C 161.14 113.86 160.70 112.97 159.89 112.69 C 159.07 112.41 158.18 112.85 157.90 113.66 Z M 157.60 114.59 L 157.29 115.50 C 157.01 116.31 157.45 117.19 158.26 117.47 C 159.07 117.74 159.94 117.31 160.22 116.50 L 160.53 115.58 C 160.81 114.77 160.37 113.89 159.56 113.62 C 158.75 113.34 157.88 113.78 157.60 114.59 Z M 157.30 115.51 L 156.98 116.46 C 156.71 117.26 157.14 118.13 157.94 118.40 C 158.74 118.67 159.61 118.24 159.88 117.44 L 160.21 116.49 C 160.48 115.69 160.05 114.82 159.25 114.55 C 158.44 114.28 157.57 114.71 157.30 115.51 Z M 157.00 116.46 L 156.67 117.44 C 156.40 118.23 156.82 119.09 157.62 119.36 C 158.41 119.63 159.27 119.21 159.54 118.41 L 159.87 117.44 C 160.14 116.64 159.71 115.78 158.92 115.51 C 158.13 115.24 157.27 115.67 157.00 116.46 Z M 156.68 117.44 L 156.35 118.42 C 156.08 119.20 156.50 120.06 157.28 120.33 C 158.07 120.59 158.92 120.17 159.19 119.39 L 159.52 118.41 C 159.79 117.62 159.37 116.77 158.59 116.50 C 157.80 116.23 156.95 116.65 156.68 117.44 Z M 156.36 118.42 L 156.05 119.32 C 155.78 120.09 156.19 120.94 156.97 121.21 C 157.75 121.48 158.60 121.07 158.87 120.29 L 159.18 119.39 C 159.45 118.61 159.03 117.76 158.25 117.49 C 157.48 117.23 156.63 117.64 156.36 118.42 Z M 156.06 119.31 L 155.74 120.23 C 155.47 121.00 155.87 121.85 156.64 122.12 C 157.42 122.39 158.26 121.98 158.53 121.21 L 158.85 120.29 C 159.12 119.52 158.72 118.68 157.95 118.41 C 157.18 118.14 156.33 118.54 156.06 119.31 Z M 155.75 120.23 L 155.41 121.17 C 155.14 121.93 155.54 122.78 156.30 123.05 C 157.07 123.32 157.91 122.92 158.18 122.16 L 158.52 121.22 C 158.79 120.45 158.39 119.61 157.63 119.34 C 156.86 119.07 156.02 119.46 155.75 120.23 Z M 155.43 121.16 L 155.08 122.13 C 154.80 122.88 155.19 123.72 155.95 124.00 C 156.70 124.27 157.54 123.89 157.82 123.13 L 158.17 122.17 C 158.44 121.41 158.05 120.57 157.30 120.30 C 156.54 120.02 155.70 120.41 155.43 121.16 Z M 155.09 122.12 L 154.72 123.11 C 154.44 123.86 154.82 124.69 155.57 124.97 C 156.32 125.25 157.15 124.87 157.43 124.12 L 157.80 123.14 C 158.08 122.39 157.70 121.55 156.95 121.27 C 156.20 120.99 155.37 121.37 155.09 122.12 Z M 154.73 123.10 L 154.38 124.01 C 154.10 124.75 154.47 125.58 155.21 125.87 C 155.96 126.15 156.79 125.78 157.07 125.04 L 157.42 124.13 C 157.71 123.39 157.33 122.56 156.59 122.27 C 155.85 121.99 155.02 122.36 154.73 123.10 Z M 154.39 124.00 L 154.03 124.91 C 153.74 125.65 154.11 126.49 154.85 126.78 C 155.59 127.07 156.42 126.70 156.71 125.96 L 157.07 125.04 C 157.36 124.31 156.99 123.47 156.25 123.18 C 155.51 122.89 154.68 123.26 154.39 124.00 Z M 154.04 124.91 L 153.67 125.84 C 153.38 126.57 153.74 127.41 154.47 127.70 C 155.21 127.99 156.04 127.63 156.34 126.90 L 156.70 125.97 C 157.00 125.23 156.64 124.40 155.90 124.10 C 155.16 123.81 154.33 124.17 154.04 124.91 Z M 153.67 125.83 L 153.30 126.77 C 153.00 127.51 153.36 128.34 154.09 128.63 C 154.83 128.93 155.66 128.57 155.96 127.84 L 156.33 126.90 C 156.63 126.17 156.27 125.33 155.53 125.04 C 154.80 124.74 153.97 125.10 153.67 125.83 Z M 153.30 126.77 L 152.92 127.72 C 152.62 128.45 152.98 129.28 153.71 129.58 C 154.44 129.87 155.28 129.52 155.57 128.78 L 155.95 127.84 C 156.25 127.11 155.89 126.27 155.16 125.98 C 154.43 125.68 153.60 126.04 153.30 126.77 Z M 152.92 127.71 L 152.57 128.58 C 152.28 129.31 152.63 130.14 153.36 130.43 C 154.09 130.73 154.92 130.38 155.22 129.65 L 155.57 128.79 C 155.86 128.05 155.51 127.22 154.78 126.93 C 154.05 126.63 153.22 126.98 152.92 127.71 Z"
      fill="black"
      fill-rule="nonzero" /><path d="M 108.65 153.33 L 109.57 152.91 C 110.38 152.55 110.74 151.60 110.37 150.79 C 110.01 149.98 109.06 149.62 108.25 149.99 L 107.33 150.40 C 106.52 150.77 106.17 151.72 106.53 152.53 C 106.90 153.33 107.85 153.69 108.65 153.33 Z M 109.56 152.94 L 110.48 152.53 C 111.30 152.17 111.67 151.22 111.31 150.39 C 110.95 149.57 110.00 149.20 109.18 149.56 L 108.26 149.96 C 107.44 150.32 107.06 151.28 107.42 152.10 C 107.78 152.92 108.74 153.30 109.56 152.94 Z M 110.45 152.57 L 111.37 152.19 C 112.21 151.84 112.61 150.88 112.26 150.04 C 111.92 149.21 110.96 148.81 110.12 149.15 L 109.20 149.53 C 108.36 149.87 107.96 150.83 108.31 151.67 C 108.65 152.51 109.61 152.91 110.45 152.57 Z M 111.32 152.22 L 112.23 151.88 C 113.09 151.56 113.52 150.61 113.20 149.75 C 112.88 148.90 111.93 148.46 111.08 148.78 L 110.17 149.12 C 109.31 149.44 108.88 150.39 109.20 151.25 C 109.52 152.10 110.47 152.54 111.32 152.22 Z M 112.19 151.90 L 113.12 151.58 C 113.98 151.28 114.44 150.34 114.15 149.48 C 113.85 148.61 112.91 148.15 112.05 148.45 L 111.12 148.76 C 110.25 149.06 109.79 150.00 110.09 150.86 C 110.38 151.73 111.33 152.19 112.19 151.90 Z M 113.09 151.59 L 114.06 151.27 C 114.93 150.99 115.41 150.06 115.13 149.19 C 114.85 148.32 113.91 147.84 113.04 148.12 L 112.07 148.44 C 111.20 148.72 110.73 149.65 111.01 150.52 C 111.29 151.39 112.22 151.87 113.09 151.59 Z M 114.06 151.27 L 114.99 150.98 C 115.86 150.70 116.34 149.77 116.06 148.89 C 115.78 148.02 114.85 147.54 113.98 147.82 L 113.05 148.12 C 112.18 148.40 111.70 149.33 111.98 150.20 C 112.26 151.07 113.19 151.55 114.06 151.27 Z M 114.99 150.98 L 115.91 150.68 C 116.78 150.40 117.26 149.47 116.97 148.60 C 116.69 147.73 115.76 147.25 114.89 147.53 L 113.98 147.82 C 113.10 148.10 112.63 149.04 112.91 149.91 C 113.19 150.78 114.12 151.26 114.99 150.98 Z M 115.91 150.68 L 116.87 150.37 C 117.74 150.08 118.22 149.15 117.94 148.28 C 117.65 147.41 116.72 146.93 115.85 147.22 L 114.89 147.53 C 114.02 147.81 113.54 148.75 113.82 149.62 C 114.11 150.49 115.04 150.96 115.91 150.68 Z M 116.88 150.36 L 117.88 150.03 C 118.75 149.75 119.22 148.81 118.94 147.94 C 118.65 147.07 117.71 146.60 116.85 146.89 L 115.84 147.22 C 114.97 147.51 114.50 148.44 114.79 149.31 C 115.07 150.18 116.01 150.65 116.88 150.36 Z M 117.89 150.03 L 118.82 149.72 C 119.69 149.43 120.16 148.49 119.87 147.62 C 119.58 146.76 118.64 146.29 117.77 146.58 L 116.84 146.89 C 115.97 147.18 115.50 148.12 115.79 148.99 C 116.08 149.85 117.02 150.32 117.89 150.03 Z M 118.83 149.72 L 119.76 149.40 C 120.62 149.11 121.09 148.17 120.80 147.31 C 120.50 146.44 119.57 145.97 118.70 146.27 L 117.77 146.58 C 116.91 146.87 116.44 147.81 116.73 148.68 C 117.02 149.54 117.96 150.01 118.83 149.72 Z M 119.76 149.40 L 120.71 149.08 C 121.58 148.79 122.04 147.85 121.75 146.98 C 121.45 146.12 120.52 145.65 119.65 145.95 L 118.70 146.27 C 117.83 146.56 117.37 147.50 117.66 148.36 C 117.96 149.23 118.89 149.69 119.76 149.40 Z M 120.71 149.08 L 121.68 148.75 C 122.54 148.46 123.01 147.52 122.72 146.66 C 122.42 145.79 121.49 145.33 120.62 145.62 L 119.65 145.95 C 118.79 146.24 118.32 147.18 118.61 148.04 C 118.91 148.91 119.84 149.37 120.71 149.08 Z M 121.67 148.75 L 122.63 148.43 C 123.50 148.14 123.96 147.21 123.67 146.34 C 123.38 145.48 122.45 145.01 121.58 145.30 L 120.63 145.62 C 119.76 145.91 119.29 146.84 119.58 147.71 C 119.87 148.57 120.81 149.04 121.67 148.75 Z M 122.62 148.43 L 123.54 148.13 C 124.41 147.84 124.87 146.91 124.59 146.05 C 124.30 145.18 123.37 144.71 122.50 145.00 L 121.59 145.30 C 120.72 145.58 120.25 146.52 120.54 147.38 C 120.83 148.25 121.76 148.72 122.62 148.43 Z M 123.54 148.13 L 124.47 147.82 C 125.34 147.54 125.81 146.60 125.52 145.74 C 125.24 144.87 124.30 144.40 123.44 144.69 L 122.51 145.00 C 121.64 145.28 121.17 146.21 121.45 147.08 C 121.74 147.94 122.67 148.41 123.54 148.13 Z M 124.47 147.82 L 125.43 147.51 C 126.29 147.22 126.76 146.29 126.47 145.42 C 126.19 144.56 125.26 144.09 124.39 144.38 L 123.44 144.69 C 122.57 144.98 122.10 145.91 122.39 146.77 C 122.67 147.64 123.61 148.11 124.47 147.82 Z M 125.43 147.50 L 126.41 147.18 C 127.27 146.89 127.74 145.96 127.45 145.09 C 127.17 144.23 126.23 143.76 125.37 144.05 L 124.39 144.38 C 123.53 144.67 123.06 145.60 123.35 146.46 C 123.63 147.32 124.57 147.79 125.43 147.50 Z M 126.42 147.17 L 127.37 146.85 C 128.23 146.56 128.70 145.62 128.41 144.76 C 128.12 143.90 127.18 143.44 126.32 143.73 L 125.36 144.05 C 124.50 144.35 124.04 145.28 124.33 146.14 C 124.62 147.00 125.56 147.46 126.42 147.17 Z M 127.38 146.85 L 128.31 146.53 C 129.17 146.23 129.62 145.30 129.33 144.44 C 129.03 143.58 128.10 143.12 127.24 143.42 L 126.31 143.74 C 125.46 144.03 125.00 144.96 125.29 145.82 C 125.59 146.68 126.52 147.14 127.38 146.85 Z M 128.31 146.52 L 129.26 146.20 C 130.11 145.90 130.57 144.96 130.27 144.11 C 129.97 143.25 129.04 142.80 128.18 143.09 L 127.24 143.42 C 126.38 143.72 125.93 144.65 126.22 145.51 C 126.52 146.37 127.46 146.82 128.31 146.52 Z M 129.26 146.19 L 130.22 145.86 C 131.07 145.56 131.52 144.62 131.22 143.77 C 130.92 142.91 129.99 142.46 129.13 142.76 L 128.18 143.10 C 127.32 143.40 126.87 144.33 127.17 145.19 C 127.47 146.04 128.41 146.49 129.26 146.19 Z M 130.22 145.86 L 131.18 145.52 C 132.03 145.21 132.48 144.28 132.18 143.42 C 131.87 142.57 130.94 142.13 130.08 142.43 L 129.13 142.77 C 128.27 143.07 127.83 144.00 128.13 144.86 C 128.43 145.71 129.37 146.16 130.22 145.86 Z M 131.18 145.51 L 132.14 145.17 C 132.99 144.87 133.43 143.93 133.13 143.08 C 132.82 142.23 131.89 141.78 131.03 142.09 L 130.08 142.43 C 129.23 142.74 128.79 143.67 129.09 144.52 C 129.39 145.37 130.33 145.82 131.18 145.51 Z M 132.14 145.17 L 133.09 144.83 C 133.94 144.52 134.37 143.58 134.07 142.73 C 133.76 141.89 132.83 141.45 131.98 141.75 L 131.03 142.09 C 130.18 142.40 129.74 143.34 130.05 144.18 C 130.36 145.03 131.29 145.47 132.14 145.17 Z M 133.09 144.82 L 134.03 144.48 C 134.88 144.17 135.31 143.23 135.00 142.39 C 134.70 141.54 133.76 141.11 132.91 141.41 L 131.97 141.76 C 131.13 142.06 130.69 143.00 131.00 143.85 C 131.31 144.69 132.24 145.13 133.09 144.82 Z M 134.03 144.47 L 134.97 144.13 C 135.81 143.82 136.24 142.88 135.93 142.04 C 135.62 141.20 134.69 140.76 133.85 141.07 L 132.91 141.42 C 132.07 141.73 131.63 142.66 131.94 143.51 C 132.25 144.35 133.19 144.78 134.03 144.47 Z M 134.97 144.13 L 135.91 143.78 C 136.75 143.47 137.18 142.53 136.86 141.69 C 136.55 140.85 135.62 140.42 134.78 140.73 L 133.84 141.08 C 133.00 141.39 132.57 142.33 132.88 143.17 C 133.20 144.01 134.13 144.44 134.97 144.13 Z M 135.91 143.77 L 136.85 143.42 C 137.68 143.11 138.11 142.18 137.80 141.34 C 137.48 140.50 136.55 140.07 135.71 140.39 L 134.77 140.74 C 133.93 141.05 133.51 141.98 133.82 142.82 C 134.14 143.66 135.07 144.09 135.91 143.77 Z M 136.85 143.42 L 137.78 143.07 C 138.62 142.75 139.04 141.82 138.73 140.98 C 138.41 140.15 137.48 139.72 136.64 140.04 L 135.71 140.39 C 134.87 140.71 134.45 141.64 134.76 142.48 C 135.08 143.31 136.01 143.73 136.85 143.42 Z M 137.79 143.06 L 138.72 142.71 C 139.55 142.39 139.97 141.46 139.66 140.62 C 139.34 139.79 138.41 139.37 137.57 139.69 L 136.64 140.04 C 135.80 140.36 135.39 141.29 135.70 142.13 C 136.02 142.96 136.95 143.38 137.79 143.06 Z M 138.73 142.70 L 139.66 142.34 C 140.49 142.02 140.90 141.09 140.59 140.26 C 140.27 139.43 139.33 139.01 138.50 139.33 L 137.57 139.69 C 136.74 140.01 136.32 140.95 136.64 141.78 C 136.96 142.61 137.90 143.02 138.73 142.70 Z M 139.67 142.33 L 140.60 141.97 C 141.43 141.64 141.84 140.71 141.51 139.89 C 141.19 139.06 140.26 138.65 139.43 138.98 L 138.50 139.34 C 137.67 139.66 137.26 140.60 137.59 141.42 C 137.91 142.25 138.84 142.66 139.67 142.33 Z M 140.61 141.96 L 141.54 141.59 C 142.36 141.26 142.76 140.33 142.43 139.51 C 142.11 138.69 141.18 138.29 140.35 138.61 L 139.42 138.98 C 138.60 139.31 138.20 140.24 138.53 141.06 C 138.85 141.89 139.79 142.29 140.61 141.96 Z M 141.55 141.58 L 142.47 141.21 C 143.29 140.88 143.69 139.94 143.35 139.13 C 143.02 138.31 142.09 137.91 141.27 138.24 L 140.34 138.62 C 139.53 138.95 139.13 139.88 139.46 140.70 C 139.80 141.52 140.73 141.92 141.55 141.58 Z M 142.48 141.20 L 143.42 140.81 C 144.23 140.47 144.62 139.54 144.28 138.73 C 143.95 137.92 143.01 137.53 142.20 137.87 L 141.26 138.25 C 140.45 138.59 140.06 139.52 140.40 140.34 C 140.74 141.15 141.67 141.54 142.48 141.20 Z M 143.43 140.80 L 144.36 140.41 C 145.16 140.07 145.54 139.14 145.20 138.33 C 144.86 137.52 143.93 137.14 143.12 137.48 L 142.19 137.88 C 141.38 138.22 141.01 139.15 141.35 139.96 C 141.69 140.76 142.62 141.14 143.43 140.80 Z M 144.36 140.40 L 145.28 140.01 C 146.08 139.66 146.46 138.73 146.11 137.93 C 145.77 137.12 144.84 136.75 144.03 137.10 L 143.11 137.49 C 142.31 137.84 141.94 138.77 142.28 139.57 C 142.63 140.37 143.56 140.74 144.36 140.40 Z M 145.29 140.00 L 146.20 139.60 C 146.99 139.25 147.36 138.32 147.01 137.53 C 146.66 136.73 145.73 136.36 144.94 136.71 L 144.03 137.11 C 143.23 137.45 142.86 138.38 143.21 139.18 C 143.56 139.98 144.49 140.34 145.29 140.00 Z M 146.20 139.59 L 147.10 139.20 C 147.89 138.84 148.25 137.92 147.90 137.12 C 147.55 136.33 146.63 135.97 145.83 136.32 L 144.93 136.72 C 144.14 137.07 143.78 138.00 144.13 138.79 C 144.48 139.58 145.41 139.94 146.20 139.59 Z M 147.10 139.19 L 148.04 138.77 C 148.83 138.42 149.18 137.49 148.83 136.70 C 148.48 135.91 147.55 135.56 146.76 135.91 L 145.83 136.33 C 145.04 136.68 144.69 137.61 145.04 138.40 C 145.39 139.18 146.32 139.54 147.10 139.19 Z M 148.04 138.76 L 148.97 138.34 C 149.75 137.99 150.10 137.07 149.75 136.28 C 149.40 135.50 148.47 135.15 147.69 135.50 L 146.76 135.92 C 145.98 136.28 145.63 137.20 145.98 137.98 C 146.34 138.77 147.26 139.11 148.04 138.76 Z M 148.97 138.33 L 149.89 137.92 C 150.67 137.56 151.01 136.64 150.65 135.86 C 150.30 135.08 149.38 134.74 148.60 135.09 L 147.69 135.51 C 146.91 135.87 146.56 136.79 146.92 137.57 C 147.27 138.35 148.19 138.69 148.97 138.33 Z M 149.89 137.91 L 150.79 137.49 C 151.56 137.14 151.90 136.22 151.54 135.45 C 151.19 134.67 150.27 134.33 149.49 134.69 L 148.60 135.10 C 147.82 135.46 147.48 136.38 147.84 137.15 C 148.20 137.93 149.12 138.26 149.89 137.91 Z M 150.79 137.48 L 151.67 137.07 C 152.44 136.72 152.77 135.80 152.41 135.03 C 152.05 134.26 151.14 133.93 150.37 134.29 L 149.49 134.70 C 148.72 135.06 148.39 135.97 148.75 136.74 C 149.11 137.51 150.02 137.84 150.79 137.48 Z M 151.67 137.07 L 152.58 136.64 C 153.35 136.28 153.67 135.36 153.31 134.60 C 152.95 133.84 152.04 133.51 151.28 133.87 L 150.37 134.30 C 149.60 134.66 149.28 135.57 149.64 136.33 C 150.00 137.10 150.91 137.43 151.67 137.07 Z M 152.59 136.63 L 153.49 136.19 C 154.25 135.83 154.57 134.92 154.21 134.16 C 153.84 133.41 152.94 133.08 152.18 133.45 L 151.27 133.88 C 150.52 134.24 150.19 135.15 150.56 135.91 C 150.92 136.67 151.83 136.99 152.59 136.63 Z M 153.49 136.18 L 154.39 135.75 C 155.14 135.39 155.46 134.48 155.09 133.73 C 154.73 132.97 153.82 132.66 153.07 133.02 L 152.17 133.46 C 151.42 133.82 151.11 134.73 151.47 135.48 C 151.83 136.23 152.74 136.55 153.49 136.18 Z M 154.39 135.74 L 155.28 135.30 C 156.03 134.94 156.34 134.03 155.97 133.29 C 155.60 132.54 154.70 132.23 153.95 132.60 L 153.06 133.03 C 152.31 133.40 152.01 134.31 152.37 135.05 C 152.74 135.80 153.64 136.11 154.39 135.74 Z M 155.29 135.29 L 156.19 134.85 C 156.93 134.48 157.23 133.58 156.86 132.84 C 156.49 132.09 155.59 131.79 154.85 132.16 L 153.95 132.61 C 153.21 132.98 152.91 133.88 153.27 134.62 C 153.64 135.36 154.54 135.66 155.29 135.29 Z M 156.19 134.84 L 157.11 134.37 C 157.85 134.00 158.15 133.10 157.77 132.37 C 157.40 131.63 156.50 131.33 155.77 131.70 L 154.84 132.17 C 154.11 132.54 153.81 133.44 154.18 134.18 C 154.55 134.91 155.45 135.21 156.19 134.84 Z M 157.11 134.36 L 158.03 133.90 C 158.76 133.52 159.06 132.63 158.68 131.90 C 158.31 131.17 157.41 130.87 156.68 131.25 L 155.77 131.71 C 155.03 132.09 154.74 132.98 155.12 133.71 C 155.49 134.45 156.38 134.74 157.11 134.36 Z M 158.03 133.89 L 158.93 133.43 C 159.66 133.06 159.94 132.16 159.57 131.44 C 159.20 130.71 158.30 130.42 157.58 130.80 L 156.68 131.25 C 155.95 131.63 155.67 132.52 156.04 133.25 C 156.41 133.97 157.31 134.26 158.03 133.89 Z M 158.93 133.42 L 159.79 132.98 C 160.51 132.61 160.79 131.72 160.42 130.99 C 160.05 130.27 159.16 129.99 158.43 130.36 L 157.58 130.80 C 156.85 131.18 156.57 132.06 156.94 132.79 C 157.32 133.51 158.21 133.80 158.93 133.42 Z M 159.78 132.97 L 160.64 132.53 C 161.36 132.16 161.64 131.27 161.27 130.55 C 160.90 129.83 160.01 129.55 159.29 129.92 L 158.43 130.37 C 157.72 130.74 157.43 131.63 157.81 132.35 C 158.18 133.06 159.06 133.35 159.78 132.97 Z M 160.65 132.52 L 161.50 132.07 C 162.22 131.69 162.49 130.81 162.12 130.09 C 161.74 129.38 160.86 129.11 160.14 129.48 L 159.29 129.93 C 158.57 130.31 158.30 131.19 158.68 131.91 C 159.05 132.62 159.93 132.89 160.65 132.52 Z M 161.52 132.05 L 162.37 131.59 C 163.07 131.20 163.33 130.32 162.95 129.62 C 162.56 128.91 161.68 128.65 160.97 129.04 L 160.13 129.50 C 159.42 129.88 159.16 130.77 159.55 131.47 C 159.93 132.18 160.82 132.44 161.52 132.05 Z M 162.39 131.57 L 163.27 131.06 C 163.96 130.66 164.20 129.78 163.80 129.08 C 163.41 128.39 162.52 128.15 161.83 128.55 L 160.95 129.06 C 160.25 129.46 160.02 130.34 160.42 131.04 C 160.81 131.73 161.70 131.97 162.39 131.57 Z M 163.30 131.04 L 164.16 130.51 C 164.84 130.10 165.06 129.21 164.64 128.53 C 164.23 127.85 163.34 127.64 162.66 128.05 L 161.80 128.57 C 161.12 128.99 160.90 129.87 161.32 130.56 C 161.73 131.24 162.62 131.45 163.30 131.04 Z M 164.19 130.49 L 165.00 129.97 C 165.67 129.54 165.86 128.65 165.43 127.98 C 165.00 127.31 164.11 127.12 163.44 127.55 L 162.63 128.07 C 161.97 128.50 161.77 129.39 162.20 130.06 C 162.63 130.73 163.52 130.92 164.19 130.49 Z M 165.04 129.94 L 165.87 129.37 C 166.52 128.92 166.68 128.02 166.23 127.37 C 165.78 126.72 164.89 126.55 164.24 127.01 L 163.41 127.58 C 162.75 128.03 162.59 128.93 163.04 129.58 C 163.49 130.23 164.39 130.39 165.04 129.94 Z M 165.92 129.33 L 166.74 128.70 C 167.37 128.23 167.49 127.33 167.02 126.70 C 166.54 126.07 165.64 125.94 165.01 126.42 L 164.19 127.04 C 163.56 127.52 163.43 128.42 163.91 129.05 C 164.39 129.68 165.29 129.81 165.92 129.33 Z M 166.80 128.65 L 167.58 127.98 C 168.18 127.47 168.26 126.57 167.74 125.97 C 167.23 125.37 166.33 125.30 165.73 125.81 L 164.95 126.48 C 164.35 126.99 164.28 127.89 164.79 128.49 C 165.30 129.09 166.20 129.16 166.80 128.65 Z M 167.66 127.91 L 168.39 127.19 C 168.95 126.63 168.95 125.73 168.39 125.17 C 167.84 124.61 166.93 124.61 166.37 125.16 L 165.65 125.88 C 165.09 126.44 165.09 127.34 165.64 127.90 C 166.20 128.46 167.10 128.46 167.66 127.91 Z M 168.47 127.10 L 169.13 126.31 C 169.64 125.71 169.56 124.81 168.96 124.30 C 168.36 123.80 167.46 123.87 166.95 124.47 L 166.29 125.26 C 165.78 125.86 165.86 126.76 166.46 127.27 C 167.06 127.77 167.96 127.70 168.47 127.10 Z M 169.19 126.23 L 169.78 125.42 C 170.24 124.78 170.10 123.89 169.46 123.43 C 168.82 122.97 167.93 123.11 167.47 123.75 L 166.88 124.56 C 166.42 125.20 166.57 126.09 167.20 126.55 C 167.84 127.01 168.73 126.87 169.19 126.23 Z M 169.82 125.36 L 170.36 124.53 C 170.78 123.86 170.59 122.98 169.93 122.56 C 169.27 122.13 168.39 122.32 167.96 122.98 L 167.43 123.81 C 167.00 124.48 167.19 125.36 167.85 125.78 C 168.52 126.21 169.40 126.02 169.82 125.36 Z M 170.38 124.48 L 170.89 123.64 C 171.29 122.97 171.07 122.09 170.39 121.69 C 169.72 121.28 168.84 121.51 168.44 122.18 L 167.94 123.02 C 167.53 123.70 167.75 124.57 168.43 124.98 C 169.10 125.38 169.98 125.16 170.38 124.48 Z M 170.89 123.63 L 171.14 123.21 C 171.53 122.53 171.30 121.66 170.62 121.26 C 169.94 120.87 169.07 121.10 168.67 121.78 L 168.43 122.19 C 168.03 122.88 168.27 123.75 168.95 124.14 C 169.63 124.54 170.50 124.31 170.89 123.63 Z"
      fill="black"
      fill-rule="nonzero" /><path d="M 143.96 108.98 L 143.69 109.95 C 143.46 110.76 143.93 111.60 144.74 111.83 C 145.56 112.06 146.40 111.59 146.63 110.78 L 146.90 109.81 C 147.13 109.00 146.66 108.16 145.85 107.93 C 145.03 107.70 144.19 108.17 143.96 108.98 Z M 143.66 109.97 L 143.41 110.94 C 143.20 111.77 143.69 112.61 144.52 112.83 C 145.35 113.04 146.19 112.54 146.41 111.72 L 146.66 110.75 C 146.87 109.92 146.37 109.08 145.55 108.86 C 144.72 108.65 143.88 109.15 143.66 109.97 Z M 143.38 111.00 L 143.17 111.98 C 142.99 112.82 143.53 113.65 144.37 113.83 C 145.22 114.02 146.05 113.48 146.23 112.63 L 146.44 111.66 C 146.62 110.81 146.08 109.98 145.24 109.80 C 144.39 109.62 143.56 110.16 143.38 111.00 Z M 143.14 112.07 L 142.99 113.05 C 142.86 113.91 143.46 114.71 144.32 114.84 C 145.19 114.97 145.99 114.37 146.12 113.51 L 146.26 112.54 C 146.39 111.67 145.79 110.87 144.93 110.74 C 144.07 110.61 143.26 111.21 143.14 112.07 Z M 142.97 113.17 L 142.90 114.06 C 142.84 114.94 143.50 115.70 144.38 115.76 C 145.25 115.83 146.02 115.17 146.08 114.29 L 146.14 113.39 C 146.20 112.52 145.54 111.75 144.67 111.69 C 143.79 111.63 143.03 112.29 142.97 113.17 Z M 142.89 114.19 L 142.90 115.13 C 142.91 116.01 143.63 116.72 144.51 116.72 C 145.39 116.71 146.10 115.99 146.10 115.11 L 146.09 114.17 C 146.08 113.28 145.36 112.57 144.48 112.58 C 143.60 112.59 142.89 113.31 142.89 114.19 Z M 142.90 115.25 L 142.98 116.26 C 143.05 117.15 143.83 117.80 144.71 117.73 C 145.60 117.66 146.25 116.88 146.18 116.00 L 146.10 114.99 C 146.02 114.10 145.25 113.45 144.37 113.52 C 143.48 113.59 142.83 114.37 142.90 115.25 Z M 142.99 116.37 L 143.15 117.48 C 143.29 118.36 144.11 118.96 144.99 118.83 C 145.87 118.70 146.47 117.88 146.34 117.00 L 146.17 115.89 C 146.04 115.01 145.22 114.41 144.34 114.54 C 143.46 114.67 142.86 115.49 142.99 116.37 Z M 143.16 117.56 L 143.36 118.52 C 143.54 119.40 144.39 119.96 145.26 119.79 C 146.14 119.61 146.71 118.75 146.53 117.88 L 146.33 116.92 C 146.16 116.04 145.30 115.48 144.43 115.65 C 143.55 115.83 142.99 116.68 143.16 117.56 Z M 143.36 118.57 L 143.59 119.53 C 143.79 120.40 144.67 120.94 145.54 120.74 C 146.41 120.53 146.95 119.66 146.75 118.79 L 146.52 117.83 C 146.32 116.96 145.44 116.41 144.57 116.62 C 143.70 116.83 143.16 117.70 143.36 118.57 Z M 143.59 119.56 L 143.84 120.55 C 144.07 121.42 144.96 121.95 145.83 121.73 C 146.70 121.50 147.23 120.61 147.00 119.74 L 146.75 118.75 C 146.52 117.88 145.63 117.35 144.76 117.58 C 143.89 117.80 143.36 118.69 143.59 119.56 Z M 143.84 120.58 L 144.11 121.57 C 144.35 122.45 145.25 122.96 146.12 122.72 C 147.00 122.49 147.51 121.59 147.27 120.72 L 147.00 119.72 C 146.77 118.84 145.87 118.33 144.99 118.57 C 144.12 118.80 143.61 119.70 143.84 120.58 Z M 144.11 121.59 L 144.39 122.58 C 144.63 123.45 145.54 123.96 146.41 123.72 C 147.29 123.47 147.80 122.56 147.55 121.69 L 147.28 120.70 C 147.03 119.83 146.13 119.32 145.25 119.56 C 144.38 119.81 143.87 120.71 144.11 121.59 Z M 144.38 122.58 L 144.65 123.53 C 144.90 124.41 145.81 124.92 146.69 124.68 C 147.56 124.43 148.07 123.52 147.83 122.64 L 147.56 121.69 C 147.31 120.81 146.40 120.30 145.52 120.54 C 144.65 120.79 144.13 121.70 144.38 122.58 Z M 144.65 123.53 L 144.93 124.57 C 145.18 125.45 146.09 125.96 146.97 125.72 C 147.85 125.47 148.36 124.56 148.12 123.68 L 147.83 122.64 C 147.59 121.76 146.68 121.25 145.80 121.49 C 144.92 121.74 144.40 122.65 144.65 123.53 Z M 144.93 124.56 L 145.20 125.54 C 145.44 126.42 146.35 126.94 147.23 126.70 C 148.11 126.46 148.63 125.56 148.39 124.67 L 148.12 123.69 C 147.88 122.81 146.97 122.29 146.09 122.53 C 145.21 122.77 144.69 123.68 144.93 124.56 Z M 145.20 125.53 L 145.45 126.48 C 145.68 127.37 146.59 127.89 147.47 127.66 C 148.36 127.42 148.88 126.52 148.65 125.63 L 148.39 124.68 C 148.16 123.80 147.25 123.28 146.37 123.51 C 145.49 123.74 144.96 124.65 145.20 125.53 Z M 145.45 126.47 L 145.69 127.40 C 145.92 128.29 146.82 128.82 147.70 128.59 C 148.59 128.36 149.12 127.46 148.89 126.57 L 148.65 125.64 C 148.42 124.76 147.52 124.23 146.63 124.46 C 145.75 124.69 145.22 125.59 145.45 126.47 Z M 145.69 127.40 L 145.92 128.33 C 146.15 129.21 147.05 129.75 147.93 129.52 C 148.82 129.30 149.35 128.40 149.13 127.51 L 148.89 126.58 C 148.67 125.70 147.77 125.16 146.88 125.39 C 146.00 125.61 145.46 126.51 145.69 127.40 Z M 145.92 128.32 L 146.15 129.24 C 146.37 130.13 147.26 130.67 148.15 130.45 C 149.04 130.23 149.58 129.34 149.36 128.45 L 149.13 127.52 C 148.91 126.63 148.01 126.09 147.13 126.31 C 146.24 126.53 145.70 127.43 145.92 128.32 Z M 146.14 129.24 L 146.37 130.18 C 146.58 131.07 147.48 131.62 148.37 131.40 C 149.27 131.19 149.81 130.29 149.60 129.40 L 149.37 128.46 C 149.15 127.56 148.25 127.02 147.36 127.23 C 146.47 127.45 145.92 128.35 146.14 129.24 Z M 146.36 130.17 L 146.59 131.14 C 146.80 132.03 147.70 132.59 148.59 132.38 C 149.49 132.17 150.04 131.27 149.83 130.37 L 149.60 129.41 C 149.39 128.51 148.49 127.96 147.60 128.17 C 146.70 128.38 146.15 129.28 146.36 130.17 Z M 146.58 131.13 L 146.81 132.12 C 147.02 133.02 147.92 133.58 148.82 133.38 C 149.71 133.17 150.27 132.27 150.07 131.37 L 149.84 130.38 C 149.63 129.48 148.74 128.92 147.84 129.13 C 146.94 129.34 146.38 130.23 146.58 131.13 Z M 146.81 132.11 L 147.03 133.13 C 147.24 134.04 148.13 134.60 149.04 134.40 C 149.94 134.20 150.51 133.30 150.30 132.40 L 150.07 131.38 C 149.87 130.48 148.98 129.91 148.07 130.11 C 147.17 130.32 146.60 131.21 146.81 132.11 Z M 147.03 133.12 L 147.24 134.08 C 147.44 134.98 148.33 135.56 149.24 135.36 C 150.14 135.16 150.71 134.27 150.52 133.36 L 150.31 132.41 C 150.11 131.50 149.22 130.93 148.31 131.13 C 147.40 131.32 146.83 132.22 147.03 133.12 Z M 147.23 134.07 L 147.43 135.01 C 147.63 135.92 148.52 136.50 149.43 136.30 C 150.34 136.11 150.92 135.21 150.72 134.31 L 150.52 133.37 C 150.33 132.46 149.43 131.88 148.53 132.07 C 147.62 132.27 147.04 133.16 147.23 134.07 Z M 147.43 135.00 L 147.63 135.96 C 147.82 136.87 148.71 137.46 149.62 137.27 C 150.53 137.08 151.12 136.18 150.93 135.27 L 150.73 134.31 C 150.54 133.40 149.64 132.82 148.73 133.01 C 147.82 133.20 147.24 134.09 147.43 135.00 Z M 147.62 135.95 L 147.82 136.94 C 148.01 137.85 148.90 138.44 149.81 138.26 C 150.73 138.07 151.32 137.18 151.13 136.27 L 150.93 135.28 C 150.75 134.37 149.85 133.78 148.94 133.96 C 148.03 134.15 147.44 135.04 147.62 135.95 Z M 147.82 136.93 L 148.02 137.94 C 148.20 138.85 149.09 139.45 150.00 139.27 C 150.92 139.09 151.52 138.20 151.33 137.28 L 151.13 136.27 C 150.95 135.36 150.06 134.76 149.15 134.94 C 148.23 135.12 147.64 136.01 147.82 136.93 Z M 148.01 137.93 L 148.21 138.97 C 148.39 139.88 149.28 140.48 150.20 140.31 C 151.12 140.13 151.72 139.24 151.54 138.32 L 151.34 137.29 C 151.16 136.37 150.27 135.77 149.35 135.95 C 148.44 136.12 147.83 137.01 148.01 137.93 Z M 148.21 138.96 L 148.39 139.94 C 148.57 140.86 149.45 141.47 150.38 141.29 C 151.30 141.12 151.90 140.23 151.73 139.31 L 151.54 138.33 C 151.37 137.41 150.48 136.80 149.56 136.98 C 148.64 137.15 148.03 138.04 148.21 138.96 Z M 148.39 139.93 L 148.57 140.91 C 148.74 141.83 149.62 142.44 150.55 142.27 C 151.47 142.10 152.08 141.22 151.91 140.29 L 151.73 139.32 C 151.56 138.40 150.68 137.79 149.75 137.96 C 148.83 138.13 148.22 139.01 148.39 139.93 Z M 148.56 140.90 L 148.74 141.89 C 148.91 142.81 149.79 143.43 150.72 143.26 C 151.64 143.10 152.26 142.21 152.09 141.29 L 151.91 140.30 C 151.75 139.38 150.86 138.76 149.94 138.93 C 149.01 139.09 148.40 139.98 148.56 140.90 Z M 148.74 141.88 L 148.91 142.87 C 149.07 143.80 149.96 144.42 150.88 144.26 C 151.81 144.10 152.43 143.22 152.27 142.29 L 152.10 141.30 C 151.93 140.37 151.05 139.75 150.12 139.91 C 149.20 140.07 148.58 140.95 148.74 141.88 Z M 148.91 142.87 L 149.08 143.86 C 149.23 144.79 150.11 145.42 151.04 145.26 C 151.97 145.10 152.60 144.22 152.44 143.29 L 152.27 142.30 C 152.12 141.37 151.24 140.74 150.31 140.90 C 149.38 141.06 148.75 141.94 148.91 142.87 Z M 149.07 143.85 L 149.23 144.85 C 149.38 145.78 150.26 146.41 151.19 146.26 C 152.12 146.11 152.76 145.23 152.61 144.30 L 152.44 143.30 C 152.29 142.37 151.42 141.74 150.48 141.89 C 149.55 142.04 148.92 142.92 149.07 143.85 Z M 149.23 144.84 L 149.38 145.83 C 149.53 146.76 150.40 147.40 151.34 147.25 C 152.27 147.11 152.91 146.23 152.76 145.30 L 152.61 144.31 C 152.46 143.37 151.59 142.74 150.66 142.88 C 149.72 143.03 149.08 143.90 149.23 144.84 Z M 149.38 145.81 L 149.53 146.82 C 149.67 147.76 150.54 148.41 151.47 148.27 C 152.41 148.13 153.06 147.26 152.92 146.32 L 152.77 145.31 C 152.63 144.37 151.76 143.73 150.82 143.87 C 149.89 144.01 149.24 144.88 149.38 145.81 Z M 149.52 146.81 L 149.66 147.81 C 149.79 148.75 150.66 149.40 151.60 149.27 C 152.54 149.14 153.20 148.27 153.07 147.33 L 152.92 146.33 C 152.79 145.39 151.92 144.74 150.98 144.87 C 150.04 145.00 149.39 145.87 149.52 146.81 Z M 149.66 147.80 L 149.79 148.79 C 149.92 149.73 150.78 150.39 151.73 150.27 C 152.67 150.14 153.33 149.27 153.20 148.33 L 153.07 147.34 C 152.94 146.39 152.08 145.73 151.13 145.86 C 150.19 145.99 149.53 146.85 149.66 147.80 Z M 149.78 148.78 L 149.91 149.76 C 150.03 150.71 150.90 151.38 151.84 151.26 C 152.79 151.13 153.46 150.27 153.34 149.32 L 153.21 148.34 C 153.09 147.39 152.22 146.72 151.28 146.84 C 150.33 146.97 149.66 147.83 149.78 148.78 Z M 149.91 149.76 L 150.03 150.74 C 150.14 151.69 151.01 152.36 151.96 152.24 C 152.91 152.13 153.58 151.26 153.46 150.31 L 153.34 149.33 C 153.23 148.38 152.36 147.71 151.41 147.82 C 150.46 147.94 149.79 148.81 149.91 149.76 Z M 150.02 150.73 L 150.14 151.71 C 150.25 152.67 151.11 153.35 152.07 153.23 C 153.02 153.12 153.70 152.26 153.59 151.30 L 153.47 150.32 C 153.36 149.37 152.49 148.69 151.54 148.80 C 150.59 148.92 149.91 149.78 150.02 150.73 Z M 150.13 151.71 L 150.25 152.69 C 150.36 153.65 151.22 154.33 152.17 154.22 C 153.13 154.11 153.81 153.25 153.70 152.30 L 153.59 151.31 C 153.48 150.36 152.62 149.67 151.66 149.78 C 150.71 149.89 150.02 150.75 150.13 151.71 Z M 150.24 152.69 L 150.35 153.67 C 150.46 154.63 151.32 155.32 152.28 155.22 C 153.23 155.11 153.92 154.25 153.82 153.29 L 153.71 152.30 C 153.60 151.34 152.74 150.65 151.78 150.76 C 150.83 150.87 150.14 151.73 150.24 152.69 Z M 150.35 153.67 L 150.45 154.66 C 150.55 155.62 151.41 156.31 152.37 156.21 C 153.33 156.11 154.03 155.25 153.93 154.29 L 153.82 153.30 C 153.72 152.34 152.86 151.64 151.90 151.74 C 150.94 151.85 150.24 152.71 150.35 153.67 Z M 150.45 154.65 L 150.55 155.65 C 150.65 156.61 151.50 157.31 152.47 157.21 C 153.43 157.12 154.13 156.26 154.03 155.29 L 153.93 154.30 C 153.84 153.34 152.98 152.63 152.01 152.73 C 151.05 152.83 150.35 153.69 150.45 154.65 Z M 150.54 155.64 L 150.64 156.64 C 150.73 157.60 151.59 158.31 152.55 158.22 C 153.52 158.12 154.23 157.27 154.13 156.30 L 154.04 155.30 C 153.95 154.34 153.09 153.63 152.12 153.72 C 151.16 153.81 150.45 154.67 150.54 155.64 Z M 150.63 156.63 L 150.72 157.63 C 150.81 158.59 151.67 159.31 152.63 159.22 C 153.60 159.14 154.32 158.28 154.23 157.31 L 154.14 156.31 C 154.05 155.34 153.20 154.63 152.23 154.72 C 151.26 154.80 150.55 155.66 150.63 156.63 Z M 150.72 157.62 L 150.80 158.62 C 150.88 159.59 151.74 160.31 152.71 160.23 C 153.68 160.15 154.40 159.29 154.32 158.32 L 154.23 157.32 C 154.15 156.35 153.30 155.63 152.33 155.71 C 151.36 155.79 150.64 156.65 150.72 157.62 Z M 150.80 158.61 L 150.87 159.60 C 150.95 160.58 151.80 161.30 152.77 161.23 C 153.74 161.15 154.47 160.30 154.40 159.33 L 154.32 158.33 C 154.25 157.36 153.40 156.63 152.42 156.71 C 151.45 156.78 150.72 157.63 150.80 158.61 Z M 150.87 159.59 L 150.94 160.59 C 151.01 161.57 151.86 162.30 152.83 162.23 C 153.81 162.16 154.54 161.32 154.47 160.34 L 154.40 159.34 C 154.33 158.37 153.49 157.63 152.51 157.70 C 151.54 157.77 150.80 158.62 150.87 159.59 Z M 150.94 160.58 L 151.00 161.58 C 151.07 162.56 151.91 163.30 152.89 163.24 C 153.87 163.17 154.61 162.33 154.54 161.35 L 154.48 160.35 C 154.41 159.37 153.57 158.63 152.59 158.70 C 151.61 158.76 150.87 159.60 150.94 160.58 Z M 151.00 161.57 L 151.06 162.57 C 151.12 163.55 151.96 164.30 152.94 164.24 C 153.92 164.18 154.67 163.34 154.61 162.36 L 154.55 161.36 C 154.49 160.38 153.64 159.63 152.66 159.69 C 151.68 159.75 150.94 160.59 151.00 161.57 Z M 151.06 162.57 L 151.11 163.56 C 151.17 164.55 152.01 165.30 152.99 165.24 C 153.97 165.18 154.73 164.34 154.67 163.36 L 154.61 162.36 C 154.56 161.38 153.71 160.63 152.73 160.69 C 151.75 160.74 151.00 161.58 151.06 162.57 Z M 151.11 163.56 L 151.16 164.55 C 151.22 165.54 152.06 166.29 153.04 166.24 C 154.02 166.19 154.78 165.35 154.73 164.36 L 154.67 163.37 C 154.62 162.38 153.78 161.63 152.80 161.68 C 151.81 161.73 151.06 162.57 151.11 163.56 Z M 151.16 164.55 L 151.21 165.57 C 151.26 166.55 152.10 167.31 153.09 167.26 C 154.07 167.21 154.83 166.37 154.78 165.39 L 154.73 164.37 C 154.68 163.38 153.84 162.62 152.85 162.67 C 151.87 162.72 151.11 163.56 151.16 164.55 Z M 151.21 165.56 L 151.25 166.57 C 151.30 167.56 152.14 168.32 153.13 168.28 C 154.11 168.23 154.88 167.39 154.83 166.41 L 154.78 165.39 C 154.74 164.40 153.90 163.64 152.91 163.69 C 151.92 163.73 151.16 164.57 151.21 165.56 Z M 151.25 166.57 L 151.29 167.57 C 151.34 168.56 152.17 169.33 153.16 169.29 C 154.15 169.25 154.92 168.41 154.88 167.42 L 154.83 166.41 C 154.79 165.42 153.96 164.65 152.97 164.70 C 151.98 164.74 151.21 165.58 151.25 166.57 Z M 151.29 167.57 L 151.33 168.56 C 151.37 169.56 152.20 170.33 153.19 170.29 C 154.18 170.25 154.96 169.42 154.92 168.43 L 154.88 167.43 C 154.84 166.44 154.01 165.66 153.02 165.70 C 152.03 165.74 151.25 166.57 151.29 167.57 Z M 151.32 168.56 L 151.36 169.55 C 151.39 170.54 152.22 171.32 153.22 171.29 C 154.21 171.25 154.99 170.42 154.96 169.43 L 154.92 168.44 C 154.89 167.44 154.06 166.66 153.06 166.70 C 152.07 166.73 151.29 167.56 151.32 168.56 Z M 151.35 169.54 L 151.38 170.51 C 151.41 171.51 152.24 172.29 153.23 172.27 C 154.23 172.24 155.01 171.41 154.99 170.42 L 154.96 169.44 C 154.93 168.44 154.10 167.66 153.11 167.68 C 152.11 167.71 151.33 168.54 151.35 169.54 Z M 151.38 170.50 L 151.40 171.51 C 151.42 172.50 152.24 173.30 153.24 173.28 C 154.24 173.25 155.03 172.43 155.01 171.43 L 154.99 170.43 C 154.97 169.43 154.14 168.64 153.15 168.66 C 152.15 168.68 151.36 169.50 151.38 170.50 Z M 151.39 171.50 L 151.41 172.51 C 151.42 173.51 152.25 174.31 153.24 174.29 C 154.24 174.28 155.04 173.46 155.03 172.46 L 155.01 171.44 C 155.00 170.44 154.18 169.65 153.18 169.66 C 152.18 169.68 151.38 170.50 151.39 171.50 Z M 151.41 172.50 L 151.42 173.50 C 151.43 174.50 152.24 175.31 153.24 175.30 C 154.25 175.29 155.05 174.47 155.04 173.47 L 155.03 172.47 C 155.02 171.47 154.20 170.66 153.20 170.67 C 152.20 170.68 151.40 171.50 151.41 172.50 Z M 151.41 173.50 L 151.42 174.49 C 151.42 175.49 152.24 176.30 153.24 176.30 C 154.24 176.29 155.05 175.48 155.05 174.47 L 155.04 173.48 C 155.04 172.48 154.22 171.67 153.22 171.67 C 152.22 171.68 151.41 172.49 151.41 173.50 Z M 151.42 174.49 L 151.42 175.48 C 151.42 176.48 152.24 177.29 153.24 177.29 C 154.24 177.29 155.05 176.47 155.05 175.47 L 155.05 174.48 C 155.05 173.48 154.23 172.66 153.23 172.67 C 152.23 172.67 151.41 173.48 151.42 174.49 Z M 151.42 175.47 L 151.42 176.46 C 151.42 177.46 152.23 178.28 153.24 178.28 C 154.24 178.28 155.06 177.46 155.05 176.46 L 155.05 175.47 C 155.05 174.47 154.24 173.65 153.23 173.65 C 152.23 173.65 151.42 174.47 151.42 175.47 Z M 151.41 176.46 L 151.41 177.50 C 151.41 178.50 152.23 179.32 153.24 179.32 C 154.24 179.32 155.06 178.50 155.06 177.50 L 155.06 176.46 C 155.06 175.45 154.24 174.64 153.24 174.64 C 152.23 174.64 151.41 175.45 151.41 176.46 Z M 151.41 177.50 L 151.41 178.55 C 151.41 179.55 152.23 180.37 153.24 180.37 C 154.24 180.37 155.06 179.55 155.06 178.55 L 155.06 177.50 C 155.06 176.49 154.24 175.67 153.24 175.67 C 152.23 175.67 151.41 176.49 151.41 177.50 Z M 151.41 178.55 L 151.41 179.58 C 151.41 180.59 152.23 181.40 153.24 181.40 C 154.24 181.40 155.06 180.59 155.06 179.58 L 155.06 178.55 C 155.06 177.54 154.24 176.72 153.24 176.72 C 152.23 176.72 151.41 177.54 151.41 178.55 Z M 151.41 179.58 L 151.41 180.57 C 151.41 181.58 152.23 182.40 153.24 182.40 C 154.25 182.40 155.06 181.58 155.06 180.57 L 155.06 179.58 C 155.06 178.57 154.25 177.75 153.24 177.75 C 152.23 177.75 151.41 178.57 151.41 179.58 Z M 151.40 180.57 L 151.40 181.53 C 151.40 182.54 152.22 183.36 153.24 183.36 C 154.25 183.36 155.07 182.54 155.07 181.53 L 155.07 180.57 C 155.07 179.56 154.25 178.74 153.24 178.74 C 152.22 178.74 151.40 179.56 151.40 180.57 Z M 151.40 181.53 L 151.40 182.49 C 151.40 183.51 152.22 184.33 153.24 184.33 C 154.25 184.33 155.07 183.51 155.07 182.49 L 155.07 181.53 C 155.07 180.51 154.25 179.69 153.24 179.69 C 152.22 179.69 151.40 180.51 151.40 181.53 Z M 151.40 182.49 L 151.40 183.60 C 151.40 184.62 152.22 185.44 153.24 185.44 C 154.25 185.44 155.07 184.62 155.07 183.60 L 155.07 182.49 C 155.07 181.48 154.25 180.66 153.24 180.66 C 152.22 180.66 151.40 181.48 151.40 182.49 Z M 151.40 183.60 L 151.40 184.61 C 151.40 185.63 152.22 186.45 153.24 186.45 C 154.25 186.45 155.07 185.63 155.07 184.61 L 155.07 183.60 C 155.07 182.59 154.25 181.76 153.24 181.76 C 152.22 181.76 151.40 182.59 151.40 183.60 Z M 151.40 184.61 L 151.40 185.55 C 151.40 186.57 152.22 187.39 153.24 187.39 C 154.25 187.39 155.08 186.57 155.08 185.55 L 155.08 184.61 C 155.08 183.60 154.25 182.77 153.24 182.77 C 152.22 182.77 151.40 183.60 151.40 184.61 Z M 151.39 185.55 L 151.39 186.45 C 151.39 187.47 152.22 188.29 153.24 188.29 C 154.25 188.29 155.08 187.47 155.08 186.45 L 155.08 185.55 C 155.08 184.53 154.25 183.71 153.24 183.71 C 152.22 183.71 151.39 184.53 151.39 185.55 Z M 151.39 186.44 L 151.39 187.41 C 151.38 188.43 152.21 189.26 153.22 189.27 C 154.24 189.27 155.07 188.45 155.08 187.43 L 155.08 186.46 C 155.08 185.44 154.26 184.61 153.24 184.61 C 152.22 184.60 151.40 185.43 151.39 186.44 Z M 151.39 187.38 L 151.36 188.35 C 151.34 189.37 152.15 190.22 153.17 190.24 C 154.19 190.26 155.03 189.45 155.06 188.44 L 155.08 187.46 C 155.10 186.44 154.29 185.60 153.27 185.58 C 152.25 185.55 151.41 186.36 151.39 187.38 Z M 151.36 188.30 L 151.31 189.32 C 151.26 190.34 152.04 191.21 153.06 191.26 C 154.08 191.32 154.95 190.54 155.00 189.52 L 155.05 188.49 C 155.11 187.47 154.33 186.60 153.31 186.55 C 152.29 186.50 151.42 187.28 151.36 188.30 Z M 151.31 189.26 L 151.23 190.26 C 151.14 191.27 151.89 192.17 152.90 192.26 C 153.92 192.35 154.82 191.60 154.91 190.58 L 155.00 189.58 C 155.09 188.57 154.34 187.67 153.32 187.58 C 152.30 187.49 151.40 188.24 151.31 189.26 Z M 151.23 190.19 L 151.11 191.18 C 150.98 192.20 151.70 193.12 152.72 193.25 C 153.73 193.37 154.65 192.65 154.78 191.64 L 154.90 190.65 C 155.03 189.63 154.31 188.71 153.30 188.58 C 152.28 188.46 151.36 189.18 151.23 190.19 Z M 151.12 191.11 L 150.95 192.12 C 150.79 193.13 151.47 194.08 152.48 194.25 C 153.48 194.41 154.44 193.73 154.60 192.72 L 154.77 191.71 C 154.93 190.70 154.25 189.75 153.24 189.59 C 152.24 189.42 151.28 190.10 151.12 191.11 Z M 150.97 192.03 L 150.76 193.02 C 150.54 194.02 151.18 195.01 152.17 195.22 C 153.17 195.44 154.16 194.80 154.37 193.80 L 154.58 192.81 C 154.80 191.81 154.16 190.83 153.17 190.61 C 152.17 190.40 151.18 191.04 150.97 192.03 Z M 150.79 192.90 L 150.50 193.91 C 150.22 194.89 150.79 195.91 151.77 196.19 C 152.75 196.47 153.77 195.91 154.05 194.92 L 154.34 193.92 C 154.62 192.94 154.05 191.92 153.07 191.64 C 152.09 191.35 151.07 191.92 150.79 192.90 Z M 150.57 193.72 L 150.17 194.69 C 149.78 195.64 150.23 196.71 151.18 197.10 C 152.12 197.49 153.20 197.03 153.59 196.09 L 153.99 195.11 C 154.37 194.17 153.92 193.09 152.98 192.70 C 152.03 192.32 150.95 192.77 150.57 193.72 Z M 150.32 194.40 L 149.80 195.22 C 149.25 196.08 149.51 197.22 150.37 197.77 C 151.23 198.31 152.37 198.06 152.92 197.20 L 153.44 196.38 C 153.98 195.52 153.73 194.38 152.86 193.83 C 152.00 193.29 150.86 193.54 150.32 194.40 Z M 150.09 194.87 L 149.42 195.50 C 148.68 196.20 148.65 197.37 149.35 198.11 C 150.05 198.85 151.21 198.88 151.95 198.18 L 152.62 197.55 C 153.36 196.85 153.40 195.69 152.70 194.94 C 152.00 194.20 150.83 194.17 150.09 194.87 Z M 149.85 195.21 L 149.05 195.62 C 148.15 196.08 147.79 197.19 148.25 198.09 C 148.71 198.99 149.82 199.35 150.72 198.89 L 151.52 198.48 C 152.43 198.02 152.78 196.91 152.32 196.01 C 151.86 195.10 150.76 194.75 149.85 195.21 Z M 149.41 195.49 L 148.48 195.74 C 147.51 196.00 146.93 197.00 147.19 197.98 C 147.45 198.95 148.45 199.53 149.42 199.27 L 150.35 199.02 C 151.33 198.76 151.90 197.76 151.64 196.78 C 151.38 195.81 150.39 195.23 149.41 195.49 Z M 148.71 195.71 L 147.68 195.85 C 146.69 195.98 146.00 196.89 146.13 197.88 C 146.26 198.87 147.17 199.57 148.16 199.43 L 149.19 199.30 C 150.18 199.17 150.87 198.26 150.74 197.27 C 150.61 196.28 149.70 195.58 148.71 195.71 Z M 147.81 195.85 L 146.75 195.92 C 145.76 195.98 145.01 196.84 145.07 197.82 C 145.14 198.81 145.99 199.56 146.98 199.50 L 148.04 199.43 C 149.02 199.37 149.77 198.51 149.71 197.53 C 149.65 196.54 148.80 195.79 147.81 195.85 Z M 146.81 195.95 L 145.88 195.98 C 144.91 196.01 144.15 196.82 144.18 197.79 C 144.21 198.76 145.02 199.52 145.99 199.49 L 146.92 199.47 C 147.89 199.44 148.65 198.62 148.62 197.65 C 148.59 196.68 147.78 195.92 146.81 195.95 Z M 145.95 196.03 L 145.00 196.02 C 144.05 196.02 143.28 196.77 143.27 197.72 C 143.27 198.66 144.03 199.43 144.97 199.44 L 145.92 199.44 C 146.87 199.45 147.64 198.69 147.65 197.75 C 147.65 196.81 146.89 196.04 145.95 196.03 Z M 145.08 196.08 L 144.07 196.02 C 143.16 195.96 142.38 196.66 142.32 197.58 C 142.27 198.49 142.97 199.27 143.88 199.33 L 144.89 199.38 C 145.80 199.44 146.58 198.74 146.64 197.83 C 146.69 196.91 145.99 196.13 145.08 196.08 Z M 144.16 196.07 L 143.10 195.95 C 142.21 195.85 141.42 196.48 141.32 197.36 C 141.21 198.25 141.85 199.04 142.73 199.15 L 143.79 199.27 C 144.68 199.37 145.47 198.74 145.58 197.86 C 145.68 196.97 145.05 196.18 144.16 196.07 Z M 143.18 196.00 L 142.17 195.83 C 141.32 195.68 140.50 196.25 140.36 197.11 C 140.21 197.96 140.78 198.77 141.63 198.92 L 142.64 199.09 C 143.50 199.24 144.31 198.67 144.46 197.82 C 144.60 196.96 144.03 196.15 143.18 196.00 Z M 142.23 195.87 L 141.25 195.65 C 140.42 195.47 139.60 196.00 139.41 196.83 C 139.23 197.66 139.76 198.49 140.59 198.67 L 141.57 198.88 C 142.41 199.06 143.23 198.53 143.41 197.70 C 143.59 196.87 143.06 196.05 142.23 195.87 Z M 141.29 195.68 L 140.29 195.43 C 139.48 195.23 138.65 195.72 138.45 196.54 C 138.24 197.36 138.74 198.18 139.55 198.39 L 140.55 198.64 C 141.37 198.84 142.19 198.35 142.40 197.53 C 142.60 196.71 142.11 195.89 141.29 195.68 Z M 140.32 195.46 L 139.33 195.19 C 138.53 194.97 137.70 195.44 137.48 196.24 C 137.26 197.04 137.73 197.87 138.53 198.09 L 139.52 198.36 C 140.32 198.58 141.15 198.11 141.37 197.31 C 141.59 196.51 141.12 195.68 140.32 195.46 Z M 139.35 195.21 L 138.39 194.93 C 137.61 194.70 136.78 195.15 136.55 195.93 C 136.32 196.72 136.77 197.54 137.55 197.78 L 138.51 198.06 C 139.30 198.29 140.12 197.84 140.36 197.06 C 140.59 196.27 140.14 195.45 139.35 195.21 Z M 138.41 194.95 L 137.47 194.66 C 136.69 194.42 135.87 194.85 135.63 195.63 C 135.39 196.40 135.83 197.22 136.60 197.46 L 137.54 197.75 C 138.31 197.99 139.13 197.56 139.37 196.79 C 139.61 196.02 139.18 195.19 138.41 194.95 Z M 137.48 194.68 L 136.45 194.35 C 135.69 194.10 134.87 194.52 134.62 195.28 C 134.38 196.04 134.79 196.86 135.56 197.11 L 136.58 197.44 C 137.35 197.69 138.17 197.27 138.41 196.51 C 138.66 195.75 138.24 194.93 137.48 194.68 Z M 136.47 194.36 L 135.52 194.04 C 134.76 193.78 133.94 194.19 133.69 194.94 C 133.43 195.70 133.84 196.52 134.59 196.77 L 135.54 197.10 C 136.30 197.35 137.12 196.95 137.37 196.19 C 137.63 195.44 137.23 194.62 136.47 194.36 Z M 135.53 194.05 L 134.63 193.73 C 133.88 193.47 133.06 193.86 132.80 194.61 C 132.53 195.36 132.92 196.18 133.67 196.44 L 134.58 196.76 C 135.33 197.03 136.15 196.63 136.41 195.88 C 136.68 195.13 136.28 194.31 135.53 194.05 Z M 134.64 193.74 L 133.75 193.42 C 133.01 193.15 132.19 193.53 131.92 194.28 C 131.65 195.02 132.03 195.84 132.77 196.11 L 133.66 196.43 C 134.41 196.70 135.23 196.32 135.50 195.57 C 135.77 194.83 135.38 194.01 134.64 193.74 Z M 133.75 193.43 L 132.85 193.09 C 132.11 192.82 131.29 193.20 131.02 193.94 C 130.75 194.68 131.13 195.50 131.86 195.77 L 132.77 196.10 C 133.51 196.37 134.33 196.00 134.60 195.26 C 134.87 194.52 134.49 193.70 133.75 193.43 Z M 132.85 193.10 L 131.93 192.75 C 131.19 192.48 130.37 192.85 130.09 193.59 C 129.82 194.33 130.20 195.15 130.94 195.42 L 131.86 195.77 C 132.60 196.04 133.42 195.67 133.69 194.93 C 133.97 194.19 133.59 193.37 132.85 193.10 Z M 131.93 192.75 L 130.99 192.40 C 130.25 192.13 129.43 192.50 129.15 193.24 C 128.88 193.98 129.25 194.80 129.99 195.07 L 130.93 195.42 C 131.67 195.70 132.49 195.32 132.77 194.59 C 133.04 193.85 132.67 193.03 131.93 192.75 Z M 130.99 192.40 L 130.04 192.05 C 129.30 191.77 128.48 192.14 128.20 192.88 C 127.92 193.62 128.30 194.44 129.04 194.71 L 129.99 195.07 C 130.73 195.35 131.55 194.97 131.82 194.24 C 132.10 193.50 131.72 192.68 130.99 192.40 Z M 130.04 192.05 L 129.39 191.81 C 128.66 191.53 127.84 191.90 127.56 192.64 C 127.28 193.38 127.66 194.20 128.39 194.47 L 129.04 194.71 C 129.77 194.99 130.59 194.62 130.87 193.88 C 131.15 193.14 130.77 192.32 130.04 192.05 Z"
      fill="black"
      fill-rule="nonzero" /></svg>