<svg xmlns="http://www.w3.org/2000/svg" width="300" height="300" viewBox="0 0 300 300">
<path d="M 154.31 102.24 L 153.39 102.56 C 152.58 102.85 152.15 103.74 152.43 104.55 C 152.72 105.36 153.60 105.78 154.41 105.50 L 155.34 105.18 C 156.15 104.90 156.57 104.01 156.29 103.20 C 156.01 102.39 155.12 101.96 154.31 102.24 Z M 153.34 102.54 L 152.42 102.89 C 151.59 103.20 151.18 104.12 151.49 104.95 C 151.80 105.77 152.72 106.18 153.54 105.87 L 154.47 105.52 C 155.29 105.21 155.70 104.29 155.39 103.47 C 155.08 102.64 154.16 102.23 153.34 102.54 Z M 152.33 102.88 L 151.41 103.28 C 150.58 103.64 150.20 104.61 150.56 105.43 C 150.93 106.26 151.89 106.64 152.72 106.28 L 153.63 105.88 C 154.46 105.52 154.84 104.56 154.48 103.73 C 154.12 102.90 153.15 102.52 152.33 102.88 Z M 151.29 103.30 L 150.38 103.77 C 149.56 104.20 149.24 105.21 149.67 106.03 C 150.10 106.85 151.11 107.17 151.93 106.74 L 152.84 106.26 C 153.66 105.84 153.98 104.82 153.55 104.00 C 153.12 103.18 152.11 102.87 151.29 103.30 Z M 150.25 103.82 L 149.40 104.36 C 148.61 104.86 148.37 105.91 148.87 106.70 C 149.37 107.49 150.42 107.73 151.21 107.23 L 152.06 106.69 C 152.85 106.19 153.09 105.14 152.59 104.35 C 152.09 103.56 151.04 103.32 150.25 103.82 Z M 149.31 104.42 L 148.49 105.02 C 147.73 105.57 147.56 106.63 148.11 107.39 C 148.66 108.15 149.72 108.31 150.48 107.76 L 151.30 107.17 C 152.06 106.62 152.23 105.55 151.68 104.80 C 151.13 104.04 150.07 103.87 149.31 104.42 Z M 148.43 105.06 L 147.63 105.70 C 146.90 106.28 146.78 107.35 147.36 108.08 C 147.95 108.81 149.01 108.93 149.74 108.35 L 150.54 107.72 C 151.27 107.13 151.39 106.07 150.81 105.33 C 150.23 104.60 149.16 104.48 148.43 105.06 Z M 147.59 105.73 L 146.83 106.38 C 146.12 106.98 146.03 108.05 146.64 108.76 C 147.24 109.48 148.31 109.56 149.02 108.96 L 149.78 108.32 C 150.49 107.71 150.58 106.64 149.98 105.93 C 149.38 105.22 148.31 105.13 147.59 105.73 Z M 146.82 106.40 L 146.06 107.06 C 145.36 107.67 145.28 108.74 145.90 109.44 C 146.51 110.14 147.58 110.21 148.28 109.60 L 149.04 108.94 C 149.74 108.33 149.81 107.26 149.20 106.56 C 148.59 105.86 147.52 105.78 146.82 106.40 Z M 146.06 107.07 L 145.28 107.76 C 144.58 108.37 144.52 109.44 145.13 110.13 C 145.75 110.83 146.81 110.89 147.51 110.28 L 148.28 109.59 C 148.98 108.97 149.04 107.91 148.43 107.21 C 147.81 106.52 146.75 106.45 146.06 107.07 Z M 145.28 107.77 L 144.54 108.43 C 143.85 109.05 143.80 110.11 144.42 110.79 C 145.03 111.48 146.09 111.54 146.78 110.92 L 147.51 110.26 C 148.20 109.64 148.25 108.59 147.64 107.90 C 147.02 107.21 145.96 107.16 145.28 107.77 Z M 144.54 108.45 L 143.83 109.10 C 143.15 109.72 143.10 110.77 143.72 111.45 C 144.34 112.13 145.39 112.17 146.07 111.55 L 146.78 110.90 C 147.46 110.28 147.51 109.23 146.89 108.55 C 146.27 107.88 145.22 107.83 144.54 108.45 Z M 143.82 109.11 L 143.12 109.76 C 142.45 110.38 142.41 111.43 143.03 112.10 C 143.65 112.77 144.70 112.81 145.37 112.19 L 146.07 111.54 C 146.74 110.92 146.78 109.87 146.16 109.20 C 145.54 108.53 144.49 108.49 143.82 109.11 Z M 143.12 109.77 L 142.41 110.44 C 141.75 111.06 141.71 112.10 142.34 112.77 C 142.96 113.43 144.00 113.47 144.66 112.84 L 145.37 112.18 C 146.04 111.56 146.07 110.51 145.45 109.85 C 144.83 109.19 143.78 109.15 143.12 109.77 Z M 142.41 110.44 L 141.69 111.13 C 141.02 111.75 140.99 112.79 141.62 113.45 C 142.24 114.11 143.28 114.14 143.94 113.52 L 144.66 112.84 C 145.32 112.21 145.36 111.17 144.73 110.51 C 144.11 109.85 143.07 109.82 142.41 110.44 Z M 141.69 111.13 L 140.94 111.84 C 140.28 112.46 140.25 113.49 140.87 114.15 C 141.48 114.81 142.52 114.84 143.18 114.22 L 143.93 113.52 C 144.59 112.90 144.62 111.86 144.00 111.20 C 143.38 110.55 142.35 110.51 141.69 111.13 Z M 140.95 111.84 L 140.22 112.52 C 139.57 113.13 139.53 114.16 140.14 114.82 C 140.76 115.48 141.79 115.51 142.45 114.90 L 143.17 114.22 C 143.83 113.61 143.86 112.58 143.25 111.92 C 142.63 111.26 141.60 111.23 140.95 111.84 Z M 140.23 112.52 L 139.52 113.18 C 138.86 113.79 138.82 114.82 139.43 115.47 C 140.04 116.13 141.07 116.17 141.73 115.56 L 142.44 114.90 C 143.10 114.29 143.13 113.26 142.52 112.60 C 141.91 111.95 140.89 111.91 140.23 112.52 Z M 139.53 113.18 L 138.79 113.86 C 138.14 114.47 138.10 115.49 138.70 116.14 C 139.31 116.80 140.33 116.84 140.98 116.23 L 141.72 115.55 C 142.37 114.95 142.41 113.93 141.81 113.27 C 141.20 112.62 140.18 112.58 139.53 113.18 Z M 138.80 113.87 L 138.05 114.56 C 137.39 115.16 137.35 116.18 137.95 116.83 C 138.56 117.48 139.57 117.53 140.23 116.92 L 140.98 116.23 C 141.63 115.63 141.67 114.61 141.07 113.96 C 140.47 113.31 139.45 113.26 138.80 113.87 Z M 138.05 114.57 L 137.29 115.27 C 136.64 115.87 136.60 116.88 137.20 117.53 C 137.80 118.18 138.81 118.22 139.46 117.62 L 140.22 116.92 C 140.87 116.32 140.91 115.31 140.31 114.66 C 139.71 114.01 138.70 113.97 138.05 114.57 Z M 137.30 115.27 L 136.58 115.94 C 135.93 116.54 135.89 117.54 136.49 118.19 C 137.08 118.83 138.09 118.87 138.74 118.28 L 139.46 117.61 C 140.10 117.01 140.14 116.01 139.55 115.36 C 138.95 114.72 137.94 114.68 137.30 115.27 Z M 136.58 115.95 L 135.85 116.62 C 135.21 117.22 135.17 118.22 135.77 118.86 C 136.36 119.50 137.36 119.54 138.00 118.95 L 138.73 118.27 C 139.38 117.67 139.41 116.67 138.82 116.03 C 138.22 115.39 137.22 115.35 136.58 115.95 Z M 135.85 116.63 L 135.12 117.31 C 134.48 117.91 134.44 118.91 135.04 119.54 C 135.63 120.18 136.63 120.22 137.27 119.62 L 138.00 118.94 C 138.64 118.34 138.68 117.35 138.08 116.71 C 137.49 116.07 136.49 116.04 135.85 116.63 Z M 135.12 117.32 L 134.38 118.02 C 133.75 118.61 133.71 119.60 134.31 120.23 C 134.90 120.87 135.89 120.90 136.53 120.31 L 137.27 119.61 C 137.90 119.02 137.93 118.03 137.34 117.40 C 136.75 116.76 135.75 116.73 135.12 117.32 Z M 134.38 118.03 L 133.64 118.72 C 133.02 119.31 132.99 120.30 133.58 120.93 C 134.17 121.56 135.16 121.59 135.79 120.99 L 136.52 120.30 C 137.15 119.71 137.18 118.72 136.59 118.09 C 136.00 117.46 135.01 117.43 134.38 118.03 Z M 133.65 118.73 L 132.91 119.43 C 132.29 120.02 132.27 121.00 132.86 121.62 C 133.45 122.24 134.43 122.27 135.05 121.68 L 135.79 120.98 C 136.41 120.39 136.43 119.41 135.84 118.79 C 135.25 118.17 134.27 118.14 133.65 118.73 Z M 132.92 119.44 L 132.19 120.13 C 131.57 120.72 131.55 121.70 132.14 122.31 C 132.73 122.93 133.71 122.95 134.32 122.36 L 135.05 121.67 C 135.67 121.08 135.69 120.10 135.10 119.48 C 134.51 118.87 133.53 118.85 132.92 119.44 Z M 132.19 120.14 L 131.47 120.83 C 130.86 121.42 130.84 122.39 131.43 123.00 C 132.01 123.61 132.99 123.63 133.60 123.05 L 134.32 122.35 C 134.93 121.77 134.95 120.80 134.36 120.18 C 133.78 119.57 132.81 119.55 132.19 120.14 Z M 131.48 120.84 L 130.76 121.53 C 130.15 122.11 130.14 123.08 130.72 123.68 C 131.30 124.29 132.27 124.31 132.88 123.73 L 133.59 123.04 C 134.20 122.46 134.22 121.49 133.63 120.88 C 133.05 120.28 132.08 120.26 131.48 120.84 Z M 130.77 121.53 L 130.05 122.23 C 129.44 122.81 129.42 123.77 130.00 124.37 C 130.58 124.98 131.55 124.99 132.15 124.41 L 132.87 123.72 C 133.47 123.14 133.49 122.18 132.91 121.58 C 132.33 120.97 131.37 120.95 130.77 121.53 Z M 130.05 122.23 L 129.32 122.93 C 128.72 123.51 128.70 124.47 129.28 125.07 C 129.86 125.67 130.81 125.69 131.41 125.11 L 132.14 124.41 C 132.74 123.83 132.76 122.88 132.19 122.28 C 131.61 121.68 130.65 121.66 130.05 122.23 Z M 129.33 122.94 L 128.61 123.63 C 128.01 124.21 127.99 125.16 128.57 125.75 C 129.14 126.35 130.09 126.37 130.69 125.80 L 131.41 125.10 C 132.00 124.53 132.02 123.58 131.45 122.98 C 130.88 122.39 129.93 122.37 129.33 122.94 Z M 128.61 123.64 L 127.90 124.33 C 127.31 124.90 127.29 125.84 127.86 126.43 C 128.43 127.03 129.37 127.05 129.96 126.48 L 130.68 125.79 C 131.27 125.22 131.29 124.28 130.72 123.68 C 130.15 123.09 129.21 123.07 128.61 123.64 Z M 127.91 124.33 L 127.19 125.02 C 126.60 125.58 126.58 126.52 127.15 127.11 C 127.72 127.70 128.66 127.72 129.25 127.15 L 129.96 126.47 C 130.55 125.90 130.57 124.97 130.00 124.38 C 129.43 123.78 128.50 123.77 127.91 124.33 Z M 127.20 125.02 L 126.52 125.68 C 125.93 126.24 125.91 127.17 126.47 127.76 C 127.04 128.35 127.97 128.37 128.56 127.80 L 129.24 127.15 C 129.83 126.59 129.85 125.65 129.28 125.06 C 128.72 124.48 127.79 124.46 127.20 125.02 Z M 126.52 125.68 L 125.84 126.34 C 125.25 126.90 125.23 127.83 125.79 128.41 C 126.36 129.00 127.28 129.02 127.87 128.46 L 128.55 127.80 C 129.14 127.24 129.16 126.31 128.60 125.72 C 128.04 125.14 127.11 125.12 126.52 125.68 Z M 125.84 126.34 L 125.14 127.02 C 124.55 127.58 124.53 128.50 125.09 129.08 C 125.65 129.67 126.57 129.69 127.16 129.13 L 127.86 128.45 C 128.45 127.89 128.47 126.97 127.91 126.39 C 127.35 125.80 126.43 125.78 125.84 126.34 Z M 125.14 127.02 L 124.40 127.73 C 123.82 128.29 123.80 129.21 124.35 129.79 C 124.91 130.37 125.83 130.39 126.41 129.83 L 127.15 129.12 C 127.73 128.57 127.75 127.65 127.20 127.07 C 126.64 126.49 125.72 126.47 125.14 127.02 Z M 124.41 127.73 L 123.62 128.49 C 123.04 129.04 123.02 129.95 123.57 130.53 C 124.12 131.11 125.04 131.13 125.61 130.58 L 126.40 129.83 C 126.98 129.28 127.00 128.36 126.45 127.78 C 125.90 127.20 124.98 127.18 124.41 127.73 Z M 123.62 128.49 L 122.94 129.13 C 122.37 129.68 122.34 130.59 122.89 131.17 C 123.44 131.75 124.35 131.77 124.93 131.22 L 125.61 130.58 C 126.19 130.03 126.21 129.12 125.66 128.54 C 125.11 127.96 124.20 127.94 123.62 128.49 Z M 122.95 129.13 L 122.25 129.79 C 121.67 130.34 121.65 131.25 122.20 131.83 C 122.74 132.40 123.66 132.43 124.23 131.88 L 124.93 131.22 C 125.51 130.67 125.53 129.76 124.98 129.19 C 124.44 128.61 123.52 128.58 122.95 129.13 Z M 122.25 129.79 L 121.53 130.47 C 120.96 131.02 120.93 131.93 121.48 132.51 C 122.02 133.08 122.93 133.11 123.51 132.56 L 124.23 131.88 C 124.81 131.33 124.83 130.42 124.29 129.85 C 123.74 129.27 122.83 129.25 122.25 129.79 Z M 121.54 130.48 L 120.79 131.18 C 120.22 131.72 120.19 132.63 120.74 133.21 C 121.28 133.78 122.19 133.81 122.77 133.26 L 123.51 132.56 C 124.08 132.02 124.11 131.11 123.56 130.53 C 123.02 129.96 122.11 129.93 121.54 130.48 Z M 120.80 131.18 L 120.04 131.89 C 119.47 132.44 119.44 133.34 119.98 133.92 C 120.53 134.49 121.43 134.52 122.01 133.97 L 122.76 133.26 C 123.34 132.72 123.37 131.81 122.82 131.24 C 122.28 130.66 121.37 130.63 120.80 131.18 Z M 120.04 131.89 L 119.28 132.61 C 118.71 133.16 118.68 134.06 119.22 134.64 C 119.76 135.21 120.67 135.24 121.24 134.69 L 122.01 133.97 C 122.58 133.43 122.61 132.53 122.06 131.95 C 121.52 131.38 120.62 131.35 120.04 131.89 Z M 119.28 132.62 L 119.05 132.83 C 118.48 133.38 118.45 134.28 118.99 134.85 C 119.53 135.43 120.44 135.45 121.01 134.91 L 121.24 134.69 C 121.82 134.15 121.84 133.25 121.30 132.67 C 120.76 132.10 119.85 132.07 119.28 132.62 Z"
      fill="black"
      fill-rule="nonzero" /><path d="M 114.69 141.55 L 115.64 141.66 C 116.52 141.76 117.31 141.13 117.41 140.25 C 117.51 139.37 116.88 138.57 116.00 138.47 L 115.05 138.37 C 114.17 138.27 113.38 138.90 113.28 139.78 C 113.18 140.66 113.81 141.45 114.69 141.55 Z M 115.66 141.67 L 116.63 141.77 C 117.51 141.86 118.31 141.21 118.40 140.33 C 118.49 139.45 117.84 138.66 116.96 138.56 L 115.99 138.46 C 115.10 138.37 114.31 139.02 114.22 139.90 C 114.13 140.79 114.77 141.58 115.66 141.67 Z M 116.66 141.78 L 117.68 141.86 C 118.57 141.93 119.35 141.27 119.42 140.38 C 119.50 139.49 118.83 138.71 117.94 138.64 L 116.93 138.55 C 116.04 138.48 115.26 139.14 115.18 140.03 C 115.11 140.92 115.77 141.70 116.66 141.78 Z M 117.72 141.87 L 118.72 141.92 C 119.62 141.97 120.38 141.29 120.43 140.39 C 120.48 139.50 119.80 138.74 118.90 138.69 L 117.90 138.63 C 117.01 138.58 116.24 139.27 116.19 140.16 C 116.14 141.05 116.83 141.82 117.72 141.87 Z M 118.76 141.91 L 119.69 141.94 C 120.58 141.97 121.32 141.27 121.35 140.38 C 121.37 139.49 120.68 138.75 119.79 138.72 L 118.86 138.69 C 117.97 138.67 117.23 139.36 117.20 140.25 C 117.18 141.14 117.87 141.89 118.76 141.91 Z M 119.71 141.93 L 120.69 141.94 C 121.57 141.96 122.29 141.25 122.31 140.37 C 122.32 139.49 121.62 138.77 120.74 138.75 L 119.76 138.74 C 118.88 138.73 118.16 139.43 118.14 140.31 C 118.13 141.19 118.83 141.91 119.71 141.93 Z M 120.70 141.93 L 121.74 141.93 C 122.61 141.94 123.32 141.23 123.32 140.36 C 123.33 139.49 122.63 138.78 121.76 138.78 L 120.72 138.77 C 119.85 138.77 119.14 139.47 119.14 140.34 C 119.13 141.21 119.83 141.92 120.70 141.93 Z M 121.74 141.91 L 122.83 141.92 C 123.70 141.92 124.39 141.22 124.40 140.36 C 124.40 139.49 123.70 138.80 122.84 138.79 L 121.75 138.79 C 120.89 138.79 120.19 139.49 120.19 140.35 C 120.18 141.21 120.88 141.91 121.74 141.91 Z M 122.84 141.90 L 123.88 141.90 C 124.73 141.90 125.42 141.21 125.42 140.35 C 125.42 139.50 124.73 138.81 123.87 138.81 L 122.83 138.81 C 121.98 138.81 121.29 139.50 121.29 140.36 C 121.29 141.21 121.98 141.90 122.84 141.90 Z M 123.88 141.89 L 124.92 141.89 C 125.77 141.88 126.45 141.19 126.45 140.35 C 126.45 139.50 125.76 138.82 124.91 138.82 L 123.87 138.82 C 123.02 138.82 122.34 139.51 122.34 140.36 C 122.34 141.21 123.03 141.89 123.88 141.89 Z M 124.93 141.87 L 125.97 141.87 C 126.81 141.86 127.48 141.17 127.47 140.33 C 127.47 139.49 126.78 138.81 125.94 138.82 L 124.91 138.83 C 124.06 138.84 123.39 139.52 123.40 140.36 C 123.40 141.21 124.09 141.88 124.93 141.87 Z M 125.98 141.85 L 126.98 141.84 C 127.81 141.82 128.47 141.13 128.46 140.30 C 128.45 139.47 127.76 138.80 126.92 138.82 L 125.93 138.83 C 125.09 138.85 124.43 139.54 124.44 140.37 C 124.46 141.20 125.14 141.87 125.98 141.85 Z M 127.00 141.82 L 127.93 141.79 C 128.75 141.77 129.40 141.08 129.38 140.25 C 129.35 139.42 128.66 138.77 127.83 138.80 L 126.90 138.83 C 126.07 138.85 125.43 139.55 125.45 140.37 C 125.48 141.20 126.17 141.85 127.00 141.82 Z M 127.96 141.78 L 129.05 141.72 C 129.87 141.67 130.50 140.97 130.45 140.15 C 130.40 139.33 129.70 138.71 128.88 138.75 L 127.79 138.81 C 126.97 138.86 126.35 139.56 126.39 140.38 C 126.44 141.20 127.14 141.83 127.96 141.78 Z M 129.10 141.70 L 130.11 141.61 C 130.92 141.54 131.52 140.82 131.44 140.01 C 131.37 139.20 130.65 138.60 129.84 138.68 L 128.83 138.77 C 128.02 138.84 127.42 139.56 127.50 140.37 C 127.57 141.18 128.29 141.78 129.10 141.70 Z M 130.16 141.59 L 131.09 141.47 C 131.89 141.37 132.45 140.64 132.35 139.84 C 132.25 139.04 131.52 138.47 130.72 138.58 L 129.79 138.69 C 128.99 138.80 128.42 139.53 128.52 140.33 C 128.63 141.13 129.36 141.69 130.16 141.59 Z M 131.12 141.46 L 132.04 141.32 C 132.83 141.19 133.37 140.45 133.25 139.66 C 133.13 138.87 132.39 138.33 131.60 138.45 L 130.68 138.59 C 129.89 138.71 129.35 139.45 129.47 140.25 C 129.59 141.04 130.33 141.58 131.12 141.46 Z M 132.06 141.31 L 133.03 141.14 C 133.81 141.01 134.34 140.26 134.21 139.48 C 134.07 138.69 133.33 138.16 132.54 138.30 L 131.58 138.46 C 130.79 138.59 130.26 139.34 130.40 140.12 C 130.53 140.91 131.28 141.44 132.06 141.31 Z M 133.04 141.14 L 134.03 140.96 C 134.81 140.82 135.33 140.07 135.19 139.29 C 135.05 138.51 134.30 137.99 133.52 138.13 L 132.53 138.30 C 131.75 138.44 131.23 139.19 131.37 139.97 C 131.51 140.76 132.26 141.28 133.04 141.14 Z M 134.04 140.95 L 135.04 140.77 C 135.82 140.62 136.33 139.87 136.19 139.09 C 136.04 138.31 135.29 137.80 134.51 137.95 L 133.51 138.13 C 132.74 138.28 132.22 139.02 132.37 139.80 C 132.51 140.58 133.26 141.10 134.04 140.95 Z M 135.04 140.76 L 136.03 140.57 C 136.81 140.43 137.32 139.68 137.18 138.90 C 137.03 138.12 136.28 137.61 135.50 137.76 L 134.51 137.95 C 133.73 138.10 133.22 138.85 133.37 139.62 C 133.52 140.40 134.27 140.91 135.04 140.76 Z M 136.04 140.57 L 137.02 140.38 C 137.80 140.23 138.31 139.48 138.15 138.70 C 138.00 137.93 137.25 137.42 136.48 137.57 L 135.49 137.76 C 134.72 137.92 134.21 138.67 134.37 139.44 C 134.52 140.22 135.27 140.72 136.04 140.57 Z M 137.04 140.38 L 138.02 140.17 C 138.79 140.01 139.29 139.26 139.13 138.49 C 138.97 137.71 138.21 137.22 137.44 137.38 L 136.46 137.58 C 135.69 137.74 135.19 138.49 135.35 139.27 C 135.51 140.04 136.27 140.54 137.04 140.38 Z M 138.04 140.17 L 139.01 139.95 C 139.78 139.78 140.27 139.01 140.09 138.24 C 139.92 137.48 139.16 136.99 138.39 137.16 L 137.42 137.38 C 136.65 137.55 136.16 138.32 136.33 139.09 C 136.51 139.86 137.27 140.34 138.04 140.17 Z M 139.04 139.94 L 140.01 139.70 C 140.78 139.52 141.25 138.75 141.06 137.98 C 140.87 137.21 140.10 136.75 139.33 136.93 L 138.36 137.17 C 137.60 137.36 137.13 138.13 137.31 138.90 C 137.50 139.66 138.27 140.13 139.04 139.94 Z M 140.04 139.70 L 141.00 139.44 C 141.77 139.24 142.22 138.46 142.02 137.70 C 141.82 136.94 141.04 136.48 140.28 136.68 L 139.31 136.94 C 138.55 137.14 138.09 137.92 138.29 138.68 C 138.49 139.44 139.27 139.90 140.04 139.70 Z M 141.03 139.44 L 141.99 139.17 C 142.75 138.95 143.19 138.17 142.98 137.41 C 142.76 136.65 141.98 136.21 141.22 136.42 L 140.26 136.69 C 139.50 136.90 139.06 137.69 139.27 138.45 C 139.48 139.21 140.27 139.65 141.03 139.44 Z M 142.01 139.16 L 142.97 138.88 C 143.72 138.65 144.15 137.86 143.93 137.11 C 143.71 136.35 142.91 135.92 142.16 136.14 L 141.20 136.43 C 140.44 136.65 140.01 137.44 140.24 138.20 C 140.46 138.95 141.25 139.38 142.01 139.16 Z M 142.99 138.87 L 143.94 138.58 C 144.69 138.34 145.11 137.54 144.88 136.79 C 144.65 136.04 143.85 135.62 143.10 135.85 L 142.14 136.15 C 141.39 136.38 140.97 137.18 141.20 137.93 C 141.44 138.68 142.23 139.10 142.99 138.87 Z M 143.96 138.57 L 144.91 138.26 C 145.66 138.02 146.07 137.22 145.82 136.47 C 145.58 135.72 144.78 135.31 144.03 135.55 L 143.08 135.86 C 142.33 136.10 141.92 136.90 142.16 137.65 C 142.40 138.40 143.21 138.81 143.96 138.57 Z M 144.92 138.26 L 145.87 137.94 C 146.61 137.69 147.02 136.88 146.77 136.14 C 146.52 135.39 145.71 134.99 144.96 135.24 L 144.02 135.56 C 143.27 135.81 142.87 136.61 143.12 137.36 C 143.37 138.11 144.18 138.51 144.92 138.26 Z M 145.88 137.94 L 146.82 137.61 C 147.57 137.35 147.96 136.54 147.70 135.80 C 147.45 135.05 146.64 134.66 145.89 134.92 L 144.95 135.24 C 144.20 135.50 143.81 136.31 144.07 137.06 C 144.33 137.80 145.14 138.19 145.88 137.94 Z M 146.83 137.61 L 147.78 137.27 C 148.52 137.01 148.91 136.19 148.64 135.45 C 148.38 134.71 147.57 134.32 146.83 134.59 L 145.88 134.92 C 145.14 135.18 144.75 136.00 145.01 136.74 C 145.28 137.48 146.09 137.87 146.83 137.61 Z M 147.78 137.27 L 148.72 136.93 C 149.47 136.67 149.85 135.85 149.59 135.11 C 149.32 134.37 148.50 133.98 147.76 134.25 L 146.82 134.59 C 146.08 134.85 145.69 135.67 145.96 136.41 C 146.23 137.15 147.04 137.54 147.78 137.27 Z M 148.73 136.93 L 149.09 136.80 C 149.83 136.53 150.21 135.72 149.95 134.98 C 149.68 134.24 148.86 133.85 148.12 134.12 L 147.76 134.25 C 147.02 134.52 146.64 135.33 146.90 136.07 C 147.17 136.81 147.99 137.20 148.73 136.93 Z"
      fill="black"
      fill-rule="nonzero" /><path d="M 173.34 114.06 L 172.33 114.14 C 171.47 114.22 170.83 114.97 170.91 115.83 C 170.98 116.70 171.74 117.33 172.60 117.26 L 173.61 117.18 C 174.47 117.10 175.11 116.35 175.03 115.48 C 174.96 114.62 174.20 113.98 173.34 114.06 Z M 172.25 114.13 L 171.26 114.26 C 170.39 114.38 169.78 115.18 169.90 116.05 C 170.01 116.92 170.81 117.53 171.68 117.41 L 172.68 117.28 C 173.55 117.16 174.16 116.36 174.04 115.49 C 173.92 114.62 173.12 114.01 172.25 114.13 Z M 171.10 114.27 L 170.14 114.50 C 169.27 114.70 168.74 115.57 168.94 116.44 C 169.15 117.30 170.02 117.84 170.88 117.63 L 171.84 117.40 C 172.71 117.20 173.25 116.33 173.04 115.46 C 172.83 114.60 171.97 114.06 171.10 114.27 Z M 169.90 114.55 L 169.00 114.91 C 168.17 115.25 167.76 116.20 168.10 117.03 C 168.44 117.87 169.39 118.27 170.22 117.94 L 171.12 117.58 C 171.96 117.24 172.36 116.29 172.02 115.46 C 171.69 114.62 170.74 114.22 169.90 114.55 Z M 168.78 115.01 L 167.94 115.51 C 167.16 115.97 166.90 116.98 167.36 117.76 C 167.82 118.54 168.82 118.79 169.60 118.33 L 170.45 117.84 C 171.23 117.38 171.49 116.37 171.02 115.59 C 170.56 114.81 169.56 114.55 168.78 115.01 Z M 167.77 115.61 L 166.97 116.22 C 166.25 116.77 166.11 117.81 166.66 118.53 C 167.21 119.25 168.24 119.39 168.96 118.84 L 169.77 118.23 C 170.49 117.68 170.63 116.65 170.08 115.93 C 169.53 115.20 168.50 115.06 167.77 115.61 Z M 166.86 116.31 L 166.10 116.99 C 165.43 117.60 165.37 118.65 165.99 119.32 C 166.60 120.00 167.64 120.05 168.32 119.44 L 169.08 118.76 C 169.75 118.15 169.80 117.10 169.19 116.43 C 168.58 115.75 167.54 115.70 166.86 116.31 Z M 166.03 117.06 L 165.38 117.72 C 164.74 118.37 164.75 119.41 165.40 120.05 C 166.05 120.69 167.10 120.69 167.74 120.04 L 168.39 119.38 C 169.03 118.73 169.02 117.68 168.37 117.04 C 167.72 116.40 166.68 116.41 166.03 117.06 Z M 165.33 117.77 L 164.68 118.49 C 164.07 119.17 164.13 120.21 164.81 120.82 C 165.48 121.44 166.53 121.38 167.14 120.70 L 167.79 119.98 C 168.40 119.30 168.34 118.26 167.67 117.65 C 166.99 117.04 165.94 117.09 165.33 117.77 Z M 164.64 118.54 L 163.98 119.33 C 163.40 120.03 163.50 121.07 164.20 121.66 C 164.90 122.24 165.94 122.15 166.52 121.44 L 167.18 120.65 C 167.77 119.95 167.67 118.91 166.97 118.33 C 166.27 117.74 165.23 117.84 164.64 118.54 Z M 163.95 119.37 L 163.29 120.22 C 162.73 120.94 162.86 121.97 163.58 122.54 C 164.30 123.10 165.33 122.97 165.90 122.25 L 166.56 121.40 C 167.12 120.68 166.99 119.65 166.27 119.09 C 165.55 118.52 164.51 118.65 163.95 119.37 Z M 163.27 120.25 L 162.73 120.97 C 162.19 121.70 162.34 122.74 163.07 123.28 C 163.80 123.83 164.83 123.68 165.38 122.94 L 165.92 122.22 C 166.46 121.49 166.31 120.46 165.58 119.91 C 164.85 119.37 163.82 119.52 163.27 120.25 Z M 162.72 120.99 L 162.16 121.77 C 161.63 122.51 161.79 123.54 162.53 124.07 C 163.27 124.60 164.30 124.43 164.83 123.70 L 165.39 122.92 C 165.92 122.18 165.75 121.15 165.02 120.62 C 164.28 120.09 163.25 120.26 162.72 120.99 Z M 162.15 121.79 L 161.57 122.61 C 161.05 123.35 161.23 124.38 161.97 124.90 C 162.72 125.42 163.74 125.24 164.27 124.50 L 164.84 123.68 C 165.36 122.93 165.18 121.91 164.44 121.39 C 163.70 120.86 162.67 121.04 162.15 121.79 Z M 161.56 122.63 L 160.97 123.49 C 160.46 124.24 160.65 125.26 161.40 125.77 C 162.15 126.28 163.17 126.09 163.68 125.35 L 164.27 124.48 C 164.79 123.73 164.59 122.71 163.85 122.20 C 163.10 121.69 162.08 121.88 161.56 122.63 Z M 160.97 123.51 L 160.36 124.41 C 159.85 125.16 160.06 126.18 160.81 126.69 C 161.56 127.19 162.58 126.99 163.08 126.24 L 163.69 125.33 C 164.19 124.58 163.99 123.56 163.24 123.06 C 162.49 122.55 161.47 122.75 160.97 123.51 Z M 160.35 124.43 L 159.78 125.30 C 159.28 126.05 159.49 127.07 160.25 127.56 C 161.00 128.06 162.01 127.85 162.51 127.10 L 163.08 126.22 C 163.58 125.47 163.37 124.46 162.62 123.96 C 161.86 123.46 160.85 123.67 160.35 124.43 Z M 159.78 125.31 L 159.21 126.19 C 158.72 126.95 158.93 127.95 159.69 128.44 C 160.44 128.93 161.45 128.72 161.94 127.96 L 162.51 127.08 C 163.00 126.33 162.78 125.32 162.03 124.83 C 161.28 124.34 160.27 124.56 159.78 125.31 Z M 159.21 126.20 L 158.65 127.08 C 158.17 127.83 158.38 128.83 159.14 129.32 C 159.89 129.80 160.89 129.58 161.37 128.83 L 161.94 127.95 C 162.42 127.20 162.20 126.20 161.45 125.72 C 160.69 125.23 159.69 125.45 159.21 126.20 Z M 158.65 127.09 L 158.11 127.95 C 157.63 128.70 157.85 129.69 158.61 130.17 C 159.36 130.65 160.35 130.42 160.83 129.67 L 161.37 128.82 C 161.85 128.07 161.63 127.07 160.87 126.59 C 160.12 126.12 159.13 126.34 158.65 127.09 Z M 158.11 127.96 L 157.60 128.77 C 157.13 129.52 157.36 130.51 158.11 130.98 C 158.86 131.45 159.84 131.22 160.32 130.47 L 160.83 129.66 C 161.30 128.91 161.07 127.92 160.32 127.45 C 159.57 126.98 158.58 127.21 158.11 127.96 Z M 157.60 128.78 L 157.11 129.58 C 156.65 130.32 156.87 131.31 157.62 131.77 C 158.37 132.24 159.35 132.01 159.82 131.26 L 160.31 130.46 C 160.78 129.72 160.55 128.73 159.80 128.27 C 159.05 127.80 158.07 128.03 157.60 128.78 Z M 157.12 129.59 L 156.53 130.55 C 156.07 131.29 156.31 132.27 157.05 132.72 C 157.79 133.18 158.77 132.95 159.22 132.20 L 159.81 131.24 C 160.27 130.50 160.04 129.53 159.29 129.07 C 158.55 128.61 157.57 128.85 157.12 129.59 Z M 156.54 130.56 L 156.02 131.41 C 155.57 132.15 155.81 133.11 156.55 133.56 C 157.29 134.01 158.25 133.78 158.70 133.04 L 159.21 132.19 C 159.66 131.45 159.43 130.49 158.69 130.04 C 157.95 129.59 156.99 129.83 156.54 130.56 Z M 156.04 131.42 L 155.56 132.22 C 155.11 132.95 155.35 133.90 156.08 134.34 C 156.81 134.78 157.76 134.55 158.20 133.82 L 158.68 133.03 C 159.12 132.30 158.89 131.35 158.16 130.90 C 157.43 130.46 156.48 130.69 156.04 131.42 Z M 155.57 132.22 L 155.09 133.00 C 154.65 133.72 154.88 134.67 155.60 135.11 C 156.32 135.55 157.26 135.32 157.70 134.60 L 158.18 133.82 C 158.62 133.10 158.40 132.16 157.68 131.71 C 156.96 131.27 156.02 131.50 155.57 132.22 Z M 155.11 133.00 L 154.58 133.85 C 154.14 134.56 154.35 135.50 155.06 135.94 C 155.77 136.39 156.71 136.17 157.15 135.46 L 157.68 134.61 C 158.13 133.90 157.91 132.96 157.20 132.52 C 156.49 132.07 155.55 132.29 155.11 133.00 Z M 154.59 133.85 L 154.05 134.71 C 153.61 135.42 153.82 136.35 154.53 136.79 C 155.23 137.23 156.16 137.02 156.60 136.32 L 157.14 135.46 C 157.59 134.75 157.37 133.82 156.67 133.38 C 155.96 132.94 155.03 133.15 154.59 133.85 Z M 154.05 134.72 L 153.53 135.57 C 153.09 136.27 153.30 137.20 154.01 137.64 C 154.71 138.07 155.63 137.86 156.07 137.16 L 156.60 136.31 C 157.04 135.60 156.82 134.68 156.12 134.24 C 155.42 133.81 154.49 134.02 154.05 134.72 Z M 153.53 135.59 L 153.03 136.41 C 152.60 137.11 152.82 138.02 153.53 138.45 C 154.23 138.88 155.14 138.66 155.57 137.96 L 156.07 137.14 C 156.50 136.44 156.28 135.52 155.57 135.09 C 154.87 134.66 153.96 134.89 153.53 135.59 Z M 153.03 136.42 L 152.55 137.22 C 152.13 137.92 152.37 138.83 153.07 139.25 C 153.77 139.67 154.68 139.44 155.10 138.74 L 155.57 137.94 C 155.99 137.23 155.76 136.33 155.06 135.91 C 154.35 135.49 153.45 135.72 153.03 136.42 Z M 152.56 137.23 L 152.07 138.07 C 151.65 138.77 151.89 139.67 152.59 140.08 C 153.29 140.50 154.19 140.26 154.61 139.56 L 155.10 138.72 C 155.51 138.02 155.27 137.12 154.57 136.71 C 153.87 136.30 152.97 136.53 152.56 137.23 Z M 152.07 138.07 L 151.53 139.00 C 151.12 139.69 151.35 140.59 152.05 141.00 C 152.75 141.41 153.64 141.18 154.05 140.48 L 154.60 139.56 C 155.01 138.86 154.78 137.96 154.08 137.55 C 153.38 137.14 152.48 137.37 152.07 138.07 Z M 151.54 138.99 L 151.03 139.84 C 150.62 140.53 150.85 141.43 151.54 141.84 C 152.23 142.25 153.13 142.02 153.54 141.33 L 154.04 140.48 C 154.46 139.79 154.23 138.90 153.54 138.49 C 152.84 138.07 151.95 138.30 151.54 138.99 Z M 151.04 139.84 L 150.55 140.66 C 150.13 141.35 150.35 142.24 151.04 142.65 C 151.73 143.07 152.62 142.85 153.04 142.16 L 153.53 141.34 C 153.95 140.65 153.72 139.76 153.04 139.34 C 152.35 138.93 151.46 139.15 151.04 139.84 Z M 150.56 140.65 L 150.03 141.51 C 149.61 142.20 149.82 143.09 150.51 143.51 C 151.19 143.93 152.08 143.71 152.50 143.03 L 153.03 142.17 C 153.45 141.48 153.23 140.59 152.55 140.17 C 151.87 139.75 150.97 139.97 150.56 140.65 Z M 150.04 141.50 L 149.49 142.39 C 149.06 143.06 149.27 143.95 149.94 144.38 C 150.62 144.80 151.51 144.60 151.93 143.92 L 152.49 143.04 C 152.91 142.36 152.71 141.47 152.03 141.05 C 151.35 140.62 150.46 140.83 150.04 141.50 Z M 149.50 142.37 L 148.93 143.25 C 148.50 143.92 148.69 144.81 149.36 145.24 C 150.03 145.67 150.92 145.48 151.36 144.81 L 151.92 143.94 C 152.35 143.27 152.16 142.37 151.49 141.94 C 150.82 141.51 149.93 141.70 149.50 142.37 Z M 148.95 143.23 L 148.37 144.09 C 147.93 144.75 148.10 145.65 148.76 146.09 C 149.42 146.53 150.32 146.36 150.76 145.70 L 151.34 144.83 C 151.78 144.17 151.60 143.28 150.95 142.84 C 150.29 142.39 149.39 142.57 148.95 143.23 Z M 148.39 144.07 L 147.80 144.92 C 147.34 145.57 147.50 146.47 148.15 146.92 C 148.80 147.37 149.70 147.22 150.15 146.57 L 150.74 145.72 C 151.20 145.07 151.04 144.17 150.39 143.72 C 149.74 143.26 148.84 143.42 148.39 144.07 Z M 147.81 144.90 L 147.22 145.72 C 146.76 146.36 146.90 147.26 147.55 147.72 C 148.19 148.18 149.08 148.04 149.55 147.40 L 150.13 146.58 C 150.60 145.94 150.45 145.05 149.81 144.58 C 149.17 144.12 148.27 144.26 147.81 144.90 Z M 147.24 145.71 L 146.65 146.50 C 146.18 147.13 146.31 148.03 146.95 148.50 C 147.58 148.97 148.48 148.83 148.95 148.20 L 149.53 147.41 C 150.00 146.78 149.87 145.88 149.24 145.41 C 148.60 144.94 147.71 145.07 147.24 145.71 Z M 146.66 146.49 L 146.07 147.26 C 145.60 147.89 145.73 148.79 146.36 149.26 C 146.99 149.74 147.88 149.61 148.35 148.98 L 148.94 148.21 C 149.41 147.58 149.29 146.68 148.66 146.21 C 148.03 145.73 147.13 145.86 146.66 146.49 Z M 146.08 147.26 L 145.75 147.70 C 145.27 148.32 145.40 149.22 146.02 149.69 C 146.65 150.17 147.55 150.05 148.02 149.42 L 148.35 148.98 C 148.83 148.36 148.70 147.46 148.08 146.99 C 147.45 146.51 146.55 146.63 146.08 147.26 Z"
      fill="black"
      fill-rule="nonzero" /><path d="M 84.18 173.60 L 83.23 173.60 C 82.38 173.60 81.69 174.30 81.69 175.15 C 81.69 176.00 82.38 176.69 83.24 176.69 L 84.18 176.69 C 85.03 176.69 85.72 176.00 85.72 175.15 C 85.72 174.29 85.03 173.60 84.18 173.60 Z M 83.23 173.60 L 82.26 173.60 C 81.41 173.61 80.72 174.31 80.72 175.16 C 80.73 176.02 81.42 176.71 82.28 176.70 L 83.24 176.70 C 84.10 176.69 84.79 176.00 84.78 175.14 C 84.78 174.29 84.08 173.60 83.23 173.60 Z M 82.25 173.60 L 81.24 173.61 C 80.39 173.62 79.70 174.33 79.71 175.18 C 79.72 176.04 80.42 176.73 81.28 176.72 L 82.29 176.71 C 83.15 176.69 83.83 175.99 83.82 175.13 C 83.81 174.28 83.11 173.59 82.25 173.60 Z M 81.23 173.61 L 80.15 173.63 C 79.30 173.65 78.61 174.37 78.63 175.22 C 78.65 176.08 79.36 176.76 80.22 176.74 L 81.30 176.72 C 82.16 176.70 82.84 175.99 82.82 175.13 C 82.80 174.27 82.09 173.59 81.23 173.61 Z M 80.14 173.61 L 78.81 173.66 C 77.94 173.68 77.26 174.41 77.28 175.28 C 77.31 176.15 78.04 176.83 78.91 176.81 L 80.24 176.76 C 81.11 176.74 81.79 176.01 81.76 175.14 C 81.74 174.27 81.01 173.59 80.14 173.61 Z M 78.83 173.62 L 77.62 173.64 C 76.73 173.66 76.02 174.39 76.04 175.28 C 76.06 176.17 76.79 176.88 77.68 176.87 L 78.89 176.85 C 79.78 176.83 80.49 176.09 80.47 175.20 C 80.46 174.31 79.72 173.60 78.83 173.62 Z M 77.74 173.60 L 76.96 173.56 C 76.05 173.51 75.27 174.21 75.22 175.12 C 75.17 176.03 75.87 176.81 76.78 176.86 L 77.56 176.91 C 78.47 176.96 79.25 176.26 79.31 175.35 C 79.36 174.43 78.66 173.65 77.74 173.60 Z M 78.33 174.35 L 78.24 174.20 C 77.76 173.40 76.73 173.13 75.93 173.60 C 75.12 174.08 74.85 175.11 75.33 175.92 L 75.42 176.07 C 75.89 176.87 76.92 177.14 77.73 176.67 C 78.53 176.19 78.80 175.16 78.33 174.35 Z M 77.46 176.63 L 78.06 176.37 C 78.93 176.00 79.33 174.99 78.96 174.12 C 78.59 173.26 77.58 172.86 76.71 173.23 L 76.11 173.49 C 75.24 173.86 74.84 174.87 75.21 175.74 C 75.59 176.60 76.59 177.00 77.46 176.63 Z M 77.91 176.44 L 79.01 176.09 C 79.92 175.80 80.42 174.83 80.13 173.92 C 79.84 173.02 78.87 172.52 77.96 172.81 L 76.86 173.16 C 75.96 173.45 75.46 174.42 75.75 175.32 C 76.04 176.23 77.01 176.73 77.91 176.44 Z M 78.99 176.11 L 80.38 175.69 C 81.30 175.41 81.82 174.45 81.54 173.53 C 81.27 172.61 80.30 172.09 79.38 172.37 L 77.99 172.78 C 77.07 173.06 76.55 174.03 76.83 174.95 C 77.10 175.87 78.07 176.39 78.99 176.11 Z M 80.39 175.70 L 81.39 175.39 C 82.31 175.11 82.83 174.13 82.54 173.21 C 82.26 172.29 81.28 171.77 80.36 172.05 L 79.37 172.36 C 78.44 172.64 77.93 173.62 78.21 174.54 C 78.49 175.46 79.47 175.98 80.39 175.70 Z M 81.40 175.39 L 82.38 175.08 C 83.30 174.80 83.81 173.81 83.52 172.89 C 83.23 171.97 82.25 171.46 81.33 171.75 L 80.35 172.05 C 79.43 172.34 78.92 173.32 79.21 174.25 C 79.49 175.17 80.48 175.68 81.40 175.39 Z M 82.39 175.09 L 83.36 174.78 C 84.29 174.48 84.80 173.50 84.50 172.57 C 84.21 171.65 83.22 171.14 82.30 171.43 L 81.32 171.74 C 80.40 172.04 79.89 173.02 80.18 173.95 C 80.48 174.87 81.46 175.38 82.39 175.09 Z M 83.37 174.78 L 84.33 174.47 C 85.25 174.17 85.76 173.19 85.46 172.26 C 85.17 171.34 84.18 170.83 83.26 171.12 L 82.30 171.43 C 81.37 171.73 80.86 172.72 81.16 173.64 C 81.46 174.56 82.44 175.07 83.37 174.78 Z M 84.33 174.47 L 85.25 174.18 C 86.18 173.88 86.69 172.89 86.39 171.96 C 86.09 171.04 85.10 170.53 84.18 170.83 L 83.25 171.12 C 82.33 171.42 81.82 172.41 82.12 173.34 C 82.41 174.26 83.40 174.77 84.33 174.47 Z M 85.25 174.18 L 86.22 173.87 C 87.15 173.57 87.66 172.58 87.37 171.65 C 87.07 170.73 86.08 170.21 85.15 170.51 L 84.18 170.82 C 83.25 171.12 82.74 172.11 83.03 173.04 C 83.33 173.97 84.32 174.48 85.25 174.18 Z M 86.22 173.87 L 87.24 173.55 C 88.17 173.26 88.68 172.26 88.39 171.34 C 88.09 170.41 87.10 169.89 86.17 170.18 L 85.16 170.51 C 84.23 170.80 83.71 171.79 84.01 172.72 C 84.30 173.65 85.29 174.17 86.22 173.87 Z M 87.24 173.55 L 88.19 173.26 C 89.12 172.96 89.63 171.97 89.34 171.04 C 89.05 170.11 88.06 169.59 87.12 169.88 L 86.18 170.18 C 85.24 170.48 84.73 171.47 85.02 172.40 C 85.31 173.33 86.30 173.85 87.24 173.55 Z M 88.18 173.26 L 89.09 172.97 C 90.02 172.68 90.54 171.69 90.24 170.76 C 89.95 169.82 88.96 169.31 88.03 169.60 L 87.12 169.88 C 86.19 170.17 85.67 171.17 85.97 172.10 C 86.26 173.03 87.25 173.55 88.18 173.26 Z M 89.09 172.98 L 89.98 172.70 C 90.91 172.40 91.43 171.41 91.13 170.47 C 90.84 169.54 89.85 169.02 88.91 169.32 L 88.03 169.60 C 87.09 169.89 86.57 170.89 86.87 171.82 C 87.16 172.75 88.16 173.27 89.09 172.98 Z M 89.98 172.70 L 90.93 172.39 C 91.86 172.10 92.38 171.10 92.08 170.17 C 91.79 169.24 90.79 168.72 89.86 169.02 L 88.91 169.32 C 87.98 169.61 87.46 170.61 87.76 171.54 C 88.05 172.48 89.05 172.99 89.98 172.70 Z M 90.93 172.39 L 91.88 172.09 C 92.81 171.79 93.33 170.79 93.03 169.86 C 92.73 168.93 91.73 168.41 90.80 168.71 L 89.85 169.02 C 88.92 169.31 88.40 170.31 88.70 171.25 C 89.00 172.18 90.00 172.69 90.93 172.39 Z M 91.89 172.09 L 92.84 171.78 C 93.77 171.48 94.28 170.48 93.98 169.55 C 93.68 168.61 92.68 168.10 91.75 168.40 L 90.79 168.71 C 89.86 169.01 89.35 170.02 89.65 170.95 C 89.95 171.88 90.95 172.39 91.89 172.09 Z M 92.84 171.78 L 93.80 171.47 C 94.73 171.17 95.24 170.16 94.94 169.23 C 94.63 168.30 93.63 167.79 92.70 168.09 L 91.74 168.40 C 90.81 168.71 90.30 169.71 90.60 170.65 C 90.91 171.58 91.91 172.09 92.84 171.78 Z M 93.80 171.47 L 94.73 171.17 C 95.66 170.86 96.17 169.85 95.87 168.92 C 95.56 167.99 94.55 167.48 93.62 167.79 L 92.69 168.09 C 91.76 168.40 91.25 169.40 91.56 170.34 C 91.86 171.27 92.87 171.78 93.80 171.47 Z M 94.73 171.17 L 95.68 170.86 C 96.61 170.55 97.12 169.54 96.81 168.61 C 96.50 167.67 95.50 167.17 94.56 167.47 L 93.62 167.79 C 92.69 168.09 92.18 169.10 92.49 170.03 C 92.79 170.97 93.80 171.47 94.73 171.17 Z M 95.68 170.86 L 96.63 170.54 C 97.57 170.24 98.08 169.23 97.77 168.30 C 97.47 167.36 96.46 166.85 95.52 167.16 L 94.56 167.47 C 93.63 167.78 93.12 168.79 93.43 169.72 C 93.73 170.66 94.74 171.17 95.68 170.86 Z M 96.63 170.55 L 97.60 170.23 C 98.54 169.93 99.05 168.92 98.75 167.98 C 98.45 167.05 97.44 166.53 96.50 166.84 L 95.53 167.15 C 94.59 167.46 94.08 168.46 94.38 169.40 C 94.69 170.34 95.69 170.85 96.63 170.55 Z M 97.60 170.23 L 98.53 169.94 C 99.47 169.64 99.99 168.63 99.68 167.69 C 99.38 166.75 98.38 166.23 97.44 166.54 L 96.51 166.83 C 95.57 167.13 95.05 168.14 95.35 169.08 C 95.65 170.02 96.66 170.54 97.60 170.23 Z M 98.52 169.94 L 99.47 169.64 C 100.41 169.34 100.93 168.34 100.63 167.40 C 100.33 166.45 99.33 165.93 98.39 166.23 L 97.44 166.53 C 96.50 166.83 95.98 167.84 96.28 168.78 C 96.58 169.72 97.58 170.24 98.52 169.94 Z M 99.47 169.64 L 100.42 169.34 C 101.37 169.04 101.89 168.04 101.59 167.09 C 101.29 166.15 100.29 165.63 99.34 165.93 L 98.39 166.23 C 97.45 166.53 96.92 167.53 97.22 168.48 C 97.52 169.42 98.52 169.94 99.47 169.64 Z M 100.42 169.34 L 101.39 169.03 C 102.34 168.74 102.86 167.73 102.56 166.79 C 102.26 165.84 101.26 165.32 100.31 165.62 L 99.34 165.93 C 98.40 166.22 97.88 167.23 98.18 168.17 C 98.47 169.12 99.48 169.64 100.42 169.34 Z M 101.40 169.03 L 102.35 168.73 C 103.29 168.43 103.82 167.42 103.51 166.48 C 103.21 165.54 102.21 165.02 101.26 165.32 L 100.31 165.62 C 99.37 165.92 98.85 166.93 99.15 167.87 C 99.45 168.81 100.45 169.33 101.40 169.03 Z M 102.35 168.73 L 103.29 168.43 C 104.24 168.13 104.76 167.12 104.46 166.18 C 104.15 165.23 103.14 164.71 102.20 165.01 L 101.26 165.32 C 100.32 165.62 99.80 166.63 100.10 167.57 C 100.40 168.51 101.41 169.03 102.35 168.73 Z M 103.30 168.43 L 104.25 168.12 C 105.19 167.82 105.71 166.81 105.41 165.87 C 105.10 164.93 104.09 164.41 103.15 164.71 L 102.20 165.01 C 101.26 165.32 100.74 166.33 101.04 167.27 C 101.34 168.21 102.35 168.73 103.30 168.43 Z M 104.25 168.13 L 105.21 167.82 C 106.15 167.51 106.67 166.50 106.37 165.56 C 106.06 164.62 105.05 164.10 104.11 164.40 L 103.15 164.71 C 102.21 165.01 101.69 166.02 101.99 166.97 C 102.29 167.91 103.30 168.43 104.25 168.13 Z M 105.21 167.82 L 106.17 167.51 C 107.12 167.21 107.64 166.20 107.33 165.25 C 107.03 164.31 106.02 163.79 105.08 164.09 L 104.11 164.40 C 103.17 164.70 102.65 165.71 102.95 166.66 C 103.25 167.60 104.26 168.12 105.21 167.82 Z M 106.17 167.51 L 107.09 167.22 C 108.03 166.92 108.56 165.91 108.25 164.96 C 107.95 164.02 106.94 163.50 106.00 163.80 L 105.08 164.09 C 104.14 164.39 103.61 165.40 103.91 166.34 C 104.22 167.29 105.22 167.81 106.17 167.51 Z M 107.08 167.22 L 108.01 166.93 C 108.95 166.63 109.48 165.62 109.18 164.68 C 108.88 163.73 107.87 163.21 106.92 163.50 L 106.00 163.80 C 105.06 164.09 104.53 165.10 104.83 166.05 C 105.13 166.99 106.14 167.52 107.08 167.22 Z M 108.00 166.93 L 108.94 166.64 C 109.89 166.34 110.42 165.33 110.12 164.39 C 109.83 163.44 108.82 162.91 107.87 163.21 L 106.93 163.50 C 105.98 163.80 105.45 164.81 105.75 165.75 C 106.05 166.70 107.05 167.23 108.00 166.93 Z M 108.94 166.64 L 109.91 166.34 C 110.86 166.04 111.39 165.04 111.09 164.09 C 110.80 163.14 109.79 162.61 108.85 162.90 L 107.88 163.21 C 106.93 163.50 106.40 164.51 106.69 165.45 C 106.98 166.40 107.99 166.93 108.94 166.64 Z M 109.90 166.34 L 110.91 166.03 C 111.86 165.74 112.40 164.73 112.10 163.79 C 111.81 162.84 110.81 162.30 109.86 162.59 L 108.85 162.90 C 107.90 163.19 107.37 164.20 107.66 165.15 C 107.95 166.10 108.96 166.63 109.90 166.34 Z M 110.91 166.03 L 111.84 165.75 C 112.79 165.46 113.33 164.46 113.04 163.51 C 112.75 162.56 111.75 162.02 110.80 162.31 L 109.87 162.59 C 108.92 162.88 108.38 163.88 108.67 164.83 C 108.95 165.78 109.96 166.32 110.91 166.03 Z M 111.83 165.75 L 112.77 165.47 C 113.72 165.19 114.26 164.18 113.97 163.23 C 113.69 162.28 112.69 161.74 111.74 162.03 L 110.80 162.31 C 109.85 162.59 109.31 163.60 109.60 164.55 C 109.88 165.50 110.88 166.04 111.83 165.75 Z M 112.76 165.47 L 113.72 165.19 C 114.67 164.91 115.22 163.91 114.93 162.95 C 114.65 162.00 113.65 161.46 112.70 161.74 L 111.74 162.03 C 110.79 162.31 110.25 163.31 110.53 164.26 C 110.81 165.21 111.81 165.76 112.76 165.47 Z M 113.72 165.19 L 114.69 164.90 C 115.64 164.62 116.19 163.62 115.91 162.67 C 115.63 161.72 114.63 161.17 113.68 161.45 L 112.70 161.74 C 111.75 162.02 111.21 163.02 111.49 163.97 C 111.77 164.93 112.77 165.47 113.72 165.19 Z M 114.69 164.90 L 115.67 164.62 C 116.62 164.34 117.17 163.34 116.89 162.39 C 116.62 161.44 115.62 160.89 114.66 161.17 L 113.68 161.45 C 112.73 161.73 112.18 162.73 112.46 163.68 C 112.74 164.64 113.73 165.18 114.69 164.90 Z M 115.67 164.62 L 116.65 164.33 C 117.61 164.06 118.16 163.06 117.88 162.11 C 117.61 161.15 116.61 160.60 115.65 160.88 L 114.67 161.17 C 113.71 161.44 113.16 162.44 113.44 163.39 C 113.72 164.35 114.71 164.90 115.67 164.62 Z M 116.65 164.34 L 117.60 164.06 C 118.55 163.79 119.10 162.80 118.83 161.84 C 118.56 160.89 117.56 160.33 116.61 160.61 L 115.66 160.88 C 114.70 161.15 114.15 162.15 114.43 163.10 C 114.70 164.06 115.69 164.61 116.65 164.34 Z M 117.59 164.07 L 118.54 163.80 C 119.50 163.53 120.05 162.53 119.78 161.58 C 119.51 160.62 118.52 160.07 117.56 160.34 L 116.61 160.61 C 115.66 160.88 115.10 161.87 115.37 162.83 C 115.64 163.78 116.64 164.34 117.59 164.07 Z M 118.54 163.80 L 119.49 163.53 C 120.44 163.26 121.00 162.27 120.73 161.31 C 120.47 160.36 119.47 159.80 118.52 160.07 L 117.56 160.34 C 116.61 160.60 116.05 161.60 116.32 162.55 C 116.59 163.51 117.58 164.07 118.54 163.80 Z M 119.48 163.53 L 120.45 163.27 C 121.40 163.00 121.96 162.01 121.70 161.05 C 121.43 160.09 120.44 159.53 119.48 159.80 L 118.52 160.07 C 117.56 160.33 117.00 161.33 117.27 162.28 C 117.54 163.24 118.53 163.80 119.48 163.53 Z M 120.44 163.27 L 121.42 163.00 C 122.37 162.73 122.94 161.74 122.67 160.79 C 122.41 159.83 121.42 159.27 120.46 159.53 L 119.49 159.80 C 118.53 160.06 117.97 161.05 118.23 162.01 C 118.49 162.97 119.48 163.53 120.44 163.27 Z M 121.41 163.00 L 122.40 162.73 C 123.36 162.47 123.93 161.48 123.66 160.52 C 123.40 159.56 122.41 159.00 121.46 159.26 L 120.46 159.53 C 119.51 159.79 118.94 160.78 119.20 161.74 C 119.47 162.70 120.45 163.26 121.41 163.00 Z M 122.40 162.73 L 123.33 162.48 C 124.29 162.22 124.85 161.23 124.59 160.27 C 124.34 159.31 123.35 158.75 122.39 159.01 L 121.46 159.26 C 120.50 159.52 119.93 160.51 120.19 161.46 C 120.45 162.42 121.44 162.99 122.40 162.73 Z M 123.32 162.48 L 124.26 162.23 C 125.22 161.97 125.79 160.98 125.53 160.02 C 125.28 159.07 124.29 158.50 123.33 158.75 L 122.39 159.01 C 121.43 159.26 120.87 160.25 121.12 161.21 C 121.38 162.17 122.37 162.74 123.32 162.48 Z M 124.26 162.23 L 125.21 161.97 C 126.17 161.72 126.74 160.74 126.49 159.78 C 126.24 158.82 125.25 158.25 124.29 158.50 L 123.34 158.75 C 122.38 159.01 121.81 159.99 122.06 160.95 C 122.32 161.91 123.30 162.48 124.26 162.23 Z M 125.21 161.97 L 126.18 161.72 C 127.14 161.47 127.71 160.49 127.46 159.53 C 127.21 158.57 126.23 158.00 125.27 158.25 L 124.30 158.50 C 123.34 158.75 122.77 159.73 123.02 160.69 C 123.27 161.65 124.25 162.23 125.21 161.97 Z M 126.17 161.72 L 127.16 161.47 C 128.12 161.22 128.70 160.24 128.45 159.28 C 128.20 158.32 127.22 157.74 126.26 157.99 L 125.28 158.24 C 124.32 158.49 123.74 159.47 123.99 160.43 C 124.23 161.39 125.21 161.97 126.17 161.72 Z M 127.15 161.47 L 128.15 161.22 C 129.11 160.98 129.69 160.00 129.45 159.04 C 129.21 158.08 128.23 157.50 127.27 157.74 L 126.27 157.99 C 125.31 158.23 124.73 159.21 124.97 160.17 C 125.21 161.13 126.19 161.71 127.15 161.47 Z M 128.14 161.22 L 129.13 160.98 C 130.09 160.74 130.68 159.77 130.44 158.80 C 130.21 157.84 129.23 157.25 128.27 157.49 L 127.28 157.74 C 126.32 157.97 125.73 158.95 125.97 159.91 C 126.20 160.87 127.18 161.46 128.14 161.22 Z M 129.12 160.98 L 130.08 160.75 C 131.04 160.51 131.63 159.55 131.40 158.58 C 131.17 157.62 130.20 157.03 129.24 157.26 L 128.28 157.49 C 127.32 157.72 126.73 158.69 126.96 159.65 C 127.19 160.62 128.16 161.21 129.12 160.98 Z M 130.07 160.75 L 131.04 160.52 C 132.00 160.29 132.60 159.32 132.37 158.36 C 132.14 157.40 131.17 156.80 130.21 157.03 L 129.24 157.26 C 128.28 157.49 127.68 158.45 127.91 159.42 C 128.14 160.38 129.11 160.98 130.07 160.75 Z M 131.03 160.52 L 132.00 160.29 C 132.97 160.06 133.57 159.10 133.34 158.14 C 133.11 157.17 132.15 156.58 131.18 156.80 L 130.21 157.03 C 129.25 157.26 128.65 158.22 128.88 159.18 C 129.10 160.15 130.07 160.75 131.03 160.52 Z M 132.00 160.29 L 132.98 160.06 C 133.94 159.84 134.54 158.88 134.32 157.91 C 134.09 156.95 133.13 156.35 132.17 156.57 L 131.19 156.80 C 130.22 157.03 129.63 157.99 129.85 158.95 C 130.07 159.92 131.04 160.52 132.00 160.29 Z M 132.98 160.06 L 133.96 159.83 C 134.92 159.61 135.52 158.65 135.30 157.68 C 135.07 156.72 134.11 156.12 133.15 156.35 L 132.17 156.57 C 131.20 156.80 130.60 157.76 130.83 158.72 C 131.05 159.69 132.01 160.29 132.98 160.06 Z M 133.96 159.83 L 134.94 159.60 C 135.91 159.38 136.51 158.42 136.28 157.45 C 136.06 156.49 135.09 155.89 134.13 156.12 L 133.15 156.35 C 132.18 156.57 131.59 157.53 131.81 158.50 C 132.03 159.46 133.00 160.06 133.96 159.83 Z M 134.95 159.60 L 135.93 159.37 C 136.89 159.14 137.49 158.18 137.26 157.22 C 137.04 156.26 136.08 155.66 135.11 155.89 L 134.13 156.12 C 133.17 156.34 132.57 157.31 132.80 158.27 C 133.02 159.23 133.99 159.83 134.95 159.60 Z M 135.94 159.37 L 136.92 159.13 C 137.88 158.91 138.47 157.94 138.25 156.98 C 138.02 156.02 137.05 155.43 136.09 155.66 L 135.11 155.89 C 134.15 156.12 133.56 157.08 133.78 158.04 C 134.01 159.00 134.98 159.60 135.94 159.37 Z M 136.92 159.13 L 137.91 158.90 C 138.86 158.67 139.46 157.70 139.23 156.74 C 139.00 155.78 138.03 155.19 137.07 155.42 L 136.09 155.66 C 135.13 155.89 134.54 156.85 134.77 157.81 C 135.00 158.77 135.96 159.36 136.92 159.13 Z M 137.91 158.89 L 138.89 158.66 C 139.84 158.43 140.43 157.46 140.20 156.50 C 139.97 155.55 139.01 154.96 138.05 155.19 L 137.07 155.43 C 136.11 155.66 135.52 156.62 135.76 157.58 C 135.99 158.54 136.95 159.13 137.91 158.89 Z M 138.89 158.65 L 139.86 158.42 C 140.82 158.19 141.41 157.22 141.17 156.27 C 140.94 155.31 139.98 154.72 139.02 154.95 L 138.05 155.19 C 137.09 155.42 136.50 156.39 136.74 157.34 C 136.97 158.30 137.93 158.89 138.89 158.65 Z M 139.86 158.42 L 140.83 158.18 C 141.79 157.95 142.37 156.98 142.14 156.03 C 141.91 155.07 140.94 154.49 139.99 154.72 L 139.02 154.96 C 138.07 155.19 137.48 156.15 137.71 157.11 C 137.95 158.06 138.91 158.65 139.86 158.42 Z M 140.83 158.18 L 141.80 157.94 C 142.75 157.71 143.33 156.75 143.10 155.79 C 142.87 154.84 141.90 154.25 140.95 154.49 L 139.99 154.72 C 139.03 154.96 138.45 155.92 138.68 156.87 C 138.92 157.83 139.88 158.41 140.83 158.18 Z M 141.80 157.94 L 142.75 157.71 C 143.70 157.47 144.28 156.51 144.05 155.56 C 143.82 154.61 142.86 154.02 141.90 154.26 L 140.95 154.49 C 140.00 154.72 139.41 155.68 139.65 156.64 C 139.88 157.59 140.84 158.17 141.80 157.94 Z M 142.75 157.70 L 143.73 157.46 C 144.68 157.23 145.26 156.27 145.03 155.32 C 144.79 154.37 143.83 153.78 142.88 154.02 L 141.90 154.26 C 140.95 154.49 140.37 155.45 140.60 156.40 C 140.84 157.36 141.80 157.94 142.75 157.70 Z M 143.73 157.46 L 144.70 157.22 C 145.65 156.99 146.23 156.03 146.00 155.08 C 145.76 154.13 144.80 153.55 143.85 153.78 L 142.88 154.02 C 141.93 154.25 141.35 155.21 141.58 156.16 C 141.82 157.11 142.78 157.70 143.73 157.46 Z M 144.70 157.22 L 145.66 156.99 C 146.61 156.75 147.19 155.79 146.96 154.85 C 146.73 153.90 145.77 153.32 144.82 153.55 L 143.85 153.79 C 142.90 154.02 142.32 154.98 142.56 155.92 C 142.79 156.87 143.75 157.45 144.70 157.22 Z M 145.66 156.98 L 146.63 156.75 C 147.57 156.51 148.15 155.56 147.92 154.61 C 147.69 153.66 146.73 153.08 145.79 153.31 L 144.82 153.55 C 143.87 153.78 143.29 154.74 143.52 155.69 C 143.76 156.64 144.71 157.22 145.66 156.98 Z M 146.63 156.74 L 147.59 156.51 C 148.54 156.28 149.12 155.32 148.89 154.37 C 148.65 153.43 147.70 152.85 146.75 153.08 L 145.79 153.32 C 144.84 153.55 144.26 154.50 144.49 155.45 C 144.72 156.40 145.68 156.98 146.63 156.74 Z M 147.59 156.50 L 148.56 156.27 C 149.51 156.04 150.09 155.08 149.86 154.14 C 149.63 153.19 148.67 152.61 147.73 152.84 L 146.75 153.08 C 145.81 153.31 145.23 154.27 145.46 155.21 C 145.69 156.16 146.65 156.74 147.59 156.50 Z M 148.56 156.26 L 149.55 156.02 C 150.49 155.79 151.07 154.84 150.84 153.90 C 150.60 152.95 149.65 152.37 148.71 152.61 L 147.73 152.85 C 146.78 153.08 146.21 154.03 146.44 154.97 C 146.67 155.92 147.62 156.50 148.56 156.26 Z M 149.55 156.02 L 150.54 155.78 C 151.48 155.55 152.06 154.59 151.83 153.65 C 151.60 152.71 150.65 152.13 149.71 152.36 L 148.71 152.61 C 147.77 152.84 147.19 153.79 147.42 154.73 C 147.65 155.67 148.60 156.25 149.55 156.02 Z M 150.54 155.77 L 151.54 155.53 C 152.48 155.30 153.06 154.35 152.83 153.41 C 152.60 152.47 151.65 151.89 150.71 152.12 L 149.71 152.37 C 148.77 152.60 148.19 153.55 148.42 154.49 C 148.65 155.43 149.60 156.00 150.54 155.77 Z M 151.54 155.52 L 152.53 155.28 C 153.47 155.05 154.05 154.11 153.82 153.17 C 153.59 152.23 152.64 151.65 151.70 151.88 L 150.71 152.13 C 149.77 152.36 149.19 153.30 149.42 154.24 C 149.65 155.18 150.60 155.75 151.54 155.52 Z M 152.53 155.28 L 153.51 155.04 C 154.45 154.81 155.02 153.87 154.80 152.93 C 154.57 151.99 153.62 151.42 152.69 151.65 L 151.70 151.89 C 150.77 152.12 150.19 153.06 150.42 154.00 C 150.65 154.93 151.59 155.51 152.53 155.28 Z M 153.51 155.04 L 154.47 154.80 C 155.41 154.58 155.98 153.63 155.75 152.70 C 155.53 151.76 154.59 151.19 153.65 151.42 L 152.69 151.65 C 151.75 151.88 151.18 152.82 151.41 153.75 C 151.63 154.69 152.58 155.26 153.51 155.04 Z M 154.47 154.80 L 155.40 154.57 C 156.34 154.35 156.91 153.41 156.68 152.48 C 156.46 151.54 155.52 150.97 154.59 151.20 L 153.65 151.42 C 152.72 151.65 152.15 152.58 152.37 153.52 C 152.60 154.45 153.54 155.02 154.47 154.80 Z M 155.40 154.57 L 156.37 154.34 C 157.30 154.12 157.87 153.18 157.65 152.25 C 157.43 151.32 156.49 150.74 155.56 150.97 L 154.59 151.20 C 153.66 151.42 153.09 152.36 153.31 153.29 C 153.53 154.22 154.47 154.79 155.40 154.57 Z M 156.36 154.34 L 157.40 154.09 C 158.33 153.87 158.91 152.94 158.69 152.01 C 158.47 151.08 157.54 150.50 156.61 150.72 L 155.57 150.97 C 154.64 151.19 154.06 152.12 154.28 153.05 C 154.50 153.98 155.43 154.56 156.36 154.34 Z M 157.40 154.09 L 158.39 153.85 C 159.32 153.64 159.90 152.71 159.68 151.78 C 159.46 150.85 158.54 150.28 157.61 150.49 L 156.61 150.73 C 155.69 150.94 155.11 151.87 155.33 152.80 C 155.54 153.73 156.47 154.30 157.40 154.09 Z M 158.39 153.85 L 159.35 153.63 C 160.27 153.41 160.85 152.49 160.64 151.57 C 160.42 150.64 159.50 150.06 158.57 150.28 L 157.62 150.50 C 156.69 150.71 156.11 151.63 156.33 152.56 C 156.54 153.49 157.46 154.06 158.39 153.85 Z M 159.34 153.62 L 160.27 153.41 C 161.20 153.20 161.78 152.28 161.57 151.36 C 161.36 150.44 160.44 149.86 159.52 150.07 L 158.58 150.28 C 157.66 150.49 157.08 151.41 157.29 152.33 C 157.50 153.26 158.42 153.83 159.34 153.62 Z M 160.27 153.41 L 161.18 153.20 C 162.11 153.00 162.69 152.08 162.48 151.16 C 162.27 150.24 161.36 149.66 160.44 149.87 L 159.52 150.07 C 158.60 150.28 158.02 151.19 158.23 152.11 C 158.43 153.03 159.35 153.61 160.27 153.41 Z M 161.18 153.20 L 162.16 152.98 C 163.08 152.78 163.66 151.87 163.45 150.95 C 163.25 150.04 162.34 149.45 161.42 149.66 L 160.45 149.87 C 159.53 150.07 158.95 150.98 159.15 151.90 C 159.35 152.82 160.26 153.40 161.18 153.20 Z M 162.15 152.98 L 163.14 152.77 C 164.06 152.57 164.64 151.66 164.44 150.75 C 164.24 149.83 163.34 149.25 162.42 149.45 L 161.43 149.66 C 160.52 149.86 159.93 150.76 160.13 151.68 C 160.33 152.60 161.23 153.18 162.15 152.98 Z M 163.13 152.76 L 164.12 152.55 C 165.03 152.36 165.61 151.46 165.42 150.55 C 165.23 149.63 164.33 149.05 163.41 149.24 L 162.43 149.45 C 161.52 149.65 160.93 150.54 161.13 151.46 C 161.32 152.37 162.22 152.96 163.13 152.76 Z M 164.11 152.55 L 165.08 152.34 C 165.99 152.15 166.58 151.26 166.39 150.35 C 166.20 149.44 165.30 148.85 164.39 149.04 L 163.42 149.25 C 162.51 149.44 161.92 150.33 162.12 151.24 C 162.31 152.15 163.20 152.74 164.11 152.55 Z M 165.08 152.34 L 166.04 152.14 C 166.95 151.95 167.53 151.06 167.34 150.15 C 167.15 149.25 166.26 148.66 165.36 148.85 L 164.40 149.05 C 163.49 149.24 162.90 150.13 163.09 151.03 C 163.28 151.94 164.17 152.53 165.08 152.34 Z M 166.03 152.13 L 167.03 151.93 C 167.93 151.74 168.52 150.86 168.33 149.95 C 168.15 149.05 167.26 148.47 166.36 148.65 L 165.36 148.86 C 164.46 149.04 163.87 149.93 164.06 150.83 C 164.24 151.74 165.13 152.32 166.03 152.13 Z M 167.02 151.92 L 168.03 151.72 C 168.93 151.54 169.51 150.66 169.33 149.76 C 169.14 148.85 168.26 148.27 167.36 148.45 L 166.36 148.66 C 165.46 148.84 164.88 149.72 165.06 150.62 C 165.24 151.52 166.12 152.11 167.02 151.92 Z M 168.02 151.71 L 169.00 151.52 C 169.90 151.34 170.48 150.46 170.30 149.56 C 170.12 148.67 169.25 148.08 168.35 148.26 L 167.37 148.46 C 166.47 148.64 165.89 149.51 166.07 150.41 C 166.25 151.31 167.12 151.89 168.02 151.71 Z M 169.00 151.51 L 169.96 151.32 C 170.86 151.14 171.44 150.27 171.26 149.38 C 171.09 148.48 170.22 147.90 169.32 148.08 L 168.36 148.27 C 167.46 148.45 166.88 149.32 167.06 150.21 C 167.23 151.11 168.10 151.69 169.00 151.51 Z M 169.96 151.31 L 170.91 151.13 C 171.80 150.95 172.38 150.09 172.21 149.20 C 172.03 148.31 171.17 147.72 170.28 147.90 L 169.33 148.08 C 168.44 148.26 167.85 149.12 168.03 150.01 C 168.20 150.91 169.07 151.49 169.96 151.31 Z M 170.90 151.12 L 171.91 150.93 C 172.80 150.76 173.38 149.90 173.21 149.01 C 173.04 148.12 172.18 147.54 171.29 147.71 L 170.28 147.91 C 169.39 148.08 168.81 148.93 168.98 149.82 C 169.16 150.71 170.01 151.29 170.90 151.12 Z M 171.91 150.92 L 172.90 150.73 C 173.78 150.56 174.36 149.71 174.20 148.83 C 174.03 147.94 173.18 147.36 172.29 147.53 L 171.30 147.72 C 170.42 147.89 169.84 148.74 170.00 149.62 C 170.17 150.50 171.02 151.09 171.91 150.92 Z M 172.89 150.72 L 173.87 150.54 C 174.75 150.38 175.33 149.53 175.17 148.65 C 175.00 147.77 174.16 147.19 173.28 147.36 L 172.30 147.54 C 171.42 147.70 170.84 148.55 171.01 149.43 C 171.17 150.30 172.01 150.89 172.89 150.72 Z M 173.86 150.53 L 174.82 150.36 C 175.70 150.20 176.28 149.36 176.12 148.49 C 175.96 147.61 175.12 147.03 174.25 147.19 L 173.29 147.36 C 172.41 147.52 171.83 148.36 171.99 149.24 C 172.15 150.11 172.99 150.69 173.86 150.53 Z M 174.81 150.35 L 175.73 150.19 C 176.60 150.04 177.18 149.20 177.02 148.33 C 176.87 147.46 176.04 146.88 175.17 147.04 L 174.26 147.20 C 173.38 147.35 172.80 148.18 172.96 149.05 C 173.11 149.92 173.94 150.51 174.81 150.35 Z M 175.72 150.18 L 176.62 150.03 C 177.49 149.87 178.07 149.05 177.92 148.18 C 177.77 147.32 176.94 146.74 176.08 146.89 L 175.17 147.04 C 174.31 147.19 173.73 148.02 173.88 148.89 C 174.03 149.75 174.85 150.33 175.72 150.18 Z M 176.62 150.02 L 177.57 149.85 C 178.43 149.70 179.01 148.88 178.86 148.02 C 178.71 147.16 177.89 146.58 177.03 146.73 L 176.08 146.89 C 175.22 147.04 174.64 147.86 174.79 148.73 C 174.94 149.59 175.76 150.17 176.62 150.02 Z M 177.57 149.84 L 178.59 149.66 C 179.45 149.51 180.02 148.70 179.87 147.84 C 179.72 146.98 178.90 146.41 178.05 146.56 L 177.02 146.74 C 176.17 146.89 175.59 147.71 175.74 148.56 C 175.89 149.42 176.71 149.99 177.57 149.84 Z M 178.60 149.66 L 179.72 149.45 C 180.57 149.30 181.14 148.49 180.99 147.64 C 180.83 146.78 180.02 146.22 179.17 146.37 L 178.04 146.57 C 177.19 146.72 176.62 147.54 176.78 148.39 C 176.93 149.24 177.74 149.81 178.60 149.66 Z M 179.72 149.45 L 180.66 149.28 C 181.51 149.12 182.07 148.31 181.92 147.46 C 181.76 146.61 180.95 146.05 180.10 146.21 L 179.16 146.38 C 178.31 146.53 177.75 147.34 177.91 148.19 C 178.06 149.04 178.88 149.60 179.72 149.45 Z M 180.66 149.27 L 181.66 149.08 C 182.50 148.93 183.06 148.11 182.90 147.27 C 182.74 146.43 181.93 145.87 181.09 146.03 L 180.10 146.21 C 179.25 146.37 178.70 147.18 178.85 148.02 C 179.01 148.87 179.82 149.43 180.66 149.27 Z M 181.66 149.08 L 182.68 148.88 C 183.52 148.72 184.07 147.91 183.91 147.07 C 183.75 146.23 182.94 145.68 182.10 145.84 L 181.08 146.04 C 180.24 146.20 179.69 147.01 179.85 147.85 C 180.01 148.69 180.82 149.24 181.66 149.08 Z M 182.69 148.87 L 183.70 148.67 C 184.54 148.51 185.08 147.70 184.92 146.87 C 184.76 146.03 183.95 145.49 183.11 145.65 L 182.09 145.85 C 181.26 146.01 180.71 146.82 180.88 147.66 C 181.04 148.49 181.85 149.04 182.69 148.87 Z M 183.71 148.67 L 184.71 148.47 C 185.54 148.30 186.07 147.49 185.91 146.66 C 185.74 145.83 184.93 145.29 184.10 145.46 L 183.10 145.66 C 182.27 145.83 181.74 146.64 181.90 147.47 C 182.07 148.30 182.88 148.83 183.71 148.67 Z M 184.72 148.46 L 185.66 148.26 C 186.48 148.08 187.01 147.27 186.84 146.45 C 186.66 145.62 185.85 145.09 185.03 145.27 L 184.09 145.47 C 183.26 145.64 182.73 146.45 182.91 147.28 C 183.08 148.10 183.89 148.63 184.72 148.46 Z M 185.67 148.24 L 186.83 147.98 C 187.65 147.80 188.16 146.99 187.98 146.17 C 187.79 145.35 186.98 144.84 186.16 145.02 L 185.01 145.28 C 184.19 145.47 183.67 146.28 183.86 147.10 C 184.04 147.92 184.86 148.43 185.67 148.24 Z M 186.87 147.96 L 187.91 147.70 C 188.72 147.49 189.20 146.67 189.00 145.86 C 188.79 145.06 187.97 144.57 187.17 144.78 L 186.12 145.04 C 185.32 145.25 184.83 146.07 185.04 146.87 C 185.24 147.68 186.06 148.17 186.87 147.96 Z M 187.97 147.66 L 188.89 147.38 C 189.68 147.14 190.12 146.31 189.88 145.52 C 189.64 144.74 188.81 144.29 188.02 144.53 L 187.10 144.81 C 186.32 145.05 185.87 145.88 186.11 146.67 C 186.35 147.46 187.18 147.90 187.97 147.66 Z M 188.98 147.34 L 189.79 147.03 C 190.55 146.75 190.93 145.89 190.64 145.13 C 190.36 144.37 189.50 143.98 188.74 144.27 L 187.93 144.58 C 187.17 144.86 186.78 145.72 187.07 146.48 C 187.36 147.24 188.21 147.63 188.98 147.34 Z M 189.91 146.97 L 190.76 146.55 C 191.48 146.19 191.78 145.31 191.42 144.59 C 191.07 143.86 190.19 143.56 189.46 143.92 L 188.62 144.34 C 187.89 144.70 187.59 145.57 187.95 146.30 C 188.31 147.02 189.18 147.32 189.91 146.97 Z M 190.89 146.46 L 191.75 145.91 C 192.42 145.48 192.62 144.58 192.19 143.90 C 191.76 143.23 190.86 143.03 190.18 143.46 L 189.33 144.01 C 188.65 144.44 188.46 145.34 188.89 146.02 C 189.32 146.69 190.22 146.89 190.89 146.46 Z M 191.84 145.83 L 192.62 145.24 C 193.25 144.75 193.37 143.85 192.88 143.22 C 192.40 142.58 191.49 142.46 190.86 142.95 L 190.09 143.54 C 189.46 144.03 189.34 144.93 189.82 145.57 C 190.31 146.20 191.21 146.32 191.84 145.83 Z M 192.65 145.20 L 193.17 144.77 C 193.78 144.26 193.87 143.36 193.37 142.75 C 192.86 142.14 191.96 142.05 191.35 142.56 L 190.83 142.99 C 190.22 143.49 190.13 144.40 190.63 145.01 C 191.14 145.62 192.04 145.70 192.65 145.20 Z"
      fill="black"
      fill-rule="nonzero" /><path d="M 144.48 121.96 L 145.32 122.63 C 145.97 123.16 146.93 123.05 147.45 122.40 C 147.97 121.74 147.87 120.79 147.22 120.26 L 146.38 119.59 C 145.73 119.07 144.77 119.17 144.25 119.83 C 143.72 120.48 143.83 121.44 144.48 121.96 Z M 145.28 122.65 L 146.10 123.31 C 146.76 123.86 147.74 123.76 148.28 123.10 C 148.83 122.43 148.73 121.45 148.06 120.91 L 147.25 120.25 C 146.59 119.70 145.61 119.80 145.06 120.46 C 144.52 121.13 144.62 122.11 145.28 122.65 Z M 146.05 123.32 L 146.82 123.98 C 147.48 124.55 148.49 124.47 149.06 123.80 C 149.63 123.13 149.55 122.13 148.88 121.56 L 148.11 120.91 C 147.44 120.34 146.44 120.41 145.87 121.08 C 145.30 121.75 145.38 122.75 146.05 123.32 Z M 146.75 123.97 L 147.45 124.61 C 148.11 125.21 149.14 125.17 149.75 124.51 C 150.35 123.84 150.31 122.82 149.64 122.21 L 148.94 121.57 C 148.28 120.97 147.26 121.01 146.65 121.67 C 146.05 122.34 146.09 123.36 146.75 123.97 Z M 147.37 124.57 L 148.03 125.25 C 148.67 125.90 149.72 125.91 150.37 125.28 C 151.03 124.64 151.04 123.59 150.40 122.94 L 149.73 122.25 C 149.09 121.60 148.05 121.59 147.39 122.23 C 146.74 122.87 146.73 123.91 147.37 124.57 Z M 147.92 125.15 L 148.60 125.97 C 149.18 126.68 150.23 126.78 150.95 126.20 C 151.66 125.61 151.76 124.56 151.18 123.85 L 150.51 123.03 C 149.92 122.32 148.87 122.22 148.15 122.80 C 147.44 123.39 147.34 124.44 147.92 125.15 Z M 148.50 125.86 L 149.05 126.66 C 149.58 127.42 150.62 127.61 151.38 127.09 C 152.15 126.57 152.34 125.52 151.82 124.76 L 151.27 123.96 C 150.74 123.20 149.70 123.00 148.94 123.53 C 148.17 124.05 147.98 125.09 148.50 125.86 Z M 149.00 126.58 L 149.48 127.38 C 149.96 128.18 151.00 128.43 151.79 127.95 C 152.59 127.47 152.84 126.44 152.36 125.64 L 151.87 124.84 C 151.39 124.04 150.36 123.79 149.56 124.27 C 148.77 124.75 148.52 125.78 149.00 126.58 Z M 149.46 127.36 L 149.94 128.18 C 150.40 128.98 151.43 129.26 152.24 128.79 C 153.05 128.33 153.32 127.30 152.86 126.49 L 152.38 125.67 C 151.92 124.86 150.88 124.59 150.08 125.05 C 149.27 125.52 149.00 126.55 149.46 127.36 Z M 149.92 128.17 L 150.40 129.02 C 150.86 129.83 151.90 130.12 152.71 129.66 C 153.52 129.20 153.81 128.17 153.35 127.35 L 152.87 126.50 C 152.41 125.69 151.38 125.40 150.56 125.86 C 149.75 126.32 149.46 127.35 149.92 128.17 Z M 150.39 129.00 L 150.88 129.90 C 151.34 130.72 152.37 131.02 153.19 130.57 C 154.01 130.12 154.31 129.08 153.86 128.26 L 153.36 127.37 C 152.91 126.55 151.88 126.25 151.06 126.70 C 150.24 127.15 149.94 128.18 150.39 129.00 Z M 150.87 129.88 L 151.35 130.79 C 151.79 131.61 152.82 131.93 153.65 131.49 C 154.48 131.04 154.80 130.01 154.35 129.18 L 153.87 128.28 C 153.43 127.45 152.40 127.14 151.57 127.58 C 150.74 128.02 150.43 129.05 150.87 129.88 Z M 151.34 130.77 L 151.77 131.61 C 152.21 132.45 153.24 132.78 154.07 132.34 C 154.91 131.91 155.24 130.88 154.80 130.04 L 154.37 129.20 C 153.93 128.36 152.90 128.03 152.07 128.47 C 151.23 128.90 150.90 129.93 151.34 130.77 Z M 151.76 131.60 L 152.21 132.48 C 152.63 133.33 153.66 133.67 154.50 133.24 C 155.35 132.81 155.69 131.79 155.26 130.94 L 154.82 130.06 C 154.39 129.22 153.36 128.88 152.52 129.30 C 151.68 129.73 151.34 130.75 151.76 131.60 Z M 152.19 132.47 L 152.65 133.39 C 153.06 134.24 154.09 134.59 154.94 134.17 C 155.79 133.76 156.14 132.73 155.73 131.88 L 155.27 130.96 C 154.86 130.11 153.83 129.76 152.98 130.17 C 152.13 130.59 151.78 131.62 152.19 132.47 Z M 152.64 133.38 L 153.09 134.32 C 153.50 135.17 154.52 135.53 155.38 135.12 C 156.24 134.71 156.60 133.69 156.19 132.83 L 155.74 131.89 C 155.33 131.03 154.30 130.67 153.44 131.08 C 152.59 131.49 152.23 132.52 152.64 133.38 Z M 153.08 134.30 L 153.47 135.15 C 153.88 136.01 154.90 136.38 155.76 135.98 C 156.62 135.57 157.00 134.55 156.59 133.69 L 156.20 132.84 C 155.79 131.98 154.77 131.61 153.91 132.01 C 153.04 132.42 152.67 133.44 153.08 134.30 Z M 153.46 135.13 L 153.86 136.01 C 154.26 136.88 155.28 137.26 156.15 136.87 C 157.01 136.47 157.40 135.45 157.00 134.58 L 156.60 133.70 C 156.21 132.84 155.19 132.45 154.32 132.85 C 153.45 133.24 153.07 134.26 153.46 135.13 Z M 153.85 135.99 L 154.25 136.91 C 154.64 137.78 155.66 138.18 156.53 137.80 C 157.40 137.41 157.80 136.39 157.42 135.52 L 157.02 134.60 C 156.63 133.73 155.61 133.33 154.74 133.71 C 153.86 134.10 153.47 135.12 153.85 135.99 Z M 154.24 136.89 L 154.64 137.85 C 155.01 138.73 156.03 139.15 156.91 138.78 C 157.79 138.41 158.21 137.39 157.84 136.51 L 157.43 135.54 C 157.06 134.66 156.05 134.25 155.16 134.62 C 154.28 134.99 153.87 136.00 154.24 136.89 Z M 154.63 137.82 L 155.02 138.80 C 155.38 139.69 156.38 140.12 157.27 139.76 C 158.16 139.41 158.60 138.40 158.24 137.51 L 157.85 136.53 C 157.49 135.65 156.49 135.21 155.60 135.57 C 154.71 135.92 154.27 136.93 154.63 137.82 Z M 155.01 138.77 L 155.35 139.66 C 155.69 140.56 156.69 141.01 157.59 140.66 C 158.49 140.32 158.93 139.32 158.59 138.42 L 158.25 137.53 C 157.91 136.64 156.91 136.19 156.01 136.53 C 155.11 136.87 154.66 137.88 155.01 138.77 Z M 155.34 139.64 L 155.68 140.56 C 156.01 141.47 157.01 141.93 157.91 141.60 C 158.81 141.27 159.27 140.27 158.94 139.37 L 158.60 138.44 C 158.27 137.54 157.27 137.08 156.37 137.41 C 155.47 137.74 155.01 138.74 155.34 139.64 Z M 155.67 140.55 L 156.00 141.49 C 156.32 142.40 157.32 142.87 158.23 142.55 C 159.13 142.23 159.61 141.24 159.29 140.33 L 158.95 139.38 C 158.63 138.48 157.63 138.00 156.73 138.32 C 155.82 138.64 155.35 139.64 155.67 140.55 Z M 155.99 141.48 L 156.33 142.44 C 156.64 143.36 157.63 143.84 158.54 143.53 C 159.45 143.22 159.94 142.22 159.63 141.31 L 159.29 140.35 C 158.98 139.44 157.99 138.95 157.08 139.26 C 156.17 139.57 155.68 140.57 155.99 141.48 Z M 156.32 142.43 L 156.64 143.41 C 156.95 144.32 157.94 144.82 158.85 144.52 C 159.77 144.21 160.26 143.22 159.96 142.31 L 159.63 141.33 C 159.33 140.41 158.34 139.92 157.43 140.22 C 156.51 140.53 156.01 141.51 156.32 142.43 Z M 156.64 143.40 L 156.95 144.36 C 157.25 145.28 158.23 145.78 159.15 145.49 C 160.07 145.19 160.57 144.21 160.28 143.29 L 159.96 142.32 C 159.67 141.40 158.68 140.90 157.76 141.20 C 156.85 141.49 156.34 142.48 156.64 143.40 Z M 156.94 144.35 L 157.24 145.29 C 157.52 146.21 158.51 146.72 159.43 146.44 C 160.35 146.15 160.87 145.17 160.58 144.24 L 160.28 143.30 C 159.99 142.38 159.01 141.87 158.09 142.15 C 157.17 142.44 156.65 143.42 156.94 144.35 Z M 157.23 145.27 L 157.51 146.22 C 157.79 147.15 158.77 147.67 159.70 147.39 C 160.63 147.11 161.15 146.13 160.87 145.21 L 160.58 144.26 C 160.31 143.33 159.33 142.81 158.40 143.09 C 157.47 143.37 156.95 144.34 157.23 145.27 Z M 157.51 146.20 L 157.78 147.16 C 158.05 148.09 159.02 148.63 159.95 148.36 C 160.89 148.09 161.42 147.12 161.15 146.18 L 160.88 145.23 C 160.61 144.30 159.64 143.76 158.71 144.03 C 157.77 144.30 157.24 145.27 157.51 146.20 Z M 157.77 147.13 L 158.04 148.10 C 158.29 149.04 159.26 149.59 160.20 149.33 C 161.13 149.08 161.68 148.11 161.43 147.17 L 161.16 146.21 C 160.91 145.27 159.94 144.72 159.00 144.98 C 158.07 145.23 157.52 146.20 157.77 147.13 Z M 158.03 148.08 L 158.28 149.06 C 158.53 150.00 159.48 150.57 160.43 150.32 C 161.37 150.08 161.93 149.12 161.69 148.18 L 161.44 147.20 C 161.19 146.26 160.24 145.69 159.29 145.93 C 158.35 146.18 157.79 147.14 158.03 148.08 Z M 158.27 149.03 L 158.51 150.01 C 158.74 150.96 159.69 151.54 160.63 151.31 C 161.58 151.08 162.16 150.13 161.93 149.19 L 161.70 148.21 C 161.47 147.26 160.52 146.68 159.57 146.91 C 158.63 147.13 158.05 148.09 158.27 149.03 Z M 158.50 149.98 L 158.71 150.93 C 158.92 151.88 159.87 152.48 160.82 152.27 C 161.77 152.06 162.37 151.11 162.16 150.16 L 161.94 149.21 C 161.73 148.26 160.79 147.66 159.84 147.88 C 158.89 148.09 158.29 149.03 158.50 149.98 Z M 158.70 150.91 L 158.90 151.87 C 159.10 152.82 160.04 153.44 160.99 153.24 C 161.95 153.04 162.56 152.10 162.37 151.15 L 162.16 150.19 C 161.97 149.23 161.03 148.62 160.07 148.82 C 159.12 149.01 158.50 149.95 158.70 150.91 Z M 158.89 151.85 L 159.08 152.82 C 159.27 153.78 160.20 154.41 161.16 154.22 C 162.12 154.04 162.75 153.11 162.56 152.15 L 162.37 151.17 C 162.19 150.21 161.26 149.58 160.30 149.77 C 159.34 149.96 158.71 150.88 158.89 151.85 Z M 159.08 152.80 L 159.25 153.79 C 159.43 154.75 160.35 155.40 161.32 155.22 C 162.28 155.05 162.92 154.13 162.75 153.16 L 162.57 152.17 C 162.40 151.21 161.47 150.56 160.51 150.74 C 159.54 150.91 158.90 151.83 159.08 152.80 Z M 159.25 153.77 L 159.42 154.77 C 159.58 155.74 160.49 156.39 161.46 156.23 C 162.43 156.07 163.09 155.15 162.92 154.19 L 162.76 153.18 C 162.59 152.21 161.68 151.56 160.71 151.72 C 159.74 151.88 159.09 152.80 159.25 153.77 Z M 159.41 154.75 L 159.57 155.77 C 159.72 156.74 160.63 157.41 161.60 157.26 C 162.57 157.10 163.24 156.19 163.09 155.22 L 162.93 154.20 C 162.78 153.23 161.87 152.57 160.90 152.72 C 159.92 152.87 159.26 153.78 159.41 154.75 Z M 159.56 155.75 L 159.70 156.73 C 159.85 157.71 160.75 158.39 161.73 158.24 C 162.70 158.10 163.38 157.20 163.24 156.22 L 163.09 155.24 C 162.95 154.26 162.05 153.59 161.07 153.73 C 160.10 153.87 159.42 154.78 159.56 155.75 Z M 159.70 156.72 L 159.83 157.69 C 159.96 158.67 160.86 159.36 161.84 159.22 C 162.82 159.09 163.50 158.19 163.37 157.21 L 163.24 156.24 C 163.11 155.26 162.21 154.57 161.23 154.71 C 160.25 154.84 159.57 155.74 159.70 156.72 Z M 159.83 157.67 L 159.95 158.66 C 160.07 159.64 160.96 160.34 161.95 160.21 C 162.93 160.09 163.62 159.20 163.50 158.22 L 163.38 157.23 C 163.26 156.25 162.36 155.55 161.38 155.68 C 160.40 155.80 159.70 156.69 159.83 157.67 Z M 159.94 158.64 L 160.06 159.63 C 160.17 160.62 161.06 161.32 162.04 161.21 C 163.03 161.10 163.73 160.21 163.62 159.23 L 163.51 158.23 C 163.39 157.25 162.50 156.54 161.52 156.66 C 160.54 156.77 159.83 157.66 159.94 158.64 Z M 160.05 159.62 L 160.16 160.62 C 160.26 161.60 161.14 162.32 162.13 162.22 C 163.11 162.11 163.83 161.23 163.73 160.24 L 163.62 159.24 C 163.52 158.26 162.64 157.54 161.65 157.64 C 160.67 157.75 159.95 158.63 160.05 159.62 Z M 160.15 160.60 L 160.25 161.61 C 160.34 162.59 161.21 163.32 162.20 163.23 C 163.19 163.14 163.92 162.26 163.83 161.27 L 163.73 160.26 C 163.64 159.27 162.76 158.55 161.77 158.64 C 160.79 158.73 160.06 159.61 160.15 160.60 Z M 160.24 161.59 L 160.33 162.60 C 160.41 163.59 161.28 164.33 162.27 164.25 C 163.26 164.17 164.00 163.30 163.91 162.30 L 163.83 161.29 C 163.75 160.30 162.88 159.56 161.89 159.64 C 160.90 159.73 160.16 160.60 160.24 161.59 Z M 160.32 162.58 L 160.39 163.58 C 160.46 164.57 161.33 165.32 162.32 165.25 C 163.31 165.18 164.06 164.31 163.99 163.32 L 163.92 162.32 C 163.85 161.33 162.98 160.58 161.99 160.65 C 161.00 160.73 160.25 161.59 160.32 162.58 Z M 160.39 163.56 L 160.45 164.55 C 160.51 165.55 161.37 166.31 162.37 166.24 C 163.36 166.18 164.12 165.33 164.06 164.33 L 163.99 163.34 C 163.93 162.34 163.08 161.59 162.08 161.65 C 161.09 161.71 160.33 162.57 160.39 163.56 Z M 160.45 164.54 L 160.50 165.53 C 160.55 166.53 161.40 167.30 162.40 167.24 C 163.40 167.19 164.16 166.34 164.11 165.34 L 164.06 164.35 C 164.01 163.35 163.16 162.58 162.16 162.64 C 161.16 162.69 160.40 163.54 160.45 164.54 Z M 160.50 165.52 L 160.54 166.52 C 160.59 167.52 161.43 168.29 162.43 168.25 C 163.43 168.20 164.20 167.36 164.16 166.36 L 164.11 165.36 C 164.07 164.36 163.22 163.59 162.23 163.63 C 161.23 163.67 160.45 164.52 160.50 165.52 Z M 160.54 166.50 L 160.58 167.51 C 160.61 168.51 161.45 169.29 162.45 169.25 C 163.45 169.21 164.23 168.37 164.20 167.37 L 164.16 166.37 C 164.12 165.37 163.28 164.59 162.28 164.63 C 161.28 164.66 160.50 165.50 160.54 166.50 Z M 160.57 167.49 L 160.60 168.50 C 160.63 169.50 161.47 170.29 162.47 170.26 C 163.47 170.23 164.26 169.39 164.23 168.39 L 164.20 167.39 C 164.17 166.38 163.33 165.60 162.33 165.63 C 161.33 165.66 160.54 166.49 160.57 167.49 Z M 160.60 168.49 L 160.63 169.49 C 160.65 170.49 161.48 171.29 162.48 171.26 C 163.49 171.24 164.28 170.41 164.26 169.40 L 164.23 168.40 C 164.21 167.40 163.38 166.60 162.37 166.63 C 161.37 166.65 160.58 167.48 160.60 168.49 Z M 160.62 169.48 L 160.64 170.48 C 160.66 171.48 161.49 172.28 162.49 172.26 C 163.50 172.25 164.30 171.42 164.28 170.41 L 164.26 169.41 C 164.24 168.41 163.41 167.61 162.41 167.63 C 161.40 167.65 160.60 168.48 160.62 169.48 Z M 160.64 170.47 L 160.65 171.46 C 160.67 172.47 161.49 173.27 162.50 173.26 C 163.50 173.24 164.31 172.42 164.29 171.41 L 164.28 170.42 C 164.27 169.42 163.44 168.61 162.43 168.63 C 161.43 168.64 160.63 169.47 160.64 170.47 Z M 160.65 171.46 L 160.66 172.45 C 160.67 173.45 161.49 174.26 162.50 174.25 C 163.51 174.24 164.32 173.42 164.31 172.41 L 164.30 171.42 C 164.29 170.41 163.46 169.61 162.46 169.62 C 161.45 169.62 160.64 170.45 160.65 171.46 Z M 160.66 172.44 L 160.66 173.44 C 160.67 174.45 161.49 175.26 162.50 175.25 C 163.51 175.24 164.32 174.42 164.31 173.41 L 164.31 172.42 C 164.30 171.41 163.48 170.60 162.47 170.61 C 161.46 170.61 160.65 171.43 160.66 172.44 Z M 160.66 173.43 L 160.67 174.43 C 160.67 175.44 161.49 176.26 162.50 176.25 C 163.51 176.25 164.32 175.43 164.32 174.42 L 164.32 173.42 C 164.31 172.41 163.49 171.60 162.48 171.60 C 161.47 171.60 160.66 172.42 160.66 173.43 Z M 160.66 174.43 L 160.67 175.43 C 160.67 176.44 161.49 177.26 162.50 177.26 C 163.51 177.25 164.33 176.43 164.32 175.42 L 164.32 174.42 C 164.32 173.41 163.50 172.59 162.49 172.60 C 161.48 172.60 160.66 173.42 160.66 174.43 Z M 160.66 175.43 L 160.67 176.44 C 160.67 177.45 161.49 178.27 162.50 178.27 C 163.51 178.27 164.33 177.45 164.33 176.44 L 164.33 175.43 C 164.32 174.42 163.50 173.60 162.49 173.60 C 161.48 173.60 160.66 174.42 160.66 175.43 Z M 160.66 176.44 L 160.66 177.45 C 160.66 178.47 161.48 179.29 162.50 179.29 C 163.51 179.29 164.33 178.46 164.33 177.45 L 164.33 176.44 C 164.33 175.42 163.51 174.60 162.50 174.60 C 161.48 174.60 160.66 175.43 160.66 176.44 Z M 160.66 177.45 L 160.66 178.48 C 160.66 179.49 161.48 180.31 162.49 180.31 C 163.51 180.31 164.33 179.49 164.33 178.48 L 164.33 177.45 C 164.33 176.44 163.51 175.62 162.50 175.62 C 161.48 175.62 160.66 176.44 160.66 177.45 Z M 160.66 178.47 L 160.66 179.50 C 160.65 180.52 161.47 181.34 162.49 181.34 C 163.50 181.35 164.32 180.53 164.33 179.51 L 164.33 178.49 C 164.33 177.47 163.51 176.65 162.50 176.64 C 161.49 176.64 160.66 177.46 160.66 178.47 Z M 160.65 179.49 L 160.65 180.52 C 160.64 181.53 161.45 182.36 162.47 182.37 C 163.48 182.38 164.31 181.56 164.32 180.55 L 164.33 179.52 C 164.34 178.51 163.52 177.68 162.51 177.67 C 161.49 177.66 160.66 178.48 160.65 179.49 Z M 160.65 180.50 L 160.63 181.52 C 160.61 182.53 161.42 183.37 162.44 183.38 C 163.46 183.40 164.29 182.59 164.31 181.57 L 164.32 180.56 C 164.34 179.54 163.53 178.71 162.51 178.69 C 161.50 178.68 160.66 179.49 160.65 180.50 Z M 160.63 181.50 L 160.60 182.49 C 160.58 183.51 161.38 184.35 162.40 184.38 C 163.41 184.41 164.26 183.60 164.28 182.59 L 164.31 181.59 C 164.33 180.57 163.53 179.73 162.52 179.70 C 161.50 179.68 160.65 180.48 160.63 181.50 Z M 160.60 182.47 L 160.56 183.44 C 160.52 184.46 161.32 185.32 162.33 185.35 C 163.35 185.39 164.21 184.60 164.25 183.58 L 164.28 182.61 C 164.32 181.59 163.53 180.74 162.51 180.70 C 161.50 180.66 160.64 181.45 160.60 182.47 Z M 160.56 183.41 L 160.51 184.36 C 160.46 185.38 161.23 186.24 162.25 186.30 C 163.27 186.36 164.14 185.58 164.19 184.56 L 164.25 183.62 C 164.30 182.60 163.52 181.73 162.51 181.67 C 161.49 181.62 160.62 182.40 160.56 183.41 Z M 160.51 184.32 L 160.43 185.37 C 160.35 186.39 161.11 187.27 162.13 187.35 C 163.15 187.43 164.03 186.67 164.11 185.65 L 164.19 184.60 C 164.27 183.59 163.51 182.70 162.49 182.62 C 161.48 182.54 160.59 183.30 160.51 184.32 Z M 160.43 185.33 L 160.33 186.37 C 160.22 187.38 160.96 188.29 161.98 188.39 C 162.99 188.50 163.90 187.76 164.00 186.74 L 164.11 185.70 C 164.21 184.69 163.47 183.78 162.46 183.68 C 161.44 183.57 160.54 184.31 160.43 185.33 Z M 160.33 186.32 L 160.20 187.32 C 160.08 188.34 160.79 189.26 161.80 189.39 C 162.82 189.52 163.74 188.80 163.87 187.79 L 164.00 186.79 C 164.13 185.78 163.41 184.85 162.40 184.72 C 161.39 184.59 160.46 185.31 160.33 186.32 Z M 160.21 187.28 L 160.06 188.25 C 159.91 189.26 160.60 190.21 161.61 190.36 C 162.62 190.51 163.56 189.82 163.72 188.81 L 163.87 187.84 C 164.02 186.83 163.32 185.88 162.32 185.73 C 161.31 185.58 160.36 186.27 160.21 187.28 Z M 160.07 188.21 L 159.90 189.16 C 159.72 190.17 160.40 191.12 161.40 191.30 C 162.41 191.48 163.37 190.80 163.55 189.80 L 163.71 188.85 C 163.89 187.84 163.22 186.88 162.21 186.71 C 161.20 186.53 160.24 187.20 160.07 188.21 Z M 159.91 189.12 L 159.72 190.05 C 159.53 191.05 160.18 192.03 161.18 192.22 C 162.19 192.42 163.16 191.77 163.36 190.76 L 163.54 189.83 C 163.74 188.83 163.08 187.86 162.08 187.66 C 161.08 187.46 160.10 188.12 159.91 189.12 Z M 159.73 190.02 L 159.52 190.99 C 159.30 191.99 159.94 192.98 160.94 193.19 C 161.94 193.41 162.93 192.77 163.14 191.77 L 163.35 190.80 C 163.57 189.80 162.93 188.81 161.93 188.59 C 160.93 188.38 159.95 189.02 159.73 190.02 Z M 159.53 190.96 L 159.29 191.95 C 159.06 192.95 159.68 193.95 160.68 194.18 C 161.67 194.41 162.67 193.79 162.90 192.80 L 163.14 191.80 C 163.37 190.81 162.75 189.81 161.75 189.58 C 160.76 189.34 159.76 189.96 159.53 190.96 Z M 159.30 191.92 L 159.05 192.90 C 158.81 193.90 159.41 194.90 160.40 195.15 C 161.40 195.40 162.40 194.80 162.65 193.80 L 162.90 192.83 C 163.15 191.83 162.54 190.82 161.55 190.58 C 160.56 190.33 159.55 190.93 159.30 191.92 Z M 159.06 192.88 L 158.80 193.84 C 158.54 194.83 159.13 195.85 160.12 196.11 C 161.11 196.37 162.13 195.78 162.39 194.79 L 162.65 193.83 C 162.91 192.84 162.32 191.82 161.33 191.56 C 160.34 191.30 159.32 191.89 159.06 192.88 Z M 158.81 193.82 L 158.54 194.76 C 158.27 195.75 158.85 196.78 159.83 197.05 C 160.82 197.33 161.85 196.75 162.12 195.76 L 162.39 194.82 C 162.66 193.83 162.08 192.80 161.10 192.53 C 160.11 192.25 159.09 192.83 158.81 193.82 Z M 158.55 194.75 L 158.28 195.69 C 157.99 196.67 158.56 197.70 159.54 197.99 C 160.53 198.27 161.56 197.71 161.84 196.72 L 162.12 195.78 C 162.40 194.80 161.84 193.77 160.85 193.48 C 159.87 193.19 158.84 193.76 158.55 194.75 Z M 158.28 195.67 L 157.98 196.66 C 157.68 197.64 158.24 198.68 159.22 198.98 C 160.21 199.27 161.24 198.72 161.54 197.73 L 161.84 196.74 C 162.14 195.76 161.58 194.72 160.60 194.43 C 159.61 194.13 158.58 194.68 158.28 195.67 Z M 157.99 196.64 L 157.68 197.62 C 157.38 198.59 157.92 199.64 158.90 199.94 C 159.88 200.25 160.92 199.71 161.23 198.73 L 161.53 197.75 C 161.84 196.77 161.30 195.73 160.32 195.43 C 159.34 195.12 158.29 195.66 157.99 196.64 Z M 157.69 197.60 L 157.38 198.55 C 157.06 199.52 157.59 200.57 158.57 200.89 C 159.54 201.21 160.59 200.67 160.91 199.70 L 161.22 198.75 C 161.54 197.77 161.01 196.72 160.03 196.40 C 159.06 196.09 158.01 196.62 157.69 197.60 Z M 157.39 198.52 L 157.07 199.45 C 156.74 200.42 157.26 201.48 158.23 201.81 C 159.20 202.14 160.26 201.62 160.59 200.65 L 160.90 199.72 C 161.23 198.75 160.71 197.69 159.74 197.36 C 158.77 197.03 157.72 197.55 157.39 198.52 Z M 157.08 199.43 L 156.76 200.33 C 156.42 201.30 156.92 202.36 157.89 202.70 C 158.86 203.05 159.92 202.54 160.26 201.57 L 160.58 200.67 C 160.92 199.70 160.42 198.64 159.45 198.30 C 158.48 197.96 157.42 198.46 157.08 199.43 Z M 156.77 200.31 L 156.41 201.28 C 156.05 202.24 156.54 203.31 157.50 203.67 C 158.47 204.03 159.53 203.53 159.89 202.57 L 160.25 201.60 C 160.61 200.64 160.12 199.57 159.16 199.21 C 158.19 198.85 157.13 199.35 156.77 200.31 Z M 156.42 201.26 L 156.05 202.21 C 155.68 203.16 156.16 204.24 157.11 204.61 C 158.07 204.98 159.14 204.50 159.51 203.55 L 159.88 202.60 C 160.25 201.64 159.78 200.57 158.82 200.20 C 157.86 199.83 156.79 200.30 156.42 201.26 Z M 156.06 202.18 L 155.69 203.11 C 155.31 204.06 155.77 205.14 156.72 205.52 C 157.67 205.90 158.75 205.44 159.13 204.49 L 159.50 203.57 C 159.89 202.62 159.42 201.54 158.47 201.15 C 157.52 200.77 156.44 201.23 156.06 202.18 Z M 155.70 203.09 L 155.32 203.99 C 154.93 204.93 155.38 206.02 156.33 206.41 C 157.27 206.80 158.36 206.36 158.75 205.41 L 159.13 204.51 C 159.52 203.56 159.07 202.48 158.12 202.08 C 157.17 201.69 156.09 202.14 155.70 203.09 Z M 155.33 203.97 L 154.95 204.88 C 154.55 205.82 154.99 206.91 155.93 207.31 C 156.87 207.71 157.96 207.27 158.36 206.33 L 158.75 205.42 C 159.15 204.48 158.71 203.39 157.76 202.99 C 156.82 202.59 155.73 203.03 155.33 203.97 Z M 154.95 204.86 L 154.55 205.79 C 154.14 206.73 154.57 207.82 155.51 208.23 C 156.45 208.64 157.54 208.21 157.95 207.27 L 158.35 206.34 C 158.76 205.40 158.33 204.31 157.39 203.90 C 156.45 203.50 155.36 203.93 154.95 204.86 Z M 154.56 205.78 L 154.15 206.69 C 153.74 207.62 154.16 208.72 155.09 209.13 C 156.03 209.55 157.12 209.13 157.54 208.19 L 157.94 207.28 C 158.36 206.35 157.94 205.25 157.00 204.84 C 156.07 204.42 154.97 204.84 154.56 205.78 Z M 154.16 206.68 L 153.75 207.58 C 153.33 208.51 153.74 209.61 154.67 210.03 C 155.60 210.45 156.70 210.04 157.12 209.11 L 157.53 208.21 C 157.95 207.28 157.54 206.18 156.61 205.76 C 155.68 205.34 154.58 205.75 154.16 206.68 Z M 153.76 207.57 L 153.34 208.47 C 152.92 209.39 153.32 210.49 154.25 210.92 C 155.17 211.35 156.27 210.94 156.70 210.02 L 157.11 209.12 C 157.54 208.19 157.14 207.10 156.21 206.67 C 155.28 206.24 154.19 206.64 153.76 207.57 Z M 153.35 208.45 L 152.94 209.34 C 152.50 210.26 152.89 211.36 153.81 211.79 C 154.73 212.23 155.83 211.84 156.27 210.92 L 156.69 210.03 C 157.12 209.11 156.73 208.01 155.81 207.57 C 154.89 207.14 153.79 207.53 153.35 208.45 Z M 152.95 209.31 L 152.51 210.20 C 152.06 211.11 152.43 212.21 153.35 212.66 C 154.26 213.11 155.36 212.74 155.81 211.83 L 156.25 210.94 C 156.70 210.03 156.33 208.93 155.42 208.48 C 154.51 208.03 153.40 208.40 152.95 209.31 Z M 152.54 210.15 L 152.07 211.04 C 151.59 211.93 151.94 213.05 152.83 213.52 C 153.73 214.00 154.84 213.66 155.32 212.76 L 155.79 211.87 C 156.26 210.98 155.92 209.86 155.02 209.39 C 154.13 208.91 153.02 209.25 152.54 210.15 Z M 152.10 210.98 L 151.59 211.86 C 151.09 212.74 151.39 213.87 152.26 214.37 C 153.14 214.88 154.26 214.58 154.77 213.70 L 155.28 212.82 C 155.79 211.94 155.49 210.82 154.61 210.31 C 153.74 209.80 152.61 210.10 152.10 210.98 Z M 151.64 211.80 L 151.08 212.67 C 150.53 213.53 150.79 214.66 151.64 215.20 C 152.49 215.75 153.62 215.50 154.17 214.64 L 154.73 213.77 C 155.27 212.92 155.02 211.78 154.17 211.24 C 153.31 210.69 152.18 210.95 151.64 211.80 Z M 151.13 212.60 L 150.53 213.45 C 149.95 214.28 150.14 215.42 150.97 216.00 C 151.79 216.58 152.93 216.39 153.52 215.56 L 154.12 214.71 C 154.70 213.89 154.50 212.75 153.68 212.16 C 152.85 211.58 151.71 211.78 151.13 212.60 Z M 150.59 213.38 L 149.96 214.18 C 149.34 214.97 149.47 216.12 150.26 216.74 C 151.06 217.36 152.20 217.23 152.83 216.44 L 153.46 215.64 C 154.08 214.84 153.94 213.70 153.15 213.07 C 152.36 212.45 151.21 212.59 150.59 213.38 Z M 150.04 214.09 L 149.39 214.81 C 148.72 215.56 148.78 216.71 149.53 217.39 C 150.28 218.06 151.43 217.99 152.11 217.24 L 152.75 216.52 C 153.42 215.77 153.36 214.62 152.61 213.95 C 151.86 213.28 150.71 213.34 150.04 214.09 Z M 149.50 214.71 L 148.80 215.37 C 148.07 216.06 148.04 217.21 148.73 217.94 C 149.41 218.66 150.56 218.70 151.29 218.01 L 151.99 217.35 C 152.72 216.66 152.76 215.51 152.07 214.78 C 151.38 214.05 150.23 214.02 149.50 214.71 Z M 148.99 215.22 L 148.19 215.80 C 147.38 216.38 147.20 217.51 147.78 218.32 C 148.36 219.13 149.49 219.31 150.29 218.73 L 151.10 218.16 C 151.91 217.58 152.09 216.45 151.51 215.64 C 150.93 214.83 149.80 214.64 148.99 215.22 Z M 148.49 215.64 L 147.62 216.05 C 146.72 216.47 146.34 217.53 146.76 218.43 C 147.17 219.32 148.24 219.71 149.13 219.29 L 150.00 218.89 C 150.90 218.47 151.28 217.40 150.86 216.51 C 150.45 215.61 149.38 215.23 148.49 215.64 Z M 147.95 215.95 L 146.97 216.19 C 146.02 216.42 145.44 217.38 145.67 218.33 C 145.90 219.29 146.86 219.87 147.82 219.63 L 148.80 219.39 C 149.75 219.16 150.33 218.20 150.10 217.25 C 149.87 216.30 148.91 215.71 147.95 215.95 Z M 147.24 216.16 L 146.33 216.24 C 145.37 216.33 144.65 217.18 144.74 218.15 C 144.83 219.11 145.68 219.83 146.65 219.74 L 147.55 219.66 C 148.51 219.58 149.23 218.72 149.14 217.76 C 149.06 216.79 148.20 216.08 147.24 216.16 Z M 146.53 216.26 L 145.61 216.23 C 144.65 216.21 143.85 216.97 143.83 217.93 C 143.81 218.89 144.57 219.68 145.53 219.71 L 146.45 219.73 C 147.41 219.75 148.20 218.99 148.23 218.03 C 148.25 217.07 147.49 216.28 146.53 216.26 Z M 145.78 216.27 L 144.79 216.14 C 143.85 216.03 142.99 216.69 142.88 217.63 C 142.76 218.57 143.42 219.43 144.36 219.55 L 145.35 219.67 C 146.29 219.79 147.15 219.13 147.27 218.19 C 147.39 217.25 146.72 216.39 145.78 216.27 Z M 144.96 216.20 L 143.93 215.96 C 143.02 215.74 142.11 216.31 141.90 217.22 C 141.68 218.13 142.25 219.04 143.16 219.25 L 144.19 219.50 C 145.10 219.71 146.01 219.14 146.23 218.23 C 146.44 217.32 145.87 216.41 144.96 216.20 Z M 144.10 216.03 L 143.04 215.66 C 142.17 215.35 141.22 215.82 140.91 216.69 C 140.61 217.56 141.07 218.51 141.94 218.82 L 143.00 219.18 C 143.87 219.49 144.82 219.03 145.13 218.16 C 145.43 217.28 144.97 216.33 144.10 216.03 Z M 143.19 215.75 L 142.28 215.32 C 141.45 214.94 140.47 215.30 140.09 216.12 C 139.71 216.95 140.06 217.93 140.89 218.31 L 141.80 218.73 C 142.62 219.11 143.60 218.76 143.99 217.93 C 144.37 217.11 144.01 216.13 143.19 215.75 Z M 142.37 215.41 L 141.49 214.91 C 140.71 214.48 139.72 214.76 139.29 215.53 C 138.85 216.31 139.13 217.29 139.91 217.73 L 140.79 218.22 C 141.57 218.66 142.56 218.38 142.99 217.60 C 143.43 216.83 143.15 215.84 142.37 215.41 Z M 141.55 214.99 L 140.68 214.44 C 139.95 213.97 138.97 214.18 138.50 214.92 C 138.03 215.66 138.25 216.63 138.98 217.10 L 139.85 217.65 C 140.58 218.12 141.56 217.91 142.03 217.17 C 142.50 216.43 142.28 215.46 141.55 214.99 Z M 140.72 214.50 L 139.89 213.92 C 139.19 213.43 138.22 213.60 137.73 214.30 C 137.24 215.00 137.41 215.96 138.11 216.45 L 138.95 217.04 C 139.65 217.53 140.61 217.36 141.10 216.66 C 141.59 215.96 141.42 214.99 140.72 214.50 Z M 139.91 213.97 L 139.11 213.38 C 138.44 212.88 137.49 213.01 136.99 213.68 C 136.49 214.35 136.63 215.30 137.30 215.80 L 138.09 216.40 C 138.76 216.90 139.71 216.76 140.21 216.09 C 140.71 215.42 140.58 214.47 139.91 213.97 Z M 139.12 213.42 L 138.35 212.82 C 137.71 212.32 136.78 212.43 136.27 213.07 C 135.77 213.72 135.88 214.65 136.52 215.16 L 137.29 215.76 C 137.93 216.26 138.86 216.15 139.37 215.51 C 139.88 214.86 139.76 213.93 139.12 213.42 Z M 138.36 212.85 L 137.53 212.18 C 136.90 211.67 135.98 211.76 135.47 212.39 C 134.96 213.02 135.05 213.94 135.68 214.45 L 136.52 215.13 C 137.14 215.64 138.07 215.54 138.57 214.91 C 139.08 214.28 138.99 213.36 138.36 212.85 Z M 137.54 212.20 L 136.77 211.55 C 136.15 211.04 135.24 211.12 134.72 211.73 C 134.20 212.35 134.28 213.26 134.90 213.78 L 135.67 214.43 C 136.28 214.94 137.20 214.86 137.72 214.25 C 138.23 213.63 138.15 212.72 137.54 212.20 Z M 136.78 211.58 L 136.05 210.94 C 135.45 210.42 134.54 210.48 134.01 211.08 C 133.49 211.69 133.55 212.60 134.16 213.12 L 134.89 213.76 C 135.49 214.28 136.40 214.22 136.92 213.61 C 137.45 213.01 137.38 212.10 136.78 211.58 Z M 136.06 210.96 L 135.35 210.33 C 134.76 209.80 133.85 209.84 133.33 210.43 C 132.80 211.02 132.84 211.93 133.43 212.46 L 134.15 213.10 C 134.74 213.63 135.64 213.58 136.17 212.99 C 136.70 212.40 136.65 211.49 136.06 210.96 Z M 135.36 210.34 L 134.65 209.69 C 134.07 209.16 133.17 209.19 132.63 209.78 C 132.10 210.36 132.14 211.26 132.72 211.79 L 133.43 212.44 C 134.01 212.98 134.91 212.94 135.44 212.36 C 135.98 211.78 135.94 210.88 135.36 210.34 Z M 134.66 209.70 L 133.95 209.04 C 133.37 208.50 132.47 208.53 131.93 209.10 C 131.40 209.68 131.43 210.58 132.00 211.12 L 132.71 211.78 C 133.29 212.32 134.19 212.29 134.73 211.72 C 135.26 211.14 135.23 210.24 134.66 209.70 Z M 133.95 209.04 L 133.23 208.35 C 132.66 207.81 131.76 207.84 131.22 208.41 C 130.67 208.98 130.70 209.88 131.27 210.42 L 131.99 211.11 C 132.56 211.65 133.47 211.63 134.01 211.06 C 134.55 210.49 134.53 209.58 133.95 209.04 Z M 133.24 208.36 L 132.50 207.66 C 131.93 207.11 131.03 207.13 130.49 207.70 C 129.94 208.27 129.96 209.17 130.53 209.72 L 131.26 210.42 C 131.83 210.96 132.74 210.94 133.28 210.37 C 133.82 209.81 133.80 208.90 133.24 208.36 Z M 132.51 207.66 L 131.77 206.95 C 131.20 206.41 130.30 206.42 129.75 206.99 C 129.21 207.56 129.23 208.46 129.79 209.01 L 130.53 209.72 C 131.10 210.26 132.00 210.24 132.54 209.68 C 133.09 209.11 133.07 208.21 132.51 207.66 Z M 131.77 206.95 L 131.47 206.67 C 130.90 206.12 130.00 206.14 129.45 206.70 C 128.91 207.27 128.93 208.17 129.49 208.72 L 129.79 209.01 C 130.36 209.55 131.26 209.54 131.81 208.97 C 132.35 208.40 132.34 207.50 131.77 206.95 Z"
      fill="black"
      fill-rule="nonzero" /></svg>