<svg xmlns="http://www.w3.org/2000/svg" width="300" height="300" viewBox="0 0 300 300">
<path d="M 127.44 114.14 L 126.31 114.05 C 125.42 113.97 124.64 114.63 124.57 115.52 C 124.49 116.41 125.15 117.19 126.04 117.26 L 127.17 117.36 C 128.06 117.43 128.84 116.77 128.91 115.88 C 128.99 114.99 128.33 114.21 127.44 114.14 Z M 126.19 114.02 L 125.14 114.01 C 124.23 114.00 123.49 114.73 123.48 115.63 C 123.47 116.54 124.20 117.28 125.10 117.29 L 126.16 117.30 C 127.07 117.30 127.81 116.58 127.81 115.67 C 127.82 114.77 127.10 114.02 126.19 114.02 Z M 124.83 114.00 L 123.93 114.16 C 123.02 114.32 122.42 115.18 122.57 116.09 C 122.73 116.99 123.59 117.60 124.50 117.44 L 125.40 117.29 C 126.31 117.13 126.92 116.27 126.76 115.36 C 126.60 114.45 125.74 113.85 124.83 114.00 Z M 123.34 114.36 L 122.64 114.78 C 121.85 115.27 121.60 116.31 122.08 117.10 C 122.57 117.90 123.61 118.15 124.40 117.67 L 125.09 117.24 C 125.89 116.76 126.14 115.72 125.66 114.92 C 125.17 114.13 124.13 113.88 123.34 114.36 Z M 122.06 115.37 L 121.61 116.13 C 121.14 116.94 121.41 117.98 122.21 118.45 C 123.02 118.93 124.06 118.66 124.54 117.85 L 124.99 117.09 C 125.46 116.28 125.19 115.24 124.38 114.76 C 123.57 114.29 122.53 114.56 122.06 115.37 Z M 121.42 116.61 L 121.19 117.59 C 120.98 118.51 121.55 119.42 122.46 119.63 C 123.38 119.84 124.29 119.27 124.50 118.36 L 124.73 117.37 C 124.94 116.46 124.37 115.55 123.46 115.34 C 122.54 115.12 121.63 115.69 121.42 116.61 Z M 121.15 117.83 L 121.06 118.92 C 120.97 119.86 121.66 120.68 122.60 120.77 C 123.53 120.85 124.36 120.16 124.44 119.22 L 124.54 118.13 C 124.62 117.19 123.93 116.37 123.00 116.29 C 122.06 116.20 121.24 116.89 121.15 117.83 Z M 121.06 119.01 L 121.02 120.00 C 120.98 120.94 121.71 121.72 122.64 121.76 C 123.58 121.80 124.36 121.07 124.40 120.13 L 124.44 119.14 C 124.48 118.21 123.75 117.42 122.81 117.38 C 121.88 117.35 121.09 118.07 121.06 119.01 Z M 121.02 120.07 L 121.03 121.06 C 121.03 121.99 121.79 122.74 122.72 122.74 C 123.65 122.73 124.40 121.98 124.40 121.05 L 124.39 120.06 C 124.39 119.13 123.63 118.38 122.70 118.39 C 121.77 118.39 121.02 119.15 121.02 120.07 Z M 121.04 121.16 L 121.11 122.16 C 121.16 123.08 121.96 123.78 122.88 123.72 C 123.80 123.66 124.50 122.87 124.44 121.95 L 124.38 120.95 C 124.32 120.03 123.53 119.33 122.61 119.38 C 121.69 119.44 120.98 120.24 121.04 121.16 Z M 121.13 122.27 L 121.26 123.29 C 121.39 124.20 122.22 124.83 123.13 124.71 C 124.04 124.59 124.68 123.75 124.56 122.84 L 124.42 121.83 C 124.30 120.92 123.46 120.28 122.55 120.40 C 121.64 120.53 121.01 121.36 121.13 122.27 Z M 121.30 123.40 L 121.49 124.34 C 121.67 125.23 122.55 125.80 123.44 125.62 C 124.33 125.43 124.90 124.56 124.72 123.67 L 124.53 122.73 C 124.34 121.84 123.47 121.27 122.58 121.45 C 121.68 121.63 121.11 122.51 121.30 123.40 Z M 121.53 124.43 L 121.78 125.38 C 122.02 126.25 122.91 126.77 123.78 126.54 C 124.66 126.30 125.17 125.41 124.94 124.54 L 124.68 123.58 C 124.45 122.71 123.55 122.19 122.68 122.42 C 121.81 122.66 121.29 123.55 121.53 124.43 Z M 121.82 125.45 L 122.13 126.42 C 122.40 127.27 123.31 127.74 124.17 127.47 C 125.02 127.20 125.49 126.28 125.21 125.43 L 124.90 124.46 C 124.63 123.61 123.72 123.14 122.87 123.42 C 122.01 123.69 121.54 124.60 121.82 125.45 Z M 122.16 126.48 L 122.52 127.45 C 122.83 128.28 123.75 128.71 124.58 128.40 C 125.41 128.10 125.84 127.18 125.54 126.34 L 125.18 125.37 C 124.87 124.54 123.95 124.11 123.12 124.42 C 122.29 124.72 121.86 125.65 122.16 126.48 Z M 122.55 127.50 L 122.93 128.43 C 123.27 129.24 124.19 129.63 125.01 129.30 C 125.82 128.97 126.21 128.04 125.88 127.23 L 125.50 126.30 C 125.17 125.48 124.24 125.09 123.43 125.42 C 122.61 125.75 122.22 126.68 122.55 127.50 Z M 122.97 128.47 L 123.38 129.39 C 123.73 130.18 124.67 130.54 125.46 130.18 C 126.26 129.82 126.61 128.89 126.26 128.10 L 125.85 127.18 C 125.49 126.39 124.56 126.03 123.76 126.39 C 122.97 126.75 122.61 127.68 122.97 128.47 Z M 123.42 129.43 L 123.86 130.33 C 124.24 131.10 125.17 131.42 125.95 131.04 C 126.72 130.66 127.04 129.73 126.66 128.95 L 126.22 128.05 C 125.84 127.28 124.90 126.96 124.13 127.34 C 123.36 127.72 123.04 128.66 123.42 129.43 Z M 123.90 130.37 L 124.37 131.26 C 124.78 132.01 125.72 132.29 126.47 131.88 C 127.22 131.48 127.50 130.54 127.09 129.79 L 126.62 128.91 C 126.21 128.16 125.28 127.88 124.53 128.28 C 123.78 128.69 123.49 129.62 123.90 130.37 Z M 124.42 131.30 L 124.93 132.16 C 125.36 132.89 126.30 133.13 127.02 132.70 C 127.75 132.27 127.99 131.33 127.56 130.61 L 127.05 129.74 C 126.62 129.02 125.68 128.78 124.95 129.21 C 124.23 129.64 123.99 130.57 124.42 131.30 Z M 124.97 132.21 L 125.53 133.06 C 125.98 133.76 126.92 133.96 127.62 133.50 C 128.32 133.05 128.52 132.11 128.07 131.41 L 127.51 130.56 C 127.06 129.86 126.12 129.66 125.42 130.12 C 124.72 130.57 124.52 131.51 124.97 132.21 Z M 125.57 133.11 L 126.16 133.92 C 126.64 134.60 127.58 134.75 128.25 134.27 C 128.93 133.79 129.08 132.85 128.60 132.18 L 128.02 131.36 C 127.54 130.69 126.60 130.53 125.92 131.01 C 125.25 131.49 125.09 132.43 125.57 133.11 Z M 126.21 133.97 L 126.82 134.75 C 127.33 135.40 128.27 135.51 128.91 135.00 C 129.56 134.50 129.67 133.56 129.17 132.92 L 128.55 132.13 C 128.04 131.49 127.11 131.37 126.46 131.88 C 125.82 132.39 125.70 133.32 126.21 133.97 Z M 126.88 134.80 L 127.52 135.54 C 128.05 136.16 128.99 136.23 129.60 135.70 C 130.22 135.16 130.29 134.23 129.75 133.62 L 129.11 132.87 C 128.58 132.26 127.65 132.19 127.03 132.72 C 126.42 133.25 126.35 134.18 126.88 134.80 Z M 127.58 135.59 L 128.30 136.34 C 128.86 136.93 129.78 136.95 130.37 136.39 C 130.95 135.83 130.97 134.91 130.41 134.32 L 129.70 133.57 C 129.14 132.99 128.21 132.96 127.63 133.52 C 127.04 134.08 127.02 135.01 127.58 135.59 Z M 128.36 136.39 L 129.11 137.10 C 129.70 137.64 130.62 137.61 131.17 137.03 C 131.72 136.44 131.69 135.52 131.10 134.97 L 130.35 134.27 C 129.76 133.72 128.84 133.75 128.30 134.34 C 127.75 134.93 127.78 135.85 128.36 136.39 Z M 129.19 137.15 L 129.96 137.78 C 130.57 138.29 131.48 138.20 131.99 137.58 C 132.50 136.97 132.41 136.06 131.79 135.55 L 131.03 134.92 C 130.41 134.41 129.50 134.50 128.99 135.11 C 128.48 135.73 128.57 136.64 129.19 137.15 Z M 130.04 137.84 L 130.82 138.39 C 131.47 138.85 132.36 138.69 132.82 138.04 C 133.28 137.40 133.13 136.50 132.48 136.04 L 131.70 135.49 C 131.06 135.03 130.16 135.19 129.70 135.83 C 129.24 136.48 129.40 137.38 130.04 137.84 Z M 130.93 138.45 L 131.81 138.96 C 132.49 139.36 133.37 139.13 133.77 138.45 C 134.17 137.77 133.94 136.89 133.25 136.49 L 132.37 135.98 C 131.69 135.58 130.81 135.81 130.41 136.49 C 130.02 137.18 130.25 138.05 130.93 138.45 Z M 131.92 139.02 L 132.83 139.45 C 133.54 139.79 134.39 139.49 134.73 138.77 C 135.07 138.06 134.76 137.21 134.05 136.87 L 133.15 136.44 C 132.43 136.10 131.58 136.40 131.24 137.12 C 130.90 137.83 131.21 138.68 131.92 139.02 Z M 132.90 139.48 L 133.81 139.85 C 134.54 140.15 135.37 139.80 135.67 139.06 C 135.96 138.33 135.61 137.50 134.88 137.21 L 133.98 136.84 C 133.25 136.54 132.41 136.89 132.12 137.62 C 131.82 138.35 132.17 139.19 132.90 139.48 Z M 133.84 139.86 L 134.47 140.10 C 135.21 140.38 136.03 140.01 136.31 139.27 C 136.59 138.54 136.22 137.71 135.48 137.43 L 134.85 137.19 C 134.11 136.92 133.29 137.29 133.01 138.02 C 132.73 138.76 133.11 139.58 133.84 139.86 Z"
      fill="black"
      fill-rule="nonzero" /><path d="M 131.15 121.82 L 130.31 121.32 C 129.57 120.88 128.61 121.12 128.17 121.85 C 127.73 122.59 127.97 123.54 128.71 123.99 L 129.55 124.49 C 130.29 124.93 131.24 124.69 131.68 123.96 C 132.12 123.22 131.88 122.27 131.15 121.82 Z M 130.30 121.31 L 129.45 120.81 C 128.71 120.37 127.75 120.61 127.32 121.35 C 126.88 122.09 127.12 123.05 127.86 123.49 L 128.71 123.99 C 129.45 124.43 130.41 124.19 130.85 123.45 C 131.29 122.71 131.04 121.75 130.30 121.31 Z M 129.44 120.80 L 128.57 120.29 C 127.83 119.86 126.87 120.11 126.44 120.86 C 126.00 121.60 126.26 122.56 127.00 123.00 L 127.87 123.50 C 128.62 123.93 129.57 123.68 130.01 122.93 C 130.44 122.19 130.19 121.23 129.44 120.80 Z M 128.56 120.28 L 127.65 119.76 C 126.89 119.34 125.94 119.61 125.51 120.36 C 125.09 121.11 125.35 122.07 126.11 122.50 L 127.02 123.01 C 127.77 123.44 128.73 123.17 129.15 122.41 C 129.58 121.66 129.31 120.70 128.56 120.28 Z M 127.64 119.74 L 126.52 119.12 C 125.76 118.70 124.79 118.98 124.37 119.74 C 123.95 120.51 124.22 121.47 124.99 121.90 L 126.11 122.52 C 126.88 122.94 127.84 122.66 128.26 121.90 C 128.69 121.13 128.41 120.17 127.64 119.74 Z M 126.59 119.13 L 125.67 118.57 C 124.91 118.11 123.92 118.36 123.46 119.12 C 123.00 119.88 123.24 120.87 124.00 121.33 L 124.92 121.89 C 125.68 122.35 126.67 122.11 127.14 121.35 C 127.60 120.58 127.35 119.59 126.59 119.13 Z M 125.94 118.74 L 125.47 118.31 C 124.79 117.70 123.76 117.75 123.15 118.42 C 122.54 119.09 122.59 120.13 123.26 120.74 L 123.74 121.17 C 124.41 121.78 125.44 121.73 126.05 121.06 C 126.66 120.39 126.61 119.35 125.94 118.74 Z M 125.77 120.39 L 125.93 120.13 C 126.41 119.35 126.17 118.33 125.39 117.85 C 124.62 117.37 123.60 117.61 123.12 118.39 L 122.95 118.65 C 122.47 119.43 122.71 120.45 123.49 120.93 C 124.27 121.41 125.29 121.17 125.77 120.39 Z M 124.82 120.89 L 125.64 120.74 C 126.54 120.57 127.14 119.71 126.97 118.81 C 126.81 117.91 125.94 117.31 125.04 117.48 L 124.23 117.63 C 123.33 117.79 122.73 118.66 122.90 119.56 C 123.06 120.46 123.92 121.05 124.82 120.89 Z M 125.47 120.76 L 126.91 120.65 C 127.82 120.58 128.51 119.79 128.44 118.87 C 128.37 117.96 127.57 117.28 126.66 117.35 L 125.22 117.45 C 124.30 117.52 123.62 118.32 123.69 119.23 C 123.76 120.15 124.55 120.83 125.47 120.76 Z M 126.89 120.65 L 127.95 120.59 C 128.86 120.53 129.55 119.74 129.49 118.82 C 129.43 117.91 128.64 117.21 127.73 117.27 L 126.68 117.34 C 125.76 117.40 125.07 118.19 125.13 119.11 C 125.19 120.02 125.98 120.71 126.89 120.65 Z M 127.95 120.59 L 128.80 120.53 C 129.72 120.46 130.41 119.67 130.35 118.76 C 130.28 117.84 129.49 117.15 128.58 117.22 L 127.73 117.27 C 126.81 117.34 126.12 118.13 126.18 119.04 C 126.25 119.96 127.04 120.65 127.95 120.59 Z M 128.81 120.53 L 129.73 120.46 C 130.65 120.40 131.34 119.60 131.27 118.69 C 131.21 117.77 130.41 117.08 129.50 117.15 L 128.57 117.22 C 127.66 117.28 126.97 118.08 127.04 118.99 C 127.10 119.90 127.90 120.59 128.81 120.53 Z M 129.74 120.46 L 130.72 120.39 C 131.64 120.32 132.32 119.52 132.26 118.61 C 132.19 117.69 131.39 117.01 130.48 117.08 L 129.49 117.15 C 128.58 117.22 127.89 118.01 127.96 118.93 C 128.03 119.84 128.82 120.53 129.74 120.46 Z M 130.73 120.39 L 131.76 120.31 C 132.68 120.24 133.36 119.44 133.29 118.52 C 133.22 117.61 132.42 116.93 131.51 117.00 L 130.47 117.08 C 129.56 117.15 128.87 117.95 128.95 118.86 C 129.02 119.77 129.82 120.46 130.73 120.39 Z M 131.77 120.31 L 132.84 120.22 C 133.76 120.15 134.44 119.34 134.37 118.43 C 134.29 117.52 133.49 116.83 132.58 116.91 L 131.50 117.00 C 130.59 117.07 129.91 117.87 129.98 118.79 C 130.06 119.70 130.86 120.38 131.77 120.31 Z M 132.85 120.22 L 133.95 120.13 C 134.87 120.05 135.54 119.24 135.47 118.33 C 135.39 117.42 134.58 116.74 133.67 116.82 L 132.57 116.91 C 131.65 116.99 130.98 117.79 131.05 118.71 C 131.13 119.62 131.94 120.30 132.85 120.22 Z M 133.96 120.13 L 135.08 120.03 C 135.99 119.94 136.66 119.14 136.58 118.22 C 136.50 117.31 135.69 116.63 134.78 116.72 L 133.66 116.82 C 132.75 116.90 132.07 117.71 132.16 118.62 C 132.24 119.53 133.05 120.21 133.96 120.13 Z M 135.08 120.02 L 136.14 119.93 C 137.05 119.84 137.72 119.03 137.64 118.11 C 137.55 117.20 136.74 116.53 135.83 116.62 L 134.77 116.72 C 133.86 116.80 133.19 117.61 133.27 118.53 C 133.36 119.44 134.17 120.11 135.08 120.02 Z M 136.15 119.92 L 137.16 119.82 C 138.07 119.73 138.74 118.92 138.65 118.01 C 138.56 117.09 137.74 116.43 136.83 116.52 L 135.82 116.62 C 134.91 116.71 134.24 117.52 134.33 118.43 C 134.42 119.35 135.23 120.01 136.15 119.92 Z M 137.16 119.82 L 138.17 119.72 C 139.08 119.63 139.75 118.81 139.65 117.90 C 139.56 116.98 138.75 116.32 137.83 116.41 L 136.82 116.52 C 135.91 116.61 135.25 117.43 135.34 118.34 C 135.43 119.25 136.25 119.92 137.16 119.82 Z M 138.18 119.72 L 139.18 119.61 C 140.09 119.52 140.76 118.70 140.66 117.79 C 140.56 116.87 139.75 116.21 138.83 116.31 L 137.83 116.41 C 136.92 116.51 136.25 117.33 136.35 118.24 C 136.45 119.15 137.26 119.82 138.18 119.72 Z M 139.18 119.61 L 140.19 119.51 C 141.10 119.41 141.76 118.59 141.66 117.68 C 141.56 116.76 140.74 116.10 139.83 116.20 L 138.83 116.31 C 137.92 116.41 137.26 117.23 137.36 118.14 C 137.45 119.05 138.27 119.71 139.18 119.61 Z M 140.19 119.50 L 141.18 119.40 C 142.10 119.30 142.75 118.48 142.65 117.57 C 142.56 116.65 141.74 115.99 140.82 116.09 L 139.83 116.20 C 138.92 116.30 138.26 117.12 138.36 118.03 C 138.46 118.95 139.28 119.60 140.19 119.50 Z M 141.18 119.40 L 142.17 119.29 C 143.08 119.19 143.74 118.37 143.64 117.46 C 143.54 116.54 142.72 115.89 141.81 115.99 L 140.82 116.09 C 139.91 116.19 139.25 117.01 139.35 117.93 C 139.45 118.84 140.27 119.50 141.18 119.40 Z M 142.17 119.29 L 143.15 119.18 C 144.06 119.08 144.72 118.26 144.62 117.35 C 144.52 116.44 143.70 115.78 142.79 115.88 L 141.81 115.99 C 140.90 116.09 140.24 116.91 140.34 117.82 C 140.44 118.73 141.26 119.39 142.17 119.29 Z M 143.15 119.18 L 144.12 119.08 C 145.03 118.98 145.69 118.16 145.59 117.25 C 145.49 116.33 144.67 115.67 143.76 115.77 L 142.79 115.88 C 141.88 115.98 141.22 116.80 141.32 117.71 C 141.42 118.62 142.24 119.28 143.15 119.18 Z M 144.12 119.08 L 145.16 118.97 C 146.07 118.87 146.73 118.05 146.63 117.14 C 146.54 116.23 145.72 115.56 144.81 115.66 L 143.77 115.77 C 142.85 115.87 142.19 116.69 142.29 117.60 C 142.39 118.51 143.21 119.17 144.12 119.08 Z M 145.15 118.97 L 146.24 118.85 C 147.15 118.76 147.81 117.94 147.72 117.03 C 147.62 116.12 146.80 115.45 145.89 115.55 L 144.81 115.66 C 143.90 115.76 143.23 116.57 143.33 117.49 C 143.42 118.40 144.24 119.06 145.15 118.97 Z M 146.23 118.85 L 147.29 118.75 C 148.21 118.65 148.87 117.84 148.78 116.93 C 148.69 116.01 147.87 115.35 146.96 115.44 L 145.90 115.55 C 144.98 115.64 144.32 116.46 144.41 117.37 C 144.50 118.28 145.32 118.95 146.23 118.85 Z M 147.29 118.75 L 148.32 118.65 C 149.24 118.56 149.90 117.74 149.81 116.83 C 149.72 115.91 148.91 115.25 148.00 115.34 L 146.96 115.44 C 146.05 115.53 145.38 116.34 145.47 117.26 C 145.56 118.17 146.37 118.84 147.29 118.75 Z M 148.32 118.65 L 149.32 118.55 C 150.23 118.46 150.90 117.65 150.82 116.74 C 150.73 115.82 149.92 115.15 149.00 115.24 L 148.00 115.34 C 147.09 115.42 146.42 116.23 146.50 117.15 C 146.59 118.06 147.40 118.73 148.32 118.65 Z M 149.31 118.55 L 150.28 118.46 C 151.19 118.38 151.87 117.57 151.78 116.65 C 151.70 115.74 150.89 115.07 149.97 115.15 L 149.01 115.24 C 148.09 115.32 147.42 116.13 147.50 117.05 C 147.59 117.96 148.40 118.64 149.31 118.55 Z M 150.27 118.46 L 151.20 118.38 C 152.11 118.30 152.79 117.49 152.71 116.58 C 152.63 115.66 151.82 114.99 150.91 115.07 L 149.98 115.15 C 149.07 115.23 148.39 116.04 148.47 116.95 C 148.55 117.87 149.36 118.54 150.27 118.46 Z M 151.19 118.38 L 152.07 118.31 C 152.99 118.23 153.67 117.43 153.59 116.51 C 153.51 115.60 152.71 114.92 151.79 114.99 L 150.91 115.07 C 150.00 115.14 149.32 115.95 149.39 116.86 C 149.47 117.78 150.28 118.46 151.19 118.38 Z M 152.06 118.31 L 153.14 118.23 C 154.06 118.15 154.75 117.35 154.67 116.44 C 154.60 115.52 153.80 114.84 152.89 114.91 L 151.80 114.99 C 150.89 115.06 150.20 115.86 150.27 116.78 C 150.35 117.70 151.15 118.38 152.06 118.31 Z M 153.13 118.23 L 154.23 118.15 C 155.14 118.09 155.83 117.29 155.77 116.37 C 155.71 115.46 154.91 114.77 153.99 114.83 L 152.90 114.91 C 151.98 114.97 151.29 115.77 151.35 116.68 C 151.42 117.60 152.21 118.29 153.13 118.23 Z M 154.21 118.15 L 155.23 118.09 C 156.14 118.03 156.84 117.24 156.78 116.33 C 156.73 115.41 155.94 114.71 155.02 114.77 L 154.01 114.83 C 153.09 114.89 152.39 115.67 152.45 116.59 C 152.51 117.51 153.29 118.21 154.21 118.15 Z M 155.21 118.09 L 156.16 118.04 C 157.08 117.99 157.78 117.21 157.73 116.30 C 157.69 115.38 156.91 114.67 155.99 114.72 L 155.04 114.77 C 154.12 114.81 153.42 115.60 153.46 116.51 C 153.51 117.43 154.29 118.13 155.21 118.09 Z M 156.14 118.04 L 157.04 118.00 C 157.96 117.97 158.67 117.19 158.64 116.28 C 158.60 115.36 157.83 114.65 156.91 114.68 L 156.01 114.72 C 155.09 114.76 154.38 115.53 154.42 116.45 C 154.45 117.36 155.23 118.08 156.14 118.04 Z M 157.03 118.00 L 157.95 117.97 C 158.87 117.95 159.59 117.18 159.56 116.26 C 159.54 115.35 158.77 114.63 157.85 114.66 L 156.93 114.68 C 156.01 114.71 155.29 115.48 155.32 116.39 C 155.34 117.31 156.11 118.03 157.03 118.00 Z M 157.93 117.97 L 159.00 117.95 C 159.92 117.94 160.65 117.18 160.63 116.27 C 160.61 115.35 159.86 114.62 158.94 114.64 L 157.87 114.66 C 156.96 114.67 156.23 115.43 156.25 116.34 C 156.26 117.26 157.02 117.99 157.93 117.97 Z M 158.97 117.95 L 160.00 117.95 C 160.91 117.95 161.65 117.21 161.65 116.30 C 161.65 115.38 160.91 114.64 159.99 114.64 L 158.97 114.64 C 158.06 114.64 157.32 115.38 157.32 116.30 C 157.32 117.21 158.06 117.95 158.97 117.95 Z M 159.96 117.95 L 160.93 117.97 C 161.84 117.99 162.60 117.27 162.62 116.35 C 162.64 115.44 161.92 114.68 161.00 114.66 L 160.03 114.64 C 159.12 114.62 158.36 115.35 158.34 116.26 C 158.32 117.17 159.04 117.93 159.96 117.95 Z M 160.88 117.97 L 161.80 118.02 C 162.71 118.06 163.48 117.36 163.53 116.45 C 163.58 115.54 162.88 114.76 161.97 114.71 L 161.05 114.67 C 160.14 114.62 159.36 115.32 159.32 116.23 C 159.27 117.14 159.97 117.92 160.88 117.97 Z M 161.71 118.01 L 162.85 118.13 C 163.76 118.23 164.57 117.57 164.67 116.66 C 164.77 115.75 164.11 114.94 163.20 114.84 L 162.06 114.72 C 161.15 114.62 160.33 115.28 160.24 116.19 C 160.14 117.10 160.80 117.91 161.71 118.01 Z M 162.62 118.09 L 163.59 118.34 C 164.48 118.56 165.38 118.02 165.60 117.14 C 165.82 116.25 165.29 115.35 164.40 115.13 L 163.43 114.88 C 162.54 114.66 161.64 115.20 161.42 116.08 C 161.20 116.97 161.74 117.87 162.62 118.09 Z M 163.15 118.16 L 163.88 118.59 C 164.67 119.06 165.68 118.80 166.15 118.01 C 166.62 117.22 166.36 116.21 165.57 115.74 L 164.84 115.31 C 164.06 114.84 163.04 115.10 162.57 115.89 C 162.10 116.67 162.36 117.69 163.15 118.16 Z M 163.32 118.05 L 163.79 118.79 C 164.28 119.57 165.30 119.80 166.08 119.31 C 166.85 118.82 167.09 117.80 166.60 117.02 L 166.13 116.28 C 165.64 115.50 164.62 115.27 163.84 115.76 C 163.07 116.25 162.83 117.27 163.32 118.05 Z M 163.55 118.14 L 163.69 119.12 C 163.82 120.03 164.67 120.65 165.57 120.52 C 166.48 120.39 167.11 119.55 166.98 118.64 L 166.84 117.67 C 166.70 116.76 165.86 116.13 164.95 116.26 C 164.05 116.40 163.42 117.24 163.55 118.14 Z M 163.69 118.66 L 163.55 119.74 C 163.43 120.65 164.07 121.48 164.98 121.60 C 165.89 121.72 166.72 121.07 166.84 120.17 L 166.98 119.09 C 167.10 118.18 166.46 117.35 165.55 117.23 C 164.64 117.11 163.81 117.76 163.69 118.66 Z M 163.61 119.46 L 163.37 120.22 C 163.10 121.09 163.59 122.02 164.46 122.30 C 165.34 122.57 166.27 122.08 166.54 121.21 L 166.78 120.44 C 167.05 119.57 166.56 118.64 165.69 118.37 C 164.81 118.10 163.89 118.58 163.61 119.46 Z M 163.45 120.04 L 163.08 120.85 C 162.71 121.68 163.08 122.66 163.91 123.03 C 164.74 123.41 165.72 123.04 166.10 122.21 L 166.46 121.39 C 166.84 120.56 166.47 119.58 165.63 119.21 C 164.80 118.83 163.82 119.20 163.45 120.04 Z M 163.16 120.72 L 162.65 121.62 C 162.20 122.41 162.47 123.41 163.26 123.86 C 164.05 124.31 165.06 124.03 165.51 123.24 L 166.02 122.34 C 166.47 121.55 166.19 120.55 165.40 120.10 C 164.61 119.65 163.61 119.92 163.16 120.72 Z M 162.71 121.53 L 162.03 122.55 C 161.53 123.30 161.74 124.32 162.50 124.82 C 163.25 125.32 164.27 125.11 164.77 124.36 L 165.45 123.33 C 165.94 122.58 165.74 121.56 164.98 121.06 C 164.23 120.56 163.21 120.77 162.71 121.53 Z M 162.07 122.50 L 161.51 123.28 C 160.98 124.02 161.15 125.04 161.88 125.57 C 162.62 126.09 163.64 125.93 164.17 125.19 L 164.73 124.41 C 165.26 123.67 165.09 122.65 164.36 122.12 C 163.62 121.60 162.60 121.76 162.07 122.50 Z M 161.53 123.26 L 160.96 124.02 C 160.42 124.74 160.56 125.76 161.28 126.31 C 162.00 126.85 163.03 126.70 163.57 125.98 L 164.14 125.22 C 164.69 124.50 164.54 123.47 163.82 122.93 C 163.10 122.39 162.07 122.53 161.53 123.26 Z M 160.98 124.00 L 160.36 124.79 C 159.81 125.50 159.94 126.53 160.65 127.08 C 161.36 127.63 162.38 127.51 162.94 126.79 L 163.55 126.00 C 164.11 125.29 163.98 124.26 163.27 123.71 C 162.55 123.16 161.53 123.29 160.98 124.00 Z M 160.38 124.78 L 159.73 125.59 C 159.17 126.29 159.28 127.32 159.98 127.88 C 160.69 128.44 161.71 128.32 162.27 127.62 L 162.92 126.81 C 163.48 126.11 163.37 125.08 162.66 124.52 C 161.96 123.96 160.94 124.07 160.38 124.78 Z M 159.74 125.57 L 159.08 126.39 C 158.51 127.08 158.61 128.11 159.30 128.67 C 160.00 129.24 161.02 129.14 161.59 128.45 L 162.26 127.64 C 162.83 126.94 162.73 125.92 162.03 125.35 C 161.34 124.78 160.31 124.88 159.74 125.57 Z M 159.09 126.37 L 158.42 127.17 C 157.85 127.86 157.94 128.88 158.62 129.46 C 159.31 130.03 160.33 129.94 160.91 129.26 L 161.58 128.46 C 162.16 127.77 162.07 126.75 161.38 126.17 C 160.69 125.60 159.67 125.69 159.09 126.37 Z M 158.44 127.16 L 157.78 127.92 C 157.20 128.60 157.27 129.62 157.95 130.21 C 158.63 130.79 159.66 130.71 160.24 130.03 L 160.90 129.27 C 161.48 128.59 161.40 127.57 160.72 126.98 C 160.04 126.40 159.02 126.48 158.44 127.16 Z M 157.80 127.91 L 157.07 128.73 C 156.48 129.40 156.54 130.43 157.21 131.02 C 157.88 131.61 158.90 131.55 159.50 130.87 L 160.22 130.05 C 160.82 129.38 160.75 128.36 160.08 127.76 C 159.41 127.17 158.39 127.24 157.80 127.91 Z M 157.08 128.71 L 156.38 129.49 C 155.78 130.15 155.83 131.17 156.49 131.77 C 157.15 132.38 158.17 132.33 158.77 131.67 L 159.48 130.89 C 160.08 130.23 160.03 129.21 159.37 128.61 C 158.71 128.00 157.69 128.05 157.08 128.71 Z M 156.40 129.47 L 155.71 130.20 C 155.10 130.85 155.13 131.87 155.78 132.48 C 156.43 133.10 157.46 133.06 158.07 132.41 L 158.75 131.68 C 159.37 131.03 159.34 130.01 158.69 129.40 C 158.03 128.79 157.01 128.82 156.40 129.47 Z M 155.73 130.18 L 155.06 130.87 C 154.44 131.51 154.45 132.53 155.09 133.16 C 155.73 133.78 156.75 133.77 157.38 133.13 L 158.05 132.43 C 158.67 131.79 158.66 130.77 158.02 130.15 C 157.38 129.53 156.36 129.54 155.73 130.18 Z M 155.08 130.85 L 154.41 131.52 C 153.78 132.15 153.77 133.17 154.40 133.80 C 155.03 134.44 156.05 134.44 156.68 133.81 L 157.36 133.14 C 157.99 132.51 157.99 131.49 157.36 130.86 C 156.73 130.23 155.71 130.23 155.08 130.85 Z M 154.43 131.50 L 153.75 132.16 C 153.11 132.77 153.09 133.80 153.71 134.44 C 154.33 135.08 155.35 135.10 155.99 134.48 L 156.67 133.83 C 157.31 133.21 157.33 132.19 156.71 131.55 C 156.09 130.90 155.07 130.89 154.43 131.50 Z M 153.77 132.14 L 153.04 132.82 C 152.39 133.43 152.36 134.45 152.96 135.10 C 153.57 135.75 154.60 135.79 155.25 135.18 L 155.97 134.50 C 156.62 133.89 156.66 132.87 156.05 132.21 C 155.44 131.56 154.42 131.53 153.77 132.14 Z M 153.06 132.80 L 152.32 133.47 C 151.66 134.07 151.61 135.10 152.21 135.76 C 152.81 136.42 153.83 136.47 154.49 135.87 L 155.23 135.20 C 155.89 134.59 155.94 133.57 155.34 132.91 C 154.74 132.25 153.72 132.20 153.06 132.80 Z M 152.33 133.46 L 151.58 134.12 C 150.91 134.71 150.85 135.73 151.44 136.40 C 152.03 137.07 153.05 137.14 153.72 136.55 L 154.47 135.89 C 155.15 135.29 155.21 134.27 154.62 133.60 C 154.03 132.93 153.00 132.86 152.33 133.46 Z M 151.60 134.10 L 150.84 134.75 C 150.16 135.33 150.08 136.36 150.66 137.04 C 151.24 137.72 152.27 137.80 152.95 137.22 L 153.71 136.57 C 154.39 135.98 154.47 134.96 153.89 134.28 C 153.30 133.60 152.28 133.52 151.60 134.10 Z M 150.85 134.73 L 150.08 135.37 C 149.39 135.95 149.30 136.97 149.87 137.66 C 150.44 138.35 151.47 138.45 152.16 137.87 L 152.93 137.23 C 153.62 136.66 153.72 135.64 153.14 134.95 C 152.57 134.25 151.54 134.16 150.85 134.73 Z M 150.10 135.35 L 149.31 135.99 C 148.61 136.56 148.49 137.58 149.06 138.28 C 149.62 138.98 150.65 139.09 151.35 138.53 L 152.14 137.89 C 152.84 137.33 152.95 136.30 152.39 135.60 C 151.83 134.90 150.80 134.79 150.10 135.35 Z M 149.32 135.97 L 148.51 136.61 C 147.79 137.16 147.67 138.19 148.22 138.90 C 148.78 139.61 149.80 139.74 150.52 139.19 L 151.33 138.55 C 152.04 138.00 152.17 136.97 151.62 136.26 C 151.06 135.54 150.04 135.42 149.32 135.97 Z M 148.52 136.59 L 147.71 137.20 C 146.98 137.75 146.84 138.77 147.38 139.50 C 147.93 140.22 148.96 140.37 149.68 139.82 L 150.50 139.21 C 151.22 138.66 151.37 137.63 150.82 136.91 C 150.28 136.19 149.25 136.04 148.52 136.59 Z M 147.73 137.18 L 146.91 137.77 C 146.18 138.30 146.01 139.33 146.55 140.07 C 147.08 140.81 148.11 140.97 148.85 140.43 L 149.66 139.85 C 150.40 139.31 150.56 138.28 150.03 137.54 C 149.49 136.81 148.46 136.64 147.73 137.18 Z M 146.94 137.74 L 146.14 138.30 C 145.39 138.82 145.20 139.86 145.72 140.60 C 146.25 141.35 147.28 141.54 148.03 141.02 L 148.83 140.46 C 149.58 139.94 149.76 138.91 149.24 138.16 C 148.72 137.41 147.69 137.22 146.94 137.74 Z M 146.16 138.28 L 145.37 138.80 C 144.61 139.31 144.40 140.34 144.91 141.11 C 145.42 141.87 146.45 142.08 147.21 141.57 L 148.00 141.04 C 148.76 140.53 148.97 139.50 148.46 138.74 C 147.96 137.98 146.92 137.77 146.16 138.28 Z M 145.40 138.77 L 144.49 139.34 C 143.71 139.84 143.47 140.87 143.96 141.65 C 144.45 142.43 145.49 142.67 146.27 142.17 L 147.18 141.60 C 147.96 141.11 148.20 140.08 147.70 139.30 C 147.21 138.51 146.18 138.28 145.40 138.77 Z M 144.52 139.31 L 143.64 139.83 C 142.84 140.30 142.57 141.33 143.04 142.13 C 143.51 142.94 144.55 143.20 145.35 142.73 L 146.23 142.21 C 147.04 141.74 147.30 140.71 146.83 139.90 C 146.36 139.10 145.32 138.83 144.52 139.31 Z M 143.67 139.79 L 142.82 140.26 C 141.99 140.72 141.69 141.75 142.15 142.57 C 142.60 143.39 143.63 143.69 144.45 143.24 L 145.31 142.77 C 146.14 142.32 146.44 141.28 145.98 140.46 C 145.53 139.64 144.50 139.34 143.67 139.79 Z M 142.85 140.23 L 142.01 140.66 C 141.17 141.09 140.84 142.13 141.27 142.97 C 141.70 143.81 142.74 144.14 143.58 143.71 L 144.42 143.28 C 145.26 142.84 145.59 141.81 145.16 140.97 C 144.73 140.13 143.69 139.80 142.85 140.23 Z M 142.05 140.63 L 141.20 141.04 C 140.34 141.45 139.97 142.48 140.39 143.34 C 140.80 144.20 141.83 144.56 142.69 144.15 L 143.54 143.74 C 144.40 143.33 144.76 142.30 144.35 141.44 C 143.94 140.58 142.91 140.22 142.05 140.63 Z M 141.25 141.00 L 140.38 141.38 C 139.50 141.76 139.09 142.78 139.48 143.66 C 139.86 144.54 140.88 144.95 141.76 144.56 L 142.63 144.18 C 143.51 143.80 143.92 142.78 143.54 141.90 C 143.15 141.02 142.13 140.62 141.25 141.00 Z M 140.46 141.34 L 139.54 141.68 C 138.64 142.02 138.18 143.02 138.52 143.92 C 138.86 144.83 139.86 145.28 140.77 144.95 L 141.68 144.61 C 142.58 144.27 143.04 143.26 142.70 142.36 C 142.36 141.46 141.36 141.00 140.46 141.34 Z M 139.64 141.64 L 138.66 141.94 C 137.74 142.22 137.21 143.20 137.50 144.13 C 137.78 145.05 138.76 145.57 139.69 145.29 L 140.67 144.99 C 141.59 144.71 142.11 143.73 141.83 142.80 C 141.55 141.88 140.57 141.35 139.64 141.64 Z M 138.77 141.90 L 137.66 142.16 C 136.71 142.39 136.12 143.34 136.35 144.28 C 136.57 145.23 137.52 145.81 138.47 145.59 L 139.58 145.33 C 140.53 145.10 141.11 144.15 140.89 143.21 C 140.66 142.26 139.71 141.68 138.77 141.90 Z M 137.75 142.13 L 136.51 142.35 C 135.54 142.52 134.90 143.44 135.07 144.40 C 135.24 145.37 136.16 146.01 137.12 145.84 L 138.37 145.62 C 139.33 145.45 139.97 144.53 139.81 143.57 C 139.64 142.61 138.72 141.96 137.75 142.13 Z M 136.60 142.33 L 135.47 142.46 C 134.49 142.58 133.79 143.47 133.91 144.44 C 134.03 145.42 134.91 146.12 135.89 146.00 L 137.03 145.87 C 138.00 145.75 138.70 144.86 138.58 143.88 C 138.47 142.91 137.58 142.21 136.60 142.33 Z M 135.62 142.44 L 134.79 142.47 C 133.80 142.50 133.02 143.33 133.06 144.32 C 133.09 145.31 133.92 146.08 134.91 146.05 L 135.74 146.02 C 136.73 145.99 137.50 145.16 137.47 144.17 C 137.44 143.18 136.61 142.41 135.62 142.44 Z M 135.57 142.61 L 135.24 142.47 C 134.33 142.07 133.27 142.49 132.87 143.40 C 132.48 144.31 132.90 145.37 133.81 145.77 L 134.13 145.91 C 135.04 146.31 136.10 145.89 136.50 144.98 C 136.90 144.07 136.48 143.01 135.57 142.61 Z M 135.53 145.61 L 136.13 145.21 C 136.95 144.66 137.17 143.54 136.62 142.71 C 136.06 141.89 134.94 141.67 134.12 142.22 L 133.52 142.62 C 132.70 143.18 132.48 144.30 133.03 145.12 C 133.59 145.95 134.71 146.17 135.53 145.61 Z M 135.82 145.37 L 137.01 144.87 C 137.93 144.48 138.36 143.43 137.97 142.52 C 137.59 141.60 136.53 141.17 135.62 141.56 L 134.43 142.06 C 133.51 142.45 133.08 143.50 133.47 144.41 C 133.85 145.33 134.91 145.76 135.82 145.37 Z M 136.93 144.89 L 137.96 144.51 C 138.88 144.18 139.36 143.15 139.02 142.23 C 138.69 141.30 137.66 140.83 136.74 141.16 L 135.71 141.54 C 134.78 141.88 134.31 142.90 134.64 143.82 C 134.98 144.75 136.00 145.22 136.93 144.89 Z M 137.91 144.50 L 138.84 144.19 C 139.76 143.88 140.26 142.89 139.95 141.97 C 139.65 141.05 138.65 140.55 137.73 140.86 L 136.79 141.17 C 135.87 141.48 135.38 142.47 135.68 143.39 C 135.99 144.31 136.99 144.81 137.91 144.50 Z M 138.81 144.17 L 139.75 143.88 C 140.66 143.59 141.16 142.61 140.88 141.70 C 140.59 140.79 139.61 140.29 138.70 140.58 L 137.76 140.88 C 136.85 141.16 136.35 142.14 136.64 143.05 C 136.93 143.96 137.90 144.46 138.81 144.17 Z M 139.74 143.85 L 140.65 143.57 C 141.55 143.28 142.05 142.33 141.77 141.43 C 141.49 140.53 140.53 140.03 139.63 140.31 L 138.72 140.60 C 137.82 140.88 137.32 141.84 137.60 142.74 C 137.88 143.64 138.84 144.14 139.74 143.85 Z M 140.66 143.55 L 141.51 143.27 C 142.40 142.99 142.89 142.04 142.61 141.15 C 142.32 140.26 141.37 139.77 140.48 140.06 L 139.63 140.33 C 138.74 140.62 138.25 141.57 138.54 142.45 C 138.82 143.34 139.77 143.83 140.66 143.55 Z M 141.53 143.25 L 142.45 142.94 C 143.33 142.65 143.80 141.70 143.50 140.82 C 143.21 139.95 142.26 139.48 141.39 139.77 L 140.47 140.08 C 139.59 140.37 139.12 141.32 139.41 142.20 C 139.71 143.07 140.66 143.54 141.53 143.25 Z M 142.47 142.92 L 143.47 142.56 C 144.33 142.26 144.79 141.31 144.48 140.45 C 144.17 139.58 143.22 139.13 142.36 139.44 L 141.36 139.79 C 140.50 140.10 140.05 141.05 140.36 141.91 C 140.66 142.78 141.61 143.23 142.47 142.92 Z M 143.50 142.54 L 144.52 142.16 C 145.37 141.83 145.80 140.88 145.48 140.03 C 145.15 139.18 144.20 138.75 143.35 139.07 L 142.33 139.46 C 141.48 139.78 141.05 140.73 141.37 141.58 C 141.70 142.44 142.65 142.86 143.50 142.54 Z M 144.55 142.15 L 145.39 141.81 C 146.23 141.48 146.64 140.52 146.31 139.67 C 145.97 138.83 145.01 138.41 144.17 138.75 L 143.33 139.08 C 142.48 139.42 142.07 140.38 142.40 141.23 C 142.74 142.07 143.70 142.48 144.55 142.15 Z M 145.41 141.81 L 146.30 141.45 C 147.14 141.10 147.55 140.13 147.19 139.28 C 146.84 138.43 145.87 138.03 145.03 138.38 L 144.14 138.75 C 143.30 139.10 142.89 140.07 143.24 140.92 C 143.59 141.76 144.56 142.16 145.41 141.81 Z M 146.32 141.45 L 147.24 141.05 C 148.09 140.69 148.48 139.71 148.12 138.86 C 147.75 138.01 146.77 137.62 145.93 137.98 L 145.00 138.38 C 144.16 138.74 143.77 139.73 144.13 140.57 C 144.49 141.42 145.47 141.81 146.32 141.45 Z M 147.27 141.05 L 148.22 140.63 C 149.07 140.25 149.45 139.26 149.07 138.41 C 148.69 137.56 147.70 137.18 146.86 137.56 L 145.90 137.98 C 145.06 138.36 144.67 139.35 145.05 140.20 C 145.43 141.05 146.42 141.43 147.27 141.05 Z M 148.24 140.63 L 149.22 140.18 C 150.06 139.79 150.44 138.79 150.05 137.94 C 149.66 137.09 148.65 136.72 147.80 137.11 L 146.83 137.56 C 145.98 137.95 145.61 138.95 146.00 139.80 C 146.39 140.65 147.40 141.02 148.24 140.63 Z M 149.24 140.18 L 150.20 139.72 C 151.05 139.32 151.41 138.30 151.00 137.46 C 150.60 136.61 149.59 136.25 148.75 136.66 L 147.78 137.12 C 146.94 137.52 146.58 138.53 146.98 139.37 C 147.38 140.22 148.39 140.58 149.24 140.18 Z M 150.22 139.71 L 151.16 139.25 C 152.00 138.83 152.34 137.82 151.93 136.98 C 151.52 136.14 150.51 135.80 149.67 136.21 L 148.73 136.67 C 147.89 137.08 147.54 138.09 147.96 138.93 C 148.37 139.77 149.38 140.12 150.22 139.71 Z M 151.17 139.23 L 152.10 138.76 C 152.93 138.34 153.26 137.33 152.84 136.50 C 152.42 135.67 151.41 135.34 150.58 135.75 L 149.65 136.22 C 148.82 136.64 148.49 137.66 148.91 138.49 C 149.33 139.32 150.34 139.65 151.17 139.23 Z M 152.11 138.74 L 153.02 138.27 C 153.84 137.84 154.16 136.83 153.73 136.01 C 153.31 135.19 152.30 134.87 151.48 135.30 L 150.57 135.77 C 149.75 136.20 149.43 137.21 149.86 138.03 C 150.28 138.85 151.29 139.17 152.11 138.74 Z M 153.03 138.26 L 153.91 137.79 C 154.72 137.35 155.02 136.34 154.59 135.53 C 154.16 134.72 153.15 134.42 152.34 134.85 L 151.46 135.32 C 150.65 135.75 150.34 136.76 150.78 137.57 C 151.21 138.38 152.22 138.69 153.03 138.26 Z M 153.92 137.77 L 154.75 137.32 C 155.55 136.87 155.84 135.86 155.40 135.06 C 154.96 134.26 153.95 133.97 153.15 134.41 L 152.32 134.87 C 151.52 135.31 151.23 136.32 151.67 137.12 C 152.11 137.92 153.12 138.21 153.92 137.77 Z M 154.76 137.29 L 155.63 136.80 C 156.42 136.35 156.69 135.34 156.24 134.55 C 155.79 133.76 154.79 133.49 154.00 133.94 L 153.13 134.43 C 152.34 134.88 152.07 135.89 152.52 136.68 C 152.97 137.47 153.97 137.74 154.76 137.29 Z M 155.64 136.76 L 156.58 136.20 C 157.34 135.75 157.60 134.75 157.14 133.99 C 156.68 133.22 155.69 132.97 154.92 133.42 L 153.99 133.98 C 153.22 134.43 152.97 135.43 153.43 136.19 C 153.88 136.96 154.88 137.21 155.64 136.76 Z M 156.58 136.16 L 157.44 135.63 C 158.18 135.17 158.41 134.19 157.95 133.45 C 157.49 132.71 156.51 132.48 155.77 132.94 L 154.91 133.47 C 154.17 133.93 153.94 134.90 154.40 135.65 C 154.86 136.39 155.84 136.62 156.58 136.16 Z M 157.44 135.59 L 158.23 135.08 C 158.95 134.62 159.16 133.66 158.70 132.94 C 158.24 132.22 157.28 132.01 156.56 132.47 L 155.77 132.98 C 155.05 133.44 154.84 134.40 155.30 135.12 C 155.76 135.84 156.72 136.05 157.44 135.59 Z M 158.22 135.04 L 158.99 134.54 C 159.69 134.09 159.89 133.15 159.43 132.45 C 158.98 131.75 158.04 131.55 157.34 132.01 L 156.57 132.51 C 155.87 132.96 155.67 133.90 156.13 134.60 C 156.59 135.30 157.52 135.50 158.22 135.04 Z M 158.98 134.53 L 159.08 134.46 C 159.77 134.01 159.97 133.08 159.51 132.39 C 159.06 131.70 158.14 131.51 157.44 131.96 L 157.35 132.02 C 156.66 132.48 156.46 133.40 156.91 134.09 C 157.37 134.78 158.29 134.98 158.98 134.53 Z"
      fill="black"
      fill-rule="nonzero" /><path d="M 142.55 99.46 L 141.91 100.14 C 141.32 100.78 141.35 101.78 141.99 102.38 C 142.63 102.97 143.63 102.94 144.23 102.30 L 144.87 101.62 C 145.47 100.98 145.43 99.97 144.79 99.38 C 144.15 98.78 143.15 98.82 142.55 99.46 Z M 141.84 100.19 L 141.22 100.92 C 140.66 101.61 140.75 102.62 141.43 103.19 C 142.11 103.76 143.12 103.67 143.69 102.99 L 144.31 102.25 C 144.88 101.57 144.78 100.55 144.10 99.99 C 143.42 99.42 142.41 99.51 141.84 100.19 Z M 141.11 101.04 L 140.54 101.88 C 140.04 102.62 140.23 103.64 140.98 104.14 C 141.73 104.65 142.74 104.45 143.25 103.70 L 143.81 102.87 C 144.32 102.12 144.12 101.11 143.37 100.60 C 142.63 100.10 141.61 100.29 141.11 101.04 Z M 140.41 102.05 L 139.93 103.01 C 139.52 103.83 139.85 104.83 140.67 105.23 C 141.49 105.64 142.48 105.31 142.89 104.49 L 143.37 103.53 C 143.78 102.71 143.45 101.72 142.63 101.31 C 141.82 100.90 140.82 101.23 140.41 102.05 Z M 139.84 103.18 L 139.54 104.00 C 139.22 104.87 139.67 105.83 140.54 106.15 C 141.41 106.47 142.37 106.02 142.68 105.15 L 142.99 104.33 C 143.30 103.46 142.86 102.50 141.99 102.18 C 141.12 101.86 140.16 102.31 139.84 103.18 Z M 139.48 104.12 L 139.23 105.03 C 138.97 105.93 139.50 106.86 140.40 107.11 C 141.29 107.37 142.23 106.84 142.48 105.94 L 142.74 105.04 C 142.99 104.14 142.47 103.20 141.57 102.95 C 140.67 102.70 139.74 103.22 139.48 104.12 Z M 139.19 105.12 L 138.97 106.10 C 138.77 107.02 139.35 107.93 140.27 108.13 C 141.19 108.34 142.10 107.76 142.30 106.84 L 142.52 105.86 C 142.72 104.94 142.14 104.03 141.22 103.82 C 140.30 103.62 139.39 104.20 139.19 105.12 Z M 138.94 106.17 L 138.76 107.21 C 138.59 108.14 139.22 109.03 140.15 109.20 C 141.09 109.37 141.98 108.74 142.15 107.81 L 142.33 106.77 C 142.50 105.83 141.87 104.94 140.94 104.77 C 140.00 104.61 139.11 105.23 138.94 106.17 Z M 138.73 107.26 L 138.58 108.34 C 138.44 109.29 139.10 110.17 140.05 110.30 C 141.00 110.44 141.88 109.78 142.02 108.83 L 142.17 107.75 C 142.31 106.80 141.65 105.92 140.70 105.79 C 139.75 105.65 138.87 106.31 138.73 107.26 Z M 138.56 108.38 L 138.44 109.43 C 138.32 110.39 139.01 111.26 139.97 111.37 C 140.93 111.49 141.80 110.80 141.91 109.84 L 142.03 108.79 C 142.15 107.83 141.46 106.96 140.50 106.85 C 139.55 106.74 138.68 107.42 138.56 108.38 Z M 138.43 109.46 L 138.32 110.49 C 138.23 111.46 138.93 112.32 139.90 112.41 C 140.86 112.51 141.72 111.81 141.82 110.84 L 141.92 109.81 C 142.02 108.85 141.31 107.99 140.35 107.89 C 139.38 107.80 138.52 108.50 138.43 109.46 Z M 138.32 110.52 L 138.23 111.55 C 138.15 112.51 138.86 113.37 139.83 113.45 C 140.80 113.53 141.65 112.82 141.73 111.85 L 141.82 110.82 C 141.91 109.85 141.19 109.00 140.22 108.92 C 139.25 108.83 138.40 109.55 138.32 110.52 Z M 138.22 111.56 L 138.15 112.58 C 138.07 113.55 138.80 114.39 139.77 114.47 C 140.74 114.54 141.59 113.81 141.66 112.84 L 141.74 111.83 C 141.81 110.86 141.09 110.01 140.11 109.94 C 139.14 109.86 138.30 110.59 138.22 111.56 Z M 138.14 112.59 L 138.07 113.57 C 138.01 114.54 138.74 115.39 139.72 115.45 C 140.69 115.52 141.54 114.78 141.60 113.81 L 141.67 112.83 C 141.74 111.85 141.00 111.01 140.03 110.94 C 139.05 110.88 138.21 111.61 138.14 112.59 Z M 138.07 113.58 L 138.01 114.51 C 137.95 115.49 138.69 116.34 139.67 116.40 C 140.64 116.46 141.49 115.72 141.55 114.74 L 141.61 113.80 C 141.67 112.82 140.93 111.98 139.95 111.92 C 138.97 111.86 138.13 112.60 138.07 113.58 Z M 138.00 114.52 L 137.94 115.58 C 137.88 116.56 138.62 117.40 139.60 117.46 C 140.58 117.52 141.43 116.78 141.49 115.80 L 141.55 114.74 C 141.61 113.76 140.87 112.91 139.89 112.85 C 138.91 112.79 138.07 113.54 138.00 114.52 Z M 137.93 115.58 L 137.87 116.62 C 137.81 117.60 138.55 118.45 139.54 118.51 C 140.52 118.57 141.36 117.83 141.42 116.84 L 141.49 115.80 C 141.55 114.82 140.81 113.97 139.82 113.91 C 138.84 113.85 138.00 114.59 137.93 115.58 Z M 137.87 116.62 L 137.81 117.60 C 137.74 118.59 138.49 119.43 139.47 119.50 C 140.46 119.56 141.30 118.81 141.37 117.83 L 141.43 116.84 C 141.49 115.86 140.74 115.01 139.76 114.95 C 138.78 114.89 137.93 115.64 137.87 116.62 Z M 137.80 117.60 L 137.74 118.55 C 137.68 119.53 138.43 120.38 139.42 120.44 C 140.40 120.50 141.25 119.75 141.31 118.77 L 141.37 117.83 C 141.43 116.84 140.68 115.99 139.70 115.93 C 138.71 115.87 137.86 116.62 137.80 117.60 Z M 137.74 118.55 L 137.68 119.48 C 137.62 120.47 138.37 121.31 139.36 121.38 C 140.34 121.44 141.19 120.69 141.25 119.70 L 141.31 118.77 C 141.37 117.78 140.62 116.93 139.64 116.87 C 138.65 116.81 137.80 117.56 137.74 118.55 Z M 137.68 119.48 L 137.62 120.47 C 137.56 121.45 138.31 122.30 139.29 122.37 C 140.28 122.43 141.13 121.68 141.19 120.69 L 141.26 119.70 C 141.32 118.72 140.57 117.87 139.58 117.80 C 138.59 117.74 137.74 118.49 137.68 119.48 Z M 137.62 120.46 L 137.55 121.46 C 137.49 122.44 138.24 123.30 139.23 123.36 C 140.21 123.42 141.07 122.67 141.13 121.69 L 141.19 120.69 C 141.26 119.71 140.51 118.85 139.52 118.79 C 138.53 118.73 137.68 119.48 137.62 120.46 Z M 137.55 121.45 L 137.49 122.45 C 137.42 123.44 138.17 124.29 139.15 124.36 C 140.14 124.43 141.00 123.68 141.06 122.69 L 141.13 121.69 C 141.20 120.70 140.45 119.85 139.46 119.78 C 138.48 119.72 137.62 120.46 137.55 121.45 Z M 137.48 122.44 L 137.41 123.45 C 137.34 124.44 138.08 125.30 139.07 125.37 C 140.06 125.44 140.92 124.70 140.99 123.71 L 141.06 122.70 C 141.14 121.71 140.39 120.85 139.40 120.78 C 138.42 120.71 137.56 121.45 137.48 122.44 Z M 137.41 123.44 L 137.34 124.41 C 137.26 125.40 138.00 126.27 138.99 126.34 C 139.98 126.42 140.84 125.68 140.92 124.69 L 140.99 123.72 C 141.07 122.73 140.33 121.87 139.34 121.79 C 138.35 121.71 137.49 122.45 137.41 123.44 Z M 137.34 124.40 L 137.26 125.38 C 137.17 126.37 137.91 127.24 138.90 127.32 C 139.89 127.40 140.75 126.67 140.84 125.68 L 140.92 124.70 C 141.00 123.71 140.26 122.84 139.27 122.76 C 138.29 122.68 137.42 123.41 137.34 124.40 Z M 137.26 125.37 L 137.17 126.37 C 137.08 127.36 137.81 128.23 138.80 128.31 C 139.79 128.40 140.66 127.67 140.75 126.68 L 140.83 125.69 C 140.92 124.70 140.19 123.83 139.20 123.74 C 138.21 123.65 137.34 124.38 137.26 125.37 Z M 137.17 126.36 L 137.07 127.37 C 136.98 128.36 137.71 129.24 138.70 129.33 C 139.69 129.42 140.56 128.69 140.65 127.71 L 140.75 126.69 C 140.84 125.70 140.11 124.83 139.12 124.73 C 138.13 124.64 137.26 125.37 137.17 126.36 Z M 137.07 127.37 L 136.98 128.38 C 136.88 129.37 137.61 130.25 138.59 130.34 C 139.58 130.44 140.46 129.71 140.56 128.72 L 140.65 127.71 C 140.75 126.72 140.02 125.85 139.04 125.75 C 138.05 125.66 137.17 126.38 137.07 127.37 Z M 136.98 128.37 L 136.88 129.34 C 136.78 130.33 137.50 131.21 138.49 131.31 C 139.48 131.41 140.36 130.69 140.46 129.70 L 140.56 128.73 C 140.65 127.74 139.93 126.86 138.95 126.76 C 137.96 126.66 137.08 127.38 136.98 128.37 Z M 136.88 129.33 L 136.78 130.31 C 136.67 131.30 137.39 132.19 138.38 132.29 C 139.37 132.40 140.25 131.68 140.36 130.69 L 140.46 129.71 C 140.56 128.72 139.85 127.83 138.86 127.73 C 137.87 127.62 136.98 128.34 136.88 129.33 Z M 136.78 130.30 L 136.67 131.30 C 136.56 132.29 137.27 133.18 138.26 133.29 C 139.24 133.40 140.13 132.69 140.24 131.70 L 140.36 130.70 C 140.47 129.71 139.75 128.82 138.76 128.71 C 137.78 128.60 136.89 129.31 136.78 130.30 Z M 136.67 131.29 L 136.55 132.31 C 136.43 133.29 137.14 134.19 138.12 134.31 C 139.11 134.42 140.01 133.72 140.12 132.73 L 140.24 131.71 C 140.36 130.73 139.65 129.83 138.67 129.71 C 137.68 129.60 136.78 130.30 136.67 131.29 Z M 136.55 132.29 L 136.42 133.30 C 136.29 134.29 136.99 135.19 137.98 135.31 C 138.97 135.44 139.87 134.74 140.00 133.75 L 140.12 132.74 C 140.25 131.76 139.55 130.85 138.56 130.73 C 137.57 130.60 136.67 131.30 136.55 132.29 Z M 136.42 133.28 L 136.29 134.26 C 136.16 135.24 136.85 136.15 137.84 136.28 C 138.82 136.42 139.73 135.72 139.86 134.74 L 139.99 133.77 C 140.13 132.78 139.44 131.87 138.45 131.74 C 137.46 131.61 136.55 132.30 136.42 133.28 Z M 136.29 134.24 L 136.15 135.22 C 136.01 136.21 136.70 137.12 137.68 137.26 C 138.67 137.40 139.58 136.72 139.72 135.73 L 139.86 134.75 C 140.00 133.77 139.32 132.85 138.33 132.71 C 137.35 132.57 136.43 133.26 136.29 134.24 Z M 136.15 135.21 L 136.00 136.20 C 135.85 137.18 136.53 138.10 137.52 138.25 C 138.50 138.40 139.42 137.72 139.57 136.74 L 139.72 135.75 C 139.87 134.76 139.19 133.84 138.21 133.69 C 137.22 133.54 136.30 134.22 136.15 135.21 Z M 136.00 136.18 L 135.84 137.18 C 135.69 138.17 136.36 139.09 137.35 139.25 C 138.33 139.41 139.26 138.73 139.41 137.75 L 139.57 136.75 C 139.73 135.76 139.06 134.84 138.07 134.68 C 137.09 134.53 136.16 135.20 136.00 136.18 Z M 135.85 137.17 L 135.68 138.18 C 135.51 139.16 136.18 140.09 137.16 140.26 C 138.15 140.42 139.08 139.76 139.24 138.77 L 139.41 137.76 C 139.58 136.78 138.91 135.85 137.93 135.68 C 136.94 135.52 136.01 136.18 135.85 137.17 Z M 135.68 138.16 L 135.51 139.12 C 135.34 140.10 136.00 141.04 136.99 141.21 C 137.97 141.38 138.91 140.72 139.08 139.74 L 139.24 138.78 C 139.41 137.80 138.75 136.86 137.77 136.69 C 136.79 136.52 135.85 137.18 135.68 138.16 Z M 135.52 139.10 L 135.34 140.06 C 135.16 141.04 135.82 141.98 136.80 142.16 C 137.78 142.34 138.72 141.69 138.90 140.71 L 139.07 139.75 C 139.25 138.77 138.60 137.83 137.62 137.65 C 136.64 137.47 135.70 138.12 135.52 139.10 Z M 135.35 140.05 L 135.16 141.02 C 134.97 142.00 135.62 142.94 136.60 143.13 C 137.58 143.32 138.53 142.67 138.71 141.69 L 138.90 140.72 C 139.08 139.74 138.44 138.79 137.46 138.61 C 136.48 138.42 135.53 139.06 135.35 140.05 Z M 135.16 141.00 L 134.97 141.99 C 134.77 142.97 135.41 143.92 136.39 144.11 C 137.37 144.31 138.32 143.67 138.51 142.69 L 138.71 141.71 C 138.91 140.73 138.27 139.78 137.29 139.58 C 136.31 139.39 135.36 140.02 135.16 141.00 Z M 134.97 141.97 L 134.76 142.98 C 134.56 143.95 135.18 144.91 136.16 145.12 C 137.14 145.32 138.10 144.69 138.30 143.72 L 138.51 142.71 C 138.71 141.73 138.09 140.78 137.11 140.57 C 136.13 140.37 135.17 140.99 134.97 141.97 Z M 134.76 142.96 L 134.54 143.97 C 134.33 144.95 134.95 145.91 135.92 146.13 C 136.90 146.34 137.86 145.72 138.08 144.75 L 138.30 143.73 C 138.51 142.76 137.89 141.79 136.92 141.58 C 135.94 141.37 134.98 141.98 134.76 142.96 Z M 134.55 143.96 L 134.33 144.91 C 134.10 145.89 134.71 146.86 135.69 147.08 C 136.66 147.30 137.63 146.69 137.85 145.72 L 138.07 144.76 C 138.29 143.79 137.69 142.82 136.71 142.60 C 135.74 142.37 134.77 142.98 134.55 143.96 Z M 134.33 144.90 L 134.10 145.87 C 133.87 146.84 134.47 147.82 135.44 148.05 C 136.41 148.28 137.39 147.68 137.62 146.70 L 137.85 145.73 C 138.08 144.76 137.48 143.79 136.51 143.56 C 135.54 143.33 134.56 143.93 134.33 144.90 Z M 134.10 145.86 L 133.86 146.83 C 133.63 147.80 134.22 148.78 135.19 149.02 C 136.16 149.26 137.14 148.67 137.38 147.70 L 137.62 146.72 C 137.85 145.75 137.26 144.77 136.29 144.53 C 135.32 144.29 134.34 144.89 134.10 145.86 Z M 133.87 146.82 L 133.62 147.80 C 133.37 148.77 133.96 149.75 134.93 150.00 C 135.89 150.24 136.88 149.66 137.12 148.69 L 137.37 147.71 C 137.62 146.74 137.03 145.76 136.06 145.51 C 135.10 145.27 134.11 145.85 133.87 146.82 Z M 133.62 147.79 L 133.37 148.76 C 133.12 149.73 133.69 150.72 134.66 150.97 C 135.62 151.22 136.61 150.64 136.86 149.68 L 137.12 148.70 C 137.37 147.74 136.79 146.75 135.83 146.50 C 134.86 146.24 133.88 146.82 133.62 147.79 Z M 133.37 148.75 L 133.11 149.72 C 132.85 150.68 133.42 151.67 134.39 151.93 C 135.35 152.19 136.34 151.62 136.60 150.66 L 136.86 149.69 C 137.12 148.73 136.55 147.74 135.59 147.48 C 134.62 147.22 133.63 147.79 133.37 148.75 Z M 133.12 149.70 L 132.84 150.68 C 132.57 151.65 133.14 152.64 134.10 152.91 C 135.06 153.18 136.06 152.61 136.32 151.65 L 136.60 150.67 C 136.86 149.71 136.30 148.71 135.34 148.45 C 134.38 148.18 133.38 148.74 133.12 149.70 Z M 132.85 150.67 L 132.57 151.64 C 132.29 152.60 132.85 153.60 133.81 153.88 C 134.76 154.15 135.76 153.60 136.04 152.64 L 136.32 151.67 C 136.59 150.71 136.04 149.71 135.08 149.43 C 134.12 149.16 133.12 149.71 132.85 150.67 Z M 132.57 151.62 L 132.29 152.58 C 132.00 153.54 132.55 154.54 133.50 154.83 C 134.46 155.11 135.47 154.57 135.75 153.61 L 136.04 152.65 C 136.32 151.70 135.77 150.69 134.82 150.41 C 133.86 150.12 132.86 150.67 132.57 151.62 Z M 132.29 152.57 L 132.00 153.52 C 131.71 154.47 132.24 155.48 133.20 155.77 C 134.15 156.07 135.16 155.53 135.45 154.58 L 135.75 153.63 C 136.04 152.68 135.50 151.66 134.55 151.37 C 133.60 151.08 132.59 151.61 132.29 152.57 Z M 132.01 153.50 L 131.71 154.44 C 131.40 155.39 131.93 156.41 132.88 156.71 C 133.83 157.01 134.85 156.49 135.15 155.54 L 135.45 154.59 C 135.75 153.64 135.22 152.63 134.27 152.33 C 133.32 152.02 132.31 152.55 132.01 153.50 Z M 131.71 154.42 L 131.40 155.36 C 131.09 156.31 131.61 157.33 132.55 157.64 C 133.50 157.95 134.52 157.44 134.83 156.49 L 135.14 155.55 C 135.45 154.61 134.94 153.59 133.99 153.28 C 133.05 152.96 132.02 153.48 131.71 154.42 Z M 131.41 155.35 L 131.09 156.28 C 130.77 157.22 131.28 158.25 132.22 158.57 C 133.16 158.89 134.19 158.38 134.51 157.44 L 134.83 156.51 C 135.15 155.57 134.64 154.54 133.70 154.22 C 132.76 153.90 131.73 154.40 131.41 155.35 Z M 131.10 156.26 L 130.77 157.19 C 130.44 158.13 130.94 159.16 131.88 159.49 C 132.82 159.82 133.85 159.33 134.18 158.39 L 134.50 157.46 C 134.83 156.52 134.34 155.49 133.40 155.16 C 132.46 154.83 131.43 155.32 131.10 156.26 Z M 130.78 157.18 L 130.44 158.11 C 130.10 159.05 130.59 160.08 131.53 160.42 C 132.46 160.76 133.50 160.27 133.83 159.33 L 134.17 158.40 C 134.51 157.46 134.02 156.43 133.09 156.09 C 132.15 155.76 131.11 156.24 130.78 157.18 Z M 130.45 158.10 L 130.10 159.04 C 129.76 159.97 130.24 161.01 131.17 161.35 C 132.10 161.70 133.14 161.22 133.48 160.28 L 133.83 159.35 C 134.17 158.41 133.69 157.37 132.76 157.03 C 131.83 156.69 130.79 157.17 130.45 158.10 Z M 130.10 159.03 L 129.75 159.98 C 129.40 160.91 129.88 161.95 130.81 162.30 C 131.74 162.64 132.78 162.17 133.13 161.24 L 133.48 160.29 C 133.83 159.36 133.36 158.32 132.42 157.97 C 131.49 157.62 130.45 158.10 130.10 159.03 Z M 129.75 159.97 L 129.39 160.92 C 129.04 161.85 129.51 162.89 130.44 163.25 C 131.37 163.60 132.41 163.13 132.76 162.20 L 133.12 161.25 C 133.48 160.31 133.01 159.27 132.08 158.92 C 131.15 158.57 130.11 159.04 129.75 159.97 Z M 129.40 160.92 L 129.04 161.85 C 128.68 162.78 129.15 163.82 130.08 164.17 C 131.01 164.53 132.05 164.06 132.40 163.13 L 132.76 162.20 C 133.12 161.27 132.65 160.23 131.72 159.88 C 130.79 159.52 129.75 159.99 129.40 160.92 Z M 129.04 161.84 L 128.68 162.77 C 128.33 163.69 128.79 164.74 129.72 165.10 C 130.64 165.45 131.69 164.99 132.04 164.06 L 132.40 163.14 C 132.76 162.21 132.30 161.17 131.37 160.81 C 130.44 160.45 129.40 160.91 129.04 161.84 Z M 128.69 162.76 L 128.32 163.69 C 127.96 164.62 128.42 165.66 129.35 166.02 C 130.27 166.38 131.31 165.93 131.68 165.00 L 132.04 164.07 C 132.40 163.15 131.95 162.10 131.02 161.74 C 130.09 161.38 129.05 161.84 128.69 162.76 Z M 128.33 163.68 L 127.96 164.62 C 127.59 165.54 128.04 166.58 128.97 166.95 C 129.89 167.32 130.94 166.87 131.30 165.94 L 131.67 165.01 C 132.04 164.09 131.59 163.04 130.66 162.67 C 129.74 162.31 128.70 162.76 128.33 163.68 Z M 127.96 164.61 L 127.59 165.54 C 127.22 166.46 127.66 167.51 128.58 167.88 C 129.50 168.25 130.55 167.81 130.92 166.88 L 131.30 165.95 C 131.67 165.03 131.22 163.98 130.30 163.61 C 129.38 163.24 128.34 163.69 127.96 164.61 Z M 127.59 165.53 L 127.21 166.46 C 126.83 167.38 127.27 168.43 128.19 168.81 C 129.11 169.18 130.16 168.74 130.53 167.83 L 130.92 166.90 C 131.29 165.98 130.85 164.93 129.94 164.55 C 129.02 164.17 127.97 164.61 127.59 165.53 Z M 127.22 166.45 L 126.83 167.38 C 126.44 168.29 126.87 169.34 127.79 169.73 C 128.70 170.11 129.75 169.68 130.14 168.77 L 130.53 167.84 C 130.91 166.92 130.48 165.87 129.57 165.49 C 128.65 165.10 127.60 165.53 127.22 166.45 Z M 126.83 167.36 L 126.43 168.29 C 126.04 169.20 126.47 170.26 127.38 170.65 C 128.29 171.04 129.34 170.62 129.73 169.71 L 130.13 168.78 C 130.52 167.87 130.10 166.81 129.19 166.42 C 128.28 166.03 127.22 166.45 126.83 167.36 Z M 126.44 168.28 L 126.04 169.20 C 125.64 170.11 126.06 171.17 126.96 171.56 C 127.87 171.96 128.93 171.55 129.32 170.64 L 129.73 169.72 C 130.12 168.81 129.71 167.75 128.80 167.36 C 127.89 166.96 126.84 167.37 126.44 168.28 Z M 126.04 169.20 L 125.64 170.11 C 125.24 171.02 125.65 172.07 126.55 172.48 C 127.45 172.88 128.51 172.47 128.91 171.56 L 129.32 170.65 C 129.72 169.74 129.31 168.68 128.41 168.28 C 127.50 167.88 126.44 168.29 126.04 169.20 Z M 125.64 170.11 L 125.23 171.02 C 124.83 171.92 125.24 172.98 126.14 173.38 C 127.04 173.79 128.10 173.38 128.50 172.48 L 128.91 171.57 C 129.31 170.66 128.91 169.61 128.01 169.20 C 127.10 168.80 126.04 169.20 125.64 170.11 Z M 125.24 171.02 L 124.83 171.92 C 124.42 172.82 124.83 173.88 125.73 174.29 C 126.63 174.69 127.69 174.29 128.09 173.39 L 128.50 172.48 C 128.90 171.58 128.50 170.52 127.60 170.12 C 126.70 169.71 125.64 170.11 125.24 171.02 Z M 124.83 171.92 L 124.43 172.83 C 124.02 173.73 124.42 174.78 125.32 175.19 C 126.22 175.59 127.28 175.19 127.69 174.29 L 128.09 173.39 C 128.50 172.49 128.09 171.43 127.19 171.02 C 126.29 170.62 125.24 171.02 124.83 171.92 Z M 124.43 172.83 L 124.02 173.74 C 123.62 174.64 124.02 175.70 124.92 176.10 C 125.82 176.50 126.87 176.10 127.28 175.20 L 127.69 174.29 C 128.09 173.39 127.69 172.33 126.79 171.93 C 125.89 171.53 124.83 171.93 124.43 172.83 Z M 124.02 173.74 L 123.61 174.65 C 123.21 175.55 123.61 176.61 124.51 177.01 C 125.41 177.41 126.47 177.01 126.87 176.11 L 127.28 175.20 C 127.68 174.30 127.27 173.24 126.38 172.84 C 125.48 172.44 124.42 172.84 124.02 173.74 Z M 123.62 174.65 L 123.21 175.56 C 122.81 176.46 123.21 177.51 124.10 177.91 C 125.00 178.32 126.05 177.92 126.46 177.02 L 126.86 176.11 C 127.27 175.21 126.87 174.16 125.97 173.76 C 125.07 173.35 124.02 173.75 123.62 174.65 Z M 123.21 175.56 L 122.80 176.47 C 122.40 177.36 122.80 178.41 123.69 178.82 C 124.58 179.22 125.64 178.83 126.04 177.93 L 126.45 177.02 C 126.86 176.13 126.46 175.07 125.56 174.67 C 124.67 174.27 123.62 174.66 123.21 175.56 Z M 122.81 176.46 L 122.39 177.37 C 121.98 178.26 122.38 179.32 123.27 179.72 C 124.16 180.13 125.21 179.74 125.62 178.85 L 126.04 177.94 C 126.44 177.04 126.05 175.99 125.16 175.58 C 124.27 175.18 123.21 175.57 122.81 176.46 Z M 122.40 177.36 L 121.98 178.27 C 121.56 179.16 121.95 180.22 122.84 180.63 C 123.73 181.04 124.78 180.65 125.19 179.77 L 125.61 178.85 C 126.03 177.97 125.64 176.91 124.75 176.50 C 123.86 176.09 122.81 176.47 122.40 177.36 Z M 121.98 178.26 L 121.55 179.19 C 121.13 180.07 121.51 181.13 122.39 181.54 C 123.28 181.96 124.33 181.58 124.75 180.70 L 125.18 179.78 C 125.60 178.89 125.22 177.84 124.34 177.42 C 123.46 177.00 122.40 177.38 121.98 178.26 Z M 121.56 179.18 L 121.11 180.11 C 120.69 180.99 121.06 182.04 121.93 182.47 C 122.81 182.89 123.87 182.52 124.29 181.64 L 124.74 180.71 C 125.16 179.83 124.79 178.77 123.91 178.35 C 123.03 177.93 121.98 178.30 121.56 179.18 Z M 121.12 180.10 L 120.67 181.02 C 120.24 181.89 120.60 182.95 121.47 183.38 C 122.35 183.81 123.40 183.45 123.83 182.57 L 124.28 181.65 C 124.71 180.77 124.35 179.72 123.48 179.29 C 122.60 178.86 121.55 179.22 121.12 180.10 Z M 120.67 181.01 L 120.22 181.92 C 119.79 182.79 120.14 183.84 121.01 184.28 C 121.88 184.71 122.94 184.36 123.37 183.49 L 123.82 182.58 C 124.26 181.71 123.90 180.65 123.03 180.22 C 122.16 179.79 121.11 180.14 120.67 181.01 Z M 120.23 181.91 L 119.78 182.79 C 119.34 183.66 119.69 184.71 120.55 185.15 C 121.42 185.59 122.48 185.24 122.91 184.38 L 123.36 183.50 C 123.80 182.63 123.46 181.57 122.59 181.14 C 121.73 180.70 120.67 181.04 120.23 181.91 Z M 119.79 182.78 L 119.35 183.64 C 118.91 184.50 119.24 185.55 120.10 186.00 C 120.96 186.44 122.02 186.10 122.47 185.24 L 122.91 184.39 C 123.35 183.53 123.01 182.47 122.15 182.03 C 121.29 181.58 120.23 181.92 119.79 182.78 Z M 119.36 183.63 L 118.89 184.52 C 118.44 185.37 118.77 186.43 119.63 186.88 C 120.48 187.33 121.54 187.00 121.99 186.14 L 122.46 185.25 C 122.91 184.40 122.58 183.34 121.72 182.89 C 120.87 182.44 119.81 182.77 119.36 183.63 Z M 118.90 184.50 L 118.40 185.45 C 117.94 186.30 118.26 187.36 119.11 187.81 C 119.96 188.27 121.01 187.95 121.47 187.10 L 121.98 186.15 C 122.43 185.31 122.11 184.25 121.26 183.79 C 120.42 183.34 119.36 183.66 118.90 184.50 Z M 118.41 185.44 L 117.92 186.34 C 117.46 187.18 117.77 188.23 118.61 188.69 C 119.45 189.16 120.51 188.85 120.97 188.00 L 121.46 187.11 C 121.92 186.27 121.61 185.21 120.77 184.75 C 119.92 184.29 118.87 184.60 118.41 185.44 Z M 117.93 186.33 L 117.46 187.18 C 116.99 188.02 117.29 189.07 118.13 189.54 C 118.96 190.00 120.02 189.70 120.48 188.86 L 120.96 188.01 C 121.42 187.18 121.12 186.12 120.28 185.66 C 119.45 185.19 118.39 185.49 117.93 186.33 Z M 117.47 187.18 L 117.01 188.00 C 116.54 188.83 116.83 189.88 117.66 190.34 C 118.49 190.81 119.55 190.52 120.01 189.69 L 120.47 188.87 C 120.94 188.04 120.64 186.99 119.81 186.52 C 118.98 186.05 117.93 186.35 117.47 187.18 Z M 117.01 187.99 L 116.54 188.83 C 116.07 189.66 116.36 190.71 117.19 191.18 C 118.01 191.64 119.06 191.35 119.53 190.53 L 120.00 189.69 C 120.47 188.86 120.18 187.81 119.36 187.35 C 118.53 186.88 117.48 187.17 117.01 187.99 Z M 116.55 188.84 L 116.03 189.74 C 115.57 190.56 115.85 191.60 116.67 192.07 C 117.50 192.54 118.54 192.25 119.01 191.43 L 119.52 190.53 C 119.99 189.71 119.70 188.66 118.88 188.19 C 118.06 187.73 117.01 188.01 116.55 188.84 Z M 116.04 189.74 L 115.54 190.61 C 115.08 191.42 115.36 192.47 116.18 192.93 C 116.99 193.40 118.03 193.12 118.50 192.30 L 119.00 191.43 C 119.47 190.61 119.18 189.57 118.37 189.10 C 117.55 188.64 116.51 188.92 116.04 189.74 Z M 115.55 190.61 L 115.06 191.46 C 114.60 192.27 114.87 193.30 115.69 193.77 C 116.50 194.24 117.53 193.96 118.00 193.15 L 118.49 192.30 C 118.96 191.49 118.68 190.45 117.87 189.99 C 117.06 189.52 116.02 189.80 115.55 190.61 Z M 115.07 191.45 L 114.59 192.29 C 114.12 193.09 114.39 194.12 115.20 194.59 C 116.00 195.06 117.04 194.79 117.50 193.98 L 117.99 193.15 C 118.46 192.35 118.19 191.31 117.38 190.85 C 116.58 190.38 115.54 190.65 115.07 191.45 Z M 114.60 192.28 L 114.07 193.18 C 113.60 193.98 113.87 195.01 114.67 195.48 C 115.46 195.95 116.49 195.68 116.96 194.88 L 117.49 193.99 C 117.96 193.19 117.70 192.16 116.90 191.69 C 116.10 191.22 115.07 191.49 114.60 192.28 Z M 114.09 193.18 L 113.57 194.05 C 113.10 194.83 113.35 195.86 114.14 196.33 C 114.93 196.80 115.95 196.54 116.43 195.76 L 116.95 194.89 C 117.42 194.10 117.16 193.08 116.37 192.61 C 115.59 192.13 114.56 192.39 114.09 193.18 Z M 113.59 194.04 L 113.08 194.88 C 112.60 195.65 112.85 196.67 113.63 197.15 C 114.40 197.62 115.42 197.38 115.90 196.60 L 116.41 195.76 C 116.88 194.98 116.64 193.97 115.86 193.49 C 115.08 193.02 114.06 193.26 113.59 194.04 Z M 113.10 194.87 L 112.59 195.67 C 112.11 196.44 112.34 197.45 113.11 197.93 C 113.88 198.41 114.89 198.18 115.37 197.41 L 115.88 196.61 C 116.36 195.84 116.12 194.83 115.36 194.35 C 114.59 193.87 113.58 194.10 113.10 194.87 Z M 112.62 195.66 L 112.10 196.45 C 111.62 197.21 111.84 198.22 112.59 198.70 C 113.35 199.19 114.35 198.97 114.84 198.22 L 115.35 197.42 C 115.84 196.67 115.62 195.66 114.86 195.18 C 114.11 194.69 113.10 194.91 112.62 195.66 Z M 112.13 196.44 L 111.59 197.25 C 111.10 197.99 111.30 198.99 112.04 199.48 C 112.79 199.98 113.79 199.77 114.28 199.03 L 114.81 198.23 C 115.31 197.49 115.11 196.49 114.37 195.99 C 113.62 195.50 112.62 195.70 112.13 196.44 Z M 111.62 197.24 L 111.03 198.09 C 110.53 198.82 110.72 199.81 111.45 200.31 C 112.17 200.81 113.17 200.63 113.67 199.90 L 114.26 199.04 C 114.76 198.32 114.57 197.32 113.84 196.82 C 113.11 196.32 112.12 196.51 111.62 197.24 Z M 111.05 198.08 L 110.45 198.94 C 109.95 199.65 110.12 200.64 110.84 201.15 C 111.56 201.65 112.54 201.48 113.05 200.76 L 113.65 199.91 C 114.15 199.19 113.98 198.20 113.26 197.70 C 112.55 197.19 111.56 197.37 111.05 198.08 Z M 110.48 198.92 L 109.89 199.73 C 109.38 200.43 109.53 201.42 110.24 201.93 C 110.94 202.44 111.92 202.28 112.44 201.58 L 113.02 200.77 C 113.53 200.07 113.38 199.09 112.68 198.58 C 111.97 198.06 110.99 198.22 110.48 198.92 Z M 109.93 199.70 L 109.30 200.51 C 108.77 201.19 108.89 202.17 109.57 202.70 C 110.25 203.23 111.23 203.11 111.76 202.43 L 112.40 201.61 C 112.93 200.93 112.80 199.95 112.12 199.42 C 111.44 198.89 110.46 199.02 109.93 199.70 Z M 109.35 200.46 L 108.69 201.23 C 108.13 201.88 108.20 202.86 108.85 203.42 C 109.50 203.98 110.48 203.91 111.04 203.26 L 111.71 202.48 C 112.26 201.83 112.19 200.85 111.54 200.29 C 110.89 199.74 109.91 199.81 109.35 200.46 Z M 108.77 201.16 L 108.08 201.85 C 107.48 202.45 107.48 203.43 108.08 204.03 C 108.68 204.63 109.66 204.63 110.26 204.03 L 110.95 203.33 C 111.55 202.73 111.55 201.76 110.95 201.16 C 110.35 200.56 109.37 200.56 108.77 201.16 Z M 108.22 201.74 L 107.40 202.40 C 106.74 202.92 106.63 203.88 107.15 204.54 C 107.68 205.20 108.63 205.31 109.29 204.78 L 110.12 204.13 C 110.78 203.61 110.89 202.65 110.36 201.99 C 109.84 201.33 108.88 201.22 108.22 201.74 Z M 107.58 202.30 L 106.71 202.82 C 105.99 203.25 105.76 204.17 106.19 204.88 C 106.61 205.59 107.54 205.83 108.25 205.40 L 109.12 204.88 C 109.83 204.45 110.06 203.53 109.64 202.82 C 109.21 202.11 108.29 201.87 107.58 202.30 Z M 106.85 202.77 L 105.97 203.18 C 105.23 203.52 104.91 204.41 105.26 205.15 C 105.60 205.89 106.48 206.21 107.23 205.86 L 108.10 205.45 C 108.85 205.11 109.17 204.22 108.82 203.48 C 108.47 202.74 107.59 202.42 106.85 202.77 Z M 106.06 203.16 L 105.17 203.52 C 104.42 203.82 104.06 204.67 104.36 205.41 C 104.66 206.16 105.51 206.53 106.25 206.23 L 107.14 205.88 C 107.89 205.58 108.25 204.73 107.95 203.98 C 107.66 203.23 106.81 202.87 106.06 203.16 Z M 105.19 203.52 L 105.09 203.56 C 104.34 203.85 103.97 204.69 104.26 205.43 C 104.55 206.18 105.38 206.55 106.13 206.26 L 106.23 206.22 C 106.98 205.94 107.35 205.10 107.07 204.35 C 106.78 203.61 105.94 203.24 105.19 203.52 Z"
      fill="black"
      fill-rule="nonzero" /><path d="M 104.34 155.55 L 104.83 156.43 C 105.25 157.20 106.23 157.48 107.00 157.05 C 107.78 156.62 108.06 155.65 107.63 154.87 L 107.15 154.00 C 106.72 153.22 105.74 152.94 104.97 153.37 C 104.19 153.80 103.91 154.78 104.34 155.55 Z M 104.81 156.47 L 105.31 157.34 C 105.76 158.12 106.76 158.39 107.55 157.94 C 108.33 157.48 108.60 156.48 108.15 155.70 L 107.65 154.83 C 107.20 154.05 106.19 153.78 105.41 154.23 C 104.63 154.68 104.36 155.69 104.81 156.47 Z M 105.31 157.40 L 105.84 158.25 C 106.33 159.03 107.36 159.27 108.14 158.78 C 108.93 158.29 109.17 157.26 108.68 156.48 L 108.15 155.63 C 107.66 154.85 106.63 154.61 105.84 155.10 C 105.06 155.59 104.82 156.62 105.31 157.40 Z M 105.86 158.33 L 106.39 159.10 C 106.93 159.88 107.98 160.07 108.76 159.54 C 109.53 159.00 109.72 157.95 109.19 157.18 L 108.65 156.40 C 108.12 155.63 107.06 155.44 106.29 155.97 C 105.52 156.50 105.33 157.56 105.86 158.33 Z M 106.42 159.16 L 107.01 159.95 C 107.57 160.70 108.64 160.86 109.40 160.29 C 110.15 159.73 110.31 158.66 109.75 157.90 L 109.16 157.12 C 108.60 156.36 107.53 156.21 106.77 156.77 C 106.01 157.33 105.86 158.40 106.42 159.16 Z M 107.02 159.98 L 107.67 160.81 C 108.25 161.56 109.33 161.69 110.08 161.11 C 110.83 160.53 110.96 159.45 110.38 158.70 L 109.73 157.87 C 109.15 157.12 108.07 156.98 107.32 157.57 C 106.57 158.15 106.44 159.23 107.02 159.98 Z M 107.67 160.83 L 108.25 161.56 C 108.84 162.31 109.93 162.44 110.68 161.84 C 111.43 161.25 111.55 160.16 110.96 159.41 L 110.38 158.68 C 109.79 157.93 108.70 157.81 107.95 158.40 C 107.20 158.99 107.07 160.08 107.67 160.83 Z M 108.25 161.58 L 108.84 162.31 C 109.44 163.06 110.54 163.18 111.28 162.58 C 112.03 161.98 112.15 160.88 111.55 160.14 L 110.96 159.40 C 110.36 158.65 109.26 158.53 108.52 159.13 C 107.77 159.74 107.65 160.83 108.25 161.58 Z M 108.85 162.33 L 109.49 163.11 C 110.10 163.86 111.20 163.97 111.95 163.35 C 112.69 162.74 112.80 161.64 112.19 160.90 L 111.54 160.12 C 110.93 159.37 109.83 159.26 109.09 159.87 C 108.34 160.49 108.23 161.59 108.85 162.33 Z M 109.50 163.14 L 110.19 163.96 C 110.82 164.70 111.93 164.79 112.67 164.17 C 113.41 163.54 113.50 162.44 112.87 161.70 L 112.18 160.87 C 111.55 160.13 110.44 160.04 109.70 160.67 C 108.96 161.29 108.87 162.40 109.50 163.14 Z M 110.21 163.99 L 110.87 164.74 C 111.50 165.48 112.62 165.55 113.35 164.91 C 114.08 164.27 114.16 163.16 113.52 162.43 L 112.86 161.67 C 112.22 160.94 111.11 160.86 110.37 161.50 C 109.64 162.14 109.57 163.25 110.21 163.99 Z M 110.88 164.77 L 111.50 165.46 C 112.15 166.19 113.27 166.25 114.00 165.59 C 114.72 164.94 114.78 163.82 114.13 163.10 L 113.51 162.40 C 112.86 161.68 111.74 161.62 111.01 162.27 C 110.28 162.92 110.22 164.04 110.88 164.77 Z M 111.51 165.48 L 112.17 166.19 C 112.83 166.92 113.95 166.96 114.67 166.30 C 115.40 165.64 115.44 164.51 114.78 163.79 L 114.12 163.08 C 113.46 162.35 112.34 162.31 111.61 162.97 C 110.89 163.63 110.84 164.76 111.51 165.48 Z M 112.18 166.21 L 112.87 166.95 C 113.54 167.67 114.67 167.70 115.39 167.03 C 116.10 166.36 116.14 165.23 115.46 164.51 L 114.77 163.77 C 114.10 163.06 112.97 163.02 112.25 163.70 C 111.54 164.37 111.50 165.50 112.18 166.21 Z M 112.88 166.97 L 113.61 167.73 C 114.29 168.44 115.42 168.47 116.13 167.78 C 116.85 167.10 116.87 165.97 116.19 165.25 L 115.46 164.49 C 114.77 163.78 113.64 163.76 112.93 164.44 C 112.22 165.13 112.19 166.26 112.88 166.97 Z M 113.61 167.75 L 114.36 168.51 C 115.06 169.22 116.19 169.24 116.90 168.54 C 117.61 167.85 117.62 166.71 116.93 166.01 L 116.18 165.24 C 115.49 164.53 114.35 164.52 113.64 165.21 C 112.93 165.90 112.92 167.04 113.61 167.75 Z M 114.37 168.53 L 115.02 169.19 C 115.72 169.89 116.86 169.89 117.57 169.19 C 118.27 168.49 118.28 167.35 117.58 166.65 L 116.92 165.99 C 116.22 165.29 115.08 165.28 114.38 165.98 C 113.67 166.68 113.67 167.82 114.37 168.53 Z M 115.03 169.20 L 115.71 169.87 C 116.42 170.57 117.56 170.57 118.26 169.86 C 118.96 169.15 118.96 168.01 118.25 167.31 L 117.57 166.64 C 116.86 165.93 115.72 165.94 115.02 166.65 C 114.32 167.36 114.32 168.50 115.03 169.20 Z M 115.72 169.88 L 116.42 170.57 C 117.13 171.27 118.28 171.25 118.98 170.54 C 119.67 169.82 119.66 168.68 118.94 167.98 L 118.24 167.29 C 117.52 166.60 116.38 166.61 115.68 167.33 C 114.99 168.04 115.00 169.19 115.72 169.88 Z M 116.43 170.58 L 117.16 171.28 C 117.88 171.97 119.03 171.95 119.72 171.22 C 120.41 170.50 120.39 169.35 119.66 168.66 L 118.94 167.96 C 118.21 167.27 117.06 167.30 116.37 168.02 C 115.68 168.74 115.70 169.89 116.43 170.58 Z M 117.17 171.30 L 117.92 172.01 C 118.65 172.69 119.80 172.66 120.49 171.92 C 121.18 171.19 121.14 170.04 120.41 169.35 L 119.65 168.65 C 118.92 167.96 117.77 167.99 117.08 168.73 C 116.40 169.46 116.43 170.61 117.17 171.30 Z M 117.93 172.02 L 118.71 172.74 C 119.45 173.42 120.61 173.37 121.29 172.63 C 121.97 171.89 121.92 170.74 121.18 170.06 L 120.40 169.34 C 119.66 168.66 118.50 168.70 117.82 169.44 C 117.14 170.19 117.19 171.34 117.93 172.02 Z M 118.72 172.75 L 119.47 173.43 C 120.22 174.11 121.38 174.05 122.05 173.30 C 122.73 172.55 122.67 171.40 121.92 170.72 L 121.17 170.04 C 120.42 169.36 119.26 169.42 118.59 170.17 C 117.91 170.92 117.97 172.08 118.72 172.75 Z M 119.48 173.45 L 120.20 174.08 C 120.95 174.75 122.11 174.68 122.78 173.92 C 123.45 173.17 123.38 172.01 122.63 171.34 L 121.91 170.71 C 121.16 170.04 120.00 170.11 119.33 170.86 C 118.66 171.62 118.73 172.78 119.48 173.45 Z M 120.21 174.09 L 120.94 174.73 C 121.70 175.40 122.86 175.32 123.53 174.55 C 124.19 173.79 124.11 172.63 123.35 171.97 L 122.62 171.33 C 121.85 170.66 120.70 170.74 120.03 171.50 C 119.36 172.27 119.44 173.43 120.21 174.09 Z M 120.95 174.74 L 121.70 175.38 C 122.46 176.05 123.62 175.96 124.28 175.19 C 124.95 174.42 124.86 173.26 124.09 172.60 L 123.34 171.96 C 122.57 171.30 121.41 171.38 120.75 172.15 C 120.09 172.92 120.18 174.08 120.95 174.74 Z M 121.70 175.39 L 122.47 176.04 C 123.24 176.70 124.40 176.61 125.06 175.83 C 125.72 175.06 125.62 173.90 124.85 173.24 L 124.08 172.59 C 123.31 171.93 122.15 172.03 121.49 172.80 C 120.83 173.58 120.93 174.74 121.70 175.39 Z M 122.47 176.05 L 123.25 176.71 C 124.03 177.36 125.19 177.26 125.85 176.48 C 126.50 175.71 126.40 174.54 125.62 173.89 L 124.84 173.23 C 124.06 172.58 122.90 172.68 122.25 173.46 C 121.59 174.24 121.70 175.40 122.47 176.05 Z M 123.26 176.72 L 124.05 177.38 C 124.84 178.03 126.00 177.92 126.65 177.14 C 127.30 176.36 127.20 175.19 126.41 174.54 L 125.62 173.88 C 124.84 173.23 123.67 173.34 123.02 174.12 C 122.37 174.90 122.48 176.06 123.26 176.72 Z M 124.06 177.38 L 124.86 178.05 C 125.65 178.70 126.81 178.59 127.46 177.80 C 128.11 177.02 128.00 175.85 127.21 175.20 L 126.41 174.54 C 125.62 173.89 124.46 174.00 123.81 174.78 C 123.16 175.57 123.27 176.74 124.06 177.38 Z M 124.87 178.06 L 125.63 178.68 C 126.42 179.33 127.59 179.22 128.24 178.43 C 128.88 177.64 128.77 176.47 127.98 175.82 L 127.21 175.20 C 126.42 174.55 125.26 174.66 124.61 175.45 C 123.96 176.24 124.08 177.41 124.87 178.06 Z M 125.64 178.69 L 126.40 179.31 C 127.19 179.95 128.36 179.84 129.00 179.04 C 129.65 178.25 129.53 177.08 128.73 176.44 L 127.97 175.82 C 127.18 175.17 126.01 175.29 125.37 176.08 C 124.72 176.88 124.84 178.04 125.64 178.69 Z M 126.40 179.32 L 127.17 179.94 C 127.96 180.58 129.13 180.46 129.78 179.66 C 130.42 178.86 130.30 177.70 129.50 177.05 L 128.73 176.43 C 127.93 175.79 126.77 175.91 126.12 176.71 C 125.48 177.50 125.60 178.67 126.40 179.32 Z M 127.17 179.94 L 127.95 180.57 C 128.75 181.21 129.92 181.08 130.56 180.28 C 131.20 179.48 131.07 178.31 130.27 177.67 L 129.50 177.05 C 128.70 176.40 127.53 176.53 126.88 177.33 C 126.24 178.13 126.37 179.30 127.17 179.94 Z M 127.95 180.57 L 128.74 181.20 C 129.54 181.84 130.71 181.70 131.35 180.90 C 131.99 180.10 131.86 178.93 131.05 178.29 L 130.27 177.66 C 129.47 177.02 128.29 177.15 127.66 177.96 C 127.02 178.76 127.15 179.93 127.95 180.57 Z M 128.74 181.20 L 129.53 181.83 C 130.34 182.47 131.51 182.33 132.15 181.52 C 132.79 180.71 132.65 179.54 131.84 178.90 L 131.05 178.28 C 130.24 177.64 129.07 177.78 128.43 178.59 C 127.79 179.39 127.93 180.57 128.74 181.20 Z M 129.54 181.84 L 130.34 182.46 C 131.15 183.10 132.32 182.95 132.96 182.14 C 133.59 181.33 133.45 180.16 132.64 179.52 L 131.84 178.90 C 131.03 178.26 129.85 178.40 129.22 179.22 C 128.58 180.03 128.73 181.20 129.54 181.84 Z M 130.34 182.47 L 131.14 183.09 C 131.96 183.73 133.13 183.58 133.77 182.76 C 134.40 181.95 134.25 180.77 133.44 180.14 L 132.63 179.51 C 131.81 178.88 130.64 179.03 130.01 179.85 C 129.38 180.66 129.52 181.84 130.34 182.47 Z M 131.15 183.10 L 131.95 183.71 C 132.77 184.34 133.94 184.19 134.57 183.37 C 135.20 182.55 135.05 181.37 134.23 180.74 L 133.43 180.13 C 132.61 179.50 131.44 179.66 130.81 180.48 C 130.18 181.30 130.33 182.47 131.15 183.10 Z M 131.95 183.72 L 132.74 184.32 C 133.56 184.94 134.74 184.78 135.36 183.96 C 135.99 183.13 135.83 181.96 135.01 181.33 L 134.22 180.74 C 133.40 180.11 132.22 180.27 131.60 181.09 C 130.97 181.92 131.13 183.09 131.95 183.72 Z M 132.74 184.32 L 133.53 184.92 C 134.36 185.54 135.53 185.38 136.16 184.55 C 136.78 183.72 136.62 182.54 135.79 181.92 L 135.00 181.33 C 134.17 180.70 133.00 180.87 132.37 181.69 C 131.75 182.52 131.91 183.70 132.74 184.32 Z M 133.53 184.92 L 134.33 185.52 C 135.16 186.14 136.33 185.97 136.96 185.14 C 137.58 184.31 137.41 183.13 136.58 182.51 L 135.78 181.91 C 134.95 181.29 133.78 181.46 133.15 182.29 C 132.53 183.12 132.70 184.30 133.53 184.92 Z M 134.33 185.52 L 135.13 186.12 C 135.96 186.73 137.14 186.56 137.76 185.73 C 138.38 184.89 138.21 183.72 137.37 183.10 L 136.57 182.50 C 135.74 181.88 134.56 182.06 133.94 182.89 C 133.32 183.72 133.50 184.90 134.33 185.52 Z M 135.13 186.12 L 135.94 186.72 C 136.77 187.33 137.95 187.16 138.57 186.32 C 139.19 185.48 139.01 184.30 138.17 183.69 L 137.37 183.09 C 136.53 182.47 135.35 182.65 134.74 183.49 C 134.12 184.32 134.29 185.50 135.13 186.12 Z M 135.94 186.72 L 136.75 187.32 C 137.59 187.93 138.77 187.75 139.39 186.91 C 140.00 186.08 139.82 184.90 138.98 184.28 L 138.17 183.68 C 137.33 183.07 136.15 183.25 135.54 184.08 C 134.92 184.92 135.10 186.10 135.94 186.72 Z M 136.75 187.32 L 137.57 187.92 C 138.41 188.53 139.59 188.35 140.21 187.51 C 140.82 186.67 140.64 185.49 139.80 184.87 L 138.98 184.27 C 138.14 183.66 136.96 183.84 136.34 184.68 C 135.73 185.52 135.91 186.70 136.75 187.32 Z M 137.57 187.92 L 138.40 188.52 C 139.24 189.14 140.42 188.95 141.04 188.11 C 141.65 187.27 141.46 186.09 140.62 185.47 L 139.80 184.87 C 138.95 184.25 137.77 184.44 137.16 185.28 C 136.54 186.13 136.73 187.31 137.57 187.92 Z M 138.40 188.53 L 139.22 189.13 C 140.07 189.74 141.25 189.55 141.86 188.71 C 142.48 187.86 142.29 186.68 141.45 186.07 L 140.62 185.47 C 139.78 184.85 138.59 185.04 137.98 185.88 C 137.36 186.73 137.55 187.91 138.40 188.53 Z M 139.22 189.13 L 140.05 189.73 C 140.89 190.34 142.08 190.15 142.69 189.31 C 143.31 188.46 143.12 187.28 142.27 186.66 L 141.45 186.06 C 140.60 185.45 139.41 185.64 138.80 186.48 C 138.19 187.33 138.37 188.52 139.22 189.13 Z M 140.05 189.73 L 140.87 190.33 C 141.72 190.94 142.91 190.75 143.52 189.90 C 144.14 189.06 143.95 187.87 143.10 187.26 L 142.27 186.66 C 141.42 186.04 140.24 186.23 139.62 187.08 C 139.01 187.93 139.20 189.12 140.05 189.73 Z M 140.87 190.33 L 141.70 190.93 C 142.55 191.54 143.74 191.35 144.35 190.50 C 144.97 189.65 144.77 188.46 143.92 187.85 L 143.10 187.25 C 142.25 186.64 141.06 186.83 140.44 187.68 C 139.83 188.53 140.02 189.72 140.87 190.33 Z M 141.70 190.93 L 142.52 191.53 C 143.38 192.14 144.57 191.95 145.18 191.09 C 145.79 190.24 145.60 189.05 144.75 188.44 L 143.92 187.84 C 143.07 187.23 141.88 187.42 141.27 188.28 C 140.65 189.13 140.85 190.32 141.70 190.93 Z M 142.52 191.53 L 143.34 192.12 C 144.20 192.73 145.39 192.53 146.00 191.68 C 146.61 190.82 146.42 189.63 145.56 189.02 L 144.75 188.43 C 143.89 187.82 142.70 188.02 142.09 188.87 C 141.47 189.73 141.67 190.92 142.52 191.53 Z M 143.34 192.12 L 144.15 192.70 C 145.01 193.31 146.20 193.11 146.81 192.26 C 147.42 191.40 147.23 190.21 146.37 189.59 L 145.56 189.01 C 144.70 188.40 143.51 188.60 142.90 189.46 C 142.29 190.31 142.48 191.51 143.34 192.12 Z M 144.15 192.70 L 144.94 193.27 C 145.80 193.88 147.00 193.68 147.61 192.82 C 148.22 191.96 148.02 190.77 147.16 190.16 L 146.37 189.59 C 145.51 188.98 144.32 189.18 143.70 190.04 C 143.09 190.89 143.29 192.09 144.15 192.70 Z M 144.95 193.27 L 145.73 193.83 C 146.59 194.44 147.78 194.24 148.40 193.38 C 149.01 192.51 148.81 191.32 147.94 190.71 L 147.16 190.15 C 146.30 189.54 145.11 189.74 144.49 190.60 C 143.88 191.46 144.08 192.66 144.95 193.27 Z M 145.73 193.83 L 146.57 194.43 C 147.44 195.04 148.63 194.84 149.25 193.97 C 149.86 193.11 149.65 191.91 148.79 191.30 L 147.94 190.70 C 147.08 190.09 145.88 190.30 145.27 191.16 C 144.66 192.02 144.86 193.22 145.73 193.83 Z M 146.58 194.43 L 147.43 195.04 C 148.30 195.65 149.49 195.44 150.11 194.57 C 150.72 193.71 150.51 192.51 149.64 191.90 L 148.79 191.30 C 147.92 190.69 146.72 190.89 146.11 191.76 C 145.50 192.63 145.71 193.82 146.58 194.43 Z M 147.43 195.04 L 148.27 195.63 C 149.14 196.24 150.34 196.03 150.95 195.16 C 151.56 194.29 151.34 193.09 150.48 192.48 L 149.64 191.89 C 148.77 191.29 147.57 191.50 146.96 192.37 C 146.35 193.24 146.57 194.43 147.43 195.04 Z M 148.28 195.63 L 149.10 196.20 C 149.97 196.81 151.17 196.60 151.77 195.72 C 152.38 194.85 152.16 193.65 151.29 193.05 L 150.47 192.48 C 149.60 191.87 148.40 192.08 147.79 192.96 C 147.19 193.83 147.40 195.03 148.28 195.63 Z M 149.10 196.21 L 149.91 196.77 C 150.79 197.37 151.99 197.15 152.59 196.28 C 153.19 195.40 152.97 194.20 152.10 193.60 L 151.29 193.04 C 150.41 192.44 149.21 192.66 148.61 193.53 C 148.01 194.41 148.23 195.61 149.10 196.21 Z M 149.92 196.78 L 150.72 197.32 C 151.60 197.92 152.80 197.70 153.40 196.82 C 154.00 195.94 153.77 194.74 152.90 194.14 L 152.09 193.59 C 151.21 192.99 150.02 193.22 149.42 194.10 C 148.81 194.98 149.04 196.17 149.92 196.78 Z M 150.73 197.33 L 151.52 197.87 C 152.41 198.47 153.61 198.24 154.20 197.36 C 154.80 196.47 154.57 195.27 153.69 194.68 L 152.89 194.14 C 152.01 193.54 150.81 193.77 150.21 194.65 C 149.61 195.53 149.84 196.73 150.73 197.33 Z M 151.53 197.88 L 152.33 198.41 C 153.21 199.01 154.41 198.77 155.01 197.88 C 155.60 197.00 155.36 195.80 154.48 195.20 L 153.68 194.67 C 152.79 194.08 151.60 194.31 151.00 195.20 C 150.41 196.08 150.64 197.28 151.53 197.88 Z M 152.33 198.42 L 153.16 198.97 C 154.05 199.56 155.25 199.31 155.84 198.42 C 156.43 197.53 156.19 196.34 155.30 195.75 L 154.47 195.20 C 153.58 194.61 152.38 194.85 151.79 195.74 C 151.20 196.63 151.45 197.83 152.33 198.42 Z M 153.17 198.98 L 154.00 199.52 C 154.90 200.11 156.10 199.85 156.68 198.96 C 157.27 198.07 157.02 196.87 156.12 196.28 L 155.29 195.74 C 154.40 195.15 153.20 195.40 152.61 196.30 C 152.03 197.19 152.28 198.39 153.17 198.98 Z M 154.01 199.53 L 154.85 200.07 C 155.75 200.65 156.95 200.39 157.53 199.49 C 158.11 198.59 157.85 197.39 156.95 196.81 L 156.11 196.27 C 155.21 195.70 154.02 195.95 153.44 196.85 C 152.86 197.75 153.12 198.95 154.01 199.53 Z M 154.86 200.08 L 155.70 200.61 C 156.61 201.19 157.80 200.92 158.38 200.02 C 158.95 199.11 158.68 197.91 157.78 197.34 L 156.94 196.81 C 156.04 196.23 154.84 196.50 154.26 197.40 C 153.69 198.31 153.96 199.50 154.86 200.08 Z M 155.71 200.62 L 156.56 201.15 C 157.47 201.72 158.67 201.44 159.24 200.53 C 159.80 199.63 159.53 198.43 158.62 197.86 L 157.77 197.33 C 156.86 196.76 155.67 197.04 155.10 197.95 C 154.53 198.86 154.81 200.05 155.71 200.62 Z M 156.58 201.16 L 157.43 201.69 C 158.34 202.25 159.54 201.96 160.10 201.05 C 160.66 200.13 160.38 198.94 159.46 198.38 L 158.61 197.85 C 157.69 197.29 156.50 197.58 155.94 198.49 C 155.38 199.40 155.66 200.60 156.58 201.16 Z M 157.44 201.70 L 158.31 202.22 C 159.23 202.77 160.42 202.47 160.97 201.56 C 161.53 200.64 161.23 199.44 160.31 198.89 L 159.45 198.37 C 158.53 197.81 157.34 198.11 156.78 199.03 C 156.23 199.95 156.52 201.14 157.44 201.70 Z M 158.32 202.23 L 159.18 202.73 C 160.10 203.28 161.30 202.97 161.84 202.05 C 162.39 201.12 162.08 199.93 161.16 199.39 L 160.30 198.88 C 159.37 198.33 158.18 198.64 157.64 199.56 C 157.09 200.49 157.40 201.68 158.32 202.23 Z M 159.19 202.74 L 160.05 203.24 C 160.98 203.77 162.17 203.46 162.71 202.53 C 163.24 201.60 162.93 200.41 162.00 199.87 L 161.14 199.38 C 160.21 198.84 159.02 199.16 158.49 200.09 C 157.95 201.01 158.27 202.20 159.19 202.74 Z M 160.07 203.24 L 160.93 203.73 C 161.86 204.26 163.05 203.94 163.58 203.00 C 164.11 202.07 163.78 200.88 162.85 200.36 L 161.98 199.87 C 161.05 199.34 159.86 199.66 159.33 200.60 C 158.81 201.53 159.13 202.72 160.07 203.24 Z M 160.95 203.74 L 161.82 204.23 C 162.76 204.75 163.94 204.41 164.46 203.47 C 164.98 202.53 164.64 201.35 163.70 200.83 L 162.83 200.35 C 161.89 199.83 160.71 200.17 160.19 201.10 C 159.67 202.04 160.01 203.22 160.95 203.74 Z M 161.84 204.23 L 162.72 204.71 C 163.66 205.22 164.84 204.87 165.35 203.93 C 165.86 202.99 165.51 201.81 164.57 201.30 L 163.69 200.82 C 162.74 200.31 161.57 200.66 161.06 201.60 C 160.55 202.55 160.89 203.72 161.84 204.23 Z M 162.74 204.72 L 163.62 205.19 C 164.57 205.69 165.74 205.33 166.24 204.38 C 166.75 203.44 166.38 202.26 165.44 201.76 L 164.55 201.29 C 163.60 200.79 162.43 201.15 161.93 202.10 C 161.43 203.05 161.79 204.22 162.74 204.72 Z M 163.64 205.20 L 164.54 205.66 C 165.49 206.15 166.66 205.78 167.15 204.83 C 167.64 203.88 167.27 202.71 166.32 202.22 L 165.42 201.76 C 164.47 201.26 163.30 201.64 162.81 202.59 C 162.32 203.54 162.69 204.71 163.64 205.20 Z M 164.56 205.67 L 165.46 206.12 C 166.41 206.60 167.58 206.22 168.06 205.26 C 168.54 204.31 168.16 203.14 167.20 202.66 L 166.30 202.21 C 165.34 201.73 164.18 202.11 163.70 203.07 C 163.22 204.03 163.60 205.19 164.56 205.67 Z M 165.48 206.13 L 166.37 206.57 C 167.33 207.04 168.49 206.64 168.96 205.68 C 169.43 204.72 169.04 203.57 168.08 203.09 L 167.18 202.66 C 166.22 202.19 165.06 202.58 164.59 203.54 C 164.12 204.50 164.52 205.66 165.48 206.13 Z M 166.39 206.58 L 167.29 207.01 C 168.26 207.47 169.41 207.06 169.87 206.10 C 170.33 205.13 169.92 203.98 168.96 203.52 L 168.06 203.09 C 167.10 202.63 165.94 203.04 165.48 204.00 C 165.02 204.96 165.43 206.12 166.39 206.58 Z M 167.31 207.01 L 168.21 207.44 C 169.18 207.89 170.33 207.47 170.78 206.50 C 171.23 205.54 170.82 204.39 169.85 203.94 L 168.94 203.51 C 167.98 203.06 166.83 203.48 166.38 204.45 C 165.92 205.41 166.34 206.56 167.31 207.01 Z M 168.23 207.44 L 169.14 207.86 C 170.11 208.30 171.25 207.88 171.70 206.91 C 172.14 205.94 171.71 204.79 170.75 204.35 L 169.84 203.93 C 168.87 203.49 167.72 203.91 167.28 204.88 C 166.83 205.85 167.26 207.00 168.23 207.44 Z M 169.15 207.86 L 170.06 208.27 C 171.03 208.71 172.17 208.28 172.61 207.31 C 173.05 206.34 172.62 205.19 171.65 204.76 L 170.73 204.34 C 169.76 203.91 168.62 204.34 168.18 205.31 C 167.74 206.28 168.18 207.42 169.15 207.86 Z M 170.07 208.28 L 170.99 208.68 C 171.96 209.12 173.10 208.68 173.53 207.70 C 173.96 206.73 173.52 205.59 172.55 205.16 L 171.64 204.75 C 170.66 204.32 169.52 204.76 169.09 205.73 C 168.66 206.70 169.10 207.84 170.07 208.28 Z M 170.99 208.68 L 171.91 209.09 C 172.88 209.52 174.02 209.07 174.45 208.10 C 174.88 207.13 174.43 205.99 173.46 205.56 L 172.54 205.16 C 171.57 204.73 170.43 205.17 170.01 206.15 C 169.58 207.12 170.02 208.26 170.99 208.68 Z M 171.92 209.09 L 172.83 209.49 C 173.81 209.91 174.94 209.47 175.37 208.49 C 175.79 207.52 175.35 206.39 174.37 205.96 L 173.46 205.56 C 172.48 205.14 171.35 205.58 170.92 206.56 C 170.50 207.53 170.94 208.66 171.92 209.09 Z M 172.84 209.49 L 173.75 209.88 C 174.72 210.30 175.85 209.86 176.27 208.88 C 176.70 207.91 176.25 206.78 175.28 206.36 L 174.37 205.96 C 173.39 205.54 172.26 205.99 171.84 206.96 C 171.42 207.93 171.86 209.07 172.84 209.49 Z M 173.75 209.88 L 174.66 210.27 C 175.64 210.69 176.77 210.24 177.18 209.27 C 177.60 208.30 177.16 207.17 176.18 206.75 L 175.27 206.36 C 174.30 205.94 173.17 206.39 172.75 207.36 C 172.33 208.33 172.78 209.46 173.75 209.88 Z M 174.67 210.27 L 175.58 210.66 C 176.55 211.08 177.68 210.63 178.10 209.66 C 178.51 208.68 178.06 207.56 177.09 207.14 L 176.18 206.75 C 175.20 206.33 174.08 206.79 173.66 207.76 C 173.25 208.73 173.70 209.86 174.67 210.27 Z M 175.59 210.66 L 176.50 211.05 C 177.48 211.46 178.60 211.01 179.01 210.04 C 179.43 209.07 178.97 207.95 178.00 207.53 L 177.08 207.14 C 176.11 206.73 174.99 207.18 174.58 208.15 C 174.16 209.13 174.62 210.25 175.59 210.66 Z M 176.51 211.05 L 177.43 211.44 C 178.40 211.85 179.52 211.39 179.93 210.42 C 180.34 209.45 179.89 208.33 178.92 207.92 L 178.00 207.53 C 177.02 207.12 175.90 207.58 175.49 208.55 C 175.09 209.52 175.54 210.64 176.51 211.05 Z M 177.44 211.44 L 178.37 211.83 C 179.34 212.23 180.45 211.78 180.86 210.81 C 181.26 209.83 180.81 208.72 179.84 208.31 L 178.91 207.92 C 177.94 207.52 176.82 207.98 176.42 208.95 C 176.01 209.92 176.47 211.03 177.44 211.44 Z M 178.37 211.83 L 179.31 212.21 C 180.28 212.62 181.39 212.16 181.79 211.19 C 182.19 210.22 181.73 209.10 180.76 208.70 L 179.83 208.31 C 178.86 207.91 177.75 208.37 177.34 209.34 C 176.94 210.31 177.40 211.42 178.37 211.83 Z M 179.31 212.21 L 180.26 212.60 C 181.23 213.00 182.33 212.54 182.73 211.57 C 183.13 210.60 182.67 209.49 181.70 209.09 L 180.76 208.70 C 179.79 208.30 178.68 208.77 178.28 209.73 C 177.88 210.70 178.34 211.81 179.31 212.21 Z M 180.26 212.60 L 181.22 212.99 C 182.19 213.38 183.29 212.92 183.69 211.95 C 184.08 210.98 183.62 209.88 182.65 209.48 L 181.69 209.09 C 180.73 208.70 179.62 209.16 179.23 210.13 C 178.83 211.10 179.30 212.20 180.26 212.60 Z M 181.23 212.98 L 182.18 213.37 C 183.15 213.76 184.25 213.30 184.64 212.33 C 185.03 211.36 184.57 210.26 183.60 209.87 L 182.64 209.49 C 181.68 209.09 180.58 209.56 180.19 210.53 C 179.79 211.49 180.26 212.59 181.23 212.98 Z M 182.19 213.37 L 183.14 213.75 C 184.11 214.14 185.20 213.67 185.59 212.71 C 185.98 211.74 185.51 210.65 184.55 210.26 L 183.59 209.88 C 182.63 209.49 181.53 209.96 181.15 210.92 C 180.76 211.89 181.23 212.98 182.19 213.37 Z M 183.15 213.75 L 184.10 214.12 C 185.06 214.51 186.15 214.04 186.53 213.08 C 186.92 212.12 186.45 211.02 185.48 210.64 L 184.54 210.26 C 183.58 209.88 182.49 210.35 182.10 211.31 C 181.72 212.27 182.19 213.36 183.15 213.75 Z M 184.10 214.12 L 185.03 214.49 C 185.99 214.87 187.08 214.40 187.46 213.44 C 187.84 212.48 187.37 211.39 186.41 211.01 L 185.48 210.64 C 184.52 210.26 183.43 210.73 183.05 211.69 C 182.67 212.65 183.14 213.74 184.10 214.12 Z M 185.04 214.48 L 185.94 214.84 C 186.90 215.22 187.98 214.75 188.36 213.79 C 188.74 212.83 188.27 211.75 187.31 211.37 L 186.40 211.02 C 185.44 210.64 184.36 211.11 183.98 212.07 C 183.61 213.02 184.08 214.11 185.04 214.48 Z M 185.95 214.84 L 186.83 215.18 C 187.79 215.56 188.86 215.09 189.24 214.13 C 189.61 213.18 189.14 212.10 188.19 211.72 L 187.30 211.38 C 186.35 211.00 185.27 211.48 184.90 212.43 C 184.52 213.39 184.99 214.46 185.95 214.84 Z M 186.84 215.18 L 187.78 215.55 C 188.74 215.92 189.81 215.45 190.18 214.50 C 190.55 213.54 190.08 212.47 189.13 212.10 L 188.18 211.73 C 187.23 211.36 186.16 211.83 185.78 212.78 C 185.41 213.73 185.88 214.81 186.84 215.18 Z M 187.79 215.54 L 188.80 215.93 C 189.74 216.30 190.81 215.83 191.18 214.88 C 191.55 213.93 191.07 212.86 190.13 212.50 L 189.12 212.11 C 188.17 211.74 187.11 212.21 186.74 213.16 C 186.37 214.11 186.84 215.17 187.79 215.54 Z M 188.81 215.92 L 189.77 216.29 C 190.71 216.65 191.77 216.18 192.13 215.24 C 192.49 214.30 192.02 213.24 191.08 212.88 L 190.12 212.51 C 189.17 212.14 188.12 212.61 187.75 213.56 C 187.39 214.50 187.86 215.56 188.81 215.92 Z M 189.78 216.28 L 190.70 216.63 C 191.64 216.99 192.69 216.52 193.05 215.58 C 193.41 214.64 192.94 213.59 192.00 213.24 L 191.07 212.88 C 190.13 212.53 189.08 213.00 188.73 213.94 C 188.37 214.87 188.84 215.92 189.78 216.28 Z M 190.71 216.63 L 191.61 216.96 C 192.55 217.32 193.59 216.84 193.94 215.91 C 194.29 214.98 193.82 213.94 192.89 213.58 L 191.99 213.25 C 191.05 212.89 190.01 213.37 189.66 214.30 C 189.31 215.23 189.78 216.27 190.71 216.63 Z M 191.63 216.96 L 192.50 217.28 C 193.43 217.63 194.47 217.16 194.81 216.23 C 195.16 215.30 194.68 214.27 193.76 213.92 L 192.88 213.59 C 191.95 213.25 190.91 213.72 190.57 214.65 C 190.22 215.58 190.70 216.61 191.63 216.96 Z M 192.52 217.27 L 193.40 217.60 C 194.33 217.94 195.35 217.47 195.69 216.54 C 196.03 215.62 195.56 214.59 194.63 214.25 L 193.74 213.93 C 192.82 213.59 191.80 214.06 191.46 214.99 C 191.12 215.91 191.59 216.94 192.52 217.27 Z M 193.42 217.59 L 194.37 217.94 C 195.29 218.27 196.30 217.79 196.63 216.88 C 196.97 215.96 196.49 214.94 195.57 214.61 L 194.62 214.26 C 193.70 213.93 192.69 214.41 192.35 215.32 C 192.02 216.24 192.50 217.26 193.42 217.59 Z M 194.38 217.93 L 195.32 218.26 C 196.24 218.59 197.24 218.12 197.57 217.20 C 197.90 216.29 197.42 215.28 196.51 214.96 L 195.56 214.62 C 194.65 214.29 193.64 214.77 193.32 215.68 C 192.99 216.59 193.47 217.60 194.38 217.93 Z M 195.33 218.25 L 196.27 218.59 C 197.18 218.91 198.18 218.43 198.50 217.53 C 198.82 216.62 198.35 215.62 197.44 215.30 L 196.50 214.97 C 195.59 214.65 194.60 215.12 194.27 216.03 C 193.95 216.94 194.43 217.93 195.33 218.25 Z M 196.28 218.58 L 197.22 218.91 C 198.12 219.22 199.11 218.75 199.43 217.85 C 199.74 216.95 199.27 215.96 198.37 215.64 L 197.43 215.31 C 196.53 215.00 195.54 215.47 195.23 216.37 C 194.91 217.27 195.38 218.26 196.28 218.58 Z M 197.23 218.89 L 198.16 219.22 C 199.06 219.53 200.04 219.06 200.35 218.17 C 200.66 217.28 200.19 216.30 199.30 215.98 L 198.36 215.65 C 197.47 215.34 196.49 215.81 196.18 216.71 C 195.86 217.60 196.33 218.58 197.23 218.89 Z M 198.17 219.21 L 199.10 219.54 C 199.99 219.85 200.96 219.38 201.27 218.49 C 201.58 217.60 201.12 216.63 200.23 216.32 L 199.29 216.00 C 198.40 215.68 197.43 216.15 197.12 217.04 C 196.81 217.93 197.28 218.90 198.17 219.21 Z M 199.11 219.52 L 200.05 219.85 C 200.93 220.16 201.89 219.69 202.20 218.81 C 202.51 217.93 202.04 216.97 201.16 216.66 L 200.22 216.34 C 199.34 216.03 198.38 216.49 198.07 217.37 C 197.77 218.25 198.23 219.22 199.11 219.52 Z M 200.06 219.84 L 201.00 220.17 C 201.87 220.47 202.82 220.01 203.13 219.13 C 203.43 218.26 202.97 217.31 202.10 217.00 L 201.15 216.68 C 200.28 216.37 199.33 216.84 199.02 217.71 C 198.72 218.58 199.18 219.54 200.06 219.84 Z M 201.01 220.15 L 201.95 220.48 C 202.82 220.78 203.76 220.32 204.06 219.45 C 204.36 218.58 203.90 217.64 203.03 217.34 L 202.09 217.01 C 201.22 216.72 200.27 217.18 199.98 218.04 C 199.68 218.91 200.14 219.86 201.01 220.15 Z M 201.96 220.47 L 202.91 220.79 C 203.77 221.08 204.71 220.62 205.00 219.76 C 205.29 218.90 204.83 217.97 203.97 217.67 L 203.02 217.35 C 202.16 217.06 201.23 217.52 200.93 218.38 C 200.64 219.24 201.10 220.18 201.96 220.47 Z M 202.93 220.78 L 203.88 221.10 C 204.74 221.38 205.66 220.92 205.95 220.07 C 206.23 219.21 205.77 218.29 204.91 218.00 L 203.96 217.68 C 203.10 217.40 202.18 217.86 201.89 218.72 C 201.61 219.57 202.07 220.49 202.93 220.78 Z M 203.90 221.09 L 204.83 221.39 C 205.68 221.67 206.59 221.21 206.87 220.36 C 207.15 219.51 206.69 218.59 205.84 218.32 L 204.90 218.01 C 204.05 217.73 203.14 218.20 202.86 219.05 C 202.58 219.90 203.05 220.81 203.90 221.09 Z M 204.84 221.39 L 205.78 221.69 C 206.63 221.96 207.53 221.49 207.81 220.65 C 208.08 219.80 207.61 218.89 206.76 218.62 L 205.82 218.32 C 204.98 218.05 204.07 218.52 203.80 219.36 C 203.53 220.21 204.00 221.12 204.84 221.39 Z M 205.79 221.68 L 206.74 221.98 C 207.58 222.25 208.48 221.78 208.75 220.93 C 209.01 220.09 208.54 219.19 207.70 218.93 L 206.75 218.63 C 205.91 218.36 205.01 218.83 204.75 219.68 C 204.48 220.52 204.95 221.42 205.79 221.68 Z M 206.75 221.97 L 207.71 222.27 C 208.55 222.53 209.44 222.06 209.70 221.22 C 209.96 220.38 209.49 219.49 208.65 219.23 L 207.69 218.93 C 206.85 218.68 205.96 219.15 205.70 219.98 C 205.44 220.82 205.91 221.71 206.75 221.97 Z M 207.72 222.26 L 208.69 222.56 C 209.52 222.81 210.41 222.34 210.66 221.51 C 210.92 220.67 210.44 219.79 209.61 219.53 L 208.64 219.24 C 207.81 218.98 206.92 219.45 206.67 220.29 C 206.41 221.13 206.88 222.01 207.72 222.26 Z M 208.70 222.55 L 209.67 222.84 C 210.50 223.09 211.38 222.62 211.63 221.79 C 211.88 220.96 211.41 220.08 210.58 219.83 L 209.60 219.54 C 208.77 219.29 207.89 219.76 207.64 220.59 C 207.39 221.42 207.87 222.30 208.70 222.55 Z M 209.68 222.84 L 210.60 223.11 C 211.43 223.36 212.30 222.89 212.55 222.06 C 212.80 221.23 212.32 220.36 211.50 220.11 L 210.57 219.84 C 209.74 219.59 208.87 220.06 208.62 220.89 C 208.38 221.72 208.85 222.59 209.68 222.84 Z M 210.61 223.11 L 211.54 223.39 C 212.37 223.63 213.24 223.16 213.48 222.33 C 213.73 221.51 213.26 220.64 212.43 220.39 L 211.49 220.12 C 210.66 219.87 209.80 220.34 209.55 221.17 C 209.31 222.00 209.78 222.87 210.61 223.11 Z M 211.54 223.39 L 212.49 223.67 C 213.32 223.91 214.19 223.44 214.43 222.61 C 214.67 221.79 214.20 220.92 213.38 220.68 L 212.43 220.40 C 211.60 220.15 210.73 220.62 210.49 221.45 C 210.25 222.27 210.72 223.14 211.54 223.39 Z M 212.49 223.66 L 213.46 223.95 C 214.28 224.19 215.15 223.72 215.39 222.90 C 215.63 222.07 215.16 221.21 214.34 220.96 L 213.38 220.68 C 212.55 220.43 211.69 220.90 211.44 221.73 C 211.20 222.55 211.67 223.42 212.49 223.66 Z M 213.45 223.94 L 214.43 224.24 C 215.25 224.48 216.12 224.01 216.36 223.19 C 216.61 222.37 216.14 221.51 215.32 221.26 L 214.34 220.97 C 213.52 220.72 212.66 221.19 212.41 222.01 C 212.17 222.83 212.63 223.70 213.45 223.94 Z M 214.43 224.23 L 215.42 224.53 C 216.24 224.78 217.10 224.32 217.35 223.50 C 217.60 222.68 217.14 221.81 216.32 221.56 L 215.32 221.26 C 214.51 221.02 213.64 221.48 213.39 222.30 C 213.15 223.12 213.61 223.98 214.43 224.23 Z M 215.42 224.53 L 216.37 224.82 C 217.19 225.07 218.05 224.61 218.30 223.79 C 218.55 222.98 218.09 222.11 217.28 221.86 L 216.32 221.57 C 215.51 221.32 214.64 221.78 214.39 222.59 C 214.14 223.41 214.60 224.28 215.42 224.53 Z M 216.37 224.81 L 217.32 225.11 C 218.13 225.36 219.00 224.91 219.25 224.09 C 219.50 223.28 219.05 222.42 218.23 222.16 L 217.28 221.87 C 216.47 221.61 215.60 222.07 215.35 222.88 C 215.10 223.70 215.55 224.56 216.37 224.81 Z M 217.32 225.11 L 218.28 225.41 C 219.09 225.66 219.95 225.21 220.21 224.40 C 220.46 223.59 220.01 222.72 219.20 222.47 L 218.24 222.17 C 217.42 221.91 216.56 222.36 216.31 223.18 C 216.05 223.99 216.50 224.85 217.32 225.11 Z M 218.27 225.40 L 219.24 225.71 C 220.05 225.96 220.91 225.51 221.16 224.70 C 221.42 223.89 220.97 223.03 220.16 222.77 L 219.20 222.47 C 218.39 222.21 217.52 222.66 217.27 223.47 C 217.01 224.28 217.46 225.15 218.27 225.40 Z M 219.23 225.70 L 220.19 226.01 C 221.00 226.26 221.87 225.82 222.12 225.01 C 222.38 224.20 221.93 223.34 221.12 223.08 L 220.16 222.78 C 219.35 222.52 218.49 222.97 218.23 223.78 C 217.98 224.59 218.43 225.45 219.23 225.70 Z M 220.20 226.00 L 221.15 226.31 C 221.96 226.56 222.82 226.12 223.07 225.31 C 223.33 224.50 222.88 223.64 222.07 223.39 L 221.12 223.08 C 220.31 222.83 219.45 223.27 219.20 224.08 C 218.94 224.89 219.39 225.75 220.20 226.00 Z M 221.15 226.30 L 222.10 226.60 C 222.91 226.86 223.76 226.41 224.02 225.61 C 224.27 224.80 223.83 223.94 223.02 223.69 L 222.07 223.39 C 221.27 223.13 220.41 223.58 220.15 224.39 C 219.90 225.19 220.35 226.05 221.15 226.30 Z M 222.10 226.60 L 223.08 226.91 C 223.89 227.17 224.75 226.72 225.00 225.91 C 225.25 225.11 224.81 224.25 224.00 224.00 L 223.02 223.69 C 222.21 223.44 221.36 223.88 221.10 224.69 C 220.85 225.49 221.30 226.35 222.10 226.60 Z M 223.09 226.91 L 224.06 227.21 C 224.86 227.47 225.72 227.02 225.97 226.21 C 226.22 225.41 225.77 224.55 224.97 224.30 L 224.00 224.00 C 223.19 223.75 222.34 224.20 222.09 225.00 C 221.83 225.80 222.28 226.66 223.09 226.91 Z M 224.06 227.22 L 225.02 227.51 C 225.82 227.76 226.68 227.31 226.93 226.50 C 227.17 225.70 226.72 224.84 225.92 224.60 L 224.96 224.30 C 224.16 224.05 223.30 224.50 223.05 225.31 C 222.80 226.11 223.25 226.97 224.06 227.22 Z M 225.02 227.51 L 225.97 227.80 C 226.78 228.05 227.63 227.59 227.87 226.79 C 228.12 225.98 227.67 225.13 226.86 224.88 L 225.91 224.60 C 225.11 224.35 224.25 224.80 224.01 225.61 C 223.76 226.41 224.22 227.27 225.02 227.51 Z M 225.98 227.80 L 226.92 228.08 C 227.73 228.33 228.58 227.87 228.82 227.06 C 229.06 226.26 228.60 225.41 227.80 225.17 L 226.85 224.88 C 226.05 224.64 225.20 225.10 224.96 225.91 C 224.72 226.71 225.17 227.56 225.98 227.80 Z M 226.93 228.09 L 227.87 228.36 C 228.68 228.60 229.52 228.14 229.76 227.33 C 230.00 226.52 229.53 225.68 228.73 225.44 L 227.79 225.16 C 226.98 224.93 226.14 225.39 225.90 226.20 C 225.66 227.00 226.12 227.85 226.93 228.09 Z M 227.88 228.36 L 228.84 228.64 C 229.65 228.87 230.49 228.40 230.72 227.60 C 230.95 226.79 230.49 225.95 229.68 225.71 L 228.72 225.44 C 227.91 225.21 227.07 225.67 226.84 226.48 C 226.60 227.29 227.07 228.13 227.88 228.36 Z M 228.85 228.64 L 229.81 228.91 C 230.62 229.14 231.46 228.67 231.69 227.86 C 231.91 227.05 231.44 226.21 230.63 225.98 L 229.67 225.71 C 228.86 225.49 228.02 225.96 227.79 226.77 C 227.57 227.57 228.04 228.41 228.85 228.64 Z M 229.82 228.91 L 230.78 229.18 C 231.59 229.40 232.43 228.93 232.65 228.12 C 232.88 227.31 232.40 226.47 231.59 226.25 L 230.63 225.98 C 229.82 225.76 228.98 226.23 228.76 227.04 C 228.53 227.85 229.01 228.69 229.82 228.91 Z M 230.79 229.18 L 231.75 229.44 C 232.56 229.66 233.40 229.18 233.62 228.37 C 233.84 227.56 233.36 226.73 232.55 226.51 L 231.58 226.25 C 230.77 226.03 229.94 226.50 229.72 227.31 C 229.50 228.12 229.98 228.96 230.79 229.18 Z M 231.76 229.44 L 232.72 229.70 C 233.53 229.92 234.36 229.44 234.58 228.63 C 234.80 227.82 234.32 226.98 233.51 226.77 L 232.55 226.51 C 231.73 226.29 230.90 226.77 230.68 227.58 C 230.47 228.39 230.95 229.22 231.76 229.44 Z M 232.72 229.70 L 233.69 229.96 C 234.50 230.17 235.33 229.69 235.55 228.88 C 235.76 228.07 235.28 227.24 234.47 227.02 L 233.51 226.77 C 232.70 226.55 231.86 227.03 231.65 227.84 C 231.43 228.65 231.91 229.48 232.72 229.70 Z M 233.69 229.96 L 234.07 230.06 C 234.88 230.28 235.71 229.79 235.93 228.98 C 236.15 228.17 235.66 227.34 234.85 227.13 L 234.47 227.03 C 233.66 226.81 232.83 227.29 232.61 228.10 C 232.40 228.91 232.88 229.74 233.69 229.96 Z"
      fill="black"
      fill-rule="nonzero" /></svg>