<svg xmlns="http://www.w3.org/2000/svg" width="300" height="300" viewBox="0 0 300 300">
<path d="M 140.79 108.34 L 140.79 109.32 C 140.79 110.20 141.51 110.91 142.39 110.91 C 143.27 110.91 143.98 110.20 143.98 109.32 L 143.98 108.34 C 143.98 107.46 143.27 106.75 142.39 106.75 C 141.51 106.75 140.79 107.46 140.79 108.34 Z M 140.79 109.32 L 140.79 110.30 C 140.79 111.18 141.51 111.90 142.39 111.90 C 143.27 111.90 143.98 111.18 143.98 110.30 L 143.98 109.32 C 143.98 108.44 143.27 107.72 142.39 107.72 C 141.51 107.72 140.79 108.44 140.79 109.32 Z M 140.79 110.30 L 140.79 111.30 C 140.79 112.18 141.50 112.90 142.39 112.90 C 143.27 112.90 143.99 112.18 143.99 111.30 L 143.99 110.30 C 143.99 109.42 143.27 108.70 142.39 108.70 C 141.50 108.70 140.79 109.42 140.79 110.30 Z M 140.79 111.30 L 140.79 112.32 C 140.79 113.20 141.50 113.92 142.39 113.92 C 143.27 113.92 143.99 113.20 143.99 112.32 L 143.99 111.30 C 143.99 110.41 143.27 109.70 142.39 109.70 C 141.50 109.70 140.79 110.41 140.79 111.30 Z M 140.78 112.32 L 140.78 113.35 C 140.78 114.24 141.50 114.96 142.39 114.96 C 143.27 114.96 143.99 114.24 143.99 113.35 L 143.99 112.32 C 143.99 111.43 143.27 110.71 142.39 110.71 C 141.50 110.71 140.78 111.43 140.78 112.32 Z M 140.79 113.35 L 140.79 114.40 C 140.79 115.28 141.50 116.00 142.39 116.00 C 143.27 116.00 143.99 115.28 143.99 114.40 L 143.99 113.35 C 143.99 112.47 143.27 111.75 142.39 111.75 C 141.50 111.75 140.79 112.47 140.79 113.35 Z M 140.79 114.40 L 140.79 115.44 C 140.79 116.32 141.51 117.03 142.39 117.03 C 143.28 117.03 143.99 116.31 143.99 115.43 L 143.99 114.39 C 143.99 113.51 143.27 112.80 142.38 112.80 C 141.50 112.80 140.79 113.52 140.79 114.40 Z M 140.79 115.44 L 140.80 116.44 C 140.80 117.32 141.52 118.04 142.40 118.03 C 143.29 118.03 144.00 117.31 143.99 116.43 L 143.99 115.42 C 143.98 114.54 143.26 113.83 142.38 113.84 C 141.50 113.84 140.79 114.56 140.79 115.44 Z M 140.80 116.45 L 140.81 117.39 C 140.82 118.27 141.54 118.98 142.42 118.97 C 143.30 118.96 144.01 118.24 144.00 117.36 L 143.99 116.42 C 143.98 115.54 143.26 114.83 142.38 114.84 C 141.50 114.85 140.79 115.57 140.80 116.45 Z M 140.82 117.40 L 140.84 118.47 C 140.86 119.35 141.58 120.04 142.46 120.03 C 143.33 120.01 144.03 119.28 144.01 118.41 L 143.99 117.34 C 143.98 116.47 143.25 115.77 142.38 115.79 C 141.50 115.80 140.80 116.53 140.82 117.40 Z M 140.85 118.49 L 140.88 119.51 C 140.91 120.38 141.64 121.07 142.51 121.04 C 143.38 121.01 144.06 120.28 144.03 119.41 L 144.00 118.39 C 143.97 117.52 143.25 116.83 142.38 116.86 C 141.50 116.89 140.82 117.62 140.85 118.49 Z M 140.89 119.54 L 140.94 120.48 C 140.98 121.34 141.71 122.01 142.58 121.97 C 143.44 121.93 144.11 121.19 144.07 120.33 L 144.02 119.39 C 143.98 118.53 143.25 117.86 142.39 117.90 C 141.52 117.94 140.85 118.67 140.89 119.54 Z M 140.95 120.50 L 141.01 121.39 C 141.06 122.25 141.79 122.90 142.65 122.85 C 143.51 122.80 144.16 122.06 144.11 121.20 L 144.05 120.31 C 144.00 119.45 143.27 118.80 142.41 118.85 C 141.55 118.90 140.90 119.64 140.95 120.50 Z M 141.02 121.41 L 141.08 122.30 C 141.14 123.15 141.89 123.79 142.74 123.72 C 143.59 123.66 144.23 122.92 144.16 122.07 L 144.10 121.18 C 144.04 120.33 143.29 119.69 142.44 119.76 C 141.59 119.82 140.95 120.56 141.02 121.41 Z M 141.09 122.32 L 141.18 123.28 C 141.25 124.13 142.00 124.75 142.84 124.68 C 143.69 124.60 144.32 123.85 144.24 123.01 L 144.16 122.04 C 144.08 121.20 143.33 120.57 142.49 120.65 C 141.64 120.72 141.01 121.47 141.09 122.32 Z M 141.18 123.30 L 141.30 124.40 C 141.39 125.24 142.14 125.86 142.98 125.77 C 143.82 125.68 144.44 124.93 144.35 124.08 L 144.23 122.99 C 144.14 122.14 143.39 121.53 142.55 121.62 C 141.71 121.71 141.10 122.46 141.18 123.30 Z M 141.31 124.42 L 141.42 125.42 C 141.52 126.26 142.28 126.86 143.12 126.76 C 143.95 126.66 144.55 125.90 144.46 125.07 L 144.34 124.07 C 144.24 123.23 143.48 122.63 142.65 122.73 C 141.81 122.83 141.21 123.58 141.31 124.42 Z M 141.43 125.43 L 141.55 126.38 C 141.65 127.21 142.42 127.80 143.25 127.70 C 144.08 127.59 144.67 126.83 144.57 126.00 L 144.45 125.05 C 144.34 124.22 143.58 123.63 142.75 123.74 C 141.92 123.84 141.33 124.60 141.43 125.43 Z M 141.56 126.39 L 141.69 127.39 C 141.80 128.22 142.57 128.80 143.40 128.69 C 144.23 128.58 144.81 127.81 144.70 126.98 L 144.56 125.98 C 144.45 125.15 143.68 124.57 142.85 124.68 C 142.02 124.80 141.44 125.56 141.56 126.39 Z M 141.70 127.41 L 141.85 128.44 C 141.97 129.26 142.74 129.83 143.57 129.71 C 144.39 129.59 144.96 128.82 144.84 127.99 L 144.69 126.96 C 144.57 126.14 143.80 125.57 142.97 125.69 C 142.15 125.81 141.58 126.58 141.70 127.41 Z M 141.86 128.45 L 142.03 129.49 C 142.16 130.31 142.93 130.87 143.75 130.74 C 144.58 130.61 145.13 129.83 145.00 129.01 L 144.83 127.97 C 144.70 127.15 143.93 126.59 143.11 126.73 C 142.28 126.86 141.73 127.63 141.86 128.45 Z M 142.04 129.51 L 142.22 130.55 C 142.37 131.37 143.15 131.91 143.96 131.77 C 144.78 131.62 145.32 130.84 145.18 130.02 L 144.99 128.99 C 144.85 128.17 144.07 127.63 143.25 127.77 C 142.43 127.92 141.89 128.70 142.04 129.51 Z M 142.23 130.58 L 142.45 131.63 C 142.61 132.44 143.40 132.97 144.21 132.80 C 145.01 132.64 145.54 131.85 145.38 131.04 L 145.16 129.99 C 145.00 129.18 144.21 128.66 143.40 128.82 C 142.60 128.99 142.07 129.77 142.23 130.58 Z M 142.47 131.67 L 142.70 132.68 C 142.88 133.48 143.68 133.97 144.48 133.79 C 145.27 133.61 145.77 132.81 145.59 132.01 L 145.36 131.01 C 145.17 130.21 144.38 129.71 143.58 129.89 C 142.78 130.08 142.28 130.87 142.47 131.67 Z M 142.72 132.72 L 142.97 133.68 C 143.18 134.47 143.99 134.93 144.78 134.72 C 145.56 134.51 146.03 133.71 145.82 132.92 L 145.57 131.96 C 145.36 131.18 144.55 130.71 143.76 130.92 C 142.98 131.13 142.51 131.94 142.72 132.72 Z M 143.00 133.74 L 143.28 134.64 C 143.52 135.41 144.34 135.84 145.11 135.60 C 145.89 135.36 146.32 134.54 146.08 133.77 L 145.80 132.86 C 145.56 132.09 144.73 131.66 143.96 131.90 C 143.19 132.14 142.76 132.96 143.00 133.74 Z M 143.31 134.71 L 143.64 135.60 C 143.92 136.35 144.76 136.74 145.51 136.46 C 146.27 136.18 146.65 135.35 146.37 134.59 L 146.04 133.70 C 145.77 132.95 144.93 132.56 144.18 132.84 C 143.42 133.12 143.04 133.95 143.31 134.71 Z M 143.68 135.68 L 144.10 136.63 C 144.42 137.36 145.28 137.69 146.01 137.37 C 146.74 137.05 147.07 136.20 146.75 135.47 L 146.33 134.52 C 146.01 133.78 145.16 133.45 144.43 133.77 C 143.70 134.09 143.36 134.95 143.68 135.68 Z M 144.14 136.70 L 144.59 137.59 C 144.95 138.30 145.81 138.58 146.52 138.23 C 147.23 137.87 147.52 137.00 147.16 136.29 L 146.71 135.40 C 146.35 134.69 145.49 134.40 144.78 134.76 C 144.07 135.12 143.78 135.98 144.14 136.70 Z M 144.62 137.63 L 145.09 138.48 C 145.47 139.18 146.34 139.43 147.04 139.05 C 147.73 138.67 147.98 137.79 147.60 137.10 L 147.13 136.25 C 146.75 135.55 145.88 135.30 145.18 135.68 C 144.49 136.06 144.24 136.94 144.62 137.63 Z M 145.11 138.50 L 145.51 139.21 C 145.91 139.90 146.78 140.14 147.46 139.74 C 148.15 139.35 148.39 138.48 147.99 137.79 L 147.58 137.08 C 147.19 136.40 146.32 136.16 145.63 136.55 C 144.95 136.94 144.71 137.82 145.11 138.50 Z"
      fill="black"
      fill-rule="nonzero" /><path d="M 144.91 114.78 L 143.57 114.53 C 142.74 114.38 141.94 114.93 141.79 115.76 C 141.64 116.59 142.19 117.39 143.02 117.54 L 144.36 117.78 C 145.19 117.93 145.99 117.38 146.14 116.55 C 146.29 115.72 145.74 114.93 144.91 114.78 Z M 143.63 114.53 L 142.53 114.29 C 141.71 114.10 140.88 114.63 140.70 115.46 C 140.51 116.29 141.04 117.11 141.87 117.29 L 142.96 117.54 C 143.79 117.72 144.61 117.20 144.80 116.37 C 144.98 115.54 144.46 114.72 143.63 114.53 Z M 142.78 114.35 L 142.18 114.11 C 141.38 113.79 140.48 114.17 140.16 114.97 C 139.84 115.76 140.22 116.66 141.02 116.98 L 141.62 117.23 C 142.41 117.55 143.32 117.16 143.64 116.37 C 143.96 115.58 143.57 114.67 142.78 114.35 Z M 143.08 116.01 L 143.15 115.79 C 143.41 114.97 142.95 114.09 142.13 113.83 C 141.31 113.58 140.44 114.03 140.18 114.85 L 140.11 115.08 C 139.85 115.90 140.31 116.77 141.13 117.03 C 141.95 117.29 142.82 116.83 143.08 116.01 Z M 142.21 116.78 L 142.87 116.54 C 143.68 116.24 144.09 115.34 143.79 114.53 C 143.49 113.72 142.59 113.31 141.78 113.61 L 141.12 113.86 C 140.31 114.16 139.90 115.06 140.20 115.86 C 140.51 116.67 141.40 117.08 142.21 116.78 Z M 142.72 116.59 L 143.88 116.28 C 144.71 116.07 145.21 115.21 144.99 114.38 C 144.78 113.54 143.92 113.04 143.09 113.26 L 141.93 113.56 C 141.09 113.78 140.59 114.63 140.81 115.47 C 141.03 116.30 141.88 116.80 142.72 116.59 Z M 143.86 116.29 L 145.34 115.92 C 146.18 115.71 146.69 114.87 146.48 114.03 C 146.28 113.19 145.43 112.68 144.59 112.89 L 143.10 113.25 C 142.27 113.46 141.76 114.31 141.96 115.15 C 142.17 115.99 143.02 116.50 143.86 116.29 Z M 145.36 115.92 L 146.24 115.69 C 147.08 115.48 147.58 114.62 147.37 113.79 C 147.15 112.95 146.30 112.44 145.46 112.66 L 144.58 112.89 C 143.74 113.10 143.23 113.96 143.45 114.79 C 143.66 115.63 144.52 116.14 145.36 115.92 Z M 146.25 115.69 L 147.19 115.45 C 148.03 115.23 148.53 114.37 148.31 113.53 C 148.09 112.69 147.23 112.19 146.39 112.41 L 145.45 112.66 C 144.61 112.88 144.11 113.74 144.33 114.58 C 144.55 115.41 145.41 115.91 146.25 115.69 Z M 147.20 115.45 L 148.18 115.18 C 149.02 114.96 149.52 114.10 149.30 113.26 C 149.07 112.42 148.21 111.93 147.38 112.15 L 146.39 112.41 C 145.55 112.63 145.05 113.49 145.28 114.33 C 145.50 115.17 146.36 115.67 147.20 115.45 Z M 148.19 115.18 L 149.19 114.91 C 150.03 114.69 150.53 113.83 150.31 112.99 C 150.08 112.15 149.22 111.65 148.38 111.88 L 147.37 112.15 C 146.53 112.37 146.04 113.23 146.26 114.07 C 146.49 114.91 147.35 115.41 148.19 115.18 Z M 149.20 114.92 L 150.21 114.65 C 151.05 114.42 151.55 113.56 151.32 112.72 C 151.10 111.88 150.23 111.38 149.39 111.60 L 148.38 111.88 C 147.54 112.10 147.04 112.96 147.27 113.80 C 147.49 114.64 148.36 115.14 149.20 114.92 Z M 150.21 114.65 L 151.20 114.38 C 152.05 114.16 152.55 113.29 152.32 112.45 C 152.10 111.61 151.23 111.11 150.39 111.34 L 149.39 111.60 C 148.55 111.83 148.05 112.69 148.28 113.53 C 148.50 114.37 149.37 114.87 150.21 114.65 Z M 151.20 114.38 L 152.16 114.13 C 153.01 113.91 153.51 113.04 153.29 112.20 C 153.07 111.36 152.20 110.86 151.36 111.08 L 150.40 111.33 C 149.55 111.56 149.05 112.42 149.27 113.26 C 149.49 114.10 150.36 114.61 151.20 114.38 Z M 152.16 114.13 L 153.21 113.86 C 154.05 113.64 154.56 112.78 154.34 111.94 C 154.12 111.09 153.26 110.59 152.42 110.80 L 151.37 111.08 C 150.52 111.29 150.01 112.16 150.23 113.00 C 150.45 113.84 151.31 114.35 152.16 114.13 Z M 153.20 113.87 L 154.26 113.60 C 155.11 113.39 155.62 112.53 155.41 111.68 C 155.19 110.83 154.34 110.32 153.49 110.53 L 152.43 110.80 C 151.58 111.01 151.07 111.87 151.28 112.72 C 151.49 113.56 152.35 114.08 153.20 113.87 Z M 154.25 113.60 L 155.24 113.36 C 156.09 113.16 156.61 112.30 156.40 111.45 C 156.20 110.60 155.34 110.08 154.49 110.29 L 153.50 110.53 C 152.65 110.74 152.13 111.59 152.34 112.44 C 152.54 113.29 153.40 113.81 154.25 113.60 Z M 155.23 113.37 L 156.17 113.14 C 157.02 112.95 157.55 112.09 157.35 111.24 C 157.15 110.39 156.30 109.87 155.45 110.06 L 154.51 110.28 C 153.66 110.48 153.13 111.34 153.33 112.19 C 153.53 113.04 154.38 113.56 155.23 113.37 Z M 156.16 113.15 L 157.07 112.94 C 157.92 112.75 158.45 111.90 158.26 111.05 C 158.07 110.20 157.22 109.66 156.37 109.86 L 155.46 110.06 C 154.61 110.25 154.07 111.10 154.27 111.95 C 154.46 112.81 155.31 113.34 156.16 113.15 Z M 157.06 112.95 L 157.95 112.75 C 158.80 112.57 159.34 111.72 159.16 110.87 C 158.97 110.01 158.13 109.47 157.27 109.66 L 156.38 109.85 C 155.53 110.04 154.98 110.88 155.17 111.74 C 155.36 112.59 156.20 113.13 157.06 112.95 Z M 157.94 112.75 L 158.84 112.56 C 159.70 112.38 160.24 111.54 160.06 110.69 C 159.88 109.83 159.04 109.28 158.19 109.46 L 157.28 109.66 C 156.43 109.84 155.88 110.68 156.06 111.53 C 156.24 112.39 157.08 112.93 157.94 112.75 Z M 158.83 112.57 L 159.75 112.38 C 160.61 112.21 161.16 111.37 160.99 110.51 C 160.81 109.66 159.98 109.10 159.12 109.28 L 158.20 109.46 C 157.34 109.63 156.79 110.47 156.96 111.33 C 157.13 112.18 157.97 112.74 158.83 112.57 Z M 159.73 112.38 L 160.67 112.21 C 161.53 112.04 162.10 111.22 161.94 110.36 C 161.78 109.50 160.95 108.93 160.09 109.09 L 159.14 109.27 C 158.28 109.43 157.72 110.26 157.88 111.12 C 158.04 111.98 158.87 112.55 159.73 112.38 Z M 160.65 112.21 L 161.63 112.04 C 162.49 111.90 163.07 111.08 162.92 110.22 C 162.78 109.36 161.96 108.78 161.10 108.92 L 160.12 109.09 C 159.25 109.24 158.68 110.05 158.82 110.92 C 158.97 111.78 159.79 112.36 160.65 112.21 Z M 161.60 112.05 L 162.62 111.90 C 163.49 111.77 164.08 110.96 163.95 110.10 C 163.82 109.23 163.02 108.64 162.15 108.76 L 161.13 108.92 C 160.26 109.05 159.67 109.85 159.80 110.72 C 159.93 111.58 160.73 112.18 161.60 112.05 Z M 162.59 111.90 L 163.67 111.76 C 164.53 111.65 165.15 110.86 165.04 109.99 C 164.93 109.13 164.14 108.51 163.27 108.62 L 162.19 108.76 C 161.32 108.87 160.71 109.66 160.82 110.53 C 160.93 111.40 161.72 112.01 162.59 111.90 Z M 163.63 111.77 L 164.66 111.66 C 165.53 111.57 166.16 110.79 166.07 109.92 C 165.98 109.05 165.20 108.42 164.33 108.51 L 163.30 108.62 C 162.43 108.71 161.80 109.49 161.90 110.36 C 161.99 111.23 162.76 111.86 163.63 111.77 Z M 164.63 111.66 L 165.67 111.57 C 166.54 111.50 167.19 110.73 167.11 109.86 C 167.04 108.99 166.27 108.35 165.40 108.42 L 164.36 108.51 C 163.49 108.58 162.85 109.35 162.92 110.22 C 163.00 111.09 163.76 111.74 164.63 111.66 Z M 165.65 111.57 L 166.70 111.50 C 167.57 111.44 168.22 110.68 168.16 109.81 C 168.10 108.94 167.35 108.28 166.47 108.35 L 165.43 108.42 C 164.55 108.48 163.90 109.24 163.96 110.11 C 164.02 110.98 164.78 111.63 165.65 111.57 Z M 166.67 111.50 L 167.71 111.44 C 168.58 111.39 169.25 110.65 169.20 109.78 C 169.15 108.91 168.41 108.24 167.54 108.29 L 166.50 108.34 C 165.63 108.39 164.96 109.14 165.01 110.01 C 165.06 110.88 165.80 111.55 166.67 111.50 Z M 167.69 111.44 L 168.69 111.40 C 169.56 111.37 170.24 110.63 170.20 109.76 C 170.17 108.89 169.43 108.21 168.56 108.25 L 167.56 108.29 C 166.69 108.32 166.01 109.06 166.05 109.93 C 166.08 110.80 166.81 111.48 167.69 111.44 Z M 168.66 111.40 L 169.61 111.38 C 170.48 111.36 171.17 110.63 171.15 109.76 C 171.13 108.89 170.40 108.20 169.53 108.22 L 168.59 108.25 C 167.72 108.27 167.03 108.99 167.05 109.86 C 167.07 110.73 167.79 111.42 168.66 111.40 Z M 169.58 111.38 L 170.56 111.37 C 171.43 111.37 172.14 110.66 172.13 109.79 C 172.13 108.92 171.42 108.22 170.55 108.22 L 169.56 108.22 C 168.69 108.23 167.99 108.94 167.99 109.81 C 168.00 110.68 168.71 111.38 169.58 111.38 Z M 170.50 111.37 L 171.72 111.41 C 172.59 111.45 173.32 110.77 173.35 109.90 C 173.38 109.03 172.70 108.30 171.83 108.27 L 170.61 108.22 C 169.74 108.19 169.01 108.87 168.98 109.74 C 168.95 110.61 169.63 111.34 170.50 111.37 Z M 171.58 111.40 L 172.58 111.52 C 173.45 111.63 174.23 111.01 174.34 110.15 C 174.44 109.29 173.83 108.50 172.96 108.40 L 171.96 108.28 C 171.10 108.17 170.31 108.79 170.21 109.65 C 170.11 110.51 170.72 111.30 171.58 111.40 Z M 172.36 111.48 L 173.19 111.70 C 174.03 111.93 174.89 111.43 175.12 110.59 C 175.34 109.75 174.85 108.89 174.01 108.67 L 173.18 108.44 C 172.34 108.22 171.48 108.71 171.26 109.55 C 171.03 110.39 171.53 111.25 172.36 111.48 Z M 172.89 111.58 L 173.62 111.96 C 174.40 112.35 175.34 112.04 175.74 111.27 C 176.13 110.50 175.82 109.55 175.05 109.16 L 174.31 108.78 C 173.54 108.39 172.59 108.70 172.20 109.47 C 171.81 110.24 172.11 111.19 172.89 111.58 Z M 173.29 111.73 L 174.02 112.38 C 174.66 112.95 175.66 112.90 176.23 112.25 C 176.81 111.60 176.75 110.61 176.11 110.03 L 175.38 109.39 C 174.73 108.81 173.74 108.87 173.17 109.51 C 172.59 110.16 172.65 111.15 173.29 111.73 Z M 173.75 112.07 L 174.31 112.90 C 174.78 113.62 175.76 113.82 176.48 113.34 C 177.20 112.86 177.40 111.89 176.92 111.17 L 176.37 110.34 C 175.89 109.62 174.91 109.42 174.19 109.90 C 173.47 110.38 173.28 111.35 173.75 112.07 Z M 174.15 112.59 L 174.51 113.54 C 174.82 114.35 175.72 114.76 176.53 114.45 C 177.34 114.14 177.75 113.23 177.44 112.43 L 177.08 111.48 C 176.77 110.67 175.86 110.26 175.05 110.57 C 174.24 110.88 173.84 111.78 174.15 112.59 Z M 174.43 113.26 L 174.59 114.15 C 174.75 115.00 175.56 115.56 176.41 115.41 C 177.27 115.26 177.83 114.44 177.68 113.59 L 177.52 112.70 C 177.36 111.85 176.55 111.29 175.69 111.44 C 174.84 111.60 174.28 112.41 174.43 113.26 Z M 174.57 113.89 L 174.58 114.85 C 174.59 115.71 175.30 116.41 176.17 116.40 C 177.03 116.39 177.72 115.68 177.71 114.81 L 177.70 113.85 C 177.69 112.98 176.98 112.29 176.11 112.30 C 175.25 112.31 174.56 113.02 174.57 113.89 Z M 174.60 114.60 L 174.45 115.64 C 174.32 116.50 174.91 117.29 175.77 117.42 C 176.62 117.55 177.42 116.95 177.54 116.10 L 177.69 115.06 C 177.82 114.20 177.23 113.41 176.37 113.28 C 175.52 113.16 174.72 113.75 174.60 114.60 Z M 174.49 115.43 L 174.19 116.47 C 173.95 117.30 174.42 118.16 175.25 118.41 C 176.08 118.65 176.95 118.18 177.19 117.35 L 177.49 116.31 C 177.74 115.48 177.26 114.61 176.43 114.37 C 175.60 114.13 174.74 114.60 174.49 115.43 Z M 174.24 116.32 L 173.87 117.23 C 173.54 118.03 173.93 118.95 174.73 119.27 C 175.53 119.60 176.44 119.21 176.76 118.41 L 177.14 117.50 C 177.46 116.70 177.08 115.78 176.28 115.46 C 175.48 115.13 174.57 115.52 174.24 116.32 Z M 173.91 117.14 L 173.46 118.07 C 173.09 118.85 173.41 119.78 174.19 120.16 C 174.96 120.53 175.90 120.21 176.27 119.43 L 176.72 118.50 C 177.10 117.73 176.77 116.79 176.00 116.42 C 175.22 116.04 174.29 116.37 173.91 117.14 Z M 173.50 118.00 L 173.00 118.91 C 172.59 119.67 172.87 120.62 173.63 121.03 C 174.39 121.44 175.33 121.16 175.75 120.40 L 176.24 119.50 C 176.65 118.74 176.37 117.79 175.61 117.38 C 174.86 116.97 173.91 117.25 173.50 118.00 Z M 173.03 118.86 L 172.53 119.72 C 172.09 120.46 172.33 121.42 173.07 121.86 C 173.81 122.29 174.77 122.05 175.21 121.31 L 175.72 120.45 C 176.16 119.71 175.91 118.75 175.17 118.31 C 174.43 117.88 173.47 118.12 173.03 118.86 Z M 172.55 119.68 L 172.00 120.56 C 171.54 121.28 171.75 122.25 172.48 122.71 C 173.21 123.17 174.17 122.95 174.63 122.22 L 175.18 121.35 C 175.65 120.62 175.43 119.66 174.70 119.20 C 173.97 118.74 173.01 118.95 172.55 119.68 Z M 172.02 120.52 L 171.44 121.39 C 170.95 122.10 171.14 123.07 171.85 123.55 C 172.57 124.03 173.54 123.84 174.02 123.13 L 174.60 122.26 C 175.09 121.55 174.90 120.58 174.19 120.10 C 173.47 119.62 172.50 119.81 172.02 120.52 Z M 171.46 121.35 L 170.90 122.13 C 170.40 122.83 170.55 123.80 171.25 124.31 C 171.95 124.81 172.92 124.65 173.43 123.95 L 173.99 123.17 C 174.49 122.47 174.33 121.50 173.64 120.99 C 172.94 120.49 171.96 120.65 171.46 121.35 Z M 170.92 122.11 L 170.36 122.85 C 169.84 123.54 169.98 124.52 170.66 125.03 C 171.35 125.55 172.33 125.41 172.84 124.73 L 173.41 123.98 C 173.92 123.29 173.79 122.32 173.10 121.80 C 172.41 121.28 171.44 121.42 170.92 122.11 Z M 170.37 122.84 L 169.78 123.60 C 169.25 124.29 169.38 125.26 170.06 125.79 C 170.74 126.31 171.72 126.18 172.25 125.50 L 172.83 124.74 C 173.36 124.06 173.23 123.08 172.55 122.56 C 171.87 122.03 170.89 122.16 170.37 122.84 Z M 169.79 123.59 L 169.17 124.38 C 168.64 125.05 168.76 126.03 169.44 126.56 C 170.11 127.09 171.09 126.98 171.62 126.30 L 172.24 125.51 C 172.77 124.84 172.65 123.86 171.97 123.33 C 171.30 122.80 170.32 122.92 169.79 123.59 Z M 169.18 124.36 L 168.55 125.15 C 168.01 125.82 168.11 126.80 168.78 127.34 C 169.45 127.88 170.43 127.77 170.97 127.10 L 171.61 126.32 C 172.15 125.65 172.04 124.67 171.37 124.13 C 170.70 123.59 169.72 123.69 169.18 124.36 Z M 168.57 125.12 L 167.92 125.90 C 167.37 126.56 167.45 127.54 168.11 128.09 C 168.77 128.65 169.75 128.56 170.31 127.90 L 170.96 127.13 C 171.51 126.47 171.42 125.48 170.76 124.93 C 170.10 124.38 169.12 124.47 168.57 125.12 Z M 167.94 125.87 L 167.27 126.63 C 166.71 127.27 166.77 128.26 167.41 128.83 C 168.06 129.40 169.04 129.33 169.61 128.69 L 170.28 127.93 C 170.85 127.28 170.79 126.30 170.14 125.73 C 169.50 125.16 168.51 125.22 167.94 125.87 Z M 167.30 126.60 L 166.62 127.34 C 166.04 127.97 166.08 128.96 166.71 129.54 C 167.34 130.12 168.33 130.08 168.91 129.45 L 169.59 128.72 C 170.17 128.08 170.13 127.10 169.50 126.51 C 168.87 125.93 167.88 125.97 167.30 126.60 Z M 166.64 127.31 L 165.95 128.03 C 165.36 128.65 165.38 129.64 166.00 130.23 C 166.62 130.83 167.60 130.81 168.20 130.19 L 168.89 129.47 C 169.49 128.85 169.47 127.87 168.84 127.27 C 168.22 126.67 167.24 126.69 166.64 127.31 Z M 165.97 128.01 L 165.27 128.72 C 164.66 129.33 164.66 130.32 165.28 130.92 C 165.89 131.53 166.87 131.53 167.48 130.92 L 168.18 130.21 C 168.79 129.60 168.79 128.61 168.18 128.00 C 167.56 127.40 166.58 127.40 165.97 128.01 Z M 165.28 128.70 L 164.57 129.40 C 163.95 130.01 163.94 131.00 164.54 131.61 C 165.15 132.23 166.13 132.24 166.75 131.63 L 167.47 130.93 C 168.08 130.33 168.09 129.34 167.49 128.72 C 166.89 128.11 165.90 128.10 165.28 128.70 Z M 164.58 129.39 L 163.85 130.08 C 163.23 130.68 163.21 131.67 163.81 132.29 C 164.40 132.92 165.39 132.94 166.02 132.34 L 166.74 131.65 C 167.36 131.05 167.39 130.06 166.79 129.44 C 166.19 128.81 165.20 128.79 164.58 129.39 Z M 163.86 130.07 L 163.14 130.75 C 162.51 131.34 162.47 132.33 163.07 132.96 C 163.66 133.60 164.65 133.63 165.28 133.04 L 166.01 132.35 C 166.64 131.76 166.67 130.77 166.08 130.14 C 165.49 129.51 164.49 129.48 163.86 130.07 Z M 163.14 130.74 L 162.40 131.43 C 161.76 132.01 161.72 133.01 162.31 133.64 C 162.90 134.28 163.89 134.32 164.53 133.73 L 165.27 133.05 C 165.91 132.46 165.95 131.47 165.36 130.83 C 164.77 130.19 163.78 130.15 163.14 130.74 Z M 162.41 131.42 L 161.66 132.10 C 161.01 132.68 160.97 133.68 161.55 134.32 C 162.14 134.96 163.13 135.01 163.77 134.42 L 164.52 133.74 C 165.16 133.16 165.21 132.16 164.63 131.52 C 164.04 130.88 163.05 130.83 162.41 131.42 Z M 161.66 132.09 L 160.92 132.76 C 160.27 133.34 160.22 134.34 160.81 134.98 C 161.39 135.63 162.38 135.68 163.03 135.10 L 163.77 134.43 C 164.42 133.85 164.47 132.85 163.88 132.21 C 163.30 131.56 162.31 131.51 161.66 132.09 Z M 160.92 132.75 L 160.20 133.40 C 159.55 133.98 159.50 134.98 160.08 135.63 C 160.66 136.28 161.66 136.33 162.31 135.75 L 163.03 135.10 C 163.68 134.52 163.73 133.52 163.15 132.88 C 162.57 132.23 161.57 132.17 160.92 132.75 Z M 160.20 133.39 L 159.52 134.00 C 158.87 134.58 158.81 135.58 159.39 136.23 C 159.98 136.89 160.98 136.94 161.63 136.36 L 162.31 135.76 C 162.97 135.17 163.02 134.17 162.44 133.52 C 161.86 132.86 160.86 132.81 160.20 133.39 Z M 159.52 133.98 L 158.81 134.61 C 158.15 135.19 158.08 136.20 158.66 136.86 C 159.25 137.52 160.25 137.59 160.91 137.00 L 161.63 136.38 C 162.29 135.79 162.35 134.79 161.77 134.13 C 161.19 133.47 160.19 133.40 159.52 133.98 Z M 158.81 134.60 L 158.02 135.28 C 157.35 135.86 157.27 136.87 157.85 137.54 C 158.43 138.21 159.44 138.29 160.11 137.71 L 160.91 137.02 C 161.58 136.44 161.65 135.43 161.07 134.76 C 160.50 134.09 159.48 134.02 158.81 134.60 Z M 158.02 135.27 L 157.23 135.94 C 156.56 136.51 156.47 137.53 157.05 138.21 C 157.62 138.88 158.64 138.97 159.32 138.39 L 160.11 137.72 C 160.78 137.15 160.87 136.13 160.29 135.45 C 159.72 134.78 158.70 134.69 158.02 135.27 Z M 157.24 135.92 L 156.53 136.51 C 155.85 137.08 155.75 138.10 156.32 138.79 C 156.89 139.48 157.91 139.57 158.60 139.00 L 159.31 138.41 C 160.00 137.84 160.09 136.82 159.52 136.13 C 158.95 135.44 157.93 135.35 157.24 135.92 Z M 156.55 136.49 L 155.78 137.11 C 155.08 137.68 154.97 138.70 155.54 139.40 C 156.10 140.09 157.12 140.20 157.82 139.64 L 158.58 139.02 C 159.28 138.45 159.39 137.43 158.83 136.74 C 158.26 136.04 157.24 135.93 156.55 136.49 Z M 155.80 137.09 L 154.98 137.73 C 154.27 138.28 154.15 139.30 154.70 140.01 C 155.25 140.72 156.27 140.85 156.98 140.29 L 157.80 139.66 C 158.51 139.11 158.63 138.09 158.08 137.38 C 157.53 136.67 156.51 136.54 155.80 137.09 Z M 155.01 137.70 L 154.16 138.33 C 153.44 138.86 153.28 139.89 153.82 140.61 C 154.36 141.34 155.38 141.49 156.10 140.95 L 156.95 140.32 C 157.68 139.79 157.83 138.76 157.29 138.04 C 156.76 137.31 155.73 137.16 155.01 137.70 Z M 154.20 138.29 L 153.29 138.92 C 152.55 139.44 152.36 140.46 152.88 141.20 C 153.40 141.95 154.42 142.13 155.16 141.61 L 156.07 140.99 C 156.81 140.47 156.99 139.45 156.48 138.71 C 155.96 137.96 154.94 137.78 154.20 138.29 Z M 153.34 138.87 L 152.21 139.59 C 151.44 140.08 151.21 141.10 151.70 141.87 C 152.19 142.64 153.21 142.87 153.98 142.38 L 155.11 141.66 C 155.88 141.18 156.11 140.16 155.62 139.39 C 155.13 138.62 154.11 138.39 153.34 138.87 Z M 152.29 139.53 L 151.26 140.09 C 150.45 140.54 150.16 141.55 150.61 142.36 C 151.05 143.16 152.06 143.46 152.87 143.01 L 153.90 142.44 C 154.71 142.00 155.00 140.99 154.55 140.18 C 154.11 139.37 153.10 139.08 152.29 139.53 Z M 151.41 140.00 L 150.59 140.35 C 149.74 140.71 149.33 141.69 149.69 142.55 C 150.05 143.40 151.04 143.81 151.89 143.45 L 152.71 143.10 C 153.57 142.74 153.97 141.76 153.61 140.90 C 153.26 140.05 152.27 139.64 151.41 140.00 Z M 151.09 140.21 L 150.59 140.25 C 149.66 140.33 148.97 141.16 149.05 142.09 C 149.13 143.03 149.96 143.72 150.89 143.63 L 151.39 143.59 C 152.33 143.51 153.02 142.68 152.93 141.75 C 152.85 140.81 152.03 140.12 151.09 140.21 Z M 152.43 141.66 L 152.36 141.21 C 152.21 140.28 151.32 139.64 150.39 139.80 C 149.46 139.95 148.82 140.83 148.97 141.77 L 149.05 142.22 C 149.20 143.15 150.08 143.79 151.02 143.63 C 151.95 143.48 152.59 142.60 152.43 141.66 Z M 152.26 142.18 L 152.65 141.28 C 153.03 140.40 152.63 139.38 151.75 138.99 C 150.87 138.61 149.85 139.01 149.47 139.89 L 149.08 140.80 C 148.69 141.68 149.10 142.70 149.98 143.08 C 150.85 143.46 151.88 143.06 152.26 142.18 Z M 152.62 141.39 L 153.23 140.22 C 153.67 139.36 153.34 138.30 152.48 137.85 C 151.61 137.40 150.55 137.74 150.11 138.60 L 149.50 139.78 C 149.05 140.64 149.39 141.70 150.25 142.15 C 151.11 142.59 152.17 142.26 152.62 141.39 Z M 153.27 140.17 L 153.74 139.17 C 154.16 138.29 153.79 137.23 152.90 136.81 C 152.02 136.39 150.96 136.77 150.55 137.65 L 150.07 138.65 C 149.65 139.53 150.03 140.59 150.91 141.01 C 151.79 141.43 152.85 141.05 153.27 140.17 Z M 153.77 139.10 L 154.18 138.15 C 154.57 137.25 154.15 136.21 153.25 135.82 C 152.35 135.44 151.31 135.86 150.92 136.76 L 150.51 137.71 C 150.13 138.61 150.55 139.66 151.45 140.04 C 152.35 140.42 153.39 140.00 153.77 139.10 Z M 154.20 138.11 L 154.57 137.17 C 154.93 136.26 154.49 135.23 153.58 134.87 C 152.67 134.51 151.64 134.95 151.28 135.86 L 150.90 136.80 C 150.54 137.71 150.99 138.74 151.90 139.10 C 152.81 139.46 153.84 139.02 154.20 138.11 Z M 154.58 137.15 L 154.93 136.26 C 155.28 135.34 154.82 134.32 153.91 133.96 C 152.99 133.61 151.97 134.07 151.61 134.98 L 151.27 135.88 C 150.92 136.79 151.37 137.82 152.29 138.17 C 153.20 138.52 154.23 138.07 154.58 137.15 Z M 154.92 136.26 L 155.30 135.30 C 155.65 134.39 155.21 133.36 154.30 133.00 C 153.39 132.65 152.36 133.10 152.00 134.01 L 151.62 134.97 C 151.27 135.88 151.71 136.91 152.62 137.27 C 153.53 137.62 154.56 137.17 154.92 136.26 Z M 155.25 135.38 L 155.68 134.42 C 156.08 133.53 155.69 132.49 154.81 132.09 C 153.93 131.69 152.89 132.08 152.49 132.97 L 152.05 133.93 C 151.65 134.81 152.04 135.85 152.92 136.25 C 153.81 136.65 154.85 136.26 155.25 135.38 Z M 155.54 134.62 L 156.05 133.84 C 156.56 133.03 156.33 131.96 155.52 131.45 C 154.72 130.93 153.65 131.17 153.13 131.97 L 152.63 132.76 C 152.11 133.56 152.35 134.63 153.15 135.15 C 153.96 135.66 155.03 135.43 155.54 134.62 Z M 155.76 134.15 L 156.39 133.57 C 157.08 132.92 157.11 131.84 156.46 131.15 C 155.82 130.46 154.74 130.42 154.05 131.07 L 153.42 131.66 C 152.73 132.30 152.70 133.39 153.34 134.07 C 153.99 134.76 155.07 134.80 155.76 134.15 Z M 155.99 133.83 L 156.76 133.43 C 157.59 133.01 157.92 131.99 157.50 131.15 C 157.07 130.32 156.05 129.99 155.22 130.41 L 154.44 130.81 C 153.61 131.24 153.28 132.26 153.71 133.09 C 154.13 133.92 155.15 134.25 155.99 133.83 Z M 156.41 133.55 L 157.37 133.30 C 158.27 133.06 158.81 132.15 158.58 131.25 C 158.34 130.35 157.42 129.81 156.52 130.05 L 155.56 130.30 C 154.66 130.53 154.13 131.45 154.36 132.35 C 154.60 133.25 155.51 133.79 156.41 133.55 Z M 157.14 133.33 L 158.31 133.20 C 159.23 133.09 159.88 132.27 159.78 131.35 C 159.67 130.44 158.85 129.78 157.93 129.88 L 156.76 130.02 C 155.84 130.12 155.19 130.95 155.29 131.86 C 155.40 132.78 156.22 133.43 157.14 133.33 Z M 158.19 133.20 L 159.08 133.16 C 159.99 133.12 160.71 132.35 160.67 131.44 C 160.63 130.52 159.86 129.81 158.95 129.85 L 158.06 129.88 C 157.14 129.92 156.43 130.69 156.47 131.60 C 156.50 132.52 157.27 133.23 158.19 133.20 Z M 159.02 133.15 L 159.97 133.15 C 160.88 133.15 161.62 132.41 161.61 131.50 C 161.61 130.59 160.87 129.85 159.96 129.85 L 159.01 129.85 C 158.10 129.86 157.36 130.60 157.36 131.51 C 157.36 132.42 158.11 133.16 159.02 133.15 Z M 159.93 133.14 L 160.94 133.17 C 161.85 133.19 162.60 132.47 162.62 131.56 C 162.64 130.65 161.92 129.90 161.01 129.88 L 160.00 129.86 C 159.09 129.84 158.34 130.56 158.32 131.47 C 158.30 132.37 159.02 133.13 159.93 133.14 Z M 160.92 133.16 L 161.97 133.20 C 162.87 133.23 163.63 132.52 163.66 131.62 C 163.70 130.72 162.99 129.96 162.09 129.93 L 161.03 129.89 C 160.13 129.85 159.37 130.56 159.34 131.46 C 159.31 132.37 160.01 133.13 160.92 133.16 Z M 161.96 133.19 L 163.03 133.24 C 163.93 133.28 164.69 132.58 164.73 131.68 C 164.77 130.78 164.08 130.02 163.18 129.98 L 162.10 129.93 C 161.20 129.89 160.44 130.59 160.40 131.49 C 160.36 132.39 161.06 133.15 161.96 133.19 Z M 163.03 133.23 L 163.35 133.25 C 164.24 133.29 165.00 132.60 165.05 131.70 C 165.09 130.80 164.39 130.04 163.50 130.00 L 163.18 129.99 C 162.28 129.94 161.52 130.64 161.48 131.53 C 161.44 132.43 162.13 133.19 163.03 133.23 Z"
      fill="black"
      fill-rule="nonzero" /><path d="M 154.82 140.83 L 154.43 141.78 C 154.11 142.59 154.50 143.50 155.30 143.83 C 156.11 144.15 157.02 143.77 157.35 142.96 L 157.74 142.00 C 158.06 141.20 157.67 140.28 156.87 139.96 C 156.06 139.63 155.15 140.02 154.82 140.83 Z M 154.40 141.81 L 154.04 142.76 C 153.73 143.58 154.14 144.50 154.97 144.81 C 155.79 145.12 156.71 144.71 157.02 143.89 L 157.38 142.94 C 157.69 142.12 157.28 141.20 156.46 140.88 C 155.63 140.57 154.72 140.99 154.40 141.81 Z M 154.00 142.82 L 153.69 143.75 C 153.41 144.60 153.87 145.51 154.71 145.79 C 155.56 146.07 156.47 145.61 156.75 144.76 L 157.06 143.83 C 157.34 142.98 156.88 142.07 156.04 141.79 C 155.19 141.52 154.28 141.97 154.00 142.82 Z M 153.64 143.86 L 153.41 144.76 C 153.19 145.63 153.72 146.51 154.59 146.73 C 155.46 146.96 156.34 146.43 156.57 145.56 L 156.80 144.66 C 157.02 143.79 156.49 142.91 155.62 142.68 C 154.75 142.46 153.87 142.98 153.64 143.86 Z M 153.38 144.89 L 153.23 145.76 C 153.09 146.65 153.69 147.49 154.58 147.64 C 155.47 147.79 156.31 147.19 156.46 146.29 L 156.60 145.43 C 156.75 144.53 156.15 143.69 155.26 143.54 C 154.37 143.40 153.52 144.00 153.38 144.89 Z M 153.21 145.88 L 153.13 146.81 C 153.05 147.71 153.71 148.51 154.61 148.59 C 155.52 148.68 156.31 148.01 156.40 147.11 L 156.48 146.18 C 156.56 145.27 155.90 144.48 155.00 144.39 C 154.09 144.31 153.30 144.98 153.21 145.88 Z M 153.12 146.89 L 153.07 147.95 C 153.03 148.86 153.73 149.63 154.64 149.67 C 155.55 149.71 156.31 149.01 156.36 148.10 L 156.40 147.04 C 156.45 146.13 155.74 145.36 154.84 145.32 C 153.93 145.28 153.16 145.98 153.12 146.89 Z M 153.06 147.98 L 153.03 149.07 C 153.01 149.98 153.73 150.74 154.64 150.76 C 155.55 150.79 156.31 150.07 156.33 149.16 L 156.36 148.08 C 156.39 147.16 155.67 146.41 154.76 146.38 C 153.85 146.36 153.09 147.07 153.06 147.98 Z M 153.03 149.08 L 153.01 149.98 C 152.99 150.90 153.71 151.65 154.62 151.67 C 155.53 151.70 156.29 150.97 156.31 150.06 L 156.33 149.16 C 156.36 148.24 155.63 147.49 154.72 147.47 C 153.81 147.44 153.05 148.16 153.03 149.08 Z M 153.01 149.98 L 152.99 150.96 C 152.96 151.88 153.69 152.63 154.60 152.65 C 155.51 152.67 156.27 151.95 156.29 151.04 L 156.31 150.06 C 156.33 149.15 155.61 148.39 154.70 148.37 C 153.79 148.35 153.03 149.07 153.01 149.98 Z M 152.98 150.96 L 152.96 151.99 C 152.94 152.90 153.66 153.66 154.58 153.68 C 155.49 153.70 156.25 152.98 156.27 152.07 L 156.29 151.04 C 156.31 150.13 155.59 149.37 154.68 149.35 C 153.76 149.33 153.01 150.05 152.98 150.96 Z M 152.96 151.99 L 152.93 153.04 C 152.91 153.95 153.63 154.71 154.55 154.74 C 155.46 154.76 156.22 154.04 156.24 153.12 L 156.27 152.07 C 156.29 151.15 155.57 150.39 154.66 150.37 C 153.74 150.35 152.98 151.07 152.96 151.99 Z M 152.93 153.04 L 152.90 154.09 C 152.88 155.01 153.60 155.77 154.52 155.79 C 155.43 155.82 156.19 155.10 156.22 154.18 L 156.25 153.12 C 156.27 152.21 155.55 151.45 154.63 151.42 C 153.72 151.40 152.96 152.12 152.93 153.04 Z M 152.90 154.09 L 152.87 155.11 C 152.84 156.03 153.56 156.79 154.48 156.82 C 155.40 156.85 156.16 156.13 156.19 155.21 L 156.22 154.19 C 156.25 153.27 155.53 152.51 154.61 152.48 C 153.69 152.45 152.93 153.17 152.90 154.09 Z M 152.87 155.10 L 152.84 156.04 C 152.81 156.95 153.52 157.72 154.44 157.75 C 155.36 157.78 156.12 157.07 156.16 156.15 L 156.19 155.22 C 156.22 154.30 155.50 153.53 154.59 153.50 C 153.67 153.47 152.90 154.19 152.87 155.10 Z M 152.84 156.03 L 152.80 156.96 C 152.77 157.87 153.48 158.65 154.40 158.68 C 155.31 158.72 156.08 158.00 156.12 157.09 L 156.16 156.16 C 156.19 155.24 155.48 154.47 154.56 154.44 C 153.65 154.40 152.88 155.11 152.84 156.03 Z M 152.80 156.95 L 152.76 157.89 C 152.72 158.81 153.43 159.58 154.35 159.62 C 155.26 159.66 156.04 158.95 156.08 158.04 L 156.12 157.09 C 156.16 156.18 155.45 155.40 154.53 155.36 C 153.62 155.33 152.84 156.04 152.80 156.95 Z M 152.76 157.89 L 152.72 158.86 C 152.67 159.78 153.38 160.56 154.29 160.60 C 155.21 160.65 155.99 159.94 156.03 159.02 L 156.08 158.05 C 156.12 157.13 155.42 156.35 154.50 156.31 C 153.58 156.26 152.81 156.97 152.76 157.89 Z M 152.72 158.86 L 152.66 159.89 C 152.62 160.81 153.32 161.59 154.23 161.63 C 155.15 161.68 155.93 160.98 155.98 160.06 L 156.03 159.03 C 156.08 158.11 155.37 157.33 154.46 157.29 C 153.54 157.24 152.76 157.94 152.72 158.86 Z M 152.66 159.89 L 152.60 160.99 C 152.55 161.91 153.25 162.69 154.17 162.74 C 155.08 162.79 155.87 162.09 155.92 161.17 L 155.98 160.07 C 156.03 159.15 155.33 158.37 154.41 158.32 C 153.50 158.27 152.71 158.97 152.66 159.89 Z M 152.60 160.99 L 152.54 162.03 C 152.49 162.94 153.19 163.73 154.10 163.78 C 155.02 163.83 155.80 163.14 155.85 162.22 L 155.92 161.18 C 155.97 160.26 155.27 159.48 154.35 159.43 C 153.44 159.37 152.66 160.07 152.60 160.99 Z M 152.55 162.03 L 152.49 162.99 C 152.43 163.91 153.13 164.69 154.04 164.74 C 154.96 164.80 155.74 164.10 155.80 163.19 L 155.85 162.22 C 155.91 161.31 155.21 160.52 154.30 160.47 C 153.38 160.42 152.60 161.11 152.55 162.03 Z M 152.49 162.99 L 152.43 163.99 C 152.38 164.91 153.07 165.69 153.98 165.74 C 154.90 165.80 155.68 165.10 155.73 164.19 L 155.79 163.19 C 155.85 162.28 155.15 161.49 154.24 161.44 C 153.33 161.38 152.54 162.08 152.49 162.99 Z M 152.43 164.00 L 152.37 165.02 C 152.32 165.94 153.01 166.72 153.92 166.77 C 154.83 166.83 155.62 166.13 155.67 165.22 L 155.73 164.19 C 155.79 163.28 155.09 162.50 154.18 162.44 C 153.27 162.39 152.49 163.08 152.43 164.00 Z M 152.37 165.03 L 152.31 166.07 C 152.26 166.98 152.95 167.76 153.86 167.81 C 154.77 167.86 155.55 167.17 155.61 166.26 L 155.67 165.22 C 155.72 164.31 155.03 163.53 154.12 163.48 C 153.21 163.42 152.43 164.12 152.37 165.03 Z M 152.32 166.07 L 152.26 167.11 C 152.21 168.02 152.90 168.80 153.81 168.85 C 154.72 168.90 155.49 168.20 155.55 167.30 L 155.60 166.26 C 155.66 165.35 154.96 164.57 154.05 164.52 C 153.15 164.47 152.37 165.16 152.32 166.07 Z M 152.26 167.11 L 152.20 168.14 C 152.16 169.04 152.85 169.82 153.76 169.87 C 154.66 169.92 155.44 169.22 155.49 168.31 L 155.54 167.29 C 155.59 166.38 154.90 165.61 153.99 165.56 C 153.08 165.51 152.31 166.21 152.26 167.11 Z M 152.21 168.14 L 152.16 169.14 C 152.11 170.04 152.81 170.81 153.71 170.86 C 154.62 170.91 155.39 170.21 155.44 169.30 L 155.49 168.31 C 155.53 167.40 154.83 166.63 153.93 166.59 C 153.02 166.54 152.25 167.24 152.21 168.14 Z M 152.16 169.15 L 152.11 170.10 C 152.07 171.00 152.77 171.77 153.68 171.81 C 154.58 171.85 155.35 171.15 155.39 170.25 L 155.43 169.30 C 155.48 168.39 154.78 167.62 153.87 167.58 C 152.97 167.54 152.20 168.24 152.16 169.15 Z M 152.12 170.11 L 152.07 171.43 C 152.04 172.33 152.74 173.09 153.64 173.12 C 154.54 173.15 155.30 172.45 155.33 171.55 L 155.38 170.23 C 155.41 169.33 154.71 168.58 153.81 168.54 C 152.91 168.51 152.16 169.21 152.12 170.11 Z M 152.09 171.46 L 152.07 172.76 C 152.06 173.65 152.76 174.38 153.65 174.40 C 154.54 174.41 155.28 173.70 155.29 172.82 L 155.31 171.52 C 155.33 170.63 154.62 169.90 153.73 169.88 C 152.84 169.87 152.11 170.57 152.09 171.46 Z M 152.09 172.83 L 152.12 173.92 C 152.14 174.80 152.87 175.49 153.74 175.47 C 154.62 175.45 155.32 174.72 155.30 173.84 L 155.27 172.75 C 155.25 171.87 154.52 171.18 153.64 171.20 C 152.77 171.22 152.07 171.95 152.09 172.83 Z M 152.15 174.04 L 152.23 174.91 C 152.32 175.77 153.09 176.39 153.95 176.31 C 154.81 176.22 155.44 175.45 155.35 174.59 L 155.27 173.72 C 155.18 172.86 154.41 172.23 153.55 172.32 C 152.69 172.41 152.06 173.18 152.15 174.04 Z M 152.30 175.14 L 152.46 175.76 C 152.68 176.59 153.52 177.08 154.35 176.87 C 155.17 176.65 155.67 175.81 155.45 174.98 L 155.29 174.36 C 155.07 173.53 154.23 173.04 153.40 173.25 C 152.58 173.47 152.08 174.31 152.30 175.14 Z M 152.81 176.38 L 153.18 176.81 C 153.74 177.44 154.71 177.50 155.34 176.94 C 155.97 176.39 156.04 175.42 155.48 174.78 L 155.11 174.36 C 154.55 173.73 153.58 173.66 152.94 174.22 C 152.31 174.78 152.25 175.75 152.81 176.38 Z M 154.70 177.28 L 155.39 177.10 C 156.21 176.90 156.71 176.07 156.50 175.25 C 156.30 174.43 155.47 173.93 154.65 174.14 L 153.96 174.31 C 153.14 174.52 152.64 175.35 152.85 176.17 C 153.05 176.99 153.88 177.48 154.70 177.28 Z M 156.14 176.67 L 156.93 175.83 C 157.51 175.21 157.49 174.24 156.87 173.66 C 156.25 173.08 155.28 173.11 154.70 173.72 L 153.90 174.57 C 153.32 175.18 153.35 176.15 153.97 176.74 C 154.58 177.32 155.55 177.29 156.14 176.67 Z M 157.13 175.57 L 157.70 174.62 C 158.13 173.90 157.90 172.96 157.17 172.52 C 156.45 172.09 155.50 172.32 155.07 173.05 L 154.50 173.99 C 154.07 174.71 154.30 175.65 155.03 176.09 C 155.75 176.53 156.69 176.29 157.13 175.57 Z M 157.76 174.48 L 158.14 173.66 C 158.50 172.90 158.17 171.99 157.41 171.64 C 156.65 171.28 155.75 171.61 155.39 172.37 L 155.01 173.19 C 154.65 173.95 154.98 174.85 155.74 175.21 C 156.50 175.56 157.40 175.24 157.76 174.48 Z M 158.16 173.57 L 158.52 172.66 C 158.83 171.89 158.46 171.02 157.70 170.71 C 156.93 170.40 156.06 170.77 155.75 171.54 L 155.38 172.45 C 155.07 173.22 155.44 174.09 156.21 174.40 C 156.98 174.71 157.85 174.34 158.16 173.57 Z M 158.53 172.60 L 158.88 171.63 C 159.16 170.86 158.76 170.01 157.99 169.73 C 157.22 169.46 156.38 169.85 156.10 170.62 L 155.75 171.60 C 155.47 172.37 155.87 173.21 156.63 173.49 C 157.40 173.77 158.25 173.37 158.53 172.60 Z M 158.87 171.59 L 159.21 170.57 C 159.47 169.81 159.06 168.98 158.30 168.72 C 157.54 168.47 156.71 168.87 156.45 169.64 L 156.11 170.66 C 155.85 171.42 156.26 172.25 157.02 172.50 C 157.79 172.76 158.61 172.35 158.87 171.59 Z M 159.20 170.55 L 159.50 169.64 C 159.75 168.89 159.33 168.07 158.58 167.83 C 157.82 167.58 157.01 167.99 156.76 168.75 L 156.46 169.66 C 156.22 170.41 156.63 171.22 157.39 171.47 C 158.14 171.72 158.95 171.31 159.20 170.55 Z"
      fill="black"
      fill-rule="nonzero" /><path d="M 162.04 159.42 L 162.05 158.27 C 162.06 157.42 161.38 156.73 160.53 156.73 C 159.69 156.72 159.00 157.40 158.99 158.24 L 158.98 159.39 C 158.98 160.24 159.65 160.93 160.50 160.93 C 161.34 160.94 162.03 160.26 162.04 159.42 Z M 162.07 158.35 L 162.14 157.27 C 162.19 156.42 161.54 155.68 160.68 155.63 C 159.83 155.57 159.09 156.23 159.04 157.08 L 158.97 158.16 C 158.92 159.02 159.57 159.75 160.43 159.81 C 161.28 159.86 162.02 159.21 162.07 158.35 Z M 162.14 157.48 L 162.32 156.55 C 162.48 155.69 161.92 154.86 161.06 154.70 C 160.21 154.53 159.38 155.09 159.22 155.95 L 159.04 156.88 C 158.87 157.74 159.43 158.56 160.29 158.73 C 161.14 158.89 161.97 158.33 162.14 157.48 Z M 162.20 156.95 L 162.55 156.24 C 162.94 155.45 162.62 154.49 161.82 154.10 C 161.03 153.71 160.07 154.03 159.68 154.83 L 159.33 155.54 C 158.94 156.33 159.27 157.29 160.06 157.69 C 160.85 158.08 161.81 157.75 162.20 156.95 Z M 162.06 156.84 L 162.78 156.33 C 163.50 155.81 163.66 154.80 163.14 154.07 C 162.62 153.35 161.61 153.19 160.89 153.71 L 160.17 154.22 C 159.45 154.75 159.29 155.75 159.81 156.48 C 160.33 157.20 161.34 157.37 162.06 156.84 Z M 162.21 156.59 L 163.16 156.36 C 164.02 156.16 164.56 155.29 164.35 154.42 C 164.15 153.55 163.28 153.01 162.41 153.22 L 161.46 153.45 C 160.59 153.65 160.06 154.52 160.26 155.39 C 160.47 156.26 161.34 156.80 162.21 156.59 Z M 162.92 156.40 L 163.99 156.31 C 164.88 156.24 165.54 155.45 165.46 154.57 C 165.39 153.68 164.61 153.02 163.72 153.09 L 162.65 153.18 C 161.76 153.26 161.10 154.04 161.17 154.93 C 161.25 155.82 162.03 156.48 162.92 156.40 Z M 164.00 156.31 L 164.96 156.22 C 165.85 156.14 166.50 155.36 166.42 154.48 C 166.35 153.59 165.56 152.93 164.68 153.01 L 163.71 153.10 C 162.82 153.17 162.17 153.96 162.25 154.84 C 162.33 155.73 163.11 156.39 164.00 156.31 Z M 165.03 156.21 L 165.98 156.08 C 166.86 155.96 167.47 155.16 167.36 154.28 C 167.24 153.40 166.43 152.78 165.55 152.90 L 164.61 153.03 C 163.73 153.14 163.11 153.95 163.23 154.83 C 163.34 155.71 164.15 156.32 165.03 156.21 Z M 166.05 156.06 L 167.04 155.88 C 167.91 155.73 168.48 154.90 168.33 154.03 C 168.17 153.17 167.34 152.59 166.48 152.74 L 165.48 152.92 C 164.62 153.08 164.04 153.90 164.20 154.77 C 164.35 155.64 165.18 156.22 166.05 156.06 Z M 167.10 155.86 L 168.15 155.63 C 169.01 155.44 169.55 154.59 169.36 153.74 C 169.17 152.88 168.32 152.34 167.47 152.53 L 166.42 152.76 C 165.56 152.95 165.02 153.80 165.21 154.65 C 165.40 155.51 166.24 156.05 167.10 155.86 Z M 168.20 155.61 L 169.07 155.39 C 169.91 155.18 170.42 154.32 170.21 153.47 C 170.00 152.63 169.14 152.12 168.29 152.33 L 167.42 152.55 C 166.58 152.77 166.07 153.62 166.28 154.47 C 166.50 155.31 167.35 155.82 168.20 155.61 Z M 169.10 155.37 L 170.02 155.12 C 170.86 154.89 171.35 154.02 171.12 153.19 C 170.88 152.35 170.02 151.86 169.18 152.09 L 168.26 152.35 C 167.43 152.58 166.94 153.44 167.17 154.28 C 167.40 155.11 168.26 155.60 169.10 155.37 Z M 170.05 155.10 L 171.02 154.81 C 171.84 154.57 172.31 153.70 172.07 152.87 C 171.82 152.04 170.95 151.57 170.13 151.82 L 169.16 152.11 C 168.33 152.35 167.86 153.22 168.11 154.05 C 168.35 154.88 169.22 155.35 170.05 155.10 Z M 171.04 154.80 L 172.05 154.48 C 172.87 154.22 173.32 153.35 173.06 152.53 C 172.80 151.71 171.93 151.26 171.11 151.52 L 170.10 151.84 C 169.28 152.09 168.83 152.97 169.09 153.79 C 169.35 154.60 170.22 155.06 171.04 154.80 Z M 172.07 154.46 L 173.10 154.12 C 173.91 153.85 174.35 152.97 174.08 152.16 C 173.81 151.35 172.93 150.91 172.12 151.19 L 171.09 151.53 C 170.28 151.80 169.84 152.68 170.11 153.49 C 170.38 154.30 171.26 154.74 172.07 154.46 Z M 173.12 154.10 L 174.11 153.76 C 174.91 153.48 175.33 152.60 175.05 151.80 C 174.77 151.00 173.89 150.57 173.09 150.85 L 172.10 151.20 C 171.30 151.48 170.88 152.36 171.16 153.16 C 171.44 153.96 172.32 154.38 173.12 154.10 Z M 174.12 153.74 L 175.11 153.38 C 175.90 153.10 176.31 152.22 176.02 151.43 C 175.74 150.63 174.86 150.22 174.07 150.51 L 173.08 150.87 C 172.29 151.16 171.88 152.03 172.16 152.83 C 172.45 153.62 173.33 154.03 174.12 153.74 Z M 175.12 153.37 L 176.08 153.01 C 176.87 152.72 177.27 151.84 176.98 151.06 C 176.68 150.27 175.81 149.87 175.02 150.16 L 174.06 150.52 C 173.27 150.82 172.87 151.69 173.16 152.48 C 173.46 153.26 174.33 153.66 175.12 153.37 Z M 176.09 153.00 L 177.01 152.65 C 177.79 152.35 178.18 151.48 177.89 150.70 C 177.59 149.92 176.72 149.53 175.94 149.83 L 175.02 150.18 C 174.24 150.47 173.85 151.35 174.14 152.12 C 174.44 152.90 175.31 153.30 176.09 153.00 Z M 177.02 152.64 L 177.87 152.31 C 178.64 152.01 179.03 151.14 178.73 150.37 C 178.43 149.59 177.56 149.21 176.79 149.51 L 175.93 149.84 C 175.16 150.14 174.78 151.01 175.07 151.78 C 175.37 152.55 176.24 152.94 177.02 152.64 Z M 177.88 152.29 L 178.90 151.89 C 179.67 151.59 180.04 150.73 179.74 149.96 C 179.44 149.19 178.58 148.82 177.81 149.12 L 176.79 149.52 C 176.02 149.82 175.64 150.69 175.94 151.45 C 176.24 152.22 177.11 152.59 177.88 152.29 Z M 178.91 151.88 L 179.87 151.49 C 180.63 151.18 180.99 150.32 180.69 149.57 C 180.39 148.81 179.53 148.44 178.77 148.75 L 177.80 149.13 C 177.05 149.44 176.68 150.30 176.98 151.06 C 177.29 151.81 178.15 152.18 178.91 151.88 Z M 179.88 151.47 L 180.74 151.12 C 181.48 150.81 181.84 149.95 181.53 149.20 C 181.22 148.46 180.37 148.10 179.62 148.41 L 178.76 148.77 C 178.01 149.07 177.66 149.93 177.97 150.68 C 178.28 151.42 179.13 151.78 179.88 151.47 Z M 180.75 151.10 L 181.56 150.75 C 182.29 150.44 182.64 149.58 182.32 148.85 C 182.01 148.11 181.15 147.77 180.42 148.08 L 179.61 148.43 C 178.87 148.74 178.53 149.60 178.84 150.33 C 179.16 151.07 180.01 151.41 180.75 151.10 Z M 181.57 150.74 L 182.38 150.38 C 183.11 150.06 183.44 149.21 183.12 148.48 C 182.80 147.75 181.95 147.42 181.22 147.74 L 180.41 148.10 C 179.68 148.42 179.34 149.27 179.67 150.00 C 179.99 150.73 180.84 151.06 181.57 150.74 Z M 182.40 150.37 L 183.26 149.97 C 183.99 149.64 184.30 148.79 183.98 148.07 C 183.65 147.34 182.79 147.02 182.07 147.35 L 181.20 147.75 C 180.48 148.08 180.16 148.93 180.49 149.66 C 180.82 150.38 181.67 150.70 182.40 150.37 Z M 183.28 149.96 L 184.25 149.51 C 184.97 149.17 185.27 148.31 184.94 147.59 C 184.60 146.88 183.74 146.57 183.03 146.91 L 182.05 147.37 C 181.34 147.70 181.03 148.56 181.37 149.28 C 181.70 149.99 182.56 150.30 183.28 149.96 Z M 184.26 149.50 L 185.19 149.05 C 185.90 148.70 186.20 147.85 185.86 147.13 C 185.51 146.42 184.66 146.12 183.94 146.47 L 183.01 146.92 C 182.30 147.26 182.00 148.12 182.35 148.83 C 182.69 149.54 183.55 149.84 184.26 149.50 Z M 185.20 149.04 L 186.02 148.64 C 186.73 148.29 187.02 147.43 186.67 146.73 C 186.33 146.02 185.47 145.72 184.76 146.07 L 183.94 146.47 C 183.23 146.82 182.93 147.68 183.28 148.39 C 183.63 149.10 184.49 149.39 185.20 149.04 Z M 186.02 148.64 L 186.90 148.20 C 187.61 147.85 187.90 146.99 187.55 146.29 C 187.20 145.58 186.34 145.29 185.64 145.64 L 184.76 146.07 C 184.05 146.42 183.76 147.28 184.11 147.99 C 184.46 148.70 185.31 148.99 186.02 148.64 Z M 186.91 148.20 L 187.83 147.74 C 188.54 147.39 188.82 146.53 188.47 145.82 C 188.12 145.12 187.26 144.83 186.56 145.18 L 185.63 145.64 C 184.93 145.99 184.64 146.85 184.99 147.56 C 185.34 148.26 186.20 148.55 186.91 148.20 Z M 187.83 147.74 L 188.78 147.26 C 189.49 146.91 189.77 146.05 189.42 145.35 C 189.07 144.64 188.21 144.36 187.51 144.71 L 186.55 145.18 C 185.85 145.54 185.56 146.39 185.91 147.10 C 186.27 147.80 187.12 148.09 187.83 147.74 Z M 188.78 147.26 L 189.72 146.79 C 190.43 146.44 190.72 145.58 190.36 144.88 C 190.01 144.17 189.15 143.89 188.45 144.24 L 187.51 144.71 C 186.80 145.06 186.52 145.92 186.87 146.62 C 187.22 147.33 188.08 147.61 188.78 147.26 Z"
      fill="black"
      fill-rule="nonzero" /><path d="M 135.44 148.95 L 134.57 149.51 C 133.83 149.98 133.62 150.96 134.09 151.70 C 134.57 152.44 135.55 152.65 136.28 152.17 L 137.16 151.61 C 137.90 151.13 138.11 150.15 137.63 149.42 C 137.16 148.68 136.18 148.47 135.44 148.95 Z M 134.54 149.52 L 133.69 150.09 C 132.97 150.58 132.77 151.57 133.26 152.30 C 133.75 153.02 134.73 153.22 135.46 152.73 L 136.31 152.16 C 137.04 151.67 137.23 150.69 136.74 149.96 C 136.25 149.23 135.27 149.04 134.54 149.52 Z M 133.64 150.13 L 132.85 150.71 C 132.14 151.23 131.98 152.22 132.50 152.93 C 133.02 153.64 134.01 153.79 134.72 153.27 L 135.51 152.69 C 136.22 152.18 136.38 151.18 135.86 150.47 C 135.34 149.77 134.35 149.61 133.64 150.13 Z M 132.76 150.77 L 132.05 151.36 C 131.38 151.93 131.29 152.93 131.85 153.61 C 132.42 154.28 133.42 154.37 134.09 153.81 L 134.80 153.21 C 135.48 152.65 135.57 151.64 135.00 150.97 C 134.44 150.30 133.44 150.21 132.76 150.77 Z M 131.94 151.46 L 131.32 152.08 C 130.69 152.71 130.69 153.72 131.32 154.35 C 131.95 154.97 132.96 154.97 133.58 154.34 L 134.21 153.71 C 134.83 153.09 134.83 152.07 134.20 151.45 C 133.58 150.83 132.56 150.83 131.94 151.46 Z M 131.21 152.18 L 130.61 152.90 C 130.04 153.59 130.14 154.61 130.83 155.18 C 131.51 155.74 132.53 155.65 133.10 154.96 L 133.69 154.24 C 134.26 153.55 134.16 152.53 133.48 151.97 C 132.79 151.40 131.77 151.50 131.21 152.18 Z M 130.53 152.99 L 129.91 153.86 C 129.39 154.59 129.55 155.61 130.29 156.13 C 131.02 156.65 132.03 156.48 132.55 155.75 L 133.18 154.88 C 133.70 154.14 133.53 153.13 132.80 152.61 C 132.07 152.09 131.05 152.26 130.53 152.99 Z M 129.86 153.91 L 129.26 154.82 C 128.77 155.57 128.98 156.59 129.74 157.08 C 130.49 157.58 131.51 157.37 132.00 156.61 L 132.60 155.70 C 133.09 154.95 132.88 153.93 132.13 153.44 C 131.37 152.94 130.36 153.15 129.86 153.91 Z M 129.24 154.84 L 128.72 155.66 C 128.24 156.43 128.47 157.44 129.24 157.93 C 130.00 158.41 131.02 158.19 131.51 157.42 L 132.02 156.59 C 132.51 155.83 132.28 154.81 131.51 154.32 C 130.74 153.84 129.73 154.07 129.24 154.84 Z M 128.71 155.67 L 128.16 156.55 C 127.68 157.32 127.92 158.34 128.70 158.82 C 129.48 159.30 130.49 159.06 130.98 158.29 L 131.52 157.41 C 132.00 156.63 131.76 155.61 130.98 155.13 C 130.21 154.65 129.19 154.89 128.71 155.67 Z M 128.15 156.55 L 127.60 157.45 C 127.12 158.23 127.37 159.26 128.15 159.73 C 128.94 160.21 129.96 159.97 130.44 159.18 L 130.99 158.28 C 131.47 157.50 131.22 156.48 130.44 156.00 C 129.65 155.52 128.63 155.77 128.15 156.55 Z M 127.59 157.45 L 127.06 158.33 C 126.58 159.12 126.83 160.15 127.62 160.63 C 128.41 161.10 129.43 160.85 129.91 160.07 L 130.45 159.18 C 130.92 158.39 130.67 157.37 129.89 156.89 C 129.10 156.41 128.07 156.66 127.59 157.45 Z M 127.05 158.33 L 126.55 159.16 C 126.07 159.95 126.32 160.98 127.11 161.46 C 127.91 161.94 128.94 161.69 129.42 160.90 L 129.92 160.07 C 130.40 159.28 130.14 158.24 129.35 157.77 C 128.56 157.29 127.53 157.54 127.05 158.33 Z M 126.54 159.16 L 125.94 160.15 C 125.46 160.94 125.71 161.98 126.51 162.46 C 127.30 162.94 128.33 162.69 128.82 161.90 L 129.42 160.90 C 129.90 160.11 129.65 159.07 128.86 158.59 C 128.06 158.11 127.03 158.36 126.54 159.16 Z M 125.94 160.14 L 125.39 161.05 C 124.90 161.84 125.15 162.88 125.94 163.36 C 126.74 163.85 127.77 163.60 128.26 162.81 L 128.81 161.90 C 129.30 161.11 129.05 160.07 128.26 159.59 C 127.47 159.10 126.43 159.35 125.94 160.14 Z M 125.39 161.04 L 124.91 161.82 C 124.42 162.61 124.66 163.65 125.45 164.14 C 126.24 164.63 127.28 164.39 127.77 163.60 L 128.26 162.81 C 128.75 162.02 128.50 160.98 127.71 160.49 C 126.92 160.00 125.88 160.25 125.39 161.04 Z M 124.91 161.81 L 124.46 162.53 C 123.96 163.32 124.20 164.36 124.99 164.86 C 125.78 165.35 126.82 165.12 127.31 164.33 L 127.77 163.61 C 128.26 162.82 128.03 161.78 127.24 161.28 C 126.45 160.79 125.41 161.02 124.91 161.81 Z M 124.46 162.52 L 123.93 163.35 C 123.43 164.14 123.66 165.18 124.45 165.68 C 125.23 166.18 126.28 165.95 126.78 165.17 L 127.31 164.34 C 127.81 163.55 127.58 162.51 126.79 162.01 C 126.01 161.50 124.96 161.73 124.46 162.52 Z M 123.94 163.34 L 123.40 164.18 C 122.89 164.96 123.11 166.01 123.90 166.51 C 124.68 167.02 125.73 166.80 126.23 166.01 L 126.78 165.18 C 127.28 164.39 127.06 163.35 126.27 162.84 C 125.49 162.33 124.44 162.56 123.94 163.34 Z M 123.40 164.17 L 122.85 165.01 C 122.34 165.79 122.56 166.84 123.34 167.35 C 124.12 167.86 125.17 167.64 125.68 166.86 L 126.23 166.02 C 126.74 165.24 126.52 164.19 125.74 163.68 C 124.96 163.17 123.91 163.39 123.40 164.17 Z M 122.85 165.00 L 122.31 165.83 C 121.80 166.61 122.01 167.65 122.79 168.17 C 123.57 168.68 124.62 168.47 125.14 167.69 L 125.68 166.87 C 126.19 166.09 125.98 165.04 125.20 164.52 C 124.42 164.01 123.37 164.22 122.85 165.00 Z M 122.32 165.82 L 121.77 166.64 C 121.25 167.42 121.46 168.47 122.23 168.99 C 123.01 169.51 124.06 169.30 124.58 168.52 L 125.13 167.70 C 125.65 166.92 125.44 165.87 124.66 165.35 C 123.89 164.83 122.84 165.04 122.32 165.82 Z M 121.77 166.63 L 121.21 167.46 C 120.68 168.24 120.88 169.29 121.65 169.82 C 122.43 170.34 123.48 170.14 124.01 169.37 L 124.57 168.53 C 125.10 167.76 124.90 166.71 124.13 166.18 C 123.35 165.66 122.30 165.86 121.77 166.63 Z M 121.22 167.45 L 120.64 168.28 C 120.11 169.05 120.30 170.10 121.06 170.63 C 121.83 171.17 122.89 170.98 123.42 170.21 L 124.00 169.38 C 124.53 168.61 124.34 167.56 123.57 167.03 C 122.80 166.49 121.75 166.68 121.22 167.45 Z M 120.65 168.26 L 120.08 169.07 C 119.54 169.83 119.72 170.89 120.48 171.43 C 121.24 171.97 122.30 171.79 122.84 171.03 L 123.41 170.22 C 123.95 169.46 123.77 168.40 123.01 167.86 C 122.25 167.32 121.19 167.50 120.65 168.26 Z M 120.08 169.06 L 119.50 169.88 C 118.96 170.64 119.13 171.70 119.89 172.24 C 120.65 172.78 121.71 172.61 122.25 171.85 L 122.84 171.03 C 123.38 170.27 123.21 169.22 122.45 168.67 C 121.69 168.13 120.63 168.30 120.08 169.06 Z M 119.50 169.88 L 118.91 170.71 C 118.37 171.47 118.54 172.52 119.30 173.07 C 120.06 173.61 121.12 173.43 121.66 172.67 L 122.25 171.85 C 122.80 171.09 122.62 170.03 121.86 169.49 C 121.10 168.94 120.04 169.12 119.50 169.88 Z M 118.91 170.71 L 118.33 171.52 C 117.79 172.28 117.97 173.34 118.73 173.88 C 119.49 174.42 120.55 174.24 121.09 173.48 L 121.67 172.67 C 122.21 171.91 122.03 170.85 121.26 170.31 C 120.50 169.77 119.45 169.95 118.91 170.71 Z M 118.33 171.52 L 117.76 172.34 C 117.22 173.10 117.40 174.15 118.16 174.69 C 118.92 175.23 119.98 175.05 120.52 174.29 L 121.09 173.48 C 121.63 172.72 121.45 171.66 120.69 171.12 C 119.93 170.58 118.87 170.76 118.33 171.52 Z M 117.76 172.33 L 117.18 173.15 C 116.64 173.91 116.81 174.96 117.57 175.50 C 118.33 176.04 119.38 175.87 119.93 175.11 L 120.51 174.29 C 121.05 173.54 120.88 172.48 120.12 171.94 C 119.36 171.40 118.30 171.57 117.76 172.33 Z M 117.19 173.13 L 116.59 173.95 C 116.05 174.70 116.21 175.76 116.96 176.31 C 117.71 176.86 118.77 176.69 119.32 175.94 L 119.91 175.12 C 120.46 174.37 120.30 173.32 119.55 172.77 C 118.79 172.22 117.74 172.38 117.19 173.13 Z M 116.61 173.93 L 116.03 174.71 C 115.47 175.46 115.62 176.51 116.36 177.07 C 117.11 177.63 118.16 177.48 118.72 176.73 L 119.30 175.96 C 119.86 175.21 119.71 174.16 118.97 173.60 C 118.22 173.04 117.17 173.19 116.61 173.93 Z M 116.04 174.70 L 115.44 175.49 C 114.87 176.22 115.01 177.28 115.75 177.84 C 116.49 178.41 117.54 178.27 118.11 177.53 L 118.71 176.75 C 119.27 176.01 119.13 174.95 118.39 174.39 C 117.66 173.82 116.60 173.96 116.04 174.70 Z M 115.44 175.48 L 114.82 176.28 C 114.26 177.01 114.39 178.07 115.12 178.64 C 115.86 179.20 116.91 179.07 117.48 178.34 L 118.10 177.54 C 118.67 176.80 118.53 175.75 117.80 175.18 C 117.07 174.61 116.01 174.75 115.44 175.48 Z M 114.83 176.28 L 114.20 177.09 C 113.63 177.82 113.76 178.88 114.49 179.44 C 115.23 180.01 116.28 179.88 116.85 179.15 L 117.48 178.34 C 118.04 177.60 117.91 176.55 117.18 175.98 C 116.45 175.41 115.40 175.55 114.83 176.28 Z M 114.20 177.10 L 113.58 177.89 C 113.02 178.62 113.15 179.67 113.88 180.24 C 114.61 180.80 115.66 180.67 116.23 179.94 L 116.84 179.14 C 117.41 178.41 117.28 177.36 116.55 176.80 C 115.82 176.23 114.76 176.37 114.20 177.10 Z M 113.59 177.89 L 112.97 178.70 C 112.40 179.42 112.54 180.47 113.26 181.04 C 113.99 181.60 115.04 181.47 115.60 180.74 L 116.22 179.94 C 116.79 179.21 116.66 178.16 115.93 177.60 C 115.20 177.03 114.15 177.17 113.59 177.89 Z M 112.97 178.70 L 112.36 179.49 C 111.79 180.21 111.92 181.26 112.65 181.82 C 113.37 182.39 114.42 182.26 114.98 181.53 L 115.60 180.74 C 116.16 180.01 116.03 178.97 115.31 178.40 C 114.58 177.84 113.54 177.97 112.97 178.70 Z M 112.36 179.49 L 111.76 180.26 C 111.19 180.98 111.32 182.02 112.04 182.59 C 112.76 183.15 113.81 183.02 114.37 182.30 L 114.98 181.53 C 115.54 180.81 115.41 179.77 114.69 179.20 C 113.97 178.64 112.93 178.77 112.36 179.49 Z M 111.77 180.25 L 111.12 181.07 C 110.55 181.79 110.67 182.83 111.39 183.40 C 112.11 183.96 113.15 183.84 113.71 183.13 L 114.36 182.31 C 114.93 181.59 114.81 180.55 114.09 179.98 C 113.38 179.42 112.34 179.54 111.77 180.25 Z M 111.13 181.07 L 110.50 181.86 C 109.94 182.57 110.05 183.61 110.76 184.17 C 111.48 184.74 112.51 184.62 113.08 183.91 L 113.70 183.13 C 114.27 182.42 114.15 181.38 113.44 180.81 C 112.73 180.24 111.70 180.36 111.13 181.07 Z M 110.51 181.86 L 109.90 182.63 C 109.34 183.33 109.45 184.37 110.16 184.93 C 110.87 185.50 111.90 185.38 112.47 184.67 L 113.07 183.91 C 113.64 183.20 113.52 182.16 112.81 181.60 C 112.10 181.04 111.07 181.15 110.51 181.86 Z M 109.90 182.64 L 109.32 183.37 C 108.76 184.08 108.88 185.11 109.59 185.67 C 110.30 186.23 111.33 186.10 111.89 185.40 L 112.47 184.66 C 113.03 183.95 112.90 182.92 112.19 182.36 C 111.49 181.81 110.46 181.93 109.90 182.64 Z M 109.32 183.39 L 108.76 184.10 C 108.21 184.81 108.34 185.83 109.05 186.38 C 109.75 186.94 110.78 186.81 111.33 186.10 L 111.89 185.38 C 112.44 184.67 112.31 183.65 111.60 183.10 C 110.89 182.55 109.87 182.68 109.32 183.39 Z M 108.77 184.11 L 108.18 184.87 C 107.63 185.58 107.76 186.59 108.46 187.14 C 109.17 187.69 110.18 187.56 110.73 186.85 L 111.32 186.09 C 111.87 185.39 111.74 184.37 111.04 183.82 C 110.33 183.28 109.31 183.41 108.77 184.11 Z M 108.19 184.87 L 107.53 185.71 C 106.99 186.41 107.11 187.42 107.81 187.97 C 108.51 188.51 109.52 188.39 110.07 187.69 L 110.72 186.85 C 111.27 186.15 111.14 185.14 110.44 184.60 C 109.74 184.05 108.73 184.17 108.19 184.87 Z M 107.55 185.71 L 106.89 186.54 C 106.34 187.23 106.46 188.24 107.16 188.79 C 107.85 189.33 108.86 189.21 109.40 188.52 L 110.06 187.69 C 110.60 187.00 110.49 185.99 109.79 185.44 C 109.10 184.90 108.09 185.02 107.55 185.71 Z M 106.90 186.54 L 106.32 187.28 C 105.77 187.96 105.88 188.96 106.57 189.51 C 107.26 190.06 108.26 189.95 108.81 189.26 L 109.39 188.52 C 109.94 187.83 109.83 186.83 109.14 186.29 C 108.45 185.74 107.45 185.85 106.90 186.54 Z M 106.33 187.28 L 105.70 188.05 C 105.15 188.74 105.26 189.73 105.95 190.28 C 106.63 190.83 107.62 190.72 108.17 190.04 L 108.80 189.26 C 109.34 188.58 109.23 187.58 108.55 187.03 C 107.87 186.48 106.87 186.59 106.33 187.28 Z M 105.71 188.05 L 105.06 188.85 C 104.51 189.53 104.62 190.52 105.30 191.07 C 105.97 191.62 106.97 191.51 107.51 190.84 L 108.16 190.04 C 108.71 189.36 108.61 188.37 107.93 187.82 C 107.25 187.27 106.26 187.38 105.71 188.05 Z M 105.07 188.85 L 104.41 189.66 C 103.86 190.33 103.96 191.32 104.64 191.87 C 105.31 192.42 106.30 192.32 106.85 191.65 L 107.50 190.84 C 108.05 190.17 107.95 189.18 107.28 188.63 C 106.61 188.08 105.62 188.18 105.07 188.85 Z M 104.42 189.66 L 103.77 190.45 C 103.22 191.12 103.31 192.10 103.98 192.65 C 104.64 193.20 105.63 193.11 106.18 192.44 L 106.83 191.65 C 107.38 190.98 107.29 190.00 106.62 189.45 C 105.96 188.90 104.97 188.99 104.42 189.66 Z M 103.78 190.45 L 103.07 191.31 C 102.52 191.96 102.60 192.94 103.26 193.49 C 103.92 194.04 104.90 193.96 105.45 193.30 L 106.16 192.44 C 106.71 191.79 106.63 190.81 105.97 190.26 C 105.31 189.71 104.33 189.80 103.78 190.45 Z M 103.09 191.30 L 102.39 192.11 C 101.84 192.76 101.91 193.73 102.55 194.28 C 103.20 194.83 104.16 194.76 104.72 194.12 L 105.42 193.31 C 105.97 192.66 105.90 191.69 105.26 191.14 C 104.62 190.59 103.65 190.66 103.09 191.30 Z M 102.43 192.10 L 101.75 192.84 C 101.19 193.47 101.23 194.43 101.86 194.99 C 102.48 195.55 103.44 195.51 104.00 194.89 L 104.68 194.14 C 105.24 193.52 105.20 192.56 104.58 191.99 C 103.96 191.43 102.99 191.47 102.43 192.10 Z M 101.80 192.81 L 101.15 193.48 C 100.57 194.08 100.57 195.03 101.17 195.61 C 101.76 196.19 102.71 196.18 103.29 195.59 L 103.95 194.92 C 104.53 194.32 104.52 193.37 103.93 192.79 C 103.34 192.21 102.38 192.22 101.80 192.81 Z M 101.22 193.44 L 100.58 194.02 C 99.97 194.57 99.93 195.51 100.48 196.12 C 101.03 196.73 101.97 196.77 102.58 196.22 L 103.22 195.64 C 103.83 195.08 103.87 194.14 103.32 193.54 C 102.77 192.93 101.83 192.88 101.22 193.44 Z M 100.69 193.94 L 99.81 194.60 C 99.16 195.09 99.03 196.01 99.52 196.66 C 100.01 197.31 100.93 197.44 101.58 196.96 L 102.46 196.29 C 103.11 195.81 103.24 194.88 102.75 194.23 C 102.27 193.58 101.34 193.45 100.69 193.94 Z M 99.95 194.53 L 99.10 195.04 C 98.41 195.45 98.18 196.35 98.60 197.04 C 99.01 197.73 99.90 197.95 100.60 197.54 L 101.44 197.03 C 102.13 196.62 102.36 195.72 101.95 195.03 C 101.53 194.34 100.64 194.12 99.95 194.53 Z M 99.20 195.00 L 98.37 195.42 C 97.66 195.78 97.37 196.65 97.73 197.36 C 98.09 198.07 98.96 198.35 99.67 197.99 L 100.50 197.58 C 101.21 197.22 101.49 196.35 101.14 195.64 C 100.78 194.93 99.91 194.64 99.20 195.00 Z M 98.40 195.41 L 98.11 195.55 C 97.40 195.89 97.10 196.75 97.44 197.46 C 97.78 198.18 98.63 198.48 99.35 198.14 L 99.63 198.00 C 100.35 197.66 100.65 196.80 100.31 196.09 C 99.97 195.38 99.11 195.07 98.40 195.41 Z"
      fill="black"
      fill-rule="nonzero" /><path d="M 133.71 168.50 L 134.67 168.55 C 135.53 168.59 136.26 167.93 136.30 167.07 C 136.34 166.22 135.68 165.49 134.83 165.44 L 133.87 165.39 C 133.01 165.35 132.28 166.01 132.24 166.87 C 132.19 167.72 132.85 168.45 133.71 168.50 Z M 134.60 168.54 L 135.58 168.64 C 136.43 168.72 137.19 168.09 137.28 167.24 C 137.36 166.38 136.73 165.62 135.88 165.54 L 134.90 165.45 C 134.04 165.37 133.28 165.99 133.20 166.85 C 133.12 167.70 133.74 168.46 134.60 168.54 Z M 135.45 168.62 L 136.47 168.80 C 137.32 168.96 138.13 168.39 138.28 167.55 C 138.43 166.71 137.87 165.90 137.02 165.74 L 136.00 165.56 C 135.16 165.41 134.35 165.97 134.20 166.81 C 134.05 167.66 134.61 168.47 135.45 168.62 Z M 136.33 168.77 L 137.19 169.02 C 138.02 169.25 138.88 168.77 139.11 167.94 C 139.35 167.11 138.86 166.25 138.04 166.02 L 137.17 165.78 C 136.34 165.54 135.48 166.02 135.25 166.85 C 135.02 167.68 135.50 168.54 136.33 168.77 Z M 137.07 168.98 L 137.94 169.30 C 138.75 169.60 139.65 169.19 139.95 168.38 C 140.25 167.57 139.83 166.68 139.03 166.38 L 138.16 166.06 C 137.35 165.76 136.45 166.17 136.15 166.98 C 135.85 167.78 136.27 168.68 137.07 168.98 Z M 137.84 169.26 L 138.76 169.68 C 139.55 170.03 140.48 169.68 140.83 168.90 C 141.19 168.11 140.83 167.18 140.05 166.83 L 139.13 166.41 C 138.34 166.06 137.41 166.41 137.06 167.20 C 136.70 167.98 137.05 168.91 137.84 169.26 Z M 138.68 169.64 L 139.67 170.16 C 140.43 170.56 141.38 170.26 141.78 169.49 C 142.18 168.73 141.88 167.78 141.12 167.38 L 140.13 166.86 C 139.36 166.46 138.42 166.76 138.02 167.53 C 137.62 168.30 137.91 169.24 138.68 169.64 Z M 139.60 170.13 L 140.50 170.65 C 141.26 171.09 142.22 170.83 142.66 170.08 C 143.09 169.33 142.84 168.37 142.08 167.93 L 141.18 167.41 C 140.43 166.97 139.47 167.23 139.03 167.98 C 138.59 168.73 138.85 169.69 139.60 170.13 Z M 140.46 170.64 L 141.31 171.17 C 142.06 171.63 143.03 171.41 143.50 170.66 C 143.96 169.92 143.73 168.94 142.99 168.48 L 142.13 167.95 C 141.39 167.48 140.41 167.71 139.95 168.45 C 139.49 169.20 139.71 170.18 140.46 170.64 Z M 141.27 171.16 L 142.14 171.73 C 142.88 172.21 143.87 172.01 144.35 171.27 C 144.83 170.53 144.63 169.54 143.89 169.06 L 143.03 168.49 C 142.29 168.00 141.30 168.21 140.81 168.95 C 140.33 169.69 140.54 170.68 141.27 171.16 Z M 142.10 171.72 L 142.95 172.30 C 143.69 172.80 144.69 172.62 145.19 171.88 C 145.69 171.15 145.51 170.15 144.77 169.64 L 143.92 169.06 C 143.19 168.56 142.19 168.75 141.69 169.48 C 141.18 170.22 141.37 171.22 142.10 171.72 Z M 142.92 172.29 L 143.73 172.87 C 144.46 173.39 145.47 173.22 145.99 172.49 C 146.51 171.76 146.34 170.75 145.61 170.23 L 144.80 169.65 C 144.07 169.13 143.06 169.30 142.54 170.03 C 142.02 170.76 142.19 171.77 142.92 172.29 Z M 143.70 172.86 L 144.50 173.46 C 145.23 174.00 146.25 173.85 146.79 173.12 C 147.33 172.40 147.18 171.37 146.45 170.83 L 145.64 170.23 C 144.92 169.70 143.89 169.85 143.36 170.57 C 142.82 171.30 142.97 172.32 143.70 172.86 Z M 144.47 173.45 L 145.31 174.10 C 146.03 174.66 147.06 174.53 147.62 173.81 C 148.18 173.09 148.05 172.06 147.33 171.50 L 146.49 170.85 C 145.77 170.29 144.73 170.42 144.18 171.14 C 143.62 171.86 143.75 172.89 144.47 173.45 Z M 145.28 174.09 L 146.05 174.70 C 146.76 175.28 147.80 175.17 148.37 174.46 C 148.94 173.75 148.83 172.71 148.12 172.13 L 147.36 171.51 C 146.65 170.94 145.61 171.05 145.03 171.76 C 144.46 172.47 144.57 173.51 145.28 174.09 Z M 146.02 174.70 L 146.75 175.30 C 147.46 175.89 148.51 175.79 149.09 175.08 C 149.68 174.38 149.58 173.33 148.87 172.74 L 148.15 172.14 C 147.44 171.55 146.39 171.65 145.81 172.36 C 145.22 173.06 145.32 174.11 146.02 174.70 Z M 146.75 175.31 L 147.48 175.92 C 148.19 176.50 149.24 176.41 149.83 175.70 C 150.42 174.99 150.32 173.94 149.61 173.35 L 148.88 172.74 C 148.17 172.15 147.12 172.25 146.53 172.95 C 145.94 173.66 146.04 174.72 146.75 175.31 Z M 147.48 175.92 L 148.23 176.55 C 148.95 177.14 150.01 177.04 150.59 176.32 C 151.18 175.61 151.08 174.55 150.37 173.96 L 149.61 173.34 C 148.90 172.75 147.84 172.85 147.25 173.56 C 146.66 174.28 146.77 175.34 147.48 175.92 Z M 148.23 176.55 L 149.00 177.19 C 149.72 177.78 150.78 177.68 151.37 176.96 C 151.96 176.25 151.86 175.19 151.15 174.60 L 150.37 173.96 C 149.66 173.37 148.60 173.47 148.00 174.18 C 147.41 174.90 147.51 175.96 148.23 176.55 Z M 148.99 177.19 L 149.77 177.84 C 150.49 178.44 151.55 178.34 152.15 177.63 C 152.75 176.91 152.65 175.85 151.94 175.25 L 151.16 174.60 C 150.44 174.00 149.38 174.10 148.78 174.81 C 148.18 175.53 148.28 176.59 148.99 177.19 Z M 149.75 177.83 L 150.52 178.49 C 151.23 179.09 152.30 179.01 152.90 178.30 C 153.51 177.59 153.43 176.52 152.72 175.92 L 151.96 175.26 C 151.25 174.65 150.18 174.73 149.57 175.44 C 148.96 176.15 149.04 177.22 149.75 177.83 Z M 150.49 178.47 L 151.24 179.14 C 151.94 179.76 153.02 179.70 153.64 178.99 C 154.26 178.29 154.20 177.22 153.50 176.60 L 152.75 175.93 C 152.04 175.31 150.97 175.37 150.35 176.07 C 149.73 176.78 149.79 177.85 150.49 178.47 Z M 151.22 179.13 L 151.96 179.79 C 152.65 180.43 153.73 180.38 154.36 179.68 C 155.00 178.99 154.95 177.91 154.25 177.28 L 153.52 176.61 C 152.82 175.97 151.74 176.02 151.11 176.72 C 150.48 177.42 150.53 178.49 151.22 179.13 Z M 151.95 179.79 L 152.68 180.47 C 153.37 181.10 154.45 181.06 155.09 180.36 C 155.73 179.67 155.69 178.59 154.99 177.95 L 154.26 177.28 C 153.56 176.64 152.48 176.68 151.85 177.38 C 151.21 178.07 151.25 179.15 151.95 179.79 Z M 152.68 180.47 L 153.42 181.15 C 154.12 181.79 155.21 181.74 155.84 181.04 C 156.48 180.34 156.43 179.25 155.73 178.62 L 154.99 177.94 C 154.29 177.30 153.21 177.35 152.57 178.05 C 151.93 178.75 151.98 179.84 152.68 180.47 Z M 153.44 181.17 L 154.17 181.82 C 154.88 182.45 155.96 182.39 156.59 181.68 C 157.22 180.97 157.16 179.88 156.45 179.25 L 155.72 178.60 C 155.01 177.97 153.93 178.03 153.29 178.74 C 152.66 179.45 152.73 180.54 153.44 181.17 Z M 154.18 181.84 L 154.92 182.48 C 155.64 183.11 156.73 183.03 157.35 182.31 C 157.98 181.59 157.90 180.50 157.18 179.88 L 156.44 179.23 C 155.72 178.61 154.63 178.69 154.01 179.41 C 153.38 180.12 153.46 181.21 154.18 181.84 Z M 154.93 182.50 L 155.70 183.15 C 156.42 183.76 157.51 183.67 158.13 182.95 C 158.75 182.22 158.66 181.13 157.93 180.51 L 157.17 179.86 C 156.44 179.25 155.35 179.34 154.74 180.06 C 154.12 180.79 154.21 181.88 154.93 182.50 Z M 155.71 183.16 L 156.49 183.81 C 157.23 184.42 158.32 184.32 158.93 183.59 C 159.54 182.85 159.44 181.76 158.71 181.15 L 157.92 180.50 C 157.19 179.89 156.10 179.99 155.49 180.72 C 154.87 181.46 154.97 182.55 155.71 183.16 Z M 156.50 183.82 L 157.28 184.47 C 158.03 185.07 159.12 184.96 159.73 184.22 C 160.33 183.48 160.22 182.39 159.48 181.78 L 158.70 181.14 C 157.96 180.53 156.86 180.64 156.26 181.38 C 155.65 182.12 155.76 183.22 156.50 183.82 Z M 157.29 184.48 L 158.05 185.09 C 158.80 185.69 159.90 185.57 160.50 184.82 C 161.10 184.08 160.98 182.98 160.23 182.38 L 159.47 181.77 C 158.72 181.17 157.63 181.28 157.03 182.03 C 156.43 182.78 156.54 183.88 157.29 184.48 Z M 158.06 185.10 L 158.84 185.71 C 159.59 186.31 160.69 186.18 161.28 185.43 C 161.88 184.67 161.75 183.58 161.00 182.98 L 160.22 182.37 C 159.47 181.77 158.37 181.90 157.78 182.65 C 157.18 183.41 157.31 184.50 158.06 185.10 Z M 158.85 185.73 L 159.64 186.34 C 160.40 186.93 161.50 186.80 162.09 186.04 C 162.68 185.27 162.54 184.18 161.78 183.59 L 160.99 182.97 C 160.23 182.38 159.13 182.51 158.54 183.28 C 157.95 184.04 158.09 185.13 158.85 185.73 Z M 159.65 186.35 L 160.46 186.97 C 161.23 187.56 162.33 187.41 162.91 186.65 C 163.50 185.88 163.35 184.78 162.58 184.19 L 161.77 183.57 C 161.00 182.99 159.91 183.13 159.32 183.90 C 158.73 184.67 158.88 185.77 159.65 186.35 Z M 160.47 186.99 L 161.27 187.58 C 162.04 188.17 163.14 188.01 163.72 187.23 C 164.30 186.46 164.15 185.36 163.37 184.78 L 162.57 184.18 C 161.80 183.60 160.70 183.76 160.12 184.53 C 159.54 185.31 159.70 186.41 160.47 186.99 Z M 161.28 187.59 L 162.07 188.17 C 162.85 188.75 163.94 188.58 164.52 187.80 C 165.09 187.02 164.93 185.93 164.15 185.35 L 163.36 184.77 C 162.58 184.20 161.48 184.36 160.91 185.14 C 160.34 185.92 160.50 187.02 161.28 187.59 Z M 162.08 188.18 L 162.88 188.76 C 163.67 189.33 164.76 189.16 165.33 188.37 C 165.90 187.59 165.72 186.49 164.94 185.92 L 164.14 185.34 C 163.35 184.77 162.25 184.95 161.69 185.73 C 161.12 186.52 161.29 187.61 162.08 188.18 Z M 162.89 188.77 L 163.71 189.36 C 164.50 189.92 165.60 189.74 166.16 188.95 C 166.72 188.16 166.54 187.06 165.75 186.50 L 164.93 185.92 C 164.14 185.35 163.04 185.54 162.48 186.33 C 161.92 187.12 162.10 188.21 162.89 188.77 Z M 163.72 189.37 L 164.56 189.95 C 165.35 190.51 166.45 190.32 167.01 189.52 C 167.56 188.73 167.37 187.63 166.58 187.08 L 165.74 186.49 C 164.94 185.93 163.85 186.13 163.29 186.92 C 162.74 187.72 162.93 188.81 163.72 189.37 Z M 164.57 189.96 L 165.40 190.53 C 166.20 191.08 167.29 190.88 167.84 190.08 C 168.39 189.28 168.19 188.19 167.39 187.64 L 166.56 187.07 C 165.77 186.52 164.67 186.72 164.12 187.52 C 163.57 188.32 163.77 189.41 164.57 189.96 Z M 165.41 190.54 L 166.21 191.08 C 167.02 191.63 168.11 191.42 168.65 190.61 C 169.20 189.81 168.99 188.72 168.18 188.17 L 167.38 187.63 C 166.58 187.09 165.49 187.30 164.94 188.10 C 164.40 188.91 164.61 190.00 165.41 190.54 Z M 166.22 191.09 L 167.04 191.63 C 167.85 192.17 168.94 191.95 169.48 191.14 C 170.01 190.33 169.79 189.24 168.99 188.71 L 168.17 188.16 C 167.36 187.63 166.27 187.85 165.73 188.66 C 165.20 189.46 165.42 190.55 166.22 191.09 Z M 167.05 191.64 L 167.89 192.19 C 168.70 192.72 169.79 192.49 170.32 191.67 C 170.85 190.86 170.62 189.77 169.81 189.24 L 168.97 188.70 C 168.16 188.17 167.07 188.40 166.54 189.21 C 166.01 190.02 166.24 191.11 167.05 191.64 Z M 167.90 192.20 L 168.76 192.74 C 169.58 193.26 170.67 193.02 171.19 192.20 C 171.71 191.39 171.47 190.30 170.65 189.78 L 169.79 189.23 C 168.97 188.71 167.89 188.95 167.37 189.77 C 166.84 190.59 167.09 191.67 167.90 192.20 Z M 168.78 192.75 L 169.66 193.30 C 170.48 193.81 171.57 193.56 172.08 192.74 C 172.59 191.91 172.34 190.83 171.52 190.32 L 170.63 189.77 C 169.81 189.25 168.73 189.51 168.21 190.33 C 167.70 191.16 167.95 192.24 168.78 192.75 Z M 169.68 193.31 L 170.53 193.83 C 171.36 194.33 172.44 194.07 172.94 193.24 C 173.45 192.41 173.18 191.33 172.36 190.83 L 171.50 190.31 C 170.67 189.80 169.59 190.07 169.09 190.90 C 168.58 191.73 168.85 192.81 169.68 193.31 Z M 170.55 193.84 L 171.40 194.34 C 172.23 194.84 173.31 194.56 173.80 193.73 C 174.30 192.90 174.02 191.82 173.19 191.33 L 172.34 190.82 C 171.51 190.33 170.43 190.60 169.94 191.43 C 169.44 192.27 169.71 193.34 170.55 193.84 Z M 171.41 194.35 L 172.28 194.85 C 173.12 195.34 174.19 195.06 174.68 194.22 C 175.16 193.39 174.88 192.32 174.05 191.83 L 173.18 191.32 C 172.34 190.84 171.27 191.12 170.78 191.95 C 170.30 192.79 170.58 193.86 171.41 194.35 Z M 172.30 194.86 L 173.17 195.36 C 174.01 195.84 175.08 195.55 175.56 194.71 C 176.03 193.87 175.74 192.81 174.91 192.33 L 174.03 191.83 C 173.19 191.35 172.13 191.64 171.65 192.47 C 171.17 193.31 171.46 194.38 172.30 194.86 Z M 173.19 195.36 L 174.07 195.86 C 174.91 196.33 175.97 196.03 176.44 195.19 C 176.91 194.35 176.61 193.29 175.77 192.82 L 174.89 192.32 C 174.06 191.85 172.99 192.15 172.52 192.99 C 172.05 193.83 172.35 194.89 173.19 195.36 Z M 174.08 195.86 L 174.96 196.35 C 175.80 196.81 176.86 196.50 177.32 195.66 C 177.78 194.82 177.48 193.77 176.64 193.30 L 175.76 192.82 C 174.92 192.35 173.86 192.66 173.40 193.50 C 172.93 194.34 173.24 195.40 174.08 195.86 Z M 174.97 196.35 L 175.86 196.83 C 176.70 197.29 177.76 196.98 178.21 196.13 C 178.67 195.29 178.36 194.24 177.52 193.78 L 176.63 193.30 C 175.78 192.84 174.73 193.15 174.27 194.00 C 173.82 194.84 174.13 195.89 174.97 196.35 Z M 175.88 196.83 L 176.77 197.31 C 177.62 197.76 178.67 197.44 179.12 196.60 C 179.57 195.76 179.25 194.71 178.40 194.26 L 177.50 193.78 C 176.66 193.33 175.61 193.65 175.16 194.49 C 174.71 195.34 175.03 196.38 175.88 196.83 Z M 176.79 197.32 L 177.68 197.78 C 178.52 198.23 179.57 197.90 180.01 197.06 C 180.45 196.21 180.13 195.17 179.28 194.72 L 178.39 194.26 C 177.55 193.81 176.50 194.14 176.06 194.98 C 175.62 195.83 175.94 196.87 176.79 197.32 Z M 177.69 197.78 L 178.57 198.24 C 179.42 198.68 180.46 198.35 180.89 197.50 C 181.33 196.66 181.00 195.62 180.15 195.18 L 179.27 194.72 C 178.43 194.29 177.39 194.62 176.95 195.46 C 176.51 196.31 176.84 197.35 177.69 197.78 Z M 178.58 198.24 L 179.46 198.69 C 180.31 199.12 181.34 198.79 181.77 197.94 C 182.21 197.09 181.87 196.06 181.02 195.63 L 180.14 195.18 C 179.30 194.75 178.26 195.08 177.83 195.93 C 177.40 196.78 177.74 197.81 178.58 198.24 Z M 179.47 198.69 L 180.35 199.13 C 181.19 199.56 182.23 199.22 182.65 198.37 C 183.08 197.53 182.74 196.50 181.89 196.07 L 181.02 195.63 C 180.17 195.20 179.14 195.54 178.71 196.39 C 178.29 197.23 178.63 198.26 179.47 198.69 Z M 180.36 199.13 L 181.25 199.58 C 182.09 200.00 183.12 199.66 183.54 198.81 C 183.96 197.97 183.62 196.94 182.78 196.52 L 181.88 196.07 C 181.04 195.65 180.01 195.99 179.59 196.84 C 179.17 197.68 179.51 198.71 180.36 199.13 Z M 181.26 199.58 L 182.16 200.02 C 183.00 200.44 184.03 200.09 184.44 199.25 C 184.86 198.40 184.51 197.38 183.67 196.96 L 182.77 196.52 C 181.92 196.10 180.90 196.45 180.48 197.29 C 180.07 198.14 180.41 199.16 181.26 199.58 Z M 182.17 200.02 L 183.07 200.46 C 183.91 200.87 184.93 200.52 185.34 199.68 C 185.76 198.83 185.40 197.82 184.56 197.40 L 183.66 196.96 C 182.82 196.55 181.80 196.90 181.38 197.74 C 180.97 198.59 181.32 199.61 182.17 200.02 Z M 183.08 200.46 L 183.98 200.89 C 184.82 201.30 185.84 200.95 186.24 200.10 C 186.65 199.26 186.30 198.24 185.45 197.84 L 184.55 197.40 C 183.71 197.00 182.69 197.35 182.29 198.19 C 181.88 199.04 182.23 200.05 183.08 200.46 Z M 183.99 200.89 L 184.89 201.32 C 185.73 201.72 186.74 201.36 187.14 200.52 C 187.54 199.67 187.19 198.66 186.34 198.26 L 185.44 197.84 C 184.60 197.44 183.59 197.79 183.19 198.64 C 182.78 199.48 183.14 200.49 183.99 200.89 Z M 184.90 201.32 L 185.80 201.74 C 186.65 202.14 187.65 201.77 188.05 200.93 C 188.44 200.08 188.07 199.08 187.23 198.68 L 186.33 198.26 C 185.48 197.87 184.48 198.23 184.08 199.08 C 183.69 199.92 184.06 200.93 184.90 201.32 Z M 185.81 201.74 L 186.74 202.17 C 187.59 202.55 188.59 202.18 188.97 201.34 C 189.36 200.49 188.99 199.49 188.14 199.10 L 187.22 198.68 C 186.37 198.29 185.37 198.67 184.98 199.51 C 184.60 200.36 184.97 201.36 185.81 201.74 Z M 186.75 202.17 L 187.68 202.58 C 188.53 202.96 189.52 202.59 189.90 201.74 C 190.28 200.89 189.90 199.90 189.05 199.52 L 188.13 199.10 C 187.28 198.72 186.29 199.10 185.91 199.95 C 185.53 200.80 185.91 201.79 186.75 202.17 Z M 187.69 202.58 L 188.61 202.99 C 189.46 203.36 190.45 202.98 190.82 202.13 C 191.19 201.28 190.81 200.30 189.96 199.92 L 189.04 199.52 C 188.19 199.15 187.21 199.53 186.83 200.38 C 186.46 201.22 186.85 202.21 187.69 202.58 Z M 188.63 202.99 L 189.54 203.39 C 190.39 203.75 191.37 203.36 191.74 202.51 C 192.10 201.67 191.71 200.68 190.86 200.32 L 189.95 199.92 C 189.10 199.56 188.12 199.95 187.75 200.80 C 187.39 201.64 187.78 202.63 188.63 202.99 Z M 189.55 203.39 L 190.46 203.77 C 191.31 204.13 192.28 203.73 192.64 202.88 C 193.00 202.04 192.60 201.06 191.76 200.70 L 190.85 200.32 C 190.00 199.96 189.03 200.35 188.67 201.20 C 188.31 202.05 188.71 203.03 189.55 203.39 Z M 190.47 203.77 L 191.39 204.15 C 192.24 204.50 193.21 204.10 193.56 203.25 C 193.91 202.40 193.51 201.43 192.66 201.08 L 191.74 200.70 C 190.90 200.35 189.92 200.75 189.57 201.60 C 189.22 202.45 189.62 203.42 190.47 203.77 Z M 191.41 204.15 L 192.36 204.53 C 193.20 204.87 194.17 204.46 194.51 203.62 C 194.85 202.77 194.44 201.81 193.60 201.47 L 192.65 201.08 C 191.80 200.74 190.84 201.15 190.49 202.00 C 190.15 202.84 190.56 203.80 191.41 204.15 Z M 192.38 204.53 L 193.31 204.90 C 194.16 205.23 195.11 204.81 195.44 203.97 C 195.78 203.12 195.36 202.17 194.51 201.83 L 193.58 201.47 C 192.73 201.14 191.78 201.55 191.45 202.40 C 191.11 203.24 191.53 204.20 192.38 204.53 Z M 193.34 204.90 L 194.27 205.25 C 195.11 205.56 196.05 205.14 196.37 204.29 C 196.69 203.45 196.26 202.50 195.42 202.19 L 194.49 201.84 C 193.64 201.52 192.70 201.94 192.38 202.79 C 192.07 203.63 192.49 204.58 193.34 204.90 Z M 194.29 205.25 L 195.22 205.58 C 196.06 205.88 196.99 205.44 197.30 204.60 C 197.60 203.75 197.16 202.82 196.32 202.52 L 195.39 202.19 C 194.55 201.88 193.62 202.32 193.31 203.17 C 193.01 204.01 193.45 204.94 194.29 205.25 Z M 195.25 205.58 L 196.17 205.89 C 197.02 206.18 197.94 205.73 198.22 204.88 C 198.51 204.04 198.06 203.12 197.21 202.83 L 196.29 202.52 C 195.44 202.23 194.52 202.68 194.24 203.53 C 193.95 204.37 194.40 205.29 195.25 205.58 Z M 196.21 205.89 L 197.14 206.19 C 197.99 206.46 198.89 205.99 199.16 205.15 C 199.43 204.30 198.96 203.40 198.11 203.13 L 197.18 202.83 C 196.33 202.56 195.43 203.03 195.16 203.87 C 194.89 204.72 195.36 205.63 196.21 205.89 Z M 197.17 206.19 L 198.12 206.47 C 198.96 206.72 199.85 206.24 200.10 205.39 C 200.36 204.54 199.87 203.65 199.02 203.40 L 198.08 203.12 C 197.23 202.87 196.34 203.36 196.09 204.20 C 195.84 205.05 196.33 205.94 197.17 206.19 Z M 198.15 206.47 L 199.11 206.74 C 199.96 206.97 200.83 206.47 201.06 205.62 C 201.30 204.77 200.80 203.90 199.95 203.67 L 198.99 203.40 C 198.14 203.17 197.27 203.67 197.04 204.52 C 196.80 205.36 197.30 206.24 198.15 206.47 Z M 199.14 206.74 L 200.12 206.99 C 200.97 207.20 201.83 206.69 202.05 205.84 C 202.26 204.99 201.75 204.13 200.90 203.92 L 199.92 203.67 C 199.07 203.45 198.21 203.96 197.99 204.81 C 197.78 205.66 198.29 206.52 199.14 206.74 Z M 200.15 206.98 L 201.15 207.22 C 202.00 207.42 202.85 206.89 203.05 206.05 C 203.24 205.20 202.72 204.35 201.87 204.15 L 200.87 203.92 C 200.02 203.72 199.18 204.24 198.98 205.09 C 198.78 205.94 199.30 206.79 200.15 206.98 Z M 201.18 207.22 L 202.14 207.43 C 202.98 207.61 203.82 207.07 204.00 206.23 C 204.19 205.38 203.65 204.55 202.80 204.36 L 201.85 204.15 C 201.00 203.97 200.16 204.51 199.98 205.35 C 199.79 206.20 200.33 207.03 201.18 207.22 Z M 202.16 207.43 L 203.14 207.62 C 203.99 207.79 204.81 207.24 204.98 206.40 C 205.15 205.55 204.60 204.73 203.75 204.56 L 202.78 204.36 C 201.93 204.19 201.11 204.74 200.94 205.59 C 200.77 206.43 201.32 207.26 202.16 207.43 Z M 203.17 207.62 L 204.17 207.80 C 205.01 207.95 205.82 207.39 205.97 206.54 C 206.13 205.70 205.56 204.89 204.72 204.74 L 203.72 204.56 C 202.88 204.40 202.07 204.97 201.92 205.81 C 201.76 206.66 202.33 207.47 203.17 207.62 Z M 204.20 207.80 L 205.20 207.96 C 206.04 208.09 206.84 207.52 206.97 206.67 C 207.11 205.82 206.53 205.03 205.68 204.89 L 204.68 204.74 C 203.84 204.60 203.04 205.18 202.91 206.03 C 202.77 206.87 203.35 207.67 204.20 207.80 Z M 205.23 207.96 L 206.23 208.09 C 207.08 208.21 207.86 207.61 207.97 206.77 C 208.08 205.92 207.49 205.14 206.64 205.03 L 205.65 204.89 C 204.80 204.78 204.02 205.37 203.91 206.22 C 203.79 207.07 204.39 207.85 205.23 207.96 Z M 206.27 208.09 L 207.26 208.20 C 208.11 208.29 208.87 207.68 208.96 206.83 C 209.05 205.98 208.44 205.22 207.59 205.13 L 206.60 205.03 C 205.75 204.94 205.00 205.55 204.90 206.40 C 204.81 207.24 205.43 208.00 206.27 208.09 Z M 207.31 208.20 L 208.29 208.28 C 209.14 208.34 209.88 207.71 209.95 206.87 C 210.01 206.02 209.38 205.28 208.54 205.21 L 207.55 205.14 C 206.71 205.07 205.96 205.70 205.90 206.54 C 205.83 207.39 206.46 208.13 207.31 208.20 Z M 208.33 208.27 L 209.31 208.33 C 210.16 208.38 210.88 207.73 210.93 206.89 C 210.97 206.04 210.33 205.32 209.48 205.27 L 208.50 205.22 C 207.66 205.17 206.93 205.81 206.89 206.66 C 206.84 207.50 207.48 208.23 208.33 208.27 Z M 209.34 208.33 L 210.33 208.36 C 211.17 208.39 211.88 207.74 211.91 206.90 C 211.95 206.05 211.29 205.34 210.45 205.31 L 209.46 205.28 C 208.61 205.24 207.91 205.90 207.87 206.74 C 207.84 207.59 208.50 208.29 209.34 208.33 Z M 210.35 208.36 L 211.36 208.38 C 212.20 208.40 212.90 207.74 212.92 206.90 C 212.94 206.06 212.27 205.36 211.43 205.34 L 210.43 205.32 C 209.59 205.30 208.89 205.96 208.87 206.80 C 208.85 207.64 209.51 208.34 210.35 208.36 Z M 211.37 208.38 L 212.40 208.39 C 213.24 208.40 213.93 207.73 213.94 206.90 C 213.95 206.06 213.28 205.37 212.44 205.36 L 211.42 205.35 C 210.58 205.33 209.89 206.00 209.88 206.84 C 209.87 207.68 210.54 208.36 211.37 208.38 Z M 212.41 208.39 L 213.36 208.40 C 214.19 208.40 214.87 207.73 214.88 206.90 C 214.89 206.07 214.22 205.38 213.38 205.38 L 212.44 205.37 C 211.60 205.36 210.92 206.03 210.91 206.86 C 210.90 207.70 211.57 208.38 212.41 208.39 Z M 213.36 208.39 L 214.33 208.40 C 215.16 208.40 215.84 207.73 215.85 206.90 C 215.85 206.07 215.18 205.39 214.35 205.39 L 213.38 205.38 C 212.55 205.38 211.87 206.04 211.87 206.88 C 211.86 207.71 212.53 208.38 213.36 208.39 Z M 214.34 208.39 L 215.33 208.39 C 216.16 208.40 216.83 207.73 216.83 206.90 C 216.84 206.07 216.17 205.40 215.34 205.40 L 214.35 205.39 C 213.52 205.39 212.84 206.06 212.84 206.89 C 212.84 207.71 213.51 208.39 214.34 208.39 Z M 215.33 208.39 L 216.34 208.39 C 217.17 208.39 217.84 207.73 217.84 206.90 C 217.84 206.07 217.17 205.40 216.35 205.40 L 215.34 205.40 C 214.51 205.40 213.84 206.07 213.84 206.89 C 213.84 207.72 214.51 208.39 215.33 208.39 Z M 216.34 208.39 L 217.37 208.39 C 218.19 208.39 218.86 207.72 218.86 206.90 C 218.86 206.08 218.20 205.41 217.37 205.41 L 216.35 205.41 C 215.52 205.41 214.86 206.07 214.86 206.90 C 214.85 207.72 215.52 208.39 216.34 208.39 Z M 217.37 208.38 L 218.42 208.38 C 219.24 208.38 219.90 207.72 219.90 206.90 C 219.90 206.08 219.24 205.41 218.42 205.41 L 217.37 205.41 C 216.55 205.41 215.89 206.08 215.89 206.90 C 215.89 207.72 216.55 208.38 217.37 208.38 Z M 218.42 208.38 L 219.41 208.38 C 220.22 208.38 220.89 207.71 220.89 206.90 C 220.89 206.08 220.22 205.42 219.40 205.42 L 218.42 205.42 C 217.60 205.42 216.94 206.08 216.94 206.90 C 216.94 207.72 217.60 208.38 218.42 208.38 Z M 219.41 208.38 L 220.40 208.37 C 221.21 208.37 221.87 207.71 221.87 206.89 C 221.87 206.08 221.21 205.42 220.39 205.42 L 219.40 205.42 C 218.59 205.42 217.92 206.08 217.93 206.90 C 217.93 207.72 218.59 208.38 219.41 208.38 Z M 220.40 208.37 L 221.40 208.37 C 222.21 208.36 222.87 207.70 222.87 206.88 C 222.86 206.06 222.20 205.41 221.38 205.41 L 220.38 205.42 C 219.57 205.42 218.91 206.09 218.92 206.91 C 218.92 207.72 219.59 208.38 220.40 208.37 Z M 221.41 208.36 L 222.41 208.35 C 223.23 208.34 223.88 207.67 223.87 206.86 C 223.86 206.04 223.19 205.39 222.37 205.40 L 221.37 205.41 C 220.56 205.42 219.90 206.09 219.91 206.91 C 219.93 207.72 220.59 208.37 221.41 208.36 Z M 222.42 208.35 L 223.43 208.33 C 224.25 208.31 224.89 207.64 224.87 206.82 C 224.86 206.01 224.18 205.36 223.37 205.38 L 222.36 205.40 C 221.55 205.42 220.90 206.09 220.92 206.91 C 220.94 207.72 221.61 208.37 222.42 208.35 Z M 223.45 208.33 L 224.46 208.29 C 225.27 208.27 225.91 207.59 225.88 206.77 C 225.86 205.96 225.18 205.32 224.37 205.35 L 223.35 205.38 C 222.54 205.41 221.90 206.09 221.93 206.90 C 221.96 207.71 222.64 208.35 223.45 208.33 Z M 224.48 208.29 L 225.49 208.25 C 226.30 208.21 226.93 207.52 226.89 206.71 C 226.85 205.90 226.17 205.27 225.36 205.31 L 224.35 205.35 C 223.54 205.39 222.91 206.08 222.94 206.89 C 222.98 207.70 223.67 208.33 224.48 208.29 Z M 225.51 208.24 L 226.50 208.19 C 227.32 208.14 227.93 207.44 227.89 206.63 C 227.84 205.82 227.14 205.20 226.33 205.25 L 225.34 205.31 C 224.53 205.36 223.91 206.05 223.95 206.86 C 224.00 207.67 224.70 208.29 225.51 208.24 Z M 226.52 208.18 L 227.52 208.11 C 228.33 208.06 228.94 207.35 228.88 206.54 C 228.82 205.73 228.12 205.12 227.31 205.18 L 226.31 205.25 C 225.50 205.31 224.89 206.01 224.95 206.82 C 225.01 207.63 225.71 208.24 226.52 208.18 Z M 227.53 208.11 L 228.53 208.03 C 229.34 207.97 229.94 207.26 229.88 206.45 C 229.81 205.64 229.10 205.04 228.29 205.10 L 227.30 205.18 C 226.49 205.25 225.88 205.96 225.95 206.77 C 226.01 207.57 226.72 208.18 227.53 208.11 Z M 228.54 208.03 L 229.54 207.94 C 230.35 207.87 230.94 207.16 230.87 206.35 C 230.80 205.54 230.09 204.94 229.28 205.01 L 228.28 205.10 C 227.47 205.17 226.88 205.89 226.95 206.70 C 227.02 207.51 227.73 208.10 228.54 208.03 Z M 229.54 207.94 L 230.54 207.85 C 231.35 207.78 231.94 207.06 231.87 206.25 C 231.79 205.44 231.08 204.85 230.27 204.92 L 229.27 205.02 C 228.46 205.09 227.87 205.81 227.94 206.62 C 228.02 207.43 228.74 208.02 229.54 207.94 Z M 230.55 207.85 L 231.54 207.75 C 232.35 207.68 232.94 206.96 232.87 206.15 C 232.79 205.34 232.07 204.75 231.26 204.83 L 230.26 204.92 C 229.45 205.00 228.86 205.72 228.94 206.53 C 229.02 207.34 229.74 207.93 230.55 207.85 Z M 231.54 207.75 L 232.09 207.70 C 232.90 207.62 233.49 206.90 233.41 206.09 C 233.33 205.28 232.61 204.69 231.81 204.77 L 231.26 204.83 C 230.45 204.90 229.86 205.62 229.94 206.43 C 230.02 207.24 230.74 207.83 231.54 207.75 Z"
      fill="black"
      fill-rule="nonzero" /></svg>